<?xml version="1.0" encoding="UTF-8"?>
<svg xmlns="http://www.w3.org/2000/svg" xmlns:xlink="http://www.w3.org/1999/xlink" width="63.099pt" height="34.76pt" viewBox="0 0 63.099 34.76" version="1.2">
<defs>
<clipPath id="clip1">
  <path d="M 0 0 L 62.648438 0 L 62.648438 34.640625 L 0 34.640625 Z M 0 0 "/>
</clipPath>
<clipPath id="clip2">
  <path d="M 0 4 L 62.648438 4 L 62.648438 34.640625 L 0 34.640625 Z M 0 4 "/>
</clipPath>
</defs>
<g id="surface1">
<path style=" stroke:none;fill-rule:nonzero;fill:rgb(50%,50%,50%);fill-opacity:1;" d="M 4.742188 31.4375 C 4.742188 30.335938 3.847656 29.445312 2.75 29.445312 C 1.648438 29.445312 0.757812 30.335938 0.757812 31.4375 C 0.757812 32.535156 1.648438 33.429688 2.75 33.429688 C 3.847656 33.429688 4.742188 32.535156 4.742188 31.4375 Z M 33.085938 3.089844 C 33.085938 1.988281 32.195312 1.097656 31.09375 1.097656 C 29.996094 1.097656 29.101562 1.988281 29.101562 3.089844 C 29.101562 4.191406 29.996094 5.082031 31.09375 5.082031 C 32.195312 5.082031 33.085938 4.191406 33.085938 3.089844 Z M 61.433594 3.089844 C 61.433594 1.988281 60.542969 1.097656 59.441406 1.097656 C 58.339844 1.097656 57.449219 1.988281 57.449219 3.089844 C 57.449219 4.191406 58.339844 5.082031 59.441406 5.082031 C 60.542969 5.082031 61.433594 4.191406 61.433594 3.089844 Z M 61.433594 31.4375 C 61.433594 30.335938 60.542969 29.445312 59.441406 29.445312 C 58.339844 29.445312 57.449219 30.335938 57.449219 31.4375 C 57.449219 32.535156 58.339844 33.429688 59.441406 33.429688 C 60.542969 33.429688 61.433594 32.535156 61.433594 31.4375 Z M 61.433594 31.4375 "/>
<g clip-path="url(#clip1)" clip-rule="nonzero">
<path style="fill:none;stroke-width:0.3985;stroke-linecap:butt;stroke-linejoin:miter;stroke:rgb(50%,50%,50%);stroke-opacity:1;stroke-miterlimit:10;" d="M 1.993687 -0.0015 C 1.993687 1.100062 1.099156 1.990687 0.0015 1.990687 C -1.100063 1.990687 -1.990688 1.100062 -1.990688 -0.0015 C -1.990688 -1.099156 -1.100063 -1.993688 0.0015 -1.993688 C 1.099156 -1.993688 1.993687 -1.099156 1.993687 -0.0015 Z M 30.337437 28.346156 C 30.337437 29.447719 29.446812 30.338344 28.34525 30.338344 C 27.247594 30.338344 26.353062 29.447719 26.353062 28.346156 C 26.353062 27.244594 27.247594 26.353969 28.34525 26.353969 C 29.446812 26.353969 30.337437 27.244594 30.337437 28.346156 Z M 58.685094 28.346156 C 58.685094 29.447719 57.794469 30.338344 56.692906 30.338344 C 55.591344 30.338344 54.700719 29.447719 54.700719 28.346156 C 54.700719 27.244594 55.591344 26.353969 56.692906 26.353969 C 57.794469 26.353969 58.685094 27.244594 58.685094 28.346156 Z M 58.685094 -0.0015 C 58.685094 1.100062 57.794469 1.990687 56.692906 1.990687 C 55.591344 1.990687 54.700719 1.100062 54.700719 -0.0015 C 54.700719 -1.099156 55.591344 -1.993688 56.692906 -1.993688 C 57.794469 -1.993688 58.685094 -1.099156 58.685094 -0.0015 Z M 58.685094 -0.0015 " transform="matrix(1,0,0,-1,2.7485,31.436)"/>
</g>
<g clip-path="url(#clip2)" clip-rule="nonzero">
<path style="fill:none;stroke-width:0.3985;stroke-linecap:butt;stroke-linejoin:miter;stroke:rgb(0%,0%,0%);stroke-opacity:1;stroke-miterlimit:10;" d="M 0.0015 -0.0015 C 28.34525 28.346156 56.692906 28.346156 56.692906 -0.0015 " transform="matrix(1,0,0,-1,2.7485,31.436)"/>
</g>
</g>
</svg>
