<svg xmlns="http://www.w3.org/2000/svg" width="25.599" height="49.34"><path fill="#FF0" d="M20.074 8.16A7.47 7.47 0 0 0 12.602.688a7.47 7.47 0 0 0-7.47 7.472 7.472 7.472 0 1 0 14.942 0m0 0"/><path fill="#0FF" d="M15.762 15.633a7.473 7.473 0 1 0-14.945 0 7.473 7.473 0 0 0 14.945 0m0 0"/><path fill="#F0F" d="M24.39 15.633a7.473 7.473 0 1 0-14.945 0 7.473 7.473 0 0 0 14.946 0m0 0"/><path fill="#FFFF7F" d="M20.074 33.066a7.472 7.472 0 1 0-14.941 0 7.472 7.472 0 1 0 14.941 0m0 0"/><path fill="#7FFFFF" d="M15.762 40.54a7.473 7.473 0 1 0-14.945 0 7.473 7.473 0 0 0 14.945 0m0 0"/><path fill="#FF7FFF" d="M24.39 40.54a7.473 7.473 0 1 0-14.945 0 7.473 7.473 0 0 0 14.946 0m0 0"/></svg>