<svg xmlns="http://www.w3.org/2000/svg" xmlns:xlink="http://www.w3.org/1999/xlink" width="306.452" height="309.494"><defs><path id="b" d="M8.5 0v-.469h-.297c-.531 0-.562-.047-.672-.203L4.828-4.203l2.406-1.984c.22-.188.625-.188.938-.188h.156v-.469c-.39.032-.969.032-1.015.032-.375 0-1.094 0-1.454-.032v.469c.125 0 .329 0 .579.063.156.03.046.015.125.046L2.875-3.187v-3.188h1.078v-.469c-.375.032-1.344.032-1.781.032-.422 0-1.406 0-1.781-.032v.469h1.078v5.906H.39V0C.766-.031 1.75-.031 2.17-.031c.438 0 1.407 0 1.782.031v-.469H2.875v-2.093l1-.829L5.938-.687c.046.062.046.078.078.14-.188.078-.391.078-.735.078V0c.407-.031 1.313-.031 1.75-.031.407 0 1.094 0 1.469.031m0 0"/><path id="c" d="M2.844 0v-.469h-.61v-4.015L.5-4.406v.468c.594 0 .656 0 .656.391v3.078H.47V0l1.219-.031Zm-.469-6.047a.774.774 0 0 0-.781-.781.784.784 0 0 0-.782.781c0 .422.36.766.782.766a.77.77 0 0 0 .781-.766m0 0"/><path id="d" d="M3.813-1.234v-.532h-.47v.516c0 .672-.327.906-.609.906-.578 0-.578-.64-.578-.86v-2.75h1.469v-.468H2.156v-1.906h-.469c0 1-.484 1.984-1.484 2.016v.359h.828v2.734c0 1.063.86 1.282 1.578 1.282.75 0 1.204-.579 1.204-1.297m0 0"/><path id="e" d="M4.922-1.172c0-.172-.188-.172-.234-.172-.172 0-.188.047-.25.203-.204.485-.782.797-1.422.797-1.407 0-1.422-1.328-1.422-1.828h3.015c.22 0 .313 0 .313-.265 0-.313-.063-1.047-.563-1.547-.359-.36-.89-.532-1.578-.532C1.187-4.516.313-3.484.313-2.25c0 1.344 1 2.313 2.609 2.313 1.578 0 2-1.063 2-1.235M3.984-2.5h-2.39c.015-.39.031-.812.234-1.14.266-.391.672-.516.953-.516 1.172 0 1.188 1.312 1.203 1.656m0 0"/><path id="f" d="M3.078.313c0-.125-.047-.157-.187-.25C2.063-.5 1.75-1.391 1.75-2.125c0-.672.25-1.594 1.156-2.203.125-.094.172-.125.172-.25a.254.254 0 0 0-.265-.25c-.204 0-1.641.906-1.641 2.703 0 .813.312 1.438.562 1.781.375.516.907.907 1.079.907.218 0 .265-.172.265-.25m0 0"/><path id="g" d="M3.219-.906c0-.735-.906-.906-1.14-.938l-.704-.125C1.188-2 1-2.079 1-2.25c0-.156.219-.328.813-.328.515 0 .609.172.625.328.015.14.03.281.28.281.298 0 .298-.156.298-.328v-.469c0-.14-.016-.328-.25-.328-.157 0-.22.063-.25.125-.282-.125-.563-.125-.688-.125-1.187 0-1.344.594-1.344.844 0 .656.735.797 1.391.89.297.063.828.141.828.454 0 .234-.25.422-.828.422-.297 0-.656-.063-.812-.563C1.03-1.203.984-1.28.78-1.28c-.297 0-.297.172-.297.328v.656c0 .14 0 .344.25.344.079 0 .188 0 .282-.234.328.218.672.234.859.234 1.125 0 1.344-.61 1.344-.953m0 0"/><path id="h" d="M2.313-.469a.477.477 0 0 0-.485-.484.47.47 0 0 0-.469.469c0 .28.22.484.47.484a.473.473 0 0 0 .484-.469m0 0"/><path id="i" d="M3.578-.266c0-.25-.219-.25-.328-.25H3v-2.187c0-.25-.047-.328-.328-.328h-.485c-.14 0-.343 0-.343.25 0 .265.218.265.328.265h.25v1.391c0 .563-.516.64-.719.64-.469 0-.484-.187-.484-.39v-1.828c0-.25-.047-.328-.313-.328h-.5c-.14 0-.328 0-.328.25 0 .265.203.265.313.265h.25v1.688c0 .687.5.875 1.03.875.266 0 .517-.063.767-.219C2.484 0 2.625 0 2.75 0h.5c.125 0 .328 0 .328-.266m0 0"/><path id="j" d="M3.422-1.516c0-.875-.64-1.562-1.39-1.562-.298 0-.579.11-.813.281 0-.172-.063-.234-.313-.234h-.5c-.14 0-.343 0-.343.25 0 .265.218.265.328.265h.25v3.5H.406c-.14 0-.343 0-.343.266 0 .25.218.25.328.25h1.093c.11 0 .329 0 .329-.25 0-.266-.204-.266-.344-.266h-.25V-.234c.265.234.531.28.734.28.766 0 1.469-.671 1.469-1.562m-.578 0c0 .61-.453 1.032-.906 1.032-.485 0-.704-.563-.704-.875v-.485c0-.375.375-.703.766-.703.469 0 .844.469.844 1.031m0 0"/><path id="k" d="M3.25-.797c0-.234-.234-.234-.281-.234-.156 0-.219.015-.281.172-.141.328-.485.375-.657.375-.469 0-.937-.297-1.062-.813h1.953c.172 0 .328 0 .328-.312 0-.797-.453-1.485-1.375-1.485-.828 0-1.516.703-1.516 1.563S1.08.047 1.984.047c.938 0 1.266-.656 1.266-.844m-.594-1.015H.97c.125-.438.484-.766.906-.766.328 0 .703.156.781.765m0 0"/><path id="l" d="M3.406-2.594c0-.156-.078-.484-.703-.484-.328 0-.734.11-1.094.469v-.094c0-.25-.046-.328-.328-.328h-.75c-.125 0-.328 0-.328.25 0 .265.203.265.328.265h.5v2h-.5c-.125 0-.328 0-.328.25C.203 0 .406 0 .531 0h1.781c.126 0 .329 0 .329-.266 0-.25-.203-.25-.328-.25h-.704v-.796c0-.61.36-1.22 1.11-1.235 0 .156.172.281.344.281.187 0 .343-.125.343-.328m0 0"/><path id="m" d="M3.5-2.781c0-.25-.203-.25-.328-.25h-.797c-.125 0-.328 0-.328.25 0 .265.203.265.328.265h.11l-.657 1.97-.672-1.97h.125c.125 0 .328 0 .328-.265 0-.25-.203-.25-.328-.25H.484c-.14 0-.328 0-.328.25 0 .265.203.265.328.265h.157l.78 2.282c.079.265.25.265.407.265.14 0 .328-.015.406-.265L3-2.516h.172c.125 0 .328 0 .328-.265m0 0"/><path id="n" d="M3.14-.906c0-.156 0-.313-.296-.313-.266 0-.266.157-.266.297-.015.375-.36.438-.515.438-.454 0-.454-.313-.454-.47v-1.562h1.047c.125 0 .328 0 .328-.265 0-.25-.187-.25-.328-.25H1.61v-.516c0-.14-.015-.328-.296-.328-.282 0-.282.172-.282.328v.516H.484c-.125 0-.328 0-.328.25 0 .265.203.265.328.265h.547v1.61c0 .687.485.953 1.016.953S3.14-.266 3.14-.906m0 0"/><path id="o" d="M3.469-.266c0-.25-.203-.25-.328-.25h-.25l-.828-1.046.734-.954h.234c.125 0 .344 0 .344-.265 0-.25-.219-.25-.344-.25H2.25c-.125 0-.328 0-.328.25 0 .203.11.265.281.265l-.39.547-.422-.547c.156 0 .28-.062.28-.265 0-.25-.202-.25-.327-.25H.547c-.125 0-.328 0-.328.25 0 .265.219.265.328.265h.25l.75.954L.75-.516H.516c-.125 0-.344 0-.344.25C.172 0 .39 0 .516 0h.78c.126 0 .329 0 .329-.266 0-.203-.11-.25-.297-.25l.484-.703.5.703c-.187 0-.296.047-.296.25 0 .266.203.266.328.266h.797c.109 0 .328 0 .328-.266m0 0"/><path id="p" d="M2.484-2.125c0-.828-.312-1.453-.562-1.797-.375-.515-.906-.906-1.078-.906-.203 0-.266.187-.266.25 0 .125.094.187.14.219 1.095.718 1.188 1.797 1.188 2.234 0 .656-.25 1.578-1.14 2.188C.64.14.578.188.578.313c0 .078.063.25.266.25s1.64-.907 1.64-2.688m0 0"/><path id="q" d="M3.281-.266c0-.25-.203-.25-.328-.25h-.828v-3.406c0-.25-.062-.344-.328-.344H.719C.579-4.266.39-4.25.39-4s.203.266.312.266h.844v3.218H.719c-.14 0-.328 0-.328.25C.39 0 .594 0 .703 0h2.25c.125 0 .328 0 .328-.266m0 0"/><path id="r" d="M3.063-3.844c0-.437-.579-.453-.704-.453-.578 0-1.125.328-1.125.953v.313H.61c-.125 0-.328 0-.328.25 0 .265.203.265.328.265h.625v2H.61c-.125 0-.343 0-.343.25C.266 0 .484 0 .609 0h1.844c.125 0 .328 0 .328-.266 0-.25-.203-.25-.328-.25h-.64v-2h.78c.11 0 .313 0 .313-.265 0-.25-.187-.25-.312-.25h-.781v-.266c0-.453.359-.484.562-.484.031.11.125.297.344.297a.35.35 0 0 0 .344-.36m0 0"/><path id="s" d="M3.281-1.516c0-.89-.672-1.578-1.453-1.578-.797 0-1.453.688-1.453 1.578S1.047.047 1.828.047c.766 0 1.453-.688 1.453-1.563m-.578-.046c0 .593-.406 1.078-.875 1.078S.953-.97.953-1.562s.422-1.016.875-1.016.875.422.875 1.015m0 0"/><path id="t" d="M3.547-2.781c0-.25-.188-.25-.328-.25h-.781c-.157 0-.344 0-.344.25 0 .265.172.265.344.265h.265l-.297 1.72-.14-.532c-.125-.469-.172-.547-.422-.547-.094 0-.235 0-.328.188l-.266.906-.297-1.735h.266c.156 0 .343 0 .343-.265 0-.25-.187-.25-.343-.25H.437c-.14 0-.343 0-.343.25 0 .234.14.265.36.265L.858-.28c.032.187.047.312.36.312.312 0 .343-.062.453-.515l.172-.641.265 1c.094.14.235.156.344.156.281 0 .313-.125.344-.312l.406-2.235c.219 0 .344-.03.344-.265m0 0"/><path id="u" d="M3.188-.266c0-.25-.204-.25-.329-.25h-.656v-2.187c0-.25-.047-.328-.328-.328H.906c-.125 0-.328 0-.328.25 0 .265.203.265.328.265h.719v2H.859c-.14 0-.343 0-.343.25C.516 0 .734 0 .859 0h2c.125 0 .329 0 .329-.266m-.954-3.562a.39.39 0 0 0-.406-.39.387.387 0 0 0-.39.39c0 .219.171.39.39.39a.39.39 0 0 0 .406-.39m0 0"/><path id="v" d="M3.563-2.687c0-.172-.141-.422-.547-.422a1.5 1.5 0 0 0-.735.218 1.2 1.2 0 0 0-.656-.187c-.656 0-1.172.531-1.172 1.14 0 .282.11.516.203.641a1 1 0 0 0-.125.469c0 .219.078.375.14.469C.188-.031.188.42.188.5c0 .61.735 1.047 1.641 1.047S3.468 1.094 3.468.5a.97.97 0 0 0-.5-.828c-.093-.047-.39-.188-1.015-.188h-.469c-.125 0-.28.032-.39-.093-.063-.079-.063-.22-.063-.22 0-.015 0-.062.016-.109.11.063.328.157.578.157.656 0 1.188-.516 1.188-1.156 0-.188-.063-.391-.172-.563a.8.8 0 0 1 .28-.078.34.34 0 0 0 .313.219c.141 0 .329-.094.329-.328m-1.344.75c0 .359-.266.64-.594.64s-.594-.297-.594-.64.266-.625.594-.625.594.296.594.624M2.969.5c0 .281-.5.531-1.14.531C1.187 1.031.687.781.687.5.688.39.75.188.953.063c.14-.094.203-.094.688-.094.578 0 1.328 0 1.328.531m0 0"/><path id="w" d="M3.578-.266c0-.25-.203-.25-.328-.25H3v-1.53c0-.72-.36-1.032-.937-1.032-.391 0-.672.172-.844.297v-1.14c0-.25-.047-.345-.313-.345h-.5c-.14 0-.328.016-.328.266s.203.266.313.266h.25v3.218H.406c-.14 0-.328 0-.328.25C.078 0 .281 0 .391 0h1.093c.11 0 .329 0 .329-.266 0-.25-.204-.25-.344-.25h-.25v-1.156c0-.64.484-.875.797-.875.328 0 .406.172.406.547v1.484h-.203c-.14 0-.344 0-.344.25 0 .266.219.266.344.266H3.25c.11 0 .328 0 .328-.266m0 0"/><path id="x" d="M3.578-.266c0-.25-.203-.25-.328-.25H3v-3.406c0-.25-.047-.344-.328-.344h-.485c-.14 0-.343.016-.343.266s.218.266.328.266h.25v.906a1.26 1.26 0 0 0-.735-.25c-.765 0-1.453.672-1.453 1.562C.234-.64.875.047 1.625.047c.344 0 .61-.14.797-.313.015.188.062.266.328.266h.5c.125 0 .328 0 .328-.266M2.422-1.375c0 .36-.297.89-.781.89-.453 0-.828-.452-.828-1.03 0-.61.437-1.032.89-1.032.406 0 .719.344.719.688Zm0 0"/><path id="y" d="M3.266-.797c0-.234-.235-.234-.297-.234-.125 0-.203 0-.266.172-.047.078-.187.375-.625.375a1.027 1.027 0 0 1-1.015-1.032c0-.312.187-1.062 1.062-1.062l.344.015c.015.282.172.376.36.376.187 0 .358-.126.358-.36 0-.531-.734-.547-1.062-.547-1.219 0-1.64.953-1.64 1.578 0 .844.671 1.563 1.546 1.563 1 0 1.235-.719 1.235-.844m0 0"/><path id="z" d="M3.578-.266c0-.25-.203-.25-.328-.25H3v-1.53c0-.72-.36-1.032-.937-1.032-.391 0-.672.172-.844.297 0-.172-.047-.25-.313-.25h-.5c-.14 0-.328 0-.328.25 0 .265.203.265.313.265h.25v2H.406c-.14 0-.328 0-.328.25C.078 0 .281 0 .391 0h1.093c.11 0 .329 0 .329-.266 0-.25-.204-.25-.344-.25h-.25v-1.156c0-.64.484-.875.797-.875.328 0 .406.172.406.547v1.484h-.203c-.14 0-.344 0-.344.25 0 .266.219.266.344.266H3.25c.11 0 .328 0 .328-.266m0 0"/><path id="A" d="M3.64-.266c0-.218-.14-.25-.39-.25v-1.593c0-.157-.016-.97-.656-.97a.84.84 0 0 0-.656.313.61.61 0 0 0-.532-.312.88.88 0 0 0-.547.203c-.046-.156-.187-.156-.312-.156H.328c-.125 0-.328 0-.328.25 0 .234.125.265.39.265v2c-.265 0-.39.032-.39.25C0 0 .219 0 .328 0h.594c.125 0 .312 0 .312-.266 0-.218-.109-.25-.359-.25v-1.171c0-.563.234-.86.5-.86.14 0 .203.11.203.5v1.531c-.156 0-.281.032-.281.25 0 .266.187.266.312.266h.516c.125 0 .313 0 .313-.266 0-.218-.126-.25-.376-.25v-1.171c0-.563.25-.86.5-.86.141 0 .204.11.204.5v1.531c-.141 0-.282.032-.282.25 0 .266.204.266.313.266h.5c.125 0 .344 0 .344-.266m0 0"/><path id="B" d="M3.422-1.516c0-.875-.64-1.562-1.39-1.562-.298 0-.579.11-.813.265v-1.109c0-.25-.047-.344-.313-.344h-.5c-.14 0-.343.016-.343.266s.218.266.328.266h.25v3.406C.64-.172.656 0 .938 0c.218 0 .28-.094.28-.234.266.218.532.28.735.28.766 0 1.469-.671 1.469-1.562m-.578 0c0 .61-.453 1.032-.906 1.032-.485 0-.704-.563-.704-.875v-.485c0-.375.375-.703.766-.703.469 0 .844.469.844 1.031m0 0"/><path id="C" d="M3.625-.266c0-.25-.203-.25-.328-.25-.203 0-.297-.03-.344-.046V-2c0-.5-.375-1.094-1.406-1.094-.313 0-1.031.016-1.031.547 0 .235.172.36.359.36.11 0 .344-.063.344-.36 0 0 .234-.031.343-.031.454 0 .782.187.813.594-1.219.03-2.047.39-2.047 1.062 0 .485.453.969 1.188.969.234 0 .656-.047.968-.25.172.187.485.203.75.203.235 0 .391-.016.391-.266M2.359-.969c0 .14 0 .266-.234.375-.234.11-.516.11-.578.11-.39 0-.64-.203-.64-.438 0-.312.546-.515 1.452-.562Zm0 0"/><path id="D" d="M3.094-.266c0-.25-.188-.25-.313-.25H2.22V-4c0-.125-.016-.328-.266-.328-.156 0-.219.094-.25.187-.234.547-.578.625-.687.641-.141 0-.313.031-.313.266 0 .203.156.25.281.25s.375-.032.657-.235v2.703h-.563c-.14 0-.328 0-.328.25C.75 0 .953 0 1.078 0h1.703c.125 0 .313 0 .313-.266m0 0"/><path id="E" d="M3.313-2.125c0-1.297-.72-2.203-1.485-2.203-.781 0-1.5.922-1.5 2.203 0 1.297.734 2.203 1.5 2.203.781 0 1.485-.922 1.485-2.203m-.563-.078c0 .969-.422 1.75-.922 1.75-.516 0-.922-.781-.922-1.75 0-.953.438-1.61.922-1.61.469 0 .922.657.922 1.61m0 0"/><clipPath id="a"><path d="M0 0h306.18v309.242H0Zm0 0"/></clipPath></defs><path fill="#FFFBB3" d="M152.031 18.77 36.688 85.37 152.03 285.168 267.38 85.371Zm0 0"/><g clip-path="url(#a)"><path fill="none" stroke="#B2B2B2" stroke-miterlimit="10" stroke-width="14.173" d="M152.031 18.77 36.688 85.37 152.03 285.168 267.38 85.371Zm0 0"/></g><g fill="#B2B2B2"><use xlink:href="#b" x="140.605" y="149.135"/><use xlink:href="#c" x="149.581" y="149.135"/><use xlink:href="#d" x="152.759" y="149.135"/><use xlink:href="#e" x="157.213" y="149.135"/></g><path fill="none" stroke="#B2B2B2" stroke-miterlimit="10" stroke-width=".996" d="M162.96 149.195V92.441"/><path fill="none" stroke="#000" stroke-miterlimit="10" stroke-width=".399" d="m150.625 11.996 2.816-2.816m-2.816 0 2.816 2.816"/><use xlink:href="#f" x="122.742" y="5.563"/><use xlink:href="#g" x="126.403" y="5.563"/><use xlink:href="#h" x="130.065" y="5.563"/><use xlink:href="#i" x="133.726" y="5.563"/><use xlink:href="#j" x="137.387" y="5.563"/><use xlink:href="#j" x="141.048" y="5.563"/><use xlink:href="#k" x="144.71" y="5.563"/><use xlink:href="#l" x="148.371" y="5.563"/><use xlink:href="#m" x="155.686" y="5.563"/><use xlink:href="#k" x="159.348" y="5.563"/><use xlink:href="#l" x="163.009" y="5.563"/><use xlink:href="#n" x="166.67" y="5.563"/><use xlink:href="#k" x="170.332" y="5.563"/><use xlink:href="#o" x="173.993" y="5.563"/><use xlink:href="#p" x="177.654" y="5.563"/><path fill="none" stroke="#000" stroke-miterlimit="10" stroke-width=".399" d="m25.598 84.184 2.816-2.817m-2.816 0 2.816 2.817"/><use xlink:href="#f" x="-.453" y="78.699"/><use xlink:href="#g" x="3.208" y="78.699"/><use xlink:href="#h" x="6.87" y="78.699"/><use xlink:href="#q" x="10.531" y="78.699"/><use xlink:href="#k" x="14.192" y="78.699"/><use xlink:href="#r" x="17.853" y="78.699"/><use xlink:href="#n" x="21.515" y="78.699"/><use xlink:href="#m" x="28.83" y="78.699"/><use xlink:href="#k" x="32.491" y="78.699"/><use xlink:href="#l" x="36.153" y="78.699"/><use xlink:href="#n" x="39.814" y="78.699"/><use xlink:href="#k" x="43.475" y="78.699"/><use xlink:href="#o" x="47.137" y="78.699"/><use xlink:href="#p" x="50.798" y="78.699"/><path fill="none" stroke="#000" stroke-miterlimit="10" stroke-width=".399" d="m150.625 300.75 2.816-2.816m-2.816 0 2.816 2.816"/><use xlink:href="#f" x="122.742" y="307.684"/><use xlink:href="#g" x="126.403" y="307.684"/><use xlink:href="#h" x="130.065" y="307.684"/><use xlink:href="#q" x="133.726" y="307.684"/><use xlink:href="#s" x="137.387" y="307.684"/><use xlink:href="#t" x="141.048" y="307.684"/><use xlink:href="#k" x="144.71" y="307.684"/><use xlink:href="#l" x="148.371" y="307.684"/><use xlink:href="#m" x="155.686" y="307.684"/><use xlink:href="#k" x="159.348" y="307.684"/><use xlink:href="#l" x="163.009" y="307.684"/><use xlink:href="#n" x="166.67" y="307.684"/><use xlink:href="#k" x="170.332" y="307.684"/><use xlink:href="#o" x="173.993" y="307.684"/><use xlink:href="#p" x="177.654" y="307.684"/><path fill="none" stroke="#000" stroke-miterlimit="10" stroke-width=".399" d="m275.648 84.184 2.82-2.817m-2.82 0 2.82 2.817"/><use xlink:href="#f" x="247.767" y="77.702"/><use xlink:href="#g" x="251.428" y="77.702"/><use xlink:href="#h" x="255.09" y="77.702"/><use xlink:href="#l" x="258.751" y="77.702"/><use xlink:href="#u" x="262.412" y="77.702"/><use xlink:href="#v" x="266.073" y="77.702"/><use xlink:href="#w" x="269.735" y="77.702"/><use xlink:href="#n" x="273.396" y="77.702"/><use xlink:href="#m" x="280.718" y="77.702"/><use xlink:href="#k" x="284.38" y="77.702"/><use xlink:href="#l" x="288.041" y="77.702"/><use xlink:href="#n" x="291.702" y="77.702"/><use xlink:href="#k" x="295.364" y="77.702"/><use xlink:href="#o" x="299.025" y="77.702"/><use xlink:href="#p" x="302.686" y="77.702"/><path fill="none" stroke="#000" stroke-miterlimit="10" stroke-width=".399" d="m88.11 48.09 2.816-2.817m-2.817 0 2.817 2.817"/><use xlink:href="#f" x="54.737" y="41.657"/><use xlink:href="#g" x="58.398" y="41.657"/><use xlink:href="#h" x="62.06" y="41.657"/><use xlink:href="#i" x="65.721" y="41.657"/><use xlink:href="#j" x="69.382" y="41.657"/><use xlink:href="#j" x="73.043" y="41.657"/><use xlink:href="#k" x="76.705" y="41.657"/><use xlink:href="#l" x="80.366" y="41.657"/><use xlink:href="#q" x="87.688" y="41.657"/><use xlink:href="#k" x="91.35" y="41.657"/><use xlink:href="#r" x="95.011" y="41.657"/><use xlink:href="#n" x="98.672" y="41.657"/><use xlink:href="#g" x="105.995" y="41.657"/><use xlink:href="#u" x="109.656" y="41.657"/><use xlink:href="#x" x="113.317" y="41.657"/><use xlink:href="#k" x="116.979" y="41.657"/><use xlink:href="#p" x="120.64" y="41.657"/><path fill="none" stroke="#000" stroke-miterlimit="10" stroke-width=".399" d="m213.137 48.09 2.816-2.817m-2.816 0 2.816 2.817"/><use xlink:href="#f" x="177.932" y="41.608"/><use xlink:href="#g" x="181.593" y="41.608"/><use xlink:href="#h" x="185.255" y="41.608"/><use xlink:href="#i" x="188.916" y="41.608"/><use xlink:href="#j" x="192.577" y="41.608"/><use xlink:href="#j" x="196.238" y="41.608"/><use xlink:href="#k" x="199.9" y="41.608"/><use xlink:href="#l" x="203.561" y="41.608"/><use xlink:href="#l" x="210.883" y="41.608"/><use xlink:href="#u" x="214.545" y="41.608"/><use xlink:href="#v" x="218.206" y="41.608"/><use xlink:href="#w" x="221.867" y="41.608"/><use xlink:href="#n" x="225.529" y="41.608"/><use xlink:href="#g" x="232.851" y="41.608"/><use xlink:href="#u" x="236.512" y="41.608"/><use xlink:href="#x" x="240.174" y="41.608"/><use xlink:href="#k" x="243.835" y="41.608"/><use xlink:href="#p" x="247.496" y="41.608"/><path fill="none" stroke="#000" stroke-miterlimit="10" stroke-width=".399" d="m88.11 192.469 2.816-2.82m-2.817 0 2.817 2.82"/><use xlink:href="#f" x="54.737" y="199.403"/><use xlink:href="#g" x="58.398" y="199.403"/><use xlink:href="#h" x="62.06" y="199.403"/><use xlink:href="#q" x="65.721" y="199.403"/><use xlink:href="#s" x="69.382" y="199.403"/><use xlink:href="#t" x="73.043" y="199.403"/><use xlink:href="#k" x="76.705" y="199.403"/><use xlink:href="#l" x="80.366" y="199.403"/><use xlink:href="#q" x="87.688" y="199.403"/><use xlink:href="#k" x="91.35" y="199.403"/><use xlink:href="#r" x="95.011" y="199.403"/><use xlink:href="#n" x="98.672" y="199.403"/><use xlink:href="#g" x="105.995" y="199.403"/><use xlink:href="#u" x="109.656" y="199.403"/><use xlink:href="#x" x="113.317" y="199.403"/><use xlink:href="#k" x="116.979" y="199.403"/><use xlink:href="#p" x="120.64" y="199.403"/><path fill="none" stroke="#000" stroke-miterlimit="10" stroke-width=".399" d="m213.137 192.469 2.816-2.82m-2.816 0 2.816 2.82"/><use xlink:href="#f" x="177.932" y="199.403"/><use xlink:href="#g" x="181.593" y="199.403"/><use xlink:href="#h" x="185.255" y="199.403"/><use xlink:href="#q" x="188.916" y="199.403"/><use xlink:href="#s" x="192.577" y="199.403"/><use xlink:href="#t" x="196.238" y="199.403"/><use xlink:href="#k" x="199.9" y="199.403"/><use xlink:href="#l" x="203.561" y="199.403"/><use xlink:href="#l" x="210.883" y="199.403"/><use xlink:href="#u" x="214.545" y="199.403"/><use xlink:href="#v" x="218.206" y="199.403"/><use xlink:href="#w" x="221.867" y="199.403"/><use xlink:href="#n" x="225.529" y="199.403"/><use xlink:href="#g" x="232.851" y="199.403"/><use xlink:href="#u" x="236.512" y="199.403"/><use xlink:href="#x" x="240.174" y="199.403"/><use xlink:href="#k" x="243.835" y="199.403"/><use xlink:href="#p" x="247.496" y="199.403"/><path fill="none" stroke="#000" stroke-miterlimit="10" stroke-width=".399" d="m150.625 122.227 2.816-2.817m-2.816 0 2.816 2.817"/><use xlink:href="#f" x="133.725" y="116.741"/><use xlink:href="#g" x="137.386" y="116.741"/><use xlink:href="#h" x="141.048" y="116.741"/><use xlink:href="#y" x="144.709" y="116.741"/><use xlink:href="#k" x="148.37" y="116.741"/><use xlink:href="#z" x="152.031" y="116.741"/><use xlink:href="#n" x="155.693" y="116.741"/><use xlink:href="#k" x="159.354" y="116.741"/><use xlink:href="#l" x="163.015" y="116.741"/><use xlink:href="#p" x="166.676" y="116.741"/><path fill="none" stroke="#000" stroke-miterlimit="10" stroke-width=".399" d="m139.195 150.543 2.817-2.816m-2.817 0 2.817 2.816"/><use xlink:href="#f" x="107.795" y="151.269"/><use xlink:href="#g" x="111.456" y="151.269"/><use xlink:href="#h" x="115.118" y="151.269"/><use xlink:href="#n" x="118.779" y="151.269"/><use xlink:href="#k" x="122.44" y="151.269"/><use xlink:href="#o" x="126.101" y="151.269"/><use xlink:href="#n" x="129.763" y="151.269"/><use xlink:href="#p" x="133.424" y="151.269"/><path fill="none" stroke="#000" stroke-miterlimit="10" stroke-width=".399" d="m150.625 148.332 2.816-2.816m-2.816 0 2.816 2.816"/><use xlink:href="#f" x="155.552" y="149.058"/><use xlink:href="#g" x="159.213" y="149.058"/><use xlink:href="#h" x="162.875" y="149.058"/><use xlink:href="#A" x="166.536" y="149.058"/><use xlink:href="#u" x="170.197" y="149.058"/><use xlink:href="#x" x="173.858" y="149.058"/><use xlink:href="#p" x="177.52" y="149.058"/><path fill="none" stroke="#000" stroke-miterlimit="10" stroke-width=".399" d="m150.625 150.543 2.816-2.816m-2.816 0 2.816 2.816"/><use xlink:href="#f" x="137.387" y="157.481"/><use xlink:href="#g" x="141.048" y="157.481"/><use xlink:href="#h" x="144.71" y="157.481"/><use xlink:href="#B" x="148.371" y="157.481"/><use xlink:href="#C" x="152.032" y="157.481"/><use xlink:href="#g" x="155.693" y="157.481"/><use xlink:href="#k" x="159.355" y="157.481"/><use xlink:href="#p" x="163.016" y="157.481"/><path fill="none" stroke="#000" stroke-miterlimit="10" stroke-width=".399" d="m62.625 148.332 2.816-2.816m-2.816 0 2.816 2.816"/><use xlink:href="#f" x="16.58" y="149.058"/><use xlink:href="#g" x="20.241" y="149.058"/><use xlink:href="#h" x="23.903" y="149.058"/><use xlink:href="#A" x="27.564" y="149.058"/><use xlink:href="#u" x="31.225" y="149.058"/><use xlink:href="#x" x="34.886" y="149.058"/><use xlink:href="#t" x="42.209" y="149.058"/><use xlink:href="#k" x="45.87" y="149.058"/><use xlink:href="#g" x="49.531" y="149.058"/><use xlink:href="#n" x="53.193" y="149.058"/><use xlink:href="#p" x="56.854" y="149.058"/><path fill="none" stroke="#000" stroke-miterlimit="10" stroke-width=".399" d="m63.902 150.543 2.817-2.816m-2.817 0 2.817 2.816"/><use xlink:href="#f" x="41.514" y="157.481"/><use xlink:href="#g" x="45.175" y="157.481"/><use xlink:href="#h" x="48.837" y="157.481"/><use xlink:href="#B" x="52.498" y="157.481"/><use xlink:href="#C" x="56.159" y="157.481"/><use xlink:href="#g" x="59.82" y="157.481"/><use xlink:href="#k" x="63.482" y="157.481"/><use xlink:href="#t" x="70.797" y="157.481"/><use xlink:href="#k" x="74.458" y="157.481"/><use xlink:href="#g" x="78.12" y="157.481"/><use xlink:href="#n" x="81.781" y="157.481"/><use xlink:href="#p" x="85.442" y="157.481"/><path fill="none" stroke="#000" stroke-miterlimit="10" stroke-width=".399" d="m238.621 148.332 2.82-2.816m-2.82 0 2.82 2.816"/><use xlink:href="#f" x="243.549" y="149.058"/><use xlink:href="#g" x="247.21" y="149.058"/><use xlink:href="#h" x="250.872" y="149.058"/><use xlink:href="#A" x="254.533" y="149.058"/><use xlink:href="#u" x="258.194" y="149.058"/><use xlink:href="#x" x="261.855" y="149.058"/><use xlink:href="#k" x="269.178" y="149.058"/><use xlink:href="#C" x="272.839" y="149.058"/><use xlink:href="#g" x="276.5" y="149.058"/><use xlink:href="#n" x="280.162" y="149.058"/><use xlink:href="#p" x="283.823" y="149.058"/><path fill="none" stroke="#000" stroke-miterlimit="10" stroke-width=".399" d="m237.344 150.543 2.82-2.816m-2.82 0 2.82 2.816"/><use xlink:href="#f" x="214.954" y="157.481"/><use xlink:href="#g" x="218.615" y="157.481"/><use xlink:href="#h" x="222.277" y="157.481"/><use xlink:href="#B" x="225.938" y="157.481"/><use xlink:href="#C" x="229.599" y="157.481"/><use xlink:href="#g" x="233.26" y="157.481"/><use xlink:href="#k" x="236.922" y="157.481"/><use xlink:href="#k" x="244.244" y="157.481"/><use xlink:href="#C" x="247.905" y="157.481"/><use xlink:href="#g" x="251.567" y="157.481"/><use xlink:href="#n" x="255.228" y="157.481"/><use xlink:href="#p" x="258.889" y="157.481"/><path fill="none" stroke="#000" stroke-miterlimit="10" stroke-width=".399" d="m47.555 122.227 2.816-2.817m-2.816 0 2.816 2.817"/><use xlink:href="#f" x="34.319" y="116.74"/><use xlink:href="#g" x="37.98" y="116.74"/><use xlink:href="#h" x="41.642" y="116.74"/><use xlink:href="#t" x="45.303" y="116.74"/><use xlink:href="#k" x="48.964" y="116.74"/><use xlink:href="#g" x="52.625" y="116.74"/><use xlink:href="#n" x="56.287" y="116.74"/><use xlink:href="#p" x="59.948" y="116.74"/><path fill="none" stroke="#000" stroke-miterlimit="10" stroke-width=".399" d="m253.691 122.227 2.82-2.817m-2.82 0 2.82 2.817"/><use xlink:href="#f" x="240.455" y="116.74"/><use xlink:href="#g" x="244.116" y="116.74"/><use xlink:href="#h" x="247.778" y="116.74"/><use xlink:href="#k" x="251.439" y="116.74"/><use xlink:href="#C" x="255.1" y="116.74"/><use xlink:href="#g" x="258.761" y="116.74"/><use xlink:href="#n" x="262.423" y="116.74"/><use xlink:href="#p" x="266.084" y="116.74"/><path fill="none" stroke="#000" stroke-miterlimit="10" stroke-width=".399" d="m150.625 11.988 2.816-2.82m-2.816 0 2.816 2.82"/><use xlink:href="#f" x="135.557" y="18.925"/><use xlink:href="#g" x="139.218" y="18.925"/><use xlink:href="#h" x="142.88" y="18.925"/><use xlink:href="#z" x="146.541" y="18.925"/><use xlink:href="#s" x="150.202" y="18.925"/><use xlink:href="#l" x="153.863" y="18.925"/><use xlink:href="#n" x="157.525" y="18.925"/><use xlink:href="#w" x="161.186" y="18.925"/><use xlink:href="#p" x="164.847" y="18.925"/><path fill="none" stroke="#000" stroke-miterlimit="10" stroke-width=".399" d="m150.625 300.77 2.816-2.82m-2.816 0 2.816 2.82"/><use xlink:href="#f" x="135.557" y="295.28"/><use xlink:href="#g" x="139.218" y="295.28"/><use xlink:href="#h" x="142.88" y="295.28"/><use xlink:href="#g" x="146.541" y="295.28"/><use xlink:href="#s" x="150.202" y="295.28"/><use xlink:href="#i" x="153.863" y="295.28"/><use xlink:href="#n" x="157.525" y="295.28"/><use xlink:href="#w" x="161.186" y="295.28"/><use xlink:href="#p" x="164.847" y="295.28"/><path fill="none" stroke="#000" stroke-miterlimit="10" stroke-width=".399" d="m80.734 52.332 2.817-2.816m-2.817 0 2.817 2.816"/><use xlink:href="#f" x="27.365" y="53.058"/><use xlink:href="#g" x="31.026" y="53.058"/><use xlink:href="#h" x="34.688" y="53.058"/><use xlink:href="#z" x="38.349" y="53.058"/><use xlink:href="#s" x="42.01" y="53.058"/><use xlink:href="#l" x="45.671" y="53.058"/><use xlink:href="#n" x="49.333" y="53.058"/><use xlink:href="#w" x="52.994" y="53.058"/><use xlink:href="#t" x="60.316" y="53.058"/><use xlink:href="#k" x="63.978" y="53.058"/><use xlink:href="#g" x="67.639" y="53.058"/><use xlink:href="#n" x="71.3" y="53.058"/><use xlink:href="#p" x="74.962" y="53.058"/><path fill="none" stroke="#000" stroke-miterlimit="10" stroke-width=".399" d="m220.516 52.332 2.816-2.816m-2.816 0 2.816 2.816"/><use xlink:href="#f" x="225.443" y="53.059"/><use xlink:href="#g" x="229.104" y="53.059"/><use xlink:href="#h" x="232.766" y="53.059"/><use xlink:href="#z" x="236.427" y="53.059"/><use xlink:href="#s" x="240.088" y="53.059"/><use xlink:href="#l" x="243.749" y="53.059"/><use xlink:href="#n" x="247.411" y="53.059"/><use xlink:href="#w" x="251.072" y="53.059"/><use xlink:href="#k" x="258.394" y="53.059"/><use xlink:href="#C" x="262.056" y="53.059"/><use xlink:href="#g" x="265.717" y="53.059"/><use xlink:href="#n" x="269.378" y="53.059"/><use xlink:href="#p" x="273.04" y="53.059"/><path fill="none" stroke="#000" stroke-miterlimit="10" stroke-width=".399" d="m85.273 187.574 2.82-2.816m-2.82 0 2.82 2.816"/><use xlink:href="#f" x="61.056" y="182.087"/><use xlink:href="#g" x="64.717" y="182.087"/><use xlink:href="#h" x="68.379" y="182.087"/><use xlink:href="#g" x="72.04" y="182.087"/><use xlink:href="#s" x="75.701" y="182.087"/><use xlink:href="#i" x="79.362" y="182.087"/><use xlink:href="#n" x="83.024" y="182.087"/><use xlink:href="#w" x="86.685" y="182.087"/><use xlink:href="#t" x="94" y="182.087"/><use xlink:href="#k" x="97.662" y="182.087"/><use xlink:href="#g" x="101.323" y="182.087"/><use xlink:href="#n" x="104.984" y="182.087"/><use xlink:href="#p" x="108.646" y="182.087"/><path fill="none" stroke="#000" stroke-miterlimit="10" stroke-width=".399" d="m215.973 187.574 2.82-2.816m-2.82 0 2.82 2.816"/><use xlink:href="#f" x="191.752" y="182.087"/><use xlink:href="#g" x="195.413" y="182.087"/><use xlink:href="#h" x="199.075" y="182.087"/><use xlink:href="#g" x="202.736" y="182.087"/><use xlink:href="#s" x="206.397" y="182.087"/><use xlink:href="#i" x="210.058" y="182.087"/><use xlink:href="#n" x="213.72" y="182.087"/><use xlink:href="#w" x="217.381" y="182.087"/><use xlink:href="#k" x="224.703" y="182.087"/><use xlink:href="#C" x="228.365" y="182.087"/><use xlink:href="#g" x="232.026" y="182.087"/><use xlink:href="#n" x="235.687" y="182.087"/><use xlink:href="#p" x="239.349" y="182.087"/><path fill="none" stroke="#000" stroke-miterlimit="10" stroke-width=".399" d="m117.469 31.137 2.816-2.817m-2.816 0 2.816 2.817"/><use xlink:href="#f" x="106.064" y="25.651"/><use xlink:href="#g" x="109.725" y="25.651"/><use xlink:href="#h" x="113.387" y="25.651"/><use xlink:href="#D" x="117.048" y="25.651"/><use xlink:href="#D" x="120.709" y="25.651"/><use xlink:href="#E" x="124.37" y="25.651"/><use xlink:href="#p" x="128.032" y="25.651"/></svg>