<svg xmlns="http://www.w3.org/2000/svg" xmlns:xlink="http://www.w3.org/1999/xlink" width="98.732" height="98.426"><defs><path id="a" d="M6.328-5.766c.11-.406.281-.703 1.078-.734.047 0 .172-.016.172-.203 0 0 0-.11-.125-.11-.328 0-.687.032-1.016.032-.343 0-.718-.032-1.046-.032-.063 0-.172 0-.172.204 0 .109.093.109.172.109.578.016.687.219.687.438 0 .03-.031.187-.031.203L5.14-2.297C4.813-.953 3.656-.094 2.656-.094c-.672 0-1.203-.437-1.203-1.297 0-.015 0-.328.11-.765l.953-3.89c.093-.36.109-.454.843-.454.266 0 .344 0 .344-.203 0-.11-.11-.11-.14-.11-.282 0-1 .032-1.282.032-.281 0-1-.032-1.281-.032-.078 0-.187 0-.187.204 0 .109.078.109.28.109.016 0 .204 0 .376.016.172.03.265.03.265.172 0 .046-.109.468-.171.703l-.22.875C1.25-4.344.782-2.47.735-2.266c-.062.266-.062.422-.062.579 0 1.203.906 1.906 1.953 1.906 1.25 0 2.484-1.125 2.813-2.438Zm0 0"/><path id="b" d="M4.828-4.094 4-6.078c-.031-.078-.047-.125-.047-.125 0-.063.156-.25.578-.297.11-.016.203-.016.203-.187 0-.125-.125-.125-.156-.125-.406 0-.828.03-1.25.03-.25 0-.86-.03-1.11-.03-.062 0-.187 0-.187.203 0 .109.11.109.235.109.593 0 .656.094.75.313l1.172 2.78-2.11 2.266-.125.11C1.47-.5 1-.344.484-.313.36-.296.266-.296.266-.109c0 .015 0 .109.14.109.297 0 .625-.031.922-.031.375 0 .766.031 1.125.031.063 0 .172 0 .172-.203 0-.094-.094-.11-.11-.11-.093 0-.406-.03-.406-.312 0-.156.157-.312.266-.437l1.031-1.079.89-.984 1 2.39c.048.11.063.11.063.141 0 .078-.203.25-.578.282-.11.015-.203.015-.203.187 0 .125.11.125.14.125C5 0 5.704-.031 5.985-.031c.25 0 .86.031 1.11.031.062 0 .187 0 .187-.187 0-.125-.11-.125-.187-.125-.657 0-.688-.032-.86-.438-.375-.922-1.046-2.484-1.28-3.078.671-.703 1.718-1.89 2.046-2.156A1.98 1.98 0 0 1 8.266-6.5c.125-.016.218-.016.218-.203 0 0 0-.11-.125-.11-.296 0-.64.032-.937.032-.375 0-.75-.032-1.11-.032-.062 0-.187 0-.187.204 0 .062.047.093.11.109.093.016.406.031.406.313 0 .14-.11.265-.188.359Zm0 0"/><path id="e" d="m5.953-5.672.14-.14c.298-.297.626-.641 1.298-.688.109-.016.203-.016.203-.187 0-.079-.047-.125-.125-.125-.266 0-.547.03-.813.03-.343 0-.687-.03-1-.03-.062 0-.187 0-.187.187 0 .11.093.125.14.125.079 0 .36.016.36.234 0 .172-.235.422-.266.47L3.391-3.126 2.297-6.094c-.063-.14-.063-.156-.063-.172 0-.234.485-.234.594-.234.125 0 .235 0 .235-.203 0-.11-.126-.11-.157-.11-.281 0-.969.032-1.25.032-.25 0-.875-.032-1.125-.032-.047 0-.187 0-.187.204 0 .109.11.109.234.109.594 0 .64.094.735.344L2.53-2.875c.016.031.047.14.047.156 0 .031-.406 1.64-.453 1.828-.125.547-.14.579-.937.579-.188 0-.266 0-.266.203 0 .109.11.109.14.109.266 0 .97-.031 1.25-.031.282 0 1 .031 1.282.031.062 0 .187 0 .187-.203 0-.11-.094-.11-.281-.11-.016 0-.203 0-.375-.015-.219-.016-.281-.047-.281-.156 0-.079.094-.422.14-.625l.36-1.407c.047-.203.062-.218.14-.312Zm0 0"/><path id="f" d="M7.172-6.562c.016-.047.031-.094.031-.157 0-.093-.047-.093-.25-.093H2.75c-.234 0-.25.015-.312.203L1.89-4.812a1 1 0 0 0-.032.14s0 .11.125.11c.094 0 .11-.079.125-.11C2.5-5.844 3.016-6.5 4.563-6.5h1.625L.625-.266s-.047.141-.047.172C.578 0 .641 0 .828 0h4.328c.25 0 .25-.016.313-.203l.718-2.203c0-.031.032-.11.032-.14 0-.063-.032-.11-.125-.11-.094 0-.11.031-.172.25C5.484-1.062 5-.344 3.312-.344H1.61Zm0 0"/><path id="c" d="M3.875-2.766 1.891-4.75c-.125-.125-.141-.14-.22-.14a.197.197 0 0 0-.202.202c0 .063.015.079.125.188l2 2-2 2.016c-.11.109-.125.125-.125.187 0 .125.093.203.203.203.078 0 .094-.015.219-.14L3.875-2.22 5.938-.156a.24.24 0 0 0 .14.062c.125 0 .203-.078.203-.203 0-.016 0-.047-.031-.11C6.234-.421 4.656-1.983 4.156-2.5l1.828-1.812c.047-.063.204-.188.25-.25 0-.016.047-.063.047-.125 0-.125-.078-.204-.203-.204-.078 0-.11.032-.219.141Zm0 0"/><path id="d" d="M5.453-4.484c.063-.063.094-.11.094-.203 0-.079-.047-.079-.188-.079H2.11c-.171 0-.187.016-.234.141l-.39 1.266c-.016.078-.016.078-.016.109s.015.094.11.094c.093 0 .109-.047.124-.11.344-.984.875-1.25 1.781-1.25h1.25L.672-.312a.33.33 0 0 0-.11.234C.563 0 .626 0 .75 0h3.375c.172 0 .188 0 .219-.14l.5-1.547c.031-.094.031-.11.031-.125 0 0 0-.094-.11-.094-.093 0-.109.031-.156.187C4.297-.766 3.938-.28 2.72-.28H1.39Zm0 0"/><path id="h" d="M1.734-.734c-.062.234-.296.609-.656.609-.016 0-.234 0-.375-.094a.44.44 0 0 0 .313-.39c0-.157-.125-.25-.282-.25a.407.407 0 0 0-.406.422c0 .343.39.5.734.5.329 0 .61-.188.782-.485.172.36.547.485.828.485.812 0 1.234-.86 1.234-1.063 0-.094-.094-.094-.11-.094-.108 0-.108.047-.14.125-.14.485-.562.844-.953.844-.281 0-.422-.187-.422-.453 0-.188.172-.813.36-1.594.14-.531.453-.703.687-.703.016 0 .219 0 .375.094a.43.43 0 0 0-.312.39c0 .141.125.25.28.25.157 0 .392-.125.392-.421 0-.391-.454-.516-.72-.516-.359 0-.64.234-.78.5-.126-.281-.454-.5-.844-.5C.937-3.078.5-2.218.5-2c0 .078.094.078.11.078.093 0 .093-.016.14-.11.172-.546.61-.843.953-.843.234 0 .422.125.422.453 0 .14-.094.485-.156.735Zm0 0"/><path id="i" d="M.516.844c-.047.203-.063.25-.328.25-.094 0-.188 0-.188.156 0 .078.063.11.094.11.172 0 .406-.032.594-.032.234 0 .5.031.734.031.062 0 .14-.03.14-.156 0-.11-.093-.11-.187-.11-.156 0-.344 0-.344-.077 0-.032.063-.22.078-.313.094-.375.188-.75.266-1.047.078.14.297.407.719.407.844 0 1.781-.938 1.781-1.97 0-.812-.562-1.171-1.031-1.171-.438 0-.813.297-1 .5-.11-.406-.5-.5-.719-.5-.266 0-.437.187-.547.375-.14.234-.25.656-.25.703 0 .078.094.078.125.078.094 0 .094-.016.14-.203.11-.406.25-.75.516-.75.188 0 .235.156.235.344a.7.7 0 0 1-.032.203Zm1.328-3.078c.406-.547.75-.641.968-.641.282 0 .516.203.516.672 0 .281-.156 1-.36 1.406-.187.344-.515.672-.874.672-.5 0-.625-.531-.625-.61 0-.03.015-.078.015-.109Zm0 0"/><path id="j" d="M2.844-2.75h.672c.14 0 .234 0 .234-.156C3.75-3 3.656-3 3.531-3h-.64c.156-.89.203-1.203.265-1.406a.384.384 0 0 1 .36-.297s.187 0 .328.078c-.297.094-.313.344-.313.375 0 .156.125.266.281.266.188 0 .391-.157.391-.422 0-.328-.328-.5-.687-.5a.97.97 0 0 0-.844.515c-.14.266-.188.579-.344 1.391h-.547c-.14 0-.234 0-.234.156 0 .094.094.094.219.094h.515c0 .047-.437 2.547-.61 3.297-.03.156-.155.672-.484.672-.015 0-.171 0-.312-.078a.44.44 0 0 0 .313-.375C1.188.609 1.063.5.906.5a.404.404 0 0 0-.39.422c0 .312.328.5.672.5.437 0 .75-.453.828-.61.25-.468.422-1.328.437-1.406Zm0 0"/><path id="k" d="M3.703-2.578c.031-.094.031-.125.031-.14 0-.157-.125-.22-.234-.22a.35.35 0 0 0-.328.266.82.82 0 0 0-.719-.406c-.86 0-1.781.937-1.781 1.937C.672-.42 1.156 0 1.734 0c.329 0 .625-.156.875-.375L2.453.25c-.078.297-.125.484-.39.719-.313.25-.61.25-.782.25-.312 0-.406-.016-.531-.047A.38.38 0 0 0 .969.828c0-.172-.125-.25-.266-.25A.407.407 0 0 0 .297 1c0 .422.61.422 1 .422 1.094 0 1.547-.563 1.656-.953ZM2.75-.922c-.031.094-.031.11-.156.25-.235.297-.578.485-.844.485-.344 0-.516-.313-.516-.672 0-.297.188-1.078.375-1.391.282-.484.61-.625.844-.625.5 0 .625.516.625.594 0 .015 0 .015-.015.094Zm0 0"/><path id="l" d="M3.547-2.875c0-.031.015-.062.015-.094 0-.047-.03-.11-.093-.11s-.36.235-.5.47a.83.83 0 0 0-.75-.47c-.89 0-1.797.985-1.797 1.985C.422-.406.875.063 1.484.063c.391 0 .72-.25.875-.375-.015.015-.234.89-.25 1.015-.109.39-.109.39-.546.39-.079 0-.172 0-.172.157 0 .047.03.11.093.11.235 0 .5-.032.735-.032s.531.031.75.031c.062 0 .125-.03.125-.156 0-.11-.094-.11-.172-.11-.156 0-.344 0-.344-.077 0-.016 0-.032.031-.157Zm-1.047 2c-.047.11-.047.125-.125.234-.281.329-.61.516-.875.516-.266 0-.516-.187-.516-.672 0-.375.204-1.14.375-1.422.313-.562.672-.656.86-.656.484 0 .625.531.625.61 0 .03-.016.078-.016.093Zm0 0"/><path id="m" d="M3.875-2.625c.031-.094.031-.11.031-.156 0-.14-.11-.219-.234-.219a.33.33 0 0 0-.281.156c-.032.047-.079.266-.11.406l-.156.579a20 20 0 0 1-.281 1.125S2.53-.125 2-.125c-.484 0-.484-.453-.484-.578 0-.375.156-.813.375-1.36.078-.218.109-.296.109-.421 0-.328-.281-.594-.656-.594C.64-3.078.328-2.125.328-2c0 .078.094.078.125.078.094 0 .094-.031.125-.11.172-.577.469-.843.75-.843.11 0 .172.078.172.234 0 .172-.062.313-.094.407C1.063-1.375 1-1.125 1-.812c0 .109 0 .437.266.671.218.172.515.204.703.204.281 0 .531-.094.75-.313-.078.39-.156.688-.453 1.031-.188.219-.47.438-.844.438-.047 0-.375 0-.516-.219.375-.047.375-.375.375-.39 0-.22-.203-.266-.265-.266-.172 0-.407.14-.407.469 0 .343.329.609.829.609C2.14 1.422 3 .875 3.218 0Zm0 0"/><clipPath id="g"><path d="M0 0h98.598v62H0Zm0 0"/></clipPath></defs><use xlink:href="#a" x=".199" y="7.52"/><use xlink:href="#b" x="20.398" y="49.315"/><use xlink:href="#c" x="31.647" y="49.315"/><use xlink:href="#d" x="39.396" y="50.809"/><use xlink:href="#e" x="48.025" y="49.315"/><use xlink:href="#b" x="85.341" y="49.315"/><use xlink:href="#e" x="34.211" y="92.605"/><use xlink:href="#f" x="86.102" y="92.605"/><g clip-path="url(#g)"><path fill="none" stroke="#000" stroke-dasharray="2.98883 2.98883" stroke-miterlimit="10" stroke-width="1.395" d="M11.605 7.754 81.82 41.996"/></g><path fill="none" stroke="#FFF" stroke-dasharray="2.98883 2.98883" stroke-miterlimit="10" stroke-width=".598" d="M11.605 7.754 81.82 41.996"/><use xlink:href="#h" x="50.234" y="21.355"/><path fill="none" stroke="#000" stroke-miterlimit="10" stroke-width=".399" d="M81.82 45.91H59.543m30.316 6.926v29.441M82.582 89.2H45.73m-7.52-6.922V54.328m-6.144-15.34L9.684 11.04"/><use xlink:href="#i" x="68.628" y="52.434"/><use xlink:href="#j" x="93.378" y="69.299"/><use xlink:href="#k" x="62.087" y="95.723"/><use xlink:href="#l" x="30.789" y="69.127"/><use xlink:href="#m" x="13.066" y="31.536"/></svg>