<?xml version="1.0" encoding="UTF-8"?>
<svg xmlns="http://www.w3.org/2000/svg" xmlns:xlink="http://www.w3.org/1999/xlink" width="104.466pt" height="104.474pt" viewBox="0 0 104.466 104.474" version="1.2">
<defs>
<clipPath id="clip1">
  <path d="M 0 0 L 104.199219 0 L 104.199219 104.210938 L 0 104.210938 Z M 0 0 "/>
</clipPath>
<clipPath id="clip2">
  <path d="M 0 0 L 103 0 L 103 104 L 0 104 Z M 0 0 "/>
</clipPath>
<clipPath id="clip3">
  <path d="M 102.992188 51.976562 C 102.992188 23.796875 80.148438 0.953125 51.964844 0.953125 C 23.785156 0.953125 0.941406 23.796875 0.941406 51.976562 C 0.941406 80.160156 23.785156 103.003906 51.964844 103.003906 C 80.148438 103.003906 102.992188 80.160156 102.992188 51.976562 Z M 102.992188 51.976562 "/>
</clipPath>
<clipPath id="clip4">
  <path d="M 0 94 L 103 94 L 103 95 L 0 95 Z M 0 94 "/>
</clipPath>
<clipPath id="clip5">
  <path d="M 102.992188 51.976562 C 102.992188 23.796875 80.148438 0.953125 51.964844 0.953125 C 23.785156 0.953125 0.941406 23.796875 0.941406 51.976562 C 0.941406 80.160156 23.785156 103.003906 51.964844 103.003906 C 80.148438 103.003906 102.992188 80.160156 102.992188 51.976562 Z M 102.992188 51.976562 "/>
</clipPath>
<clipPath id="clip6">
  <path d="M 9 0 L 10 0 L 10 104 L 9 104 Z M 9 0 "/>
</clipPath>
<clipPath id="clip7">
  <path d="M 102.992188 51.976562 C 102.992188 23.796875 80.148438 0.953125 51.964844 0.953125 C 23.785156 0.953125 0.941406 23.796875 0.941406 51.976562 C 0.941406 80.160156 23.785156 103.003906 51.964844 103.003906 C 80.148438 103.003906 102.992188 80.160156 102.992188 51.976562 Z M 102.992188 51.976562 "/>
</clipPath>
<clipPath id="clip8">
  <path d="M 0 3 L 101 3 L 101 104 L 0 104 Z M 0 3 "/>
</clipPath>
<clipPath id="clip9">
  <path d="M 102.992188 51.976562 C 102.992188 23.796875 80.148438 0.953125 51.964844 0.953125 C 23.785156 0.953125 0.941406 23.796875 0.941406 51.976562 C 0.941406 80.160156 23.785156 103.003906 51.964844 103.003906 C 80.148438 103.003906 102.992188 80.160156 102.992188 51.976562 Z M 102.992188 51.976562 "/>
</clipPath>
<clipPath id="clip10">
  <path d="M 25 76 L 41 76 L 41 101 L 25 101 Z M 25 76 "/>
</clipPath>
<clipPath id="clip11">
  <path d="M 102.992188 51.976562 C 102.992188 23.796875 80.148438 0.953125 51.964844 0.953125 C 23.785156 0.953125 0.941406 23.796875 0.941406 51.976562 C 0.941406 80.160156 23.785156 103.003906 51.964844 103.003906 C 80.148438 103.003906 102.992188 80.160156 102.992188 51.976562 Z M 102.992188 51.976562 "/>
</clipPath>
</defs>
<g id="surface1">
<g clip-path="url(#clip1)" clip-rule="nonzero">
<path style="fill:none;stroke-width:0.3985;stroke-linecap:butt;stroke-linejoin:miter;stroke:rgb(0%,0%,0%);stroke-opacity:1;stroke-miterlimit:10;" d="M 93.546188 42.521438 C 93.546188 70.701125 70.702438 93.544875 42.518844 93.544875 C 14.339156 93.544875 -8.504594 70.701125 -8.504594 42.521438 C -8.504594 14.337844 14.339156 -8.505906 42.518844 -8.505906 C 70.702438 -8.505906 93.546188 14.337844 93.546188 42.521438 Z M 93.546188 42.521438 " transform="matrix(1,0,0,-1,9.446,94.498)"/>
</g>
<g clip-path="url(#clip2)" clip-rule="nonzero">
<g clip-path="url(#clip3)" clip-rule="nonzero">
<path style="fill:none;stroke-width:0.19925;stroke-linecap:butt;stroke-linejoin:miter;stroke:rgb(50%,50%,50%);stroke-opacity:1;stroke-miterlimit:10;" d="M -119.055375 -85.041062 L 119.057906 -85.041062 M -119.055375 -42.521531 L 119.057906 -42.521531 M -119.055375 0.00190625 L 119.057906 0.00190625 M -119.055375 42.521438 L 119.057906 42.521438 M -119.055375 85.040969 L 119.057906 85.040969 M -85.03975 -119.056687 L -85.03975 119.056594 M -42.520219 -119.056687 L -42.520219 119.056594 M -0.0006875 -119.056687 L -0.0006875 119.056594 M 42.518844 -119.056687 L 42.518844 119.056594 M 85.042281 -119.056687 L 85.042281 119.056594 " transform="matrix(1,0,0,-1,9.446,94.498)"/>
</g>
</g>
<g clip-path="url(#clip4)" clip-rule="nonzero">
<g clip-path="url(#clip5)" clip-rule="nonzero">
<path style="fill:none;stroke-width:0.3985;stroke-linecap:butt;stroke-linejoin:miter;stroke:rgb(0%,0%,0%);stroke-opacity:1;stroke-miterlimit:10;" d="M -127.559281 0.00190625 L 127.561813 0.00190625 " transform="matrix(1,0,0,-1,9.446,94.498)"/>
</g>
</g>
<g clip-path="url(#clip6)" clip-rule="nonzero">
<g clip-path="url(#clip7)" clip-rule="nonzero">
<path style="fill:none;stroke-width:0.3985;stroke-linecap:butt;stroke-linejoin:miter;stroke:rgb(0%,0%,0%);stroke-opacity:1;stroke-miterlimit:10;" d="M -0.0006875 -127.560594 L -0.0006875 127.5605 " transform="matrix(1,0,0,-1,9.446,94.498)"/>
</g>
</g>
<g clip-path="url(#clip8)" clip-rule="nonzero">
<g clip-path="url(#clip9)" clip-rule="nonzero">
<path style="fill:none;stroke-width:0.3985;stroke-linecap:butt;stroke-linejoin:miter;stroke:rgb(0%,0%,0%);stroke-opacity:1;stroke-miterlimit:10;" d="M 85.042281 0.00190625 C 85.042281 46.96675 46.968063 85.040969 -0.0006875 85.040969 C -46.965531 85.040969 -85.03975 46.96675 -85.03975 0.00190625 C -85.03975 -46.966844 -46.965531 -85.041062 -0.0006875 -85.041062 C 46.968063 -85.041062 85.042281 -46.966844 85.042281 0.00190625 Z M 85.042281 0.00190625 " transform="matrix(1,0,0,-1,9.446,94.498)"/>
</g>
</g>
<g clip-path="url(#clip10)" clip-rule="nonzero">
<g clip-path="url(#clip11)" clip-rule="nonzero">
<path style="fill:none;stroke-width:0.3985;stroke-linecap:butt;stroke-linejoin:miter;stroke:rgb(0%,0%,0%);stroke-opacity:1;stroke-miterlimit:10;" d="M 25.511031 0.00190625 C 25.511031 4.478469 24.331344 8.876906 22.093063 12.755813 " transform="matrix(1,0,0,-1,9.446,94.498)"/>
</g>
</g>
</g>
</svg>
