<svg xmlns="http://www.w3.org/2000/svg" xmlns:xlink="http://www.w3.org/1999/xlink" width="88.166" height="58.898"><defs><path id="b" d="m3.266-7.937-.438-.172-.406 1-5.453-2.25.406-1-.437-.188c-.11.375-.485 1.281-.657 1.688-.156.39-.531 1.28-.703 1.625l.438.187.406-1 2.39.985-1.218 2.968-2.39-.984.405-1-.437-.188c-.11.36-.469 1.266-.64 1.657-.157.39-.532 1.312-.704 1.64l.438.188.406-1 5.453 2.25-.406 1 .437.172c.11-.36.485-1.282.64-1.672.173-.39.532-1.297.704-1.625l-.437-.172-.407 1-2.625-1.094L-.75-6.89l2.625 1.094-.406 1 .437.172c.11-.375.485-1.266.64-1.656.173-.407.548-1.313.72-1.657m0 0"/><path id="c" d="m1.078-2.625-.437-.172-.235.563-3.703-1.532-.594 1.625.438.172c.234-.547.25-.593.61-.437L0-1.234l-.266.625.438.172.437-1.141ZM-4.687-4.5a.765.765 0 0 0-1.016.438.78.78 0 0 0 .422 1.015.78.78 0 0 0 1-.437c.156-.407-.016-.86-.407-1.016m0 0"/><path id="d" d="M-4.875-4.75c-.36-.14-.797.063-.953.453-.172.406-.016.875.344 1.016.046.015.078.031.187.031l3.547.906c.234.063.25.063.344-.14.062-.172.062-.203-.11-.297l-3.25-1.906Zm5.11 2.125c-.391-.156-.844.016-1 .406a.79.79 0 0 0 .421 1.031c.407.172.844-.03 1.016-.437.156-.39-.031-.828-.438-1m0 0"/><clipPath id="a"><path d="M0 5h64v53.848H0Zm0 0"/></clipPath></defs><path fill="none" stroke="#7F7F7F" stroke-miterlimit="10" stroke-width=".199" d="M1.61 57.734h85.042M1.61 29.387h85.043M1.61 1.05h85.043M1.61 57.734V1.04m28.348 56.695V1.04m28.348 56.695V1.04M86.64 57.734V1.04"/><g clip-path="url(#a)"><path fill="none" stroke="#000" stroke-miterlimit="10" stroke-width=".399" d="M1.61 57.734C1.61 1.04 29.956 1.04 58.304 29.387"/></g><use xlink:href="#b" x="6.753" y="33.964"/><use xlink:href="#c" x="10.167" y="25.674"/><use xlink:href="#d" x="11.377" y="22.735"/></svg>