<svg xmlns="http://www.w3.org/2000/svg" width="288.578" height="61.796"><defs><clipPath id="a"><path d="M0 0h288.367v61.695H0Zm0 0"/></clipPath><clipPath id="b"><path d="M114 48h15v13.695h-15Zm0 0"/></clipPath><clipPath id="c"><path d="M129 52h15v9.695h-15Zm0 0"/></clipPath><clipPath id="d"><path d="M144 47h15v14.695h-15Zm0 0"/></clipPath><clipPath id="e"><path d="M278 39h10.367v15H278Zm0 0"/></clipPath></defs><g clip-path="url(#a)"><path fill="none" stroke="#000" stroke-miterlimit="10" stroke-width=".399" d="M2.344 30.797S13.12 19.973 17.262 16.559c4.14-3.418 10.777-8.43 14.918-10.387 4.14-1.957 10.78-3.754 14.922-3.723 4.136.035 10.777 1.942 14.918 3.953 4.14 2.016 10.777 7.106 14.917 10.555 4.141 3.45 10.782 10.352 14.922 14.3 4.137 3.954 10.778 10.794 14.918 14.177 4.141 3.386 10.782 8.312 14.918 10.214 4.14 1.903 10.782 3.582 14.922 3.489 4.14-.098 10.778-2.117 14.918-4.184 4.14-2.07 10.781-7.242 14.922-10.723 4.137-3.48 10.777-10.406 14.918-14.355 4.14-3.953 10.777-10.758 14.918-14.11 4.14-3.35 10.781-8.195 14.922-10.038 4.137-1.844 10.777-3.415 14.918-3.254 4.14.16 10.777 2.293 14.918 4.414 4.14 2.125 10.781 7.375 14.922 10.886 4.14 3.508 10.777 10.461 14.918 14.41 4.14 3.946 14.918 14.036 14.918 14.036"/></g><path fill="none" stroke="#000" stroke-miterlimit="10" stroke-width=".399" d="m.934 32.207 2.816-2.82m-2.816 0 2.816 2.82M15.852 17.965l2.82-2.817m-2.82 0 2.82 2.817M30.773 7.582l2.817-2.82m-2.817 0 2.817 2.82M45.691 3.86l2.817-2.817m-2.817 0 2.817 2.816M60.61 7.813l2.82-2.817m-2.82 0 2.82 2.816M75.531 18.367l2.817-2.816m-2.817 0 2.817 2.816M90.45 32.668l2.816-2.816m-2.817 0 2.817 2.816M105.367 46.844l2.82-2.817m-2.82 0 2.82 2.817"/><g clip-path="url(#b)"><path fill="none" stroke="#000" stroke-miterlimit="10" stroke-width=".399" d="m120.29 57.059 2.815-2.82m-2.816 0 2.816 2.82"/></g><g clip-path="url(#c)"><path fill="none" stroke="#000" stroke-miterlimit="10" stroke-width=".399" d="m135.207 60.543 2.82-2.816m-2.82 0 2.82 2.816"/></g><g clip-path="url(#d)"><path fill="none" stroke="#000" stroke-miterlimit="10" stroke-width=".399" d="m150.125 56.36 2.82-2.817m-2.82 0 2.82 2.816"/></g><path fill="none" stroke="#000" stroke-miterlimit="10" stroke-width=".399" d="m165.047 45.64 2.816-2.82m-2.816 0 2.816 2.82M179.965 31.281l2.82-2.816m-2.82 0 2.82 2.816M194.887 17.176l2.816-2.82m-2.816 0 2.816 2.82M209.805 7.137l2.816-2.82m-2.816 0 2.816 2.82M224.723 3.883l2.82-2.817m-2.82 0 2.82 2.817M239.645 8.297l2.816-2.82m-2.816 0 2.816 2.82M254.563 19.18l2.816-2.817m-2.817 0 2.817 2.817M269.48 33.59l2.82-2.817m-2.82 0 2.82 2.817"/><g clip-path="url(#e)"><path fill="none" stroke="#000" stroke-miterlimit="10" stroke-width=".399" d="m284.402 47.629 2.817-2.82m-2.817 0 2.817 2.82"/></g></svg>