<svg xmlns="http://www.w3.org/2000/svg" xmlns:xlink="http://www.w3.org/1999/xlink" width="353.162" height="160.724"><defs><path id="b" d="M5.719-2.031c0-1.094-.797-1.906-1.719-2.094l-1.437-.312c-.407-.094-.954-.422-.954-1.032 0-.437.282-1.047 1.266-1.047.797 0 1.813.329 2.047 1.688.031.25.031.266.234.266.25 0 .25-.047.25-.282v-1.828c0-.187 0-.281-.187-.281-.078 0-.078.016-.188.11l-.453.437C4-6.86 3.344-6.953 2.875-6.953c-1.516 0-2.234.969-2.234 2.016 0 .64.328 1.093.53 1.312.5.5.829.563 1.923.797.875.203 1.047.219 1.265.437.141.141.391.407.391.86 0 .484-.25 1.172-1.297 1.172-.75 0-2.265-.203-2.344-1.688-.015-.172-.015-.219-.234-.219-.234 0-.234.047-.234.282v1.812C.64.016.64.11.813.11.906.11.922.094 1 .016l.469-.453c.656.484 1.578.546 1.984.546C5.11.11 5.72-1.016 5.72-2.03m0 0"/><path id="c" d="M4.922-1.172c0-.172-.188-.172-.234-.172-.172 0-.188.047-.25.203-.204.485-.782.797-1.422.797-1.407 0-1.422-1.328-1.422-1.828h3.015c.22 0 .313 0 .313-.265 0-.313-.063-1.047-.563-1.547-.359-.36-.89-.532-1.578-.532C1.187-4.516.313-3.484.313-2.25c0 1.344 1 2.313 2.609 2.313 1.578 0 2-1.063 2-1.235M3.984-2.5h-2.39c.015-.39.031-.812.234-1.14.266-.391.672-.516.953-.516 1.172 0 1.188 1.312 1.203 1.656m0 0"/><path id="d" d="M9.328 0v-.469h-.687v-2.578c0-1.031-.516-1.437-1.547-1.437-.907 0-1.422.5-1.688.953-.187-.922-1.11-.953-1.484-.953-.875 0-1.438.453-1.766 1.078v-1.078l-1.703.078v.468c.61 0 .688 0 .688.391v3.078H.453V0l1.25-.031L2.953 0v-.469h-.687v-2.078c0-1.094.875-1.578 1.5-1.578.328 0 .547.203.547.969V-.47h-.688V0l1.266-.031L6.14 0v-.469h-.688v-2.078c0-1.094.86-1.578 1.484-1.578.344 0 .563.203.563.969V-.47h-.687V0l1.25-.031Zm0 0"/><path id="e" d="M2.844 0v-.469h-.61v-4.015L.5-4.406v.468c.594 0 .656 0 .656.391v3.078H.47V0l1.219-.031Zm-.469-6.047a.774.774 0 0 0-.781-.781.784.784 0 0 0-.782.781c0 .422.36.766.782.766a.77.77 0 0 0 .781-.766m0 0"/><path id="f" d="M4.766-1.172c0-.14-.141-.14-.235-.14-.187 0-.187.03-.25.156-.25.625-.734.812-1.234.812-1.39 0-1.39-1.453-1.39-1.922 0-.562 0-1.843 1.28-1.843.36 0 .516.015.657.046a.62.62 0 0 0-.203.47c0 .437.343.624.609.624.313 0 .64-.219.64-.625 0-.86-1.156-.922-1.734-.922C1.11-4.516.375-3.375.375-2.219.375-.89 1.313.063 2.844.063c1.625 0 1.922-1.157 1.922-1.235m0 0"/><path id="g" d="M4.406-3.672c0-.531-.531-.812-1.062-.812-.688 0-1.094.5-1.313 1.125v-1.125l-1.656.078v.468c.61 0 .688 0 .688.391v3.078H.375V0l1.25-.031C2-.031 2.641-.031 3 0v-.469h-.86v-1.75c0-.687.235-1.906 1.235-1.906 0 0-.187.172-.187.453 0 .406.328.61.609.61.297 0 .61-.204.61-.61m0 0"/><path id="h" d="M2.922 0v-.469h-.688v-6.453L.47-6.844v.469c.625 0 .687 0 .687.39v5.516H.47V0l1.219-.031Zm0 0"/><path id="i" d="M3.078.313c0-.125-.047-.157-.187-.25C2.063-.5 1.75-1.391 1.75-2.125c0-.672.25-1.594 1.156-2.203.125-.094.172-.125.172-.25a.254.254 0 0 0-.265-.25c-.204 0-1.641.906-1.641 2.703 0 .813.312 1.438.562 1.781.375.516.907.907 1.079.907.218 0 .265-.172.265-.25m0 0"/><path id="j" d="M3.219-.906c0-.735-.906-.906-1.14-.938l-.704-.125C1.188-2 1-2.079 1-2.25c0-.156.219-.328.813-.328.515 0 .609.172.625.328.015.14.03.281.28.281.298 0 .298-.156.298-.328v-.469c0-.14-.016-.328-.25-.328-.157 0-.22.063-.25.125-.282-.125-.563-.125-.688-.125-1.187 0-1.344.594-1.344.844 0 .656.735.797 1.391.89.297.063.828.141.828.454 0 .234-.25.422-.828.422-.297 0-.656-.063-.812-.563C1.03-1.203.984-1.28.78-1.28c-.297 0-.297.172-.297.328v.656c0 .14 0 .344.25.344.079 0 .188 0 .282-.234.328.218.672.234.859.234 1.125 0 1.344-.61 1.344-.953m0 0"/><path id="k" d="M2.313-.469a.477.477 0 0 0-.485-.484.47.47 0 0 0-.469.469c0 .28.22.484.47.484a.473.473 0 0 0 .484-.469m0 0"/><path id="l" d="M3.625-.266c0-.25-.203-.25-.328-.25-.203 0-.297-.03-.344-.046V-2c0-.5-.375-1.094-1.406-1.094-.313 0-1.031.016-1.031.547 0 .235.172.36.359.36.11 0 .344-.063.344-.36 0 0 .234-.031.343-.031.454 0 .782.187.813.594-1.219.03-2.047.39-2.047 1.062 0 .485.453.969 1.188.969.234 0 .656-.047.968-.25.172.187.485.203.75.203.235 0 .391-.016.391-.266M2.359-.969c0 .14 0 .266-.234.375-.234.11-.516.11-.578.11-.39 0-.64-.203-.64-.438 0-.312.546-.515 1.452-.562Zm0 0"/><path id="m" d="M3.422-1.516c0-.875-.64-1.562-1.39-1.562-.298 0-.579.11-.813.281 0-.172-.063-.234-.313-.234h-.5c-.14 0-.343 0-.343.25 0 .265.218.265.328.265h.25v3.5H.406c-.14 0-.343 0-.343.266 0 .25.218.25.328.25h1.093c.11 0 .329 0 .329-.25 0-.266-.204-.266-.344-.266h-.25V-.234c.265.234.531.28.734.28.766 0 1.469-.671 1.469-1.562m-.578 0c0 .61-.453 1.032-.906 1.032-.485 0-.704-.563-.704-.875v-.485c0-.375.375-.703.766-.703.469 0 .844.469.844 1.031m0 0"/><path id="n" d="M3.25-.797c0-.234-.234-.234-.281-.234-.156 0-.219.015-.281.172-.141.328-.485.375-.657.375-.469 0-.937-.297-1.062-.813h1.953c.172 0 .328 0 .328-.312 0-.797-.453-1.485-1.375-1.485-.828 0-1.516.703-1.516 1.563S1.08.047 1.984.047c.938 0 1.266-.656 1.266-.844m-.594-1.015H.97c.125-.438.484-.766.906-.766.328 0 .703.156.781.765m0 0"/><path id="o" d="M3.469-.266c0-.25-.203-.25-.328-.25h-.25l-.828-1.046.734-.954h.234c.125 0 .344 0 .344-.265 0-.25-.219-.25-.344-.25H2.25c-.125 0-.328 0-.328.25 0 .203.11.265.281.265l-.39.547-.422-.547c.156 0 .28-.062.28-.265 0-.25-.202-.25-.327-.25H.547c-.125 0-.328 0-.328.25 0 .265.219.265.328.265h.25l.75.954L.75-.516H.516c-.125 0-.344 0-.344.25C.172 0 .39 0 .516 0h.78c.126 0 .329 0 .329-.266 0-.203-.11-.25-.297-.25l.484-.703.5.703c-.187 0-.296.047-.296.25 0 .266.203.266.328.266h.797c.109 0 .328 0 .328-.266m0 0"/><path id="p" d="M2.484-2.125c0-.828-.312-1.453-.562-1.797-.375-.515-.906-.906-1.078-.906-.203 0-.266.187-.266.25 0 .125.094.187.14.219 1.095.718 1.188 1.797 1.188 2.234 0 .656-.25 1.578-1.14 2.188C.64.14.578.188.578.313c0 .078.063.25.266.25s1.64-.907 1.64-2.688m0 0"/><path id="q" d="M3.406-2.594c0-.156-.078-.484-.703-.484-.328 0-.734.11-1.094.469v-.094c0-.25-.046-.328-.328-.328h-.75c-.125 0-.328 0-.328.25 0 .265.203.265.328.265h.5v2h-.5c-.125 0-.328 0-.328.25C.203 0 .406 0 .531 0h1.781c.126 0 .329 0 .329-.266 0-.25-.203-.25-.328-.25h-.704v-.796c0-.61.36-1.22 1.11-1.235 0 .156.172.281.344.281.187 0 .343-.125.343-.328m0 0"/><path id="r" d="M3.266-.797c0-.234-.235-.234-.297-.234-.125 0-.203 0-.266.172-.047.078-.187.375-.625.375a1.027 1.027 0 0 1-1.015-1.032c0-.312.187-1.062 1.062-1.062l.344.015c.015.282.172.376.36.376.187 0 .358-.126.358-.36 0-.531-.734-.547-1.062-.547-1.219 0-1.64.953-1.64 1.578 0 .844.671 1.563 1.546 1.563 1 0 1.235-.719 1.235-.844m0 0"/><path id="s" d="M3.14-.906c0-.156 0-.313-.296-.313-.266 0-.266.157-.266.297-.015.375-.36.438-.515.438-.454 0-.454-.313-.454-.47v-1.562h1.047c.125 0 .328 0 .328-.265 0-.25-.187-.25-.328-.25H1.61v-.516c0-.14-.015-.328-.296-.328-.282 0-.282.172-.282.328v.516H.484c-.125 0-.328 0-.328.25 0 .265.203.265.328.265h.547v1.61c0 .687.485.953 1.016.953S3.14-.266 3.14-.906m0 0"/><path id="t" d="M3.578-.266c0-.25-.203-.25-.328-.25H3v-1.53c0-.72-.36-1.032-.937-1.032-.391 0-.672.172-.844.297 0-.172-.047-.25-.313-.25h-.5c-.14 0-.328 0-.328.25 0 .265.203.265.313.265h.25v2H.406c-.14 0-.328 0-.328.25C.078 0 .281 0 .391 0h1.093c.11 0 .329 0 .329-.266 0-.25-.204-.25-.344-.25h-.25v-1.156c0-.64.484-.875.797-.875.328 0 .406.172.406.547v1.484h-.203c-.14 0-.344 0-.344.25 0 .266.219.266.344.266H3.25c.11 0 .328 0 .328-.266m0 0"/><path id="u" d="M3.578-.266c0-.25-.203-.25-.328-.25H3v-3.406c0-.25-.047-.344-.328-.344h-.485c-.14 0-.343.016-.343.266s.218.266.328.266h.25v.906a1.26 1.26 0 0 0-.735-.25c-.765 0-1.453.672-1.453 1.562C.234-.64.875.047 1.625.047c.344 0 .61-.14.797-.313.015.188.062.266.328.266h.5c.125 0 .328 0 .328-.266M2.422-1.375c0 .36-.297.89-.781.89-.453 0-.828-.452-.828-1.03 0-.61.437-1.032.89-1.032.406 0 .719.344.719.688Zm0 0"/><path id="v" d="M3.578-.266c0-.25-.203-.25-.328-.25H3v-1.53c0-.72-.36-1.032-.937-1.032-.391 0-.672.172-.844.297v-1.14c0-.25-.047-.345-.313-.345h-.5c-.14 0-.328.016-.328.266s.203.266.313.266h.25v3.218H.406c-.14 0-.328 0-.328.25C.078 0 .281 0 .391 0h1.093c.11 0 .329 0 .329-.266 0-.25-.204-.25-.344-.25h-.25v-1.156c0-.64.484-.875.797-.875.328 0 .406.172.406.547v1.484h-.203c-.14 0-.344 0-.344.25 0 .266.219.266.344.266H3.25c.11 0 .328 0 .328-.266m0 0"/><path id="w" d="M3.281-1.516c0-.89-.672-1.578-1.453-1.578-.797 0-1.453.688-1.453 1.578S1.047.047 1.828.047c.766 0 1.453-.688 1.453-1.563m-.578-.046c0 .593-.406 1.078-.875 1.078S.953-.97.953-1.562s.422-1.016.875-1.016.875.422.875 1.015m0 0"/><path id="x" d="M3.422-1.516c0-.875-.64-1.562-1.39-1.562-.298 0-.579.11-.813.265v-1.109c0-.25-.047-.344-.313-.344h-.5c-.14 0-.343.016-.343.266s.218.266.328.266h.25v3.406C.64-.172.656 0 .938 0c.218 0 .28-.094.28-.234.266.218.532.28.735.28.766 0 1.469-.671 1.469-1.562m-.578 0c0 .61-.453 1.032-.906 1.032-.485 0-.704-.563-.704-.875v-.485c0-.375.375-.703.766-.703.469 0 .844.469.844 1.031m0 0"/><path id="y" d="M3.64-.266c0-.218-.14-.25-.39-.25v-1.593c0-.157-.016-.97-.656-.97a.84.84 0 0 0-.656.313.61.61 0 0 0-.532-.312.88.88 0 0 0-.547.203c-.046-.156-.187-.156-.312-.156H.328c-.125 0-.328 0-.328.25 0 .234.125.265.39.265v2c-.265 0-.39.032-.39.25C0 0 .219 0 .328 0h.594c.125 0 .312 0 .312-.266 0-.218-.109-.25-.359-.25v-1.171c0-.563.234-.86.5-.86.14 0 .203.11.203.5v1.531c-.156 0-.281.032-.281.25 0 .266.187.266.312.266h.516c.125 0 .313 0 .313-.266 0-.218-.126-.25-.376-.25v-1.171c0-.563.25-.86.5-.86.141 0 .204.11.204.5v1.531c-.141 0-.282.032-.282.25 0 .266.204.266.313.266h.5c.125 0 .344 0 .344-.266m0 0"/><path id="z" d="M3.188-.266c0-.25-.204-.25-.329-.25h-.656v-2.187c0-.25-.047-.328-.328-.328H.906c-.125 0-.328 0-.328.25 0 .265.203.265.328.265h.719v2H.859c-.14 0-.343 0-.343.25C.516 0 .734 0 .859 0h2c.125 0 .329 0 .329-.266m-.954-3.562a.39.39 0 0 0-.406-.39.387.387 0 0 0-.39.39c0 .219.171.39.39.39a.39.39 0 0 0 .406-.39m0 0"/><path id="A" d="M3.547-2.781c0-.25-.188-.25-.328-.25h-.781c-.157 0-.344 0-.344.25 0 .265.172.265.344.265h.265l-.297 1.72-.14-.532c-.125-.469-.172-.547-.422-.547-.094 0-.235 0-.328.188l-.266.906-.297-1.735h.266c.156 0 .343 0 .343-.265 0-.25-.187-.25-.343-.25H.437c-.14 0-.343 0-.343.25 0 .234.14.265.36.265L.858-.28c.032.187.047.312.36.312.312 0 .343-.062.453-.515l.172-.641.265 1c.094.14.235.156.344.156.281 0 .313-.125.344-.312l.406-2.235c.219 0 .344-.03.344-.265m0 0"/><path id="B" d="M3.578-.266c0-.25-.219-.25-.328-.25H3v-2.187c0-.25-.047-.328-.328-.328h-.485c-.14 0-.343 0-.343.25 0 .265.218.265.328.265h.25v1.391c0 .563-.516.64-.719.64-.469 0-.484-.187-.484-.39v-1.828c0-.25-.047-.328-.313-.328h-.5c-.14 0-.328 0-.328.25 0 .265.203.265.313.265h.25v1.688c0 .687.5.875 1.03.875.266 0 .517-.063.767-.219C2.484 0 2.625 0 2.75 0h.5c.125 0 .328 0 .328-.266m0 0"/><path id="C" d="M3.36-1.234c0-.47-.297-.875-.72-1.094.344-.25.516-.64.516-1 0-.516-.515-1-1.328-1-.86 0-1.344.36-1.344.844 0 .265.204.375.36.375.172 0 .36-.141.36-.36 0-.078-.032-.14-.048-.172.203-.171.625-.171.688-.171.422 0 .734.218.734.5a.72.72 0 0 1-.25.546c-.219.172-.375.188-.61.188-.437 0-.546.062-.546.281 0 .266.203.266.328.266h.313c.64 0 .968.422.968.797 0 .39-.36.78-.937.78-.25 0-.719-.062-.907-.327A.36.36 0 0 0 1-1a.363.363 0 0 0-.36-.36c-.171 0-.343.126-.343.391C.297-.344.969.078 1.844.078c.922 0 1.515-.656 1.515-1.312m0 0"/><path id="D" d="M3.313-2.125c0-1.297-.72-2.203-1.485-2.203-.781 0-1.5.922-1.5 2.203 0 1.297.734 2.203 1.5 2.203.781 0 1.485-.922 1.485-2.203m-.563-.078c0 .969-.422 1.75-.922 1.75-.516 0-.922-.781-.922-1.75 0-.953.438-1.61.922-1.61.469 0 .922.657.922 1.61m0 0"/><clipPath id="a"><path d="M0 0h352.742v160.586H0Zm0 0"/></clipPath></defs><path fill="#FFFBB3" d="M301.969 143.598c0-69.48-56.324-125.809-125.809-125.809-69.484 0-125.808 56.328-125.808 125.809Zm0 0"/><g clip-path="url(#a)"><path fill="none" stroke="#B2B2B2" stroke-miterlimit="10" stroke-width="14.173" d="M301.969 143.598c0-69.48-56.324-125.809-125.809-125.809-69.484 0-125.808 56.328-125.808 125.809Zm0 0"/></g><g fill="#B2B2B2"><use xlink:href="#b" x="150.237" y="115.141"/><use xlink:href="#c" x="156.603" y="115.141"/><use xlink:href="#d" x="161.853" y="115.141"/><use xlink:href="#e" x="171.398" y="115.141"/><use xlink:href="#f" x="174.576" y="115.141"/><use xlink:href="#e" x="179.667" y="115.141"/><use xlink:href="#g" x="182.845" y="115.141"/><use xlink:href="#f" x="187.567" y="115.141"/><use xlink:href="#h" x="192.658" y="115.141"/><use xlink:href="#c" x="195.836" y="115.141"/></g><path fill="none" stroke="#B2B2B2" stroke-miterlimit="10" stroke-width=".996" d="M201.586 115.25v-56.8"/><path fill="none" stroke="#000" stroke-miterlimit="10" stroke-width=".399" d="m174.75 12.113 2.82-2.816m-2.82 0 2.82 2.816"/><use xlink:href="#i" x="161.515" y="5.678"/><use xlink:href="#j" x="165.176" y="5.678"/><use xlink:href="#k" x="168.838" y="5.678"/><use xlink:href="#l" x="172.499" y="5.678"/><use xlink:href="#m" x="176.16" y="5.678"/><use xlink:href="#n" x="179.821" y="5.678"/><use xlink:href="#o" x="183.483" y="5.678"/><use xlink:href="#p" x="187.144" y="5.678"/><path fill="none" stroke="#000" stroke-miterlimit="10" stroke-width=".399" d="m307.645 152.094 2.82-2.817m-2.82 0 2.82 2.817"/><use xlink:href="#i" x="285.255" y="159.03"/><use xlink:href="#j" x="288.916" y="159.03"/><use xlink:href="#k" x="292.578" y="159.03"/><use xlink:href="#l" x="296.239" y="159.03"/><use xlink:href="#q" x="299.9" y="159.03"/><use xlink:href="#r" x="303.561" y="159.03"/><use xlink:href="#j" x="310.877" y="159.03"/><use xlink:href="#s" x="314.538" y="159.03"/><use xlink:href="#l" x="318.199" y="159.03"/><use xlink:href="#q" x="321.861" y="159.03"/><use xlink:href="#s" x="325.522" y="159.03"/><use xlink:href="#p" x="329.183" y="159.03"/><path fill="none" stroke="#000" stroke-miterlimit="10" stroke-width=".399" d="m41.855 152.094 2.82-2.817m-2.82 0 2.82 2.817"/><use xlink:href="#i" x="23.13" y="159.03"/><use xlink:href="#j" x="26.791" y="159.03"/><use xlink:href="#k" x="30.453" y="159.03"/><use xlink:href="#l" x="34.114" y="159.03"/><use xlink:href="#q" x="37.775" y="159.03"/><use xlink:href="#r" x="41.436" y="159.03"/><use xlink:href="#n" x="48.759" y="159.03"/><use xlink:href="#t" x="52.42" y="159.03"/><use xlink:href="#u" x="56.081" y="159.03"/><use xlink:href="#p" x="59.743" y="159.03"/><path fill="none" stroke="#000" stroke-miterlimit="10" stroke-width=".399" d="m174.75 152.094 2.82-2.817m-2.82 0 2.82 2.817"/><use xlink:href="#i" x="146.87" y="159.03"/><use xlink:href="#j" x="150.531" y="159.03"/><use xlink:href="#k" x="154.193" y="159.03"/><use xlink:href="#r" x="157.854" y="159.03"/><use xlink:href="#v" x="161.515" y="159.03"/><use xlink:href="#w" x="165.176" y="159.03"/><use xlink:href="#q" x="168.838" y="159.03"/><use xlink:href="#u" x="172.499" y="159.03"/><use xlink:href="#r" x="179.821" y="159.03"/><use xlink:href="#n" x="183.483" y="159.03"/><use xlink:href="#t" x="187.144" y="159.03"/><use xlink:href="#s" x="190.805" y="159.03"/><use xlink:href="#n" x="194.467" y="159.03"/><use xlink:href="#q" x="198.128" y="159.03"/><use xlink:href="#p" x="201.789" y="159.03"/><path fill="none" stroke="#000" stroke-miterlimit="10" stroke-width=".399" d="m174.75 88.258 2.82-2.817m-2.82 0 2.82 2.817"/><use xlink:href="#i" x="157.854" y="82.772"/><use xlink:href="#j" x="161.515" y="82.772"/><use xlink:href="#k" x="165.177" y="82.772"/><use xlink:href="#r" x="168.838" y="82.772"/><use xlink:href="#n" x="172.499" y="82.772"/><use xlink:href="#t" x="176.16" y="82.772"/><use xlink:href="#s" x="179.822" y="82.772"/><use xlink:href="#n" x="183.483" y="82.772"/><use xlink:href="#q" x="187.144" y="82.772"/><use xlink:href="#p" x="190.805" y="82.772"/><path fill="none" stroke="#000" stroke-miterlimit="10" stroke-width=".399" d="m174.75 116.55 2.82-2.816m-2.82 0 2.82 2.817"/><use xlink:href="#i" x="161.515" y="123.487"/><use xlink:href="#j" x="165.176" y="123.487"/><use xlink:href="#k" x="168.838" y="123.487"/><use xlink:href="#x" x="172.499" y="123.487"/><use xlink:href="#l" x="176.16" y="123.487"/><use xlink:href="#j" x="179.821" y="123.487"/><use xlink:href="#n" x="183.483" y="123.487"/><use xlink:href="#p" x="187.144" y="123.487"/><path fill="none" stroke="#000" stroke-miterlimit="10" stroke-width=".399" d="m174.75 114.34 2.82-2.82m-2.82 0 2.82 2.82"/><use xlink:href="#i" x="179.68" y="115.064"/><use xlink:href="#j" x="183.341" y="115.064"/><use xlink:href="#k" x="187.003" y="115.064"/><use xlink:href="#y" x="190.664" y="115.064"/><use xlink:href="#z" x="194.325" y="115.064"/><use xlink:href="#u" x="197.986" y="115.064"/><use xlink:href="#p" x="201.648" y="115.064"/><path fill="none" stroke="#000" stroke-miterlimit="10" stroke-width=".399" d="m148.828 116.55 2.817-2.816m-2.817 0 2.817 2.817"/><use xlink:href="#i" x="117.427" y="117.275"/><use xlink:href="#j" x="121.088" y="117.275"/><use xlink:href="#k" x="124.75" y="117.275"/><use xlink:href="#s" x="128.411" y="117.275"/><use xlink:href="#n" x="132.072" y="117.275"/><use xlink:href="#o" x="135.733" y="117.275"/><use xlink:href="#s" x="139.395" y="117.275"/><use xlink:href="#p" x="143.056" y="117.275"/><path fill="none" stroke="#000" stroke-miterlimit="10" stroke-width=".399" d="m44.941 116.57 2.817-2.816m-2.817 0 2.817 2.816"/><use xlink:href="#i" x="22.553" y="123.507"/><use xlink:href="#j" x="26.214" y="123.507"/><use xlink:href="#k" x="29.876" y="123.507"/><use xlink:href="#x" x="33.537" y="123.507"/><use xlink:href="#l" x="37.198" y="123.507"/><use xlink:href="#j" x="40.859" y="123.507"/><use xlink:href="#n" x="44.521" y="123.507"/><use xlink:href="#A" x="51.843" y="123.507"/><use xlink:href="#n" x="55.504" y="123.507"/><use xlink:href="#j" x="59.166" y="123.507"/><use xlink:href="#s" x="62.827" y="123.507"/><use xlink:href="#p" x="66.488" y="123.507"/><path fill="none" stroke="#000" stroke-miterlimit="10" stroke-width=".399" d="m304.563 116.57 2.816-2.816m-2.817 0 2.817 2.816"/><use xlink:href="#i" x="282.17" y="123.507"/><use xlink:href="#j" x="285.831" y="123.507"/><use xlink:href="#k" x="289.493" y="123.507"/><use xlink:href="#x" x="293.154" y="123.507"/><use xlink:href="#l" x="296.815" y="123.507"/><use xlink:href="#j" x="300.476" y="123.507"/><use xlink:href="#n" x="304.138" y="123.507"/><use xlink:href="#n" x="311.46" y="123.507"/><use xlink:href="#l" x="315.121" y="123.507"/><use xlink:href="#j" x="318.783" y="123.507"/><use xlink:href="#s" x="322.444" y="123.507"/><use xlink:href="#p" x="326.105" y="123.507"/><path fill="none" stroke="#000" stroke-miterlimit="10" stroke-width=".399" d="m45.445 114.363 2.82-2.816m-2.82 0 2.82 2.816"/><use xlink:href="#i" x="-.598" y="115.087"/><use xlink:href="#j" x="3.063" y="115.087"/><use xlink:href="#k" x="6.725" y="115.087"/><use xlink:href="#y" x="10.386" y="115.087"/><use xlink:href="#z" x="14.047" y="115.087"/><use xlink:href="#u" x="17.708" y="115.087"/><use xlink:href="#A" x="25.024" y="115.087"/><use xlink:href="#n" x="28.685" y="115.087"/><use xlink:href="#j" x="32.346" y="115.087"/><use xlink:href="#s" x="36.008" y="115.087"/><use xlink:href="#p" x="39.669" y="115.087"/><path fill="none" stroke="#000" stroke-miterlimit="10" stroke-width=".399" d="m304.055 114.363 2.82-2.816m-2.82 0 2.82 2.816"/><use xlink:href="#i" x="308.983" y="115.087"/><use xlink:href="#j" x="312.644" y="115.087"/><use xlink:href="#k" x="316.306" y="115.087"/><use xlink:href="#y" x="319.967" y="115.087"/><use xlink:href="#z" x="323.628" y="115.087"/><use xlink:href="#u" x="327.289" y="115.087"/><use xlink:href="#n" x="334.612" y="115.087"/><use xlink:href="#l" x="338.273" y="115.087"/><use xlink:href="#j" x="341.934" y="115.087"/><use xlink:href="#s" x="345.596" y="115.087"/><use xlink:href="#p" x="349.257" y="115.087"/><path fill="none" stroke="#000" stroke-miterlimit="10" stroke-width=".399" d="m174.75 12.113 2.82-2.816m-2.82 0 2.82 2.816"/><use xlink:href="#i" x="159.684" y="19.05"/><use xlink:href="#j" x="163.345" y="19.05"/><use xlink:href="#k" x="167.007" y="19.05"/><use xlink:href="#t" x="170.668" y="19.05"/><use xlink:href="#w" x="174.329" y="19.05"/><use xlink:href="#q" x="177.99" y="19.05"/><use xlink:href="#s" x="181.652" y="19.05"/><use xlink:href="#v" x="185.313" y="19.05"/><use xlink:href="#p" x="188.974" y="19.05"/><path fill="none" stroke="#000" stroke-miterlimit="10" stroke-width=".399" d="m174.754 152.102 2.82-2.82m-2.82 0 2.82 2.82"/><use xlink:href="#i" x="159.689" y="146.612"/><use xlink:href="#j" x="163.35" y="146.612"/><use xlink:href="#k" x="167.012" y="146.612"/><use xlink:href="#j" x="170.673" y="146.612"/><use xlink:href="#w" x="174.334" y="146.612"/><use xlink:href="#B" x="177.995" y="146.612"/><use xlink:href="#s" x="181.657" y="146.612"/><use xlink:href="#v" x="185.318" y="146.612"/><use xlink:href="#p" x="188.979" y="146.612"/><path fill="none" stroke="#000" stroke-miterlimit="10" stroke-width=".399" d="m294.93 88.3 2.82-2.82m-2.82 0 2.82 2.82"/><use xlink:href="#i" x="281.694" y="82.813"/><use xlink:href="#j" x="285.355" y="82.813"/><use xlink:href="#k" x="289.017" y="82.813"/><use xlink:href="#n" x="292.678" y="82.813"/><use xlink:href="#l" x="296.339" y="82.813"/><use xlink:href="#j" x="300" y="82.813"/><use xlink:href="#s" x="303.662" y="82.813"/><use xlink:href="#p" x="307.323" y="82.813"/><path fill="none" stroke="#000" stroke-miterlimit="10" stroke-width=".399" d="m54.57 88.3 2.82-2.82m-2.82 0 2.82 2.82"/><use xlink:href="#i" x="41.337" y="82.813"/><use xlink:href="#j" x="44.998" y="82.813"/><use xlink:href="#k" x="48.66" y="82.813"/><use xlink:href="#A" x="52.321" y="82.813"/><use xlink:href="#n" x="55.982" y="82.813"/><use xlink:href="#j" x="59.643" y="82.813"/><use xlink:href="#s" x="63.305" y="82.813"/><use xlink:href="#p" x="66.966" y="82.813"/><path fill="none" stroke="#000" stroke-miterlimit="10" stroke-width=".399" d="m113.52 27.066 2.82-2.816m-2.82 0 2.82 2.816"/><use xlink:href="#i" x="60.154" y="21.58"/><use xlink:href="#j" x="63.815" y="21.58"/><use xlink:href="#k" x="67.477" y="21.58"/><use xlink:href="#t" x="71.138" y="21.58"/><use xlink:href="#w" x="74.799" y="21.58"/><use xlink:href="#q" x="78.46" y="21.58"/><use xlink:href="#s" x="82.122" y="21.58"/><use xlink:href="#v" x="85.783" y="21.58"/><use xlink:href="#A" x="93.105" y="21.58"/><use xlink:href="#n" x="96.767" y="21.58"/><use xlink:href="#j" x="100.428" y="21.58"/><use xlink:href="#s" x="104.089" y="21.58"/><use xlink:href="#p" x="107.751" y="21.58"/><path fill="none" stroke="#000" stroke-miterlimit="10" stroke-width=".399" d="m235.98 27.066 2.817-2.816m-2.817 0 2.817 2.816"/><use xlink:href="#i" x="240.909" y="21.58"/><use xlink:href="#j" x="244.57" y="21.58"/><use xlink:href="#k" x="248.232" y="21.58"/><use xlink:href="#t" x="251.893" y="21.58"/><use xlink:href="#w" x="255.554" y="21.58"/><use xlink:href="#q" x="259.215" y="21.58"/><use xlink:href="#s" x="262.877" y="21.58"/><use xlink:href="#v" x="266.538" y="21.58"/><use xlink:href="#n" x="273.86" y="21.58"/><use xlink:href="#l" x="277.522" y="21.58"/><use xlink:href="#j" x="281.183" y="21.58"/><use xlink:href="#s" x="284.844" y="21.58"/><use xlink:href="#p" x="288.506" y="21.58"/><path fill="none" stroke="#000" stroke-miterlimit="10" stroke-width=".399" d="m110.914 152.098 2.816-2.82m-2.816 0 2.816 2.82"/><use xlink:href="#i" x="86.694" y="159.032"/><use xlink:href="#j" x="90.355" y="159.032"/><use xlink:href="#k" x="94.017" y="159.032"/><use xlink:href="#j" x="97.678" y="159.032"/><use xlink:href="#w" x="101.339" y="159.032"/><use xlink:href="#B" x="105" y="159.032"/><use xlink:href="#s" x="108.662" y="159.032"/><use xlink:href="#v" x="112.323" y="159.032"/><use xlink:href="#A" x="119.645" y="159.032"/><use xlink:href="#n" x="123.307" y="159.032"/><use xlink:href="#j" x="126.968" y="159.032"/><use xlink:href="#s" x="130.629" y="159.032"/><use xlink:href="#p" x="134.291" y="159.032"/><path fill="none" stroke="#000" stroke-miterlimit="10" stroke-width=".399" d="m238.594 152.098 2.816-2.82m-2.816 0 2.816 2.82"/><use xlink:href="#i" x="214.373" y="159.032"/><use xlink:href="#j" x="218.034" y="159.032"/><use xlink:href="#k" x="221.696" y="159.032"/><use xlink:href="#j" x="225.357" y="159.032"/><use xlink:href="#w" x="229.018" y="159.032"/><use xlink:href="#B" x="232.679" y="159.032"/><use xlink:href="#s" x="236.341" y="159.032"/><use xlink:href="#v" x="240.002" y="159.032"/><use xlink:href="#n" x="247.324" y="159.032"/><use xlink:href="#l" x="250.986" y="159.032"/><use xlink:href="#j" x="254.647" y="159.032"/><use xlink:href="#s" x="258.308" y="159.032"/><use xlink:href="#p" x="261.97" y="159.032"/><path fill="none" stroke="#000" stroke-miterlimit="10" stroke-width=".399" d="m257.133 40.738 2.816-2.82m-2.816 0 2.816 2.82"/><use xlink:href="#i" x="262.061" y="41.463"/><use xlink:href="#j" x="265.722" y="41.463"/><use xlink:href="#k" x="269.384" y="41.463"/><use xlink:href="#C" x="273.045" y="41.463"/><use xlink:href="#D" x="276.706" y="41.463"/><use xlink:href="#p" x="280.367" y="41.463"/></svg>