<svg xmlns="http://www.w3.org/2000/svg" width="87.338" height="59.078"><defs><clipPath id="a"><path d="M16 25h44v33.617H16Zm0 0"/></clipPath></defs><path fill="none" stroke="#7F7F7F" stroke-miterlimit="10" stroke-width=".199" d="M.867 57.332H85.91M.867 28.984H85.91M.867.648H85.91M.867 57.332V.637m28.348 56.695V.637m28.348 56.695V.637m28.335 56.695V.637"/><path fill="none" stroke="#000" stroke-miterlimit="10" stroke-width=".399" d="M.867 57.332V43.16h28.348v14.172Zm0 0"/><path fill="none" stroke="red" stroke-miterlimit="10" stroke-width=".399" d="M29.215 57.332V43.16h28.348v14.172Zm0 0"/><path fill="none" stroke="#00F" stroke-miterlimit="10" stroke-width=".399" d="M29.215 28.984V14.812h28.348v14.172Zm0 0"/><g clip-path="url(#a)"><path fill="none" stroke="#FF7F00" stroke-miterlimit="10" stroke-width=".399" d="m29.215 57.332-7.086-12.273 24.547-14.176 7.09 12.277Zm0 0"/></g></svg>