<svg xmlns="http://www.w3.org/2000/svg" xmlns:xlink="http://www.w3.org/1999/xlink" width="38.234" height="52.04"><defs><path id="b" d="M8.25 0v-.469h-.969L4.72-6.703c-.11-.25-.219-.25-.39-.25-.282 0-.329.078-.391.25l-2.47 6c-.062.156-.093.234-.843.234H.406V0l1.172-.031c.39 0 .938 0 1.313.031v-.469S2-.469 2-.594l.047-.125.5-1.203h2.672l.593 1.453H4.86V0c.391-.031 1.329-.031 1.766-.031.39 0 1.266 0 1.625.031M5.016-2.39H2.734l1.141-2.766Zm0 0"/><path id="c" d="M7.5-1.86c0-.952-.844-1.624-2.031-1.702 1.078-.204 1.718-.797 1.718-1.563 0-.922-.875-1.719-2.468-1.719H.39v.469h1.078v5.906H.39V0h4.625C6.672 0 7.5-.875 7.5-1.86M5.766-5.124c0 .766-.47 1.39-1.438 1.39H2.766v-2.64h1.812c1.016 0 1.188.797 1.188 1.25m.28 3.266c0 .109 0 1.39-1.437 1.39H2.766v-2.906h1.937c.203 0 .672 0 1.016.422.328.422.328.984.328 1.094m0 0"/><clipPath id="a"><path d="M0 23h37.852v28.559H0Zm0 0"/></clipPath></defs><g clip-path="url(#a)"><path fill="none" stroke="#000" stroke-miterlimit="10" stroke-width=".399" d="M21.02 44.95c.949-1.641 1.449-3.509 1.449-5.407 0-5.977-4.844-10.82-10.817-10.82-5.976 0-10.816 4.843-10.816 10.82 0 5.973 4.84 10.816 10.816 10.816h24.993v-5.41Zm0 0"/></g><use xlink:href="#b" x="7.323" y="43.019"/><path fill="none" stroke="#000" stroke-miterlimit="10" stroke-width=".399" d="M18.57 19.04a10.46 10.46 0 0 0 3.54-7.845C22.11 5.418 17.43.738 11.651.738A10.454 10.454 0 0 0 1.195 11.195c0 5.778 4.68 10.457 10.457 10.457H22.11V19.04Zm0 0"/><use xlink:href="#c" x="7.577" y="14.613"/></svg>