<svg xmlns="http://www.w3.org/2000/svg" width="30.35" height="5.636"><defs><clipPath id="a"><path d="M0 0h11v5.453H0Zm0 0"/></clipPath><clipPath id="b"><path d="M14 0h16v5.453H14Zm0 0"/></clipPath><clipPath id="c"><path d="M19 0h11.023v5.453H19Zm0 0"/></clipPath></defs><path fill="none" stroke="#000" stroke-miterlimit="10" stroke-width=".399" d="M3.738 2.633h22.219"/><path d="m1.242 2.633 3.574 1.344-1.175-1.344 1.175-1.348Zm0 0"/><g clip-path="url(#a)"><path fill="none" stroke="#000" stroke-miterlimit="10" stroke-width=".399" d="m1.242 2.633 3.574 1.344-1.175-1.344 1.175-1.348Zm0 0"/></g><path d="m23.672 2.633-3.57-1.348 1.175 1.348-1.175 1.344Zm0 0"/><g clip-path="url(#b)"><path fill="none" stroke="#000" stroke-miterlimit="10" stroke-width=".399" d="m23.672 2.633-3.57-1.348 1.175 1.348-1.175 1.344Zm0 0"/></g><path d="m28.457 2.633-3.574-1.348 1.176 1.348-1.176 1.344Zm0 0"/><g clip-path="url(#c)"><path fill="none" stroke="#000" stroke-miterlimit="10" stroke-width=".399" d="m28.457 2.633-3.574-1.348 1.176 1.348-1.176 1.344Zm0 0"/></g></svg>