<svg xmlns="http://www.w3.org/2000/svg" xmlns:xlink="http://www.w3.org/1999/xlink" width="30.294" height="19.907"><defs><path id="a" d="M2.89-3.516c.813-.265 1.391-.953 1.391-1.75 0-.812-.875-1.375-1.828-1.375-1 0-1.765.594-1.765 1.36 0 .328.218.515.515.515s.5-.218.5-.515c0-.485-.469-.485-.61-.485.298-.5.954-.625 1.313-.625.422 0 .969.22.969 1.11 0 .125-.031.703-.281 1.14-.297.485-.64.516-.89.516a3 3 0 0 1-.392.031c-.078.016-.14.031-.14.125 0 .11.062.11.234.11h.438c.812 0 1.187.672 1.187 1.656 0 1.36-.687 1.64-1.125 1.64S1.22-.233.875-.812c.344.047.656-.171.656-.546a.537.537 0 0 0-.547-.563c-.25 0-.562.14-.562.578C.422-.437 1.344.22 2.437.22c1.22 0 2.126-.906 2.126-1.922 0-.813-.641-1.594-1.672-1.813m0 0"/><path id="b" d="M6.75-1.61H6.5a3.7 3.7 0 0 1-.187.72c-.047.156-.079.25-.657.25H4.86c.141-.563.438-1.047.891-1.704.469-.703.875-1.39.875-2.187 0-1.375-1.344-2.5-3.031-2.5-1.703 0-3.031 1.14-3.031 2.5 0 .797.406 1.484.875 2.187.437.656.75 1.14.89 1.703h-.797c-.578 0-.61-.093-.656-.234-.094-.234-.14-.484-.187-.734h-.25L.766 0h1.593c.22 0 .25 0 .25-.203 0-.703-.312-1.578-.53-2.219-.22-.578-.5-1.36-.5-2.11 0-1.593 1.109-2.28 2.015-2.28.953 0 2.015.718 2.015 2.28 0 .75-.28 1.5-.562 2.313-.156.422-.469 1.328-.469 2.016 0 .203.031.203.25.203h1.594Zm0 0"/></defs><path fill="none" stroke="#000" stroke-miterlimit="10" stroke-width=".399" d="M.848 18.66h27.894v-6.972H.848Zm0 0"/><g fill="red"><use xlink:href="#a" x="8.706" y="7.968"/><use xlink:href="#b" x="13.687" y="7.968"/></g></svg>