<svg xmlns="http://www.w3.org/2000/svg" width="102.152" height="60.122"><defs><clipPath id="a"><path d="M0 0h101.727v21H0Zm0 0"/></clipPath><clipPath id="b"><path d="M0 16h101.727v26H0Zm0 0"/></clipPath><clipPath id="c"><path d="M0 38h101.727v21.684H0Zm0 0"/></clipPath></defs><path fill="#FF7F7F" d="m8.21.957-1.64 2.73-2.984-1.019.473 3.16-2.934 1.168L3.488 9.11 1.98 11.918l3.149.078.621 3.137 2.46-1.996 2.462 1.996.625-3.137 3.148-.078-1.508-2.809 2.364-2.113-2.934-1.168.469-3.16-2.984 1.02Zm14.177 0-1.64 2.73-2.99-1.019.473 3.16-2.933 1.168L17.66 9.11l-1.508 2.809 3.149.078.625 3.137 2.46-1.996 2.462 1.996.62-3.137 3.15-.078-1.509-2.809 2.364-2.113-2.934-1.168.473-3.16-2.985 1.02Zm14.172 0-1.641 2.73-2.984-1.019.468 3.16-2.93 1.168 2.364 2.113-1.508 2.809 3.149.078.62 3.137 2.462-1.996 2.46 1.996.622-3.137 3.148-.078-1.504-2.809 2.36-2.113-2.93-1.168.469-3.16-2.985 1.02Zm14.171 0-1.64 2.73-2.985-1.019.473 3.16-2.933 1.168 2.363 2.113-1.508 2.809 3.148.078.622 3.137 2.46-1.996 2.465 1.996.621-3.137 3.149-.078-1.508-2.809 2.363-2.113-2.933-1.168.472-3.16-2.988 1.02Zm14.176 0-1.64 2.73-2.985-1.019.469 3.16-2.93 1.168 2.36 2.113-1.508 2.809 3.148.078.625 3.137 2.461-1.996 2.461 1.996.621-3.137 3.149-.078-1.508-2.809 2.363-2.113-2.933-1.168.472-3.16-2.984 1.02Zm14.172 0-1.64 2.73-2.985-1.019.473 3.16-2.934 1.168 2.363 2.113-1.507 2.809 3.148.078.621 3.137 2.461-1.996 2.461 1.996.625-3.137 3.148-.078-1.507-2.809 2.36-2.113-2.93-1.168.468-3.16-2.984 1.02Zm14.176 0-1.64 2.73-2.989-1.019.473 3.16-2.934 1.168 2.363 2.113-1.507 2.809 3.148.078.621 3.137 2.465-1.996 2.46 1.996.622-3.137 3.148-.078-1.507-2.809 2.363-2.113-2.934-1.168.473-3.16-2.984 1.02Zm0 0"/><g clip-path="url(#a)"><path fill="none" stroke="#7F0000" stroke-miterlimit="10" stroke-width=".399" d="m8.21.957-1.64 2.73-2.984-1.019.473 3.16-2.934 1.168L3.488 9.11 1.98 11.918l3.149.078.621 3.137 2.46-1.996 2.462 1.996.625-3.137 3.148-.078-1.508-2.809 2.364-2.113-2.934-1.168.469-3.16-2.984 1.02Zm14.177 0-1.64 2.73-2.99-1.019.473 3.16-2.933 1.168L17.66 9.11l-1.508 2.809 3.149.078.625 3.137 2.46-1.996 2.462 1.996.62-3.137 3.15-.078-1.509-2.809 2.364-2.113-2.934-1.168.473-3.16-2.985 1.02Zm14.172 0-1.641 2.73-2.984-1.019.468 3.16-2.93 1.168 2.364 2.113-1.508 2.809 3.149.078.62 3.137 2.462-1.996 2.46 1.996.622-3.137 3.148-.078-1.504-2.809 2.36-2.113-2.93-1.168.469-3.16-2.985 1.02Zm14.171 0-1.64 2.73-2.985-1.019.473 3.16-2.933 1.168 2.363 2.113-1.508 2.809 3.148.078.622 3.137 2.46-1.996 2.465 1.996.621-3.137 3.149-.078-1.508-2.809 2.363-2.113-2.933-1.168.472-3.16-2.988 1.02Zm14.176 0-1.64 2.73-2.985-1.019.469 3.16-2.93 1.168 2.36 2.113-1.508 2.809 3.148.078.625 3.137 2.461-1.996 2.461 1.996.621-3.137 3.149-.078-1.508-2.809 2.363-2.113-2.933-1.168.472-3.16-2.984 1.02Zm14.172 0-1.64 2.73-2.985-1.019.473 3.16-2.934 1.168 2.363 2.113-1.507 2.809 3.148.078.621 3.137 2.461-1.996 2.461 1.996.625-3.137 3.148-.078-1.507-2.809 2.36-2.113-2.93-1.168.468-3.16-2.984 1.02Zm14.176 0-1.64 2.73-2.989-1.019.473 3.16-2.934 1.168 2.363 2.113-1.507 2.809 3.148.078.621 3.137 2.465-1.996 2.46 1.996.622-3.137 3.148-.078-1.507-2.809 2.363-2.113-2.934-1.168.473-3.16-2.984 1.02Zm0 0"/></g><path fill="#7F7FFF" d="m8.21 21.691-2.917 3.61-4.168 1.804 2.363 4.036.344 4.722 4.379-1.117 4.379 1.117.348-4.722 2.359-4.036-4.164-1.804Zm14.177 0-2.922 3.61-4.164 1.804 2.36 4.036.343 4.722 4.383-1.117 4.379 1.117.343-4.722 2.364-4.036-4.168-1.804Zm14.172 0-2.918 3.61-4.168 1.804 2.363 4.036.344 4.722 4.379-1.117 4.379 1.117.343-4.722 2.364-4.036-4.168-1.804Zm14.171 0-2.917 3.61-4.168 1.804 2.363 4.036.344 4.722 4.378-1.117 4.383 1.117.344-4.722 2.363-4.036-4.168-1.804Zm14.176 0-2.922 3.61-4.164 1.804 2.36 4.036.347 4.722 4.38-1.117 4.378 1.117.344-4.722 2.363-4.036-4.168-1.804Zm14.172 0-2.918 3.61-4.168 1.804 2.363 4.036.344 4.722 4.38-1.117 4.378 1.117.348-4.722 2.36-4.036L82 25.301Zm14.176 0-2.922 3.61-4.168 1.804 2.363 4.036.344 4.722 4.383-1.117 4.379 1.117.344-4.722 2.363-4.036-4.168-1.804Zm0 0"/><g clip-path="url(#b)"><path fill="none" stroke="#00007F" stroke-miterlimit="10" stroke-width=".399" d="m8.21 21.691-2.917 3.61-4.168 1.804 2.363 4.036.344 4.722 4.379-1.117 4.379 1.117.348-4.722 2.359-4.036-4.164-1.804Zm14.177 0-2.922 3.61-4.164 1.804 2.36 4.036.343 4.722 4.383-1.117 4.379 1.117.343-4.722 2.364-4.036-4.168-1.804Zm14.172 0-2.918 3.61-4.168 1.804 2.363 4.036.344 4.722 4.379-1.117 4.379 1.117.343-4.722 2.364-4.036-4.168-1.804Zm14.171 0-2.917 3.61-4.168 1.804 2.363 4.036.344 4.722 4.378-1.117 4.383 1.117.344-4.722 2.363-4.036-4.168-1.804Zm14.176 0-2.922 3.61-4.164 1.804 2.36 4.036.347 4.722 4.38-1.117 4.378 1.117.344-4.722 2.363-4.036-4.168-1.804Zm14.172 0-2.918 3.61-4.168 1.804 2.363 4.036.344 4.722 4.38-1.117 4.378 1.117.348-4.722 2.36-4.036L82 25.301Zm14.176 0-2.922 3.61-4.168 1.804 2.363 4.036.344 4.722 4.383-1.117 4.379 1.117.344-4.722 2.363-4.036-4.168-1.804Zm0 0"/></g><path fill="#FFF87F" d="m4.465 44.188-.817 4.53-2.765 3.65 3.988 2.19L7.43 58.36l3.28-3.175 4.349-1.301-1.961-4.153.129-4.605-4.493.61Zm14.176 0-.82 4.53-2.766 3.65 3.988 2.19 2.559 3.801 3.28-3.175 4.348-1.301-1.96-4.153.128-4.605-4.492.61Zm14.172 0-.817 4.53-2.766 3.65 3.985 2.19 2.562 3.801 3.278-3.175 4.347-1.301-1.957-4.153.13-4.605-4.493.61Zm14.171 0-.816 4.53-2.766 3.65 3.989 2.19 2.558 3.801 3.281-3.175 4.348-1.301-1.96-4.153.128-4.605-4.492.61Zm14.176 0-.816 4.53-2.766 3.65 3.984 2.19 2.56 3.801 3.28-3.175 4.348-1.301-1.957-4.153.125-4.605-4.492.61Zm14.172 0-.816 4.53-2.766 3.65 3.988 2.19 2.559 3.801 3.281-3.175 4.348-1.301-1.961-4.153.129-4.605-4.492.61Zm14.172 0-.817 4.53-2.765 3.65 3.988 2.19 2.559 3.801 3.281-3.175 4.348-1.301-1.961-4.153.129-4.605-4.493.61Zm0 0"/><g clip-path="url(#c)"><path fill="none" stroke="#8F8A48" stroke-miterlimit="10" stroke-width=".399" d="m4.465 44.188-.817 4.53-2.765 3.65 3.988 2.19L7.43 58.36l3.28-3.175 4.349-1.301-1.961-4.153.129-4.605-4.493.61Zm14.176 0-.82 4.53-2.766 3.65 3.988 2.19 2.559 3.801 3.28-3.175 4.348-1.301-1.96-4.153.128-4.605-4.492.61Zm14.172 0-.817 4.53-2.766 3.65 3.985 2.19 2.562 3.801 3.278-3.175 4.347-1.301-1.957-4.153.13-4.605-4.493.61Zm14.171 0-.816 4.53-2.766 3.65 3.989 2.19 2.558 3.801 3.281-3.175 4.348-1.301-1.96-4.153.128-4.605-4.492.61Zm14.176 0-.816 4.53-2.766 3.65 3.984 2.19 2.56 3.801 3.28-3.175 4.348-1.301-1.957-4.153.125-4.605-4.492.61Zm14.172 0-.816 4.53-2.766 3.65 3.988 2.19 2.559 3.801 3.281-3.175 4.348-1.301-1.961-4.153.129-4.605-4.492.61Zm14.172 0-.817 4.53-2.765 3.65 3.988 2.19 2.559 3.801 3.281-3.175 4.348-1.301-1.961-4.153.129-4.605-4.493.61Zm0 0"/></g></svg>