<svg xmlns="http://www.w3.org/2000/svg" xmlns:xlink="http://www.w3.org/1999/xlink" width="286.616" height="42.014"><defs><clipPath id="d"><path d="M72.25 10.55h141.73v19.927H72.25Zm0 0"/></clipPath><clipPath id="b"><path d="M0 0h12v12H0Zm0 0"/></clipPath><clipPath id="a"><path d="M0 0h12v12H0z"/></clipPath><clipPath id="f"><path d="M72.25 30.332h42.52v.145H72.25Zm0 0"/></clipPath><clipPath id="g"><path d="M72.25 27.344h42.52v.996H72.25Zm0 0"/></clipPath><clipPath id="h"><path d="M72.25 24.355h42.52v.997H72.25Zm0 0"/></clipPath><clipPath id="i"><path d="M72.25 21.367h42.52v.996H72.25Zm0 0"/></clipPath><clipPath id="j"><path d="M72.25 18.379h42.52v.996H72.25Zm0 0"/></clipPath><clipPath id="k"><path d="M72.25 15.39h42.52v.997H72.25Zm0 0"/></clipPath><clipPath id="l"><path d="M72.25 12.402h42.52v.996H72.25Zm0 0"/></clipPath><clipPath id="m"><path d="M121.855 30.332h5.649v.145h-5.649Zm0 0"/></clipPath><clipPath id="n"><path d="M127.504 30.332h36.875v.145h-36.875Zm0 0"/></clipPath><clipPath id="o"><path d="M121.855 27.344h5.649v.996h-5.649Zm0 0"/></clipPath><clipPath id="p"><path d="M127.504 27.344h36.875v.996h-36.875Zm0 0"/></clipPath><clipPath id="q"><path d="M121.855 24.355h5.649v.997h-5.649Zm0 0"/></clipPath><clipPath id="r"><path d="M127.504 24.355h36.875v.997h-36.875Zm0 0"/></clipPath><clipPath id="s"><path d="M121.855 21.367h5.649v.996h-5.649Zm0 0"/></clipPath><clipPath id="t"><path d="M127.504 21.367h36.875v.996h-36.875Zm0 0"/></clipPath><clipPath id="u"><path d="M121.855 18.379h5.649v.996h-5.649Zm0 0"/></clipPath><clipPath id="v"><path d="M127.504 18.379h36.875v.996h-36.875Zm0 0"/></clipPath><clipPath id="w"><path d="M121.855 15.39h5.649v.997h-5.649Zm0 0"/></clipPath><clipPath id="x"><path d="M127.504 15.39h36.875v.997h-36.875Zm0 0"/></clipPath><clipPath id="y"><path d="M121.855 12.402h5.649v.996h-5.649Zm0 0"/></clipPath><clipPath id="z"><path d="M127.504 12.402h36.875v.996h-36.875Zm0 0"/></clipPath><clipPath id="A"><path d="M171.465 30.332h42.52v.145h-42.52Zm0 0"/></clipPath><clipPath id="B"><path d="M171.465 27.344h42.52v.996h-42.52Zm0 0"/></clipPath><clipPath id="C"><path d="M171.465 24.355h42.52v.997h-42.52Zm0 0"/></clipPath><clipPath id="D"><path d="M171.465 21.367h42.52v.996h-42.52Zm0 0"/></clipPath><clipPath id="E"><path d="M171.465 18.379h42.52v.996h-42.52Zm0 0"/></clipPath><clipPath id="F"><path d="M171.465 15.39h42.52v.997h-42.52Zm0 0"/></clipPath><clipPath id="G"><path d="M171.465 12.402h42.52v.996h-42.52Zm0 0"/></clipPath><pattern id="e" width="12" height="12" x="0" y="0" patternTransform="matrix(.9449 0 0 -.9449 -71.75 13618.551)" patternUnits="userSpaceOnUse"><use xlink:href="#c"/></pattern><g id="c" clip-path="url(#a)"><g clip-path="url(#b)"><path d="M9.202 14358.558H446v64.029H9.202z"/></g><path fill="#CCC" d="M0 0h6v6H0Zm6 6h6v6H6Zm0 0"/></g></defs><g clip-path="url(#d)"><path fill="url(#e)" d="M72.25 30.477h141.73V10.55H72.25Zm0 0"/></g><g clip-path="url(#f)"><path fill="none" stroke="#000" stroke-miterlimit="10" stroke-width=".399" d="M27.879 30.832h99.625"/></g><g clip-path="url(#g)"><path fill="none" stroke="#000" stroke-miterlimit="10" stroke-width=".399" d="M27.879 27.844h99.625"/></g><g clip-path="url(#h)"><path fill="none" stroke="#000" stroke-miterlimit="10" stroke-width=".399" d="M27.879 24.855h99.625"/></g><g clip-path="url(#i)"><path fill="none" stroke="#000" stroke-miterlimit="10" stroke-width=".399" d="M27.879 21.863h99.625"/></g><g clip-path="url(#j)"><path fill="none" stroke="#000" stroke-miterlimit="10" stroke-width=".399" d="M27.879 18.875h99.625"/></g><g clip-path="url(#k)"><path fill="none" stroke="#000" stroke-miterlimit="10" stroke-width=".399" d="M27.879 15.887h99.625"/></g><g clip-path="url(#l)"><path fill="none" stroke="#000" stroke-miterlimit="10" stroke-width=".399" d="M27.879 12.898h99.625"/></g><g clip-path="url(#m)"><path fill="none" stroke="#00F" stroke-miterlimit="10" stroke-width=".399" d="M27.879 30.832h99.625"/></g><g clip-path="url(#n)"><path fill="none" stroke="#00F" stroke-miterlimit="10" stroke-width=".399" d="M127.504 30.832h99.629"/></g><g clip-path="url(#o)"><path fill="none" stroke="#00F" stroke-miterlimit="10" stroke-width=".399" d="M27.879 27.844h99.625"/></g><g clip-path="url(#p)"><path fill="none" stroke="#00F" stroke-miterlimit="10" stroke-width=".399" d="M127.504 27.844h99.629"/></g><g clip-path="url(#q)"><path fill="none" stroke="#00F" stroke-miterlimit="10" stroke-width=".399" d="M27.879 24.855h99.625"/></g><g clip-path="url(#r)"><path fill="none" stroke="#00F" stroke-miterlimit="10" stroke-width=".399" d="M127.504 24.855h99.629"/></g><g clip-path="url(#s)"><path fill="none" stroke="#00F" stroke-miterlimit="10" stroke-width=".399" d="M27.879 21.863h99.625"/></g><g clip-path="url(#t)"><path fill="none" stroke="#00F" stroke-miterlimit="10" stroke-width=".399" d="M127.504 21.863h99.629"/></g><g clip-path="url(#u)"><path fill="none" stroke="#00F" stroke-miterlimit="10" stroke-width=".399" d="M27.879 18.875h99.625"/></g><g clip-path="url(#v)"><path fill="none" stroke="#00F" stroke-miterlimit="10" stroke-width=".399" d="M127.504 18.875h99.629"/></g><g clip-path="url(#w)"><path fill="none" stroke="#00F" stroke-miterlimit="10" stroke-width=".399" d="M27.879 15.887h99.625"/></g><g clip-path="url(#x)"><path fill="none" stroke="#00F" stroke-miterlimit="10" stroke-width=".399" d="M127.504 15.887h99.629"/></g><g clip-path="url(#y)"><path fill="none" stroke="#00F" stroke-miterlimit="10" stroke-width=".399" d="M27.879 12.898h99.625"/></g><g clip-path="url(#z)"><path fill="none" stroke="#00F" stroke-miterlimit="10" stroke-width=".399" d="M127.504 12.898h99.629"/></g><g clip-path="url(#A)"><path fill="none" stroke="red" stroke-miterlimit="10" stroke-width=".399" d="M127.504 30.832h99.629"/></g><g clip-path="url(#B)"><path fill="none" stroke="red" stroke-miterlimit="10" stroke-width=".399" d="M127.504 27.844h99.629"/></g><g clip-path="url(#C)"><path fill="none" stroke="red" stroke-miterlimit="10" stroke-width=".399" d="M127.504 24.855h99.629"/></g><g clip-path="url(#D)"><path fill="none" stroke="red" stroke-miterlimit="10" stroke-width=".399" d="M127.504 21.863h99.629"/></g><g clip-path="url(#E)"><path fill="none" stroke="red" stroke-miterlimit="10" stroke-width=".399" d="M127.504 18.875h99.629"/></g><g clip-path="url(#F)"><path fill="none" stroke="red" stroke-miterlimit="10" stroke-width=".399" d="M127.504 15.887h99.629"/></g><g clip-path="url(#G)"><path fill="none" stroke="red" stroke-miterlimit="10" stroke-width=".399" d="M127.504 12.898h99.629"/></g></svg>