<svg xmlns="http://www.w3.org/2000/svg" width="89.864" height="63.434"><defs><clipPath id="a"><path d="M0 0h89.797v63.152H0Zm0 0"/></clipPath><clipPath id="b"><path d="M0 51h11v12.152H0Zm0 0"/></clipPath><clipPath id="c"><path d="M0 52h12v11.152H0Zm0 0"/></clipPath><clipPath id="d"><path d="M77 14h12.797v13H77Zm0 0"/></clipPath><clipPath id="e"><path d="M79 11h10.797v18H79Zm0 0"/></clipPath></defs><path fill="none" stroke="#7F7F7F" stroke-miterlimit="10" stroke-width=".199" d="M3.547 59.531H88.59M3.547 31.184H88.59M3.547 2.848H88.59M3.547 59.53V2.836M31.895 59.53V2.836M60.242 59.53V2.836M88.578 59.53V2.836"/><g clip-path="url(#a)"><path fill="none" stroke="#000" stroke-miterlimit="10" stroke-width=".399" d="M3.547 59.531 88.59 31.184c0-15.657-19.04-28.348-42.524-28.348-23.48 0-42.52 12.691-42.52 28.348"/></g><g clip-path="url(#b)"><path fill="none" stroke="#000" stroke-miterlimit="10" stroke-width=".399" d="m2.29 62.05 2.519-5.042"/></g><g clip-path="url(#c)"><path fill="none" stroke="#000" stroke-miterlimit="10" stroke-width=".399" d="m6.066 60.79-5.039-2.52"/></g><path fill="none" stroke="#000" stroke-miterlimit="10" stroke-width=".399" d="m21.457 55.66 2.52-5.039M25.238 54.402 20.2 51.88M40.629 49.27l2.52-5.04M44.406 48.012l-5.039-2.52M59.797 42.883l2.52-5.043M63.578 41.621l-5.043-2.52M78.965 36.492l2.523-5.043M82.746 35.23l-5.039-2.52"/><g clip-path="url(#d)"><path fill="none" stroke="#000" stroke-miterlimit="10" stroke-width=".399" d="m88.129 21.02-5.484-1.29"/></g><g clip-path="url(#e)"><path fill="none" stroke="#000" stroke-miterlimit="10" stroke-width=".399" d="m86.031 17.633-1.289 5.484"/></g><path fill="none" stroke="#000" stroke-miterlimit="10" stroke-width=".399" d="m72.621 6.75-5.277 1.98M68.992 5.102l1.98 5.277M52.574 1.133l-4.25 3.703M48.598.863 52.3 5.11M31.832 2.383l-2.836 4.87M27.98 3.402l4.872 2.836M12.707 10.98l-.434 5.618M9.684 13.57l5.617.434"/></svg>