<svg xmlns="http://www.w3.org/2000/svg" xmlns:xlink="http://www.w3.org/1999/xlink" width="87.838" height="167.24"><defs><path id="a" d="M3.89-3.734c-.265.015-.468.234-.468.453 0 .14.094.297.312.297.22 0 .454-.172.454-.563 0-.453-.422-.86-1.188-.86-1.312 0-1.687 1.016-1.687 1.454 0 .781.734.922 1.03.984.516.11 1.032.219 1.032.766 0 .25-.219 1.094-1.422 1.094-.14 0-.906 0-1.14-.532.39.047.64-.25.64-.53 0-.22-.172-.345-.375-.345-.266 0-.562.204-.562.657 0 .562.578.968 1.422.968 1.625 0 2.015-1.203 2.015-1.656a.97.97 0 0 0-.312-.719c-.266-.28-.563-.343-1-.421-.36-.079-.75-.157-.75-.61 0-.281.234-.89 1.109-.89.25 0 .75.078.89.453m0 0"/><path id="b" d="M6.734-5.922c.11-.047.188-.094.188-.219a.197.197 0 0 0-.203-.203c-.047 0-.14.047-.172.063L1.03-3.671c-.172.077-.203.14-.203.218 0 .094.063.156.203.219L6.547-.641c.125.079.14.079.172.079.11 0 .203-.094.203-.204 0-.093-.047-.156-.219-.234L1.5-3.453ZM6.563 1.36c.171 0 .359 0 .359-.187 0-.203-.219-.203-.36-.203H1.189c-.157 0-.36 0-.36.203 0 .187.172.187.344.187Zm0 0"/><path id="c" d="M2.89-3.516c.813-.265 1.391-.953 1.391-1.75 0-.812-.875-1.375-1.828-1.375-1 0-1.765.594-1.765 1.36 0 .328.218.515.515.515s.5-.218.5-.515c0-.485-.469-.485-.61-.485.298-.5.954-.625 1.313-.625.422 0 .969.22.969 1.11 0 .125-.031.703-.281 1.14-.297.485-.64.516-.89.516a3 3 0 0 1-.392.031c-.078.016-.14.031-.14.125 0 .11.062.11.234.11h.438c.812 0 1.187.672 1.187 1.656 0 1.36-.687 1.64-1.125 1.64S1.22-.233.875-.812c.344.047.656-.171.656-.546a.537.537 0 0 0-.547-.563c-.25 0-.562.14-.562.578C.422-.437 1.344.22 2.437.22c1.22 0 2.126-.906 2.126-1.922 0-.813-.641-1.594-1.672-1.813m0 0"/><path id="e" d="M5.156-2.219h-.468c-.032.203-.125.844-.266.906-.11.063-.86.063-1.016.063H1.937c.47-.39 1-.812 1.438-1.14 1.14-.844 1.781-1.313 1.781-2.25 0-1.157-1.047-1.891-2.437-1.891-1.219 0-2.156.625-2.156 1.515 0 .594.484.735.718.735C1.61-4.281 2-4.5 2-5c0-.516-.422-.672-.562-.719.28-.234.671-.343 1.03-.343.845 0 1.313.671 1.313 1.421 0 .688-.375 1.375-1.078 2.079l-2 2.046c-.14.11-.14.141-.14.344V0h4.28Zm0 0"/><clipPath id="d"><path d="M24 137h40v29.86H24Zm0 0"/></clipPath></defs><path fill="#CCF" stroke="#7F7FFF" stroke-miterlimit="10" stroke-width=".797" d="M52.344 9.54a8.506 8.506 0 0 0-8.504-8.505 8.504 8.504 0 1 0 0 17.008 8.503 8.503 0 0 0 8.504-8.504Zm0 0"/><path d="M46.05 9.54a2.214 2.214 0 0 0-4.425 0 2.212 2.212 0 0 0 4.426 0m0 0"/><path fill="#CCF" stroke="#7F7FFF" stroke-miterlimit="10" stroke-width=".797" d="M52.344 46.39a8.506 8.506 0 0 0-8.504-8.503c-4.7 0-8.508 3.808-8.508 8.504s3.809 8.504 8.508 8.504a8.506 8.506 0 0 0 8.504-8.504ZM52.344 83.242a8.506 8.506 0 0 0-8.504-8.504c-4.7 0-8.508 3.809-8.508 8.504s3.809 8.504 8.508 8.504a8.506 8.506 0 0 0 8.504-8.504Zm0 0"/><use xlink:href="#a" x="32.371" y="69.465" fill="red"/><use xlink:href="#b" x="39.808" y="69.465" fill="red"/><use xlink:href="#c" x="50.324" y="69.465" fill="red"/><path fill="#CCF" stroke="#7F7FFF" stroke-miterlimit="10" stroke-width=".797" d="M52.344 120.094c0-4.7-3.809-8.504-8.504-8.504a8.504 8.504 0 1 0 0 17.008 8.506 8.506 0 0 0 8.504-8.504Zm0 0"/><path fill="#CCF" d="M52.344 156.945c0-4.699-3.809-8.504-8.504-8.504a8.504 8.504 0 1 0 0 17.008 8.506 8.506 0 0 0 8.504-8.504m0 0"/><g clip-path="url(#d)"><path fill="none" stroke="#7F7FFF" stroke-miterlimit="10" stroke-width=".797" d="M52.344 156.945c0-4.699-3.809-8.504-8.504-8.504a8.504 8.504 0 1 0 0 17.008 8.506 8.506 0 0 0 8.504-8.504Zm0 0"/></g><path d="M46.05 156.945a2.215 2.215 0 0 0-2.21-2.215 2.216 2.216 0 0 0-2.215 2.215 2.214 2.214 0 0 0 4.426 0m0 0"/><path fill="#CCC" stroke="#7F7F7F" stroke-miterlimit="10" stroke-width=".797" d="M1.316 52.059h11.34V40.723H1.316Zm0 0"/><path fill="none" stroke="#000" stroke-miterlimit="10" stroke-width=".399" d="M7.04 36.633C8.147 22.066 19.964 10.262 34.933 9.539"/><path stroke="#000" stroke-linejoin="round" stroke-miterlimit="10" stroke-width=".39898803000000005" d="m6.96 39.129 1.466-3.527-1.383 1.128-1.309-1.214Zm0 0"/><path fill="none" stroke="#000" stroke-miterlimit="10" stroke-width=".399" d="M6.988 52.457C6.266 67.43 16.875 80.328 31.27 82.836"/><path stroke="#000" stroke-linejoin="round" stroke-miterlimit="10" stroke-width=".39898005000000003" d="m33.742 83.152-3.367-1.797.992 1.485-1.34 1.183Zm0 0"/><path fill="none" stroke="#000" stroke-miterlimit="10" stroke-width=".399" d="M13.055 46.39h18.187"/><path stroke="#000" stroke-linejoin="round" stroke-miterlimit="10" stroke-width=".399" d="m33.738 46.39-3.57-1.343 1.176 1.344-1.176 1.347Zm0 0"/><path fill="#CCC" stroke="#7F7F7F" stroke-miterlimit="10" stroke-width=".797" d="M1.316 125.762h11.34v-11.34H1.316Zm0 0"/><path fill="none" stroke="#000" stroke-miterlimit="10" stroke-width=".399" d="M7.04 129.848c1.108 14.57 12.925 26.375 27.894 27.097"/><path stroke="#000" stroke-linejoin="round" stroke-miterlimit="10" stroke-width=".39898803000000005" d="m6.96 127.355-1.226 3.614 1.309-1.219 1.383 1.129Zm0 0"/><path fill="none" stroke="#000" stroke-miterlimit="10" stroke-width=".399" d="M6.988 114.023c-.722-14.972 9.887-27.867 24.282-30.375"/><path stroke="#000" stroke-linejoin="round" stroke-miterlimit="10" stroke-width=".39898005000000003" d="m33.742 83.332-3.715-.871 1.34 1.18-.992 1.488Zm0 0"/><path fill="none" stroke="#000" stroke-miterlimit="10" stroke-width=".399" d="M13.055 120.094h18.187"/><path stroke="#000" stroke-linejoin="round" stroke-miterlimit="10" stroke-width=".399" d="m33.738 120.094-3.57-1.348 1.176 1.348-1.176 1.344Zm0 0"/><path fill="#CCC" stroke="#7F7F7F" stroke-miterlimit="10" stroke-width=".797" d="M75.02 52.059h11.34V40.723H75.02Zm0 0"/><path fill="none" stroke="#000" stroke-miterlimit="10" stroke-width=".399" d="M70.93 46.39H52.742"/><path stroke="#000" stroke-linejoin="round" stroke-miterlimit="10" stroke-width=".399" d="m73.426 46.39-3.57-1.343 1.171 1.344-1.172 1.347Zm0 0"/><path fill="none" stroke="#000" stroke-miterlimit="10" stroke-width=".399" d="M80.637 56.148c-1.11 14.57-12.922 26.372-27.895 27.094"/><path stroke="#000" stroke-linejoin="round" stroke-miterlimit="10" stroke-width=".39898803000000005" d="M80.715 53.652 79.25 57.18l1.383-1.13 1.308 1.22Zm0 0"/><path fill="none" stroke="#000" stroke-miterlimit="10" stroke-width=".399" d="M80.688 40.324c.722-14.972-9.887-27.87-24.282-30.379"/><path stroke="#000" stroke-linejoin="round" stroke-miterlimit="10" stroke-width=".39898005000000003" d="m53.934 9.629 3.367 1.797-.992-1.485 1.34-1.183Zm0 0"/><use xlink:href="#e" x="76.61" y="15.624"/><path fill="#CCC" stroke="#7F7F7F" stroke-miterlimit="10" stroke-width=".797" d="M75.02 125.762h11.34v-11.34H75.02Zm0 0"/><path fill="none" stroke="#000" stroke-miterlimit="10" stroke-width=".399" d="M70.93 120.094H52.742"/><path stroke="#000" stroke-linejoin="round" stroke-miterlimit="10" stroke-width=".399" d="m73.426 120.094-3.57-1.348 1.171 1.348-1.172 1.344Zm0 0"/><path fill="none" stroke="#000" stroke-miterlimit="10" stroke-width=".399" d="M80.637 110.336c-1.11-14.57-12.922-26.371-27.895-27.094"/><path stroke="#000" stroke-linejoin="round" stroke-miterlimit="10" stroke-width=".39898803000000005" d="m80.715 112.828 1.226-3.613-1.308 1.219-1.383-1.13Zm0 0"/><path fill="none" stroke="#000" stroke-miterlimit="10" stroke-width=".399" d="M80.688 126.16c.722 14.973-9.887 27.871-24.282 30.38"/><path stroke="#000" stroke-linejoin="round" stroke-miterlimit="10" stroke-width=".39898005000000003" d="m53.934 156.852 3.714.875-1.34-1.184.993-1.484Zm0 0"/><use xlink:href="#e" x="76.61" y="157.384"/></svg>