<svg xmlns="http://www.w3.org/2000/svg" xmlns:xlink="http://www.w3.org/1999/xlink" width="105.68" height="184.772"><defs><path id="a" d="M5.25-6.375v-.469c-.344.032-1.187.032-1.578.032-.531 0-1.516 0-1.985-.032v.469h1.407v4.89c0 .188 0 1.235-.985 1.235-.171 0-.5-.031-.812-.172 0 0 .453-.187.453-.719 0-.53-.422-.765-.75-.765-.375 0-.766.25-.766.765 0 .766.782 1.25 1.922 1.25C3.484.11 4.453-.453 4.453-1.5v-4.875Zm0 0"/><path id="b" d="M5.516-.234c0-.235-.125-.235-.266-.235-.61-.015-.61-.14-.61-.375v-2.14c0-.891-.702-1.532-2.187-1.532-.562 0-1.781.047-1.781.922 0 .438.344.625.61.625.312 0 .624-.219.624-.625 0-.297-.187-.469-.218-.5a5 5 0 0 1 .718-.062c.75 0 1.11.422 1.11 1.172v.343c-.72.032-3.25.125-3.25 1.563C.266-.125 1.5.062 2.188.062c.796 0 1.265-.406 1.484-.828 0 .313 0 .766 1.047.766h.468c.204 0 .329 0 .329-.234m-2-1.157c0 .97-.922 1.094-1.172 1.094-.516 0-.906-.344-.906-.797 0-1.062 1.578-1.203 2.078-1.234Zm0 0"/><path id="c" d="M6.125 0v-.469h-.687v-2.578c0-1.047-.532-1.437-1.532-1.437-.953 0-1.484.562-1.75 1.078v-1.078l-1.703.078v.468c.61 0 .688 0 .688.391v3.078H.453V0l1.25-.031L2.953 0v-.469h-.687v-2.078c0-1.094.859-1.578 1.5-1.578.328 0 .547.203.547.969V-.47h-.688V0l1.25-.031Zm0 0"/><path id="d" d="M6.125 0v-.469c-.61 0-.687 0-.687-.39v-3.625l-1.813.078v.468c.61 0 .688 0 .688.391v1.906c0 .813-.516 1.344-1.235 1.344-.781 0-.812-.25-.812-.797v-3.39l-1.813.078v.468c.61 0 .688 0 .688.391v2.328c0 1.063.797 1.282 1.797 1.282.25 0 .968 0 1.421-.782v.782Zm0 0"/><path id="e" d="M4.406-3.672c0-.531-.531-.812-1.062-.812-.688 0-1.094.5-1.313 1.125v-1.125l-1.656.078v.468c.61 0 .688 0 .688.391v3.078H.375V0l1.25-.031C2-.031 2.641-.031 3 0v-.469h-.86v-1.75c0-.687.235-1.906 1.235-1.906 0 0-.187.172-.187.453 0 .406.328.61.609.61.297 0 .61-.204.61-.61m0 0"/><path id="f" d="M5.781-3.953v-.469A13 13 0 0 1 5-4.39l-.906-.03v.468s.468 0 .468.11L4.5-3.72 3.36-1.266 2.093-3.953h.531v-.469l-1.234.031-1.125-.03v.468H.89L2.766 0 2.53.484C2.312.954 2 1.641 1.281 1.641c-.14 0-.156-.016-.234-.047.094-.032.312-.172.312-.532C1.36.734 1.125.5.781.5a.553.553 0 0 0-.562.578c0 .5.469.922 1.062.922.766 0 1.344-.625 1.625-1.187l2.14-4.563c.063-.14.095-.203.735-.203m0 0"/><path id="g" d="M4.922 0v-.469h-1.39v-5.734c0-.234 0-.328-.266-.328-.11 0-.125 0-.22.078-.765.562-1.796.562-2 .562H.845v.47h.203c.156 0 .703-.016 1.297-.204v5.156H.954V0c.437-.031 1.5-.031 1.984-.031s1.546 0 1.984.031m0 0"/><path id="h" d="M5.156-2.219h-.468c-.032.203-.125.844-.266.906-.11.063-.86.063-1.016.063H1.937c.47-.39 1-.812 1.438-1.14 1.14-.844 1.781-1.313 1.781-2.25 0-1.157-1.047-1.891-2.437-1.891-1.219 0-2.156.625-2.156 1.515 0 .594.484.735.718.735C1.61-4.281 2-4.5 2-5c0-.516-.422-.672-.562-.719.28-.234.671-.343 1.03-.343.845 0 1.313.671 1.313 1.421 0 .688-.375 1.375-1.078 2.079l-2 2.046c-.14.11-.14.141-.14.344V0h4.28Zm0 0"/><path id="i" d="M5.25-1.797c0-.547-.297-1.406-1.734-1.719.687-.203 1.406-.765 1.406-1.625 0-.765-.75-1.39-2.156-1.39-1.188 0-1.97.64-1.97 1.437 0 .422.313.703.688.703a.67.67 0 0 0 .704-.687c0-.578-.547-.688-.579-.703.344-.282.782-.36 1.094-.36.828 0 .86.641.86.97 0 .124-.016 1.437-1.047 1.5-.407.015-.438.015-.485.03-.094.016-.125.11-.125.172 0 .172.11.172.282.172h.437c1.094 0 1.094.985 1.094 1.5 0 .469 0 1.485-1.031 1.485-.266 0-.782-.047-1.266-.344C1.75-.75 2-1 2-1.406c0-.453-.312-.75-.75-.75-.422 0-.766.265-.766.765 0 .907.97 1.5 2.25 1.5 1.782 0 2.516-1 2.516-1.906m0 0"/><path id="j" d="M5.406 0v-.469h-.968v-1.094h.968v-.468h-.968V-6.22c0-.265-.016-.328-.297-.328-.22 0-.22.016-.344.172L.313-2.031v.469h2.875V-.47h-1.11V0c.375-.031 1.281-.031 1.703-.031.406 0 1.266 0 1.625.031m-2.11-2.031H.845L3.297-5.11Zm0 0"/><path id="k" d="M5.156-2c0-1.156-.797-2.078-2.265-2.078-.282 0-.813.031-1.282.344v-1.313c.282.047.391.078.72.078 1.452 0 2.374-1.125 2.374-1.375 0-.078-.016-.187-.14-.187-.032 0-.032 0-.141.047a4.3 4.3 0 0 1-1.531.28c-.75 0-1.282-.202-1.547-.28-.094-.032-.094-.047-.125-.047-.14 0-.14.11-.14.265v2.922c0 .172 0 .297.218.297.125 0 .156-.031.219-.11.39-.468.922-.562 1.328-.562.89 0 .89.875.89 1.672 0 .735 0 1.735-1.187 1.735-.25 0-.875-.063-1.297-.625.36-.016.656-.266.656-.672 0-.532-.437-.672-.672-.672-.14 0-.671.094-.671.703 0 .844.78 1.687 2.015 1.687C4.172.11 5.156-.78 5.156-2m0 0"/><path id="l" d="M5.25-2.047c0-1.39-1.016-2.125-2.219-2.125-.219 0-.781 0-1.203.766v-.188c0-1.14.219-1.562.281-1.719.25-.468.782-.828 1.391-.828.172 0 .516.032.75.266a.595.595 0 0 0-.547.61c0 .343.235.624.625.624s.625-.265.625-.64c0-.625-.422-1.25-1.469-1.25-1.359 0-3 .86-3 3.375 0 .781.079 1.578.5 2.265.47.766 1.22 1 1.922 1C4.281.11 5.25-.703 5.25-2.047m-1.36-.015c0 1 0 1.75-1.015 1.75-.516 0-.781-.391-.86-.563-.156-.312-.156-1.031-.156-1.219 0-1.25.532-1.719 1.079-1.719.953 0 .953.75.953 1.75m0 0"/><path id="m" d="M5.563-6.422H3.53c-.234 0-1.703-.047-1.844-.094-.203-.03-.218-.125-.234-.218H.984l-.343 2.53h.468c.094-.765.22-.89.266-.905.11-.063.922-.063 1.094-.063H4.14c-.172.219-.36.422-.547.64-.953 1.126-1.672 2.47-1.672 3.938 0 .703.562.703.625.703.156 0 .625-.046.625-.703v-.468c0-.47.031-.954.094-1.422.093-.672.297-1.25.656-1.657l1.547-1.796c.093-.11.093-.141.093-.485m0 0"/><path id="n" d="M5.25-1.86c0-1.077-.844-1.546-1.328-1.827.687-.36 1-.797 1-1.376 0-1.015-.906-1.468-2.047-1.468-1.375 0-2.078.797-2.078 1.75 0 .437.187 1.062.953 1.5C.922-2.906.484-2.344.484-1.61.484-.406 1.563.109 2.844.109 4.438.11 5.25-.766 5.25-1.859M4.172-5.046c0 .484-.25.813-.688 1.11l-1.5-.844c-.156-.078-.437-.25-.437-.594 0-.703.89-.766 1.297-.766.828 0 1.328.407 1.328 1.094m.219 3.734c0 .829-.938 1-1.516 1-.969 0-1.547-.515-1.547-1.296 0-.766.531-1.203.89-1.407l1.36.766c.438.25.813.453.813.938m0 0"/><path id="o" d="M5.25-3.281c0-.672 0-3.25-2.375-3.25-1.406 0-2.39.812-2.39 2.14 0 1.375.984 2.125 2.203 2.125.359 0 .828-.062 1.203-.765v.219c0 .734-.094 1.312-.235 1.656-.172.39-.61.843-1.297.843-.171 0-.53-.03-.828-.218.11-.031.485-.172.485-.625 0-.344-.235-.625-.625-.625-.391 0-.625.265-.625.64 0 .688.515 1.25 1.609 1.25C3.672.11 5.25-.734 5.25-3.28m-1.375-.985c0 .625-.25 1.641-1.094 1.641-.953 0-.953-.75-.953-1.734 0-.985 0-1.782 1.078-1.782.578 0 .813.532.86.625.109.329.109.907.109 1.25m0 0"/><path id="p" d="M5.281-3.187c0-.954-.015-3.344-2.422-3.344S.453-4.156.453-3.188c0 1 0 3.297 2.406 3.297 2.391 0 2.422-2.296 2.422-3.296M4-3.297c0 .563 0 1.469-.078 1.985-.14.921-.766 1.062-1.063 1.062-.359 0-.921-.219-1.046-.953-.094-.516-.094-1.547-.094-2.094 0-.719 0-1.375.078-1.89.125-.891.828-.985 1.062-.985.375 0 .782.188.97.625C4-5.172 4-4.109 4-3.297m0 0"/><path id="q" d="m6.734-4.375-.312-2.406H.39v.468h1.078v5.844H.39V0c.375-.031 1.39-.031 1.828-.031.484 0 1.562 0 2.015.031v-.469H2.875v-2.687h.5c.969 0 1.047.422 1.047 1.156h.469v-2.797h-.47c0 .734-.077 1.172-1.046 1.172h-.5v-2.687h1.406c1.594 0 1.828.765 1.985 1.937Zm0 0"/><path id="r" d="M4.922-1.172c0-.172-.188-.172-.234-.172-.172 0-.188.047-.25.203-.204.485-.782.797-1.422.797-1.407 0-1.422-1.328-1.422-1.828h3.015c.22 0 .313 0 .313-.265 0-.313-.063-1.047-.563-1.547-.359-.36-.89-.532-1.578-.532C1.187-4.516.313-3.484.313-2.25c0 1.344 1 2.313 2.609 2.313 1.578 0 2-1.063 2-1.235M3.984-2.5h-2.39c.015-.39.031-.812.234-1.14.266-.391.672-.516.953-.516 1.172 0 1.188 1.312 1.203 1.656m0 0"/><path id="s" d="M5.984-2.219c0-1.328-.937-2.265-2.39-2.265-.719 0-1.219.28-1.453.484v-2.922l-1.766.078v.469c.61 0 .688 0 .688.39V0h.468c.157-.187.328-.375.485-.562.078.078.562.625 1.453.625 1.484 0 2.515-.907 2.515-2.282m-1.28 0c0 .469 0 1.016-.25 1.406-.298.407-.75.516-1.079.516-.687 0-1.078-.547-1.187-.687v-2.5c.28-.36.75-.641 1.296-.641 1.22 0 1.22 1.203 1.22 1.906m0 0"/></defs><use xlink:href="#a" x="35.013" y="7.729"/><use xlink:href="#b" x="40.931" y="7.729"/><use xlink:href="#c" x="46.5" y="7.729"/><use xlink:href="#d" x="52.547" y="7.729"/><use xlink:href="#b" x="58.913" y="7.729"/><use xlink:href="#e" x="64.482" y="7.729"/><use xlink:href="#f" x="69.205" y="7.729"/><use xlink:href="#g" x="83.483" y="24.317"/><use xlink:href="#h" x="98.965" y="24.317"/><use xlink:href="#i" x="6.073" y="37.587"/><use xlink:href="#j" x="21.555" y="37.587"/><use xlink:href="#k" x="37.037" y="37.587"/><use xlink:href="#l" x="52.519" y="37.587"/><use xlink:href="#m" x="68.001" y="37.587"/><use xlink:href="#n" x="83.483" y="37.587"/><use xlink:href="#o" x="98.965" y="37.587"/><use xlink:href="#g" x=".345" y="50.857"/><use xlink:href="#p" x="6.074" y="50.857"/><use xlink:href="#g" x="15.826" y="50.857"/><use xlink:href="#g" x="21.555" y="50.857"/><use xlink:href="#g" x="31.308" y="50.857"/><use xlink:href="#h" x="37.037" y="50.857"/><use xlink:href="#g" x="46.79" y="50.857"/><use xlink:href="#i" x="52.519" y="50.857"/><use xlink:href="#g" x="62.272" y="50.857"/><use xlink:href="#j" x="68.001" y="50.857"/><use xlink:href="#g" x="77.754" y="50.857"/><use xlink:href="#k" x="83.483" y="50.857"/><use xlink:href="#g" x="93.236" y="50.857"/><use xlink:href="#l" x="98.965" y="50.857"/><use xlink:href="#g" x=".345" y="64.127"/><use xlink:href="#m" x="6.074" y="64.127"/><use xlink:href="#g" x="15.826" y="64.127"/><use xlink:href="#n" x="21.555" y="64.127"/><use xlink:href="#g" x="31.308" y="64.127"/><use xlink:href="#o" x="37.037" y="64.127"/><use xlink:href="#h" x="46.79" y="64.127"/><use xlink:href="#p" x="52.519" y="64.127"/><use xlink:href="#h" x="62.272" y="64.127"/><use xlink:href="#g" x="68.001" y="64.127"/><use xlink:href="#h" x="77.754" y="64.127"/><use xlink:href="#h" x="83.483" y="64.127"/><use xlink:href="#h" x="93.236" y="64.127"/><use xlink:href="#i" x="98.965" y="64.127"/><use xlink:href="#h" x=".345" y="77.398"/><use xlink:href="#j" x="6.074" y="77.398"/><use xlink:href="#h" x="15.826" y="77.398"/><use xlink:href="#k" x="21.555" y="77.398"/><use xlink:href="#h" x="31.308" y="77.398"/><use xlink:href="#l" x="37.037" y="77.398"/><use xlink:href="#h" x="46.79" y="77.398"/><use xlink:href="#m" x="52.519" y="77.398"/><use xlink:href="#h" x="62.272" y="77.398"/><use xlink:href="#n" x="68.001" y="77.398"/><use xlink:href="#h" x="77.754" y="77.398"/><use xlink:href="#o" x="83.483" y="77.398"/><use xlink:href="#i" x="93.236" y="77.398"/><use xlink:href="#p" x="98.965" y="77.398"/><use xlink:href="#i" x=".345" y="90.668"/><use xlink:href="#g" x="6.074" y="90.668"/><use xlink:href="#q" x="32.482" y="113.891"/><use xlink:href="#r" x="38.739" y="113.891"/><use xlink:href="#s" x="43.989" y="113.891"/><use xlink:href="#e" x="50.355" y="113.891"/><use xlink:href="#d" x="55.077" y="113.891"/><use xlink:href="#b" x="61.443" y="113.891"/><use xlink:href="#e" x="67.013" y="113.891"/><use xlink:href="#f" x="71.735" y="113.891"/><use xlink:href="#g" x="21.555" y="130.479"/><use xlink:href="#h" x="37.037" y="130.479"/><use xlink:href="#i" x="52.519" y="130.479"/><use xlink:href="#j" x="68.001" y="130.479"/><use xlink:href="#k" x="83.483" y="130.479"/><use xlink:href="#l" x="98.965" y="130.479"/><use xlink:href="#m" x="6.073" y="143.749"/><use xlink:href="#n" x="21.555" y="143.749"/><use xlink:href="#o" x="37.037" y="143.749"/><use xlink:href="#g" x="46.79" y="143.749"/><use xlink:href="#p" x="52.519" y="143.749"/><use xlink:href="#g" x="62.272" y="143.749"/><use xlink:href="#g" x="68.001" y="143.749"/><use xlink:href="#g" x="77.754" y="143.749"/><use xlink:href="#h" x="83.483" y="143.749"/><use xlink:href="#g" x="93.236" y="143.749"/><use xlink:href="#i" x="98.965" y="143.749"/><use xlink:href="#g" x=".345" y="157.019"/><use xlink:href="#j" x="6.074" y="157.019"/><use xlink:href="#g" x="15.826" y="157.019"/><use xlink:href="#k" x="21.555" y="157.019"/><use xlink:href="#g" x="31.308" y="157.019"/><use xlink:href="#l" x="37.037" y="157.019"/><use xlink:href="#g" x="46.79" y="157.019"/><use xlink:href="#m" x="52.519" y="157.019"/><use xlink:href="#g" x="62.272" y="157.019"/><use xlink:href="#n" x="68.001" y="157.019"/><use xlink:href="#g" x="77.754" y="157.019"/><use xlink:href="#o" x="83.483" y="157.019"/><use xlink:href="#h" x="93.236" y="157.019"/><use xlink:href="#p" x="98.965" y="157.019"/><use xlink:href="#h" x=".345" y="170.289"/><use xlink:href="#g" x="6.074" y="170.289"/><use xlink:href="#h" x="15.826" y="170.289"/><use xlink:href="#h" x="21.555" y="170.289"/><use xlink:href="#h" x="31.308" y="170.289"/><use xlink:href="#i" x="37.037" y="170.289"/><use xlink:href="#h" x="46.79" y="170.289"/><use xlink:href="#j" x="52.519" y="170.289"/><use xlink:href="#h" x="62.272" y="170.289"/><use xlink:href="#k" x="68.001" y="170.289"/><use xlink:href="#h" x="77.754" y="170.289"/><use xlink:href="#l" x="83.483" y="170.289"/><use xlink:href="#h" x="93.236" y="170.289"/><use xlink:href="#m" x="98.965" y="170.289"/><use xlink:href="#h" x=".345" y="183.56"/><use xlink:href="#n" x="6.074" y="183.56"/><use xlink:href="#h" x="15.826" y="183.56"/><use xlink:href="#o" x="21.555" y="183.56"/></svg>