<?xml version="1.0" encoding="UTF-8"?>
<svg xmlns="http://www.w3.org/2000/svg" xmlns:xlink="http://www.w3.org/1999/xlink" width="59.517pt" height="91.298pt" viewBox="0 0 59.517 91.298" version="1.2">
<defs>
<clipPath id="clip1">
  <path d="M 0 0 L 59.277344 0 L 59.277344 90.945312 L 0 90.945312 Z M 0 0 "/>
</clipPath>
</defs>
<g id="surface1">
<g clip-path="url(#clip1)" clip-rule="nonzero">
<path style="fill:none;stroke-width:0.79701;stroke-linecap:butt;stroke-linejoin:miter;stroke:rgb(0%,0%,0%);stroke-opacity:1;stroke-miterlimit:10;" d="M 0.00128125 0.00184375 L 0.00128125 48.7245 C 0.00128125 53.126844 2.227844 59.478406 4.977844 62.915906 L 23.368469 85.904188 C 26.118469 89.341688 30.5755 89.341688 33.3255 85.904188 L 51.716125 62.915906 C 54.466125 59.478406 56.692688 53.126844 56.692688 48.7245 L 56.692688 7.970594 C 56.692688 3.56825 54.16925 2.521375 51.055969 5.634656 L 5.634094 51.056531 C 2.524719 54.169813 3.567688 56.69325 7.970031 56.69325 L 48.723938 56.69325 C 53.126281 56.69325 54.16925 54.169813 51.055969 51.056531 L 5.634094 5.634656 C 2.524719 2.521375 3.567688 0.00184375 7.970031 0.00184375 L 56.692688 0.00184375 " transform="matrix(1,0,0,-1,1.1745,89.537)"/>
</g>
</g>
</svg>
