<svg xmlns="http://www.w3.org/2000/svg" xmlns:xlink="http://www.w3.org/1999/xlink" width="34.283" height="76.484"><defs><path id="b" d="M4.406-3.672c0-.531-.531-.812-1.062-.812-.688 0-1.094.5-1.313 1.125v-1.125l-1.656.078v.468c.61 0 .688 0 .688.391v3.078H.375V0l1.25-.031C2-.031 2.641-.031 3 0v-.469h-.86v-1.75c0-.687.235-1.906 1.235-1.906 0 0-.187.172-.187.453 0 .406.328.61.609.61.297 0 .61-.204.61-.61m0 0"/><path id="c" d="M5.516-.234c0-.235-.125-.235-.266-.235-.61-.015-.61-.14-.61-.375v-2.14c0-.891-.702-1.532-2.187-1.532-.562 0-1.781.047-1.781.922 0 .438.344.625.61.625.312 0 .624-.219.624-.625 0-.297-.187-.469-.218-.5a5 5 0 0 1 .718-.062c.75 0 1.11.422 1.11 1.172v.343c-.72.032-3.25.125-3.25 1.563C.266-.125 1.5.062 2.188.062c.796 0 1.265-.406 1.484-.828 0 .313 0 .766 1.047.766h.468c.204 0 .329 0 .329-.234m-2-1.157c0 .97-.922 1.094-1.172 1.094-.516 0-.906-.344-.906-.797 0-1.062 1.578-1.203 2.078-1.234Zm0 0"/><path id="e" d="M5.984-2.219c0-1.328-.937-2.265-2.39-2.265-.719 0-1.219.28-1.453.484v-2.922l-1.766.078v.469c.61 0 .688 0 .688.39V0h.468c.157-.187.328-.375.485-.562.078.078.562.625 1.453.625 1.484 0 2.515-.907 2.515-2.282m-1.28 0c0 .469 0 1.016-.25 1.406-.298.407-.75.516-1.079.516-.687 0-1.078-.547-1.187-.687v-2.5c.28-.36.75-.641 1.296-.641 1.22 0 1.22 1.203 1.22 1.906m0 0"/><clipPath id="a"><path d="M9 0h24.926v23H9Zm0 0"/></clipPath><clipPath id="d"><path d="M8 50h25.926v26.227H8Zm0 0"/></clipPath></defs><path fill="none" stroke="#000" stroke-miterlimit="10" stroke-width=".399" d="m12.906 44.828 5.906 11.809"/><path fill="none" stroke="#000" stroke-linecap="round" stroke-linejoin="round" stroke-miterlimit="10" stroke-width=".39896808000000006" d="M20.113 53.895c-1.113.98-1.343 2.039-1.21 2.921-.633-.636-1.614-1.086-3.067-.785"/><path fill="none" stroke="#000" stroke-miterlimit="10" stroke-width=".399" d="M19.648 16.195 13.086 29.32"/><path fill="none" stroke="#000" stroke-linecap="round" stroke-linejoin="round" stroke-miterlimit="10" stroke-width=".39897606" d="M16.063 28.715c-1.454-.3-2.438.148-3.067.785.129-.887-.098-1.941-1.21-2.922"/><g clip-path="url(#a)"><path fill="none" stroke="#000" stroke-miterlimit="10" stroke-width=".399" d="M31.242 8.906c0-4.39-3.558-7.949-7.949-7.949a7.95 7.95 0 0 0-7.95 7.95c0 4.39 3.56 7.948 7.95 7.948s7.95-3.558 7.95-7.949Zm0 0"/></g><use xlink:href="#b" x="20.931" y="11.149"/><path fill="none" stroke="#000" stroke-miterlimit="10" stroke-width=".399" d="M17.39 37.254a8.27 8.27 0 1 0-16.54.002 8.27 8.27 0 0 0 16.54-.002Zm0 0"/><use xlink:href="#c" x="6.335" y="39.48"/><g clip-path="url(#d)"><path fill="none" stroke="#000" stroke-miterlimit="10" stroke-width=".399" d="M32.71 65.602c0-5.204-4.214-9.422-9.417-9.422a9.42 9.42 0 0 0-9.422 9.422c0 5.199 4.219 9.418 9.422 9.418s9.418-4.22 9.418-9.418Zm0 0"/></g><use xlink:href="#e" x="20.11" y="69.027"/></svg>