<svg xmlns="http://www.w3.org/2000/svg" width="77.15" height="77.15"><path fill="none" stroke="#000" stroke-miterlimit="10" stroke-width=".399" d="M.793.793h4.98v4.98H.793v9.961h4.98v-4.98h4.98v4.98h4.981v-9.96h-4.98V.792h9.965v4.98h4.98V.793h9.961v4.98h-4.98v4.98h4.98v4.981H25.7v-4.98h-4.981v14.945h4.98v-4.98h9.961v4.98h-4.98v4.98h4.98v4.981H25.7v-4.98h-4.981v4.98h-9.965v-4.98h4.98v-9.961h-4.98v4.98h-4.98v-4.98H.792v9.96h4.98v4.981H.793v9.965h4.98v-4.98h9.961v4.98h-4.98v4.98h4.98v4.98h-9.96v-4.98H.792v9.965h4.98v4.98H.793v9.962h4.98v-4.98h4.98v4.98h4.981V65.55h-4.98v-4.98h14.945v4.98h-4.98v9.96h4.98v-4.98h4.98v4.98h4.981v-9.96h-4.98v-4.98h4.98v-9.966h-4.98v4.98h-9.961v-4.98h4.98v-4.98h-4.98v-4.98h9.96v4.98h4.981v-4.98h4.985v4.98h4.98v-4.98h9.96v4.98h-4.98v4.98h4.98v4.98h-9.96v-4.98h-4.98v9.965h4.98v4.98h-4.98v9.962h4.98v-4.98h4.98v4.98h4.98V65.55h-4.98v-4.98h14.946v4.98h-4.98v9.96h4.98v-4.98h4.98v4.98h4.98v-9.96h-4.98v-4.98h4.98v-9.966h-4.98v4.98h-9.96v-4.98h4.98v-4.98h-4.98v-4.98h9.96v4.98h4.98V35.66h-4.98v-4.98h4.98v-9.961h-4.98v4.98h-4.98v-4.98h-4.98v9.96h4.98v4.981h-9.965v-4.98h-4.98v4.98h-9.961v-4.98h4.98V25.7h-4.98v-4.981h9.96v4.98h4.98V10.754h-4.98v4.98h-9.96v-4.98h4.98v-4.98h-4.98V.792h9.96v4.98h4.98V.793h9.966v4.98h-4.98v9.961h4.98v-4.98h4.98v4.98h4.98v-9.96h-4.98V.792h4.98"/></svg>