<svg xmlns="http://www.w3.org/2000/svg" xmlns:xlink="http://www.w3.org/1999/xlink" width="115.202" height="94.664"><defs><path id="a" d="M5.516-.234c0-.235-.125-.235-.266-.235-.61-.015-.61-.14-.61-.375v-2.14c0-.891-.702-1.532-2.187-1.532-.562 0-1.781.047-1.781.922 0 .438.344.625.61.625.312 0 .624-.219.624-.625 0-.297-.187-.469-.218-.5a5 5 0 0 1 .718-.062c.75 0 1.11.422 1.11 1.172v.343c-.72.032-3.25.125-3.25 1.563C.266-.125 1.5.062 2.188.062c.796 0 1.265-.406 1.484-.828 0 .313 0 .766 1.047.766h.468c.204 0 .329 0 .329-.234m-2-1.157c0 .97-.922 1.094-1.172 1.094-.516 0-.906-.344-.906-.797 0-1.062 1.578-1.203 2.078-1.234Zm0 0"/><path id="b" d="M5.984-2.219c0-1.328-.937-2.265-2.39-2.265-.719 0-1.219.28-1.453.484v-2.922l-1.766.078v.469c.61 0 .688 0 .688.39V0h.468c.157-.187.328-.375.485-.562.078.078.562.625 1.453.625 1.484 0 2.515-.907 2.515-2.282m-1.28 0c0 .469 0 1.016-.25 1.406-.298.407-.75.516-1.079.516-.687 0-1.078-.547-1.187-.687v-2.5c.28-.36.75-.641 1.296-.641 1.22 0 1.22 1.203 1.22 1.906m0 0"/><path id="c" d="M4.766-1.172c0-.14-.141-.14-.235-.14-.187 0-.187.03-.25.156-.25.625-.734.812-1.234.812-1.39 0-1.39-1.453-1.39-1.922 0-.562 0-1.843 1.28-1.843.36 0 .516.015.657.046a.62.62 0 0 0-.203.47c0 .437.343.624.609.624.313 0 .64-.219.64-.625 0-.86-1.156-.922-1.734-.922C1.11-4.516.375-3.375.375-2.219.375-.89 1.313.063 2.844.063c1.625 0 1.922-1.157 1.922-1.235m0 0"/><path id="d" d="M5.984 0v-.469c-.609 0-.687 0-.687-.39v-6.063l-1.766.078v.469c.625 0 .703 0 .703.39v1.954a2.18 2.18 0 0 0-1.359-.453c-1.453 0-2.5.875-2.5 2.28 0 1.313.922 2.267 2.39 2.267.61 0 1.094-.235 1.407-.485v.485ZM4.172-1.031c-.14.187-.547.734-1.297.734-1.219 0-1.219-1.203-1.219-1.906 0-.485 0-1.016.25-1.406.297-.422.766-.516 1.078-.516.563 0 .97.313 1.188.61Zm0 0"/><path id="e" d="M4.922-1.172c0-.172-.188-.172-.234-.172-.172 0-.188.047-.25.203-.204.485-.782.797-1.422.797-1.407 0-1.422-1.328-1.422-1.828h3.015c.22 0 .313 0 .313-.265 0-.313-.063-1.047-.563-1.547-.359-.36-.89-.532-1.578-.532C1.187-4.516.313-3.484.313-2.25c0 1.344 1 2.313 2.609 2.313 1.578 0 2-1.063 2-1.235M3.984-2.5h-2.39c.015-.39.031-.812.234-1.14.266-.391.672-.516.953-.516 1.172 0 1.188 1.312 1.203 1.656m0 0"/><path id="f" d="M4.36-6.11c0-.421-.36-.874-1.141-.874-.969 0-2.047.422-2.047 1.547v1.015h-.75v.469h.75V-.47H.484V0l1.25-.031c.375 0 1.016 0 1.375.031v-.469H2.25v-3.484h1.14v-.469H2.188v-1.016c0-1.093.75-1.187 1-1.187.047 0 .11 0 .172.031a.59.59 0 0 0-.234.485c0 .422.36.609.61.609.296 0 .624-.203.624-.61m0 0"/><path id="g" d="M5.563-3.953c0-.235-.172-.578-.625-.578-.157 0-.625.031-1.063.375-.172-.125-.594-.328-1.328-.328-1.438 0-1.985.78-1.985 1.468 0 .407.188.829.516 1.047-.281.36-.344.688-.344.89 0 .157.047.642.438.954-.125.031-.86.25-.86.875C.313 1.25.876 2 2.86 2 4.625 2 5.406 1.422 5.406.719c0-.297-.078-.922-.75-1.266-.562-.281-1.156-.281-2.11-.281-.265 0-.718 0-.765-.016a.625.625 0 0 1-.562-.625c0-.093.047-.25.11-.328.452.234.968.266 1.218.266 1.437 0 1.984-.782 1.984-1.485 0-.468-.25-.796-.406-.953.297-.156.516-.172.625-.187a.43.43 0 0 0-.047.203c0 .25.172.422.438.422a.41.41 0 0 0 .422-.422m-2.141.937c0 .454 0 1.125-.875 1.125s-.875-.671-.875-1.125c0-.437 0-1.109.875-1.109s.875.672.875 1.11M4.547.75c0 .36-.39.89-1.688.89-1.187 0-1.687-.452-1.687-.906 0-.609.625-.609.766-.609h1.171c.313 0 1.438 0 1.438.625m0 0"/><path id="h" d="M6.125 0v-.469h-.687v-2.578c0-1.047-.532-1.437-1.532-1.437a1.9 1.9 0 0 0-1.687.953v-3.39l-1.766.077v.469c.61 0 .688 0 .688.39v5.516H.453V0l1.25-.031L2.953 0v-.469h-.687v-2.078c0-1.094.859-1.578 1.5-1.578.328 0 .547.203.547.969V-.47h-.688V0l1.25-.031Zm0 0"/><path id="i" d="M2.922 0v-.469h-.688v-6.453L.47-6.844v.469c.625 0 .687 0 .687.39v5.516H.47V0l1.219-.031Zm0 0"/><path id="j" d="M3.813-1.234v-.532h-.47v.516c0 .672-.327.906-.609.906-.578 0-.578-.64-.578-.86v-2.75h1.469v-.468H2.156v-1.906h-.469c0 1-.484 1.984-1.484 2.016v.359h.828v2.734c0 1.063.86 1.282 1.578 1.282.75 0 1.204-.579 1.204-1.297m0 0"/></defs><path fill="none" stroke="#000" stroke-miterlimit="10" stroke-width=".399" d="m36.492 40.352-7.59 15.18"/><path fill="none" stroke="#000" stroke-linecap="round" stroke-linejoin="round" stroke-miterlimit="10" stroke-width=".39896808000000006" d="M31.879 54.926c-1.45-.305-2.434.148-3.063.781.13-.883-.097-1.941-1.214-2.922"/><path fill="none" stroke="#000" stroke-miterlimit="10" stroke-width=".399" d="m43.5 40.352 6.988 13.976"/><path fill="none" stroke="#000" stroke-linecap="round" stroke-linejoin="round" stroke-miterlimit="10" stroke-width=".39896808000000006" d="M51.79 51.586c-1.114.98-1.345 2.035-1.212 2.922-.629-.637-1.613-1.086-3.066-.785"/><path fill="none" stroke="#000" stroke-miterlimit="10" stroke-width=".399" d="M110.863 68.48v14.184"/><path fill="none" stroke="#000" stroke-linecap="round" stroke-linejoin="round" stroke-miterlimit="10" stroke-width=".399" d="M113.254 80.793c-1.434.375-2.113 1.219-2.39 2.07-.278-.851-.958-1.695-2.391-2.07"/><path fill="none" stroke="#000" stroke-miterlimit="10" stroke-width=".399" d="M93.785 39.152 86.2 54.328"/><path fill="none" stroke="#000" stroke-linecap="round" stroke-linejoin="round" stroke-miterlimit="10" stroke-width=".39896808000000006" d="M89.176 53.723c-1.453-.301-2.438.148-3.067.785.13-.887-.097-1.942-1.21-2.922"/><path fill="none" stroke="#000" stroke-miterlimit="10" stroke-width=".399" d="m99.594 39.152 7.699 15.395"/><path fill="none" stroke="#000" stroke-linecap="round" stroke-linejoin="round" stroke-miterlimit="10" stroke-width=".39896808000000006" d="M108.594 51.805c-1.117.98-1.344 2.039-1.215 2.922-.629-.637-1.61-1.086-3.063-.786"/><path fill="none" stroke="#000" stroke-miterlimit="10" stroke-width=".399" d="M62.535 10.805 46.98 26.359"/><path fill="none" stroke="#000" stroke-linecap="round" stroke-linejoin="round" stroke-miterlimit="10" stroke-width=".39899601" d="M49.996 26.727c-1.281-.747-2.36-.63-3.156-.223.402-.8.52-1.875-.227-3.156"/><path fill="none" stroke="#000" stroke-miterlimit="10" stroke-width=".399" d="m74.148 10.805 16.454 16.453"/><path fill="none" stroke="#000" stroke-linecap="round" stroke-linejoin="round" stroke-miterlimit="10" stroke-width=".39899601" d="M90.969 24.242c-.746 1.281-.63 2.36-.227 3.156-.797-.402-1.875-.52-3.156.227"/><use xlink:href="#a" x="65.558" y="7.226"/><use xlink:href="#b" x="36.814" y="36.773"/><use xlink:href="#c" x="23.278" y="63.918"/><use xlink:href="#d" x="50.987" y="65.119"/><use xlink:href="#e" x="94.064" y="35.572"/><use xlink:href="#f" x="80.768" y="65.179"/><use xlink:href="#g" x="107.998" y="62.957"/><use xlink:href="#h" x="107.68" y="93.495"/><path fill="none" stroke="#000" stroke-miterlimit="10" stroke-width=".399" d="M79.813 40.547c0-21.817-17.684-39.5-39.497-39.5-21.816 0-39.5 17.683-39.5 39.5 0 21.812 17.684 39.496 39.5 39.496 21.813 0 39.497-17.684 39.497-39.496Zm0 0"/><use xlink:href="#i" x="32.126" y="20.76"/><use xlink:href="#e" x="35.304" y="20.76"/><use xlink:href="#f" x="40.554" y="20.76"/><use xlink:href="#j" x="44.051" y="20.76"/></svg>