<svg xmlns="http://www.w3.org/2000/svg" xmlns:xlink="http://www.w3.org/1999/xlink" width="72.978" height="72.471"><defs><path id="a" d="M5.25-1.797c0-.547-.297-1.406-1.734-1.719.687-.203 1.406-.765 1.406-1.625 0-.765-.75-1.39-2.156-1.39-1.188 0-1.97.64-1.97 1.437 0 .422.313.703.688.703a.67.67 0 0 0 .704-.687c0-.578-.547-.688-.579-.703.344-.282.782-.36 1.094-.36.828 0 .86.641.86.97 0 .124-.016 1.437-1.047 1.5-.407.015-.438.015-.485.03-.094.016-.125.11-.125.172 0 .172.11.172.282.172h.437c1.094 0 1.094.985 1.094 1.5 0 .469 0 1.485-1.031 1.485-.266 0-.782-.047-1.266-.344C1.75-.75 2-1 2-1.406c0-.453-.312-.75-.75-.75-.422 0-.766.265-.766.765 0 .907.97 1.5 2.25 1.5 1.782 0 2.516-1 2.516-1.906m0 0"/><path id="b" d="M5.156-2c0-1.156-.797-2.078-2.265-2.078-.282 0-.813.031-1.282.344v-1.313c.282.047.391.078.72.078 1.452 0 2.374-1.125 2.374-1.375 0-.078-.016-.187-.14-.187-.032 0-.032 0-.141.047a4.3 4.3 0 0 1-1.531.28c-.75 0-1.282-.202-1.547-.28-.094-.032-.094-.047-.125-.047-.14 0-.14.11-.14.265v2.922c0 .172 0 .297.218.297.125 0 .156-.031.219-.11.39-.468.922-.562 1.328-.562.89 0 .89.875.89 1.672 0 .735 0 1.735-1.187 1.735-.25 0-.875-.063-1.297-.625.36-.016.656-.266.656-.672 0-.532-.437-.672-.672-.672-.14 0-.671.094-.671.703 0 .844.78 1.687 2.015 1.687C4.172.11 5.156-.78 5.156-2m0 0"/><path id="c" d="M5.25-1.86c0-1.077-.844-1.546-1.328-1.827.687-.36 1-.797 1-1.376 0-1.015-.906-1.468-2.047-1.468-1.375 0-2.078.797-2.078 1.75 0 .437.187 1.062.953 1.5C.922-2.906.484-2.344.484-1.61.484-.406 1.563.109 2.844.109 4.438.11 5.25-.766 5.25-1.859M4.172-5.046c0 .484-.25.813-.688 1.11l-1.5-.844c-.156-.078-.437-.25-.437-.594 0-.703.89-.766 1.297-.766.828 0 1.328.407 1.328 1.094m.219 3.734c0 .829-.938 1-1.516 1-.969 0-1.547-.515-1.547-1.296 0-.766.531-1.203.89-1.407l1.36.766c.438.25.813.453.813.938m0 0"/><path id="d" d="M4.922 0v-.469h-1.39v-5.734c0-.234 0-.328-.266-.328-.11 0-.125 0-.22.078-.765.562-1.796.562-2 .562H.845v.47h.203c.156 0 .703-.016 1.297-.204v5.156H.954V0c.437-.031 1.5-.031 1.984-.031s1.546 0 1.984.031m0 0"/><path id="e" d="M5.406 0v-.469h-.968v-1.094h.968v-.468h-.968V-6.22c0-.265-.016-.328-.297-.328-.22 0-.22.016-.344.172L.313-2.031v.469h2.875V-.47h-1.11V0c.375-.031 1.281-.031 1.703-.031.406 0 1.266 0 1.625.031m-2.11-2.031H.845L3.297-5.11Zm0 0"/><path id="f" d="M5.563-6.422H3.53c-.234 0-1.703-.047-1.844-.094-.203-.03-.218-.125-.234-.218H.984l-.343 2.53h.468c.094-.765.22-.89.266-.905.11-.063.922-.063 1.094-.063H4.14c-.172.219-.36.422-.547.64-.953 1.126-1.672 2.47-1.672 3.938 0 .703.562.703.625.703.156 0 .625-.046.625-.703v-.468c0-.47.031-.954.094-1.422.093-.672.297-1.25.656-1.657l1.547-1.796c.093-.11.093-.141.093-.485m0 0"/><path id="g" d="M5.25-3.281c0-.672 0-3.25-2.375-3.25-1.406 0-2.39.812-2.39 2.14 0 1.375.984 2.125 2.203 2.125.359 0 .828-.062 1.203-.765v.219c0 .734-.094 1.312-.235 1.656-.172.39-.61.843-1.297.843-.171 0-.53-.03-.828-.218.11-.031.485-.172.485-.625 0-.344-.235-.625-.625-.625-.391 0-.625.265-.625.64 0 .688.515 1.25 1.609 1.25C3.672.11 5.25-.734 5.25-3.28m-1.375-.985c0 .625-.25 1.641-1.094 1.641-.953 0-.953-.75-.953-1.734 0-.985 0-1.782 1.078-1.782.578 0 .813.532.86.625.109.329.109.907.109 1.25m0 0"/></defs><path fill="none" stroke="#000" stroke-miterlimit="10" stroke-width=".399" d="m21.98 28.754 9.817-14.344"/><path fill="none" stroke="#000" stroke-linecap="round" stroke-linejoin="round" stroke-miterlimit="10" stroke-width=".39897606" d="M25.012 28.559c-1.399-.5-2.434-.188-3.145.359.25-.86.168-1.938-.8-3.063"/><path fill="none" stroke="#000" stroke-miterlimit="10" stroke-width=".399" d="m41.16 14.41 9.817 14.344"/><path fill="none" stroke="#000" stroke-linecap="round" stroke-linejoin="round" stroke-miterlimit="10" stroke-width=".39897606" d="M51.89 25.855c-.968 1.125-1.05 2.204-.8 3.063-.711-.547-1.746-.86-3.145-.36"/><path fill="none" stroke="#000" stroke-miterlimit="10" stroke-width=".399" d="m9.824 57.105 4.91-14.347"/><path fill="none" stroke="#000" stroke-linecap="round" stroke-linejoin="round" stroke-miterlimit="10" stroke-width=".39898803000000005" d="M12.691 56.11c-1.48-.11-2.394.472-2.933 1.183.012-.895-.356-1.91-1.59-2.734"/><path fill="none" stroke="#000" stroke-miterlimit="10" stroke-width=".399" d="m19.414 42.758 4.91 14.344"/><path fill="none" stroke="#000" stroke-linecap="round" stroke-linejoin="round" stroke-miterlimit="10" stroke-width=".39898803000000005" d="M25.98 54.555c-1.234.824-1.601 1.84-1.59 2.734-.538-.715-1.453-1.293-2.933-1.187"/><path fill="none" stroke="#000" stroke-miterlimit="10" stroke-width=".399" d="m48.684 56.945 4.859-14.187"/><path fill="none" stroke="#000" stroke-linecap="round" stroke-linejoin="round" stroke-miterlimit="10" stroke-width=".39898803000000005" d="M51.555 55.95c-1.48-.106-2.395.472-2.934 1.183.012-.89-.355-1.91-1.59-2.735"/><path fill="none" stroke="#000" stroke-miterlimit="10" stroke-width=".399" d="m58.223 42.758 4.89 14.293"/><path fill="none" stroke="#000" stroke-linecap="round" stroke-linejoin="round" stroke-miterlimit="10" stroke-width=".39898803000000005" d="M64.77 54.504c-1.235.824-1.602 1.84-1.59 2.734-.54-.71-1.453-1.293-2.934-1.183"/><path fill="none" stroke="#000" stroke-miterlimit="10" stroke-width=".399" d="M13.758 64.266h6.637M33.16 64.266h6.637M52.563 64.266h6.636M10.89 42.559h12.372V29.28H10.89Zm0 0"/><use xlink:href="#a" x="14.21" y="39.127"/><path fill="none" stroke="#000" stroke-miterlimit="10" stroke-width=".399" d="M30.293 14.21h12.371V.935H30.293Zm0 0"/><use xlink:href="#b" x="33.614" y="10.78"/><path fill="none" stroke="#000" stroke-miterlimit="10" stroke-width=".399" d="M49.695 42.559h12.371V29.28h-12.37Zm0 0"/><use xlink:href="#c" x="53.017" y="39.127"/><path fill="none" stroke="#000" stroke-miterlimit="10" stroke-width=".399" d="M1.188 70.848h12.37V57.68H1.189Zm0 0"/><use xlink:href="#d" x="4.509" y="67.528"/><path fill="none" stroke="#000" stroke-miterlimit="10" stroke-width=".399" d="M20.59 70.852h12.37V57.676H20.59Zm0 0"/><use xlink:href="#e" x="23.912" y="67.532"/><path fill="none" stroke="#000" stroke-miterlimit="10" stroke-width=".399" d="M39.992 71.008h12.371V57.523h-12.37Zm0 0"/><use xlink:href="#f" x="43.315" y="67.578"/><path fill="none" stroke="#000" stroke-miterlimit="10" stroke-width=".399" d="M59.398 70.902H71.77V57.625H59.398Zm0 0"/><use xlink:href="#g" x="62.718" y="67.472"/></svg>