<svg xmlns="http://www.w3.org/2000/svg" width="89.539" height="66.062"><defs><clipPath id="a"><path d="M0 0h89.309v65.594H0Zm0 0"/></clipPath></defs><path fill="none" stroke="#7F7F7F" stroke-miterlimit="10" stroke-width=".199" d="M1.172 60.91h85.043M1.172 32.563h85.043M1.172 4.227h85.043M1.172 60.91V4.215M29.52 60.91V4.215M57.867 60.91V4.215M86.203 60.91V4.215"/><g clip-path="url(#a)"><path fill="none" stroke="#00F" stroke-miterlimit="10" stroke-width=".797" d="M1.172 32.563s.437-4.051.605-5.57c.172-1.524.442-3.95.61-5.395.168-1.446.437-3.711.605-5.035a326 326 0 0 1 .606-4.52c.168-1.164.437-2.902.605-3.867.172-.969.442-2.36.61-3.106.167-.742.437-1.758.605-2.261s.437-1.118.605-1.375c.168-.262.438-.473.61-.485.168-.015.437.16.605.38.168.214.438.753.606 1.179s.437 1.285.605 1.89c.168.606.442 1.73.61 2.48s.437 2.079.605 2.93c.168.856.438 2.313.606 3.227s.437 2.434.605 3.367c.172.93.441 2.442.61 3.348.167.902.437 2.336.605 3.176s.437 2.133.605 2.87c.168.74.438 1.845.606 2.454.172.61.441 1.484.61 1.945.167.465.437 1.082.605 1.383s.437.649.605.785c.168.133.438.215.61.192.167-.024.437-.196.605-.364.168-.171.437-.566.605-.863s.438-.879.606-1.277c.168-.399.441-1.117.61-1.586.167-.465.437-1.274.605-1.777.168-.5.437-1.34.605-1.844s.438-1.32.606-1.793c.172-.473.441-1.211.609-1.621s.438-1.024.605-1.348c.168-.324.438-.773.606-.988.168-.219.437-.477.605-.574.172-.094.442-.149.61-.114.168.032.437.188.605.344s.438.516.606.79c.168.269.437.804.61 1.175.167.37.437 1.05.605 1.496.168.45.437 1.227.605 1.723.168.492.438 1.324.606 1.832.168.507.44 1.34.609 1.828s.437 1.258.605 1.695.438 1.094.606 1.445c.168.352.437.844.605 1.082.172.235.442.524.61.622.168.101.437.148.605.093s.438-.27.606-.484c.168-.219.437-.703.609-1.086a20 20 0 0 0 .605-1.668c.168-.54.438-1.531.606-2.211.168-.676.437-1.883.605-2.676s.438-2.164.61-3.039c.168-.875.437-2.355.605-3.277.168-.926.438-2.45.606-3.38.168-.925.437-2.425.605-3.312.168-.89.442-2.293.61-3.101.168-.809.437-2.04.605-2.723s.438-1.68.605-2.203c.168-.52.438-1.223.606-1.547.172-.324.441-.687.61-.793a.57.57 0 0 1 .605.047c.168.137.437.547.605.93s.438 1.195.61 1.824c.168.625.437 1.832.605 2.688.168.859.438 2.43.606 3.5.168 1.066.437 2.957.605 4.207s.438 3.406.61 4.796c.167 1.391.437 3.747.605 5.235.168 1.492.437 3.965.605 5.508.168 1.539.438 4.054.606 5.593.168 1.54.441 4.016.61 5.508.167 1.488.437 3.84.605 5.235.168 1.39.437 3.546.605 4.793.168 1.25.438 3.14.606 4.21.172 1.07.441 2.641.609 3.5.168.856.438 2.063.605 2.692.168.625.438 1.437.606 1.82s.437.793.61.93a.55.55 0 0 0 .605.047c.168-.102.437-.465.605-.79.168-.324.438-1.03.606-1.55s.437-1.52.61-2.203c.167-.68.437-1.914.605-2.719.168-.809.437-2.21.605-3.102.168-.89.438-2.386.605-3.316l.61-3.375c.168-.922.437-2.402.605-3.277.168-.88.438-2.246.606-3.04.168-.792.437-2 .605-2.675.172-.68.442-1.672.61-2.211.168-.54.437-1.29.605-1.668.168-.383.438-.867.606-1.086s.437-.434.609-.488c.168-.055.437-.008.605.093.168.098.438.387.606.626.168.234.437.73.605 1.078.168.351.442 1.011.61 1.445.168.437.437 1.207.605 1.695.168.489.438 1.32.606 1.828s.437 1.34.605 1.832c.168.496.442 1.274.61 1.723.167.445.437 1.125.605 1.496s.438.906.605 1.18c.168.27.438.629.606.785.172.156.441.313.61.348.167.03.437-.024.605-.118.168-.093.437-.355.605-.57s.438-.664.61-.988c.168-.324.437-.938.605-1.348.168-.414.438-1.148.606-1.62.168-.477.437-1.29.605-1.794s.441-1.344.61-1.847c.167-.5.437-1.31.605-1.778a38 38 0 0 1 .605-1.582c.168-.398.438-.98.606-1.277s.441-.692.61-.864c.167-.171.437-.343.605-.367s.437.059.605.196c.168.132.438.48.606.78.171.302.441.923.609 1.384s.437 1.336.605 1.945c.168.61.438 1.715.606 2.453s.437 2.035.61 2.871c.167.84.437 2.274.605 3.176.168.906.437 2.418.605 3.348s.438 2.449.606 3.367c.168.914.441 2.37.61 3.226.167.852.437 2.18.605 2.93s.437 1.871.605 2.48c.168.606.438 1.465.605 1.891.168.426.442.965.61 1.184.168.215.437.394.605.379s.438-.227.606-.485.437-.87.605-1.375c.172-.508.442-1.52.61-2.261.168-.746.437-2.137.605-3.106.168-.965.438-2.703.606-3.867s.437-3.191.609-4.52c.168-1.324.437-3.586.605-5.035.168-1.445.438-3.87.606-5.39.168-1.524.605-5.575.605-5.575"/></g></svg>