<svg xmlns="http://www.w3.org/2000/svg" xmlns:xlink="http://www.w3.org/1999/xlink" width="115.594" height="87.248"><defs><path id="a" d="M8.578 0v-.469H7.5v-5.906h1.078v-.469c-.39.032-1.36.032-1.797.032-.422 0-1.39 0-1.781-.032v.469h1.078v2.594H2.875v-2.594h1.078v-.469c-.375.032-1.344.032-1.781.032-.422 0-1.406 0-1.781-.032v.469h1.078v5.906H.39V0C.766-.031 1.75-.031 2.17-.031c.438 0 1.407 0 1.782.031v-.469H2.875v-2.843h3.203V-.47H5V0c.39-.031 1.36-.031 1.781-.031.438 0 1.407 0 1.797.031m0 0"/><path id="b" d="M4.922-1.172c0-.172-.188-.172-.234-.172-.172 0-.188.047-.25.203-.204.485-.782.797-1.422.797-1.407 0-1.422-1.328-1.422-1.828h3.015c.22 0 .313 0 .313-.265 0-.313-.063-1.047-.563-1.547-.359-.36-.89-.532-1.578-.532C1.187-4.516.313-3.484.313-2.25c0 1.344 1 2.313 2.609 2.313 1.578 0 2-1.063 2-1.235M3.984-2.5h-2.39c.015-.39.031-.812.234-1.14.266-.391.672-.516.953-.516 1.172 0 1.188 1.312 1.203 1.656m0 0"/><path id="c" d="M2.922 0v-.469h-.688v-6.453L.47-6.844v.469c.625 0 .687 0 .687.39v5.516H.47V0l1.219-.031Zm0 0"/><path id="d" d="M5.406-2.172c0-1.344-.922-2.344-2.547-2.344C1.22-4.516.313-3.5.313-2.172c0 1.235.89 2.235 2.546 2.235 1.672 0 2.547-1.016 2.547-2.235m-1.281-.11c0 .86 0 1.938-1.266 1.938-1.265 0-1.265-1.078-1.265-1.937 0-.453 0-.953.172-1.297.187-.375.609-.578 1.093-.578.422 0 .844.156 1.063.5.203.344.203.89.203 1.375m0 0"/><path id="e" d="M11.61-6.375v-.469c-.282.016-.626.032-1.079.032-.375 0-.984 0-1.344-.032v.469c.25 0 .72 0 1.016.11L8.484-1.798 6.72-6.375h.953v-.469c-.375.032-1.313.032-1.734.032-.391 0-1.188 0-1.532-.032v.469h.86l.406 1.063-1.36 3.515-1.765-4.578h.969v-.469c-.391.032-1.328.032-1.75.032-.391 0-1.172 0-1.532-.032v.469h.86l2.39 6.203c.063.156.11.25.36.25s.281-.094.344-.25l1.734-4.5 1.734 4.5c.063.156.094.25.344.25s.297-.094.36-.25l2.296-5.953c.063-.172.063-.187.375-.219.203-.031.406-.031.578-.031m0 0"/><path id="f" d="M4.406-3.672c0-.531-.531-.812-1.062-.812-.688 0-1.094.5-1.313 1.125v-1.125l-1.656.078v.468c.61 0 .688 0 .688.391v3.078H.375V0l1.25-.031C2-.031 2.641-.031 3 0v-.469h-.86v-1.75c0-.687.235-1.906 1.235-1.906 0 0-.187.172-.187.453 0 .406.328.61.609.61.297 0 .61-.204.61-.61m0 0"/><path id="g" d="M5.984 0v-.469c-.609 0-.687 0-.687-.39v-6.063l-1.766.078v.469c.625 0 .703 0 .703.39v1.954a2.18 2.18 0 0 0-1.359-.453c-1.453 0-2.5.875-2.5 2.28 0 1.313.922 2.267 2.39 2.267.61 0 1.094-.235 1.407-.485v.485ZM4.172-1.031c-.14.187-.547.734-1.297.734-1.219 0-1.219-1.203-1.219-1.906 0-.485 0-1.016.25-1.406.297-.422.766-.516 1.078-.516.563 0 .97.313 1.188.61Zm0 0"/><path id="h" d="m8.453-1.484-.078-.47-1.062.188L6.28-7.578l1.063-.188-.078-.453c-.391.094-1.344.266-1.782.344-.406.063-1.359.234-1.75.266l.079.453 1.062-.188.453 2.563-3.156.562-.453-2.562L2.78-6.97l-.078-.453c-.36.094-1.328.266-1.75.344s-1.39.234-1.75.281l.078.453L.344-6.53 1.375-.72.313-.53l.078.469c.359-.11 1.328-.266 1.75-.344s1.39-.25 1.75-.281l-.079-.47-1.062.188-.5-2.797 3.156-.562.5 2.797-1.062.187.078.469c.39-.094 1.344-.266 1.75-.328.437-.078 1.39-.25 1.781-.281m0 0"/><path id="i" d="M4.64-2.016c-.03-.171-.218-.14-.265-.125-.156.032-.156.079-.203.25-.11.516-.64.907-1.266 1.016-1.39.25-1.64-1.047-1.719-1.547l2.985-.515c.203-.047.297-.063.25-.329-.063-.296-.25-1.015-.813-1.406-.421-.297-.968-.39-1.656-.266-1.562.282-2.25 1.454-2.031 2.672C.156-.937 1.312-.172 2.89-.437 4.453-.72 4.67-1.844 4.64-2.016m-1.156-1.14-2.359.406c-.047-.375-.11-.797.047-1.14a1.17 1.17 0 0 1 .844-.688c1.156-.203 1.39 1.094 1.468 1.422m0 0"/><path id="j" d="m2.875-.5-.078-.469-.672.11L1-7.203l-1.719.39.078.454c.61-.11.672-.125.735.265l.969 5.422-.672.125.078.469 1.187-.25Zm0 0"/><path id="k" d="M4.953-3.078C4.72-4.406 3.641-5.234 2.031-4.953S-.297-3.5-.062-2.187C.156-.97 1.203-.142 2.828-.437 4.484-.72 5.156-1.875 4.953-3.078m-1.281.11c.14.843.328 1.906-.922 2.124S1.313-1.687 1.172-2.53C1.094-2.97 1-3.47 1.109-3.844c.125-.39.516-.656.985-.75.422-.062.86.016 1.125.313s.36.843.453 1.312m0 0"/><path id="l" d="m10.328-8.297-.078-.453c-.281.063-.625.14-1.062.219-.376.062-.97.172-1.329.203l.079.453c.25-.047.703-.125 1.015-.062l-.906 4.703L5.5-7.454l.953-.155-.078-.453c-.375.093-1.297.25-1.719.328-.375.062-1.172.203-1.5.234l.078.453.844-.156.578.984-.718 3.703-2.532-4.203.953-.172-.078-.453c-.39.094-1.312.266-1.734.328a19 19 0 0 1-1.5.235l.078.453.844-.14L3.406-.782c.094.156.156.234.39.187.25-.031.267-.14.298-.312l.922-4.719 2.5 4.125c.078.14.125.234.375.188s.28-.141.312-.313l1.235-6.25c.03-.187.03-.203.328-.297.187-.062.39-.094.562-.125m0 0"/><path id="m" d="M3.703-4.375C3.61-4.906 3.031-5.094 2.516-5c-.688.11-.985.688-1.094 1.328l-.203-1.11-1.61.376.079.468c.593-.109.671-.124.75.25l.53 3.032-.671.125.078.469 1.219-.25c.375-.063 1-.172 1.36-.204l-.079-.468-.844.14-.312-1.719c-.11-.671-.094-1.906.89-2.093 0 0-.156.218-.109.5.078.39.438.531.703.484.297-.047.578-.312.5-.703m0 0"/><path id="n" d="m5.89-1.047-.077-.469c-.594.11-.672.125-.75-.25L4.016-7.734l-1.72.39.079.453c.61-.109.688-.125.75.266l.344 1.922a2.08 2.08 0 0 0-1.422-.219C.625-4.672-.25-3.609 0-2.234.219-.937 1.297-.156 2.734-.422a2.26 2.26 0 0 0 1.297-.719l.094.485Zm-1.952-.687c-.11.203-.422.812-1.157.937-1.203.219-1.422-.969-1.531-1.656-.094-.469-.187-1 0-1.422.219-.469.656-.656.969-.703a1.5 1.5 0 0 1 1.281.39Zm0 0"/></defs><path fill="none" stroke="#7F7F7F" stroke-miterlimit="10" stroke-width=".199" d="M.906 85.762h113.387M.906 57.418h113.387M.906 29.07h113.387M.906.734h113.387M.906 85.762V.722m28.348 85.04V.722m28.348 85.04V.722m28.343 85.04V.722m28.34 85.04V.722"/><path fill="none" stroke="#000" stroke-miterlimit="10" stroke-width=".399" d="M9.605 71.25h67.641V57.617H9.606Zm0 0"/><use xlink:href="#a" x="12.925" y="67.85"/><use xlink:href="#b" x="21.891" y="67.85"/><use xlink:href="#c" x="27.142" y="67.85"/><use xlink:href="#c" x="30.32" y="67.85"/><use xlink:href="#d" x="33.498" y="67.85"/><use xlink:href="#e" x="43.042" y="67.85"/><use xlink:href="#d" x="53.931" y="67.85"/><use xlink:href="#f" x="59.66" y="67.85"/><use xlink:href="#c" x="64.382" y="67.85"/><use xlink:href="#g" x="67.56" y="67.85"/><path fill="#FCC" d="M111.855 30.492 45.242 42.238l2.367 13.43 66.618-11.746Zm0 0"/><use xlink:href="#h" x="50.287" y="51.742"/><use xlink:href="#i" x="59.117" y="50.185"/><use xlink:href="#j" x="64.288" y="49.273"/><use xlink:href="#j" x="67.418" y="48.721"/><use xlink:href="#k" x="70.548" y="48.17"/><use xlink:href="#l" x="79.947" y="46.512"/><use xlink:href="#k" x="90.671" y="44.621"/><use xlink:href="#m" x="96.312" y="43.627"/><use xlink:href="#j" x="100.963" y="42.806"/><use xlink:href="#n" x="104.093" y="42.255"/></svg>