<svg xmlns="http://www.w3.org/2000/svg" xmlns:xlink="http://www.w3.org/1999/xlink" width="106.886" height="83.63"><defs><path id="a" d="M8.25 0v-.469h-.969L4.72-6.703c-.11-.25-.219-.25-.39-.25-.282 0-.329.078-.391.25l-2.47 6c-.062.156-.093.234-.843.234H.406V0l1.172-.031c.39 0 .938 0 1.313.031v-.469S2-.469 2-.594l.047-.125.5-1.203h2.672l.593 1.453H4.86V0c.391-.031 1.329-.031 1.766-.031.39 0 1.266 0 1.625.031M5.016-2.39H2.734l1.141-2.766Zm0 0"/><path id="b" d="M7.5-1.86c0-.952-.844-1.624-2.031-1.702 1.078-.204 1.718-.797 1.718-1.563 0-.922-.875-1.719-2.468-1.719H.39v.469h1.078v5.906H.39V0h4.625C6.672 0 7.5-.875 7.5-1.86M5.766-5.124c0 .766-.47 1.39-1.438 1.39H2.766v-2.64h1.812c1.016 0 1.188.797 1.188 1.25m.28 3.266c0 .109 0 1.39-1.437 1.39H2.766v-2.906h1.937c.203 0 .672 0 1.016.422.328.422.328.984.328 1.094m0 0"/><path id="d" d="M7.64-2.266c0-.203-.077-.203-.25-.203-.124 0-.218 0-.218.172C7.094-.969 5.89-.359 4.89-.359c-.782 0-1.625-.235-2.141-.844-.469-.578-.594-1.313-.594-2.219 0-.562.031-1.625.672-2.297.64-.656 1.516-.765 2.031-.765 1.079 0 2.016.765 2.235 2.03.031.188.047.204.265.204.266 0 .282-.016.282-.281v-2.14c0-.188 0-.282-.188-.282-.094 0-.11.031-.187.094l-.657.593a3.03 3.03 0 0 0-1.968-.687c-2.485 0-4 1.484-4 3.531S2.156.11 4.64.11c1.875 0 3-1.218 3-2.375m0 0"/><path id="f" d="M8.14-3.36c0-2.187-1.484-3.484-3.468-3.484H.39v.469h1.078v5.906H.39V0h4.297C6.656 0 8.14-1.219 8.14-3.36m-1.468-.015c0 1.094-.11 1.625-.438 2.063-.468.687-1.343.843-1.953.843H2.828v-5.906h1.453c.657 0 1.485.188 1.969.89.344.516.422 1.188.422 2.11m0 0"/><path id="g" d="M8.328 0v-.469h-.984L4.828-3.953 6.5-6.156c.11-.14.125-.157.469-.188.234-.031.297-.031.578-.031h.281v-.469c-.406.032-.906.032-1.328.032-.39 0-1.156 0-1.516-.032v.469c.172 0 .563 0 .922.11-.015.03-.062.077-.078.109L4.5-4.406 3.078-6.375h.828v-.469c-.406.032-1.36.032-1.797.032-.406 0-1.265 0-1.625-.032v.469h.985l2.203 3.063-2 2.64c-.094.125-.11.14-.438.172-.203.016-.406.031-.609.031H.344V0c.406-.031.906-.031 1.328-.031.39 0 1.156 0 1.516.031v-.469c-.172 0-.563 0-.922-.11.015-.015.062-.077.093-.109L4-2.874 5.734-.469h-.828V0c.407-.031 1.36-.031 1.797-.031.406 0 1.266 0 1.625.031m0 0"/><clipPath id="c"><path d="M13 48h41v35.445H13Zm0 0"/></clipPath><clipPath id="e"><path d="M68 17h38.828v42H68Zm0 0"/></clipPath></defs><path fill="none" stroke="#000" stroke-miterlimit="10" stroke-width=".399" d="M43.465 11.23c0-5.632-4.567-10.199-10.2-10.199s-10.199 4.567-10.199 10.2 4.567 10.199 10.2 10.199 10.199-4.567 10.199-10.2Zm0 0"/><use xlink:href="#a" x="28.938" y="14.708"/><path fill="none" stroke="#000" stroke-miterlimit="10" stroke-width=".399" d="M40.043 46.316h14.793V32.84H40.043Zm0 0"/><use xlink:href="#b" x="43.365" y="42.995"/><g clip-path="url(#c)"><path fill="none" stroke="#000" stroke-miterlimit="10" stroke-width=".399" d="M47.492 67.926 33.266 53.699 19.043 67.926l14.223 14.222Zm0 0"/></g><use xlink:href="#d" x="29.127" y="71.341"/><g clip-path="url(#e)"><path fill="none" stroke="#000" stroke-miterlimit="10" stroke-width=".399" d="m89.96 23.215-6.413 7.539-9.149 3.766 5.188 8.43.758 9.866 9.617-2.328 9.617 2.328.758-9.867 5.187-8.43-9.152-3.765Zm0 0"/></g><use xlink:href="#f" x="85.566" y="42.995"/><use xlink:href="#g" x=".592" y="42.995"/><path fill="none" stroke="#000" stroke-miterlimit="10" stroke-width=".399" d="m11.855 32.64 13.778-13.773"/><path fill="none" stroke="#000" stroke-linecap="round" stroke-linejoin="round" stroke-miterlimit="10" stroke-width=".39899202" d="M22.617 18.5c1.281.746 2.36.629 3.156.227-.402.796-.523 1.87.227 3.156"/><path fill="none" stroke="#000" stroke-miterlimit="10" stroke-width=".399" d="M12.77 39.578h26.675"/><path fill="none" stroke="#000" stroke-linecap="round" stroke-linejoin="round" stroke-miterlimit="10" stroke-width=".399" d="M37.574 37.188c.38 1.433 1.223 2.113 2.07 2.39-.847.277-1.69.957-2.07 2.39"/><path fill="none" stroke="#000" stroke-miterlimit="10" stroke-width=".399" d="M11.855 46.516 25.73 60.39"/><path fill="none" stroke="#000" stroke-linecap="round" stroke-linejoin="round" stroke-miterlimit="10" stroke-width=".39899202" d="M26.098 57.375c-.746 1.281-.63 2.355-.227 3.156-.797-.406-1.871-.523-3.156.223"/><path fill="none" stroke="#000" stroke-miterlimit="10" stroke-width=".399" d="m42.566 15.883 34.227 17.11"/><path fill="none" stroke="#000" stroke-linecap="round" stroke-linejoin="round" stroke-miterlimit="10" stroke-width=".39896808000000006" d="M76.187 30.016c-.304 1.453.149 2.437.782 3.066-.883-.129-1.942.098-2.922 1.211"/><path fill="none" stroke="#000" stroke-miterlimit="10" stroke-width=".399" d="M55.035 39.578H76.88"/><path fill="none" stroke="#000" stroke-linecap="round" stroke-linejoin="round" stroke-miterlimit="10" stroke-width=".399" d="M75.004 37.188c.379 1.433 1.223 2.113 2.074 2.39-.851.277-1.695.957-2.074 2.39"/><path fill="none" stroke="#000" stroke-miterlimit="10" stroke-width=".399" d="m42.938 63.09 36.234-18.117"/><path fill="none" stroke="#000" stroke-linecap="round" stroke-linejoin="round" stroke-miterlimit="10" stroke-width=".39896808000000006" d="M76.426 43.672c.98 1.113 2.039 1.344 2.922 1.21-.637.63-1.086 1.614-.786 3.067"/></svg>