<svg xmlns="http://www.w3.org/2000/svg" xmlns:xlink="http://www.w3.org/1999/xlink" width="352.082" height="242.174"><defs><path id="b" d="M5.719-2.031c0-1.094-.797-1.906-1.719-2.094l-1.437-.312c-.407-.094-.954-.422-.954-1.032 0-.437.282-1.047 1.266-1.047.797 0 1.813.329 2.047 1.688.031.25.031.266.234.266.25 0 .25-.047.25-.282v-1.828c0-.187 0-.281-.187-.281-.078 0-.078.016-.188.11l-.453.437C4-6.86 3.344-6.953 2.875-6.953c-1.516 0-2.234.969-2.234 2.016 0 .64.328 1.093.53 1.312.5.5.829.563 1.923.797.875.203 1.047.219 1.265.437.141.141.391.407.391.86 0 .484-.25 1.172-1.297 1.172-.75 0-2.265-.203-2.344-1.688-.015-.172-.015-.219-.234-.219-.234 0-.234.047-.234.282v1.812C.64.016.64.11.813.11.906.11.922.094 1 .016l.469-.453c.656.484 1.578.546 1.984.546C5.11.11 5.72-1.016 5.72-2.03m0 0"/><path id="c" d="M2.844 0v-.469h-.61v-4.015L.5-4.406v.468c.594 0 .656 0 .656.391v3.078H.47V0l1.219-.031Zm-.469-6.047a.774.774 0 0 0-.781-.781.784.784 0 0 0-.782.781c0 .422.36.766.782.766a.77.77 0 0 0 .781-.766m0 0"/><path id="d" d="M6.125 0v-.469h-.687v-2.578c0-1.047-.532-1.437-1.532-1.437-.953 0-1.484.562-1.75 1.078v-1.078l-1.703.078v.468c.61 0 .688 0 .688.391v3.078H.453V0l1.25-.031L2.953 0v-.469h-.687v-2.078c0-1.094.859-1.578 1.5-1.578.328 0 .547.203.547.969V-.47h-.688V0l1.25-.031Zm0 0"/><path id="e" d="M5.563-3.953c0-.235-.172-.578-.625-.578-.157 0-.625.031-1.063.375-.172-.125-.594-.328-1.328-.328-1.438 0-1.985.78-1.985 1.468 0 .407.188.829.516 1.047-.281.36-.344.688-.344.89 0 .157.047.642.438.954-.125.031-.86.25-.86.875C.313 1.25.876 2 2.86 2 4.625 2 5.406 1.422 5.406.719c0-.297-.078-.922-.75-1.266-.562-.281-1.156-.281-2.11-.281-.265 0-.718 0-.765-.016a.625.625 0 0 1-.562-.625c0-.093.047-.25.11-.328.452.234.968.266 1.218.266 1.437 0 1.984-.782 1.984-1.485 0-.468-.25-.796-.406-.953.297-.156.516-.172.625-.187a.43.43 0 0 0-.047.203c0 .25.172.422.438.422a.41.41 0 0 0 .422-.422m-2.141.937c0 .454 0 1.125-.875 1.125s-.875-.671-.875-1.125c0-.437 0-1.109.875-1.109s.875.672.875 1.11M4.547.75c0 .36-.39.89-1.688.89-1.187 0-1.687-.452-1.687-.906 0-.609.625-.609.766-.609h1.171c.313 0 1.438 0 1.438.625m0 0"/><path id="f" d="M2.922 0v-.469h-.688v-6.453L.47-6.844v.469c.625 0 .687 0 .687.39v5.516H.47V0l1.219-.031Zm0 0"/><path id="g" d="M4.922-1.172c0-.172-.188-.172-.234-.172-.172 0-.188.047-.25.203-.204.485-.782.797-1.422.797-1.407 0-1.422-1.328-1.422-1.828h3.015c.22 0 .313 0 .313-.265 0-.313-.063-1.047-.563-1.547-.359-.36-.89-.532-1.578-.532C1.187-4.516.313-3.484.313-2.25c0 1.344 1 2.313 2.609 2.313 1.578 0 2-1.063 2-1.235M3.984-2.5h-2.39c.015-.39.031-.812.234-1.14.266-.391.672-.516.953-.516 1.172 0 1.188 1.312 1.203 1.656m0 0"/><path id="h" d="M8.25 0v-.469h-.969L4.72-6.703c-.11-.25-.219-.25-.39-.25-.282 0-.329.078-.391.25l-2.47 6c-.062.156-.093.234-.843.234H.406V0l1.172-.031c.39 0 .938 0 1.313.031v-.469S2-.469 2-.594l.047-.125.5-1.203h2.672l.593 1.453H4.86V0c.391-.031 1.329-.031 1.766-.031.39 0 1.266 0 1.625.031M5.016-2.39H2.734l1.141-2.766Zm0 0"/><path id="i" d="M4.406-3.672c0-.531-.531-.812-1.062-.812-.688 0-1.094.5-1.313 1.125v-1.125l-1.656.078v.468c.61 0 .688 0 .688.391v3.078H.375V0l1.25-.031C2-.031 2.641-.031 3 0v-.469h-.86v-1.75c0-.687.235-1.906 1.235-1.906 0 0-.187.172-.187.453 0 .406.328.61.609.61.297 0 .61-.204.61-.61m0 0"/><path id="j" d="M5.406-2.172c0-1.344-.922-2.344-2.547-2.344C1.22-4.516.313-3.5.313-2.172c0 1.235.89 2.235 2.546 2.235 1.672 0 2.547-1.016 2.547-2.235m-1.281-.11c0 .86 0 1.938-1.266 1.938-1.265 0-1.265-1.078-1.265-1.937 0-.453 0-.953.172-1.297.187-.375.609-.578 1.093-.578.422 0 .844.156 1.063.5.203.344.203.89.203 1.375m0 0"/><path id="k" d="M8.031-3.953v-.469a13 13 0 0 1-.781.031l-.953-.03v.468c.094 0 .578 0 .578.11 0 .03-.031.093-.031.124L5.797-1.172l-1.14-2.781h.562v-.469l-1.14.031c-.423 0-.845-.03-1-.03v.468h.593c.203.5.203.531.203.531 0 .031-.031.094-.031.125L3.047-1.39 2-3.953h.563v-.469l-1.235.031L.25-4.42v.468h.594L2.359-.234c.079.172.11.28.36.28s.297-.108.36-.28L4.14-2.812 5.188-.235c.078.172.109.28.359.28s.297-.108.36-.28L7.343-3.75c.047-.125.093-.203.687-.203m0 0"/><path id="l" d="M3.078.313c0-.125-.047-.157-.187-.25C2.063-.5 1.75-1.391 1.75-2.125c0-.672.25-1.594 1.156-2.203.125-.094.172-.125.172-.25a.254.254 0 0 0-.265-.25c-.204 0-1.641.906-1.641 2.703 0 .813.312 1.438.562 1.781.375.516.907.907 1.079.907.218 0 .265-.172.265-.25m0 0"/><path id="m" d="M3.219-.906c0-.735-.906-.906-1.14-.938l-.704-.125C1.188-2 1-2.079 1-2.25c0-.156.219-.328.813-.328.515 0 .609.172.625.328.015.14.03.281.28.281.298 0 .298-.156.298-.328v-.469c0-.14-.016-.328-.25-.328-.157 0-.22.063-.25.125-.282-.125-.563-.125-.688-.125-1.187 0-1.344.594-1.344.844 0 .656.735.797 1.391.89.297.063.828.141.828.454 0 .234-.25.422-.828.422-.297 0-.656-.063-.812-.563C1.03-1.203.984-1.28.78-1.28c-.297 0-.297.172-.297.328v.656c0 .14 0 .344.25.344.079 0 .188 0 .282-.234.328.218.672.234.859.234 1.125 0 1.344-.61 1.344-.953m0 0"/><path id="n" d="M2.313-.469a.477.477 0 0 0-.485-.484.47.47 0 0 0-.469.469c0 .28.22.484.47.484a.473.473 0 0 0 .484-.469m0 0"/><path id="o" d="M3.14-.906c0-.156 0-.313-.296-.313-.266 0-.266.157-.266.297-.015.375-.36.438-.515.438-.454 0-.454-.313-.454-.47v-1.562h1.047c.125 0 .328 0 .328-.265 0-.25-.187-.25-.328-.25H1.61v-.516c0-.14-.015-.328-.296-.328-.282 0-.282.172-.282.328v.516H.484c-.125 0-.328 0-.328.25 0 .265.203.265.328.265h.547v1.61c0 .687.485.953 1.016.953S3.14-.266 3.14-.906m0 0"/><path id="p" d="M3.25-.797c0-.234-.234-.234-.281-.234-.156 0-.219.015-.281.172-.141.328-.485.375-.657.375-.469 0-.937-.297-1.062-.813h1.953c.172 0 .328 0 .328-.312 0-.797-.453-1.485-1.375-1.485-.828 0-1.516.703-1.516 1.563S1.08.047 1.984.047c.938 0 1.266-.656 1.266-.844m-.594-1.015H.97c.125-.438.484-.766.906-.766.328 0 .703.156.781.765m0 0"/><path id="q" d="M3.469-.266c0-.25-.203-.25-.328-.25h-.25l-.828-1.046.734-.954h.234c.125 0 .344 0 .344-.265 0-.25-.219-.25-.344-.25H2.25c-.125 0-.328 0-.328.25 0 .203.11.265.281.265l-.39.547-.422-.547c.156 0 .28-.062.28-.265 0-.25-.202-.25-.327-.25H.547c-.125 0-.328 0-.328.25 0 .265.219.265.328.265h.25l.75.954L.75-.516H.516c-.125 0-.344 0-.344.25C.172 0 .39 0 .516 0h.78c.126 0 .329 0 .329-.266 0-.203-.11-.25-.297-.25l.484-.703.5.703c-.187 0-.296.047-.296.25 0 .266.203.266.328.266h.797c.109 0 .328 0 .328-.266m0 0"/><path id="r" d="M2.484-2.125c0-.828-.312-1.453-.562-1.797-.375-.515-.906-.906-1.078-.906-.203 0-.266.187-.266.25 0 .125.094.187.14.219 1.095.718 1.188 1.797 1.188 2.234 0 .656-.25 1.578-1.14 2.188C.64.14.578.188.578.313c0 .078.063.25.266.25s1.64-.907 1.64-2.688m0 0"/><path id="s" d="M3.266-.797c0-.234-.235-.234-.297-.234-.125 0-.203 0-.266.172-.047.078-.187.375-.625.375a1.027 1.027 0 0 1-1.015-1.032c0-.312.187-1.062 1.062-1.062l.344.015c.015.282.172.376.36.376.187 0 .358-.126.358-.36 0-.531-.734-.547-1.062-.547-1.219 0-1.64.953-1.64 1.578 0 .844.671 1.563 1.546 1.563 1 0 1.235-.719 1.235-.844m0 0"/><path id="t" d="M3.578-.266c0-.25-.203-.25-.328-.25H3v-1.53c0-.72-.36-1.032-.937-1.032-.391 0-.672.172-.844.297 0-.172-.047-.25-.313-.25h-.5c-.14 0-.328 0-.328.25 0 .265.203.265.313.265h.25v2H.406c-.14 0-.328 0-.328.25C.078 0 .281 0 .391 0h1.093c.11 0 .329 0 .329-.266 0-.25-.204-.25-.344-.25h-.25v-1.156c0-.64.484-.875.797-.875.328 0 .406.172.406.547v1.484h-.203c-.14 0-.344 0-.344.25 0 .266.219.266.344.266H3.25c.11 0 .328 0 .328-.266m0 0"/><path id="u" d="M3.406-2.594c0-.156-.078-.484-.703-.484-.328 0-.734.11-1.094.469v-.094c0-.25-.046-.328-.328-.328h-.75c-.125 0-.328 0-.328.25 0 .265.203.265.328.265h.5v2h-.5c-.125 0-.328 0-.328.25C.203 0 .406 0 .531 0h1.781c.126 0 .329 0 .329-.266 0-.25-.203-.25-.328-.25h-.704v-.796c0-.61.36-1.22 1.11-1.235 0 .156.172.281.344.281.187 0 .343-.125.343-.328m0 0"/><path id="v" d="M3.297-.328v-.188c0-.156 0-.328-.266-.328-.265 0-.297.125-.297.328H1.313c.406-.343.968-.796 1.234-1.03.437-.391.75-.845.75-1.407 0-.844-.703-1.375-1.563-1.375-.828 0-1.39.578-1.39 1.187 0 .297.234.375.36.375.171 0 .359-.14.359-.359a.35.35 0 0 0-.094-.234c.11-.266.39-.453.734-.453.531 0 1.031.296 1.031.859 0 .453-.328.844-.765 1.203L.469-.484C.39-.422.344-.391.344-.266.344 0 .547 0 .672 0h2.312c.266 0 .313-.062.313-.328m0 0"/><path id="w" d="M3.313-2.125c0-1.297-.72-2.203-1.485-2.203-.781 0-1.5.922-1.5 2.203 0 1.297.734 2.203 1.5 2.203.781 0 1.485-.922 1.485-2.203m-.563-.078c0 .969-.422 1.75-.922 1.75-.516 0-.922-.781-.922-1.75 0-.953.438-1.61.922-1.61.469 0 .922.657.922 1.61m0 0"/><path id="x" d="M3.64-.266c0-.218-.14-.25-.39-.25v-1.593c0-.157-.016-.97-.656-.97a.84.84 0 0 0-.656.313.61.61 0 0 0-.532-.312.88.88 0 0 0-.547.203c-.046-.156-.187-.156-.312-.156H.328c-.125 0-.328 0-.328.25 0 .234.125.265.39.265v2c-.265 0-.39.032-.39.25C0 0 .219 0 .328 0h.594c.125 0 .312 0 .312-.266 0-.218-.109-.25-.359-.25v-1.171c0-.563.234-.86.5-.86.14 0 .203.11.203.5v1.531c-.156 0-.281.032-.281.25 0 .266.187.266.312.266h.516c.125 0 .313 0 .313-.266 0-.218-.126-.25-.376-.25v-1.171c0-.563.25-.86.5-.86.141 0 .204.11.204.5v1.531c-.141 0-.282.032-.282.25 0 .266.204.266.313.266h.5c.125 0 .344 0 .344-.266m0 0"/><path id="y" d="M3.188-.266c0-.25-.204-.25-.329-.25h-.656v-2.187c0-.25-.047-.328-.328-.328H.906c-.125 0-.328 0-.328.25 0 .265.203.265.328.265h.719v2H.859c-.14 0-.343 0-.343.25C.516 0 .734 0 .859 0h2c.125 0 .329 0 .329-.266m-.954-3.562a.39.39 0 0 0-.406-.39.387.387 0 0 0-.39.39c0 .219.171.39.39.39a.39.39 0 0 0 .406-.39m0 0"/><path id="z" d="M3.578-.266c0-.25-.203-.25-.328-.25H3v-3.406c0-.25-.047-.344-.328-.344h-.485c-.14 0-.343.016-.343.266s.218.266.328.266h.25v.906a1.26 1.26 0 0 0-.735-.25c-.765 0-1.453.672-1.453 1.562C.234-.64.875.047 1.625.047c.344 0 .61-.14.797-.313.015.188.062.266.328.266h.5c.125 0 .328 0 .328-.266M2.422-1.375c0 .36-.297.89-.781.89-.453 0-.828-.452-.828-1.03 0-.61.437-1.032.89-1.032.406 0 .719.344.719.688Zm0 0"/><path id="A" d="M3.547-2.781c0-.25-.188-.25-.328-.25h-.781c-.157 0-.344 0-.344.25 0 .265.172.265.344.265h.265l-.297 1.72-.14-.532c-.125-.469-.172-.547-.422-.547-.094 0-.235 0-.328.188l-.266.906-.297-1.735h.266c.156 0 .343 0 .343-.265 0-.25-.187-.25-.343-.25H.437c-.14 0-.343 0-.343.25 0 .234.14.265.36.265L.858-.28c.032.187.047.312.36.312.312 0 .343-.062.453-.515l.172-.641.265 1c.094.14.235.156.344.156.281 0 .313-.125.344-.312l.406-2.235c.219 0 .344-.03.344-.265m0 0"/><path id="B" d="M3.625-.266c0-.25-.203-.25-.328-.25-.203 0-.297-.03-.344-.046V-2c0-.5-.375-1.094-1.406-1.094-.313 0-1.031.016-1.031.547 0 .235.172.36.359.36.11 0 .344-.063.344-.36 0 0 .234-.031.343-.031.454 0 .782.187.813.594-1.219.03-2.047.39-2.047 1.062 0 .485.453.969 1.188.969.234 0 .656-.047.968-.25.172.187.485.203.75.203.235 0 .391-.016.391-.266M2.359-.969c0 .14 0 .266-.234.375-.234.11-.516.11-.578.11-.39 0-.64-.203-.64-.438 0-.312.546-.515 1.452-.562Zm0 0"/><path id="C" d="M3.422-1.516c0-.875-.64-1.562-1.39-1.562-.298 0-.579.11-.813.265v-1.109c0-.25-.047-.344-.313-.344h-.5c-.14 0-.343.016-.343.266s.218.266.328.266h.25v3.406C.64-.172.656 0 .938 0c.218 0 .28-.094.28-.234.266.218.532.28.735.28.766 0 1.469-.671 1.469-1.562m-.578 0c0 .61-.453 1.032-.906 1.032-.485 0-.704-.563-.704-.875v-.485c0-.375.375-.703.766-.703.469 0 .844.469.844 1.031m0 0"/><path id="D" d="M3.422-1.516c0-.875-.64-1.562-1.39-1.562-.298 0-.579.11-.813.281 0-.172-.063-.234-.313-.234h-.5c-.14 0-.343 0-.343.25 0 .265.218.265.328.265h.25v3.5H.406c-.14 0-.343 0-.343.266 0 .25.218.25.328.25h1.093c.11 0 .329 0 .329-.25 0-.266-.204-.266-.344-.266h-.25V-.234c.265.234.531.28.734.28.766 0 1.469-.671 1.469-1.562m-.578 0c0 .61-.453 1.032-.906 1.032-.485 0-.704-.563-.704-.875v-.485c0-.375.375-.703.766-.703.469 0 .844.469.844 1.031m0 0"/><path id="E" d="M3.063-3.844c0-.437-.579-.453-.704-.453-.578 0-1.125.328-1.125.953v.313H.61c-.125 0-.328 0-.328.25 0 .265.203.265.328.265h.625v2H.61c-.125 0-.343 0-.343.25C.266 0 .484 0 .609 0h1.844c.125 0 .328 0 .328-.266 0-.25-.203-.25-.328-.25h-.64v-2h.78c.11 0 .313 0 .313-.265 0-.25-.187-.25-.312-.25h-.781v-.266c0-.453.359-.484.562-.484.031.11.125.297.344.297a.35.35 0 0 0 .344-.36m0 0"/><path id="F" d="M3.281-1.516c0-.89-.672-1.578-1.453-1.578-.797 0-1.453.688-1.453 1.578S1.047.047 1.828.047c.766 0 1.453-.688 1.453-1.563m-.578-.046c0 .593-.406 1.078-.875 1.078S.953-.97.953-1.562s.422-1.016.875-1.016.875.422.875 1.015m0 0"/><path id="G" d="M3.578-.266c0-.25-.203-.25-.328-.25H3v-1.53c0-.72-.36-1.032-.937-1.032-.391 0-.672.172-.844.297v-1.14c0-.25-.047-.345-.313-.345h-.5c-.14 0-.328.016-.328.266s.203.266.313.266h.25v3.218H.406c-.14 0-.328 0-.328.25C.078 0 .281 0 .391 0h1.093c.11 0 .329 0 .329-.266 0-.25-.204-.25-.344-.25h-.25v-1.156c0-.64.484-.875.797-.875.328 0 .406.172.406.547v1.484h-.203c-.14 0-.344 0-.344.25 0 .266.219.266.344.266H3.25c.11 0 .328 0 .328-.266m0 0"/><path id="H" d="M3.281-.266c0-.25-.203-.25-.328-.25h-.828v-3.406c0-.25-.062-.344-.328-.344H.719C.579-4.266.39-4.25.39-4s.203.266.312.266h.844v3.218H.719c-.14 0-.328 0-.328.25C.39 0 .594 0 .703 0h2.25c.125 0 .328 0 .328-.266m0 0"/><path id="I" d="M3.578-.266c0-.25-.219-.25-.328-.25H3v-2.187c0-.25-.047-.328-.328-.328h-.485c-.14 0-.343 0-.343.25 0 .265.218.265.328.265h.25v1.391c0 .563-.516.64-.719.64-.469 0-.484-.187-.484-.39v-1.828c0-.25-.047-.328-.313-.328h-.5c-.14 0-.328 0-.328.25 0 .265.203.265.313.265h.25v1.688c0 .687.5.875 1.03.875.266 0 .517-.063.767-.219C2.484 0 2.625 0 2.75 0h.5c.125 0 .328 0 .328-.266m0 0"/><clipPath id="a"><path d="M0 0h351.621v241.762H0Zm0 0"/></clipPath></defs><path fill="#FFFBB3" d="M327.105 120.664 233.973 27.54v42.52H53.918v101.214h180.055v42.52Zm0 0"/><g clip-path="url(#a)"><path fill="none" stroke="#B2B2B2" stroke-miterlimit="10" stroke-width="14.173" d="M327.105 120.664 233.973 27.54v42.52H53.918v101.214h180.055v42.52Zm0 0"/></g><g fill="#B2B2B2"><use xlink:href="#b" x="131.872" y="148.011"/><use xlink:href="#c" x="138.238" y="148.011"/><use xlink:href="#d" x="141.416" y="148.011"/><use xlink:href="#e" x="147.782" y="148.011"/><use xlink:href="#f" x="153.511" y="148.011"/><use xlink:href="#g" x="156.689" y="148.011"/></g><g fill="#B2B2B2"><use xlink:href="#h" x="165.755" y="148.011"/><use xlink:href="#i" x="174.412" y="148.011"/><use xlink:href="#i" x="179.135" y="148.011"/><use xlink:href="#j" x="183.857" y="148.011"/></g><use xlink:href="#k" x="189.277" y="148.011" fill="#B2B2B2"/><path fill="none" stroke="#B2B2B2" stroke-miterlimit="10" stroke-width=".996" d="M198.043 150.012V91.316"/><path fill="none" stroke="#000" stroke-miterlimit="10" stroke-width=".399" d="m130.46 149.422 2.821-2.82m-2.82 0 2.82 2.82"/><use xlink:href="#l" x="117.227" y="143.933"/><use xlink:href="#m" x="120.888" y="143.933"/><use xlink:href="#n" x="124.55" y="143.933"/><use xlink:href="#o" x="128.211" y="143.933"/><use xlink:href="#p" x="131.872" y="143.933"/><use xlink:href="#q" x="135.533" y="143.933"/><use xlink:href="#o" x="139.195" y="143.933"/><use xlink:href="#r" x="142.856" y="143.933"/><path fill="none" stroke="#000" stroke-miterlimit="10" stroke-width=".399" d="m163.797 122.074 2.82-2.816m-2.82 0 2.82 2.816"/><use xlink:href="#l" x="146.901" y="116.588"/><use xlink:href="#m" x="150.562" y="116.588"/><use xlink:href="#n" x="154.224" y="116.588"/><use xlink:href="#s" x="157.885" y="116.588"/><use xlink:href="#p" x="161.546" y="116.588"/><use xlink:href="#t" x="165.207" y="116.588"/><use xlink:href="#o" x="168.869" y="116.588"/><use xlink:href="#p" x="172.53" y="116.588"/><use xlink:href="#u" x="176.191" y="116.588"/><use xlink:href="#r" x="179.852" y="116.588"/><path fill="none" stroke="#000" stroke-miterlimit="10" stroke-width=".399" d="m289.855 76.191 2.817-2.816m-2.817 0 2.817 2.816"/><use xlink:href="#l" x="280.279" y="70.706"/><use xlink:href="#m" x="283.94" y="70.706"/><use xlink:href="#n" x="287.602" y="70.706"/><use xlink:href="#v" x="291.263" y="70.706"/><use xlink:href="#w" x="294.924" y="70.706"/><use xlink:href="#r" x="298.585" y="70.706"/><path fill="none" stroke="#000" stroke-miterlimit="10" stroke-width=".399" d="m45.406 147.207 2.817-2.816m-2.817 0 2.817 2.816"/><use xlink:href="#l" x="-.638" y="147.933"/><use xlink:href="#m" x="3.023" y="147.933"/><use xlink:href="#n" x="6.685" y="147.933"/><use xlink:href="#x" x="10.346" y="147.933"/><use xlink:href="#y" x="14.007" y="147.933"/><use xlink:href="#z" x="17.668" y="147.933"/><use xlink:href="#A" x="24.984" y="147.933"/><use xlink:href="#p" x="28.645" y="147.933"/><use xlink:href="#m" x="32.306" y="147.933"/><use xlink:href="#o" x="35.968" y="147.933"/><use xlink:href="#r" x="39.629" y="147.933"/><path fill="none" stroke="#000" stroke-miterlimit="10" stroke-width=".399" d="m163.797 147.207 2.82-2.816m-2.82 0 2.82 2.816"/><use xlink:href="#l" x="152.393" y="141.722"/><use xlink:href="#m" x="156.054" y="141.722"/><use xlink:href="#n" x="159.716" y="141.722"/><use xlink:href="#x" x="163.377" y="141.722"/><use xlink:href="#y" x="167.038" y="141.722"/><use xlink:href="#z" x="170.699" y="141.722"/><use xlink:href="#r" x="174.361" y="141.722"/><path fill="none" stroke="#000" stroke-miterlimit="10" stroke-width=".399" d="m310.605 147.207 2.817-2.816m-2.817 0 2.817 2.816"/><use xlink:href="#l" x="264.558" y="141.721"/><use xlink:href="#m" x="268.219" y="141.721"/><use xlink:href="#n" x="271.881" y="141.721"/><use xlink:href="#x" x="275.542" y="141.721"/><use xlink:href="#y" x="279.203" y="141.721"/><use xlink:href="#z" x="282.864" y="141.721"/><use xlink:href="#p" x="290.18" y="141.721"/><use xlink:href="#B" x="293.841" y="141.721"/><use xlink:href="#m" x="297.502" y="141.721"/><use xlink:href="#o" x="301.164" y="141.721"/><use xlink:href="#r" x="304.825" y="141.721"/><path fill="none" stroke="#000" stroke-miterlimit="10" stroke-width=".399" d="m45.406 149.422 2.817-2.82m-2.817 0 2.817 2.82"/><use xlink:href="#l" x="23.018" y="156.357"/><use xlink:href="#m" x="26.679" y="156.357"/><use xlink:href="#n" x="30.341" y="156.357"/><use xlink:href="#C" x="34.002" y="156.357"/><use xlink:href="#B" x="37.663" y="156.357"/><use xlink:href="#m" x="41.324" y="156.357"/><use xlink:href="#p" x="44.986" y="156.357"/><use xlink:href="#A" x="52.308" y="156.357"/><use xlink:href="#p" x="55.969" y="156.357"/><use xlink:href="#m" x="59.631" y="156.357"/><use xlink:href="#o" x="63.292" y="156.357"/><use xlink:href="#r" x="66.953" y="156.357"/><path fill="none" stroke="#000" stroke-miterlimit="10" stroke-width=".399" d="m163.797 149.422 2.82-2.82m-2.82 0 2.82 2.82"/><use xlink:href="#l" x="150.562" y="156.357"/><use xlink:href="#m" x="154.223" y="156.357"/><use xlink:href="#n" x="157.885" y="156.357"/><use xlink:href="#C" x="161.546" y="156.357"/><use xlink:href="#B" x="165.207" y="156.357"/><use xlink:href="#m" x="168.868" y="156.357"/><use xlink:href="#p" x="172.53" y="156.357"/><use xlink:href="#r" x="176.191" y="156.357"/><path fill="none" stroke="#000" stroke-miterlimit="10" stroke-width=".399" d="m308.395 149.422 2.816-2.82m-2.816 0 2.816 2.82"/><use xlink:href="#l" x="286.002" y="156.357"/><use xlink:href="#m" x="289.663" y="156.357"/><use xlink:href="#n" x="293.325" y="156.357"/><use xlink:href="#C" x="296.986" y="156.357"/><use xlink:href="#B" x="300.647" y="156.357"/><use xlink:href="#m" x="304.308" y="156.357"/><use xlink:href="#p" x="307.97" y="156.357"/><use xlink:href="#p" x="315.292" y="156.357"/><use xlink:href="#B" x="318.953" y="156.357"/><use xlink:href="#m" x="322.615" y="156.357"/><use xlink:href="#o" x="326.276" y="156.357"/><use xlink:href="#r" x="329.937" y="156.357"/><path fill="none" stroke="#000" stroke-miterlimit="10" stroke-width=".399" d="m335.719 122.074 2.82-2.816m-2.82 0 2.82 2.816"/><use xlink:href="#l" x="324.313" y="115.64"/><use xlink:href="#m" x="327.974" y="115.64"/><use xlink:href="#n" x="331.636" y="115.64"/><use xlink:href="#o" x="335.297" y="115.64"/><use xlink:href="#y" x="338.958" y="115.64"/><use xlink:href="#D" x="342.619" y="115.64"/><use xlink:href="#r" x="346.281" y="115.64"/><path fill="none" stroke="#000" stroke-miterlimit="10" stroke-width=".399" d="m225.477 11.836 2.82-2.816m-2.82 0 2.82 2.816"/><use xlink:href="#l" x="201.258" y="5.403"/><use xlink:href="#m" x="204.919" y="5.403"/><use xlink:href="#n" x="208.581" y="5.403"/><use xlink:href="#C" x="212.242" y="5.403"/><use xlink:href="#p" x="215.903" y="5.403"/><use xlink:href="#E" x="219.564" y="5.403"/><use xlink:href="#F" x="223.226" y="5.403"/><use xlink:href="#u" x="226.887" y="5.403"/><use xlink:href="#p" x="230.548" y="5.403"/><use xlink:href="#o" x="237.871" y="5.403"/><use xlink:href="#y" x="241.532" y="5.403"/><use xlink:href="#D" x="245.193" y="5.403"/><use xlink:href="#r" x="248.855" y="5.403"/><path fill="none" stroke="#000" stroke-miterlimit="10" stroke-width=".399" d="m225.477 232.313 2.82-2.817m-2.82 0 2.82 2.816"/><use xlink:href="#l" x="203.089" y="239.248"/><use xlink:href="#m" x="206.75" y="239.248"/><use xlink:href="#n" x="210.412" y="239.248"/><use xlink:href="#B" x="214.073" y="239.248"/><use xlink:href="#E" x="217.734" y="239.248"/><use xlink:href="#o" x="221.395" y="239.248"/><use xlink:href="#p" x="225.057" y="239.248"/><use xlink:href="#u" x="228.718" y="239.248"/><use xlink:href="#o" x="236.04" y="239.248"/><use xlink:href="#y" x="239.702" y="239.248"/><use xlink:href="#D" x="243.363" y="239.248"/><use xlink:href="#r" x="247.024" y="239.248"/><path fill="none" stroke="#000" stroke-miterlimit="10" stroke-width=".399" d="m225.477 64.379 2.82-2.817m-2.82 0 2.82 2.817"/><use xlink:href="#l" x="199.427" y="58.894"/><use xlink:href="#m" x="203.088" y="58.894"/><use xlink:href="#n" x="206.75" y="58.894"/><use xlink:href="#C" x="210.411" y="58.894"/><use xlink:href="#p" x="214.072" y="58.894"/><use xlink:href="#E" x="217.733" y="58.894"/><use xlink:href="#F" x="221.395" y="58.894"/><use xlink:href="#u" x="225.056" y="58.894"/><use xlink:href="#p" x="228.717" y="58.894"/><use xlink:href="#G" x="236.04" y="58.894"/><use xlink:href="#p" x="239.701" y="58.894"/><use xlink:href="#B" x="243.362" y="58.894"/><use xlink:href="#z" x="247.024" y="58.894"/><use xlink:href="#r" x="250.685" y="58.894"/><path fill="none" stroke="#000" stroke-miterlimit="10" stroke-width=".399" d="m225.477 179.77 2.82-2.817m-2.82 0 2.82 2.817"/><use xlink:href="#l" x="201.258" y="186.706"/><use xlink:href="#m" x="204.919" y="186.706"/><use xlink:href="#n" x="208.581" y="186.706"/><use xlink:href="#B" x="212.242" y="186.706"/><use xlink:href="#E" x="215.903" y="186.706"/><use xlink:href="#o" x="219.564" y="186.706"/><use xlink:href="#p" x="223.226" y="186.706"/><use xlink:href="#u" x="226.887" y="186.706"/><use xlink:href="#G" x="234.209" y="186.706"/><use xlink:href="#p" x="237.871" y="186.706"/><use xlink:href="#B" x="241.532" y="186.706"/><use xlink:href="#z" x="245.193" y="186.706"/><use xlink:href="#r" x="248.855" y="186.706"/><path fill="none" stroke="#000" stroke-miterlimit="10" stroke-width=".399" d="m45.422 64.379 2.816-2.817m-2.816 0 2.816 2.817"/><use xlink:href="#l" x="21.204" y="58.894"/><use xlink:href="#m" x="24.865" y="58.894"/><use xlink:href="#n" x="28.527" y="58.894"/><use xlink:href="#B" x="32.188" y="58.894"/><use xlink:href="#E" x="35.849" y="58.894"/><use xlink:href="#o" x="39.51" y="58.894"/><use xlink:href="#p" x="43.172" y="58.894"/><use xlink:href="#u" x="46.833" y="58.894"/><use xlink:href="#o" x="54.155" y="58.894"/><use xlink:href="#B" x="57.817" y="58.894"/><use xlink:href="#y" x="61.478" y="58.894"/><use xlink:href="#H" x="65.139" y="58.894"/><use xlink:href="#r" x="68.801" y="58.894"/><path fill="none" stroke="#000" stroke-miterlimit="10" stroke-width=".399" d="m45.422 179.77 2.816-2.817m-2.816 0 2.816 2.817"/><use xlink:href="#l" x="19.374" y="186.705"/><use xlink:href="#m" x="23.035" y="186.705"/><use xlink:href="#n" x="26.697" y="186.705"/><use xlink:href="#C" x="30.358" y="186.705"/><use xlink:href="#p" x="34.019" y="186.705"/><use xlink:href="#E" x="37.68" y="186.705"/><use xlink:href="#F" x="41.342" y="186.705"/><use xlink:href="#u" x="45.003" y="186.705"/><use xlink:href="#p" x="48.664" y="186.705"/><use xlink:href="#o" x="55.98" y="186.705"/><use xlink:href="#B" x="59.641" y="186.705"/><use xlink:href="#y" x="63.302" y="186.705"/><use xlink:href="#H" x="66.964" y="186.705"/><use xlink:href="#r" x="70.625" y="186.705"/><path fill="none" stroke="#000" stroke-miterlimit="10" stroke-width=".399" d="m45.422 122.074 2.816-2.816m-2.816 0 2.816 2.816"/><use xlink:href="#l" x="50.353" y="122.8"/><use xlink:href="#m" x="54.014" y="122.8"/><use xlink:href="#n" x="57.676" y="122.8"/><use xlink:href="#o" x="61.337" y="122.8"/><use xlink:href="#B" x="64.998" y="122.8"/><use xlink:href="#y" x="68.659" y="122.8"/><use xlink:href="#H" x="72.321" y="122.8"/><use xlink:href="#r" x="75.982" y="122.8"/><path fill="none" stroke="#000" stroke-miterlimit="10" stroke-width=".399" d="m163.805 64.367 2.816-2.82m-2.816 0 2.816 2.82"/><use xlink:href="#l" x="148.737" y="58.879"/><use xlink:href="#m" x="152.398" y="58.879"/><use xlink:href="#n" x="156.06" y="58.879"/><use xlink:href="#t" x="159.721" y="58.879"/><use xlink:href="#F" x="163.382" y="58.879"/><use xlink:href="#u" x="167.043" y="58.879"/><use xlink:href="#o" x="170.705" y="58.879"/><use xlink:href="#G" x="174.366" y="58.879"/><use xlink:href="#r" x="178.027" y="58.879"/><path fill="none" stroke="#000" stroke-miterlimit="10" stroke-width=".399" d="m163.805 179.773 2.816-2.816m-2.816 0 2.816 2.816"/><use xlink:href="#l" x="148.737" y="186.711"/><use xlink:href="#m" x="152.398" y="186.711"/><use xlink:href="#n" x="156.06" y="186.711"/><use xlink:href="#m" x="159.721" y="186.711"/><use xlink:href="#F" x="163.382" y="186.711"/><use xlink:href="#I" x="167.043" y="186.711"/><use xlink:href="#o" x="170.705" y="186.711"/><use xlink:href="#G" x="174.366" y="186.711"/><use xlink:href="#r" x="178.027" y="186.711"/><path fill="none" stroke="#000" stroke-miterlimit="10" stroke-width=".399" d="m335.742 122.07 2.82-2.816m-2.82 0 2.82 2.816"/><use xlink:href="#l" x="322.506" y="129.009"/><use xlink:href="#m" x="326.167" y="129.009"/><use xlink:href="#n" x="329.829" y="129.009"/><use xlink:href="#p" x="333.49" y="129.009"/><use xlink:href="#B" x="337.151" y="129.009"/><use xlink:href="#m" x="340.812" y="129.009"/><use xlink:href="#o" x="344.474" y="129.009"/><use xlink:href="#r" x="348.135" y="129.009"/><path fill="none" stroke="#000" stroke-miterlimit="10" stroke-width=".399" d="m45.406 122.07 2.817-2.82m-2.817 0 2.817 2.82"/><use xlink:href="#l" x="32.171" y="116.583"/><use xlink:href="#m" x="35.832" y="116.583"/><use xlink:href="#n" x="39.494" y="116.583"/><use xlink:href="#A" x="43.155" y="116.583"/><use xlink:href="#p" x="46.816" y="116.583"/><use xlink:href="#m" x="50.477" y="116.583"/><use xlink:href="#o" x="54.139" y="116.583"/><use xlink:href="#r" x="57.8" y="116.583"/><path fill="none" stroke="#000" stroke-miterlimit="10" stroke-width=".399" d="m106.102 64.371 2.816-2.816m-2.816 0 2.816 2.816"/><use xlink:href="#l" x="81.882" y="58.886"/><use xlink:href="#m" x="85.543" y="58.886"/><use xlink:href="#n" x="89.205" y="58.886"/><use xlink:href="#t" x="92.866" y="58.886"/><use xlink:href="#F" x="96.527" y="58.886"/><use xlink:href="#u" x="100.188" y="58.886"/><use xlink:href="#o" x="103.85" y="58.886"/><use xlink:href="#G" x="107.511" y="58.886"/><use xlink:href="#A" x="114.833" y="58.886"/><use xlink:href="#p" x="118.495" y="58.886"/><use xlink:href="#m" x="122.156" y="58.886"/><use xlink:href="#o" x="125.817" y="58.886"/><use xlink:href="#r" x="129.479" y="58.886"/><path fill="none" stroke="#000" stroke-miterlimit="10" stroke-width=".399" d="m249.773 36.102 2.817-2.817m-2.817 0 2.817 2.817"/><use xlink:href="#l" x="225.552" y="43.039"/><use xlink:href="#m" x="229.213" y="43.039"/><use xlink:href="#n" x="232.875" y="43.039"/><use xlink:href="#t" x="236.536" y="43.039"/><use xlink:href="#F" x="240.197" y="43.039"/><use xlink:href="#u" x="243.858" y="43.039"/><use xlink:href="#o" x="247.52" y="43.039"/><use xlink:href="#G" x="251.181" y="43.039"/><use xlink:href="#p" x="258.496" y="43.039"/><use xlink:href="#B" x="262.158" y="43.039"/><use xlink:href="#m" x="265.819" y="43.039"/><use xlink:href="#o" x="269.48" y="43.039"/><use xlink:href="#r" x="273.142" y="43.039"/><path fill="none" stroke="#000" stroke-miterlimit="10" stroke-width=".399" d="m106.102 179.773 2.816-2.82m-2.816 0 2.816 2.82"/><use xlink:href="#l" x="81.882" y="186.708"/><use xlink:href="#m" x="85.543" y="186.708"/><use xlink:href="#n" x="89.205" y="186.708"/><use xlink:href="#m" x="92.866" y="186.708"/><use xlink:href="#F" x="96.527" y="186.708"/><use xlink:href="#I" x="100.188" y="186.708"/><use xlink:href="#o" x="103.85" y="186.708"/><use xlink:href="#G" x="107.511" y="186.708"/><use xlink:href="#A" x="114.833" y="186.708"/><use xlink:href="#p" x="118.495" y="186.708"/><use xlink:href="#m" x="122.156" y="186.708"/><use xlink:href="#o" x="125.817" y="186.708"/><use xlink:href="#r" x="129.479" y="186.708"/><path fill="none" stroke="#000" stroke-miterlimit="10" stroke-width=".399" d="m249.773 208.043 2.817-2.82m-2.817 0 2.817 2.82"/><use xlink:href="#l" x="225.551" y="202.553"/><use xlink:href="#m" x="229.212" y="202.553"/><use xlink:href="#n" x="232.874" y="202.553"/><use xlink:href="#m" x="236.535" y="202.553"/><use xlink:href="#F" x="240.196" y="202.553"/><use xlink:href="#I" x="243.857" y="202.553"/><use xlink:href="#o" x="247.519" y="202.553"/><use xlink:href="#G" x="251.18" y="202.553"/><use xlink:href="#p" x="258.502" y="202.553"/><use xlink:href="#B" x="262.164" y="202.553"/><use xlink:href="#m" x="265.825" y="202.553"/><use xlink:href="#o" x="269.486" y="202.553"/><use xlink:href="#r" x="273.148" y="202.553"/></svg>