<svg xmlns="http://www.w3.org/2000/svg" xmlns:xlink="http://www.w3.org/1999/xlink" width="73.847" height="44.948"><defs><clipPath id="a"><path d="M0 0h23v44.922H0Zm0 0"/></clipPath><clipPath id="c"><path d="M24 6h49.77v35H24Zm0 0"/></clipPath><path id="b" d="M8.25 0v-.469h-.969L4.72-6.703c-.11-.25-.219-.25-.39-.25-.282 0-.329.078-.391.25l-2.47 6c-.062.156-.093.234-.843.234H.406V0l1.172-.031c.39 0 .938 0 1.313.031v-.469S2-.469 2-.594l.047-.125.5-1.203h2.672l.593 1.453H4.86V0c.391-.031 1.329-.031 1.766-.031.39 0 1.266 0 1.625.031M5.016-2.39H2.734l1.141-2.766Zm0 0"/><path id="d" d="M7.5-1.86c0-.952-.844-1.624-2.031-1.702 1.078-.204 1.718-.797 1.718-1.563 0-.922-.875-1.719-2.468-1.719H.39v.469h1.078v5.906H.39V0h4.625C6.672 0 7.5-.875 7.5-1.86M5.766-5.124c0 .766-.47 1.39-1.438 1.39H2.766v-2.64h1.812c1.016 0 1.188.797 1.188 1.25m.28 3.266c0 .109 0 1.39-1.437 1.39H2.766v-2.906h1.937c.203 0 .672 0 1.016.422.328.422.328.984.328 1.094m0 0"/></defs><g clip-path="url(#a)"><path fill="none" stroke="#000" stroke-miterlimit="10" stroke-width=".399" d="M1.133 39.887c0 2.113 3.426 3.824 7.648 3.824 4.227 0 7.649-1.711 7.649-3.824V5.016c0-2.114-3.422-3.825-7.649-3.825-4.222 0-7.648 1.711-7.648 3.825Zm0-34.871c0 2.113 3.426 3.824 7.648 3.824 4.227 0 7.649-1.711 7.649-3.824"/></g><use xlink:href="#b" x="4.452" y="29.517"/><g clip-path="url(#c)"><path fill="none" stroke="#000" stroke-miterlimit="10" stroke-width=".399" d="M30.043 30.793c0 2.043 9.516 3.7 21.258 3.7s21.261-1.657 21.261-3.7V15.406c0-2.043-9.519-3.699-21.261-3.699s-21.258 1.656-21.258 3.7Zm0-15.387c0 2.043 9.516 3.696 21.258 3.696s21.261-1.653 21.261-3.696"/></g><use xlink:href="#d" x="47.225" y="29.457"/></svg>