<svg xmlns="http://www.w3.org/2000/svg" width="92.324" height="62.876"><defs><clipPath id="a"><path d="M0 0h91.984v62.813H0Zm0 0"/></clipPath></defs><path fill="none" stroke="#7F7F7F" stroke-miterlimit="10" stroke-width=".199" d="M4.191 59.29h85.04M4.19 30.94h85.04M4.19 2.605h85.04M4.19 59.29V2.594M32.54 59.289V2.594m28.344 56.695V2.594m28.34 56.695V2.594"/><g clip-path="url(#a)"><path fill="none" stroke="#000" stroke-miterlimit="10" stroke-width=".399" d="m4.191 59.29 85.04-28.349c0-15.656-19.036-28.347-42.52-28.347S4.19 15.285 4.19 30.94"/></g><path d="m4.191 59.29-3.527-.505 1.637 1.133-.63 1.89M14.95 55.703l-3.532-.504 1.64 1.133-.632 1.89M25.703 52.117l-3.527-.504 1.637 1.133-.63 1.89M36.46 48.531l-3.526-.504 1.636 1.133-.629 1.89M47.215 44.945l-3.528-.504 1.641 1.137-.633 1.887M57.973 41.36l-3.528-.505 1.637 1.137-.629 1.89M68.73 37.777l-3.53-.504 1.64 1.133-.633 1.89M79.484 34.191l-3.527-.504 1.637 1.133-.63 1.89M89.2 29.848l-1.41 3.273 1.522-1.281 1.66 1.101M85.48 19.281l.47 3.535.648-1.882 1.992.093M77.457 11.36l1.703 3.132-.07-1.992 1.894-.625M67.406 6.172l2.43 2.605-.563-1.91L70.95 5.79M56.445 3.34l2.903 2.066-.938-1.758 1.43-1.39M45.148 2.613l3.223 1.516-1.23-1.563L48.297.941M41.012 2.848l-3.035 1.87 1.05-1.695-1.336-1.48M29.875 4.902l-2.621 2.414.707-1.863-1.59-1.2M19.41 9.207l-2.004 2.95.266-1.977-1.82-.809M10.469 16.105l-.989 3.426-.359-1.96-1.984-.204M4.875 25.848l.703 3.492-1.226-1.57-1.852.734"/></svg>