<svg xmlns="http://www.w3.org/2000/svg" width="58.997" height="58.952"><defs><clipPath id="a"><path d="M9 0h49.996v58.93H9Zm0 0"/></clipPath><clipPath id="b"><path d="M23 0h35.996v58.93H23Zm0 0"/></clipPath></defs><path fill="none" stroke="#7F7F7F" stroke-miterlimit="10" stroke-width=".199" d="M1.11 57.797H57.8M1.11 29.449H57.8M1.11 1.113H57.8M1.11 57.797V1.102m28.343 56.695V1.102m28.34 56.695V1.102"/><g clip-path="url(#a)"><path fill="none" stroke="#000" stroke-miterlimit="10" stroke-width=".399" d="m15.281 57.797 42.52-56.695"/></g><g clip-path="url(#b)"><path fill="none" stroke="#000" stroke-miterlimit="10" stroke-width=".399" d="m29.453 1.102 28.348 56.695"/></g><path fill="none" stroke="#000" stroke-miterlimit="10" stroke-width=".399" d="M42.785 23.777a1.993 1.993 0 1 0-1.992 1.996 1.994 1.994 0 0 0 1.992-1.996Zm0 0"/></svg>