<svg xmlns="http://www.w3.org/2000/svg" xmlns:xlink="http://www.w3.org/1999/xlink" width="95.926" height="82.892"><defs><clipPath id="e"><path d="M83 60h12.89v22H83Zm0 0"/></clipPath><clipPath id="f"><path d="M80 57h15.89v25.84H80Zm0 0"/></clipPath><clipPath id="g"><path d="M63 72h29v10.84H63Zm0 0"/></clipPath><clipPath id="h"><path d="M55 57h20v25.84H55Zm0 0"/></clipPath><clipPath id="i"><path d="M80 43h15.89v27H80Zm0 0"/></clipPath><clipPath id="k"><path d="M38 57h20v25.84H38Zm0 0"/></clipPath><clipPath id="l"><path d="M46 57h21v25.84H46Zm0 0"/></clipPath><clipPath id="o"><path d="M0 57h16v25.84H0Zm0 0"/></clipPath><clipPath id="p"><path d="M29 57h21v25.84H29Zm0 0"/></clipPath><path id="a" d="M4.922 0v-.469h-1.39v-5.734c0-.234 0-.328-.266-.328-.11 0-.125 0-.22.078-.765.562-1.796.562-2 .562H.845v.47h.203c.156 0 .703-.016 1.297-.204v5.156H.954V0c.437-.031 1.5-.031 1.984-.031s1.546 0 1.984.031m0 0"/><path id="b" d="M5.156-2.219h-.468c-.032.203-.125.844-.266.906-.11.063-.86.063-1.016.063H1.937c.47-.39 1-.812 1.438-1.14 1.14-.844 1.781-1.313 1.781-2.25 0-1.157-1.047-1.891-2.437-1.891-1.219 0-2.156.625-2.156 1.515 0 .594.484.735.718.735C1.61-4.281 2-4.5 2-5c0-.516-.422-.672-.562-.719.28-.234.671-.343 1.03-.343.845 0 1.313.671 1.313 1.421 0 .688-.375 1.375-1.078 2.079l-2 2.046c-.14.11-.14.141-.14.344V0h4.28Zm0 0"/><path id="c" d="M4.188 3.656c.468-.281 1.062-.953.609-2.36.516.485 1.36.829 2.11.407.656-.39.827-1.36.124-2.578-.593-1.031-1.547-1.375-2.234-.984-.36.218-.453.625-.266.953.235.39.657.437.953.265.5-.296.329-.812.313-.859.422.156.703.5.86.781C7.077 0 6.546.328 6.265.5 6.156.563 5 1.219 4.438.344c-.22-.344-.235-.375-.266-.39-.063-.095-.156-.063-.219-.032-.14.094-.094.187 0 .328l.219.375c.547.953-.313 1.438-.75 1.703-.406.235-1.297.735-1.813-.156A2.5 2.5 0 0 1 1.266.906c.265.235.593.328.953.125.39-.218.5-.64.281-1.031-.219-.36-.625-.516-1.062-.266-.782.454-.813 1.579-.172 2.688.89 1.531 2.125 1.687 2.922 1.234m0 0"/><path id="d" d="m-2.703 4.688.406.234.485-.844.953.547-.485.844.407.234.484-.844 3.625 2.094c.219.125.297.14.437-.11.11-.187.094-.187.016-.374L1.609 1.28l-.406-.234-1.437 2.5L-1.187 3l.562-.969-.406-.234c-.157.344-.61 1.125-.828 1.5-.203.344-.625 1.094-.844 1.39m2.828-.813L1.344 1.75 2.78 5.406Zm0 0"/><path id="j" d="M-5.156 2c0 1.156.797 2.078 2.265 2.078.282 0 .813-.031 1.282-.344v1.313C-1.891 5-2 4.969-2.33 4.969c-1.452 0-2.374 1.125-2.374 1.375 0 .078.016.187.14.187.032 0 .032 0 .141-.047a4.3 4.3 0 0 1 1.531-.28c.75 0 1.282.202 1.547.28.094.032.094.047.125.047.14 0 .14-.11.14-.265V3.344c0-.172 0-.297-.218-.297-.125 0-.156.031-.219.11-.39.468-.921.562-1.328.562-.89 0-.89-.875-.89-1.672 0-.735 0-1.735 1.187-1.735.25 0 .875.063 1.297.626-.36.015-.656.265-.656.671 0 .532.437.672.672.672.14 0 .672-.094.672-.703 0-.844-.782-1.687-2.016-1.687C-4.172-.11-5.156.78-5.156 2m0 0"/><path id="m" d="M-4.39-3.531c-1.22.703-1.329 1.937-.735 2.984.11.188.39.672 1.266.672l-.157.094C-5 .78-5.484.813-5.64.829A1.62 1.62 0 0 1-7.062.03c-.079-.156-.235-.468-.157-.781.235.281.563.328.813.172a.61.61 0 0 0 .234-.86c-.203-.343-.547-.406-.875-.218-.531.312-.875 1-.344 1.906.672 1.172 2.25 2.156 4.422.906.672-.39 1.328-.86 1.719-1.578.422-.781.25-1.531-.11-2.14-.687-1.188-1.874-1.641-3.03-.97m.671 1.187c.86-.5 1.516-.875 2.016.016.266.437.047.86-.047 1.015-.203.297-.828.657-.984.75-1.078.626-1.75.407-2.032-.078-.468-.828.172-1.203 1.047-1.703m0 0"/><path id="n" d="M-8.344-1.61-7.328.14c.125.204.812 1.516.844 1.641.078.203 0 .266-.063.313l.234.406 2.36-.969-.235-.39c-.703.297-.875.25-.921.218-.11-.062-.516-.765-.61-.921L-6.547-1c.266.031.547.094.828.156 1.453.266 2.985.203 4.25-.531.61-.344.328-.828.297-.875-.078-.14-.36-.531-.922-.203l-.406.234c-.406.235-.844.438-1.281.625-.625.266-1.235.375-1.75.266l-2.344-.438c-.14-.03-.172-.015-.469.157m0 0"/><path id="q" d="M1.016-5.469c-.938-.547-1.766-.047-2.25.235.03-.766-.203-1.266-.703-1.563-.875-.5-1.72.047-2.282 1.047-.687 1.188-.36 2.203.469 2.672.375.219 1.016.36 1.781-.078-.093.906.172 1.562.813 1.937 1.031.594 2.031-.093 2.672-1.203.797-1.375.453-2.5-.5-3.047m-3.313-.656c.422.234.578.625.625 1.14l-1.484.876c-.14.109-.438.25-.735.078-.609-.344-.203-1.14 0-1.5.407-.719 1-.938 1.594-.594m3.344 1.672c.719.422.406 1.312.125 1.812-.484.829-1.234 1.079-1.906.688-.672-.39-.782-1.063-.766-1.469l1.328-.797c.438-.265.797-.468 1.219-.234m0 0"/></defs><use xlink:href="#a" x="49.298" y="52.015"/><use xlink:href="#b" x="49.298" y="22.557"/><path fill="none" stroke="#7F7F7F" stroke-miterlimit="10" stroke-width=".199" d="M43.66 4.563h17.008"/><path fill="none" stroke="#000" stroke-miterlimit="10" stroke-width=".399" d="m43.66 4.563 8.504-3.399 8.504 3.399"/><path fill="none" stroke="#7F7F7F" stroke-miterlimit="10" stroke-width=".199" d="m60.668 4.563 8.504 14.73"/><path fill="none" stroke="#000" stroke-miterlimit="10" stroke-width=".399" d="m60.668 4.563 7.195 5.664 1.309 9.066"/><path fill="none" stroke="#7F7F7F" stroke-miterlimit="10" stroke-width=".199" d="m69.172 19.293-8.504 14.73"/><path fill="none" stroke="#000" stroke-miterlimit="10" stroke-width=".399" d="m69.172 19.293-1.309 9.066-7.195 5.664"/><path fill="none" stroke="#7F7F7F" stroke-miterlimit="10" stroke-width=".199" d="M60.668 34.023H43.66M43.66 34.023l-8.504-14.73"/><path fill="none" stroke="#000" stroke-miterlimit="10" stroke-width=".399" d="m43.66 34.023-7.2-5.664-1.304-9.066M35.156 19.293l8.504-14.73"/><use xlink:href="#c" x="64.96" y="38.056"/><path fill="none" stroke="#000" stroke-miterlimit="10" stroke-width=".399" d="m77.676 34.023-8.504 14.73"/><path fill="none" stroke="#7F7F7F" stroke-miterlimit="10" stroke-width=".199" d="m69.172 48.754-8.504-14.73"/><path fill="none" stroke="#000" stroke-miterlimit="10" stroke-width=".399" d="M60.668 34.023h17.008"/><use xlink:href="#d" x="76.277" y="59.367"/><g clip-path="url(#e)"><path fill="none" stroke="#7F7F7F" stroke-miterlimit="10" stroke-width=".199" d="M94.684 63.48 86.18 78.21"/></g><g clip-path="url(#f)"><path fill="none" stroke="#000" stroke-miterlimit="10" stroke-width=".399" d="m94.684 63.48-1.305 9.067-7.2 5.664"/></g><path fill="none" stroke="#7F7F7F" stroke-miterlimit="10" stroke-width=".199" d="M86.18 78.21H69.172"/><g clip-path="url(#g)"><path fill="none" stroke="#000" stroke-miterlimit="10" stroke-width=".399" d="m86.18 78.21-8.504 3.403-8.504-3.402"/></g><path fill="none" stroke="#7F7F7F" stroke-miterlimit="10" stroke-width=".199" d="m69.172 78.21-8.504-14.73"/><g clip-path="url(#h)"><path fill="none" stroke="#000" stroke-miterlimit="10" stroke-width=".399" d="m69.172 78.21-7.2-5.663-1.304-9.067"/></g><path fill="none" stroke="#7F7F7F" stroke-miterlimit="10" stroke-width=".199" d="m60.668 63.48 8.504-14.726M69.172 48.754H86.18"/><path fill="none" stroke="#000" stroke-miterlimit="10" stroke-width=".399" d="m69.172 48.754 8.504-3.402 8.504 3.402"/><g clip-path="url(#i)"><path fill="none" stroke="#000" stroke-miterlimit="10" stroke-width=".399" d="m86.18 48.754 8.504 14.726"/></g><use xlink:href="#j" x="55.027" y="65.184"/><g clip-path="url(#k)"><path fill="none" stroke="#000" stroke-miterlimit="10" stroke-width=".399" d="M52.164 78.21 43.66 63.48"/></g><path fill="none" stroke="#7F7F7F" stroke-miterlimit="10" stroke-width=".199" d="M43.66 63.48h17.008"/><g clip-path="url(#l)"><path fill="none" stroke="#000" stroke-miterlimit="10" stroke-width=".399" d="m60.668 63.48-8.504 14.73"/></g><use xlink:href="#m" x="30.861" y="64.358"/><use xlink:href="#n" x="13.944" y="74.126"/><g clip-path="url(#o)"><path fill="none" stroke="#000" stroke-miterlimit="10" stroke-width=".399" d="m1.137 78.21 8.508-14.73"/></g><path fill="none" stroke="#7F7F7F" stroke-miterlimit="10" stroke-width=".199" d="m9.645 63.48 8.503 14.73"/><path fill="none" stroke="#000" stroke-miterlimit="10" stroke-width=".399" d="M18.148 78.21H1.141"/><path fill="none" stroke="#7F7F7F" stroke-miterlimit="10" stroke-width=".199" d="m9.645 63.48 8.503-14.726"/><path fill="none" stroke="#000" stroke-miterlimit="10" stroke-width=".399" d="m9.645 63.48 1.304-9.062 7.2-5.664"/><path fill="none" stroke="#7F7F7F" stroke-miterlimit="10" stroke-width=".199" d="M18.148 48.754h17.008"/><path fill="none" stroke="#000" stroke-miterlimit="10" stroke-width=".399" d="m18.148 48.754 8.504-3.402 8.504 3.402"/><path fill="none" stroke="#7F7F7F" stroke-miterlimit="10" stroke-width=".199" d="M35.156 48.754 43.66 63.48M43.66 63.48l-8.504 14.73"/><g clip-path="url(#p)"><path fill="none" stroke="#000" stroke-miterlimit="10" stroke-width=".399" d="m43.66 63.48-1.308 9.067-7.196 5.664"/></g><path fill="none" stroke="#000" stroke-miterlimit="10" stroke-width=".399" d="M35.156 78.21H18.148"/><use xlink:href="#q" x="36.501" y="43.018"/><path fill="none" stroke="#000" stroke-miterlimit="10" stroke-width=".399" d="M26.652 34.023H43.66"/><path fill="none" stroke="#7F7F7F" stroke-miterlimit="10" stroke-width=".199" d="m43.66 34.023-8.504 14.73"/><path fill="none" stroke="#000" stroke-miterlimit="10" stroke-width=".399" d="m35.156 48.754-8.504-14.73"/></svg>