<svg xmlns="http://www.w3.org/2000/svg" width="91.244" height="61.796"><defs><clipPath id="a"><path d="M0 0h90.867v61.695H0Zm0 0"/></clipPath></defs><path fill="none" stroke="#7F7F7F" stroke-miterlimit="10" stroke-width=".199" d="M3.402 60.426h85.04M3.401 32.078h85.04M3.401 3.742h85.04M3.401 60.426V3.73M31.75 60.426V3.73m28.344 56.696V3.73m28.34 56.696V3.73"/><path fill="#D2C92A" d="m3.402 60.426 1.575-3.149 6.3 3.149 3.153-6.301 6.3 3.152 3.149-6.3 6.3 3.148 3.153-6.3 6.3 3.152 3.15-6.301 6.3 3.148 3.152-6.3 6.301 3.152 3.149-6.301 6.3 3.148 3.149-6.3 6.3 3.152 3.153-6.3 6.3 3.148-.94-5.676 3.613-5.488-6.985-2.579.903-6.613-7.329.207-1.187-6.687-6.938 2.093-2.683-6.312-6.344 3.422L55.2 1.844l-5.656 4.433-4.684-5.074-4.886 5.254-5.414-4.281-3.989 5.976-6.047-3.297-2.851 6.622-6.55-2.02-1.313 7.133-6.782-.254.934 7.277-6.277 2.23 4.023 6.27-4.797 4.63 4.985 4.984-4.985 4.98 4.985 4.98L.91 56.669l2.492 2.492z"/><g clip-path="url(#a)"><path fill="none" stroke="#000" stroke-miterlimit="10" stroke-width=".399" d="m3.402 60.426 1.575-3.149 6.3 3.149 3.153-6.301 6.3 3.152 3.149-6.3 6.3 3.148 3.153-6.3 6.3 3.152 3.15-6.301 6.3 3.148 3.152-6.3 6.301 3.152 3.149-6.301 6.3 3.148 3.149-6.3 6.3 3.152 3.153-6.3 6.3 3.148-.94-5.676 3.613-5.488-6.985-2.579.903-6.613-7.329.207-1.187-6.687-6.938 2.093-2.683-6.312-6.344 3.422L55.2 1.844l-5.656 4.433-4.684-5.074-4.886 5.254-5.414-4.281-3.989 5.976-6.047-3.297-2.851 6.622-6.55-2.02-1.313 7.133-6.782-.254.934 7.277-6.277 2.23 4.023 6.27-4.797 4.63 4.985 4.984-4.985 4.98 4.985 4.98L.91 56.669l2.492 2.492v1.266"/></g></svg>