<svg xmlns="http://www.w3.org/2000/svg" width="115.408" height="32.06"><defs><clipPath id="a"><path d="M78 18h18v13.59H78Zm0 0"/></clipPath><clipPath id="b"><path d="M81 15h17v16.59H81Zm0 0"/></clipPath></defs><path fill="none" stroke="#000" stroke-miterlimit="10" stroke-width=".399" d="M15.113 18.617h27.895v-6.972H15.113ZM27.664 6.91l5.137-5.137"/><path stroke="#000" stroke-linejoin="round" stroke-miterlimit="10" stroke-width=".39899601" d="m30.984 2.016 2.844-1.27-1.27 2.844Zm0 0"/><path fill="none" stroke="#000" stroke-miterlimit="10" stroke-width=".399" d="m30.453 9.7 5.137-5.134"/><path stroke="#000" stroke-linejoin="round" stroke-miterlimit="10" stroke-width=".39899601" d="m33.773 4.805 2.844-1.27-1.27 2.844Zm0 0"/><path fill="none" stroke="#000" stroke-miterlimit="10" stroke-width=".399" d="M81.395 19.488V10.77l8.52 4.359ZM81.395 15.129h8.718M90.113 19.488V10.77"/><g clip-path="url(#a)"><path fill="none" stroke="#000" stroke-miterlimit="10" stroke-width=".399" d="m84.36 24.223 5.136 5.132"/></g><path stroke="#000" stroke-linejoin="round" stroke-miterlimit="10" stroke-width=".39899601" d="m89.254 27.54 1.27 2.847-2.844-1.27Zm0 0"/><g clip-path="url(#b)"><path fill="none" stroke="#000" stroke-miterlimit="10" stroke-width=".399" d="m87.148 21.43 5.137 5.136"/></g><path stroke="#000" stroke-linejoin="round" stroke-miterlimit="10" stroke-width=".39899601" d="m92.043 24.75 1.27 2.844-2.844-1.27Zm0 0"/><path fill="none" stroke="#000" stroke-miterlimit="10" stroke-width=".399" d="M.715 15.129h14.2m28.292 0h37.988m9.118 0h23.789"/></svg>