<svg xmlns="http://www.w3.org/2000/svg" xmlns:xlink="http://www.w3.org/1999/xlink" width="412.13" height="21.17"><defs><path id="b" d="M14.281-.578c0-.078-.406-.078-.719-.078-.53 0-.562.015-.703.078-.78.312-2.218.406-3.75.406-4.14 0-4.14-.734-4.14-.953 0-.281 0-.937 3.843-.937 1.047 0 1.563.015 1.954.03-.547.079-.61.188-.61.235 0 .219 1.047.313 1.86.313.922 0 1.89-.11 1.89-.313 0-.437-3.469-.469-5.203-.469-5.36 0-7.562.579-7.562 1.157C1.14-.437 3.953.03 8.547.03c4.844 0 5.734-.578 5.734-.61m0 0"/><path id="c" d="M16.531-.125c0-.11-.39-.11-.781-.11-1.828 0-1.828-.062-1.828-.187v-1.062c0-.453-2.11-.782-6.563-.782-1.703 0-5.359.032-5.359.47 0 .218 1.047.312 1.86.312.921 0 1.874-.11 1.874-.313 0-.156-.562-.234-.656-.25.844-.031 1.797-.031 2.156-.031 2.235 0 3.282.203 3.282.594v.156c-2.11.016-9.703.062-9.703.797 0 .469 3.703.562 5.765.562 2.39 0 3.797-.203 4.453-.422 0 .157 0 .391 3.11.391h1.437c.594 0 .953 0 .953-.125m-6.015-.562c0 .468-2.75.53-3.485.53-1.531 0-2.734-.171-2.734-.39 0-.531 4.734-.61 6.219-.625Zm0 0"/><path id="d" d="M18.375 0v-.234h-2.062v-1.297c0-.516-1.61-.719-4.594-.719-2.875 0-4.453.297-5.235.547v-.547l-5.14.047v.234c1.86 0 2.062 0 2.062.188v1.547H1.344V0l3.765-.016L8.875 0v-.234H6.813v-1.047c0-.532 2.578-.782 4.453-.782 1.015 0 1.64.11 1.64.485v1.344h-2.062V0l3.765-.016Zm0 0"/><path id="e" d="M17.344-1.984v-.235c-.75.016-1.625.016-2.375.016L12.25-2.22v.235c.578 0 1.438.015 1.438.062 0 0 0 .016-.141.063L10.078-.625l-3.797-1.36h1.61v-.234l-3.703.016L.78-2.22v.235h1.906L7.923-.11c.36.125.75.125 1.14.125.5 0 .797-.016 1.094-.11l4.969-1.781c.172-.062.297-.11 2.219-.11m0 0"/><path id="f" d="M12.406-.703c0-.203-.594-.39-1.64-.516-1.172-.156-2.125-.187-4.453-.25-1.11-.031-3.047-.093-3.047-.328 0-.297 2.765-.297 3.343-.297 2.235 0 3.375.14 3.532.406.015.079.046.11.687.11.703 0 .703-.031.703-.14v-.407c0-.094 0-.14-.531-.14-.125 0-.172 0-1.344.109-.781-.078-1.828-.11-3.015-.11-.907 0-5.5 0-5.5.657 0 .203.593.343 1.187.422 1.203.171 2.328.203 4.64.28 1.079.032 3.313.095 3.313.391 0 .36-2.75.36-3.406.36-3.172 0-3.953-.36-4.297-.578-.156-.063-.312-.063-.719-.063-.718 0-.718.031-.718.14v.548c0 .093 0 .14.53.14.22 0 .266 0 .907-.078l.766-.078C4.719.031 6.28.031 6.875.031c.922 0 5.531 0 5.531-.734m0 0"/><path id="h" d="M4.766-1.172c0-.14-.141-.14-.235-.14-.187 0-.187.03-.25.156-.25.625-.734.812-1.234.812-1.39 0-1.39-1.453-1.39-1.922 0-.562 0-1.843 1.28-1.843.36 0 .516.015.657.046a.62.62 0 0 0-.203.47c0 .437.343.624.609.624.313 0 .64-.219.64-.625 0-.86-1.156-.922-1.734-.922C1.11-4.516.375-3.375.375-2.219.375-.89 1.313.063 2.844.063c1.625 0 1.922-1.157 1.922-1.235m0 0"/><path id="i" d="M5.406-2.172c0-1.344-.922-2.344-2.547-2.344C1.22-4.516.313-3.5.313-2.172c0 1.235.89 2.235 2.546 2.235 1.672 0 2.547-1.016 2.547-2.235m-1.281-.11c0 .86 0 1.938-1.266 1.938-1.265 0-1.265-1.078-1.265-1.937 0-.453 0-.953.172-1.297.187-.375.609-.578 1.093-.578.422 0 .844.156 1.063.5.203.344.203.89.203 1.375m0 0"/><path id="j" d="M4.406-3.672c0-.531-.531-.812-1.062-.812-.688 0-1.094.5-1.313 1.125v-1.125l-1.656.078v.468c.61 0 .688 0 .688.391v3.078H.375V0l1.25-.031C2-.031 2.641-.031 3 0v-.469h-.86v-1.75c0-.687.235-1.906 1.235-1.906 0 0-.187.172-.187.453 0 .406.328.61.609.61.297 0 .61-.204.61-.61m0 0"/><path id="k" d="M5.984 0v-.469c-.609 0-.687 0-.687-.39v-6.063l-1.766.078v.469c.625 0 .703 0 .703.39v1.954a2.18 2.18 0 0 0-1.359-.453c-1.453 0-2.5.875-2.5 2.28 0 1.313.922 2.267 2.39 2.267.61 0 1.094-.235 1.407-.485v.485ZM4.172-1.031c-.14.187-.547.734-1.297.734-1.219 0-1.219-1.203-1.219-1.906 0-.485 0-1.016.25-1.406.297-.422.766-.516 1.078-.516.563 0 .97.313 1.188.61Zm0 0"/><path id="l" d="M2.844 0v-.469h-.61v-4.015L.5-4.406v.468c.594 0 .656 0 .656.391v3.078H.47V0l1.219-.031Zm-.469-6.047a.774.774 0 0 0-.781-.781.784.784 0 0 0-.782.781c0 .422.36.766.782.766a.77.77 0 0 0 .781-.766m0 0"/><path id="m" d="M6.125 0v-.469h-.687v-2.578c0-1.047-.532-1.437-1.532-1.437-.953 0-1.484.562-1.75 1.078v-1.078l-1.703.078v.468c.61 0 .688 0 .688.391v3.078H.453V0l1.25-.031L2.953 0v-.469h-.687v-2.078c0-1.094.859-1.578 1.5-1.578.328 0 .547.203.547.969V-.47h-.688V0l1.25-.031Zm0 0"/><path id="n" d="M5.516-.234c0-.235-.125-.235-.266-.235-.61-.015-.61-.14-.61-.375v-2.14c0-.891-.702-1.532-2.187-1.532-.562 0-1.781.047-1.781.922 0 .438.344.625.61.625.312 0 .624-.219.624-.625 0-.297-.187-.469-.218-.5a5 5 0 0 1 .718-.062c.75 0 1.11.422 1.11 1.172v.343c-.72.032-3.25.125-3.25 1.563C.266-.125 1.5.062 2.188.062c.796 0 1.265-.406 1.484-.828 0 .313 0 .766 1.047.766h.468c.204 0 .329 0 .329-.234m-2-1.157c0 .97-.922 1.094-1.172 1.094-.516 0-.906-.344-.906-.797 0-1.062 1.578-1.203 2.078-1.234Zm0 0"/><path id="o" d="M3.813-1.234v-.532h-.47v.516c0 .672-.327.906-.609.906-.578 0-.578-.64-.578-.86v-2.75h1.469v-.468H2.156v-1.906h-.469c0 1-.484 1.984-1.484 2.016v.359h.828v2.734c0 1.063.86 1.282 1.578 1.282.75 0 1.204-.579 1.204-1.297m0 0"/><path id="p" d="M4.922-1.172c0-.172-.188-.172-.234-.172-.172 0-.188.047-.25.203-.204.485-.782.797-1.422.797-1.407 0-1.422-1.328-1.422-1.828h3.015c.22 0 .313 0 .313-.265 0-.313-.063-1.047-.563-1.547-.359-.36-.89-.532-1.578-.532C1.187-4.516.313-3.484.313-2.25c0 1.344 1 2.313 2.609 2.313 1.578 0 2-1.063 2-1.235M3.984-2.5h-2.39c.015-.39.031-.812.234-1.14.266-.391.672-.516.953-.516 1.172 0 1.188 1.312 1.203 1.656m0 0"/><clipPath id="a"><path d="M0 0h305v20.754H0Zm0 0"/></clipPath><clipPath id="g"><path d="M192 0h219.695v20.754H192Zm0 0"/></clipPath></defs><g clip-path="url(#a)"><path fill="none" stroke="#000" stroke-miterlimit="10" stroke-width="4.981" d="M14.173-.002C14.173 7.827 7.828 14.17 0 14.17S-14.173 7.827-14.173-.002c0-7.828 6.345-14.171 14.173-14.171S14.173-7.83 14.173-.002Zm0 0" transform="matrix(3 0 0 -.5 50.567 10.175)"/></g><use xlink:href="#b" x="114.773" y="11.289"/><use xlink:href="#c" x="130.046" y="11.289"/><use xlink:href="#d" x="146.753" y="11.289"/><use xlink:href="#e" x="164.895" y="11.289"/><use xlink:href="#c" x="181.124" y="11.289"/><use xlink:href="#f" x="197.832" y="11.289"/><g clip-path="url(#g)"><path fill="none" stroke="#000" stroke-miterlimit="10" stroke-width="4.981" d="M348.207 10.176c0-3.914-19.035-7.086-42.52-7.086-23.484 0-42.519 3.172-42.519 7.086s19.035 7.086 42.52 7.086c23.484 0 42.519-3.172 42.519-7.086Zm0 0"/></g><use xlink:href="#h" x="358.268" y="13.603"/><use xlink:href="#i" x="363.359" y="13.603"/><use xlink:href="#i" x="369.406" y="13.603"/><use xlink:href="#j" x="375.135" y="13.603"/><use xlink:href="#k" x="379.857" y="13.603"/><use xlink:href="#l" x="386.223" y="13.603"/><use xlink:href="#m" x="389.401" y="13.603"/><use xlink:href="#n" x="395.767" y="13.603"/><use xlink:href="#o" x="401.336" y="13.603"/><use xlink:href="#p" x="405.79" y="13.603"/></svg>