<svg xmlns="http://www.w3.org/2000/svg" xmlns:xlink="http://www.w3.org/1999/xlink" width="59.132" height="55.73"><defs><path id="a" d="M1.781-1.14C1.391-.485 1-.345.563-.314c-.125.016-.22.016-.22.204 0 .062.063.109.141.109.266 0 .579-.031.844-.031.344 0 .688.031 1 .031.063 0 .188 0 .188-.187 0-.11-.079-.125-.157-.125-.218-.016-.468-.094-.468-.344 0-.125.062-.235.14-.375l.766-1.266h2.5c.016.203.156 1.563.156 1.656 0 .297-.516.329-.719.329-.14 0-.234 0-.234.203C4.5 0 4.61 0 4.64 0c.407 0 .829-.031 1.235-.031.25 0 .89.031 1.14.031.048 0 .173 0 .173-.203 0-.11-.094-.11-.235-.11-.61 0-.61-.062-.64-.359l-.61-6.219c-.016-.203-.016-.25-.187-.25-.157 0-.203.079-.266.172Zm1.203-1.47 1.954-3.296.328 3.297Zm0 0"/><path id="b" d="M1.594-.781c-.094.39-.125.469-.907.469-.171 0-.265 0-.265.203C.422 0 .516 0 .688 0H4.25C5.828 0 7-1.172 7-2.156c0-.719-.578-1.297-1.547-1.406 1.031-.188 2.078-.922 2.078-1.876 0-.734-.656-1.375-1.843-1.375h-3.36c-.187 0-.281 0-.281.204 0 .109.094.109.281.109.016 0 .203 0 .375.016.172.03.266.03.266.172 0 .03-.016.062-.031.187Zm1.5-2.875.625-2.469c.094-.344.11-.375.531-.375h1.297c.875 0 1.078.594 1.078 1.031 0 .875-.86 1.813-2.062 1.813ZM2.656-.312h-.219c-.109-.016-.14-.032-.14-.11 0-.031 0-.047.062-.219l.688-2.78h1.875c.953 0 1.156.733 1.156 1.155 0 .985-.89 1.954-2.078 1.954Zm0 0"/><path id="c" d="M4.828-4.094 4-6.078c-.031-.078-.047-.125-.047-.125 0-.063.156-.25.578-.297.11-.016.203-.016.203-.187 0-.125-.125-.125-.156-.125-.406 0-.828.03-1.25.03-.25 0-.86-.03-1.11-.03-.062 0-.187 0-.187.203 0 .109.11.109.235.109.593 0 .656.094.75.313l1.172 2.78-2.11 2.266-.125.11C1.47-.5 1-.344.484-.313.36-.296.266-.296.266-.109c0 .015 0 .109.14.109.297 0 .625-.031.922-.031.375 0 .766.031 1.125.031.063 0 .172 0 .172-.203 0-.094-.094-.11-.11-.11-.093 0-.406-.03-.406-.312 0-.156.157-.312.266-.437l1.031-1.079.89-.984 1 2.39c.048.11.063.11.063.141 0 .078-.203.25-.578.282-.11.015-.203.015-.203.187 0 .125.11.125.14.125C5 0 5.704-.031 5.985-.031c.25 0 .86.031 1.11.031.062 0 .187 0 .187-.187 0-.125-.11-.125-.187-.125-.657 0-.688-.032-.86-.438-.375-.922-1.046-2.484-1.28-3.078.671-.703 1.718-1.89 2.046-2.156A1.98 1.98 0 0 1 8.266-6.5c.125-.016.218-.016.218-.203 0 0 0-.11-.125-.11-.296 0-.64.032-.937.032-.375 0-.75-.032-1.11-.032-.062 0-.187 0-.187.204 0 .062.047.093.11.109.093.016.406.031.406.313 0 .14-.11.265-.188.359Zm0 0"/><path id="d" d="M1.578-.781c-.094.39-.11.469-.906.469-.156 0-.266 0-.266.187C.406 0 .484 0 .672 0h3.312c2.063 0 4.032-2.11 4.032-4.281 0-1.407-.844-2.532-2.344-2.532H2.328c-.187 0-.297 0-.297.188 0 .125.078.125.281.125.126 0 .313.016.422.016.172.03.22.046.22.172 0 .03 0 .062-.032.187Zm2.156-5.344c.094-.344.11-.375.547-.375h1.063c.968 0 1.797.531 1.797 1.844 0 .484-.188 2.125-1.047 3.218A2.92 2.92 0 0 1 3.797-.312H2.453c-.094-.016-.125-.032-.125-.11 0-.031 0-.047.047-.219Zm0 0"/></defs><use xlink:href="#a" x=".215" y="50.012"/><use xlink:href="#b" x="50.159" y="42.925"/><path fill="none" stroke="#000" stroke-miterlimit="10" stroke-width=".399" d="m11.207 46.61 35.434-7.09"/><path fill="red" d="M27.926 44.063h1.992V42.07h-1.992Zm0 0"/><use xlink:href="#c" x="24.405" y="54.588"/><path fill="red" d="M21.79 13.375h1.991v-1.992H21.79Zm0 0"/><use xlink:href="#d" x="18.523" y="7.663"/><path fill="none" stroke="#000" stroke-miterlimit="10" stroke-width=".399" d="m11.207 46.61 11.176-33.036m1.453 0L46.64 39.52"/></svg>