<svg xmlns="http://www.w3.org/2000/svg" xmlns:xlink="http://www.w3.org/1999/xlink" width="275.528" height="92.792"><defs><path id="c" d="M5.516-.234c0-.235-.125-.235-.266-.235-.61-.015-.61-.14-.61-.375v-2.14c0-.891-.702-1.532-2.187-1.532-.562 0-1.781.047-1.781.922 0 .438.344.625.61.625.312 0 .624-.219.624-.625 0-.297-.187-.469-.218-.5a5 5 0 0 1 .718-.062c.75 0 1.11.422 1.11 1.172v.343c-.72.032-3.25.125-3.25 1.563C.266-.125 1.5.062 2.188.062c.796 0 1.265-.406 1.484-.828 0 .313 0 .766 1.047.766h.468c.204 0 .329 0 .329-.234m-2-1.157c0 .97-.922 1.094-1.172 1.094-.516 0-.906-.344-.906-.797 0-1.062 1.578-1.203 2.078-1.234Zm0 0"/><path id="d" d="M5.984-2.219c0-1.328-.937-2.265-2.39-2.265-.719 0-1.219.28-1.453.484v-2.922l-1.766.078v.469c.61 0 .688 0 .688.39V0h.468c.157-.187.328-.375.485-.562.078.078.562.625 1.453.625 1.484 0 2.515-.907 2.515-2.282m-1.28 0c0 .469 0 1.016-.25 1.406-.298.407-.75.516-1.079.516-.687 0-1.078-.547-1.187-.687v-2.5c.28-.36.75-.641 1.296-.641 1.22 0 1.22 1.203 1.22 1.906m0 0"/><path id="e" d="M4.766-1.172c0-.14-.141-.14-.235-.14-.187 0-.187.03-.25.156-.25.625-.734.812-1.234.812-1.39 0-1.39-1.453-1.39-1.922 0-.562 0-1.843 1.28-1.843.36 0 .516.015.657.046a.62.62 0 0 0-.203.47c0 .437.343.624.609.624.313 0 .64-.219.64-.625 0-.86-1.156-.922-1.734-.922C1.11-4.516.375-3.375.375-2.219.375-.89 1.313.063 2.844.063c1.625 0 1.922-1.157 1.922-1.235m0 0"/><path id="f" d="M5.984 0v-.469c-.609 0-.687 0-.687-.39v-6.063l-1.766.078v.469c.625 0 .703 0 .703.39v1.954a2.18 2.18 0 0 0-1.359-.453c-1.453 0-2.5.875-2.5 2.28 0 1.313.922 2.267 2.39 2.267.61 0 1.094-.235 1.407-.485v.485ZM4.172-1.031c-.14.187-.547.734-1.297.734-1.219 0-1.219-1.203-1.219-1.906 0-.485 0-1.016.25-1.406.297-.422.766-.516 1.078-.516.563 0 .97.313 1.188.61Zm0 0"/><path id="g" d="M4.922-1.172c0-.172-.188-.172-.234-.172-.172 0-.188.047-.25.203-.204.485-.782.797-1.422.797-1.407 0-1.422-1.328-1.422-1.828h3.015c.22 0 .313 0 .313-.265 0-.313-.063-1.047-.563-1.547-.359-.36-.89-.532-1.578-.532C1.187-4.516.313-3.484.313-2.25c0 1.344 1 2.313 2.609 2.313 1.578 0 2-1.063 2-1.235M3.984-2.5h-2.39c.015-.39.031-.812.234-1.14.266-.391.672-.516.953-.516 1.172 0 1.188 1.312 1.203 1.656m0 0"/><path id="h" d="M4.36-6.11c0-.421-.36-.874-1.141-.874-.969 0-2.047.422-2.047 1.547v1.015h-.75v.469h.75V-.47H.484V0l1.25-.031c.375 0 1.016 0 1.375.031v-.469H2.25v-3.484h1.14v-.469H2.188v-1.016c0-1.093.75-1.187 1-1.187.047 0 .11 0 .172.031a.59.59 0 0 0-.234.485c0 .422.36.609.61.609.296 0 .624-.203.624-.61m0 0"/><path id="i" d="M5.563-3.953c0-.235-.172-.578-.625-.578-.157 0-.625.031-1.063.375-.172-.125-.594-.328-1.328-.328-1.438 0-1.985.78-1.985 1.468 0 .407.188.829.516 1.047-.281.36-.344.688-.344.89 0 .157.047.642.438.954-.125.031-.86.25-.86.875C.313 1.25.876 2 2.86 2 4.625 2 5.406 1.422 5.406.719c0-.297-.078-.922-.75-1.266-.562-.281-1.156-.281-2.11-.281-.265 0-.718 0-.765-.016a.625.625 0 0 1-.562-.625c0-.093.047-.25.11-.328.452.234.968.266 1.218.266 1.437 0 1.984-.782 1.984-1.485 0-.468-.25-.796-.406-.953.297-.156.516-.172.625-.187a.43.43 0 0 0-.047.203c0 .25.172.422.438.422a.41.41 0 0 0 .422-.422m-2.141.937c0 .454 0 1.125-.875 1.125s-.875-.671-.875-1.125c0-.437 0-1.109.875-1.109s.875.672.875 1.11M4.547.75c0 .36-.39.89-1.688.89-1.187 0-1.687-.452-1.687-.906 0-.609.625-.609.766-.609h1.171c.313 0 1.438 0 1.438.625m0 0"/><clipPath id="a"><path d="M196 66h79.293v26.688H196Zm0 0"/></clipPath><clipPath id="b"><path d="M196 49h79.293v35H196Zm0 0"/></clipPath></defs><g clip-path="url(#a)"><path fill="none" stroke="#000" stroke-miterlimit="10" stroke-width=".797" d="M264.797 89.414H212.09a3.987 3.987 0 0 1-3.988-3.984v-7.5"/></g><g clip-path="url(#b)"><path fill="none" stroke="#000" stroke-miterlimit="10" stroke-width=".797" d="M264.797 61.066H212.09a3.987 3.987 0 0 0-3.988 3.985v7.5"/></g><path fill="none" stroke="#000" stroke-miterlimit="10" stroke-width=".797" d="M208.102 32.719h-24.36a3.984 3.984 0 0 1-3.984-3.985v-7.5M208.102 4.371h-24.36a3.984 3.984 0 0 0-3.984 3.988v7.496M9.676 39.805H48.21c2.2 0 3.984-1.782 3.984-3.985v-7.496M9.676 11.46H48.21c2.2 0 3.984 1.782 3.984 3.985v7.496M9.676 68.152h66.883c2.199 0 3.984-1.785 3.984-3.984V49.582M205.414 75.238h-92.539a3.98 3.98 0 0 1-3.984-3.984V49.582M177.066 18.547h-64.191a3.984 3.984 0 0 0-3.984 3.984v21.672M106.2 46.895H83.23M54.887 25.633h21.672c2.199 0 3.984 1.785 3.984 3.984v14.586"/><use xlink:href="#c" x="268.317" y="91.639"/><use xlink:href="#d" x="268.317" y="64.493"/><use xlink:href="#e" x="211.624" y="34.947"/><use xlink:href="#f" x="211.624" y="7.801"/><use xlink:href="#g" x=".909" y="42.033"/><use xlink:href="#h" x="2.662" y="14.947"/><use xlink:href="#i" x=".431" y="69.418"/><path fill="none" stroke="#000" stroke-miterlimit="10" stroke-width=".399" d="M210.594 75.238a2.487 2.487 0 0 0-2.489-2.488 2.49 2.49 0 0 0-2.492 2.488 2.49 2.49 0 0 0 2.492 2.492 2.49 2.49 0 0 0 2.489-2.492ZM182.246 18.547a2.49 2.49 0 1 0-4.98 0 2.49 2.49 0 1 0 4.98 0ZM111.383 46.895a2.491 2.491 0 1 0-4.983-.002 2.491 2.491 0 0 0 4.983.002ZM54.688 25.633a2.49 2.49 0 1 0-4.981 0 2.49 2.49 0 1 0 4.98 0ZM83.035 46.895a2.49 2.49 0 0 0-2.488-2.493 2.49 2.49 0 0 0-2.492 2.493 2.49 2.49 0 0 0 2.492 2.488 2.487 2.487 0 0 0 2.488-2.488Zm0 0"/></svg>