<svg xmlns="http://www.w3.org/2000/svg" width="229.2" height="44.948"><defs><clipPath id="a"><path d="M0 0h92v44.922H0Zm0 0"/></clipPath><clipPath id="b"><path d="M165 9h63.8v35.922H165Zm0 0"/></clipPath></defs><g clip-path="url(#a)"><path fill="none" stroke="#000" stroke-miterlimit="10" stroke-width=".399" d="M.816 29.54C.816 13.882 13.508 1.19 29.164 1.19l28.348 14.172c15.656 0 28.343 12.692 28.343 28.348"/></g><path fill="none" stroke="#000" stroke-miterlimit="10" stroke-width=".399" d="m114.203 29.54 24.55-14.177A28.36 28.36 0 0 0 128.38 4.988Zm0 0"/><g clip-path="url(#b)"><path fill="none" stroke="#000" stroke-miterlimit="10" stroke-width=".399" d="M227.59 29.54c0-7.83-12.692-14.177-28.344-14.177-15.656 0-28.348 6.348-28.348 14.176s12.692 14.172 28.348 14.172Zm0 0"/></g></svg>