<svg xmlns="http://www.w3.org/2000/svg" xmlns:xlink="http://www.w3.org/1999/xlink" width="136.838" height="69.41"><defs><path id="b" d="M3.078.313c0-.125-.047-.157-.187-.25C2.063-.5 1.75-1.391 1.75-2.125c0-.672.25-1.594 1.156-2.203.125-.094.172-.125.172-.25a.254.254 0 0 0-.265-.25c-.204 0-1.641.906-1.641 2.703 0 .813.312 1.438.562 1.781.375.516.907.907 1.079.907.218 0 .265-.172.265-.25m0 0"/><path id="c" d="M3.219-.906c0-.735-.906-.906-1.14-.938l-.704-.125C1.188-2 1-2.079 1-2.25c0-.156.219-.328.813-.328.515 0 .609.172.625.328.015.14.03.281.28.281.298 0 .298-.156.298-.328v-.469c0-.14-.016-.328-.25-.328-.157 0-.22.063-.25.125-.282-.125-.563-.125-.688-.125-1.187 0-1.344.594-1.344.844 0 .656.735.797 1.391.89.297.063.828.141.828.454 0 .234-.25.422-.828.422-.297 0-.656-.063-.812-.563C1.03-1.203.984-1.28.78-1.28c-.297 0-.297.172-.297.328v.656c0 .14 0 .344.25.344.079 0 .188 0 .282-.234.328.218.672.234.859.234 1.125 0 1.344-.61 1.344-.953m0 0"/><path id="d" d="M2.313-.469a.477.477 0 0 0-.485-.484.47.47 0 0 0-.469.469c0 .28.22.484.47.484a.473.473 0 0 0 .484-.469m0 0"/><path id="e" d="M3.578-.266c0-.25-.203-.25-.328-.25H3v-1.53c0-.72-.36-1.032-.937-1.032-.391 0-.672.172-.844.297 0-.172-.047-.25-.313-.25h-.5c-.14 0-.328 0-.328.25 0 .265.203.265.313.265h.25v2H.406c-.14 0-.328 0-.328.25C.078 0 .281 0 .391 0h1.093c.11 0 .329 0 .329-.266 0-.25-.204-.25-.344-.25h-.25v-1.156c0-.64.484-.875.797-.875.328 0 .406.172.406.547v1.484h-.203c-.14 0-.344 0-.344.25 0 .266.219.266.344.266H3.25c.11 0 .328 0 .328-.266m0 0"/><path id="f" d="M3.281-1.516c0-.89-.672-1.578-1.453-1.578-.797 0-1.453.688-1.453 1.578S1.047.047 1.828.047c.766 0 1.453-.688 1.453-1.563m-.578-.046c0 .593-.406 1.078-.875 1.078S.953-.97.953-1.562s.422-1.016.875-1.016.875.422.875 1.015m0 0"/><path id="g" d="M3.406-2.594c0-.156-.078-.484-.703-.484-.328 0-.734.11-1.094.469v-.094c0-.25-.046-.328-.328-.328h-.75c-.125 0-.328 0-.328.25 0 .265.203.265.328.265h.5v2h-.5c-.125 0-.328 0-.328.25C.203 0 .406 0 .531 0h1.781c.126 0 .329 0 .329-.266 0-.25-.203-.25-.328-.25h-.704v-.796c0-.61.36-1.22 1.11-1.235 0 .156.172.281.344.281.187 0 .343-.125.343-.328m0 0"/><path id="h" d="M3.14-.906c0-.156 0-.313-.296-.313-.266 0-.266.157-.266.297-.015.375-.36.438-.515.438-.454 0-.454-.313-.454-.47v-1.562h1.047c.125 0 .328 0 .328-.265 0-.25-.187-.25-.328-.25H1.61v-.516c0-.14-.015-.328-.296-.328-.282 0-.282.172-.282.328v.516H.484c-.125 0-.328 0-.328.25 0 .265.203.265.328.265h.547v1.61c0 .687.485.953 1.016.953S3.14-.266 3.14-.906m0 0"/><path id="i" d="M3.578-.266c0-.25-.203-.25-.328-.25H3v-1.53c0-.72-.36-1.032-.937-1.032-.391 0-.672.172-.844.297v-1.14c0-.25-.047-.345-.313-.345h-.5c-.14 0-.328.016-.328.266s.203.266.313.266h.25v3.218H.406c-.14 0-.328 0-.328.25C.078 0 .281 0 .391 0h1.093c.11 0 .329 0 .329-.266 0-.25-.204-.25-.344-.25h-.25v-1.156c0-.64.484-.875.797-.875.328 0 .406.172.406.547v1.484h-.203c-.14 0-.344 0-.344.25 0 .266.219.266.344.266H3.25c.11 0 .328 0 .328-.266m0 0"/><path id="j" d="M2.484-2.125c0-.828-.312-1.453-.562-1.797-.375-.515-.906-.906-1.078-.906-.203 0-.266.187-.266.25 0 .125.094.187.14.219 1.095.718 1.188 1.797 1.188 2.234 0 .656-.25 1.578-1.14 2.188C.64.14.578.188.578.313c0 .078.063.25.266.25s1.64-.907 1.64-2.688m0 0"/><path id="k" d="M3.578-.266c0-.25-.219-.25-.328-.25H3v-2.187c0-.25-.047-.328-.328-.328h-.485c-.14 0-.343 0-.343.25 0 .265.218.265.328.265h.25v1.391c0 .563-.516.64-.719.64-.469 0-.484-.187-.484-.39v-1.828c0-.25-.047-.328-.313-.328h-.5c-.14 0-.328 0-.328.25 0 .265.203.265.313.265h.25v1.688c0 .687.5.875 1.03.875.266 0 .517-.063.767-.219C2.484 0 2.625 0 2.75 0h.5c.125 0 .328 0 .328-.266m0 0"/><path id="l" d="M3.422-1.516c0-.875-.64-1.562-1.39-1.562-.298 0-.579.11-.813.281 0-.172-.063-.234-.313-.234h-.5c-.14 0-.343 0-.343.25 0 .265.218.265.328.265h.25v3.5H.406c-.14 0-.343 0-.343.266 0 .25.218.25.328.25h1.093c.11 0 .329 0 .329-.25 0-.266-.204-.266-.344-.266h-.25V-.234c.265.234.531.28.734.28.766 0 1.469-.671 1.469-1.562m-.578 0c0 .61-.453 1.032-.906 1.032-.485 0-.704-.563-.704-.875v-.485c0-.375.375-.703.766-.703.469 0 .844.469.844 1.031m0 0"/><path id="m" d="M3.188-.266c0-.25-.204-.25-.329-.25h-.656v-2.187c0-.25-.047-.328-.328-.328H.906c-.125 0-.328 0-.328.25 0 .265.203.265.328.265h.719v2H.859c-.14 0-.343 0-.343.25C.516 0 .734 0 .859 0h2c.125 0 .329 0 .329-.266m-.954-3.562a.39.39 0 0 0-.406-.39.387.387 0 0 0-.39.39c0 .219.171.39.39.39a.39.39 0 0 0 .406-.39m0 0"/><clipPath id="a"><path d="M0 0h136.758v69.113H0Zm0 0"/></clipPath></defs><path fill="none" stroke="#B2B2B2" stroke-miterlimit="10" stroke-width="14.173" d="M36.21 34.402h60.595"/><g clip-path="url(#a)"><path fill="none" stroke="#B2B2B2" stroke-linecap="round" stroke-miterlimit="10" stroke-width="14.173" d="m43.297 19.39 35.367 15.012-35.367 15.012"/></g><path fill="none" stroke="#000" stroke-miterlimit="10" stroke-width=".399" d="m65.098 11.008 2.82-2.817m-2.82 0 2.82 2.817"/><use xlink:href="#b" x="50.033" y="5.521"/><use xlink:href="#c" x="53.694" y="5.521"/><use xlink:href="#d" x="57.356" y="5.521"/><use xlink:href="#e" x="61.017" y="5.521"/><use xlink:href="#f" x="64.678" y="5.521"/><use xlink:href="#g" x="68.339" y="5.521"/><use xlink:href="#h" x="72.001" y="5.521"/><use xlink:href="#i" x="75.662" y="5.521"/><use xlink:href="#j" x="79.323" y="5.521"/><path fill="none" stroke="#000" stroke-miterlimit="10" stroke-width=".399" d="m65.098 60.613 2.82-2.816m-2.82 0 2.82 2.816"/><use xlink:href="#b" x="50.033" y="67.551"/><use xlink:href="#c" x="53.694" y="67.551"/><use xlink:href="#d" x="57.356" y="67.551"/><use xlink:href="#c" x="61.017" y="67.551"/><use xlink:href="#f" x="64.678" y="67.551"/><use xlink:href="#k" x="68.339" y="67.551"/><use xlink:href="#h" x="72.001" y="67.551"/><use xlink:href="#i" x="75.662" y="67.551"/><use xlink:href="#j" x="79.323" y="67.551"/><path fill="none" stroke="#000" stroke-miterlimit="10" stroke-width=".399" d="m95.398 35.813 2.817-2.82m-2.817 0 2.817 2.82"/><use xlink:href="#b" x="100.326" y="36.062"/><use xlink:href="#c" x="103.987" y="36.062"/><use xlink:href="#d" x="107.649" y="36.062"/><use xlink:href="#f" x="111.31" y="36.062"/><use xlink:href="#k" x="114.971" y="36.062"/><use xlink:href="#h" x="118.632" y="36.062"/><use xlink:href="#l" x="122.294" y="36.062"/><use xlink:href="#k" x="125.955" y="36.062"/><use xlink:href="#h" x="129.616" y="36.062"/><use xlink:href="#j" x="133.277" y="36.062"/><path fill="none" stroke="#000" stroke-miterlimit="10" stroke-width=".399" d="m34.8 35.813 2.817-2.82m-2.816 0 2.816 2.82"/><use xlink:href="#b" x="-.26" y="36.062"/><use xlink:href="#c" x="3.401" y="36.062"/><use xlink:href="#d" x="7.063" y="36.062"/><use xlink:href="#m" x="10.724" y="36.062"/><use xlink:href="#e" x="14.385" y="36.062"/><use xlink:href="#l" x="18.046" y="36.062"/><use xlink:href="#k" x="21.708" y="36.062"/><use xlink:href="#h" x="25.369" y="36.062"/><use xlink:href="#j" x="29.03" y="36.062"/></svg>