<svg xmlns="http://www.w3.org/2000/svg" width="30.573" height="30.548"><defs><clipPath id="a"><path d="M0 18h30.36v12.32H0Zm0 0"/></clipPath><clipPath id="b"><path d="M0 13h30.36v17.32H0Zm0 0"/></clipPath><clipPath id="c"><path d="M0 9h30.36v21.32H0Zm0 0"/></clipPath><clipPath id="d"><path d="M6.672 14.95h8.504v8.503H6.672Zm0 0"/></clipPath><clipPath id="e"><path d="M0 0h17v30.32H0Zm0 0"/></clipPath><clipPath id="f"><path d="M0 0h12v30.32H0Zm0 0"/></clipPath></defs><path fill="none" stroke="#000" stroke-miterlimit="10" stroke-width=".399" d="M1.004 29.121h28.348"/><g clip-path="url(#a)"><path fill="none" stroke="#000" stroke-miterlimit="10" stroke-width=".399" d="M1.004 29.121 28.918 24.2"/></g><g clip-path="url(#b)"><path fill="none" stroke="#000" stroke-miterlimit="10" stroke-width=".399" d="m1.004 29.121 26.637-9.695"/></g><g clip-path="url(#c)"><path fill="none" stroke="#000" stroke-miterlimit="10" stroke-width=".399" d="M1.004 29.121 25.55 14.95"/></g><path fill="red" d="M6.672 23.453V14.95h8.504v8.504Zm0 0"/><g fill="none" stroke="#000" stroke-miterlimit="10" stroke-width=".399" clip-path="url(#d)"><path d="m1.004 29.121 21.715-18.219M1.004 29.121 19.223 7.406M1.004 29.121 15.176 4.574"/></g><g clip-path="url(#e)"><path fill="none" stroke="#000" stroke-miterlimit="10" stroke-width=".399" d="m1.004 29.121 9.695-26.637"/></g><g clip-path="url(#f)"><path fill="none" stroke="#000" stroke-miterlimit="10" stroke-width=".399" d="M1.004 29.121 5.926 1.207"/></g><path fill="none" stroke="#000" stroke-miterlimit="10" stroke-width=".399" d="M1.004 29.121V.773"/></svg>