<svg xmlns="http://www.w3.org/2000/svg" width="161.679" height="24.14"><path d="M11.043 7.105c-.355-2.011-3.285-1.882-3.086-.753.2 1.132 3.441 2.765 3.086.753M7.945 4.207c.067.61 2.52.86 2.176-.246-.348-1.11-2.246-.363-2.176.246M6.004 1.703c.266.395 2.043-.305 1.414-.945-.633-.637-1.676.55-1.414.945m1.18 1.035c.195.492 2.293.153 1.757-.691-.539-.844-1.953.203-1.757.691M2.973 6.23c-.676.211-1.125-.328-.782-.992 1.09-2.113 2.672 2.711 4.551 2.043 1.563-.554.196-5.402-2.422-5.52C2.55 1.68.535 4.044.89 6.075c.176 1 1.282 1.992 2.465 2.008.899.012.18-2.031-.382-1.852m23.015 9.946c-.355 2.012-3.289 1.883-3.09.75.204-1.13 3.442-2.762 3.09-.75m-3.101 2.894c.07-.605 2.523-.855 2.175.25-.343 1.106-2.242.36-2.175-.25m-1.938 2.508c.266-.394 2.043.3 1.41.942-.629.64-1.675-.547-1.41-.942m1.18-1.039c.191-.492 2.289-.148 1.754.695-.535.844-1.95-.203-1.754-.695m-4.215-3.488c-.676-.211-1.121.324-.777.988 1.09 2.113 2.668-2.71 4.55-2.043 1.56.555.196 5.402-2.421 5.524-1.77.078-3.79-2.286-3.43-4.313.176-1 1.281-1.996 2.46-2.008.903-.011.18 2.028-.382 1.852M40.93 7.105c-.352-2.011-3.285-1.882-3.086-.753.199 1.132 3.441 2.765 3.086.753m-3.098-2.898c.07.61 2.523.86 2.176-.246-.348-1.11-2.246-.363-2.176.246m-1.937-2.504c.261.395 2.042-.305 1.41-.945-.633-.637-1.676.55-1.41.945m1.175 1.035c.196.492 2.293.153 1.758-.691s-1.95.203-1.758.691M32.86 6.23c-.676.211-1.122-.328-.782-.992 1.09-2.113 2.672 2.711 4.55 2.043 1.563-.554.196-5.402-2.417-5.52-1.77-.081-3.79 2.282-3.43 4.313.176 1 1.282 1.992 2.461 2.008.899.012.18-2.031-.383-1.852m23.015 9.946c-.355 2.012-3.285 1.883-3.086.75.2-1.13 3.441-2.762 3.086-.75m-3.098 2.894c.07-.605 2.52-.855 2.176.25-.348 1.106-2.246.36-2.176-.25m-1.941 2.508c.266-.394 2.047.3 1.414.942-.633.64-1.676-.547-1.414-.942m1.18-1.039c.195-.492 2.293-.148 1.757.695-.539.844-1.949-.203-1.757-.695m-4.211-3.488c-.676-.211-1.125.324-.782.988 1.09 2.113 2.672-2.71 4.551-2.043 1.563.555.196 5.402-2.422 5.524-1.77.078-3.785-2.286-3.43-4.313.176-1 1.282-1.996 2.465-2.008.899-.011.18 2.028-.382 1.852M70.82 7.105c-.355-2.011-3.285-1.882-3.086-.753.2 1.132 3.442 2.765 3.086.753M67.72 4.207c.07.61 2.523.86 2.176-.246-.344-1.11-2.243-.363-2.176.246M65.78 1.703c.266.395 2.043-.305 1.414-.945-.632-.637-1.675.55-1.414.945m1.18 1.035c.195.492 2.289.153 1.754-.691s-1.95.203-1.754.691M62.746 6.23c-.672.211-1.121-.328-.777-.992 1.09-2.113 2.668 2.711 4.55 2.043 1.56-.554.196-5.402-2.421-5.52-1.77-.081-3.79 2.282-3.43 4.313.176 1 1.281 1.992 2.46 2.008.903.012.184-2.031-.382-1.852m23.016 9.946c-.352 2.012-3.285 1.883-3.086.75.199-1.13 3.441-2.762 3.086-.75m-3.098 2.894c.07-.605 2.523-.855 2.176.25-.348 1.106-2.246.36-2.176-.25m-1.937 2.508c.265-.394 2.043.3 1.41.942-.63.64-1.676-.547-1.41-.942m1.18-1.039c.19-.492 2.288-.148 1.753.695-.535.844-1.95-.203-1.754-.695m-4.216-3.488c-.675-.211-1.12.324-.777.988 1.09 2.113 2.668-2.71 4.547-2.043 1.562.555.195 5.402-2.418 5.524-1.77.078-3.79-2.286-3.43-4.313.176-1 1.282-1.996 2.461-2.008.903-.011.18 2.028-.383 1.852m23.016-9.946c-.355-2.011-3.285-1.882-3.086-.753.2 1.132 3.442 2.765 3.086.753m-3.098-2.898c.07.61 2.524.86 2.176-.246-.347-1.11-2.246-.363-2.176.246m-1.937-2.504c.262.395 2.043-.305 1.41-.945-.633-.637-1.676.55-1.41.945m1.176 1.035c.195.492 2.293.153 1.757-.691-.535-.844-1.949.203-1.757.691M92.637 6.23c-.676.211-1.121-.328-.782-.992 1.09-2.113 2.672 2.711 4.551 2.043 1.563-.554.196-5.402-2.422-5.52-1.77-.081-3.785 2.282-3.43 4.313.176 1 1.282 1.992 2.466 2.008.898.012.18-2.031-.383-1.852m23.015 9.946c-.355 2.012-3.285 1.883-3.086.75.2-1.13 3.442-2.762 3.086-.75m-3.097 2.894c.066-.605 2.52-.855 2.172.25-.344 1.106-2.243.36-2.172-.25m-1.942 2.508c.266-.394 2.043.3 1.414.942-.632.64-1.675-.547-1.414-.942m1.18-1.039c.195-.492 2.293-.148 1.754.695-.535.844-1.95-.203-1.754-.695m-4.211-3.488c-.676-.211-1.125.324-.781.988 1.09 2.113 2.668-2.71 4.55-2.043 1.56.555.196 5.402-2.421 5.524-1.77.078-3.79-2.286-3.43-4.313.176-1 1.281-1.996 2.46-2.008.903-.011.185 2.028-.378 1.852m23.016-9.946c-.356-2.011-3.29-1.882-3.09-.753.199 1.132 3.441 2.765 3.09.753m-3.102-2.898c.07.61 2.524.86 2.176-.246-.348-1.11-2.246-.363-2.176.246m-1.937-2.504c.265.395 2.043-.305 1.41-.945-.63-.637-1.676.55-1.41.945m1.18 1.035c.19.492 2.288.153 1.753-.691s-1.949.203-1.754.691m-4.216 3.492c-.675.211-1.12-.328-.777-.992 1.09-2.113 2.668 2.711 4.55 2.043 1.56-.554.196-5.402-2.421-5.52-1.77-.081-3.79 2.282-3.43 4.313.176 1 1.282 1.992 2.461 2.008.903.012.18-2.031-.383-1.852m23.016 9.946c-.355 2.012-3.285 1.883-3.086.75.2-1.13 3.442-2.762 3.086-.75m-3.098 2.894c.07-.605 2.524-.855 2.176.25-.347 1.106-2.246.36-2.176-.25m-1.937 2.508c.262-.394 2.043.3 1.41.942-.633.64-1.676-.547-1.41-.942m1.176-1.039c.195-.492 2.293-.148 1.757.695-.535.844-1.949-.203-1.757-.695m-4.211-3.488c-.676-.211-1.121.324-.781.988 1.09 2.113 2.671-2.71 4.55-2.043 1.563.555.196 5.402-2.418 5.524-1.77.078-3.789-2.286-3.43-4.313.176-1 1.282-1.996 2.462-2.008.898-.011.18 2.028-.383 1.852m23.015-9.946c-.355-2.011-3.285-1.882-3.086-.753.2 1.132 3.442 2.765 3.086.753m-3.097-2.898c.066.61 2.52.86 2.175-.246-.347-1.11-2.246-.363-2.175.246m-1.942-2.504c.266.395 2.047-.305 1.414-.945-.632-.637-1.675.55-1.414.945m1.18 1.035c.195.492 2.293.153 1.758-.691-.54-.844-1.953.203-1.758.691m-4.21 3.492c-.677.211-1.126-.328-.782-.992 1.09-2.113 2.672 2.711 4.55 2.043 1.563-.554.196-5.402-2.421-5.52-1.77-.081-3.785 2.282-3.43 4.313.176 1 1.281 1.992 2.465 2.008.898.012.18-2.031-.383-1.852m0 0"/></svg>