<?xml version="1.0" encoding="UTF-8"?>
<svg xmlns="http://www.w3.org/2000/svg" xmlns:xlink="http://www.w3.org/1999/xlink" width="58.709pt" height="7.4pt" viewBox="0 0 58.709 7.4" version="1.2">
<defs>
<clipPath id="clip1">
  <path d="M 0 0 L 58.5625 0 L 58.5625 7.101562 L 0 7.101562 Z M 0 0 "/>
</clipPath>
</defs>
<g id="surface1">
<g clip-path="url(#clip1)" clip-rule="nonzero">
<path style="fill:none;stroke-width:0.3985;stroke-linecap:butt;stroke-linejoin:miter;stroke:rgb(0%,0%,0%);stroke-opacity:1;stroke-miterlimit:10;" d="M -0.00021875 0.00146875 C 1.245875 0.00146875 1.866969 2.48975 3.113063 2.48975 C 4.015406 2.48975 4.79275 1.274906 5.60525 0.00146875 C 6.41775 -1.275875 7.191188 -2.490719 8.093531 -2.490719 C 8.995875 -2.490719 9.773219 -1.275875 10.585719 0.00146875 C 11.398219 1.274906 12.175563 2.48975 13.077906 2.48975 C 13.976344 2.48975 14.753688 1.274906 15.566188 0.00146875 C 16.378688 -1.275875 17.156031 -2.490719 18.058375 -2.490719 C 18.960719 -2.490719 19.738063 -1.275875 20.546656 0.00146875 C 21.359156 1.274906 22.1365 2.48975 23.038844 2.48975 C 23.941188 2.48975 24.718531 1.274906 25.531031 0.00146875 C 26.339625 -1.275875 27.116969 -2.490719 28.019313 -2.490719 C 28.921656 -2.490719 29.699 -1.275875 30.5115 0.00146875 C 31.324 1.274906 32.101344 2.48975 32.999781 2.48975 C 33.902125 2.48975 34.679469 1.274906 35.491969 0.00146875 C 36.304469 -1.275875 37.081813 -2.490719 37.984156 -2.490719 C 38.8865 -2.490719 39.659938 -1.275875 40.472438 0.00146875 C 41.284938 1.274906 42.062281 2.48975 42.964625 2.48975 C 43.866969 2.48975 44.644313 1.274906 45.456813 0.00146875 C 46.265406 -1.275875 47.04275 -2.490719 47.945094 -2.490719 C 48.847438 -2.490719 49.624781 -1.275875 50.437281 0.00146875 C 51.249781 1.274906 52.027125 2.48975 52.925563 2.48975 C 54.171656 2.48975 54.796656 0.00146875 56.038844 0.00146875 L 56.296656 0.00146875 " transform="matrix(1,0,0,-1,0.8635,3.396)"/>
</g>
<path style="fill:none;stroke-width:0.3985;stroke-linecap:round;stroke-linejoin:round;stroke:rgb(0%,0%,0%);stroke-opacity:1;stroke-miterlimit:10;" d="M -2.072694 2.392094 C -1.693787 0.954594 -0.850037 0.278812 0.001525 0.00146875 C -0.850037 -0.279781 -1.693787 -0.955563 -2.072694 -2.389156 " transform="matrix(1,0,0,-1,57.35785,3.396)"/>
</g>
</svg>
