<?xml version="1.0" encoding="UTF-8"?>
<svg xmlns="http://www.w3.org/2000/svg" xmlns:xlink="http://www.w3.org/1999/xlink" width="41.785pt" height="41.78pt" viewBox="0 0 41.785 41.78" version="1.2">
<defs>
<clipPath id="clip1">
  <path d="M 0 0 L 41.675781 0 L 41.675781 41.671875 L 0 41.671875 Z M 0 0 "/>
</clipPath>
</defs>
<g id="surface1">
<path style=" stroke:none;fill-rule:evenodd;fill:rgb(82.305908%,78.85437%,16.50238%);fill-opacity:1;" d="M 13.980469 30.578125 L 13.980469 24.597656 C 13.980469 23.5 14.871094 22.605469 15.972656 22.605469 L 21.949219 22.605469 C 23.050781 22.605469 23.941406 23.5 23.941406 24.597656 L 23.941406 30.578125 C 23.941406 31.675781 23.050781 32.570312 21.949219 32.570312 L 15.972656 32.570312 C 14.871094 32.570312 13.980469 31.675781 13.980469 30.578125 Z M 18.960938 25.59375 L 18.960938 19.617188 C 18.960938 18.515625 19.855469 17.625 20.953125 17.625 L 26.933594 17.625 C 28.03125 17.625 28.925781 18.515625 28.925781 19.617188 L 28.925781 25.59375 C 28.925781 26.695312 28.03125 27.585938 26.933594 27.585938 L 20.953125 27.585938 C 19.855469 27.585938 18.960938 26.695312 18.960938 25.59375 Z M 14.320312 39.472656 L 1.367188 17.039062 C 0.816406 16.085938 1.144531 14.867188 2.097656 14.316406 L 24.53125 1.363281 C 25.484375 0.816406 26.703125 1.140625 27.25 2.09375 L 40.203125 24.527344 C 40.753906 25.480469 40.425781 26.699219 39.472656 27.25 L 17.039062 40.199219 C 16.085938 40.75 14.871094 40.425781 14.320312 39.472656 Z M 14.320312 39.472656 "/>
<g clip-path="url(#clip1)" clip-rule="nonzero">
<path style="fill:none;stroke-width:0.3985;stroke-linecap:butt;stroke-linejoin:miter;stroke:rgb(0%,0%,0%);stroke-opacity:1;stroke-miterlimit:10;" d="M -0.00003125 1.990875 L -0.00003125 7.971344 C -0.00003125 9.069 0.890594 9.963531 1.992156 9.963531 L 7.968719 9.963531 C 9.070281 9.963531 9.960906 9.069 9.960906 7.971344 L 9.960906 1.990875 C 9.960906 0.893219 9.070281 -0.0013125 7.968719 -0.0013125 L 1.992156 -0.0013125 C 0.890594 -0.0013125 -0.00003125 0.893219 -0.00003125 1.990875 Z M 4.980437 6.97525 L 4.980437 12.951812 C 4.980437 14.053375 5.874969 14.944 6.972625 14.944 L 12.953094 14.944 C 14.05075 14.944 14.945281 14.053375 14.945281 12.951812 L 14.945281 6.97525 C 14.945281 5.873687 14.05075 4.983062 12.953094 4.983062 L 6.972625 4.983062 C 5.874969 4.983062 4.980437 5.873687 4.980437 6.97525 Z M 0.339812 -6.903656 L -12.613313 15.529937 C -13.164094 16.483062 -12.835969 17.701812 -11.882844 18.252594 L 10.55075 31.205719 C 11.503875 31.752594 12.722625 31.428375 13.2695 30.47525 L 26.222625 8.041656 C 26.773406 7.088531 26.445281 5.869781 25.492156 5.319 L 3.058562 -7.630219 C 2.105437 -8.181 0.890594 -7.856781 0.339812 -6.903656 Z M 0.339812 -6.903656 " transform="matrix(1,0,0,-1,13.9805,32.569)"/>
</g>
</g>
</svg>
