<svg xmlns="http://www.w3.org/2000/svg" xmlns:xlink="http://www.w3.org/1999/xlink" width="272.288" height="87.824"><defs><path id="b" d="M3.89-2.547c0-.844-.078-1.36-.343-1.875-.344-.703-1-.875-1.438-.875-1 0-1.375.75-1.484.969C.344-3.75.328-2.953.328-2.547c0 .531.016 1.328.406 1.969.36.594.954.75 1.375.75.391 0 1.063-.125 1.47-.906.296-.578.312-1.297.312-1.813M2.11-.062c-.266 0-.813-.125-.985-.954-.094-.453-.094-1.203-.094-1.625 0-.546 0-1.109.094-1.546.172-.813.781-.891.984-.891.266 0 .829.14.985.86.094.437.094 1.046.094 1.577 0 .47 0 1.188-.094 1.641-.172.828-.719.938-.985.938m0 0"/><path id="d" d="M1.11-4.484c.109.03.421.125.765.125 1 0 1.594-.703 1.594-.828 0-.094-.047-.11-.094-.11-.016 0-.031 0-.094.031a3 3 0 0 1-1.11.22c-.468 0-.858-.11-1.108-.22-.079-.03-.094-.03-.11-.03-.094 0-.094.077-.094.234v2.328c0 .14 0 .234.125.234.063 0 .079-.031.125-.094.094-.11.391-.515 1.079-.515.437 0 .656.359.734.515.125.281.14.656.14.953s0 .735-.218 1.079c-.156.25-.485.484-.906.484A1.27 1.27 0 0 1 .734-.922c.016.016.079.016.079.016.218 0 .406-.14.406-.39a.39.39 0 0 0-.39-.407c-.157 0-.407.078-.407.422 0 .718.625 1.453 1.531 1.453 1 0 1.844-.781 1.844-1.766 0-.922-.672-1.75-1.61-1.75-.39 0-.765.125-1.078.406Zm0 0"/><path id="f" d="M2.5-5.078c0-.219-.016-.219-.234-.219-.328.313-.75.5-1.5.5v.266c.218 0 .64 0 1.109-.203v4.078c0 .297-.031.39-.781.39H.812V0c.329-.031 1.016-.031 1.376-.031s1.046 0 1.374.031v-.266h-.28c-.75 0-.782-.093-.782-.39Zm0 0"/><path id="g" d="M2.25-1.625c.125-.125.453-.39.594-.5.484-.453.953-.89.953-1.61 0-.953-.797-1.562-1.781-1.562-.97 0-1.594.719-1.594 1.438 0 .39.312.437.422.437.172 0 .422-.11.422-.422 0-.406-.407-.406-.5-.406.234-.594.765-.781 1.156-.781.734 0 1.125.625 1.125 1.297 0 .828-.578 1.437-1.531 2.39l-1 1.047C.422-.219.422-.203.422 0h3.14l.235-1.422h-.25c-.016.156-.078.547-.172.703-.047.063-.656.063-.781.063H1.172Zm0 0"/><path id="c" d="M1.625-.437a.463.463 0 0 0-.453-.454.447.447 0 0 0-.438.438.44.44 0 0 0 .438.453.45.45 0 0 0 .453-.437m0 0"/><path id="e" d="M2.266-2.906h.906c-.156.719-.297 1.312-.297 1.906 0 .047 0 .39.078.688.11.328.188.39.328.39.172 0 .36-.156.36-.344 0-.046 0-.062-.032-.14-.171-.36-.296-.75-.296-1.406 0-.172 0-.516.124-1.094h.97c.124 0 .202 0 .28-.063a.31.31 0 0 0 .125-.25c0-.219-.203-.219-.328-.219H1.61c-.171 0-.484 0-.875.391-.28.281-.5.64-.5.703 0 .078.047.094.11.094.094 0 .11-.016.156-.078.39-.578.86-.578 1.031-.578H2c-.234.844-.656 1.812-.953 2.39C1-.39.922-.234.922-.172c0 .172.125.25.25.25.312 0 .39-.297.562-.953Zm0 0"/><path id="h" d="M5.563-1.812c.14 0 .312 0 .312-.172 0-.188-.172-.188-.312-.188H1c-.125 0-.297 0-.297.188 0 .172.172.172.297.172Zm0 0"/><clipPath id="a"><path d="M24 0h247.934v87.734H24Zm0 0"/></clipPath></defs><path fill="none" stroke="#000" stroke-linecap="round" stroke-miterlimit="10" stroke-width=".399" d="M71.074 45.813v-3.989M126.734 45.813v-3.989M182.39 45.813v-3.989M238.05 45.813v-3.989M13.426 79.25h3.984M13.426 8.383h3.984"/><path fill="none" stroke="#000" stroke-miterlimit="10" stroke-width=".399" d="M7.945 43.816H270.52"/><path fill="none" stroke="#000" stroke-linecap="round" stroke-linejoin="round" stroke-miterlimit="10" stroke-width=".399" d="M268.648 41.426c.38 1.437 1.223 2.113 2.07 2.39-.847.282-1.69.957-2.07 2.395"/><path fill="none" stroke="#000" stroke-miterlimit="10" stroke-width=".399" d="M15.418 86.723V1.313"/><path fill="none" stroke="#000" stroke-linecap="round" stroke-linejoin="round" stroke-miterlimit="10" stroke-width=".399" d="M13.027 3.184c1.434-.38 2.11-1.223 2.391-2.07.277.847.957 1.69 2.39 2.07"/><g clip-path="url(#a)"><path fill="none" stroke="#000" stroke-miterlimit="10" stroke-width=".598" d="M33.133 26.832s6.933-5.812 9.597-7.7c2.665-1.886 6.934-4.573 9.598-5.902 2.66-1.324 6.93-2.996 9.594-3.668 2.664-.671 6.933-1.207 9.598-1.171 2.664.03 6.933.672 9.597 1.41 2.66.734 6.934 2.504 9.594 3.886 2.664 1.387 6.934 4.157 9.598 6.09 2.664 1.93 6.933 5.496 9.597 7.836 2.66 2.34 6.93 6.446 9.594 9.024 2.664 2.574 6.934 6.918 9.598 9.543s6.933 6.89 9.597 9.37c2.66 2.481 6.934 6.36 9.594 8.516 2.664 2.16 6.934 5.364 9.598 7.04 2.664 1.68 6.933 3.98 9.597 5.054 2.66 1.074 6.934 2.297 9.594 2.692 2.664.394 6.934.457 9.598.14 2.664-.316 6.933-1.422 9.597-2.426 2.66-1.004 6.934-3.195 9.594-4.812 2.664-1.617 6.934-4.734 9.598-6.848 2.664-2.117 6.933-5.93 9.597-8.386 2.66-2.458 6.934-6.696 9.594-9.313 2.664-2.617 6.934-6.969 9.598-9.559s6.934-6.734 9.598-9.109c2.66-2.375 9.593-7.996 9.593-7.996"/></g><use xlink:href="#b" x="64.716" y="53.603"/><use xlink:href="#c" x="68.95" y="53.603"/><use xlink:href="#d" x="71.303" y="53.603"/><use xlink:href="#e" x="75.537" y="53.603"/><use xlink:href="#f" x="123.667" y="53.603"/><use xlink:href="#e" x="127.901" y="53.603"/><use xlink:href="#f" x="176.032" y="53.603"/><use xlink:href="#c" x="180.266" y="53.603"/><use xlink:href="#d" x="182.618" y="53.603"/><use xlink:href="#e" x="186.852" y="53.603"/><use xlink:href="#g" x="234.983" y="53.603"/><use xlink:href="#e" x="239.217" y="53.603"/><use xlink:href="#h" x="-.052" y="81.404"/><use xlink:href="#f" x="6.535" y="81.404"/><use xlink:href="#b" x="8.527" y="51.61"/><use xlink:href="#f" x="6.535" y="10.953"/></svg>