<svg xmlns="http://www.w3.org/2000/svg" width="46.964" height="32.78"><defs><clipPath id="a"><path d="M0 0h46.945v32.672H0Zm0 0"/></clipPath></defs><path fill="#00007F" fill-opacity=".8" d="M31.758 17.492c0-7.828-6.348-14.176-14.176-14.176-7.824 0-14.172 6.348-14.172 14.176s6.348 14.172 14.172 14.172c7.828 0 14.176-6.344 14.176-14.172m14.172 0c0-7.828-6.344-14.176-14.172-14.176S17.582 9.664 17.582 17.492s6.348 14.172 14.176 14.172S45.93 25.32 45.93 17.492m0 0"/><path fill="#FFF" d="M29.547 15.281c0-7.828-6.348-14.176-14.176-14.176S1.2 7.453 1.2 15.281s6.344 14.172 14.172 14.172 14.176-6.344 14.176-14.172m14.172 0c0-7.828-6.344-14.176-14.172-14.176S15.37 7.453 15.37 15.281s6.348 14.172 14.176 14.172 14.172-6.344 14.172-14.172m0 0"/><g clip-path="url(#a)"><path fill="none" stroke="#000" stroke-miterlimit="10" stroke-width=".399" d="M29.547 15.281c0-7.828-6.348-14.176-14.176-14.176S1.2 7.453 1.2 15.281s6.344 14.172 14.172 14.172 14.176-6.344 14.176-14.172Zm14.172 0c0-7.828-6.344-14.176-14.172-14.176S15.37 7.453 15.37 15.281s6.348 14.172 14.176 14.172 14.172-6.344 14.172-14.172Zm0 0"/></g></svg>