<svg xmlns="http://www.w3.org/2000/svg" xmlns:xlink="http://www.w3.org/1999/xlink" width="34.76" height="35.75"><defs><path id="a" d="M4.406-3.672c0-.531-.531-.812-1.062-.812-.688 0-1.094.5-1.313 1.125v-1.125l-1.656.078v.468c.61 0 .688 0 .688.391v3.078H.375V0l1.25-.031C2-.031 2.641-.031 3 0v-.469h-.86v-1.75c0-.687.235-1.906 1.235-1.906 0 0-.187.172-.187.453 0 .406.328.61.609.61.297 0 .61-.204.61-.61m0 0"/><path id="b" d="M5.406-2.172c0-1.344-.922-2.344-2.547-2.344C1.22-4.516.313-3.5.313-2.172c0 1.235.89 2.235 2.546 2.235 1.672 0 2.547-1.016 2.547-2.235m-1.281-.11c0 .86 0 1.938-1.266 1.938-1.265 0-1.265-1.078-1.265-1.937 0-.453 0-.953.172-1.297.187-.375.609-.578 1.093-.578.422 0 .844.156 1.063.5.203.344.203.89.203 1.375m0 0"/><path id="c" d="M3.813-1.234v-.532h-.47v.516c0 .672-.327.906-.609.906-.578 0-.578-.64-.578-.86v-2.75h1.469v-.468H2.156v-1.906h-.469c0 1-.484 1.984-1.484 2.016v.359h.828v2.734c0 1.063.86 1.282 1.578 1.282.75 0 1.204-.579 1.204-1.297m0 0"/><clipPath id="d"><path d="M0 5h20v30.625H0Zm0 0"/></clipPath><clipPath id="e"><path d="M14 5h20.64v30.625H14Zm0 0"/></clipPath></defs><use xlink:href="#a" x="6.787" y="7.21"/><use xlink:href="#b" x="11.509" y="7.21"/><use xlink:href="#b" x="17.557" y="7.21"/><use xlink:href="#c" x="23.285" y="7.21"/><path d="M5.082 32.422a1.993 1.993 0 1 0-1.992 1.996 1.994 1.994 0 0 0 1.992-1.996m8.824-21.633L3.09 32.422"/><g clip-path="url(#d)"><path fill="none" stroke="#000" stroke-miterlimit="10" stroke-width=".399" d="M5.082 32.422a1.993 1.993 0 1 0-1.992 1.996 1.994 1.994 0 0 0 1.992-1.996Zm8.824-21.633L3.09 32.422"/></g><path d="M33.43 32.422a1.993 1.993 0 0 0-3.984 0c0 1.101.89 1.996 1.992 1.996a1.996 1.996 0 0 0 1.992-1.996M20.617 10.789l10.82 21.633"/><g clip-path="url(#e)"><path fill="none" stroke="#000" stroke-miterlimit="10" stroke-width=".399" d="M33.43 32.422a1.993 1.993 0 0 0-3.984 0c0 1.101.89 1.996 1.992 1.996a1.996 1.996 0 0 0 1.992-1.996ZM20.617 10.789l10.82 21.633"/></g></svg>