<svg xmlns="http://www.w3.org/2000/svg" width="21.987" height="5.636"><defs><clipPath id="a"><path d="M2 0h19.98v5.453H2Zm0 0"/></clipPath></defs><path fill="none" stroke="#000" stroke-miterlimit="10" stroke-width=".797" d="M1.004 2.629h13.09"/><path d="M20.531 2.629c.23-.777-1.02-1.41-2.797-1.41s-3.406.633-3.64 1.41c-.235.777 1.02 1.41 2.793 1.41 1.777 0 3.41-.633 3.644-1.41m0 0"/><g clip-path="url(#a)"><path fill="none" stroke="#000" stroke-miterlimit="10" stroke-width=".797" d="M6.836 0c-.002.777-1.442 1.41-3.22 1.41C1.84 1.41.4.777.4 0 .398-.779 1.84-1.41 3.615-1.41c1.777 0 3.22.632 3.221 1.41Zm0 0" transform="matrix(1 0 .3 -1 13.695 2.628)"/></g></svg>