<svg xmlns="http://www.w3.org/2000/svg" width="30.372" height="39.746"><defs><clipPath id="a"><path d="M3 0h27.059v32H3Zm0 0"/></clipPath><clipPath id="b"><path d="M3 0h27.059v39.617H3Zm0 0"/></clipPath><clipPath id="c"><path d="M1 7h29.059v32.617H1Zm0 0"/></clipPath></defs><path fill="none" stroke="#000" stroke-miterlimit="10" stroke-width="1.594" d="M.695 5.574H26.7"/><g clip-path="url(#a)"><path fill="none" stroke="#000" stroke-miterlimit="10" stroke-width="1.594" d="M26.3 1.688c1.075 0 1.946.87 1.946 1.94a1.946 1.946 0 0 1-1.945 1.946 1.942 1.942 0 1 1 0 3.883"/></g><path fill="none" stroke="#000" stroke-miterlimit="10" stroke-width="1.594" d="M.695 19.746H26.7"/><g clip-path="url(#b)"><path fill="none" stroke="#000" stroke-miterlimit="10" stroke-width="1.594" d="M28.246 17.805c0 1.07-.871 1.941-1.945 1.941 1.074 0 1.945.871 1.945 1.942"/></g><path fill="none" stroke="#000" stroke-miterlimit="10" stroke-width="1.594" d="M.695 33.922H26.7"/><g clip-path="url(#c)"><path fill="none" stroke="#000" stroke-miterlimit="10" stroke-width="1.594" d="M24.36 31.977a1.944 1.944 0 1 1 1.94 1.945 1.942 1.942 0 1 1-1.94 1.941"/></g></svg>