<?xml version="1.0" encoding="UTF-8"?>
<svg xmlns="http://www.w3.org/2000/svg" xmlns:xlink="http://www.w3.org/1999/xlink" width="70.829pt" height="75.548pt" viewBox="0 0 70.829 75.548" version="1.2">
<defs>
<clipPath id="clip1">
  <path d="M 16 46 L 55 46 L 55 75.320312 L 16 75.320312 Z M 16 46 "/>
</clipPath>
</defs>
<g id="surface1">
<path style="fill-rule:nonzero;fill:rgb(79.998779%,79.998779%,100%);fill-opacity:1;stroke-width:0.79701;stroke-linecap:butt;stroke-linejoin:miter;stroke:rgb(50%,50%,100%);stroke-opacity:1;stroke-miterlimit:10;" d="M 8.018156 56.694969 C 8.018156 61.12075 4.428313 64.710594 -0.001375 64.710594 C -4.427156 64.710594 -8.017 61.12075 -8.017 56.694969 C -8.017 52.265281 -4.427156 48.675438 -0.001375 48.675438 C 4.428313 48.675438 8.018156 52.265281 8.018156 56.694969 Z M 8.018156 56.694969 " transform="matrix(1,0,0,-1,35.3295,65.902)"/>
<path style="fill-rule:nonzero;fill:rgb(79.998779%,79.998779%,100%);fill-opacity:1;stroke-width:0.79701;stroke-linecap:butt;stroke-linejoin:miter;stroke:rgb(50%,50%,100%);stroke-opacity:1;stroke-miterlimit:10;" d="M 8.018156 28.347313 C 8.018156 32.777 4.428313 36.366844 -0.001375 36.366844 C -4.427156 36.366844 -8.017 32.777 -8.017 28.347313 C -8.017 23.917625 -4.427156 20.327781 -0.001375 20.327781 C 4.428313 20.327781 8.018156 23.917625 8.018156 28.347313 Z M 8.018156 28.347313 " transform="matrix(1,0,0,-1,35.3295,65.902)"/>
<path style=" stroke:none;fill-rule:nonzero;fill:rgb(79.998779%,79.998779%,100%);fill-opacity:1;" d="M 43.347656 65.902344 C 43.347656 61.472656 39.757812 57.882812 35.328125 57.882812 C 30.902344 57.882812 27.3125 61.472656 27.3125 65.902344 C 27.3125 70.332031 30.902344 73.921875 35.328125 73.921875 C 39.757812 73.921875 43.347656 70.332031 43.347656 65.902344 Z M 43.347656 65.902344 "/>
<g clip-path="url(#clip1)" clip-rule="nonzero">
<path style="fill:none;stroke-width:0.79701;stroke-linecap:butt;stroke-linejoin:miter;stroke:rgb(50%,50%,100%);stroke-opacity:1;stroke-miterlimit:10;" d="M 8.018156 -0.00034375 C 8.018156 4.429344 4.428313 8.019188 -0.001375 8.019188 C -4.427156 8.019188 -8.017 4.429344 -8.017 -0.00034375 C -8.017 -4.430031 -4.427156 -8.019875 -0.001375 -8.019875 C 4.428313 -8.019875 8.018156 -4.430031 8.018156 -0.00034375 Z M 8.018156 -0.00034375 " transform="matrix(1,0,0,-1,35.3295,65.902)"/>
</g>
<path style="fill-rule:nonzero;fill:rgb(79.998779%,79.998779%,79.998779%);fill-opacity:1;stroke-width:0.79701;stroke-linecap:butt;stroke-linejoin:miter;stroke:rgb(50%,50%,50%);stroke-opacity:1;stroke-miterlimit:10;" d="M 22.678313 22.679344 L 34.01425 22.679344 L 34.01425 34.015281 L 22.678313 34.015281 Z M 22.678313 22.679344 " transform="matrix(1,0,0,-1,35.3295,65.902)"/>
<path style="fill-rule:nonzero;fill:rgb(79.998779%,79.998779%,79.998779%);fill-opacity:1;stroke-width:0.79701;stroke-linecap:butt;stroke-linejoin:miter;stroke:rgb(50%,50%,50%);stroke-opacity:1;stroke-miterlimit:10;" d="M -34.017 22.679344 L -22.677156 22.679344 L -22.677156 34.015281 L -34.017 34.015281 Z M -34.017 22.679344 " transform="matrix(1,0,0,-1,35.3295,65.902)"/>
</g>
</svg>
