<svg xmlns="http://www.w3.org/2000/svg" width="87.284" height="59.078"><defs><clipPath id="a"><path d="M0 0h86.926v58.617H0Zm0 0"/></clipPath><clipPath id="b"><path d="M20 34h66.926v24.617H20Zm0 0"/></clipPath></defs><path fill="none" stroke="#7F7F7F" stroke-miterlimit="10" stroke-width=".199" d="M.77 57.414h85.039M.769 29.066h85.04M.769.73h85.04M.769 57.414V.72m28.348 56.695V.72m28.344 56.695V.72M85.8 57.414V.72"/><g clip-path="url(#a)"><path fill="none" stroke="#000" stroke-miterlimit="10" stroke-width=".399" d="M.77 57.414 85.809.72"/></g><g clip-path="url(#b)"><path fill="none" stroke="red" stroke-miterlimit="10" stroke-width=".399" d="M26.281 40.406 85.81 57.414"/></g><path fill="red" d="M69.945 52.309a1.996 1.996 0 0 0-1.996-1.993 1.996 1.996 0 0 0-1.992 1.993c0 1.101.895 1.996 1.992 1.996a1.997 1.997 0 0 0 1.996-1.996m0 0"/></svg>