<svg xmlns="http://www.w3.org/2000/svg" width="79.814" height="79.814"><defs><clipPath id="a"><path d="M0 0h79.723v79.723H0Zm0 0"/></clipPath></defs><g clip-path="url(#a)"><path fill="none" stroke="#000" stroke-miterlimit="10" stroke-width=".399" d="m29.434 78.531 49.101-28.347M28.02 76.078 77.117 47.73M26.602 73.621l49.097-28.344M25.184 71.168 74.28 42.82M23.766 68.71l49.097-28.343m-50.515 25.89L71.445 37.91M20.93 63.8l49.097-28.343m-50.515 25.89L68.613 33M18.098 58.895l49.097-28.348M16.68 56.437 65.777 28.09M15.262 53.984l49.097-28.347m-50.515 25.89L62.94 23.18M12.426 49.074l49.097-28.347m-50.515 25.89 49.101-28.344M9.594 44.164 58.69 15.816M8.176 41.707l49.097-28.344M6.758 39.253l49.097-28.347M5.34 36.796 54.438 8.454M3.922 34.343 53.02 5.997M2.504 31.891 51.605 3.543M1.09 29.433 50.188 1.087M29.434 78.53 1.09 29.434m30.8 47.68L3.544 28.015m30.8 47.683L5.997 26.598M36.801 74.28 8.453 25.184m30.8 47.68L10.907 23.765m30.805 47.68L13.363 22.347m30.801 47.68L15.816 20.93m30.805 47.68L18.273 19.511m30.801 47.68L20.727 18.093m30.8 47.683L23.184 16.68m30.8 47.68L25.637 15.261m30.8 47.68L28.095 13.843m30.8 47.68L30.548 12.425m30.8 47.68L33 11.007m30.805 47.68L35.457 9.59m30.8 47.683L37.91 8.172m30.805 47.683L40.367 6.758m30.801 47.68L42.82 5.34m30.805 47.68L45.277 3.922m30.801 47.68L47.73 2.504m30.801 47.68L50.187 1.086"/></g></svg>