<svg xmlns="http://www.w3.org/2000/svg" xmlns:xlink="http://www.w3.org/1999/xlink" width="81.74" height="75.944"><defs><path id="b" d="M2.5-5.078c0-.219-.016-.219-.234-.219-.328.313-.75.5-1.5.5v.266c.218 0 .64 0 1.109-.203v4.078c0 .297-.031.39-.781.39H.812V0c.329-.031 1.016-.031 1.376-.031s1.046 0 1.374.031v-.266h-.28c-.75 0-.782-.093-.782-.39Zm0 0"/><path id="c" d="M2.25-1.625c.125-.125.453-.39.594-.5.484-.453.953-.89.953-1.61 0-.953-.797-1.562-1.781-1.562-.97 0-1.594.719-1.594 1.438 0 .39.312.437.422.437.172 0 .422-.11.422-.422 0-.406-.407-.406-.5-.406.234-.594.765-.781 1.156-.781.734 0 1.125.625 1.125 1.297 0 .828-.578 1.437-1.531 2.39l-1 1.047C.422-.219.422-.203.422 0h3.14l.235-1.422h-.25c-.016.156-.078.547-.172.703-.047.063-.656.063-.781.063H1.172Zm0 0"/><path id="d" d="M3.89-2.547c0-.844-.078-1.36-.343-1.875-.344-.703-1-.875-1.438-.875-1 0-1.375.75-1.484.969C.344-3.75.328-2.953.328-2.547c0 .531.016 1.328.406 1.969.36.594.954.75 1.375.75.391 0 1.063-.125 1.47-.906.296-.578.312-1.297.312-1.813M2.11-.062c-.266 0-.813-.125-.985-.954-.094-.453-.094-1.203-.094-1.625 0-.546 0-1.109.094-1.546.172-.813.781-.891.984-.891.266 0 .829.14.985.86.094.437.094 1.046.094 1.577 0 .47 0 1.188-.094 1.641-.172.828-.719.938-.985.938m0 0"/><clipPath id="a"><path d="M15 7h66.61v25H15Zm0 0"/></clipPath></defs><path fill="none" stroke="#000" stroke-linecap="round" stroke-miterlimit="10" stroke-width=".399" d="M37.691 67.129v-3.984M66.04 67.129v-3.984M7.352 36.793h3.984M7.352 8.445h3.984"/><path fill="none" stroke="#000" stroke-miterlimit="10" stroke-width=".399" d="M1.871 65.137H80.2"/><path fill="none" stroke="#000" stroke-linecap="round" stroke-linejoin="round" stroke-miterlimit="10" stroke-width=".399" d="M78.324 62.746c.38 1.434 1.223 2.113 2.074 2.39-.851.282-1.695.958-2.074 2.391"/><path fill="none" stroke="#000" stroke-miterlimit="10" stroke-width=".399" d="M9.344 72.61V1.37"/><path fill="none" stroke="#000" stroke-linecap="round" stroke-linejoin="round" stroke-miterlimit="10" stroke-width=".399" d="M6.953 3.242c1.434-.375 2.113-1.219 2.39-2.07.282.851.958 1.695 2.391 2.07"/><g clip-path="url(#a)"><path fill="none" stroke="#C00" stroke-miterlimit="10" stroke-width=".598" d="m23.52 22.617 49.605-7.086"/></g><path fill="none" stroke="#E8DE17" stroke-miterlimit="10" stroke-width=".598" d="M9.344 36.793h56.695"/><path fill="none" stroke="#007F00" stroke-miterlimit="10" stroke-width=".598" d="M9.344 65.137 66.039 8.445"/><use xlink:href="#b" x="35.574" y="74.923"/><use xlink:href="#c" x="63.92" y="74.923"/><use xlink:href="#d" x="2.455" y="72.93"/><use xlink:href="#b" x=".462" y="39.36"/><use xlink:href="#c" x=".462" y="11.013"/></svg>