<svg xmlns="http://www.w3.org/2000/svg" xmlns:xlink="http://www.w3.org/1999/xlink" width="350.84" height="151.238"><defs><path id="b" d="m7.547-4.328-.203-2.406H.625L.422-4.328H.89c.093-1.125.187-1.938 1.625-1.938h.765v5.797H1.75V0c.547-.031 1.656-.031 2.234-.031.594 0 1.704 0 2.235.031v-.469H4.687v-5.797h.766c1.422 0 1.531.797 1.625 1.938Zm0 0"/><path id="c" d="M4.406-3.672c0-.531-.531-.812-1.062-.812-.688 0-1.094.5-1.313 1.125v-1.125l-1.656.078v.468c.61 0 .688 0 .688.391v3.078H.375V0l1.25-.031C2-.031 2.641-.031 3 0v-.469h-.86v-1.75c0-.687.235-1.906 1.235-1.906 0 0-.187.172-.187.453 0 .406.328.61.609.61.297 0 .61-.204.61-.61m0 0"/><path id="d" d="M5.516-.234c0-.235-.125-.235-.266-.235-.61-.015-.61-.14-.61-.375v-2.14c0-.891-.702-1.532-2.187-1.532-.562 0-1.781.047-1.781.922 0 .438.344.625.61.625.312 0 .624-.219.624-.625 0-.297-.187-.469-.218-.5a5 5 0 0 1 .718-.062c.75 0 1.11.422 1.11 1.172v.343c-.72.032-3.25.125-3.25 1.563C.266-.125 1.5.062 2.188.062c.796 0 1.265-.406 1.484-.828 0 .313 0 .766 1.047.766h.468c.204 0 .329 0 .329-.234m-2-1.157c0 .97-.922 1.094-1.172 1.094-.516 0-.906-.344-.906-.797 0-1.062 1.578-1.203 2.078-1.234Zm0 0"/><path id="e" d="M5.984-2.219c0-1.328-.906-2.265-2.343-2.265-.75 0-1.282.312-1.5.484v-.484l-1.766.078v.468c.61 0 .688 0 .688.376v5.03H.375v.47l1.25-.032 1.25.032v-.47h-.687V-.39a2 2 0 0 0 1.28.454c1.5 0 2.516-.907 2.516-2.282m-1.28 0C4.703-.813 4-.297 3.358-.297c-.14 0-.609 0-1.062-.547-.11-.125-.11-.14-.11-.328v-2.11c0-.187.016-.202.157-.343.39-.406.922-.469 1.14-.469.657 0 1.22.61 1.22 1.875m0 0"/><path id="f" d="M4.922-1.172c0-.172-.188-.172-.234-.172-.172 0-.188.047-.25.203-.204.485-.782.797-1.422.797-1.407 0-1.422-1.328-1.422-1.828h3.015c.22 0 .313 0 .313-.265 0-.313-.063-1.047-.563-1.547-.359-.36-.89-.532-1.578-.532C1.187-4.516.313-3.484.313-2.25c0 1.344 1 2.313 2.609 2.313 1.578 0 2-1.063 2-1.235M3.984-2.5h-2.39c.015-.39.031-.812.234-1.14.266-.391.672-.516.953-.516 1.172 0 1.188 1.312 1.203 1.656m0 0"/><path id="g" d="M4.61-2.016h-.47C4.048-1 3.89-.406 2.579-.406h-.86L4.469-4c.095-.11.11-.125.11-.219 0-.203-.14-.203-.328-.203H.594l-.11 1.734h.47c.046-1.015.359-1.374 1.39-1.374h.844L.406-.437C.312-.328.312-.312.312-.22.313 0 .454 0 .642 0h3.78Zm0 0"/><path id="h" d="M2.844 0v-.469h-.61v-4.015L.5-4.406v.468c.594 0 .656 0 .656.391v3.078H.47V0l1.219-.031Zm-.469-6.047a.774.774 0 0 0-.781-.781.784.784 0 0 0-.782.781c0 .422.36.766.782.766a.77.77 0 0 0 .781-.766m0 0"/><path id="i" d="M6.125 0v-.469c-.61 0-.687 0-.687-.39v-3.625l-1.813.078v.468c.61 0 .688 0 .688.391v1.906c0 .813-.516 1.344-1.235 1.344-.781 0-.812-.25-.812-.797v-3.39l-1.813.078v.468c.61 0 .688 0 .688.391v2.328c0 1.063.797 1.282 1.797 1.282.25 0 .968 0 1.421-.782v.782Zm0 0"/><path id="j" d="M9.328 0v-.469h-.687v-2.578c0-1.031-.516-1.437-1.547-1.437-.907 0-1.422.5-1.688.953-.187-.922-1.11-.953-1.484-.953-.875 0-1.438.453-1.766 1.078v-1.078l-1.703.078v.468c.61 0 .688 0 .688.391v3.078H.453V0l1.25-.031L2.953 0v-.469h-.687v-2.078c0-1.094.875-1.578 1.5-1.578.328 0 .547.203.547.969V-.47h-.688V0l1.266-.031L6.14 0v-.469h-.688v-2.078c0-1.094.86-1.578 1.484-1.578.344 0 .563.203.563.969V-.47h-.687V0l1.25-.031Zm0 0"/><path id="k" d="M3.078.313c0-.125-.047-.157-.187-.25C2.063-.5 1.75-1.391 1.75-2.125c0-.672.25-1.594 1.156-2.203.125-.094.172-.125.172-.25a.254.254 0 0 0-.265-.25c-.204 0-1.641.906-1.641 2.703 0 .813.312 1.438.562 1.781.375.516.907.907 1.079.907.218 0 .265-.172.265-.25m0 0"/><path id="l" d="M3.219-.906c0-.735-.906-.906-1.14-.938l-.704-.125C1.188-2 1-2.079 1-2.25c0-.156.219-.328.813-.328.515 0 .609.172.625.328.015.14.03.281.28.281.298 0 .298-.156.298-.328v-.469c0-.14-.016-.328-.25-.328-.157 0-.22.063-.25.125-.282-.125-.563-.125-.688-.125-1.187 0-1.344.594-1.344.844 0 .656.735.797 1.391.89.297.063.828.141.828.454 0 .234-.25.422-.828.422-.297 0-.656-.063-.812-.563C1.03-1.203.984-1.28.78-1.28c-.297 0-.297.172-.297.328v.656c0 .14 0 .344.25.344.079 0 .188 0 .282-.234.328.218.672.234.859.234 1.125 0 1.344-.61 1.344-.953m0 0"/><path id="m" d="M2.313-.469a.477.477 0 0 0-.485-.484.47.47 0 0 0-.469.469c0 .28.22.484.47.484a.473.473 0 0 0 .484-.469m0 0"/><path id="n" d="M3.422-1.516c0-.875-.64-1.562-1.39-1.562-.298 0-.579.11-.813.265v-1.109c0-.25-.047-.344-.313-.344h-.5c-.14 0-.343.016-.343.266s.218.266.328.266h.25v3.406C.64-.172.656 0 .938 0c.218 0 .28-.094.28-.234.266.218.532.28.735.28.766 0 1.469-.671 1.469-1.562m-.578 0c0 .61-.453 1.032-.906 1.032-.485 0-.704-.563-.704-.875v-.485c0-.375.375-.703.766-.703.469 0 .844.469.844 1.031m0 0"/><path id="o" d="M3.281-1.516c0-.89-.672-1.578-1.453-1.578-.797 0-1.453.688-1.453 1.578S1.047.047 1.828.047c.766 0 1.453-.688 1.453-1.563m-.578-.046c0 .593-.406 1.078-.875 1.078S.953-.97.953-1.562s.422-1.016.875-1.016.875.422.875 1.015m0 0"/><path id="p" d="M3.14-.906c0-.156 0-.313-.296-.313-.266 0-.266.157-.266.297-.015.375-.36.438-.515.438-.454 0-.454-.313-.454-.47v-1.562h1.047c.125 0 .328 0 .328-.265 0-.25-.187-.25-.328-.25H1.61v-.516c0-.14-.015-.328-.296-.328-.282 0-.282.172-.282.328v.516H.484c-.125 0-.328 0-.328.25 0 .265.203.265.328.265h.547v1.61c0 .687.485.953 1.016.953S3.14-.266 3.14-.906m0 0"/><path id="q" d="M3.64-.266c0-.218-.14-.25-.39-.25v-1.593c0-.157-.016-.97-.656-.97a.84.84 0 0 0-.656.313.61.61 0 0 0-.532-.312.88.88 0 0 0-.547.203c-.046-.156-.187-.156-.312-.156H.328c-.125 0-.328 0-.328.25 0 .234.125.265.39.265v2c-.265 0-.39.032-.39.25C0 0 .219 0 .328 0h.594c.125 0 .312 0 .312-.266 0-.218-.109-.25-.359-.25v-1.171c0-.563.234-.86.5-.86.14 0 .203.11.203.5v1.531c-.156 0-.281.032-.281.25 0 .266.187.266.312.266h.516c.125 0 .313 0 .313-.266 0-.218-.126-.25-.376-.25v-1.171c0-.563.25-.86.5-.86.141 0 .204.11.204.5v1.531c-.141 0-.282.032-.282.25 0 .266.204.266.313.266h.5c.125 0 .344 0 .344-.266m0 0"/><path id="r" d="M3.281-.266c0-.25-.203-.25-.328-.25h-.828v-3.406c0-.25-.062-.344-.328-.344H.719C.579-4.266.39-4.25.39-4s.203.266.312.266h.844v3.218H.719c-.14 0-.328 0-.328.25C.39 0 .594 0 .703 0h2.25c.125 0 .328 0 .328-.266m0 0"/><path id="s" d="M3.25-.797c0-.234-.234-.234-.281-.234-.156 0-.219.015-.281.172-.141.328-.485.375-.657.375-.469 0-.937-.297-1.062-.813h1.953c.172 0 .328 0 .328-.312 0-.797-.453-1.485-1.375-1.485-.828 0-1.516.703-1.516 1.563S1.08.047 1.984.047c.938 0 1.266-.656 1.266-.844m-.594-1.015H.97c.125-.438.484-.766.906-.766.328 0 .703.156.781.765m0 0"/><path id="t" d="M3.063-3.844c0-.437-.579-.453-.704-.453-.578 0-1.125.328-1.125.953v.313H.61c-.125 0-.328 0-.328.25 0 .265.203.265.328.265h.625v2H.61c-.125 0-.343 0-.343.25C.266 0 .484 0 .609 0h1.844c.125 0 .328 0 .328-.266 0-.25-.203-.25-.328-.25h-.64v-2h.78c.11 0 .313 0 .313-.265 0-.25-.187-.25-.312-.25h-.781v-.266c0-.453.359-.484.562-.484.031.11.125.297.344.297a.35.35 0 0 0 .344-.36m0 0"/><path id="u" d="M3.266-.797c0-.234-.235-.234-.297-.234-.125 0-.203 0-.266.172-.047.078-.187.375-.625.375a1.027 1.027 0 0 1-1.015-1.032c0-.312.187-1.062 1.062-1.062l.344.015c.015.282.172.376.36.376.187 0 .358-.126.358-.36 0-.531-.734-.547-1.062-.547-1.219 0-1.64.953-1.64 1.578 0 .844.671 1.563 1.546 1.563 1 0 1.235-.719 1.235-.844m0 0"/><path id="v" d="M3.406-2.594c0-.156-.078-.484-.703-.484-.328 0-.734.11-1.094.469v-.094c0-.25-.046-.328-.328-.328h-.75c-.125 0-.328 0-.328.25 0 .265.203.265.328.265h.5v2h-.5c-.125 0-.328 0-.328.25C.203 0 .406 0 .531 0h1.781c.126 0 .329 0 .329-.266 0-.25-.203-.25-.328-.25h-.704v-.796c0-.61.36-1.22 1.11-1.235 0 .156.172.281.344.281.187 0 .343-.125.343-.328m0 0"/><path id="w" d="M3.578-.266c0-.25-.203-.25-.328-.25H3v-1.53c0-.72-.36-1.032-.937-1.032-.391 0-.672.172-.844.297 0-.172-.047-.25-.313-.25h-.5c-.14 0-.328 0-.328.25 0 .265.203.265.313.265h.25v2H.406c-.14 0-.328 0-.328.25C.078 0 .281 0 .391 0h1.093c.11 0 .329 0 .329-.266 0-.25-.204-.25-.344-.25h-.25v-1.156c0-.64.484-.875.797-.875.328 0 .406.172.406.547v1.484h-.203c-.14 0-.344 0-.344.25 0 .266.219.266.344.266H3.25c.11 0 .328 0 .328-.266m0 0"/><path id="x" d="M2.484-2.125c0-.828-.312-1.453-.562-1.797-.375-.515-.906-.906-1.078-.906-.203 0-.266.187-.266.25 0 .125.094.187.14.219 1.095.718 1.188 1.797 1.188 2.234 0 .656-.25 1.578-1.14 2.188C.64.14.578.188.578.313c0 .078.063.25.266.25s1.64-.907 1.64-2.688m0 0"/><path id="y" d="M3.422-1.516c0-.875-.64-1.562-1.39-1.562-.298 0-.579.11-.813.281 0-.172-.063-.234-.313-.234h-.5c-.14 0-.343 0-.343.25 0 .265.218.265.328.265h.25v3.5H.406c-.14 0-.343 0-.343.266 0 .25.218.25.328.25h1.093c.11 0 .329 0 .329-.25 0-.266-.204-.266-.344-.266h-.25V-.234c.265.234.531.28.734.28.766 0 1.469-.671 1.469-1.562m-.578 0c0 .61-.453 1.032-.906 1.032-.485 0-.704-.563-.704-.875v-.485c0-.375.375-.703.766-.703.469 0 .844.469.844 1.031m0 0"/><path id="z" d="M3.188-.266c0-.25-.204-.25-.329-.25h-.656v-2.187c0-.25-.047-.328-.328-.328H.906c-.125 0-.328 0-.328.25 0 .265.203.265.328.265h.719v2H.859c-.14 0-.343 0-.343.25C.516 0 .734 0 .859 0h2c.125 0 .329 0 .329-.266m-.954-3.562a.39.39 0 0 0-.406-.39.387.387 0 0 0-.39.39c0 .219.171.39.39.39a.39.39 0 0 0 .406-.39m0 0"/><path id="A" d="M3.563-2.687c0-.172-.141-.422-.547-.422a1.5 1.5 0 0 0-.735.218 1.2 1.2 0 0 0-.656-.187c-.656 0-1.172.531-1.172 1.14 0 .282.11.516.203.641a1 1 0 0 0-.125.469c0 .219.078.375.14.469C.188-.031.188.42.188.5c0 .61.735 1.047 1.641 1.047S3.468 1.094 3.468.5a.97.97 0 0 0-.5-.828c-.093-.047-.39-.188-1.015-.188h-.469c-.125 0-.28.032-.39-.093-.063-.079-.063-.22-.063-.22 0-.015 0-.062.016-.109.11.063.328.157.578.157.656 0 1.188-.516 1.188-1.156 0-.188-.063-.391-.172-.563a.8.8 0 0 1 .28-.078.34.34 0 0 0 .313.219c.141 0 .329-.094.329-.328m-1.344.75c0 .359-.266.64-.594.64s-.594-.297-.594-.64.266-.625.594-.625.594.296.594.624M2.969.5c0 .281-.5.531-1.14.531C1.187 1.031.687.781.687.5.688.39.75.188.953.063c.14-.094.203-.094.688-.094.578 0 1.328 0 1.328.531m0 0"/><path id="B" d="M3.578-.266c0-.25-.203-.25-.328-.25H3v-1.53c0-.72-.36-1.032-.937-1.032-.391 0-.672.172-.844.297v-1.14c0-.25-.047-.345-.313-.345h-.5c-.14 0-.328.016-.328.266s.203.266.313.266h.25v3.218H.406c-.14 0-.328 0-.328.25C.078 0 .281 0 .391 0h1.093c.11 0 .329 0 .329-.266 0-.25-.204-.25-.344-.25h-.25v-1.156c0-.64.484-.875.797-.875.328 0 .406.172.406.547v1.484h-.203c-.14 0-.344 0-.344.25 0 .266.219.266.344.266H3.25c.11 0 .328 0 .328-.266m0 0"/><path id="C" d="M3.578-.266c0-.25-.203-.25-.328-.25H3v-3.406c0-.25-.047-.344-.328-.344h-.485c-.14 0-.343.016-.343.266s.218.266.328.266h.25v.906a1.26 1.26 0 0 0-.735-.25c-.765 0-1.453.672-1.453 1.562C.234-.64.875.047 1.625.047c.344 0 .61-.14.797-.313.015.188.062.266.328.266h.5c.125 0 .328 0 .328-.266M2.422-1.375c0 .36-.297.89-.781.89-.453 0-.828-.452-.828-1.03 0-.61.437-1.032.89-1.032.406 0 .719.344.719.688Zm0 0"/><path id="D" d="M3.469-.266c0-.25-.203-.25-.328-.25h-.25l-.828-1.046.734-.954h.234c.125 0 .344 0 .344-.265 0-.25-.219-.25-.344-.25H2.25c-.125 0-.328 0-.328.25 0 .203.11.265.281.265l-.39.547-.422-.547c.156 0 .28-.062.28-.265 0-.25-.202-.25-.327-.25H.547c-.125 0-.328 0-.328.25 0 .265.219.265.328.265h.25l.75.954L.75-.516H.516c-.125 0-.344 0-.344.25C.172 0 .39 0 .516 0h.78c.126 0 .329 0 .329-.266 0-.203-.11-.25-.297-.25l.484-.703.5.703c-.187 0-.296.047-.296.25 0 .266.203.266.328.266h.797c.109 0 .328 0 .328-.266m0 0"/><path id="E" d="M3.625-.266c0-.25-.203-.25-.328-.25-.203 0-.297-.03-.344-.046V-2c0-.5-.375-1.094-1.406-1.094-.313 0-1.031.016-1.031.547 0 .235.172.36.359.36.11 0 .344-.063.344-.36 0 0 .234-.031.343-.031.454 0 .782.187.813.594-1.219.03-2.047.39-2.047 1.062 0 .485.453.969 1.188.969.234 0 .656-.047.968-.25.172.187.485.203.75.203.235 0 .391-.016.391-.266M2.359-.969c0 .14 0 .266-.234.375-.234.11-.516.11-.578.11-.39 0-.64-.203-.64-.438 0-.312.546-.515 1.452-.562Zm0 0"/><path id="F" d="M3.547-2.781c0-.25-.188-.25-.328-.25h-.781c-.157 0-.344 0-.344.25 0 .265.172.265.344.265h.265l-.297 1.72-.14-.532c-.125-.469-.172-.547-.422-.547-.094 0-.235 0-.328.188l-.266.906-.297-1.735h.266c.156 0 .343 0 .343-.265 0-.25-.187-.25-.343-.25H.437c-.14 0-.343 0-.343.25 0 .234.14.265.36.265L.858-.28c.032.187.047.312.36.312.312 0 .343-.062.453-.515l.172-.641.265 1c.094.14.235.156.344.156.281 0 .313-.125.344-.312l.406-2.235c.219 0 .344-.03.344-.265m0 0"/><path id="G" d="M3.578-.266c0-.25-.219-.25-.328-.25H3v-2.187c0-.25-.047-.328-.328-.328h-.485c-.14 0-.343 0-.343.25 0 .265.218.265.328.265h.25v1.391c0 .563-.516.64-.719.64-.469 0-.484-.187-.484-.39v-1.828c0-.25-.047-.328-.313-.328h-.5c-.14 0-.328 0-.328.25 0 .265.203.265.313.265h.25v1.688c0 .687.5.875 1.03.875.266 0 .517-.063.767-.219C2.484 0 2.625 0 2.75 0h.5c.125 0 .328 0 .328-.266m0 0"/><path id="H" d="M3.094-.266c0-.25-.188-.25-.313-.25H2.22V-4c0-.125-.016-.328-.266-.328-.156 0-.219.094-.25.187-.234.547-.578.625-.687.641-.141 0-.313.031-.313.266 0 .203.156.25.281.25s.375-.032.657-.235v2.703h-.563c-.14 0-.328 0-.328.25C.75 0 .953 0 1.078 0h1.703c.125 0 .313 0 .313-.266m0 0"/><path id="I" d="M3.297-1.36c0-.812-.625-1.437-1.39-1.437-.329 0-.657.094-.938.313.125-.828.703-1.328 1.25-1.328.156 0 .25.03.297.062-.032.047-.047.094-.047.188 0 .203.14.359.36.359.202 0 .358-.14.358-.375 0-.36-.265-.75-.968-.75-.922 0-1.86.844-1.86 2.25C.36-.422 1.156.078 1.844.078c.765 0 1.453-.594 1.453-1.437m-.578 0a.88.88 0 0 1-.875.907c-.422 0-.672-.313-.797-.703C1-1.313 1-1.484 1-1.563c0-.39.39-.703.875-.703.516 0 .844.422.844.907m0 0"/><path id="J" d="M3.313-2.125c0-1.297-.72-2.203-1.485-2.203-.781 0-1.5.922-1.5 2.203 0 1.297.734 2.203 1.5 2.203.781 0 1.485-.922 1.485-2.203m-.563-.078c0 .969-.422 1.75-.922 1.75-.516 0-.922-.781-.922-1.75 0-.953.438-1.61.922-1.61.469 0 .922.657.922 1.61m0 0"/><clipPath id="a"><path d="M0 0h350.762v150.855H0Zm0 0"/></clipPath></defs><path fill="#FFFBB3" d="m52.29 132.887 66.573-115.32h111.11l66.578 115.32Zm0 0"/><g clip-path="url(#a)"><path fill="none" stroke="#B2B2B2" stroke-miterlimit="10" stroke-width="14.173" d="m52.29 132.887 66.573-115.32h111.11l66.578 115.32Zm0 0"/></g><use xlink:href="#b" x="147.211" y="102.605" fill="#B2B2B2"/><g fill="#B2B2B2"><use xlink:href="#c" x="154.225" y="102.605"/><use xlink:href="#d" x="158.947" y="102.605"/><use xlink:href="#e" x="164.516" y="102.605"/></g><g fill="#B2B2B2"><use xlink:href="#f" x="171.201" y="102.605"/><use xlink:href="#g" x="176.451" y="102.605"/><use xlink:href="#h" x="181.542" y="102.605"/><use xlink:href="#i" x="184.72" y="102.605"/><use xlink:href="#j" x="191.086" y="102.605"/></g><path fill="none" stroke="#B2B2B2" stroke-miterlimit="10" stroke-width=".996" d="M201.129 104.54V45.91"/><path fill="none" stroke="#000" stroke-miterlimit="10" stroke-width=".399" d="m38.602 141.379 2.82-2.816m-2.82 0 2.82 2.816"/><use xlink:href="#k" x="-.259" y="148.317"/><use xlink:href="#l" x="3.402" y="148.317"/><use xlink:href="#m" x="7.064" y="148.317"/><use xlink:href="#n" x="10.725" y="148.317"/><use xlink:href="#o" x="14.386" y="148.317"/><use xlink:href="#p" x="18.047" y="148.317"/><use xlink:href="#p" x="21.709" y="148.317"/><use xlink:href="#o" x="25.37" y="148.317"/><use xlink:href="#q" x="29.031" y="148.317"/><use xlink:href="#r" x="36.347" y="148.317"/><use xlink:href="#s" x="40.008" y="148.317"/><use xlink:href="#t" x="43.669" y="148.317"/><use xlink:href="#p" x="47.331" y="148.317"/><use xlink:href="#u" x="54.653" y="148.317"/><use xlink:href="#o" x="58.314" y="148.317"/><use xlink:href="#v" x="61.976" y="148.317"/><use xlink:href="#w" x="65.637" y="148.317"/><use xlink:href="#s" x="69.298" y="148.317"/><use xlink:href="#v" x="72.959" y="148.317"/><use xlink:href="#x" x="76.621" y="148.317"/><path fill="none" stroke="#000" stroke-miterlimit="10" stroke-width=".399" d="m232.656 11.887 2.82-2.817m-2.82 0 2.82 2.817"/><use xlink:href="#k" x="237.586" y="12.115"/><use xlink:href="#l" x="241.247" y="12.115"/><use xlink:href="#m" x="244.909" y="12.115"/><use xlink:href="#p" x="248.57" y="12.115"/><use xlink:href="#o" x="252.231" y="12.115"/><use xlink:href="#y" x="255.892" y="12.115"/><use xlink:href="#v" x="263.215" y="12.115"/><use xlink:href="#z" x="266.876" y="12.115"/><use xlink:href="#A" x="270.537" y="12.115"/><use xlink:href="#B" x="274.199" y="12.115"/><use xlink:href="#p" x="277.86" y="12.115"/><use xlink:href="#u" x="285.183" y="12.115"/><use xlink:href="#o" x="288.844" y="12.115"/><use xlink:href="#v" x="292.505" y="12.115"/><use xlink:href="#w" x="296.166" y="12.115"/><use xlink:href="#s" x="299.828" y="12.115"/><use xlink:href="#v" x="303.489" y="12.115"/><use xlink:href="#x" x="307.15" y="12.115"/><path fill="none" stroke="#000" stroke-miterlimit="10" stroke-width=".399" d="m113.363 11.887 2.817-2.817m-2.817 0 2.817 2.817"/><use xlink:href="#k" x="41.689" y="12.139"/><use xlink:href="#l" x="45.35" y="12.139"/><use xlink:href="#m" x="49.012" y="12.139"/><use xlink:href="#p" x="52.673" y="12.139"/><use xlink:href="#o" x="56.334" y="12.139"/><use xlink:href="#y" x="59.995" y="12.139"/><use xlink:href="#r" x="67.318" y="12.139"/><use xlink:href="#s" x="70.979" y="12.139"/><use xlink:href="#t" x="74.64" y="12.139"/><use xlink:href="#p" x="78.302" y="12.139"/><use xlink:href="#u" x="85.624" y="12.139"/><use xlink:href="#o" x="89.286" y="12.139"/><use xlink:href="#v" x="92.947" y="12.139"/><use xlink:href="#w" x="96.608" y="12.139"/><use xlink:href="#s" x="100.269" y="12.139"/><use xlink:href="#v" x="103.931" y="12.139"/><use xlink:href="#x" x="107.592" y="12.139"/><path fill="none" stroke="#000" stroke-miterlimit="10" stroke-width=".399" d="m307.418 141.379 2.816-2.816m-2.816 0 2.816 2.816"/><use xlink:href="#k" x="266.72" y="148.317"/><use xlink:href="#l" x="270.381" y="148.317"/><use xlink:href="#m" x="274.043" y="148.317"/><use xlink:href="#n" x="277.704" y="148.317"/><use xlink:href="#o" x="281.365" y="148.317"/><use xlink:href="#p" x="285.026" y="148.317"/><use xlink:href="#p" x="288.688" y="148.317"/><use xlink:href="#o" x="292.349" y="148.317"/><use xlink:href="#q" x="296.01" y="148.317"/><use xlink:href="#v" x="303.333" y="148.317"/><use xlink:href="#z" x="306.994" y="148.317"/><use xlink:href="#A" x="310.655" y="148.317"/><use xlink:href="#B" x="314.317" y="148.317"/><use xlink:href="#p" x="317.978" y="148.317"/><use xlink:href="#u" x="325.3" y="148.317"/><use xlink:href="#o" x="328.962" y="148.317"/><use xlink:href="#v" x="332.623" y="148.317"/><use xlink:href="#w" x="336.284" y="148.317"/><use xlink:href="#s" x="339.945" y="148.317"/><use xlink:href="#v" x="343.607" y="148.317"/><use xlink:href="#x" x="347.268" y="148.317"/><path fill="none" stroke="#000" stroke-miterlimit="10" stroke-width=".399" d="m173.012 141.379 2.816-2.816m-2.816 0 2.816 2.816"/><use xlink:href="#k" x="146.96" y="148.317"/><use xlink:href="#l" x="150.621" y="148.317"/><use xlink:href="#m" x="154.283" y="148.317"/><use xlink:href="#n" x="157.944" y="148.317"/><use xlink:href="#o" x="161.605" y="148.317"/><use xlink:href="#p" x="165.266" y="148.317"/><use xlink:href="#p" x="168.928" y="148.317"/><use xlink:href="#o" x="172.589" y="148.317"/><use xlink:href="#q" x="176.25" y="148.317"/><use xlink:href="#l" x="183.573" y="148.317"/><use xlink:href="#z" x="187.234" y="148.317"/><use xlink:href="#C" x="190.895" y="148.317"/><use xlink:href="#s" x="194.557" y="148.317"/><use xlink:href="#x" x="198.218" y="148.317"/><path fill="none" stroke="#000" stroke-miterlimit="10" stroke-width=".399" d="m75.984 76.633 2.817-2.817m-2.817 0 2.817 2.817"/><use xlink:href="#k" x="26.277" y="77.359"/><use xlink:href="#l" x="29.938" y="77.359"/><use xlink:href="#m" x="33.6" y="77.359"/><use xlink:href="#r" x="37.261" y="77.359"/><use xlink:href="#s" x="40.922" y="77.359"/><use xlink:href="#t" x="44.583" y="77.359"/><use xlink:href="#p" x="48.245" y="77.359"/><use xlink:href="#l" x="55.567" y="77.359"/><use xlink:href="#z" x="59.228" y="77.359"/><use xlink:href="#C" x="62.89" y="77.359"/><use xlink:href="#s" x="66.551" y="77.359"/><use xlink:href="#x" x="70.212" y="77.359"/><path fill="none" stroke="#000" stroke-miterlimit="10" stroke-width=".399" d="m270.035 76.633 2.82-2.817m-2.82 0 2.82 2.817"/><use xlink:href="#k" x="274.965" y="76.861"/><use xlink:href="#l" x="278.626" y="76.861"/><use xlink:href="#m" x="282.288" y="76.861"/><use xlink:href="#v" x="285.949" y="76.861"/><use xlink:href="#z" x="289.61" y="76.861"/><use xlink:href="#A" x="293.271" y="76.861"/><use xlink:href="#B" x="296.933" y="76.861"/><use xlink:href="#p" x="300.594" y="76.861"/><use xlink:href="#l" x="307.916" y="76.861"/><use xlink:href="#z" x="311.578" y="76.861"/><use xlink:href="#C" x="315.239" y="76.861"/><use xlink:href="#s" x="318.9" y="76.861"/><use xlink:href="#x" x="322.562" y="76.861"/><path fill="none" stroke="#000" stroke-miterlimit="10" stroke-width=".399" d="m173.012 11.887 2.816-2.817m-2.816 0 2.816 2.817"/><use xlink:href="#k" x="152.452" y="5.453"/><use xlink:href="#l" x="156.113" y="5.453"/><use xlink:href="#m" x="159.775" y="5.453"/><use xlink:href="#p" x="163.436" y="5.453"/><use xlink:href="#o" x="167.097" y="5.453"/><use xlink:href="#y" x="170.758" y="5.453"/><use xlink:href="#l" x="178.081" y="5.453"/><use xlink:href="#z" x="181.742" y="5.453"/><use xlink:href="#C" x="185.403" y="5.453"/><use xlink:href="#s" x="189.065" y="5.453"/><use xlink:href="#x" x="192.726" y="5.453"/><path fill="none" stroke="#000" stroke-miterlimit="10" stroke-width=".399" d="m173.012 76.633 2.816-2.817m-2.816 0 2.816 2.817"/><use xlink:href="#k" x="156.113" y="71.148"/><use xlink:href="#l" x="159.774" y="71.148"/><use xlink:href="#m" x="163.436" y="71.148"/><use xlink:href="#u" x="167.097" y="71.148"/><use xlink:href="#s" x="170.758" y="71.148"/><use xlink:href="#w" x="174.419" y="71.148"/><use xlink:href="#p" x="178.081" y="71.148"/><use xlink:href="#s" x="181.742" y="71.148"/><use xlink:href="#v" x="185.403" y="71.148"/><use xlink:href="#x" x="189.064" y="71.148"/><path fill="none" stroke="#000" stroke-miterlimit="10" stroke-width=".399" d="m145.8 104.016 2.821-2.82m-2.82 0 2.82 2.82"/><use xlink:href="#k" x="132.566" y="110.951"/><use xlink:href="#l" x="136.227" y="110.951"/><use xlink:href="#m" x="139.889" y="110.951"/><use xlink:href="#p" x="143.55" y="110.951"/><use xlink:href="#s" x="147.211" y="110.951"/><use xlink:href="#D" x="150.872" y="110.951"/><use xlink:href="#p" x="154.534" y="110.951"/><use xlink:href="#x" x="158.195" y="110.951"/><path fill="none" stroke="#000" stroke-miterlimit="10" stroke-width=".399" d="m173.012 101.8 2.816-2.816m-2.816 0 2.816 2.817"/><use xlink:href="#k" x="177.939" y="102.528"/><use xlink:href="#l" x="181.6" y="102.528"/><use xlink:href="#m" x="185.262" y="102.528"/><use xlink:href="#q" x="188.923" y="102.528"/><use xlink:href="#z" x="192.584" y="102.528"/><use xlink:href="#C" x="196.245" y="102.528"/><use xlink:href="#x" x="199.907" y="102.528"/><path fill="none" stroke="#000" stroke-miterlimit="10" stroke-width=".399" d="m173.012 104.016 2.816-2.82m-2.816 0 2.816 2.82"/><use xlink:href="#k" x="159.774" y="110.951"/><use xlink:href="#l" x="163.435" y="110.951"/><use xlink:href="#m" x="167.097" y="110.951"/><use xlink:href="#n" x="170.758" y="110.951"/><use xlink:href="#E" x="174.419" y="110.951"/><use xlink:href="#l" x="178.08" y="110.951"/><use xlink:href="#s" x="181.742" y="110.951"/><use xlink:href="#x" x="185.403" y="110.951"/><path fill="none" stroke="#000" stroke-miterlimit="10" stroke-width=".399" d="m61.45 101.8 2.82-2.816m-2.82 0 2.82 2.817"/><use xlink:href="#k" x="66.382" y="102.528"/><use xlink:href="#l" x="70.043" y="102.528"/><use xlink:href="#m" x="73.705" y="102.528"/><use xlink:href="#q" x="77.366" y="102.528"/><use xlink:href="#z" x="81.027" y="102.528"/><use xlink:href="#C" x="84.688" y="102.528"/><use xlink:href="#F" x="92.011" y="102.528"/><use xlink:href="#s" x="95.672" y="102.528"/><use xlink:href="#l" x="99.333" y="102.528"/><use xlink:href="#p" x="102.995" y="102.528"/><use xlink:href="#x" x="106.656" y="102.528"/><path fill="none" stroke="#000" stroke-miterlimit="10" stroke-width=".399" d="m60.176 104.016 2.816-2.82m-2.816 0 2.816 2.82"/><use xlink:href="#k" x="37.787" y="110.951"/><use xlink:href="#l" x="41.448" y="110.951"/><use xlink:href="#m" x="45.11" y="110.951"/><use xlink:href="#n" x="48.771" y="110.951"/><use xlink:href="#E" x="52.432" y="110.951"/><use xlink:href="#l" x="56.093" y="110.951"/><use xlink:href="#s" x="59.755" y="110.951"/><use xlink:href="#F" x="67.077" y="110.951"/><use xlink:href="#s" x="70.738" y="110.951"/><use xlink:href="#l" x="74.4" y="110.951"/><use xlink:href="#p" x="78.061" y="110.951"/><use xlink:href="#x" x="81.722" y="110.951"/><path fill="none" stroke="#000" stroke-miterlimit="10" stroke-width=".399" d="m284.57 101.8 2.82-2.816m-2.82 0 2.82 2.817"/><use xlink:href="#k" x="238.524" y="102.528"/><use xlink:href="#l" x="242.185" y="102.528"/><use xlink:href="#m" x="245.847" y="102.528"/><use xlink:href="#q" x="249.508" y="102.528"/><use xlink:href="#z" x="253.169" y="102.528"/><use xlink:href="#C" x="256.83" y="102.528"/><use xlink:href="#s" x="264.153" y="102.528"/><use xlink:href="#E" x="267.814" y="102.528"/><use xlink:href="#l" x="271.475" y="102.528"/><use xlink:href="#p" x="275.137" y="102.528"/><use xlink:href="#x" x="278.798" y="102.528"/><path fill="none" stroke="#000" stroke-miterlimit="10" stroke-width=".399" d="m285.848 104.016 2.82-2.82m-2.82 0 2.82 2.82"/><use xlink:href="#k" x="263.458" y="110.951"/><use xlink:href="#l" x="267.119" y="110.951"/><use xlink:href="#m" x="270.781" y="110.951"/><use xlink:href="#n" x="274.442" y="110.951"/><use xlink:href="#E" x="278.103" y="110.951"/><use xlink:href="#l" x="281.764" y="110.951"/><use xlink:href="#s" x="285.426" y="110.951"/><use xlink:href="#s" x="292.748" y="110.951"/><use xlink:href="#E" x="296.409" y="110.951"/><use xlink:href="#l" x="300.071" y="110.951"/><use xlink:href="#p" x="303.732" y="110.951"/><use xlink:href="#x" x="307.393" y="110.951"/><path fill="none" stroke="#000" stroke-miterlimit="10" stroke-width=".399" d="m75.98 76.633 2.82-2.817m-2.82 0 2.82 2.817"/><use xlink:href="#k" x="62.747" y="71.147"/><use xlink:href="#l" x="66.408" y="71.147"/><use xlink:href="#m" x="70.07" y="71.147"/><use xlink:href="#F" x="73.731" y="71.147"/><use xlink:href="#s" x="77.392" y="71.147"/><use xlink:href="#l" x="81.053" y="71.147"/><use xlink:href="#p" x="84.715" y="71.147"/><use xlink:href="#x" x="88.376" y="71.147"/><path fill="none" stroke="#000" stroke-miterlimit="10" stroke-width=".399" d="m270.04 76.633 2.82-2.817m-2.82 0 2.82 2.817"/><use xlink:href="#k" x="256.804" y="71.147"/><use xlink:href="#l" x="260.465" y="71.147"/><use xlink:href="#m" x="264.127" y="71.147"/><use xlink:href="#s" x="267.788" y="71.147"/><use xlink:href="#E" x="271.449" y="71.147"/><use xlink:href="#l" x="275.11" y="71.147"/><use xlink:href="#p" x="278.772" y="71.147"/><use xlink:href="#x" x="282.433" y="71.147"/><path fill="none" stroke="#000" stroke-miterlimit="10" stroke-width=".399" d="m173.016 11.867 2.816-2.816m-2.816 0 2.816 2.816"/><use xlink:href="#k" x="157.948" y="18.806"/><use xlink:href="#l" x="161.609" y="18.806"/><use xlink:href="#m" x="165.271" y="18.806"/><use xlink:href="#w" x="168.932" y="18.806"/><use xlink:href="#o" x="172.593" y="18.806"/><use xlink:href="#v" x="176.254" y="18.806"/><use xlink:href="#p" x="179.916" y="18.806"/><use xlink:href="#B" x="183.577" y="18.806"/><use xlink:href="#x" x="187.238" y="18.806"/><path fill="none" stroke="#000" stroke-miterlimit="10" stroke-width=".399" d="m173.016 141.387 2.816-2.817m-2.816 0 2.816 2.817"/><use xlink:href="#k" x="157.948" y="135.9"/><use xlink:href="#l" x="161.609" y="135.9"/><use xlink:href="#m" x="165.271" y="135.9"/><use xlink:href="#l" x="168.932" y="135.9"/><use xlink:href="#o" x="172.593" y="135.9"/><use xlink:href="#G" x="176.254" y="135.9"/><use xlink:href="#p" x="179.916" y="135.9"/><use xlink:href="#B" x="183.577" y="135.9"/><use xlink:href="#x" x="187.238" y="135.9"/><path fill="none" stroke="#000" stroke-miterlimit="10" stroke-width=".399" d="m111.492 15.11 2.817-2.817m-2.817 0 2.817 2.816"/><use xlink:href="#k" x="87.273" y="9.624"/><use xlink:href="#l" x="90.934" y="9.624"/><use xlink:href="#m" x="94.596" y="9.624"/><use xlink:href="#w" x="98.257" y="9.624"/><use xlink:href="#o" x="101.918" y="9.624"/><use xlink:href="#v" x="105.579" y="9.624"/><use xlink:href="#p" x="109.241" y="9.624"/><use xlink:href="#B" x="112.902" y="9.624"/><use xlink:href="#F" x="120.224" y="9.624"/><use xlink:href="#s" x="123.886" y="9.624"/><use xlink:href="#l" x="127.547" y="9.624"/><use xlink:href="#p" x="131.208" y="9.624"/><use xlink:href="#x" x="134.87" y="9.624"/><path fill="none" stroke="#000" stroke-miterlimit="10" stroke-width=".399" d="m234.535 15.11 2.817-2.817m-2.817 0 2.817 2.816"/><use xlink:href="#k" x="210.314" y="9.624"/><use xlink:href="#l" x="213.975" y="9.624"/><use xlink:href="#m" x="217.637" y="9.624"/><use xlink:href="#w" x="221.298" y="9.624"/><use xlink:href="#o" x="224.959" y="9.624"/><use xlink:href="#v" x="228.62" y="9.624"/><use xlink:href="#p" x="232.282" y="9.624"/><use xlink:href="#B" x="235.943" y="9.624"/><use xlink:href="#s" x="243.265" y="9.624"/><use xlink:href="#E" x="246.927" y="9.624"/><use xlink:href="#l" x="250.588" y="9.624"/><use xlink:href="#p" x="254.249" y="9.624"/><use xlink:href="#x" x="257.911" y="9.624"/><path fill="none" stroke="#000" stroke-miterlimit="10" stroke-width=".399" d="m108.258 141.387 2.82-2.82m-2.82 0 2.82 2.82"/><use xlink:href="#k" x="84.04" y="148.322"/><use xlink:href="#l" x="87.701" y="148.322"/><use xlink:href="#m" x="91.363" y="148.322"/><use xlink:href="#l" x="95.024" y="148.322"/><use xlink:href="#o" x="98.685" y="148.322"/><use xlink:href="#G" x="102.346" y="148.322"/><use xlink:href="#p" x="106.008" y="148.322"/><use xlink:href="#B" x="109.669" y="148.322"/><use xlink:href="#F" x="116.991" y="148.322"/><use xlink:href="#s" x="120.653" y="148.322"/><use xlink:href="#l" x="124.314" y="148.322"/><use xlink:href="#p" x="127.975" y="148.322"/><use xlink:href="#x" x="131.637" y="148.322"/><path fill="none" stroke="#000" stroke-miterlimit="10" stroke-width=".399" d="m237.77 141.387 2.816-2.82m-2.816 0 2.816 2.82"/><use xlink:href="#k" x="213.548" y="148.322"/><use xlink:href="#l" x="217.209" y="148.322"/><use xlink:href="#m" x="220.871" y="148.322"/><use xlink:href="#l" x="224.532" y="148.322"/><use xlink:href="#o" x="228.193" y="148.322"/><use xlink:href="#G" x="231.854" y="148.322"/><use xlink:href="#p" x="235.516" y="148.322"/><use xlink:href="#B" x="239.177" y="148.322"/><use xlink:href="#s" x="246.499" y="148.322"/><use xlink:href="#E" x="250.161" y="148.322"/><use xlink:href="#l" x="253.822" y="148.322"/><use xlink:href="#p" x="257.483" y="148.322"/><use xlink:href="#x" x="261.145" y="148.322"/><path fill="none" stroke="#000" stroke-miterlimit="10" stroke-width=".399" d="m92.828 47.45 2.817-2.821m-2.817 0 2.817 2.82"/><use xlink:href="#k" x="81.424" y="41.962"/><use xlink:href="#l" x="85.085" y="41.962"/><use xlink:href="#m" x="88.747" y="41.962"/><use xlink:href="#H" x="92.408" y="41.962"/><use xlink:href="#I" x="96.069" y="41.962"/><use xlink:href="#J" x="99.73" y="41.962"/><use xlink:href="#x" x="103.392" y="41.962"/></svg>