<svg xmlns="http://www.w3.org/2000/svg" xmlns:xlink="http://www.w3.org/1999/xlink" width="339.068" height="162.47"><defs><path id="a" d="M8.547-.953c0-.219-.14-.219-.235-.219-.203 0-.218.11-.234.234-.047.47-.328.688-.625.688-.61 0-.687-.703-.75-1.125-.016-.11-.094-.797-.11-.844-.14-.703-.687-1.015-1.109-1.172C6.641-3.687 7.141-4.344 7.141-5c0-1-1.094-1.844-2.97-1.844H.392v.469h1.078v5.906H.39V0C.75-.031 1.719-.031 2.14-.031s1.39 0 1.75.031v-.469H2.828v-2.765h1.156c.141 0 .579 0 .891.328.313.36.313.547.313 1.265 0 .657 0 1.157.703 1.485.437.219 1.062.265 1.468.265 1.063 0 1.188-.89 1.188-1.062M5.625-4.984c0 .562 0 1.39-1.64 1.39H2.827v-2.781H4c1.61 0 1.625.781 1.625 1.39m0 0"/><path id="b" d="M5.516-.234c0-.235-.125-.235-.266-.235-.61-.015-.61-.14-.61-.375v-2.14c0-.891-.702-1.532-2.187-1.532-.562 0-1.781.047-1.781.922 0 .438.344.625.61.625.312 0 .624-.219.624-.625 0-.297-.187-.469-.218-.5a5 5 0 0 1 .718-.062c.75 0 1.11.422 1.11 1.172v.343c-.72.032-3.25.125-3.25 1.563C.266-.125 1.5.062 2.188.062c.796 0 1.265-.406 1.484-.828 0 .313 0 .766 1.047.766h.468c.204 0 .329 0 .329-.234m-2-1.157c0 .97-.922 1.094-1.172 1.094-.516 0-.906-.344-.906-.797 0-1.062 1.578-1.203 2.078-1.234Zm0 0"/><path id="c" d="M3.813-1.234v-.532h-.47v.516c0 .672-.327.906-.609.906-.578 0-.578-.64-.578-.86v-2.75h1.469v-.468H2.156v-1.906h-.469c0 1-.484 1.984-1.484 2.016v.359h.828v2.734c0 1.063.86 1.282 1.578 1.282.75 0 1.204-.579 1.204-1.297m0 0"/><path id="d" d="M2.844 0v-.469h-.61v-4.015L.5-4.406v.468c.594 0 .656 0 .656.391v3.078H.47V0l1.219-.031Zm-.469-6.047a.774.774 0 0 0-.781-.781.784.784 0 0 0-.782.781c0 .422.36.766.782.766a.77.77 0 0 0 .781-.766m0 0"/><path id="e" d="M6.125 0v-.469h-.687v-2.578c0-1.047-.532-1.437-1.532-1.437-.953 0-1.484.562-1.75 1.078v-1.078l-1.703.078v.468c.61 0 .688 0 .688.391v3.078H.453V0l1.25-.031L2.953 0v-.469h-.687v-2.078c0-1.094.859-1.578 1.5-1.578.328 0 .547.203.547.969V-.47h-.688V0l1.25-.031Zm0 0"/><path id="f" d="M5.563-3.953c0-.235-.172-.578-.625-.578-.157 0-.625.031-1.063.375-.172-.125-.594-.328-1.328-.328-1.438 0-1.985.78-1.985 1.468 0 .407.188.829.516 1.047-.281.36-.344.688-.344.89 0 .157.047.642.438.954-.125.031-.86.25-.86.875C.313 1.25.876 2 2.86 2 4.625 2 5.406 1.422 5.406.719c0-.297-.078-.922-.75-1.266-.562-.281-1.156-.281-2.11-.281-.265 0-.718 0-.765-.016a.625.625 0 0 1-.562-.625c0-.093.047-.25.11-.328.452.234.968.266 1.218.266 1.437 0 1.984-.782 1.984-1.485 0-.468-.25-.796-.406-.953.297-.156.516-.172.625-.187a.43.43 0 0 0-.047.203c0 .25.172.422.438.422a.41.41 0 0 0 .422-.422m-2.141.937c0 .454 0 1.125-.875 1.125s-.875-.671-.875-1.125c0-.437 0-1.109.875-1.109s.875.672.875 1.11M4.547.75c0 .36-.39.89-1.688.89-1.187 0-1.687-.452-1.687-.906 0-.609.625-.609.766-.609h1.171c.313 0 1.438 0 1.438.625m0 0"/><path id="g" d="M4.14-1.39c0-.438-.202-.782-.546-1.063-.39-.281-.719-.344-1.485-.485-.375-.062-1.015-.171-1.015-.64 0-.625.922-.625 1.11-.625.75 0 1.124.297 1.171.844.016.156.031.203.234.203.235 0 .235-.047.235-.281v-.797c0-.188 0-.282-.172-.282-.047 0-.063 0-.453.188-.266-.125-.61-.188-1-.188-.313 0-1.844 0-1.844 1.313 0 .39.203.656.406.828.39.344.782.406 1.547.547.36.062 1.094.187 1.094.781 0 .75-.906.75-1.125.75C1.234-.297.984-1.03.859-1.453c-.046-.14-.109-.14-.234-.14-.25 0-.25.062-.25.28v1.094c0 .188 0 .282.188.282.062 0 .078 0 .296-.157l.25-.172c.47.329.985.329 1.188.329.312 0 1.844 0 1.844-1.454m0 0"/><path id="h" d="M5.781-3.953v-.469c-.25.016-.531.031-.781.031l-.906-.03v.468c.187 0 .468.031.468.11 0 0 0 .015-.046.109l-1.157 2.5-1.265-2.72h.531v-.468l-1.234.031-1.125-.03v.468H.89l1.75 3.75c.125.25.25.25.375.25.172 0 .28-.031.375-.25L5.047-3.75c.062-.14.094-.203.734-.203m0 0"/><path id="i" d="M4.922-1.172c0-.172-.188-.172-.234-.172-.172 0-.188.047-.25.203-.204.485-.782.797-1.422.797-1.407 0-1.422-1.328-1.422-1.828h3.015c.22 0 .313 0 .313-.265 0-.313-.063-1.047-.563-1.547-.359-.36-.89-.532-1.578-.532C1.187-4.516.313-3.484.313-2.25c0 1.344 1 2.313 2.609 2.313 1.578 0 2-1.063 2-1.235M3.984-2.5h-2.39c.015-.39.031-.812.234-1.14.266-.391.672-.516.953-.516 1.172 0 1.188 1.312 1.203 1.656m0 0"/><path id="j" d="M5.984-2.219c0-1.328-.937-2.265-2.39-2.265-.719 0-1.219.28-1.453.484v-2.922l-1.766.078v.469c.61 0 .688 0 .688.39V0h.468c.157-.187.328-.375.485-.562.078.078.562.625 1.453.625 1.484 0 2.515-.907 2.515-2.282m-1.28 0c0 .469 0 1.016-.25 1.406-.298.407-.75.516-1.079.516-.687 0-1.078-.547-1.187-.687v-2.5c.28-.36.75-.641 1.296-.641 1.22 0 1.22 1.203 1.22 1.906m0 0"/><path id="k" d="M5.781-3.953v-.469A13 13 0 0 1 5-4.39l-.906-.03v.468s.468 0 .468.11L4.5-3.72 3.36-1.266 2.093-3.953h.531v-.469l-1.234.031-1.125-.03v.468H.89L2.766 0 2.53.484C2.312.954 2 1.641 1.281 1.641c-.14 0-.156-.016-.234-.047.094-.032.312-.172.312-.532C1.36.734 1.125.5.781.5a.553.553 0 0 0-.562.578c0 .5.469.922 1.062.922.766 0 1.344-.625 1.625-1.187l2.14-4.563c.063-.14.095-.203.735-.203m0 0"/><path id="l" d="M5.156-2c0-1.156-.797-2.078-2.265-2.078-.282 0-.813.031-1.282.344v-1.313c.282.047.391.078.72.078 1.452 0 2.374-1.125 2.374-1.375 0-.078-.016-.187-.14-.187-.032 0-.032 0-.141.047a4.3 4.3 0 0 1-1.531.28c-.75 0-1.282-.202-1.547-.28-.094-.032-.094-.047-.125-.047-.14 0-.14.11-.14.265v2.922c0 .172 0 .297.218.297.125 0 .156-.031.219-.11.39-.468.922-.562 1.328-.562.89 0 .89.875.89 1.672 0 .735 0 1.735-1.187 1.735-.25 0-.875-.063-1.297-.625.36-.016.656-.266.656-.672 0-.532-.437-.672-.672-.672-.14 0-.671.094-.671.703 0 .844.78 1.687 2.015 1.687C4.172.11 5.156-.78 5.156-2m0 0"/><path id="m" d="M5.281-3.187c0-.954-.015-3.344-2.422-3.344S.453-4.156.453-3.188c0 1 0 3.297 2.406 3.297 2.391 0 2.422-2.296 2.422-3.296M4-3.297c0 .563 0 1.469-.078 1.985-.14.921-.766 1.062-1.063 1.062-.359 0-.921-.219-1.046-.953-.094-.516-.094-1.547-.094-2.094 0-.719 0-1.375.078-1.89.125-.891.828-.985 1.062-.985.375 0 .782.188.97.625C4-5.172 4-4.109 4-3.297m0 0"/><path id="n" d="M5.984-2.219c0-1.328-.906-2.265-2.343-2.265-.75 0-1.282.312-1.5.484v-.484l-1.766.078v.468c.61 0 .688 0 .688.376v5.03H.375v.47l1.25-.032 1.25.032v-.47h-.687V-.39a2 2 0 0 0 1.28.454c1.5 0 2.516-.907 2.516-2.282m-1.28 0C4.703-.813 4-.297 3.358-.297c-.14 0-.609 0-1.062-.547-.11-.125-.11-.14-.11-.328v-2.11c0-.187.016-.202.157-.343.39-.406.922-.469 1.14-.469.657 0 1.22.61 1.22 1.875m0 0"/><path id="o" d="M4.406-3.672c0-.531-.531-.812-1.062-.812-.688 0-1.094.5-1.313 1.125v-1.125l-1.656.078v.468c.61 0 .688 0 .688.391v3.078H.375V0l1.25-.031C2-.031 2.641-.031 3 0v-.469h-.86v-1.75c0-.687.235-1.906 1.235-1.906 0 0-.187.172-.187.453 0 .406.328.61.609.61.297 0 .61-.204.61-.61m0 0"/><path id="p" d="M4.766-1.172c0-.14-.141-.14-.235-.14-.187 0-.187.03-.25.156-.25.625-.734.812-1.234.812-1.39 0-1.39-1.453-1.39-1.922 0-.562 0-1.843 1.28-1.843.36 0 .516.015.657.046a.62.62 0 0 0-.203.47c0 .437.343.624.609.624.313 0 .64-.219.64-.625 0-.86-1.156-.922-1.734-.922C1.11-4.516.375-3.375.375-2.219.375-.89 1.313.063 2.844.063c1.625 0 1.922-1.157 1.922-1.235m0 0"/><path id="u" d="M2.36-4.203c0-.406-.266-.781-.782-.781A.83.83 0 0 0 1-4.75c.063-1.125.766-1.672.984-1.844.047-.031.079-.062.079-.125 0-.093-.11-.203-.188-.203-.14 0-1.234.844-1.234 2.25 0 .688.375 1.25.953 1.25.453 0 .765-.36.765-.781m2.515 0c0-.406-.266-.781-.781-.781a.8.8 0 0 0-.578.234c.062-1.125.765-1.672.984-1.844.031-.031.078-.062.078-.125 0-.093-.11-.203-.187-.203-.141 0-1.235.844-1.235 2.25 0 .688.375 1.25.953 1.25.454 0 .766-.36.766-.781m0 0"/><path id="v" d="M5.406-2.172c0-1.344-.922-2.344-2.547-2.344C1.22-4.516.313-3.5.313-2.172c0 1.235.89 2.235 2.546 2.235 1.672 0 2.547-1.016 2.547-2.235m-1.281-.11c0 .86 0 1.938-1.266 1.938-1.265 0-1.265-1.078-1.265-1.937 0-.453 0-.953.172-1.297.187-.375.609-.578 1.093-.578.422 0 .844.156 1.063.5.203.344.203.89.203 1.375m0 0"/><path id="w" d="M5.86 0v-.469h-.173c-.437 0-.468-.047-.593-.203L3.406-2.766 4.703-3.78c.14-.11.234-.172.906-.172v-.469c-.28.031-.53.031-.78.031l-1.157-.03v.468c.234 0 .265.031.344.11L2.14-2.36v-4.563l-1.766.078v.469c.61 0 .688 0 .688.39v5.516H.375V0l1.188-.031L2.766 0v-.469h-.688v-1.265c.297-.235.375-.297.578-.422l1 1.25c.094.125.25.312.25.344 0 .093-.172.093-.312.093V0a53 53 0 0 1 1.219-.031c.359 0 .703.015 1.046.031m0 0"/><path id="x" d="M2.531-5.672c0-.687-.375-1.25-.953-1.25-.453 0-.766.36-.766.781 0 .407.282.782.782.782a.8.8 0 0 0 .578-.235c-.063 1.125-.75 1.672-.969 1.828-.047.032-.094.063-.094.141 0 .094.11.203.204.203.14 0 1.218-.86 1.218-2.25m2.516 0c0-.687-.375-1.25-.953-1.25-.453 0-.766.36-.766.781 0 .407.266.782.781.782a.8.8 0 0 0 .579-.235 2.35 2.35 0 0 1-.985 1.828c-.031.032-.078.063-.078.141 0 .094.11.203.188.203.14 0 1.234-.86 1.234-2.25m0 0"/><path id="y" d="M2.36-3.656a.77.77 0 0 0-.782-.766.767.767 0 0 0-.766.766.774.774 0 1 0 1.547 0m0 2.875a.784.784 0 0 0-.782-.781.78.78 0 0 0-.766.78.774.774 0 1 0 1.547 0m0 0"/><path id="z" d="M4.922 0v-.469h-1.39v-5.734c0-.234 0-.328-.266-.328-.11 0-.125 0-.22.078-.765.562-1.796.562-2 .562H.845v.47h.203c.156 0 .703-.016 1.297-.204v5.156H.954V0c.437-.031 1.5-.031 1.984-.031s1.546 0 1.984.031m0 0"/><path id="A" d="M3.813 2.344c0-.047-.032-.094-.032-.094-.297-.281-.937-.89-1.36-2.156-.265-.797-.374-1.703-.374-2.594 0-1.953.5-3.516 1.61-4.625.14-.156.155-.156.155-.219 0-.11-.109-.14-.187-.14-.172 0-.578.375-.766.547C1.313-5.391 1.08-3.562 1.08-2.5c0 1.25.327 2.344.796 3.172.656 1.14 1.563 1.812 1.75 1.812.078 0 .188-.03.188-.14m0 0"/><path id="B" d="M5.156-2.219h-.468c-.032.203-.125.844-.266.906-.11.063-.86.063-1.016.063H1.937c.47-.39 1-.812 1.438-1.14 1.14-.844 1.781-1.313 1.781-2.25 0-1.157-1.047-1.891-2.437-1.891-1.219 0-2.156.625-2.156 1.515 0 .594.484.735.718.735C1.61-4.281 2-4.5 2-5c0-.516-.422-.672-.562-.719.28-.234.671-.343 1.03-.343.845 0 1.313.671 1.313 1.421 0 .688-.375 1.375-1.078 2.079l-2 2.046c-.14.11-.14.141-.14.344V0h4.28Zm0 0"/><path id="C" d="M7.938-7.172a.31.31 0 0 0-.297-.312c-.141 0-.22.093-.297.203-.438.515-1.078.86-1.953.86-1.157 0-1.97-.579-2.266-.798-.203-.14-.437-.265-.766-.265-.843 0-1.718.609-1.718 2.015 0 1.438.906 2.016 1.718 2.016.735 0 1.454-.594 1.454-2.016 0-.172 0-.531-.141-1 .656.297 1.234.407 1.719.407.218 0 .672-.016 1.172-.22L1.702 0s-.11.14-.11.25c0 .172.141.313.313.313.14 0 .188-.063.25-.157l5.672-7.328c.078-.094.11-.14.11-.25m.968 5.719c0-1.453-.765-2-1.469-2-.843 0-1.718.61-1.718 2 0 1.437.906 2.016 1.718 2.016.735 0 1.47-.594 1.47-2.016M3.344-5.47c0 1.297-.594 1.657-.969 1.657-.703 0-.703-1.032-.703-1.657s0-1.656.703-1.656c.422 0 .969.422.969 1.656m5.094 4.016c0 1.297-.61 1.656-.985 1.656-.703 0-.703-1.031-.703-1.656s0-1.64.703-1.64c.438 0 .984.406.984 1.64m0 0"/><path id="D" d="M3.375-2.5c0-1.234-.328-2.328-.797-3.156C1.906-6.813 1-7.484.813-7.484c-.079 0-.172.03-.172.14 0 .063 0 .078.172.235C2.063-5.83 2.406-4.062 2.406-2.5c0 1.969-.515 3.531-1.61 4.64-.155.141-.155.157-.155.204 0 .11.093.14.172.14.171 0 .593-.375.765-.546C3.141.406 3.375-1.437 3.375-2.5m0 0"/><path id="E" d="M5.406 0v-.469h-.968v-1.094h.968v-.468h-.968V-6.22c0-.265-.016-.328-.297-.328-.22 0-.22.016-.344.172L.313-2.031v.469h2.875V-.47h-1.11V0c.375-.031 1.281-.031 1.703-.031.406 0 1.266 0 1.625.031m-2.11-2.031H.845L3.297-5.11Zm0 0"/><path id="F" d="M5.984 0v-.469c-.609 0-.687 0-.687-.39v-6.063l-1.766.078v.469c.625 0 .703 0 .703.39v1.954a2.18 2.18 0 0 0-1.359-.453c-1.453 0-2.5.875-2.5 2.28 0 1.313.922 2.267 2.39 2.267.61 0 1.094-.235 1.407-.485v.485ZM4.172-1.031c-.14.187-.547.734-1.297.734-1.219 0-1.219-1.203-1.219-1.906 0-.485 0-1.016.25-1.406.297-.422.766-.516 1.078-.516.563 0 .97.313 1.188.61Zm0 0"/><path id="G" d="M5.25-1.797c0-.547-.297-1.406-1.734-1.719.687-.203 1.406-.765 1.406-1.625 0-.765-.75-1.39-2.156-1.39-1.188 0-1.97.64-1.97 1.437 0 .422.313.703.688.703a.67.67 0 0 0 .704-.687c0-.578-.547-.688-.579-.703.344-.282.782-.36 1.094-.36.828 0 .86.641.86.97 0 .124-.016 1.437-1.047 1.5-.407.015-.438.015-.485.03-.094.016-.125.11-.125.172 0 .172.11.172.282.172h.437c1.094 0 1.094.985 1.094 1.5 0 .469 0 1.485-1.031 1.485-.266 0-.782-.047-1.266-.344C1.75-.75 2-1 2-1.406c0-.453-.312-.75-.75-.75-.422 0-.766.265-.766.765 0 .907.97 1.5 2.25 1.5 1.782 0 2.516-1 2.516-1.906m0 0"/><path id="H" d="M5.25-2.047c0-1.39-1.016-2.125-2.219-2.125-.219 0-.781 0-1.203.766v-.188c0-1.14.219-1.562.281-1.719.25-.468.782-.828 1.391-.828.172 0 .516.032.75.266a.595.595 0 0 0-.547.61c0 .343.235.624.625.624s.625-.265.625-.64c0-.625-.422-1.25-1.469-1.25-1.359 0-3 .86-3 3.375 0 .781.079 1.578.5 2.265.47.766 1.22 1 1.922 1C4.281.11 5.25-.703 5.25-2.047m-1.36-.015c0 1 0 1.75-1.015 1.75-.516 0-.781-.391-.86-.563-.156-.312-.156-1.031-.156-1.219 0-1.25.532-1.719 1.079-1.719.953 0 .953.75.953 1.75m0 0"/><path id="I" d="M5.25-3.281c0-.672 0-3.25-2.375-3.25-1.406 0-2.39.812-2.39 2.14 0 1.375.984 2.125 2.203 2.125.359 0 .828-.062 1.203-.765v.219c0 .734-.094 1.312-.235 1.656-.172.39-.61.843-1.297.843-.171 0-.53-.03-.828-.218.11-.031.485-.172.485-.625 0-.344-.235-.625-.625-.625-.391 0-.625.265-.625.64 0 .688.515 1.25 1.609 1.25C3.672.11 5.25-.734 5.25-3.28m-1.375-.985c0 .625-.25 1.641-1.094 1.641-.953 0-.953-.75-.953-1.734 0-.985 0-1.782 1.078-1.782.578 0 .813.532.86.625.109.329.109.907.109 1.25m0 0"/><path id="J" d="M5.25-1.86c0-1.077-.844-1.546-1.328-1.827.687-.36 1-.797 1-1.376 0-1.015-.906-1.468-2.047-1.468-1.375 0-2.078.797-2.078 1.75 0 .437.187 1.062.953 1.5C.922-2.906.484-2.344.484-1.61.484-.406 1.563.109 2.844.109 4.438.11 5.25-.766 5.25-1.859M4.172-5.046c0 .484-.25.813-.688 1.11l-1.5-.844c-.156-.078-.437-.25-.437-.594 0-.703.89-.766 1.297-.766.828 0 1.328.407 1.328 1.094m.219 3.734c0 .829-.938 1-1.516 1-.969 0-1.547-.515-1.547-1.296 0-.766.531-1.203.89-1.407l1.36.766c.438.25.813.453.813.938m0 0"/><clipPath id="q"><path d="M0 0h284v162.203H0Zm0 0"/></clipPath><clipPath id="r"><path d="M0 0h298v162.203H0Zm0 0"/></clipPath><clipPath id="s"><path d="M0 0h338.602v162.203H0Zm0 0"/></clipPath><clipPath id="t"><path d="M43 0h295.602v162.203H43Zm0 0"/></clipPath></defs><use xlink:href="#a" x="128.505" y="76.418"/><use xlink:href="#b" x="137.103" y="76.418"/><use xlink:href="#c" x="142.672" y="76.418"/><use xlink:href="#d" x="147.125" y="76.418"/><use xlink:href="#e" x="150.303" y="76.418"/><use xlink:href="#f" x="156.669" y="76.418"/><use xlink:href="#g" x="162.398" y="76.418"/><use xlink:href="#f" x="170.238" y="76.418"/><use xlink:href="#d" x="175.967" y="76.418"/><use xlink:href="#h" x="179.145" y="76.418"/><use xlink:href="#i" x="184.884" y="76.418"/><use xlink:href="#e" x="190.134" y="76.418"/><use xlink:href="#j" x="199.808" y="76.418"/><use xlink:href="#k" x="205.865" y="76.418"/><use xlink:href="#l" x="133.059" y="88.373"/><use xlink:href="#m" x="138.788" y="88.373"/><use xlink:href="#n" x="147.834" y="88.373"/><use xlink:href="#b" x="154.2" y="88.373"/><use xlink:href="#o" x="159.769" y="88.373"/><use xlink:href="#c" x="164.491" y="88.373"/><use xlink:href="#d" x="168.944" y="88.373"/><use xlink:href="#p" x="172.123" y="88.373"/><use xlink:href="#d" x="177.213" y="88.373"/><use xlink:href="#n" x="180.392" y="88.373"/><use xlink:href="#b" x="186.758" y="88.373"/><use xlink:href="#e" x="192.327" y="88.373"/><use xlink:href="#c" x="198.384" y="88.373"/><use xlink:href="#g" x="202.837" y="88.373"/><g clip-path="url(#q)"><path fill="none" stroke="#00BF00" stroke-miterlimit="10" stroke-width="11.339" d="M122.66 49.027a56.7 56.7 0 0 0-8.105 20.059"/></g><g clip-path="url(#r)"><path fill="none" stroke="#66D966" stroke-miterlimit="10" stroke-width="11.339" d="M136.883 125.77c-17.824-12.946-26.531-35.06-22.328-56.684"/></g><g clip-path="url(#s)"><path fill="none" stroke="#666" stroke-miterlimit="10" stroke-width="11.339" d="M136.883 125.77c19.867 14.437 46.777 14.437 66.648 0"/></g><g clip-path="url(#t)"><path fill="none" stroke="#F66" stroke-miterlimit="10" stroke-width="11.339" d="M203.531 125.77a56.69 56.69 0 0 0 23.29-48.832"/></g><path fill="none" stroke="#D9D9D9" stroke-miterlimit="10" stroke-width=".797" d="M170.207 130.93v11.34M176.426 130.55l1.379 11.255M182.55 129.414l2.743 11.004M188.492 127.54l4.063 10.585M194.16 124.957l5.324 10.012M200.195 121.184l6.668 9.175M205.004 117.223l7.734 8.293M209.293 112.703l8.684 7.29M213 107.695l9.508 6.176M216.066 102.273l10.192 4.97M218.734 95.672l10.782 3.504M220.293 89.64l11.129 2.165M221.105 83.465l11.313.789M221.16 77.234l11.324-.593M220.457 71.043l11.164-1.969M218.734 64.137l10.782-3.504M216.45 58.34l10.277-4.79M213.477 52.867l9.617-6.008M209.86 47.793l8.812-7.133M205.648 43.2l7.88-8.157M200.195 38.625l6.668-9.172M194.945 35.277l5.496-9.918M189.32 32.598l4.246-10.516M183.41 30.621l2.938-10.953M177.309 29.379l1.578-11.23M170.207 28.879V17.543M163.988 29.262l-1.383-11.254M157.863 30.395l-2.742-11M151.922 32.27l-4.067-10.586M146.25 34.852l-5.32-10.012M140.215 38.625l-6.664-9.172M135.406 42.59l-7.73-8.293M131.121 47.105l-8.687-7.285M127.414 52.113l-9.512-6.175M124.348 57.54l-10.192-4.974M121.68 64.137l-10.785-3.504M120.117 70.168l-11.129-2.164M119.305 76.344l-11.309-.79M119.25 82.574l-11.32.594M119.957 88.766l-11.168 1.968M121.68 95.672l-10.785 3.504M123.96 101.469l-10.273 4.793M126.934 106.945l-9.614 6.008M130.555 112.016l-8.813 7.136M134.762 116.61l-7.875 8.156M140.215 121.184l-6.664 9.175M145.469 124.531l-5.496 9.918M151.094 127.215l-4.25 10.512M157 129.191l-2.934 10.954M163.105 130.434l-1.578 11.226"/><use xlink:href="#u" x="131.907" y="158.729"/><use xlink:href="#v" x="137.596" y="158.729"/><use xlink:href="#w" x="143.324" y="158.729"/><use xlink:href="#x" x="149.372" y="158.729"/><use xlink:href="#y" x="155.06" y="158.729"/><use xlink:href="#z" x="163.319" y="158.729"/><use xlink:href="#m" x="169.048" y="158.729"/><use xlink:href="#A" x="178.592" y="158.729"/><use xlink:href="#B" x="183.045" y="158.729"/><use xlink:href="#m" x="188.774" y="158.729"/><use xlink:href="#C" x="194.502" y="158.729"/><use xlink:href="#D" x="204.046" y="158.729"/><use xlink:href="#e" x="147.768" y="8.198"/><use xlink:href="#v" x="154.134" y="8.198"/><use xlink:href="#e" x="159.863" y="8.198"/><use xlink:href="#i" x="166.229" y="8.198"/><use xlink:href="#y" x="171.479" y="8.198"/><use xlink:href="#B" x="179.738" y="8.198"/><use xlink:href="#m" x="185.467" y="8.198"/><use xlink:href="#A" x="195.011" y="8.198"/><use xlink:href="#E" x="199.464" y="8.198"/><use xlink:href="#m" x="205.193" y="8.198"/><use xlink:href="#C" x="210.921" y="8.198"/><use xlink:href="#D" x="220.465" y="8.198"/><use xlink:href="#u" x="-.123" y="60.052"/><use xlink:href="#h" x="5.566" y="60.052"/><use xlink:href="#i" x="11.294" y="60.052"/><use xlink:href="#o" x="16.544" y="60.052"/><use xlink:href="#k" x="21.267" y="60.052"/><use xlink:href="#f" x="31.13" y="60.052"/><use xlink:href="#v" x="36.858" y="60.052"/><use xlink:href="#v" x="42.906" y="60.052"/><use xlink:href="#F" x="48.953" y="60.052"/><use xlink:href="#x" x="55.319" y="60.052"/><use xlink:href="#y" x="61.008" y="60.052"/><use xlink:href="#G" x="69.267" y="60.052"/><use xlink:href="#A" x="78.811" y="60.052"/><use xlink:href="#H" x="83.264" y="60.052"/><use xlink:href="#C" x="88.993" y="60.052"/><use xlink:href="#D" x="98.537" y="60.052"/><use xlink:href="#u" x="20.111" y="105.762"/><use xlink:href="#f" x="25.8" y="105.762"/><use xlink:href="#v" x="31.528" y="105.762"/><use xlink:href="#v" x="37.576" y="105.762"/><use xlink:href="#F" x="43.623" y="105.762"/><use xlink:href="#x" x="49.989" y="105.762"/><use xlink:href="#y" x="55.678" y="105.762"/><use xlink:href="#I" x="63.937" y="105.762"/><use xlink:href="#A" x="73.481" y="105.762"/><use xlink:href="#z" x="77.934" y="105.762"/><use xlink:href="#J" x="83.663" y="105.762"/><use xlink:href="#C" x="89.391" y="105.762"/><use xlink:href="#D" x="98.935" y="105.762"/><use xlink:href="#u" x="235.715" y="108.757"/><use xlink:href="#j" x="241.404" y="108.757"/><use xlink:href="#b" x="247.77" y="108.757"/><use xlink:href="#F" x="253.339" y="108.757"/><use xlink:href="#x" x="259.705" y="108.757"/><use xlink:href="#y" x="265.394" y="108.757"/><use xlink:href="#J" x="273.653" y="108.757"/><use xlink:href="#A" x="283.197" y="108.757"/><use xlink:href="#z" x="287.65" y="108.757"/><use xlink:href="#H" x="293.379" y="108.757"/><use xlink:href="#C" x="299.107" y="108.757"/><use xlink:href="#D" x="308.651" y="108.757"/><use xlink:href="#u" x="241.473" y="79.137"/><use xlink:href="#h" x="247.162" y="79.137"/><use xlink:href="#i" x="252.89" y="79.137"/><use xlink:href="#o" x="258.14" y="79.137"/><use xlink:href="#k" x="262.863" y="79.137"/><use xlink:href="#j" x="272.726" y="79.137"/><use xlink:href="#b" x="279.092" y="79.137"/><use xlink:href="#F" x="284.661" y="79.137"/><use xlink:href="#x" x="291.027" y="79.137"/><use xlink:href="#y" x="296.716" y="79.137"/><use xlink:href="#m" x="304.975" y="79.137"/><use xlink:href="#A" x="314.519" y="79.137"/><use xlink:href="#m" x="318.972" y="79.137"/><use xlink:href="#C" x="324.701" y="79.137"/><use xlink:href="#D" x="334.245" y="79.137"/><path fill="none" stroke="#7F7F7F" stroke-miterlimit="10" stroke-width=".399" d="M232.57 79.906c0-34.445-27.922-62.363-62.363-62.363-34.445 0-62.363 27.918-62.363 62.363 0 34.442 27.918 62.364 62.363 62.364 34.441 0 62.363-27.922 62.363-62.364Zm-11.34 0c0-28.18-22.843-51.027-51.023-51.027s-51.023 22.848-51.023 51.027 22.843 51.024 51.023 51.024 51.023-22.844 51.023-51.024Zm0 0"/></svg>