<svg xmlns="http://www.w3.org/2000/svg" xmlns:xlink="http://www.w3.org/1999/xlink" width="100.77" height="112.142"><defs><path id="b" d="M3.89-3.734c-.265.015-.468.234-.468.453 0 .14.094.297.312.297.22 0 .454-.172.454-.563 0-.453-.422-.86-1.188-.86-1.312 0-1.687 1.016-1.687 1.454 0 .781.734.922 1.03.984.516.11 1.032.219 1.032.766 0 .25-.219 1.094-1.422 1.094-.14 0-.906 0-1.14-.532.39.047.64-.25.64-.53 0-.22-.172-.345-.375-.345-.266 0-.562.204-.562.657 0 .562.578.968 1.422.968 1.625 0 2.015-1.203 2.015-1.656a.97.97 0 0 0-.312-.719c-.266-.28-.563-.343-1-.421-.36-.079-.75-.157-.75-.61 0-.281.234-.89 1.109-.89.25 0 .75.078.89.453m0 0"/><path id="c" d="M6.734-5.922c.11-.047.188-.094.188-.219a.197.197 0 0 0-.203-.203c-.047 0-.14.047-.172.063L1.03-3.671c-.172.077-.203.14-.203.218 0 .094.063.156.203.219L6.547-.641c.125.079.14.079.172.079.11 0 .203-.094.203-.204 0-.093-.047-.156-.219-.234L1.5-3.453ZM6.563 1.36c.171 0 .359 0 .359-.187 0-.203-.219-.203-.36-.203H1.189c-.157 0-.36 0-.36.203 0 .187.172.187.344.187Zm0 0"/><path id="d" d="M2.89-3.516c.813-.265 1.391-.953 1.391-1.75 0-.812-.875-1.375-1.828-1.375-1 0-1.765.594-1.765 1.36 0 .328.218.515.515.515s.5-.218.5-.515c0-.485-.469-.485-.61-.485.298-.5.954-.625 1.313-.625.422 0 .969.22.969 1.11 0 .125-.031.703-.281 1.14-.297.485-.64.516-.89.516a3 3 0 0 1-.392.031c-.078.016-.14.031-.14.125 0 .11.062.11.234.11h.438c.812 0 1.187.672 1.187 1.656 0 1.36-.687 1.64-1.125 1.64S1.22-.233.875-.812c.344.047.656-.171.656-.546a.537.537 0 0 0-.547-.563c-.25 0-.562.14-.562.578C.422-.437 1.344.22 2.437.22c1.22 0 2.126-.906 2.126-1.922 0-.813-.641-1.594-1.672-1.813m0 0"/><clipPath id="a"><path d="M30 82h41v29.715H30Zm0 0"/></clipPath></defs><path fill="#CCF" stroke="#7F7FFF" stroke-miterlimit="10" stroke-width=".797" d="M58.773 9.492c0-4.699-3.808-8.504-8.503-8.504a8.503 8.503 0 0 0-8.504 8.504 8.506 8.506 0 0 0 8.504 8.504 8.506 8.506 0 0 0 8.503-8.504ZM58.773 55.645c0-4.7-3.808-8.504-8.503-8.504a8.503 8.503 0 0 0-8.504 8.504 8.506 8.506 0 0 0 8.504 8.503 8.506 8.506 0 0 0 8.503-8.503Zm0 0"/><path fill="#CCF" d="M58.773 101.793a8.506 8.506 0 0 0-8.503-8.504 8.506 8.506 0 0 0-8.504 8.504c0 4.7 3.808 8.504 8.504 8.504a8.503 8.503 0 0 0 8.503-8.504m0 0"/><g clip-path="url(#a)"><path fill="none" stroke="#7F7FFF" stroke-miterlimit="10" stroke-width=".797" d="M58.773 101.793a8.506 8.506 0 0 0-8.503-8.504 8.506 8.506 0 0 0-8.504 8.504c0 4.7 3.808 8.504 8.504 8.504a8.503 8.503 0 0 0 8.503-8.504Zm0 0"/></g><path fill="#CCC" stroke="#7F7F7F" stroke-miterlimit="10" stroke-width=".797" d="M87.918 61.313h11.34v-11.34h-11.34ZM1.285 61.313h11.336v-11.34H1.285Zm0 0"/><use xlink:href="#b" x="38.803" y="88.017" fill="red"/><use xlink:href="#c" x="46.24" y="88.017" fill="red"/><use xlink:href="#d" x="56.756" y="88.017" fill="red"/></svg>