<svg xmlns="http://www.w3.org/2000/svg" xmlns:xlink="http://www.w3.org/1999/xlink" width="101.541" height="62.048"><defs><clipPath id="d"><path d="M0 26h21v35.57H0Zm0 0"/></clipPath><clipPath id="e"><path d="M9 26h26v35.57H9Zm0 0"/></clipPath><clipPath id="f"><path d="M37 26h41v35.57H37Zm0 0"/></clipPath><clipPath id="g"><path d="M66 26h35.313v35.57H66Zm0 0"/></clipPath><path id="a" d="M4.406-3.672c0-.531-.531-.812-1.062-.812-.688 0-1.094.5-1.313 1.125v-1.125l-1.656.078v.468c.61 0 .688 0 .688.391v3.078H.375V0l1.25-.031C2-.031 2.641-.031 3 0v-.469h-.86v-1.75c0-.687.235-1.906 1.235-1.906 0 0-.187.172-.187.453 0 .406.328.61.609.61.297 0 .61-.204.61-.61m0 0"/><path id="b" d="M5.406-2.172c0-1.344-.922-2.344-2.547-2.344C1.22-4.516.313-3.5.313-2.172c0 1.235.89 2.235 2.546 2.235 1.672 0 2.547-1.016 2.547-2.235m-1.281-.11c0 .86 0 1.938-1.266 1.938-1.265 0-1.265-1.078-1.265-1.937 0-.453 0-.953.172-1.297.187-.375.609-.578 1.093-.578.422 0 .844.156 1.063.5.203.344.203.89.203 1.375m0 0"/><path id="c" d="M3.813-1.234v-.532h-.47v.516c0 .672-.327.906-.609.906-.578 0-.578-.64-.578-.86v-2.75h1.469v-.468H2.156v-1.906h-.469c0 1-.484 1.984-1.484 2.016v.359h.828v2.734c0 1.063.86 1.282 1.578 1.282.75 0 1.204-.579 1.204-1.297m0 0"/></defs><use xlink:href="#a" x="32.996" y="6.859"/><use xlink:href="#b" x="37.719" y="6.859"/><use xlink:href="#b" x="43.766" y="6.859"/><use xlink:href="#c" x="49.495" y="6.859"/><path fill="none" stroke="#000" stroke-miterlimit="10" stroke-width=".399" d="M36.762 10.438 15.125 32.073"/><g clip-path="url(#d)"><path fill="none" stroke="#000" stroke-miterlimit="10" stroke-width=".399" d="M15.125 32.074.953 60.418"/></g><g clip-path="url(#e)"><path fill="none" stroke="#000" stroke-miterlimit="10" stroke-width=".399" d="m15.125 32.074 14.176 28.344"/></g><path fill="none" stroke="#000" stroke-miterlimit="10" stroke-width=".399" d="M50.184 10.438 71.82 32.073"/><g clip-path="url(#f)"><path fill="none" stroke="#000" stroke-miterlimit="10" stroke-width=".399" d="M71.82 32.074 43.473 60.418"/></g><path fill="none" stroke="#000" stroke-miterlimit="10" stroke-width=".399" d="M71.82 32.074v28.344"/><g clip-path="url(#g)"><path fill="none" stroke="#000" stroke-miterlimit="10" stroke-width=".399" d="m71.82 32.074 28.348 28.344"/></g></svg>