<svg xmlns="http://www.w3.org/2000/svg" width="44.948" height="30.764"><defs><clipPath id="a"><path d="M0 0h44.922v30.645H0Zm0 0"/></clipPath></defs><path fill="red" fill-rule="evenodd" d="M29.54 15.273c0-7.828-6.349-14.175-14.177-14.175S1.191 7.445 1.191 15.273s6.344 14.172 14.172 14.172S29.54 23.102 29.54 15.273m14.17 0c0-7.828-6.343-14.175-14.17-14.175-7.83 0-14.177 6.347-14.177 14.175s6.348 14.172 14.176 14.172 14.172-6.343 14.172-14.172m0 0"/><g clip-path="url(#a)"><path fill="none" stroke="#000" stroke-miterlimit="10" stroke-width=".399" d="M29.54 15.273c0-7.828-6.349-14.175-14.177-14.175S1.191 7.445 1.191 15.273s6.344 14.172 14.172 14.172S29.54 23.102 29.54 15.273Zm14.17 0c0-7.828-6.343-14.175-14.17-14.175-7.83 0-14.177 6.347-14.177 14.175s6.348 14.172 14.176 14.172 14.172-6.343 14.172-14.172Zm0 0"/></g></svg>