<svg xmlns="http://www.w3.org/2000/svg" width="87.059" height="72.884"><defs><clipPath id="a"><path d="M0 70h5v2H0Zm0 0"/></clipPath><clipPath id="b"><path d="M.54 71.824V43.48C.54 19.996 19.573.957 43.058.957s42.52 19.04 42.52 42.523v28.344"/></clipPath><clipPath id="c"><path d="M3 70h13v2H3Zm0 0"/></clipPath><clipPath id="d"><path d="M.54 71.824V43.48C.54 19.996 19.573.957 43.058.957s42.52 19.04 42.52 42.523v28.344"/></clipPath><clipPath id="e"><path d="M14.285 70H28v2H14.285Zm0 0"/></clipPath><clipPath id="f"><path d="M.54 71.824V43.48C.54 19.996 19.573.957 43.058.957s42.52 19.04 42.52 42.523v28.344"/></clipPath><clipPath id="g"><path d="M26 70h13v2H26Zm0 0"/></clipPath><clipPath id="h"><path d="M.54 71.824V43.48C.54 19.996 19.573.957 43.058.957s42.52 19.04 42.52 42.523v28.344"/></clipPath><clipPath id="i"><path d="M37 70h13v2H37Zm0 0"/></clipPath><clipPath id="j"><path d="M.54 71.824V43.48C.54 19.996 19.573.957 43.058.957s42.52 19.04 42.52 42.523v28.344"/></clipPath><clipPath id="k"><path d="M48.3 70H62v2H48.3Zm0 0"/></clipPath><clipPath id="l"><path d="M.54 71.824V43.48C.54 19.996 19.573.957 43.058.957s42.52 19.04 42.52 42.523v28.344"/></clipPath><clipPath id="m"><path d="M60 70h13v2H60Zm0 0"/></clipPath><clipPath id="n"><path d="M.54 71.824V43.48C.54 19.996 19.573.957 43.058.957s42.52 19.04 42.52 42.523v28.344"/></clipPath><clipPath id="o"><path d="M71 70h13v2H71Zm0 0"/></clipPath><clipPath id="p"><path d="M.54 71.824V43.48C.54 19.996 19.573.957 43.058.957s42.52 19.04 42.52 42.523v28.344"/></clipPath><clipPath id="q"><path d="M82.316 70H86v2h-3.684Zm0 0"/></clipPath><clipPath id="r"><path d="M.54 71.824V43.48C.54 19.996 19.573.957 43.058.957s42.52 19.04 42.52 42.523v28.344"/></clipPath><clipPath id="s"><path d="M0 58h5v13H0Zm0 0"/></clipPath><clipPath id="t"><path d="M.54 71.824V43.48C.54 19.996 19.573.957 43.058.957s42.52 19.04 42.52 42.523v28.344"/></clipPath><clipPath id="u"><path d="M3 58h13v13H3Zm0 0"/></clipPath><clipPath id="v"><path d="M.54 71.824V43.48C.54 19.996 19.573.957 43.058.957s42.52 19.04 42.52 42.523v28.344"/></clipPath><clipPath id="w"><path d="M14.285 58H28v13H14.285Zm0 0"/></clipPath><clipPath id="x"><path d="M.54 71.824V43.48C.54 19.996 19.573.957 43.058.957s42.52 19.04 42.52 42.523v28.344"/></clipPath><clipPath id="y"><path d="M26 58h13v13H26Zm0 0"/></clipPath><clipPath id="z"><path d="M.54 71.824V43.48C.54 19.996 19.573.957 43.058.957s42.52 19.04 42.52 42.523v28.344"/></clipPath><clipPath id="A"><path d="M37 58h13v13H37Zm0 0"/></clipPath><clipPath id="B"><path d="M.54 71.824V43.48C.54 19.996 19.573.957 43.058.957s42.52 19.04 42.52 42.523v28.344"/></clipPath><clipPath id="C"><path d="M48.3 58H62v13H48.3Zm0 0"/></clipPath><clipPath id="D"><path d="M.54 71.824V43.48C.54 19.996 19.573.957 43.058.957s42.52 19.04 42.52 42.523v28.344"/></clipPath><clipPath id="E"><path d="M60 58h13v13H60Zm0 0"/></clipPath><clipPath id="F"><path d="M.54 71.824V43.48C.54 19.996 19.573.957 43.058.957s42.52 19.04 42.52 42.523v28.344"/></clipPath><clipPath id="G"><path d="M71 58h13v13H71Zm0 0"/></clipPath><clipPath id="H"><path d="M.54 71.824V43.48C.54 19.996 19.573.957 43.058.957s42.52 19.04 42.52 42.523v28.344"/></clipPath><clipPath id="I"><path d="M82.316 58H86v13h-3.684Zm0 0"/></clipPath><clipPath id="J"><path d="M.54 71.824V43.48C.54 19.996 19.573.957 43.058.957s42.52 19.04 42.52 42.523v28.344"/></clipPath><clipPath id="K"><path d="M0 47h5v13H0Zm0 0"/></clipPath><clipPath id="L"><path d="M.54 71.824V43.48C.54 19.996 19.573.957 43.058.957s42.52 19.04 42.52 42.523v28.344"/></clipPath><clipPath id="M"><path d="M3 47h13v13H3Zm0 0"/></clipPath><clipPath id="N"><path d="M.54 71.824V43.48C.54 19.996 19.573.957 43.058.957s42.52 19.04 42.52 42.523v28.344"/></clipPath><clipPath id="O"><path d="M14.285 47H28v13H14.285Zm0 0"/></clipPath><clipPath id="P"><path d="M.54 71.824V43.48C.54 19.996 19.573.957 43.058.957s42.52 19.04 42.52 42.523v28.344"/></clipPath><clipPath id="Q"><path d="M26 47h13v13H26Zm0 0"/></clipPath><clipPath id="R"><path d="M.54 71.824V43.48C.54 19.996 19.573.957 43.058.957s42.52 19.04 42.52 42.523v28.344"/></clipPath><clipPath id="S"><path d="M37 47h13v13H37Zm0 0"/></clipPath><clipPath id="T"><path d="M.54 71.824V43.48C.54 19.996 19.573.957 43.058.957s42.52 19.04 42.52 42.523v28.344"/></clipPath><clipPath id="U"><path d="M48.3 47H62v13H48.3Zm0 0"/></clipPath><clipPath id="V"><path d="M.54 71.824V43.48C.54 19.996 19.573.957 43.058.957s42.52 19.04 42.52 42.523v28.344"/></clipPath><clipPath id="W"><path d="M60 47h13v13H60Zm0 0"/></clipPath><clipPath id="X"><path d="M.54 71.824V43.48C.54 19.996 19.573.957 43.058.957s42.52 19.04 42.52 42.523v28.344"/></clipPath><clipPath id="Y"><path d="M71 47h13v13H71Zm0 0"/></clipPath><clipPath id="Z"><path d="M.54 71.824V43.48C.54 19.996 19.573.957 43.058.957s42.52 19.04 42.52 42.523v28.344"/></clipPath><clipPath id="aa"><path d="M82.316 47H86v13h-3.684Zm0 0"/></clipPath><clipPath id="ab"><path d="M.54 71.824V43.48C.54 19.996 19.573.957 43.058.957s42.52 19.04 42.52 42.523v28.344"/></clipPath><clipPath id="ac"><path d="M0 36h5v12.86H0Zm0 0"/></clipPath><clipPath id="ad"><path d="M.54 71.824V43.48C.54 19.996 19.573.957 43.058.957s42.52 19.04 42.52 42.523v28.344"/></clipPath><clipPath id="ae"><path d="M3 36h13v12.86H3Zm0 0"/></clipPath><clipPath id="af"><path d="M.54 71.824V43.48C.54 19.996 19.573.957 43.058.957s42.52 19.04 42.52 42.523v28.344"/></clipPath><clipPath id="ag"><path d="M14.285 36H28v12.86H14.285Zm0 0"/></clipPath><clipPath id="ah"><path d="M.54 71.824V43.48C.54 19.996 19.573.957 43.058.957s42.52 19.04 42.52 42.523v28.344"/></clipPath><clipPath id="ai"><path d="M26 36h13v12.86H26Zm0 0"/></clipPath><clipPath id="aj"><path d="M.54 71.824V43.48C.54 19.996 19.573.957 43.058.957s42.52 19.04 42.52 42.523v28.344"/></clipPath><clipPath id="ak"><path d="M37 36h13v12.86H37Zm0 0"/></clipPath><clipPath id="al"><path d="M.54 71.824V43.48C.54 19.996 19.573.957 43.058.957s42.52 19.04 42.52 42.523v28.344"/></clipPath><clipPath id="am"><path d="M48.3 36H62v12.86H48.3Zm0 0"/></clipPath><clipPath id="an"><path d="M.54 71.824V43.48C.54 19.996 19.573.957 43.058.957s42.52 19.04 42.52 42.523v28.344"/></clipPath><clipPath id="ao"><path d="M60 36h13v12.86H60Zm0 0"/></clipPath><clipPath id="ap"><path d="M.54 71.824V43.48C.54 19.996 19.573.957 43.058.957s42.52 19.04 42.52 42.523v28.344"/></clipPath><clipPath id="aq"><path d="M71 36h13v12.86H71Zm0 0"/></clipPath><clipPath id="ar"><path d="M.54 71.824V43.48C.54 19.996 19.573.957 43.058.957s42.52 19.04 42.52 42.523v28.344"/></clipPath><clipPath id="as"><path d="M82.316 36H86v12.86h-3.684Zm0 0"/></clipPath><clipPath id="at"><path d="M.54 71.824V43.48C.54 19.996 19.573.957 43.058.957s42.52 19.04 42.52 42.523v28.344"/></clipPath><clipPath id="au"><path d="M0 24h5v13H0Zm0 0"/></clipPath><clipPath id="av"><path d="M.54 71.824V43.48C.54 19.996 19.573.957 43.058.957s42.52 19.04 42.52 42.523v28.344"/></clipPath><clipPath id="aw"><path d="M3 24h13v13H3Zm0 0"/></clipPath><clipPath id="ax"><path d="M.54 71.824V43.48C.54 19.996 19.573.957 43.058.957s42.52 19.04 42.52 42.523v28.344"/></clipPath><clipPath id="ay"><path d="M14.285 24H28v13H14.285Zm0 0"/></clipPath><clipPath id="az"><path d="M.54 71.824V43.48C.54 19.996 19.573.957 43.058.957s42.52 19.04 42.52 42.523v28.344"/></clipPath><clipPath id="aA"><path d="M26 24h13v13H26Zm0 0"/></clipPath><clipPath id="aB"><path d="M.54 71.824V43.48C.54 19.996 19.573.957 43.058.957s42.52 19.04 42.52 42.523v28.344"/></clipPath><clipPath id="aC"><path d="M37 24h13v13H37Zm0 0"/></clipPath><clipPath id="aD"><path d="M.54 71.824V43.48C.54 19.996 19.573.957 43.058.957s42.52 19.04 42.52 42.523v28.344"/></clipPath><clipPath id="aE"><path d="M48.3 24H62v13H48.3Zm0 0"/></clipPath><clipPath id="aF"><path d="M.54 71.824V43.48C.54 19.996 19.573.957 43.058.957s42.52 19.04 42.52 42.523v28.344"/></clipPath><clipPath id="aG"><path d="M60 24h13v13H60Zm0 0"/></clipPath><clipPath id="aH"><path d="M.54 71.824V43.48C.54 19.996 19.573.957 43.058.957s42.52 19.04 42.52 42.523v28.344"/></clipPath><clipPath id="aI"><path d="M71 24h13v13H71Zm0 0"/></clipPath><clipPath id="aJ"><path d="M.54 71.824V43.48C.54 19.996 19.573.957 43.058.957s42.52 19.04 42.52 42.523v28.344"/></clipPath><clipPath id="aK"><path d="M82.316 24H86v13h-3.684Zm0 0"/></clipPath><clipPath id="aL"><path d="M.54 71.824V43.48C.54 19.996 19.573.957 43.058.957s42.52 19.04 42.52 42.523v28.344"/></clipPath><clipPath id="aM"><path d="M0 13h5v13H0Zm0 0"/></clipPath><clipPath id="aN"><path d="M.54 71.824V43.48C.54 19.996 19.573.957 43.058.957s42.52 19.04 42.52 42.523v28.344"/></clipPath><clipPath id="aO"><path d="M3 13h13v13H3Zm0 0"/></clipPath><clipPath id="aP"><path d="M.54 71.824V43.48C.54 19.996 19.573.957 43.058.957s42.52 19.04 42.52 42.523v28.344"/></clipPath><clipPath id="aQ"><path d="M14.285 13H28v13H14.285Zm0 0"/></clipPath><clipPath id="aR"><path d="M.54 71.824V43.48C.54 19.996 19.573.957 43.058.957s42.52 19.04 42.52 42.523v28.344"/></clipPath><clipPath id="aS"><path d="M26 13h13v13H26Zm0 0"/></clipPath><clipPath id="aT"><path d="M.54 71.824V43.48C.54 19.996 19.573.957 43.058.957s42.52 19.04 42.52 42.523v28.344"/></clipPath><clipPath id="aU"><path d="M37 13h13v13H37Zm0 0"/></clipPath><clipPath id="aV"><path d="M.54 71.824V43.48C.54 19.996 19.573.957 43.058.957s42.52 19.04 42.52 42.523v28.344"/></clipPath><clipPath id="aW"><path d="M48.3 13H62v13H48.3Zm0 0"/></clipPath><clipPath id="aX"><path d="M.54 71.824V43.48C.54 19.996 19.573.957 43.058.957s42.52 19.04 42.52 42.523v28.344"/></clipPath><clipPath id="aY"><path d="M60 13h13v13H60Zm0 0"/></clipPath><clipPath id="aZ"><path d="M.54 71.824V43.48C.54 19.996 19.573.957 43.058.957s42.52 19.04 42.52 42.523v28.344"/></clipPath><clipPath id="ba"><path d="M71 13h13v13H71Zm0 0"/></clipPath><clipPath id="bb"><path d="M.54 71.824V43.48C.54 19.996 19.573.957 43.058.957s42.52 19.04 42.52 42.523v28.344"/></clipPath><clipPath id="bc"><path d="M82.316 13H86v13h-3.684Zm0 0"/></clipPath><clipPath id="bd"><path d="M.54 71.824V43.48C.54 19.996 19.573.957 43.058.957s42.52 19.04 42.52 42.523v28.344"/></clipPath><clipPath id="be"><path d="M0 2h5v12.844H0Zm0 0"/></clipPath><clipPath id="bf"><path d="M.54 71.824V43.48C.54 19.996 19.573.957 43.058.957s42.52 19.04 42.52 42.523v28.344"/></clipPath><clipPath id="bg"><path d="M3 2h13v12.844H3Zm0 0"/></clipPath><clipPath id="bh"><path d="M.54 71.824V43.48C.54 19.996 19.573.957 43.058.957s42.52 19.04 42.52 42.523v28.344"/></clipPath><clipPath id="bi"><path d="M14.285 2H28v12.844H14.285Zm0 0"/></clipPath><clipPath id="bj"><path d="M.54 71.824V43.48C.54 19.996 19.573.957 43.058.957s42.52 19.04 42.52 42.523v28.344"/></clipPath><clipPath id="bk"><path d="M26 2h13v12.844H26Zm0 0"/></clipPath><clipPath id="bl"><path d="M.54 71.824V43.48C.54 19.996 19.573.957 43.058.957s42.52 19.04 42.52 42.523v28.344"/></clipPath><clipPath id="bm"><path d="M37 2h13v12.844H37Zm0 0"/></clipPath><clipPath id="bn"><path d="M.54 71.824V43.48C.54 19.996 19.573.957 43.058.957s42.52 19.04 42.52 42.523v28.344"/></clipPath><clipPath id="bo"><path d="M48.3 2H62v12.844H48.3Zm0 0"/></clipPath><clipPath id="bp"><path d="M.54 71.824V43.48C.54 19.996 19.573.957 43.058.957s42.52 19.04 42.52 42.523v28.344"/></clipPath><clipPath id="bq"><path d="M60 2h13v12.844H60Zm0 0"/></clipPath><clipPath id="br"><path d="M.54 71.824V43.48C.54 19.996 19.573.957 43.058.957s42.52 19.04 42.52 42.523v28.344"/></clipPath><clipPath id="bs"><path d="M71 2h13v12.844H71Zm0 0"/></clipPath><clipPath id="bt"><path d="M.54 71.824V43.48C.54 19.996 19.573.957 43.058.957s42.52 19.04 42.52 42.523v28.344"/></clipPath><clipPath id="bu"><path d="M82.316 2H86v12.844h-3.684Zm0 0"/></clipPath><clipPath id="bv"><path d="M.54 71.824V43.48C.54 19.996 19.573.957 43.058.957s42.52 19.04 42.52 42.523v28.344"/></clipPath><clipPath id="bw"><path d="M0 0h5v3H0Zm0 0"/></clipPath><clipPath id="bx"><path d="M.54 71.824V43.48C.54 19.996 19.573.957 43.058.957s42.52 19.04 42.52 42.523v28.344"/></clipPath><clipPath id="by"><path d="M3 0h13v3H3Zm0 0"/></clipPath><clipPath id="bz"><path d="M.54 71.824V43.48C.54 19.996 19.573.957 43.058.957s42.52 19.04 42.52 42.523v28.344"/></clipPath><clipPath id="bA"><path d="M14.285 0H28v3H14.285Zm0 0"/></clipPath><clipPath id="bB"><path d="M.54 71.824V43.48C.54 19.996 19.573.957 43.058.957s42.52 19.04 42.52 42.523v28.344"/></clipPath><clipPath id="bC"><path d="M26 0h13v3H26Zm0 0"/></clipPath><clipPath id="bD"><path d="M.54 71.824V43.48C.54 19.996 19.573.957 43.058.957s42.52 19.04 42.52 42.523v28.344"/></clipPath><clipPath id="bE"><path d="M37 0h13v3H37Zm0 0"/></clipPath><clipPath id="bF"><path d="M.54 71.824V43.48C.54 19.996 19.573.957 43.058.957s42.52 19.04 42.52 42.523v28.344"/></clipPath><clipPath id="bG"><path d="M48.3 0H62v3H48.3Zm0 0"/></clipPath><clipPath id="bH"><path d="M.54 71.824V43.48C.54 19.996 19.573.957 43.058.957s42.52 19.04 42.52 42.523v28.344"/></clipPath><clipPath id="bI"><path d="M60 0h13v3H60Zm0 0"/></clipPath><clipPath id="bJ"><path d="M.54 71.824V43.48C.54 19.996 19.573.957 43.058.957s42.52 19.04 42.52 42.523v28.344"/></clipPath><clipPath id="bK"><path d="M71 0h13v3H71Zm0 0"/></clipPath><clipPath id="bL"><path d="M.54 71.824V43.48C.54 19.996 19.573.957 43.058.957s42.52 19.04 42.52 42.523v28.344"/></clipPath><clipPath id="bM"><path d="M82.316 0H86v3h-3.684Zm0 0"/></clipPath><clipPath id="bN"><path d="M.54 71.824V43.48C.54 19.996 19.573.957 43.058.957s42.52 19.04 42.52 42.523v28.344"/></clipPath></defs><path fill="red" d="M.54 71.824V43.48C.54 19.996 19.573.957 43.058.957s42.52 19.04 42.52 42.523v28.344"/><g clip-path="url(#a)"><g clip-path="url(#b)"><path fill="none" stroke="#FFF" stroke-miterlimit="10" stroke-width=".797" d="M-7.398 79.043h11.34m-11.34-5.668h11.34m-8.504 8.504v-2.836m5.667 0v-5.668m-5.667 0v-2.836"/></g></g><g clip-path="url(#c)"><g clip-path="url(#d)"><path fill="none" stroke="#FFF" stroke-miterlimit="10" stroke-width=".797" d="M3.941 79.043h11.34m-11.34-5.668h11.34m-8.504 8.504v-2.836m5.668 0v-5.668m-5.668 0v-2.836"/></g></g><g clip-path="url(#e)"><g clip-path="url(#f)"><path fill="none" stroke="#FFF" stroke-miterlimit="10" stroke-width=".797" d="M15.281 79.043h11.34m-11.34-5.668h11.34m-8.508 8.504v-2.836m5.672 0v-5.668m-5.672 0v-2.836"/></g></g><g clip-path="url(#g)"><g clip-path="url(#h)"><path fill="none" stroke="#FFF" stroke-miterlimit="10" stroke-width=".797" d="M26.621 79.043h11.336m-11.336-5.668h11.336m-8.504 8.504v-2.836m5.672 0v-5.668m-5.672 0v-2.836"/></g></g><g clip-path="url(#i)"><g clip-path="url(#j)"><path fill="none" stroke="#FFF" stroke-miterlimit="10" stroke-width=".797" d="M37.957 79.043h11.34m-11.34-5.668h11.34m-8.504 8.504v-2.836m5.668 0v-5.668m-5.668 0v-2.836"/></g></g><g clip-path="url(#k)"><g clip-path="url(#l)"><path fill="none" stroke="#FFF" stroke-miterlimit="10" stroke-width=".797" d="M49.297 79.043h11.34m-11.34-5.668h11.34m-8.504 8.504v-2.836m5.668 0v-5.668m-5.668 0v-2.836"/></g></g><g clip-path="url(#m)"><g clip-path="url(#n)"><path fill="none" stroke="#FFF" stroke-miterlimit="10" stroke-width=".797" d="M60.637 79.043h11.336m-11.336-5.668h11.336m-8.504 8.504v-2.836m5.672 0v-5.668m-5.672 0v-2.836"/></g></g><g clip-path="url(#o)"><g clip-path="url(#p)"><path fill="none" stroke="#FFF" stroke-miterlimit="10" stroke-width=".797" d="M71.973 79.043h11.34m-11.34-5.668h11.34m-8.504 8.504v-2.836m5.668 0v-5.668m-5.668 0v-2.836"/></g></g><g clip-path="url(#q)"><g clip-path="url(#r)"><path fill="none" stroke="#FFF" stroke-miterlimit="10" stroke-width=".797" d="M83.313 79.043h11.34m-11.34-5.668h11.34m-8.505 8.504v-2.836m5.668 0v-5.668m-5.668 0v-2.836"/></g></g><g clip-path="url(#s)"><g clip-path="url(#t)"><path fill="none" stroke="#FFF" stroke-miterlimit="10" stroke-width=".797" d="M-7.398 67.707h11.34m-11.34-5.672h11.34m-8.504 8.504v-2.832m5.667 0v-5.672m-5.667 0v-2.832"/></g></g><g clip-path="url(#u)"><g clip-path="url(#v)"><path fill="none" stroke="#FFF" stroke-miterlimit="10" stroke-width=".797" d="M3.941 67.707h11.34m-11.34-5.672h11.34M6.777 70.54v-2.832m5.668 0v-5.672m-5.668 0v-2.832"/></g></g><g clip-path="url(#w)"><g clip-path="url(#x)"><path fill="none" stroke="#FFF" stroke-miterlimit="10" stroke-width=".797" d="M15.281 67.707h11.34m-11.34-5.672h11.34m-8.508 8.504v-2.832m5.672 0v-5.672m-5.672 0v-2.832"/></g></g><g clip-path="url(#y)"><g clip-path="url(#z)"><path fill="none" stroke="#FFF" stroke-miterlimit="10" stroke-width=".797" d="M26.621 67.707h11.336m-11.336-5.672h11.336m-8.504 8.504v-2.832m5.672 0v-5.672m-5.672 0v-2.832"/></g></g><g clip-path="url(#A)"><g clip-path="url(#B)"><path fill="none" stroke="#FFF" stroke-miterlimit="10" stroke-width=".797" d="M37.957 67.707h11.34m-11.34-5.672h11.34m-8.504 8.504v-2.832m5.668 0v-5.672m-5.668 0v-2.832"/></g></g><g clip-path="url(#C)"><g clip-path="url(#D)"><path fill="none" stroke="#FFF" stroke-miterlimit="10" stroke-width=".797" d="M49.297 67.707h11.34m-11.34-5.672h11.34m-8.504 8.504v-2.832m5.668 0v-5.672m-5.668 0v-2.832"/></g></g><g clip-path="url(#E)"><g clip-path="url(#F)"><path fill="none" stroke="#FFF" stroke-miterlimit="10" stroke-width=".797" d="M60.637 67.707h11.336m-11.336-5.672h11.336m-8.504 8.504v-2.832m5.672 0v-5.672m-5.672 0v-2.832"/></g></g><g clip-path="url(#G)"><g clip-path="url(#H)"><path fill="none" stroke="#FFF" stroke-miterlimit="10" stroke-width=".797" d="M71.973 67.707h11.34m-11.34-5.672h11.34m-8.504 8.504v-2.832m5.668 0v-5.672m-5.668 0v-2.832"/></g></g><g clip-path="url(#I)"><g clip-path="url(#J)"><path fill="none" stroke="#FFF" stroke-miterlimit="10" stroke-width=".797" d="M83.313 67.707h11.34m-11.34-5.672h11.34m-8.505 8.504v-2.832m5.668 0v-5.672m-5.668 0v-2.832"/></g></g><g clip-path="url(#K)"><g clip-path="url(#L)"><path fill="none" stroke="#FFF" stroke-miterlimit="10" stroke-width=".797" d="M-7.398 56.367h11.34M-7.399 50.7h11.34m-8.504 8.504v-2.836m5.667 0V50.7m-5.667 0v-2.836"/></g></g><g clip-path="url(#M)"><g clip-path="url(#N)"><path fill="none" stroke="#FFF" stroke-miterlimit="10" stroke-width=".797" d="M3.941 56.367h11.34M3.941 50.7h11.34m-8.504 8.504v-2.836m5.668 0V50.7m-5.668 0v-2.836"/></g></g><g clip-path="url(#O)"><g clip-path="url(#P)"><path fill="none" stroke="#FFF" stroke-miterlimit="10" stroke-width=".797" d="M15.281 56.367h11.34M15.281 50.7h11.34m-8.508 8.504v-2.836m5.672 0V50.7m-5.672 0v-2.836"/></g></g><g clip-path="url(#Q)"><g clip-path="url(#R)"><path fill="none" stroke="#FFF" stroke-miterlimit="10" stroke-width=".797" d="M26.621 56.367h11.336M26.621 50.7h11.336m-8.504 8.504v-2.836m5.672 0V50.7m-5.672 0v-2.836"/></g></g><g clip-path="url(#S)"><g clip-path="url(#T)"><path fill="none" stroke="#FFF" stroke-miterlimit="10" stroke-width=".797" d="M37.957 56.367h11.34M37.957 50.7h11.34m-8.504 8.504v-2.836m5.668 0V50.7m-5.668 0v-2.836"/></g></g><g clip-path="url(#U)"><g clip-path="url(#V)"><path fill="none" stroke="#FFF" stroke-miterlimit="10" stroke-width=".797" d="M49.297 56.367h11.34M49.297 50.7h11.34m-8.504 8.504v-2.836m5.668 0V50.7m-5.668 0v-2.836"/></g></g><g clip-path="url(#W)"><g clip-path="url(#X)"><path fill="none" stroke="#FFF" stroke-miterlimit="10" stroke-width=".797" d="M60.637 56.367h11.336M60.637 50.7h11.336m-8.504 8.504v-2.836m5.672 0V50.7m-5.672 0v-2.836"/></g></g><g clip-path="url(#Y)"><g clip-path="url(#Z)"><path fill="none" stroke="#FFF" stroke-miterlimit="10" stroke-width=".797" d="M71.973 56.367h11.34M71.973 50.7h11.34m-8.504 8.504v-2.836m5.668 0V50.7m-5.668 0v-2.836"/></g></g><g clip-path="url(#aa)"><g clip-path="url(#ab)"><path fill="none" stroke="#FFF" stroke-miterlimit="10" stroke-width=".797" d="M83.313 56.367h11.34M83.312 50.7h11.34m-8.505 8.504v-2.836m5.668 0V50.7m-5.668 0v-2.836"/></g></g><g clip-path="url(#ac)"><g clip-path="url(#ad)"><path fill="none" stroke="#FFF" stroke-miterlimit="10" stroke-width=".797" d="M-7.398 45.027h11.34m-11.34-5.668h11.34m-8.504 8.504v-2.836m5.667 0V39.36m-5.667 0v-2.836"/></g></g><g clip-path="url(#ae)"><g clip-path="url(#af)"><path fill="none" stroke="#FFF" stroke-miterlimit="10" stroke-width=".797" d="M3.941 45.027h11.34M3.941 39.36h11.34m-8.504 8.504v-2.836m5.668 0V39.36m-5.668 0v-2.836"/></g></g><g clip-path="url(#ag)"><g clip-path="url(#ah)"><path fill="none" stroke="#FFF" stroke-miterlimit="10" stroke-width=".797" d="M15.281 45.027h11.34m-11.34-5.668h11.34m-8.508 8.504v-2.836m5.672 0V39.36m-5.672 0v-2.836"/></g></g><g clip-path="url(#ai)"><g clip-path="url(#aj)"><path fill="none" stroke="#FFF" stroke-miterlimit="10" stroke-width=".797" d="M26.621 45.027h11.336M26.621 39.36h11.336m-8.504 8.504v-2.836m5.672 0V39.36m-5.672 0v-2.836"/></g></g><g clip-path="url(#ak)"><g clip-path="url(#al)"><path fill="none" stroke="#FFF" stroke-miterlimit="10" stroke-width=".797" d="M37.957 45.027h11.34m-11.34-5.668h11.34m-8.504 8.504v-2.836m5.668 0V39.36m-5.668 0v-2.836"/></g></g><g clip-path="url(#am)"><g clip-path="url(#an)"><path fill="none" stroke="#FFF" stroke-miterlimit="10" stroke-width=".797" d="M49.297 45.027h11.34m-11.34-5.668h11.34m-8.504 8.504v-2.836m5.668 0V39.36m-5.668 0v-2.836"/></g></g><g clip-path="url(#ao)"><g clip-path="url(#ap)"><path fill="none" stroke="#FFF" stroke-miterlimit="10" stroke-width=".797" d="M60.637 45.027h11.336M60.637 39.36h11.336m-8.504 8.504v-2.836m5.672 0V39.36m-5.672 0v-2.836"/></g></g><g clip-path="url(#aq)"><g clip-path="url(#ar)"><path fill="none" stroke="#FFF" stroke-miterlimit="10" stroke-width=".797" d="M71.973 45.027h11.34m-11.34-5.668h11.34m-8.504 8.504v-2.836m5.668 0V39.36m-5.668 0v-2.836"/></g></g><g clip-path="url(#as)"><g clip-path="url(#at)"><path fill="none" stroke="#FFF" stroke-miterlimit="10" stroke-width=".797" d="M83.313 45.027h11.34m-11.34-5.668h11.34m-8.505 8.504v-2.836m5.668 0V39.36m-5.668 0v-2.836"/></g></g><g clip-path="url(#au)"><g clip-path="url(#av)"><path fill="none" stroke="#FFF" stroke-miterlimit="10" stroke-width=".797" d="M-7.398 33.691h11.34m-11.34-5.671h11.34m-8.504 8.503v-2.832m5.667 0V28.02m-5.667 0v-2.836"/></g></g><g clip-path="url(#aw)"><g clip-path="url(#ax)"><path fill="none" stroke="#FFF" stroke-miterlimit="10" stroke-width=".797" d="M3.941 33.691h11.34M3.941 28.02h11.34m-8.504 8.503v-2.832m5.668 0V28.02m-5.668 0v-2.836"/></g></g><g clip-path="url(#ay)"><g clip-path="url(#az)"><path fill="none" stroke="#FFF" stroke-miterlimit="10" stroke-width=".797" d="M15.281 33.691h11.34m-11.34-5.671h11.34m-8.508 8.503v-2.832m5.672 0V28.02m-5.672 0v-2.836"/></g></g><g clip-path="url(#aA)"><g clip-path="url(#aB)"><path fill="none" stroke="#FFF" stroke-miterlimit="10" stroke-width=".797" d="M26.621 33.691h11.336M26.621 28.02h11.336m-8.504 8.503v-2.832m5.672 0V28.02m-5.672 0v-2.836"/></g></g><g clip-path="url(#aC)"><g clip-path="url(#aD)"><path fill="none" stroke="#FFF" stroke-miterlimit="10" stroke-width=".797" d="M37.957 33.691h11.34m-11.34-5.671h11.34m-8.504 8.503v-2.832m5.668 0V28.02m-5.668 0v-2.836"/></g></g><g clip-path="url(#aE)"><g clip-path="url(#aF)"><path fill="none" stroke="#FFF" stroke-miterlimit="10" stroke-width=".797" d="M49.297 33.691h11.34m-11.34-5.671h11.34m-8.504 8.503v-2.832m5.668 0V28.02m-5.668 0v-2.836"/></g></g><g clip-path="url(#aG)"><g clip-path="url(#aH)"><path fill="none" stroke="#FFF" stroke-miterlimit="10" stroke-width=".797" d="M60.637 33.691h11.336M60.637 28.02h11.336m-8.504 8.503v-2.832m5.672 0V28.02m-5.672 0v-2.836"/></g></g><g clip-path="url(#aI)"><g clip-path="url(#aJ)"><path fill="none" stroke="#FFF" stroke-miterlimit="10" stroke-width=".797" d="M71.973 33.691h11.34m-11.34-5.671h11.34m-8.504 8.503v-2.832m5.668 0V28.02m-5.668 0v-2.836"/></g></g><g clip-path="url(#aK)"><g clip-path="url(#aL)"><path fill="none" stroke="#FFF" stroke-miterlimit="10" stroke-width=".797" d="M83.313 33.691h11.34m-11.34-5.671h11.34m-8.505 8.503v-2.832m5.668 0V28.02m-5.668 0v-2.836"/></g></g><g clip-path="url(#aM)"><g clip-path="url(#aN)"><path fill="none" stroke="#FFF" stroke-miterlimit="10" stroke-width=".797" d="M-7.398 22.352h11.34m-11.34-5.672h11.34m-8.504 8.504v-2.832m5.667 0V16.68m-5.667 0v-2.832"/></g></g><g clip-path="url(#aO)"><g clip-path="url(#aP)"><path fill="none" stroke="#FFF" stroke-miterlimit="10" stroke-width=".797" d="M3.941 22.352h11.34M3.941 16.68h11.34m-8.504 8.504v-2.832m5.668 0V16.68m-5.668 0v-2.832"/></g></g><g clip-path="url(#aQ)"><g clip-path="url(#aR)"><path fill="none" stroke="#FFF" stroke-miterlimit="10" stroke-width=".797" d="M15.281 22.352h11.34m-11.34-5.672h11.34m-8.508 8.504v-2.832m5.672 0V16.68m-5.672 0v-2.832"/></g></g><g clip-path="url(#aS)"><g clip-path="url(#aT)"><path fill="none" stroke="#FFF" stroke-miterlimit="10" stroke-width=".797" d="M26.621 22.352h11.336M26.621 16.68h11.336m-8.504 8.504v-2.832m5.672 0V16.68m-5.672 0v-2.832"/></g></g><g clip-path="url(#aU)"><g clip-path="url(#aV)"><path fill="none" stroke="#FFF" stroke-miterlimit="10" stroke-width=".797" d="M37.957 22.352h11.34m-11.34-5.672h11.34m-8.504 8.504v-2.832m5.668 0V16.68m-5.668 0v-2.832"/></g></g><g clip-path="url(#aW)"><g clip-path="url(#aX)"><path fill="none" stroke="#FFF" stroke-miterlimit="10" stroke-width=".797" d="M49.297 22.352h11.34m-11.34-5.672h11.34m-8.504 8.504v-2.832m5.668 0V16.68m-5.668 0v-2.832"/></g></g><g clip-path="url(#aY)"><g clip-path="url(#aZ)"><path fill="none" stroke="#FFF" stroke-miterlimit="10" stroke-width=".797" d="M60.637 22.352h11.336M60.637 16.68h11.336m-8.504 8.504v-2.832m5.672 0V16.68m-5.672 0v-2.832"/></g></g><g clip-path="url(#ba)"><g clip-path="url(#bb)"><path fill="none" stroke="#FFF" stroke-miterlimit="10" stroke-width=".797" d="M71.973 22.352h11.34m-11.34-5.672h11.34m-8.504 8.504v-2.832m5.668 0V16.68m-5.668 0v-2.832"/></g></g><g clip-path="url(#bc)"><g clip-path="url(#bd)"><path fill="none" stroke="#FFF" stroke-miterlimit="10" stroke-width=".797" d="M83.313 22.352h11.34m-11.34-5.672h11.34m-8.505 8.504v-2.832m5.668 0V16.68m-5.668 0v-2.832"/></g></g><g clip-path="url(#be)"><g clip-path="url(#bf)"><path fill="none" stroke="#FFF" stroke-miterlimit="10" stroke-width=".797" d="M-7.398 11.012h11.34m-11.34-5.668h11.34m-8.504 8.504v-2.836m5.667 0V5.344m-5.667 0V2.508"/></g></g><g clip-path="url(#bg)"><g clip-path="url(#bh)"><path fill="none" stroke="#FFF" stroke-miterlimit="10" stroke-width=".797" d="M3.941 11.012h11.34M3.941 5.344h11.34m-8.504 8.504v-2.836m5.668 0V5.344m-5.668 0V2.508"/></g></g><g clip-path="url(#bi)"><g clip-path="url(#bj)"><path fill="none" stroke="#FFF" stroke-miterlimit="10" stroke-width=".797" d="M15.281 11.012h11.34m-11.34-5.668h11.34m-8.508 8.504v-2.836m5.672 0V5.344m-5.672 0V2.508"/></g></g><g clip-path="url(#bk)"><g clip-path="url(#bl)"><path fill="none" stroke="#FFF" stroke-miterlimit="10" stroke-width=".797" d="M26.621 11.012h11.336M26.621 5.344h11.336m-8.504 8.504v-2.836m5.672 0V5.344m-5.672 0V2.508"/></g></g><g clip-path="url(#bm)"><g clip-path="url(#bn)"><path fill="none" stroke="#FFF" stroke-miterlimit="10" stroke-width=".797" d="M37.957 11.012h11.34m-11.34-5.668h11.34m-8.504 8.504v-2.836m5.668 0V5.344m-5.668 0V2.508"/></g></g><g clip-path="url(#bo)"><g clip-path="url(#bp)"><path fill="none" stroke="#FFF" stroke-miterlimit="10" stroke-width=".797" d="M49.297 11.012h11.34m-11.34-5.668h11.34m-8.504 8.504v-2.836m5.668 0V5.344m-5.668 0V2.508"/></g></g><g clip-path="url(#bq)"><g clip-path="url(#br)"><path fill="none" stroke="#FFF" stroke-miterlimit="10" stroke-width=".797" d="M60.637 11.012h11.336M60.637 5.344h11.336m-8.504 8.504v-2.836m5.672 0V5.344m-5.672 0V2.508"/></g></g><g clip-path="url(#bs)"><g clip-path="url(#bt)"><path fill="none" stroke="#FFF" stroke-miterlimit="10" stroke-width=".797" d="M71.973 11.012h11.34m-11.34-5.668h11.34m-8.504 8.504v-2.836m5.668 0V5.344m-5.668 0V2.508"/></g></g><g clip-path="url(#bu)"><g clip-path="url(#bv)"><path fill="none" stroke="#FFF" stroke-miterlimit="10" stroke-width=".797" d="M83.313 11.012h11.34m-11.34-5.668h11.34m-8.505 8.504v-2.836m5.668 0V5.344m-5.668 0V2.508"/></g></g><g clip-path="url(#bw)"><g clip-path="url(#bx)"><path fill="none" stroke="#FFF" stroke-miterlimit="10" stroke-width=".797" d="M-7.398-.328h11.34m-11.34-5.668h11.34m-8.504 8.504V-.328m5.667 0v-5.668m-5.667 0v-2.836"/></g></g><g clip-path="url(#by)"><g clip-path="url(#bz)"><path fill="none" stroke="#FFF" stroke-miterlimit="10" stroke-width=".797" d="M3.941-.328h11.34M3.941-5.996h11.34M6.777 2.508V-.328m5.668 0v-5.668m-5.668 0v-2.836"/></g></g><g clip-path="url(#bA)"><g clip-path="url(#bB)"><path fill="none" stroke="#FFF" stroke-miterlimit="10" stroke-width=".797" d="M15.281-.328h11.34m-11.34-5.668h11.34m-8.508 8.504V-.328m5.672 0v-5.668m-5.672 0v-2.836"/></g></g><g clip-path="url(#bC)"><g clip-path="url(#bD)"><path fill="none" stroke="#FFF" stroke-miterlimit="10" stroke-width=".797" d="M26.621-.328h11.336M26.621-5.996h11.336m-8.504 8.504V-.328m5.672 0v-5.668m-5.672 0v-2.836"/></g></g><g clip-path="url(#bE)"><g clip-path="url(#bF)"><path fill="none" stroke="#FFF" stroke-miterlimit="10" stroke-width=".797" d="M37.957-.328h11.34m-11.34-5.668h11.34m-8.504 8.504V-.328m5.668 0v-5.668m-5.668 0v-2.836"/></g></g><g clip-path="url(#bG)"><g clip-path="url(#bH)"><path fill="none" stroke="#FFF" stroke-miterlimit="10" stroke-width=".797" d="M49.297-.328h11.34m-11.34-5.668h11.34m-8.504 8.504V-.328m5.668 0v-5.668m-5.668 0v-2.836"/></g></g><g clip-path="url(#bI)"><g clip-path="url(#bJ)"><path fill="none" stroke="#FFF" stroke-miterlimit="10" stroke-width=".797" d="M60.637-.328h11.336M60.637-5.996h11.336m-8.504 8.504V-.328m5.672 0v-5.668m-5.672 0v-2.836"/></g></g><g clip-path="url(#bK)"><g clip-path="url(#bL)"><path fill="none" stroke="#FFF" stroke-miterlimit="10" stroke-width=".797" d="M71.973-.328h11.34m-11.34-5.668h11.34m-8.504 8.504V-.328m5.668 0v-5.668m-5.668 0v-2.836"/></g></g><g clip-path="url(#bM)"><g clip-path="url(#bN)"><path fill="none" stroke="#FFF" stroke-miterlimit="10" stroke-width=".797" d="M83.313-.328h11.34m-11.34-5.668h11.34m-8.505 8.504V-.328m5.668 0v-5.668m-5.668 0v-2.836"/></g></g></svg>