<svg xmlns="http://www.w3.org/2000/svg" width="87.347" height="88.886"><defs><clipPath id="a"><path d="M0 0h87.02v88H0Zm0 0"/></clipPath><clipPath id="b"><path d="M0 14h75v74.828H0Zm0 0"/></clipPath></defs><path fill="none" stroke="#7F7F7F" stroke-miterlimit="10" stroke-width=".199" d="M.883 87.723h85.039M.882 59.375h85.04M.882 31.039h85.04M.882 87.723V31.03m28.345 56.692V31.03m28.347 56.692V31.03M85.91 87.723V31.03"/><g clip-path="url(#a)"><path fill="none" stroke="#000" stroke-miterlimit="10" stroke-width=".399" d="M.883 60.918c1.574.043 3.129.18 4.648.406 1.48.305 2.934.696 4.352 1.168a39 39 0 0 1 4.066 1.875 40 40 0 0 1 3.711 2.535c1.14.977 2.23 2.016 3.258 3.114a41 41 0 0 1 2.7 3.601 40 40 0 0 1 2.058 3.977q.802 2.09 1.363 4.281M.883 50.953a54 54 0 0 1 6.387.563q3.07.634 6.011 1.609a54 54 0 0 1 5.586 2.574 57 57 0 0 1 5.07 3.465 56 56 0 0 1 4.434 4.242 56 56 0 0 1 3.684 4.91 56 56 0 0 1 2.824 5.457 55 55 0 0 1 1.879 5.903M.883 40.992c2.734.078 5.46.32 8.125.711a70 70 0 0 1 7.668 2.055 71 71 0 0 1 7.11 3.277 71 71 0 0 1 6.425 4.39 71 71 0 0 1 5.613 5.368 72 72 0 0 1 4.664 6.223 70 70 0 0 1 3.59 6.937 69 69 0 0 1 2.395 7.524M.883 31.03c3.316.094 6.625.387 9.867.864a84 84 0 0 1 9.32 2.5 84 84 0 0 1 8.63 3.976 86 86 0 0 1 7.784 5.316 85 85 0 0 1 6.793 6.497 86 86 0 0 1 5.645 7.53 84 84 0 0 1 4.355 8.415 83 83 0 0 1 2.914 9.152M.883 21.066a100 100 0 0 1 11.605 1.02 99 99 0 0 1 10.98 2.941 99 99 0 0 1 10.15 4.68c3.167 1.918 6.218 4 9.144 6.242a101 101 0 0 1 7.968 7.625 101 101 0 0 1 6.63 8.84 100 100 0 0 1 5.117 9.895 99 99 0 0 1 3.43 10.773M.882 11.105c4.48.13 8.953.524 13.344 1.172 4.308.891 8.523 2.024 12.636 3.383a115 115 0 0 1 11.672 5.383 115 115 0 0 1 10.5 7.168 117 117 0 0 1 9.149 8.75 117 117 0 0 1 7.609 10.152 115 115 0 0 1 5.887 11.375c1.539 4.028 2.86 8.164 3.945 12.399M.883 1.152C5.94 1.301 11 1.746 15.965 2.477a129 129 0 0 1 14.293 3.828q6.798 2.685 13.191 6.086a130 130 0 0 1 11.856 8.09 131 131 0 0 1 10.324 9.878 131 131 0 0 1 8.594 11.461 131 131 0 0 1 6.648 12.852 128 128 0 0 1 4.461 14.02M.882 60.917V1.141m4.65 60.183q.648-3.68 1.304-7.36.652-3.673 1.305-7.355.651-3.68 1.304-7.355.652-3.68 1.305-7.36.652-3.677 1.305-7.355.651-3.68 1.304-7.36.656-3.677 1.305-7.355.656-3.68 1.305-7.36M9.883 62.493l2.55-7.027 2.547-7.024q1.271-3.512 2.547-7.023 1.271-3.515 2.547-7.023c.848-2.344 1.7-4.684 2.547-7.028.848-2.34 1.7-4.68 2.547-7.023.848-2.34 1.7-4.684 2.547-7.024s1.7-4.683 2.547-7.023M13.949 64.363c1.23-2.164 2.461-4.332 3.688-6.496q1.846-3.248 3.687-6.496 1.845-3.25 3.692-6.5c1.226-2.164 2.457-4.332 3.687-6.496q1.841-3.25 3.688-6.5c1.23-2.164 2.457-4.332 3.687-6.496l3.688-6.5q1.846-3.248 3.687-6.496M17.66 66.903q2.354-2.906 4.707-5.805 2.354-2.902 4.707-5.805 2.351-2.9 4.707-5.805 2.352-2.9 4.703-5.8c1.57-1.934 3.141-3.872 4.707-5.805q2.354-2.9 4.707-5.805l4.707-5.8q2.353-2.906 4.708-5.805M20.917 70.016l5.59-4.957 5.59-4.957q2.794-2.484 5.59-4.961l5.59-4.957 5.59-4.957a6372 6372 0 0 0 5.589-4.961l5.59-4.957 5.59-4.957m-42.02 43.265q3.165-1.991 6.328-3.976c2.11-1.325 4.215-2.653 6.325-3.977l6.328-3.973q3.164-1.991 6.324-3.976 3.165-1.986 6.328-3.977l6.328-3.972a5625 5625 0 0 1 6.324-3.977q3.166-1.985 6.328-3.977M25.676 77.595q3.45-1.433 6.902-2.867 3.449-1.432 6.899-2.864 3.45-1.433 6.902-2.867l6.898-2.867q3.452-1.431 6.903-2.863c2.297-.957 4.597-1.91 6.898-2.868q3.451-1.43 6.902-2.867 3.447-1.431 6.899-2.863m-53.84 27.2c2.43-.552 4.86-1.098 7.285-1.65q3.645-.825 7.29-1.648l7.288-1.652q3.64-.822 7.285-1.648 3.645-.825 7.29-1.649c2.43-.55 4.855-1.101 7.285-1.648l7.289-1.653q3.646-.821 7.285-1.648"/></g><g clip-path="url(#b)"><path fill="none" stroke="red" stroke-miterlimit="10" stroke-width="1.196" d="M.883 31.031c31.18 0 56.691 25.512 56.691 56.692"/></g></svg>