<svg xmlns="http://www.w3.org/2000/svg" xmlns:xlink="http://www.w3.org/1999/xlink" width="111.134" height="109.658"><defs><path id="b" d="M9.328 0v-.469h-.687v-2.578c0-1.031-.516-1.437-1.547-1.437-.907 0-1.422.5-1.688.953-.187-.922-1.11-.953-1.484-.953-.875 0-1.438.453-1.766 1.078v-1.078l-1.703.078v.468c.61 0 .688 0 .688.391v3.078H.453V0l1.25-.031L2.953 0v-.469h-.687v-2.078c0-1.094.875-1.578 1.5-1.578.328 0 .547.203.547.969V-.47h-.688V0l1.266-.031L6.14 0v-.469h-.688v-2.078c0-1.094.86-1.578 1.484-1.578.344 0 .563.203.563.969V-.47h-.687V0l1.25-.031Zm0 0"/><path id="c" d="M5.781-3.953v-.469A13 13 0 0 1 5-4.39l-.906-.03v.468s.468 0 .468.11L4.5-3.72 3.36-1.266 2.093-3.953h.531v-.469l-1.234.031-1.125-.03v.468H.89L2.766 0 2.53.484C2.312.954 2 1.641 1.281 1.641c-.14 0-.156-.016-.234-.047.094-.032.312-.172.312-.532C1.36.734 1.125.5.781.5a.553.553 0 0 0-.562.578c0 .5.469.922 1.062.922.766 0 1.344-.625 1.625-1.187l2.14-4.563c.063-.14.095-.203.735-.203m0 0"/><path id="d" d="M4.766-1.172c0-.14-.141-.14-.235-.14-.187 0-.187.03-.25.156-.25.625-.734.812-1.234.812-1.39 0-1.39-1.453-1.39-1.922 0-.562 0-1.843 1.28-1.843.36 0 .516.015.657.046a.62.62 0 0 0-.203.47c0 .437.343.624.609.624.313 0 .64-.219.64-.625 0-.86-1.156-.922-1.734-.922C1.11-4.516.375-3.375.375-2.219.375-.89 1.313.063 2.844.063c1.625 0 1.922-1.157 1.922-1.235m0 0"/><path id="e" d="M2.844 0v-.469h-.61v-4.015L.5-4.406v.468c.594 0 .656 0 .656.391v3.078H.47V0l1.219-.031Zm-.469-6.047a.774.774 0 0 0-.781-.781.784.784 0 0 0-.782.781c0 .422.36.766.782.766a.77.77 0 0 0 .781-.766m0 0"/><path id="f" d="M4.406-3.672c0-.531-.531-.812-1.062-.812-.688 0-1.094.5-1.313 1.125v-1.125l-1.656.078v.468c.61 0 .688 0 .688.391v3.078H.375V0l1.25-.031C2-.031 2.641-.031 3 0v-.469h-.86v-1.75c0-.687.235-1.906 1.235-1.906 0 0-.187.172-.187.453 0 .406.328.61.609.61.297 0 .61-.204.61-.61m0 0"/><path id="g" d="M2.922 0v-.469h-.688v-6.453L.47-6.844v.469c.625 0 .687 0 .687.39v5.516H.47V0l1.219-.031Zm0 0"/><path id="h" d="M4.922-1.172c0-.172-.188-.172-.234-.172-.172 0-.188.047-.25.203-.204.485-.782.797-1.422.797-1.407 0-1.422-1.328-1.422-1.828h3.015c.22 0 .313 0 .313-.265 0-.313-.063-1.047-.563-1.547-.359-.36-.89-.532-1.578-.532C1.187-4.516.313-3.484.313-2.25c0 1.344 1 2.313 2.609 2.313 1.578 0 2-1.063 2-1.235M3.984-2.5h-2.39c.015-.39.031-.812.234-1.14.266-.391.672-.516.953-.516 1.172 0 1.188 1.312 1.203 1.656m0 0"/><path id="i" d="M8.328 0v-.469h-.984L4.828-3.953 6.5-6.156c.11-.14.125-.157.469-.188.234-.031.297-.031.578-.031h.281v-.469c-.406.032-.906.032-1.328.032-.39 0-1.156 0-1.516-.032v.469c.172 0 .563 0 .922.11-.015.03-.062.077-.078.109L4.5-4.406 3.078-6.375h.828v-.469c-.406.032-1.36.032-1.797.032-.406 0-1.265 0-1.625-.032v.469h.985l2.203 3.063-2 2.64c-.094.125-.11.14-.438.172-.203.016-.406.031-.609.031H.344V0c.406-.031.906-.031 1.328-.031.39 0 1.156 0 1.516.031v-.469c-.172 0-.563 0-.922-.11.015-.015.062-.077.093-.109L4-2.874 5.734-.469h-.828V0c.407-.031 1.36-.031 1.797-.031.406 0 1.266 0 1.625.031m0 0"/><path id="j" d="M8.469-6.375v-.469l-1.14.032c-.391 0-.954 0-1.313-.032v.469c.218 0 .5 0 .75.11-.016.03-.016.062-.063.109l-1.875 2.75-2.016-2.969h.844v-.469c-.406.032-1.375.032-1.828.032-.39 0-1.297 0-1.64-.032v.469h.984l2.484 3.64v2.266H2.578V0c.36-.031 1.328-.031 1.75-.031s1.39 0 1.766.031v-.469H5v-2.265l2.344-3.438c.093-.14.172-.14.39-.172.172-.015.344-.031.516-.031Zm0 0"/><path id="k" d="M6.438-2.828h-.47c-.093 1.11-.234 2.312-2.265 2.312H2.297L6.28-6.344c.078-.125.078-.14.078-.25 0-.25-.109-.25-.312-.25H.922L.797-4.437h.469c.078-1.329.75-1.938 2.14-1.938h1.297L.72-.515C.64-.407.64-.376.64-.266.64 0 .734 0 .953 0H6.25Zm0 0"/><clipPath id="a"><path d="M0 48h61v61.488H0Zm0 0"/></clipPath></defs><g clip-path="url(#a)"><path fill="none" stroke="#000" stroke-miterlimit="10" stroke-width=".399" d="M55.148 81.094c0-15.016-12.171-27.184-27.183-27.184S.785 66.078.785 81.094c0 15.011 12.168 27.18 27.18 27.18s27.183-12.169 27.183-27.18Zm0 0"/></g><use xlink:href="#b" x="5.166" y="83.553"/><use xlink:href="#c" x="14.391" y="83.553"/><use xlink:href="#d" x="24.254" y="83.553"/><use xlink:href="#e" x="29.345" y="83.553"/><use xlink:href="#f" x="32.523" y="83.553"/><use xlink:href="#d" x="37.246" y="83.553"/><use xlink:href="#g" x="42.337" y="83.553"/><use xlink:href="#h" x="45.515" y="83.553"/><use xlink:href="#i" x="101.386" y="84.51"/><path fill="none" stroke="#000" stroke-miterlimit="10" stroke-width=".399" d="M56.742 81.094h2.59c1.246 0 1.867-2.492 3.113-2.492.903 0 1.68 1.214 2.492 2.492.813 1.273 1.59 2.488 2.489 2.488.902 0 1.68-1.215 2.492-2.488.812-1.278 1.59-2.492 2.492-2.492.899 0 1.676 1.214 2.488 2.492.813 1.273 1.59 2.488 2.493 2.488s1.68-1.215 2.488-2.488c.812-1.278 1.59-2.492 2.492-2.492s1.68 1.214 2.492 2.492c.813 1.273 1.586 2.488 2.489 2.488s1.68-1.215 2.492-2.488c.812-1.278 1.59-2.492 2.492-2.492 1.242 0 1.867 2.492 3.113 2.492h2.418"/><path fill="none" stroke="#000" stroke-linecap="round" stroke-linejoin="round" stroke-miterlimit="10" stroke-width=".399" d="M58.613 83.484c-.375-1.437-1.218-2.113-2.07-2.39.852-.281 1.695-.957 2.07-2.395"/><use xlink:href="#j" x="80.913" y="28.145"/><path fill="none" stroke="#000" stroke-miterlimit="10" stroke-width=".399" d="m48.477 60.91 1.843-1.816c.89-.875-.414-3.086.473-3.961.645-.633 2.05-.309 3.523.031s2.88.66 3.524.027c.64-.632.344-2.043.027-3.523-.316-1.477-.613-2.89.028-3.52.644-.632 2.05-.312 3.523.028s2.879.66 3.52.027c.644-.633.343-2.043.03-3.523-.316-1.477-.616-2.887.028-3.52.64-.633 2.047-.312 3.524.028 1.472.34 2.878.66 3.52.027.644-.633.343-2.043.03-3.52-.316-1.48-.617-2.89.028-3.523.886-.875 3.078.465 3.965-.41l2.132-2.098"/><path fill="none" stroke="#000" stroke-linecap="round" stroke-linejoin="round" stroke-miterlimit="10" stroke-width=".39898005000000003" d="M51.488 61.3c-1.277-.757-2.351-.648-3.156-.25.41-.796.54-1.87-.2-3.16"/><use xlink:href="#k" x="24.464" y="7.672"/><path fill="none" stroke="#000" stroke-miterlimit="10" stroke-width=".399" d="M27.965 52.316v-2.59c0-1.246-2.488-1.867-2.488-3.113 0-.902 1.214-1.68 2.488-2.492 1.277-.812 2.492-1.59 2.492-2.492 0-.899-1.215-1.676-2.492-2.488-1.274-.813-2.488-1.59-2.488-2.493s1.214-1.68 2.488-2.488c1.277-.812 2.492-1.59 2.492-2.492s-1.215-1.68-2.492-2.492c-1.274-.809-2.488-1.586-2.488-2.488 0-.903 1.214-1.68 2.488-2.493 1.277-.812 2.492-1.59 2.492-2.488 0-.902-1.215-1.68-2.492-2.492-1.274-.813-2.488-1.59-2.488-2.492 0-1.243 2.488-1.868 2.488-3.114v-2.418"/><path fill="none" stroke="#000" stroke-linecap="round" stroke-linejoin="round" stroke-miterlimit="10" stroke-width=".399" d="M30.355 50.441c-1.433.38-2.109 1.223-2.39 2.075-.277-.852-.957-1.696-2.39-2.075"/></svg>