<svg xmlns="http://www.w3.org/2000/svg" width="113.384" height="119.954"><defs><clipPath id="a"><path d="M32 14h81.074v92H32Zm0 0"/></clipPath><clipPath id="b"><path d="M0 39h81v80.93H0Zm0 0"/></clipPath></defs><path fill="red" fill-opacity=".5" d="M111.66 59.957c0-18.785-15.23-34.016-34.015-34.016-18.79 0-34.016 15.23-34.016 34.016 0 18.79 15.226 34.016 34.016 34.016 18.785 0 34.015-15.227 34.015-34.016m0 0"/><g clip-path="url(#a)"><path fill="none" stroke="#000" stroke-miterlimit="10" stroke-width=".797" d="M111.66 59.957c0-18.785-15.23-34.016-34.015-34.016-18.79 0-34.016 15.23-34.016 34.016 0 18.79 15.226 34.016 34.016 34.016 18.785 0 34.015-15.227 34.015-34.016Zm0 0"/></g><path fill="#0F0" fill-opacity=".5" stroke="#000" stroke-miterlimit="10" stroke-width=".797" d="M69.14 35.41c0-18.789-15.23-34.015-34.015-34.015-18.79 0-34.016 15.226-34.016 34.015 0 18.785 15.227 34.016 34.016 34.016 18.785 0 34.016-15.23 34.016-34.016Zm0 0"/><path fill="#00F" fill-opacity=".5" d="M69.14 84.508c0-18.79-15.23-34.016-34.015-34.016-18.79 0-34.016 15.227-34.016 34.016 0 18.785 15.227 34.015 34.016 34.015 18.785 0 34.016-15.23 34.016-34.015m0 0"/><g clip-path="url(#b)"><path fill="none" stroke="#000" stroke-miterlimit="10" stroke-width=".797" d="M69.14 84.508c0-18.79-15.23-34.016-34.015-34.016-18.79 0-34.016 15.227-34.016 34.016 0 18.785 15.227 34.015 34.016 34.015 18.785 0 34.016-15.23 34.016-34.015Zm0 0"/></g></svg>