<svg xmlns="http://www.w3.org/2000/svg" width="87.058" height="35.75"><defs><clipPath id="a"><path d="M0 0h86.586v12H0Zm0 0"/></clipPath><clipPath id="b"><path d="M0 9h86.586v17H0Zm0 0"/></clipPath><clipPath id="c"><path d="M0 23h86.586v12.625H0Zm0 0"/></clipPath></defs><g clip-path="url(#a)"><path fill="none" stroke="#000" stroke-miterlimit="10" stroke-width=".399" d="M.54 3.582c1.245 0 1.866-2.488 3.112-2.488.903 0 1.676 1.215 2.489 2.488.812 1.277 1.59 2.492 2.492 2.492s1.68-1.215 2.492-2.492c.809-1.273 1.586-2.488 2.488-2.488.903 0 1.68 1.215 2.492 2.488.813 1.277 1.59 2.492 2.489 2.492.902 0 1.68-1.215 2.492-2.492.812-1.273 1.59-2.488 2.492-2.488s1.676 1.215 2.488 2.488c.813 1.277 1.59 2.492 2.493 2.492s1.68-1.215 2.492-2.492c.808-1.273 1.586-2.488 2.488-2.488s1.68 1.215 2.492 2.488c.813 1.277 1.59 2.492 2.489 2.492.902 0 1.68-1.215 2.492-2.492.812-1.273 1.59-2.488 2.492-2.488.898 0 1.676 1.215 2.488 2.488.813 1.277 1.59 2.492 2.492 2.492.903 0 1.68-1.215 2.489-2.492.812-1.273 1.59-2.488 2.492-2.488s1.68 1.215 2.492 2.488c.813 1.277 1.59 2.492 2.488 2.492.903 0 1.68-1.215 2.492-2.492.813-1.273 1.59-2.488 2.493-2.488.898 0 1.675 1.215 2.488 2.488.812 1.277 1.59 2.492 2.492 2.492.903 0 1.68-1.215 2.488-2.492.813-1.273 1.59-2.488 2.493-2.488s1.68 1.215 2.492 2.488c.812 1.277 1.586 2.492 2.488 2.492 1.246 0 1.867-2.492 3.113-2.492h3.696"/></g><path fill="none" stroke="#000" stroke-linecap="round" stroke-linejoin="round" stroke-miterlimit="10" stroke-width=".399" d="M83.309 1.191c.375 1.434 1.218 2.114 2.07 2.391-.852.281-1.695.957-2.07 2.39"/><g clip-path="url(#b)"><path fill="none" stroke="#000" stroke-miterlimit="10" stroke-width=".399" d="M.54 17.758h4.98c1.246 0 1.867-2.492 3.113-2.492.902 0 1.68 1.214 2.492 2.492.809 1.273 1.586 2.488 2.488 2.488.903 0 1.68-1.215 2.492-2.488.813-1.278 1.59-2.492 2.489-2.492.902 0 1.68 1.214 2.492 2.492.812 1.273 1.59 2.488 2.492 2.488s1.676-1.215 2.488-2.488c.813-1.278 1.59-2.492 2.493-2.492s1.68 1.214 2.492 2.492c.808 1.273 1.586 2.488 2.488 2.488s1.68-1.215 2.492-2.488c.813-1.278 1.59-2.492 2.489-2.492.902 0 1.68 1.214 2.492 2.492.812 1.273 1.59 2.488 2.492 2.488.898 0 1.676-1.215 2.488-2.488.813-1.278 1.59-2.492 2.492-2.492.903 0 1.68 1.214 2.489 2.492.812 1.273 1.59 2.488 2.492 2.488s1.68-1.215 2.492-2.488c.813-1.278 1.59-2.492 2.488-2.492.903 0 1.68 1.214 2.492 2.492.813 1.273 1.59 2.488 2.493 2.488.898 0 1.675-1.215 2.488-2.488.812-1.278 1.59-2.492 2.492-2.492.903 0 1.68 1.214 2.488 2.492.813 1.273 1.59 2.488 2.493 2.488 1.246 0 1.867-2.488 3.113-2.488h8.676"/></g><path fill="none" stroke="#000" stroke-linecap="round" stroke-linejoin="round" stroke-miterlimit="10" stroke-width=".399" d="M83.309 15.367c.375 1.434 1.218 2.11 2.07 2.39-.852.278-1.695.954-2.07 2.391"/><g clip-path="url(#c)"><path fill="none" stroke="#000" stroke-miterlimit="10" stroke-width=".399" d="M.54 31.93h28.347c1.242 0 1.867-2.492 3.113-2.492.898 0 1.676 1.218 2.488 2.492.813 1.273 1.59 2.492 2.492 2.492.903 0 1.68-1.219 2.489-2.492.812-1.274 1.59-2.492 2.492-2.492s1.68 1.218 2.492 2.492c.809 1.273 1.586 2.492 2.488 2.492.903 0 1.68-1.219 2.493-2.492.812-1.274 1.59-2.492 2.488-2.492 1.246 0 1.871 2.492 3.113 2.492H85.18"/></g><path fill="none" stroke="#000" stroke-linecap="round" stroke-linejoin="round" stroke-miterlimit="10" stroke-width=".399" d="M83.309 29.54c.375 1.433 1.218 2.112 2.07 2.39-.852.277-1.695.957-2.07 2.39"/></svg>