<svg xmlns="http://www.w3.org/2000/svg" width="90.13" height="90.11"><defs><clipPath id="a"><path d="M0 80h10v9.664H0Zm0 0"/></clipPath><clipPath id="b"><path d="M3 80h15v9.664H3Zm0 0"/></clipPath><clipPath id="c"><path d="M11 80h15v9.664H11Zm0 0"/></clipPath><clipPath id="d"><path d="M18 80h15v9.664H18Zm0 0"/></clipPath><clipPath id="e"><path d="M26 80h15v9.664H26Zm0 0"/></clipPath><clipPath id="f"><path d="M34 80h15v9.664H34Zm0 0"/></clipPath><clipPath id="g"><path d="M41 80h15v9.664H41Zm0 0"/></clipPath><clipPath id="h"><path d="M49 80h15v9.664H49Zm0 0"/></clipPath><clipPath id="i"><path d="M57 80h15v9.664H57Zm0 0"/></clipPath><clipPath id="j"><path d="M64 80h15v9.664H64Zm0 0"/></clipPath><clipPath id="k"><path d="M72 80h15v9.664H72Zm0 0"/></clipPath><clipPath id="l"><path d="M80 80h9.695v9.664H80Zm0 0"/></clipPath><clipPath id="m"><path d="M0 79h10v10.664H0Zm0 0"/></clipPath><clipPath id="n"><path d="M0 79h10v10.664H0Zm0 0"/></clipPath><clipPath id="o"><path d="M0 79h10v10.664H0Zm0 0"/></clipPath><clipPath id="p"><path d="M0 79h10v10.664H0Zm0 0"/></clipPath><clipPath id="q"><path d="M0 79h10v10.664H0Zm0 0"/></clipPath><clipPath id="r"><path d="M0 79h10v10.664H0Zm0 0"/></clipPath><clipPath id="s"><path d="M0 79h10v10.664H0Zm0 0"/></clipPath><clipPath id="t"><path d="M0 79h10v10.664H0Zm0 0"/></clipPath><clipPath id="u"><path d="M0 79h10v10.664H0Zm0 0"/></clipPath></defs><g clip-path="url(#a)"><path fill="none" stroke="#000" stroke-miterlimit="10" stroke-width=".399" d="m1.535 88.508 2.817-2.817m-2.817 0 2.817 2.817"/></g><g clip-path="url(#b)"><path fill="none" stroke="#000" stroke-miterlimit="10" stroke-width=".399" d="m9.188 88.508 2.816-2.817m-2.816 0 2.816 2.817"/></g><g clip-path="url(#c)"><path fill="none" stroke="#000" stroke-miterlimit="10" stroke-width=".399" d="m16.84 88.508 2.82-2.817m-2.82 0 2.82 2.817"/></g><g clip-path="url(#d)"><path fill="none" stroke="#000" stroke-miterlimit="10" stroke-width=".399" d="m24.496 88.508 2.817-2.817m-2.817 0 2.817 2.817"/></g><g clip-path="url(#e)"><path fill="none" stroke="#000" stroke-miterlimit="10" stroke-width=".399" d="m32.148 88.508 2.817-2.817m-2.817 0 2.817 2.817"/></g><g clip-path="url(#f)"><path fill="none" stroke="#000" stroke-miterlimit="10" stroke-width=".399" d="m39.8 88.508 2.821-2.817m-2.82 0 2.82 2.817"/></g><g clip-path="url(#g)"><path fill="none" stroke="#000" stroke-miterlimit="10" stroke-width=".399" d="m47.457 88.508 2.816-2.817m-2.816 0 2.816 2.817"/></g><g clip-path="url(#h)"><path fill="none" stroke="#000" stroke-miterlimit="10" stroke-width=".399" d="m55.11 88.508 2.816-2.817m-2.817 0 2.817 2.817"/></g><g clip-path="url(#i)"><path fill="none" stroke="#000" stroke-miterlimit="10" stroke-width=".399" d="m62.762 88.508 2.82-2.817m-2.82 0 2.82 2.817"/></g><g clip-path="url(#j)"><path fill="none" stroke="#000" stroke-miterlimit="10" stroke-width=".399" d="m70.418 88.508 2.816-2.817m-2.816 0 2.816 2.817"/></g><g clip-path="url(#k)"><path fill="none" stroke="#000" stroke-miterlimit="10" stroke-width=".399" d="m78.07 88.508 2.817-2.817m-2.817 0 2.817 2.817"/></g><g clip-path="url(#l)"><path fill="none" stroke="#000" stroke-miterlimit="10" stroke-width=".399" d="m85.723 88.508 2.82-2.817m-2.82 0 2.82 2.817"/></g><g clip-path="url(#m)"><path fill="none" stroke="#000" stroke-miterlimit="10" stroke-width=".399" d="m1.273 87.895 2.817-2.817m-2.817 0 2.817 2.817"/></g><path fill="none" stroke="#000" stroke-miterlimit="10" stroke-width=".399" d="m6.586 82.387 2.816-2.82m-2.816 0 2.816 2.82M11.895 76.875l2.82-2.816m-2.82 0 2.82 2.816M17.207 71.363l2.816-2.816m-2.816 0 2.816 2.816M22.52 65.855l2.816-2.82m-2.816 0 2.816 2.82M27.828 60.344l2.82-2.82m-2.82 0 2.82 2.82M33.14 54.832l2.817-2.816m-2.816 0 2.816 2.816M38.453 49.32l2.817-2.816m-2.817 0 2.817 2.816M43.762 43.813l2.82-2.82m-2.82 0 2.82 2.82M49.074 38.3l2.817-2.816m-2.817 0 2.817 2.817M54.387 32.79l2.816-2.817m-2.816 0 2.816 2.816M59.695 27.281l2.82-2.82m-2.82 0 2.82 2.82"/><g clip-path="url(#n)"><path fill="none" stroke="#000" stroke-miterlimit="10" stroke-width=".399" d="m1.121 87.781 2.82-2.82m-2.82 0 2.82 2.82"/></g><path fill="none" stroke="#000" stroke-miterlimit="10" stroke-width=".399" d="m5.078 81.227 2.817-2.817m-2.817 0 2.817 2.817M9.031 74.676l2.817-2.82m-2.817 0 2.817 2.82M12.984 68.121l2.82-2.816m-2.82 0 2.82 2.816M16.941 61.57l2.817-2.82m-2.817 0 2.817 2.82M20.895 55.016l2.816-2.817m-2.816 0 2.816 2.817M24.848 48.465l2.82-2.817m-2.82 0 2.82 2.817M28.805 41.91l2.816-2.816m-2.816 0 2.816 2.816M32.758 35.36l2.816-2.817m-2.816 0 2.816 2.816M36.71 28.809l2.821-2.82m-2.82 0 2.82 2.82M40.664 22.254l2.82-2.817m-2.82 0 2.82 2.817M44.621 15.703l2.816-2.82m-2.816 0 2.816 2.82"/><g clip-path="url(#o)"><path fill="none" stroke="#000" stroke-miterlimit="10" stroke-width=".399" d="m1.02 87.727 2.82-2.817m-2.82 0 2.82 2.817"/></g><path fill="none" stroke="#000" stroke-miterlimit="10" stroke-width=".399" d="m4.055 80.7 2.816-2.817m-2.816 0 2.816 2.816M7.086 73.676l2.82-2.82m-2.82 0 2.82 2.82M10.121 66.648l2.816-2.816m-2.816 0 2.816 2.816M13.156 59.621l2.817-2.816m-2.817 0 2.817 2.816M16.188 52.598l2.82-2.82m-2.82 0 2.82 2.82M19.223 45.57l2.816-2.82m-2.816 0 2.816 2.82M22.258 38.543l2.816-2.816m-2.816 0 2.816 2.816M25.29 31.516l2.82-2.817m-2.82 0 2.82 2.817M28.324 24.492l2.817-2.82m-2.817 0 2.817 2.82M31.355 17.465l2.82-2.817m-2.82 0 2.82 2.817M34.39 10.438l2.82-2.817m-2.82 0 2.82 2.816"/><g clip-path="url(#p)"><path fill="none" stroke="#000" stroke-miterlimit="10" stroke-width=".399" d="m.941 87.7 2.82-2.821m-2.82 0 2.82 2.82"/></g><path fill="none" stroke="#000" stroke-miterlimit="10" stroke-width=".399" d="m3.281 80.41 2.817-2.816m-2.817 0 2.817 2.816M5.617 73.121l2.817-2.816m-2.817 0 2.817 2.816M7.953 65.836l2.817-2.82m-2.817 0 2.817 2.82M10.29 58.547l2.82-2.817m-2.82 0 2.82 2.817M12.629 51.258l2.816-2.817m-2.816 0 2.816 2.817M14.965 43.973l2.816-2.82m-2.816 0 2.816 2.82M17.3 36.684l2.817-2.817m-2.816 0 2.816 2.817M19.637 29.395l2.82-2.817m-2.82 0 2.82 2.817M21.973 22.11l2.82-2.82m-2.82 0 2.82 2.82M24.313 14.82l2.816-2.816m-2.817 0 2.817 2.816M26.648 7.531l2.817-2.816m-2.817 0 2.817 2.816"/><g clip-path="url(#q)"><path fill="none" stroke="#000" stroke-miterlimit="10" stroke-width=".399" d="m.879 87.68 2.82-2.817m-2.82 0 2.82 2.817"/></g><path fill="none" stroke="#000" stroke-miterlimit="10" stroke-width=".399" d="m2.656 80.238 2.82-2.82m-2.82 0 2.82 2.82M4.434 72.793l2.816-2.816m-2.816 0 2.816 2.816M6.21 65.348l2.817-2.817m-2.816 0 2.816 2.817M7.988 57.906l2.817-2.82m-2.817 0 2.817 2.82M9.766 50.46l2.816-2.82m-2.816 0 2.816 2.82M11.54 43.016l2.82-2.817m-2.82 0 2.82 2.817M13.316 35.57l2.82-2.816m-2.82 0 2.82 2.816M15.094 28.129l2.816-2.82m-2.816 0 2.816 2.82M16.871 20.684l2.817-2.817m-2.817 0 2.817 2.817M18.648 13.238l2.817-2.816m-2.817 0 2.817 2.816M20.422 5.797l2.82-2.82m-2.82 0 2.82 2.82"/><g clip-path="url(#r)"><path fill="none" stroke="#000" stroke-miterlimit="10" stroke-width=".399" d="m.828 87.672 2.817-2.82m-2.817 0 2.817 2.82"/></g><path fill="none" stroke="#000" stroke-miterlimit="10" stroke-width=".399" d="m2.137 80.129 2.82-2.817m-2.82 0 2.82 2.817M3.445 72.59l2.82-2.82m-2.82 0 2.82 2.82M4.758 65.047l2.816-2.817m-2.816 0 2.816 2.817M6.066 57.508l2.817-2.817m-2.817 0 2.817 2.817M7.375 49.969l2.816-2.82m-2.816 0 2.816 2.82M8.684 42.426l2.816-2.817m-2.816 0 2.816 2.817M9.992 34.887l2.817-2.82m-2.817 0 2.817 2.82M11.3 27.344l2.821-2.817m-2.82 0 2.82 2.817M12.61 19.805l2.82-2.817m-2.82 0 2.82 2.817M13.922 12.266l2.816-2.82m-2.816 0 2.816 2.82M15.23 4.723l2.817-2.817m-2.817 0 2.817 2.817"/><g clip-path="url(#s)"><path fill="none" stroke="#000" stroke-miterlimit="10" stroke-width=".399" d="m.785 87.664 2.817-2.82m-2.817 0 2.817 2.82"/></g><path fill="none" stroke="#000" stroke-miterlimit="10" stroke-width=".399" d="m1.691 80.063 2.82-2.817m-2.82 0 2.82 2.817M2.602 72.465l2.816-2.817m-2.816 0 2.816 2.817M3.512 64.867l2.816-2.82m-2.816 0 2.816 2.82M4.418 57.266l2.82-2.817m-2.82 0 2.82 2.817M5.328 49.668l2.817-2.816m-2.817 0 2.817 2.816M6.238 42.07l2.817-2.82m-2.817 0 2.817 2.82M7.145 34.469l2.82-2.817m-2.82 0 2.82 2.817M8.055 26.871l2.816-2.82m-2.816 0 2.816 2.82M8.965 19.27l2.816-2.817m-2.816 0 2.816 2.817M9.871 11.672l2.82-2.817m-2.82 0 2.82 2.817M10.781 4.074l2.817-2.82m-2.817 0 2.817 2.82"/><g clip-path="url(#t)"><path fill="none" stroke="#000" stroke-miterlimit="10" stroke-width=".399" d="m.746 87.66 2.816-2.816m-2.816 0 2.817 2.816"/></g><path fill="none" stroke="#000" stroke-miterlimit="10" stroke-width=".399" d="m1.305 80.027 2.816-2.816m-2.816 0 2.816 2.816M1.863 72.395l2.817-2.817m-2.817 0 2.817 2.817M2.422 64.762l2.82-2.817m-2.82 0 2.82 2.817M2.98 57.129l2.82-2.816m-2.82 0 2.82 2.816M3.54 49.496l2.82-2.816m-2.82 0 2.82 2.816M4.102 41.863l2.816-2.816m-2.816 0 2.816 2.816M4.66 34.23l2.817-2.816m-2.817 0 2.817 2.816M5.219 26.598l2.816-2.82m-2.816 0 2.816 2.82M5.777 18.965l2.817-2.82m-2.817 0 2.817 2.82M6.336 11.332l2.82-2.82m-2.82 0 2.82 2.82M6.895 3.7 9.715.878m-2.82 0 2.82 2.82"/><g clip-path="url(#u)"><path fill="none" stroke="#000" stroke-miterlimit="10" stroke-width=".399" d="m.71 87.656 2.817-2.816m-2.816 0 2.816 2.816"/></g><path fill="none" stroke="#000" stroke-miterlimit="10" stroke-width=".399" d="m.96 80.008 2.817-2.817m-2.816 0 2.816 2.817M1.207 72.36l2.82-2.817m-2.82 0 2.82 2.816M1.457 64.71l2.816-2.82m-2.816 0 2.816 2.82M1.703 57.063l2.82-2.82m-2.82 0 2.82 2.82M1.953 49.41l2.817-2.816m-2.817 0L4.77 49.41M2.203 41.762l2.817-2.817m-2.817 0 2.817 2.817M2.45 34.113l2.82-2.816m-2.82 0 2.82 2.816M2.7 26.465l2.816-2.82m-2.817 0 2.817 2.82M2.95 18.813l2.816-2.817m-2.817 0 2.817 2.816M3.195 11.164l2.82-2.816m-2.82 0 2.82 2.816M3.445 3.516 6.262.699M3.445.7l2.817 2.817"/></svg>