<svg xmlns="http://www.w3.org/2000/svg" xmlns:xlink="http://www.w3.org/1999/xlink" width="88.175" height="84.224"><defs><g id="m"><path fill-opacity="0" d="M0 0h126.973v121.283H0z"/><path fill="#FFF" d="M0 0h126.973v121.283H0z"/></g><g id="a" mask="url(#o)"><path fill="#E50000" d="M0 0h126.973v121.283H0z"/></g><g id="c" filter="url(#p)" mask="url(#q)"><path d="M0 0h126.972v121.283H0z"/></g><g id="d" mask="url(#r)"><use xlink:href="#b"/></g><g id="s"><path fill-opacity="0" d="M0 0h126.973v121.283H0z"/><path fill="#FFF" d="M0 0h126.973v121.283H0z"/></g><g id="e" mask="url(#t)"><path fill="#0C0" d="M0 0h126.973v121.283H0z"/></g><g id="f" filter="url(#u)"><path d="M0 0h126.972v121.283H0z"/></g><g id="g" filter="url(#v)" mask="url(#w)"><path d="M0 0h126.972v121.283H0z"/></g><g id="h" mask="url(#x)"><use xlink:href="#f"/></g><g id="y"><path fill-opacity="0" d="M0 0h126.973v121.283H0z"/><path fill="#FFF" d="M0 0h126.973v121.283H0z"/></g><g id="i" mask="url(#z)"><path fill="#0000E5" d="M0 0h126.973v121.283H0z"/></g><g id="j" filter="url(#A)"><path d="M0 0h126.972v121.283H0z"/></g><g id="k" filter="url(#B)" mask="url(#C)"><path d="M0 0h126.972v121.283H0z"/></g><g id="l" mask="url(#D)"><use xlink:href="#j"/></g><g id="H" clip-path="url(#E)"><g filter="url(#F)" transform="translate(-19.398 -18.53)"><path d="M0 0h126.972v121.283H0z"/></g></g><mask id="q"><use xlink:href="#m"/></mask><mask id="r"><use xlink:href="#m" filter="url(#n)"/></mask><mask id="o"><path fill="#FFF" d="M91.418 47.506c0-15.656-12.691-28.348-28.348-28.348S34.723 31.85 34.723 47.506 47.414 75.853 63.07 75.853s28.348-12.69 28.348-28.347m0 0"/></mask><mask id="w"><use xlink:href="#s"/></mask><mask id="x"><use xlink:href="#s" filter="url(#n)"/></mask><mask id="t"><path fill="#FFF" d="M76.688 73.018c0-15.657-12.692-28.348-28.348-28.348-15.652 0-28.344 12.691-28.344 28.348s12.692 28.347 28.344 28.347c15.656 0 28.348-12.691 28.348-28.347m0 0"/></mask><mask id="C"><use xlink:href="#y"/></mask><mask id="D"><use xlink:href="#y" filter="url(#n)"/></mask><mask id="z"><path fill="#FFF" d="M106.149 73.018c0-15.657-12.692-28.348-28.348-28.348S49.453 57.36 49.453 73.018s12.692 28.347 28.348 28.347 28.347-12.691 28.347-28.347m0 0"/></mask><filter id="n" width="100%" height="100%" x="0%" y="0%"><feColorMatrix color-interpolation-filters="sRGB" values="0 0 0 0 1 0 0 0 0 1 0 0 0 0 1 0 0 0 -1 1"/></filter><filter id="p" width="100%" height="100%" x="0%" y="0%"><feImage xlink:href="#a" width="126.972" height="121.283" x="0" y="0" result="source"/><feImage xlink:href="#b" width="126.972" height="121.283" x="0" y="0" result="destination"/><feBlend color-interpolation-filters="sRGB" in="source" in2="destination" mode="screen"/></filter><filter id="u" width="100%" height="100%" x="0%" y="0%"><feImage xlink:href="#c" width="126.972" height="121.283" x="0" y="0" result="source"/><feImage xlink:href="#d" width="126.972" height="121.283" x="0" y="0" result="destination"/><feComposite color-interpolation-filters="sRGB" in="source" in2="destination" k2="1" k3="1" operator="arithmetic"/></filter><filter id="v" width="100%" height="100%" x="0%" y="0%"><feImage xlink:href="#e" width="126.972" height="121.283" x="0" y="0" result="source"/><feImage xlink:href="#f" width="126.972" height="121.283" x="0" y="0" result="destination"/><feBlend color-interpolation-filters="sRGB" in="source" in2="destination" mode="screen"/></filter><filter id="A" width="100%" height="100%" x="0%" y="0%"><feImage xlink:href="#g" width="126.972" height="121.283" x="0" y="0" result="source"/><feImage xlink:href="#h" width="126.972" height="121.283" x="0" y="0" result="destination"/><feComposite color-interpolation-filters="sRGB" in="source" in2="destination" k2="1" k3="1" operator="arithmetic"/></filter><filter id="B" width="100%" height="100%" x="0%" y="0%"><feImage xlink:href="#i" width="126.972" height="121.283" x="0" y="0" result="source"/><feImage xlink:href="#j" width="126.972" height="121.283" x="0" y="0" result="destination"/><feBlend color-interpolation-filters="sRGB" in="source" in2="destination" mode="screen"/></filter><filter id="F" width="100%" height="100%" x="0%" y="0%"><feImage xlink:href="#k" width="126.972" height="121.283" x="0" y="0" result="source"/><feImage xlink:href="#l" width="126.972" height="121.283" x="0" y="0" result="destination"/><feComposite color-interpolation-filters="sRGB" in="source" in2="destination" k2="1" k3="1" operator="arithmetic"/></filter><clipPath id="G"><path d="M0 0h87.762v83.836H0Zm0 0"/></clipPath><clipPath id="E"><path d="M0 0h88v84H0z"/></clipPath></defs><g clip-path="url(#G)"><use xlink:href="#H"/></g></svg>