<svg xmlns="http://www.w3.org/2000/svg" width="92.936" height="4.934"><defs><clipPath id="a"><path d="M0 0h41v4.902H0Zm0 0"/></clipPath><clipPath id="b"><path d="M23 0h47v4.902H23Zm0 0"/></clipPath><clipPath id="c"><path d="M52 0h40.902v4.902H52Zm0 0"/></clipPath></defs><g clip-path="url(#a)"><path fill="none" stroke="#000" stroke-miterlimit="10" stroke-width=".399" d="M1.078 3.664C6.82.348 12.344.348 18.086 3.664c5.742-3.316 11.266-3.316 17.008 0"/></g><g clip-path="url(#b)"><path fill="none" stroke="#000" stroke-miterlimit="10" stroke-width=".399" d="M29.426 3.664c5.742-3.316 11.262-3.316 17.008 0 5.742-3.316 11.261-3.316 17.007 0"/></g><g clip-path="url(#c)"><path fill="none" stroke="#000" stroke-miterlimit="10" stroke-width=".399" d="M57.77 3.664c5.746-3.316 11.265-3.316 17.011 0 5.742-3.316 11.262-3.316 17.008 0"/></g></svg>