<svg xmlns="http://www.w3.org/2000/svg" xmlns:xlink="http://www.w3.org/1999/xlink" width="88.418" height="58.898"><defs><clipPath id="a"><path d="M22 38h44v20.848H22Zm0 0"/></clipPath><clipPath id="c"><path d="M0 17h88.129v25H0Zm0 0"/></clipPath><clipPath id="e"><path d="M0 0h88.129v21H0Zm0 0"/></clipPath><path id="b" d="M8.25 0v-.469h-.969L4.72-6.703c-.11-.25-.219-.25-.39-.25-.282 0-.329.078-.391.25l-2.47 6c-.062.156-.093.234-.843.234H.406V0l1.172-.031c.39 0 .938 0 1.313.031v-.469S2-.469 2-.594l.047-.125.5-1.203h2.672l.593 1.453H4.86V0c.391-.031 1.329-.031 1.766-.031.39 0 1.266 0 1.625.031M5.016-2.39H2.734l1.141-2.766Zm0 0"/><path id="d" d="M7.5-1.86c0-.952-.844-1.624-2.031-1.702 1.078-.204 1.718-.797 1.718-1.563 0-.922-.875-1.719-2.468-1.719H.39v.469h1.078v5.906H.39V0h4.625C6.672 0 7.5-.875 7.5-1.86M5.766-5.124c0 .766-.47 1.39-1.438 1.39H2.766v-2.64h1.812c1.016 0 1.188.797 1.188 1.25m.28 3.266c0 .109 0 1.39-1.437 1.39H2.766v-2.906h1.937c.203 0 .672 0 1.016.422.328.422.328.984.328 1.094m0 0"/><path id="f" d="M7.64-2.266c0-.203-.077-.203-.25-.203-.124 0-.218 0-.218.172C7.094-.969 5.89-.359 4.89-.359c-.782 0-1.625-.235-2.141-.844-.469-.578-.594-1.313-.594-2.219 0-.562.031-1.625.672-2.297.64-.656 1.516-.765 2.031-.765 1.079 0 2.016.765 2.235 2.03.031.188.047.204.265.204.266 0 .282-.016.282-.281v-2.14c0-.188 0-.282-.188-.282-.094 0-.11.031-.187.094l-.657.593a3.03 3.03 0 0 0-1.968-.687c-2.485 0-4 1.484-4 3.531S2.156.11 4.64.11c1.875 0 3-1.218 3-2.375m0 0"/></defs><path fill="none" stroke="#7F7F7F" stroke-miterlimit="10" stroke-width=".199" d="M1.395 57.742h85.039M1.394 29.395h85.04M1.394 1.059h85.04M1.394 57.742V1.047m28.348 56.695V1.047m28.344 56.695V1.047m28.34 56.695V1.047"/><path fill="#FCC" d="m28.418 57.453 7.848-13.594h15.297l7.851 13.594Zm0 0"/><g clip-path="url(#a)"><path fill="none" stroke="#FF4040" stroke-miterlimit="10" stroke-width=".399" d="m28.418 57.453 7.848-13.594h15.297l7.851 13.594Zm0 0"/></g><use xlink:href="#b" x="39.585" y="54.132"/><path fill="#CFC" d="m1.418 36.133 21.789-13.477h41.418L86.41 36.133Zm0 0"/><g clip-path="url(#c)"><path fill="none" stroke="#40FF40" stroke-miterlimit="10" stroke-width=".399" d="m1.418 36.133 21.789-13.477h41.418L86.41 36.133Zm0 0"/></g><use xlink:href="#d" x="39.839" y="32.812"/><path fill="#CCF" d="M1.395 14.984 9.3 1.29h69.226l7.907 13.695Zm0 0"/><g clip-path="url(#e)"><path fill="none" stroke="#4040FF" stroke-miterlimit="10" stroke-width=".399" d="M1.395 14.984 9.3 1.29h69.226l7.907 13.695Zm0 0"/></g><use xlink:href="#f" x="39.774" y="11.552"/></svg>