<svg xmlns="http://www.w3.org/2000/svg" xmlns:xlink="http://www.w3.org/1999/xlink" width="257.402" height="119.254"><defs><path id="a" d="M4.328-1.687c0-.516-.281-1.516-1.687-1.75v-1.72c.687.048.984.282 1.109.5-.375.048-.484.313-.484.532 0 .36.28.547.53.547.188 0 .532-.125.532-.578 0-.782-.578-1.36-1.687-1.422v-.39h-.407v.39C1-5.484.547-4.672.547-3.953c0 .515.265.89.516 1.125.406.36.812.453 1.171.515v1.954c-.437-.047-.89-.188-1.125-.61.266-.031.516-.219.516-.547 0-.312-.234-.53-.547-.53-.266 0-.531.171-.531.562 0 .64.39 1.437 1.687 1.53v.407h.407V.047c1.343-.125 1.687-1.078 1.687-1.734M2.234-3.516c-.718-.14-1-.5-1-.828 0-.422.344-.765 1-.812Zm1.422 2.22c0 .468-.36.859-1.015.937v-1.86c.578.078 1.015.438 1.015.922m0 0"/><path id="b" d="M3.89-2.547c0-.844-.078-1.36-.343-1.875-.344-.703-1-.875-1.438-.875-1 0-1.375.75-1.484.969C.344-3.75.328-2.953.328-2.547c0 .531.016 1.328.406 1.969.36.594.954.75 1.375.75.391 0 1.063-.125 1.47-.906.296-.578.312-1.297.312-1.813M2.11-.062c-.266 0-.813-.125-.985-.954-.094-.453-.094-1.203-.094-1.625 0-.546 0-1.109.094-1.546.172-.813.781-.891.984-.891.266 0 .829.14.985.86.094.437.094 1.046.094 1.577 0 .47 0 1.188-.094 1.641-.172.828-.719.938-.985.938m0 0"/><path id="d" d="M2.5-5.078c0-.219-.016-.219-.234-.219-.328.313-.75.5-1.5.5v.266c.218 0 .64 0 1.109-.203v4.078c0 .297-.031.39-.781.39H.812V0c.329-.031 1.016-.031 1.376-.031s1.046 0 1.374.031v-.266h-.28c-.75 0-.782-.093-.782-.39Zm0 0"/><path id="e" d="M2.25-1.625c.125-.125.453-.39.594-.5.484-.453.953-.89.953-1.61 0-.953-.797-1.562-1.781-1.562-.97 0-1.594.719-1.594 1.438 0 .39.312.437.422.437.172 0 .422-.11.422-.422 0-.406-.407-.406-.5-.406.234-.594.765-.781 1.156-.781.734 0 1.125.625 1.125 1.297 0 .828-.578 1.437-1.531 2.39l-1 1.047C.422-.219.422-.203.422 0h3.14l.235-1.422h-.25c-.016.156-.078.547-.172.703-.047.063-.656.063-.781.063H1.172Zm0 0"/><path id="f" d="M2.016-2.656c.625 0 1.03.453 1.03 1.297 0 1-.562 1.28-.983 1.28-.438 0-1.047-.155-1.329-.577.297 0 .5-.188.5-.438 0-.265-.187-.437-.453-.437-.203 0-.437.125-.437.453 0 .75.812 1.25 1.734 1.25 1.047 0 1.797-.734 1.797-1.531 0-.672-.531-1.266-1.344-1.453.625-.22 1.11-.75 1.11-1.391 0-.64-.72-1.094-1.547-1.094-.86 0-1.5.453-1.5 1.063 0 .297.187.422.406.422.25 0 .406-.172.406-.407 0-.297-.265-.406-.437-.406.344-.437.953-.469 1.094-.469.203 0 .812.063.812.89 0 .548-.234.891-.344 1.016-.234.25-.422.266-.906.297-.156 0-.219.016-.219.125 0 .11.078.11.219.11Zm0 0"/><path id="g" d="M3.14-5.156c0-.157 0-.219-.171-.219-.094 0-.11 0-.188.11L.234-1.564v.25h2.25v.672c0 .297-.015.375-.64.375h-.172V0c.672-.031.687-.031 1.14-.031.454 0 .47 0 1.141.031v-.266h-.172c-.625 0-.64-.078-.64-.375v-.671h.843v-.25h-.843Zm-.593.64v2.954H.516Zm0 0"/><path id="h" d="M1.11-4.484c.109.03.421.125.765.125 1 0 1.594-.703 1.594-.828 0-.094-.047-.11-.094-.11-.016 0-.031 0-.094.031a3 3 0 0 1-1.11.22c-.468 0-.858-.11-1.108-.22-.079-.03-.094-.03-.11-.03-.094 0-.094.077-.094.234v2.328c0 .14 0 .234.125.234.063 0 .079-.031.125-.094.094-.11.391-.515 1.079-.515.437 0 .656.359.734.515.125.281.14.656.14.953s0 .735-.218 1.079c-.156.25-.485.484-.906.484A1.27 1.27 0 0 1 .734-.922c.016.016.079.016.079.016.218 0 .406-.14.406-.39a.39.39 0 0 0-.39-.407c-.157 0-.407.078-.407.422 0 .718.625 1.453 1.531 1.453 1 0 1.844-.781 1.844-1.766 0-.922-.672-1.75-1.61-1.75-.39 0-.765.125-1.078.406Zm0 0"/><path id="j" d="M3.125-2.344c0 1.938-.922 2.266-1.39 2.266-.173 0-.579-.016-.798-.266.36-.031.375-.297.375-.375a.37.37 0 0 0-.375-.375.37.37 0 0 0-.375.39c0 .548.454.876 1.188.876 1.094 0 2.125-1.094 2.125-2.797 0-2.062-.922-2.672-1.734-2.672-.953 0-1.797.734-1.797 1.781 0 1.016.781 1.766 1.687 1.766.563 0 .906-.36 1.094-.766Zm-1.062.375c-.376 0-.61-.172-.782-.468-.187-.282-.187-.672-.187-1.079 0-.468 0-.796.218-1.125.204-.296.454-.453.829-.453.53 0 .765.532.797.563.156.39.171 1.015.171 1.172 0 .64-.343 1.39-1.046 1.39m0 0"/><path id="k" d="M1.094-2.64c0-.657.062-1.235.343-1.72.25-.406.657-.734 1.157-.734.156 0 .515.032.703.297-.36.031-.39.297-.39.375 0 .25.187.375.374.375.14 0 .375-.078.375-.39 0-.47-.36-.86-1.078-.86C1.468-5.297.344-4.25.344-2.53.344-.36 1.359.172 2.125.172c.39 0 .797-.11 1.156-.453.328-.313.594-.64.594-1.344 0-1.031-.797-1.766-1.672-1.766-.578 0-.922.36-1.11.75M2.125-.079a.88.88 0 0 1-.797-.516c-.187-.36-.203-.89-.203-1.203 0-.781.422-1.375 1.047-1.375.39 0 .64.203.781.485.172.296.172.656.172 1.062s0 .75-.156 1.047c-.219.36-.485.5-.844.5m0 0"/><path id="l" d="M2.64-2.875c.454-.219 1-.61 1-1.234 0-.766-.78-1.188-1.515-1.188-.844 0-1.531.578-1.531 1.328 0 .297.094.563.297.797.14.172.172.188.656.5C.563-2.234.344-1.656.344-1.219c0 .89.89 1.39 1.765 1.39.97 0 1.766-.671 1.766-1.515 0-.5-.266-.828-.406-.968-.125-.126-.14-.141-.828-.563m-1.234-.75c-.234-.14-.422-.375-.422-.64 0-.5.547-.829 1.125-.829.61 0 1.125.422 1.125.985 0 .453-.359.843-.828 1.078Zm.39 1.094c.032.015.938.578 1.079.656.125.078.547.328.547.813 0 .609-.656.984-1.297.984-.719 0-1.312-.484-1.312-1.14 0-.594.437-1.063.984-1.313m0 0"/><path id="c" d="M1.625-.437a.463.463 0 0 0-.453-.454.447.447 0 0 0-.438.438.44.44 0 0 0 .438.453.45.45 0 0 0 .453-.437m0 0"/><path id="i" d="M1.484-.125c0 .516-.109.984-.593 1.469-.032.031-.047.047-.047.078 0 .062.062.11.11.11.093 0 .765-.626.765-1.563 0-.5-.203-.86-.547-.86a.436.436 0 0 0-.438.438c0 .234.157.453.438.453.203 0 .312-.11.312-.125m0 0"/><path id="m" d="M7.797-5.719v-.437c-.438.015-.61.031-1.063.031l-1.187-.031v.437c.219 0 .422 0 .656.094l-.062.125-1.703 2.39-1.844-2.609h.75v-.437c-.328.031-1.266.031-1.64.031-.36 0-1.173 0-1.5-.031v.437h.859l2.312 3.266v2.015h-.969V0c.313-.031 1.219-.031 1.578-.031.375 0 1.282 0 1.61.031v-.437h-.969v-2.016l2.172-3.078c.094-.125.156-.125.344-.157.156-.015.328-.03.468-.03Zm0 0"/><path id="n" d="M4.563-1.047c0-.172-.172-.172-.235-.172-.156 0-.172.047-.234.172-.203.469-.75.719-1.313.719-1.281 0-1.297-1.156-1.297-1.594h2.782c.187 0 .297 0 .297-.25 0-.203-.016-1-.594-1.484-.406-.328-.953-.406-1.39-.406-1.532 0-2.282.968-2.282 2.046 0 1.172.89 2.063 2.406 2.063 1.485 0 1.86-.938 1.86-1.094M3.688-2.25H1.483c.016-.406.063-1.453 1.094-1.453 1.047 0 1.094 1.094 1.11 1.453m0 0"/><path id="o" d="M5.11-.219c0-.218-.157-.218-.235-.218-.578-.016-.578-.094-.578-.313v-1.922c0-.797-.64-1.39-2.031-1.39-.5 0-1.657.015-1.657.843 0 .406.313.594.579.594.312 0 .593-.219.593-.578 0-.266-.156-.422-.187-.453.093-.016.312-.047.64-.047.641 0 1.016.328 1.016 1.031v.281C1.766-2.39.25-2 .25-1 .25-.11 1.375.047 2.016.047c.687 0 1.156-.281 1.39-.703 0 .219 0 .656.969.656h.438c.171 0 .296 0 .296-.219M3.25-1.25c0 .938-1.047.938-1.078.938-.453 0-.828-.282-.828-.688 0-.297.156-1 1.906-1.078Zm0 0"/><path id="p" d="M4.078-3.281c0-.453-.469-.75-1-.75-.625 0-1 .453-1.203.968h-.016v-.968L.375-3.97v.438c.531 0 .61 0 .61.36v2.734h-.61V0l1.14-.031c.22 0 .75 0 1.22.031v-.437h-.766v-1.516c0-.656.25-1.703 1.11-1.719a.57.57 0 0 0-.142.39c0 .391.313.579.563.579.297 0 .578-.203.578-.578m0 0"/><path id="q" d="M-1.828-5.297c-.969 0-1.703.734-1.89 1.578l-.266 1.313c-.203.906-.813.922-.938.922-.422 0-.937-.282-.937-1.172 0-1.422.968-1.781 1.562-1.875.14-.032.188-.032.188-.235 0-.218-.047-.234-.266-.234H-6c-.156 0-.266 0-.266.188 0 .078.016.078.11.187l.39.406c-.39.5-.5 1.078-.5 1.563 0 1.437.907 2.062 1.813 2.062.64 0 1.047-.36 1.14-.453.5-.484.563-.781.75-1.719l.094-.421c.11-.532.14-.672.438-.97a1 1 0 0 1 .656-.25c.188 0 1.047.063 1.047 1.22 0 .53-.11 2.062-1.5 2.14-.156 0-.219 0-.219.219 0 .234.063.234.266.234h1.625c.172 0 .265 0 .265-.172 0-.078 0-.093-.078-.171-.047-.063-.265-.25-.406-.422.39-.547.484-1.344.484-1.844 0-1.516-1-2.094-1.937-2.094m0 0"/><path id="r" d="M-1.984-5.531c-1.188 0-2.047.812-2.047 2.172 0 .718.297 1.218.422 1.39h-.422l.062 1.594h.438c0-.172 0-.312.031-.437.031-.172.125-.172.313-.172h4.484v.609h.437L1.72-1.5l.015-1.14h-.437v.609h-1.64c.39-.531.39-1.016.39-1.188 0-1.406-.844-2.312-2.031-2.312M-2-4.344c1.25 0 1.688.64 1.688 1.235 0 .453-.25.843-.625 1.078h-2.157a1.55 1.55 0 0 1-.562-1.188c0-.625.562-1.125 1.656-1.125m0 0"/><path id="s" d="M-1.047-4.562c-.172 0-.172.171-.172.234 0 .156.047.172.172.234.469.203.719.75.719 1.313 0 1.281-1.156 1.297-1.594 1.297v-2.782c0-.187 0-.296-.25-.296-.203 0-1 .015-1.484.593-.328.406-.406.953-.406 1.39 0 1.532.968 2.282 2.046 2.282 1.172 0 2.063-.89 2.063-2.406 0-1.485-.938-1.86-1.094-1.86m-1.203.875v2.203c-.406-.016-1.453-.063-1.453-1.094 0-1.047 1.094-1.094 1.453-1.11m0 0"/><path id="t" d="M0-5.656h-.437v.61h-2.297c-1.063 0-1.297.655-1.297 1.437 0 1.093.797 1.53.937 1.593V-2h-.937l.062 1.547h.438c0-.531 0-.61.36-.61h2.734v.61H0l-.031-1.125L0-2.718h-.437v.609h-1.844c-1 0-1.39-.828-1.39-1.36 0-.344.187-.515.858-.515h2.376v.609H0l-.031-1.14Zm0 0"/><path id="u" d="M0-5.516h-.437c0 .532 0 .61-.36.61h-5.422l.063 1.61h.437c0-.548 0-.61.36-.61h1.734c-.297.39-.406.812-.406 1.25 0 1.453.89 2.312 2.047 2.312 1.187 0 2.03-.843 2.03-2.218 0-.563-.202-1-.437-1.297h.438Zm-.984 1.657c.328.203.672.625.672 1.203 0 1.11-1.063 1.11-1.657 1.11-.531 0-.906 0-1.234-.235-.36-.235-.469-.672-.469-.985 0-.437.188-.812.547-1.093Zm0 0"/><path id="v" d="M0-2.625h-.437v.547h-3.594L-3.97-.5h.438c0-.516 0-.578.36-.578h2.734v.61H0c-.016-.594-.031-.72-.031-1.094 0-.438.015-.547.031-1.063m-5.422.453a.713.713 0 0 0-.719.703.71.71 0 0 0 .704.703.7.7 0 0 0 .703-.703.697.697 0 0 0-.688-.703m0 0"/><path id="w" d="M-3.547-5.156c-.234 0-.547.172-.547.593 0 .438.219.813.344.985-.219.375-.281.781-.281 1.219 0 1.375.734 1.843 1.328 1.843.484 0 .812-.312.937-.468.22.187.516.297.782.297.39 0 .703-.188.875-.375.187.671.562.765.765.765.532 0 1.14-.625 1.14-2.344C1.797-4.219 1.313-5 .626-5c-.312 0-.86.11-1.156.734-.235.516-.235.985-.235 1.875v.454c0 .28 0 .406-.109.562a.56.56 0 0 1-.453.203c-.172 0-.281-.062-.281-.062.172-.328.234-.735.234-1.125 0-1.375-.734-1.844-1.328-1.844-.36 0-.656.172-.844.36-.125-.235-.14-.423-.172-.532.047 0 .094.031.188.031a.407.407 0 1 0-.016-.812m.844 1.984c.39 0 .969 0 .969.813s-.578.812-.97.812c-.405 0-.968 0-.968-.812s.563-.813.969-.813m3.36-1.031c.296 0 .78.328.78 1.547C1.438-1.47 1-1.094.642-1.094c-.516 0-.516-.578-.516-.703V-2.89c0-.28 0-1.312.531-1.312m0 0"/><path id="x" d="M4.39 6.64c.985 0 1.766-.906 1.766-2.437V.375H5.72v.969H.438V.375H0c.031.313.031 1.25.031 1.61 0 .374 0 1.312-.031 1.624h.438v-.968h2.25v1.656c0 1.281.656 2.344 1.703 2.344m0-1.406c-.624 0-1.312 0-1.312-1.375V2.594h2.64v1.265c0 1.375-.687 1.375-1.327 1.375m0 0"/><path id="y" d="M1.953 5c1.172 0 2.11-.828 2.11-2.344 0-1.578-.985-2.36-2.11-2.36-1.11 0-2 .813-2 2.345C-.047 4.25.891 5 1.953 5m.094-1.187c-.766 0-1.719 0-1.719-1.157 0-1.172.953-1.172 1.719-1.172.765 0 1.656 0 1.656 1.157 0 1.172-.89 1.172-1.656 1.172m0 0"/><path id="z" d="M1.984 5.531c1.188 0 2.047-.812 2.047-2.172 0-.718-.297-1.218-.422-1.39h.422L3.97.375H3.53c0 .172 0 .313-.031.438-.031.171-.125.171-.312.171h-4.485V.375h-.437L-1.72 1.5l-.015 1.14h.437v-.609h1.64c-.39.531-.39 1.016-.39 1.188 0 1.406.844 2.312 2.031 2.312M2 4.344c-1.25 0-1.687-.64-1.687-1.235 0-.453.25-.843.625-1.078h2.156c.203.156.562.578.562 1.188 0 .625-.562 1.125-1.656 1.125m0 0"/><path id="A" d="M0 5.656h.438c0-.547 0-.61.359-.61H4.03L3.97 3.376H3.53c0 .547 0 .61-.36.61H1.47C.75 3.984.313 3.53.313 2.827c0-.687.187-.719.671-.719h3.047L3.97.453H3.53c0 .531 0 .61-.36.61H1.11c-.984 0-1.156.765-1.156 1.64 0 .281 0 .89.672 1.344h-.672Zm0 0"/><path id="B" d="M0 2.688h.438v-.61h5.78L6.157.468H5.72c0 .532 0 .61-.36.61H.438v-.61H0l.031 1.095Zm0 0"/><path id="C" d="M.219 5.11c.219 0 .219-.157.219-.235.015-.578.093-.578.312-.578h1.922c.797 0 1.39-.64 1.39-2.031 0-.5-.015-1.657-.843-1.657a.57.57 0 0 0-.594.579c0 .312.219.593.578.593.266 0 .422-.156.453-.187.016.093.047.312.047.64 0 .641-.328 1.016-1.031 1.016H2.39c0-1.484-.391-3-1.391-3C.11.25-.047 1.375-.047 2.016c0 .687.281 1.156.703 1.39-.219 0-.656 0-.656.969v.438c0 .171 0 .296.219.296M1.25 3.25c-.937 0-.937-1.047-.937-1.078 0-.453.28-.828.687-.828.297 0 1 .156 1.078 1.906Zm0 0"/><path id="D" d="M1.11 3.531h.468v-.469h-.453c-.625 0-.797-.312-.797-.546C.328 2 .875 2 1.078 2h2.469v1.36h.437V2h1.704v-.453C4.859 1.53 3.922 1.109 3.906.203h-.36v.75H1.11c-1.03 0-1.156.89-1.156 1.438 0 .703.5 1.14 1.156 1.14m0 0"/><path id="E" d="M0 2.625h.438v-.547H4.03L3.97.5H3.53c0 .516 0 .578-.36.578H.439v-.61H0c.016.595.031.72.031 1.095C.031 2 .016 2.109 0 2.625m5.422-.453a.713.713 0 0 0 .719-.703.71.71 0 0 0-.703-.703.7.7 0 0 0-.704.703c0 .375.297.703.688.703m0 0"/><path id="F" d="M0 5.656h.438v-.61h2.296c1.063 0 1.297-.655 1.297-1.437 0-1.093-.797-1.53-.937-1.593V2h.937L3.97.453H3.53c0 .531 0 .61-.36.61H.439v-.61H0l.031 1.125L0 2.718h.438V2.11H2.28c1 0 1.39.829 1.39 1.36 0 .344-.187.515-.858.515H.438v-.609H0l.031 1.14Zm0 0"/></defs><path fill="none" stroke="#FF7F7F" stroke-miterlimit="10" stroke-width=".399" d="M37.875 95.39h151.7M37.875 77.875h151.7M37.875 60.355h151.7M37.875 42.836h151.7M37.875 25.32h151.7M37.875 7.8h151.7"/><path fill="none" stroke="#7F0000" stroke-linecap="round" stroke-miterlimit="10" stroke-width=".399" d="M35.883 95.39h1.992M35.883 77.875h1.992M35.883 60.355h1.992M35.883 42.836h1.992M35.883 25.32h1.992M35.883 7.8h1.992"/><path fill="none" stroke="#00C" stroke-linecap="round" stroke-miterlimit="10" stroke-width=".399" d="M189.574 95.39h1.992M189.574 80.023h1.992M189.574 64.66h1.992M189.574 49.293h1.992M189.574 33.926h1.992M189.574 18.559h1.992"/><path fill="none" stroke="#000" stroke-linecap="round" stroke-miterlimit="10" stroke-width=".399" d="M42.855 99.379V95.39M71.203 99.379V95.39M99.55 99.379V95.39M127.898 99.379V95.39M156.246 99.379V95.39M184.59 99.379V95.39M42.855 2.82V.828M71.203 2.82V.828M99.55 2.82V.828M127.898 2.82V.828M156.246 2.82V.828M184.59 2.82V.828"/><path fill="none" stroke="#FF4040" stroke-miterlimit="10" stroke-width=".399" d="M37.875 95.39V2.82"/><path fill="none" stroke="#4040FF" stroke-miterlimit="10" stroke-width=".399" d="M189.574 95.39V2.82"/><path fill="none" stroke="#7F7F7F" stroke-miterlimit="10" stroke-width=".399" d="M37.875 95.39h151.7M37.875 2.82h151.7"/><path fill="none" stroke="#FF7F7F" stroke-miterlimit="10" stroke-width=".598" d="M113.723 42.836h14.175L142.07 25.32l28.348 8.758"/><path fill="none" stroke="red" stroke-miterlimit="10" stroke-width=".598" d="m57.031 76.121 14.172-15.766L85.38 7.801l70.867 52.554"/><path fill="none" stroke="#7F7FFF" stroke-miterlimit="10" stroke-width=".598" d="m42.855 64.66 28.348-7.683 28.348-23.051L184.59 7.8"/><path fill="none" stroke="#00F" stroke-miterlimit="10" stroke-width=".598" d="m42.855 80.023 28.348-7.68L85.38 64.66l70.867-15.367"/><use xlink:href="#a" x="13.286" y="98.158" fill="#7F0000"/><use xlink:href="#b" x="18.172" y="98.158" fill="#7F0000"/><use xlink:href="#c" x="22.406" y="98.158" fill="#7F0000"/><g fill="#7F0000"><use xlink:href="#b" x="24.759" y="98.158"/><use xlink:href="#b" x="28.994" y="98.158"/></g><use xlink:href="#a" x="13.286" y="80.64" fill="#7F0000"/><use xlink:href="#d" x="18.172" y="80.64" fill="#7F0000"/><use xlink:href="#c" x="22.406" y="80.64" fill="#7F0000"/><g fill="#7F0000"><use xlink:href="#b" x="24.759" y="80.64"/><use xlink:href="#b" x="28.994" y="80.64"/></g><use xlink:href="#a" x="13.286" y="63.122" fill="#7F0000"/><use xlink:href="#e" x="18.172" y="63.122" fill="#7F0000"/><use xlink:href="#c" x="22.406" y="63.122" fill="#7F0000"/><g fill="#7F0000"><use xlink:href="#b" x="24.759" y="63.122"/><use xlink:href="#b" x="28.994" y="63.122"/></g><use xlink:href="#a" x="13.286" y="45.604" fill="#7F0000"/><use xlink:href="#f" x="18.172" y="45.604" fill="#7F0000"/><use xlink:href="#c" x="22.406" y="45.604" fill="#7F0000"/><g fill="#7F0000"><use xlink:href="#b" x="24.759" y="45.604"/><use xlink:href="#b" x="28.994" y="45.604"/></g><use xlink:href="#a" x="13.286" y="28.086" fill="#7F0000"/><use xlink:href="#g" x="18.172" y="28.086" fill="#7F0000"/><use xlink:href="#c" x="22.406" y="28.086" fill="#7F0000"/><g fill="#7F0000"><use xlink:href="#b" x="24.759" y="28.086"/><use xlink:href="#b" x="28.994" y="28.086"/></g><use xlink:href="#a" x="13.286" y="10.568" fill="#7F0000"/><use xlink:href="#h" x="18.172" y="10.568" fill="#7F0000"/><use xlink:href="#c" x="22.406" y="10.568" fill="#7F0000"/><g fill="#7F0000"><use xlink:href="#b" x="24.759" y="10.568"/><use xlink:href="#b" x="28.994" y="10.568"/></g><use xlink:href="#b" x="194.219" y="97.96" fill="#00C"/><use xlink:href="#d" x="194.219" y="81.819" fill="#00C"/><use xlink:href="#i" x="198.453" y="81.819" fill="#00C"/><g fill="#00C"><use xlink:href="#b" x="200.805" y="81.819"/><use xlink:href="#b" x="205.04" y="81.819"/><use xlink:href="#b" x="209.274" y="81.819"/></g><use xlink:href="#i" x="213.508" y="81.819" fill="#00C"/><g fill="#00C"><use xlink:href="#b" x="215.86" y="81.819"/><use xlink:href="#b" x="220.095" y="81.819"/><use xlink:href="#b" x="224.329" y="81.819"/></g><use xlink:href="#i" x="228.563" y="81.819" fill="#00C"/><g fill="#00C"><use xlink:href="#b" x="230.915" y="81.819"/><use xlink:href="#b" x="235.15" y="81.819"/><use xlink:href="#b" x="239.384" y="81.819"/></g><use xlink:href="#e" x="194.219" y="66.452" fill="#00C"/><use xlink:href="#i" x="198.453" y="66.452" fill="#00C"/><g fill="#00C"><use xlink:href="#b" x="200.805" y="66.452"/><use xlink:href="#b" x="205.04" y="66.452"/><use xlink:href="#b" x="209.274" y="66.452"/></g><use xlink:href="#i" x="213.508" y="66.452" fill="#00C"/><g fill="#00C"><use xlink:href="#b" x="215.86" y="66.452"/><use xlink:href="#b" x="220.095" y="66.452"/><use xlink:href="#b" x="224.329" y="66.452"/></g><use xlink:href="#i" x="228.563" y="66.452" fill="#00C"/><g fill="#00C"><use xlink:href="#b" x="230.915" y="66.452"/><use xlink:href="#b" x="235.15" y="66.452"/><use xlink:href="#b" x="239.384" y="66.452"/></g><use xlink:href="#f" x="194.219" y="51.086" fill="#00C"/><use xlink:href="#i" x="198.453" y="51.086" fill="#00C"/><g fill="#00C"><use xlink:href="#b" x="200.805" y="51.086"/><use xlink:href="#b" x="205.04" y="51.086"/><use xlink:href="#b" x="209.274" y="51.086"/></g><use xlink:href="#i" x="213.508" y="51.086" fill="#00C"/><g fill="#00C"><use xlink:href="#b" x="215.86" y="51.086"/><use xlink:href="#b" x="220.095" y="51.086"/><use xlink:href="#b" x="224.329" y="51.086"/></g><use xlink:href="#i" x="228.563" y="51.086" fill="#00C"/><g fill="#00C"><use xlink:href="#b" x="230.915" y="51.086"/><use xlink:href="#b" x="235.15" y="51.086"/><use xlink:href="#b" x="239.384" y="51.086"/></g><use xlink:href="#g" x="194.219" y="35.719" fill="#00C"/><use xlink:href="#i" x="198.453" y="35.719" fill="#00C"/><g fill="#00C"><use xlink:href="#b" x="200.805" y="35.719"/><use xlink:href="#b" x="205.04" y="35.719"/><use xlink:href="#b" x="209.274" y="35.719"/></g><use xlink:href="#i" x="213.508" y="35.719" fill="#00C"/><g fill="#00C"><use xlink:href="#b" x="215.86" y="35.719"/><use xlink:href="#b" x="220.095" y="35.719"/><use xlink:href="#b" x="224.329" y="35.719"/></g><use xlink:href="#i" x="228.563" y="35.719" fill="#00C"/><g fill="#00C"><use xlink:href="#b" x="230.915" y="35.719"/><use xlink:href="#b" x="235.15" y="35.719"/><use xlink:href="#b" x="239.384" y="35.719"/></g><use xlink:href="#h" x="194.219" y="20.353" fill="#00C"/><use xlink:href="#i" x="198.453" y="20.353" fill="#00C"/><g fill="#00C"><use xlink:href="#b" x="200.805" y="20.353"/><use xlink:href="#b" x="205.04" y="20.353"/><use xlink:href="#b" x="209.274" y="20.353"/></g><use xlink:href="#i" x="213.508" y="20.353" fill="#00C"/><g fill="#00C"><use xlink:href="#b" x="215.86" y="20.353"/><use xlink:href="#b" x="220.095" y="20.353"/><use xlink:href="#b" x="224.329" y="20.353"/></g><use xlink:href="#i" x="228.563" y="20.353" fill="#00C"/><g fill="#00C"><use xlink:href="#b" x="230.915" y="20.353"/><use xlink:href="#b" x="235.15" y="20.353"/><use xlink:href="#b" x="239.384" y="20.353"/></g><use xlink:href="#d" x="34.388" y="107.169"/><use xlink:href="#j" x="38.623" y="107.169"/><use xlink:href="#b" x="42.857" y="107.169"/><use xlink:href="#b" x="47.092" y="107.169"/><use xlink:href="#d" x="62.735" y="107.169"/><use xlink:href="#j" x="66.97" y="107.169"/><use xlink:href="#e" x="71.204" y="107.169"/><use xlink:href="#b" x="75.439" y="107.169"/><use xlink:href="#d" x="91.081" y="107.169"/><use xlink:href="#j" x="95.316" y="107.169"/><use xlink:href="#g" x="99.55" y="107.169"/><use xlink:href="#b" x="103.785" y="107.169"/><use xlink:href="#d" x="119.428" y="107.169"/><use xlink:href="#j" x="123.663" y="107.169"/><use xlink:href="#k" x="127.897" y="107.169"/><use xlink:href="#b" x="132.132" y="107.169"/><use xlink:href="#d" x="147.774" y="107.169"/><use xlink:href="#j" x="152.009" y="107.169"/><use xlink:href="#l" x="156.243" y="107.169"/><use xlink:href="#b" x="160.478" y="107.169"/><use xlink:href="#e" x="176.121" y="107.169"/><use xlink:href="#b" x="180.356" y="107.169"/><use xlink:href="#b" x="184.59" y="107.169"/><use xlink:href="#b" x="188.825" y="107.169"/><use xlink:href="#m" x="102.963" y="117.836"/><use xlink:href="#n" x="110.082" y="117.836"/><use xlink:href="#o" x="114.951" y="117.836"/><use xlink:href="#p" x="120.107" y="117.836"/><g fill="#7F0000"><use xlink:href="#q" x="6.968" y="73.036"/><use xlink:href="#r" x="6.968" y="67.145"/></g><g fill="#7F0000"><use xlink:href="#s" x="6.968" y="60.958"/><use xlink:href="#t" x="6.968" y="56.09"/><use xlink:href="#u" x="6.968" y="50.199"/><use xlink:href="#v" x="6.968" y="44.308"/><use xlink:href="#t" x="6.968" y="41.358"/><use xlink:href="#w" x="6.968" y="35.467"/></g><use xlink:href="#x" x="249.873" y="26.388" fill="#00C"/><g fill="#00C"><use xlink:href="#y" x="249.873" y="33.337"/><use xlink:href="#z" x="249.873" y="38.645"/><use xlink:href="#A" x="249.873" y="44.536"/><use xlink:href="#B" x="249.873" y="50.427"/><use xlink:href="#C" x="249.873" y="53.377"/><use xlink:href="#D" x="249.873" y="58.532"/><use xlink:href="#E" x="249.873" y="62.657"/><use xlink:href="#y" x="249.873" y="65.607"/><use xlink:href="#F" x="249.873" y="70.915"/></g></svg>