<svg xmlns="http://www.w3.org/2000/svg" xmlns:xlink="http://www.w3.org/1999/xlink" width="311.06" height="119.072"><defs><path id="a" d="M4.766-1.172c0-.14-.141-.14-.235-.14-.187 0-.187.03-.25.156-.25.625-.734.812-1.234.812-1.39 0-1.39-1.453-1.39-1.922 0-.562 0-1.843 1.28-1.843.36 0 .516.015.657.046a.62.62 0 0 0-.203.47c0 .437.343.624.609.624.313 0 .64-.219.64-.625 0-.86-1.156-.922-1.734-.922C1.11-4.516.375-3.375.375-2.219.375-.89 1.313.063 2.844.063c1.625 0 1.922-1.157 1.922-1.235m0 0"/><path id="b" d="M4.406-3.672c0-.531-.531-.812-1.062-.812-.688 0-1.094.5-1.313 1.125v-1.125l-1.656.078v.468c.61 0 .688 0 .688.391v3.078H.375V0l1.25-.031C2-.031 2.641-.031 3 0v-.469h-.86v-1.75c0-.687.235-1.906 1.235-1.906 0 0-.187.172-.187.453 0 .406.328.61.609.61.297 0 .61-.204.61-.61m0 0"/><path id="c" d="M5.406-2.172c0-1.344-.922-2.344-2.547-2.344C1.22-4.516.313-3.5.313-2.172c0 1.235.89 2.235 2.546 2.235 1.672 0 2.547-1.016 2.547-2.235m-1.281-.11c0 .86 0 1.938-1.266 1.938-1.265 0-1.265-1.078-1.265-1.937 0-.453 0-.953.172-1.297.187-.375.609-.578 1.093-.578.422 0 .844.156 1.063.5.203.344.203.89.203 1.375m0 0"/><path id="d" d="M4.14-1.39c0-.438-.202-.782-.546-1.063-.39-.281-.719-.344-1.485-.485-.375-.062-1.015-.171-1.015-.64 0-.625.922-.625 1.11-.625.75 0 1.124.297 1.171.844.016.156.031.203.234.203.235 0 .235-.047.235-.281v-.797c0-.188 0-.282-.172-.282-.047 0-.063 0-.453.188-.266-.125-.61-.188-1-.188-.313 0-1.844 0-1.844 1.313 0 .39.203.656.406.828.39.344.782.406 1.547.547.36.062 1.094.187 1.094.781 0 .75-.906.75-1.125.75C1.234-.297.984-1.03.859-1.453c-.046-.14-.109-.14-.234-.14-.25 0-.25.062-.25.28v1.094c0 .188 0 .282.188.282.062 0 .078 0 .296-.157l.25-.172c.47.329.985.329 1.188.329.312 0 1.844 0 1.844-1.454m0 0"/><path id="e" d="M6.125 0v-.469c-.61 0-.687 0-.687-.39v-3.625l-1.813.078v.468c.61 0 .688 0 .688.391v1.906c0 .813-.516 1.344-1.235 1.344-.781 0-.812-.25-.812-.797v-3.39l-1.813.078v.468c.61 0 .688 0 .688.391v2.328c0 1.063.797 1.282 1.797 1.282.25 0 .968 0 1.421-.782v.782Zm0 0"/><path id="f" d="M3.813-1.234v-.532h-.47v.516c0 .672-.327.906-.609.906-.578 0-.578-.64-.578-.86v-2.75h1.469v-.468H2.156v-1.906h-.469c0 1-.484 1.984-1.484 2.016v.359h.828v2.734c0 1.063.86 1.282 1.578 1.282.75 0 1.204-.579 1.204-1.297m0 0"/><path id="h" d="M3.078.313c0-.125-.047-.157-.187-.25C2.063-.5 1.75-1.391 1.75-2.125c0-.672.25-1.594 1.156-2.203.125-.094.172-.125.172-.25a.254.254 0 0 0-.265-.25c-.204 0-1.641.906-1.641 2.703 0 .813.312 1.438.562 1.781.375.516.907.907 1.079.907.218 0 .265-.172.265-.25m0 0"/><path id="i" d="M3.219-.906c0-.735-.906-.906-1.14-.938l-.704-.125C1.188-2 1-2.079 1-2.25c0-.156.219-.328.813-.328.515 0 .609.172.625.328.015.14.03.281.28.281.298 0 .298-.156.298-.328v-.469c0-.14-.016-.328-.25-.328-.157 0-.22.063-.25.125-.282-.125-.563-.125-.688-.125-1.187 0-1.344.594-1.344.844 0 .656.735.797 1.391.89.297.063.828.141.828.454 0 .234-.25.422-.828.422-.297 0-.656-.063-.812-.563C1.03-1.203.984-1.28.78-1.28c-.297 0-.297.172-.297.328v.656c0 .14 0 .344.25.344.079 0 .188 0 .282-.234.328.218.672.234.859.234 1.125 0 1.344-.61 1.344-.953m0 0"/><path id="j" d="M2.313-.469a.477.477 0 0 0-.485-.484.47.47 0 0 0-.469.469c0 .28.22.484.47.484a.473.473 0 0 0 .484-.469m0 0"/><path id="k" d="M3.578-.266c0-.25-.203-.25-.328-.25H3v-1.53c0-.72-.36-1.032-.937-1.032-.391 0-.672.172-.844.297 0-.172-.047-.25-.313-.25h-.5c-.14 0-.328 0-.328.25 0 .265.203.265.313.265h.25v2H.406c-.14 0-.328 0-.328.25C.078 0 .281 0 .391 0h1.093c.11 0 .329 0 .329-.266 0-.25-.204-.25-.344-.25h-.25v-1.156c0-.64.484-.875.797-.875.328 0 .406.172.406.547v1.484h-.203c-.14 0-.344 0-.344.25 0 .266.219.266.344.266H3.25c.11 0 .328 0 .328-.266m0 0"/><path id="l" d="M3.281-1.516c0-.89-.672-1.578-1.453-1.578-.797 0-1.453.688-1.453 1.578S1.047.047 1.828.047c.766 0 1.453-.688 1.453-1.563m-.578-.046c0 .593-.406 1.078-.875 1.078S.953-.97.953-1.562s.422-1.016.875-1.016.875.422.875 1.015m0 0"/><path id="m" d="M3.406-2.594c0-.156-.078-.484-.703-.484-.328 0-.734.11-1.094.469v-.094c0-.25-.046-.328-.328-.328h-.75c-.125 0-.328 0-.328.25 0 .265.203.265.328.265h.5v2h-.5c-.125 0-.328 0-.328.25C.203 0 .406 0 .531 0h1.781c.126 0 .329 0 .329-.266 0-.25-.203-.25-.328-.25h-.704v-.796c0-.61.36-1.22 1.11-1.235 0 .156.172.281.344.281.187 0 .343-.125.343-.328m0 0"/><path id="n" d="M3.14-.906c0-.156 0-.313-.296-.313-.266 0-.266.157-.266.297-.015.375-.36.438-.515.438-.454 0-.454-.313-.454-.47v-1.562h1.047c.125 0 .328 0 .328-.265 0-.25-.187-.25-.328-.25H1.61v-.516c0-.14-.015-.328-.296-.328-.282 0-.282.172-.282.328v.516H.484c-.125 0-.328 0-.328.25 0 .265.203.265.328.265h.547v1.61c0 .687.485.953 1.016.953S3.14-.266 3.14-.906m0 0"/><path id="o" d="M3.578-.266c0-.25-.203-.25-.328-.25H3v-1.53c0-.72-.36-1.032-.937-1.032-.391 0-.672.172-.844.297v-1.14c0-.25-.047-.345-.313-.345h-.5c-.14 0-.328.016-.328.266s.203.266.313.266h.25v3.218H.406c-.14 0-.328 0-.328.25C.078 0 .281 0 .391 0h1.093c.11 0 .329 0 .329-.266 0-.25-.204-.25-.344-.25h-.25v-1.156c0-.64.484-.875.797-.875.328 0 .406.172.406.547v1.484h-.203c-.14 0-.344 0-.344.25 0 .266.219.266.344.266H3.25c.11 0 .328 0 .328-.266m0 0"/><path id="p" d="M3.547-2.781c0-.25-.188-.25-.328-.25h-.781c-.157 0-.344 0-.344.25 0 .265.172.265.344.265h.265l-.297 1.72-.14-.532c-.125-.469-.172-.547-.422-.547-.094 0-.235 0-.328.188l-.266.906-.297-1.735h.266c.156 0 .343 0 .343-.265 0-.25-.187-.25-.343-.25H.437c-.14 0-.343 0-.343.25 0 .234.14.265.36.265L.858-.28c.032.187.047.312.36.312.312 0 .343-.062.453-.515l.172-.641.265 1c.094.14.235.156.344.156.281 0 .313-.125.344-.312l.406-2.235c.219 0 .344-.03.344-.265m0 0"/><path id="q" d="M3.25-.797c0-.234-.234-.234-.281-.234-.156 0-.219.015-.281.172-.141.328-.485.375-.657.375-.469 0-.937-.297-1.062-.813h1.953c.172 0 .328 0 .328-.312 0-.797-.453-1.485-1.375-1.485-.828 0-1.516.703-1.516 1.563S1.08.047 1.984.047c.938 0 1.266-.656 1.266-.844m-.594-1.015H.97c.125-.438.484-.766.906-.766.328 0 .703.156.781.765m0 0"/><path id="r" d="M2.484-2.125c0-.828-.312-1.453-.562-1.797-.375-.515-.906-.906-1.078-.906-.203 0-.266.187-.266.25 0 .125.094.187.14.219 1.095.718 1.188 1.797 1.188 2.234 0 .656-.25 1.578-1.14 2.188C.64.14.578.188.578.313c0 .078.063.25.266.25s1.64-.907 1.64-2.688m0 0"/><path id="s" d="M3.625-.266c0-.25-.203-.25-.328-.25-.203 0-.297-.03-.344-.046V-2c0-.5-.375-1.094-1.406-1.094-.313 0-1.031.016-1.031.547 0 .235.172.36.359.36.11 0 .344-.063.344-.36 0 0 .234-.031.343-.031.454 0 .782.187.813.594-1.219.03-2.047.39-2.047 1.062 0 .485.453.969 1.188.969.234 0 .656-.047.968-.25.172.187.485.203.75.203.235 0 .391-.016.391-.266M2.359-.969c0 .14 0 .266-.234.375-.234.11-.516.11-.578.11-.39 0-.64-.203-.64-.438 0-.312.546-.515 1.452-.562Zm0 0"/><path id="t" d="M3.266-.797c0-.234-.235-.234-.297-.234-.125 0-.203 0-.266.172-.047.078-.187.375-.625.375a1.027 1.027 0 0 1-1.015-1.032c0-.312.187-1.062 1.062-1.062l.344.015c.015.282.172.376.36.376.187 0 .358-.126.358-.36 0-.531-.734-.547-1.062-.547-1.219 0-1.64.953-1.64 1.578 0 .844.671 1.563 1.546 1.563 1 0 1.235-.719 1.235-.844m0 0"/><path id="u" d="M3.64-.266c0-.218-.14-.25-.39-.25v-1.593c0-.157-.016-.97-.656-.97a.84.84 0 0 0-.656.313.61.61 0 0 0-.532-.312.88.88 0 0 0-.547.203c-.046-.156-.187-.156-.312-.156H.328c-.125 0-.328 0-.328.25 0 .234.125.265.39.265v2c-.265 0-.39.032-.39.25C0 0 .219 0 .328 0h.594c.125 0 .312 0 .312-.266 0-.218-.109-.25-.359-.25v-1.171c0-.563.234-.86.5-.86.14 0 .203.11.203.5v1.531c-.156 0-.281.032-.281.25 0 .266.187.266.312.266h.516c.125 0 .313 0 .313-.266 0-.218-.126-.25-.376-.25v-1.171c0-.563.25-.86.5-.86.141 0 .204.11.204.5v1.531c-.141 0-.282.032-.282.25 0 .266.204.266.313.266h.5c.125 0 .344 0 .344-.266m0 0"/><path id="v" d="M3.188-.266c0-.25-.204-.25-.329-.25h-.656v-2.187c0-.25-.047-.328-.328-.328H.906c-.125 0-.328 0-.328.25 0 .265.203.265.328.265h.719v2H.859c-.14 0-.343 0-.343.25C.516 0 .734 0 .859 0h2c.125 0 .329 0 .329-.266m-.954-3.562a.39.39 0 0 0-.406-.39.387.387 0 0 0-.39.39c0 .219.171.39.39.39a.39.39 0 0 0 .406-.39m0 0"/><path id="w" d="M3.578-.266c0-.25-.203-.25-.328-.25H3v-3.406c0-.25-.047-.344-.328-.344h-.485c-.14 0-.343.016-.343.266s.218.266.328.266h.25v.906a1.26 1.26 0 0 0-.735-.25c-.765 0-1.453.672-1.453 1.562C.234-.64.875.047 1.625.047c.344 0 .61-.14.797-.313.015.188.062.266.328.266h.5c.125 0 .328 0 .328-.266M2.422-1.375c0 .36-.297.89-.781.89-.453 0-.828-.452-.828-1.03 0-.61.437-1.032.89-1.032.406 0 .719.344.719.688Zm0 0"/><path id="x" d="M3.422-1.516c0-.875-.64-1.562-1.39-1.562-.298 0-.579.11-.813.265v-1.109c0-.25-.047-.344-.313-.344h-.5c-.14 0-.343.016-.343.266s.218.266.328.266h.25v3.406C.64-.172.656 0 .938 0c.218 0 .28-.094.28-.234.266.218.532.28.735.28.766 0 1.469-.671 1.469-1.562m-.578 0c0 .61-.453 1.032-.906 1.032-.485 0-.704-.563-.704-.875v-.485c0-.375.375-.703.766-.703.469 0 .844.469.844 1.031m0 0"/><path id="y" d="M3.578-.266c0-.25-.219-.25-.328-.25H3v-2.187c0-.25-.047-.328-.328-.328h-.485c-.14 0-.343 0-.343.25 0 .265.218.265.328.265h.25v1.391c0 .563-.516.64-.719.64-.469 0-.484-.187-.484-.39v-1.828c0-.25-.047-.328-.313-.328h-.5c-.14 0-.328 0-.328.25 0 .265.203.265.313.265h.25v1.688c0 .687.5.875 1.03.875.266 0 .517-.063.767-.219C2.484 0 2.625 0 2.75 0h.5c.125 0 .328 0 .328-.266m0 0"/><path id="z" d="M3.469-.266c0-.25-.203-.25-.328-.25h-.25l-.828-1.046.734-.954h.234c.125 0 .344 0 .344-.265 0-.25-.219-.25-.344-.25H2.25c-.125 0-.328 0-.328.25 0 .203.11.265.281.265l-.39.547-.422-.547c.156 0 .28-.062.28-.265 0-.25-.202-.25-.327-.25H.547c-.125 0-.328 0-.328.25 0 .265.219.265.328.265h.25l.75.954L.75-.516H.516c-.125 0-.344 0-.344.25C.172 0 .39 0 .516 0h.78c.126 0 .329 0 .329-.266 0-.203-.11-.25-.297-.25l.484-.703.5.703c-.187 0-.296.047-.296.25 0 .266.203.266.328.266h.797c.109 0 .328 0 .328-.266m0 0"/><path id="A" d="M3.094-.266c0-.25-.188-.25-.313-.25H2.22V-4c0-.125-.016-.328-.266-.328-.156 0-.219.094-.25.187-.234.547-.578.625-.687.641-.141 0-.313.031-.313.266 0 .203.156.25.281.25s.375-.032.657-.235v2.703h-.563c-.14 0-.328 0-.328.25C.75 0 .953 0 1.078 0h1.703c.125 0 .313 0 .313-.266m0 0"/><path id="B" d="M3.313-2.125c0-1.297-.72-2.203-1.485-2.203-.781 0-1.5.922-1.5 2.203 0 1.297.734 2.203 1.5 2.203.781 0 1.485-.922 1.485-2.203m-.563-.078c0 .969-.422 1.75-.922 1.75-.516 0-.922-.781-.922-1.75 0-.953.438-1.61.922-1.61.469 0 .922.657.922 1.61m0 0"/><path id="C" d="M3.36-1.234c0-.47-.297-.875-.72-1.094.344-.25.516-.64.516-1 0-.516-.515-1-1.328-1-.86 0-1.344.36-1.344.844 0 .265.204.375.36.375.172 0 .36-.141.36-.36 0-.078-.032-.14-.048-.172.203-.171.625-.171.688-.171.422 0 .734.218.734.5a.72.72 0 0 1-.25.546c-.219.172-.375.188-.61.188-.437 0-.546.062-.546.281 0 .266.203.266.328.266h.313c.64 0 .968.422.968.797 0 .39-.36.78-.937.78-.25 0-.719-.062-.907-.327A.36.36 0 0 0 1-1a.363.363 0 0 0-.36-.36c-.171 0-.343.126-.343.391C.297-.344.969.078 1.844.078c.922 0 1.515-.656 1.515-1.312m0 0"/><clipPath id="g"><path d="M0 0h310.59v118.61H0Zm0 0"/></clipPath></defs><g fill="#B2B2B2"><use xlink:href="#a" x="132.081" y="87.383"/><use xlink:href="#b" x="137.172" y="87.383"/><use xlink:href="#c" x="141.894" y="87.383"/><use xlink:href="#d" x="147.623" y="87.383"/><use xlink:href="#d" x="152.146" y="87.383"/></g><g fill="#B2B2B2"><use xlink:href="#c" x="160.484" y="87.383"/><use xlink:href="#e" x="166.213" y="87.383"/><use xlink:href="#f" x="172.579" y="87.383"/></g><path fill="none" stroke="#B2B2B2" stroke-miterlimit="10" stroke-width=".996" d="M177.531 87.441v-56.75"/><path fill="#FFFBB3" d="M54.129 108.703 255.984 9.43m-201.855 0 201.855 99.273"/><g clip-path="url(#g)"><path fill="none" stroke="#B2B2B2" stroke-miterlimit="10" stroke-width="14.173" d="M54.129 108.703 255.984 9.43m-201.855 0 201.855 99.273"/></g><path fill="none" stroke="#000" stroke-miterlimit="10" stroke-width=".399" d="m52.719 10.84 2.816-2.82m-2.816 0 2.816 2.82"/><use xlink:href="#h" x="-.649" y="5.352"/><use xlink:href="#i" x="3.012" y="5.352"/><use xlink:href="#j" x="6.674" y="5.352"/><use xlink:href="#k" x="10.335" y="5.352"/><use xlink:href="#l" x="13.996" y="5.352"/><use xlink:href="#m" x="17.657" y="5.352"/><use xlink:href="#n" x="21.319" y="5.352"/><use xlink:href="#o" x="24.98" y="5.352"/><use xlink:href="#p" x="32.295" y="5.352"/><use xlink:href="#q" x="35.957" y="5.352"/><use xlink:href="#i" x="39.618" y="5.352"/><use xlink:href="#n" x="43.279" y="5.352"/><use xlink:href="#r" x="46.941" y="5.352"/><path fill="none" stroke="#000" stroke-miterlimit="10" stroke-width=".399" d="m153.645 10.84 2.82-2.82m-2.82 0 2.82 2.82"/><use xlink:href="#h" x="138.579" y="5.352"/><use xlink:href="#i" x="142.24" y="5.352"/><use xlink:href="#j" x="145.902" y="5.352"/><use xlink:href="#k" x="149.563" y="5.352"/><use xlink:href="#l" x="153.224" y="5.352"/><use xlink:href="#m" x="156.885" y="5.352"/><use xlink:href="#n" x="160.547" y="5.352"/><use xlink:href="#o" x="164.208" y="5.352"/><use xlink:href="#r" x="167.869" y="5.352"/><path fill="none" stroke="#000" stroke-miterlimit="10" stroke-width=".399" d="m254.574 10.84 2.817-2.82m-2.817 0 2.817 2.82"/><use xlink:href="#h" x="259.501" y="5.352"/><use xlink:href="#i" x="263.162" y="5.352"/><use xlink:href="#j" x="266.824" y="5.352"/><use xlink:href="#k" x="270.485" y="5.352"/><use xlink:href="#l" x="274.146" y="5.352"/><use xlink:href="#m" x="277.807" y="5.352"/><use xlink:href="#n" x="281.469" y="5.352"/><use xlink:href="#o" x="285.13" y="5.352"/><use xlink:href="#q" x="292.452" y="5.352"/><use xlink:href="#s" x="296.114" y="5.352"/><use xlink:href="#i" x="299.775" y="5.352"/><use xlink:href="#n" x="303.436" y="5.352"/><use xlink:href="#r" x="307.098" y="5.352"/><path fill="none" stroke="#000" stroke-miterlimit="10" stroke-width=".399" d="m52.719 60.477 2.816-2.82m-2.816 0 2.816 2.82"/><use xlink:href="#h" x="21.318" y="61.2"/><use xlink:href="#i" x="24.979" y="61.2"/><use xlink:href="#j" x="28.641" y="61.2"/><use xlink:href="#p" x="32.302" y="61.2"/><use xlink:href="#q" x="35.963" y="61.2"/><use xlink:href="#i" x="39.624" y="61.2"/><use xlink:href="#n" x="43.286" y="61.2"/><use xlink:href="#r" x="46.947" y="61.2"/><path fill="none" stroke="#000" stroke-miterlimit="10" stroke-width=".399" d="m153.645 60.477 2.82-2.82m-2.82 0 2.82 2.82"/><use xlink:href="#h" x="136.748" y="54.989"/><use xlink:href="#i" x="140.409" y="54.989"/><use xlink:href="#j" x="144.071" y="54.989"/><use xlink:href="#t" x="147.732" y="54.989"/><use xlink:href="#q" x="151.393" y="54.989"/><use xlink:href="#k" x="155.054" y="54.989"/><use xlink:href="#n" x="158.716" y="54.989"/><use xlink:href="#q" x="162.377" y="54.989"/><use xlink:href="#m" x="166.038" y="54.989"/><use xlink:href="#r" x="169.699" y="54.989"/><path fill="none" stroke="#000" stroke-miterlimit="10" stroke-width=".399" d="m254.574 60.477 2.817-2.82m-2.817 0 2.817 2.82"/><use xlink:href="#h" x="259.501" y="61.2"/><use xlink:href="#i" x="263.162" y="61.2"/><use xlink:href="#j" x="266.824" y="61.2"/><use xlink:href="#q" x="270.485" y="61.2"/><use xlink:href="#s" x="274.146" y="61.2"/><use xlink:href="#i" x="277.807" y="61.2"/><use xlink:href="#n" x="281.469" y="61.2"/><use xlink:href="#r" x="285.13" y="61.2"/><path fill="none" stroke="#000" stroke-miterlimit="10" stroke-width=".399" d="m52.719 86.582 2.816-2.82m-2.816 0 2.816 2.82"/><use xlink:href="#h" x="57.648" y="87.305"/><use xlink:href="#i" x="61.309" y="87.305"/><use xlink:href="#j" x="64.971" y="87.305"/><use xlink:href="#u" x="68.632" y="87.305"/><use xlink:href="#v" x="72.293" y="87.305"/><use xlink:href="#w" x="75.954" y="87.305"/><use xlink:href="#p" x="83.277" y="87.305"/><use xlink:href="#q" x="86.938" y="87.305"/><use xlink:href="#i" x="90.599" y="87.305"/><use xlink:href="#n" x="94.261" y="87.305"/><use xlink:href="#r" x="97.922" y="87.305"/><path fill="none" stroke="#000" stroke-miterlimit="10" stroke-width=".399" d="m153.645 86.582 2.82-2.82m-2.82 0 2.82 2.82"/><use xlink:href="#h" x="142.24" y="81.093"/><use xlink:href="#i" x="145.901" y="81.093"/><use xlink:href="#j" x="149.563" y="81.093"/><use xlink:href="#u" x="153.224" y="81.093"/><use xlink:href="#v" x="156.885" y="81.093"/><use xlink:href="#w" x="160.546" y="81.093"/><use xlink:href="#r" x="164.208" y="81.093"/><path fill="none" stroke="#000" stroke-miterlimit="10" stroke-width=".399" d="m254.574 86.582 2.817-2.82m-2.817 0 2.817 2.82"/><use xlink:href="#h" x="208.526" y="87.305"/><use xlink:href="#i" x="212.187" y="87.305"/><use xlink:href="#j" x="215.849" y="87.305"/><use xlink:href="#u" x="219.51" y="87.305"/><use xlink:href="#v" x="223.171" y="87.305"/><use xlink:href="#w" x="226.832" y="87.305"/><use xlink:href="#q" x="234.155" y="87.305"/><use xlink:href="#s" x="237.816" y="87.305"/><use xlink:href="#i" x="241.477" y="87.305"/><use xlink:href="#n" x="245.139" y="87.305"/><use xlink:href="#r" x="248.8" y="87.305"/><path fill="none" stroke="#000" stroke-miterlimit="10" stroke-width=".399" d="m52.719 88.793 2.816-2.82m-2.816 0 2.816 2.82"/><use xlink:href="#h" x="3.012" y="89.517"/><use xlink:href="#i" x="6.673" y="89.517"/><use xlink:href="#j" x="10.335" y="89.517"/><use xlink:href="#x" x="13.996" y="89.517"/><use xlink:href="#s" x="17.657" y="89.517"/><use xlink:href="#i" x="21.318" y="89.517"/><use xlink:href="#q" x="24.98" y="89.517"/><use xlink:href="#p" x="32.302" y="89.517"/><use xlink:href="#q" x="35.963" y="89.517"/><use xlink:href="#i" x="39.625" y="89.517"/><use xlink:href="#n" x="43.286" y="89.517"/><use xlink:href="#r" x="46.947" y="89.517"/><path fill="none" stroke="#000" stroke-miterlimit="10" stroke-width=".399" d="m153.645 88.793 2.82-2.82m-2.82 0 2.82 2.82"/><use xlink:href="#h" x="140.41" y="95.728"/><use xlink:href="#i" x="144.071" y="95.728"/><use xlink:href="#j" x="147.733" y="95.728"/><use xlink:href="#x" x="151.394" y="95.728"/><use xlink:href="#s" x="155.055" y="95.728"/><use xlink:href="#i" x="158.716" y="95.728"/><use xlink:href="#q" x="162.378" y="95.728"/><use xlink:href="#r" x="166.039" y="95.728"/><path fill="none" stroke="#000" stroke-miterlimit="10" stroke-width=".399" d="m254.574 88.793 2.817-2.82m-2.817 0 2.817 2.82"/><use xlink:href="#h" x="259.501" y="89.517"/><use xlink:href="#i" x="263.162" y="89.517"/><use xlink:href="#j" x="266.824" y="89.517"/><use xlink:href="#x" x="270.485" y="89.517"/><use xlink:href="#s" x="274.146" y="89.517"/><use xlink:href="#i" x="277.807" y="89.517"/><use xlink:href="#q" x="281.469" y="89.517"/><use xlink:href="#q" x="288.791" y="89.517"/><use xlink:href="#s" x="292.452" y="89.517"/><use xlink:href="#i" x="296.114" y="89.517"/><use xlink:href="#n" x="299.775" y="89.517"/><use xlink:href="#r" x="303.436" y="89.517"/><path fill="none" stroke="#000" stroke-miterlimit="10" stroke-width=".399" d="m52.719 110.113 2.816-2.82m-2.816 0 2.816 2.82"/><use xlink:href="#h" x="-.649" y="117.048"/><use xlink:href="#i" x="3.012" y="117.048"/><use xlink:href="#j" x="6.674" y="117.048"/><use xlink:href="#i" x="10.335" y="117.048"/><use xlink:href="#l" x="13.996" y="117.048"/><use xlink:href="#y" x="17.657" y="117.048"/><use xlink:href="#n" x="21.319" y="117.048"/><use xlink:href="#o" x="24.98" y="117.048"/><use xlink:href="#p" x="32.295" y="117.048"/><use xlink:href="#q" x="35.957" y="117.048"/><use xlink:href="#i" x="39.618" y="117.048"/><use xlink:href="#n" x="43.279" y="117.048"/><use xlink:href="#r" x="46.941" y="117.048"/><path fill="none" stroke="#000" stroke-miterlimit="10" stroke-width=".399" d="m153.645 110.113 2.82-2.82m-2.82 0 2.82 2.82"/><use xlink:href="#h" x="138.579" y="117.048"/><use xlink:href="#i" x="142.24" y="117.048"/><use xlink:href="#j" x="145.902" y="117.048"/><use xlink:href="#i" x="149.563" y="117.048"/><use xlink:href="#l" x="153.224" y="117.048"/><use xlink:href="#y" x="156.885" y="117.048"/><use xlink:href="#n" x="160.547" y="117.048"/><use xlink:href="#o" x="164.208" y="117.048"/><use xlink:href="#r" x="167.869" y="117.048"/><path fill="none" stroke="#000" stroke-miterlimit="10" stroke-width=".399" d="m254.574 110.113 2.817-2.82m-2.817 0 2.817 2.82"/><use xlink:href="#h" x="259.501" y="117.048"/><use xlink:href="#i" x="263.162" y="117.048"/><use xlink:href="#j" x="266.824" y="117.048"/><use xlink:href="#i" x="270.485" y="117.048"/><use xlink:href="#l" x="274.146" y="117.048"/><use xlink:href="#y" x="277.807" y="117.048"/><use xlink:href="#n" x="281.469" y="117.048"/><use xlink:href="#o" x="285.13" y="117.048"/><use xlink:href="#q" x="292.452" y="117.048"/><use xlink:href="#s" x="296.114" y="117.048"/><use xlink:href="#i" x="299.775" y="117.048"/><use xlink:href="#n" x="303.436" y="117.048"/><use xlink:href="#r" x="307.098" y="117.048"/><path fill="none" stroke="#000" stroke-miterlimit="10" stroke-width=".399" d="m130.672 88.793 2.816-2.82m-2.816 0 2.816 2.82"/><use xlink:href="#h" x="99.271" y="89.517"/><use xlink:href="#i" x="102.932" y="89.517"/><use xlink:href="#j" x="106.594" y="89.517"/><use xlink:href="#n" x="110.255" y="89.517"/><use xlink:href="#q" x="113.916" y="89.517"/><use xlink:href="#z" x="117.577" y="89.517"/><use xlink:href="#n" x="121.239" y="89.517"/><use xlink:href="#r" x="124.9" y="89.517"/><path fill="none" stroke="#000" stroke-miterlimit="10" stroke-width=".399" d="m254.574 42.68 2.817-2.82m-2.817 0 2.817 2.82"/><use xlink:href="#h" x="259.501" y="43.404"/><use xlink:href="#i" x="263.162" y="43.404"/><use xlink:href="#j" x="266.824" y="43.404"/><use xlink:href="#A" x="270.485" y="43.404"/><use xlink:href="#B" x="274.146" y="43.404"/><use xlink:href="#r" x="277.807" y="43.404"/><path fill="none" stroke="#000" stroke-miterlimit="10" stroke-width=".399" d="m111.992 10.84 2.82-2.82m-2.82 0 2.82 2.82"/><use xlink:href="#h" x="100.588" y="5.352"/><use xlink:href="#i" x="104.249" y="5.352"/><use xlink:href="#j" x="107.911" y="5.352"/><use xlink:href="#A" x="111.572" y="5.352"/><use xlink:href="#C" x="115.233" y="5.352"/><use xlink:href="#B" x="118.894" y="5.352"/><use xlink:href="#r" x="122.556" y="5.352"/></svg>