<svg xmlns="http://www.w3.org/2000/svg" xmlns:xlink="http://www.w3.org/1999/xlink" width="117.568" height="73.64"><defs><path id="b" d="M5.563-1.812c.14 0 .312 0 .312-.172 0-.188-.172-.188-.312-.188H1c-.125 0-.297 0-.297.188 0 .172.172.172.297.172Zm0 0"/><path id="c" d="M2.5-5.078c0-.219-.016-.219-.234-.219-.328.313-.75.5-1.5.5v.266c.218 0 .64 0 1.109-.203v4.078c0 .297-.031.39-.781.39H.812V0c.329-.031 1.016-.031 1.376-.031s1.046 0 1.374.031v-.266h-.28c-.75 0-.782-.093-.782-.39Zm0 0"/><path id="d" d="M3.89-2.547c0-.844-.078-1.36-.343-1.875-.344-.703-1-.875-1.438-.875-1 0-1.375.75-1.484.969C.344-3.75.328-2.953.328-2.547c0 .531.016 1.328.406 1.969.36.594.954.75 1.375.75.391 0 1.063-.125 1.47-.906.296-.578.312-1.297.312-1.813M2.11-.062c-.266 0-.813-.125-.985-.954-.094-.453-.094-1.203-.094-1.625 0-.546 0-1.109.094-1.546.172-.813.781-.891.984-.891.266 0 .829.14.985.86.094.437.094 1.046.094 1.577 0 .47 0 1.188-.094 1.641-.172.828-.719.938-.985.938m0 0"/><path id="e" d="M5.531-1.984c0-1.22-.875-2.047-2.187-2.047-.719 0-1.203.297-1.375.422v-2.61l-1.594.063v.437c.531 0 .61 0 .61.36V0h.453l.421-.516c.282.297.72.563 1.36.563 1.406 0 2.312-.844 2.312-2.031m-1.187-.032c0 .391 0 .844-.188 1.172-.297.5-.843.532-1.031.532-.547 0-.906-.329-1.094-.625V-3.11a1.55 1.55 0 0 1 1.203-.563c1.11 0 1.11 1.078 1.11 1.656m0 0"/><path id="f" d="M5.11-.219c0-.218-.157-.218-.235-.218-.578-.016-.578-.094-.578-.313v-1.922c0-.797-.64-1.39-2.031-1.39-.5 0-1.657.015-1.657.843 0 .406.313.594.579.594.312 0 .593-.219.593-.578 0-.266-.156-.422-.187-.453.093-.016.312-.047.64-.047.641 0 1.016.328 1.016 1.031v.281C1.766-2.39.25-2 .25-1 .25-.11 1.375.047 2.016.047c.687 0 1.156-.281 1.39-.703 0 .219 0 .656.969.656h.438c.171 0 .296 0 .296-.219M3.25-1.25c0 .938-1.047.938-1.078.938-.453 0-.828-.282-.828-.688 0-.297.156-1 1.906-1.078Zm0 0"/><clipPath id="a"><path d="M0 28h74v45.46H0Zm0 0"/></clipPath></defs><path fill="none" stroke="#000" stroke-linecap="round" stroke-miterlimit="10" stroke-width=".399" d="M8.266 38.633v-3.985M64.957 38.633v-3.985M34.621 64.988h3.984M34.621 8.293h3.984"/><path fill="none" stroke="#000" stroke-miterlimit="10" stroke-width=".399" d="M.793 36.64h71.238"/><path fill="none" stroke="#000" stroke-linecap="round" stroke-linejoin="round" stroke-miterlimit="10" stroke-width=".399" d="M70.16 34.25c.38 1.434 1.223 2.11 2.07 2.39-.847.278-1.69.958-2.07 2.391"/><path fill="none" stroke="#000" stroke-miterlimit="10" stroke-width=".399" d="M36.613 72.457V1.219"/><path fill="none" stroke="#000" stroke-linecap="round" stroke-linejoin="round" stroke-miterlimit="10" stroke-width=".399" d="M34.223 3.094c1.433-.38 2.109-1.223 2.39-2.074.278.851.957 1.695 2.39 2.074"/><path fill="none" stroke="#000" stroke-dasharray="2.98885 1.19554" stroke-miterlimit="10" stroke-width=".598" d="m8.266 8.293 56.691 14.172"/><path fill="none" stroke="#000" stroke-miterlimit="10" stroke-width=".399" d="M6.273 8.293h3.985M8.266 6.301v3.984M62.965 22.465h3.988m-1.996-1.992v3.988"/><g clip-path="url(#a)"><path fill="none" stroke="#000" stroke-miterlimit="10" stroke-width=".598" d="m8.266 64.988 56.691-28.347"/></g><path fill="none" stroke="#000" stroke-miterlimit="10" stroke-width=".399" d="m6.855 66.395 2.82-2.817m-2.82 0 2.82 2.817M63.55 38.05l2.817-2.82m-2.816 0 2.816 2.82"/><use xlink:href="#b" x="2.855" y="46.424"/><use xlink:href="#c" x="9.441" y="46.424"/><use xlink:href="#c" x="62.841" y="46.424"/><use xlink:href="#b" x="21.142" y="67.139"/><use xlink:href="#c" x="27.729" y="67.139"/><use xlink:href="#d" x="29.721" y="44.432"/><use xlink:href="#c" x="27.729" y="10.861"/><use xlink:href="#e" x="110.815" y="33.402"/><path fill="none" stroke="#000" stroke-dasharray="2.98885 1.19554" stroke-miterlimit="10" stroke-width=".598" d="m85.914 32.074 9.961-1.77 9.965 1.77"/><path fill="none" stroke="#000" stroke-miterlimit="10" stroke-width=".399" d="M83.918 32.074h3.988m-1.992-1.992v3.984M103.844 32.074h3.988m-1.992-1.992v3.984"/><use xlink:href="#f" x="110.815" y="44.361"/><path fill="none" stroke="#000" stroke-miterlimit="10" stroke-width=".598" d="m85.914 43.035 9.961-1.77 9.965 1.77"/><path fill="none" stroke="#000" stroke-miterlimit="10" stroke-width=".399" d="m94.465 42.672 2.82-2.817m-2.82 0 2.82 2.817"/></svg>