<svg xmlns="http://www.w3.org/2000/svg" width="257.538" height="30.962"><defs><clipPath id="a"><path d="M0 0h35v30.941H0Zm0 0"/></clipPath><clipPath id="b"><path d="M52 0h40v30.941H52Zm0 0"/></clipPath><clipPath id="c"><path d="M108 0h41v30.941h-41Zm0 0"/></clipPath><clipPath id="d"><path d="M109 0h39v30.941h-39Zm0 0"/></clipPath><clipPath id="e"><path d="M165 0h41v30.941h-41Zm0 0"/></clipPath><clipPath id="f"><path d="M222 0h35.309v30.941H222Zm0 0"/></clipPath></defs><g clip-path="url(#a)"><path fill="none" stroke="#00F" stroke-dasharray="2.98883 2.98883" stroke-miterlimit="10" stroke-width=".399" d="M29.324 15.57c0-7.828-6.344-14.175-14.172-14.175S.977 7.742.977 15.57s6.347 14.172 14.175 14.172 14.172-6.344 14.172-14.172Zm0 0"/></g><path fill="none" stroke="#000" stroke-miterlimit="10" stroke-width=".399" d="M15.152 1.395 2.875 22.656h24.55Zm0 0"/><g clip-path="url(#b)"><path fill="none" stroke="#00F" stroke-dasharray="2.98883 2.98883" stroke-miterlimit="10" stroke-width=".399" d="M86.02 15.57c0-7.828-6.348-14.175-14.176-14.175S57.672 7.742 57.672 15.57s6.344 14.172 14.172 14.172S86.02 23.398 86.02 15.57Zm0 0"/></g><path fill="none" stroke="#000" stroke-miterlimit="10" stroke-width=".399" d="M81.867 5.547H61.824V25.59h20.043Zm0 0"/><g clip-path="url(#c)"><path fill="none" stroke="#00F" stroke-dasharray="2.98883 2.98883" stroke-miterlimit="10" stroke-width=".399" d="M142.71 15.57c0-7.828-6.343-14.175-14.17-14.175-7.83 0-14.177 6.347-14.177 14.175s6.348 14.172 14.176 14.172 14.172-6.344 14.172-14.172Zm0 0"/></g><g clip-path="url(#d)"><path fill="none" stroke="#000" stroke-miterlimit="10" stroke-width=".399" d="m128.54 1.395-13.481 9.793 5.148 15.847h16.66l5.153-15.847Zm0 0"/></g><g fill="none" stroke-miterlimit="10" stroke-width=".399" clip-path="url(#e)"><path stroke="#00F" stroke-dasharray="2.98883 2.98883" d="M199.406 15.57c0-7.828-6.347-14.175-14.176-14.175S171.06 7.742 171.06 15.57s6.343 14.172 14.171 14.172c7.829 0 14.176-6.344 14.176-14.172Zm0 0"/><path stroke="#000" d="M192.32 3.293h-14.175l-7.086 12.277 7.086 12.274h14.175l7.086-12.274Zm0 0"/></g><g fill="none" stroke-miterlimit="10" stroke-width=".399" clip-path="url(#f)"><path stroke="#00F" stroke-dasharray="2.98883 2.98883" d="M256.098 15.57c0-7.828-6.344-14.175-14.172-14.175S227.75 7.742 227.75 15.57s6.348 14.172 14.176 14.172 14.172-6.344 14.172-14.172Zm0 0"/><path stroke="#000" d="m241.926 1.395-11.082 5.34-2.735 11.988 7.668 9.617h12.297l7.668-9.617-2.738-11.989Zm0 0"/></g></svg>