<svg xmlns="http://www.w3.org/2000/svg" xmlns:xlink="http://www.w3.org/1999/xlink" width="118.055" height="199.834"><defs><path id="b" d="M5.984-2.219c0-1.328-.937-2.265-2.39-2.265-.719 0-1.219.28-1.453.484v-2.922l-1.766.078v.469c.61 0 .688 0 .688.39V0h.468c.157-.187.328-.375.485-.562.078.078.562.625 1.453.625 1.484 0 2.515-.907 2.515-2.282m-1.28 0c0 .469 0 1.016-.25 1.406-.298.407-.75.516-1.079.516-.687 0-1.078-.547-1.187-.687v-2.5c.28-.36.75-.641 1.296-.641 1.22 0 1.22 1.203 1.22 1.906m0 0"/><path id="c" d="M4.766-1.172c0-.14-.141-.14-.235-.14-.187 0-.187.03-.25.156-.25.625-.734.812-1.234.812-1.39 0-1.39-1.453-1.39-1.922 0-.562 0-1.843 1.28-1.843.36 0 .516.015.657.046a.62.62 0 0 0-.203.47c0 .437.343.624.609.624.313 0 .64-.219.64-.625 0-.86-1.156-.922-1.734-.922C1.11-4.516.375-3.375.375-2.219.375-.89 1.313.063 2.844.063c1.625 0 1.922-1.157 1.922-1.235m0 0"/><path id="d" d="M4.922-1.172c0-.172-.188-.172-.234-.172-.172 0-.188.047-.25.203-.204.485-.782.797-1.422.797-1.407 0-1.422-1.328-1.422-1.828h3.015c.22 0 .313 0 .313-.265 0-.313-.063-1.047-.563-1.547-.359-.36-.89-.532-1.578-.532C1.187-4.516.313-3.484.313-2.25c0 1.344 1 2.313 2.609 2.313 1.578 0 2-1.063 2-1.235M3.984-2.5h-2.39c.015-.39.031-.812.234-1.14.266-.391.672-.516.953-.516 1.172 0 1.188 1.312 1.203 1.656m0 0"/><path id="e" d="M4.36-6.11c0-.421-.36-.874-1.141-.874-.969 0-2.047.422-2.047 1.547v1.015h-.75v.469h.75V-.47H.484V0l1.25-.031c.375 0 1.016 0 1.375.031v-.469H2.25v-3.484h1.14v-.469H2.188v-1.016c0-1.093.75-1.187 1-1.187.047 0 .11 0 .172.031a.59.59 0 0 0-.234.485c0 .422.36.609.61.609.296 0 .624-.203.624-.61m0 0"/><path id="f" d="M5.984 0v-.469c-.609 0-.687 0-.687-.39v-6.063l-1.766.078v.469c.625 0 .703 0 .703.39v1.954a2.18 2.18 0 0 0-1.359-.453c-1.453 0-2.5.875-2.5 2.28 0 1.313.922 2.267 2.39 2.267.61 0 1.094-.235 1.407-.485v.485ZM4.172-1.031c-.14.187-.547.734-1.297.734-1.219 0-1.219-1.203-1.219-1.906 0-.485 0-1.016.25-1.406.297-.422.766-.516 1.078-.516.563 0 .97.313 1.188.61Zm0 0"/><path id="g" d="M5.25-1.797c0-.547-.297-1.406-1.734-1.719.687-.203 1.406-.765 1.406-1.625 0-.765-.75-1.39-2.156-1.39-1.188 0-1.97.64-1.97 1.437 0 .422.313.703.688.703a.67.67 0 0 0 .704-.687c0-.578-.547-.688-.579-.703.344-.282.782-.36 1.094-.36.828 0 .86.641.86.97 0 .124-.016 1.437-1.047 1.5-.407.015-.438.015-.485.03-.094.016-.125.11-.125.172 0 .172.11.172.282.172h.437c1.094 0 1.094.985 1.094 1.5 0 .469 0 1.485-1.031 1.485-.266 0-.782-.047-1.266-.344C1.75-.75 2-1 2-1.406c0-.453-.312-.75-.75-.75-.422 0-.766.265-.766.765 0 .907.97 1.5 2.25 1.5 1.782 0 2.516-1 2.516-1.906m0 0"/><path id="h" d="M5.406 0v-.469h-.968v-1.094h.968v-.468h-.968V-6.22c0-.265-.016-.328-.297-.328-.22 0-.22.016-.344.172L.313-2.031v.469h2.875V-.47h-1.11V0c.375-.031 1.281-.031 1.703-.031.406 0 1.266 0 1.625.031m-2.11-2.031H.845L3.297-5.11Zm0 0"/><path id="i" d="M5.156-2c0-1.156-.797-2.078-2.265-2.078-.282 0-.813.031-1.282.344v-1.313c.282.047.391.078.72.078 1.452 0 2.374-1.125 2.374-1.375 0-.078-.016-.187-.14-.187-.032 0-.032 0-.141.047a4.3 4.3 0 0 1-1.531.28c-.75 0-1.282-.202-1.547-.28-.094-.032-.094-.047-.125-.047-.14 0-.14.11-.14.265v2.922c0 .172 0 .297.218.297.125 0 .156-.031.219-.11.39-.468.922-.562 1.328-.562.89 0 .89.875.89 1.672 0 .735 0 1.735-1.187 1.735-.25 0-.875-.063-1.297-.625.36-.016.656-.266.656-.672 0-.532-.437-.672-.672-.672-.14 0-.671.094-.671.703 0 .844.78 1.687 2.015 1.687C4.172.11 5.156-.78 5.156-2m0 0"/><path id="j" d="M5.25-2.047c0-1.39-1.016-2.125-2.219-2.125-.219 0-.781 0-1.203.766v-.188c0-1.14.219-1.562.281-1.719.25-.468.782-.828 1.391-.828.172 0 .516.032.75.266a.595.595 0 0 0-.547.61c0 .343.235.624.625.624s.625-.265.625-.64c0-.625-.422-1.25-1.469-1.25-1.359 0-3 .86-3 3.375 0 .781.079 1.578.5 2.265.47.766 1.22 1 1.922 1C4.281.11 5.25-.703 5.25-2.047m-1.36-.015c0 1 0 1.75-1.015 1.75-.516 0-.781-.391-.86-.563-.156-.312-.156-1.031-.156-1.219 0-1.25.532-1.719 1.079-1.719.953 0 .953.75.953 1.75m0 0"/><path id="k" d="M3.813-1.234v-.532h-.47v.516c0 .672-.327.906-.609.906-.578 0-.578-.64-.578-.86v-2.75h1.469v-.468H2.156v-1.906h-.469c0 1-.484 1.984-1.484 2.016v.359h.828v2.734c0 1.063.86 1.282 1.578 1.282.75 0 1.204-.579 1.204-1.297m0 0"/><path id="l" d="M4.406-3.672c0-.531-.531-.812-1.062-.812-.688 0-1.094.5-1.313 1.125v-1.125l-1.656.078v.468c.61 0 .688 0 .688.391v3.078H.375V0l1.25-.031C2-.031 2.641-.031 3 0v-.469h-.86v-1.75c0-.687.235-1.906 1.235-1.906 0 0-.187.172-.187.453 0 .406.328.61.609.61.297 0 .61-.204.61-.61m0 0"/><path id="m" d="M5.156-2.219h-.468c-.032.203-.125.844-.266.906-.11.063-.86.063-1.016.063H1.937c.47-.39 1-.812 1.438-1.14 1.14-.844 1.781-1.313 1.781-2.25 0-1.157-1.047-1.891-2.437-1.891-1.219 0-2.156.625-2.156 1.515 0 .594.484.735.718.735C1.61-4.281 2-4.5 2-5c0-.516-.422-.672-.562-.719.28-.234.671-.343 1.03-.343.845 0 1.313.671 1.313 1.421 0 .688-.375 1.375-1.078 2.079l-2 2.046c-.14.11-.14.141-.14.344V0h4.28Zm0 0"/><path id="n" d="M5.516-.234c0-.235-.125-.235-.266-.235-.61-.015-.61-.14-.61-.375v-2.14c0-.891-.702-1.532-2.187-1.532-.562 0-1.781.047-1.781.922 0 .438.344.625.61.625.312 0 .624-.219.624-.625 0-.297-.187-.469-.218-.5a5 5 0 0 1 .718-.062c.75 0 1.11.422 1.11 1.172v.343c-.72.032-3.25.125-3.25 1.563C.266-.125 1.5.062 2.188.062c.796 0 1.265-.406 1.484-.828 0 .313 0 .766 1.047.766h.468c.204 0 .329 0 .329-.234m-2-1.157c0 .97-.922 1.094-1.172 1.094-.516 0-.906-.344-.906-.797 0-1.062 1.578-1.203 2.078-1.234Zm0 0"/><path id="o" d="M4.922 0v-.469h-1.39v-5.734c0-.234 0-.328-.266-.328-.11 0-.125 0-.22.078-.765.562-1.796.562-2 .562H.845v.47h.203c.156 0 .703-.016 1.297-.204v5.156H.954V0c.437-.031 1.5-.031 1.984-.031s1.546 0 1.984.031m0 0"/><clipPath id="a"><path d="M108 85h9.582v23H108Zm0 0"/></clipPath></defs><path fill="none" stroke="#000" stroke-miterlimit="10" stroke-width=".399" d="m3.484 92.223.235 11.535"/><path fill="none" stroke="#000" stroke-linecap="round" stroke-linejoin="round" stroke-miterlimit="10" stroke-width=".39898803000000005" d="M6.074 101.836c-1.43.41-2.09 1.266-2.347 2.121-.297-.844-.993-1.672-2.434-2.023"/><path fill="none" stroke="#000" stroke-miterlimit="10" stroke-width=".399" d="m9.914 114.633 18.34 14.12"/><path fill="none" stroke="#000" stroke-linecap="round" stroke-linejoin="round" stroke-miterlimit="10" stroke-width=".39898005000000003" d="M28.23 125.715c-.578 1.37-.32 2.422.184 3.16-.844-.297-1.926-.273-3.102.629"/><g clip-path="url(#a)"><path fill="none" stroke="#000" stroke-miterlimit="10" stroke-width=".399" d="m114.055 102.164-.086-10.668"/></g><path fill="none" stroke="#000" stroke-linecap="round" stroke-linejoin="round" stroke-miterlimit="10" stroke-width=".39898005000000003" d="M111.594 93.387c1.433-.387 2.101-1.239 2.375-2.09.285.848.968 1.687 2.406 2.055"/><path fill="none" stroke="#000" stroke-miterlimit="10" stroke-width=".399" d="M108.645 79.875 89.5 64.547"/><path fill="none" stroke="#000" stroke-linecap="round" stroke-linejoin="round" stroke-miterlimit="10" stroke-width=".39897606" d="M89.469 67.582c.597-1.355.363-2.41-.125-3.16.836.312 1.918.312 3.113-.57"/><path fill="none" stroke="#000" stroke-miterlimit="10" stroke-width=".399" d="m49.145 138.707-7.075 14.148"/><path fill="none" stroke="#000" stroke-linecap="round" stroke-linejoin="round" stroke-miterlimit="10" stroke-width=".39896808000000006" d="M45.047 152.246c-1.453-.3-2.434.152-3.067.785.133-.883-.097-1.941-1.21-2.922"/><path fill="none" stroke="#000" stroke-miterlimit="10" stroke-width=".399" d="m56.152 138.707 7.098 14.195"/><path fill="none" stroke="#000" stroke-linecap="round" stroke-linejoin="round" stroke-miterlimit="10" stroke-width=".39896808000000006" d="M64.55 150.16c-1.112.98-1.343 2.035-1.21 2.922-.633-.637-1.613-1.086-3.067-.785"/><path fill="none" stroke="#000" stroke-miterlimit="10" stroke-width=".399" d="m63.426 166.836-7.18 14.363"/><path fill="none" stroke="#000" stroke-linecap="round" stroke-linejoin="round" stroke-miterlimit="10" stroke-width=".39896808000000006" d="M59.219 180.594c-1.45-.301-2.434.148-3.063.785.13-.887-.097-1.942-1.21-2.922"/><path fill="none" stroke="#000" stroke-miterlimit="10" stroke-width=".399" d="m70.215 166.836 7.183 14.363"/><path fill="none" stroke="#000" stroke-linecap="round" stroke-linejoin="round" stroke-miterlimit="10" stroke-width=".39896808000000006" d="M78.7 178.457c-1.114.98-1.345 2.035-1.212 2.922-.633-.637-1.613-1.086-3.066-.785"/><path fill="none" stroke="#000" stroke-miterlimit="10" stroke-width=".399" d="m90.898 127.18 16.75-13.868"/><path fill="none" stroke="#000" stroke-linecap="round" stroke-linejoin="round" stroke-miterlimit="10" stroke-width=".39897207" d="M104.68 112.664c1.207.863 2.289.848 3.12.52-.476.757-.695 1.816-.07 3.164"/><path fill="none" stroke="#000" stroke-miterlimit="10" stroke-width=".399" d="m55.844 38.047-7.7 15.398"/><path fill="none" stroke="#000" stroke-linecap="round" stroke-linejoin="round" stroke-miterlimit="10" stroke-width=".39896808000000006" d="M51.121 52.84c-1.453-.3-2.437.148-3.066.785.129-.887-.098-1.941-1.211-2.922"/><path fill="none" stroke="#000" stroke-miterlimit="10" stroke-width=".399" d="m61.648 38.047 7.704 15.398"/><path fill="none" stroke="#000" stroke-linecap="round" stroke-linejoin="round" stroke-miterlimit="10" stroke-width=".39897606" d="M70.652 50.703c-1.113.98-1.343 2.035-1.21 2.922-.633-.637-1.614-1.086-3.067-.785"/><path fill="none" stroke="#000" stroke-miterlimit="10" stroke-width=".399" d="m28.555 64.605-18.203 14.88"/><path fill="none" stroke="#000" stroke-linecap="round" stroke-linejoin="round" stroke-miterlimit="10" stroke-width=".39898005000000003" d="M13.316 80.152c-1.203-.87-2.28-.863-3.117-.543.48-.754.707-1.812.09-3.16"/><use xlink:href="#b" x=".159" y="88.643"/><use xlink:href="#c" x="1.302" y="112.19"/><use xlink:href="#d" x="111.472" y="110.195"/><use xlink:href="#e" x="112.162" y="87.578"/><use xlink:href="#f" x="49.464" y="135.128"/><use xlink:href="#g" x="35.609" y="163.255"/><use xlink:href="#h" x="63.956" y="163.315"/><use xlink:href="#i" x="49.782" y="191.601"/><use xlink:href="#j" x="78.129" y="191.601"/><path fill="none" stroke="#000" stroke-miterlimit="10" stroke-width=".399" d="M28.77 198.55H90.7v-91.124H28.77Zm0 0"/><use xlink:href="#k" x="32.09" y="119.115"/><use xlink:href="#l" x="36.543" y="119.115"/><use xlink:href="#d" x="41.265" y="119.115"/><use xlink:href="#d" x="46.515" y="119.115"/><use xlink:href="#m" x="55.083" y="119.115"/><use xlink:href="#n" x="55.962" y="34.467"/><use xlink:href="#o" x="41.709" y="63.849"/><use xlink:href="#m" x="70.055" y="63.849"/><path fill="none" stroke="#000" stroke-miterlimit="10" stroke-width=".399" d="M97.54 39.926c0-21.426-17.368-38.793-38.794-38.793S19.953 18.5 19.953 39.926 37.32 78.723 58.746 78.723 97.54 61.352 97.54 39.926Zm0 0"/><use xlink:href="#k" x="38.188" y="20.855"/><use xlink:href="#l" x="42.642" y="20.855"/><use xlink:href="#d" x="47.364" y="20.855"/><use xlink:href="#d" x="52.614" y="20.855"/><use xlink:href="#o" x="61.182" y="20.855"/></svg>