<svg xmlns="http://www.w3.org/2000/svg" width="114.572" height="60.716"><path fill="#7F7FFF" d="M59.488 30.219c0-16.207-13.136-29.344-29.34-29.344C13.941.875.805 14.012.805 30.219S13.94 59.563 30.148 59.563c16.204 0 29.34-13.137 29.34-29.344M113.348 30.219c0-8.38-6.79-15.168-15.168-15.168-8.38 0-15.172 6.789-15.172 15.168S89.8 45.387 98.18 45.387s15.168-6.79 15.168-15.168m0 0"/><path fill="#7F7FFF" d="M54.695 16.047a28.35 28.35 0 0 1 0 28.344c3.543-6.137 10.887-11.336 17.973-11.336v-5.672c-7.086 0-14.43-5.2-17.973-11.336m17.973 17.008h4.25v-5.672h-4.25Zm13.238-9.922a14.17 14.17 0 0 0 0 14.172c-1.773-3.067-5.445-4.25-8.988-4.25v-5.672c3.543 0 7.215-1.184 8.988-4.25m0 0"/></svg>