<svg xmlns="http://www.w3.org/2000/svg" xmlns:xlink="http://www.w3.org/1999/xlink" width="226.928" height="146.936"><defs><path id="a" d="M3.89-2.547c0-.844-.078-1.36-.343-1.875-.344-.703-1-.875-1.438-.875-1 0-1.375.75-1.484.969C.344-3.75.328-2.953.328-2.547c0 .531.016 1.328.406 1.969.36.594.954.75 1.375.75.391 0 1.063-.125 1.47-.906.296-.578.312-1.297.312-1.813M2.11-.062c-.266 0-.813-.125-.985-.954-.094-.453-.094-1.203-.094-1.625 0-.546 0-1.109.094-1.546.172-.813.781-.891.984-.891.266 0 .829.14.985.86.094.437.094 1.046.094 1.577 0 .47 0 1.188-.094 1.641-.172.828-.719.938-.985.938m0 0"/><path id="k" d="M1.11-4.484c.109.03.421.125.765.125 1 0 1.594-.703 1.594-.828 0-.094-.047-.11-.094-.11-.016 0-.031 0-.094.031a3 3 0 0 1-1.11.22c-.468 0-.858-.11-1.108-.22-.079-.03-.094-.03-.11-.03-.094 0-.094.077-.094.234v2.328c0 .14 0 .234.125.234.063 0 .079-.031.125-.094.094-.11.391-.515 1.079-.515.437 0 .656.359.734.515.125.281.14.656.14.953s0 .735-.218 1.079c-.156.25-.485.484-.906.484A1.27 1.27 0 0 1 .734-.922c.016.016.079.016.079.016.218 0 .406-.14.406-.39a.39.39 0 0 0-.39-.407c-.157 0-.407.078-.407.422 0 .718.625 1.453 1.531 1.453 1 0 1.844-.781 1.844-1.766 0-.922-.672-1.75-1.61-1.75-.39 0-.765.125-1.078.406Zm0 0"/><path id="l" d="M2.5-5.078c0-.219-.016-.219-.234-.219-.328.313-.75.5-1.5.5v.266c.218 0 .64 0 1.109-.203v4.078c0 .297-.031.39-.781.39H.812V0c.329-.031 1.016-.031 1.376-.031s1.046 0 1.374.031v-.266h-.28c-.75 0-.782-.093-.782-.39Zm0 0"/><path id="m" d="M2.25-1.625c.125-.125.453-.39.594-.5.484-.453.953-.89.953-1.61 0-.953-.797-1.562-1.781-1.562-.97 0-1.594.719-1.594 1.438 0 .39.312.437.422.437.172 0 .422-.11.422-.422 0-.406-.407-.406-.5-.406.234-.594.765-.781 1.156-.781.734 0 1.125.625 1.125 1.297 0 .828-.578 1.437-1.531 2.39l-1 1.047C.422-.219.422-.203.422 0h3.14l.235-1.422h-.25c-.016.156-.078.547-.172.703-.047.063-.656.063-.781.063H1.172Zm0 0"/><path id="b" d="M2.14-3.797c0-.187-.015-.187-.203-.187-.39.39-1 .39-1.218.39v.235c.156 0 .562 0 .922-.172v3.015c0 .204 0 .282-.625.282h-.25V0c.328-.031.797-.031 1.125-.031s.797 0 1.125.031v-.234h-.25c-.625 0-.625-.078-.625-.282Zm0 0"/><path id="c" d="M3.219-1.125H3c-.016.094-.078.484-.156.547-.047.047-.531.047-.625.047h-1.11l.766-.625c.203-.172.734-.547.922-.735.172-.171.422-.484.422-.906 0-.75-.672-1.187-1.485-1.187-.765 0-1.296.515-1.296 1.078 0 .297.25.344.312.344a.32.32 0 0 0 .328-.329c0-.125-.078-.328-.344-.328.141-.297.5-.531.922-.531.625 0 .953.469.953.953 0 .422-.28.86-.687 1.25L.5-.25C.438-.187.438-.187.438 0H3.03Zm0 0"/><path id="e" d="M.969-1.984c.015-.297.031-.797.234-1.157.266-.468.656-.64 1.016-.64.14 0 .422.015.562.187-.219.047-.265.188-.265.297 0 .156.109.281.297.281.171 0 .28-.109.28-.296 0-.376-.265-.672-.874-.672-.938 0-1.844.812-1.844 2.093 0 1.454.672 2.016 1.469 2.016.234 0 .64-.031 1-.39.203-.188.422-.422.422-.954 0-.203-.016-.593-.375-.922-.22-.203-.485-.406-.985-.406-.422 0-.734.219-.937.563m.875 1.89C1-.094 1-1.125 1-1.359c0-.5.328-1 .875-1 .313 0 .484.125.625.312.172.235.172.516.172.828 0 .407-.016.61-.219.86-.14.172-.328.265-.61.265m0 0"/><path id="f" d="M3.375-.984v-.235h-.703v-2.64c0-.141 0-.188-.14-.188-.11 0-.126.031-.173.094L.281-1.22v.235h1.86V-.5c0 .188 0 .266-.5.266h-.188V0c.125 0 .688-.031.953-.031.266 0 .828.031.938.031v-.234h-.172c-.5 0-.5-.078-.5-.266v-.484ZM2.172-3.391v2.172H.532Zm0 0"/><path id="g" d="M1.766-1.984c.5 0 .843.343.843.953 0 .656-.39.937-.828.937C1.61-.094 1-.125.734-.469c.235-.031.329-.187.329-.343a.33.33 0 0 0-.344-.344.34.34 0 0 0-.344.36c0 .593.656.921 1.422.921.89 0 1.469-.562 1.469-1.156 0-.438-.328-.907-1.047-1.078.484-.157.86-.547.86-1.032 0-.484-.563-.843-1.282-.843-.703 0-1.234.328-1.234.812 0 .266.203.328.328.328.156 0 .312-.094.312-.312 0-.188-.125-.297-.297-.313.282-.312.828-.312.89-.312.298 0 .688.14.688.64 0 .329-.187.907-.796.938-.11 0-.266.015-.313.015-.062.016-.125.016-.125.11s.063.094.156.094Zm0 0"/><path id="h" d="M1.016-3.328c.203.062.406.078.609.078.14 0 .469 0 .844-.203.11-.063.469-.313.469-.438 0-.078-.047-.093-.079-.093-.015 0-.015 0-.093.03a2.5 2.5 0 0 1-.907.173c-.296 0-.609-.063-.89-.156q-.07-.047-.094-.047c-.094 0-.094.078-.094.172v1.796c0 .094 0 .172.11.172.062 0 .078-.031.109-.078.156-.187.422-.39.89-.39.735 0 .735.89.735 1.078 0 .234-.016.578-.219.828a.95.95 0 0 1-.719.312C1.281-.094.86-.312.72-.672c.297 0 .328-.234.328-.297a.304.304 0 0 0-.313-.312.303.303 0 0 0-.296.328C.438-.406.953.125 1.703.125c.828 0 1.516-.578 1.516-1.328A1.3 1.3 0 0 0 1.89-2.5c-.375 0-.688.125-.875.281Zm0 0"/><path id="i" d="M3.422-3.61c.047-.062.047-.078.047-.25H1.922c-.234 0-.39 0-.625-.015-.281-.016-.36-.031-.39-.172h-.22L.47-2.734h.219c.03-.125.078-.485.171-.547.047-.031.563-.031.657-.031h1.343c-.062.078-.375.468-.53.64-.579.703-.985 1.547-.985 2.453 0 .063 0 .344.297.344.28 0 .28-.281.28-.36V-.39c0-1.156.25-1.734.548-2.093Zm0 0"/><path id="d" d="M2.266-2.906h.906c-.156.719-.297 1.312-.297 1.906 0 .047 0 .39.078.688.11.328.188.39.328.39.172 0 .36-.156.36-.344 0-.046 0-.062-.032-.14-.171-.36-.296-.75-.296-1.406 0-.172 0-.516.124-1.094h.97c.124 0 .202 0 .28-.063a.31.31 0 0 0 .125-.25c0-.219-.203-.219-.328-.219H1.61c-.171 0-.484 0-.875.391-.28.281-.5.64-.5.703 0 .078.047.094.11.094.094 0 .11-.016.156-.078.39-.578.86-.578 1.031-.578H2c-.234.844-.656 1.812-.953 2.39C1-.39.922-.234.922-.172c0 .172.125.25.25.25.312 0 .39-.297.562-.953Zm0 0"/><path id="j" d="M1.625-.437a.463.463 0 0 0-.453-.454.447.447 0 0 0-.438.438.44.44 0 0 0 .438.453.45.45 0 0 0 .453-.437m0 0"/><path id="n" d="M2.719-5.734c0-.22 0-.235-.219-.235-.562.563-1.39.563-1.672.563v.281c.172 0 .719 0 1.203-.234v4.64c0 .328-.015.438-.86.438h-.28V0c.312-.031 1.125-.031 1.484-.031.375 0 1.172 0 1.5.031v-.281h-.281c-.844 0-.875-.11-.875-.438Zm0 0"/><path id="o" d="M6.328-2.047c.125 0 .313 0 .313-.203 0-.187-.172-.187-.313-.187H3.781V-5c0-.14 0-.312-.203-.312-.187 0-.187.187-.187.312v2.563H.828c-.125 0-.312 0-.312.187 0 .203.172.203.312.203h2.563V.516c0 .14 0 .312.203.312.187 0 .187-.187.187-.312v-2.563Zm0 0"/><path id="p" d="M3.078-3.781c0-.156 0-.235-.094-.235-.046 0-.062 0-.187.11-.016.015-.094.094-.156.14-.266-.203-.547-.25-.86-.25-1.187 0-1.468.657-1.468 1.11 0 .281.125.515.328.719.297.28.64.343 1.093.421.47.094.61.11.813.266.094.078.312.25.312.578 0 .797-.906.797-1.03.797-.907 0-1.141-.766-1.25-1.25-.032-.094-.048-.14-.141-.14-.125 0-.125.077-.125.234v1.14c0 .157 0 .235.093.235.063 0 .063 0 .235-.172a1.2 1.2 0 0 1 .172-.219c.375.375.796.39 1.015.39 1.11 0 1.485-.64 1.485-1.234 0-.406-.172-.656-.376-.859-.296-.297-.624-.36-1.28-.484-.235-.047-.891-.157-.891-.672 0-.281.203-.672 1.015-.672.969 0 1.032.75 1.047.969.016.109.016.172.125.172.125 0 .125-.063.125-.235Zm0 0"/><path id="q" d="m1.656-3.969-1.297.11v.265c.579 0 .657.063.657.5v2.407c0 .406-.094.406-.688.406V0c.39-.016.594-.031.984-.031.141 0 .516 0 .954.031v-.281c-.578 0-.61-.047-.61-.39Zm.016-1.562a.477.477 0 0 0-.484-.485.497.497 0 0 0-.485.485c0 .265.219.484.485.484a.47.47 0 0 0 .484-.484m0 0"/><path id="r" d="M1.672-2.328c0-.953.672-1.406 1.234-1.406.531 0 .64.437.64.968v2.079c0 .406-.093.406-.687.406V0c.422-.016.594-.031 1.032-.031.422 0 .547.015 1.015.031v-.281c-.453 0-.687 0-.687-.281v-1.72c0-.734 0-1-.25-1.312-.203-.25-.547-.375-1-.375-.828 0-1.219.625-1.344.875h-.016v-.875l-1.296.11v.265c.609 0 .687.063.687.516v2.39C1-.28.906-.28.313-.28V0c.421-.016.593-.031 1.03-.031.423 0 .548.015 1.016.031v-.281c-.593 0-.687 0-.687-.406Zm0 0"/><path id="u" d="M3.266-3.531c-.188.047-.375.172-.375.422a.42.42 0 0 0 .422.422c.234 0 .421-.157.421-.438 0-.547-.625-.89-1.421-.89-1.141 0-2 .952-2 2.077C.313-.78 1.234.095 2.297.095c1.25 0 1.531-1.078 1.531-1.156 0-.11-.094-.11-.125-.11-.094 0-.094.016-.156.172-.203.61-.703.844-1.156.844-.578 0-1.313-.469-1.313-1.797 0-1.39.719-1.813 1.25-1.813.125 0 .61.016.938.235m0 0"/><path id="v" d="M4.344-1.906c0-1.172-.938-2.11-2.032-2.11-1.14 0-2.046.954-2.046 2.11 0 1.11.922 2 2.03 2 1.142 0 2.048-.906 2.048-2M2.312-.156c-.453 0-.828-.219-1.03-.563-.235-.39-.25-.86-.25-1.265 0-.344 0-.844.218-1.22a1.22 1.22 0 0 1 1.047-.593c.515 0 .875.297 1.062.594.204.375.204.828.204 1.219 0 .328 0 .843-.22 1.234a1.18 1.18 0 0 1-1.03.594m0 0"/><path id="s" d="M4.406-2.11c0-1.328-.812-1.859-1.578-1.859-1.219 0-2.437 1.25-2.437 2.532 0 .921.625 1.53 1.5 1.53.968 0 1.703-.562 1.937-.75.11.454.406.75.844.75.484 0 .781-.468.781-.624 0-.11-.094-.11-.125-.11-.094 0-.11.047-.14.125-.094.25-.329.391-.485.391-.297 0-.297-.797-.297-.984 0-.11 0-.125.094-.235.14-.187.39-.5.625-.953.266-.531.406-1.078.406-1.125 0-.015 0-.11-.11-.11-.109 0-.109.032-.155.173-.094.312-.297 1-.86 1.75ZM3.781-.921c-.234.203-.953.797-1.875.797-.5 0-.828-.328-.828-.984 0-.375.172-1.266.531-1.844.235-.36.704-.781 1.22-.781.608 0 .796.53.89 1.078.062.484.015 1.344.062 1.734m0 0"/><clipPath id="t"><path d="M40 133h38v13.902H40Zm0 0"/></clipPath><clipPath id="w"><path d="M108 133h38v13.902h-38Zm0 0"/></clipPath></defs><path fill="none" stroke="#BFBFBF" stroke-miterlimit="10" stroke-width=".399" d="M136.04 113.09c0-12.719-10.313-23.031-23.032-23.031s-23.031 10.312-23.035 23.03"/><path fill="none" stroke="#BFBFBF" stroke-miterlimit="10" stroke-width=".399" d="M159.07 113.09c0-25.438-20.625-46.063-46.062-46.063-25.438 0-46.063 20.625-46.067 46.063"/><path fill="none" stroke="#BFBFBF" stroke-miterlimit="10" stroke-width=".399" d="M182.102 113.09c0-38.16-30.934-69.094-69.094-69.094-38.156 0-69.094 30.938-69.098 69.094"/><path fill="none" stroke="#BFBFBF" stroke-miterlimit="10" stroke-width=".399" d="M205.133 113.09c0-50.88-41.246-92.125-92.125-92.125-50.875 0-92.125 41.25-92.13 92.125M113.008 113.09h92.125M113.008 113.09l88.984-23.84M113.008 113.09l79.781-46.063M113.008 113.09l65.14-65.14M113.008 113.09l46.062-79.781M113.008 113.09l23.844-88.985M113.008 113.09V20.965M113.008 113.09 89.164 24.105M113.008 113.09 66.945 33.309M113.008 113.09l-65.14-65.145M113.008 113.09 33.223 67.027M113.008 113.09 24.02 89.246M113.008 113.09h-92.13"/><path fill="none" stroke="#7F7F7F" stroke-linecap="round" stroke-miterlimit="10" stroke-width=".399" d="M210.113 113.09h1.992M206.805 87.96l1.925-.515M197.102 64.54l1.726-.997M181.672 44.43l1.406-1.41M161.559 28.992l.996-1.722M138.14 19.293l.516-1.922M113.008 15.984v-1.992M87.875 19.293l-.516-1.926M64.453 28.992l-.996-1.722M44.344 44.426l-1.41-1.41M28.91 64.535l-1.726-.996M19.207 87.957l-1.926-.516M15.898 113.09h-1.992M113.008 120.066v-1.992M136.04 120.066v-1.992M159.07 120.066v-1.992M182.102 120.066v-1.992M205.133 120.066v-1.992M89.973 118.07v1.993M66.941 118.07v1.993M43.91 118.07v1.993M20.879 118.07v1.993"/><path fill="none" stroke="#BFBFBF" stroke-linecap="square" stroke-miterlimit="10" stroke-width=".399" d="M205.133 113.09c0-50.88-41.246-92.125-92.125-92.125-50.875 0-92.125 41.25-92.13 92.125"/><path fill="none" stroke="#7F7F7F" stroke-linecap="square" stroke-miterlimit="10" stroke-width=".399" d="M210.113 113.09c0-53.633-43.476-97.106-97.105-97.106-53.625 0-97.106 43.48-97.11 97.106"/><path fill="none" stroke="#BFBFBF" stroke-linecap="square" stroke-miterlimit="10" stroke-width=".399" d="M113.008 113.09h92.125"/><path fill="none" stroke="#7F7F7F" stroke-linecap="square" stroke-miterlimit="10" stroke-width=".399" d="M113.008 118.074h92.125"/><path fill="none" stroke="#BFBFBF" stroke-linecap="square" stroke-miterlimit="10" stroke-width=".399" d="M113.008 113.09h-92.13"/><path fill="none" stroke="#7F7F7F" stroke-linecap="square" stroke-miterlimit="10" stroke-width=".399" d="m113.008 118.074-92.13-.004"/><path fill="none" stroke="#C414CC" stroke-miterlimit="10" stroke-width=".598" d="M205.133 113.09s-.54-8.719-1.184-11.969c-.648-3.25-2.215-8.422-3.472-11.465s-3.793-7.761-5.602-10.472-5.16-6.793-7.426-9.067c-2.27-2.273-6.293-5.558-8.906-7.308s-7.098-4.137-9.93-5.317c-2.836-1.18-7.57-2.597-10.492-3.187-2.922-.586-7.684-1.043-10.562-1.051-2.875-.008-7.461.465-10.172.996s-6.93 1.828-9.367 2.832c-2.438 1-6.13 2.996-8.211 4.379-2.082 1.379-5.13 3.91-6.797 5.562-1.668 1.653-4 4.54-5.227 6.352-1.226 1.816-2.828 4.867-3.613 6.73s-1.672 4.899-2.047 6.707c-.371 1.81-.621 4.665-.633 6.325-.015 1.66.266 4.203.54 5.648.277 1.445.956 3.578 1.433 4.758.472 1.184 1.402 2.852 1.984 3.746.582.898 1.61 2.094 2.207 2.711.598.621 1.574 1.375 2.106 1.746s1.328.758 1.726.938c.395.18.914.3 1.125.355.207.055.39.05.39.05"/><path fill="none" stroke="#1450CC" stroke-miterlimit="10" stroke-width=".598" d="M159.07 113.09s4.184-4.711 5.563-6.793 3.379-5.774 4.379-8.211 2.3-6.652 2.832-9.363c.531-2.711 1.008-7.297 1-10.176-.008-2.875-.461-7.64-1.051-10.563-.586-2.918-2.004-7.656-3.184-10.488-1.18-2.836-3.562-7.316-5.316-9.93-1.75-2.617-5.035-6.64-7.305-8.906-2.273-2.27-6.351-5.625-9.062-7.433-2.711-1.809-7.43-4.344-10.473-5.602s-8.215-2.828-11.465-3.473c-3.25-.648-8.648-1.187-11.968-1.187-3.325 0-8.72.539-11.973 1.183-3.25.645-8.418 2.211-11.465 3.47-3.043 1.257-7.762 3.792-10.473 5.597-2.71 1.808-6.796 5.16-9.07 7.426-2.27 2.265-5.555 6.289-7.309 8.902-1.753 2.613-4.136 7.098-5.316 9.93-1.184 2.836-2.602 7.57-3.191 10.492-.59 2.922-1.043 7.683-1.051 10.562-.008 2.88.465 7.465.992 10.176.531 2.711 1.828 6.926 2.828 9.363 1 2.442 3 6.13 4.38 8.215 1.378 2.082 5.562 6.797 5.562 6.797"/><use xlink:href="#a" x="214.761" y="115.659"/><use xlink:href="#b" x="214.405" y="78.405"/><path fill="none" stroke="#000" stroke-miterlimit="10" stroke-width=".359" d="M212.578 79.672h7.309"/><use xlink:href="#b" x="212.579" y="84.789"/><use xlink:href="#c" x="216.232" y="84.789"/><use xlink:href="#d" x="221.08" y="81.663"/><use xlink:href="#b" x="202.679" y="54.502"/><path fill="none" stroke="#000" stroke-miterlimit="10" stroke-width=".359" d="M202.68 55.77h3.652"/><use xlink:href="#e" x="202.679" y="60.886"/><use xlink:href="#d" x="207.527" y="57.761"/><use xlink:href="#b" x="186.93" y="33.98"/><path fill="none" stroke="#000" stroke-miterlimit="10" stroke-width=".359" d="M186.93 35.246h3.652"/><use xlink:href="#f" x="186.93" y="40.364"/><use xlink:href="#d" x="191.778" y="37.238"/><use xlink:href="#b" x="166.407" y="18.229"/><path fill="none" stroke="#000" stroke-miterlimit="10" stroke-width=".359" d="M166.406 19.496h3.653"/><use xlink:href="#g" x="166.407" y="24.613"/><use xlink:href="#d" x="171.255" y="21.488"/><use xlink:href="#h" x="144.333" y="8.331"/><path fill="none" stroke="#000" stroke-miterlimit="10" stroke-width=".359" d="M142.508 9.598h7.304"/><use xlink:href="#b" x="142.506" y="14.715"/><use xlink:href="#c" x="146.159" y="14.715"/><use xlink:href="#d" x="151.007" y="11.589"/><use xlink:href="#b" x="108.606" y="4.952"/><path fill="none" stroke="#000" stroke-miterlimit="10" stroke-width=".359" d="M108.605 6.219h3.653"/><use xlink:href="#c" x="108.606" y="11.336"/><use xlink:href="#d" x="113.455" y="8.211"/><use xlink:href="#i" x="72.88" y="8.329"/><path fill="none" stroke="#000" stroke-miterlimit="10" stroke-width=".359" d="M71.055 9.594h7.304"/><use xlink:href="#b" x="71.054" y="14.713"/><use xlink:href="#c" x="74.707" y="14.713"/><use xlink:href="#d" x="79.555" y="11.588"/><use xlink:href="#c" x="50.805" y="18.229"/><path fill="none" stroke="#000" stroke-miterlimit="10" stroke-width=".359" d="M50.805 19.496h3.652"/><use xlink:href="#g" x="50.805" y="24.613"/><use xlink:href="#d" x="55.654" y="21.488"/><use xlink:href="#g" x="30.283" y="33.977"/><path fill="none" stroke="#000" stroke-miterlimit="10" stroke-width=".359" d="M30.281 35.242h3.657"/><use xlink:href="#f" x="30.283" y="40.361"/><use xlink:href="#d" x="35.131" y="37.235"/><use xlink:href="#h" x="14.532" y="54.499"/><path fill="none" stroke="#000" stroke-miterlimit="10" stroke-width=".359" d="M14.531 55.766h3.653"/><use xlink:href="#e" x="14.532" y="60.883"/><use xlink:href="#d" x="19.381" y="57.758"/><use xlink:href="#b" x=".978" y="78.4"/><use xlink:href="#b" x="4.631" y="78.4"/><path fill="none" stroke="#000" stroke-miterlimit="10" stroke-width=".359" d="M.977 79.664h7.308"/><use xlink:href="#b" x=".978" y="84.784"/><use xlink:href="#c" x="4.631" y="84.784"/><use xlink:href="#d" x="9.479" y="81.659"/><use xlink:href="#d" x="6.102" y="114.804"/><use xlink:href="#a" x="110.889" y="127.857"/><use xlink:href="#a" x="130.627" y="127.857"/><use xlink:href="#j" x="134.861" y="127.857"/><use xlink:href="#k" x="137.213" y="127.857"/><use xlink:href="#l" x="156.951" y="127.857"/><use xlink:href="#l" x="176.69" y="127.857"/><use xlink:href="#j" x="180.924" y="127.857"/><use xlink:href="#k" x="183.276" y="127.857"/><use xlink:href="#m" x="203.014" y="127.857"/><use xlink:href="#a" x="84.564" y="127.856"/><use xlink:href="#j" x="88.798" y="127.856"/><use xlink:href="#k" x="91.151" y="127.856"/><use xlink:href="#l" x="64.826" y="127.856"/><use xlink:href="#l" x="38.502" y="127.855"/><use xlink:href="#j" x="42.736" y="127.855"/><use xlink:href="#k" x="45.088" y="127.855"/><use xlink:href="#m" x="18.764" y="127.854"/><use xlink:href="#n" x="73.874" y="145.075"/><use xlink:href="#o" x="80.526" y="145.075"/><use xlink:href="#p" x="89.738" y="145.075"/><use xlink:href="#q" x="93.373" y="145.075"/><use xlink:href="#r" x="95.933" y="145.075"/><use xlink:href="#s" x="102.596" y="145.075"/><g clip-path="url(#t)"><path fill="none" stroke="#1450CC" stroke-miterlimit="10" stroke-width=".598" d="M48.973 142.863s2.906-1.511 4.98-1.328c2.074.188 7.89 2.473 9.961 2.656 2.074.184 4.984-1.328 4.984-1.328"/></g><use xlink:href="#n" x="141.68" y="145.075"/><use xlink:href="#o" x="148.332" y="145.075"/><use xlink:href="#u" x="157.544" y="145.075"/><use xlink:href="#v" x="161.64" y="145.075"/><use xlink:href="#p" x="166.248" y="145.075"/><use xlink:href="#s" x="171.425" y="145.075"/><g clip-path="url(#w)"><path fill="none" stroke="#C414CC" stroke-miterlimit="10" stroke-width=".598" d="M116.777 142.863s2.907-1.511 4.98-1.328c2.075.188 7.891 2.473 9.966 2.656s4.98-1.328 4.98-1.328"/></g></svg>