<svg xmlns="http://www.w3.org/2000/svg" xmlns:xlink="http://www.w3.org/1999/xlink" width="108.794" height="106.076"><defs><path id="b" d="M5.563-1.812c.14 0 .312 0 .312-.172 0-.188-.172-.188-.312-.188H1c-.125 0-.297 0-.297.188 0 .172.172.172.297.172Zm0 0"/><path id="c" d="M2.5-5.078c0-.219-.016-.219-.234-.219-.328.313-.75.5-1.5.5v.266c.218 0 .64 0 1.109-.203v4.078c0 .297-.031.39-.781.39H.812V0c.329-.031 1.016-.031 1.376-.031s1.046 0 1.374.031v-.266h-.28c-.75 0-.782-.093-.782-.39Zm0 0"/><path id="d" d="M3.89-2.547c0-.844-.078-1.36-.343-1.875-.344-.703-1-.875-1.438-.875-1 0-1.375.75-1.484.969C.344-3.75.328-2.953.328-2.547c0 .531.016 1.328.406 1.969.36.594.954.75 1.375.75.391 0 1.063-.125 1.47-.906.296-.578.312-1.297.312-1.813M2.11-.062c-.266 0-.813-.125-.985-.954-.094-.453-.094-1.203-.094-1.625 0-.546 0-1.109.094-1.546.172-.813.781-.891.984-.891.266 0 .829.14.985.86.094.437.094 1.046.094 1.577 0 .47 0 1.188-.094 1.641-.172.828-.719.938-.985.938m0 0"/><path id="f" d="M1.11-4.484c.109.03.421.125.765.125 1 0 1.594-.703 1.594-.828 0-.094-.047-.11-.094-.11-.016 0-.031 0-.094.031a3 3 0 0 1-1.11.22c-.468 0-.858-.11-1.108-.22-.079-.03-.094-.03-.11-.03-.094 0-.094.077-.094.234v2.328c0 .14 0 .234.125.234.063 0 .079-.031.125-.094.094-.11.391-.515 1.079-.515.437 0 .656.359.734.515.125.281.14.656.14.953s0 .735-.218 1.079c-.156.25-.485.484-.906.484A1.27 1.27 0 0 1 .734-.922c.016.016.079.016.079.016.218 0 .406-.14.406-.39a.39.39 0 0 0-.39-.407c-.157 0-.407.078-.407.422 0 .718.625 1.453 1.531 1.453 1 0 1.844-.781 1.844-1.766 0-.922-.672-1.75-1.61-1.75-.39 0-.765.125-1.078.406Zm0 0"/><path id="g" d="M2.25-1.625c.125-.125.453-.39.594-.5.484-.453.953-.89.953-1.61 0-.953-.797-1.562-1.781-1.562-.97 0-1.594.719-1.594 1.438 0 .39.312.437.422.437.172 0 .422-.11.422-.422 0-.406-.407-.406-.5-.406.234-.594.765-.781 1.156-.781.734 0 1.125.625 1.125 1.297 0 .828-.578 1.437-1.531 2.39l-1 1.047C.422-.219.422-.203.422 0h3.14l.235-1.422h-.25c-.016.156-.078.547-.172.703-.047.063-.656.063-.781.063H1.172Zm0 0"/><path id="e" d="M1.625-.437a.463.463 0 0 0-.453-.454.447.447 0 0 0-.438.438.44.44 0 0 0 .438.453.45.45 0 0 0 .453-.437m0 0"/><clipPath id="a"><path d="M99 0h9.691v10H99Zm0 0"/></clipPath></defs><path fill="none" stroke="#7F7F7F" stroke-linecap="round" stroke-miterlimit="10" stroke-width=".399" d="M35.258 96.656v-1.992M63.605 96.656v-1.992M91.95 96.656v-1.992M14.11 89.68h1.992M14.11 70.215h1.992M14.11 50.75h1.992M14.11 31.285h1.992M14.11 11.82h1.992"/><path fill="none" stroke="#7F7F7F" stroke-miterlimit="10" stroke-width=".399" d="M21.086 94.664h85.039"/><path fill="none" stroke="#BFBFBF" stroke-linecap="square" stroke-miterlimit="10" stroke-width=".399" d="M21.086 89.68h85.039M21.086 2.09h85.039"/><path fill="none" stroke="#7F7F7F" stroke-miterlimit="10" stroke-width=".399" d="M16.102 89.68V2.09"/><path fill="none" stroke="#BFBFBF" stroke-linecap="square" stroke-miterlimit="10" stroke-width=".399" d="M21.086 89.68V2.09M106.125 89.68V2.09"/><path fill="none" stroke="#000" stroke-miterlimit="10" stroke-width=".399" d="M19.676 3.5 22.492.68m-2.816 0 2.816 2.82M33.848 52.16l2.82-2.816m-2.82 0 2.82 2.816M48.023 81.36l2.817-2.82m-2.817 0 2.817 2.82M62.195 91.09l2.817-2.817m-2.817 0 2.817 2.817M76.367 81.36l2.82-2.82m-2.82 0 2.82 2.82M90.543 52.16l2.816-2.816m-2.816 0 2.816 2.816"/><g clip-path="url(#a)"><path fill="none" stroke="#000" stroke-miterlimit="10" stroke-width=".399" d="M104.715 3.5 107.53.68m-2.816 0 2.816 2.82"/></g><use xlink:href="#b" x="29.847" y="104.447"/><use xlink:href="#c" x="36.433" y="104.447"/><use xlink:href="#d" x="61.486" y="104.447"/><use xlink:href="#c" x="89.832" y="104.447"/><use xlink:href="#d" x="7.22" y="92.249"/><use xlink:href="#d" x=".633" y="72.785"/><use xlink:href="#e" x="4.867" y="72.785"/><use xlink:href="#f" x="7.22" y="72.785"/><use xlink:href="#c" x="7.22" y="53.32"/><use xlink:href="#c" x=".633" y="33.856"/><use xlink:href="#e" x="4.867" y="33.856"/><use xlink:href="#f" x="7.22" y="33.856"/><use xlink:href="#g" x="7.22" y="14.391"/></svg>