<svg xmlns="http://www.w3.org/2000/svg" width="60.722" height="68.762"><defs><clipPath id="a"><path d="M0 0h60.582v68.645H0Zm0 0"/></clipPath></defs><g clip-path="url(#a)"><path fill="none" stroke="#090" stroke-miterlimit="10" stroke-width=".399" d="m1.047 67.55 1.266-2.706v-2.989m0 2.989 1.261-2.711 2.29-1.918m-2.29 1.918v-2.988l-1.261-2.707m1.261 2.707v-2.989l1.262-2.707m-1.262 8.684 1.262-2.707v-2.988m0 2.988 1.266-2.711 2.289-1.918M6.1 56.715l2.29-1.918 1.261-2.711m-1.261 2.71 2.289-1.921 2.886-.773m-7.464 4.613v-2.988L4.836 51.02m1.266 2.707v-2.989l1.261-2.707m-1.261 2.707-1.266-2.707-2.29-1.922m2.29 1.922-1.262-2.71v-2.989m2.528 8.406V47.75l-1.266-2.707m1.266 2.707v-2.988l1.261-2.711m-1.261 2.71 1.261-2.71v-2.988m0 2.988 1.262-2.707 2.293-1.922M6.102 56.715l1.261-2.707V51.02m0 2.988L8.625 51.3l2.293-1.922M8.625 51.3v-2.992l-1.262-2.707m1.262 2.707V45.32l1.266-2.707m-1.266 8.688 1.266-2.711v-2.988m0 2.988 1.261-2.707 2.29-1.922m-2.29 1.922 2.29-1.922 1.265-2.711m-1.266 2.71 2.29-1.92 2.89-.774m-7.469 4.617 2.29-1.922 1.265-2.711m-1.266 2.71 2.29-1.92 2.89-.774m-2.89.773 1.265-2.707V36.34m0 2.992 1.262-2.71 2.289-1.923m-4.817 7.34 2.293-1.922 1.262-2.707m-1.262 2.707 2.29-1.922 2.886-.773m-2.887.773 2.887-.773 2.29-1.918m-2.29 1.918 2.887-.774 2.941.52m-17.875 8.715v-2.988l-1.261-2.711m1.261 2.71v-2.992l1.266-2.707m-1.266 2.707-1.261-2.707-2.29-1.922m2.29 1.922-1.266-2.71v-2.989m2.527 8.406v-2.988l-1.261-2.707m1.261 2.707v-2.988l1.266-2.707m-1.266 2.707 1.266-2.707V28.23m0 2.989 1.262-2.711 2.289-1.922m-4.817 7.34-1.261-2.707-2.29-1.922m2.29 1.922-1.266-2.711V25.52m0 2.988-2.29-1.922-2.886-.773m2.887.773-2.29-1.918-1.26-2.711m5.839 6.55-1.262-2.706-2.289-1.922m2.29 1.922L6.101 23.09v-2.988m0 2.988v-2.988l-1.266-2.707m1.266 2.707v-2.989l1.261-2.707m3.79 19.52v-2.988L9.89 28.23m1.261 2.708v-2.989l1.266-2.71m-1.266 2.71-1.261-2.71L7.6 23.32m2.29 1.918-1.266-2.707v-2.988m2.527 8.406v-2.988L9.891 22.25m1.261 2.71v-2.987l1.266-2.711m-1.266 2.71 1.266-2.71v-2.989m0 2.989 1.262-2.707 2.289-1.922m-4.817 7.34 1.266-2.711v-2.989m0 2.989 1.262-2.707 2.289-1.922m-2.29 1.922v-2.992l-1.261-2.708m1.262 2.708v-2.989l1.261-2.707m-1.261 8.688 1.261-2.711v-2.989m0 2.989 1.266-2.707 2.29-1.922m-2.29 1.922 2.29-1.922 1.26-2.711m-1.26 2.71 2.288-1.921 2.887-.773m-12.52 39.363 1.266-2.711v-2.988m0 2.988 1.262-2.707 2.289-1.922m-2.29 1.922v-2.988l-1.261-2.711m1.262 2.71v-2.992l1.261-2.707m-1.261 8.688 1.261-2.711v-2.988m0 2.988 1.266-2.707 2.29-1.922m-2.29 1.922 2.29-1.922 1.26-2.707m-1.26 2.707 2.288-1.922 2.887-.773m-7.465 4.617v-2.988l-1.266-2.711m1.266 2.71V29.07l1.262-2.71m-1.262 2.71-1.266-2.71-2.289-1.922m2.29 1.921-1.262-2.707v-2.988m2.527 8.406v-2.992l-1.266-2.707m1.266 2.707V23.09l1.262-2.707m-1.262 2.707 1.262-2.707v-2.988m0 2.988 1.261-2.711 2.293-1.918m-4.816 19.293 1.262-2.711v-2.988m0 2.988 1.261-2.707 2.293-1.922m-2.293 1.922V26.64L17.47 23.93m1.261 2.71v-2.988l1.266-2.71m-1.266 8.687 1.266-2.711V23.93m0 2.988 1.262-2.707 2.289-1.922m-2.29 1.922 2.29-1.922 1.265-2.707m-1.265 2.707 2.289-1.922 2.887-.773m-7.465 4.617 2.289-1.922 1.265-2.707m-1.265 2.707 2.289-1.922 2.887-.773m-2.887.773 1.266-2.707v-2.988m0 2.988 1.261-2.71 2.29-1.919m-4.817 7.336 2.293-1.918 1.262-2.71m-1.262 2.71 2.289-1.922 2.887-.773m-2.887.773 2.887-.773 2.289-1.922m-2.29 1.922 2.887-.774 2.942.52m-17.875 8.71 2.289-1.92 1.265-2.708m-1.265 2.707 2.289-1.922 2.887-.773m-2.887.773 1.266-2.707v-2.988m0 2.988 1.261-2.71 2.29-1.919m-4.817 7.336 2.293-1.918 1.262-2.71m-1.262 2.71 2.289-1.922 2.887-.773m-2.887.773 2.887-.773 2.289-1.922m-2.29 1.922 2.887-.774 2.942.52m-8.715 1.027 1.262-2.71v-2.989m0 2.988 1.261-2.707 2.293-1.921m-2.293 1.921V8.121l-1.261-2.71m1.261 2.71V5.133l1.266-2.711m-1.266 8.687 1.266-2.71V5.41m0 2.988 1.262-2.707 2.289-1.921m-2.29 1.921 2.29-1.921 1.265-2.707M37.758 3.77l2.289-1.922 2.887-.774M30.418 16.527l2.289-1.922 1.262-2.71m-1.262 2.71 2.29-1.921 2.886-.774m-2.887.774 1.262-2.707V6.984m0 2.993 1.265-2.711 2.29-1.922m-4.817 7.34 2.29-1.922 1.26-2.707m-1.26 2.707 2.288-1.922 2.887-.774m-2.887.774 2.887-.774 2.289-1.918m-2.29 1.918 2.888-.773 2.945.52M39.574 8.84l2.887-.774 2.289-1.918m-2.29 1.918 2.888-.773 2.945.52m-2.945-.52 2.293-1.918 1.261-2.71m-1.261 2.71 2.289-1.922 2.886-.773m-7.468 4.613 2.886-.773 2.293-1.918M48.234 6.52l2.891-.774 2.941.52m-2.941-.52 2.941.52 2.887-.774m-2.887.774 2.946.52L59.457 8.5"/></g></svg>