<svg xmlns="http://www.w3.org/2000/svg" width="87.932" height="59.276"><defs><clipPath id="a"><path d="M0 0h87.898v58.914H0Zm0 0"/></clipPath><clipPath id="b"><path d="M59 0h28.898v58.914H59Zm0 0"/></clipPath><clipPath id="c"><path d="M51 5h28v53.914H51Zm0 0"/></clipPath></defs><path fill="none" stroke="#7F7F7F" stroke-miterlimit="10" stroke-width=".199" d="M1.563 57.637h85.039M1.562 29.293h85.04M1.562.953h85.04M1.562 57.637V.945m28.344 56.692V.945m28.348 56.692V.945M86.59 57.637V.945"/><g clip-path="url(#a)"><path fill="none" stroke="#000" stroke-miterlimit="10" stroke-width=".399" d="M1.563 29.293 86.602.945 72.43 57.637Zm0 0"/></g><path fill="none" stroke="red" stroke-miterlimit="10" stroke-width=".399" d="M1.563 29.293 74.93 47.629"/><g clip-path="url(#b)"><path fill="none" stroke="#FF7F00" stroke-miterlimit="10" stroke-width=".399" d="M86.602.945 65.09 54.703"/></g><g clip-path="url(#c)"><path fill="none" stroke="#00F" stroke-miterlimit="10" stroke-width=".399" d="m72.43 57.637-15.598-46.77"/></g></svg>