<svg xmlns="http://www.w3.org/2000/svg" xmlns:xlink="http://www.w3.org/1999/xlink" width="92.708" height="152.75"><defs><path id="a" d="M4.922 0v-.469h-1.39v-5.734c0-.234 0-.328-.266-.328-.11 0-.125 0-.22.078-.765.562-1.796.562-2 .562H.845v.47h.203c.156 0 .703-.016 1.297-.204v5.156H.954V0c.437-.031 1.5-.031 1.984-.031s1.546 0 1.984.031m0 0"/><path id="b" d="M5.156-2.219h-.468c-.032.203-.125.844-.266.906-.11.063-.86.063-1.016.063H1.937c.47-.39 1-.812 1.438-1.14 1.14-.844 1.781-1.313 1.781-2.25 0-1.157-1.047-1.891-2.437-1.891-1.219 0-2.156.625-2.156 1.515 0 .594.484.735.718.735C1.61-4.281 2-4.5 2-5c0-.516-.422-.672-.562-.719.28-.234.671-.343 1.03-.343.845 0 1.313.671 1.313 1.421 0 .688-.375 1.375-1.078 2.079l-2 2.046c-.14.11-.14.141-.14.344V0h4.28Zm0 0"/><path id="c" d="M5.25-1.797c0-.547-.297-1.406-1.734-1.719.687-.203 1.406-.765 1.406-1.625 0-.765-.75-1.39-2.156-1.39-1.188 0-1.97.64-1.97 1.437 0 .422.313.703.688.703a.67.67 0 0 0 .704-.687c0-.578-.547-.688-.579-.703.344-.282.782-.36 1.094-.36.828 0 .86.641.86.97 0 .124-.016 1.437-1.047 1.5-.407.015-.438.015-.485.03-.094.016-.125.11-.125.172 0 .172.11.172.282.172h.437c1.094 0 1.094.985 1.094 1.5 0 .469 0 1.485-1.031 1.485-.266 0-.782-.047-1.266-.344C1.75-.75 2-1 2-1.406c0-.453-.312-.75-.75-.75-.422 0-.766.265-.766.765 0 .907.97 1.5 2.25 1.5 1.782 0 2.516-1 2.516-1.906m0 0"/><path id="d" d="M5.406 0v-.469h-.968v-1.094h.968v-.468h-.968V-6.22c0-.265-.016-.328-.297-.328-.22 0-.22.016-.344.172L.313-2.031v.469h2.875V-.47h-1.11V0c.375-.031 1.281-.031 1.703-.031.406 0 1.266 0 1.625.031m-2.11-2.031H.845L3.297-5.11Zm0 0"/><path id="e" d="M5.156-2c0-1.156-.797-2.078-2.265-2.078-.282 0-.813.031-1.282.344v-1.313c.282.047.391.078.72.078 1.452 0 2.374-1.125 2.374-1.375 0-.078-.016-.187-.14-.187-.032 0-.032 0-.141.047a4.3 4.3 0 0 1-1.531.28c-.75 0-1.282-.202-1.547-.28-.094-.032-.094-.047-.125-.047-.14 0-.14.11-.14.265v2.922c0 .172 0 .297.218.297.125 0 .156-.031.219-.11.39-.468.922-.562 1.328-.562.89 0 .89.875.89 1.672 0 .735 0 1.735-1.187 1.735-.25 0-.875-.063-1.297-.625.36-.016.656-.266.656-.672 0-.532-.437-.672-.672-.672-.14 0-.671.094-.671.703 0 .844.78 1.687 2.015 1.687C4.172.11 5.156-.78 5.156-2m0 0"/><path id="f" d="M5.25-2.047c0-1.39-1.016-2.125-2.219-2.125-.219 0-.781 0-1.203.766v-.188c0-1.14.219-1.562.281-1.719.25-.468.782-.828 1.391-.828.172 0 .516.032.75.266a.595.595 0 0 0-.547.61c0 .343.235.624.625.624s.625-.265.625-.64c0-.625-.422-1.25-1.469-1.25-1.359 0-3 .86-3 3.375 0 .781.079 1.578.5 2.265.47.766 1.22 1 1.922 1C4.281.11 5.25-.703 5.25-2.047m-1.36-.015c0 1 0 1.75-1.015 1.75-.516 0-.781-.391-.86-.563-.156-.312-.156-1.031-.156-1.219 0-1.25.532-1.719 1.079-1.719.953 0 .953.75.953 1.75m0 0"/></defs><path fill="none" stroke="#000" stroke-miterlimit="10" stroke-width=".399" d="M31.223 19.117v5.668c1.379.238 2.488-.082 2.488-.535 0-.457-1.11-.773-2.488-.54-1.383.24-2.493 1.028-2.493 1.958 0 .926 1.11 1.715 2.493 1.953 1.379.234 2.488-.082 2.488-.539 0-.453-1.11-.77-2.488-.535-1.383.238-2.493 1.027-2.493 1.953 0 .93 1.11 1.719 2.493 1.953 1.379.238 2.488-.078 2.488-.535 0-.453-1.11-.773-2.488-.535-1.383.234-2.493 1.027-2.493 1.953s1.11 1.719 2.493 1.953c1.379.238 2.488-.082 2.488-.535 0-.457-1.11-.774-2.488-.54-1.383.24-2.493 1.028-2.493 1.958 0 .926 1.11 1.715 2.493 1.953 1.379.234 2.488-.082 2.488-.535 0-.457-1.11-.774-2.488-.54-1.383.24-2.493 1.028-2.493 1.954 0 .93 1.11 1.719 2.493 1.957v5.414M33.086 62.61l1.144 5.554c1.403-.05 2.426-.586 2.333-1.031-.09-.445-1.243-.531-2.547-.02-1.305.508-2.23 1.508-2.043 2.414.187.91 1.433 1.461 2.832 1.41 1.402-.046 2.422-.582 2.332-1.027-.094-.445-1.242-.535-2.547-.023-1.309.511-2.235 1.511-2.043 2.418.187.906 1.43 1.457 2.832 1.41s2.422-.586 2.332-1.031c-.094-.446-1.242-.532-2.547-.02-1.309.512-2.234 1.508-2.047 2.418.188.906 1.434 1.457 2.836 1.406 1.402-.047 2.422-.582 2.332-1.027-.094-.445-1.242-.531-2.55-.023-1.305.511-2.231 1.511-2.044 2.417.188.91 1.434 1.457 2.836 1.41 1.403-.046 2.422-.581 2.328-1.027-.09-.445-1.242-.535-2.546-.023-1.305.512-2.23 1.508-2.043 2.418.187.906 1.433 1.457 2.836 1.41 1.398-.05 2.421-.586 2.328-1.031-.09-.446-1.242-.532-2.547-.02-1.305.508-2.23 1.508-2.043 2.418.187.906 1.433 1.457 2.832 1.406 1.402-.046 2.426-.582 2.332-1.027s-1.242-.535-2.547-.023c-1.305.511-2.23 1.511-2.043 2.418.188.91 1.43 1.457 2.832 1.41s2.422-.582 2.332-1.031c-.094-.446-1.242-.532-2.547-.02l.934 4.52M25.172 60.535l-3.723 4.274c.887 1.086 1.93 1.574 2.23 1.23.298-.34-.327-1.309-1.527-2.039s-2.55-.863-3.16-.164c-.61.7-.293 2.023.594 3.11l-3.64 4.179M33.309 94.754l-4.618-3.29c-.996.99-1.378 2.079-1.007 2.34.37.266 1.273-.452 1.882-1.714.61-1.266.606-2.625-.148-3.164s-2.043-.094-3.035.894c-.996.989-1.38 2.078-1.008 2.34.371.266 1.273-.453 1.883-1.715.61-1.265.605-2.625-.149-3.164s-2.043-.094-3.035.895c-.996.988-1.379 2.078-1.008 2.34.372.265 1.27-.454 1.88-1.715.609-1.266.609-2.625-.145-3.164-.758-.54-2.043-.094-3.035.894l-4.364-3.105M38.215 108.973l-1.61 5.437c1.262.617 2.415.63 2.543.192.13-.438-.843-1.055-2.238-1.22-1.39-.167-2.68.278-2.941 1.165-.262.89.578 1.965 1.836 2.582s2.41.629 2.539.191c.129-.437-.844-1.054-2.235-1.222-1.394-.164-2.68.28-2.945 1.168-.262.89.578 1.96 1.836 2.582 1.258.617 2.41.629 2.54.191.128-.437-.845-1.055-2.235-1.223-1.395-.164-2.68.282-2.942 1.168-.265.891.575 1.961 1.832 2.582 1.258.618 2.414.625 2.543.192.13-.438-.843-1.055-2.238-1.223-1.39-.164-2.68.278-2.941 1.168-.262.89.574 1.961 1.836 2.578 1.257.621 2.41.63 2.539.196.129-.438-.844-1.059-2.239-1.223-1.39-.164-2.675.277-2.941 1.168-.262.89.578 1.96 1.836 2.578 1.258.621 2.41.629 2.539.191.129-.433-.844-1.054-2.234-1.218-1.395-.164-2.68.277-2.946 1.168-.262.886.578 1.96 1.836 2.578 1.258.62 2.41.629 2.54.191.128-.433-.845-1.055-2.235-1.219l-1.192 4.024M49.324 103.762l5.207 2.242c.762-1.18.91-2.324.492-2.504-.418-.176-1.148.715-1.476 2.078-.332 1.363-.043 2.695.808 3.059.852.367 2.016-.34 2.782-1.516.761-1.176.906-2.32.488-2.5s-1.148.715-1.477 2.078c-.328 1.364-.039 2.692.813 3.059s2.016-.34 2.777-1.516c.766-1.176.91-2.32.492-2.5-.417-.18-1.148.711-1.476 2.074-.328 1.364-.043 2.696.809 3.063.855.363 2.019-.34 2.78-1.52.762-1.175.91-2.32.493-2.5s-1.148.715-1.48 2.079c-.329 1.363-.04 2.69.812 3.058s2.016-.34 2.777-1.516c.766-1.175.91-2.32.493-2.5s-1.149.711-1.477 2.075c-.328 1.363-.04 2.695.812 3.062s2.016-.34 2.778-1.515c.761-1.18.91-2.32.492-2.5s-1.148.71-1.477 2.074c-.328 1.363-.043 2.695.809 3.058.852.368 2.016-.34 2.781-1.515.762-1.176.906-2.32.489-2.5s-1.145.715-1.477 2.078l4.86 2.086"/><path fill="#7F7FFF" d="M40.234 9.906a9.014 9.014 0 1 0-18.027 0c0 4.977 4.035 9.012 9.016 9.012a9.01 9.01 0 0 0 9.011-9.012m0 0"/><use xlink:href="#a" x="28.357" y="13.168" fill="#FFF"/><path fill="#7F7FFF" d="M40.234 53.59a9.014 9.014 0 1 0-18.027 0c0 4.976 4.035 9.012 9.016 9.012a9.01 9.01 0 0 0 9.011-9.012m0 0"/><use xlink:href="#b" x="28.357" y="56.851" fill="#FFF"/><path fill="#7F7FFF" d="M49.871 100.113c0-4.992-4.047-9.039-9.035-9.039a9.039 9.039 0 1 0 0 18.078c4.988 0 9.035-4.047 9.035-9.039m0 0"/><use xlink:href="#c" x="37.97" y="103.32" fill="#FFF"/><path fill="#7F7FFF" d="M18.91 78.078a9.02 9.02 0 0 0-18.039 0 9.02 9.02 0 0 0 18.04 0m0 0"/><use xlink:href="#d" x="7.027" y="81.345" fill="#FFF"/><path fill="#7F7FFF" d="M37.32 142.574a9.039 9.039 0 1 0-18.078 0 9.039 9.039 0 1 0 18.078 0m0 0"/><use xlink:href="#e" x="25.416" y="145.782" fill="#FFF"/><path fill="#7F7FFF" d="M91.555 118.031a9.039 9.039 0 1 0-18.078 0 9.039 9.039 0 1 0 18.078 0m0 0"/><use xlink:href="#f" x="79.65" y="121.24" fill="#FFF"/></svg>