<svg xmlns="http://www.w3.org/2000/svg" width="30.772" height="35.534"><path fill="none" stroke="#000" stroke-miterlimit="10" stroke-width=".399" d="M.895 3.355h27.949"/><path fill="none" stroke="#000" stroke-linecap="round" stroke-linejoin="round" stroke-miterlimit="10" stroke-width=".399" d="M26.969.965c.379 1.437 1.222 2.113 2.074 2.39-.852.282-1.695.958-2.074 2.395"/><path fill="none" stroke="#000" stroke-miterlimit="10" stroke-width=".399" d="M.895 17.531h27.949"/><path fill="none" stroke="#000" stroke-linecap="round" stroke-linejoin="round" stroke-miterlimit="10" stroke-width=".399" d="M-2.073 2.39C-1.693.956-.851.28 0 0c-.85-.278-1.694-.958-2.074-2.391" transform="matrix(1 0 .5 -1 29.043 17.53)"/><path fill="none" stroke="#000" stroke-miterlimit="10" stroke-width=".399" d="M.895 31.703h27.949"/><path fill="none" stroke="#000" stroke-linecap="round" stroke-linejoin="round" stroke-miterlimit="10" stroke-width=".399" d="M-2.07 2.392C-1.697.958-.849.278 0 0-.848-.28-1.696-.956-2.075-2.39" transform="matrix(1 0 1 -1 29.043 31.704)"/></svg>