<svg xmlns="http://www.w3.org/2000/svg" xmlns:xlink="http://www.w3.org/1999/xlink" width="87.439" height="59.092"><defs><clipPath id="e"><path d="M.918.746h42.52v56.692H.917Zm0 0"/></clipPath><clipPath id="a"><path d="M0 0h29v29H0z"/></clipPath><clipPath id="g"><path d="M43.438.746h42.519v56.692h-42.52Zm0 0"/></clipPath><clipPath id="c"><path d="M0 0h29v29H0z"/></clipPath><pattern id="f" width="29" height="29" x="0" y="0" patternTransform="matrix(.97748 0 0 -.97748 -143.28 13608.547)" patternUnits="userSpaceOnUse"><use xlink:href="#b"/></pattern><pattern id="h" width="29" height="29" x="0" y="0" patternTransform="matrix(.97748 0 0 -.97748 -143.28 13608.547)" patternUnits="userSpaceOnUse"><use xlink:href="#d"/></pattern><g id="b" clip-path="url(#a)"><path d="M26.102 14.5 5.117 21.316 18.086 3.47V25.53L5.117 7.684Zm0 0"/></g><g id="d" clip-path="url(#c)"><path fill="red" d="M26.102 14.5 5.117 21.316 18.086 3.47V25.53L5.117 7.684Zm0 0"/></g></defs><g clip-path="url(#e)"><path fill="url(#f)" d="M.918 57.438h42.52V.742H.917Zm0 0"/></g><path fill="none" stroke="#000" stroke-miterlimit="10" stroke-width=".399" d="M.918 57.438V.745h42.52v56.692Zm0 0"/><g clip-path="url(#g)"><path fill="url(#h)" d="M43.438 57.438h42.519V.742h-42.52Zm0 0"/></g><path fill="none" stroke="#000" stroke-miterlimit="10" stroke-width=".399" d="M43.438 57.438V.745h42.519v56.692Zm0 0"/></svg>