<svg xmlns="http://www.w3.org/2000/svg" width="59.119" height="186.68"><defs><clipPath id="a"><path d="M0 0h58.68v64H0Zm0 0"/></clipPath><clipPath id="b"><path d="M0 59h58.68v69H0Zm0 0"/></clipPath><clipPath id="c"><path d="M0 122h58.68v64.52H0Zm0 0"/></clipPath></defs><g clip-path="url(#a)"><path fill="none" stroke="#000" stroke-miterlimit="10" stroke-width=".399" d="M29.125 1.059c3.145 0 28.344 25.199 28.344 28.343 0 3.149-25.2 28.348-28.344 28.348-3.148 0-28.348-25.2-28.348-28.348 0-3.144 25.2-28.343 28.348-28.343Zm0 0"/></g><g clip-path="url(#b)"><path fill="none" stroke="#000" stroke-miterlimit="10" stroke-width=".399" d="M29.125 64.836c7.863 0 28.344 20.48 28.344 28.348s-20.48 28.347-28.344 28.347c-7.867 0-28.348-20.48-28.348-28.347s20.48-28.348 28.348-28.348Zm0 0"/></g><g clip-path="url(#c)"><path fill="none" stroke="#000" stroke-miterlimit="10" stroke-width=".399" d="M29.125 128.617a28.247 28.247 0 0 1 28.344 28.348 28.25 28.25 0 0 1-28.344 28.347A28.25 28.25 0 0 1 .777 156.966a28.25 28.25 0 0 1 28.348-28.348Zm0 0"/></g></svg>