<svg xmlns="http://www.w3.org/2000/svg" xmlns:xlink="http://www.w3.org/1999/xlink" width="97.094" height="61.418"><defs><path id="b" d="M5.719-2.031c0-1.094-.797-1.906-1.719-2.094l-1.437-.312c-.407-.094-.954-.422-.954-1.032 0-.437.282-1.047 1.266-1.047.797 0 1.813.329 2.047 1.688.031.25.031.266.234.266.25 0 .25-.047.25-.282v-1.828c0-.187 0-.281-.187-.281-.078 0-.078.016-.188.11l-.453.437C4-6.86 3.344-6.953 2.875-6.953c-1.516 0-2.234.969-2.234 2.016 0 .64.328 1.093.53 1.312.5.5.829.563 1.923.797.875.203 1.047.219 1.265.437.141.141.391.407.391.86 0 .484-.25 1.172-1.297 1.172-.75 0-2.265-.203-2.344-1.688-.015-.172-.015-.219-.234-.219-.234 0-.234.047-.234.282v1.812C.64.016.64.11.813.11.906.11.922.094 1 .016l.469-.453c.656.484 1.578.546 1.984.546C5.11.11 5.72-1.016 5.72-2.03m0 0"/><path id="c" d="M5.516-.234c0-.235-.125-.235-.266-.235-.61-.015-.61-.14-.61-.375v-2.14c0-.891-.702-1.532-2.187-1.532-.562 0-1.781.047-1.781.922 0 .438.344.625.61.625.312 0 .624-.219.624-.625 0-.297-.187-.469-.218-.5a5 5 0 0 1 .718-.062c.75 0 1.11.422 1.11 1.172v.343c-.72.032-3.25.125-3.25 1.563C.266-.125 1.5.062 2.188.062c.796 0 1.265-.406 1.484-.828 0 .313 0 .766 1.047.766h.468c.204 0 .329 0 .329-.234m-2-1.157c0 .97-.922 1.094-1.172 1.094-.516 0-.906-.344-.906-.797 0-1.062 1.578-1.203 2.078-1.234Zm0 0"/><path id="d" d="M5.781-3.953v-.469c-.25.016-.531.031-.781.031l-.906-.03v.468c.187 0 .468.031.468.11 0 0 0 .015-.046.109l-1.157 2.5-1.265-2.72h.531v-.468l-1.234.031-1.125-.03v.468H.89l1.75 3.75c.125.25.25.25.375.25.172 0 .28-.031.375-.25L5.047-3.75c.062-.14.094-.203.734-.203m0 0"/><path id="e" d="M4.922-1.172c0-.172-.188-.172-.234-.172-.172 0-.188.047-.25.203-.204.485-.782.797-1.422.797-1.407 0-1.422-1.328-1.422-1.828h3.015c.22 0 .313 0 .313-.265 0-.313-.063-1.047-.563-1.547-.359-.36-.89-.532-1.578-.532C1.187-4.516.313-3.484.313-2.25c0 1.344 1 2.313 2.609 2.313 1.578 0 2-1.063 2-1.235M3.984-2.5h-2.39c.015-.39.031-.812.234-1.14.266-.391.672-.516.953-.516 1.172 0 1.188 1.312 1.203 1.656m0 0"/><path id="f" d="M5.984 0v-.469c-.609 0-.687 0-.687-.39v-6.063l-1.766.078v.469c.625 0 .703 0 .703.39v1.954a2.18 2.18 0 0 0-1.359-.453c-1.453 0-2.5.875-2.5 2.28 0 1.313.922 2.267 2.39 2.267.61 0 1.094-.235 1.407-.485v.485ZM4.172-1.031c-.14.187-.547.734-1.297.734-1.219 0-1.219-1.203-1.219-1.906 0-.485 0-1.016.25-1.406.297-.422.766-.516 1.078-.516.563 0 .97.313 1.188.61Zm0 0"/><path id="g" d="M4.36-6.11c0-.421-.36-.874-1.141-.874-.969 0-2.047.422-2.047 1.547v1.015h-.75v.469h.75V-.47H.484V0l1.25-.031c.375 0 1.016 0 1.375.031v-.469H2.25v-3.484h1.14v-.469H2.188v-1.016c0-1.093.75-1.187 1-1.187.047 0 .11 0 .172.031a.59.59 0 0 0-.234.485c0 .422.36.609.61.609.296 0 .624-.203.624-.61m0 0"/><path id="h" d="M4.406-3.672c0-.531-.531-.812-1.062-.812-.688 0-1.094.5-1.313 1.125v-1.125l-1.656.078v.468c.61 0 .688 0 .688.391v3.078H.375V0l1.25-.031C2-.031 2.641-.031 3 0v-.469h-.86v-1.75c0-.687.235-1.906 1.235-1.906 0 0-.187.172-.187.453 0 .406.328.61.609.61.297 0 .61-.204.61-.61m0 0"/><path id="i" d="M5.406-2.172c0-1.344-.922-2.344-2.547-2.344C1.22-4.516.313-3.5.313-2.172c0 1.235.89 2.235 2.546 2.235 1.672 0 2.547-1.016 2.547-2.235m-1.281-.11c0 .86 0 1.938-1.266 1.938-1.265 0-1.265-1.078-1.265-1.937 0-.453 0-.953.172-1.297.187-.375.609-.578 1.093-.578.422 0 .844.156 1.063.5.203.344.203.89.203 1.375m0 0"/><path id="j" d="M9.328 0v-.469h-.687v-2.578c0-1.031-.516-1.437-1.547-1.437-.907 0-1.422.5-1.688.953-.187-.922-1.11-.953-1.484-.953-.875 0-1.438.453-1.766 1.078v-1.078l-1.703.078v.468c.61 0 .688 0 .688.391v3.078H.453V0l1.25-.031L2.953 0v-.469h-.687v-2.078c0-1.094.875-1.578 1.5-1.578.328 0 .547.203.547.969V-.47h-.688V0l1.266-.031L6.14 0v-.469h-.688v-2.078c0-1.094.86-1.578 1.484-1.578.344 0 .563.203.563.969V-.47h-.687V0l1.25-.031Zm0 0"/><path id="k" d="M3.813-1.234v-.532h-.47v.516c0 .672-.327.906-.609.906-.578 0-.578-.64-.578-.86v-2.75h1.469v-.468H2.156v-1.906h-.469c0 1-.484 1.984-1.484 2.016v.359h.828v2.734c0 1.063.86 1.282 1.578 1.282.75 0 1.204-.579 1.204-1.297m0 0"/><path id="l" d="M4.14-1.39c0-.438-.202-.782-.546-1.063-.39-.281-.719-.344-1.485-.485-.375-.062-1.015-.171-1.015-.64 0-.625.922-.625 1.11-.625.75 0 1.124.297 1.171.844.016.156.031.203.234.203.235 0 .235-.047.235-.281v-.797c0-.188 0-.282-.172-.282-.047 0-.063 0-.453.188-.266-.125-.61-.188-1-.188-.313 0-1.844 0-1.844 1.313 0 .39.203.656.406.828.39.344.782.406 1.547.547.36.062 1.094.187 1.094.781 0 .75-.906.75-1.125.75C1.234-.297.984-1.03.859-1.453c-.046-.14-.109-.14-.234-.14-.25 0-.25.062-.25.28v1.094c0 .188 0 .282.188.282.062 0 .078 0 .296-.157l.25-.172c.47.329.985.329 1.188.329.312 0 1.844 0 1.844-1.454m0 0"/><path id="m" d="M6.125 0v-.469h-.687v-2.578c0-1.047-.532-1.437-1.532-1.437a1.9 1.9 0 0 0-1.687.953v-3.39l-1.766.077v.469c.61 0 .688 0 .688.39v5.516H.453V0l1.25-.031L2.953 0v-.469h-.687v-2.078c0-1.094.859-1.578 1.5-1.578.328 0 .547.203.547.969V-.47h-.688V0l1.25-.031Zm0 0"/><clipPath id="a"><path d="M0 0h96.64v61.129H0Zm0 0"/></clipPath></defs><path fill="#FFF87F" d="m1.863 58.816 2.688-.132 4.203-.086 1.773.765 3.036.14 3.718-.456 2.055.058 2.945-.21 4.332-.438 2.84-.293 3.254.648 2.25.508 2.672-.593 2.414-.079 3.902-.078 3.07.52 3.172-.348 1.993-.758 3.601 1.391 2.043-1.437 3.93 1.484 2.281.195 3.067.059 3.496-.047 3.64-.332 2.117-.098 4.141.016 2.715-.067 2.07.282 2.477.293 3.683-.5 2.782-.407-.754-3.808-.055-2.387.281-3.07 1.524-3.11-.27-2.48-.144-2.73-.817-2.614 1.207-3.265-.437-2.938-.766-4.41.961-1.309-.871-2.96 1.047-4.247-.84-2.086-.23-3.043.261-3.015.582-2.489-1.48-4.789.8-1.941-3.765-.937-1.676 1.558-3.004-1.441-4.402 1.097-3.008-.832-2.73-.265-2.563.664-2.554.32-3.016-1.129-2.442 1.625-2.925-.578-3.953-.926L55.309 2.5l-1.989-.613-3.11 1.12-4.651-1.6-1.336.898-4.086-.64-3.149.16-2.828.78-2.222-.257-4.243-.336-1.578-.133-2.941.5-3.446-1.117-3.324 1.035-2.07-.871-2.992 1.59-3.535-.926-2.387.043-3.559-.008-.035 2.77.477 2.226.105 3.266-.062 3.523-.203 2.695.222 4.313-.254 2.332-1.148 1.89.031 3.505.656 2.593-.687 3.442.496 3.27.726 3.136L2.735 44l-1.03 2.555-.286 2.941.578 3.742-.976 2.266Zm0 0"/><g clip-path="url(#a)"><path fill="none" stroke="#000" stroke-miterlimit="10" stroke-width=".797" d="m1.863 58.816 2.688-.132 4.203-.086 1.773.765 3.036.14 3.718-.456 2.055.058 2.945-.21 4.332-.438 2.84-.293 3.254.648 2.25.508 2.672-.593 2.414-.079 3.902-.078 3.07.52 3.172-.348 1.993-.758 3.601 1.391 2.043-1.437 3.93 1.484 2.281.195 3.067.059 3.496-.047 3.64-.332 2.117-.098 4.141.016 2.715-.067 2.07.282 2.477.293 3.683-.5 2.782-.407-.754-3.808-.055-2.387.281-3.07 1.524-3.11-.27-2.48-.144-2.73-.817-2.614 1.207-3.265-.437-2.938-.766-4.41.961-1.309-.871-2.96 1.047-4.247-.84-2.086-.23-3.043.261-3.015.582-2.489-1.48-4.789.8-1.941-3.765-.937-1.676 1.558-3.004-1.441-4.402 1.097-3.008-.832-2.73-.265-2.563.664-2.554.32-3.016-1.129-2.442 1.625-2.925-.578-3.953-.926L55.309 2.5l-1.989-.613-3.11 1.12-4.651-1.6-1.336.898-4.086-.64-3.149.16-2.828.78-2.222-.257-4.243-.336-1.578-.133-2.941.5-3.446-1.117-3.324 1.035-2.07-.871-2.992 1.59-3.535-.926-2.387.043-3.559-.008-.035 2.77.477 2.226.105 3.266-.062 3.523-.203 2.695.222 4.313-.254 2.332-1.148 1.89.031 3.505.656 2.593-.687 3.442.496 3.27.726 3.136L2.735 44l-1.03 2.555-.286 2.941.578 3.742-.976 2.266Zm0 0"/></g><use xlink:href="#b" x="5.184" y="33.903"/><use xlink:href="#c" x="11.55" y="33.903"/><use xlink:href="#d" x="16.8" y="33.903"/><use xlink:href="#e" x="22.529" y="33.903"/><use xlink:href="#f" x="27.779" y="33.903"/><use xlink:href="#g" x="37.961" y="33.903"/><use xlink:href="#h" x="41.458" y="33.903"/><use xlink:href="#i" x="46.18" y="33.903"/><use xlink:href="#j" x="51.909" y="33.903"/><use xlink:href="#k" x="65.269" y="33.903"/><use xlink:href="#h" x="69.722" y="33.903"/><use xlink:href="#c" x="74.444" y="33.903"/><use xlink:href="#l" x="80.013" y="33.903"/><use xlink:href="#m" x="84.536" y="33.903"/></svg>