<svg xmlns="http://www.w3.org/2000/svg" xmlns:xlink="http://www.w3.org/1999/xlink" width="286.616" height="42.014"><defs><clipPath id="d"><path d="M72.25 10.55h141.73v19.927H72.25Zm0 0"/></clipPath><clipPath id="b"><path d="M0 0h12v12H0Zm0 0"/></clipPath><clipPath id="a"><path d="M0 0h12v12H0z"/></clipPath><clipPath id="f"><path d="M72.25 10.55h.46v19.927h-.46Zm0 0"/></clipPath><clipPath id="g"><path d="M75 10.55h.7v19.927H75Zm0 0"/></clipPath><clipPath id="h"><path d="M77.691 10.55h.996v19.927h-.996Zm0 0"/></clipPath><clipPath id="i"><path d="M80.68 10.55h.996v19.927h-.996Zm0 0"/></clipPath><clipPath id="j"><path d="M83.668 10.55h.996v19.927h-.996Zm0 0"/></clipPath><clipPath id="k"><path d="M86.656 10.55h.996v19.927h-.996Zm0 0"/></clipPath><clipPath id="l"><path d="M89.648 10.55h.997v19.927h-.997Zm0 0"/></clipPath><clipPath id="m"><path d="M92.637 10.55h.996v19.927h-.996Zm0 0"/></clipPath><clipPath id="n"><path d="M95.625 10.55h.996v19.927h-.996Zm0 0"/></clipPath><clipPath id="o"><path d="M98.613 10.55h.996v19.927h-.996Zm0 0"/></clipPath><clipPath id="p"><path d="M101.602 10.55h.996v19.927h-.996Zm0 0"/></clipPath><clipPath id="q"><path d="M104.59 10.55h.996v19.927h-.996Zm0 0"/></clipPath><clipPath id="r"><path d="M107.578 10.55h.996v19.927h-.996Zm0 0"/></clipPath><clipPath id="s"><path d="M110.57 10.55h.996v19.927h-.996Zm0 0"/></clipPath><clipPath id="t"><path d="M113.559 10.55h.996v19.927h-.996Zm0 0"/></clipPath><clipPath id="u"><path d="M122.523 10.55h.997v19.927h-.997Zm0 0"/></clipPath><clipPath id="v"><path d="M125.512 10.55h.996v19.927h-.996Zm0 0"/></clipPath><clipPath id="w"><path d="M128.5 10.55h.996v19.927h-.996Zm0 0"/></clipPath><clipPath id="x"><path d="M131.492 10.55h.996v19.927h-.996Zm0 0"/></clipPath><clipPath id="y"><path d="M134.48 10.55h.997v19.927h-.997Zm0 0"/></clipPath><clipPath id="z"><path d="M137.469 10.55h.996v19.927h-.996Zm0 0"/></clipPath><clipPath id="A"><path d="M140.457 10.55h.996v19.927h-.996Zm0 0"/></clipPath><clipPath id="B"><path d="M143.445 10.55h.996v19.927h-.996Zm0 0"/></clipPath><clipPath id="C"><path d="M146.434 10.55h.996v19.927h-.996Zm0 0"/></clipPath><clipPath id="D"><path d="M149.422 10.55h.996v19.927h-.996Zm0 0"/></clipPath><clipPath id="E"><path d="M152.414 10.55h.996v19.927h-.996Zm0 0"/></clipPath><clipPath id="F"><path d="M155.402 10.55h.996v19.927h-.996Zm0 0"/></clipPath><clipPath id="G"><path d="M158.39 10.55h.997v19.927h-.996Zm0 0"/></clipPath><clipPath id="H"><path d="M161.379 10.55h.996v19.927h-.996Zm0 0"/></clipPath><clipPath id="I"><path d="M164.367 10.55h.012v19.927h-.012Zm0 0"/></clipPath><clipPath id="J"><path d="M173.336 10.55h.996v19.927h-.996Zm0 0"/></clipPath><clipPath id="K"><path d="M176.324 10.55h.996v19.927h-.996Zm0 0"/></clipPath><clipPath id="L"><path d="M179.313 10.55h.996v19.927h-.996Zm0 0"/></clipPath><clipPath id="M"><path d="M182.3 10.55h.7v19.927h-.7Zm0 0"/></clipPath><clipPath id="N"><path d="M185.29 10.55h.71v19.927h-.71Zm0 0"/></clipPath><clipPath id="O"><path d="M188.277 10.55H189v19.927h-.723Zm0 0"/></clipPath><clipPath id="P"><path d="M191.266 10.55H192v19.927h-.734Zm0 0"/></clipPath><clipPath id="Q"><path d="M194.258 10.55H195v19.927h-.742Zm0 0"/></clipPath><clipPath id="R"><path d="M197.246 10.55H198v19.927h-.754Zm0 0"/></clipPath><clipPath id="S"><path d="M200.234 10.55H201v19.927h-.766Zm0 0"/></clipPath><clipPath id="T"><path d="M203.223 10.55H204v19.927h-.777Zm0 0"/></clipPath><clipPath id="U"><path d="M206.21 10.55h.79v19.927h-.79Zm0 0"/></clipPath><clipPath id="V"><path d="M209.2 10.55h.8v19.927h-.8Zm0 0"/></clipPath><clipPath id="W"><path d="M212.188 10.55H213v19.927h-.812Zm0 0"/></clipPath><pattern id="e" width="12" height="12" x="0" y="0" patternTransform="matrix(.9449 0 0 -.9449 -71.75 13618.551)" patternUnits="userSpaceOnUse"><use xlink:href="#c"/></pattern><g id="c" clip-path="url(#a)"><g clip-path="url(#b)"><path d="M9.202 14358.558H446v64.029H9.202z"/></g><path fill="#CCC" d="M0 0h6v6H0Zm6 6h6v6H6Zm0 0"/></g></defs><g clip-path="url(#d)"><path fill="url(#e)" d="M72.25 30.477h141.73V10.55H72.25Zm0 0"/></g><g clip-path="url(#f)"><path fill="none" stroke="#000" stroke-miterlimit="10" stroke-width=".399" d="M72.21 69.184v-99.625"/></g><g clip-path="url(#g)"><path fill="none" stroke="#000" stroke-miterlimit="10" stroke-width=".399" d="M75.2 69.184v-99.625"/></g><g clip-path="url(#h)"><path fill="none" stroke="#000" stroke-miterlimit="10" stroke-width=".399" d="M78.191 69.184v-99.625"/></g><g clip-path="url(#i)"><path fill="none" stroke="#000" stroke-miterlimit="10" stroke-width=".399" d="M81.18 69.184v-99.625"/></g><g clip-path="url(#j)"><path fill="none" stroke="#000" stroke-miterlimit="10" stroke-width=".399" d="M84.168 69.184v-99.625"/></g><g clip-path="url(#k)"><path fill="none" stroke="#000" stroke-miterlimit="10" stroke-width=".399" d="M87.156 69.184v-99.625"/></g><g clip-path="url(#l)"><path fill="none" stroke="#000" stroke-miterlimit="10" stroke-width=".399" d="M90.145 69.184v-99.625"/></g><g clip-path="url(#m)"><path fill="none" stroke="#000" stroke-miterlimit="10" stroke-width=".399" d="M93.133 69.184v-99.625"/></g><g clip-path="url(#n)"><path fill="none" stroke="#000" stroke-miterlimit="10" stroke-width=".399" d="M96.121 69.184v-99.625"/></g><g clip-path="url(#o)"><path fill="none" stroke="#000" stroke-miterlimit="10" stroke-width=".399" d="M99.113 69.184v-99.625"/></g><g clip-path="url(#p)"><path fill="none" stroke="#000" stroke-miterlimit="10" stroke-width=".399" d="M102.102 69.184v-99.625"/></g><g clip-path="url(#q)"><path fill="none" stroke="#000" stroke-miterlimit="10" stroke-width=".399" d="M105.09 69.184v-99.625"/></g><g clip-path="url(#r)"><path fill="none" stroke="#000" stroke-miterlimit="10" stroke-width=".399" d="M108.078 69.184v-99.625"/></g><g clip-path="url(#s)"><path fill="none" stroke="#000" stroke-miterlimit="10" stroke-width=".399" d="M111.066 69.184v-99.625"/></g><g clip-path="url(#t)"><path fill="none" stroke="#000" stroke-miterlimit="10" stroke-width=".399" d="M114.055 69.184v-99.625"/></g><g clip-path="url(#u)"><path fill="none" stroke="#00F" stroke-miterlimit="10" stroke-width=".399" d="M123.023 69.184v-99.625"/></g><g clip-path="url(#v)"><path fill="none" stroke="#00F" stroke-miterlimit="10" stroke-width=".399" d="M126.012 69.184v-99.625"/></g><g clip-path="url(#w)"><path fill="none" stroke="#00F" stroke-miterlimit="10" stroke-width=".399" d="M129 69.184v-99.625"/></g><g clip-path="url(#x)"><path fill="none" stroke="#00F" stroke-miterlimit="10" stroke-width=".399" d="M131.988 69.184v-99.625"/></g><g clip-path="url(#y)"><path fill="none" stroke="#00F" stroke-miterlimit="10" stroke-width=".399" d="M134.977 69.184v-99.625"/></g><g clip-path="url(#z)"><path fill="none" stroke="#00F" stroke-miterlimit="10" stroke-width=".399" d="M137.965 69.184v-99.625"/></g><g clip-path="url(#A)"><path fill="none" stroke="#00F" stroke-miterlimit="10" stroke-width=".399" d="M140.953 69.184v-99.625"/></g><g clip-path="url(#B)"><path fill="none" stroke="#00F" stroke-miterlimit="10" stroke-width=".399" d="M143.945 69.184v-99.625"/></g><g clip-path="url(#C)"><path fill="none" stroke="#00F" stroke-miterlimit="10" stroke-width=".399" d="M146.934 69.184v-99.625"/></g><g clip-path="url(#D)"><path fill="none" stroke="#00F" stroke-miterlimit="10" stroke-width=".399" d="M149.922 69.184v-99.625"/></g><g clip-path="url(#E)"><path fill="none" stroke="#00F" stroke-miterlimit="10" stroke-width=".399" d="M152.91 69.184v-99.625"/></g><g clip-path="url(#F)"><path fill="none" stroke="#00F" stroke-miterlimit="10" stroke-width=".399" d="M155.898 69.184v-99.625"/></g><g clip-path="url(#G)"><path fill="none" stroke="#00F" stroke-miterlimit="10" stroke-width=".399" d="M158.887 69.184v-99.625"/></g><g clip-path="url(#H)"><path fill="none" stroke="#00F" stroke-miterlimit="10" stroke-width=".399" d="M161.875 69.184v-99.625"/></g><g clip-path="url(#I)"><path fill="none" stroke="#00F" stroke-miterlimit="10" stroke-width=".399" d="M164.867 69.184v-99.625"/></g><g clip-path="url(#J)"><path fill="none" stroke="red" stroke-miterlimit="10" stroke-width=".399" d="M173.832 69.184v-99.625"/></g><g clip-path="url(#K)"><path fill="none" stroke="red" stroke-miterlimit="10" stroke-width=".399" d="M176.82 69.184v-99.625"/></g><g clip-path="url(#L)"><path fill="none" stroke="red" stroke-miterlimit="10" stroke-width=".399" d="M179.809 69.184v-99.625"/></g><g clip-path="url(#M)"><path fill="none" stroke="red" stroke-miterlimit="10" stroke-width=".399" d="M182.797 69.184v-99.625"/></g><g clip-path="url(#N)"><path fill="none" stroke="red" stroke-miterlimit="10" stroke-width=".399" d="M185.79 69.184v-99.625"/></g><g clip-path="url(#O)"><path fill="none" stroke="red" stroke-miterlimit="10" stroke-width=".399" d="M188.777 69.184v-99.625"/></g><g clip-path="url(#P)"><path fill="none" stroke="red" stroke-miterlimit="10" stroke-width=".399" d="M191.766 69.184v-99.625"/></g><g clip-path="url(#Q)"><path fill="none" stroke="red" stroke-miterlimit="10" stroke-width=".399" d="M194.754 69.184v-99.625"/></g><g clip-path="url(#R)"><path fill="none" stroke="red" stroke-miterlimit="10" stroke-width=".399" d="M197.742 69.184v-99.625"/></g><g clip-path="url(#S)"><path fill="none" stroke="red" stroke-miterlimit="10" stroke-width=".399" d="M200.73 69.184v-99.625"/></g><g clip-path="url(#T)"><path fill="none" stroke="red" stroke-miterlimit="10" stroke-width=".399" d="M203.719 69.184v-99.625"/></g><g clip-path="url(#U)"><path fill="none" stroke="red" stroke-miterlimit="10" stroke-width=".399" d="M206.71 69.184v-99.625"/></g><g clip-path="url(#V)"><path fill="none" stroke="red" stroke-miterlimit="10" stroke-width=".399" d="M209.7 69.184v-99.625"/></g><g clip-path="url(#W)"><path fill="none" stroke="red" stroke-miterlimit="10" stroke-width=".399" d="M212.688 69.184v-99.625"/></g></svg>