<svg xmlns="http://www.w3.org/2000/svg" xmlns:xlink="http://www.w3.org/1999/xlink" width="444.16" height="74.63"><defs><path id="a" d="M3.89-3.734c-.265.015-.468.234-.468.453 0 .14.094.297.312.297.22 0 .454-.172.454-.563 0-.453-.422-.86-1.188-.86-1.312 0-1.687 1.016-1.687 1.454 0 .781.734.922 1.03.984.516.11 1.032.219 1.032.766 0 .25-.219 1.094-1.422 1.094-.14 0-.906 0-1.14-.532.39.047.64-.25.64-.53 0-.22-.172-.345-.375-.345-.266 0-.562.204-.562.657 0 .562.578.968 1.422.968 1.625 0 2.015-1.203 2.015-1.656a.97.97 0 0 0-.312-.719c-.266-.28-.563-.343-1-.421-.36-.079-.75-.157-.75-.61 0-.281.234-.89 1.109-.89.25 0 .75.078.89.453m0 0"/><path id="k" d="M2.047-3.984h.937c.204 0 .313 0 .313-.203 0-.11-.11-.11-.281-.11H2.14c.359-1.422.406-1.61.406-1.672 0-.172-.125-.265-.297-.265-.031 0-.312 0-.39.359l-.391 1.578H.53c-.203 0-.297 0-.297.188 0 .125.078.125.282.125h.875C.67-1.156.625-.984.625-.812c0 .546.375.921.922.921 1.016 0 1.578-1.453 1.578-1.53 0-.11-.078-.11-.11-.11-.093 0-.109.031-.156.14C2.438-.344 1.906-.109 1.563-.109c-.204 0-.313-.125-.313-.453 0-.25.031-.313.063-.485Zm0 0"/><path id="b" d="m1.266-.766 1.062-1.03c1.547-1.376 2.14-1.907 2.14-2.907 0-1.14-.89-1.938-2.109-1.938C1.234-6.64.5-5.719.5-4.828c0 .547.5.547.531.547.172 0 .516-.11.516-.532a.513.513 0 0 0-.531-.515c-.079 0-.094 0-.125.016.218-.657.765-1.016 1.343-1.016.907 0 1.329.812 1.329 1.625 0 .797-.485 1.578-1.047 2.203L.609-.375C.5-.265.5-.235.5 0h3.703l.266-1.734h-.235C4.172-1.437 4.11-1 4-.844c-.062.078-.719.078-.937.078Zm0 0"/><path id="c" d="M2.89-3.516c.813-.265 1.391-.953 1.391-1.75 0-.812-.875-1.375-1.828-1.375-1 0-1.765.594-1.765 1.36 0 .328.218.515.515.515s.5-.218.5-.515c0-.485-.469-.485-.61-.485.298-.5.954-.625 1.313-.625.422 0 .969.22.969 1.11 0 .125-.031.703-.281 1.14-.297.485-.64.516-.89.516a3 3 0 0 1-.392.031c-.078.016-.14.031-.14.125 0 .11.062.11.234.11h.438c.812 0 1.187.672 1.187 1.656 0 1.36-.687 1.64-1.125 1.64S1.22-.233.875-.812c.344.047.656-.171.656-.546a.537.537 0 0 0-.547-.563c-.25 0-.562.14-.562.578C.422-.437 1.344.22 2.437.22c1.22 0 2.126-.906 2.126-1.922 0-.813-.641-1.594-1.672-1.813m0 0"/><path id="d" d="M2.938-1.64v.859c0 .36-.032.469-.766.469h-.203V0c.406-.031.922-.031 1.344-.031.421 0 .937 0 1.359.031v-.312h-.219c-.734 0-.75-.11-.75-.47v-.859h.985v-.312h-.985v-4.531c0-.203 0-.266-.172-.266-.078 0-.11 0-.187.125L.28-1.953v.312Zm.046-.313H.563l2.421-3.719Zm0 0"/><path id="e" d="M2.938-6.375c0-.25 0-.266-.235-.266C2.078-6 1.203-6 .891-6v.313c.203 0 .78 0 1.297-.266v5.172c0 .36-.032.469-.922.469H.953V0c.344-.031 1.203-.031 1.61-.031.39 0 1.265 0 1.609.031v-.312h-.313c-.906 0-.921-.11-.921-.47Zm0 0"/><path id="f" d="M4.469-2c0-1.187-.813-2.187-1.89-2.187-.47 0-.907.156-1.267.515v-1.953c.204.063.532.125.844.125 1.235 0 1.938-.906 1.938-1.031 0-.063-.032-.11-.11-.11 0 0-.03 0-.078.032a3.2 3.2 0 0 1-1.36.297c-.39 0-.858-.079-1.327-.282-.078-.031-.094-.031-.11-.031C1-6.625 1-6.547 1-6.391v2.954c0 .171 0 .25.14.25.079 0 .094-.016.141-.079.11-.156.469-.703 1.282-.703.515 0 .765.453.843.64.156.376.188.75.188 1.25 0 .36 0 .954-.25 1.376-.235.39-.61.64-1.063.64-.719 0-1.297-.53-1.469-1.109.032 0 .063.016.172.016.329 0 .5-.25.5-.485 0-.25-.171-.5-.5-.5-.14 0-.484.079-.484.532C.5-.75 1.188.219 2.297.219 3.453.219 4.469-.734 4.469-2m0 0"/><path id="g" d="M1.313-3.266v-.25c0-2.515 1.234-2.875 1.75-2.875.234 0 .656.063.874.407-.156 0-.546 0-.546.437 0 .313.234.469.453.469.156 0 .469-.094.469-.484 0-.594-.438-1.079-1.266-1.079C1.766-6.64.422-5.359.422-3.156.422-.484 1.578.219 2.5.219c1.11 0 2.063-.938 2.063-2.25 0-1.266-.891-2.219-2-2.219-.672 0-1.047.5-1.25.984M2.5-.062c-.625 0-.922-.594-.984-.75-.188-.47-.188-1.266-.188-1.438 0-.781.328-1.781 1.219-1.781.172 0 .625 0 .937.625.172.36.172.875.172 1.36 0 .483 0 .983-.172 1.343-.296.594-.75.64-.984.64m0 0"/><path id="h" d="M4.75-6.078c.078-.11.078-.125.078-.344H2.406c-1.203 0-1.234-.125-1.265-.312H.89L.563-4.687h.25c.03-.157.109-.782.25-.907.062-.062.843-.062.968-.062h2.063c-.11.156-.89 1.25-1.11 1.578C2.078-2.734 1.75-1.344 1.75-.328c0 .094 0 .547.469.547.453 0 .453-.453.453-.547v-.516c0-.547.031-1.094.11-1.625.046-.234.171-1.094.624-1.703Zm0 0"/><path id="i" d="M1.625-4.562c-.453-.297-.5-.625-.5-.797 0-.61.656-1.032 1.36-1.032.718 0 1.359.516 1.359 1.235 0 .578-.39 1.047-.985 1.39Zm1.453.953c.719-.375 1.203-.891 1.203-1.547 0-.922-.875-1.485-1.781-1.485-1 0-1.812.735-1.812 1.672 0 .172.015.625.437 1.094.11.11.484.36.734.531C1.281-3.047.422-2.5.422-1.5.422-.453 1.438.219 2.484.219c1.125 0 2.079-.828 2.079-1.89 0-.36-.11-.813-.5-1.235-.188-.203-.344-.297-.985-.703m-1 .422 1.235.78c.28.188.75.485.75 1.095 0 .734-.75 1.25-1.563 1.25C1.64-.062.922-.672.922-1.5c0-.578.312-1.219 1.156-1.687m0 0"/><path id="j" d="M3.656-3.172v.328c0 2.328-1.031 2.782-1.61 2.782-.171 0-.718-.016-.983-.36.437 0 .515-.281.515-.453 0-.312-.234-.453-.453-.453-.156 0-.453.078-.453.469 0 .672.531 1.078 1.375 1.078 1.297 0 2.516-1.36 2.516-3.5 0-2.688-1.157-3.36-2.047-3.36-.547 0-1.032.188-1.453.625C.64-5.562.422-5.14.422-4.39c0 1.235.875 2.22 1.984 2.22.61 0 1.016-.423 1.25-1m-1.234.766c-.156 0-.625 0-.922-.625-.187-.375-.187-.86-.187-1.36 0-.53 0-1 .218-1.375.266-.5.64-.625.985-.625.468 0 .797.344.968.782.11.328.157.953.157 1.406 0 .828-.344 1.797-1.22 1.797m0 0"/><path id="l" d="M4.578-3.187c0-.797-.047-1.594-.39-2.329C3.734-6.484 2.906-6.64 2.5-6.64c-.61 0-1.328.266-1.75 1.188-.312.687-.36 1.469-.36 2.266 0 .75.032 1.64.454 2.406a1.83 1.83 0 0 0 1.64 1c.532 0 1.297-.203 1.735-1.156.312-.688.36-1.47.36-2.25M2.484 0c-.39 0-.984-.25-1.156-1.203-.11-.594-.11-1.516-.11-2.11 0-.64 0-1.296.079-1.828.187-1.187.937-1.28 1.187-1.28.329 0 .985.187 1.172 1.171.11.563.11 1.313.11 1.938 0 .75 0 1.421-.11 2.062C3.5-.297 2.937 0 2.484 0m0 0"/><clipPath id="m"><path d="M67 50h150v24.445H67Zm0 0"/></clipPath></defs><path fill="#BFBFBF" d="M17.523 51.805c0-4.68-3.789-8.47-8.464-8.47a8.466 8.466 0 0 0-8.47 8.47 8.465 8.465 0 0 0 8.47 8.465 8.464 8.464 0 0 0 8.464-8.465m0 0"/><use xlink:href="#a" x="6.721" y="53.948"/><path fill="#BFBFBF" d="M45.871 51.805c0-4.68-3.789-8.47-8.469-8.47a8.468 8.468 0 1 0 0 16.935c4.68 0 8.47-3.79 8.47-8.465m0 0"/><use xlink:href="#b" x="34.912" y="55.013"/><path fill="#BFBFBF" d="M74.219 51.805a8.47 8.47 0 0 0-8.469-8.47 8.468 8.468 0 1 0 0 16.935c4.676 0 8.469-3.79 8.469-8.465m0 0"/><use xlink:href="#c" x="63.258" y="55.013"/><path fill="#BFBFBF" d="M102.566 51.805a8.47 8.47 0 0 0-8.468-8.47 8.468 8.468 0 1 0 0 16.935c4.675 0 8.468-3.79 8.468-8.465m0 0"/><use xlink:href="#d" x="91.605" y="55.013"/><path fill="#BFBFBF" d="M300.992 51.805c0-4.68-3.789-8.47-8.469-8.47a8.468 8.468 0 1 0 0 16.935c4.68 0 8.47-3.79 8.47-8.465m0 0"/><use xlink:href="#e" x="287.539" y="55.013"/><use xlink:href="#f" x="292.52" y="55.013"/><path fill="#BFBFBF" d="M329.34 51.805a8.47 8.47 0 0 0-8.469-8.47 8.468 8.468 0 1 0 0 16.935c4.676 0 8.469-3.79 8.469-8.465m0 0"/><use xlink:href="#e" x="315.886" y="55.013"/><use xlink:href="#g" x="320.867" y="55.013"/><path fill="#BFBFBF" d="M357.688 51.805a8.47 8.47 0 0 0-8.47-8.47 8.468 8.468 0 1 0 0 16.935c4.677 0 8.47-3.79 8.47-8.465m0 0"/><use xlink:href="#e" x="344.232" y="55.013"/><use xlink:href="#h" x="349.213" y="55.013"/><path fill="#BFBFBF" d="M386.035 51.805a8.47 8.47 0 0 0-8.469-8.47 8.466 8.466 0 0 0-8.468 8.47 8.465 8.465 0 0 0 8.468 8.465c4.676 0 8.47-3.79 8.47-8.465m0 0"/><use xlink:href="#e" x="372.579" y="55.013"/><use xlink:href="#i" x="377.56" y="55.013"/><path fill="#BFBFBF" d="M414.379 51.805c0-4.68-3.79-8.47-8.465-8.47a8.466 8.466 0 0 0-8.469 8.47 8.465 8.465 0 0 0 8.47 8.465 8.464 8.464 0 0 0 8.464-8.465m0 0"/><use xlink:href="#e" x="400.925" y="55.013"/><use xlink:href="#j" x="405.906" y="55.013"/><path fill="#BFBFBF" d="M442.727 51.805c0-4.68-3.79-8.47-8.47-8.47a8.468 8.468 0 1 0 0 16.935c4.68 0 8.47-3.79 8.47-8.465m0 0"/><use xlink:href="#k" x="432.454" y="54.867"/><path fill="#BFBFBF" d="M142.598 60.563a8.47 8.47 0 0 0-8.47-8.47 8.47 8.47 0 0 0-8.468 8.47 8.47 8.47 0 0 0 8.469 8.468 8.47 8.47 0 0 0 8.469-8.469m0 0"/><use xlink:href="#f" x="131.636" y="63.773"/><path fill="#BFBFBF" d="M132.3 28.871a8.47 8.47 0 0 0-8.468-8.469 8.466 8.466 0 0 0-8.469 8.47 8.47 8.47 0 0 0 8.469 8.468 8.47 8.47 0 0 0 8.469-8.469m0 0"/><use xlink:href="#g" x="121.339" y="32.08"/><path fill="#BFBFBF" d="M159.258 9.281a8.468 8.468 0 1 0-16.934 0c0 4.68 3.79 8.469 8.465 8.469 4.68 0 8.469-3.79 8.469-8.469m0 0"/><use xlink:href="#h" x="148.298" y="12.493"/><path fill="#BFBFBF" d="M186.219 28.871a8.47 8.47 0 0 0-8.469-8.469 8.47 8.47 0 0 0-8.469 8.47 8.47 8.47 0 0 0 8.469 8.468 8.47 8.47 0 0 0 8.469-8.469m0 0"/><use xlink:href="#i" x="175.257" y="32.08"/><path fill="#BFBFBF" d="M175.922 60.563a8.47 8.47 0 0 0-8.469-8.47 8.47 8.47 0 0 0-8.469 8.47 8.47 8.47 0 0 0 8.47 8.468 8.47 8.47 0 0 0 8.468-8.469m0 0"/><use xlink:href="#j" x="164.959" y="63.773"/><path fill="#BFBFBF" d="M227.637 60.563a8.468 8.468 0 1 0-16.934 0 8.468 8.468 0 1 0 16.934 0m0 0"/><use xlink:href="#e" x="214.185" y="63.773"/><use xlink:href="#l" x="219.166" y="63.773"/><path fill="#BFBFBF" d="M217.34 28.871a8.47 8.47 0 0 0-8.469-8.469 8.47 8.47 0 0 0-8.469 8.47 8.47 8.47 0 0 0 8.47 8.468 8.47 8.47 0 0 0 8.468-8.469m0 0"/><use xlink:href="#e" x="203.887" y="32.08"/><use xlink:href="#e" x="208.868" y="32.08"/><path fill="#BFBFBF" d="M244.3 9.281a8.47 8.47 0 0 0-8.468-8.468 8.47 8.47 0 0 0-8.469 8.468 8.47 8.47 0 0 0 8.469 8.469 8.47 8.47 0 0 0 8.469-8.469m0 0"/><use xlink:href="#e" x="230.847" y="12.493"/><use xlink:href="#b" x="235.828" y="12.493"/><path fill="#BFBFBF" d="M271.258 28.871c0-4.68-3.79-8.469-8.465-8.469a8.466 8.466 0 0 0-8.469 8.47 8.468 8.468 0 1 0 16.934 0m0 0"/><use xlink:href="#e" x="257.806" y="32.08"/><use xlink:href="#c" x="262.787" y="32.08"/><path fill="#BFBFBF" d="M260.96 60.563a8.47 8.47 0 0 0-8.468-8.47 8.47 8.47 0 0 0-8.469 8.47 8.47 8.47 0 0 0 8.47 8.468 8.47 8.47 0 0 0 8.468-8.469m0 0"/><use xlink:href="#e" x="247.508" y="63.773"/><use xlink:href="#d" x="252.489" y="63.773"/><path fill="none" stroke="#000" stroke-miterlimit="10" stroke-width=".399" d="M17.723 51.805h9.617"/><path fill="none" stroke="#000" stroke-linecap="round" stroke-linejoin="round" stroke-miterlimit="10" stroke-width=".399" d="M25.469 49.41c.379 1.438 1.222 2.113 2.07 2.395-.848.277-1.691.953-2.07 2.39"/><path fill="none" stroke="#000" stroke-miterlimit="10" stroke-width=".399" d="M46.07 51.805h9.618"/><path fill="none" stroke="#000" stroke-linecap="round" stroke-linejoin="round" stroke-miterlimit="10" stroke-width=".399" d="M53.816 49.41c.38 1.438 1.223 2.113 2.07 2.395-.847.277-1.69.953-2.07 2.39"/><path fill="none" stroke="#000" stroke-miterlimit="10" stroke-width=".399" d="M74.418 51.805h9.617"/><path fill="none" stroke="#000" stroke-linecap="round" stroke-linejoin="round" stroke-miterlimit="10" stroke-width=".399" d="M82.16 49.41c.38 1.438 1.223 2.113 2.074 2.395-.851.277-1.695.953-2.074 2.39"/><path fill="none" stroke="#000" stroke-miterlimit="10" stroke-width=".399" d="M74.418 51.805h9.617"/><path fill="none" stroke="#000" stroke-linecap="round" stroke-linejoin="round" stroke-miterlimit="10" stroke-width=".399" d="M82.16 49.41c.38 1.438 1.223 2.113 2.074 2.395-.851.277-1.695.953-2.074 2.39"/><path fill="none" stroke="#000" stroke-miterlimit="10" stroke-width=".399" d="M301.191 51.805h9.618"/><path fill="none" stroke="#000" stroke-linecap="round" stroke-linejoin="round" stroke-miterlimit="10" stroke-width=".399" d="M308.938 49.41c.378 1.438 1.222 2.113 2.07 2.395-.848.277-1.692.953-2.07 2.39"/><path fill="none" stroke="#000" stroke-miterlimit="10" stroke-width=".399" d="M329.54 51.805h9.616"/><path fill="none" stroke="#000" stroke-linecap="round" stroke-linejoin="round" stroke-miterlimit="10" stroke-width=".399" d="M337.281 49.41c.38 1.438 1.223 2.113 2.074 2.395-.851.277-1.695.953-2.074 2.39"/><path fill="none" stroke="#000" stroke-miterlimit="10" stroke-width=".399" d="M357.887 51.805h9.617"/><path fill="none" stroke="#000" stroke-linecap="round" stroke-linejoin="round" stroke-miterlimit="10" stroke-width=".399" d="M365.629 49.41c.379 1.438 1.223 2.113 2.074 2.395-.851.277-1.695.953-2.074 2.39"/><path fill="none" stroke="#000" stroke-miterlimit="10" stroke-width=".399" d="M386.234 51.805h9.618"/><path fill="none" stroke="#000" stroke-linecap="round" stroke-linejoin="round" stroke-miterlimit="10" stroke-width=".399" d="M393.977 49.41c.378 1.438 1.222 2.113 2.074 2.395-.852.277-1.696.953-2.074 2.39"/><path fill="none" stroke="#000" stroke-miterlimit="10" stroke-width=".399" d="M414.578 51.805h9.617"/><path fill="none" stroke="#000" stroke-linecap="round" stroke-linejoin="round" stroke-miterlimit="10" stroke-width=".399" d="M422.324 49.41c.38 1.438 1.223 2.113 2.07 2.395-.847.277-1.69.953-2.07 2.39"/><path fill="none" stroke="#000" stroke-miterlimit="10" stroke-width=".399" d="m131.45 52.32-4.509-13.879"/><path fill="none" stroke="#000" stroke-linecap="round" stroke-linejoin="round" stroke-miterlimit="10" stroke-width=".39899601" d="M125.246 40.96c1.246-.804 1.629-1.815 1.633-2.71.527.723 1.433 1.316 2.914 1.23"/><path fill="none" stroke="#000" stroke-miterlimit="10" stroke-width=".399" d="m216.492 52.32-4.512-13.879"/><path fill="none" stroke="#000" stroke-linecap="round" stroke-linejoin="round" stroke-miterlimit="10" stroke-width=".39899601" d="M210.285 40.96c1.25-.804 1.633-1.815 1.633-2.71.531.723 1.434 1.316 2.914 1.23"/><path fill="none" stroke="#000" stroke-miterlimit="10" stroke-width=".399" d="m130.844 23.773 11.804-8.578"/><path fill="none" stroke="#000" stroke-linecap="round" stroke-linejoin="round" stroke-miterlimit="10" stroke-width=".39899202" d="M139.73 14.363c1.149.938 2.23.992 3.082.715-.523.727-.808 1.77-.273 3.152"/><path fill="none" stroke="#000" stroke-miterlimit="10" stroke-width=".399" d="m215.883 23.773 11.808-8.578"/><path fill="none" stroke="#000" stroke-linecap="round" stroke-linejoin="round" stroke-miterlimit="10" stroke-width=".39899202" d="M224.77 14.363c1.148.938 2.23.992 3.082.715-.524.727-.809 1.77-.27 3.152"/><path fill="none" stroke="#000" stroke-miterlimit="10" stroke-width=".399" d="m157.805 14.379 11.804 8.578"/><path fill="none" stroke="#000" stroke-linecap="round" stroke-linejoin="round" stroke-miterlimit="10" stroke-width=".39899202" d="M169.5 19.922c-.535 1.383-.254 2.426.27 3.152-.852-.277-1.93-.222-3.083.715"/><path fill="none" stroke="#000" stroke-miterlimit="10" stroke-width=".399" d="m242.844 14.379 11.808 8.578"/><path fill="none" stroke="#000" stroke-linecap="round" stroke-linejoin="round" stroke-miterlimit="10" stroke-width=".39899202" d="M254.54 19.922c-.536 1.383-.25 2.426.273 3.152-.852-.277-1.934-.222-3.083.715"/><path fill="none" stroke="#000" stroke-miterlimit="10" stroke-width=".399" d="m175.07 37.113-4.507 13.88"/><path fill="none" stroke="#000" stroke-linecap="round" stroke-linejoin="round" stroke-miterlimit="10" stroke-width=".39899601" d="M173.414 49.95c-1.48-.083-2.387.51-2.914 1.234-.004-.895-.387-1.907-1.633-2.711"/><path fill="none" stroke="#000" stroke-miterlimit="10" stroke-width=".399" d="m260.113 37.113-4.511 13.88"/><path fill="none" stroke="#000" stroke-linecap="round" stroke-linejoin="round" stroke-miterlimit="10" stroke-width=".39899601" d="M258.457 49.95c-1.484-.083-2.387.51-2.918 1.234 0-.895-.383-1.907-1.633-2.711"/><path fill="none" stroke="#000" stroke-miterlimit="10" stroke-width=".399" d="M158.785 60.563h-14.594"/><path fill="none" stroke="#000" stroke-linecap="round" stroke-linejoin="round" stroke-miterlimit="10" stroke-width=".399" d="M146.066 62.953c-.379-1.433-1.222-2.113-2.074-2.39.852-.278 1.696-.958 2.074-2.391"/><path fill="none" stroke="#000" stroke-miterlimit="10" stroke-width=".399" d="M243.824 60.563H229.23"/><path fill="none" stroke="#000" stroke-linecap="round" stroke-linejoin="round" stroke-miterlimit="10" stroke-width=".399" d="M231.105 62.953c-.378-1.433-1.222-2.113-2.074-2.39.852-.278 1.696-.958 2.074-2.391"/><path fill="none" stroke="#000" stroke-miterlimit="10" stroke-width=".399" d="m136.809 52.32 10.87-33.468"/><path fill="none" stroke="#000" stroke-linecap="round" stroke-linejoin="round" stroke-miterlimit="10" stroke-width=".39899601" d="M144.828 19.895c1.48.082 2.387-.508 2.914-1.23.004.894.387 1.905 1.633 2.706"/><path fill="none" stroke="#000" stroke-miterlimit="10" stroke-width=".399" d="m221.848 52.32 10.875-33.468"/><path fill="none" stroke="#000" stroke-linecap="round" stroke-linejoin="round" stroke-miterlimit="10" stroke-width=".39899601" d="M229.871 19.895c1.48.082 2.383-.508 2.914-1.23 0 .894.383 1.905 1.633 2.706"/><path fill="none" stroke="#000" stroke-miterlimit="10" stroke-width=".399" d="M132.5 28.871h35.188"/><path fill="none" stroke="#000" stroke-linecap="round" stroke-linejoin="round" stroke-miterlimit="10" stroke-width=".399" d="M165.816 26.48c.38 1.434 1.223 2.11 2.07 2.391-.847.277-1.69.957-2.07 2.39"/><path fill="none" stroke="#000" stroke-miterlimit="10" stroke-width=".399" d="M217.54 28.871h35.19"/><path fill="none" stroke="#000" stroke-linecap="round" stroke-linejoin="round" stroke-miterlimit="10" stroke-width=".399" d="M250.855 26.48c.38 1.434 1.223 2.11 2.075 2.391-.852.277-1.696.957-2.075 2.39"/><path fill="none" stroke="#000" stroke-miterlimit="10" stroke-width=".399" d="m153.469 17.527 10.875 33.465"/><path fill="none" stroke="#000" stroke-linecap="round" stroke-linejoin="round" stroke-miterlimit="10" stroke-width=".39899601" d="M166.04 48.473c-1.247.804-1.634 1.816-1.634 2.71-.527-.722-1.433-1.316-2.914-1.234"/><path fill="none" stroke="#000" stroke-miterlimit="10" stroke-width=".399" d="m238.508 17.527 10.875 33.465"/><path fill="none" stroke="#000" stroke-linecap="round" stroke-linejoin="round" stroke-miterlimit="10" stroke-width=".39899601" d="M251.078 48.473c-1.246.804-1.629 1.816-1.633 2.71-.527-.722-1.433-1.316-2.914-1.234"/><path fill="none" stroke="#000" stroke-miterlimit="10" stroke-width=".399" d="M170.738 33.965 142.27 54.648"/><path fill="none" stroke="#000" stroke-linecap="round" stroke-linejoin="round" stroke-miterlimit="10" stroke-width=".39899601" d="M145.191 55.48c-1.152-.937-2.23-.988-3.082-.714.524-.727.809-1.77.27-3.153"/><path fill="none" stroke="#000" stroke-miterlimit="10" stroke-width=".399" d="M255.777 33.965 227.31 54.648"/><path fill="none" stroke="#000" stroke-linecap="round" stroke-linejoin="round" stroke-miterlimit="10" stroke-width=".39899601" d="M230.23 55.48c-1.148-.937-2.23-.988-3.082-.714.524-.727.809-1.77.274-3.153"/><path fill="none" stroke="#000" stroke-miterlimit="10" stroke-width=".399" d="m160.441 55.469-28.468-20.684"/><path fill="none" stroke="#000" stroke-linecap="round" stroke-linejoin="round" stroke-miterlimit="10" stroke-width=".39899601" d="M132.082 37.82c.535-1.383.254-2.43-.27-3.152.852.273 1.93.223 3.079-.719"/><path fill="none" stroke="#000" stroke-miterlimit="10" stroke-width=".399" d="m245.48 55.469-28.468-20.684"/><path fill="none" stroke="#000" stroke-linecap="round" stroke-linejoin="round" stroke-miterlimit="10" stroke-width=".39899601" d="M217.121 37.82c.54-1.382.254-2.43-.27-3.152.852.273 1.934.223 3.083-.719"/><g clip-path="url(#m)"><path fill="none" stroke="#000" stroke-miterlimit="10" stroke-width=".399" d="M73.258 56.137c40.668 23.48 117.84 18.824 137.18 9.406"/></g><path fill="none" stroke="#000" stroke-linecap="round" stroke-linejoin="round" stroke-miterlimit="10" stroke-width=".39898803000000005" d="M207.684 64.27c.988 1.105 2.046 1.328 2.93 1.187-.63.637-1.075 1.621-.762 3.074"/><path fill="none" stroke="#000" stroke-miterlimit="10" stroke-width=".399" d="m260.96 58.71 21.735-4.757"/><path fill="none" stroke="#000" stroke-linecap="round" stroke-linejoin="round" stroke-miterlimit="10" stroke-width=".39898005000000003" d="M280.355 52.02c.676 1.32 1.645 1.8 2.536 1.89-.77.457-1.45 1.297-1.512 2.781"/></svg>