<svg xmlns="http://www.w3.org/2000/svg" xmlns:xlink="http://www.w3.org/1999/xlink" width="31.736" height="71.246"><defs><path id="c" d="M4.922 0v-.469h-1.39v-5.734c0-.234 0-.328-.266-.328-.11 0-.125 0-.22.078-.765.562-1.796.562-2 .562H.845v.47h.203c.156 0 .703-.016 1.297-.204v5.156H.954V0c.437-.031 1.5-.031 1.984-.031s1.546 0 1.984.031m0 0"/><path id="d" d="M4.766-1.172c0-.14-.141-.14-.235-.14-.187 0-.187.03-.25.156-.25.625-.734.812-1.234.812-1.39 0-1.39-1.453-1.39-1.922 0-.562 0-1.843 1.28-1.843.36 0 .516.015.657.046a.62.62 0 0 0-.203.47c0 .437.343.624.609.624.313 0 .64-.219.64-.625 0-.86-1.156-.922-1.734-.922C1.11-4.516.375-3.375.375-2.219.375-.89 1.313.063 2.844.063c1.625 0 1.922-1.157 1.922-1.235m0 0"/><path id="e" d="M9.328 0v-.469h-.687v-2.578c0-1.031-.516-1.437-1.547-1.437-.907 0-1.422.5-1.688.953-.187-.922-1.11-.953-1.484-.953-.875 0-1.438.453-1.766 1.078v-1.078l-1.703.078v.468c.61 0 .688 0 .688.391v3.078H.453V0l1.25-.031L2.953 0v-.469h-.687v-2.078c0-1.094.875-1.578 1.5-1.578.328 0 .547.203.547.969V-.47h-.688V0l1.266-.031L6.14 0v-.469h-.688v-2.078c0-1.094.86-1.578 1.484-1.578.344 0 .563.203.563.969V-.47h-.687V0l1.25-.031Zm0 0"/><clipPath id="a"><path d="M0 52h19v18.867H0Zm0 0"/></clipPath><clipPath id="b"><path d="M7 52h23v18.867H7Zm0 0"/></clipPath></defs><path fill="none" stroke="#000" stroke-miterlimit="10" stroke-width=".399" d="M12.414 6.5A5.667 5.667 0 0 0 6.746.832a5.668 5.668 0 1 0 0 11.336A5.667 5.667 0 0 0 12.414 6.5ZM24.152 6.5A5.67 5.67 0 0 0 18.48.832 5.667 5.667 0 0 0 12.813 6.5a5.667 5.667 0 0 0 5.667 5.668A5.67 5.67 0 0 0 24.152 6.5ZM12.414 21.07a5.67 5.67 0 1 0-11.34.004 5.67 5.67 0 0 0 11.34-.004ZM24.152 21.07a5.67 5.67 0 1 0-11.34.006 5.67 5.67 0 0 0 11.34-.006Zm0 0"/><path fill="none" stroke="#000" stroke-miterlimit="10" stroke-width=".399" d="M12.414 32.809a5.67 5.67 0 0 0-11.34 0 5.67 5.67 0 0 0 5.672 5.668 5.667 5.667 0 0 0 5.668-5.668ZM24.152 32.809a5.67 5.67 0 0 0-11.34 0 5.667 5.667 0 0 0 5.668 5.668 5.67 5.67 0 0 0 5.672-5.668Zm0 0"/><g clip-path="url(#a)"><path fill="none" stroke="#000" stroke-miterlimit="10" stroke-width=".399" d="M12.414 63.988a5.67 5.67 0 1 0-11.34.004 5.67 5.67 0 0 0 11.34-.004Zm0 0"/></g><g clip-path="url(#b)"><path fill="none" stroke="#000" stroke-miterlimit="10" stroke-width=".399" d="M24.152 63.988a5.67 5.67 0 1 0-11.34.006 5.67 5.67 0 0 0 11.34-.006Zm0 0"/></g><path fill="none" stroke="red" stroke-miterlimit="10" stroke-width=".797" d="M6.746 33.605v29.586"/><path fill="none" stroke="red" stroke-linecap="round" stroke-linejoin="round" stroke-miterlimit="10" stroke-width=".797" d="M3.633 35.758c1.867-.465 2.75-1.504 3.113-2.551.363 1.047 1.242 2.086 3.11 2.55M9.855 61.043c-1.867.465-2.746 1.504-3.109 2.547-.363-1.043-1.246-2.082-3.113-2.547"/><g fill="red"><use xlink:href="#c" x="10.464" y="51.632"/><use xlink:href="#d" x="16.193" y="51.632"/><use xlink:href="#e" x="21.283" y="51.632"/></g></svg>