<svg xmlns="http://www.w3.org/2000/svg" xmlns:xlink="http://www.w3.org/1999/xlink" width="24.534" height="34.382"><defs><path id="b" d="M.453 1.219c-.078.343-.11.406-.547.406-.11 0-.218 0-.218.188 0 .078.046.125.125.125.265 0 .562-.032.828-.032.343 0 .672.032 1 .032.046 0 .172 0 .172-.204 0-.109-.094-.109-.235-.109-.5 0-.5-.062-.5-.156 0-.125.422-1.75.484-2 .125.297.407.64.922.64 1.157 0 2.407-1.453 2.407-2.921 0-.938-.578-1.594-1.328-1.594-.5 0-.985.36-1.313.75-.094-.547-.531-.75-.89-.75-.47 0-.657.39-.735.562-.187.344-.312.938-.312.969 0 .11.093.11.109.11.11 0 .11-.016.172-.235.172-.703.375-1.187.734-1.187.172 0 .313.078.313.453 0 .234-.032.343-.079.515Zm1.75-4.328c.063-.266.344-.547.516-.703.36-.297.64-.376.812-.376.39 0 .64.344.64.938s-.327 1.734-.515 2.11C3.312-.439 2.844-.11 2.47-.11c-.656 0-.781-.827-.781-.89 0-.016 0-.031.03-.156Zm0 0"/><path id="c" d="M1.906-2.328c.547 0 .938.375.938 1.125 0 .86-.516 1.125-.906 1.125-.282 0-.907-.078-1.188-.5.328 0 .406-.235.406-.39 0-.22-.172-.376-.39-.376a.38.38 0 0 0-.391.407C.375-.281 1.094.14 1.938.14c.968 0 1.64-.657 1.64-1.344 0-.547-.437-1.094-1.203-1.25.719-.266.984-.781.984-1.219 0-.547-.625-.953-1.406-.953-.766 0-1.36.375-1.36.938 0 .234.157.359.36.359.219 0 .36-.156.36-.344 0-.203-.141-.36-.36-.375.25-.297.719-.375.985-.375.312 0 .75.156.75.75 0 .297-.094.625-.282.828-.219.266-.422.281-.765.313-.172.015-.188.015-.22.015-.015 0-.077.016-.077.094 0 .094.062.094.187.094Zm0 0"/><clipPath id="a"><path d="M0 5h24.3v29.074H0Zm0 0"/></clipPath></defs><g clip-path="url(#a)"><path fill="none" stroke="#000" stroke-miterlimit="10" stroke-width=".399" d="M23.094 21.813c0-6.11-4.953-11.06-11.059-11.06-6.11 0-11.058 4.95-11.058 11.06 0 6.105 4.949 11.058 11.058 11.058 6.106 0 11.059-4.953 11.059-11.059Zm0 0"/></g><use xlink:href="#b" x="7.293" y="5.097"/><use xlink:href="#c" x="12.305" y="6.591"/><path d="M11.813 19.379c0-1.223-.989-2.211-2.211-2.211-1.223 0-2.211.988-2.211 2.21 0 1.224.988 2.212 2.21 2.212 1.223 0 2.211-.988 2.211-2.211m0 0"/><path fill="red" d="M16.68 19.379a2.212 2.212 0 0 0-4.426 0 2.212 2.212 0 0 0 4.426 0m0 0"/><path fill="#00F" d="M11.813 24.246a2.21 2.21 0 0 0-2.211-2.215 2.212 2.212 0 0 0 0 4.426c1.222 0 2.21-.992 2.21-2.21m0 0"/><path d="M16.68 24.246a2.215 2.215 0 0 0-2.211-2.215 2.216 2.216 0 0 0-2.215 2.215 2.214 2.214 0 0 0 4.426 0m0 0"/></svg>