<svg xmlns="http://www.w3.org/2000/svg" width="115.805" height="90.578"><defs><clipPath id="a"><path d="M3 0h98v90.367H3Zm0 0"/></clipPath><clipPath id="b"><path d="M0 0h115.707v79H0Zm0 0"/></clipPath><clipPath id="c"><path d="M0 43h101v47.367H0Zm0 0"/></clipPath></defs><path fill="none" stroke="#000" stroke-miterlimit="10" stroke-width=".399" d="M1.113 89.074V1.484M114.5 89.074V1.484M1.113 89.074H114.5M1.113 1.484H114.5"/><path fill="none" stroke="#000" stroke-miterlimit="10" stroke-width=".598" d="M57.805 46.402h11.34l11.335-22.46 22.68 11.23"/><g clip-path="url(#a)"><path fill="none" stroke="#000" stroke-miterlimit="10" stroke-width=".598" d="M12.45 89.074 23.79 68.86 35.128 1.484 91.82 68.86"/></g><g clip-path="url(#b)"><path fill="none" stroke="#000" stroke-miterlimit="10" stroke-width=".598" d="M1.113 70.438 23.79 61.12l22.676-27.957 68.031-31.68"/></g><g clip-path="url(#c)"><path fill="none" stroke="#000" stroke-miterlimit="10" stroke-width=".598" d="m1.113 89.074 22.676-9.32 11.34-9.317L91.82 51.802"/></g></svg>