<svg xmlns="http://www.w3.org/2000/svg" xmlns:xlink="http://www.w3.org/1999/xlink" width="154.874" height="8.93"><defs><path id="a" d="M4.922 0v-.469h-1.39v-5.734c0-.234 0-.328-.266-.328-.11 0-.125 0-.22.078-.765.562-1.796.562-2 .562H.845v.47h.203c.156 0 .703-.016 1.297-.204v5.156H.954V0c.437-.031 1.5-.031 1.984-.031s1.546 0 1.984.031m0 0"/><path id="b" d="M5.156-2c0-1.156-.797-2.078-2.265-2.078-.282 0-.813.031-1.282.344v-1.313c.282.047.391.078.72.078 1.452 0 2.374-1.125 2.374-1.375 0-.078-.016-.187-.14-.187-.032 0-.032 0-.141.047a4.3 4.3 0 0 1-1.531.28c-.75 0-1.282-.202-1.547-.28-.094-.032-.094-.047-.125-.047-.14 0-.14.11-.14.265v2.922c0 .172 0 .297.218.297.125 0 .156-.031.219-.11.39-.468.922-.562 1.328-.562.89 0 .89.875.89 1.672 0 .735 0 1.735-1.187 1.735-.25 0-.875-.063-1.297-.625.36-.016.656-.266.656-.672 0-.532-.437-.672-.672-.672-.14 0-.671.094-.671.703 0 .844.78 1.687 2.015 1.687C4.172.11 5.156-.78 5.156-2m0 0"/><path id="c" d="M2.844 0v-.469h-.61v-4.015L.5-4.406v.468c.594 0 .656 0 .656.391v3.078H.47V0l1.219-.031Zm-.469-6.047a.774.774 0 0 0-.781-.781.784.784 0 0 0-.782.781c0 .422.36.766.782.766a.77.77 0 0 0 .781-.766m0 0"/><path id="d" d="M4.14-1.39c0-.438-.202-.782-.546-1.063-.39-.281-.719-.344-1.485-.485-.375-.062-1.015-.171-1.015-.64 0-.625.922-.625 1.11-.625.75 0 1.124.297 1.171.844.016.156.031.203.234.203.235 0 .235-.047.235-.281v-.797c0-.188 0-.282-.172-.282-.047 0-.063 0-.453.188-.266-.125-.61-.188-1-.188-.313 0-1.844 0-1.844 1.313 0 .39.203.656.406.828.39.344.782.406 1.547.547.36.062 1.094.187 1.094.781 0 .75-.906.75-1.125.75C1.234-.297.984-1.03.859-1.453c-.046-.14-.109-.14-.234-.14-.25 0-.25.062-.25.28v1.094c0 .188 0 .282.188.282.062 0 .078 0 .296-.157l.25-.172c.47.329.985.329 1.188.329.312 0 1.844 0 1.844-1.454m0 0"/><path id="e" d="M5.516-.234c0-.235-.125-.235-.266-.235-.61-.015-.61-.14-.61-.375v-2.14c0-.891-.702-1.532-2.187-1.532-.562 0-1.781.047-1.781.922 0 .438.344.625.61.625.312 0 .624-.219.624-.625 0-.297-.187-.469-.218-.5a5 5 0 0 1 .718-.062c.75 0 1.11.422 1.11 1.172v.343c-.72.032-3.25.125-3.25 1.563C.266-.125 1.5.062 2.188.062c.796 0 1.265-.406 1.484-.828 0 .313 0 .766 1.047.766h.468c.204 0 .329 0 .329-.234m-2-1.157c0 .97-.922 1.094-1.172 1.094-.516 0-.906-.344-.906-.797 0-1.062 1.578-1.203 2.078-1.234Zm0 0"/><path id="f" d="M6.125 0v-.469h-.687v-2.578c0-1.047-.532-1.437-1.532-1.437-.953 0-1.484.562-1.75 1.078v-1.078l-1.703.078v.468c.61 0 .688 0 .688.391v3.078H.453V0l1.25-.031L2.953 0v-.469h-.687v-2.078c0-1.094.859-1.578 1.5-1.578.328 0 .547.203.547.969V-.47h-.688V0l1.25-.031Zm0 0"/><path id="g" d="M3.813-1.234v-.532h-.47v.516c0 .672-.327.906-.609.906-.578 0-.578-.64-.578-.86v-2.75h1.469v-.468H2.156v-1.906h-.469c0 1-.484 1.984-1.484 2.016v.359h.828v2.734c0 1.063.86 1.282 1.578 1.282.75 0 1.204-.579 1.204-1.297m0 0"/><path id="h" d="M2.36-3.656a.77.77 0 0 0-.782-.766.767.767 0 0 0-.766.766.774.774 0 1 0 1.547 0m0 2.875a.784.784 0 0 0-.782-.781.78.78 0 0 0-.766.78.774.774 0 1 0 1.547 0m0 0"/><path id="i" d="M2.36-.781a.784.784 0 0 0-.782-.781.78.78 0 0 0-.766.78.774.774 0 1 0 1.547 0m0 0"/><path id="j" d="M5.406-2.172c0-1.344-.922-2.344-2.547-2.344C1.22-4.516.313-3.5.313-2.172c0 1.235.89 2.235 2.546 2.235 1.672 0 2.547-1.016 2.547-2.235m-1.281-.11c0 .86 0 1.938-1.266 1.938-1.265 0-1.265-1.078-1.265-1.937 0-.453 0-.953.172-1.297.187-.375.609-.578 1.093-.578.422 0 .844.156 1.063.5.203.344.203.89.203 1.375m0 0"/></defs><use xlink:href="#a" x=".091" y="7.793"/><use xlink:href="#b" x="5.82" y="7.793"/><use xlink:href="#c" x="15.364" y="7.793"/><use xlink:href="#d" x="18.542" y="7.793"/><use xlink:href="#e" x="26.881" y="7.793"/><use xlink:href="#f" x="32.45" y="7.793"/><use xlink:href="#c" x="42.631" y="7.793"/><use xlink:href="#f" x="45.81" y="7.793"/><use xlink:href="#g" x="51.857" y="7.793"/><use xlink:href="#h" x="56.31" y="7.793"/><use xlink:href="#a" x="64.569" y="7.793"/><use xlink:href="#b" x="70.298" y="7.793"/><use xlink:href="#i" x="76.026" y="7.793"/><use xlink:href="#a" x="89.167" y="7.793"/><use xlink:href="#b" x="94.895" y="7.793"/><use xlink:href="#i" x="100.624" y="7.793"/><use xlink:href="#b" x="103.802" y="7.793"/><use xlink:href="#c" x="113.346" y="7.793"/><use xlink:href="#d" x="116.524" y="7.793"/><use xlink:href="#f" x="124.863" y="7.793"/><use xlink:href="#j" x="131.229" y="7.793"/><use xlink:href="#c" x="140.773" y="7.793"/><use xlink:href="#f" x="143.952" y="7.793"/><use xlink:href="#g" x="150.009" y="7.793"/></svg>