<svg xmlns="http://www.w3.org/2000/svg" xmlns:xlink="http://www.w3.org/1999/xlink" width="18.813" height="25.428"><defs><path id="a" d="M-2.219-5.984c-1.328 0-2.265.906-2.265 2.343 0 .75.312 1.282.484 1.5h-.484l.078 1.766h.468c0-.61 0-.687.376-.687h5.03v.687h.47l-.032-1.25.032-1.25h-.47v.688H-.39A2 2 0 0 0 .063-3.47c0-1.5-.907-2.515-2.282-2.515m0 1.28c1.406 0 1.922.704 1.922 1.345 0 .14 0 .609-.547 1.062-.125.11-.14.11-.328.11h-2.11c-.187 0-.202-.016-.343-.157-.406-.39-.469-.922-.469-1.14 0-.657.61-1.22 1.875-1.22m0 0"/><path id="b" d="M-3.953-5.562c-.235 0-.578.171-.578.625 0 .156.031.625.375 1.062-.125.172-.328.594-.328 1.328 0 1.438.78 1.985 1.468 1.985.407 0 .829-.188 1.047-.516.36.281.688.344.89.344.157 0 .642-.047.954-.438.031.125.25.86.875.86C1.25-.312 2-.875 2-2.86 2-4.625 1.422-5.406.719-5.406c-.297 0-.922.078-1.266.75-.281.562-.281 1.156-.281 2.11 0 .265 0 .718-.016.765a.625.625 0 0 1-.625.562.63.63 0 0 1-.328-.11c.234-.452.266-.968.266-1.218 0-1.437-.782-1.984-1.485-1.984-.468 0-.796.25-.953.406-.156-.297-.172-.516-.187-.625.047.031.14.047.203.047.25 0 .422-.172.422-.438a.41.41 0 0 0-.422-.421m.937 2.14c.454 0 1.125 0 1.125.875s-.671.875-1.125.875c-.437 0-1.109 0-1.109-.875s.672-.875 1.11-.875M.75-4.547c.36 0 .89.39.89 1.688 0 1.187-.452 1.687-.906 1.687-.609 0-.609-.625-.609-.766v-1.171c0-.313 0-1.438.625-1.438m0 0"/><path id="c" d="M-6.11-4.36c-.421 0-.874.36-.874 1.141 0 .969.422 2.047 1.547 2.047h1.015v.75h.469v-.75H-.47v.688H0l-.031-1.25c0-.375 0-1.016.031-1.375h-.469v.859h-3.484v-1.14h-.469v1.203h-1.016c-1.093 0-1.187-.75-1.187-1 0-.047 0-.11.031-.172.11.156.297.234.485.234.422 0 .609-.36.609-.61 0-.296-.203-.624-.61-.624m0 0"/></defs><path fill="none" stroke="#00F" stroke-miterlimit="10" stroke-width="1.196" d="M17.121 23.543V1.313H1.504v22.23Zm0 0"/><use xlink:href="#a" x="11.8" y="20.223"/><use xlink:href="#b" x="11.8" y="13.857"/><use xlink:href="#c" x="11.8" y="8.128"/></svg>