<svg xmlns="http://www.w3.org/2000/svg" xmlns:xlink="http://www.w3.org/1999/xlink" width="87.806" height="44.912"><defs><clipPath id="a"><path d="M0 0h87.71v44.867H0Zm0 0"/></clipPath><clipPath id="b"><path d="M18 25h15v19.867H18Zm0 0"/></clipPath><path id="c" d="M4.75-2.36c0-1.562-.922-2.046-1.656-2.046-1.375 0-2.688 1.422-2.688 2.828C.406-.641 1 .109 2.031.109c.625 0 1.344-.234 2.094-.843.125.53.453.843.906.843.532 0 .844-.546.844-.703 0-.078-.062-.11-.125-.11-.062 0-.094.032-.125.11-.187.485-.547.485-.562.485-.313 0-.313-.782-.313-1.016 0-.203 0-.234.11-.344C5.796-2.656 6-3.812 6-3.812c0-.032-.016-.11-.125-.11-.094 0-.094.031-.14.219-.188.625-.516 1.375-.985 1.969ZM4.094-.983c-.89.765-1.657.875-2.047.875-.594 0-.906-.453-.906-1.094 0-.484.265-1.563.578-2.063.468-.734 1.015-.921 1.36-.921.983 0 .983 1.312.983 2.078 0 .375 0 .953.032 1.125m0 0"/></defs><path fill="#CFC" d="M1.66 43.656h25.512c0-4.476-1.18-8.879-3.418-12.758Zm0 0"/><g clip-path="url(#a)"><path fill="none" stroke="#000" stroke-miterlimit="10" stroke-width=".399" d="M86.7 43.656H1.66l73.645-42.52"/></g><g clip-path="url(#b)"><path fill="none" stroke="#007F00" stroke-miterlimit="10" stroke-width=".399" d="M27.172 43.656c0-4.476-1.18-8.879-3.418-12.758"/></g><use xlink:href="#c" x="13.241" y="41.839"/></svg>