<svg xmlns="http://www.w3.org/2000/svg" width="70.829" height="75.548"><defs><clipPath id="a"><path d="M16 46h39v29.32H16Zm0 0"/></clipPath></defs><path fill="#CCF" stroke="#7F7FFF" stroke-miterlimit="10" stroke-width=".797" d="M43.348 9.207a8.018 8.018 0 1 0-16.036.005 8.018 8.018 0 0 0 16.036-.005ZM43.348 37.555a8.019 8.019 0 1 0-16.035 0 8.018 8.018 0 1 0 16.035 0Zm0 0"/><path fill="#CCF" d="M43.348 65.902a8.019 8.019 0 1 0-16.035 0 8.018 8.018 0 1 0 16.035 0m0 0"/><g clip-path="url(#a)"><path fill="none" stroke="#7F7FFF" stroke-miterlimit="10" stroke-width=".797" d="M43.348 65.902a8.019 8.019 0 1 0-16.035 0 8.018 8.018 0 1 0 16.035 0Zm0 0"/></g><path fill="#CCC" stroke="#7F7F7F" stroke-miterlimit="10" stroke-width=".797" d="M58.008 43.223h11.336V31.887H58.008ZM1.313 43.223h11.34V31.887H1.312Zm0 0"/></svg>