<svg xmlns="http://www.w3.org/2000/svg" width="96.848" height="96.446"><defs><clipPath id="a"><path d="M80 9h16.773v21H80Zm0 0"/></clipPath><clipPath id="b"><path d="M80 37h16.773v22H80Zm0 0"/></clipPath></defs><path fill="none" stroke="#000" stroke-miterlimit="10" stroke-width=".399" d="M10.523 19.594a4.695 4.695 0 0 0-4.695-4.696 4.695 4.695 0 0 0-4.695 4.696 4.695 4.695 0 0 0 4.695 4.695 4.695 4.695 0 0 0 4.695-4.695ZM38.871 19.594a4.698 4.698 0 0 0-9.395 0 4.698 4.698 0 0 0 9.395 0ZM67.219 19.594a4.698 4.698 0 0 0-9.395 0 4.698 4.698 0 0 0 9.395 0Zm0 0"/><g clip-path="url(#a)"><path fill="none" stroke="#000" stroke-miterlimit="10" stroke-width=".399" d="M95.563 19.594a4.695 4.695 0 0 0-4.696-4.696 4.695 4.695 0 0 0-4.695 4.696 4.695 4.695 0 0 0 4.695 4.695 4.695 4.695 0 0 0 4.695-4.695Zm0 0"/></g><path fill="none" stroke="#000" stroke-miterlimit="10" stroke-width=".399" d="M10.523 47.941c0-2.593-2.101-4.699-4.695-4.699a4.698 4.698 0 0 0 0 9.395 4.695 4.695 0 0 0 4.695-4.696ZM38.871 47.941a4.698 4.698 0 1 0-9.396-.002 4.698 4.698 0 0 0 9.396.002ZM67.219 47.941a4.698 4.698 0 1 0-9.393-.003 4.698 4.698 0 0 0 9.393.003Zm0 0"/><g clip-path="url(#b)"><path fill="none" stroke="#000" stroke-miterlimit="10" stroke-width=".399" d="M95.563 47.941c0-2.593-2.102-4.699-4.696-4.699a4.698 4.698 0 0 0 0 9.395 4.695 4.695 0 0 0 4.695-4.696Zm0 0"/></g><path fill="none" stroke="#000" stroke-miterlimit="10" stroke-width=".399" d="M41.703 76.285a4.695 4.695 0 0 0-4.695-4.695 4.698 4.698 0 0 0 0 9.395 4.7 4.7 0 0 0 4.695-4.7ZM64.383 76.285a4.698 4.698 0 1 0-9.393.005 4.698 4.698 0 0 0 9.393-.005ZM33.535 73.129 9.301 51.098M55.531 74.098 9.984 50.128M5.828.723v12.183"/><path d="m5.828 14.898 1.594-3.191-1.594 1.2-1.594-1.2"/><path fill="none" stroke="#000" stroke-miterlimit="10" stroke-width=".399" d="M5.828 24.29v18.952M9.148 22.914l21.707 21.707M10.027 21.691 58.32 45.84M10.281 21.078l76.133 25.375M36.543 71.613l-1.902-19M56.547 72.797 37.317 51.43M34.176.723v12.183"/><path d="m34.176 14.898 1.594-3.191-1.594 1.2-1.594-1.2"/><path fill="none" stroke="#000" stroke-miterlimit="10" stroke-width=".399" d="M30.855 22.914 9.148 44.621M34.176 24.29v18.952M37.496 22.914 59.2 44.621M38.375 21.691 86.668 45.84M40.152 72.797 59.38 51.43M60.152 71.613l1.903-19M62.52.723v12.183"/><path d="m62.52 14.898 1.597-3.191-1.597 1.2-1.594-1.2"/><path fill="none" stroke="#000" stroke-miterlimit="10" stroke-width=".399" d="M58.32 21.691 10.027 45.84M59.2 22.914 37.495 44.621M62.52 24.29v18.952M65.844 22.914l21.703 21.707M41.164 74.098l45.547-23.97M63.16 73.129l24.235-22.031M90.867.723v12.183"/><path d="m90.867 14.898 1.594-3.191-1.594 1.2-1.594-1.2"/><path fill="none" stroke="#000" stroke-miterlimit="10" stroke-width=".399" d="M86.414 21.078 10.281 46.453M86.668 21.691 38.375 45.84M87.547 22.914 65.844 44.621M90.867 24.29v18.952M37.008 93.164v-12.18"/><path d="m37.008 95.156 1.594-3.187-1.594 1.195-1.594-1.195"/><path fill="none" stroke="#000" stroke-miterlimit="10" stroke-width=".399" d="M59.688 93.164v-12.18"/><path d="m59.688 95.156 1.593-3.187-1.593 1.195-1.594-1.195"/></svg>