<svg xmlns="http://www.w3.org/2000/svg" width="31.866" height="9.596"><defs><clipPath id="a"><path d="M0 0h31.8v9.395H0Zm0 0"/></clipPath><clipPath id="b"><path d="M0 0h31.8v9.395H0Zm0 0"/></clipPath></defs><path fill="none" stroke="#000" stroke-miterlimit="10" stroke-width="1.594" d="M.941 4.594h20.524"/><path d="M16.027 4.594C15.281 4.402 12 3.332 9.95 2.168v4.848C12 5.852 15.281 4.78 16.027 4.594m0 0"/><g clip-path="url(#a)"><path fill="none" stroke="#000" stroke-miterlimit="10" stroke-width="1.594" d="M16.027 4.594C15.281 4.402 12 3.332 9.95 2.168v4.848C12 5.852 15.281 4.78 16.027 4.594Zm0 0"/></g><path d="M27.543 4.594c-.746-.192-4.027-1.262-6.078-2.426v4.848c2.05-1.164 5.332-2.235 6.078-2.422m0 0"/><g clip-path="url(#b)"><path fill="none" stroke="#000" stroke-miterlimit="10" stroke-width="1.594" d="M27.543 4.594c-.746-.192-4.027-1.262-6.078-2.426v4.848c2.05-1.164 5.332-2.235 6.078-2.422Zm0 0"/></g></svg>