<svg xmlns="http://www.w3.org/2000/svg" width="79.24" height="79.022"><defs><clipPath id="a"><path d="M0 51h27v27.531H0Zm0 0"/></clipPath></defs><path fill="none" stroke="#BFBFBF" stroke-miterlimit="10" stroke-width=".399" d="M20.957 57.203V.512M26.629 57.203V.512M32.297 57.203V.512M37.965 57.203V.512M43.637 57.203V.512M49.305 57.203V.512M54.973 57.203V.512M60.645 57.203V.512M66.313 57.203V.512M71.98 57.203V.512M77.652 57.203V.512"/><path fill="none" stroke="#000" stroke-miterlimit="10" stroke-width=".399" d="M20.957 57.203h56.297"/><path fill="none" stroke="#000" stroke-linecap="round" stroke-linejoin="round" stroke-miterlimit="10" stroke-width=".399" d="M75.379 54.813c.379 1.437 1.223 2.113 2.074 2.39-.851.281-1.695.957-2.074 2.395"/><path fill="none" stroke="#000" stroke-miterlimit="10" stroke-width=".399" d="M20.957 57.203V.91"/><path fill="none" stroke="#000" stroke-linecap="round" stroke-linejoin="round" stroke-miterlimit="10" stroke-width=".399" d="M18.566 2.781C20 2.406 20.68 1.562 20.957.711c.281.852.957 1.695 2.39 2.07"/><g clip-path="url(#a)"><path fill="none" stroke="#000" stroke-miterlimit="10" stroke-width=".399" d="M20.957 57.203 1.195 76.97"/></g><path fill="none" stroke="#000" stroke-linecap="round" stroke-linejoin="round" stroke-miterlimit="10" stroke-width=".39899601" d="M4.21 77.332c-1.28-.746-2.358-.629-3.155-.223.402-.8.523-1.875-.227-3.156"/><path fill="none" stroke="#000" stroke-miterlimit="10" stroke-width=".399" d="m9.527 68.637 2.817-2.82m-2.817 0 2.817 2.82M19.55 30.266l2.817-2.817m-2.816 0 2.816 2.817M56.2 21.965l2.816-2.82m-2.817 0 2.817 2.82"/></svg>