<svg xmlns="http://www.w3.org/2000/svg" width="126.236" height="11.81"><defs><clipPath id="a"><path d="M0 0h16v11.715H0Zm0 0"/></clipPath><clipPath id="b"><path d="M33 0h22v11.715H33Zm0 0"/></clipPath><clipPath id="c"><path d="M71 0h22v11.715H71Zm0 0"/></clipPath><clipPath id="d"><path d="M109 0h16.855v11.715H109Zm0 0"/></clipPath></defs><g clip-path="url(#a)"><path fill="none" stroke="#000" stroke-miterlimit="10" stroke-width=".399" d="M10.227 5.816c0-2.593-2.102-4.699-4.696-4.699a4.698 4.698 0 0 0 0 9.395 4.695 4.695 0 0 0 4.696-4.696Zm0 0"/></g><g clip-path="url(#b)"><path fill="none" stroke="#000" stroke-miterlimit="10" stroke-width=".399" d="M48.367 5.816a4.698 4.698 0 1 0-9.393-.003 4.698 4.698 0 0 0 9.393.003Zm0 0"/></g><path fill="none" stroke="#000" stroke-miterlimit="10" stroke-width=".399" d="M38.773 5.816H10.426"/><g clip-path="url(#c)"><path fill="none" stroke="#000" stroke-miterlimit="10" stroke-width=".399" d="M86.504 5.816a4.698 4.698 0 1 0-9.396-.002 4.698 4.698 0 0 0 9.396.002Zm0 0"/></g><path fill="none" stroke="#000" stroke-miterlimit="10" stroke-width=".399" d="M76.91 5.816H48.566"/><g clip-path="url(#d)"><path fill="none" stroke="#000" stroke-miterlimit="10" stroke-width=".399" d="M124.64 5.816c0-2.593-2.1-4.699-4.695-4.699a4.698 4.698 0 0 0 0 9.395 4.695 4.695 0 0 0 4.696-4.696Zm0 0"/></g><path fill="none" stroke="#000" stroke-miterlimit="10" stroke-width=".399" d="M115.05 5.816H86.704"/></svg>