<svg xmlns="http://www.w3.org/2000/svg" xmlns:xlink="http://www.w3.org/1999/xlink" width="203.096" height="14.834"><defs><path id="a" d="M5.156-2c0-1.156-.797-2.078-2.265-2.078-.282 0-.813.031-1.282.344v-1.313c.282.047.391.078.72.078 1.452 0 2.374-1.125 2.374-1.375 0-.078-.016-.187-.14-.187-.032 0-.032 0-.141.047a4.3 4.3 0 0 1-1.531.28c-.75 0-1.282-.202-1.547-.28-.094-.032-.094-.047-.125-.047-.14 0-.14.11-.14.265v2.922c0 .172 0 .297.218.297.125 0 .156-.031.219-.11.39-.468.922-.562 1.328-.562.89 0 .89.875.89 1.672 0 .735 0 1.735-1.187 1.735-.25 0-.875-.063-1.297-.625.36-.016.656-.266.656-.672 0-.532-.437-.672-.672-.672-.14 0-.671.094-.671.703 0 .844.78 1.687 2.015 1.687C4.172.11 5.156-.78 5.156-2m0 0"/><path id="b" d="M2.844 0v-.469h-.61v-4.015L.5-4.406v.468c.594 0 .656 0 .656.391v3.078H.47V0l1.219-.031Zm-.469-6.047a.774.774 0 0 0-.781-.781.784.784 0 0 0-.782.781c0 .422.36.766.782.766a.77.77 0 0 0 .781-.766m0 0"/><path id="c" d="M4.14-1.39c0-.438-.202-.782-.546-1.063-.39-.281-.719-.344-1.485-.485-.375-.062-1.015-.171-1.015-.64 0-.625.922-.625 1.11-.625.75 0 1.124.297 1.171.844.016.156.031.203.234.203.235 0 .235-.047.235-.281v-.797c0-.188 0-.282-.172-.282-.047 0-.063 0-.453.188-.266-.125-.61-.188-1-.188-.313 0-1.844 0-1.844 1.313 0 .39.203.656.406.828.39.344.782.406 1.547.547.36.062 1.094.187 1.094.781 0 .75-.906.75-1.125.75C1.234-.297.984-1.03.859-1.453c-.046-.14-.109-.14-.234-.14-.25 0-.25.062-.25.28v1.094c0 .188 0 .282.188.282.062 0 .078 0 .296-.157l.25-.172c.47.329.985.329 1.188.329.312 0 1.844 0 1.844-1.454m0 0"/><path id="d" d="M10.578-2.656c0-1.36-1.203-2.344-2.937-2.485 2.062-.375 2.468-1.562 2.468-2.234 0-1.312-1.203-2.469-3.5-2.469H.563v.625h1.515v8.61H.563V0h6.484c2.36 0 3.531-1.281 3.531-2.656m-2.36-4.735c0 1-.562 2.047-2.234 2.047h-2.14v-3.875h2.594c1.484 0 1.78 1.11 1.78 1.828m.407 4.704c0 .906-.484 2.078-2.14 2.078H3.843v-4.266h2.86c1.671 0 1.921 1.547 1.921 2.188m0 0"/><path id="e" d="M4 0v-.61h-.89v-5.843l-2.438.11v.624c.844 0 .953 0 .953.563V-.61h-1V0c.344-.031 1.328-.031 1.719-.031.39 0 1.312 0 1.656.031m-.719-8.719A1.03 1.03 0 0 0 2.25-9.75c-.594 0-1.047.469-1.047 1.031a1.04 1.04 0 0 0 2.078 0m0 0"/><path id="f" d="M7.813-5.734a.815.815 0 0 0-.86-.813c-.61 0-1.203.313-1.5.563-.594-.344-1.156-.47-1.875-.47-1.984 0-2.781 1.11-2.781 2.11 0 .438.156 1.032.75 1.516-.234.281-.5.781-.5 1.297 0 .61.328 1.14.625 1.375C1.328-.078.438.266.438 1.078c0 .844.937 1.813 3.578 1.813 2.375 0 3.593-.782 3.593-1.86 0-1.265-.843-1.672-1.203-1.843-.687-.344-1.593-.344-2.86-.344-.358 0-1 0-1.062-.016-.625-.11-.796-.656-.796-.922 0-.11.015-.328.171-.515.688.375 1.5.375 1.72.375 1.968 0 2.765-1.11 2.765-2.11 0-.734-.422-1.25-.594-1.39a2.35 2.35 0 0 1 1-.313c-.031.063-.078.125-.078.313 0 .297.203.578.578.578.36 0 .563-.282.563-.578m-3 1.39c0 .657 0 1.64-1.235 1.64-1.25 0-1.25-.983-1.25-1.64S2.328-6 3.578-6c1.235 0 1.235 1 1.235 1.656m1.609 5.438c0 .5-.5 1.328-2.39 1.328s-2.407-.797-2.407-1.344c0-.922.906-.922 1.11-.922h1.64c1.047 0 2.047.188 2.047.938m0 0"/><path id="g" d="M6.906-1.672c0-.219-.218-.219-.312-.219-.219 0-.235.047-.328.235-.375.922-1.313 1.219-2 1.219-2.078 0-2.094-1.922-2.094-2.735h4.312c.329 0 .422 0 .422-.36 0-.421-.11-1.5-.765-2.171-.61-.61-1.407-.797-2.235-.797C1.656-6.5.438-5.031.438-3.234.438-1.22 1.922.094 4.094.094c2.156 0 2.812-1.531 2.812-1.766M5.578-3.578H2.172c.015-.594.031-1.156.344-1.672a1.59 1.59 0 0 1 1.39-.781c1.531 0 1.656 1.734 1.672 2.453m0 0"/><path id="h" d="M6.125-5.328c0-.719-.75-1.125-1.437-1.125-1.125 0-1.625.984-1.813 1.594h-.016v-1.594L.5-6.343v.624c.89 0 .984 0 .984.563V-.61H.5V0c.328-.031 1.406-.031 1.813-.031.406 0 1.578 0 1.921.031v-.61h-1.25v-2.624c0-.47.094-2.75 1.782-2.75a.83.83 0 0 0-.313.656c0 .594.484.844.844.844s.828-.25.828-.844m0 0"/><path id="i" d="M5.36-1.781v-.75h-.594v.734c0 .953-.438 1.36-.875 1.36-.86 0-.86-.954-.86-1.282V-5.75h2.063v-.625H3.03v-2.734h-.61C2.407-7.687 1.72-6.266.298-6.22v.469h1.172v3.984C1.469-.25 2.64.094 3.672.094c1.062 0 1.687-.813 1.687-1.875m0 0"/><path id="j" d="M8.61 0v-.61h-1v-3.78c0-1.36-.579-2.063-2.157-2.063A2.57 2.57 0 0 0 3.093-5h-.015v-4.953l-2.469.11v.624c.875 0 .985 0 .985.563V-.61H.609V0c.329-.031 1.36-.031 1.75-.031.407 0 1.454 0 1.782.031v-.61h-.985v-3.062c0-1.547 1.14-2.312 2.063-2.312.531 0 .828.343.828 1.437v3.938h-.984V0c.328-.031 1.359-.031 1.765-.031s1.453 0 1.781.031m0 0"/><path id="k" d="M7.766-.312c0-.297-.141-.297-.328-.297-.907-.016-.907-.25-.907-.578v-3.094C6.531-5.61 5.484-6.5 3.453-6.5 2.656-6.5.97-6.422.97-5.219c0 .594.453.86.844.86.421 0 .843-.297.843-.844 0-.281-.11-.531-.344-.688.47-.14.813-.14 1.094-.14.969 0 1.563.547 1.563 1.734v.563c-2.266 0-4.547.64-4.547 2.234C.422-.203 2.078.094 3.062.094c1.11 0 1.813-.61 2.094-1.235C5.156-.609 5.156 0 6.61 0h.735c.297 0 .422 0 .422-.312M4.969-2c0 1.36-1.203 1.61-1.672 1.61-.703 0-1.281-.47-1.281-1.126 0-1.312 1.547-1.75 2.953-1.828Zm0 0"/><path id="l" d="M8.61 0v-.61h-1v-3.78c0-1.36-.579-2.063-2.157-2.063-1.031 0-1.922.5-2.406 1.578H3.03v-1.578l-2.422.11v.624c.875 0 .985 0 .985.563V-.61H.609V0c.329-.031 1.36-.031 1.75-.031.407 0 1.454 0 1.782.031v-.61h-.985v-3.062c0-1.547 1.14-2.312 2.063-2.312.531 0 .828.343.828 1.437v3.938h-.984V0c.328-.031 1.359-.031 1.765-.031s1.453 0 1.781.031m0 0"/><path id="m" d="M7.422-4.578c0-1.375 0-4.828-3.39-4.828C.624-9.406.624-5.97.624-4.578c0 1.375 0 4.75 3.39 4.75s3.407-3.328 3.407-4.75M5.688-4.75c0 3.39-.204 3.594-.641 4.016a1.42 1.42 0 0 1-1.016.437c-.453 0-.797-.187-1.093-.484-.36-.36-.579-.594-.579-3.969 0-1 0-1.922.11-2.672.203-1.406 1.234-1.516 1.547-1.516.453 0 1.343.22 1.547 1.422.125.735.125 1.891.125 2.766m0 0"/><path id="n" d="M3.266-1.031a1.02 1.02 0 0 0-1.032-1.031 1.02 1.02 0 0 0-1.03 1.03A1.02 1.02 0 0 0 2.233 0a1.02 1.02 0 0 0 1.032-1.031m0 0"/><path id="o" d="M2.688-.703a.6.6 0 0 0-.344-.531c-.25-.141-.375-.157-.985-.235-.343-.062-.625-.093-.625-.281 0-.125.141-.281.735-.281.515 0 .61.14.625.328.015.11.047.125.172.125h.062c.156 0 .172-.031.172-.172v-.344c0-.11 0-.172-.14-.172a.8.8 0 0 0-.235.063c-.219-.063-.469-.063-.625-.063-.187 0-.516 0-.797.125-.312.141-.375.375-.375.532 0 .515.672.609 1.047.672.594.078.906.109.906.359 0 .344-.61.344-.734.344-.453 0-.672-.141-.797-.47C.703-.796.688-.796.563-.796H.5c-.156 0-.172.016-.172.172v.484c0 .11 0 .188.14.188.063 0 .063 0 .173-.063a.7.7 0 0 0 .14-.093c.282.156.61.156.75.156.203 0 1.157 0 1.157-.75m0 0"/><path id="p" d="M5.875 0v-.328h-.36v-1.14c0-.735-.577-.782-.952-.782-.329 0-.766.063-1.094.469-.14-.36-.422-.469-.922-.469-.688 0-1.016.36-1.125.531v-.531l-.938.031v.344c.313 0 .36 0 .36.188v1.359h-.36V0l.688-.016c.187 0 .469 0 .687.016v-.328H1.5v-.875c0-.61.625-.766.922-.766.328 0 .422.11.422.485v1.156H2.5V0l.688-.016c.187 0 .468 0 .687.016v-.328h-.36v-.875c0-.61.626-.766.922-.766.313 0 .422.11.422.485v1.156H4.5V0l.688-.016c.187 0 .468 0 .687.016m0 0"/><path id="q" d="M3.563-.172c0-.156-.079-.156-.188-.156h-.031c-.063 0-.25 0-.344-.063v-1.062c0-.39-.312-.813-1.375-.813-.36 0-1.094 0-1.094.532a.36.36 0 0 0 .375.375.36.36 0 0 0 .375-.375.37.37 0 0 0-.078-.22C1.391-2 1.547-2 1.625-2c.453 0 .703.172.703.563v.109c-.062 0-.578-.016-1.062.078-.594.11-.97.281-.97.656 0 .64.954.64 1.157.64.484 0 .844-.124 1-.343C2.5 0 2.843 0 3.22 0c.312 0 .344 0 .344-.172M2.327-.656c0 .11 0 .25-.25.344-.203.078-.469.078-.5.078-.36 0-.625-.141-.625-.375 0-.438 1.14-.485 1.375-.485Zm0 0"/><path id="r" d="M1.844 0v-.328h-.36v-3.125L.5-3.422v.344c.328 0 .36 0 .36.187v2.563H.5V0c.234-.016.453-.016.672-.016.016 0 .406 0 .672.016m0 0"/><path id="s" d="M3.172-.547c0-.125-.125-.125-.203-.125h-.031c-.094 0-.126 0-.172.063-.047.093-.188.343-.72.343-.64 0-.968-.25-1.015-.718H2.97c.11 0 .203 0 .203-.157 0-.296-.11-.625-.328-.812-.235-.203-.531-.313-1.016-.313-1.125 0-1.547.61-1.547 1.141S.703.047 1.921.047c.126 0 .47 0 .782-.125.328-.14.469-.406.469-.469m-.516-.687H1.031c.016-.188.016-.766.797-.766.672 0 .813.438.828.766m0 0"/><path id="t" d="M2.813-1.781c0-.282-.282-.469-.626-.469-.437 0-.734.313-.859.594h-.016v-.594l-.89.031v.344c.312 0 .36 0 .36.188v1.359h-.36V0c.219-.016.453-.016.687-.016.282 0 .563 0 .735.016v-.328h-.438v-.656c0-.532.313-.953.735-.985-.032.047-.047.078-.047.188 0 .218.156.36.36.36.202 0 .358-.141.358-.36m0 0"/><path id="u" d="M2.484-.594v-.234h-.406v.219c0 .14-.047.343-.344.343-.312 0-.312-.203-.312-.343v-1.266h.953v-.344h-.953v-.953H1c0 .516-.266 1-.781 1.016v.281H.75v1.281c0 .563.547.64.875.64.36 0 .86-.14.86-.64m0 0"/><path id="v" d="M3.875 0v-.328h-.36v-1.14c0-.735-.609-.782-.968-.782-.5 0-.844.172-1.078.469v-1.672l-.985.031v.344c.313 0 .36 0 .36.187v2.563h-.36V0l.688-.016c.187 0 .469 0 .687.016v-.328H1.5v-.875c0-.61.625-.766.922-.766.328 0 .422.125.422.485v1.156h-.36V0l.704-.016c.171 0 .468 0 .687.016m0 0"/><path id="w" d="M3.875 0v-.328h-.36v-1.14c0-.735-.609-.782-.968-.782-.672 0-1 .344-1.125.531v-.531l-.938.031v.344c.313 0 .36 0 .36.188v1.359h-.36V0l.688-.016c.187 0 .469 0 .687.016v-.328H1.5v-.875c0-.61.625-.766.922-.766.328 0 .422.125.422.485v1.156h-.36V0l.704-.016c.171 0 .468 0 .687.016m0 0"/><path id="x" d="M3.188 0v-.328H2.28V-3.11c0-.157-.015-.188-.187-.188H2c-.437.328-1.078.328-1.187.328H.672v.328h.14c.063 0 .438 0 .813-.125v2.438H.719V0c.25-.016.953-.016 1.234-.016s1 0 1.235.016m0 0"/><path id="y" d="M3.422-1.578c0-.844-.219-1.719-1.531-1.719-1.313 0-1.532.86-1.532 1.719C.36-.688.625.078 1.891.078c1.28 0 1.53-.797 1.53-1.656m-.75-.078c0 .312 0 .781-.078 1.015-.125.407-.516.454-.703.454-.203 0-.594-.063-.703-.454-.079-.25-.079-.656-.079-1.015 0-.36 0-.75.094-1 .078-.219.344-.36.688-.36.297 0 .593.094.703.391.078.234.078.64.078.969m0 0"/><path id="z" d="M1.516-.422a.434.434 0 0 0-.422-.437.447.447 0 0 0-.438.437c0 .235.203.422.438.422a.42.42 0 0 0 .422-.422m0 0"/></defs><use xlink:href="#a" x="-.028" y="10.875"/><use xlink:href="#b" x="9.516" y="10.875"/><use xlink:href="#c" x="12.694" y="10.875"/><use xlink:href="#d" x="21.033" y="10.875"/><use xlink:href="#e" x="32.51" y="10.875"/><use xlink:href="#f" x="37" y="10.875"/><use xlink:href="#f" x="45.077" y="10.875"/><use xlink:href="#g" x="53.154" y="10.875"/><use xlink:href="#h" x="60.514" y="10.875"/><use xlink:href="#i" x="72.493" y="10.875"/><use xlink:href="#j" x="78.776" y="10.875"/><use xlink:href="#k" x="87.743" y="10.875"/><use xlink:href="#l" x="95.59" y="10.875"/><use xlink:href="#m" x="109.936" y="10.875"/><use xlink:href="#n" x="118.013" y="10.875"/><use xlink:href="#a" x="127.591" y="10.875"/><use xlink:href="#b" x="137.135" y="10.875"/><use xlink:href="#c" x="140.313" y="10.875"/><use xlink:href="#o" x="148.652" y="10.875"/><use xlink:href="#p" x="151.666" y="10.875"/><use xlink:href="#q" x="157.852" y="10.875"/><use xlink:href="#r" x="161.529" y="10.875"/><use xlink:href="#r" x="163.701" y="10.875"/><use xlink:href="#s" x="165.872" y="10.875"/><use xlink:href="#t" x="169.319" y="10.875"/><use xlink:href="#u" x="174.993" y="10.875"/><use xlink:href="#v" x="177.967" y="10.875"/><use xlink:href="#q" x="182.146" y="10.875"/><use xlink:href="#w" x="185.823" y="10.875"/><use xlink:href="#x" x="192.577" y="10.875"/><use xlink:href="#y" x="196.353" y="10.875"/><use xlink:href="#z" x="200.129" y="10.875"/></svg>