<svg xmlns="http://www.w3.org/2000/svg" width="79.972" height="79.976"><path fill="#FFF200" d="M.996 78.96v-7.089h7.086v7.09ZM.996 71.871v-7.086h7.086v7.086Zm0 0"/><path fill="#FFE500" d="M.996 64.785V57.7h7.086v7.086Zm0 0"/><path fill="#FFD900" d="M.996 57.7v-7.087h7.086V57.7Zm0 0"/><path fill="#FC0" d="M.996 50.613v-7.086h7.086v7.086Zm0 0"/><path fill="#FFBF00" d="M.996 43.527v-7.09h7.086v7.09Zm0 0"/><path fill="#FFB200" d="M.996 36.438v-7.086h7.086v7.086Zm0 0"/><path fill="#FFA600" d="M.996 29.352v-7.086h7.086v7.086Zm0 0"/><path fill="#F90" d="M.996 22.266V15.18h7.086v7.086Zm0 0"/><path fill="#FF8C00" d="M.996 15.18V8.094h7.086v7.086Zm0 0"/><path fill="#FF7F00" d="M.996 8.094v-7.09h7.086v7.09Zm0 0"/><path fill="#FFF200" d="M8.082 78.96v-7.089h7.086v7.09Zm0 0"/><path fill="#FFE500" d="M8.082 71.871v-7.086h7.086v7.086Zm0 0"/><path fill="#FFD900" d="M8.082 64.785V57.7h7.086v7.086Zm0 0"/><path fill="#FC0" d="M8.082 57.7v-7.087h7.086V57.7Zm0 0"/><path fill="#FFBF00" d="M8.082 50.613v-7.086h7.086v7.086Zm0 0"/><path fill="#FFB200" d="M8.082 43.527v-7.09h7.086v7.09Zm0 0"/><path fill="#FFA600" d="M8.082 36.438v-7.086h7.086v7.086Zm0 0"/><path fill="#F90" d="M8.082 29.352v-7.086h7.086v7.086Zm0 0"/><path fill="#FF8C00" d="M8.082 22.266V15.18h7.086v7.086Zm0 0"/><path fill="#FF7F00" d="M8.082 15.18V8.094h7.086v7.086Zm0 0"/><path fill="#FF7300" d="M8.082 8.094v-7.09h7.086v7.09Zm0 0"/><path fill="#FFE500" d="M15.168 78.96v-7.089h7.086v7.09Zm0 0"/><path fill="#FFD900" d="M15.168 71.871v-7.086h7.086v7.086Zm0 0"/><path fill="#FC0" d="M15.168 64.785V57.7h7.086v7.086Zm0 0"/><path fill="#FFBF00" d="M15.168 57.7v-7.087h7.086V57.7Zm0 0"/><path fill="#FFB200" d="M15.168 50.613v-7.086h7.086v7.086Zm0 0"/><path fill="#FFA600" d="M15.168 43.527v-7.09h7.086v7.09Zm0 0"/><path fill="#F90" d="M15.168 36.438v-7.086h7.086v7.086Zm0 0"/><path fill="#FF8C00" d="M15.168 29.352v-7.086h7.086v7.086Zm0 0"/><path fill="#FF7F00" d="M15.168 22.266V15.18h7.086v7.086Zm0 0"/><path fill="#FF7300" d="M15.168 15.18V8.094h7.086v7.086Zm0 0"/><path fill="#F60" d="M15.168 8.094v-7.09h7.086v7.09Zm0 0"/><path fill="#FFD900" d="M22.254 78.96v-7.089h7.086v7.09Zm0 0"/><path fill="#FC0" d="M22.254 71.871v-7.086h7.086v7.086Zm0 0"/><path fill="#FFBF00" d="M22.254 64.785V57.7h7.086v7.086Zm0 0"/><path fill="#FFB200" d="M22.254 57.7v-7.087h7.086V57.7Zm0 0"/><path fill="#FFA600" d="M22.254 50.613v-7.086h7.086v7.086Zm0 0"/><path fill="#F90" d="M22.254 43.527v-7.09h7.086v7.09Zm0 0"/><path fill="#FF8C00" d="M22.254 36.438v-7.086h7.086v7.086Zm0 0"/><path fill="#FF7F00" d="M22.254 29.352v-7.086h7.086v7.086Zm0 0"/><path fill="#FF7300" d="M22.254 22.266V15.18h7.086v7.086Zm0 0"/><path fill="#F60" d="M22.254 15.18V8.094h7.086v7.086Zm0 0"/><path fill="#FF5900" d="M22.254 8.094v-7.09h7.086v7.09Zm0 0"/><path fill="#FC0" d="M29.34 78.96v-7.089h7.09v7.09Zm0 0"/><path fill="#FFBF00" d="M29.34 71.871v-7.086h7.09v7.086Zm0 0"/><path fill="#FFB200" d="M29.34 64.785V57.7h7.09v7.086Zm0 0"/><path fill="#FFA600" d="M29.34 57.7v-7.087h7.09V57.7Zm0 0"/><path fill="#F90" d="M29.34 50.613v-7.086h7.09v7.086Zm0 0"/><path fill="#FF8C00" d="M29.34 43.527v-7.09h7.09v7.09Zm0 0"/><path fill="#FF7F00" d="M29.34 36.438v-7.086h7.09v7.086Zm0 0"/><path fill="#FF7300" d="M29.34 29.352v-7.086h7.09v7.086Zm0 0"/><path fill="#F60" d="M29.34 22.266V15.18h7.09v7.086Zm0 0"/><path fill="#FF5900" d="M29.34 15.18V8.094h7.09v7.086Zm0 0"/><path fill="#FF4C00" d="M29.34 8.094v-7.09h7.09v7.09Zm0 0"/><path fill="#FFBF00" d="M36.43 78.96v-7.089h7.086v7.09Zm0 0"/><path fill="#FFB200" d="M36.43 71.871v-7.086h7.086v7.086Zm0 0"/><path fill="#FFA600" d="M36.43 64.785V57.7h7.086v7.086Zm0 0"/><path fill="#F90" d="M36.43 57.7v-7.087h7.086V57.7Zm0 0"/><path fill="#FF8C00" d="M36.43 50.613v-7.086h7.086v7.086Zm0 0"/><path fill="#FF7F00" d="M36.43 43.527v-7.09h7.086v7.09Zm0 0"/><path fill="#FF7300" d="M36.43 36.438v-7.086h7.086v7.086Zm0 0"/><path fill="#F60" d="M36.43 29.352v-7.086h7.086v7.086Zm0 0"/><path fill="#FF5900" d="M36.43 22.266V15.18h7.086v7.086Zm0 0"/><path fill="#FF4C00" d="M36.43 15.18V8.094h7.086v7.086Zm0 0"/><path fill="#FF4000" d="M36.43 8.094v-7.09h7.086v7.09Zm0 0"/><path fill="#FFB200" d="M43.516 78.96v-7.089h7.086v7.09Zm0 0"/><path fill="#FFA600" d="M43.516 71.871v-7.086h7.086v7.086Zm0 0"/><path fill="#F90" d="M43.516 64.785V57.7h7.086v7.086Zm0 0"/><path fill="#FF8C00" d="M43.516 57.7v-7.087h7.086V57.7Zm0 0"/><path fill="#FF7F00" d="M43.516 50.613v-7.086h7.086v7.086Zm0 0"/><path fill="#FF7300" d="M43.516 43.527v-7.09h7.086v7.09Zm0 0"/><path fill="#F60" d="M43.516 36.438v-7.086h7.086v7.086Zm0 0"/><path fill="#FF5900" d="M43.516 29.352v-7.086h7.086v7.086Zm0 0"/><path fill="#FF4C00" d="M43.516 22.266V15.18h7.086v7.086Zm0 0"/><path fill="#FF4000" d="M43.516 15.18V8.094h7.086v7.086Zm0 0"/><path fill="#F30" d="M43.516 8.094v-7.09h7.086v7.09Zm0 0"/><path fill="#FFA600" d="M50.602 78.96v-7.089h7.086v7.09Zm0 0"/><path fill="#F90" d="M50.602 71.871v-7.086h7.086v7.086Zm0 0"/><path fill="#FF8C00" d="M50.602 64.785V57.7h7.086v7.086Zm0 0"/><path fill="#FF7F00" d="M50.602 57.7v-7.087h7.086V57.7Zm0 0"/><path fill="#FF7300" d="M50.602 50.613v-7.086h7.086v7.086Zm0 0"/><path fill="#F60" d="M50.602 43.527v-7.09h7.086v7.09Zm0 0"/><path fill="#FF5900" d="M50.602 36.438v-7.086h7.086v7.086Zm0 0"/><path fill="#FF4C00" d="M50.602 29.352v-7.086h7.086v7.086Zm0 0"/><path fill="#FF4000" d="M50.602 22.266V15.18h7.086v7.086Zm0 0"/><path fill="#F30" d="M50.602 15.18V8.094h7.086v7.086Zm0 0"/><path fill="#FF2600" d="M50.602 8.094v-7.09h7.086v7.09Zm0 0"/><path fill="#F90" d="M57.688 78.96v-7.089h7.085v7.09Zm0 0"/><path fill="#FF8C00" d="M57.688 71.871v-7.086h7.085v7.086Zm0 0"/><path fill="#FF7F00" d="M57.688 64.785V57.7h7.085v7.086Zm0 0"/><path fill="#FF7300" d="M57.688 57.7v-7.087h7.085V57.7Zm0 0"/><path fill="#F60" d="M57.688 50.613v-7.086h7.085v7.086Zm0 0"/><path fill="#FF5900" d="M57.688 43.527v-7.09h7.085v7.09Zm0 0"/><path fill="#FF4C00" d="M57.688 36.438v-7.086h7.085v7.086Zm0 0"/><path fill="#FF4000" d="M57.688 29.352v-7.086h7.085v7.086Zm0 0"/><path fill="#F30" d="M57.688 22.266V15.18h7.085v7.086Zm0 0"/><path fill="#FF2600" d="M57.688 15.18V8.094h7.085v7.086Zm0 0"/><path fill="#FF1900" d="M57.688 8.094v-7.09h7.085v7.09Zm0 0"/><path fill="#FF8C00" d="M64.773 78.96v-7.089h7.09v7.09Zm0 0"/><path fill="#FF7F00" d="M64.773 71.871v-7.086h7.09v7.086Zm0 0"/><path fill="#FF7300" d="M64.773 64.785V57.7h7.09v7.086Zm0 0"/><path fill="#F60" d="M64.773 57.7v-7.087h7.09V57.7Zm0 0"/><path fill="#FF5900" d="M64.773 50.613v-7.086h7.09v7.086Zm0 0"/><path fill="#FF4C00" d="M64.773 43.527v-7.09h7.09v7.09Zm0 0"/><path fill="#FF4000" d="M64.773 36.438v-7.086h7.09v7.086Zm0 0"/><path fill="#F30" d="M64.773 29.352v-7.086h7.09v7.086Zm0 0"/><path fill="#FF2600" d="M64.773 22.266V15.18h7.09v7.086Zm0 0"/><path fill="#FF1900" d="M64.773 15.18V8.094h7.09v7.086Zm0 0"/><path fill="#FF0D00" d="M64.773 8.094v-7.09h7.09v7.09Zm0 0"/><path fill="#FF7F00" d="M71.863 78.96v-7.089h7.086v7.09Zm0 0"/><path fill="#FF7300" d="M71.863 71.871v-7.086h7.086v7.086Zm0 0"/><path fill="#F60" d="M71.863 64.785V57.7h7.086v7.086Zm0 0"/><path fill="#FF5900" d="M71.863 57.7v-7.087h7.086V57.7Zm0 0"/><path fill="#FF4C00" d="M71.863 50.613v-7.086h7.086v7.086Zm0 0"/><path fill="#FF4000" d="M71.863 43.527v-7.09h7.086v7.09Zm0 0"/><path fill="#F30" d="M71.863 36.438v-7.086h7.086v7.086Zm0 0"/><path fill="#FF2600" d="M71.863 29.352v-7.086h7.086v7.086Zm0 0"/><path fill="#FF1900" d="M71.863 22.266V15.18h7.086v7.086Zm0 0"/><path fill="#FF0D00" d="M71.863 15.18V8.094h7.086v7.086Zm0 0"/><path fill="red" d="M71.863 8.094v-7.09h7.086v7.09Zm0 0"/></svg>