<svg xmlns="http://www.w3.org/2000/svg" width="48.692" height="11.27"><defs><clipPath id="a"><path d="M0 0h48.54v10.906H0Zm0 0"/></clipPath><clipPath id="b"><path d="M0 1h11v9.906H0Zm0 0"/></clipPath><clipPath id="c"><path d="M23 1h16v9.906H23Zm0 0"/></clipPath><clipPath id="d"><path d="M38 0h10.54v10H38Zm0 0"/></clipPath></defs><g clip-path="url(#a)"><path fill="none" stroke="#BFBFBF" stroke-miterlimit="10" stroke-width=".399" d="m2.934 8.7 14.171-5.673L31.277 8.7l14.176-5.672"/></g><g clip-path="url(#b)"><path fill="none" stroke="#000" stroke-miterlimit="10" stroke-width=".399" d="m2.934 6.707 1.722 2.988H1.207Zm0 0"/></g><path fill="none" stroke="#000" stroke-miterlimit="10" stroke-width=".399" d="m17.105 1.035 1.727 2.988h-3.453Zm0 0"/><g clip-path="url(#c)"><path fill="none" stroke="#000" stroke-miterlimit="10" stroke-width=".399" d="m31.277 6.707 1.727 2.988h-3.45Zm0 0"/></g><g clip-path="url(#d)"><path fill="none" stroke="#000" stroke-miterlimit="10" stroke-width=".399" d="m45.453 1.035 1.727 2.988h-3.453Zm0 0"/></g></svg>