<svg xmlns="http://www.w3.org/2000/svg" xmlns:xlink="http://www.w3.org/1999/xlink" width="77.735" height="100.406"><defs><path id="a" d="M6.125 0v-.469h-.687v-2.578c0-1.047-.532-1.437-1.532-1.437a1.9 1.9 0 0 0-1.687.953v-3.39l-1.766.077v.469c.61 0 .688 0 .688.39v5.516H.453V0l1.25-.031L2.953 0v-.469h-.687v-2.078c0-1.094.859-1.578 1.5-1.578.328 0 .547.203.547.969V-.47h-.688V0l1.25-.031Zm0 0"/><path id="b" d="M5.25-3.281c0-.672 0-3.25-2.375-3.25-1.406 0-2.39.812-2.39 2.14 0 1.375.984 2.125 2.203 2.125.359 0 .828-.062 1.203-.765v.219c0 .734-.094 1.312-.235 1.656-.172.39-.61.843-1.297.843-.171 0-.53-.03-.828-.218.11-.031.485-.172.485-.625 0-.344-.235-.625-.625-.625-.391 0-.625.265-.625.64 0 .688.515 1.25 1.609 1.25C3.672.11 5.25-.734 5.25-3.28m-1.375-.985c0 .625-.25 1.641-1.094 1.641-.953 0-.953-.75-.953-1.734 0-.985 0-1.782 1.078-1.782.578 0 .813.532.86.625.109.329.109.907.109 1.25m0 0"/><path id="c" d="M4.766-1.172c0-.14-.141-.14-.235-.14-.187 0-.187.03-.25.156-.25.625-.734.812-1.234.812-1.39 0-1.39-1.453-1.39-1.922 0-.562 0-1.843 1.28-1.843.36 0 .516.015.657.046a.62.62 0 0 0-.203.47c0 .437.343.624.609.624.313 0 .64-.219.64-.625 0-.86-1.156-.922-1.734-.922C1.11-4.516.375-3.375.375-2.219.375-.89 1.313.063 2.844.063c1.625 0 1.922-1.157 1.922-1.235m0 0"/><path id="e" d="M5.516-.234c0-.235-.125-.235-.266-.235-.61-.015-.61-.14-.61-.375v-2.14c0-.891-.702-1.532-2.187-1.532-.562 0-1.781.047-1.781.922 0 .438.344.625.61.625.312 0 .624-.219.624-.625 0-.297-.187-.469-.218-.5a5 5 0 0 1 .718-.062c.75 0 1.11.422 1.11 1.172v.343c-.72.032-3.25.125-3.25 1.563C.266-.125 1.5.062 2.188.062c.796 0 1.265-.406 1.484-.828 0 .313 0 .766 1.047.766h.468c.204 0 .329 0 .329-.234m-2-1.157c0 .97-.922 1.094-1.172 1.094-.516 0-.906-.344-.906-.797 0-1.062 1.578-1.203 2.078-1.234Zm0 0"/><path id="g" d="M4.922-1.172c0-.172-.188-.172-.234-.172-.172 0-.188.047-.25.203-.204.485-.782.797-1.422.797-1.407 0-1.422-1.328-1.422-1.828h3.015c.22 0 .313 0 .313-.265 0-.313-.063-1.047-.563-1.547-.359-.36-.89-.532-1.578-.532C1.187-4.516.313-3.484.313-2.25c0 1.344 1 2.313 2.609 2.313 1.578 0 2-1.063 2-1.235M3.984-2.5h-2.39c.015-.39.031-.812.234-1.14.266-.391.672-.516.953-.516 1.172 0 1.188 1.312 1.203 1.656m0 0"/><path id="h" d="M5.156-2.219h-.468c-.032.203-.125.844-.266.906-.11.063-.86.063-1.016.063H1.937c.47-.39 1-.812 1.438-1.14 1.14-.844 1.781-1.313 1.781-2.25 0-1.157-1.047-1.891-2.437-1.891-1.219 0-2.156.625-2.156 1.515 0 .594.484.735.718.735C1.61-4.281 2-4.5 2-5c0-.516-.422-.672-.562-.719.28-.234.671-.343 1.03-.343.845 0 1.313.671 1.313 1.421 0 .688-.375 1.375-1.078 2.079l-2 2.046c-.14.11-.14.141-.14.344V0h4.28Zm0 0"/><path id="i" d="M5.281-3.187c0-.954-.015-3.344-2.422-3.344S.453-4.156.453-3.188c0 1 0 3.297 2.406 3.297 2.391 0 2.422-2.296 2.422-3.296M4-3.297c0 .563 0 1.469-.078 1.985-.14.921-.766 1.062-1.063 1.062-.359 0-.921-.219-1.046-.953-.094-.516-.094-1.547-.094-2.094 0-.719 0-1.375.078-1.89.125-.891.828-.985 1.062-.985.375 0 .782.188.97.625C4-5.172 4-4.109 4-3.297m0 0"/><path id="k" d="M2.656.422v-4.906l-1.828.078v.468c.172 0 .39 0 .531.016.22.047.22.172.22.39V.423c0 .5-.141 1.219-.735 1.219-.172 0-.25-.032-.39-.063a.62.62 0 0 0 .233-.5.617.617 0 0 0-.624-.625c-.375 0-.625.281-.625.64 0 .563.609.907 1.421.907.86 0 1.797-.531 1.797-1.578m0-6.469a.774.774 0 1 0-1.547-.015.774.774 0 0 0 1.547.015m0 0"/><path id="l" d="M5.406 0v-.469h-.968v-1.094h.968v-.468h-.968V-6.22c0-.265-.016-.328-.297-.328-.22 0-.22.016-.344.172L.313-2.031v.469h2.875V-.47h-1.11V0c.375-.031 1.281-.031 1.703-.031.406 0 1.266 0 1.625.031m-2.11-2.031H.845L3.297-5.11Zm0 0"/><path id="m" d="M5.563-6.422H3.53c-.234 0-1.703-.047-1.844-.094-.203-.03-.218-.125-.234-.218H.984l-.343 2.53h.468c.094-.765.22-.89.266-.905.11-.063.922-.063 1.094-.063H4.14c-.172.219-.36.422-.547.64-.953 1.126-1.672 2.47-1.672 3.938 0 .703.562.703.625.703.156 0 .625-.046.625-.703v-.468c0-.47.031-.954.094-1.422.093-.672.297-1.25.656-1.657l1.547-1.796c.093-.11.093-.141.093-.485m0 0"/><clipPath id="d"><path d="M0 76h25v24.11H0Zm0 0"/></clipPath><clipPath id="f"><path d="M24 76h29v24.11H24Zm0 0"/></clipPath><clipPath id="j"><path d="M52 47h25.602v31H52Zm0 0"/></clipPath></defs><path fill="none" stroke="#000" stroke-miterlimit="10" stroke-width=".399" d="M15.152 5.598a4.698 4.698 0 1 0-9.395.005 4.698 4.698 0 0 0 9.395-.005ZM19.832 33.945a9.38 9.38 0 1 0-18.758 0 9.38 9.38 0 0 0 18.758 0Zm0 0"/><use xlink:href="#a" x="7.271" y="37.402"/><path fill="none" stroke="#000" stroke-miterlimit="10" stroke-width=".399" d="M10.453 10.496V23.97"/><path fill="none" stroke="#000" stroke-linecap="round" stroke-linejoin="round" stroke-miterlimit="10" stroke-width=".399" d="M12.844 22.098c-1.434.379-2.11 1.222-2.39 2.07-.278-.848-.954-1.691-2.392-2.07"/><path fill="#FFF" d="M6.594 21.746h7.722v-8.629H6.594Zm0 0"/><use xlink:href="#b" x="7.59" y="20.638"/><path fill="none" stroke="#000" stroke-miterlimit="10" stroke-width=".399" d="M18.57 62.293a8.118 8.118 0 1 0-16.233.001 8.118 8.118 0 0 0 16.233-.001Zm0 0"/><use xlink:href="#c" x="7.909" y="64.518"/><g clip-path="url(#d)"><path fill="none" stroke="#000" stroke-miterlimit="10" stroke-width=".399" d="M18.723 90.64a8.27 8.27 0 1 0-16.537.002 8.27 8.27 0 0 0 16.537-.001Zm0 0"/></g><use xlink:href="#e" x="7.67" y="92.864"/><g clip-path="url(#f)"><path fill="none" stroke="#000" stroke-miterlimit="10" stroke-width=".399" d="M46.984 90.64a8.184 8.184 0 1 0-16.367.001 8.184 8.184 0 0 0 16.367 0Zm0 0"/></g><use xlink:href="#g" x="36.175" y="92.864"/><path fill="none" stroke="#000" stroke-miterlimit="10" stroke-width=".399" d="M10.453 70.61v11.163"/><path fill="none" stroke="#000" stroke-linecap="round" stroke-linejoin="round" stroke-miterlimit="10" stroke-width=".399" d="M12.844 79.898c-1.434.38-2.11 1.223-2.39 2.075-.278-.852-.954-1.696-2.392-2.075"/><path fill="#FFF" d="M6.594 80.648h7.722v-8.52H6.594Zm0 0"/><use xlink:href="#h" x="7.59" y="79.651"/><path fill="none" stroke="#000" stroke-miterlimit="10" stroke-width=".399" d="M16.336 68.172 32.594 84.43"/><path fill="none" stroke="#000" stroke-linecap="round" stroke-linejoin="round" stroke-miterlimit="10" stroke-width=".39899601" d="M32.957 81.414c-.746 1.285-.629 2.36-.223 3.156-.8-.402-1.875-.52-3.156.227"/><path fill="#FFF" d="M20.742 80.758h7.723v-8.63h-7.723Zm0 0"/><use xlink:href="#i" x="21.739" y="79.649"/><g clip-path="url(#j)"><path fill="none" stroke="#000" stroke-miterlimit="10" stroke-width=".399" d="M76.395 62.293a9.247 9.247 0 0 0-9.247-9.246 9.247 9.247 0 0 0-9.246 9.246 9.247 9.247 0 0 0 9.246 9.246 9.247 9.247 0 0 0 9.247-9.246Zm0 0"/></g><use xlink:href="#k" x="65.398" y="64.707"/><path fill="none" stroke="#000" stroke-miterlimit="10" stroke-width=".399" d="M10.453 43.523v10.055"/><path fill="none" stroke="#000" stroke-linecap="round" stroke-linejoin="round" stroke-miterlimit="10" stroke-width=".399" d="M12.844 51.703c-1.434.379-2.11 1.223-2.39 2.074-.278-.851-.954-1.695-2.392-2.074"/><path fill="#FFF" d="M6.594 53.016h7.722v-8.532H6.594Zm0 0"/><use xlink:href="#l" x="7.59" y="52.017"/><path fill="none" stroke="#000" stroke-miterlimit="10" stroke-width=".399" d="m19.02 38.23 39.324 19.66"/><path fill="none" stroke="#000" stroke-linecap="round" stroke-linejoin="round" stroke-miterlimit="10" stroke-width=".39896808000000006" d="M57.738 54.914c-.304 1.453.149 2.438.785 3.066-.886-.132-1.945.098-2.921 1.211"/><path fill="#FFF" d="M35 52.566h7.723V43.73H35Zm0 0"/><use xlink:href="#m" x="35.995" y="51.46"/></svg>