<svg xmlns="http://www.w3.org/2000/svg" xmlns:xlink="http://www.w3.org/1999/xlink" width="61.922" height="46.514"><defs><path id="a" d="M4.922 0v-.469h-1.39v-5.734c0-.234 0-.328-.266-.328-.11 0-.125 0-.22.078-.765.562-1.796.562-2 .562H.845v.47h.203c.156 0 .703-.016 1.297-.204v5.156H.954V0c.437-.031 1.5-.031 1.984-.031s1.546 0 1.984.031m0 0"/><path id="f" d="M5.156-2c0-1.156-.797-2.078-2.265-2.078-.282 0-.813.031-1.282.344v-1.313c.282.047.391.078.72.078 1.452 0 2.374-1.125 2.374-1.375 0-.078-.016-.187-.14-.187-.032 0-.032 0-.141.047a4.3 4.3 0 0 1-1.531.28c-.75 0-1.282-.202-1.547-.28-.094-.032-.094-.047-.125-.047-.14 0-.14.11-.14.265v2.922c0 .172 0 .297.218.297.125 0 .156-.031.219-.11.39-.468.922-.562 1.328-.562.89 0 .89.875.89 1.672 0 .735 0 1.735-1.187 1.735-.25 0-.875-.063-1.297-.625.36-.016.656-.266.656-.672 0-.532-.437-.672-.672-.672-.14 0-.671.094-.671.703 0 .844.78 1.687 2.015 1.687C4.172.11 5.156-.78 5.156-2m0 0"/><path id="b" d="m4.5 3.36-.234-.407c-.188.078-.797.313-.922.219-.11-.063-.485-.719-.563-.844l-.734-1.281c.578.219 1.203.469 1.703.687 1.297.563 2.031.891 2.844.422 1-.578 1.11-1.86.422-3.062-.61-1.063-1.625-1.563-2.391-1.11-.516.297-.406.782-.281.985.156.281.547.515.984.265.453-.25.36-.703.344-.843.344.125.625.406.812.718.422.735.079 1.485-.578 1.86-.593.344-1.375.36-2.343.094L.797.359C.64.281.609.297.437.406L.282.484l2.14 3.704Zm0 0"/><path id="d" d="m2.703 4.688.406-.235-.484-.844.953-.546.485.843.406-.234-.485-.844L7.61.734c.22-.125.266-.171.125-.421-.109-.188-.125-.188-.328-.22L1.922-.75l-.406.234 1.437 2.5L2 2.531l-.562-.969-.407.235c.219.312.672 1.094.89 1.469.204.343.626 1.093.782 1.422m.703-2.844L2.187-.281l3.876.594Zm0 0"/><path id="c" d="M-1.062 5.438c.468.28 1.375.453 2.359-.641-.172.703-.047 1.61.703 2.031.656.39 1.578.047 2.281-1.172.594-1.031.422-2.031-.265-2.422a.67.67 0 0 0-.953.235.67.67 0 0 0 .234.953c.5.297.89-.125.906-.14.078.437-.078.843-.234 1.124-.422.719-.985.422-1.266.25-.11-.062-1.234-.718-.765-1.656.187-.344.203-.375.203-.422.03-.094-.032-.156-.094-.187-.14-.094-.188 0-.281.14l-.22.375C1 4.86.142 4.375-.296 4.11c-.406-.234-1.297-.734-.781-1.625.14-.234.437-.656.937-.921-.078.328 0 .671.36.875.39.218.812.109 1.031-.282.219-.36.156-.797-.281-1.047-.781-.453-1.781.11-2.422 1.22-.89 1.53-.406 2.655.39 3.109m0 0"/><path id="g" d="M-5.25 2.047c0 1.39 1.016 2.125 2.219 2.125.219 0 .781 0 1.203-.766v.188c0 1.14-.219 1.562-.281 1.719-.25.468-.782.828-1.391.828-.172 0-.516-.032-.75-.266a.595.595 0 0 0 .547-.61c0-.343-.235-.624-.625-.624s-.625.265-.625.64c0 .625.422 1.25 1.469 1.25 1.359 0 3-.86 3-3.375 0-.781-.079-1.578-.5-2.265-.47-.766-1.22-1-1.922-1-1.375 0-2.344.812-2.344 2.156m1.36.015c0-1 0-1.75 1.015-1.75.516 0 .781.391.86.563.156.313.156 1.031.156 1.219 0 1.25-.532 1.719-1.078 1.719-.954 0-.954-.75-.954-1.75m0 0"/><path id="l" d="m-2.781-8.016-1.016 1.75c-.125.204-.906 1.454-1 1.547-.14.172-.219.14-.312.094l-.235.406 2.016 1.563.234-.39c-.61-.485-.656-.657-.64-.688-.016-.125.39-.828.484-.985l.828-1.437c.11.25.203.5.297.781.484 1.39 1.297 2.672 2.563 3.406.609.344.89-.14.921-.187.079-.14.266-.563-.296-.89l-.407-.235c-.406-.235-.812-.5-1.187-.781-.531-.422-.922-.875-1.094-1.391l-.781-2.25c-.047-.125-.078-.14-.375-.313m0 0"/><path id="m" d="M-4.234-3.625c-.938.547-.922 1.516-.907 2.078-.656-.422-1.203-.484-1.703-.187-.875.5-.812 1.515-.25 2.515.688 1.188 1.735 1.39 2.563.922.375-.219.828-.703.812-1.578.75.531 1.453.625 2.094.25 1.031-.594.938-1.781.297-2.89-.797-1.376-1.953-1.657-2.906-1.11m-2.22 2.531c.423-.234.829-.187 1.313.047l.016 1.719c.016.172 0 .5-.297.672-.61.343-1.11-.39-1.312-.75-.407-.719-.313-1.344.28-1.688m3.126-2.047c.719-.421 1.344.313 1.625.813.484.828.328 1.578-.344 1.969-.672.39-1.312.156-1.672-.063l-.015-1.547c0-.515-.016-.937.406-1.172m0 0"/><clipPath id="e"><path d="M46 10h15.883v27H46Zm0 0"/></clipPath><clipPath id="h"><path d="M15 27h15v19.27H15Zm0 0"/></clipPath><clipPath id="i"><path d="M12 24h21v22.27H12Zm0 0"/></clipPath><clipPath id="j"><path d="M23 27h16v19.27H23Zm0 0"/></clipPath><clipPath id="k"><path d="M21 24h20v22.27H21Zm0 0"/></clipPath></defs><use xlink:href="#a" x="23.82" y="28.732"/><use xlink:href="#b" x="30.93" y="19.71"/><use xlink:href="#c" x="42.346" y="21.385"/><path fill="none" stroke="#000" stroke-miterlimit="10" stroke-width=".399" d="M52.195 30.379H35.188"/><path fill="none" stroke="#7F7F7F" stroke-miterlimit="10" stroke-width=".199" d="m35.188 30.379 8.503-14.73"/><use xlink:href="#d" x="47.934" y="19.713"/><g clip-path="url(#e)"><path fill="none" stroke="#000" stroke-miterlimit="10" stroke-width=".399" d="m60.7 15.648-8.505 14.73"/></g><path fill="none" stroke="#7F7F7F" stroke-miterlimit="10" stroke-width=".199" d="m52.195 30.379-8.504-14.73"/><path fill="none" stroke="#000" stroke-miterlimit="10" stroke-width=".399" d="M43.691 15.648H60.7"/><path fill="none" stroke="#7F7F7F" stroke-miterlimit="10" stroke-width=".199" d="m35.188 30.379-8.504-14.73"/><use xlink:href="#f" x="32.324" y="13.948"/><path fill="none" stroke="#7F7F7F" stroke-miterlimit="10" stroke-width=".199" d="m35.188.922 8.503 14.726"/><path fill="none" stroke="#000" stroke-miterlimit="10" stroke-width=".399" d="m35.188.922 7.199 5.664 1.304 9.062"/><path fill="none" stroke="#7F7F7F" stroke-miterlimit="10" stroke-width=".199" d="M43.691 15.648H26.684M26.684 15.648 35.187.922"/><path fill="none" stroke="#000" stroke-miterlimit="10" stroke-width=".399" d="m26.684 15.648 1.304-9.062 7.2-5.664"/><use xlink:href="#g" x="29.548" y="32.081"/><g clip-path="url(#h)"><path fill="none" stroke="#7F7F7F" stroke-miterlimit="10" stroke-width=".199" d="M26.684 45.11 18.18 30.378"/></g><g clip-path="url(#i)"><path fill="none" stroke="#000" stroke-miterlimit="10" stroke-width=".399" d="m26.684 45.11-7.2-5.665-1.304-9.066"/></g><path fill="none" stroke="#7F7F7F" stroke-miterlimit="10" stroke-width=".199" d="M18.18 30.379h17.008"/><g clip-path="url(#j)"><path fill="none" stroke="#7F7F7F" stroke-miterlimit="10" stroke-width=".199" d="m35.188 30.379-8.504 14.73"/></g><g clip-path="url(#k)"><path fill="none" stroke="#000" stroke-miterlimit="10" stroke-width=".399" d="m35.188 30.379-1.305 9.066-7.2 5.664"/></g><use xlink:href="#l" x="19.617" y="24.696"/><path fill="none" stroke="#000" stroke-miterlimit="10" stroke-width=".399" d="M9.676 15.648h17.008"/><path fill="none" stroke="#7F7F7F" stroke-miterlimit="10" stroke-width=".199" d="m26.684 15.648-8.504 14.73"/><use xlink:href="#m" x="13.886" y="26.346"/><path fill="none" stroke="#7F7F7F" stroke-miterlimit="10" stroke-width=".199" d="m1.172 30.379 8.504-14.73"/><path fill="none" stroke="#000" stroke-miterlimit="10" stroke-width=".399" d="m1.172 30.379 1.305-9.067 7.199-5.664"/><path fill="none" stroke="#7F7F7F" stroke-miterlimit="10" stroke-width=".199" d="m9.676 15.648 8.504 14.73"/><path fill="none" stroke="#000" stroke-miterlimit="10" stroke-width=".399" d="M18.18 30.379H1.172"/></svg>