<svg xmlns="http://www.w3.org/2000/svg" width="93.036" height="99.02"><path fill="#FF7F7F" d="M6.504 91.543c0-3.3-1.336-5.977-2.988-5.977-1.653 0-2.989 2.676-2.989 5.977 0 3.3 1.336 5.98 2.989 5.98s2.988-2.68 2.988-5.98M6.504 63.2c0-3.305-1.336-5.981-2.988-5.981-1.653 0-2.989 2.676-2.989 5.98 0 3.301 1.336 5.977 2.989 5.977s2.988-2.676 2.988-5.977M34.852 91.543c0-3.3-1.34-5.977-2.989-5.977-1.652 0-2.988 2.676-2.988 5.977 0 3.3 1.336 5.98 2.988 5.98 1.649 0 2.989-2.68 2.989-5.98M34.852 63.2c0-3.305-1.34-5.981-2.989-5.981-1.652 0-2.988 2.676-2.988 5.98 0 3.301 1.336 5.977 2.988 5.977 1.649 0 2.989-2.676 2.989-5.977M34.852 34.852c0-3.301-1.34-5.98-2.989-5.98-1.652 0-2.988 2.679-2.988 5.98 0 3.3 1.336 5.976 2.988 5.976 1.649 0 2.989-2.676 2.989-5.976M63.2 91.543c0-3.3-1.34-5.977-2.99-5.977s-2.991 2.676-2.991 5.977c0 3.3 1.34 5.98 2.992 5.98 1.648 0 2.988-2.68 2.988-5.98M63.2 63.2c0-3.305-1.34-5.981-2.99-5.981s-2.991 2.676-2.991 5.98c0 3.301 1.34 5.977 2.992 5.977 1.648 0 2.988-2.676 2.988-5.977M63.2 34.852c0-3.301-1.34-5.98-2.99-5.98s-2.991 2.679-2.991 5.98c0 3.3 1.34 5.976 2.992 5.976 1.648 0 2.988-2.676 2.988-5.976M63.2 6.504c0-3.3-1.34-5.977-2.99-5.977S57.22 3.203 57.22 6.504c0 3.3 1.34 5.976 2.992 5.976 1.648 0 2.988-2.675 2.988-5.976M91.547 91.543c0-3.3-1.34-5.977-2.992-5.977-1.649 0-2.989 2.676-2.989 5.977 0 3.3 1.34 5.98 2.989 5.98 1.652 0 2.992-2.68 2.992-5.98M91.547 63.2c0-3.305-1.34-5.981-2.992-5.981-1.649 0-2.989 2.676-2.989 5.98 0 3.301 1.34 5.977 2.989 5.977 1.652 0 2.992-2.676 2.992-5.977M91.547 34.852c0-3.301-1.34-5.98-2.992-5.98-1.649 0-2.989 2.679-2.989 5.98 0 3.3 1.34 5.976 2.989 5.976 1.652 0 2.992-2.676 2.992-5.976M91.547 6.504c0-3.3-1.34-5.977-2.992-5.977-1.649 0-2.989 2.676-2.989 5.977 0 3.3 1.34 5.976 2.989 5.976 1.652 0 2.992-2.675 2.992-5.976m0 0"/></svg>