<svg xmlns="http://www.w3.org/2000/svg" xmlns:xlink="http://www.w3.org/1999/xlink" width="92.684" height="94.898"><defs><path id="a" d="M5.516-.234c0-.235-.125-.235-.266-.235-.61-.015-.61-.14-.61-.375v-2.14c0-.891-.702-1.532-2.187-1.532-.562 0-1.781.047-1.781.922 0 .438.344.625.61.625.312 0 .624-.219.624-.625 0-.297-.187-.469-.218-.5a5 5 0 0 1 .718-.062c.75 0 1.11.422 1.11 1.172v.343c-.72.032-3.25.125-3.25 1.563C.266-.125 1.5.062 2.188.062c.796 0 1.265-.406 1.484-.828 0 .313 0 .766 1.047.766h.468c.204 0 .329 0 .329-.234m-2-1.157c0 .97-.922 1.094-1.172 1.094-.516 0-.906-.344-.906-.797 0-1.062 1.578-1.203 2.078-1.234Zm0 0"/><path id="b" d="M5.984-2.219c0-1.328-.937-2.265-2.39-2.265-.719 0-1.219.28-1.453.484v-2.922l-1.766.078v.469c.61 0 .688 0 .688.39V0h.468c.157-.187.328-.375.485-.562.078.078.562.625 1.453.625 1.484 0 2.515-.907 2.515-2.282m-1.28 0c0 .469 0 1.016-.25 1.406-.298.407-.75.516-1.079.516-.687 0-1.078-.547-1.187-.687v-2.5c.28-.36.75-.641 1.296-.641 1.22 0 1.22 1.203 1.22 1.906m0 0"/><path id="c" d="M4.766-1.172c0-.14-.141-.14-.235-.14-.187 0-.187.03-.25.156-.25.625-.734.812-1.234.812-1.39 0-1.39-1.453-1.39-1.922 0-.562 0-1.843 1.28-1.843.36 0 .516.015.657.046a.62.62 0 0 0-.203.47c0 .437.343.624.609.624.313 0 .64-.219.64-.625 0-.86-1.156-.922-1.734-.922C1.11-4.516.375-3.375.375-2.219.375-.89 1.313.063 2.844.063c1.625 0 1.922-1.157 1.922-1.235m0 0"/><path id="d" d="M5.984 0v-.469c-.609 0-.687 0-.687-.39v-6.063l-1.766.078v.469c.625 0 .703 0 .703.39v1.954a2.18 2.18 0 0 0-1.359-.453c-1.453 0-2.5.875-2.5 2.28 0 1.313.922 2.267 2.39 2.267.61 0 1.094-.235 1.407-.485v.485ZM4.172-1.031c-.14.187-.547.734-1.297.734-1.219 0-1.219-1.203-1.219-1.906 0-.485 0-1.016.25-1.406.297-.422.766-.516 1.078-.516.563 0 .97.313 1.188.61Zm0 0"/><path id="e" d="M4.922-1.172c0-.172-.188-.172-.234-.172-.172 0-.188.047-.25.203-.204.485-.782.797-1.422.797-1.407 0-1.422-1.328-1.422-1.828h3.015c.22 0 .313 0 .313-.265 0-.313-.063-1.047-.563-1.547-.359-.36-.89-.532-1.578-.532C1.187-4.516.313-3.484.313-2.25c0 1.344 1 2.313 2.609 2.313 1.578 0 2-1.063 2-1.235M3.984-2.5h-2.39c.015-.39.031-.812.234-1.14.266-.391.672-.516.953-.516 1.172 0 1.188 1.312 1.203 1.656m0 0"/><path id="f" d="M5.563-3.953c0-.235-.172-.578-.625-.578-.157 0-.625.031-1.063.375-.172-.125-.594-.328-1.328-.328-1.438 0-1.985.78-1.985 1.468 0 .407.188.829.516 1.047-.281.36-.344.688-.344.89 0 .157.047.642.438.954-.125.031-.86.25-.86.875C.313 1.25.876 2 2.86 2 4.625 2 5.406 1.422 5.406.719c0-.297-.078-.922-.75-1.266-.562-.281-1.156-.281-2.11-.281-.265 0-.718 0-.765-.016a.625.625 0 0 1-.562-.625c0-.093.047-.25.11-.328.452.234.968.266 1.218.266 1.437 0 1.984-.782 1.984-1.485 0-.468-.25-.796-.406-.953.297-.156.516-.172.625-.187a.43.43 0 0 0-.047.203c0 .25.172.422.438.422a.41.41 0 0 0 .422-.422m-2.141.937c0 .454 0 1.125-.875 1.125s-.875-.671-.875-1.125c0-.437 0-1.109.875-1.109s.875.672.875 1.11M4.547.75c0 .36-.39.89-1.688.89-1.187 0-1.687-.452-1.687-.906 0-.609.625-.609.766-.609h1.171c.313 0 1.438 0 1.438.625m0 0"/><path id="g" d="M6.125 0v-.469h-.687v-2.578c0-1.047-.532-1.437-1.532-1.437a1.9 1.9 0 0 0-1.687.953v-3.39l-1.766.077v.469c.61 0 .688 0 .688.39v5.516H.453V0l1.25-.031L2.953 0v-.469h-.687v-2.078c0-1.094.859-1.578 1.5-1.578.328 0 .547.203.547.969V-.47h-.688V0l1.25-.031Zm0 0"/><path id="h" d="M2.844 0v-.469h-.61v-4.015L.5-4.406v.468c.594 0 .656 0 .656.391v3.078H.47V0l1.219-.031Zm-.469-6.047a.774.774 0 0 0-.781-.781.784.784 0 0 0-.782.781c0 .422.36.766.782.766a.77.77 0 0 0 .781-.766m0 0"/><path id="i" d="M2.656.422v-4.906l-1.828.078v.468c.172 0 .39 0 .531.016.22.047.22.172.22.39V.423c0 .5-.141 1.219-.735 1.219-.172 0-.25-.032-.39-.063a.62.62 0 0 0 .233-.5.617.617 0 0 0-.624-.625c-.375 0-.625.281-.625.64 0 .563.609.907 1.421.907.86 0 1.797-.531 1.797-1.578m0-6.469a.774.774 0 1 0-1.547-.015.774.774 0 0 0 1.547.015m0 0"/><path id="j" d="M5.86 0v-.469h-.173c-.437 0-.468-.047-.593-.203L3.406-2.766 4.703-3.78c.14-.11.234-.172.906-.172v-.469c-.28.031-.53.031-.78.031l-1.157-.03v.468c.234 0 .265.031.344.11L2.14-2.36v-4.563l-1.766.078v.469c.61 0 .688 0 .688.39v5.516H.375V0l1.188-.031L2.766 0v-.469h-.688v-1.265c.297-.235.375-.297.578-.422l1 1.25c.094.125.25.312.25.344 0 .093-.172.093-.312.093V0a53 53 0 0 1 1.219-.031c.359 0 .703.015 1.046.031m0 0"/><clipPath id="k"><path d="M57 5h35.527v83H57Zm0 0"/></clipPath></defs><use xlink:href="#a" x=".871" y="6.623"/><use xlink:href="#b" x=".473" y="36.17"/><use xlink:href="#c" x="29.457" y="6.623"/><use xlink:href="#d" x="28.819" y="36.17"/><use xlink:href="#e" x="29.377" y="63.316"/><path fill="none" stroke="#000" stroke-miterlimit="10" stroke-width=".399" d="M9.96 4.398h15.58"/><path fill="none" stroke="#000" stroke-linecap="round" stroke-linejoin="round" stroke-miterlimit="10" stroke-width=".399" d="M23.664 2.008c.379 1.433 1.223 2.11 2.074 2.39-.851.278-1.695.954-2.074 2.391"/><path fill="none" stroke="#000" stroke-miterlimit="10" stroke-width=".399" d="m9.46 10.203 15.56 15.559"/><path fill="none" stroke="#000" stroke-linecap="round" stroke-linejoin="round" stroke-miterlimit="10" stroke-width=".39899202" d="M25.383 22.746c-.746 1.281-.63 2.356-.223 3.156-.8-.406-1.875-.523-3.156.223"/><path fill="none" stroke="#000" stroke-miterlimit="10" stroke-width=".399" d="M6.559 10.203 28.922 54.93"/><path fill="none" stroke="#000" stroke-linecap="round" stroke-linejoin="round" stroke-miterlimit="10" stroke-width=".39898005000000003" d="M30.223 52.184c-1.114.98-1.34 2.039-1.211 2.921-.63-.636-1.614-1.085-3.067-.785"/><path fill="none" stroke="#000" stroke-miterlimit="10" stroke-width=".399" d="m10.36 26.043 15.554-15.559"/><path fill="none" stroke="#000" stroke-linecap="round" stroke-linejoin="round" stroke-miterlimit="10" stroke-width=".39899202" d="M22.902 10.117c1.282.75 2.356.63 3.153.227-.403.797-.52 1.875.226 3.156"/><path fill="none" stroke="#000" stroke-miterlimit="10" stroke-width=".399" d="M10.36 32.742h14.542"/><path fill="none" stroke="#000" stroke-linecap="round" stroke-linejoin="round" stroke-miterlimit="10" stroke-width=".399" d="M23.027 30.352c.38 1.437 1.223 2.113 2.075 2.39-.852.281-1.696.957-2.075 2.395"/><path fill="none" stroke="#000" stroke-miterlimit="10" stroke-width=".399" d="m10.36 39.445 15.554 15.559"/><path fill="none" stroke="#000" stroke-linecap="round" stroke-linejoin="round" stroke-miterlimit="10" stroke-width=".39899202" d="M26.281 51.988c-.746 1.282-.629 2.356-.226 3.157-.797-.407-1.871-.524-3.153.222"/><use xlink:href="#f" x="57.484" y="5.662"/><use xlink:href="#g" x="57.165" y="36.2"/><use xlink:href="#h" x="58.759" y="64.502"/><use xlink:href="#i" x="58.6" y="91.852"/><path fill="none" stroke="#000" stroke-miterlimit="10" stroke-width=".399" d="M38.066 4.398h15.899M37.809 10.203l15.84 15.84M34.906 10.203l21.98 43.957M33.938 10.203 57.71 81.508M38.707 26.043l15.258-15.262M38.707 32.742h14.941M38.707 39.445l16.535 16.54M35.504 39.75l20.883 41.758M34.906 55.285l22.051-44.101M37.809 55.285l15.84-15.84M38.148 61.09h17.094M37.809 66.898l17.273 17.274"/><use xlink:href="#j" x="85.671" y="7.854"/><path fill="none" stroke="#000" stroke-miterlimit="10" stroke-width=".399" d="M66.734 4.398h15.418M67.05 26.043l15.102-15.102M63.816 54.16l21.395-42.785"/><g clip-path="url(#k)"><path fill="none" stroke="#000" stroke-miterlimit="10" stroke-width=".399" d="m62.992 81.508 23.383-70.133"/></g></svg>