<svg xmlns="http://www.w3.org/2000/svg" width="30.368" height="51.122"><defs><clipPath id="a"><path d="M0 0h30v50.684H0Zm0 0"/></clipPath><clipPath id="b"><path d="M29.043 25.129C29.043 9.473 16.355-3.22.699-3.22S-27.648 9.473-27.648 25.13c0 15.652 12.691 28.344 28.347 28.344S29.043 40.78 29.043 25.129m0 0"/></clipPath></defs><g clip-path="url(#a)"><g clip-path="url(#b)"><path fill="red" d="M57.39 25.129C57.39 9.473 44.7-3.22 29.044-3.22 13.391-3.219.699 9.473.699 25.13c0 15.652 12.692 28.344 28.344 28.344 15.656 0 28.348-12.692 28.348-28.344m0 0"/></g></g></svg>