<svg xmlns="http://www.w3.org/2000/svg" xmlns:xlink="http://www.w3.org/1999/xlink" width="95.546" height="44.264"><defs><path id="a" d="M4.688-.375c0-.36-.282-.375-.47-.375H3.032v-4.86c0-.359-.078-.484-.469-.484h-1.53c-.188 0-.485.016-.485.375 0 .36.297.375.469.375h1.187V-.75H1.031c-.187 0-.484.016-.484.375 0 .36.297.375.469.375h3.203c.172 0 .468-.016.468-.375m0 0"/><path id="b" d="M4.656-1.14c0-.329-.343-.344-.422-.344-.218 0-.312.03-.39.265-.203.453-.688.532-.938.532-.672 0-1.344-.422-1.515-1.172h2.797c.25 0 .468 0 .468-.438 0-1.14-.656-2.125-1.968-2.125-1.188 0-2.172 1-2.172 2.234C.516-.952 1.53.063 2.828.063c1.36 0 1.828-.937 1.828-1.203m-.86-1.454H1.392c.172-.625.687-1.078 1.297-1.078.468 0 1 .219 1.109 1.078m0 0"/><path id="c" d="M5.11-.375c0-.36-.282-.375-.47-.375h-.343v-2.172c0-1.031-.531-1.469-1.344-1.469-.562 0-.953.22-1.203.407 0-.25-.078-.36-.469-.36H.578c-.187 0-.469.016-.469.375 0 .36.297.375.454.375h.359V-.75H.578C.391-.75.11-.734.11-.375c0 .36.297.375.454.375h1.546c.172 0 .47-.016.47-.375 0-.36-.282-.375-.47-.375H1.75v-1.64c0-.907.688-1.266 1.14-1.266.47 0 .579.25.579.781V-.75h-.297c-.188 0-.485.016-.485.375 0 .36.313.375.485.375h1.484c.157 0 .453-.016.453-.375m0 0"/><path id="d" d="M5.094-3.844c0-.25-.203-.61-.782-.61-.109 0-.578.016-1.046.329-.172-.11-.5-.266-.938-.266-.953 0-1.687.75-1.687 1.625 0 .407.156.72.312.922-.11.157-.187.375-.187.657 0 .312.109.546.187.671C.266-.046.266.61.266.72c0 .86 1.047 1.5 2.343 1.5s2.344-.64 2.344-1.5c0-.375-.187-.89-.703-1.172-.14-.078-.547-.297-1.453-.297h-.688c-.171 0-.39.047-.53-.125-.095-.11-.11-.297-.11-.297 0-.031.015-.094.031-.156.14.078.469.203.828.203.938 0 1.688-.734 1.688-1.64 0-.282-.079-.547-.235-.813.156-.078.297-.094.406-.125a.48.48 0 0 0 .438.328c.203 0 .469-.14.469-.469M3.187-2.766c0 .5-.39.907-.859.907-.484 0-.86-.422-.86-.907 0-.5.391-.89.86-.89s.86.422.86.89M4.235.72c0 .406-.703.765-1.625.765-.921 0-1.625-.359-1.625-.765 0-.156.079-.438.375-.625.22-.14.313-.14 1-.14.813 0 1.875 0 1.875.765m0 0"/><path id="e" d="M4.5-1.312c0-.204 0-.438-.422-.438-.39 0-.406.234-.406.438 0 .53-.5.625-.719.625-.656 0-.656-.454-.656-.672v-2.235h1.515c.172 0 .47-.015.47-.375 0-.375-.282-.375-.47-.375H2.298v-.718c0-.22-.016-.47-.406-.47-.422 0-.422.235-.422.47v.718H.703c-.187 0-.469.016-.469.375 0 .36.282.375.454.375h.78v2.282c0 1 .688 1.375 1.454 1.375.75 0 1.578-.454 1.578-1.375m0 0"/><path id="f" d="M5.11-.375c0-.36-.282-.375-.47-.375h-.343v-2.172c0-1.031-.531-1.469-1.344-1.469a2 2 0 0 0-1.203.407V-5.61c0-.36-.062-.485-.469-.485H.578c-.187 0-.469.016-.469.375 0 .36.297.375.454.375h.359V-.75H.578C.391-.75.11-.734.11-.375c0 .36.297.375.454.375h1.546c.172 0 .47-.016.47-.375 0-.36-.282-.375-.47-.375H1.75v-1.64c0-.907.688-1.266 1.14-1.266.47 0 .579.25.579.781V-.75h-.297c-.188 0-.485.016-.485.375 0 .36.313.375.485.375h1.484c.157 0 .453-.016.453-.375m0 0"/></defs><path d="M50.395 14.543h21.257c7.828 0 14.176 6.348 14.176 14.176 0 7.824-6.348 14.172-14.176 14.172H50.395Zm0 0"/><path fill="none" stroke="#7F7F7F" stroke-miterlimit="10" stroke-width="28.347" d="M.785 28.719h70.867"/><path fill="none" stroke="red" stroke-miterlimit="10" stroke-width=".598" d="M72.848 10.559h11.785"/><path fill="none" stroke="red" stroke-linecap="round" stroke-linejoin="round" stroke-miterlimit="10" stroke-width=".598" d="M74.863 13.309c-.425-1.649-1.363-2.43-2.312-2.75.949-.32 1.886-1.102 2.312-2.75"/><path fill="none" stroke="red" stroke-miterlimit="10" stroke-width=".598" d="M71.953 13.25V7.867"/><path fill="none" stroke="red" stroke-linecap="round" stroke-linejoin="round" stroke-miterlimit="10" stroke-width=".598" d="M82.617 7.809c.426 1.648 1.363 2.43 2.313 2.75-.95.32-1.887 1.101-2.313 2.75"/><path fill="none" stroke="red" stroke-miterlimit="10" stroke-width=".598" d="M85.527 7.867v5.383"/><g fill="red"><use xlink:href="#a" x="63.049" y="6.71"/><use xlink:href="#b" x="68.279" y="6.71"/><use xlink:href="#c" x="73.51" y="6.71"/><use xlink:href="#d" x="78.74" y="6.71"/><use xlink:href="#e" x="83.971" y="6.71"/><use xlink:href="#f" x="89.201" y="6.71"/></g></svg>