<svg xmlns="http://www.w3.org/2000/svg" width="102.044" height="99.38"><defs><clipPath id="a"><path d="M43 40h58v56H43Zm0 0"/></clipPath><clipPath id="b"><path d="M100.152 69.313c0-15.657-12.691-28.348-28.347-28.348S43.457 53.656 43.457 69.312 56.148 97.66 71.805 97.66s28.347-12.691 28.347-28.347m0 0"/></clipPath><clipPath id="c"><path d="M32 29h69.566v70.07H32Zm0 0"/></clipPath><clipPath id="d"><path d="M0 71h30v13H0Zm0 0"/></clipPath><clipPath id="e"><path d="M29.285 69.313c0-7.829-6.347-14.176-14.172-14.176-7.828 0-14.175 6.347-14.175 14.176s6.347 14.171 14.175 14.171c7.825 0 14.172-6.343 14.172-14.171m0 0"/></clipPath></defs><path fill="none" stroke="#000" stroke-miterlimit="10" stroke-width=".399" d="M.938 33.879h2.101v-2.102h2.098v2.102h2.101v-2.102H5.137V29.68h2.101v-2.102h2.098V25.48h2.101v2.098h2.098v2.102h2.102v2.097h-2.102v2.102h2.102v-2.102h2.097v2.102h2.102v-2.102h-2.102V29.68h2.102v-2.102h-2.102v2.102h-2.097v-2.102h-2.102V25.48h-2.097V23.38h2.097V21.28h2.102V19.18h2.097v2.101h2.102V19.18h-2.102v-2.098h2.102V14.98h2.098V12.88h2.101v2.101h2.098V12.88h-2.098V10.78h2.098V8.68h2.101V6.582h2.098V8.68h2.102v2.101h2.101v2.098h-2.101v2.101h2.101V12.88h2.098v2.101h2.101v2.102h2.098v2.098h-2.098v2.101h2.098V19.18h2.102v2.101h2.097v2.098h2.102v2.101H45.03v2.098h-2.097v2.102h-2.102v-2.102h-2.098v2.102h2.098v2.097h-2.098v2.102h2.098v-2.102h2.102v2.102h2.097v-2.102h-2.097V29.68h2.097v-2.102h2.102V25.48h2.097v2.098h2.102v2.102h2.102v2.097h-2.102v2.102h2.102v-2.102h2.097v2.102h2.102"/><path fill="none" stroke="red" stroke-miterlimit="10" stroke-width=".199" d="M55.742 25.375a9.45 9.45 0 0 0-9.449-9.45 9.45 9.45 0 0 0-9.45 9.45 9.45 9.45 0 0 0 9.45 9.45 9.45 9.45 0 0 0 9.45-9.45Zm0 0"/><g clip-path="url(#a)"><g clip-path="url(#b)"><path fill="none" stroke="#000" stroke-miterlimit="10" stroke-width="1.197" d="M-64.262 94.824h6.301v-6.3h6.297v6.3h6.3v-6.3h-6.296v-6.297h6.297v-6.301h6.3v-6.297h6.297v6.297h6.301v6.3h6.297v6.297h-6.297v6.301h6.297v-6.3h6.3v6.3h6.302v-6.3h-6.301v-6.297h6.3v-6.301h-6.3v6.3h-6.297v-6.3h-6.3v-6.297h-6.302v-6.3h6.301v-6.302h6.3V50.73h6.298v6.297h6.3V50.73h-6.3v-6.3h6.3v-6.301h6.297v-6.297h6.301v6.297h6.297v-6.297H5.031v-6.3h6.297v-6.298h6.3v-6.3h6.302v6.3h6.297v6.297h6.3v6.301h-6.3v6.297h6.3v-6.297h6.297v6.297h6.301v6.3h6.3v6.301h-6.3v6.297h6.3V50.73h6.298v6.297h6.3v6.301h6.297v6.297h-6.297v6.3h-6.3v6.298h-6.297v-6.297h-6.301v6.297h6.3v6.3h-6.3v6.301h6.3v-6.3h6.298v6.3h6.3v-6.3h-6.3v-6.297h6.3v-6.301h6.301v-6.301h6.297v6.3h6.3v6.298h6.302v6.3h-6.301v6.301h6.3v-6.3h6.298v6.3h6.3"/></g></g><g clip-path="url(#c)"><path fill="none" stroke="red" stroke-miterlimit="10" stroke-width=".797" d="M100.152 69.313c0-15.657-12.691-28.348-28.347-28.348S43.457 53.656 43.457 69.312 56.148 97.66 71.805 97.66s28.347-12.691 28.347-28.347Zm0 0"/></g><path fill="none" stroke="red" stroke-miterlimit="10" stroke-width=".399" d="m51.04 33.543 6.53 11.254"/><path fill="none" stroke="#00F" stroke-miterlimit="10" stroke-width=".199" d="M34.008 5.531a4.725 4.725 0 0 0-9.45 0 4.725 4.725 0 0 0 9.45 0Zm0 0"/><g clip-path="url(#d)"><g clip-path="url(#e)"><path fill="none" stroke="#000" stroke-miterlimit="10" stroke-width="1.197" d="M-69.93 154.352h6.301v-6.301h6.297v6.3h6.3v-6.3h-6.3v-6.297h6.3v-6.3h6.302v-6.298h6.296v6.297h6.301v6.3h6.297v6.298h-6.297v6.3h6.297v-6.3h6.3v6.3h6.302v-6.3h-6.301v-6.297h6.3v-6.3h-6.3v6.3h-6.297v-6.3h-6.3v-6.298h-6.302v-6.3h6.301v-6.297h6.301v-6.301h6.297v6.3h6.3v-6.3h-6.3v-6.301h6.3V97.66h6.298v-6.3h6.3v6.3H5.66v-6.3H-.637v-6.297H5.66v-6.301h6.3V72.46h6.298v6.3h6.3v6.298h6.301v6.3h-6.3v6.301h6.3v-6.3h6.297v6.3h6.301v6.297h6.3v6.3h-6.3v6.298h6.3v-6.297h6.298v6.297h6.3v6.3h6.297v6.297h-6.297v6.301h-6.3v6.3h-6.297v-6.3h-6.301v6.3h6.3v6.298h-6.3v6.3h6.3v-6.3h6.298v6.3h6.3v-6.3h-6.3v-6.297h6.3v-6.3h6.301v-6.302h6.297v6.301h6.3v6.3h6.298v6.298h-6.297v6.3h6.3v-6.3h6.298v6.3h6.3"/></g></g><path fill="none" stroke="#00F" stroke-miterlimit="10" stroke-width=".797" d="M29.285 69.313c0-7.829-6.347-14.176-14.172-14.176-7.828 0-14.175 6.347-14.175 14.176s6.347 14.171 14.175 14.171c7.825 0 14.172-6.343 14.172-14.171Zm0 0"/><path fill="none" stroke="#00F" stroke-miterlimit="10" stroke-width=".399" d="M28.262 10.145 18.188 55.477"/><path fill="none" stroke="#007F00" stroke-miterlimit="10" stroke-width="1.594" d="m27.547 62.512 24.215-13.246"/></svg>