<svg xmlns="http://www.w3.org/2000/svg" xmlns:xlink="http://www.w3.org/1999/xlink" width="227.648" height="267.446"><defs><path id="a" d="M9.984-1.094c0-.203-.093-.25-.25-.25-.234 0-.25.094-.25.25-.062.594-.437.844-.765.844-.766 0-.86-.797-.953-1.906-.063-.625-.157-1.516-1.438-1.906 1.61-.438 2-1.297 2-1.938 0-1.203-1.25-2.203-3.469-2.203H.453v.515H1.72v7.172H.453V0C.797-.031 2.047-.031 2.47-.031c.437 0 1.687 0 2.031.031v-.516H3.234v-3.39h1.422c.485 0 .86.14 1.125.453.36.406.36.672.36 1.469s0 1.297.609 1.703C7.375.125 8.36.14 8.625.14c1.219 0 1.36-1.078 1.36-1.235M6.641-6c0 .656 0 1.703-2 1.703H3.234v-3.39h1.422c1.953 0 1.985.984 1.985 1.687m0 0"/><path id="b" d="M6.328-2.625c0-1.61-1.094-2.797-2.969-2.797-1.953 0-2.984 1.25-2.984 2.797C.375-1.047 1.469.078 3.344.078c1.953 0 2.984-1.187 2.984-2.703m-1.422-.11c0 .985 0 2.376-1.547 2.376S1.813-1.75 1.813-2.734c0-.563 0-1.157.218-1.594.266-.484.797-.688 1.313-.688.687 0 1.11.313 1.312.657.25.422.25 1.047.25 1.625m0 0"/><path id="c" d="M4.469-1.484v-.625h-.5v.609c0 .797-.36 1.14-.735 1.14-.718 0-.718-.796-.718-1.078v-3.359H4.25v-.516H2.516v-2.28h-.5c0 1.187-.578 2.374-1.766 2.406v.39h.969v3.328c0 1.266.984 1.547 1.844 1.547.874 0 1.406-.672 1.406-1.562m0 0"/><path id="d" d="M5.594-1.406c0-.14-.125-.14-.25-.14-.188 0-.203.015-.266.155-.078.235-.406 1.032-1.5 1.032-1.687 0-1.687-1.813-1.687-2.36 0-.703.015-2.265 1.578-2.265.078 0 .781.03.781.078 0 0 0 .031-.031.047a.73.73 0 0 0-.188.515c0 .5.407.703.703.703.25 0 .704-.156.704-.718 0-.985-1.375-1.063-2.016-1.063-2.125 0-2.969 1.39-2.969 2.766 0 1.625 1.14 2.734 2.89 2.734 1.876 0 2.25-1.39 2.25-1.484m0 0"/><path id="e" d="M7.172 0v-.516h-.828v-3.14c0-1.14-.485-1.719-1.797-1.719-.86 0-1.61.422-2.016 1.313h-.015v-1.313L.5-5.281v.515c.75 0 .828 0 .828.47v3.78H.5V0c.281-.031 1.14-.031 1.469-.031.343 0 1.203 0 1.484.031v-.516h-.828v-2.546c0-1.282.953-1.922 1.719-1.922.453 0 .703.28.703 1.187v3.281h-.828V0c.281-.031 1.14-.031 1.468-.031.344 0 1.204 0 1.485.031m0 0"/><path id="f" d="M5.75-1.406c0-.172-.187-.172-.25-.172-.187 0-.203.031-.281.187-.313.782-1.094 1.032-1.672 1.032-1.735 0-1.735-1.61-1.735-2.282h3.594c.266 0 .344 0 .344-.296 0-.36-.078-1.266-.64-1.813-.5-.516-1.173-.672-1.86-.672-1.86 0-2.875 1.219-2.875 2.734C.375-1.016 1.609.079 3.406.079 5.22.078 5.75-1.187 5.75-1.406M4.656-2.984H1.813c.015-.5.03-.953.28-1.391a1.32 1.32 0 0 1 1.157-.64c1.281 0 1.39 1.437 1.406 2.03m0 0"/><path id="g" d="M7-2.672c0-1.64-1.11-2.703-2.719-2.703-.703 0-1.312.234-1.797.625v-.625l-2.062.094v.515c.734 0 .828 0 .828.47v6.109H.422v.5c.266-.016 1.125-.016 1.469-.016.328 0 1.203 0 1.484.015v-.5h-.828V-.483c.297.25.828.562 1.547.562C5.719.078 7-.922 7-2.672m-1.437 0c0 1.735-.86 2.344-1.625 2.344-.5 0-1.016-.25-1.391-.813v-3.046a2 2 0 0 1 1.547-.766c.765 0 1.468.703 1.468 2.281m0 0"/><path id="h" d="M4.406-1.047c0-.14-.125-.14-.234-.14-.172 0-.172.015-.25.171-.172.438-.578.688-1.11.688-1.265 0-1.265-1.297-1.265-1.703 0-.531 0-1.64 1.172-1.64.078 0 .562 0 .562.046l-.031.047a.6.6 0 0 0-.125.375c0 .36.281.578.594.578a.57.57 0 0 0 .578-.594c0-.844-1.25-.844-1.61-.844C.97-4.062.345-2.968.345-1.983c0 1.125.812 2.03 2.297 2.03.343 0 .78-.046 1.156-.28.515-.313.61-.782.61-.813m0 0"/><path id="i" d="M5.656 0v-.437h-.61v-2.297c0-1.063-.655-1.297-1.437-1.297-.843 0-1.328.484-1.562.843v-3.03l-1.594.062v.437c.531 0 .61 0 .61.36v4.922h-.61V0l1.125-.031L2.718 0v-.437H2.11v-1.844c0-1 .829-1.39 1.36-1.39.344 0 .515.187.515.858v2.376h-.609V0l1.14-.031Zm0 0"/><path id="j" d="M2.625 0v-.437h-.547v-3.594L.5-3.97v.438c.516 0 .578 0 .578.36v2.734h-.61V0c.595-.016.72-.031 1.095-.031.437 0 .546.015 1.062.031m-.453-5.422a.713.713 0 0 0-.703-.719.71.71 0 0 0-.703.704.7.7 0 0 0 .703.703.697.697 0 0 0 .703-.688m0 0"/><path id="k" d="M2.688 0v-.437h-.61V-6.22l-1.61.063v.437c.532 0 .61 0 .61.36v4.922h-.61V0l1.095-.031Zm0 0"/><path id="l" d="M5.516 0v-.437c-.532 0-.61 0-.61-.36v-5.422l-1.61.063v.437c.548 0 .61 0 .61.36v1.734a2 2 0 0 0-1.25-.406c-1.453 0-2.312.89-2.312 2.047 0 1.187.844 2.03 2.219 2.03.562 0 1-.202 1.296-.437v.438ZM3.859-.984a1.43 1.43 0 0 1-1.203.672c-1.11 0-1.11-1.063-1.11-1.657 0-.531 0-.906.235-1.234.235-.36.672-.469.985-.469.437 0 .812.188 1.093.547Zm0 0"/><clipPath id="m"><path d="M145 84h82.473v99H145Zm0 0"/></clipPath><clipPath id="n"><path d="M103 184h99v83.168h-99Zm0 0"/></clipPath></defs><path fill="none" stroke="#7F7F7F" stroke-linecap="round" stroke-miterlimit="10" stroke-width="2.835" d="m166.836 67.926 12.766 30.824M152.46 70.785V196.11M179.602 168.148l-12.766 30.825"/><path fill="#CCF" stroke="#CCF" stroke-miterlimit="10" stroke-width="1.196" d="M103.043 133.45c0-28.06-22.746-50.805-50.8-50.805-28.06 0-50.805 22.746-50.805 50.804 0 28.055 22.746 50.801 50.804 50.801 28.055 0 50.801-22.746 50.801-50.8Zm0 0"/><use xlink:href="#a" x="13.199" y="136.389"/><use xlink:href="#b" x="23.229" y="136.389"/><use xlink:href="#b" x="30.331" y="136.389"/><use xlink:href="#c" x="37.062" y="136.389"/><use xlink:href="#d" x="46.279" y="136.389"/><use xlink:href="#b" x="52.257" y="136.389"/><use xlink:href="#e" x="58.987" y="136.389"/><use xlink:href="#d" x="66.459" y="136.389"/><use xlink:href="#f" x="72.437" y="136.389"/><use xlink:href="#g" x="78.57" y="136.389"/><use xlink:href="#c" x="86.042" y="136.389"/><path fill="#CCF" stroke="#CCF" stroke-miterlimit="10" stroke-width="1.196" d="M184.352 33.227c0-17.614-14.278-31.891-31.891-31.891s-31.89 14.277-31.89 31.89c0 17.614 14.277 31.891 31.89 31.891s31.89-14.277 31.89-31.89Zm0 0"/><use xlink:href="#h" x="141.41" y="36.313"/><use xlink:href="#i" x="145.83" y="36.313"/><use xlink:href="#j" x="151.721" y="36.313"/><use xlink:href="#k" x="154.671" y="36.313"/><use xlink:href="#l" x="157.621" y="36.313"/><path fill="#CCF" d="M73.71 87.406a50.83 50.83 0 0 1 24.575 24.57c-5.37-11.507.832-21.456 9.813-30.437l-3.946-3.95c-8.98 8.981-18.93 15.184-30.441 9.817m42.903-22.273-12.46 12.457 3.945 3.95 12.46-12.462Zm6.895-18.375a31.9 31.9 0 0 0 15.426 15.426c-7.227-3.371-12.739 1.257-18.375 6.894l-3.946-3.945c5.637-5.64 10.262-11.153 6.895-18.375M225.867 133.45c0-17.614-14.281-31.891-31.89-31.891-17.614 0-31.891 14.277-31.891 31.89s14.277 31.89 31.89 31.89c17.61 0 31.891-14.276 31.891-31.89m0 0"/><g clip-path="url(#m)"><path fill="none" stroke="#CCF" stroke-miterlimit="10" stroke-width="1.196" d="M225.867 133.45c0-17.614-14.281-31.891-31.89-31.891-17.614 0-31.891 14.277-31.891 31.89s14.277 31.89 31.89 31.89c17.61 0 31.891-14.276 31.891-31.89Zm0 0"/></g><use xlink:href="#h" x="182.922" y="136.533"/><use xlink:href="#i" x="187.342" y="136.533"/><use xlink:href="#j" x="193.233" y="136.533"/><use xlink:href="#k" x="196.183" y="136.533"/><use xlink:href="#l" x="199.133" y="136.533"/><path fill="#CCF" d="M99.98 116.074a50.84 50.84 0 0 1 0 34.75c4.344-11.933 15.762-14.586 28.465-14.586v-5.582c-12.703 0-24.12-2.648-28.465-14.582m28.465 20.164h17.696v-5.582h-17.696Zm35.563-13.699a31.92 31.92 0 0 0 0 21.816c-2.727-7.492-9.895-8.117-17.867-8.117v-5.582c7.972 0 15.14-.625 17.867-8.117M184.352 233.668c0-17.613-14.278-31.89-31.891-31.89s-31.89 14.277-31.89 31.89 14.277 31.89 31.89 31.89 31.89-14.277 31.89-31.89m0 0"/><g clip-path="url(#n)"><path fill="none" stroke="#CCF" stroke-miterlimit="10" stroke-width="1.196" d="M184.352 233.668c0-17.613-14.278-31.89-31.891-31.89s-31.89 14.277-31.89 31.89 14.277 31.89 31.89 31.89 31.89-14.277 31.89-31.89Zm0 0"/></g><use xlink:href="#h" x="141.41" y="236.753"/><use xlink:href="#i" x="145.83" y="236.753"/><use xlink:href="#j" x="151.721" y="236.753"/><use xlink:href="#k" x="154.671" y="236.753"/><use xlink:href="#l" x="157.621" y="236.753"/><path fill="#CCF" d="M98.285 154.918a50.84 50.84 0 0 1-24.574 24.574c11.512-5.37 21.46.832 30.441 9.813l3.946-3.946c-8.98-8.98-15.184-18.93-9.813-30.441m22.274 42.902-12.461-12.46-3.946 3.945 12.461 12.46Zm18.375 6.895a31.87 31.87 0 0 0-15.426 15.426c3.367-7.227-1.258-12.739-6.895-18.375l3.946-3.946c5.636 5.637 11.148 10.262 18.375 6.895m0 0"/></svg>