<svg xmlns="http://www.w3.org/2000/svg" xmlns:xlink="http://www.w3.org/1999/xlink" width="87.248" height="58.988"><defs><path id="b" d="m7.672-3.844-.203-.422-.969.485-2.64-5.281.968-.485-.219-.422c-.328.219-1.203.64-1.593.844-.375.188-1.235.625-1.61.766l.219.422.969-.485L3.75-6.094.89-4.656-.265-6.984l.954-.485-.22-.422c-.312.204-1.187.625-1.577.829-.375.187-1.25.625-1.61.765l.219.422.969-.484 2.64 5.28-.968.485.203.422C.672-.375 1.547-.812 1.922-1c.39-.203 1.266-.625 1.61-.766l-.204-.421-.953.484L1.094-4.25l2.86-1.437 1.28 2.546-.968.485.203.422a37 37 0 0 1 1.578-.828 38 38 0 0 1 1.625-.782m0 0"/><path id="c" d="m2.547-1.266-.203-.421-.547.265L0-5.016l-1.516.86.204.422c.53-.266.578-.297.75.046l1.39 2.75-.61.313.204.422L1.5-.781ZM-.578-6.469a.786.786 0 0 0-1.047-.36.793.793 0 0 0-.344 1.063.77.77 0 0 0 1.032.329.77.77 0 0 0 .359-1.032m0 0"/><path id="d" d="M-.562-6.766c-.172-.359-.641-.484-1.016-.296-.39.187-.563.64-.39 1 .03.03.046.062.093.125L.219-2.922c.14.203.156.219.344.125.171-.078.187-.11.109-.297L-.516-6.656Zm2.468 4.938A.794.794 0 0 0 .86-2.172.76.76 0 0 0 .516-1.14a.78.78 0 0 0 1.047.36.79.79 0 0 0 .343-1.047m0 0"/><clipPath id="a"><path d="M0 23h64v35.98H0Zm0 0"/></clipPath></defs><path fill="none" stroke="#7F7F7F" stroke-miterlimit="10" stroke-width=".199" d="M.734 57.785h85.04M.733 29.441h85.04M.733 1.101h85.04M.733 57.786V1.094m28.344 56.691V1.094m28.348 56.691V1.094m28.336 56.691V1.094"/><g clip-path="url(#a)"><path fill="none" stroke="#000" stroke-miterlimit="10" stroke-width=".399" d="m.734 57.785 56.692-28.344"/></g><use xlink:href="#b" x="9.487" y="57.336"/><use xlink:href="#c" x="17.506" y="53.327"/><use xlink:href="#d" x="20.349" y="51.905"/></svg>