<svg xmlns="http://www.w3.org/2000/svg" xmlns:xlink="http://www.w3.org/1999/xlink" width="178.826" height="104.801"><defs><path id="b" d="M5.563-1.812c.14 0 .312 0 .312-.172 0-.188-.172-.188-.312-.188H1c-.125 0-.297 0-.297.188 0 .172.172.172.297.172Zm0 0"/><path id="c" d="M2.5-5.078c0-.219-.016-.219-.234-.219-.328.313-.75.5-1.5.5v.266c.218 0 .64 0 1.109-.203v4.078c0 .297-.031.39-.781.39H.812V0c.329-.031 1.016-.031 1.376-.031s1.046 0 1.374.031v-.266h-.28c-.75 0-.782-.093-.782-.39Zm0 0"/><path id="d" d="M3.89-2.547c0-.844-.078-1.36-.343-1.875-.344-.703-1-.875-1.438-.875-1 0-1.375.75-1.484.969C.344-3.75.328-2.953.328-2.547c0 .531.016 1.328.406 1.969.36.594.954.75 1.375.75.391 0 1.063-.125 1.47-.906.296-.578.312-1.297.312-1.813M2.11-.062c-.266 0-.813-.125-.985-.954-.094-.453-.094-1.203-.094-1.625 0-.546 0-1.109.094-1.546.172-.813.781-.891.984-.891.266 0 .829.14.985.86.094.437.094 1.046.094 1.577 0 .47 0 1.188-.094 1.641-.172.828-.719.938-.985.938m0 0"/><path id="e" d="M1.11-4.484c.109.03.421.125.765.125 1 0 1.594-.703 1.594-.828 0-.094-.047-.11-.094-.11-.016 0-.031 0-.094.031a3 3 0 0 1-1.11.22c-.468 0-.858-.11-1.108-.22-.079-.03-.094-.03-.11-.03-.094 0-.094.077-.094.234v2.328c0 .14 0 .234.125.234.063 0 .079-.031.125-.094.094-.11.391-.515 1.079-.515.437 0 .656.359.734.515.125.281.14.656.14.953s0 .735-.218 1.079c-.156.25-.485.484-.906.484A1.27 1.27 0 0 1 .734-.922c.016.016.079.016.079.016.218 0 .406-.14.406-.39a.39.39 0 0 0-.39-.407c-.157 0-.407.078-.407.422 0 .718.625 1.453 1.531 1.453 1 0 1.844-.781 1.844-1.766 0-.922-.672-1.75-1.61-1.75-.39 0-.765.125-1.078.406Zm0 0"/><path id="f" d="M1.484-.125c0 .516-.109.984-.593 1.469-.032.031-.047.047-.047.078 0 .062.062.11.11.11.093 0 .765-.626.765-1.563 0-.5-.203-.86-.547-.86a.436.436 0 0 0-.438.438c0 .234.157.453.438.453.203 0 .312-.11.312-.125m0 0"/><clipPath id="a"><path d="M27 0h151.738v98H27Zm0 0"/></clipPath></defs><path fill="none" stroke="#7F7F7F" stroke-linecap="round" stroke-miterlimit="10" stroke-width=".399" d="M47.535 95.75v-1.992M77.063 95.75v-1.992M106.59 95.75v-1.992M136.117 95.75v-1.992M165.645 95.75v-1.992M28.75 82.996h1.992M28.75 70.324h1.992M28.75 57.652h1.992M28.75 44.98h1.992M28.75 32.305h1.992M28.75 19.633h1.992M28.75 6.96h1.992"/><path fill="none" stroke="#7F7F7F" stroke-miterlimit="10" stroke-width=".399" d="M35.723 93.758h141.734"/><path fill="none" stroke="#BFBFBF" stroke-linecap="square" stroke-miterlimit="10" stroke-width=".399" d="M35.723 88.773h141.734M35.723 1.184h141.734"/><path fill="none" stroke="#7F7F7F" stroke-miterlimit="10" stroke-width=".399" d="M30.742 88.773V1.183"/><path fill="none" stroke="#BFBFBF" stroke-linecap="square" stroke-miterlimit="10" stroke-width=".399" d="M35.723 88.773V1.183M177.457 88.773V1.183"/><g clip-path="url(#a)"><path fill="none" stroke="#000" stroke-miterlimit="10" stroke-width=".598" d="M35.723 88.773s4.265-7.5 5.906-10.062c1.637-2.559 4.266-6.27 5.906-8.387 1.637-2.117 4.266-5.152 5.906-6.87 1.637-1.716 4.266-4.142 5.903-5.497 1.64-1.36 4.27-3.246 5.906-4.285 1.64-1.04 4.266-2.453 5.906-3.219s4.266-1.773 5.906-2.305c1.637-.535 4.266-1.203 5.907-1.546 1.636-.344 4.265-.743 5.902-.938 1.64-.2 4.27-.39 5.906-.484 1.641-.09 4.27-.149 5.907-.176 1.64-.027 4.265-.02 5.906-.024 1.637-.007 4.265 0 5.906-.027 1.637-.027 4.266-.086 5.906-.176 1.637-.093 4.266-.285 5.903-.484 1.64-.195 4.27-.59 5.906-.938 1.64-.343 4.266-1.011 5.906-1.542 1.637-.536 4.266-1.543 5.906-2.31 1.637-.765 4.266-2.175 5.907-3.218 1.636-1.039 4.265-2.926 5.902-4.281 1.64-1.36 4.27-3.785 5.906-5.5 1.64-1.719 4.27-4.754 5.907-6.871 1.64-2.117 4.265-5.828 5.906-8.387 1.637-2.562 5.906-10.062 5.906-10.062"/></g><use xlink:href="#b" x="40.006" y="103.54"/><use xlink:href="#c" x="46.593" y="103.54"/><use xlink:href="#d" x="50.828" y="103.54"/><use xlink:href="#b" x="71.65" y="103.54"/><use xlink:href="#e" x="78.237" y="103.54"/><use xlink:href="#d" x="104.471" y="103.54"/><use xlink:href="#e" x="133.998" y="103.54"/><use xlink:href="#c" x="161.408" y="103.54"/><use xlink:href="#d" x="165.643" y="103.54"/><use xlink:href="#b" x=".217" y="84.79"/><use xlink:href="#c" x="6.804" y="84.79"/><use xlink:href="#f" x="11.038" y="84.79"/><use xlink:href="#e" x="13.39" y="84.79"/><use xlink:href="#d" x="17.625" y="84.79"/><use xlink:href="#d" x="21.859" y="84.79"/><use xlink:href="#b" x=".217" y="72.118"/><use xlink:href="#c" x="6.804" y="72.118"/><use xlink:href="#f" x="11.038" y="72.118"/><use xlink:href="#d" x="13.39" y="72.118"/><use xlink:href="#d" x="17.625" y="72.118"/><use xlink:href="#d" x="21.859" y="72.118"/><use xlink:href="#b" x="6.804" y="59.804"/><use xlink:href="#e" x="13.39" y="59.804"/><use xlink:href="#d" x="17.625" y="59.804"/><use xlink:href="#d" x="21.859" y="59.804"/><use xlink:href="#d" x="21.859" y="47.547"/><use xlink:href="#e" x="13.39" y="34.876"/><use xlink:href="#d" x="17.625" y="34.876"/><use xlink:href="#d" x="21.859" y="34.876"/><use xlink:href="#c" x="6.804" y="21.428"/><use xlink:href="#f" x="11.038" y="21.428"/><use xlink:href="#d" x="13.39" y="21.428"/><use xlink:href="#d" x="17.625" y="21.428"/><use xlink:href="#d" x="21.859" y="21.428"/><use xlink:href="#c" x="6.804" y="8.757"/><use xlink:href="#f" x="11.038" y="8.757"/><use xlink:href="#e" x="13.39" y="8.757"/><use xlink:href="#d" x="17.625" y="8.757"/><use xlink:href="#d" x="21.859" y="8.757"/></svg>