<svg xmlns="http://www.w3.org/2000/svg" xmlns:xlink="http://www.w3.org/1999/xlink" width="65.108" height="93.62"><defs><path id="a" d="M3.719-3.766c-.188-.375-.469-.64-.922-.64-1.156 0-2.39 1.468-2.39 2.922C.406-.547.952.109 1.718.109c.203 0 .703-.046 1.297-.75a.91.91 0 0 0 .906.75c.36 0 .578-.234.75-.546a6.5 6.5 0 0 0 .297-.985c0-.11-.094-.11-.125-.11-.094 0-.11.048-.14.188-.173.64-.345 1.235-.75 1.235-.282 0-.298-.266-.298-.453 0-.22.016-.313.125-.75.11-.407.125-.516.219-.891l.36-1.39c.062-.282.062-.298.062-.344 0-.172-.11-.266-.281-.266-.25 0-.391.219-.422.437m-.64 2.579c-.063.187-.063.203-.204.375-.437.546-.844.703-1.125.703-.5 0-.64-.547-.64-.938 0-.5.312-1.719.546-2.187.313-.578.75-.953 1.157-.953.64 0 .78.812.78.875a.6.6 0 0 1-.03.171Zm0 0"/><path id="c" d="M3.328-3.016c.063-.25.297-1.171.985-1.171.046 0 .296 0 .5.125a.58.58 0 0 0-.47.546c0 .157.11.344.376.344a.546.546 0 0 0 .531-.578c0-.516-.578-.656-.922-.656-.578 0-.922.531-1.047.75-.25-.656-.781-.75-1.078-.75-1.031 0-1.61 1.281-1.61 1.531 0 .11.11.11.126.11.078 0 .11-.032.125-.11.344-1.062 1-1.312 1.344-1.312.187 0 .53.093.53.671 0 .313-.171.97-.53 2.375-.157.61-.516 1.032-.954 1.032-.062 0-.28 0-.5-.125.25-.063.47-.266.47-.547 0-.266-.22-.344-.36-.344-.313 0-.547.25-.547.578 0 .453.484.656.922.656.672 0 1.031-.703 1.047-.75.125.36.484.75 1.078.75 1.031 0 1.594-1.28 1.594-1.53 0-.11-.079-.11-.11-.11-.094 0-.11.047-.14.11-.329 1.077-1 1.312-1.313 1.312-.39 0-.547-.313-.547-.657 0-.218.047-.437.156-.875Zm0 0"/><path id="d" d="M4.844-3.797c.047-.14.047-.156.047-.234 0-.172-.141-.266-.297-.266a.46.46 0 0 0-.344.203c-.016.063-.11.36-.14.547-.079.25-.141.531-.204.797L3.453-.953c-.031.14-.469.844-1.125.844-.5 0-.61-.438-.61-.813 0-.453.173-1.078.5-1.953.157-.406.204-.516.204-.719 0-.437-.313-.812-.813-.812-.953 0-1.312 1.453-1.312 1.531 0 .11.094.11.11.11.109 0 .109-.032.156-.188.28-.938.671-1.235 1.015-1.235.078 0 .25 0 .25.313 0 .25-.11.516-.172.703-.406 1.063-.578 1.625-.578 2.094 0 .89.625 1.187 1.219 1.187.39 0 .719-.171 1-.453-.125.516-.25 1.016-.64 1.547-.266.328-.641.625-1.094.625-.141 0-.594-.031-.766-.422.156 0 .297 0 .422-.125a.5.5 0 0 0 .203-.406c0-.312-.266-.344-.36-.344C.829.531.5.687.5 1.171c0 .5.438.876 1.063.876 1.015 0 2.046-.906 2.328-2.031Zm0 0"/><path id="g" d="M2.375-6.812s0-.11-.125-.11c-.219 0-.953.078-1.219.11-.078 0-.187.015-.187.187 0 .125.094.125.25.125.468 0 .484.063.484.172 0 .062-.078.406-.125.61l-.828 3.25c-.11.5-.156.671-.156 1.015C.469-.516 1 .109 1.734.109c1.172 0 2.407-1.484 2.407-2.921 0-.907-.532-1.594-1.328-1.594-.454 0-.876.297-1.172.593Zm-.922 3.765c.047-.219.047-.234.14-.344.485-.64.938-.796 1.204-.796.36 0 .625.296.625.937 0 .594-.328 1.734-.516 2.11-.328.671-.781 1.03-1.172 1.03-.343 0-.671-.265-.671-1 0-.202 0-.39.156-1.015Zm0 0"/><path id="b" d="M2.328-4.437c0-.188 0-.188-.203-.188-.453.438-1.078.438-1.36.438v.25c.157 0 .626 0 1-.188v3.547c0 .234 0 .328-.687.328H.812V0c.125 0 .985-.031 1.235-.031.219 0 1.094.031 1.25.031v-.25H3.03c-.703 0-.703-.094-.703-.328Zm0 0"/><path id="e" d="M3.516-1.266H3.28c-.015.157-.094.563-.187.625-.047.047-.578.047-.688.047H1.125c.734-.64.984-.843 1.39-1.172.516-.406 1-.843 1-1.5 0-.843-.734-1.359-1.624-1.359-.86 0-1.453.61-1.453 1.25 0 .344.296.39.375.39.156 0 .359-.124.359-.374 0-.125-.047-.375-.406-.375.218-.485.687-.641 1.015-.641.703 0 1.063.547 1.063 1.11 0 .609-.438 1.078-.656 1.328L.516-.266C.437-.203.437-.187.437 0h2.876Zm0 0"/><path id="f" d="M1.906-2.328c.547 0 .938.375.938 1.125 0 .86-.516 1.125-.906 1.125-.282 0-.907-.078-1.188-.5.328 0 .406-.235.406-.39 0-.22-.172-.376-.39-.376a.38.38 0 0 0-.391.407C.375-.281 1.094.14 1.938.14c.968 0 1.64-.657 1.64-1.344 0-.547-.437-1.094-1.203-1.25.719-.266.984-.781.984-1.219 0-.547-.625-.953-1.406-.953-.766 0-1.36.375-1.36.938 0 .234.157.359.36.359.219 0 .36-.156.36-.344 0-.203-.141-.36-.36-.375.25-.297.719-.375.985-.375.312 0 .75.156.75.75 0 .297-.094.625-.282.828-.219.266-.422.281-.765.313-.172.015-.188.015-.22.015-.015 0-.077.016-.077.094 0 .094.062.094.187.094Zm0 0"/></defs><use xlink:href="#a" x=".149" y="5.963"/><use xlink:href="#a" x="26.26" y="5.216"/><use xlink:href="#b" x="31.526" y="6.71"/><use xlink:href="#c" x="54.393" y="5.216"/><use xlink:href="#b" x="60.087" y="6.71"/><use xlink:href="#d" x="54.798" y="19.168"/><use xlink:href="#b" x="59.682" y="20.662"/><path fill="none" stroke="#000" stroke-miterlimit="10" stroke-width=".399" d="M39.516 3.816h10.96"/><path fill="none" stroke="#000" stroke-linecap="round" stroke-linejoin="round" stroke-miterlimit="10" stroke-width=".399" d="M48.602 1.426c.378 1.437 1.222 2.113 2.074 2.39-.852.282-1.696.957-2.074 2.395"/><path fill="none" stroke="#000" stroke-miterlimit="10" stroke-width=".399" d="m39.516 8.012 11.406 5.703"/><path fill="none" stroke="#000" stroke-linecap="round" stroke-linejoin="round" stroke-miterlimit="10" stroke-width=".39897606" d="M50.316 10.738c-.304 1.453.149 2.438.786 3.067-.887-.13-1.946.097-2.922 1.21"/><use xlink:href="#a" x="26.26" y="33.562"/><use xlink:href="#e" x="31.526" y="35.057"/><use xlink:href="#c" x="54.393" y="33.562"/><use xlink:href="#e" x="60.087" y="35.057"/><use xlink:href="#d" x="54.798" y="47.514"/><use xlink:href="#e" x="59.682" y="49.009"/><path fill="none" stroke="#000" stroke-miterlimit="10" stroke-width=".399" d="M39.516 32.164h10.96"/><path fill="none" stroke="#000" stroke-linecap="round" stroke-linejoin="round" stroke-miterlimit="10" stroke-width=".399" d="M48.602 29.773c.378 1.434 1.222 2.114 2.074 2.391-.852.281-1.696.957-2.074 2.39"/><path fill="none" stroke="#000" stroke-miterlimit="10" stroke-width=".399" d="m39.516 36.36 11.406 5.703"/><path fill="none" stroke="#000" stroke-linecap="round" stroke-linejoin="round" stroke-miterlimit="10" stroke-width=".39897606" d="M50.316 39.086c-.304 1.453.149 2.437.786 3.066-.887-.132-1.946.098-2.922 1.211"/><use xlink:href="#a" x="26.26" y="61.909"/><use xlink:href="#f" x="31.526" y="63.403"/><use xlink:href="#c" x="54.393" y="61.909"/><use xlink:href="#f" x="60.087" y="63.403"/><use xlink:href="#d" x="54.798" y="75.861"/><use xlink:href="#f" x="59.682" y="77.355"/><path fill="none" stroke="#000" stroke-miterlimit="10" stroke-width=".399" d="M39.516 60.512h10.96"/><path fill="none" stroke="#000" stroke-linecap="round" stroke-linejoin="round" stroke-miterlimit="10" stroke-width=".399" d="M48.602 58.121c.378 1.434 1.222 2.113 2.074 2.39-.852.278-1.696.958-2.074 2.391"/><path fill="none" stroke="#000" stroke-miterlimit="10" stroke-width=".399" d="m39.516 64.707 11.406 5.703"/><path fill="none" stroke="#000" stroke-linecap="round" stroke-linejoin="round" stroke-miterlimit="10" stroke-width=".39897606" d="M50.316 67.434c-.304 1.453.149 2.433.786 3.066-.887-.133-1.946.098-2.922 1.21"/><use xlink:href="#g" x="28.99" y="92.317"/><path fill="none" stroke="#000" stroke-miterlimit="10" stroke-width=".399" d="M8.934 3.816h13.41"/><path fill="none" stroke="#000" stroke-linecap="round" stroke-linejoin="round" stroke-miterlimit="10" stroke-width=".399" d="M20.469 1.426c.379 1.437 1.222 2.113 2.074 2.39-.852.282-1.695.957-2.074 2.395"/><path fill="none" stroke="#000" stroke-miterlimit="10" stroke-width=".399" d="m8.445 9.484 15.993 15.989"/><path fill="none" stroke="#000" stroke-linecap="round" stroke-linejoin="round" stroke-miterlimit="10" stroke-width=".39899202" d="M24.8 22.457c-.745 1.281-.628 2.356-.222 3.156-.8-.406-1.875-.523-3.156.223"/><path fill="none" stroke="#000" stroke-miterlimit="10" stroke-width=".399" d="m5.613 9.484 22.133 44.258"/><path fill="none" stroke="#000" stroke-linecap="round" stroke-linejoin="round" stroke-miterlimit="10" stroke-width=".39897606" d="M29.047 51c-1.113.98-1.344 2.035-1.211 2.922-.629-.637-1.613-1.086-3.066-.785"/><path fill="none" stroke="#000" stroke-miterlimit="10" stroke-width=".399" d="M4.668 9.484 28.68 81.5"/><path fill="none" stroke="#000" stroke-linecap="round" stroke-linejoin="round" stroke-miterlimit="10" stroke-width=".39897606" d="M30.355 78.969c-1.242.812-1.617 1.828-1.613 2.722-.535-.718-1.441-1.304-2.926-1.21"/></svg>