<svg xmlns="http://www.w3.org/2000/svg" xmlns:xlink="http://www.w3.org/1999/xlink" width="356.663" height="63.542"><defs><path id="d" d="M4.86-3.047c0-.406-.391-.422-.532-.422H3.031V-4.78c0-.14-.015-.532-.422-.532s-.421.391-.421.532v1.312H.89c-.141 0-.532.016-.532.422s.391.422.532.422h1.297v1.297c0 .14.015.547.421.547.407 0 .422-.406.422-.547v-1.297h1.297c.14 0 .531-.016.531-.422m0 0"/><path id="s" d="M3.297-.672a.67.67 0 0 0-.672-.687.67.67 0 0 0-.687.672c0 .39.328.687.671.687a.68.68 0 0 0 .688-.672m0 0"/><path id="w" d="M5.125-.375c0-.36-.297-.375-.469-.375h-.36v-4.86c0-.359-.062-.484-.468-.484h-.703c-.187 0-.484.016-.484.375 0 .36.297.375.468.375h.36v1.297a1.73 1.73 0 0 0-1.063-.344c-1.094 0-2.062.938-2.062 2.235C.344-.922 1.25.063 2.328.063c.485 0 .86-.204 1.14-.454.016.282.079.391.47.391h.703c.187 0 .484-.016.484-.375M3.453-1.969c0 .516-.406 1.282-1.094 1.282-.671 0-1.203-.657-1.203-1.47 0-.89.64-1.5 1.282-1.5.578 0 1.015.5 1.015 1Zm0 0"/><path id="x" d="M4.563-.375c0-.36-.297-.375-.47-.375h-.937v-3.125c0-.36-.078-.469-.469-.469H1.314c-.188 0-.485.016-.485.36 0 .375.297.39.485.39h1.015V-.75h-1.11c-.187 0-.468.016-.468.375 0 .36.297.375.469.375h2.875c.172 0 .468-.016.468-.375m-1.375-5.11a.56.56 0 0 0-.563-.562.564.564 0 0 0-.578.563c0 .328.25.562.578.562a.55.55 0 0 0 .563-.562m0 0"/><path id="y" d="M5.094-3.844c0-.25-.203-.61-.782-.61-.109 0-.578.016-1.046.329-.172-.11-.5-.266-.938-.266-.953 0-1.687.75-1.687 1.625 0 .407.156.72.312.922-.11.157-.187.375-.187.657 0 .312.109.546.187.671C.266-.046.266.61.266.72c0 .86 1.047 1.5 2.343 1.5s2.344-.64 2.344-1.5c0-.375-.187-.89-.703-1.172-.14-.078-.547-.297-1.453-.297h-.688c-.171 0-.39.047-.53-.125-.095-.11-.11-.297-.11-.297 0-.031.015-.094.031-.156.14.078.469.203.828.203.938 0 1.688-.734 1.688-1.64 0-.282-.079-.547-.235-.813.156-.078.297-.094.406-.125a.48.48 0 0 0 .438.328c.203 0 .469-.14.469-.469M3.187-2.766c0 .5-.39.907-.859.907-.484 0-.86-.422-.86-.907 0-.5.391-.89.86-.89s.86.422.86.89M4.235.72c0 .406-.703.765-1.625.765-.921 0-1.625-.359-1.625-.765 0-.156.079-.438.375-.625.22-.14.313-.14 1-.14.813 0 1.875 0 1.875.765m0 0"/><path id="z" d="M4.5-1.312c0-.204 0-.438-.422-.438-.39 0-.406.234-.406.438 0 .53-.5.625-.719.625-.656 0-.656-.454-.656-.672v-2.235h1.515c.172 0 .47-.015.47-.375 0-.375-.282-.375-.47-.375H2.298v-.718c0-.22-.016-.47-.406-.47-.422 0-.422.235-.422.47v.718H.703c-.187 0-.469.016-.469.375 0 .36.282.375.454.375h.78v2.282c0 1 .688 1.375 1.454 1.375.75 0 1.578-.454 1.578-1.375m0 0"/><path id="D" d="M5.031-.484v-.844c0-.234-.015-.484-.422-.484s-.406.234-.406.484v.578H1.75v-2.031h1.125c0 .406.047.562.422.562.39 0 .406-.25.406-.484v-.906c0-.22-.015-.47-.406-.47-.375 0-.422.157-.422.548H1.75v-1.813h2.234v.438c0 .218 0 .484.407.484.422 0 .422-.25.422-.484v-.703c0-.36-.079-.485-.47-.485H.72c-.188 0-.485.016-.485.375 0 .36.297.375.485.375h.203V-.75H.719c-.188 0-.485.016-.485.375 0 .36.297.375.485.375h3.844c.375 0 .468-.094.468-.484m0 0"/><path id="K" d="M4.688-3.047c0-.406-.391-.422-.532-.422H1.063c-.141 0-.532.016-.532.422s.39.422.532.422h3.093c.14 0 .532-.016.532-.422m0 0"/><path id="g" d="M6.531-1.469c0-.14-.125-.14-.281-.14-.234 0-.25 0-.312.25-.079.328-.266 1.078-.61 1.078-.11 0-.187-.078-.187-.313 0-.187.015-.265.062-.422l.688-2.765c.046-.14.046-.172.046-.219 0-.312-.25-.422-.453-.422-.125 0-.515.063-.64.547l-.688 2.813c-.047.171-.047.218-.328.5-.14.125-.39.28-.687.28-.5 0-.516-.468-.516-.687 0-.593.328-1.484.578-2.11.094-.25.14-.374.14-.546 0-.547-.515-.875-1.046-.875C1.25-4.5.766-3.156.766-2.953c0 .14.125.14.28.14.188 0 .235 0 .282-.124.078-.266.344-1.204.922-1.204.047 0 .125 0 .125.172 0 .203-.11.516-.172.656-.312.86-.594 1.579-.594 2.141 0 .906.641 1.25 1.47 1.25.28 0 .702-.047 1.187-.5.187.344.64.5 1.03.5.47 0 .72-.344.845-.531.265-.422.39-.984.39-1.016m0 0"/><path id="h" d="M6.813-1.469c0-.14-.125-.14-.266-.14-.203 0-.25 0-.281.125-.079.265-.36 1.203-.922 1.203-.047 0-.14 0-.14-.172 0-.219.093-.469.234-.813.14-.375.578-1.546.578-2.109 0-.828-.578-1.125-1.375-1.125-.203 0-.86 0-1.516.688C2.922-4.391 2.328-4.5 2-4.5c-.469 0-.719.328-.844.531-.265.422-.39.985-.39 1.016 0 .14.125.14.28.14.235 0 .25-.015.313-.265.094-.328.266-1.063.61-1.063.11 0 .187.079.187.297 0 .188-.015.281-.062.438L1.39-.562c-.047.14-.047.156-.047.218 0 .297.234.422.453.422.062 0 .5-.015.625-.531l.625-2.484c.062-.282.625-1.204 1.531-1.204.422 0 .422.375.422.563 0 .594-.453 1.828-.64 2.266-.079.25-.11.359-.11.5 0 .562.5.89 1.047.89 1.031 0 1.516-1.344 1.516-1.547m0 0"/><path id="i" d="M4.64-1.64c0-.22-.077-.548-.437-.844-.297-.235-.547-.282-1.078-.375-.297-.063-.703-.141-.703-.516 0 0 0-.766 1.062-.766.094 0 .454 0 .688.235-.39.172-.39.531-.39.562 0 .25.202.406.452.406.235 0 .61-.203.61-.687 0-.547-.563-.875-1.344-.875s-1.125.266-1.312.406c-.329.282-.516.813-.516 1.125 0 .844.844 1.016 1.156 1.078.516.094 1.047.204 1.047.657 0 0 0 .953-1.375.953-.14 0-.61 0-.937-.266.078-.031.484-.219.484-.672 0-.39-.313-.468-.485-.468-.359 0-.718.296-.718.78 0 .626.656.985 1.625.985.265 0 .906-.015 1.453-.39.515-.36.719-1 .719-1.329m0 0"/><path id="j" d="M3.89-1.469c0-.14-.124-.14-.28-.14-.188 0-.235 0-.282.125-.078.265-.344 1.203-.922 1.203-.047 0-.14 0-.14-.172 0-.14.078-.39.093-.406l.891-2.375c.063-.157.094-.235.094-.391 0-.547-.516-.875-1.047-.875C1.25-4.5.766-3.156.766-2.953c0 .14.125.14.28.14.188 0 .235 0 .282-.124.078-.266.344-1.204.922-1.204.047 0 .125 0 .125.172 0 .125-.062.375-.078.406l-.89 2.36c-.063.172-.095.25-.095.39 0 .563.516.891 1.047.891 1.047 0 1.532-1.344 1.532-1.547m.141-4.656a.6.6 0 0 0-.625-.594c-.453 0-.89.422-.89.86 0 .328.25.609.625.609.468 0 .89-.437.89-.875m0 0"/><path id="k" d="m4.5.64 1.078-4.312c.031-.172.031-.25.031-.25 0-.219-.171-.422-.453-.422-.265 0-.375.11-.468.203-.282-.265-.594-.359-.954-.359-1.703 0-2.671 1.64-2.671 2.922C1.063-.516 1.78 0 2.688 0c.312 0 .624-.078.968-.266l-.172.704c-.25.921-.812 1.218-1.343 1.218-.282 0-.5-.031-.625-.062a.8.8 0 0 0 .28-.563c0-.25-.187-.453-.5-.453a.727.727 0 0 0-.702.735c0 .625.781.703 1.515.703C3.313 2.016 4.281 1.5 4.5.64m-.625-1.812c-.094.36-.672.813-1.156.813-.531 0-.578-.485-.578-.703 0-.547.359-1.766.484-2.11.328-.828.844-.969 1.11-.969.296 0 .609.157.734.594Zm0 0"/><path id="l" d="M5.344-.86c0-.078-.203-.312-.297-.312-.031 0-.078 0-.14.063-.735.828-1.75.828-1.891.828-.547 0-.844-.328-.844-.922 0-.25.078-.625.156-.969h.406c.594 0 2.563 0 2.563-1.375C5.297-4.14 4.75-4.5 4-4.5c-1.719 0-2.906 1.297-2.906 2.828 0 1.078.672 1.75 1.922 1.75.297 0 .89-.031 1.406-.219.531-.203.922-.593.922-.718m-.688-2.702c0 1.03-1.625 1.03-2.234 1.03.14-.5.234-.796.531-1.124A1.45 1.45 0 0 1 4-4.141c.422 0 .656.266.656.579m0 0"/><path id="m" d="M6.234-1.469c0-.14-.14-.14-.28-.14-.235 0-.25 0-.329.25-.078.328-.25 1.078-.594 1.078-.11 0-.187-.078-.187-.313 0-.187.015-.265.062-.422l1.39-5.562a.6.6 0 0 0 .032-.156c0-.188-.172-.188-.312-.172l-1.235.062c-.11 0-.312 0-.312.297 0 .172.187.172.281.172.11 0 .297.016.406.031l-.515 2.157a1.35 1.35 0 0 0-.907-.313c-1.687 0-2.671 1.656-2.671 2.984 0 1.188.828 1.594 1.593 1.594.61 0 1.078-.312 1.313-.5.187.344.64.5 1.031.5.469 0 .719-.344.844-.531.25-.422.39-.984.39-1.016M3.844-1c-.422.578-.844.719-1.156.719-.22 0-.563-.14-.563-.703 0-.547.344-1.766.453-2.047.344-.969.89-1.11 1.156-1.11.344 0 .625.22.735.61l-.594 2.36c-.016.062-.016.093-.031.171m0 0"/><path id="n" d="M4.172-1.469c0-.14-.125-.14-.281-.14-.22 0-.22 0-.297.156-.422 1-.906 1.172-1.172 1.172-.094 0-.203-.016-.203-.313 0-.187.015-.265.047-.422l.75-2.937h.797c.171 0 .328 0 .328-.297 0-.172-.157-.172-.297-.172h-.719l.188-.797c.078-.25.187-.687.187-.765 0-.235-.172-.422-.453-.422-.125 0-.5.062-.625.531l-.36 1.453H1.25c-.172 0-.344 0-.344.281 0 .188.172.188.313.188h.718L1.25-1.172c-.047.156-.047.219-.047.281 0 .625.578.97 1.172.97 1.14 0 1.797-1.391 1.797-1.548m0 0"/><path id="o" d="M5.61-3.625c0-.516-.548-.875-1.266-.875-.39 0-.86.11-1.282.531C2.892-4.28 2.5-4.5 2-4.5c-.469 0-.719.328-.844.531-.265.422-.39.985-.39 1.016 0 .14.125.14.28.14.235 0 .25-.015.313-.265.094-.328.266-1.063.61-1.063.11 0 .187.079.187.297 0 .188-.015.281-.062.438L1.39-.562c-.047.14-.047.156-.047.218 0 .297.234.422.453.422.062 0 .5-.015.625-.531l.672-2.719c.062-.234.515-.969 1.219-.969.109 0 .343 0 .546.157-.468.218-.468.64-.468.672 0 .25.187.468.5.468.375 0 .718-.328.718-.781m0 0"/><clipPath id="a"><path d="M225 1h18v17h-18Zm0 0"/></clipPath><clipPath id="b"><path d="M234.137 1.379a8.503 8.503 0 0 1 8.504 8.504 8.506 8.506 0 0 1-8.504 8.504 8.506 8.506 0 0 1-8.504-8.504c0-4.7 3.808-8.504 8.504-8.504m0 0"/></clipPath><clipPath id="e"><path d="M7.11 22.414h88.374V39H7.11Zm0 0"/></clipPath><clipPath id="p"><path d="M108 22h18v17h-18Zm0 0"/></clipPath><clipPath id="q"><path d="M116.523 22.414a8.506 8.506 0 0 1 8.504 8.504c0 4.7-3.808 8.504-8.504 8.504a8.5 8.5 0 0 1-8.503-8.504 8.503 8.503 0 0 1 8.503-8.504m0 0"/></clipPath><clipPath id="t"><path d="M137 22h36v17h-36Zm0 0"/></clipPath><clipPath id="u"><path d="M154.89 22.414h8.825a8.506 8.506 0 0 1 8.504 8.504c0 4.7-3.809 8.504-8.504 8.504h-17.649a8.5 8.5 0 0 1-8.504-8.504 8.503 8.503 0 0 1 8.504-8.504Zm0 0"/></clipPath><clipPath id="A"><path d="M196 22h18v17h-18Zm0 0"/></clipPath><clipPath id="B"><path d="M204.594 22.414c4.699 0 8.504 3.809 8.504 8.504a8.5 8.5 0 0 1-8.504 8.504 8.503 8.503 0 0 1-8.504-8.504 8.506 8.506 0 0 1 8.504-8.504m0 0"/></clipPath><clipPath id="E"><path d="M255.172 22.414h88.379V39h-88.38Zm0 0"/></clipPath><clipPath id="G"><path d="M225 43h18v17h-18Zm0 0"/></clipPath><clipPath id="H"><path d="M234.137 43.453a8.506 8.506 0 0 1 8.504 8.504 8.506 8.506 0 0 1-8.504 8.504 8.506 8.506 0 0 1-8.504-8.504 8.506 8.506 0 0 1 8.504-8.504m0 0"/></clipPath><clipPath id="J"><path d="M208 26h52v37.313h-52Zm0 0"/></clipPath><linearGradient id="c" x1="0" x2="0" y1="25.003" y2="74.997" gradientTransform="matrix(.3402 0 0 -.3402 217.126 26.891)" gradientUnits="userSpaceOnUse"><stop offset="0" stop-color="#CCC"/><stop offset=".016" stop-color="#CCC"/><stop offset=".031" stop-color="#CDCDCD"/><stop offset=".047" stop-color="#CECECE"/><stop offset=".063" stop-color="#CFCFCF"/><stop offset=".078" stop-color="#D0D0D0"/><stop offset=".094" stop-color="#D0D0D0"/><stop offset=".109" stop-color="#D1D1D1"/><stop offset=".125" stop-color="#D2D2D2"/><stop offset=".141" stop-color="#D3D3D3"/><stop offset=".156" stop-color="#D4D4D4"/><stop offset=".172" stop-color="#D4D4D4"/><stop offset=".188" stop-color="#D5D5D5"/><stop offset=".203" stop-color="#D6D6D6"/><stop offset=".219" stop-color="#D7D7D7"/><stop offset=".234" stop-color="#D8D8D8"/><stop offset=".25" stop-color="#D8D8D8"/><stop offset=".266" stop-color="#D9D9D9"/><stop offset=".281" stop-color="#DADADA"/><stop offset=".297" stop-color="#DBDBDB"/><stop offset=".313" stop-color="#DCDCDC"/><stop offset=".328" stop-color="#DCDCDC"/><stop offset=".344" stop-color="#DDD"/><stop offset=".359" stop-color="#DEDEDE"/><stop offset=".375" stop-color="#DFDFDF"/><stop offset=".391" stop-color="#E0E0E0"/><stop offset=".406" stop-color="#E0E0E0"/><stop offset=".422" stop-color="#E1E1E1"/><stop offset=".438" stop-color="#E2E2E2"/><stop offset=".453" stop-color="#E3E3E3"/><stop offset=".469" stop-color="#E4E4E4"/><stop offset=".484" stop-color="#E4E4E4"/><stop offset=".5" stop-color="#E5E5E5"/><stop offset=".516" stop-color="#E6E6E6"/><stop offset=".531" stop-color="#E7E7E7"/><stop offset=".547" stop-color="#E7E7E7"/><stop offset=".563" stop-color="#E8E8E8"/><stop offset=".578" stop-color="#E9E9E9"/><stop offset=".594" stop-color="#EAEAEA"/><stop offset=".609" stop-color="#EBEBEB"/><stop offset=".625" stop-color="#EBEBEB"/><stop offset=".641" stop-color="#ECECEC"/><stop offset=".656" stop-color="#EDEDED"/><stop offset=".672" stop-color="#EEE"/><stop offset=".688" stop-color="#EFEFEF"/><stop offset=".703" stop-color="#EFEFEF"/><stop offset=".719" stop-color="#F0F0F0"/><stop offset=".734" stop-color="#F1F1F1"/><stop offset=".75" stop-color="#F2F2F2"/><stop offset=".766" stop-color="#F3F3F3"/><stop offset=".781" stop-color="#F3F3F3"/><stop offset=".797" stop-color="#F4F4F4"/><stop offset=".813" stop-color="#F5F5F5"/><stop offset=".828" stop-color="#F6F6F6"/><stop offset=".844" stop-color="#F7F7F7"/><stop offset=".859" stop-color="#F7F7F7"/><stop offset=".875" stop-color="#F8F8F8"/><stop offset=".891" stop-color="#F9F9F9"/><stop offset=".906" stop-color="#FAFAFA"/><stop offset=".922" stop-color="#FBFBFB"/><stop offset=".938" stop-color="#FBFBFB"/><stop offset=".953" stop-color="#FCFCFC"/><stop offset=".969" stop-color="#FDFDFD"/><stop offset=".984" stop-color="#FEFEFE"/><stop offset="1" stop-color="#FFF"/></linearGradient><linearGradient id="f" x1="0" x2="0" y1="25.003" y2="74.997" gradientTransform="matrix(1.76773 0 0 -.3402 -37.089 47.929)" gradientUnits="userSpaceOnUse"><stop offset="0" stop-color="#E5CCCC"/><stop offset=".016" stop-color="#E6CCCC"/><stop offset=".031" stop-color="#E6CDCD"/><stop offset=".047" stop-color="#E6CECE"/><stop offset=".063" stop-color="#E7CFCF"/><stop offset=".078" stop-color="#E7D0D0"/><stop offset=".094" stop-color="#E8D0D0"/><stop offset=".109" stop-color="#E8D1D1"/><stop offset=".125" stop-color="#E8D2D2"/><stop offset=".141" stop-color="#E9D3D3"/><stop offset=".156" stop-color="#E9D4D4"/><stop offset=".172" stop-color="#EAD4D4"/><stop offset=".188" stop-color="#EAD5D5"/><stop offset=".203" stop-color="#EAD6D6"/><stop offset=".219" stop-color="#EBD7D7"/><stop offset=".234" stop-color="#EBD8D8"/><stop offset=".25" stop-color="#ECD8D8"/><stop offset=".266" stop-color="#ECD9D9"/><stop offset=".281" stop-color="#ECDADA"/><stop offset=".297" stop-color="#EDDBDB"/><stop offset=".313" stop-color="#EDDCDC"/><stop offset=".328" stop-color="#EEDCDC"/><stop offset=".344" stop-color="#EDD"/><stop offset=".359" stop-color="#EEDEDE"/><stop offset=".375" stop-color="#EFDFDF"/><stop offset=".391" stop-color="#EFE0E0"/><stop offset=".406" stop-color="#F0E0E0"/><stop offset=".422" stop-color="#F0E1E1"/><stop offset=".438" stop-color="#F0E2E2"/><stop offset=".453" stop-color="#F1E3E3"/><stop offset=".469" stop-color="#F1E4E4"/><stop offset=".484" stop-color="#F2E4E4"/><stop offset=".5" stop-color="#F2E5E5"/><stop offset=".516" stop-color="#F2E6E6"/><stop offset=".531" stop-color="#F3E7E7"/><stop offset=".547" stop-color="#F3E7E7"/><stop offset=".563" stop-color="#F4E8E8"/><stop offset=".578" stop-color="#F4E9E9"/><stop offset=".594" stop-color="#F4EAEA"/><stop offset=".609" stop-color="#F5EBEB"/><stop offset=".625" stop-color="#F5EBEB"/><stop offset=".641" stop-color="#F6ECEC"/><stop offset=".656" stop-color="#F6EDED"/><stop offset=".672" stop-color="#F6EEEE"/><stop offset=".688" stop-color="#F7EFEF"/><stop offset=".703" stop-color="#F7EFEF"/><stop offset=".719" stop-color="#F8F0F0"/><stop offset=".734" stop-color="#F8F1F1"/><stop offset=".75" stop-color="#F8F2F2"/><stop offset=".766" stop-color="#F9F3F3"/><stop offset=".781" stop-color="#F9F3F3"/><stop offset=".797" stop-color="#FAF4F4"/><stop offset=".813" stop-color="#FAF5F5"/><stop offset=".828" stop-color="#FAF6F6"/><stop offset=".844" stop-color="#FBF7F7"/><stop offset=".859" stop-color="#FBF7F7"/><stop offset=".875" stop-color="#FCF8F8"/><stop offset=".891" stop-color="#FCF9F9"/><stop offset=".906" stop-color="#FCFAFA"/><stop offset=".922" stop-color="#FDFBFB"/><stop offset=".938" stop-color="#FDFBFB"/><stop offset=".953" stop-color="#FEFCFC"/><stop offset=".969" stop-color="#FEFDFD"/><stop offset=".984" stop-color="#FEFEFE"/><stop offset="1" stop-color="#FFF"/></linearGradient><linearGradient id="r" x1="0" x2="0" y1="25.003" y2="74.997" gradientTransform="matrix(.3402 0 0 -.3402 99.513 47.929)" gradientUnits="userSpaceOnUse"><stop offset="0" stop-color="#CCC"/><stop offset=".016" stop-color="#CCC"/><stop offset=".031" stop-color="#CDCDCD"/><stop offset=".047" stop-color="#CECECE"/><stop offset=".063" stop-color="#CFCFCF"/><stop offset=".078" stop-color="#D0D0D0"/><stop offset=".094" stop-color="#D0D0D0"/><stop offset=".109" stop-color="#D1D1D1"/><stop offset=".125" stop-color="#D2D2D2"/><stop offset=".141" stop-color="#D3D3D3"/><stop offset=".156" stop-color="#D4D4D4"/><stop offset=".172" stop-color="#D4D4D4"/><stop offset=".188" stop-color="#D5D5D5"/><stop offset=".203" stop-color="#D6D6D6"/><stop offset=".219" stop-color="#D7D7D7"/><stop offset=".234" stop-color="#D8D8D8"/><stop offset=".25" stop-color="#D8D8D8"/><stop offset=".266" stop-color="#D9D9D9"/><stop offset=".281" stop-color="#DADADA"/><stop offset=".297" stop-color="#DBDBDB"/><stop offset=".313" stop-color="#DCDCDC"/><stop offset=".328" stop-color="#DCDCDC"/><stop offset=".344" stop-color="#DDD"/><stop offset=".359" stop-color="#DEDEDE"/><stop offset=".375" stop-color="#DFDFDF"/><stop offset=".391" stop-color="#E0E0E0"/><stop offset=".406" stop-color="#E0E0E0"/><stop offset=".422" stop-color="#E1E1E1"/><stop offset=".438" stop-color="#E2E2E2"/><stop offset=".453" stop-color="#E3E3E3"/><stop offset=".469" stop-color="#E4E4E4"/><stop offset=".484" stop-color="#E4E4E4"/><stop offset=".5" stop-color="#E5E5E5"/><stop offset=".516" stop-color="#E6E6E6"/><stop offset=".531" stop-color="#E7E7E7"/><stop offset=".547" stop-color="#E7E7E7"/><stop offset=".563" stop-color="#E8E8E8"/><stop offset=".578" stop-color="#E9E9E9"/><stop offset=".594" stop-color="#EAEAEA"/><stop offset=".609" stop-color="#EBEBEB"/><stop offset=".625" stop-color="#EBEBEB"/><stop offset=".641" stop-color="#ECECEC"/><stop offset=".656" stop-color="#EDEDED"/><stop offset=".672" stop-color="#EEE"/><stop offset=".688" stop-color="#EFEFEF"/><stop offset=".703" stop-color="#EFEFEF"/><stop offset=".719" stop-color="#F0F0F0"/><stop offset=".734" stop-color="#F1F1F1"/><stop offset=".75" stop-color="#F2F2F2"/><stop offset=".766" stop-color="#F3F3F3"/><stop offset=".781" stop-color="#F3F3F3"/><stop offset=".797" stop-color="#F4F4F4"/><stop offset=".813" stop-color="#F5F5F5"/><stop offset=".828" stop-color="#F6F6F6"/><stop offset=".844" stop-color="#F7F7F7"/><stop offset=".859" stop-color="#F7F7F7"/><stop offset=".875" stop-color="#F8F8F8"/><stop offset=".891" stop-color="#F9F9F9"/><stop offset=".906" stop-color="#FAFAFA"/><stop offset=".922" stop-color="#FBFBFB"/><stop offset=".938" stop-color="#FBFBFB"/><stop offset=".953" stop-color="#FCFCFC"/><stop offset=".969" stop-color="#FDFDFD"/><stop offset=".984" stop-color="#FEFEFE"/><stop offset="1" stop-color="#FFF"/></linearGradient><linearGradient id="v" x1="0" x2="0" y1="25.003" y2="74.997" gradientTransform="matrix(.69322 0 0 -.3402 120.228 47.929)" gradientUnits="userSpaceOnUse"><stop offset="0" stop-color="#CCC"/><stop offset=".016" stop-color="#CCC"/><stop offset=".031" stop-color="#CDCDCD"/><stop offset=".047" stop-color="#CECECE"/><stop offset=".063" stop-color="#CFCFCF"/><stop offset=".078" stop-color="#D0D0D0"/><stop offset=".094" stop-color="#D0D0D0"/><stop offset=".109" stop-color="#D1D1D1"/><stop offset=".125" stop-color="#D2D2D2"/><stop offset=".141" stop-color="#D3D3D3"/><stop offset=".156" stop-color="#D4D4D4"/><stop offset=".172" stop-color="#D4D4D4"/><stop offset=".188" stop-color="#D5D5D5"/><stop offset=".203" stop-color="#D6D6D6"/><stop offset=".219" stop-color="#D7D7D7"/><stop offset=".234" stop-color="#D8D8D8"/><stop offset=".25" stop-color="#D8D8D8"/><stop offset=".266" stop-color="#D9D9D9"/><stop offset=".281" stop-color="#DADADA"/><stop offset=".297" stop-color="#DBDBDB"/><stop offset=".313" stop-color="#DCDCDC"/><stop offset=".328" stop-color="#DCDCDC"/><stop offset=".344" stop-color="#DDD"/><stop offset=".359" stop-color="#DEDEDE"/><stop offset=".375" stop-color="#DFDFDF"/><stop offset=".391" stop-color="#E0E0E0"/><stop offset=".406" stop-color="#E0E0E0"/><stop offset=".422" stop-color="#E1E1E1"/><stop offset=".438" stop-color="#E2E2E2"/><stop offset=".453" stop-color="#E3E3E3"/><stop offset=".469" stop-color="#E4E4E4"/><stop offset=".484" stop-color="#E4E4E4"/><stop offset=".5" stop-color="#E5E5E5"/><stop offset=".516" stop-color="#E6E6E6"/><stop offset=".531" stop-color="#E7E7E7"/><stop offset=".547" stop-color="#E7E7E7"/><stop offset=".563" stop-color="#E8E8E8"/><stop offset=".578" stop-color="#E9E9E9"/><stop offset=".594" stop-color="#EAEAEA"/><stop offset=".609" stop-color="#EBEBEB"/><stop offset=".625" stop-color="#EBEBEB"/><stop offset=".641" stop-color="#ECECEC"/><stop offset=".656" stop-color="#EDEDED"/><stop offset=".672" stop-color="#EEE"/><stop offset=".688" stop-color="#EFEFEF"/><stop offset=".703" stop-color="#EFEFEF"/><stop offset=".719" stop-color="#F0F0F0"/><stop offset=".734" stop-color="#F1F1F1"/><stop offset=".75" stop-color="#F2F2F2"/><stop offset=".766" stop-color="#F3F3F3"/><stop offset=".781" stop-color="#F3F3F3"/><stop offset=".797" stop-color="#F4F4F4"/><stop offset=".813" stop-color="#F5F5F5"/><stop offset=".828" stop-color="#F6F6F6"/><stop offset=".844" stop-color="#F7F7F7"/><stop offset=".859" stop-color="#F7F7F7"/><stop offset=".875" stop-color="#F8F8F8"/><stop offset=".891" stop-color="#F9F9F9"/><stop offset=".906" stop-color="#FAFAFA"/><stop offset=".922" stop-color="#FBFBFB"/><stop offset=".938" stop-color="#FBFBFB"/><stop offset=".953" stop-color="#FCFCFC"/><stop offset=".969" stop-color="#FDFDFD"/><stop offset=".984" stop-color="#FEFEFE"/><stop offset="1" stop-color="#FFF"/></linearGradient><linearGradient id="C" x1="0" x2="0" y1="25.003" y2="74.997" gradientTransform="matrix(.3402 0 0 -.3402 187.584 47.929)" gradientUnits="userSpaceOnUse"><stop offset="0" stop-color="#CCC"/><stop offset=".016" stop-color="#CCC"/><stop offset=".031" stop-color="#CDCDCD"/><stop offset=".047" stop-color="#CECECE"/><stop offset=".063" stop-color="#CFCFCF"/><stop offset=".078" stop-color="#D0D0D0"/><stop offset=".094" stop-color="#D0D0D0"/><stop offset=".109" stop-color="#D1D1D1"/><stop offset=".125" stop-color="#D2D2D2"/><stop offset=".141" stop-color="#D3D3D3"/><stop offset=".156" stop-color="#D4D4D4"/><stop offset=".172" stop-color="#D4D4D4"/><stop offset=".188" stop-color="#D5D5D5"/><stop offset=".203" stop-color="#D6D6D6"/><stop offset=".219" stop-color="#D7D7D7"/><stop offset=".234" stop-color="#D8D8D8"/><stop offset=".25" stop-color="#D8D8D8"/><stop offset=".266" stop-color="#D9D9D9"/><stop offset=".281" stop-color="#DADADA"/><stop offset=".297" stop-color="#DBDBDB"/><stop offset=".313" stop-color="#DCDCDC"/><stop offset=".328" stop-color="#DCDCDC"/><stop offset=".344" stop-color="#DDD"/><stop offset=".359" stop-color="#DEDEDE"/><stop offset=".375" stop-color="#DFDFDF"/><stop offset=".391" stop-color="#E0E0E0"/><stop offset=".406" stop-color="#E0E0E0"/><stop offset=".422" stop-color="#E1E1E1"/><stop offset=".438" stop-color="#E2E2E2"/><stop offset=".453" stop-color="#E3E3E3"/><stop offset=".469" stop-color="#E4E4E4"/><stop offset=".484" stop-color="#E4E4E4"/><stop offset=".5" stop-color="#E5E5E5"/><stop offset=".516" stop-color="#E6E6E6"/><stop offset=".531" stop-color="#E7E7E7"/><stop offset=".547" stop-color="#E7E7E7"/><stop offset=".563" stop-color="#E8E8E8"/><stop offset=".578" stop-color="#E9E9E9"/><stop offset=".594" stop-color="#EAEAEA"/><stop offset=".609" stop-color="#EBEBEB"/><stop offset=".625" stop-color="#EBEBEB"/><stop offset=".641" stop-color="#ECECEC"/><stop offset=".656" stop-color="#EDEDED"/><stop offset=".672" stop-color="#EEE"/><stop offset=".688" stop-color="#EFEFEF"/><stop offset=".703" stop-color="#EFEFEF"/><stop offset=".719" stop-color="#F0F0F0"/><stop offset=".734" stop-color="#F1F1F1"/><stop offset=".75" stop-color="#F2F2F2"/><stop offset=".766" stop-color="#F3F3F3"/><stop offset=".781" stop-color="#F3F3F3"/><stop offset=".797" stop-color="#F4F4F4"/><stop offset=".813" stop-color="#F5F5F5"/><stop offset=".828" stop-color="#F6F6F6"/><stop offset=".844" stop-color="#F7F7F7"/><stop offset=".859" stop-color="#F7F7F7"/><stop offset=".875" stop-color="#F8F8F8"/><stop offset=".891" stop-color="#F9F9F9"/><stop offset=".906" stop-color="#FAFAFA"/><stop offset=".922" stop-color="#FBFBFB"/><stop offset=".938" stop-color="#FBFBFB"/><stop offset=".953" stop-color="#FCFCFC"/><stop offset=".969" stop-color="#FDFDFD"/><stop offset=".984" stop-color="#FEFEFE"/><stop offset="1" stop-color="#FFF"/></linearGradient><linearGradient id="F" x1="0" x2="0" y1="25.003" y2="74.997" gradientTransform="matrix(1.76773 0 0 -.3402 210.975 47.929)" gradientUnits="userSpaceOnUse"><stop offset="0" stop-color="#E5CCCC"/><stop offset=".016" stop-color="#E6CCCC"/><stop offset=".031" stop-color="#E6CDCD"/><stop offset=".047" stop-color="#E6CECE"/><stop offset=".063" stop-color="#E7CFCF"/><stop offset=".078" stop-color="#E7D0D0"/><stop offset=".094" stop-color="#E8D0D0"/><stop offset=".109" stop-color="#E8D1D1"/><stop offset=".125" stop-color="#E8D2D2"/><stop offset=".141" stop-color="#E9D3D3"/><stop offset=".156" stop-color="#E9D4D4"/><stop offset=".172" stop-color="#EAD4D4"/><stop offset=".188" stop-color="#EAD5D5"/><stop offset=".203" stop-color="#EAD6D6"/><stop offset=".219" stop-color="#EBD7D7"/><stop offset=".234" stop-color="#EBD8D8"/><stop offset=".25" stop-color="#ECD8D8"/><stop offset=".266" stop-color="#ECD9D9"/><stop offset=".281" stop-color="#ECDADA"/><stop offset=".297" stop-color="#EDDBDB"/><stop offset=".313" stop-color="#EDDCDC"/><stop offset=".328" stop-color="#EEDCDC"/><stop offset=".344" stop-color="#EDD"/><stop offset=".359" stop-color="#EEDEDE"/><stop offset=".375" stop-color="#EFDFDF"/><stop offset=".391" stop-color="#EFE0E0"/><stop offset=".406" stop-color="#F0E0E0"/><stop offset=".422" stop-color="#F0E1E1"/><stop offset=".438" stop-color="#F0E2E2"/><stop offset=".453" stop-color="#F1E3E3"/><stop offset=".469" stop-color="#F1E4E4"/><stop offset=".484" stop-color="#F2E4E4"/><stop offset=".5" stop-color="#F2E5E5"/><stop offset=".516" stop-color="#F2E6E6"/><stop offset=".531" stop-color="#F3E7E7"/><stop offset=".547" stop-color="#F3E7E7"/><stop offset=".563" stop-color="#F4E8E8"/><stop offset=".578" stop-color="#F4E9E9"/><stop offset=".594" stop-color="#F4EAEA"/><stop offset=".609" stop-color="#F5EBEB"/><stop offset=".625" stop-color="#F5EBEB"/><stop offset=".641" stop-color="#F6ECEC"/><stop offset=".656" stop-color="#F6EDED"/><stop offset=".672" stop-color="#F6EEEE"/><stop offset=".688" stop-color="#F7EFEF"/><stop offset=".703" stop-color="#F7EFEF"/><stop offset=".719" stop-color="#F8F0F0"/><stop offset=".734" stop-color="#F8F1F1"/><stop offset=".75" stop-color="#F8F2F2"/><stop offset=".766" stop-color="#F9F3F3"/><stop offset=".781" stop-color="#F9F3F3"/><stop offset=".797" stop-color="#FAF4F4"/><stop offset=".813" stop-color="#FAF5F5"/><stop offset=".828" stop-color="#FAF6F6"/><stop offset=".844" stop-color="#FBF7F7"/><stop offset=".859" stop-color="#FBF7F7"/><stop offset=".875" stop-color="#FCF8F8"/><stop offset=".891" stop-color="#FCF9F9"/><stop offset=".906" stop-color="#FCFAFA"/><stop offset=".922" stop-color="#FDFBFB"/><stop offset=".938" stop-color="#FDFBFB"/><stop offset=".953" stop-color="#FEFCFC"/><stop offset=".969" stop-color="#FEFDFD"/><stop offset=".984" stop-color="#FEFEFE"/><stop offset="1" stop-color="#FFF"/></linearGradient><linearGradient id="I" x1="0" x2="0" y1="25.003" y2="74.997" gradientTransform="matrix(.3402 0 0 -.3402 217.126 68.967)" gradientUnits="userSpaceOnUse"><stop offset="0" stop-color="#CCC"/><stop offset=".016" stop-color="#CCC"/><stop offset=".031" stop-color="#CDCDCD"/><stop offset=".047" stop-color="#CECECE"/><stop offset=".063" stop-color="#CFCFCF"/><stop offset=".078" stop-color="#D0D0D0"/><stop offset=".094" stop-color="#D0D0D0"/><stop offset=".109" stop-color="#D1D1D1"/><stop offset=".125" stop-color="#D2D2D2"/><stop offset=".141" stop-color="#D3D3D3"/><stop offset=".156" stop-color="#D4D4D4"/><stop offset=".172" stop-color="#D4D4D4"/><stop offset=".188" stop-color="#D5D5D5"/><stop offset=".203" stop-color="#D6D6D6"/><stop offset=".219" stop-color="#D7D7D7"/><stop offset=".234" stop-color="#D8D8D8"/><stop offset=".25" stop-color="#D8D8D8"/><stop offset=".266" stop-color="#D9D9D9"/><stop offset=".281" stop-color="#DADADA"/><stop offset=".297" stop-color="#DBDBDB"/><stop offset=".313" stop-color="#DCDCDC"/><stop offset=".328" stop-color="#DCDCDC"/><stop offset=".344" stop-color="#DDD"/><stop offset=".359" stop-color="#DEDEDE"/><stop offset=".375" stop-color="#DFDFDF"/><stop offset=".391" stop-color="#E0E0E0"/><stop offset=".406" stop-color="#E0E0E0"/><stop offset=".422" stop-color="#E1E1E1"/><stop offset=".438" stop-color="#E2E2E2"/><stop offset=".453" stop-color="#E3E3E3"/><stop offset=".469" stop-color="#E4E4E4"/><stop offset=".484" stop-color="#E4E4E4"/><stop offset=".5" stop-color="#E5E5E5"/><stop offset=".516" stop-color="#E6E6E6"/><stop offset=".531" stop-color="#E7E7E7"/><stop offset=".547" stop-color="#E7E7E7"/><stop offset=".563" stop-color="#E8E8E8"/><stop offset=".578" stop-color="#E9E9E9"/><stop offset=".594" stop-color="#EAEAEA"/><stop offset=".609" stop-color="#EBEBEB"/><stop offset=".625" stop-color="#EBEBEB"/><stop offset=".641" stop-color="#ECECEC"/><stop offset=".656" stop-color="#EDEDED"/><stop offset=".672" stop-color="#EEE"/><stop offset=".688" stop-color="#EFEFEF"/><stop offset=".703" stop-color="#EFEFEF"/><stop offset=".719" stop-color="#F0F0F0"/><stop offset=".734" stop-color="#F1F1F1"/><stop offset=".75" stop-color="#F2F2F2"/><stop offset=".766" stop-color="#F3F3F3"/><stop offset=".781" stop-color="#F3F3F3"/><stop offset=".797" stop-color="#F4F4F4"/><stop offset=".813" stop-color="#F5F5F5"/><stop offset=".828" stop-color="#F6F6F6"/><stop offset=".844" stop-color="#F7F7F7"/><stop offset=".859" stop-color="#F7F7F7"/><stop offset=".875" stop-color="#F8F8F8"/><stop offset=".891" stop-color="#F9F9F9"/><stop offset=".906" stop-color="#FAFAFA"/><stop offset=".922" stop-color="#FBFBFB"/><stop offset=".938" stop-color="#FBFBFB"/><stop offset=".953" stop-color="#FCFCFC"/><stop offset=".969" stop-color="#FDFDFD"/><stop offset=".984" stop-color="#FEFEFE"/><stop offset="1" stop-color="#FFF"/></linearGradient></defs><g clip-path="url(#a)"><g clip-path="url(#b)"><path fill="url(#c)" d="M225.633 18.387V1.379h17.008v17.008Zm0 0"/></g></g><path fill="none" stroke="#7F7F7F" stroke-miterlimit="10" stroke-width="1.196" d="M234.137 1.379a8.503 8.503 0 0 1 8.504 8.504 8.506 8.506 0 0 1-8.504 8.504 8.506 8.506 0 0 1-8.504-8.504c0-4.7 3.808-8.504 8.504-8.504Zm0 0"/><use xlink:href="#d" x="231.52" y="12.646"/><g clip-path="url(#e)"><path fill="url(#f)" d="M7.11 39.422V22.414h88.374v17.008Zm0 0"/></g><path fill="none" stroke="#BF7F7F" stroke-miterlimit="10" stroke-width="1.196" d="M7.11 39.422h88.374V22.414H7.11Zm0 0"/><use xlink:href="#g" x="10.431" y="33.684"/><use xlink:href="#h" x="16.617" y="33.684"/><use xlink:href="#i" x="23.093" y="33.684"/><use xlink:href="#j" x="27.945" y="33.684"/><use xlink:href="#k" x="31.492" y="33.684"/><use xlink:href="#h" x="36.792" y="33.684"/><use xlink:href="#l" x="43.267" y="33.684"/><use xlink:href="#m" x="47.98" y="33.684"/><use xlink:href="#j" x="57.992" y="33.684"/><use xlink:href="#h" x="61.539" y="33.684"/><use xlink:href="#n" x="68.015" y="33.684"/><use xlink:href="#l" x="71.85" y="33.684"/><use xlink:href="#k" x="76.563" y="33.684"/><use xlink:href="#l" x="81.863" y="33.684"/><use xlink:href="#o" x="87.163" y="33.684"/><g clip-path="url(#p)"><g clip-path="url(#q)"><path fill="url(#r)" d="M108.02 39.422V22.414h17.007v17.008Zm0 0"/></g></g><path fill="none" stroke="#7F7F7F" stroke-miterlimit="10" stroke-width="1.196" d="M116.523 22.414a8.506 8.506 0 0 1 8.504 8.504c0 4.7-3.808 8.504-8.504 8.504a8.5 8.5 0 0 1-8.503-8.504 8.503 8.503 0 0 1 8.503-8.504Zm0 0"/><use xlink:href="#s" x="113.907" y="33.684"/><g clip-path="url(#t)"><g clip-path="url(#u)"><path fill="url(#v)" d="M137.563 39.422V22.414h34.656v17.008Zm0 0"/></g></g><path fill="none" stroke="#7F7F7F" stroke-miterlimit="10" stroke-width="1.196" d="M154.89 22.414h8.825a8.506 8.506 0 0 1 8.504 8.504c0 4.7-3.809 8.504-8.504 8.504h-17.649a8.5 8.5 0 0 1-8.504-8.504 8.503 8.503 0 0 1 8.504-8.504Zm0 0"/><use xlink:href="#w" x="141.814" y="33.684"/><use xlink:href="#x" x="147.044" y="33.684"/><use xlink:href="#y" x="152.274" y="33.684"/><use xlink:href="#x" x="157.505" y="33.684"/><use xlink:href="#z" x="162.735" y="33.684"/><g clip-path="url(#A)"><g clip-path="url(#B)"><path fill="url(#C)" d="M196.09 39.422V22.414h17.008v17.008Zm0 0"/></g></g><path fill="none" stroke="#7F7F7F" stroke-miterlimit="10" stroke-width="1.196" d="M204.594 22.414c4.699 0 8.504 3.809 8.504 8.504a8.5 8.5 0 0 1-8.504 8.504 8.503 8.503 0 0 1-8.504-8.504 8.506 8.506 0 0 1 8.504-8.504Zm0 0"/><use xlink:href="#D" x="201.98" y="33.684"/><g clip-path="url(#E)"><path fill="url(#F)" d="M255.172 39.422V22.414h88.379v17.008Zm0 0"/></g><path fill="none" stroke="#BF7F7F" stroke-miterlimit="10" stroke-width="1.196" d="M255.172 39.422h88.379V22.414h-88.38Zm0 0"/><use xlink:href="#g" x="258.495" y="33.684"/><use xlink:href="#h" x="264.681" y="33.684"/><use xlink:href="#i" x="271.157" y="33.684"/><use xlink:href="#j" x="276.009" y="33.684"/><use xlink:href="#k" x="279.556" y="33.684"/><use xlink:href="#h" x="284.856" y="33.684"/><use xlink:href="#l" x="291.331" y="33.684"/><use xlink:href="#m" x="296.044" y="33.684"/><use xlink:href="#j" x="306.056" y="33.684"/><use xlink:href="#h" x="309.603" y="33.684"/><use xlink:href="#n" x="316.079" y="33.684"/><use xlink:href="#l" x="319.914" y="33.684"/><use xlink:href="#k" x="324.627" y="33.684"/><use xlink:href="#l" x="329.927" y="33.684"/><use xlink:href="#o" x="335.227" y="33.684"/><g clip-path="url(#G)"><g clip-path="url(#H)"><path fill="url(#I)" d="M225.633 60.46V43.454h17.008v17.008Zm0 0"/></g></g><g clip-path="url(#J)"><path fill="none" stroke="#7F7F7F" stroke-miterlimit="10" stroke-width="1.196" d="M234.137 43.453a8.506 8.506 0 0 1 8.504 8.504 8.506 8.506 0 0 1-8.504 8.504 8.506 8.506 0 0 1-8.504-8.504 8.506 8.506 0 0 1 8.504-8.504Zm0 0"/></g><use xlink:href="#K" x="231.52" y="54.722"/><path fill="none" stroke="#000" stroke-miterlimit="10" stroke-width=".399" d="M.84 30.918h5.27"/><path fill="none" stroke="#000" stroke-linecap="round" stroke-linejoin="round" stroke-miterlimit="10" stroke-width=".399" d="M4.238 28.527c.38 1.434 1.223 2.114 2.07 2.391-.847.281-1.69.957-2.07 2.39"/><path fill="none" stroke="#000" stroke-miterlimit="10" stroke-width=".399" d="M96.082 30.918h5.668M101.75 30.918h5.27"/><path fill="none" stroke="#000" stroke-linecap="round" stroke-linejoin="round" stroke-miterlimit="10" stroke-width=".399" d="M105.148 28.527c.38 1.434 1.223 2.114 2.07 2.391-.847.281-1.69.957-2.07 2.39"/><path fill="none" stroke="#000" stroke-miterlimit="10" stroke-width=".399" d="M125.621 30.918h5.672M131.293 30.918h5.27"/><path fill="none" stroke="#000" stroke-linecap="round" stroke-linejoin="round" stroke-miterlimit="10" stroke-width=".399" d="M134.691 28.527c.38 1.434 1.223 2.114 2.07 2.391-.847.281-1.69.957-2.07 2.39"/><path fill="none" stroke="#000" stroke-miterlimit="10" stroke-width=".399" d="M172.816 30.918h5.668M178.484 30.918h5.668M184.152 30.918h5.672M189.824 30.918h5.27"/><path fill="none" stroke="#000" stroke-linecap="round" stroke-linejoin="round" stroke-miterlimit="10" stroke-width=".399" d="M193.223 28.527c.375 1.434 1.218 2.114 2.07 2.391-.852.281-1.695.957-2.07 2.39"/><path fill="none" stroke="#000" stroke-miterlimit="10" stroke-width=".399" d="M213.695 30.918h5.668M219.363 30.918h29.543M248.906 30.918h5.274"/><path fill="none" stroke="#000" stroke-linecap="round" stroke-linejoin="round" stroke-miterlimit="10" stroke-width=".399" d="M252.305 28.527c.379 1.434 1.222 2.114 2.074 2.391-.852.281-1.695.957-2.074 2.39"/><path fill="none" stroke="#000" stroke-miterlimit="10" stroke-width=".399" d="M344.148 30.918h5.668M349.816 30.918h5.274"/><path fill="none" stroke="#000" stroke-linecap="round" stroke-linejoin="round" stroke-miterlimit="10" stroke-width=".399" d="M353.215 28.527c.379 1.434 1.223 2.114 2.074 2.391-.851.281-1.695.957-2.074 2.39"/><path fill="none" stroke="#000" stroke-miterlimit="10" stroke-width=".399" d="M178.484 30.918v14.176h-47.191V31.316"/><path fill="none" stroke="#000" stroke-linecap="round" stroke-linejoin="round" stroke-miterlimit="10" stroke-width=".399" d="M128.902 33.191c1.434-.379 2.11-1.222 2.391-2.074.277.852.957 1.695 2.39 2.074"/><path fill="none" stroke="#000" stroke-miterlimit="10" stroke-width=".399" d="M101.75 30.918V16.746h82.402V30.52"/><path fill="none" stroke="#000" stroke-linecap="round" stroke-linejoin="round" stroke-miterlimit="10" stroke-width=".399" d="M186.543 28.648c-1.434.38-2.11 1.223-2.39 2.07-.278-.847-.958-1.69-2.391-2.07"/><path fill="none" stroke="#000" stroke-miterlimit="10" stroke-width=".399" d="M189.824 30.918v31.184h159.992V31.316"/><path fill="none" stroke="#000" stroke-linecap="round" stroke-linejoin="round" stroke-miterlimit="10" stroke-width=".399" d="M347.426 33.191c1.433-.379 2.113-1.222 2.39-2.074.282.852.957 1.695 2.391 2.074"/><path fill="none" stroke="#000" stroke-miterlimit="10" stroke-width=".399" d="M219.363 30.918V9.878h5.274"/><path fill="none" stroke="#000" stroke-linecap="round" stroke-linejoin="round" stroke-miterlimit="10" stroke-width=".399" d="M222.762 7.488c.379 1.438 1.222 2.114 2.074 2.39-.852.282-1.695.958-2.074 2.395"/><path fill="none" stroke="#000" stroke-miterlimit="10" stroke-width=".399" d="M243.238 9.879h5.668v20.64"/><path fill="none" stroke="#000" stroke-linecap="round" stroke-linejoin="round" stroke-miterlimit="10" stroke-width=".399" d="M251.297 28.648c-1.434.38-2.11 1.223-2.39 2.07-.278-.847-.958-1.69-2.391-2.07"/><path fill="none" stroke="#000" stroke-miterlimit="10" stroke-width=".399" d="M219.363 30.918v21.039h5.274"/><path fill="none" stroke="#000" stroke-linecap="round" stroke-linejoin="round" stroke-miterlimit="10" stroke-width=".399" d="M222.762 49.566c.379 1.434 1.222 2.114 2.074 2.391-.852.277-1.695.957-2.074 2.39"/><path fill="none" stroke="#000" stroke-miterlimit="10" stroke-width=".399" d="M243.238 51.957h5.668v-20.64"/><path fill="none" stroke="#000" stroke-linecap="round" stroke-linejoin="round" stroke-miterlimit="10" stroke-width=".399" d="M246.516 33.191c1.433-.379 2.113-1.222 2.39-2.074.281.852.957 1.695 2.39 2.074"/></svg>