<svg xmlns="http://www.w3.org/2000/svg" width="21.951" height="5.636"><defs><clipPath id="a"><path d="M0 0h21.926v5.453H0Zm0 0"/></clipPath><clipPath id="b"><path d="M2 0h19.926v5.453H2Zm0 0"/></clipPath></defs><path fill="none" stroke="#000" stroke-miterlimit="10" stroke-width=".797" d="M.984 2.629h13.09"/><path d="M12.164 2.629c0-.777-1.441-1.41-3.219-1.41s-3.218.633-3.218 1.41 1.441 1.41 3.218 1.41c1.778 0 3.22-.633 3.22-1.41m0 0"/><g clip-path="url(#a)"><path fill="none" stroke="#000" stroke-miterlimit="10" stroke-width=".797" d="M12.164 2.629c0-.777-1.441-1.41-3.219-1.41s-3.218.633-3.218 1.41 1.441 1.41 3.218 1.41c1.778 0 3.22-.633 3.22-1.41Zm0 0"/></g><path d="M20.512 2.629c0-.777-1.442-1.41-3.219-1.41s-3.219.633-3.219 1.41 1.442 1.41 3.219 1.41 3.219-.633 3.219-1.41m0 0"/><g clip-path="url(#b)"><path fill="none" stroke="#000" stroke-miterlimit="10" stroke-width=".797" d="M20.512 2.629c0-.777-1.442-1.41-3.219-1.41s-3.219.633-3.219 1.41 1.442 1.41 3.219 1.41 3.219-.633 3.219-1.41Zm0 0"/></g></svg>