<svg xmlns="http://www.w3.org/2000/svg" width="92.504" height="64.1"><defs><clipPath id="a"><path d="M0 0h92.258v63.648H0Zm0 0"/></clipPath></defs><path fill="none" stroke="#7F7F7F" stroke-miterlimit="10" stroke-width=".199" d="M3.691 59.742h85.04M3.69 31.395h85.04M3.69 3.059h85.04M3.69 59.742V3.047m28.344 56.695V3.047m28.348 56.695V3.047m28.336 56.695V3.047"/><g clip-path="url(#a)"><path fill="none" stroke="#000" stroke-miterlimit="10" stroke-width=".399" d="m2.82 57.129-.574 1.527L1.06 59.72l1.238 1.086.637 1.535 1.336-.86 1.585-.113-.41-1.613.336-1.606-1.586-.14Zm6.723-2.242-.574 1.527L7.78 57.48l1.239 1.083.636 1.535 1.336-.856 1.586-.113-.41-1.613.336-1.61-1.586-.14Zm6.723-2.239-.575 1.528-1.187 1.062 1.238 1.082.637 1.54 1.336-.86 1.586-.113-.41-1.614.336-1.609-1.586-.137Zm6.722-2.242-.574 1.528-1.187 1.062 1.238 1.086.637 1.535 1.335-.855 1.586-.117-.41-1.614.336-1.605-1.586-.14Zm6.723-2.242-.574 1.527-1.188 1.067 1.238 1.082.637 1.539 1.336-.86 1.586-.113-.41-1.613.336-1.61-1.586-.14Zm6.723-2.238-.575 1.527-1.187 1.063 1.238 1.082.637 1.539 1.336-.86 1.586-.113-.41-1.613.336-1.61-1.586-.136Zm6.722-2.242-.574 1.527-1.187 1.062 1.238 1.086.637 1.536 1.335-.856 1.586-.117-.41-1.613.336-1.606-1.586-.14Zm6.723-2.243-.574 1.528-1.188 1.066 1.238 1.082.637 1.54 1.336-.86 1.586-.113-.41-1.614.336-1.61-1.586-.14Zm6.723-2.238-.575 1.527-1.187 1.063 1.238 1.082.637 1.54 1.336-.86 1.586-.114-.41-1.613.336-1.61-1.586-.136Zm6.722-2.242-.574 1.527-1.187 1.067 1.238 1.082.636 1.535 1.336-.856 1.586-.117-.41-1.613.336-1.606-1.586-.14Zm6.723-2.242-.574 1.527-1.188 1.066 1.238 1.083.637 1.539 1.336-.86 1.586-.113-.41-1.613.336-1.61-1.586-.14Zm6.723-2.239-.575 1.528-1.187 1.062 1.238 1.082.637 1.54 1.336-.86 1.586-.113-.41-1.614.335-1.609-1.585-.137Zm6.722-2.242-.574 1.528-1.188 1.066 1.239 1.082.636 1.535 1.336-.855 1.586-.117-.41-1.614.336-1.605-1.586-.14Zm2.344-.988 1.39.852.82 1.367 1.298-1.008 1.633-.336-.59-1.473.187-1.578-1.66.098-1.516-.64-.437 1.534Zm-1.856-5.82 1.598.332 1.234 1.011.88-1.39 1.421-.867-1.054-1.188-.356-1.547-1.531.653-1.64-.086.105 1.59ZM80.31 18.3l1.629-.116 1.46.636.47-1.574 1.128-1.223-1.336-.855-.765-1.395-1.293 1.047-1.602.364.535 1.5Zm-4.934-4.234 1.57-.453 1.563.32.129-1.636.851-1.434-1.484-.558-1.04-1.2-1.05 1.29-1.488.687.836 1.36Zm-5.734-3.304 1.468-.707 1.594.054-.14-1.636.601-1.551-1.559-.305-1.222-1.015-.82 1.449-1.356.926 1.05 1.199Zm-6.243-2.426 1.356-.906 1.586-.168-.367-1.602.375-1.62-1.586-.083-1.352-.832-.61 1.547-1.214 1.105 1.21 1.043Zm-6.55-1.598 1.234-1.066 1.555-.367-.567-1.54.172-1.656-1.582.114-1.445-.66-.414 1.613-1.067 1.246 1.328.883Zm-6.723-.812 1.105-1.203 1.5-.54-.738-1.468-.015-1.664-1.559.293-1.512-.489-.226 1.649-.918 1.363 1.422.727Zm-6.77-.059.97-1.312 1.433-.703-.895-1.38L44.668.82l-1.52.461-1.554-.32-.047 1.664-.766 1.453 1.492.567Zm-6.734.692.813-1.414 1.343-.86-1.043-1.27-.382-1.62-1.457.632-1.583-.14.145 1.656-.598 1.531 1.547.395ZM30.04 8.03l.633-1.504 1.226-1.015-1.191-1.133-.578-1.563-1.367.805-1.586.055.344 1.629-.403 1.59 1.582.203Zm-6.3 2.293.417-1.578 1.082-1.172-1.336-.957-.789-1.469-1.246.985-1.562.265.562 1.567-.18 1.633 1.598-.016Zm-5.837 3.164.16-1.62.875-1.337-1.468-.73-1.012-1.32-1.07 1.171-1.5.516.808 1.453.082 1.64 1.57-.273Zm-5.086 4.082-.164-1.62.59-1.481-1.586-.422-1.258-1.09-.816 1.36-1.367.808L9.3 16.387l.41 1.59 1.484-.582ZM8.91 22.566l-.582-1.52.184-1.585-1.645.008-1.496-.727-.43 1.528-1.113 1.136 1.379.938.813 1.426 1.28-.95Zm-2.176 5.735L5.68 27.059 5.332 25.5l-1.547.55-1.656-.19.098 1.585-.672 1.438 1.61.43 1.237 1.078.895-1.317Zm0 0"/></g></svg>