<svg xmlns="http://www.w3.org/2000/svg" xmlns:xlink="http://www.w3.org/1999/xlink" width="49.646" height="99.506"><defs><path id="b" d="M-3.187-5.281c-.954 0-3.344.015-3.344 2.422S-4.156-.453-3.188-.453c1 0 3.297 0 3.297-2.406 0-2.391-2.296-2.422-3.296-2.422M-3.297-4c.563 0 1.469 0 1.985.078.921.14 1.062.766 1.062 1.063 0 .359-.219.922-.953 1.047-.516.093-1.547.093-2.094.093-.719 0-1.375 0-1.89-.078-.891-.125-.985-.828-.985-1.062 0-.375.188-.782.625-.97C-5.172-4-4.109-4-3.297-4m0 0"/><path id="g" d="M-.781-2.36a.784.784 0 0 0-.781.782c0 .422.359.766.78.766a.774.774 0 1 0 0-1.547m0 0"/><path id="h" d="M-2-5.156c-1.156 0-2.078.797-2.078 2.265 0 .282.031.813.344 1.282h-1.313c.047-.282.078-.391.078-.72 0-1.452-1.125-2.374-1.375-2.374-.078 0-.187.016-.187.14 0 .032 0 .032.047.141a4.3 4.3 0 0 1 .28 1.531c0 .75-.202 1.282-.28 1.547-.032.094-.047.094-.047.125 0 .14.11.14.265.14h2.922c.172 0 .297 0 .297-.218 0-.125-.031-.156-.11-.219-.468-.39-.562-.921-.562-1.328 0-.89.875-.89 1.672-.89.735 0 1.735 0 1.735 1.187 0 .25-.063.875-.625 1.297-.016-.36-.266-.656-.672-.656-.532 0-.672.437-.672.672 0 .14.094.672.703.672.844 0 1.687-.782 1.687-2.016C.11-4.172-.78-5.156-2-5.156m0 0"/><path id="c" d="M4.016 4.672c.937-.156 3.28-.563 2.89-2.922C6.516-.625 4.172-.234 3.22-.078 2.234.094-.031.469.359 2.844c.391 2.344 2.672 2 3.657 1.828m-.11-1.266c-.547.094-1.453.25-1.969.25-.921.016-1.171-.594-1.218-.875-.063-.36.062-.953.765-1.203.5-.156 1.516-.328 2.047-.422.719-.11 1.36-.218 1.875-.25.907-.015 1.125.672 1.157.907.062.359-.063.796-.47 1.062-.343.234-1.39.406-2.187.531m0 0"/><path id="d" d="M1.156 2.203a.8.8 0 0 0 .657-.89C1.734.89 1.328.593.906.672a.767.767 0 0 0-.64.89c.062.422.468.704.89.641m0 0"/><path id="e" d="m3.031 4.734-.078-.468c-.203 0-.844.015-.922-.125-.094-.094-.219-.828-.234-.985l-.25-1.453c.469.406.969.844 1.375 1.235 1.015.984 1.578 1.546 2.5 1.39 1.14-.187 1.687-1.36 1.469-2.719C6.688.406 5.92-.406 5.047-.266c-.594.094-.656.594-.625.829.062.328.344.671.844.578.5-.079.593-.516.609-.657.281.235.453.594.516.954.14.828-.453 1.406-1.188 1.53-.672.11-1.422-.14-2.234-.718L.625.61C.5.5.469.5.265.53L.095.562l.703 4.22Zm0 0"/><path id="f" d="M2.813 4.766c1.14-.188 1.921-1.141 1.671-2.594-.046-.266-.156-.797-.53-1.188L5.25.766c0 .265-.016.39.031.718.25 1.438 1.5 2.157 1.735 2.11.078-.016.187-.047.172-.172 0-.031 0-.031-.063-.125a4.4 4.4 0 0 1-.531-1.469c-.11-.734-.016-1.281.015-1.562.016-.11.032-.11.032-.141C6.609-.015 6.5 0 6.359.031L3.47.516c-.172.03-.297.046-.25.265.015.125.047.156.14.203.532.297.72.813.782 1.22.14.874-.72 1.015-1.516 1.14-.719.125-1.703.297-1.89-.875-.047-.25-.079-.875.39-1.39.078.359.375.593.781.53.516-.093.578-.53.547-.765a.666.666 0 0 0-.797-.547C.813.437.11 1.344.313 2.563c.265 1.562 1.296 2.406 2.5 2.203m0 0"/><path id="i" d="M2.625-5.578C2.094-6.36.75-8.36-1.25-7.031c-2 1.343-.687 3.328-.14 4.125.546.844 1.828 2.75 3.827 1.406 2-1.312.735-3.234.188-4.078m-1.125.61c.313.468.813 1.234 1.031 1.702.39.844-.047 1.313-.297 1.47-.296.202-.89.327-1.39-.204-.36-.39-.938-1.234-1.235-1.703-.406-.594-.765-1.14-.984-1.61-.406-.812.14-1.28.328-1.421a1.04 1.04 0 0 1 1.156 0c.344.218.938 1.093 1.391 1.765m0 0"/><path id="j" d="M1.531-1.969a.775.775 0 0 0-1.078-.203C.11-1.937 0-1.453.234-1.109c.25.375.735.468 1.079.234.359-.25.468-.719.218-1.094m0 0"/><path id="k" d="M1.063-8.422-.625-7.297c-.187.125-1.453.906-1.578.938-.188.078-.266.015-.328-.063l-.39.266 1.124 2.297.39-.25c-.343-.703-.312-.86-.28-.907.046-.109.718-.562.859-.656l1.39-.922c-.015.266-.062.547-.093.828-.156 1.47-.016 2.985.797 4.204.39.593.859.28.922.25.124-.094.484-.407.124-.954l-.265-.39c-.25-.39-.5-.797-.703-1.219-.297-.61-.453-1.203-.375-1.734l.281-2.36c.016-.14 0-.172-.187-.453m0 0"/><path id="l" d="M3.188-4.531C2.547-5.484 1.359-5.813.14-5c-.235.156-.657.469-.875 1l-.72-1.094c.266-.11.376-.156.642-.343C.39-6.234.53-7.672.39-7.892c-.047-.062-.11-.14-.22-.078-.03.016-.03.016-.093.125a4.2 4.2 0 0 1-1.11 1.078c-.624.422-1.171.547-1.437.625-.094.032-.11.016-.14.032-.125.078-.063.172.03.297l1.61 2.437c.094.14.172.25.36.125.109-.062.109-.125.125-.219.062-.61.453-.984.78-1.203.75-.5 1.235.234 1.673.89.406.61.968 1.438-.016 2.11-.219.125-.766.438-1.422.203.282-.218.39-.593.172-.937-.297-.438-.75-.297-.937-.172-.125.078-.516.453-.172.953.469.703 1.594.969 2.61.281 1.327-.875 1.655-2.172.983-3.187m0 0"/><path id="m" d="M4.922 0v-.469h-1.39v-5.734c0-.234 0-.328-.266-.328-.11 0-.125 0-.22.078-.765.562-1.796.562-2 .562H.845v.47h.203c.156 0 .703-.016 1.297-.204v5.156H.954V0c.437-.031 1.5-.031 1.984-.031s1.546 0 1.984.031m0 0"/><clipPath id="a"><path d="M5 5h44.469v94.258H5Zm0 0"/></clipPath></defs><g clip-path="url(#a)"><path fill="none" stroke="#000" stroke-miterlimit="10" stroke-width=".399" d="M18.066 95.844C18.066 39.148-10.28 10.8 46.41 10.8"/></g><use xlink:href="#b" x="14.435" y="98.707"/><use xlink:href="#c" x="16.427" y="47.998"/><use xlink:href="#d" x="17.369" y="53.648"/><use xlink:href="#e" x="17.891" y="56.783"/><use xlink:href="#f" x="18.833" y="62.433"/><use xlink:href="#b" x="7.349" y="39.38"/><use xlink:href="#g" x="7.349" y="33.651"/><use xlink:href="#h" x="7.349" y="30.473"/><use xlink:href="#i" x="7.58" y="18.746"/><use xlink:href="#j" x="12.346" y="15.569"/><use xlink:href="#k" x="14.99" y="13.806"/><use xlink:href="#l" x="19.757" y="10.628"/><use xlink:href="#m" x="43.547" y="7.283"/></svg>