<svg xmlns="http://www.w3.org/2000/svg" xmlns:xlink="http://www.w3.org/1999/xlink" width="58.232" height="79.49"><defs><path id="a" d="M5.563-1.812c.14 0 .312 0 .312-.172 0-.188-.172-.188-.312-.188H1c-.125 0-.297 0-.297.188 0 .172.172.172.297.172Zm0 0"/><path id="b" d="M3.125-2.344c0 1.938-.922 2.266-1.39 2.266-.173 0-.579-.016-.798-.266.36-.031.375-.297.375-.375a.37.37 0 0 0-.375-.375.37.37 0 0 0-.375.39c0 .548.454.876 1.188.876 1.094 0 2.125-1.094 2.125-2.797 0-2.062-.922-2.672-1.734-2.672-.953 0-1.797.734-1.797 1.781 0 1.016.781 1.766 1.687 1.766.563 0 .906-.36 1.094-.766Zm-1.062.375c-.376 0-.61-.172-.782-.468-.187-.282-.187-.672-.187-1.079 0-.468 0-.796.218-1.125.204-.296.454-.453.829-.453.53 0 .765.532.797.563.156.39.171 1.015.171 1.172 0 .64-.343 1.39-1.046 1.39m0 0"/><path id="c" d="M3.89-2.547c0-.844-.078-1.36-.343-1.875-.344-.703-1-.875-1.438-.875-1 0-1.375.75-1.484.969C.344-3.75.328-2.953.328-2.547c0 .531.016 1.328.406 1.969.36.594.954.75 1.375.75.391 0 1.063-.125 1.47-.906.296-.578.312-1.297.312-1.813M2.11-.062c-.266 0-.813-.125-.985-.954-.094-.453-.094-1.203-.094-1.625 0-.546 0-1.109.094-1.546.172-.813.781-.891.984-.891.266 0 .829.14.985.86.094.437.094 1.046.094 1.577 0 .47 0 1.188-.094 1.641-.172.828-.719.938-.985.938m0 0"/><path id="e" d="M1.094-2.64c0-.657.062-1.235.343-1.72.25-.406.657-.734 1.157-.734.156 0 .515.032.703.297-.36.031-.39.297-.39.375 0 .25.187.375.374.375.14 0 .375-.078.375-.39 0-.47-.36-.86-1.078-.86C1.468-5.297.344-4.25.344-2.53.344-.36 1.359.172 2.125.172c.39 0 .797-.11 1.156-.453.328-.313.594-.64.594-1.344 0-1.031-.797-1.766-1.672-1.766-.578 0-.922.36-1.11.75M2.125-.079a.88.88 0 0 1-.797-.516c-.187-.36-.203-.89-.203-1.203 0-.781.422-1.375 1.047-1.375.39 0 .64.203.781.485.172.296.172.656.172 1.062s0 .75-.156 1.047c-.219.36-.485.5-.844.5m0 0"/><path id="f" d="M2.016-2.656c.625 0 1.03.453 1.03 1.297 0 1-.562 1.28-.983 1.28-.438 0-1.047-.155-1.329-.577.297 0 .5-.188.5-.438 0-.265-.187-.437-.453-.437-.203 0-.437.125-.437.453 0 .75.812 1.25 1.734 1.25 1.047 0 1.797-.734 1.797-1.531 0-.672-.531-1.266-1.344-1.453.625-.22 1.11-.75 1.11-1.391 0-.64-.72-1.094-1.547-1.094-.86 0-1.5.453-1.5 1.063 0 .297.187.422.406.422.25 0 .406-.172.406-.407 0-.297-.265-.406-.437-.406.344-.437.953-.469 1.094-.469.203 0 .812.063.812.89 0 .548-.234.891-.344 1.016-.234.25-.422.266-.906.297-.156 0-.219.016-.219.125 0 .11.078.11.219.11Zm0 0"/><path id="g" d="M2.5-5.078c0-.219-.016-.219-.234-.219-.328.313-.75.5-1.5.5v.266c.218 0 .64 0 1.109-.203v4.078c0 .297-.031.39-.781.39H.812V0c.329-.031 1.016-.031 1.376-.031s1.046 0 1.374.031v-.266h-.28c-.75 0-.782-.093-.782-.39Zm0 0"/><path id="d" d="M3.266-1.5c0-.75-.61-1.36-1.36-1.36-.734 0-1.343.61-1.343 1.36 0 .766.609 1.36 1.343 1.36.75 0 1.36-.594 1.36-1.36M1.906-.453A1.024 1.024 0 0 1 .875-1.5c0-.578.453-1.047 1.031-1.047s1.047.469 1.047 1.047c0 .594-.469 1.047-1.047 1.047m0 0"/></defs><path fill="none" stroke="#7F7F7F" stroke-linecap="round" stroke-miterlimit="10" stroke-width=".399" d="M9.605 67.754v1.996M23.777 63.957l.996 1.727M34.152 53.582l1.727.996M37.95 39.41h1.995M34.152 25.234l1.727-.996M23.777 14.86l.996-1.727M9.605 11.063V9.07M9.605 39.41h0M28.5 39.41h0M7.613 58.309h3.985M28.5 41.402v-3.984M11.598 20.512H7.613"/><path fill="none" stroke="#7F7F7F" stroke-miterlimit="10" stroke-width=".399" d="M9.605 67.754c15.653 0 28.344-12.688 28.344-28.344S25.258 11.063 9.605 11.063M9.605 39.41v28.344M9.605 39.41H37.95M9.605 39.41V11.063"/><path fill="none" stroke="#000" stroke-miterlimit="10" stroke-width=".399" d="m17.074 37.586 2.817-2.816m-2.817 0 2.817 2.816M24.563 31.367l2.816-2.816m-2.817 0 2.817 2.816M29.91 22.598l2.817-2.82m-2.817 0 2.817 2.82"/><use xlink:href="#a" x="-.082" y="78.068"/><use xlink:href="#b" x="6.504" y="78.068"/><use xlink:href="#c" x="10.739" y="78.068"/><use xlink:href="#d" x="14.972" y="75.255"/><use xlink:href="#a" x="27.429" y="74.003"/><use xlink:href="#e" x="34.015" y="74.003"/><use xlink:href="#c" x="38.25" y="74.003"/><use xlink:href="#d" x="42.484" y="71.19"/><use xlink:href="#a" x="38.534" y="62.898"/><use xlink:href="#f" x="45.12" y="62.898"/><use xlink:href="#c" x="49.355" y="62.898"/><use xlink:href="#d" x="53.589" y="60.085"/><use xlink:href="#c" x="42.598" y="42.241"/><use xlink:href="#d" x="46.833" y="39.428"/><use xlink:href="#f" x="38.534" y="21.584"/><use xlink:href="#c" x="42.769" y="21.584"/><use xlink:href="#d" x="47.002" y="18.771"/><use xlink:href="#e" x="27.429" y="10.479"/><use xlink:href="#c" x="31.664" y="10.479"/><use xlink:href="#d" x="35.897" y="7.666"/><use xlink:href="#b" x="3.211" y="6.414"/><use xlink:href="#c" x="7.446" y="6.414"/><use xlink:href="#d" x="11.679" y="3.602"/><use xlink:href="#c" x="7.486" y="47.202"/><use xlink:href="#g" x="26.384" y="47.202"/><use xlink:href="#g" x=".721" y="60.875"/><use xlink:href="#g" x="26.384" y="49.194"/><use xlink:href="#g" x=".721" y="23.08"/></svg>