<svg xmlns="http://www.w3.org/2000/svg" width="89.714" height="60.05"><defs><clipPath id="a"><path d="M0 0h89.57v59.574H0Zm0 0"/></clipPath></defs><path fill="none" stroke="#7F7F7F" stroke-miterlimit="10" stroke-width=".199" d="M2.957 58.2h85.04M2.956 29.851h85.04M2.956 1.516h85.04M2.956 58.199V1.508m28.348 56.691V1.508m28.347 56.691V1.508m28.336 56.691V1.508"/><path fill="#D2C92A" d="m2.957 58.2 8.664-5.513.785 2.364 8.664-5.516.79 2.363 8.663-5.511.786 2.363 8.664-5.516.789 2.364 8.664-5.512.785 2.363 8.664-5.515.79 2.363 8.663-5.512.785 2.363 8.664-5.511.79 2.36 8.663-5.513.786 2.364-2.536-10 2.493-.004-9.391-7.168 2.191-1.18-10.71-3.543 1.632-1.883-10.804-1.148 1.113-2.23-10.656.699.656-2.403-10.34 2.32.25-2.476-9.844 3.816-.14-2.484-9.098 5.387-.539-2.434-7.934 7.074-.98-2.289-6.02 8.903L5.875 16.8 3.242 27.516 1.2 26.09l2.98 11.187-2.464-.363 3.734 10.059H2.957l2.492 9.96H2.957Zm0 0"/><g clip-path="url(#a)"><path fill="none" stroke="#000" stroke-miterlimit="10" stroke-width=".399" d="m2.957 58.2 8.664-5.513.785 2.364 8.664-5.516.79 2.363 8.663-5.511.786 2.363 8.664-5.516.789 2.364 8.664-5.512.785 2.363 8.664-5.515.79 2.363 8.663-5.512.785 2.363 8.664-5.511.79 2.36 8.663-5.513.786 2.364-2.536-10 2.493-.004-9.391-7.168 2.191-1.18-10.71-3.543 1.632-1.883-10.804-1.148 1.113-2.23-10.656.699.656-2.403-10.34 2.32.25-2.476-9.844 3.816-.14-2.484-9.098 5.387-.539-2.434-7.934 7.074-.98-2.289-6.02 8.903L5.875 16.8 3.242 27.516 1.2 26.09l2.98 11.187-2.464-.363 3.734 10.059H2.957l2.492 9.96H2.957Zm0 0"/></g></svg>