<svg xmlns="http://www.w3.org/2000/svg" width="88.692" height="60.356"><defs><clipPath id="a"><path d="M0 50h10v10.035H0Zm0 0"/></clipPath><clipPath id="b"><path d="M23 50h15v10.035H23Zm0 0"/></clipPath><clipPath id="c"><path d="M52 50h15v10.035H52Zm0 0"/></clipPath></defs><path fill="none" stroke="#7F7F7F" stroke-miterlimit="10" stroke-width=".199" d="M2.398 57.473h85.04M2.397 29.125h85.04M2.397.789h85.04M2.397 57.473V.777m28.348 56.696V.777m28.348 56.696V.777M87.43 57.473V.777"/><g clip-path="url(#a)"><path fill="none" stroke="#000" stroke-miterlimit="10" stroke-width=".399" d="m.988 58.879 2.82-2.816m-2.82 0 2.82 2.816"/></g><g clip-path="url(#b)"><path fill="none" stroke="#000" stroke-miterlimit="10" stroke-width=".399" d="m29.336 58.879 2.82-2.816m-2.82 0 2.82 2.816"/></g><g clip-path="url(#c)"><path fill="none" stroke="#000" stroke-miterlimit="10" stroke-width=".399" d="m57.684 58.879 2.816-2.816m-2.816 0 2.816 2.816"/></g><path fill="none" stroke="#000" stroke-miterlimit="10" stroke-width=".399" d="m43.512 34.332 2.816-2.82m-2.816 0 2.816 2.82M71.855 34.332l2.82-2.82m-2.82 0 2.82 2.82M50.598 22.055l2.816-2.817m-2.816 0 2.816 2.817M78.945 22.055l2.817-2.817m-2.817 0 2.817 2.817"/></svg>