<svg xmlns="http://www.w3.org/2000/svg" xmlns:xlink="http://www.w3.org/1999/xlink" width="61.688" height="60.194"><defs><path id="a" d="M2.25-1.625c.125-.125.453-.39.594-.5.484-.453.953-.89.953-1.61 0-.953-.797-1.562-1.781-1.562-.97 0-1.594.719-1.594 1.438 0 .39.312.437.422.437.172 0 .422-.11.422-.422 0-.406-.407-.406-.5-.406.234-.594.765-.781 1.156-.781.734 0 1.125.625 1.125 1.297 0 .828-.578 1.437-1.531 2.39l-1 1.047C.422-.219.422-.203.422 0h3.14l.235-1.422h-.25c-.016.156-.078.547-.172.703-.047.063-.656.063-.781.063H1.172Zm0 0"/><path id="b" d="M3.89-2.547c0-.844-.078-1.36-.343-1.875-.344-.703-1-.875-1.438-.875-1 0-1.375.75-1.484.969C.344-3.75.328-2.953.328-2.547c0 .531.016 1.328.406 1.969.36.594.954.75 1.375.75.391 0 1.063-.125 1.47-.906.296-.578.312-1.297.312-1.813M2.11-.062c-.266 0-.813-.125-.985-.954-.094-.453-.094-1.203-.094-1.625 0-.546 0-1.109.094-1.546.172-.813.781-.891.984-.891.266 0 .829.14.985.86.094.437.094 1.046.094 1.577 0 .47 0 1.188-.094 1.641-.172.828-.719.938-.985.938m0 0"/><path id="c" d="M1.11-4.484c.109.03.421.125.765.125 1 0 1.594-.703 1.594-.828 0-.094-.047-.11-.094-.11-.016 0-.031 0-.094.031a3 3 0 0 1-1.11.22c-.468 0-.858-.11-1.108-.22-.079-.03-.094-.03-.11-.03-.094 0-.094.077-.094.234v2.328c0 .14 0 .234.125.234.063 0 .079-.031.125-.094.094-.11.391-.515 1.079-.515.437 0 .656.359.734.515.125.281.14.656.14.953s0 .735-.218 1.079c-.156.25-.485.484-.906.484A1.27 1.27 0 0 1 .734-.922c.016.016.079.016.079.016.218 0 .406-.14.406-.39a.39.39 0 0 0-.39-.407c-.157 0-.407.078-.407.422 0 .718.625 1.453 1.531 1.453 1 0 1.844-.781 1.844-1.766 0-.922-.672-1.75-1.61-1.75-.39 0-.765.125-1.078.406Zm0 0"/><path id="d" d="M2.016-2.656c.625 0 1.03.453 1.03 1.297 0 1-.562 1.28-.983 1.28-.438 0-1.047-.155-1.329-.577.297 0 .5-.188.5-.438 0-.265-.187-.437-.453-.437-.203 0-.437.125-.437.453 0 .75.812 1.25 1.734 1.25 1.047 0 1.797-.734 1.797-1.531 0-.672-.531-1.266-1.344-1.453.625-.22 1.11-.75 1.11-1.391 0-.64-.72-1.094-1.547-1.094-.86 0-1.5.453-1.5 1.063 0 .297.187.422.406.422.25 0 .406-.172.406-.407 0-.297-.265-.406-.437-.406.344-.437.953-.469 1.094-.469.203 0 .812.063.812.89 0 .548-.234.891-.344 1.016-.234.25-.422.266-.906.297-.156 0-.219.016-.219.125 0 .11.078.11.219.11Zm0 0"/><path id="e" d="M3.14-5.156c0-.157 0-.219-.171-.219-.094 0-.11 0-.188.11L.234-1.564v.25h2.25v.672c0 .297-.015.375-.64.375h-.172V0c.672-.031.687-.031 1.14-.031.454 0 .47 0 1.141.031v-.266h-.172c-.625 0-.64-.078-.64-.375v-.671h.843v-.25h-.843Zm-.593.64v2.954H.516Zm0 0"/><path id="f" d="M2.5-5.078c0-.219-.016-.219-.234-.219-.328.313-.75.5-1.5.5v.266c.218 0 .64 0 1.109-.203v4.078c0 .297-.031.39-.781.39H.812V0c.329-.031 1.016-.031 1.376-.031s1.046 0 1.374.031v-.266h-.28c-.75 0-.782-.093-.782-.39Zm0 0"/></defs><path fill="none" stroke="#7F7F7F" stroke-linecap="round" stroke-miterlimit="10" stroke-width=".399" d="M47.77 15.512h1.992M45.23 28.266l1.84.761M38.008 39.078l1.406 1.41M27.191 46.305l.766 1.84M14.441 48.84v1.992M9.457 15.512H7.465M9.457 34.41H7.465M14.441 8.54v1.991M33.336 8.54v1.991"/><path fill="none" stroke="#BFBFBF" stroke-linecap="square" stroke-miterlimit="10" stroke-width=".399" d="M42.785 15.512c0 15.656-12.691 28.347-28.344 28.347"/><path fill="none" stroke="#7F7F7F" stroke-linecap="square" stroke-miterlimit="10" stroke-width=".399" d="M47.77 15.512c0 18.406-14.922 33.328-33.329 33.328"/><path fill="none" stroke="#BFBFBF" stroke-linecap="square" stroke-miterlimit="10" stroke-width=".399" d="M14.441 15.512v28.347"/><path fill="none" stroke="#7F7F7F" stroke-linecap="square" stroke-miterlimit="10" stroke-width=".399" d="M9.457 15.512v28.347"/><path fill="none" stroke="#BFBFBF" stroke-linecap="square" stroke-miterlimit="10" stroke-width=".399" d="M14.441 15.512h28.344"/><path fill="none" stroke="#7F7F7F" stroke-linecap="square" stroke-miterlimit="10" stroke-width=".399" d="M14.441 10.531h28.344"/><path fill="none" stroke="#000" stroke-miterlimit="10" stroke-width=".399" d="m22.48 16.922 2.817-2.817m-2.817 0 2.817 2.817M26.395 30.285l2.816-2.82m-2.816 0 2.816 2.82M13.031 45.27l2.817-2.82m-2.817 0 2.817 2.82"/><use xlink:href="#a" x="52.416" y="18.082"/><use xlink:href="#b" x="56.651" y="18.082"/><use xlink:href="#a" x="49.726" y="36.821"/><use xlink:href="#c" x="53.961" y="36.821"/><use xlink:href="#d" x="42.071" y="48.281"/><use xlink:href="#b" x="46.306" y="48.281"/><use xlink:href="#d" x="30.611" y="55.936"/><use xlink:href="#c" x="34.846" y="55.936"/><use xlink:href="#e" x="10.205" y="58.626"/><use xlink:href="#b" x="14.44" y="58.626"/><use xlink:href="#b" x=".575" y="18.082"/><use xlink:href="#f" x=".575" y="36.979"/><use xlink:href="#b" x="12.322" y="5.884"/><use xlink:href="#f" x="31.22" y="5.884"/></svg>