<svg xmlns="http://www.w3.org/2000/svg" xmlns:xlink="http://www.w3.org/1999/xlink" width="309.04" height="74.061"><defs><path id="a" d="M4.672-1.14c0-.329-.344-.344-.422-.344-.187 0-.297.015-.39.265-.047.11-.25.532-.891.532-.781 0-1.438-.641-1.438-1.485 0-.453.25-1.5 1.5-1.5h.5c.016.406.235.547.5.547.282 0 .532-.187.532-.516 0-.75-1.063-.78-1.532-.78-1.719 0-2.328 1.359-2.328 2.25C.703-.97 1.641.062 2.906.062c1.438 0 1.766-1.032 1.766-1.204m0 0"/><path id="b" d="M4.688-.375c0-.36-.282-.375-.47-.375H3.032v-4.86c0-.359-.078-.484-.469-.484h-1.53c-.188 0-.485.016-.485.375 0 .36.297.375.469.375h1.187V-.75H1.031c-.187 0-.484.016-.484.375 0 .36.297.375.469.375h3.203c.172 0 .468-.016.468-.375m0 0"/><path id="c" d="M5.188-.375c0-.36-.282-.375-.47-.375-.28 0-.421-.031-.5-.062v-2.032c0-.719-.546-1.578-2-1.578-.437 0-1.484.031-1.484.781 0 .344.25.516.516.516.172 0 .5-.094.5-.531 0 0 .328-.016.484-.016.657 0 1.125.25 1.157.828-1.72.047-2.907.578-2.907 1.516 0 .703.625 1.39 1.672 1.39.36 0 .938-.078 1.406-.359.25.281.688.297 1.063.297.328 0 .563-.016.563-.375m-1.813-1c0 .188 0 .375-.328.531s-.75.156-.828.156c-.547 0-.922-.296-.922-.64 0-.438.781-.734 2.078-.781Zm0 0"/><path id="d" d="M4.61-1.297c0-1.062-1.313-1.281-1.641-1.328l-1-.187c-.266-.063-.532-.172-.532-.391 0-.235.313-.469 1.157-.469.719 0 .86.235.89.469.016.187.047.39.407.39.422 0 .422-.234.422-.468v-.672c0-.188-.016-.469-.36-.469-.219 0-.297.078-.344.172-.421-.172-.812-.172-1-.172-1.703 0-1.921.86-1.921 1.219 0 .937 1.046 1.125 1.984 1.265.437.079 1.187.188 1.187.641 0 .344-.343.61-1.171.61-.422 0-.938-.094-1.157-.813-.062-.219-.11-.328-.422-.328-.406 0-.421.234-.421.469v.937c0 .188.015.485.375.485.093 0 .265 0 .39-.329.469.313.953.329 1.235.329 1.593 0 1.921-.875 1.921-1.36m0 0"/><path id="e" d="M4.719-1.687a1.82 1.82 0 0 0-.485-1.22c-.406-.39-.671-.468-1.453-.64L2-3.734c-.375-.11-.719-.407-.719-.828 0-.47.438-.891 1.094-.891 1.047 0 1.219.875 1.266 1.156.03.266.172.328.406.328.406 0 .422-.234.422-.469v-1.28c0-.188-.016-.485-.375-.485-.235 0-.313.14-.39.406-.407-.297-.907-.406-1.329-.406C1.25-6.203.5-5.391.5-4.531c0 .687.453 1.36 1.297 1.593l1.125.282c.265.047 1.031.219 1.031 1.015 0 .47-.406 1-1.125 1-.25 0-.672-.03-1.031-.25-.438-.28-.469-.671-.484-.828 0-.187-.016-.406-.407-.406-.406 0-.406.234-.406.469v1.281c0 .203.016.484.375.484.219 0 .297-.125.39-.406.407.266.97.406 1.563.406 1.172 0 1.89-.89 1.89-1.796m0 0"/><path id="f" d="M5.11-.375c0-.36-.282-.375-.47-.375h-.343v-2.172c0-1.031-.531-1.469-1.344-1.469a2 2 0 0 0-1.203.407V-5.61c0-.36-.062-.485-.469-.485H.578c-.187 0-.469.016-.469.375 0 .36.297.375.454.375h.359V-.75H.578C.391-.75.11-.734.11-.375c0 .36.297.375.454.375h1.546c.172 0 .47-.016.47-.375 0-.36-.282-.375-.47-.375H1.75v-1.64c0-.907.688-1.266 1.14-1.266.47 0 .579.25.579.781V-.75h-.297c-.188 0-.485.016-.485.375 0 .36.313.375.485.375h1.484c.157 0 .453-.016.453-.375m0 0"/><path id="g" d="M4.89-2.172c0-1.25-.906-2.219-1.984-2.219-.422 0-.828.141-1.156.391-.016-.234-.11-.344-.469-.344H.578c-.187 0-.484.016-.484.375 0 .36.312.375.469.375h.359v5H.578c-.187 0-.484.016-.484.375 0 .36.312.375.469.375h1.546c.172 0 .47-.015.47-.375s-.282-.375-.47-.375H1.75v-1.75c.39.328.766.407 1.047.407C3.89.063 4.89-.891 4.89-2.172m-.827 0c0 .875-.641 1.485-1.282 1.485-.703 0-1.015-.813-1.015-1.25v-.704c0-.546.53-1.015 1.093-1.015.672 0 1.204.687 1.204 1.484m0 0"/><path id="h" d="M4.656-1.14c0-.329-.343-.344-.422-.344-.218 0-.312.03-.39.265-.203.453-.688.532-.938.532-.672 0-1.344-.422-1.515-1.172h2.797c.25 0 .468 0 .468-.438 0-1.14-.656-2.125-1.968-2.125-1.188 0-2.172 1-2.172 2.234C.516-.952 1.53.063 2.828.063c1.36 0 1.828-.937 1.828-1.203m-.86-1.454H1.392c.172-.625.687-1.078 1.297-1.078.468 0 1 .219 1.109 1.078m0 0"/><path id="i" d="M5.219-.984c0-.375-.282-.375-.407-.375-.14 0-.421 0-.421.484 0 .11-.032.234-.11.234-.187 0-.187-.421-.187-.89 0-.625 0-.703-.094-.938a1.44 1.44 0 0 0-.422-.547c.594-.39.781-.968.781-1.359 0-.875-.765-1.719-1.968-1.719H.67c-.187 0-.468.016-.468.375 0 .36.281.375.469.375h.172V-.75H.672c-.188 0-.469.016-.469.375 0 .36.281.375.469.375h1.156c.172 0 .469-.016.469-.375 0-.36-.281-.375-.469-.375h-.156v-1.922h.672c.172 0 .453 0 .734.25.188.172.188.39.188.766 0 .656 0 .953.187 1.281a.95.95 0 0 0 .844.484c.656 0 .922-.687.922-1.093M3.53-4.375c0 .438-.422.953-1.25.953h-.625v-1.922h.625c.844 0 1.25.532 1.25.969m0 0"/><path id="j" d="M4.5-1.312c0-.204 0-.438-.422-.438-.39 0-.406.234-.406.438 0 .53-.5.625-.719.625-.656 0-.656-.454-.656-.672v-2.235h1.515c.172 0 .47-.015.47-.375 0-.375-.282-.375-.47-.375H2.298v-.718c0-.22-.016-.47-.406-.47-.422 0-.422.235-.422.47v.718H.703c-.187 0-.469.016-.469.375 0 .36.282.375.454.375h.78v2.282c0 1 .688 1.375 1.454 1.375.75 0 1.578-.454 1.578-1.375m0 0"/><path id="k" d="M5.11-.375c0-.36-.282-.375-.47-.375h-.343v-2.172c0-1.031-.531-1.469-1.344-1.469-.562 0-.953.22-1.203.407 0-.25-.078-.36-.469-.36H.578c-.187 0-.469.016-.469.375 0 .36.297.375.454.375h.359V-.75H.578C.391-.75.11-.734.11-.375c0 .36.297.375.454.375h1.546c.172 0 .47-.016.47-.375 0-.36-.282-.375-.47-.375H1.75v-1.64c0-.907.688-1.266 1.14-1.266.47 0 .579.25.579.781V-.75h-.297c-.188 0-.485.016-.485.375 0 .36.313.375.485.375h1.484c.157 0 .453-.016.453-.375m0 0"/><path id="l" d="M5.094-3.844c0-.25-.203-.61-.782-.61-.109 0-.578.016-1.046.329-.172-.11-.5-.266-.938-.266-.953 0-1.687.75-1.687 1.625 0 .407.156.72.312.922-.11.157-.187.375-.187.657 0 .312.109.546.187.671C.266-.046.266.61.266.72c0 .86 1.047 1.5 2.343 1.5s2.344-.64 2.344-1.5c0-.375-.187-.89-.703-1.172-.14-.078-.547-.297-1.453-.297h-.688c-.171 0-.39.047-.53-.125-.095-.11-.11-.297-.11-.297 0-.031.015-.094.031-.156.14.078.469.203.828.203.938 0 1.688-.734 1.688-1.64 0-.282-.079-.547-.235-.813.156-.078.297-.094.406-.125a.48.48 0 0 0 .438.328c.203 0 .469-.14.469-.469M3.187-2.766c0 .5-.39.907-.859.907-.484 0-.86-.422-.86-.907 0-.5.391-.89.86-.89s.86.422.86.89M4.235.72c0 .406-.703.765-1.625.765-.921 0-1.625-.359-1.625-.765 0-.156.079-.438.375-.625.22-.14.313-.14 1-.14.813 0 1.875 0 1.875.765m0 0"/><path id="m" d="M4.844-1.719c0-.39-.282-.39-.422-.39-.11 0-.375 0-.406.359-.063.89-.797 1.11-1.172 1.11-.844 0-1.64-1-1.64-2.407 0-1.406.796-2.406 1.624-2.406.563 0 1.063.422 1.172 1.172.047.203.078.39.422.39.406 0 .422-.25.422-.484v-1.344c0-.187-.016-.484-.375-.484-.188 0-.266.125-.328.219-.032.015-.032.046-.11.218a2.07 2.07 0 0 0-1.234-.437C1.5-6.203.375-4.86.375-3.047.375-1.219 1.5.11 2.797.11c1.187 0 2.047-.906 2.047-1.828m0 0"/><path id="n" d="M4.563-.375c0-.36-.297-.375-.47-.375h-.937v-3.125c0-.36-.078-.469-.469-.469H1.314c-.188 0-.485.016-.485.36 0 .375.297.39.485.39h1.015V-.75h-1.11c-.187 0-.468.016-.468.375 0 .36.297.375.469.375h2.875c.172 0 .468-.016.468-.375m-1.375-5.11a.56.56 0 0 0-.563-.562.564.564 0 0 0-.578.563c0 .328.25.562.578.562a.55.55 0 0 0 .563-.562m0 0"/><path id="o" d="M4.875-3.719c0-.219-.125-.672-1-.672-.469 0-1.047.141-1.578.657v-.141c0-.36-.063-.469-.469-.469H.766c-.172 0-.47.016-.47.36 0 .375.282.39.47.39h.703V-.75H.766c-.172 0-.47.016-.47.375 0 .36.282.375.47.375h2.53c.188 0 .485-.016.485-.375 0-.36-.297-.375-.484-.375h-1v-1.14c0-.844.531-1.735 1.594-1.766 0 .25.234.422.5.422.25 0 .484-.172.484-.485m0 0"/><path id="p" d="M5.031-.484v-.844c0-.234-.015-.484-.422-.484s-.406.234-.406.484v.578H1.75v-2.031h1.125c0 .406.047.562.422.562.39 0 .406-.25.406-.484v-.906c0-.22-.015-.47-.406-.47-.375 0-.422.157-.422.548H1.75v-1.813h2.234v.438c0 .218 0 .484.407.484.422 0 .422-.25.422-.484v-.703c0-.36-.079-.485-.47-.485H.72c-.188 0-.485.016-.485.375 0 .36.297.375.485.375h.203V-.75H.719c-.188 0-.485.016-.485.375 0 .36.297.375.485.375h3.844c.375 0 .468-.094.468-.484m0 0"/></defs><path fill="none" stroke="#000" stroke-miterlimit="10" stroke-width=".399" d="M67.875 15.719h64.176V.73H67.875Zm0 0"/><use xlink:href="#a" x="71.194" y="10.248"/><use xlink:href="#b" x="76.424" y="10.248"/><use xlink:href="#c" x="81.655" y="10.248"/><use xlink:href="#d" x="86.885" y="10.248"/><use xlink:href="#d" x="92.116" y="10.248"/><use xlink:href="#e" x="102.576" y="10.248"/><use xlink:href="#f" x="107.807" y="10.248"/><use xlink:href="#c" x="113.037" y="10.248"/><use xlink:href="#g" x="118.267" y="10.248"/><use xlink:href="#h" x="123.498" y="10.248"/><path fill="none" stroke="#000" stroke-miterlimit="10" stroke-width=".399" d="M.719 72.395h85.097v-14.95H.72Zm0 0"/><use xlink:href="#a" x="4.041" y="66.852"/><use xlink:href="#b" x="9.271" y="66.852"/><use xlink:href="#c" x="14.502" y="66.852"/><use xlink:href="#d" x="19.732" y="66.852"/><use xlink:href="#d" x="24.963" y="66.852"/><use xlink:href="#i" x="35.423" y="66.852"/><use xlink:href="#h" x="40.654" y="66.852"/><use xlink:href="#a" x="45.884" y="66.852"/><use xlink:href="#j" x="51.114" y="66.852"/><use xlink:href="#c" x="56.345" y="66.852"/><use xlink:href="#k" x="61.575" y="66.852"/><use xlink:href="#l" x="66.806" y="66.852"/><use xlink:href="#b" x="72.036" y="66.852"/><use xlink:href="#h" x="77.266" y="66.852"/><path fill="none" stroke="#000" stroke-miterlimit="10" stroke-width=".399" d="M121.953 71.39h69.406V58.446h-69.406Zm0 0"/><use xlink:href="#a" x="125.272" y="67.963"/><use xlink:href="#b" x="130.502" y="67.963"/><use xlink:href="#c" x="135.733" y="67.963"/><use xlink:href="#d" x="140.963" y="67.963"/><use xlink:href="#d" x="146.194" y="67.963"/><use xlink:href="#m" x="156.654" y="67.963"/><use xlink:href="#n" x="161.885" y="67.963"/><use xlink:href="#o" x="167.115" y="67.963"/><use xlink:href="#a" x="172.345" y="67.963"/><use xlink:href="#b" x="177.576" y="67.963"/><use xlink:href="#h" x="182.806" y="67.963"/><path fill="none" stroke="#000" stroke-miterlimit="10" stroke-width=".399" d="M232.723 72.36h74.64V57.476h-74.64Zm0 0"/><use xlink:href="#a" x="236.043" y="66.886"/><use xlink:href="#b" x="241.273" y="66.886"/><use xlink:href="#c" x="246.504" y="66.886"/><use xlink:href="#d" x="251.734" y="66.886"/><use xlink:href="#d" x="256.965" y="66.886"/><use xlink:href="#p" x="267.425" y="66.886"/><use xlink:href="#b" x="272.656" y="66.886"/><use xlink:href="#b" x="277.886" y="66.886"/><use xlink:href="#n" x="283.116" y="66.886"/><use xlink:href="#g" x="288.347" y="66.886"/><use xlink:href="#d" x="293.577" y="66.886"/><use xlink:href="#h" x="298.808" y="66.886"/><path fill="none" stroke="#000" stroke-miterlimit="10" stroke-width=".399" d="M156.656 58.246V36.57H99.961"/><path fill="none" stroke="#000" stroke-miterlimit="10" stroke-width=".399" d="M270.043 57.277V36.57H99.961M43.27 57.246V36.57h56.69V23.184M99.96 16.316l-3.952 6.77h7.906Zm0 0"/></svg>