<svg xmlns="http://www.w3.org/2000/svg" xmlns:xlink="http://www.w3.org/1999/xlink" width="139.24" height="73.64"><defs><path id="b" d="M5.563-1.812c.14 0 .312 0 .312-.172 0-.188-.172-.188-.312-.188H1c-.125 0-.297 0-.297.188 0 .172.172.172.297.172Zm0 0"/><path id="c" d="M2.5-5.078c0-.219-.016-.219-.234-.219-.328.313-.75.5-1.5.5v.266c.218 0 .64 0 1.109-.203v4.078c0 .297-.031.39-.781.39H.812V0c.329-.031 1.016-.031 1.376-.031s1.046 0 1.374.031v-.266h-.28c-.75 0-.782-.093-.782-.39Zm0 0"/><path id="d" d="M3.89-2.547c0-.844-.078-1.36-.343-1.875-.344-.703-1-.875-1.438-.875-1 0-1.375.75-1.484.969C.344-3.75.328-2.953.328-2.547c0 .531.016 1.328.406 1.969.36.594.954.75 1.375.75.391 0 1.063-.125 1.47-.906.296-.578.312-1.297.312-1.813M2.11-.062c-.266 0-.813-.125-.985-.954-.094-.453-.094-1.203-.094-1.625 0-.546 0-1.109.094-1.546.172-.813.781-.891.984-.891.266 0 .829.14.985.86.094.437.094 1.046.094 1.577 0 .47 0 1.188-.094 1.641-.172.828-.719.938-.985.938m0 0"/><path id="e" d="M5.11-.219c0-.218-.157-.218-.235-.218-.578-.016-.578-.094-.578-.313v-1.922c0-.797-.64-1.39-2.031-1.39-.5 0-1.657.015-1.657.843 0 .406.313.594.579.594.312 0 .593-.219.593-.578 0-.266-.156-.422-.187-.453.093-.016.312-.047.64-.047.641 0 1.016.328 1.016 1.031v.281C1.766-2.39.25-2 .25-1 .25-.11 1.375.047 2.016.047c.687 0 1.156-.281 1.39-.703 0 .219 0 .656.969.656h.438c.171 0 .296 0 .296-.219M3.25-1.25c0 .938-1.047.938-1.078.938-.453 0-.828-.282-.828-.688 0-.297.156-1 1.906-1.078Zm0 0"/><path id="f" d="M3.828-1.25c0-.469-.265-.75-.422-.89-.406-.329-.687-.376-1.39-.5-.438-.063-1-.157-1-.563 0-.531.828-.531 1.03-.531 1 0 1.032.53 1.063.765 0 .125.125.125.22.125.218 0 .233-.047.233-.265v-.688c0-.172 0-.265-.187-.265-.078 0-.234.078-.39.156-.282-.125-.641-.156-.938-.156-.266 0-1.703 0-1.703 1.187 0 .938 1.187 1.14 1.5 1.188.734.125 1.328.218 1.328.734 0 .64-.844.64-1.047.64-.453 0-1.047-.109-1.297-.937-.047-.156-.062-.172-.25-.172-.234 0-.234.047-.234.266v.953c0 .156 0 .25.187.25.063 0 .078 0 .282-.125l.234-.14c.422.265.906.265 1.078.265.266 0 1.703 0 1.703-1.297m0 0"/><path id="g" d="M5.531-1.984c0-1.188-.812-2.047-2.172-2.047-.718 0-1.218.297-1.39.422v-.422L.375-3.97v.438c.172 0 .313 0 .438.031.171.031.171.125.171.313v4.484H.375v.437L1.5 1.72l1.14.015v-.437h-.609v-1.64c.531.39 1.016.39 1.188.39 1.406 0 2.312-.844 2.312-2.031M4.344-2c0 1.25-.64 1.688-1.235 1.688-.453 0-.843-.25-1.078-.625v-2.157a1.55 1.55 0 0 1 1.188-.562c.625 0 1.125.562 1.125 1.656m0 0"/><path id="h" d="M4.406-1.047c0-.14-.125-.14-.234-.14-.172 0-.172.015-.25.171-.172.438-.578.688-1.11.688-1.265 0-1.265-1.297-1.265-1.703 0-.531 0-1.64 1.172-1.64.078 0 .562 0 .562.046l-.031.047a.6.6 0 0 0-.125.375c0 .36.281.578.594.578a.57.57 0 0 0 .578-.594c0-.844-1.25-.844-1.61-.844C.97-4.062.345-2.968.345-1.983c0 1.125.812 2.03 2.297 2.03.343 0 .78-.046 1.156-.28.515-.313.61-.782.61-.813m0 0"/><path id="i" d="M4.563-1.047c0-.172-.172-.172-.235-.172-.156 0-.172.047-.234.172-.203.469-.75.719-1.313.719-1.281 0-1.297-1.156-1.297-1.594h2.782c.187 0 .297 0 .297-.25 0-.203-.016-1-.594-1.484-.406-.328-.953-.406-1.39-.406-1.532 0-2.282.968-2.282 2.046 0 1.172.89 2.063 2.406 2.063 1.485 0 1.86-.938 1.86-1.094M3.688-2.25H1.483c.016-.406.063-1.453 1.094-1.453 1.047 0 1.094 1.094 1.11 1.453m0 0"/><path id="j" d="M4.078-3.281c0-.453-.469-.75-1-.75-.625 0-1 .453-1.203.968h-.016v-.968L.375-3.97v.438c.531 0 .61 0 .61.36v2.734h-.61V0l1.14-.031c.22 0 .75 0 1.22.031v-.437h-.766v-1.516c0-.656.25-1.703 1.11-1.719a.57.57 0 0 0-.142.39c0 .391.313.579.563.579.297 0 .578-.203.578-.578m0 0"/><path id="k" d="M5.531-1.984c0-1.22-.875-2.047-2.187-2.047-.719 0-1.203.297-1.375.422v-2.61l-1.594.063v.437c.531 0 .61 0 .61.36V0h.453l.421-.516c.282.297.72.563 1.36.563 1.406 0 2.312-.844 2.312-2.031m-1.187-.032c0 .391 0 .844-.188 1.172-.297.5-.843.532-1.031.532-.547 0-.906-.329-1.094-.625V-3.11a1.55 1.55 0 0 1 1.203-.563c1.11 0 1.11 1.078 1.11 1.656m0 0"/><clipPath id="a"><path d="M0 28h74v45.46H0Zm0 0"/></clipPath></defs><path fill="none" stroke="#000" stroke-linecap="round" stroke-miterlimit="10" stroke-width=".399" d="M8.102 38.633v-3.985M64.793 38.633v-3.985M34.457 64.988h3.984M34.457 8.293h3.984"/><path fill="none" stroke="#000" stroke-miterlimit="10" stroke-width=".399" d="M.629 36.64h71.238"/><path fill="none" stroke="#000" stroke-linecap="round" stroke-linejoin="round" stroke-miterlimit="10" stroke-width=".399" d="M69.996 34.25c.379 1.434 1.223 2.11 2.07 2.39-.847.278-1.691.958-2.07 2.391"/><path fill="none" stroke="#000" stroke-miterlimit="10" stroke-width=".399" d="M36.45 72.457V1.219"/><path fill="none" stroke="#000" stroke-linecap="round" stroke-linejoin="round" stroke-miterlimit="10" stroke-width=".399" d="M34.059 3.094c1.433-.38 2.109-1.223 2.39-2.074.278.851.957 1.695 2.39 2.074"/><path fill="none" stroke="#000" stroke-dasharray="2.98885 1.19554" stroke-miterlimit="10" stroke-width=".598" d="m8.102 8.293 56.691 14.172"/><g clip-path="url(#a)"><path fill="none" stroke="#000" stroke-miterlimit="10" stroke-width=".598" d="m8.102 64.988 56.691-28.347"/></g><use xlink:href="#b" x="2.691" y="46.424"/><use xlink:href="#c" x="9.277" y="46.424"/><use xlink:href="#c" x="62.677" y="46.424"/><use xlink:href="#b" x="20.978" y="67.139"/><use xlink:href="#c" x="27.565" y="67.139"/><use xlink:href="#d" x="29.557" y="44.432"/><use xlink:href="#c" x="27.565" y="10.861"/><use xlink:href="#e" x="108.957" y="27.922"/><path fill="none" stroke="#000" stroke-miterlimit="10" stroke-width=".598" d="m84.055 25.71 4.98-1.327L99 27.039l4.98-1.328"/><use xlink:href="#f" x="108.957" y="38.881"/><use xlink:href="#g" x="113.144" y="38.881"/><use xlink:href="#e" x="119.035" y="38.881"/><use xlink:href="#h" x="124.191" y="38.881"/><use xlink:href="#i" x="128.907" y="38.881"/><use xlink:href="#j" x="133.776" y="38.881"/><path fill="none" stroke="#000" stroke-miterlimit="10" stroke-width=".399" d="M105.973 36.668a1.993 1.993 0 1 0-3.986.002 1.993 1.993 0 0 0 3.986-.002Zm0 0"/><use xlink:href="#k" x="108.957" y="49.84"/><path fill="none" stroke="#000" stroke-dasharray="2.98885 1.19554" stroke-miterlimit="10" stroke-width=".598" d="m84.055 47.629 4.98-1.328L99 48.953l4.98-1.324"/></svg>