<svg xmlns="http://www.w3.org/2000/svg" xmlns:xlink="http://www.w3.org/1999/xlink" width="74.631" height="36.092"><defs><clipPath id="a"><path d="M0 0h40v35.637H0Zm0 0"/></clipPath><clipPath id="c"><path d="M35 0h39.445v35.637H35Zm0 0"/></clipPath><path id="b" d="M8.25 0v-.469h-.969L4.72-6.703c-.11-.25-.219-.25-.39-.25-.282 0-.329.078-.391.25l-2.47 6c-.062.156-.093.234-.843.234H.406V0l1.172-.031c.39 0 .938 0 1.313.031v-.469S2-.469 2-.594l.047-.125.5-1.203h2.672l.593 1.453H4.86V0c.391-.031 1.329-.031 1.766-.031.39 0 1.266 0 1.625.031M5.016-2.39H2.734l1.141-2.766Zm0 0"/></defs><g clip-path="url(#a)"><path fill="none" stroke="#000" stroke-miterlimit="10" stroke-width=".399" d="M33.477 17.063 5.37.835a32.46 32.46 0 0 0 0 32.453Zm0 0"/></g><use xlink:href="#b" x="7.513" y="20.539"/><g clip-path="url(#c)"><path fill="none" stroke="#000" stroke-miterlimit="10" stroke-width=".399" d="M73.098 6.242H40.645a32.46 32.46 0 0 0 16.226 28.11Zm0 0"/></g><use xlink:href="#b" x="50.032" y="20.539"/></svg>