<svg xmlns="http://www.w3.org/2000/svg" width="96.572" height="51.194"><defs><clipPath id="a"><path d="M0 0h96.36v50.79H0Zm0 0"/></clipPath></defs><path fill="#FFFBB3" d="M22.063 35.617a7.085 7.085 0 0 0-7.086-7.086 7.085 7.085 0 0 0-7.086 7.086 7.085 7.085 0 0 0 7.086 7.086 7.085 7.085 0 0 0 7.086-7.086m-.426-2.422L92.93 7.27"/><g clip-path="url(#a)"><path fill="none" stroke="#B2B2B2" stroke-miterlimit="10" stroke-width="14.173" d="M22.062 35.617a7.085 7.085 0 0 0-7.085-7.086 7.085 7.085 0 0 0-7.086 7.086 7.085 7.085 0 0 0 7.086 7.086 7.085 7.085 0 0 0 7.085-7.086Zm-.425-2.422L92.93 7.27"/></g></svg>