<svg xmlns="http://www.w3.org/2000/svg" xmlns:xlink="http://www.w3.org/1999/xlink" width="87.058" height="16.364"><defs><clipPath id="a"><path d="M30 0h26v16.047H30Zm0 0"/></clipPath><path id="b" d="M8.25 0v-.469h-.969L4.72-6.703c-.11-.25-.219-.25-.39-.25-.282 0-.329.078-.391.25l-2.47 6c-.062.156-.093.234-.843.234H.406V0l1.172-.031c.39 0 .938 0 1.313.031v-.469S2-.469 2-.594l.047-.125.5-1.203h2.672l.593 1.453H4.86V0c.391-.031 1.329-.031 1.766-.031.39 0 1.266 0 1.625.031M5.016-2.39H2.734l1.141-2.766Zm0 0"/></defs><g clip-path="url(#a)"><path fill="none" stroke="#000" stroke-miterlimit="10" stroke-width=".399" d="M50.031 7.86A6.97 6.97 0 0 0 43.06.886a6.97 6.97 0 0 0-6.973 6.972 6.97 6.97 0 0 0 6.973 6.973 6.97 6.97 0 0 0 6.972-6.973Zm0 0"/></g><use xlink:href="#b" x="38.729" y="11.337"/><path fill="none" stroke="#000" stroke-miterlimit="10" stroke-width=".399" d="M.54 7.86h35.347m14.343 0h35.348"/></svg>