<svg xmlns="http://www.w3.org/2000/svg" xmlns:xlink="http://www.w3.org/1999/xlink" width="76.186" height="86.366"><defs><path id="a" d="M4.406-3.672c0-.531-.531-.812-1.062-.812-.688 0-1.094.5-1.313 1.125v-1.125l-1.656.078v.468c.61 0 .688 0 .688.391v3.078H.375V0l1.25-.031C2-.031 2.641-.031 3 0v-.469h-.86v-1.75c0-.687.235-1.906 1.235-1.906 0 0-.187.172-.187.453 0 .406.328.61.609.61.297 0 .61-.204.61-.61m0 0"/><path id="b" d="M5.406-2.172c0-1.344-.922-2.344-2.547-2.344C1.22-4.516.313-3.5.313-2.172c0 1.235.89 2.235 2.546 2.235 1.672 0 2.547-1.016 2.547-2.235m-1.281-.11c0 .86 0 1.938-1.266 1.938-1.265 0-1.265-1.078-1.265-1.937 0-.453 0-.953.172-1.297.187-.375.609-.578 1.093-.578.422 0 .844.156 1.063.5.203.344.203.89.203 1.375m0 0"/><path id="c" d="M3.813-1.234v-.532h-.47v.516c0 .672-.327.906-.609.906-.578 0-.578-.64-.578-.86v-2.75h1.469v-.468H2.156v-1.906h-.469c0 1-.484 1.984-1.484 2.016v.359h.828v2.734c0 1.063.86 1.282 1.578 1.282.75 0 1.204-.579 1.204-1.297m0 0"/><path id="d" d="M5.516-.234c0-.235-.125-.235-.266-.235-.61-.015-.61-.14-.61-.375v-2.14c0-.891-.702-1.532-2.187-1.532-.562 0-1.781.047-1.781.922 0 .438.344.625.61.625.312 0 .624-.219.624-.625 0-.297-.187-.469-.218-.5a5 5 0 0 1 .718-.062c.75 0 1.11.422 1.11 1.172v.343c-.72.032-3.25.125-3.25 1.563C.266-.125 1.5.062 2.188.062c.796 0 1.265-.406 1.484-.828 0 .313 0 .766 1.047.766h.468c.204 0 .329 0 .329-.234m-2-1.157c0 .97-.922 1.094-1.172 1.094-.516 0-.906-.344-.906-.797 0-1.062 1.578-1.203 2.078-1.234Zm0 0"/><path id="e" d="M5.984-2.219c0-1.328-.937-2.265-2.39-2.265-.719 0-1.219.28-1.453.484v-2.922l-1.766.078v.469c.61 0 .688 0 .688.39V0h.468c.157-.187.328-.375.485-.562.078.078.562.625 1.453.625 1.484 0 2.515-.907 2.515-2.282m-1.28 0c0 .469 0 1.016-.25 1.406-.298.407-.75.516-1.079.516-.687 0-1.078-.547-1.187-.687v-2.5c.28-.36.75-.641 1.296-.641 1.22 0 1.22 1.203 1.22 1.906m0 0"/><path id="f" d="M5.984 0v-.469c-.609 0-.687 0-.687-.39v-6.063l-1.766.078v.469c.625 0 .703 0 .703.39v1.954a2.18 2.18 0 0 0-1.359-.453c-1.453 0-2.5.875-2.5 2.28 0 1.313.922 2.267 2.39 2.267.61 0 1.094-.235 1.407-.485v.485ZM4.172-1.031c-.14.187-.547.734-1.297.734-1.219 0-1.219-1.203-1.219-1.906 0-.485 0-1.016.25-1.406.297-.422.766-.516 1.078-.516.563 0 .97.313 1.188.61Zm0 0"/><path id="g" d="M4.922-1.172c0-.172-.188-.172-.234-.172-.172 0-.188.047-.25.203-.204.485-.782.797-1.422.797-1.407 0-1.422-1.328-1.422-1.828h3.015c.22 0 .313 0 .313-.265 0-.313-.063-1.047-.563-1.547-.359-.36-.89-.532-1.578-.532C1.187-4.516.313-3.484.313-2.25c0 1.344 1 2.313 2.609 2.313 1.578 0 2-1.063 2-1.235M3.984-2.5h-2.39c.015-.39.031-.812.234-1.14.266-.391.672-.516.953-.516 1.172 0 1.188 1.312 1.203 1.656m0 0"/><path id="h" d="M4.766-1.172c0-.14-.141-.14-.235-.14-.187 0-.187.03-.25.156-.25.625-.734.812-1.234.812-1.39 0-1.39-1.453-1.39-1.922 0-.562 0-1.843 1.28-1.843.36 0 .516.015.657.046a.62.62 0 0 0-.203.47c0 .437.343.624.609.624.313 0 .64-.219.64-.625 0-.86-1.156-.922-1.734-.922C1.11-4.516.375-3.375.375-2.219.375-.89 1.313.063 2.844.063c1.625 0 1.922-1.157 1.922-1.235m0 0"/><clipPath id="i"><path d="M0 0h72v86.05H0Zm0 0"/></clipPath><clipPath id="j"><path d="M4 17h71.777v69.05H4Zm0 0"/></clipPath></defs><use xlink:href="#a" x="20.969" y="23.18"/><use xlink:href="#b" x="25.691" y="23.18"/><use xlink:href="#b" x="31.739" y="23.18"/><use xlink:href="#c" x="37.467" y="23.18"/><use xlink:href="#d" x=".314" y="44.951"/><path fill="none" stroke="#000" stroke-miterlimit="10" stroke-width=".399" d="M23.055 26.762 9.402 37.684"/><use xlink:href="#e" x="28.261" y="46.151"/><path fill="none" stroke="#000" stroke-miterlimit="10" stroke-width=".399" d="M31.445 26.762v8.957"/><use xlink:href="#f" x="14.088" y="68.828"/><path fill="none" stroke="#000" stroke-miterlimit="10" stroke-width=".399" d="m27.066 49.73-5.418 8.665"/><use xlink:href="#g" x="42.993" y="67.628"/><path fill="none" stroke="#000" stroke-miterlimit="10" stroke-width=".399" d="m35.824 49.73 6.164 9.864"/><use xlink:href="#h" x="57.246" y="44.951"/><path fill="none" stroke="#000" stroke-miterlimit="10" stroke-width=".399" d="m39.832 26.762 13.895 11.11"/><g clip-path="url(#i)"><path fill="none" stroke="red" stroke-miterlimit="10" stroke-width=".797" d="M60.293 42.871c0-23.07-13.04-41.773-29.129-41.773C15.078 1.098 2.035 19.8 2.035 42.87s13.043 41.774 29.13 41.774c16.089 0 29.128-18.704 29.128-41.774Zm0 0"/></g><g clip-path="url(#j)"><path fill="none" stroke="#00F" stroke-miterlimit="10" stroke-width=".797" d="M74.371 53.465c0-13.863-13.016-25.098-29.074-25.098-16.055 0-29.07 11.235-29.07 25.098 0 13.86 13.015 25.094 29.07 25.094 16.058 0 29.074-11.235 29.074-25.094Zm0 0"/></g></svg>