<svg xmlns="http://www.w3.org/2000/svg" width="75.982" height="35.804"><defs><clipPath id="a"><path d="M0 0h75.973v35.707H0Zm0 0"/></clipPath></defs><path fill="#CCF" d="m1.371 31.64 1.117-3.34 6.68 2.227 2.23-6.683 6.68 2.23 2.23-6.683 6.68 2.226 2.23-6.683 6.684 2.23 2.227-6.684 6.684 2.227 2.226-6.684 6.684 2.23 2.226-6.683 5.77 4.52 5.867-2.524.617 7.582 6.117 1.864-4.437 6.187 3.465 5.375-7.383 1.856-.832 6.336L58.3 29.41l-4.453 4.723-4.98-4.98-4.981 4.98-4.985-4.98-4.98 4.98-4.98-4.98-4.981 4.98-4.984-4.98-4.98 4.98-4.981-4.98-4.98 4.98-2.493-2.492z"/><g clip-path="url(#a)"><path fill="none" stroke="#00F" stroke-miterlimit="10" stroke-width=".797" d="m1.371 31.64 1.117-3.34 6.68 2.227 2.23-6.683 6.68 2.23 2.23-6.683 6.68 2.226 2.23-6.683 6.684 2.23 2.227-6.684 6.684 2.227 2.226-6.684 6.684 2.23 2.226-6.683 5.77 4.52 5.867-2.524.617 7.582 6.117 1.864-4.437 6.187 3.465 5.375-7.383 1.856-.832 6.336L58.3 29.41l-4.453 4.723-4.98-4.98-4.981 4.98-4.985-4.98-4.98 4.98-4.98-4.98-4.981 4.98-4.984-4.98-4.98 4.98-4.981-4.98-4.98 4.98-2.493-2.492h-.172"/></g></svg>