<svg xmlns="http://www.w3.org/2000/svg" xmlns:xlink="http://www.w3.org/1999/xlink" width="48.198" height="24.212"><defs><clipPath id="a"><path d="M0 0h24v23.816H0Zm0 0"/></clipPath><clipPath id="c"><path d="M23 0h24.797v23.816H23Zm0 0"/></clipPath><path id="b" d="M1.14 1.781C.485 1.391.345 1 .314.563.297.438.297.343.109.343.047.344 0 .407 0 .485c0 .266.031.579.031.844 0 .344-.031.688-.031 1 0 .063 0 .188.188.188.109 0 .125-.079.125-.157.015-.218.093-.468.343-.468.125 0 .235.062.375.14l1.266.766v2.5c-.203.016-1.563.156-1.656.156-.297 0-.328-.516-.328-.719 0-.14 0-.234-.204-.234C0 4.5 0 4.61 0 4.64c0 .407.031.829.031 1.235 0 .25-.031.89-.031 1.14 0 .048 0 .173.203.173.11 0 .11-.094.11-.235 0-.61.062-.61.359-.64l6.219-.61c.203-.016.25-.016.25-.187 0-.157-.079-.203-.172-.266Zm1.47 1.203 3.296 1.954-3.297.328Zm0 0"/><path id="d" d="M1.781-1.14C1.391-.485 1-.345.563-.314c-.125.016-.22.016-.22.204 0 .062.063.109.141.109.266 0 .579-.031.844-.031.344 0 .688.031 1 .031.063 0 .188 0 .188-.187 0-.11-.079-.125-.157-.125-.218-.016-.468-.094-.468-.344 0-.125.062-.235.14-.375l.766-1.266h2.5c.016.203.156 1.563.156 1.656 0 .297-.516.329-.719.329-.14 0-.234 0-.234.203C4.5 0 4.61 0 4.64 0c.407 0 .829-.031 1.235-.031.25 0 .89.031 1.14.031.048 0 .173 0 .173-.203 0-.11-.094-.11-.235-.11-.61 0-.61-.062-.64-.359l-.61-6.219c-.016-.203-.016-.25-.187-.25-.157 0-.203.079-.266.172Zm1.203-1.47 1.954-3.296.328 3.297Zm0 0"/></defs><g clip-path="url(#a)"><path fill="none" stroke="#000" stroke-miterlimit="10" stroke-width=".399" d="M18.242 13.898a8.717 8.717 0 1 1-17.433 0V.824h17.433Zm0 0"/></g><use xlink:href="#b" x="6.121" y="7.257"/><g clip-path="url(#c)"><path fill="none" stroke="#000" stroke-miterlimit="10" stroke-width=".399" d="M46.59 13.898a8.717 8.717 0 1 1-17.434 0V.824H46.59Zm0 0"/></g><use xlink:href="#d" x="34.135" y="14.397"/></svg>