<svg xmlns="http://www.w3.org/2000/svg" width="289.878" height="63.092"><defs><clipPath id="a"><path d="M114 48h17v14.637h-17Zm0 0"/></clipPath><clipPath id="b"><path d="M129 51h17v11.637h-17Zm0 0"/></clipPath><clipPath id="c"><path d="M144 47h16v15.637h-16Zm0 0"/></clipPath><clipPath id="d"><path d="M278 38h11.816v17H278Zm0 0"/></clipPath></defs><path fill="none" stroke="#000" stroke-miterlimit="10" stroke-width=".399" d="M3.148 31.102h7.461V16.859h14.918V6.473h14.918v-3.72h14.922v3.954h14.918v10.555h14.918v14.3h14.922v14.176h14.918v10.215h14.918v3.484h14.922v-4.183H159.8V44.535h14.922v-14.36h14.918V16.07h14.918V6.031h14.921V2.777h14.918v4.414h14.918v10.883h14.922v14.41h14.918V46.52h7.461"/><path stroke="#000" stroke-miterlimit="10" stroke-width=".399" d="M5.14 31.102a1.99 1.99 0 0 0-1.992-1.993 1.993 1.993 0 1 0 1.992 1.992ZM20.059 16.86a1.993 1.993 0 1 0-3.983.002 1.993 1.993 0 0 0 3.983-.003ZM34.98 6.473a1.996 1.996 0 0 0-1.992-1.993 1.996 1.996 0 0 0-1.996 1.993c0 1.101.895 1.996 1.996 1.996a1.996 1.996 0 0 0 1.992-1.996ZM49.898 2.754A1.99 1.99 0 0 0 47.906.762a1.99 1.99 0 0 0-1.992 1.992 1.99 1.99 0 0 0 1.992 1.992 1.99 1.99 0 0 0 1.992-1.992ZM64.816 6.707a1.993 1.993 0 1 0-3.983.002 1.993 1.993 0 0 0 3.983-.002ZM79.738 17.262a1.993 1.993 0 1 0-3.986.001 1.993 1.993 0 0 0 3.986-.001ZM94.656 31.563a1.99 1.99 0 0 0-1.992-1.993 1.99 1.99 0 0 0-1.992 1.992 1.99 1.99 0 0 0 1.992 1.993 1.99 1.99 0 0 0 1.992-1.992ZM109.574 45.738a1.993 1.993 0 1 0-3.983.002 1.993 1.993 0 0 0 3.983-.002Zm0 0"/><path d="M124.496 55.953a1.996 1.996 0 0 0-1.992-1.996 1.994 1.994 0 0 0 0 3.988 1.996 1.996 0 0 0 1.992-1.992m0 0"/><g clip-path="url(#a)"><path fill="none" stroke="#000" stroke-miterlimit="10" stroke-width=".399" d="M124.496 55.953a1.996 1.996 0 0 0-1.992-1.996 1.994 1.994 0 0 0 0 3.988 1.996 1.996 0 0 0 1.992-1.992Zm0 0"/></g><path d="M139.414 59.438a1.99 1.99 0 0 0-1.992-1.993 1.99 1.99 0 0 0-1.992 1.992 1.99 1.99 0 0 0 1.992 1.993 1.99 1.99 0 0 0 1.992-1.992m0 0"/><g clip-path="url(#b)"><path fill="none" stroke="#000" stroke-miterlimit="10" stroke-width=".399" d="M139.414 59.438a1.99 1.99 0 0 0-1.992-1.993 1.99 1.99 0 0 0-1.992 1.992 1.99 1.99 0 0 0 1.992 1.993 1.99 1.99 0 0 0 1.992-1.992Zm0 0"/></g><path d="M154.336 55.254a1.996 1.996 0 0 0-1.996-1.992 1.993 1.993 0 0 0 0 3.984c1.101 0 1.996-.89 1.996-1.992m0 0"/><g clip-path="url(#c)"><path fill="none" stroke="#000" stroke-miterlimit="10" stroke-width=".399" d="M154.336 55.254a1.996 1.996 0 0 0-1.996-1.992 1.993 1.993 0 0 0 0 3.984c1.101 0 1.996-.89 1.996-1.992Zm0 0"/></g><path stroke="#000" stroke-miterlimit="10" stroke-width=".399" d="M169.254 44.535a1.99 1.99 0 0 0-1.992-1.992 1.993 1.993 0 1 0 1.992 1.992ZM184.172 30.176a1.993 1.993 0 1 0-3.983.002 1.993 1.993 0 0 0 3.983-.002ZM199.094 16.07a1.996 1.996 0 0 0-1.992-1.996 1.994 1.994 0 0 0 0 3.989 1.996 1.996 0 0 0 1.992-1.993ZM214.012 6.031a1.99 1.99 0 0 0-1.992-1.992 1.993 1.993 0 1 0 1.992 1.992ZM228.93 2.777a1.993 1.993 0 1 0-3.983.002 1.993 1.993 0 0 0 3.983-.002ZM243.852 7.191a1.993 1.993 0 1 0-3.986.002 1.993 1.993 0 0 0 3.986-.002ZM258.77 18.074a1.993 1.993 0 1 0-3.986.002 1.993 1.993 0 0 0 3.986-.002ZM273.688 32.484a1.993 1.993 0 1 0-3.987.002 1.993 1.993 0 0 0 3.986-.002Zm0 0"/><path d="M288.61 46.52a1.993 1.993 0 0 0-3.984 0c-.001 1.101.89 1.996 1.991 1.996a1.996 1.996 0 0 0 1.992-1.996m0 0"/><g clip-path="url(#d)"><path fill="none" stroke="#000" stroke-miterlimit="10" stroke-width=".399" d="M288.61 46.52a1.993 1.993 0 0 0-3.984 0c-.001 1.101.89 1.996 1.991 1.996a1.996 1.996 0 0 0 1.992-1.996Zm0 0"/></g></svg>