<svg xmlns="http://www.w3.org/2000/svg" width="89.931" height="60.734"><defs><clipPath id="a"><path d="M0 0h89.898v60.602H0Zm0 0"/></clipPath></defs><path fill="none" stroke="#7F7F7F" stroke-miterlimit="10" stroke-width=".199" d="M3.672 59.281H88.71M3.67 30.938h85.04M3.67 2.598h85.04M3.67 59.28V2.59M32.02 59.28V2.59M60.363 59.28V2.59m28.34 56.691V2.59"/><path fill="#D2C92A" d="m3.672 59.281 4.555-1.87 8.187-2.954 3.102.98 5.597-1.488 6.75-3.46 3.215-.915 5.102-2.261 8.218-3.891L53.2 41.05l6.512-.461 4.031-.008 4.16-2.95 3.953-1.519 7.48-2.703 5.985-.625 3.368-1.84-.165-6.933-3.91-2.317-.996-7.316-5.617.266-4.062-7.41-3.622-2.032L64.63 2.95l-6.992-1.66-7.59-.207-3.848 1.297-5.105-.742-8.602.914-4.894 1.55-3.43.696-4.426 1.25-6.07 4.914-4.492 7.5-1.942 3.55-2.761 4.794-1.485 4.011-1.808 6.84.671 4.403.372 5.023 2.035 4.727Zm0 0"/><g clip-path="url(#a)"><path fill="none" stroke="#000" stroke-miterlimit="10" stroke-width=".399" d="m3.672 59.281 4.555-1.87 8.187-2.954 3.102.98 5.597-1.488 6.75-3.46 3.215-.915 5.102-2.261 8.218-3.891L53.2 41.05l6.512-.461 4.031-.008 4.16-2.95 3.953-1.519 7.48-2.703 5.985-.625 3.368-1.84-.165-6.933-3.91-2.317-.996-7.316-5.617.266-4.062-7.41-3.622-2.032L64.63 2.95l-6.992-1.66-7.59-.207-3.848 1.297-5.105-.742-8.602.914-4.894 1.55-3.43.696-4.426 1.25-6.07 4.914-4.492 7.5-1.942 3.55-2.761 4.794-1.485 4.011-1.808 6.84.671 4.403.372 5.023 2.035 4.727Zm0 0"/></g></svg>