<svg xmlns="http://www.w3.org/2000/svg" xmlns:xlink="http://www.w3.org/1999/xlink" width="162.164" height="102.26"><defs><path id="b" d="M3.89-2.547c0-.844-.078-1.36-.343-1.875-.344-.703-1-.875-1.438-.875-1 0-1.375.75-1.484.969C.344-3.75.328-2.953.328-2.547c0 .531.016 1.328.406 1.969.36.594.954.75 1.375.75.391 0 1.063-.125 1.47-.906.296-.578.312-1.297.312-1.813M2.11-.062c-.266 0-.813-.125-.985-.954-.094-.453-.094-1.203-.094-1.625 0-.546 0-1.109.094-1.546.172-.813.781-.891.984-.891.266 0 .829.14.985.86.094.437.094 1.046.094 1.577 0 .47 0 1.188-.094 1.641-.172.828-.719.938-.985.938m0 0"/><path id="c" d="M2.25-1.625c.125-.125.453-.39.594-.5.484-.453.953-.89.953-1.61 0-.953-.797-1.562-1.781-1.562-.97 0-1.594.719-1.594 1.438 0 .39.312.437.422.437.172 0 .422-.11.422-.422 0-.406-.407-.406-.5-.406.234-.594.765-.781 1.156-.781.734 0 1.125.625 1.125 1.297 0 .828-.578 1.437-1.531 2.39l-1 1.047C.422-.219.422-.203.422 0h3.14l.235-1.422h-.25c-.016.156-.078.547-.172.703-.047.063-.656.063-.781.063H1.172Zm0 0"/><path id="d" d="M3.14-5.156c0-.157 0-.219-.171-.219-.094 0-.11 0-.188.11L.234-1.564v.25h2.25v.672c0 .297-.015.375-.64.375h-.172V0c.672-.031.687-.031 1.14-.031.454 0 .47 0 1.141.031v-.266h-.172c-.625 0-.64-.078-.64-.375v-.671h.843v-.25h-.843Zm-.593.64v2.954H.516Zm0 0"/><path id="e" d="M1.094-2.64c0-.657.062-1.235.343-1.72.25-.406.657-.734 1.157-.734.156 0 .515.032.703.297-.36.031-.39.297-.39.375 0 .25.187.375.374.375.14 0 .375-.078.375-.39 0-.47-.36-.86-1.078-.86C1.468-5.297.344-4.25.344-2.53.344-.36 1.359.172 2.125.172c.39 0 .797-.11 1.156-.453.328-.313.594-.64.594-1.344 0-1.031-.797-1.766-1.672-1.766-.578 0-.922.36-1.11.75M2.125-.079a.88.88 0 0 1-.797-.516c-.187-.36-.203-.89-.203-1.203 0-.781.422-1.375 1.047-1.375.39 0 .64.203.781.485.172.296.172.656.172 1.062s0 .75-.156 1.047c-.219.36-.485.5-.844.5m0 0"/><path id="f" d="M2.64-2.875c.454-.219 1-.61 1-1.234 0-.766-.78-1.188-1.515-1.188-.844 0-1.531.578-1.531 1.328 0 .297.094.563.297.797.14.172.172.188.656.5C.563-2.234.344-1.656.344-1.219c0 .89.89 1.39 1.765 1.39.97 0 1.766-.671 1.766-1.515 0-.5-.266-.828-.406-.968-.125-.126-.14-.141-.828-.563m-1.234-.75c-.234-.14-.422-.375-.422-.64 0-.5.547-.829 1.125-.829.61 0 1.125.422 1.125.985 0 .453-.359.843-.828 1.078Zm.39 1.094c.032.015.938.578 1.079.656.125.078.547.328.547.813 0 .609-.656.984-1.297.984-.719 0-1.312-.484-1.312-1.14 0-.594.437-1.063.984-1.313m0 0"/><path id="g" d="M2.5-5.078c0-.219-.016-.219-.234-.219-.328.313-.75.5-1.5.5v.266c.218 0 .64 0 1.109-.203v4.078c0 .297-.031.39-.781.39H.812V0c.329-.031 1.016-.031 1.376-.031s1.046 0 1.374.031v-.266h-.28c-.75 0-.782-.093-.782-.39Zm0 0"/><clipPath id="a"><path d="M4 0h157.746v100H4Zm0 0"/></clipPath></defs><path fill="none" stroke="#7F7F7F" stroke-linecap="round" stroke-miterlimit="10" stroke-width=".399" d="M13.004 92.93v-1.993M41.348 92.93v-1.993M69.695 92.93v-1.993M98.043 92.93v-1.993M126.387 92.93v-1.993M154.734 92.93v-1.993M13.004 3.348V1.355M41.348 3.348V1.355M69.695 3.348V1.355M98.043 3.348V1.355M126.387 3.348V1.355M154.734 3.348V1.355M11.012 90.938h1.992M11.012 73.418h1.992M11.012 55.902h1.992M11.012 38.383h1.992M11.012 20.867h1.992M11.012 3.348h1.992M154.738 90.938h1.992M154.738 73.418h1.992M154.738 55.902h1.992M154.738 38.383h1.992M154.738 20.867h1.992M154.738 3.348h1.992"/><path fill="none" stroke="#7F7F7F" stroke-miterlimit="10" stroke-width=".399" d="M13.004 90.938h141.734M13.004 3.348h141.734M13.004 90.938V3.347M154.738 90.938V3.347"/><g clip-path="url(#a)"><path fill="none" stroke="#000" stroke-miterlimit="10" stroke-width=".598" d="M13.004 90.938s4.266-14.372 5.906-17.88c1.637-3.507 4.266-5.59 5.903-7.406 1.64-1.816 4.269-4.23 5.906-5.683 1.64-1.453 4.265-3.54 5.906-4.79 1.637-1.25 4.266-3.105 5.906-4.222 1.637-1.113 4.266-2.797 5.903-3.812 1.64-1.02 4.27-2.57 5.906-3.512 1.64-.938 4.27-2.387 5.906-3.266 1.64-.879 4.266-2.238 5.906-3.066a358 358 0 0 1 5.907-2.903 400 400 0 0 1 5.902-2.757c1.64-.75 4.27-1.922 5.906-2.637 1.64-.719 4.266-1.844 5.906-2.531 1.641-.688 4.266-1.77 5.907-2.434a580 580 0 0 1 5.906-2.348c1.637-.64 4.266-1.648 5.902-2.27 1.64-.62 4.27-1.6 5.907-2.202 1.64-.602 4.265-1.551 5.906-2.137a815 815 0 0 1 11.808-4.102c1.641-.554 4.27-1.433 5.907-1.976 1.64-.54 4.27-1.399 5.906-1.926 1.64-.531 4.266-1.367 5.906-1.887 1.637-.515 5.906-1.843 5.906-1.843"/></g><use xlink:href="#b" x="10.886" y="100.723"/><use xlink:href="#c" x="37.115" y="100.723"/><use xlink:href="#b" x="41.35" y="100.723"/><use xlink:href="#d" x="65.46" y="100.723"/><use xlink:href="#b" x="69.695" y="100.723"/><use xlink:href="#e" x="93.806" y="100.723"/><use xlink:href="#b" x="98.041" y="100.723"/><use xlink:href="#f" x="122.152" y="100.723"/><use xlink:href="#b" x="126.387" y="100.723"/><use xlink:href="#g" x="148.38" y="100.723"/><use xlink:href="#b" x="152.615" y="100.723"/><use xlink:href="#b" x="156.849" y="100.723"/><use xlink:href="#b" x="4.12" y="93.506"/><use xlink:href="#c" x="4.12" y="75.988"/><use xlink:href="#d" x="4.12" y="58.47"/><use xlink:href="#e" x="4.12" y="40.952"/><use xlink:href="#f" x="4.12" y="23.434"/><use xlink:href="#g" x="-.114" y="5.917"/><use xlink:href="#b" x="4.121" y="5.917"/></svg>