<svg xmlns="http://www.w3.org/2000/svg" xmlns:xlink="http://www.w3.org/1999/xlink" width="170.357" height="104.801"><defs><path id="b" d="M3.89-2.547c0-.844-.078-1.36-.343-1.875-.344-.703-1-.875-1.438-.875-1 0-1.375.75-1.484.969C.344-3.75.328-2.953.328-2.547c0 .531.016 1.328.406 1.969.36.594.954.75 1.375.75.391 0 1.063-.125 1.47-.906.296-.578.312-1.297.312-1.813M2.11-.062c-.266 0-.813-.125-.985-.954-.094-.453-.094-1.203-.094-1.625 0-.546 0-1.109.094-1.546.172-.813.781-.891.984-.891.266 0 .829.14.985.86.094.437.094 1.046.094 1.577 0 .47 0 1.188-.094 1.641-.172.828-.719.938-.985.938m0 0"/><path id="d" d="M1.11-4.484c.109.03.421.125.765.125 1 0 1.594-.703 1.594-.828 0-.094-.047-.11-.094-.11-.016 0-.031 0-.094.031a3 3 0 0 1-1.11.22c-.468 0-.858-.11-1.108-.22-.079-.03-.094-.03-.11-.03-.094 0-.094.077-.094.234v2.328c0 .14 0 .234.125.234.063 0 .079-.031.125-.094.094-.11.391-.515 1.079-.515.437 0 .656.359.734.515.125.281.14.656.14.953s0 .735-.218 1.079c-.156.25-.485.484-.906.484A1.27 1.27 0 0 1 .734-.922c.016.016.079.016.079.016.218 0 .406-.14.406-.39a.39.39 0 0 0-.39-.407c-.157 0-.407.078-.407.422 0 .718.625 1.453 1.531 1.453 1 0 1.844-.781 1.844-1.766 0-.922-.672-1.75-1.61-1.75-.39 0-.765.125-1.078.406Zm0 0"/><path id="e" d="M2.5-5.078c0-.219-.016-.219-.234-.219-.328.313-.75.5-1.5.5v.266c.218 0 .64 0 1.109-.203v4.078c0 .297-.031.39-.781.39H.812V0c.329-.031 1.016-.031 1.376-.031s1.046 0 1.374.031v-.266h-.28c-.75 0-.782-.093-.782-.39Zm0 0"/><path id="f" d="M2.25-1.625c.125-.125.453-.39.594-.5.484-.453.953-.89.953-1.61 0-.953-.797-1.562-1.781-1.562-.97 0-1.594.719-1.594 1.438 0 .39.312.437.422.437.172 0 .422-.11.422-.422 0-.406-.407-.406-.5-.406.234-.594.765-.781 1.156-.781.734 0 1.125.625 1.125 1.297 0 .828-.578 1.437-1.531 2.39l-1 1.047C.422-.219.422-.203.422 0h3.14l.235-1.422h-.25c-.016.156-.078.547-.172.703-.047.063-.656.063-.781.063H1.172Zm0 0"/><path id="g" d="M2.016-2.656c.625 0 1.03.453 1.03 1.297 0 1-.562 1.28-.983 1.28-.438 0-1.047-.155-1.329-.577.297 0 .5-.188.5-.438 0-.265-.187-.437-.453-.437-.203 0-.437.125-.437.453 0 .75.812 1.25 1.734 1.25 1.047 0 1.797-.734 1.797-1.531 0-.672-.531-1.266-1.344-1.453.625-.22 1.11-.75 1.11-1.391 0-.64-.72-1.094-1.547-1.094-.86 0-1.5.453-1.5 1.063 0 .297.187.422.406.422.25 0 .406-.172.406-.407 0-.297-.265-.406-.437-.406.344-.437.953-.469 1.094-.469.203 0 .812.063.812.89 0 .548-.234.891-.344 1.016-.234.25-.422.266-.906.297-.156 0-.219.016-.219.125 0 .11.078.11.219.11Zm0 0"/><path id="i" d="M4.031-4.86c.078-.077.078-.093.078-.265H2.08a9 9 0 0 1-.642-.031c-.421-.032-.421-.11-.453-.235h-.25L.47-3.703h.25c.015-.125.11-.672.219-.735.078-.046.687-.046.796-.046h1.688l-.813 1.109C1.703-2.172 1.5-.906 1.5-.281c0 .078 0 .453.375.453s.375-.36.375-.453v-.39c0-1.141.203-2.079.594-2.61Zm0 0"/><path id="c" d="M1.625-.437a.463.463 0 0 0-.453-.454.447.447 0 0 0-.438.438.44.44 0 0 0 .438.453.45.45 0 0 0 .453-.437m0 0"/><path id="h" d="M5.563-1.812c.14 0 .312 0 .312-.172 0-.188-.172-.188-.312-.188H1c-.125 0-.297 0-.297.188 0 .172.172.172.297.172Zm0 0"/><clipPath id="a"><path d="M18 0h152.035v98H18Zm0 0"/></clipPath></defs><path fill="none" stroke="#BFBFBF" stroke-miterlimit="10" stroke-width=".399" d="M97.887 88.773V1.183"/><path fill="none" stroke="#7F7F7F" stroke-linecap="round" stroke-miterlimit="10" stroke-width=".399" d="M27.02 95.75v-1.992M49.578 95.75v-1.992M72.137 95.75v-1.992M94.695 95.75v-1.992M117.254 95.75v-1.992M139.809 95.75v-1.992M162.367 95.75v-1.992M20.047 77.922h1.992M20.047 66.934h1.992M20.047 55.945h1.992M20.047 44.957h1.992M20.047 33.969h1.992M20.047 22.98h1.992M20.047 11.988h1.992"/><path fill="none" stroke="#7F7F7F" stroke-miterlimit="10" stroke-width=".399" d="M27.02 93.758h141.734"/><path fill="none" stroke="#BFBFBF" stroke-linecap="square" stroke-miterlimit="10" stroke-width=".399" d="M27.02 88.773h141.734M27.02 1.184h141.734"/><path fill="none" stroke="#7F7F7F" stroke-miterlimit="10" stroke-width=".399" d="M22.04 88.773V1.183"/><path fill="none" stroke="#BFBFBF" stroke-linecap="square" stroke-miterlimit="10" stroke-width=".399" d="M27.02 88.773V1.183M168.754 88.773V1.183"/><g clip-path="url(#a)"><path fill="none" stroke="#000" stroke-miterlimit="10" stroke-width=".598" d="m27.02 44.957 2.765-.27c.766-.074 1.996-.195 2.766-.273.765-.074 1.996-.195 2.761-.273l2.766-.282c.766-.082 1.996-.21 2.766-.293.765-.082 1.996-.214 2.765-.3.766-.086 1.996-.227 2.762-.32.77-.09 2-.239 2.766-.337a357 357 0 0 0 2.765-.355c.766-.106 1.996-.274 2.766-.387.766-.113 1.996-.3 2.762-.422.77-.125 2-.328 2.765-.465.77-.136 2-.367 2.766-.52a121 121 0 0 0 2.766-.589c.765-.176 1.996-.473 2.761-.676.77-.207 2-.554 2.766-.8.77-.243 2-.66 2.766-.958.765-.296 1.996-.808 2.765-1.183.766-.371 1.996-1.02 2.762-1.508.77-.488 2-1.34 2.766-2.012.769-.675 2-1.843 2.765-2.84.766-1 1.996-2.699 2.766-4.355.765-1.656 1.996-4.207 2.761-7.586.77-3.379 2.766-16.77 2.766-16.77m9.027 87.59s2-13.414 2.766-16.796c.766-3.387 1.996-5.938 2.766-7.594.765-1.66 1.996-3.36 2.765-4.356.766-1 1.996-2.168 2.762-2.843.77-.672 2-1.524 2.766-2.012.77-.488 2-1.137 2.765-1.512s1.996-.887 2.766-1.183a55 55 0 0 1 2.762-.957c.77-.247 2-.594 2.765-.797a86 86 0 0 1 2.766-.68c.766-.176 1.996-.438 2.766-.59.765-.152 1.996-.383 2.761-.52.77-.136 2-.34 2.766-.464.77-.121 2-.309 2.765-.422.766-.11 1.997-.281 2.766-.387.766-.101 1.996-.262 2.766-.355.765-.098 1.996-.246 2.761-.336a751 751 0 0 1 5.532-.621c.765-.082 1.996-.211 2.765-.29.766-.081 1.996-.206 2.762-.285.77-.078 2-.199 2.766-.273.77-.078 2-.2 2.765-.273l2.766-.27"/></g><use xlink:href="#b" x="24.902" y="103.54"/><use xlink:href="#b" x="44.167" y="103.54"/><use xlink:href="#c" x="48.401" y="103.54"/><use xlink:href="#d" x="50.754" y="103.54"/><use xlink:href="#e" x="70.019" y="103.54"/><use xlink:href="#e" x="89.284" y="103.54"/><use xlink:href="#c" x="93.517" y="103.54"/><use xlink:href="#d" x="95.87" y="103.54"/><use xlink:href="#f" x="115.135" y="103.54"/><use xlink:href="#f" x="134.399" y="103.54"/><use xlink:href="#c" x="138.633" y="103.54"/><use xlink:href="#d" x="140.986" y="103.54"/><use xlink:href="#g" x="160.25" y="103.54"/><use xlink:href="#h" x="-.018" y="80.076"/><use xlink:href="#i" x="6.569" y="80.076"/><use xlink:href="#c" x="10.803" y="80.076"/><use xlink:href="#d" x="13.155" y="80.076"/><use xlink:href="#h" x="6.569" y="69.088"/><use xlink:href="#d" x="13.155" y="69.088"/><use xlink:href="#h" x="-.018" y="58.099"/><use xlink:href="#f" x="6.569" y="58.099"/><use xlink:href="#c" x="10.803" y="58.099"/><use xlink:href="#d" x="13.155" y="58.099"/><use xlink:href="#b" x="13.155" y="47.526"/><use xlink:href="#f" x="6.569" y="36.536"/><use xlink:href="#c" x="10.803" y="36.536"/><use xlink:href="#d" x="13.155" y="36.536"/><use xlink:href="#d" x="13.155" y="25.547"/><use xlink:href="#i" x="6.569" y="14.559"/><use xlink:href="#c" x="10.803" y="14.559"/><use xlink:href="#d" x="13.155" y="14.559"/></svg>