<svg xmlns="http://www.w3.org/2000/svg" width="115.418" height="58.718"><path fill="#7F7FFF" d="M57.418 29.223C57.418 13.566 44.73.875 29.074.875S.727 13.566.727 29.223 13.418 57.57 29.074 57.57 57.418 44.88 57.418 29.223M114.113 29.223c0-7.828-6.343-14.172-14.172-14.172-7.828 0-14.175 6.344-14.175 14.172s6.347 14.172 14.175 14.172 14.172-6.344 14.172-14.172m0 0"/><path fill="#7F7FFF" d="M53.621 15.05a28.35 28.35 0 0 1 0 28.345c3.543-6.137 10.887-11.336 17.973-11.336v-5.672c-7.086 0-14.43-5.2-17.973-11.336M71.594 32.06h7.086v-5.672h-7.086Zm16.07-9.922a14.17 14.17 0 0 0 0 14.172c-1.77-3.067-5.441-4.25-8.984-4.25v-5.672c3.543 0 7.215-1.184 8.984-4.25m0 0"/></svg>