<svg xmlns="http://www.w3.org/2000/svg" width="101.529" height="90.704"><defs><clipPath id="a"><path d="M0 23h92v67.555H0Zm0 0"/></clipPath><clipPath id="b"><path d="M6 20h75v70.555H6Zm0 0"/></clipPath></defs><path fill="none" stroke="#7F7F7F" stroke-miterlimit="10" stroke-width=".199" d="M15.156 57.645h85.04m-85.04-28.348h85.04M15.155.96h85.04m-85.04 56.684V.953M43.5 57.645V.953m28.348 56.692V.953m28.336 56.692V.953"/><g clip-path="url(#a)"><path fill="none" stroke="#000" stroke-miterlimit="10" stroke-width=".399" d="M86.023 57.645c0-15.657-19.039-28.348-42.523-28.348C20.02 29.297.98 41.988.98 57.645S20.02 85.992 43.5 85.992c23.484 0 42.523-12.691 42.523-28.347Zm0 0"/></g><g clip-path="url(#b)"><path fill="none" stroke="red" stroke-miterlimit="10" stroke-width=".399" d="M71.848 29.297c-7.828-7.828-26.864-1.48-42.52 14.176s-22 34.691-14.172 42.52c7.824 7.827 26.864 1.48 42.52-14.173 15.656-15.656 22-34.695 14.172-42.523Zm0 0"/></g></svg>