<svg xmlns="http://www.w3.org/2000/svg" xmlns:xlink="http://www.w3.org/1999/xlink" width="61.233" height="28.748"><defs><path id="a" d="M8.25 0v-.469h-.969L4.72-6.703c-.11-.25-.219-.25-.39-.25-.282 0-.329.078-.391.25l-2.47 6c-.062.156-.093.234-.843.234H.406V0l1.172-.031c.39 0 .938 0 1.313.031v-.469S2-.469 2-.594l.047-.125.5-1.203h2.672l.593 1.453H4.86V0c.391-.031 1.329-.031 1.766-.031.39 0 1.266 0 1.625.031M5.016-2.39H2.734l1.141-2.766Zm0 0"/><path id="b" d="M7.5-1.86c0-.952-.844-1.624-2.031-1.702 1.078-.204 1.718-.797 1.718-1.563 0-.922-.875-1.719-2.468-1.719H.39v.469h1.078v5.906H.39V0h4.625C6.672 0 7.5-.875 7.5-1.86M5.766-5.124c0 .766-.47 1.39-1.438 1.39H2.766v-2.64h1.812c1.016 0 1.188.797 1.188 1.25m.28 3.266c0 .109 0 1.39-1.437 1.39H2.766v-2.906h1.937c.203 0 .672 0 1.016.422.328.422.328.984.328 1.094m0 0"/><clipPath id="c"><path d="M9 15h42v13.621H9Zm0 0"/></clipPath></defs><path fill="none" stroke="#000" stroke-miterlimit="10" stroke-width=".399" d="M.816 21.047h15.297V7.453H.816Zm0 0"/><use xlink:href="#a" x="4.136" y="17.726"/><path fill="none" stroke="#000" stroke-miterlimit="10" stroke-width=".399" d="M44.86 20.988h14.792V7.512H44.86Zm0 0"/><use xlink:href="#b" x="48.179" y="17.666"/><path fill="none" stroke="#000" stroke-miterlimit="10" stroke-width=".399" d="M15.46 7.254C23.173-.426 35.255-.934 43.54 5.71"/><path fill="none" stroke="#000" stroke-linecap="round" stroke-linejoin="round" stroke-miterlimit="10" stroke-width=".39898404" d="M41.262 1.25c-.465 1.41-.13 2.437.43 3.137-.864-.23-1.942-.125-3.044.87"/><path fill="none" stroke="#000" stroke-linecap="round" stroke-linejoin="round" stroke-miterlimit="10" stroke-width=".39898005000000003" d="M43.637 2.676c-.63 1.344-.414 2.406.062 3.164-.832-.332-1.914-.352-3.125.508"/><g clip-path="url(#c)"><path fill="none" stroke="#000" stroke-miterlimit="10" stroke-width=".399" d="M15.46 21.246a21.07 21.07 0 0 0 29.575.219"/></g><path fill="none" stroke="#000" stroke-linecap="round" stroke-linejoin="round" stroke-miterlimit="10" stroke-width=".39897606" d="M40.21 22.379c1.192.887 2.274.89 3.11.582-.488.746-.726 1.8-.129 3.16"/><path fill="none" stroke="#000" stroke-linecap="round" stroke-linejoin="round" stroke-miterlimit="10" stroke-width=".39899202" d="M42.023 21.11c1.286.742 2.36.624 3.157.218-.403.797-.516 1.875.23 3.156"/></svg>