<svg xmlns="http://www.w3.org/2000/svg" width="87.058" height="112.214"><defs><clipPath id="a"><path d="M0 0h86.586v32H0Zm0 0"/></clipPath><clipPath id="b"><path d="M0 23h86.586v37H0Zm0 0"/></clipPath><clipPath id="c"><path d="M0 52h86.586v36H0Zm0 0"/></clipPath><clipPath id="d"><path d="M0 80h86.586v31.82H0Zm0 0"/></clipPath></defs><g clip-path="url(#a)"><path fill="none" stroke="#000" stroke-miterlimit="10" stroke-width=".399" d="M.54 25.57h28.343L43.059 1.02l14.168 24.55h28.351"/></g><g clip-path="url(#b)"><path fill="none" stroke="#000" stroke-miterlimit="10" stroke-width=".399" d="M.54 53.918h9.444l4.727-8.184 4.723 8.184h9.449l4.722-8.18-4.722-8.18 9.445.005 4.723-8.18 4.726 8.164h9.446l-4.727 8.176 4.723 8.183 9.457.012 4.726-8.184 4.723 8.184h9.453"/></g><g clip-path="url(#c)"><path fill="none" stroke="#000" stroke-miterlimit="10" stroke-width=".399" d="M.54 82.266h3.148l1.574-2.727 1.574 2.727h3.148l1.575-2.727-1.575-2.73 3.149.004 1.578-2.731 1.574 2.727h3.149l-1.579 2.726 1.575 2.727 3.152.004 1.574-2.73 1.574 2.73h3.153l1.574-2.727-1.574-2.727h3.148l1.574-2.726-1.574-2.727h-3.148l1.574-2.726-1.574-2.727h3.148l1.574-2.726 1.575 2.726 3.148.004 1.574-2.726-1.574-2.727h3.149l1.574-2.727 1.574 2.72 3.145-.005-1.567 2.727 1.574 2.723h3.149l1.574-2.727 1.574 2.727h3.149l-1.575 2.726 1.57 2.727-3.148-.004-1.574 2.726 1.574 2.727h3.149l-1.574 2.726 1.574 2.727 3.152.004 1.578-2.727 1.574 2.735 3.153.004 1.574-2.73-1.574-2.727h3.148l1.578-2.73 1.575 2.73h3.148l-1.574 2.726 1.574 2.73h3.152l1.575-2.73 1.574 2.73h3.152"/></g><g clip-path="url(#d)"><path fill="none" stroke="#000" stroke-miterlimit="10" stroke-width=".399" d="M.54 110.613h1.046l.527-.91.524.91h1.05l.524-.91-.524-.91h1.051l.524-.91.523.91h1.05l-.522.91.523.91h1.05l.524-.91.524.91h1.05l.524-.91-.524-.91h1.051l.524-.91-.524-.906h-1.05l.527-.91-.528-.91h1.051l.524-.91.527.91h1.047l.527-.907-.527-.91h1.05l.528-.91.523.91h1.051l-.527.906.527.91h1.047l.527-.91.524.91h1.05l-.527.91.528.907h-1.051l-.528.91.528.91h1.05l-.527.906.524.91h1.05l.528-.91.523.91h1.051l.523-.906-.523-.91h1.05l.524-.91.524.91h1.05l-.523.91.523.91h1.051l.524-.91.527.91h1.05l.524-.91-.523-.91h1.047l.527-.906-.527-.91h-1.047l.523-.91-.523-.907h1.047l.527-.91.523.91h1.051l.524-.91-.524-.906h1.047l.527-.91-.527-.91h-1.047l.524-.907-.524-.91h-1.05l-.524.91-.523-.91h-1.051l.523-.91-.523-.906h1.05l.524-.91-.523-.91h-1.051l.527-.907-.527-.91h1.05l.524-.91.523.91h1.051l.524-.91-.524-.906h1.051l.523-.91.524.91h1.05l-.527.906.528.91h1.047l.527-.91.523.91h1.051l.524-.906-.524-.91h1.047l.527-.907-.527-.91h-1.047l.524-.91-.524-.91h1.047l.527-.906.524.906h1.05l.524-.906-.523-.91h1.046l.528-.91.523.91 1.051-.005-.523.91.523.907h1.05l.524-.91.524.906h1.047l-.524.906.527.91h-1.046l-.524.907.524.91 1.046-.004-.523.91.527.906h1.051l.524-.906.523.906h1.05l.524-.906-.523-.91h1.05l.524-.906.523.906 1.051.004-.527.906.527.91h1.047l.527-.91.524.91h1.05l-.527.906.524.91h-1.047l-.524.91.524.907h1.047l-.524.91.524.906h-1.047l-.527.91-.524-.91h-1.047l-.527.907.523.91h-1.047l-.527.91.527.906h1.047l-.523.91.523.91h1.051l.524-.91.523.91h1.05l-.527.907.528.91h-1.051l-.523.91.523.906h1.05l-.527.91.528.91h1.05l.528-.91.523.915h1.051l.527-.91-.527-.91 1.05.003.528-.91.524.91h1.05l-.527.91.527.91 1.051.004.528-.91.523.91h1.05l.524-.906-.523-.91h1.05l.524-.91-.523-.91h-1.051l.523-.91-.523-.907h1.05l.524-.91.527.91h1.051l.524-.91-.524-.91h1.047l.527-.91.524.91h1.05l-.523.91.524.91h1.05l.524-.91.527.91h1.047l-.523.906.523.91h-1.05l-.524.91.523.911h1.051l-.523.91.523.906h1.05l.524-.906.528.906h1.05l.524-.906-.524-.91h1.051l.524-.91.523.91h1.05l-.523.91.524.91h1.05l.528-.91.523.91h1.051"/></g></svg>