<svg xmlns="http://www.w3.org/2000/svg" width="28.193" height="91.424"><defs><clipPath id="a"><path d="M0 0h27.79v91.137H0Zm0 0"/></clipPath></defs><g clip-path="url(#a)"><path fill="none" stroke="#000" stroke-miterlimit="10" stroke-width=".399" d="M.84.91s7.984 3.387 10.558 5.106c2.57 1.722 6.172 5.101 7.98 7.293 1.81 2.195 4.063 6.12 5.056 8.52.992 2.401 1.886 6.429 2.09 8.773.203 2.34-.145 6.054-.626 8.113-.476 2.058-1.832 5.12-2.824 6.722-.996 1.598-3.039 3.77-4.344 4.797-1.304 1.028-3.671 2.192-5.066 2.618-1.394.425-3.715.586-4.98.449-1.27-.14-3.204-.852-4.16-1.446-.961-.593-2.235-1.953-2.75-2.843s-.961-2.59-.961-3.582c0-.996.445-2.692.96-3.586.516-.89 1.79-2.246 2.75-2.84.957-.598 2.891-1.309 4.16-1.445 1.266-.141 3.587.023 4.981.449 1.395.426 3.762 1.586 5.066 2.617 1.305 1.027 3.348 3.2 4.344 4.797.992 1.598 2.348 4.66 2.824 6.719.48 2.058.829 5.773.625 8.117s-1.097 6.37-2.09 8.77c-.992 2.398-3.245 6.327-5.054 8.519-1.809 2.195-5.41 5.574-7.98 7.293C8.823 86.562.838 89.95.838 89.95"/></g></svg>