<svg xmlns="http://www.w3.org/2000/svg" width="87.44" height="87.284"><defs><clipPath id="a"><path d="M23 23h64.16v63.926H23Zm0 0"/></clipPath><clipPath id="b"><path d="M23 14h58v72.926H23Zm0 0"/></clipPath></defs><path fill="none" stroke="#7F7F7F" stroke-miterlimit="10" stroke-width=".199" d="M.828 85.781h85.043M.828 57.434h85.043M.828 29.086h85.043M.828.75h85.043M.828 85.781V.742m28.348 85.04V.741m28.347 85.04V.741m28.336 85.04V.741"/><g clip-path="url(#a)"><path fill="none" stroke="#000" stroke-miterlimit="10" stroke-width=".399" d="m29.176 85.781 56.41-56.41"/></g><path fill="none" stroke="#000" stroke-linecap="round" stroke-linejoin="round" stroke-miterlimit="10" stroke-width=".39899601" d="M82.574 29.004c1.281.746 2.356.629 3.156.223-.406.8-.523 1.875.223 3.156"/><g clip-path="url(#b)"><path fill="none" stroke="red" stroke-miterlimit="10" stroke-width=".399" d="M29.176 85.781 74.938 20.43"/></g><path fill="none" stroke="red" stroke-linecap="round" stroke-linejoin="round" stroke-miterlimit="10" stroke-width=".39899202" d="M71.902 20.594c1.395.511 2.43.21 3.149-.328-.262.859-.188 1.937.77 3.07"/><path d="M54.164 52.941a1.996 1.996 0 0 0-1.992-1.992 1.996 1.996 0 0 0-1.996 1.992 1.994 1.994 0 0 0 3.988 0m0 0"/></svg>