<svg xmlns="http://www.w3.org/2000/svg" xmlns:xlink="http://www.w3.org/1999/xlink" width="105.976" height="55.19"><defs><path id="a" d="M5.406-2.172c0-1.344-.922-2.344-2.547-2.344C1.22-4.516.313-3.5.313-2.172c0 1.235.89 2.235 2.546 2.235 1.672 0 2.547-1.016 2.547-2.235m-1.281-.11c0 .86 0 1.938-1.266 1.938-1.265 0-1.265-1.078-1.265-1.937 0-.453 0-.953.172-1.297.187-.375.609-.578 1.093-.578.422 0 .844.156 1.063.5.203.344.203.89.203 1.375m0 0"/><path id="b" d="M6.125 0v-.469h-.687v-2.578c0-1.047-.532-1.437-1.532-1.437-.953 0-1.484.562-1.75 1.078v-1.078l-1.703.078v.468c.61 0 .688 0 .688.391v3.078H.453V0l1.25-.031L2.953 0v-.469h-.687v-2.078c0-1.094.859-1.578 1.5-1.578.328 0 .547.203.547.969V-.47h-.688V0l1.25-.031Zm0 0"/><path id="c" d="M4.922-1.172c0-.172-.188-.172-.234-.172-.172 0-.188.047-.25.203-.204.485-.782.797-1.422.797-1.407 0-1.422-1.328-1.422-1.828h3.015c.22 0 .313 0 .313-.265 0-.313-.063-1.047-.563-1.547-.359-.36-.89-.532-1.578-.532C1.187-4.516.313-3.484.313-2.25c0 1.344 1 2.313 2.609 2.313 1.578 0 2-1.063 2-1.235M3.984-2.5h-2.39c.015-.39.031-.812.234-1.14.266-.391.672-.516.953-.516 1.172 0 1.188 1.312 1.203 1.656m0 0"/><path id="d" d="M5.156-2.219h-.468c-.032.203-.125.844-.266.906-.11.063-.86.063-1.016.063H1.937c.47-.39 1-.812 1.438-1.14 1.14-.844 1.781-1.313 1.781-2.25 0-1.157-1.047-1.891-2.437-1.891-1.219 0-2.156.625-2.156 1.515 0 .594.484.735.718.735C1.61-4.281 2-4.5 2-5c0-.516-.422-.672-.562-.719.28-.234.671-.343 1.03-.343.845 0 1.313.671 1.313 1.421 0 .688-.375 1.375-1.078 2.079l-2 2.046c-.14.11-.14.141-.14.344V0h4.28Zm0 0"/><path id="e" d="M3.813-1.234v-.532h-.47v.516c0 .672-.327.906-.609.906-.578 0-.578-.64-.578-.86v-2.75h1.469v-.468H2.156v-1.906h-.469c0 1-.484 1.984-1.484 2.016v.359h.828v2.734c0 1.063.86 1.282 1.578 1.282.75 0 1.204-.579 1.204-1.297m0 0"/><path id="f" d="M6.125 0v-.469h-.687v-2.578c0-1.047-.532-1.437-1.532-1.437a1.9 1.9 0 0 0-1.687.953v-3.39l-1.766.077v.469c.61 0 .688 0 .688.39v5.516H.453V0l1.25-.031L2.953 0v-.469h-.687v-2.078c0-1.094.859-1.578 1.5-1.578.328 0 .547.203.547.969V-.47h-.688V0l1.25-.031Zm0 0"/><path id="g" d="M4.406-3.672c0-.531-.531-.812-1.062-.812-.688 0-1.094.5-1.313 1.125v-1.125l-1.656.078v.468c.61 0 .688 0 .688.391v3.078H.375V0l1.25-.031C2-.031 2.641-.031 3 0v-.469h-.86v-1.75c0-.687.235-1.906 1.235-1.906 0 0-.187.172-.187.453 0 .406.328.61.609.61.297 0 .61-.204.61-.61m0 0"/><path id="h" d="M5.406 0v-.469h-.968v-1.094h.968v-.468h-.968V-6.22c0-.265-.016-.328-.297-.328-.22 0-.22.016-.344.172L.313-2.031v.469h2.875V-.47h-1.11V0c.375-.031 1.281-.031 1.703-.031.406 0 1.266 0 1.625.031m-2.11-2.031H.845L3.297-5.11Zm0 0"/></defs><path fill="none" stroke="#000" stroke-miterlimit="10" stroke-width=".399" d="M1.207 53.578h32.684V.813H1.207Zm32.684-41.152H1.207m32.684 13.562H1.207m32.684 14.016H1.207"/><use xlink:href="#a" x="8.874" y="8.845"/><use xlink:href="#b" x="14.603" y="8.845"/><use xlink:href="#c" x="20.969" y="8.845"/><use xlink:href="#d" x="4.526" y="22.47"/><use xlink:href="#e" x="4.526" y="36.424"/><use xlink:href="#f" x="8.979" y="36.424"/><use xlink:href="#g" x="15.345" y="36.424"/><use xlink:href="#c" x="20.068" y="36.424"/><use xlink:href="#c" x="25.318" y="36.424"/><use xlink:href="#h" x="24.84" y="50.058"/><path fill="none" stroke="#000" stroke-miterlimit="10" stroke-width=".399" d="M36.637 53.578h32.687V.813H36.637Zm32.687-41.152H36.637m32.687 13.562H36.637m32.687 14.016H36.637"/><use xlink:href="#a" x="44.308" y="8.845"/><use xlink:href="#b" x="50.037" y="8.845"/><use xlink:href="#c" x="56.403" y="8.845"/><use xlink:href="#d" x="39.959" y="22.47"/><use xlink:href="#e" x="39.959" y="36.424"/><use xlink:href="#f" x="44.412" y="36.424"/><use xlink:href="#g" x="50.778" y="36.424"/><use xlink:href="#c" x="55.501" y="36.424"/><use xlink:href="#c" x="60.751" y="36.424"/><use xlink:href="#h" x="39.959" y="50.058"/><path fill="none" stroke="#000" stroke-miterlimit="10" stroke-width=".399" d="M72.07 53.578h32.688V.813H72.07Zm32.688-41.152H72.07m32.688 13.562H72.07m32.688 14.016H72.07"/><use xlink:href="#a" x="79.741" y="8.845"/><use xlink:href="#b" x="85.47" y="8.845"/><use xlink:href="#c" x="91.836" y="8.845"/><use xlink:href="#d" x="85.549" y="22.47"/><use xlink:href="#e" x="75.392" y="36.424"/><use xlink:href="#f" x="79.845" y="36.424"/><use xlink:href="#g" x="86.211" y="36.424"/><use xlink:href="#c" x="90.934" y="36.424"/><use xlink:href="#c" x="96.184" y="36.424"/><use xlink:href="#h" x="85.549" y="50.058"/></svg>