<svg xmlns="http://www.w3.org/2000/svg" xmlns:xlink="http://www.w3.org/1999/xlink" width="76.345" height="63.923"><defs><path id="a" d="M4.922 0v-.469h-1.39v-5.734c0-.234 0-.328-.266-.328-.11 0-.125 0-.22.078-.765.562-1.796.562-2 .562H.845v.47h.203c.156 0 .703-.016 1.297-.204v5.156H.954V0c.437-.031 1.5-.031 1.984-.031s1.546 0 1.984.031m0 0"/><path id="b" d="M5.156-2.219h-.468c-.032.203-.125.844-.266.906-.11.063-.86.063-1.016.063H1.937c.47-.39 1-.812 1.438-1.14 1.14-.844 1.781-1.313 1.781-2.25 0-1.157-1.047-1.891-2.437-1.891-1.219 0-2.156.625-2.156 1.515 0 .594.484.735.718.735C1.61-4.281 2-4.5 2-5c0-.516-.422-.672-.562-.719.28-.234.671-.343 1.03-.343.845 0 1.313.671 1.313 1.421 0 .688-.375 1.375-1.078 2.079l-2 2.046c-.14.11-.14.141-.14.344V0h4.28Zm0 0"/><path id="c" d="M5.25-1.797c0-.547-.297-1.406-1.734-1.719.687-.203 1.406-.765 1.406-1.625 0-.765-.75-1.39-2.156-1.39-1.188 0-1.97.64-1.97 1.437 0 .422.313.703.688.703a.67.67 0 0 0 .704-.687c0-.578-.547-.688-.579-.703.344-.282.782-.36 1.094-.36.828 0 .86.641.86.97 0 .124-.016 1.437-1.047 1.5-.407.015-.438.015-.485.03-.094.016-.125.11-.125.172 0 .172.11.172.282.172h.437c1.094 0 1.094.985 1.094 1.5 0 .469 0 1.485-1.031 1.485-.266 0-.782-.047-1.266-.344C1.75-.75 2-1 2-1.406c0-.453-.312-.75-.75-.75-.422 0-.766.265-.766.765 0 .907.97 1.5 2.25 1.5 1.782 0 2.516-1 2.516-1.906m0 0"/><path id="d" d="M5.406 0v-.469h-.968v-1.094h.968v-.468h-.968V-6.22c0-.265-.016-.328-.297-.328-.22 0-.22.016-.344.172L.313-2.031v.469h2.875V-.47h-1.11V0c.375-.031 1.281-.031 1.703-.031.406 0 1.266 0 1.625.031m-2.11-2.031H.845L3.297-5.11Zm0 0"/><path id="e" d="M5.156-2c0-1.156-.797-2.078-2.265-2.078-.282 0-.813.031-1.282.344v-1.313c.282.047.391.078.72.078 1.452 0 2.374-1.125 2.374-1.375 0-.078-.016-.187-.14-.187-.032 0-.032 0-.141.047a4.3 4.3 0 0 1-1.531.28c-.75 0-1.282-.202-1.547-.28-.094-.032-.094-.047-.125-.047-.14 0-.14.11-.14.265v2.922c0 .172 0 .297.218.297.125 0 .156-.031.219-.11.39-.468.922-.562 1.328-.562.89 0 .89.875.89 1.672 0 .735 0 1.735-1.187 1.735-.25 0-.875-.063-1.297-.625.36-.016.656-.266.656-.672 0-.532-.437-.672-.672-.672-.14 0-.671.094-.671.703 0 .844.78 1.687 2.015 1.687C4.172.11 5.156-.78 5.156-2m0 0"/><path id="f" d="M5.25-2.047c0-1.39-1.016-2.125-2.219-2.125-.219 0-.781 0-1.203.766v-.188c0-1.14.219-1.562.281-1.719.25-.468.782-.828 1.391-.828.172 0 .516.032.75.266a.595.595 0 0 0-.547.61c0 .343.235.624.625.624s.625-.265.625-.64c0-.625-.422-1.25-1.469-1.25-1.359 0-3 .86-3 3.375 0 .781.079 1.578.5 2.265.47.766 1.22 1 1.922 1C4.281.11 5.25-.703 5.25-2.047m-1.36-.015c0 1 0 1.75-1.015 1.75-.516 0-.781-.391-.86-.563-.156-.312-.156-1.031-.156-1.219 0-1.25.532-1.719 1.079-1.719.953 0 .953.75.953 1.75m0 0"/><path id="g" d="M5.563-6.422H3.53c-.234 0-1.703-.047-1.844-.094-.203-.03-.218-.125-.234-.218H.984l-.343 2.53h.468c.094-.765.22-.89.266-.905.11-.063.922-.063 1.094-.063H4.14c-.172.219-.36.422-.547.64-.953 1.126-1.672 2.47-1.672 3.938 0 .703.562.703.625.703.156 0 .625-.046.625-.703v-.468c0-.47.031-.954.094-1.422.093-.672.297-1.25.656-1.657l1.547-1.796c.093-.11.093-.141.093-.485m0 0"/></defs><path fill="none" stroke="#000" stroke-miterlimit="10" stroke-width=".399" d="m67.074 27.785-2.953-12.937M53.11 49.21l7.843-34.362M29.555 49.262 57 14.848M13.441 31.547l42.711-20.57M19.54 7.902h36.612M44.23 20.105l11.922-7.945M57 49.21l6.184-7.75M30.527 52.973 62.25 37.695M13.441 34.621H62.25M19.54 10.977l42.71 20.57M44.23 26.488l18.02 6.004M30.527 56.047h14.637M13.441 37.695l31.723 15.278M18.563 14.688l27.53 34.523M40.777 31.145 48.59 49.21M12.508 41.46l6.222 7.802M14.703 14.688l7.89 34.574M34.914 31.145l-7.836 18.117M11.605 14.688 8.617 27.785M31.46 26.488l-18.019 6.004M31.46 20.105 19.54 12.16"/><path fill="#FFF" stroke="#000" stroke-miterlimit="10" stroke-width=".399" d="M31.66 30.941h12.371V17.777h-12.37Zm0 0"/><use xlink:href="#a" x="34.98" y="27.622"/><path fill="#FFF" stroke="#000" stroke-miterlimit="10" stroke-width=".399" d="M6.969 14.488h12.37V1.32H6.97Zm0 0"/><use xlink:href="#b" x="10.29" y="11.166"/><path fill="#FFF" stroke="#000" stroke-miterlimit="10" stroke-width=".399" d="M.871 41.258h12.371V27.98H.872Zm0 0"/><use xlink:href="#c" x="4.192" y="37.828"/><path fill="#FFF" stroke="#000" stroke-miterlimit="10" stroke-width=".399" d="M17.957 62.637h12.371v-13.18H17.957Zm0 0"/><use xlink:href="#d" x="21.279" y="59.315"/><path fill="#FFF" stroke="#000" stroke-miterlimit="10" stroke-width=".399" d="M45.363 62.684H57.73V49.41H45.363Zm0 0"/><use xlink:href="#e" x="48.684" y="59.255"/><path fill="#FFF" stroke="#000" stroke-miterlimit="10" stroke-width=".399" d="M62.45 41.258h12.37V27.98H62.45Zm0 0"/><use xlink:href="#f" x="65.769" y="37.828"/><path fill="#FFF" stroke="#000" stroke-miterlimit="10" stroke-width=".399" d="M56.352 14.645h12.367V1.16H56.352Zm0 0"/><use xlink:href="#g" x="59.672" y="11.216"/></svg>