<svg xmlns="http://www.w3.org/2000/svg" xmlns:xlink="http://www.w3.org/1999/xlink" width="185.072" height="107.246"><defs><path id="b" d="M5.563-1.812c.14 0 .312 0 .312-.172 0-.188-.172-.188-.312-.188H1c-.125 0-.297 0-.297.188 0 .172.172.172.297.172Zm0 0"/><path id="c" d="M2.25-1.625c.125-.125.453-.39.594-.5.484-.453.953-.89.953-1.61 0-.953-.797-1.562-1.781-1.562-.97 0-1.594.719-1.594 1.438 0 .39.312.437.422.437.172 0 .422-.11.422-.422 0-.406-.407-.406-.5-.406.234-.594.765-.781 1.156-.781.734 0 1.125.625 1.125 1.297 0 .828-.578 1.437-1.531 2.39l-1 1.047C.422-.219.422-.203.422 0h3.14l.235-1.422h-.25c-.016.156-.078.547-.172.703-.047.063-.656.063-.781.063H1.172Zm0 0"/><path id="d" d="M3.89-2.547c0-.844-.078-1.36-.343-1.875-.344-.703-1-.875-1.438-.875-1 0-1.375.75-1.484.969C.344-3.75.328-2.953.328-2.547c0 .531.016 1.328.406 1.969.36.594.954.75 1.375.75.391 0 1.063-.125 1.47-.906.296-.578.312-1.297.312-1.813M2.11-.062c-.266 0-.813-.125-.985-.954-.094-.453-.094-1.203-.094-1.625 0-.546 0-1.109.094-1.546.172-.813.781-.891.984-.891.266 0 .829.14.985.86.094.437.094 1.046.094 1.577 0 .47 0 1.188-.094 1.641-.172.828-.719.938-.985.938m0 0"/><path id="e" d="M3.14-5.156c0-.157 0-.219-.171-.219-.094 0-.11 0-.188.11L.234-1.564v.25h2.25v.672c0 .297-.015.375-.64.375h-.172V0c.672-.031.687-.031 1.14-.031.454 0 .47 0 1.141.031v-.266h-.172c-.625 0-.64-.078-.64-.375v-.671h.843v-.25h-.843Zm-.593.64v2.954H.516Zm0 0"/><path id="f" d="M1.11-4.484c.109.03.421.125.765.125 1 0 1.594-.703 1.594-.828 0-.094-.047-.11-.094-.11-.016 0-.031 0-.094.031a3 3 0 0 1-1.11.22c-.468 0-.858-.11-1.108-.22-.079-.03-.094-.03-.11-.03-.094 0-.094.077-.094.234v2.328c0 .14 0 .234.125.234.063 0 .079-.031.125-.094.094-.11.391-.515 1.079-.515.437 0 .656.359.734.515.125.281.14.656.14.953s0 .735-.218 1.079c-.156.25-.485.484-.906.484A1.27 1.27 0 0 1 .734-.922c.016.016.079.016.079.016.218 0 .406-.14.406-.39a.39.39 0 0 0-.39-.407c-.157 0-.407.078-.407.422 0 .718.625 1.453 1.531 1.453 1 0 1.844-.781 1.844-1.766 0-.922-.672-1.75-1.61-1.75-.39 0-.765.125-1.078.406Zm0 0"/><path id="g" d="M2.5-5.078c0-.219-.016-.219-.234-.219-.328.313-.75.5-1.5.5v.266c.218 0 .64 0 1.109-.203v4.078c0 .297-.031.39-.781.39H.812V0c.329-.031 1.016-.031 1.376-.031s1.046 0 1.374.031v-.266h-.28c-.75 0-.782-.093-.782-.39Zm0 0"/><clipPath id="a"><path d="M33 0h151.61v100H33Zm0 0"/></clipPath></defs><path fill="none" stroke="#7F7F7F" stroke-linecap="round" stroke-miterlimit="10" stroke-width=".399" d="M59.309 97.91v-1.992M94.742 97.91v-1.992M130.176 97.91v-1.992M165.61 97.91v-1.992M11.254 90.934h1.992M11.254 73.414h1.992M11.254 55.898h1.992M11.254 38.379h1.992M11.254 20.86h1.992M11.254 3.34h1.992"/><path fill="none" stroke="#7F7F7F" stroke-miterlimit="10" stroke-width=".399" d="M41.594 95.918h141.73"/><path fill="none" stroke="#BFBFBF" stroke-linecap="square" stroke-miterlimit="10" stroke-width=".399" d="M41.594 90.934h141.73M41.594 3.344h141.73"/><path fill="none" stroke="#7F7F7F" stroke-miterlimit="10" stroke-width=".399" d="M13.246 90.934V3.344"/><path fill="none" stroke="#BFBFBF" stroke-linecap="square" stroke-miterlimit="10" stroke-width=".399" d="M41.594 90.934V3.344M183.324 90.934V3.344"/><g clip-path="url(#a)"><path fill="none" stroke="#000" stroke-miterlimit="10" stroke-width=".598" d="M41.594 59.402s4.265 4.887 5.902 6.618c1.64 1.726 4.27 4.328 5.906 5.84 1.641 1.511 4.266 3.765 5.907 5.058 1.636 1.297 4.265 3.203 5.906 4.285 1.637 1.078 4.265 2.637 5.906 3.504 1.637.863 4.266 2.074 5.902 2.723 1.641.648 4.27 1.515 5.907 1.949 1.64.43 4.27.95 5.906 1.168 1.64.215 4.266.387 5.906.387 1.637 0 4.266-.172 5.906-.387 1.637-.219 4.266-.738 5.903-1.168 1.64-.434 4.27-1.3 5.906-1.95 1.64-.644 4.27-1.859 5.906-2.722 1.64-.863 4.266-2.422 5.907-3.504a103 103 0 0 0 5.906-4.281c1.637-1.297 4.265-3.55 5.906-5.063a148 148 0 0 0 5.902-5.84c1.641-1.726 4.27-4.671 5.907-6.617a223 223 0 0 0 5.906-7.394c1.637-2.164 4.266-5.801 5.906-8.176a340 340 0 0 0 5.906-8.953 388 388 0 0 0 5.903-9.734c1.64-2.81 4.27-7.485 5.906-10.512 1.64-3.024 5.906-11.29 5.906-11.29"/></g><use xlink:href="#b" x="53.898" y="105.702"/><use xlink:href="#c" x="60.484" y="105.702"/><use xlink:href="#d" x="92.624" y="105.702"/><use xlink:href="#c" x="128.057" y="105.702"/><use xlink:href="#e" x="163.49" y="105.702"/><use xlink:href="#d" x="4.362" y="93.504"/><use xlink:href="#f" x="4.362" y="75.985"/><use xlink:href="#g" x=".128" y="58.466"/><use xlink:href="#d" x="4.363" y="58.466"/><use xlink:href="#g" x=".128" y="40.947"/><use xlink:href="#f" x="4.363" y="40.947"/><use xlink:href="#c" x=".128" y="23.428"/><use xlink:href="#d" x="4.363" y="23.428"/><use xlink:href="#c" x=".128" y="5.91"/><use xlink:href="#f" x="4.363" y="5.91"/></svg>