<svg xmlns="http://www.w3.org/2000/svg" width="87.439" height="93.975"><defs><clipPath id="a"><path d="M0 0h78v93.96H0Zm0 0"/></clipPath><clipPath id="b"><path d="M0 0h87.16v81H0Zm0 0"/></clipPath><clipPath id="c"><path d="M0 45h78v48.96H0Zm0 0"/></clipPath></defs><path fill="none" stroke="#000" stroke-linecap="round" stroke-miterlimit="10" stroke-width=".399" d="M.918 92.762v-3.985M9.422 92.762v-3.985M17.926 92.762v-3.985M26.43 92.762v-3.985M34.934 92.762v-3.985M43.438 92.762v-3.985M51.941 92.762v-3.985M60.445 92.762v-3.985M68.95 92.762v-3.985M77.453 92.762v-3.985M85.957 92.762v-3.985M.918 5.172V1.188M9.422 5.172V1.188M17.926 5.172V1.188M26.43 5.172V1.188M34.934 5.172V1.188M43.438 5.172V1.188M51.941 5.172V1.188M60.445 5.172V1.188M68.95 5.172V1.188M77.453 5.172V1.188M85.957 5.172V1.188"/><path fill="none" stroke="#000" stroke-miterlimit="10" stroke-width=".598" d="M43.438 48.098h8.503l8.504-22.461 17.008 11.23"/><g clip-path="url(#a)"><path fill="none" stroke="#000" stroke-miterlimit="10" stroke-width=".598" d="m9.422 90.77 8.504-20.211 8.504-67.38 42.52 67.38"/></g><g clip-path="url(#b)"><path fill="none" stroke="#000" stroke-miterlimit="10" stroke-width=".598" d="m.918 72.133 17.008-9.317 17.008-27.953L85.957 3.18"/></g><g clip-path="url(#c)"><path fill="none" stroke="#000" stroke-miterlimit="10" stroke-width=".598" d="m.918 90.77 17.008-9.317 8.504-9.32 42.52-18.637"/></g></svg>