<svg xmlns="http://www.w3.org/2000/svg" width="98.804" height="13.754"><defs><clipPath id="a"><path d="M0 0h19v13.633H0Zm0 0"/></clipPath><clipPath id="b"><path d="M23 0h24v13.633H23Zm0 0"/></clipPath><clipPath id="c"><path d="M52 0h23v13.633H52Zm0 0"/></clipPath><clipPath id="d"><path d="M80 0h18.707v13.633H80Zm0 0"/></clipPath></defs><g clip-path="url(#a)"><path fill="none" stroke="#000" stroke-miterlimit="10" stroke-width=".399" d="M12.457 6.758a5.67 5.67 0 1 0-11.34.003 5.67 5.67 0 0 0 11.34-.003Zm0 0"/></g><g clip-path="url(#b)"><path fill="none" stroke="#000" stroke-miterlimit="10" stroke-width=".399" d="M40.805 6.758a5.67 5.67 0 1 0-11.34.003 5.67 5.67 0 0 0 11.34-.003Zm0 0"/></g><g clip-path="url(#c)"><path fill="none" stroke="#000" stroke-miterlimit="10" stroke-width=".399" d="M69.152 6.758a5.67 5.67 0 1 0-11.34.005 5.67 5.67 0 0 0 11.34-.005Zm0 0"/></g><g clip-path="url(#d)"><path fill="none" stroke="#000" stroke-miterlimit="10" stroke-width=".399" d="M97.496 6.758a5.667 5.667 0 1 0-11.336 0 5.668 5.668 0 1 0 11.336 0Zm0 0"/></g></svg>