<?xml version="1.0" encoding="UTF-8"?>
<svg xmlns="http://www.w3.org/2000/svg" xmlns:xlink="http://www.w3.org/1999/xlink" width="104.078pt" height="146.576pt" viewBox="0 0 104.078 146.576" version="1.2">
<defs>
<clipPath id="clip1">
  <path d="M 0.554688 9 L 102.605469 9 L 102.605469 145.359375 L 0.554688 145.359375 Z M 0.554688 9 "/>
</clipPath>
<clipPath id="clip2">
  <path d="M 0.554688 128 L 102.605469 128 L 102.605469 129 L 0.554688 129 Z M 0.554688 128 "/>
</clipPath>
<clipPath id="clip3">
  <path d="M 8 0 L 10 0 L 10 145.359375 L 8 145.359375 Z M 8 0 "/>
</clipPath>
<clipPath id="clip4">
  <path d="M 0.554688 37 L 100 37 L 100 145.359375 L 0.554688 145.359375 Z M 0.554688 37 "/>
</clipPath>
<clipPath id="clip5">
  <path d="M 77 62 L 102.605469 62 L 102.605469 145.359375 L 77 145.359375 Z M 77 62 "/>
</clipPath>
</defs>
<g id="surface1">
<g clip-path="url(#clip1)" clip-rule="nonzero">
<path style="fill:none;stroke-width:0.19925;stroke-linecap:butt;stroke-linejoin:miter;stroke:rgb(50%,50%,50%);stroke-opacity:1;stroke-miterlimit:10;" d="M -119.057094 -85.039625 L 119.056188 -85.039625 M -119.057094 -42.520094 L 119.056188 -42.520094 M -119.057094 -0.0005625 L 119.056188 -0.0005625 M -119.057094 42.518969 L 119.056188 42.518969 M -119.057094 85.0385 L 119.056188 85.0385 M -85.041469 -119.05525 L -85.041469 119.054125 M -42.521937 -119.05525 L -42.521937 119.054125 M 0.0015 -119.05525 L 0.0015 119.054125 M 42.521031 -119.05525 L 42.521031 119.054125 M 85.040563 -119.05525 L 85.040563 119.054125 " transform="matrix(1,0,0,-1,9.061,128.351)"/>
</g>
<g clip-path="url(#clip2)" clip-rule="nonzero">
<path style="fill:none;stroke-width:0.3985;stroke-linecap:butt;stroke-linejoin:miter;stroke:rgb(0%,0%,0%);stroke-opacity:1;stroke-miterlimit:10;" d="M -127.561 -0.0005625 L 127.161656 -0.0005625 " transform="matrix(1,0,0,-1,9.061,128.351)"/>
</g>
<g clip-path="url(#clip3)" clip-rule="nonzero">
<path style="fill:none;stroke-width:0.3985;stroke-linecap:butt;stroke-linejoin:miter;stroke:rgb(0%,0%,0%);stroke-opacity:1;stroke-miterlimit:10;" d="M 0.0015 -127.559156 L 0.0015 127.1635 " transform="matrix(1,0,0,-1,9.061,128.351)"/>
</g>
<path style="fill:none;stroke-width:0.3985;stroke-linecap:round;stroke-linejoin:round;stroke:rgb(0%,0%,0%);stroke-opacity:1;stroke-miterlimit:10;" d="M -2.07286 2.389125 C -1.693954 0.955531 -0.850204 0.27975 0.00135875 -0.0015 C -0.850204 -0.278844 -1.693954 -0.954625 -2.07286 -2.392125 " transform="matrix(0,-1,-1,0,9.061,0.98964)"/>
<g clip-path="url(#clip4)" clip-rule="nonzero">
<path style="fill:none;stroke-width:0.3985;stroke-linecap:butt;stroke-linejoin:miter;stroke:rgb(0%,0%,0%);stroke-opacity:1;stroke-miterlimit:10;" d="M 85.040563 -0.0005625 C 85.040563 46.968187 46.966344 85.0385 0.0015 85.0385 C -46.96725 85.0385 -85.041469 46.968187 -85.041469 -0.0005625 C -85.041469 -46.965406 -46.96725 -85.039625 0.0015 -85.039625 C 46.966344 -85.039625 85.040563 -46.965406 85.040563 -0.0005625 Z M 85.040563 -0.0005625 " transform="matrix(1,0,0,-1,9.061,128.351)"/>
</g>
<path style="fill-rule:nonzero;fill:rgb(79.998779%,100%,79.998779%);fill-opacity:1;stroke-width:0.3985;stroke-linecap:butt;stroke-linejoin:miter;stroke:rgb(0%,50%,0%);stroke-opacity:1;stroke-miterlimit:10;" d="M 0.0015 -0.0005625 L 25.513219 -0.0005625 C 25.513219 4.476 24.333531 8.878344 22.09525 12.75725 Z M 0.0015 -0.0005625 " transform="matrix(1,0,0,-1,9.061,128.351)"/>
<path style="fill:none;stroke-width:1.19553;stroke-linecap:butt;stroke-linejoin:miter;stroke:rgb(100%,0%,0%);stroke-opacity:1;stroke-miterlimit:10;" d="M 73.646031 42.518969 L 73.646031 -0.0005625 " transform="matrix(1,0,0,-1,9.061,128.351)"/>
<path style="fill:none;stroke-width:1.19553;stroke-linecap:butt;stroke-linejoin:miter;stroke:rgb(0%,0%,100%);stroke-opacity:1;stroke-miterlimit:10;" d="M 73.646031 -0.0005625 L 0.0015 -0.0005625 " transform="matrix(1,0,0,-1,9.061,128.351)"/>
<g clip-path="url(#clip5)" clip-rule="nonzero">
<path style="fill:none;stroke-width:1.19553;stroke-linecap:butt;stroke-linejoin:miter;stroke:rgb(100%,50%,0%);stroke-opacity:1;stroke-miterlimit:10;" d="M 85.040563 -0.0005625 L 85.036656 49.097094 " transform="matrix(1,0,0,-1,9.061,128.351)"/>
</g>
</g>
</svg>
