<svg xmlns="http://www.w3.org/2000/svg" xmlns:xlink="http://www.w3.org/1999/xlink" width="118.406" height="118.406"><defs><path id="b" d="M5.016-2.031c0-.89-.485-1.5-1.375-1.735.812-.437 1.078-1.078 1.078-1.64 0-1.61-1.422-1.735-2.078-1.735-1.36 0-2.032.985-2.032 1.063 0 .062.063.14.063.14l.281.407c.078.125.156.125.156.125.063 0 .094-.047.141-.11.5-.734 1.219-.734 1.344-.734.64 0 .719.328.719.813 0 .14 0 .625-.297 1-.25.28-.5.296-.797.328-.11 0-.297.015-.328.03-.063.032-.063.095-.063.25v.173c0 .265 0 .281.266.281h.437c.906 0 1.016.563 1.016 1.328 0 .672-.063 1.328-.969 1.328a2.48 2.48 0 0 1-1.734-.703C.75-1.5.75-1.516.704-1.516c-.095 0-.11.094-.126.11 0 0-.125.64-.125.687 0 .125.86.938 2.172.938 1.719 0 2.39-.922 2.39-2.25m0 0"/><path id="d" d="M4.922-.484v-.11c0-.156 0-.36-.203-.437-.078-.047-.39-.047-.594-.047l-.672.016H1.828l1.328-1.25c.14-.126.516-.438.672-.579.547-.53 1.094-1.062 1.094-1.953 0-1.218-.875-2.297-2.344-2.297-.344 0-.906.047-1.39.438-.094.078-.547.437-.735 1.094l.5.64c.063.078.094.125.156.125.094 0 .11-.078.141-.187.203-.688.547-1.11 1.188-1.11.765 0 1.093.704 1.093 1.313 0 .64-.375 1.312-.984 1.953L.64-.844c-.094.094-.094.11-.094.282v.078c0 .359.11.484.484.484h3.422c.375 0 .469-.125.469-.484m0 0"/><path id="e" d="M4.719-.36c0-.359-.375-.359-.485-.359h-.703v-5.937c0-.188 0-.485-.437-.485-.188 0-.235.016-.36.141-.171.156-.546.531-1.53.547-.188 0-.454.078-.454.36 0 .359.36.359.484.359.297 0 .657-.047.938-.125v5.14H1.39c-.125 0-.47 0-.47.36 0 .359.345.359.47.359h2.843c.11 0 .485 0 .485-.36m0 0"/><path id="f" d="M5.047-3.422c0-1.36 0-3.719-2.313-3.719C.422-7.14.422-4.812.422-3.42c0 1.374 0 3.64 2.312 3.64 2.313 0 2.313-2.25 2.313-3.64m-1.36-.14c0 .578 0 1.343-.062 1.89-.031.266-.14 1.172-.89 1.172-.735 0-.844-.922-.876-1.187-.078-.532-.078-1.47-.078-1.875 0-.579 0-1.22.063-1.72.031-.265.125-1.14.89-1.14.735 0 .86.844.891 1.031.063.516.063 1.297.063 1.829m0 0"/><path id="g" d="M5.016-3.547C5.016-4.609 5-7.14 2.734-7.14c-.609 0-1.265.11-1.78.75-.423.547-.5 1.047-.5 1.813 0 .625.03 1.203.452 1.766.407.515.86.671 1.5.671.735 0 1.078-.593 1.219-.906-.016.094 0 .281-.031.719-.063.61-.235 1.61-1.328 1.61-.313 0-.594-.079-.875-.329-.047-.062-.079-.078-.125-.078-.079 0-.094.047-.157.125-.187.328-.328.547-.328.61 0 .078.532.609 1.5.609 2.735 0 2.735-2.875 2.735-3.766m-1.407-.89c0 .14 0 1.578-.953 1.578-.797 0-.797-.72-.797-1.703 0-.97 0-1.688.907-1.688.687 0 .843.766.843 1.813m0 0"/><path id="h" d="M5.016-2.031c0-.906-.438-1.469-1.235-1.703C4.75-4.047 4.86-4.75 4.86-5.187c0-1.47-.937-1.954-2.125-1.954C1.656-7.14.61-6.75.61-5.187c0 .515.172 1.156 1.079 1.453C.656-3.437.452-2.656.452-2.031c0 1.562.844 2.25 2.281 2.25 1.5 0 2.282-.75 2.282-2.25M3.594-5.187c0 .578-.016 1.093-.86 1.093-.828 0-.843-.484-.843-1.093 0-.688.046-1.063.843-1.063.782 0 .86.36.86 1.063m.031 3.14c0 .75-.016 1.328-.89 1.328-.876 0-.891-.562-.891-1.328 0-.64 0-1.328.89-1.328.891 0 .891.672.891 1.328m0 0"/><path id="j" d="M5.016-6.422c0-.219 0-.484-.422-.5H1.14c-.485 0-.688 0-.688.469v.14c0 .157 0 .344.219.438.062.031.39.031.61.031l.687-.015h1.687C1.422-3.391 1.422-.875 1.422-.375c0 .328.078.484.484.484h.453c.157 0 .485 0 .485-.39.031-2.469.89-4.281 2.094-5.781.078-.094.078-.172.078-.36m0 0"/><path id="k" d="M5.016-2.36c0-.562 0-2.421-1.938-2.421-.562 0-.953.312-1.219.89.047-.89.047-1.109.204-1.515.296-.75.953-.844 1.296-.844.172 0 .438.031.672.156.078.047.11.078.157.078.125 0 .125-.125.125-.28v-.36c0-.235 0-.25-.36-.375-.25-.11-.531-.11-.625-.11C.453-7.14.453-4.266.453-3.39c0 1.032 0 3.61 2.328 3.61.766 0 1.25-.188 1.656-.64.516-.579.579-1.157.579-1.938m-1.391 0c0 .97 0 1.641-.86 1.641-.78 0-.89-.89-.89-1.75 0-.828.234-1.594.953-1.594.797 0 .797.72.797 1.704m0 0"/><path id="m" d="M4.922-2.203c0-1.313-.547-2.297-2.078-2.297a2 2 0 0 0-.719.14v-1.562h1.953c.469 0 .484-.234.484-.5 0-.25 0-.5-.484-.5H1.312c-.328 0-.484.063-.484.469v3.047c0 .453.235.453.5.453.25 0 .344 0 .484-.235.235-.39.579-.593 1-.593.641 0 .641.765.641 1.531 0 .781 0 1.531-1.047 1.531-.297 0-.984-.094-1.375-.875C1-1.656.97-1.719.891-1.719s-.094.047-.157.14c-.14.22-.359.579-.359.642 0 .078.64 1.156 2.063 1.156 1.609 0 2.484-.813 2.484-2.422m0 0"/><path id="o" d="M5.156-2c0-.36-.125-.469-.468-.469h-.422v-3.968c0-.36-.11-.485-.485-.485h-.719c-.187 0-.343 0-.453.234L.391-2.609c-.079.14-.079.172-.079.359V-2c0 .313.063.469.47.469h2.25v1.047c0 .328.062.484.484.484h.265c.39 0 .485-.125.485-.484v-1.047h.422c.312 0 .468-.063.468-.469m-2.062-.469h-1.75C2.938-5.39 3.03-5.703 3.078-5.875h.016Zm0 0"/><clipPath id="a"><path d="M0 0h118.11v118.11H0Zm0 0"/></clipPath><clipPath id="c"><path d="M89 16h29.11v32H89Zm0 0"/></clipPath><clipPath id="i"><path d="M16 89h32v29.11H16Zm0 0"/></clipPath><clipPath id="l"><path d="M70 89h32v29.11H70Zm0 0"/></clipPath><clipPath id="n"><path d="M89 70h29.11v32H89Zm0 0"/></clipPath></defs><path fill="#D2C92A" d="M115.602 58.906c0-31.308-25.383-56.691-56.696-56.691-31.308 0-56.691 25.383-56.691 56.691 0 31.313 25.383 56.696 56.691 56.696 31.313 0 56.696-25.383 56.696-56.696m0 0"/><g clip-path="url(#a)"><path fill="none" stroke="#000" stroke-linecap="round" stroke-miterlimit="10" stroke-width="2.989" d="M115.602 58.906c0-31.308-25.383-56.691-56.696-56.691-31.308 0-56.691 25.383-56.691 56.691 0 31.313 25.383 56.696 56.691 56.696 31.313 0 56.696-25.383 56.696-56.696Zm0 0"/></g><path fill="none" stroke="#000" stroke-linecap="round" stroke-miterlimit="10" stroke-width=".996" d="M109.934 58.906h5.668"/><use xlink:href="#b" x="95.853" y="62.365"/><g clip-path="url(#c)"><path fill="none" stroke="#000" stroke-linecap="round" stroke-miterlimit="10" stroke-width=".996" d="m103.098 33.395 4.91-2.833"/></g><use xlink:href="#d" x="90.537" y="42.632"/><path fill="none" stroke="#000" stroke-linecap="round" stroke-miterlimit="10" stroke-width=".996" d="m84.422 14.719 2.832-4.91"/><use xlink:href="#e" x="76.011" y="28.107"/><path fill="none" stroke="#000" stroke-linecap="round" stroke-miterlimit="10" stroke-width=".996" d="M58.906 7.883V2.215"/><use xlink:href="#e" x="53.429" y="22.79"/><use xlink:href="#d" x="58.908" y="22.79"/><path fill="none" stroke="#000" stroke-linecap="round" stroke-miterlimit="10" stroke-width=".996" d="m33.395 14.719-2.833-4.91"/><use xlink:href="#e" x="33.586" y="28.107"/><use xlink:href="#e" x="39.065" y="28.107"/><path fill="none" stroke="#000" stroke-linecap="round" stroke-miterlimit="10" stroke-width=".996" d="m14.719 33.395-4.91-2.833"/><use xlink:href="#e" x="19.061" y="42.523"/><use xlink:href="#f" x="24.54" y="42.523"/><path fill="none" stroke="#000" stroke-linecap="round" stroke-miterlimit="10" stroke-width=".996" d="M7.883 58.906H2.215"/><use xlink:href="#g" x="16.484" y="62.365"/><path fill="none" stroke="#000" stroke-linecap="round" stroke-miterlimit="10" stroke-width=".996" d="m14.719 84.422-4.91 2.832"/><use xlink:href="#h" x="21.8" y="82.208"/><g clip-path="url(#i)"><path fill="none" stroke="#000" stroke-linecap="round" stroke-miterlimit="10" stroke-width=".996" d="m33.395 103.098-2.833 4.91"/></g><use xlink:href="#j" x="36.326" y="96.684"/><path fill="none" stroke="#000" stroke-linecap="round" stroke-miterlimit="10" stroke-width=".996" d="M58.906 109.934v5.668"/><use xlink:href="#k" x="56.169" y="102.05"/><g clip-path="url(#l)"><path fill="none" stroke="#000" stroke-linecap="round" stroke-miterlimit="10" stroke-width=".996" d="m84.422 103.098 2.832 4.91"/></g><use xlink:href="#m" x="76.011" y="96.624"/><g clip-path="url(#n)"><path fill="none" stroke="#000" stroke-linecap="round" stroke-miterlimit="10" stroke-width=".996" d="m103.098 84.422 4.91 2.832"/></g><use xlink:href="#o" x="90.537" y="82.208"/><path fill="none" stroke="#000" stroke-linecap="round" stroke-miterlimit="10" stroke-width="1.993" d="M104.262 58.906h11.34M58.906 13.555V2.215M13.555 58.906H2.215M58.906 104.262v11.34"/><path fill="none" stroke="#000" stroke-linecap="round" stroke-miterlimit="10" stroke-width="2.989" d="M58.906 58.906 47.57 39.27M58.906 58.906V30.563"/></svg>