<svg xmlns="http://www.w3.org/2000/svg" xmlns:xlink="http://www.w3.org/1999/xlink" width="99.803" height="74.648"><defs><path id="b" d="M4.5-4.297c0-.047-.031-.094-.094-.094-.11 0-.515.391-.672.688-.218-.547-.609-.703-.937-.703-1.172 0-2.39 1.468-2.39 2.922C.406-.516.983.109 1.718.109c.422 0 .812-.234 1.172-.593-.094.343-.422 1.687-.453 1.78-.079.282-.157.313-.72.329-.124 0-.218 0-.218.203 0 0 0 .11.125.11.313 0 .672-.032 1-.032s.688.032 1.031.032c.047 0 .172 0 .172-.204 0-.109-.094-.109-.265-.109-.47 0-.47-.062-.47-.156 0-.078.016-.14.032-.219ZM1.75-.109c-.61 0-.64-.766-.64-.938 0-.484.28-1.562.452-1.984.313-.735.829-1.156 1.235-1.156.656 0 .797.812.797.875s-.547 2.25-.578 2.28c-.157.282-.72.923-1.266.923m0 0"/><path id="c" d="M3.594-2.219c0-.765-.094-1.328-.406-1.812-.22-.313-.657-.594-1.204-.594C.36-4.625.36-2.719.36-2.219s0 2.36 1.625 2.36c1.61 0 1.61-1.86 1.61-2.36M1.984-.062c-.328 0-.75-.188-.89-.75C1-1.22 1-1.797 1-2.312c0-.516 0-1.047.094-1.422.156-.547.593-.703.89-.703.375 0 .735.234.86.64.11.375.125.875.125 1.485 0 .515 0 1.03-.094 1.468-.14.64-.61.782-.89.782m0 0"/><path id="e" d="M2.328-4.437c0-.188 0-.188-.203-.188-.453.438-1.078.438-1.36.438v.25c.157 0 .626 0 1-.188v3.547c0 .234 0 .328-.687.328H.812V0c.125 0 .985-.031 1.235-.031.219 0 1.094.031 1.25.031v-.25H3.03c-.703 0-.703-.094-.703-.328Zm0 0"/><path id="f" d="M4.578-3.187c0-.797-.047-1.594-.39-2.329C3.734-6.484 2.906-6.64 2.5-6.64c-.61 0-1.328.266-1.75 1.188-.312.687-.36 1.469-.36 2.266 0 .75.032 1.64.454 2.406a1.83 1.83 0 0 0 1.64 1c.532 0 1.297-.203 1.735-1.156.312-.688.36-1.47.36-2.25M2.484 0c-.39 0-.984-.25-1.156-1.203-.11-.594-.11-1.516-.11-2.11 0-.64 0-1.296.079-1.828.187-1.187.937-1.28 1.187-1.28.329 0 .985.187 1.172 1.171.11.563.11 1.313.11 1.938 0 .75 0 1.421-.11 2.062C3.5-.297 2.937 0 2.484 0m0 0"/><clipPath id="a"><path d="M0 39h32v35.473H0Zm0 0"/></clipPath><clipPath id="d"><path d="M48 36h44v38.473H48Zm0 0"/></clipPath></defs><path fill="none" stroke="#7F7F7F" stroke-miterlimit="10" stroke-width=".199" d="M13.563 57.617h85.042M13.563 29.27h85.042M13.563.934h85.042M13.563 57.617V.922M41.91 57.617V.922m28.348 56.695V.922m28.336 56.695V.922"/><g clip-path="url(#a)"><path fill="none" stroke="#000" stroke-miterlimit="10" stroke-width=".399" d="M26.016 57.617c0-6.879-5.575-12.453-12.453-12.453-6.876 0-12.454 5.574-12.454 12.453 0 6.88 5.578 12.453 12.454 12.453 6.878 0 12.453-5.574 12.453-12.453Zm0 0"/></g><use xlink:href="#b" x="9.104" y="58.793"/><use xlink:href="#c" x="13.553" y="60.287"/><g clip-path="url(#d)"><path fill="none" stroke="#000" stroke-miterlimit="10" stroke-width=".399" d="M85.902 57.617c0-8.64-7.004-15.644-15.644-15.644s-15.645 7.004-15.645 15.644 7.004 15.645 15.645 15.645 15.644-7.004 15.644-15.645Zm0 0"/></g><path fill="none" stroke="#000" stroke-miterlimit="10" stroke-width=".399" d="M54.813 57.617h30.89"/><use xlink:href="#b" x="65.797" y="52.16"/><use xlink:href="#e" x="70.245" y="53.654"/><use xlink:href="#f" x="65.275" y="67.557"/><use xlink:href="#f" x="70.256" y="67.557"/></svg>