<svg xmlns="http://www.w3.org/2000/svg" width="76.725" height="20.036"><defs><clipPath id="a"><path d="M0 0h33v19.555H0Zm0 0"/></clipPath><clipPath id="b"><path d="M15 0h46v19.555H15Zm0 0"/></clipPath><clipPath id="c"><path d="M43 0h33.586v19.555H43Zm0 0"/></clipPath></defs><path fill="red" d="M18.387 9.54c0-4.7-3.809-8.505-8.504-8.505A8.503 8.503 0 0 0 1.379 9.54a8.506 8.506 0 0 0 8.504 8.504 8.506 8.506 0 0 0 8.504-8.504m0 0"/><g clip-path="url(#a)"><path fill="none" stroke="red" stroke-miterlimit="10" stroke-width=".996" d="M18.387 9.54c0-4.7-3.809-8.505-8.504-8.505A8.503 8.503 0 0 0 1.379 9.54a8.506 8.506 0 0 0 8.504 8.504 8.506 8.506 0 0 0 8.504-8.504Zm0 0"/></g><path fill="red" d="M46.734 9.54c0-4.7-3.808-8.505-8.504-8.505a8.5 8.5 0 0 0-8.503 8.504 8.503 8.503 0 0 0 8.503 8.504 8.506 8.506 0 0 0 8.504-8.504m0 0"/><g clip-path="url(#b)"><path fill="none" stroke="#000" stroke-miterlimit="10" stroke-width=".996" d="M46.734 9.54c0-4.7-3.808-8.505-8.504-8.505a8.5 8.5 0 0 0-8.503 8.504 8.503 8.503 0 0 0 8.503 8.504 8.506 8.506 0 0 0 8.504-8.504Zm0 0"/></g><path fill="red" d="M75.082 9.54c0-4.7-3.809-8.505-8.508-8.505A8.503 8.503 0 0 0 58.07 9.54a8.506 8.506 0 0 0 8.504 8.504c4.7 0 8.508-3.809 8.508-8.504m0 0"/><g clip-path="url(#c)"><path fill="none" stroke="red" stroke-miterlimit="10" stroke-width=".996" d="M75.082 9.54c0-4.7-3.809-8.505-8.508-8.505A8.503 8.503 0 0 0 58.07 9.54a8.506 8.506 0 0 0 8.504 8.504c4.7 0 8.508-3.809 8.508-8.504Zm0 0"/></g></svg>