<svg xmlns="http://www.w3.org/2000/svg" width="48.93" height="12.08"><defs><clipPath id="a"><path d="M0 0h48.895v11.621H0Zm0 0"/></clipPath><clipPath id="b"><path d="M0 0h11v11.621H0Zm0 0"/></clipPath><clipPath id="c"><path d="M23 0h17v11.621H23Zm0 0"/></clipPath><clipPath id="d"><path d="M38 0h10.895v11H38Zm0 0"/></clipPath></defs><g clip-path="url(#a)"><path fill="none" stroke="#BFBFBF" stroke-miterlimit="10" stroke-width=".399" d="m3.176 8.41 14.172-5.668L31.52 8.41l14.175-5.668"/></g><path fill="#FFF" d="M1.18 8.41a1.994 1.994 0 0 0 3.988 0"/><g clip-path="url(#b)"><path fill="none" stroke="#000" stroke-miterlimit="10" stroke-width=".399" d="M1.18 8.41h3.988m0 0a1.994 1.994 0 0 0-3.988 0 1.994 1.994 0 0 0 3.988 0Zm0 0"/></g><path fill="#FFF" d="M15.355 2.742a1.99 1.99 0 0 0 1.993 1.992 1.99 1.99 0 0 0 1.992-1.992"/><path fill="none" stroke="#000" stroke-miterlimit="10" stroke-width=".399" d="M15.355 2.742h3.985m0 0A1.99 1.99 0 0 0 17.348.75a1.99 1.99 0 0 0-1.993 1.992 1.99 1.99 0 0 0 1.993 1.992 1.99 1.99 0 0 0 1.992-1.992Zm0 0"/><path fill="#FFF" d="M29.527 8.41a1.993 1.993 0 0 0 3.985 0"/><g clip-path="url(#c)"><path fill="none" stroke="#000" stroke-miterlimit="10" stroke-width=".399" d="M29.527 8.41h3.985m0 0a1.993 1.993 0 1 0-3.983.002 1.993 1.993 0 0 0 3.983-.002Zm0 0"/></g><path fill="#FFF" d="M43.703 2.742a1.993 1.993 0 0 0 3.984 0"/><g clip-path="url(#d)"><path fill="none" stroke="#000" stroke-miterlimit="10" stroke-width=".399" d="M43.703 2.742h3.984m0 0a1.993 1.993 0 1 0-3.986.002 1.993 1.993 0 0 0 3.986-.002Zm0 0"/></g></svg>