<svg xmlns="http://www.w3.org/2000/svg" xmlns:xlink="http://www.w3.org/1999/xlink" width="351.758" height="240.248"><defs><path id="b" d="M8.14-3.36c0-2.187-1.484-3.484-3.468-3.484H.39v.469h1.078v5.906H.39V0h4.297C6.656 0 8.14-1.219 8.14-3.36m-1.468-.015c0 1.094-.11 1.625-.438 2.063-.468.687-1.343.843-1.953.843H2.828v-5.906h1.453c.657 0 1.485.188 1.969.89.344.516.422 1.188.422 2.11m0 0"/><path id="c" d="M5.406-2.172c0-1.344-.922-2.344-2.547-2.344C1.22-4.516.313-3.5.313-2.172c0 1.235.89 2.235 2.546 2.235 1.672 0 2.547-1.016 2.547-2.235m-1.281-.11c0 .86 0 1.938-1.266 1.938-1.265 0-1.265-1.078-1.265-1.937 0-.453 0-.953.172-1.297.187-.375.609-.578 1.093-.578.422 0 .844.156 1.063.5.203.344.203.89.203 1.375m0 0"/><path id="d" d="M6.125 0v-.469c-.61 0-.687 0-.687-.39v-3.625l-1.813.078v.468c.61 0 .688 0 .688.391v1.906c0 .813-.516 1.344-1.235 1.344-.781 0-.812-.25-.812-.797v-3.39l-1.813.078v.468c.61 0 .688 0 .688.391v2.328c0 1.063.797 1.282 1.797 1.282.25 0 .968 0 1.421-.782v.782Zm0 0"/><path id="e" d="M5.984-2.219c0-1.328-.937-2.265-2.39-2.265-.719 0-1.219.28-1.453.484v-2.922l-1.766.078v.469c.61 0 .688 0 .688.39V0h.468c.157-.187.328-.375.485-.562.078.078.562.625 1.453.625 1.484 0 2.515-.907 2.515-2.282m-1.28 0c0 .469 0 1.016-.25 1.406-.298.407-.75.516-1.079.516-.687 0-1.078-.547-1.187-.687v-2.5c.28-.36.75-.641 1.296-.641 1.22 0 1.22 1.203 1.22 1.906m0 0"/><path id="f" d="M2.922 0v-.469h-.688v-6.453L.47-6.844v.469c.625 0 .687 0 .687.39v5.516H.47V0l1.219-.031Zm0 0"/><path id="g" d="M4.922-1.172c0-.172-.188-.172-.234-.172-.172 0-.188.047-.25.203-.204.485-.782.797-1.422.797-1.407 0-1.422-1.328-1.422-1.828h3.015c.22 0 .313 0 .313-.265 0-.313-.063-1.047-.563-1.547-.359-.36-.89-.532-1.578-.532C1.187-4.516.313-3.484.313-2.25c0 1.344 1 2.313 2.609 2.313 1.578 0 2-1.063 2-1.235M3.984-2.5h-2.39c.015-.39.031-.812.234-1.14.266-.391.672-.516.953-.516 1.172 0 1.188 1.312 1.203 1.656m0 0"/><path id="h" d="M8.25 0v-.469h-.969L4.72-6.703c-.11-.25-.219-.25-.39-.25-.282 0-.329.078-.391.25l-2.47 6c-.062.156-.093.234-.843.234H.406V0l1.172-.031c.39 0 .938 0 1.313.031v-.469S2-.469 2-.594l.047-.125.5-1.203h2.672l.593 1.453H4.86V0c.391-.031 1.329-.031 1.766-.031.39 0 1.266 0 1.625.031M5.016-2.39H2.734l1.141-2.766Zm0 0"/><path id="i" d="M4.406-3.672c0-.531-.531-.812-1.062-.812-.688 0-1.094.5-1.313 1.125v-1.125l-1.656.078v.468c.61 0 .688 0 .688.391v3.078H.375V0l1.25-.031C2-.031 2.641-.031 3 0v-.469h-.86v-1.75c0-.687.235-1.906 1.235-1.906 0 0-.187.172-.187.453 0 .406.328.61.609.61.297 0 .61-.204.61-.61m0 0"/><path id="j" d="M8.031-3.953v-.469a13 13 0 0 1-.781.031l-.953-.03v.468c.094 0 .578 0 .578.11 0 .03-.031.093-.031.124L5.797-1.172l-1.14-2.781h.562v-.469l-1.14.031c-.423 0-.845-.03-1-.03v.468h.593c.203.5.203.531.203.531 0 .031-.031.094-.031.125L3.047-1.39 2-3.953h.563v-.469l-1.235.031L.25-4.42v.468h.594L2.359-.234c.079.172.11.28.36.28s.297-.108.36-.28L4.14-2.812 5.188-.235c.078.172.109.28.359.28s.297-.108.36-.28L7.343-3.75c.047-.125.093-.203.687-.203m0 0"/><path id="k" d="M3.078.313c0-.125-.047-.157-.187-.25C2.063-.5 1.75-1.391 1.75-2.125c0-.672.25-1.594 1.156-2.203.125-.094.172-.125.172-.25a.254.254 0 0 0-.265-.25c-.204 0-1.641.906-1.641 2.703 0 .813.312 1.438.562 1.781.375.516.907.907 1.079.907.218 0 .265-.172.265-.25m0 0"/><path id="l" d="M3.219-.906c0-.735-.906-.906-1.14-.938l-.704-.125C1.188-2 1-2.079 1-2.25c0-.156.219-.328.813-.328.515 0 .609.172.625.328.015.14.03.281.28.281.298 0 .298-.156.298-.328v-.469c0-.14-.016-.328-.25-.328-.157 0-.22.063-.25.125-.282-.125-.563-.125-.688-.125-1.187 0-1.344.594-1.344.844 0 .656.735.797 1.391.89.297.063.828.141.828.454 0 .234-.25.422-.828.422-.297 0-.656-.063-.812-.563C1.03-1.203.984-1.28.78-1.28c-.297 0-.297.172-.297.328v.656c0 .14 0 .344.25.344.079 0 .188 0 .282-.234.328.218.672.234.859.234 1.125 0 1.344-.61 1.344-.953m0 0"/><path id="m" d="M2.313-.469a.477.477 0 0 0-.485-.484.47.47 0 0 0-.469.469c0 .28.22.484.47.484a.473.473 0 0 0 .484-.469m0 0"/><path id="n" d="M3.14-.906c0-.156 0-.313-.296-.313-.266 0-.266.157-.266.297-.015.375-.36.438-.515.438-.454 0-.454-.313-.454-.47v-1.562h1.047c.125 0 .328 0 .328-.265 0-.25-.187-.25-.328-.25H1.61v-.516c0-.14-.015-.328-.296-.328-.282 0-.282.172-.282.328v.516H.484c-.125 0-.328 0-.328.25 0 .265.203.265.328.265h.547v1.61c0 .687.485.953 1.016.953S3.14-.266 3.14-.906m0 0"/><path id="o" d="M3.25-.797c0-.234-.234-.234-.281-.234-.156 0-.219.015-.281.172-.141.328-.485.375-.657.375-.469 0-.937-.297-1.062-.813h1.953c.172 0 .328 0 .328-.312 0-.797-.453-1.485-1.375-1.485-.828 0-1.516.703-1.516 1.563S1.08.047 1.984.047c.938 0 1.266-.656 1.266-.844m-.594-1.015H.97c.125-.438.484-.766.906-.766.328 0 .703.156.781.765m0 0"/><path id="p" d="M3.469-.266c0-.25-.203-.25-.328-.25h-.25l-.828-1.046.734-.954h.234c.125 0 .344 0 .344-.265 0-.25-.219-.25-.344-.25H2.25c-.125 0-.328 0-.328.25 0 .203.11.265.281.265l-.39.547-.422-.547c.156 0 .28-.062.28-.265 0-.25-.202-.25-.327-.25H.547c-.125 0-.328 0-.328.25 0 .265.219.265.328.265h.25l.75.954L.75-.516H.516c-.125 0-.344 0-.344.25C.172 0 .39 0 .516 0h.78c.126 0 .329 0 .329-.266 0-.203-.11-.25-.297-.25l.484-.703.5.703c-.187 0-.296.047-.296.25 0 .266.203.266.328.266h.797c.109 0 .328 0 .328-.266m0 0"/><path id="q" d="M2.484-2.125c0-.828-.312-1.453-.562-1.797-.375-.515-.906-.906-1.078-.906-.203 0-.266.187-.266.25 0 .125.094.187.14.219 1.095.718 1.188 1.797 1.188 2.234 0 .656-.25 1.578-1.14 2.188C.64.14.578.188.578.313c0 .078.063.25.266.25s1.64-.907 1.64-2.688m0 0"/><path id="r" d="M3.266-.797c0-.234-.235-.234-.297-.234-.125 0-.203 0-.266.172-.047.078-.187.375-.625.375a1.027 1.027 0 0 1-1.015-1.032c0-.312.187-1.062 1.062-1.062l.344.015c.015.282.172.376.36.376.187 0 .358-.126.358-.36 0-.531-.734-.547-1.062-.547-1.219 0-1.64.953-1.64 1.578 0 .844.671 1.563 1.546 1.563 1 0 1.235-.719 1.235-.844m0 0"/><path id="s" d="M3.578-.266c0-.25-.203-.25-.328-.25H3v-1.53c0-.72-.36-1.032-.937-1.032-.391 0-.672.172-.844.297 0-.172-.047-.25-.313-.25h-.5c-.14 0-.328 0-.328.25 0 .265.203.265.313.265h.25v2H.406c-.14 0-.328 0-.328.25C.078 0 .281 0 .391 0h1.093c.11 0 .329 0 .329-.266 0-.25-.204-.25-.344-.25h-.25v-1.156c0-.64.484-.875.797-.875.328 0 .406.172.406.547v1.484h-.203c-.14 0-.344 0-.344.25 0 .266.219.266.344.266H3.25c.11 0 .328 0 .328-.266m0 0"/><path id="t" d="M3.406-2.594c0-.156-.078-.484-.703-.484-.328 0-.734.11-1.094.469v-.094c0-.25-.046-.328-.328-.328h-.75c-.125 0-.328 0-.328.25 0 .265.203.265.328.265h.5v2h-.5c-.125 0-.328 0-.328.25C.203 0 .406 0 .531 0h1.781c.126 0 .329 0 .329-.266 0-.25-.203-.25-.328-.25h-.704v-.796c0-.61.36-1.22 1.11-1.235 0 .156.172.281.344.281.187 0 .343-.125.343-.328m0 0"/><path id="u" d="M3.297-.328v-.188c0-.156 0-.328-.266-.328-.265 0-.297.125-.297.328H1.313c.406-.343.968-.796 1.234-1.03.437-.391.75-.845.75-1.407 0-.844-.703-1.375-1.563-1.375-.828 0-1.39.578-1.39 1.187 0 .297.234.375.36.375.171 0 .359-.14.359-.359a.35.35 0 0 0-.094-.234c.11-.266.39-.453.734-.453.531 0 1.031.296 1.031.859 0 .453-.328.844-.765 1.203L.469-.484C.39-.422.344-.391.344-.266.344 0 .547 0 .672 0h2.312c.266 0 .313-.062.313-.328m0 0"/><path id="v" d="M3.313-2.125c0-1.297-.72-2.203-1.485-2.203-.781 0-1.5.922-1.5 2.203 0 1.297.734 2.203 1.5 2.203.781 0 1.485-.922 1.485-2.203m-.563-.078c0 .969-.422 1.75-.922 1.75-.516 0-.922-.781-.922-1.75 0-.953.438-1.61.922-1.61.469 0 .922.657.922 1.61m0 0"/><path id="w" d="M3.64-.266c0-.218-.14-.25-.39-.25v-1.593c0-.157-.016-.97-.656-.97a.84.84 0 0 0-.656.313.61.61 0 0 0-.532-.312.88.88 0 0 0-.547.203c-.046-.156-.187-.156-.312-.156H.328c-.125 0-.328 0-.328.25 0 .234.125.265.39.265v2c-.265 0-.39.032-.39.25C0 0 .219 0 .328 0h.594c.125 0 .312 0 .312-.266 0-.218-.109-.25-.359-.25v-1.171c0-.563.234-.86.5-.86.14 0 .203.11.203.5v1.531c-.156 0-.281.032-.281.25 0 .266.187.266.312.266h.516c.125 0 .313 0 .313-.266 0-.218-.126-.25-.376-.25v-1.171c0-.563.25-.86.5-.86.141 0 .204.11.204.5v1.531c-.141 0-.282.032-.282.25 0 .266.204.266.313.266h.5c.125 0 .344 0 .344-.266m0 0"/><path id="x" d="M3.188-.266c0-.25-.204-.25-.329-.25h-.656v-2.187c0-.25-.047-.328-.328-.328H.906c-.125 0-.328 0-.328.25 0 .265.203.265.328.265h.719v2H.859c-.14 0-.343 0-.343.25C.516 0 .734 0 .859 0h2c.125 0 .329 0 .329-.266m-.954-3.562a.39.39 0 0 0-.406-.39.387.387 0 0 0-.39.39c0 .219.171.39.39.39a.39.39 0 0 0 .406-.39m0 0"/><path id="y" d="M3.578-.266c0-.25-.203-.25-.328-.25H3v-3.406c0-.25-.047-.344-.328-.344h-.485c-.14 0-.343.016-.343.266s.218.266.328.266h.25v.906a1.26 1.26 0 0 0-.735-.25c-.765 0-1.453.672-1.453 1.562C.234-.64.875.047 1.625.047c.344 0 .61-.14.797-.313.015.188.062.266.328.266h.5c.125 0 .328 0 .328-.266M2.422-1.375c0 .36-.297.89-.781.89-.453 0-.828-.452-.828-1.03 0-.61.437-1.032.89-1.032.406 0 .719.344.719.688Zm0 0"/><path id="z" d="M3.547-2.781c0-.25-.188-.25-.328-.25h-.781c-.157 0-.344 0-.344.25 0 .265.172.265.344.265h.265l-.297 1.72-.14-.532c-.125-.469-.172-.547-.422-.547-.094 0-.235 0-.328.188l-.266.906-.297-1.735h.266c.156 0 .343 0 .343-.265 0-.25-.187-.25-.343-.25H.437c-.14 0-.343 0-.343.25 0 .234.14.265.36.265L.858-.28c.032.187.047.312.36.312.312 0 .343-.062.453-.515l.172-.641.265 1c.094.14.235.156.344.156.281 0 .313-.125.344-.312l.406-2.235c.219 0 .344-.03.344-.265m0 0"/><path id="A" d="M3.625-.266c0-.25-.203-.25-.328-.25-.203 0-.297-.03-.344-.046V-2c0-.5-.375-1.094-1.406-1.094-.313 0-1.031.016-1.031.547 0 .235.172.36.359.36.11 0 .344-.063.344-.36 0 0 .234-.031.343-.031.454 0 .782.187.813.594-1.219.03-2.047.39-2.047 1.062 0 .485.453.969 1.188.969.234 0 .656-.047.968-.25.172.187.485.203.75.203.235 0 .391-.016.391-.266M2.359-.969c0 .14 0 .266-.234.375-.234.11-.516.11-.578.11-.39 0-.64-.203-.64-.438 0-.312.546-.515 1.452-.562Zm0 0"/><path id="B" d="M3.422-1.516c0-.875-.64-1.562-1.39-1.562-.298 0-.579.11-.813.265v-1.109c0-.25-.047-.344-.313-.344h-.5c-.14 0-.343.016-.343.266s.218.266.328.266h.25v3.406C.64-.172.656 0 .938 0c.218 0 .28-.094.28-.234.266.218.532.28.735.28.766 0 1.469-.671 1.469-1.562m-.578 0c0 .61-.453 1.032-.906 1.032-.485 0-.704-.563-.704-.875v-.485c0-.375.375-.703.766-.703.469 0 .844.469.844 1.031m0 0"/><path id="C" d="M3.063-3.844c0-.437-.579-.453-.704-.453-.578 0-1.125.328-1.125.953v.313H.61c-.125 0-.328 0-.328.25 0 .265.203.265.328.265h.625v2H.61c-.125 0-.343 0-.343.25C.266 0 .484 0 .609 0h1.844c.125 0 .328 0 .328-.266 0-.25-.203-.25-.328-.25h-.64v-2h.78c.11 0 .313 0 .313-.265 0-.25-.187-.25-.312-.25h-.781v-.266c0-.453.359-.484.562-.484.031.11.125.297.344.297a.35.35 0 0 0 .344-.36m0 0"/><path id="D" d="M3.281-1.516c0-.89-.672-1.578-1.453-1.578-.797 0-1.453.688-1.453 1.578S1.047.047 1.828.047c.766 0 1.453-.688 1.453-1.563m-.578-.046c0 .593-.406 1.078-.875 1.078S.953-.97.953-1.562s.422-1.016.875-1.016.875.422.875 1.015m0 0"/><path id="E" d="M3.578-.266c0-.25-.203-.25-.328-.25H3v-1.53c0-.72-.36-1.032-.937-1.032-.391 0-.672.172-.844.297v-1.14c0-.25-.047-.345-.313-.345h-.5c-.14 0-.328.016-.328.266s.203.266.313.266h.25v3.218H.406c-.14 0-.328 0-.328.25C.078 0 .281 0 .391 0h1.093c.11 0 .329 0 .329-.266 0-.25-.204-.25-.344-.25h-.25v-1.156c0-.64.484-.875.797-.875.328 0 .406.172.406.547v1.484h-.203c-.14 0-.344 0-.344.25 0 .266.219.266.344.266H3.25c.11 0 .328 0 .328-.266m0 0"/><path id="F" d="M3.094-.266c0-.25-.188-.25-.313-.25H2.22V-4c0-.125-.016-.328-.266-.328-.156 0-.219.094-.25.187-.234.547-.578.625-.687.641-.141 0-.313.031-.313.266 0 .203.156.25.281.25s.375-.032.657-.235v2.703h-.563c-.14 0-.328 0-.328.25C.75 0 .953 0 1.078 0h1.703c.125 0 .313 0 .313-.266m0 0"/><path id="G" d="M3.422-1.516c0-.875-.64-1.562-1.39-1.562-.298 0-.579.11-.813.281 0-.172-.063-.234-.313-.234h-.5c-.14 0-.343 0-.343.25 0 .265.218.265.328.265h.25v3.5H.406c-.14 0-.343 0-.343.266 0 .25.218.25.328.25h1.093c.11 0 .329 0 .329-.25 0-.266-.204-.266-.344-.266h-.25V-.234c.265.234.531.28.734.28.766 0 1.469-.671 1.469-1.562m-.578 0c0 .61-.453 1.032-.906 1.032-.485 0-.704-.563-.704-.875v-.485c0-.375.375-.703.766-.703.469 0 .844.469.844 1.031m0 0"/><path id="H" d="M3.578-.266c0-.25-.219-.25-.328-.25H3v-2.187c0-.25-.047-.328-.328-.328h-.485c-.14 0-.343 0-.343.25 0 .265.218.265.328.265h.25v1.391c0 .563-.516.64-.719.64-.469 0-.484-.187-.484-.39v-1.828c0-.25-.047-.328-.313-.328h-.5c-.14 0-.328 0-.328.25 0 .265.203.265.313.265h.25v1.688c0 .687.5.875 1.03.875.266 0 .517-.063.767-.219C2.484 0 2.625 0 2.75 0h.5c.125 0 .328 0 .328-.266m0 0"/><clipPath id="a"><path d="M0 0h351.637v239.871H0Zm0 0"/></clipPath></defs><path fill="#FFFBB3" d="m325.313 119.75-92.16-92.156v42.52H118.354v-42.52l-92.16 92.156 92.16 92.156v-42.52h114.797v42.52Zm0 0"/><g clip-path="url(#a)"><path fill="none" stroke="#B2B2B2" stroke-miterlimit="10" stroke-width="14.173" d="m325.313 119.75-92.16-92.156v42.52H118.354v-42.52l-92.16 92.156 92.16 92.156v-42.52h114.797v42.52Zm0 0"/></g><g fill="#B2B2B2"><use xlink:href="#b" x="139.616" y="148.066"/><use xlink:href="#c" x="148.403" y="148.066"/><use xlink:href="#d" x="154.132" y="148.066"/><use xlink:href="#e" x="160.498" y="148.066"/><use xlink:href="#f" x="166.864" y="148.066"/><use xlink:href="#g" x="170.042" y="148.066"/></g><g fill="#B2B2B2"><use xlink:href="#h" x="179.108" y="148.066"/><use xlink:href="#i" x="187.765" y="148.066"/><use xlink:href="#i" x="192.488" y="148.066"/><use xlink:href="#c" x="197.21" y="148.066"/></g><use xlink:href="#j" x="202.62" y="148.066" fill="#B2B2B2"/><path fill="none" stroke="#B2B2B2" stroke-miterlimit="10" stroke-width=".996" d="M211.395 148.125V91.371"/><path fill="none" stroke="#000" stroke-miterlimit="10" stroke-width=".399" d="m138.207 149.477 2.816-2.82m-2.816 0 2.816 2.82"/><use xlink:href="#k" x="124.971" y="143.988"/><use xlink:href="#l" x="128.632" y="143.988"/><use xlink:href="#m" x="132.294" y="143.988"/><use xlink:href="#n" x="135.955" y="143.988"/><use xlink:href="#o" x="139.616" y="143.988"/><use xlink:href="#p" x="143.277" y="143.988"/><use xlink:href="#n" x="146.939" y="143.988"/><use xlink:href="#q" x="150.6" y="143.988"/><path fill="none" stroke="#000" stroke-miterlimit="10" stroke-width=".399" d="m174.348 121.156 2.816-2.816m-2.816 0 2.816 2.816"/><use xlink:href="#k" x="157.449" y="115.672"/><use xlink:href="#l" x="161.11" y="115.672"/><use xlink:href="#m" x="164.772" y="115.672"/><use xlink:href="#r" x="168.433" y="115.672"/><use xlink:href="#o" x="172.094" y="115.672"/><use xlink:href="#s" x="175.755" y="115.672"/><use xlink:href="#n" x="179.417" y="115.672"/><use xlink:href="#o" x="183.078" y="115.672"/><use xlink:href="#t" x="186.739" y="115.672"/><use xlink:href="#q" x="190.4" y="115.672"/><path fill="none" stroke="#000" stroke-miterlimit="10" stroke-width=".399" d="m291.352 78.57 2.82-2.82m-2.82 0 2.82 2.82"/><use xlink:href="#k" x="281.777" y="73.084"/><use xlink:href="#l" x="285.438" y="73.084"/><use xlink:href="#m" x="289.1" y="73.084"/><use xlink:href="#u" x="292.761" y="73.084"/><use xlink:href="#v" x="296.422" y="73.084"/><use xlink:href="#q" x="300.083" y="73.084"/><path fill="none" stroke="#000" stroke-miterlimit="10" stroke-width=".399" d="m40.86 147.262 2.816-2.817m-2.817 0 2.817 2.817"/><use xlink:href="#k" x="45.79" y="141.776"/><use xlink:href="#l" x="49.451" y="141.776"/><use xlink:href="#m" x="53.113" y="141.776"/><use xlink:href="#w" x="56.774" y="141.776"/><use xlink:href="#x" x="60.435" y="141.776"/><use xlink:href="#y" x="64.096" y="141.776"/><use xlink:href="#z" x="71.419" y="141.776"/><use xlink:href="#o" x="75.08" y="141.776"/><use xlink:href="#l" x="78.741" y="141.776"/><use xlink:href="#n" x="82.403" y="141.776"/><use xlink:href="#q" x="86.064" y="141.776"/><path fill="none" stroke="#000" stroke-miterlimit="10" stroke-width=".399" d="m174.348 147.262 2.816-2.817m-2.816 0 2.816 2.817"/><use xlink:href="#k" x="162.941" y="141.777"/><use xlink:href="#l" x="166.602" y="141.777"/><use xlink:href="#m" x="170.264" y="141.777"/><use xlink:href="#w" x="173.925" y="141.777"/><use xlink:href="#x" x="177.586" y="141.777"/><use xlink:href="#y" x="181.247" y="141.777"/><use xlink:href="#q" x="184.909" y="141.777"/><path fill="none" stroke="#000" stroke-miterlimit="10" stroke-width=".399" d="m307.84 147.262 2.816-2.817m-2.816 0 2.816 2.817"/><use xlink:href="#k" x="261.792" y="141.776"/><use xlink:href="#l" x="265.453" y="141.776"/><use xlink:href="#m" x="269.115" y="141.776"/><use xlink:href="#w" x="272.776" y="141.776"/><use xlink:href="#x" x="276.437" y="141.776"/><use xlink:href="#y" x="280.098" y="141.776"/><use xlink:href="#o" x="287.421" y="141.776"/><use xlink:href="#A" x="291.082" y="141.776"/><use xlink:href="#l" x="294.743" y="141.776"/><use xlink:href="#n" x="298.405" y="141.776"/><use xlink:href="#q" x="302.066" y="141.776"/><path fill="none" stroke="#000" stroke-miterlimit="10" stroke-width=".399" d="m43.07 149.477 2.82-2.82m-2.82 0 2.82 2.82"/><use xlink:href="#k" x="20.684" y="156.412"/><use xlink:href="#l" x="24.345" y="156.412"/><use xlink:href="#m" x="28.007" y="156.412"/><use xlink:href="#B" x="31.668" y="156.412"/><use xlink:href="#A" x="35.329" y="156.412"/><use xlink:href="#l" x="38.99" y="156.412"/><use xlink:href="#o" x="42.652" y="156.412"/><use xlink:href="#z" x="49.974" y="156.412"/><use xlink:href="#o" x="53.635" y="156.412"/><use xlink:href="#l" x="57.297" y="156.412"/><use xlink:href="#n" x="60.958" y="156.412"/><use xlink:href="#q" x="64.619" y="156.412"/><path fill="none" stroke="#000" stroke-miterlimit="10" stroke-width=".399" d="m174.348 149.477 2.816-2.82m-2.816 0 2.816 2.82"/><use xlink:href="#k" x="161.11" y="156.412"/><use xlink:href="#l" x="164.771" y="156.412"/><use xlink:href="#m" x="168.433" y="156.412"/><use xlink:href="#B" x="172.094" y="156.412"/><use xlink:href="#A" x="175.755" y="156.412"/><use xlink:href="#l" x="179.416" y="156.412"/><use xlink:href="#o" x="183.078" y="156.412"/><use xlink:href="#q" x="186.739" y="156.412"/><path fill="none" stroke="#000" stroke-miterlimit="10" stroke-width=".399" d="m305.629 149.477 2.816-2.82m-2.816 0 2.816 2.82"/><use xlink:href="#k" x="283.237" y="156.412"/><use xlink:href="#l" x="286.898" y="156.412"/><use xlink:href="#m" x="290.56" y="156.412"/><use xlink:href="#B" x="294.221" y="156.412"/><use xlink:href="#A" x="297.882" y="156.412"/><use xlink:href="#l" x="301.543" y="156.412"/><use xlink:href="#o" x="305.205" y="156.412"/><use xlink:href="#o" x="312.527" y="156.412"/><use xlink:href="#A" x="316.188" y="156.412"/><use xlink:href="#l" x="319.85" y="156.412"/><use xlink:href="#n" x="323.511" y="156.412"/><use xlink:href="#q" x="327.172" y="156.412"/><path fill="none" stroke="#000" stroke-miterlimit="10" stroke-width=".399" d="m224.656 64.434 2.82-2.817m-2.82 0 2.82 2.817"/><use xlink:href="#k" x="194.945" y="58.949"/><use xlink:href="#l" x="198.606" y="58.949"/><use xlink:href="#m" x="202.268" y="58.949"/><use xlink:href="#B" x="205.929" y="58.949"/><use xlink:href="#o" x="209.59" y="58.949"/><use xlink:href="#C" x="213.251" y="58.949"/><use xlink:href="#D" x="216.913" y="58.949"/><use xlink:href="#t" x="220.574" y="58.949"/><use xlink:href="#o" x="224.235" y="58.949"/><use xlink:href="#E" x="231.558" y="58.949"/><use xlink:href="#o" x="235.219" y="58.949"/><use xlink:href="#A" x="238.88" y="58.949"/><use xlink:href="#y" x="242.542" y="58.949"/><use xlink:href="#F" x="249.864" y="58.949"/><use xlink:href="#q" x="253.525" y="58.949"/><path fill="none" stroke="#000" stroke-miterlimit="10" stroke-width=".399" d="m224.656 11.89 2.82-2.816m-2.82 0 2.82 2.817"/><use xlink:href="#k" x="196.776" y="5.458"/><use xlink:href="#l" x="200.437" y="5.458"/><use xlink:href="#m" x="204.099" y="5.458"/><use xlink:href="#B" x="207.76" y="5.458"/><use xlink:href="#o" x="211.421" y="5.458"/><use xlink:href="#C" x="215.082" y="5.458"/><use xlink:href="#D" x="218.744" y="5.458"/><use xlink:href="#t" x="222.405" y="5.458"/><use xlink:href="#o" x="226.066" y="5.458"/><use xlink:href="#n" x="233.389" y="5.458"/><use xlink:href="#x" x="237.05" y="5.458"/><use xlink:href="#G" x="240.711" y="5.458"/><use xlink:href="#F" x="248.034" y="5.458"/><use xlink:href="#q" x="251.695" y="5.458"/><path fill="none" stroke="#000" stroke-miterlimit="10" stroke-width=".399" d="m333.93 121.156 2.816-2.816m-2.816 0 2.816 2.816"/><use xlink:href="#k" x="318.859" y="114.723"/><use xlink:href="#l" x="322.52" y="114.723"/><use xlink:href="#m" x="326.182" y="114.723"/><use xlink:href="#n" x="329.843" y="114.723"/><use xlink:href="#x" x="333.504" y="114.723"/><use xlink:href="#G" x="337.165" y="114.723"/><use xlink:href="#F" x="344.488" y="114.723"/><use xlink:href="#q" x="348.149" y="114.723"/><path fill="none" stroke="#000" stroke-miterlimit="10" stroke-width=".399" d="m224.656 230.426 2.82-2.82m-2.82 0 2.82 2.82"/><use xlink:href="#k" x="198.607" y="237.36"/><use xlink:href="#l" x="202.268" y="237.36"/><use xlink:href="#m" x="205.93" y="237.36"/><use xlink:href="#A" x="209.591" y="237.36"/><use xlink:href="#C" x="213.252" y="237.36"/><use xlink:href="#n" x="216.913" y="237.36"/><use xlink:href="#o" x="220.575" y="237.36"/><use xlink:href="#t" x="224.236" y="237.36"/><use xlink:href="#n" x="231.551" y="237.36"/><use xlink:href="#x" x="235.213" y="237.36"/><use xlink:href="#G" x="238.874" y="237.36"/><use xlink:href="#F" x="246.197" y="237.36"/><use xlink:href="#q" x="249.858" y="237.36"/><path fill="none" stroke="#000" stroke-miterlimit="10" stroke-width=".399" d="m224.656 177.883 2.82-2.82m-2.82 0 2.82 2.82"/><use xlink:href="#k" x="196.775" y="184.818"/><use xlink:href="#l" x="200.436" y="184.818"/><use xlink:href="#m" x="204.098" y="184.818"/><use xlink:href="#A" x="207.759" y="184.818"/><use xlink:href="#C" x="211.42" y="184.818"/><use xlink:href="#n" x="215.081" y="184.818"/><use xlink:href="#o" x="218.743" y="184.818"/><use xlink:href="#t" x="222.404" y="184.818"/><use xlink:href="#E" x="229.726" y="184.818"/><use xlink:href="#o" x="233.388" y="184.818"/><use xlink:href="#A" x="237.049" y="184.818"/><use xlink:href="#y" x="240.71" y="184.818"/><use xlink:href="#F" x="248.033" y="184.818"/><use xlink:href="#q" x="251.694" y="184.818"/><path fill="none" stroke="#000" stroke-miterlimit="10" stroke-width=".399" d="m124.035 177.883 2.817-2.82m-2.817 0 2.817 2.82"/><use xlink:href="#k" x="94.324" y="172.395"/><use xlink:href="#l" x="97.985" y="172.395"/><use xlink:href="#m" x="101.647" y="172.395"/><use xlink:href="#B" x="105.308" y="172.395"/><use xlink:href="#o" x="108.969" y="172.395"/><use xlink:href="#C" x="112.63" y="172.395"/><use xlink:href="#D" x="116.292" y="172.395"/><use xlink:href="#t" x="119.953" y="172.395"/><use xlink:href="#o" x="123.614" y="172.395"/><use xlink:href="#E" x="130.937" y="172.395"/><use xlink:href="#o" x="134.598" y="172.395"/><use xlink:href="#A" x="138.259" y="172.395"/><use xlink:href="#y" x="141.921" y="172.395"/><use xlink:href="#u" x="149.243" y="172.395"/><use xlink:href="#q" x="152.904" y="172.395"/><path fill="none" stroke="#000" stroke-miterlimit="10" stroke-width=".399" d="m124.035 230.426 2.817-2.82m-2.817 0 2.817 2.82"/><use xlink:href="#k" x="96.154" y="237.36"/><use xlink:href="#l" x="99.815" y="237.36"/><use xlink:href="#m" x="103.477" y="237.36"/><use xlink:href="#B" x="107.138" y="237.36"/><use xlink:href="#o" x="110.799" y="237.36"/><use xlink:href="#C" x="114.46" y="237.36"/><use xlink:href="#D" x="118.122" y="237.36"/><use xlink:href="#t" x="121.783" y="237.36"/><use xlink:href="#o" x="125.444" y="237.36"/><use xlink:href="#n" x="132.767" y="237.36"/><use xlink:href="#x" x="136.428" y="237.36"/><use xlink:href="#G" x="140.089" y="237.36"/><use xlink:href="#u" x="147.412" y="237.36"/><use xlink:href="#q" x="151.073" y="237.36"/><path fill="none" stroke="#000" stroke-miterlimit="10" stroke-width=".399" d="m14.766 121.156 2.816-2.816m-2.816 0 2.816 2.816"/><use xlink:href="#k" x="-.3" y="114.723"/><use xlink:href="#l" x="3.361" y="114.723"/><use xlink:href="#m" x="7.023" y="114.723"/><use xlink:href="#n" x="10.684" y="114.723"/><use xlink:href="#x" x="14.345" y="114.723"/><use xlink:href="#G" x="18.006" y="114.723"/><use xlink:href="#u" x="25.322" y="114.723"/><use xlink:href="#q" x="28.983" y="114.723"/><path fill="none" stroke="#000" stroke-miterlimit="10" stroke-width=".399" d="m124.035 11.89 2.817-2.816m-2.817 0 2.817 2.817"/><use xlink:href="#k" x="97.985" y="5.458"/><use xlink:href="#l" x="101.646" y="5.458"/><use xlink:href="#m" x="105.308" y="5.458"/><use xlink:href="#A" x="108.969" y="5.458"/><use xlink:href="#C" x="112.63" y="5.458"/><use xlink:href="#n" x="116.291" y="5.458"/><use xlink:href="#o" x="119.953" y="5.458"/><use xlink:href="#t" x="123.614" y="5.458"/><use xlink:href="#n" x="130.936" y="5.458"/><use xlink:href="#x" x="134.598" y="5.458"/><use xlink:href="#G" x="138.259" y="5.458"/><use xlink:href="#u" x="145.582" y="5.458"/><use xlink:href="#q" x="149.243" y="5.458"/><path fill="none" stroke="#000" stroke-miterlimit="10" stroke-width=".399" d="m124.035 64.434 2.817-2.817m-2.817 0 2.817 2.817"/><use xlink:href="#k" x="96.155" y="71.372"/><use xlink:href="#l" x="99.816" y="71.372"/><use xlink:href="#m" x="103.478" y="71.372"/><use xlink:href="#A" x="107.139" y="71.372"/><use xlink:href="#C" x="110.8" y="71.372"/><use xlink:href="#n" x="114.461" y="71.372"/><use xlink:href="#o" x="118.123" y="71.372"/><use xlink:href="#t" x="121.784" y="71.372"/><use xlink:href="#E" x="129.099" y="71.372"/><use xlink:href="#o" x="132.761" y="71.372"/><use xlink:href="#A" x="136.422" y="71.372"/><use xlink:href="#y" x="140.083" y="71.372"/><use xlink:href="#u" x="147.406" y="71.372"/><use xlink:href="#q" x="151.067" y="71.372"/><path fill="none" stroke="#000" stroke-miterlimit="10" stroke-width=".399" d="m174.352 64.418 2.816-2.82m-2.816 0 2.816 2.82"/><use xlink:href="#k" x="159.285" y="58.931"/><use xlink:href="#l" x="162.946" y="58.931"/><use xlink:href="#m" x="166.608" y="58.931"/><use xlink:href="#s" x="170.269" y="58.931"/><use xlink:href="#D" x="173.93" y="58.931"/><use xlink:href="#t" x="177.591" y="58.931"/><use xlink:href="#n" x="181.253" y="58.931"/><use xlink:href="#E" x="184.914" y="58.931"/><use xlink:href="#q" x="188.575" y="58.931"/><path fill="none" stroke="#000" stroke-miterlimit="10" stroke-width=".399" d="m174.352 177.887 2.816-2.817m-2.816 0 2.816 2.817"/><use xlink:href="#k" x="159.285" y="184.824"/><use xlink:href="#l" x="162.946" y="184.824"/><use xlink:href="#m" x="166.608" y="184.824"/><use xlink:href="#l" x="170.269" y="184.824"/><use xlink:href="#D" x="173.93" y="184.824"/><use xlink:href="#H" x="177.591" y="184.824"/><use xlink:href="#n" x="181.253" y="184.824"/><use xlink:href="#E" x="184.914" y="184.824"/><use xlink:href="#q" x="188.575" y="184.824"/><path fill="none" stroke="#000" stroke-miterlimit="10" stroke-width=".399" d="m333.95 121.156 2.82-2.82m-2.82 0 2.82 2.82"/><use xlink:href="#k" x="320.712" y="128.092"/><use xlink:href="#l" x="324.373" y="128.092"/><use xlink:href="#m" x="328.035" y="128.092"/><use xlink:href="#o" x="331.696" y="128.092"/><use xlink:href="#A" x="335.357" y="128.092"/><use xlink:href="#l" x="339.018" y="128.092"/><use xlink:href="#n" x="342.68" y="128.092"/><use xlink:href="#q" x="346.341" y="128.092"/><path fill="none" stroke="#000" stroke-miterlimit="10" stroke-width=".399" d="m14.75 121.156 2.816-2.82m-2.816 0 2.816 2.82"/><use xlink:href="#k" x="1.516" y="128.092"/><use xlink:href="#l" x="5.177" y="128.092"/><use xlink:href="#m" x="8.839" y="128.092"/><use xlink:href="#z" x="12.5" y="128.092"/><use xlink:href="#o" x="16.161" y="128.092"/><use xlink:href="#l" x="19.822" y="128.092"/><use xlink:href="#n" x="23.484" y="128.092"/><use xlink:href="#q" x="27.145" y="128.092"/><path fill="none" stroke="#000" stroke-miterlimit="10" stroke-width=".399" d="m94.555 41.36 2.816-2.817m-2.816 0 2.816 2.816"/><use xlink:href="#k" x="70.334" y="48.297"/><use xlink:href="#l" x="73.995" y="48.297"/><use xlink:href="#m" x="77.657" y="48.297"/><use xlink:href="#s" x="81.318" y="48.297"/><use xlink:href="#D" x="84.979" y="48.297"/><use xlink:href="#t" x="88.64" y="48.297"/><use xlink:href="#n" x="92.302" y="48.297"/><use xlink:href="#E" x="95.963" y="48.297"/><use xlink:href="#z" x="103.285" y="48.297"/><use xlink:href="#o" x="106.947" y="48.297"/><use xlink:href="#l" x="110.608" y="48.297"/><use xlink:href="#n" x="114.269" y="48.297"/><use xlink:href="#q" x="117.931" y="48.297"/><path fill="none" stroke="#000" stroke-miterlimit="10" stroke-width=".399" d="m254.145 41.36 2.82-2.82m-2.82 0 2.82 2.82"/><use xlink:href="#k" x="229.925" y="48.297"/><use xlink:href="#l" x="233.586" y="48.297"/><use xlink:href="#m" x="237.248" y="48.297"/><use xlink:href="#s" x="240.909" y="48.297"/><use xlink:href="#D" x="244.57" y="48.297"/><use xlink:href="#t" x="248.231" y="48.297"/><use xlink:href="#n" x="251.893" y="48.297"/><use xlink:href="#E" x="255.554" y="48.297"/><use xlink:href="#o" x="262.876" y="48.297"/><use xlink:href="#A" x="266.538" y="48.297"/><use xlink:href="#l" x="270.199" y="48.297"/><use xlink:href="#n" x="273.86" y="48.297"/><use xlink:href="#q" x="277.522" y="48.297"/><path fill="none" stroke="#000" stroke-miterlimit="10" stroke-width=".399" d="m94.55 200.953 2.821-2.82m-2.82 0 2.82 2.82"/><use xlink:href="#k" x="70.334" y="195.465"/><use xlink:href="#l" x="73.995" y="195.465"/><use xlink:href="#m" x="77.657" y="195.465"/><use xlink:href="#l" x="81.318" y="195.465"/><use xlink:href="#D" x="84.979" y="195.465"/><use xlink:href="#H" x="88.64" y="195.465"/><use xlink:href="#n" x="92.302" y="195.465"/><use xlink:href="#E" x="95.963" y="195.465"/><use xlink:href="#z" x="103.278" y="195.465"/><use xlink:href="#o" x="106.94" y="195.465"/><use xlink:href="#l" x="110.601" y="195.465"/><use xlink:href="#n" x="114.262" y="195.465"/><use xlink:href="#q" x="117.924" y="195.465"/><path fill="none" stroke="#000" stroke-miterlimit="10" stroke-width=".399" d="m254.145 200.953 2.82-2.82m-2.82 0 2.82 2.82"/><use xlink:href="#k" x="229.925" y="195.465"/><use xlink:href="#l" x="233.586" y="195.465"/><use xlink:href="#m" x="237.248" y="195.465"/><use xlink:href="#l" x="240.909" y="195.465"/><use xlink:href="#D" x="244.57" y="195.465"/><use xlink:href="#H" x="248.231" y="195.465"/><use xlink:href="#n" x="251.893" y="195.465"/><use xlink:href="#E" x="255.554" y="195.465"/><use xlink:href="#o" x="262.876" y="195.465"/><use xlink:href="#A" x="266.538" y="195.465"/><use xlink:href="#l" x="270.199" y="195.465"/><use xlink:href="#n" x="273.86" y="195.465"/><use xlink:href="#q" x="277.522" y="195.465"/></svg>