<svg xmlns="http://www.w3.org/2000/svg" width="87.256" height="73.19"><path fill="none" stroke="#7F7F7F" stroke-miterlimit="10" stroke-width=".199" d="M.738 71.68h85.04M.737 43.332h85.04M.737 14.996h85.04M.737 71.68V14.984M29.082 71.68V14.984M57.43 71.68V14.984M85.766 71.68V14.984"/><path fill="none" stroke="#000" stroke-miterlimit="10" stroke-width=".399" d="M43.258 43.332c0-7.828-6.348-14.176-14.176-14.176-7.824 0-14.172 6.348-14.172 14.176s6.348 14.172 14.172 14.172c7.828 0 14.176-6.344 14.176-14.172Zm28.347-28.348C71.605 7.156 65.258.813 57.43.813S43.258 7.156 43.258 14.984c0 7.829 6.344 14.172 14.172 14.172s14.175-6.343 14.175-14.172Zm0 0"/><path fill="none" stroke="#000" stroke-miterlimit="10" stroke-width=".399" d="M14.91 57.504V.813h56.695v56.69Zm0 0"/><path fill="none" stroke="red" stroke-miterlimit="10" stroke-width=".399" d="M43.258 29.156V.813h28.347v28.343Zm0 0"/></svg>