<svg xmlns="http://www.w3.org/2000/svg" xmlns:xlink="http://www.w3.org/1999/xlink" width="156.965" height="176.852"><defs><path id="a" d="M1.781-1.14C1.391-.485 1-.345.563-.314c-.125.016-.22.016-.22.204 0 .062.063.109.141.109.266 0 .579-.031.844-.031.344 0 .688.031 1 .031.063 0 .188 0 .188-.187 0-.11-.079-.125-.157-.125-.218-.016-.468-.094-.468-.344 0-.125.062-.235.14-.375l.766-1.266h2.5c.016.203.156 1.563.156 1.656 0 .297-.516.329-.719.329-.14 0-.234 0-.234.203C4.5 0 4.61 0 4.64 0c.407 0 .829-.031 1.235-.031.25 0 .89.031 1.14.031.048 0 .173 0 .173-.203 0-.11-.094-.11-.235-.11-.61 0-.61-.062-.64-.359l-.61-6.219c-.016-.203-.016-.25-.187-.25-.157 0-.203.079-.266.172Zm1.203-1.47 1.954-3.296.328 3.297Zm0 0"/><path id="b" d="M1.594-.781c-.094.39-.125.469-.907.469-.171 0-.265 0-.265.203C.422 0 .516 0 .688 0H4.25C5.828 0 7-1.172 7-2.156c0-.719-.578-1.297-1.547-1.406 1.031-.188 2.078-.922 2.078-1.876 0-.734-.656-1.375-1.843-1.375h-3.36c-.187 0-.281 0-.281.204 0 .109.094.109.281.109.016 0 .203 0 .375.016.172.03.266.03.266.172 0 .03-.016.062-.031.187Zm1.5-2.875.625-2.469c.094-.344.11-.375.531-.375h1.297c.875 0 1.078.594 1.078 1.031 0 .875-.86 1.813-2.062 1.813ZM2.656-.312h-.219c-.109-.016-.14-.032-.14-.11 0-.031 0-.047.062-.219l.688-2.78h1.875c.953 0 1.156.733 1.156 1.155 0 .985-.89 1.954-2.078 1.954Zm0 0"/><path id="c" d="M7.578-6.922c0-.031-.016-.11-.11-.11-.03 0-.046.016-.155.126l-.688.765c-.094-.14-.547-.89-1.656-.89C2.734-7.031.5-4.828.5-2.516.5-.875 1.672.22 3.203.22c.86 0 1.625-.39 2.156-.86.922-.812 1.094-1.718 1.094-1.75 0-.109-.11-.109-.125-.109-.062 0-.11.031-.125.11-.094.28-.328 1-1.016 1.578-.687.546-1.312.718-1.828.718-.89 0-1.953-.515-1.953-2.062 0-.578.203-2.188 1.203-3.36.61-.703 1.547-1.203 2.438-1.203 1.016 0 1.61.766 1.61 1.922 0 .406-.032.406-.032.516 0 .093.11.093.14.093.126 0 .126-.015.188-.203Zm0 0"/><path id="d" d="M1.578-.781c-.094.39-.11.469-.906.469-.156 0-.266 0-.266.187C.406 0 .484 0 .672 0h3.312c2.063 0 4.032-2.11 4.032-4.281 0-1.407-.844-2.532-2.344-2.532H2.328c-.187 0-.297 0-.297.188 0 .125.078.125.281.125.126 0 .313.016.422.016.172.03.22.046.22.172 0 .03 0 .062-.032.187Zm2.156-5.344c.094-.344.11-.375.547-.375h1.063c.968 0 1.797.531 1.797 1.844 0 .484-.188 2.125-1.047 3.218A2.92 2.92 0 0 1 3.797-.312H2.453c-.094-.016-.125-.032-.125-.11 0-.031 0-.047.047-.219Zm0 0"/><path id="e" d="M7.063-2.328c.015-.047.046-.11.046-.14 0 0 0-.11-.125-.11-.093 0-.109.062-.125.125-.656 1.469-1.015 2.14-2.718 2.14H2.468c-.109-.015-.14-.03-.14-.109 0-.031 0-.047.047-.219l.688-2.734h.984c.844 0 .844.219.844.469 0 .062 0 .187-.063.484-.016.047-.031.078-.031.11 0 .046.031.109.125.109.078 0 .11-.047.156-.203l.563-2.328c0-.063-.047-.11-.125-.11-.079 0-.11.063-.125.172-.22.766-.391 1-1.313 1h-.937l.593-2.406c.094-.36.11-.39.547-.39h1.407c1.203 0 1.515.28 1.515 1.109 0 .234 0 .25-.047.53 0 .048-.015.126-.015.173s.03.125.125.125c.109 0 .125-.063.14-.25l.203-1.735c.032-.265-.015-.265-.265-.265H2.297c-.188 0-.297 0-.297.203 0 .11.094.11.281.11.375 0 .656 0 .656.171 0 .047 0 .063-.062.25L1.563-.78c-.094.39-.11.469-.907.469-.172 0-.281 0-.281.187C.375 0 .469 0 .656 0h5.172c.234 0 .25-.016.313-.172Zm0 0"/><path id="f" d="M3.016-3.234h.968c.75 0 .829.156.829.437 0 .078 0 .188-.063.5-.031.047-.031.078-.031.11 0 .078.062.109.11.109.109 0 .109-.031.155-.203l.547-2.172c.032-.11.032-.125.032-.156a.117.117 0 0 0-.125-.11c-.094 0-.11.047-.141.219-.219.766-.438.953-1.297.953h-.906l.64-2.531c.094-.36.11-.39.547-.39h1.313c1.218 0 1.453.327 1.453 1.093 0 .234 0 .266-.031.547C7-4.703 7-4.688 7-4.656c0 .047.031.125.125.125.11 0 .11-.063.125-.25l.203-1.735c.031-.265-.016-.265-.266-.265h-4.89c-.188 0-.297 0-.297.203 0 .11.094.11.281.11.375 0 .656 0 .656.171 0 .047 0 .063-.062.25L1.563-.78c-.094.39-.11.469-.907.469-.172 0-.281 0-.281.187C.375 0 .5 0 .531 0c.282 0 1.031-.031 1.313-.031C2.172-.031 3 0 3.328 0c.094 0 .203 0 .203-.187 0-.079-.047-.11-.047-.11-.03-.016-.062-.016-.28-.016-.22 0-.267 0-.517-.015-.296-.031-.328-.078-.328-.203 0-.016 0-.078.047-.219Zm0 0"/><path id="g" d="M7.61-6.047c.093-.36.109-.453.827-.453.266 0 .344 0 .344-.203 0-.11-.11-.11-.14-.11-.282 0-1 .032-1.282.032-.28 0-.984-.032-1.28-.032-.079 0-.188 0-.188.204 0 .109.093.109.28.109.016 0 .204 0 .376.016.187.03.266.03.266.172 0 .03 0 .046-.032.187l-.593 2.422H3.14l.593-2.344c.079-.36.11-.453.829-.453.265 0 .343 0 .343-.203 0-.11-.11-.11-.14-.11-.282 0-1 .032-1.282.032-.28 0-.984-.032-1.28-.032-.079 0-.188 0-.188.204 0 .109.093.109.28.109.017 0 .204 0 .376.016.172.03.265.03.265.172 0 .03 0 .062-.03.187L1.562-.781c-.094.39-.11.469-.907.469-.172 0-.265 0-.265.203C.39 0 .516 0 .53 0c.282 0 .985-.031 1.266-.031.203 0 .422.015.64.015.22 0 .438.016.641.016.078 0 .203 0 .203-.203 0-.11-.094-.11-.281-.11-.375 0-.64 0-.64-.171 0-.063.015-.11.015-.172l.688-2.735h3.03c-.405 1.657-.64 2.61-.687 2.75-.093.329-.281.329-.906.329-.14 0-.234 0-.234.203 0 .109.125.109.14.109.282 0 .985-.031 1.266-.031.203 0 .422.015.64.015.22 0 .438.016.641.016.078 0 .203 0 .203-.203 0-.11-.093-.11-.281-.11-.36 0-.64 0-.64-.171 0-.063.015-.11.03-.172Zm0 0"/><path id="h" d="M7.578-6.922c0-.031-.016-.11-.11-.11-.03 0-.046.016-.155.126l-.688.765c-.094-.14-.547-.89-1.656-.89C2.734-7.031.5-4.828.5-2.516.5-.922 1.61.22 3.219.22c.437 0 .89-.094 1.25-.235.5-.203.687-.406.86-.609.093.25.359.61.452.61.047 0 .078-.032.078-.032.016-.015.11-.406.157-.61l.187-.765.14-.516c.11-.437.11-.468.688-.468.047 0 .157-.016.157-.203 0-.079-.047-.11-.125-.11-.235 0-.829.031-1.047.031-.313 0-1.094-.03-1.407-.03-.078 0-.203 0-.203.202 0 .11.078.11.297.11.016 0 .297 0 .531.015.266.032.313.063.313.188 0 .094-.11.531-.219.906C5.047-.203 3.766-.094 3.406-.094c-.953 0-2-.562-2-2.093 0-.313.094-1.954 1.14-3.25.548-.672 1.517-1.282 2.5-1.282 1.016 0 1.61.766 1.61 1.922 0 .406-.031.406-.031.516 0 .093.11.093.14.093.126 0 .126-.015.188-.203Zm0 0"/><path id="j" d="M5.078-4.031a.5.5 0 0 1-.047-.14s.172-.141.282-.22l1.75-1.343C8-6.437 8.39-6.47 8.688-6.5c.078-.016.171-.016.171-.203 0-.031-.03-.11-.109-.11-.219 0-.469.032-.703.032-.36 0-.75-.032-1.11-.032-.062 0-.187 0-.187.204 0 .062.047.093.125.109.219.016.297.063.297.203 0 .188-.297.422-.36.469L2.938-2.844l.797-3.203c.079-.36.11-.453.829-.453.25 0 .343 0 .343-.203 0-.078-.078-.11-.14-.11-.282 0-1 .032-1.282.032-.28 0-.984-.032-1.28-.032-.063 0-.204 0-.204.188 0 .125.094.125.297.125.125 0 .312.016.422.016.156.03.219.046.219.172 0 .03 0 .062-.032.187L1.562-.781c-.093.39-.109.469-.906.469-.172 0-.281 0-.281.187C.375 0 .5 0 .531 0c.282 0 .985-.031 1.266-.031.203 0 .422.015.64.015.22 0 .438.016.641.016.078 0 .203 0 .203-.203 0-.11-.094-.11-.281-.11-.375 0-.64 0-.64-.171 0-.079.046-.297.078-.438.14-.531.28-1.047.406-1.578l1.484-1.156L5.484-.97c.125.266.125.297.125.344 0 .313-.437.313-.53.313-.11 0-.22 0-.22.203C4.86 0 4.984 0 5 0c.406 0 .828-.031 1.219-.031.218 0 .765.031.984.031.047 0 .172 0 .172-.203 0-.11-.11-.11-.203-.11-.406 0-.531-.093-.688-.437Zm0 0"/><path id="k" d="M3.734-6.031c.079-.36.11-.469 1.047-.469.297 0 .375 0 .375-.187 0-.125-.11-.125-.156-.125-.328 0-1.14.03-1.469.03-.297 0-1.031-.03-1.328-.03-.062 0-.187 0-.187.203 0 .109.093.109.28.109.017 0 .204 0 .376.016.172.03.265.03.265.172 0 .03 0 .062-.03.187L1.562-.781c-.094.39-.11.469-.907.469-.172 0-.265 0-.265.203C.39 0 .484 0 .656 0h4.625c.235 0 .235 0 .297-.172l.797-2.156c.031-.11.031-.125.031-.14 0-.032-.031-.11-.11-.11-.093 0-.109.062-.171.219-.344.906-.781 2.047-2.5 2.047H2.468c-.109-.016-.14-.032-.14-.11 0-.031 0-.047.047-.219Zm0 0"/><clipPath id="i"><path d="M0 0h156.95v162H0Zm0 0"/></clipPath></defs><use xlink:href="#a" x="57.441" y="105.028" fill="#FF7F00"/><use xlink:href="#b" x="97.371" y="101.94" fill="#00C"/><use xlink:href="#c" x="89.163" y="42.658" fill="#00C"/><path fill="none" stroke="#00C" stroke-miterlimit="10" stroke-width=".797" d="m93.652 98.535-.57-52.16"/><path fill="none" stroke="#7F7F7F" stroke-miterlimit="10" stroke-width=".399" d="m68.633 101.625 25.02-3.09"/><use xlink:href="#d" x="74.206" y="74.693"/><path fill="none" stroke="#7F7F7F" stroke-miterlimit="10" stroke-width=".399" d="m78.469 78.41-36.883 87.047"/><use xlink:href="#e" x="30.137" y="175.783"/><path fill="none" stroke="#7F7F7F" stroke-miterlimit="10" stroke-width=".399" d="m78.469 78.41 56.941 75.469"/><use xlink:href="#f" x="138.929" y="164.204"/><path fill="none" stroke="#7F7F7F" stroke-miterlimit="10" stroke-width=".399" d="M145.816 98.535c0-28.808-23.355-52.16-52.164-52.16-28.808 0-52.16 23.352-52.16 52.16 0 28.809 23.352 52.164 52.16 52.164 28.809 0 52.164-23.355 52.164-52.164Zm0 0"/><use xlink:href="#g" x="43.959" y="57.933"/><use xlink:href="#h" x="128.774" y="143.55"/><g clip-path="url(#i)"><path fill="none" stroke="#7F7F7F" stroke-miterlimit="10" stroke-width=".399" d="M155.738 78.41c0-42.676-34.593-77.27-77.27-77.27C35.794 1.14 1.2 35.735 1.2 78.41s34.594 77.27 77.27 77.27 77.27-34.594 77.27-77.27Zm0 0"/></g><use xlink:href="#j" x="10.938" y="20.056"/><use xlink:href="#k" x="44.922" y="160.102" fill="#B20000"/><path fill="none" stroke="#B20000" stroke-miterlimit="10" stroke-width=".797" d="m68.633 101.625-20.32 47.95"/><path fill-opacity=".5" d="M70.625 101.625a1.99 1.99 0 0 0-1.992-1.992 1.993 1.993 0 1 0 1.992 1.992M95.645 98.535a1.993 1.993 0 1 0-3.983.002 1.993 1.993 0 0 0 3.983-.002M95.074 46.375a1.993 1.993 0 1 0-3.983.002 1.993 1.993 0 0 0 3.983-.002M80.46 78.41a1.993 1.993 0 1 0-3.985.002 1.993 1.993 0 0 0 3.986-.002M127.05 140.148a1.996 1.996 0 0 0-1.991-1.996 1.997 1.997 0 0 0-1.996 1.996c0 1.098.894 1.993 1.996 1.993a1.996 1.996 0 0 0 1.992-1.993M50.305 149.574a1.993 1.993 0 1 0-3.986.002 1.993 1.993 0 0 0 3.986-.002m0 0"/></svg>