<svg xmlns="http://www.w3.org/2000/svg" xmlns:xlink="http://www.w3.org/1999/xlink" width="100.2" height="109.262"><defs><path id="a" d="M17.484 0v-1.406H15.36L10.344-7.36l3.5-3.875c.39-.422.562-.625 3.047-.625v-1.407l-2.75.079-3.078-.079v1.407c.421 0 .78.046 1.14.265-.125.172-.125.235-.25.36l-2.5 2.812-2.937-3.437h1.203v-1.407l-3.625.079-3.282-.079v1.407h2.11l4.672 5.5-3.922 4.39c-.5.563-1.578.563-3.016.563V0l2.75-.094L6.484 0v-1.406c-.53 0-1.109-.14-1.109-.328 0 0 0-.063.219-.297l2.89-3.266 3.297 3.89H10.61V0l3.594-.094Zm0 0"/><path id="b" d="M17.344-11.86v-1.406a39 39 0 0 1-2.375.079l-2.719-.079v1.407s1.406 0 1.406.343l-.14.36-3.438 7.36-3.797-8.063h1.61v-1.407l-3.703.079-3.407-.079v1.407h1.906L8.282 0l-.687 1.438c-.657 1.437-1.61 3.468-3.735 3.468-.421 0-.484-.031-.718-.125.265-.125.953-.531.953-1.578 0-.984-.719-1.703-1.735-1.703-.828 0-1.703.563-1.703 1.734 0 1.516 1.406 2.75 3.203 2.75 2.297 0 4.032-1.859 4.844-3.562l6.422-13.656c.203-.422.297-.625 2.219-.625m0 0"/><path id="c" d="M11.422-3.703v-1.594h-1.406v1.531c0 2.032-.953 2.75-1.797 2.75-1.735 0-1.735-1.906-1.735-2.593v-8.25h4.36v-1.407h-4.36v-5.718H5.078c-.031 3-1.484 5.953-4.453 6.047v1.078h2.453v8.187C3.078-.484 5.672.172 7.797.172c2.281 0 3.625-1.703 3.625-3.875m0 0"/></defs><path fill="none" stroke="#000" stroke-miterlimit="10" stroke-width=".399" d="M9.023 10.242h85.04"/><use xlink:href="#a" x="-.049" y="16.88"/><use xlink:href="#b" x="42.47" y="13.891"/><use xlink:href="#c" x="87.381" y="19.644"/><path fill="none" stroke="#000" stroke-miterlimit="10" stroke-width=".399" d="M9.023 52.766h85.04"/><use xlink:href="#a" x="-.049" y="52.764"/><use xlink:href="#b" x="42.47" y="52.764"/><use xlink:href="#c" x="87.381" y="52.764"/><path fill="none" stroke="#000" stroke-miterlimit="10" stroke-width=".399" d="M9.023 95.285h85.04"/><use xlink:href="#a" x="-.049" y="101.919"/><use xlink:href="#b" x="42.47" y="101.919"/><use xlink:href="#c" x="87.381" y="101.919"/></svg>