<svg xmlns="http://www.w3.org/2000/svg" xmlns:xlink="http://www.w3.org/1999/xlink" width="73.226" height="18.11"><defs><path id="a" d="m7.547-4.328-.203-2.406H.625L.422-4.328H.89c.093-1.125.187-1.938 1.625-1.938h.765v5.797H1.75V0c.547-.031 1.656-.031 2.234-.031.594 0 1.704 0 2.235.031v-.469H4.687v-5.797h.766c1.422 0 1.531.797 1.625 1.938Zm0 0"/><path id="b" d="M4.922-1.172c0-.172-.188-.172-.234-.172-.172 0-.188.047-.25.203-.204.485-.782.797-1.422.797-1.407 0-1.422-1.328-1.422-1.828h3.015c.22 0 .313 0 .313-.265 0-.313-.063-1.047-.563-1.547-.359-.36-.89-.532-1.578-.532C1.187-4.516.313-3.484.313-2.25c0 1.344 1 2.313 2.609 2.313 1.578 0 2-1.063 2-1.235M3.984-2.5h-2.39c.015-.39.031-.812.234-1.14.266-.391.672-.516.953-.516 1.172 0 1.188 1.312 1.203 1.656m0 0"/><path id="c" d="M5.828 0v-.469h-.703L3.453-2.453 4.61-3.75c.141-.14.204-.203 1.016-.203v-.469l-.906.031-1.032-.03v.468c.141 0 .266.015.376.078-.032.063-.032.094-.079.125l-.828.938-.984-1.141h.406v-.469L1.36-4.39.266-4.42v.468h.718l1.547 1.828L1.22-.656c-.157.187-.516.187-1 .187V0l.922-.031L2.156 0v-.469c-.172 0-.36-.047-.36-.11 0 0 0-.015.063-.093l.97-1.094L3.921-.469h-.39V0l1.202-.031Zm0 0"/><path id="d" d="M3.813-1.234v-.532h-.47v.516c0 .672-.327.906-.609.906-.578 0-.578-.64-.578-.86v-2.75h1.469v-.468H2.156v-1.906h-.469c0 1-.484 1.984-1.484 2.016v.359h.828v2.734c0 1.063.86 1.282 1.578 1.282.75 0 1.204-.579 1.204-1.297m0 0"/><path id="e" d="M2.5-.312c0-.672-.344-1.25-.922-1.25-.469 0-.766.359-.766.78 0 .407.266.782.766.782a.84.84 0 0 0 .563-.203C2.047.89 1.406 1.422 1.203 1.594c-.062.047-.094.078-.094.14 0 .094.11.204.188.204.156 0 1.203-.86 1.203-2.25m0 0"/><path id="i" d="M2.36-.781a.784.784 0 0 0-.782-.781.78.78 0 0 0-.766.78.774.774 0 1 0 1.547 0m0 0"/><clipPath id="f"><path d="M29 0h22v17.664H29Zm0 0"/></clipPath><clipPath id="g"><path d="M42 1h21v16.664H42Zm0 0"/></clipPath><clipPath id="h"><path d="M54 0h18.84v16H54Zm0 0"/></clipPath></defs><use xlink:href="#a" x=".199" y="9.818"/><use xlink:href="#b" x="7.213" y="9.818"/><use xlink:href="#c" x="12.463" y="9.818"/><use xlink:href="#d" x="18.51" y="9.818"/><path fill="none" stroke="#000" stroke-miterlimit="10" stroke-width=".399" d="M32.008 5.195a4.423 4.423 0 1 0-4.422 4.426 4.424 4.424 0 0 0 4.422-4.426Zm0 0"/><use xlink:href="#e" x="32.209" y="9.818"/><g clip-path="url(#f)"><path fill="none" stroke="#000" stroke-miterlimit="10" stroke-width=".399" d="M44.434 9.816a4.424 4.424 0 1 0-8.848.004 4.424 4.424 0 0 0 8.848-.004Zm0 0"/></g><use xlink:href="#e" x="44.632" y="9.818"/><g clip-path="url(#g)"><path fill="none" stroke="#000" stroke-miterlimit="10" stroke-width=".399" d="M56.855 12.031a4.424 4.424 0 1 0-8.847-.004 4.424 4.424 0 0 0 8.847.004Zm0 0"/></g><use xlink:href="#e" x="57.056" y="9.818"/><g clip-path="url(#h)"><path fill="none" stroke="#000" stroke-miterlimit="10" stroke-width=".399" d="M69.281 5.395a4.424 4.424 0 1 0-8.847.003 4.424 4.424 0 0 0 8.847-.003Zm0 0"/></g><use xlink:href="#i" x="69.479" y="9.818"/></svg>