<svg xmlns="http://www.w3.org/2000/svg" xmlns:xlink="http://www.w3.org/1999/xlink" width="53.455" height="30.314"><defs><clipPath id="a"><path d="M11 0h33v29.973H11Zm0 0"/></clipPath><path id="b" d="M5.375-.844c-.016.516-.484.735-.828.735-.438 0-.828-.36-1.031-.563.437-.437.859-1.062 1.172-1.531.171-.25.359-.547.984-.547V-3A10 10 0 0 1 5-2.969c-.312 0-.86-.031-.875-.031v.25c.25 0 .422.11.422.266 0 .062-.031.125-.031.125-.016.03-.344.515-.578.828-.297.422-.5.593-.579.687-.062-.062-.921-1-1.25-1.797.563-.578.97-.984.97-1.421 0-.36-.188-.907-.704-.907-.5 0-1.078.39-1.078 1.14 0 .61.203 1.157.297 1.392l-.75.703c-.25.234-.469.437-.469.828 0 .625.64 1.047 1.406 1.047.703 0 1.203-.375 1.375-.516.406.313.86.516 1.375.516.563 0 1.078-.391 1.078-.985Zm-3.344-2A3.5 3.5 0 0 1 1.812-4c0-.5.282-.781.563-.781.375 0 .469.515.469.718 0 .344-.328.735-.813 1.22m-.344.594c.422.906 1.157 1.61 1.297 1.734-.343.235-.734.407-1.156.407-.562 0-.812-.563-.812-1 0-.516.187-.703.672-1.141m0 0"/></defs><g clip-path="url(#a)"><path fill="none" stroke="#000" stroke-miterlimit="10" stroke-width=".399" d="M20.367 28.77h17.434V.875H20.367Zm-.199-23.38c0-.964-.781-1.742-1.746-1.742a1.741 1.741 0 1 0 0 3.485c.965 0 1.746-.781 1.746-1.742Zm0 9.43a1.745 1.745 0 1 0-3.49.005 1.745 1.745 0 0 0 3.49-.005Zm0 9.434c0-.965-.781-1.742-1.746-1.742a1.741 1.741 0 1 0 0 3.484c.965 0 1.746-.781 1.746-1.742Zm0 0"/></g><use xlink:href="#b" x="26.026" y="7.929"/><path fill="none" stroke="#000" stroke-miterlimit="10" stroke-width=".399" d="M.738 5.39H16.48M.738 10.105h19.43M.738 14.82H16.48M.738 19.54h19.43M.738 24.254H16.48M38 14.82h14.172"/></svg>