<svg xmlns="http://www.w3.org/2000/svg" width="87.256" height="72.974"><path fill="none" stroke="#7F7F7F" stroke-miterlimit="10" stroke-width=".199" d="M.738 57.781h85.04M.737 29.434h85.04M.737 1.098h85.04M.737 57.78V1.086M29.082 57.78V1.086M57.43 57.78V1.086M85.766 57.78V1.086"/><path d="M31.078 15.262a1.997 1.997 0 0 0-1.996-1.996 1.996 1.996 0 0 0-1.992 1.996c0 1.097.894 1.992 1.992 1.992a1.996 1.996 0 0 0 1.996-1.992M59.422 69.96a1.993 1.993 0 1 0-3.983.002 1.993 1.993 0 0 0 3.983-.001m0 0"/></svg>