<svg xmlns="http://www.w3.org/2000/svg" xmlns:xlink="http://www.w3.org/1999/xlink" width="16.013" height="61.544"><defs><path id="a" d="M0-9.328h-.469v.687h-2.578c-1.031 0-1.437.516-1.437 1.547 0 .907.5 1.422.953 1.688-.922.187-.953 1.11-.953 1.484 0 .875.453 1.438 1.078 1.766h-1.078l.078 1.703h.468c0-.61 0-.688.391-.688h3.078v.688H0l-.031-1.25L0-2.953h-.469v.687h-2.078a1.52 1.52 0 0 1-1.578-1.5c0-.328.203-.546.969-.546H-.47v.687H0l-.031-1.266L0-6.14h-.469v.688h-2.078c-1.094 0-1.578-.86-1.578-1.484 0-.344.203-.563.969-.563H-.47v.688H0l-.031-1.25Zm0 0"/><path id="b" d="M-.234-5.516c-.235 0-.235.125-.235.266-.015.61-.14.61-.375.61h-2.14c-.891 0-1.532.702-1.532 2.187 0 .562.047 1.781.922 1.781a.6.6 0 0 0 .625-.61c0-.312-.219-.624-.625-.624-.297 0-.469.187-.5.218a5 5 0 0 1-.062-.718c0-.75.422-1.11 1.172-1.11h.343c.032.72.125 3.25 1.563 3.25.953 0 1.14-1.234 1.14-1.921 0-.797-.406-1.266-.828-1.485.313 0 .766 0 .766-1.047v-.468c0-.204 0-.329-.234-.329m-1.157 2c.97 0 1.094.922 1.094 1.172 0 .516-.344.906-.797.906-1.062 0-1.203-1.578-1.234-2.078Zm0 0"/><path id="c" d="M0-2.844h-.469v.61h-4.015L-4.406-.5h.468c0-.594 0-.656.391-.656h3.078v.687H0l-.031-1.219Zm-6.047.469a.774.774 0 0 0-.781.781c0 .422.344.782.781.782a.78.78 0 0 0 .766-.782.77.77 0 0 0-.766-.781m0 0"/><path id="d" d="M0-6.125h-.469v.688h-2.578c-1.047 0-1.437.53-1.437 1.53 0 .954.562 1.485 1.078 1.75h-1.078l.078 1.704h.468c0-.61 0-.688.391-.688h3.078v.688H0l-.031-1.25L0-2.953h-.469v.687h-2.078a1.513 1.513 0 0 1-1.578-1.5c0-.328.203-.546.969-.546H-.47v.687H0l-.031-1.25Zm0 0"/><path id="e" d="M-2.172-5.406c-1.344 0-2.344.922-2.344 2.547 0 1.64 1.016 2.547 2.344 2.547C-.937-.312.063-1.203.063-2.86c0-1.672-1.016-2.547-2.235-2.547m-.11 1.281c.86 0 1.938 0 1.938 1.266 0 1.265-1.078 1.265-1.937 1.265-.453 0-.953 0-1.297-.172-.375-.187-.578-.609-.578-1.093 0-.422.156-.844.5-1.063.344-.203.89-.203 1.375-.203m0 0"/><path id="f" d="M0-5.984h-.469c0 .609 0 .687-.39.687h-6.063l.078 1.766h.469c0-.625 0-.703.39-.703h1.954c-.39.5-.453 1.03-.453 1.359 0 1.453.875 2.5 2.28 2.5 1.313 0 2.267-.922 2.267-2.39 0-.61-.235-1.094-.485-1.407h.485Zm-1.031 1.812c.187.14.734.547.734 1.297 0 1.219-1.203 1.219-1.906 1.219-.485 0-1.016 0-1.406-.25-.422-.297-.516-.766-.516-1.078 0-.563.313-.97.61-1.188Zm0 0"/><path id="g" d="M-1.172-4.922c-.172 0-.172.188-.172.234 0 .172.047.188.203.25.485.204.797.782.797 1.422 0 1.407-1.328 1.422-1.828 1.422v-3.015c0-.22 0-.313-.265-.313-.313 0-1.047.063-1.547.563-.36.359-.532.89-.532 1.578 0 1.594 1.032 2.469 2.266 2.469 1.344 0 2.313-1 2.313-2.61 0-1.578-1.063-2-1.235-2m-1.328.938v2.39c-.39-.015-.812-.031-1.14-.234a1.17 1.17 0 0 1-.516-.953c0-1.172 1.312-1.188 1.656-1.203m0 0"/><path id="h" d="M8.547-.953c0-.219-.14-.219-.235-.219-.203 0-.218.11-.234.234-.047.47-.328.688-.625.688-.61 0-.687-.703-.75-1.125-.016-.11-.094-.797-.11-.844-.14-.703-.687-1.015-1.109-1.172C6.641-3.687 7.141-4.344 7.141-5c0-1-1.094-1.844-2.97-1.844H.392v.469h1.078v5.906H.39V0C.75-.031 1.719-.031 2.14-.031s1.39 0 1.75.031v-.469H2.828v-2.765h1.156c.141 0 .579 0 .891.328.313.36.313.547.313 1.265 0 .657 0 1.157.703 1.485.437.219 1.062.265 1.468.265 1.063 0 1.188-.89 1.188-1.062M5.625-4.984c0 .562 0 1.39-1.64 1.39H2.827v-2.781H4c1.61 0 1.625.781 1.625 1.39m0 0"/></defs><path fill="none" stroke="#000" stroke-miterlimit="10" stroke-width=".399" d="M.707.973v59.144H14.32V.973Zm0 0"/><use xlink:href="#a" x="10.941" y="56.796"/><use xlink:href="#b" x="10.941" y="47.252"/><use xlink:href="#c" x="10.941" y="41.683"/><use xlink:href="#d" x="10.941" y="38.505"/><use xlink:href="#d" x="10.941" y="28.323"/><use xlink:href="#e" x="10.941" y="21.957"/><use xlink:href="#f" x="10.941" y="15.909"/><use xlink:href="#g" x="10.941" y="9.543"/><use xlink:href="#h" x="3.216" y="33.907" fill="red"/></svg>