<svg xmlns="http://www.w3.org/2000/svg" width="91.449" height="34.76"><defs><clipPath id="a"><path d="M0 0h91.172v34.64H0Zm0 0"/></clipPath><clipPath id="b"><path d="M0 23h11v11.64H0Zm0 0"/></clipPath><clipPath id="c"><path d="M5 22h17v12.64H5Zm0 0"/></clipPath><clipPath id="d"><path d="M16 19h16v15.64H16Zm0 0"/></clipPath><clipPath id="e"><path d="M80 0h11.172v11H80Zm0 0"/></clipPath></defs><g clip-path="url(#a)"><path fill="none" stroke="#000" stroke-miterlimit="10" stroke-width=".399" d="M2.922 31.438c28.348 0 56.695-28.348 85.043-28.348"/></g><g clip-path="url(#b)"><path fill="none" stroke="#000" stroke-miterlimit="10" stroke-width=".399" d="M4.918 31.438a1.994 1.994 0 0 0-3.988 0c0 1.097.894 1.992 1.992 1.992a1.996 1.996 0 0 0 1.996-1.992Zm0 0"/></g><g clip-path="url(#c)"><path fill="none" stroke="#000" stroke-miterlimit="10" stroke-width=".399" d="M15.547 30.219a1.993 1.993 0 1 0-3.986.001 1.993 1.993 0 0 0 3.986-.001Zm0 0"/></g><g clip-path="url(#d)"><path fill="none" stroke="#000" stroke-miterlimit="10" stroke-width=".399" d="M26.176 27.008a1.99 1.99 0 0 0-1.992-1.992 1.993 1.993 0 1 0 1.992 1.992Zm0 0"/></g><path fill="none" stroke="#000" stroke-miterlimit="10" stroke-width=".399" d="M36.805 22.469c0-1.102-.89-1.996-1.992-1.996a1.996 1.996 0 0 0-1.993 1.996c0 1.097.895 1.992 1.992 1.992a1.993 1.993 0 0 0 1.993-1.992ZM47.438 17.262a1.996 1.996 0 0 0-1.993-1.992 1.996 1.996 0 0 0-1.996 1.992 1.994 1.994 0 0 0 3.989 0ZM58.066 12.059a1.99 1.99 0 0 0-1.992-1.993 1.99 1.99 0 0 0-1.992 1.993 1.99 1.99 0 0 0 1.992 1.992 1.99 1.99 0 0 0 1.992-1.992ZM68.695 7.52a1.99 1.99 0 0 0-1.992-1.993 1.993 1.993 0 1 0 1.992 1.992ZM79.328 4.309a1.994 1.994 0 0 0-3.988 0c0 1.097.894 1.992 1.992 1.992a1.996 1.996 0 0 0 1.996-1.992Zm0 0"/><g clip-path="url(#e)"><path fill="none" stroke="#000" stroke-miterlimit="10" stroke-width=".399" d="M89.957 3.09a1.993 1.993 0 1 0-3.986.001 1.993 1.993 0 0 0 3.986-.001Zm0 0"/></g></svg>