<svg xmlns="http://www.w3.org/2000/svg" width="21.951" height="8.192"><defs><clipPath id="a"><path d="M5 0h16.926v7.79H5Zm0 0"/></clipPath><clipPath id="b"><path d="M7 0h14.926v7.79H7Zm0 0"/></clipPath></defs><path fill="none" stroke="#000" stroke-miterlimit="10" stroke-width=".797" d="M.984 3.688h18.383"/><g clip-path="url(#a)"><path fill="none" stroke="#000" stroke-miterlimit="10" stroke-width=".797" d="M16.309 1a1.344 1.344 0 1 1 0 2.688c.742 0 1.343.601 1.343 1.347 0 .742-.601 1.344-1.343 1.344"/></g><g clip-path="url(#b)"><path fill="none" stroke="#000" stroke-miterlimit="10" stroke-width=".797" d="M19.168 1a1.344 1.344 0 1 1 0 2.688c.742 0 1.344.601 1.344 1.347 0 .742-.602 1.344-1.344 1.344"/></g></svg>