<svg xmlns="http://www.w3.org/2000/svg" xmlns:xlink="http://www.w3.org/1999/xlink" width="64.442" height="94.034"><defs><path id="a" d="M5.516-.234c0-.235-.125-.235-.266-.235-.61-.015-.61-.14-.61-.375v-2.14c0-.891-.702-1.532-2.187-1.532-.562 0-1.781.047-1.781.922 0 .438.344.625.61.625.312 0 .624-.219.624-.625 0-.297-.187-.469-.218-.5a5 5 0 0 1 .718-.062c.75 0 1.11.422 1.11 1.172v.343c-.72.032-3.25.125-3.25 1.563C.266-.125 1.5.062 2.188.062c.796 0 1.265-.406 1.484-.828 0 .313 0 .766 1.047.766h.468c.204 0 .329 0 .329-.234m-2-1.157c0 .97-.922 1.094-1.172 1.094-.516 0-.906-.344-.906-.797 0-1.062 1.578-1.203 2.078-1.234Zm0 0"/><path id="b" d="M5.984-2.219c0-1.328-.937-2.265-2.39-2.265-.719 0-1.219.28-1.453.484v-2.922l-1.766.078v.469c.61 0 .688 0 .688.39V0h.468c.157-.187.328-.375.485-.562.078.078.562.625 1.453.625 1.484 0 2.515-.907 2.515-2.282m-1.28 0c0 .469 0 1.016-.25 1.406-.298.407-.75.516-1.079.516-.687 0-1.078-.547-1.187-.687v-2.5c.28-.36.75-.641 1.296-.641 1.22 0 1.22 1.203 1.22 1.906m0 0"/><path id="c" d="M4.766-1.172c0-.14-.141-.14-.235-.14-.187 0-.187.03-.25.156-.25.625-.734.812-1.234.812-1.39 0-1.39-1.453-1.39-1.922 0-.562 0-1.843 1.28-1.843.36 0 .516.015.657.046a.62.62 0 0 0-.203.47c0 .437.343.624.609.624.313 0 .64-.219.64-.625 0-.86-1.156-.922-1.734-.922C1.11-4.516.375-3.375.375-2.219.375-.89 1.313.063 2.844.063c1.625 0 1.922-1.157 1.922-1.235m0 0"/><path id="d" d="M5.984 0v-.469c-.609 0-.687 0-.687-.39v-6.063l-1.766.078v.469c.625 0 .703 0 .703.39v1.954a2.18 2.18 0 0 0-1.359-.453c-1.453 0-2.5.875-2.5 2.28 0 1.313.922 2.267 2.39 2.267.61 0 1.094-.235 1.407-.485v.485ZM4.172-1.031c-.14.187-.547.734-1.297.734-1.219 0-1.219-1.203-1.219-1.906 0-.485 0-1.016.25-1.406.297-.422.766-.516 1.078-.516.563 0 .97.313 1.188.61Zm0 0"/><path id="e" d="M4.922-1.172c0-.172-.188-.172-.234-.172-.172 0-.188.047-.25.203-.204.485-.782.797-1.422.797-1.407 0-1.422-1.328-1.422-1.828h3.015c.22 0 .313 0 .313-.265 0-.313-.063-1.047-.563-1.547-.359-.36-.89-.532-1.578-.532C1.187-4.516.313-3.484.313-2.25c0 1.344 1 2.313 2.609 2.313 1.578 0 2-1.063 2-1.235M3.984-2.5h-2.39c.015-.39.031-.812.234-1.14.266-.391.672-.516.953-.516 1.172 0 1.188 1.312 1.203 1.656m0 0"/><path id="f" d="M4.36-6.11c0-.421-.36-.874-1.141-.874-.969 0-2.047.422-2.047 1.547v1.015h-.75v.469h.75V-.47H.484V0l1.25-.031c.375 0 1.016 0 1.375.031v-.469H2.25v-3.484h1.14v-.469H2.188v-1.016c0-1.093.75-1.187 1-1.187.047 0 .11 0 .172.031a.59.59 0 0 0-.234.485c0 .422.36.609.61.609.296 0 .624-.203.624-.61m0 0"/><path id="g" d="M5.563-3.953c0-.235-.172-.578-.625-.578-.157 0-.625.031-1.063.375-.172-.125-.594-.328-1.328-.328-1.438 0-1.985.78-1.985 1.468 0 .407.188.829.516 1.047-.281.36-.344.688-.344.89 0 .157.047.642.438.954-.125.031-.86.25-.86.875C.313 1.25.876 2 2.86 2 4.625 2 5.406 1.422 5.406.719c0-.297-.078-.922-.75-1.266-.562-.281-1.156-.281-2.11-.281-.265 0-.718 0-.765-.016a.625.625 0 0 1-.562-.625c0-.093.047-.25.11-.328.452.234.968.266 1.218.266 1.437 0 1.984-.782 1.984-1.485 0-.468-.25-.796-.406-.953.297-.156.516-.172.625-.187a.43.43 0 0 0-.047.203c0 .25.172.422.438.422a.41.41 0 0 0 .422-.422m-2.141.937c0 .454 0 1.125-.875 1.125s-.875-.671-.875-1.125c0-.437 0-1.109.875-1.109s.875.672.875 1.11M4.547.75c0 .36-.39.89-1.688.89-1.187 0-1.687-.452-1.687-.906 0-.609.625-.609.766-.609h1.171c.313 0 1.438 0 1.438.625m0 0"/><path id="h" d="M6.125 0v-.469h-.687v-2.578c0-1.047-.532-1.437-1.532-1.437a1.9 1.9 0 0 0-1.687.953v-3.39l-1.766.077v.469c.61 0 .688 0 .688.39v5.516H.453V0l1.25-.031L2.953 0v-.469h-.687v-2.078c0-1.094.859-1.578 1.5-1.578.328 0 .547.203.547.969V-.47h-.688V0l1.25-.031Zm0 0"/><clipPath id="i"><path d="M0 53h64.164v40.55H0Zm0 0"/></clipPath><clipPath id="j"><path d="M0 0h64.164v93H0Zm0 0"/></clipPath><clipPath id="k"><path d="M0 0h64.164v66H0Zm0 0"/></clipPath></defs><use xlink:href="#a" x=".75" y="6.263"/><use xlink:href="#b" x=".352" y="35.81"/><use xlink:href="#c" x=".989" y="62.955"/><use xlink:href="#d" x=".352" y="92.502"/><use xlink:href="#e" x="57.602" y="6.263"/><use xlink:href="#f" x="58.479" y="35.869"/><use xlink:href="#g" x="57.363" y="61.994"/><use xlink:href="#h" x="57.044" y="92.532"/><path fill="none" stroke="red" stroke-miterlimit="10" stroke-width=".797" d="M9.84 4.035h43.445"/><path fill="none" stroke="red" stroke-linecap="round" stroke-linejoin="round" stroke-miterlimit="10" stroke-width=".797" d="M51.133.926c.469 1.867 1.508 2.746 2.55 3.11-1.042.362-2.081 1.245-2.55 3.112"/><path fill="none" stroke="#000" stroke-miterlimit="10" stroke-width=".399" d="M9.84 7.188 54.605 29.57"/><path fill="none" stroke="#000" stroke-linecap="round" stroke-linejoin="round" stroke-miterlimit="10" stroke-width=".39897606" d="M54 26.598c-.305 1.449.148 2.433.781 3.062-.883-.129-1.941.098-2.922 1.211"/><path fill="none" stroke="#000" stroke-miterlimit="10" stroke-width=".399" d="M7.406 9.844 55.36 81.77"/><path fill="none" stroke="#000" stroke-linecap="round" stroke-linejoin="round" stroke-miterlimit="10" stroke-width=".39897606" d="M56.313 78.883c-.985 1.113-1.083 2.187-.84 3.05-.703-.55-1.735-.878-3.141-.398"/><path fill="none" stroke="#000" stroke-miterlimit="10" stroke-width=".399" d="M10.238 29.031 53.727 7.285"/><path fill="none" stroke="#000" stroke-linecap="round" stroke-linejoin="round" stroke-miterlimit="10" stroke-width=".39897606" d="M50.984 5.984c.98 1.114 2.036 1.344 2.922 1.211-.636.63-1.086 1.614-.785 3.067"/><path fill="none" stroke="#000" stroke-miterlimit="10" stroke-width=".399" d="M10.238 32.383h44.325"/><path fill="none" stroke="#000" stroke-linecap="round" stroke-linejoin="round" stroke-miterlimit="10" stroke-width=".399" d="M52.688 29.992c.378 1.434 1.222 2.113 2.074 2.39-.852.278-1.696.958-2.075 2.391"/><path fill="none" stroke="#000" stroke-miterlimit="10" stroke-width=".399" d="m10.238 35.73 43.25 21.63"/><path fill="none" stroke="#000" stroke-linecap="round" stroke-linejoin="round" stroke-miterlimit="10" stroke-width=".39898005000000003" d="M52.883 54.387c-.305 1.449.148 2.433.785 3.062-.887-.129-1.945.098-2.926 1.211"/><path fill="none" stroke="#000" stroke-miterlimit="10" stroke-width=".399" d="m10.238 39.086 43.004 43.008"/><path fill="none" stroke="#000" stroke-linecap="round" stroke-linejoin="round" stroke-miterlimit="10" stroke-width=".39899202" d="M53.61 79.082c-.747 1.281-.63 2.356-.223 3.156-.801-.406-1.875-.523-3.157.223"/><path fill="none" stroke="#000" stroke-miterlimit="10" stroke-width=".399" d="m9.34 54.922 44.805-44.797"/><path fill="none" stroke="#000" stroke-linecap="round" stroke-linejoin="round" stroke-miterlimit="10" stroke-width=".39899202" d="M51.129 9.758c1.281.746 2.36.629 3.156.226-.402.797-.523 1.871.227 3.157"/><path fill="none" stroke="#000" stroke-miterlimit="10" stroke-width=".399" d="m9.602 57.7 45.003-22.505"/><path fill="none" stroke="#000" stroke-linecap="round" stroke-linejoin="round" stroke-miterlimit="10" stroke-width=".39897606" d="M51.86 33.895c.98 1.113 2.038 1.34 2.921 1.21-.633.63-1.086 1.614-.781 3.063"/><path fill="none" stroke="#000" stroke-miterlimit="10" stroke-width=".399" d="M9.602 60.73h43.843"/><path fill="none" stroke="#000" stroke-linecap="round" stroke-linejoin="round" stroke-miterlimit="10" stroke-width=".399" d="M51.574 58.34c.38 1.433 1.223 2.11 2.07 2.39-.847.278-1.69.958-2.07 2.391"/><path fill="none" stroke="#000" stroke-miterlimit="10" stroke-width=".399" d="m9.602 63.762 43.566 21.785"/><path fill="none" stroke="#000" stroke-linecap="round" stroke-linejoin="round" stroke-miterlimit="10" stroke-width=".39897207" d="M52.563 82.574c-.301 1.45.148 2.434.785 3.063-.887-.13-1.942.097-2.922 1.21"/><path fill="none" stroke="#000" stroke-miterlimit="10" stroke-width=".399" d="M10.238 82.375 54.68 37.93"/><path fill="none" stroke="#000" stroke-linecap="round" stroke-linejoin="round" stroke-miterlimit="10" stroke-width=".39899202" d="M51.664 37.562c1.281.747 2.356.63 3.156.227-.406.797-.523 1.875.227 3.156"/><g clip-path="url(#i)"><path fill="none" stroke="red" stroke-miterlimit="10" stroke-width=".797" d="m10.238 85.727 42.895-21.45"/></g><path fill="none" stroke="red" stroke-linecap="round" stroke-linejoin="round" stroke-miterlimit="10" stroke-width=".7969601500000001" d="M49.816 62.457c1.25 1.461 2.575 1.785 3.672 1.64-.773.794-1.308 2.048-.89 3.923"/><path fill="none" stroke="#000" stroke-miterlimit="10" stroke-width=".399" d="M10.238 89.078h42.89"/><path fill="none" stroke="#000" stroke-linecap="round" stroke-linejoin="round" stroke-miterlimit="10" stroke-width=".399" d="M51.254 86.684c.379 1.437 1.223 2.113 2.074 2.394-.851.277-1.695.953-2.074 2.39"/><g clip-path="url(#j)"><path fill="none" stroke="red" stroke-miterlimit="10" stroke-width=".797" d="M56.36 9.844 8.644 81.406"/></g><path fill="none" stroke="red" stroke-linecap="round" stroke-linejoin="round" stroke-miterlimit="10" stroke-width=".7969601500000001" d="M12.426 81.344c-1.813-.649-3.121-.274-4.004.394.277-1.07.121-2.425-1.172-3.847"/><g clip-path="url(#k)"><path fill="none" stroke="red" stroke-miterlimit="10" stroke-width=".797" d="M53.844 54.352 9.902 10.406"/></g><path fill="none" stroke="red" stroke-linecap="round" stroke-linejoin="round" stroke-miterlimit="10" stroke-width=".79698406" d="M9.223 14.129c.992-1.652.879-3.008.398-4.004.996.48 2.352.594 4-.398"/></svg>