<svg xmlns="http://www.w3.org/2000/svg" xmlns:xlink="http://www.w3.org/1999/xlink" width="226.442" height="66.35"><defs><path id="a" d="M4.406-3.672c0-.531-.531-.812-1.062-.812-.688 0-1.094.5-1.313 1.125v-1.125l-1.656.078v.468c.61 0 .688 0 .688.391v3.078H.375V0l1.25-.031C2-.031 2.641-.031 3 0v-.469h-.86v-1.75c0-.687.235-1.906 1.235-1.906 0 0-.187.172-.187.453 0 .406.328.61.609.61.297 0 .61-.204.61-.61m0 0"/><path id="b" d="M5.406-2.172c0-1.344-.922-2.344-2.547-2.344C1.22-4.516.313-3.5.313-2.172c0 1.235.89 2.235 2.546 2.235 1.672 0 2.547-1.016 2.547-2.235m-1.281-.11c0 .86 0 1.938-1.266 1.938-1.265 0-1.265-1.078-1.265-1.937 0-.453 0-.953.172-1.297.187-.375.609-.578 1.093-.578.422 0 .844.156 1.063.5.203.344.203.89.203 1.375m0 0"/><path id="c" d="M3.813-1.234v-.532h-.47v.516c0 .672-.327.906-.609.906-.578 0-.578-.64-.578-.86v-2.75h1.469v-.468H2.156v-1.906h-.469c0 1-.484 1.984-1.484 2.016v.359h.828v2.734c0 1.063.86 1.282 1.578 1.282.75 0 1.204-.579 1.204-1.297m0 0"/><path id="d" d="M4.766-1.172c0-.14-.141-.14-.235-.14-.187 0-.187.03-.25.156-.25.625-.734.812-1.234.812-1.39 0-1.39-1.453-1.39-1.922 0-.562 0-1.843 1.28-1.843.36 0 .516.015.657.046a.62.62 0 0 0-.203.47c0 .437.343.624.609.624.313 0 .64-.219.64-.625 0-.86-1.156-.922-1.734-.922C1.11-4.516.375-3.375.375-2.219.375-.89 1.313.063 2.844.063c1.625 0 1.922-1.157 1.922-1.235m0 0"/><path id="e" d="M6.125 0v-.469h-.687v-2.578c0-1.047-.532-1.437-1.532-1.437a1.9 1.9 0 0 0-1.687.953v-3.39l-1.766.077v.469c.61 0 .688 0 .688.39v5.516H.453V0l1.25-.031L2.953 0v-.469h-.687v-2.078c0-1.094.859-1.578 1.5-1.578.328 0 .547.203.547.969V-.47h-.688V0l1.25-.031Zm0 0"/><path id="f" d="M2.844 0v-.469h-.61v-4.015L.5-4.406v.468c.594 0 .656 0 .656.391v3.078H.47V0l1.219-.031Zm-.469-6.047a.774.774 0 0 0-.781-.781.784.784 0 0 0-.782.781c0 .422.36.766.782.766a.77.77 0 0 0 .781-.766m0 0"/><path id="g" d="M2.922 0v-.469h-.688v-6.453L.47-6.844v.469c.625 0 .687 0 .687.39v5.516H.47V0l1.219-.031Zm0 0"/><path id="h" d="M5.984 0v-.469c-.609 0-.687 0-.687-.39v-6.063l-1.766.078v.469c.625 0 .703 0 .703.39v1.954a2.18 2.18 0 0 0-1.359-.453c-1.453 0-2.5.875-2.5 2.28 0 1.313.922 2.267 2.39 2.267.61 0 1.094-.235 1.407-.485v.485ZM4.172-1.031c-.14.187-.547.734-1.297.734-1.219 0-1.219-1.203-1.219-1.906 0-.485 0-1.016.25-1.406.297-.422.766-.516 1.078-.516.563 0 .97.313 1.188.61Zm0 0"/><path id="i" d="M4.922 0v-.469h-1.39v-5.734c0-.234 0-.328-.266-.328-.11 0-.125 0-.22.078-.765.562-1.796.562-2 .562H.845v.47h.203c.156 0 .703-.016 1.297-.204v5.156H.954V0c.437-.031 1.5-.031 1.984-.031s1.546 0 1.984.031m0 0"/><path id="j" d="M5.156-2.219h-.468c-.032.203-.125.844-.266.906-.11.063-.86.063-1.016.063H1.937c.47-.39 1-.812 1.438-1.14 1.14-.844 1.781-1.313 1.781-2.25 0-1.157-1.047-1.891-2.437-1.891-1.219 0-2.156.625-2.156 1.515 0 .594.484.735.718.735C1.61-4.281 2-4.5 2-5c0-.516-.422-.672-.562-.719.28-.234.671-.343 1.03-.343.845 0 1.313.671 1.313 1.421 0 .688-.375 1.375-1.078 2.079l-2 2.046c-.14.11-.14.141-.14.344V0h4.28Zm0 0"/><path id="k" d="M5.563-3.953c0-.235-.172-.578-.625-.578-.157 0-.625.031-1.063.375-.172-.125-.594-.328-1.328-.328-1.438 0-1.985.78-1.985 1.468 0 .407.188.829.516 1.047-.281.36-.344.688-.344.89 0 .157.047.642.438.954-.125.031-.86.25-.86.875C.313 1.25.876 2 2.86 2 4.625 2 5.406 1.422 5.406.719c0-.297-.078-.922-.75-1.266-.562-.281-1.156-.281-2.11-.281-.265 0-.718 0-.765-.016a.625.625 0 0 1-.562-.625c0-.093.047-.25.11-.328.452.234.968.266 1.218.266 1.437 0 1.984-.782 1.984-1.485 0-.468-.25-.796-.406-.953.297-.156.516-.172.625-.187a.43.43 0 0 0-.047.203c0 .25.172.422.438.422a.41.41 0 0 0 .422-.422m-2.141.937c0 .454 0 1.125-.875 1.125s-.875-.671-.875-1.125c0-.437 0-1.109.875-1.109s.875.672.875 1.11M4.547.75c0 .36-.39.89-1.688.89-1.187 0-1.687-.452-1.687-.906 0-.609.625-.609.766-.609h1.171c.313 0 1.438 0 1.438.625m0 0"/><path id="l" d="M5.516-.234c0-.235-.125-.235-.266-.235-.61-.015-.61-.14-.61-.375v-2.14c0-.891-.702-1.532-2.187-1.532-.562 0-1.781.047-1.781.922 0 .438.344.625.61.625.312 0 .624-.219.624-.625 0-.297-.187-.469-.218-.5a5 5 0 0 1 .718-.062c.75 0 1.11.422 1.11 1.172v.343c-.72.032-3.25.125-3.25 1.563C.266-.125 1.5.062 2.188.062c.796 0 1.265-.406 1.484-.828 0 .313 0 .766 1.047.766h.468c.204 0 .329 0 .329-.234m-2-1.157c0 .97-.922 1.094-1.172 1.094-.516 0-.906-.344-.906-.797 0-1.062 1.578-1.203 2.078-1.234Zm0 0"/><path id="m" d="M6.125 0v-.469h-.687v-2.578c0-1.047-.532-1.437-1.532-1.437-.953 0-1.484.562-1.75 1.078v-1.078l-1.703.078v.468c.61 0 .688 0 .688.391v3.078H.453V0l1.25-.031L2.953 0v-.469h-.687v-2.078c0-1.094.859-1.578 1.5-1.578.328 0 .547.203.547.969V-.47h-.688V0l1.25-.031Zm0 0"/><path id="n" d="M5.25-1.797c0-.547-.297-1.406-1.734-1.719.687-.203 1.406-.765 1.406-1.625 0-.765-.75-1.39-2.156-1.39-1.188 0-1.97.64-1.97 1.437 0 .422.313.703.688.703a.67.67 0 0 0 .704-.687c0-.578-.547-.688-.579-.703.344-.282.782-.36 1.094-.36.828 0 .86.641.86.97 0 .124-.016 1.437-1.047 1.5-.407.015-.438.015-.485.03-.094.016-.125.11-.125.172 0 .172.11.172.282.172h.437c1.094 0 1.094.985 1.094 1.5 0 .469 0 1.485-1.031 1.485-.266 0-.782-.047-1.266-.344C1.75-.75 2-1 2-1.406c0-.453-.312-.75-.75-.75-.422 0-.766.265-.766.765 0 .907.97 1.5 2.25 1.5 1.782 0 2.516-1 2.516-1.906m0 0"/></defs><path fill="none" stroke="#000" stroke-miterlimit="10" stroke-width=".399" d="M63.352 39.23 44.906 52.363"/><path fill="none" stroke="#000" stroke-linecap="round" stroke-linejoin="round" stroke-miterlimit="10" stroke-width=".39898005000000003" d="M47.816 53.223c-1.14-.95-2.218-1.012-3.074-.746.531-.72.828-1.762.305-3.149"/><path fill="none" stroke="#000" stroke-miterlimit="10" stroke-width=".399" d="m83.04 39.23 18.448 13.133"/><path fill="none" stroke="#000" stroke-linecap="round" stroke-linejoin="round" stroke-miterlimit="10" stroke-width=".39898005000000003" d="M101.348 49.328c-.524 1.387-.227 2.43.3 3.149-.851-.266-1.933-.204-3.074.746"/><path fill="none" stroke="#000" stroke-miterlimit="10" stroke-width=".399" d="M192.668 39.254v12.941"/><path fill="none" stroke="#000" stroke-linecap="round" stroke-linejoin="round" stroke-miterlimit="10" stroke-width=".399" d="M195.059 50.32c-1.434.38-2.11 1.223-2.391 2.075-.277-.852-.957-1.696-2.39-2.075"/><path fill="none" stroke="#000" stroke-miterlimit="10" stroke-width=".399" d="M95.398 8.64 46.715 25.21"/><path fill="none" stroke="#000" stroke-linecap="round" stroke-linejoin="round" stroke-miterlimit="10" stroke-width=".39898404" d="M49.262 26.871c-.825-1.234-1.84-1.605-2.735-1.594.715-.539 1.297-1.453 1.192-2.933"/><path fill="none" stroke="#000" stroke-miterlimit="10" stroke-width=".399" d="M100.82 10.59 82.457 24.973"/><path fill="none" stroke="#000" stroke-linecap="round" stroke-linejoin="round" stroke-miterlimit="10" stroke-width=".39898803000000005" d="M85.406 25.7c-1.183-.895-2.265-.91-3.105-.606.496-.742.742-1.797.156-3.16"/><path fill="none" stroke="#000" stroke-miterlimit="10" stroke-width=".399" d="m123.387 8.64 48.683 16.57"/><path fill="none" stroke="#000" stroke-linecap="round" stroke-linejoin="round" stroke-miterlimit="10" stroke-width=".39898404" d="M171.066 22.344c-.101 1.48.477 2.394 1.192 2.933-.895-.011-1.91.36-2.73 1.594"/><use xlink:href="#a" x="98.918" y="7.01"/><use xlink:href="#b" x="103.64" y="7.01"/><use xlink:href="#b" x="109.688" y="7.01"/><use xlink:href="#c" x="115.416" y="7.01"/><use xlink:href="#d" x="9.416" y="35.65"/><use xlink:href="#e" x="14.188" y="35.65"/><use xlink:href="#f" x="20.554" y="35.65"/><use xlink:href="#g" x="23.732" y="35.65"/><use xlink:href="#h" x="26.91" y="35.65"/><use xlink:href="#i" x="37.092" y="35.65"/><use xlink:href="#d" x="56.495" y="35.65"/><use xlink:href="#e" x="61.267" y="35.65"/><use xlink:href="#f" x="67.633" y="35.65"/><use xlink:href="#g" x="70.811" y="35.65"/><use xlink:href="#h" x="73.989" y="35.65"/><use xlink:href="#j" x="84.171" y="35.65"/><use xlink:href="#k" x=".388" y="63.025"/><use xlink:href="#a" x="6.117" y="63.025"/><use xlink:href="#l" x="10.839" y="63.025"/><use xlink:href="#m" x="16.408" y="63.025"/><use xlink:href="#h" x="22.774" y="63.025"/><use xlink:href="#d" x="32.956" y="63.025"/><use xlink:href="#e" x="37.728" y="63.025"/><use xlink:href="#f" x="44.094" y="63.025"/><use xlink:href="#g" x="47.272" y="63.025"/><use xlink:href="#h" x="50.45" y="63.025"/><use xlink:href="#i" x="60.632" y="63.025"/><use xlink:href="#k" x="80.035" y="63.025"/><use xlink:href="#a" x="85.764" y="63.025"/><use xlink:href="#l" x="90.486" y="63.025"/><use xlink:href="#m" x="96.055" y="63.025"/><use xlink:href="#h" x="102.421" y="63.025"/><use xlink:href="#d" x="112.603" y="63.025"/><use xlink:href="#e" x="117.375" y="63.025"/><use xlink:href="#f" x="123.741" y="63.025"/><use xlink:href="#g" x="126.919" y="63.025"/><use xlink:href="#h" x="130.097" y="63.025"/><use xlink:href="#j" x="140.279" y="63.025"/><use xlink:href="#d" x="175.966" y="35.625"/><use xlink:href="#e" x="180.738" y="35.625"/><use xlink:href="#f" x="187.104" y="35.625"/><use xlink:href="#g" x="190.282" y="35.625"/><use xlink:href="#h" x="193.46" y="35.625"/><use xlink:href="#n" x="203.642" y="35.625"/><use xlink:href="#k" x="159.682" y="63.025"/><use xlink:href="#a" x="165.411" y="63.025"/><use xlink:href="#l" x="170.133" y="63.025"/><use xlink:href="#m" x="175.702" y="63.025"/><use xlink:href="#h" x="182.068" y="63.025"/><use xlink:href="#d" x="192.25" y="63.025"/><use xlink:href="#e" x="197.022" y="63.025"/><use xlink:href="#f" x="203.388" y="63.025"/><use xlink:href="#g" x="206.566" y="63.025"/><use xlink:href="#h" x="209.744" y="63.025"/><use xlink:href="#n" x="219.926" y="63.025"/></svg>