<svg xmlns="http://www.w3.org/2000/svg" width="21.952" height="4.646"><defs><clipPath id="a"><path d="M3 0h18v4.469H3Zm0 0"/></clipPath><clipPath id="b"><path d="M10 0h11.93v4.469H10Zm0 0"/></clipPath></defs><path fill="none" stroke="#000" stroke-miterlimit="10" stroke-width=".399" d="M.984 2.152h14.864"/><path d="M14.453 2.152c0-.617-1.086-1.117-2.43-1.117-1.343 0-2.43.5-2.43 1.117 0 .618 1.087 1.118 2.43 1.118s2.43-.5 2.43-1.118m0 0"/><g clip-path="url(#a)"><path fill="none" stroke="#000" stroke-miterlimit="10" stroke-width=".399" d="M14.453 2.152c0-.617-1.086-1.117-2.43-1.117-1.343 0-2.43.5-2.43 1.117 0 .618 1.087 1.118 2.43 1.118s2.43-.5 2.43-1.118Zm0 0"/></g><path d="M20.71 2.152c0-.617-1.089-1.117-2.429-1.117-1.343 0-2.433.5-2.433 1.117 0 .618 1.09 1.118 2.433 1.118 1.34 0 2.43-.5 2.43-1.118m0 0"/><g clip-path="url(#b)"><path fill="none" stroke="#000" stroke-miterlimit="10" stroke-width=".399" d="M20.71 2.152c0-.617-1.089-1.117-2.429-1.117-1.343 0-2.433.5-2.433 1.117 0 .618 1.09 1.118 2.433 1.118 1.34 0 2.43-.5 2.43-1.118Zm0 0"/></g></svg>