<svg xmlns="http://www.w3.org/2000/svg" xmlns:xlink="http://www.w3.org/1999/xlink" width="66.026" height="37.244"><defs><path id="a" d="M8.25 0v-.469h-.969L4.72-6.703c-.11-.25-.219-.25-.39-.25-.282 0-.329.078-.391.25l-2.47 6c-.062.156-.093.234-.843.234H.406V0l1.172-.031c.39 0 .938 0 1.313.031v-.469S2-.469 2-.594l.047-.125.5-1.203h2.672l.593 1.453H4.86V0c.391-.031 1.329-.031 1.766-.031.39 0 1.266 0 1.625.031M5.016-2.39H2.734l1.141-2.766Zm0 0"/><path id="b" d="M7.5-1.86c0-.952-.844-1.624-2.031-1.702 1.078-.204 1.718-.797 1.718-1.563 0-.922-.875-1.719-2.468-1.719H.39v.469h1.078v5.906H.39V0h4.625C6.672 0 7.5-.875 7.5-1.86M5.766-5.124c0 .766-.47 1.39-1.438 1.39H2.766v-2.64h1.812c1.016 0 1.188.797 1.188 1.25m.28 3.266c0 .109 0 1.39-1.437 1.39H2.766v-2.906h1.937c.203 0 .672 0 1.016.422.328.422.328.984.328 1.094m0 0"/><clipPath id="c"><path d="M8 6h54v30.867H8Zm0 0"/></clipPath></defs><use xlink:href="#a" x=".09" y="35.871"/><use xlink:href="#b" x="57.036" y="7.465"/><path fill="none" stroke="#000" stroke-miterlimit="10" stroke-width=".399" d="m12.266 28.473 41.25-20.63M12.266 28.473c0-.836.558-1.672 1.672-2.23l16.16-8.079c1.113-.559 1.668-1.394 1.668-2.23.668.504 1.672.558 2.785 0l16.16-8.079c1.113-.558 2.117-.503 2.785-.003"/><path fill="none" stroke="red" stroke-miterlimit="10" stroke-width=".399" d="M12.266 28.473c.668.5 1.672.554 2.785 0l16.16-8.082c1.113-.559 2.117-.5 2.785 0 0-.836.555-1.672 1.668-2.227l16.16-8.082c1.114-.559 1.672-1.395 1.672-2.23"/><g clip-path="url(#c)"><path fill="none" stroke="#00F" stroke-miterlimit="10" stroke-width=".399" d="M14.496 32.926c.668.504 1.668.558 2.781 0l16.16-8.082c1.114-.555 2.118-.5 2.786 0 0-.832.558-1.668 1.672-2.227l16.156-8.082c1.117-.555 1.672-1.39 1.672-2.226"/></g></svg>