<svg xmlns="http://www.w3.org/2000/svg" width="30.363" height="15.698"><defs><clipPath id="a"><path d="M19 0h11.043v11H19Zm0 0"/></clipPath></defs><path fill="none" stroke="#000" stroke-miterlimit="10" stroke-width=".399" d="M.691 11.953h27.95"/><path fill="none" stroke="#000" stroke-linecap="round" stroke-linejoin="round" stroke-miterlimit="10" stroke-width=".399" d="M26.766 9.563c.379 1.437 1.222 2.113 2.074 2.39-.852.281-1.695.957-2.074 2.395"/><path fill="none" stroke="#000" stroke-miterlimit="10" stroke-width=".399" d="M2.762 3.45h23.21"/><path fill="none" stroke="#000" stroke-linecap="round" stroke-linejoin="round" stroke-miterlimit="10" stroke-width=".399" d="M.89 5.844c.38-1.438 1.223-2.114 2.07-2.395-.847-.277-1.69-.953-2.07-2.39"/><path d="m28.469 3.45-3.57-1.345 1.175 1.344-1.176 1.348Zm0 0"/><g clip-path="url(#a)"><path fill="none" stroke="#000" stroke-miterlimit="10" stroke-width=".399" d="m28.469 3.45-3.57-1.345 1.175 1.344-1.176 1.348Zm0 0"/></g></svg>