<svg xmlns="http://www.w3.org/2000/svg" xmlns:xlink="http://www.w3.org/1999/xlink" width="165.35" height="107.318"><defs><path id="b" d="M3.89-2.547c0-.844-.078-1.36-.343-1.875-.344-.703-1-.875-1.438-.875-1 0-1.375.75-1.484.969C.344-3.75.328-2.953.328-2.547c0 .531.016 1.328.406 1.969.36.594.954.75 1.375.75.391 0 1.063-.125 1.47-.906.296-.578.312-1.297.312-1.813M2.11-.062c-.266 0-.813-.125-.985-.954-.094-.453-.094-1.203-.094-1.625 0-.546 0-1.109.094-1.546.172-.813.781-.891.984-.891.266 0 .829.14.985.86.094.437.094 1.046.094 1.577 0 .47 0 1.188-.094 1.641-.172.828-.719.938-.985.938m0 0"/><path id="c" d="M2.5-5.078c0-.219-.016-.219-.234-.219-.328.313-.75.5-1.5.5v.266c.218 0 .64 0 1.109-.203v4.078c0 .297-.031.39-.781.39H.812V0c.329-.031 1.016-.031 1.376-.031s1.046 0 1.374.031v-.266h-.28c-.75 0-.782-.093-.782-.39Zm0 0"/><path id="d" d="M2.25-1.625c.125-.125.453-.39.594-.5.484-.453.953-.89.953-1.61 0-.953-.797-1.562-1.781-1.562-.97 0-1.594.719-1.594 1.438 0 .39.312.437.422.437.172 0 .422-.11.422-.422 0-.406-.407-.406-.5-.406.234-.594.765-.781 1.156-.781.734 0 1.125.625 1.125 1.297 0 .828-.578 1.437-1.531 2.39l-1 1.047C.422-.219.422-.203.422 0h3.14l.235-1.422h-.25c-.016.156-.078.547-.172.703-.047.063-.656.063-.781.063H1.172Zm0 0"/><path id="e" d="M2.016-2.656c.625 0 1.03.453 1.03 1.297 0 1-.562 1.28-.983 1.28-.438 0-1.047-.155-1.329-.577.297 0 .5-.188.5-.438 0-.265-.187-.437-.453-.437-.203 0-.437.125-.437.453 0 .75.812 1.25 1.734 1.25 1.047 0 1.797-.734 1.797-1.531 0-.672-.531-1.266-1.344-1.453.625-.22 1.11-.75 1.11-1.391 0-.64-.72-1.094-1.547-1.094-.86 0-1.5.453-1.5 1.063 0 .297.187.422.406.422.25 0 .406-.172.406-.407 0-.297-.265-.406-.437-.406.344-.437.953-.469 1.094-.469.203 0 .812.063.812.89 0 .548-.234.891-.344 1.016-.234.25-.422.266-.906.297-.156 0-.219.016-.219.125 0 .11.078.11.219.11Zm0 0"/><path id="f" d="M3.14-5.156c0-.157 0-.219-.171-.219-.094 0-.11 0-.188.11L.234-1.564v.25h2.25v.672c0 .297-.015.375-.64.375h-.172V0c.672-.031.687-.031 1.14-.031.454 0 .47 0 1.141.031v-.266h-.172c-.625 0-.64-.078-.64-.375v-.671h.843v-.25h-.843Zm-.593.64v2.954H.516Zm0 0"/><path id="g" d="M5.563-1.812c.14 0 .312 0 .312-.172 0-.188-.172-.188-.312-.188H1c-.125 0-.297 0-.297.188 0 .172.172.172.297.172Zm0 0"/><clipPath id="a"><path d="M11 47h154.023v53H11Zm0 0"/></clipPath></defs><path fill="none" stroke="#7F7F7F" stroke-linecap="round" stroke-miterlimit="10" stroke-width=".399" d="M20.43 98.031V96.04M55.863 98.031V96.04M91.297 98.031V96.04M126.727 98.031V96.04M162.16 98.031V96.04M13.457 91.059h1.992M13.457 73.54h1.992M13.457 56.02h1.992M13.457 38.504h1.992M13.457 20.984h1.992M13.457 3.465h1.992"/><path fill="none" stroke="#7F7F7F" stroke-miterlimit="10" stroke-width=".399" d="M20.43 96.04h141.734"/><path fill="none" stroke="#BFBFBF" stroke-linecap="square" stroke-miterlimit="10" stroke-width=".399" d="M20.43 91.059h141.734M20.43 3.465h141.734"/><path fill="none" stroke="#7F7F7F" stroke-miterlimit="10" stroke-width=".399" d="M15.45 91.059V3.465"/><path fill="none" stroke="#BFBFBF" stroke-linecap="square" stroke-miterlimit="10" stroke-width=".399" d="M20.43 91.059V3.465M162.164 91.059V3.465"/><path fill="none" stroke="#000" stroke-miterlimit="10" stroke-width=".399" d="m19.02 74.95 2.82-2.821m-2.82 0 2.82 2.82M54.453 57.43l2.82-2.817m-2.82 0 2.82 2.817M89.887 39.91l2.816-2.816m-2.816 0 2.816 2.816M125.32 4.875l2.817-2.816m-2.817 0 2.817 2.816"/><g fill="none" stroke="#000" stroke-miterlimit="10" stroke-width=".598" clip-path="url(#a)"><path d="m20.43 56.02 70.867 35.039 35.43-17.52 35.433-17.52"/><path d="m20.43 73.54 35.433-17.52 35.434 17.52 35.43 17.519 35.433-17.52"/></g><use xlink:href="#b" x="18.313" y="105.823"/><use xlink:href="#c" x="53.745" y="105.823"/><use xlink:href="#d" x="89.177" y="105.823"/><use xlink:href="#e" x="124.609" y="105.823"/><use xlink:href="#f" x="160.041" y="105.823"/><use xlink:href="#g" x="-.021" y="93.21"/><use xlink:href="#c" x="6.566" y="93.21"/><use xlink:href="#b" x="6.566" y="76.107"/><use xlink:href="#c" x="6.566" y="58.589"/><use xlink:href="#d" x="6.566" y="41.071"/><use xlink:href="#e" x="6.566" y="23.553"/><use xlink:href="#f" x="6.566" y="6.036"/></svg>