<svg xmlns="http://www.w3.org/2000/svg" width="99.055" height="98.066"><defs><clipPath id="a"><path d="M76 42h22.582v27H76Zm0 0"/></clipPath><clipPath id="b"><path d="M74 6h24.582v24H74Zm0 0"/></clipPath><clipPath id="c"><path d="M72 7h26.582v28H72Zm0 0"/></clipPath><clipPath id="d"><path d="M70 0h28.582v28H70Zm0 0"/></clipPath><clipPath id="e"><path d="M71 37h27.582v33H71Zm0 0"/></clipPath><clipPath id="f"><path d="M70 73h28.582v24.598H70Zm0 0"/></clipPath><clipPath id="g"><path d="M6 76h26v21.598H6Zm0 0"/></clipPath><clipPath id="h"><path d="M74 70h24.582v27.598H74Zm0 0"/></clipPath></defs><path fill="#F99" stroke="#C00" stroke-miterlimit="10" stroke-width=".399" d="M22.652 11.707a5.977 5.977 0 1 0-11.953 0 5.977 5.977 0 0 0 11.953 0ZM62.504 26.652a5.977 5.977 0 1 0-11.953 0 5.977 5.977 0 0 0 11.953 0Zm0 0"/><path fill="#99F" stroke="#00C" stroke-miterlimit="10" stroke-width=".399" d="M41.582 64.512a6.975 6.975 0 0 0-6.973-6.977 6.975 6.975 0 0 0 0 13.95 6.97 6.97 0 0 0 6.973-6.973Zm0 0"/><path fill="#FFF" stroke="#CCC" stroke-miterlimit="10" stroke-width=".399" d="M58.52 71.484a6.97 6.97 0 0 0-6.973-6.972 6.97 6.97 0 0 0-6.973 6.972 6.97 6.97 0 0 0 6.973 6.973 6.97 6.97 0 0 0 6.973-6.973Zm0 0"/><path fill="#99F" stroke="#00C" stroke-miterlimit="10" stroke-width=".399" d="M14.684 71.484a6.975 6.975 0 0 0-13.95 0 6.975 6.975 0 0 0 13.95 0Zm0 0"/><path fill="#9F9" d="M96.379 55.543a6.975 6.975 0 1 0-13.948.005 6.975 6.975 0 0 0 13.948-.005m0 0"/><g clip-path="url(#a)"><path fill="none" stroke="#0C0" stroke-miterlimit="10" stroke-width=".399" d="M96.379 55.543a6.975 6.975 0 1 0-13.948.005 6.975 6.975 0 0 0 13.948-.005Zm0 0"/></g><path fill="#FFF" stroke="#CCC" stroke-miterlimit="10" stroke-width=".399" d="M36.602 11.707a5.977 5.977 0 1 0-11.954 0 5.977 5.977 0 0 0 11.954 0Zm0 0"/><path fill="#99F" stroke="#00C" stroke-miterlimit="10" stroke-width=".399" d="M29.629 24.66c0-5.504-4.461-9.965-9.965-9.965-5.5 0-9.96 4.461-9.96 9.965 0 5.5 4.46 9.961 9.96 9.961 5.504 0 9.965-4.46 9.965-9.96Zm0 0"/><path fill="#9F9" stroke="#0C0" stroke-miterlimit="10" stroke-width=".399" d="M44.574 48.57a6.975 6.975 0 0 0-13.949 0 6.975 6.975 0 0 0 13.95 0Zm0 0"/><path fill="#FFF" stroke="#CCC" stroke-miterlimit="10" stroke-width=".399" d="M78.445 60.527a4.98 4.98 0 0 0-4.98-4.984 4.982 4.982 0 0 0 0 9.965c2.75 0 4.98-2.23 4.98-4.98Zm0 0"/><path fill="#9F9" d="M92.395 17.684c0-3.301-2.676-5.977-5.98-5.977a5.977 5.977 0 0 0-5.978 5.977 5.978 5.978 0 1 0 11.957 0m0 0"/><g clip-path="url(#b)"><path fill="none" stroke="#0C0" stroke-miterlimit="10" stroke-width=".399" d="M92.395 17.684c0-3.301-2.676-5.977-5.98-5.977a5.977 5.977 0 0 0-5.978 5.977 5.978 5.978 0 1 0 11.957 0Zm0 0"/></g><path fill="#FFFA99" stroke="#D2C92A" stroke-miterlimit="10" stroke-width=".399" d="M48.559 42.594a4.983 4.983 0 1 0-9.966-.003 4.983 4.983 0 0 0 9.966.003Zm0 0"/><path fill="#9F9" stroke="#0C0" stroke-miterlimit="10" stroke-width=".399" d="M42.578 32.629a4.981 4.981 0 1 0-9.962.002 4.981 4.981 0 0 0 9.962-.002Zm0 0"/><path fill="#F99" stroke="#C00" stroke-miterlimit="10" stroke-width=".399" d="M38.594 25.656c0-5.504-4.461-9.965-9.961-9.965-5.504 0-9.965 4.461-9.965 9.965 0 5.5 4.46 9.961 9.965 9.961 5.5 0 9.96-4.46 9.96-9.96Zm0 0"/><path fill="#9F9" stroke="#0C0" stroke-miterlimit="10" stroke-width=".399" d="M50.55 70.488c0-4.953-4.015-8.965-8.968-8.965a8.965 8.965 0 1 0 0 17.93c4.953 0 8.969-4.012 8.969-8.965Zm0 0"/><path fill="#FFF" stroke="#CCC" stroke-miterlimit="10" stroke-width=".399" d="M88.41 59.527c0-4.949-4.015-8.965-8.969-8.965a8.965 8.965 0 0 0-8.964 8.965c0 4.953 4.011 8.97 8.964 8.97a8.97 8.97 0 0 0 8.97-8.97ZM42.578 38.605a8.965 8.965 0 1 0-17.93 0c0 4.954 4.012 8.97 8.965 8.97s8.965-4.016 8.965-8.97Zm0 0"/><path fill="#9F9" stroke="#0C0" stroke-miterlimit="10" stroke-width=".399" d="M89.406 11.707a5.98 5.98 0 0 0-5.98-5.977 5.977 5.977 0 1 0 0 11.954 5.98 5.98 0 0 0 5.98-5.977Zm0 0"/><path fill="#9F9" d="M94.387 20.676a7.974 7.974 0 0 0-7.973-7.973c-4.398 0-7.969 3.57-7.969 7.973a7.97 7.97 0 0 0 7.97 7.969 7.97 7.97 0 0 0 7.972-7.97m0 0"/><g clip-path="url(#c)"><path fill="none" stroke="#0C0" stroke-miterlimit="10" stroke-width=".399" d="M94.387 20.676a7.974 7.974 0 0 0-7.973-7.973c-4.398 0-7.969 3.57-7.969 7.973a7.97 7.97 0 0 0 7.97 7.969 7.97 7.97 0 0 0 7.972-7.97Zm0 0"/></g><path fill="#9F9" stroke="#0C0" stroke-miterlimit="10" stroke-width=".399" d="M26.64 22.668a6.975 6.975 0 1 0-13.948-.003 6.975 6.975 0 0 0 13.949.003Zm0 0"/><path fill="#99F" d="M96.379 11.707c0-5.5-4.461-9.96-9.965-9.96-5.5 0-9.96 4.46-9.96 9.96 0 5.504 4.46 9.965 9.96 9.965 5.504 0 9.965-4.461 9.965-9.965m0 0"/><g clip-path="url(#d)"><path fill="none" stroke="#00C" stroke-miterlimit="10" stroke-width=".399" d="M96.379 11.707c0-5.5-4.461-9.96-9.965-9.96-5.5 0-9.96 4.46-9.96 9.96 0 5.504 4.46 9.965 9.96 9.965 5.504 0 9.965-4.461 9.965-9.965Zm0 0"/></g><path fill="#FFF" stroke="#CCC" stroke-miterlimit="10" stroke-width=".399" d="M50.55 38.605c0-5.5-4.46-9.96-9.964-9.96-5.5 0-9.961 4.46-9.961 9.96 0 5.504 4.46 9.965 9.96 9.965 5.505 0 9.966-4.46 9.966-9.965Zm0 0"/><path fill="#9F9" stroke="#0C0" stroke-miterlimit="10" stroke-width=".399" d="M72.469 36.613c0-5.5-4.461-9.96-9.965-9.96-5.5 0-9.961 4.46-9.961 9.96 0 5.504 4.46 9.965 9.96 9.965 5.505 0 9.966-4.46 9.966-9.965Zm0 0"/><path fill="#9F9" d="M97.375 53.55c0-5.5-4.46-9.96-9.96-9.96-5.505 0-9.966 4.46-9.966 9.96 0 5.505 4.461 9.966 9.965 9.966 5.5 0 9.961-4.461 9.961-9.965m0 0"/><g clip-path="url(#e)"><path fill="none" stroke="#0C0" stroke-miterlimit="10" stroke-width=".399" d="M97.375 53.55c0-5.5-4.46-9.96-9.96-9.96-5.505 0-9.966 4.46-9.966 9.96 0 5.505 4.461 9.966 9.965 9.966 5.5 0 9.961-4.461 9.961-9.965Zm0 0"/></g><path fill="#99F" stroke="#00C" stroke-miterlimit="10" stroke-width=".399" d="M51.547 17.684c0-3.301-2.676-5.977-5.977-5.977a5.978 5.978 0 1 0 5.977 5.977Zm0 0"/><path fill="#FFFA99" d="M92.395 87.426a7.974 7.974 0 0 0-7.973-7.973c-4.399 0-7.969 3.57-7.969 7.973a7.97 7.97 0 0 0 7.969 7.969 7.97 7.97 0 0 0 7.973-7.97m0 0"/><g clip-path="url(#f)"><path fill="none" stroke="#D2C92A" stroke-miterlimit="10" stroke-width=".399" d="M92.395 87.426a7.974 7.974 0 0 0-7.973-7.973c-4.399 0-7.969 3.57-7.969 7.973a7.97 7.97 0 0 0 7.969 7.969 7.97 7.97 0 0 0 7.973-7.97Zm0 0"/></g><path fill="#FFFA99" stroke="#D2C92A" stroke-miterlimit="10" stroke-width=".399" d="M54.535 63.516c0-4.953-4.015-8.97-8.965-8.97a8.97 8.97 0 0 0-8.968 8.97c0 4.949 4.015 8.964 8.968 8.964 4.95 0 8.965-4.015 8.965-8.964ZM45.57 43.59a4.983 4.983 0 1 0-9.966-.003 4.983 4.983 0 0 0 9.966.003Zm0 0"/><path fill="#FFF" stroke="#CCC" stroke-miterlimit="10" stroke-width=".399" d="M63.5 18.684a4.98 4.98 0 0 0-4.98-4.985 4.982 4.982 0 0 0 0 9.965c2.75 0 4.98-2.23 4.98-4.98Zm0 0"/><path fill="#9F9" stroke="#0C0" stroke-miterlimit="10" stroke-width=".399" d="M75.457 10.71c0-5.5-4.46-9.96-9.965-9.96-5.5 0-9.96 4.46-9.96 9.96 0 5.505 4.46 9.966 9.96 9.966 5.504 0 9.965-4.461 9.965-9.965Zm0 0"/><path fill="#F99" stroke="#C00" stroke-miterlimit="10" stroke-width=".399" d="M51.547 64.512c0-5.504-4.461-9.965-9.965-9.965-5.5 0-9.96 4.46-9.96 9.965 0 5.5 4.46 9.96 9.96 9.96 5.504 0 9.965-4.46 9.965-9.96Zm0 0"/><path fill="#FFF" stroke="#CCC" stroke-miterlimit="10" stroke-width=".399" d="M23.652 11.707a6.975 6.975 0 1 0-13.95.005 6.975 6.975 0 0 0 13.95-.005Zm0 0"/><path fill="#99F" stroke="#00C" stroke-miterlimit="10" stroke-width=".399" d="M48.559 20.676a4.983 4.983 0 1 0-9.966-.003 4.983 4.983 0 0 0 9.966.003Zm0 0"/><path fill="#9F9" stroke="#0C0" stroke-miterlimit="10" stroke-width=".399" d="M42.578 49.566a8.96 8.96 0 0 0-8.965-8.964 8.96 8.96 0 0 0-8.965 8.964 8.96 8.96 0 0 0 8.965 8.965 8.96 8.96 0 0 0 8.965-8.965Zm0 0"/><path fill="#FFFA99" stroke="#D2C92A" stroke-miterlimit="10" stroke-width=".399" d="M77.45 82.445a7.97 7.97 0 1 0-15.942 0c0 4.399 3.57 7.97 7.972 7.97a7.97 7.97 0 0 0 7.97-7.97Zm0 0"/><path fill="#99F" stroke="#00C" stroke-miterlimit="10" stroke-width=".399" d="M53.54 42.594c0-4.953-4.017-8.969-8.966-8.969a8.97 8.97 0 0 0-8.969 8.969c0 4.949 4.016 8.965 8.97 8.965 4.948 0 8.964-4.016 8.964-8.965ZM25.645 10.71c0-5.5-4.461-9.96-9.965-9.96-5.5 0-9.961 4.46-9.961 9.96 0 5.505 4.46 9.966 9.96 9.966 5.505 0 9.966-4.461 9.966-9.965Zm0 0"/><path fill="#FFF" stroke="#CCC" stroke-miterlimit="10" stroke-width=".399" d="M66.492 81.445a6.975 6.975 0 1 0-13.95.005 6.975 6.975 0 0 0 13.95-.005Zm0 0"/><path fill="#FFF" d="M25.645 89.418a6.975 6.975 0 0 0-13.95 0 6.975 6.975 0 0 0 13.95 0m0 0"/><g clip-path="url(#g)"><path fill="none" stroke="#CCC" stroke-miterlimit="10" stroke-width=".399" d="M25.645 89.418a6.975 6.975 0 0 0-13.95 0 6.975 6.975 0 0 0 13.95 0Zm0 0"/></g><path fill="#F99" stroke="#C00" stroke-miterlimit="10" stroke-width=".399" d="M73.465 7.723a6.975 6.975 0 0 0-13.95 0 6.975 6.975 0 0 0 13.95 0Zm0 0"/><path fill="#9F9" stroke="#0C0" stroke-miterlimit="10" stroke-width=".399" d="M69.48 26.652c0-3.3-2.675-5.976-5.98-5.976a5.977 5.977 0 1 0 0 11.953 5.977 5.977 0 0 0 5.98-5.977Zm0 0"/><path fill="#FFF" stroke="#CCC" stroke-miterlimit="10" stroke-width=".399" d="M58.52 8.719a6.97 6.97 0 0 0-6.973-6.973 6.97 6.97 0 0 0-6.973 6.973 6.97 6.97 0 0 0 6.973 6.972A6.97 6.97 0 0 0 58.52 8.72Zm0 0"/><path fill="#9F9" stroke="#0C0" stroke-miterlimit="10" stroke-width=".399" d="M81.434 69.492a5.977 5.977 0 1 0-11.953 0 5.977 5.977 0 0 0 11.953 0Zm0 0"/><path fill="#99F" stroke="#00C" stroke-miterlimit="10" stroke-width=".399" d="M84.422 17.684c0-5.5-4.457-9.961-9.961-9.961s-9.965 4.46-9.965 9.96c0 5.505 4.461 9.965 9.965 9.965s9.96-4.46 9.96-9.964ZM24.648 6.727A5.98 5.98 0 0 0 18.668.75a5.977 5.977 0 1 0 0 11.953 5.98 5.98 0 0 0 5.98-5.976Zm0 0"/><path fill="#99F" stroke="#00C" stroke-miterlimit="10" stroke-width=".399" d="M87.414 34.621c0-4.95-4.016-8.965-8.969-8.965a8.965 8.965 0 0 0-8.965 8.965c0 4.953 4.012 8.969 8.965 8.969a8.97 8.97 0 0 0 8.97-8.969Zm0 0"/><path fill="#9F9" stroke="#0C0" stroke-miterlimit="10" stroke-width=".399" d="M59.516 83.441a4.98 4.98 0 0 0-4.98-4.984 4.982 4.982 0 0 0 0 9.965c2.75 0 4.98-2.23 4.98-4.98Zm0 0"/><path fill="#F99" stroke="#C00" stroke-miterlimit="10" stroke-width=".399" d="M62.504 34.621a5.977 5.977 0 1 0-11.953 0 5.98 5.98 0 0 0 5.976 5.98 5.98 5.98 0 0 0 5.977-5.98Zm0 0"/><path fill="#FFF" d="M96.379 84.438c0-4.403-3.57-7.973-7.969-7.973a7.97 7.97 0 1 0 0 15.941 7.97 7.97 0 0 0 7.969-7.968m0 0"/><g clip-path="url(#h)"><path fill="none" stroke="#CCC" stroke-miterlimit="10" stroke-width=".399" d="M96.379 84.438c0-4.403-3.57-7.973-7.969-7.973a7.97 7.97 0 1 0 0 15.941 7.97 7.97 0 0 0 7.969-7.968Zm0 0"/></g><path fill="#FFFA99" stroke="#D2C92A" stroke-miterlimit="10" stroke-width=".399" d="M46.566 37.61c0-4.4-3.57-7.97-7.972-7.97a7.97 7.97 0 0 0-7.969 7.97 7.97 7.97 0 1 0 15.941 0Zm0 0"/></svg>