<svg xmlns="http://www.w3.org/2000/svg" width="53.082" height="64.37"><defs><clipPath id="a"><path d="M37 14h15.621v21H37Zm0 0"/></clipPath><clipPath id="b"><path d="M37 28h15.621v21H37Zm0 0"/></clipPath><clipPath id="c"><path d="M33 0h19.621v22H33Zm0 0"/></clipPath></defs><path fill="none" stroke="#000" stroke-miterlimit="10" stroke-width=".399" d="m23.285 20.406-4.37 8.746M16.2 34.582l-4.372 8.742M9.113 48.754 4.743 57.5"/><g clip-path="url(#a)"><path fill="none" stroke="#000" stroke-miterlimit="10" stroke-width=".399" d="m47.422 20.406-4.371 8.746"/></g><path fill="none" stroke="#000" stroke-miterlimit="10" stroke-width=".399" d="M33.25 48.754 28.879 57.5M35.965 48.754l4.37 8.746M40.336 34.582l-4.371 8.742"/><g clip-path="url(#b)"><path fill="none" stroke="#000" stroke-miterlimit="10" stroke-width=".399" d="m43.05 34.582 4.372 8.742"/></g><path fill="none" stroke="#000" stroke-miterlimit="10" stroke-width=".399" d="m34.746 5.828-8.137 9.555"/><g clip-path="url(#c)"><path fill="none" stroke="#000" stroke-miterlimit="10" stroke-width=".399" d="m38.68 5.828 8.133 9.555"/></g><path d="M39.547 3.52A2.836 2.836 0 0 0 36.71.684a2.83 2.83 0 0 0-2.832 2.836 2.83 2.83 0 0 0 2.832 2.835 2.836 2.836 0 0 0 2.836-2.835M27.48 17.691a2.835 2.835 0 0 0-2.835-2.832 2.835 2.835 0 1 0 2.835 2.832M20.395 31.867a2.836 2.836 0 1 0-5.672 0 2.835 2.835 0 0 0 2.836 2.832 2.835 2.835 0 0 0 2.836-2.832M13.305 46.04a2.835 2.835 0 1 0-2.832 2.835 2.835 2.835 0 0 0 2.832-2.836M6.219 60.21a2.83 2.83 0 0 0-2.832-2.831A2.83 2.83 0 0 0 .55 60.21a2.835 2.835 0 1 0 5.668 0M51.613 17.691a2.834 2.834 0 1 0-5.668.004 2.834 2.834 0 0 0 5.668-.004M44.527 31.867a2.835 2.835 0 1 0-5.668 0 2.835 2.835 0 0 0 5.668 0M37.441 46.04a2.835 2.835 0 1 0-5.668 0 2.835 2.835 0 1 0 5.668 0M30.355 60.21a2.83 2.83 0 0 0-2.835-2.831 2.83 2.83 0 0 0-2.836 2.832 2.836 2.836 0 1 0 5.671 0M44.527 60.21a2.83 2.83 0 0 0-2.832-2.831 2.83 2.83 0 0 0-2.836 2.832 2.835 2.835 0 1 0 5.668 0M51.613 46.04a2.835 2.835 0 1 0-2.832 2.835 2.835 2.835 0 0 0 2.832-2.836m0 0"/></svg>