<svg xmlns="http://www.w3.org/2000/svg" width="58.709" height="7.202"><defs><clipPath id="a"><path d="M41 0h16v6.805H41Zm0 0"/></clipPath></defs><path fill="none" stroke="#000" stroke-miterlimit="10" stroke-width=".399" d="M.863 3.207h47.692"/><path d="m51.05 3.207-3.57-1.348 1.176 1.348-1.176 1.344Zm0 0"/><g clip-path="url(#a)"><path fill="none" stroke="#000" stroke-miterlimit="10" stroke-width=".399" d="m51.05 3.207-3.57-1.348 1.176 1.348-1.176 1.344Zm0 0"/></g><path fill="none" stroke="#000" stroke-linecap="round" stroke-linejoin="round" stroke-miterlimit="10" stroke-width=".399" d="M52.816.816c.38 1.434 1.223 2.114 2.07 2.391-.847.277-1.69.957-2.07 2.39M55.285.816c.38 1.434 1.223 2.114 2.074 2.391-.851.277-1.695.957-2.074 2.39"/></svg>