<svg xmlns="http://www.w3.org/2000/svg" width="89.145" height="58.898"><path fill="none" stroke="#7F7F7F" stroke-miterlimit="10" stroke-width=".199" d="M2.574 57.742h85.04M2.573 29.395h85.04M2.573 1.059h85.04M2.573 57.742V1.047m28.344 56.695V1.047m28.348 56.695V1.047m28.336 56.695V1.047"/><path d="M32.91 29.395a1.993 1.993 0 1 0-3.983.002 1.993 1.993 0 0 0 3.983-.002m28.348 23.367a1.99 1.99 0 0 0-1.992-1.992 1.993 1.993 0 1 0 1.992 1.992M4.566 21.742a1.994 1.994 0 0 0-3.988 0 1.994 1.994 0 0 0 3.988 0m0 0"/></svg>