<svg xmlns="http://www.w3.org/2000/svg" xmlns:xlink="http://www.w3.org/1999/xlink" width="100.761" height="20.234"><defs><clipPath id="a"><path d="M1 1h18v17H1Zm0 0"/></clipPath><clipPath id="b"><path d="M9.992 1.234a8.5 8.5 0 0 0-8.504 8.504 8.503 8.503 0 0 0 8.504 8.504 8.506 8.506 0 0 0 8.504-8.504c0-4.699-3.808-8.504-8.504-8.504m0 0"/></clipPath><clipPath id="d"><path d="M0 0h36v19.852H0Zm0 0"/></clipPath><clipPath id="f"><path d="M33 1h34v17H33Zm0 0"/></clipPath><clipPath id="g"><path d="M58.152 1.234H42.367a8.503 8.503 0 0 0-8.504 8.504 8.506 8.506 0 0 0 8.504 8.504h15.785c4.7 0 8.504-3.808 8.504-8.504a8.5 8.5 0 0 0-8.504-8.504m0 0"/></clipPath><clipPath id="i"><path d="M16 0h68v19.852H16Zm0 0"/></clipPath><clipPath id="n"><path d="M82 1h18v17H82Zm0 0"/></clipPath><clipPath id="o"><path d="M90.531 1.234a8.503 8.503 0 0 0-8.504 8.504 8.506 8.506 0 0 0 8.504 8.504 8.506 8.506 0 0 0 8.504-8.504c0-4.699-3.808-8.504-8.504-8.504m0 0"/></clipPath><clipPath id="q"><path d="M65 0h35.64v19.852H65Zm0 0"/></clipPath><path id="e" d="M3.297-.672a.67.67 0 0 0-.672-.687.67.67 0 0 0-.687.672c0 .39.328.687.671.687a.68.68 0 0 0 .688-.672m0 0"/><path id="j" d="M5.125-.375c0-.36-.297-.375-.469-.375h-.36v-4.86c0-.359-.062-.484-.468-.484h-.703c-.187 0-.484.016-.484.375 0 .36.297.375.468.375h.36v1.297a1.73 1.73 0 0 0-1.063-.344c-1.094 0-2.062.938-2.062 2.235C.344-.922 1.25.063 2.328.063c.485 0 .86-.204 1.14-.454.016.282.079.391.47.391h.703c.187 0 .484-.016.484-.375M3.453-1.969c0 .516-.406 1.282-1.094 1.282-.671 0-1.203-.657-1.203-1.47 0-.89.64-1.5 1.282-1.5.578 0 1.015.5 1.015 1Zm0 0"/><path id="k" d="M4.563-.375c0-.36-.297-.375-.47-.375h-.937v-3.125c0-.36-.078-.469-.469-.469H1.314c-.188 0-.485.016-.485.36 0 .375.297.39.485.39h1.015V-.75h-1.11c-.187 0-.468.016-.468.375 0 .36.297.375.469.375h2.875c.172 0 .468-.016.468-.375m-1.375-5.11a.56.56 0 0 0-.563-.562.564.564 0 0 0-.578.563c0 .328.25.562.578.562a.55.55 0 0 0 .563-.562m0 0"/><path id="l" d="M5.094-3.844c0-.25-.203-.61-.782-.61-.109 0-.578.016-1.046.329-.172-.11-.5-.266-.938-.266-.953 0-1.687.75-1.687 1.625 0 .407.156.72.312.922-.11.157-.187.375-.187.657 0 .312.109.546.187.671C.266-.046.266.61.266.72c0 .86 1.047 1.5 2.343 1.5s2.344-.64 2.344-1.5c0-.375-.187-.89-.703-1.172-.14-.078-.547-.297-1.453-.297h-.688c-.171 0-.39.047-.53-.125-.095-.11-.11-.297-.11-.297 0-.031.015-.094.031-.156.14.078.469.203.828.203.938 0 1.688-.734 1.688-1.64 0-.282-.079-.547-.235-.813.156-.078.297-.094.406-.125a.48.48 0 0 0 .438.328c.203 0 .469-.14.469-.469M3.187-2.766c0 .5-.39.907-.859.907-.484 0-.86-.422-.86-.907 0-.5.391-.89.86-.89s.86.422.86.89M4.235.72c0 .406-.703.765-1.625.765-.921 0-1.625-.359-1.625-.765 0-.156.079-.438.375-.625.22-.14.313-.14 1-.14.813 0 1.875 0 1.875.765m0 0"/><path id="m" d="M4.5-1.312c0-.204 0-.438-.422-.438-.39 0-.406.234-.406.438 0 .53-.5.625-.719.625-.656 0-.656-.454-.656-.672v-2.235h1.515c.172 0 .47-.015.47-.375 0-.375-.282-.375-.47-.375H2.298v-.718c0-.22-.016-.47-.406-.47-.422 0-.422.235-.422.47v.718H.703c-.187 0-.469.016-.469.375 0 .36.282.375.454.375h.78v2.282c0 1 .688 1.375 1.454 1.375.75 0 1.578-.454 1.578-1.375m0 0"/><path id="r" d="M5.031-.484v-.844c0-.234-.015-.484-.422-.484s-.406.234-.406.484v.578H1.75v-2.031h1.125c0 .406.047.562.422.562.39 0 .406-.25.406-.484v-.906c0-.22-.015-.47-.406-.47-.375 0-.422.157-.422.548H1.75v-1.813h2.234v.438c0 .218 0 .484.407.484.422 0 .422-.25.422-.484v-.703c0-.36-.079-.485-.47-.485H.72c-.188 0-.485.016-.485.375 0 .36.297.375.485.375h.203V-.75H.719c-.188 0-.485.016-.485.375 0 .36.297.375.485.375h3.844c.375 0 .468-.094.468-.484m0 0"/><linearGradient id="c" x1="0" x2="0" y1="25.003" y2="74.997" gradientTransform="matrix(.3402 0 0 -.3402 -7.019 26.747)" gradientUnits="userSpaceOnUse"><stop offset="0" stop-color="#CCC"/><stop offset=".016" stop-color="#CCC"/><stop offset=".031" stop-color="#CDCDCD"/><stop offset=".047" stop-color="#CECECE"/><stop offset=".063" stop-color="#CFCFCF"/><stop offset=".078" stop-color="#D0D0D0"/><stop offset=".094" stop-color="#D0D0D0"/><stop offset=".109" stop-color="#D1D1D1"/><stop offset=".125" stop-color="#D2D2D2"/><stop offset=".141" stop-color="#D3D3D3"/><stop offset=".156" stop-color="#D4D4D4"/><stop offset=".172" stop-color="#D4D4D4"/><stop offset=".188" stop-color="#D5D5D5"/><stop offset=".203" stop-color="#D6D6D6"/><stop offset=".219" stop-color="#D7D7D7"/><stop offset=".234" stop-color="#D8D8D8"/><stop offset=".25" stop-color="#D8D8D8"/><stop offset=".266" stop-color="#D9D9D9"/><stop offset=".281" stop-color="#DADADA"/><stop offset=".297" stop-color="#DBDBDB"/><stop offset=".313" stop-color="#DCDCDC"/><stop offset=".328" stop-color="#DCDCDC"/><stop offset=".344" stop-color="#DDD"/><stop offset=".359" stop-color="#DEDEDE"/><stop offset=".375" stop-color="#DFDFDF"/><stop offset=".391" stop-color="#E0E0E0"/><stop offset=".406" stop-color="#E0E0E0"/><stop offset=".422" stop-color="#E1E1E1"/><stop offset=".438" stop-color="#E2E2E2"/><stop offset=".453" stop-color="#E3E3E3"/><stop offset=".469" stop-color="#E4E4E4"/><stop offset=".484" stop-color="#E4E4E4"/><stop offset=".5" stop-color="#E5E5E5"/><stop offset=".516" stop-color="#E6E6E6"/><stop offset=".531" stop-color="#E7E7E7"/><stop offset=".547" stop-color="#E7E7E7"/><stop offset=".563" stop-color="#E8E8E8"/><stop offset=".578" stop-color="#E9E9E9"/><stop offset=".594" stop-color="#EAEAEA"/><stop offset=".609" stop-color="#EBEBEB"/><stop offset=".625" stop-color="#EBEBEB"/><stop offset=".641" stop-color="#ECECEC"/><stop offset=".656" stop-color="#EDEDED"/><stop offset=".672" stop-color="#EEE"/><stop offset=".688" stop-color="#EFEFEF"/><stop offset=".703" stop-color="#EFEFEF"/><stop offset=".719" stop-color="#F0F0F0"/><stop offset=".734" stop-color="#F1F1F1"/><stop offset=".75" stop-color="#F2F2F2"/><stop offset=".766" stop-color="#F3F3F3"/><stop offset=".781" stop-color="#F3F3F3"/><stop offset=".797" stop-color="#F4F4F4"/><stop offset=".813" stop-color="#F5F5F5"/><stop offset=".828" stop-color="#F6F6F6"/><stop offset=".844" stop-color="#F7F7F7"/><stop offset=".859" stop-color="#F7F7F7"/><stop offset=".875" stop-color="#F8F8F8"/><stop offset=".891" stop-color="#F9F9F9"/><stop offset=".906" stop-color="#FAFAFA"/><stop offset=".922" stop-color="#FBFBFB"/><stop offset=".938" stop-color="#FBFBFB"/><stop offset=".953" stop-color="#FCFCFC"/><stop offset=".969" stop-color="#FDFDFD"/><stop offset=".984" stop-color="#FEFEFE"/><stop offset="1" stop-color="#FFF"/></linearGradient><linearGradient id="h" x1="0" x2="0" y1="25.003" y2="74.997" gradientTransform="matrix(.65594 0 0 -.3402 17.464 26.747)" gradientUnits="userSpaceOnUse"><stop offset="0" stop-color="#CCC"/><stop offset=".016" stop-color="#CCC"/><stop offset=".031" stop-color="#CDCDCD"/><stop offset=".047" stop-color="#CECECE"/><stop offset=".063" stop-color="#CFCFCF"/><stop offset=".078" stop-color="#D0D0D0"/><stop offset=".094" stop-color="#D0D0D0"/><stop offset=".109" stop-color="#D1D1D1"/><stop offset=".125" stop-color="#D2D2D2"/><stop offset=".141" stop-color="#D3D3D3"/><stop offset=".156" stop-color="#D4D4D4"/><stop offset=".172" stop-color="#D4D4D4"/><stop offset=".188" stop-color="#D5D5D5"/><stop offset=".203" stop-color="#D6D6D6"/><stop offset=".219" stop-color="#D7D7D7"/><stop offset=".234" stop-color="#D8D8D8"/><stop offset=".25" stop-color="#D8D8D8"/><stop offset=".266" stop-color="#D9D9D9"/><stop offset=".281" stop-color="#DADADA"/><stop offset=".297" stop-color="#DBDBDB"/><stop offset=".313" stop-color="#DCDCDC"/><stop offset=".328" stop-color="#DCDCDC"/><stop offset=".344" stop-color="#DDD"/><stop offset=".359" stop-color="#DEDEDE"/><stop offset=".375" stop-color="#DFDFDF"/><stop offset=".391" stop-color="#E0E0E0"/><stop offset=".406" stop-color="#E0E0E0"/><stop offset=".422" stop-color="#E1E1E1"/><stop offset=".438" stop-color="#E2E2E2"/><stop offset=".453" stop-color="#E3E3E3"/><stop offset=".469" stop-color="#E4E4E4"/><stop offset=".484" stop-color="#E4E4E4"/><stop offset=".5" stop-color="#E5E5E5"/><stop offset=".516" stop-color="#E6E6E6"/><stop offset=".531" stop-color="#E7E7E7"/><stop offset=".547" stop-color="#E7E7E7"/><stop offset=".563" stop-color="#E8E8E8"/><stop offset=".578" stop-color="#E9E9E9"/><stop offset=".594" stop-color="#EAEAEA"/><stop offset=".609" stop-color="#EBEBEB"/><stop offset=".625" stop-color="#EBEBEB"/><stop offset=".641" stop-color="#ECECEC"/><stop offset=".656" stop-color="#EDEDED"/><stop offset=".672" stop-color="#EEE"/><stop offset=".688" stop-color="#EFEFEF"/><stop offset=".703" stop-color="#EFEFEF"/><stop offset=".719" stop-color="#F0F0F0"/><stop offset=".734" stop-color="#F1F1F1"/><stop offset=".75" stop-color="#F2F2F2"/><stop offset=".766" stop-color="#F3F3F3"/><stop offset=".781" stop-color="#F3F3F3"/><stop offset=".797" stop-color="#F4F4F4"/><stop offset=".813" stop-color="#F5F5F5"/><stop offset=".828" stop-color="#F6F6F6"/><stop offset=".844" stop-color="#F7F7F7"/><stop offset=".859" stop-color="#F7F7F7"/><stop offset=".875" stop-color="#F8F8F8"/><stop offset=".891" stop-color="#F9F9F9"/><stop offset=".906" stop-color="#FAFAFA"/><stop offset=".922" stop-color="#FBFBFB"/><stop offset=".938" stop-color="#FBFBFB"/><stop offset=".953" stop-color="#FCFCFC"/><stop offset=".969" stop-color="#FDFDFD"/><stop offset=".984" stop-color="#FEFEFE"/><stop offset="1" stop-color="#FFF"/></linearGradient><linearGradient id="p" x1="0" x2="0" y1="25.003" y2="74.997" gradientTransform="matrix(.3402 0 0 -.3402 73.52 26.747)" gradientUnits="userSpaceOnUse"><stop offset="0" stop-color="#CCC"/><stop offset=".016" stop-color="#CCC"/><stop offset=".031" stop-color="#CDCDCD"/><stop offset=".047" stop-color="#CECECE"/><stop offset=".063" stop-color="#CFCFCF"/><stop offset=".078" stop-color="#D0D0D0"/><stop offset=".094" stop-color="#D0D0D0"/><stop offset=".109" stop-color="#D1D1D1"/><stop offset=".125" stop-color="#D2D2D2"/><stop offset=".141" stop-color="#D3D3D3"/><stop offset=".156" stop-color="#D4D4D4"/><stop offset=".172" stop-color="#D4D4D4"/><stop offset=".188" stop-color="#D5D5D5"/><stop offset=".203" stop-color="#D6D6D6"/><stop offset=".219" stop-color="#D7D7D7"/><stop offset=".234" stop-color="#D8D8D8"/><stop offset=".25" stop-color="#D8D8D8"/><stop offset=".266" stop-color="#D9D9D9"/><stop offset=".281" stop-color="#DADADA"/><stop offset=".297" stop-color="#DBDBDB"/><stop offset=".313" stop-color="#DCDCDC"/><stop offset=".328" stop-color="#DCDCDC"/><stop offset=".344" stop-color="#DDD"/><stop offset=".359" stop-color="#DEDEDE"/><stop offset=".375" stop-color="#DFDFDF"/><stop offset=".391" stop-color="#E0E0E0"/><stop offset=".406" stop-color="#E0E0E0"/><stop offset=".422" stop-color="#E1E1E1"/><stop offset=".438" stop-color="#E2E2E2"/><stop offset=".453" stop-color="#E3E3E3"/><stop offset=".469" stop-color="#E4E4E4"/><stop offset=".484" stop-color="#E4E4E4"/><stop offset=".5" stop-color="#E5E5E5"/><stop offset=".516" stop-color="#E6E6E6"/><stop offset=".531" stop-color="#E7E7E7"/><stop offset=".547" stop-color="#E7E7E7"/><stop offset=".563" stop-color="#E8E8E8"/><stop offset=".578" stop-color="#E9E9E9"/><stop offset=".594" stop-color="#EAEAEA"/><stop offset=".609" stop-color="#EBEBEB"/><stop offset=".625" stop-color="#EBEBEB"/><stop offset=".641" stop-color="#ECECEC"/><stop offset=".656" stop-color="#EDEDED"/><stop offset=".672" stop-color="#EEE"/><stop offset=".688" stop-color="#EFEFEF"/><stop offset=".703" stop-color="#EFEFEF"/><stop offset=".719" stop-color="#F0F0F0"/><stop offset=".734" stop-color="#F1F1F1"/><stop offset=".75" stop-color="#F2F2F2"/><stop offset=".766" stop-color="#F3F3F3"/><stop offset=".781" stop-color="#F3F3F3"/><stop offset=".797" stop-color="#F4F4F4"/><stop offset=".813" stop-color="#F5F5F5"/><stop offset=".828" stop-color="#F6F6F6"/><stop offset=".844" stop-color="#F7F7F7"/><stop offset=".859" stop-color="#F7F7F7"/><stop offset=".875" stop-color="#F8F8F8"/><stop offset=".891" stop-color="#F9F9F9"/><stop offset=".906" stop-color="#FAFAFA"/><stop offset=".922" stop-color="#FBFBFB"/><stop offset=".938" stop-color="#FBFBFB"/><stop offset=".953" stop-color="#FCFCFC"/><stop offset=".969" stop-color="#FDFDFD"/><stop offset=".984" stop-color="#FEFEFE"/><stop offset="1" stop-color="#FFF"/></linearGradient></defs><g clip-path="url(#a)"><g clip-path="url(#b)"><path fill="url(#c)" d="M1.488 18.242V1.234h17.008v17.008Zm0 0"/></g></g><g clip-path="url(#d)"><path fill="none" stroke="#7F7F7F" stroke-miterlimit="10" stroke-width="1.196" d="M9.992 1.234a8.5 8.5 0 0 0-8.504 8.504 8.503 8.503 0 0 0 8.504 8.504 8.506 8.506 0 0 0 8.504-8.504c0-4.699-3.808-8.504-8.504-8.504Zm0 0"/></g><use xlink:href="#e" x="7.375" y="10.419"/><g clip-path="url(#f)"><g clip-path="url(#g)"><path fill="url(#h)" d="M33.863 18.242V1.234h32.793v17.008Zm0 0"/></g></g><g clip-path="url(#i)"><path fill="none" stroke="#7F7F7F" stroke-miterlimit="10" stroke-width="1.196" d="M58.152 1.234H42.367a8.503 8.503 0 0 0-8.504 8.504 8.506 8.506 0 0 0 8.504 8.504h15.785c4.7 0 8.504-3.808 8.504-8.504a8.5 8.5 0 0 0-8.504-8.504Zm0 0"/></g><use xlink:href="#j" x="37.184" y="11.669"/><use xlink:href="#k" x="42.415" y="11.669"/><use xlink:href="#l" x="47.645" y="11.669"/><use xlink:href="#k" x="52.876" y="11.669"/><use xlink:href="#m" x="58.106" y="11.669"/><g clip-path="url(#n)"><g clip-path="url(#o)"><path fill="url(#p)" d="M82.027 18.242V1.234h17.008v17.008Zm0 0"/></g></g><g clip-path="url(#q)"><path fill="none" stroke="#7F7F7F" stroke-miterlimit="10" stroke-width="1.196" d="M90.531 1.234a8.503 8.503 0 0 0-8.504 8.504 8.506 8.506 0 0 0 8.504 8.504 8.506 8.506 0 0 0 8.504-8.504c0-4.699-3.808-8.504-8.504-8.504Zm0 0"/></g><use xlink:href="#r" x="87.915" y="12.78"/></svg>