<svg xmlns="http://www.w3.org/2000/svg" xmlns:xlink="http://www.w3.org/1999/xlink" width="58.378" height="54.092"><defs><path id="b" d="M7.64-2.266c0-.203-.077-.203-.25-.203-.124 0-.218 0-.218.172C7.094-.969 5.89-.359 4.89-.359c-.782 0-1.625-.235-2.141-.844-.469-.578-.594-1.313-.594-2.219 0-.562.031-1.625.672-2.297.64-.656 1.516-.765 2.031-.765 1.079 0 2.016.765 2.235 2.03.031.188.047.204.265.204.266 0 .282-.016.282-.281v-2.14c0-.188 0-.282-.188-.282-.094 0-.11.031-.187.094l-.657.593a3.03 3.03 0 0 0-1.968-.687c-2.485 0-4 1.484-4 3.531S2.156.11 4.64.11c1.875 0 3-1.218 3-2.375m0 0"/><path id="c" d="M5.406-2.172c0-1.344-.922-2.344-2.547-2.344C1.22-4.516.313-3.5.313-2.172c0 1.235.89 2.235 2.546 2.235 1.672 0 2.547-1.016 2.547-2.235m-1.281-.11c0 .86 0 1.938-1.266 1.938-1.265 0-1.265-1.078-1.265-1.937 0-.453 0-.953.172-1.297.187-.375.609-.578 1.093-.578.422 0 .844.156 1.063.5.203.344.203.89.203 1.375m0 0"/><path id="d" d="M6.125 0v-.469h-.687v-2.578c0-1.047-.532-1.437-1.532-1.437-.953 0-1.484.562-1.75 1.078v-1.078l-1.703.078v.468c.61 0 .688 0 .688.391v3.078H.453V0l1.25-.031L2.953 0v-.469h-.687v-2.078c0-1.094.859-1.578 1.5-1.578.328 0 .547.203.547.969V-.47h-.688V0l1.25-.031Zm0 0"/><path id="e" d="M4.766-1.172c0-.14-.141-.14-.235-.14-.187 0-.187.03-.25.156-.25.625-.734.812-1.234.812-1.39 0-1.39-1.453-1.39-1.922 0-.562 0-1.843 1.28-1.843.36 0 .516.015.657.046a.62.62 0 0 0-.203.47c0 .437.343.624.609.624.313 0 .64-.219.64-.625 0-.86-1.156-.922-1.734-.922C1.11-4.516.375-3.375.375-2.219.375-.89 1.313.063 2.844.063c1.625 0 1.922-1.157 1.922-1.235m0 0"/><path id="f" d="M5.516-.234c0-.235-.125-.235-.266-.235-.61-.015-.61-.14-.61-.375v-2.14c0-.891-.702-1.532-2.187-1.532-.562 0-1.781.047-1.781.922 0 .438.344.625.61.625.312 0 .624-.219.624-.625 0-.297-.187-.469-.218-.5a5 5 0 0 1 .718-.062c.75 0 1.11.422 1.11 1.172v.343c-.72.032-3.25.125-3.25 1.563C.266-.125 1.5.062 2.188.062c.796 0 1.265-.406 1.484-.828 0 .313 0 .766 1.047.766h.468c.204 0 .329 0 .329-.234m-2-1.157c0 .97-.922 1.094-1.172 1.094-.516 0-.906-.344-.906-.797 0-1.062 1.578-1.203 2.078-1.234Zm0 0"/><path id="g" d="M5.781-3.953v-.469c-.25.016-.531.031-.781.031l-.906-.03v.468c.187 0 .468.031.468.11 0 0 0 .015-.046.109l-1.157 2.5-1.265-2.72h.531v-.468l-1.234.031-1.125-.03v.468H.89l1.75 3.75c.125.25.25.25.375.25.172 0 .28-.031.375-.25L5.047-3.75c.062-.14.094-.203.734-.203m0 0"/><path id="h" d="M4.922-1.172c0-.172-.188-.172-.234-.172-.172 0-.188.047-.25.203-.204.485-.782.797-1.422.797-1.407 0-1.422-1.328-1.422-1.828h3.015c.22 0 .313 0 .313-.265 0-.313-.063-1.047-.563-1.547-.359-.36-.89-.532-1.578-.532C1.187-4.516.313-3.484.313-2.25c0 1.344 1 2.313 2.609 2.313 1.578 0 2-1.063 2-1.235M3.984-2.5h-2.39c.015-.39.031-.812.234-1.14.266-.391.672-.516.953-.516 1.172 0 1.188 1.312 1.203 1.656m0 0"/><path id="j" d="M5.828 0v-.469h-.703L3.453-2.453 4.61-3.75c.141-.14.204-.203 1.016-.203v-.469l-.906.031-1.032-.03v.468c.141 0 .266.015.376.078-.032.063-.032.094-.079.125l-.828.938-.984-1.141h.406v-.469L1.36-4.39.266-4.42v.468h.718l1.547 1.828L1.22-.656c-.157.187-.516.187-1 .187V0l.922-.031L2.156 0v-.469c-.172 0-.36-.047-.36-.11 0 0 0-.015.063-.093l.97-1.094L3.921-.469h-.39V0l1.202-.031Zm0 0"/><path id="l" d="M8.578-6.375v-.469c-.39.032-.953.032-1.344.032-.421 0-.937 0-1.343-.032v.469h.25c.172 0 .343.016.53.031.282.032.298.047.298.266v4.031L3-6.703c-.11-.125-.125-.14-.328-.14H.39v.468h1.078V-.75c0 .219-.016.219-.297.25-.234.031-.25.031-.531.031H.39V0c.375-.031.937-.031 1.328-.031.422 0 .937 0 1.36.031v-.469h-.25c-.188 0-.36-.015-.532-.031C2-.531 2-.531 2-.75v-5.219L6.953-.125c.11.11.11.125.281.125C7.5 0 7.5-.094 7.5-.312v-5.766c0-.219 0-.234.281-.266.25-.031.266-.031.547-.031Zm0 0"/><clipPath id="a"><path d="M0 0h58.066v21H0Zm0 0"/></clipPath><clipPath id="i"><path d="M3 14h55.066v26H3Zm0 0"/></clipPath><clipPath id="k"><path d="M9 33h46v20.637H9Zm0 0"/></clipPath></defs><g clip-path="url(#a)"><path fill="none" stroke="#000" stroke-miterlimit="10" stroke-width=".399" d="M31.715.754h18.297a6.848 6.848 0 0 1 0 13.695H.699A6.848 6.848 0 0 0 .7.754Zm0 0"/></g><use xlink:href="#b" x="10.867" y="11.018"/><use xlink:href="#c" x="19.146" y="11.018"/><use xlink:href="#d" x="24.874" y="11.018"/><use xlink:href="#e" x="31.241" y="11.018"/><use xlink:href="#f" x="36.332" y="11.018"/><use xlink:href="#g" x="41.582" y="11.018"/><use xlink:href="#h" x="47.31" y="11.018"/><g clip-path="url(#i)"><path fill="none" stroke="#000" stroke-miterlimit="10" stroke-width=".399" d="M31.715 19.828h15.992a6.845 6.845 0 0 1 6.844 6.848 6.845 6.845 0 0 1-6.844 6.847H15.723a6.846 6.846 0 0 1-6.848-6.847 6.846 6.846 0 0 1 6.848-6.848Zm0 0"/></g><use xlink:href="#b" x="13.173" y="30.093"/><use xlink:href="#c" x="21.452" y="30.093"/><use xlink:href="#d" x="27.18" y="30.093"/><use xlink:href="#g" x="33.228" y="30.093"/><use xlink:href="#h" x="38.956" y="30.093"/><use xlink:href="#j" x="44.207" y="30.093"/><g clip-path="url(#k)"><path fill="none" stroke="#000" stroke-miterlimit="10" stroke-width=".399" d="M31.715 38.902h10.652a6.768 6.768 0 0 1 0 13.535H15.238V38.903Zm0 0"/></g><use xlink:href="#l" x="18.558" y="49.057"/><use xlink:href="#c" x="27.524" y="49.057"/><use xlink:href="#d" x="33.253" y="49.057"/><use xlink:href="#h" x="39.619" y="49.057"/></svg>