<svg xmlns="http://www.w3.org/2000/svg" xmlns:xlink="http://www.w3.org/1999/xlink" width="70.657" height="34.407"><defs><path id="a" d="M11.172-.453c0-.438-.188-.438-.469-.438-1.297-.015-1.297-.343-1.297-.828v-4.453c0-1.906-1.515-3.187-4.422-3.187-1.156 0-3.593.109-3.593 1.843 0 .86.656 1.235 1.218 1.235.61 0 1.22-.438 1.22-1.219 0-.39-.157-.766-.5-.984C4-8.672 4.5-8.672 4.89-8.672c1.406 0 2.25.781 2.25 2.469v.828c-3.25 0-6.547.906-6.547 3.203C.594-.297 3 .125 4.422.125c1.594 0 2.594-.875 3.016-1.781 0 .765 0 1.656 2.078 1.656h1.062c.438 0 .594 0 .594-.453M7.14-2.875C7.14-.922 5.406-.562 4.75-.562c-1.016 0-1.86-.672-1.86-1.625 0-1.876 2.235-2.516 4.25-2.625Zm0 0"/><path id="b" d="M16.922 0v-.89h-1.985L9.704-8.188l3.5-4.657c.203-.265.281-.312.969-.375.531-.062.625-.062 1.219-.062h.53v-.89c-.468.046-2.124.046-2.702.046-.64 0-2.438 0-2.953-.047v.89c.25 0 1.265 0 1.875.25L9.125-8.983l-3.078-4.297h1.719v-.89c-.75.046-2.688.046-3.532.046-.703 0-2.75 0-3.312-.047v.89h2.015l4.579 6.423-4.157 5.53c-.171.25-.234.313-.968.376-.516.047-.61.062-1.188.062H.641V0c.468-.047 2.14-.047 2.718-.047.641 0 2.422 0 2.938.047v-.89c-.219 0-1.281 0-1.875-.25l3.672-4.907L11.813-.89h-1.72V0c.673-.047 2.735-.047 3.516-.047.672 0 2.797 0 3.313.047m0 0"/><path id="c" d="M11.25-8.266c0-.5-.36-1.156-1.234-1.156-.891 0-1.735.438-2.172.813-.844-.5-1.64-.688-2.703-.688-2.844 0-3.985 1.594-3.985 3.031 0 .641.203 1.5 1.078 2.204-.359.39-.718 1.109-.718 1.859 0 .875.468 1.64.906 1.969C1.922-.11.64.375.64 1.546c0 1.22 1.343 2.61 5.14 2.61 3.438 0 5.172-1.125 5.172-2.672 0-1.812-1.203-2.406-1.719-2.656-1-.5-2.312-.5-4.125-.5-.53 0-1.437 0-1.53-.016-.892-.156-1.142-.937-1.142-1.328 0-.171.016-.468.25-.75.985.547 2.141.547 2.454.547 2.859 0 3.984-1.594 3.984-3.047 0-1.046-.594-1.796-.844-2a3.8 3.8 0 0 1 1.453-.453c-.062.11-.125.188-.125.453 0 .438.282.829.829.829.53 0 .812-.391.812-.829m-4.312 2c0 .954 0 2.375-1.797 2.375S3.344-5.312 3.344-6.266c0-.937 0-2.375 1.797-2.375s1.797 1.438 1.797 2.375M9.25 1.563c0 .734-.719 1.921-3.453 1.921-2.719 0-3.469-1.156-3.469-1.937C2.328.234 3.641.234 3.953.234h2.344C7.813.234 9.25.5 9.25 1.563m0 0"/></defs><path fill="none" stroke="red" stroke-miterlimit="10" stroke-width=".399" d="M1.027 32.91h68.258V.902H1.027Zm0 0"/><path fill="none" stroke="#000" stroke-miterlimit="10" stroke-width=".399" d="M4.547 25.363h17.945V9.238H4.547Zm0 0"/><use xlink:href="#a" x="7.87" y="21.919"/><path fill="#00F" d="M15.512 21.918a1.993 1.993 0 1 0-3.983.002 1.993 1.993 0 0 0 3.983-.002m0 0"/><path fill="none" stroke="#000" stroke-miterlimit="10" stroke-width=".399" d="M22.89 25.238h24.204V4.422H22.89Zm0 0"/><use xlink:href="#b" x="26.21" y="21.919"/><path fill="#00F" d="M36.984 21.918a1.99 1.99 0 0 0-1.992-1.992A1.99 1.99 0 0 0 33 21.918a1.99 1.99 0 0 0 1.992 1.992 1.99 1.99 0 0 0 1.992-1.992m0 0"/><path fill="none" stroke="#000" stroke-miterlimit="10" stroke-width=".399" d="M47.492 29.39H65.77V9.177H47.492Zm0 0"/><use xlink:href="#c" x="50.813" y="21.919"/><path fill="#00F" d="M58.625 21.918a1.994 1.994 0 0 0-3.988 0 1.994 1.994 0 0 0 3.988 0m0 0"/></svg>