<svg xmlns="http://www.w3.org/2000/svg" xmlns:xlink="http://www.w3.org/1999/xlink" width="87.724" height="59.096"><defs><clipPath id="b"><path d="M20 0h67.586v50H20Zm0 0"/></clipPath><path id="a" d="M3.953-3.781c-.172 0-.297 0-.437.125a.53.53 0 0 0-.188.39c0 .25.188.36.375.36.281 0 .547-.25.547-.64 0-.485-.469-.86-1.172-.86-1.344 0-2.672 1.422-2.672 2.828C.406-.672.984.109 2.031.109c1.422 0 2.25-1.062 2.25-1.171 0-.063-.047-.141-.11-.141-.062 0-.077.031-.14.11-.781.984-1.875.984-1.984.984-.625 0-.906-.485-.906-1.094 0-.406.203-1.375.547-1.984.312-.579.859-1 1.406-1 .328 0 .719.125.86.406m0 0"/></defs><path fill="none" stroke="#7F7F7F" stroke-miterlimit="10" stroke-width=".199" d="M.973 57.531h85.039M.972 29.184h85.04M.972.848h85.04M.972 57.53V.836M29.317 57.53V.836M57.664 57.53V.836M86 57.53V.836"/><path fill="none" stroke="#000" stroke-miterlimit="10" stroke-width=".399" d="M49.242 29.184c0-11.004-8.918-19.926-19.926-19.926-11.003 0-19.925 8.922-19.925 19.926s8.922 19.925 19.925 19.925c11.008 0 19.926-8.922 19.926-19.925Zm0 0"/><use xlink:href="#a" x="27.161" y="31.328"/><g clip-path="url(#b)"><path fill="none" stroke="red" stroke-miterlimit="10" stroke-width=".399" d="M86.012.836 26.504 9.258l2.812 19.926L43.57 43.39Zm0 0"/></g></svg>