<svg xmlns="http://www.w3.org/2000/svg" width="92.054" height="63.758"><defs><clipPath id="a"><path d="M2 0h89.582v62H2Zm0 0"/></clipPath><clipPath id="b"><path d="M0 47h16v16.637H0Zm0 0"/></clipPath></defs><path fill="none" stroke="#000" stroke-miterlimit="10" stroke-width=".399" d="M73.785 12.176a4.694 4.694 0 0 0-6.512-1.301 4.694 4.694 0 0 0-1.3 6.512 4.694 4.694 0 0 0 6.511 1.3 4.694 4.694 0 0 0 1.301-6.511Zm0 0"/><g clip-path="url(#a)"><path fill="none" stroke="#000" stroke-miterlimit="10" stroke-width=".399" d="m8.348 55.8 57.457-38.304m8.148-5.43L90.461 1.06"/></g><g clip-path="url(#b)"><path fill="none" stroke="#000" stroke-miterlimit="10" stroke-width=".399" d="M6.344 53.148.816 56.832 4.5 62.359l5.527-3.683Zm0 0"/></g></svg>