<svg xmlns="http://www.w3.org/2000/svg" xmlns:xlink="http://www.w3.org/1999/xlink" width="268.661" height="387.938"><defs><path id="b" d="m12.375-76.016-2.344 4.047c10.813 8.781 17.078 15.625 7.875 31.578l-7.578 13.11L-14-41.328l2.734-4.734c4.782-8.282 8.985-7.016 15.375-3.329l2.344-4.047-24.234-13.984-2.344 4.047c6.375 3.672 9.656 6.61 4.813 14.984l-2.735 4.735-22.172-12.813 7.578-13.11c8.016-13.89 15.594-12.5 26.844-7.843l2.344-4.062-22.344-9.329-30.937 53.563 4.062 2.344 5.375-9.297L3.25-15.016l-5.375 9.297 4.063 2.344 31.78-55.047Zm0 0"/><path id="c" d="m29.14-50.469-4.062-2.343-3.547 6.124-25.515 4.594-5.391-16.562c-.578-1.828-.875-2.688 3.266-9.844l-4.063-2.344-4.312 8.063-5.407 8.75 4.063 2.343c.703-1.203 1.469-2.156 2.656-2.828.328.625.516.735.656 1.297l3.922 11.907-14.797 2.734 1.985-3.453-4.063-2.344-5.75 10.578-5.75 9.36 4.063 2.343 3.531-6.125 23.656-4.312 6.14 18.64c.798 2.407-1 5.516-3.39 9.657l4.063 2.343 4.328-8.093 5.39-8.75-4.062-2.344c-.906 1.562-2.281 2.953-2.781 2.656 0 0-.188-.094-.531-1.094l-4.579-13.797 16.704-3.015-1.954 3.36 4.063 2.343 5.734-10.5Zm0 0"/><path id="d" d="M25.484-48.906c-2-1.157-2.656-.032-3.297 1.093-3.125 5.22-4.25 4.579-6.234 3.422L-2.594-55.094C-10.28-59.53-19.406-56.64-26.828-43.78c-2.844 4.906-8.578 15.64-1 20.015 3.812 2.203 7.203.125 8.547-2.218 1.547-2.657 1.328-6.47-2.313-8.563-2.578-1.484-4.984-.687-5.312-.547.875-2.703 2.375-5.515 2.968-6.547 3.735-6.468 9.11-7.39 15.672-3.609l2.922 1.688c-3.265 6.265-15.14 28.64-2.64 35.859C.296-2.922 8.03-12.734 11.469-18.687c3.984-6.907 2.797-12.985.265-16.985 2.672 1.547 6.641 3.828 11.829-5.14l2.39-4.141c.985-1.719 1.594-2.766-.469-3.953M5.547-37.281c8.281 4.781 4.828 13.36 3.578 15.531-2.547 4.39-7.562 6.094-11.36 3.906-9.327-5.39-2.656-19.718-.421-24.172Zm0 0"/><path id="e" d="m46.578-80.672-4.062-2.344-3.438 5.954-22.344-12.891c-8.89-5.14-14.968-2.766-20.093 6.11-4.532 7.859-2.797 14.827-.141 19.374-9.016-2.922-13.86 4.875-15.75 8.156-4.344 7.5-3.281 14.657.547 20.547l-9.313-5.375-7.875 15.235 4.047 2.343c3.094-5.343 3.438-5.953 6.797-4.015L1.61-12.188l-3.437 5.954 4.062 2.343 6.032-11 6.53-10.734-4.062-2.344-3.437 5.953-18.016-10.406c-9.406-5.422-9.312-15.375-6.219-20.734 1.688-2.938 4.516-3.828 11.157.015L17.5-39.703l-3.437 5.953 4.062 2.344 6.031-11 6.532-10.75-4.063-2.344-3.437 5.953L5.172-59.953c-9.406-5.422-9.313-15.36-6.219-20.719 1.688-2.922 4.516-3.844 11.156 0l23.282 13.438-3.438 5.968 4.063 2.344 6.03-11.016Zm0 0"/><path id="f" d="M10.656-62.875c-11.484-6.625-24.14-3.437-31.312 8.984-3.735 6.47-3.703 12.563-3.282 15.47l-4.234-2.438-8.11 15.656 4.048 2.344c3.078-5.344 3.437-5.953 6.718-4.063l43.47 25.094-3.438 5.953 4.062 2.344 6.016-11.016 6.531-10.734-4.062-2.344-3.438 5.953-16.047-9.25c5.156-1.969 8.219-5.265 10.266-8.812 7.468-12.938 4.797-26.22-7.188-33.141m-6.39 11.047c12.156 7.031 13.172 15.656 9.937 21.266-.703 1.218-3.031 5.265-9.953 6.437-1.656.313-1.75.266-3.39-.687l-18.297-10.563c-1.641-.937-1.672-1.062-2.172-2.969-1.563-5.5.515-10.297 1.609-12.187 3.344-5.782 11.39-7.563 22.266-1.297m0 0"/><path id="g" d="m14.594-25.281-4.063-2.344-3.437 5.953L-48.72-53.89l-8.125 15.657 4.063 2.343c3.078-5.343 3.437-5.953 6.797-4.015L1.719-12.36-1.72-6.406l4.063 2.343 5.875-10.75Zm0 0"/><path id="h" d="M14.516-48.453c-1.563-.89-2.516.75-2.766 1.187-.844 1.47-.5 1.875.563 3.203 3.093 4.204 3.03 10.72-.204 16.313-7.03 12.172-18.546 5.64-22.953 3.094L4.203-50.72c1.094-1.906 1.594-2.765-.734-4.11-2.672-1.546-9.281-4.64-16.078-2.843-4.953 1.406-9.141 5.078-12.578 11.031-7.97 13.813-3.422 26.438 7.359 32.672C-6.25-7.297 7.094-11.094 15.109-24.984c7.875-13.641.86-22.625-.593-23.47m-16.297 1.531-11.906 20.625c-3.266-2.125-6.844-4.297-8.641-7.75-2.156-4.25-1.203-8.281.234-10.797 5.828-10.093 17.235-3.75 20.313-2.078m0 0"/><clipPath id="a"><path d="M0 0h268.492v387H0Zm0 0"/></clipPath></defs><g fill-opacity=".2" clip-path="url(#a)"><use xlink:href="#b" x="57.52" y="390.286"/><use xlink:href="#c" x="95.179" y="325.059"/><use xlink:href="#d" x="125.416" y="272.687"/><use xlink:href="#e" x="153.261" y="224.457"/><use xlink:href="#f" x="200.983" y="141.802"/><use xlink:href="#g" x="232.813" y="86.669"/><use xlink:href="#h" x="248.704" y="59.146"/></g></svg>