<svg xmlns="http://www.w3.org/2000/svg" xmlns:xlink="http://www.w3.org/1999/xlink" width="107.507" height="156.422"><defs><path id="a" d="M4.5-4.297c0-.047-.031-.094-.094-.094-.11 0-.515.391-.672.688-.218-.547-.609-.703-.937-.703-1.172 0-2.39 1.468-2.39 2.922C.406-.516.983.109 1.718.109c.422 0 .812-.234 1.172-.593-.094.343-.422 1.687-.453 1.78-.079.282-.157.313-.72.329-.124 0-.218 0-.218.203 0 0 0 .11.125.11.313 0 .672-.032 1-.032s.688.032 1.031.032c.047 0 .172 0 .172-.204 0-.109-.094-.109-.265-.109-.47 0-.47-.062-.47-.156 0-.078.016-.14.032-.219ZM1.75-.109c-.61 0-.64-.766-.64-.938 0-.484.28-1.562.452-1.984.313-.735.829-1.156 1.235-1.156.656 0 .797.812.797.875s-.547 2.25-.578 2.28c-.157.282-.72.923-1.266.923m0 0"/><path id="b" d="M3.594-2.219c0-.765-.094-1.328-.406-1.812-.22-.313-.657-.594-1.204-.594C.36-4.625.36-2.719.36-2.219s0 2.36 1.625 2.36c1.61 0 1.61-1.86 1.61-2.36M1.984-.062c-.328 0-.75-.188-.89-.75C1-1.22 1-1.797 1-2.312c0-.516 0-1.047.094-1.422.156-.547.593-.703.89-.703.375 0 .735.234.86.64.11.375.125.875.125 1.485 0 .515 0 1.03-.094 1.468-.14.64-.61.782-.89.782m0 0"/><path id="c" d="M2.328-4.437c0-.188 0-.188-.203-.188-.453.438-1.078.438-1.36.438v.25c.157 0 .626 0 1-.188v3.547c0 .234 0 .328-.687.328H.812V0c.125 0 .985-.031 1.235-.031.219 0 1.094.031 1.25.031v-.25H3.03c-.703 0-.703-.094-.703-.328Zm0 0"/><path id="d" d="M3.516-1.266H3.28c-.015.157-.094.563-.187.625-.047.047-.578.047-.688.047H1.125c.734-.64.984-.843 1.39-1.172.516-.406 1-.843 1-1.5 0-.843-.734-1.359-1.624-1.359-.86 0-1.453.61-1.453 1.25 0 .344.296.39.375.39.156 0 .359-.124.359-.374 0-.125-.047-.375-.406-.375.218-.485.687-.641 1.015-.641.703 0 1.063.547 1.063 1.11 0 .609-.438 1.078-.656 1.328L.516-.266C.437-.203.437-.187.437 0h2.876Zm0 0"/><path id="f" d="M1.906-2.328c.547 0 .938.375.938 1.125 0 .86-.516 1.125-.906 1.125-.282 0-.907-.078-1.188-.5.328 0 .406-.235.406-.39 0-.22-.172-.376-.39-.376a.38.38 0 0 0-.391.407C.375-.281 1.094.14 1.938.14c.968 0 1.64-.657 1.64-1.344 0-.547-.437-1.094-1.203-1.25.719-.266.984-.781.984-1.219 0-.547-.625-.953-1.406-.953-.766 0-1.36.375-1.36.938 0 .234.157.359.36.359.219 0 .36-.156.36-.344 0-.203-.141-.36-.36-.375.25-.297.719-.375.985-.375.312 0 .75.156.75.75 0 .297-.094.625-.282.828-.219.266-.422.281-.765.313-.172.015-.188.015-.22.015-.015 0-.077.016-.077.094 0 .094.062.094.187.094Zm0 0"/><path id="g" d="M5.281-3.187c0-.954-.015-3.344-2.422-3.344S.453-4.156.453-3.188c0 1 0 3.297 2.406 3.297 2.391 0 2.422-2.296 2.422-3.296M4-3.297c0 .563 0 1.469-.078 1.985-.14.921-.766 1.062-1.063 1.062-.359 0-.921-.219-1.046-.953-.094-.516-.094-1.547-.094-2.094 0-.719 0-1.375.078-1.89.125-.891.828-.985 1.062-.985.375 0 .782.188.97.625C4-5.172 4-4.109 4-3.297m0 0"/><path id="h" d="M4.922 0v-.469h-1.39v-5.734c0-.234 0-.328-.266-.328-.11 0-.125 0-.22.078-.765.562-1.796.562-2 .562H.845v.47h.203c.156 0 .703-.016 1.297-.204v5.156H.954V0c.437-.031 1.5-.031 1.984-.031s1.546 0 1.984.031m0 0"/><clipPath id="e"><path d="M75 59h32.262v38H75Zm0 0"/></clipPath></defs><path fill="none" stroke="#7F7F7F" stroke-miterlimit="10" stroke-width=".199" d="M13.414 77.984h85.043M13.414 49.637h85.043M13.414 21.3h85.043M13.414 77.984V21.29m28.348 56.695V21.29m28.347 56.695V21.29m28.336 56.695V21.29"/><path fill="none" stroke="#000" stroke-miterlimit="10" stroke-width=".399" d="M25.867 77.984c0-6.879-5.574-12.453-12.453-12.453C6.54 65.531.961 71.105.961 77.984c0 6.88 5.578 12.454 12.453 12.454 6.879 0 12.453-5.575 12.453-12.454Zm0 0"/><use xlink:href="#a" x="8.957" y="79.16"/><use xlink:href="#b" x="13.405" y="80.655"/><path fill="none" stroke="#000" stroke-miterlimit="10" stroke-width=".399" d="M65.957 37.895c0-6.875-5.574-12.454-12.453-12.454S41.05 31.02 41.05 37.895c0 6.878 5.574 12.453 12.453 12.453s12.453-5.575 12.453-12.453Zm0 0"/><use xlink:href="#a" x="49.044" y="39.072"/><use xlink:href="#c" x="53.492" y="40.567"/><path fill="none" stroke="#000" stroke-miterlimit="10" stroke-width=".399" d="M65.957 118.074c0-6.879-5.574-12.457-12.453-12.457s-12.453 5.578-12.453 12.457c0 6.875 5.574 12.453 12.453 12.453s12.453-5.578 12.453-12.453Zm0 0"/><use xlink:href="#a" x="49.044" y="119.248"/><use xlink:href="#d" x="53.492" y="120.743"/><g clip-path="url(#e)"><path fill="none" stroke="#000" stroke-miterlimit="10" stroke-width=".399" d="M106.047 77.984c0-6.879-5.578-12.453-12.453-12.453-6.88 0-12.453 5.574-12.453 12.453 0 6.88 5.574 12.454 12.453 12.454 6.875 0 12.453-5.575 12.453-12.454Zm0 0"/></g><use xlink:href="#a" x="89.132" y="79.16"/><use xlink:href="#f" x="93.581" y="80.655"/><path fill="none" stroke="#000" stroke-miterlimit="10" stroke-width=".399" d="M22.363 69.04 43.57 47.827"/><path fill="none" stroke="#000" stroke-linecap="round" stroke-linejoin="round" stroke-miterlimit="10" stroke-width=".39899601" d="M40.555 47.46c1.285.75 2.36.63 3.156.228-.402.796-.52 1.874.226 3.156"/><use xlink:href="#g" x="24.21" y="54.311"/><path fill="none" stroke="#000" stroke-miterlimit="10" stroke-width=".399" d="m22.363 86.93 21.207 21.21"/><path fill="none" stroke="#000" stroke-linecap="round" stroke-linejoin="round" stroke-miterlimit="10" stroke-width=".39899601" d="M43.937 105.125c-.746 1.281-.628 2.355-.226 3.156-.797-.406-1.871-.523-3.156.223"/><use xlink:href="#h" x="24.21" y="108.073"/><path fill="none" stroke="#000" stroke-miterlimit="10" stroke-width=".399" d="M62.45 46.844 83.66 68.05"/><path fill="none" stroke="#000" stroke-linecap="round" stroke-linejoin="round" stroke-miterlimit="10" stroke-width=".39899601" d="M84.027 65.035c-.75 1.281-.629 2.36-.226 3.156-.797-.402-1.875-.52-3.156.227"/><use xlink:href="#h" x="77.067" y="54.42"/><path fill="none" stroke="#000" stroke-miterlimit="10" stroke-width=".399" d="M50.23 25.676c-5.164-19.274 11.043-19.727 6.883-1.36"/><path fill="none" stroke="#000" stroke-linecap="round" stroke-linejoin="round" stroke-miterlimit="10" stroke-width=".39897207" d="M59.875 23.059c-1.484.035-2.34.699-2.809 1.46-.07-.89-.535-1.867-1.843-2.57"/><use xlink:href="#g" x="50.639" y="7.245"/><path fill="none" stroke="#000" stroke-miterlimit="10" stroke-width=".399" d="m62.45 109.125 21.21-21.207"/><path fill="none" stroke="#000" stroke-linecap="round" stroke-linejoin="round" stroke-miterlimit="10" stroke-width=".39899601" d="M80.645 87.55c1.28.747 2.359.63 3.156.227-.403.797-.524 1.871.226 3.157"/><use xlink:href="#g" x="77.067" y="108.073"/><path fill="none" stroke="#000" stroke-miterlimit="10" stroke-width=".399" d="M56.777 130.293c5.164 19.27-11.043 19.723-6.882 1.36"/><path fill="none" stroke="#000" stroke-linecap="round" stroke-linejoin="round" stroke-miterlimit="10" stroke-width=".39897207" d="M47.133 132.906c1.484-.031 2.34-.695 2.808-1.457.07.89.536 1.867 1.844 2.57"/><use xlink:href="#h" x="50.639" y="155.139"/></svg>