<svg xmlns="http://www.w3.org/2000/svg" xmlns:xlink="http://www.w3.org/1999/xlink" width="87.056" height="40.916"><defs><path id="b" d="M4.406-3.672c0-.531-.531-.812-1.062-.812-.688 0-1.094.5-1.313 1.125v-1.125l-1.656.078v.468c.61 0 .688 0 .688.391v3.078H.375V0l1.25-.031C2-.031 2.641-.031 3 0v-.469h-.86v-1.75c0-.687.235-1.906 1.235-1.906 0 0-.187.172-.187.453 0 .406.328.61.609.61.297 0 .61-.204.61-.61m0 0"/><path id="c" d="M4.922-1.172c0-.172-.188-.172-.234-.172-.172 0-.188.047-.25.203-.204.485-.782.797-1.422.797-1.407 0-1.422-1.328-1.422-1.828h3.015c.22 0 .313 0 .313-.265 0-.313-.063-1.047-.563-1.547-.359-.36-.89-.532-1.578-.532C1.187-4.516.313-3.484.313-2.25c0 1.344 1 2.313 2.609 2.313 1.578 0 2-1.063 2-1.235M3.984-2.5h-2.39c.015-.39.031-.812.234-1.14.266-.391.672-.516.953-.516 1.172 0 1.188 1.312 1.203 1.656m0 0"/><path id="d" d="M5.984-2.219c0-1.328-.906-2.265-2.343-2.265-.75 0-1.282.312-1.5.484v-.484l-1.766.078v.468c.61 0 .688 0 .688.376v5.03H.375v.47l1.25-.032 1.25.032v-.47h-.687V-.39a2 2 0 0 0 1.28.454c1.5 0 2.516-.907 2.516-2.282m-1.28 0C4.703-.813 4-.297 3.358-.297c-.14 0-.609 0-1.062-.547-.11-.125-.11-.14-.11-.328v-2.11c0-.187.016-.202.157-.343.39-.406.922-.469 1.14-.469.657 0 1.22.61 1.22 1.875m0 0"/><path id="e" d="M2.922 0v-.469h-.688v-6.453L.47-6.844v.469c.625 0 .687 0 .687.39v5.516H.47V0l1.219-.031Zm0 0"/><path id="f" d="M5.516-.234c0-.235-.125-.235-.266-.235-.61-.015-.61-.14-.61-.375v-2.14c0-.891-.702-1.532-2.187-1.532-.562 0-1.781.047-1.781.922 0 .438.344.625.61.625.312 0 .624-.219.624-.625 0-.297-.187-.469-.218-.5a5 5 0 0 1 .718-.062c.75 0 1.11.422 1.11 1.172v.343c-.72.032-3.25.125-3.25 1.563C.266-.125 1.5.062 2.188.062c.796 0 1.265-.406 1.484-.828 0 .313 0 .766 1.047.766h.468c.204 0 .329 0 .329-.234m-2-1.157c0 .97-.922 1.094-1.172 1.094-.516 0-.906-.344-.906-.797 0-1.062 1.578-1.203 2.078-1.234Zm0 0"/><path id="g" d="M4.766-1.172c0-.14-.141-.14-.235-.14-.187 0-.187.03-.25.156-.25.625-.734.812-1.234.812-1.39 0-1.39-1.453-1.39-1.922 0-.562 0-1.843 1.28-1.843.36 0 .516.015.657.046a.62.62 0 0 0-.203.47c0 .437.343.624.609.624.313 0 .64-.219.64-.625 0-.86-1.156-.922-1.734-.922C1.11-4.516.375-3.375.375-2.219.375-.89 1.313.063 2.844.063c1.625 0 1.922-1.157 1.922-1.235m0 0"/><path id="h" d="M9.328 0v-.469h-.687v-2.578c0-1.031-.516-1.437-1.547-1.437-.907 0-1.422.5-1.688.953-.187-.922-1.11-.953-1.484-.953-.875 0-1.438.453-1.766 1.078v-1.078l-1.703.078v.468c.61 0 .688 0 .688.391v3.078H.453V0l1.25-.031L2.953 0v-.469h-.687v-2.078c0-1.094.875-1.578 1.5-1.578.328 0 .547.203.547.969V-.47h-.688V0l1.266-.031L6.14 0v-.469h-.688v-2.078c0-1.094.86-1.578 1.484-1.578.344 0 .563.203.563.969V-.47h-.687V0l1.25-.031Zm0 0"/><path id="i" d="M6.125 0v-.469h-.687v-2.578c0-1.047-.532-1.437-1.532-1.437-.953 0-1.484.562-1.75 1.078v-1.078l-1.703.078v.468c.61 0 .688 0 .688.391v3.078H.453V0l1.25-.031L2.953 0v-.469h-.687v-2.078c0-1.094.859-1.578 1.5-1.578.328 0 .547.203.547.969V-.47h-.688V0l1.25-.031Zm0 0"/><path id="j" d="M3.813-1.234v-.532h-.47v.516c0 .672-.327.906-.609.906-.578 0-.578-.64-.578-.86v-2.75h1.469v-.468H2.156v-1.906h-.469c0 1-.484 1.984-1.484 2.016v.359h.828v2.734c0 1.063.86 1.282 1.578 1.282.75 0 1.204-.579 1.204-1.297m0 0"/><path id="k" d="M5.406-2.172c0-1.344-.922-2.344-2.547-2.344C1.22-4.516.313-3.5.313-2.172c0 1.235.89 2.235 2.546 2.235 1.672 0 2.547-1.016 2.547-2.235m-1.281-.11c0 .86 0 1.938-1.266 1.938-1.265 0-1.265-1.078-1.265-1.937 0-.453 0-.953.172-1.297.187-.375.609-.578 1.093-.578.422 0 .844.156 1.063.5.203.344.203.89.203 1.375m0 0"/><path id="l" d="M4.36-6.11c0-.421-.36-.874-1.141-.874-.969 0-2.047.422-2.047 1.547v1.015h-.75v.469h.75V-.47H.484V0l1.25-.031c.375 0 1.016 0 1.375.031v-.469H2.25v-3.484h1.14v-.469H2.188v-1.016c0-1.093.75-1.187 1-1.187.047 0 .11 0 .172.031a.59.59 0 0 0-.234.485c0 .422.36.609.61.609.296 0 .624-.203.624-.61m0 0"/><path id="m" d="M6.125 0v-.469h-.687v-2.578c0-1.047-.532-1.437-1.532-1.437a1.9 1.9 0 0 0-1.687.953v-3.39l-1.766.077v.469c.61 0 .688 0 .688.39v5.516H.453V0l1.25-.031L2.953 0v-.469h-.687v-2.078c0-1.094.859-1.578 1.5-1.578.328 0 .547.203.547.969V-.47h-.688V0l1.25-.031Zm0 0"/><path id="n" d="M2.844 0v-.469h-.61v-4.015L.5-4.406v.468c.594 0 .656 0 .656.391v3.078H.47V0l1.219-.031Zm-.469-6.047a.774.774 0 0 0-.781-.781.784.784 0 0 0-.782.781c0 .422.36.766.782.766a.77.77 0 0 0 .781-.766m0 0"/><path id="o" d="M5.781-3.953v-.469A13 13 0 0 1 5-4.39l-.906-.03v.468s.468 0 .468.11L4.5-3.72 3.36-1.266 2.093-3.953h.531v-.469l-1.234.031-1.125-.03v.468H.89L2.766 0 2.53.484C2.312.954 2 1.641 1.281 1.641c-.14 0-.156-.016-.234-.047.094-.032.312-.172.312-.532C1.36.734 1.125.5.781.5a.553.553 0 0 0-.562.578c0 .5.469.922 1.062.922.766 0 1.344-.625 1.625-1.187l2.14-4.563c.063-.14.095-.203.735-.203m0 0"/><path id="p" d="M5.984-2.219c0-1.328-.937-2.265-2.39-2.265-.719 0-1.219.28-1.453.484v-2.922l-1.766.078v.469c.61 0 .688 0 .688.39V0h.468c.157-.187.328-.375.485-.562.078.078.562.625 1.453.625 1.484 0 2.515-.907 2.515-2.282m-1.28 0c0 .469 0 1.016-.25 1.406-.298.407-.75.516-1.079.516-.687 0-1.078-.547-1.187-.687v-2.5c.28-.36.75-.641 1.296-.641 1.22 0 1.22 1.203 1.22 1.906m0 0"/><path id="q" d="M8.031-3.953v-.469a13 13 0 0 1-.781.031l-.953-.03v.468c.094 0 .578 0 .578.11 0 .03-.031.093-.031.124L5.797-1.172l-1.14-2.781h.562v-.469l-1.14.031c-.423 0-.845-.03-1-.03v.468h.593c.203.5.203.531.203.531 0 .031-.031.094-.031.125L3.047-1.39 2-3.953h.563v-.469l-1.235.031L.25-4.42v.468h.594L2.359-.234c.079.172.11.28.36.28s.297-.108.36-.28L4.14-2.812 5.188-.235c.078.172.109.28.359.28s.297-.108.36-.28L7.343-3.75c.047-.125.093-.203.687-.203m0 0"/><path id="r" d="M4.14-1.39c0-.438-.202-.782-.546-1.063-.39-.281-.719-.344-1.485-.485-.375-.062-1.015-.171-1.015-.64 0-.625.922-.625 1.11-.625.75 0 1.124.297 1.171.844.016.156.031.203.234.203.235 0 .235-.047.235-.281v-.797c0-.188 0-.282-.172-.282-.047 0-.063 0-.453.188-.266-.125-.61-.188-1-.188-.313 0-1.844 0-1.844 1.313 0 .39.203.656.406.828.39.344.782.406 1.547.547.36.062 1.094.187 1.094.781 0 .75-.906.75-1.125.75C1.234-.297.984-1.03.859-1.453c-.046-.14-.109-.14-.234-.14-.25 0-.25.062-.25.28v1.094c0 .188 0 .282.188.282.062 0 .078 0 .296-.157l.25-.172c.47.329.985.329 1.188.329.312 0 1.844 0 1.844-1.454m0 0"/><clipPath id="a"><path d="M0 30h86.586v10.875H0Zm0 0"/></clipPath></defs><g clip-path="url(#a)"><path fill="none" stroke="#000" stroke-miterlimit="10" stroke-width=".399" d="M.535 37.285c.711 0 1.067-1.133 1.774-1.133.511 0 .957.551 1.418 1.133s.902 1.133 1.418 1.133c.511 0 .953-.55 1.418-1.133.46-.582.902-1.133 1.414-1.133.515 0 .957.551 1.418 1.133s.906 1.133 1.418 1.133.957-.55 1.417-1.133c.461-.582.903-1.133 1.418-1.133.512 0 .954.551 1.418 1.133.461.582.903 1.133 1.414 1.133.516 0 .957-.55 1.418-1.133.461-.582.907-1.133 1.418-1.133.512 0 .957.551 1.418 1.133s.903 1.133 1.418 1.133c.512 0 .953-.55 1.418-1.133.461-.582.903-1.133 1.414-1.133.516 0 .957.551 1.418 1.133.465.582.907 1.133 1.418 1.133.512 0 .957-.55 1.418-1.133.461-.582.903-1.133 1.418-1.133.512 0 .953.551 1.418 1.133.461.582.903 1.133 1.414 1.133.516 0 .957-.55 1.418-1.133.465-.582.907-1.133 1.418-1.133.512 0 .957.551 1.418 1.133s.903 1.133 1.418 1.133c.512 0 .953-.55 1.418-1.133.461-.582.902-1.133 1.414-1.133.516 0 .957.551 1.418 1.133.465.582.906 1.133 1.418 1.133s.957-.55 1.418-1.133c.461-.582.902-1.133 1.418-1.133.512 0 .953.551 1.418 1.133.461.582.902 1.133 1.414 1.133.516 0 .957-.55 1.418-1.133.465-.582.906-1.133 1.418-1.133s.957.551 1.418 1.133.902 1.133 1.418 1.133c.512 0 .953-.55 1.418-1.133.46-.582.902-1.133 1.414-1.133.516 0 .957.551 1.418 1.133.465.582.906 1.133 1.418 1.133s.957-.55 1.418-1.133c.46-.582.902-1.133 1.418-1.133.512 0 .953.551 1.418 1.133.46.582.902 1.133 1.414 1.133.516 0 .957-.55 1.418-1.133.465-.582.906-1.133 1.418-1.133s.957.551 1.418 1.133.902 1.133 1.418 1.133c.511 0 .953-.55 1.418-1.133.46-.582.902-1.133 1.414-1.133.515 0 .957.551 1.418 1.133.465.582.906 1.133 1.418 1.133.71 0 1.062-1.133 1.773-1.133h4.563"/></g><path fill="none" stroke="#000" stroke-linecap="round" stroke-linejoin="round" stroke-miterlimit="10" stroke-width=".399" d="M83.305 34.895c.379 1.433 1.222 2.113 2.074 2.39-.852.278-1.695.957-2.074 2.39"/><use xlink:href="#b" x="12.695" y="7.863"/><use xlink:href="#c" x="17.417" y="7.863"/><use xlink:href="#d" x="22.668" y="7.863"/><use xlink:href="#e" x="29.034" y="7.863"/><use xlink:href="#f" x="32.212" y="7.863"/><use xlink:href="#g" x="37.781" y="7.863"/><use xlink:href="#c" x="42.872" y="7.863"/><use xlink:href="#h" x="48.122" y="7.863"/><use xlink:href="#c" x="57.666" y="7.863"/><use xlink:href="#i" x="62.917" y="7.863"/><use xlink:href="#j" x="68.964" y="7.863"/><use xlink:href="#k" x="6.565" y="19.818"/><use xlink:href="#l" x="12.294" y="19.818"/><use xlink:href="#j" x="19.108" y="19.818"/><use xlink:href="#m" x="23.561" y="19.818"/><use xlink:href="#c" x="29.927" y="19.818"/><g fill="red"><use xlink:href="#g" x="38.501" y="19.818"/><use xlink:href="#f" x="43.592" y="19.818"/><use xlink:href="#d" x="49.161" y="19.818"/><use xlink:href="#f" x="55.527" y="19.818"/><use xlink:href="#g" x="61.096" y="19.818"/><use xlink:href="#n" x="66.187" y="19.818"/><use xlink:href="#j" x="69.365" y="19.818"/></g><use xlink:href="#o" x="73.5" y="19.818" fill="red"/><use xlink:href="#p" x="9.788" y="31.773"/><use xlink:href="#o" x="15.835" y="31.773"/><use xlink:href="#j" x="25.203" y="31.773" fill="red"/><use xlink:href="#q" x="29.337" y="31.773" fill="red"/><use xlink:href="#k" x="37.298" y="31.773" fill="red"/><g fill="red"><use xlink:href="#d" x="46.344" y="31.773"/><use xlink:href="#e" x="52.71" y="31.773"/><use xlink:href="#f" x="55.888" y="31.773"/><use xlink:href="#g" x="61.457" y="31.773"/><use xlink:href="#c" x="66.548" y="31.773"/><use xlink:href="#r" x="71.798" y="31.773"/></g></svg>