<svg xmlns="http://www.w3.org/2000/svg" xmlns:xlink="http://www.w3.org/1999/xlink" width="160.76" height="104.801"><defs><path id="b" d="M1.11-4.484c.109.03.421.125.765.125 1 0 1.594-.703 1.594-.828 0-.094-.047-.11-.094-.11-.016 0-.031 0-.094.031a3 3 0 0 1-1.11.22c-.468 0-.858-.11-1.108-.22-.079-.03-.094-.03-.11-.03-.094 0-.094.077-.094.234v2.328c0 .14 0 .234.125.234.063 0 .079-.031.125-.094.094-.11.391-.515 1.079-.515.437 0 .656.359.734.515.125.281.14.656.14.953s0 .735-.218 1.079c-.156.25-.485.484-.906.484A1.27 1.27 0 0 1 .734-.922c.016.016.079.016.079.016.218 0 .406-.14.406-.39a.39.39 0 0 0-.39-.407c-.157 0-.407.078-.407.422 0 .718.625 1.453 1.531 1.453 1 0 1.844-.781 1.844-1.766 0-.922-.672-1.75-1.61-1.75-.39 0-.765.125-1.078.406Zm0 0"/><path id="c" d="M2.5-5.078c0-.219-.016-.219-.234-.219-.328.313-.75.5-1.5.5v.266c.218 0 .64 0 1.109-.203v4.078c0 .297-.031.39-.781.39H.812V0c.329-.031 1.016-.031 1.376-.031s1.046 0 1.374.031v-.266h-.28c-.75 0-.782-.093-.782-.39Zm0 0"/><path id="d" d="M3.89-2.547c0-.844-.078-1.36-.343-1.875-.344-.703-1-.875-1.438-.875-1 0-1.375.75-1.484.969C.344-3.75.328-2.953.328-2.547c0 .531.016 1.328.406 1.969.36.594.954.75 1.375.75.391 0 1.063-.125 1.47-.906.296-.578.312-1.297.312-1.813M2.11-.062c-.266 0-.813-.125-.985-.954-.094-.453-.094-1.203-.094-1.625 0-.546 0-1.109.094-1.546.172-.813.781-.891.984-.891.266 0 .829.14.985.86.094.437.094 1.046.094 1.577 0 .47 0 1.188-.094 1.641-.172.828-.719.938-.985.938m0 0"/><path id="e" d="M2.25-1.625c.125-.125.453-.39.594-.5.484-.453.953-.89.953-1.61 0-.953-.797-1.562-1.781-1.562-.97 0-1.594.719-1.594 1.438 0 .39.312.437.422.437.172 0 .422-.11.422-.422 0-.406-.407-.406-.5-.406.234-.594.765-.781 1.156-.781.734 0 1.125.625 1.125 1.297 0 .828-.578 1.437-1.531 2.39l-1 1.047C.422-.219.422-.203.422 0h3.14l.235-1.422h-.25c-.016.156-.078.547-.172.703-.047.063-.656.063-.781.063H1.172Zm0 0"/><path id="f" d="M3.14-5.156c0-.157 0-.219-.171-.219-.094 0-.11 0-.188.11L.234-1.564v.25h2.25v.672c0 .297-.015.375-.64.375h-.172V0c.672-.031.687-.031 1.14-.031.454 0 .47 0 1.141.031v-.266h-.172c-.625 0-.64-.078-.64-.375v-.671h.843v-.25h-.843Zm-.593.64v2.954H.516Zm0 0"/><path id="g" d="M1.094-2.64c0-.657.062-1.235.343-1.72.25-.406.657-.734 1.157-.734.156 0 .515.032.703.297-.36.031-.39.297-.39.375 0 .25.187.375.374.375.14 0 .375-.078.375-.39 0-.47-.36-.86-1.078-.86C1.468-5.297.344-4.25.344-2.53.344-.36 1.359.172 2.125.172c.39 0 .797-.11 1.156-.453.328-.313.594-.64.594-1.344 0-1.031-.797-1.766-1.672-1.766-.578 0-.922.36-1.11.75M2.125-.079a.88.88 0 0 1-.797-.516c-.187-.36-.203-.89-.203-1.203 0-.781.422-1.375 1.047-1.375.39 0 .64.203.781.485.172.296.172.656.172 1.062s0 .75-.156 1.047c-.219.36-.485.5-.844.5m0 0"/><path id="h" d="M2.64-2.875c.454-.219 1-.61 1-1.234 0-.766-.78-1.188-1.515-1.188-.844 0-1.531.578-1.531 1.328 0 .297.094.563.297.797.14.172.172.188.656.5C.563-2.234.344-1.656.344-1.219c0 .89.89 1.39 1.765 1.39.97 0 1.766-.671 1.766-1.515 0-.5-.266-.828-.406-.968-.125-.126-.14-.141-.828-.563m-1.234-.75c-.234-.14-.422-.375-.422-.64 0-.5.547-.829 1.125-.829.61 0 1.125.422 1.125.985 0 .453-.359.843-.828 1.078Zm.39 1.094c.032.015.938.578 1.079.656.125.078.547.328.547.813 0 .609-.656.984-1.297.984-.719 0-1.312-.484-1.312-1.14 0-.594.437-1.063.984-1.313m0 0"/><clipPath id="a"><path d="M6 0h154.64v98H6Zm0 0"/></clipPath></defs><path fill="none" stroke="#BFBFBF" stroke-miterlimit="10" stroke-width=".199" d="M21.348 88.773V1.183M28.422 88.773V1.183M35.496 88.773V1.183M42.57 88.773V1.183M56.715 88.773V1.183M63.79 88.773V1.183M70.863 88.773V1.183M77.938 88.773V1.183M92.086 88.773V1.183M99.16 88.773V1.183M106.234 88.773V1.183M113.309 88.773V1.183M127.457 88.773V1.183M134.531 88.773V1.183M141.605 88.773V1.183M148.68 88.773V1.183"/><path fill="none" stroke="#BFBFBF" stroke-miterlimit="10" stroke-width=".399" d="M49.645 88.773V1.183M85.012 88.773V1.183M120.383 88.773V1.183M155.754 88.773V1.183M14.625 88.773h141.734M14.625 69.309h141.734M14.625 49.844h141.734M14.625 30.379h141.734M14.625 10.914h141.734"/><path fill="none" stroke="#7F7F7F" stroke-linecap="round" stroke-miterlimit="10" stroke-width=".399" d="M21.348 95.152v-1.394M28.422 95.152v-1.394M35.496 95.152v-1.394M42.57 95.152v-1.394M56.715 95.152v-1.394M63.79 95.152v-1.394M70.863 95.152v-1.394M77.938 95.152v-1.394M92.086 95.152v-1.394M99.16 95.152v-1.394M106.234 95.152v-1.394M113.309 95.152v-1.394M127.457 95.152v-1.394M134.531 95.152v-1.394M141.605 95.152v-1.394M148.68 95.152v-1.394M49.645 95.75v-1.992M85.012 95.75v-1.992M120.383 95.75v-1.992M155.754 95.75v-1.992"/><path fill="none" stroke="#C00" stroke-linecap="round" stroke-miterlimit="10" stroke-width=".399" d="M7.648 88.773h1.997M7.648 69.309h1.997M7.648 49.844h1.997M7.648 30.379h1.997M7.648 10.914h1.997"/><path fill="none" stroke="#7F7F7F" stroke-miterlimit="10" stroke-width=".399" d="M14.625 93.758h141.734"/><path fill="none" stroke="#BFBFBF" stroke-linecap="square" stroke-miterlimit="10" stroke-width=".399" d="M14.625 88.773h141.734M14.625 1.184h141.734"/><path fill="none" stroke="#7F7F7F" stroke-miterlimit="10" stroke-width=".399" d="M9.645 88.773V1.183"/><path fill="none" stroke="#BFBFBF" stroke-linecap="square" stroke-miterlimit="10" stroke-width=".399" d="M14.625 88.773V1.183M156.36 88.773V1.183"/><g clip-path="url(#a)"><path fill="none" stroke="#000" stroke-miterlimit="10" stroke-width=".598" d="M14.625 1.184s.066 10.277.098 13.988c.035 3.715.09 9.398.129 12.777.043 3.375.113 8.516.168 11.555.05 3.039.144 7.64.21 10.34.067 2.703.184 6.761.27 9.125s.238 5.883.352 7.906c.109 2.027.304 5.004.449 6.691.14 1.688.39 4.125.574 5.477.184 1.348.504 3.246.738 4.258.235 1.011.649 2.367.95 3.039.3.676.835 1.488 1.218 1.828.387.336 1.07.605 1.567.605s1.37-.27 2.007-.605c.637-.34 1.762-1.152 2.579-1.828.82-.672 2.265-2.028 3.312-3.04 1.05-1.01 2.906-2.91 4.254-4.257 1.348-1.352 3.73-3.79 5.46-5.477 1.731-1.687 4.794-4.664 7.017-6.691 2.222-2.023 6.148-5.543 9.003-7.906 2.852-2.364 7.899-6.422 11.563-9.125 3.664-2.7 10.14-7.301 14.844-10.34 4.707-3.04 13.023-8.18 19.062-11.555 6.043-3.379 16.719-9.062 24.477-12.777 7.758-3.711 31.43-13.988 31.43-13.988"/></g><use xlink:href="#b" x="47.525" y="103.54"/><use xlink:href="#c" x="80.778" y="103.54"/><use xlink:href="#d" x="85.013" y="103.54"/><use xlink:href="#c" x="116.148" y="103.54"/><use xlink:href="#b" x="120.383" y="103.54"/><use xlink:href="#e" x="151.518" y="103.54"/><use xlink:href="#d" x="155.753" y="103.54"/><use xlink:href="#d" x=".76" y="91.343" fill="#C00"/><use xlink:href="#e" x=".76" y="71.877" fill="#C00"/><use xlink:href="#f" x=".76" y="52.413" fill="#C00"/><use xlink:href="#g" x=".76" y="32.95" fill="#C00"/><use xlink:href="#h" x=".76" y="13.485" fill="#C00"/></svg>