<svg xmlns="http://www.w3.org/2000/svg" xmlns:xlink="http://www.w3.org/1999/xlink" width="98.3" height="98.552"><defs><path id="a" d="M3.89-2.547c0-.844-.078-1.36-.343-1.875-.344-.703-1-.875-1.438-.875-1 0-1.375.75-1.484.969C.344-3.75.328-2.953.328-2.547c0 .531.016 1.328.406 1.969.36.594.954.75 1.375.75.391 0 1.063-.125 1.47-.906.296-.578.312-1.297.312-1.813M2.11-.062c-.266 0-.813-.125-.985-.954-.094-.453-.094-1.203-.094-1.625 0-.546 0-1.109.094-1.546.172-.813.781-.891.984-.891.266 0 .829.14.985.86.094.437.094 1.046.094 1.577 0 .47 0 1.188-.094 1.641-.172.828-.719.938-.985.938m0 0"/><path id="h" d="M2.5-5.078c0-.219-.016-.219-.234-.219-.328.313-.75.5-1.5.5v.266c.218 0 .64 0 1.109-.203v4.078c0 .297-.031.39-.781.39H.812V0c.329-.031 1.016-.031 1.376-.031s1.046 0 1.374.031v-.266h-.28c-.75 0-.782-.093-.782-.39Zm0 0"/><path id="b" d="M2.14-3.797c0-.187-.015-.187-.203-.187-.39.39-1 .39-1.218.39v.235c.156 0 .562 0 .922-.172v3.015c0 .204 0 .282-.625.282h-.25V0c.328-.031.797-.031 1.125-.031s.797 0 1.125.031v-.234h-.25c-.625 0-.625-.078-.625-.282Zm0 0"/><path id="c" d="M.969-1.984c.015-.297.031-.797.234-1.157.266-.468.656-.64 1.016-.64.14 0 .422.015.562.187-.219.047-.265.188-.265.297 0 .156.109.281.297.281.171 0 .28-.109.28-.296 0-.376-.265-.672-.874-.672-.938 0-1.844.812-1.844 2.093 0 1.454.672 2.016 1.469 2.016.234 0 .64-.031 1-.39.203-.188.422-.422.422-.954 0-.203-.016-.593-.375-.922-.22-.203-.485-.406-.985-.406-.422 0-.734.219-.937.563m.875 1.89C1-.094 1-1.125 1-1.359c0-.5.328-1 .875-1 .313 0 .484.125.625.312.172.235.172.516.172.828 0 .407-.016.61-.219.86-.14.172-.328.265-.61.265m0 0"/><path id="e" d="M1.766-1.984c.5 0 .843.343.843.953 0 .656-.39.937-.828.937C1.61-.094 1-.125.734-.469c.235-.031.329-.187.329-.343a.33.33 0 0 0-.344-.344.34.34 0 0 0-.344.36c0 .593.656.921 1.422.921.89 0 1.469-.562 1.469-1.156 0-.438-.328-.907-1.047-1.078.484-.157.86-.547.86-1.032 0-.484-.563-.843-1.282-.843-.703 0-1.234.328-1.234.812 0 .266.203.328.328.328.156 0 .312-.094.312-.312 0-.188-.125-.297-.297-.313.282-.312.828-.312.89-.312.298 0 .688.14.688.64 0 .329-.187.907-.796.938-.11 0-.266.015-.313.015-.062.016-.125.016-.125.11s.063.094.156.094Zm0 0"/><path id="f" d="M3.219-1.125H3c-.016.094-.078.484-.156.547-.047.047-.531.047-.625.047h-1.11l.766-.625c.203-.172.734-.547.922-.735.172-.171.422-.484.422-.906 0-.75-.672-1.187-1.485-1.187-.765 0-1.296.515-1.296 1.078 0 .297.25.344.312.344a.32.32 0 0 0 .328-.329c0-.125-.078-.328-.344-.328.141-.297.5-.531.922-.531.625 0 .953.469.953.953 0 .422-.28.86-.687 1.25L.5-.25C.438-.187.438-.187.438 0H3.03Zm0 0"/><path id="g" d="M1.016-3.328c.203.062.406.078.609.078.14 0 .469 0 .844-.203.11-.063.469-.313.469-.438 0-.078-.047-.093-.079-.093-.015 0-.015 0-.093.03a2.5 2.5 0 0 1-.907.173c-.296 0-.609-.063-.89-.156q-.07-.047-.094-.047c-.094 0-.094.078-.094.172v1.796c0 .094 0 .172.11.172.062 0 .078-.031.109-.078.156-.187.422-.39.89-.39.735 0 .735.89.735 1.078 0 .234-.016.578-.219.828a.95.95 0 0 1-.719.312C1.281-.094.86-.312.72-.672c.297 0 .328-.234.328-.297a.304.304 0 0 0-.313-.312.303.303 0 0 0-.296.328C.438-.406.953.125 1.703.125c.828 0 1.516-.578 1.516-1.328A1.3 1.3 0 0 0 1.89-2.5c-.375 0-.688.125-.875.281Zm0 0"/><path id="d" d="M2.266-2.906h.906c-.156.719-.297 1.312-.297 1.906 0 .047 0 .39.078.688.11.328.188.39.328.39.172 0 .36-.156.36-.344 0-.046 0-.062-.032-.14-.171-.36-.296-.75-.296-1.406 0-.172 0-.516.124-1.094h.97c.124 0 .202 0 .28-.063a.31.31 0 0 0 .125-.25c0-.219-.203-.219-.328-.219H1.61c-.171 0-.484 0-.875.391-.28.281-.5.64-.5.703 0 .078.047.094.11.094.094 0 .11-.016.156-.078.39-.578.86-.578 1.031-.578H2c-.234.844-.656 1.812-.953 2.39C1-.39.922-.234.922-.172c0 .172.125.25.25.25.312 0 .39-.297.562-.953Zm0 0"/></defs><path fill="none" stroke="#7F7F7F" stroke-linecap="round" stroke-miterlimit="10" stroke-width=".399" d="M81.953 49.121h1.992M77.488 32.457l1.727-.996M65.29 20.258l.995-1.727M48.629 15.793v-1.992M31.965 20.258l-.996-1.727M19.766 32.453l-1.727-.996M15.297 49.117h-1.992M19.762 65.781l-1.727.996M31.957 77.98l-.996 1.727M48.621 82.45v1.991M65.285 77.984l.996 1.727M77.484 65.79l1.727.995M48.625 51.113v-1.992M67.523 51.113v-1.992"/><path fill="none" stroke="#BFBFBF" stroke-linecap="square" stroke-miterlimit="10" stroke-width=".399" d="M76.973 49.121c0-15.656-12.692-28.348-28.348-28.348S20.277 33.465 20.277 49.121 32.97 77.47 48.625 77.47c15.652 0 28.348-12.696 28.348-28.348"/><path fill="none" stroke="#7F7F7F" stroke-linecap="square" stroke-miterlimit="10" stroke-width=".399" d="M81.953 49.121c0-18.406-14.922-33.328-33.328-33.328S15.297 30.715 15.297 49.121 30.219 82.45 48.625 82.45s33.328-14.922 33.328-33.328"/><path fill="none" stroke="#BFBFBF" stroke-linecap="square" stroke-miterlimit="10" stroke-width=".399" d="M48.625 49.121h28.348"/><path fill="none" stroke="#7F7F7F" stroke-linecap="square" stroke-miterlimit="10" stroke-width=".399" d="M48.625 49.121h28.348"/><path fill="none" stroke="#000" stroke-miterlimit="10" stroke-width=".399" d="m56.477 48.652 2.82-2.816m-2.82 0 2.82 2.816M65.27 44.945l2.816-2.82m-2.816 0 2.816 2.82M73.324 39.492l2.82-2.82m-2.82 0 2.82 2.82"/><use xlink:href="#a" x="86.602" y="51.688"/><use xlink:href="#b" x="83.065" y="22.421"/><path fill="none" stroke="#000" stroke-miterlimit="10" stroke-width=".359" d="M83.066 23.688h3.653"/><use xlink:href="#c" x="83.065" y="28.805"/><use xlink:href="#d" x="87.914" y="25.679"/><use xlink:href="#b" x="70.138" y="9.493"/><path fill="none" stroke="#000" stroke-miterlimit="10" stroke-width=".359" d="M70.137 10.758h3.652"/><use xlink:href="#e" x="70.138" y="15.877"/><use xlink:href="#d" x="74.986" y="12.751"/><use xlink:href="#b" x="44.226" y="4.76"/><path fill="none" stroke="#000" stroke-miterlimit="10" stroke-width=".359" d="M44.227 6.027h3.652"/><use xlink:href="#f" x="44.226" y="11.144"/><use xlink:href="#d" x="49.075" y="8.019"/><use xlink:href="#f" x="18.314" y="9.491"/><path fill="none" stroke="#000" stroke-miterlimit="10" stroke-width=".359" d="M18.313 10.758h3.656"/><use xlink:href="#e" x="18.314" y="15.875"/><use xlink:href="#d" x="23.163" y="12.75"/><use xlink:href="#g" x="5.386" y="22.418"/><path fill="none" stroke="#000" stroke-miterlimit="10" stroke-width=".359" d="M5.387 23.684h3.652"/><use xlink:href="#c" x="5.386" y="28.802"/><use xlink:href="#d" x="10.234" y="25.676"/><use xlink:href="#d" x="5.501" y="50.833"/><use xlink:href="#h" x="-.047" y="76.543"/><use xlink:href="#b" x="5.382" y="73.285"/><path fill="none" stroke="#000" stroke-miterlimit="10" stroke-width=".359" d="M5.383 74.55h3.652"/><use xlink:href="#c" x="5.382" y="79.669"/><use xlink:href="#d" x="10.231" y="76.543"/><use xlink:href="#h" x="12.879" y="89.472"/><use xlink:href="#b" x="18.308" y="86.214"/><path fill="none" stroke="#000" stroke-miterlimit="10" stroke-width=".359" d="M18.309 87.48h3.652"/><use xlink:href="#e" x="18.308" y="92.598"/><use xlink:href="#d" x="23.157" y="89.472"/><use xlink:href="#h" x="40.907" y="94.207"/><use xlink:href="#b" x="46.337" y="90.948"/><path fill="none" stroke="#000" stroke-miterlimit="10" stroke-width=".359" d="M46.336 92.215h3.652"/><use xlink:href="#f" x="46.337" y="97.332"/><use xlink:href="#d" x="51.185" y="94.207"/><use xlink:href="#h" x="68.936" y="89.477"/><use xlink:href="#f" x="74.366" y="86.219"/><path fill="none" stroke="#000" stroke-miterlimit="10" stroke-width=".359" d="M74.367 87.484h3.653"/><use xlink:href="#e" x="74.366" y="92.603"/><use xlink:href="#d" x="79.214" y="89.477"/><use xlink:href="#h" x="81.866" y="76.552"/><use xlink:href="#g" x="87.296" y="73.293"/><path fill="none" stroke="#000" stroke-miterlimit="10" stroke-width=".359" d="M87.297 74.559h3.652"/><use xlink:href="#c" x="87.296" y="79.677"/><use xlink:href="#d" x="92.144" y="76.552"/><use xlink:href="#a" x="46.508" y="58.905"/><use xlink:href="#h" x="65.406" y="58.905"/></svg>