<svg xmlns="http://www.w3.org/2000/svg" width="89.39" height="61.058"><defs><clipPath id="a"><path d="M0 0h89.086v60.586H0Zm0 0"/></clipPath></defs><g clip-path="url(#a)"><path fill="none" stroke="#000" stroke-miterlimit="10" stroke-width=".399" d="m.84 59.434 28.348-28.348m1.992 0a1.99 1.99 0 0 0-1.992-1.992 1.99 1.99 0 0 0-1.993 1.992 1.99 1.99 0 0 0 1.992 1.992 1.99 1.99 0 0 0 1.993-1.992Zm-1.992 0 56.69-28.348m1.993 0a1.993 1.993 0 1 0-3.983.002 1.993 1.993 0 0 0 3.983-.002Zm0 0"/></g></svg>