<svg xmlns="http://www.w3.org/2000/svg" xmlns:xlink="http://www.w3.org/1999/xlink" width="59.889" height="59.889"><defs><path id="b" d="M8.578 0v-.469H7.5v-5.906h1.078v-.469c-.39.032-1.36.032-1.797.032-.422 0-1.39 0-1.781-.032v.469h1.078v2.594H2.875v-2.594h1.078v-.469c-.375.032-1.344.032-1.781.032-.422 0-1.406 0-1.781-.032v.469h1.078v5.906H.39V0C.766-.031 1.75-.031 2.17-.031c.438 0 1.407 0 1.782.031v-.469H2.875v-2.843h3.203V-.47H5V0c.39-.031 1.36-.031 1.781-.031.438 0 1.407 0 1.797.031m0 0"/><path id="c" d="M2.844 0v-.469h-.61v-4.015L.5-4.406v.468c.594 0 .656 0 .656.391v3.078H.47V0l1.219-.031Zm-.469-6.047a.774.774 0 0 0-.781-.781.784.784 0 0 0-.782.781c0 .422.36.766.782.766a.77.77 0 0 0 .781-.766m0 0"/><clipPath id="a"><path d="M0 0h42v59.832H0Zm0 0"/></clipPath></defs><path fill="none" stroke="red" stroke-miterlimit="10" stroke-width="1.196" d="M1.543 58.234V1.543h56.691v56.691Zm0 0"/><path fill="none" stroke="#00F" stroke-miterlimit="10" stroke-width="1.196" d="M1.543 44.063V15.715h56.691v28.348Zm0 0"/><g clip-path="url(#a)"><path fill="none" stroke="#000" stroke-miterlimit="10" stroke-width=".797" d="M29.89 29.89c0-15.656-6.347-28.347-14.175-28.347S1.543 14.234 1.543 29.891c0 15.652 6.344 28.343 14.172 28.343S29.89 45.543 29.89 29.891Zm0 0"/></g><use xlink:href="#b" x="9.643" y="33.305"/><use xlink:href="#c" x="18.609" y="33.305"/></svg>