<svg xmlns="http://www.w3.org/2000/svg" width="36.402" height="35.246"><defs><clipPath id="a"><path d="M20 0h16.102v25H20Zm0 0"/></clipPath><clipPath id="b"><path d="M3 13h21v21.867H3Zm0 0"/></clipPath><clipPath id="c"><path d="M12 13h21v21.867H12Zm0 0"/></clipPath></defs><g fill="none" stroke-miterlimit="10" stroke-width=".399" clip-path="url(#a)"><path stroke="#000" stroke-dasharray="0.3985 1.99255" d="m34.898 4.242-8.503 14.73"/><path stroke="red" d="m34.898 4.242-1.304 9.067-7.2 5.664"/></g><path fill="none" stroke="#000" stroke-dasharray="0.3985 1.99255" stroke-miterlimit="10" stroke-width=".399" d="M26.395 18.973 17.89 4.243"/><path fill="none" stroke="red" stroke-miterlimit="10" stroke-width=".399" d="M17.89 4.242h17.008"/><g fill="none" stroke-miterlimit="10" stroke-width=".399" clip-path="url(#b)"><path stroke="#000" stroke-dasharray="0.3985 1.99255" d="M17.89 33.7 9.388 18.972"/><path stroke="red" d="m17.89 33.7-7.199-5.665-1.304-9.062"/></g><path fill="none" stroke="#000" stroke-dasharray="0.3985 1.99255" stroke-miterlimit="10" stroke-width=".399" d="M9.387 18.973h17.008"/><g clip-path="url(#c)"><path fill="none" stroke="red" stroke-miterlimit="10" stroke-width=".399" d="M26.395 18.973 17.89 33.699"/></g><path fill="none" stroke="#000" stroke-dasharray="0.3985 1.99255" stroke-miterlimit="10" stroke-width=".399" d="M.883 4.242H17.89"/><path fill="none" stroke="red" stroke-miterlimit="10" stroke-width=".399" d="M.883 4.242 9.387.84l8.504 3.402"/><path fill="none" stroke="#000" stroke-dasharray="0.3985 1.99255" stroke-miterlimit="10" stroke-width=".399" d="m17.89 4.242-8.503 14.73"/><path fill="none" stroke="red" stroke-miterlimit="10" stroke-width=".399" d="M9.387 18.973.883 4.243"/></svg>