<svg xmlns="http://www.w3.org/2000/svg" xmlns:xlink="http://www.w3.org/1999/xlink" width="137.666" height="10.46"><defs><path id="a" d="M2.938-6.375c0-.25 0-.266-.235-.266C2.078-6 1.203-6 .891-6v.313c.203 0 .78 0 1.297-.266v5.172c0 .36-.032.469-.922.469H.953V0c.344-.031 1.203-.031 1.61-.031.39 0 1.265 0 1.609.031v-.312h-.313c-.906 0-.921-.11-.921-.47Zm0 0"/><path id="b" d="M4.469-2c0-1.187-.813-2.187-1.89-2.187-.47 0-.907.156-1.267.515v-1.953c.204.063.532.125.844.125 1.235 0 1.938-.906 1.938-1.031 0-.063-.032-.11-.11-.11 0 0-.03 0-.078.032a3.2 3.2 0 0 1-1.36.297c-.39 0-.858-.079-1.327-.282-.078-.031-.094-.031-.11-.031C1-6.625 1-6.547 1-6.391v2.954c0 .171 0 .25.14.25.079 0 .094-.016.141-.079.11-.156.469-.703 1.282-.703.515 0 .765.453.843.64.156.376.188.75.188 1.25 0 .36 0 .954-.25 1.376-.235.39-.61.64-1.063.64-.719 0-1.297-.53-1.469-1.109.032 0 .063.016.172.016.329 0 .5-.25.5-.485 0-.25-.171-.5-.5-.5-.14 0-.484.079-.484.532C.5-.75 1.188.219 2.297.219 3.453.219 4.469-.734 4.469-2m0 0"/><path id="c" d="m1.266-.766 1.062-1.03c1.547-1.376 2.14-1.907 2.14-2.907 0-1.14-.89-1.938-2.109-1.938C1.234-6.64.5-5.719.5-4.828c0 .547.5.547.531.547.172 0 .516-.11.516-.532a.513.513 0 0 0-.531-.515c-.079 0-.094 0-.125.016.218-.657.765-1.016 1.343-1.016.907 0 1.329.812 1.329 1.625 0 .797-.485 1.578-1.047 2.203L.609-.375C.5-.265.5-.235.5 0h3.703l.266-1.734h-.235C4.172-1.437 4.11-1 4-.844c-.062.078-.719.078-.937.078Zm0 0"/><path id="d" d="M4.578-3.187c0-.797-.047-1.594-.39-2.329C3.734-6.484 2.906-6.64 2.5-6.64c-.61 0-1.328.266-1.75 1.188-.312.687-.36 1.469-.36 2.266 0 .75.032 1.64.454 2.406a1.83 1.83 0 0 0 1.64 1c.532 0 1.297-.203 1.735-1.156.312-.688.36-1.47.36-2.25M2.484 0c-.39 0-.984-.25-1.156-1.203-.11-.594-.11-1.516-.11-2.11 0-.64 0-1.296.079-1.828.187-1.187.937-1.28 1.187-1.28.329 0 .985.187 1.172 1.171.11.563.11 1.313.11 1.938 0 .75 0 1.421-.11 2.062C3.5-.297 2.937 0 2.484 0m0 0"/><path id="f" d="M2.938-1.64v.859c0 .36-.032.469-.766.469h-.203V0c.406-.031.922-.031 1.344-.031.421 0 .937 0 1.359.031v-.312h-.219c-.734 0-.75-.11-.75-.47v-.859h.985v-.312h-.985v-4.531c0-.203 0-.266-.172-.266-.078 0-.11 0-.187.125L.28-1.953v.312Zm.046-.313H.563l2.421-3.719Zm0 0"/><path id="e" d="M1.906-.531a.534.534 0 0 0-.515-.531.537.537 0 0 0-.532.53.524.524 0 1 0 1.047 0m0 0"/><path id="g" d="M1.906-2.5a.524.524 0 1 0-1.047.016.524.524 0 0 0 1.047-.016m0 0"/><path id="h" d="M2.328-4.437c0-.188 0-.188-.203-.188-.453.438-1.078.438-1.36.438v.25c.157 0 .626 0 1-.188v3.547c0 .234 0 .328-.687.328H.812V0c.125 0 .985-.031 1.235-.031.219 0 1.094.031 1.25.031v-.25H3.03c-.703 0-.703-.094-.703-.328Zm0 0"/><path id="j" d="M3.516-1.266H3.28c-.015.157-.094.563-.187.625-.047.047-.578.047-.688.047H1.125c.734-.64.984-.843 1.39-1.172.516-.406 1-.843 1-1.5 0-.843-.734-1.359-1.624-1.359-.86 0-1.453.61-1.453 1.25 0 .344.296.39.375.39.156 0 .359-.124.359-.374 0-.125-.047-.375-.406-.375.218-.485.687-.641 1.015-.641.703 0 1.063.547 1.063 1.11 0 .609-.438 1.078-.656 1.328L.516-.266C.437-.203.437-.187.437 0h2.876Zm0 0"/><path id="i" d="M5.188-1.578c.109 0 .28 0 .28-.156 0-.188-.171-.188-.28-.188H1.03c-.11 0-.281 0-.281.172s.156.172.281.172Zm0 0"/></defs><use xlink:href="#a" x="-.049" y="8.975"/><use xlink:href="#b" x="4.932" y="8.975"/><use xlink:href="#c" x="19.876" y="8.975"/><use xlink:href="#d" x="24.858" y="8.975"/><use xlink:href="#c" x="39.802" y="8.975"/><use xlink:href="#e" x="44.783" y="8.975"/><use xlink:href="#d" x="47.55" y="8.975"/><use xlink:href="#f" x="52.531" y="8.975"/><use xlink:href="#g" x="59.727" y="8.975"/><use xlink:href="#a" x="64.708" y="8.975"/><use xlink:href="#d" x="69.689" y="8.975"/><use xlink:href="#h" x="74.671" y="5.36"/><use xlink:href="#a" x="89.103" y="8.975"/><use xlink:href="#g" x="96.298" y="8.975"/><use xlink:href="#a" x="101.279" y="8.975"/><use xlink:href="#d" x="106.26" y="8.975"/><use xlink:href="#i" x="111.242" y="5.36"/><use xlink:href="#j" x="117.469" y="5.36"/><use xlink:href="#d" x="131.901" y="8.975"/></svg>