<svg xmlns="http://www.w3.org/2000/svg" xmlns:xlink="http://www.w3.org/1999/xlink" width="76.448" height="21.98"><defs><path id="b" d="M5.984 0v-.469c-.609 0-.687 0-.687-.39v-6.063l-1.766.078v.469c.625 0 .703 0 .703.39v1.954a2.18 2.18 0 0 0-1.359-.453c-1.453 0-2.5.875-2.5 2.28 0 1.313.922 2.267 2.39 2.267.61 0 1.094-.235 1.407-.485v.485ZM4.172-1.031c-.14.187-.547.734-1.297.734-1.219 0-1.219-1.203-1.219-1.906 0-.485 0-1.016.25-1.406.297-.422.766-.516 1.078-.516.563 0 .97.313 1.188.61Zm0 0"/><path id="c" d="M4.922-1.172c0-.172-.188-.172-.234-.172-.172 0-.188.047-.25.203-.204.485-.782.797-1.422.797-1.407 0-1.422-1.328-1.422-1.828h3.015c.22 0 .313 0 .313-.265 0-.313-.063-1.047-.563-1.547-.359-.36-.89-.532-1.578-.532C1.187-4.516.313-3.484.313-2.25c0 1.344 1 2.313 2.609 2.313 1.578 0 2-1.063 2-1.235M3.984-2.5h-2.39c.015-.39.031-.812.234-1.14.266-.391.672-.516.953-.516 1.172 0 1.188 1.312 1.203 1.656m0 0"/><path id="d" d="M4.36-6.11c0-.421-.36-.874-1.141-.874-.969 0-2.047.422-2.047 1.547v1.015h-.75v.469h.75V-.47H.484V0l1.25-.031c.375 0 1.016 0 1.375.031v-.469H2.25v-3.484h1.14v-.469H2.188v-1.016c0-1.093.75-1.187 1-1.187.047 0 .11 0 .172.031a.59.59 0 0 0-.234.485c0 .422.36.609.61.609.296 0 .624-.203.624-.61m0 0"/><path id="f" d="M5.406 0v-.469h-.968v-1.094h.968v-.468h-.968V-6.22c0-.265-.016-.328-.297-.328-.22 0-.22.016-.344.172L.313-2.031v.469h2.875V-.47h-1.11V0c.375-.031 1.281-.031 1.703-.031.406 0 1.266 0 1.625.031m-2.11-2.031H.845L3.297-5.11Zm0 0"/><path id="g" d="M5.156-2c0-1.156-.797-2.078-2.265-2.078-.282 0-.813.031-1.282.344v-1.313c.282.047.391.078.72.078 1.452 0 2.374-1.125 2.374-1.375 0-.078-.016-.187-.14-.187-.032 0-.032 0-.141.047a4.3 4.3 0 0 1-1.531.28c-.75 0-1.282-.202-1.547-.28-.094-.032-.094-.047-.125-.047-.14 0-.14.11-.14.265v2.922c0 .172 0 .297.218.297.125 0 .156-.031.219-.11.39-.468.922-.562 1.328-.562.89 0 .89.875.89 1.672 0 .735 0 1.735-1.187 1.735-.25 0-.875-.063-1.297-.625.36-.016.656-.266.656-.672 0-.532-.437-.672-.672-.672-.14 0-.671.094-.671.703 0 .844.78 1.687 2.015 1.687C4.172.11 5.156-.78 5.156-2m0 0"/><path id="h" d="M5.25-2.047c0-1.39-1.016-2.125-2.219-2.125-.219 0-.781 0-1.203.766v-.188c0-1.14.219-1.562.281-1.719.25-.468.782-.828 1.391-.828.172 0 .516.032.75.266a.595.595 0 0 0-.547.61c0 .343.235.624.625.624s.625-.265.625-.64c0-.625-.422-1.25-1.469-1.25-1.359 0-3 .86-3 3.375 0 .781.079 1.578.5 2.265.47.766 1.22 1 1.922 1C4.281.11 5.25-.703 5.25-2.047m-1.36-.015c0 1 0 1.75-1.015 1.75-.516 0-.781-.391-.86-.563-.156-.312-.156-1.031-.156-1.219 0-1.25.532-1.719 1.079-1.719.953 0 .953.75.953 1.75m0 0"/><clipPath id="a"><path d="M0 0h33v21.969H0Zm0 0"/></clipPath><clipPath id="e"><path d="M32 0h44.172v21.969H32Zm0 0"/></clipPath></defs><g clip-path="url(#a)"><path fill="none" stroke="#000" stroke-miterlimit="10" stroke-width=".399" d="M26.68 6.129 21.742 1.19H5.88L.94 6.13v9.687l1.993 1.993 2.945 2.949h15.863l2.945-2.95 1.993-1.992Zm0 0"/></g><use xlink:href="#b" x="6.254" y="14.43"/><use xlink:href="#c" x="12.62" y="14.43"/><use xlink:href="#d" x="17.87" y="14.43"/><g clip-path="url(#e)"><path fill="none" stroke="#000" stroke-miterlimit="10" stroke-width=".399" d="m74.887 10.973-6.64-6.645-2.95-2.945H47.363l-9.59 9.59 9.59 9.59h17.934l2.95-2.946Zm0 0"/></g><use xlink:href="#f" x="47.738" y="14.186"/><use xlink:href="#g" x="53.467" y="14.186"/><use xlink:href="#h" x="59.195" y="14.186"/></svg>