<svg xmlns="http://www.w3.org/2000/svg" width="48.188" height="10.838"><defs><clipPath id="a"><path d="M0 0h47.781v10.758H0Zm0 0"/></clipPath><clipPath id="b"><path d="M0 0h10v10.758H0Zm0 0"/></clipPath><clipPath id="c"><path d="M23 0h16v10.758H23Zm0 0"/></clipPath><clipPath id="d"><path d="M37 0h10.781v10H37Zm0 0"/></clipPath></defs><g clip-path="url(#a)"><path fill="none" stroke="#BFBFBF" stroke-miterlimit="10" stroke-width=".399" d="m2.43 8.586 14.172-5.668 14.171 5.668L44.95 2.918"/></g><g clip-path="url(#b)"><path fill="none" stroke="#000" stroke-miterlimit="10" stroke-width=".399" d="M2.43 6.594v1.992m1.722.996L2.43 8.586m-1.727.996 1.727-.996"/></g><path fill="none" stroke="#000" stroke-miterlimit="10" stroke-width=".399" d="M16.602.926v1.992m1.726.996-1.726-.996m-1.727.996 1.727-.996"/><g clip-path="url(#c)"><path fill="none" stroke="#000" stroke-miterlimit="10" stroke-width=".399" d="M30.773 6.594v1.992m1.727.996-1.727-.996m-1.722.996 1.722-.996"/></g><g clip-path="url(#d)"><path fill="none" stroke="#000" stroke-miterlimit="10" stroke-width=".399" d="M44.95.926v1.992m1.722.996-1.723-.996m-1.726.996 1.726-.996"/></g></svg>