<svg xmlns="http://www.w3.org/2000/svg" xmlns:xlink="http://www.w3.org/1999/xlink" width="156.458" height="9.542"><defs><path id="a" d="M4.688-3.047c0-2.89-.22-3.156-2.079-3.156S.531-5.937.531-3.047.75.11 2.61.11l.5-.015.563 1.11c.11.124.219.14.422.14h.078c.187 0 .39-.016.39-.25 0-.047-.203-.438-.312-.672l-.266-.5c.375-.188.563-.547.657-1.328.046-.532.046-1.188.046-1.64m-.813 0c0 1.735-.14 2.047-.312 2.188l-.422-.766c-.11-.172-.125-.187-.36-.187h-.11c-.171 0-.39.015-.39.25 0 .062.016.109.047.171l.39.75h-.187c-.812 0-1-.25-1.078-.734-.094-.484-.094-1.14-.094-1.672 0-.531 0-1.281.094-1.734.125-.5.328-.672 1.156-.672.813 0 1.063.156 1.172.734.094.485.094 1.157.094 1.672m0 0"/><path id="b" d="M5.11-.375c0-.36-.298-.375-.454-.375h-.36v-3.125c0-.36-.077-.469-.468-.469h-.703c-.187 0-.484.016-.484.375 0 .36.297.375.468.375h.36v1.985c0 .812-.735.922-1.031.922-.672 0-.688-.282-.688-.563v-2.625c0-.36-.062-.469-.469-.469H.578c-.187 0-.469.016-.469.375 0 .36.297.375.454.375h.359v2.407c0 .984.719 1.25 1.469 1.25.375 0 .75-.094 1.093-.313.063.234.266.25.454.25h.703c.187 0 .468-.016.468-.375m0 0"/><path id="c" d="M4.688-2.172c0-1.265-.954-2.25-2.079-2.25S.531-3.438.531-2.172C.531-.89 1.5.063 2.61.063c1.11 0 2.079-.97 2.079-2.235m-.829-.078c0 .86-.562 1.563-1.25 1.563-.671 0-1.25-.704-1.25-1.563 0-.828.61-1.422 1.25-1.422.657 0 1.25.594 1.25 1.422m0 0"/><path id="d" d="M4.5-1.312c0-.204 0-.438-.422-.438-.39 0-.406.234-.406.438 0 .53-.5.625-.719.625-.656 0-.656-.454-.656-.672v-2.235h1.515c.172 0 .47-.015.47-.375 0-.375-.282-.375-.47-.375H2.298v-.718c0-.22-.016-.47-.406-.47-.422 0-.422.235-.422.47v.718H.703c-.187 0-.469.016-.469.375 0 .36.282.375.454.375h.78v2.282c0 1 .688 1.375 1.454 1.375.75 0 1.578-.454 1.578-1.375m0 0"/><path id="e" d="M4.656-1.14c0-.329-.343-.344-.422-.344-.218 0-.312.03-.39.265-.203.453-.688.532-.938.532-.672 0-1.344-.422-1.515-1.172h2.797c.25 0 .468 0 .468-.438 0-1.14-.656-2.125-1.968-2.125-1.188 0-2.172 1-2.172 2.234C.516-.952 1.53.063 2.828.063c1.36 0 1.828-.937 1.828-1.203m-.86-1.454H1.392c.172-.625.687-1.078 1.297-1.078.468 0 1 .219 1.109 1.078m0 0"/><path id="f" d="M5.125-.375c0-.36-.297-.375-.469-.375h-.36v-4.86c0-.359-.062-.484-.468-.484h-.703c-.187 0-.484.016-.484.375 0 .36.297.375.468.375h.36v1.297a1.73 1.73 0 0 0-1.063-.344c-1.094 0-2.062.938-2.062 2.235C.344-.922 1.25.063 2.328.063c.485 0 .86-.204 1.14-.454.016.282.079.391.47.391h.703c.187 0 .484-.016.484-.375M3.453-1.969c0 .516-.406 1.282-1.094 1.282-.671 0-1.203-.657-1.203-1.47 0-.89.64-1.5 1.282-1.5.578 0 1.015.5 1.015 1Zm0 0"/><path id="g" d="M3.297-3.656a.68.68 0 0 0-.672-.688.683.683 0 0 0-.687.688c0 .39.328.687.671.687a.683.683 0 0 0 .688-.687m0 2.984a.67.67 0 0 0-.672-.687.67.67 0 0 0-.687.672c0 .39.328.687.671.687a.68.68 0 0 0 .688-.672m0 0"/><path id="h" d="M4-5.578c.031-.531-.344-.625-.5-.625-.219 0-.547.125-.516.625L3.11-3.61c.016.187.063.422.391.422.297 0 .375-.22.375-.407Zm-1.75 0c.016-.531-.36-.625-.516-.625-.218 0-.546.125-.515.625l.125 1.969c.015.187.062.422.39.422.297 0 .375-.22.375-.407Zm0 0"/><path id="i" d="M4.39-5.5c0-.625-.843-.656-1.015-.656-.828 0-1.594.484-1.594 1.375v.437H.875c-.187 0-.469.016-.469.375 0 .36.282.375.469.375h.906V-.75H.875c-.187 0-.484.016-.484.375 0 .36.297.375.484.375H3.5c.172 0 .484-.016.484-.375 0-.36-.312-.375-.484-.375h-.906v-2.844h1.11c.171 0 .468-.015.468-.375 0-.375-.281-.375-.469-.375h-1.11v-.375c0-.64.516-.687.813-.687.031.14.156.422.485.422.218 0 .5-.172.5-.516m0 0"/><path id="j" d="M3.297-.672a.67.67 0 0 0-.672-.687.67.67 0 0 0-.687.672c0 .39.328.687.671.687a.68.68 0 0 0 .688-.672m0 0"/><path id="k" d="M4.813-4.234c0-.938-.75-1.86-1.922-1.86H.719c-.188 0-.485.016-.485.375 0 .36.297.375.485.375h.203V-.75H.719c-.188 0-.485.016-.485.375 0 .36.297.375.485.375h1.25c.172 0 .468-.016.468-.375 0-.36-.296-.375-.468-.375H1.75v-1.625h1.14c1.172 0 1.922-.922 1.922-1.86m-.829 0c0 .484-.39 1.109-1.265 1.109h-.953v-2.219h.953c.875 0 1.265.625 1.265 1.11m0 0"/><path id="l" d="M4.563-.375c0-.36-.297-.375-.47-.375h-.937v-3.125c0-.36-.078-.469-.469-.469H1.314c-.188 0-.485.016-.485.36 0 .375.297.39.485.39h1.015V-.75h-1.11c-.187 0-.468.016-.468.375 0 .36.297.375.469.375h2.875c.172 0 .468-.016.468-.375m-1.375-5.11a.56.56 0 0 0-.563-.562.564.564 0 0 0-.578.563c0 .328.25.562.578.562a.55.55 0 0 0 .563-.562m0 0"/><path id="m" d="M5.11-.375c0-.36-.282-.375-.47-.375h-.343v-2.172c0-1.031-.531-1.469-1.344-1.469-.562 0-.953.22-1.203.407 0-.25-.078-.36-.469-.36H.578c-.187 0-.469.016-.469.375 0 .36.297.375.454.375h.359V-.75H.578C.391-.75.11-.734.11-.375c0 .36.297.375.454.375h1.546c.172 0 .47-.016.47-.375 0-.36-.282-.375-.47-.375H1.75v-1.64c0-.907.688-1.266 1.14-1.266.47 0 .579.25.579.781V-.75h-.297c-.188 0-.485.016-.485.375 0 .36.313.375.485.375h1.484c.157 0 .453-.016.453-.375m0 0"/><path id="n" d="M4.688-.953c0-.219-.141-.328-.266-.406L1.734-3.047 4.422-4.75c.125-.078.266-.172.266-.39a.4.4 0 0 0-.407-.407c-.11 0-.14 0-.297.11l-3.203 2c-.11.062-.25.171-.25.39 0 .14.094.281.219.36l3.234 2.03c.157.11.188.11.297.11.188 0 .407-.14.407-.406m0 0"/><path id="o" d="M4.89-2.172c0-1.25-.906-2.219-1.984-2.219-.422 0-.828.141-1.156.375v-1.593c0-.36-.062-.485-.469-.485H.578c-.187 0-.484.016-.484.375 0 .36.312.375.469.375h.359v4.86c0 .25.015.484.422.484.312 0 .39-.14.406-.344.375.328.766.407 1.047.407C3.89.063 4.89-.891 4.89-2.172m-.827 0c0 .875-.641 1.485-1.282 1.485-.703 0-1.015-.813-1.015-1.25v-.704c0-.546.53-1.015 1.093-1.015.672 0 1.204.687 1.204 1.484m0 0"/><path id="p" d="M5.188-.375c0-.36-.282-.375-.47-.375-.28 0-.421-.031-.5-.062v-2.032c0-.719-.546-1.578-2-1.578-.437 0-1.484.031-1.484.781 0 .344.25.516.516.516.172 0 .5-.094.5-.531 0 0 .328-.016.484-.016.657 0 1.125.25 1.157.828-1.72.047-2.907.578-2.907 1.516 0 .703.625 1.39 1.672 1.39.36 0 .938-.078 1.406-.359.25.281.688.297 1.063.297.328 0 .563-.016.563-.375m-1.813-1c0 .188 0 .375-.328.531s-.75.156-.828.156c-.547 0-.922-.296-.922-.64 0-.438.781-.734 2.078-.781Zm0 0"/><path id="q" d="M4.875-3.719c0-.219-.125-.672-1-.672-.469 0-1.047.141-1.578.657v-.141c0-.36-.063-.469-.469-.469H.766c-.172 0-.47.016-.47.36 0 .375.282.39.47.39h.703V-.75H.766c-.172 0-.47.016-.47.375 0 .36.282.375.47.375h2.53c.188 0 .485-.016.485-.375 0-.36-.297-.375-.484-.375h-1v-1.14c0-.844.531-1.735 1.594-1.766 0 .25.234.422.5.422.25 0 .484-.172.484-.485m0 0"/><path id="r" d="M4.688-3.047c0-.156-.094-.281-.22-.375L1.25-5.437c-.156-.11-.187-.11-.297-.11-.203 0-.422.14-.422.406 0 .22.14.313.266.391l2.687 1.703L.797-1.359c-.125.078-.266.187-.266.406 0 .265.219.406.422.406.11 0 .14 0 .297-.11l3.188-2c.109-.077.25-.171.25-.39m0 0"/></defs><use xlink:href="#a" x=".207" y="6.955"/><use xlink:href="#b" x="5.437" y="6.955"/><use xlink:href="#c" x="10.668" y="6.955"/><use xlink:href="#d" x="15.898" y="6.955"/><use xlink:href="#e" x="21.129" y="6.955"/><use xlink:href="#f" x="26.359" y="6.955"/><use xlink:href="#g" x="31.589" y="6.955"/><use xlink:href="#h" x="42.05" y="6.955"/><use xlink:href="#i" x="47.28" y="6.955"/><use xlink:href="#c" x="52.511" y="6.955"/><use xlink:href="#c" x="57.741" y="6.955"/><use xlink:href="#h" x="62.972" y="6.955"/><use xlink:href="#j" x="68.202" y="6.955"/><use xlink:href="#k" x="78.663" y="6.955"/><use xlink:href="#c" x="83.893" y="6.955"/><use xlink:href="#l" x="89.124" y="6.955"/><use xlink:href="#m" x="94.354" y="6.955"/><use xlink:href="#d" x="99.584" y="6.955"/><use xlink:href="#e" x="104.815" y="6.955"/><use xlink:href="#f" x="110.045" y="6.955"/><use xlink:href="#g" x="115.275" y="6.955"/><use xlink:href="#n" x="125.736" y="6.955"/><use xlink:href="#o" x="130.967" y="6.955"/><use xlink:href="#p" x="136.197" y="6.955"/><use xlink:href="#q" x="141.427" y="6.955"/><use xlink:href="#r" x="146.658" y="6.955"/><use xlink:href="#j" x="151.888" y="6.955"/></svg>