<svg xmlns="http://www.w3.org/2000/svg" width="31.754" height="10.28"><defs><clipPath id="a"><path d="M0 0h31.633v9.922H0Zm0 0"/></clipPath></defs><g clip-path="url(#a)"><path fill="none" stroke="#000" stroke-miterlimit="10" stroke-width="4.423" d="M1.992 7c4.13-2.383 8.192-3.742 12.242-4.066"/></g><path d="M12.965.84a38 38 0 0 1 3.277-.195c1.207.03 2.102 1.082 1.996 2.3-.105 1.215-1.008 2.149-2.008 2.121q-1.365.024-2.73.164c-.18-1.464-.355-2.93-.535-4.39M18.43.742q1.09.106 2.18.278a2.105 2.105 0 0 1 1.636 2.605c-.3 1.184-1.363 1.953-2.375 1.758a30 30 0 0 0-1.824-.235c1.004.11 1.988-.742 2.195-1.945.203-1.207-.61-2.328-1.812-2.46m0 0"/><path d="M22.79 1.48q1.09.294 2.21.657c1.234.441 1.848 1.758 1.375 2.883s-1.723 1.69-2.785 1.308q-.96-.311-1.887-.558c1.027.285 2.203-.383 2.59-1.54.39-1.156-.293-2.414-1.504-2.75m0 0"/><path d="M27.234 2.98c.73.32 1.438.645 2.149.993 1.152.601 1.566 1.968.953 3.027-.61 1.059-1.914 1.46-2.938.926a43 43 0 0 0-1.882-.867c1.047.464 2.328-.016 2.875-1.11s.039-2.437-1.157-2.969m0 0"/></svg>