<svg xmlns="http://www.w3.org/2000/svg" width="101.232" height="77.51"><defs><clipPath id="a"><path d="M71 14h29v30H71Zm0 0"/></clipPath><clipPath id="b"><path d="M99.84 29.102c0-7.829-6.348-14.172-14.176-14.172s-14.172 6.343-14.172 14.172c0 7.828 6.344 14.171 14.172 14.171S99.84 36.93 99.84 29.102m0 0"/></clipPath><clipPath id="c"><path d="M14 0h30v30H14Zm0 0"/></clipPath><clipPath id="d"><path d="M43.145 14.93C43.145 7.102 36.8.754 28.973.754S14.797 7.102 14.797 14.93c0 7.824 6.348 14.172 14.176 14.172s14.172-6.348 14.172-14.172m0 0"/></clipPath></defs><path fill="none" stroke="#000" stroke-miterlimit="10" stroke-width=".399" d="M.625 57.45h.887v-.888h.886v1.77h.883v-.883h.887v-.886h-.887v-.887h1.774v-.887h-.887v-.883h.887v-.886h.886v1.77h.883v-.884h.887v.883h.887v.887H6.824v.886h.887v1.77h.887v.887H6.824v.886h.887v.887h.887v-.887h.886v1.774h.887v-.887h.883v-.887h-.883v-.886h1.77v-.887h-.887v-.883h.887v-.886h.886v1.769h.887v-.883h.883v-.886h-.883v-.887h1.77v-.887h-.887v-.883h-.883v.883h-.887v-1.77h-.886v.887h-.887v-.886h-.883v-.887h1.77v-.887h-.887v-.887h.887v-.882h.886v1.77h.887v-.888h1.77v-.882h.886v1.77h.887v-.888h.883v-.882h-.883v-.887h1.77v-.887h-.887v-.887h-.883v.887h-.887v-1.77h-.886v.883h-.887v-.882h-.883v-.887h1.77v-.887h-.887v-.887h.887v-.882h.886v1.77h.887v-.888h.883v-.882h-.883v-.887h1.77v-.887h-.887v-.887h.887v-.886h.886v1.773H21v-.887h.887v.887h.883v.887H21v.887h.887v1.77h.883v.886H21v.887h.887v.882h.883v-.882h.886v1.77h.887v-.888h.887v-.882h-.887v-.887h1.77v-.887h-.883v-.887h.883v-.882h.886v1.77h.887v-.888h.887v.887h.886v.887h-1.773v.887h.887v.882h.886v-.882h.883v1.77h.887v-.888h.887v.887h.886v.887H31.63v.887h.887v.882h-.887v.887h-.887v-1.77h-.883v.883h-1.773v.887h-.887v-1.77h-.887v.883h-.882v.887h.883v.887h-1.77v.887h.887v.886h.883v-.886h.886v1.77h.887v-.884h.887v.883h.886v.887h-1.773v.886h.887v1.77h.886v.887h-1.773v.886h.887v.887h.886v-.887h.883v1.774h.887v-.887h.887v.887h.886v.883H31.63v.886h.887v.887h-.887v.887h-.887v-1.774h-.883v.887h-1.773v.887h-.887v-1.774h-.887v.887h-.882v.887h.883v.883h-1.77v.886h.887v.887h.883v-.887h.886v1.774h.887v-.887h.887v.887h.886v.887h-1.773v.882h.887v.887h.886v-.887h.883v1.774h.887v-.887h.887v-.887h-.887v-.882h1.773v-.887h-.886v-.887h.886v-.887h.883v1.774h.887v-.887h.887v.887h.886v.887h-1.773v.882h.887v1.774h.886v.887h-1.773v.882h.887v.887h.886v-.887h.887v1.774h.883v-.887h.887v-.887h-.887v-.882h1.773v-.887h-.886v-.887h.886v-.887h.887v1.774h.883v-.887h.887v-.887h-.887v-.882h1.773v-.887h-.886v-.887h-.887v.887h-.883V67.19h-.887v.887h-.886v-.887h-.887v-.886h1.773v-.883h-.886v-.887h.886v-.887h.887v1.774h.883v-.887h1.773v-.887h.887v1.774h.883v-.887h.886v-.887h-.886v-.886h1.773v-.883h-.886v-.887H45.8v.887h-.883v-1.774h-.887v.887h-.886v-.887h-.887v-.886h1.773v-.887h-.886v-.883h.886v-.886h.887v1.769h.883v-.883h.886v-.886h-.886v-.887h1.773v-.887h-.886v-.883h.886v-.886h.887v1.77h.887v-.884h.882v.883h.887v.887h-1.77v.886h.883v1.77h.887v.887h-1.77v.886h.883v.887h.887v-.887h.887v1.774h.887v-.887h.882v-.887h-.882v-.886h1.77v-.887h-.888v-.883h.887v-.886h.887v1.769h.887v-.883h.886"/><path fill="#0F0" fill-opacity=".2" d="M50.703 54.613a4.725 4.725 0 0 0-9.45 0 4.725 4.725 0 0 0 9.45 0M99.84 29.102c0-7.829-6.348-14.172-14.176-14.172s-14.172 6.343-14.172 14.172c0 7.828 6.344 14.171 14.172 14.171S99.84 36.93 99.84 29.102m0 0"/><g clip-path="url(#a)"><g clip-path="url(#b)"><path fill="none" stroke="#000" stroke-miterlimit="10" stroke-width="1.197" d="M-50.398 37.605h2.656V34.95h2.656v5.313h2.66v-2.657h2.656V34.95h-2.656v-2.66h5.313v-2.656h-2.657v-2.656h2.657v-2.66h2.656v5.316h2.66v-2.656h2.656v2.656h2.657v2.656h-5.313v2.66h2.656v5.313h2.657v2.66h-5.313v2.656h2.656v2.656h2.657v-2.656h2.66v5.317h2.656v-2.66h2.656v-2.657h-2.656v-2.656h5.316v-2.66h-2.66v-2.657h2.66V34.95h2.657v5.313h2.656v-2.657h2.66V34.95h-2.66v-2.66h5.316v-2.656h-2.656v-2.656h-2.66v2.656h-2.656v-5.317h-2.657v2.66h-2.66v-2.66h-2.656V21.66h5.316v-2.656h-2.66v-2.66h2.66v-2.656h2.657v5.316h2.656v-2.66h5.316v-2.656h2.657v5.316h2.66v-2.66H2.75v-2.656H.094V11.03h5.312v-2.66H2.75V5.715H.094V8.37h-2.66V3.06h-2.657v2.656h-2.656V3.059h-2.66V.402h5.316v-2.66h-2.656v-2.656h2.656V-7.57h2.657v5.312h2.66v-2.656H2.75V-7.57H.094v-2.66h5.312v-2.657H2.75v-2.656h2.656v-2.66h2.66v5.316h2.657v-2.656h2.656v2.656h2.66v2.657h-5.316v2.66h2.656v5.312h2.66V.398h-5.316v2.66h2.656v2.657h2.66V3.059h2.656V8.37h2.657V5.715h2.66V3.059h-2.66V.402h5.316v-2.66h-2.656v-2.656h2.656V-7.57h2.656v5.312h2.66v-2.656h2.657v2.656h2.656V.398h-5.313v2.66h2.657v2.657h2.656V3.059h2.66V8.37h2.656V5.715h2.657V8.37h2.656v2.66h-5.313v2.657h2.657v2.656h-2.657v2.66h-2.656v-5.316h-2.66v2.656h-5.313v2.66h-2.66v-5.316h-2.656v2.656h-2.656v2.66h2.656v2.656h-5.316v2.656h2.66v2.66h2.656v-2.66h2.656v5.317h2.66v-2.656h2.657v2.656h2.656v2.656h-5.313v2.66h2.657v5.313h2.656v2.66h-5.313v2.656h2.657v2.656h2.656v-2.656h2.66v5.317h2.656v-2.66h2.657v2.66h2.656v2.656h-5.313v2.656h2.657v2.66h-2.657v2.656h-2.656v-5.316h-2.66v2.66h-5.313v2.656h-2.66v-5.316h-2.656v2.66h-2.656v2.656h2.656v2.657h-5.316v2.66h2.66v2.656h2.656V66.84h2.656v5.312h2.66v-2.656h2.657v2.656h2.656v2.66h-5.313v2.657h2.657v2.656h2.656v-2.656h2.66v5.312h2.656v-2.656h2.657v-2.656h-2.657v-2.656h5.313v-2.66H45.27v-2.657h2.656V66.84h2.66v5.312h2.656v-2.656h2.656v2.656h2.66v2.66h-5.316v2.657h2.656v5.312h2.66v2.66h-5.316v2.657h2.656v2.656h2.66v-2.656h2.657v5.316h2.656v-2.66h2.66v-2.656h-2.66V85.44h5.316v-2.66h-2.656v-2.656h2.656v-2.656h2.657v5.312h2.66v-2.656h2.656v-2.656h-2.656v-2.656h5.312v-2.66H77.16v-2.657h-2.656v2.656h-2.66V66.84h-2.656v2.656H66.53V66.84h-2.66v-2.66h5.316v-2.657h-2.656v-2.656h2.656v-2.66h2.657v5.316h2.66v-2.656h5.312v-2.66h2.66v5.316h2.657v-2.656h2.656v-2.66h-2.656v-2.656h5.316v-2.656h-2.66v-2.66h-2.656v2.66h-2.656v-5.317h-2.66v2.656H77.16v-2.656h-2.656v-2.656h5.312v-2.66H77.16v-2.657h2.656V34.95h2.66v5.313h2.657v-2.657h2.656V34.95h-2.656v-2.66h5.316v-2.656h-2.66v-2.656h2.66v-2.66h2.656v5.316h2.657v-2.656h2.66v2.656h2.656v2.656h-5.316v2.66h2.66v5.313h2.656v2.66h-5.316v2.656h2.66v2.656h2.656v-2.656h2.656v5.317h2.66v-2.66h2.657v-2.657h-2.656v-2.656h5.312v-2.66h-2.656v-2.657h2.656V34.95h2.66v5.313h2.656v-2.657h2.657"/></g></g><path fill="red" fill-opacity=".2" d="M19.523 46.11a4.725 4.725 0 0 0-9.449 0 4.725 4.725 0 0 0 9.45 0M43.145 14.93C43.145 7.102 36.8.754 28.973.754S14.797 7.102 14.797 14.93c0 7.824 6.348 14.172 14.176 14.172s14.172-6.348 14.172-14.172m0 0"/><g clip-path="url(#c)"><g clip-path="url(#d)"><path fill="none" stroke="#000" stroke-miterlimit="10" stroke-width="1.197" d="M-13.547 48.945h2.656v-2.66h2.657v5.317h2.66v-2.657h2.656v-2.66h-2.656V43.63h5.312v-2.656h-2.656v-2.66h2.656v-2.657h2.66v5.317h2.657v-2.66H7.71v2.66h2.66v2.656H5.055v2.656H7.71v5.317h2.66v2.656H5.055v2.66H7.71v2.656h2.66v-2.656h2.656v5.312h2.657v-2.656h2.66v-2.656h-2.66v-2.66H21v-2.656h-2.656v-2.657H21v-2.66h2.656v5.317h2.657v-2.657h2.66v-2.66h-2.657V43.63h5.313v-2.656h-2.656v-2.66h-2.657v2.66h-2.66v-5.317H21v2.656h-2.656v-2.656h-2.66V33H21v-2.66h-2.656v-2.656H21v-2.657h2.656v5.313h2.66v-2.656h5.313v-2.657h2.656v5.313h2.66v-2.656h2.657v-2.657h-2.657v-2.66h5.313v-2.656h-2.656v-2.656h-2.657v2.656h-2.66v-5.316H31.63v2.66h-2.656v-2.66h-2.657v-2.657h5.313V9.082h-2.656v-2.66h2.656V3.766h2.656v5.316h2.66v-2.66h2.657V3.766h-2.657V1.109h5.313v-2.66h-2.656v-2.656h2.656v-2.656h2.66v5.312h2.656v-2.656h2.656v2.656h2.66v2.66h-5.316v2.657h2.656v5.316h2.66v2.656h-5.316v2.657h2.656v2.66h2.66v-2.66h2.657v5.316h2.656v-2.656h2.66v-2.66h-2.66v-2.657h5.317V9.082h-2.657v-2.66h2.657V3.766h2.656v5.316h2.66v-2.66h2.656v2.66h2.656v2.656h-5.312v2.657h2.656v2.66h2.656v-2.66h2.66v5.316h2.657v-2.656h2.656v2.656h2.66v2.656h-5.316v2.66h2.656v2.657h-2.656v2.656h-2.656v-5.313h-2.66v2.657h-5.313v2.656h-2.66v-5.313H63.52v2.657h-2.657v2.656h2.657V33h-5.317v2.656h2.66v2.656h2.657v-2.656h2.656v5.317h2.66v-2.66h2.656v2.66h2.656v2.656h-5.312v2.656h2.656v5.317h2.656v2.656h-5.312v2.66h2.656v2.656h2.656v-2.656h2.66v5.312h2.657v-2.656h2.656v2.656h2.66v2.657h-5.316v2.66h2.656v2.656h-2.656v2.656h-2.656v-5.312h-2.66v2.656h-5.313v2.656h-2.66v-5.312H63.52v2.656h-2.657v2.656h2.657v2.66h-5.317v2.657h2.66v2.656h2.657v-2.656h2.656v5.316h2.66v-2.66h2.656v2.66h2.656v2.656h-5.312v2.657h2.656v2.66h2.656v-2.66h2.66v5.316h2.657v-2.656h2.656v-2.66h-2.656v-2.657h5.316v-2.656h-2.66v-2.66h2.66v-2.656h2.656v5.316h2.657v-2.66h2.66v2.66h2.656v2.656h-5.316v2.657h2.66v5.316h2.656v2.656h-5.316v2.66h2.66v2.657h2.656v-2.657h2.656v5.313h2.66v-2.656h2.657v-2.657h-2.656v-2.66h5.312v-2.656h-2.656v-2.656h2.656v-2.66h2.66v5.316h2.656v-2.656h2.657v-2.66h-2.657v-2.657h5.317v-2.656h-2.66v-2.66h-2.657v2.66H108.7v-5.316h-2.66v2.656h-2.656v-2.656h-2.656V75.52h5.312v-2.66h-2.656v-2.657h2.656v-2.656h2.66v5.312h2.656v-2.656h5.317v-2.656h2.656v5.312h2.656v-2.656h2.657v-2.656h-2.657V64.89h5.317v-2.66h-2.66v-2.657h-2.657v2.656h-2.656v-5.312h-2.656v2.656h-2.66v-2.656h-2.657v-2.66h5.317v-2.656h-2.66v-2.657h2.66v-2.66h2.656v5.317h2.656v-2.657h2.657v-2.66h-2.657V43.63h5.317v-2.656h-2.66v-2.66h2.66v-2.657h2.656v5.317h2.656v-2.66h2.66v2.66h2.657v2.656h-5.317v2.656h2.66v5.317h2.657v2.656h-5.317v2.66h2.66v2.656h2.657v-2.656h2.656v5.312h2.66v-2.656h2.656v-2.656h-2.656v-2.66h5.313v-2.656h-2.657v-2.657h2.657v-2.66h2.66v5.317h2.656v-2.657h2.656"/></g></g><path fill="none" stroke="red" stroke-miterlimit="10" stroke-width=".399" d="m16.754 41.809 6.351-13.98"/></svg>