<svg xmlns="http://www.w3.org/2000/svg" width="59.517" height="91.298"><defs><clipPath id="a"><path d="M0 0h59.277v90.945H0Zm0 0"/></clipPath></defs><g clip-path="url(#a)"><path fill="none" stroke="#000" stroke-miterlimit="10" stroke-width=".797" d="M1.176 89.535V40.813c0-4.403 2.226-10.754 4.976-14.192L24.543 3.633c2.75-3.438 7.207-3.438 9.957 0L52.89 26.62c2.75 3.438 4.977 9.79 4.977 14.192v40.753c0 4.403-2.523 5.45-5.637 2.336L6.81 38.48c-3.11-3.113-2.067-5.636 2.336-5.636h40.753c4.403 0 5.446 2.523 2.332 5.636L6.81 83.902c-3.11 3.114-2.067 5.633 2.336 5.633h48.722"/></g></svg>