<svg xmlns="http://www.w3.org/2000/svg" width="30.358" height="33.986"><defs><clipPath id="a"><path d="M19 0h11.035v10H19Zm0 0"/></clipPath><clipPath id="b"><path d="M17 9h13.035v16H17Zm0 0"/></clipPath><clipPath id="c"><path d="M14 24h16.035v9.98H14Zm0 0"/></clipPath></defs><path fill="none" stroke="#000" stroke-miterlimit="10" stroke-width=".399" d="M.688 2.82h25.285"/><path d="m28.469 2.82-3.574-1.343L26.07 2.82l-1.175 1.348Zm0 0"/><g clip-path="url(#a)"><path fill="none" stroke="#000" stroke-miterlimit="10" stroke-width=".399" d="m28.469 2.82-3.574-1.343L26.07 2.82l-1.175 1.348Zm0 0"/></g><path fill="none" stroke="#000" stroke-miterlimit="10" stroke-width=".399" d="M.688 16.996h23.734"/><path d="m28.215 16.996-5.492-1.379 1.797 1.38-1.797 1.374Zm0 0"/><g clip-path="url(#b)"><path fill="none" stroke="#000" stroke-miterlimit="10" stroke-width=".399" d="m28.215 16.996-5.492-1.379 1.797 1.38-1.797 1.374Zm0 0"/></g><path fill="none" stroke="#000" stroke-miterlimit="10" stroke-width=".399" d="M.688 31.168h22.19"/><path d="m27.953 31.168-7.387-1.387 2.41 1.387-2.41 1.39Zm0 0"/><g clip-path="url(#c)"><path fill="none" stroke="#000" stroke-miterlimit="10" stroke-width=".399" d="m27.953 31.168-7.387-1.387 2.41 1.387-2.41 1.39Zm0 0"/></g></svg>