<svg xmlns="http://www.w3.org/2000/svg" width="87.824" height="97.22"><defs><clipPath id="a"><path d="M0 1h87.734v28H0Zm0 0"/></clipPath><clipPath id="b"><path d="M0 15h87.734v26H0Zm0 0"/></clipPath><clipPath id="c"><path d="M0 31h87.734v26H0Zm0 0"/></clipPath><clipPath id="d"><path d="M0 43h87.734v29H0Zm0 0"/></clipPath><clipPath id="e"><path d="M0 58h87.734v28H0Zm0 0"/></clipPath><clipPath id="f"><path d="M0 65h87.734v31.828H0Zm0 0"/></clipPath></defs><path fill="none" stroke="#000" stroke-miterlimit="10" stroke-width=".797" d="M1.328 1.027h85.04"/><g clip-path="url(#a)"><path fill="none" stroke="#000" stroke-miterlimit="10" stroke-width=".797" d="m1.328 15.2 2.492-2.493 4.98 4.984 4.981-4.984 4.98 4.984 4.985-4.984 4.98 4.984 4.981-4.984 4.98 4.984 4.981-4.984 4.984 4.984 4.98-4.984 4.981 4.984 4.98-4.984 4.985 4.984 4.98-4.984 4.981 4.984 4.98-4.984 2.493 2.492h.355"/></g><g clip-path="url(#b)"><path fill="none" stroke="#000" stroke-miterlimit="10" stroke-width=".797" d="M1.328 29.371c.375-.746 1.246-1.242 2.492-1.242h37.54c1.242 0 2.113-.5 2.488-1.246.375.746 1.246 1.246 2.492 1.246h37.539c1.246 0 2.117.496 2.488 1.242"/></g><g clip-path="url(#c)"><path fill="none" stroke="#000" stroke-miterlimit="10" stroke-width=".797" d="m1.328 42.3 2.492 1.247-2.492 1.246Zm9.961 0 2.492 1.247-2.492 1.246Zm9.965 0 2.492 1.247-2.492 1.246Zm9.96 0 2.493 1.247-2.492 1.246Zm9.966 0 2.488 1.247-2.488 1.246Zm9.96 0 2.493 1.247-2.492 1.246Zm9.965 0 2.489 1.247-2.489 1.246Zm9.961 0 2.493 1.247-2.493 1.246Zm9.965 0 2.489 1.247-2.489 1.246Zm0 0"/></g><g clip-path="url(#d)"><path fill="none" stroke="#000" stroke-miterlimit="10" stroke-width=".797" d="M1.328 57.719c.332-1.383 1.219-2.492 2.242-2.492 1.024 0 1.91 1.109 2.243 2.492s.109 2.492-.25 2.492c-.36 0-.583-1.11-.25-2.492.332-1.383 1.218-2.492 2.242-2.492 1.023 0 1.91 1.109 2.242 2.492s.11 2.492-.25 2.492-.582-1.11-.25-2.492c.332-1.383 1.219-2.492 2.242-2.492 1.024 0 1.91 1.109 2.242 2.492s.11 2.492-.25 2.492-.582-1.11-.25-2.492c.336-1.383 1.219-2.492 2.242-2.492 1.024 0 1.91 1.109 2.243 2.492s.109 2.492-.25 2.492c-.356 0-.578-1.11-.246-2.492.332-1.383 1.218-2.492 2.242-2.492 1.023 0 1.906 1.109 2.238 2.492s.113 2.492-.246 2.492c-.36 0-.582-1.11-.25-2.492.332-1.383 1.219-2.492 2.242-2.492 1.024 0 1.91 1.109 2.242 2.492s.11 2.492-.25 2.492-.582-1.11-.25-2.492c.332-1.383 1.219-2.492 2.242-2.492 1.024 0 1.91 1.109 2.243 2.492s.109 2.492-.25 2.492c-.36 0-.582-1.11-.25-2.492.332-1.383 1.218-2.492 2.242-2.492 1.023 0 1.91 1.109 2.242 2.492s.11 2.492-.25 2.492-.582-1.11-.25-2.492c.332-1.383 1.219-2.492 2.242-2.492 1.024 0 1.91 1.109 2.242 2.492s.11 2.492-.25 2.492c-.359 0-.578-1.11-.246-2.492.332-1.383 1.22-2.492 2.239-2.492 1.023 0 1.91 1.109 2.242 2.492s.11 2.492-.246 2.492c-.36 0-.582-1.11-.25-2.492.332-1.383 1.218-2.492 2.242-2.492 1.023 0 1.91 1.109 2.242 2.492s.11 2.492-.25 2.492-.582-1.11-.25-2.492c.332-1.383 1.219-2.492 2.242-2.492 1.024 0 1.91 1.109 2.242 2.492s.11 2.492-.25 2.492c-.359 0-.582-1.11-.25-2.492.332-1.383 1.22-2.492 2.243-2.492s1.91 1.109 2.242 2.492.11 2.492-.25 2.492-.582-1.11-.25-2.492c.332-1.383 1.219-2.492 2.242-2.492s1.91 1.109 2.242 2.492.11 2.492-.25 2.492-.578-1.11-.246-2.492c.332-1.383 1.215-2.492 2.238-2.492 1.024 0 1.91 1.109 2.243 2.492s.109 2.492-.25 2.492c-.356 0-.579-1.11-.247-2.492.333-1.383 1.22-2.492 2.243-2.492s1.906 1.109 2.238 2.492.113 2.492-.246 2.492c-.36 0-.582-1.11-.25-2.492.332-1.383 1.219-2.492 2.242-2.492s1.91 1.109 2.242 2.492.11 2.492-.25 2.492-.582-1.11-.25-2.492c.332-1.383 1.219-2.492 2.242-2.492 1.024 0 1.91 1.109 2.243 2.492s.109 2.492-.25 2.492c-.36 0-.582-1.11-.25-2.492.332-1.383 1.218-2.492 2.242-2.492 1.023 0 1.91 1.109 2.242 2.492s.11 2.492-.25 2.492-.582-1.11-.25-2.492c.336-1.383 1.219-2.492 2.242-2.492 1.024 0 1.91 1.109 2.242 2.492s.11 2.492-.25 2.492c-.355 0-.578-1.11-.246-2.492.332-1.383 1.219-2.492 2.242-2.492 1.024 0 1.907 1.109 2.239 2.492h.855"/></g><g clip-path="url(#e)"><path fill="none" stroke="#000" stroke-miterlimit="10" stroke-width=".797" d="M1.328 71.895c.828-1.383 1.66-2.493 2.492-2.493.828 0 1.66 1.11 2.489 2.493.832 1.378 1.66 2.488 2.492 2.488.828 0 1.66-1.11 2.488-2.488.832-1.383 1.66-2.493 2.492-2.493s1.66 1.11 2.492 2.493c.829 1.378 1.66 2.488 2.489 2.488.832 0 1.66-1.11 2.492-2.488.828-1.383 1.66-2.493 2.488-2.493.832 0 1.664 1.11 2.492 2.493.832 1.378 1.66 2.488 2.493 2.488.828 0 1.66-1.11 2.488-2.488.832-1.383 1.66-2.493 2.492-2.493.828 0 1.66 1.11 2.492 2.493.828 1.378 1.66 2.488 2.489 2.488.832 0 1.66-1.11 2.492-2.488.828-1.383 1.66-2.493 2.488-2.493.832 0 1.66 1.11 2.492 2.493.832 1.378 1.66 2.488 2.492 2.488.828 0 1.66-1.11 2.489-2.488.832-1.383 1.66-2.493 2.492-2.493.828 0 1.66 1.11 2.488 2.493.832 1.378 1.664 2.488 2.492 2.488.832 0 1.66-1.11 2.492-2.488.829-1.383 1.66-2.493 2.489-2.493.832 0 1.66 1.11 2.492 2.493.828 1.378 1.66 2.488 2.492 2.488.828 0 1.66-1.11 2.488-2.488.832-1.383 1.66-2.493 2.493-2.493.828 0 1.66 1.11 2.488 2.493.832 1.378 1.66 2.488 2.492 2.488s1.66-1.11 2.492-2.488c.828-1.383 1.66-2.493 2.489-2.493.832 0 1.66 1.11 2.492 2.493h.355"/></g><g clip-path="url(#f)"><path fill="none" stroke="#000" stroke-miterlimit="10" stroke-width=".797" d="M11.215 84.852a9.7 9.7 0 0 1 0 2.43m9.89-3.645c.2 1.613.2 3.246 0 4.86m9.887-6.075a30 30 0 0 1 0 7.285m9.89-8.496a40 40 0 0 1 0 9.71m9.888-10.925c.496 4.031.496 8.11 0 12.14m9.89-13.355a59.8 59.8 0 0 1 0 14.57m9.887-15.785a69.5 69.5 0 0 1 0 17m9.89-18.214a79.6 79.6 0 0 1 0 19.43"/></g></svg>