<svg xmlns="http://www.w3.org/2000/svg" width="75.501" height="13.682"><defs><clipPath id="a"><path d="M0 0h28v13.523H0Zm0 0"/></clipPath><clipPath id="b"><path d="M26 0h49.25v13.523H26Zm0 0"/></clipPath></defs><g clip-path="url(#a)"><path fill="none" stroke="#000" stroke-miterlimit="10" stroke-width=".399" d="M3.355 11.266a9.96 9.96 0 0 1 9.954-9.559 9.97 9.97 0 0 1 8.421 4.637"/></g><path fill="none" stroke="#000" stroke-linecap="round" stroke-linejoin="round" stroke-miterlimit="10" stroke-width=".399" d="M5.738 9.398c-1.433.375-2.113 1.22-2.39 2.07-.278-.85-.957-1.695-2.391-2.07"/><path fill="none" stroke="#000" stroke-linecap="round" stroke-linejoin="round" stroke-miterlimit="10" stroke-width=".39899601" d="M22.875 3.523C21.82 4.57 21.656 5.637 21.84 6.516c-.668-.598-1.676-.989-3.11-.602"/><g clip-path="url(#b)"><path fill="none" stroke="#000" stroke-miterlimit="10" stroke-width=".399" d="m32.02 11.438 13.847-9.731 14.176 9.961 13.844-9.734"/></g><path fill="none" stroke="#000" stroke-linecap="round" stroke-linejoin="round" stroke-miterlimit="10" stroke-width=".39898005000000003" d="M34.926 12.316c-1.133-.953-2.211-1.023-3.07-.761.535-.72.835-1.758.32-3.149M70.98 1.055c1.137.957 2.215 1.027 3.07.765-.534.715-.835 1.754-.32 3.149"/></svg>