<svg xmlns="http://www.w3.org/2000/svg" width="42.088" height="36.218"><defs><clipPath id="a"><path d="M0 17h10v18.828H0Zm0 0"/></clipPath><clipPath id="b"><path d="M0 17h13v18.828H0Zm0 0"/></clipPath><clipPath id="c"><path d="M6 17h15v18.828H6Zm0 0"/></clipPath><clipPath id="d"><path d="M9 17h15v18.828H9Zm0 0"/></clipPath><clipPath id="e"><path d="M17 17h15v18.828H17Zm0 0"/></clipPath><clipPath id="f"><path d="M20 17h15v18.828H20Zm0 0"/></clipPath><clipPath id="g"><path d="M26 6h15.633v24H26Zm0 0"/></clipPath><clipPath id="h"><path d="M29 17h12.633v18.828H29Zm0 0"/></clipPath><clipPath id="i"><path d="M31 17h10.633v18.828H31Zm0 0"/></clipPath></defs><path fill="none" stroke="#000" stroke-miterlimit="10" stroke-width=".399" d="M20.59.754 9.25 12.094M9.25 12.094 3.578 23.43"/><g clip-path="url(#a)"><path fill="none" stroke="#000" stroke-miterlimit="10" stroke-width=".399" d="M3.578 23.43.746 34.77"/></g><g clip-path="url(#b)"><path fill="none" stroke="#000" stroke-miterlimit="10" stroke-width=".399" d="m3.578 23.43 2.836 11.34"/></g><path fill="none" stroke="#000" stroke-miterlimit="10" stroke-width=".399" d="m9.25 12.094 5.668 11.336"/><g clip-path="url(#c)"><path fill="none" stroke="#000" stroke-miterlimit="10" stroke-width=".399" d="m14.918 23.43-2.832 11.34"/></g><g clip-path="url(#d)"><path fill="none" stroke="#000" stroke-miterlimit="10" stroke-width=".399" d="m14.918 23.43 2.836 11.34"/></g><path fill="none" stroke="#000" stroke-miterlimit="10" stroke-width=".399" d="m20.59.754 11.336 11.34M31.926 12.094 26.258 23.43"/><g clip-path="url(#e)"><path fill="none" stroke="#000" stroke-miterlimit="10" stroke-width=".399" d="m26.258 23.43-2.836 11.34"/></g><g clip-path="url(#f)"><path fill="none" stroke="#000" stroke-miterlimit="10" stroke-width=".399" d="m26.258 23.43 2.836 11.34"/></g><g clip-path="url(#g)"><path fill="none" stroke="#000" stroke-miterlimit="10" stroke-width=".399" d="m31.926 12.094 5.672 11.336"/></g><g clip-path="url(#h)"><path fill="none" stroke="#000" stroke-miterlimit="10" stroke-width=".399" d="m37.598 23.43-2.836 11.34"/></g><g clip-path="url(#i)"><path fill="none" stroke="#000" stroke-miterlimit="10" stroke-width=".399" d="m37.598 23.43 2.832 11.34"/></g></svg>