<svg xmlns="http://www.w3.org/2000/svg" xmlns:xlink="http://www.w3.org/1999/xlink" width="183.314" height="87.32"><defs><path id="c" d="M3.422-1.578c0-.844-.219-1.719-1.531-1.719-1.313 0-1.532.86-1.532 1.719C.36-.688.625.078 1.891.078c1.28 0 1.53-.797 1.53-1.656m-.75-.078c0 .312 0 .781-.078 1.015-.125.407-.516.454-.703.454-.203 0-.594-.063-.703-.454-.079-.25-.079-.656-.079-1.015 0-.36 0-.75.094-1 .078-.219.344-.36.688-.36.297 0 .593.094.703.391.078.234.078.64.078.969m0 0"/><path id="d" d="M1.516-.422a.434.434 0 0 0-.422-.437.447.447 0 0 0-.438.437c0 .235.203.422.438.422a.42.42 0 0 0 .422-.422m0 0"/><path id="e" d="M3.86-1.11c0-.546-.407-1.14-1.454-1.14-.187 0-.61.016-1 .219v-.219l-.984.031v.344H.5c.281 0 .281.031.281.172V.64h-.36v.328L1.11.953l.688.016V.64h-.36v-.828c.141.093.438.234.86.234C3.328.047 3.859-.5 3.859-1.11m-.75 0c0 .548-.376.876-.891.876-.235 0-.531-.078-.781-.407v-.984c.25-.266.64-.312.843-.312.547 0 .828.359.828.828m0 0"/><path id="f" d="M2.484-.594v-.234h-.406v.219c0 .14-.047.343-.344.343-.312 0-.312-.203-.312-.343v-1.266h.953v-.344h-.953v-.953H1c0 .516-.266 1-.781 1.016v.281H.75v1.281c0 .563.547.64.875.64.36 0 .86-.14.86-.64m0 0"/><path id="g" d="M3.5 0v-.328h-.656v-.438H3.5v-.343h-.656v-2.032c0-.156-.031-.187-.188-.187h-.36c-.124 0-.155 0-.202.078L.28-1.11v.344h1.86v.438h-.703V0c.234-.016.765-.016 1.046-.016.266 0 .75 0 1.016.016M2.219-1.11h-1.5l1.5-1.78Zm0 0"/><path id="h" d="M3.39-.922c0-.39-.265-.703-.765-.906.453-.203.563-.469.563-.703 0-.719-.876-.766-1.282-.766-.547 0-1.312.156-1.312.906 0 .407.328.641.5.735-.375.14-.703.375-.703.843 0 .844.968.891 1.484.891.25 0 1.516 0 1.516-1m-.703-1.594c0 .235-.156.407-.437.516l-.703-.312c-.344-.157-.453-.204-.453-.36 0-.219.172-.344.765-.344.313 0 .829.047.829.5m.126 1.844c0 .281-.22.453-.907.453-.39 0-.937-.078-.937-.593 0-.313.187-.516.547-.657l.984.438c.031 0 .313.125.313.36m0 0"/><path id="i" d="M3.188 0v-.328H2.28V-3.11c0-.157-.015-.188-.187-.188H2c-.437.328-1.078.328-1.187.328H.672v.328h.14c.063 0 .438 0 .813-.125v2.438H.719V0c.25-.016.953-.016 1.234-.016s1 0 1.235.016m0 0"/><path id="j" d="M3.328-1.047h-.406c-.031.188-.11.313-.156.328-.11.016-.328.016-.5.016H1.53c.313-.203.61-.39.828-.516.563-.312.97-.531.97-1.047 0-.625-.563-1.03-1.548-1.03-.234 0-1.343 0-1.343.733 0 .297.25.422.421.422.188 0 .407-.14.407-.406 0-.187-.11-.297-.125-.312.172-.094.359-.094.468-.094.5 0 .938.234.938.687 0 .391-.313.688-.625.907L.532-.344C.436-.28.436-.266.436-.156V0h2.704Zm0 0"/><path id="k" d="M3.39-1.031c0-.657-.546-1.094-1.374-1.094-.328 0-.641.14-.844.406.016-.453.031-.718.281-.984.14-.156.438-.313.828-.313.047 0 .219 0 .36.094-.047.016-.172.125-.172.313a.36.36 0 0 0 .375.375c.156 0 .36-.11.36-.375 0-.25-.126-.688-.923-.688-1.11 0-1.89.64-1.89 1.703S.875.078 1.906.078c.313 0 .657-.015 1-.25.266-.172.485-.406.485-.86m-.78 0c0 .406 0 .812-.704.812-.656 0-.718-.484-.718-.875 0-.375.265-.75.765-.75.656 0 .656.39.656.813m0 0"/><path id="m" d="M3.328-1c0-.5-.39-1.062-1.39-1.062a1.8 1.8 0 0 0-.782.156v-.547c.188.031.407.031.407.031A1.94 1.94 0 0 0 2.968-3c.078-.078.078-.078.078-.156 0-.031 0-.14-.11-.14 0 0-.015 0-.046.015-.203.047-.547.14-1.016.14-.344 0-.672-.046-1-.14-.047-.016-.062-.016-.078-.016-.11 0-.11.11-.11.188v1.5c0 .156.032.187.188.187.11 0 .11 0 .203-.094.078-.062.281-.28.828-.28.657 0 .657.468.657.765s0 .812-.844.812c-.078 0-.453 0-.688-.203a.39.39 0 0 0 .203-.344.4.4 0 0 0-.39-.406c-.188 0-.406.125-.406.406 0 .485.5.844 1.296.844C2.844.078 3.328-.453 3.328-1m0 0"/><path id="n" d="M3.594-3.203H2.359L1.266-3.22c-.125 0-.141-.062-.157-.11H.703L.484-2.155h.422a.7.7 0 0 1 .11-.297c.03-.031.03-.031.078-.031.125-.016.343-.016.515-.016h.907c-.36.328-.485.438-.641.656-.5.657-.562 1.25-.562 1.516 0 .39.328.406.375.406.156 0 .234-.062.265-.094.11-.109.11-.234.11-.328.015-1.203.343-1.515.671-1.812l.313-.281.5-.47c.015-.015.031-.03.047-.062zm0 0"/><clipPath id="a"><path d="M8 16h154v70.98H8Zm0 0"/></clipPath><clipPath id="b"><path d="M5 69h12v17.98H5Zm0 0"/></clipPath><clipPath id="l"><path d="M152 70h14v16.98h-14Zm0 0"/></clipPath></defs><path fill="none" stroke="#7F7F7F" stroke-miterlimit="10" stroke-width=".199" d="M13.691 85.79h141.735M13.69 57.444h141.735M13.69 29.098h141.735M13.69.762h141.735M13.69 85.789V.75M42.04 85.79V.75m28.348 85.04V.75M98.73 85.79V.75m28.348 85.04V.75m28.34 85.04V.75"/><g clip-path="url(#a)"><path fill="none" stroke="#000" stroke-miterlimit="10" stroke-width=".399" d="M13.691 85.79c226.774-85.04 0-85.04 141.735 0"/></g><g clip-path="url(#b)"><path fill="none" stroke="#7F7F7F" stroke-miterlimit="10" stroke-width=".199" d="M13.703 85.79 8.727 72.515"/></g><g fill="#7F7F7F"><use xlink:href="#c" x=".288" y="68.13"/><use xlink:href="#d" x="4.064" y="68.13"/><use xlink:href="#c" x="6.236" y="68.13"/><use xlink:href="#e" x="10.012" y="68.13"/><use xlink:href="#f" x="14.191" y="68.13"/></g><path fill="none" stroke="#7F7F7F" stroke-miterlimit="10" stroke-width=".199" d="M50.723 71.004 45.14 57.977"/><g fill="#7F7F7F"><use xlink:href="#g" x="34.814" y="53.59"/><use xlink:href="#c" x="38.59" y="53.59"/><use xlink:href="#d" x="42.366" y="53.59"/><use xlink:href="#c" x="44.538" y="53.59"/><use xlink:href="#e" x="48.313" y="53.59"/><use xlink:href="#f" x="52.493" y="53.59"/></g><path fill="none" stroke="#7F7F7F" stroke-miterlimit="10" stroke-width=".199" d="m86.723 53.902-6.727-12.476"/><g fill="#7F7F7F"><use xlink:href="#h" x="69.67" y="37.04"/><use xlink:href="#c" x="73.446" y="37.04"/><use xlink:href="#d" x="77.222" y="37.04"/><use xlink:href="#c" x="79.394" y="37.04"/><use xlink:href="#e" x="83.169" y="37.04"/><use xlink:href="#f" x="87.349" y="37.04"/></g><path fill="none" stroke="#7F7F7F" stroke-miterlimit="10" stroke-width=".199" d="m118.758 30.633-11.567-8.195"/><g fill="#7F7F7F"><use xlink:href="#i" x="94.977" y="18.052"/><use xlink:href="#j" x="98.753" y="18.052"/><use xlink:href="#c" x="102.529" y="18.052"/><use xlink:href="#d" x="106.305" y="18.052"/><use xlink:href="#c" x="108.476" y="18.052"/><use xlink:href="#e" x="112.252" y="18.052"/><use xlink:href="#f" x="116.432" y="18.052"/></g><path fill="none" stroke="#7F7F7F" stroke-miterlimit="10" stroke-width=".199" d="m107.2 43.309 12.859-5.965"/><g fill="#7F7F7F"><use xlink:href="#i" x="107.842" y="32.959"/><use xlink:href="#k" x="111.618" y="32.959"/><use xlink:href="#c" x="115.394" y="32.959"/><use xlink:href="#d" x="119.17" y="32.959"/><use xlink:href="#c" x="121.341" y="32.959"/><use xlink:href="#e" x="125.117" y="32.959"/><use xlink:href="#f" x="129.297" y="32.959"/></g><path fill="none" stroke="#7F7F7F" stroke-miterlimit="10" stroke-width=".199" d="m134.422 71.926 8.414-11.406"/><g fill="#7F7F7F"><use xlink:href="#j" x="130.62" y="56.134"/><use xlink:href="#c" x="134.396" y="56.134"/><use xlink:href="#c" x="138.172" y="56.134"/><use xlink:href="#d" x="141.948" y="56.134"/><use xlink:href="#c" x="144.119" y="56.134"/><use xlink:href="#e" x="147.895" y="56.134"/><use xlink:href="#f" x="152.075" y="56.134"/></g><g clip-path="url(#l)"><path fill="none" stroke="#7F7F7F" stroke-miterlimit="10" stroke-width=".199" d="m155.414 85.785 7.293-12.156"/></g><g fill="#7F7F7F"><use xlink:href="#j" x="142.938" y="69.243"/><use xlink:href="#j" x="146.714" y="69.243"/><use xlink:href="#m" x="150.49" y="69.243"/><use xlink:href="#d" x="154.266" y="69.243"/><use xlink:href="#j" x="156.437" y="69.243"/><use xlink:href="#g" x="160.213" y="69.243"/><use xlink:href="#n" x="163.989" y="69.243"/><use xlink:href="#h" x="167.765" y="69.243"/><use xlink:href="#h" x="171.541" y="69.243"/><use xlink:href="#e" x="175.317" y="69.243"/><use xlink:href="#f" x="179.496" y="69.243"/></g></svg>