<?xml version="1.0" encoding="UTF-8"?>
<svg xmlns="http://www.w3.org/2000/svg" xmlns:xlink="http://www.w3.org/1999/xlink" width="100.77pt" height="112.142pt" viewBox="0 0 100.77 112.142" version="1.2">
<defs>
<clipPath id="clip1">
  <path d="M 30 82 L 71 82 L 71 111.714844 L 30 111.714844 Z M 30 82 "/>
</clipPath>
</defs>
<g id="surface1">
<path style="fill-rule:nonzero;fill:rgb(79.998779%,79.998779%,100%);fill-opacity:1;stroke-width:0.79701;stroke-linecap:butt;stroke-linejoin:miter;stroke:rgb(50%,50%,100%);stroke-opacity:1;stroke-miterlimit:10;" d="M 8.503437 -0.0011875 C 8.503437 4.698031 4.694844 8.502719 -0.00046875 8.502719 C -4.695781 8.502719 -8.504375 4.698031 -8.504375 -0.0011875 C -8.504375 -4.6965 -4.695781 -8.505094 -0.00046875 -8.505094 C 4.694844 -8.505094 8.503437 -4.6965 8.503437 -0.0011875 Z M 8.503437 -0.0011875 " transform="matrix(1,0,0,-1,50.27,9.491)"/>
<path style="fill-rule:nonzero;fill:rgb(79.998779%,79.998779%,100%);fill-opacity:1;stroke-width:0.79701;stroke-linecap:butt;stroke-linejoin:miter;stroke:rgb(50%,50%,100%);stroke-opacity:1;stroke-miterlimit:10;" d="M 8.503437 -46.153531 C 8.503437 -41.454313 4.694844 -37.649625 -0.00046875 -37.649625 C -4.695781 -37.649625 -8.504375 -41.454313 -8.504375 -46.153531 C -8.504375 -50.848844 -4.695781 -54.657438 -0.00046875 -54.657438 C 4.694844 -54.657438 8.503437 -50.848844 8.503437 -46.153531 Z M 8.503437 -46.153531 " transform="matrix(1,0,0,-1,50.27,9.491)"/>
<path style=" stroke:none;fill-rule:nonzero;fill:rgb(79.998779%,79.998779%,100%);fill-opacity:1;" d="M 58.773438 101.792969 C 58.773438 97.097656 54.964844 93.289062 50.269531 93.289062 C 45.574219 93.289062 41.765625 97.097656 41.765625 101.792969 C 41.765625 106.492188 45.574219 110.296875 50.269531 110.296875 C 54.964844 110.296875 58.773438 106.492188 58.773438 101.792969 Z M 58.773438 101.792969 "/>
<g clip-path="url(#clip1)" clip-rule="nonzero">
<path style="fill:none;stroke-width:0.79701;stroke-linecap:butt;stroke-linejoin:miter;stroke:rgb(50%,50%,100%);stroke-opacity:1;stroke-miterlimit:10;" d="M 8.503437 -92.301969 C 8.503437 -87.606656 4.694844 -83.798063 -0.00046875 -83.798063 C -4.695781 -83.798063 -8.504375 -87.606656 -8.504375 -92.301969 C -8.504375 -97.001188 -4.695781 -100.805875 -0.00046875 -100.805875 C 4.694844 -100.805875 8.503437 -97.001188 8.503437 -92.301969 Z M 8.503437 -92.301969 " transform="matrix(1,0,0,-1,50.27,9.491)"/>
</g>
<path style="fill-rule:nonzero;fill:rgb(79.998779%,79.998779%,79.998779%);fill-opacity:1;stroke-width:0.79701;stroke-linecap:butt;stroke-linejoin:miter;stroke:rgb(50%,50%,50%);stroke-opacity:1;stroke-miterlimit:10;" d="M 37.647969 -51.8215 L 48.987812 -51.8215 L 48.987812 -40.481656 L 37.647969 -40.481656 Z M 37.647969 -51.8215 " transform="matrix(1,0,0,-1,50.27,9.491)"/>
<path style="fill-rule:nonzero;fill:rgb(79.998779%,79.998779%,79.998779%);fill-opacity:1;stroke-width:0.79701;stroke-linecap:butt;stroke-linejoin:miter;stroke:rgb(50%,50%,50%);stroke-opacity:1;stroke-miterlimit:10;" d="M -48.984844 -51.8215 L -37.648906 -51.8215 L -37.648906 -40.481656 L -48.984844 -40.481656 Z M -48.984844 -51.8215 " transform="matrix(1,0,0,-1,50.27,9.491)"/>
<path style="fill:none;stroke-width:0.3985;stroke-linecap:butt;stroke-linejoin:miter;stroke:rgb(0%,0%,0%);stroke-opacity:1;stroke-miterlimit:10;" d="M -37.250469 -46.153531 L -9.30125 -46.153531 " transform="matrix(1,0,0,-1,50.27,9.491)"/>
<path style="fill:none;stroke-width:0.3985;stroke-linecap:round;stroke-linejoin:round;stroke:rgb(0%,0%,0%);stroke-opacity:1;stroke-miterlimit:10;" d="M -2.070564 2.39287 C -1.695564 0.95537 -0.851814 0.279589 -0.00025125 -0.00166125 C -0.851814 -0.279005 -1.695564 -0.954786 -2.070564 -2.392286 " transform="matrix(1,0,0,-1,41.16822,55.64287)"/>
<path style="fill:none;stroke-width:0.3985;stroke-linecap:butt;stroke-linejoin:miter;stroke:rgb(0%,0%,0%);stroke-opacity:1;stroke-miterlimit:10;" d="M -8.902813 -0.0011875 C -29.477031 -0.0011875 -43.141094 -19.130094 -43.316875 -39.684781 " transform="matrix(1,0,0,-1,50.27,9.491)"/>
<path style="fill:none;stroke-width:0.3985;stroke-linecap:round;stroke-linejoin:round;stroke:rgb(0%,0%,0%);stroke-opacity:1;stroke-miterlimit:10;" d="M -2.071082 2.39095 C -1.692176 0.957356 -0.848426 0.277669 -0.00077 0.000325 C -0.848426 -0.277019 -1.692176 -0.956706 -2.071082 -2.3903 " transform="matrix(0,1,1,0,6.9528,49.37577)"/>
</g>
</svg>
