<svg xmlns="http://www.w3.org/2000/svg" xmlns:xlink="http://www.w3.org/1999/xlink" width="25.599" height="49.34"><defs><g id="y"><path fill-opacity="0" d="M0 0h30.719v59.208H-.001z"/><path fill="#FFF" d="M0 0h30.719v59.208H-.001z"/></g><g id="a" mask="url(#A)"><path fill="red" d="M0 0h30.719v59.208H-.001z"/></g><g id="c" filter="url(#B)" mask="url(#C)"><path d="M0 0h30.719v59.208H0z"/></g><g id="d" mask="url(#D)"><use xlink:href="#b"/></g><g id="E"><path fill-opacity="0" d="M0 0h30.719v59.208H-.001z"/><path fill="#FFF" d="M0 0h30.719v59.208H-.001z"/></g><g id="e" mask="url(#F)"><path fill="#0F0" d="M0 0h30.719v59.208H-.001z"/></g><g id="f" filter="url(#G)"><path d="M0 0h30.719v59.208H0z"/></g><g id="g" filter="url(#H)" mask="url(#I)"><path d="M0 0h30.719v59.208H0z"/></g><g id="h" mask="url(#J)"><use xlink:href="#f"/></g><g id="K"><path fill-opacity="0" d="M0 0h30.719v59.208H-.001z"/><path fill="#FFF" d="M0 0h30.719v59.208H-.001z"/></g><g id="i" mask="url(#L)"><path fill="#00F" d="M0 0h30.719v59.208H-.001z"/></g><g id="j" filter="url(#M)"><path d="M0 0h30.719v59.208H0z"/></g><g id="k" filter="url(#N)" mask="url(#O)"><path d="M0 0h30.719v59.208H0z"/></g><g id="l" mask="url(#P)"><use xlink:href="#j"/></g><g id="Q"><path fill-opacity="0" d="M0 0h30.719v59.208H-.001z"/><path fill="#FFF" d="M0 0h30.719v59.208H-.001z"/></g><g id="m" mask="url(#R)"><path fill="#FF7F7F" d="M0 0h30.719v59.208H-.001z"/></g><g id="n" filter="url(#S)"><path d="M0 0h30.719v59.208H0z"/></g><g id="o" filter="url(#T)" mask="url(#U)"><path d="M0 0h30.719v59.208H0z"/></g><g id="p" mask="url(#V)"><use xlink:href="#n"/></g><g id="W"><path fill-opacity="0" d="M0 0h30.719v59.208H-.001z"/><path fill="#FFF" d="M0 0h30.719v59.208H-.001z"/></g><g id="q" mask="url(#X)"><path fill="#7FFF7F" d="M0 0h30.719v59.208H-.001z"/></g><g id="r" filter="url(#Y)"><path d="M0 0h30.719v59.208H0z"/></g><g id="s" filter="url(#Z)" mask="url(#aa)"><path d="M0 0h30.719v59.208H0z"/></g><g id="t" mask="url(#ab)"><use xlink:href="#r"/></g><g id="ac"><path fill-opacity="0" d="M0 0h30.719v59.208H-.001z"/><path fill="#FFF" d="M0 0h30.719v59.208H-.001z"/></g><g id="u" mask="url(#ad)"><path fill="#7F7FFF" d="M0 0h30.719v59.208H-.001z"/></g><g id="v" filter="url(#ae)"><path d="M0 0h30.719v59.208H0z"/></g><g id="w" filter="url(#af)" mask="url(#ag)"><path d="M0 0h30.719v59.208H0z"/></g><g id="x" mask="url(#ah)"><use xlink:href="#v"/></g><mask id="C"><use xlink:href="#y"/></mask><mask id="D"><use xlink:href="#y" filter="url(#z)"/></mask><mask id="A"><path fill="#FFF" d="M22.634 13.094a7.47 7.47 0 0 0-7.473-7.472 7.47 7.47 0 0 0-7.468 7.472 7.472 7.472 0 1 0 14.941 0m0 0"/></mask><mask id="I"><use xlink:href="#E"/></mask><mask id="J"><use xlink:href="#E" filter="url(#z)"/></mask><mask id="F"><path fill="#FFF" d="M18.322 20.567a7.473 7.473 0 1 0-14.945 0 7.473 7.473 0 0 0 14.945 0m0 0"/></mask><mask id="O"><use xlink:href="#K"/></mask><mask id="P"><use xlink:href="#K" filter="url(#z)"/></mask><mask id="L"><path fill="#FFF" d="M26.95 20.567a7.473 7.473 0 1 0-14.945 0 7.473 7.473 0 0 0 14.946 0m0 0"/></mask><mask id="U"><use xlink:href="#Q"/></mask><mask id="V"><use xlink:href="#Q" filter="url(#z)"/></mask><mask id="R"><path fill="#FFF" d="M22.634 38a7.472 7.472 0 1 0-14.941 0 7.472 7.472 0 1 0 14.941 0m0 0"/></mask><mask id="aa"><use xlink:href="#W"/></mask><mask id="ab"><use xlink:href="#W" filter="url(#z)"/></mask><mask id="X"><path fill="#FFF" d="M18.322 45.473a7.473 7.473 0 1 0-14.945 0 7.473 7.473 0 0 0 14.945 0m0 0"/></mask><mask id="ag"><use xlink:href="#ac"/></mask><mask id="ah"><use xlink:href="#ac" filter="url(#z)"/></mask><mask id="ad"><path fill="#FFF" d="M26.95 45.473a7.473 7.473 0 1 0-14.945 0 7.473 7.473 0 0 0 14.946 0m0 0"/></mask><filter id="z" width="100%" height="100%" x="0%" y="0%"><feColorMatrix color-interpolation-filters="sRGB" values="0 0 0 0 1 0 0 0 0 1 0 0 0 0 1 0 0 0 -1 1"/></filter><filter id="B" width="100%" height="100%" x="0%" y="0%"><feImage xlink:href="#a" width="30.719" height="59.208" x="0" y="0" result="source"/><feImage xlink:href="#b" width="30.719" height="59.208" x="0" y="0" result="destination"/><feBlend color-interpolation-filters="sRGB" in="source" in2="destination" mode="lighten"/></filter><filter id="G" width="100%" height="100%" x="0%" y="0%"><feImage xlink:href="#c" width="30.719" height="59.208" x="0" y="0" result="source"/><feImage xlink:href="#d" width="30.719" height="59.208" x="0" y="0" result="destination"/><feComposite color-interpolation-filters="sRGB" in="source" in2="destination" k2="1" k3="1" operator="arithmetic"/></filter><filter id="H" width="100%" height="100%" x="0%" y="0%"><feImage xlink:href="#e" width="30.719" height="59.208" x="0" y="0" result="source"/><feImage xlink:href="#f" width="30.719" height="59.208" x="0" y="0" result="destination"/><feBlend color-interpolation-filters="sRGB" in="source" in2="destination" mode="lighten"/></filter><filter id="M" width="100%" height="100%" x="0%" y="0%"><feImage xlink:href="#g" width="30.719" height="59.208" x="0" y="0" result="source"/><feImage xlink:href="#h" width="30.719" height="59.208" x="0" y="0" result="destination"/><feComposite color-interpolation-filters="sRGB" in="source" in2="destination" k2="1" k3="1" operator="arithmetic"/></filter><filter id="N" width="100%" height="100%" x="0%" y="0%"><feImage xlink:href="#i" width="30.719" height="59.208" x="0" y="0" result="source"/><feImage xlink:href="#j" width="30.719" height="59.208" x="0" y="0" result="destination"/><feBlend color-interpolation-filters="sRGB" in="source" in2="destination" mode="lighten"/></filter><filter id="S" width="100%" height="100%" x="0%" y="0%"><feImage xlink:href="#k" width="30.719" height="59.208" x="0" y="0" result="source"/><feImage xlink:href="#l" width="30.719" height="59.208" x="0" y="0" result="destination"/><feComposite color-interpolation-filters="sRGB" in="source" in2="destination" k2="1" k3="1" operator="arithmetic"/></filter><filter id="T" width="100%" height="100%" x="0%" y="0%"><feImage xlink:href="#m" width="30.719" height="59.208" x="0" y="0" result="source"/><feImage xlink:href="#n" width="30.719" height="59.208" x="0" y="0" result="destination"/><feBlend color-interpolation-filters="sRGB" in="source" in2="destination" mode="lighten"/></filter><filter id="Y" width="100%" height="100%" x="0%" y="0%"><feImage xlink:href="#o" width="30.719" height="59.208" x="0" y="0" result="source"/><feImage xlink:href="#p" width="30.719" height="59.208" x="0" y="0" result="destination"/><feComposite color-interpolation-filters="sRGB" in="source" in2="destination" k2="1" k3="1" operator="arithmetic"/></filter><filter id="Z" width="100%" height="100%" x="0%" y="0%"><feImage xlink:href="#q" width="30.719" height="59.208" x="0" y="0" result="source"/><feImage xlink:href="#r" width="30.719" height="59.208" x="0" y="0" result="destination"/><feBlend color-interpolation-filters="sRGB" in="source" in2="destination" mode="lighten"/></filter><filter id="ae" width="100%" height="100%" x="0%" y="0%"><feImage xlink:href="#s" width="30.719" height="59.208" x="0" y="0" result="source"/><feImage xlink:href="#t" width="30.719" height="59.208" x="0" y="0" result="destination"/><feComposite color-interpolation-filters="sRGB" in="source" in2="destination" k2="1" k3="1" operator="arithmetic"/></filter><filter id="af" width="100%" height="100%" x="0%" y="0%"><feImage xlink:href="#u" width="30.719" height="59.208" x="0" y="0" result="source"/><feImage xlink:href="#v" width="30.719" height="59.208" x="0" y="0" result="destination"/><feBlend color-interpolation-filters="sRGB" in="source" in2="destination" mode="lighten"/></filter><filter id="ai" width="100%" height="100%" x="0%" y="0%"><feImage xlink:href="#w" width="30.719" height="59.208" x="0" y="0" result="source"/><feImage xlink:href="#x" width="30.719" height="59.208" x="0" y="0" result="destination"/><feComposite color-interpolation-filters="sRGB" in="source" in2="destination" k2="1" k3="1" operator="arithmetic"/></filter></defs><g filter="url(#ai)" transform="translate(-2.56 -4.934)"><path d="M0 0h30.719v59.208H0z"/></g></svg>