<svg xmlns="http://www.w3.org/2000/svg" width="71.948" height="22.556"><path d="M2.18 2.922c-.73.324-1.313.879-1.176 1.652.137.774 1.066 1.258 1.668 1.149.601-.106.836-.371.973-.641.105-.203.136-.559.386-.93.25-.367.52-.652 1.157-.765.636-.114 1.425.207 2.023.793.601.586 1.523.675 1.922.191.398-.484.055-1.637-.738-2.39-.797-.758-1.485-.864-2.262-.626-.781.235-2.715 1.016-3.953 1.567m8.949.816c-.05-.293-.434-.468-.852-.394-.422.074-.718.37-.668.664.051.289.434.465.852.39.422-.074.719-.37.668-.66m-.719-.953c-.035-.203-.265-.332-.515-.285-.25.043-.426.242-.387.441.035.204.265.332.515.286.25-.043.422-.243.387-.442m-.578-.723c-.059-.175-.273-.265-.477-.199-.203.067-.324.266-.265.446.062.175.273.265.476.199.207-.07.325-.266.266-.445m-.648-.57c-.028-.172-.207-.281-.399-.246-.191.031-.32.2-.293.367.031.168.211.282.403.246.19-.035.32-.199.289-.367m-.758-.469a.29.29 0 0 0-.34-.234.29.29 0 0 0-.238.336.293.293 0 0 0 .578-.102m8.699 18.172c-.73-.324-1.316-.879-1.18-1.652s1.07-1.258 1.672-1.152c.602.105.836.37.973.644.101.203.137.559.387.926.246.371.52.656 1.156.766.637.113 1.422-.204 2.023-.79.598-.585 1.524-.675 1.922-.19.399.48.055 1.632-.742 2.39-.793.758-1.48.863-2.258.625-.781-.235-2.715-1.02-3.953-1.567m8.95-.816c-.052.289-.434.469-.856.394-.418-.074-.719-.37-.668-.664.054-.289.433-.468.855-.394.418.074.719.37.668.664m-.72.953c-.035.203-.265.328-.515.285s-.426-.242-.39-.445c.034-.2.269-.328.519-.285.246.047.422.246.386.445m-.578.723c-.058.175-.273.265-.476.199-.207-.07-.324-.266-.266-.445.059-.176.274-.266.477-.2.203.067.324.266.265.446m-.648.57c-.031.168-.207.281-.399.246-.19-.035-.324-.2-.293-.367.032-.172.211-.281.399-.246.191.031.324.199.293.367m-.758.469a.293.293 0 0 1-.34.234.294.294 0 0 1-.242-.336.3.3 0 0 1 .344-.234c.16.027.265.18.238.336m8.695-18.172c-.726.324-1.312.879-1.175 1.652.136.774 1.07 1.258 1.672 1.149.601-.106.835-.371.972-.641.102-.203.137-.559.383-.93.25-.367.52-.652 1.156-.765.64-.114 1.426.207 2.028.793.597.586 1.523.675 1.921.191s.051-1.637-.742-2.39c-.793-.758-1.48-.864-2.261-.626-.778.235-2.711 1.016-3.954 1.567m8.95.816c-.051-.293-.434-.468-.852-.394-.422.074-.719.37-.668.664.05.289.434.465.856.39.418-.074.718-.37.664-.66m-.715-.953c-.04-.203-.27-.332-.52-.285-.25.043-.422.242-.386.441.035.204.265.332.515.286.25-.043.426-.243.39-.442m-.582-.723c-.059-.175-.27-.265-.477-.199-.203.067-.32.266-.262.446.06.175.27.265.477.199.203-.07.32-.266.262-.445m-.645-.57c-.031-.172-.21-.281-.402-.246-.192.031-.32.2-.29.367.028.168.208.282.4.246.19-.035.32-.199.292-.367m-.758-.469a.29.29 0 0 0-.34-.234.294.294 0 0 0-.242.336.296.296 0 0 0 .582-.102m8.696 18.172c-.73-.324-1.313-.879-1.176-1.652s1.07-1.258 1.672-1.152c.601.105.832.37.969.644.105.203.136.559.386.926.25.371.52.656 1.157.766.636.113 1.425-.204 2.023-.79.602-.585 1.523-.675 1.922-.19.398.48.055 1.632-.738 2.39-.797.758-1.485.863-2.262.625-.778-.235-2.711-1.02-3.953-1.567m8.949-.816c-.05.289-.434.469-.852.394-.422-.074-.718-.37-.668-.664.051-.289.434-.468.852-.394.422.074.719.37.668.664m-.719.953c-.035.203-.265.328-.515.285s-.422-.242-.387-.445c.035-.2.265-.328.515-.285.25.047.422.246.387.445m-.578.723c-.059.175-.273.265-.477.199-.203-.07-.32-.266-.261-.445.058-.176.27-.266.472-.2.207.067.325.266.266.446m-.648.57c-.028.168-.207.281-.399.246-.191-.035-.32-.2-.293-.367.031-.172.211-.281.403-.246.191.031.32.199.289.367m-.758.469a.293.293 0 0 1-.578-.102.293.293 0 0 1 .34-.234c.16.027.27.18.238.336m8.699-18.172c-.73.324-1.312.879-1.18 1.652.137.774 1.07 1.258 1.672 1.149.602-.106.836-.371.973-.641.101-.203.137-.559.387-.93.25-.367.52-.652 1.156-.765.637-.114 1.422.207 2.023.793s1.524.675 1.922.191c.399-.484.055-1.637-.742-2.39-.793-.758-1.48-.864-2.258-.626-.781.235-2.715 1.016-3.953 1.567m8.95.816c-.052-.293-.434-.468-.856-.394-.418.074-.719.37-.668.664.055.289.437.465.855.39.422-.074.719-.37.668-.66m-.72-.953c-.035-.203-.265-.332-.515-.285-.25.043-.426.242-.39.441.034.204.269.332.519.286.25-.043.422-.243.386-.442m-.578-.723c-.058-.175-.273-.265-.476-.199-.203.067-.324.266-.266.446.059.175.274.265.477.199.203-.07.324-.266.265-.445m-.648-.57c-.031-.172-.207-.281-.398-.246-.192.031-.325.2-.293.367.03.168.21.282.398.246.191-.035.324-.199.293-.367m-.758-.469a.29.29 0 0 0-.34-.234.29.29 0 0 0-.238.336.293.293 0 0 0 .578-.102m0 0"/></svg>