<svg xmlns="http://www.w3.org/2000/svg" xmlns:xlink="http://www.w3.org/1999/xlink" width="128.342" height="12.17"><defs><path id="a" d="M2.938-6.375c0-.25 0-.266-.235-.266C2.078-6 1.203-6 .891-6v.313c.203 0 .78 0 1.297-.266v5.172c0 .36-.032.469-.922.469H.953V0c.344-.031 1.203-.031 1.61-.031.39 0 1.265 0 1.609.031v-.312h-.313c-.906 0-.921-.11-.921-.47Zm0 0"/><path id="c" d="M4.578-3.187c0-.797-.047-1.594-.39-2.329C3.734-6.484 2.906-6.64 2.5-6.64c-.61 0-1.328.266-1.75 1.188-.312.687-.36 1.469-.36 2.266 0 .75.032 1.64.454 2.406a1.83 1.83 0 0 0 1.64 1c.532 0 1.297-.203 1.735-1.156.312-.688.36-1.47.36-2.25M2.484 0c-.39 0-.984-.25-1.156-1.203-.11-.594-.11-1.516-.11-2.11 0-.64 0-1.296.079-1.828.187-1.187.937-1.28 1.187-1.28.329 0 .985.187 1.172 1.171.11.563.11 1.313.11 1.938 0 .75 0 1.421-.11 2.062C3.5-.297 2.937 0 2.484 0m0 0"/><path id="d" d="M4.469-2c0-1.187-.813-2.187-1.89-2.187-.47 0-.907.156-1.267.515v-1.953c.204.063.532.125.844.125 1.235 0 1.938-.906 1.938-1.031 0-.063-.032-.11-.11-.11 0 0-.03 0-.078.032a3.2 3.2 0 0 1-1.36.297c-.39 0-.858-.079-1.327-.282-.078-.031-.094-.031-.11-.031C1-6.625 1-6.547 1-6.391v2.954c0 .171 0 .25.14.25.079 0 .094-.016.141-.079.11-.156.469-.703 1.282-.703.515 0 .765.453.843.64.156.376.188.75.188 1.25 0 .36 0 .954-.25 1.376-.235.39-.61.64-1.063.64-.719 0-1.297-.53-1.469-1.109.032 0 .063.016.172.016.329 0 .5-.25.5-.485 0-.25-.171-.5-.5-.5-.14 0-.484.079-.484.532C.5-.75 1.188.219 2.297.219 3.453.219 4.469-.734 4.469-2m0 0"/><path id="b" d="M1.906-.531a.534.534 0 0 0-.515-.531.537.537 0 0 0-.532.53.524.524 0 1 0 1.047 0m0 0"/><path id="e" d="M1.906-2.5a.524.524 0 1 0-1.047.016.524.524 0 0 0 1.047-.016m0 0"/><path id="i" d="M6.563-2.297c.171 0 .359 0 .359-.203 0-.187-.188-.187-.36-.187h-5.39c-.172 0-.344 0-.344.187 0 .203.172.203.344.203Zm0 0"/><path id="f" d="M2.328-4.437c0-.188 0-.188-.203-.188-.453.438-1.078.438-1.36.438v.25c.157 0 .626 0 1-.188v3.547c0 .234 0 .328-.687.328H.812V0c.125 0 .985-.031 1.235-.031.219 0 1.094.031 1.25.031v-.25H3.03c-.703 0-.703-.094-.703-.328Zm0 0"/><path id="h" d="M1.906-2.328c.547 0 .938.375.938 1.125 0 .86-.516 1.125-.906 1.125-.282 0-.907-.078-1.188-.5.328 0 .406-.235.406-.39 0-.22-.172-.376-.39-.376a.38.38 0 0 0-.391.407C.375-.281 1.094.14 1.938.14c.968 0 1.64-.657 1.64-1.344 0-.547-.437-1.094-1.203-1.25.719-.266.984-.781.984-1.219 0-.547-.625-.953-1.406-.953-.766 0-1.36.375-1.36.938 0 .234.157.359.36.359.219 0 .36-.156.36-.344 0-.203-.141-.36-.36-.375.25-.297.719-.375.985-.375.312 0 .75.156.75.75 0 .297-.094.625-.282.828-.219.266-.422.281-.765.313-.172.015-.188.015-.22.015-.015 0-.077.016-.077.094 0 .094.062.094.187.094Zm0 0"/><path id="g" d="M2.36-3.656a.77.77 0 0 0-.782-.766.767.767 0 0 0-.766.766.774.774 0 1 0 1.547 0m.03 3.344c0-.657-.25-1.25-.812-1.25-.469 0-.766.359-.766.78 0 .407.266.782.766.782.234 0 .39-.094.453-.125a2.67 2.67 0 0 1-.828 1.703c-.078.078-.094.094-.094.156 0 .094.11.204.188.204.14 0 1.094-.907 1.094-2.25m0 0"/></defs><use xlink:href="#a" x="-.211" y="8.836"/><use xlink:href="#b" x="4.77" y="8.836"/><use xlink:href="#c" x="7.538" y="8.836"/><use xlink:href="#d" x="12.519" y="8.836"/><use xlink:href="#e" x="19.714" y="8.836"/><use xlink:href="#a" x="24.696" y="8.836"/><use xlink:href="#c" x="29.677" y="8.836"/><use xlink:href="#f" x="34.658" y="5.22"/><use xlink:href="#g" x="39.128" y="8.836"/><use xlink:href="#a" x="42.306" y="8.836"/><use xlink:href="#c" x="47.287" y="8.836"/><use xlink:href="#f" x="52.268" y="5.22"/><use xlink:href="#g" x="56.738" y="8.836"/><use xlink:href="#a" x="59.916" y="8.836"/><use xlink:href="#b" x="64.897" y="8.836"/><use xlink:href="#c" x="67.665" y="8.836"/><use xlink:href="#a" x="72.646" y="8.836"/><use xlink:href="#e" x="79.841" y="8.836"/><use xlink:href="#a" x="84.822" y="8.836"/><use xlink:href="#c" x="89.803" y="8.836"/><use xlink:href="#h" x="94.785" y="5.22"/><use xlink:href="#g" x="99.254" y="8.836"/><use xlink:href="#i" x="102.432" y="8.836"/><use xlink:href="#a" x="110.181" y="8.836"/><use xlink:href="#c" x="115.162" y="8.836"/><use xlink:href="#h" x="120.144" y="5.22"/><use xlink:href="#g" x="124.613" y="8.836"/></svg>