<svg xmlns="http://www.w3.org/2000/svg" width="94.25" height="50.798"><defs><clipPath id="a"><path d="M0 0h93.875v13H0Zm0 0"/></clipPath><clipPath id="b"><path d="M0 9h93.875v18H0Zm0 0"/></clipPath><clipPath id="c"><path d="M0 38h93.875v12.695H0Zm0 0"/></clipPath></defs><path fill="#FF7F7F" d="M7.383 4.129 1.71 1.297l.973 2.832-.973 2.836Zm7.086 0L8.797 1.297l.976 2.832-.976 2.836Zm7.086 0-5.668-2.832.972 2.832-.972 2.836Zm7.086 0-5.668-2.832.972 2.832-.972 2.836Zm7.09 0-5.672-2.832.972 2.832-.972 2.836Zm7.085 0-5.671-2.832.972 2.832-.972 2.836Zm7.086 0L44.23 1.297l.973 2.832-.973 2.836Zm7.086 0L51.32 1.297l.973 2.832-.973 2.836Zm7.086 0-5.668-2.832.973 2.832-.973 2.836Zm7.09 0-5.672-2.832.973 2.832-.973 2.836Zm7.086 0-5.672-2.832.973 2.832-.973 2.836Zm7.086 0-5.672-2.832.973 2.832-.973 2.836Zm7.086 0-5.668-2.832.973 2.832-.973 2.836Zm0 0"/><g clip-path="url(#a)"><path fill="none" stroke="#7F0000" stroke-miterlimit="10" stroke-width=".399" d="M7.383 4.129 1.71 1.297l.973 2.832-.973 2.836Zm7.086 0L8.797 1.297l.976 2.832-.976 2.836Zm7.086 0-5.668-2.832.972 2.832-.972 2.836Zm7.086 0-5.668-2.832.972 2.832-.972 2.836Zm7.09 0-5.672-2.832.972 2.832-.972 2.836Zm7.085 0-5.671-2.832.972 2.832-.972 2.836Zm7.086 0L44.23 1.297l.973 2.832-.973 2.836Zm7.086 0L51.32 1.297l.973 2.832-.973 2.836Zm7.086 0-5.668-2.832.973 2.832-.973 2.836Zm7.09 0-5.672-2.832.973 2.832-.973 2.836Zm7.086 0-5.672-2.832.973 2.832-.973 2.836Zm7.086 0-5.672-2.832.973 2.832-.973 2.836Zm7.086 0-5.668-2.832.973 2.832-.973 2.836Zm0 0"/></g><path fill="#7FFF7F" d="M6.582 18.305 3.75 15.469.914 18.305l2.836 2.832Zm7.09 0-2.836-2.836L8 18.305l2.836 2.832Zm7.086 0-2.836-2.836-2.832 2.836 2.832 2.832Zm7.086 0-2.836-2.836-2.832 2.836 2.832 2.832Zm7.086 0-2.836-2.836-2.832 2.836 2.832 2.832Zm7.086 0-2.832-2.836-2.836 2.836 2.836 2.832Zm7.086 0-2.832-2.836-2.836 2.836 2.836 2.832Zm7.09 0-2.837-2.836-2.835 2.836 2.835 2.832Zm7.085 0-2.836-2.836-2.832 2.836 2.832 2.832Zm7.086 0-2.836-2.836-2.832 2.836 2.832 2.832Zm7.086 0-2.832-2.836-2.836 2.836 2.836 2.832Zm7.086 0-2.832-2.836-2.836 2.836 2.836 2.832Zm7.09 0-2.836-2.836-2.836 2.836 2.836 2.832Zm0 0"/><g clip-path="url(#b)"><path fill="none" stroke="#007F00" stroke-miterlimit="10" stroke-width=".399" d="M6.582 18.305 3.75 15.469.914 18.305l2.836 2.832Zm7.09 0-2.836-2.836L8 18.305l2.836 2.832Zm7.086 0-2.836-2.836-2.832 2.836 2.832 2.832Zm7.086 0-2.836-2.836-2.832 2.836 2.832 2.832Zm7.086 0-2.836-2.836-2.832 2.836 2.832 2.832Zm7.086 0-2.832-2.836-2.836 2.836 2.836 2.832Zm7.086 0-2.832-2.836-2.836 2.836 2.836 2.832Zm7.09 0-2.837-2.836-2.835 2.836 2.835 2.832Zm7.085 0-2.836-2.836-2.832 2.836 2.832 2.832Zm7.086 0-2.836-2.836-2.832 2.836 2.832 2.832Zm7.086 0-2.832-2.836-2.836 2.836 2.836 2.832Zm7.086 0-2.832-2.836-2.836 2.836 2.836 2.832Zm7.09 0-2.836-2.836-2.836 2.836 2.836 2.832Zm0 0"/></g><path fill="#7F7FFF" stroke="#00007F" stroke-miterlimit="10" stroke-width=".399" d="M6.582 29.645H.914v5.668h5.668Zm7.09 0H8v5.668h5.672Zm7.086 0H15.09v5.668h5.668Zm7.086 0h-5.668v5.668h5.668Zm7.086 0h-5.668v5.668h5.668Zm7.086 0h-5.668v5.668h5.668Zm7.086 0h-5.668v5.668h5.668Zm7.09 0H50.52v5.668h5.671Zm7.085 0H57.61v5.668h5.668Zm7.086 0h-5.668v5.668h5.668Zm7.086 0h-5.668v5.668h5.668Zm7.086 0h-5.668v5.668h5.668Zm7.09 0h-5.672v5.668h5.672Zm0 0"/><path fill="#FFF87F" d="M6.582 46.652a2.83 2.83 0 0 0-2.832-2.836 2.835 2.835 0 1 0 2.832 2.836m7.09 0a2.836 2.836 0 1 0-5.672 0 2.835 2.835 0 0 0 2.836 2.832 2.835 2.835 0 0 0 2.836-2.832m7.086 0a2.836 2.836 0 1 0-5.672 0 2.835 2.835 0 0 0 2.836 2.832 2.835 2.835 0 0 0 2.836-2.832m7.086 0a2.836 2.836 0 0 0-2.836-2.836 2.83 2.83 0 0 0-2.832 2.836 2.835 2.835 0 0 0 5.668 0m7.086 0a2.835 2.835 0 1 0-2.836 2.832 2.835 2.835 0 0 0 2.836-2.832m7.086 0a2.835 2.835 0 1 0-5.668 0 2.835 2.835 0 0 0 5.668 0m7.09 0a2.836 2.836 0 1 0-5.672 0 2.835 2.835 0 0 0 2.836 2.832 2.835 2.835 0 0 0 2.835-2.832m7.085 0a2.836 2.836 0 1 0-5.671 0 2.835 2.835 0 0 0 2.835 2.832 2.835 2.835 0 0 0 2.836-2.832m7.086 0a2.836 2.836 0 1 0-5.672 0 2.835 2.835 0 0 0 2.836 2.832 2.835 2.835 0 0 0 2.836-2.832m7.086 0a2.835 2.835 0 1 0-2.836 2.832 2.835 2.835 0 0 0 2.836-2.832m7.086 0a2.835 2.835 0 1 0-5.668 0 2.835 2.835 0 0 0 5.668 0m7.09 0a2.836 2.836 0 1 0-5.672 0 2.835 2.835 0 0 0 2.836 2.832 2.835 2.835 0 0 0 2.836-2.832m7.086 0a2.836 2.836 0 1 0-5.672 0 2.835 2.835 0 0 0 2.836 2.832 2.835 2.835 0 0 0 2.836-2.832m0 0"/><g clip-path="url(#c)"><path fill="none" stroke="#8F8A48" stroke-miterlimit="10" stroke-width=".399" d="M6.582 46.652a2.83 2.83 0 0 0-2.832-2.836 2.835 2.835 0 1 0 2.832 2.836Zm7.09 0a2.836 2.836 0 1 0-5.672 0 2.835 2.835 0 0 0 2.836 2.832 2.835 2.835 0 0 0 2.836-2.832Zm7.086 0a2.836 2.836 0 1 0-5.672 0 2.835 2.835 0 0 0 2.836 2.832 2.835 2.835 0 0 0 2.836-2.832Zm7.086 0a2.836 2.836 0 0 0-2.836-2.836 2.83 2.83 0 0 0-2.832 2.836 2.835 2.835 0 0 0 5.668 0Zm7.086 0a2.835 2.835 0 1 0-2.836 2.832 2.835 2.835 0 0 0 2.836-2.832Zm7.086 0a2.835 2.835 0 1 0-5.668 0 2.835 2.835 0 0 0 5.668 0Zm7.09 0a2.836 2.836 0 1 0-5.672 0 2.835 2.835 0 0 0 2.836 2.832 2.835 2.835 0 0 0 2.835-2.832Zm7.085 0a2.836 2.836 0 1 0-5.671 0 2.835 2.835 0 0 0 2.835 2.832 2.835 2.835 0 0 0 2.836-2.832Zm7.086 0a2.836 2.836 0 1 0-5.672 0 2.835 2.835 0 0 0 2.836 2.832 2.835 2.835 0 0 0 2.836-2.832Zm7.086 0a2.835 2.835 0 1 0-2.836 2.832 2.835 2.835 0 0 0 2.836-2.832Zm7.086 0a2.835 2.835 0 1 0-5.668 0 2.835 2.835 0 0 0 5.668 0Zm7.09 0a2.836 2.836 0 1 0-5.672 0 2.835 2.835 0 0 0 2.836 2.832 2.835 2.835 0 0 0 2.836-2.832Zm7.086 0a2.836 2.836 0 1 0-5.672 0 2.835 2.835 0 0 0 2.836 2.832 2.835 2.835 0 0 0 2.836-2.832Zm0 0"/></g></svg>