<svg xmlns="http://www.w3.org/2000/svg" xmlns:xlink="http://www.w3.org/1999/xlink" width="266.042" height="261.596"><defs><path id="d" d="M1.031 21.703c.328-.015.5-.234.5-.484a.48.48 0 0 0-.484-.5.47.47 0 0 0-.484.5c0 .515.5.937 1.109.937 1.516 0 2.078-2.343 2.781-5.234A130 130 0 0 0 6.406 7.39C6.781 5.28 7.141 3.28 7.484 2c.125-.5.454-1.781.844-1.781a.98.98 0 0 1 .61.234c-.329.016-.5.235-.5.485 0 .328.25.484.468.484.25 0 .5-.14.5-.5C9.406.39 8.86 0 8.312 0 7.563 0 7 1.094 6.454 3.125c-.031.11-1.39 5.11-2.484 11.625-.266 1.531-.547 3.188-.875 4.578-.188.735-.64 2.61-1.453 2.61-.36 0-.594-.235-.61-.235m0 0"/><path id="e" d="M1.906-2.328c.547 0 .938.375.938 1.125 0 .86-.516 1.125-.906 1.125-.282 0-.907-.078-1.188-.5.328 0 .406-.235.406-.39 0-.22-.172-.376-.39-.376a.38.38 0 0 0-.391.407C.375-.281 1.094.14 1.938.14c.968 0 1.64-.657 1.64-1.344 0-.547-.437-1.094-1.203-1.25.719-.266.984-.781.984-1.219 0-.547-.625-.953-1.406-.953-.766 0-1.36.375-1.36.938 0 .234.157.359.36.359.219 0 .36-.156.36-.344 0-.203-.141-.36-.36-.375.25-.297.719-.375.985-.375.312 0 .75.156.75.75 0 .297-.094.625-.282.828-.219.266-.422.281-.765.313-.172.015-.188.015-.22.015-.015 0-.077.016-.077.094 0 .094.062.094.187.094Zm0 0"/><path id="g" d="M3.516-1.266H3.28c-.015.157-.094.563-.187.625-.047.047-.578.047-.688.047H1.125c.734-.64.984-.843 1.39-1.172.516-.406 1-.843 1-1.5 0-.843-.734-1.359-1.624-1.359-.86 0-1.453.61-1.453 1.25 0 .344.296.39.375.39.156 0 .359-.124.359-.374 0-.125-.047-.375-.406-.375.218-.485.687-.641 1.015-.641.703 0 1.063.547 1.063 1.11 0 .609-.438 1.078-.656 1.328L.516-.266C.437-.203.437-.187.437 0h2.876Zm0 0"/><path id="h" d="M3.594-2.219c0-.765-.094-1.328-.406-1.812-.22-.313-.657-.594-1.204-.594C.36-4.625.36-2.719.36-2.219s0 2.36 1.625 2.36c1.61 0 1.61-1.86 1.61-2.36M1.984-.062c-.328 0-.75-.188-.89-.75C1-1.22 1-1.797 1-2.312c0-.516 0-1.047.094-1.422.156-.547.593-.703.89-.703.375 0 .735.234.86.64.11.375.125.875.125 1.485 0 .515 0 1.03-.094 1.468-.14.64-.61.782-.89.782m0 0"/><path id="o" d="M2.328-4.437c0-.188 0-.188-.203-.188-.453.438-1.078.438-1.36.438v.25c.157 0 .626 0 1-.188v3.547c0 .234 0 .328-.687.328H.812V0c.125 0 .985-.031 1.235-.031.219 0 1.094.031 1.25.031v-.25H3.03c-.703 0-.703-.094-.703-.328Zm0 0"/><path id="r" d="M3.688-1.14v-.25h-.782V-4.5c0-.14 0-.203-.14-.203-.094 0-.125 0-.188.11L.266-1.392v.25h2.062v.563c0 .25 0 .328-.578.328h-.187V0c.359-.016.796-.031 1.046-.031.266 0 .704.015 1.063.031v-.25h-.188c-.578 0-.578-.078-.578-.328v-.563ZM2.375-3.939v2.547H.531Zm0 0"/><path id="f" d="M3.484-4.922c.047-.094.047-.11.047-.125a.173.173 0 0 0-.172-.172c-.109 0-.14.078-.187.172L.578 1.438c-.047.093-.047.109-.047.125 0 .109.094.171.172.171.125 0 .156-.078.188-.171Zm0 0"/><path id="i" d="M3.328-3.016c.063-.25.297-1.171.985-1.171.046 0 .296 0 .5.125a.58.58 0 0 0-.47.546c0 .157.11.344.376.344a.546.546 0 0 0 .531-.578c0-.516-.578-.656-.922-.656-.578 0-.922.531-1.047.75-.25-.656-.781-.75-1.078-.75-1.031 0-1.61 1.281-1.61 1.531 0 .11.11.11.126.11.078 0 .11-.032.125-.11.344-1.062 1-1.312 1.344-1.312.187 0 .53.093.53.671 0 .313-.171.97-.53 2.375-.157.61-.516 1.032-.954 1.032-.062 0-.28 0-.5-.125.25-.063.47-.266.47-.547 0-.266-.22-.344-.36-.344-.313 0-.547.25-.547.578 0 .453.484.656.922.656.672 0 1.031-.703 1.047-.75.125.36.484.75 1.078.75 1.031 0 1.594-1.28 1.594-1.53 0-.11-.079-.11-.11-.11-.094 0-.11.047-.14.11-.329 1.077-1 1.312-1.313 1.312-.39 0-.547-.313-.547-.657 0-.218.047-.437.156-.875Zm0 0"/><path id="k" d="M3.656-3.984h.86c.203 0 .297 0 .297-.203 0-.11-.094-.11-.266-.11h-.828l.203-1.14c.047-.204.187-.907.25-1.032.078-.187.25-.343.469-.343.03 0 .297 0 .484.187a.557.557 0 0 0-.547.531c0 .235.188.36.375.36.266 0 .547-.235.547-.61 0-.453-.453-.687-.86-.687-.343 0-.968.187-1.265 1.172-.062.203-.094.312-.328 1.562h-.688c-.203 0-.312 0-.312.188 0 .125.094.125.281.125h.656L2.25-.047c-.187.969-.36 1.875-.875 1.875-.047 0-.281 0-.484-.187.468-.032.562-.391.562-.532 0-.234-.187-.359-.375-.359-.266 0-.547.234-.547.61 0 .437.438.687.844.687.547 0 .953-.594 1.125-.969.328-.625.547-1.828.563-1.906Zm0 0"/><path id="j" d="M3.781-.547V.11L5.25 0v-.312c-.687 0-.781-.063-.781-.563v-6.047l-1.422.11v.312c.687 0 .765.063.765.563v2.156a1.58 1.58 0 0 0-1.25-.625c-1.171 0-2.218.984-2.218 2.265 0 1.266.969 2.25 2.11 2.25.64 0 1.077-.343 1.327-.656m0-2.672v2.047c0 .172 0 .188-.11.36-.296.484-.733.703-1.171.703-.453 0-.812-.266-1.047-.641-.25-.406-.281-.969-.281-1.39 0-.36.016-.954.297-1.407.218-.312.593-.64 1.14-.64.344 0 .766.156 1.063.593.11.172.11.188.11.375m0 0"/><path id="l" d="M3.297 2.39c0-.03 0-.046-.172-.218C1.891.922 1.563-.968 1.563-2.5c0-1.734.375-3.469 1.609-4.703.125-.125.125-.14.125-.172 0-.078-.031-.11-.094-.11-.11 0-1 .688-1.594 1.954C1.11-4.438.984-3.328.984-2.5c0 .781.11 1.984.657 3.125C2.25 1.844 3.094 2.5 3.203 2.5c.063 0 .094-.031.094-.11m0 0"/><path id="m" d="M2.875-2.5c0-.766-.11-1.969-.656-3.11C1.625-6.827.766-7.483.672-7.483a.107.107 0 0 0-.11.109c0 .031 0 .047.188.234.984.985 1.547 2.563 1.547 4.641 0 1.719-.36 3.469-1.594 4.719-.14.125-.14.14-.14.172 0 .062.046.109.109.109.094 0 1-.687 1.578-1.953.516-1.094.625-2.203.625-3.047m0 0"/><path id="n" d="M2.938-6.375c0-.25 0-.266-.235-.266C2.078-6 1.203-6 .891-6v.313c.203 0 .78 0 1.297-.266v5.172c0 .36-.032.469-.922.469H.953V0c.344-.031 1.203-.031 1.61-.031.39 0 1.265 0 1.609.031v-.312h-.313c-.906 0-.921-.11-.921-.47Zm0 0"/><path id="p" d="m1.266-.766 1.062-1.03c1.547-1.376 2.14-1.907 2.14-2.907 0-1.14-.89-1.938-2.109-1.938C1.234-6.64.5-5.719.5-4.828c0 .547.5.547.531.547.172 0 .516-.11.516-.532a.513.513 0 0 0-.531-.515c-.079 0-.094 0-.125.016.218-.657.765-1.016 1.343-1.016.907 0 1.329.812 1.329 1.625 0 .797-.485 1.578-1.047 2.203L.609-.375C.5-.265.5-.235.5 0h3.703l.266-1.734h-.235C4.172-1.437 4.11-1 4-.844c-.062.078-.719.078-.937.078Zm0 0"/><path id="q" d="M2.89-3.516c.813-.265 1.391-.953 1.391-1.75 0-.812-.875-1.375-1.828-1.375-1 0-1.765.594-1.765 1.36 0 .328.218.515.515.515s.5-.218.5-.515c0-.485-.469-.485-.61-.485.298-.5.954-.625 1.313-.625.422 0 .969.22.969 1.11 0 .125-.031.703-.281 1.14-.297.485-.64.516-.89.516a3 3 0 0 1-.392.031c-.078.016-.14.031-.14.125 0 .11.062.11.234.11h.438c.812 0 1.187.672 1.187 1.656 0 1.36-.687 1.64-1.125 1.64S1.22-.233.875-.812c.344.047.656-.171.656-.546a.537.537 0 0 0-.547-.563c-.25 0-.562.14-.562.578C.422-.437 1.344.22 2.437.22c1.22 0 2.126-.906 2.126-1.922 0-.813-.641-1.594-1.672-1.813m0 0"/><clipPath id="a"><path d="M29 113h86v128H29Zm0 0"/></clipPath><clipPath id="b"><path d="M29.012 241.043c42.52 0 75.472-98.86 85.043-127.563v127.563z"/></clipPath><linearGradient id="c" x1="0" x2="0" y1="25.003" y2="74.997" gradientTransform="matrix(1.701 0 0 -2.55151 -13.517 304.837)" gradientUnits="userSpaceOnUse"><stop offset="0" stop-color="#BFBFBF"/><stop offset=".004" stop-color="#BEBEBF"/><stop offset=".008" stop-color="#BEBEC0"/><stop offset=".012" stop-color="#BDBDC0"/><stop offset=".016" stop-color="#BCBCC0"/><stop offset=".02" stop-color="#BCBCC0"/><stop offset=".023" stop-color="#BBBBC1"/><stop offset=".027" stop-color="#BABAC1"/><stop offset=".031" stop-color="#B9B9C1"/><stop offset=".035" stop-color="#B9B9C1"/><stop offset=".039" stop-color="#B8B8C2"/><stop offset=".043" stop-color="#B7B7C2"/><stop offset=".047" stop-color="#B6B6C2"/><stop offset=".051" stop-color="#B6B6C2"/><stop offset=".055" stop-color="#B5B5C3"/><stop offset=".059" stop-color="#B4B4C3"/><stop offset=".063" stop-color="#B3B3C3"/><stop offset=".066" stop-color="#B3B3C3"/><stop offset=".07" stop-color="#B2B2C4"/><stop offset=".074" stop-color="#B1B1C4"/><stop offset=".078" stop-color="#B0B0C4"/><stop offset=".082" stop-color="#B0B0C4"/><stop offset=".086" stop-color="#AFAFC5"/><stop offset=".09" stop-color="#AEAEC5"/><stop offset=".094" stop-color="#ADADC5"/><stop offset=".098" stop-color="#ADADC5"/><stop offset=".102" stop-color="#ACACC6"/><stop offset=".105" stop-color="#ABABC6"/><stop offset=".109" stop-color="#AAAAC6"/><stop offset=".113" stop-color="#AAAAC6"/><stop offset=".117" stop-color="#A9A9C7"/><stop offset=".121" stop-color="#A8A8C7"/><stop offset=".125" stop-color="#A7A7C7"/><stop offset=".129" stop-color="#A7A7C7"/><stop offset=".133" stop-color="#A6A6C8"/><stop offset=".137" stop-color="#A5A5C8"/><stop offset=".141" stop-color="#A4A4C8"/><stop offset=".145" stop-color="#A4A4C8"/><stop offset=".148" stop-color="#A3A3C9"/><stop offset=".152" stop-color="#A2A2C9"/><stop offset=".156" stop-color="#A1A1C9"/><stop offset=".16" stop-color="#A1A1C9"/><stop offset=".164" stop-color="#A0A0CA"/><stop offset=".168" stop-color="#9F9FCA"/><stop offset=".172" stop-color="#9E9ECA"/><stop offset=".176" stop-color="#9E9ECA"/><stop offset=".18" stop-color="#9D9DCB"/><stop offset=".184" stop-color="#9C9CCB"/><stop offset=".188" stop-color="#9B9BCB"/><stop offset=".191" stop-color="#9B9BCB"/><stop offset=".195" stop-color="#9A9ACC"/><stop offset=".199" stop-color="#99C"/><stop offset=".203" stop-color="#9898CC"/><stop offset=".207" stop-color="#9898CC"/><stop offset=".211" stop-color="#9797CD"/><stop offset=".215" stop-color="#9696CD"/><stop offset=".219" stop-color="#9595CD"/><stop offset=".223" stop-color="#9595CD"/><stop offset=".227" stop-color="#9494CE"/><stop offset=".23" stop-color="#9393CE"/><stop offset=".234" stop-color="#9292CE"/><stop offset=".238" stop-color="#9292CE"/><stop offset=".242" stop-color="#9191CF"/><stop offset=".246" stop-color="#9090CF"/><stop offset=".25" stop-color="#8F8FCF"/><stop offset=".254" stop-color="#8F8FCF"/><stop offset=".258" stop-color="#8E8ED0"/><stop offset=".262" stop-color="#8D8DD0"/><stop offset=".266" stop-color="#8C8CD0"/><stop offset=".27" stop-color="#8C8CD0"/><stop offset=".273" stop-color="#8B8BD1"/><stop offset=".277" stop-color="#8A8AD1"/><stop offset=".281" stop-color="#8989D1"/><stop offset=".285" stop-color="#8989D1"/><stop offset=".289" stop-color="#8888D2"/><stop offset=".293" stop-color="#8787D2"/><stop offset=".297" stop-color="#8686D2"/><stop offset=".301" stop-color="#8686D2"/><stop offset=".305" stop-color="#8585D3"/><stop offset=".309" stop-color="#8484D3"/><stop offset=".313" stop-color="#8383D3"/><stop offset=".316" stop-color="#8383D3"/><stop offset=".32" stop-color="#8282D4"/><stop offset=".324" stop-color="#8181D4"/><stop offset=".328" stop-color="#8080D4"/><stop offset=".332" stop-color="#8080D4"/><stop offset=".336" stop-color="#7F7FD5"/><stop offset=".34" stop-color="#7E7ED5"/><stop offset=".344" stop-color="#7E7ED5"/><stop offset=".348" stop-color="#7D7DD5"/><stop offset=".352" stop-color="#7C7CD6"/><stop offset=".355" stop-color="#7B7BD6"/><stop offset=".359" stop-color="#7B7BD6"/><stop offset=".363" stop-color="#7A7AD6"/><stop offset=".367" stop-color="#7979D7"/><stop offset=".371" stop-color="#7878D7"/><stop offset=".375" stop-color="#7878D7"/><stop offset=".379" stop-color="#7777D7"/><stop offset=".383" stop-color="#7676D8"/><stop offset=".387" stop-color="#7575D8"/><stop offset=".391" stop-color="#7575D8"/><stop offset=".395" stop-color="#7474D8"/><stop offset=".398" stop-color="#7373D9"/><stop offset=".402" stop-color="#7272D9"/><stop offset=".406" stop-color="#7272D9"/><stop offset=".41" stop-color="#7171D9"/><stop offset=".414" stop-color="#7070DA"/><stop offset=".418" stop-color="#6F6FDA"/><stop offset=".422" stop-color="#6F6FDA"/><stop offset=".426" stop-color="#6E6EDA"/><stop offset=".43" stop-color="#6D6DDB"/><stop offset=".434" stop-color="#6C6CDB"/><stop offset=".438" stop-color="#6C6CDB"/><stop offset=".441" stop-color="#6B6BDB"/><stop offset=".445" stop-color="#6A6ADC"/><stop offset=".449" stop-color="#6969DC"/><stop offset=".453" stop-color="#6969DC"/><stop offset=".457" stop-color="#6868DC"/><stop offset=".461" stop-color="#6767DD"/><stop offset=".465" stop-color="#66D"/><stop offset=".469" stop-color="#66D"/><stop offset=".473" stop-color="#6565DD"/><stop offset=".477" stop-color="#6464DE"/><stop offset=".48" stop-color="#6363DE"/><stop offset=".484" stop-color="#6363DE"/><stop offset=".488" stop-color="#6262DE"/><stop offset=".492" stop-color="#6161DF"/><stop offset=".496" stop-color="#6060DF"/><stop offset=".5" stop-color="#6060DF"/><stop offset=".504" stop-color="#5F5FDF"/><stop offset=".508" stop-color="#5E5EE0"/><stop offset=".512" stop-color="#5D5DE0"/><stop offset=".516" stop-color="#5D5DE0"/><stop offset=".52" stop-color="#5C5CE0"/><stop offset=".523" stop-color="#5B5BE1"/><stop offset=".527" stop-color="#5A5AE1"/><stop offset=".531" stop-color="#5A5AE1"/><stop offset=".535" stop-color="#5959E1"/><stop offset=".539" stop-color="#5858E2"/><stop offset=".543" stop-color="#5757E2"/><stop offset=".547" stop-color="#5757E2"/><stop offset=".551" stop-color="#5656E2"/><stop offset=".555" stop-color="#5555E3"/><stop offset=".559" stop-color="#5454E3"/><stop offset=".563" stop-color="#5454E3"/><stop offset=".566" stop-color="#5353E3"/><stop offset=".57" stop-color="#5252E4"/><stop offset=".574" stop-color="#5151E4"/><stop offset=".578" stop-color="#5151E4"/><stop offset=".582" stop-color="#5050E4"/><stop offset=".586" stop-color="#4F4FE5"/><stop offset=".59" stop-color="#4E4EE5"/><stop offset=".594" stop-color="#4E4EE5"/><stop offset=".598" stop-color="#4D4DE5"/><stop offset=".602" stop-color="#4C4CE6"/><stop offset=".605" stop-color="#4B4BE6"/><stop offset=".609" stop-color="#4B4BE6"/><stop offset=".613" stop-color="#4A4AE6"/><stop offset=".617" stop-color="#4949E7"/><stop offset=".621" stop-color="#4848E7"/><stop offset=".625" stop-color="#4848E7"/><stop offset=".629" stop-color="#4747E7"/><stop offset=".633" stop-color="#4646E8"/><stop offset=".637" stop-color="#4545E8"/><stop offset=".641" stop-color="#4545E8"/><stop offset=".645" stop-color="#4444E8"/><stop offset=".648" stop-color="#4343E9"/><stop offset=".652" stop-color="#4242E9"/><stop offset=".656" stop-color="#4242E9"/><stop offset=".66" stop-color="#4141E9"/><stop offset=".664" stop-color="#4040EA"/><stop offset=".668" stop-color="#4040EA"/><stop offset=".672" stop-color="#3F3FEA"/><stop offset=".676" stop-color="#3E3EEA"/><stop offset=".68" stop-color="#3D3DEB"/><stop offset=".684" stop-color="#3D3DEB"/><stop offset=".688" stop-color="#3C3CEB"/><stop offset=".691" stop-color="#3B3BEB"/><stop offset=".695" stop-color="#3A3AEC"/><stop offset=".699" stop-color="#3A3AEC"/><stop offset=".703" stop-color="#3939EC"/><stop offset=".707" stop-color="#3838EC"/><stop offset=".711" stop-color="#3737ED"/><stop offset=".715" stop-color="#3737ED"/><stop offset=".719" stop-color="#3636ED"/><stop offset=".723" stop-color="#3535ED"/><stop offset=".727" stop-color="#3434EE"/><stop offset=".73" stop-color="#3434EE"/><stop offset=".734" stop-color="#33E"/><stop offset=".738" stop-color="#3232EE"/><stop offset=".742" stop-color="#3131EF"/><stop offset=".746" stop-color="#3131EF"/><stop offset=".75" stop-color="#3030EF"/><stop offset=".754" stop-color="#2F2FEF"/><stop offset=".758" stop-color="#2E2EF0"/><stop offset=".762" stop-color="#2E2EF0"/><stop offset=".766" stop-color="#2D2DF0"/><stop offset=".77" stop-color="#2C2CF0"/><stop offset=".773" stop-color="#2B2BF1"/><stop offset=".777" stop-color="#2B2BF1"/><stop offset=".781" stop-color="#2A2AF1"/><stop offset=".785" stop-color="#2929F1"/><stop offset=".789" stop-color="#2828F2"/><stop offset=".793" stop-color="#2828F2"/><stop offset=".797" stop-color="#2727F2"/><stop offset=".801" stop-color="#2626F2"/><stop offset=".805" stop-color="#2525F3"/><stop offset=".809" stop-color="#2525F3"/><stop offset=".813" stop-color="#2424F3"/><stop offset=".816" stop-color="#2323F3"/><stop offset=".82" stop-color="#2222F4"/><stop offset=".824" stop-color="#2222F4"/><stop offset=".828" stop-color="#2121F4"/><stop offset=".832" stop-color="#2020F4"/><stop offset=".836" stop-color="#1F1FF5"/><stop offset=".84" stop-color="#1F1FF5"/><stop offset=".844" stop-color="#1E1EF5"/><stop offset=".848" stop-color="#1D1DF5"/><stop offset=".852" stop-color="#1C1CF6"/><stop offset=".855" stop-color="#1C1CF6"/><stop offset=".859" stop-color="#1B1BF6"/><stop offset=".863" stop-color="#1A1AF6"/><stop offset=".867" stop-color="#1919F7"/><stop offset=".871" stop-color="#1919F7"/><stop offset=".875" stop-color="#1818F7"/><stop offset=".879" stop-color="#1717F7"/><stop offset=".883" stop-color="#1616F8"/><stop offset=".887" stop-color="#1616F8"/><stop offset=".891" stop-color="#1515F8"/><stop offset=".895" stop-color="#1414F8"/><stop offset=".898" stop-color="#1313F9"/><stop offset=".902" stop-color="#1313F9"/><stop offset=".906" stop-color="#1212F9"/><stop offset=".91" stop-color="#1111F9"/><stop offset=".914" stop-color="#1010FA"/><stop offset=".918" stop-color="#1010FA"/><stop offset=".922" stop-color="#0F0FFA"/><stop offset=".926" stop-color="#0E0EFA"/><stop offset=".93" stop-color="#0D0DFB"/><stop offset=".934" stop-color="#0D0DFB"/><stop offset=".938" stop-color="#0C0CFB"/><stop offset=".941" stop-color="#0B0BFB"/><stop offset=".945" stop-color="#0A0AFC"/><stop offset=".949" stop-color="#0A0AFC"/><stop offset=".953" stop-color="#0909FC"/><stop offset=".957" stop-color="#0808FC"/><stop offset=".961" stop-color="#0707FD"/><stop offset=".965" stop-color="#0707FD"/><stop offset=".969" stop-color="#0606FD"/><stop offset=".973" stop-color="#0505FD"/><stop offset=".977" stop-color="#0404FD"/><stop offset=".98" stop-color="#0404FE"/><stop offset=".984" stop-color="#0303FE"/><stop offset=".988" stop-color="#0202FE"/><stop offset=".992" stop-color="#0202FE"/><stop offset=".996" stop-color="#0101FF"/><stop offset="1" stop-color="#00F"/></linearGradient></defs><g clip-path="url(#a)"><g clip-path="url(#b)"><path fill="url(#c)" d="M29.012 241.043V113.48h85.043v127.563Zm0 0"/></g></g><use xlink:href="#d" x="67.432" y="210.9"/><use xlink:href="#e" x="77.395" y="213.363"/><use xlink:href="#f" x="81.366" y="213.363"/><use xlink:href="#g" x="85.448" y="213.363"/><use xlink:href="#h" x="72.967" y="233.538"/><use xlink:href="#i" x="88.257" y="224.46"/><use xlink:href="#g" x="93.951" y="220.347"/><use xlink:href="#j" x="98.42" y="224.46"/><use xlink:href="#i" x="103.955" y="224.46"/><path fill="none" stroke="#7F7F7F" stroke-miterlimit="10" stroke-width=".199" d="M29.012 241.043h221.105M29.012 184.348h221.105M29.012 127.656h221.105M29.012 70.961h221.105M29.012 241.043V19.938m56.695 221.105V19.938m56.691 221.105V19.938m56.696 221.105V19.938M85.707 113.48h56.691M85.707 99.31h56.691M85.707 85.137h56.691M85.707 70.96h56.691m-42.52 56.695V70.961m14.177 56.695V70.961m14.172 56.695V70.961m14.171 56.695V70.961"/><path fill="none" stroke="#000" stroke-miterlimit="10" stroke-width=".399" d="M17.676 241.043H255.39"/><path fill="none" stroke="#000" stroke-linecap="round" stroke-linejoin="round" stroke-miterlimit="10" stroke-width=".399" d="M253.516 238.652c.379 1.434 1.222 2.11 2.074 2.391-.852.277-1.695.957-2.074 2.39"/><use xlink:href="#i" x="259.304" y="243.187"/><path fill="none" stroke="#000" stroke-miterlimit="10" stroke-width=".399" d="M29.012 252.379V14.668"/><path fill="none" stroke="#000" stroke-linecap="round" stroke-linejoin="round" stroke-miterlimit="10" stroke-width=".399" d="M26.621 16.54c1.434-.38 2.113-1.224 2.39-2.075.282.851.958 1.695 2.391 2.074"/><use xlink:href="#k" x="19.316" y="8.261"/><use xlink:href="#l" x="25.266" y="8.261"/><use xlink:href="#i" x="29.141" y="8.261"/><use xlink:href="#m" x="34.835" y="8.261"/><path fill="none" stroke="#000" stroke-miterlimit="10" stroke-width=".399" d="M85.707 237.059v7.968"/><use xlink:href="#n" x="83.215" y="254.968"/><path fill="none" stroke="#000" stroke-miterlimit="10" stroke-width=".399" d="M114.055 237.059v7.968"/><use xlink:href="#n" x="108.38" y="256.964"/><use xlink:href="#o" x="114.557" y="253.042"/><path fill="none" stroke="#000" stroke-miterlimit="10" stroke-width=".398" d="M114.559 254.473h3.968"/><use xlink:href="#g" x="114.557" y="260.4"/><path fill="none" stroke="#000" stroke-miterlimit="10" stroke-width=".399" d="M142.398 237.059v7.968"/><use xlink:href="#p" x="139.908" y="254.968"/><path fill="none" stroke="#000" stroke-miterlimit="10" stroke-width=".399" d="M199.094 237.059v7.968"/><use xlink:href="#q" x="196.601" y="254.968"/><path fill="none" stroke="#000" stroke-miterlimit="10" stroke-width=".399" d="M33 184.348h-7.973"/><use xlink:href="#n" x="16.527" y="187.56"/><path fill="none" stroke="#000" stroke-miterlimit="10" stroke-width=".399" d="M33 127.656h-7.973"/><use xlink:href="#p" x="16.527" y="130.867"/><path fill="none" stroke="#000" stroke-miterlimit="10" stroke-width=".399" d="M33 113.48h-7.973"/><use xlink:href="#p" x="10.164" y="115.974"/><use xlink:href="#o" x="16.341" y="112.052"/><path fill="none" stroke="#000" stroke-miterlimit="10" stroke-width=".398" d="M16.34 113.484h3.973"/><use xlink:href="#r" x="16.341" y="119.41"/><path fill="none" stroke="#000" stroke-miterlimit="10" stroke-width=".399" d="M33 70.96h-7.973"/><use xlink:href="#q" x="16.527" y="74.174"/><path fill="none" stroke="#000" stroke-miterlimit="10" stroke-width=".399" d="M.668 226.867c3.187 3.192 14.172 14.176 28.344 14.176 56.695 0 100.633-175.75 113.386-226.777"/><use xlink:href="#i" x="145.918" y="25.9"/><use xlink:href="#g" x="151.612" y="22.285"/></svg>