<svg xmlns="http://www.w3.org/2000/svg" width="104.356" height="73.406"><defs><clipPath id="a"><path d="M0 0h104.035v73.11H0Zm0 0"/></clipPath></defs><path fill="none" stroke="#7F7F7F" stroke-miterlimit="10" stroke-width=".199" d="M10.766 66.648h85.039m-85.04-28.347h85.04M10.765 9.965h85.04m-85.04 56.683V9.953M39.11 66.648V9.953m28.348 56.695V9.953m28.336 56.695V9.953"/><path fill="#D2C92A" d="M10.766 66.648c-.82-4.703-.27-8.875 1.746-9.546 2.015-.672 4.96 2.336 7.125 6.586 2.164 4.253 2.957 7.98 2.285 8.203-.668.222-2.27-3.23-3.09-7.934-.82-4.7-.27-8.875 1.746-9.547s4.961 2.336 7.125 6.59c2.168 4.254 2.957 7.977 2.29 8.203-.673.223-2.274-3.234-3.095-7.933-.82-4.704-.265-8.875 1.747-9.547 2.015-.672 4.964 2.336 7.128 6.59 2.164 4.25 2.957 7.976 2.286 8.199-.672.226-2.274-3.23-3.094-7.934-.82-4.7-.266-8.871 1.75-9.543s4.96 2.332 7.125 6.586 2.957 7.98 2.285 8.203-2.273-3.23-3.094-7.933c-.82-4.7-.265-8.875 1.75-9.547s4.961 2.336 7.125 6.59 2.957 7.976 2.285 8.199c-.671.226-2.273-3.23-3.09-7.93-.82-4.703-.269-8.875 1.747-9.547s4.96 2.336 7.125 6.586c2.164 4.254 2.957 7.98 2.285 8.203-.668.223-2.27-3.23-3.09-7.933-.82-4.7-.27-8.875 1.746-9.547s4.961 2.336 7.129 6.59c2.164 4.254 2.953 7.976 2.285 8.203-.672.222-2.273-3.235-3.094-7.934-.82-4.703-.265-8.875 1.75-9.547 2.012-.672 4.961 2.336 7.125 6.59 2.164 4.25 2.957 7.977 2.286 8.2-.672.226-2.274-3.231-3.094-7.93-.82-4.703-.266-8.875 1.75-9.547s4.96 2.332 7.125 6.586 2.957 7.98 2.285 8.203-2.273-3.23-3.094-7.934c-.816-4.699-.265-8.875 1.75-9.547 2.016-.671 4.961 2.336 7.125 6.59s2.957 7.977 2.285 8.203c-.668.223-2.27-3.234-3.09-7.933-.82-4.703-.269-8.875 1.747-9.547s4.96 2.336 7.125 6.586c2.168 4.254 2.957 7.98 2.289 8.203-.672.223-2.274-3.23-3.094-7.934-8.863-2.406-12.942-3.449-13.371-5.527-.43-2.082 2.902-4.652 7.383-6.3 4.476-1.65 8.27-1.997 8.414-1.302.14.692-3.477 1.875-8.243 2.133-5.937 2.633-10.105 3.23-11.296 1.47-1.192-1.759.906-5.407 4.418-8.642 3.507-3.234 6.879-5.003 7.277-4.418.394.586-2.496 3.063-6.8 5.122-4.536 4.027-8.36 5.785-10.005 4.437-1.64-1.348-.668-5.441 1.778-9.539 2.441-4.102 5.171-6.758 5.718-6.309.547.45-1.523 3.645-5.062 6.848-3.328 4.649-6.695 7.176-8.586 6.207-1.89-.969-1.805-5.18-.285-9.703s3.625-7.695 4.254-7.375c.629.324-.715 3.887-3.496 7.766-2.387 4.976-5.274 8.039-7.305 7.406-2.027-.633-2.66-4.797-1.93-9.512s2.266-8.203 2.942-7.992c.675.21-.047 3.953-2.13 8.246-1.59 5.172-3.995 8.625-6.093 8.297s-3.336-4.352-3.309-9.121c.028-4.774 1.032-8.445 1.73-8.336.7.11.54 3.914-.89 8.465-.867 5.285-2.785 9.031-4.906 8.988-2.125-.04-3.895-3.86-4.512-8.59-.617-4.734-.117-8.508.59-8.496.707.016 1.063 3.805.262 8.512-.153 5.328-1.559 9.297-3.668 9.539-2.11.238-4.371-3.313-5.61-7.922-1.238-4.605-1.242-8.414-.539-8.496.7-.078 1.555 3.633 1.383 8.402.61 5.336-.215 9.465-2.27 10.004-2.054.54-4.796-2.652-6.683-7.039-1.883-4.387-2.43-8.152-1.746-8.332s2.059 3.371 2.57 8.117c1.477 5.239 1.332 9.446-.61 10.309-1.94.867-5.163-1.84-7.73-5.863-2.57-4.024-3.718-7.653-3.074-7.942.649-.289 2.578 2.996 3.852 7.594 2.523 4.976 3.21 9.129 1.476 10.36-1.734 1.226-5.425-.794-8.734-4.231-3.309-3.442-5.148-6.774-4.57-7.184.574-.41 3.113 2.43 5.265 6.692 3.86 4.359 5.598 8.195 4.242 9.832-1.355 1.632-5.445.64-9.53-1.828-4.087-2.465-6.731-5.208-6.278-5.75.45-.547 3.637 1.539 6.816 5.097 5.457 2.992 8.438 5.965 7.746 7.977-.691 2.008-4.867 2.523-9.562 1.66-4.692-.86-8.133-2.492-7.902-3.16.226-.672 3.945.152 8.18 2.355 6.41 1.051 10.195 2.895 10.195 5.02s-3.786 3.968-8.504 4.676c-4.723.71-8.504.28-8.504-.426 0-.707 3.781-1.133 8.504-.426 4.718.71 8.504 2.555 8.504 4.68s-3.786 3.968-8.504 4.675z"/><g clip-path="url(#a)"><path fill="none" stroke="#000" stroke-miterlimit="10" stroke-width=".399" d="M10.766 66.648c-.82-4.703-.27-8.875 1.746-9.546 2.015-.672 4.96 2.336 7.125 6.586 2.164 4.253 2.957 7.98 2.285 8.203-.668.222-2.27-3.23-3.09-7.934-.82-4.7-.27-8.875 1.746-9.547s4.961 2.336 7.125 6.59c2.168 4.254 2.957 7.977 2.29 8.203-.673.223-2.274-3.234-3.095-7.933-.82-4.704-.265-8.875 1.747-9.547 2.015-.672 4.964 2.336 7.128 6.59 2.164 4.25 2.957 7.976 2.286 8.199-.672.226-2.274-3.23-3.094-7.934-.82-4.7-.266-8.871 1.75-9.543s4.96 2.332 7.125 6.586 2.957 7.98 2.285 8.203-2.273-3.23-3.094-7.933c-.82-4.7-.265-8.875 1.75-9.547s4.961 2.336 7.125 6.59 2.957 7.976 2.285 8.199c-.671.226-2.273-3.23-3.09-7.93-.82-4.703-.269-8.875 1.747-9.547s4.96 2.336 7.125 6.586c2.164 4.254 2.957 7.98 2.285 8.203-.668.223-2.27-3.23-3.09-7.933-.82-4.7-.27-8.875 1.746-9.547s4.961 2.336 7.129 6.59c2.164 4.254 2.953 7.976 2.285 8.203-.672.222-2.273-3.235-3.094-7.934-.82-4.703-.265-8.875 1.75-9.547 2.012-.672 4.961 2.336 7.125 6.59 2.164 4.25 2.957 7.977 2.286 8.2-.672.226-2.274-3.231-3.094-7.93-.82-4.703-.266-8.875 1.75-9.547s4.96 2.332 7.125 6.586 2.957 7.98 2.285 8.203-2.273-3.23-3.094-7.934c-.816-4.699-.265-8.875 1.75-9.547 2.016-.671 4.961 2.336 7.125 6.59s2.957 7.977 2.285 8.203c-.668.223-2.27-3.234-3.09-7.933-.82-4.703-.269-8.875 1.747-9.547s4.96 2.336 7.125 6.586c2.168 4.254 2.957 7.98 2.289 8.203-.672.223-2.274-3.23-3.094-7.934-8.863-2.406-12.942-3.449-13.371-5.527-.43-2.082 2.902-4.652 7.383-6.3 4.476-1.65 8.27-1.997 8.414-1.301.14.69-3.477 1.875-8.243 2.132-5.937 2.633-10.105 3.23-11.296 1.47-1.192-1.759.906-5.407 4.418-8.642 3.507-3.234 6.879-5.003 7.277-4.418.394.586-2.496 3.063-6.8 5.122-4.536 4.027-8.36 5.785-10.005 4.437-1.64-1.348-.668-5.441 1.778-9.539 2.441-4.102 5.171-6.758 5.718-6.309.547.45-1.523 3.645-5.062 6.848-3.328 4.649-6.695 7.176-8.586 6.207-1.89-.969-1.805-5.18-.285-9.703s3.625-7.695 4.254-7.375c.629.324-.715 3.887-3.496 7.766-2.387 4.976-5.274 8.039-7.305 7.406-2.027-.633-2.66-4.797-1.93-9.512s2.266-8.203 2.942-7.992c.675.21-.047 3.953-2.13 8.246-1.59 5.172-3.995 8.625-6.093 8.297s-3.336-4.352-3.309-9.121c.028-4.774 1.032-8.445 1.73-8.336.7.11.54 3.914-.89 8.465-.867 5.285-2.785 9.031-4.906 8.988-2.125-.04-3.895-3.86-4.512-8.59-.617-4.734-.117-8.508.59-8.496.707.016 1.063 3.805.262 8.512-.153 5.328-1.559 9.297-3.668 9.539-2.11.238-4.371-3.313-5.61-7.922-1.238-4.605-1.242-8.414-.539-8.496.7-.078 1.555 3.633 1.383 8.402.61 5.336-.215 9.465-2.27 10.004-2.054.54-4.796-2.652-6.683-7.039-1.883-4.387-2.43-8.152-1.746-8.332s2.059 3.371 2.57 8.117c1.477 5.239 1.332 9.446-.61 10.309-1.94.867-5.163-1.84-7.73-5.863-2.57-4.024-3.718-7.653-3.074-7.942.649-.289 2.578 2.996 3.852 7.594 2.523 4.976 3.21 9.129 1.476 10.36-1.734 1.226-5.425-.794-8.734-4.231-3.309-3.442-5.148-6.774-4.57-7.184.574-.41 3.113 2.43 5.265 6.692 3.86 4.359 5.598 8.195 4.242 9.832-1.355 1.632-5.445.64-9.53-1.828-4.087-2.465-6.731-5.208-6.278-5.75.45-.547 3.637 1.539 6.816 5.097 5.457 2.992 8.438 5.965 7.746 7.977-.691 2.008-4.867 2.523-9.562 1.66-4.692-.86-8.133-2.492-7.902-3.16.226-.672 3.945.152 8.18 2.355 6.41 1.051 10.195 2.895 10.195 5.02s-3.786 3.968-8.504 4.676c-4.723.71-8.504.28-8.504-.426 0-.707 3.781-1.133 8.504-.426 4.718.71 8.504 2.555 8.504 4.68s-3.786 3.968-8.504 4.675v8.457"/></g></svg>