<svg xmlns="http://www.w3.org/2000/svg" xmlns:xlink="http://www.w3.org/1999/xlink" width="247.862" height="214.094"><defs><path id="b" d="M8.547-.953c0-.219-.14-.219-.235-.219-.203 0-.218.11-.234.234-.047.47-.328.688-.625.688-.61 0-.687-.703-.75-1.125-.016-.11-.094-.797-.11-.844-.14-.703-.687-1.015-1.109-1.172C6.641-3.687 7.141-4.344 7.141-5c0-1-1.094-1.844-2.97-1.844H.392v.469h1.078v5.906H.39V0C.75-.031 1.719-.031 2.14-.031s1.39 0 1.75.031v-.469H2.828v-2.765h1.156c.141 0 .579 0 .891.328.313.36.313.547.313 1.265 0 .657 0 1.157.703 1.485.437.219 1.062.265 1.468.265 1.063 0 1.188-.89 1.188-1.062M5.625-4.984c0 .562 0 1.39-1.64 1.39H2.827v-2.781H4c1.61 0 1.625.781 1.625 1.39m0 0"/><path id="c" d="M4.922-1.172c0-.172-.188-.172-.234-.172-.172 0-.188.047-.25.203-.204.485-.782.797-1.422.797-1.407 0-1.422-1.328-1.422-1.828h3.015c.22 0 .313 0 .313-.265 0-.313-.063-1.047-.563-1.547-.359-.36-.89-.532-1.578-.532C1.187-4.516.313-3.484.313-2.25c0 1.344 1 2.313 2.609 2.313 1.578 0 2-1.063 2-1.235M3.984-2.5h-2.39c.015-.39.031-.812.234-1.14.266-.391.672-.516.953-.516 1.172 0 1.188 1.312 1.203 1.656m0 0"/><path id="d" d="M5.563-3.953c0-.235-.172-.578-.625-.578-.157 0-.625.031-1.063.375-.172-.125-.594-.328-1.328-.328-1.438 0-1.985.78-1.985 1.468 0 .407.188.829.516 1.047-.281.36-.344.688-.344.89 0 .157.047.642.438.954-.125.031-.86.25-.86.875C.313 1.25.876 2 2.86 2 4.625 2 5.406 1.422 5.406.719c0-.297-.078-.922-.75-1.266-.562-.281-1.156-.281-2.11-.281-.265 0-.718 0-.765-.016a.625.625 0 0 1-.562-.625c0-.093.047-.25.11-.328.452.234.968.266 1.218.266 1.437 0 1.984-.782 1.984-1.485 0-.468-.25-.796-.406-.953.297-.156.516-.172.625-.187a.43.43 0 0 0-.047.203c0 .25.172.422.438.422a.41.41 0 0 0 .422-.422m-2.141.937c0 .454 0 1.125-.875 1.125s-.875-.671-.875-1.125c0-.437 0-1.109.875-1.109s.875.672.875 1.11M4.547.75c0 .36-.39.89-1.688.89-1.187 0-1.687-.452-1.687-.906 0-.609.625-.609.766-.609h1.171c.313 0 1.438 0 1.438.625m0 0"/><path id="e" d="M6.125 0v-.469c-.61 0-.687 0-.687-.39v-3.625l-1.813.078v.468c.61 0 .688 0 .688.391v1.906c0 .813-.516 1.344-1.235 1.344-.781 0-.812-.25-.812-.797v-3.39l-1.813.078v.468c.61 0 .688 0 .688.391v2.328c0 1.063.797 1.282 1.797 1.282.25 0 .968 0 1.421-.782v.782Zm0 0"/><path id="f" d="M2.922 0v-.469h-.688v-6.453L.47-6.844v.469c.625 0 .687 0 .687.39v5.516H.47V0l1.219-.031Zm0 0"/><path id="g" d="M5.516-.234c0-.235-.125-.235-.266-.235-.61-.015-.61-.14-.61-.375v-2.14c0-.891-.702-1.532-2.187-1.532-.562 0-1.781.047-1.781.922 0 .438.344.625.61.625.312 0 .624-.219.624-.625 0-.297-.187-.469-.218-.5a5 5 0 0 1 .718-.062c.75 0 1.11.422 1.11 1.172v.343c-.72.032-3.25.125-3.25 1.563C.266-.125 1.5.062 2.188.062c.796 0 1.265-.406 1.484-.828 0 .313 0 .766 1.047.766h.468c.204 0 .329 0 .329-.234m-2-1.157c0 .97-.922 1.094-1.172 1.094-.516 0-.906-.344-.906-.797 0-1.062 1.578-1.203 2.078-1.234Zm0 0"/><path id="h" d="M4.406-3.672c0-.531-.531-.812-1.062-.812-.688 0-1.094.5-1.313 1.125v-1.125l-1.656.078v.468c.61 0 .688 0 .688.391v3.078H.375V0l1.25-.031C2-.031 2.641-.031 3 0v-.469h-.86v-1.75c0-.687.235-1.906 1.235-1.906 0 0-.187.172-.187.453 0 .406.328.61.609.61.297 0 .61-.204.61-.61m0 0"/><path id="i" d="M7.188-4.89c0-1.094-.985-1.954-2.641-1.954H.39v.469h1.078v5.906H.39V0C.766-.031 1.75-.031 2.17-.031c.438 0 1.407 0 1.782.031v-.469H2.875v-2.547h1.766c1.39 0 2.547-.718 2.547-1.875m-1.532 0c0 .702 0 1.468-1.5 1.468H2.828v-2.953h1.344c1.484 0 1.484.766 1.484 1.484m0 0"/><path id="j" d="M5.406-2.172c0-1.344-.922-2.344-2.547-2.344C1.22-4.516.313-3.5.313-2.172c0 1.235.89 2.235 2.546 2.235 1.672 0 2.547-1.016 2.547-2.235m-1.281-.11c0 .86 0 1.938-1.266 1.938-1.265 0-1.265-1.078-1.265-1.937 0-.453 0-.953.172-1.297.187-.375.609-.578 1.093-.578.422 0 .844.156 1.063.5.203.344.203.89.203 1.375m0 0"/><path id="k" d="M5.781-3.953v-.469A13 13 0 0 1 5-4.39l-.906-.03v.468s.468 0 .468.11L4.5-3.72 3.36-1.266 2.093-3.953h.531v-.469l-1.234.031-1.125-.03v.468H.89L2.766 0 2.53.484C2.312.954 2 1.641 1.281 1.641c-.14 0-.156-.016-.234-.047.094-.032.312-.172.312-.532C1.36.734 1.125.5.781.5a.553.553 0 0 0-.562.578c0 .5.469.922 1.062.922.766 0 1.344-.625 1.625-1.187l2.14-4.563c.063-.14.095-.203.735-.203m0 0"/><path id="l" d="M6.125 0v-.469h-.687v-2.578c0-1.047-.532-1.437-1.532-1.437-.953 0-1.484.562-1.75 1.078v-1.078l-1.703.078v.468c.61 0 .688 0 .688.391v3.078H.453V0l1.25-.031L2.953 0v-.469h-.687v-2.078c0-1.094.859-1.578 1.5-1.578.328 0 .547.203.547.969V-.47h-.688V0l1.25-.031Zm0 0"/><path id="m" d="M3.078.313c0-.125-.047-.157-.187-.25C2.063-.5 1.75-1.391 1.75-2.125c0-.672.25-1.594 1.156-2.203.125-.094.172-.125.172-.25a.254.254 0 0 0-.265-.25c-.204 0-1.641.906-1.641 2.703 0 .813.312 1.438.562 1.781.375.516.907.907 1.079.907.218 0 .265-.172.265-.25m0 0"/><path id="n" d="M3.219-.906c0-.735-.906-.906-1.14-.938l-.704-.125C1.188-2 1-2.079 1-2.25c0-.156.219-.328.813-.328.515 0 .609.172.625.328.015.14.03.281.28.281.298 0 .298-.156.298-.328v-.469c0-.14-.016-.328-.25-.328-.157 0-.22.063-.25.125-.282-.125-.563-.125-.688-.125-1.187 0-1.344.594-1.344.844 0 .656.735.797 1.391.89.297.063.828.141.828.454 0 .234-.25.422-.828.422-.297 0-.656-.063-.812-.563C1.03-1.203.984-1.28.78-1.28c-.297 0-.297.172-.297.328v.656c0 .14 0 .344.25.344.079 0 .188 0 .282-.234.328.218.672.234.859.234 1.125 0 1.344-.61 1.344-.953m0 0"/><path id="o" d="M2.313-.469a.477.477 0 0 0-.485-.484.47.47 0 0 0-.469.469c0 .28.22.484.47.484a.473.473 0 0 0 .484-.469m0 0"/><path id="p" d="M3.266-.797c0-.234-.235-.234-.297-.234-.125 0-.203 0-.266.172-.047.078-.187.375-.625.375a1.027 1.027 0 0 1-1.015-1.032c0-.312.187-1.062 1.062-1.062l.344.015c.015.282.172.376.36.376.187 0 .358-.126.358-.36 0-.531-.734-.547-1.062-.547-1.219 0-1.64.953-1.64 1.578 0 .844.671 1.563 1.546 1.563 1 0 1.235-.719 1.235-.844m0 0"/><path id="q" d="M3.281-1.516c0-.89-.672-1.578-1.453-1.578-.797 0-1.453.688-1.453 1.578S1.047.047 1.828.047c.766 0 1.453-.688 1.453-1.563m-.578-.046c0 .593-.406 1.078-.875 1.078S.953-.97.953-1.562s.422-1.016.875-1.016.875.422.875 1.015m0 0"/><path id="r" d="M3.406-2.594c0-.156-.078-.484-.703-.484-.328 0-.734.11-1.094.469v-.094c0-.25-.046-.328-.328-.328h-.75c-.125 0-.328 0-.328.25 0 .265.203.265.328.265h.5v2h-.5c-.125 0-.328 0-.328.25C.203 0 .406 0 .531 0h1.781c.126 0 .329 0 .329-.266 0-.25-.203-.25-.328-.25h-.704v-.796c0-.61.36-1.22 1.11-1.235 0 .156.172.281.344.281.187 0 .343-.125.343-.328m0 0"/><path id="s" d="M3.578-.266c0-.25-.203-.25-.328-.25H3v-1.53c0-.72-.36-1.032-.937-1.032-.391 0-.672.172-.844.297 0-.172-.047-.25-.313-.25h-.5c-.14 0-.328 0-.328.25 0 .265.203.265.313.265h.25v2H.406c-.14 0-.328 0-.328.25C.078 0 .281 0 .391 0h1.093c.11 0 .329 0 .329-.266 0-.25-.204-.25-.344-.25h-.25v-1.156c0-.64.484-.875.797-.875.328 0 .406.172.406.547v1.484h-.203c-.14 0-.344 0-.344.25 0 .266.219.266.344.266H3.25c.11 0 .328 0 .328-.266m0 0"/><path id="t" d="M3.25-.797c0-.234-.234-.234-.281-.234-.156 0-.219.015-.281.172-.141.328-.485.375-.657.375-.469 0-.937-.297-1.062-.813h1.953c.172 0 .328 0 .328-.312 0-.797-.453-1.485-1.375-1.485-.828 0-1.516.703-1.516 1.563S1.08.047 1.984.047c.938 0 1.266-.656 1.266-.844m-.594-1.015H.97c.125-.438.484-.766.906-.766.328 0 .703.156.781.765m0 0"/><path id="u" d="M3.094-.266c0-.25-.188-.25-.313-.25H2.22V-4c0-.125-.016-.328-.266-.328-.156 0-.219.094-.25.187-.234.547-.578.625-.687.641-.141 0-.313.031-.313.266 0 .203.156.25.281.25s.375-.032.657-.235v2.703h-.563c-.14 0-.328 0-.328.25C.75 0 .953 0 1.078 0h1.703c.125 0 .313 0 .313-.266m0 0"/><path id="v" d="M2.484-2.125c0-.828-.312-1.453-.562-1.797-.375-.515-.906-.906-1.078-.906-.203 0-.266.187-.266.25 0 .125.094.187.14.219 1.095.718 1.188 1.797 1.188 2.234 0 .656-.25 1.578-1.14 2.188C.64.14.578.188.578.313c0 .078.063.25.266.25s1.64-.907 1.64-2.688m0 0"/><path id="w" d="M3.297-.328v-.188c0-.156 0-.328-.266-.328-.265 0-.297.125-.297.328H1.313c.406-.343.968-.796 1.234-1.03.437-.391.75-.845.75-1.407 0-.844-.703-1.375-1.563-1.375-.828 0-1.39.578-1.39 1.187 0 .297.234.375.36.375.171 0 .359-.14.359-.359a.35.35 0 0 0-.094-.234c.11-.266.39-.453.734-.453.531 0 1.031.296 1.031.859 0 .453-.328.844-.765 1.203L.469-.484C.39-.422.344-.391.344-.266.344 0 .547 0 .672 0h2.312c.266 0 .313-.062.313-.328m0 0"/><path id="x" d="M3.36-1.234c0-.47-.297-.875-.72-1.094.344-.25.516-.64.516-1 0-.516-.515-1-1.328-1-.86 0-1.344.36-1.344.844 0 .265.204.375.36.375.172 0 .36-.141.36-.36 0-.078-.032-.14-.048-.172.203-.171.625-.171.688-.171.422 0 .734.218.734.5a.72.72 0 0 1-.25.546c-.219.172-.375.188-.61.188-.437 0-.546.062-.546.281 0 .266.203.266.328.266h.313c.64 0 .968.422.968.797 0 .39-.36.78-.937.78-.25 0-.719-.062-.907-.327A.36.36 0 0 0 1-1a.363.363 0 0 0-.36-.36c-.171 0-.343.126-.343.391C.297-.344.969.078 1.844.078c.922 0 1.515-.656 1.515-1.312m0 0"/><path id="y" d="M3.469-1.406c0-.266-.203-.266-.328-.266h-.485V-4c0-.266-.047-.344-.328-.344h-.187c-.188 0-.235.016-.328.172L.266-1.734c-.079.093-.079.109-.079.265 0 .266.079.313.329.313h1.656v.64h-.36c-.14 0-.328 0-.328.25 0 .266.188.266.329.266H3.03c.125 0 .328 0 .328-.266 0-.25-.203-.25-.328-.25h-.375v-.64h.485c.125 0 .328 0 .328-.25m-1.313-.266H.812l1.344-2.125Zm0 0"/><path id="z" d="M3.297-1.344c0-.718-.531-1.406-1.36-1.406-.234 0-.515.047-.78.172v-1.156H2.75c.11 0 .313-.016.313-.266s-.188-.266-.313-.266H.906c-.265 0-.312.079-.312.344v1.797c0 .156 0 .344.265.344.157 0 .188-.047.25-.125.172-.203.438-.328.813-.328.531 0 .812.484.812.89 0 .516-.468.89-1 .89-.171 0-.562-.046-.75-.358.032-.047.079-.11.079-.22a.367.367 0 0 0-.36-.374c-.125 0-.36.078-.36.39C.344-.437.939.078 1.735.078c.875 0 1.563-.64 1.563-1.422m0 0"/><path id="A" d="M3.188-.266c0-.25-.204-.25-.329-.25h-.656v-2.187c0-.25-.047-.328-.328-.328H.906c-.125 0-.328 0-.328.25 0 .265.203.265.328.265h.719v2H.859c-.14 0-.343 0-.343.25C.516 0 .734 0 .859 0h2c.125 0 .329 0 .329-.266m-.954-3.562a.39.39 0 0 0-.406-.39.387.387 0 0 0-.39.39c0 .219.171.39.39.39a.39.39 0 0 0 .406-.39m0 0"/><path id="B" d="M3.578-.266c0-.25-.203-.25-.328-.25H3v-3.406c0-.25-.047-.344-.328-.344h-.485c-.14 0-.343.016-.343.266s.218.266.328.266h.25v.906a1.26 1.26 0 0 0-.735-.25c-.765 0-1.453.672-1.453 1.562C.234-.64.875.047 1.625.047c.344 0 .61-.14.797-.313.015.188.062.266.328.266h.5c.125 0 .328 0 .328-.266M2.422-1.375c0 .36-.297.89-.781.89-.453 0-.828-.452-.828-1.03 0-.61.437-1.032.89-1.032.406 0 .719.344.719.688Zm0 0"/><path id="C" d="M3.14-.906c0-.156 0-.313-.296-.313-.266 0-.266.157-.266.297-.015.375-.36.438-.515.438-.454 0-.454-.313-.454-.47v-1.562h1.047c.125 0 .328 0 .328-.265 0-.25-.187-.25-.328-.25H1.61v-.516c0-.14-.015-.328-.296-.328-.282 0-.282.172-.282.328v.516H.484c-.125 0-.328 0-.328.25 0 .265.203.265.328.265h.547v1.61c0 .687.485.953 1.016.953S3.14-.266 3.14-.906m0 0"/><path id="D" d="M3.469-.266c0-.25-.203-.25-.328-.25h-.25l-.828-1.046.734-.954h.234c.125 0 .344 0 .344-.265 0-.25-.219-.25-.344-.25H2.25c-.125 0-.328 0-.328.25 0 .203.11.265.281.265l-.39.547-.422-.547c.156 0 .28-.062.28-.265 0-.25-.202-.25-.327-.25H.547c-.125 0-.328 0-.328.25 0 .265.219.265.328.265h.25l.75.954L.75-.516H.516c-.125 0-.344 0-.344.25C.172 0 .39 0 .516 0h.78c.126 0 .329 0 .329-.266 0-.203-.11-.25-.297-.25l.484-.703.5.703c-.187 0-.296.047-.296.25 0 .266.203.266.328.266h.797c.109 0 .328 0 .328-.266m0 0"/><path id="E" d="M3.64-.266c0-.218-.14-.25-.39-.25v-1.593c0-.157-.016-.97-.656-.97a.84.84 0 0 0-.656.313.61.61 0 0 0-.532-.312.88.88 0 0 0-.547.203c-.046-.156-.187-.156-.312-.156H.328c-.125 0-.328 0-.328.25 0 .234.125.265.39.265v2c-.265 0-.39.032-.39.25C0 0 .219 0 .328 0h.594c.125 0 .312 0 .312-.266 0-.218-.109-.25-.359-.25v-1.171c0-.563.234-.86.5-.86.14 0 .203.11.203.5v1.531c-.156 0-.281.032-.281.25 0 .266.187.266.312.266h.516c.125 0 .313 0 .313-.266 0-.218-.126-.25-.376-.25v-1.171c0-.563.25-.86.5-.86.141 0 .204.11.204.5v1.531c-.141 0-.282.032-.282.25 0 .266.204.266.313.266h.5c.125 0 .344 0 .344-.266m0 0"/><path id="F" d="M3.422-1.516c0-.875-.64-1.562-1.39-1.562-.298 0-.579.11-.813.265v-1.109c0-.25-.047-.344-.313-.344h-.5c-.14 0-.343.016-.343.266s.218.266.328.266h.25v3.406C.64-.172.656 0 .938 0c.218 0 .28-.094.28-.234.266.218.532.28.735.28.766 0 1.469-.671 1.469-1.562m-.578 0c0 .61-.453 1.032-.906 1.032-.485 0-.704-.563-.704-.875v-.485c0-.375.375-.703.766-.703.469 0 .844.469.844 1.031m0 0"/><path id="G" d="M3.625-.266c0-.25-.203-.25-.328-.25-.203 0-.297-.03-.344-.046V-2c0-.5-.375-1.094-1.406-1.094-.313 0-1.031.016-1.031.547 0 .235.172.36.359.36.11 0 .344-.063.344-.36 0 0 .234-.031.343-.031.454 0 .782.187.813.594-1.219.03-2.047.39-2.047 1.062 0 .485.453.969 1.188.969.234 0 .656-.047.968-.25.172.187.485.203.75.203.235 0 .391-.016.391-.266M2.359-.969c0 .14 0 .266-.234.375-.234.11-.516.11-.578.11-.39 0-.64-.203-.64-.438 0-.312.546-.515 1.452-.562Zm0 0"/><path id="H" d="M3.36-4c0-.25-.188-.266-.329-.266H.828c-.062-.093-.187-.109-.25-.109-.281 0-.281.188-.281.344v.281c0 .156 0 .328.281.328.266 0 .281-.125.297-.312h1.61C1.358-2.5 1.155-1.031 1.155-.297c0 .11 0 .375.282.375.14 0 .28-.094.28-.328a4.94 4.94 0 0 1 1.47-3.469c.171-.14.171-.156.171-.281m0 0"/><path id="I" d="M3.547-2.781c0-.25-.188-.25-.328-.25h-.781c-.157 0-.344 0-.344.25 0 .265.172.265.344.265h.265l-.297 1.72-.14-.532c-.125-.469-.172-.547-.422-.547-.094 0-.235 0-.328.188l-.266.906-.297-1.735h.266c.156 0 .343 0 .343-.265 0-.25-.187-.25-.343-.25H.437c-.14 0-.343 0-.343.25 0 .234.14.265.36.265L.858-.28c.032.187.047.312.36.312.312 0 .343-.062.453-.515l.172-.641.265 1c.094.14.235.156.344.156.281 0 .313-.125.344-.312l.406-2.235c.219 0 .344-.03.344-.265m0 0"/><path id="J" d="M3.578-.266c0-.25-.203-.25-.328-.25H3v-1.53c0-.72-.36-1.032-.937-1.032-.391 0-.672.172-.844.297v-1.14c0-.25-.047-.345-.313-.345h-.5c-.14 0-.328.016-.328.266s.203.266.313.266h.25v3.218H.406c-.14 0-.328 0-.328.25C.078 0 .281 0 .391 0h1.093c.11 0 .329 0 .329-.266 0-.25-.204-.25-.344-.25h-.25v-1.156c0-.64.484-.875.797-.875.328 0 .406.172.406.547v1.484h-.203c-.14 0-.344 0-.344.25 0 .266.219.266.344.266H3.25c.11 0 .328 0 .328-.266m0 0"/><path id="K" d="M3.578-.266c0-.25-.219-.25-.328-.25H3v-2.187c0-.25-.047-.328-.328-.328h-.485c-.14 0-.343 0-.343.25 0 .265.218.265.328.265h.25v1.391c0 .563-.516.64-.719.64-.469 0-.484-.187-.484-.39v-1.828c0-.25-.047-.328-.313-.328h-.5c-.14 0-.328 0-.328.25 0 .265.203.265.313.265h.25v1.688c0 .687.5.875 1.03.875.266 0 .517-.063.767-.219C2.484 0 2.625 0 2.75 0h.5c.125 0 .328 0 .328-.266m0 0"/><clipPath id="a"><path d="M0 0h247.793v213.64H0Zm0 0"/></clipPath></defs><path fill="#FFFBB3" d="M123.863 18.2 30.051 86.36l35.832 110.285h115.965L217.68 86.359Zm0 0"/><g clip-path="url(#a)"><path fill="none" stroke="#B2B2B2" stroke-miterlimit="10" stroke-width="14.173" d="M123.863 18.2 30.051 86.36l35.832 110.285h115.965L217.68 86.359Zm0 0"/></g><g fill="#B2B2B2"><use xlink:href="#b" x="81.608" y="144.187"/><use xlink:href="#c" x="90.206" y="144.187"/><use xlink:href="#d" x="95.456" y="144.187"/><use xlink:href="#e" x="101.185" y="144.187"/><use xlink:href="#f" x="107.551" y="144.187"/><use xlink:href="#g" x="110.729" y="144.187"/><use xlink:href="#h" x="116.298" y="144.187"/></g><use xlink:href="#i" x="124.836" y="144.187" fill="#B2B2B2"/><g fill="#B2B2B2"><use xlink:href="#j" x="132.348" y="144.187"/><use xlink:href="#f" x="138.076" y="144.187"/><use xlink:href="#k" x="141.254" y="144.187"/><use xlink:href="#d" x="147.302" y="144.187"/><use xlink:href="#j" x="153.03" y="144.187"/><use xlink:href="#l" x="158.759" y="144.187"/></g><path fill="none" stroke="#B2B2B2" stroke-miterlimit="10" stroke-width=".996" d="M165.621 146.191V87.496"/><path fill="none" stroke="#000" stroke-miterlimit="10" stroke-width=".399" d="m122.457 10.848 2.816-2.817m-2.816 0 2.816 2.817"/><use xlink:href="#m" x="101.897" y="5.363"/><use xlink:href="#n" x="105.558" y="5.363"/><use xlink:href="#o" x="109.22" y="5.363"/><use xlink:href="#p" x="112.881" y="5.363"/><use xlink:href="#q" x="116.542" y="5.363"/><use xlink:href="#r" x="120.203" y="5.363"/><use xlink:href="#s" x="123.865" y="5.363"/><use xlink:href="#t" x="127.526" y="5.363"/><use xlink:href="#r" x="131.187" y="5.363"/><use xlink:href="#u" x="138.51" y="5.363"/><use xlink:href="#v" x="142.171" y="5.363"/><path fill="none" stroke="#000" stroke-miterlimit="10" stroke-width=".399" d="m20.309 85.063 2.82-2.82m-2.82 0 2.82 2.82"/><use xlink:href="#m" x="-.248" y="79.575"/><use xlink:href="#n" x="3.413" y="79.575"/><use xlink:href="#o" x="7.075" y="79.575"/><use xlink:href="#p" x="10.736" y="79.575"/><use xlink:href="#q" x="14.397" y="79.575"/><use xlink:href="#r" x="18.058" y="79.575"/><use xlink:href="#s" x="21.72" y="79.575"/><use xlink:href="#t" x="25.381" y="79.575"/><use xlink:href="#r" x="29.042" y="79.575"/><use xlink:href="#w" x="36.358" y="79.575"/><use xlink:href="#v" x="40.019" y="79.575"/><path fill="none" stroke="#000" stroke-miterlimit="10" stroke-width=".399" d="m59.328 205.14 2.817-2.816m-2.817 0 2.817 2.817"/><use xlink:href="#m" x="13.281" y="205.866"/><use xlink:href="#n" x="16.942" y="205.866"/><use xlink:href="#o" x="20.604" y="205.866"/><use xlink:href="#p" x="24.265" y="205.866"/><use xlink:href="#q" x="27.926" y="205.866"/><use xlink:href="#r" x="31.587" y="205.866"/><use xlink:href="#s" x="35.249" y="205.866"/><use xlink:href="#t" x="38.91" y="205.866"/><use xlink:href="#r" x="42.571" y="205.866"/><use xlink:href="#x" x="49.894" y="205.866"/><use xlink:href="#v" x="53.555" y="205.866"/><path fill="none" stroke="#000" stroke-miterlimit="10" stroke-width=".399" d="m185.586 205.14 2.816-2.816m-2.816 0 2.816 2.817"/><use xlink:href="#m" x="190.513" y="205.866"/><use xlink:href="#n" x="194.174" y="205.866"/><use xlink:href="#o" x="197.836" y="205.866"/><use xlink:href="#p" x="201.497" y="205.866"/><use xlink:href="#q" x="205.158" y="205.866"/><use xlink:href="#r" x="208.819" y="205.866"/><use xlink:href="#s" x="212.481" y="205.866"/><use xlink:href="#t" x="216.142" y="205.866"/><use xlink:href="#r" x="219.803" y="205.866"/><use xlink:href="#y" x="227.126" y="205.866"/><use xlink:href="#v" x="230.787" y="205.866"/><path fill="none" stroke="#000" stroke-miterlimit="10" stroke-width=".399" d="m224.602 85.063 2.82-2.82m-2.82 0 2.82 2.82"/><use xlink:href="#m" x="204.042" y="79.575"/><use xlink:href="#n" x="207.703" y="79.575"/><use xlink:href="#o" x="211.365" y="79.575"/><use xlink:href="#p" x="215.026" y="79.575"/><use xlink:href="#q" x="218.687" y="79.575"/><use xlink:href="#r" x="222.348" y="79.575"/><use xlink:href="#s" x="226.01" y="79.575"/><use xlink:href="#t" x="229.671" y="79.575"/><use xlink:href="#r" x="233.332" y="79.575"/><use xlink:href="#z" x="240.655" y="79.575"/><use xlink:href="#v" x="244.316" y="79.575"/><path fill="none" stroke="#000" stroke-miterlimit="10" stroke-width=".399" d="m71.383 47.953 2.816-2.816m-2.816 0 2.816 2.816"/><use xlink:href="#m" x="54.486" y="42.469"/><use xlink:href="#n" x="58.147" y="42.469"/><use xlink:href="#o" x="61.809" y="42.469"/><use xlink:href="#n" x="65.47" y="42.469"/><use xlink:href="#A" x="69.131" y="42.469"/><use xlink:href="#B" x="72.792" y="42.469"/><use xlink:href="#t" x="76.454" y="42.469"/><use xlink:href="#u" x="83.769" y="42.469"/><use xlink:href="#v" x="87.43" y="42.469"/><path fill="none" stroke="#000" stroke-miterlimit="10" stroke-width=".399" d="m39.816 145.102 2.82-2.817m-2.82 0 2.82 2.817"/><use xlink:href="#m" x="1.095" y="145.827"/><use xlink:href="#n" x="4.756" y="145.827"/><use xlink:href="#o" x="8.418" y="145.827"/><use xlink:href="#n" x="12.079" y="145.827"/><use xlink:href="#A" x="15.74" y="145.827"/><use xlink:href="#B" x="19.401" y="145.827"/><use xlink:href="#t" x="23.063" y="145.827"/><use xlink:href="#w" x="30.385" y="145.827"/><use xlink:href="#v" x="34.046" y="145.827"/><path fill="none" stroke="#000" stroke-miterlimit="10" stroke-width=".399" d="m122.457 205.14 2.816-2.816m-2.816 0 2.816 2.817"/><use xlink:href="#m" x="105.558" y="212.078"/><use xlink:href="#n" x="109.219" y="212.078"/><use xlink:href="#o" x="112.881" y="212.078"/><use xlink:href="#n" x="116.542" y="212.078"/><use xlink:href="#A" x="120.203" y="212.078"/><use xlink:href="#B" x="123.864" y="212.078"/><use xlink:href="#t" x="127.526" y="212.078"/><use xlink:href="#x" x="134.848" y="212.078"/><use xlink:href="#v" x="138.509" y="212.078"/><path fill="none" stroke="#000" stroke-miterlimit="10" stroke-width=".399" d="m205.094 145.102 2.816-2.817m-2.816 0 2.816 2.817"/><use xlink:href="#m" x="210.021" y="145.827"/><use xlink:href="#n" x="213.682" y="145.827"/><use xlink:href="#o" x="217.344" y="145.827"/><use xlink:href="#n" x="221.005" y="145.827"/><use xlink:href="#A" x="224.666" y="145.827"/><use xlink:href="#B" x="228.327" y="145.827"/><use xlink:href="#t" x="231.989" y="145.827"/><use xlink:href="#y" x="239.311" y="145.827"/><use xlink:href="#v" x="242.972" y="145.827"/><path fill="none" stroke="#000" stroke-miterlimit="10" stroke-width=".399" d="m173.531 47.953 2.817-2.816m-2.817 0 2.817 2.816"/><use xlink:href="#m" x="156.631" y="42.469"/><use xlink:href="#n" x="160.292" y="42.469"/><use xlink:href="#o" x="163.954" y="42.469"/><use xlink:href="#n" x="167.615" y="42.469"/><use xlink:href="#A" x="171.276" y="42.469"/><use xlink:href="#B" x="174.937" y="42.469"/><use xlink:href="#t" x="178.599" y="42.469"/><use xlink:href="#z" x="185.921" y="42.469"/><use xlink:href="#v" x="189.582" y="42.469"/><path fill="none" stroke="#000" stroke-miterlimit="10" stroke-width=".399" d="m122.457 118.25 2.816-2.816m-2.816 0 2.816 2.816"/><use xlink:href="#m" x="105.558" y="112.765"/><use xlink:href="#n" x="109.219" y="112.765"/><use xlink:href="#o" x="112.881" y="112.765"/><use xlink:href="#p" x="116.542" y="112.765"/><use xlink:href="#t" x="120.203" y="112.765"/><use xlink:href="#s" x="123.864" y="112.765"/><use xlink:href="#C" x="127.526" y="112.765"/><use xlink:href="#t" x="131.187" y="112.765"/><use xlink:href="#r" x="134.848" y="112.765"/><use xlink:href="#v" x="138.509" y="112.765"/><path fill="none" stroke="#000" stroke-miterlimit="10" stroke-width=".399" d="m80.2 145.598 2.816-2.82m-2.817 0 2.817 2.82"/><use xlink:href="#m" x="48.798" y="146.321"/><use xlink:href="#n" x="52.459" y="146.321"/><use xlink:href="#o" x="56.121" y="146.321"/><use xlink:href="#C" x="59.782" y="146.321"/><use xlink:href="#t" x="63.443" y="146.321"/><use xlink:href="#D" x="67.104" y="146.321"/><use xlink:href="#C" x="70.766" y="146.321"/><use xlink:href="#v" x="74.427" y="146.321"/><path fill="none" stroke="#000" stroke-miterlimit="10" stroke-width=".399" d="m122.457 143.387 2.816-2.82m-2.816 0 2.816 2.82"/><use xlink:href="#m" x="127.384" y="144.11"/><use xlink:href="#n" x="131.045" y="144.11"/><use xlink:href="#o" x="134.707" y="144.11"/><use xlink:href="#E" x="138.368" y="144.11"/><use xlink:href="#A" x="142.029" y="144.11"/><use xlink:href="#B" x="145.69" y="144.11"/><use xlink:href="#v" x="149.352" y="144.11"/><path fill="none" stroke="#000" stroke-miterlimit="10" stroke-width=".399" d="m122.457 145.598 2.816-2.82m-2.816 0 2.816 2.82"/><use xlink:href="#m" x="109.22" y="152.533"/><use xlink:href="#n" x="112.881" y="152.533"/><use xlink:href="#o" x="116.543" y="152.533"/><use xlink:href="#F" x="120.204" y="152.533"/><use xlink:href="#G" x="123.865" y="152.533"/><use xlink:href="#n" x="127.526" y="152.533"/><use xlink:href="#t" x="131.188" y="152.533"/><use xlink:href="#v" x="134.849" y="152.533"/><path fill="none" stroke="#000" stroke-miterlimit="10" stroke-width=".399" d="m146.547 28.344 2.82-2.817m-2.82 0 2.82 2.817"/><use xlink:href="#m" x="136.973" y="22.859"/><use xlink:href="#n" x="140.634" y="22.859"/><use xlink:href="#o" x="144.296" y="22.859"/><use xlink:href="#H" x="147.957" y="22.859"/><use xlink:href="#z" x="151.618" y="22.859"/><use xlink:href="#v" x="155.279" y="22.859"/><path fill="none" stroke="#000" stroke-miterlimit="10" stroke-width=".399" d="m31.094 118.25 2.816-2.816m-2.816 0 2.816 2.816"/><use xlink:href="#m" x="17.858" y="112.764"/><use xlink:href="#n" x="21.519" y="112.764"/><use xlink:href="#o" x="25.181" y="112.764"/><use xlink:href="#I" x="28.842" y="112.764"/><use xlink:href="#t" x="32.503" y="112.764"/><use xlink:href="#n" x="36.164" y="112.764"/><use xlink:href="#C" x="39.826" y="112.764"/><use xlink:href="#v" x="43.487" y="112.764"/><path fill="none" stroke="#000" stroke-miterlimit="10" stroke-width=".399" d="m213.82 118.25 2.817-2.816m-2.817 0 2.817 2.816"/><use xlink:href="#m" x="200.582" y="112.764"/><use xlink:href="#n" x="204.243" y="112.764"/><use xlink:href="#o" x="207.905" y="112.764"/><use xlink:href="#t" x="211.566" y="112.764"/><use xlink:href="#G" x="215.227" y="112.764"/><use xlink:href="#n" x="218.888" y="112.764"/><use xlink:href="#C" x="222.55" y="112.764"/><use xlink:href="#v" x="226.211" y="112.764"/><path fill="none" stroke="#000" stroke-miterlimit="10" stroke-width=".399" d="m122.46 10.836 2.817-2.82m-2.816 0 2.816 2.82"/><use xlink:href="#m" x="107.393" y="17.774"/><use xlink:href="#n" x="111.054" y="17.774"/><use xlink:href="#o" x="114.716" y="17.774"/><use xlink:href="#s" x="118.377" y="17.774"/><use xlink:href="#q" x="122.038" y="17.774"/><use xlink:href="#r" x="125.699" y="17.774"/><use xlink:href="#C" x="129.361" y="17.774"/><use xlink:href="#J" x="133.022" y="17.774"/><use xlink:href="#v" x="136.683" y="17.774"/><path fill="none" stroke="#000" stroke-miterlimit="10" stroke-width=".399" d="m122.465 205.152 2.816-2.816m-2.816 0 2.816 2.816"/><use xlink:href="#m" x="107.397" y="199.666"/><use xlink:href="#n" x="111.058" y="199.666"/><use xlink:href="#o" x="114.72" y="199.666"/><use xlink:href="#n" x="118.381" y="199.666"/><use xlink:href="#q" x="122.042" y="199.666"/><use xlink:href="#K" x="125.703" y="199.666"/><use xlink:href="#C" x="129.365" y="199.666"/><use xlink:href="#J" x="133.026" y="199.666"/><use xlink:href="#v" x="136.687" y="199.666"/><path fill="none" stroke="#000" stroke-miterlimit="10" stroke-width=".399" d="m184.672 56.035 2.82-2.816m-2.82 0 2.82 2.816"/><use xlink:href="#m" x="160.451" y="62.974"/><use xlink:href="#n" x="164.112" y="62.974"/><use xlink:href="#o" x="167.774" y="62.974"/><use xlink:href="#s" x="171.435" y="62.974"/><use xlink:href="#q" x="175.096" y="62.974"/><use xlink:href="#r" x="178.757" y="62.974"/><use xlink:href="#C" x="182.419" y="62.974"/><use xlink:href="#J" x="186.08" y="62.974"/><use xlink:href="#t" x="193.402" y="62.974"/><use xlink:href="#G" x="197.064" y="62.974"/><use xlink:href="#n" x="200.725" y="62.974"/><use xlink:href="#C" x="204.386" y="62.974"/><use xlink:href="#v" x="208.048" y="62.974"/><path fill="none" stroke="#000" stroke-miterlimit="10" stroke-width=".399" d="m191.426 187.215 2.82-2.82m-2.82 0 2.82 2.82"/><use xlink:href="#m" x="167.206" y="181.726"/><use xlink:href="#n" x="170.867" y="181.726"/><use xlink:href="#o" x="174.529" y="181.726"/><use xlink:href="#n" x="178.19" y="181.726"/><use xlink:href="#q" x="181.851" y="181.726"/><use xlink:href="#K" x="185.512" y="181.726"/><use xlink:href="#C" x="189.174" y="181.726"/><use xlink:href="#J" x="192.835" y="181.726"/><use xlink:href="#t" x="200.157" y="181.726"/><use xlink:href="#G" x="203.819" y="181.726"/><use xlink:href="#n" x="207.48" y="181.726"/><use xlink:href="#C" x="211.141" y="181.726"/><use xlink:href="#v" x="214.803" y="181.726"/><path fill="none" stroke="#000" stroke-miterlimit="10" stroke-width=".399" d="m60.246 56.035 2.82-2.816m-2.82 0 2.82 2.816"/><use xlink:href="#m" x="36.027" y="62.973"/><use xlink:href="#n" x="39.688" y="62.973"/><use xlink:href="#o" x="43.35" y="62.973"/><use xlink:href="#s" x="47.011" y="62.973"/><use xlink:href="#q" x="50.672" y="62.973"/><use xlink:href="#r" x="54.333" y="62.973"/><use xlink:href="#C" x="57.995" y="62.973"/><use xlink:href="#J" x="61.656" y="62.973"/><use xlink:href="#I" x="68.978" y="62.973"/><use xlink:href="#t" x="72.64" y="62.973"/><use xlink:href="#n" x="76.301" y="62.973"/><use xlink:href="#C" x="79.962" y="62.973"/><use xlink:href="#v" x="83.624" y="62.973"/><path fill="none" stroke="#000" stroke-miterlimit="10" stroke-width=".399" d="m53.496 187.215 2.816-2.82m-2.816 0 2.816 2.82"/><use xlink:href="#m" x="29.276" y="181.726"/><use xlink:href="#n" x="32.937" y="181.726"/><use xlink:href="#o" x="36.599" y="181.726"/><use xlink:href="#n" x="40.26" y="181.726"/><use xlink:href="#q" x="43.921" y="181.726"/><use xlink:href="#K" x="47.582" y="181.726"/><use xlink:href="#C" x="51.244" y="181.726"/><use xlink:href="#J" x="54.905" y="181.726"/><use xlink:href="#I" x="62.227" y="181.726"/><use xlink:href="#t" x="65.889" y="181.726"/><use xlink:href="#n" x="69.55" y="181.726"/><use xlink:href="#C" x="73.211" y="181.726"/><use xlink:href="#v" x="76.873" y="181.726"/></svg>