<svg xmlns="http://www.w3.org/2000/svg" xmlns:xlink="http://www.w3.org/1999/xlink" width="59.112" height="53.588"><defs><path id="b" d="m7.547-4.328-.203-2.406H.625L.422-4.328H.89c.093-1.125.187-1.938 1.625-1.938h.765v5.797H1.75V0c.547-.031 1.656-.031 2.234-.031.594 0 1.704 0 2.235.031v-.469H4.687v-5.797h.766c1.422 0 1.531.797 1.625 1.938Zm0 0"/><path id="c" d="M5.516-.234c0-.235-.125-.235-.266-.235-.61-.015-.61-.14-.61-.375v-2.14c0-.891-.702-1.532-2.187-1.532-.562 0-1.781.047-1.781.922 0 .438.344.625.61.625.312 0 .624-.219.624-.625 0-.297-.187-.469-.218-.5a5 5 0 0 1 .718-.062c.75 0 1.11.422 1.11 1.172v.343c-.72.032-3.25.125-3.25 1.563C.266-.125 1.5.062 2.188.062c.796 0 1.265-.406 1.484-.828 0 .313 0 .766 1.047.766h.468c.204 0 .329 0 .329-.234m-2-1.157c0 .97-.922 1.094-1.172 1.094-.516 0-.906-.344-.906-.797 0-1.062 1.578-1.203 2.078-1.234Zm0 0"/><path id="d" d="M5.984-2.219c0-1.328-.906-2.265-2.343-2.265-.75 0-1.282.312-1.5.484v-.484l-1.766.078v.468c.61 0 .688 0 .688.376v5.03H.375v.47l1.25-.032 1.25.032v-.47h-.687V-.39a2 2 0 0 0 1.28.454c1.5 0 2.516-.907 2.516-2.282m-1.28 0C4.703-.813 4-.297 3.358-.297c-.14 0-.609 0-1.062-.547-.11-.125-.11-.14-.11-.328v-2.11c0-.187.016-.202.157-.343.39-.406.922-.469 1.14-.469.657 0 1.22.61 1.22 1.875m0 0"/><path id="e" d="M4.922-1.172c0-.172-.188-.172-.234-.172-.172 0-.188.047-.25.203-.204.485-.782.797-1.422.797-1.407 0-1.422-1.328-1.422-1.828h3.015c.22 0 .313 0 .313-.265 0-.313-.063-1.047-.563-1.547-.359-.36-.89-.532-1.578-.532C1.187-4.516.313-3.484.313-2.25c0 1.344 1 2.313 2.609 2.313 1.578 0 2-1.063 2-1.235M3.984-2.5h-2.39c.015-.39.031-.812.234-1.14.266-.391.672-.516.953-.516 1.172 0 1.188 1.312 1.203 1.656m0 0"/><path id="g" d="M2.844 0v-.469h-.61v-4.015L.5-4.406v.468c.594 0 .656 0 .656.391v3.078H.47V0l1.219-.031Zm-.469-6.047a.774.774 0 0 0-.781-.781.784.784 0 0 0-.782.781c0 .422.36.766.782.766a.77.77 0 0 0 .781-.766m0 0"/><path id="h" d="M6.125 0v-.469h-.687v-2.578c0-1.047-.532-1.437-1.532-1.437-.953 0-1.484.562-1.75 1.078v-1.078l-1.703.078v.468c.61 0 .688 0 .688.391v3.078H.453V0l1.25-.031L2.953 0v-.469h-.687v-2.078c0-1.094.859-1.578 1.5-1.578.328 0 .547.203.547.969V-.47h-.688V0l1.25-.031Zm0 0"/><path id="i" d="M5.984 0v-.469c-.609 0-.687 0-.687-.39v-6.063l-1.766.078v.469c.625 0 .703 0 .703.39v1.954a2.18 2.18 0 0 0-1.359-.453c-1.453 0-2.5.875-2.5 2.28 0 1.313.922 2.267 2.39 2.267.61 0 1.094-.235 1.407-.485v.485ZM4.172-1.031c-.14.187-.547.734-1.297.734-1.219 0-1.219-1.203-1.219-1.906 0-.485 0-1.016.25-1.406.297-.422.766-.516 1.078-.516.563 0 .97.313 1.188.61Zm0 0"/><path id="j" d="M5.406-2.172c0-1.344-.922-2.344-2.547-2.344C1.22-4.516.313-3.5.313-2.172c0 1.235.89 2.235 2.546 2.235 1.672 0 2.547-1.016 2.547-2.235m-1.281-.11c0 .86 0 1.938-1.266 1.938-1.265 0-1.265-1.078-1.265-1.937 0-.453 0-.953.172-1.297.187-.375.609-.578 1.093-.578.422 0 .844.156 1.063.5.203.344.203.89.203 1.375m0 0"/><path id="k" d="M6.125 0v-.469c-.61 0-.687 0-.687-.39v-3.625l-1.813.078v.468c.61 0 .688 0 .688.391v1.906c0 .813-.516 1.344-1.235 1.344-.781 0-.812-.25-.812-.797v-3.39l-1.813.078v.468c.61 0 .688 0 .688.391v2.328c0 1.063.797 1.282 1.797 1.282.25 0 .968 0 1.421-.782v.782Zm0 0"/><path id="l" d="M3.813-1.234v-.532h-.47v.516c0 .672-.327.906-.609.906-.578 0-.578-.64-.578-.86v-2.75h1.469v-.468H2.156v-1.906h-.469c0 1-.484 1.984-1.484 2.016v.359h.828v2.734c0 1.063.86 1.282 1.578 1.282.75 0 1.204-.579 1.204-1.297m0 0"/><path id="n" d="M-2.844-.016v.47h.61l-.016 4.015 1.734-.063v-.468c-.593 0-.656 0-.656-.391l.016-3.078h.687V0l-1.219.031Zm.438 6.047c0 .438.344.782.781.797a.784.784 0 0 0 .781-.781.78.78 0 0 0-.781-.766.75.75 0 0 0-.781.75m0 0"/><path id="o" d="M-6.125-.031v.469h.688l-.016 2.578c0 1.047.531 1.453 1.531 1.453.953 0 1.485-.563 1.75-1.078v1.078l1.703-.063v-.468c-.61 0-.687 0-.687-.391l.015-3.078h.688V0l-1.25.031-1.25-.047v.47h.687L-2.28 2.53c0 1.094-.86 1.578-1.5 1.578-.328 0-.547-.203-.547-.968l.016-2.688h.687v-.469l-1.25.032Zm0 0"/><path id="p" d="M-5.516.203c0 .235.125.235.266.235.61.03.61.156.61.39l-.016 2.14c0 .891.703 1.532 2.187 1.532.563 0 1.781-.031 1.781-.906a.6.6 0 0 0-.609-.625c-.312 0-.625.203-.625.61 0 .296.188.468.219.515-.281.031-.61.047-.719.047-.75 0-1.11-.422-1.11-1.172v-.344c.72-.031 3.25-.11 3.266-1.547 0-.953-1.234-1.14-1.921-1.156-.797 0-1.266.406-1.485.828 0-.312 0-.766-1.047-.766l-.468-.015c-.204 0-.329 0-.329.234m2 1.172c0-.969.922-1.094 1.172-1.094.516 0 .906.36.906.813C-1.452 2.156-3.03 2.28-3.53 2.313Zm0 0"/><path id="q" d="M-5.984-.031v.469c.609 0 .687 0 .687.39l-.031 6.063 1.766-.063V6.36c-.626 0-.704 0-.704-.39l.016-1.953c.5.39 1.031.453 1.36.453 1.453.015 2.5-.86 2.5-2.266C-.376.891-1.298-.062-2.767-.078c-.609 0-1.093.234-1.406.484v-.484Zm1.812 1.047c.14-.188.547-.735 1.297-.735C-1.656.297-1.656 1.5-1.672 2.203c0 .485 0 1.016-.25 1.39-.297.423-.766.516-1.078.516-.562 0-.969-.312-1.187-.609Zm0 0"/><path id="r" d="M-5.422 2.14c0 1.344.922 2.36 2.547 2.36 1.64.016 2.547-1 2.547-2.328C-.312.937-1.203-.062-2.86-.078c-1.672 0-2.547 1-2.563 2.219m1.281.126c.016-.86.016-1.938 1.282-1.938 1.265.016 1.265 1.094 1.25 1.953 0 .453 0 .953-.172 1.281-.188.376-.61.579-1.094.579-.422 0-.844-.157-1.062-.5-.204-.344-.204-.891-.204-1.375m0 0"/><path id="s" d="M-6.125-.031v.469c.61 0 .688 0 .688.39l-.016 3.625 1.812-.062v-.47c-.609 0-.687 0-.687-.39l.016-1.906c0-.812.515-1.344 1.234-1.344.781 0 .812.25.812.797l-.015 3.39 1.812-.062v-.468c-.61 0-.687 0-.687-.391l.015-2.328c0-1.063-.796-1.297-1.796-1.297-.25 0-.97 0-1.422.781v-.781Zm0 0"/><path id="t" d="m-3.812 1.219-.016.531h.469l.015-.516c0-.671.328-.906.61-.906.578 0 .578.64.578.86l-.016 2.75H-3.64v.468h1.47l-.017 1.907.47.015c0-1 .5-1.984 1.5-2.016v-.359h-.829l.016-2.734c0-1.063-.86-1.297-1.578-1.297-.75 0-1.203.578-1.203 1.297m0 0"/><clipPath id="a"><path d="M0 8h58.668v37H0Zm0 0"/></clipPath><clipPath id="f"><path d="M0 5h58.668v13H0Zm0 0"/></clipPath><clipPath id="m"><path d="M0 36h58.668v12H0Zm0 0"/></clipPath></defs><g clip-path="url(#a)"><path fill="none" stroke="#7F7F7F" stroke-miterlimit="10" stroke-width=".399" d="M.766 26.57V16.43c7.828 3.32 20.52 3.32 28.347 0s20.52-3.32 28.344 0v20.28c-7.824-3.32-20.516-3.32-28.344 0-7.828 3.321-20.52 3.321-28.347 0Zm0 0"/></g><use xlink:href="#b" x="16.853" y="28.966" fill="#7F7F7F"/><g fill="#7F7F7F"><use xlink:href="#c" x="23.867" y="28.966"/><use xlink:href="#d" x="29.436" y="28.966"/></g><use xlink:href="#e" x="36.121" y="28.966" fill="#7F7F7F"/><g clip-path="url(#f)"><path fill="none" stroke="#00F" stroke-miterlimit="10" stroke-width=".399" d="m.566 11.148 55.098.25"/></g><path fill="#00F" d="m57.656 11.406-3.18-1.605 1.188 1.597-1.2 1.59"/><use xlink:href="#g" x="3.1" y="7.699"/><use xlink:href="#h" x="6.278" y="7.699"/><use xlink:href="#c" x="16.46" y="7.699"/><use xlink:href="#h" x="22.029" y="7.699"/><use xlink:href="#i" x="28.395" y="7.699"/><use xlink:href="#j" x="38.577" y="7.699"/><use xlink:href="#k" x="44.305" y="7.699"/><use xlink:href="#l" x="50.672" y="7.699"/><g clip-path="url(#m)"><path fill="none" stroke="#00F" stroke-miterlimit="10" stroke-width=".399" d="m57.656 41.992-55.097-.25"/></g><path fill="#00F" d="m.566 41.73 3.18 1.61-1.187-1.598 1.203-1.59"/><use xlink:href="#n" x="55.107" y="45.56"/><use xlink:href="#o" x="51.929" y="45.546"/><use xlink:href="#p" x="41.748" y="45.499"/><use xlink:href="#o" x="36.179" y="45.474"/><use xlink:href="#q" x="29.813" y="45.445"/><use xlink:href="#r" x="19.632" y="45.399"/><use xlink:href="#s" x="13.904" y="45.373"/><use xlink:href="#t" x="7.538" y="45.344"/></svg>