<svg xmlns="http://www.w3.org/2000/svg" width="111.031" height="111.026"><defs><clipPath id="a"><path d="M94 44h16.547v22H94Zm0 0"/></clipPath><clipPath id="b"><path d="M44 94h22v16.54H44Zm0 0"/></clipPath></defs><path fill="none" stroke="#000" stroke-miterlimit="10" stroke-width=".399" d="M59.73 33.773a4.695 4.695 0 0 0-4.695-4.695 4.695 4.695 0 0 0-4.695 4.695 4.695 4.695 0 0 0 4.695 4.696 4.695 4.695 0 0 0 4.695-4.696ZM74.766 40a4.698 4.698 0 0 0-9.395 0 4.698 4.698 0 0 0 9.395 0ZM80.992 55.031a4.698 4.698 0 1 0-9.393.005 4.698 4.698 0 0 0 9.393-.005ZM74.766 70.066a4.698 4.698 0 0 0-9.395 0 4.698 4.698 0 0 0 9.395 0ZM59.73 76.293a4.695 4.695 0 0 0-4.695-4.695 4.695 4.695 0 0 0-4.695 4.695 4.695 4.695 0 0 0 4.695 4.695 4.695 4.695 0 0 0 4.695-4.695ZM44.7 70.066a4.698 4.698 0 0 0-9.395 0 4.698 4.698 0 0 0 9.394 0ZM38.473 55.031a4.697 4.697 0 1 0-9.394.004 4.697 4.697 0 0 0 9.394-.004ZM44.7 40a4.698 4.698 0 0 0-9.395 0 4.698 4.698 0 0 0 9.394 0ZM59.559 35.645l5.988 2.48M71.941 44.523l2.48 5.989M74.422 59.555l-2.48 5.988M65.547 71.941l-5.988 2.477M50.512 74.418l-5.989-2.477M38.129 65.543l-2.48-5.988M35.648 50.512l2.48-5.989M44.523 38.125l5.989-2.48M59.73 5.426A4.695 4.695 0 0 0 55.035.73a4.695 4.695 0 0 0-4.695 4.696 4.695 4.695 0 0 0 4.695 4.695 4.695 4.695 0 0 0 4.695-4.695ZM94.809 19.957c0-2.594-2.102-4.7-4.696-4.7a4.698 4.698 0 0 0 0 9.395 4.695 4.695 0 0 0 4.696-4.695Zm0 0"/><g clip-path="url(#a)"><path fill="none" stroke="#000" stroke-miterlimit="10" stroke-width=".399" d="M109.34 55.031a4.698 4.698 0 1 0-9.396.005 4.698 4.698 0 0 0 9.396-.005Zm0 0"/></g><path fill="none" stroke="#000" stroke-miterlimit="10" stroke-width=".399" d="M94.809 90.11a4.695 4.695 0 0 0-4.696-4.696 4.698 4.698 0 0 0 0 9.395 4.7 4.7 0 0 0 4.696-4.7Zm0 0"/><g clip-path="url(#b)"><path fill="none" stroke="#000" stroke-miterlimit="10" stroke-width=".399" d="M59.73 104.64a4.695 4.695 0 0 0-4.695-4.695 4.695 4.695 0 0 0-4.695 4.696 4.695 4.695 0 0 0 4.695 4.695 4.695 4.695 0 0 0 4.695-4.695Zm0 0"/></g><path fill="none" stroke="#000" stroke-miterlimit="10" stroke-width=".399" d="M24.656 90.11a4.698 4.698 0 1 0-9.396.005 4.698 4.698 0 0 0 9.396-.006ZM10.125 55.031a4.698 4.698 0 1 0-9.393.005 4.698 4.698 0 0 0 9.393-.005ZM24.656 19.957a4.698 4.698 0 1 0-9.393-.003 4.698 4.698 0 0 0 9.393.003ZM59.559 7.3l26.03 10.782M91.984 24.477l10.786 26.035M102.77 59.555l-10.786 26.03M85.59 91.984l-26.031 10.782M50.512 102.766 24.48 91.984M18.086 85.586 7.3 59.555M7.3 50.512l10.786-26.035M24.48 18.082 50.512 7.301M55.035 27.484v-15.77"/><path fill="none" stroke="#000" stroke-linecap="round" stroke-linejoin="round" stroke-miterlimit="10" stroke-width=".399" d="M57.426 25.61c-1.434.378-2.114 1.222-2.39 2.074-.278-.852-.958-1.696-2.391-2.075M52.645 13.59c1.433-.38 2.113-1.223 2.39-2.074.278.851.957 1.695 2.39 2.074"/><path fill="none" stroke="#000" stroke-miterlimit="10" stroke-width=".399" d="m74.516 35.55 11.148-11.148"/><path fill="none" stroke="#000" stroke-linecap="round" stroke-linejoin="round" stroke-miterlimit="10" stroke-width=".39899601" d="M77.531 35.918c-1.281-.746-2.355-.629-3.156-.227.406-.796.523-1.87-.227-3.156M82.648 24.04c1.286.745 2.36.628 3.157.222-.403.8-.52 1.875.226 3.156"/><path fill="none" stroke="#000" stroke-miterlimit="10" stroke-width=".399" d="M82.586 55.031h15.766"/><path fill="none" stroke="#000" stroke-linecap="round" stroke-linejoin="round" stroke-miterlimit="10" stroke-width=".399" d="M84.457 57.426c-.375-1.438-1.219-2.114-2.07-2.395.851-.277 1.695-.953 2.07-2.39M96.48 52.64c.38 1.438 1.223 2.114 2.07 2.391-.847.282-1.69.957-2.07 2.395"/><path fill="none" stroke="#000" stroke-miterlimit="10" stroke-width=".399" d="m74.516 74.516 11.148 11.148"/><path fill="none" stroke="#000" stroke-linecap="round" stroke-linejoin="round" stroke-miterlimit="10" stroke-width=".39899601" d="M74.148 77.527c.75-1.28.633-2.355.227-3.152.8.402 1.875.52 3.156-.227M86.031 82.648c-.746 1.282-.629 2.356-.226 3.157-.797-.407-1.871-.524-3.157.222"/><path fill="none" stroke="#000" stroke-miterlimit="10" stroke-width=".399" d="M55.035 82.582v15.766"/><path fill="none" stroke="#000" stroke-linecap="round" stroke-linejoin="round" stroke-miterlimit="10" stroke-width=".399" d="M52.645 84.457c1.433-.379 2.113-1.223 2.39-2.074.278.851.957 1.695 2.39 2.074M57.426 96.477c-1.434.378-2.114 1.222-2.39 2.07-.278-.848-.958-1.692-2.391-2.07"/><path fill="none" stroke="#000" stroke-miterlimit="10" stroke-width=".399" d="M35.555 74.516 24.406 85.664"/><path fill="none" stroke="#000" stroke-linecap="round" stroke-linejoin="round" stroke-miterlimit="10" stroke-width=".39899601" d="M32.54 74.148c1.28.747 2.358.63 3.155.227-.402.797-.52 1.871.227 3.152M27.422 86.027c-1.281-.746-2.36-.629-3.156-.222.402-.801.52-1.875-.227-3.157"/><path fill="none" stroke="#000" stroke-miterlimit="10" stroke-width=".399" d="M27.484 55.031H11.72"/><path fill="none" stroke="#000" stroke-linecap="round" stroke-linejoin="round" stroke-miterlimit="10" stroke-width=".399" d="M25.613 52.64c.38 1.438 1.223 2.114 2.07 2.391-.847.282-1.69.957-2.07 2.395M13.594 57.426c-.38-1.438-1.223-2.114-2.074-2.395.851-.277 1.695-.953 2.074-2.39"/><path fill="none" stroke="#000" stroke-miterlimit="10" stroke-width=".399" d="M35.555 35.55 24.406 24.403"/><path fill="none" stroke="#000" stroke-linecap="round" stroke-linejoin="round" stroke-miterlimit="10" stroke-width=".39899601" d="M35.922 32.535c-.746 1.285-.629 2.36-.227 3.156-.797-.402-1.875-.52-3.156.227M24.04 27.418c.745-1.281.628-2.356.226-3.156.797.406 1.875.523 3.156-.223"/></svg>