<svg xmlns="http://www.w3.org/2000/svg" xmlns:xlink="http://www.w3.org/1999/xlink" width="115.795" height="59.114"><defs><clipPath id="e"><path d="M1 0h57v58H1Zm0 0"/></clipPath><clipPath id="f"><path d="M57.8 29.121C57.8 13.465 45.11.773 29.454.773 13.797.773 1.105 13.465 1.105 29.121S13.797 57.47 29.453 57.47 57.801 44.777 57.801 29.12m0 0"/></clipPath><clipPath id="a"><path d="M0 0h9v9H0z"/></clipPath><clipPath id="h"><path d="M0 0h64v58.672H0Zm0 0"/></clipPath><clipPath id="i"><path d="M29.453.773h85.04v28.348h-85.04Zm0 0"/></clipPath><clipPath id="c"><path d="M0 0h9v9H0z"/></clipPath><pattern id="g" width="9" height="9" x="0" y="0" patternTransform="matrix(.9449 0 0 -.9449 -143.094 13608.575)" patternUnits="userSpaceOnUse"><use xlink:href="#b"/></pattern><pattern id="j" width="9" height="9" x="0" y="0" patternTransform="matrix(.9449 0 0 -.9449 -143.094 13608.575)" patternUnits="userSpaceOnUse"><use xlink:href="#d"/></pattern><g id="b" clip-path="url(#a)"><path fill="red" d="M5.852 3.926H.148L4.762.574 3 6 1.238.574Zm0 0"/></g><g id="d" clip-path="url(#c)"><path fill="#00F" d="M5.852 3.926H.148L4.762.574 3 6 1.238.574Zm0 0"/></g></defs><g clip-path="url(#e)"><g clip-path="url(#f)"><path fill="url(#g)" d="M1.105 57.469h56.696V.773H1.105Zm0 0"/></g></g><g clip-path="url(#h)"><path fill="none" stroke="#000" stroke-miterlimit="10" stroke-width=".399" d="M57.8 29.121C57.8 13.465 45.11.773 29.454.773 13.797.773 1.105 13.465 1.105 29.121S13.797 57.47 29.453 57.47 57.801 44.777 57.801 29.12Zm0 0"/></g><g clip-path="url(#i)"><path fill="url(#j)" d="M29.453 29.121h85.04V.773h-85.04Zm0 0"/></g><path fill="none" stroke="#000" stroke-miterlimit="10" stroke-width=".399" d="M29.453 29.121V.773h85.04v28.348Zm0 0"/></svg>