<svg xmlns="http://www.w3.org/2000/svg" width="21.951" height="6.914"><defs><clipPath id="a"><path d="M0 0h21.926v6.871H0Zm0 0"/></clipPath><clipPath id="b"><path d="M3 0h18.926v6.871H3Zm0 0"/></clipPath></defs><path fill="none" stroke="#000" stroke-miterlimit="10" stroke-width=".797" d="M.984 3.418h6.059"/><path d="M11.574 3.418c-.554-.137-3.004-.918-4.531-1.77v3.543C8.57 4.34 11.02 3.56 11.574 3.418m0 0"/><g clip-path="url(#a)"><path fill="none" stroke="#000" stroke-miterlimit="10" stroke-width=".797" d="M11.574 3.418c-.554-.137-3.004-.918-4.531-1.77v3.543C8.57 4.34 11.02 3.56 11.574 3.418Zm0 0"/></g><path d="M19.266 3.418c-.555-.137-3.004-.918-4.532-1.77v3.543c1.528-.851 3.977-1.632 4.532-1.773m0 0"/><g clip-path="url(#b)"><path fill="none" stroke="#000" stroke-miterlimit="10" stroke-width=".797" d="M19.266 3.418c-.555-.137-3.004-.918-4.532-1.77v3.543c1.528-.851 3.977-1.632 4.532-1.773Zm0 0"/></g></svg>