<?xml version="1.0" encoding="UTF-8"?>
<svg xmlns="http://www.w3.org/2000/svg" xmlns:xlink="http://www.w3.org/1999/xlink" width="87.058pt" height="87.05pt" viewBox="0 0 87.058 87.05" version="1.2">
<g id="surface1">
<path style="fill:none;stroke-width:0.19925;stroke-linecap:butt;stroke-linejoin:miter;stroke:rgb(50%,50%,50%);stroke-opacity:1;stroke-miterlimit:10;" d="M -39.686906 -28.348531 L 39.684188 -28.348531 M -39.686906 -14.17275 L 39.684188 -14.17275 M -39.686906 -0.000875 L 39.684188 -0.000875 M -39.686906 14.174906 L 39.684188 14.174906 M -39.686906 28.346781 L 39.684188 28.346781 M -28.347062 -39.684469 L -28.347062 39.686625 M -14.175187 -39.684469 L -14.175187 39.686625 M 0.00059375 -39.684469 L 0.00059375 39.686625 M 14.172469 -39.684469 L 14.172469 39.686625 M 28.34825 -39.684469 L 28.34825 39.686625 " transform="matrix(1,0,0,-1,43.058,43.046)"/>
<path style="fill:none;stroke-width:0.3985;stroke-linecap:butt;stroke-linejoin:miter;stroke:rgb(0%,0%,0%);stroke-opacity:1;stroke-miterlimit:10;" d="M -42.518937 -0.000875 L 42.520125 -0.000875 " transform="matrix(1,0,0,-1,43.058,43.046)"/>
<path style="fill:none;stroke-width:0.3985;stroke-linecap:butt;stroke-linejoin:miter;stroke:rgb(0%,0%,0%);stroke-opacity:1;stroke-miterlimit:10;" d="M 0.00059375 -42.520406 L 0.00059375 42.518656 " transform="matrix(1,0,0,-1,43.058,43.046)"/>
<path style="fill:none;stroke-width:0.3985;stroke-linecap:butt;stroke-linejoin:miter;stroke:rgb(0%,0%,0%);stroke-opacity:1;stroke-miterlimit:10;" d="M 28.34825 -0.000875 C 28.34825 15.655375 15.656844 28.346781 0.00059375 28.346781 C -15.655656 28.346781 -28.347062 15.655375 -28.347062 -0.000875 C -28.347062 -15.657125 -15.655656 -28.348531 0.00059375 -28.348531 C 15.656844 -28.348531 28.34825 -15.657125 28.34825 -0.000875 Z M 28.34825 -0.000875 " transform="matrix(1,0,0,-1,43.058,43.046)"/>
</g>
</svg>
