<svg xmlns="http://www.w3.org/2000/svg" xmlns:xlink="http://www.w3.org/1999/xlink" width="107.93" height="68.726"><defs><path id="c" d="M3.89-2.547c0-.844-.078-1.36-.343-1.875-.344-.703-1-.875-1.438-.875-1 0-1.375.75-1.484.969C.344-3.75.328-2.953.328-2.547c0 .531.016 1.328.406 1.969.36.594.954.75 1.375.75.391 0 1.063-.125 1.47-.906.296-.578.312-1.297.312-1.813M2.11-.062c-.266 0-.813-.125-.985-.954-.094-.453-.094-1.203-.094-1.625 0-.546 0-1.109.094-1.546.172-.813.781-.891.984-.891.266 0 .829.14.985.86.094.437.094 1.046.094 1.577 0 .47 0 1.188-.094 1.641-.172.828-.719.938-.985.938m0 0"/><path id="e" d="M1.11-4.484c.109.03.421.125.765.125 1 0 1.594-.703 1.594-.828 0-.094-.047-.11-.094-.11-.016 0-.031 0-.094.031a3 3 0 0 1-1.11.22c-.468 0-.858-.11-1.108-.22-.079-.03-.094-.03-.11-.03-.094 0-.094.077-.094.234v2.328c0 .14 0 .234.125.234.063 0 .079-.031.125-.094.094-.11.391-.515 1.079-.515.437 0 .656.359.734.515.125.281.14.656.14.953s0 .735-.218 1.079c-.156.25-.485.484-.906.484A1.27 1.27 0 0 1 .734-.922c.016.016.079.016.079.016.218 0 .406-.14.406-.39a.39.39 0 0 0-.39-.407c-.157 0-.407.078-.407.422 0 .718.625 1.453 1.531 1.453 1 0 1.844-.781 1.844-1.766 0-.922-.672-1.75-1.61-1.75-.39 0-.765.125-1.078.406Zm0 0"/><path id="f" d="M2.5-5.078c0-.219-.016-.219-.234-.219-.328.313-.75.5-1.5.5v.266c.218 0 .64 0 1.109-.203v4.078c0 .297-.031.39-.781.39H.812V0c.329-.031 1.016-.031 1.376-.031s1.046 0 1.374.031v-.266h-.28c-.75 0-.782-.093-.782-.39Zm0 0"/><path id="g" d="M2.25-1.625c.125-.125.453-.39.594-.5.484-.453.953-.89.953-1.61 0-.953-.797-1.562-1.781-1.562-.97 0-1.594.719-1.594 1.438 0 .39.312.437.422.437.172 0 .422-.11.422-.422 0-.406-.407-.406-.5-.406.234-.594.765-.781 1.156-.781.734 0 1.125.625 1.125 1.297 0 .828-.578 1.437-1.531 2.39l-1 1.047C.422-.219.422-.203.422 0h3.14l.235-1.422h-.25c-.016.156-.078.547-.172.703-.047.063-.656.063-.781.063H1.172Zm0 0"/><path id="h" d="M3.14-5.156c0-.157 0-.219-.171-.219-.094 0-.11 0-.188.11L.234-1.564v.25h2.25v.672c0 .297-.015.375-.64.375h-.172V0c.672-.031.687-.031 1.14-.031.454 0 .47 0 1.141.031v-.266h-.172c-.625 0-.64-.078-.64-.375v-.671h.843v-.25h-.843Zm-.593.64v2.954H.516Zm0 0"/><path id="i" d="M1.094-2.64c0-.657.062-1.235.343-1.72.25-.406.657-.734 1.157-.734.156 0 .515.032.703.297-.36.031-.39.297-.39.375 0 .25.187.375.374.375.14 0 .375-.078.375-.39 0-.47-.36-.86-1.078-.86C1.468-5.297.344-4.25.344-2.53.344-.36 1.359.172 2.125.172c.39 0 .797-.11 1.156-.453.328-.313.594-.64.594-1.344 0-1.031-.797-1.766-1.672-1.766-.578 0-.922.36-1.11.75M2.125-.079a.88.88 0 0 1-.797-.516c-.187-.36-.203-.89-.203-1.203 0-.781.422-1.375 1.047-1.375.39 0 .64.203.781.485.172.296.172.656.172 1.062s0 .75-.156 1.047c-.219.36-.485.5-.844.5m0 0"/><path id="j" d="M2.64-2.875c.454-.219 1-.61 1-1.234 0-.766-.78-1.188-1.515-1.188-.844 0-1.531.578-1.531 1.328 0 .297.094.563.297.797.14.172.172.188.656.5C.563-2.234.344-1.656.344-1.219c0 .89.89 1.39 1.765 1.39.97 0 1.766-.671 1.766-1.515 0-.5-.266-.828-.406-.968-.125-.126-.14-.141-.828-.563m-1.234-.75c-.234-.14-.422-.375-.422-.64 0-.5.547-.829 1.125-.829.61 0 1.125.422 1.125.985 0 .453-.359.843-.828 1.078Zm.39 1.094c.032.015.938.578 1.079.656.125.078.547.328.547.813 0 .609-.656.984-1.297.984-.719 0-1.312-.484-1.312-1.14 0-.594.437-1.063.984-1.313m0 0"/><path id="d" d="M1.625-.437a.463.463 0 0 0-.453-.454.447.447 0 0 0-.438.438.44.44 0 0 0 .438.453.45.45 0 0 0 .453-.437m0 0"/><clipPath id="a"><path d="M102 29h5.895v5H102Zm0 0"/></clipPath><clipPath id="b"><path d="M97 0h10.895v11H97Zm0 0"/></clipPath></defs><path fill="none" stroke="#7F7F7F" stroke-linecap="round" stroke-miterlimit="10" stroke-width=".399" d="M14.18 59.64v-1.995M36.855 59.64v-1.995M59.531 59.64v-1.995M82.21 59.64v-1.995M104.887 59.64v-1.995M14.18 5.574V3.582M36.855 5.574V3.582M59.531 5.574V3.582M82.21 5.574V3.582M104.887 5.574V3.582M14.18 59.64h1.992M14.18 48.426h1.992M14.18 37.215h1.992M14.18 26.004h1.992M14.18 14.793h1.992M14.18 3.582h1.992M102.895 59.64h1.992M102.895 48.426h1.992M102.895 37.215h1.992M102.895 26.004h1.992M102.895 14.793h1.992M102.895 3.582h1.992"/><path fill="none" stroke="#7F7F7F" stroke-miterlimit="10" stroke-width=".399" d="M14.18 59.64h90.707M14.18 3.582h90.707M14.18 59.64V3.583M104.887 59.64V3.583"/><path fill="none" stroke="#000" stroke-miterlimit="10" stroke-width=".399" d="M14.453 59.64h3.985m-1.993-1.995v3.988M80.219 3.582h3.984M82.211 1.59v3.984M34.863 17.594h3.985m-1.993-1.992v3.988"/><g clip-path="url(#a)"><path fill="none" stroke="#000" stroke-miterlimit="10" stroke-width=".399" d="M102.895 31.61h3.984m-1.992-1.993v3.985"/></g><path fill="none" stroke="#000" stroke-miterlimit="10" stroke-width=".399" d="m12.77 61.047 2.816-2.817m-2.816 0 2.816 2.817M58.125 4.988l2.816-2.816m-2.816 0 2.816 2.816M35.445 33.02l2.82-2.82m-2.82 0 2.82 2.82"/><g clip-path="url(#b)"><path fill="none" stroke="#000" stroke-miterlimit="10" stroke-width=".399" d="m103.48 4.988 2.817-2.816m-2.817 0 2.817 2.816"/></g><use xlink:href="#c" x="12.061" y="67.431"/><use xlink:href="#c" x="31.445" y="67.431"/><use xlink:href="#d" x="35.679" y="67.431"/><use xlink:href="#e" x="38.031" y="67.431"/><use xlink:href="#f" x="57.415" y="67.431"/><use xlink:href="#f" x="76.799" y="67.431"/><use xlink:href="#d" x="81.033" y="67.431"/><use xlink:href="#e" x="83.385" y="67.431"/><use xlink:href="#g" x="102.769" y="67.431"/><use xlink:href="#c" x="7.288" y="62.207"/><use xlink:href="#c" x=".701" y="50.996"/><use xlink:href="#d" x="4.935" y="50.996"/><use xlink:href="#g" x="7.288" y="50.996"/><use xlink:href="#c" x=".701" y="39.784"/><use xlink:href="#d" x="4.935" y="39.784"/><use xlink:href="#h" x="7.288" y="39.784"/><use xlink:href="#c" x=".701" y="28.573"/><use xlink:href="#d" x="4.935" y="28.573"/><use xlink:href="#i" x="7.288" y="28.573"/><use xlink:href="#c" x=".701" y="17.361"/><use xlink:href="#d" x="4.935" y="17.361"/><use xlink:href="#j" x="7.288" y="17.361"/><use xlink:href="#f" x="7.288" y="6.15"/></svg>