<svg xmlns="http://www.w3.org/2000/svg" width="101.621" height="93.692"><defs><clipPath id="a"><path d="M43.34 35.445h56.695v56.692H43.34Zm0 0"/></clipPath></defs><path fill="none" stroke="#000" stroke-miterlimit="10" stroke-width=".399" d="M.82 28.36h2.098v-2.102H5.02v2.101h2.097v-2.101H5.02V24.16h2.097V22.06H9.22V19.96h2.097v2.098h2.102v2.101h2.098v2.098h-2.098v2.101h2.098v-2.101h2.101v2.101h2.102v-2.101h-2.102V24.16h2.102V22.06h-2.102v2.101H15.52V22.06h-2.102V19.96h-2.102v-2.102h2.102v-2.097h2.102V13.66h2.097v2.102h2.102V13.66h-2.102V11.56h2.102V9.46h2.097V7.359h2.102v2.102h2.098V7.359h-2.098V5.262h2.098V3.16h2.101V1.063h2.098V3.16h2.101v2.102h2.098v2.097h-2.098v2.102h2.098V7.359h2.102v2.102h2.097v2.098h2.102v2.101h-2.102v2.098h2.102V13.66h2.097v2.098h2.102v2.101h2.098v2.098h-2.098v2.102h-2.102v2.101h-2.097V22.06h-2.102v2.101h2.102v2.098h-2.102v2.101h2.102v-2.101h2.097v2.101h2.102v-2.101h-2.102V24.16h2.102V22.06h2.102v-2.102h2.097v2.102h2.102v2.101h2.097v2.098h-2.097v2.101h2.097v-2.101h2.102v2.101h2.098"/><path fill="none" stroke="red" stroke-miterlimit="10" stroke-width=".199" d="M58.285 14.207 40.527 7.742 34.062 25.5l17.758 6.465Zm0 0"/><g clip-path="url(#a)"><path fill="none" stroke="#000" stroke-miterlimit="10" stroke-width="1.1970079800000002" d="m-47.45 134.305 5.919-2.157-2.153-5.918 5.918-2.156 2.157 5.918 5.918-2.152-2.153-5.918-5.922 2.152-2.152-5.918L-34 116l-2.152-5.918 5.918-2.156-2.157-5.918 5.922-2.153 2.153 5.918 5.918-2.156 2.156 5.922 5.918-2.156 2.156 5.918-5.918 2.156 2.152 5.918 5.918-2.152-2.152-5.922 5.918-2.153 2.156 5.918 5.918-2.152-2.152-5.922-5.922 2.156-2.152-5.918 5.918-2.156-2.153-5.918-5.922 2.153 2.157 5.918-5.918 2.156-2.157-5.918-5.918 2.152-2.156-5.918-5.918 2.153-2.156-5.918 5.922-2.153-2.156-5.922 5.918-2.152-2.153-5.922 5.918-2.152 2.156 5.918 5.918-2.153-2.156-5.921-5.918 2.156-2.152-5.922 5.918-2.152-2.156-5.922 5.921-2.153-2.156-5.918 5.918-2.156 2.156 5.918 5.918-2.152-2.152-5.918-5.918 2.152-2.156-5.918 5.918-2.156-2.153-5.918 5.918-2.156-2.156-5.918 5.922-2.156 2.152 5.921 5.922-2.156 2.153 5.922 5.918-2.156 2.156 5.918-5.918 2.156 2.152 5.918 5.922-2.152-2.156-5.922 5.918-2.153 2.156 5.918 5.918-2.156 2.156 5.922 5.918-2.156 2.156 5.922-5.917 2.152 2.152 5.918 5.918-2.152-2.153-5.918 5.918-2.157 2.157 5.918 5.918-2.152 2.156 5.918 5.918-2.152 2.152 5.918-5.918 2.152 2.157 5.922-5.922 2.152 2.156 5.922-5.918 2.152-2.156-5.918-5.918 2.153 2.152 5.922 5.922-2.157 2.152 5.922-5.918 2.153 2.153 5.921 5.922-2.156-2.157-5.918 5.922-2.156 2.152 5.922 5.922-2.156-2.156-5.918-5.918 2.152-2.156-5.918 5.918-2.156-2.152-5.918 5.917-2.156-2.152-5.918 5.918-2.157 2.156 5.922 5.918-2.156 2.157 5.918 5.918-2.152 2.156 5.918-5.922 2.156 2.156 5.918 5.918-2.153-2.152-5.921 5.918-2.153 2.156 5.918 5.918-2.156"/></g><path fill="none" stroke="red" stroke-miterlimit="10" stroke-width=".797" d="M43.34 92.137h56.695V35.445H43.34Zm0 0"/><path fill="none" stroke="red" stroke-miterlimit="10" stroke-width=".399" d="m52.355 30.496 2.872 4.95"/></svg>