<svg xmlns="http://www.w3.org/2000/svg" xmlns:xlink="http://www.w3.org/1999/xlink" width="86.726" height="66.422"><defs><path id="a" d="M5.797-1.797c.047-1.094-.719-1.937-1.625-2.172l-1.438-.36c-.39-.109-.937-.468-.906-1.077.016-.438.328-1.032 1.313-1 .797.031 1.797.406 1.968 1.781.032.25.032.266.235.266.25.015.25-.032.25-.266l.078-1.828c.016-.188.016-.281-.172-.297-.078 0-.078.016-.187.11l-.485.421c-.547-.484-1.203-.593-1.672-.625-1.515-.062-2.281.89-2.312 1.938-.031.64.281 1.093.469 1.328.484.515.812.594 1.89.875.875.234 1.047.265 1.25.484.14.156.375.422.36.875-.016.485-.297 1.172-1.344 1.125C2.719-.25 1.203-.516 1.188-2c0-.172 0-.219-.22-.234-.234 0-.234.046-.25.28L.642-.14c0 .188 0 .282.172.282C.906.14.922.125 1 .063l.484-.438c.641.5 1.563.61 1.97.625C5.108.313 5.765-.781 5.796-1.797m0 0"/><path id="b" d="M5.64-1.437c.188-1.329-.609-2.438-2.218-2.657-1.625-.218-2.64.672-2.828 1.985C.438-.875 1.172.219 2.813.438 4.469.656 5.483-.22 5.64-1.437M4.39-1.72c-.109.86-.25 1.922-1.515 1.75-1.25-.156-1.11-1.218-1-2.078.063-.437.125-.937.344-1.265.25-.344.687-.5 1.156-.438.422.063.828.266 1 .64.156.376.078.922.016 1.391m0 0"/><path id="c" d="m8.938 2.672.14-.453-.656-.188.734-2.468c.297-.985-.094-1.532-1.078-1.829-.875-.25-1.5.079-1.89.422.093-.922-.797-1.218-1.157-1.328-.828-.25-1.5.031-2 .531l.313-1.03-1.64-.423-.141.453c.578.172.656.204.546.579L1.234-.126.578-.328l-.14.453L1.64.453l1.187.39.14-.452-.655-.188.593-1.984a1.54 1.54 0 0 1 1.89-1.094c.313.094.454.36.235 1.078L4.266.781 3.609.594l-.14.453 1.234.328 1.188.39.14-.452-.672-.204.594-1.984a1.524 1.524 0 0 1 1.875-1.094c.328.11.484.375.266 1.094l-.766 2.578-.656-.203-.14.453 1.202.328Zm0 0"/><path id="d" d="M4.875 1.297c.094-.156-.062-.25-.11-.266-.14-.078-.187-.047-.312.063-.406.328-1.078.343-1.64.031-1.235-.656-.61-1.844-.376-2.281L5.095.28c.187.094.265.14.39-.094.141-.28.454-.953.25-1.64-.14-.484-.53-.89-1.14-1.219-1.407-.75-2.657-.25-3.25.828C.704-.656 1.125.688 2.547 1.453c1.39.734 2.25 0 2.328-.156m-.172-1.61-2.11-1.14c.204-.328.407-.703.735-.89a1.21 1.21 0 0 1 1.094 0c1.031.562.422 1.718.281 2.03m0 0"/><path id="e" d="m3.61 1.734.374-.39-.343-.313-.36.375c-.453.485-.86.422-1.062.235-.422-.407.015-.875.172-1.032l1.89-1.984L5.344-.359l.328-.344L4.609-1.72l1.313-1.375-.344-.328c-.687.719-1.703 1.11-2.469.438l-.25.265.61.563L1.594-.187c-.735.78-.266 1.53.25 2.03.547.516 1.281.407 1.765-.109m0 0"/><path id="f" d="M3.984 3.11c.141-.11.032-.266 0-.297-.109-.141-.156-.126-.312-.079-.5.157-1.11-.109-1.516-.609-.875-1.094.14-1.922.531-2.234l1.891 2.343c.14.172.188.25.406.079.235-.188.782-.72.86-1.422.047-.485-.157-1.016-.578-1.547-1-1.25-2.344-1.281-3.313-.5C.906-.313.781 1.062 1.781 2.328c.985 1.219 2.078.89 2.203.781m.47-1.563-1.5-1.86c.312-.25.64-.5 1.03-.546.47-.047.813.203 1 .422.72.906-.28 1.75-.53 1.984m0 0"/><path id="g" d="m3.094 4.938.39-.25-.375-.594.797-2.469 1.719.297c.188.047.266.062.703.75l.406-.25-.515-.75-.516-.89-.406.25c.078.124.14.218.14.343-.062.031-.093.047-.156.016l-1.218-.22L4.5-.25l.219.344.406-.25-.687-1.016-.547-.953-.407.25.375.61-.718 2.28L1.203.689C.953.656.766.344.5-.062l-.39.25.53.765.5.875.391-.25c-.093-.14-.14-.344-.093-.375 0 0 .015 0 .109.016L3 1.453l-.531 1.625-.203-.328-.391.25.672 1Zm0 0"/><path id="h" d="m2.89 2.781.47-.25-.22-.406-.453.234c-.593.329-.968.141-1.093-.109-.282-.5.297-.812.484-.906L4.5.047l.703 1.297.406-.235-.703-1.296 1.688-.891-.219-.422c-.875.469-1.984.516-2.484-.36l-.313.173.39.734L1.564.328c-.938.5-.735 1.375-.391 2 .36.672 1.078.781 1.719.453m0 0"/><path id="i" d="M2.688 4.813c.218-.11.171-.22.109-.344-.266-.547-.156-.61.047-.703l1.906-.97c.797-.405 1.063-1.312.39-2.64-.25-.5-.859-1.578-1.64-1.187-.39.203-.39.593-.266.828.141.281.47.469.829.281.265-.125.343-.375.359-.422.156.219.312.516.36.61.343.672.14 1.187-.532 1.53l-.297.157c-.36-.625-1.578-2.86-2.86-2.203C.235.172.61 1.375.923 1.984c.36.704.953.938 1.422.954-.281.14-.688.343-.219 1.265l.219.422c.094.188.14.297.344.188m.14-2.297c-.86.437-1.39-.344-1.5-.563-.234-.469-.094-.969.297-1.172.953-.468 1.781.875 2.047 1.313Zm0 0"/><path id="j" d="m1.39 2.563.407-.22-.328-.593L7.14-1.328 6.234-2.86l-.406.218c.297.563.328.61-.016.797L.954.796.625.189.219.406.844 1.47Zm0 0"/><path id="k" d="M4.703 3.453c1.14-.719 1.5-2.031.64-3.422-.874-1.39-2.202-1.61-3.327-.906-1.047.64-1.422 1.922-.547 3.328.875 1.422 2.203 1.64 3.234 1M4.11 2.297c-.734.453-1.64 1.015-2.296-.063C1.14 1.172 2.047.61 2.78.156c.39-.234.813-.5 1.188-.547.422-.046.812.22 1.078.625.219.36.297.797.14 1.157-.203.359-.671.656-1.078.906m0 0"/><path id="l" d="m3.86 4.75.359-.297-.438-.531 2-1.625c.813-.656.797-1.313.172-2.094C5.343-.53 4.578-.594 4-.469l.844-.687-1.14-1.266-.36.297c.39.469.437.531.125.781L1.079.594.64.063.28.359l.828.954.75.984L2.22 2l-.438-.531L3.391.156C4.25-.53 5.17-.172 5.578.328c.203.25.188.547-.406 1.031L3.078 3.047l-.437-.531-.36.297.828.953Zm0 0"/><path id="m" d="M6.781.672C6.938.5 7.047.14 6.703-.156c-.125-.11-.5-.39-1.047-.422-.062-.203-.234-.64-.781-1.125-1.094-.938-2.016-.703-2.469-.188-.265.297-.406.75-.297 1.11-.453.094-.718.297-.859.453-.094.125-.375.516-.297 1C.843.609.156.297-.266.766c-.328.375-.39 1.312 1.11 2.609 1.328 1.172 2.297 1.266 2.765.734.188-.234.547-.765.25-1.453-.234-.594-.671-.984-1.39-1.61-.203-.171-.547-.468-.563-.515-.312-.343-.14-.703-.015-.843.062-.063.187-.157.297-.172.187.484.546.843.734 1 1.078.953 2 .734 2.469.203.312-.36.343-.781.328-.985.328.063.5.188.593.266a.4.4 0 0 0-.171.11c-.157.203-.141.437.062.609.188.172.438.14.578-.047M4.563-.016c-.297.329-.735.844-1.391.266s-.219-1.094.078-1.422c.281-.328.734-.844 1.39-.266.657.579.204 1.094-.077 1.422M2.922 3.547c-.235.265-.875.422-1.844-.438-.89-.78-.984-1.453-.687-1.796.406-.454.89-.032.984.062l.89.766c.235.203 1.079.937.657 1.406m0 0"/><path id="n" d="M5.11 2.063c.093-.204-.016-.25-.141-.313-.547-.266-.5-.375-.407-.594l.891-1.953c.375-.812 0-1.672-1.344-2.297-.515-.234-1.64-.687-2.015.11-.172.39.062.703.312.812.281.125.656.063.813-.297a.7.7 0 0 0 .015-.547c.282.063.579.188.672.235.688.312.844.844.531 1.515l-.14.313C3.625-1.22 1.28-2.172.687-.875.282 0 1.329.688 1.954.969c.734.328 1.328.156 1.703-.14-.125.296-.312.702.64 1.124l.423.203c.187.078.297.125.39-.094M3.78.187c-.406.876-1.297.626-1.531.516C1.781.5 1.578.016 1.766-.407c.437-.968 1.937-.437 2.406-.265Zm0 0"/><path id="o" d="M6.297-1.047c.25-1.312-.469-2.406-1.875-2.672-.734-.14-1.328.063-1.563.203L2.953-4l-1.75-.25-.078.469c.594.11.672.125.594.484L.766 1.641l-.672-.125-.078.468 1.218.204 1.235.265.078-.469-.688-.14.36-1.828c.375.437.765.625 1.172.703C4.859 1 6.03.297 6.297-1.047m-1.25-.234C4.78.094 3.984.453 3.359.344c-.14-.031-.593-.125-.953-.735-.078-.156-.078-.171-.047-.359l.407-2.062c.03-.188.046-.188.218-.313a1.64 1.64 0 0 1 1.204-.234c.64.125 1.093.828.859 2.078m0 0"/><path id="p" d="M5.516.234c.03-.234-.094-.25-.235-.265-.61-.063-.61-.188-.578-.422l.172-2.125c.078-.89-.562-1.594-2.047-1.719-.547-.047-1.781-.094-1.86.781a.6.6 0 0 0 .563.672.604.604 0 0 0 .672-.578.65.65 0 0 0-.172-.515 5 5 0 0 1 .719 0c.75.062 1.063.515 1 1.265l-.031.344C3-2.36.484-2.484.359-1.063.281-.109 1.5.188 2.172.25c.797.063 1.297-.297 1.547-.703-.031.312-.063.766.984.86l.469.03c.203.016.328.032.344-.203M3.625-1.094c-.094.969-1.016 1.016-1.266 1-.5-.047-.875-.422-.828-.875.094-1.062 1.657-1.062 2.172-1.047Zm0 0"/><path id="q" d="m3.828-1.172.016-.531-.469-.016-.016.516c0 .672-.343.906-.625.906-.578-.016-.562-.656-.562-.875l.047-2.75 1.469.031v-.468l-1.47-.032.032-1.906h-.469c-.015 1-.515 1.969-1.515 1.984v.36l.828.015-.047 2.735C1.03-.141 1.89.094 2.609.109c.75 0 1.22-.562 1.22-1.28m0 0"/></defs><use xlink:href="#a" x=".234" y="7.594"/><use xlink:href="#b" x="6.6" y="7.852"/><use xlink:href="#c" x="12.334" y="8.436"/><use xlink:href="#d" x="21.432" y="11.357"/><use xlink:href="#e" x="29.128" y="16.135"/><use xlink:href="#f" x="32.371" y="19.199"/><use xlink:href="#g" x="35.665" y="23.295"/><use xlink:href="#h" x="38.836" y="28.444"/><use xlink:href="#i" x="42.633" y="35.787"/><use xlink:href="#j" x="45.152" y="40.751"/><use xlink:href="#k" x="46.628" y="43.568"/><use xlink:href="#l" x="49.62" y="48.465"/><use xlink:href="#m" x="53.653" y="53.41"/><use xlink:href="#n" x="61.21" y="59.239"/><use xlink:href="#o" x="69.938" y="62.693"/><use xlink:href="#p" x="76.201" y="63.86"/><use xlink:href="#q" x="81.753" y="64.307"/></svg>