<svg xmlns="http://www.w3.org/2000/svg" xmlns:xlink="http://www.w3.org/1999/xlink" width="59.19" height="32.42"><defs><clipPath id="a"><path d="M0 0h58.785v32.129H0Zm0 0"/></clipPath><clipPath id="b"><path d="M5 13h16v19.129H5Zm0 0"/></clipPath><clipPath id="d"><path d="M0 15h20v17.129H0Zm0 0"/></clipPath><path id="c" d="M4.75-2.36c0-1.562-.922-2.046-1.656-2.046-1.375 0-2.688 1.422-2.688 2.828C.406-.641 1 .109 2.031.109c.625 0 1.344-.234 2.094-.843.125.53.453.843.906.843.532 0 .844-.546.844-.703 0-.078-.062-.11-.125-.11-.062 0-.094.032-.125.11-.187.485-.547.485-.562.485-.313 0-.313-.782-.313-1.016 0-.203 0-.234.11-.344C5.796-2.656 6-3.812 6-3.812c0-.032-.016-.11-.125-.11-.094 0-.094.031-.14.219-.188.625-.516 1.375-.985 1.969ZM4.094-.983c-.89.765-1.657.875-2.047.875-.594 0-.906-.453-.906-1.094 0-.484.265-1.563.578-2.063.468-.734 1.015-.921 1.36-.921.983 0 .983 1.312.983 2.078 0 .375 0 .953.032 1.125m0 0"/></defs><g clip-path="url(#a)"><path fill="none" stroke="#000" stroke-miterlimit="10" stroke-width=".399" d="M57.777 29.203H1.082L29.43.855"/></g><g clip-path="url(#b)"><path fill="none" stroke="#000" stroke-miterlimit="10" stroke-width=".399" d="M15.254 29.203a14.18 14.18 0 0 0-4.149-10.023"/></g><use xlink:href="#c" x="5.734" y="28.092"/><g clip-path="url(#d)"><path fill="none" stroke="#000" stroke-miterlimit="10" stroke-width=".399" d="M13.918 25.95a4.98 4.98 0 1 0-9.961 0 4.981 4.981 0 0 0 9.961 0Zm0 0"/></g></svg>