<svg xmlns="http://www.w3.org/2000/svg" xmlns:xlink="http://www.w3.org/1999/xlink" width="64.658" height="87.32"><defs><path id="k" d="m5.89-3.031-.156-1.656H.516L.344-3.032H.78C.86-3.781.97-4.297 1.97-4.297h.625V-.39H1.547V0c.172-.016.562-.016.75-.016l.828-.015.86.015c.203 0 .53 0 .718.016v-.39H3.656v-3.907h.61c1.015 0 1.109.5 1.187 1.266Zm0 0"/><path id="l" d="M4.734 0v-.39h-.468v-1.704c0-.86-.547-1.047-1.188-1.047-.781 0-1.172.422-1.328.657v-2.36L.453-4.78v.39c.406 0 .453 0 .453.266v3.734H.453V0s.563-.031.906-.031c.329 0 .907.031.907.031v-.39h-.47v-1.344c0-.813.72-1.078 1.142-1.078.312 0 .437.156.437.656v1.765h-.469V0s.578-.031.906-.031c.344 0 .922.031.922.031m0 0"/><path id="m" d="M3.844-.797c0-.156-.156-.156-.235-.156-.125 0-.156.015-.203.125-.25.516-.89.516-1.015.516-1.094 0-1.125-.813-1.141-1.141h2.344c.156 0 .25 0 .25-.203s-.047-.735-.39-1.063c-.376-.375-.892-.437-1.267-.437-1.296 0-1.906.765-1.906 1.594 0 .828.64 1.609 2.016 1.609.25 0 .656-.031 1-.219.422-.219.547-.547.547-.625m-.688-.937H1.25c0-.282.047-1.11.938-1.11.906 0 .953.797.968 1.11m0 0"/><path id="n" d="M4.219-1.516c0-.828-.61-1.64-1.969-1.64-1.375 0-1.969.812-1.969 1.64C.281-.703.906.047 2.25.047c1.36 0 1.969-.75 1.969-1.563m-.969-.093c0 .609 0 1.297-1 1.297s-1-.688-1-1.297c0-.547 0-1.235 1-1.235s1 .688 1 1.235m0 0"/><path id="o" d="M3.453-2.516c0-.39-.39-.625-.828-.625-.5 0-.828.344-1.016.766h-.015v-.766L.39-3.078v.39c.406 0 .453 0 .453.266V-.39H.39V0c.015 0 .562-.031.89-.031L2.266 0v-.39h-.578V-1.47c0-.625.28-1.312.906-1.343 0 0-.094.124-.094.296a.46.46 0 0 0 .469.47.464.464 0 0 0 .484-.47m0 0"/><path id="p" d="M2.984-.844v-.36h-.437v.329c0 .484-.281.563-.422.563-.406 0-.422-.344-.422-.532v-1.86h1.14v-.39h-1.14v-1.328h-.437c0 .64-.328 1.375-1.078 1.39v.329h.64v1.86c0 .687.563.89 1.172.89.547 0 .984-.328.984-.89m0 0"/><path id="q" d="M2.188 0v-.39h-.422v-2.75l-1.282.062v.39c.407 0 .454 0 .454.266V-.39h-.47V0s.563-.031.876-.031c.281 0 .562.015.843.031m-.344-4.187a.577.577 0 0 0-.578-.579.57.57 0 0 0-.563.563c0 .328.25.578.563.578a.574.574 0 0 0 .578-.562m0 0"/><path id="r" d="M3.734-.797c0-.125-.125-.125-.234-.125-.156 0-.172.016-.219.11-.11.234-.328.5-.86.5-1.124 0-1.124-.985-1.124-1.266 0-.516.078-1.219 1.016-1.219.046 0 .437 0 .437.031l-.016.032a.5.5 0 0 0-.078.28c0 .282.219.47.485.47.28 0 .484-.188.484-.485 0-.672-.922-.687-1.328-.687-1.563 0-1.969.969-1.969 1.61C.328-.735.938.046 2.25.046c.344 0 .703-.063.969-.219.406-.234.515-.578.515-.625m0 0"/><path id="s" d="M4.313-.187c0-.204-.11-.204-.25-.204-.422 0-.422-.062-.422-.218v-1.453c0-.563-.453-1.094-1.703-1.094-.407 0-1.391 0-1.391.687 0 .313.234.485.484.485.313 0 .485-.203.485-.47a.5.5 0 0 0-.079-.28c-.015-.032-.015-.047-.015-.047 0-.047.437-.063.484-.063.485 0 .86.203.86.797v.188C2.422-1.86.25-1.83.25-.797c0 .64.766.844 1.469.844.734 0 1.062-.344 1.187-.516 0 .297.188.469.75.469h.406c.141 0 .25 0 .25-.187M2.766-.953c0 .14 0 .344-.282.516-.265.156-.593.156-.625.156-.39 0-.734-.219-.734-.531 0-.563.938-.75 1.64-.782Zm0 0"/><path id="t" d="M2.234 0v-.39h-.468v-4.454L.469-4.78v.39c.406 0 .469 0 .469.266v3.734h-.47V0c.016 0 .563-.031.891-.031S2.22 0 2.234 0m0 0"/><path id="u" d="M5.953-1.594c0-.172-.078-.172-.219-.172-.093 0-.203 0-.218.125C5.453-.578 4.39-.312 3.78-.312c-.562 0-1.203-.141-1.625-.547-.406-.391-.5-.985-.5-1.532 0-.656.14-1.265.61-1.64.484-.36 1.078-.438 1.5-.438.906 0 1.547.61 1.687 1.328.031.188.031.204.234.204h.047c.204 0 .22-.016.22-.22V-4.64c0-.14 0-.218-.157-.218-.078 0-.094 0-.172.062l-.469.406c-.687-.468-1.343-.468-1.547-.468C1.58-4.86.516-3.734.516-2.391c0 1.313 1.03 2.47 3.093 2.47 1.438 0 2.344-.798 2.344-1.673m0 0"/><path id="v" d="M7.219 0v-.39H6.75v-1.704c0-.875-.578-1.047-1.203-1.047-.656 0-1.094.313-1.313.657-.171-.61-.78-.657-1.156-.657-.828 0-1.234.5-1.375.735v-.735l-1.25.063v.39c.406 0 .453 0 .453.266V-.39H.453V0s.563-.031.906-.031c.329 0 .907.031.907.031v-.39h-.47v-1.344c0-.828.75-1.078 1.142-1.078.312 0 .453.156.453.671v1.75h-.47V0s.563-.031.907-.031.906.031.906.031v-.39h-.468v-1.344c0-.828.75-1.078 1.156-1.078.312 0 .437.156.437.671v1.75h-.468V0s.578-.031.906-.031c.344 0 .922.031.922.031m0 0"/><path id="w" d="M4.672-1.547c0-.844-.61-1.594-1.797-1.594-.36 0-.781.079-1.187.329v-.329L.39-3.078v.39c.109 0 .25 0 .343.016.11.016.11.094.11.219V.969H.39v.39s.562-.03.906-.03c.328 0 .906.03.906.03V.97h-.469V-.266c.172.125.516.313 1 .313 1.204 0 1.938-.688 1.938-1.594m-.969 0c0 .906-.531 1.266-1.062 1.266-.516 0-.828-.375-.907-.5v-1.453c0-.125 0-.141.11-.22.328-.296.734-.327.89-.327.594 0 .97.469.97 1.234m0 0"/><path id="x" d="M4.734 0v-.39c-.406 0-.468 0-.468-.266v-2.485l-1.36.063v.39c.422 0 .469 0 .469.266v1.297c0 .578-.437.844-.969.844-.594 0-.61-.156-.61-.485V-3.14l-1.343.063v.39c.406 0 .453 0 .453.266v1.578c0 .813.782.89 1.375.89.235 0 .75 0 1.14-.5v.5Zm0 0"/><path id="y" d="M4.469-1.422c0-.797-.657-1.328-1.328-1.469L2-3.109c-.516-.094-.766-.391-.766-.688s.204-.719 1.032-.719c.593 0 1.343.22 1.5 1.125.046.172.046.204.234.204.203 0 .219-.032.219-.235V-4.64c0-.14 0-.218-.157-.218-.078 0-.093 0-.187.078l-.234.234c-.047.047-.063.047-.063.047s-.015 0-.062-.031c-.391-.266-.86-.328-1.25-.328C1-4.86.516-4.11.516-3.47c0 .375.172.672.375.89.375.376.718.454 1.578.61l.61.11c.343.093.687.359.687.765 0 .078 0 .782-1.063.782-.219 0-.75-.016-1.172-.22-.484-.25-.562-.64-.562-.874-.016-.14-.016-.188-.219-.188s-.234.032-.234.235v1.218c0 .141 0 .22.172.22.078 0 .093 0 .14-.048.078-.062.25-.25.328-.312.485.297 1.078.36 1.563.36 1.312 0 1.75-.829 1.75-1.5m0 0"/><path id="z" d="M4.734 0v-.39h-.468v-1.704c0-.86-.547-1.047-1.188-1.047-.844 0-1.234.5-1.375.735v-.735l-1.25.063v.39c.406 0 .453 0 .453.266V-.39H.453V0s.563-.031.906-.031c.329 0 .907.031.907.031v-.39h-.47v-1.344c0-.813.72-1.078 1.142-1.078.312 0 .437.156.437.656v1.765h-.469V0s.578-.031.906-.031c.344 0 .922.031.922.031m0 0"/><clipPath id="a"><path d="M0 0h64.488v86.98H0Zm0 0"/></clipPath><clipPath id="b"><path d="M0 0h64.488v75H0Zm0 0"/></clipPath><clipPath id="c"><path d="M10 0h54.488v57H10Zm0 0"/></clipPath><clipPath id="d"><path d="M25 7h39.488v37H25Zm0 0"/></clipPath><clipPath id="e"><path d="M35 11h29.488v28H35Zm0 0"/></clipPath><clipPath id="f"><path d="M42 16h22.488v21H42Zm0 0"/></clipPath><clipPath id="g"><path d="M42 15h22.488v19H42Zm0 0"/></clipPath><clipPath id="h"><path d="M35 9h29.488v29H35Zm0 0"/></clipPath><clipPath id="i"><path d="M42 13h22.488v19H42Zm0 0"/></clipPath><clipPath id="j"><path d="M0 0h64.488v75H0Zm0 0"/></clipPath></defs><g clip-path="url(#a)"><path fill="none" stroke="#7F7F7F" stroke-miterlimit="10" stroke-width="3.096" d="M61.922 43.328c0-32.316-6.36-41.101-29.762-41.101S2.395 11.012 2.395 43.328 8.758 84.43 32.16 84.43s29.762-8.785 29.762-41.102Zm0 0"/></g><path fill="none" stroke="#000" stroke-miterlimit="10" stroke-width="3.096" d="M32.16 51.734V38.078"/><path d="M33.398 50.695c0 .57.497.57 1.711.57v.567a60 60 0 0 0-5.902 0v-.566c1.219 0 1.715 0 1.715-.57Zm0 0"/><g clip-path="url(#b)"><path fill="none" stroke="#191919" stroke-linecap="round" stroke-miterlimit="10" stroke-width="2.477" d="m32.16 39.074 4.656-8.758"/></g><g clip-path="url(#c)"><path fill="none" stroke="#333" stroke-linecap="round" stroke-miterlimit="10" stroke-width="1.858" d="m36.816 30.316 6.309-4.582"/></g><g clip-path="url(#d)"><path fill="none" stroke="#4C4C4C" stroke-linecap="round" stroke-miterlimit="10" stroke-width="1.239" d="m43.125 25.734 5.543-1.18"/></g><g clip-path="url(#e)"><path fill="none" stroke="#666" stroke-linecap="round" stroke-miterlimit="10" stroke-width=".929" d="m48.668 24.555 2.793.492"/></g><g clip-path="url(#f)"><path fill="none" stroke="#7F7F7F" stroke-linecap="round" stroke-miterlimit="10" stroke-width=".619" d="m51.46 25.047 4.298 2.48"/></g><g clip-path="url(#g)"><path fill="none" stroke="#BFBFBF" stroke-linecap="round" stroke-miterlimit="10" stroke-width=".619" d="m51.46 25.047 4.884-.86"/></g><g clip-path="url(#h)"><path fill="none" stroke="#666" stroke-linecap="round" stroke-miterlimit="10" stroke-width=".929" d="m48.668 24.555 2.352-1.586"/></g><g clip-path="url(#i)"><path fill="none" stroke="#7F7F7F" stroke-linecap="round" stroke-miterlimit="10" stroke-width=".619" d="m51.02 22.969 4.812-1.2"/></g><path fill="none" stroke="#BFBFBF" stroke-linecap="round" stroke-miterlimit="10" stroke-width=".619" d="m51.02 22.969 2.914-4.012"/><path fill="none" stroke="#4C4C4C" stroke-linecap="round" stroke-miterlimit="10" stroke-width="1.239" d="m43.125 25.734 2.832-4.91"/><path fill="none" stroke="#666" stroke-linecap="round" stroke-miterlimit="10" stroke-width=".929" d="m45.957 20.824 2.234-1.746"/><path fill="none" stroke="#7F7F7F" stroke-linecap="round" stroke-miterlimit="10" stroke-width=".619" d="m48.191 19.078 4.72-1.531"/><path fill="none" stroke="#BFBFBF" stroke-linecap="round" stroke-miterlimit="10" stroke-width=".619" d="m48.191 19.078 2.63-4.207"/><path fill="none" stroke="#666" stroke-linecap="round" stroke-miterlimit="10" stroke-width=".929" d="m45.957 20.824.395-2.808"/><path fill="none" stroke="#7F7F7F" stroke-linecap="round" stroke-miterlimit="10" stroke-width=".619" d="m46.352 18.016 2.328-4.38"/><path fill="none" stroke="#BFBFBF" stroke-linecap="round" stroke-miterlimit="10" stroke-width=".619" d="m46.352 18.016-1.032-4.852"/><path fill="none" stroke="#333" stroke-linecap="round" stroke-miterlimit="10" stroke-width="1.858" d="m36.816 30.316.274-7.789"/><path fill="none" stroke="#4C4C4C" stroke-linecap="round" stroke-miterlimit="10" stroke-width="1.239" d="m37.09 22.527 2.484-5.097"/><path fill="none" stroke="#666" stroke-linecap="round" stroke-miterlimit="10" stroke-width=".929" d="m39.574 17.43 2.106-1.895"/><path fill="none" stroke="#7F7F7F" stroke-linecap="round" stroke-miterlimit="10" stroke-width=".619" d="m41.68 15.535 4.601-1.86"/><path fill="none" stroke="#BFBFBF" stroke-linecap="round" stroke-miterlimit="10" stroke-width=".619" d="m41.68 15.535 2.328-4.383"/><path fill="none" stroke="#666" stroke-linecap="round" stroke-miterlimit="10" stroke-width=".929" d="m39.574 17.43.2-2.828"/><path fill="none" stroke="#7F7F7F" stroke-linecap="round" stroke-miterlimit="10" stroke-width=".619" d="m39.773 14.602 2.016-4.532"/><path fill="none" stroke="#BFBFBF" stroke-linecap="round" stroke-miterlimit="10" stroke-width=".619" d="m39.773 14.602-1.367-4.766"/><path fill="none" stroke="#4C4C4C" stroke-linecap="round" stroke-miterlimit="10" stroke-width="1.239" d="m37.09 22.527-2.125-5.257"/><path fill="none" stroke="#666" stroke-linecap="round" stroke-miterlimit="10" stroke-width=".929" d="M34.965 17.27v-2.836"/><path fill="none" stroke="#7F7F7F" stroke-linecap="round" stroke-miterlimit="10" stroke-width=".619" d="m34.965 14.434 1.695-4.66"/><path fill="none" stroke="#BFBFBF" stroke-linecap="round" stroke-miterlimit="10" stroke-width=".619" d="m34.965 14.434-1.695-4.66"/><path fill="none" stroke="#666" stroke-linecap="round" stroke-miterlimit="10" stroke-width=".929" d="m34.965 17.27-1.969-2.04"/><path fill="none" stroke="#7F7F7F" stroke-linecap="round" stroke-miterlimit="10" stroke-width=".619" d="m32.996 15.23-2.02-4.53"/><path fill="none" stroke="#BFBFBF" stroke-linecap="round" stroke-miterlimit="10" stroke-width=".619" d="m32.996 15.23-4.457-2.175"/><g clip-path="url(#j)"><path fill="none" stroke="#191919" stroke-linecap="round" stroke-miterlimit="10" stroke-width="2.477" d="m32.16 39.074-4.66-8.758"/></g><path fill="none" stroke="#333" stroke-linecap="round" stroke-miterlimit="10" stroke-width="1.858" d="m27.5 30.316-.27-7.789"/><path fill="none" stroke="#4C4C4C" stroke-linecap="round" stroke-miterlimit="10" stroke-width="1.239" d="m27.23 22.527 2.122-5.257"/><path fill="none" stroke="#666" stroke-linecap="round" stroke-miterlimit="10" stroke-width=".929" d="m29.352 17.27 1.968-2.04"/><path fill="none" stroke="#7F7F7F" stroke-linecap="round" stroke-miterlimit="10" stroke-width=".619" d="m31.32 15.23 4.461-2.175"/><path fill="none" stroke="#BFBFBF" stroke-linecap="round" stroke-miterlimit="10" stroke-width=".619" d="m31.32 15.23 2.02-4.53"/><path fill="none" stroke="#666" stroke-linecap="round" stroke-miterlimit="10" stroke-width=".929" d="M29.352 17.27v-2.836"/><path fill="none" stroke="#7F7F7F" stroke-linecap="round" stroke-miterlimit="10" stroke-width=".619" d="m29.352 14.434 1.699-4.66"/><path fill="none" stroke="#BFBFBF" stroke-linecap="round" stroke-miterlimit="10" stroke-width=".619" d="m29.352 14.434-1.696-4.66"/><path fill="none" stroke="#4C4C4C" stroke-linecap="round" stroke-miterlimit="10" stroke-width="1.239" d="m27.23 22.527-2.488-5.097"/><path fill="none" stroke="#666" stroke-linecap="round" stroke-miterlimit="10" stroke-width=".929" d="m24.742 17.43-.195-2.828"/><path fill="none" stroke="#7F7F7F" stroke-linecap="round" stroke-miterlimit="10" stroke-width=".619" d="m24.547 14.602 1.367-4.766"/><path fill="none" stroke="#BFBFBF" stroke-linecap="round" stroke-miterlimit="10" stroke-width=".619" d="m24.547 14.602-2.02-4.532"/><path fill="none" stroke="#666" stroke-linecap="round" stroke-miterlimit="10" stroke-width=".929" d="m24.742 17.43-2.105-1.895"/><path fill="none" stroke="#7F7F7F" stroke-linecap="round" stroke-miterlimit="10" stroke-width=".619" d="m22.637 15.535-2.328-4.383"/><path fill="none" stroke="#BFBFBF" stroke-linecap="round" stroke-miterlimit="10" stroke-width=".619" d="m22.637 15.535-4.598-1.86"/><path fill="none" stroke="#333" stroke-linecap="round" stroke-miterlimit="10" stroke-width="1.858" d="m27.5 30.316-6.305-4.582"/><path fill="none" stroke="#4C4C4C" stroke-linecap="round" stroke-miterlimit="10" stroke-width="1.239" d="m21.195 25.734-2.836-4.91"/><path fill="none" stroke="#666" stroke-linecap="round" stroke-miterlimit="10" stroke-width=".929" d="m18.36 20.824-.395-2.808"/><path fill="none" stroke="#7F7F7F" stroke-linecap="round" stroke-miterlimit="10" stroke-width=".619" d="m17.965 18.016 1.031-4.852"/><path fill="none" stroke="#BFBFBF" stroke-linecap="round" stroke-miterlimit="10" stroke-width=".619" d="m17.965 18.016-2.328-4.38"/><path fill="none" stroke="#666" stroke-linecap="round" stroke-miterlimit="10" stroke-width=".929" d="m18.36 20.824-2.235-1.746"/><path fill="none" stroke="#7F7F7F" stroke-linecap="round" stroke-miterlimit="10" stroke-width=".619" d="m16.125 19.078-2.629-4.207"/><path fill="none" stroke="#BFBFBF" stroke-linecap="round" stroke-miterlimit="10" stroke-width=".619" d="m16.125 19.078-4.715-1.531"/><path fill="none" stroke="#4C4C4C" stroke-linecap="round" stroke-miterlimit="10" stroke-width="1.239" d="m21.195 25.734-5.547-1.18"/><path fill="none" stroke="#666" stroke-linecap="round" stroke-miterlimit="10" stroke-width=".929" d="m15.648 24.555-2.347-1.586"/><path fill="none" stroke="#7F7F7F" stroke-linecap="round" stroke-miterlimit="10" stroke-width=".619" d="m13.3 22.969-2.917-4.012"/><path fill="none" stroke="#BFBFBF" stroke-linecap="round" stroke-miterlimit="10" stroke-width=".619" d="m13.3 22.969-4.812-1.2"/><path fill="none" stroke="#666" stroke-linecap="round" stroke-miterlimit="10" stroke-width=".929" d="m15.648 24.555-2.789.492"/><path fill="none" stroke="#7F7F7F" stroke-linecap="round" stroke-miterlimit="10" stroke-width=".619" d="m12.86 25.047-4.887-.86"/><path fill="none" stroke="#BFBFBF" stroke-linecap="round" stroke-miterlimit="10" stroke-width=".619" d="m12.86 25.047-4.297 2.48"/><use xlink:href="#k" x="9.783" y="60.744" fill="#7F7F7F"/><use xlink:href="#l" x="16.039" y="60.744"/><use xlink:href="#m" x="21.046" y="60.744"/><use xlink:href="#n" x="25.175" y="60.744"/><use xlink:href="#o" x="29.687" y="60.744"/><use xlink:href="#m" x="33.418" y="60.744"/><use xlink:href="#p" x="37.546" y="60.744"/><use xlink:href="#q" x="41.068" y="60.744"/><use xlink:href="#r" x="43.6" y="60.744"/><use xlink:href="#s" x="47.617" y="60.744"/><use xlink:href="#t" x="52.003" y="60.744"/><use xlink:href="#u" x="12.217" y="68.714" fill="#7F7F7F"/><use xlink:href="#n" x="18.71" y="68.714"/><use xlink:href="#v" x="23.222" y="68.714"/><use xlink:href="#w" x="30.705" y="68.714"/><use xlink:href="#x" x="35.712" y="68.714"/><use xlink:href="#p" x="40.719" y="68.714"/><use xlink:href="#m" x="44.241" y="68.714"/><use xlink:href="#o" x="48.37" y="68.714"/><use xlink:href="#y" x="17.741" y="76.684" fill="#7F7F7F"/><use xlink:href="#r" x="22.748" y="76.684"/><use xlink:href="#q" x="26.765" y="76.684"/><use xlink:href="#m" x="29.296" y="76.684"/><use xlink:href="#z" x="33.425" y="76.684"/><use xlink:href="#r" x="38.432" y="76.684"/><use xlink:href="#m" x="42.449" y="76.684"/></svg>