<svg xmlns="http://www.w3.org/2000/svg" width="21.951" height="7.004"><defs><clipPath id="a"><path d="M0 0h21.926v6.508H0Zm0 0"/></clipPath></defs><path fill="none" stroke="#000" stroke-miterlimit="10" stroke-width=".797" d="M.984 3h10.364"/><path d="M20.512 3c0-1.156-2.051-2.094-4.582-2.094-2.532 0-4.582.938-4.582 2.094s2.05 2.094 4.582 2.094c2.53 0 4.582-.938 4.582-2.094m0 0"/><g clip-path="url(#a)"><path fill="none" stroke="#000" stroke-miterlimit="10" stroke-width=".797" d="M20.512 3c0-1.156-2.051-2.094-4.582-2.094-2.532 0-4.582.938-4.582 2.094s2.05 2.094 4.582 2.094c2.53 0 4.582-.938 4.582-2.094Zm0 0"/></g></svg>