<svg xmlns="http://www.w3.org/2000/svg" xmlns:xlink="http://www.w3.org/1999/xlink" width="337.934" height="151.256"><defs><path id="b" d="M7.64-2.266c0-.203-.077-.203-.25-.203-.124 0-.218 0-.218.172C7.094-.969 5.89-.359 4.89-.359c-.782 0-1.625-.235-2.141-.844-.469-.578-.594-1.313-.594-2.219 0-.562.031-1.625.672-2.297.64-.656 1.516-.765 2.031-.765 1.079 0 2.016.765 2.235 2.03.031.188.047.204.265.204.266 0 .282-.016.282-.281v-2.14c0-.188 0-.282-.188-.282-.094 0-.11.031-.187.094l-.657.593a3.03 3.03 0 0 0-1.968-.687c-2.485 0-4 1.484-4 3.531S2.156.11 4.64.11c1.875 0 3-1.218 3-2.375m0 0"/><path id="c" d="M5.781-3.953v-.469A13 13 0 0 1 5-4.39l-.906-.03v.468s.468 0 .468.11L4.5-3.72 3.36-1.266 2.093-3.953h.531v-.469l-1.234.031-1.125-.03v.468H.89L2.766 0 2.53.484C2.312.954 2 1.641 1.281 1.641c-.14 0-.156-.016-.234-.047.094-.032.312-.172.312-.532C1.36.734 1.125.5.781.5a.553.553 0 0 0-.562.578c0 .5.469.922 1.062.922.766 0 1.344-.625 1.625-1.187l2.14-4.563c.063-.14.095-.203.735-.203m0 0"/><path id="d" d="M2.922 0v-.469h-.688v-6.453L.47-6.844v.469c.625 0 .687 0 .687.39v5.516H.47V0l1.219-.031Zm0 0"/><path id="e" d="M2.844 0v-.469h-.61v-4.015L.5-4.406v.468c.594 0 .656 0 .656.391v3.078H.47V0l1.219-.031Zm-.469-6.047a.774.774 0 0 0-.781-.781.784.784 0 0 0-.782.781c0 .422.36.766.782.766a.77.77 0 0 0 .781-.766m0 0"/><path id="f" d="M6.125 0v-.469h-.687v-2.578c0-1.047-.532-1.437-1.532-1.437-.953 0-1.484.562-1.75 1.078v-1.078l-1.703.078v.468c.61 0 .688 0 .688.391v3.078H.453V0l1.25-.031L2.953 0v-.469h-.687v-2.078c0-1.094.859-1.578 1.5-1.578.328 0 .547.203.547.969V-.47h-.688V0l1.25-.031Zm0 0"/><path id="g" d="M5.984 0v-.469c-.609 0-.687 0-.687-.39v-6.063l-1.766.078v.469c.625 0 .703 0 .703.39v1.954a2.18 2.18 0 0 0-1.359-.453c-1.453 0-2.5.875-2.5 2.28 0 1.313.922 2.267 2.39 2.267.61 0 1.094-.235 1.407-.485v.485ZM4.172-1.031c-.14.187-.547.734-1.297.734-1.219 0-1.219-1.203-1.219-1.906 0-.485 0-1.016.25-1.406.297-.422.766-.516 1.078-.516.563 0 .97.313 1.188.61Zm0 0"/><path id="h" d="M4.922-1.172c0-.172-.188-.172-.234-.172-.172 0-.188.047-.25.203-.204.485-.782.797-1.422.797-1.407 0-1.422-1.328-1.422-1.828h3.015c.22 0 .313 0 .313-.265 0-.313-.063-1.047-.563-1.547-.359-.36-.89-.532-1.578-.532C1.187-4.516.313-3.484.313-2.25c0 1.344 1 2.313 2.609 2.313 1.578 0 2-1.063 2-1.235M3.984-2.5h-2.39c.015-.39.031-.812.234-1.14.266-.391.672-.516.953-.516 1.172 0 1.188 1.312 1.203 1.656m0 0"/><path id="i" d="M4.406-3.672c0-.531-.531-.812-1.062-.812-.688 0-1.094.5-1.313 1.125v-1.125l-1.656.078v.468c.61 0 .688 0 .688.391v3.078H.375V0l1.25-.031C2-.031 2.641-.031 3 0v-.469h-.86v-1.75c0-.687.235-1.906 1.235-1.906 0 0-.187.172-.187.453 0 .406.328.61.609.61.297 0 .61-.204.61-.61m0 0"/><path id="j" d="M3.078.313c0-.125-.047-.157-.187-.25C2.063-.5 1.75-1.391 1.75-2.125c0-.672.25-1.594 1.156-2.203.125-.094.172-.125.172-.25a.254.254 0 0 0-.265-.25c-.204 0-1.641.906-1.641 2.703 0 .813.312 1.438.562 1.781.375.516.907.907 1.079.907.218 0 .265-.172.265-.25m0 0"/><path id="k" d="M3.219-.906c0-.735-.906-.906-1.14-.938l-.704-.125C1.188-2 1-2.079 1-2.25c0-.156.219-.328.813-.328.515 0 .609.172.625.328.015.14.03.281.28.281.298 0 .298-.156.298-.328v-.469c0-.14-.016-.328-.25-.328-.157 0-.22.063-.25.125-.282-.125-.563-.125-.688-.125-1.187 0-1.344.594-1.344.844 0 .656.735.797 1.391.89.297.063.828.141.828.454 0 .234-.25.422-.828.422-.297 0-.656-.063-.812-.563C1.03-1.203.984-1.28.78-1.28c-.297 0-.297.172-.297.328v.656c0 .14 0 .344.25.344.079 0 .188 0 .282-.234.328.218.672.234.859.234 1.125 0 1.344-.61 1.344-.953m0 0"/><path id="l" d="M2.313-.469a.477.477 0 0 0-.485-.484.47.47 0 0 0-.469.469c0 .28.22.484.47.484a.473.473 0 0 0 .484-.469m0 0"/><path id="m" d="M3.422-1.516c0-.875-.64-1.562-1.39-1.562-.298 0-.579.11-.813.265v-1.109c0-.25-.047-.344-.313-.344h-.5c-.14 0-.343.016-.343.266s.218.266.328.266h.25v3.406C.64-.172.656 0 .938 0c.218 0 .28-.094.28-.234.266.218.532.28.735.28.766 0 1.469-.671 1.469-1.562m-.578 0c0 .61-.453 1.032-.906 1.032-.485 0-.704-.563-.704-.875v-.485c0-.375.375-.703.766-.703.469 0 .844.469.844 1.031m0 0"/><path id="n" d="M3.25-.797c0-.234-.234-.234-.281-.234-.156 0-.219.015-.281.172-.141.328-.485.375-.657.375-.469 0-.937-.297-1.062-.813h1.953c.172 0 .328 0 .328-.312 0-.797-.453-1.485-1.375-1.485-.828 0-1.516.703-1.516 1.563S1.08.047 1.984.047c.938 0 1.266-.656 1.266-.844m-.594-1.015H.97c.125-.438.484-.766.906-.766.328 0 .703.156.781.765m0 0"/><path id="o" d="M3.063-3.844c0-.437-.579-.453-.704-.453-.578 0-1.125.328-1.125.953v.313H.61c-.125 0-.328 0-.328.25 0 .265.203.265.328.265h.625v2H.61c-.125 0-.343 0-.343.25C.266 0 .484 0 .609 0h1.844c.125 0 .328 0 .328-.266 0-.25-.203-.25-.328-.25h-.64v-2h.78c.11 0 .313 0 .313-.265 0-.25-.187-.25-.312-.25h-.781v-.266c0-.453.359-.484.562-.484.031.11.125.297.344.297a.35.35 0 0 0 .344-.36m0 0"/><path id="p" d="M3.281-1.516c0-.89-.672-1.578-1.453-1.578-.797 0-1.453.688-1.453 1.578S1.047.047 1.828.047c.766 0 1.453-.688 1.453-1.563m-.578-.046c0 .593-.406 1.078-.875 1.078S.953-.97.953-1.562s.422-1.016.875-1.016.875.422.875 1.015m0 0"/><path id="q" d="M3.406-2.594c0-.156-.078-.484-.703-.484-.328 0-.734.11-1.094.469v-.094c0-.25-.046-.328-.328-.328h-.75c-.125 0-.328 0-.328.25 0 .265.203.265.328.265h.5v2h-.5c-.125 0-.328 0-.328.25C.203 0 .406 0 .531 0h1.781c.126 0 .329 0 .329-.266 0-.25-.203-.25-.328-.25h-.704v-.796c0-.61.36-1.22 1.11-1.235 0 .156.172.281.344.281.187 0 .343-.125.343-.328m0 0"/><path id="r" d="M3.14-.906c0-.156 0-.313-.296-.313-.266 0-.266.157-.266.297-.015.375-.36.438-.515.438-.454 0-.454-.313-.454-.47v-1.562h1.047c.125 0 .328 0 .328-.265 0-.25-.187-.25-.328-.25H1.61v-.516c0-.14-.015-.328-.296-.328-.282 0-.282.172-.282.328v.516H.484c-.125 0-.328 0-.328.25 0 .265.203.265.328.265h.547v1.61c0 .687.485.953 1.016.953S3.14-.266 3.14-.906m0 0"/><path id="s" d="M3.422-1.516c0-.875-.64-1.562-1.39-1.562-.298 0-.579.11-.813.281 0-.172-.063-.234-.313-.234h-.5c-.14 0-.343 0-.343.25 0 .265.218.265.328.265h.25v3.5H.406c-.14 0-.343 0-.343.266 0 .25.218.25.328.25h1.093c.11 0 .329 0 .329-.25 0-.266-.204-.266-.344-.266h-.25V-.234c.265.234.531.28.734.28.766 0 1.469-.671 1.469-1.562m-.578 0c0 .61-.453 1.032-.906 1.032-.485 0-.704-.563-.704-.875v-.485c0-.375.375-.703.766-.703.469 0 .844.469.844 1.031m0 0"/><path id="t" d="M2.484-2.125c0-.828-.312-1.453-.562-1.797-.375-.515-.906-.906-1.078-.906-.203 0-.266.187-.266.25 0 .125.094.187.14.219 1.095.718 1.188 1.797 1.188 2.234 0 .656-.25 1.578-1.14 2.188C.64.14.578.188.578.313c0 .078.063.25.266.25s1.64-.907 1.64-2.688m0 0"/><path id="u" d="M3.625-.266c0-.25-.203-.25-.328-.25-.203 0-.297-.03-.344-.046V-2c0-.5-.375-1.094-1.406-1.094-.313 0-1.031.016-1.031.547 0 .235.172.36.359.36.11 0 .344-.063.344-.36 0 0 .234-.031.343-.031.454 0 .782.187.813.594-1.219.03-2.047.39-2.047 1.062 0 .485.453.969 1.188.969.234 0 .656-.047.968-.25.172.187.485.203.75.203.235 0 .391-.016.391-.266M2.359-.969c0 .14 0 .266-.234.375-.234.11-.516.11-.578.11-.39 0-.64-.203-.64-.438 0-.312.546-.515 1.452-.562Zm0 0"/><path id="v" d="M3.64-.266c0-.218-.14-.25-.39-.25v-1.593c0-.157-.016-.97-.656-.97a.84.84 0 0 0-.656.313.61.61 0 0 0-.532-.312.88.88 0 0 0-.547.203c-.046-.156-.187-.156-.312-.156H.328c-.125 0-.328 0-.328.25 0 .234.125.265.39.265v2c-.265 0-.39.032-.39.25C0 0 .219 0 .328 0h.594c.125 0 .312 0 .312-.266 0-.218-.109-.25-.359-.25v-1.171c0-.563.234-.86.5-.86.14 0 .203.11.203.5v1.531c-.156 0-.281.032-.281.25 0 .266.187.266.312.266h.516c.125 0 .313 0 .313-.266 0-.218-.126-.25-.376-.25v-1.171c0-.563.25-.86.5-.86.141 0 .204.11.204.5v1.531c-.141 0-.282.032-.282.25 0 .266.204.266.313.266h.5c.125 0 .344 0 .344-.266m0 0"/><path id="w" d="M3.188-.266c0-.25-.204-.25-.329-.25h-.656v-2.187c0-.25-.047-.328-.328-.328H.906c-.125 0-.328 0-.328.25 0 .265.203.265.328.265h.719v2H.859c-.14 0-.343 0-.343.25C.516 0 .734 0 .859 0h2c.125 0 .329 0 .329-.266m-.954-3.562a.39.39 0 0 0-.406-.39.387.387 0 0 0-.39.39c0 .219.171.39.39.39a.39.39 0 0 0 .406-.39m0 0"/><path id="x" d="M3.578-.266c0-.25-.203-.25-.328-.25H3v-3.406c0-.25-.047-.344-.328-.344h-.485c-.14 0-.343.016-.343.266s.218.266.328.266h.25v.906a1.26 1.26 0 0 0-.735-.25c-.765 0-1.453.672-1.453 1.562C.234-.64.875.047 1.625.047c.344 0 .61-.14.797-.313.015.188.062.266.328.266h.5c.125 0 .328 0 .328-.266M2.422-1.375c0 .36-.297.89-.781.89-.453 0-.828-.452-.828-1.03 0-.61.437-1.032.89-1.032.406 0 .719.344.719.688Zm0 0"/><path id="y" d="M3.547-2.781c0-.25-.188-.25-.328-.25h-.781c-.157 0-.344 0-.344.25 0 .265.172.265.344.265h.265l-.297 1.72-.14-.532c-.125-.469-.172-.547-.422-.547-.094 0-.235 0-.328.188l-.266.906-.297-1.735h.266c.156 0 .343 0 .343-.265 0-.25-.187-.25-.343-.25H.437c-.14 0-.343 0-.343.25 0 .234.14.265.36.265L.858-.28c.032.187.047.312.36.312.312 0 .343-.062.453-.515l.172-.641.265 1c.094.14.235.156.344.156.281 0 .313-.125.344-.312l.406-2.235c.219 0 .344-.03.344-.265m0 0"/><path id="z" d="M3.266-.797c0-.234-.235-.234-.297-.234-.125 0-.203 0-.266.172-.047.078-.187.375-.625.375a1.027 1.027 0 0 1-1.015-1.032c0-.312.187-1.062 1.062-1.062l.344.015c.015.282.172.376.36.376.187 0 .358-.126.358-.36 0-.531-.734-.547-1.062-.547-1.219 0-1.64.953-1.64 1.578 0 .844.671 1.563 1.546 1.563 1 0 1.235-.719 1.235-.844m0 0"/><path id="A" d="M3.578-.266c0-.25-.203-.25-.328-.25H3v-1.53c0-.72-.36-1.032-.937-1.032-.391 0-.672.172-.844.297 0-.172-.047-.25-.313-.25h-.5c-.14 0-.328 0-.328.25 0 .265.203.265.313.265h.25v2H.406c-.14 0-.328 0-.328.25C.078 0 .281 0 .391 0h1.093c.11 0 .329 0 .329-.266 0-.25-.204-.25-.344-.25h-.25v-1.156c0-.64.484-.875.797-.875.328 0 .406.172.406.547v1.484h-.203c-.14 0-.344 0-.344.25 0 .266.219.266.344.266H3.25c.11 0 .328 0 .328-.266m0 0"/><path id="B" d="M3.469-.266c0-.25-.203-.25-.328-.25h-.25l-.828-1.046.734-.954h.234c.125 0 .344 0 .344-.265 0-.25-.219-.25-.344-.25H2.25c-.125 0-.328 0-.328.25 0 .203.11.265.281.265l-.39.547-.422-.547c.156 0 .28-.062.28-.265 0-.25-.202-.25-.327-.25H.547c-.125 0-.328 0-.328.25 0 .265.219.265.328.265h.25l.75.954L.75-.516H.516c-.125 0-.344 0-.344.25C.172 0 .39 0 .516 0h.78c.126 0 .329 0 .329-.266 0-.203-.11-.25-.297-.25l.484-.703.5.703c-.187 0-.296.047-.296.25 0 .266.203.266.328.266h.797c.109 0 .328 0 .328-.266m0 0"/><path id="C" d="M3.578-.266c0-.25-.203-.25-.328-.25H3v-1.53c0-.72-.36-1.032-.937-1.032-.391 0-.672.172-.844.297v-1.14c0-.25-.047-.345-.313-.345h-.5c-.14 0-.328.016-.328.266s.203.266.313.266h.25v3.218H.406c-.14 0-.328 0-.328.25C.078 0 .281 0 .391 0h1.093c.11 0 .329 0 .329-.266 0-.25-.204-.25-.344-.25h-.25v-1.156c0-.64.484-.875.797-.875.328 0 .406.172.406.547v1.484h-.203c-.14 0-.344 0-.344.25 0 .266.219.266.344.266H3.25c.11 0 .328 0 .328-.266m0 0"/><path id="D" d="M3.578-.266c0-.25-.219-.25-.328-.25H3v-2.187c0-.25-.047-.328-.328-.328h-.485c-.14 0-.343 0-.343.25 0 .265.218.265.328.265h.25v1.391c0 .563-.516.64-.719.64-.469 0-.484-.187-.484-.39v-1.828c0-.25-.047-.328-.313-.328h-.5c-.14 0-.328 0-.328.25 0 .265.203.265.313.265h.25v1.688c0 .687.5.875 1.03.875.266 0 .517-.063.767-.219C2.484 0 2.625 0 2.75 0h.5c.125 0 .328 0 .328-.266m0 0"/><path id="E" d="M3.094-.266c0-.25-.188-.25-.313-.25H2.22V-4c0-.125-.016-.328-.266-.328-.156 0-.219.094-.25.187-.234.547-.578.625-.687.641-.141 0-.313.031-.313.266 0 .203.156.25.281.25s.375-.032.657-.235v2.703h-.563c-.14 0-.328 0-.328.25C.75 0 .953 0 1.078 0h1.703c.125 0 .313 0 .313-.266m0 0"/><path id="F" d="M3.297-1.36c0-.812-.625-1.437-1.39-1.437-.329 0-.657.094-.938.313.125-.828.703-1.328 1.25-1.328.156 0 .25.03.297.062-.032.047-.047.094-.047.188 0 .203.14.359.36.359.202 0 .358-.14.358-.375 0-.36-.265-.75-.968-.75-.922 0-1.86.844-1.86 2.25C.36-.422 1.156.078 1.844.078c.765 0 1.453-.594 1.453-1.437m-.578 0a.88.88 0 0 1-.875.907c-.422 0-.672-.313-.797-.703C1-1.313 1-1.484 1-1.563c0-.39.39-.703.875-.703.516 0 .844.422.844.907m0 0"/><path id="G" d="M3.313-2.125c0-1.297-.72-2.203-1.485-2.203-.781 0-1.5.922-1.5 2.203 0 1.297.734 2.203 1.5 2.203.781 0 1.485-.922 1.485-2.203m-.563-.078c0 .969-.422 1.75-.922 1.75-.516 0-.922-.781-.922-1.75 0-.953.438-1.61.922-1.61.469 0 .922.657.922 1.61m0 0"/><clipPath id="a"><path d="M0 0h337.902v150.883H0Zm0 0"/></clipPath></defs><path fill="#FFFBB3" d="M56.156 17.555c-15.933 0-28.847 25.828-28.847 57.691s12.914 57.692 28.847 57.692H281.72c15.93 0 28.844-25.829 28.844-57.692s-12.915-57.691-28.844-57.691Zm225.563 0c-15.93 0-28.844 25.828-28.844 57.691s12.914 57.692 28.844 57.692"/><g clip-path="url(#a)"><path fill="none" stroke="#B2B2B2" stroke-miterlimit="10" stroke-width="14.173" d="M56.156 17.555c-15.933 0-28.847 25.828-28.847 57.691s12.914 57.692 28.847 57.692H281.72c15.93 0 28.844-25.829 28.844-57.692s-12.915-57.691-28.844-57.691Zm225.563 0c-15.93 0-28.844 25.828-28.844 57.691s12.914 57.692 28.844 57.692"/></g><g fill="#B2B2B2"><use xlink:href="#b" x="116.362" y="102.596"/><use xlink:href="#c" x="124.641" y="102.596"/><use xlink:href="#d" x="130.688" y="102.596"/><use xlink:href="#e" x="133.866" y="102.596"/><use xlink:href="#f" x="137.044" y="102.596"/><use xlink:href="#g" x="143.411" y="102.596"/><use xlink:href="#h" x="149.777" y="102.596"/><use xlink:href="#i" x="155.027" y="102.596"/></g><path fill="none" stroke="#B2B2B2" stroke-miterlimit="10" stroke-width=".996" d="M160.246 104.59V45.902"/><path fill="none" stroke="#000" stroke-miterlimit="10" stroke-width=".399" d="m280.309 11.879 2.82-2.82m-2.82 0 2.82 2.82"/><use xlink:href="#j" x="256.087" y="5.444"/><use xlink:href="#k" x="259.748" y="5.444"/><use xlink:href="#l" x="263.41" y="5.444"/><use xlink:href="#m" x="267.071" y="5.444"/><use xlink:href="#n" x="270.732" y="5.444"/><use xlink:href="#o" x="274.393" y="5.444"/><use xlink:href="#p" x="278.055" y="5.444"/><use xlink:href="#q" x="281.716" y="5.444"/><use xlink:href="#n" x="285.377" y="5.444"/><use xlink:href="#r" x="292.7" y="5.444"/><use xlink:href="#p" x="296.361" y="5.444"/><use xlink:href="#s" x="300.022" y="5.444"/><use xlink:href="#t" x="303.684" y="5.444"/><path fill="none" stroke="#000" stroke-miterlimit="10" stroke-width=".399" d="m316.242 76.656 2.817-2.82m-2.817 0 2.817 2.82"/><use xlink:href="#j" x="304.833" y="70.22"/><use xlink:href="#k" x="308.494" y="70.22"/><use xlink:href="#l" x="312.156" y="70.22"/><use xlink:href="#r" x="315.817" y="70.22"/><use xlink:href="#p" x="319.478" y="70.22"/><use xlink:href="#s" x="323.139" y="70.22"/><use xlink:href="#t" x="326.801" y="70.22"/><path fill="none" stroke="#000" stroke-miterlimit="10" stroke-width=".399" d="m280.309 141.43 2.82-2.817m-2.82 0 2.82 2.817"/><use xlink:href="#j" x="257.918" y="148.368"/><use xlink:href="#k" x="261.579" y="148.368"/><use xlink:href="#l" x="265.241" y="148.368"/><use xlink:href="#u" x="268.902" y="148.368"/><use xlink:href="#o" x="272.563" y="148.368"/><use xlink:href="#r" x="276.224" y="148.368"/><use xlink:href="#n" x="279.886" y="148.368"/><use xlink:href="#q" x="283.547" y="148.368"/><use xlink:href="#r" x="290.869" y="148.368"/><use xlink:href="#p" x="294.531" y="148.368"/><use xlink:href="#s" x="298.192" y="148.368"/><use xlink:href="#t" x="301.853" y="148.368"/><path fill="none" stroke="#000" stroke-miterlimit="10" stroke-width=".399" d="m54.746 141.43 2.816-2.817m-2.816 0 2.816 2.817"/><use xlink:href="#j" x="25.035" y="148.368"/><use xlink:href="#k" x="28.696" y="148.368"/><use xlink:href="#l" x="32.358" y="148.368"/><use xlink:href="#m" x="36.019" y="148.368"/><use xlink:href="#n" x="39.68" y="148.368"/><use xlink:href="#o" x="43.341" y="148.368"/><use xlink:href="#p" x="47.003" y="148.368"/><use xlink:href="#q" x="50.664" y="148.368"/><use xlink:href="#n" x="54.325" y="148.368"/><use xlink:href="#m" x="61.648" y="148.368"/><use xlink:href="#p" x="65.309" y="148.368"/><use xlink:href="#r" x="68.97" y="148.368"/><use xlink:href="#r" x="72.632" y="148.368"/><use xlink:href="#p" x="76.293" y="148.368"/><use xlink:href="#v" x="79.954" y="148.368"/><use xlink:href="#t" x="83.615" y="148.368"/><path fill="none" stroke="#000" stroke-miterlimit="10" stroke-width=".399" d="m18.813 76.656 2.82-2.82m-2.82 0 2.82 2.82"/><use xlink:href="#j" x="1.919" y="71.169"/><use xlink:href="#k" x="5.58" y="71.169"/><use xlink:href="#l" x="9.242" y="71.169"/><use xlink:href="#m" x="12.903" y="71.169"/><use xlink:href="#p" x="16.564" y="71.169"/><use xlink:href="#r" x="20.225" y="71.169"/><use xlink:href="#r" x="23.887" y="71.169"/><use xlink:href="#p" x="27.548" y="71.169"/><use xlink:href="#v" x="31.209" y="71.169"/><use xlink:href="#t" x="34.87" y="71.169"/><path fill="none" stroke="#000" stroke-miterlimit="10" stroke-width=".399" d="m54.746 11.879 2.816-2.82m-2.816 0 2.816 2.82"/><use xlink:href="#j" x="26.866" y="6.393"/><use xlink:href="#k" x="30.527" y="6.393"/><use xlink:href="#l" x="34.189" y="6.393"/><use xlink:href="#u" x="37.85" y="6.393"/><use xlink:href="#o" x="41.511" y="6.393"/><use xlink:href="#r" x="45.172" y="6.393"/><use xlink:href="#n" x="48.834" y="6.393"/><use xlink:href="#q" x="52.495" y="6.393"/><use xlink:href="#m" x="59.817" y="6.393"/><use xlink:href="#p" x="63.479" y="6.393"/><use xlink:href="#r" x="67.14" y="6.393"/><use xlink:href="#r" x="70.801" y="6.393"/><use xlink:href="#p" x="74.463" y="6.393"/><use xlink:href="#v" x="78.124" y="6.393"/><use xlink:href="#t" x="81.785" y="6.393"/><path fill="none" stroke="#000" stroke-miterlimit="10" stroke-width=".399" d="m137.145 101.793 2.82-2.816m-2.82 0 2.82 2.816"/><use xlink:href="#j" x="142.074" y="102.519"/><use xlink:href="#k" x="145.735" y="102.519"/><use xlink:href="#l" x="149.397" y="102.519"/><use xlink:href="#v" x="153.058" y="102.519"/><use xlink:href="#w" x="156.719" y="102.519"/><use xlink:href="#x" x="160.38" y="102.519"/><use xlink:href="#t" x="164.042" y="102.519"/><path fill="none" stroke="#000" stroke-miterlimit="10" stroke-width=".399" d="m21.633 101.793 2.816-2.816m-2.816 0 2.816 2.816"/><use xlink:href="#j" x="26.562" y="102.518"/><use xlink:href="#k" x="30.223" y="102.518"/><use xlink:href="#l" x="33.885" y="102.518"/><use xlink:href="#v" x="37.546" y="102.518"/><use xlink:href="#w" x="41.207" y="102.518"/><use xlink:href="#x" x="44.868" y="102.518"/><use xlink:href="#y" x="52.191" y="102.518"/><use xlink:href="#n" x="55.852" y="102.518"/><use xlink:href="#k" x="59.513" y="102.518"/><use xlink:href="#r" x="63.175" y="102.518"/><use xlink:href="#t" x="66.836" y="102.518"/><path fill="none" stroke="#000" stroke-miterlimit="10" stroke-width=".399" d="m313.422 101.793 2.82-2.816m-2.82 0 2.82 2.816"/><use xlink:href="#j" x="267.375" y="102.518"/><use xlink:href="#k" x="271.036" y="102.518"/><use xlink:href="#l" x="274.698" y="102.518"/><use xlink:href="#v" x="278.359" y="102.518"/><use xlink:href="#w" x="282.02" y="102.518"/><use xlink:href="#x" x="285.681" y="102.518"/><use xlink:href="#n" x="293.004" y="102.518"/><use xlink:href="#u" x="296.665" y="102.518"/><use xlink:href="#k" x="300.326" y="102.518"/><use xlink:href="#r" x="303.988" y="102.518"/><use xlink:href="#t" x="307.649" y="102.518"/><path fill="none" stroke="#000" stroke-miterlimit="10" stroke-width=".399" d="m137.145 104.004 2.82-2.817m-2.82 0 2.82 2.817"/><use xlink:href="#j" x="123.909" y="110.942"/><use xlink:href="#k" x="127.57" y="110.942"/><use xlink:href="#l" x="131.232" y="110.942"/><use xlink:href="#m" x="134.893" y="110.942"/><use xlink:href="#u" x="138.554" y="110.942"/><use xlink:href="#k" x="142.215" y="110.942"/><use xlink:href="#n" x="145.877" y="110.942"/><use xlink:href="#t" x="149.538" y="110.942"/><path fill="none" stroke="#000" stroke-miterlimit="10" stroke-width=".399" d="m22.176 104.008 2.816-2.82m-2.816 0 2.816 2.82"/><use xlink:href="#j" x="-.212" y="110.943"/><use xlink:href="#k" x="3.449" y="110.943"/><use xlink:href="#l" x="7.111" y="110.943"/><use xlink:href="#m" x="10.772" y="110.943"/><use xlink:href="#u" x="14.433" y="110.943"/><use xlink:href="#k" x="18.094" y="110.943"/><use xlink:href="#n" x="21.756" y="110.943"/><use xlink:href="#y" x="29.071" y="110.943"/><use xlink:href="#n" x="32.732" y="110.943"/><use xlink:href="#k" x="36.394" y="110.943"/><use xlink:href="#r" x="40.055" y="110.943"/><use xlink:href="#t" x="43.716" y="110.943"/><path fill="none" stroke="#000" stroke-miterlimit="10" stroke-width=".399" d="m312.879 104.008 2.82-2.82m-2.82 0 2.82 2.82"/><use xlink:href="#j" x="290.488" y="110.943"/><use xlink:href="#k" x="294.149" y="110.943"/><use xlink:href="#l" x="297.811" y="110.943"/><use xlink:href="#m" x="301.472" y="110.943"/><use xlink:href="#u" x="305.133" y="110.943"/><use xlink:href="#k" x="308.794" y="110.943"/><use xlink:href="#n" x="312.456" y="110.943"/><use xlink:href="#n" x="319.778" y="110.943"/><use xlink:href="#u" x="323.439" y="110.943"/><use xlink:href="#k" x="327.101" y="110.943"/><use xlink:href="#r" x="330.762" y="110.943"/><use xlink:href="#t" x="334.423" y="110.943"/><path fill="none" stroke="#000" stroke-miterlimit="10" stroke-width=".399" d="m137.145 76.656 2.82-2.82m-2.82 0 2.82 2.82"/><use xlink:href="#j" x="120.248" y="71.169"/><use xlink:href="#k" x="123.909" y="71.169"/><use xlink:href="#l" x="127.571" y="71.169"/><use xlink:href="#z" x="131.232" y="71.169"/><use xlink:href="#n" x="134.893" y="71.169"/><use xlink:href="#A" x="138.554" y="71.169"/><use xlink:href="#r" x="142.216" y="71.169"/><use xlink:href="#n" x="145.877" y="71.169"/><use xlink:href="#q" x="149.538" y="71.169"/><use xlink:href="#t" x="153.199" y="71.169"/><path fill="none" stroke="#000" stroke-miterlimit="10" stroke-width=".399" d="m114.953 104.004 2.817-2.817m-2.817 0 2.817 2.817"/><use xlink:href="#j" x="101.717" y="98.519"/><use xlink:href="#k" x="105.378" y="98.519"/><use xlink:href="#l" x="109.04" y="98.519"/><use xlink:href="#r" x="112.701" y="98.519"/><use xlink:href="#n" x="116.362" y="98.519"/><use xlink:href="#B" x="120.023" y="98.519"/><use xlink:href="#r" x="123.685" y="98.519"/><use xlink:href="#t" x="127.346" y="98.519"/><path fill="none" stroke="#000" stroke-miterlimit="10" stroke-width=".399" d="m167.527 76.656 2.817-2.82m-2.817 0 2.817 2.82"/><use xlink:href="#j" x="172.456" y="76.906"/><use xlink:href="#k" x="176.117" y="76.906"/><use xlink:href="#l" x="179.779" y="76.906"/><use xlink:href="#k" x="183.44" y="76.906"/><use xlink:href="#C" x="187.101" y="76.906"/><use xlink:href="#u" x="190.762" y="76.906"/><use xlink:href="#s" x="194.424" y="76.906"/><use xlink:href="#n" x="198.085" y="76.906"/><use xlink:href="#z" x="205.407" y="76.906"/><use xlink:href="#n" x="209.069" y="76.906"/><use xlink:href="#A" x="212.73" y="76.906"/><use xlink:href="#r" x="216.391" y="76.906"/><use xlink:href="#n" x="220.053" y="76.906"/><use xlink:href="#q" x="223.714" y="76.906"/><use xlink:href="#t" x="227.375" y="76.906"/><path fill="none" stroke="#000" stroke-miterlimit="10" stroke-width=".399" d="m18.813 76.656 2.82-2.82m-2.82 0 2.82 2.82"/><use xlink:href="#j" x="23.745" y="77.38"/><use xlink:href="#k" x="27.406" y="77.38"/><use xlink:href="#l" x="31.068" y="77.38"/><use xlink:href="#y" x="34.729" y="77.38"/><use xlink:href="#n" x="38.39" y="77.38"/><use xlink:href="#k" x="42.051" y="77.38"/><use xlink:href="#r" x="45.713" y="77.38"/><use xlink:href="#t" x="49.374" y="77.38"/><path fill="none" stroke="#000" stroke-miterlimit="10" stroke-width=".399" d="m316.242 76.652 2.817-2.816m-2.817 0 2.817 2.816"/><use xlink:href="#j" x="284.837" y="77.379"/><use xlink:href="#k" x="288.498" y="77.379"/><use xlink:href="#l" x="292.16" y="77.379"/><use xlink:href="#n" x="295.821" y="77.379"/><use xlink:href="#u" x="299.482" y="77.379"/><use xlink:href="#k" x="303.143" y="77.379"/><use xlink:href="#r" x="306.805" y="77.379"/><use xlink:href="#t" x="310.466" y="77.379"/><path fill="none" stroke="#000" stroke-miterlimit="10" stroke-width=".399" d="m137.148 11.863 2.817-2.816m-2.817 0 2.817 2.816"/><use xlink:href="#j" x="122.082" y="6.378"/><use xlink:href="#k" x="125.743" y="6.378"/><use xlink:href="#l" x="129.405" y="6.378"/><use xlink:href="#A" x="133.066" y="6.378"/><use xlink:href="#p" x="136.727" y="6.378"/><use xlink:href="#q" x="140.388" y="6.378"/><use xlink:href="#r" x="144.05" y="6.378"/><use xlink:href="#C" x="147.711" y="6.378"/><use xlink:href="#t" x="151.372" y="6.378"/><path fill="none" stroke="#000" stroke-miterlimit="10" stroke-width=".399" d="m137.148 141.438 2.817-2.817m-2.817 0 2.817 2.816"/><use xlink:href="#j" x="122.082" y="148.374"/><use xlink:href="#k" x="125.743" y="148.374"/><use xlink:href="#l" x="129.405" y="148.374"/><use xlink:href="#k" x="133.066" y="148.374"/><use xlink:href="#p" x="136.727" y="148.374"/><use xlink:href="#D" x="140.388" y="148.374"/><use xlink:href="#r" x="144.05" y="148.374"/><use xlink:href="#C" x="147.711" y="148.374"/><use xlink:href="#t" x="151.372" y="148.374"/><path fill="none" stroke="#000" stroke-miterlimit="10" stroke-width=".399" d="m72.363 11.867 2.82-2.816m-2.82 0 2.82 2.816"/><use xlink:href="#j" x="48.145" y="18.807"/><use xlink:href="#k" x="51.806" y="18.807"/><use xlink:href="#l" x="55.468" y="18.807"/><use xlink:href="#A" x="59.129" y="18.807"/><use xlink:href="#p" x="62.79" y="18.807"/><use xlink:href="#q" x="66.451" y="18.807"/><use xlink:href="#r" x="70.113" y="18.807"/><use xlink:href="#C" x="73.774" y="18.807"/><use xlink:href="#y" x="81.096" y="18.807"/><use xlink:href="#n" x="84.758" y="18.807"/><use xlink:href="#k" x="88.419" y="18.807"/><use xlink:href="#r" x="92.08" y="18.807"/><use xlink:href="#t" x="95.742" y="18.807"/><path fill="none" stroke="#000" stroke-miterlimit="10" stroke-width=".399" d="m201.93 11.867 2.82-2.816m-2.82 0 2.82 2.816"/><use xlink:href="#j" x="177.71" y="6.383"/><use xlink:href="#k" x="181.371" y="6.383"/><use xlink:href="#l" x="185.033" y="6.383"/><use xlink:href="#A" x="188.694" y="6.383"/><use xlink:href="#p" x="192.355" y="6.383"/><use xlink:href="#q" x="196.016" y="6.383"/><use xlink:href="#r" x="199.678" y="6.383"/><use xlink:href="#C" x="203.339" y="6.383"/><use xlink:href="#n" x="210.661" y="6.383"/><use xlink:href="#u" x="214.323" y="6.383"/><use xlink:href="#k" x="217.984" y="6.383"/><use xlink:href="#r" x="221.645" y="6.383"/><use xlink:href="#t" x="225.307" y="6.383"/><path fill="none" stroke="#000" stroke-miterlimit="10" stroke-width=".399" d="m72.363 141.434 2.82-2.817m-2.82 0 2.82 2.817"/><use xlink:href="#j" x="48.145" y="135.948"/><use xlink:href="#k" x="51.806" y="135.948"/><use xlink:href="#l" x="55.468" y="135.948"/><use xlink:href="#k" x="59.129" y="135.948"/><use xlink:href="#p" x="62.79" y="135.948"/><use xlink:href="#D" x="66.451" y="135.948"/><use xlink:href="#r" x="70.113" y="135.948"/><use xlink:href="#C" x="73.774" y="135.948"/><use xlink:href="#y" x="81.096" y="135.948"/><use xlink:href="#n" x="84.758" y="135.948"/><use xlink:href="#k" x="88.419" y="135.948"/><use xlink:href="#r" x="92.08" y="135.948"/><use xlink:href="#t" x="95.742" y="135.948"/><path fill="none" stroke="#000" stroke-miterlimit="10" stroke-width=".399" d="m201.93 141.434 2.82-2.817m-2.82 0 2.82 2.817"/><use xlink:href="#j" x="177.71" y="148.372"/><use xlink:href="#k" x="181.371" y="148.372"/><use xlink:href="#l" x="185.033" y="148.372"/><use xlink:href="#k" x="188.694" y="148.372"/><use xlink:href="#p" x="192.355" y="148.372"/><use xlink:href="#D" x="196.016" y="148.372"/><use xlink:href="#r" x="199.678" y="148.372"/><use xlink:href="#C" x="203.339" y="148.372"/><use xlink:href="#n" x="210.661" y="148.372"/><use xlink:href="#u" x="214.323" y="148.372"/><use xlink:href="#k" x="217.984" y="148.372"/><use xlink:href="#r" x="221.645" y="148.372"/><use xlink:href="#t" x="225.307" y="148.372"/><path fill="none" stroke="#000" stroke-miterlimit="10" stroke-width=".399" d="m26.59 36.418 2.816-2.816m-2.816 0 2.816 2.816"/><use xlink:href="#j" x="15.185" y="30.934"/><use xlink:href="#k" x="18.846" y="30.934"/><use xlink:href="#l" x="22.508" y="30.934"/><use xlink:href="#E" x="26.169" y="30.934"/><use xlink:href="#F" x="29.83" y="30.934"/><use xlink:href="#G" x="33.491" y="30.934"/><use xlink:href="#t" x="37.153" y="30.934"/></svg>