<svg xmlns="http://www.w3.org/2000/svg" xmlns:xlink="http://www.w3.org/1999/xlink" width="409.232" height="158.222"><defs><path id="a" d="M5.516-.234c0-.235-.125-.235-.266-.235-.61-.015-.61-.14-.61-.375v-2.14c0-.891-.702-1.532-2.187-1.532-.562 0-1.781.047-1.781.922 0 .438.344.625.61.625.312 0 .624-.219.624-.625 0-.297-.187-.469-.218-.5a5 5 0 0 1 .718-.062c.75 0 1.11.422 1.11 1.172v.343c-.72.032-3.25.125-3.25 1.563C.266-.125 1.5.062 2.188.062c.796 0 1.265-.406 1.484-.828 0 .313 0 .766 1.047.766h.468c.204 0 .329 0 .329-.234m-2-1.157c0 .97-.922 1.094-1.172 1.094-.516 0-.906-.344-.906-.797 0-1.062 1.578-1.203 2.078-1.234Zm0 0"/><path id="l" d="M5.984-2.219c0-1.328-.937-2.265-2.39-2.265-.719 0-1.219.28-1.453.484v-2.922l-1.766.078v.469c.61 0 .688 0 .688.39V0h.468c.157-.187.328-.375.485-.562.078.078.562.625 1.453.625 1.484 0 2.515-.907 2.515-2.282m-1.28 0c0 .469 0 1.016-.25 1.406-.298.407-.75.516-1.079.516-.687 0-1.078-.547-1.187-.687v-2.5c.28-.36.75-.641 1.296-.641 1.22 0 1.22 1.203 1.22 1.906m0 0"/><path id="q" d="M4.766-1.172c0-.14-.141-.14-.235-.14-.187 0-.187.03-.25.156-.25.625-.734.812-1.234.812-1.39 0-1.39-1.453-1.39-1.922 0-.562 0-1.843 1.28-1.843.36 0 .516.015.657.046a.62.62 0 0 0-.203.47c0 .437.343.624.609.624.313 0 .64-.219.64-.625 0-.86-1.156-.922-1.734-.922C1.11-4.516.375-3.375.375-2.219.375-.89 1.313.063 2.844.063c1.625 0 1.922-1.157 1.922-1.235m0 0"/><path id="t" d="M5.984 0v-.469c-.609 0-.687 0-.687-.39v-6.063l-1.766.078v.469c.625 0 .703 0 .703.39v1.954a2.18 2.18 0 0 0-1.359-.453c-1.453 0-2.5.875-2.5 2.28 0 1.313.922 2.267 2.39 2.267.61 0 1.094-.235 1.407-.485v.485ZM4.172-1.031c-.14.187-.547.734-1.297.734-1.219 0-1.219-1.203-1.219-1.906 0-.485 0-1.016.25-1.406.297-.422.766-.516 1.078-.516.563 0 .97.313 1.188.61Zm0 0"/><path id="v" d="M4.922-1.172c0-.172-.188-.172-.234-.172-.172 0-.188.047-.25.203-.204.485-.782.797-1.422.797-1.407 0-1.422-1.328-1.422-1.828h3.015c.22 0 .313 0 .313-.265 0-.313-.063-1.047-.563-1.547-.359-.36-.89-.532-1.578-.532C1.187-4.516.313-3.484.313-2.25c0 1.344 1 2.313 2.609 2.313 1.578 0 2-1.063 2-1.235M3.984-2.5h-2.39c.015-.39.031-.812.234-1.14.266-.391.672-.516.953-.516 1.172 0 1.188 1.312 1.203 1.656m0 0"/><path id="z" d="M4.36-6.11c0-.421-.36-.874-1.141-.874-.969 0-2.047.422-2.047 1.547v1.015h-.75v.469h.75V-.47H.484V0l1.25-.031c.375 0 1.016 0 1.375.031v-.469H2.25v-3.484h1.14v-.469H2.188v-1.016c0-1.093.75-1.187 1-1.187.047 0 .11 0 .172.031a.59.59 0 0 0-.234.485c0 .422.36.609.61.609.296 0 .624-.203.624-.61m0 0"/><path id="A" d="M5.563-3.953c0-.235-.172-.578-.625-.578-.157 0-.625.031-1.063.375-.172-.125-.594-.328-1.328-.328-1.438 0-1.985.78-1.985 1.468 0 .407.188.829.516 1.047-.281.36-.344.688-.344.89 0 .157.047.642.438.954-.125.031-.86.25-.86.875C.313 1.25.876 2 2.86 2 4.625 2 5.406 1.422 5.406.719c0-.297-.078-.922-.75-1.266-.562-.281-1.156-.281-2.11-.281-.265 0-.718 0-.765-.016a.625.625 0 0 1-.562-.625c0-.093.047-.25.11-.328.452.234.968.266 1.218.266 1.437 0 1.984-.782 1.984-1.485 0-.468-.25-.796-.406-.953.297-.156.516-.172.625-.187a.43.43 0 0 0-.047.203c0 .25.172.422.438.422a.41.41 0 0 0 .422-.422m-2.141.937c0 .454 0 1.125-.875 1.125s-.875-.671-.875-1.125c0-.437 0-1.109.875-1.109s.875.672.875 1.11M4.547.75c0 .36-.39.89-1.688.89-1.187 0-1.687-.452-1.687-.906 0-.609.625-.609.766-.609h1.171c.313 0 1.438 0 1.438.625m0 0"/><path id="B" d="M6.125 0v-.469h-.687v-2.578c0-1.047-.532-1.437-1.532-1.437a1.9 1.9 0 0 0-1.687.953v-3.39l-1.766.077v.469c.61 0 .688 0 .688.39v5.516H.453V0l1.25-.031L2.953 0v-.469h-.687v-2.078c0-1.094.859-1.578 1.5-1.578.328 0 .547.203.547.969V-.47h-.688V0l1.25-.031Zm0 0"/><path id="C" d="M2.844 0v-.469h-.61v-4.015L.5-4.406v.468c.594 0 .656 0 .656.391v3.078H.47V0l1.219-.031Zm-.469-6.047a.774.774 0 0 0-.781-.781.784.784 0 0 0-.782.781c0 .422.36.766.782.766a.77.77 0 0 0 .781-.766m0 0"/><path id="D" d="M2.656.422v-4.906l-1.828.078v.468c.172 0 .39 0 .531.016.22.047.22.172.22.39V.423c0 .5-.141 1.219-.735 1.219-.172 0-.25-.032-.39-.063a.62.62 0 0 0 .233-.5.617.617 0 0 0-.624-.625c-.375 0-.625.281-.625.64 0 .563.609.907 1.421.907.86 0 1.797-.531 1.797-1.578m0-6.469a.774.774 0 1 0-1.547-.015.774.774 0 0 0 1.547.015m0 0"/><path id="E" d="M5.86 0v-.469h-.173c-.437 0-.468-.047-.593-.203L3.406-2.766 4.703-3.78c.14-.11.234-.172.906-.172v-.469c-.28.031-.53.031-.78.031l-1.157-.03v.468c.234 0 .265.031.344.11L2.14-2.36v-4.563l-1.766.078v.469c.61 0 .688 0 .688.39v5.516H.375V0l1.188-.031L2.766 0v-.469h-.688v-1.265c.297-.235.375-.297.578-.422l1 1.25c.094.125.25.312.25.344 0 .093-.172.093-.312.093V0a53 53 0 0 1 1.219-.031c.359 0 .703.015 1.046.031m0 0"/><path id="F" d="M2.922 0v-.469h-.688v-6.453L.47-6.844v.469c.625 0 .687 0 .687.39v5.516H.47V0l1.219-.031Zm0 0"/><path id="b" d="M7.313-3.078v-.344c-.188.016-.422.016-.625.016l-.75-.016v.344h.484L5.344-.562 4.266-3.078h.422v-.344l-.891.016-.781-.016v.344h.453l.078.203-.969 2.313L1.5-3.078h.422v-.344l-.89.016-.782-.016v.344h.453l1.266 3c.078.156.172.156.265.156h.313c.094 0 .203 0 .265-.14l.97-2.282.968 2.282c.063.14.172.14.266.14h.312c.188 0 .203-.047.25-.156l1.281-3Zm0 0"/><path id="c" d="M1.813 0v-.328h-.329V-2.25l-.968.031v.344c.312 0 .343 0 .343.188v1.359H.5V0c.219-.016.453-.016.672-.016.203 0 .422 0 .64.016m-.297-3a.42.42 0 0 0-.422-.422c-.25 0-.438.188-.438.406 0 .25.203.422.438.422A.417.417 0 0 0 1.516-3m0 0"/><path id="d" d="M3.766 0v-.328c-.328 0-.36 0-.36-.203v-2.922l-.984.031v.344c.312 0 .36 0 .36.187v.844c-.204-.11-.5-.203-.891-.203-1.078 0-1.563.563-1.563 1.156 0 .532.422 1.14 1.485 1.14.39 0 .703-.108.921-.25v.25ZM2.734-.656a1.04 1.04 0 0 1-.843.422c-.813 0-.813-.594-.813-.86 0-.265 0-.875.875-.875.219 0 .469.047.688.219.093.078.093.094.093.188Zm0 0"/><path id="e" d="M2.484-.594v-.234h-.406v.219c0 .14-.047.343-.344.343-.312 0-.312-.203-.312-.343v-1.266h.953v-.344h-.953v-.953H1c0 .516-.266 1-.781 1.016v.281H.75v1.281c0 .563.547.64.875.64.36 0 .86-.14.86-.64m0 0"/><path id="f" d="M3.875 0v-.328h-.36v-1.14c0-.735-.609-.782-.968-.782-.5 0-.844.172-1.078.469v-1.672l-.985.031v.344c.313 0 .36 0 .36.187v2.563h-.36V0l.688-.016c.187 0 .469 0 .687.016v-.328H1.5v-.875c0-.61.625-.766.922-.766.328 0 .422.125.422.485v1.156h-.36V0l.704-.016c.171 0 .468 0 .687.016m0 0"/><path id="g" d="M1.516-1.781a.434.434 0 0 0-.422-.438.447.447 0 0 0-.438.438c0 .234.203.422.438.422a.42.42 0 0 0 .422-.422m0 1.36a.434.434 0 0 0-.422-.438.447.447 0 0 0-.438.437c0 .235.203.422.438.422a.42.42 0 0 0 .422-.422m0 0"/><path id="h" d="M3.422-1.578c0-.844-.219-1.719-1.531-1.719-1.313 0-1.532.86-1.532 1.719C.36-.688.625.078 1.891.078c1.28 0 1.53-.797 1.53-1.656m-.75-.078c0 .312 0 .781-.078 1.015-.125.407-.516.454-.703.454-.203 0-.594-.063-.703-.454-.079-.25-.079-.656-.079-1.015 0-.36 0-.75.094-1 .078-.219.344-.36.688-.36.297 0 .593.094.703.391.078.234.078.64.078.969m0 0"/><path id="i" d="M5.172-1.687c0-1.032-.875-1.735-2.14-1.735H.483v.344H1v2.75H.484V0h2.547c1.297 0 2.14-.687 2.14-1.687m-.813 0c0 .468-.03 1.359-1.53 1.359H1.75v-2.75h1.078c.375 0 .797.062 1.094.281.25.188.437.453.437 1.11m0 0"/><path id="j" d="M3.172-.547c0-.125-.125-.125-.203-.125h-.031c-.094 0-.126 0-.172.063-.047.093-.188.343-.72.343-.64 0-.968-.25-1.015-.718H2.97c.11 0 .203 0 .203-.157 0-.296-.11-.625-.328-.812-.235-.203-.531-.313-1.016-.313-1.125 0-1.547.61-1.547 1.141S.703.047 1.921.047c.126 0 .47 0 .782-.125.328-.14.469-.406.469-.469m-.516-.687H1.031c.016-.188.016-.766.797-.766.672 0 .813.438.828.766m0 0"/><path id="k" d="M3.86-1.11c0-.546-.407-1.14-1.454-1.14-.187 0-.61.016-1 .219v-.219l-.984.031v.344H.5c.281 0 .281.031.281.172V.64h-.36v.328L1.11.953l.688.016V.64h-.36v-.828c.141.093.438.234.86.234C3.328.047 3.859-.5 3.859-1.11m-.75 0c0 .548-.376.876-.891.876-.235 0-.531-.078-.781-.407v-.984c.25-.266.64-.312.843-.312.547 0 .828.359.828.828m0 0"/><path id="m" d="M3.39-.906c0-.438-.406-.735-.89-.844.297-.094.688-.344.688-.812 0-.407-.454-.735-1.344-.735-.797 0-1.25.344-1.25.797 0 .281.219.422.39.422a.394.394 0 0 0 .407-.406c0-.25-.188-.36-.188-.36.203-.14.453-.172.625-.172.484 0 .594.204.594.454 0 .203-.125.656-.735.671-.046 0-.265.016-.312.016-.078.016-.078.11-.078.14 0 .141.078.141.172.141h.343c.672 0 .72.407.72.688 0 .25-.032.687-.72.687-.109 0-.484-.015-.75-.172A.44.44 0 0 0 1.25-.75a.427.427 0 0 0-.437-.437c-.25 0-.422.171-.422.437 0 .5.484.828 1.437.828 1.235 0 1.563-.594 1.563-.984m0 0"/><path id="n" d="M3.188 0v-.328H2.28V-3.11c0-.157-.015-.188-.187-.188H2c-.437.328-1.078.328-1.187.328H.672v.328h.14c.063 0 .438 0 .813-.125v2.438H.719V0c.25-.016.953-.016 1.234-.016s1 0 1.235.016m0 0"/><path id="o" d="M1.516-.422a.434.434 0 0 0-.422-.437.447.447 0 0 0-.438.437c0 .235.203.422.438.422a.42.42 0 0 0 .422-.422m0 0"/><path id="p" d="M3.39-1.64c0-1-.437-1.657-1.484-1.657-.39 0-.687.047-1.015.235-.391.25-.5.546-.5.874 0 .657.53 1.094 1.375 1.094.406 0 .672-.187.843-.406 0 .297 0 .656-.203.922-.25.328-.64.36-.828.36-.047 0-.25 0-.406-.079 0 0 .14-.11.14-.312a.36.36 0 0 0-.375-.375.364.364 0 0 0-.375.39c0 .672.86.672 1.032.672 1.031 0 1.797-.61 1.797-1.719m-.796-.516c0 .5-.36.781-.766.781-.656 0-.656-.406-.656-.812 0-.391 0-.829.734-.829.625 0 .688.485.688.86m0 0"/><path id="r" d="M3.39-1.031c0-.657-.546-1.094-1.374-1.094-.328 0-.641.14-.844.406.016-.453.031-.718.281-.984.14-.156.438-.313.828-.313.047 0 .219 0 .36.094-.047.016-.172.125-.172.313a.36.36 0 0 0 .375.375c.156 0 .36-.11.36-.375 0-.25-.126-.688-.923-.688-1.11 0-1.89.64-1.89 1.703S.875.078 1.906.078c.313 0 .657-.015 1-.25.266-.172.485-.406.485-.86m-.78 0c0 .406 0 .812-.704.812-.656 0-.718-.484-.718-.875 0-.375.265-.75.765-.75.656 0 .656.39.656.813m0 0"/><path id="s" d="M3.328-1.047h-.406c-.031.188-.11.313-.156.328-.11.016-.328.016-.5.016H1.53c.313-.203.61-.39.828-.516.563-.312.97-.531.97-1.047 0-.625-.563-1.03-1.548-1.03-.234 0-1.343 0-1.343.733 0 .297.25.422.421.422.188 0 .407-.14.407-.406 0-.187-.11-.297-.125-.312.172-.094.359-.094.468-.094.5 0 .938.234.938.687 0 .391-.313.688-.625.907L.532-.344C.436-.28.436-.266.436-.156V0h2.704Zm0 0"/><path id="u" d="M3.594-3.203H2.359L1.266-3.22c-.125 0-.141-.062-.157-.11H.703L.484-2.155h.422a.7.7 0 0 1 .11-.297c.03-.031.03-.031.078-.031.125-.016.343-.016.515-.016h.907c-.36.328-.485.438-.641.656-.5.657-.562 1.25-.562 1.516 0 .39.328.406.375.406.156 0 .234-.062.265-.094.11-.109.11-.234.11-.328.015-1.203.343-1.515.671-1.812l.313-.281.5-.47c.015-.015.031-.03.047-.062zm0 0"/><path id="w" d="M3.328-1c0-.5-.39-1.062-1.39-1.062a1.8 1.8 0 0 0-.782.156v-.547c.188.031.407.031.407.031A1.94 1.94 0 0 0 2.968-3c.078-.078.078-.078.078-.156 0-.031 0-.14-.11-.14 0 0-.015 0-.046.015-.203.047-.547.14-1.016.14-.344 0-.672-.046-1-.14-.047-.016-.062-.016-.078-.016-.11 0-.11.11-.11.188v1.5c0 .156.032.187.188.187.11 0 .11 0 .203-.094.078-.062.281-.28.828-.28.657 0 .657.468.657.765s0 .812-.844.812c-.078 0-.453 0-.688-.203a.39.39 0 0 0 .203-.344.4.4 0 0 0-.39-.406c-.188 0-.406.125-.406.406 0 .485.5.844 1.296.844C2.844.078 3.328-.453 3.328-1m0 0"/><path id="x" d="M3.39-.922c0-.39-.265-.703-.765-.906.453-.203.563-.469.563-.703 0-.719-.876-.766-1.282-.766-.547 0-1.312.156-1.312.906 0 .407.328.641.5.735-.375.14-.703.375-.703.843 0 .844.968.891 1.484.891.25 0 1.516 0 1.516-1m-.703-1.594c0 .235-.156.407-.437.516l-.703-.312c-.344-.157-.453-.204-.453-.36 0-.219.172-.344.765-.344.313 0 .829.047.829.5m.126 1.844c0 .281-.22.453-.907.453-.39 0-.937-.078-.937-.593 0-.313.187-.516.547-.657l.984.438c.031 0 .313.125.313.36m0 0"/><path id="y" d="M3.5 0v-.328h-.656v-.438H3.5v-.343h-.656v-2.032c0-.156-.031-.187-.188-.187h-.36c-.124 0-.155 0-.202.078L.28-1.11v.344h1.86v.438h-.703V0c.234-.016.765-.016 1.046-.016.266 0 .75 0 1.016.016M2.219-1.11h-1.5l1.5-1.78Zm0 0"/></defs><use xlink:href="#a" x=".37" y="5.13"/><use xlink:href="#b" x=".37" y="13.1"/><use xlink:href="#c" x="7.927" y="13.1"/><use xlink:href="#d" x="10.099" y="13.1"/><use xlink:href="#e" x="14.278" y="13.1"/><use xlink:href="#f" x="17.252" y="13.1"/><use xlink:href="#g" x="21.431" y="13.1"/><use xlink:href="#h" x="27.035" y="13.1"/><use xlink:href="#i" x=".37" y="19.078"/><use xlink:href="#j" x="6.039" y="19.078"/><use xlink:href="#k" x="9.486" y="19.078"/><use xlink:href="#e" x="13.665" y="19.078"/><use xlink:href="#f" x="16.639" y="19.078"/><use xlink:href="#g" x="20.818" y="19.078"/><use xlink:href="#h" x="26.422" y="19.078"/><use xlink:href="#l" x=".37" y="39.312"/><use xlink:href="#b" x=".37" y="47.282"/><use xlink:href="#c" x="7.927" y="47.282"/><use xlink:href="#d" x="10.099" y="47.282"/><use xlink:href="#e" x="14.278" y="47.282"/><use xlink:href="#f" x="17.252" y="47.282"/><use xlink:href="#g" x="21.431" y="47.282"/><use xlink:href="#h" x="27.035" y="47.282"/><use xlink:href="#i" x=".37" y="53.26"/><use xlink:href="#j" x="6.039" y="53.26"/><use xlink:href="#k" x="9.486" y="53.26"/><use xlink:href="#e" x="13.665" y="53.26"/><use xlink:href="#f" x="16.639" y="53.26"/><use xlink:href="#g" x="20.818" y="53.26"/><use xlink:href="#m" x="26.422" y="53.26"/><use xlink:href="#n" x="30.198" y="53.26"/><use xlink:href="#o" x="33.974" y="53.26"/><use xlink:href="#p" x="36.146" y="53.26"/><use xlink:href="#q" x=".37" y="71.093"/><use xlink:href="#b" x=".37" y="79.063"/><use xlink:href="#c" x="7.927" y="79.063"/><use xlink:href="#d" x="10.099" y="79.063"/><use xlink:href="#e" x="14.278" y="79.063"/><use xlink:href="#f" x="17.252" y="79.063"/><use xlink:href="#g" x="21.431" y="79.063"/><use xlink:href="#h" x="27.035" y="79.063"/><use xlink:href="#i" x=".37" y="85.041"/><use xlink:href="#j" x="6.039" y="85.041"/><use xlink:href="#k" x="9.486" y="85.041"/><use xlink:href="#e" x="13.665" y="85.041"/><use xlink:href="#f" x="16.639" y="85.041"/><use xlink:href="#g" x="20.818" y="85.041"/><use xlink:href="#r" x="26.422" y="85.041"/><use xlink:href="#r" x="30.198" y="85.041"/><use xlink:href="#o" x="33.974" y="85.041"/><use xlink:href="#s" x="36.146" y="85.041"/><use xlink:href="#h" x="39.922" y="85.041"/><use xlink:href="#p" x="43.698" y="85.041"/><use xlink:href="#p" x="47.473" y="85.041"/><use xlink:href="#p" x="51.249" y="85.041"/><use xlink:href="#t" x="67.381" y="73.494"/><use xlink:href="#b" x="67.381" y="81.464"/><use xlink:href="#c" x="74.938" y="81.464"/><use xlink:href="#d" x="77.11" y="81.464"/><use xlink:href="#e" x="81.289" y="81.464"/><use xlink:href="#f" x="84.263" y="81.464"/><use xlink:href="#g" x="88.442" y="81.464"/><use xlink:href="#r" x="94.046" y="81.464"/><use xlink:href="#u" x="97.822" y="81.464"/><use xlink:href="#o" x="101.598" y="81.464"/><use xlink:href="#s" x="103.77" y="81.464"/><use xlink:href="#r" x="107.545" y="81.464"/><use xlink:href="#n" x="111.321" y="81.464"/><use xlink:href="#r" x="115.097" y="81.464"/><use xlink:href="#m" x="118.873" y="81.464"/><use xlink:href="#i" x="67.381" y="87.442"/><use xlink:href="#j" x="73.05" y="87.442"/><use xlink:href="#k" x="76.497" y="87.442"/><use xlink:href="#e" x="80.676" y="87.442"/><use xlink:href="#f" x="83.65" y="87.442"/><use xlink:href="#g" x="87.829" y="87.442"/><use xlink:href="#r" x="93.433" y="87.442"/><use xlink:href="#r" x="97.209" y="87.442"/><use xlink:href="#o" x="100.985" y="87.442"/><use xlink:href="#s" x="103.157" y="87.442"/><use xlink:href="#h" x="106.933" y="87.442"/><use xlink:href="#p" x="110.709" y="87.442"/><use xlink:href="#p" x="114.484" y="87.442"/><use xlink:href="#p" x="118.26" y="87.442"/><path fill="none" stroke="#000" stroke-miterlimit="10" stroke-width=".399" d="m56.223 76.805 9.566.172"/><path fill="none" stroke="#000" stroke-linecap="round" stroke-linejoin="round" stroke-miterlimit="10" stroke-width=".39899202" d="M63.957 74.55c.355 1.442 1.184 2.134 2.031 2.427-.855.265-1.71.925-2.117 2.355"/><use xlink:href="#v" x="135.004" y="71.093"/><use xlink:href="#b" x="135.004" y="79.063"/><use xlink:href="#c" x="142.561" y="79.063"/><use xlink:href="#d" x="144.733" y="79.063"/><use xlink:href="#e" x="148.912" y="79.063"/><use xlink:href="#f" x="151.886" y="79.063"/><use xlink:href="#g" x="156.065" y="79.063"/><use xlink:href="#n" x="161.669" y="79.063"/><use xlink:href="#m" x="165.445" y="79.063"/><use xlink:href="#w" x="169.221" y="79.063"/><use xlink:href="#o" x="172.997" y="79.063"/><use xlink:href="#n" x="175.168" y="79.063"/><use xlink:href="#m" x="178.944" y="79.063"/><use xlink:href="#x" x="182.72" y="79.063"/><use xlink:href="#s" x="186.496" y="79.063"/><use xlink:href="#y" x="190.272" y="79.063"/><use xlink:href="#i" x="135.004" y="85.041"/><use xlink:href="#j" x="140.673" y="85.041"/><use xlink:href="#k" x="144.12" y="85.041"/><use xlink:href="#e" x="148.299" y="85.041"/><use xlink:href="#f" x="151.273" y="85.041"/><use xlink:href="#g" x="155.452" y="85.041"/><use xlink:href="#r" x="161.056" y="85.041"/><use xlink:href="#r" x="164.832" y="85.041"/><use xlink:href="#o" x="168.608" y="85.041"/><use xlink:href="#s" x="170.78" y="85.041"/><use xlink:href="#h" x="174.556" y="85.041"/><use xlink:href="#p" x="178.332" y="85.041"/><use xlink:href="#p" x="182.107" y="85.041"/><use xlink:href="#p" x="185.883" y="85.041"/><use xlink:href="#z" x="206.402" y="73.554"/><use xlink:href="#b" x="206.402" y="81.524"/><use xlink:href="#c" x="213.959" y="81.524"/><use xlink:href="#d" x="216.131" y="81.524"/><use xlink:href="#e" x="220.31" y="81.524"/><use xlink:href="#f" x="223.284" y="81.524"/><use xlink:href="#g" x="227.463" y="81.524"/><use xlink:href="#s" x="233.067" y="81.524"/><use xlink:href="#h" x="236.843" y="81.524"/><use xlink:href="#r" x="240.619" y="81.524"/><use xlink:href="#o" x="244.395" y="81.524"/><use xlink:href="#x" x="246.566" y="81.524"/><use xlink:href="#h" x="250.342" y="81.524"/><use xlink:href="#y" x="254.118" y="81.524"/><use xlink:href="#x" x="257.894" y="81.524"/><use xlink:href="#y" x="261.67" y="81.524"/><use xlink:href="#i" x="206.402" y="87.501"/><use xlink:href="#j" x="212.071" y="87.501"/><use xlink:href="#k" x="215.518" y="87.501"/><use xlink:href="#e" x="219.697" y="87.501"/><use xlink:href="#f" x="222.671" y="87.501"/><use xlink:href="#g" x="226.85" y="87.501"/><use xlink:href="#r" x="232.454" y="87.501"/><use xlink:href="#r" x="236.23" y="87.501"/><use xlink:href="#o" x="240.006" y="87.501"/><use xlink:href="#s" x="242.178" y="87.501"/><use xlink:href="#h" x="245.954" y="87.501"/><use xlink:href="#p" x="249.73" y="87.501"/><use xlink:href="#p" x="253.505" y="87.501"/><use xlink:href="#p" x="257.281" y="87.501"/><path fill="none" stroke="#000" stroke-miterlimit="10" stroke-width=".399" d="m195.246 76.824 9.566.164"/><path fill="none" stroke="#000" stroke-linecap="round" stroke-linejoin="round" stroke-miterlimit="10" stroke-width=".399" d="M202.98 74.566c.352 1.442 1.184 2.133 2.032 2.426-.856.266-1.711.926-2.114 2.356"/><use xlink:href="#A" x="277.801" y="71.113"/><use xlink:href="#b" x="277.801" y="79.083"/><use xlink:href="#c" x="285.358" y="79.083"/><use xlink:href="#d" x="287.53" y="79.083"/><use xlink:href="#e" x="291.709" y="79.083"/><use xlink:href="#f" x="294.683" y="79.083"/><use xlink:href="#g" x="298.862" y="79.083"/><use xlink:href="#s" x="304.466" y="79.083"/><use xlink:href="#u" x="308.242" y="79.083"/><use xlink:href="#x" x="312.018" y="79.083"/><use xlink:href="#o" x="315.794" y="79.083"/><use xlink:href="#y" x="317.965" y="79.083"/><use xlink:href="#u" x="321.741" y="79.083"/><use xlink:href="#n" x="325.517" y="79.083"/><use xlink:href="#y" x="329.293" y="79.083"/><use xlink:href="#y" x="333.069" y="79.083"/><use xlink:href="#i" x="277.801" y="85.061"/><use xlink:href="#j" x="283.47" y="85.061"/><use xlink:href="#k" x="286.917" y="85.061"/><use xlink:href="#e" x="291.096" y="85.061"/><use xlink:href="#f" x="294.07" y="85.061"/><use xlink:href="#g" x="298.249" y="85.061"/><use xlink:href="#r" x="303.853" y="85.061"/><use xlink:href="#r" x="307.629" y="85.061"/><use xlink:href="#o" x="311.405" y="85.061"/><use xlink:href="#s" x="313.577" y="85.061"/><use xlink:href="#h" x="317.353" y="85.061"/><use xlink:href="#p" x="321.129" y="85.061"/><use xlink:href="#p" x="324.904" y="85.061"/><use xlink:href="#p" x="328.68" y="85.061"/><path fill="none" stroke="#000" stroke-miterlimit="10" stroke-width=".399" d="m266.648 77 9.563-.164"/><path fill="none" stroke="#000" stroke-linecap="round" stroke-linejoin="round" stroke-miterlimit="10" stroke-width=".399" d="M274.297 74.477c.402 1.43 1.258 2.09 2.113 2.355-.844.293-1.676.984-2.031 2.426"/><use xlink:href="#B" x="135.004" y="107.736"/><use xlink:href="#b" x="135.004" y="115.706"/><use xlink:href="#c" x="142.561" y="115.706"/><use xlink:href="#d" x="144.733" y="115.706"/><use xlink:href="#e" x="148.912" y="115.706"/><use xlink:href="#f" x="151.886" y="115.706"/><use xlink:href="#g" x="156.065" y="115.706"/><use xlink:href="#n" x="161.669" y="115.706"/><use xlink:href="#m" x="165.445" y="115.706"/><use xlink:href="#w" x="169.221" y="115.706"/><use xlink:href="#o" x="172.997" y="115.706"/><use xlink:href="#n" x="175.168" y="115.706"/><use xlink:href="#m" x="178.944" y="115.706"/><use xlink:href="#x" x="182.72" y="115.706"/><use xlink:href="#s" x="186.496" y="115.706"/><use xlink:href="#y" x="190.272" y="115.706"/><use xlink:href="#i" x="135.004" y="121.683"/><use xlink:href="#j" x="140.673" y="121.683"/><use xlink:href="#k" x="144.12" y="121.683"/><use xlink:href="#e" x="148.299" y="121.683"/><use xlink:href="#f" x="151.273" y="121.683"/><use xlink:href="#g" x="155.452" y="121.683"/><use xlink:href="#n" x="161.056" y="121.683"/><use xlink:href="#h" x="164.832" y="121.683"/><use xlink:href="#h" x="168.608" y="121.683"/><use xlink:href="#o" x="172.384" y="121.683"/><use xlink:href="#w" x="174.556" y="121.683"/><use xlink:href="#u" x="178.332" y="121.683"/><use xlink:href="#p" x="182.107" y="121.683"/><use xlink:href="#p" x="185.883" y="121.683"/><use xlink:href="#p" x="189.659" y="121.683"/><use xlink:href="#C" x="206.402" y="107.646"/><use xlink:href="#b" x="206.402" y="115.616"/><use xlink:href="#c" x="213.959" y="115.616"/><use xlink:href="#d" x="216.131" y="115.616"/><use xlink:href="#e" x="220.31" y="115.616"/><use xlink:href="#f" x="223.284" y="115.616"/><use xlink:href="#g" x="227.463" y="115.616"/><use xlink:href="#s" x="233.067" y="115.616"/><use xlink:href="#h" x="236.843" y="115.616"/><use xlink:href="#r" x="240.619" y="115.616"/><use xlink:href="#o" x="244.395" y="115.616"/><use xlink:href="#x" x="246.566" y="115.616"/><use xlink:href="#h" x="250.342" y="115.616"/><use xlink:href="#y" x="254.118" y="115.616"/><use xlink:href="#x" x="257.894" y="115.616"/><use xlink:href="#y" x="261.67" y="115.616"/><use xlink:href="#i" x="206.402" y="121.594"/><use xlink:href="#j" x="212.071" y="121.594"/><use xlink:href="#k" x="215.518" y="121.594"/><use xlink:href="#e" x="219.697" y="121.594"/><use xlink:href="#f" x="222.671" y="121.594"/><use xlink:href="#g" x="226.85" y="121.594"/><use xlink:href="#n" x="232.454" y="121.594"/><use xlink:href="#h" x="236.23" y="121.594"/><use xlink:href="#h" x="240.006" y="121.594"/><use xlink:href="#o" x="243.782" y="121.594"/><use xlink:href="#w" x="245.954" y="121.594"/><use xlink:href="#u" x="249.73" y="121.594"/><use xlink:href="#p" x="253.505" y="121.594"/><use xlink:href="#p" x="257.281" y="121.594"/><use xlink:href="#p" x="261.057" y="121.594"/><path fill="none" stroke="#000" stroke-miterlimit="10" stroke-width=".399" d="m195.246 111.719 9.566-.008"/><path fill="none" stroke="#000" stroke-linecap="round" stroke-linejoin="round" stroke-miterlimit="10" stroke-width=".39899202" d="M202.937 109.32c.38 1.438 1.223 2.114 2.075 2.39-.852.282-1.696.958-2.07 2.395"/><path fill="none" stroke="#000" stroke-miterlimit="10" stroke-width=".399" d="m123.848 76.996 9.562-.164"/><path fill="none" stroke="#000" stroke-linecap="round" stroke-linejoin="round" stroke-miterlimit="10" stroke-width=".399" d="M131.496 74.473c.406 1.43 1.262 2.09 2.113 2.355-.843.293-1.675.984-2.027 2.426"/><path fill="none" stroke="#000" stroke-miterlimit="10" stroke-width=".399" d="m119.605 89.605 19.993 9.848"/><path fill="none" stroke="#000" stroke-linecap="round" stroke-linejoin="round" stroke-miterlimit="10" stroke-width=".39897606" d="M138.973 96.48c-.293 1.454.164 2.434.804 3.06-.886-.126-1.941.108-2.914 1.23"/><use xlink:href="#D" x="349.2" y="73.404"/><use xlink:href="#b" x="349.2" y="81.374"/><use xlink:href="#c" x="356.757" y="81.374"/><use xlink:href="#d" x="358.929" y="81.374"/><use xlink:href="#e" x="363.108" y="81.374"/><use xlink:href="#f" x="366.082" y="81.374"/><use xlink:href="#g" x="370.261" y="81.374"/><use xlink:href="#m" x="375.865" y="81.374"/><use xlink:href="#w" x="379.641" y="81.374"/><use xlink:href="#h" x="383.417" y="81.374"/><use xlink:href="#o" x="387.193" y="81.374"/><use xlink:href="#n" x="389.364" y="81.374"/><use xlink:href="#m" x="393.14" y="81.374"/><use xlink:href="#x" x="396.916" y="81.374"/><use xlink:href="#h" x="400.692" y="81.374"/><use xlink:href="#m" x="404.468" y="81.374"/><use xlink:href="#i" x="349.2" y="87.352"/><use xlink:href="#j" x="354.869" y="87.352"/><use xlink:href="#k" x="358.316" y="87.352"/><use xlink:href="#e" x="362.495" y="87.352"/><use xlink:href="#f" x="365.469" y="87.352"/><use xlink:href="#g" x="369.648" y="87.352"/><use xlink:href="#r" x="375.252" y="87.352"/><use xlink:href="#r" x="379.028" y="87.352"/><use xlink:href="#o" x="382.804" y="87.352"/><use xlink:href="#s" x="384.976" y="87.352"/><use xlink:href="#h" x="388.752" y="87.352"/><use xlink:href="#p" x="392.528" y="87.352"/><use xlink:href="#p" x="396.303" y="87.352"/><use xlink:href="#p" x="400.079" y="87.352"/><path fill="none" stroke="#000" stroke-miterlimit="10" stroke-width=".399" d="m338.047 76.797 9.562.156"/><path fill="none" stroke="#000" stroke-linecap="round" stroke-linejoin="round" stroke-miterlimit="10" stroke-width=".39899202" d="M345.777 74.531c.356 1.442 1.188 2.13 2.032 2.422-.852.266-1.707.93-2.11 2.36"/><path fill="none" stroke="#000" stroke-miterlimit="10" stroke-width=".399" d="m266.648 104.332 80.973-19.426"/><path fill="none" stroke="#000" stroke-linecap="round" stroke-linejoin="round" stroke-miterlimit="10" stroke-width=".39897606" d="M345.242 83.016c.703 1.308 1.684 1.77 2.574 1.843-.761.47-1.425 1.325-1.457 2.809"/><use xlink:href="#E" x=".37" y="141.917"/><use xlink:href="#b" x=".37" y="149.887"/><use xlink:href="#c" x="7.927" y="149.887"/><use xlink:href="#d" x="10.099" y="149.887"/><use xlink:href="#e" x="14.278" y="149.887"/><use xlink:href="#f" x="17.252" y="149.887"/><use xlink:href="#g" x="21.431" y="149.887"/><use xlink:href="#h" x="27.035" y="149.887"/><use xlink:href="#i" x=".37" y="155.865"/><use xlink:href="#j" x="6.039" y="155.865"/><use xlink:href="#k" x="9.486" y="155.865"/><use xlink:href="#e" x="13.665" y="155.865"/><use xlink:href="#f" x="16.639" y="155.865"/><use xlink:href="#g" x="20.818" y="155.865"/><use xlink:href="#n" x="26.422" y="155.865"/><use xlink:href="#m" x="30.198" y="155.865"/><use xlink:href="#y" x="33.974" y="155.865"/><use xlink:href="#o" x="37.75" y="155.865"/><use xlink:href="#x" x="39.922" y="155.865"/><use xlink:href="#x" x="43.698" y="155.865"/><use xlink:href="#p" x="47.473" y="155.865"/><use xlink:href="#p" x="51.249" y="155.865"/><use xlink:href="#x" x="55.025" y="155.865"/><use xlink:href="#F" x="71.156" y="141.917"/><use xlink:href="#b" x="71.156" y="149.887"/><use xlink:href="#c" x="78.713" y="149.887"/><use xlink:href="#d" x="80.885" y="149.887"/><use xlink:href="#e" x="85.064" y="149.887"/><use xlink:href="#f" x="88.038" y="149.887"/><use xlink:href="#g" x="92.217" y="149.887"/><use xlink:href="#u" x="97.821" y="149.887"/><use xlink:href="#n" x="101.597" y="149.887"/><use xlink:href="#o" x="105.373" y="149.887"/><use xlink:href="#h" x="107.545" y="149.887"/><use xlink:href="#w" x="111.32" y="149.887"/><use xlink:href="#n" x="115.096" y="149.887"/><use xlink:href="#r" x="118.872" y="149.887"/><use xlink:href="#i" x="71.156" y="155.865"/><use xlink:href="#j" x="76.825" y="155.865"/><use xlink:href="#k" x="80.272" y="155.865"/><use xlink:href="#e" x="84.451" y="155.865"/><use xlink:href="#f" x="87.425" y="155.865"/><use xlink:href="#g" x="91.604" y="155.865"/><use xlink:href="#n" x="97.208" y="155.865"/><use xlink:href="#m" x="100.984" y="155.865"/><use xlink:href="#y" x="104.76" y="155.865"/><use xlink:href="#o" x="108.536" y="155.865"/><use xlink:href="#x" x="110.708" y="155.865"/><use xlink:href="#x" x="114.484" y="155.865"/><use xlink:href="#p" x="118.259" y="155.865"/><use xlink:href="#p" x="122.035" y="155.865"/><use xlink:href="#x" x="125.811" y="155.865"/><path fill="none" stroke="#000" stroke-miterlimit="10" stroke-width=".399" d="M60 145.918h9.563"/><path fill="none" stroke="#000" stroke-linecap="round" stroke-linejoin="round" stroke-miterlimit="10" stroke-width=".399" d="M67.691 143.527c.38 1.438 1.223 2.114 2.07 2.391-.847.281-1.69.957-2.07 2.394"/></svg>