<svg xmlns="http://www.w3.org/2000/svg" xmlns:xlink="http://www.w3.org/1999/xlink" width="286.616" height="42.014"><defs><clipPath id="g"><path d="M72.25 10.55h141.73v19.927H72.25Zm0 0"/></clipPath><clipPath id="b"><path d="M0 0h12v12H0Zm0 0"/></clipPath><clipPath id="a"><path d="M0 0h12v12H0z"/></clipPath><clipPath id="i"><path d="M72.25 10.55h141.734v19.927H72.25Zm0 0"/></clipPath><clipPath id="e"><path d="M0 2h100v2H0Zm0 0"/></clipPath><clipPath id="d"><path d="M0 0h100v4H0z"/></clipPath><pattern id="h" width="12" height="12" x="0" y="0" patternTransform="matrix(.9449 0 0 -.9449 -71.75 13618.551)" patternUnits="userSpaceOnUse"><use xlink:href="#c"/></pattern><pattern id="j" width="100" height="4" x="0" y="0" patternTransform="matrix(.99628 0 0 -.99628 -71.75 13618.551)" patternUnits="userSpaceOnUse"><use xlink:href="#f"/></pattern><g id="c" clip-path="url(#a)"><g clip-path="url(#b)"><path d="M9.202 14358.558H446v64.029H9.202z"/></g><path fill="#CCC" d="M0 0h6v6H0Zm6 6h6v6H6Zm0 0"/></g><g id="f" clip-path="url(#d)"><path fill="#191919" d="M0 0h100v2.5H0Zm0 0"/><g clip-path="url(#e)"><path fill="#262626" d="M0 2h100v2.5H0Zm0 0"/></g></g></defs><g clip-path="url(#g)"><path fill="url(#h)" d="M72.25 30.477h141.73V10.55H72.25Zm0 0"/></g><g clip-path="url(#i)"><path fill="url(#j)" d="M72.25 30.477h141.734V10.55H72.25Zm0 0"/></g></svg>