<svg xmlns="http://www.w3.org/2000/svg" width="100.802" height="73.028"><defs><clipPath id="a"><path d="M0 0h77v72.543H0Zm0 0"/></clipPath></defs><g clip-path="url(#a)"><path fill="none" stroke="#000" stroke-miterlimit="10" stroke-width=".399" d="M1.047 70.547 70.504 1.09"/></g><path fill="none" stroke="#000" stroke-linecap="round" stroke-linejoin="round" stroke-miterlimit="10" stroke-width=".39899601" d="M67.488.723c1.282.746 2.356.629 3.157.226-.407.797-.524 1.875.222 3.156"/><path d="M30.39 70.547a.995.995 0 1 0-1.994-.002.995.995 0 0 0 1.995.002M31.953 63.633a.999.999 0 0 0-1.996 0 1 1 0 0 0 .996.996c.55 0 1-.45 1-.996M32.664 56.867a.995.995 0 1 0-1.99-.001.995.995 0 0 0 1.99.001M32.57 50.395a.995.995 0 1 0-1.994-.002.995.995 0 0 0 1.994.002M31.727 44.355a.995.995 0 1 0-1.991-.001.995.995 0 0 0 1.99.001M30.227 38.867a1 1 0 0 0-.997-.996.995.995 0 1 0 .996.996M28.172 34.043a.995.995 0 1 0-1.99-.002.995.995 0 0 0 1.99.002M25.684 29.96a.995.995 0 1 0-1.99 0 .995.995 0 0 0 1.99 0M22.906 26.688a1 1 0 0 0-.996-.997.998.998 0 0 0 0 1.997c.547 0 .996-.45.996-1M19.977 24.266c0-.551-.45-.996-.997-.996a.995.995 0 1 0 .997.996M17.047 22.703a.998.998 0 0 0-1.996 0 .999.999 0 0 0 1.996 0M14.266 21.992a.995.995 0 1 0-1.99-.001.995.995 0 0 0 1.99.001M11.777 22.086a.995.995 0 1 0-1.99-.002.995.995 0 0 0 1.99.002M9.723 22.93a.995.995 0 1 0-1.99-.002.995.995 0 0 0 1.99.002m0 0"/><path d="M8.223 24.43a.995.995 0 1 0-1.99-.002.995.995 0 0 0 1.99.002M7.383 26.484a.999.999 0 0 0-1.996 0 .998.998 0 0 0 1.996 0M7.285 28.969a1 1 0 0 0-.996-.996.995.995 0 1 0 .996.996M8 31.75a.995.995 0 1 0-1.994-.002A.995.995 0 0 0 8 31.75M9.563 34.68a.998.998 0 0 0-1.997 0 .999.999 0 0 0 1.997 0M11.984 37.61a.995.995 0 1 0-1.99-.002.995.995 0 0 0 1.99.001M15.254 40.39a.995.995 0 1 0-1.99-.001.995.995 0 0 0 1.99.002M19.336 42.875a1 1 0 0 0-.996-.996.995.995 0 1 0 .996.996M24.164 44.93a1 1 0 0 0-.996-.996.998.998 0 0 0 0 1.996c.55 0 .996-.45.996-1M29.648 46.434a.995.995 0 1 0-1.99-.002.995.995 0 0 0 1.99.002M35.688 47.273a.995.995 0 1 0-1.991-.001.995.995 0 0 0 1.99.001M42.16 47.371a.995.995 0 1 0-1.99-.002.995.995 0 0 0 1.99.002M48.926 46.656a.995.995 0 1 0-1.99-.001.995.995 0 0 0 1.99.001M55.84 45.094a.995.995 0 1 0-1.99-.002.995.995 0 0 0 1.99.002M62.754 42.672a.995.995 0 1 0-1.99-.002.995.995 0 0 0 1.99.002M69.52 39.398a1 1 0 0 0-.997-.996.998.998 0 0 0 0 1.996c.551 0 .997-.449.997-1M75.992 35.32a.995.995 0 1 0-1.99-.001.995.995 0 0 0 1.99.001M82.031 30.492a.995.995 0 1 0-1.99-.001.995.995 0 0 0 1.99.001M87.52 25.008a.999.999 0 0 0-1.997 0 1 1 0 0 0 .997.996c.55 0 1-.45 1-.996M92.344 18.965a.995.995 0 1 0-1.99-.002.995.995 0 0 0 1.99.002M96.426 12.496a.995.995 0 1 0-1.99-.002.995.995 0 0 0 1.99.002M99.695 5.73a.995.995 0 1 0-1.99-.001.995.995 0 0 0 1.99.001m0 0"/></svg>