<svg xmlns="http://www.w3.org/2000/svg" xmlns:xlink="http://www.w3.org/1999/xlink" width="260.498" height="204.068"><defs><path id="b" d="M3.078.313c0-.125-.047-.157-.187-.25C2.063-.5 1.75-1.391 1.75-2.125c0-.672.25-1.594 1.156-2.203.125-.094.172-.125.172-.25a.254.254 0 0 0-.265-.25c-.204 0-1.641.906-1.641 2.703 0 .813.312 1.438.562 1.781.375.516.907.907 1.079.907.218 0 .265-.172.265-.25m0 0"/><path id="c" d="M3.219-.906c0-.735-.906-.906-1.14-.938l-.704-.125C1.188-2 1-2.079 1-2.25c0-.156.219-.328.813-.328.515 0 .609.172.625.328.015.14.03.281.28.281.298 0 .298-.156.298-.328v-.469c0-.14-.016-.328-.25-.328-.157 0-.22.063-.25.125-.282-.125-.563-.125-.688-.125-1.187 0-1.344.594-1.344.844 0 .656.735.797 1.391.89.297.063.828.141.828.454 0 .234-.25.422-.828.422-.297 0-.656-.063-.812-.563C1.03-1.203.984-1.28.78-1.28c-.297 0-.297.172-.297.328v.656c0 .14 0 .344.25.344.079 0 .188 0 .282-.234.328.218.672.234.859.234 1.125 0 1.344-.61 1.344-.953m0 0"/><path id="d" d="M2.313-.469a.477.477 0 0 0-.485-.484.47.47 0 0 0-.469.469c0 .28.22.484.47.484a.473.473 0 0 0 .484-.469m0 0"/><path id="e" d="M3.266-.797c0-.234-.235-.234-.297-.234-.125 0-.203 0-.266.172-.047.078-.187.375-.625.375a1.027 1.027 0 0 1-1.015-1.032c0-.312.187-1.062 1.062-1.062l.344.015c.015.282.172.376.36.376.187 0 .358-.126.358-.36 0-.531-.734-.547-1.062-.547-1.219 0-1.64.953-1.64 1.578 0 .844.671 1.563 1.546 1.563 1 0 1.235-.719 1.235-.844m0 0"/><path id="f" d="M3.25-.797c0-.234-.234-.234-.281-.234-.156 0-.219.015-.281.172-.141.328-.485.375-.657.375-.469 0-.937-.297-1.062-.813h1.953c.172 0 .328 0 .328-.312 0-.797-.453-1.485-1.375-1.485-.828 0-1.516.703-1.516 1.563S1.08.047 1.984.047c.938 0 1.266-.656 1.266-.844m-.594-1.015H.97c.125-.438.484-.766.906-.766.328 0 .703.156.781.765m0 0"/><path id="g" d="M3.578-.266c0-.25-.203-.25-.328-.25H3v-1.53c0-.72-.36-1.032-.937-1.032-.391 0-.672.172-.844.297 0-.172-.047-.25-.313-.25h-.5c-.14 0-.328 0-.328.25 0 .265.203.265.313.265h.25v2H.406c-.14 0-.328 0-.328.25C.078 0 .281 0 .391 0h1.093c.11 0 .329 0 .329-.266 0-.25-.204-.25-.344-.25h-.25v-1.156c0-.64.484-.875.797-.875.328 0 .406.172.406.547v1.484h-.203c-.14 0-.344 0-.344.25 0 .266.219.266.344.266H3.25c.11 0 .328 0 .328-.266m0 0"/><path id="h" d="M3.14-.906c0-.156 0-.313-.296-.313-.266 0-.266.157-.266.297-.015.375-.36.438-.515.438-.454 0-.454-.313-.454-.47v-1.562h1.047c.125 0 .328 0 .328-.265 0-.25-.187-.25-.328-.25H1.61v-.516c0-.14-.015-.328-.296-.328-.282 0-.282.172-.282.328v.516H.484c-.125 0-.328 0-.328.25 0 .265.203.265.328.265h.547v1.61c0 .687.485.953 1.016.953S3.14-.266 3.14-.906m0 0"/><path id="i" d="M3.406-2.594c0-.156-.078-.484-.703-.484-.328 0-.734.11-1.094.469v-.094c0-.25-.046-.328-.328-.328h-.75c-.125 0-.328 0-.328.25 0 .265.203.265.328.265h.5v2h-.5c-.125 0-.328 0-.328.25C.203 0 .406 0 .531 0h1.781c.126 0 .329 0 .329-.266 0-.25-.203-.25-.328-.25h-.704v-.796c0-.61.36-1.22 1.11-1.235 0 .156.172.281.344.281.187 0 .343-.125.343-.328m0 0"/><path id="j" d="M2.484-2.125c0-.828-.312-1.453-.562-1.797-.375-.515-.906-.906-1.078-.906-.203 0-.266.187-.266.25 0 .125.094.187.14.219 1.095.718 1.188 1.797 1.188 2.234 0 .656-.25 1.578-1.14 2.188C.64.14.578.188.578.313c0 .078.063.25.266.25s1.64-.907 1.64-2.688m0 0"/><path id="k" d="M3.36-1.234c0-.47-.297-.875-.72-1.094.344-.25.516-.64.516-1 0-.516-.515-1-1.328-1-.86 0-1.344.36-1.344.844 0 .265.204.375.36.375.172 0 .36-.141.36-.36 0-.078-.032-.14-.048-.172.203-.171.625-.171.688-.171.422 0 .734.218.734.5a.72.72 0 0 1-.25.546c-.219.172-.375.188-.61.188-.437 0-.546.062-.546.281 0 .266.203.266.328.266h.313c.64 0 .968.422.968.797 0 .39-.36.78-.937.78-.25 0-.719-.062-.907-.327A.36.36 0 0 0 1-1a.363.363 0 0 0-.36-.36c-.171 0-.343.126-.343.391C.297-.344.969.078 1.844.078c.922 0 1.515-.656 1.515-1.312m0 0"/><path id="l" d="M3.313-2.125c0-1.297-.72-2.203-1.485-2.203-.781 0-1.5.922-1.5 2.203 0 1.297.734 2.203 1.5 2.203.781 0 1.485-.922 1.485-2.203m-.563-.078c0 .969-.422 1.75-.922 1.75-.516 0-.922-.781-.922-1.75 0-.953.438-1.61.922-1.61.469 0 .922.657.922 1.61m0 0"/><path id="m" d="M3.281-1.516c0-.89-.672-1.578-1.453-1.578-.797 0-1.453.688-1.453 1.578S1.047.047 1.828.047c.766 0 1.453-.688 1.453-1.563m-.578-.046c0 .593-.406 1.078-.875 1.078S.953-.97.953-1.562s.422-1.016.875-1.016.875.422.875 1.015m0 0"/><path id="n" d="M3.578-.266c0-.25-.203-.25-.328-.25H3v-1.53c0-.72-.36-1.032-.937-1.032-.391 0-.672.172-.844.297v-1.14c0-.25-.047-.345-.313-.345h-.5c-.14 0-.328.016-.328.266s.203.266.313.266h.25v3.218H.406c-.14 0-.328 0-.328.25C.078 0 .281 0 .391 0h1.093c.11 0 .329 0 .329-.266 0-.25-.204-.25-.344-.25h-.25v-1.156c0-.64.484-.875.797-.875.328 0 .406.172.406.547v1.484h-.203c-.14 0-.344 0-.344.25 0 .266.219.266.344.266H3.25c.11 0 .328 0 .328-.266m0 0"/><path id="o" d="M3.578-.266c0-.25-.219-.25-.328-.25H3v-2.187c0-.25-.047-.328-.328-.328h-.485c-.14 0-.343 0-.343.25 0 .265.218.265.328.265h.25v1.391c0 .563-.516.64-.719.64-.469 0-.484-.187-.484-.39v-1.828c0-.25-.047-.328-.313-.328h-.5c-.14 0-.328 0-.328.25 0 .265.203.265.313.265h.25v1.688c0 .687.5.875 1.03.875.266 0 .517-.063.767-.219C2.484 0 2.625 0 2.75 0h.5c.125 0 .328 0 .328-.266m0 0"/><path id="p" d="M3.625-.266c0-.25-.203-.25-.328-.25-.203 0-.297-.03-.344-.046V-2c0-.5-.375-1.094-1.406-1.094-.313 0-1.031.016-1.031.547 0 .235.172.36.359.36.11 0 .344-.063.344-.36 0 0 .234-.031.343-.031.454 0 .782.187.813.594-1.219.03-2.047.39-2.047 1.062 0 .485.453.969 1.188.969.234 0 .656-.047.968-.25.172.187.485.203.75.203.235 0 .391-.016.391-.266M2.359-.969c0 .14 0 .266-.234.375-.234.11-.516.11-.578.11-.39 0-.64-.203-.64-.438 0-.312.546-.515 1.452-.562Zm0 0"/><path id="q" d="M3.547-2.781c0-.25-.188-.25-.328-.25h-.781c-.157 0-.344 0-.344.25 0 .265.172.265.344.265h.265l-.297 1.72-.14-.532c-.125-.469-.172-.547-.422-.547-.094 0-.235 0-.328.188l-.266.906-.297-1.735h.266c.156 0 .343 0 .343-.265 0-.25-.187-.25-.343-.25H.437c-.14 0-.343 0-.343.25 0 .234.14.265.36.265L.858-.28c.032.187.047.312.36.312.312 0 .343-.062.453-.515l.172-.641.265 1c.094.14.235.156.344.156.281 0 .313-.125.344-.312l.406-2.235c.219 0 .344-.03.344-.265m0 0"/><path id="r" d="M3.188-.266c0-.25-.204-.25-.329-.25h-.656v-2.187c0-.25-.047-.328-.328-.328H.906c-.125 0-.328 0-.328.25 0 .265.203.265.328.265h.719v2H.859c-.14 0-.343 0-.343.25C.516 0 .734 0 .859 0h2c.125 0 .329 0 .329-.266m-.954-3.562a.39.39 0 0 0-.406-.39.387.387 0 0 0-.39.39c0 .219.171.39.39.39a.39.39 0 0 0 .406-.39m0 0"/><path id="s" d="M3.422-1.516c0-.875-.64-1.562-1.39-1.562-.298 0-.579.11-.813.281 0-.172-.063-.234-.313-.234h-.5c-.14 0-.343 0-.343.25 0 .265.218.265.328.265h.25v3.5H.406c-.14 0-.343 0-.343.266 0 .25.218.25.328.25h1.093c.11 0 .329 0 .329-.25 0-.266-.204-.266-.344-.266h-.25V-.234c.265.234.531.28.734.28.766 0 1.469-.671 1.469-1.562m-.578 0c0 .61-.453 1.032-.906 1.032-.485 0-.704-.563-.704-.875v-.485c0-.375.375-.703.766-.703.469 0 .844.469.844 1.031m0 0"/><clipPath id="a"><path d="M0 0h260.246v203.602H0Zm0 0"/></clipPath></defs><path fill="#FFFBB3" d="M43.125 186.613V16.531l162.996 85.04Zm0 0"/><g clip-path="url(#a)"><path fill="none" stroke="#B2B2B2" stroke-miterlimit="10" stroke-width="14.173" d="M43.125 186.613V16.531l162.996 85.04Zm0 0"/></g><path fill="none" stroke="#B2B2B2" stroke-miterlimit="10" stroke-width="14.173" d="M43.125 101.57h170.082"/><path fill="none" stroke="#000" stroke-miterlimit="10" stroke-width=".399" d="m126.758 102.98 2.816-2.816m-2.816 0 2.816 2.816"/><use xlink:href="#b" x="109.86" y="97.494"/><use xlink:href="#c" x="113.521" y="97.494"/><use xlink:href="#d" x="117.183" y="97.494"/><use xlink:href="#e" x="120.844" y="97.494"/><use xlink:href="#f" x="124.505" y="97.494"/><use xlink:href="#g" x="128.166" y="97.494"/><use xlink:href="#h" x="131.828" y="97.494"/><use xlink:href="#f" x="135.489" y="97.494"/><use xlink:href="#i" x="139.15" y="97.494"/><use xlink:href="#j" x="142.811" y="97.494"/><path fill="none" stroke="#000" stroke-miterlimit="10" stroke-width=".399" d="m218.887 49.79 2.816-2.817m-2.816 0 2.816 2.816"/><use xlink:href="#b" x="223.812" y="44.303"/><use xlink:href="#c" x="227.473" y="44.303"/><use xlink:href="#d" x="231.135" y="44.303"/><use xlink:href="#k" x="234.796" y="44.303"/><use xlink:href="#l" x="238.457" y="44.303"/><use xlink:href="#j" x="242.118" y="44.303"/><path fill="none" stroke="#000" stroke-miterlimit="10" stroke-width=".399" d="m126.758 10.855 2.816-2.82m-2.816 0 2.816 2.82"/><use xlink:href="#b" x="111.691" y="5.368"/><use xlink:href="#c" x="115.352" y="5.368"/><use xlink:href="#d" x="119.014" y="5.368"/><use xlink:href="#g" x="122.675" y="5.368"/><use xlink:href="#m" x="126.336" y="5.368"/><use xlink:href="#i" x="129.997" y="5.368"/><use xlink:href="#h" x="133.659" y="5.368"/><use xlink:href="#n" x="137.32" y="5.368"/><use xlink:href="#j" x="140.981" y="5.368"/><path fill="none" stroke="#000" stroke-miterlimit="10" stroke-width=".399" d="m126.758 195.11 2.816-2.82m-2.816 0 2.816 2.82"/><use xlink:href="#b" x="111.691" y="202.044"/><use xlink:href="#c" x="115.352" y="202.044"/><use xlink:href="#d" x="119.014" y="202.044"/><use xlink:href="#c" x="122.675" y="202.044"/><use xlink:href="#m" x="126.336" y="202.044"/><use xlink:href="#o" x="129.997" y="202.044"/><use xlink:href="#h" x="133.659" y="202.044"/><use xlink:href="#n" x="137.32" y="202.044"/><use xlink:href="#j" x="140.981" y="202.044"/><path fill="none" stroke="#000" stroke-miterlimit="10" stroke-width=".399" d="m218.887 102.98 2.816-2.816m-2.816 0 2.816 2.816"/><use xlink:href="#b" x="187.483" y="103.706"/><use xlink:href="#c" x="191.144" y="103.706"/><use xlink:href="#d" x="194.806" y="103.706"/><use xlink:href="#f" x="198.467" y="103.706"/><use xlink:href="#p" x="202.128" y="103.706"/><use xlink:href="#c" x="205.789" y="103.706"/><use xlink:href="#h" x="209.451" y="103.706"/><use xlink:href="#j" x="213.112" y="103.706"/><path fill="none" stroke="#000" stroke-miterlimit="10" stroke-width=".399" d="m34.633 102.98 2.816-2.816m-2.816 0 2.816 2.816"/><use xlink:href="#b" x="39.561" y="103.706"/><use xlink:href="#c" x="43.222" y="103.706"/><use xlink:href="#d" x="46.884" y="103.706"/><use xlink:href="#q" x="50.545" y="103.706"/><use xlink:href="#f" x="54.206" y="103.706"/><use xlink:href="#c" x="57.867" y="103.706"/><use xlink:href="#h" x="61.529" y="103.706"/><use xlink:href="#j" x="65.19" y="103.706"/><path fill="none" stroke="#000" stroke-miterlimit="10" stroke-width=".399" d="m218.887 10.855 2.816-2.82m-2.816 0 2.816 2.82"/><use xlink:href="#b" x="194.664" y="5.368"/><use xlink:href="#c" x="198.325" y="5.368"/><use xlink:href="#d" x="201.987" y="5.368"/><use xlink:href="#g" x="205.648" y="5.368"/><use xlink:href="#m" x="209.309" y="5.368"/><use xlink:href="#i" x="212.97" y="5.368"/><use xlink:href="#h" x="216.632" y="5.368"/><use xlink:href="#n" x="220.293" y="5.368"/><use xlink:href="#f" x="227.615" y="5.368"/><use xlink:href="#p" x="231.277" y="5.368"/><use xlink:href="#c" x="234.938" y="5.368"/><use xlink:href="#h" x="238.599" y="5.368"/><use xlink:href="#j" x="242.261" y="5.368"/><path fill="none" stroke="#000" stroke-miterlimit="10" stroke-width=".399" d="m218.887 195.11 2.816-2.82m-2.816 0 2.816 2.82"/><use xlink:href="#b" x="194.664" y="202.044"/><use xlink:href="#c" x="198.325" y="202.044"/><use xlink:href="#d" x="201.987" y="202.044"/><use xlink:href="#c" x="205.648" y="202.044"/><use xlink:href="#m" x="209.309" y="202.044"/><use xlink:href="#o" x="212.97" y="202.044"/><use xlink:href="#h" x="216.632" y="202.044"/><use xlink:href="#n" x="220.293" y="202.044"/><use xlink:href="#f" x="227.615" y="202.044"/><use xlink:href="#p" x="231.277" y="202.044"/><use xlink:href="#c" x="234.938" y="202.044"/><use xlink:href="#h" x="238.599" y="202.044"/><use xlink:href="#j" x="242.261" y="202.044"/><path fill="none" stroke="#000" stroke-miterlimit="10" stroke-width=".399" d="m34.633 195.11 2.816-2.82m-2.816 0 2.816 2.82"/><use xlink:href="#b" x="10.412" y="202.044"/><use xlink:href="#c" x="14.073" y="202.044"/><use xlink:href="#d" x="17.735" y="202.044"/><use xlink:href="#c" x="21.396" y="202.044"/><use xlink:href="#m" x="25.057" y="202.044"/><use xlink:href="#o" x="28.718" y="202.044"/><use xlink:href="#h" x="32.38" y="202.044"/><use xlink:href="#n" x="36.041" y="202.044"/><use xlink:href="#q" x="43.363" y="202.044"/><use xlink:href="#f" x="47.025" y="202.044"/><use xlink:href="#c" x="50.686" y="202.044"/><use xlink:href="#h" x="54.347" y="202.044"/><use xlink:href="#j" x="58.009" y="202.044"/><path fill="none" stroke="#000" stroke-miterlimit="10" stroke-width=".399" d="m34.633 10.855 2.816-2.82m-2.816 0 2.816 2.82"/><use xlink:href="#b" x="10.412" y="5.368"/><use xlink:href="#c" x="14.073" y="5.368"/><use xlink:href="#d" x="17.735" y="5.368"/><use xlink:href="#g" x="21.396" y="5.368"/><use xlink:href="#m" x="25.057" y="5.368"/><use xlink:href="#i" x="28.718" y="5.368"/><use xlink:href="#h" x="32.38" y="5.368"/><use xlink:href="#n" x="36.041" y="5.368"/><use xlink:href="#q" x="43.363" y="5.368"/><use xlink:href="#f" x="47.025" y="5.368"/><use xlink:href="#c" x="50.686" y="5.368"/><use xlink:href="#h" x="54.347" y="5.368"/><use xlink:href="#j" x="58.009" y="5.368"/><path fill="none" stroke="#000" stroke-miterlimit="10" stroke-width=".399" d="m34.633 102.98 2.816-2.816m-2.816 0 2.816 2.816"/><use xlink:href="#b" x="-.43" y="103.232"/><use xlink:href="#c" x="3.231" y="103.232"/><use xlink:href="#d" x="6.893" y="103.232"/><use xlink:href="#r" x="10.554" y="103.232"/><use xlink:href="#g" x="14.215" y="103.232"/><use xlink:href="#s" x="17.876" y="103.232"/><use xlink:href="#o" x="21.538" y="103.232"/><use xlink:href="#h" x="25.199" y="103.232"/><use xlink:href="#j" x="28.86" y="103.232"/><path fill="none" stroke="#000" stroke-miterlimit="10" stroke-width=".399" d="m218.887 102.98 2.816-2.816m-2.816 0 2.816 2.816"/><use xlink:href="#b" x="223.812" y="103.232"/><use xlink:href="#c" x="227.473" y="103.232"/><use xlink:href="#d" x="231.135" y="103.232"/><use xlink:href="#m" x="234.796" y="103.232"/><use xlink:href="#o" x="238.457" y="103.232"/><use xlink:href="#h" x="242.118" y="103.232"/><use xlink:href="#s" x="245.78" y="103.232"/><use xlink:href="#o" x="249.441" y="103.232"/><use xlink:href="#h" x="253.102" y="103.232"/><use xlink:href="#j" x="256.763" y="103.232"/></svg>