<svg xmlns="http://www.w3.org/2000/svg" xmlns:xlink="http://www.w3.org/1999/xlink" width="108.938" height="100.244"><defs><path id="a" d="M4.5-2.547c0-.922-.078-2.703-2.062-2.703C.452-5.25.374-3.453.374-2.547.375-1.657.438.11 2.438.11 4.453.11 4.5-1.656 4.5-2.547M3.422-2.64c0 1.829-.11 1.938-.36 2.172-.062.078-.296.25-.624.25a.97.97 0 0 1-.61-.218c-.25-.22-.375-.329-.375-2.204 0-.578 0-1.156.078-1.546.11-.563.61-.72.907-.72.187 0 .796.048.921.798.063.39.063 1.015.063 1.468m0 0"/><path id="b" d="M4.203 0v-.422H3.016v-4.547c0-.281-.047-.281-.36-.281-.484.39-1.125.516-1.75.516H.734v.422h.172c.203 0 .64-.032 1.11-.172v4.062H.813V0c.28-.031 1.343-.031 1.703-.031.359 0 1.39 0 1.687.031m0 0"/><path id="e" d="M5.516-.234c0-.235-.125-.235-.266-.235-.61-.015-.61-.14-.61-.375v-2.14c0-.891-.702-1.532-2.187-1.532-.562 0-1.781.047-1.781.922 0 .438.344.625.61.625.312 0 .624-.219.624-.625 0-.297-.187-.469-.218-.5a5 5 0 0 1 .718-.062c.75 0 1.11.422 1.11 1.172v.343c-.72.032-3.25.125-3.25 1.563C.266-.125 1.5.062 2.188.062c.796 0 1.265-.406 1.484-.828 0 .313 0 .766 1.047.766h.468c.204 0 .329 0 .329-.234m-2-1.157c0 .97-.922 1.094-1.172 1.094-.516 0-.906-.344-.906-.797 0-1.062 1.578-1.203 2.078-1.234Zm0 0"/><path id="f" d="M5.281-3.187c0-.954-.015-3.344-2.422-3.344S.453-4.156.453-3.188c0 1 0 3.297 2.406 3.297 2.391 0 2.422-2.296 2.422-3.296M4-3.297c0 .563 0 1.469-.078 1.985-.14.921-.766 1.062-1.063 1.062-.359 0-.921-.219-1.046-.953-.094-.516-.094-1.547-.094-2.094 0-.719 0-1.375.078-1.89.125-.891.828-.985 1.062-.985.375 0 .782.188.97.625C4-5.172 4-4.109 4-3.297m0 0"/><path id="g" d="M2.36-.781a.784.784 0 0 0-.782-.781.78.78 0 0 0-.766.78.774.774 0 1 0 1.547 0m0 0"/><path id="h" d="M5.156-2c0-1.156-.797-2.078-2.265-2.078-.282 0-.813.031-1.282.344v-1.313c.282.047.391.078.72.078 1.452 0 2.374-1.125 2.374-1.375 0-.078-.016-.187-.14-.187-.032 0-.032 0-.141.047a4.3 4.3 0 0 1-1.531.28c-.75 0-1.282-.202-1.547-.28-.094-.032-.094-.047-.125-.047-.14 0-.14.11-.14.265v2.922c0 .172 0 .297.218.297.125 0 .156-.031.219-.11.39-.468.922-.562 1.328-.562.89 0 .89.875.89 1.672 0 .735 0 1.735-1.187 1.735-.25 0-.875-.063-1.297-.625.36-.016.656-.266.656-.672 0-.532-.437-.672-.672-.672-.14 0-.671.094-.671.703 0 .844.78 1.687 2.015 1.687C4.172.11 5.156-.78 5.156-2m0 0"/><path id="i" d="M5.984-2.219c0-1.328-.937-2.265-2.39-2.265-.719 0-1.219.28-1.453.484v-2.922l-1.766.078v.469c.61 0 .688 0 .688.39V0h.468c.157-.187.328-.375.485-.562.078.078.562.625 1.453.625 1.484 0 2.515-.907 2.515-2.282m-1.28 0c0 .469 0 1.016-.25 1.406-.298.407-.75.516-1.079.516-.687 0-1.078-.547-1.187-.687v-2.5c.28-.36.75-.641 1.296-.641 1.22 0 1.22 1.203 1.22 1.906m0 0"/><path id="j" d="M4.922 0v-.469h-1.39v-5.734c0-.234 0-.328-.266-.328-.11 0-.125 0-.22.078-.765.562-1.796.562-2 .562H.845v.47h.203c.156 0 .703-.016 1.297-.204v5.156H.954V0c.437-.031 1.5-.031 1.984-.031s1.546 0 1.984.031m0 0"/><path id="k" d="M5.156-2.219h-.468c-.032.203-.125.844-.266.906-.11.063-.86.063-1.016.063H1.937c.47-.39 1-.812 1.438-1.14 1.14-.844 1.781-1.313 1.781-2.25 0-1.157-1.047-1.891-2.437-1.891-1.219 0-2.156.625-2.156 1.515 0 .594.484.735.718.735C1.61-4.281 2-4.5 2-5c0-.516-.422-.672-.562-.719.28-.234.671-.343 1.03-.343.845 0 1.313.671 1.313 1.421 0 .688-.375 1.375-1.078 2.079l-2 2.046c-.14.11-.14.141-.14.344V0h4.28Zm0 0"/><path id="l" d="M4.766-1.172c0-.14-.141-.14-.235-.14-.187 0-.187.03-.25.156-.25.625-.734.812-1.234.812-1.39 0-1.39-1.453-1.39-1.922 0-.562 0-1.843 1.28-1.843.36 0 .516.015.657.046a.62.62 0 0 0-.203.47c0 .437.343.624.609.624.313 0 .64-.219.64-.625 0-.86-1.156-.922-1.734-.922C1.11-4.516.375-3.375.375-2.219.375-.89 1.313.063 2.844.063c1.625 0 1.922-1.157 1.922-1.235m0 0"/><path id="m" d="M5.984 0v-.469c-.609 0-.687 0-.687-.39v-6.063l-1.766.078v.469c.625 0 .703 0 .703.39v1.954a2.18 2.18 0 0 0-1.359-.453c-1.453 0-2.5.875-2.5 2.28 0 1.313.922 2.267 2.39 2.267.61 0 1.094-.235 1.407-.485v.485ZM4.172-1.031c-.14.187-.547.734-1.297.734-1.219 0-1.219-1.203-1.219-1.906 0-.485 0-1.016.25-1.406.297-.422.766-.516 1.078-.516.563 0 .97.313 1.188.61Zm0 0"/><path id="n" d="M4.922-1.172c0-.172-.188-.172-.234-.172-.172 0-.188.047-.25.203-.204.485-.782.797-1.422.797-1.407 0-1.422-1.328-1.422-1.828h3.015c.22 0 .313 0 .313-.265 0-.313-.063-1.047-.563-1.547-.359-.36-.89-.532-1.578-.532C1.187-4.516.313-3.484.313-2.25c0 1.344 1 2.313 2.609 2.313 1.578 0 2-1.063 2-1.235M3.984-2.5h-2.39c.015-.39.031-.812.234-1.14.266-.391.672-.516.953-.516 1.172 0 1.188 1.312 1.203 1.656m0 0"/><clipPath id="c"><path d="M4 17h38v82.867H4Zm0 0"/></clipPath><clipPath id="d"><path d="M31 72h38v27.867H31Zm0 0"/></clipPath><clipPath id="o"><path d="M29 90h15v9.867H29Zm0 0"/></clipPath></defs><path fill="none" stroke="#000" stroke-miterlimit="10" stroke-width=".399" d="m86.457 36.336-6.594-11.54"/><path fill="#FFF" d="M79.719 34.242h6.879v-7.347h-6.88Zm0 0"/><use xlink:href="#a" x="80.716" y="33.134"/><path fill="none" stroke="#000" stroke-miterlimit="10" stroke-width=".399" d="m87.941 36.336 7.278-12.738"/><path fill="#FFF" d="M88.14 33.586h6.88v-7.238h-6.88Zm0 0"/><use xlink:href="#b" x="89.135" y="32.59"/><path fill="none" stroke="#000" stroke-miterlimit="10" stroke-width=".399" d="m41.434 56.04-8.926-31.243"/><path fill="#FFF" d="M33.531 44.094h6.88v-7.348h-6.88Zm0 0"/><use xlink:href="#a" x="34.526" y="42.986"/><path fill="none" stroke="#000" stroke-miterlimit="10" stroke-width=".399" d="m42.254 56.04 9.27-32.442"/><path fill="#FFF" d="M43.45 43.438h6.878v-7.239H43.45Zm0 0"/><use xlink:href="#b" x="44.445" y="42.441"/><path fill="none" stroke="#000" stroke-miterlimit="10" stroke-width=".399" d="m65.262 76.023 21.195-37.09"/><path fill="#FFF" d="M72.422 61.152h6.875v-7.347h-6.875Zm0 0"/><use xlink:href="#a" x="73.416" y="60.044"/><path fill="none" stroke="#000" stroke-miterlimit="10" stroke-width=".399" d="M63.395 76.336 42.969 58.46"/><path fill="#FFF" d="M49.742 71.016h6.88V63.78h-6.88Zm0 0"/><use xlink:href="#b" x="50.739" y="70.021"/><g clip-path="url(#c)"><path fill="none" stroke="#000" stroke-miterlimit="10" stroke-width=".399" d="M35.672 95.754 9.902 23.598"/></g><path fill="#FFF" d="M19.348 63.352h6.879v-7.348h-6.88Zm0 0"/><use xlink:href="#a" x="20.343" y="62.243"/><g clip-path="url(#d)"><path fill="none" stroke="#000" stroke-miterlimit="10" stroke-width=".399" d="m37.398 96.305 25.899-18.13"/></g><path fill="#FFF" d="M46.906 90.86h6.88v-7.235h-6.88Zm0 0"/><use xlink:href="#b" x="47.904" y="89.863"/><use xlink:href="#e" x="5.043" y="20.019"/><use xlink:href="#f" x=".51" y="8.357"/><use xlink:href="#g" x="6.239" y="8.357"/><use xlink:href="#h" x="9.417" y="8.357"/><use xlink:href="#i" x="27.321" y="21.219"/><use xlink:href="#f" x="20.322" y="7.156"/><use xlink:href="#g" x="26.051" y="7.156"/><use xlink:href="#j" x="29.229" y="7.156"/><use xlink:href="#k" x="34.957" y="7.156"/><use xlink:href="#l" x="50.636" y="20.019"/><use xlink:href="#f" x="45.864" y="8.357"/><use xlink:href="#g" x="51.593" y="8.357"/><use xlink:href="#k" x="54.771" y="8.357"/><use xlink:href="#m" x="72.675" y="21.219"/><use xlink:href="#f" x="68.541" y="7.156"/><use xlink:href="#g" x="74.27" y="7.156"/><use xlink:href="#j" x="77.448" y="7.156"/><use xlink:href="#n" x="95.911" y="20.019"/><use xlink:href="#f" x="88.354" y="8.357"/><use xlink:href="#g" x="94.083" y="8.357"/><use xlink:href="#j" x="97.261" y="8.357"/><use xlink:href="#j" x="102.989" y="8.357"/><path fill="none" stroke="#000" stroke-miterlimit="10" stroke-width=".399" d="M88.691 37.637a1.494 1.494 0 1 0-2.987-.005 1.494 1.494 0 0 0 2.987.005ZM43.336 57.477c0-.825-.668-1.493-1.492-1.493s-1.496.668-1.496 1.493c0 .824.672 1.496 1.496 1.496s1.492-.672 1.492-1.496ZM66.016 77.32c0-.824-.672-1.496-1.496-1.496a1.495 1.495 0 0 0 0 2.989c.824 0 1.496-.668 1.496-1.493Zm0 0"/><g clip-path="url(#o)"><path fill="none" stroke="#000" stroke-miterlimit="10" stroke-width=".399" d="M37.668 97.16c0-.824-.668-1.492-1.492-1.492a1.494 1.494 0 1 0 1.492 1.492Zm0 0"/></g></svg>