<svg xmlns="http://www.w3.org/2000/svg" xmlns:xlink="http://www.w3.org/1999/xlink" width="103.683" height="111.386"><defs><path id="b" d="M5.563-1.812c.14 0 .312 0 .312-.172 0-.188-.172-.188-.312-.188H1c-.125 0-.297 0-.297.188 0 .172.172.172.297.172Zm0 0"/><path id="c" d="M2.25-1.625c.125-.125.453-.39.594-.5.484-.453.953-.89.953-1.61 0-.953-.797-1.562-1.781-1.562-.97 0-1.594.719-1.594 1.438 0 .39.312.437.422.437.172 0 .422-.11.422-.422 0-.406-.407-.406-.5-.406.234-.594.765-.781 1.156-.781.734 0 1.125.625 1.125 1.297 0 .828-.578 1.437-1.531 2.39l-1 1.047C.422-.219.422-.203.422 0h3.14l.235-1.422h-.25c-.016.156-.078.547-.172.703-.047.063-.656.063-.781.063H1.172Zm0 0"/><path id="d" d="M3.89-2.547c0-.844-.078-1.36-.343-1.875-.344-.703-1-.875-1.438-.875-1 0-1.375.75-1.484.969C.344-3.75.328-2.953.328-2.547c0 .531.016 1.328.406 1.969.36.594.954.75 1.375.75.391 0 1.063-.125 1.47-.906.296-.578.312-1.297.312-1.813M2.11-.062c-.266 0-.813-.125-.985-.954-.094-.453-.094-1.203-.094-1.625 0-.546 0-1.109.094-1.546.172-.813.781-.891.984-.891.266 0 .829.14.985.86.094.437.094 1.046.094 1.577 0 .47 0 1.188-.094 1.641-.172.828-.719.938-.985.938m0 0"/><path id="e" d="M3.14-5.156c0-.157 0-.219-.171-.219-.094 0-.11 0-.188.11L.234-1.564v.25h2.25v.672c0 .297-.015.375-.64.375h-.172V0c.672-.031.687-.031 1.14-.031.454 0 .47 0 1.141.031v-.266h-.172c-.625 0-.64-.078-.64-.375v-.671h.843v-.25h-.843Zm-.593.64v2.954H.516Zm0 0"/><path id="f" d="M1.11-4.484c.109.03.421.125.765.125 1 0 1.594-.703 1.594-.828 0-.094-.047-.11-.094-.11-.016 0-.031 0-.094.031a3 3 0 0 1-1.11.22c-.468 0-.858-.11-1.108-.22-.079-.03-.094-.03-.11-.03-.094 0-.094.077-.094.234v2.328c0 .14 0 .234.125.234.063 0 .079-.031.125-.094.094-.11.391-.515 1.079-.515.437 0 .656.359.734.515.125.281.14.656.14.953s0 .735-.218 1.079c-.156.25-.485.484-.906.484A1.27 1.27 0 0 1 .734-.922c.016.016.079.016.079.016.218 0 .406-.14.406-.39a.39.39 0 0 0-.39-.407c-.157 0-.407.078-.407.422 0 .718.625 1.453 1.531 1.453 1 0 1.844-.781 1.844-1.766 0-.922-.672-1.75-1.61-1.75-.39 0-.765.125-1.078.406Zm0 0"/><path id="g" d="M2.5-5.078c0-.219-.016-.219-.234-.219-.328.313-.75.5-1.5.5v.266c.218 0 .64 0 1.109-.203v4.078c0 .297-.031.39-.781.39H.812V0c.329-.031 1.016-.031 1.376-.031s1.046 0 1.374.031v-.266h-.28c-.75 0-.782-.093-.782-.39Zm0 0"/><path id="h" d="M3.14-2.828c.157-.61.454-.906.766-.906.188 0 .344.062.406.125a.44.44 0 0 0-.328.422c0 .171.125.28.297.28a.467.467 0 0 0 .453-.468c0-.39-.39-.594-.828-.594-.453 0-.75.375-.875.594a.95.95 0 0 0-.89-.594c-.922 0-1.422 1.172-1.422 1.39 0 .11.11.11.156.11.125 0 .14-.047.172-.172.203-.656.656-1.093 1.078-1.093.297 0 .438.25.438.547 0 .187-.063.39-.172.89l-.313 1.219c-.156.625-.422.953-.781.953-.234 0-.39-.125-.39-.125a.47.47 0 0 0 .327-.422c0-.187-.156-.281-.312-.281-.219 0-.438.172-.438.469 0 .406.438.578.813.578.437 0 .734-.328.875-.578.14.343.469.578.89.578.938 0 1.422-1.188 1.422-1.375 0-.11-.109-.11-.156-.11-.125 0-.125.032-.172.157-.25.797-.734 1.109-1.078 1.109-.297 0-.437-.25-.437-.562 0-.188.046-.313.187-.922Zm0 0"/><path id="i" d="M-3.625-4.406a.504.504 0 0 0 .484.422c.172 0 .329-.125.329-.344 0-.25-.22-.5-.532-.5-.422 0-.625.453-.625.875 0 .531.485.844.672.953a1.04 1.04 0 0 0-.672 1c0 .953 1.156 1.484 1.39 1.484.079 0 .11-.062.11-.125 0-.078-.047-.109-.11-.125-.89-.28-1.155-.875-1.155-1.218 0-.266.172-.485.593-.485.313 0 1.75.375 2.188.5.265.063.828.344.828.828 0 .188-.062.375-.11.454C-.28-.922-.5-1.11-.718-1.11c-.234 0-.328.172-.328.343 0 .266.219.5.531.5.438 0 .61-.484.61-.859 0-.531-.422-.828-.672-.969.594-.219.672-.75.672-.984 0-.969-1.156-1.485-1.375-1.485-.047 0-.11.032-.11.11 0 .11.032.11.172.156.64.203 1.094.719 1.094 1.188 0 .25-.156.5-.594.5-.203 0-.687-.125-1.031-.203-.156-.047-1.125-.282-1.187-.297-.329-.11-.797-.375-.797-.844 0-.156.015-.328.109-.453m0 0"/><path id="j" d="M-1.125-3.219V-3c.094.016.484.078.547.156.047.047.047.531.047.625v1.11l-.625-.766c-.172-.203-.547-.734-.735-.922-.171-.172-.484-.422-.906-.422-.75 0-1.187.672-1.187 1.485 0 .765.515 1.297 1.078 1.297.297 0 .344-.25.344-.313a.32.32 0 0 0-.329-.328c-.125 0-.328.078-.328.344-.297-.141-.531-.5-.531-.922 0-.625.469-.953.953-.953.422 0 .86.28 1.25.687L-.25-.5c.063.063.063.063.25.063v-2.594Zm0 0"/><clipPath id="a"><path d="M21 0h82.523v100H21Zm0 0"/></clipPath></defs><path fill="none" stroke="#7F7F7F" stroke-linecap="round" stroke-miterlimit="10" stroke-width=".399" d="M38.324 92.996v-1.992M56.04 92.996v-1.992M73.758 92.996v-1.992M91.477 92.996v-1.992M38.324 3.414V1.422M56.04 3.414V1.422M73.758 3.414V1.422M91.477 3.414V1.422M27.473 91.004h1.992M27.473 73.484h1.992M27.473 55.969h1.992M27.473 38.45h1.992M27.473 20.93h1.992M27.473 3.41h1.992M100.332 91.004h1.992M100.332 73.484h1.992M100.332 55.969h1.992M100.332 38.45h1.992M100.332 20.93h1.992M100.332 3.41h1.992"/><path fill="none" stroke="#7F7F7F" stroke-miterlimit="10" stroke-width=".399" d="M29.465 91.004h70.867M29.465 3.414h70.867M29.465 91.004V3.414M100.332 91.004V3.414"/><g clip-path="url(#a)"><path fill="none" stroke="#000" stroke-miterlimit="10" stroke-width=".598" d="M29.465 59.473s2.133 4.886 2.953 6.617c.82 1.726 2.133 4.328 2.953 5.84s2.133 3.761 2.953 5.058 2.133 3.203 2.953 4.285c.82 1.079 2.133 2.637 2.953 3.504.817.864 2.133 2.075 2.954 2.723.816.648 2.132 1.516 2.953 1.95.816.429 2.133.948 2.949 1.167.82.215 2.137.387 2.953.387.82 0 2.137-.172 2.953-.387.82-.219 2.133-.738 2.953-1.168.82-.433 2.133-1.3 2.953-1.949.82-.648 2.133-1.86 2.954-2.723.82-.863 2.132-2.425 2.953-3.504a74 74 0 0 0 2.953-4.28c.82-1.298 2.133-3.552 2.953-5.063.82-1.512 2.133-4.11 2.953-5.84a204 204 0 0 0 2.953-6.617 273 273 0 0 0 2.953-7.399c.817-2.16 2.133-5.797 2.95-8.172a418 418 0 0 0 2.953-8.957c.82-2.59 2.132-6.922 2.953-9.73s2.133-7.485 2.953-10.512c.82-3.023 2.953-11.289 2.953-11.289"/></g><use xlink:href="#b" x="32.913" y="100.79"/><use xlink:href="#c" x="39.499" y="100.79"/><use xlink:href="#d" x="53.923" y="100.79"/><use xlink:href="#c" x="71.639" y="100.79"/><use xlink:href="#e" x="89.356" y="100.79"/><use xlink:href="#d" x="20.582" y="93.574"/><use xlink:href="#f" x="20.582" y="76.055"/><use xlink:href="#g" x="16.349" y="58.536"/><use xlink:href="#d" x="20.583" y="58.536"/><use xlink:href="#g" x="16.349" y="41.017"/><use xlink:href="#f" x="20.583" y="41.017"/><use xlink:href="#c" x="16.349" y="23.498"/><use xlink:href="#d" x="20.583" y="23.498"/><use xlink:href="#c" x="16.349" y="5.98"/><use xlink:href="#f" x="20.583" y="5.98"/><use xlink:href="#h" x="62.233" y="109.997"/><path fill="#CCF" d="M.852 39.203V55.22h14.3V39.203Zm0 0"/><use xlink:href="#i" x="11.832" y="51.898"/><use xlink:href="#j" x="8.024" y="46.675"/></svg>