<svg xmlns="http://www.w3.org/2000/svg" xmlns:xlink="http://www.w3.org/1999/xlink" width="179.642" height="105.374"><defs><path id="g" d="M3.89-2.547c0-.844-.078-1.36-.343-1.875-.344-.703-1-.875-1.438-.875-1 0-1.375.75-1.484.969C.344-3.75.328-2.953.328-2.547c0 .531.016 1.328.406 1.969.36.594.954.75 1.375.75.391 0 1.063-.125 1.47-.906.296-.578.312-1.297.312-1.813M2.11-.062c-.266 0-.813-.125-.985-.954-.094-.453-.094-1.203-.094-1.625 0-.546 0-1.109.094-1.546.172-.813.781-.891.984-.891.266 0 .829.14.985.86.094.437.094 1.046.094 1.577 0 .47 0 1.188-.094 1.641-.172.828-.719.938-.985.938m0 0"/><path id="i" d="M2.5-5.078c0-.219-.016-.219-.234-.219-.328.313-.75.5-1.5.5v.266c.218 0 .64 0 1.109-.203v4.078c0 .297-.031.39-.781.39H.812V0c.329-.031 1.016-.031 1.376-.031s1.046 0 1.374.031v-.266h-.28c-.75 0-.782-.093-.782-.39Zm0 0"/><path id="j" d="M2.25-1.625c.125-.125.453-.39.594-.5.484-.453.953-.89.953-1.61 0-.953-.797-1.562-1.781-1.562-.97 0-1.594.719-1.594 1.438 0 .39.312.437.422.437.172 0 .422-.11.422-.422 0-.406-.407-.406-.5-.406.234-.594.765-.781 1.156-.781.734 0 1.125.625 1.125 1.297 0 .828-.578 1.437-1.531 2.39l-1 1.047C.422-.219.422-.203.422 0h3.14l.235-1.422h-.25c-.016.156-.078.547-.172.703-.047.063-.656.063-.781.063H1.172Zm0 0"/><path id="k" d="M2.016-2.656c.625 0 1.03.453 1.03 1.297 0 1-.562 1.28-.983 1.28-.438 0-1.047-.155-1.329-.577.297 0 .5-.188.5-.438 0-.265-.187-.437-.453-.437-.203 0-.437.125-.437.453 0 .75.812 1.25 1.734 1.25 1.047 0 1.797-.734 1.797-1.531 0-.672-.531-1.266-1.344-1.453.625-.22 1.11-.75 1.11-1.391 0-.64-.72-1.094-1.547-1.094-.86 0-1.5.453-1.5 1.063 0 .297.187.422.406.422.25 0 .406-.172.406-.407 0-.297-.265-.406-.437-.406.344-.437.953-.469 1.094-.469.203 0 .812.063.812.89 0 .548-.234.891-.344 1.016-.234.25-.422.266-.906.297-.156 0-.219.016-.219.125 0 .11.078.11.219.11Zm0 0"/><path id="l" d="M3.14-5.156c0-.157 0-.219-.171-.219-.094 0-.11 0-.188.11L.234-1.564v.25h2.25v.672c0 .297-.015.375-.64.375h-.172V0c.672-.031.687-.031 1.14-.031.454 0 .47 0 1.141.031v-.266h-.172c-.625 0-.64-.078-.64-.375v-.671h.843v-.25h-.843Zm-.593.64v2.954H.516Zm0 0"/><path id="m" d="M1.11-4.484c.109.03.421.125.765.125 1 0 1.594-.703 1.594-.828 0-.094-.047-.11-.094-.11-.016 0-.031 0-.094.031a3 3 0 0 1-1.11.22c-.468 0-.858-.11-1.108-.22-.079-.03-.094-.03-.11-.03-.094 0-.094.077-.094.234v2.328c0 .14 0 .234.125.234.063 0 .079-.031.125-.094.094-.11.391-.515 1.079-.515.437 0 .656.359.734.515.125.281.14.656.14.953s0 .735-.218 1.079c-.156.25-.485.484-.906.484A1.27 1.27 0 0 1 .734-.922c.016.016.079.016.079.016.218 0 .406-.14.406-.39a.39.39 0 0 0-.39-.407c-.157 0-.407.078-.407.422 0 .718.625 1.453 1.531 1.453 1 0 1.844-.781 1.844-1.766 0-.922-.672-1.75-1.61-1.75-.39 0-.765.125-1.078.406Zm0 0"/><path id="h" d="M3.266-1.5c0-.75-.61-1.36-1.36-1.36-.734 0-1.343.61-1.343 1.36 0 .766.609 1.36 1.343 1.36.75 0 1.36-.594 1.36-1.36M1.906-.453A1.024 1.024 0 0 1 .875-1.5c0-.578.453-1.047 1.031-1.047s1.047.469 1.047 1.047c0 .594-.469 1.047-1.047 1.047m0 0"/><path id="n" d="M5.563-1.812c.14 0 .312 0 .312-.172 0-.188-.172-.188-.312-.188H1c-.125 0-.297 0-.297.188 0 .172.172.172.297.172Zm0 0"/><path id="o" d="M1.625-.437a.463.463 0 0 0-.453-.454.447.447 0 0 0-.438.438.44.44 0 0 0 .438.453.45.45 0 0 0 .453-.437m0 0"/><clipPath id="a"><path d="M22 12h157.465v66H22Zm0 0"/></clipPath><clipPath id="b"><path d="M22 10h157.465v70H22Zm0 0"/></clipPath><clipPath id="c"><path d="M22 7h157.465v76H22Zm0 0"/></clipPath><clipPath id="d"><path d="M22 3h157.465v84H22Zm0 0"/></clipPath><clipPath id="e"><path d="M22 0h157.465v91H22Zm0 0"/></clipPath><clipPath id="f"><path d="M22 0h157.465v98H22Zm0 0"/></clipPath></defs><path fill="none" stroke="#7F7F7F" stroke-linecap="round" stroke-miterlimit="10" stroke-width=".399" d="M31.395 95.578v-1.992M59.742 95.578v-1.992M88.09 95.578v-1.992M116.438 95.578v-1.992M144.785 95.578v-1.992M173.133 95.578v-1.992M24.422 84.383h1.992M24.422 71.215h1.992M24.422 58.047h1.992M24.422 44.883h1.992M24.422 31.715h1.992M24.422 18.547h1.992M24.422 5.379h1.992"/><path fill="none" stroke="#7F7F7F" stroke-miterlimit="10" stroke-width=".399" d="M31.395 93.586h141.734"/><path fill="none" stroke="#BFBFBF" stroke-linecap="square" stroke-miterlimit="10" stroke-width=".399" d="M31.395 88.602h141.734M31.395 1.012h141.734"/><path fill="none" stroke="#7F7F7F" stroke-miterlimit="10" stroke-width=".399" d="M26.414 88.602V1.012"/><path fill="none" stroke="#BFBFBF" stroke-linecap="square" stroke-miterlimit="10" stroke-width=".399" d="M31.395 88.602V1.012M173.129 88.602V1.012"/><g clip-path="url(#a)"><path fill="none" stroke="#2114CC" stroke-miterlimit="10" stroke-width=".598" d="M31.395 44.883S35.665 34.78 37.3 31.73c1.64-3.05 4.27-7.386 5.906-8.832 1.64-1.445 4.266-2.226 5.906-1.593 1.637.636 4.266 3.656 5.907 6.164 1.636 2.504 4.265 8.343 5.906 11.894 1.636 3.551 4.265 10.274 5.902 13.703 1.64 3.43 4.27 8.832 5.906 11.012 1.641 2.18 4.27 4.488 5.907 4.7 1.64.214 4.265-1.34 5.906-3.165 1.637-1.824 4.266-6.726 5.906-9.988 1.637-3.262 4.266-9.895 5.906-13.52 1.637-3.625 4.266-9.816 5.903-12.613 1.64-2.797 4.27-6.496 5.906-7.543 1.64-1.047 4.27-1.047 5.906 0 1.64 1.047 4.266 4.746 5.906 7.543 1.637 2.797 4.266 8.988 5.907 12.613 1.636 3.625 4.265 10.258 5.906 13.52 1.637 3.262 4.266 8.164 5.902 9.988 1.64 1.825 4.27 3.38 5.907 3.164 1.64-.21 4.27-2.52 5.906-4.699 1.64-2.18 4.265-7.582 5.906-11.012 1.64-3.43 4.266-10.152 5.906-13.703 1.637-3.55 4.266-9.39 5.907-11.894 1.636-2.508 5.906-6.164 5.906-6.164"/></g><g clip-path="url(#b)"><path fill="none" stroke="#14CCA5" stroke-miterlimit="10" stroke-width=".598" d="M31.395 44.883s4.27-10.418 5.906-13.66c1.64-3.239 4.27-7.946 5.906-9.696 1.64-1.75 4.266-3.172 5.906-2.922 1.637.247 4.266 2.532 5.907 4.704 1.636 2.175 4.265 7.496 5.906 10.968 1.636 3.47 4.265 10.282 5.902 14.04 1.64 3.757 4.27 10.09 5.906 13.046 1.641 2.953 4.27 6.965 5.907 8.262 1.64 1.297 4.265 1.824 5.906 1.082 1.637-.738 4.266-3.852 5.906-6.41 1.637-2.563 4.266-8.41 5.906-12.05 1.637-3.638 4.266-10.52 5.903-14.18 1.64-3.66 4.27-9.583 5.906-12.204 1.64-2.62 4.27-5.867 5.906-6.687 1.64-.82 4.266-.446 5.906.77 1.637 1.218 4.266 5.105 5.907 8.011 1.636 2.902 4.265 9.172 5.906 12.918 1.637 3.746 4.266 10.578 5.902 14.078 1.64 3.504 4.27 8.922 5.907 11.164 1.64 2.238 4.27 4.664 5.906 4.996 1.64.332 4.265-.937 5.906-2.613 1.64-1.68 4.266-6.273 5.906-9.469 1.637-3.199 4.266-9.785 5.907-13.574 1.636-3.793 5.906-13.742 5.906-13.742"/></g><g clip-path="url(#c)"><path fill="none" stroke="#6ECC14" stroke-miterlimit="10" stroke-width=".598" d="M31.395 44.883s4.27-10.805 5.906-14.258c1.64-3.457 4.27-8.57 5.906-10.645 1.64-2.078 4.266-4.16 5.906-4.332 1.637-.171 4.266 1.309 5.907 3.086 1.636 1.774 4.265 6.438 5.906 9.715 1.636 3.274 4.265 9.946 5.902 13.887 1.64 3.941 4.27 10.91 5.906 14.52 1.641 3.609 4.27 9.128 5.907 11.492 1.64 2.363 4.265 5.023 5.906 5.543 1.637.515 4.266-.356 5.906-1.817 1.637-1.46 4.266-5.648 5.906-8.715 1.637-3.07 4.266-9.5 5.903-13.398 1.64-3.895 4.27-10.945 5.906-14.684 1.64-3.738 4.27-9.625 5.906-12.254 1.64-2.632 4.266-5.847 5.906-6.707 1.637-.855 4.266-.597 5.907.536 1.636 1.136 4.265 4.804 5.906 7.644 1.637 2.836 4.266 8.992 5.902 12.813 1.64 3.824 4.27 10.894 5.907 14.73 1.64 3.836 4.27 10.04 5.906 12.918 1.64 2.879 4.265 6.637 5.906 7.828 1.64 1.192 4.266 1.55 5.906.75 1.637-.797 4.266-3.93 5.907-6.515 1.636-2.59 5.906-12.133 5.906-12.133"/></g><g clip-path="url(#d)"><path fill="none" stroke="#CC3F14" stroke-miterlimit="10" stroke-width=".598" d="M31.395 44.883s4.27-11.285 5.906-14.988c1.64-3.7 4.27-9.266 5.906-11.7 1.64-2.433 4.266-5.215 5.906-5.847 1.637-.633 4.266-.02 5.907 1.289 1.636 1.308 4.265 5.176 5.906 8.136 1.636 2.965 4.265 9.247 5.902 13.211 1.64 3.965 4.27 11.274 5.906 15.375 1.641 4.102 4.27 10.84 5.907 14.176 1.64 3.336 4.265 8.028 5.906 9.867 1.637 1.836 4.266 3.45 5.906 3.391 1.637-.063 4.266-1.879 5.906-3.828 1.637-1.945 4.266-6.797 5.903-10.203 1.64-3.407 4.27-10.23 5.906-14.348 1.64-4.121 4.27-11.41 5.906-15.34 1.64-3.926 4.266-10.094 5.906-12.972 1.637-2.875 4.266-6.563 5.907-7.754 1.636-1.192 4.265-1.59 5.906-.836 1.637.75 4.266 3.722 5.902 6.254 1.64 2.53 4.27 8.234 5.907 11.992 1.64 3.754 4.27 10.922 5.906 15.078 1.64 4.152 4.265 11.226 5.906 14.871 1.64 3.648 4.266 9.07 5.906 11.406 1.637 2.336 4.266 4.922 5.907 5.434 1.636.516 5.906-1.73 5.906-1.73"/></g><g clip-path="url(#e)"><path fill="none" stroke="#C414CC" stroke-miterlimit="10" stroke-width=".598" d="M31.395 44.883s4.27-11.899 5.906-15.899c1.64-3.996 4.27-10.082 5.906-12.918 1.64-2.836 4.266-6.382 5.906-7.523 1.637-1.145 4.266-1.48 5.907-.715 1.636.77 4.265 3.703 5.906 6.235 1.636 2.53 4.265 8.187 5.902 12.007 1.64 3.82 4.27 11.14 5.906 15.535 1.641 4.395 4.27 11.997 5.907 16.145 1.64 4.145 4.265 10.613 5.906 13.734 1.637 3.118 4.266 7.239 5.906 8.746 1.637 1.508 4.266 2.512 5.906 2.125 1.637-.382 4.266-2.69 5.903-4.898 1.64-2.203 4.27-7.383 5.906-10.996 1.64-3.613 4.27-10.703 5.906-15.047 1.64-4.348 4.266-12.004 5.906-16.266 1.637-4.261 4.266-11.066 5.907-14.445 1.636-3.379 4.265-8.055 5.906-9.918 1.637-1.867 4.266-3.523 5.902-3.523 1.64 0 4.27 1.66 5.907 3.523 1.64 1.863 4.27 6.531 5.906 9.914 1.64 3.38 4.265 10.184 5.906 14.446 1.64 4.261 4.266 11.921 5.906 16.27 1.637 4.343 4.266 11.425 5.907 15.038 1.636 3.617 5.906 11.004 5.906 11.004"/></g><g clip-path="url(#f)"><path fill="none" stroke="#1450CC" stroke-miterlimit="10" stroke-width=".598" d="M31.395 44.883s4.27-12.727 5.906-17.094c1.64-4.367 4.27-11.086 5.906-14.39 1.64-3.301 4.266-7.704 5.906-9.422C50.75 2.257 53.38.875 55.02 1.012c1.636.136 4.265 1.984 5.906 3.957 1.636 1.972 4.265 6.761 5.902 10.258 1.64 3.496 4.27 10.476 5.906 14.945 1.641 4.465 4.27 12.523 5.907 17.258 1.64 4.73 4.265 12.605 5.906 16.86 1.637 4.253 4.266 10.698 5.906 13.8 1.637 3.101 4.266 7.094 5.906 8.55 1.637 1.462 4.266 2.376 5.903 1.962 1.64-.41 4.27-2.72 5.906-4.938 1.64-2.223 4.27-7.387 5.906-11.062 1.64-3.676 4.266-10.887 5.906-15.442 1.637-4.55 4.266-12.66 5.907-17.37 1.636-4.708 4.265-12.446 5.906-16.571 1.637-4.125 4.266-10.27 5.902-13.157 1.64-2.89 4.27-6.464 5.907-7.656 1.64-1.195 4.27-1.636 5.906-.949 1.64.688 4.265 3.445 5.906 5.902 1.64 2.461 4.266 7.985 5.906 11.829 1.637 3.843 4.266 11.261 5.907 15.882 1.636 4.621 5.906 17.43 5.906 17.43"/></g><use xlink:href="#g" x="27.121" y="103.896"/><use xlink:href="#h" x="31.355" y="101.083"/><use xlink:href="#i" x="53.35" y="103.896"/><use xlink:href="#g" x="57.585" y="103.896"/><use xlink:href="#h" x="61.819" y="101.083"/><use xlink:href="#j" x="81.697" y="103.896"/><use xlink:href="#g" x="85.932" y="103.896"/><use xlink:href="#h" x="90.166" y="101.083"/><use xlink:href="#k" x="110.044" y="103.896"/><use xlink:href="#g" x="114.279" y="103.896"/><use xlink:href="#h" x="118.512" y="101.083"/><use xlink:href="#l" x="138.391" y="103.896"/><use xlink:href="#g" x="142.626" y="103.896"/><use xlink:href="#h" x="146.859" y="101.083"/><use xlink:href="#m" x="166.737" y="103.896"/><use xlink:href="#g" x="170.972" y="103.896"/><use xlink:href="#h" x="175.206" y="101.083"/><use xlink:href="#n" x=".125" y="86.537"/><use xlink:href="#g" x="6.712" y="86.537"/><use xlink:href="#o" x="10.946" y="86.537"/><use xlink:href="#i" x="13.298" y="86.537"/><use xlink:href="#m" x="17.533" y="86.537"/><use xlink:href="#n" x=".125" y="73.369"/><use xlink:href="#g" x="6.712" y="73.369"/><use xlink:href="#o" x="10.946" y="73.369"/><use xlink:href="#i" x="13.298" y="73.369"/><use xlink:href="#g" x="17.533" y="73.369"/><use xlink:href="#n" x=".125" y="60.202"/><use xlink:href="#g" x="6.712" y="60.202"/><use xlink:href="#o" x="10.946" y="60.202"/><use xlink:href="#g" x="13.298" y="60.202"/><use xlink:href="#m" x="17.533" y="60.202"/><use xlink:href="#g" x="6.712" y="47.449"/><use xlink:href="#o" x="10.946" y="47.449"/><use xlink:href="#g" x="13.298" y="47.449"/><use xlink:href="#g" x="17.533" y="47.449"/><use xlink:href="#g" x="6.712" y="34.282"/><use xlink:href="#o" x="10.946" y="34.282"/><use xlink:href="#g" x="13.298" y="34.282"/><use xlink:href="#m" x="17.533" y="34.282"/><use xlink:href="#g" x="6.712" y="21.114"/><use xlink:href="#o" x="10.946" y="21.114"/><use xlink:href="#i" x="13.298" y="21.114"/><use xlink:href="#g" x="17.533" y="21.114"/><use xlink:href="#g" x="6.712" y="7.947"/><use xlink:href="#o" x="10.946" y="7.947"/><use xlink:href="#i" x="13.298" y="7.947"/><use xlink:href="#m" x="17.533" y="7.947"/></svg>