<svg xmlns="http://www.w3.org/2000/svg" xmlns:xlink="http://www.w3.org/1999/xlink" width="63.128" height="85.808"><defs><path id="a" d="M6.125 0v-.469h-.687v-2.578c0-1.047-.532-1.437-1.532-1.437a1.9 1.9 0 0 0-1.687.953v-3.39l-1.766.077v.469c.61 0 .688 0 .688.39v5.516H.453V0l1.25-.031L2.953 0v-.469h-.687v-2.078c0-1.094.859-1.578 1.5-1.578.328 0 .547.203.547.969V-.47h-.688V0l1.25-.031Zm0 0"/><path id="b" d="M5.25-3.281c0-.672 0-3.25-2.375-3.25-1.406 0-2.39.812-2.39 2.14 0 1.375.984 2.125 2.203 2.125.359 0 .828-.062 1.203-.765v.219c0 .734-.094 1.312-.235 1.656-.172.39-.61.843-1.297.843-.171 0-.53-.03-.828-.218.11-.031.485-.172.485-.625 0-.344-.235-.625-.625-.625-.391 0-.625.265-.625.64 0 .688.515 1.25 1.609 1.25C3.672.11 5.25-.734 5.25-3.28m-1.375-.985c0 .625-.25 1.641-1.094 1.641-.953 0-.953-.75-.953-1.734 0-.985 0-1.782 1.078-1.782.578 0 .813.532.86.625.109.329.109.907.109 1.25m0 0"/><path id="c" d="M4.766-1.172c0-.14-.141-.14-.235-.14-.187 0-.187.03-.25.156-.25.625-.734.812-1.234.812-1.39 0-1.39-1.453-1.39-1.922 0-.562 0-1.843 1.28-1.843.36 0 .516.015.657.046a.62.62 0 0 0-.203.47c0 .437.343.624.609.624.313 0 .64-.219.64-.625 0-.86-1.156-.922-1.734-.922C1.11-4.516.375-3.375.375-2.219.375-.89 1.313.063 2.844.063c1.625 0 1.922-1.157 1.922-1.235m0 0"/><path id="d" d="M5.516-.234c0-.235-.125-.235-.266-.235-.61-.015-.61-.14-.61-.375v-2.14c0-.891-.702-1.532-2.187-1.532-.562 0-1.781.047-1.781.922 0 .438.344.625.61.625.312 0 .624-.219.624-.625 0-.297-.187-.469-.218-.5a5 5 0 0 1 .718-.062c.75 0 1.11.422 1.11 1.172v.343c-.72.032-3.25.125-3.25 1.563C.266-.125 1.5.062 2.188.062c.796 0 1.265-.406 1.484-.828 0 .313 0 .766 1.047.766h.468c.204 0 .329 0 .329-.234m-2-1.157c0 .97-.922 1.094-1.172 1.094-.516 0-.906-.344-.906-.797 0-1.062 1.578-1.203 2.078-1.234Zm0 0"/><path id="e" d="M4.922-1.172c0-.172-.188-.172-.234-.172-.172 0-.188.047-.25.203-.204.485-.782.797-1.422.797-1.407 0-1.422-1.328-1.422-1.828h3.015c.22 0 .313 0 .313-.265 0-.313-.063-1.047-.563-1.547-.359-.36-.89-.532-1.578-.532C1.187-4.516.313-3.484.313-2.25c0 1.344 1 2.313 2.609 2.313 1.578 0 2-1.063 2-1.235M3.984-2.5h-2.39c.015-.39.031-.812.234-1.14.266-.391.672-.516.953-.516 1.172 0 1.188 1.312 1.203 1.656m0 0"/><path id="f" d="M5.156-2.219h-.468c-.032.203-.125.844-.266.906-.11.063-.86.063-1.016.063H1.937c.47-.39 1-.812 1.438-1.14 1.14-.844 1.781-1.313 1.781-2.25 0-1.157-1.047-1.891-2.437-1.891-1.219 0-2.156.625-2.156 1.515 0 .594.484.735.718.735C1.61-4.281 2-4.5 2-5c0-.516-.422-.672-.562-.719.28-.234.671-.343 1.03-.343.845 0 1.313.671 1.313 1.421 0 .688-.375 1.375-1.078 2.079l-2 2.046c-.14.11-.14.141-.14.344V0h4.28Zm0 0"/><path id="g" d="M5.281-3.187c0-.954-.015-3.344-2.422-3.344S.453-4.156.453-3.188c0 1 0 3.297 2.406 3.297 2.391 0 2.422-2.296 2.422-3.296M4-3.297c0 .563 0 1.469-.078 1.985-.14.921-.766 1.062-1.063 1.062-.359 0-.921-.219-1.046-.953-.094-.516-.094-1.547-.094-2.094 0-.719 0-1.375.078-1.89.125-.891.828-.985 1.062-.985.375 0 .782.188.97.625C4-5.172 4-4.109 4-3.297m0 0"/><path id="h" d="M2.656.422v-4.906l-1.828.078v.468c.172 0 .39 0 .531.016.22.047.22.172.22.39V.423c0 .5-.141 1.219-.735 1.219-.172 0-.25-.032-.39-.063a.62.62 0 0 0 .233-.5.617.617 0 0 0-.624-.625c-.375 0-.625.281-.625.64 0 .563.609.907 1.421.907.86 0 1.797-.531 1.797-1.578m0-6.469a.774.774 0 1 0-1.547-.015.774.774 0 0 0 1.547.015m0 0"/><path id="i" d="M5.406 0v-.469h-.968v-1.094h.968v-.468h-.968V-6.22c0-.265-.016-.328-.297-.328-.22 0-.22.016-.344.172L.313-2.031v.469h2.875V-.47h-1.11V0c.375-.031 1.281-.031 1.703-.031.406 0 1.266 0 1.625.031m-2.11-2.031H.845L3.297-5.11Zm0 0"/><path id="j" d="M5.563-6.422H3.53c-.234 0-1.703-.047-1.844-.094-.203-.03-.218-.125-.234-.218H.984l-.343 2.53h.468c.094-.765.22-.89.266-.905.11-.063.922-.063 1.094-.063H4.14c-.172.219-.36.422-.547.64-.953 1.126-1.672 2.47-1.672 3.938 0 .703.562.703.625.703.156 0 .625-.046.625-.703v-.468c0-.47.031-.954.094-1.422.093-.672.297-1.25.656-1.657l1.547-1.796c.093-.11.093-.141.093-.485m0 0"/></defs><use xlink:href="#a" x=".897" y="29.188"/><path fill="none" stroke="#000" stroke-miterlimit="10" stroke-width=".399" d="M4.078.906v17.45"/><path fill="none" stroke="#000" stroke-linecap="round" stroke-linejoin="round" stroke-miterlimit="10" stroke-width=".399" d="M6.473 16.484c-1.438.38-2.114 1.223-2.395 2.07-.277-.847-.953-1.69-2.39-2.07"/><path fill="#FFF" d="M.219 14.145H7.94v-8.63H.22Zm0 0"/><use xlink:href="#b" x="1.215" y="13.037"/><use xlink:href="#c" x="1.534" y="56.304"/><use xlink:href="#d" x="1.295" y="84.651"/><use xlink:href="#e" x="29.801" y="84.651"/><path fill="none" stroke="#000" stroke-miterlimit="10" stroke-width=".797" d="M4.078 59.887V75.82"/><path fill="none" stroke="#000" stroke-linecap="round" stroke-linejoin="round" stroke-miterlimit="10" stroke-width=".797" d="M7.191 73.672c-1.867.465-2.75 1.504-3.113 2.547-.36-1.043-1.242-2.082-3.11-2.547"/><path fill="#FFF" d="M.219 72.512H7.94v-8.52H.22Zm0 0"/><use xlink:href="#f" x="1.215" y="71.513"/><path fill="none" stroke="#000" stroke-miterlimit="10" stroke-width=".399" d="M9.887 59.887 26.34 76.336"/><path fill="none" stroke="#000" stroke-linecap="round" stroke-linejoin="round" stroke-miterlimit="10" stroke-width=".39899202" d="M26.707 73.324c-.746 1.281-.629 2.356-.227 3.153-.796-.403-1.875-.52-3.156.226"/><path fill="#FFF" d="M14.395 72.566h7.718v-8.629h-7.718Zm0 0"/><use xlink:href="#g" x="15.388" y="71.459"/><use xlink:href="#h" x="59.024" y="56.493"/><path fill="none" stroke="#000" stroke-miterlimit="10" stroke-width=".399" d="M4.078 32.707v15.168"/><path fill="none" stroke="#000" stroke-linecap="round" stroke-linejoin="round" stroke-miterlimit="10" stroke-width=".399" d="M6.473 46c-1.438.379-2.114 1.223-2.395 2.074-.277-.851-.953-1.695-2.39-2.074"/><path fill="#FFF" d="M.219 44.754H7.94v-8.527H.22Zm0 0"/><use xlink:href="#i" x="1.215" y="43.757" fill="red"/><path fill="none" stroke="#000" stroke-miterlimit="10" stroke-width=".399" d="M10.781 29.082 55.148 51.27"/><path fill="none" stroke="#000" stroke-linecap="round" stroke-linejoin="round" stroke-miterlimit="10" stroke-width=".39897606" d="M54.543 48.293c-.305 1.45.148 2.434.785 3.062-.887-.128-1.945.098-2.922 1.215"/><path fill="#FFF" d="M29.285 44.684h7.719v-8.84h-7.719Zm0 0"/><use xlink:href="#j" x="30.279" y="43.575"/></svg>