<svg xmlns="http://www.w3.org/2000/svg" width="89.145" height="74.972"><path fill="none" stroke="#7F7F7F" stroke-miterlimit="10" stroke-width=".199" d="M2.574 57.777h85.04M2.573 29.434h85.04M2.573 1.094h85.04M2.573 57.777V1.086m28.344 56.691V1.086m28.348 56.691V1.086m28.336 56.691V1.086"/><path d="M32.91 71.953a1.993 1.993 0 1 0-3.983.002 1.993 1.993 0 0 0 3.983-.002m-.43-7.598c0-1.101-.89-1.996-1.992-1.996a1.994 1.994 0 0 0 0 3.989 1.993 1.993 0 0 0 1.992-1.993m-1.277-7.8a1.993 1.993 0 1 0-3.986.001 1.993 1.993 0 0 0 3.986-.001m-2.09-7.762a1.99 1.99 0 0 0-1.992-1.992 1.99 1.99 0 0 0-1.992 1.992 1.99 1.99 0 0 0 1.992 1.992 1.99 1.99 0 0 0 1.992-1.992m-2.832-7.488a1.994 1.994 0 0 0-3.988 0 1.994 1.994 0 0 0 3.988 0m-3.496-6.989a1.993 1.993 0 1 0-3.986.002 1.993 1.993 0 0 0 3.986-.002m-4.047-6.273a1.99 1.99 0 0 0-1.992-1.992 1.993 1.993 0 1 0 1.992 1.992m-4.476-5.371a1.994 1.994 0 0 0-3.988 0c0 1.098.894 1.992 1.996 1.992a1.996 1.996 0 0 0 1.992-1.992m-4.774-4.305a1.996 1.996 0 0 0-1.992-1.996 1.994 1.994 0 0 0 0 3.988 1.996 1.996 0 0 0 1.992-1.992m-4.922-3.11a1.996 1.996 0 0 0-1.992-1.991 1.996 1.996 0 0 0-1.996 1.992 1.994 1.994 0 0 0 3.988 0m0 0"/></svg>