<svg xmlns="http://www.w3.org/2000/svg" xmlns:xlink="http://www.w3.org/1999/xlink" width="395.192" height="496.154"><defs><path id="b" d="M0 8.25h.469v-.969L6.703 4.72c.25-.11.25-.219.25-.39 0-.282-.078-.329-.25-.391l-6-2.47C.547 1.407.47 1.376.47.626V.406H0l.031 1.172c0 .39 0 .938-.031 1.313h.469S.469 2 .594 2l.125.047 1.203.5v2.672l-1.453.593V4.86H0c.031.391.031 1.329.031 1.766 0 .39 0 1.266-.031 1.625m2.39-3.234V2.734l2.766 1.141Zm0 0"/><path id="c" d="M3.672 4.406c.531 0 .812-.531.812-1.062 0-.688-.5-1.094-1.125-1.313h1.125L4.406.375h-.468c0 .61 0 .688-.391.688H.469V.375H0l.031 1.25C.031 2 .031 2.641 0 3h.469v-.86h1.75c.687 0 1.906.235 1.906 1.235 0 0-.172-.187-.453-.187-.406 0-.61.328-.61.609 0 .297.204.61.61.61m0 0"/><path id="d" d="M2.172 5.406c1.344 0 2.344-.922 2.344-2.547C4.516 1.22 3.5.313 2.172.313c-1.235 0-2.234.89-2.234 2.546 0 1.672 1.015 2.547 2.234 2.547m.11-1.281c-.86 0-1.938 0-1.938-1.266 0-1.265 1.078-1.265 1.937-1.265.453 0 .953 0 1.297.172.375.187.578.609.578 1.093 0 .422-.156.844-.5 1.063-.344.203-.89.203-1.375.203m0 0"/><path id="e" d="M3.953 8.031h.469a13 13 0 0 1-.031-.781l.03-.953h-.468c0 .094 0 .578-.11.578-.03 0-.093-.031-.124-.031L1.172 5.797l2.781-1.14v.562h.469l-.031-1.14c0-.423.03-.845.03-1h-.468v.593c-.5.203-.531.203-.531.203-.031 0-.094-.031-.125-.031L1.39 3.047 3.953 2v.563h.469L4.39 1.328 4.42.25h-.468v.594L.234 2.359c-.171.079-.28.11-.28.36s.109.297.28.36L2.813 4.14.233 5.188c-.171.078-.28.109-.28.359s.109.297.28.36L3.75 7.343c.125.047.203.093.203.687m0 0"/><path id="f" d="M1.86 7.5c.952 0 1.624-.844 1.703-2.031.203 1.078.796 1.718 1.562 1.718.922 0 1.719-.875 1.719-2.468V.39h-.469v1.078H.469V.39H0v4.625C0 6.672.875 7.5 1.86 7.5m3.265-1.734c-.766 0-1.39-.47-1.39-1.438V2.766h2.64v1.812c0 1.016-.797 1.188-1.25 1.188m-3.266.28c-.109 0-1.39 0-1.39-1.437V2.766h2.906v1.937c0 .203 0 .672-.422 1.016-.422.328-.984.328-1.094.328m0 0"/><path id="g" d="M0 5.828h.469v-.703l1.984-1.672L3.75 4.61c.14.141.203.204.203 1.016h.469l-.031-.906.03-1.032h-.468c0 .141-.015.266-.078.376-.062-.032-.094-.032-.125-.079l-.937-.828 1.14-.984v.406h.469L4.39 1.36 4.42.266h-.468v.718L2.125 2.531.656 1.22C.47 1.062.47.703.47.219H0l.031.922L0 2.156h.469c0-.172.047-.36.11-.36 0 0 .015 0 .093.063l1.094.97L.469 3.921v-.39H0l.031 1.202Zm0 0"/><path id="h" d="M-.312 3.078c.125 0 .156-.047.25-.187C.5 2.063 1.39 1.75 2.125 1.75c.672 0 1.594.25 2.203 1.156.094.125.125.172.25.172.063 0 .25-.047.25-.265 0-.204-.906-1.641-2.703-1.641a3.07 3.07 0 0 0-1.781.562c-.516.375-.906.907-.906 1.079 0 .218.171.265.25.265m0 0"/><path id="i" d="M.906 3.219c.735 0 .907-.906.938-1.14l.125-.704C2 1.188 2.079 1 2.25 1c.156 0 .328.219.328.813 0 .515-.172.609-.328.625-.14.015-.281.03-.281.28 0 .298.156.298.328.298h.469c.14 0 .328-.016.328-.25 0-.157-.063-.22-.125-.25.125-.282.125-.563.125-.688C3.094.641 2.5.484 2.25.484c-.656 0-.797.735-.89 1.391-.063.297-.141.828-.454.828-.234 0-.422-.25-.422-.828 0-.297.063-.656.563-.812.156-.032.234-.079.234-.282 0-.297-.172-.297-.328-.297H.297c-.14 0-.344 0-.344.25 0 .079 0 .188.235.282-.22.328-.235.672-.235.859 0 1.125.61 1.344.953 1.344m0 0"/><path id="j" d="M.469 2.313a.477.477 0 0 0 .484-.485.47.47 0 0 0-.469-.469.474.474 0 0 0-.484.47c0 .296.234.484.469.484m0 0"/><path id="k" d="M.797 3.266c.234 0 .234-.235.234-.297 0-.125 0-.203-.172-.266-.078-.047-.375-.187-.375-.625 0-.547.454-1.015 1.032-1.015.312 0 1.062.187 1.062 1.062l-.015.344c-.282.015-.376.172-.376.36 0 .187.126.358.36.358.531 0 .547-.734.547-1.062 0-1.219-.953-1.64-1.578-1.64-.844 0-1.563.671-1.563 1.546 0 1 .719 1.235.844 1.235m0 0"/><path id="l" d="M.797 3.25c.234 0 .234-.234.234-.281 0-.156-.015-.219-.172-.281-.328-.141-.375-.485-.375-.657 0-.469.297-.937.813-1.062v1.953c0 .172 0 .328.312.328.797 0 1.485-.453 1.485-1.375 0-.828-.703-1.516-1.563-1.516s-1.578.72-1.578 1.625c0 .938.656 1.266.844 1.266m1.015-.594V.97c.438.125.766.484.766.906 0 .328-.156.703-.765.781m0 0"/><path id="m" d="M.266 3.578c.25 0 .25-.203.25-.328V3h1.53c.72 0 1.032-.36 1.032-.937 0-.391-.172-.672-.297-.844.172 0 .25-.047.25-.313v-.5c0-.14 0-.328-.25-.328-.265 0-.265.203-.265.313v.25h-2V.406c0-.14 0-.328-.25-.328C0 .078 0 .281 0 .391v1.093c0 .11 0 .329.266.329.25 0 .25-.204.25-.344v-.25h1.156c.64 0 .875.484.875.797 0 .328-.172.406-.547.406H.516v-.203c0-.14 0-.344-.25-.344C0 1.875 0 2.094 0 2.219V3.25c0 .11 0 .328.266.328m0 0"/><path id="n" d="M.906 3.14c.156 0 .313 0 .313-.296 0-.266-.157-.266-.297-.266-.375-.015-.438-.36-.438-.515 0-.454.313-.454.47-.454h1.562v1.047c0 .125 0 .328.265.328.25 0 .25-.187.25-.328V1.61h.516c.14 0 .328-.015.328-.296 0-.282-.172-.282-.328-.282H3.03V.484c0-.125 0-.328-.25-.328-.265 0-.265.203-.265.328v.547H.906c-.687 0-.953.485-.953 1.016S.266 3.14.906 3.14m0 0"/><path id="o" d="M2.594 3.406c.156 0 .484-.078.484-.703 0-.328-.11-.734-.469-1.094h.094c.25 0 .328-.046.328-.328v-.75c0-.125 0-.328-.25-.328-.265 0-.265.203-.265.328v.5h-2v-.5c0-.125 0-.328-.25-.328C0 .203 0 .406 0 .531v1.781c0 .126 0 .329.266.329.25 0 .25-.203.25-.328v-.704h.797c.609 0 1.218.36 1.234 1.11-.156 0-.281.172-.281.344 0 .187.125.343.328.343m0 0"/><path id="p" d="M2.125 2.484c.828 0 1.453-.312 1.797-.562.515-.375.906-.906.906-1.078 0-.203-.187-.266-.25-.266-.125 0-.187.094-.219.14-.718 1.095-1.796 1.188-2.234 1.188-.656 0-1.578-.25-2.187-1.14C-.142.64-.187.578-.312.578a.257.257 0 0 0-.25.266c0 .203.906 1.64 2.687 1.64m0 0"/><path id="q" d="M.266 3.469c.25 0 .25-.203.25-.328v-.25l1.047-.828.953.734v.234c0 .125 0 .344.265.344.25 0 .25-.219.25-.344V2.25c0-.125 0-.328-.25-.328-.203 0-.265.11-.265.281l-.547-.39.547-.422c0 .156.062.28.265.28.25 0 .25-.202.25-.327V.547c0-.125 0-.328-.25-.328-.265 0-.265.219-.265.328v.25l-.953.75L.516.75V.516c0-.125 0-.344-.25-.344C0 .172 0 .39 0 .516v.78c0 .126 0 .329.266.329.203 0 .25-.11.25-.297l.703.484-.703.5c0-.187-.047-.296-.25-.296C0 2.016 0 2.219 0 2.344v.797c0 .109 0 .328.266.328m0 0"/><path id="r" d="M.266 3.64c.218 0 .25-.14.25-.39h1.593c.157 0 .97-.016.97-.656a.84.84 0 0 0-.313-.656.61.61 0 0 0 .312-.532.88.88 0 0 0-.203-.547c.156-.046.156-.187.156-.312V.328c0-.125 0-.328-.25-.328-.234 0-.265.125-.265.39h-2C.516.126.484 0 .266 0 0 0 0 .219 0 .328v.594c0 .125 0 .312.266.312.218 0 .25-.109.25-.359h1.172c.562 0 .859.234.859.5 0 .14-.11.203-.5.203H.516c0-.156-.032-.281-.25-.281C0 1.297 0 1.484 0 1.609v.516c0 .125 0 .313.266.313.218 0 .25-.126.25-.376h1.172c.562 0 .859.25.859.5 0 .141-.11.204-.5.204H.516c0-.141-.032-.282-.25-.282C0 2.484 0 2.688 0 2.797v.5c0 .125 0 .344.266.344m0 0"/><path id="s" d="M.266 3.188c.25 0 .25-.204.25-.329v-.656h2.187c.25 0 .328-.047.328-.328V.906c0-.125 0-.328-.25-.328-.265 0-.265.203-.265.328v.719h-2V.859c0-.14 0-.343-.25-.343C0 .516 0 .734 0 .859v2c0 .125 0 .329.266.329m3.562-.954a.39.39 0 0 0 .39-.406.387.387 0 0 0-.39-.39.387.387 0 0 0-.39.39.39.39 0 0 0 .39.406m0 0"/><path id="t" d="M.266 3.578c.25 0 .25-.203.25-.328V3h3.406c.25 0 .344-.047.344-.328v-.485c0-.14-.016-.343-.266-.343s-.266.218-.266.328v.25h-.906c.156-.219.25-.469.25-.735 0-.765-.672-1.453-1.562-1.453C.64.234-.047.875-.047 1.625c0 .344.14.61.313.797C.078 2.437 0 2.484 0 2.75v.5c0 .125 0 .328.266.328m1.109-1.156c-.36 0-.89-.297-.89-.781 0-.453.453-.828 1.03-.828.61 0 1.032.437 1.032.89 0 .406-.344.719-.688.719Zm0 0"/><path id="u" d="M1.516 3.422c.875 0 1.562-.64 1.562-1.39 0-.298-.11-.579-.265-.813h1.109c.25 0 .344-.047.344-.313v-.5c0-.14-.016-.343-.266-.343S3.734.28 3.734.39v.25H.328C.172.64 0 .656 0 .938c0 .218.094.28.234.28a1.15 1.15 0 0 0-.28.735c0 .766.671 1.469 1.562 1.469m0-.578c-.61 0-1.032-.453-1.032-.906 0-.485.563-.704.875-.704h.485c.375 0 .703.375.703.766 0 .469-.469.844-1.031.844m0 0"/><path id="v" d="M.266 3.625c.25 0 .25-.203.25-.328 0-.203.03-.297.046-.344H2c.5 0 1.094-.375 1.094-1.406 0-.313-.016-1.031-.547-1.031-.235 0-.36.172-.36.359 0 .11.063.344.36.344 0 0 .031.234.031.343 0 .454-.187.782-.594.813C1.954 1.156 1.594.328.922.328c-.485 0-.969.453-.969 1.188 0 .234.047.656.25.968-.187.172-.203.485-.203.75 0 .235.016.391.266.391m.703-1.266c-.14 0-.266 0-.375-.234-.11-.234-.11-.516-.11-.578 0-.39.204-.64.438-.64.312 0 .516.546.562 1.452Zm0 0"/><path id="w" d="M4 3.36c.25 0 .266-.188.266-.329V.828c.093-.062.109-.187.109-.25 0-.281-.187-.281-.344-.281H3.75c-.156 0-.328 0-.328.281 0 .266.125.281.312.297v1.61C2.5 1.358 1.031 1.155.297 1.155c-.11 0-.375 0-.375.282 0 .14.094.28.328.28a4.94 4.94 0 0 1 3.469 1.47c.14.171.156.171.281.171m0 0"/><path id="x" d="M1.344 3.297c.718 0 1.406-.531 1.406-1.36 0-.234-.047-.515-.172-.78h1.156V2.75c0 .11.016.313.266.313s.266-.188.266-.313V.906c0-.265-.079-.312-.344-.312H2.125c-.156 0-.344 0-.344.265 0 .157.047.188.125.25.203.172.328.438.328.813 0 .531-.484.812-.89.812-.516 0-.89-.468-.89-1 0-.171.046-.562.359-.75.046.032.109.079.218.079a.367.367 0 0 0 .375-.36c0-.125-.078-.36-.39-.36-.578 0-1.094.595-1.094 1.391 0 .875.64 1.563 1.422 1.563m0 0"/><path id="y" d="M2.781 3.547c.25 0 .25-.188.25-.328v-.781c0-.157 0-.344-.25-.344-.265 0-.265.172-.265.344v.265l-1.72-.297.532-.14c.469-.125.547-.172.547-.422 0-.094 0-.235-.187-.328L.78 1.25 2.516.953v.266c0 .156 0 .343.265.343.25 0 .25-.187.25-.343V.437c0-.14 0-.343-.25-.343-.234 0-.265.14-.265.36L.28.858C.094.891-.03.906-.03 1.22c0 .312.062.343.515.453l.641.172-1 .265c-.14.094-.156.235-.156.344 0 .281.125.313.312.344l2.235.406c0 .219.03.344.265.344m0 0"/><path id="z" d="M1.516 3.281c.89 0 1.578-.672 1.578-1.453 0-.797-.688-1.453-1.578-1.453s-1.563.672-1.563 1.453c0 .766.688 1.453 1.563 1.453m.046-.578c-.593 0-1.078-.406-1.078-.875S.97.953 1.563.953c.593 0 1.015.422 1.015.875s-.422.875-1.015.875m0 0"/><path id="A" d="M.266 3.578c.25 0 .25-.203.25-.328V3h1.53c.72 0 1.032-.36 1.032-.937 0-.391-.172-.672-.297-.844h1.14c.25 0 .345-.047.345-.313v-.5c0-.14-.016-.328-.266-.328s-.266.203-.266.313v.25H.516V.406c0-.14 0-.328-.25-.328C0 .078 0 .281 0 .391v1.093c0 .11 0 .329.266.329.25 0 .25-.204.25-.344v-.25h1.156c.64 0 .875.484.875.797 0 .328-.172.406-.547.406H.516v-.203c0-.14 0-.344-.25-.344C0 1.875 0 2.094 0 2.219V3.25c0 .11 0 .328.266.328m0 0"/><path id="B" d="M.266 3.578c.25 0 .25-.219.25-.328V3h2.187c.25 0 .328-.047.328-.328v-.485c0-.14 0-.343-.25-.343-.265 0-.265.218-.265.328v.25H1.125c-.562 0-.64-.516-.64-.719 0-.469.187-.484.39-.484h1.828c.25 0 .328-.047.328-.313v-.5c0-.14 0-.328-.25-.328-.265 0-.265.203-.265.313v.25H.828c-.687 0-.875.5-.875 1.03 0 .266.063.517.219.767C0 2.484 0 2.625 0 2.75v.5c0 .125 0 .328.266.328m0 0"/><path id="C" d="M1.516 3.422c.875 0 1.562-.64 1.562-1.39 0-.298-.11-.579-.281-.813.172 0 .234-.063.234-.313v-.5c0-.14 0-.343-.25-.343-.265 0-.265.218-.265.328v.25h-3.5V.406c0-.14 0-.343-.266-.343-.25 0-.25.218-.25.328v1.093c0 .11 0 .329.25.329.266 0 .266-.204.266-.344v-.25H.234a1.07 1.07 0 0 0-.28.734c0 .766.671 1.469 1.562 1.469m0-.578c-.61 0-1.032-.453-1.032-.906 0-.485.563-.704.875-.704h.485c.375 0 .703.375.703.766 0 .469-.469.844-1.031.844m0 0"/><path id="D" d="M3.844 3.063c.437 0 .453-.579.453-.704 0-.578-.328-1.125-.953-1.125H3.03V.61c0-.125 0-.328-.25-.328-.265 0-.265.203-.265.328v.625h-2V.61c0-.125 0-.343-.25-.343C0 .266 0 .484 0 .609v1.844c0 .125 0 .328.266.328.25 0 .25-.203.25-.328v-.64h2v.78c0 .11 0 .313.265.313.25 0 .25-.187.25-.312v-.781h.266c.453 0 .484.359.484.562-.11.031-.297.125-.297.344a.35.35 0 0 0 .36.344m0 0"/><clipPath id="a"><path d="M0 0h394.79v495.73H0Zm0 0"/></clipPath></defs><path fill="#FFFBB3" d="M267.621 304.11h-42.547v99.214h21.258l-49.605 49.606-49.61-49.606h21.262V304.11h-42.55v-28.105H69.136v21.262l-49.61-49.606 49.61-49.61v21.262h56.691v-28.105h42.55v-99.21h-21.26l49.609-49.61 49.605 49.61h-21.258v99.21h42.547v28.106h56.692V198.05l49.609 49.61-49.61 49.605v-21.262h-56.69Zm0 0"/><g clip-path="url(#a)"><path fill="none" stroke="#B2B2B2" stroke-miterlimit="10" stroke-width="14.173" d="M267.621 304.11h-42.547v99.214h21.258l-49.605 49.606-49.61-49.606h21.262V304.11h-42.55v-28.105H69.136v21.262l-49.61-49.606 49.61-49.61v21.262h56.691v-28.105h42.55v-99.21h-21.26l49.609-49.61 49.605 49.61h-21.258v99.21h42.547v28.106h56.692V198.05l49.609 49.61-49.61 49.605v-21.262h-56.69Zm0 0"/></g><g fill="#B2B2B2"><use xlink:href="#b" x="168.409" y="219.555"/><use xlink:href="#c" x="168.409" y="228.213"/><use xlink:href="#c" x="168.409" y="232.935"/><use xlink:href="#d" x="168.409" y="237.657"/></g><use xlink:href="#e" x="168.409" y="243.067" fill="#B2B2B2"/><g fill="#B2B2B2"><use xlink:href="#f" x="168.409" y="255.161"/><use xlink:href="#d" x="168.409" y="263.311"/></g><use xlink:href="#g" x="168.409" y="268.721" fill="#B2B2B2"/><path fill="none" stroke="#B2B2B2" stroke-miterlimit="10" stroke-width=".996" d="M168.348 275.266h56.754"/><path fill="none" stroke="#000" stroke-miterlimit="10" stroke-width=".399" d="m195.316 249.066 2.82-2.816m-2.82 0 2.82 2.816"/><use xlink:href="#h" x="200.803" y="229.353"/><use xlink:href="#i" x="200.803" y="233.014"/><use xlink:href="#j" x="200.803" y="236.676"/><use xlink:href="#k" x="200.803" y="240.337"/><use xlink:href="#l" x="200.803" y="243.998"/><use xlink:href="#m" x="200.803" y="247.659"/><use xlink:href="#n" x="200.803" y="251.321"/><use xlink:href="#l" x="200.803" y="254.982"/><use xlink:href="#o" x="200.803" y="258.643"/><use xlink:href="#p" x="200.803" y="262.304"/><path fill="none" stroke="#000" stroke-miterlimit="10" stroke-width=".399" d="m167 220.965 2.816-2.82m-2.816 0 2.816 2.82"/><use xlink:href="#h" x="172.487" y="204.91"/><use xlink:href="#i" x="172.487" y="208.571"/><use xlink:href="#j" x="172.487" y="212.233"/><use xlink:href="#n" x="172.487" y="215.894"/><use xlink:href="#l" x="172.487" y="219.555"/><use xlink:href="#q" x="172.487" y="223.216"/><use xlink:href="#n" x="172.487" y="226.878"/><use xlink:href="#p" x="172.487" y="230.539"/><path fill="none" stroke="#000" stroke-miterlimit="10" stroke-width=".399" d="m169.21 249.066 2.821-2.816m-2.82 0 2.82 2.816"/><use xlink:href="#h" x="168.487" y="251.179"/><use xlink:href="#i" x="168.487" y="254.84"/><use xlink:href="#j" x="168.487" y="258.502"/><use xlink:href="#r" x="168.487" y="262.163"/><use xlink:href="#s" x="168.487" y="265.824"/><use xlink:href="#t" x="168.487" y="269.485"/><use xlink:href="#p" x="168.487" y="273.147"/><path fill="none" stroke="#000" stroke-miterlimit="10" stroke-width=".399" d="m167 249.066 2.816-2.816m-2.816 0 2.816 2.816"/><use xlink:href="#h" x="160.064" y="233.014"/><use xlink:href="#i" x="160.064" y="236.675"/><use xlink:href="#j" x="160.064" y="240.337"/><use xlink:href="#u" x="160.064" y="243.998"/><use xlink:href="#v" x="160.064" y="247.659"/><use xlink:href="#i" x="160.064" y="251.32"/><use xlink:href="#l" x="160.064" y="254.982"/><use xlink:href="#p" x="160.064" y="258.643"/><path fill="none" stroke="#000" stroke-miterlimit="10" stroke-width=".399" d="m342.98 288.637 2.82-2.82m-2.82 0 2.82 2.82"/><use xlink:href="#h" x="348.466" y="276.243"/><use xlink:href="#i" x="348.466" y="279.904"/><use xlink:href="#j" x="348.466" y="283.566"/><use xlink:href="#w" x="348.466" y="287.227"/><use xlink:href="#x" x="348.466" y="290.888"/><use xlink:href="#p" x="348.466" y="294.549"/><path fill="none" stroke="#000" stroke-miterlimit="10" stroke-width=".399" d="m169.21 438.273 2.821-2.816m-2.82 0 2.82 2.816"/><use xlink:href="#h" x="168.487" y="440.384"/><use xlink:href="#i" x="168.487" y="444.045"/><use xlink:href="#j" x="168.487" y="447.707"/><use xlink:href="#r" x="168.487" y="451.368"/><use xlink:href="#s" x="168.487" y="455.029"/><use xlink:href="#t" x="168.487" y="458.69"/><use xlink:href="#l" x="168.487" y="466.013"/><use xlink:href="#v" x="168.487" y="469.674"/><use xlink:href="#i" x="168.487" y="473.335"/><use xlink:href="#n" x="168.487" y="476.997"/><use xlink:href="#p" x="168.487" y="480.658"/><path fill="none" stroke="#000" stroke-miterlimit="10" stroke-width=".399" d="m169.21 59.867 2.821-2.82m-2.82 0 2.82 2.82"/><use xlink:href="#h" x="168.487" y="11.004"/><use xlink:href="#i" x="168.487" y="14.665"/><use xlink:href="#j" x="168.487" y="18.327"/><use xlink:href="#r" x="168.487" y="21.988"/><use xlink:href="#s" x="168.487" y="25.649"/><use xlink:href="#t" x="168.487" y="29.31"/><use xlink:href="#y" x="168.487" y="36.633"/><use xlink:href="#l" x="168.487" y="40.294"/><use xlink:href="#i" x="168.487" y="43.955"/><use xlink:href="#n" x="168.487" y="47.617"/><use xlink:href="#p" x="168.487" y="51.278"/><path fill="none" stroke="#000" stroke-miterlimit="10" stroke-width=".399" d="m167 436.063 2.816-2.817m-2.816 0 2.816 2.817"/><use xlink:href="#h" x="166.275" y="438.172"/><use xlink:href="#i" x="166.275" y="441.833"/><use xlink:href="#j" x="166.275" y="445.495"/><use xlink:href="#u" x="166.275" y="449.156"/><use xlink:href="#v" x="166.275" y="452.817"/><use xlink:href="#i" x="166.275" y="456.478"/><use xlink:href="#l" x="166.275" y="460.14"/><use xlink:href="#l" x="166.275" y="467.462"/><use xlink:href="#v" x="166.275" y="471.123"/><use xlink:href="#i" x="166.275" y="474.785"/><use xlink:href="#n" x="166.275" y="478.446"/><use xlink:href="#p" x="166.275" y="482.107"/><path fill="none" stroke="#000" stroke-miterlimit="10" stroke-width=".399" d="m167 62.078 2.816-2.82m-2.816 0 2.816 2.82"/><use xlink:href="#h" x="166.275" y="9.555"/><use xlink:href="#i" x="166.275" y="13.216"/><use xlink:href="#j" x="166.275" y="16.878"/><use xlink:href="#u" x="166.275" y="20.539"/><use xlink:href="#v" x="166.275" y="24.2"/><use xlink:href="#i" x="166.275" y="27.861"/><use xlink:href="#l" x="166.275" y="31.523"/><use xlink:href="#y" x="166.275" y="38.845"/><use xlink:href="#l" x="166.275" y="42.506"/><use xlink:href="#i" x="166.275" y="46.168"/><use xlink:href="#n" x="166.275" y="49.829"/><use xlink:href="#p" x="166.275" y="53.49"/><path fill="none" stroke="#000" stroke-miterlimit="10" stroke-width=".399" d="m382.54 249.066 2.815-2.816m-2.816 0 2.816 2.816"/><use xlink:href="#h" x="375.598" y="231.184"/><use xlink:href="#i" x="375.598" y="234.845"/><use xlink:href="#j" x="375.598" y="238.507"/><use xlink:href="#m" x="375.598" y="242.168"/><use xlink:href="#z" x="375.598" y="245.829"/><use xlink:href="#o" x="375.598" y="249.49"/><use xlink:href="#n" x="375.598" y="253.152"/><use xlink:href="#A" x="375.598" y="256.813"/><use xlink:href="#p" x="375.598" y="260.474"/><path fill="none" stroke="#000" stroke-miterlimit="10" stroke-width=".399" d="m8.098 249.066 2.816-2.816m-2.816 0 2.816 2.816"/><use xlink:href="#h" x="1.162" y="231.184"/><use xlink:href="#i" x="1.162" y="234.845"/><use xlink:href="#j" x="1.162" y="238.507"/><use xlink:href="#i" x="1.162" y="242.168"/><use xlink:href="#z" x="1.162" y="245.829"/><use xlink:href="#B" x="1.162" y="249.49"/><use xlink:href="#n" x="1.162" y="253.152"/><use xlink:href="#A" x="1.162" y="256.813"/><use xlink:href="#p" x="1.162" y="260.474"/><path fill="none" stroke="#000" stroke-miterlimit="10" stroke-width=".399" d="m195.316 464.363 2.82-2.816m-2.82 0 2.82 2.816"/><use xlink:href="#h" x="188.38" y="448.307"/><use xlink:href="#i" x="188.38" y="451.968"/><use xlink:href="#j" x="188.38" y="455.63"/><use xlink:href="#l" x="188.38" y="459.291"/><use xlink:href="#v" x="188.38" y="462.952"/><use xlink:href="#i" x="188.38" y="466.613"/><use xlink:href="#n" x="188.38" y="470.275"/><use xlink:href="#p" x="188.38" y="473.936"/><path fill="none" stroke="#000" stroke-miterlimit="10" stroke-width=".399" d="m195.316 33.773 2.82-2.82m-2.82 0 2.82 2.82"/><use xlink:href="#h" x="188.38" y="17.722"/><use xlink:href="#i" x="188.38" y="21.383"/><use xlink:href="#j" x="188.38" y="25.045"/><use xlink:href="#y" x="188.38" y="28.706"/><use xlink:href="#l" x="188.38" y="32.367"/><use xlink:href="#i" x="188.38" y="36.028"/><use xlink:href="#n" x="188.38" y="39.69"/><use xlink:href="#p" x="188.38" y="43.351"/><path fill="none" stroke="#000" stroke-miterlimit="10" stroke-width=".399" d="m273.3 312.605 2.817-2.816m-2.816 0 2.816 2.816"/><use xlink:href="#h" x="278.786" y="285.568"/><use xlink:href="#i" x="278.786" y="289.229"/><use xlink:href="#j" x="278.786" y="292.891"/><use xlink:href="#m" x="278.786" y="296.552"/><use xlink:href="#z" x="278.786" y="300.213"/><use xlink:href="#o" x="278.786" y="303.874"/><use xlink:href="#n" x="278.786" y="307.536"/><use xlink:href="#A" x="278.786" y="311.197"/><use xlink:href="#l" x="278.786" y="318.519"/><use xlink:href="#v" x="278.786" y="322.181"/><use xlink:href="#i" x="278.786" y="325.842"/><use xlink:href="#n" x="278.786" y="329.503"/><use xlink:href="#p" x="278.786" y="333.165"/><path fill="none" stroke="#000" stroke-miterlimit="10" stroke-width=".399" d="m117.332 312.605 2.82-2.816m-2.82 0 2.82 2.816"/><use xlink:href="#h" x="122.821" y="285.568"/><use xlink:href="#i" x="122.821" y="289.229"/><use xlink:href="#j" x="122.821" y="292.891"/><use xlink:href="#i" x="122.821" y="296.552"/><use xlink:href="#z" x="122.821" y="300.213"/><use xlink:href="#B" x="122.821" y="303.874"/><use xlink:href="#n" x="122.821" y="307.536"/><use xlink:href="#A" x="122.821" y="311.197"/><use xlink:href="#l" x="122.821" y="318.519"/><use xlink:href="#v" x="122.821" y="322.181"/><use xlink:href="#i" x="122.821" y="325.842"/><use xlink:href="#n" x="122.821" y="329.503"/><use xlink:href="#p" x="122.821" y="333.165"/><path fill="none" stroke="#000" stroke-miterlimit="10" stroke-width=".399" d="m117.332 185.531 2.82-2.82m-2.82 0 2.82 2.82"/><use xlink:href="#h" x="110.398" y="158.493"/><use xlink:href="#i" x="110.398" y="162.154"/><use xlink:href="#j" x="110.398" y="165.816"/><use xlink:href="#i" x="110.398" y="169.477"/><use xlink:href="#z" x="110.398" y="173.138"/><use xlink:href="#B" x="110.398" y="176.799"/><use xlink:href="#n" x="110.398" y="180.461"/><use xlink:href="#A" x="110.398" y="184.122"/><use xlink:href="#y" x="110.398" y="191.437"/><use xlink:href="#l" x="110.398" y="195.099"/><use xlink:href="#i" x="110.398" y="198.76"/><use xlink:href="#n" x="110.398" y="202.421"/><use xlink:href="#p" x="110.398" y="206.083"/><path fill="none" stroke="#000" stroke-miterlimit="10" stroke-width=".399" d="m273.3 185.531 2.817-2.82m-2.816 0 2.816 2.82"/><use xlink:href="#h" x="266.363" y="158.493"/><use xlink:href="#i" x="266.363" y="162.154"/><use xlink:href="#j" x="266.363" y="165.816"/><use xlink:href="#m" x="266.363" y="169.477"/><use xlink:href="#z" x="266.363" y="173.138"/><use xlink:href="#o" x="266.363" y="176.799"/><use xlink:href="#n" x="266.363" y="180.461"/><use xlink:href="#A" x="266.363" y="184.122"/><use xlink:href="#y" x="266.363" y="191.444"/><use xlink:href="#l" x="266.363" y="195.106"/><use xlink:href="#i" x="266.363" y="198.767"/><use xlink:href="#n" x="266.363" y="202.428"/><use xlink:href="#p" x="266.363" y="206.09"/><path fill="none" stroke="#000" stroke-miterlimit="10" stroke-width=".399" d="m382.54 249.066 2.815-2.816m-2.816 0 2.816 2.816"/><use xlink:href="#h" x="388.97" y="212.877"/><use xlink:href="#i" x="388.97" y="216.538"/><use xlink:href="#j" x="388.97" y="220.2"/><use xlink:href="#m" x="388.97" y="223.861"/><use xlink:href="#z" x="388.97" y="227.522"/><use xlink:href="#o" x="388.97" y="231.183"/><use xlink:href="#n" x="388.97" y="234.845"/><use xlink:href="#A" x="388.97" y="238.506"/><use xlink:href="#v" x="388.97" y="245.821"/><use xlink:href="#o" x="388.97" y="249.483"/><use xlink:href="#o" x="388.97" y="253.144"/><use xlink:href="#z" x="388.97" y="256.805"/><use xlink:href="#y" x="388.97" y="260.467"/><use xlink:href="#n" x="388.97" y="267.796"/><use xlink:href="#s" x="388.97" y="271.457"/><use xlink:href="#C" x="388.97" y="275.119"/><use xlink:href="#p" x="388.97" y="278.78"/><path fill="none" stroke="#000" stroke-miterlimit="10" stroke-width=".399" d="m8.098 249.066 2.816-2.816m-2.816 0 2.816 2.816"/><use xlink:href="#h" x="14.534" y="212.877"/><use xlink:href="#i" x="14.534" y="216.538"/><use xlink:href="#j" x="14.534" y="220.2"/><use xlink:href="#i" x="14.534" y="223.861"/><use xlink:href="#z" x="14.534" y="227.522"/><use xlink:href="#B" x="14.534" y="231.183"/><use xlink:href="#n" x="14.534" y="234.845"/><use xlink:href="#A" x="14.534" y="238.506"/><use xlink:href="#v" x="14.534" y="245.828"/><use xlink:href="#o" x="14.534" y="249.49"/><use xlink:href="#o" x="14.534" y="253.151"/><use xlink:href="#z" x="14.534" y="256.812"/><use xlink:href="#y" x="14.534" y="260.474"/><use xlink:href="#n" x="14.534" y="267.796"/><use xlink:href="#s" x="14.534" y="271.457"/><use xlink:href="#C" x="14.534" y="275.119"/><use xlink:href="#p" x="14.534" y="278.78"/><path fill="none" stroke="#000" stroke-miterlimit="10" stroke-width=".399" d="m195.316 464.363 2.82-2.816m-2.82 0 2.82 2.816"/><use xlink:href="#h" x="201.752" y="430"/><use xlink:href="#i" x="201.752" y="433.661"/><use xlink:href="#j" x="201.752" y="437.323"/><use xlink:href="#l" x="201.752" y="440.984"/><use xlink:href="#v" x="201.752" y="444.645"/><use xlink:href="#i" x="201.752" y="448.306"/><use xlink:href="#n" x="201.752" y="451.968"/><use xlink:href="#v" x="201.752" y="459.29"/><use xlink:href="#o" x="201.752" y="462.951"/><use xlink:href="#o" x="201.752" y="466.613"/><use xlink:href="#z" x="201.752" y="470.274"/><use xlink:href="#y" x="201.752" y="473.935"/><use xlink:href="#n" x="201.752" y="481.258"/><use xlink:href="#s" x="201.752" y="484.919"/><use xlink:href="#C" x="201.752" y="488.58"/><use xlink:href="#p" x="201.752" y="492.242"/><path fill="none" stroke="#000" stroke-miterlimit="10" stroke-width=".399" d="m195.316 33.773 2.82-2.82m-2.82 0 2.82 2.82"/><use xlink:href="#h" x="201.752" y="-.584"/><use xlink:href="#i" x="201.752" y="3.077"/><use xlink:href="#j" x="201.752" y="6.739"/><use xlink:href="#y" x="201.752" y="10.4"/><use xlink:href="#l" x="201.752" y="14.061"/><use xlink:href="#i" x="201.752" y="17.722"/><use xlink:href="#n" x="201.752" y="21.384"/><use xlink:href="#v" x="201.752" y="28.706"/><use xlink:href="#o" x="201.752" y="32.367"/><use xlink:href="#o" x="201.752" y="36.029"/><use xlink:href="#z" x="201.752" y="39.69"/><use xlink:href="#y" x="201.752" y="43.351"/><use xlink:href="#n" x="201.752" y="50.674"/><use xlink:href="#s" x="201.752" y="54.335"/><use xlink:href="#C" x="201.752" y="57.996"/><use xlink:href="#p" x="201.752" y="61.658"/><path fill="none" stroke="#000" stroke-miterlimit="10" stroke-width=".399" d="m273.3 213.633 2.817-2.817m-2.816 0 2.816 2.817"/><use xlink:href="#h" x="278.786" y="171.952"/><use xlink:href="#i" x="278.786" y="175.613"/><use xlink:href="#j" x="278.786" y="179.275"/><use xlink:href="#u" x="278.786" y="182.936"/><use xlink:href="#l" x="278.786" y="186.597"/><use xlink:href="#D" x="278.786" y="190.258"/><use xlink:href="#z" x="278.786" y="193.92"/><use xlink:href="#o" x="278.786" y="197.581"/><use xlink:href="#l" x="278.786" y="201.242"/><use xlink:href="#m" x="278.786" y="208.565"/><use xlink:href="#z" x="278.786" y="212.226"/><use xlink:href="#o" x="278.786" y="215.887"/><use xlink:href="#n" x="278.786" y="219.549"/><use xlink:href="#A" x="278.786" y="223.21"/><use xlink:href="#v" x="278.786" y="230.532"/><use xlink:href="#o" x="278.786" y="234.194"/><use xlink:href="#o" x="278.786" y="237.855"/><use xlink:href="#z" x="278.786" y="241.516"/><use xlink:href="#y" x="278.786" y="245.177"/><use xlink:href="#p" x="278.786" y="248.839"/><path fill="none" stroke="#000" stroke-miterlimit="10" stroke-width=".399" d="m315.816 213.633 2.82-2.817m-2.82 0 2.82 2.817"/><use xlink:href="#h" x="308.88" y="109.852"/><use xlink:href="#i" x="308.88" y="113.513"/><use xlink:href="#j" x="308.88" y="117.175"/><use xlink:href="#u" x="308.88" y="120.836"/><use xlink:href="#l" x="308.88" y="124.497"/><use xlink:href="#D" x="308.88" y="128.158"/><use xlink:href="#z" x="308.88" y="131.82"/><use xlink:href="#o" x="308.88" y="135.481"/><use xlink:href="#l" x="308.88" y="139.142"/><use xlink:href="#m" x="308.88" y="146.465"/><use xlink:href="#z" x="308.88" y="150.126"/><use xlink:href="#o" x="308.88" y="153.787"/><use xlink:href="#n" x="308.88" y="157.449"/><use xlink:href="#A" x="308.88" y="161.11"/><use xlink:href="#v" x="308.88" y="168.432"/><use xlink:href="#o" x="308.88" y="172.094"/><use xlink:href="#o" x="308.88" y="175.755"/><use xlink:href="#z" x="308.88" y="179.416"/><use xlink:href="#y" x="308.88" y="183.077"/><use xlink:href="#A" x="308.88" y="190.4"/><use xlink:href="#l" x="308.88" y="194.061"/><use xlink:href="#v" x="308.88" y="197.723"/><use xlink:href="#t" x="308.88" y="201.384"/><use xlink:href="#p" x="308.88" y="205.045"/><path fill="none" stroke="#000" stroke-miterlimit="10" stroke-width=".399" d="m315.82 182.352 2.817-2.817m-2.817 0 2.817 2.817"/><use xlink:href="#h" x="322.252" y="82.231"/><use xlink:href="#i" x="322.252" y="85.892"/><use xlink:href="#j" x="322.252" y="89.554"/><use xlink:href="#u" x="322.252" y="93.215"/><use xlink:href="#l" x="322.252" y="96.876"/><use xlink:href="#D" x="322.252" y="100.537"/><use xlink:href="#z" x="322.252" y="104.199"/><use xlink:href="#o" x="322.252" y="107.86"/><use xlink:href="#l" x="322.252" y="111.521"/><use xlink:href="#m" x="322.252" y="118.844"/><use xlink:href="#z" x="322.252" y="122.505"/><use xlink:href="#o" x="322.252" y="126.166"/><use xlink:href="#n" x="322.252" y="129.828"/><use xlink:href="#A" x="322.252" y="133.489"/><use xlink:href="#v" x="322.252" y="140.811"/><use xlink:href="#o" x="322.252" y="144.473"/><use xlink:href="#o" x="322.252" y="148.134"/><use xlink:href="#z" x="322.252" y="151.795"/><use xlink:href="#y" x="322.252" y="155.456"/><use xlink:href="#n" x="322.252" y="162.779"/><use xlink:href="#s" x="322.252" y="166.44"/><use xlink:href="#C" x="322.252" y="170.102"/><use xlink:href="#p" x="322.252" y="173.763"/><path fill="none" stroke="#000" stroke-miterlimit="10" stroke-width=".399" d="m315.82 315.785 2.817-2.82m-2.817 0 2.817 2.82"/><use xlink:href="#h" x="322.252" y="317.895"/><use xlink:href="#i" x="322.252" y="321.556"/><use xlink:href="#j" x="322.252" y="325.218"/><use xlink:href="#v" x="322.252" y="328.879"/><use xlink:href="#D" x="322.252" y="332.54"/><use xlink:href="#n" x="322.252" y="336.201"/><use xlink:href="#l" x="322.252" y="339.863"/><use xlink:href="#o" x="322.252" y="343.524"/><use xlink:href="#m" x="322.252" y="350.846"/><use xlink:href="#z" x="322.252" y="354.508"/><use xlink:href="#o" x="322.252" y="358.169"/><use xlink:href="#n" x="322.252" y="361.83"/><use xlink:href="#A" x="322.252" y="365.492"/><use xlink:href="#v" x="322.252" y="372.814"/><use xlink:href="#o" x="322.252" y="376.475"/><use xlink:href="#o" x="322.252" y="380.137"/><use xlink:href="#z" x="322.252" y="383.798"/><use xlink:href="#y" x="322.252" y="387.459"/><use xlink:href="#n" x="322.252" y="394.782"/><use xlink:href="#s" x="322.252" y="398.443"/><use xlink:href="#C" x="322.252" y="402.104"/><use xlink:href="#p" x="322.252" y="405.766"/><path fill="none" stroke="#000" stroke-miterlimit="10" stroke-width=".399" d="m315.816 284.5 2.82-2.816m-2.82 0 2.82 2.816"/><use xlink:href="#h" x="308.88" y="286.613"/><use xlink:href="#i" x="308.88" y="290.274"/><use xlink:href="#j" x="308.88" y="293.936"/><use xlink:href="#v" x="308.88" y="297.597"/><use xlink:href="#D" x="308.88" y="301.258"/><use xlink:href="#n" x="308.88" y="304.919"/><use xlink:href="#l" x="308.88" y="308.581"/><use xlink:href="#o" x="308.88" y="312.242"/><use xlink:href="#m" x="308.88" y="319.564"/><use xlink:href="#z" x="308.88" y="323.226"/><use xlink:href="#o" x="308.88" y="326.887"/><use xlink:href="#n" x="308.88" y="330.548"/><use xlink:href="#A" x="308.88" y="334.21"/><use xlink:href="#v" x="308.88" y="341.532"/><use xlink:href="#o" x="308.88" y="345.193"/><use xlink:href="#o" x="308.88" y="348.855"/><use xlink:href="#z" x="308.88" y="352.516"/><use xlink:href="#y" x="308.88" y="356.177"/><use xlink:href="#A" x="308.88" y="363.5"/><use xlink:href="#l" x="308.88" y="367.161"/><use xlink:href="#v" x="308.88" y="370.822"/><use xlink:href="#t" x="308.88" y="374.484"/><use xlink:href="#p" x="308.88" y="378.145"/><path fill="none" stroke="#000" stroke-miterlimit="10" stroke-width=".399" d="m273.3 284.5 2.817-2.816m-2.816 0 2.816 2.816"/><use xlink:href="#h" x="266.363" y="244.649"/><use xlink:href="#i" x="266.363" y="248.31"/><use xlink:href="#j" x="266.363" y="251.972"/><use xlink:href="#v" x="266.363" y="255.633"/><use xlink:href="#D" x="266.363" y="259.294"/><use xlink:href="#n" x="266.363" y="262.955"/><use xlink:href="#l" x="266.363" y="266.617"/><use xlink:href="#o" x="266.363" y="270.278"/><use xlink:href="#m" x="266.363" y="277.6"/><use xlink:href="#z" x="266.363" y="281.262"/><use xlink:href="#o" x="266.363" y="284.923"/><use xlink:href="#n" x="266.363" y="288.584"/><use xlink:href="#A" x="266.363" y="292.246"/><use xlink:href="#v" x="266.363" y="299.568"/><use xlink:href="#o" x="266.363" y="303.229"/><use xlink:href="#o" x="266.363" y="306.891"/><use xlink:href="#z" x="266.363" y="310.552"/><use xlink:href="#y" x="266.363" y="314.213"/><use xlink:href="#p" x="266.363" y="317.874"/><path fill="none" stroke="#000" stroke-miterlimit="10" stroke-width=".399" d="m117.332 284.5 2.82-2.816m-2.82 0 2.82 2.816"/><use xlink:href="#h" x="110.398" y="242.818"/><use xlink:href="#i" x="110.398" y="246.479"/><use xlink:href="#j" x="110.398" y="250.141"/><use xlink:href="#u" x="110.398" y="253.802"/><use xlink:href="#l" x="110.398" y="257.463"/><use xlink:href="#D" x="110.398" y="261.124"/><use xlink:href="#z" x="110.398" y="264.786"/><use xlink:href="#o" x="110.398" y="268.447"/><use xlink:href="#l" x="110.398" y="272.108"/><use xlink:href="#i" x="110.398" y="279.424"/><use xlink:href="#z" x="110.398" y="283.085"/><use xlink:href="#B" x="110.398" y="286.746"/><use xlink:href="#n" x="110.398" y="290.408"/><use xlink:href="#A" x="110.398" y="294.069"/><use xlink:href="#v" x="110.398" y="301.391"/><use xlink:href="#o" x="110.398" y="305.053"/><use xlink:href="#o" x="110.398" y="308.714"/><use xlink:href="#z" x="110.398" y="312.375"/><use xlink:href="#y" x="110.398" y="316.036"/><use xlink:href="#p" x="110.398" y="319.698"/><path fill="none" stroke="#000" stroke-miterlimit="10" stroke-width=".399" d="m74.816 284.5 2.817-2.816m-2.817 0 2.817 2.816"/><use xlink:href="#h" x="80.304" y="286.613"/><use xlink:href="#i" x="80.304" y="290.274"/><use xlink:href="#j" x="80.304" y="293.936"/><use xlink:href="#u" x="80.304" y="297.597"/><use xlink:href="#l" x="80.304" y="301.258"/><use xlink:href="#D" x="80.304" y="304.919"/><use xlink:href="#z" x="80.304" y="308.581"/><use xlink:href="#o" x="80.304" y="312.242"/><use xlink:href="#l" x="80.304" y="315.903"/><use xlink:href="#i" x="80.304" y="323.226"/><use xlink:href="#z" x="80.304" y="326.887"/><use xlink:href="#B" x="80.304" y="330.548"/><use xlink:href="#n" x="80.304" y="334.21"/><use xlink:href="#A" x="80.304" y="337.871"/><use xlink:href="#v" x="80.304" y="345.193"/><use xlink:href="#o" x="80.304" y="348.855"/><use xlink:href="#o" x="80.304" y="352.516"/><use xlink:href="#z" x="80.304" y="356.177"/><use xlink:href="#y" x="80.304" y="359.838"/><use xlink:href="#A" x="80.304" y="367.161"/><use xlink:href="#l" x="80.304" y="370.822"/><use xlink:href="#v" x="80.304" y="374.484"/><use xlink:href="#t" x="80.304" y="378.145"/><use xlink:href="#p" x="80.304" y="381.806"/><path fill="none" stroke="#000" stroke-miterlimit="10" stroke-width=".399" d="m74.816 315.785 2.817-2.82m-2.817 0 2.817 2.82"/><use xlink:href="#h" x="67.88" y="317.895"/><use xlink:href="#i" x="67.88" y="321.556"/><use xlink:href="#j" x="67.88" y="325.218"/><use xlink:href="#u" x="67.88" y="328.879"/><use xlink:href="#l" x="67.88" y="332.54"/><use xlink:href="#D" x="67.88" y="336.201"/><use xlink:href="#z" x="67.88" y="339.863"/><use xlink:href="#o" x="67.88" y="343.524"/><use xlink:href="#l" x="67.88" y="347.185"/><use xlink:href="#i" x="67.88" y="354.508"/><use xlink:href="#z" x="67.88" y="358.169"/><use xlink:href="#B" x="67.88" y="361.83"/><use xlink:href="#n" x="67.88" y="365.492"/><use xlink:href="#A" x="67.88" y="369.153"/><use xlink:href="#v" x="67.88" y="376.475"/><use xlink:href="#o" x="67.88" y="380.137"/><use xlink:href="#o" x="67.88" y="383.798"/><use xlink:href="#z" x="67.88" y="387.459"/><use xlink:href="#y" x="67.88" y="391.12"/><use xlink:href="#n" x="67.88" y="398.443"/><use xlink:href="#s" x="67.88" y="402.104"/><use xlink:href="#C" x="67.88" y="405.766"/><use xlink:href="#p" x="67.88" y="409.427"/><path fill="none" stroke="#000" stroke-miterlimit="10" stroke-width=".399" d="m74.816 182.352 2.817-2.817m-2.817 0 2.817 2.817"/><use xlink:href="#h" x="67.88" y="85.892"/><use xlink:href="#i" x="67.88" y="89.553"/><use xlink:href="#j" x="67.88" y="93.215"/><use xlink:href="#v" x="67.88" y="96.876"/><use xlink:href="#D" x="67.88" y="100.537"/><use xlink:href="#n" x="67.88" y="104.198"/><use xlink:href="#l" x="67.88" y="107.86"/><use xlink:href="#o" x="67.88" y="111.521"/><use xlink:href="#i" x="67.88" y="118.843"/><use xlink:href="#z" x="67.88" y="122.505"/><use xlink:href="#B" x="67.88" y="126.166"/><use xlink:href="#n" x="67.88" y="129.827"/><use xlink:href="#A" x="67.88" y="133.489"/><use xlink:href="#v" x="67.88" y="140.811"/><use xlink:href="#o" x="67.88" y="144.472"/><use xlink:href="#o" x="67.88" y="148.134"/><use xlink:href="#z" x="67.88" y="151.795"/><use xlink:href="#y" x="67.88" y="155.456"/><use xlink:href="#n" x="67.88" y="162.779"/><use xlink:href="#s" x="67.88" y="166.44"/><use xlink:href="#C" x="67.88" y="170.101"/><use xlink:href="#p" x="67.88" y="173.763"/><path fill="none" stroke="#000" stroke-miterlimit="10" stroke-width=".399" d="m74.816 213.633 2.817-2.817m-2.817 0 2.817 2.817"/><use xlink:href="#h" x="80.304" y="113.513"/><use xlink:href="#i" x="80.304" y="117.174"/><use xlink:href="#j" x="80.304" y="120.836"/><use xlink:href="#v" x="80.304" y="124.497"/><use xlink:href="#D" x="80.304" y="128.158"/><use xlink:href="#n" x="80.304" y="131.819"/><use xlink:href="#l" x="80.304" y="135.481"/><use xlink:href="#o" x="80.304" y="139.142"/><use xlink:href="#i" x="80.304" y="146.464"/><use xlink:href="#z" x="80.304" y="150.126"/><use xlink:href="#B" x="80.304" y="153.787"/><use xlink:href="#n" x="80.304" y="157.448"/><use xlink:href="#A" x="80.304" y="161.11"/><use xlink:href="#v" x="80.304" y="168.432"/><use xlink:href="#o" x="80.304" y="172.093"/><use xlink:href="#o" x="80.304" y="175.755"/><use xlink:href="#z" x="80.304" y="179.416"/><use xlink:href="#y" x="80.304" y="183.077"/><use xlink:href="#A" x="80.304" y="190.4"/><use xlink:href="#l" x="80.304" y="194.061"/><use xlink:href="#v" x="80.304" y="197.722"/><use xlink:href="#t" x="80.304" y="201.384"/><use xlink:href="#p" x="80.304" y="205.045"/><path fill="none" stroke="#000" stroke-miterlimit="10" stroke-width=".399" d="m117.332 213.633 2.82-2.817m-2.82 0 2.82 2.817"/><use xlink:href="#h" x="122.821" y="173.783"/><use xlink:href="#i" x="122.821" y="177.444"/><use xlink:href="#j" x="122.821" y="181.106"/><use xlink:href="#v" x="122.821" y="184.767"/><use xlink:href="#D" x="122.821" y="188.428"/><use xlink:href="#n" x="122.821" y="192.089"/><use xlink:href="#l" x="122.821" y="195.751"/><use xlink:href="#o" x="122.821" y="199.412"/><use xlink:href="#i" x="122.821" y="206.734"/><use xlink:href="#z" x="122.821" y="210.396"/><use xlink:href="#B" x="122.821" y="214.057"/><use xlink:href="#n" x="122.821" y="217.718"/><use xlink:href="#A" x="122.821" y="221.38"/><use xlink:href="#v" x="122.821" y="228.702"/><use xlink:href="#o" x="122.821" y="232.363"/><use xlink:href="#o" x="122.821" y="236.025"/><use xlink:href="#z" x="122.821" y="239.686"/><use xlink:href="#y" x="122.821" y="243.347"/><use xlink:href="#p" x="122.821" y="247.008"/><path fill="none" stroke="#000" stroke-miterlimit="10" stroke-width=".399" d="m230.75 312.605 2.82-2.816m-2.82 0 2.82 2.816"/><use xlink:href="#h" x="236.237" y="272.754"/><use xlink:href="#i" x="236.237" y="276.415"/><use xlink:href="#j" x="236.237" y="280.077"/><use xlink:href="#u" x="236.237" y="283.738"/><use xlink:href="#l" x="236.237" y="287.399"/><use xlink:href="#D" x="236.237" y="291.06"/><use xlink:href="#z" x="236.237" y="294.722"/><use xlink:href="#o" x="236.237" y="298.383"/><use xlink:href="#l" x="236.237" y="302.044"/><use xlink:href="#l" x="236.237" y="309.36"/><use xlink:href="#v" x="236.237" y="313.021"/><use xlink:href="#i" x="236.237" y="316.682"/><use xlink:href="#n" x="236.237" y="320.344"/><use xlink:href="#v" x="236.237" y="327.666"/><use xlink:href="#o" x="236.237" y="331.327"/><use xlink:href="#o" x="236.237" y="334.989"/><use xlink:href="#z" x="236.237" y="338.65"/><use xlink:href="#y" x="236.237" y="342.311"/><use xlink:href="#p" x="236.237" y="345.972"/><path fill="none" stroke="#000" stroke-miterlimit="10" stroke-width=".399" d="m230.75 397.645 2.82-2.817m-2.82 0 2.82 2.817"/><use xlink:href="#h" x="236.237" y="399.754"/><use xlink:href="#i" x="236.237" y="403.415"/><use xlink:href="#j" x="236.237" y="407.077"/><use xlink:href="#u" x="236.237" y="410.738"/><use xlink:href="#l" x="236.237" y="414.399"/><use xlink:href="#D" x="236.237" y="418.06"/><use xlink:href="#z" x="236.237" y="421.722"/><use xlink:href="#o" x="236.237" y="425.383"/><use xlink:href="#l" x="236.237" y="429.044"/><use xlink:href="#l" x="236.237" y="436.367"/><use xlink:href="#v" x="236.237" y="440.028"/><use xlink:href="#i" x="236.237" y="443.689"/><use xlink:href="#n" x="236.237" y="447.351"/><use xlink:href="#v" x="236.237" y="454.673"/><use xlink:href="#o" x="236.237" y="458.334"/><use xlink:href="#o" x="236.237" y="461.996"/><use xlink:href="#z" x="236.237" y="465.657"/><use xlink:href="#y" x="236.237" y="469.318"/><use xlink:href="#A" x="236.237" y="476.641"/><use xlink:href="#l" x="236.237" y="480.302"/><use xlink:href="#v" x="236.237" y="483.963"/><use xlink:href="#t" x="236.237" y="487.625"/><use xlink:href="#p" x="236.237" y="491.286"/><path fill="none" stroke="#000" stroke-miterlimit="10" stroke-width=".399" d="m262.035 397.645 2.817-2.817m-2.817 0 2.817 2.817"/><use xlink:href="#h" x="268.467" y="350.468"/><use xlink:href="#i" x="268.467" y="354.129"/><use xlink:href="#j" x="268.467" y="357.791"/><use xlink:href="#u" x="268.467" y="361.452"/><use xlink:href="#l" x="268.467" y="365.113"/><use xlink:href="#D" x="268.467" y="368.774"/><use xlink:href="#z" x="268.467" y="372.436"/><use xlink:href="#o" x="268.467" y="376.097"/><use xlink:href="#l" x="268.467" y="379.758"/><use xlink:href="#l" x="268.467" y="387.081"/><use xlink:href="#v" x="268.467" y="390.742"/><use xlink:href="#i" x="268.467" y="394.403"/><use xlink:href="#n" x="268.467" y="398.065"/><use xlink:href="#v" x="268.467" y="405.387"/><use xlink:href="#o" x="268.467" y="409.048"/><use xlink:href="#o" x="268.467" y="412.71"/><use xlink:href="#z" x="268.467" y="416.371"/><use xlink:href="#y" x="268.467" y="420.032"/><use xlink:href="#n" x="268.467" y="427.355"/><use xlink:href="#s" x="268.467" y="431.016"/><use xlink:href="#C" x="268.467" y="434.677"/><use xlink:href="#p" x="268.467" y="438.339"/><path fill="none" stroke="#000" stroke-miterlimit="10" stroke-width=".399" d="m128.602 397.645 2.816-2.817m-2.816 0 2.816 2.817"/><use xlink:href="#h" x="121.665" y="352.299"/><use xlink:href="#i" x="121.665" y="355.96"/><use xlink:href="#j" x="121.665" y="359.622"/><use xlink:href="#v" x="121.665" y="363.283"/><use xlink:href="#D" x="121.665" y="366.944"/><use xlink:href="#n" x="121.665" y="370.605"/><use xlink:href="#l" x="121.665" y="374.267"/><use xlink:href="#o" x="121.665" y="377.928"/><use xlink:href="#l" x="121.665" y="385.243"/><use xlink:href="#v" x="121.665" y="388.905"/><use xlink:href="#i" x="121.665" y="392.566"/><use xlink:href="#n" x="121.665" y="396.227"/><use xlink:href="#v" x="121.665" y="403.55"/><use xlink:href="#o" x="121.665" y="407.211"/><use xlink:href="#o" x="121.665" y="410.872"/><use xlink:href="#z" x="121.665" y="414.534"/><use xlink:href="#y" x="121.665" y="418.195"/><use xlink:href="#n" x="121.665" y="425.517"/><use xlink:href="#s" x="121.665" y="429.179"/><use xlink:href="#C" x="121.665" y="432.84"/><use xlink:href="#p" x="121.665" y="436.501"/><path fill="none" stroke="#000" stroke-miterlimit="10" stroke-width=".399" d="m159.883 397.645 2.816-2.817m-2.816 0 2.816 2.817"/><use xlink:href="#h" x="152.947" y="399.754"/><use xlink:href="#i" x="152.947" y="403.415"/><use xlink:href="#j" x="152.947" y="407.077"/><use xlink:href="#v" x="152.947" y="410.738"/><use xlink:href="#D" x="152.947" y="414.399"/><use xlink:href="#n" x="152.947" y="418.06"/><use xlink:href="#l" x="152.947" y="421.722"/><use xlink:href="#o" x="152.947" y="425.383"/><use xlink:href="#l" x="152.947" y="432.705"/><use xlink:href="#v" x="152.947" y="436.367"/><use xlink:href="#i" x="152.947" y="440.028"/><use xlink:href="#n" x="152.947" y="443.689"/><use xlink:href="#v" x="152.947" y="451.012"/><use xlink:href="#o" x="152.947" y="454.673"/><use xlink:href="#o" x="152.947" y="458.334"/><use xlink:href="#z" x="152.947" y="461.996"/><use xlink:href="#y" x="152.947" y="465.657"/><use xlink:href="#A" x="152.947" y="472.979"/><use xlink:href="#l" x="152.947" y="476.641"/><use xlink:href="#v" x="152.947" y="480.302"/><use xlink:href="#t" x="152.947" y="483.963"/><use xlink:href="#p" x="152.947" y="487.625"/><path fill="none" stroke="#000" stroke-miterlimit="10" stroke-width=".399" d="m159.883 312.605 2.82-2.816m-2.82 0 2.82 2.816"/><use xlink:href="#h" x="152.947" y="274.584"/><use xlink:href="#i" x="152.947" y="278.245"/><use xlink:href="#j" x="152.947" y="281.907"/><use xlink:href="#v" x="152.947" y="285.568"/><use xlink:href="#D" x="152.947" y="289.229"/><use xlink:href="#n" x="152.947" y="292.89"/><use xlink:href="#l" x="152.947" y="296.552"/><use xlink:href="#o" x="152.947" y="300.213"/><use xlink:href="#l" x="152.947" y="307.535"/><use xlink:href="#v" x="152.947" y="311.197"/><use xlink:href="#i" x="152.947" y="314.858"/><use xlink:href="#n" x="152.947" y="318.519"/><use xlink:href="#v" x="152.947" y="325.842"/><use xlink:href="#o" x="152.947" y="329.503"/><use xlink:href="#o" x="152.947" y="333.164"/><use xlink:href="#z" x="152.947" y="336.826"/><use xlink:href="#y" x="152.947" y="340.487"/><use xlink:href="#p" x="152.947" y="344.148"/><path fill="none" stroke="#000" stroke-miterlimit="10" stroke-width=".399" d="m159.883 185.531 2.82-2.82m-2.82 0 2.82 2.82"/><use xlink:href="#h" x="152.947" y="145.678"/><use xlink:href="#i" x="152.947" y="149.339"/><use xlink:href="#j" x="152.947" y="153.001"/><use xlink:href="#u" x="152.947" y="156.662"/><use xlink:href="#l" x="152.947" y="160.323"/><use xlink:href="#D" x="152.947" y="163.984"/><use xlink:href="#z" x="152.947" y="167.646"/><use xlink:href="#o" x="152.947" y="171.307"/><use xlink:href="#l" x="152.947" y="174.968"/><use xlink:href="#y" x="152.947" y="182.291"/><use xlink:href="#l" x="152.947" y="185.952"/><use xlink:href="#i" x="152.947" y="189.613"/><use xlink:href="#n" x="152.947" y="193.275"/><use xlink:href="#v" x="152.947" y="200.597"/><use xlink:href="#o" x="152.947" y="204.258"/><use xlink:href="#o" x="152.947" y="207.92"/><use xlink:href="#z" x="152.947" y="211.581"/><use xlink:href="#y" x="152.947" y="215.242"/><use xlink:href="#p" x="152.947" y="218.903"/><path fill="none" stroke="#000" stroke-miterlimit="10" stroke-width=".399" d="m159.883 100.492 2.816-2.82m-2.816 0 2.816 2.82"/><use xlink:href="#h" x="152.947" y=".372"/><use xlink:href="#i" x="152.947" y="4.033"/><use xlink:href="#j" x="152.947" y="7.695"/><use xlink:href="#u" x="152.947" y="11.356"/><use xlink:href="#l" x="152.947" y="15.017"/><use xlink:href="#D" x="152.947" y="18.678"/><use xlink:href="#z" x="152.947" y="22.34"/><use xlink:href="#o" x="152.947" y="26.001"/><use xlink:href="#l" x="152.947" y="29.662"/><use xlink:href="#y" x="152.947" y="36.985"/><use xlink:href="#l" x="152.947" y="40.646"/><use xlink:href="#i" x="152.947" y="44.307"/><use xlink:href="#n" x="152.947" y="47.969"/><use xlink:href="#v" x="152.947" y="55.291"/><use xlink:href="#o" x="152.947" y="58.952"/><use xlink:href="#o" x="152.947" y="62.614"/><use xlink:href="#z" x="152.947" y="66.275"/><use xlink:href="#y" x="152.947" y="69.936"/><use xlink:href="#A" x="152.947" y="77.259"/><use xlink:href="#l" x="152.947" y="80.92"/><use xlink:href="#v" x="152.947" y="84.581"/><use xlink:href="#t" x="152.947" y="88.243"/><use xlink:href="#p" x="152.947" y="91.904"/><path fill="none" stroke="#000" stroke-miterlimit="10" stroke-width=".399" d="m128.602 100.492 2.816-2.82m-2.816 0 2.816 2.82"/><use xlink:href="#h" x="121.665" y="53.319"/><use xlink:href="#i" x="121.665" y="56.98"/><use xlink:href="#j" x="121.665" y="60.642"/><use xlink:href="#u" x="121.665" y="64.303"/><use xlink:href="#l" x="121.665" y="67.964"/><use xlink:href="#D" x="121.665" y="71.625"/><use xlink:href="#z" x="121.665" y="75.287"/><use xlink:href="#o" x="121.665" y="78.948"/><use xlink:href="#l" x="121.665" y="82.609"/><use xlink:href="#y" x="121.665" y="89.925"/><use xlink:href="#l" x="121.665" y="93.586"/><use xlink:href="#i" x="121.665" y="97.247"/><use xlink:href="#n" x="121.665" y="100.909"/><use xlink:href="#v" x="121.665" y="108.231"/><use xlink:href="#o" x="121.665" y="111.892"/><use xlink:href="#o" x="121.665" y="115.554"/><use xlink:href="#z" x="121.665" y="119.215"/><use xlink:href="#y" x="121.665" y="122.876"/><use xlink:href="#n" x="121.665" y="130.199"/><use xlink:href="#s" x="121.665" y="133.86"/><use xlink:href="#C" x="121.665" y="137.521"/><use xlink:href="#p" x="121.665" y="141.183"/><path fill="none" stroke="#000" stroke-miterlimit="10" stroke-width=".399" d="m262.035 100.492 2.817-2.82m-2.817 0 2.817 2.82"/><use xlink:href="#h" x="268.467" y="55.149"/><use xlink:href="#i" x="268.467" y="58.81"/><use xlink:href="#j" x="268.467" y="62.472"/><use xlink:href="#v" x="268.467" y="66.133"/><use xlink:href="#D" x="268.467" y="69.794"/><use xlink:href="#n" x="268.467" y="73.455"/><use xlink:href="#l" x="268.467" y="77.117"/><use xlink:href="#o" x="268.467" y="80.778"/><use xlink:href="#y" x="268.467" y="88.1"/><use xlink:href="#l" x="268.467" y="91.762"/><use xlink:href="#i" x="268.467" y="95.423"/><use xlink:href="#n" x="268.467" y="99.084"/><use xlink:href="#v" x="268.467" y="106.407"/><use xlink:href="#o" x="268.467" y="110.068"/><use xlink:href="#o" x="268.467" y="113.729"/><use xlink:href="#z" x="268.467" y="117.391"/><use xlink:href="#y" x="268.467" y="121.052"/><use xlink:href="#n" x="268.467" y="128.374"/><use xlink:href="#s" x="268.467" y="132.036"/><use xlink:href="#C" x="268.467" y="135.697"/><use xlink:href="#p" x="268.467" y="139.358"/><path fill="none" stroke="#000" stroke-miterlimit="10" stroke-width=".399" d="m230.75 100.492 2.82-2.82m-2.82 0 2.82 2.82"/><use xlink:href="#h" x="236.237" y="4.033"/><use xlink:href="#i" x="236.237" y="7.694"/><use xlink:href="#j" x="236.237" y="11.356"/><use xlink:href="#v" x="236.237" y="15.017"/><use xlink:href="#D" x="236.237" y="18.678"/><use xlink:href="#n" x="236.237" y="22.339"/><use xlink:href="#l" x="236.237" y="26.001"/><use xlink:href="#o" x="236.237" y="29.662"/><use xlink:href="#y" x="236.237" y="36.984"/><use xlink:href="#l" x="236.237" y="40.646"/><use xlink:href="#i" x="236.237" y="44.307"/><use xlink:href="#n" x="236.237" y="47.968"/><use xlink:href="#v" x="236.237" y="55.291"/><use xlink:href="#o" x="236.237" y="58.952"/><use xlink:href="#o" x="236.237" y="62.613"/><use xlink:href="#z" x="236.237" y="66.275"/><use xlink:href="#y" x="236.237" y="69.936"/><use xlink:href="#A" x="236.237" y="77.258"/><use xlink:href="#l" x="236.237" y="80.92"/><use xlink:href="#v" x="236.237" y="84.581"/><use xlink:href="#t" x="236.237" y="88.242"/><use xlink:href="#p" x="236.237" y="91.904"/><path fill="none" stroke="#000" stroke-miterlimit="10" stroke-width=".399" d="m230.75 185.531 2.82-2.82m-2.82 0 2.82 2.82"/><use xlink:href="#h" x="223.813" y="147.509"/><use xlink:href="#i" x="223.813" y="151.17"/><use xlink:href="#j" x="223.813" y="154.832"/><use xlink:href="#v" x="223.813" y="158.493"/><use xlink:href="#D" x="223.813" y="162.154"/><use xlink:href="#n" x="223.813" y="165.815"/><use xlink:href="#l" x="223.813" y="169.477"/><use xlink:href="#o" x="223.813" y="173.138"/><use xlink:href="#y" x="223.813" y="180.46"/><use xlink:href="#l" x="223.813" y="184.122"/><use xlink:href="#i" x="223.813" y="187.783"/><use xlink:href="#n" x="223.813" y="191.444"/><use xlink:href="#v" x="223.813" y="198.767"/><use xlink:href="#o" x="223.813" y="202.428"/><use xlink:href="#o" x="223.813" y="206.089"/><use xlink:href="#z" x="223.813" y="209.751"/><use xlink:href="#y" x="223.813" y="213.412"/><use xlink:href="#p" x="223.813" y="217.073"/></svg>