<svg xmlns="http://www.w3.org/2000/svg" xmlns:xlink="http://www.w3.org/1999/xlink" width="104.6" height="63.848"><defs><path id="b" d="M5.563-1.812c.14 0 .312 0 .312-.172 0-.188-.172-.188-.312-.188H1c-.125 0-.297 0-.297.188 0 .172.172.172.297.172Zm0 0"/><path id="c" d="M3.89-2.547c0-.844-.078-1.36-.343-1.875-.344-.703-1-.875-1.438-.875-1 0-1.375.75-1.484.969C.344-3.75.328-2.953.328-2.547c0 .531.016 1.328.406 1.969.36.594.954.75 1.375.75.391 0 1.063-.125 1.47-.906.296-.578.312-1.297.312-1.813M2.11-.062c-.266 0-.813-.125-.985-.954-.094-.453-.094-1.203-.094-1.625 0-.546 0-1.109.094-1.546.172-.813.781-.891.984-.891.266 0 .829.14.985.86.094.437.094 1.046.094 1.577 0 .47 0 1.188-.094 1.641-.172.828-.719.938-.985.938m0 0"/><path id="e" d="M1.11-4.484c.109.03.421.125.765.125 1 0 1.594-.703 1.594-.828 0-.094-.047-.11-.094-.11-.016 0-.031 0-.094.031a3 3 0 0 1-1.11.22c-.468 0-.858-.11-1.108-.22-.079-.03-.094-.03-.11-.03-.094 0-.094.077-.094.234v2.328c0 .14 0 .234.125.234.063 0 .079-.031.125-.094.094-.11.391-.515 1.079-.515.437 0 .656.359.734.515.125.281.14.656.14.953s0 .735-.218 1.079c-.156.25-.485.484-.906.484A1.27 1.27 0 0 1 .734-.922c.016.016.079.016.079.016.218 0 .406-.14.406-.39a.39.39 0 0 0-.39-.407c-.157 0-.407.078-.407.422 0 .718.625 1.453 1.531 1.453 1 0 1.844-.781 1.844-1.766 0-.922-.672-1.75-1.61-1.75-.39 0-.765.125-1.078.406Zm0 0"/><path id="f" d="M2.5-5.078c0-.219-.016-.219-.234-.219-.328.313-.75.5-1.5.5v.266c.218 0 .64 0 1.109-.203v4.078c0 .297-.031.39-.781.39H.812V0c.329-.031 1.016-.031 1.376-.031s1.046 0 1.374.031v-.266h-.28c-.75 0-.782-.093-.782-.39Zm0 0"/><path id="d" d="M1.625-.437a.463.463 0 0 0-.453-.454.447.447 0 0 0-.438.438.44.44 0 0 0 .438.453.45.45 0 0 0 .453-.437m0 0"/><clipPath id="a"><path d="M15 0h89.398v60H15Zm0 0"/></clipPath></defs><path fill="none" stroke="#7F7F7F" stroke-linecap="round" stroke-miterlimit="10" stroke-width=".399" d="M43.195 54.82v-1.097M62.781 54.82v-1.097M82.371 54.82v-1.097M101.957 54.82v-1.097M20.168 43.559h1.094M20.168 29.102h1.094M20.168 14.64h1.094"/><path fill="none" stroke="#7F7F7F" stroke-miterlimit="10" stroke-width=".399" d="M24.004 53.723h77.953"/><path fill="none" stroke="#BFBFBF" stroke-linecap="square" stroke-miterlimit="10" stroke-width=".399" d="M24.004 50.984h77.953M24.004 2.809h77.953"/><path fill="none" stroke="#7F7F7F" stroke-miterlimit="10" stroke-width=".399" d="M21.262 50.984V2.81"/><path fill="none" stroke="#BFBFBF" stroke-linecap="square" stroke-miterlimit="10" stroke-width=".399" d="M24.004 50.984V2.81M101.957 50.984V2.81"/><g clip-path="url(#a)"><path fill="none" stroke="#000" stroke-miterlimit="10" stroke-width=".598" d="M101.957 29.102S91.645 8.418 83.949 4.77C76.25 1.12 54.801-.004 46.48 2.809c-8.316 2.808-21.187 15.527-22.476 22.21C22.71 31.704 37.18 50.985 37.18 50.985"/></g><use xlink:href="#b" x="34.493" y="62.611"/><use xlink:href="#c" x="41.079" y="62.611"/><use xlink:href="#d" x="45.313" y="62.611"/><use xlink:href="#e" x="47.666" y="62.611"/><use xlink:href="#c" x="60.666" y="62.611"/><use xlink:href="#c" x="76.959" y="62.611"/><use xlink:href="#d" x="81.193" y="62.611"/><use xlink:href="#e" x="83.545" y="62.611"/><use xlink:href="#f" x="99.838" y="62.611"/><use xlink:href="#b" x=".104" y="45.711"/><use xlink:href="#c" x="6.691" y="45.711"/><use xlink:href="#d" x="10.925" y="45.711"/><use xlink:href="#e" x="13.277" y="45.711"/><use xlink:href="#c" x="13.277" y="31.669"/><use xlink:href="#c" x="6.691" y="17.21"/><use xlink:href="#d" x="10.925" y="17.21"/><use xlink:href="#e" x="13.277" y="17.21"/></svg>