<svg xmlns="http://www.w3.org/2000/svg" xmlns:xlink="http://www.w3.org/1999/xlink" width="286.616" height="42.014"><defs><clipPath id="g"><path d="M72.25 10.55h141.73v19.927H72.25Zm0 0"/></clipPath><clipPath id="b"><path d="M0 0h12v12H0Zm0 0"/></clipPath><clipPath id="a"><path d="M0 0h12v12H0z"/></clipPath><clipPath id="i"><path d="M72.25 10.55h141.734v19.927H72.25Zm0 0"/></clipPath><clipPath id="e"><path d="M0 0h8v8H0Zm0 0"/></clipPath><clipPath id="d"><path d="M0 0h8v8H0z"/></clipPath><pattern id="h" width="12" height="12" x="0" y="0" patternTransform="matrix(.9449 0 0 -.9449 -71.75 13618.551)" patternUnits="userSpaceOnUse"><use xlink:href="#c"/></pattern><pattern id="j" width="8" height="8" x="0" y="0" patternTransform="matrix(.99628 0 0 -.99628 -71.75 13618.551)" patternUnits="userSpaceOnUse"><use xlink:href="#f"/></pattern><g id="c" clip-path="url(#a)"><g clip-path="url(#b)"><path d="M9.202 14358.558H446v64.029H9.202z"/></g><path fill="#CCC" d="M0 0h6v6H0Zm6 6h6v6H6Zm0 0"/></g><g id="f" clip-path="url(#d)"><g clip-path="url(#e)"><path fill="#AFC3DD" d="M8.727 13618.004h414.27v60.726H8.727z"/></g><path fill="#EEEFF1" d="M3 1.75c0 .55-.45 1-1 1s-1-.45-1-1 .45-1 1-1 1 .45 1 1m4 4c0 .55-.45 1-1 1s-1-.45-1-1 .45-1 1-1 1 .45 1 1m0 0"/><path fill="#8A919A" d="M3 2.25c0 .55-.45 1-1 1s-1-.45-1-1 .45-1 1-1 1 .45 1 1m4 4c0 .55-.45 1-1 1s-1-.45-1-1 .45-1 1-1 1 .45 1 1m0 0"/></g></defs><g clip-path="url(#g)"><path fill="url(#h)" d="M72.25 30.477h141.73V10.55H72.25Zm0 0"/></g><g clip-path="url(#i)"><path fill="url(#j)" d="M72.25 30.477h141.734V10.55H72.25Zm0 0"/></g></svg>