<svg xmlns="http://www.w3.org/2000/svg" width="31.906" height="9.488"><defs><clipPath id="a"><path d="M1 0h30.86v9.23H1Zm0 0"/></clipPath></defs><path fill="none" stroke="#000" stroke-miterlimit="10" stroke-width="1.594" d="M.96 4.484h23.216"/><path d="M30.055 4.484a2.937 2.937 0 0 0-2.942-2.937 2.937 2.937 0 1 0 0 5.875 2.937 2.937 0 0 0 2.942-2.938m0 0"/><g clip-path="url(#a)"><path fill="none" stroke="#000" stroke-miterlimit="10" stroke-width="1.594" d="M30.055 4.484a2.937 2.937 0 0 0-2.942-2.937 2.937 2.937 0 1 0 0 5.875 2.937 2.937 0 0 0 2.942-2.938Zm0 0"/></g></svg>