<svg xmlns="http://www.w3.org/2000/svg" width="61.31" height="61.652"><defs><clipPath id="a"><path d="M1 51h15v10.477H1Zm0 0"/></clipPath><clipPath id="b"><path d="M8 51h15v10.477H8Zm0 0"/></clipPath><clipPath id="c"><path d="M15 51h16v10.477H15Zm0 0"/></clipPath><clipPath id="d"><path d="M23 51h15v10.477H23Zm0 0"/></clipPath><clipPath id="e"><path d="M30 51h15v10.477H30Zm0 0"/></clipPath><clipPath id="f"><path d="M37 51h15v10.477H37Zm0 0"/></clipPath><clipPath id="g"><path d="M44 51h15v10.477H44Zm0 0"/></clipPath><clipPath id="h"><path d="M51 51h9.965v10.477H51Zm0 0"/></clipPath></defs><g clip-path="url(#a)"><path fill="none" stroke="#000" stroke-miterlimit="10" stroke-width=".399" d="m7.383 60.336 2.82-2.816m-2.82 0 2.82 2.816"/></g><g clip-path="url(#b)"><path fill="none" stroke="#000" stroke-miterlimit="10" stroke-width=".399" d="m14.473 60.336 2.816-2.816m-2.816 0 2.816 2.816"/></g><g clip-path="url(#c)"><path fill="none" stroke="#000" stroke-miterlimit="10" stroke-width=".399" d="m21.559 60.336 2.816-2.816m-2.816 0 2.816 2.816"/></g><g clip-path="url(#d)"><path fill="none" stroke="#000" stroke-miterlimit="10" stroke-width=".399" d="m28.645 60.336 2.816-2.816m-2.816 0 2.816 2.816"/></g><g clip-path="url(#e)"><path fill="none" stroke="#000" stroke-miterlimit="10" stroke-width=".399" d="m35.73 60.336 2.82-2.816m-2.82 0 2.82 2.816"/></g><g clip-path="url(#f)"><path fill="none" stroke="#000" stroke-miterlimit="10" stroke-width=".399" d="m42.816 60.336 2.82-2.816m-2.82 0 2.82 2.816"/></g><g clip-path="url(#g)"><path fill="none" stroke="#000" stroke-miterlimit="10" stroke-width=".399" d="m49.906 60.336 2.817-2.816m-2.817 0 2.817 2.816"/></g><g clip-path="url(#h)"><path fill="none" stroke="#000" stroke-miterlimit="10" stroke-width=".399" d="m56.992 60.336 2.817-2.816m-2.817 0 2.817 2.816"/></g><path fill="none" stroke="#000" stroke-miterlimit="10" stroke-width=".399" d="m.8 53.27 2.817-2.82m-2.816 0 2.816 2.82M1.3 46.2l2.817-2.817m-2.816 0 2.816 2.816M1.8 39.129l2.821-2.816m-2.82 0 2.82 2.816M2.305 32.063l2.816-2.817m-2.816 0 2.816 2.817M2.805 24.992l2.816-2.816m-2.816 0 2.816 2.816M3.305 17.926l2.82-2.82m-2.82 0 2.82 2.82M3.809 10.855 6.625 8.04m-2.816 0 2.816 2.816M4.309 3.79 7.129.968m-2.82 0 2.82 2.82"/></svg>