<svg xmlns="http://www.w3.org/2000/svg" xmlns:xlink="http://www.w3.org/1999/xlink" width="111.088" height="72.38"><defs><path id="a" d="M8.547-.953c0-.219-.14-.219-.235-.219-.203 0-.218.11-.234.234-.047.47-.328.688-.625.688-.61 0-.687-.703-.75-1.125-.016-.11-.094-.797-.11-.844-.14-.703-.687-1.015-1.109-1.172C6.641-3.687 7.141-4.344 7.141-5c0-1-1.094-1.844-2.97-1.844H.392v.469h1.078v5.906H.39V0C.75-.031 1.719-.031 2.14-.031s1.39 0 1.75.031v-.469H2.828v-2.765h1.156c.141 0 .579 0 .891.328.313.36.313.547.313 1.265 0 .657 0 1.157.703 1.485.437.219 1.062.265 1.468.265 1.063 0 1.188-.89 1.188-1.062M5.625-4.984c0 .562 0 1.39-1.64 1.39H2.827v-2.781H4c1.61 0 1.625.781 1.625 1.39m0 0"/><path id="b" d="M4.922-1.172c0-.172-.188-.172-.234-.172-.172 0-.188.047-.25.203-.204.485-.782.797-1.422.797-1.407 0-1.422-1.328-1.422-1.828h3.015c.22 0 .313 0 .313-.265 0-.313-.063-1.047-.563-1.547-.359-.36-.89-.532-1.578-.532C1.187-4.516.313-3.484.313-2.25c0 1.344 1 2.313 2.609 2.313 1.578 0 2-1.063 2-1.235M3.984-2.5h-2.39c.015-.39.031-.812.234-1.14.266-.391.672-.516.953-.516 1.172 0 1.188 1.312 1.203 1.656m0 0"/><path id="c" d="M2.922 0v-.469h-.688v-6.453L.47-6.844v.469c.625 0 .687 0 .687.39v5.516H.47V0l1.219-.031Zm0 0"/><path id="d" d="M5.516-.234c0-.235-.125-.235-.266-.235-.61-.015-.61-.14-.61-.375v-2.14c0-.891-.702-1.532-2.187-1.532-.562 0-1.781.047-1.781.922 0 .438.344.625.61.625.312 0 .624-.219.624-.625 0-.297-.187-.469-.218-.5a5 5 0 0 1 .718-.062c.75 0 1.11.422 1.11 1.172v.343c-.72.032-3.25.125-3.25 1.563C.266-.125 1.5.062 2.188.062c.796 0 1.265-.406 1.484-.828 0 .313 0 .766 1.047.766h.468c.204 0 .329 0 .329-.234m-2-1.157c0 .97-.922 1.094-1.172 1.094-.516 0-.906-.344-.906-.797 0-1.062 1.578-1.203 2.078-1.234Zm0 0"/><path id="e" d="M3.813-1.234v-.532h-.47v.516c0 .672-.327.906-.609.906-.578 0-.578-.64-.578-.86v-2.75h1.469v-.468H2.156v-1.906h-.469c0 1-.484 1.984-1.484 2.016v.359h.828v2.734c0 1.063.86 1.282 1.578 1.282.75 0 1.204-.579 1.204-1.297m0 0"/><path id="f" d="M2.844 0v-.469h-.61v-4.015L.5-4.406v.468c.594 0 .656 0 .656.391v3.078H.47V0l1.219-.031Zm-.469-6.047a.774.774 0 0 0-.781-.781.784.784 0 0 0-.782.781c0 .422.36.766.782.766a.77.77 0 0 0 .781-.766m0 0"/><path id="g" d="M5.781-3.953v-.469c-.25.016-.531.031-.781.031l-.906-.03v.468c.187 0 .468.031.468.11 0 0 0 .015-.046.109l-1.157 2.5-1.265-2.72h.531v-.468l-1.234.031-1.125-.03v.468H.89l1.75 3.75c.125.25.25.25.375.25.172 0 .28-.031.375-.25L5.047-3.75c.062-.14.094-.203.734-.203m0 0"/><path id="h" d="M8.25 0v-.469h-.969L4.72-6.703c-.11-.25-.219-.25-.39-.25-.282 0-.329.078-.391.25l-2.47 6c-.062.156-.093.234-.843.234H.406V0l1.172-.031c.39 0 .938 0 1.313.031v-.469S2-.469 2-.594l.047-.125.5-1.203h2.672l.593 1.453H4.86V0c.391-.031 1.329-.031 1.766-.031.39 0 1.266 0 1.625.031M5.016-2.39H2.734l1.141-2.766Zm0 0"/><path id="i" d="M5.984-2.219c0-1.328-.937-2.265-2.39-2.265-.719 0-1.219.28-1.453.484v-2.922l-1.766.078v.469c.61 0 .688 0 .688.39V0h.468c.157-.187.328-.375.485-.562.078.078.562.625 1.453.625 1.484 0 2.515-.907 2.515-2.282m-1.28 0c0 .469 0 1.016-.25 1.406-.298.407-.75.516-1.079.516-.687 0-1.078-.547-1.187-.687v-2.5c.28-.36.75-.641 1.296-.641 1.22 0 1.22 1.203 1.22 1.906m0 0"/><path id="j" d="M4.14-1.39c0-.438-.202-.782-.546-1.063-.39-.281-.719-.344-1.485-.485-.375-.062-1.015-.171-1.015-.64 0-.625.922-.625 1.11-.625.75 0 1.124.297 1.171.844.016.156.031.203.234.203.235 0 .235-.047.235-.281v-.797c0-.188 0-.282-.172-.282-.047 0-.063 0-.453.188-.266-.125-.61-.188-1-.188-.313 0-1.844 0-1.844 1.313 0 .39.203.656.406.828.39.344.782.406 1.547.547.36.062 1.094.187 1.094.781 0 .75-.906.75-1.125.75C1.234-.297.984-1.03.859-1.453c-.046-.14-.109-.14-.234-.14-.25 0-.25.062-.25.28v1.094c0 .188 0 .282.188.282.062 0 .078 0 .296-.157l.25-.172c.47.329.985.329 1.188.329.312 0 1.844 0 1.844-1.454m0 0"/><path id="k" d="M5.406-2.172c0-1.344-.922-2.344-2.547-2.344C1.22-4.516.313-3.5.313-2.172c0 1.235.89 2.235 2.546 2.235 1.672 0 2.547-1.016 2.547-2.235m-1.281-.11c0 .86 0 1.938-1.266 1.938-1.265 0-1.265-1.078-1.265-1.937 0-.453 0-.953.172-1.297.187-.375.609-.578 1.093-.578.422 0 .844.156 1.063.5.203.344.203.89.203 1.375m0 0"/><path id="l" d="M6.125 0v-.469c-.61 0-.687 0-.687-.39v-3.625l-1.813.078v.468c.61 0 .688 0 .688.391v1.906c0 .813-.516 1.344-1.235 1.344-.781 0-.812-.25-.812-.797v-3.39l-1.813.078v.468c.61 0 .688 0 .688.391v2.328c0 1.063.797 1.282 1.797 1.282.25 0 .968 0 1.421-.782v.782Zm0 0"/><path id="m" d="M7.969-3.375c0-2.156-1.453-3.578-3.657-3.578-2.28 0-3.671 1.484-3.671 3.578C.64-1.312 2.03.109 4.297.109c2.297 0 3.672-1.437 3.672-3.484m-1.532-.156c0 .703-.03 1.594-.453 2.281a1.97 1.97 0 0 1-1.687.938 1.94 1.94 0 0 1-1.719-1.032c-.328-.625-.422-1.328-.422-2.187 0-.64.031-1.485.469-2.156a2.01 2.01 0 0 1 1.672-.86c.64 0 1.328.281 1.719.938.39.64.422 1.406.422 2.078m0 0"/><path id="n" d="M5.984 0v-.469c-.609 0-.687 0-.687-.39v-6.063l-1.766.078v.469c.625 0 .703 0 .703.39v1.954a2.18 2.18 0 0 0-1.359-.453c-1.453 0-2.5.875-2.5 2.28 0 1.313.922 2.267 2.39 2.267.61 0 1.094-.235 1.407-.485v.485ZM4.172-1.031c-.14.187-.547.734-1.297.734-1.219 0-1.219-1.203-1.219-1.906 0-.485 0-1.016.25-1.406.297-.422.766-.516 1.078-.516.563 0 .97.313 1.188.61Zm0 0"/></defs><path fill="none" stroke="#7F7F7F" stroke-miterlimit="10" stroke-width=".199" d="M.652 64.234h85.043M.652 35.887h85.043M.652 7.55h85.043M.652 64.234V7.54M29 64.234V7.54m28.348 56.695V7.54m28.336 56.695V7.54"/><path fill="#FF7F7F" d="M89.238 29.055 85.695.707l-3.547 28.348H61.77v13.664h47.847V29.055Zm0 0"/><use xlink:href="#a" x="65.089" y="39.289"/><use xlink:href="#b" x="73.687" y="39.289"/><use xlink:href="#c" x="78.937" y="39.289"/><use xlink:href="#d" x="82.115" y="39.289"/><use xlink:href="#e" x="87.684" y="39.289"/><use xlink:href="#f" x="92.138" y="39.289"/><use xlink:href="#g" x="95.316" y="39.289"/><use xlink:href="#b" x="101.044" y="39.289"/><path fill="#7F7FFF" d="M25.715 57.406.652 35.886l17.977 21.52H3.418V71.06h51.164V57.406Zm0 0"/><use xlink:href="#h" x="6.738" y="67.68"/><use xlink:href="#i" x="15.396" y="67.68"/><use xlink:href="#j" x="21.762" y="67.68"/><use xlink:href="#k" x="26.285" y="67.68"/><use xlink:href="#c" x="32.013" y="67.68"/><use xlink:href="#l" x="35.191" y="67.68"/><use xlink:href="#e" x="41.557" y="67.68"/><use xlink:href="#b" x="46.011" y="67.68"/><path fill="#7FFF7F" fill-opacity=".5" d="m24.262 14.387 2.476 6.129 4.614-6.13h20.34V.692H6.304v13.696Zm0 0"/><g fill-opacity=".5"><use xlink:href="#m" x="9.627" y="10.958"/><use xlink:href="#l" x="18.235" y="10.958"/><use xlink:href="#e" x="24.601" y="10.958"/><use xlink:href="#j" x="29.054" y="10.958"/><use xlink:href="#f" x="33.577" y="10.958"/><use xlink:href="#n" x="36.755" y="10.958"/><use xlink:href="#b" x="43.121" y="10.958"/></g></svg>