<svg xmlns="http://www.w3.org/2000/svg" xmlns:xlink="http://www.w3.org/1999/xlink" width="113.353" height="108.164"><defs><path id="a" d="M3.328-3.016c.063-.25.297-1.171.985-1.171.046 0 .296 0 .5.125a.58.58 0 0 0-.47.546c0 .157.11.344.376.344a.546.546 0 0 0 .531-.578c0-.516-.578-.656-.922-.656-.578 0-.922.531-1.047.75-.25-.656-.781-.75-1.078-.75-1.031 0-1.61 1.281-1.61 1.531 0 .11.11.11.126.11.078 0 .11-.032.125-.11.344-1.062 1-1.312 1.344-1.312.187 0 .53.093.53.671 0 .313-.171.97-.53 2.375-.157.61-.516 1.032-.954 1.032-.062 0-.28 0-.5-.125.25-.063.47-.266.47-.547 0-.266-.22-.344-.36-.344-.313 0-.547.25-.547.578 0 .453.484.656.922.656.672 0 1.031-.703 1.047-.75.125.36.484.75 1.078.75 1.031 0 1.594-1.28 1.594-1.53 0-.11-.079-.11-.11-.11-.094 0-.11.047-.14.11-.329 1.077-1 1.312-1.313 1.312-.39 0-.547-.313-.547-.657 0-.218.047-.437.156-.875Zm0 0"/><path id="i" d="M1.906-.531a.534.534 0 0 0-.515-.531.537.537 0 0 0-.532.53.524.524 0 1 0 1.047 0m0 0"/><path id="b" d="M2.328-4.437c0-.188 0-.188-.203-.188-.453.438-1.078.438-1.36.438v.25c.157 0 .626 0 1-.188v3.547c0 .234 0 .328-.687.328H.812V0c.125 0 .985-.031 1.235-.031.219 0 1.094.031 1.25.031v-.25H3.03c-.703 0-.703-.094-.703-.328Zm0 0"/><path id="c" d="M3.516-1.266H3.28c-.015.157-.094.563-.187.625-.047.047-.578.047-.688.047H1.125c.734-.64.984-.843 1.39-1.172.516-.406 1-.843 1-1.5 0-.843-.734-1.359-1.624-1.359-.86 0-1.453.61-1.453 1.25 0 .344.296.39.375.39.156 0 .359-.124.359-.374 0-.125-.047-.375-.406-.375.218-.485.687-.641 1.015-.641.703 0 1.063.547 1.063 1.11 0 .609-.438 1.078-.656 1.328L.516-.266C.437-.203.437-.187.437 0h2.876Zm0 0"/><path id="e" d="M1.906-2.328c.547 0 .938.375.938 1.125 0 .86-.516 1.125-.906 1.125-.282 0-.907-.078-1.188-.5.328 0 .406-.235.406-.39 0-.22-.172-.376-.39-.376a.38.38 0 0 0-.391.407C.375-.281 1.094.14 1.938.14c.968 0 1.64-.657 1.64-1.344 0-.547-.437-1.094-1.203-1.25.719-.266.984-.781.984-1.219 0-.547-.625-.953-1.406-.953-.766 0-1.36.375-1.36.938 0 .234.157.359.36.359.219 0 .36-.156.36-.344 0-.203-.141-.36-.36-.375.25-.297.719-.375.985-.375.312 0 .75.156.75.75 0 .297-.094.625-.282.828-.219.266-.422.281-.765.313-.172.015-.188.015-.22.015-.015 0-.077.016-.077.094 0 .094.062.094.187.094Zm0 0"/><path id="f" d="M3.688-1.14v-.25h-.782V-4.5c0-.14 0-.203-.14-.203-.094 0-.125 0-.188.11L.266-1.392v.25h2.062v.563c0 .25 0 .328-.578.328h-.187V0c.359-.016.796-.031 1.046-.031.266 0 .704.015 1.063.031v-.25h-.188c-.578 0-.578-.078-.578-.328v-.563ZM2.375-3.939v2.547H.531Zm0 0"/><path id="h" d="M1.078-3.89c.36.093.563.093.672.093.922 0 1.469-.625 1.469-.734 0-.078-.047-.094-.078-.094-.016 0-.032 0-.063.016-.172.062-.531.203-1.047.203-.203 0-.562-.016-1.015-.188-.079-.031-.094-.031-.094-.031-.094 0-.094.078-.094.188v2.046c0 .125 0 .204.11.204.062 0 .078 0 .14-.094.297-.375.734-.438.969-.438.422 0 .61.328.64.39.126.235.172.5.172.907 0 .203 0 .61-.218.922a.98.98 0 0 1-.813.422c-.453 0-.922-.25-1.094-.719.266.016.407-.156.407-.344 0-.296-.266-.343-.36-.343 0 0-.343 0-.343.375 0 .625.578 1.25 1.406 1.25.89 0 1.672-.657 1.672-1.547 0-.782-.594-1.5-1.453-1.5-.313 0-.672.062-.985.328Zm0 0"/><path id="j" d="M.844-.437C.828-.344.78-.172.78-.157c0 .157.125.22.235.22a.38.38 0 0 0 .28-.141c.032-.063.079-.297.126-.438.031-.125.11-.453.14-.625.047-.156.094-.312.125-.468.079-.282.094-.344.297-.625.188-.282.516-.641 1.047-.641.39 0 .406.36.406.484 0 .422-.296 1.188-.406 1.485-.078.203-.11.265-.11.375 0 .375.298.594.657.594.703 0 1-.954 1-1.063 0-.094-.078-.094-.11-.094-.093 0-.093.047-.124.125-.157.563-.469.844-.735.844-.156 0-.187-.094-.187-.25s.047-.25.172-.562c.078-.22.36-.954.36-1.344 0-.672-.532-.797-.907-.797-.578 0-.969.36-1.172.64-.047-.484-.453-.64-.75-.64s-.453.219-.547.375c-.156.265-.25.656-.25.703 0 .078.094.078.125.078.094 0 .094-.016.14-.203.11-.406.25-.75.516-.75.188 0 .235.156.235.344 0 .125-.063.39-.125.578-.047.187-.11.469-.14.625Zm0 0"/><path id="k" d="M5.188-1.578c.109 0 .28 0 .28-.156 0-.188-.171-.188-.28-.188H1.03c-.11 0-.281 0-.281.172s.156.172.281.172Zm0 0"/><clipPath id="d"><path d="M85 34h28.031v33H85Zm0 0"/></clipPath><clipPath id="g"><path d="M48 80h33v27.746H48Zm0 0"/></clipPath></defs><path fill="none" stroke="#000" stroke-miterlimit="10" stroke-width=".399" d="m68.746 15.14 5.82 2.29"/><path stroke="#000" stroke-linejoin="round" stroke-miterlimit="10" stroke-width=".39897606" d="m76.89 18.344-2.827-2.559.597 1.68-1.586.824Zm0 0"/><path fill="none" stroke="#000" stroke-miterlimit="10" stroke-width=".399" d="m92.5 32.281 2.695 5.645"/><path stroke="#000" stroke-linejoin="round" stroke-miterlimit="10" stroke-width=".39898005000000003" d="m96.273 40.18-.324-3.805-.71 1.64-1.72-.476Zm0 0"/><path fill="none" stroke="#000" stroke-miterlimit="10" stroke-width=".399" d="m98.195 61.016-1.87 5.968"/><path stroke="#000" stroke-linejoin="round" stroke-miterlimit="10" stroke-width=".39897606" d="m95.574 69.367 2.356-3.004-1.637.715-.934-1.523Zm0 0"/><path fill="none" stroke="#000" stroke-miterlimit="10" stroke-width=".399" d="m82.781 85.922-5.441 3.094"/><path stroke="#000" stroke-linejoin="round" stroke-miterlimit="10" stroke-width=".39898005000000003" d="m75.172 90.25 3.77-.594-1.688-.59.355-1.75Zm0 0"/><path fill="none" stroke="#000" stroke-miterlimit="10" stroke-width=".399" d="m54.531 93.617-6.082-1.465"/><path stroke="#000" stroke-linejoin="round" stroke-miterlimit="10" stroke-width=".39898005000000003" d="m46.023 91.57 3.157 2.145-.828-1.582 1.457-1.035Zm0 0"/><path fill="none" stroke="#000" stroke-miterlimit="10" stroke-width=".399" d="m28.922 79.297-3.07-5.418"/><path stroke="#000" stroke-linejoin="round" stroke-miterlimit="10" stroke-width=".39897606" d="m24.617 71.707.594 3.773.59-1.687 1.75.36Zm0 0"/><path fill="none" stroke="#000" stroke-miterlimit="10" stroke-width=".399" d="m21.941 42.496 2.243-5.805"/><path stroke="#000" stroke-linejoin="round" stroke-miterlimit="10" stroke-width=".39899202" d="m25.082 34.363-2.543 2.848 1.68-.613.832 1.582Zm0 0"/><path fill="none" stroke="#000" stroke-miterlimit="10" stroke-width=".399" d="m39.719 18.875 5.808-2.32"/><path stroke="#000" stroke-linejoin="round" stroke-miterlimit="10" stroke-width=".39897606" d="m47.848 15.629-3.817.074 1.59.817-.594 1.683Zm0 0"/><path fill="none" stroke="#000" stroke-miterlimit="10" stroke-width=".399" d="M69.285 11.242c0-5.77-4.676-10.441-10.441-10.441a10.44 10.44 0 0 0-10.442 10.441c0 5.766 4.672 10.442 10.442 10.442 5.765 0 10.441-4.676 10.441-10.442Zm0 0"/><use xlink:href="#a" x="53.761" y="12.638"/><use xlink:href="#b" x="59.455" y="14.132"/><path fill="none" stroke="#000" stroke-miterlimit="10" stroke-width=".399" d="M98.348 22.68c0-5.766-4.676-10.442-10.442-10.442-5.765 0-10.441 4.676-10.441 10.442 0 5.765 4.676 10.441 10.441 10.441s10.442-4.676 10.442-10.441Zm0 0"/><use xlink:href="#a" x="82.826" y="24.077"/><use xlink:href="#c" x="88.519" y="25.571"/><g clip-path="url(#d)"><path fill="none" stroke="#000" stroke-miterlimit="10" stroke-width=".399" d="M111.82 50.86c0-5.766-4.675-10.442-10.441-10.442s-10.442 4.676-10.442 10.441 4.676 10.442 10.442 10.442 10.441-4.676 10.441-10.442Zm0 0"/></g><use xlink:href="#a" x="96.297" y="52.256"/><use xlink:href="#e" x="101.992" y="53.75"/><path fill="none" stroke="#000" stroke-miterlimit="10" stroke-width=".399" d="M102.473 80.66c0-5.765-4.672-10.441-10.442-10.441-5.765 0-10.441 4.676-10.441 10.441 0 5.77 4.676 10.442 10.441 10.442 5.77 0 10.442-4.672 10.442-10.442Zm0 0"/><use xlink:href="#a" x="86.951" y="82.059"/><use xlink:href="#f" x="92.644" y="83.553"/><g clip-path="url(#g)"><path fill="none" stroke="#000" stroke-miterlimit="10" stroke-width=".399" d="M75.32 96.102c0-5.77-4.672-10.442-10.441-10.442-5.766 0-10.442 4.672-10.442 10.442 0 5.765 4.676 10.441 10.442 10.441 5.77 0 10.441-4.676 10.441-10.441Zm0 0"/></g><use xlink:href="#a" x="59.798" y="97.498"/><use xlink:href="#h" x="65.493" y="98.992"/><use xlink:href="#i" x="27.646" y="89.277"/><use xlink:href="#i" x="32.068" y="89.277"/><use xlink:href="#i" x="36.499" y="89.277"/><path fill="none" stroke="#000" stroke-miterlimit="10" stroke-width=".399" d="M31.742 57.078c0-8.52-6.906-15.426-15.426-15.426C7.801 41.652.895 48.56.895 57.078.895 65.594 7.8 72.5 16.316 72.5c8.52 0 15.426-6.906 15.426-15.422Zm0 0"/><use xlink:href="#a" x="5.66" y="58.06"/><use xlink:href="#j" x="11.354" y="59.554"/><use xlink:href="#k" x="16.279" y="59.554"/><use xlink:href="#b" x="22.506" y="59.554"/><path fill="none" stroke="#000" stroke-miterlimit="10" stroke-width=".399" d="M40.305 22.96c0-5.98-4.848-10.823-10.825-10.823-5.98 0-10.824 4.843-10.824 10.824 0 5.977 4.844 10.824 10.824 10.824 5.977 0 10.825-4.847 10.825-10.824Zm0 0"/><use xlink:href="#a" x="23.922" y="24.357"/><use xlink:href="#j" x="29.616" y="25.852"/></svg>