<svg xmlns="http://www.w3.org/2000/svg" xmlns:xlink="http://www.w3.org/1999/xlink" width="19.658" height="19.658"><defs><clipPath id="a"><path d="M0 0h19.488v19.488H0Zm0 0"/></clipPath><path id="b" d="M5.828 0v-.469h-.703L3.453-2.453 4.61-3.75c.141-.14.204-.203 1.016-.203v-.469l-.906.031-1.032-.03v.468c.141 0 .266.015.376.078-.032.063-.032.094-.079.125l-.828.938-.984-1.141h.406v-.469L1.36-4.39.266-4.42v.468h.718l1.547 1.828L1.22-.656c-.157.187-.516.187-1 .187V0l.922-.031L2.156 0v-.469c-.172 0-.36-.047-.36-.11 0 0 0-.015.063-.093l.97-1.094L3.921-.469h-.39V0l1.202-.031Zm0 0"/></defs><g clip-path="url(#a)"><path fill="none" stroke="red" stroke-miterlimit="10" stroke-width=".797" d="M18.074 9.66A8.41 8.41 0 0 0 9.66 1.246 8.41 8.41 0 0 0 1.246 9.66a8.41 8.41 0 0 0 8.414 8.414 8.41 8.41 0 0 0 8.414-8.414Zm0 0"/></g><use xlink:href="#b" x="6.637" y="11.872"/></svg>