<svg xmlns="http://www.w3.org/2000/svg" width="48.802" height="11.738"><defs><clipPath id="a"><path d="M0 0h48.703v11.605H0Zm0 0"/></clipPath><clipPath id="b"><path d="M0 1h11v10.605H0Zm0 0"/></clipPath><clipPath id="c"><path d="M23 1h16v10.605H23Zm0 0"/></clipPath><clipPath id="d"><path d="M38 0h10.703v11H38Zm0 0"/></clipPath></defs><g clip-path="url(#a)"><path fill="none" stroke="#BFBFBF" stroke-miterlimit="10" stroke-width=".399" d="m3.047 8.785 14.176-5.668 14.172 5.668 14.171-5.668"/></g><path fill="#D2C92A" d="M3.047 6.793 4.94 8.172l-.722 2.226H1.875l-.723-2.226Zm0 0"/><g clip-path="url(#b)"><path fill="none" stroke="#000" stroke-miterlimit="10" stroke-width=".399" d="M3.047 6.793 4.94 8.172l-.722 2.226H1.875l-.723-2.226Zm0 0"/></g><path fill="#D2C92A" stroke="#000" stroke-miterlimit="10" stroke-width=".399" d="M17.223 1.125 19.117 2.5l-.726 2.23h-2.34l-.723-2.23Zm0 0"/><path fill="#D2C92A" d="m31.395 6.793 1.894 1.379-.723 2.226h-2.343L29.5 8.172Zm0 0"/><g clip-path="url(#c)"><path fill="none" stroke="#000" stroke-miterlimit="10" stroke-width=".399" d="m31.395 6.793 1.894 1.379-.723 2.226h-2.343L29.5 8.172Zm0 0"/></g><path fill="#D2C92A" d="M45.566 1.125 47.465 2.5l-.727 2.23h-2.34l-.726-2.23Zm0 0"/><g clip-path="url(#d)"><path fill="none" stroke="#000" stroke-miterlimit="10" stroke-width=".399" d="M45.566 1.125 47.465 2.5l-.727 2.23h-2.34l-.726-2.23Zm0 0"/></g></svg>