<svg xmlns="http://www.w3.org/2000/svg" xmlns:xlink="http://www.w3.org/1999/xlink" width="101.54" height="116.66"><defs><path id="a" d="M-2.703-3.437c-.219-.126-.516-.016-.64.218-.141.235-.095.531.124.656.031.032.031.032.11.047l2.203.875c.125.063.125.063.203-.046.062-.11.062-.125-.031-.22l-1.922-1.468Zm3.078 1.78a.49.49 0 0 0-.672.188.487.487 0 0 0 .172.672c.25.14.547.063.688-.172a.51.51 0 0 0-.188-.687m0 0"/><path id="b" d="m1.969-3.406-.25-.14-.219.374L.063-4c-.594-.344-.985-.172-1.313.39-.312.532-.14 1-.016 1.25l-1.89-1.093-.5 1.015.25.141c.203-.344.219-.39.437-.265L.11-.782l-.218.391.25.141.39-.703.422-.703-.25-.14-.234.39-1.172-.672a.977.977 0 0 1-.39-1.344c.109-.187.296-.219.702.016l1.516.875-.219.375.25.14.39-.687Zm0 0"/><path id="c" d="m.531-2.516-.297-.171-.156.265.281.156c.375.22.422.485.329.625-.188.329-.547.125-.672.047l-1.532-.875.47-.812-.266-.156-.47.812-1.046-.61-.14.25c.53.344.921.938.624 1.47l.203.124.266-.437 1.531.875C.234-.61.641-1.047.86-1.438c.25-.421.079-.843-.328-1.078m0 0"/><path id="d" d="M1.625-3.156c-.11-.063-.156.031-.187.094-.22.328-.297.296-.407.218L-.187-3.53c-.485-.281-1.063-.11-1.547.719-.188.312-.547 1.015-.063 1.296.234.141.469 0 .547-.156.11-.172.094-.406-.14-.547-.173-.094-.329-.031-.329-.047.032-.156.14-.328.172-.406.25-.422.594-.484 1-.234l.203.11C-.563-2.392-1.328-.97-.516-.5.016-.187.516-.828.734-1.203c.25-.453.188-.828 0-1.094.188.11.438.25.782-.328l.156-.266c.062-.109.094-.187-.047-.265m-1.266.765c.516.297.313.844.235 1-.172.282-.5.391-.75.25-.594-.343-.156-1.265-.016-1.562Zm0 0"/><path id="e" d="M.688-4.031c-.735-.438-1.563-.235-2.016.562-.25.422-.25.813-.203 1l-.282-.156-.53 1.016.265.14c.203-.36.219-.375.437-.25l2.782 1.61-.22.375.266.156.391-.719L2-.969l-.266-.156-.218.375-1.032-.594c.329-.14.532-.343.657-.578.484-.828.328-1.672-.453-2.11m-.407.703c.782.437.844 1 .64 1.36-.046.093-.202.343-.64.421-.125.016-.125.016-.234-.047l-1.172-.672c-.11-.062-.11-.078-.14-.187-.11-.375.046-.672.109-.797.218-.375.734-.484 1.437-.078m0 0"/><path id="f" d="M-.61-6.297c-.187-.11-.53-.125-.75.234-.062.125-.265.5-.187 1.032-.172.062-.531.312-.875.906-.656 1.156-.312 1.953.25 2.281.328.188.75.219 1.094.078.14.375.39.579.562.672.11.078.516.266.97.094-.032.125-.22.797.28 1.094.422.234 1.282.125 2.204-1.469.812-1.422.703-2.312.14-2.64a1.26 1.26 0 0 0-1.375.03c-.469.329-.734.797-1.187 1.563-.11.203-.328.578-.375.61a.58.58 0 0 1-.75.156.7.7 0 0 1-.235-.235c.422-.265.672-.656.782-.859.671-1.14.296-1.953-.266-2.281a1.3 1.3 0 0 0-.953-.125 1.4 1.4 0 0 1 .14-.578c.032.03.079.093.125.125.204.109.422.062.547-.157.125-.203.063-.421-.14-.53M-.843-4.14c.36.204.907.516.5 1.22-.406.702-.953.39-1.312.187s-.89-.516-.485-1.22c.407-.702.938-.39 1.297-.187m3.547.829c.297.171.547.734-.047 1.78-.562.954-1.156 1.126-1.531.907C.656-.891.938-1.391 1-1.5l.547-.937c.14-.25.672-1.157 1.156-.876m0 0"/><path id="g" d="m2.844-4.922-.375-.219-.328.547L.063-5.78c-.829-.485-1.391-.235-1.844.562-.453.766-.25 1.453.047 1.907l-.86-.5-.75 1.406.375.219c.281-.5.313-.547.625-.36L.141-1.125l-.313.547.375.219.547-1.016.625-1L1-2.594l-.328.547-1.688-.969a1.396 1.396 0 0 1-.562-1.906c.156-.266.422-.36 1.031-.016l2.172 1.25-.328.563.375.219.547-1.016Zm0 0"/><path id="h" d="M.75-5.344c-1.062-.625-2.297-.343-3.047.953-.765 1.313-.375 2.516.688 3.141 1 .563 2.203.328 2.984-1.016.766-1.343.375-2.515-.625-3.078m-.687.969c.703.406 1.578.906 1 1.922-.594 1.015-1.47.515-2.172.11-.344-.204-.75-.438-.953-.735-.204-.313-.188-.75.046-1.14.188-.344.532-.61.891-.626.36 0 .813.25 1.188.469m0 0"/><path id="i" d="m1.344-2.344-.375-.219-.313.547L-4.53-5l-.75 1.453.39.219c.282-.5.313-.563.625-.375L.156-1.156l-.312.562.375.219.531-1Zm0 0"/><path id="j" d="M2.36-4.531c-.188-.11-.235-.016-.297.093-.282.485-.391.422-.579.313l-1.718-.984c-.72-.422-1.563-.157-2.25 1.047-.266.453-.797 1.437-.094 1.843a.567.567 0 0 0 .797-.187c.14-.25.11-.61-.219-.813a.61.61 0 0 0-.5-.031c.078-.25.219-.516.266-.61.359-.609.859-.687 1.468-.328l.266.157c-.297.578-1.406 2.64-.234 3.312.765.453 1.468-.453 1.797-1.015.375-.641.25-1.203.015-1.578.266.156.625.359 1.11-.47l.218-.39c.094-.156.14-.25-.047-.36M.515-3.453C1.28-3 .953-2.22.828-2.016c-.234.407-.687.563-1.047.36-.86-.5-.25-1.828-.031-2.235Zm0 0"/><path id="k" d="M1.031-5.187C.578-5.453.11-5.453-.406-5.266c-.531.25-.781.547-1.406 1.282-.297.343-.797.968-1.297.672-.641-.376-.079-1.344.03-1.547.454-.782 1-1 1.595-.72.156.079.234.095.359-.109.14-.265.078-.296-.156-.437l-.844-.484c-.203-.125-.297-.172-.406.015-.016.047-.031.078-.063.578-.297.204-.578.532-.812.954-.188.312-1.125 1.937.25 2.734.422.234.828.187 1.14.078.594-.203.891-.578 1.5-1.297.282-.328.875-1.031 1.5-.672.782.453.22 1.407.094 1.64-.64 1.11-1.562.923-2.094.798-.171-.047-.203.015-.28.156-.157.266-.095.313.155.453l1.125.656c.204.11.297.157.407-.03.046-.079.062-.095.03-.407l-.015-.375c.61-.297.922-.844 1.047-1.047.188-.328 1.11-1.937-.422-2.812m0 0"/><path id="l" d="m1.016-4.75-.563-.312-.297.5.532.296c.718.422.78.875.609 1.188C.953-2.468.28-2.86.047-3l-2.89-1.656.874-1.532-.5-.296-.875 1.53-1.984-1.14-.281.485C-4.594-5-3.844-3.891-4.406-2.83l.375.22.5-.86 2.875 1.656c1.125.641 1.86-.14 2.297-.89.453-.797.14-1.594-.625-2.047m0 0"/><path id="m" d="M1.656-5.703c-.125-.078-.218.062-.281.172-.11.187-.11.187 0 .328.5.656.422 1.266.11 1.812-.844 1.454-2.376.563-2.86.282-.594-.328-1.953-1.125-1.172-2.47.203-.374.344-.53.453-.655a.78.78 0 0 0 .36.5A.73.73 0 0 0-.704-6c.188-.328.173-.797-.265-1.047C-1.875-7.578-2.64-6.39-3-5.78c-1.078 1.875-.328 3.343.89 4.047 1.391.812 2.97.39 3.891-1.22.985-1.718-.047-2.702-.125-2.75m0 0"/><path id="n" d="M1.75-5.875c-.172-.11-.281.078-.312.14-.11.173-.079.235.062.391.375.516.36 1.297-.031 1.969-.86 1.484-2.25.703-2.782.39L.517-6.155c.125-.235.187-.328-.11-.5C.094-6.844-.704-7.22-1.547-7c-.594.188-1.11.625-1.515 1.344-.97 1.672-.422 3.203.89 3.953 1.406.812 3.031.36 4-1.344.953-1.64.11-2.719-.078-2.828m-1.969.172-1.437 2.516c-.407-.25-.844-.516-1.063-.938a1.41 1.41 0 0 1 .031-1.312c.704-1.235 2.11-.454 2.47-.266m0 0"/><path id="o" d="M-1.906-11.516c-.469-.265-1.14-.14-1.61.672-.218.375-.515 1.016-.484 1.688-.61.219-.953.812-1.094 1.031-.734 1.281-1.187 3.016.032 3.734l1.046.594-.453.781.5.297.453-.781L.156-1.39l-.422.718.485.281.719-1.296.765-1.282-.484-.281-.407.719-3.671-2.11 1.265-2.187 3.672 2.11L1.656-4l.485.281.734-1.328c.234-.406.61-1.078.86-1.437l-.485-.282-.516.907-3.671-2.11.703-1.218-.5-.297-.75 1.297-1.047-.61c-1.219-.687-.735-1.61-.625-1.797.047-.078.078-.11.14-.172a.72.72 0 0 0 .375.547c.438.266.844 0 1-.265.188-.328.141-.782-.265-1.032M-4.25-8.453c0 .047-.016.422.375.64.172.11.438.172.672.047l1.11.641-1.313 2.266-1.031-.594c-.875-.5-.86-1.438-.313-2.39.188-.329.39-.516.5-.61m0 0"/><path id="p" d="m1.234-5.86-.671-.39-.344.61.656.374c.875.516.938 1.094.719 1.454-.438.765-1.25.28-1.547.109l-3.578-2.063 1.094-1.906-.594-.344-1.094 1.907-2.484-1.422-.344.593c1.297.766 2.203 2.125 1.5 3.438l.469.266.609-1.063L-.828-2.25c1.39.813 2.328-.172 2.86-1.094.562-.969.155-1.969-.798-2.515m0 0"/><path id="q" d="m4.36-7.562-.61-.344-.531.922-3.828.672-.797-2.485c-.094-.265-.14-.406.484-1.484l-.594-.344-.656 1.219-.797 1.297.594.343a.93.93 0 0 1 .406-.406c.047.11.078.125.094.203l.578 1.766-2.219.422.297-.532-.594-.343-.874 1.593-.844 1.391.593.344.532-.906 3.531-.641.938 2.797c.109.375-.157.828-.516 1.453l.61.344.64-1.203.812-1.313L1-3.14c-.125.22-.328.422-.406.391 0 0-.016-.016-.078-.172L-.156-5l2.484-.437-.297.5.61.343.859-1.562Zm0 0"/><path id="r" d="M2.172-7.266c-.235-.125-.375.125-.422.188-.125.219-.062.281.094.484.453.625.437 1.594-.047 2.438-1.047 1.828-2.781.828-3.422.453L.641-7.61c.156-.282.234-.407-.125-.61-.407-.234-1.391-.703-2.407-.422-.75.204-1.375.766-1.89 1.657-1.188 2.062-.516 3.953 1.11 4.89 1.733 1 3.734.438 4.937-1.64 1.172-2.047.125-3.407-.094-3.532m-2.453.235-1.781 3.078c-.485-.297-1.016-.625-1.282-1.14a1.69 1.69 0 0 1 .016-1.626c.875-1.515 2.61-.547 3.047-.312m0 0"/></defs><path fill="#BFBFBF" d="M9.102 96.035.77 110.465l8.683 5.012 8.332-14.43Zm0 0"/><use xlink:href="#a" x="6.529" y="113.79"/><use xlink:href="#b" x="7.65" y="111.849"/><use xlink:href="#c" x="9.593" y="108.482"/><use xlink:href="#d" x="11.025" y="106.003"/><use xlink:href="#e" x="12.815" y="102.902"/><path fill="#BFBFBF" d="M20.465 70.645 8.129 92.012l12.512 7.222 12.336-21.367Zm0 0"/><use xlink:href="#f" x="16.36" y="96.762"/><use xlink:href="#g" x="19.02" y="92.155"/><use xlink:href="#h" x="21.975" y="87.036"/><use xlink:href="#i" x="24.635" y="82.43"/><use xlink:href="#j" x="26.11" y="79.874"/><path fill="#BFBFBF" d="M38.89 32.738 19.915 65.605l14.379 8.301L53.27 41.043Zm0 0"/><use xlink:href="#k" x="30.739" y="71.855"/><use xlink:href="#l" x="33.485" y="67.099"/><use xlink:href="#m" x="36.189" y="62.416"/><use xlink:href="#n" x="39.28" y="57.062"/><use xlink:href="#o" x="42.467" y="51.541"/><use xlink:href="#n" x="46.526" y="44.512"/><path fill="#BFBFBF" d="M54.926 1.023 39.773 27.27l16.922 9.77 15.153-26.247Zm0 0"/><use xlink:href="#p" x="52.303" y="34.506"/><use xlink:href="#q" x="55.643" y="28.721"/><use xlink:href="#r" x="60.178" y="20.866"/><use xlink:href="#p" x="64.116" y="14.045"/><path fill="#FCC" d="m37.55 95.855-8.433 14.61 8.684 5.012 8.433-14.606Zm0 0"/><use xlink:href="#e" x="34.875" y="113.79"/><use xlink:href="#d" x="36.921" y="110.246"/><use xlink:href="#c" x="38.711" y="107.145"/><use xlink:href="#b" x="40.142" y="104.666"/><use xlink:href="#a" x="42.189" y="101.122"/><path fill="#FCC" d="M48.914 70.465 36.578 91.832l12.512 7.223 12.336-21.368Zm0 0"/><use xlink:href="#j" x="44.809" y="96.584"/><use xlink:href="#i" x="47.395" y="92.106"/><use xlink:href="#h" x="48.87" y="89.55"/><use xlink:href="#g" x="51.529" y="84.943"/><use xlink:href="#f" x="54.485" y="79.824"/><path fill="#FCC" d="M67.34 32.563 48.363 65.426l14.38 8.304 18.976-32.867Zm0 0"/><use xlink:href="#n" x="59.188" y="71.678"/><use xlink:href="#o" x="62.376" y="66.157"/><use xlink:href="#n" x="66.434" y="59.127"/><use xlink:href="#m" x="69.622" y="53.606"/><use xlink:href="#l" x="72.712" y="48.253"/><use xlink:href="#k" x="75.416" y="43.57"/><path fill="#FCC" d="M83.375.848 68.223 27.094l16.922 9.77 15.152-26.247Zm0 0"/><use xlink:href="#p" x="80.752" y="34.328"/><use xlink:href="#r" x="84.092" y="28.543"/><use xlink:href="#q" x="88.029" y="21.723"/><use xlink:href="#p" x="92.565" y="13.867"/></svg>