<svg xmlns="http://www.w3.org/2000/svg" width="31.906" height="7.004"><defs><clipPath id="a"><path d="M0 0h31.86v6.508H0Zm0 0"/></clipPath></defs><path fill="none" stroke="#000" stroke-miterlimit="10" stroke-width="1.594" d="M.96 3h20.724"/><path d="M30.055 3c0-.934-1.875-1.695-4.188-1.695-2.308 0-4.183.761-4.183 1.695 0 .938 1.875 1.695 4.183 1.695 2.313 0 4.188-.758 4.188-1.695m0 0"/><g clip-path="url(#a)"><path fill="none" stroke="#000" stroke-miterlimit="10" stroke-width="1.594" d="M30.055 3c0-.934-1.875-1.695-4.188-1.695-2.308 0-4.183.761-4.183 1.695 0 .938 1.875 1.695 4.183 1.695 2.313 0 4.188-.758 4.188-1.695Zm0 0"/></g></svg>