<svg xmlns="http://www.w3.org/2000/svg" width="111.803" height="71.75"><defs><clipPath id="a"><path d="M0 0h111.703v71.625H0Zm0 0"/></clipPath></defs><path fill="none" stroke="#7F7F7F" stroke-miterlimit="10" stroke-width=".199" d="M17.824 70.523h85.04m-85.04-28.347h85.04M17.823 13.84h85.04m-85.04 56.683V13.828m28.348 56.695V13.828m28.344 56.695V13.828m28.34 56.695V13.828"/><g clip-path="url(#a)"><path fill="none" stroke="#000" stroke-miterlimit="10" stroke-width=".399" d="M26.965 66.563c.23.53.414 1.082.547 1.644m8.593-5.61c.461 1.067.829 2.169 1.098 3.298m8.043-7.258a29.7 29.7 0 0 1 1.645 4.941m7.496-8.902a40 40 0 0 1 2.195 6.59m6.945-10.555a50 50 0 0 1 2.743 8.238m6.398-12.199a60 60 0 0 1 3.293 9.887m5.844-13.848a69.7 69.7 0 0 1 3.847 11.531m5.293-15.492a79.4 79.4 0 0 1 4.395 13.18m-.29-9.52a90 90 0 0 1 15.63-.039m-17.774-5.406a99.7 99.7 0 0 1 15.285-8.242m-20.05 3.61a109.5 109.5 0 0 1 12.523-14.427M81.543 28.988a119.6 119.6 0 0 1 9.3-18.648M73.978 26.96a129.4 129.4 0 0 1 5.96-21.776M66.017 26.293A139.3 139.3 0 0 1 68.43 2.102m-10.39 24.8A149.7 149.7 0 0 1 56.585.895m-6.094 27.812a159 159 0 0 1-6.031-27.121m-.656 30.035A169.7 169.7 0 0 1 32.19 4.481m6.407 30.882a179.5 179.5 0 0 1-18.586-25.136M35.71 39.086A189.5 189.5 0 0 1 8.645 20.215M35.32 41.152A199 199 0 0 1 .957 36.105"/></g></svg>