<svg xmlns="http://www.w3.org/2000/svg" xmlns:xlink="http://www.w3.org/1999/xlink" width="84.638" height="64.892"><defs><path id="a" d="M1.219-3.484c0-.203-.219-.36-.453-.36-.22.016-.407.203-.407.406 0 .032.016.047.032.094L.75-1.39c.031.125.031.141.14.125.11 0 .126-.015.126-.125l.203-2.015Zm.125 3a.43.43 0 0 0-.438-.407C.687-.875.484-.67.5-.437c0 .234.219.406.438.39.234 0 .406-.203.406-.437m0 0"/><path id="b" d="m3.531-.594-.047-.265-.406.062-.25-1.484c-.094-.61-.453-.766-1.015-.672a1.09 1.09 0 0 0-.875.703L.609-4.187l-1 .218.047.25C0-3.78.031-3.78.063-3.547l.53 3.172-.374.063.047.265.718-.14.704-.094-.047-.266-.375.063-.203-1.203c-.094-.625.343-.985.703-1.047.203-.032.343.062.406.5l.265 1.547-.406.078.047.265.719-.14Zm0 0"/><path id="c" d="m2.063-1.406-.094-.313-.297.078.094.297c.109.407-.016.594-.203.657-.344.093-.454-.282-.5-.422L.578-2.75 1.453-3l-.094-.297-.875.25-.328-1.125-.265.094c.156.594.047 1.25-.532 1.469l.063.218.484-.156.485 1.625c.187.64.765.61 1.187.485.438-.125.61-.532.484-.97m0 0"/><path id="d" d="M3.328-1.547c-.062-.14-.125-.11-.219-.078-.375.156-.406.063-.468-.078l-.547-1.313c-.219-.546-.828-.765-1.735-.39C0-3.266-.734-2.937-.5-2.375c.094.25.36.297.531.219.188-.078.344-.297.25-.531a.44.44 0 0 0-.265-.25c.14-.126.343-.204.406-.235.469-.203.797-.015.984.453l.094.203c-.437.204-1.984.891-1.625 1.782.25.593 1.063.406 1.5.218.484-.203.656-.578.688-.89.078.187.203.468.843.203l.281-.11c.141-.062.204-.093.141-.234M1.813-1.75c.25.594-.282.906-.454.969-.312.125-.656.015-.765-.25-.266-.657.672-1.156.984-1.281Zm0 0"/><path id="e" d="M2.984-3.406C2.547-4.234 1.656-4.5.766-4.016c-.47.25-.703.625-.782.813l-.156-.313-1.078.641.156.281c.39-.203.422-.234.563.016L1.14.547.719.78l.172.297.765-.437.797-.407-.172-.296-.437.234-.625-1.156c.406.078.703 0 .953-.141.937-.5 1.281-1.406.812-2.281m-.812.437c.469.875.219 1.438-.188 1.656-.078.047-.375.204-.828.032-.125-.063-.125-.063-.187-.188L.25-2.78c-.062-.11-.047-.125-.016-.25.11-.406.422-.61.563-.688.406-.219.953-.031 1.375.75m0 0"/><path id="f" d="M1.75-5.11a.48.48 0 0 0-.672-.093c-.094.078-.375.312-.516.75-.156 0-.515.062-.984.406-.922.656-.937 1.406-.61 1.86.188.265.5.437.829.437-.031.344.078.578.172.703.078.11.328.406.75.422C.625-.547.25-.062.547.344c.234.328.937.547 2.219-.36C3.89-.828 4.14-1.578 3.813-2.046c-.141-.188-.485-.548-1.063-.454-.484.078-.875.36-1.484.797-.172.11-.47.328-.5.36A.54.54 0 0 1 .109-1.5a.55.55 0 0 1-.093-.266c.406-.046.75-.28.922-.39.906-.656.906-1.406.578-1.86a1.12 1.12 0 0 0-.688-.437c.11-.25.25-.36.297-.406a.6.6 0 0 0 .063.14c.109.157.328.203.484.094.172-.125.187-.328.078-.484M.813-3.515c.203.282.515.72-.047 1.125-.578.407-.891-.03-1.094-.312-.203-.281-.516-.719.062-1.125.563-.406.875.031 1.079.312m2.453 1.907c.172.234.156.734-.672 1.343-.781.547-1.281.485-1.485.188-.28-.375.11-.656.204-.719l.75-.547c.203-.14.921-.656 1.203-.265m0 0"/><path id="g" d="m3.984-3.203-.25-.297-.453.36-1.344-1.672C1.392-5.5.829-5.47.188-4.953c-.624.5-.671 1.14-.562 1.61l-.562-.688-1.079.937.25.313c.391-.328.438-.36.641-.11l1.61 2-.438.36.25.297.797-.688.828-.625-.25-.297-.453.36L.14-2.844A1.25 1.25 0 0 1 .28-4.64c.219-.171.453-.156.86.344l1.39 1.75-.437.36.25.296.797-.687Zm0 0"/><path id="h" d="M2.281-4.547c-.75-.86-1.953-1.016-3.015-.078s-1.063 2.14-.313 3c.734.828 1.86.969 2.953 0 1.11-.969 1.094-2.11.375-2.922m-.906.656c.516.579 1.125 1.282.297 2.016s-1.438.031-1.953-.547c-.25-.297-.547-.625-.625-.937-.094-.36.062-.75.375-1.032.281-.234.64-.375.984-.265.344.093.656.453.922.765m0 0"/><path id="i" d="m1.969-1.812-.282-.313-.468.422-4.016-4.344-1.14 1.156.296.329c.422-.391.47-.438.72-.172L.5-1.031l-.469.437.282.313.812-.781Zm0 0"/><path id="j" d="M3.656-3.828c-.156-.156-.25-.063-.328.015-.422.407-.515.313-.656.157L1.234-5.141C.656-5.75-.28-5.734-1.312-4.75c-.391.375-1.172 1.219-.61 1.813a.57.57 0 0 0 .844.03.583.583 0 0 0 .016-.859c-.188-.203-.422-.187-.485-.187.156-.235.39-.438.469-.516.516-.5 1.031-.437 1.516.078l.234.235C.203-3.672-1.484-1.922-.531-.922c.64.672 1.61-.031 2.094-.484.546-.532.593-1.125.484-1.563.203.219.5.531 1.219-.156l.328-.312c.14-.141.219-.22.062-.391M1.5-3.281c.64.656.11 1.36-.062 1.515-.36.36-.875.36-1.157.063-.718-.75.297-1.89.594-2.234Zm0 0"/><path id="k" d="M2.031-4.078c-.312-.313-.719-.422-1.187-.36-.5.063-.781.25-1.453.735-.313.203-.875.61-1.22.265-.468-.453.22-1.14.36-1.28.563-.548 1.047-.61 1.485-.25.125.093.172.14.328 0 .172-.188.125-.235-.047-.391l-.578-.594c-.14-.14-.203-.203-.328-.063-.032.016-.047.047-.188.47-.297.093-.594.296-.89.593-.22.219-1.344 1.344-.391 2.297.297.312.656.344.906.328.547-.031.89-.266 1.547-.719.313-.234.953-.672 1.39-.25.548.563-.14 1.235-.296 1.39-.782.782-1.5.438-1.906.204-.141-.063-.188-.016-.282.078-.172.172-.125.219.047.375l.781.797c.157.156.22.219.344.094.063-.063.063-.063.11-.328L.625-1c.578-.11.953-.484 1.11-.64.234-.22 1.374-1.36.296-2.438m0 0"/><path id="l" d="m1.969-3.875-.39-.39-.376.374.375.375c.531.532.484.954.266 1.172-.438.438-.938-.062-1.11-.234l-2.109-2.11L-.25-5.796l-.36-.36-1.124 1.11L-3.187-6.5l-.36.36c.75.75 1.14 1.89.422 2.671l.266.266.609-.61 2.094 2.094c.812.813 1.656.313 2.187-.218.594-.594.5-1.375-.062-1.938m0 0"/><path id="m" d="M2.89-4.703c-.109-.11-.218 0-.296.078-.14.14-.14.188-.078.313.28.703.046 1.25-.344 1.64-1.11 1.094-2.266-.078-2.64-.453-.438-.437-1.454-1.484-.423-2.5.282-.281.422-.375.563-.453a.61.61 0 0 0 .203.516c.344.359.766.234.984.03.235-.25.329-.671 0-1-.671-.687-1.64.173-2.093.626-1.438 1.422-1.125 2.922-.22 3.843C-.405-1.016 1.11-1 2.329-2.202c1.281-1.281.61-2.438.563-2.5m0 0"/><path id="n" d="M3.219-4.953c-.14-.14-.313.016-.344.047-.156.14-.125.187-.062.375.218.578 0 1.297-.532 1.812-1.187 1.14-2.281.031-2.687-.39L2.14-5.547c.172-.172.265-.25.046-.484-.25-.25-.906-.828-1.703-.844-.625 0-1.203.281-1.78.828-1.345 1.281-1.25 2.844-.235 3.89C-.47-1.03 1.156-1.015 2.516-2.311c1.328-1.266.843-2.485.703-2.641m-1.875-.36L-.672-3.39c-.297-.359-.64-.703-.719-1.171-.093-.516.141-.954.391-1.188.984-.937 2.047.14 2.344.438m0 0"/><path id="o" d="M-1.094-8.984c-.343-.36-1.015-.485-1.703.14-.875.797-1.515 2.031-.594 3.047l.829.89-.657.61.375.422.656-.61 2.844 3.11-.61.563.376.421 1.11-1.03c.327-.313.906-.845 1.234-1.11l-.375-.422-.766.703-2.844-3.11 1.032-.937-.375-.422-1.079.985-.828-.891c-.89-.969-.281-1.672-.062-1.875.047-.031.094-.078.14-.125-.03.234.063.453.22.625.343.39.812.281 1.046.063.266-.235.375-.672.031-1.047m0 0"/><path id="p" d="M-.86-9.328c-.343-.39-1.046-.547-1.78.094-.922.797-1.61 2.078-.688 3.14l.812.953-.703.61.39.453.704-.61L.719-1.39l-.64.563.374.437 1.172-1.062c.36-.297.969-.828 1.328-1.094l-.375-.437-.828.718-2.844-3.296L-.016-6.5l-.39-.453-1.125.984-.813-.953c-.906-1.031-.265-1.734-.031-1.937.047-.047.094-.094.172-.141a.8.8 0 0 0 .172.672c.36.406.844.297 1.094.078.28-.25.406-.687.078-1.078m0 0"/><path id="q" d="M4.11-5.078c-.141-.188-.344-.047-.391 0-.172.125-.156.187-.094.406.172.656-.156 1.438-.812 1.938C1.375-1.625.297-2.97-.095-3.484l3.078-2.391c.22-.172.329-.234.11-.516-.235-.296-.89-1.015-1.797-1.125-.64-.062-1.328.157-2.031.704-1.641 1.265-1.703 3-.703 4.28 1.046 1.36 2.828 1.548 4.453.282C4.64-3.5 4.25-4.906 4.109-5.078m-2.032-.64-2.437 1.89C-.641-4.234-.97-4.656-1-5.172a1.43 1.43 0 0 1 .547-1.281c1.187-.922 2.234.406 2.531.734m0 0"/><path id="r" d="m3.906-3.89-.328-.641L3-4.234l.313.609c.421.844.171 1.313-.172 1.5-.72.36-1.11-.422-1.25-.687L.17-6.187l1.782-.907-.281-.578-1.781.906-1.203-2.328-.563.281c.61 1.235.64 2.75-.562 3.391l.218.453 1-.515L.484-2.141c.672 1.313 1.875 1.016 2.735.579.937-.47 1.14-1.438.687-2.329m0 0"/><path id="s" d="m7.984-2.062-.156-.641-.969.25-3-2.125L5-6.766c.125-.234.188-.359 1.328-.64l-.172-.64-1.25.358-1.422.329.172.64c.203-.062.375-.078.547-.015-.031.093-.031.125-.062.187l-.828 1.578-1.72-1.218.548-.141-.172-.64-1.64.468-1.532.344.172.64.968-.25 2.782 1.97-1.281 2.452C1.297-1.016.797-.89.14-.719l.156.64 1.25-.374 1.422-.313-.156-.64c-.25.062-.532.047-.547-.016 0 0 0-.031.062-.156l.922-1.844 1.984 1.39-.53.141.155.641 1.61-.469Zm0 0"/></defs><use xlink:href="#a" x=".471" y="63.875"/><use xlink:href="#b" x="2.369" y="63.844"/><use xlink:href="#c" x="6.027" y="63.195"/><use xlink:href="#d" x="8.704" y="62.417"/><use xlink:href="#e" x="12.144" y="61.007"/><use xlink:href="#f" x="18.523" y="57.318"/><use xlink:href="#g" x="22.21" y="54.678"/><use xlink:href="#h" x="26.334" y="51.341"/><use xlink:href="#i" x="30.088" y="48.021"/><use xlink:href="#j" x="32.235" y="46.052"/><use xlink:href="#k" x="38.803" y="39.685"/><use xlink:href="#l" x="42.137" y="36.36"/><use xlink:href="#m" x="45.545" y="32.946"/><use xlink:href="#n" x="49.613" y="28.916"/><use xlink:href="#o" x="54.042" y="24.688"/><use xlink:href="#p" x="57.16" y="21.839"/><use xlink:href="#q" x="60.446" y="18.955"/><use xlink:href="#r" x="70.054" y="11.98"/><use xlink:href="#s" x="75.471" y="9.009"/></svg>