<svg xmlns="http://www.w3.org/2000/svg" width="102.044" height="122.978"><defs><clipPath id="a"><path d="M43 64h58v58H43Zm0 0"/></clipPath><clipPath id="b"><path d="M100.152 93.215c0-15.656-12.691-28.348-28.347-28.348S43.457 77.56 43.457 93.215s12.691 28.347 28.348 28.347 28.347-12.69 28.347-28.347m0 0"/></clipPath><clipPath id="c"><path d="M32 53h69.566v69.969H32Zm0 0"/></clipPath><clipPath id="d"><path d="M0 79h30v29H0Zm0 0"/></clipPath><clipPath id="e"><path d="M29.285 93.215c0-7.828-6.347-14.172-14.172-14.172-7.828 0-14.175 6.344-14.175 14.172s6.347 14.176 14.175 14.176c7.825 0 14.172-6.348 14.172-14.176m0 0"/></clipPath><clipPath id="f"><path d="M0 93h30v15H0Zm0 0"/></clipPath><clipPath id="g"><path d="M29.285 93.215c0-7.828-6.347-14.172-14.172-14.172-7.828 0-14.175 6.344-14.175 14.172s6.347 14.176 14.175 14.176c7.825 0 14.172-6.348 14.172-14.176m0 0"/></clipPath></defs><path fill="none" stroke="#7F7F7F" stroke-miterlimit="10" stroke-width=".199" d="M.938 57.781h85.039M.937 29.434h85.04M.937 1.098h85.04M.937 57.78V1.09M29.286 57.78V1.09M57.633 57.78V1.09M85.969 57.78V1.09"/><path fill="none" stroke="#000" stroke-miterlimit="10" stroke-width=".399" d="M.938 57.781h.699v-.699h.699v.7h.703v-.7h-.703v-.7h.703v-.698h.7v-.7h.699v.7h.699v.699h.699v.699h-.7v.7h.7v-.7h.703v.7h.7v-.7h-.7v-.7h.7v-.698h-.7v.699h-.703v-.7h-.7v-.699h-.699v-.703h.7v-.699h.699v-.7h.703v.7h.7v-.7h-.7v-.698h.7v-.7h.699v-.703h.699v.703h.699v-.703h-.7v-.699h.7v-.7h.7v-.698h.702v.699h.7v.699h.699v.7h-.7v.702h.7v-.703h.699v.703h.7v.7h.698v.699h-.699v.699h.7v-.7h.703v.7h.699v.7h.699v.698h-.7v.704h-.698v.699h-.704v-.7h-.699v.7h.7v.699h-.7v.7h.7v-.7h.703v.7h.699v-.7h-.7v-.7h.7v-.698h.699v-.704h.7v.704h.698v.699h.703v.699h-.703v.7h.703v-.7h.7v.7h.699v-.7h-.7v-.7h.7v-.698h-.7v.699h-.698v-.7h-.704v-.699h-.699v-.703h.7v-.699h.703v-.7h.699v.7h.699v-.7h-.7v-.698h.7v-.7h-.7v.7h-.698v-.7h-.704v.7h.703v.699h-.703v.699h-.699v.7h-.7v-.7h-.698v-.7h-.7v-.698h.7v-.7h-.7v.7h-.699v-.7h-.703v-.703h-.7v-.699h.7v-.7h-.7v.7h-.698v-.7h-.7v-.698h-.699v-.7h.7v-.699h.699v-.703h.699v.703h.7v-.703h-.7v-.7h.7v-.698h.702v-.7h.7v.7h.699v-.7h-.7v-.699h.7v-.7h.699v-.702h.7v.703h.698v.7h.703v.698h-.703v.7h.703v-.7h.7v.7h.699v-.7h-.7v-.699h.7v-.7h-.7v.7h-.698v-.7h-.704v-.702h-.699v-.7h.7v-.699h.703v-.699h.699v.7h.699v-.7h-.7v-.7h.7v-.702h.7v-.7h.698v.7h.7v-.7h-.7v-.699h.7v-.699h.703v-.7h.699v.7h.7v.7h.698v.699h-.699v.699h.7v-.7h.699v.7h.699v-.7h-.7v-.699h.7v-.699h-.7v.7h-.699v-.7h-.699v-.7h-.7v-.698h.7v-.703h.7v-.7h.699v.7h.699v-.7h-.7v-.699h.7v-.7h.703v-.698h.7v.699h.698v-.7h-.699v-.699h.7v-.703h.699v-.699h.699v.7h.699v.702h.703v.7h-.703v.699h.703v-.7h.7v.7h.699v.7h.699v.698h-.7v.7h.7v-.7h.699v.7h.703v.703h.7v.699h-.7v.7h-.703v.698h-.7v-.699h-.698v.7h.699v.699h-.7v.699h.7v-.7h.699v.7h.703v-.7h-.703v-.699h.703v-.699h.7v-.7h.699v.7h.699v.7h.699v.699h-.7v.699h.7v-.7h.7v.7h.702v.703h.7v.7h-.7v.698h.7v-.699h.699v.7h.699v.699h.7v.699h-.7v.699h-.7v.703h-.698v-.703h-.7v.703h.7v.7h-.7v.699h.7v-.7h.699v.7h.699v-.7h-.7v-.699h.7v-.703h.7v-.7h.702v.7h.7v.703h.699v.7h-.7v.699h.7v-.7h.699v.7h.7v.699h.698v.699h-.699v.7h.7v-.7h.703v.7h.699v.702h.699v.7h-.7v.699h-.698v.699h-.704v-.7h-.699v.7h.7v.7h-.7v.702h-.699v.7h-.7v-.7h-.698v.7h.699v.699h-.7v.699h-.699v.7h-.703v-.7h-.699v-.7h-.7v-.698h.7v-.7h-.7v.7h-.698v-.7h-.7v.7h.7v.699h-.7v.699h.7v-.7h.699v.7h.699v.7h.7v.698h-.7v.704h-.7v.699h-.698v-.7h-.7v.7h.7v.699h-.7v.7h.7v-.7h.699v.7h.699v-.7h-.7v-.7h.7v-.698h.7v-.704h.702v.704h.7v.699h.699v.699h-.7v.7h.7v-.7h.699v.7h.7v-.7h-.7v-.7h.7v-.698h-.7v.699h-.7v-.7h-.698v-.703h-.7v-.699h.7v-.699h.699v-.7h.699v.7h.7v-.7h-.7v-.698h.7v-.7h.702v-.703h.7v.703h.699v-.703h-.7v-.699h.7v-.7h.699v-.698h.7v.699h.698v.699h.704v.7h-.704v.702h.704v-.703h.699v.703h.699v.7h.7v.699h-.7v.699h.7v-.7h.698v.7h.704v.7h.699v.698h-.7v.704h-.703v.699h-.699v-.7h-.699v.7h.7v.699h-.7v.7h.7v-.7h.698v.7h.704v-.7h-.704v-.7h.704v-.698h.699v-.704h.699v.704h.7v.699h.698v.699h-.699v.7h.7v-.7h.699v.7h.703"/><path fill="none" stroke="red" stroke-miterlimit="10" stroke-width=".199" d="M53.379 49.277a7.085 7.085 0 0 0-7.086-7.086 7.085 7.085 0 0 0-7.086 7.086 7.085 7.085 0 0 0 7.086 7.086 7.085 7.085 0 0 0 7.086-7.086Zm0 0"/><g clip-path="url(#a)"><g fill="none" stroke-miterlimit="10" clip-path="url(#b)"><path stroke="#7F7F7F" stroke-width=".796" d="M-109.617 127.23h340.164M-109.617 13.844h340.164M-109.617-99.504h340.164M-109.617 127.23V-99.543M3.773 127.23V-99.543M117.16 127.23V-99.543M230.508 127.23V-99.543"/><path stroke="#000" stroke-width="1.596" d="M-109.617 127.23h2.8v-2.796h2.801v2.796h2.801v-2.796h-2.8v-2.801h2.8v-2.801h2.797v-2.797h2.8v2.797h2.802v2.8h2.796v2.802h-2.796v2.796h2.796v-2.796h2.801v2.796h2.801v-2.796h-2.8v-2.801h2.8v-2.801h-2.8v2.8h-2.802v-2.8h-2.796v-2.797h-2.801v-2.8h2.8v-2.801h2.797v-2.801h2.801v2.8h2.801v-2.8h-2.8v-2.797h2.8v-2.8h2.797v-2.802h2.8v2.801h2.801v-2.8h-2.8v-2.797h2.8v-2.801h2.797v-2.801h2.801v2.8h2.8v2.802h2.802v2.796h-2.801v2.801h2.8v-2.8h2.798v2.8h2.8v2.8h2.801v2.798h-2.8v2.8h2.8v-2.8h2.797v2.8h2.8v2.801h2.802v2.797h-2.801v2.801h-2.801v2.8h-2.797v-2.8h-2.8v2.8h2.8v2.802h-2.8v2.796h2.8v-2.796h2.797v2.796h2.8v-2.796h-2.8v-2.801h2.8v-2.801h2.802v-2.8h2.8v2.8h2.797v2.8h2.801v2.802h-2.8v2.796h2.8v-2.796h2.8v2.796h2.802v-2.796h-2.801v-2.801h2.8v-2.801h-2.8v2.8h-2.801v-2.8h-2.797v-2.797h-2.8v-2.8h2.8v-2.801h2.797v-2.801h2.8v2.8h2.802v-2.8h-2.801v-2.797h2.8v-2.8h-2.8v2.8h-2.801v-2.8h-2.797v2.8h2.797v2.797h-2.797v2.8h-2.8v2.801h-2.801v-2.8h-2.797v-2.801h-2.801v-2.797h2.8v-2.8h-2.8v2.8h-2.8v-2.8h-2.802v-2.802h-2.797v-2.796h2.797v-2.801h-2.797v2.8h-2.8v-2.8h-2.801v-2.801h-2.797v-2.797h2.797v-2.8h2.8v-2.802h2.801v2.801h2.797v-2.8h-2.797v-2.801h2.797V76.84h2.801v-2.8h2.8v2.8h2.798v-2.8h-2.797v-2.802h2.797v-2.797h2.8v-2.8h2.801v2.8h2.797v2.797h2.801v2.801h-2.8v2.8h2.8v-2.8h2.8v2.8h2.802v-2.8h-2.801v-2.8h2.8V68.44h-2.8v2.797h-2.801v-2.797h-2.8v-2.8h-2.798V62.84h2.797v-2.8h2.801v-2.798h2.8v2.797h2.802v-2.797h-2.801v-2.8h2.8V51.64h2.797V48.84h2.801v2.8h2.801v-2.8h-2.8v-2.797h2.8v-2.8h2.797V40.44h2.8v2.801h2.801v2.801h2.797v2.797h-2.797v2.8h2.797v-2.8h2.801v2.8h2.8v-2.8h-2.8v-2.797h2.8v-2.8h-2.8v2.8h-2.797v-2.8h-2.8V40.44h-2.801v-2.796h2.8v-2.801h2.801v-2.801h2.797v2.8h2.8v-2.8h-2.8v-2.797h2.8v-2.8h2.802v-2.801h2.797v2.8h2.8v-2.8h-2.8v-2.797h2.8v-2.801h2.801v-2.8h2.797v2.8h2.8v2.797h2.802v2.8H7.969v2.801h2.8v-2.8h2.797v2.8h2.801v2.801h2.801v2.797h-2.8v2.8h2.8v-2.8h2.797v2.8h2.8v2.802h2.801v2.796h-2.8v2.801h-2.797v2.801h-2.801v-2.8h-2.8v2.8h2.8v2.797h-2.8v2.8h2.8v-2.8h2.8v2.8h2.798v-2.8h-2.797v-2.797h2.797v-2.8h2.8V40.44h2.801v2.801h2.797v2.801h2.8v2.797h-2.8v2.8h2.8v-2.8h2.802v2.8h2.8v2.801h2.797v2.797h-2.797v2.801h2.797v-2.797h2.801v2.797h2.8v2.8h2.798v2.802h-2.797v2.796h-2.8v2.801h-2.802v-2.8h-2.797v2.8h2.797v2.801h-2.797v2.797h2.797v-2.797h2.801v2.797h2.8v-2.797h-2.8v-2.8h2.8v-2.802h2.798v-2.796h2.8v2.796h2.801v2.801h2.801v2.801h-2.8v2.797h2.8v-2.797h2.797v2.797h2.8v2.8h2.802v2.802h-2.801v2.796h2.8v-2.796h2.797v2.796h2.801v2.801h2.8v2.8h-2.8v2.802h-2.8v2.797h-2.797v-2.797h-2.801v2.797h2.8v2.8h-2.8v2.801H63.96v2.797h-2.797v-2.797h-2.8v2.797h2.8v2.8h-2.8v2.802h-2.801v2.796h-2.797v-2.796h-2.801v-2.801h-2.8v-2.801h2.8v-2.797h-2.8v2.797h-2.798v-2.797h-2.8v2.797h2.796v2.8h-2.797v2.802h2.797v-2.801h2.801v2.8h2.8v2.801h2.802v2.797h-2.801v2.801h-2.8v2.8h-2.802v-2.8h-2.797v2.8h2.797v2.798h-2.797v2.8h2.797v-2.796h2.801v2.796h2.8v-2.796h-2.8v-2.801h2.8v-2.801h2.802v-2.8h2.797v2.8h2.8v2.8h2.801v2.802h-2.8v2.796h2.8v-2.796h2.8v2.796h2.798v-2.796h-2.797v-2.801h2.797v-2.801h-2.797v2.8h-2.8v-2.8h-2.802v-2.8h-2.8v-2.798h2.8v-2.8h2.801v-2.801h2.8v2.8h2.798v-2.8h-2.797v-2.801h2.797v-2.797h2.8v-2.8h2.801v2.8h2.797v-2.8h-2.797v-2.801h2.797v-2.797h2.8v-2.801h2.802v2.8h2.8v2.798h2.797v2.8h-2.796v2.801h2.796v-2.8h2.801v2.8h2.8v2.797h2.802v2.8H91.96v2.802h2.8v-2.801h2.798v2.8h2.8v2.801h2.801v2.797h-2.8v2.801h-2.801v2.8h-2.797v-2.8H91.96v2.8h2.8v2.798h-2.8v2.8h2.8v-2.796h2.798v2.796h2.8v-2.796h-2.8v-2.801h2.8v-2.801h2.801v-2.8h2.8v2.8h2.798v2.8h2.8v2.798h-2.8v2.8h2.8v-2.8h2.801v2.8h2.801"/></g></g><g clip-path="url(#c)"><path fill="none" stroke="red" stroke-miterlimit="10" stroke-width=".797" d="M100.152 93.215c0-15.656-12.691-28.348-28.347-28.348S43.457 77.56 43.457 93.215s12.691 28.347 28.348 28.347 28.347-12.69 28.347-28.347Zm0 0"/></g><path fill="none" stroke="red" stroke-miterlimit="10" stroke-width=".399" d="m49.852 55.406 7.718 13.297"/><path fill="none" stroke="#00F" stroke-miterlimit="10" stroke-width=".199" d="M32.828 29.434a3.543 3.543 0 1 0-7.086 0 3.546 3.546 0 0 0 3.543 3.546 3.546 3.546 0 0 0 3.543-3.546Zm0 0"/><g clip-path="url(#d)"><g clip-path="url(#e)"><path fill="none" stroke="#7F7F7F" stroke-miterlimit="10" stroke-width=".796" d="M-98.273 206.602h340.16M-98.273 93.215h340.16M-98.273-20.133h340.16m-340.16 226.735V-20.172M15.113 206.602V-20.172M128.5 206.602V-20.172m113.348 226.774V-20.172"/></g></g><g clip-path="url(#f)"><g clip-path="url(#g)"><path fill="none" stroke="#000" stroke-miterlimit="10" stroke-width="1.596" d="M-98.273 206.602h2.796v-2.797h2.801v2.797h2.801v-2.797h-2.8v-2.801h2.8v-2.8h2.797v-2.802h2.8v2.801h2.801v2.8h2.797v2.798h-2.797v2.8h2.797v-2.8h2.801v2.8h2.8v-2.796h-2.8v-2.801h2.8v-2.8h-2.8v2.8h-2.8v-2.8h-2.798v-2.802h-2.8v-2.797h2.8v-2.8h2.797v-2.801h2.801v2.8h2.8v-2.8h-2.8v-2.797h2.8v-2.8h2.798v-2.802h2.8v2.801h2.801v-2.8h-2.8v-2.797h2.8v-2.801h2.801v-2.801h2.797v2.8h2.8v2.802h2.802v2.796h-2.801v2.801h2.8v-2.8h2.797v2.8h2.801v2.801h2.801v2.797h-2.8v2.8h2.8v-2.8h2.797v2.8h2.8v2.801h2.801v2.797h-2.8v2.801h-2.801v2.8h-2.797v-2.8h-2.8v2.8h2.8v2.798h-2.8v2.8h2.8v-2.8h2.797v2.8h2.8v-2.8h-2.796v-2.797h2.797v-2.8h2.8v-2.802h2.801v2.801h2.797v2.8h2.8v2.798h-2.8v2.8h2.8v-2.8h2.802v2.8h2.8v-2.796h-2.8v-2.801h2.8v-2.8h-2.8v2.8h-2.801v-2.8h-2.797v-2.802h-2.8v-2.797h2.8v-2.8h2.797v-2.801h2.8v2.8h2.801v-2.8h-2.8v-2.797h2.8v-2.8h-2.8v2.8h-2.801v-2.8h-2.797v2.8h2.797v2.797h-2.797v2.8h-2.8v2.801h-2.802v-2.8h-2.796v-2.801h-2.801v-2.797h2.8v-2.8h-2.8v2.8h-2.801v-2.8h-2.8v-2.802h-2.798v-2.796h2.797v-2.801h-2.797v2.8h-2.8v-2.8h-2.801v-2.801h-2.797v-2.8h2.797v-2.798h2.8v-2.8h2.801v2.8h2.797v-2.8h-2.797v-2.801h2.797v-2.797h2.801v-2.8h2.8v2.8h2.798v-2.8h-2.797v-2.802h2.797v-2.797h2.8v-2.8h2.801v2.8h2.797v2.797h2.8v2.801h-2.8v2.8h2.8v-2.8h2.802v2.8h2.8v-2.8h-2.8v-2.8h2.8v-2.801h-2.8v2.8h-2.801v-2.8h-2.797v-2.797h-2.8v-2.801h2.8v-2.8h2.797v-2.798h2.8v2.797h2.801v-2.797h-2.8v-2.8h2.8v-2.801h2.797v-2.801h2.801v2.8h2.8v-2.8h-2.8v-2.797h2.8v-2.8h2.798v-2.801h2.8v2.8h2.801v2.801h2.797v2.797h-2.797v2.8h2.797v-2.8h2.8v2.8h2.802v-2.8H-.29v-2.797h2.8v-2.8h-2.8v2.8h-2.797v-2.8h-2.8v-2.801h-2.801v-2.797h2.8v-2.801h2.801v-2.8h2.797v2.8h2.8v-2.8h-2.8v-2.798h2.8v-2.8h2.802v-2.801h2.796v2.8h2.801v-2.8h-2.8v-2.801h2.8v-2.797h2.8v-2.8h2.798v2.8h2.8v2.797h2.801v2.8h-2.8v2.801h2.8v-2.8h2.797v2.8h2.801v2.797h2.8v2.801h-2.8v2.8h2.8v-2.8h2.802v2.8h2.796v2.798h2.801v2.8h-2.8v2.801h-2.797v2.801h-2.801v-2.8h-2.801v2.8h2.8v2.797h-2.8v2.8h2.8v-2.8h2.802v2.8h2.796v-2.8H33.31v-2.797h2.796v-2.8h2.801v-2.801h2.801v2.8h2.8v2.801h2.798v2.797h-2.797v2.8h2.797v-2.8h2.8v2.8h2.801v2.802h2.797v2.796h-2.797v2.801h2.797v-2.8h2.8v2.8h2.802v2.8h2.797v2.798h-2.797v2.8h-2.801v2.801h-2.797v-2.8h-2.8v2.8h2.796v2.801h-2.797v2.797h2.797v-2.797h2.8v2.797h2.802v-2.797h-2.801v-2.8h2.8v-2.801h2.798v-2.797h2.8v2.797h2.801v2.8h2.8v2.801h-2.8v2.797h2.8v-2.797h2.798v2.797h2.8v2.8h2.801v2.802h-2.8v2.796h2.8v-2.796H83.7v2.796H86.5v2.801h2.8v2.801h-2.8v2.797h-2.8v2.8h-2.798v-2.8h-2.8v2.8h2.8v2.801h-2.8v2.801H75.3v2.797h-2.797v-2.797h-2.8v2.797h2.8v2.8h-2.8v2.802h-2.802v2.797h-2.797v-2.797h-2.8v-2.801h-2.801v-2.8h2.8v-2.798h-2.8v2.797h-2.797v-2.797h-2.8v2.797h2.796v2.8h-2.797v2.802h2.797v-2.801h2.8v2.8h2.802v2.798h2.8v2.8h-2.8v2.801h-2.801v2.8h-2.797v-2.8h-2.8v2.8h2.8v2.798h-2.8v2.8h2.796v-2.8h2.8v2.8h2.802v-2.8h-2.801v-2.797h2.8v-2.8h2.801v-2.802h2.797v2.801h2.801v2.8h2.8v2.798h-2.8v2.8h2.8v-2.8h2.802v2.8h2.797v-2.8h-2.797v-2.797h2.797v-2.8h-2.797v2.8h-2.801v-2.8h-2.8v-2.802h-2.798v-2.797h2.797v-2.8h2.8v-2.801h2.802v2.8h2.797v-2.8h-2.797v-2.8h2.797v-2.798h2.8v-2.8h2.801v2.8h2.8v-2.8h-2.8v-2.801h2.8v-2.801h2.798v-2.797h2.8v2.797h2.801v2.8H97.7v2.801h-2.797v2.801H97.7v-2.8h2.801v2.8h2.8v2.797h2.802v2.8H103.3v2.802h2.8v-2.801h2.797v2.8h2.801v2.798h2.801v2.8h-2.8v2.801h-2.802v2.8h-2.796v-2.8H103.3v2.8h2.8v2.798h-2.8v2.8h2.8v-2.8h2.797v2.8h2.801v-2.8h-2.8v-2.797h2.8v-2.8h2.801v-2.802h2.8v2.801h2.798v2.8h2.8v2.798h-2.8v2.8h2.8v-2.8h2.801v2.8h2.801"/></g></g><path fill="none" stroke="#00F" stroke-miterlimit="10" stroke-width=".797" d="M29.285 93.215c0-7.828-6.347-14.172-14.172-14.172-7.828 0-14.175 6.344-14.175 14.172s6.347 14.176 14.175 14.176c7.825 0 14.172-6.348 14.172-14.176Zm0 0"/><path fill="none" stroke="#00F" stroke-miterlimit="10" stroke-width=".399" d="M28.516 32.895 18.188 79.379"/></svg>