<svg xmlns="http://www.w3.org/2000/svg" width="30.566" height="30.566"><defs><clipPath id="a"><path d="M4 0h26.348v30.348H4Zm0 0"/></clipPath></defs><path fill="none" stroke="#7F7F7F" stroke-miterlimit="10" stroke-width=".199" d="M.895 29.246h28.343M.895 26.414h28.343M.895 23.578h28.343M.895 20.742h28.343M.895 17.91h28.343M.895 15.074h28.343M.895 12.238h28.343M.895 9.406h28.343M.895 6.57h28.343M.895 3.734h28.343M.895.902h28.343M.895 29.246V.902m2.832 28.344V.902m2.836 28.344V.902m2.835 28.344V.902m2.832 28.344V.902m2.836 28.344V.902m2.836 28.344V.902m2.832 28.344V.902m2.836 28.344V.902m2.836 28.344V.902m2.832 28.344V.902"/><path fill="none" stroke="red" stroke-miterlimit="10" stroke-width=".797" d="M.895 15.074H19.48"/><path fill="#FFF" d="m28.105 15.074-12.523-4.71 4.098 4.71-4.098 4.707Zm0 0"/><g clip-path="url(#a)"><path fill="none" stroke="#00F" stroke-miterlimit="10" stroke-width=".797" d="m28.105 15.074-12.523-4.71 4.098 4.71-4.098 4.707Zm0 0"/></g></svg>