<svg xmlns="http://www.w3.org/2000/svg" xmlns:xlink="http://www.w3.org/1999/xlink" width="179.894" height="168.554"><defs><path id="a" d="M3.328-3.016c.063-.25.297-1.171.985-1.171.046 0 .296 0 .5.125a.58.58 0 0 0-.47.546c0 .157.11.344.376.344a.546.546 0 0 0 .531-.578c0-.516-.578-.656-.922-.656-.578 0-.922.531-1.047.75-.25-.656-.781-.75-1.078-.75-1.031 0-1.61 1.281-1.61 1.531 0 .11.11.11.126.11.078 0 .11-.032.125-.11.344-1.062 1-1.312 1.344-1.312.187 0 .53.093.53.671 0 .313-.171.97-.53 2.375-.157.61-.516 1.032-.954 1.032-.062 0-.28 0-.5-.125.25-.063.47-.266.47-.547 0-.266-.22-.344-.36-.344-.313 0-.547.25-.547.578 0 .453.484.656.922.656.672 0 1.031-.703 1.047-.75.125.36.484.75 1.078.75 1.031 0 1.594-1.28 1.594-1.53 0-.11-.079-.11-.11-.11-.094 0-.11.047-.14.11-.329 1.077-1 1.312-1.313 1.312-.39 0-.547-.313-.547-.657 0-.218.047-.437.156-.875Zm0 0"/><path id="b" d="M3.656-3.984h.86c.203 0 .297 0 .297-.203 0-.11-.094-.11-.266-.11h-.828l.203-1.14c.047-.204.187-.907.25-1.032.078-.187.25-.343.469-.343.03 0 .297 0 .484.187a.557.557 0 0 0-.547.531c0 .235.188.36.375.36.266 0 .547-.235.547-.61 0-.453-.453-.687-.86-.687-.343 0-.968.187-1.265 1.172-.062.203-.094.312-.328 1.562h-.688c-.203 0-.312 0-.312.188 0 .125.094.125.281.125h.656L2.25-.047c-.187.969-.36 1.875-.875 1.875-.047 0-.281 0-.484-.187.468-.032.562-.391.562-.532 0-.234-.187-.359-.375-.359-.266 0-.547.234-.547.61 0 .437.438.687.844.687.547 0 .953-.594 1.125-.969.328-.625.547-1.828.563-1.906Zm0 0"/><path id="c" d="M3.297 2.39c0-.03 0-.046-.172-.218C1.891.922 1.563-.968 1.563-2.5c0-1.734.375-3.469 1.609-4.703.125-.125.125-.14.125-.172 0-.078-.031-.11-.094-.11-.11 0-1 .688-1.594 1.954C1.11-4.438.984-3.328.984-2.5c0 .781.11 1.984.657 3.125C2.25 1.844 3.094 2.5 3.203 2.5c.063 0 .094-.031.094-.11m0 0"/><path id="d" d="M2.875-2.5c0-.766-.11-1.969-.656-3.11C1.625-6.827.766-7.483.672-7.483a.107.107 0 0 0-.11.109c0 .031 0 .047.188.234.984.985 1.547 2.563 1.547 4.641 0 1.719-.36 3.469-1.594 4.719-.14.125-.14.14-.14.172 0 .062.046.109.109.109.094 0 1-.687 1.578-1.953.516-1.094.625-2.203.625-3.047m0 0"/><path id="e" d="M6.844-3.266c.156 0 .343 0 .343-.187 0-.203-.187-.203-.328-.203H.891c-.141 0-.328 0-.328.203 0 .187.187.187.328.187Zm.015 1.938c.141 0 .329 0 .329-.203 0-.188-.188-.188-.344-.188H.89c-.141 0-.328 0-.328.188 0 .203.187.203.328.203Zm0 0"/><path id="f" d="M2.078-1.937c.219.046 1.031.203 1.031.921 0 .5-.343.907-1.125.907-.843 0-1.203-.563-1.39-1.422-.031-.125-.031-.157-.14-.157-.126 0-.126.063-.126.235v1.328c0 .172 0 .234.11.234C.484.11.5.094.688-.094.703-.109.703-.125.89-.312c.437.406.89.421 1.093.421 1.141 0 1.61-.671 1.61-1.39 0-.516-.297-.828-.422-.938-.328-.328-.719-.406-1.14-.484-.563-.11-1.22-.235-1.22-.813 0-.359.25-.765 1.11-.765 1.094 0 1.156.906 1.172 1.203 0 .094.094.094.11.094.14 0 .14-.047.14-.235v-1.015c0-.157 0-.235-.11-.235-.046 0-.078 0-.203.125-.031.032-.125.125-.172.157-.375-.282-.78-.282-.937-.282-1.219 0-1.594.672-1.594 1.235 0 .343.156.625.422.843.328.25.61.313 1.328.454m0 0"/><path id="g" d="m1.766-4.406-1.391.11v.312c.64 0 .734.062.734.547V-.75c0 .438-.109.438-.78.438V0c.312-.016.859-.031 1.093-.031.36 0 .703.015 1.047.031v-.312c-.672 0-.703-.047-.703-.438Zm.03-1.735a.514.514 0 0 0-.515-.53.537.537 0 0 0-.531.53c0 .266.219.532.531.532a.514.514 0 0 0 .516-.532m0 0"/><path id="h" d="M1.094-3.422V-.75c0 .438-.11.438-.782.438V0c.36-.016.86-.031 1.141-.031.25 0 .766.015 1.11.031v-.312c-.672 0-.782 0-.782-.438v-1.844c0-1.031.719-1.594 1.344-1.594.64 0 .75.532.75 1.11V-.75c0 .438-.11.438-.781.438V0c.344-.016.86-.031 1.125-.031.25 0 .781.015 1.11.031v-.312c-.516 0-.766 0-.766-.297v-1.907c0-.859 0-1.156-.313-1.515-.14-.172-.469-.375-1.047-.375-.734 0-1.203.422-1.484 1.047v-1.047l-1.406.11v.312c.703 0 .78.062.78.562m0 0"/><path id="l" d="M1.11-2.516C1.171-4 2.015-4.25 2.36-4.25c1.015 0 1.124 1.344 1.124 1.734Zm0 .22h2.78c.22 0 .25 0 .25-.22 0-.984-.546-1.953-1.78-1.953C1.202-4.469.28-3.437.28-2.187.281-.86 1.328.108 2.47.108 3.688.11 4.14-1 4.14-1.187c0-.094-.079-.125-.141-.125-.078 0-.11.062-.125.14C3.531-.14 2.625-.14 2.531-.14c-.5 0-.89-.296-1.125-.671-.297-.47-.297-1.125-.297-1.485m0 0"/><path id="i" d="M2.328-4.437c0-.188 0-.188-.203-.188-.453.438-1.078.438-1.36.438v.25c.157 0 .626 0 1-.188v3.547c0 .234 0 .328-.687.328H.812V0c.125 0 .985-.031 1.235-.031.219 0 1.094.031 1.25.031v-.25H3.03c-.703 0-.703-.094-.703-.328Zm0 0"/><path id="j" d="M3.516-1.266H3.28c-.015.157-.094.563-.187.625-.047.047-.578.047-.688.047H1.125c.734-.64.984-.843 1.39-1.172.516-.406 1-.843 1-1.5 0-.843-.734-1.359-1.624-1.359-.86 0-1.453.61-1.453 1.25 0 .344.296.39.375.39.156 0 .359-.124.359-.374 0-.125-.047-.375-.406-.375.218-.485.687-.641 1.015-.641.703 0 1.063.547 1.063 1.11 0 .609-.438 1.078-.656 1.328L.516-.266C.437-.203.437-.187.437 0h2.876Zm0 0"/><path id="k" d="M3.594-2.219c0-.765-.094-1.328-.406-1.812-.22-.313-.657-.594-1.204-.594C.36-4.625.36-2.719.36-2.219s0 2.36 1.625 2.36c1.61 0 1.61-1.86 1.61-2.36M1.984-.062c-.328 0-.75-.188-.89-.75C1-1.22 1-1.797 1-2.312c0-.516 0-1.047.094-1.422.156-.547.593-.703.89-.703.375 0 .735.234.86.64.11.375.125.875.125 1.485 0 .515 0 1.03-.094 1.468-.14.64-.61.782-.89.782m0 0"/><path id="m" d="M1.734-.734c-.062.234-.296.609-.656.609-.016 0-.234 0-.375-.094a.44.44 0 0 0 .313-.39c0-.157-.125-.25-.282-.25a.407.407 0 0 0-.406.422c0 .343.39.5.734.5.329 0 .61-.188.782-.485.172.36.547.485.828.485.812 0 1.234-.86 1.234-1.063 0-.094-.094-.094-.11-.094-.108 0-.108.047-.14.125-.14.485-.562.844-.953.844-.281 0-.422-.187-.422-.453 0-.188.172-.813.36-1.594.14-.531.453-.703.687-.703.016 0 .219 0 .375.094a.43.43 0 0 0-.312.39c0 .141.125.25.28.25.157 0 .392-.125.392-.421 0-.391-.454-.516-.72-.516-.359 0-.64.234-.78.5-.126-.281-.454-.5-.844-.5C.937-3.078.5-2.218.5-2c0 .078.094.078.11.078.093 0 .093-.016.14-.11.172-.546.61-.843.953-.843.234 0 .422.125.422.453 0 .14-.094.485-.156.735Zm0 0"/></defs><path fill="none" stroke="#7F7F7F" stroke-miterlimit="10" stroke-width=".199" d="M7.277 161.652h113.387M7.277 133.305h113.387M7.277 104.957h113.387M7.277 76.613h113.387M7.277 48.266h113.387M10.114 164.488V22.754m28.343 141.734V22.754m28.348 141.734V22.754m28.347 141.734V22.754"/><path fill="none" stroke="#000" stroke-miterlimit="10" stroke-width=".399" d="M4.441 133.305H128.77"/><path fill="none" stroke="#000" stroke-linecap="round" stroke-linejoin="round" stroke-miterlimit="10" stroke-width=".399" d="M126.898 130.914c.38 1.434 1.223 2.113 2.07 2.39-.847.278-1.69.958-2.07 2.391"/><use xlink:href="#a" x="132.687" y="135.45"/><path fill="none" stroke="#000" stroke-miterlimit="10" stroke-width=".399" d="M10.113 167.32V14.648"/><path fill="none" stroke="#000" stroke-linecap="round" stroke-linejoin="round" stroke-miterlimit="10" stroke-width=".399" d="M7.723 16.52c1.433-.38 2.109-1.223 2.39-2.07.278.847.957 1.69 2.39 2.07"/><use xlink:href="#b" x=".416" y="8.24"/><use xlink:href="#c" x="6.365" y="8.24"/><use xlink:href="#a" x="10.24" y="8.24"/><use xlink:href="#d" x="15.934" y="8.24"/><path fill="none" stroke="red" stroke-miterlimit="10" stroke-width=".399" d="m10.113 133.305 23.621-23.621 4.723-4.727 4.727-4.723 4.722-4.726 4.727-4.723 4.722-4.726 4.727-4.723 42.52-42.52 4.722-4.726 4.727-4.723 4.722-4.726 4.727-4.723"/><use xlink:href="#b" x="127.017" y="22.41" fill="red"/><use xlink:href="#c" x="132.967" y="22.41" fill="red"/><use xlink:href="#a" x="136.842" y="22.41" fill="red"/><use xlink:href="#d" x="142.536" y="22.41" fill="red"/><use xlink:href="#e" x="149.17" y="22.41" fill="red"/><use xlink:href="#a" x="159.693" y="22.41" fill="red"/><path fill="none" stroke="#00F" stroke-miterlimit="10" stroke-width=".399" d="m10.113 133.305 4.723-4.703 4.727-4.57 4.722-4.317 4.727-3.938 4.722-3.453 4.723-2.87 4.727-2.212 4.722-1.488 4.727-.727 4.722.063 4.727.84 4.723 1.597 4.726 2.317 4.723 2.965 4.726 3.53 4.723 4.005 4.727 4.36 4.722 4.6 4.727 4.712 4.723 4.691 4.722 4.543 4.727 4.266 4.722 3.87 4.727 3.372"/><use xlink:href="#b" x="127.017" y="157.248" fill="#00F"/><use xlink:href="#c" x="132.967" y="157.248" fill="#00F"/><use xlink:href="#a" x="136.842" y="157.248" fill="#00F"/><use xlink:href="#d" x="142.536" y="157.248" fill="#00F"/><use xlink:href="#e" x="149.17" y="157.248" fill="#00F"/><g fill="#00F"><use xlink:href="#f" x="159.689" y="157.248"/><use xlink:href="#g" x="163.618" y="157.248"/><use xlink:href="#h" x="166.386" y="157.248"/></g><use xlink:href="#a" x="173.586" y="157.248" fill="#00F"/><path fill="none" stroke="#FF7F00" stroke-miterlimit="10" stroke-width=".399" d="m10.113 131.887 4.723-.258 4.727-.3 4.722-.36 4.727-.426 4.722-.5 4.723-.59 4.727-.7 4.722-.823 4.727-.977 4.722-1.152 4.727-1.36 4.723-1.609 4.726-1.898 4.723-2.246 4.726-2.649 4.723-3.133 4.727-3.699 4.722-4.371 4.727-5.16 4.723-6.102 4.722-7.207 4.727-8.512 4.722-10.054 4.727-11.88"/><use xlink:href="#b" x="127.017" y="58.413" fill="#FF7F00"/><use xlink:href="#c" x="132.967" y="58.413" fill="#FF7F00"/><use xlink:href="#a" x="136.842" y="58.413" fill="#FF7F00"/><use xlink:href="#d" x="142.536" y="58.413" fill="#FF7F00"/><use xlink:href="#e" x="149.17" y="58.413" fill="#FF7F00"/><use xlink:href="#i" x="162.875" y="54.49" fill="#FF7F00"/><path fill="none" stroke="#FF7F00" stroke-miterlimit="10" stroke-width=".398" d="M160.89 55.922h7.942"/><g fill="#FF7F00"><use xlink:href="#j" x="160.889" y="61.848"/><use xlink:href="#k" x="164.86" y="61.848"/></g><use xlink:href="#l" x="170.027" y="58.413" fill="#FF7F00"/><use xlink:href="#m" x="174.455" y="54.797" fill="#FF7F00"/></svg>