<svg xmlns="http://www.w3.org/2000/svg" xmlns:xlink="http://www.w3.org/1999/xlink" width="71.048" height="52.022"><defs><path id="b" d="m7.422-4.281-.234-.407-.922.532-2.953-5.11.921-.53L4-10.204c-.312.203-1.156.687-1.531.906s-1.203.703-1.563.875l.235.406.937-.53 1.297 2.233L.594-4.718-.703-6.953l.937-.531L0-7.891c-.312.204-1.14.688-1.531.907-.36.203-1.219.703-1.547.875l.234.406.922-.547 2.953 5.11-.922.546.235.407C.64-.407 1.5-.907 1.859-1.11c.391-.22 1.22-.703 1.563-.86l-.235-.406-.937.531L.828-4.312 3.61-5.906l1.422 2.468-.937.532.234.406a44 44 0 0 1 1.531-.922c.375-.219 1.22-.703 1.563-.86m0 0"/><path id="c" d="M3.688-3.469c-.094-.14-.266-.047-.297-.031-.157.094-.141.125-.11.297.063.531-.281 1.078-.844 1.406-1.218.703-1.89-.453-2.14-.875l2.61-1.5c.202-.11.28-.156.14-.39-.156-.266-.578-.875-1.25-1.063-.5-.14-1.047-.016-1.64.328C-1.22-4.5-1.47-3.172-.86-2.109c.672 1.172 2.03 1.5 3.422.703 1.359-.797 1.203-1.906 1.124-2.063m-1.485-.687L.125-2.97c-.172-.328-.375-.719-.36-1.094.032-.468.329-.78.563-.921 1.016-.578 1.688.53 1.875.828m0 0"/><path id="d" d="m2.531-1.453-.234-.406-.594.343-3.219-5.593-1.5.953.235.406c.547-.312.594-.344.797-.016L.766-.984l-.594.343.234.407 1.047-.641Zm0 0"/><path id="e" d="M3.61-4.578C2.937-5.75 1.64-6.141.218-5.328c-1.406.812-1.703 2.14-1.031 3.297.609 1.062 1.89 1.484 3.312.656 1.453-.844 1.719-2.156 1.11-3.203m-1.172.547c.437.734.968 1.672-.141 2.312C1.203-1.094.672-2.03.234-2.766c-.218-.406-.468-.828-.484-1.203-.031-.422.234-.812.64-1.047.376-.218.813-.296 1.172-.109.36.188.641.672.876 1.094m0 0"/><path id="f" d="m6.86-11.312-.235-.407c-.219.156-.516.328-.906.547-.328.188-.86.5-1.188.656l.235.407c.218-.125.625-.36.953-.407l.734 4.72-3.828-3.079.828-.469-.234-.406c-.313.203-1.125.672-1.485.875a31 31 0 0 1-1.343.75l.234.406.75-.422.875.72.594 3.702L-.984-6.78l.843-.485-.234-.406c-.328.203-1.14.672-1.5.89-.344.188-1.016.579-1.344.75l.235.407.75-.437 5.172 4.171c.14.11.203.157.421.032.22-.125.22-.22.188-.391L2.797-7l3.75 3.016c.14.109.203.172.406.046.219-.124.234-.218.203-.39l-.984-6.297c-.031-.187-.047-.203.203-.39.172-.11.344-.22.484-.297m0 0"/><path id="g" d="M1.984-5.39c-.265-.454-.859-.438-1.328-.173-.593.344-.687.985-.562 1.641l-.563-.984L-1.875-4l.234.406c.532-.297.594-.344.797-.015L.687-.937l-.593.343.234.407 1.063-.657c.328-.187.875-.5 1.203-.656l-.235-.406-.734.437L.75-2.984C.406-3.578 0-4.766.86-5.266c0 0-.063.25.078.485.203.36.578.375.812.234.266-.156.438-.484.234-.844m0 0"/><path id="h" d="m5.188-2.984-.235-.407c-.531.297-.594.344-.781 0L1.14-8.64l-1.5.954.234.406c.531-.313.61-.344.813-.016l.968 1.703c-.625-.093-1.11.11-1.406.266C-1-4.594-1.469-3.312-.766-2.094c.657 1.14 1.922 1.5 3.188.766.531-.313.844-.75.984-1.11l.235.407Zm-2.094.015c-.031.219-.094.906-.75 1.281-1.047.61-1.656-.437-2-1.046-.25-.422-.516-.875-.485-1.344.032-.5.391-.828.657-.984.5-.282 1-.204 1.343-.063Zm0 0"/><path id="i" d="M-.969-6.734C-1.156-7.078-1.64-7.172-2-6.97c-.375.219-.516.688-.328 1.032a.8.8 0 0 0 .125.14l2.25 2.875c.156.188.156.203.344.094.156-.094.187-.125.109-.313L-.922-6.609Zm2.75 4.812a.777.777 0 0 0-1.047-.312c-.375.218-.484.703-.28 1.078.218.375.687.5 1.062.281a.76.76 0 0 0 .265-1.047m0 0"/><clipPath id="a"><path d="M0 0h70.57v51.531H0Zm0 0"/></clipPath></defs><g clip-path="url(#a)"><path fill="none" stroke="#000" stroke-miterlimit="10" stroke-width=".399" d="M62.414 2.79.813 38.354l6.87 11.903L69.286 14.69Zm0 0"/></g><use xlink:href="#b" x="8.861" y="45.652"/><use xlink:href="#c" x="16.626" y="41.169"/><use xlink:href="#d" x="21.173" y="38.544"/><use xlink:href="#d" x="23.925" y="36.955"/><use xlink:href="#e" x="26.678" y="35.366"/><use xlink:href="#f" x="34.943" y="30.593"/><use xlink:href="#e" x="44.374" y="25.149"/><use xlink:href="#g" x="49.335" y="22.285"/><use xlink:href="#d" x="53.424" y="19.923"/><use xlink:href="#h" x="56.177" y="18.334"/><use xlink:href="#i" x="61.69" y="15.151"/><path d="M33.238 19.402a1.992 1.992 0 1 0-3.45 1.992 1.99 1.99 0 0 0 2.72.731 1.993 1.993 0 0 0 .73-2.723m7.07 12.25a1.99 1.99 0 0 0-2.718-.73 1.992 1.992 0 1 0 2.719.73M67.747 7.645a1.99 1.99 0 0 0-2.719-.73 1.993 1.993 0 0 0 1.993 3.452 1.99 1.99 0 0 0 .726-2.722M5.801 43.41a1.992 1.992 0 1 0-3.45 1.988A1.992 1.992 0 0 0 5.8 43.41M64.21 1.52a1.997 1.997 0 0 0-2.723-.73 1.99 1.99 0 0 0-.726 2.722 1.993 1.993 0 0 0 2.722.73c.95-.55 1.278-1.77.727-2.722m0 0"/></svg>