<svg xmlns="http://www.w3.org/2000/svg" xmlns:xlink="http://www.w3.org/1999/xlink" width="95.474" height="104.366"><defs><path id="a" d="M2.5-5.078c0-.219-.016-.219-.234-.219-.328.313-.75.5-1.5.5v.266c.218 0 .64 0 1.109-.203v4.078c0 .297-.031.39-.781.39H.812V0c.329-.031 1.016-.031 1.376-.031s1.046 0 1.374.031v-.266h-.28c-.75 0-.782-.093-.782-.39Zm0 0"/><path id="b" d="M2.016-2.656c.625 0 1.03.453 1.03 1.297 0 1-.562 1.28-.983 1.28-.438 0-1.047-.155-1.329-.577.297 0 .5-.188.5-.438 0-.265-.187-.437-.453-.437-.203 0-.437.125-.437.453 0 .75.812 1.25 1.734 1.25 1.047 0 1.797-.734 1.797-1.531 0-.672-.531-1.266-1.344-1.453.625-.22 1.11-.75 1.11-1.391 0-.64-.72-1.094-1.547-1.094-.86 0-1.5.453-1.5 1.063 0 .297.187.422.406.422.25 0 .406-.172.406-.407 0-.297-.265-.406-.437-.406.344-.437.953-.469 1.094-.469.203 0 .812.063.812.89 0 .548-.234.891-.344 1.016-.234.25-.422.266-.906.297-.156 0-.219.016-.219.125 0 .11.078.11.219.11Zm0 0"/><path id="d" d="M1.094-2.64c0-.657.062-1.235.343-1.72.25-.406.657-.734 1.157-.734.156 0 .515.032.703.297-.36.031-.39.297-.39.375 0 .25.187.375.374.375.14 0 .375-.078.375-.39 0-.47-.36-.86-1.078-.86C1.468-5.297.344-4.25.344-2.53.344-.36 1.359.172 2.125.172c.39 0 .797-.11 1.156-.453.328-.313.594-.64.594-1.344 0-1.031-.797-1.766-1.672-1.766-.578 0-.922.36-1.11.75M2.125-.079a.88.88 0 0 1-.797-.516c-.187-.36-.203-.89-.203-1.203 0-.781.422-1.375 1.047-1.375.39 0 .64.203.781.485.172.296.172.656.172 1.062s0 .75-.156 1.047c-.219.36-.485.5-.844.5m0 0"/><path id="e" d="M2.25-1.625c.125-.125.453-.39.594-.5.484-.453.953-.89.953-1.61 0-.953-.797-1.562-1.781-1.562-.97 0-1.594.719-1.594 1.438 0 .39.312.437.422.437.172 0 .422-.11.422-.422 0-.406-.407-.406-.5-.406.234-.594.765-.781 1.156-.781.734 0 1.125.625 1.125 1.297 0 .828-.578 1.437-1.531 2.39l-1 1.047C.422-.219.422-.203.422 0h3.14l.235-1.422h-.25c-.016.156-.078.547-.172.703-.047.063-.656.063-.781.063H1.172Zm0 0"/><path id="g" d="M3.89-2.547c0-.844-.078-1.36-.343-1.875-.344-.703-1-.875-1.438-.875-1 0-1.375.75-1.484.969C.344-3.75.328-2.953.328-2.547c0 .531.016 1.328.406 1.969.36.594.954.75 1.375.75.391 0 1.063-.125 1.47-.906.296-.578.312-1.297.312-1.813M2.11-.062c-.266 0-.813-.125-.985-.954-.094-.453-.094-1.203-.094-1.625 0-.546 0-1.109.094-1.546.172-.813.781-.891.984-.891.266 0 .829.14.985.86.094.437.094 1.046.094 1.577 0 .47 0 1.188-.094 1.641-.172.828-.719.938-.985.938m0 0"/><path id="c" d="M1.625-.437a.463.463 0 0 0-.453-.454.447.447 0 0 0-.438.438.44.44 0 0 0 .438.453.45.45 0 0 0 .453-.437m0 0"/><path id="f" d="M1.484-.125c0 .516-.109.984-.593 1.469-.032.031-.047.047-.047.078 0 .062.062.11.11.11.093 0 .765-.626.765-1.563 0-.5-.203-.86-.547-.86a.436.436 0 0 0-.438.438c0 .234.157.453.438.453.203 0 .312-.11.312-.125m0 0"/><path id="h" d="M1.625-1.984a.453.453 0 0 0-.453-.453A.437.437 0 0 0 .734-2a.45.45 0 0 0 .438.453c.25 0 .453-.219.453-.437m0 0"/><path id="i" d="M1.016-3.328c.203.062.406.078.609.078.14 0 .469 0 .844-.203.11-.063.469-.313.469-.438 0-.078-.047-.093-.079-.093-.015 0-.015 0-.093.03a2.5 2.5 0 0 1-.907.173c-.296 0-.609-.063-.89-.156q-.07-.047-.094-.047c-.094 0-.094.078-.094.172v1.796c0 .094 0 .172.11.172.062 0 .078-.031.109-.078.156-.187.422-.39.89-.39.735 0 .735.89.735 1.078 0 .234-.016.578-.219.828a.95.95 0 0 1-.719.312C1.281-.094.86-.312.72-.672c.297 0 .328-.234.328-.297a.304.304 0 0 0-.313-.312.303.303 0 0 0-.296.328C.438-.406.953.125 1.703.125c.828 0 1.516-.578 1.516-1.328A1.3 1.3 0 0 0 1.89-2.5c-.375 0-.688.125-.875.281Zm0 0"/><path id="j" d="M.969-1.984c.015-.297.031-.797.234-1.157.266-.468.656-.64 1.016-.64.14 0 .422.015.562.187-.219.047-.265.188-.265.297 0 .156.109.281.297.281.171 0 .28-.109.28-.296 0-.376-.265-.672-.874-.672-.938 0-1.844.812-1.844 2.093 0 1.454.672 2.016 1.469 2.016.234 0 .64-.031 1-.39.203-.188.422-.422.422-.954 0-.203-.016-.593-.375-.922-.22-.203-.485-.406-.985-.406-.422 0-.734.219-.937.563m.875 1.89C1-.094 1-1.125 1-1.359c0-.5.328-1 .875-1 .313 0 .484.125.625.312.172.235.172.516.172.828 0 .407-.016.61-.219.86-.14.172-.328.265-.61.265m0 0"/></defs><path fill="none" stroke="#7F7F7F" stroke-linecap="round" stroke-miterlimit="10" stroke-width=".399" d="M26.816 86.855h1.399M26.816 83.906h1.399M26.816 81.785h1.399M26.816 80.129h1.399M26.816 78.77h1.399M26.816 77.617h1.399M26.816 76.617h1.399M26.816 75.73h1.399M26.816 74.938h1.399M26.816 69.336h1.399M26.816 66.387h1.399M26.816 64.266h1.399M26.816 62.61h1.399M26.816 61.25h1.399M26.816 60.098h1.399M26.816 59.098h1.399M26.816 58.21h1.399M26.816 57.418h1.399M26.816 51.82h1.399M26.816 48.867h1.399M26.816 46.75h1.399M26.816 45.09h1.399M26.816 43.73h1.399M26.816 42.578h1.399M26.816 41.578h1.399M26.816 40.691h1.399M26.816 39.902h1.399M26.816 34.3h1.399M26.816 31.352h1.399M26.816 29.23h1.399M26.816 27.574h1.399M26.816 26.215h1.399M26.816 25.063h1.399M26.816 24.063h1.399M26.816 23.176h1.399M26.816 22.383h1.399M26.816 16.781h1.399M26.816 13.832h1.399M26.816 11.71h1.399M26.816 10.055h1.399M26.816 8.695h1.399M26.816 7.543h1.399M26.816 6.543h1.399M26.816 5.656h1.399M26.816 4.863h1.399M84.906 86.855h1.395M84.906 83.906h1.395M84.906 81.785h1.395M84.906 80.129h1.395M84.906 78.77h1.395M84.906 77.617h1.395M84.906 76.617h1.395M84.906 75.73h1.395M84.906 74.938h1.395M84.906 69.336h1.395M84.906 66.387h1.395M84.906 64.266h1.395M84.906 62.61h1.395M84.906 61.25h1.395M84.906 60.098h1.395M84.906 59.098h1.395M84.906 58.21h1.395M84.906 57.418h1.395M84.906 51.82h1.395M84.906 48.867h1.395M84.906 46.75h1.395M84.906 45.09h1.395M84.906 43.73h1.395M84.906 42.578h1.395M84.906 41.578h1.395M84.906 40.691h1.395M84.906 39.902h1.395M84.906 34.3h1.395M84.906 31.352h1.395M84.906 29.23h1.395M84.906 27.574h1.395M84.906 26.215h1.395M84.906 25.063h1.395M84.906 24.063h1.395M84.906 23.176h1.395M84.906 22.383h1.395M84.906 16.781h1.395M84.906 13.832h1.395M84.906 11.71h1.395M84.906 10.055h1.395M84.906 8.695h1.395M84.906 7.543h1.395M84.906 6.543h1.395M84.906 5.656h1.395M84.906 4.863h1.395M28.215 93.73v-1.992M56.559 93.73v-1.992M84.906 93.73v-1.992M28.215 4.148V2.156M56.559 4.148V2.156M84.906 4.148V2.156M26.219 91.738h1.996M26.219 74.219h1.996M26.219 56.703h1.996M26.219 39.184h1.996M26.219 21.664h1.996M26.219 4.148h1.996M84.906 91.738h1.992M84.906 74.219h1.992M84.906 56.703h1.992M84.906 39.184h1.992M84.906 21.664h1.992M84.906 4.148h1.992"/><path fill="none" stroke="#7F7F7F" stroke-miterlimit="10" stroke-width=".399" d="M28.215 91.738h56.691M28.215 4.148h56.691M28.215 91.738V4.148M84.906 91.738V4.148"/><path fill="none" stroke="#000" stroke-miterlimit="10" stroke-width=".399" d="m26.805 93.148 2.816-2.82m-2.816 0 2.816 2.82M83.496 5.555l2.82-2.817m-2.82 0 2.82 2.817"/><use xlink:href="#a" x="26.096" y="101.522"/><use xlink:href="#b" x="46.914" y="101.522"/><use xlink:href="#a" x="51.149" y="101.522"/><use xlink:href="#c" x="55.382" y="101.522"/><use xlink:href="#d" x="57.735" y="101.522"/><use xlink:href="#e" x="61.97" y="101.522"/><use xlink:href="#a" x="75.261" y="101.522"/><use xlink:href="#f" x="79.495" y="101.522"/><use xlink:href="#g" x="81.848" y="101.522"/><use xlink:href="#g" x="86.083" y="101.522"/><use xlink:href="#g" x="90.317" y="101.522"/><use xlink:href="#a" x="15.096" y="94.306"/><use xlink:href="#g" x="19.331" y="94.306"/><use xlink:href="#a" x="10.862" y="76.788"/><use xlink:href="#g" x="15.097" y="76.788"/><use xlink:href="#g" x="19.331" y="76.788"/><use xlink:href="#a" x="4.275" y="58.495"/><use xlink:href="#f" x="8.51" y="58.495"/><use xlink:href="#g" x="10.862" y="58.495"/><use xlink:href="#g" x="15.097" y="58.495"/><use xlink:href="#g" x="19.331" y="58.495"/><use xlink:href="#a" x=".041" y="40.977"/><use xlink:href="#g" x="4.276" y="40.977"/><use xlink:href="#f" x="8.51" y="40.977"/><use xlink:href="#g" x="10.862" y="40.977"/><use xlink:href="#g" x="15.097" y="40.977"/><use xlink:href="#g" x="19.331" y="40.977"/><use xlink:href="#a" x=".595" y="24.998"/><use xlink:href="#h" x="6.711" y="24.998"/><use xlink:href="#a" x="10.945" y="24.998"/><use xlink:href="#g" x="15.18" y="24.998"/><use xlink:href="#i" x="19.413" y="22.185"/><use xlink:href="#a" x=".595" y="7.48"/><use xlink:href="#h" x="6.711" y="7.48"/><use xlink:href="#a" x="10.945" y="7.48"/><use xlink:href="#g" x="15.18" y="7.48"/><use xlink:href="#j" x="19.413" y="4.667"/></svg>