<?xml version="1.0" encoding="UTF-8"?>
<svg xmlns="http://www.w3.org/2000/svg" xmlns:xlink="http://www.w3.org/1999/xlink" width="87.058pt" height="7.202pt" viewBox="0 0 87.058 7.202" version="1.2">
<defs>
<clipPath id="clip1">
  <path d="M 0 0 L 86.585938 0 L 86.585938 6.804688 L 0 6.804688 Z M 0 0 "/>
</clipPath>
</defs>
<g id="surface1">
<g clip-path="url(#clip1)" clip-rule="nonzero">
<path style="fill:none;stroke-width:0.3985;stroke-linecap:butt;stroke-linejoin:miter;stroke:rgb(0%,0%,0%);stroke-opacity:1;stroke-miterlimit:10;" d="M 0.0010625 -0.00003125 C 0.708094 -0.00003125 1.063563 1.132781 1.770594 1.132781 C 2.286219 1.132781 2.727625 0.582 3.188563 -0.00003125 C 3.6495 -0.582062 4.094813 -1.132844 4.606531 -1.132844 C 5.11825 -1.132844 5.559656 -0.582062 6.0245 -0.00003125 C 6.485438 0.582 6.926844 1.132781 7.442469 1.132781 C 7.954188 1.132781 8.395594 0.582 8.856531 -0.00003125 C 9.321375 -0.582062 9.762781 -1.132844 10.2745 -1.132844 C 10.790125 -1.132844 11.231531 -0.582062 11.692469 -0.00003125 C 12.153406 0.582 12.598719 1.132781 13.110438 1.132781 C 13.622156 1.132781 14.067469 0.582 14.528406 -0.00003125 C 14.989344 -0.582062 15.43075 -1.132844 15.946375 -1.132844 C 16.458094 -1.132844 16.8995 -0.582062 17.360438 -0.00003125 C 17.825281 0.582 18.266688 1.132781 18.778406 1.132781 C 19.294031 1.132781 19.735438 0.582 20.196375 -0.00003125 C 20.657313 -0.582062 21.102625 -1.132844 21.614344 -1.132844 C 22.126063 -1.132844 22.571375 -0.582062 23.032313 -0.00003125 C 23.49325 0.582 23.934656 1.132781 24.450281 1.132781 C 24.962 1.132781 25.403406 0.582 25.864344 -0.00003125 C 26.329188 -0.582062 26.770594 -1.132844 27.282313 -1.132844 C 27.797938 -1.132844 28.239344 -0.582062 28.700281 -0.00003125 C 29.161219 0.582 29.606531 1.132781 30.11825 1.132781 C 30.629969 1.132781 31.075281 0.582 31.536219 -0.00003125 C 31.997156 -0.582062 32.438563 -1.132844 32.954188 -1.132844 C 33.465906 -1.132844 33.907313 -0.582062 34.36825 -0.00003125 C 34.833094 0.582 35.2745 1.132781 35.786219 1.132781 C 36.301844 1.132781 36.74325 0.582 37.204188 -0.00003125 C 37.665125 -0.582062 38.110438 -1.132844 38.622156 -1.132844 C 39.133875 -1.132844 39.579188 -0.582062 40.040125 -0.00003125 C 40.501063 0.582 40.942469 1.132781 41.458094 1.132781 C 41.969813 1.132781 42.411219 0.582 42.876063 -0.00003125 C 43.337 -0.582062 43.778406 -1.132844 44.290125 -1.132844 C 44.80575 -1.132844 45.247156 -0.582062 45.708094 -0.00003125 C 46.169031 0.582 46.614344 1.132781 47.126063 1.132781 C 47.637781 1.132781 48.083094 0.582 48.544031 -0.00003125 C 49.004969 -0.582062 49.446375 -1.132844 49.962 -1.132844 C 50.473719 -1.132844 50.915125 -0.582062 51.379969 -0.00003125 C 51.840906 0.582 52.282313 1.132781 52.794031 1.132781 C 53.309656 1.132781 53.751063 0.582 54.212 -0.00003125 C 54.672938 -0.582062 55.11825 -1.132844 55.629969 -1.132844 C 56.141688 -1.132844 56.587 -0.582062 57.047938 -0.00003125 C 57.508875 0.582 57.950281 1.132781 58.465906 1.132781 C 58.977625 1.132781 59.419031 0.582 59.883875 -0.00003125 C 60.344813 -0.582062 60.786219 -1.132844 61.297938 -1.132844 C 61.813563 -1.132844 62.254969 -0.582062 62.715906 -0.00003125 C 63.176844 0.582 63.622156 1.132781 64.133875 1.132781 C 64.645594 1.132781 65.090906 0.582 65.551844 -0.00003125 C 66.012781 -0.582062 66.454188 -1.132844 66.969813 -1.132844 C 67.481531 -1.132844 67.922938 -0.582062 68.387781 -0.00003125 C 68.848719 0.582 69.290125 1.132781 69.801844 1.132781 C 70.317469 1.132781 70.758875 0.582 71.219813 -0.00003125 C 71.68075 -0.582062 72.126063 -1.132844 72.637781 -1.132844 C 73.1495 -1.132844 73.594813 -0.582062 74.05575 -0.00003125 C 74.516688 0.582 74.958094 1.132781 75.473719 1.132781 C 75.985438 1.132781 76.426844 0.582 76.891688 -0.00003125 C 77.352625 -0.582062 77.794031 -1.132844 78.30575 -1.132844 C 79.016688 -1.132844 79.372156 -0.00003125 80.079188 -0.00003125 L 84.641688 -0.00003125 " transform="matrix(1,0,0,-1,0.538,3.207)"/>
</g>
<path style="fill:none;stroke-width:0.3985;stroke-linecap:round;stroke-linejoin:round;stroke:rgb(0%,0%,0%);stroke-opacity:1;stroke-miterlimit:10;" d="M -2.070576 2.390594 C -1.695576 0.957 -0.851826 0.277313 -0.00026375 -0.00003125 C -0.851826 -0.277375 -1.695576 -0.957062 -2.070576 -2.390656 " transform="matrix(1,0,0,-1,85.37917,3.207)"/>
</g>
</svg>
