<svg xmlns="http://www.w3.org/2000/svg" xmlns:xlink="http://www.w3.org/1999/xlink" width="50.195" height="36.848"><defs><path id="b" d="M7.5-1.86c0-.952-.844-1.624-2.031-1.702 1.078-.204 1.718-.797 1.718-1.563 0-.922-.875-1.719-2.468-1.719H.39v.469h1.078v5.906H.39V0h4.625C6.672 0 7.5-.875 7.5-1.86M5.766-5.124c0 .766-.47 1.39-1.438 1.39H2.766v-2.64h1.812c1.016 0 1.188.797 1.188 1.25m.28 3.266c0 .109 0 1.39-1.437 1.39H2.766v-2.906h1.937c.203 0 .672 0 1.016.422.328.422.328.984.328 1.094m0 0"/><path id="c" d="M6.125 0v-.469c-.61 0-.687 0-.687-.39v-3.625l-1.813.078v.468c.61 0 .688 0 .688.391v1.906c0 .813-.516 1.344-1.235 1.344-.781 0-.812-.25-.812-.797v-3.39l-1.813.078v.468c.61 0 .688 0 .688.391v2.328c0 1.063.797 1.282 1.797 1.282.25 0 .968 0 1.421-.782v.782Zm0 0"/><path id="d" d="M9.328 0v-.469h-.687v-2.578c0-1.031-.516-1.437-1.547-1.437-.907 0-1.422.5-1.688.953-.187-.922-1.11-.953-1.484-.953-.875 0-1.438.453-1.766 1.078v-1.078l-1.703.078v.468c.61 0 .688 0 .688.391v3.078H.453V0l1.25-.031L2.953 0v-.469h-.687v-2.078c0-1.094.875-1.578 1.5-1.578.328 0 .547.203.547.969V-.47h-.688V0l1.266-.031L6.14 0v-.469h-.688v-2.078c0-1.094.86-1.578 1.484-1.578.344 0 .563.203.563.969V-.47h-.687V0l1.25-.031Zm0 0"/><path id="e" d="M5.984-2.219c0-1.328-.906-2.265-2.343-2.265-.75 0-1.282.312-1.5.484v-.484l-1.766.078v.468c.61 0 .688 0 .688.376v5.03H.375v.47l1.25-.032 1.25.032v-.47h-.687V-.39a2 2 0 0 0 1.28.454c1.5 0 2.516-.907 2.516-2.282m-1.28 0C4.703-.813 4-.297 3.358-.297c-.14 0-.609 0-1.062-.547-.11-.125-.11-.14-.11-.328v-2.11c0-.187.016-.202.157-.343.39-.406.922-.469 1.14-.469.657 0 1.22.61 1.22 1.875m0 0"/><path id="f" d="M5.781-3.953v-.469A13 13 0 0 1 5-4.39l-.906-.03v.468s.468 0 .468.11L4.5-3.72 3.36-1.266 2.093-3.953h.531v-.469l-1.234.031-1.125-.03v.468H.89L2.766 0 2.53.484C2.312.954 2 1.641 1.281 1.641c-.14 0-.156-.016-.234-.047.094-.032.312-.172.312-.532C1.36.734 1.125.5.781.5a.553.553 0 0 0-.562.578c0 .5.469.922 1.062.922.766 0 1.344-.625 1.625-1.187l2.14-4.563c.063-.14.095-.203.735-.203m0 0"/><clipPath id="a"><path d="M0 0h49.793v36.773H0Zm0 0"/></clipPath></defs><path fill="#FCC" d="M3.297 33.066a2.48 2.48 0 0 0 2.492 2.489c1.379 0 2.488-1.242 2.488-2.489a2.48 2.48 0 0 0 2.493 2.489c1.382 0 2.488-1.242 2.488-2.489a2.48 2.48 0 0 0 2.492 2.489c1.383 0 2.492-1.242 2.492-2.489a2.477 2.477 0 0 0 2.488 2.489c1.383 0 2.493-1.242 2.493-2.489a2.48 2.48 0 0 0 2.488 2.489c1.383 0 2.492-1.242 2.492-2.489a2.48 2.48 0 0 0 2.492 2.489c1.383 0 2.489-1.242 2.489-2.489a2.48 2.48 0 0 0 2.492 2.489c1.383 0 2.492-1.242 2.492-2.489a2.477 2.477 0 0 0 2.488 2.489c1.383 0 2.492-1.242 2.492-2.489a2.48 2.48 0 0 0 2.489 2.489c1.383 0 2.492-1.242 2.492-2.489-.652-2.039.453-3.144.453-4.527s-1.246-2.492-2.488-2.492a2.48 2.48 0 0 0 2.488-2.488c0-1.383-1.246-2.493-2.488-2.493a2.48 2.48 0 0 0 2.488-2.492c0-1.383-1.246-2.488-2.488-2.488a2.48 2.48 0 0 0 2.488-2.492c0-1.383-1.246-2.492-2.488-2.492a2.477 2.477 0 0 0 2.488-2.489c0-1.383-1.246-2.492-2.488-2.492a2.48 2.48 0 0 0 2.488-2.488c0-1.383-1.246-2.492-2.488-2.492-3.578 2.195-4.688 1.086-6.07 1.086S37.53 3.473 37.53 4.719a2.48 2.48 0 0 0-2.488-2.492c-1.383 0-2.492 1.246-2.492 2.492a2.48 2.48 0 0 0-2.489-2.492c-1.382 0-2.492 1.246-2.492 2.492a2.484 2.484 0 0 0-2.492-2.492c-1.379 0-2.488 1.246-2.488 2.492a2.484 2.484 0 0 0-2.492-2.492c-1.383 0-2.489 1.246-2.489 2.492a2.484 2.484 0 0 0-2.492-2.492c-1.383 0-2.492 1.246-2.492 2.492a2.48 2.48 0 0 0-2.488-2.492c-1.383 0-2.492 1.246-2.492 2.492a2.484 2.484 0 0 0-2.493-2.492c-1.379 0-2.488 1.246-2.488 2.492-.75.633-1.86 1.742-1.86 3.125s1.247 2.488 2.493 2.488a2.484 2.484 0 0 0-2.492 2.492c0 1.383 1.246 2.489 2.492 2.489a2.484 2.484 0 0 0-2.492 2.492c0 1.383 1.246 2.492 2.492 2.492a2.48 2.48 0 0 0-2.492 2.488c0 1.383 1.246 2.492 2.492 2.492A2.484 2.484 0 0 0 .805 27.77c0 1.378 1.246 2.488 2.492 2.488Zm0 0"/><g clip-path="url(#a)"><path fill="none" stroke="#000" stroke-miterlimit="10" stroke-width=".399" d="M3.297 33.066a2.48 2.48 0 0 0 2.492 2.489c1.379 0 2.488-1.242 2.488-2.489a2.48 2.48 0 0 0 2.493 2.489c1.382 0 2.488-1.242 2.488-2.489a2.48 2.48 0 0 0 2.492 2.489c1.383 0 2.492-1.242 2.492-2.489a2.477 2.477 0 0 0 2.488 2.489c1.383 0 2.493-1.242 2.493-2.489a2.48 2.48 0 0 0 2.488 2.489c1.383 0 2.492-1.242 2.492-2.489a2.48 2.48 0 0 0 2.492 2.489c1.383 0 2.489-1.242 2.489-2.489a2.48 2.48 0 0 0 2.492 2.489c1.383 0 2.492-1.242 2.492-2.489a2.477 2.477 0 0 0 2.488 2.489c1.383 0 2.492-1.242 2.492-2.489a2.48 2.48 0 0 0 2.489 2.489c1.383 0 2.492-1.242 2.492-2.489-.652-2.039.453-3.144.453-4.527s-1.246-2.492-2.488-2.492a2.48 2.48 0 0 0 2.488-2.488c0-1.383-1.246-2.493-2.488-2.493a2.48 2.48 0 0 0 2.488-2.492c0-1.383-1.246-2.488-2.488-2.488a2.48 2.48 0 0 0 2.488-2.492c0-1.383-1.246-2.492-2.488-2.492a2.477 2.477 0 0 0 2.488-2.489c0-1.383-1.246-2.492-2.488-2.492a2.48 2.48 0 0 0 2.488-2.488c0-1.383-1.246-2.492-2.488-2.492-3.578 2.195-4.688 1.086-6.07 1.086S37.53 3.473 37.53 4.719a2.48 2.48 0 0 0-2.488-2.492c-1.383 0-2.492 1.246-2.492 2.492a2.48 2.48 0 0 0-2.489-2.492c-1.382 0-2.492 1.246-2.492 2.492a2.484 2.484 0 0 0-2.492-2.492c-1.379 0-2.488 1.246-2.488 2.492a2.484 2.484 0 0 0-2.492-2.492c-1.383 0-2.489 1.246-2.489 2.492a2.484 2.484 0 0 0-2.492-2.492c-1.383 0-2.492 1.246-2.492 2.492a2.48 2.48 0 0 0-2.488-2.492c-1.383 0-2.492 1.246-2.492 2.492a2.484 2.484 0 0 0-2.493-2.492c-1.379 0-2.488 1.246-2.488 2.492-.75.633-1.86 1.742-1.86 3.125s1.247 2.488 2.493 2.488a2.484 2.484 0 0 0-2.492 2.492c0 1.383 1.246 2.489 2.492 2.489a2.484 2.484 0 0 0-2.492 2.492c0 1.383 1.246 2.492 2.492 2.492a2.48 2.48 0 0 0-2.492 2.488c0 1.383 1.246 2.492 2.492 2.492A2.484 2.484 0 0 0 .805 27.77c0 1.378 1.246 2.488 2.492 2.488Zm0 0"/></g><use xlink:href="#b" x="6.617" y="21.313"/><use xlink:href="#c" x="14.766" y="21.313"/><use xlink:href="#d" x="21.132" y="21.313"/><use xlink:href="#e" x="30.676" y="21.313"/><use xlink:href="#f" x="36.724" y="21.313"/></svg>