<svg xmlns="http://www.w3.org/2000/svg" xmlns:xlink="http://www.w3.org/1999/xlink" width="286.616" height="42.014"><defs><clipPath id="d"><path d="M72.25 10.55h141.73v19.927H72.25Zm0 0"/></clipPath><clipPath id="b"><path d="M0 0h12v12H0Zm0 0"/></clipPath><clipPath id="a"><path d="M0 0h12v12H0z"/></clipPath><clipPath id="f"><path d="M72.25 29H74v1.477h-1.75Zm0 0"/></clipPath><clipPath id="g"><path d="M74 29h3v1.477h-3Zm0 0"/></clipPath><clipPath id="h"><path d="M77 29h3v1.477h-3Zm0 0"/></clipPath><clipPath id="i"><path d="M80 29h3v1.477h-3Zm0 0"/></clipPath><clipPath id="j"><path d="M83 29h3v1.477h-3Zm0 0"/></clipPath><clipPath id="k"><path d="M86 29h3v1.477h-3Zm0 0"/></clipPath><clipPath id="l"><path d="M89 29h3v1.477h-3Zm0 0"/></clipPath><clipPath id="m"><path d="M92 29h3v1.477h-3Zm0 0"/></clipPath><clipPath id="n"><path d="M95 29h3v1.477h-3Zm0 0"/></clipPath><clipPath id="o"><path d="M98 29h3v1.477h-3Zm0 0"/></clipPath><clipPath id="p"><path d="M101 29h3v1.477h-3Zm0 0"/></clipPath><clipPath id="q"><path d="M104 29h3v1.477h-3Zm0 0"/></clipPath><clipPath id="r"><path d="M107 29h3v1.477h-3Zm0 0"/></clipPath><clipPath id="s"><path d="M110 29h3v1.477h-3Zm0 0"/></clipPath><clipPath id="t"><path d="M113 29h1.77v1.477H113Zm0 0"/></clipPath><clipPath id="u"><path d="M72.25 26H74v3h-1.75Zm0 0"/></clipPath><clipPath id="v"><path d="M113 26h1.77v3H113Zm0 0"/></clipPath><clipPath id="w"><path d="M72.25 23H74v3h-1.75Zm0 0"/></clipPath><clipPath id="x"><path d="M113 23h1.77v3H113Zm0 0"/></clipPath><clipPath id="y"><path d="M72.25 20H74v3h-1.75Zm0 0"/></clipPath><clipPath id="z"><path d="M113 20h1.77v3H113Zm0 0"/></clipPath><clipPath id="A"><path d="M72.25 17H74v3h-1.75Zm0 0"/></clipPath><clipPath id="B"><path d="M113 17h1.77v3H113Zm0 0"/></clipPath><clipPath id="C"><path d="M72.25 14H74v3h-1.75Zm0 0"/></clipPath><clipPath id="D"><path d="M113 14h1.77v3H113Zm0 0"/></clipPath><clipPath id="E"><path d="M72.25 11H74v3h-1.75Zm0 0"/></clipPath><clipPath id="F"><path d="M113 11h1.77v3H113Zm0 0"/></clipPath><clipPath id="G"><path d="M72.25 10.55H74V11h-1.75Zm0 0"/></clipPath><clipPath id="H"><path d="M74 10.55h3V11h-3Zm0 0"/></clipPath><clipPath id="I"><path d="M77 10.55h3V11h-3Zm0 0"/></clipPath><clipPath id="J"><path d="M80 10.55h3V11h-3Zm0 0"/></clipPath><clipPath id="K"><path d="M83 10.55h3V11h-3Zm0 0"/></clipPath><clipPath id="L"><path d="M86 10.55h3V11h-3Zm0 0"/></clipPath><clipPath id="M"><path d="M89 10.55h3V11h-3Zm0 0"/></clipPath><clipPath id="N"><path d="M92 10.55h3V11h-3Zm0 0"/></clipPath><clipPath id="O"><path d="M95 10.55h3V11h-3Zm0 0"/></clipPath><clipPath id="P"><path d="M98 10.55h3V11h-3Zm0 0"/></clipPath><clipPath id="Q"><path d="M101 10.55h3V11h-3Zm0 0"/></clipPath><clipPath id="R"><path d="M104 10.55h3V11h-3Zm0 0"/></clipPath><clipPath id="S"><path d="M107 10.55h3V11h-3Zm0 0"/></clipPath><clipPath id="T"><path d="M110 10.55h3V11h-3Zm0 0"/></clipPath><clipPath id="U"><path d="M113 10.55h1.77V11H113Zm0 0"/></clipPath><clipPath id="V"><path d="M121.855 29H122v1.477h-.145Zm0 0"/></clipPath><clipPath id="W"><path d="M122 29h3v1.477h-3Zm0 0"/></clipPath><clipPath id="X"><path d="M125 29h3v1.477h-3Zm0 0"/></clipPath><clipPath id="Y"><path d="M128 29h2.992v1.477H128Zm0 0"/></clipPath><clipPath id="Z"><path d="M130.496 29h3.484v1.477h-3.484Zm0 0"/></clipPath><clipPath id="aa"><path d="M133.484 29h3.485v1.477h-3.485Zm0 0"/></clipPath><clipPath id="ab"><path d="M136.473 29h3.484v1.477h-3.484Zm0 0"/></clipPath><clipPath id="ac"><path d="M139.46 29h3.49v1.477h-3.49Zm0 0"/></clipPath><clipPath id="ad"><path d="M142.45 29h3.488v1.477h-3.489Zm0 0"/></clipPath><clipPath id="ae"><path d="M145.438 29h3.488v1.477h-3.488Zm0 0"/></clipPath><clipPath id="af"><path d="M148.426 29h3.488v1.477h-3.488Zm0 0"/></clipPath><clipPath id="ag"><path d="M151.414 29h3.488v1.477h-3.488Zm0 0"/></clipPath><clipPath id="ah"><path d="M154.406 29h3.485v1.477h-3.485Zm0 0"/></clipPath><clipPath id="ai"><path d="M157.395 29h3.484v1.477h-3.484Zm0 0"/></clipPath><clipPath id="aj"><path d="M160.383 29h3.488v1.477h-3.488Zm0 0"/></clipPath><clipPath id="ak"><path d="M163.371 29h1.008v1.477h-1.008Zm0 0"/></clipPath><clipPath id="al"><path d="M121.855 26H122v3h-.145Zm0 0"/></clipPath><clipPath id="am"><path d="M128 26h2.992v3H128Zm0 0"/></clipPath><clipPath id="an"><path d="M130.496 26h3.484v3h-3.484Zm0 0"/></clipPath><clipPath id="ao"><path d="M133.484 26h3.485v3h-3.485Zm0 0"/></clipPath><clipPath id="ap"><path d="M136.473 26h3.484v3h-3.484Zm0 0"/></clipPath><clipPath id="aq"><path d="M139.46 26h3.49v3h-3.49Zm0 0"/></clipPath><clipPath id="ar"><path d="M142.45 26h3.488v3h-3.489Zm0 0"/></clipPath><clipPath id="as"><path d="M145.438 26h3.488v3h-3.488Zm0 0"/></clipPath><clipPath id="at"><path d="M148.426 26h3.488v3h-3.488Zm0 0"/></clipPath><clipPath id="au"><path d="M151.414 26h3.488v3h-3.488Zm0 0"/></clipPath><clipPath id="av"><path d="M154.406 26h3.485v3h-3.485Zm0 0"/></clipPath><clipPath id="aw"><path d="M157.395 26h3.484v3h-3.484Zm0 0"/></clipPath><clipPath id="ax"><path d="M160.383 26h3.488v3h-3.488Zm0 0"/></clipPath><clipPath id="ay"><path d="M163.371 26h1.008v3h-1.008Zm0 0"/></clipPath><clipPath id="az"><path d="M121.855 23H122v3h-.145Zm0 0"/></clipPath><clipPath id="aA"><path d="M128 23h2.992v3H128Zm0 0"/></clipPath><clipPath id="aB"><path d="M130.496 23h3.484v3h-3.484Zm0 0"/></clipPath><clipPath id="aC"><path d="M133.484 23h3.485v3h-3.485Zm0 0"/></clipPath><clipPath id="aD"><path d="M136.473 23h3.484v3h-3.484Zm0 0"/></clipPath><clipPath id="aE"><path d="M139.46 23h3.49v3h-3.49Zm0 0"/></clipPath><clipPath id="aF"><path d="M142.45 23h3.488v3h-3.489Zm0 0"/></clipPath><clipPath id="aG"><path d="M145.438 23h3.488v3h-3.488Zm0 0"/></clipPath><clipPath id="aH"><path d="M148.426 23h3.488v3h-3.488Zm0 0"/></clipPath><clipPath id="aI"><path d="M151.414 23h3.488v3h-3.488Zm0 0"/></clipPath><clipPath id="aJ"><path d="M154.406 23h3.485v3h-3.485Zm0 0"/></clipPath><clipPath id="aK"><path d="M157.395 23h3.484v3h-3.484Zm0 0"/></clipPath><clipPath id="aL"><path d="M160.383 23h3.488v3h-3.488Zm0 0"/></clipPath><clipPath id="aM"><path d="M163.371 23h1.008v3h-1.008Zm0 0"/></clipPath><clipPath id="aN"><path d="M121.855 20H122v3h-.145Zm0 0"/></clipPath><clipPath id="aO"><path d="M128 20h2.992v3H128Zm0 0"/></clipPath><clipPath id="aP"><path d="M130.496 20h3.484v3h-3.484Zm0 0"/></clipPath><clipPath id="aQ"><path d="M133.484 20h3.485v3h-3.485Zm0 0"/></clipPath><clipPath id="aR"><path d="M136.473 20h3.484v3h-3.484Zm0 0"/></clipPath><clipPath id="aS"><path d="M139.46 20h3.49v3h-3.49Zm0 0"/></clipPath><clipPath id="aT"><path d="M142.45 20h3.488v3h-3.489Zm0 0"/></clipPath><clipPath id="aU"><path d="M145.438 20h3.488v3h-3.488Zm0 0"/></clipPath><clipPath id="aV"><path d="M148.426 20h3.488v3h-3.488Zm0 0"/></clipPath><clipPath id="aW"><path d="M151.414 20h3.488v3h-3.488Zm0 0"/></clipPath><clipPath id="aX"><path d="M154.406 20h3.485v3h-3.485Zm0 0"/></clipPath><clipPath id="aY"><path d="M157.395 20h3.484v3h-3.484Zm0 0"/></clipPath><clipPath id="aZ"><path d="M160.383 20h3.488v3h-3.488Zm0 0"/></clipPath><clipPath id="ba"><path d="M163.371 20h1.008v3h-1.008Zm0 0"/></clipPath><clipPath id="bb"><path d="M121.855 17H122v3h-.145Zm0 0"/></clipPath><clipPath id="bc"><path d="M128 17h2.992v3H128Zm0 0"/></clipPath><clipPath id="bd"><path d="M130.496 17h3.484v3h-3.484Zm0 0"/></clipPath><clipPath id="be"><path d="M133.484 17h3.485v3h-3.485Zm0 0"/></clipPath><clipPath id="bf"><path d="M136.473 17h3.484v3h-3.484Zm0 0"/></clipPath><clipPath id="bg"><path d="M139.46 17h3.49v3h-3.49Zm0 0"/></clipPath><clipPath id="bh"><path d="M142.45 17h3.488v3h-3.489Zm0 0"/></clipPath><clipPath id="bi"><path d="M145.438 17h3.488v3h-3.488Zm0 0"/></clipPath><clipPath id="bj"><path d="M148.426 17h3.488v3h-3.488Zm0 0"/></clipPath><clipPath id="bk"><path d="M151.414 17h3.488v3h-3.488Zm0 0"/></clipPath><clipPath id="bl"><path d="M154.406 17h3.485v3h-3.485Zm0 0"/></clipPath><clipPath id="bm"><path d="M157.395 17h3.484v3h-3.484Zm0 0"/></clipPath><clipPath id="bn"><path d="M160.383 17h3.488v3h-3.488Zm0 0"/></clipPath><clipPath id="bo"><path d="M163.371 17h1.008v3h-1.008Zm0 0"/></clipPath><clipPath id="bp"><path d="M121.855 14H122v3h-.145Zm0 0"/></clipPath><clipPath id="bq"><path d="M128 14h2.992v3H128Zm0 0"/></clipPath><clipPath id="br"><path d="M130.496 14h3.484v3h-3.484Zm0 0"/></clipPath><clipPath id="bs"><path d="M133.484 14h3.485v3h-3.485Zm0 0"/></clipPath><clipPath id="bt"><path d="M136.473 14h3.484v3h-3.484Zm0 0"/></clipPath><clipPath id="bu"><path d="M139.46 14h3.49v3h-3.49Zm0 0"/></clipPath><clipPath id="bv"><path d="M142.45 14h3.488v3h-3.489Zm0 0"/></clipPath><clipPath id="bw"><path d="M145.438 14h3.488v3h-3.488Zm0 0"/></clipPath><clipPath id="bx"><path d="M148.426 14h3.488v3h-3.488Zm0 0"/></clipPath><clipPath id="by"><path d="M151.414 14h3.488v3h-3.488Zm0 0"/></clipPath><clipPath id="bz"><path d="M154.406 14h3.485v3h-3.485Zm0 0"/></clipPath><clipPath id="bA"><path d="M157.395 14h3.484v3h-3.484Zm0 0"/></clipPath><clipPath id="bB"><path d="M160.383 14h3.488v3h-3.488Zm0 0"/></clipPath><clipPath id="bC"><path d="M163.371 14h1.008v3h-1.008Zm0 0"/></clipPath><clipPath id="bD"><path d="M121.855 11H122v3h-.145Zm0 0"/></clipPath><clipPath id="bE"><path d="M128 11h2.992v3H128Zm0 0"/></clipPath><clipPath id="bF"><path d="M130.496 11h3.484v3h-3.484Zm0 0"/></clipPath><clipPath id="bG"><path d="M133.484 11h3.485v3h-3.485Zm0 0"/></clipPath><clipPath id="bH"><path d="M136.473 11h3.484v3h-3.484Zm0 0"/></clipPath><clipPath id="bI"><path d="M139.46 11h3.49v3h-3.49Zm0 0"/></clipPath><clipPath id="bJ"><path d="M142.45 11h3.488v3h-3.489Zm0 0"/></clipPath><clipPath id="bK"><path d="M145.438 11h3.488v3h-3.488Zm0 0"/></clipPath><clipPath id="bL"><path d="M148.426 11h3.488v3h-3.488Zm0 0"/></clipPath><clipPath id="bM"><path d="M151.414 11h3.488v3h-3.488Zm0 0"/></clipPath><clipPath id="bN"><path d="M154.406 11h3.485v3h-3.485Zm0 0"/></clipPath><clipPath id="bO"><path d="M157.395 11h3.484v3h-3.484Zm0 0"/></clipPath><clipPath id="bP"><path d="M160.383 11h3.488v3h-3.488Zm0 0"/></clipPath><clipPath id="bQ"><path d="M163.371 11h1.008v3h-1.008Zm0 0"/></clipPath><clipPath id="bR"><path d="M121.855 10.55H122V11h-.145Zm0 0"/></clipPath><clipPath id="bS"><path d="M122 10.55h3V11h-3Zm0 0"/></clipPath><clipPath id="bT"><path d="M125 10.55h3V11h-3Zm0 0"/></clipPath><clipPath id="bU"><path d="M128 10.55h2.992V11H128Zm0 0"/></clipPath><clipPath id="bV"><path d="M130.496 10.55h3.484V11h-3.484Zm0 0"/></clipPath><clipPath id="bW"><path d="M133.484 10.55h3.485V11h-3.485Zm0 0"/></clipPath><clipPath id="bX"><path d="M136.473 10.55h3.484V11h-3.484Zm0 0"/></clipPath><clipPath id="bY"><path d="M139.46 10.55h3.49V11h-3.49Zm0 0"/></clipPath><clipPath id="bZ"><path d="M142.45 10.55h3.488V11h-3.489Zm0 0"/></clipPath><clipPath id="ca"><path d="M145.438 10.55h3.488V11h-3.488Zm0 0"/></clipPath><clipPath id="cb"><path d="M148.426 10.55h3.488V11h-3.488Zm0 0"/></clipPath><clipPath id="cc"><path d="M151.414 10.55h3.488V11h-3.488Zm0 0"/></clipPath><clipPath id="cd"><path d="M154.406 10.55h3.485V11h-3.485Zm0 0"/></clipPath><clipPath id="ce"><path d="M157.395 10.55h3.484V11h-3.484Zm0 0"/></clipPath><clipPath id="cf"><path d="M160.383 10.55h3.488V11h-3.488Zm0 0"/></clipPath><clipPath id="cg"><path d="M163.371 10.55h1.008V11h-1.008Zm0 0"/></clipPath><clipPath id="ch"><path d="M171.465 29h1.37v1.477h-1.37Zm0 0"/></clipPath><clipPath id="ci"><path d="M172.336 29h3.488v1.477h-3.488Zm0 0"/></clipPath><clipPath id="cj"><path d="M175.328 29h3.484v1.477h-3.484Zm0 0"/></clipPath><clipPath id="ck"><path d="M178.316 29h3.485v1.477h-3.485Zm0 0"/></clipPath><clipPath id="cl"><path d="M181.305 29h3.488v1.477h-3.488Zm0 0"/></clipPath><clipPath id="cm"><path d="M184.293 29h3.488v1.477h-3.488Zm0 0"/></clipPath><clipPath id="cn"><path d="M187.281 29h3.489v1.477h-3.489Zm0 0"/></clipPath><clipPath id="co"><path d="M190.27 29h3.488v1.477h-3.488Zm0 0"/></clipPath><clipPath id="cp"><path d="M193.258 29h3.488v1.477h-3.488Zm0 0"/></clipPath><clipPath id="cq"><path d="M196.25 29h3.484v1.477h-3.484Zm0 0"/></clipPath><clipPath id="cr"><path d="M199.238 29h3.485v1.477h-3.485Zm0 0"/></clipPath><clipPath id="cs"><path d="M202.227 29h3.488v1.477h-3.488Zm0 0"/></clipPath><clipPath id="ct"><path d="M205.215 29h3.488v1.477h-3.488Zm0 0"/></clipPath><clipPath id="cu"><path d="M208.203 29h3.488v1.477h-3.488Zm0 0"/></clipPath><clipPath id="cv"><path d="M211.191 29h2.793v1.477h-2.793Zm0 0"/></clipPath><clipPath id="cw"><path d="M171.465 26h1.37v3h-1.37Zm0 0"/></clipPath><clipPath id="cx"><path d="M172.336 26h3.488v3h-3.488Zm0 0"/></clipPath><clipPath id="cy"><path d="M175.328 26h3.484v3h-3.484Zm0 0"/></clipPath><clipPath id="cz"><path d="M178.316 26h3.485v3h-3.485Zm0 0"/></clipPath><clipPath id="cA"><path d="M181.305 26h3.488v3h-3.488Zm0 0"/></clipPath><clipPath id="cB"><path d="M184.293 26h3.488v3h-3.488Zm0 0"/></clipPath><clipPath id="cC"><path d="M187.281 26h3.489v3h-3.489Zm0 0"/></clipPath><clipPath id="cD"><path d="M190.27 26h3.488v3h-3.488Zm0 0"/></clipPath><clipPath id="cE"><path d="M193.258 26h3.488v3h-3.488Zm0 0"/></clipPath><clipPath id="cF"><path d="M196.25 26h3.484v3h-3.484Zm0 0"/></clipPath><clipPath id="cG"><path d="M199.238 26h3.485v3h-3.485Zm0 0"/></clipPath><clipPath id="cH"><path d="M202.227 26h3.488v3h-3.488Zm0 0"/></clipPath><clipPath id="cI"><path d="M205.215 26h3.488v3h-3.488Zm0 0"/></clipPath><clipPath id="cJ"><path d="M208.203 26h3.488v3h-3.488Zm0 0"/></clipPath><clipPath id="cK"><path d="M211.191 26h2.793v3h-2.793Zm0 0"/></clipPath><clipPath id="cL"><path d="M171.465 23h1.37v3h-1.37Zm0 0"/></clipPath><clipPath id="cM"><path d="M172.336 23h3.488v3h-3.488Zm0 0"/></clipPath><clipPath id="cN"><path d="M175.328 23h3.484v3h-3.484Zm0 0"/></clipPath><clipPath id="cO"><path d="M178.316 23h3.485v3h-3.485Zm0 0"/></clipPath><clipPath id="cP"><path d="M181.305 23h3.488v3h-3.488Zm0 0"/></clipPath><clipPath id="cQ"><path d="M184.293 23h3.488v3h-3.488Zm0 0"/></clipPath><clipPath id="cR"><path d="M187.281 23h3.489v3h-3.489Zm0 0"/></clipPath><clipPath id="cS"><path d="M190.27 23h3.488v3h-3.488Zm0 0"/></clipPath><clipPath id="cT"><path d="M193.258 23h3.488v3h-3.488Zm0 0"/></clipPath><clipPath id="cU"><path d="M196.25 23h3.484v3h-3.484Zm0 0"/></clipPath><clipPath id="cV"><path d="M199.238 23h3.485v3h-3.485Zm0 0"/></clipPath><clipPath id="cW"><path d="M202.227 23h3.488v3h-3.488Zm0 0"/></clipPath><clipPath id="cX"><path d="M205.215 23h3.488v3h-3.488Zm0 0"/></clipPath><clipPath id="cY"><path d="M208.203 23h3.488v3h-3.488Zm0 0"/></clipPath><clipPath id="cZ"><path d="M211.191 23h2.793v3h-2.793Zm0 0"/></clipPath><clipPath id="da"><path d="M171.465 20h1.37v3h-1.37Zm0 0"/></clipPath><clipPath id="db"><path d="M172.336 20h3.488v3h-3.488Zm0 0"/></clipPath><clipPath id="dc"><path d="M175.328 20h3.484v3h-3.484Zm0 0"/></clipPath><clipPath id="dd"><path d="M178.316 20h3.485v3h-3.485Zm0 0"/></clipPath><clipPath id="de"><path d="M181.305 20h3.488v3h-3.488Zm0 0"/></clipPath><clipPath id="df"><path d="M184.293 20h3.488v3h-3.488Zm0 0"/></clipPath><clipPath id="dg"><path d="M187.281 20h3.489v3h-3.489Zm0 0"/></clipPath><clipPath id="dh"><path d="M190.27 20h3.488v3h-3.488Zm0 0"/></clipPath><clipPath id="di"><path d="M193.258 20h3.488v3h-3.488Zm0 0"/></clipPath><clipPath id="dj"><path d="M196.25 20h3.484v3h-3.484Zm0 0"/></clipPath><clipPath id="dk"><path d="M199.238 20h3.485v3h-3.485Zm0 0"/></clipPath><clipPath id="dl"><path d="M202.227 20h3.488v3h-3.488Zm0 0"/></clipPath><clipPath id="dm"><path d="M205.215 20h3.488v3h-3.488Zm0 0"/></clipPath><clipPath id="dn"><path d="M208.203 20h3.488v3h-3.488Zm0 0"/></clipPath><clipPath id="do"><path d="M211.191 20h2.793v3h-2.793Zm0 0"/></clipPath><clipPath id="dp"><path d="M171.465 17h1.37v3h-1.37Zm0 0"/></clipPath><clipPath id="dq"><path d="M172.336 17h3.488v3h-3.488Zm0 0"/></clipPath><clipPath id="dr"><path d="M175.328 17h3.484v3h-3.484Zm0 0"/></clipPath><clipPath id="ds"><path d="M178.316 17h3.485v3h-3.485Zm0 0"/></clipPath><clipPath id="dt"><path d="M181.305 17h3.488v3h-3.488Zm0 0"/></clipPath><clipPath id="du"><path d="M184.293 17h3.488v3h-3.488Zm0 0"/></clipPath><clipPath id="dv"><path d="M187.281 17h3.489v3h-3.489Zm0 0"/></clipPath><clipPath id="dw"><path d="M190.27 17h3.488v3h-3.488Zm0 0"/></clipPath><clipPath id="dx"><path d="M193.258 17h3.488v3h-3.488Zm0 0"/></clipPath><clipPath id="dy"><path d="M196.25 17h3.484v3h-3.484Zm0 0"/></clipPath><clipPath id="dz"><path d="M199.238 17h3.485v3h-3.485Zm0 0"/></clipPath><clipPath id="dA"><path d="M202.227 17h3.488v3h-3.488Zm0 0"/></clipPath><clipPath id="dB"><path d="M205.215 17h3.488v3h-3.488Zm0 0"/></clipPath><clipPath id="dC"><path d="M208.203 17h3.488v3h-3.488Zm0 0"/></clipPath><clipPath id="dD"><path d="M211.191 17h2.793v3h-2.793Zm0 0"/></clipPath><clipPath id="dE"><path d="M171.465 14h1.37v3h-1.37Zm0 0"/></clipPath><clipPath id="dF"><path d="M172.336 14h3.488v3h-3.488Zm0 0"/></clipPath><clipPath id="dG"><path d="M175.328 14h3.484v3h-3.484Zm0 0"/></clipPath><clipPath id="dH"><path d="M178.316 14h3.485v3h-3.485Zm0 0"/></clipPath><clipPath id="dI"><path d="M181.305 14h3.488v3h-3.488Zm0 0"/></clipPath><clipPath id="dJ"><path d="M184.293 14h3.488v3h-3.488Zm0 0"/></clipPath><clipPath id="dK"><path d="M187.281 14h3.489v3h-3.489Zm0 0"/></clipPath><clipPath id="dL"><path d="M190.27 14h3.488v3h-3.488Zm0 0"/></clipPath><clipPath id="dM"><path d="M193.258 14h3.488v3h-3.488Zm0 0"/></clipPath><clipPath id="dN"><path d="M196.25 14h3.484v3h-3.484Zm0 0"/></clipPath><clipPath id="dO"><path d="M199.238 14h3.485v3h-3.485Zm0 0"/></clipPath><clipPath id="dP"><path d="M202.227 14h3.488v3h-3.488Zm0 0"/></clipPath><clipPath id="dQ"><path d="M205.215 14h3.488v3h-3.488Zm0 0"/></clipPath><clipPath id="dR"><path d="M208.203 14h3.488v3h-3.488Zm0 0"/></clipPath><clipPath id="dS"><path d="M211.191 14h2.793v3h-2.793Zm0 0"/></clipPath><clipPath id="dT"><path d="M171.465 11h1.37v3h-1.37Zm0 0"/></clipPath><clipPath id="dU"><path d="M172.336 11h3.488v3h-3.488Zm0 0"/></clipPath><clipPath id="dV"><path d="M175.328 11h3.484v3h-3.484Zm0 0"/></clipPath><clipPath id="dW"><path d="M178.316 11h3.485v3h-3.485Zm0 0"/></clipPath><clipPath id="dX"><path d="M181.305 11h3.488v3h-3.488Zm0 0"/></clipPath><clipPath id="dY"><path d="M184.293 11h3.488v3h-3.488Zm0 0"/></clipPath><clipPath id="dZ"><path d="M187.281 11h3.489v3h-3.489Zm0 0"/></clipPath><clipPath id="ea"><path d="M190.27 11h3.488v3h-3.488Zm0 0"/></clipPath><clipPath id="eb"><path d="M193.258 11h3.488v3h-3.488Zm0 0"/></clipPath><clipPath id="ec"><path d="M196.25 11h3.484v3h-3.484Zm0 0"/></clipPath><clipPath id="ed"><path d="M199.238 11h3.485v3h-3.485Zm0 0"/></clipPath><clipPath id="ee"><path d="M202.227 11h3.488v3h-3.488Zm0 0"/></clipPath><clipPath id="ef"><path d="M205.215 11h3.488v3h-3.488Zm0 0"/></clipPath><clipPath id="eg"><path d="M208.203 11h3.488v3h-3.488Zm0 0"/></clipPath><clipPath id="eh"><path d="M211.191 11h2.793v3h-2.793Zm0 0"/></clipPath><clipPath id="ei"><path d="M171.465 10.55h1.37V11h-1.37Zm0 0"/></clipPath><clipPath id="ej"><path d="M172.336 10.55h3.488V11h-3.488Zm0 0"/></clipPath><clipPath id="ek"><path d="M175.328 10.55h3.484V11h-3.484Zm0 0"/></clipPath><clipPath id="el"><path d="M178.316 10.55h3.485V11h-3.485Zm0 0"/></clipPath><clipPath id="em"><path d="M181.305 10.55h3.488V11h-3.488Zm0 0"/></clipPath><clipPath id="en"><path d="M184.293 10.55h3.488V11h-3.488Zm0 0"/></clipPath><clipPath id="eo"><path d="M187.281 10.55h3.489V11h-3.489Zm0 0"/></clipPath><clipPath id="ep"><path d="M190.27 10.55h3.488V11h-3.488Zm0 0"/></clipPath><clipPath id="eq"><path d="M193.258 10.55h3.488V11h-3.488Zm0 0"/></clipPath><clipPath id="er"><path d="M196.25 10.55h3.484V11h-3.484Zm0 0"/></clipPath><clipPath id="es"><path d="M199.238 10.55h3.485V11h-3.485Zm0 0"/></clipPath><clipPath id="et"><path d="M202.227 10.55h3.488V11h-3.488Zm0 0"/></clipPath><clipPath id="eu"><path d="M205.215 10.55h3.488V11h-3.488Zm0 0"/></clipPath><clipPath id="ev"><path d="M208.203 10.55h3.488V11h-3.488Zm0 0"/></clipPath><clipPath id="ew"><path d="M211.191 10.55h2.793V11h-2.793Zm0 0"/></clipPath><pattern id="e" width="12" height="12" x="0" y="0" patternTransform="matrix(.9449 0 0 -.9449 -71.75 13618.551)" patternUnits="userSpaceOnUse"><use xlink:href="#c"/></pattern><g id="c" clip-path="url(#a)"><g clip-path="url(#b)"><path d="M9.202 14358.558H446v64.029H9.202z"/></g><path fill="#CCC" d="M0 0h6v6H0Zm6 6h6v6H6Zm0 0"/></g></defs><g clip-path="url(#d)"><path fill="url(#e)" d="M72.25 30.477h141.73V10.55H72.25Zm0 0"/></g><g clip-path="url(#f)"><path d="M72.21 31.328a.498.498 0 1 0-.997.003.498.498 0 0 0 .998-.003m1.497-1.492a.498.498 0 1 0-.997-.003.498.498 0 0 0 .997.003m0 0"/></g><g clip-path="url(#g)"><path d="M75.2 31.328a.498.498 0 1 0-.997.003.498.498 0 0 0 .996-.003m1.495-1.492a.498.498 0 1 0-.997-.003.498.498 0 0 0 .997.003m0 0"/></g><g clip-path="url(#h)"><path d="M78.191 31.328a.5.5 0 0 0-.5-.496.498.498 0 1 0 .5.496m1.493-1.492a.498.498 0 1 0-.996-.005.498.498 0 0 0 .996.005m0 0"/></g><g clip-path="url(#i)"><path d="M81.18 31.328a.498.498 0 1 0-.996.003.498.498 0 0 0 .996-.003m1.492-1.492a.498.498 0 1 0-.995-.005.498.498 0 0 0 .995.005m0 0"/></g><g clip-path="url(#j)"><path d="M84.168 31.328a.498.498 0 1 0-.995.003.498.498 0 0 0 .995-.003m1.492-1.492a.498.498 0 1 0-.995-.005.498.498 0 0 0 .995.005m0 0"/></g><g clip-path="url(#k)"><path d="M87.156 31.328a.498.498 0 1 0-.995.003.498.498 0 0 0 .995-.003m1.496-1.492a.501.501 0 0 0-1 0 .5.5 0 0 0 1 0m0 0"/></g><g clip-path="url(#l)"><path d="M90.145 31.328a.498.498 0 1 0-.997.003.498.498 0 0 0 .997-.003m1.496-1.492a.498.498 0 1 0-.997-.003.498.498 0 0 0 .997.003m0 0"/></g><g clip-path="url(#m)"><path d="M93.133 31.328a.498.498 0 1 0-.997.003.498.498 0 0 0 .997-.003m1.496-1.492a.498.498 0 1 0-.997-.003.498.498 0 0 0 .997.003m0 0"/></g><g clip-path="url(#n)"><path d="M96.121 31.328a.498.498 0 1 0-.997.003.498.498 0 0 0 .997-.003m1.496-1.492a.498.498 0 1 0-.997-.003.498.498 0 0 0 .997.003m0 0"/></g><g clip-path="url(#o)"><path d="M99.113 31.328a.5.5 0 0 0-1 0 .501.501 0 0 0 1 0m1.492-1.492a.498.498 0 1 0-.995-.005.498.498 0 0 0 .995.005m0 0"/></g><g clip-path="url(#p)"><path d="M102.102 31.328a.498.498 0 1 0-.996.003.498.498 0 0 0 .996-.003m1.492-1.492a.498.498 0 1 0-.996-.005.498.498 0 0 0 .996.005m0 0"/></g><g clip-path="url(#q)"><path d="M105.09 31.328a.498.498 0 1 0-.995.003.498.498 0 0 0 .995-.003m1.492-1.492a.498.498 0 1 0-.995-.005.498.498 0 0 0 .995.005m0 0"/></g><g clip-path="url(#r)"><path d="M108.078 31.328a.498.498 0 1 0-.995.003.498.498 0 0 0 .995-.003m1.496-1.492a.501.501 0 0 0-1 0 .5.5 0 0 0 1 0m0 0"/></g><g clip-path="url(#s)"><path d="M111.066 31.328a.498.498 0 1 0-.997.003.498.498 0 0 0 .997-.003m1.496-1.492a.498.498 0 1 0-.996-.003.498.498 0 0 0 .996.003m0 0"/></g><g clip-path="url(#t)"><path d="M114.055 31.328a.498.498 0 1 0-.997.003.498.498 0 0 0 .997-.003m1.496-1.492a.498.498 0 1 0-.997-.003.498.498 0 0 0 .997.003m0 0"/></g><g clip-path="url(#u)"><path d="M72.21 28.34a.498.498 0 1 0-.997.003.498.498 0 0 0 .998-.003m1.497-1.492a.498.498 0 1 0-.997-.003.498.498 0 0 0 .997.003m0 0"/></g><path d="M75.2 28.34a.498.498 0 1 0-.997.003.498.498 0 0 0 .996-.003m1.495-1.492a.498.498 0 1 0-.997-.003.498.498 0 0 0 .997.003M78.191 28.34a.5.5 0 0 0-.5-.496.498.498 0 1 0 .5.496m1.493-1.492a.498.498 0 1 0-.996-.005.498.498 0 0 0 .996.005M81.18 28.34a.498.498 0 1 0-.996.003.498.498 0 0 0 .996-.003m1.492-1.492a.498.498 0 1 0-.995-.005.498.498 0 0 0 .995.005M84.168 28.34a.498.498 0 1 0-.995.003.498.498 0 0 0 .995-.003m1.492-1.492a.498.498 0 1 0-.995-.005.498.498 0 0 0 .995.005M87.156 28.34a.498.498 0 1 0-.995.003.498.498 0 0 0 .995-.003m1.496-1.492a.501.501 0 0 0-1 0 .5.5 0 0 0 1 0M90.145 28.34a.498.498 0 1 0-.997.003.498.498 0 0 0 .997-.003m1.496-1.492a.498.498 0 1 0-.997-.003.498.498 0 0 0 .997.003M93.133 28.34a.498.498 0 1 0-.997.003.498.498 0 0 0 .997-.003m1.496-1.492a.498.498 0 1 0-.997-.003.498.498 0 0 0 .997.003M96.121 28.34a.498.498 0 1 0-.997.003.498.498 0 0 0 .997-.003m1.496-1.492a.498.498 0 1 0-.997-.003.498.498 0 0 0 .997.003M99.113 28.34a.5.5 0 0 0-1 0 .501.501 0 0 0 1 0m1.492-1.492a.498.498 0 1 0-.995-.005.498.498 0 0 0 .995.005M102.102 28.34a.498.498 0 1 0-.996.003.498.498 0 0 0 .996-.003m1.492-1.492a.498.498 0 1 0-.996-.005.498.498 0 0 0 .996.005M105.09 28.34a.498.498 0 1 0-.995.003.498.498 0 0 0 .995-.003m1.492-1.492a.498.498 0 1 0-.995-.005.498.498 0 0 0 .995.005M108.078 28.34a.498.498 0 1 0-.995.003.498.498 0 0 0 .995-.003m1.496-1.492a.501.501 0 0 0-1 0 .5.5 0 0 0 1 0M111.066 28.34a.498.498 0 1 0-.997.003.498.498 0 0 0 .997-.003m1.496-1.492a.498.498 0 1 0-.996-.003.498.498 0 0 0 .996.003m0 0"/><g clip-path="url(#v)"><path d="M114.055 28.34a.498.498 0 1 0-.997.003.498.498 0 0 0 .997-.003m1.496-1.492a.498.498 0 1 0-.997-.003.498.498 0 0 0 .997.003m0 0"/></g><g clip-path="url(#w)"><path d="M72.21 25.352a.498.498 0 1 0-.997.003.498.498 0 0 0 .998-.003m1.497-1.493a.498.498 0 1 0-.997-.003.498.498 0 0 0 .997.003m0 0"/></g><path d="M75.2 25.352a.498.498 0 1 0-.997.003.498.498 0 0 0 .996-.003m1.495-1.493a.498.498 0 1 0-.997-.003.498.498 0 0 0 .997.003M78.191 25.352a.5.5 0 0 0-.5-.497.498.498 0 1 0 .5.496m1.493-1.493a.498.498 0 1 0-.996-.004.498.498 0 0 0 .996.004M81.18 25.352a.498.498 0 1 0-.996.003.498.498 0 0 0 .996-.003m1.492-1.493a.498.498 0 1 0-.995-.004.498.498 0 0 0 .995.004M84.168 25.352a.498.498 0 1 0-.995.003.498.498 0 0 0 .995-.003m1.492-1.493a.498.498 0 1 0-.995-.004.498.498 0 0 0 .995.004M87.156 25.352a.498.498 0 1 0-.995.003.498.498 0 0 0 .995-.003m1.496-1.493a.501.501 0 0 0-1 0 .5.5 0 0 0 1 0M90.145 25.352a.498.498 0 1 0-.997.003.498.498 0 0 0 .997-.003m1.496-1.493a.498.498 0 1 0-.997-.003.498.498 0 0 0 .997.003M93.133 25.352a.498.498 0 1 0-.997.003.498.498 0 0 0 .997-.003m1.496-1.493a.498.498 0 1 0-.997-.003.498.498 0 0 0 .997.003M96.121 25.352a.498.498 0 1 0-.997.003.498.498 0 0 0 .997-.003m1.496-1.493a.498.498 0 1 0-.997-.003.498.498 0 0 0 .997.003M99.113 25.352a.5.5 0 0 0-1 0 .501.501 0 0 0 1 0m1.492-1.493a.498.498 0 1 0-.995-.004.498.498 0 0 0 .995.004M102.102 25.352a.498.498 0 1 0-.996.003.498.498 0 0 0 .996-.003m1.492-1.493a.498.498 0 1 0-.996-.004.498.498 0 0 0 .996.004M105.09 25.352a.498.498 0 1 0-.995.003.498.498 0 0 0 .995-.003m1.492-1.493a.498.498 0 1 0-.995-.004.498.498 0 0 0 .995.004M108.078 25.352a.498.498 0 1 0-.995.003.498.498 0 0 0 .995-.003m1.496-1.493a.501.501 0 0 0-1 0 .5.5 0 0 0 1 0M111.066 25.352a.498.498 0 1 0-.997.003.498.498 0 0 0 .997-.003m1.496-1.493a.498.498 0 1 0-.996-.003.498.498 0 0 0 .996.003m0 0"/><g clip-path="url(#x)"><path d="M114.055 25.352a.498.498 0 1 0-.997.003.498.498 0 0 0 .997-.003m1.496-1.493a.498.498 0 1 0-.997-.003.498.498 0 0 0 .997.003m0 0"/></g><g clip-path="url(#y)"><path d="M72.21 22.363a.5.5 0 0 0-.495-.5.501.501 0 0 0 0 1 .5.5 0 0 0 .496-.5m1.497-1.496a.498.498 0 1 0-.995.003.498.498 0 0 0 .995-.003m0 0"/></g><path d="M75.2 22.363a.5.5 0 0 0-.497-.5.501.501 0 0 0 0 1 .5.5 0 0 0 .496-.5m1.495-1.496a.498.498 0 1 0-.995.003.498.498 0 0 0 .995-.003M78.191 22.363c0-.273-.226-.5-.5-.5a.5.5 0 0 0 0 1c.274 0 .5-.226.5-.5m1.493-1.496a.498.498 0 1 0-.997.003.498.498 0 0 0 .997-.003M81.18 22.363c0-.273-.223-.5-.5-.5a.5.5 0 0 0 0 1c.277 0 .5-.226.5-.5m1.492-1.496a.498.498 0 1 0-.997.003.498.498 0 0 0 .997-.003M84.168 22.363c0-.273-.223-.5-.5-.5a.5.5 0 0 0 0 1c.277 0 .5-.226.5-.5m1.492-1.496a.498.498 0 1 0-.997.003.498.498 0 0 0 .997-.003M87.156 22.363c0-.273-.222-.5-.5-.5a.5.5 0 0 0 0 1c.278 0 .5-.226.5-.5m1.496-1.496a.5.5 0 0 0-1 0 .501.501 0 0 0 1 0M90.145 22.363a.5.5 0 0 0-.497-.5.501.501 0 0 0 0 1 .5.5 0 0 0 .497-.5m1.496-1.496a.498.498 0 1 0-.996.003.498.498 0 0 0 .996-.003M93.133 22.363a.5.5 0 0 0-.496-.5.501.501 0 0 0 0 1 .5.5 0 0 0 .496-.5m1.496-1.496a.498.498 0 1 0-.995.003.498.498 0 0 0 .995-.003M96.121 22.363a.5.5 0 0 0-.496-.5.501.501 0 0 0 0 1 .5.5 0 0 0 .496-.5m1.496-1.496a.498.498 0 1 0-.995.003.498.498 0 0 0 .995-.003M99.113 22.363c0-.273-.226-.5-.5-.5-.273 0-.5.227-.5.5 0 .274.227.5.5.5.274 0 .5-.226.5-.5m1.492-1.496a.498.498 0 1 0-.997.003.498.498 0 0 0 .997-.003M102.102 22.363c0-.273-.223-.5-.5-.5a.5.5 0 0 0 0 1c.277 0 .5-.226.5-.5m1.492-1.496a.498.498 0 1 0-.997.003.498.498 0 0 0 .997-.003M105.09 22.363c0-.273-.223-.5-.5-.5a.5.5 0 0 0 0 1c.277 0 .5-.226.5-.5m1.492-1.496a.498.498 0 1 0-.997.003.498.498 0 0 0 .997-.003M108.078 22.363c0-.273-.223-.5-.5-.5a.5.5 0 0 0 0 1c.277 0 .5-.226.5-.5m1.496-1.496a.5.5 0 0 0-1 0 .501.501 0 0 0 1 0M111.066 22.363a.5.5 0 0 0-.496-.5.501.501 0 0 0 0 1 .5.5 0 0 0 .496-.5m1.496-1.496a.498.498 0 1 0-.995.003.498.498 0 0 0 .996-.003m0 0"/><g clip-path="url(#z)"><path d="M114.055 22.363a.5.5 0 0 0-.496-.5.501.501 0 0 0 0 1 .5.5 0 0 0 .496-.5m1.496-1.496a.498.498 0 1 0-.995.003.498.498 0 0 0 .995-.003m0 0"/></g><g clip-path="url(#A)"><path d="M72.21 19.375a.498.498 0 1 0-.994-.005.498.498 0 0 0 .995.005m1.497-1.496a.498.498 0 1 0-.995.003.498.498 0 0 0 .995-.003m0 0"/></g><path d="M75.2 19.375a.498.498 0 1 0-.996-.005.498.498 0 0 0 .995.005m1.495-1.496a.498.498 0 1 0-.995.003.498.498 0 0 0 .995-.003M78.191 19.375a.498.498 0 1 0-.997-.005.498.498 0 0 0 .997.005m1.493-1.496a.498.498 0 1 0-.997.003.498.498 0 0 0 .997-.003M81.18 19.375a.498.498 0 1 0-.997-.003.498.498 0 0 0 .997.003m1.492-1.496a.498.498 0 1 0-.997.003.498.498 0 0 0 .997-.003M84.168 19.375a.498.498 0 1 0-.997-.003.498.498 0 0 0 .997.003m1.492-1.496a.498.498 0 1 0-.997.003.498.498 0 0 0 .997-.003M87.156 19.375a.498.498 0 1 0-.997-.003.498.498 0 0 0 .997.003m1.496-1.496a.5.5 0 0 0-1 0 .501.501 0 0 0 1 0M90.145 19.375a.498.498 0 1 0-.996-.005.498.498 0 0 0 .996.005m1.496-1.496a.498.498 0 1 0-.996.003.498.498 0 0 0 .996-.003M93.133 19.375a.498.498 0 1 0-.995-.005.498.498 0 0 0 .995.005m1.496-1.496a.498.498 0 1 0-.995.003.498.498 0 0 0 .995-.003M96.121 19.375a.498.498 0 1 0-.995-.005.498.498 0 0 0 .995.005m1.496-1.496a.498.498 0 1 0-.995.003.498.498 0 0 0 .995-.003M99.113 19.375a.501.501 0 0 0-1 0 .5.5 0 0 0 1 0m1.492-1.496a.498.498 0 1 0-.997.003.498.498 0 0 0 .997-.003M102.102 19.375a.498.498 0 1 0-.997-.003.498.498 0 0 0 .997.003m1.492-1.496a.498.498 0 1 0-.997.003.498.498 0 0 0 .997-.003M105.09 19.375a.498.498 0 1 0-.997-.003.498.498 0 0 0 .997.003m1.492-1.496a.498.498 0 1 0-.997.003.498.498 0 0 0 .997-.003M108.078 19.375a.498.498 0 1 0-.997-.003.498.498 0 0 0 .997.003m1.496-1.496a.5.5 0 0 0-1 0 .501.501 0 0 0 1 0M111.066 19.375a.498.498 0 1 0-.995-.005.498.498 0 0 0 .995.005m1.496-1.496a.498.498 0 1 0-.995.003.498.498 0 0 0 .996-.003m0 0"/><g clip-path="url(#B)"><path d="M114.055 19.375a.498.498 0 1 0-.996-.005.498.498 0 0 0 .996.005m1.496-1.496a.498.498 0 1 0-.995.003.498.498 0 0 0 .995-.003m0 0"/></g><g clip-path="url(#C)"><path d="M72.21 16.387a.498.498 0 1 0-.994-.005.498.498 0 0 0 .995.005m1.497-1.496a.498.498 0 1 0-.995.003.498.498 0 0 0 .995-.003m0 0"/></g><path d="M75.2 16.387a.498.498 0 1 0-.996-.005.498.498 0 0 0 .995.005m1.495-1.496a.498.498 0 1 0-.995.003.498.498 0 0 0 .995-.003M78.191 16.387a.498.498 0 1 0-.997-.005.498.498 0 0 0 .997.005m1.493-1.496a.498.498 0 1 0-.997.003.498.498 0 0 0 .997-.003M81.18 16.387a.498.498 0 1 0-.997-.003.498.498 0 0 0 .997.003m1.492-1.496a.498.498 0 1 0-.997.003.498.498 0 0 0 .997-.003M84.168 16.387a.498.498 0 1 0-.997-.003.498.498 0 0 0 .997.003m1.492-1.496a.498.498 0 1 0-.997.003.498.498 0 0 0 .997-.003M87.156 16.387a.498.498 0 1 0-.997-.003.498.498 0 0 0 .997.003m1.496-1.496a.5.5 0 0 0-1 0 .501.501 0 0 0 1 0M90.145 16.387a.498.498 0 1 0-.996-.005.498.498 0 0 0 .996.005m1.496-1.496a.498.498 0 1 0-.996.003.498.498 0 0 0 .996-.003M93.133 16.387a.498.498 0 1 0-.995-.005.498.498 0 0 0 .995.005m1.496-1.496a.498.498 0 1 0-.995.003.498.498 0 0 0 .995-.003M96.121 16.387a.498.498 0 1 0-.995-.005.498.498 0 0 0 .995.005m1.496-1.496a.498.498 0 1 0-.995.003.498.498 0 0 0 .995-.003M99.113 16.387a.501.501 0 0 0-1 0 .5.5 0 0 0 1 0m1.492-1.496a.498.498 0 1 0-.997.003.498.498 0 0 0 .997-.003M102.102 16.387a.498.498 0 1 0-.997-.003.498.498 0 0 0 .997.003m1.492-1.496a.498.498 0 1 0-.997.003.498.498 0 0 0 .997-.003M105.09 16.387a.498.498 0 1 0-.997-.003.498.498 0 0 0 .997.003m1.492-1.496a.498.498 0 1 0-.997.003.498.498 0 0 0 .997-.003M108.078 16.387a.498.498 0 1 0-.997-.003.498.498 0 0 0 .997.003m1.496-1.496a.5.5 0 0 0-1 0 .501.501 0 0 0 1 0M111.066 16.387a.498.498 0 1 0-.995-.005.498.498 0 0 0 .995.005m1.496-1.496a.498.498 0 1 0-.995.003.498.498 0 0 0 .996-.003m0 0"/><g clip-path="url(#D)"><path d="M114.055 16.387a.498.498 0 1 0-.996-.005.498.498 0 0 0 .996.005m1.496-1.496a.498.498 0 1 0-.995.003.498.498 0 0 0 .995-.003m0 0"/></g><g clip-path="url(#E)"><path d="M72.21 13.398a.498.498 0 1 0-.994-.004.498.498 0 0 0 .995.004m1.497-1.496c0-.273-.223-.5-.5-.5a.5.5 0 0 0 0 1c.277 0 .5-.226.5-.5m0 0"/></g><path d="M75.2 13.398a.498.498 0 1 0-.996-.004.498.498 0 0 0 .995.004m1.495-1.496c0-.273-.222-.5-.5-.5a.5.5 0 0 0 0 1c.278 0 .5-.226.5-.5M78.191 13.398a.498.498 0 1 0-.997-.005.498.498 0 0 0 .997.005m1.493-1.496a.5.5 0 0 0-.496-.5.501.501 0 0 0 0 1 .5.5 0 0 0 .496-.5M81.18 13.398a.498.498 0 1 0-.997-.003.498.498 0 0 0 .997.003m1.492-1.496a.5.5 0 0 0-.496-.5.501.501 0 0 0 0 1 .5.5 0 0 0 .496-.5M84.168 13.398a.498.498 0 1 0-.997-.003.498.498 0 0 0 .997.003m1.492-1.496a.5.5 0 0 0-.496-.5.501.501 0 0 0 0 1 .5.5 0 0 0 .496-.5M87.156 13.398a.498.498 0 1 0-.997-.003.498.498 0 0 0 .997.003m1.496-1.496c0-.273-.226-.5-.5-.5-.273 0-.5.227-.5.5 0 .274.227.5.5.5.274 0 .5-.226.5-.5M90.145 13.398a.498.498 0 1 0-.996-.004.498.498 0 0 0 .996.004m1.496-1.496c0-.273-.223-.5-.5-.5a.5.5 0 0 0 0 1c.277 0 .5-.226.5-.5M93.133 13.398a.498.498 0 1 0-.995-.004.498.498 0 0 0 .995.004m1.496-1.496c0-.273-.223-.5-.5-.5a.5.5 0 0 0 0 1c.277 0 .5-.226.5-.5M96.121 13.398a.498.498 0 1 0-.995-.004.498.498 0 0 0 .995.004m1.496-1.496c0-.273-.222-.5-.5-.5a.5.5 0 0 0 0 1c.278 0 .5-.226.5-.5M99.113 13.398a.501.501 0 0 0-1 0 .5.5 0 0 0 1 0m1.492-1.496a.5.5 0 0 0-.496-.5.501.501 0 0 0 0 1 .5.5 0 0 0 .496-.5M102.102 13.398a.498.498 0 1 0-.997-.003.498.498 0 0 0 .997.003m1.492-1.496a.5.5 0 0 0-.496-.5.501.501 0 0 0 0 1 .5.5 0 0 0 .496-.5M105.09 13.398a.498.498 0 1 0-.997-.003.498.498 0 0 0 .997.003m1.492-1.496a.5.5 0 0 0-.496-.5.501.501 0 0 0 0 1 .5.5 0 0 0 .496-.5M108.078 13.398a.498.498 0 1 0-.997-.003.498.498 0 0 0 .997.003m1.496-1.496c0-.273-.226-.5-.5-.5-.273 0-.5.227-.5.5 0 .274.227.5.5.5.274 0 .5-.226.5-.5M111.066 13.398a.498.498 0 1 0-.995-.004.498.498 0 0 0 .995.004m1.496-1.496c0-.273-.222-.5-.5-.5a.5.5 0 0 0 0 1c.278 0 .5-.226.5-.5m0 0"/><g clip-path="url(#F)"><path d="M114.055 13.398a.498.498 0 1 0-.996-.004.498.498 0 0 0 .996.004m1.496-1.496c0-.273-.223-.5-.5-.5a.5.5 0 0 0 0 1c.277 0 .5-.226.5-.5m0 0"/></g><g clip-path="url(#G)"><path d="M72.21 10.406a.498.498 0 1 0-.997.003.498.498 0 0 0 .998-.003m1.497-1.492a.498.498 0 1 0-.997-.003.498.498 0 0 0 .997.003m0 0"/></g><g clip-path="url(#H)"><path d="M75.2 10.406a.498.498 0 1 0-.997.003.498.498 0 0 0 .996-.003m1.495-1.492a.498.498 0 1 0-.997-.003.498.498 0 0 0 .997.003m0 0"/></g><g clip-path="url(#I)"><path d="M78.191 10.406a.5.5 0 0 0-.5-.496.498.498 0 1 0 .5.496m1.493-1.492a.498.498 0 1 0-.996-.005.498.498 0 0 0 .996.005m0 0"/></g><g clip-path="url(#J)"><path d="M81.18 10.406a.498.498 0 1 0-.996.003.498.498 0 0 0 .996-.003m1.492-1.492a.498.498 0 1 0-.995-.005.498.498 0 0 0 .995.005m0 0"/></g><g clip-path="url(#K)"><path d="M84.168 10.406a.498.498 0 1 0-.995.003.498.498 0 0 0 .995-.003m1.492-1.492a.498.498 0 1 0-.995-.005.498.498 0 0 0 .995.005m0 0"/></g><g clip-path="url(#L)"><path d="M87.156 10.406a.498.498 0 1 0-.995.003.498.498 0 0 0 .995-.003m1.496-1.492a.501.501 0 0 0-1 0 .5.5 0 0 0 1 0m0 0"/></g><g clip-path="url(#M)"><path d="M90.145 10.406a.498.498 0 1 0-.997.003.498.498 0 0 0 .997-.003m1.496-1.492a.498.498 0 1 0-.997-.003.498.498 0 0 0 .997.003m0 0"/></g><g clip-path="url(#N)"><path d="M93.133 10.406a.498.498 0 1 0-.997.003.498.498 0 0 0 .997-.003m1.496-1.492a.498.498 0 1 0-.997-.003.498.498 0 0 0 .997.003m0 0"/></g><g clip-path="url(#O)"><path d="M96.121 10.406a.498.498 0 1 0-.997.003.498.498 0 0 0 .997-.003m1.496-1.492a.498.498 0 1 0-.997-.003.498.498 0 0 0 .997.003m0 0"/></g><g clip-path="url(#P)"><path d="M99.113 10.406a.5.5 0 0 0-1 0 .501.501 0 0 0 1 0m1.492-1.492a.498.498 0 1 0-.995-.005.498.498 0 0 0 .995.005m0 0"/></g><g clip-path="url(#Q)"><path d="M102.102 10.406a.498.498 0 1 0-.996.003.498.498 0 0 0 .996-.003m1.492-1.492a.498.498 0 1 0-.996-.005.498.498 0 0 0 .996.005m0 0"/></g><g clip-path="url(#R)"><path d="M105.09 10.406a.498.498 0 1 0-.995.003.498.498 0 0 0 .995-.003m1.492-1.492a.498.498 0 1 0-.995-.005.498.498 0 0 0 .995.005m0 0"/></g><g clip-path="url(#S)"><path d="M108.078 10.406a.498.498 0 1 0-.995.003.498.498 0 0 0 .995-.003m1.496-1.492a.501.501 0 0 0-1 0 .5.5 0 0 0 1 0m0 0"/></g><g clip-path="url(#T)"><path d="M111.066 10.406a.498.498 0 1 0-.997.003.498.498 0 0 0 .997-.003m1.496-1.492a.498.498 0 1 0-.996-.003.498.498 0 0 0 .996.003m0 0"/></g><g clip-path="url(#U)"><path d="M114.055 10.406a.498.498 0 1 0-.997.003.498.498 0 0 0 .997-.003m1.496-1.492a.498.498 0 1 0-.997-.003.498.498 0 0 0 .997.003m0 0"/></g><g clip-path="url(#V)"><path fill="#00F" d="M120.035 31.328a.5.5 0 0 0-1 0 .501.501 0 0 0 1 0m1.492-1.492a.498.498 0 1 0-.995-.005.498.498 0 0 0 .995.005m0 0"/></g><g clip-path="url(#W)"><path fill="#00F" d="M123.023 31.328a.498.498 0 1 0-.995.003.498.498 0 0 0 .995-.003m1.493-1.492a.498.498 0 1 0-.996-.005.498.498 0 0 0 .996.005m0 0"/></g><g clip-path="url(#X)"><path fill="#00F" d="M126.012 31.328a.498.498 0 1 0-.996.003.498.498 0 0 0 .996-.003m1.492-1.492a.498.498 0 1 0-.995-.005.498.498 0 0 0 .995.005m0 0"/></g><g clip-path="url(#Y)"><path fill="#00F" d="M129 31.328a.498.498 0 1 0-.995.003.498.498 0 0 0 .995-.003m1.496-1.492a.501.501 0 0 0-1 0 .5.5 0 0 0 1 0m0 0"/></g><g clip-path="url(#Z)"><path fill="#00F" d="M131.988 31.328a.498.498 0 1 0-.997.003.498.498 0 0 0 .997-.003m1.496-1.492a.498.498 0 1 0-.997-.003.498.498 0 0 0 .997.003m0 0"/></g><g clip-path="url(#aa)"><path fill="#00F" d="M134.977 31.328a.498.498 0 1 0-.997.003.498.498 0 0 0 .997-.003m1.496-1.492a.498.498 0 1 0-.997-.003.498.498 0 0 0 .997.003m0 0"/></g><g clip-path="url(#ab)"><path fill="#00F" d="M137.965 31.328a.498.498 0 1 0-.997.003.498.498 0 0 0 .997-.003m1.496-1.492a.498.498 0 1 0-.997-.003.498.498 0 0 0 .997.003m0 0"/></g><g clip-path="url(#ac)"><path fill="#00F" d="M140.953 31.328a.497.497 0 0 0-.496-.496.5.5 0 0 0-.5.496.498.498 0 1 0 .996 0m1.496-1.492a.498.498 0 1 0-.995-.005.498.498 0 0 0 .995.005m0 0"/></g><g clip-path="url(#ad)"><path fill="#00F" d="M143.945 31.328a.498.498 0 1 0-.995.003.498.498 0 0 0 .995-.003m1.493-1.492a.498.498 0 1 0-.996-.005.498.498 0 0 0 .995.005m0 0"/></g><g clip-path="url(#ae)"><path fill="#00F" d="M146.934 31.328a.498.498 0 1 0-.996.003.498.498 0 0 0 .996-.003m1.492-1.492a.498.498 0 1 0-.995-.005.498.498 0 0 0 .995.005m0 0"/></g><g clip-path="url(#af)"><path fill="#00F" d="M149.922 31.328a.498.498 0 1 0-.995.003.498.498 0 0 0 .995-.003m1.492-1.492a.498.498 0 1 0-.995-.005.498.498 0 0 0 .995.005m0 0"/></g><g clip-path="url(#ag)"><path fill="#00F" d="M152.91 31.328a.498.498 0 1 0-.997.003.498.498 0 0 0 .997-.003m1.496-1.492a.498.498 0 1 0-.997-.003.498.498 0 0 0 .997.003m0 0"/></g><g clip-path="url(#ah)"><path fill="#00F" d="M155.898 31.328a.498.498 0 1 0-.997.003.498.498 0 0 0 .997-.003m1.497-1.492a.498.498 0 1 0-.997-.003.498.498 0 0 0 .997.003m0 0"/></g><g clip-path="url(#ai)"><path fill="#00F" d="M158.887 31.328a.498.498 0 1 0-.997.003.498.498 0 0 0 .997-.003m1.496-1.492a.498.498 0 1 0-.997-.003.498.498 0 0 0 .997.003m0 0"/></g><g clip-path="url(#aj)"><path fill="#00F" d="M161.875 31.328a.497.497 0 0 0-.496-.496.5.5 0 0 0-.5.496.498.498 0 1 0 .996 0m1.496-1.492a.498.498 0 1 0-.995-.005.498.498 0 0 0 .995.005m0 0"/></g><g clip-path="url(#ak)"><path fill="#00F" d="M164.867 31.328a.498.498 0 1 0-.995.003.498.498 0 0 0 .995-.003m1.492-1.492a.498.498 0 1 0-.995-.005.498.498 0 0 0 .995.005m0 0"/></g><g clip-path="url(#al)"><path fill="#00F" d="M120.035 28.34a.5.5 0 0 0-1 0 .501.501 0 0 0 1 0m1.492-1.492a.498.498 0 1 0-.995-.005.498.498 0 0 0 .995.005m0 0"/></g><path fill="#00F" d="M123.023 28.34a.498.498 0 1 0-.995.003.498.498 0 0 0 .995-.003m1.493-1.492a.498.498 0 1 0-.996-.005.498.498 0 0 0 .996.005M126.012 28.34a.498.498 0 1 0-.996.003.498.498 0 0 0 .996-.003m1.492-1.492a.498.498 0 1 0-.995-.005.498.498 0 0 0 .995.005m0 0"/><g clip-path="url(#am)"><path fill="#00F" d="M129 28.34a.498.498 0 1 0-.995.003.498.498 0 0 0 .995-.003m1.496-1.492a.501.501 0 0 0-1 0 .5.5 0 0 0 1 0m0 0"/></g><g clip-path="url(#an)"><path fill="#00F" d="M131.988 28.34a.498.498 0 1 0-.997.003.498.498 0 0 0 .997-.003m1.496-1.492a.498.498 0 1 0-.997-.003.498.498 0 0 0 .997.003m0 0"/></g><g clip-path="url(#ao)"><path fill="#00F" d="M134.977 28.34a.498.498 0 1 0-.997.003.498.498 0 0 0 .997-.003m1.496-1.492a.498.498 0 1 0-.997-.003.498.498 0 0 0 .997.003m0 0"/></g><g clip-path="url(#ap)"><path fill="#00F" d="M137.965 28.34a.498.498 0 1 0-.997.003.498.498 0 0 0 .997-.003m1.496-1.492a.498.498 0 1 0-.997-.003.498.498 0 0 0 .997.003m0 0"/></g><g clip-path="url(#aq)"><path fill="#00F" d="M140.953 28.34a.497.497 0 0 0-.496-.496.5.5 0 0 0-.5.496.498.498 0 1 0 .996 0m1.496-1.492a.498.498 0 1 0-.995-.005.498.498 0 0 0 .995.005m0 0"/></g><g clip-path="url(#ar)"><path fill="#00F" d="M143.945 28.34a.498.498 0 1 0-.995.003.498.498 0 0 0 .995-.003m1.493-1.492a.498.498 0 1 0-.996-.005.498.498 0 0 0 .995.005m0 0"/></g><g clip-path="url(#as)"><path fill="#00F" d="M146.934 28.34a.498.498 0 1 0-.996.003.498.498 0 0 0 .996-.003m1.492-1.492a.498.498 0 1 0-.995-.005.498.498 0 0 0 .995.005m0 0"/></g><g clip-path="url(#at)"><path fill="#00F" d="M149.922 28.34a.498.498 0 1 0-.995.003.498.498 0 0 0 .995-.003m1.492-1.492a.498.498 0 1 0-.995-.005.498.498 0 0 0 .995.005m0 0"/></g><g clip-path="url(#au)"><path fill="#00F" d="M152.91 28.34a.498.498 0 1 0-.997.003.498.498 0 0 0 .997-.003m1.496-1.492a.498.498 0 1 0-.997-.003.498.498 0 0 0 .997.003m0 0"/></g><g clip-path="url(#av)"><path fill="#00F" d="M155.898 28.34a.498.498 0 1 0-.997.003.498.498 0 0 0 .997-.003m1.497-1.492a.498.498 0 1 0-.997-.003.498.498 0 0 0 .997.003m0 0"/></g><g clip-path="url(#aw)"><path fill="#00F" d="M158.887 28.34a.498.498 0 1 0-.997.003.498.498 0 0 0 .997-.003m1.496-1.492a.498.498 0 1 0-.997-.003.498.498 0 0 0 .997.003m0 0"/></g><g clip-path="url(#ax)"><path fill="#00F" d="M161.875 28.34a.497.497 0 0 0-.496-.496.5.5 0 0 0-.5.496.498.498 0 1 0 .996 0m1.496-1.492a.498.498 0 1 0-.995-.005.498.498 0 0 0 .995.005m0 0"/></g><g clip-path="url(#ay)"><path fill="#00F" d="M164.867 28.34a.498.498 0 1 0-.995.003.498.498 0 0 0 .995-.003m1.492-1.492a.498.498 0 1 0-.995-.005.498.498 0 0 0 .995.005m0 0"/></g><g clip-path="url(#az)"><path fill="#00F" d="M120.035 25.352a.5.5 0 0 0-1 0 .501.501 0 0 0 1 0m1.492-1.493a.498.498 0 1 0-.995-.004.498.498 0 0 0 .995.004m0 0"/></g><path fill="#00F" d="M123.023 25.352a.498.498 0 1 0-.995.003.498.498 0 0 0 .995-.003m1.493-1.493a.498.498 0 1 0-.996-.004.498.498 0 0 0 .996.004M126.012 25.352a.498.498 0 1 0-.996.003.498.498 0 0 0 .996-.003m1.492-1.493a.498.498 0 1 0-.995-.004.498.498 0 0 0 .995.004m0 0"/><g clip-path="url(#aA)"><path fill="#00F" d="M129 25.352a.498.498 0 1 0-.995.003.498.498 0 0 0 .995-.003m1.496-1.493a.501.501 0 0 0-1 0 .5.5 0 0 0 1 0m0 0"/></g><g clip-path="url(#aB)"><path fill="#00F" d="M131.988 25.352a.498.498 0 1 0-.997.003.498.498 0 0 0 .997-.003m1.496-1.493a.498.498 0 1 0-.997-.003.498.498 0 0 0 .997.003m0 0"/></g><g clip-path="url(#aC)"><path fill="#00F" d="M134.977 25.352a.498.498 0 1 0-.997.003.498.498 0 0 0 .997-.003m1.496-1.493a.498.498 0 1 0-.997-.003.498.498 0 0 0 .997.003m0 0"/></g><g clip-path="url(#aD)"><path fill="#00F" d="M137.965 25.352a.498.498 0 1 0-.997.003.498.498 0 0 0 .997-.003m1.496-1.493a.498.498 0 1 0-.997-.003.498.498 0 0 0 .997.003m0 0"/></g><g clip-path="url(#aE)"><path fill="#00F" d="M140.953 25.352a.497.497 0 0 0-.496-.497.5.5 0 0 0-.5.497.498.498 0 1 0 .996 0m1.496-1.493a.498.498 0 1 0-.995-.004.498.498 0 0 0 .995.004m0 0"/></g><g clip-path="url(#aF)"><path fill="#00F" d="M143.945 25.352a.498.498 0 1 0-.995.003.498.498 0 0 0 .995-.003m1.493-1.493a.498.498 0 1 0-.996-.004.498.498 0 0 0 .995.004m0 0"/></g><g clip-path="url(#aG)"><path fill="#00F" d="M146.934 25.352a.498.498 0 1 0-.996.003.498.498 0 0 0 .996-.003m1.492-1.493a.498.498 0 1 0-.995-.004.498.498 0 0 0 .995.004m0 0"/></g><g clip-path="url(#aH)"><path fill="#00F" d="M149.922 25.352a.498.498 0 1 0-.995.003.498.498 0 0 0 .995-.003m1.492-1.493a.498.498 0 1 0-.995-.004.498.498 0 0 0 .995.004m0 0"/></g><g clip-path="url(#aI)"><path fill="#00F" d="M152.91 25.352a.498.498 0 1 0-.997.003.498.498 0 0 0 .997-.003m1.496-1.493a.498.498 0 1 0-.997-.003.498.498 0 0 0 .997.003m0 0"/></g><g clip-path="url(#aJ)"><path fill="#00F" d="M155.898 25.352a.498.498 0 1 0-.997.003.498.498 0 0 0 .997-.003m1.497-1.493a.498.498 0 1 0-.997-.003.498.498 0 0 0 .997.003m0 0"/></g><g clip-path="url(#aK)"><path fill="#00F" d="M158.887 25.352a.498.498 0 1 0-.997.003.498.498 0 0 0 .997-.003m1.496-1.493a.498.498 0 1 0-.997-.003.498.498 0 0 0 .997.003m0 0"/></g><g clip-path="url(#aL)"><path fill="#00F" d="M161.875 25.352a.497.497 0 0 0-.496-.497.5.5 0 0 0-.5.497.498.498 0 1 0 .996 0m1.496-1.493a.498.498 0 1 0-.995-.004.498.498 0 0 0 .995.004m0 0"/></g><g clip-path="url(#aM)"><path fill="#00F" d="M164.867 25.352a.498.498 0 1 0-.995.003.498.498 0 0 0 .995-.003m1.492-1.493a.498.498 0 1 0-.995-.004.498.498 0 0 0 .995.004m0 0"/></g><g clip-path="url(#aN)"><path fill="#00F" d="M120.035 22.363c0-.273-.226-.5-.5-.5-.273 0-.5.227-.5.5 0 .274.227.5.5.5.274 0 .5-.226.5-.5m1.492-1.496a.498.498 0 1 0-.997.003.498.498 0 0 0 .997-.003m0 0"/></g><path fill="#00F" d="M123.023 22.363c0-.273-.222-.5-.5-.5a.5.5 0 0 0 0 1c.278 0 .5-.226.5-.5m1.493-1.496a.498.498 0 1 0-.997.003.498.498 0 0 0 .997-.003M126.012 22.363c0-.273-.223-.5-.5-.5a.5.5 0 0 0 0 1c.277 0 .5-.226.5-.5m1.492-1.496a.498.498 0 1 0-.997.003.498.498 0 0 0 .997-.003m0 0"/><g clip-path="url(#aO)"><path fill="#00F" d="M129 22.363c0-.273-.223-.5-.5-.5a.5.5 0 0 0 0 1c.277 0 .5-.226.5-.5m1.496-1.496a.5.5 0 0 0-1 0 .501.501 0 0 0 1 0m0 0"/></g><g clip-path="url(#aP)"><path fill="#00F" d="M131.988 22.363a.5.5 0 0 0-.496-.5.501.501 0 0 0 0 1 .5.5 0 0 0 .496-.5m1.496-1.496a.498.498 0 1 0-.995.003.498.498 0 0 0 .995-.003m0 0"/></g><g clip-path="url(#aQ)"><path fill="#00F" d="M134.977 22.363a.5.5 0 0 0-.497-.5.501.501 0 0 0 0 1 .5.5 0 0 0 .497-.5m1.496-1.496a.498.498 0 1 0-.996.003.498.498 0 0 0 .996-.003m0 0"/></g><g clip-path="url(#aR)"><path fill="#00F" d="M137.965 22.363a.5.5 0 0 0-.496-.5.501.501 0 0 0 0 1 .5.5 0 0 0 .496-.5m1.496-1.496a.498.498 0 1 0-.995.003.498.498 0 0 0 .995-.003m0 0"/></g><g clip-path="url(#aS)"><path fill="#00F" d="M140.953 22.363a.5.5 0 0 0-.496-.5c-.273 0-.5.227-.5.5 0 .274.227.5.5.5a.5.5 0 0 0 .496-.5m1.496-1.496a.498.498 0 1 0-.997.003.498.498 0 0 0 .997-.003m0 0"/></g><g clip-path="url(#aT)"><path fill="#00F" d="M143.945 22.363c0-.273-.222-.5-.5-.5a.5.5 0 0 0 0 1c.278 0 .5-.226.5-.5m1.493-1.496a.498.498 0 1 0-.997.003.498.498 0 0 0 .996-.003m0 0"/></g><g clip-path="url(#aU)"><path fill="#00F" d="M146.934 22.363c0-.273-.223-.5-.5-.5a.5.5 0 0 0 0 1c.277 0 .5-.226.5-.5m1.492-1.496a.498.498 0 1 0-.997.003.498.498 0 0 0 .997-.003m0 0"/></g><g clip-path="url(#aV)"><path fill="#00F" d="M149.922 22.363c0-.273-.223-.5-.5-.5a.5.5 0 0 0 0 1c.277 0 .5-.226.5-.5m1.492-1.496a.497.497 0 0 0-.496-.496.5.5 0 0 0-.5.496.498.498 0 1 0 .996 0m0 0"/></g><g clip-path="url(#aW)"><path fill="#00F" d="M152.91 22.363a.5.5 0 0 0-.496-.5.501.501 0 0 0 0 1 .5.5 0 0 0 .496-.5m1.496-1.496a.498.498 0 1 0-.995.003.498.498 0 0 0 .995-.003m0 0"/></g><g clip-path="url(#aX)"><path fill="#00F" d="M155.898 22.363a.5.5 0 0 0-.496-.5.501.501 0 0 0 0 1 .5.5 0 0 0 .496-.5m1.497-1.496a.498.498 0 1 0-.996.003.498.498 0 0 0 .996-.003m0 0"/></g><g clip-path="url(#aY)"><path fill="#00F" d="M158.887 22.363a.5.5 0 0 0-.496-.5.501.501 0 0 0 0 1 .5.5 0 0 0 .496-.5m1.496-1.496a.498.498 0 1 0-.995.003.498.498 0 0 0 .995-.003m0 0"/></g><g clip-path="url(#aZ)"><path fill="#00F" d="M161.875 22.363a.5.5 0 0 0-.496-.5c-.274 0-.5.227-.5.5 0 .274.226.5.5.5a.5.5 0 0 0 .496-.5m1.496-1.496a.498.498 0 1 0-.997.003.498.498 0 0 0 .997-.003m0 0"/></g><g clip-path="url(#ba)"><path fill="#00F" d="M164.867 22.363c0-.273-.222-.5-.5-.5a.5.5 0 0 0 0 1c.278 0 .5-.226.5-.5m1.492-1.496a.498.498 0 1 0-.997.003.498.498 0 0 0 .997-.003m0 0"/></g><g clip-path="url(#bb)"><path fill="#00F" d="M120.035 19.375a.501.501 0 0 0-1 0 .5.5 0 0 0 1 0m1.492-1.496a.498.498 0 1 0-.997.003.498.498 0 0 0 .997-.003m0 0"/></g><path fill="#00F" d="M123.023 19.375a.498.498 0 1 0-.996-.003.498.498 0 0 0 .996.003m1.493-1.496a.498.498 0 1 0-.997.003.498.498 0 0 0 .997-.003M126.012 19.375a.498.498 0 1 0-.997-.003.498.498 0 0 0 .997.003m1.492-1.496a.498.498 0 1 0-.997.003.498.498 0 0 0 .997-.003m0 0"/><g clip-path="url(#bc)"><path fill="#00F" d="M129 19.375a.498.498 0 1 0-.997-.003.498.498 0 0 0 .997.003m1.496-1.496a.5.5 0 0 0-1 0 .501.501 0 0 0 1 0m0 0"/></g><g clip-path="url(#bd)"><path fill="#00F" d="M131.988 19.375a.498.498 0 1 0-.995-.005.498.498 0 0 0 .995.005m1.496-1.496a.498.498 0 1 0-.995.003.498.498 0 0 0 .995-.003m0 0"/></g><g clip-path="url(#be)"><path fill="#00F" d="M134.977 19.375a.498.498 0 1 0-.996-.005.498.498 0 0 0 .996.005m1.496-1.496a.498.498 0 1 0-.996.003.498.498 0 0 0 .996-.003m0 0"/></g><g clip-path="url(#bf)"><path fill="#00F" d="M137.965 19.375a.498.498 0 1 0-.995-.005.498.498 0 0 0 .995.005m1.496-1.496a.498.498 0 1 0-.995.003.498.498 0 0 0 .995-.003m0 0"/></g><g clip-path="url(#bg)"><path fill="#00F" d="M140.953 19.375a.498.498 0 1 0-.995-.005.498.498 0 0 0 .995.005m1.496-1.496a.498.498 0 1 0-.997.003.498.498 0 0 0 .997-.003m0 0"/></g><g clip-path="url(#bh)"><path fill="#00F" d="M143.945 19.375a.498.498 0 1 0-.997-.003.498.498 0 0 0 .997.003m1.493-1.496a.498.498 0 1 0-.997.003.498.498 0 0 0 .996-.003m0 0"/></g><g clip-path="url(#bi)"><path fill="#00F" d="M146.934 19.375a.498.498 0 1 0-.997-.003.498.498 0 0 0 .997.003m1.492-1.496a.498.498 0 1 0-.997.003.498.498 0 0 0 .997-.003m0 0"/></g><g clip-path="url(#bj)"><path fill="#00F" d="M149.922 19.375a.498.498 0 1 0-.997-.003.498.498 0 0 0 .997.003m1.492-1.496a.497.497 0 0 0-.496-.496.5.5 0 0 0-.5.496.498.498 0 1 0 .996 0m0 0"/></g><g clip-path="url(#bk)"><path fill="#00F" d="M152.91 19.375a.498.498 0 1 0-.995-.005.498.498 0 0 0 .995.005m1.496-1.496a.498.498 0 1 0-.995.003.498.498 0 0 0 .995-.003m0 0"/></g><g clip-path="url(#bl)"><path fill="#00F" d="M155.898 19.375a.498.498 0 1 0-.995-.005.498.498 0 0 0 .995.005m1.497-1.496a.498.498 0 1 0-.996.003.498.498 0 0 0 .996-.003m0 0"/></g><g clip-path="url(#bm)"><path fill="#00F" d="M158.887 19.375a.498.498 0 1 0-.996-.005.498.498 0 0 0 .996.005m1.496-1.496a.498.498 0 1 0-.995.003.498.498 0 0 0 .995-.003m0 0"/></g><g clip-path="url(#bn)"><path fill="#00F" d="M161.875 19.375a.498.498 0 1 0-.995-.005.498.498 0 0 0 .995.005m1.496-1.496a.498.498 0 1 0-.997.003.498.498 0 0 0 .997-.003m0 0"/></g><g clip-path="url(#bo)"><path fill="#00F" d="M164.867 19.375a.498.498 0 1 0-.997-.003.498.498 0 0 0 .997.003m1.492-1.496a.498.498 0 1 0-.997.003.498.498 0 0 0 .997-.003m0 0"/></g><g clip-path="url(#bp)"><path fill="#00F" d="M120.035 16.387a.501.501 0 0 0-1 0 .5.5 0 0 0 1 0m1.492-1.496a.498.498 0 1 0-.997.003.498.498 0 0 0 .997-.003m0 0"/></g><path fill="#00F" d="M123.023 16.387a.498.498 0 1 0-.996-.003.498.498 0 0 0 .996.003m1.493-1.496a.498.498 0 1 0-.997.003.498.498 0 0 0 .997-.003M126.012 16.387a.498.498 0 1 0-.997-.003.498.498 0 0 0 .997.003m1.492-1.496a.498.498 0 1 0-.997.003.498.498 0 0 0 .997-.003m0 0"/><g clip-path="url(#bq)"><path fill="#00F" d="M129 16.387a.498.498 0 1 0-.997-.003.498.498 0 0 0 .997.003m1.496-1.496a.5.5 0 0 0-1 0 .501.501 0 0 0 1 0m0 0"/></g><g clip-path="url(#br)"><path fill="#00F" d="M131.988 16.387a.498.498 0 1 0-.995-.005.498.498 0 0 0 .995.005m1.496-1.496a.498.498 0 1 0-.995.003.498.498 0 0 0 .995-.003m0 0"/></g><g clip-path="url(#bs)"><path fill="#00F" d="M134.977 16.387a.498.498 0 1 0-.996-.005.498.498 0 0 0 .996.005m1.496-1.496a.498.498 0 1 0-.996.003.498.498 0 0 0 .996-.003m0 0"/></g><g clip-path="url(#bt)"><path fill="#00F" d="M137.965 16.387a.498.498 0 1 0-.995-.005.498.498 0 0 0 .995.005m1.496-1.496a.498.498 0 1 0-.995.003.498.498 0 0 0 .995-.003m0 0"/></g><g clip-path="url(#bu)"><path fill="#00F" d="M140.953 16.387a.498.498 0 1 0-.995-.005.498.498 0 0 0 .995.005m1.496-1.496a.498.498 0 1 0-.997.003.498.498 0 0 0 .997-.003m0 0"/></g><g clip-path="url(#bv)"><path fill="#00F" d="M143.945 16.387a.498.498 0 1 0-.997-.003.498.498 0 0 0 .997.003m1.493-1.496a.498.498 0 1 0-.997.003.498.498 0 0 0 .996-.003m0 0"/></g><g clip-path="url(#bw)"><path fill="#00F" d="M146.934 16.387a.498.498 0 1 0-.997-.003.498.498 0 0 0 .997.003m1.492-1.496a.498.498 0 1 0-.997.003.498.498 0 0 0 .997-.003m0 0"/></g><g clip-path="url(#bx)"><path fill="#00F" d="M149.922 16.387a.498.498 0 1 0-.997-.003.498.498 0 0 0 .997.003m1.492-1.496a.497.497 0 0 0-.496-.496.5.5 0 0 0-.5.496.498.498 0 1 0 .996 0m0 0"/></g><g clip-path="url(#by)"><path fill="#00F" d="M152.91 16.387a.498.498 0 1 0-.995-.005.498.498 0 0 0 .995.005m1.496-1.496a.498.498 0 1 0-.995.003.498.498 0 0 0 .995-.003m0 0"/></g><g clip-path="url(#bz)"><path fill="#00F" d="M155.898 16.387a.498.498 0 1 0-.995-.005.498.498 0 0 0 .995.005m1.497-1.496a.498.498 0 1 0-.996.003.498.498 0 0 0 .996-.003m0 0"/></g><g clip-path="url(#bA)"><path fill="#00F" d="M158.887 16.387a.498.498 0 1 0-.996-.005.498.498 0 0 0 .996.005m1.496-1.496a.498.498 0 1 0-.995.003.498.498 0 0 0 .995-.003m0 0"/></g><g clip-path="url(#bB)"><path fill="#00F" d="M161.875 16.387a.498.498 0 1 0-.995-.005.498.498 0 0 0 .995.005m1.496-1.496a.498.498 0 1 0-.997.003.498.498 0 0 0 .997-.003m0 0"/></g><g clip-path="url(#bC)"><path fill="#00F" d="M164.867 16.387a.498.498 0 1 0-.997-.003.498.498 0 0 0 .997.003m1.492-1.496a.498.498 0 1 0-.997.003.498.498 0 0 0 .997-.003m0 0"/></g><g clip-path="url(#bD)"><path fill="#00F" d="M120.035 13.398a.501.501 0 0 0-1 0 .5.5 0 0 0 1 0m1.492-1.496a.5.5 0 0 0-.496-.5.501.501 0 0 0 0 1 .5.5 0 0 0 .496-.5m0 0"/></g><path fill="#00F" d="M123.023 13.398a.498.498 0 1 0-.996-.003.498.498 0 0 0 .996.003m1.493-1.496a.5.5 0 0 0-.496-.5.501.501 0 0 0 0 1 .5.5 0 0 0 .496-.5M126.012 13.398a.498.498 0 1 0-.997-.003.498.498 0 0 0 .997.003m1.492-1.496a.5.5 0 0 0-.496-.5.501.501 0 0 0 0 1 .5.5 0 0 0 .496-.5m0 0"/><g clip-path="url(#bE)"><path fill="#00F" d="M129 13.398a.498.498 0 1 0-.997-.003.498.498 0 0 0 .997.003m1.496-1.496c0-.273-.226-.5-.5-.5-.273 0-.5.227-.5.5 0 .274.227.5.5.5.274 0 .5-.226.5-.5m0 0"/></g><g clip-path="url(#bF)"><path fill="#00F" d="M131.988 13.398a.498.498 0 1 0-.995-.004.498.498 0 0 0 .995.004m1.496-1.496c0-.273-.222-.5-.5-.5a.5.5 0 0 0 0 1c.278 0 .5-.226.5-.5m0 0"/></g><g clip-path="url(#bG)"><path fill="#00F" d="M134.977 13.398a.498.498 0 1 0-.996-.004.498.498 0 0 0 .996.004m1.496-1.496c0-.273-.223-.5-.5-.5a.5.5 0 0 0 0 1c.277 0 .5-.226.5-.5m0 0"/></g><g clip-path="url(#bH)"><path fill="#00F" d="M137.965 13.398a.498.498 0 1 0-.995-.004.498.498 0 0 0 .995.004m1.496-1.496c0-.273-.223-.5-.5-.5a.5.5 0 0 0 0 1c.277 0 .5-.226.5-.5m0 0"/></g><g clip-path="url(#bI)"><path fill="#00F" d="M140.953 13.398a.498.498 0 1 0-.995-.004.498.498 0 0 0 .995.004m1.496-1.496a.5.5 0 0 0-.496-.5.501.501 0 0 0 0 1 .5.5 0 0 0 .496-.5m0 0"/></g><g clip-path="url(#bJ)"><path fill="#00F" d="M143.945 13.398a.498.498 0 1 0-.997-.003.498.498 0 0 0 .997.003m1.493-1.496a.5.5 0 0 0-.497-.5.501.501 0 0 0 0 1 .5.5 0 0 0 .496-.5m0 0"/></g><g clip-path="url(#bK)"><path fill="#00F" d="M146.934 13.398a.498.498 0 1 0-.997-.003.498.498 0 0 0 .997.003m1.492-1.496a.5.5 0 0 0-.496-.5.501.501 0 0 0 0 1 .5.5 0 0 0 .496-.5m0 0"/></g><g clip-path="url(#bL)"><path fill="#00F" d="M149.922 13.398a.498.498 0 1 0-.997-.003.498.498 0 0 0 .997.003m1.492-1.496a.5.5 0 0 0-.496-.5c-.273 0-.5.227-.5.5 0 .274.227.5.5.5a.5.5 0 0 0 .496-.5m0 0"/></g><g clip-path="url(#bM)"><path fill="#00F" d="M152.91 13.398a.498.498 0 1 0-.995-.004.498.498 0 0 0 .995.004m1.496-1.496c0-.273-.222-.5-.5-.5a.5.5 0 0 0 0 1c.278 0 .5-.226.5-.5m0 0"/></g><g clip-path="url(#bN)"><path fill="#00F" d="M155.898 13.398a.498.498 0 1 0-.995-.004.498.498 0 0 0 .995.004m1.497-1.496c0-.273-.223-.5-.5-.5a.5.5 0 0 0 0 1c.277 0 .5-.226.5-.5m0 0"/></g><g clip-path="url(#bO)"><path fill="#00F" d="M158.887 13.398a.498.498 0 1 0-.996-.004.498.498 0 0 0 .996.004m1.496-1.496c0-.273-.223-.5-.5-.5a.5.5 0 0 0 0 1c.277 0 .5-.226.5-.5m0 0"/></g><g clip-path="url(#bP)"><path fill="#00F" d="M161.875 13.398a.498.498 0 1 0-.995-.004.498.498 0 0 0 .995.004m1.496-1.496a.5.5 0 0 0-.496-.5.501.501 0 0 0 0 1 .5.5 0 0 0 .496-.5m0 0"/></g><g clip-path="url(#bQ)"><path fill="#00F" d="M164.867 13.398a.498.498 0 1 0-.997-.003.498.498 0 0 0 .997.003m1.492-1.496a.5.5 0 0 0-.496-.5.501.501 0 0 0 0 1 .5.5 0 0 0 .496-.5m0 0"/></g><g clip-path="url(#bR)"><path fill="#00F" d="M120.035 10.406a.5.5 0 0 0-1 0 .501.501 0 0 0 1 0m1.492-1.492a.498.498 0 1 0-.995-.005.498.498 0 0 0 .995.005m0 0"/></g><g clip-path="url(#bS)"><path fill="#00F" d="M123.023 10.406a.498.498 0 1 0-.995.003.498.498 0 0 0 .995-.003m1.493-1.492a.498.498 0 1 0-.996-.005.498.498 0 0 0 .996.005m0 0"/></g><g clip-path="url(#bT)"><path fill="#00F" d="M126.012 10.406a.498.498 0 1 0-.996.003.498.498 0 0 0 .996-.003m1.492-1.492a.498.498 0 1 0-.995-.005.498.498 0 0 0 .995.005m0 0"/></g><g clip-path="url(#bU)"><path fill="#00F" d="M129 10.406a.498.498 0 1 0-.995.003.498.498 0 0 0 .995-.003m1.496-1.492a.501.501 0 0 0-1 0 .5.5 0 0 0 1 0m0 0"/></g><g clip-path="url(#bV)"><path fill="#00F" d="M131.988 10.406a.498.498 0 1 0-.997.003.498.498 0 0 0 .997-.003m1.496-1.492a.498.498 0 1 0-.997-.003.498.498 0 0 0 .997.003m0 0"/></g><g clip-path="url(#bW)"><path fill="#00F" d="M134.977 10.406a.498.498 0 1 0-.997.003.498.498 0 0 0 .997-.003m1.496-1.492a.498.498 0 1 0-.997-.003.498.498 0 0 0 .997.003m0 0"/></g><g clip-path="url(#bX)"><path fill="#00F" d="M137.965 10.406a.498.498 0 1 0-.997.003.498.498 0 0 0 .997-.003m1.496-1.492a.498.498 0 1 0-.997-.003.498.498 0 0 0 .997.003m0 0"/></g><g clip-path="url(#bY)"><path fill="#00F" d="M140.953 10.406a.497.497 0 0 0-.496-.496.5.5 0 0 0-.5.496.498.498 0 1 0 .996 0m1.496-1.492a.498.498 0 1 0-.995-.005.498.498 0 0 0 .995.005m0 0"/></g><g clip-path="url(#bZ)"><path fill="#00F" d="M143.945 10.406a.498.498 0 1 0-.995.003.498.498 0 0 0 .995-.003m1.493-1.492a.498.498 0 1 0-.996-.005.498.498 0 0 0 .995.005m0 0"/></g><g clip-path="url(#ca)"><path fill="#00F" d="M146.934 10.406a.498.498 0 1 0-.996.003.498.498 0 0 0 .996-.003m1.492-1.492a.498.498 0 1 0-.995-.005.498.498 0 0 0 .995.005m0 0"/></g><g clip-path="url(#cb)"><path fill="#00F" d="M149.922 10.406a.498.498 0 1 0-.995.003.498.498 0 0 0 .995-.003m1.492-1.492a.498.498 0 1 0-.995-.005.498.498 0 0 0 .995.005m0 0"/></g><g clip-path="url(#cc)"><path fill="#00F" d="M152.91 10.406a.498.498 0 1 0-.997.003.498.498 0 0 0 .997-.003m1.496-1.492a.498.498 0 1 0-.997-.003.498.498 0 0 0 .997.003m0 0"/></g><g clip-path="url(#cd)"><path fill="#00F" d="M155.898 10.406a.498.498 0 1 0-.997.003.498.498 0 0 0 .997-.003m1.497-1.492a.498.498 0 1 0-.997-.003.498.498 0 0 0 .997.003m0 0"/></g><g clip-path="url(#ce)"><path fill="#00F" d="M158.887 10.406a.498.498 0 1 0-.997.003.498.498 0 0 0 .997-.003m1.496-1.492a.498.498 0 1 0-.997-.003.498.498 0 0 0 .997.003m0 0"/></g><g clip-path="url(#cf)"><path fill="#00F" d="M161.875 10.406a.497.497 0 0 0-.496-.496.5.5 0 0 0-.5.496.498.498 0 1 0 .996 0m1.496-1.492a.498.498 0 1 0-.995-.005.498.498 0 0 0 .995.005m0 0"/></g><g clip-path="url(#cg)"><path fill="#00F" d="M164.867 10.406a.498.498 0 1 0-.995.003.498.498 0 0 0 .995-.003m1.492-1.492a.498.498 0 1 0-.995-.005.498.498 0 0 0 .995.005m0 0"/></g><g clip-path="url(#ch)"><path fill="red" d="M170.844 31.328a.498.498 0 1 0-.996.003.498.498 0 0 0 .996-.003m1.492-1.492a.498.498 0 1 0-.995-.005.498.498 0 0 0 .995.005m0 0"/></g><g clip-path="url(#ci)"><path fill="red" d="M173.832 31.328a.498.498 0 1 0-.997.003.498.498 0 0 0 .997-.003m1.496-1.492a.498.498 0 1 0-.997-.003.498.498 0 0 0 .997.003m0 0"/></g><g clip-path="url(#cj)"><path fill="red" d="M176.82 31.328a.498.498 0 1 0-.997.003.498.498 0 0 0 .997-.003m1.496-1.492a.498.498 0 1 0-.997-.003.498.498 0 0 0 .997.003m0 0"/></g><g clip-path="url(#ck)"><path fill="red" d="M179.809 31.328a.498.498 0 1 0-.997.003.498.498 0 0 0 .997-.003m1.496-1.492a.498.498 0 1 0-.997-.003.498.498 0 0 0 .997.003m0 0"/></g><g clip-path="url(#cl)"><path fill="red" d="M182.797 31.328a.497.497 0 0 0-.496-.496.5.5 0 0 0-.5.496.498.498 0 1 0 .996 0m1.496-1.492a.498.498 0 1 0-.995-.005.498.498 0 0 0 .995.005m0 0"/></g><g clip-path="url(#cm)"><path fill="red" d="M185.79 31.328a.498.498 0 1 0-.996.003.498.498 0 0 0 .995-.003m1.491-1.492a.498.498 0 1 0-.995-.005.498.498 0 0 0 .995.005m0 0"/></g><g clip-path="url(#cn)"><path fill="red" d="M188.777 31.328a.498.498 0 1 0-.995.003.498.498 0 0 0 .995-.003m1.493-1.492a.498.498 0 1 0-.996-.005.498.498 0 0 0 .996.005m0 0"/></g><g clip-path="url(#co)"><path fill="red" d="M191.766 31.328a.498.498 0 1 0-.996.003.498.498 0 0 0 .996-.003m1.492-1.492a.498.498 0 1 0-.995-.005.498.498 0 0 0 .995.005m0 0"/></g><g clip-path="url(#cp)"><path fill="red" d="M194.754 31.328a.498.498 0 1 0-.997.003.498.498 0 0 0 .997-.003m1.496-1.492a.498.498 0 1 0-.997-.005.498.498 0 0 0 .997.005m0 0"/></g><g clip-path="url(#cq)"><path fill="red" d="M197.742 31.328a.498.498 0 1 0-.997.003.498.498 0 0 0 .997-.003m1.496-1.492a.498.498 0 1 0-.997-.003.498.498 0 0 0 .997.003m0 0"/></g><g clip-path="url(#cr)"><path fill="red" d="M200.73 31.328a.498.498 0 1 0-.997.003.498.498 0 0 0 .997-.003m1.497-1.492a.498.498 0 1 0-.997-.003.498.498 0 0 0 .997.003m0 0"/></g><g clip-path="url(#cs)"><path fill="red" d="M203.719 31.328a.498.498 0 1 0-.997.003.498.498 0 0 0 .997-.003m1.496-1.492a.498.498 0 1 0-.997-.003.498.498 0 0 0 .997.003m0 0"/></g><g clip-path="url(#ct)"><path fill="red" d="M206.71 31.328a.5.5 0 0 0-.5-.496.498.498 0 1 0 .5.496m1.493-1.492a.498.498 0 1 0-.995-.005.498.498 0 0 0 .995.005m0 0"/></g><g clip-path="url(#cu)"><path fill="red" d="M209.7 31.328a.498.498 0 1 0-.996.003.498.498 0 0 0 .995-.003m1.491-1.492a.498.498 0 1 0-.995-.005.498.498 0 0 0 .995.005m0 0"/></g><g clip-path="url(#cv)"><path fill="red" d="M212.688 31.328a.498.498 0 1 0-.996.003.498.498 0 0 0 .995-.003m1.492-1.492a.498.498 0 1 0-.996-.005.498.498 0 0 0 .996.005m0 0"/></g><g clip-path="url(#cw)"><path fill="red" d="M170.844 28.34a.498.498 0 1 0-.996.003.498.498 0 0 0 .996-.003m1.492-1.492a.498.498 0 1 0-.995-.005.498.498 0 0 0 .995.005m0 0"/></g><g clip-path="url(#cx)"><path fill="red" d="M173.832 28.34a.498.498 0 1 0-.997.003.498.498 0 0 0 .997-.003m1.496-1.492a.498.498 0 1 0-.997-.003.498.498 0 0 0 .997.003m0 0"/></g><g clip-path="url(#cy)"><path fill="red" d="M176.82 28.34a.498.498 0 1 0-.997.003.498.498 0 0 0 .997-.003m1.496-1.492a.498.498 0 1 0-.997-.003.498.498 0 0 0 .997.003m0 0"/></g><g clip-path="url(#cz)"><path fill="red" d="M179.809 28.34a.498.498 0 1 0-.997.003.498.498 0 0 0 .997-.003m1.496-1.492a.498.498 0 1 0-.997-.003.498.498 0 0 0 .997.003m0 0"/></g><g clip-path="url(#cA)"><path fill="red" d="M182.797 28.34a.497.497 0 0 0-.496-.496.5.5 0 0 0-.5.496.498.498 0 1 0 .996 0m1.496-1.492a.498.498 0 1 0-.995-.005.498.498 0 0 0 .995.005m0 0"/></g><g clip-path="url(#cB)"><path fill="red" d="M185.79 28.34a.498.498 0 1 0-.996.003.498.498 0 0 0 .995-.003m1.491-1.492a.498.498 0 1 0-.995-.005.498.498 0 0 0 .995.005m0 0"/></g><g clip-path="url(#cC)"><path fill="red" d="M188.777 28.34a.498.498 0 1 0-.995.003.498.498 0 0 0 .995-.003m1.493-1.492a.498.498 0 1 0-.996-.005.498.498 0 0 0 .996.005m0 0"/></g><g clip-path="url(#cD)"><path fill="red" d="M191.766 28.34a.498.498 0 1 0-.996.003.498.498 0 0 0 .996-.003m1.492-1.492a.498.498 0 1 0-.995-.005.498.498 0 0 0 .995.005m0 0"/></g><g clip-path="url(#cE)"><path fill="red" d="M194.754 28.34a.498.498 0 1 0-.997.003.498.498 0 0 0 .997-.003m1.496-1.492a.498.498 0 1 0-.997-.005.498.498 0 0 0 .997.005m0 0"/></g><g clip-path="url(#cF)"><path fill="red" d="M197.742 28.34a.498.498 0 1 0-.997.003.498.498 0 0 0 .997-.003m1.496-1.492a.498.498 0 1 0-.997-.003.498.498 0 0 0 .997.003m0 0"/></g><g clip-path="url(#cG)"><path fill="red" d="M200.73 28.34a.498.498 0 1 0-.997.003.498.498 0 0 0 .997-.003m1.497-1.492a.498.498 0 1 0-.997-.003.498.498 0 0 0 .997.003m0 0"/></g><g clip-path="url(#cH)"><path fill="red" d="M203.719 28.34a.498.498 0 1 0-.997.003.498.498 0 0 0 .997-.003m1.496-1.492a.498.498 0 1 0-.997-.003.498.498 0 0 0 .997.003m0 0"/></g><g clip-path="url(#cI)"><path fill="red" d="M206.71 28.34a.5.5 0 0 0-.5-.496.498.498 0 1 0 .5.496m1.493-1.492a.498.498 0 1 0-.995-.005.498.498 0 0 0 .995.005m0 0"/></g><g clip-path="url(#cJ)"><path fill="red" d="M209.7 28.34a.498.498 0 1 0-.996.003.498.498 0 0 0 .995-.003m1.491-1.492a.498.498 0 1 0-.995-.005.498.498 0 0 0 .995.005m0 0"/></g><g clip-path="url(#cK)"><path fill="red" d="M212.688 28.34a.498.498 0 1 0-.996.003.498.498 0 0 0 .995-.003m1.492-1.492a.498.498 0 1 0-.996-.005.498.498 0 0 0 .996.005m0 0"/></g><g clip-path="url(#cL)"><path fill="red" d="M170.844 25.352a.498.498 0 1 0-.996.003.498.498 0 0 0 .996-.003m1.492-1.493a.498.498 0 1 0-.995-.004.498.498 0 0 0 .995.004m0 0"/></g><g clip-path="url(#cM)"><path fill="red" d="M173.832 25.352a.498.498 0 1 0-.997.003.498.498 0 0 0 .997-.003m1.496-1.493a.498.498 0 1 0-.997-.003.498.498 0 0 0 .997.003m0 0"/></g><g clip-path="url(#cN)"><path fill="red" d="M176.82 25.352a.498.498 0 1 0-.997.003.498.498 0 0 0 .997-.003m1.496-1.493a.498.498 0 1 0-.997-.003.498.498 0 0 0 .997.003m0 0"/></g><g clip-path="url(#cO)"><path fill="red" d="M179.809 25.352a.498.498 0 1 0-.997.003.498.498 0 0 0 .997-.003m1.496-1.493a.498.498 0 1 0-.997-.003.498.498 0 0 0 .997.003m0 0"/></g><g clip-path="url(#cP)"><path fill="red" d="M182.797 25.352a.497.497 0 0 0-.496-.497.5.5 0 0 0-.5.497.498.498 0 1 0 .996 0m1.496-1.493a.498.498 0 1 0-.995-.004.498.498 0 0 0 .995.004m0 0"/></g><g clip-path="url(#cQ)"><path fill="red" d="M185.79 25.352a.498.498 0 1 0-.996.003.498.498 0 0 0 .995-.003m1.491-1.493a.498.498 0 1 0-.995-.004.498.498 0 0 0 .995.004m0 0"/></g><g clip-path="url(#cR)"><path fill="red" d="M188.777 25.352a.498.498 0 1 0-.995.003.498.498 0 0 0 .995-.003m1.493-1.493a.498.498 0 1 0-.996-.004.498.498 0 0 0 .996.004m0 0"/></g><g clip-path="url(#cS)"><path fill="red" d="M191.766 25.352a.498.498 0 1 0-.996.003.498.498 0 0 0 .996-.003m1.492-1.493a.498.498 0 1 0-.995-.004.498.498 0 0 0 .995.004m0 0"/></g><g clip-path="url(#cT)"><path fill="red" d="M194.754 25.352a.498.498 0 1 0-.997.003.498.498 0 0 0 .997-.003m1.496-1.493a.498.498 0 1 0-.997-.005.498.498 0 0 0 .997.005m0 0"/></g><g clip-path="url(#cU)"><path fill="red" d="M197.742 25.352a.498.498 0 1 0-.997.003.498.498 0 0 0 .997-.003m1.496-1.493a.498.498 0 1 0-.997-.003.498.498 0 0 0 .997.003m0 0"/></g><g clip-path="url(#cV)"><path fill="red" d="M200.73 25.352a.498.498 0 1 0-.997.003.498.498 0 0 0 .997-.003m1.497-1.493a.498.498 0 1 0-.997-.003.498.498 0 0 0 .997.003m0 0"/></g><g clip-path="url(#cW)"><path fill="red" d="M203.719 25.352a.498.498 0 1 0-.997.003.498.498 0 0 0 .997-.003m1.496-1.493a.498.498 0 1 0-.997-.003.498.498 0 0 0 .997.003m0 0"/></g><g clip-path="url(#cX)"><path fill="red" d="M206.71 25.352a.5.5 0 0 0-.5-.497.498.498 0 1 0 .5.496m1.493-1.493a.498.498 0 1 0-.995-.004.498.498 0 0 0 .995.004m0 0"/></g><g clip-path="url(#cY)"><path fill="red" d="M209.7 25.352a.498.498 0 1 0-.996.003.498.498 0 0 0 .995-.003m1.491-1.493a.498.498 0 1 0-.995-.004.498.498 0 0 0 .995.004m0 0"/></g><g clip-path="url(#cZ)"><path fill="red" d="M212.688 25.352a.498.498 0 1 0-.996.003.498.498 0 0 0 .995-.003m1.492-1.493a.498.498 0 1 0-.996-.004.498.498 0 0 0 .996.004m0 0"/></g><g clip-path="url(#da)"><path fill="red" d="M170.844 22.363c0-.273-.223-.5-.5-.5a.5.5 0 0 0 0 1c.277 0 .5-.226.5-.5m1.492-1.496a.497.497 0 0 0-.496-.496.5.5 0 0 0-.5.496.498.498 0 1 0 .996 0m0 0"/></g><g clip-path="url(#db)"><path fill="red" d="M173.832 22.363a.5.5 0 0 0-.496-.5.501.501 0 0 0 0 1 .5.5 0 0 0 .496-.5m1.496-1.496a.498.498 0 1 0-.995.003.498.498 0 0 0 .995-.003m0 0"/></g><g clip-path="url(#dc)"><path fill="red" d="M176.82 22.363a.5.5 0 0 0-.496-.5.501.501 0 0 0 0 1 .5.5 0 0 0 .496-.5m1.496-1.496a.498.498 0 1 0-.995.003.498.498 0 0 0 .995-.003m0 0"/></g><g clip-path="url(#dd)"><path fill="red" d="M179.809 22.363a.5.5 0 0 0-.496-.5.501.501 0 0 0 0 1 .5.5 0 0 0 .496-.5m1.496-1.496a.498.498 0 1 0-.996.003.498.498 0 0 0 .996-.003m0 0"/></g><g clip-path="url(#de)"><path fill="red" d="M182.797 22.363a.5.5 0 0 0-.496-.5c-.274 0-.5.227-.5.5 0 .274.226.5.5.5a.5.5 0 0 0 .496-.5m1.496-1.496a.498.498 0 1 0-.997.003.498.498 0 0 0 .997-.003m0 0"/></g><g clip-path="url(#df)"><path fill="red" d="M185.79 22.363c0-.273-.224-.5-.5-.5a.5.5 0 0 0 0 1c.276 0 .5-.226.5-.5m1.491-1.496a.498.498 0 1 0-.997.003.498.498 0 0 0 .997-.003m0 0"/></g><g clip-path="url(#dg)"><path fill="red" d="M188.777 22.363c0-.273-.222-.5-.5-.5a.5.5 0 0 0 0 1c.278 0 .5-.226.5-.5m1.493-1.496a.498.498 0 1 0-.997.003.498.498 0 0 0 .997-.003m0 0"/></g><g clip-path="url(#dh)"><path fill="red" d="M191.766 22.363c0-.273-.223-.5-.5-.5a.5.5 0 0 0 0 1c.277 0 .5-.226.5-.5m1.492-1.496a.497.497 0 0 0-.496-.496.5.5 0 0 0-.5.496.498.498 0 1 0 .996 0m0 0"/></g><g clip-path="url(#di)"><path fill="red" d="M194.754 22.363a.5.5 0 0 0-.496-.5.501.501 0 0 0 0 1 .5.5 0 0 0 .496-.5m1.496-1.496a.5.5 0 0 0-.5-.496.498.498 0 1 0 .5.496m0 0"/></g><g clip-path="url(#dj)"><path fill="red" d="M197.742 22.363a.5.5 0 0 0-.496-.5.501.501 0 0 0 0 1 .5.5 0 0 0 .496-.5m1.496-1.496a.498.498 0 1 0-.995.003.498.498 0 0 0 .995-.003m0 0"/></g><g clip-path="url(#dk)"><path fill="red" d="M200.73 22.363a.5.5 0 0 0-.496-.5.501.501 0 0 0 0 1 .5.5 0 0 0 .496-.5m1.497-1.496a.498.498 0 1 0-.996.003.498.498 0 0 0 .996-.003m0 0"/></g><g clip-path="url(#dl)"><path fill="red" d="M203.719 22.363a.5.5 0 0 0-.496-.5.501.501 0 0 0 0 1 .5.5 0 0 0 .496-.5m1.496-1.496a.498.498 0 1 0-.995.003.498.498 0 0 0 .995-.003m0 0"/></g><g clip-path="url(#dm)"><path fill="red" d="M206.71 22.363c0-.273-.226-.5-.5-.5a.5.5 0 0 0 0 1c.274 0 .5-.226.5-.5m1.493-1.496a.498.498 0 1 0-.997.003.498.498 0 0 0 .997-.003m0 0"/></g><g clip-path="url(#dn)"><path fill="red" d="M209.7 22.363c0-.273-.223-.5-.5-.5a.5.5 0 0 0 0 1c.277 0 .5-.226.5-.5m1.491-1.496a.498.498 0 1 0-.997.003.498.498 0 0 0 .997-.003m0 0"/></g><g clip-path="url(#do)"><path fill="red" d="M212.688 22.363c0-.273-.223-.5-.5-.5a.5.5 0 0 0 0 1c.277 0 .5-.226.5-.5m1.492-1.496a.498.498 0 1 0-.997.003.498.498 0 0 0 .997-.003m0 0"/></g><g clip-path="url(#dp)"><path fill="red" d="M170.844 19.375a.498.498 0 1 0-.997-.003.498.498 0 0 0 .997.003m1.492-1.496a.497.497 0 0 0-.496-.496.5.5 0 0 0-.5.496.498.498 0 1 0 .996 0m0 0"/></g><g clip-path="url(#dq)"><path fill="red" d="M173.832 19.375a.498.498 0 1 0-.995-.005.498.498 0 0 0 .995.005m1.496-1.496a.498.498 0 1 0-.995.003.498.498 0 0 0 .995-.003m0 0"/></g><g clip-path="url(#dr)"><path fill="red" d="M176.82 19.375a.498.498 0 1 0-.995-.005.498.498 0 0 0 .995.005m1.496-1.496a.498.498 0 1 0-.995.003.498.498 0 0 0 .995-.003m0 0"/></g><g clip-path="url(#ds)"><path fill="red" d="M179.809 19.375a.498.498 0 1 0-.996-.005.498.498 0 0 0 .996.005m1.496-1.496a.498.498 0 1 0-.996.003.498.498 0 0 0 .996-.003m0 0"/></g><g clip-path="url(#dt)"><path fill="red" d="M182.797 19.375a.498.498 0 1 0-.995-.005.498.498 0 0 0 .995.005m1.496-1.496a.498.498 0 1 0-.997.003.498.498 0 0 0 .997-.003m0 0"/></g><g clip-path="url(#du)"><path fill="red" d="M185.79 19.375a.498.498 0 1 0-.998-.003.498.498 0 0 0 .997.003m1.491-1.496a.498.498 0 1 0-.997.003.498.498 0 0 0 .997-.003m0 0"/></g><g clip-path="url(#dv)"><path fill="red" d="M188.777 19.375a.498.498 0 1 0-.997-.003.498.498 0 0 0 .997.003m1.493-1.496a.498.498 0 1 0-.997.003.498.498 0 0 0 .997-.003m0 0"/></g><g clip-path="url(#dw)"><path fill="red" d="M191.766 19.375a.498.498 0 1 0-.997-.003.498.498 0 0 0 .997.003m1.492-1.496a.497.497 0 0 0-.496-.496.5.5 0 0 0-.5.496.498.498 0 1 0 .996 0m0 0"/></g><g clip-path="url(#dx)"><path fill="red" d="M194.754 19.375a.498.498 0 1 0-.995-.005.498.498 0 0 0 .995.005m1.496-1.496a.5.5 0 0 0-.5-.496.498.498 0 1 0 .5.496m0 0"/></g><g clip-path="url(#dy)"><path fill="red" d="M197.742 19.375a.498.498 0 1 0-.995-.005.498.498 0 0 0 .995.005m1.496-1.496a.498.498 0 1 0-.995.003.498.498 0 0 0 .995-.003m0 0"/></g><g clip-path="url(#dz)"><path fill="red" d="M200.73 19.375a.498.498 0 1 0-.995-.005.498.498 0 0 0 .995.005m1.497-1.496a.498.498 0 1 0-.996.003.498.498 0 0 0 .996-.003m0 0"/></g><g clip-path="url(#dA)"><path fill="red" d="M203.719 19.375a.498.498 0 1 0-.996-.005.498.498 0 0 0 .996.005m1.496-1.496a.498.498 0 1 0-.995.003.498.498 0 0 0 .995-.003m0 0"/></g><g clip-path="url(#dB)"><path fill="red" d="M206.71 19.375a.498.498 0 1 0-.997-.005.498.498 0 0 0 .998.005m1.493-1.496a.498.498 0 1 0-.997.003.498.498 0 0 0 .997-.003m0 0"/></g><g clip-path="url(#dC)"><path fill="red" d="M209.7 19.375a.498.498 0 1 0-.998-.003.498.498 0 0 0 .997.003m1.491-1.496a.498.498 0 1 0-.997.003.498.498 0 0 0 .997-.003m0 0"/></g><g clip-path="url(#dD)"><path fill="red" d="M212.688 19.375a.498.498 0 1 0-.997-.003.498.498 0 0 0 .996.003m1.492-1.496a.498.498 0 1 0-.997.003.498.498 0 0 0 .997-.003m0 0"/></g><g clip-path="url(#dE)"><path fill="red" d="M170.844 16.387a.498.498 0 1 0-.997-.003.498.498 0 0 0 .997.003m1.492-1.496a.497.497 0 0 0-.496-.496.5.5 0 0 0-.5.496.498.498 0 1 0 .996 0m0 0"/></g><g clip-path="url(#dF)"><path fill="red" d="M173.832 16.387a.498.498 0 1 0-.995-.005.498.498 0 0 0 .995.005m1.496-1.496a.498.498 0 1 0-.995.003.498.498 0 0 0 .995-.003m0 0"/></g><g clip-path="url(#dG)"><path fill="red" d="M176.82 16.387a.498.498 0 1 0-.995-.005.498.498 0 0 0 .995.005m1.496-1.496a.498.498 0 1 0-.995.003.498.498 0 0 0 .995-.003m0 0"/></g><g clip-path="url(#dH)"><path fill="red" d="M179.809 16.387a.498.498 0 1 0-.996-.005.498.498 0 0 0 .996.005m1.496-1.496a.498.498 0 1 0-.996.003.498.498 0 0 0 .996-.003m0 0"/></g><g clip-path="url(#dI)"><path fill="red" d="M182.797 16.387a.498.498 0 1 0-.995-.005.498.498 0 0 0 .995.005m1.496-1.496a.498.498 0 1 0-.997.003.498.498 0 0 0 .997-.003m0 0"/></g><g clip-path="url(#dJ)"><path fill="red" d="M185.79 16.387a.498.498 0 1 0-.998-.003.498.498 0 0 0 .997.003m1.491-1.496a.498.498 0 1 0-.997.003.498.498 0 0 0 .997-.003m0 0"/></g><g clip-path="url(#dK)"><path fill="red" d="M188.777 16.387a.498.498 0 1 0-.997-.003.498.498 0 0 0 .997.003m1.493-1.496a.498.498 0 1 0-.997.003.498.498 0 0 0 .997-.003m0 0"/></g><g clip-path="url(#dL)"><path fill="red" d="M191.766 16.387a.498.498 0 1 0-.997-.003.498.498 0 0 0 .997.003m1.492-1.496a.497.497 0 0 0-.496-.496.5.5 0 0 0-.5.496.498.498 0 1 0 .996 0m0 0"/></g><g clip-path="url(#dM)"><path fill="red" d="M194.754 16.387a.498.498 0 1 0-.995-.005.498.498 0 0 0 .995.005m1.496-1.496a.5.5 0 0 0-.5-.496.498.498 0 1 0 .5.496m0 0"/></g><g clip-path="url(#dN)"><path fill="red" d="M197.742 16.387a.498.498 0 1 0-.995-.005.498.498 0 0 0 .995.005m1.496-1.496a.498.498 0 1 0-.995.003.498.498 0 0 0 .995-.003m0 0"/></g><g clip-path="url(#dO)"><path fill="red" d="M200.73 16.387a.498.498 0 1 0-.995-.005.498.498 0 0 0 .995.005m1.497-1.496a.498.498 0 1 0-.996.003.498.498 0 0 0 .996-.003m0 0"/></g><g clip-path="url(#dP)"><path fill="red" d="M203.719 16.387a.498.498 0 1 0-.996-.005.498.498 0 0 0 .996.005m1.496-1.496a.498.498 0 1 0-.995.003.498.498 0 0 0 .995-.003m0 0"/></g><g clip-path="url(#dQ)"><path fill="red" d="M206.71 16.387a.498.498 0 1 0-.997-.005.498.498 0 0 0 .998.005m1.493-1.496a.498.498 0 1 0-.997.003.498.498 0 0 0 .997-.003m0 0"/></g><g clip-path="url(#dR)"><path fill="red" d="M209.7 16.387a.498.498 0 1 0-.998-.003.498.498 0 0 0 .997.003m1.491-1.496a.498.498 0 1 0-.997.003.498.498 0 0 0 .997-.003m0 0"/></g><g clip-path="url(#dS)"><path fill="red" d="M212.688 16.387a.498.498 0 1 0-.997-.003.498.498 0 0 0 .996.003m1.492-1.496a.498.498 0 1 0-.997.003.498.498 0 0 0 .997-.003m0 0"/></g><g clip-path="url(#dT)"><path fill="red" d="M170.844 13.398a.498.498 0 1 0-.997-.003.498.498 0 0 0 .997.003m1.492-1.496a.5.5 0 0 0-.496-.5c-.274 0-.5.227-.5.5 0 .274.226.5.5.5a.5.5 0 0 0 .496-.5m0 0"/></g><g clip-path="url(#dU)"><path fill="red" d="M173.832 13.398a.498.498 0 1 0-.995-.004.498.498 0 0 0 .995.004m1.496-1.496c0-.273-.223-.5-.5-.5a.5.5 0 0 0 0 1c.277 0 .5-.226.5-.5m0 0"/></g><g clip-path="url(#dV)"><path fill="red" d="M176.82 13.398a.498.498 0 1 0-.995-.004.498.498 0 0 0 .995.004m1.496-1.496c0-.273-.222-.5-.5-.5a.5.5 0 0 0 0 1c.278 0 .5-.226.5-.5m0 0"/></g><g clip-path="url(#dW)"><path fill="red" d="M179.809 13.398a.498.498 0 1 0-.996-.004.498.498 0 0 0 .996.004m1.496-1.496c0-.273-.223-.5-.5-.5a.5.5 0 0 0 0 1c.277 0 .5-.226.5-.5m0 0"/></g><g clip-path="url(#dX)"><path fill="red" d="M182.797 13.398a.498.498 0 1 0-.995-.004.498.498 0 0 0 .995.004m1.496-1.496a.5.5 0 0 0-.496-.5.501.501 0 0 0 0 1 .5.5 0 0 0 .496-.5m0 0"/></g><g clip-path="url(#dY)"><path fill="red" d="M185.79 13.398a.498.498 0 1 0-.998-.003.498.498 0 0 0 .997.003m1.491-1.496a.5.5 0 0 0-.496-.5.501.501 0 0 0 0 1 .5.5 0 0 0 .496-.5m0 0"/></g><g clip-path="url(#dZ)"><path fill="red" d="M188.777 13.398a.498.498 0 1 0-.997-.003.498.498 0 0 0 .997.003m1.493-1.496a.5.5 0 0 0-.497-.5.501.501 0 0 0 0 1 .5.5 0 0 0 .497-.5m0 0"/></g><g clip-path="url(#ea)"><path fill="red" d="M191.766 13.398a.498.498 0 1 0-.997-.003.498.498 0 0 0 .997.003m1.492-1.496a.5.5 0 0 0-.496-.5c-.274 0-.5.227-.5.5 0 .274.226.5.5.5a.5.5 0 0 0 .496-.5m0 0"/></g><g clip-path="url(#eb)"><path fill="red" d="M194.754 13.398a.498.498 0 1 0-.995-.004.498.498 0 0 0 .995.004m1.496-1.496c0-.273-.227-.5-.5-.5a.5.5 0 0 0 0 1c.273 0 .5-.226.5-.5m0 0"/></g><g clip-path="url(#ec)"><path fill="red" d="M197.742 13.398a.498.498 0 1 0-.995-.004.498.498 0 0 0 .995.004m1.496-1.496c0-.273-.222-.5-.5-.5a.5.5 0 0 0 0 1c.278 0 .5-.226.5-.5m0 0"/></g><g clip-path="url(#ed)"><path fill="red" d="M200.73 13.398a.498.498 0 1 0-.995-.004.498.498 0 0 0 .995.004m1.497-1.496c0-.273-.223-.5-.5-.5a.5.5 0 0 0 0 1c.277 0 .5-.226.5-.5m0 0"/></g><g clip-path="url(#ee)"><path fill="red" d="M203.719 13.398a.498.498 0 1 0-.996-.004.498.498 0 0 0 .996.004m1.496-1.496c0-.273-.223-.5-.5-.5a.5.5 0 0 0 0 1c.277 0 .5-.226.5-.5m0 0"/></g><g clip-path="url(#ef)"><path fill="red" d="M206.71 13.398a.498.498 0 1 0-.997-.005.498.498 0 0 0 .998.005m1.493-1.496a.5.5 0 0 0-.496-.5.501.501 0 0 0 0 1 .5.5 0 0 0 .496-.5m0 0"/></g><g clip-path="url(#eg)"><path fill="red" d="M209.7 13.398a.498.498 0 1 0-.998-.003.498.498 0 0 0 .997.003m1.491-1.496a.5.5 0 0 0-.496-.5.501.501 0 0 0 0 1 .5.5 0 0 0 .496-.5m0 0"/></g><g clip-path="url(#eh)"><path fill="red" d="M212.688 13.398a.498.498 0 1 0-.997-.003.498.498 0 0 0 .996.003m1.492-1.496a.5.5 0 0 0-.496-.5.501.501 0 0 0 0 1 .5.5 0 0 0 .496-.5m0 0"/></g><g clip-path="url(#ei)"><path fill="red" d="M170.844 10.406a.498.498 0 1 0-.996.003.498.498 0 0 0 .996-.003m1.492-1.492a.498.498 0 1 0-.995-.005.498.498 0 0 0 .995.005m0 0"/></g><g clip-path="url(#ej)"><path fill="red" d="M173.832 10.406a.498.498 0 1 0-.997.003.498.498 0 0 0 .997-.003m1.496-1.492a.498.498 0 1 0-.997-.003.498.498 0 0 0 .997.003m0 0"/></g><g clip-path="url(#ek)"><path fill="red" d="M176.82 10.406a.498.498 0 1 0-.997.003.498.498 0 0 0 .997-.003m1.496-1.492a.498.498 0 1 0-.997-.003.498.498 0 0 0 .997.003m0 0"/></g><g clip-path="url(#el)"><path fill="red" d="M179.809 10.406a.498.498 0 1 0-.997.003.498.498 0 0 0 .997-.003m1.496-1.492a.498.498 0 1 0-.997-.003.498.498 0 0 0 .997.003m0 0"/></g><g clip-path="url(#em)"><path fill="red" d="M182.797 10.406a.497.497 0 0 0-.496-.496.5.5 0 0 0-.5.496.498.498 0 1 0 .996 0m1.496-1.492a.498.498 0 1 0-.995-.005.498.498 0 0 0 .995.005m0 0"/></g><g clip-path="url(#en)"><path fill="red" d="M185.79 10.406a.498.498 0 1 0-.996.003.498.498 0 0 0 .995-.003m1.491-1.492a.498.498 0 1 0-.995-.005.498.498 0 0 0 .995.005m0 0"/></g><g clip-path="url(#eo)"><path fill="red" d="M188.777 10.406a.498.498 0 1 0-.995.003.498.498 0 0 0 .995-.003m1.493-1.492a.498.498 0 1 0-.996-.005.498.498 0 0 0 .996.005m0 0"/></g><g clip-path="url(#ep)"><path fill="red" d="M191.766 10.406a.498.498 0 1 0-.996.003.498.498 0 0 0 .996-.003m1.492-1.492a.498.498 0 1 0-.995-.005.498.498 0 0 0 .995.005m0 0"/></g><g clip-path="url(#eq)"><path fill="red" d="M194.754 10.406a.498.498 0 1 0-.997.003.498.498 0 0 0 .997-.003m1.496-1.492a.498.498 0 1 0-.997-.005.498.498 0 0 0 .997.005m0 0"/></g><g clip-path="url(#er)"><path fill="red" d="M197.742 10.406a.498.498 0 1 0-.997.003.498.498 0 0 0 .997-.003m1.496-1.492a.498.498 0 1 0-.997-.003.498.498 0 0 0 .997.003m0 0"/></g><g clip-path="url(#es)"><path fill="red" d="M200.73 10.406a.498.498 0 1 0-.997.003.498.498 0 0 0 .997-.003m1.497-1.492a.498.498 0 1 0-.997-.003.498.498 0 0 0 .997.003m0 0"/></g><g clip-path="url(#et)"><path fill="red" d="M203.719 10.406a.498.498 0 1 0-.997.003.498.498 0 0 0 .997-.003m1.496-1.492a.498.498 0 1 0-.997-.003.498.498 0 0 0 .997.003m0 0"/></g><g clip-path="url(#eu)"><path fill="red" d="M206.71 10.406a.5.5 0 0 0-.5-.496.498.498 0 1 0 .5.496m1.493-1.492a.498.498 0 1 0-.995-.005.498.498 0 0 0 .995.005m0 0"/></g><g clip-path="url(#ev)"><path fill="red" d="M209.7 10.406a.498.498 0 1 0-.996.003.498.498 0 0 0 .995-.003m1.491-1.492a.498.498 0 1 0-.995-.005.498.498 0 0 0 .995.005m0 0"/></g><g clip-path="url(#ew)"><path fill="red" d="M212.688 10.406a.498.498 0 1 0-.996.003.498.498 0 0 0 .995-.003m1.492-1.492a.498.498 0 1 0-.996-.005.498.498 0 0 0 .996.005m0 0"/></g></svg>