<svg xmlns="http://www.w3.org/2000/svg" xmlns:xlink="http://www.w3.org/1999/xlink" width="66.278" height="65.126"><defs><path id="a" d="M5.563-1.812c.14 0 .312 0 .312-.172 0-.188-.172-.188-.312-.188H1c-.125 0-.297 0-.297.188 0 .172.172.172.297.172Zm0 0"/><path id="b" d="M2.14-3.797c0-.187-.015-.187-.203-.187-.39.39-1 .39-1.218.39v.235c.156 0 .562 0 .922-.172v3.015c0 .204 0 .282-.625.282h-.25V0c.328-.031.797-.031 1.125-.031s.797 0 1.125.031v-.234h-.25c-.625 0-.625-.078-.625-.282Zm0 0"/><path id="c" d="M3.219-1.125H3c-.016.094-.078.484-.156.547-.047.047-.531.047-.625.047h-1.11l.766-.625c.203-.172.734-.547.922-.735.172-.171.422-.484.422-.906 0-.75-.672-1.187-1.485-1.187-.765 0-1.296.515-1.296 1.078 0 .297.25.344.312.344a.32.32 0 0 0 .328-.329c0-.125-.078-.328-.344-.328.141-.297.5-.531.922-.531.625 0 .953.469.953.953 0 .422-.28.86-.687 1.25L.5-.25C.438-.187.438-.187.438 0H3.03Zm0 0"/><path id="e" d="M1.766-1.984c.5 0 .843.343.843.953 0 .656-.39.937-.828.937C1.61-.094 1-.125.734-.469c.235-.031.329-.187.329-.343a.33.33 0 0 0-.344-.344.34.34 0 0 0-.344.36c0 .593.656.921 1.422.921.89 0 1.469-.562 1.469-1.156 0-.438-.328-.907-1.047-1.078.484-.157.86-.547.86-1.032 0-.484-.563-.843-1.282-.843-.703 0-1.234.328-1.234.812 0 .266.203.328.328.328.156 0 .312-.094.312-.312 0-.188-.125-.297-.297-.313.282-.312.828-.312.89-.312.298 0 .688.14.688.64 0 .329-.187.907-.796.938-.11 0-.266.015-.313.015-.062.016-.125.016-.125.11s.063.094.156.094Zm0 0"/><path id="f" d="M.969-1.984c.015-.297.031-.797.234-1.157.266-.468.656-.64 1.016-.64.14 0 .422.015.562.187-.219.047-.265.188-.265.297 0 .156.109.281.297.281.171 0 .28-.109.28-.296 0-.376-.265-.672-.874-.672-.938 0-1.844.812-1.844 2.093 0 1.454.672 2.016 1.469 2.016.234 0 .64-.031 1-.39.203-.188.422-.422.422-.954 0-.203-.016-.593-.375-.922-.22-.203-.485-.406-.985-.406-.422 0-.734.219-.937.563m.875 1.89C1-.094 1-1.125 1-1.359c0-.5.328-1 .875-1 .313 0 .484.125.625.312.172.235.172.516.172.828 0 .407-.016.61-.219.86-.14.172-.328.265-.61.265m0 0"/><path id="d" d="M2.266-2.906h.906c-.156.719-.297 1.312-.297 1.906 0 .047 0 .39.078.688.11.328.188.39.328.39.172 0 .36-.156.36-.344 0-.046 0-.062-.032-.14-.171-.36-.296-.75-.296-1.406 0-.172 0-.516.124-1.094h.97c.124 0 .202 0 .28-.063a.31.31 0 0 0 .125-.25c0-.219-.203-.219-.328-.219H1.61c-.171 0-.484 0-.875.391-.28.281-.5.64-.5.703 0 .078.047.094.11.094.094 0 .11-.016.156-.078.39-.578.86-.578 1.031-.578H2c-.234.844-.656 1.812-.953 2.39C1-.39.922-.234.922-.172c0 .172.125.25.25.25.312 0 .39-.297.562-.953Zm0 0"/><path id="g" d="M3.89-2.547c0-.844-.078-1.36-.343-1.875-.344-.703-1-.875-1.438-.875-1 0-1.375.75-1.484.969C.344-3.75.328-2.953.328-2.547c0 .531.016 1.328.406 1.969.36.594.954.75 1.375.75.391 0 1.063-.125 1.47-.906.296-.578.312-1.297.312-1.813M2.11-.062c-.266 0-.813-.125-.985-.954-.094-.453-.094-1.203-.094-1.625 0-.546 0-1.109.094-1.546.172-.813.781-.891.984-.891.266 0 .829.14.985.86.094.437.094 1.046.094 1.577 0 .47 0 1.188-.094 1.641-.172.828-.719.938-.985.938m0 0"/><path id="h" d="M2.5-5.078c0-.219-.016-.219-.234-.219-.328.313-.75.5-1.5.5v.266c.218 0 .64 0 1.109-.203v4.078c0 .297-.031.39-.781.39H.812V0c.329-.031 1.016-.031 1.376-.031s1.046 0 1.374.031v-.266h-.28c-.75 0-.782-.093-.782-.39Zm0 0"/></defs><path fill="none" stroke="#7F7F7F" stroke-linecap="round" stroke-miterlimit="10" stroke-width=".399" d="M14.238 48.809V50.8M30.898 44.34l.997 1.726M43.098 32.14l1.726 1M47.563 15.48h1.992M7.262 15.48h1.992M7.262 34.375h1.992M14.234 10.496V8.504M33.133 10.496V8.504"/><path fill="none" stroke="#BFBFBF" stroke-linecap="square" stroke-miterlimit="10" stroke-width=".399" d="M14.234 43.824c15.653 0 28.348-12.691 28.348-28.344"/><path fill="none" stroke="#7F7F7F" stroke-linecap="square" stroke-miterlimit="10" stroke-width=".399" d="M14.234 48.809c18.407 0 33.329-14.926 33.329-33.329"/><path fill="none" stroke="#BFBFBF" stroke-linecap="square" stroke-miterlimit="10" stroke-width=".399" d="M14.234 15.48v28.344"/><path fill="none" stroke="#7F7F7F" stroke-linecap="square" stroke-miterlimit="10" stroke-width=".399" d="M9.254 15.48v28.344"/><path fill="none" stroke="#BFBFBF" stroke-linecap="square" stroke-miterlimit="10" stroke-width=".399" d="M14.234 15.48h28.348"/><path fill="none" stroke="#7F7F7F" stroke-linecap="square" stroke-miterlimit="10" stroke-width=".399" d="M14.234 10.496h28.348"/><path fill="none" stroke="#000" stroke-miterlimit="10" stroke-width=".399" d="m22.086 15.012 2.816-2.82m-2.816 0 2.816 2.82M30.879 11.305l2.816-2.82m-2.816 0 2.816 2.82M38.934 5.852l2.82-2.82m-2.82 0 2.82 2.82"/><use xlink:href="#a" x="5.347" y="60.566"/><use xlink:href="#b" x="13.129" y="57.307"/><path fill="none" stroke="#000" stroke-miterlimit="10" stroke-width=".359" d="M13.129 58.574h3.652"/><use xlink:href="#c" x="13.129" y="63.691"/><use xlink:href="#d" x="17.977" y="60.566"/><use xlink:href="#a" x="34.551" y="55.833"/><use xlink:href="#b" x="42.333" y="52.575"/><path fill="none" stroke="#000" stroke-miterlimit="10" stroke-width=".359" d="M42.332 53.84h3.652"/><use xlink:href="#e" x="42.333" y="58.959"/><use xlink:href="#d" x="47.182" y="55.833"/><use xlink:href="#a" x="47.479" y="42.906"/><use xlink:href="#b" x="55.261" y="39.647"/><path fill="none" stroke="#000" stroke-miterlimit="10" stroke-width=".359" d="M55.262 40.914h3.652"/><use xlink:href="#f" x="55.261" y="46.031"/><use xlink:href="#d" x="60.109" y="42.906"/><use xlink:href="#g" x="52.211" y="18.048"/><use xlink:href="#g" x=".371" y="18.048"/><use xlink:href="#h" x=".371" y="36.945"/><use xlink:href="#g" x="12.117" y="5.85"/><use xlink:href="#h" x="31.015" y="5.85"/></svg>