<svg xmlns="http://www.w3.org/2000/svg" xmlns:xlink="http://www.w3.org/1999/xlink" width="64.568" height="46.118"><defs><path id="b" d="m4.125-7.14-.406-.235-.485.828-6.687-.89c-.266-.016-.313.078-.406.218-.141.25-.094.313.015.469L.125-1.61c.11.126.156.188-.219.829l-.11.187.407.235.547-1.016c.203-.344.469-.812.688-1.125l-.407-.234s-.437.765-.547.703l-.093-.094-.797-1.031L.938-5.47l1.562.203-.484.829.406.234c.172-.36.64-1.172.86-1.547.187-.344.624-1.094.843-1.39M.438-5.532-.703-3.563l-1.828-2.374Zm0 0"/><path id="c" d="M-.984-5.64c-.453-.266-.97.046-1.235.515-.344.594-.11 1.188.328 1.688L-2.875-4l-.75 1.469.406.234c.297-.531.344-.594.672-.39l2.672 1.53-.344.595.407.234.593-1.094c.188-.328.5-.875.719-1.172l-.406-.234-.438.734-1.515-.875c-.594-.344-1.532-1.156-1.032-2.015 0 0 .063.25.297.39.36.203.688.016.828-.218.157-.266.141-.625-.218-.829m0 0"/><path id="d" d="M.828-5.766c-1.172-.671-2.5-.375-3.312 1.047-.813 1.407-.391 2.703.765 3.375 1.063.61 2.36.328 3.188-1.093.843-1.454.406-2.72-.64-3.329M.094-4.719c.734.438 1.672.969 1.031 2.078-.625 1.094-1.562.563-2.297.125-.406-.218-.828-.468-1.047-.796-.234-.344-.187-.829.047-1.235.219-.375.547-.656.953-.672.407-.015.89.266 1.313.5m0 0"/><path id="e" d="m.594-8.922-.406-.234c-.11.203-.235.469-.36.687l-.516.813.407.234c.047-.078.297-.5.39-.453.032.016.063.078.094.094l1.672 2.187L-1.094-6l.282-.484-.407-.235-.547 1c-.203.36-.453.719-.53.844l.405.234.297-.515c.547.078.563.093.563.093.031.016.078.079.093.094l1.25 1.64-2.734-.374.281-.485-.406-.234-.594 1.078-.562.922.406.235.297-.516 3.969.547c.203.015.312.031.437-.188s.047-.297-.078-.437L-.375-4.984l2.766.375c.187.015.297.03.422-.172.124-.219.062-.313-.063-.438L.422-8.234c-.094-.11-.125-.172.172-.688m0 0"/><path id="f" d="m5.297 3.063.234-.407-.593-.344L6.218.079c.532-.906.266-1.515-.593-2.015a1.87 1.87 0 0 0-1.937-.016l1.687-2.938-1.562-.812-.235.406c.531.313.594.344.39.672L1.219.156.626-.187.391.219l1.093.594 1.079.656.234-.407L2.203.72l1.031-1.797c.547-.953 1.532-.938 2.094-.625.281.172.36.469-.016 1.125L3.97 1.75l-.594-.344-.234.407 1.093.593Zm0 0"/><path id="g" d="M4.844 1.438c.093-.141-.078-.235-.11-.25-.156-.094-.203-.063-.328.046-.406.313-1.062.297-1.625-.03C1.562.5 2.203-.657 2.453-1.079l2.61 1.5c.203.11.28.156.421-.078.157-.266.454-.938.282-1.625-.125-.485-.516-.89-1.11-1.235-1.375-.796-2.656-.343-3.265.72C.719-.626 1.109.703 2.5 1.5c1.36.797 2.266.094 2.344-.062m-.14-1.625L2.624-1.375c.203-.328.438-.687.766-.875.437-.187.859-.094 1.093.047 1.016.578.375 1.719.22 2.015m0 0"/><path id="h" d="M4.89 2.547c.126-.203.016-.266-.109-.328-.531-.328-.468-.438-.343-.64L5.5-.267c.453-.78.156-1.671-1.125-2.421-.484-.282-1.562-.86-2-.094-.219.375-.016.703.219.844.265.156.656.125.86-.22.14-.265.062-.5.062-.546.25.11.547.25.64.312.657.375.75.907.375 1.563l-.172.297C3.72-.875 1.484-2.047.766-.812c-.47.828.5 1.609 1.093 1.953.688.39 1.297.28 1.704.03-.157.266-.376.657.53 1.188l.407.235c.172.094.281.156.39-.047m-1.156-2c-.484.844-1.343.5-1.562.375-.453-.266-.61-.766-.375-1.156.531-.922 1.953-.25 2.406-.032Zm0 0"/><path id="i" d="m5.188 2.984.234-.406c-.531-.297-.594-.344-.406-.687l3.03-5.25-1.562-.797-.234.406c.531.313.61.344.406.672l-.968 1.703a2.15 2.15 0 0 0-.97-1.078c-1.25-.735-2.593-.485-3.296.734-.656 1.14-.328 2.407.937 3.14a2.3 2.3 0 0 0 1.454.298l-.235.406ZM4.125 1.188c-.219.093-.844.375-1.5 0-1.047-.61-.437-1.657-.094-2.266.25-.422.516-.875.922-1.094.469-.219.922-.078 1.188.078.5.281.687.766.718 1.125Zm0 0"/><path id="j" d="M5.047 2.906 5.28 2.5l-.61-.344-.468-2.562L5.86-.953c.188-.047.282-.063.985.344l.234-.407-.797-.421-.89-.547-.235.406c.125.062.235.14.297.25-.062.047-.078.062-.125.062l-1.187.407-.297-1.485.36.203.234-.406-1.079-.578-.921-.578-.235.406.625.36.422 2.359-1.86.625C1.157.125.845-.063.423-.297L.188.11 1 .531l.875.547.234-.406C1.953.578 1.813.437 1.844.39c0 0 .015-.016.093-.047l1.391-.469.297 1.672-.328-.188-.235.407 1.047.562Zm0 0"/><path id="k" d="m3.906.844.266-.469-.406-.234-.25.453c-.344.578-.735.61-.97.469C2.047.78 2.36.219 2.47.03l1.375-2.375 1.265.735.235-.407-1.266-.734.953-1.656-.406-.235c-.5.875-1.406 1.47-2.297 1l-.187.313.718.422L1.5-.546c-.531.921.11 1.53.734 1.89.641.375 1.313.11 1.672-.5m0 0"/><path id="l" d="m5.297 3.063.234-.407-.593-.344L6.218.079c.532-.906.266-1.515-.593-2.015-.828-.485-1.578-.25-2.047.062l.531-.937-1.515-.782-.235.406c.532.313.594.344.391.672L1.219.156.625-.187.391.219l1.093.594 1.079.656.234-.407L2.203.72l1.031-1.797c.547-.953 1.532-.938 2.094-.625.281.172.36.469-.016 1.125L3.97 1.75l-.594-.344-.234.407 1.093.593Zm0 0"/><clipPath id="a"><path d="M20 0h44.352v45.676H20Zm0 0"/></clipPath></defs><g clip-path="url(#a)"><path fill="none" stroke="#BFBFBF" stroke-miterlimit="10" stroke-width=".399" d="m55.273 1.172-28.96 7.762 12.273 7.086-12.328 21.355 12.172 7.027 12.328-21.355 12.273 7.086Zm0 0"/></g><g fill="#BFBFBF"><use xlink:href="#b" x="37.089" y="39.562"/><use xlink:href="#c" x="41.418" y="32.064"/><use xlink:href="#c" x="43.779" y="27.975"/><use xlink:href="#d" x="46.14" y="23.885"/></g><use xlink:href="#e" x="48.845" y="19.2" fill="#BFBFBF"/><path fill="none" stroke="red" stroke-miterlimit="10" stroke-width=".399" d="m26.484 9.266 11.141 6.43"/><path fill="none" stroke="red" stroke-linecap="round" stroke-linejoin="round" stroke-miterlimit="10" stroke-width=".39899202" d="M26.914 12.27c.387-1.43-.004-2.438-.601-3.106.875.184 1.945.02 2.992-1.035"/><path fill="none" stroke="red" stroke-miterlimit="10" stroke-width=".39899202" d="m24.824 10.95 2.29-3.97"/><path fill="none" stroke="red" stroke-linecap="round" stroke-linejoin="round" stroke-miterlimit="10" stroke-width=".39899202" d="M37.2 12.687c-.391 1.434 0 2.442.597 3.106-.875-.184-1.945-.016-2.992 1.035"/><path fill="none" stroke="red" stroke-miterlimit="10" stroke-width=".39899202" d="m39.29 14.008-2.294 3.969"/><use xlink:href="#f" x=".382" y="6.24"/><use xlink:href="#g" x="5.895" y="9.423"/><use xlink:href="#h" x="10.442" y="12.048"/><use xlink:href="#i" x="15.265" y="14.832"/><use xlink:href="#g" x="24.082" y="19.923"/><use xlink:href="#j" x="28.629" y="22.548"/><use xlink:href="#k" x="33.866" y="25.572"/><use xlink:href="#g" x="37.723" y="27.798"/><use xlink:href="#l" x="42.27" y="30.423"/><use xlink:href="#i" x="47.783" y="33.606"/></svg>