<svg xmlns="http://www.w3.org/2000/svg" width="94.664" height="96.23"><defs><clipPath id="a"><path d="M0 0h85v95.844H0Zm0 0"/></clipPath><clipPath id="b"><path d="M0 11h82v84.844H0Zm0 0"/></clipPath></defs><path fill="none" stroke="#7F7F7F" stroke-miterlimit="10" stroke-width=".199" d="M8.355 85.328h85.043M8.355 56.98h85.043M8.355 28.645h85.043M8.355 85.328V28.633m28.348 56.695V28.633m28.348 56.695V28.633m28.336 56.695V28.633"/><g clip-path="url(#a)"><path fill="none" stroke="#000" stroke-miterlimit="10" stroke-width=".399" d="M1.012 56.453c3.05.8 6.004 1.59 8.86 2.395 2.75.843 5.394 1.742 7.929 2.718a76 76 0 0 1 6.972 3.461c2.114 1.356 4.11 2.754 6.004 4.36 1.778 1.601 3.446 3.379 4.985 5.176a60 60 0 0 1 3.886 6.07 53 53 0 0 1 2.676 6.71 57 57 0 0 1 1.309 7.364M4.993 47.824c3.152.551 6.206 1.114 9.152 1.723a92 92 0 0 1 8.234 2.387 71 71 0 0 1 7.36 3.457c2.265 1.418 4.413 2.922 6.476 4.593a65 65 0 0 1 5.496 5.59 66 66 0 0 1 4.426 6.54 65 65 0 0 1 3.199 7.288 67 67 0 0 1 1.844 7.965M7.492 38.504c3.238.289 6.375.637 9.414 1.098a79 79 0 0 1 8.633 2.289 74 74 0 0 1 7.895 3.656 75 75 0 0 1 7.082 4.933 76 76 0 0 1 6.113 6.047 76 76 0 0 1 5.023 7.043 75 75 0 0 1 3.774 7.868c.953 2.789 1.75 5.64 2.379 8.566M8.355 28.633c3.32.097 6.63.387 9.868.867 3.18.656 6.289 1.492 9.324 2.496 2.96 1.172 5.84 2.5 8.629 3.98a86 86 0 0 1 7.785 5.313 86 86 0 0 1 6.793 6.5 86 86 0 0 1 5.644 7.531 85 85 0 0 1 4.356 8.414 84 84 0 0 1 2.91 9.153M9.223 18.766c3.332.316 6.71.742 10.105 1.316a97 97 0 0 1 9.942 2.762 96 96 0 0 1 9.296 4.273 96 96 0 0 1 8.446 5.66 96 96 0 0 1 7.402 6.887 94 94 0 0 1 6.227 7.977 95 95 0 0 1 4.886 8.906 94 94 0 0 1 3.403 9.703M11.719 9.441c3.238.586 6.547 1.246 9.894 2.012 3.364.902 6.719 1.95 10.043 3.156a111 111 0 0 1 9.625 4.579 108 108 0 0 1 8.871 5.968c2.723 2.27 5.36 4.692 7.836 7.223a103 103 0 0 1 6.68 8.371 103 103 0 0 1 5.305 9.344 100 100 0 0 1 3.804 10.218M15.695.82c3.13.844 6.325 1.75 9.57 2.743a150 150 0 0 1 9.84 3.699 129 129 0 0 1 9.625 4.96c3.11 1.954 6.063 4.051 9.024 6.305 2.758 2.371 5.488 4.907 8.023 7.543 2.477 2.801 4.79 5.711 6.95 8.735a111 111 0 0 1 5.562 9.73 107 107 0 0 1 4.086 10.688m-77.363 1.23a84 84 0 0 0 3.12-6.398q1.291-3.344 2.305-6.813a83 83 0 0 0 1.43-7.164c.27-2.465.434-4.953.488-7.445.055-2.492.22-4.98.493-7.445a84 84 0 0 1 1.43-7.16 84 84 0 0 1 2.304-6.813A86 86 0 0 1 15.699.813M9.871 58.848a98 98 0 0 0 3.344-6.907 98 98 0 0 0 2.508-7.308q.96-3.762 1.632-7.57c.356-2.547.641-5.075.872-7.563.214-2.441.449-4.82.742-7.145.355-2.27.793-4.492 1.324-6.675a76 76 0 0 1 2.11-6.27 73 73 0 0 1 2.87-5.855m-7.472 58.011a119 119 0 0 0 3.566-7.18 118 118 0 0 0 2.762-7.452 132 132 0 0 0 1.992-7.559 265 265 0 0 0 1.43-7.379c.41-2.371.824-4.691 1.254-6.95q.696-3.303 1.539-6.433a74 74 0 0 1 2.066-5.922 61 61 0 0 1 2.715-5.441M24.773 65.031a126 126 0 0 0 3.852-7.187 136 136 0 0 0 3.11-7.371 171 171 0 0 0 2.456-7.36c.704-2.418 1.36-4.797 1.985-7.136a870 870 0 0 1 1.789-6.727 170 170 0 0 1 1.89-6.215 98 98 0 0 1 2.22-5.68 74 74 0 0 1 2.679-5.14M30.777 69.387a141 141 0 0 0 4.196-7.024 165 165 0 0 0 3.52-7.144 207 207 0 0 0 2.944-7.082 392 392 0 0 0 2.524-6.848q1.166-3.304 2.297-6.46c.754-2.052 1.512-4.044 2.285-5.981a113 113 0 0 1 2.46-5.442 83 83 0 0 1 2.755-4.886M35.766 74.629a159 159 0 0 0 4.57-6.75 181 181 0 0 0 3.957-6.828c1.2-2.266 2.34-4.516 3.43-6.746a505 505 0 0 0 3.03-6.516q1.412-3.152 2.77-6.164 1.347-2.936 2.68-5.707a145 145 0 0 1 2.738-5.191 89 89 0 0 1 2.899-4.633M39.648 80.68a175 175 0 0 0 4.965-6.395c1.528-2.148 2.989-4.3 4.395-6.45a277 277 0 0 0 3.894-6.366 526 526 0 0 0 3.496-6.149q1.64-2.976 3.215-5.824a366 366 0 0 1 3.063-5.398 171 171 0 0 1 3.015-4.91 112 112 0 0 1 3.075-4.36m-26.45 52.586a197 197 0 0 0 5.36-5.969 222 222 0 0 0 4.816-6.02q2.236-2.998 4.332-5.948a532 532 0 0 0 3.93-5.743l3.621-5.445a486 486 0 0 1 3.414-5.055 218 218 0 0 1 3.293-4.59 111 111 0 0 1 3.262-4.058m-30.711 50.11a193 193 0 0 0 5.746-5.493 227 227 0 0 0 5.215-5.543q2.445-2.761 4.738-5.48a540 540 0 0 0 4.332-5.305q2.041-2.574 3.988-5.035c1.274-1.598 2.516-3.156 3.739-4.668a232 232 0 0 1 3.55-4.234c1.153-1.305 2.301-2.547 3.434-3.735"/></g><path fill="none" stroke="#00F" stroke-miterlimit="10" stroke-width="1.196" d="M29.27 22.844a84 84 0 0 0-10.594 1.836 85 85 0 0 0-10.32 3.953 85 85 0 0 1 9.355 5.883 84 84 0 0 1 7.824 7.375"/><g clip-path="url(#b)"><path fill="none" stroke="red" stroke-miterlimit="10" stroke-width="1.196" d="M8.355 28.633c31.184 0 56.696 25.512 56.696 56.695"/></g></svg>