<?xml version="1.0" encoding="UTF-8"?>
<svg xmlns="http://www.w3.org/2000/svg" xmlns:xlink="http://www.w3.org/1999/xlink" width="257.15pt" height="257.15pt" viewBox="0 0 257.15 257.15" version="1.2">
<g id="surface1">
<path style="fill:none;stroke-width:0.19925;stroke-linecap:butt;stroke-linejoin:miter;stroke:rgb(50%,50%,50%);stroke-opacity:1;stroke-miterlimit:10;" d="M -119.055344 -85.042313 L 119.057938 -85.042313 M -119.055344 -42.518875 L 119.057938 -42.518875 M -119.055344 0.00065625 L 119.057938 0.00065625 M -119.055344 42.520187 L 119.057938 42.520187 M -119.055344 85.039719 L 119.057938 85.039719 M -85.039719 -119.057938 L -85.039719 119.055344 M -42.520187 -119.057938 L -42.520187 119.055344 M -0.00065625 -119.057938 L -0.00065625 119.055344 M 42.518875 -119.057938 L 42.518875 119.055344 M 85.042313 -119.057938 L 85.042313 119.055344 " transform="matrix(1,0,0,-1,128.153,128.153)"/>
<path style="fill:none;stroke-width:0.3985;stroke-linecap:butt;stroke-linejoin:miter;stroke:rgb(0%,0%,0%);stroke-opacity:1;stroke-miterlimit:10;" d="M -127.55925 0.00065625 L 127.561844 0.00065625 " transform="matrix(1,0,0,-1,128.153,128.153)"/>
<path style="fill:none;stroke-width:0.3985;stroke-linecap:butt;stroke-linejoin:miter;stroke:rgb(0%,0%,0%);stroke-opacity:1;stroke-miterlimit:10;" d="M -0.00065625 -127.561844 L -0.00065625 127.55925 " transform="matrix(1,0,0,-1,128.153,128.153)"/>
<path style="fill:none;stroke-width:0.3985;stroke-linecap:butt;stroke-linejoin:miter;stroke:rgb(0%,0%,0%);stroke-opacity:1;stroke-miterlimit:10;" d="M 85.042313 0.00065625 C 85.042313 46.9655 46.968094 85.039719 -0.00065625 85.039719 C -46.9655 85.039719 -85.039719 46.9655 -85.039719 0.00065625 C -85.039719 -46.968094 -46.9655 -85.042313 -0.00065625 -85.042313 C 46.968094 -85.042313 85.042313 -46.968094 85.042313 0.00065625 Z M 85.042313 0.00065625 " transform="matrix(1,0,0,-1,128.153,128.153)"/>
<path style="fill:none;stroke-width:0.3985;stroke-linecap:butt;stroke-linejoin:miter;stroke:rgb(0%,0%,0%);stroke-opacity:1;stroke-miterlimit:10;" d="M 25.511063 0.00065625 C 25.511063 4.477219 24.331375 8.879562 22.093094 12.754562 " transform="matrix(1,0,0,-1,128.153,128.153)"/>
</g>
</svg>
