<svg xmlns="http://www.w3.org/2000/svg" xmlns:xlink="http://www.w3.org/1999/xlink" width="68.888" height="68.726"><defs><path id="a" d="M8.25 0v-.469h-.969L4.72-6.703c-.11-.25-.219-.25-.39-.25-.282 0-.329.078-.391.25l-2.47 6c-.062.156-.093.234-.843.234H.406V0l1.172-.031c.39 0 .938 0 1.313.031v-.469S2-.469 2-.594l.047-.125.5-1.203h2.672l.593 1.453H4.86V0c.391-.031 1.329-.031 1.766-.031.39 0 1.266 0 1.625.031M5.016-2.39H2.734l1.141-2.766Zm0 0"/><path id="c" d="M7.5-1.86c0-.952-.844-1.624-2.031-1.702 1.078-.204 1.718-.797 1.718-1.563 0-.922-.875-1.719-2.468-1.719H.39v.469h1.078v5.906H.39V0h4.625C6.672 0 7.5-.875 7.5-1.86M5.766-5.124c0 .766-.47 1.39-1.438 1.39H2.766v-2.64h1.812c1.016 0 1.188.797 1.188 1.25m.28 3.266c0 .109 0 1.39-1.437 1.39H2.766v-2.906h1.937c.203 0 .672 0 1.016.422.328.422.328.984.328 1.094m0 0"/><path id="e" d="M3.797-7.016c-.14-.14-.203-.078-.328.047-.078.078-.14.14-.016.266.875 1 .469 2.281-.25 3-.547.547-1.312.969-2.11.922C.344-2.875-.25-3.312-.89-3.953c-.39-.39-1.125-1.156-1.156-2.094 0-.906.547-1.61.906-1.969.766-.765 1.954-.89 3-.156.157.125.188.125.344-.031.188-.188.188-.219 0-.406L.688-10.125c-.125-.125-.204-.203-.344-.062-.063.062-.047.109-.047.203l-.063.875a3.1 3.1 0 0 0-1.875.906c-1.75 1.75-1.765 3.89-.328 5.328C-.516-1.422 1.61-1.453 3.36-3.203c1.329-1.328 1.266-2.984.438-3.813m0 0"/><path id="g" d="M3.375-8.125C1.828-9.672-.141-9.547-1.547-8.141l-3.016 3.016.344.344.75-.75L.703-1.36l-.75.75.328.328 3.032-3.031c1.39-1.391 1.578-3.297.062-4.813M2.328-7.109c.781.78 1.078 1.234 1.156 1.78.157.813-.359 1.548-.78 1.97L1.671-2.33-2.5-6.5l1.031-1.031c.453-.453 1.172-.922 2.016-.766.594.125 1.14.547 1.781 1.188m0 0"/><clipPath id="b"><path d="M31 0h37.832v38H31Zm0 0"/></clipPath><clipPath id="d"><path d="M0 31h38v37.59H0Zm0 0"/></clipPath><clipPath id="f"><path d="M35 25h33.832v43.59H35Zm0 0"/></clipPath></defs><path fill="none" stroke="#000" stroke-miterlimit="10" stroke-width=".399" d="M37.184 14.098 6.144 1.242l5.329 12.856-5.328 12.855Zm0 0"/><use xlink:href="#a" x="14.673" y="17.575"/><g clip-path="url(#b)"><path fill="none" stroke="#000" stroke-miterlimit="10" stroke-width=".399" d="M66.68 1.855 37.12 14.098l12.242 5.07 5.07 12.242Zm0 0"/></g><use xlink:href="#c" x="50.36" y="17.515"/><g clip-path="url(#d)"><path fill="none" stroke="#000" stroke-miterlimit="10" stroke-width=".399" d="M31.402 37.133 1.47 49.53l12.398 5.137L19 67.066Zm0 0"/></g><use xlink:href="#e" x="18.491" y="54.874"/><g clip-path="url(#f)"><path fill="none" stroke="#000" stroke-miterlimit="10" stroke-width=".399" d="M54.434 31.129 41.422 62.543l13.012-5.39 13.015 5.39Zm0 0"/></g><use xlink:href="#g" x="53.744" y="55.054"/></svg>