<svg xmlns="http://www.w3.org/2000/svg" xmlns:xlink="http://www.w3.org/1999/xlink" width="381.635" height="15.675"><defs><path id="a" d="M5.281-3.187c0-.954-.015-3.344-2.422-3.344S.453-4.156.453-3.188c0 1 0 3.297 2.406 3.297 2.391 0 2.422-2.296 2.422-3.296M4-3.297c0 .563 0 1.469-.078 1.985-.14.921-.766 1.062-1.063 1.062-.359 0-.921-.219-1.046-.953-.094-.516-.094-1.547-.094-2.094 0-.719 0-1.375.078-1.89.125-.891.828-.985 1.062-.985.375 0 .782.188.97.625C4-5.172 4-4.109 4-3.297m0 0"/><path id="b" d="M3.172-1.734v-.97H.125v.97Zm0 0"/><path id="c" d="M4.922 0v-.469h-1.39v-5.734c0-.234 0-.328-.266-.328-.11 0-.125 0-.22.078-.765.562-1.796.562-2 .562H.845v.47h.203c.156 0 .703-.016 1.297-.204v5.156H.954V0c.437-.031 1.5-.031 1.984-.031s1.546 0 1.984.031m0 0"/></defs><path fill="#CCF" stroke="#99F" stroke-miterlimit="10" stroke-width=".399" d="M1.016 14.313h12.37V1.034H1.017Zm0 0"/><use xlink:href="#a" x="4.338" y="10.883"/><path fill="#CCF" stroke="#99F" stroke-miterlimit="10" stroke-width=".399" d="M13.785 14.313h12.371V1.034h-12.37Zm0 0"/><use xlink:href="#a" x="17.105" y="10.883"/><path fill="#CCF" stroke="#99F" stroke-miterlimit="10" stroke-width=".399" d="M26.555 14.313h12.367V1.034H26.555Zm0 0"/><use xlink:href="#a" x="29.873" y="10.883"/><use xlink:href="#b" x="42.443" y="9.024"/><path fill="#CCF" stroke="#99F" stroke-miterlimit="10" stroke-width=".399" d="M49.777 14.313h12.371V1.034h-12.37Zm0 0"/><use xlink:href="#a" x="53.099" y="10.883"/><path fill="#CCF" stroke="#99F" stroke-miterlimit="10" stroke-width=".399" d="M62.547 14.313h12.371V1.034H62.547Zm0 0"/><use xlink:href="#a" x="65.867" y="10.883"/><path fill="#CCF" stroke="#99F" stroke-miterlimit="10" stroke-width=".399" d="M75.316 14.258h12.368V1.09H75.316Zm0 0"/><use xlink:href="#c" x="78.635" y="10.938"/><use xlink:href="#b" x="91.204" y="9.024"/><path fill="#CCF" stroke="#99F" stroke-miterlimit="10" stroke-width=".399" d="M98.54 14.313h12.37V1.034H98.54Zm0 0"/><use xlink:href="#a" x="101.859" y="10.883"/><path fill="#CCF" stroke="#99F" stroke-miterlimit="10" stroke-width=".399" d="M111.309 14.258h12.37V1.09h-12.37Zm0 0"/><use xlink:href="#c" x="114.627" y="10.938"/><path fill="#CCF" stroke="#99F" stroke-miterlimit="10" stroke-width=".399" d="M124.078 14.313h12.367V1.034h-12.367Zm0 0"/><use xlink:href="#a" x="127.395" y="10.883"/><use xlink:href="#b" x="139.964" y="9.024"/><path fill="#CCF" stroke="#99F" stroke-miterlimit="10" stroke-width=".399" d="M147.3 14.313h12.372V1.034H147.3Zm0 0"/><use xlink:href="#a" x="150.62" y="10.883"/><path fill="#CCF" stroke="#99F" stroke-miterlimit="10" stroke-width=".399" d="M160.07 14.258h12.368V1.09H160.07Zm0 0"/><use xlink:href="#c" x="163.388" y="10.938"/><path fill="#CCF" stroke="#99F" stroke-miterlimit="10" stroke-width=".399" d="M172.84 14.258h12.367V1.09H172.84Zm0 0"/><use xlink:href="#c" x="176.156" y="10.938"/><use xlink:href="#b" x="188.726" y="9.024"/><path fill="#CCF" stroke="#99F" stroke-miterlimit="10" stroke-width=".399" d="M196.063 14.258h12.37V1.09h-12.37Zm0 0"/><use xlink:href="#c" x="199.381" y="10.938"/><path fill="#CCF" stroke="#99F" stroke-miterlimit="10" stroke-width=".399" d="M208.832 14.313h12.367V1.034h-12.367Zm0 0"/><use xlink:href="#a" x="212.149" y="10.883"/><path fill="#CCF" stroke="#99F" stroke-miterlimit="10" stroke-width=".399" d="M221.598 14.313h12.37V1.034h-12.37Zm0 0"/><use xlink:href="#a" x="224.917" y="10.883"/><use xlink:href="#b" x="237.486" y="9.024"/><path fill="#CCF" stroke="#99F" stroke-miterlimit="10" stroke-width=".399" d="M244.824 14.258h12.371V1.09h-12.37Zm0 0"/><use xlink:href="#c" x="248.142" y="10.938"/><path fill="#CCF" stroke="#99F" stroke-miterlimit="10" stroke-width=".399" d="M257.594 14.313h12.367V1.034h-12.367Zm0 0"/><use xlink:href="#a" x="260.911" y="10.883"/><path fill="#CCF" stroke="#99F" stroke-miterlimit="10" stroke-width=".399" d="M270.36 14.258h12.37V1.09h-12.37Zm0 0"/><use xlink:href="#c" x="273.678" y="10.938"/><use xlink:href="#b" x="286.247" y="9.024"/><path fill="#CCF" stroke="#99F" stroke-miterlimit="10" stroke-width=".399" d="M293.586 14.258h12.371V1.09h-12.371Zm0 0"/><use xlink:href="#c" x="296.902" y="10.938"/><path fill="#CCF" stroke="#99F" stroke-miterlimit="10" stroke-width=".399" d="M306.355 14.258h12.368V1.09h-12.368Zm0 0"/><use xlink:href="#c" x="309.671" y="10.938"/><path fill="#CCF" stroke="#99F" stroke-miterlimit="10" stroke-width=".399" d="M319.121 14.313h12.371V1.034h-12.37Zm0 0"/><use xlink:href="#a" x="322.44" y="10.883"/><use xlink:href="#b" x="335.007" y="9.024"/><path fill="#CCF" stroke="#99F" stroke-miterlimit="10" stroke-width=".399" d="M342.348 14.258h12.37V1.09h-12.37Zm0 0"/><use xlink:href="#c" x="345.663" y="10.938"/><path fill="#CCF" stroke="#99F" stroke-miterlimit="10" stroke-width=".399" d="M355.117 14.258h12.367V1.09h-12.367Zm0 0"/><use xlink:href="#c" x="358.432" y="10.938"/><path fill="#CCF" stroke="#99F" stroke-miterlimit="10" stroke-width=".399" d="M367.883 14.258h12.37V1.09h-12.37Zm0 0"/><use xlink:href="#c" x="371.2" y="10.938"/></svg>