<svg xmlns="http://www.w3.org/2000/svg" width="291.07" height="64.28"><defs><clipPath id="a"><path d="M83 21h50v42.922H83Zm0 0"/></clipPath><clipPath id="b"><path d="M98 32h50v31.922H98Zm0 0"/></clipPath><clipPath id="c"><path d="M113 35h50v28.922h-50Zm0 0"/></clipPath><clipPath id="d"><path d="M127 31h51v32.922h-51Zm0 0"/></clipPath><clipPath id="e"><path d="M142 20h50v43.922h-50Zm0 0"/></clipPath><clipPath id="f"><path d="M247 8h43.605v50H247Zm0 0"/></clipPath><clipPath id="g"><path d="M262 22h28.605v41.922H262Zm0 0"/></clipPath></defs><path fill="none" stroke="#000" stroke-miterlimit="10" stroke-width="1.594" d="M18.258 31.79V17.546m14.918 14.242V7.164M48.098 31.79V3.441M63.016 31.79V7.395m14.918 24.394V17.95m14.921 13.84v.461m14.918-.46v14.636m14.918-14.637v24.852m14.922-24.852v28.336m14.918-28.336v24.152M167.45 31.79v13.434m14.922-13.434v-.926m14.918.926V16.758m14.922 15.031V6.72m14.918 25.07V3.465m14.918 28.324V7.88m14.922 23.91V18.762m14.918 13.027v1.387m14.918-1.387v15.422"/><path stroke="#000" stroke-miterlimit="10" stroke-width="1.594" d="M5.332 31.79a1.994 1.994 0 0 0-3.988 0c0 1.097.894 1.991 1.996 1.991a1.996 1.996 0 0 0 1.992-1.992ZM20.25 17.547a1.993 1.993 0 1 0-3.986.002 1.993 1.993 0 0 0 3.986-.002ZM35.168 7.164c0-1.101-.89-1.996-1.992-1.996a1.994 1.994 0 0 0 0 3.988 1.993 1.993 0 0 0 1.992-1.992ZM50.09 3.441a1.993 1.993 0 1 0-3.986.002 1.993 1.993 0 0 0 3.986-.002ZM65.008 7.395a1.99 1.99 0 0 0-1.992-1.993 1.99 1.99 0 0 0-1.993 1.993 1.99 1.99 0 0 0 1.993 1.992 1.99 1.99 0 0 0 1.992-1.992ZM79.926 17.95a1.993 1.993 0 1 0-3.983.002 1.993 1.993 0 0 0 3.983-.003ZM94.848 32.25a1.993 1.993 0 1 0-3.986.002 1.993 1.993 0 0 0 3.986-.002Zm0 0"/><path d="M109.766 46.426a1.99 1.99 0 0 0-1.993-1.992 1.99 1.99 0 0 0-1.992 1.992 1.99 1.99 0 0 0 1.992 1.992 1.99 1.99 0 0 0 1.993-1.992m0 0"/><g clip-path="url(#a)"><path fill="none" stroke="#000" stroke-miterlimit="10" stroke-width="1.594" d="M109.766 46.426a1.99 1.99 0 0 0-1.993-1.992 1.99 1.99 0 0 0-1.992 1.992 1.99 1.99 0 0 0 1.992 1.992 1.99 1.99 0 0 0 1.993-1.992Zm0 0"/></g><path d="M124.684 56.64a1.993 1.993 0 1 0-3.983.002 1.993 1.993 0 0 0 3.983-.001m0 0"/><g clip-path="url(#b)"><path fill="none" stroke="#000" stroke-miterlimit="10" stroke-width="1.594" d="M124.684 56.64a1.993 1.993 0 1 0-3.983.002 1.993 1.993 0 0 0 3.983-.001Zm0 0"/></g><path d="M139.605 60.125a1.993 1.993 0 1 0-3.986.002 1.993 1.993 0 0 0 3.986-.002m0 0"/><g clip-path="url(#c)"><path fill="none" stroke="#000" stroke-miterlimit="10" stroke-width="1.594" d="M139.605 60.125a1.993 1.993 0 1 0-3.986.002 1.993 1.993 0 0 0 3.986-.002Zm0 0"/></g><path d="M154.523 55.941a1.993 1.993 0 1 0-1.992 1.996 1.994 1.994 0 0 0 1.992-1.996m0 0"/><g clip-path="url(#d)"><path fill="none" stroke="#000" stroke-miterlimit="10" stroke-width="1.594" d="M154.523 55.941a1.993 1.993 0 1 0-1.992 1.996 1.994 1.994 0 0 0 1.992-1.996Zm0 0"/></g><path d="M169.445 45.223a1.994 1.994 0 0 0-3.988 0c0 1.097.895 1.992 1.992 1.992a1.996 1.996 0 0 0 1.996-1.992m0 0"/><g clip-path="url(#e)"><path fill="none" stroke="#000" stroke-miterlimit="10" stroke-width="1.594" d="M169.445 45.223a1.994 1.994 0 0 0-3.988 0c0 1.097.895 1.992 1.992 1.992a1.996 1.996 0 0 0 1.996-1.992Zm0 0"/></g><path stroke="#000" stroke-miterlimit="10" stroke-width="1.594" d="M184.363 30.863a1.99 1.99 0 0 0-1.992-1.992 1.99 1.99 0 0 0-1.992 1.992 1.99 1.99 0 0 0 1.992 1.992 1.99 1.99 0 0 0 1.992-1.992ZM199.281 16.758a1.993 1.993 0 1 0-3.983.002 1.993 1.993 0 0 0 3.983-.002ZM214.203 6.719a1.994 1.994 0 0 0-3.988 0c0 1.097.894 1.992 1.996 1.992a1.996 1.996 0 0 0 1.992-1.992ZM229.121 3.465a1.99 1.99 0 0 0-1.992-1.992 1.99 1.99 0 0 0-1.992 1.992 1.99 1.99 0 0 0 1.992 1.992 1.99 1.99 0 0 0 1.992-1.992ZM244.04 7.879a1.993 1.993 0 1 0-3.983.002 1.993 1.993 0 0 0 3.982-.002ZM258.96 18.762a1.993 1.993 0 0 0-3.984 0c0 1.101.891 1.996 1.993 1.996a1.996 1.996 0 0 0 1.992-1.996Zm0 0"/><path d="M273.879 33.176c0-1.102-.89-1.996-1.992-1.996a1.994 1.994 0 0 0 0 3.988 1.993 1.993 0 0 0 1.992-1.992m0 0"/><g clip-path="url(#f)"><path fill="none" stroke="#000" stroke-miterlimit="10" stroke-width="1.594" d="M273.879 33.176c0-1.102-.89-1.996-1.992-1.996a1.994 1.994 0 0 0 0 3.988 1.993 1.993 0 0 0 1.992-1.992Zm0 0"/></g><path d="M288.797 47.21c0-1.1-.89-1.995-1.992-1.995a1.996 1.996 0 0 0-1.993 1.996 1.993 1.993 0 0 0 3.984 0m0 0"/><g clip-path="url(#g)"><path fill="none" stroke="#000" stroke-miterlimit="10" stroke-width="1.594" d="M288.797 47.21c0-1.1-.89-1.995-1.992-1.995a1.996 1.996 0 0 0-1.993 1.996 1.993 1.993 0 0 0 3.984 0Zm0 0"/></g></svg>