<?xml version="1.0" encoding="UTF-8"?>
<svg xmlns="http://www.w3.org/2000/svg" xmlns:xlink="http://www.w3.org/1999/xlink" width="100.77pt" height="112.142pt" viewBox="0 0 100.77 112.142" version="1.2">
<defs>
<clipPath id="clip1">
  <path d="M 30 82 L 71 82 L 71 111.714844 L 30 111.714844 Z M 30 82 "/>
</clipPath>
</defs>
<g id="surface1">
<path style="fill-rule:nonzero;fill:rgb(79.998779%,79.998779%,100%);fill-opacity:1;stroke-width:0.79701;stroke-linecap:butt;stroke-linejoin:miter;stroke:rgb(50%,50%,100%);stroke-opacity:1;stroke-miterlimit:10;" d="M 8.503437 -0.0011875 C 8.503437 4.698031 4.694844 8.502719 -0.00046875 8.502719 C -4.695781 8.502719 -8.504375 4.698031 -8.504375 -0.0011875 C -8.504375 -4.6965 -4.695781 -8.505094 -0.00046875 -8.505094 C 4.694844 -8.505094 8.503437 -4.6965 8.503437 -0.0011875 Z M 8.503437 -0.0011875 " transform="matrix(1,0,0,-1,50.27,9.491)"/>
<path style="fill-rule:nonzero;fill:rgb(79.998779%,79.998779%,100%);fill-opacity:1;stroke-width:0.79701;stroke-linecap:butt;stroke-linejoin:miter;stroke:rgb(50%,50%,100%);stroke-opacity:1;stroke-miterlimit:10;" d="M 8.503437 -46.153531 C 8.503437 -41.454313 4.694844 -37.649625 -0.00046875 -37.649625 C -4.695781 -37.649625 -8.504375 -41.454313 -8.504375 -46.153531 C -8.504375 -50.848844 -4.695781 -54.657438 -0.00046875 -54.657438 C 4.694844 -54.657438 8.503437 -50.848844 8.503437 -46.153531 Z M 8.503437 -46.153531 " transform="matrix(1,0,0,-1,50.27,9.491)"/>
<path style=" stroke:none;fill-rule:nonzero;fill:rgb(79.998779%,79.998779%,100%);fill-opacity:1;" d="M 58.773438 101.792969 C 58.773438 97.097656 54.964844 93.289062 50.269531 93.289062 C 45.574219 93.289062 41.765625 97.097656 41.765625 101.792969 C 41.765625 106.492188 45.574219 110.296875 50.269531 110.296875 C 54.964844 110.296875 58.773438 106.492188 58.773438 101.792969 Z M 58.773438 101.792969 "/>
<g clip-path="url(#clip1)" clip-rule="nonzero">
<path style="fill:none;stroke-width:0.79701;stroke-linecap:butt;stroke-linejoin:miter;stroke:rgb(50%,50%,100%);stroke-opacity:1;stroke-miterlimit:10;" d="M 8.503437 -92.301969 C 8.503437 -87.606656 4.694844 -83.798063 -0.00046875 -83.798063 C -4.695781 -83.798063 -8.504375 -87.606656 -8.504375 -92.301969 C -8.504375 -97.001188 -4.695781 -100.805875 -0.00046875 -100.805875 C 4.694844 -100.805875 8.503437 -97.001188 8.503437 -92.301969 Z M 8.503437 -92.301969 " transform="matrix(1,0,0,-1,50.27,9.491)"/>
</g>
<path style="fill-rule:nonzero;fill:rgb(79.998779%,79.998779%,79.998779%);fill-opacity:1;stroke-width:0.79701;stroke-linecap:butt;stroke-linejoin:miter;stroke:rgb(50%,50%,50%);stroke-opacity:1;stroke-miterlimit:10;" d="M 37.647969 -51.8215 L 48.987812 -51.8215 L 48.987812 -40.481656 L 37.647969 -40.481656 Z M 37.647969 -51.8215 " transform="matrix(1,0,0,-1,50.27,9.491)"/>
<path style="fill-rule:nonzero;fill:rgb(79.998779%,79.998779%,79.998779%);fill-opacity:1;stroke-width:0.79701;stroke-linecap:butt;stroke-linejoin:miter;stroke:rgb(50%,50%,50%);stroke-opacity:1;stroke-miterlimit:10;" d="M -48.984844 -51.8215 L -37.648906 -51.8215 L -37.648906 -40.481656 L -48.984844 -40.481656 Z M -48.984844 -51.8215 " transform="matrix(1,0,0,-1,50.27,9.491)"/>
<path style="fill:none;stroke-width:0.3985;stroke-linecap:butt;stroke-linejoin:miter;stroke:rgb(0%,0%,0%);stroke-opacity:1;stroke-miterlimit:10;" d="M -37.250469 -46.153531 L -9.30125 -46.153531 " transform="matrix(1,0,0,-1,50.27,9.491)"/>
<path style="fill:none;stroke-width:0.3985;stroke-linecap:round;stroke-linejoin:round;stroke:rgb(0%,0%,0%);stroke-opacity:1;stroke-miterlimit:10;" d="M -2.070564 2.39287 C -1.695564 0.95537 -0.851814 0.279589 -0.00025125 -0.00166125 C -0.851814 -0.279005 -1.695564 -0.954786 -2.070564 -2.392286 " transform="matrix(1,0,0,-1,41.16822,55.64287)"/>
<path style="fill:none;stroke-width:0.3985;stroke-linecap:butt;stroke-linejoin:miter;stroke:rgb(0%,0%,0%);stroke-opacity:1;stroke-miterlimit:10;" d="M -43.535625 -39.684781 C -44.750469 -19.239469 -29.383281 -1.712125 -8.898906 -0.282438 " transform="matrix(1,0,0,-1,50.27,9.491)"/>
<path style="fill:none;stroke-width:0.3985;stroke-linecap:round;stroke-linejoin:round;stroke:rgb(0%,0%,0%);stroke-opacity:1;stroke-miterlimit:10;" d="M -2.070376 2.391413 C -1.692811 0.955388 -0.851172 0.277987 -0.00129335 -0.000577668 C -0.8508 -0.278084 -1.692959 -0.955514 -2.071019 -2.389739 " transform="matrix(0.06958,0.99756,0.99756,-0.06958,6.74676,49.37625)"/>
<path style="fill:none;stroke-width:0.3985;stroke-linecap:butt;stroke-linejoin:miter;stroke:rgb(0%,0%,0%);stroke-opacity:1;stroke-miterlimit:10;" d="M -43.508281 -52.219938 C -44.937969 -72.704313 -29.715313 -90.356656 -9.293438 -91.993375 " transform="matrix(1,0,0,-1,50.27,9.491)"/>
<path style="fill:none;stroke-width:0.3985;stroke-linecap:round;stroke-linejoin:round;stroke:rgb(0%,0%,0%);stroke-opacity:1;stroke-miterlimit:10;" d="M -2.071523 2.39215 C -1.693463 0.957925 -0.851304 0.280494 -0.00152552 -0.000908362 C -0.851404 -0.279473 -1.693043 -0.956874 -2.07088 -2.389002 " transform="matrix(0.99756,0.06958,0.06958,-0.99756,41.17346,101.4992)"/>
</g>
</svg>
