<svg xmlns="http://www.w3.org/2000/svg" width="101.638" height="45.146"><defs><clipPath id="a"><path d="M71 0h30v30H71Zm0 0"/></clipPath><clipPath id="b"><path d="M100.043 15.164c0-7.828-6.348-14.176-14.176-14.176S71.695 7.336 71.695 15.164c0 7.824 6.344 14.172 14.172 14.172s14.176-6.348 14.176-14.172m0 0"/></clipPath><clipPath id="c"><path d="M60 0h41.457v41H60Zm0 0"/></clipPath></defs><path fill="none" stroke="#000" stroke-miterlimit="10" stroke-width=".399" d="M.828 43.508h2.098V41.41h2.101v2.098H7.13V41.41H5.027V39.31H7.13V37.21h2.098v-2.102h2.101v2.102h2.098v2.098h2.101v2.101h-2.101v2.098h2.101V41.41h2.098v2.098h2.102V41.41h-2.102V39.31h2.102V37.21h-2.102v2.098h-2.098V37.21h-2.101v-2.102h-2.098v-2.097h2.098V30.91h2.101v-2.097h2.098v2.097h2.102v-2.097h-2.102V26.71h2.102v-2.098h2.097v-2.101h2.102v2.101h2.097v-2.101h-2.097V20.41h2.097v-2.097h2.102V16.21h2.098v2.102h2.101v2.097h2.098v2.102h-2.098v2.101h2.098v-2.101h2.101v2.101h2.102v2.098h2.098v2.102h-2.098v2.097h2.098v-2.097h2.101v2.097h2.098v2.102h2.101v2.097h-2.101v2.102h-2.098v2.098h-2.101V37.21h-2.098v2.098h2.098v2.101h-2.098v2.098h2.098V41.41h2.101v2.098h2.098V41.41h-2.098V39.31h2.098V37.21h2.101v-2.102h2.098v2.102h2.102v2.098h2.097v2.101h-2.097v2.098h2.097V41.41h2.102v2.098h2.101"/><path fill="none" stroke="red" stroke-miterlimit="10" stroke-width=".199" d="M50.906 35.004a4.725 4.725 0 1 0-9.45.004 4.725 4.725 0 0 0 9.45-.004Zm0 0"/><g clip-path="url(#a)"><g clip-path="url(#b)"><path fill="none" stroke="#000" stroke-miterlimit="10" stroke-width="1.197" d="M-50.195 40.676h6.297v-6.301h6.3v6.3h6.297v-6.3h-6.297v-6.297h6.297v-6.3H-25V15.48h6.297v6.297h6.3v6.301h6.298v6.297h-6.297v6.3h6.3v-6.3H.195v6.3h6.301v-6.3h-6.3v-6.297h6.3v-6.3h-6.3v6.3h-6.298v-6.3h-6.3V15.48H-18.7v-6.3h6.297V2.879h6.3v-6.297H.195v6.297h6.301v-6.297h-6.3v-6.3h6.3v-6.298h6.297v-6.3h6.3v6.3h6.302v-6.3h-6.301v-6.301h6.3v-6.297h6.297v-6.3h6.301v6.3h6.297v6.297h6.3v6.3h-6.3v6.301h6.3v-6.3h6.298v6.3h6.3v6.297h6.301v6.301h-6.3v6.297h6.3v-6.297h6.297v6.297h6.3v6.3h6.298v6.298h-6.297v6.3h-6.3v6.297h-6.298v-6.297h-6.3v6.301h6.3v6.297h-6.3v6.3h6.3v-6.3h6.297v6.3h6.3v-6.3H75.79v-6.297h6.297v-6.3h6.3v-6.301h6.298v6.3h6.3v6.301h6.301v6.297h-6.3v6.3h6.3v-6.3h6.297v6.3h6.3"/></g></g><g clip-path="url(#c)"><path fill="none" stroke="red" stroke-miterlimit="10" stroke-width=".797" d="M100.043 15.164c0-7.828-6.348-14.176-14.176-14.176S71.695 7.336 71.695 15.164c0 7.824 6.344 14.172 14.172 14.172s14.176-6.348 14.176-14.172Zm0 0"/></g><path fill="none" stroke="red" stroke-miterlimit="10" stroke-width=".399" d="M50.41 32.89 73.191 21.5"/></svg>