<svg xmlns="http://www.w3.org/2000/svg" xmlns:xlink="http://www.w3.org/1999/xlink" width="87.256" height="58.988"><defs><path id="b" d="m2.203 4.406.422-.203L2 2.953 7.125.375c.219-.094.297-.14.172-.375-.047-.094-.047-.11-.172-.172-.844-.422-1.297-1.344-1.39-1.531l-.094-.188-.422.22.093.187c.063.14.329.609.766 1.062l-4.61 2.313L.845.656.422.86c.234.375.703 1.313.922 1.75a46 46 0 0 1 .86 1.797m0 0"/><path id="c" d="M3.172 3.734c.125-.062.062-.187.031-.28-.094-.157-.125-.142-.25-.142-.687.063-1.047-.296-1.281-.75C1.047 1.329 2.344.688 2.766.47c.5-.25 1.64-.828 2.218.312.157.328.22.485.266.625-.25-.093-.437-.031-.516.016a.62.62 0 0 0-.296.828c.14.281.484.484.859.297.766-.375.297-1.453.031-1.969-.797-1.594-2.14-1.765-3.172-1.25-1.187.61-1.625 1.875-.953 3.25.734 1.453 1.906 1.203 1.969 1.156m0 0"/><path id="d" d="m4.172 8.344.422-.203-.313-.61 2.297-1.156c.922-.469 1.078-1.11.61-2.031-.407-.813-1.094-1.047-1.61-1.094.734-.562.36-1.406.188-1.734C5.375.719 4.719.422 4.016.406l.968-.484-.843-1.484-.422.203c.265.547.312.609-.031.78L.938.814.625.203.203.406.797 1.5l.531 1.14.422-.203-.312-.609L3.297.891a1.523 1.523 0 0 1 2.078.64c.14.282.063.578-.625.922L2.344 3.656l-.297-.61-.422.204.594 1.11.531 1.14.422-.203-.313-.625 1.86-.938a1.52 1.52 0 0 1 2.078.625c.14.313.078.594-.61.938L3.782 6.5l-.312-.61-.422.204.594 1.11Zm0 0"/><clipPath id="a"><path d="M23 23h63.883v35.98H23Zm0 0"/></clipPath></defs><path fill="none" stroke="#7F7F7F" stroke-miterlimit="10" stroke-width=".199" d="M.738 57.785h85.04M.737 29.441h85.04M.737 1.101h85.04M.737 57.786V1.094m28.344 56.691V1.094M57.43 57.785V1.094m28.336 56.691V1.094"/><g clip-path="url(#a)"><path fill="none" stroke="#000" stroke-miterlimit="10" stroke-width=".399" d="m29.082 57.785 56.695-28.344"/></g><path fill="none" stroke="#000" stroke-miterlimit="10" stroke-width=".399" d="m43.078 50.344-12.32-24.64"/><path fill="none" stroke="#000" stroke-linecap="round" stroke-linejoin="round" stroke-miterlimit="10" stroke-width=".39896808000000006" d="M44.379 47.598c-1.113.98-1.34 2.039-1.211 2.925-.629-.636-1.613-1.09-3.066-.785"/><path fill="none" stroke="#000" stroke-linecap="round" stroke-linejoin="round" stroke-miterlimit="10" stroke-width=".39897606" d="M29.457 28.45c1.117-.981 1.344-2.04 1.215-2.923.629.633 1.61 1.086 3.062.782"/><use xlink:href="#b" x="35.567" y="27.317"/><use xlink:href="#c" x="38.129" y="32.44"/><use xlink:href="#d" x="40.405" y="36.994"/></svg>