<svg xmlns="http://www.w3.org/2000/svg" xmlns:xlink="http://www.w3.org/1999/xlink" width="286.076" height="245.504"><defs><path id="b" d="M7.64-2.266c0-.203-.077-.203-.25-.203-.124 0-.218 0-.218.172C7.094-.969 5.89-.359 4.89-.359c-.782 0-1.625-.235-2.141-.844-.469-.578-.594-1.313-.594-2.219 0-.562.031-1.625.672-2.297.64-.656 1.516-.765 2.031-.765 1.079 0 2.016.765 2.235 2.03.031.188.047.204.265.204.266 0 .282-.016.282-.281v-2.14c0-.188 0-.282-.188-.282-.094 0-.11.031-.187.094l-.657.593a3.03 3.03 0 0 0-1.968-.687c-2.485 0-4 1.484-4 3.531S2.156.11 4.64.11c1.875 0 3-1.218 3-2.375m0 0"/><path id="c" d="M2.922 0v-.469h-.688v-6.453L.47-6.844v.469c.625 0 .687 0 .687.39v5.516H.47V0l1.219-.031Zm0 0"/><path id="d" d="M5.406-2.172c0-1.344-.922-2.344-2.547-2.344C1.22-4.516.313-3.5.313-2.172c0 1.235.89 2.235 2.546 2.235 1.672 0 2.547-1.016 2.547-2.235m-1.281-.11c0 .86 0 1.938-1.266 1.938-1.265 0-1.265-1.078-1.265-1.937 0-.453 0-.953.172-1.297.187-.375.609-.578 1.093-.578.422 0 .844.156 1.063.5.203.344.203.89.203 1.375m0 0"/><path id="e" d="M6.125 0v-.469c-.61 0-.687 0-.687-.39v-3.625l-1.813.078v.468c.61 0 .688 0 .688.391v1.906c0 .813-.516 1.344-1.235 1.344-.781 0-.812-.25-.812-.797v-3.39l-1.813.078v.468c.61 0 .688 0 .688.391v2.328c0 1.063.797 1.282 1.797 1.282.25 0 .968 0 1.421-.782v.782Zm0 0"/><path id="f" d="M5.984 0v-.469c-.609 0-.687 0-.687-.39v-6.063l-1.766.078v.469c.625 0 .703 0 .703.39v1.954a2.18 2.18 0 0 0-1.359-.453c-1.453 0-2.5.875-2.5 2.28 0 1.313.922 2.267 2.39 2.267.61 0 1.094-.235 1.407-.485v.485ZM4.172-1.031c-.14.187-.547.734-1.297.734-1.219 0-1.219-1.203-1.219-1.906 0-.485 0-1.016.25-1.406.297-.422.766-.516 1.078-.516.563 0 .97.313 1.188.61Zm0 0"/><path id="g" d="M5.516-.234c0-.235-.125-.235-.266-.235-.61-.015-.61-.14-.61-.375v-2.14c0-.891-.702-1.532-2.187-1.532-.562 0-1.781.047-1.781.922 0 .438.344.625.61.625.312 0 .624-.219.624-.625 0-.297-.187-.469-.218-.5a5 5 0 0 1 .718-.062c.75 0 1.11.422 1.11 1.172v.343c-.72.032-3.25.125-3.25 1.563C.266-.125 1.5.062 2.188.062c.796 0 1.265-.406 1.484-.828 0 .313 0 .766 1.047.766h.468c.204 0 .329 0 .329-.234m-2-1.157c0 .97-.922 1.094-1.172 1.094-.516 0-.906-.344-.906-.797 0-1.062 1.578-1.203 2.078-1.234Zm0 0"/><path id="h" d="M3.813-1.234v-.532h-.47v.516c0 .672-.327.906-.609.906-.578 0-.578-.64-.578-.86v-2.75h1.469v-.468H2.156v-1.906h-.469c0 1-.484 1.984-1.484 2.016v.359h.828v2.734c0 1.063.86 1.282 1.578 1.282.75 0 1.204-.579 1.204-1.297m0 0"/><path id="i" d="M3.078.313c0-.125-.047-.157-.187-.25C2.063-.5 1.75-1.391 1.75-2.125c0-.672.25-1.594 1.156-2.203.125-.094.172-.125.172-.25a.254.254 0 0 0-.265-.25c-.204 0-1.641.906-1.641 2.703 0 .813.312 1.438.562 1.781.375.516.907.907 1.079.907.218 0 .265-.172.265-.25m0 0"/><path id="j" d="M3.219-.906c0-.735-.906-.906-1.14-.938l-.704-.125C1.188-2 1-2.079 1-2.25c0-.156.219-.328.813-.328.515 0 .609.172.625.328.015.14.03.281.28.281.298 0 .298-.156.298-.328v-.469c0-.14-.016-.328-.25-.328-.157 0-.22.063-.25.125-.282-.125-.563-.125-.688-.125-1.187 0-1.344.594-1.344.844 0 .656.735.797 1.391.89.297.063.828.141.828.454 0 .234-.25.422-.828.422-.297 0-.656-.063-.812-.563C1.03-1.203.984-1.28.78-1.28c-.297 0-.297.172-.297.328v.656c0 .14 0 .344.25.344.079 0 .188 0 .282-.234.328.218.672.234.859.234 1.125 0 1.344-.61 1.344-.953m0 0"/><path id="k" d="M2.313-.469a.477.477 0 0 0-.485-.484.47.47 0 0 0-.469.469c0 .28.22.484.47.484a.473.473 0 0 0 .484-.469m0 0"/><path id="l" d="M3.422-1.516c0-.875-.64-1.562-1.39-1.562-.298 0-.579.11-.813.281 0-.172-.063-.234-.313-.234h-.5c-.14 0-.343 0-.343.25 0 .265.218.265.328.265h.25v3.5H.406c-.14 0-.343 0-.343.266 0 .25.218.25.328.25h1.093c.11 0 .329 0 .329-.25 0-.266-.204-.266-.344-.266h-.25V-.234c.265.234.531.28.734.28.766 0 1.469-.671 1.469-1.562m-.578 0c0 .61-.453 1.032-.906 1.032-.485 0-.704-.563-.704-.875v-.485c0-.375.375-.703.766-.703.469 0 .844.469.844 1.031m0 0"/><path id="m" d="M3.578-.266c0-.25-.219-.25-.328-.25H3v-2.187c0-.25-.047-.328-.328-.328h-.485c-.14 0-.343 0-.343.25 0 .265.218.265.328.265h.25v1.391c0 .563-.516.64-.719.64-.469 0-.484-.187-.484-.39v-1.828c0-.25-.047-.328-.313-.328h-.5c-.14 0-.328 0-.328.25 0 .265.203.265.313.265h.25v1.688c0 .687.5.875 1.03.875.266 0 .517-.063.767-.219C2.484 0 2.625 0 2.75 0h.5c.125 0 .328 0 .328-.266m0 0"/><path id="n" d="M3.063-3.844c0-.437-.579-.453-.704-.453-.578 0-1.125.328-1.125.953v.313H.61c-.125 0-.328 0-.328.25 0 .265.203.265.328.265h.625v2H.61c-.125 0-.343 0-.343.25C.266 0 .484 0 .609 0h1.844c.125 0 .328 0 .328-.266 0-.25-.203-.25-.328-.25h-.64v-2h.78c.11 0 .313 0 .313-.265 0-.25-.187-.25-.312-.25h-.781v-.266c0-.453.359-.484.562-.484.031.11.125.297.344.297a.35.35 0 0 0 .344-.36m0 0"/><path id="o" d="M3.094-.266c0-.25-.188-.25-.313-.25H2.22V-4c0-.125-.016-.328-.266-.328-.156 0-.219.094-.25.187-.234.547-.578.625-.687.641-.141 0-.313.031-.313.266 0 .203.156.25.281.25s.375-.032.657-.235v2.703h-.563c-.14 0-.328 0-.328.25C.75 0 .953 0 1.078 0h1.703c.125 0 .313 0 .313-.266m0 0"/><path id="p" d="M2.484-2.125c0-.828-.312-1.453-.562-1.797-.375-.515-.906-.906-1.078-.906-.203 0-.266.187-.266.25 0 .125.094.187.14.219 1.095.718 1.188 1.797 1.188 2.234 0 .656-.25 1.578-1.14 2.188C.64.14.578.188.578.313c0 .078.063.25.266.25s1.64-.907 1.64-2.688m0 0"/><path id="q" d="M3.297-.328v-.188c0-.156 0-.328-.266-.328-.265 0-.297.125-.297.328H1.313c.406-.343.968-.796 1.234-1.03.437-.391.75-.845.75-1.407 0-.844-.703-1.375-1.563-1.375-.828 0-1.39.578-1.39 1.187 0 .297.234.375.36.375.171 0 .359-.14.359-.359a.35.35 0 0 0-.094-.234c.11-.266.39-.453.734-.453.531 0 1.031.296 1.031.859 0 .453-.328.844-.765 1.203L.469-.484C.39-.422.344-.391.344-.266.344 0 .547 0 .672 0h2.312c.266 0 .313-.062.313-.328m0 0"/><path id="r" d="M3.36-1.234c0-.47-.297-.875-.72-1.094.344-.25.516-.64.516-1 0-.516-.515-1-1.328-1-.86 0-1.344.36-1.344.844 0 .265.204.375.36.375.172 0 .36-.141.36-.36 0-.078-.032-.14-.048-.172.203-.171.625-.171.688-.171.422 0 .734.218.734.5a.72.72 0 0 1-.25.546c-.219.172-.375.188-.61.188-.437 0-.546.062-.546.281 0 .266.203.266.328.266h.313c.64 0 .968.422.968.797 0 .39-.36.78-.937.78-.25 0-.719-.062-.907-.327A.36.36 0 0 0 1-1a.363.363 0 0 0-.36-.36c-.171 0-.343.126-.343.391C.297-.344.969.078 1.844.078c.922 0 1.515-.656 1.515-1.312m0 0"/><path id="s" d="M3.469-1.406c0-.266-.203-.266-.328-.266h-.485V-4c0-.266-.047-.344-.328-.344h-.187c-.188 0-.235.016-.328.172L.266-1.734c-.079.093-.079.109-.079.265 0 .266.079.313.329.313h1.656v.64h-.36c-.14 0-.328 0-.328.25 0 .266.188.266.329.266H3.03c.125 0 .328 0 .328-.266 0-.25-.203-.25-.328-.25h-.375v-.64h.485c.125 0 .328 0 .328-.25m-1.313-.266H.812l1.344-2.125Zm0 0"/><path id="t" d="M3.297-1.344c0-.718-.531-1.406-1.36-1.406-.234 0-.515.047-.78.172v-1.156H2.75c.11 0 .313-.016.313-.266s-.188-.266-.313-.266H.906c-.265 0-.312.079-.312.344v1.797c0 .156 0 .344.265.344.157 0 .188-.047.25-.125.172-.203.438-.328.813-.328.531 0 .812.484.812.89 0 .516-.468.89-1 .89-.171 0-.562-.046-.75-.358.032-.047.079-.11.079-.22a.367.367 0 0 0-.36-.374c-.125 0-.36.078-.36.39C.344-.437.939.078 1.735.078c.875 0 1.563-.64 1.563-1.422m0 0"/><path id="u" d="M3.297-1.36c0-.812-.625-1.437-1.39-1.437-.329 0-.657.094-.938.313.125-.828.703-1.328 1.25-1.328.156 0 .25.03.297.062-.032.047-.047.094-.047.188 0 .203.14.359.36.359.202 0 .358-.14.358-.375 0-.36-.265-.75-.968-.75-.922 0-1.86.844-1.86 2.25C.36-.422 1.156.078 1.844.078c.765 0 1.453-.594 1.453-1.437m-.578 0a.88.88 0 0 1-.875.907c-.422 0-.672-.313-.797-.703C1-1.313 1-1.484 1-1.563c0-.39.39-.703.875-.703.516 0 .844.422.844.907m0 0"/><path id="v" d="M3.36-4c0-.25-.188-.266-.329-.266H.828c-.062-.093-.187-.109-.25-.109-.281 0-.281.188-.281.344v.281c0 .156 0 .328.281.328.266 0 .281-.125.297-.312h1.61C1.358-2.5 1.155-1.031 1.155-.297c0 .11 0 .375.282.375.14 0 .28-.094.28-.328a4.94 4.94 0 0 1 1.47-3.469c.171-.14.171-.156.171-.281m0 0"/><path id="w" d="M3.36-1.234c0-.485-.376-.875-.844-1.063.484-.203.75-.531.75-.89 0-.579-.594-1.141-1.438-1.141-.86 0-1.437.562-1.437 1.14 0 .36.265.704.734.891-.469.188-.828.578-.828 1.063 0 .687.64 1.312 1.531 1.312S3.36-.547 3.36-1.234m-.672-1.953c0 .359-.407.64-.86.64-.469 0-.86-.281-.86-.64 0-.329.36-.626.86-.626s.86.297.86.626m.093 1.953c0 .437-.422.78-.953.78s-.953-.343-.953-.78c0-.391.36-.797.953-.797.578 0 .953.406.953.797m0 0"/><path id="x" d="M3.297-2.172c0-1.687-.781-2.156-1.453-2.156-.782 0-1.485.578-1.485 1.437 0 .797.61 1.422 1.391 1.422.328 0 .656-.078.953-.312-.125.75-.594 1.328-1.187 1.328-.047 0-.235 0-.375-.063.015-.046.03-.093.03-.187a.337.337 0 0 0-.343-.344c-.203 0-.36.125-.36.375 0 .219.126.75 1.048.75s1.78-.875 1.78-2.25m-.64-.531c0 .36-.344.703-.876.703-.515 0-.86-.422-.86-.89 0-.563.47-.922.923-.922.578 0 .812.64.812 1.109m0 0"/><path id="y" d="M3.313-2.125c0-1.297-.72-2.203-1.485-2.203-.781 0-1.5.922-1.5 2.203 0 1.297.734 2.203 1.5 2.203.781 0 1.485-.922 1.485-2.203m-.563-.078c0 .969-.422 1.75-.922 1.75-.516 0-.922-.781-.922-1.75 0-.953.438-1.61.922-1.61.469 0 .922.657.922 1.61m0 0"/><path id="z" d="M3.266-.797c0-.234-.235-.234-.297-.234-.125 0-.203 0-.266.172-.047.078-.187.375-.625.375a1.027 1.027 0 0 1-1.015-1.032c0-.312.187-1.062 1.062-1.062l.344.015c.015.282.172.376.36.376.187 0 .358-.126.358-.36 0-.531-.734-.547-1.062-.547-1.219 0-1.64.953-1.64 1.578 0 .844.671 1.563 1.546 1.563 1 0 1.235-.719 1.235-.844m0 0"/><path id="A" d="M3.25-.797c0-.234-.234-.234-.281-.234-.156 0-.219.015-.281.172-.141.328-.485.375-.657.375-.469 0-.937-.297-1.062-.813h1.953c.172 0 .328 0 .328-.312 0-.797-.453-1.485-1.375-1.485-.828 0-1.516.703-1.516 1.563S1.08.047 1.984.047c.938 0 1.266-.656 1.266-.844m-.594-1.015H.97c.125-.438.484-.766.906-.766.328 0 .703.156.781.765m0 0"/><path id="B" d="M3.578-.266c0-.25-.203-.25-.328-.25H3v-1.53c0-.72-.36-1.032-.937-1.032-.391 0-.672.172-.844.297 0-.172-.047-.25-.313-.25h-.5c-.14 0-.328 0-.328.25 0 .265.203.265.313.265h.25v2H.406c-.14 0-.328 0-.328.25C.078 0 .281 0 .391 0h1.093c.11 0 .329 0 .329-.266 0-.25-.204-.25-.344-.25h-.25v-1.156c0-.64.484-.875.797-.875.328 0 .406.172.406.547v1.484h-.203c-.14 0-.344 0-.344.25 0 .266.219.266.344.266H3.25c.11 0 .328 0 .328-.266m0 0"/><path id="C" d="M3.14-.906c0-.156 0-.313-.296-.313-.266 0-.266.157-.266.297-.015.375-.36.438-.515.438-.454 0-.454-.313-.454-.47v-1.562h1.047c.125 0 .328 0 .328-.265 0-.25-.187-.25-.328-.25H1.61v-.516c0-.14-.015-.328-.296-.328-.282 0-.282.172-.282.328v.516H.484c-.125 0-.328 0-.328.25 0 .265.203.265.328.265h.547v1.61c0 .687.485.953 1.016.953S3.14-.266 3.14-.906m0 0"/><path id="D" d="M3.406-2.594c0-.156-.078-.484-.703-.484-.328 0-.734.11-1.094.469v-.094c0-.25-.046-.328-.328-.328h-.75c-.125 0-.328 0-.328.25 0 .265.203.265.328.265h.5v2h-.5c-.125 0-.328 0-.328.25C.203 0 .406 0 .531 0h1.781c.126 0 .329 0 .329-.266 0-.25-.203-.25-.328-.25h-.704v-.796c0-.61.36-1.22 1.11-1.235 0 .156.172.281.344.281.187 0 .343-.125.343-.328m0 0"/><path id="E" d="M3.422-1.516c0-.875-.64-1.562-1.39-1.562-.298 0-.579.11-.813.265v-1.109c0-.25-.047-.344-.313-.344h-.5c-.14 0-.343.016-.343.266s.218.266.328.266h.25v3.406C.64-.172.656 0 .938 0c.218 0 .28-.094.28-.234.266.218.532.28.735.28.766 0 1.469-.671 1.469-1.562m-.578 0c0 .61-.453 1.032-.906 1.032-.485 0-.704-.563-.704-.875v-.485c0-.375.375-.703.766-.703.469 0 .844.469.844 1.031m0 0"/><path id="F" d="M3.625-.266c0-.25-.203-.25-.328-.25-.203 0-.297-.03-.344-.046V-2c0-.5-.375-1.094-1.406-1.094-.313 0-1.031.016-1.031.547 0 .235.172.36.359.36.11 0 .344-.063.344-.36 0 0 .234-.031.343-.031.454 0 .782.187.813.594-1.219.03-2.047.39-2.047 1.062 0 .485.453.969 1.188.969.234 0 .656-.047.968-.25.172.187.485.203.75.203.235 0 .391-.016.391-.266M2.359-.969c0 .14 0 .266-.234.375-.234.11-.516.11-.578.11-.39 0-.64-.203-.64-.438 0-.312.546-.515 1.452-.562Zm0 0"/><path id="G" d="M3.64-.266c0-.218-.14-.25-.39-.25v-1.593c0-.157-.016-.97-.656-.97a.84.84 0 0 0-.656.313.61.61 0 0 0-.532-.312.88.88 0 0 0-.547.203c-.046-.156-.187-.156-.312-.156H.328c-.125 0-.328 0-.328.25 0 .234.125.265.39.265v2c-.265 0-.39.032-.39.25C0 0 .219 0 .328 0h.594c.125 0 .312 0 .312-.266 0-.218-.109-.25-.359-.25v-1.171c0-.563.234-.86.5-.86.14 0 .203.11.203.5v1.531c-.156 0-.281.032-.281.25 0 .266.187.266.312.266h.516c.125 0 .313 0 .313-.266 0-.218-.126-.25-.376-.25v-1.171c0-.563.25-.86.5-.86.141 0 .204.11.204.5v1.531c-.141 0-.282.032-.282.25 0 .266.204.266.313.266h.5c.125 0 .344 0 .344-.266m0 0"/><path id="H" d="M3.188-.266c0-.25-.204-.25-.329-.25h-.656v-2.187c0-.25-.047-.328-.328-.328H.906c-.125 0-.328 0-.328.25 0 .265.203.265.328.265h.719v2H.859c-.14 0-.343 0-.343.25C.516 0 .734 0 .859 0h2c.125 0 .329 0 .329-.266m-.954-3.562a.39.39 0 0 0-.406-.39.387.387 0 0 0-.39.39c0 .219.171.39.39.39a.39.39 0 0 0 .406-.39m0 0"/><path id="I" d="M3.578-.266c0-.25-.203-.25-.328-.25H3v-3.406c0-.25-.047-.344-.328-.344h-.485c-.14 0-.343.016-.343.266s.218.266.328.266h.25v.906a1.26 1.26 0 0 0-.735-.25c-.765 0-1.453.672-1.453 1.562C.234-.64.875.047 1.625.047c.344 0 .61-.14.797-.313.015.188.062.266.328.266h.5c.125 0 .328 0 .328-.266M2.422-1.375c0 .36-.297.89-.781.89-.453 0-.828-.452-.828-1.03 0-.61.437-1.032.89-1.032.406 0 .719.344.719.688Zm0 0"/><path id="J" d="M3.469-.266c0-.25-.203-.25-.328-.25h-.25l-.828-1.046.734-.954h.234c.125 0 .344 0 .344-.265 0-.25-.219-.25-.344-.25H2.25c-.125 0-.328 0-.328.25 0 .203.11.265.281.265l-.39.547-.422-.547c.156 0 .28-.062.28-.265 0-.25-.202-.25-.327-.25H.547c-.125 0-.328 0-.328.25 0 .265.219.265.328.265h.25l.75.954L.75-.516H.516c-.125 0-.344 0-.344.25C.172 0 .39 0 .516 0h.78c.126 0 .329 0 .329-.266 0-.203-.11-.25-.297-.25l.484-.703.5.703c-.187 0-.296.047-.296.25 0 .266.203.266.328.266h.797c.109 0 .328 0 .328-.266m0 0"/><path id="K" d="M3.281-1.516c0-.89-.672-1.578-1.453-1.578-.797 0-1.453.688-1.453 1.578S1.047.047 1.828.047c.766 0 1.453-.688 1.453-1.563m-.578-.046c0 .593-.406 1.078-.875 1.078S.953-.97.953-1.562s.422-1.016.875-1.016.875.422.875 1.015m0 0"/><path id="L" d="M3.578-.266c0-.25-.203-.25-.328-.25H3v-1.53c0-.72-.36-1.032-.937-1.032-.391 0-.672.172-.844.297v-1.14c0-.25-.047-.345-.313-.345h-.5c-.14 0-.328.016-.328.266s.203.266.313.266h.25v3.218H.406c-.14 0-.328 0-.328.25C.078 0 .281 0 .391 0h1.093c.11 0 .329 0 .329-.266 0-.25-.204-.25-.344-.25h-.25v-1.156c0-.64.484-.875.797-.875.328 0 .406.172.406.547v1.484h-.203c-.14 0-.344 0-.344.25 0 .266.219.266.344.266H3.25c.11 0 .328 0 .328-.266m0 0"/><path id="M" d="M3.547-2.781c0-.25-.188-.25-.328-.25h-.781c-.157 0-.344 0-.344.25 0 .265.172.265.344.265h.265l-.297 1.72-.14-.532c-.125-.469-.172-.547-.422-.547-.094 0-.235 0-.328.188l-.266.906-.297-1.735h.266c.156 0 .343 0 .343-.265 0-.25-.187-.25-.343-.25H.437c-.14 0-.343 0-.343.25 0 .234.14.265.36.265L.858-.28c.032.187.047.312.36.312.312 0 .343-.062.453-.515l.172-.641.265 1c.094.14.235.156.344.156.281 0 .313-.125.344-.312l.406-2.235c.219 0 .344-.03.344-.265m0 0"/><clipPath id="a"><path d="M0 0h285.613v245.258H0Zm0 0"/></clipPath></defs><path fill="#FFFBB3" d="M150.5 32.387c-4.684-8.114-16.074-14.688-25.441-14.688-9.368 0-20.758 6.574-25.442 14.688-6.86-5.133-18.808-6.563-26.683-3.188S57.82 42.22 56.804 50.727c-6.855-.532-15.57 3.644-19.456 9.316-3.887 5.676-4.653 15.336-1.68 21.543-4.684 4.242-7.402 12.695-6.07 18.875s7.297 12.766 13.312 14.7c-1.02 7.663 3.125 17.698 9.25 22.41 6.125 4.714 16.93 6.179 24.074 3.23 2.97 8.66 12.664 17.113 21.653 18.87 8.984 1.759 21.152-2.41 27.172-9.312 6.015 6.903 18.183 11.075 27.168 9.313 8.988-1.758 18.687-10.211 21.656-18.871 7.144 2.949 17.902 1.515 24.031-3.196 6.125-4.714 10.309-14.78 9.29-22.445 6.019-1.933 11.98-8.515 13.312-14.695s-1.383-14.637-6.07-18.88c2.972-6.206 2.226-15.835-1.66-21.51-3.888-5.677-12.618-9.88-19.477-9.348-1.016-8.508-8.227-18.141-16.102-21.516-7.875-3.371-19.848-1.957-26.707 3.176m127.016 195.746c0-4.988-6.477-9.031-14.465-9.031s-14.465 4.043-14.465 9.03c0 4.99 6.476 9.032 14.465 9.032s14.465-4.043 14.465-9.031m-35.118-39.938c0-6.652-8.636-12.043-19.289-12.043-10.652 0-19.289 5.391-19.289 12.043 0 6.649 8.637 12.04 19.29 12.04s19.288-5.391 19.288-12.04m0 0"/><g clip-path="url(#a)"><path fill="none" stroke="#B2B2B2" stroke-miterlimit="10" stroke-width="14.173" d="M150.5 32.387c-4.684-8.114-16.074-14.688-25.441-14.688-9.368 0-20.758 6.574-25.442 14.688-6.86-5.133-18.808-6.563-26.683-3.188S57.82 42.22 56.804 50.727c-6.855-.532-15.57 3.644-19.456 9.316-3.887 5.676-4.653 15.336-1.68 21.543-4.684 4.242-7.402 12.695-6.07 18.875s7.297 12.766 13.312 14.7c-1.02 7.663 3.125 17.698 9.25 22.41 6.125 4.714 16.93 6.179 24.074 3.23 2.97 8.66 12.664 17.113 21.653 18.87 8.984 1.759 21.152-2.41 27.172-9.312 6.015 6.903 18.183 11.075 27.168 9.313 8.988-1.758 18.687-10.211 21.656-18.871 7.144 2.949 17.902 1.515 24.031-3.196 6.125-4.714 10.309-14.78 9.29-22.445 6.019-1.933 11.98-8.515 13.312-14.695s-1.383-14.637-6.07-18.88c2.972-6.206 2.226-15.835-1.66-21.51-3.888-5.677-12.618-9.88-19.477-9.348-1.016-8.508-8.227-18.141-16.102-21.516-7.875-3.371-19.848-1.957-26.707 3.176Zm127.016 195.746c0-4.988-6.477-9.031-14.465-9.031s-14.465 4.043-14.465 9.03c0 4.99 6.476 9.032 14.465 9.032s14.465-4.043 14.465-9.031Zm-35.118-39.938c0-6.652-8.636-12.043-19.289-12.043-10.652 0-19.289 5.391-19.289 12.043 0 6.649 8.637 12.04 19.29 12.04s19.288-5.391 19.288-12.04Zm0 0"/></g><g fill="#B2B2B2"><use xlink:href="#b" x="89.317" y="118.444"/><use xlink:href="#c" x="97.596" y="118.444"/><use xlink:href="#d" x="100.774" y="118.444"/><use xlink:href="#e" x="106.503" y="118.444"/><use xlink:href="#f" x="112.869" y="118.444"/></g><g fill="#B2B2B2"><use xlink:href="#b" x="123.05" y="118.444"/><use xlink:href="#g" x="131.329" y="118.444"/><use xlink:href="#c" x="136.899" y="118.444"/><use xlink:href="#c" x="140.077" y="118.444"/><use xlink:href="#d" x="143.255" y="118.444"/><use xlink:href="#e" x="148.983" y="118.444"/><use xlink:href="#h" x="155.349" y="118.444"/></g><path fill="none" stroke="#B2B2B2" stroke-miterlimit="10" stroke-width=".996" d="M160.3 118.555V61.75"/><path fill="none" stroke="#000" stroke-miterlimit="10" stroke-width=".399" d="m123.648 12.02 2.82-2.817m-2.82 0 2.82 2.817"/><use xlink:href="#i" x="106.752" y="5.586"/><use xlink:href="#j" x="110.413" y="5.586"/><use xlink:href="#k" x="114.075" y="5.586"/><use xlink:href="#l" x="117.736" y="5.586"/><use xlink:href="#m" x="121.397" y="5.586"/><use xlink:href="#n" x="125.058" y="5.586"/><use xlink:href="#n" x="128.72" y="5.586"/><use xlink:href="#o" x="136.042" y="5.586"/><use xlink:href="#p" x="139.703" y="5.586"/><path fill="none" stroke="#000" stroke-miterlimit="10" stroke-width=".399" d="m68.734 24.094 2.817-2.817m-2.817 0 2.817 2.817"/><use xlink:href="#i" x="51.837" y="17.66"/><use xlink:href="#j" x="55.498" y="17.66"/><use xlink:href="#k" x="59.16" y="17.66"/><use xlink:href="#l" x="62.821" y="17.66"/><use xlink:href="#m" x="66.482" y="17.66"/><use xlink:href="#n" x="70.143" y="17.66"/><use xlink:href="#n" x="73.805" y="17.66"/><use xlink:href="#q" x="81.127" y="17.66"/><use xlink:href="#p" x="84.788" y="17.66"/><path fill="none" stroke="#000" stroke-miterlimit="10" stroke-width=".399" d="m30.094 57.45 2.816-2.821m-2.816 0 2.816 2.82"/><use xlink:href="#i" x="13.197" y="51.014"/><use xlink:href="#j" x="16.858" y="51.014"/><use xlink:href="#k" x="20.52" y="51.014"/><use xlink:href="#l" x="24.181" y="51.014"/><use xlink:href="#m" x="27.842" y="51.014"/><use xlink:href="#n" x="31.503" y="51.014"/><use xlink:href="#n" x="35.165" y="51.014"/><use xlink:href="#r" x="42.48" y="51.014"/><use xlink:href="#p" x="46.141" y="51.014"/><path fill="none" stroke="#000" stroke-miterlimit="10" stroke-width=".399" d="m21.262 103.363 2.816-2.816m-2.816 0 2.816 2.816"/><use xlink:href="#i" x="4.366" y="110.3"/><use xlink:href="#j" x="8.027" y="110.3"/><use xlink:href="#k" x="11.689" y="110.3"/><use xlink:href="#l" x="15.35" y="110.3"/><use xlink:href="#m" x="19.011" y="110.3"/><use xlink:href="#n" x="22.672" y="110.3"/><use xlink:href="#n" x="26.334" y="110.3"/><use xlink:href="#s" x="33.656" y="110.3"/><use xlink:href="#p" x="37.317" y="110.3"/><path fill="none" stroke="#000" stroke-miterlimit="10" stroke-width=".399" d="m46.43 144.598 2.816-2.82m-2.816 0 2.816 2.82"/><use xlink:href="#i" x="7.707" y="144.847"/><use xlink:href="#j" x="11.368" y="144.847"/><use xlink:href="#k" x="15.03" y="144.847"/><use xlink:href="#l" x="18.691" y="144.847"/><use xlink:href="#m" x="22.352" y="144.847"/><use xlink:href="#n" x="26.013" y="144.847"/><use xlink:href="#n" x="29.675" y="144.847"/><use xlink:href="#t" x="36.997" y="144.847"/><use xlink:href="#p" x="40.658" y="144.847"/><path fill="none" stroke="#000" stroke-miterlimit="10" stroke-width=".399" d="m95.113 168.035 2.82-2.816m-2.82 0 2.82 2.816"/><use xlink:href="#i" x="78.218" y="174.971"/><use xlink:href="#j" x="81.879" y="174.971"/><use xlink:href="#k" x="85.541" y="174.971"/><use xlink:href="#l" x="89.202" y="174.971"/><use xlink:href="#m" x="92.863" y="174.971"/><use xlink:href="#n" x="96.524" y="174.971"/><use xlink:href="#n" x="100.186" y="174.971"/><use xlink:href="#u" x="107.508" y="174.971"/><use xlink:href="#p" x="111.169" y="174.971"/><path fill="none" stroke="#000" stroke-miterlimit="10" stroke-width=".399" d="m152.18 168.035 2.82-2.816m-2.82 0 2.82 2.816"/><use xlink:href="#i" x="135.283" y="174.972"/><use xlink:href="#j" x="138.944" y="174.972"/><use xlink:href="#k" x="142.606" y="174.972"/><use xlink:href="#l" x="146.267" y="174.972"/><use xlink:href="#m" x="149.928" y="174.972"/><use xlink:href="#n" x="153.589" y="174.972"/><use xlink:href="#n" x="157.251" y="174.972"/><use xlink:href="#v" x="164.573" y="174.972"/><use xlink:href="#p" x="168.234" y="174.972"/><path fill="none" stroke="#000" stroke-miterlimit="10" stroke-width=".399" d="m200.824 144.629 2.817-2.816m-2.817 0 2.817 2.816"/><use xlink:href="#i" x="205.753" y="144.879"/><use xlink:href="#j" x="209.414" y="144.879"/><use xlink:href="#k" x="213.076" y="144.879"/><use xlink:href="#l" x="216.737" y="144.879"/><use xlink:href="#m" x="220.398" y="144.879"/><use xlink:href="#n" x="224.059" y="144.879"/><use xlink:href="#n" x="227.721" y="144.879"/><use xlink:href="#w" x="235.036" y="144.879"/><use xlink:href="#p" x="238.697" y="144.879"/><path fill="none" stroke="#000" stroke-miterlimit="10" stroke-width=".399" d="m226.031 103.371 2.82-2.82m-2.82 0 2.82 2.82"/><use xlink:href="#i" x="209.135" y="110.306"/><use xlink:href="#j" x="212.796" y="110.306"/><use xlink:href="#k" x="216.458" y="110.306"/><use xlink:href="#l" x="220.119" y="110.306"/><use xlink:href="#m" x="223.78" y="110.306"/><use xlink:href="#n" x="227.441" y="110.306"/><use xlink:href="#n" x="231.103" y="110.306"/><use xlink:href="#x" x="238.425" y="110.306"/><use xlink:href="#p" x="242.086" y="110.306"/><path fill="none" stroke="#000" stroke-miterlimit="10" stroke-width=".399" d="m217.223 57.477 2.82-2.817m-2.82 0 2.82 2.817"/><use xlink:href="#i" x="198.495" y="51.044"/><use xlink:href="#j" x="202.156" y="51.044"/><use xlink:href="#k" x="205.818" y="51.044"/><use xlink:href="#l" x="209.479" y="51.044"/><use xlink:href="#m" x="213.14" y="51.044"/><use xlink:href="#n" x="216.801" y="51.044"/><use xlink:href="#n" x="220.463" y="51.044"/><use xlink:href="#o" x="227.785" y="51.044"/><use xlink:href="#y" x="231.446" y="51.044"/><use xlink:href="#p" x="235.108" y="51.044"/><path fill="none" stroke="#000" stroke-miterlimit="10" stroke-width=".399" d="m178.59 24.105 2.816-2.816m-2.816 0 2.816 2.816"/><use xlink:href="#i" x="159.86" y="17.673"/><use xlink:href="#j" x="163.521" y="17.673"/><use xlink:href="#k" x="167.183" y="17.673"/><use xlink:href="#l" x="170.844" y="17.673"/><use xlink:href="#m" x="174.505" y="17.673"/><use xlink:href="#n" x="178.166" y="17.673"/><use xlink:href="#n" x="181.828" y="17.673"/><use xlink:href="#o" x="189.15" y="17.673"/><use xlink:href="#o" x="192.811" y="17.673"/><use xlink:href="#p" x="196.473" y="17.673"/><path fill="none" stroke="#000" stroke-miterlimit="10" stroke-width=".399" d="m148.898 22.18 2.82-2.817m-2.82 0 2.82 2.817"/><use xlink:href="#i" x="153.828" y="22.906"/><use xlink:href="#j" x="157.489" y="22.906"/><use xlink:href="#k" x="161.151" y="22.906"/><use xlink:href="#v" x="164.812" y="22.906"/><use xlink:href="#y" x="168.473" y="22.906"/><use xlink:href="#p" x="172.134" y="22.906"/><path fill="none" stroke="#000" stroke-miterlimit="10" stroke-width=".399" d="m123.648 91.563 2.82-2.82m-2.82 0 2.82 2.82"/><use xlink:href="#i" x="106.752" y="86.074"/><use xlink:href="#j" x="110.413" y="86.074"/><use xlink:href="#k" x="114.075" y="86.074"/><use xlink:href="#z" x="117.736" y="86.074"/><use xlink:href="#A" x="121.397" y="86.074"/><use xlink:href="#B" x="125.058" y="86.074"/><use xlink:href="#C" x="128.72" y="86.074"/><use xlink:href="#A" x="132.381" y="86.074"/><use xlink:href="#D" x="136.042" y="86.074"/><use xlink:href="#p" x="139.703" y="86.074"/><path fill="none" stroke="#000" stroke-miterlimit="10" stroke-width=".399" d="m123.648 119.852 2.82-2.817m-2.82 0 2.82 2.817"/><use xlink:href="#i" x="110.413" y="126.789"/><use xlink:href="#j" x="114.074" y="126.789"/><use xlink:href="#k" x="117.736" y="126.789"/><use xlink:href="#E" x="121.397" y="126.789"/><use xlink:href="#F" x="125.058" y="126.789"/><use xlink:href="#j" x="128.719" y="126.789"/><use xlink:href="#A" x="132.381" y="126.789"/><use xlink:href="#p" x="136.042" y="126.789"/><path fill="none" stroke="#000" stroke-miterlimit="10" stroke-width=".399" d="m123.648 117.64 2.82-2.816m-2.82 0 2.82 2.817"/><use xlink:href="#i" x="128.578" y="118.366"/><use xlink:href="#j" x="132.239" y="118.366"/><use xlink:href="#k" x="135.901" y="118.366"/><use xlink:href="#G" x="139.562" y="118.366"/><use xlink:href="#H" x="143.223" y="118.366"/><use xlink:href="#I" x="146.884" y="118.366"/><use xlink:href="#p" x="150.546" y="118.366"/><path fill="none" stroke="#000" stroke-miterlimit="10" stroke-width=".399" d="m87.906 119.852 2.82-2.817m-2.82 0 2.82 2.817"/><use xlink:href="#i" x="56.507" y="120.578"/><use xlink:href="#j" x="60.168" y="120.578"/><use xlink:href="#k" x="63.83" y="120.578"/><use xlink:href="#C" x="67.491" y="120.578"/><use xlink:href="#A" x="71.152" y="120.578"/><use xlink:href="#J" x="74.813" y="120.578"/><use xlink:href="#C" x="78.475" y="120.578"/><use xlink:href="#p" x="82.136" y="120.578"/><path fill="none" stroke="#000" stroke-miterlimit="10" stroke-width=".399" d="m123.648 12.02 2.82-2.817m-2.82 0 2.82 2.817"/><use xlink:href="#i" x="108.582" y="18.958"/><use xlink:href="#j" x="112.243" y="18.958"/><use xlink:href="#k" x="115.905" y="18.958"/><use xlink:href="#B" x="119.566" y="18.958"/><use xlink:href="#K" x="123.227" y="18.958"/><use xlink:href="#D" x="126.888" y="18.958"/><use xlink:href="#C" x="130.55" y="18.958"/><use xlink:href="#L" x="134.211" y="18.958"/><use xlink:href="#p" x="137.872" y="18.958"/><path fill="none" stroke="#000" stroke-miterlimit="10" stroke-width=".399" d="m123.648 161.414 2.817-2.82m-2.817 0 2.817 2.82"/><use xlink:href="#i" x="108.582" y="168.348"/><use xlink:href="#j" x="112.243" y="168.348"/><use xlink:href="#k" x="115.905" y="168.348"/><use xlink:href="#j" x="119.566" y="168.348"/><use xlink:href="#K" x="123.227" y="168.348"/><use xlink:href="#m" x="126.888" y="168.348"/><use xlink:href="#C" x="130.55" y="168.348"/><use xlink:href="#L" x="134.211" y="168.348"/><use xlink:href="#p" x="137.872" y="168.348"/><path fill="none" stroke="#000" stroke-miterlimit="10" stroke-width=".399" d="m225.93 91.563 2.82-2.82m-2.82 0 2.82 2.82"/><use xlink:href="#i" x="212.694" y="86.075"/><use xlink:href="#j" x="216.355" y="86.075"/><use xlink:href="#k" x="220.017" y="86.075"/><use xlink:href="#A" x="223.678" y="86.075"/><use xlink:href="#F" x="227.339" y="86.075"/><use xlink:href="#j" x="231" y="86.075"/><use xlink:href="#C" x="234.662" y="86.075"/><use xlink:href="#p" x="238.323" y="86.075"/><path fill="none" stroke="#000" stroke-miterlimit="10" stroke-width=".399" d="m21.363 91.563 2.82-2.82m-2.82 0 2.82 2.82"/><use xlink:href="#i" x="8.129" y="86.074"/><use xlink:href="#j" x="11.79" y="86.074"/><use xlink:href="#k" x="15.452" y="86.074"/><use xlink:href="#M" x="19.113" y="86.074"/><use xlink:href="#A" x="22.774" y="86.074"/><use xlink:href="#j" x="26.435" y="86.074"/><use xlink:href="#C" x="30.097" y="86.074"/><use xlink:href="#p" x="33.758" y="86.074"/><path fill="none" stroke="#000" stroke-miterlimit="10" stroke-width=".399" d="m52.727 38.277 2.816-2.816m-2.816 0 2.816 2.816"/><use xlink:href="#i" x="-.641" y="39.004"/><use xlink:href="#j" x="3.02" y="39.004"/><use xlink:href="#k" x="6.682" y="39.004"/><use xlink:href="#B" x="10.343" y="39.004"/><use xlink:href="#K" x="14.004" y="39.004"/><use xlink:href="#D" x="17.665" y="39.004"/><use xlink:href="#C" x="21.327" y="39.004"/><use xlink:href="#L" x="24.988" y="39.004"/><use xlink:href="#M" x="32.303" y="39.004"/><use xlink:href="#A" x="35.965" y="39.004"/><use xlink:href="#j" x="39.626" y="39.004"/><use xlink:href="#C" x="43.287" y="39.004"/><use xlink:href="#p" x="46.949" y="39.004"/><path fill="none" stroke="#000" stroke-miterlimit="10" stroke-width=".399" d="m194.586 38.27 2.816-2.817m-2.816 0 2.816 2.817"/><use xlink:href="#i" x="199.513" y="38.995"/><use xlink:href="#j" x="203.174" y="38.995"/><use xlink:href="#k" x="206.836" y="38.995"/><use xlink:href="#B" x="210.497" y="38.995"/><use xlink:href="#K" x="214.158" y="38.995"/><use xlink:href="#D" x="217.819" y="38.995"/><use xlink:href="#C" x="221.481" y="38.995"/><use xlink:href="#L" x="225.142" y="38.995"/><use xlink:href="#A" x="232.464" y="38.995"/><use xlink:href="#F" x="236.126" y="38.995"/><use xlink:href="#j" x="239.787" y="38.995"/><use xlink:href="#C" x="243.448" y="38.995"/><use xlink:href="#p" x="247.11" y="38.995"/><path fill="none" stroke="#000" stroke-miterlimit="10" stroke-width=".399" d="m49.938 146.938 2.816-2.817m-2.816 0 2.816 2.816"/><use xlink:href="#i" x="25.718" y="153.874"/><use xlink:href="#j" x="29.379" y="153.874"/><use xlink:href="#k" x="33.041" y="153.874"/><use xlink:href="#j" x="36.702" y="153.874"/><use xlink:href="#K" x="40.363" y="153.874"/><use xlink:href="#m" x="44.024" y="153.874"/><use xlink:href="#C" x="47.686" y="153.874"/><use xlink:href="#L" x="51.347" y="153.874"/><use xlink:href="#M" x="58.669" y="153.874"/><use xlink:href="#A" x="62.331" y="153.874"/><use xlink:href="#j" x="65.992" y="153.874"/><use xlink:href="#C" x="69.653" y="153.874"/><use xlink:href="#p" x="73.315" y="153.874"/><path fill="none" stroke="#000" stroke-miterlimit="10" stroke-width=".399" d="m197.367 146.941 2.817-2.816m-2.817 0 2.817 2.816"/><use xlink:href="#i" x="173.146" y="153.878"/><use xlink:href="#j" x="176.807" y="153.878"/><use xlink:href="#k" x="180.469" y="153.878"/><use xlink:href="#j" x="184.13" y="153.878"/><use xlink:href="#K" x="187.791" y="153.878"/><use xlink:href="#m" x="191.452" y="153.878"/><use xlink:href="#C" x="195.114" y="153.878"/><use xlink:href="#L" x="198.775" y="153.878"/><use xlink:href="#A" x="206.097" y="153.878"/><use xlink:href="#F" x="209.759" y="153.878"/><use xlink:href="#j" x="213.42" y="153.878"/><use xlink:href="#C" x="217.081" y="153.878"/><use xlink:href="#p" x="220.743" y="153.878"/><path fill="none" stroke="#000" stroke-miterlimit="10" stroke-width=".399" d="m261.64 229.543 2.82-2.82m-2.82 0 2.82 2.82"/><use xlink:href="#i" x="242.912" y="223.106"/><use xlink:href="#j" x="246.573" y="223.106"/><use xlink:href="#k" x="250.235" y="223.106"/><use xlink:href="#l" x="253.896" y="223.106"/><use xlink:href="#K" x="257.557" y="223.106"/><use xlink:href="#H" x="261.218" y="223.106"/><use xlink:href="#B" x="264.88" y="223.106"/><use xlink:href="#C" x="268.541" y="223.106"/><use xlink:href="#A" x="272.202" y="223.106"/><use xlink:href="#D" x="275.863" y="223.106"/><use xlink:href="#p" x="279.525" y="223.106"/></svg>