<svg xmlns="http://www.w3.org/2000/svg" xmlns:xlink="http://www.w3.org/1999/xlink" width="111.711" height="132.896"><defs><path id="a" d="M4.922 0v-.469h-1.39v-5.734c0-.234 0-.328-.266-.328-.11 0-.125 0-.22.078-.765.562-1.796.562-2 .562H.845v.47h.203c.156 0 .703-.016 1.297-.204v5.156H.954V0c.437-.031 1.5-.031 1.984-.031s1.546 0 1.984.031m0 0"/><path id="b" d="m5.469 1.234-.375-.28c-.14.155-.594.624-.75.577-.125-.015-.735-.453-.86-.547L2.297.125A92 92 0 0 1 4.14.047C5.563.047 6.344.03 6.906-.72c.672-.937.266-2.14-.86-2.968-.984-.72-2.124-.766-2.64-.047-.36.484-.047.875.14 1.015.267.203.72.25 1.017-.156.296-.422.046-.797-.047-.906.375-.016.75.11 1.047.328.687.5.671 1.312.234 1.922-.406.547-1.125.89-2.11 1.047L.86-.016C.688 0 .672.031.547.188l-.094.14 3.469 2.516Zm0 0"/><path id="c" d="M3.328 4.438c.531-.157 1.25-.72 1.11-2.188.39.594 1.156 1.11 1.968.844.719-.235 1.11-1.14.672-2.485C6.703-.516 5.86-1.062 5.094-.812c-.407.14-.578.515-.469.859.14.437.531.578.875.469.547-.188.484-.735.5-.766.375.234.578.64.672.938.266.78-.344 1-.656 1.109-.125.031-1.375.422-1.75-.547C4.14.875 4.125.844 4.094.813 4.047.719 3.954.719 3.89.734c-.157.063-.125.172-.079.329l.141.421C4.297 2.516 3.36 2.813 2.86 2.97c-.437.156-1.406.469-1.734-.5-.078-.266-.187-.766-.062-1.313.203.282.515.438.906.313.422-.14.593-.532.468-.953-.14-.407-.484-.641-.953-.5-.875.28-1.14 1.39-.75 2.609.547 1.703 1.735 2.094 2.594 1.813m0 0"/><path id="h" d="m-1.672 5.14.453.141.297-.922 1.031.344-.296.922.453.14.297-.921L4.547 6.14c.25.078.312.078.39-.188C5 5.75 5 5.75 4.892 5.578L1.844.922 1.39.782.5 3.515l-1.031-.344.344-1.063-.454-.14c-.093.375-.359 1.234-.5 1.64-.125.391-.39 1.204-.53 1.532M.922 3.767l.75-2.344 2.172 3.297Zm0 0"/><path id="i" d="M-3 4.656C-2.312 5.578-1.14 5.86.047 5c.234-.172.64-.5.844-1.031l.78 1.062c-.265.125-.374.157-.64.36-1.172.843-1.265 2.312-1.11 2.5.048.062.126.14.235.078.016-.032.016-.032.078-.125a4.4 4.4 0 0 1 1.063-1.125c.61-.438 1.172-.578 1.422-.672.094-.047.11-.031.14-.047.11-.078.047-.172-.046-.297l-1.72-2.36C.985 3.204.923 3.11.75 3.235c-.11.063-.11.11-.11.204-.062.624-.421 1.015-.75 1.25-.718.515-1.234-.204-1.702-.844-.438-.594-1.016-1.406-.063-2.094.203-.156.734-.469 1.406-.25-.265.219-.375.594-.125.922.313.437.75.281.938.14.11-.078.484-.468.125-.953-.485-.687-1.625-.906-2.61-.187-1.296.937-1.578 2.234-.859 3.234m0 0"/><path id="m" d="M-5.25 2.047c0 1.39 1.016 2.125 2.219 2.125.219 0 .781 0 1.203-.766v.188c0 1.14-.219 1.562-.281 1.719-.25.468-.782.828-1.391.828-.172 0-.516-.032-.75-.266a.595.595 0 0 0 .547-.61c0-.343-.235-.624-.625-.624s-.625.265-.625.64c0 .625.422 1.25 1.469 1.25 1.359 0 3-.86 3-3.375 0-.781-.079-1.578-.5-2.265-.47-.766-1.22-1-1.922-1-1.375 0-2.344.812-2.344 2.156m1.36.015c0-1 0-1.75 1.015-1.75.516 0 .781.391.86.563.156.313.156 1.031.156 1.219 0 1.25-.532 1.719-1.078 1.719-.954 0-.954-.75-.954-1.75m0 0"/><path id="n" d="m-8.281 1.938 1.64 1.187c.188.14 1.36 1.031 1.454 1.156.14.14.093.235.062.313l.375.281 1.766-1.844-.375-.281c-.532.563-.72.594-.75.578-.141-.015-.797-.484-.938-.594L-6.39 1.75c.282-.078.532-.125.829-.187 1.421-.36 2.78-1.016 3.656-2.204.406-.578-.047-.906-.094-.953-.125-.093-.531-.312-.906.219L-3.187-1c-.282.375-.594.75-.907 1.094-.484.484-.968.828-1.515.937l-2.297.547c-.14.047-.172.078-.375.36m0 0"/><path id="r" d="M-3.39-4.422c-1.032.328-1.204 1.281-1.329 1.828-.547-.547-1.062-.703-1.61-.531-.968.313-1.124 1.328-.78 2.406C-6.687.594-5.703 1-4.797.72c.422-.14.969-.5 1.125-1.375.625.672 1.281.922 1.985.703 1.14-.375 1.312-1.563.921-2.781-.5-1.516-1.593-2.032-2.625-1.688m-2.704 2.016c.453-.156.844-.016 1.266.312l-.328 1.688c-.032.172-.11.484-.438.594-.672.218-1-.61-1.125-1-.265-.782-.031-1.391.625-1.594m3.485-1.36c.797-.25 1.25.579 1.422 1.125.296.922 0 1.625-.75 1.875-.735.235-1.313-.125-1.625-.406l.312-1.547c.11-.469.188-.89.64-1.047m0 0"/><path id="s" d="M-1.5-6.016c-.64-.203-3.094-1-3.828 1.266-.438 1.344.047 2.531 1.312 2.938 1.297.421 2.313-.282 2.688-1.454.11-.328.203-.796-.36-1.375l.22.063c.702.234 1.218.5 1.5.734.312.297.609.86.406 1.5-.063.172-.204.5-.47.719 0-.11-.015-.516-.437-.656a.597.597 0 0 0-.781.406c-.125.375.047.672.406.781.64.219 1.344-.093 1.688-1.14.406-1.22.078-3-2.344-3.782M-2.86-5c.594.188 1.485.734 1.22 1.547-.298.906-1 .672-1.938.375-.938-.313-1.703-.547-1.375-1.578.187-.547.781-.61.86-.625.359-.016.906.172 1.234.281m0 0"/><path id="t" d="m3.984-2.89-.28-.376-1.126.813-3.36-4.64c-.14-.188-.202-.266-.421-.11-.094.062-.094.078-.125.187-.297.907-1.125 1.516-1.297 1.641l-.156.11.281.374.156-.109a4.8 4.8 0 0 0 .922-.922L1.61-1.75.484-.937l.282.375c.343-.282 1.203-.907 1.593-1.204.391-.28 1.25-.906 1.625-1.125m0 0"/><path id="u" d="M2.39-5.687C1.829-6.453.423-8.375-1.53-6.97c-1.953 1.422-.547 3.344.015 4.125.594.813 1.938 2.672 3.891 1.25 1.938-1.39.61-3.281.016-4.093m-1.093.671c.328.454.86 1.188 1.11 1.641.421.844 0 1.313-.235 1.484-.297.22-.89.375-1.406-.14C.375-2.406-.22-3.234-.547-3.687c-.422-.579-.812-1.11-1.047-1.579-.422-.78.094-1.28.282-1.421a1.005 1.005 0 0 1 1.14-.047c.36.203.984 1.062 1.469 1.718m0 0"/><path id="v" d="m2.875-4.828-.375.281c.078.188.375.75.313.89-.063.11-.672.548-.797.641l-1.188.86c.156-.594.328-1.25.5-1.766.422-1.344.672-2.11.11-2.86-.672-.937-1.954-.921-3.079-.093-.984.719-1.375 1.766-.859 2.484.36.485.828.313 1.016.172.265-.203.468-.593.172-1-.297-.422-.735-.297-.891-.25.094-.36.344-.672.64-.89.688-.5 1.454-.22 1.891.39.406.547.5 1.328.36 2.297L.266-.828c-.047.172-.032.203.093.36l.094.14 3.469-2.516Zm0 0"/><clipPath id="d"><path d="M101 40h10.566v23H101Zm0 0"/></clipPath><clipPath id="e"><path d="M98 37h13.566v29H98Zm0 0"/></clipPath><clipPath id="f"><path d="M93 30h18.566v17H93Zm0 0"/></clipPath><clipPath id="g"><path d="M90 27h21.566v23H90Zm0 0"/></clipPath><clipPath id="j"><path d="M90 80h21.566v22H90Zm0 0"/></clipPath><clipPath id="k"><path d="M101 93h10.566v22H101Zm0 0"/></clipPath><clipPath id="l"><path d="M98 90h13.566v28H98Zm0 0"/></clipPath><clipPath id="o"><path d="M26 106h18v26.844H26Zm0 0"/></clipPath><clipPath id="p"><path d="M49 106h17v26.844H49Zm0 0"/></clipPath><clipPath id="q"><path d="M32 122h29v10.844H32Zm0 0"/></clipPath></defs><use xlink:href="#a" x="57.102" y="77.42"/><use xlink:href="#b" x="69.492" y="56.174"/><use xlink:href="#c" x="92.055" y="46.251"/><g clip-path="url(#d)"><path fill="none" stroke="#7F7F7F" stroke-miterlimit="10" stroke-width=".199" d="m109.75 43.512-5.254 16.176"/></g><g clip-path="url(#e)"><path fill="none" stroke="#000" stroke-miterlimit="10" stroke-width=".399" d="m109.75 43.512.61 9.14-5.864 7.035"/></g><path fill="none" stroke="#7F7F7F" stroke-miterlimit="10" stroke-width=".199" d="M104.496 59.688H87.488"/><path fill="none" stroke="#000" stroke-miterlimit="10" stroke-width=".399" d="m104.496 59.688-8.504 3.402-8.504-3.403"/><path fill="none" stroke="#7F7F7F" stroke-miterlimit="10" stroke-width=".199" d="M87.488 59.688 82.23 43.512M82.23 43.512l13.762-9.996"/><path fill="none" stroke="#000" stroke-miterlimit="10" stroke-width=".399" d="m82.23 43.512 4.883-7.75 8.88-2.246"/><g clip-path="url(#f)"><path fill="none" stroke="#7F7F7F" stroke-miterlimit="10" stroke-width=".199" d="m95.992 33.516 13.758 9.996"/></g><g clip-path="url(#g)"><path fill="none" stroke="#000" stroke-miterlimit="10" stroke-width=".399" d="m95.992 33.516 8.88 2.246 4.878 7.75"/></g><path fill="none" stroke="#7F7F7F" stroke-miterlimit="10" stroke-width=".199" d="m87.488 59.688-13.761 10"/><path fill="none" stroke="#000" stroke-miterlimit="10" stroke-width=".399" d="m87.488 59.688-4.883 7.753-8.878 2.246"/><path fill="none" stroke="#7F7F7F" stroke-miterlimit="10" stroke-width=".199" d="m73.727 69.688-13.758-10M59.969 59.688l5.254-16.176"/><path fill="none" stroke="#000" stroke-miterlimit="10" stroke-width=".399" d="m59.969 59.688-.61-9.137 5.864-7.04"/><path fill="none" stroke="#7F7F7F" stroke-miterlimit="10" stroke-width=".199" d="M65.223 43.512H82.23"/><path fill="none" stroke="#000" stroke-miterlimit="10" stroke-width=".399" d="m65.223 43.512 8.504-3.399 8.503 3.399"/><use xlink:href="#h" x="80.007" y="77.657"/><use xlink:href="#i" x="96.422" y="96.05"/><path fill="none" stroke="#7F7F7F" stroke-miterlimit="10" stroke-width=".199" d="M104.496 112.035H87.488"/><path fill="none" stroke="#000" stroke-miterlimit="10" stroke-width=".399" d="m104.496 112.035-8.504 3.403-8.504-3.403"/><path fill="none" stroke="#7F7F7F" stroke-miterlimit="10" stroke-width=".199" d="M87.488 112.035 82.23 95.86"/><path fill="none" stroke="#000" stroke-miterlimit="10" stroke-width=".399" d="M87.488 112.035 81.625 105l.605-9.14"/><path fill="none" stroke="#7F7F7F" stroke-miterlimit="10" stroke-width=".199" d="m82.23 95.86 13.762-9.997"/><g clip-path="url(#j)"><path fill="none" stroke="#000" stroke-miterlimit="10" stroke-width=".399" d="m95.992 85.863 13.758 9.996"/></g><g clip-path="url(#k)"><path fill="none" stroke="#7F7F7F" stroke-miterlimit="10" stroke-width=".199" d="m109.75 95.86-5.254 16.175"/></g><g clip-path="url(#l)"><path fill="none" stroke="#000" stroke-miterlimit="10" stroke-width=".399" d="m109.75 95.86.61 9.136-5.864 7.04"/></g><path fill="none" stroke="#7F7F7F" stroke-miterlimit="10" stroke-width=".199" d="m82.23 95.86-13.757-9.997"/><path fill="none" stroke="#000" stroke-miterlimit="10" stroke-width=".399" d="m82.23 95.86-8.878-2.247-4.88-7.75"/><path fill="none" stroke="#7F7F7F" stroke-miterlimit="10" stroke-width=".199" d="m68.473 85.863 5.254-16.175"/><path fill="none" stroke="#000" stroke-miterlimit="10" stroke-width=".399" d="M73.727 69.688h17.007M90.734 69.688l5.258 16.175"/><use xlink:href="#m" x="62.831" y="94.358"/><use xlink:href="#n" x="50.471" y="115.508"/><path fill="none" stroke="#7F7F7F" stroke-miterlimit="10" stroke-width=".199" d="m37.703 128.21-5.254-16.175"/><g clip-path="url(#o)"><path fill="none" stroke="#000" stroke-miterlimit="10" stroke-width=".399" d="m37.703 128.21-5.863-7.034.61-9.14"/></g><path fill="none" stroke="#7F7F7F" stroke-miterlimit="10" stroke-width=".199" d="m32.45 112.035 13.757-9.996"/><path fill="none" stroke="#000" stroke-miterlimit="10" stroke-width=".399" d="m32.45 112.035 4.878-7.75 8.879-2.246"/><path fill="none" stroke="#7F7F7F" stroke-miterlimit="10" stroke-width=".199" d="m46.207 102.04 13.762 9.995"/><g clip-path="url(#p)"><path fill="none" stroke="#000" stroke-miterlimit="10" stroke-width=".399" d="m59.969 112.035-5.258 16.176"/></g><path fill="none" stroke="#7F7F7F" stroke-miterlimit="10" stroke-width=".199" d="M54.71 128.21H37.704"/><g clip-path="url(#q)"><path fill="none" stroke="#000" stroke-miterlimit="10" stroke-width=".399" d="m54.71 128.21-8.503 3.403-8.504-3.402"/></g><path fill="none" stroke="#7F7F7F" stroke-miterlimit="10" stroke-width=".199" d="m46.207 102.04 5.258-16.177"/><path fill="none" stroke="#000" stroke-miterlimit="10" stroke-width=".399" d="m46.207 102.04-.605-9.142 5.863-7.035"/><path fill="none" stroke="#7F7F7F" stroke-miterlimit="10" stroke-width=".199" d="M51.465 85.863h17.008"/><path fill="none" stroke="#000" stroke-miterlimit="10" stroke-width=".399" d="m68.473 85.863 5.254 16.176M73.727 102.04l-13.758 9.995"/><use xlink:href="#r" x="41.639" y="83.124"/><use xlink:href="#s" x="17.605" y="77.873"/><path fill="none" stroke="#7F7F7F" stroke-miterlimit="10" stroke-width=".199" d="m1.68 69.688 13.758-9.997"/><path fill="none" stroke="#000" stroke-miterlimit="10" stroke-width=".399" d="m1.68 69.688 4.879-7.75 8.878-2.247"/><path fill="none" stroke="#7F7F7F" stroke-miterlimit="10" stroke-width=".199" d="m15.438 59.691 13.761 9.996"/><path fill="none" stroke="#000" stroke-miterlimit="10" stroke-width=".399" d="m15.438 59.691 8.882 2.246 4.88 7.75"/><path fill="none" stroke="#7F7F7F" stroke-miterlimit="10" stroke-width=".199" d="m29.2 69.688-5.255 16.175"/><path fill="none" stroke="#000" stroke-miterlimit="10" stroke-width=".399" d="M23.945 85.863H6.938"/><path fill="none" stroke="#7F7F7F" stroke-miterlimit="10" stroke-width=".199" d="M6.934 85.863 1.68 69.688"/><path fill="none" stroke="#000" stroke-miterlimit="10" stroke-width=".399" d="m6.934 85.863-5.86-7.039.606-9.136"/><path fill="none" stroke="#7F7F7F" stroke-miterlimit="10" stroke-width=".199" d="M29.2 69.688h17.007"/><path fill="none" stroke="#000" stroke-miterlimit="10" stroke-width=".399" d="m29.2 69.688 8.503-3.403 8.504 3.403"/><path fill="none" stroke="#7F7F7F" stroke-miterlimit="10" stroke-width=".199" d="m46.207 69.688 5.258 16.175"/><path fill="none" stroke="#000" stroke-miterlimit="10" stroke-width=".399" d="M51.465 85.863 37.703 95.86M37.703 95.86l-13.758-9.997"/><use xlink:href="#t" x="43.459" y="61.181"/><use xlink:href="#u" x="48.093" y="57.814"/><use xlink:href="#a" x="40.478" y="35.072"/><use xlink:href="#a" x="46.207" y="35.072"/><path fill="none" stroke="#000" stroke-miterlimit="10" stroke-width=".399" d="m46.207 17.34 13.762 9.996M59.969 27.336 54.71 43.512"/><path fill="none" stroke="#7F7F7F" stroke-miterlimit="10" stroke-width=".199" d="M54.71 43.512H37.704"/><path fill="none" stroke="#000" stroke-miterlimit="10" stroke-width=".399" d="M37.703 43.512 32.45 27.336"/><use xlink:href="#t" x="29.73" y="18.877"/><use xlink:href="#v" x="34.365" y="15.51"/><path fill="none" stroke="#000" stroke-miterlimit="10" stroke-width=".399" d="M23.945 1.164h17.008M40.953 1.164l5.254 16.176"/><path fill="none" stroke="#7F7F7F" stroke-miterlimit="10" stroke-width=".199" d="m46.207 17.34-13.758 9.996"/><path fill="none" stroke="#000" stroke-miterlimit="10" stroke-width=".399" d="M32.45 27.336 18.686 17.34M18.688 17.34l5.257-16.176M54.71 43.512l5.259 16.176"/><path fill="none" stroke="#7F7F7F" stroke-miterlimit="10" stroke-width=".199" d="m59.969 59.688-13.762 10"/><path fill="none" stroke="#000" stroke-miterlimit="10" stroke-width=".399" d="m46.207 69.688-13.758-10M32.45 59.688l5.253-16.176"/></svg>