<svg xmlns="http://www.w3.org/2000/svg" xmlns:xlink="http://www.w3.org/1999/xlink" width="68.51" height="146.576"><defs><path id="a" d="M4.406-3.672c0-.531-.531-.812-1.062-.812-.688 0-1.094.5-1.313 1.125v-1.125l-1.656.078v.468c.61 0 .688 0 .688.391v3.078H.375V0l1.25-.031C2-.031 2.641-.031 3 0v-.469h-.86v-1.75c0-.687.235-1.906 1.235-1.906 0 0-.187.172-.187.453 0 .406.328.61.609.61.297 0 .61-.204.61-.61m0 0"/><path id="b" d="M5.406-2.172c0-1.344-.922-2.344-2.547-2.344C1.22-4.516.313-3.5.313-2.172c0 1.235.89 2.235 2.546 2.235 1.672 0 2.547-1.016 2.547-2.235m-1.281-.11c0 .86 0 1.938-1.266 1.938-1.265 0-1.265-1.078-1.265-1.937 0-.453 0-.953.172-1.297.187-.375.609-.578 1.093-.578.422 0 .844.156 1.063.5.203.344.203.89.203 1.375m0 0"/><path id="c" d="M3.813-1.234v-.532h-.47v.516c0 .672-.327.906-.609.906-.578 0-.578-.64-.578-.86v-2.75h1.469v-.468H2.156v-1.906h-.469c0 1-.484 1.984-1.484 2.016v.359h.828v2.734c0 1.063.86 1.282 1.578 1.282.75 0 1.204-.579 1.204-1.297m0 0"/><path id="d" d="M4.922 0v-.469h-1.39v-5.734c0-.234 0-.328-.266-.328-.11 0-.125 0-.22.078-.765.562-1.796.562-2 .562H.845v.47h.203c.156 0 .703-.016 1.297-.204v5.156H.954V0c.437-.031 1.5-.031 1.984-.031s1.546 0 1.984.031m0 0"/><path id="e" d="M5.156-2.219h-.468c-.032.203-.125.844-.266.906-.11.063-.86.063-1.016.063H1.937c.47-.39 1-.812 1.438-1.14 1.14-.844 1.781-1.313 1.781-2.25 0-1.157-1.047-1.891-2.437-1.891-1.219 0-2.156.625-2.156 1.515 0 .594.484.735.718.735C1.61-4.281 2-4.5 2-5c0-.516-.422-.672-.562-.719.28-.234.671-.343 1.03-.343.845 0 1.313.671 1.313 1.421 0 .688-.375 1.375-1.078 2.079l-2 2.046c-.14.11-.14.141-.14.344V0h4.28Zm0 0"/><path id="f" d="M5.25-1.797c0-.547-.297-1.406-1.734-1.719.687-.203 1.406-.765 1.406-1.625 0-.765-.75-1.39-2.156-1.39-1.188 0-1.97.64-1.97 1.437 0 .422.313.703.688.703a.67.67 0 0 0 .704-.687c0-.578-.547-.688-.579-.703.344-.282.782-.36 1.094-.36.828 0 .86.641.86.97 0 .124-.016 1.437-1.047 1.5-.407.015-.438.015-.485.03-.094.016-.125.11-.125.172 0 .172.11.172.282.172h.437c1.094 0 1.094.985 1.094 1.5 0 .469 0 1.485-1.031 1.485-.266 0-.782-.047-1.266-.344C1.75-.75 2-1 2-1.406c0-.453-.312-.75-.75-.75-.422 0-.766.265-.766.765 0 .907.97 1.5 2.25 1.5 1.782 0 2.516-1 2.516-1.906m0 0"/><path id="g" d="M5.406 0v-.469h-.968v-1.094h.968v-.468h-.968V-6.22c0-.265-.016-.328-.297-.328-.22 0-.22.016-.344.172L.313-2.031v.469h2.875V-.47h-1.11V0c.375-.031 1.281-.031 1.703-.031.406 0 1.266 0 1.625.031m-2.11-2.031H.845L3.297-5.11Zm0 0"/><path id="h" d="M-.656-4.312c-.422-.079-.797.062-1.14.343-.329.344-.454.656-.735 1.375-.125.375-.344.969-.813.89-.61-.109-.453-1.015-.422-1.202.141-.735.5-1.047 1.047-1 .156 0 .203 0 .235-.188.046-.234 0-.25-.235-.281l-.781-.14c-.187-.032-.281-.048-.312.124-.016.047-.016.063.109.47-.172.25-.297.577-.36.952-.062.313-.328 1.813.97 2.031.39.079.671-.062.89-.234.406-.344.531-.703.812-1.437.125-.344.375-1.047.954-.953.734.14.578 1.03.546 1.25-.187 1.046-.953 1.171-1.39 1.218-.14.016-.157.078-.172.203-.047.235 0 .25.219.282l1.078.203c.187.031.281.047.312-.125C.172-.594.172-.61.063-.86l-.141-.282c.422-.39.5-.906.547-1.109.047-.297.312-1.812-1.125-2.062m0 0"/><path id="i" d="m.5-2.797-.469-.078-.11.594-3.952-.703-.219 1.718.469.079c.094-.579.11-.641.484-.563l3.031.531-.125.672.47.078.187-1.187Zm-6.047-.594c-.437-.078-.812.204-.89.641a.776.776 0 0 0 .625.906c.406.063.812-.234.89-.64a.775.775 0 0 0-.625-.907m0 0"/><path id="j" d="M-1.14-6.281c-1.313-.219-2.407.531-2.657 1.953-.125.719.063 1.25.235 1.531l-2.875-.515-.235 1.75.453.078c.11-.594.125-.672.516-.61l5.89 1.047.079-.469c-.157-.171-.313-.375-.47-.562.079-.063.72-.438.876-1.328.25-1.453-.453-2.625-1.813-2.875m-.235 1.265c.469.094 1 .188 1.344.485.344.36.375.843.328 1.156-.125.688-.719.969-.89 1.047l-2.47-.438a1.7 1.7 0 0 1-.39-1.39c.203-1.188 1.39-.969 2.078-.86m0 0"/><path id="k" d="m.5-2.875-.469-.078-.11.672-6.343-1.125-.234 1.75.453.078c.11-.61.125-.672.516-.61l5.421.97-.125.671.47.078.187-1.187Zm0 0"/><path id="l" d="m1.063-6.031-.47-.078-.124.672-2.531-.454c-1.032-.171-1.5.282-1.688 1.266-.156.938.313 1.547.766 1.906l-1.063-.187-.219 1.687.47.078c.108-.593.124-.671.5-.593l3.03.53-.125.673.47.078.187-1.219.25-1.234-.47-.078-.124.672-2.047-.36c-1.062-.187-1.39-1.125-1.281-1.75.047-.328.297-.516 1.047-.375l2.64.469-.125.687.469.079.188-1.235Zm0 0"/><path id="m" d="M-2.922-6.172c-.234-.047-.61.078-.687.531-.032.157-.079.61.187 1.11-.156.14-.437.515-.562 1.234-.25 1.422.437 2.11 1.109 2.219.406.078.844-.031 1.125-.328.313.343.61.468.813.5.156.031.64.062 1.015-.266.016.125.094.875.703.984.5.094 1.344-.328 1.688-2.28.297-1.75-.125-2.61-.828-2.735-.282-.047-.922-.078-1.36.531-.39.5-.484 1.078-.656 2.016-.047.265-.125.719-.14.765a.64.64 0 0 1-.72.438.64.64 0 0 1-.296-.172c.312-.39.422-.906.453-1.156C-.828-4.187-1.5-4.875-2.188-5c-.468-.078-.812.125-1 .25-.109-.328-.078-.531-.078-.64a.5.5 0 0 0 .188.077c.25.047.437-.093.484-.359.047-.25-.094-.453-.328-.5m.547 2.266c.438.094 1.11.203.953 1.062-.14.875-.812.766-1.25.672-.437-.062-1.094-.187-.953-1.062.156-.86.813-.735 1.25-.672m3.906-.453c.36.062.797.547.578 1.828-.203 1.172-.734 1.578-1.187 1.5-.594-.11-.485-.719-.453-.86l.203-1.156c.047-.312.25-1.422.86-1.312m0 0"/><path id="n" d="M1.047-5.89.578-5.97c-.11.594-.125.672-.5.594L-5.89-6.422l-.234 1.75.453.078c.11-.61.125-.687.516-.625l1.922.344a2.18 2.18 0 0 0-.688 1.266C-4.172-2.187-3.484-1-2.109-.75-.812-.531.28-1.266.547-2.703a2.2 2.2 0 0 0-.25-1.485l.484.094ZM-.297-4.282c.172.172.625.672.5 1.406-.219 1.203-1.406.984-2.094.875-.468-.094-1-.187-1.328-.5-.375-.375-.375-.844-.328-1.156.094-.563.485-.89.797-1.063Zm0 0"/><path id="o" d="m-.562-3.969-.516-.094-.078.454.5.093c.672.125.844.485.781.766-.094.563-.719.453-.937.422l-2.704-.485.25-1.437-.468-.078-.25 1.437-1.875-.328-.079.469c.985.172 1.86.813 1.72 1.797l.359.062.14-.812 2.688.469C.016-1.047.39-1.844.516-2.547c.125-.75-.36-1.297-1.078-1.422m0 0"/><path id="p" d="M.719-5.484c-.235-.032-.25.093-.281.234-.11.61-.22.578-.454.547l-2.109-.375c-.875-.156-1.64.422-1.906 1.875-.094.562-.266 1.765.593 1.922a.61.61 0 0 0 .735-.5c.062-.297-.11-.64-.516-.719a.64.64 0 0 0-.515.14c0-.296.046-.624.062-.734.125-.734.61-1.015 1.344-.89l.344.062c-.094.719-.453 3.219.968 3.469C-.078-.281.328-1.47.438-2.141.578-2.92.25-3.469-.11-3.75c.297.063.75.14.922-.89l.093-.47c.031-.202.047-.327-.187-.374m-1.485 1.78c.954.157.922 1.11.875 1.345-.093.515-.484.828-.937.75-1.047-.188-.906-1.766-.86-2.266Zm0 0"/><path id="q" d="M-.328-4.89c-.14-.032-.172.093-.188.187-.03.187 0 .203.125.281.579.36.657.86.579 1.36-.25 1.374-1.672 1.124-2.141 1.046-.547-.093-1.813-.328-1.578-1.593.062-.36.094-.5.156-.641.14.219.344.266.422.281.437.078.672-.219.719-.484.062-.313-.094-.656-.5-.734-.844-.141-1.11.968-1.22 1.546-.312 1.766.688 2.672 1.829 2.875C-.812-.53.297-1.28.563-2.78c.28-1.61-.813-2.094-.891-2.11m0 0"/><path id="r" d="M-.297-5.047c-.172-.031-.203.156-.219.203-.03.157.016.188.157.266.453.297.656.922.547 1.547-.25 1.39-1.547 1.172-2.047 1.094l.515-2.985c.047-.203.063-.297-.203-.344-.297-.062-1.047-.125-1.625.282-.422.297-.672.78-.797 1.468-.281 1.563.578 2.594 1.797 2.813C-.844-.47.297-1.281.563-2.86c.28-1.563-.688-2.157-.86-2.188m-1.484.688L-2.188-2c-.374-.078-.796-.172-1.078-.422a1.19 1.19 0 0 1-.343-1.031c.203-1.156 1.5-.953 1.828-.906m0 0"/><path id="s" d="m2.875.5.078-.469-.672-.11 1.125-6.343-1.75-.234-.078.453c.61.11.672.125.61.516l-.97 5.421L.548-.39.469.08l1.187.187Zm0 0"/><path id="t" d="M5.047-.297c.031-.172-.156-.203-.203-.219-.157-.03-.188.016-.266.157-.297.453-.922.656-1.547.547C1.641-.062 1.86-1.36 1.937-1.86l2.985.515c.203.047.297.063.344-.203.062-.297.125-1.047-.282-1.625-.296-.422-.78-.672-1.468-.797C1.953-4.25.922-3.39.703-2.172.47-.844 1.281.297 2.86.563c1.563.28 2.157-.688 2.188-.86M4.359-1.78 2-2.188c.078-.374.172-.796.422-1.078.344-.343.765-.39 1.031-.343 1.156.203.953 1.5.906 1.828m0 0"/><path id="u" d="m6.375-2.89.078-.47c-.234-.03-.516-.062-.766-.093l-.89-.203-.078.469c.187.046.468.124.453.203 0 0 0 .015-.078.093L3.53-.64 2.75-3.53l.516.094.078-.47-1.203-.187-1.11-.218-.078.468.61.11L2.625.25c.078.281.203.297.328.328.172.016.297.016.422-.187l2.25-3.203c.078-.126.125-.188.75-.079m0 0"/><path id="v" d="M5.89 1.047 5.97.578c-.594-.11-.672-.125-.594-.5L6.422-5.89l-1.75-.234-.078.453c.61.11.687.125.625.516l-.344 1.922a2.18 2.18 0 0 0-1.266-.688C2.188-4.172 1-3.484.75-2.109.531-.812 1.266.28 2.703.547c.61.11 1.125-.047 1.485-.25L4.093.78ZM4.282-.297c-.172.172-.672.625-1.406.5C1.672-.016 1.891-1.203 2-1.89c.094-.468.188-1 .5-1.328.375-.375.844-.375 1.156-.328.563.094.89.485 1.063.797Zm0 0"/><path id="w" d="m2.797.5.078-.469-.594-.11.703-3.952-1.718-.219-.079.469c.579.094.641.11.563.484L1.219-.266.547-.39.469.08l1.187.187Zm.594-6.047c.078-.437-.203-.812-.641-.89a.776.776 0 0 0-.906.625c-.063.406.234.812.64.89a.775.775 0 0 0 .907-.625m0 0"/><path id="x" d="M4.313-.656c.078-.422-.063-.797-.344-1.14-.344-.329-.656-.454-1.375-.735-.375-.125-.969-.344-.89-.813.109-.61 1.015-.453 1.202-.422.735.141 1.047.5 1 1.047 0 .156 0 .203.188.235.234.046.25 0 .281-.235l.14-.781c.032-.187.048-.281-.124-.312-.047-.016-.063-.016-.47.109a2.4 2.4 0 0 0-.952-.36c-.313-.062-1.813-.328-2.031.97-.079.39.062.671.234.89.344.406.703.531 1.437.812.344.125 1.047.375.954.954-.141.734-1.032.578-1.25.546-1.047-.187-1.172-.953-1.22-1.39-.015-.14-.077-.157-.202-.172-.235-.047-.25 0-.282.219L.406-.156C.375.03.36.125.531.156.594.172.61.172.86.063l.282-.141c.39.422.906.5 1.109.547.297.047 1.813.312 2.063-1.125m0 0"/><path id="y" d="m3.969-.562.094-.516-.454-.078-.093.5C3.39.016 3.03.188 2.75.125c-.562-.094-.453-.719-.422-.937l.485-2.704 1.437.25.078-.468-1.437-.25.328-1.875-.469-.079c-.172.985-.812 1.86-1.797 1.72l-.062.359.812.14-.469 2.688C1.047.016 1.844.39 2.547.516c.75.125 1.297-.36 1.422-1.078m0 0"/><path id="z" d="M5.484.719c.032-.235-.093-.25-.234-.281-.61-.11-.578-.22-.547-.454l.375-2.109c.156-.875-.422-1.64-1.875-1.906-.562-.094-1.765-.266-1.922.593a.61.61 0 0 0 .5.735c.297.062.64-.11.719-.516a.64.64 0 0 0-.14-.515c.296 0 .624.046.734.062.734.125 1.015.61.89 1.344l-.062.344c-.719-.094-3.219-.453-3.469.968C.281-.078 1.47.328 2.141.438 2.92.578 3.469.25 3.75-.11c-.062.297-.14.75.89.922l.47.093c.202.031.327.047.374-.187M3.704-.766c-.157.954-1.11.922-1.345.875-.515-.093-.828-.484-.75-.937.188-1.047 1.766-.906 2.266-.86Zm0 0"/><path id="A" d="m6.031 1.063.078-.47L5.438.47l.453-2.531c.172-1.032-.282-1.5-1.266-1.688-.937-.156-1.547.313-1.906.766l.187-1.063-1.687-.219-.078.47c.593.108.672.124.593.5l-.53 3.03L.53-.39.453.08l1.219.187 1.234.25.078-.47-.671-.124.359-2.047c.187-1.062 1.125-1.39 1.75-1.281.328.047.516.297.375 1.047L4.328.28 3.641.156l-.079.469 1.235.188Zm0 0"/><path id="B" d="M4.89-.328c.032-.14-.093-.172-.187-.188-.187-.03-.203 0-.281.125-.36.579-.86.657-1.36.579-1.374-.25-1.124-1.672-1.046-2.141.093-.547.328-1.813 1.593-1.578.36.062.5.094.641.156a.63.63 0 0 0-.281.422c-.078.437.219.672.484.719.313.062.656-.094.734-.5.141-.844-.968-1.11-1.546-1.22C1.875-4.265.969-3.265.766-2.124.53-.812 1.28.297 2.78.563c1.61.28 2.094-.813 2.11-.891m0 0"/></defs><g fill="#7F7F7F"><use xlink:href="#a" x="1.311" y="62.607"/><use xlink:href="#b" x="6.033" y="62.607"/></g><g fill="#7F7F7F"><use xlink:href="#b" x="12.081" y="62.607"/><use xlink:href="#c" x="17.809" y="62.607"/></g><use xlink:href="#d" x="39.722" y="132.931" fill="#7F7F7F"/><path fill="none" stroke="#7F7F7F" stroke-miterlimit="10" stroke-width=".199" d="m14.688 66.086 24.968 56.902"/><use xlink:href="#e" x="47.105" y="91.057" fill="#7F7F7F"/><path fill="none" stroke="#7F7F7F" stroke-miterlimit="10" stroke-width=".199" d="m20.7 66.086 22.984 17.05"/><use xlink:href="#f" x="54.489" y="49.128" fill="#7F7F7F"/><path fill="none" stroke="#7F7F7F" stroke-miterlimit="10" stroke-width=".199" d="m25.684 55.34 25.386-7.55"/><use xlink:href="#g" x="61.872" y="7.314" fill="#7F7F7F"/><path fill="none" stroke="#7F7F7F" stroke-miterlimit="10" stroke-width=".199" d="m18.102 52.86 40.351-42.235"/><path fill="none" stroke="#000" stroke-miterlimit="10" stroke-width=".797" d="m42.863 128.098 6.828-38.735"/><path fill="none" stroke="#000" stroke-linecap="round" stroke-linejoin="round" stroke-miterlimit="10" stroke-width=".7969920300000001" d="M46.3 126.52c-1.917.136-2.968 1.003-3.507 1.972-.176-1.094-.863-2.27-2.621-3.05"/><path fill="none" stroke="#000" stroke-miterlimit="10" stroke-width=".7969920300000001" d="m45.695 129.812-6.082-1.07"/><path fill="none" stroke="#000" stroke-linecap="round" stroke-linejoin="round" stroke-miterlimit="10" stroke-width=".7969920300000001" d="M46.258 90.945c1.918-.136 2.965-1.008 3.504-1.972.176 1.093.863 2.27 2.62 3.05"/><path fill="none" stroke="#000" stroke-miterlimit="10" stroke-width=".7969920300000001" d="m46.86 87.652 6.081 1.07"/><use xlink:href="#h" x="33.947" y="145.717"/><use xlink:href="#i" x="34.732" y="141.263"/><use xlink:href="#j" x="35.284" y="138.133"/><use xlink:href="#k" x="36.389" y="131.864"/><use xlink:href="#i" x="36.941" y="128.734"/><use xlink:href="#l" x="37.493" y="125.604"/><use xlink:href="#m" x="38.598" y="119.335"/><use xlink:href="#n" x="40.256" y="109.936"/><use xlink:href="#i" x="41.361" y="103.666"/><use xlink:href="#h" x="41.913" y="100.536"/><use xlink:href="#o" x="42.698" y="96.082"/><use xlink:href="#p" x="43.471" y="91.696"/><use xlink:href="#l" x="44.438" y="86.212"/><use xlink:href="#q" x="45.544" y="79.943"/><use xlink:href="#r" x="46.428" y="74.929"/><path fill="none" stroke="#000" stroke-miterlimit="10" stroke-width=".797" d="m13.355 59.75 38.739 6.832"/><path fill="none" stroke="#000" stroke-linecap="round" stroke-linejoin="round" stroke-miterlimit="10" stroke-width=".7969920300000001" d="M14.938 63.187c-.137-1.917-1.008-2.968-1.973-3.507 1.094-.176 2.27-.864 3.05-2.618"/><path fill="none" stroke="#000" stroke-miterlimit="10" stroke-width=".7969920300000001" d="m11.645 62.586 1.07-6.086"/><path fill="none" stroke="#000" stroke-linecap="round" stroke-linejoin="round" stroke-miterlimit="10" stroke-width=".7969920300000001" d="M50.512 63.145c.136 1.917 1.004 2.964 1.972 3.503-1.093.176-2.27.864-3.05 2.622"/><path fill="none" stroke="#000" stroke-miterlimit="10" stroke-width=".7969920300000001" d="m53.805 63.746-1.07 6.082"/><use xlink:href="#s" x=".292" y="53.611"/><use xlink:href="#t" x="3.422" y="54.163"/><use xlink:href="#u" x="8.592" y="55.074"/><use xlink:href="#t" x="14.234" y="56.069"/><use xlink:href="#s" x="19.404" y="56.981"/><use xlink:href="#v" x="26.292" y="58.195"/><use xlink:href="#w" x="32.561" y="59.3"/><use xlink:href="#x" x="35.691" y="59.852"/><use xlink:href="#y" x="40.145" y="60.638"/><use xlink:href="#z" x="44.531" y="61.411"/><use xlink:href="#A" x="50.015" y="62.378"/><use xlink:href="#B" x="56.285" y="63.483"/><use xlink:href="#t" x="61.298" y="64.367"/></svg>