<svg xmlns="http://www.w3.org/2000/svg" xmlns:xlink="http://www.w3.org/1999/xlink" width="167.033" height="139.574"><defs><path id="a" d="M.938-3.094c0 .156 0 .266.125.266.062 0 .093-.047.14-.125a1.45 1.45 0 0 1 1.172-.594c.969 0 .969 1.39.969 1.703 0 .282 0 .844-.266 1.25-.234.375-.61.547-.969.547a1.46 1.46 0 0 1-1.343-1c.015 0 .062.016.125.016.187 0 .453-.11.453-.438 0-.281-.203-.437-.453-.437-.188 0-.438.11-.438.468 0 .813.688 1.641 1.688 1.641 1.078 0 2-.89 2-2 0-1.078-.766-1.969-1.75-1.969-.422 0-.86.141-1.188.47v-1.767c.281.079.563.125.828.125 1.11 0 1.75-.796 1.75-.921 0-.079-.047-.11-.094-.11-.015 0-.03 0-.124.047a3.5 3.5 0 0 1-1.204.234c-.39 0-.796-.078-1.203-.234-.093-.047-.11-.047-.11-.047-.109 0-.109.078-.109.235Zm0 0"/><path id="b" d="M2.719-5.734c0-.22 0-.235-.219-.235-.562.563-1.39.563-1.672.563v.281c.172 0 .719 0 1.203-.234v4.64c0 .328-.015.438-.86.438h-.28V0c.312-.031 1.125-.031 1.484-.031.375 0 1.172 0 1.5.031v-.281h-.281c-.844 0-.875-.11-.875-.438Zm0 0"/><path id="c" d="M4.25-2.875c0-.594-.031-1.375-.344-2.047-.406-.844-1.078-1.047-1.594-1.047-.546 0-1.234.203-1.624 1.078-.282.61-.329 1.344-.329 2.016 0 .594.016 1.453.407 2.172.422.75 1.125.906 1.53.906.579 0 1.25-.25 1.626-1.078.265-.61.328-1.281.328-2M2.313-.031c-.282 0-.922-.125-1.094-1.14-.094-.516-.094-1.298-.094-1.813 0-.61 0-1.313.11-1.813.187-.797.75-.953 1.062-.953.344 0 .906.188 1.078 1.016.094.484.094 1.187.094 1.75s0 1.312-.094 1.843C3.188-.109 2.531-.03 2.313-.03m0 0"/><path id="d" d="M4.14-1.594h-.25c-.015.125-.093.657-.203.797-.062.078-.671.078-.859.078H1.234l.891-.843c1.469-1.266 2.016-1.75 2.016-2.657 0-1.031-.844-1.75-1.953-1.75-1.032 0-1.735.813-1.735 1.625 0 .453.39.5.469.5.203 0 .469-.14.469-.469a.45.45 0 0 0-.47-.468c-.046 0-.062 0-.109.015.22-.64.797-.921 1.282-.921.906 0 1.219.843 1.219 1.468 0 .907-.688 1.657-1.11 2.125L.563-.328c-.11.11-.11.125-.11.328h3.438Zm0 0"/><path id="e" d="M5.563-1.812c.14 0 .312 0 .312-.172 0-.188-.172-.188-.312-.188H1c-.125 0-.297 0-.297.188 0 .172.172.172.297.172Zm0 0"/><path id="f" d="M2.25-1.625c.125-.125.453-.39.594-.5.484-.453.953-.89.953-1.61 0-.953-.797-1.562-1.781-1.562-.97 0-1.594.719-1.594 1.438 0 .39.312.437.422.437.172 0 .422-.11.422-.422 0-.406-.407-.406-.5-.406.234-.594.765-.781 1.156-.781.734 0 1.125.625 1.125 1.297 0 .828-.578 1.437-1.531 2.39l-1 1.047C.422-.219.422-.203.422 0h3.14l.235-1.422h-.25c-.016.156-.078.547-.172.703-.047.063-.656.063-.781.063H1.172Zm0 0"/><path id="g" d="M2.5-5.078c0-.219-.016-.219-.234-.219-.328.313-.75.5-1.5.5v.266c.218 0 .64 0 1.109-.203v4.078c0 .297-.031.39-.781.39H.812V0c.329-.031 1.016-.031 1.376-.031s1.046 0 1.374.031v-.266h-.28c-.75 0-.782-.093-.782-.39Zm0 0"/><path id="h" d="M3.89-2.547c0-.844-.078-1.36-.343-1.875-.344-.703-1-.875-1.438-.875-1 0-1.375.75-1.484.969C.344-3.75.328-2.953.328-2.547c0 .531.016 1.328.406 1.969.36.594.954.75 1.375.75.391 0 1.063-.125 1.47-.906.296-.578.312-1.297.312-1.813M2.11-.062c-.266 0-.813-.125-.985-.954-.094-.453-.094-1.203-.094-1.625 0-.546 0-1.109.094-1.546.172-.813.781-.891.984-.891.266 0 .829.14.985.86.094.437.094 1.046.094 1.577 0 .47 0 1.188-.094 1.641-.172.828-.719.938-.985.938m0 0"/><path id="i" d="M4.406-3.625a.504.504 0 0 0-.422.484c0 .172.125.329.344.329.25 0 .5-.22.5-.532 0-.422-.453-.625-.875-.625-.531 0-.844.485-.953.672a1.04 1.04 0 0 0-1-.672c-.953 0-1.484 1.156-1.484 1.39 0 .079.062.11.125.11.078 0 .109-.047.125-.11.28-.89.875-1.155 1.218-1.155.266 0 .485.172.485.593 0 .313-.375 1.75-.5 2.188-.063.265-.344.828-.828.828-.188 0-.375-.062-.453-.11.234-.046.421-.265.421-.484 0-.234-.171-.328-.343-.328-.266 0-.5.219-.5.531 0 .438.484.61.859.61.531 0 .828-.422.969-.672.219.594.75.672.984.672.969 0 1.485-1.156 1.485-1.375 0-.047-.032-.11-.11-.11-.11 0-.11.032-.156.172-.203.64-.719 1.094-1.188 1.094-.25 0-.5-.156-.5-.594 0-.203.125-.687.204-1.031.046-.156.28-1.125.296-1.187.11-.329.375-.797.844-.797.156 0 .328.015.453.109m0 0"/></defs><path fill="none" stroke="#000" stroke-linecap="round" stroke-miterlimit="10" stroke-width=".399" d="M22.172 87.293v-3.984M50.52 87.293v-3.984M107.21 87.293v-3.984M135.559 87.293v-3.984M76.871 113.648h3.984M76.871 56.953h3.984M76.871 28.605h3.984"/><path fill="none" stroke="#000" stroke-miterlimit="10" stroke-width=".399" d="M.527 85.3h156.278"/><path fill="none" stroke="#000" stroke-linecap="round" stroke-linejoin="round" stroke-miterlimit="10" stroke-width=".399" d="M154.934 82.91c.375 1.434 1.218 2.11 2.07 2.39-.852.278-1.695.958-2.07 2.391"/><path fill="none" stroke="#000" stroke-miterlimit="10" stroke-width=".399" d="M78.863 138.36V1.187"/><path fill="none" stroke="#000" stroke-linecap="round" stroke-linejoin="round" stroke-miterlimit="10" stroke-width=".399" d="M76.473 3.059c1.433-.38 2.113-1.223 2.39-2.07.282.847.957 1.69 2.39 2.07"/><path fill="none" stroke="#1450CC" stroke-miterlimit="10" stroke-width=".598" d="M7.996 82.977s2.988-.258 4.137-.368a380 380 0 0 0 4.133-.421 244.16 244.16 0 0 0 8.266-1.055c1.148-.168 2.988-.461 4.136-.656a196 196 0 0 0 4.133-.758c1.148-.23 2.984-.617 4.133-.88a142 142 0 0 0 4.132-1.01c1.149-.302 2.989-.821 4.137-1.173 1.145-.351 2.985-.953 4.133-1.36a114 114 0 0 0 4.133-1.57 98 98 0 0 0 4.133-1.816 98 98 0 0 0 4.136-2.105 90 90 0 0 0 4.133-2.434 88 88 0 0 0 4.133-2.812 84 84 0 0 0 4.133-3.258 93 93 0 0 0 4.136-3.766 104 104 0 0 0 4.133-4.351 113 113 0 0 0 4.133-5.043 121 121 0 0 0 4.133-5.836 146 146 0 0 0 4.137-6.746 178 178 0 0 0 4.132-7.813 218 218 0 0 0 4.133-9.035c1.149-2.703 4.133-10.453 4.133-10.453M6.59 84.383l2.816-2.817m-2.816 0 2.816 2.817M10.723 84.02l2.816-2.82m-2.816 0 2.816 2.82M14.855 83.598l2.82-2.82m-2.82 0 2.82 2.82M18.988 83.105l2.82-2.816m-2.82 0 2.82 2.816M23.125 82.543l2.816-2.82m-2.816 0 2.816 2.82M27.258 81.887l2.816-2.82m-2.816 0 2.816 2.82M31.39 81.125l2.82-2.816m-2.82 0 2.82 2.816M35.523 80.25l2.82-2.816m-2.82 0 2.82 2.816M39.66 79.238l2.817-2.816m-2.817 0 2.817 2.816M43.793 78.063l2.816-2.817m-2.816 0 2.816 2.817M47.926 76.707l2.82-2.82m-2.82 0 2.82 2.82M52.059 75.137l2.82-2.82m-2.82 0 2.82 2.82M56.195 73.316l2.817-2.816m-2.817 0 2.817 2.816M60.328 71.215l2.817-2.82m-2.817 0 2.817 2.82M64.46 68.781l2.821-2.816m-2.82 0 2.82 2.816M68.594 65.969l2.82-2.817m-2.82 0 2.82 2.817M72.73 62.71l2.817-2.815m-2.817 0 2.817 2.816M76.863 58.941l2.817-2.816m-2.817 0 2.817 2.816M80.996 54.59l2.817-2.817m-2.817 0 2.817 2.817M85.129 49.55l2.82-2.82m-2.82 0 2.82 2.82M89.262 43.715l2.82-2.817m-2.82 0 2.82 2.817M93.398 36.965l2.817-2.817m-2.817 0 2.817 2.817M97.531 29.156l2.817-2.816m-2.817 0 2.817 2.816M101.664 20.121l2.82-2.816m-2.82 0 2.82 2.816M105.797 9.668l2.82-2.816m-2.82 0 2.82 2.816"/><use xlink:href="#a" x="17.27" y="78.476"/><use xlink:href="#b" x="33.331" y="73.999"/><use xlink:href="#c" x="37.938" y="73.999"/><use xlink:href="#d" x="74.668" y="45.485"/><use xlink:href="#c" x="79.275" y="45.485"/><use xlink:href="#e" x="16.762" y="95.085"/><use xlink:href="#f" x="23.349" y="95.085"/><use xlink:href="#e" x="45.108" y="95.085"/><use xlink:href="#g" x="51.694" y="95.085"/><use xlink:href="#g" x="105.094" y="95.085"/><use xlink:href="#f" x="133.44" y="95.085"/><use xlink:href="#e" x="63.395" y="115.799"/><use xlink:href="#g" x="69.981" y="115.799"/><use xlink:href="#h" x="71.975" y="93.092"/><use xlink:href="#g" x="69.981" y="59.522"/><use xlink:href="#f" x="69.981" y="31.175"/><use xlink:href="#i" x="160.722" y="87.23"/></svg>