<svg xmlns="http://www.w3.org/2000/svg" xmlns:xlink="http://www.w3.org/1999/xlink" width="191.72" height="123.5"><defs><path id="a" d="M5.828 0v-.469h-.703L3.453-2.453 4.61-3.75c.141-.14.204-.203 1.016-.203v-.469l-.906.031-1.032-.03v.468c.141 0 .266.015.376.078-.032.063-.032.094-.079.125l-.828.938-.984-1.141h.406v-.469L1.36-4.39.266-4.42v.468h.718l1.547 1.828L1.22-.656c-.157.187-.516.187-1 .187V0l.922-.031L2.156 0v-.469c-.172 0-.36-.047-.36-.11 0 0 0-.015.063-.093l.97-1.094L3.921-.469h-.39V0l1.202-.031Zm0 0"/><path id="b" d="M5.781-3.953v-.469A13 13 0 0 1 5-4.39l-.906-.03v.468s.468 0 .468.11L4.5-3.72 3.36-1.266 2.093-3.953h.531v-.469l-1.234.031-1.125-.03v.468H.89L2.766 0 2.53.484C2.312.954 2 1.641 1.281 1.641c-.14 0-.156-.016-.234-.047.094-.032.312-.172.312-.532C1.36.734 1.125.5.781.5a.553.553 0 0 0-.562.578c0 .5.469.922 1.062.922.766 0 1.344-.625 1.625-1.187l2.14-4.563c.063-.14.095-.203.735-.203m0 0"/><path id="c" d="M4.61-2.016h-.47C4.048-1 3.89-.406 2.579-.406h-.86L4.469-4c.095-.11.11-.125.11-.219 0-.203-.14-.203-.328-.203H.594l-.11 1.734h.47c.046-1.015.359-1.374 1.39-1.374h.844L.406-.437C.312-.328.312-.312.312-.22.313 0 .454 0 .642 0h3.78Zm0 0"/><path id="d" d="M3.266-7.094c.046-.11.046-.14.046-.187 0-.11-.078-.203-.187-.203-.094 0-.172.062-.234.234L1.14-2.672c-.016.063-.047.125-.047.172 0 .031 0 .063.047.172L2.89 2.25c.046.11.093.25.234.25.11 0 .188-.094.188-.203 0-.031 0-.047-.047-.156L1.5-2.5Zm0 0"/><path id="l" d="M2.719-2.328c.047-.11.047-.14.047-.172 0-.016 0-.047-.047-.156L.984-7.25C.922-7.422.86-7.484.75-7.484a.207.207 0 0 0-.203.203c0 .031 0 .047.047.156L2.359-2.5.594 2.11c-.047.109-.047.14-.047.187 0 .11.094.203.203.203.125 0 .172-.11.203-.203Zm0 0"/><path id="e" d="M6.125-1.469c0-.14-.125-.14-.266-.14-.25 0-.25 0-.328.25-.078.328-.25 1.078-.593 1.078-.125 0-.188-.078-.188-.313 0-.187.016-.265.063-.422l.656-2.687c.047-.156.047-.172.047-.219 0-.219-.172-.422-.453-.422-.172 0-.344.094-.47.219-.312-.328-.702-.375-.968-.375C1.953-4.5.953-2.844.953-1.516c0 1.188.844 1.594 1.594 1.594.61 0 1.078-.312 1.328-.5.188.344.625.5 1.016.5.468 0 .718-.344.843-.531.266-.422.391-.984.391-1.016M3.75-1c-.437.578-.844.719-1.156.719-.235 0-.563-.14-.563-.703 0-.547.344-1.766.453-2.047.344-.969.891-1.11 1.141-1.11.36 0 .625.22.734.61l-.578 2.36c-.015.062-.015.093-.031.171m0 0"/><path id="f" d="M5.25-1.5c0-.156-.14-.156-.281-.156-.172 0-.235 0-.282.11-.218.546-.734.562-1.578.562l-.671.03h-.485c.219-.234.469-.484 1.172-1.062.39-.312.89-.718 1.156-.984.578-.562 1.11-1.203 1.11-1.36 0-.14-.125-.14-.282-.14-.203 0-.218 0-.28.11-.126.171-.36.562-.516.562-.25 0-.454-.172-.657-.344-.312-.234-.531-.328-.797-.328-.859 0-1.406.89-1.406 1.188 0 .14.14.14.266.14.203 0 .218 0 .281-.125.047-.078.14-.125.469-.156h.703c.14 0 .531-.016.687-.016h.204c-.22.235-.47.485-1.157 1.063-.406.312-.906.719-1.172.984C1.266-.953.641-.25.641-.062c0 .14.109.14.28.14.188 0 .204-.015.266-.094.188-.28.47-.578.782-.578.25 0 .422.14.625.297.281.219.484.375.844.375C4.562.078 5.25-1.172 5.25-1.5m0 0"/><path id="g" d="M3.89-1.469c0-.14-.124-.14-.28-.14-.188 0-.235 0-.282.125-.078.265-.344 1.203-.922 1.203-.047 0-.14 0-.14-.172 0-.14.078-.39.093-.406l.891-2.375c.063-.157.094-.235.094-.391 0-.547-.516-.875-1.047-.875C1.25-4.5.766-3.156.766-2.953c0 .14.125.14.28.14.188 0 .235 0 .282-.124.078-.266.344-1.204.922-1.204.047 0 .125 0 .125.172 0 .125-.062.375-.078.406l-.89 2.36c-.063.172-.095.25-.095.39 0 .563.516.891 1.047.891 1.047 0 1.532-1.344 1.532-1.547m.141-4.656a.6.6 0 0 0-.625-.594c-.453 0-.89.422-.89.86 0 .328.25.609.625.609.468 0 .89-.437.89-.875m0 0"/><path id="h" d="M9.75-1.469c0-.14-.125-.14-.281-.14-.188 0-.235 0-.281.125-.079.265-.344 1.203-.907 1.203-.062 0-.14 0-.14-.172 0-.219.093-.469.218-.813.141-.375.594-1.546.594-2.109 0-.828-.594-1.125-1.375-1.125-.797 0-1.266.406-1.594.75-.218-.75-1.125-.75-1.343-.75-.203 0-.86 0-1.516.688C2.922-4.391 2.328-4.5 2-4.5c-.469 0-.719.328-.844.531-.265.422-.39.985-.39 1.016 0 .14.125.14.28.14.235 0 .25-.015.313-.265.094-.328.266-1.063.61-1.063.11 0 .187.079.187.297 0 .188-.015.281-.062.438L1.39-.562c-.047.14-.047.156-.047.218 0 .297.234.422.453.422.062 0 .5-.015.625-.531l.625-2.484c.062-.282.625-1.204 1.531-1.204.422 0 .422.375.422.563 0 .25-.031.422-.14.844l-.423 1.672c-.062.25-.156.64-.156.718 0 .297.235.422.438.422.125 0 .515-.047.64-.562l.61-2.453c.078-.282.64-1.204 1.531-1.204.438 0 .438.375.438.563 0 .594-.454 1.828-.641 2.266-.094.25-.125.359-.125.5 0 .562.516.89 1.047.89 1.047 0 1.531-1.344 1.531-1.547m0 0"/><path id="i" d="M6.531-1.469c0-.14-.125-.14-.281-.14-.234 0-.25 0-.312.25-.079.328-.266 1.078-.61 1.078-.11 0-.187-.078-.187-.313 0-.187.015-.265.062-.422l.688-2.765c.046-.14.046-.172.046-.219 0-.312-.25-.422-.453-.422-.125 0-.515.063-.64.547l-.688 2.813c-.047.171-.047.218-.328.5-.14.125-.39.28-.687.28-.5 0-.516-.468-.516-.687 0-.593.328-1.484.578-2.11.094-.25.14-.374.14-.546 0-.547-.515-.875-1.046-.875C1.25-4.5.766-3.156.766-2.953c0 .14.125.14.28.14.188 0 .235 0 .282-.124.078-.266.344-1.204.922-1.204.047 0 .125 0 .125.172 0 .203-.11.516-.172.656-.312.86-.594 1.579-.594 2.141 0 .906.641 1.25 1.47 1.25.28 0 .702-.047 1.187-.5.187.344.64.5 1.03.5.47 0 .72-.344.845-.531.265-.422.39-.984.39-1.016m0 0"/><path id="j" d="M4.172-1.469c0-.14-.125-.14-.281-.14-.22 0-.22 0-.297.156-.422 1-.906 1.172-1.172 1.172-.094 0-.203-.016-.203-.313 0-.187.015-.265.047-.422l.75-2.937h.797c.171 0 .328 0 .328-.297 0-.172-.157-.172-.297-.172h-.719l.188-.797c.078-.25.187-.687.187-.765 0-.235-.172-.422-.453-.422-.125 0-.5.062-.625.531l-.36 1.453H1.25c-.172 0-.344 0-.344.281 0 .188.172.188.313.188h.718L1.25-1.172c-.047.156-.047.219-.047.281 0 .625.578.97 1.172.97 1.14 0 1.797-1.391 1.797-1.548m0 0"/><path id="k" d="M6.234-1.469c0-.14-.14-.14-.28-.14-.188 0-.235 0-.282.125-.078.265-.344 1.203-.922 1.203-.047 0-.14 0-.14-.172 0-.219.109-.469.234-.813.14-.375.593-1.546.593-2.109 0-.828-.593-1.125-1.375-1.125-.515 0-.906.156-1.343.5l.656-2.578c0-.047.031-.11.031-.156 0-.188-.187-.188-.328-.172l-1.219.062c-.109 0-.312 0-.312.297 0 .172.172.172.266.172.125 0 .296.016.421.031L.797-.562C.75-.422.75-.406.75-.344c0 .25.203.422.469.422.11 0 .5-.047.61-.531l.624-2.484c.063-.266.625-1.204 1.531-1.204.438 0 .438.375.438.563 0 .594-.469 1.828-.64 2.266-.095.25-.126.359-.126.5 0 .562.516.89 1.047.89 1.031 0 1.531-1.344 1.531-1.547m0 0"/><path id="m" d="M5.344-.86c0-.078-.203-.312-.297-.312-.031 0-.078 0-.14.063-.735.828-1.75.828-1.891.828-.547 0-.844-.328-.844-.922 0-.25.078-.625.156-.969h.406c.594 0 2.563 0 2.563-1.375C5.297-4.14 4.75-4.5 4-4.5c-1.719 0-2.906 1.297-2.906 2.828 0 1.078.672 1.75 1.922 1.75.297 0 .89-.031 1.406-.219.531-.203.922-.593.922-.718m-.688-2.702c0 1.03-1.625 1.03-2.234 1.03.14-.5.234-.796.531-1.124A1.45 1.45 0 0 1 4-4.141c.422 0 .656.266.656.579m0 0"/><path id="n" d="M3.297-1.469c0-.14-.125-.14-.281-.14-.235 0-.25 0-.313.25-.078.328-.265 1.078-.594 1.078-.125 0-.203-.078-.203-.313 0-.187.032-.265.063-.422l1.406-5.562c0-.047.031-.11.031-.156 0-.188-.187-.188-.328-.172l-1.219.062c-.109 0-.312 0-.312.297 0 .172.172.172.266.172.125 0 .296.016.421.031L.954-1.172c-.048.156-.048.219-.048.281 0 .641.594.97 1.156.97.47 0 .72-.345.844-.532.266-.422.39-.984.39-1.016m0 0"/><path id="o" d="M5.531-3.64c0-.735-.453-.876-.64-.876-.344 0-.72.36-.72.72 0 .233.141.343.25.421.188.14.391.344.391.64 0 .047-.421 2.454-1.546 2.454-.547 0-.641-.438-.641-.75 0-.547.328-1.406.578-2.063.094-.25.14-.36.14-.531 0-.547-.515-.875-1.046-.875C1.25-4.5.766-3.156.766-2.953c0 .14.125.14.28.14.188 0 .235 0 .282-.124.078-.266.344-1.204.922-1.204.047 0 .125 0 .125.172 0 .203-.11.516-.172.656-.375 1.016-.594 1.594-.594 2.094 0 1.125.97 1.297 1.594 1.297 1.766 0 2.328-3.203 2.328-3.719m0 0"/><path id="p" d="M5.938-2.828c0-1.031-.72-1.672-1.907-1.672-1.968 0-2.968 1.656-2.968 2.906 0 1.032.718 1.672 1.89 1.672 1.969 0 2.985-1.656 2.985-2.906M4.344-1.234c-.297.625-.86.953-1.36.953-.359 0-.828-.172-.828-.875 0-.39.25-1.5.5-2.032.297-.624.86-.953 1.36-.953.343 0 .828.157.828.875 0 .391-.266 1.5-.5 2.032m0 0"/><path id="q" d="M6.813-1.469c0-.14-.125-.14-.266-.14-.203 0-.25 0-.281.125-.079.265-.36 1.203-.922 1.203-.047 0-.14 0-.14-.172 0-.219.093-.469.234-.813.14-.375.578-1.546.578-2.109 0-.828-.578-1.125-1.375-1.125-.203 0-.86 0-1.516.688C2.922-4.391 2.328-4.5 2-4.5c-.469 0-.719.328-.844.531-.265.422-.39.985-.39 1.016 0 .14.125.14.28.14.235 0 .25-.015.313-.265.094-.328.266-1.063.61-1.063.11 0 .187.079.187.297 0 .188-.015.281-.062.438L1.39-.562c-.047.14-.047.156-.047.218 0 .297.234.422.453.422.062 0 .5-.015.625-.531l.625-2.484c.062-.282.625-1.204 1.531-1.204.422 0 .422.375.422.563 0 .594-.453 1.828-.64 2.266-.079.25-.11.359-.11.5 0 .562.5.89 1.047.89 1.031 0 1.516-1.344 1.516-1.547m0 0"/></defs><path fill="none" stroke="#000" stroke-miterlimit="10" stroke-width=".399" d="m.895 98.156 159.43-19.844"/><path fill="none" stroke="#000" stroke-linecap="round" stroke-linejoin="round" stroke-miterlimit="10" stroke-width=".39898803000000005" d="M158.172 76.168c.55 1.379 1.473 1.945 2.351 2.117-.808.383-1.562 1.16-1.761 2.63"/><use xlink:href="#a" x="165.688" y="79.479"/><path fill="none" stroke="#000" stroke-miterlimit="10" stroke-width=".399" d="M109.895 115.54 52.012 61.147"/><path fill="none" stroke="#000" stroke-linecap="round" stroke-linejoin="round" stroke-miterlimit="10" stroke-width=".39897606" d="M51.738 64.176c.707-1.305.559-2.375.13-3.16.808.375 1.89.46 3.148-.325"/><use xlink:href="#b" x="45.79" y="59.36"/><path fill="none" stroke="#000" stroke-miterlimit="10" stroke-width=".399" d="M80.809 114.848V8.695"/><path fill="none" stroke="#000" stroke-linecap="round" stroke-linejoin="round" stroke-miterlimit="10" stroke-width=".399" d="M78.418 10.566c1.434-.375 2.11-1.218 2.39-2.07.278.852.958 1.695 2.391 2.07"/><use xlink:href="#c" x="78.263" y="5.182"/><path fill="none" stroke="#000" stroke-miterlimit="10" stroke-width=".399" d="M100.195 106.426c15.48-1.926 27.735-6.063 33.586-11.317"/><path fill="none" stroke="#000" stroke-linecap="round" stroke-linejoin="round" stroke-miterlimit="10" stroke-width=".39898404" d="M130.781 94.652c1.258.79 2.336.703 3.149.325-.43.785-.578 1.855.125 3.16"/><path fill="none" stroke="#000" stroke-miterlimit="10" stroke-width=".399" d="m120.895 101.918 20.043 6.855"/><use xlink:href="#d" x="116.972" y="119.765"/><use xlink:href="#e" x="120.847" y="119.765"/><use xlink:href="#f" x="126.735" y="119.765"/><use xlink:href="#g" x="131.627" y="119.765"/><use xlink:href="#h" x="135.173" y="119.765"/><use xlink:href="#i" x="144.578" y="119.765"/><use xlink:href="#j" x="150.765" y="119.765"/><use xlink:href="#k" x="154.6" y="119.765"/><use xlink:href="#l" x="161.026" y="119.765"/><path fill="none" stroke="#000" stroke-dasharray="2.98883 2.98883" stroke-miterlimit="10" stroke-width=".399" d="m80.809 88.21 79.898 9.946"/><path fill="none" stroke="#000" stroke-miterlimit="10" stroke-width=".399" d="M147.39 96.496c0-19.555-8.597-39.191-23.5-53.691"/><path fill="none" stroke="#000" stroke-linecap="round" stroke-linejoin="round" stroke-miterlimit="10" stroke-width=".39898803000000005" d="M123.586 45.828c.723-1.297.582-2.367.164-3.16.805.39 1.883.488 3.152-.281"/><path fill="none" stroke="#000" stroke-miterlimit="10" stroke-width=".399" d="m141.148 67.582 24.141-8.25"/><use xlink:href="#d" x="138.897" y="53.322"/><use xlink:href="#m" x="142.772" y="53.322"/><use xlink:href="#n" x="148.072" y="53.322"/><use xlink:href="#m" x="151.031" y="53.322"/><use xlink:href="#o" x="156.331" y="53.322"/><use xlink:href="#e" x="161.631" y="53.322"/><use xlink:href="#j" x="167.519" y="53.322"/><use xlink:href="#g" x="171.355" y="53.322"/><use xlink:href="#p" x="174.902" y="53.322"/><use xlink:href="#q" x="180.789" y="53.322"/><use xlink:href="#l" x="187.803" y="53.322"/><path fill="none" stroke="#000" stroke-dasharray="2.98883 2.98883" stroke-miterlimit="10" stroke-width=".399" d="m80.809 88.21 51.359-54.815"/><path fill="none" stroke="#000" stroke-miterlimit="10" stroke-width=".399" d="m131.809 26.645 10.629-4.211-3.602 10.98"/><path fill="none" stroke="#000" stroke-miterlimit="10" stroke-width=".399" d="M134.172 25.707a11.1 11.1 0 0 0 5.465 5.266M138.246 26.91c-1.016-.976-1.684-1.933-1.496-2.137.191-.199 1.164.43 2.18 1.407 1.015.976 1.683 1.933 1.492 2.133-.188.203-1.164-.426-2.176-1.403Zm0 0"/></svg>