<svg xmlns="http://www.w3.org/2000/svg" width="67.618" height="115.814"><defs><clipPath id="a"><path d="M0 97h18v18.723H0Zm0 0"/></clipPath><clipPath id="b"><path d="M54 100h13.426v15.723H54Zm0 0"/></clipPath><clipPath id="c"><path d="M54 29h13.426v18H54Zm0 0"/></clipPath></defs><g clip-path="url(#a)"><path fill="none" stroke="#000" stroke-miterlimit="10" stroke-width=".399" d="M12.355 108.84a5.67 5.67 0 1 0-11.34.003 5.67 5.67 0 0 0 11.34-.003Zm0 0"/></g><path fill="none" stroke="#000" stroke-miterlimit="10" stroke-width=".399" d="M43.535 80.496a8.504 8.504 0 1 0-17.008 0A8.506 8.506 0 0 0 35.031 89c4.7 0 8.504-3.809 8.504-8.504Zm0 0"/><g clip-path="url(#b)"><path fill="none" stroke="#000" stroke-miterlimit="10" stroke-width=".399" d="M66.215 108.84a2.835 2.835 0 1 0-5.67.006 2.835 2.835 0 0 0 5.67-.006Zm0 0"/></g><path fill="none" stroke="#000" stroke-miterlimit="10" stroke-width=".399" d="M12.355 37.973a5.67 5.67 0 1 0-11.34.003 5.67 5.67 0 0 0 11.34-.003ZM43.535 9.629a8.5 8.5 0 0 0-8.504-8.504 8.503 8.503 0 0 0-8.504 8.504 8.506 8.506 0 0 0 8.504 8.504c4.7 0 8.504-3.809 8.504-8.504Zm0 0"/><g clip-path="url(#c)"><path fill="none" stroke="#000" stroke-miterlimit="10" stroke-width=".399" d="M66.215 37.973a2.835 2.835 0 1 0-5.67.005 2.835 2.835 0 0 0 5.67-.005Zm0 0"/></g></svg>