<svg xmlns="http://www.w3.org/2000/svg" width="98.558" height="65.306"><defs><clipPath id="a"><path d="M0 0h98.336v64.96H0Zm0 0"/></clipPath><clipPath id="b"><path d="M23 45h75.336v19.96H23Zm0 0"/></clipPath><clipPath id="c"><path d="M0 0h69v64.96H0Zm0 0"/></clipPath></defs><path fill="none" stroke="#7F7F7F" stroke-miterlimit="10" stroke-width=".199" d="M6.379 57.637h85.043M6.379 29.289h85.043M6.379.953h85.043M6.379 57.637V.94m28.348 56.696V.94m28.347 56.696V.94M91.41 57.637V.94"/><g clip-path="url(#a)"><path fill="none" stroke="#000" stroke-miterlimit="10" stroke-width=".797" d="M6.379 57.637 63.074.94M34.727 57.637h56.695"/></g><g clip-path="url(#b)"><path fill="none" stroke="red" stroke-miterlimit="10" stroke-width=".399" d="M34.727 51.367 29.059 55.7l2.164 7.008h7.007l2.165-7.008Zm14.171 0L43.23 55.7l2.168 7.008h7.004l2.168-7.008Zm14.176 0L57.406 55.7l2.164 7.008h7.008l2.164-7.008Zm14.172 0L71.578 55.7l2.164 7.008h7.008l2.164-7.008Zm14.176 0L85.75 55.7l2.168 7.008h7.004l2.168-7.008Zm0 0"/></g><g clip-path="url(#c)"><path fill="none" stroke="#00F" stroke-miterlimit="10" stroke-width=".399" d="m1.95 53.203-.946 7.07L7.488 63.7l4.953-4.957-3.421-6.484Zm10.023-10.02-.95 7.07 6.485 3.423 4.957-4.953-3.422-6.489Zm10.02-10.023-.946 7.07 6.484 3.422 4.957-4.953-3.425-6.484Zm10.023-10.023-.946 7.07 6.485 3.426 4.953-4.957-3.422-6.485Zm10.023-10.02-.95 7.07 6.485 3.422 4.957-4.953-3.426-6.484ZM52.06 3.094l-.946 7.07 6.485 3.422 4.953-4.953-3.422-6.485Zm0 0"/></g></svg>