<svg xmlns="http://www.w3.org/2000/svg" xmlns:xlink="http://www.w3.org/1999/xlink" width="89.588" height="45.74"><defs><path id="b" d="M4.406-3.672c0-.531-.531-.812-1.062-.812-.688 0-1.094.5-1.313 1.125v-1.125l-1.656.078v.468c.61 0 .688 0 .688.391v3.078H.375V0l1.25-.031C2-.031 2.641-.031 3 0v-.469h-.86v-1.75c0-.687.235-1.906 1.235-1.906 0 0-.187.172-.187.453 0 .406.328.61.609.61.297 0 .61-.204.61-.61m0 0"/><path id="c" d="M5.516-.234c0-.235-.125-.235-.266-.235-.61-.015-.61-.14-.61-.375v-2.14c0-.891-.702-1.532-2.187-1.532-.562 0-1.781.047-1.781.922 0 .438.344.625.61.625.312 0 .624-.219.624-.625 0-.297-.187-.469-.218-.5a5 5 0 0 1 .718-.062c.75 0 1.11.422 1.11 1.172v.343c-.72.032-3.25.125-3.25 1.563C.266-.125 1.5.062 2.188.062c.796 0 1.265-.406 1.484-.828 0 .313 0 .766 1.047.766h.468c.204 0 .329 0 .329-.234m-2-1.157c0 .97-.922 1.094-1.172 1.094-.516 0-.906-.344-.906-.797 0-1.062 1.578-1.203 2.078-1.234Zm0 0"/><path id="d" d="M2.844 0v-.469h-.61v-4.015L.5-4.406v.468c.594 0 .656 0 .656.391v3.078H.47V0l1.219-.031Zm-.469-6.047a.774.774 0 0 0-.781-.781.784.784 0 0 0-.782.781c0 .422.36.766.782.766a.77.77 0 0 0 .781-.766m0 0"/><path id="e" d="M6.125 0v-.469h-.687v-2.578c0-1.047-.532-1.437-1.532-1.437-.953 0-1.484.562-1.75 1.078v-1.078l-1.703.078v.468c.61 0 .688 0 .688.391v3.078H.453V0l1.25-.031L2.953 0v-.469h-.687v-2.078c0-1.094.859-1.578 1.5-1.578.328 0 .547.203.547.969V-.47h-.688V0l1.25-.031Zm0 0"/><path id="g" d="M4.14-1.39c0-.438-.202-.782-.546-1.063-.39-.281-.719-.344-1.485-.485-.375-.062-1.015-.171-1.015-.64 0-.625.922-.625 1.11-.625.75 0 1.124.297 1.171.844.016.156.031.203.234.203.235 0 .235-.047.235-.281v-.797c0-.188 0-.282-.172-.282-.047 0-.063 0-.453.188-.266-.125-.61-.188-1-.188-.313 0-1.844 0-1.844 1.313 0 .39.203.656.406.828.39.344.782.406 1.547.547.36.062 1.094.187 1.094.781 0 .75-.906.75-1.125.75C1.234-.297.984-1.03.859-1.453c-.046-.14-.109-.14-.234-.14-.25 0-.25.062-.25.28v1.094c0 .188 0 .282.188.282.062 0 .078 0 .296-.157l.25-.172c.47.329.985.329 1.188.329.312 0 1.844 0 1.844-1.454m0 0"/><path id="h" d="M5.406-2.172c0-1.344-.922-2.344-2.547-2.344C1.22-4.516.313-3.5.313-2.172c0 1.235.89 2.235 2.546 2.235 1.672 0 2.547-1.016 2.547-2.235m-1.281-.11c0 .86 0 1.938-1.266 1.938-1.265 0-1.265-1.078-1.265-1.937 0-.453 0-.953.172-1.297.187-.375.609-.578 1.093-.578.422 0 .844.156 1.063.5.203.344.203.89.203 1.375m0 0"/><path id="i" d="M8.031-3.953v-.469a13 13 0 0 1-.781.031l-.953-.03v.468c.094 0 .578 0 .578.11 0 .03-.031.093-.031.124L5.797-1.172l-1.14-2.781h.562v-.469l-1.14.031c-.423 0-.845-.03-1-.03v.468h.593c.203.5.203.531.203.531 0 .031-.031.094-.031.125L3.047-1.39 2-3.953h.563v-.469l-1.235.031L.25-4.42v.468h.594L2.359-.234c.079.172.11.28.36.28s.297-.108.36-.28L4.14-2.812 5.188-.235c.078.172.109.28.359.28s.297-.108.36-.28L7.343-3.75c.047-.125.093-.203.687-.203m0 0"/><clipPath id="a"><path d="M0 0h51v45.61H0Zm0 0"/></clipPath><clipPath id="f"><path d="M36 5h53.383v36H36Zm0 0"/></clipPath></defs><path fill="#E5E5E5" d="M28.113 5.133c-.601-2.235-2.96-4.047-5.273-4.047-2.317 0-4.676 1.812-5.277 4.047-1.711-1.555-4.676-1.801-6.622-.551-1.949 1.25-2.957 4.05-2.254 6.254-2.28-.383-4.91 1.012-5.87 3.117-.962 2.106-.294 5.008 1.492 6.48-2.13.91-3.586 3.505-3.258 5.797.332 2.29 2.46 4.368 4.758 4.645-1.297 1.914-1.122 4.887.394 6.633 1.516 1.75 4.434 2.347 6.512 1.34-.055 2.312 1.703 4.715 3.922 5.367 2.218.652 4.996-.422 6.203-2.395 1.203 1.973 3.98 3.047 6.2 2.395 2.218-.653 3.976-3.055 3.92-5.367 2.08 1.007 4.997.41 6.513-1.336 1.511-1.75 1.691-4.723.394-6.637 2.297-.277 4.426-2.355 4.758-4.645.328-2.289-1.129-4.886-3.258-5.796 1.785-1.473 2.453-4.375 1.492-6.48-.96-2.102-3.59-3.5-5.87-3.118.702-2.203-.305-5.004-2.25-6.254s-4.915-1.004-6.626.55m0 0"/><g clip-path="url(#a)"><path fill="none" stroke="#000" stroke-miterlimit="10" stroke-width=".399" d="M28.113 5.133c-.601-2.235-2.96-4.047-5.273-4.047-2.317 0-4.676 1.812-5.277 4.047-1.711-1.555-4.676-1.801-6.622-.551-1.949 1.25-2.957 4.05-2.253 6.254-2.282-.383-4.91 1.012-5.872 3.117-.96 2.106-.293 5.008 1.493 6.48-2.13.91-3.586 3.505-3.258 5.797.332 2.29 2.46 4.368 4.758 4.645-1.297 1.914-1.122 4.887.394 6.633 1.516 1.75 4.434 2.347 6.512 1.34-.055 2.312 1.703 4.715 3.922 5.367 2.218.652 4.996-.422 6.203-2.395 1.203 1.973 3.98 3.047 6.2 2.395 2.218-.653 3.976-3.055 3.92-5.367 2.08 1.007 4.997.41 6.513-1.336 1.511-1.75 1.691-4.723.394-6.637 2.297-.277 4.426-2.355 4.758-4.645.328-2.289-1.129-4.886-3.258-5.796 1.785-1.473 2.453-4.375 1.492-6.48-.96-2.102-3.59-3.5-5.87-3.118.702-2.203-.305-5.004-2.25-6.254s-4.915-1.004-6.626.55Zm0 0"/></g><use xlink:href="#b" x="12.92" y="26.479"/><use xlink:href="#c" x="17.642" y="26.479"/><use xlink:href="#d" x="23.211" y="26.479"/><use xlink:href="#e" x="26.389" y="26.479"/><path fill="#FFF" d="M71.578 15.488c-.707-2.633-3.492-4.77-6.219-4.77-2.73 0-5.515 2.137-6.218 4.77-1.106-2.078-3.864-3.336-6.16-2.804-2.294.527-4.223 2.867-4.305 5.222-1.156-.867-3.012-.843-4.145.047-1.133.895-1.59 2.692-1.023 4.016-.836.625-1.2 1.922-.813 2.89.39.97 1.547 1.657 2.582 1.532-.25 1.918.993 4.074 2.778 4.812 1.789.742 4.191.098 5.367-1.437.414 2.601 2.867 4.933 5.484 5.21 2.621.274 5.508-1.492 6.453-3.949.942 2.457 3.832 4.223 6.45 3.95 2.617-.278 5.074-2.61 5.484-5.211 1.176 1.535 3.582 2.18 5.367 1.437 1.785-.738 3.031-2.894 2.778-4.812 1.039.125 2.19-.563 2.582-1.532.386-.968.023-2.265-.813-2.89.57-1.324.11-3.121-1.023-4.016-1.133-.89-2.989-.914-4.141-.047-.086-2.355-2.012-4.695-4.309-5.222-2.293-.532-5.05.726-6.156 2.804m0 0"/><g clip-path="url(#f)"><path fill="none" stroke="#000" stroke-miterlimit="10" stroke-width=".399" d="M71.578 15.488c-.707-2.633-3.492-4.77-6.219-4.77-2.73 0-5.515 2.137-6.218 4.77-1.106-2.078-3.864-3.336-6.16-2.804-2.294.527-4.223 2.867-4.305 5.222-1.156-.867-3.012-.843-4.145.047-1.133.895-1.59 2.692-1.023 4.016-.836.625-1.2 1.922-.813 2.89.39.97 1.547 1.657 2.582 1.532-.25 1.918.993 4.074 2.778 4.812 1.789.742 4.191.098 5.367-1.437.414 2.601 2.867 4.933 5.484 5.21 2.621.274 5.508-1.492 6.453-3.949.942 2.457 3.832 4.223 6.45 3.95 2.617-.278 5.074-2.61 5.484-5.211 1.176 1.535 3.582 2.18 5.367 1.437 1.785-.738 3.031-2.894 2.778-4.812 1.039.125 2.19-.563 2.582-1.532.386-.968.023-2.265-.813-2.89.57-1.324.11-3.121-1.023-4.016-1.133-.89-2.989-.914-4.141-.047-.086-2.355-2.012-4.695-4.309-5.222-2.293-.532-5.05.726-6.156 2.804Zm0 0"/></g><use xlink:href="#g" x="53.069" y="25.323"/><use xlink:href="#e" x="57.592" y="25.323"/><use xlink:href="#h" x="63.958" y="25.323"/><use xlink:href="#i" x="69.368" y="25.323"/></svg>