<svg xmlns="http://www.w3.org/2000/svg" xmlns:xlink="http://www.w3.org/1999/xlink" width="94.736" height="83.18"><defs><path id="a" d="M5.828 0v-.469h-.703L3.453-2.453 4.61-3.75c.141-.14.204-.203 1.016-.203v-.469l-.906.031-1.032-.03v.468c.141 0 .266.015.376.078-.032.063-.032.094-.079.125l-.828.938-.984-1.141h.406v-.469L1.36-4.39.266-4.42v.468h.718l1.547 1.828L1.22-.656c-.157.187-.516.187-1 .187V0l.922-.031L2.156 0v-.469c-.172 0-.36-.047-.36-.11 0 0 0-.015.063-.093l.97-1.094L3.921-.469h-.39V0l1.202-.031Zm0 0"/><path id="b" d="M5.781-3.953v-.469A13 13 0 0 1 5-4.39l-.906-.03v.468s.468 0 .468.11L4.5-3.72 3.36-1.266 2.093-3.953h.531v-.469l-1.234.031-1.125-.03v.468H.89L2.766 0 2.53.484C2.312.954 2 1.641 1.281 1.641c-.14 0-.156-.016-.234-.047.094-.032.312-.172.312-.532C1.36.734 1.125.5.781.5a.553.553 0 0 0-.562.578c0 .5.469.922 1.062.922.766 0 1.344-.625 1.625-1.187l2.14-4.563c.063-.14.095-.203.735-.203m0 0"/><path id="c" d="M4.61-2.016h-.47C4.048-1 3.89-.406 2.579-.406h-.86L4.469-4c.095-.11.11-.125.11-.219 0-.203-.14-.203-.328-.203H.594l-.11 1.734h.47c.046-1.015.359-1.374 1.39-1.374h.844L.406-.437C.312-.328.312-.312.312-.22.313 0 .454 0 .642 0h3.78Zm0 0"/></defs><path fill="#999" d="M35.555 13.313 7.21.604l39.117 4.403 20.25 9.078Zm0 0"/><path fill="#7F7F7F" d="M35.555 68.074V13.313L7.21.604v54.762Zm0 0"/><path fill="#BFBFBF" d="M35.555 68.074V13.313l31.023.773v39.117Zm0 0"/><path fill="none" stroke="#000" stroke-miterlimit="10" stroke-width=".399" d="m23.281 69.91 60.98-9.113"/><path fill="none" stroke="#000" stroke-linecap="round" stroke-linejoin="round" stroke-miterlimit="10" stroke-width=".39898005000000003" d="M82.055 58.71c.586 1.364 1.52 1.907 2.402 2.06-.8.402-1.535 1.195-1.695 2.671"/><use xlink:href="#a" x="87.768" y="62.034"/><path fill="none" stroke="#000" stroke-miterlimit="10" stroke-width=".399" d="M42.645 71.254 7.575 55.53"/><path fill="none" stroke="#000" stroke-linecap="round" stroke-linejoin="round" stroke-miterlimit="10" stroke-width=".39898803000000005" d="M8.305 58.48c.242-1.464-.254-2.43-.914-3.03.89.093 1.937-.18 2.87-1.333"/><use xlink:href="#b" x=".643" y="54.996"/><path fill="none" stroke="#000" stroke-miterlimit="10" stroke-width=".399" d="M35.555 81.766V13.71"/><path fill="none" stroke="#000" stroke-linecap="round" stroke-linejoin="round" stroke-miterlimit="10" stroke-width=".399" d="M33.164 15.586c1.438-.379 2.113-1.223 2.39-2.074.282.851.958 1.695 2.391 2.074"/><use xlink:href="#c" x="33.011" y="8.681"/></svg>