<svg xmlns="http://www.w3.org/2000/svg" xmlns:xlink="http://www.w3.org/1999/xlink" width="24.301" height="24.302"><defs><clipPath id="a"><path d="M0 0h23.953v23.953H0Zm0 0"/></clipPath><clipPath id="c"><path d="M7 0h16.953v16H7Zm0 0"/></clipPath><path id="b" d="M5.516-.234c0-.235-.125-.235-.266-.235-.61-.015-.61-.14-.61-.375v-2.14c0-.891-.702-1.532-2.187-1.532-.562 0-1.781.047-1.781.922 0 .438.344.625.61.625.312 0 .624-.219.624-.625 0-.297-.187-.469-.218-.5a5 5 0 0 1 .718-.062c.75 0 1.11.422 1.11 1.172v.343c-.72.032-3.25.125-3.25 1.563C.266-.125 1.5.062 2.188.062c.796 0 1.265-.406 1.484-.828 0 .313 0 .766 1.047.766h.468c.204 0 .329 0 .329-.234m-2-1.157c0 .97-.922 1.094-1.172 1.094-.516 0-.906-.344-.906-.797 0-1.062 1.578-1.203 2.078-1.234Zm0 0"/></defs><g clip-path="url(#a)"><path fill="none" stroke="#000" stroke-miterlimit="10" stroke-width=".399" d="M17.398 14.484c0-4.57-3.703-8.27-8.27-8.27a8.27 8.27 0 1 0 8.27 8.27Zm0 0"/></g><use xlink:href="#b" x="6.343" y="16.709"/><g clip-path="url(#c)"><path fill="none" stroke="#000" stroke-miterlimit="10" stroke-width=".399" d="M13.363 7.148c6.844-11.851 14.805-4.53 4.293 2.368"/></g><path fill="none" stroke="#000" stroke-linecap="round" stroke-linejoin="round" stroke-miterlimit="10" stroke-width=".39898005000000003" d="M20.512 10.543c-1.086-1.012-2.16-1.133-3.028-.914.567-.692.918-1.715.473-3.129"/></svg>