<svg xmlns="http://www.w3.org/2000/svg" xmlns:xlink="http://www.w3.org/1999/xlink" width="95.505" height="84.098"><defs><path id="a" d="M5.984 0v-.469h-.687V-4.53l-1.75.062-.016.047H2.078v-.984c0-.828.672-1.219 1.594-1.219.281 0 .5.063.719.188-.157.062-.438.234-.438.625 0 .39.297.656.656.656s.657-.25.657-.672c0-.516-.438-1.156-1.532-1.156-1.234 0-2.671.39-2.671 1.562v1h-.75v.469h.75V-.47H.375V0l1.219-.031L2.828 0v-.469h-.687v-3.484h1.78c.25 0 .313 0 .313.344v3.14h-.703V0l1.235-.031Zm0 0"/><path id="b" d="M2.922 0v-.469h-.688v-6.453L.47-6.844v.469c.625 0 .687 0 .687.39v5.516H.47V0l1.219-.031Zm0 0"/><path id="c" d="M4.922-1.172c0-.172-.188-.172-.234-.172-.172 0-.188.047-.25.203-.204.485-.782.797-1.422.797-1.407 0-1.422-1.328-1.422-1.828h3.015c.22 0 .313 0 .313-.265 0-.313-.063-1.047-.563-1.547-.359-.36-.89-.532-1.578-.532C1.187-4.516.313-3.484.313-2.25c0 1.344 1 2.313 2.609 2.313 1.578 0 2-1.063 2-1.235M3.984-2.5h-2.39c.015-.39.031-.812.234-1.14.266-.391.672-.516.953-.516 1.172 0 1.188 1.312 1.203 1.656m0 0"/><path id="d" d="M5.984 0v-.469c-.609 0-.687 0-.687-.39v-6.063l-1.766.078v.469c.625 0 .703 0 .703.39v1.954a2.18 2.18 0 0 0-1.359-.453c-1.453 0-2.5.875-2.5 2.28 0 1.313.922 2.267 2.39 2.267.61 0 1.094-.235 1.407-.485v.485ZM4.172-1.031c-.14.187-.547.734-1.297.734-1.219 0-1.219-1.203-1.219-1.906 0-.485 0-1.016.25-1.406.297-.422.766-.516 1.078-.516.563 0 .97.313 1.188.61Zm0 0"/><path id="e" d="M4.406-3.672c0-.531-.531-.812-1.062-.812-.688 0-1.094.5-1.313 1.125v-1.125l-1.656.078v.468c.61 0 .688 0 .688.391v3.078H.375V0l1.25-.031C2-.031 2.641-.031 3 0v-.469h-.86v-1.75c0-.687.235-1.906 1.235-1.906 0 0-.187.172-.187.453 0 .406.328.61.609.61.297 0 .61-.204.61-.61m0 0"/><path id="f" d="M5.516-.234c0-.235-.125-.235-.266-.235-.61-.015-.61-.14-.61-.375v-2.14c0-.891-.702-1.532-2.187-1.532-.562 0-1.781.047-1.781.922 0 .438.344.625.61.625.312 0 .624-.219.624-.625 0-.297-.187-.469-.218-.5a5 5 0 0 1 .718-.062c.75 0 1.11.422 1.11 1.172v.343c-.72.032-3.25.125-3.25 1.563C.266-.125 1.5.062 2.188.062c.796 0 1.265-.406 1.484-.828 0 .313 0 .766 1.047.766h.468c.204 0 .329 0 .329-.234m-2-1.157c0 .97-.922 1.094-1.172 1.094-.516 0-.906-.344-.906-.797 0-1.062 1.578-1.203 2.078-1.234Zm0 0"/><path id="g" d="M8.031-3.953v-.469a13 13 0 0 1-.781.031l-.953-.03v.468c.094 0 .578 0 .578.11 0 .03-.031.093-.031.124L5.797-1.172l-1.14-2.781h.562v-.469l-1.14.031c-.423 0-.845-.03-1-.03v.468h.593c.203.5.203.531.203.531 0 .031-.031.094-.031.125L3.047-1.39 2-3.953h.563v-.469l-1.235.031L.25-4.42v.468h.594L2.359-.234c.079.172.11.28.36.28s.297-.108.36-.28L4.14-2.812 5.188-.235c.078.172.109.28.359.28s.297-.108.36-.28L7.343-3.75c.047-.125.093-.203.687-.203m0 0"/><path id="h" d="M6.125 0v-.469h-.687v-2.578c0-1.047-.532-1.437-1.532-1.437-.953 0-1.484.562-1.75 1.078v-1.078l-1.703.078v.468c.61 0 .688 0 .688.391v3.078H.453V0l1.25-.031L2.953 0v-.469h-.687v-2.078c0-1.094.859-1.578 1.5-1.578.328 0 .547.203.547.969V-.47h-.688V0l1.25-.031Zm0 0"/><path id="i" d="M8.266-2.781c0-.86-.391-1.563-1.094-2.125-.781-.578-1.422-.688-2.969-.953C3.47-6 2.172-6.22 2.172-7.156c0-1.235 1.86-1.235 2.234-1.235 1.485 0 2.25.579 2.344 1.672.016.297.047.407.469.407.468 0 .468-.11.468-.563v-1.594c0-.375 0-.562-.359-.562-.078 0-.11 0-.89.39-.516-.265-1.22-.39-2.016-.39-.594 0-3.672 0-3.672 2.61 0 .796.406 1.343.797 1.687.797.687 1.562.812 3.094 1.093.718.11 2.218.375 2.218 1.547 0 1.5-1.843 1.5-2.28 1.5-2.11 0-2.626-1.453-2.86-2.312-.11-.281-.203-.281-.485-.281-.484 0-.484.124-.484.578v2.172c0 .375 0 .562.36.562.14 0 .187 0 .609-.297l.515-.344c.907.641 1.954.641 2.344.641.625 0 3.688 0 3.688-2.906m0 0"/><path id="j" d="M9.516-2.328c0-.281-.266-.281-.47-.281-.358 0-.374.046-.483.297-.516 1.25-1.47 1.64-2.485 1.64-2.766 0-2.766-2.937-2.766-3.844 0-1.125 0-3.718 2.563-3.718.703 0 1.031.062 1.297.125-.36.312-.406.734-.406.922 0 .875.703 1.25 1.25 1.25.609 0 1.25-.422 1.25-1.25 0-1.72-2.313-1.844-3.47-1.844C2.235-9.031.75-6.734.75-4.421.75-1.767 2.625.124 5.703.124c3.219 0 3.813-2.312 3.813-2.453m0 0"/><path id="k" d="M11.016-.484c0-.453-.266-.453-.516-.453-1.219-.016-1.219-.282-1.219-.735v-4.281c0-1.781-1.406-3.078-4.375-3.078-1.14 0-3.578.094-3.578 1.844 0 .875.703 1.25 1.235 1.25.624 0 1.265-.422 1.265-1.25 0-.61-.375-.938-.437-.985a8.5 8.5 0 0 1 1.437-.14c1.484 0 2.188.843 2.188 2.359v.672C5.594-5.22.53-5.047.53-2.156.531-.234 3.016.125 4.375.125c1.594 0 2.531-.828 2.969-1.656 0 .61 0 1.531 2.078 1.531h.953c.406 0 .64 0 .64-.484m-4-2.282c0 1.907-1.844 2.172-2.328 2.172-1.016 0-1.813-.703-1.813-1.578 0-2.156 3.14-2.437 4.14-2.484Zm0 0"/><path id="l" d="M5.844 0v-.937H4.469v-12.891l-3.532.156v.938c1.235 0 1.376 0 1.376.78V-.936H.937V0l2.454-.062Zm0 0"/><path id="m" d="M9.844-2.328c0-.36-.375-.36-.485-.36-.328 0-.375.094-.5.422-.406.954-1.546 1.594-2.843 1.594-2.813 0-2.828-2.656-2.828-3.672h6.015c.438 0 .64 0 .64-.531 0-.625-.124-2.078-1.124-3.078-.735-.719-1.781-1.078-3.156-1.078C2.375-9.031.64-6.97.64-4.484.64-1.812 2.625.125 5.844.125c3.14 0 4-2.11 4-2.453M7.954-5H3.187c.046-.781.062-1.61.484-2.266a2.25 2.25 0 0 1 1.89-1.046c2.329 0 2.36 2.609 2.391 3.312m0 0"/><path id="n" d="M11.969 0v-.937c-1.235 0-1.375 0-1.375-.782v-12.11l-3.516.157v.938c1.234 0 1.375 0 1.375.78v3.892c-1-.782-2.031-.907-2.703-.907-2.906 0-5 1.75-5 4.563C.75-1.766 2.594.125 5.531.125a4.47 4.47 0 0 0 2.797-.984v.984Zm-3.64-2.047c-.267.36-1.079 1.453-2.595 1.453-2.421 0-2.421-2.422-2.421-3.812 0-.953 0-2.032.515-2.813.578-.828 1.516-1.031 2.125-1.031 1.14 0 1.938.64 2.375 1.219Zm0 0"/></defs><path fill="#D2C92A" d="M.77 16.684h30.98V3.012H.77Zm0 0"/><use xlink:href="#a" x="4.091" y="13.305"/><use xlink:href="#b" x="10.458" y="13.305"/><use xlink:href="#b" x="13.636" y="13.305"/><use xlink:href="#c" x="16.814" y="13.305"/><use xlink:href="#d" x="22.064" y="13.305"/><path fill="none" stroke="#000" stroke-miterlimit="10" stroke-width="4.981" d="M54.14 16.656h37.626V3.04H54.14Zm0 0"/><use xlink:href="#d" x="57.462" y="13.275"/><use xlink:href="#e" x="63.828" y="13.275"/><use xlink:href="#f" x="68.55" y="13.275"/><use xlink:href="#g" x="73.8" y="13.275"/><use xlink:href="#h" x="82.079" y="13.275"/><path fill="none" stroke="#000" stroke-miterlimit="10" stroke-width="4.981" d="M81.227 52.926H7.988v27.23h73.239Zm0 0"/><use xlink:href="#i" x="14.63" y="73.395"/><use xlink:href="#j" x="23.676" y="73.395"/><use xlink:href="#k" x="33.857" y="73.395"/><use xlink:href="#l" x="44.996" y="73.395"/><use xlink:href="#m" x="51.352" y="73.395"/><use xlink:href="#n" x="61.852" y="73.395"/><path fill="none" stroke="#000" stroke-miterlimit="10" stroke-width=".399" d="M44.605 38.195 23.38 16.97"/><path fill="none" stroke="#000" stroke-linecap="round" stroke-linejoin="round" stroke-miterlimit="10" stroke-width=".39899202" d="M23.012 19.98c.746-1.28.629-2.355.226-3.152.797.402 1.875.52 3.157-.226"/><path fill="none" stroke="#000" stroke-miterlimit="10" stroke-width=".399" d="m44.605 38.195 18.77-18.765"/><path fill="none" stroke="#000" stroke-linecap="round" stroke-linejoin="round" stroke-miterlimit="10" stroke-width=".39899202" d="M60.36 19.062c1.28.747 2.359.63 3.156.227-.403.797-.52 1.871.226 3.152"/><path fill="none" stroke="#000" stroke-miterlimit="10" stroke-width=".399" d="M44.605 38.195V50.04"/><path fill="none" stroke="#000" stroke-linecap="round" stroke-linejoin="round" stroke-miterlimit="10" stroke-width=".399" d="M47 48.164c-1.437.379-2.113 1.223-2.395 2.074-.277-.851-.953-1.695-2.39-2.074"/></svg>