<svg xmlns="http://www.w3.org/2000/svg" xmlns:xlink="http://www.w3.org/1999/xlink" width="160.699" height="101.721"><defs><path id="c" d="M5.563-1.812c.14 0 .312 0 .312-.172 0-.188-.172-.188-.312-.188H1c-.125 0-.297 0-.297.188 0 .172.172.172.297.172Zm0 0"/><path id="d" d="M2.25-1.625c.125-.125.453-.39.594-.5.484-.453.953-.89.953-1.61 0-.953-.797-1.562-1.781-1.562-.97 0-1.594.719-1.594 1.438 0 .39.312.437.422.437.172 0 .422-.11.422-.422 0-.406-.407-.406-.5-.406.234-.594.765-.781 1.156-.781.734 0 1.125.625 1.125 1.297 0 .828-.578 1.437-1.531 2.39l-1 1.047C.422-.219.422-.203.422 0h3.14l.235-1.422h-.25c-.016.156-.078.547-.172.703-.047.063-.656.063-.781.063H1.172Zm0 0"/><path id="e" d="M2.5-5.078c0-.219-.016-.219-.234-.219-.328.313-.75.5-1.5.5v.266c.218 0 .64 0 1.109-.203v4.078c0 .297-.031.39-.781.39H.812V0c.329-.031 1.016-.031 1.376-.031s1.046 0 1.374.031v-.266h-.28c-.75 0-.782-.093-.782-.39Zm0 0"/><path id="f" d="M3.89-2.547c0-.844-.078-1.36-.343-1.875-.344-.703-1-.875-1.438-.875-1 0-1.375.75-1.484.969C.344-3.75.328-2.953.328-2.547c0 .531.016 1.328.406 1.969.36.594.954.75 1.375.75.391 0 1.063-.125 1.47-.906.296-.578.312-1.297.312-1.813M2.11-.062c-.266 0-.813-.125-.985-.954-.094-.453-.094-1.203-.094-1.625 0-.546 0-1.109.094-1.546.172-.813.781-.891.984-.891.266 0 .829.14.985.86.094.437.094 1.046.094 1.577 0 .47 0 1.188-.094 1.641-.172.828-.719.938-.985.938m0 0"/><path id="g" d="m1.516-5.531-1.188.093v.266c.547 0 .61.047.61.438v4.109c0 .36-.094.36-.61.36V0c.313-.031.766-.031.906-.031.157 0 .579 0 .891.031v-.266c-.5 0-.61 0-.61-.359Zm0 0"/><path id="h" d="M3.984-1.703c0-.984-.828-1.844-1.875-1.844-1.046 0-1.875.86-1.875 1.844 0 1 .86 1.781 1.875 1.781 1.032 0 1.875-.781 1.875-1.781M2.11-.172c-.421 0-.765-.203-.937-.484-.203-.328-.219-.719-.219-1.11 0-.312 0-.78.235-1.125.218-.28.546-.437.921-.437.422 0 .766.203.938.469.219.343.234.765.234 1.093 0 .36-.015.797-.25 1.141-.203.313-.562.453-.922.453m0 0"/><path id="i" d="M1.375-.547C1.125-.578.938-.78.938-1.078c0-.188.046-.266.093-.328.344.187.657.234.844.234.781 0 1.375-.547 1.375-1.172 0-.297-.14-.562-.328-.765.11-.094.375-.266.765-.266-.03.016-.078.063-.078.188 0 .14.11.25.25.25a.25.25 0 0 0 .25-.266.43.43 0 0 0-.453-.406c-.14 0-.531.046-.89.375a1.6 1.6 0 0 0-.891-.282c-.781 0-1.36.547-1.36 1.172 0 .375.204.656.376.813a.934.934 0 0 0 .094 1.36c-.422.108-.75.421-.75.78 0 .579.828 1.032 1.874 1.032 1 0 1.875-.407 1.875-1.047 0-.422-.25-.766-.515-.89-.469-.25-.86-.25-1.64-.25Zm.5-.86c-.734 0-.734-.765-.734-.937 0-.297.03-.5.156-.656a.72.72 0 0 1 .578-.281c.734 0 .734.765.734.937 0 .297-.03.5-.156.656a.7.7 0 0 1-.578.282M2.25-.03c.219 0 1.266 0 1.266.64 0 .422-.61.797-1.407.797-.796 0-1.406-.375-1.406-.797 0-.171.14-.64.781-.64Zm0 0"/><path id="j" d="M4-3.172a.445.445 0 0 0-.375.422c0 .172.14.297.313.297.171 0 .437-.14.437-.485 0-.453-.5-.578-.797-.578-.36 0-.672.266-.86.579-.171-.422-.577-.579-.905-.579-.875 0-1.36 1-1.36 1.22 0 .077.063.108.125.108.094 0 .11-.046.125-.14.188-.578.672-.969 1.078-.969.313 0 .469.235.469.516 0 .156-.094.531-.156.781-.063.234-.235.938-.281 1.094-.11.422-.391.765-.75.765-.032 0-.235 0-.407-.109.36-.094.36-.422.36-.437 0-.188-.141-.297-.313-.297A.47.47 0 0 0 .25-.5c0 .375.39.578.797.578.422 0 .719-.312.86-.578.187.39.546.578.937.578.86 0 1.344-1 1.344-1.219 0-.078-.063-.109-.125-.109-.094 0-.11.063-.141.14-.156.532-.61.97-1.063.97-.265 0-.453-.172-.453-.516 0-.156.047-.344.156-.781.047-.25.22-.938.266-1.094.11-.422.39-.766.75-.766.047 0 .25 0 .422.125m0 0"/><path id="l" d="M3.703-5.64c.047-.11.047-.126.047-.157 0-.094-.078-.172-.187-.172-.126 0-.157.094-.188.172L.515 1.656c-.046.11-.046.125-.046.157 0 .093.078.171.187.171.125 0 .156-.093.188-.171Zm0 0"/><path id="m" d="M1.61-1.812c.171 0 .765-.016 1.187-.157.687-.25.719-.718.719-.843 0-.454-.422-.704-.938-.704-.906 0-2.187.704-2.187 2.125C.39-.578.89.08 1.766.08 3 .078 3.672-.72 3.672-.829c0-.078-.078-.125-.125-.125s-.078.015-.11.062c-.624.75-1.53.75-1.656.75-.593 0-.765-.5-.765-.937 0-.25.078-.61.109-.734Zm-.423-.235c.25-.969.985-1.25 1.391-1.25.313 0 .625.172.625.485 0 .765-1.312.765-1.656.765Zm0 0"/><path id="k" d="M3.219-1.125H3c-.016.094-.078.484-.156.547-.047.047-.531.047-.625.047h-1.11l.766-.625c.203-.172.734-.547.922-.735.172-.171.422-.484.422-.906 0-.75-.672-1.187-1.485-1.187-.765 0-1.296.515-1.296 1.078 0 .297.25.344.312.344a.32.32 0 0 0 .328-.329c0-.125-.078-.328-.344-.328.141-.297.5-.531.922-.531.625 0 .953.469.953.953 0 .422-.28.86-.687 1.25L.5-.25C.438-.187.438-.187.438 0H3.03Zm0 0"/><path id="n" d="M3.375-2.36a.34.34 0 0 0-.266.329c0 .187.157.234.235.234.187 0 .36-.14.36-.375 0-.328-.36-.469-.657-.469-.406 0-.64.313-.703.422-.078-.156-.313-.422-.766-.422-.687 0-1.094.72-1.094.922 0 .032.032.078.11.078.094 0 .11-.03.125-.078.156-.484.562-.718.844-.718.296 0 .39.187.39.39 0 .063 0 .125-.047.313-.14.547-.265 1.093-.297 1.172-.093.218-.312.421-.562.421-.031 0-.203 0-.344-.093C.938-.312.97-.5.97-.547c0-.156-.125-.234-.25-.234-.156 0-.344.125-.344.375 0 .344.375.469.656.469.344 0 .594-.235.703-.422.125.25.407.422.75.422.704 0 1.094-.735 1.094-.922 0-.016 0-.094-.11-.094-.077 0-.093.047-.109.11-.171.515-.593.702-.859.702-.219 0-.375-.125-.375-.375 0-.125.016-.25.078-.453l.188-.781c.062-.234.093-.344.218-.484a.57.57 0 0 1 .422-.203c.031 0 .203 0 .344.078m0 0"/><clipPath id="a"><path d="M21 24h139.547v63H21Zm0 0"/></clipPath><clipPath id="b"><path d="M83 31h77.547v69H83Zm0 0"/></clipPath></defs><path fill="none" stroke="#7F7F7F" stroke-linecap="round" stroke-miterlimit="10" stroke-width=".399" d="M29.797 92.637v-1.992M58.14 92.637v-1.992M86.488 92.637v-1.992M114.832 92.637v-1.992M143.18 92.637v-1.992M29.797 3.05V1.06M58.14 3.05V1.06M86.488 3.05V1.06M114.832 3.05V1.06M143.18 3.05V1.06M13.629 78.328h1.992M13.629 58.082h1.992M13.629 37.832h1.992M13.629 17.586h1.992M157.355 78.328h1.993M157.355 58.082h1.993M157.355 37.832h1.993M157.355 17.586h1.993"/><path fill="none" stroke="#7F7F7F" stroke-miterlimit="10" stroke-width=".399" d="M15.621 90.645h141.734M15.621 3.05h141.734M15.621 90.645V3.05M157.355 90.645V3.05"/><path fill="none" stroke="#090" stroke-miterlimit="10" stroke-width=".598" d="M15.621 56.422s2.988-.184 4.137-.262c1.144-.078 2.984-.21 4.133-.3 1.144-.094 2.984-.247 4.132-.352 1.149-.106 2.989-.281 4.133-.403a291 291 0 0 0 4.133-.468 300 300 0 0 0 4.137-.543c1.144-.164 2.984-.438 4.133-.625 1.148-.188 2.984-.508 4.132-.723 1.149-.219 2.989-.59 4.133-.84 1.149-.25 2.989-.68 4.133-.968 1.148-.293 2.988-.79 4.137-1.126 1.144-.335 2.984-.906 4.133-1.296 1.148-.387 2.988-1.051 4.132-1.504 1.149-.45 2.989-1.215 4.133-1.735 1.149-.523 2.988-1.41 4.137-2.011a94 94 0 0 0 4.133-2.325 94 94 0 0 0 4.133-2.695 87 87 0 0 0 4.132-3.105 88 88 0 0 0 4.133-3.602 97 97 0 0 0 4.137-4.168 108 108 0 0 0 4.133-4.82 119 119 0 0 0 4.132-5.578 136 136 0 0 0 4.133-6.453c1.149-1.934 4.137-7.47 4.137-7.47"/><path fill="none" stroke="#00C" stroke-miterlimit="10" stroke-width=".598" d="M43.969 12.523s2.558 5.344 3.543 7.278c.984 1.93 2.558 4.887 3.543 6.644.984 1.754 2.558 4.43 3.543 6.012a148 148 0 0 0 3.543 5.375c.984 1.406 2.562 3.52 3.543 4.746a88 88 0 0 0 3.543 4.113 67 67 0 0 0 3.543 3.48 50 50 0 0 0 3.546 2.849c.98.703 2.559 1.687 3.543 2.214.98.528 2.559 1.23 3.543 1.582.98.352 2.559.774 3.543.95.98.175 2.559.316 3.543.316.985 0 2.559-.14 3.543-.316.985-.176 2.559-.598 3.543-.95.985-.351 2.559-1.054 3.543-1.582.985-.527 2.559-1.511 3.543-2.214a50 50 0 0 0 3.543-2.848 64 64 0 0 0 3.543-3.48 84 84 0 0 0 3.543-4.114c.984-1.226 2.563-3.34 3.543-4.746a143 143 0 0 0 3.547-5.375 193 193 0 0 0 3.543-6.012c.98-1.758 2.558-4.715 3.543-6.644.98-1.934 3.543-7.278 3.543-7.278"/><g clip-path="url(#a)"><path fill="none" stroke="#C00" stroke-miterlimit="10" stroke-width=".598" d="m29.797 78.328 5.312-1.898 5.317-1.899c1.472-.527 3.84-1.37 5.312-1.898 1.477-.524 3.844-1.371 5.317-1.899 1.476-.523 3.84-1.37 5.316-1.898 1.473-.523 3.84-1.371 5.313-1.895 1.476-.527 3.84-1.375 5.316-1.898 1.473-.527 3.84-1.375 5.316-1.898 1.473-.528 3.84-1.372 5.313-1.899l5.316-1.898c1.473-.528 3.84-1.371 5.313-1.899l5.316-1.898 5.317-1.899c1.472-.527 3.84-1.37 5.312-1.898l5.317-1.899c1.472-.527 3.84-1.37 5.312-1.898l5.316-1.898 5.317-1.899c1.472-.527 3.84-1.37 5.312-1.898l5.317-1.899c1.472-.527 3.84-1.37 5.312-1.898 1.477-.524 3.844-1.371 5.317-1.899 1.476-.523 3.84-1.37 5.316-1.894l5.313-1.899"/></g><g clip-path="url(#b)"><path fill="none" stroke="#000" stroke-miterlimit="10" stroke-width=".598" d="M92.156 90.645s1.965-6.016 2.715-7.903c.754-1.883 1.965-4.277 2.719-5.68s1.96-3.308 2.715-4.43c.754-1.116 1.965-2.702 2.718-3.636a62 62 0 0 1 2.715-3.078 64 64 0 0 1 2.715-2.672c.754-.7 1.965-1.742 2.719-2.363s1.96-1.551 2.715-2.11 1.96-1.41 2.715-1.918c.753-.507 1.964-1.28 2.718-1.75a124 124 0 0 1 2.715-1.609c.754-.43 1.965-1.09 2.719-1.488.75-.403 1.96-1.016 2.715-1.39.754-.372 1.96-.95 2.715-1.298a139 139 0 0 1 8.148-3.46c.754-.297 1.965-.755 2.719-1.036a189 189 0 0 1 5.43-1.922c.753-.257 1.964-.656 2.718-.898s1.961-.625 2.715-.86 1.965-.597 2.719-.824c.75-.222 2.715-.789 2.715-.789"/></g><use xlink:href="#c" x="24.386" y="100.428"/><use xlink:href="#d" x="30.971" y="100.428"/><use xlink:href="#c" x="52.731" y="100.428"/><use xlink:href="#e" x="59.318" y="100.428"/><use xlink:href="#f" x="84.371" y="100.428"/><use xlink:href="#e" x="112.716" y="100.428"/><use xlink:href="#d" x="141.061" y="100.428"/><use xlink:href="#c" x=".153" y="80.481"/><use xlink:href="#e" x="6.74" y="80.481"/><use xlink:href="#f" x="6.74" y="60.65"/><use xlink:href="#e" x="6.74" y="40.403"/><use xlink:href="#d" x="6.74" y="20.154"/><path fill="#FFF" d="M149.164 64.871h-30.973a2.99 2.99 0 0 0-2.992 2.992v17.578a2.99 2.99 0 0 0 2.992 2.993h30.973a2.99 2.99 0 0 0 2.988-2.993V67.863a2.99 2.99 0 0 0-2.988-2.992m0 0"/><use xlink:href="#g" x="116.674" y="74.007"/><use xlink:href="#h" x="119.025" y="74.007"/><use xlink:href="#i" x="123.26" y="74.007"/><use xlink:href="#j" x="129.023" y="74.007"/><use xlink:href="#j" x="141.761" y="74.007" fill="#00C"/><use xlink:href="#k" x="146.526" y="71.195" fill="#00C"/><g fill="#C00"><use xlink:href="#j" x="116.674" y="83.969"/><use xlink:href="#l" x="121.44" y="83.969"/></g><use xlink:href="#d" x="125.674" y="83.969" fill="#C00"/><use xlink:href="#m" x="141.761" y="83.969" fill="#090"/><use xlink:href="#n" x="145.689" y="81.157" fill="#090"/></svg>