<svg xmlns="http://www.w3.org/2000/svg" xmlns:xlink="http://www.w3.org/1999/xlink" width="119.396" height="62.678"><defs><clipPath id="n"><path d="M2.707 2.828h113.387v56.695H2.707Zm0 0"/></clipPath><clipPath id="a"><path d="M0 0h12v12H0z"/></clipPath><clipPath id="p"><path d="M0 0h119.094v62.516H0Zm0 0"/></clipPath><clipPath id="q"><path d="M0 0h119.094v62.516H0Zm0 0"/></clipPath><clipPath id="e"><path d="M0 0h119.094v62.516H0Zm0 0"/></clipPath><clipPath id="m"><path d="M0 0h119.094v62.516H0Zm0 0"/></clipPath><clipPath id="d"><path d="M0 0h120v63H0z"/></clipPath><path id="f" d="M5.719-2.031c0-1.094-.797-1.906-1.719-2.094l-1.437-.312c-.407-.094-.954-.422-.954-1.032 0-.437.282-1.047 1.266-1.047.797 0 1.813.329 2.047 1.688.031.25.031.266.234.266.25 0 .25-.047.25-.282v-1.828c0-.187 0-.281-.187-.281-.078 0-.078.016-.188.11l-.453.437C4-6.86 3.344-6.953 2.875-6.953c-1.516 0-2.234.969-2.234 2.016 0 .64.328 1.093.53 1.312.5.5.829.563 1.923.797.875.203 1.047.219 1.265.437.141.141.391.407.391.86 0 .484-.25 1.172-1.297 1.172-.75 0-2.265-.203-2.344-1.688-.015-.172-.015-.219-.234-.219-.234 0-.234.047-.234.282v1.812C.64.016.64.11.813.11.906.11.922.094 1 .016l.469-.453c.656.484 1.578.546 1.984.546C5.11.11 5.72-1.016 5.72-2.03m0 0"/><path id="g" d="M9.328 0v-.469h-.687v-2.578c0-1.031-.516-1.437-1.547-1.437-.907 0-1.422.5-1.688.953-.187-.922-1.11-.953-1.484-.953-.875 0-1.438.453-1.766 1.078v-1.078l-1.703.078v.468c.61 0 .688 0 .688.391v3.078H.453V0l1.25-.031L2.953 0v-.469h-.687v-2.078c0-1.094.875-1.578 1.5-1.578.328 0 .547.203.547.969V-.47h-.688V0l1.266-.031L6.14 0v-.469h-.688v-2.078c0-1.094.86-1.578 1.484-1.578.344 0 .563.203.563.969V-.47h-.687V0l1.25-.031Zm0 0"/><path id="h" d="M5.406-2.172c0-1.344-.922-2.344-2.547-2.344C1.22-4.516.313-3.5.313-2.172c0 1.235.89 2.235 2.546 2.235 1.672 0 2.547-1.016 2.547-2.235m-1.281-.11c0 .86 0 1.938-1.266 1.938-1.265 0-1.265-1.078-1.265-1.937 0-.453 0-.953.172-1.297.187-.375.609-.578 1.093-.578.422 0 .844.156 1.063.5.203.344.203.89.203 1.375m0 0"/><path id="i" d="M5.86 0v-.469h-.173c-.437 0-.468-.047-.593-.203L3.406-2.766 4.703-3.78c.14-.11.234-.172.906-.172v-.469c-.28.031-.53.031-.78.031l-1.157-.03v.468c.234 0 .265.031.344.11L2.14-2.36v-4.563l-1.766.078v.469c.61 0 .688 0 .688.39v5.516H.375V0l1.188-.031L2.766 0v-.469h-.688v-1.265c.297-.235.375-.297.578-.422l1 1.25c.094.125.25.312.25.344 0 .093-.172.093-.312.093V0a53 53 0 0 1 1.219-.031c.359 0 .703.015 1.046.031m0 0"/><path id="j" d="M2.844 0v-.469h-.61v-4.015L.5-4.406v.468c.594 0 .656 0 .656.391v3.078H.47V0l1.219-.031Zm-.469-6.047a.774.774 0 0 0-.781-.781.784.784 0 0 0-.782.781c0 .422.36.766.782.766a.77.77 0 0 0 .781-.766m0 0"/><path id="k" d="M6.125 0v-.469h-.687v-2.578c0-1.047-.532-1.437-1.532-1.437-.953 0-1.484.562-1.75 1.078v-1.078l-1.703.078v.468c.61 0 .688 0 .688.391v3.078H.453V0l1.25-.031L2.953 0v-.469h-.687v-2.078c0-1.094.859-1.578 1.5-1.578.328 0 .547.203.547.969V-.47h-.688V0l1.25-.031Zm0 0"/><path id="l" d="M5.563-3.953c0-.235-.172-.578-.625-.578-.157 0-.625.031-1.063.375-.172-.125-.594-.328-1.328-.328-1.438 0-1.985.78-1.985 1.468 0 .407.188.829.516 1.047-.281.36-.344.688-.344.89 0 .157.047.642.438.954-.125.031-.86.25-.86.875C.313 1.25.876 2 2.86 2 4.625 2 5.406 1.422 5.406.719c0-.297-.078-.922-.75-1.266-.562-.281-1.156-.281-2.11-.281-.265 0-.718 0-.765-.016a.625.625 0 0 1-.562-.625c0-.093.047-.25.11-.328.452.234.968.266 1.218.266 1.437 0 1.984-.782 1.984-1.485 0-.468-.25-.796-.406-.953.297-.156.516-.172.625-.187a.43.43 0 0 0-.047.203c0 .25.172.422.438.422a.41.41 0 0 0 .422-.422m-2.141.937c0 .454 0 1.125-.875 1.125s-.875-.671-.875-1.125c0-.437 0-1.109.875-1.109s.875.672.875 1.11M4.547.75c0 .36-.39.89-1.688.89-1.187 0-1.687-.452-1.687-.906 0-.609.625-.609.766-.609h1.171c.313 0 1.438 0 1.438.625m0 0"/><g id="b" clip-path="url(#a)"><path fill="#D9D9D9" d="M0 0h6v6H0Zm6 6h6v6H6Zm0 0"/></g><g id="s" clip-path="url(#d)"><path fill="#FFF" d="M113.66 31.176c0-14.313-11.601-25.914-25.914-25.914-14.312 0-25.914 11.601-25.914 25.914 0 14.312 11.602 25.914 25.914 25.914s25.914-11.602 25.914-25.914m0 0"/><g clip-path="url(#e)"><path fill="none" stroke="red" stroke-miterlimit="10" stroke-width="8.847" d="M113.66 31.176c0-14.313-11.601-25.914-25.914-25.914-14.312 0-25.914 11.601-25.914 25.914 0 14.312 11.602 25.914 25.914 25.914s25.914-11.602 25.914-25.914Zm0 0"/></g><use xlink:href="#f" x="66.267" y="33.647"/><use xlink:href="#g" x="72.633" y="33.647"/><use xlink:href="#h" x="82.177" y="33.647"/><use xlink:href="#i" x="87.906" y="33.647"/><use xlink:href="#j" x="93.953" y="33.647"/><use xlink:href="#k" x="97.131" y="33.647"/><use xlink:href="#l" x="103.497" y="33.647"/><path fill="#FFF" d="m69.422 49.5 36.648-36.648"/><g clip-path="url(#m)"><path fill="none" stroke="red" stroke-miterlimit="10" stroke-width="8.847" d="m69.422 49.5 36.648-36.648"/></g><path fill="none" stroke="#00F" stroke-miterlimit="10" stroke-opacity=".5" stroke-width="8.847" d="M65.07 31.176h45.356"/></g><pattern id="o" width="12" height="12" x="0" y="0" patternTransform="matrix(.9449 0 0 -.9449 -143.284 13608.839)" patternUnits="userSpaceOnUse"><use xlink:href="#b"/></pattern><filter id="c" width="100%" height="100%" x="0%" y="0%"><feColorMatrix color-interpolation-filters="sRGB" values="0 0 0 0 1 0 0 0 0 1 0 0 0 0 1 0 0 0 1 0"/></filter><mask id="r"><g filter="url(#c)"><path fill-opacity=".5" d="M-11.94-6.268h143.275v75.214H-11.94z"/></g></mask></defs><g clip-path="url(#n)"><path fill="url(#o)" d="M2.707 59.523h113.387V2.828H2.707Zm0 0"/></g><path fill="#FFF" d="M56.965 31.176c0-14.313-11.602-25.914-25.91-25.914-14.313 0-25.914 11.601-25.914 25.914 0 14.312 11.601 25.914 25.914 25.914 14.308 0 25.91-11.602 25.91-25.914m0 0"/><g clip-path="url(#p)"><path fill="none" stroke="red" stroke-miterlimit="10" stroke-width="8.847" d="M56.965 31.176c0-14.313-11.602-25.914-25.91-25.914-14.313 0-25.914 11.601-25.914 25.914 0 14.312 11.601 25.914 25.914 25.914 14.308 0 25.91-11.602 25.91-25.914Zm0 0"/></g><use xlink:href="#f" x="9.573" y="33.646"/><use xlink:href="#g" x="15.939" y="33.646"/><use xlink:href="#h" x="25.483" y="33.646"/><use xlink:href="#i" x="31.212" y="33.646"/><use xlink:href="#j" x="37.259" y="33.646"/><use xlink:href="#k" x="40.437" y="33.646"/><use xlink:href="#l" x="46.803" y="33.646"/><path fill="#FFF" d="m12.73 49.5 36.645-36.648"/><g clip-path="url(#q)"><path fill="none" stroke="red" stroke-miterlimit="10" stroke-width="8.847" d="m12.73 49.5 36.645-36.648"/><g mask="url(#r)"><use xlink:href="#s"/></g></g></svg>