<svg xmlns="http://www.w3.org/2000/svg" width="87.824" height="59.762"><defs><clipPath id="a"><path d="M0 0h87.734v59.645H0Zm0 0"/></clipPath></defs><path fill="none" stroke="#7F7F7F" stroke-miterlimit="10" stroke-width=".199" d="M1.129 58.45h85.039M1.128 30.101h85.04M1.128 1.766h85.04M1.128 58.449V1.754m28.349 56.695V1.754m28.347 56.695V1.754M86.16 58.449V1.754"/><path fill="#D2C92A" d="m1.129 58.45.851-.286.848-.281.852-.285.851-.282.848-.285.851-.281.848-.285.852-.281.851-.286.848-.28 1.703-.571.848-.281.851-.286.852-.28.847-.286.852-.281.848-.285.851-.282.852-.285.847-.281 1.704-.57.847-.282.852-.285.847-.281.852-.285.852-.281.847-.286.852-.28.851-.286.848-.281 1.703-.57 1.574-3.149 6.301 3.148 3.149-6.296 6.3 3.148 3.153-6.3 6.3 3.152 1.575-3.153.851-.281.848-.285.852-.285.851-.282.848-.285.851-.28.848-.286.852-.281.851-.285.848-.282.851-.285.852-.281.847-.285.852-.285.848-.282.851-.285.852-.281.847-.285.852-.282.852-.285.847-.28.852-.286.851-.281.848-.285.852-.286.847-.28.852-.286.851-.281.848-.285.852-.282.851-.285.848-.281.578-.508-.02-.562-.074-1.043-2.726-2.23 3.086-5.81-7.157-1.984.457-6.683-7.285.62-1.504-6.636-3.547 1.125-1.183-.516-.524-.21-.52-.212-.523-.203-.527-.195-.527-.191-.532-.184-.53-.18-.536-.172-.535-.168-.54-.164-.538-.156-.543-.152-.543-.145-.543-.14-.543-.137-.547-.129-.55-.125-.548-.121-.55-.113-.551-.11-.55-.101-.556-.098-.554-.094-.555-.09-.555-.082-.558-.078-.555-.074-.559-.066-.558-.063-.559-.058-.558-.051-.563-.047-.558-.043-.559-.04-.563-.03-.562-.028-.559-.023-1.125-.031-.558-.008-.563-.004-1.125.008-.558.011-1.125.04-.559.027-.562.031-.563.035-.559.04-.558.046-.563.051-.558.055-.559.062-.812.098-2.157 2.785-5.707-3.875-3.52 6.277-6.288-2.773-2.235 6.867-6.699-1.309-.36 3.747-.91.918-.386.41-.375.418-.367.422-.36.433-.351.438-.344.445-.332.453-.32.461-.313.469-.3.476-.29.48-.277.49-.266.495-.253.5-.243.508-.226.512-.215.52-.2.527-.187.53-.172.536-.156.539-.14.543-.13.547-.109.55-.094.555-.078.559-.062.559-.043.558-.031.563-.012.562z"/><g clip-path="url(#a)"><path fill="none" stroke="#000" stroke-miterlimit="10" stroke-width=".399" d="m1.129 58.45.851-.286.848-.281.852-.285.851-.282.848-.285.851-.281.848-.285.852-.281.851-.286.848-.28 1.703-.571.848-.281.851-.286.852-.28.847-.286.852-.281.848-.285.851-.282.852-.285.847-.281 1.704-.57.847-.282.852-.285.847-.281.852-.285.852-.281.847-.286.852-.28.851-.286.848-.281 1.703-.57 1.574-3.149 6.301 3.148 3.149-6.296 6.3 3.148 3.153-6.3 6.3 3.152 1.575-3.153.851-.281.848-.285.852-.285.851-.282.848-.285.851-.28.848-.286.852-.281.851-.285.848-.282.851-.285.852-.281.847-.285.852-.285.848-.282.851-.285.852-.281.847-.285.852-.282.852-.285.847-.28.852-.286.851-.281.848-.285.852-.286.847-.28.852-.286.851-.281.848-.285.852-.282.851-.285.848-.281.578-.508-.02-.562-.074-1.043-2.726-2.23 3.086-5.81-7.157-1.984.457-6.683-7.285.62-1.504-6.636-3.547 1.125-1.183-.516-.524-.21-.52-.212-.523-.203-.527-.195-.527-.191-.532-.184-.53-.18-.536-.172-.535-.168-.54-.164-.538-.156-.543-.152-.543-.145-.543-.14-.543-.137-.547-.129-.55-.125-.548-.121-.55-.113-.551-.11-.55-.101-.556-.098-.554-.094-.555-.09-.555-.082-.558-.078-.555-.074-.559-.066-.558-.063-.559-.058-.558-.051-.563-.047-.558-.043-.559-.04-.563-.03-.562-.028-.559-.023-1.125-.031-.558-.008-.563-.004-1.125.008-.558.011-1.125.04-.559.027-.562.031-.563.035-.559.04-.558.046-.563.051-.558.055-.559.062-.812.098-2.157 2.785-5.707-3.875-3.52 6.277-6.288-2.773-2.235 6.867-6.699-1.309-.36 3.747-.91.918-.386.41-.375.418-.367.422-.36.433-.351.438-.344.445-.332.453-.32.461-.313.469-.3.476-.29.48-.277.49-.266.495-.253.5-.243.508-.226.512-.215.52-.2.527-.187.53-.172.536-.156.539-.14.543-.13.547-.109.55-.094.555-.078.559-.062.559-.043.558-.031.563-.012.562V58.45"/></g></svg>