<svg xmlns="http://www.w3.org/2000/svg" width="89.177" height="68.726"><defs><clipPath id="a"><path d="M0 0h88.766v68.59H0Zm0 0"/></clipPath></defs><path fill="none" stroke="#7F7F7F" stroke-miterlimit="10" stroke-width=".199" d="M1.004 65.371h85.039M1.003 37.027h85.04M1.003 8.687h85.04M1.003 65.372V8.68M29.353 65.37V8.68M57.699 65.37V8.68M86.035 65.37V8.68"/><g clip-path="url(#a)"><path fill="none" stroke="#00F" stroke-miterlimit="10" stroke-width=".797" d="M1.004 37.027V48.13s.437-19.438.605-24.113c.172-4.68.442-10.567.61-9.598.168.965.437 12.867.605 16.57s.438 6.723.606 10.125.437 13.54.605 14.399c.172.86.442-6.66.61-8.215s.437.336.605-2.988c.168-3.325.438-16.391.605-20.965.168-4.578.438-12.7.61-12.012.168.688.437 13.926.605 16.973s.438 1.18.606 4.988c.168 3.805.437 19.703.605 22.441.168 2.739.442-.312.61-2.707.168-2.398.437-10.722.605-14.562s.438-11.13.606-13.113c.168-1.985.437-2.075.605-1.188.172.887.441 6.027.61 7.582.167 1.555.437 1.89.605 3.621.168 1.727.437 7.426.605 8.832.168 1.41.438 1.719.606 1.324.172-.398.441-2.93.61-4.18.167-1.253.437-3.663.605-4.84.168-1.179.437-3.292.605-3.651.168-.36.438.496.61 1.05.167.555.437 2.305.605 2.953.168.649.437 1.356.605 1.72.168.366.438.913.606.913.168-.004.441-.527.61-.925.167-.399.437-1.602.605-1.958.168-.351.437-.55.605-.585.168-.04.438.187.606.316.172.133.441.527.61.629.167.101.437.074.605.097s.437.083.605.079.438-.672.605-.102c.172.57.442 9.086.61 4.211s.437-35.805.605-39.355c.168-3.551.438 8.91.606 13.77.168 4.858.437 15.714.61 21.245.167 5.531.437 14.465.605 18.625.168 4.156.437 10.485.605 11.344.168.86.438.148.606-5.145.168-5.296.441-28.504.609-33.02.168-4.51.437 2.388.605.49.168-1.895.438-14.829.606-14.157s.437 15.441.605 19c.172 3.555.442 5.273.61 6.633s.437 2.379.605 3.164c.168.781.438 2.668.606 2.476.168-.191.437-1.879.605-3.86.172-1.976.442-8.417.61-10.405.167-1.989.437-4.43.605-3.922s.437 6.324.605 7.578.438.016.61 1.473c.168 1.453.437 8.68.605 9.004s.438-5.422.606-6.672.437-1.23.605-2.348c.168-1.113.442-5.34.61-5.691.168-.348.437 2.64.605 3.18.168.538.438.37.606.706.167.332.437 1.29.605 1.692.172.402.441.875.61 1.21.167.337.437 1.243.605 1.212.168-.028.437-1.004.605-1.43s.438-1.363.606-1.637c.172-.27.441-.355.61-.324.167.035.437.418.605.566.168.149.437.438.605.5.168.063.438-.03.61-.043.167-.011.437-.023.605-.035.168-.008.437.02.605-.043.168-.062.438 1.66.606-.414.168-2.078.441-12.531.61-14.539.167-2.008.437-.785.605.063.168.843.437 2.918.605 6.035.168 3.12.438 13.652.606 16.441.172 2.793.441 4.266.609 3.668s.438-5.976.605-7.976c.168-2 .438-3.645.606-6.446.168-2.804.437-12.27.61-13.758.167-1.488.437.504.605 3.032s.437 11.953.605 15.187c.168 3.239.438 5.793.606 8.133.168 2.336.437 8.137.61 8.719.167.578.437-2.39.605-4.535s.437-7.414.605-10.926.438-12.106.606-14.38c.167-2.272.44-3.23.609-2.003s.437 8.145.605 10.84.438 7.523.606 8.594.437-.457.605-.871c.172-.41.442-1.36.61-2.098.168-.734.437-2.594.605-3.211.168-.621.438-.969.606-1.238.168-.274.437-.649.609-.72.168-.07.438-.206.605.204.168.41.438 2.188.606 2.754s.437 1.094.605 1.34c.168.25.438.597.61.445.168-.152.437-1.168.605-1.547s.438-.972.606-1.187.437-.38.605-.364c.168.02.442.395.61.497.168.097.437.183.605.23.168.05.438.117.606.129.167.008.437-.035.605-.05.172-.013.441 3.355.61-.052.167-3.406.437-22.468.605-24.5.168-2.027.437 9.684.605 9.868.168.187.438-11.56.61-8.536.168 3.024.437 23.528.605 30.329.168 6.8.438 16.742.606 18.69.168 1.946.437-1.269.605-4.651.168-3.383.438-15.922.61-19.727.167-3.805.437-3.855.605-7.695.168-3.844.437-19.39.605-19.992s.438 11.62.606 15.656c.168 4.039.441 10.668.61 13.449.167 2.781.437 5.945.605 6.586.168.64.437-.656.605-1.969.168-1.312.438-6.097.606-7.492.171-1.398.441-.695.609-2.563.168-1.863.438-9.585.605-10.882.168-1.297.438.066.606 1.535.168 1.472.437 6.168.61 9.066.167 2.903.437 10.84.605 11.844.168 1 .437-3.68.605-4.617.168-.942.438-1.442.606-2.156s.441-2.352.61-2.993c.167-.636.437-1.304.605-1.613s.437-1.05.605-.605c.168.441.438 3.347.606 3.796.167.454.44-.742.609-.542.168.195.437 1.933.605 1.968s.438-1.332.606-1.718c.168-.387.437-.93.605-1.075.172-.144.442.055.61.032.168-.024.437-.223.605-.2.168.024.438.242.606.367.168.126.437.465.609.532.168.062.437-.04.605-.063s.438-.082.606-.097c.168-.02.605-.032.605-.032"/></g></svg>