<svg xmlns="http://www.w3.org/2000/svg" width="98.03" height="180.776"><defs><clipPath id="a"><path d="M82 38h15.547v20H82Zm0 0"/></clipPath><clipPath id="b"><path d="M79 52h18.547v23H79Zm0 0"/></clipPath><clipPath id="c"><path d="M22 162h23v18.664H22Zm0 0"/></clipPath><clipPath id="d"><path d="M38 166h20v14.664H38Zm0 0"/></clipPath><clipPath id="e"><path d="M53 164h18v16.664H53Zm0 0"/></clipPath></defs><path fill="#FCD205" stroke="#FAB20B" stroke-miterlimit="10" stroke-width=".399" d="m.965 48.457 3.144 1.55.504 3.47 2.45-2.508 3.457.59-1.633-3.102 1.633-3.105-3.457.593-2.45-2.511-.504 3.468Zm0 0"/><path fill="#F89D0E" stroke="#F1491C" stroke-miterlimit="10" stroke-width=".399" d="m4.629 32.508 1.906 1.847-.441 2.622L8.44 35.73l2.36 1.23-.461-2.616 1.898-1.864-2.633-.37-1.183-2.38-1.168 2.387Zm0 0"/><path fill="#FCD205" stroke="#FAB20B" stroke-miterlimit="10" stroke-width=".399" d="m13.29 18.809.792 1.78-1.02 1.665L15 22.05l1.27 1.48.402-1.906 1.8-.746-1.687-.977-.152-1.941-1.45 1.305Zm0 0"/><path fill="#FCD106" stroke="#F9B00B" stroke-miterlimit="10" stroke-width=".399" d="m25.125 7.73.105 2.696-2.164 1.613 2.598.734.863 2.559 1.504-2.242 2.7-.035-1.672-2.121.804-2.579-2.535.934Zm0 0"/><path fill="#FABB09" stroke="#F68512" stroke-miterlimit="10" stroke-width=".399" d="M40.316 1.348 39.29 4.69l-3.336 1.051 2.863 2.008-.03 3.496 2.792-2.101 3.317 1.113-1.133-3.309 2.078-2.808-3.496.054Zm0 0"/><path fill="#F8A30D" stroke="#F2541B" stroke-miterlimit="10" stroke-width=".399" d="M56.71 2.176 55.048 4.55l-2.902-.028 1.742 2.32-.922 2.75 2.746-.94 2.328 1.726-.047-2.899 2.363-1.683-2.773-.852Zm0 0"/><path fill="#FEEC01" stroke="#FEE502" stroke-miterlimit="10" stroke-width=".399" d="m72.926 5.973-3.156 2.27-3.665-1.313 1.188 3.703-2.383 3.078 3.89.02 2.192 3.21 1.219-3.691 3.734-1.09-3.136-2.3Zm0 0"/><path fill="#FAB60A" stroke="#F57A14" stroke-miterlimit="10" stroke-width=".399" d="m86.277 16.613-3.804.946-2.938-2.594-.273 3.91-3.38 1.992 3.638 1.469.851 3.828 2.52-3.004 3.902.375-2.078-3.328Zm0 0"/><path fill="#F9A90C" stroke="#F36018" stroke-miterlimit="10" stroke-width=".399" d="m90.82 32.809-1.265-.18-.57-1.145-.56 1.149-1.265.191.922.887-.21 1.262L89 34.37l1.133.59-.223-1.258Zm0 0"/><path fill="#F89A0F" d="m95.473 48.094-2.5-1.215-.418-2.75-1.926 2.004-2.746-.453 1.308 2.453-1.277 2.469 2.738-.489 1.953 1.98.383-2.753Zm0 0"/><g clip-path="url(#a)"><path fill="none" stroke="#F0431E" stroke-miterlimit="10" stroke-width=".399" d="m95.473 48.094-2.5-1.215-.418-2.75-1.926 2.004-2.746-.453 1.308 2.453-1.277 2.469 2.738-.489 1.953 1.98.383-2.753Zm0 0"/></g><path fill="#FAB80A" d="m96.082 63.934-3.195-2.274.058-3.918-3.148 2.336-3.707-1.27 1.25 3.72-2.356 3.136 3.922-.043 2.258 3.207 1.172-3.742Zm0 0"/><g clip-path="url(#b)"><path fill="none" stroke="#F57E13" stroke-miterlimit="10" stroke-width=".399" d="m96.082 63.934-3.195-2.274.058-3.918-3.148 2.336-3.707-1.27 1.25 3.72-2.356 3.136 3.922-.043 2.258 3.207 1.172-3.742Zm0 0"/></g><path fill="#FDDC04" stroke="#FBC508" stroke-miterlimit="10" stroke-width=".399" d="m88.258 78.578-1.102-1.598.692-1.808-1.856.55-1.508-1.214-.046 1.937-1.626 1.059 1.829.644.504 1.872 1.18-1.54Zm0 0"/><path fill="#F79310" stroke="#EF3420" stroke-miterlimit="10" stroke-width=".399" d="m77.281 91.86.028-3.348 2.77-1.875-3.173-1.059-.93-3.219-1.988 2.696-3.347-.114 1.949 2.723-1.14 3.148 3.19-1.007Zm0 0"/><path fill="#F9AE0C" stroke="#F36917" stroke-miterlimit="10" stroke-width=".399" d="m60.82 93.508.707-1.735 1.828-.406-1.433-1.207.18-1.863-1.59.988-1.719-.746.453 1.816-1.242 1.403 1.867.137Zm0 0"/><path fill="#F9B00B" stroke="#F46D16" stroke-miterlimit="10" stroke-width=".399" d="m45.703 96.633 1.645-3.375 3.71-.555-2.699-2.61.618-3.698-3.313 1.761-3.332-1.73.652 3.695-2.675 2.633 3.718.52Zm0 0"/><path fill="#F7960F" stroke="#F03A1F" stroke-miterlimit="10" stroke-width=".399" d="m31.535 96.09.754-2.649 2.606-.879-2.286-1.535-.03-2.75-2.165 1.7-2.629-.82.95 2.581-1.59 2.246 2.746-.101Zm0 0"/><path fill="#FCD006" stroke="#F9AE0C" stroke-miterlimit="10" stroke-width=".399" d="M20.926 102.227 20 98.637l2.43-2.793-3.696-.23-1.91-3.177-1.36 3.45-3.609.832 2.86 2.36-.324 3.687 3.125-1.989Zm0 0"/><path fill="#FBC008" stroke="#F78D11" stroke-miterlimit="10" stroke-width=".399" d="m13.352 111.82-1.985-1.996.516-2.765-2.512 1.273-2.469-1.348.434 2.782-2.047 1.933 2.781.446 1.207 2.543 1.286-2.504Zm0 0"/><path fill="#FCCF06" stroke="#F9AB0C" stroke-miterlimit="10" stroke-width=".399" d="m9.027 125.293-1.414-.844-.105-1.64-1.238 1.082-1.594-.403.648 1.512-.879 1.39 1.64-.152 1.052 1.266.363-1.602Zm0 0"/><path fill="#F78D11" stroke="#EE2922" stroke-miterlimit="10" stroke-width=".399" d="m11.977 139.332-3.375-1.172-.946-3.441-2.156 2.844-3.566-.165 2.039 2.93-1.258 3.344 3.418-1.035 2.789 2.23.07-3.57Zm0 0"/><path fill="#FDDE03" stroke="#FCC907" stroke-miterlimit="10" stroke-width=".399" d="m14.8 152.254-2.898.039-1.675-2.363-.856 2.77-2.77.863 2.372 1.671-.036 2.899 2.325-1.738 2.746.93-.938-2.747Zm0 0"/><path fill="#FDD804" stroke="#FBBF09" stroke-miterlimit="10" stroke-width=".399" d="m22.398 163.223-2.14.922-1.977-1.243.215 2.32-1.793 1.493 2.274.515.867 2.168 1.191-2.003 2.328-.157-1.535-1.754Zm0 0"/><path fill="#F9AE0C" d="m35.004 167.742-2.824 2.727-3.848-.785 1.719 3.53-1.934 3.415 3.887-.543 2.652 2.894.684-3.863 3.574-1.629-3.465-1.843Zm0 0"/><g clip-path="url(#c)"><path fill="none" stroke="#F36917" stroke-miterlimit="10" stroke-width=".399" d="m35.004 167.742-2.824 2.727-3.848-.785 1.719 3.53-1.934 3.415 3.887-.543 2.652 2.894.684-3.863 3.574-1.629-3.465-1.843Zm0 0"/></g><path fill="#F8990F" d="m47.734 172.008-1.23 2.351-2.633.32 1.856 1.895-.512 2.606 2.379-1.18 2.316 1.29-.387-2.626 1.946-1.805-2.617-.445Zm0 0"/><g clip-path="url(#d)"><path fill="none" stroke="#F0401E" stroke-miterlimit="10" stroke-width=".399" d="m47.734 172.008-1.23 2.351-2.633.32 1.856 1.895-.512 2.606 2.379-1.18 2.316 1.29-.387-2.626 1.946-1.805-2.617-.445Zm0 0"/></g><path fill="#F89D0E" d="m61.36 170.621-.383 2.324-2.133 1 2.093 1.082.293 2.34 1.676-1.656 2.313.445-1.055-2.11 1.137-2.062-2.328.356Zm0 0"/><g clip-path="url(#e)"><path fill="none" stroke="#F1491C" stroke-miterlimit="10" stroke-width=".399" d="m61.36 170.621-.383 2.324-2.133 1 2.093 1.082.293 2.34 1.676-1.656 2.313.445-1.055-2.11 1.137-2.062-2.328.356Zm0 0"/></g><path fill="#FEE901" stroke="#FEE103" stroke-miterlimit="10" stroke-width=".399" d="m73.602 164.594.425 2.222-1.586 1.614 2.246.277 1.043 2.008.961-2.047 2.23-.375-1.651-1.543.335-2.238-1.98 1.093Zm0 0"/><path fill="#FEE702" stroke="#FDDD04" stroke-miterlimit="10" stroke-width=".399" d="m83.719 155.148.77 1.168-.528 1.297 1.348-.367 1.07.902.066-1.398 1.188-.738-1.309-.496-.336-1.356-.875 1.09Zm0 0"/></svg>