<svg xmlns="http://www.w3.org/2000/svg" xmlns:xlink="http://www.w3.org/1999/xlink" width="100.77" height="112.142"><defs><clipPath id="a"><path d="M30 82h41v29.715H30Zm0 0"/></clipPath><clipPath id="b"><path d="M54 1h46.656v58H54Zm0 0"/></clipPath><clipPath id="d"><path d="M50 57h50.656v53H50Zm0 0"/></clipPath><path id="c" d="M5.156-2.219h-.468c-.032.203-.125.844-.266.906-.11.063-.86.063-1.016.063H1.937c.47-.39 1-.812 1.438-1.14 1.14-.844 1.781-1.313 1.781-2.25 0-1.157-1.047-1.891-2.437-1.891-1.219 0-2.156.625-2.156 1.515 0 .594.484.735.718.735C1.61-4.281 2-4.5 2-5c0-.516-.422-.672-.562-.719.28-.234.671-.343 1.03-.343.845 0 1.313.671 1.313 1.421 0 .688-.375 1.375-1.078 2.079l-2 2.046c-.14.11-.14.141-.14.344V0h4.28Zm0 0"/></defs><path fill="#CCF" stroke="#7F7FFF" stroke-miterlimit="10" stroke-width=".797" d="M58.773 9.492c0-4.699-3.808-8.504-8.503-8.504a8.503 8.503 0 0 0-8.504 8.504 8.506 8.506 0 0 0 8.504 8.504 8.506 8.506 0 0 0 8.503-8.504ZM58.773 55.645c0-4.7-3.808-8.504-8.503-8.504a8.503 8.503 0 0 0-8.504 8.504 8.506 8.506 0 0 0 8.504 8.503 8.506 8.506 0 0 0 8.503-8.503Zm0 0"/><path fill="#CCF" d="M58.773 101.793a8.506 8.506 0 0 0-8.503-8.504 8.506 8.506 0 0 0-8.504 8.504c0 4.7 3.808 8.504 8.504 8.504a8.503 8.503 0 0 0 8.503-8.504m0 0"/><g clip-path="url(#a)"><path fill="none" stroke="#7F7FFF" stroke-miterlimit="10" stroke-width=".797" d="M58.773 101.793a8.506 8.506 0 0 0-8.503-8.504 8.506 8.506 0 0 0-8.504 8.504c0 4.7 3.808 8.504 8.504 8.504a8.503 8.503 0 0 0 8.503-8.504Zm0 0"/></g><path fill="#CCC" stroke="#7F7F7F" stroke-miterlimit="10" stroke-width=".797" d="M87.918 61.313h11.34v-11.34h-11.34Zm0 0"/><path fill="none" stroke="#000" stroke-miterlimit="10" stroke-width=".598" d="M83.488 55.645H59.172"/><path stroke="#000" stroke-linejoin="round" stroke-miterlimit="10" stroke-width=".598" d="m86.223 55.645-3.86-1.461 1.274 1.46-1.274 1.458Zm0 0"/><g clip-path="url(#b)"><path fill="none" stroke="#000" stroke-miterlimit="10" stroke-width=".598" d="M93.781 49.574c1.344-19.261-12.035-36.015-30.613-39.308"/></g><path stroke="#000" stroke-linejoin="round" stroke-miterlimit="10" stroke-width=".59798206" d="m60.457 9.895 3.625 1.98-1.062-1.621 1.464-1.27Zm0 0"/><use xlink:href="#c" x="88.364" y="18.862"/><g clip-path="url(#d)"><path fill="none" stroke="#000" stroke-miterlimit="10" stroke-width=".598" d="M93.848 65.742c-.684 18.852-15.418 34.426-34.68 35.77"/></g><path stroke="#000" stroke-linejoin="round" stroke-miterlimit="10" stroke-width=".5979880399999999" d="m93.836 63.004-1.457 3.863 1.457-1.277 1.46 1.277Zm0 0"/><path fill="#CCC" stroke="#7F7F7F" stroke-miterlimit="10" stroke-width=".797" d="M1.285 61.313h11.336v-11.34H1.285Zm0 0"/><path fill="none" stroke="#000" stroke-miterlimit="10" stroke-width=".598" d="M13.02 55.645h24.316"/><path stroke="#000" stroke-linejoin="round" stroke-miterlimit="10" stroke-width=".598" d="m40.074 55.645-3.863-1.461 1.273 1.46-1.273 1.458Zm0 0"/><path fill="none" stroke="#000" stroke-miterlimit="10" stroke-width=".598" d="M6.691 45.543c.684-18.852 15.422-34.426 34.68-35.77"/><path stroke="#000" stroke-linejoin="round" stroke-miterlimit="10" stroke-width=".5979880399999999" d="m6.703 48.281 1.457-3.863-1.457 1.277-1.46-1.277Zm0 0"/><path fill="none" stroke="#000" stroke-miterlimit="10" stroke-width=".598" d="M6.762 61.71c-1.344 19.263 12.031 36.017 30.61 39.31"/><path stroke="#000" stroke-linejoin="round" stroke-miterlimit="10" stroke-width=".59798206" d="m40.082 101.39-3.621-1.98 1.059 1.621-1.465 1.27Zm0 0"/></svg>