<svg xmlns="http://www.w3.org/2000/svg" xmlns:xlink="http://www.w3.org/1999/xlink" width="16.811" height="13.334"><defs><path id="a" d="M-6.11-4.36c-.421 0-.874.36-.874 1.141 0 .969.422 2.047 1.547 2.047h1.015v.75h.469v-.75H-.47v.688H0l-.031-1.25c0-.375 0-1.016.031-1.375h-.469v.859h-3.484v-1.14h-.469v1.203h-1.016c-1.093 0-1.187-.75-1.187-1 0-.047 0-.11.031-.172.11.156.297.234.485.234.422 0 .609-.36.609-.61 0-.296-.203-.624-.61-.624m0 0"/></defs><path fill="none" stroke="#00F" stroke-miterlimit="10" stroke-width="1.196" d="M15.117 11.402V1.266H1.504v10.136Zm0 0"/><use xlink:href="#a" x="11.797" y="8.083"/></svg>