<svg xmlns="http://www.w3.org/2000/svg" xmlns:xlink="http://www.w3.org/1999/xlink" width="87.439" height="59.092"><defs><clipPath id="d"><path d="M.918.746h85.039v56.692H.918Zm0 0"/></clipPath><clipPath id="b"><path d="M0 0h29v29H0Zm0 0"/></clipPath><clipPath id="a"><path d="M0 0h29v29H0z"/></clipPath><pattern id="e" width="29" height="29" x="0" y="0" patternTransform="matrix(.97748 0 0 -.97748 -143.28 13608.547)" patternUnits="userSpaceOnUse"><use xlink:href="#c"/></pattern><g id="c" clip-path="url(#a)"><path fill="#007F00" d="M26.102 14.5 5.117 21.316 18.086 3.47V25.53L5.117 7.684Zm0 0"/><g clip-path="url(#b)"><path fill="none" stroke="#000" stroke-miterlimit="10" stroke-width="2.04608" d="M26.102 14.5 5.117 21.316 18.086 3.47V25.53L5.117 7.684Zm0 0"/></g></g></defs><g clip-path="url(#d)"><path fill="url(#e)" d="M.918 57.438h85.039V.742H.918Zm0 0"/></g><path fill="none" stroke="#000" stroke-miterlimit="10" stroke-width=".399" d="M.918 57.438V.745h85.039v56.692Zm0 0"/></svg>