<svg xmlns="http://www.w3.org/2000/svg" width="30.393" height="14.006"><defs><clipPath id="a"><path d="M0 0h17v13.508H0Zm0 0"/></clipPath></defs><path fill="none" stroke="#000" stroke-miterlimit="10" stroke-width=".399" d="M10.496 8.773h18.586"/><path d="M1.555 8.773c1.097.262 5.925 1.762 8.941 3.391V5.383C7.48 7.012 2.652 8.508 1.555 8.773m0 0"/><g clip-path="url(#a)"><path fill="none" stroke="#000" stroke-miterlimit="10" stroke-width=".399" d="M1.555 8.773c1.097.262 5.925 1.762 8.941 3.391V5.383C7.48 7.012 2.652 8.508 1.555 8.773Zm0 0"/></g><path fill="none" stroke="#000" stroke-miterlimit="10" stroke-width=".399" d="M1.133 3.105h27.949"/><path fill="none" stroke="#000" stroke-linecap="round" stroke-linejoin="round" stroke-miterlimit="10" stroke-width=".399" d="M3.004 5.496C2.625 4.06 1.78 3.383.934 3.106c.847-.282 1.691-.958 2.07-2.395"/></svg>