<svg xmlns="http://www.w3.org/2000/svg" xmlns:xlink="http://www.w3.org/1999/xlink" width="26.516" height="30.08"><defs><path id="b" d="M.25-6.375c-1.234-.516-2.453-.031-3 1.297a2.63 2.63 0 0 0-.14 1.562l-.438-.187-.61 1.672.438.187c.234-.562.266-.64.61-.5L1.765-.422 1.5.218l.438.173.453-1.157.5-1.156-.438-.172-.25.64-1.719-.718c.47-.265.75-.625.907-1 .578-1.39.125-2.687-1.141-3.203m-.5 1.188c1.297.53 1.5 1.375 1.25 1.968-.047.14-.234.563-.906.766-.14.062-.156.062-.328-.016l-1.953-.797c-.172-.078-.188-.093-.266-.296-.219-.516-.078-1.016 0-1.22.25-.609 1.031-.89 2.203-.405m0 0"/><path id="c" d="M-1.531-6.656c-.219-.094-.594-.063-.766.36-.062.14-.203.593-.062 1.124-.172.11-.532.422-.813 1.094-.547 1.328-.031 2.14.61 2.406.374.156.828.14 1.156-.078.234.406.5.594.687.672.14.047.61.187 1.063-.047C.313-1 .234-.235.813 0c.468.203 1.359-.047 2.125-1.875.671-1.625.437-2.578-.22-2.844a1.3 1.3 0 0 0-1.437.219c-.484.406-.703.953-1.078 1.828-.094.25-.265.672-.297.703a.63.63 0 0 1-.797.282c-.078-.032-.218-.141-.25-.235.391-.312.594-.797.688-1.031.562-1.328.047-2.125-.594-2.39-.437-.173-.828-.063-1.047.015-.031-.328.047-.531.063-.656.047.046.125.109.172.125.234.093.453.015.562-.235a.426.426 0 0 0-.234-.562m.062 2.343c.407.172 1.032.438.688 1.235-.328.812-.953.547-1.36.375-.406-.172-1.03-.422-.703-1.235.344-.796.969-.546 1.375-.374m3.89.391c.345.14.688.703.188 1.906C2.156-.922 1.547-.625 1.125-.796.563-1.032.797-1.61.844-1.75l.453-1.078c.125-.281.547-1.328 1.125-1.094m0 0"/><path id="d" d="M-3.969-6.375c-.39-.156-.953 0-1.25.734-.375.891-.39 2.047.64 2.485l.954.39-.297.688.422.172.297-.688L.016-1.25l-.266.625.438.172.437-1.172c.156-.344.39-.937.563-1.25L.75-3.047l-.328.797-3.219-1.344.438-1.047-.422-.171-.453 1.109-.953-.39c-1-.423-.813-1.157-.72-1.376a.4.4 0 0 1 .095-.156.59.59 0 0 0 .375.39c.39.173.687-.093.78-.327.126-.266.063-.657-.312-.813m0 0"/><clipPath id="a"><path d="M0 0h26.273v29.621H0Zm0 0"/></clipPath></defs><g clip-path="url(#a)"><path fill="none" stroke="#00F" stroke-miterlimit="10" stroke-width="1.1959402" d="M15.973 27.84 24.48 7.297 10.05 1.32 1.544 21.863Zm0 0"/></g><use xlink:href="#b" x="12.325" y="22.734"/><use xlink:href="#c" x="14.762" y="16.852"/><use xlink:href="#d" x="16.954" y="11.56"/></svg>