<svg xmlns="http://www.w3.org/2000/svg" xmlns:xlink="http://www.w3.org/1999/xlink" width="36.416" height="35.264"><defs><clipPath id="c"><path d="M23 1h13.125v21H23Zm0 0"/></clipPath><clipPath id="d"><path d="M20 0h16.125v25H20Zm0 0"/></clipPath><clipPath id="f"><path d="M6 16h15v18.895H6Zm0 0"/></clipPath><clipPath id="g"><path d="M3 13h21v21.895H3Zm0 0"/></clipPath><clipPath id="h"><path d="M12 13h21v21.895H12Zm0 0"/></clipPath><path id="a" d="M4.922 0v-.469h-1.39v-5.734c0-.234 0-.328-.266-.328-.11 0-.125 0-.22.078-.765.562-1.796.562-2 .562H.845v.47h.203c.156 0 .703-.016 1.297-.204v5.156H.954V0c.437-.031 1.5-.031 1.984-.031s1.546 0 1.984.031m0 0"/><path id="b" d="m4.5 3.36-.234-.407c-.188.078-.797.313-.922.219-.11-.063-.485-.719-.563-.844l-.734-1.281c.578.219 1.203.469 1.703.687 1.297.563 2.031.891 2.844.422 1-.578 1.11-1.86.422-3.062-.61-1.063-1.625-1.563-2.391-1.11-.516.297-.406.782-.281.985.156.281.547.515.984.265.453-.25.36-.703.344-.843.344.125.625.406.812.718.422.735.079 1.485-.578 1.86-.593.344-1.375.36-2.343.094L.797.359C.64.281.609.297.437.406L.282.484l2.14 3.704Zm0 0"/><path id="e" d="M-5.25 1.797c0 .547.297 1.406 1.734 1.719-.687.203-1.406.765-1.406 1.625 0 .765.75 1.39 2.156 1.39 1.188 0 1.97-.64 1.97-1.437a.68.68 0 0 0-.688-.703.67.67 0 0 0-.703.687c0 .578.546.688.578.703-.344.282-.782.36-1.094.36-.828 0-.86-.641-.86-.97 0-.124.016-1.437 1.047-1.5.407-.015.438-.015.485-.03.094-.016.125-.11.125-.172 0-.172-.11-.172-.282-.172h-.437c-1.094 0-1.094-.985-1.094-1.5 0-.469 0-1.484 1.031-1.484.266 0 .782.046 1.266.343C-1.75.75-2 1-2 1.406c0 .453.313.75.75.75.422 0 .766-.265.766-.765 0-.907-.97-1.5-2.25-1.5-1.782 0-2.516 1-2.516 1.906m0 0"/><path id="i" d="m2.703-4.687-.406-.235-.485.844-.953-.547.485-.844-.407-.234-.484.844-3.625-2.094c-.219-.125-.297-.14-.437.11-.11.187-.094.187-.016.374l2.016 5.188.406.234 1.437-2.5.954.547-.563.969.406.234c.157-.344.61-1.125.828-1.5.204-.344.625-1.094.844-1.39m-2.828.812L-1.344-1.75-2.78-5.406Zm0 0"/></defs><use xlink:href="#a" x="15.038" y="17.347" fill="red"/><use xlink:href="#b" x="22.148" y="8.325"/><g clip-path="url(#c)"><path fill="none" stroke="#7F7F7F" stroke-miterlimit="10" stroke-width=".199" d="m34.91 4.266-8.504 14.726"/></g><g clip-path="url(#d)"><path fill="none" stroke="#000" stroke-miterlimit="10" stroke-width=".399" d="m34.91 4.266-1.305 9.062-7.199 5.664"/></g><path fill="none" stroke="#7F7F7F" stroke-miterlimit="10" stroke-width=".199" d="M26.406 18.992 17.902 4.266"/><path fill="none" stroke="#000" stroke-miterlimit="10" stroke-width=".399" d="M17.902 4.266H34.91"/><use xlink:href="#e" x="20.766" y="20.696"/><g clip-path="url(#f)"><path fill="none" stroke="#7F7F7F" stroke-miterlimit="10" stroke-width=".199" d="m17.902 33.723-8.504-14.73"/></g><g clip-path="url(#g)"><path fill="none" stroke="#000" stroke-miterlimit="10" stroke-width=".399" d="m17.902 33.723-7.199-5.664-1.305-9.067"/></g><path fill="none" stroke="#7F7F7F" stroke-miterlimit="10" stroke-width=".199" d="M9.398 18.992h17.008"/><g clip-path="url(#h)"><path fill="none" stroke="#000" stroke-miterlimit="10" stroke-width=".399" d="m26.406 18.992-8.504 14.73"/></g><use xlink:href="#i" x="10.796" y="13.289"/><path fill="none" stroke="#7F7F7F" stroke-miterlimit="10" stroke-width=".199" d="M.895 4.266h17.007"/><path fill="none" stroke="#000" stroke-miterlimit="10" stroke-width=".399" d="M.895 4.266 9.398.863l8.504 3.403"/><path fill="none" stroke="#7F7F7F" stroke-miterlimit="10" stroke-width=".199" d="M17.902 4.266 9.398 18.992"/><path fill="none" stroke="#000" stroke-miterlimit="10" stroke-width=".399" d="M9.398 18.992.895 4.266"/></svg>