<svg xmlns="http://www.w3.org/2000/svg" xmlns:xlink="http://www.w3.org/1999/xlink" width="87.256" height="58.898"><defs><path id="a" d="M4.766-1.172c0-.14-.141-.14-.235-.14-.187 0-.187.03-.25.156-.25.625-.734.812-1.234.812-1.39 0-1.39-1.453-1.39-1.922 0-.562 0-1.843 1.28-1.843.36 0 .516.015.657.046a.62.62 0 0 0-.203.47c0 .437.343.624.609.624.313 0 .64-.219.64-.625 0-.86-1.156-.922-1.734-.922C1.11-4.516.375-3.375.375-2.219.375-.89 1.313.063 2.844.063c1.625 0 1.922-1.157 1.922-1.235m0 0"/><path id="b" d="M4.406-3.672c0-.531-.531-.812-1.062-.812-.688 0-1.094.5-1.313 1.125v-1.125l-1.656.078v.468c.61 0 .688 0 .688.391v3.078H.375V0l1.25-.031C2-.031 2.641-.031 3 0v-.469h-.86v-1.75c0-.687.235-1.906 1.235-1.906 0 0-.187.172-.187.453 0 .406.328.61.609.61.297 0 .61-.204.61-.61m0 0"/><path id="c" d="M5.406-2.172c0-1.344-.922-2.344-2.547-2.344C1.22-4.516.313-3.5.313-2.172c0 1.235.89 2.235 2.546 2.235 1.672 0 2.547-1.016 2.547-2.235m-1.281-.11c0 .86 0 1.938-1.266 1.938-1.265 0-1.265-1.078-1.265-1.937 0-.453 0-.953.172-1.297.187-.375.609-.578 1.093-.578.422 0 .844.156 1.063.5.203.344.203.89.203 1.375m0 0"/><path id="d" d="M4.14-1.39c0-.438-.202-.782-.546-1.063-.39-.281-.719-.344-1.485-.485-.375-.062-1.015-.171-1.015-.64 0-.625.922-.625 1.11-.625.75 0 1.124.297 1.171.844.016.156.031.203.234.203.235 0 .235-.047.235-.281v-.797c0-.188 0-.282-.172-.282-.047 0-.063 0-.453.188-.266-.125-.61-.188-1-.188-.313 0-1.844 0-1.844 1.313 0 .39.203.656.406.828.39.344.782.406 1.547.547.36.062 1.094.187 1.094.781 0 .75-.906.75-1.125.75C1.234-.297.984-1.03.859-1.453c-.046-.14-.109-.14-.234-.14-.25 0-.25.062-.25.28v1.094c0 .188 0 .282.188.282.062 0 .078 0 .296-.157l.25-.172c.47.329.985.329 1.188.329.312 0 1.844 0 1.844-1.454m0 0"/><path id="e" d="M6.125 0v-.469c-.61 0-.687 0-.687-.39v-3.625l-1.813.078v.468c.61 0 .688 0 .688.391v1.906c0 .813-.516 1.344-1.235 1.344-.781 0-.812-.25-.812-.797v-3.39l-1.813.078v.468c.61 0 .688 0 .688.391v2.328c0 1.063.797 1.282 1.797 1.282.25 0 .968 0 1.421-.782v.782Zm0 0"/><path id="f" d="M3.813-1.234v-.532h-.47v.516c0 .672-.327.906-.609.906-.578 0-.578-.64-.578-.86v-2.75h1.469v-.468H2.156v-1.906h-.469c0 1-.484 1.984-1.484 2.016v.359h.828v2.734c0 1.063.86 1.282 1.578 1.282.75 0 1.204-.579 1.204-1.297m0 0"/></defs><path fill="none" stroke="#7F7F7F" stroke-miterlimit="10" stroke-width=".199" d="M.738 57.742h85.04M.737 29.395h85.04M.737 1.059h85.04M.737 57.742V1.047m28.344 56.695V1.047M57.43 57.742V1.047m28.336 56.695V1.047"/><use xlink:href="#a" x="20.781" y="32.528"/><use xlink:href="#b" x="25.872" y="32.528"/><use xlink:href="#c" x="30.594" y="32.528"/><use xlink:href="#d" x="36.323" y="32.528"/><use xlink:href="#d" x="40.846" y="32.528"/><use xlink:href="#c" x="49.184" y="32.528"/><use xlink:href="#e" x="54.913" y="32.528"/><use xlink:href="#f" x="61.279" y="32.528"/><path fill="none" stroke="red" stroke-miterlimit="10" stroke-width=".399" d="m17.262 36.11 51.992-13.426m-51.992 0 51.992 13.425"/></svg>