<svg xmlns="http://www.w3.org/2000/svg" xmlns:xlink="http://www.w3.org/1999/xlink" width="318.693" height="116.156"><defs><path id="a" d="M6.688-1.937c0-1.407-1.391-1.625-1.75-1.688.921-.203 1.437-.719 1.437-1.5 0-1.797-2.125-1.797-2.531-1.797H1.39c-.36 0-.485.11-.485.484v5.954c0 .359.11.484.485.484h2.718c.75 0 2.579-.125 2.579-1.937M5.03-5.094c0 1.14-1.312 1.14-1.562 1.14H2.313v-2.108h1.171c.391 0 1.547.03 1.547.968m.266 3.14c0 1.032-1.063 1.095-1.531 1.095H2.313v-2.375h1.25c.359 0 1.734 0 1.734 1.28m0 0"/><path id="b" d="M4.719-.484v-2.672c0-1.563-1.516-1.578-2-1.578-.469 0-.969.046-1.64.312-.204.094-.266.125-.266.234 0 .079.062.657.078.735 0 .047.062.11.125.11.046 0 .078-.032.109-.063.438-.453.922-.672 1.547-.672.531 0 .703.328.703.922v.344c-.36 0-2.969.015-2.969 1.484C.406-.625.97.109 1.844.109c.343 0 1.094-.093 1.562-.78v.187c0 .328.063.484.469.484h.375c.375 0 .469-.125.469-.484M3.375-1.531c0 .922-.953.922-.984.922-.422 0-.688-.36-.688-.735 0-.984 1.39-1.047 1.672-1.062Zm0 0"/><path id="c" d="M3.953-1.406c0-.563-.297-.907-.484-1.063-.39-.36-.75-.422-1.172-.5-.547-.11-.938-.187-.938-.562 0-.422.329-.5.72-.5.655 0 1.015.25 1.28.468.094.11.125.11.157.11.109 0 .125-.094.14-.14.016-.079.11-.641.11-.688 0-.157-.532-.297-.641-.328a3.5 3.5 0 0 0-.969-.125c-.453 0-1.781 0-1.781 1.422 0 .484.219.796.484 1.03.344.313.735.391 1.297.5.297.048.797.141.797.579 0 .469-.375.531-.765.531-.438 0-1-.125-1.47-.687-.046-.047-.077-.079-.14-.079-.094 0-.125.094-.125.157-.031.14-.14.703-.14.797 0 .187.75.422.75.422.546.171.953.171 1.125.171.5 0 1.765-.046 1.765-1.515m0 0"/><path id="d" d="M1.938-.484v-3.61c0-.312-.079-.468-.485-.468h-.36c-.359 0-.484.109-.484.468v3.61c0 .359.11.484.485.484h.36c.374 0 .484-.125.484-.484M2-6.047v-.187c0-.313-.062-.47-.469-.47h-.515c-.375 0-.485.126-.485.47v.187c0 .297.063.484.485.484h.515c.407 0 .469-.171.469-.484m0 0"/><path id="e" d="M4.563-.5c0-.11-.047-.562-.063-.703 0-.016-.031-.125-.125-.125-.031 0-.062 0-.156.11-.172.14-.64.546-1.453.546-1.047 0-1.047-1-1.047-1.64 0-.813.062-1.641 1.078-1.641.64 0 .906.156 1.265.453.125.11.141.11.188.11.094 0 .11-.094.125-.126.016-.078.125-.64.125-.687 0-.094-.078-.14-.25-.219-.469-.219-.766-.312-1.469-.312-1.484 0-2.406.703-2.406 2.437C.375-.64 1.219.11 2.735.11c.265 0 .859-.015 1.53-.343.282-.157.298-.172.298-.266m0 0"/><path id="f" d="M5.469-2c0-1.11-.828-1.953-1.813-2.172l-.969-.219c-.218-.062-.828-.28-.828-.859 0-.844.844-.86 1.188-.86.547 0 1.047.126 1.531.61.172.14.172.156.219.156.062 0 .11-.031.14-.172l.141-.875c.031-.078.031-.093.031-.125 0-.078-.015-.093-.265-.218-.703-.36-1.297-.407-1.797-.407-.89 0-2.438.22-2.438 2.079 0 .703.375 1.171.563 1.359.5.515.969.625 1.75.797.562.14.781.187 1 .39.094.094.312.297.312.688 0 .937-.859.953-1.187.953-.844 0-1.578-.328-2.063-.781-.125-.125-.14-.125-.187-.125-.063 0-.11.031-.14.187l-.141.86c-.032.093-.032.109-.032.14 0 .203 1.047.563 1.094.578A4.7 4.7 0 0 0 3.047.22C4.53.219 5.469-.453 5.469-2m0 0"/><path id="g" d="M3.719-.469c0-.031-.016-.094-.078-.312-.047-.203-.079-.25-.157-.25-.062 0-.062 0-.125.062-.109.078-.375.297-.796.297-.235 0-.391-.172-.391-.828v-2.344h.89c.126 0 .47 0 .47-.36 0-.359-.344-.359-.47-.359h-.89v-.828c0-.328-.063-.484-.485-.484h-.296c-.36 0-.485.11-.485.484v.829H.672c-.11 0-.469 0-.469.359 0 .36.36.36.469.36h.203v2.515c0 1.016.36 1.437 1.047 1.437.094 0 .531 0 1.047-.156.172-.047.75-.234.75-.422m0 0"/><path id="h" d="M4.984-.484v-2.75c0-1.032-.437-1.438-1.453-1.438-1.047 0-1.5.75-1.625 1.016h-.015v-.485c0-.328-.063-.484-.47-.484h-.343c-.36 0-.484.11-.484.484v3.657c0 .359.11.484.484.484h.39c.391 0 .485-.125.485-.484v-2.203c0-.86.578-1.266 1.094-1.266.484 0 .578.219.578.734v2.735c0 .328.078.484.484.484H4.5c.39 0 .484-.125.484-.484m0 0"/><path id="i" d="M4.969-.484v-5.953c0-.329-.063-.485-.469-.485h-.375c-.375 0-.469.14-.469.484v2.266a1.76 1.76 0 0 0-1.265-.5C.375-4.672.375-2.766.375-2.266c0 .454 0 2.375 1.969 2.375.422 0 .844-.125 1.281-.578 0 .375.14.469.469.469H4.5c.375 0 .469-.125.469-.484M3.625-1.25c0 .172 0 .266-.297.469-.25.156-.484.172-.594.172-1.015 0-1.015-.922-1.015-1.657 0-.75 0-1.687 1.125-1.687.281 0 .562.094.781.297Zm0 0"/><path id="j" d="M3.547-3.937v-.47c0-.202 0-.265-.172-.265-.281 0-1.016.094-1.484 1.172v-.64c0-.329-.079-.485-.485-.485h-.312c-.36 0-.485.11-.485.484v3.657c0 .359.11.484.485.484h.36c.374 0 .484-.125.484-.484v-1.813c0-.937.78-1.328 1.406-1.375.187 0 .203 0 .203-.265m0 0"/><path id="k" d="M6.39-4.766c0-1.5-.984-2.156-2.515-2.156H1.391c-.36 0-.485.11-.485.484v5.954c0 .359.11.484.485.484h.5c.375 0 .484-.125.484-.484v-2.188h1.516c1.562 0 2.5-.656 2.5-2.094m-1.39 0c0 .672-.11 1.313-1.437 1.313h-1.22v-2.61h1.22C4.875-6.062 5-5.468 5-4.765m0 0"/><path id="l" d="M5.156-2.25c0-1.625-.797-2.484-2.422-2.484-1.656 0-2.421.89-2.421 2.484 0 1.625.859 2.36 2.421 2.36 1.563 0 2.422-.72 2.422-2.36m-1.343-.11c0 .782 0 1.688-1.079 1.688-1.062 0-1.062-.89-1.062-1.687 0-.766 0-1.657 1.062-1.657 1.079 0 1.079.875 1.079 1.657m0 0"/><path id="m" d="M3.797-6.187v-.47c0-.234-.016-.234-.344-.312-.297-.062-.5-.062-.656-.062-.75 0-1.938.172-1.938 1.672v.797c-.218 0-.562 0-.562.359 0 .36.344.36.562.36v3.359c0 .359.11.484.47.484h.374c.375 0 .484-.125.484-.484v-3.36h.47c.124 0 .484 0 .484-.36 0-.359-.36-.359-.485-.359h-.5v-1.093c0-.25 0-.657.64-.657.329 0 .517.094.72.282.078.078.109.093.156.093.125 0 .125-.093.125-.25m0 0"/><path id="n" d="M4.781-2.594c0-1.281-.61-2.14-2.093-2.14-1.594 0-2.375.89-2.375 2.406 0 1.64.937 2.437 2.515 2.437.375 0 .938-.046 1.594-.375.219-.109.297-.14.297-.265 0-.063-.032-.36-.047-.438-.031-.312-.047-.312-.14-.312-.032 0-.063 0-.173.093a2.2 2.2 0 0 1-1.5.579c-1.125 0-1.25-.891-1.28-1.532h2.718c.234 0 .484 0 .484-.453m-1.11-.062H1.595c.031-.61.234-1.36 1.094-1.36.796 0 .953.579.984 1.36m0 0"/><path id="o" d="M1.938-.484v-5.953c0-.329-.079-.485-.485-.485h-.36c-.359 0-.484.11-.484.484v5.954c0 .359.11.484.485.484h.36c.374 0 .484-.125.484-.484m0 0"/><path id="p" d="M5.938-.484v-.141c0-.469-.235-.469-.563-.469l-1.547.016-1.453.016v-2.032H5c.297 0 .469-.078.469-.469 0-.374-.125-.468-.469-.468H2.375v-1.844h.484l2.344.016c.344 0 .578 0 .578-.47v-.077c0-.328-.062-.485-.484-.485H1.39c-.36 0-.485.11-.485.485v5.922c0 .359.11.484.485.484h4.062c.375 0 .484-.125.484-.484m0 0"/><path id="q" d="M5.219-2.297c0-.5 0-2.375-1.813-2.375-.578 0-1.11.234-1.469.578 0-.375-.14-.468-.484-.468h-.36c-.359 0-.484.109-.484.468v5.547c0 .36.11.484.485.484h.39c.375 0 .485-.14.485-.484V-.39c.437.5.984.5 1.125.5 2.125 0 2.125-1.906 2.125-2.406m-1.36.016c0 .39 0 1.672-1.125 1.672a.86.86 0 0 1-.53-.172c-.235-.172-.235-.219-.235-.39v-2.391c.11-.11.437-.329.86-.329 1.015 0 1.03 1.172 1.03 1.61m0 0"/><path id="r" d="M5.625-6.328v-.078c0-.328-.078-.485-.484-.485H1.39c-.36 0-.485.11-.485.485v5.922c0 .359.11.484.485.484h.5c.375 0 .484-.125.484-.484v-2.5h2.313c.312 0 .468-.063.468-.47 0-.358-.125-.468-.468-.468H2.375v-1.953h.422l2.25.016c.344 0 .578 0 .578-.47m0 0"/><path id="s" d="M4.984-.484v-3.61c0-.312-.062-.468-.484-.468h-.39c-.376 0-.485.125-.485.468v2.375c0 .657-.344 1.219-1.047 1.219-.562 0-.625-.14-.625-.672v-2.922c0-.312-.062-.468-.484-.468h-.39c-.36 0-.485.109-.485.468v2.844c0 1.063.578 1.36 1.625 1.36.265 0 .969 0 1.437-.844v.25c0 .328.078.484.485.484H4.5c.39 0 .484-.125.484-.484m0 0"/><path id="t" d="M6.875-.266c0-.046 0-.078-.047-.203l-2.11-6.015c-.14-.438-.437-.438-.624-.438h-.89c-.188 0-.485 0-.626.438L.468-.47c-.046.125-.046.156-.046.203 0 .266.25.266.39.266h.36c.172 0 .484 0 .625-.406l.39-1.094h2.75l.344.953c.125.344.188.547.672.547h.531c.141 0 .391 0 .391-.266M4.641-2.359H2.484l.72-2.11c.14-.453.28-.828.358-1.187.063.25.063.265.141.5Zm0 0"/><path id="v" d="m6.438-.578-.079-.86c0-.062-.062-.109-.125-.109-.03 0-.046.016-.078.016-.265.218-.547.422-.875.531-.343.11-.687.11-1.031.11-.61 0-1.234-.172-1.625-.626-.453-.53-.547-1.25-.547-1.937 0-.703.094-1.422.547-1.953.39-.469 1.016-.64 1.625-.64.313 0 .61.046.906.155.282.11.532.282.766.485A.12.12 0 0 0 6-5.375c.078 0 .125-.047.125-.094l.188-1.078c0-.078-.032-.11-.079-.125a5.3 5.3 0 0 0-.968-.281 5.7 5.7 0 0 0-1.016-.078c-.984 0-2.016.203-2.719.89S.61-4.453.61-3.453c0 .969.22 1.984.922 2.672.703.687 1.735.89 2.719.89C4.625.11 5 .094 5.36 0c.359-.094.687-.266 1.015-.453.031-.031.063-.063.063-.125m0 0"/><path id="w" d="M7.297-3.406c0-.797-.125-1.75-.688-2.469-.75-.922-1.937-1.047-2.593-1.047H1.39c-.36 0-.485.11-.485.484v5.954c0 .359.11.484.485.484h2.625c2.437 0 3.28-1.453 3.28-3.406m-1.438 0C5.86-2.281 5.75-.86 3.625-.86H2.344v-5.203h1.281c2.14 0 2.234 1.53 2.234 2.656m0 0"/><path id="x" d="M4.984-.484v-2.75c0-1.032-.437-1.438-1.453-1.438-1 0-1.453.688-1.594.969h-.015v-2.734c0-.329-.063-.485-.469-.485h-.375c-.36 0-.484.11-.484.484v5.954c0 .359.11.484.484.484h.39c.391 0 .485-.125.485-.484v-2.203c0-.86.578-1.266 1.094-1.266.484 0 .578.219.578.734v2.735c0 .328.078.484.484.484H4.5c.39 0 .484-.125.484-.484m0 0"/><path id="y" d="M2.484-6.703c0-.219-.046-.219-.265-.219h-.766c-.234 0-.281 0-.281.219 0 .875.062 1.781.078 2.672 0 .25.047 1.922.063 1.984.03.094.093.094.265.094h.5c.25 0 .266-.016.281-.281l.063-2.235c.015-.734.062-1.5.062-2.234m0 6.219v-.344c0-.313-.078-.485-.484-.485h-.344c-.375 0-.484.141-.484.485v.344c0 .359.11.484.484.484H2c.375 0 .484-.125.484-.484m0 0"/><path id="u" d="M4.422-2.5c0-1.062-.89-1.922-1.922-1.922-1.078 0-1.953.89-1.953 1.922A1.95 1.95 0 0 0 2.5-.562c1.031 0 1.922-.86 1.922-1.938m0 0"/></defs><path fill="#FF7F00" d="M64.188 16.52h63.335V1.578H64.188Zm0 0"/><g fill="#FFF"><use xlink:href="#a" x="83.778" y="12.063"/><use xlink:href="#b" x="91.08" y="12.063"/><use xlink:href="#c" x="96.311" y="12.063"/><use xlink:href="#d" x="100.515" y="12.063"/><use xlink:href="#e" x="103.065" y="12.063"/></g><path fill="#007F7F" d="M127.523 16.52h63.336V1.578h-63.336Zm0 0"/><g fill="#FFF"><use xlink:href="#f" x="138.822" y="12.173"/><use xlink:href="#g" x="144.91" y="12.173"/><use xlink:href="#b" x="148.935" y="12.173"/><use xlink:href="#h" x="154.165" y="12.173"/><use xlink:href="#i" x="159.754" y="12.173"/><use xlink:href="#b" x="165.343" y="12.173"/></g><g fill="#FFF"><use xlink:href="#j" x="170.265" y="12.173"/><use xlink:href="#i" x="173.971" y="12.173"/></g><path fill="#00ADEF" d="M190.855 16.52h63.336V1.578h-63.336Zm0 0"/><g fill="#FFF"><use xlink:href="#k" x="195.306" y="12.118"/><use xlink:href="#j" x="202.31" y="12.118"/><use xlink:href="#l" x="206.016" y="12.118"/><use xlink:href="#m" x="211.496" y="12.118"/><use xlink:href="#n" x="214.843" y="12.118"/><use xlink:href="#c" x="219.934" y="12.118"/><use xlink:href="#c" x="224.138" y="12.118"/><use xlink:href="#d" x="228.343" y="12.118"/><use xlink:href="#l" x="230.893" y="12.118"/><use xlink:href="#h" x="236.373" y="12.118"/><use xlink:href="#b" x="241.962" y="12.118"/><use xlink:href="#o" x="247.192" y="12.118"/></g><path fill="#EC008C" d="M254.191 16.52h63.336V1.578h-63.336Zm0 0"/><g fill="#FFF"><use xlink:href="#p" x="263.039" y="12.048"/><use xlink:href="#h" x="269.436" y="12.048"/><use xlink:href="#g" x="275.025" y="12.048"/><use xlink:href="#n" x="279.049" y="12.048"/><use xlink:href="#j" x="284.14" y="12.048"/><use xlink:href="#q" x="287.846" y="12.048"/></g><g fill="#FFF"><use xlink:href="#j" x="293.127" y="12.048"/><use xlink:href="#d" x="296.833" y="12.048"/><use xlink:href="#c" x="299.383" y="12.048"/><use xlink:href="#n" x="303.587" y="12.048"/></g><path fill="#8D8600" d="M.855 31.465h63.336V16.52H.855Zm0 0"/><use xlink:href="#r" x="9.957" y="27.395"/><use xlink:href="#n" x="15.735" y="27.395"/><use xlink:href="#b" x="20.826" y="27.395"/><use xlink:href="#g" x="26.056" y="27.395"/><use xlink:href="#s" x="30.081" y="27.395"/><use xlink:href="#j" x="35.67" y="27.395"/><use xlink:href="#n" x="39.376" y="27.395"/><use xlink:href="#t" x="47.785" y="27.395"/><path fill="#C7C164" d="M64.188 31.465h63.335V16.52H64.188Zm0 0"/><use xlink:href="#u" x="93.367" y="26.206"/><path fill="#C7C164" d="M127.523 31.465h63.336V16.52h-63.336Zm0 0"/><use xlink:href="#u" x="156.701" y="26.206"/><path fill="#C7C164" d="M190.855 31.465h63.336V16.52h-63.336Zm0 0"/><use xlink:href="#u" x="220.035" y="26.206"/><path fill="#C7C164" d="M254.191 31.465h63.336V16.52h-63.336Zm0 0"/><use xlink:href="#u" x="283.368" y="26.206"/><path fill="#8D8600" d="M.855 46.406h63.336V31.465H.855Zm0 0"/><use xlink:href="#r" x="9.957" y="42.339"/><use xlink:href="#n" x="15.735" y="42.339"/><use xlink:href="#b" x="20.826" y="42.339"/><use xlink:href="#g" x="26.056" y="42.339"/><use xlink:href="#s" x="30.081" y="42.339"/><use xlink:href="#j" x="35.67" y="42.339"/><use xlink:href="#n" x="39.376" y="42.339"/><use xlink:href="#a" x="47.785" y="42.339"/><use xlink:href="#u" x="93.367" y="41.15"/><use xlink:href="#u" x="156.701" y="41.15"/><use xlink:href="#u" x="220.035" y="41.15"/><use xlink:href="#u" x="283.368" y="41.15"/><path fill="#8D8600" d="M.855 61.352h63.336V46.406H.855Zm0 0"/><use xlink:href="#r" x="10.105" y="57.342"/><use xlink:href="#n" x="15.884" y="57.342"/><use xlink:href="#b" x="20.975" y="57.342"/><use xlink:href="#g" x="26.205" y="57.342"/><use xlink:href="#s" x="30.23" y="57.342"/><use xlink:href="#j" x="35.819" y="57.342"/><use xlink:href="#n" x="39.525" y="57.342"/><use xlink:href="#v" x="47.934" y="57.342"/><path fill="#C7C164" d="M64.188 61.352h63.335V46.406H64.188Zm0 0"/><path fill="#C7C164" d="M127.523 61.352h63.336V46.406h-63.336Zm0 0"/><path fill="#C7C164" d="M190.855 61.352h63.336V46.406h-63.336ZM254.191 61.352h63.336V46.406h-63.336Zm0 0"/><use xlink:href="#u" x="283.368" y="56.094"/><path fill="#8D8600" d="M.855 76.297h63.336V61.352H.855Zm0 0"/><use xlink:href="#r" x="9.652" y="72.227"/><use xlink:href="#n" x="15.431" y="72.227"/><use xlink:href="#b" x="20.522" y="72.227"/><use xlink:href="#g" x="25.752" y="72.227"/><use xlink:href="#s" x="29.777" y="72.227"/><use xlink:href="#j" x="35.366" y="72.227"/><use xlink:href="#n" x="39.072" y="72.227"/><use xlink:href="#w" x="47.481" y="72.227"/><use xlink:href="#u" x="156.701" y="71.038"/><use xlink:href="#u" x="220.035" y="71.038"/><use xlink:href="#u" x="283.368" y="71.038"/><path fill="#8D8600" d="M.855 91.238h63.336V76.297H.855Zm0 0"/><use xlink:href="#r" x="10.409" y="87.156"/><use xlink:href="#n" x="16.188" y="87.156"/><use xlink:href="#b" x="21.279" y="87.156"/><use xlink:href="#g" x="26.509" y="87.156"/><use xlink:href="#s" x="30.534" y="87.156"/><use xlink:href="#j" x="36.123" y="87.156"/><use xlink:href="#n" x="39.829" y="87.156"/><use xlink:href="#p" x="48.238" y="87.156"/><path fill="#C7C164" d="M64.188 91.238h63.335V76.297H64.188Zm0 0"/><path fill="#C7C164" d="M127.523 91.238h63.336V76.297h-63.336Zm0 0"/><path fill="#C7C164" d="M190.855 91.238h63.336V76.297h-63.336Zm0 0"/><use xlink:href="#u" x="220.035" y="85.982"/><path fill="#C7C164" d="M254.191 91.238h63.336V76.297h-63.336Zm0 0"/><use xlink:href="#u" x="283.368" y="85.982"/><path fill="none" stroke="#00ADEF" stroke-miterlimit="10" stroke-width="1.594" d="M251.559 1.375h-58.067a2.83 2.83 0 0 0-2.832 2.836v84.394a2.83 2.83 0 0 0 2.832 2.836h58.067a2.835 2.835 0 0 0 2.832-2.836V4.211a2.835 2.835 0 0 0-2.832-2.836Zm0 0"/><use xlink:href="#k" x="205.26" y="102.67" fill="#00ADEF"/><g fill="#00ADEF"><use xlink:href="#l" x="211.954" y="102.67"/><use xlink:href="#q" x="217.434" y="102.67"/><use xlink:href="#s" x="223.023" y="102.67"/><use xlink:href="#o" x="228.612" y="102.67"/><use xlink:href="#b" x="231.162" y="102.67"/></g><use xlink:href="#j" x="236.084" y="102.67" fill="#00ADEF"/><g fill="#00ADEF"><use xlink:href="#v" x="205.405" y="114.626"/><use xlink:href="#x" x="212.408" y="114.626"/><use xlink:href="#l" x="217.997" y="114.626"/><use xlink:href="#d" x="223.477" y="114.626"/><use xlink:href="#e" x="226.027" y="114.626"/><use xlink:href="#n" x="230.899" y="114.626"/><use xlink:href="#y" x="235.99" y="114.626"/></g></svg>