<svg xmlns="http://www.w3.org/2000/svg" xmlns:xlink="http://www.w3.org/1999/xlink" width="255.944" height="127.928"><defs><path id="a" d="M4.14-1.39c0-.438-.202-.782-.546-1.063-.39-.281-.719-.344-1.485-.485-.375-.062-1.015-.171-1.015-.64 0-.625.922-.625 1.11-.625.75 0 1.124.297 1.171.844.016.156.031.203.234.203.235 0 .235-.047.235-.281v-.797c0-.188 0-.282-.172-.282-.047 0-.063 0-.453.188-.266-.125-.61-.188-1-.188-.313 0-1.844 0-1.844 1.313 0 .39.203.656.406.828.39.344.782.406 1.547.547.36.062 1.094.187 1.094.781 0 .75-.906.75-1.125.75C1.234-.297.984-1.03.859-1.453c-.046-.14-.109-.14-.234-.14-.25 0-.25.062-.25.28v1.094c0 .188 0 .282.188.282.062 0 .078 0 .296-.157l.25-.172c.47.329.985.329 1.188.329.312 0 1.844 0 1.844-1.454m0 0"/><path id="b" d="M3.813-1.234v-.532h-.47v.516c0 .672-.327.906-.609.906-.578 0-.578-.64-.578-.86v-2.75h1.469v-.468H2.156v-1.906h-.469c0 1-.484 1.984-1.484 2.016v.359h.828v2.734c0 1.063.86 1.282 1.578 1.282.75 0 1.204-.579 1.204-1.297m0 0"/><path id="c" d="M5.516-.234c0-.235-.125-.235-.266-.235-.61-.015-.61-.14-.61-.375v-2.14c0-.891-.702-1.532-2.187-1.532-.562 0-1.781.047-1.781.922 0 .438.344.625.61.625.312 0 .624-.219.624-.625 0-.297-.187-.469-.218-.5a5 5 0 0 1 .718-.062c.75 0 1.11.422 1.11 1.172v.343c-.72.032-3.25.125-3.25 1.563C.266-.125 1.5.062 2.188.062c.796 0 1.265-.406 1.484-.828 0 .313 0 .766 1.047.766h.468c.204 0 .329 0 .329-.234m-2-1.157c0 .97-.922 1.094-1.172 1.094-.516 0-.906-.344-.906-.797 0-1.062 1.578-1.203 2.078-1.234Zm0 0"/><path id="d" d="M4.406-3.672c0-.531-.531-.812-1.062-.812-.688 0-1.094.5-1.313 1.125v-1.125l-1.656.078v.468c.61 0 .688 0 .688.391v3.078H.375V0l1.25-.031C2-.031 2.641-.031 3 0v-.469h-.86v-1.75c0-.687.235-1.906 1.235-1.906 0 0-.187.172-.187.453 0 .406.328.61.609.61.297 0 .61-.204.61-.61m0 0"/><path id="e" d="M5.984-2.219c0-1.328-.906-2.265-2.343-2.265-.75 0-1.282.312-1.5.484v-.484l-1.766.078v.468c.61 0 .688 0 .688.376v5.03H.375v.47l1.25-.032 1.25.032v-.47h-.687V-.39a2 2 0 0 0 1.28.454c1.5 0 2.516-.907 2.516-2.282m-1.28 0C4.703-.813 4-.297 3.358-.297c-.14 0-.609 0-1.062-.547-.11-.125-.11-.14-.11-.328v-2.11c0-.187.016-.202.157-.343.39-.406.922-.469 1.14-.469.657 0 1.22.61 1.22 1.875m0 0"/><path id="f" d="M4.922 0v-.469h-1.39v-5.734c0-.234 0-.328-.266-.328-.11 0-.125 0-.22.078-.765.562-1.796.562-2 .562H.845v.47h.203c.156 0 .703-.016 1.297-.204v5.156H.954V0c.437-.031 1.5-.031 1.984-.031s1.546 0 1.984.031m0 0"/><path id="g" d="M2.844 0v-.469h-.61v-4.015L.5-4.406v.468c.594 0 .656 0 .656.391v3.078H.47V0l1.219-.031Zm-.469-6.047a.774.774 0 0 0-.781-.781.784.784 0 0 0-.782.781c0 .422.36.766.782.766a.77.77 0 0 0 .781-.766m0 0"/><path id="h" d="M5.563-3.953c0-.235-.172-.578-.625-.578-.157 0-.625.031-1.063.375-.172-.125-.594-.328-1.328-.328-1.438 0-1.985.78-1.985 1.468 0 .407.188.829.516 1.047-.281.36-.344.688-.344.89 0 .157.047.642.438.954-.125.031-.86.25-.86.875C.313 1.25.876 2 2.86 2 4.625 2 5.406 1.422 5.406.719c0-.297-.078-.922-.75-1.266-.562-.281-1.156-.281-2.11-.281-.265 0-.718 0-.765-.016a.625.625 0 0 1-.562-.625c0-.093.047-.25.11-.328.452.234.968.266 1.218.266 1.437 0 1.984-.782 1.984-1.485 0-.468-.25-.796-.406-.953.297-.156.516-.172.625-.187a.43.43 0 0 0-.047.203c0 .25.172.422.438.422a.41.41 0 0 0 .422-.422m-2.141.937c0 .454 0 1.125-.875 1.125s-.875-.671-.875-1.125c0-.437 0-1.109.875-1.109s.875.672.875 1.11M4.547.75c0 .36-.39.89-1.688.89-1.187 0-1.687-.452-1.687-.906 0-.609.625-.609.766-.609h1.171c.313 0 1.438 0 1.438.625m0 0"/><path id="i" d="M6.125 0v-.469h-.687v-2.578c0-1.047-.532-1.437-1.532-1.437a1.9 1.9 0 0 0-1.687.953v-3.39l-1.766.077v.469c.61 0 .688 0 .688.39v5.516H.453V0l1.25-.031L2.953 0v-.469h-.687v-2.078c0-1.094.859-1.578 1.5-1.578.328 0 .547.203.547.969V-.47h-.688V0l1.25-.031Zm0 0"/><path id="j" d="M4.922-1.172c0-.172-.188-.172-.234-.172-.172 0-.188.047-.25.203-.204.485-.782.797-1.422.797-1.407 0-1.422-1.328-1.422-1.828h3.015c.22 0 .313 0 .313-.265 0-.313-.063-1.047-.563-1.547-.359-.36-.89-.532-1.578-.532C1.187-4.516.313-3.484.313-2.25c0 1.344 1 2.313 2.609 2.313 1.578 0 2-1.063 2-1.235M3.984-2.5h-2.39c.015-.39.031-.812.234-1.14.266-.391.672-.516.953-.516 1.172 0 1.188 1.312 1.203 1.656m0 0"/><path id="k" d="M9.328 0v-.469h-.687v-2.578c0-1.031-.516-1.437-1.547-1.437-.907 0-1.422.5-1.688.953-.187-.922-1.11-.953-1.484-.953-.875 0-1.438.453-1.766 1.078v-1.078l-1.703.078v.468c.61 0 .688 0 .688.391v3.078H.453V0l1.25-.031L2.953 0v-.469h-.687v-2.078c0-1.094.875-1.578 1.5-1.578.328 0 .547.203.547.969V-.47h-.688V0l1.266-.031L6.14 0v-.469h-.688v-2.078c0-1.094.86-1.578 1.484-1.578.344 0 .563.203.563.969V-.47h-.687V0l1.25-.031Zm0 0"/><path id="l" d="M6.125 0v-.469h-.687v-2.578c0-1.047-.532-1.437-1.532-1.437-.953 0-1.484.562-1.75 1.078v-1.078l-1.703.078v.468c.61 0 .688 0 .688.391v3.078H.453V0l1.25-.031L2.953 0v-.469h-.687v-2.078c0-1.094.859-1.578 1.5-1.578.328 0 .547.203.547.969V-.47h-.688V0l1.25-.031Zm0 0"/><path id="m" d="M5.984 0v-.469c-.609 0-.687 0-.687-.39v-6.063l-1.766.078v.469c.625 0 .703 0 .703.39v1.954a2.18 2.18 0 0 0-1.359-.453c-1.453 0-2.5.875-2.5 2.28 0 1.313.922 2.267 2.39 2.267.61 0 1.094-.235 1.407-.485v.485ZM4.172-1.031c-.14.187-.547.734-1.297.734-1.219 0-1.219-1.203-1.219-1.906 0-.485 0-1.016.25-1.406.297-.422.766-.516 1.078-.516.563 0 .97.313 1.188.61Zm0 0"/><path id="n" d="M5.984 0v-.469h-.687V-4.53l-1.75.062-.016.047H2.078v-.984c0-.828.672-1.219 1.594-1.219.281 0 .5.063.719.188-.157.062-.438.234-.438.625 0 .39.297.656.656.656s.657-.25.657-.672c0-.516-.438-1.156-1.532-1.156-1.234 0-2.671.39-2.671 1.562v1h-.75v.469h.75V-.47H.375V0l1.219-.031L2.828 0v-.469h-.687v-3.484h1.78c.25 0 .313 0 .313.344v3.14h-.703V0l1.235-.031Zm0 0"/><path id="o" d="M5.156-2.219h-.468c-.032.203-.125.844-.266.906-.11.063-.86.063-1.016.063H1.937c.47-.39 1-.812 1.438-1.14 1.14-.844 1.781-1.313 1.781-2.25 0-1.157-1.047-1.891-2.437-1.891-1.219 0-2.156.625-2.156 1.515 0 .594.484.735.718.735C1.61-4.281 2-4.5 2-5c0-.516-.422-.672-.562-.719.28-.234.671-.343 1.03-.343.845 0 1.313.671 1.313 1.421 0 .688-.375 1.375-1.078 2.079l-2 2.046c-.14.11-.14.141-.14.344V0h4.28Zm0 0"/><path id="p" d="M3.813 2.344c0-.047-.032-.094-.032-.094-.297-.281-.937-.89-1.36-2.156-.265-.797-.374-1.703-.374-2.594 0-1.953.5-3.516 1.61-4.625.14-.156.155-.156.155-.219 0-.11-.109-.14-.187-.14-.172 0-.578.375-.766.547C1.313-5.391 1.08-3.562 1.08-2.5c0 1.25.327 2.344.796 3.172.656 1.14 1.563 1.812 1.75 1.812.078 0 .188-.03.188-.14m0 0"/><path id="q" d="M4.766-1.172c0-.14-.141-.14-.235-.14-.187 0-.187.03-.25.156-.25.625-.734.812-1.234.812-1.39 0-1.39-1.453-1.39-1.922 0-.562 0-1.843 1.28-1.843.36 0 .516.015.657.046a.62.62 0 0 0-.203.47c0 .437.343.624.609.624.313 0 .64-.219.64-.625 0-.86-1.156-.922-1.734-.922C1.11-4.516.375-3.375.375-2.219.375-.89 1.313.063 2.844.063c1.625 0 1.922-1.157 1.922-1.235m0 0"/><path id="r" d="M2.922 0v-.469h-.688v-6.453L.47-6.844v.469c.625 0 .687 0 .687.39v5.516H.47V0l1.219-.031Zm0 0"/><path id="s" d="M5.406-2.172c0-1.344-.922-2.344-2.547-2.344C1.22-4.516.313-3.5.313-2.172c0 1.235.89 2.235 2.546 2.235 1.672 0 2.547-1.016 2.547-2.235m-1.281-.11c0 .86 0 1.938-1.266 1.938-1.265 0-1.265-1.078-1.265-1.937 0-.453 0-.953.172-1.297.187-.375.609-.578 1.093-.578.422 0 .844.156 1.063.5.203.344.203.89.203 1.375m0 0"/><path id="t" d="M3.375-2.5c0-1.234-.328-2.328-.797-3.156C1.906-6.813 1-7.484.813-7.484c-.079 0-.172.03-.172.14 0 .063 0 .078.172.235C2.063-5.83 2.406-4.062 2.406-2.5c0 1.969-.515 3.531-1.61 4.64-.155.141-.155.157-.155.204 0 .11.093.14.172.14.171 0 .593-.375.765-.546C3.141.406 3.375-1.437 3.375-2.5m0 0"/></defs><path fill="none" stroke="red" stroke-miterlimit="10" stroke-width=".797" d="m29.68 114.93 56.695-28.348c0-56.695 56.691-28.348 113.387-28.348m-170.082 0h113.386L86.375 1.54Zm0 0"/><use xlink:href="#a" x=".585" y="124.974"/><use xlink:href="#b" x="5.108" y="124.974"/><use xlink:href="#c" x="9.561" y="124.974"/><use xlink:href="#d" x="15.13" y="124.974"/><use xlink:href="#b" x="19.853" y="124.974"/><use xlink:href="#e" x="28.122" y="124.974"/><use xlink:href="#c" x="34.488" y="124.974"/><use xlink:href="#d" x="40.057" y="124.974"/><use xlink:href="#b" x="44.779" y="124.974"/><use xlink:href="#f" x="53.048" y="124.974"/><use xlink:href="#a" x="61.547" y="111.189"/><use xlink:href="#b" x="66.07" y="111.189"/><use xlink:href="#d" x="70.523" y="111.189"/><use xlink:href="#c" x="75.246" y="111.189"/><use xlink:href="#g" x="80.815" y="111.189"/><use xlink:href="#h" x="83.993" y="111.189"/><use xlink:href="#i" x="89.721" y="111.189"/><use xlink:href="#b" x="95.769" y="111.189"/><use xlink:href="#a" x="104.038" y="111.189"/><use xlink:href="#j" x="108.561" y="111.189"/><use xlink:href="#h" x="113.811" y="111.189"/><use xlink:href="#k" x="119.54" y="111.189"/><use xlink:href="#j" x="129.084" y="111.189"/><use xlink:href="#l" x="134.334" y="111.189"/><use xlink:href="#b" x="140.381" y="111.189"/><use xlink:href="#j" x="89.893" y="89.068"/><use xlink:href="#l" x="95.143" y="89.068"/><use xlink:href="#m" x="101.509" y="89.068"/><use xlink:href="#n" x="111.691" y="89.068"/><use xlink:href="#d" x="118.057" y="89.068"/><use xlink:href="#a" x="122.78" y="89.068"/><use xlink:href="#b" x="127.303" y="89.068"/><use xlink:href="#a" x="135.572" y="89.068"/><use xlink:href="#j" x="140.095" y="89.068"/><use xlink:href="#h" x="145.345" y="89.068"/><use xlink:href="#k" x="151.074" y="89.068"/><use xlink:href="#j" x="160.618" y="89.068"/><use xlink:href="#l" x="165.868" y="89.068"/><use xlink:href="#b" x="171.915" y="89.068"/><use xlink:href="#j" x="203.279" y="60.726"/><use xlink:href="#l" x="208.529" y="60.726"/><use xlink:href="#m" x="214.895" y="60.726"/><use xlink:href="#e" x="225.077" y="60.726"/><use xlink:href="#c" x="231.443" y="60.726"/><use xlink:href="#d" x="237.012" y="60.726"/><use xlink:href="#b" x="241.735" y="60.726"/><use xlink:href="#f" x="250.004" y="60.726"/><use xlink:href="#e" x="118.24" y="23.888"/><use xlink:href="#c" x="124.606" y="23.888"/><use xlink:href="#d" x="130.175" y="23.888"/><use xlink:href="#b" x="134.898" y="23.888"/><use xlink:href="#o" x="143.167" y="23.888"/><use xlink:href="#p" x="152.711" y="23.888"/><use xlink:href="#q" x="157.164" y="23.888"/><use xlink:href="#r" x="162.255" y="23.888"/><use xlink:href="#s" x="165.433" y="23.888"/><use xlink:href="#a" x="171.162" y="23.888"/><use xlink:href="#j" x="175.685" y="23.888"/><use xlink:href="#m" x="180.935" y="23.888"/><use xlink:href="#t" x="187.301" y="23.888"/></svg>