<svg xmlns="http://www.w3.org/2000/svg" width="110.131" height="89.786"><defs><clipPath id="a"><path d="M0 0h109.695v89.68H0Zm0 0"/></clipPath></defs><g clip-path="url(#a)"><path fill="none" stroke="#000" stroke-miterlimit="10" stroke-width=".399" d="m.77 44.785 1.496-9.805 1.496-9.289 1.496-8.285 1.496-6.863L8.25 5.426l1.496-3.16 1.496-1.121 1.496.87L14.234 4.7l1.496 4.2 1.497 5.331 1.496 6.008 1.496 6.196 1.496 5.886 1.496 5.13 1.496 3.968 1.496 2.512 1.496.855 1.496-.855 1.496-2.512 1.497-3.969 1.496-5.129 1.496-5.886 1.496-6.196 1.496-6.008 1.496-5.332L41.164 4.7l1.496-2.683 1.492-.871 1.496 1.12 1.497 3.16 1.496 5.118 1.496 6.863 1.496 8.285 1.496 9.29 1.496 9.804 1.496 9.809 1.496 9.289 1.496 8.285 1.496 6.863 1.496 5.117 1.497 3.157 1.496 1.12 1.496-.87 1.496-2.68 1.496-4.2 1.496-5.331 1.496-6.008 1.496-6.195 1.496-5.891 1.496-5.129 1.496-3.969 1.497-2.507 1.496-.86 1.496.86 1.496 2.507 1.496 3.97 1.496 5.128 1.496 5.89 1.496 6.196 1.496 6.008 1.496 5.332 1.497 4.199 1.496 2.68 1.496.87 1.496-1.12 1.496-3.157 1.496-5.117 1.496-6.863 1.496-8.285 1.496-9.29 1.496-9.808"/></g></svg>