<svg xmlns="http://www.w3.org/2000/svg" width="224.84" height="87.464"><defs><clipPath id="a"><path d="M0 9h224.762v69H0Zm0 0"/></clipPath><clipPath id="b"><path d="M0 0h224.762v87.195H0Zm0 0"/></clipPath></defs><g clip-path="url(#a)"><path fill="none" stroke="#000" stroke-miterlimit="10" stroke-width=".399" d="M1.066 43.469C15.574 28.957 29.461 15.12 45.57 15.12c16.11 0 29.996 13.836 44.504 28.348s28.395 28.347 44.504 28.347c16.113 0 29.996-13.836 44.504-28.347 14.512-14.512 28.395-28.348 44.508-28.348"/></g><g clip-path="url(#b)"><path fill="none" stroke="red" stroke-miterlimit="10" stroke-width=".399" d="M1.066.95c16.11 0 29.997 20.75 44.504 42.519 14.508 21.77 28.395 42.52 44.504 42.52 16.11 0 29.996-20.75 44.504-42.52S162.973.949 179.082.949c16.113 0 29.996 20.75 44.508 42.52"/></g></svg>