<svg xmlns="http://www.w3.org/2000/svg" width="34.749" height="63.11"><defs><clipPath id="a"><path d="M0 0h34.625v62.664H0Zm0 0"/></clipPath></defs><g clip-path="url(#a)"><path fill="none" stroke="#000" stroke-miterlimit="10" stroke-width=".399" d="M5.066 59.457a1.993 1.993 0 1 0-3.986.002 1.993 1.993 0 0 0 3.986-.002Zm-1.992 0 28.348-28.348m1.992 0a1.993 1.993 0 0 0-3.984 0c0 1.102.89 1.996 1.992 1.996a1.996 1.996 0 0 0 1.992-1.996Zm-1.992 0V2.766m1.992 0a1.993 1.993 0 1 0-3.986.001 1.993 1.993 0 0 0 3.986-.001Zm0 0"/></g></svg>