<svg xmlns="http://www.w3.org/2000/svg" width="15.105" height="91.406"><defs><clipPath id="a"><path d="M0 0h14.656v91.11H0Zm0 0"/></clipPath></defs><g clip-path="url(#a)"><path fill="none" stroke="#000" stroke-miterlimit="10" stroke-width=".399" d="m.797.883 10.555 5.105m2.27 46.836s-3.716.586-4.985.45c-1.266-.137-3.2-.852-4.157-1.446-.96-.594-2.238-1.953-2.75-2.844-.515-.89-.96-2.59-.96-3.582 0-.996.445-2.691.96-3.582.512-.894 1.79-2.25 2.75-2.843.957-.594 2.891-1.309 4.157-1.446 1.27-.136 4.984.45 4.984.45m-2.27 46.835L.798 89.922"/></g></svg>