<svg xmlns="http://www.w3.org/2000/svg" width="41.876" height="74.252"><defs><clipPath id="a"><path d="M0 61h16v12.879H0Zm0 0"/></clipPath><clipPath id="b"><path d="M2 61h14v12.879H2Zm0 0"/></clipPath><clipPath id="c"><path d="M3 61h14v12.879H3Zm0 0"/></clipPath><clipPath id="d"><path d="M12 60h15v13.879H12Zm0 0"/></clipPath><clipPath id="e"><path d="M12 60h17v13.879H12Zm0 0"/></clipPath><clipPath id="f"><path d="M26 39h15.813v16H26Zm0 0"/></clipPath><clipPath id="g"><path d="M26 39h15.813v13H26Zm0 0"/></clipPath><clipPath id="h"><path d="M29 31h12.813v15H29Zm0 0"/></clipPath><clipPath id="i"><path d="M34 36h7.813v1H34Zm0 0"/></clipPath><clipPath id="j"><path d="M29 28h12.813v15H29Zm0 0"/></clipPath><clipPath id="k"><path d="M26 21h15.813v14H26Zm0 0"/></clipPath><clipPath id="l"><path d="M26 19h15.813v16H26Zm0 0"/></clipPath></defs><path fill="none" stroke="#000" stroke-miterlimit="10" stroke-width=".399" d="m1.117 36.746 11.34 19.64M12.457 56.387 9.523 67.34"/><g clip-path="url(#a)"><path fill="none" stroke="#000" stroke-miterlimit="10" stroke-width=".399" d="m9.523 67.34-4.007 4.008"/></g><g clip-path="url(#b)"><path fill="none" stroke="#000" stroke-miterlimit="10" stroke-width=".399" d="m9.523 67.34-1.468 5.476"/></g><g clip-path="url(#c)"><path fill="none" stroke="#000" stroke-miterlimit="10" stroke-width=".399" d="m9.523 67.34 1.47 5.476"/></g><path fill="none" stroke="#000" stroke-miterlimit="10" stroke-width=".399" d="m12.457 56.387 5.672 9.82M18.129 66.207v5.668"/><g clip-path="url(#d)"><path fill="none" stroke="#000" stroke-miterlimit="10" stroke-width=".399" d="m18.129 66.207 2.832 4.91"/></g><g clip-path="url(#e)"><path fill="none" stroke="#000" stroke-miterlimit="10" stroke-width=".399" d="m18.129 66.207 4.906 2.836"/></g><path fill="none" stroke="#000" stroke-miterlimit="10" stroke-width=".399" d="M12.457 56.387 23.41 59.32M23.41 59.32l4.008 4.012M23.41 59.32l5.477 1.47M23.41 59.32l5.477-1.465M1.117 36.746h22.68M23.797 36.746l8.015 8.02M31.813 44.766l1.468 5.476"/><g clip-path="url(#f)"><path fill="none" stroke="#000" stroke-miterlimit="10" stroke-width=".399" d="m31.813 44.766 4.011 4.007"/></g><g clip-path="url(#g)"><path fill="none" stroke="#000" stroke-miterlimit="10" stroke-width=".399" d="m31.813 44.766 5.476 1.468"/></g><path fill="none" stroke="#000" stroke-miterlimit="10" stroke-width=".399" d="M23.797 36.746h11.34"/><g clip-path="url(#h)"><path fill="none" stroke="#000" stroke-miterlimit="10" stroke-width=".399" d="m35.137 36.746 4.91 2.836"/></g><g clip-path="url(#i)"><path fill="none" stroke="#000" stroke-miterlimit="10" stroke-width=".399" d="M35.137 36.746h5.668"/></g><g clip-path="url(#j)"><path fill="none" stroke="#000" stroke-miterlimit="10" stroke-width=".399" d="m35.137 36.746 4.91-2.832"/></g><path fill="none" stroke="#000" stroke-miterlimit="10" stroke-width=".399" d="m23.797 36.746 8.015-8.016"/><g clip-path="url(#k)"><path fill="none" stroke="#000" stroke-miterlimit="10" stroke-width=".399" d="m31.813 28.73 5.476-1.468"/></g><g clip-path="url(#l)"><path fill="none" stroke="#000" stroke-miterlimit="10" stroke-width=".399" d="m31.813 28.73 4.011-4.007"/></g><path fill="none" stroke="#000" stroke-miterlimit="10" stroke-width=".399" d="m31.813 28.73 1.468-5.476M1.117 36.746l11.34-19.637M12.457 17.11l10.953-2.934M23.41 14.176l5.477 1.465M23.41 14.176l5.477-1.469M23.41 14.176l4.008-4.012M12.457 17.11l5.672-9.82M18.129 7.29l4.906-2.837M18.129 7.29l2.832-4.911M18.129 7.29V1.62M12.457 17.11 9.523 6.155M9.523 6.156 10.993.68M9.523 6.156 8.055.68M9.523 6.156 5.516 2.148"/></svg>