<svg xmlns="http://www.w3.org/2000/svg" xmlns:xlink="http://www.w3.org/1999/xlink" width="104.078" height="146.576"><defs><clipPath id="a"><path d="M.555 9h102.05v136.36H.555Zm0 0"/></clipPath><clipPath id="b"><path d="M.555 128h102.05v1H.555Zm0 0"/></clipPath><clipPath id="c"><path d="M51 0h1v145.36h-1Zm0 0"/></clipPath><clipPath id="d"><path d="M.555 37h102.05v108.36H.555Zm0 0"/></clipPath><clipPath id="g"><path d="M11 142h4v3.36h-4Zm0 0"/></clipPath><path id="e" d="M6.563-2.297c.171 0 .359 0 .359-.203 0-.187-.188-.187-.36-.187h-5.39c-.172 0-.344 0-.344.187 0 .203.172.203.344.203Zm0 0"/><path id="f" d="M2.328-4.437c0-.188 0-.188-.203-.188-.453.438-1.078.438-1.36.438v.25c.157 0 .626 0 1-.188v3.547c0 .234 0 .328-.687.328H.812V0c.125 0 .985-.031 1.235-.031.219 0 1.094.031 1.25.031v-.25H3.03c-.703 0-.703-.094-.703-.328Zm0 0"/><path id="h" d="M3.516-1.266H3.28c-.015.157-.094.563-.187.625-.047.047-.578.047-.688.047H1.125c.734-.64.984-.843 1.39-1.172.516-.406 1-.843 1-1.5 0-.843-.734-1.359-1.624-1.359-.86 0-1.453.61-1.453 1.25 0 .344.296.39.375.39.156 0 .359-.124.359-.374 0-.125-.047-.375-.406-.375.218-.485.687-.641 1.015-.641.703 0 1.063.547 1.063 1.11 0 .609-.438 1.078-.656 1.328L.516-.266C.437-.203.437-.187.437 0h2.876Zm0 0"/><path id="i" d="M2.938-6.375c0-.25 0-.266-.235-.266C2.078-6 1.203-6 .891-6v.313c.203 0 .78 0 1.297-.266v5.172c0 .36-.032.469-.922.469H.953V0c.344-.031 1.203-.031 1.61-.031.39 0 1.265 0 1.609.031v-.312h-.313c-.906 0-.921-.11-.921-.47Zm0 0"/></defs><g clip-path="url(#a)"><path fill="none" stroke="#7F7F7F" stroke-miterlimit="10" stroke-width=".199" d="M-67.477 213.39h238.114m-238.114-42.519h238.114m-238.114-42.52h238.114M-67.477 85.833h238.114m-238.114-42.52h238.114M-33.461 247.407V9.296m42.524 238.11V9.296m42.519 238.11V9.296m42.52 238.11V9.296m42.52 238.11V9.296"/></g><path fill="#CFC" stroke="#007F00" stroke-miterlimit="10" stroke-width=".399" d="M51.582 128.352h25.512c0-4.477-1.18-8.88-3.418-12.758Zm0 0"/><g clip-path="url(#b)"><path fill="none" stroke="#000" stroke-miterlimit="10" stroke-width=".399" d="M-75.98 128.352h254.722"/></g><g clip-path="url(#c)"><path fill="none" stroke="#000" stroke-miterlimit="10" stroke-width=".399" d="M51.582 255.91V1.188"/></g><path fill="none" stroke="#000" stroke-linecap="round" stroke-linejoin="round" stroke-miterlimit="10" stroke-width=".399" d="M49.191 3.063c1.434-.38 2.11-1.223 2.391-2.075.277.852.957 1.696 2.39 2.075"/><g clip-path="url(#d)"><path fill="none" stroke="#000" stroke-miterlimit="10" stroke-width=".399" d="M136.621 128.352c0-46.97-38.074-85.04-85.039-85.04-46.969 0-85.043 38.07-85.043 85.04 0 46.964 38.074 85.039 85.043 85.039 46.965 0 85.04-38.075 85.04-85.04Zm0 0"/></g><path fill="none" stroke="#000" stroke-miterlimit="10" stroke-width=".399" d="M9.063 125.363v5.977"/><use xlink:href="#e" x="2.006" y="143.276"/><use xlink:href="#f" x="10.95" y="139.354"/><path fill="none" stroke="#000" stroke-miterlimit="10" stroke-width=".398" d="M10.95 140.785h3.972"/><g clip-path="url(#g)"><use xlink:href="#h" x="10.95" y="146.712"/></g><path fill="none" stroke="#000" stroke-miterlimit="10" stroke-width=".399" d="M54.57 85.832h-5.976"/><use xlink:href="#f" x="39.906" y="84.399"/><path fill="none" stroke="#000" stroke-miterlimit="10" stroke-width=".398" d="M39.906 85.832h3.973"/><use xlink:href="#h" x="39.906" y="91.757"/><path fill="none" stroke="#000" stroke-miterlimit="10" stroke-width=".399" d="M54.57 43.313h-5.976"/><use xlink:href="#i" x="40.091" y="46.522"/></svg>