<svg xmlns="http://www.w3.org/2000/svg" width="92.594" height="64.856"><defs><clipPath id="a"><path d="M0 0h92.39v64.785H0Zm0 0"/></clipPath></defs><path fill="none" stroke="#000" stroke-miterlimit="10" stroke-width=".399" d="M3.578 60.887V4.195h85.04v56.692Zm0 0"/><g clip-path="url(#a)"><path fill="none" stroke="red" stroke-miterlimit="10" stroke-width=".399" d="m3.578 60.887-2.492-2.492 4.98-4.98-4.98-4.981 4.98-4.98-4.98-4.981 4.98-4.985-4.98-4.98 4.98-4.98-4.98-4.981 4.98-4.985-4.98-4.98 4.98-4.98 3.086-1.899 4.98 4.98 4.981-4.98 4.98 4.98 4.985-4.98 4.98 4.98 4.981-4.98 4.98 4.98L49 1.704l4.984 4.98 4.98-4.98 4.981 4.98 4.98-4.98 4.985 4.98 4.98-4.98 4.981 4.98 4.98-4.98-2.726 7.707 4.984 4.98-4.984 4.981 4.984 4.984-4.984 4.98 4.984 4.981-4.984 4.98 4.984 4.985-4.984 4.98 4.984 4.981-4.984 4.98-.824 4.157-4.985-4.984-4.98 4.984-4.98-4.984-4.981 4.984-4.984-4.984-4.98 4.984-4.981-4.984-4.98 4.984-4.985-4.984-4.98 4.984-4.981-4.984-4.98 4.984-4.981-4.984-4.984 4.984-4.98-4.984-2.493 2.492H3.578"/></g></svg>