<svg xmlns="http://www.w3.org/2000/svg" xmlns:xlink="http://www.w3.org/1999/xlink" width="93.764" height="58.898"><defs><path id="b" d="M5.25-1.719c-.062-.234-.187-.203-.328-.172-.578.157-.625.032-.688-.187l-.578-2.063c-.25-.859-1.11-1.28-2.531-.875-.547.157-1.703.532-1.469 1.375.125.422.516.5.766.438.297-.094.531-.375.422-.766-.078-.297-.297-.406-.328-.422a5 5 0 0 1 .656-.265c.719-.203 1.187.11 1.39.828l.094.328c-.687.219-3.093 1-2.703 2.39.266.907 1.5.766 2.172.579.766-.219 1.11-.735 1.203-1.203.078.297.203.734 1.219.453l.437-.14c.204-.048.329-.079.266-.298M3-2.297c.266.938-.578 1.313-.828 1.375-.485.14-.953-.078-1.078-.515-.297-1.032 1.187-1.594 1.64-1.75Zm0 0"/><path id="c" d="M5.828-2.625c-.094-1.312-1.094-2.187-2.547-2.078-.703.047-1.187.36-1.406.578l-.203-2.922-1.75.188.031.468c.61-.03.688-.046.703.344l.407 5.969.468-.031c.14-.188.297-.391.453-.594.079.078.594.594 1.485.531 1.469-.094 2.437-1.078 2.36-2.453m-1.281.094c.031.469.062 1.015-.156 1.422-.282.422-.72.562-1.032.593-.687.047-1.125-.484-1.234-.609l-.172-2.484c.266-.391.703-.703 1.235-.735C4.406-4.422 4.5-3.234 4.547-2.53m0 0"/><path id="d" d="m2.844.094.015-.469-.609-.016.125-4.015-1.734.015-.016.47c.594.015.656.015.64.405L1.173-.437.484-.453.47.016 1.688.03ZM2.578-5.97a.787.787 0 0 0-.765-.812.783.783 0 0 0-.797.765c-.016.422.328.766.75.782a.77.77 0 0 0 .812-.735m0 0"/><path id="e" d="M6.016-3.219c.03-.234-.094-.594-.547-.656a1.8 1.8 0 0 0-1.094.234c-.156-.14-.562-.39-1.281-.484-1.438-.187-2.063.531-2.156 1.219-.047.39.093.828.375 1.094C1-1.5.89-1.172.875-.97c-.031.14-.031.625.297.985C1.047.03.297.172.219.796c-.063.485.406 1.298 2.375 1.548 1.75.219 2.594-.25 2.672-.938.046-.297.046-.937-.578-1.36C4.172-.311 3.577-.39 2.64-.5c-.266-.047-.72-.094-.766-.125-.453-.11-.516-.484-.484-.672.015-.094.078-.25.156-.312.422.28.922.39 1.172.422 1.422.171 2.078-.532 2.156-1.22a1.4 1.4 0 0 0-.281-1.015c.312-.11.531-.094.656-.11a.33.33 0 0 0-.078.204c-.031.25.11.437.375.484.25.031.437-.14.469-.375m-2.25.672c-.047.438-.141 1.11-1 1-.875-.11-.782-.781-.735-1.219.063-.437.14-1.109 1.016-1 .86.11.781.782.719 1.22m.656 3.875c-.047.344-.5.828-1.781.656C1.453 1.844 1 1.313 1.063.875c.078-.61.703-.516.843-.5l1.157.14c.312.047 1.437.188 1.359.813m0 0"/><path id="f" d="m2.406 1.219 1.485-4.672-1.766-.5-.14.453c.171.047.374.125.5.172.187.125.156.234.093.453L1.375.891c-.156.468-.5 1.109-1.078.922-.156-.047-.219-.094-.344-.172.219-.079.328-.282.375-.407a.61.61 0 0 0-.406-.78C-.438.343-.75.53-.86.874c-.172.531.297 1.047 1.062 1.297.828.25 1.875.047 2.203-.953m1.969-6.172a.77.77 0 0 0-.5-.969.76.76 0 0 0-.969.5.78.78 0 0 0 .5.969.77.77 0 0 0 .969-.5m0 0"/><path id="g" d="m5.594 2.5.187-.422c-.562-.25-.625-.281-.453-.64l1.469-3.313-1.688-.656-.187.422c.547.25.625.28.469.64L4.609.266c-.328.75-1.015 1.015-1.671.734-.72-.328-.657-.578-.422-1.078L3.89-3.172l-1.688-.656-.187.422c.562.25.64.281.484.64L1.547-.64c-.438.97.187 1.5 1.11 1.907.218.093.874.39 1.624-.141l-.328.719Zm0 0"/><path id="h" d="m2.453 1.453.235-.406-.532-.313 2.047-3.453-1.516-.828-.234.406c.5.313.563.344.36.688L1.234.187.641-.171.406.234 1.47.828Zm2.672-5.437a.77.77 0 0 0-.266-1.078c-.359-.22-.843-.094-1.078.28a.784.784 0 0 0 .281 1.048c.375.218.86.109 1.063-.25m0 0"/><path id="i" d="M4.531 1.906c.078-.11-.031-.203-.11-.25-.155-.125-.171-.11-.296-.031-.578.36-1.078.203-1.469-.094-1.125-.828-.265-1.984.016-2.375.344-.437 1.11-1.469 2.14-.703.297.219.407.313.5.422-.265.031-.406.172-.453.25-.265.36-.093.703.125.86.25.187.641.218.891-.11.516-.687-.39-1.422-.86-1.766-1.437-1.078-2.702-.609-3.39.329C.828-.5 1.015.828 2.25 1.733c1.313.97 2.234.235 2.281.172m0 0"/><path id="j" d="M6.89 1.25 7.22.922A9 9 0 0 1 6.64.39l-.625-.657-.328.329s.328.343.25.421l-.11.047-2.547.922.985-2.797.375.375.328-.328-.89-.844-.782-.812-.328.328.437.438-1.437 4.14-.516.172C.97 2.297.266 2.578-.25 2.078c-.094-.11-.094-.125-.125-.219.094.047.344.11.594-.156.234-.234.219-.547-.016-.797C0 .72-.328.641-.609.922c-.344.36-.313.984.109 1.406.547.531 1.39.485 1.984.297L6.22.891c.14-.063.218-.079.672.359m0 0"/><path id="k" d="M3.016 4.61c.203-.11.14-.204.078-.329-.297-.547-.188-.61 0-.734l1.844-1.094c.765-.453.953-1.375.187-2.656-.281-.484-.937-1.5-1.687-1.063-.376.235-.376.625-.235.844.156.281.5.438.86.219.25-.14.312-.39.312-.438.188.22.375.485.438.579.375.656.187 1.171-.454 1.546l-.296.188c-.391-.594-1.766-2.719-3-1.984-.813.484-.344 1.64.015 2.218.406.688.984.89 1.453.86-.265.156-.656.39-.125 1.297l.25.39c.094.188.156.281.36.156M3 2.311c-.844.485-1.422-.234-1.547-.453-.266-.437-.172-.953.219-1.187.922-.547 1.844.75 2.125 1.156Zm0 0"/><path id="l" d="M4.297 4.719c1.219-.5 1.766-1.688 1.219-3.016C5.234 1.016 4.766.625 4.5.484l.453-.171-.734-1.625-.422.187c.234.563.25.64-.11.781L-.968 1.531l-.25-.64-.437.172.5 1.156.437 1.172.438-.172-.266-.64 1.719-.688c-.14.53-.094.968.062 1.343.563 1.391 1.782 2 3.063 1.485M3.828 3.53c-1.312.531-2.047.063-2.297-.531-.047-.125-.218-.562.11-1.187.062-.141.078-.157.265-.22L3.86.798c.172-.063.204-.047.375.015.532.204.782.688.86.891.25.61-.094 1.36-1.266 1.828m0 0"/><path id="m" d="M3.531 5.313c1.297-.297 2-1.407 1.672-2.797-.172-.735-.594-1.188-.812-1.36l.468-.11-.484-1.702-.453.11c.14.593.156.671-.203.75l-4.89 1.171-.157-.672-.469.11.313 1.203.25 1.234.468-.11-.156-.671L.875 2.03c-.219.5-.234.969-.14 1.36.343 1.453 1.468 2.25 2.796 1.922m-.297-1.25c-1.359.328-2.03-.235-2.171-.86-.047-.14-.141-.594.296-1.156.079-.14.094-.156.282-.188l2.047-.484c.187-.047.218-.031.39.078.469.281.656.781.703 1 .157.64-.312 1.328-1.547 1.61m0 0"/><path id="n" d="m.375 2.89.469-.062-.078-.672 6.39-.828-.312-1.75-.453.063c.078.609.093.672-.297.718l-5.469.72L.531.405.063.47.25 1.672Zm0 0"/><path id="o" d="M1.406 4.86c.172 0 .157-.188.157-.235 0-.172-.047-.187-.22-.234C.86 4.203.517 3.64.485 3 .422 1.594 1.75 1.516 2.25 1.484L2.39 4.5c.016.219.016.313.282.313.312-.016 1.047-.11 1.515-.641.344-.375.485-.922.454-1.61C4.578.97 3.5.156 2.266.204.922.266 0 1.313.078 2.922.156 4.5 1.234 4.875 1.406 4.859m1.282-1-.11-2.391c.39 0 .813 0 1.14.187.407.25.563.657.563.938.063 1.172-1.25 1.234-1.593 1.265m0 0"/><clipPath id="a"><path d="M0 9h92v49.848H0Zm0 0"/></clipPath></defs><path fill="none" stroke="#7F7F7F" stroke-miterlimit="10" stroke-width=".199" d="M1.098 57.734H86.14M1.098 29.387H86.14M1.098 1.05H86.14M1.098 57.734V1.04m28.347 56.695V1.04m28.348 56.695V1.04m28.336 56.695V1.04"/><g clip-path="url(#a)"><path fill="none" stroke="red" stroke-dasharray="2.98883 2.98883" stroke-miterlimit="10" stroke-width=".399" d="M1.098 57.734c0-56.695 85.043-56.695 85.043 0"/></g><use xlink:href="#b" x="28.12" y="17.74"/><use xlink:href="#c" x="37.252" y="15.533"/><use xlink:href="#d" x="43.611" y="15.187"/><use xlink:href="#e" x="46.797" y="15.233"/><use xlink:href="#f" x="56.197" y="16.877"/><use xlink:href="#g" x="59.564" y="17.867"/><use xlink:href="#h" x="65.339" y="20.553"/><use xlink:href="#i" x="68.104" y="22.135"/><use xlink:href="#j" x="72.227" y="25.145"/><use xlink:href="#k" x="78.863" y="32.449"/><use xlink:href="#l" x="81.738" y="37.238"/><use xlink:href="#m" x="84.119" y="43.158"/><use xlink:href="#n" x="85.503" y="49.375"/><use xlink:href="#o" x="85.955" y="52.528"/></svg>