<svg xmlns="http://www.w3.org/2000/svg" xmlns:xlink="http://www.w3.org/1999/xlink" width="33.752" height="58.7"><defs><path id="a" d="M4.469-2c0-1.187-.813-2.187-1.89-2.187-.47 0-.907.156-1.267.515v-1.953c.204.063.532.125.844.125 1.235 0 1.938-.906 1.938-1.031 0-.063-.032-.11-.11-.11 0 0-.03 0-.078.032a3.2 3.2 0 0 1-1.36.297c-.39 0-.858-.079-1.327-.282-.078-.031-.094-.031-.11-.031C1-6.625 1-6.547 1-6.391v2.954c0 .171 0 .25.14.25.079 0 .094-.016.141-.079.11-.156.469-.703 1.282-.703.515 0 .765.453.843.64.156.376.188.75.188 1.25 0 .36 0 .954-.25 1.376-.235.39-.61.64-1.063.64-.719 0-1.297-.53-1.469-1.109.032 0 .063.016.172.016.329 0 .5-.25.5-.485 0-.25-.171-.5-.5-.5-.14 0-.484.079-.484.532C.5-.75 1.188.219 2.297.219 3.453.219 4.469-.734 4.469-2m0 0"/><path id="b" d="M2.406-6.594c-.094-.218-.125-.218-.36-.218H.376v.312h.234c.766 0 .782.11.782.469v4.984c0 .266 0 .734-1.016.734V0c.344-.016.828-.031 1.156-.031S2.36-.016 2.703 0v-.312c-1.031 0-1.031-.47-1.031-.735v-5.375h.016L4.094-.219c.047.125.093.219.187.219.11 0 .14-.078.188-.187L6.922-6.5v5.719c0 .36-.016.469-.781.469h-.235V0c.36-.031 1.047-.031 1.438-.031.375 0 1.047 0 1.422.031v-.312h-.25c-.766 0-.782-.11-.782-.47v-5.25c0-.359.016-.468.782-.468h.25v-.312H7.078c-.266 0-.266.015-.328.187L4.563-1Zm0 0"/><path id="c" d="M6.75-1.61H6.5a3.7 3.7 0 0 1-.187.72c-.047.156-.079.25-.657.25H4.86c.141-.563.438-1.047.891-1.704.469-.703.875-1.39.875-2.187 0-1.375-1.344-2.5-3.031-2.5-1.703 0-3.031 1.14-3.031 2.5 0 .797.406 1.484.875 2.187.437.656.75 1.14.89 1.703h-.797c-.578 0-.61-.093-.656-.234-.094-.234-.14-.484-.187-.734h-.25L.766 0h1.593c.22 0 .25 0 .25-.203 0-.703-.312-1.578-.53-2.219-.22-.578-.5-1.36-.5-2.11 0-1.593 1.109-2.28 2.015-2.28.953 0 2.015.718 2.015 2.28 0 .75-.28 1.5-.562 2.313-.156.422-.469 1.328-.469 2.016 0 .203.031.203.25.203h1.594Zm0 0"/></defs><path fill="none" stroke="#000" stroke-miterlimit="10" stroke-width=".399" d="M1.074 15.25v27.895h6.977V15.25Zm0 0"/><use xlink:href="#a" x="11.768" y="32.602"/><use xlink:href="#b" x="16.749" y="32.602"/><use xlink:href="#c" x="25.882" y="32.602"/><path fill="none" stroke="#000" stroke-miterlimit="10" stroke-width=".399" d="M4.563 57.543v-14.2m0-28.292V.85"/></svg>