<svg xmlns="http://www.w3.org/2000/svg" xmlns:xlink="http://www.w3.org/1999/xlink" width="327.172" height="162.758"><defs><path id="b" d="M11.984-1.312c0-.25-.125-.297-.312-.297-.266 0-.281.109-.297.297-.078.703-.516 1.015-.922 1.015-.922 0-1.015-.969-1.125-2.281-.094-.766-.187-1.828-1.734-2.297C9.53-5.391 10-6.422 10-7.203c0-1.438-1.516-2.64-4.156-2.64H.547v.624h1.515v8.61H.548V0c.422-.031 1.906-.031 2.422-.031.515 0 2.015 0 2.437.031v-.61H3.891v-4.077h1.703c.578 0 1.031.171 1.343.546.438.485.438.797.438 1.766 0 .953 0 1.547.734 2.031.735.5 1.922.516 2.235.516 1.469 0 1.64-1.297 1.64-1.484M7.97-7.203c0 .797-.016 2.047-2.407 2.047H3.891V-9.22h1.703c2.343 0 2.375 1.172 2.375 2.016m0 0"/><path id="c" d="M7.61-3.14C7.61-5.079 6.28-6.5 4.03-6.5 1.688-6.5.438-5 .438-3.14.438-1.267 1.766.093 4.015.093c2.343 0 3.593-1.422 3.593-3.235m-1.735-.141c0 1.187 0 2.844-1.844 2.844-1.86 0-1.86-1.672-1.86-2.844 0-.672 0-1.39.267-1.906.312-.579.968-.844 1.578-.844.812 0 1.328.39 1.578.797.281.515.281 1.265.281 1.953m0 0"/><path id="d" d="M5.36-1.781v-.75h-.594v.734c0 .953-.438 1.36-.875 1.36-.86 0-.86-.954-.86-1.282V-5.75h2.063v-.625H3.03v-2.734h-.61C2.407-7.687 1.72-6.266.298-6.22v.469h1.172v3.984C1.469-.25 2.64.094 3.672.094c1.062 0 1.687-.813 1.687-1.875m0 0"/><path id="e" d="M6.719-1.672c0-.172-.157-.172-.313-.172-.218 0-.234 0-.312.188C6-1.391 5.609-.437 4.28-.437c-2.015 0-2.015-2.172-2.015-2.813 0-.86.015-2.734 1.89-2.734.11 0 .953.03.953.109 0 0-.015.016-.046.031a.9.9 0 0 0-.235.625c0 .594.5.844.86.844.296 0 .843-.187.843-.86C6.531-6.405 4.875-6.5 4.11-6.5 1.547-6.5.547-4.828.547-3.187c0 1.953 1.36 3.28 3.469 3.28 2.25 0 2.703-1.671 2.703-1.765m0 0"/><path id="f" d="M8.61 0v-.61h-1v-3.78c0-1.36-.579-2.063-2.157-2.063-1.031 0-1.922.5-2.406 1.578H3.03v-1.578l-2.422.11v.624c.875 0 .985 0 .985.563V-.61H.609V0c.329-.031 1.36-.031 1.75-.031.407 0 1.454 0 1.782.031v-.61h-.985v-3.062c0-1.547 1.14-2.312 2.063-2.312.531 0 .828.343.828 1.437v3.938h-.984V0c.328-.031 1.359-.031 1.765-.031s1.453 0 1.781.031m0 0"/><path id="g" d="M6.906-1.672c0-.219-.218-.219-.312-.219-.219 0-.235.047-.328.235-.375.922-1.313 1.219-2 1.219-2.078 0-2.094-1.922-2.094-2.735h4.312c.329 0 .422 0 .422-.36 0-.421-.11-1.5-.765-2.171-.61-.61-1.407-.797-2.235-.797C1.656-6.5.438-5.031.438-3.234.438-1.22 1.922.094 4.094.094c2.156 0 2.812-1.531 2.812-1.766M5.578-3.578H2.172c.015-.594.031-1.156.344-1.672a1.59 1.59 0 0 1 1.39-.781c1.531 0 1.656 1.734 1.672 2.453m0 0"/><path id="h" d="M8.406-3.203c0-1.969-1.328-3.25-3.265-3.25-.86 0-1.578.281-2.157.75v-.75L.5-6.343v.624c.89 0 .984 0 .984.563v7.328H.5v.61c.328-.032 1.36-.032 1.766-.032s1.453 0 1.78.031v-.61h-.984V-.593c.344.328.985.688 1.844.688 1.969 0 3.5-1.203 3.5-3.297m-1.719 0c0 2.078-1.03 2.812-1.953 2.812-.625 0-1.234-.312-1.671-.984v-3.64a2.33 2.33 0 0 1 1.843-.923c.938 0 1.782.844 1.782 2.735m0 0"/><path id="j" d="M7.64-2.266c0-.203-.077-.203-.25-.203-.124 0-.218 0-.218.172C7.094-.969 5.89-.359 4.89-.359c-.782 0-1.625-.235-2.141-.844-.469-.578-.594-1.313-.594-2.219 0-.562.031-1.625.672-2.297.64-.656 1.516-.765 2.031-.765 1.079 0 2.016.765 2.235 2.03.031.188.047.204.265.204.266 0 .282-.016.282-.281v-2.14c0-.188 0-.282-.188-.282-.094 0-.11.031-.187.094l-.657.593a3.03 3.03 0 0 0-1.968-.687c-2.485 0-4 1.484-4 3.531S2.156.11 4.64.11c1.875 0 3-1.218 3-2.375m0 0"/><path id="k" d="M6.125 0v-.469h-.687v-2.578c0-1.047-.532-1.437-1.532-1.437a1.9 1.9 0 0 0-1.687.953v-3.39l-1.766.077v.469c.61 0 .688 0 .688.39v5.516H.453V0l1.25-.031L2.953 0v-.469h-.687v-2.078c0-1.094.859-1.578 1.5-1.578.328 0 .547.203.547.969V-.47h-.688V0l1.25-.031Zm0 0"/><path id="l" d="M2.844 0v-.469h-.61v-4.015L.5-4.406v.468c.594 0 .656 0 .656.391v3.078H.47V0l1.219-.031Zm-.469-6.047a.774.774 0 0 0-.781-.781.784.784 0 0 0-.782.781c0 .422.36.766.782.766a.77.77 0 0 0 .781-.766m0 0"/><path id="m" d="M2.922 0v-.469h-.688v-6.453L.47-6.844v.469c.625 0 .687 0 .687.39v5.516H.47V0l1.219-.031Zm0 0"/><path id="n" d="M5.984 0v-.469c-.609 0-.687 0-.687-.39v-6.063l-1.766.078v.469c.625 0 .703 0 .703.39v1.954a2.18 2.18 0 0 0-1.359-.453c-1.453 0-2.5.875-2.5 2.28 0 1.313.922 2.267 2.39 2.267.61 0 1.094-.235 1.407-.485v.485ZM4.172-1.031c-.14.187-.547.734-1.297.734-1.219 0-1.219-1.203-1.219-1.906 0-.485 0-1.016.25-1.406.297-.422.766-.516 1.078-.516.563 0 .97.313 1.188.61Zm0 0"/><path id="o" d="M4.766-1.172c0-.14-.141-.14-.235-.14-.187 0-.187.03-.25.156-.25.625-.734.812-1.234.812-1.39 0-1.39-1.453-1.39-1.922 0-.562 0-1.843 1.28-1.843.36 0 .516.015.657.046a.62.62 0 0 0-.203.47c0 .437.343.624.609.624.313 0 .64-.219.64-.625 0-.86-1.156-.922-1.734-.922C1.11-4.516.375-3.375.375-2.219.375-.89 1.313.063 2.844.063c1.625 0 1.922-1.157 1.922-1.235m0 0"/><path id="p" d="M5.406-2.172c0-1.344-.922-2.344-2.547-2.344C1.22-4.516.313-3.5.313-2.172c0 1.235.89 2.235 2.546 2.235 1.672 0 2.547-1.016 2.547-2.235m-1.281-.11c0 .86 0 1.938-1.266 1.938-1.265 0-1.265-1.078-1.265-1.937 0-.453 0-.953.172-1.297.187-.375.609-.578 1.093-.578.422 0 .844.156 1.063.5.203.344.203.89.203 1.375m0 0"/><path id="q" d="M6.125 0v-.469h-.687v-2.578c0-1.047-.532-1.437-1.532-1.437-.953 0-1.484.562-1.75 1.078v-1.078l-1.703.078v.468c.61 0 .688 0 .688.391v3.078H.453V0l1.25-.031L2.953 0v-.469h-.687v-2.078c0-1.094.859-1.578 1.5-1.578.328 0 .547.203.547.969V-.47h-.688V0l1.25-.031Zm0 0"/><path id="r" d="M4.922-1.172c0-.172-.188-.172-.234-.172-.172 0-.188.047-.25.203-.204.485-.782.797-1.422.797-1.407 0-1.422-1.328-1.422-1.828h3.015c.22 0 .313 0 .313-.265 0-.313-.063-1.047-.563-1.547-.359-.36-.89-.532-1.578-.532C1.187-4.516.313-3.484.313-2.25c0 1.344 1 2.313 2.609 2.313 1.578 0 2-1.063 2-1.235M3.984-2.5h-2.39c.015-.39.031-.812.234-1.14.266-.391.672-.516.953-.516 1.172 0 1.188 1.312 1.203 1.656m0 0"/><path id="s" d="M5.984-2.219c0-1.328-.906-2.265-2.343-2.265-.75 0-1.282.312-1.5.484v-.484l-1.766.078v.468c.61 0 .688 0 .688.376v5.03H.375v.47l1.25-.032 1.25.032v-.47h-.687V-.39a2 2 0 0 0 1.28.454c1.5 0 2.516-.907 2.516-2.282m-1.28 0C4.703-.813 4-.297 3.358-.297c-.14 0-.609 0-1.062-.547-.11-.125-.11-.14-.11-.328v-2.11c0-.187.016-.202.157-.343.39-.406.922-.469 1.14-.469.657 0 1.22.61 1.22 1.875m0 0"/><path id="t" d="M3.813-1.234v-.532h-.47v.516c0 .672-.327.906-.609.906-.578 0-.578-.64-.578-.86v-2.75h1.469v-.468H2.156v-1.906h-.469c0 1-.484 1.984-1.484 2.016v.359h.828v2.734c0 1.063.86 1.282 1.578 1.282.75 0 1.204-.579 1.204-1.297m0 0"/><clipPath id="a"><path d="M0 0h189v162.637H0Zm0 0"/></clipPath><clipPath id="i"><path d="M205 7h121.758v148H205Zm0 0"/></clipPath></defs><path fill="#FF7F7F" d="M160.34 81.262c0-43.836-35.535-79.371-79.371-79.371S1.598 37.426 1.598 81.26c0 43.837 35.535 79.372 79.37 79.372 43.837 0 79.372-35.535 79.372-79.371m0 0"/><g clip-path="url(#a)"><path fill="none" stroke="#FF7F7F" stroke-miterlimit="10" stroke-width="1.993" d="M160.34 81.262c0-43.836-35.535-79.371-79.371-79.371S1.598 37.426 1.598 81.26c0 43.837 35.535 79.372 79.37 79.372 43.837 0 79.372-35.535 79.372-79.371Zm0 0"/></g><use xlink:href="#b" x="34.121" y="84.793"/><use xlink:href="#c" x="46.157" y="84.793"/><use xlink:href="#c" x="54.679" y="84.793"/><use xlink:href="#d" x="62.756" y="84.793"/><use xlink:href="#e" x="73.817" y="84.793"/><use xlink:href="#c" x="80.99" y="84.793"/><use xlink:href="#f" x="89.067" y="84.793"/><use xlink:href="#e" x="98.033" y="84.793"/><use xlink:href="#g" x="105.206" y="84.793"/><use xlink:href="#h" x="112.566" y="84.793"/><use xlink:href="#d" x="121.532" y="84.793"/><path fill="#FF7F7F" d="M324.754 81.262c0-25.047-20.309-45.356-45.356-45.356-25.05 0-45.355 20.309-45.355 45.356 0 25.05 20.305 45.355 45.355 45.355 25.047 0 45.356-20.305 45.356-45.355m0 0"/><g clip-path="url(#i)"><path fill="none" stroke="#FF7F7F" stroke-miterlimit="10" stroke-width="1.993" d="M324.754 81.262c0-25.047-20.309-45.356-45.356-45.356-25.05 0-45.355 20.309-45.355 45.356 0 25.05 20.305 45.355 45.355 45.355 25.047 0 45.356-20.305 45.356-45.355Zm0 0"/></g><use xlink:href="#j" x="244.879" y="83.769"/><use xlink:href="#k" x="253.158" y="83.769"/><use xlink:href="#l" x="259.524" y="83.769"/><use xlink:href="#m" x="262.702" y="83.769"/><use xlink:href="#n" x="265.88" y="83.769"/><use xlink:href="#o" x="275.564" y="83.769"/><use xlink:href="#p" x="280.655" y="83.769"/><use xlink:href="#q" x="286.383" y="83.769"/><use xlink:href="#o" x="292.749" y="83.769"/><use xlink:href="#r" x="297.84" y="83.769"/><use xlink:href="#s" x="303.091" y="83.769"/><use xlink:href="#t" x="309.457" y="83.769"/><path fill="#FF7F7F" d="M155.555 54.117a79.36 79.36 0 0 1 0 54.293c6.785-18.644 24.629-23.18 44.472-23.18v-7.937c-19.843 0-37.687-4.531-44.472-23.176m44.472 31.113h11.34v-7.937h-11.34Zm36.75-19.48a45.4 45.4 0 0 0 0 31.027c-3.879-10.656-14.074-11.547-25.41-11.547v-7.937c11.336 0 21.531-.887 25.41-11.543m0 0"/></svg>