<svg xmlns="http://www.w3.org/2000/svg" xmlns:xlink="http://www.w3.org/1999/xlink" width="342.56" height="144.132"><defs><path id="a" d="M4.922 0v-.469h-1.39v-5.734c0-.234 0-.328-.266-.328-.11 0-.125 0-.22.078-.765.562-1.796.562-2 .562H.845v.47h.203c.156 0 .703-.016 1.297-.204v5.156H.954V0c.437-.031 1.5-.031 1.984-.031s1.546 0 1.984.031m0 0"/><path id="b" d="M2.5-.312c0-.672-.344-1.25-.922-1.25-.469 0-.766.359-.766.78 0 .407.266.782.766.782a.84.84 0 0 0 .563-.203C2.047.89 1.406 1.422 1.203 1.594c-.062.047-.094.078-.094.14 0 .094.11.204.188.204.156 0 1.203-.86 1.203-2.25m0 0"/><path id="c" d="M5.156-2.219h-.468c-.032.203-.125.844-.266.906-.11.063-.86.063-1.016.063H1.937c.47-.39 1-.812 1.438-1.14 1.14-.844 1.781-1.313 1.781-2.25 0-1.157-1.047-1.891-2.437-1.891-1.219 0-2.156.625-2.156 1.515 0 .594.484.735.718.735C1.61-4.281 2-4.5 2-5c0-.516-.422-.672-.562-.719.28-.234.671-.343 1.03-.343.845 0 1.313.671 1.313 1.421 0 .688-.375 1.375-1.078 2.079l-2 2.046c-.14.11-.14.141-.14.344V0h4.28Zm0 0"/><path id="d" d="M5.25-1.797c0-.547-.297-1.406-1.734-1.719.687-.203 1.406-.765 1.406-1.625 0-.765-.75-1.39-2.156-1.39-1.188 0-1.97.64-1.97 1.437 0 .422.313.703.688.703a.67.67 0 0 0 .704-.687c0-.578-.547-.688-.579-.703.344-.282.782-.36 1.094-.36.828 0 .86.641.86.97 0 .124-.016 1.437-1.047 1.5-.407.015-.438.015-.485.03-.094.016-.125.11-.125.172 0 .172.11.172.282.172h.437c1.094 0 1.094.985 1.094 1.5 0 .469 0 1.485-1.031 1.485-.266 0-.782-.047-1.266-.344C1.75-.75 2-1 2-1.406c0-.453-.312-.75-.75-.75-.422 0-.766.265-.766.765 0 .907.97 1.5 2.25 1.5 1.782 0 2.516-1 2.516-1.906m0 0"/><path id="e" d="M5.406 0v-.469h-.968v-1.094h.968v-.468h-.968V-6.22c0-.265-.016-.328-.297-.328-.22 0-.22.016-.344.172L.313-2.031v.469h2.875V-.47h-1.11V0c.375-.031 1.281-.031 1.703-.031.406 0 1.266 0 1.625.031m-2.11-2.031H.845L3.297-5.11Zm0 0"/><path id="f" d="M5.156-2c0-1.156-.797-2.078-2.265-2.078-.282 0-.813.031-1.282.344v-1.313c.282.047.391.078.72.078 1.452 0 2.374-1.125 2.374-1.375 0-.078-.016-.187-.14-.187-.032 0-.032 0-.141.047a4.3 4.3 0 0 1-1.531.28c-.75 0-1.282-.202-1.547-.28-.094-.032-.094-.047-.125-.047-.14 0-.14.11-.14.265v2.922c0 .172 0 .297.218.297.125 0 .156-.031.219-.11.39-.468.922-.562 1.328-.562.89 0 .89.875.89 1.672 0 .735 0 1.735-1.187 1.735-.25 0-.875-.063-1.297-.625.36-.016.656-.266.656-.672 0-.532-.437-.672-.672-.672-.14 0-.671.094-.671.703 0 .844.78 1.687 2.015 1.687C4.172.11 5.156-.78 5.156-2m0 0"/><path id="g" d="M5.563-6.422H3.53c-.234 0-1.703-.047-1.844-.094-.203-.03-.218-.125-.234-.218H.984l-.343 2.53h.468c.094-.765.22-.89.266-.905.11-.063.922-.063 1.094-.063H4.14c-.172.219-.36.422-.547.64-.953 1.126-1.672 2.47-1.672 3.938 0 .703.562.703.625.703.156 0 .625-.046.625-.703v-.468c0-.47.031-.954.094-1.422.093-.672.297-1.25.656-1.657l1.547-1.796c.093-.11.093-.141.093-.485m0 0"/><path id="h" d="M5.25-1.86c0-1.077-.844-1.546-1.328-1.827.687-.36 1-.797 1-1.376 0-1.015-.906-1.468-2.047-1.468-1.375 0-2.078.797-2.078 1.75 0 .437.187 1.062.953 1.5C.922-2.906.484-2.344.484-1.61.484-.406 1.563.109 2.844.109 4.438.11 5.25-.766 5.25-1.859M4.172-5.046c0 .484-.25.813-.688 1.11l-1.5-.844c-.156-.078-.437-.25-.437-.594 0-.703.89-.766 1.297-.766.828 0 1.328.407 1.328 1.094m.219 3.734c0 .829-.938 1-1.516 1-.969 0-1.547-.515-1.547-1.296 0-.766.531-1.203.89-1.407l1.36.766c.438.25.813.453.813.938m0 0"/><path id="i" d="M5.25-3.281c0-.672 0-3.25-2.375-3.25-1.406 0-2.39.812-2.39 2.14 0 1.375.984 2.125 2.203 2.125.359 0 .828-.062 1.203-.765v.219c0 .734-.094 1.312-.235 1.656-.172.39-.61.843-1.297.843-.171 0-.53-.03-.828-.218.11-.031.485-.172.485-.625 0-.344-.235-.625-.625-.625-.391 0-.625.265-.625.64 0 .688.515 1.25 1.609 1.25C3.672.11 5.25-.734 5.25-3.28m-1.375-.985c0 .625-.25 1.641-1.094 1.641-.953 0-.953-.75-.953-1.734 0-.985 0-1.782 1.078-1.782.578 0 .813.532.86.625.109.329.109.907.109 1.25m0 0"/><path id="j" d="M5.281-3.187c0-.954-.015-3.344-2.422-3.344S.453-4.156.453-3.188c0 1 0 3.297 2.406 3.297 2.391 0 2.422-2.296 2.422-3.296M4-3.297c0 .563 0 1.469-.078 1.985-.14.921-.766 1.062-1.063 1.062-.359 0-.921-.219-1.046-.953-.094-.516-.094-1.547-.094-2.094 0-.719 0-1.375.078-1.89.125-.891.828-.985 1.062-.985.375 0 .782.188.97.625C4-5.172 4-4.109 4-3.297m0 0"/></defs><path fill="none" stroke="#000" stroke-miterlimit="10" stroke-width=".399" d="M.98 142.5v-28.348h28.348V142.5Zm0 0"/><use xlink:href="#a" x="7.835" y="130.622"/><use xlink:href="#b" x="13.564" y="130.622"/><use xlink:href="#a" x="16.742" y="130.622"/><path fill="none" stroke="#000" stroke-miterlimit="10" stroke-width=".399" d="M.98 114.152V85.805h28.348v28.347Zm0 0"/><use xlink:href="#a" x="7.835" y="102.275"/><use xlink:href="#b" x="13.564" y="102.275"/><use xlink:href="#c" x="16.742" y="102.275"/><path fill="none" stroke="#000" stroke-miterlimit="10" stroke-width=".399" d="M.98 85.805V57.457h28.348v28.348Zm0 0"/><use xlink:href="#a" x="7.835" y="73.929"/><use xlink:href="#b" x="13.564" y="73.929"/><use xlink:href="#d" x="16.742" y="73.929"/><path fill="none" stroke="#000" stroke-miterlimit="10" stroke-width=".399" d="M.98 57.457V29.113h28.348v28.344Zm0 0"/><use xlink:href="#a" x="7.835" y="45.587"/><use xlink:href="#b" x="13.564" y="45.587"/><use xlink:href="#e" x="16.742" y="45.587"/><path fill="none" stroke="#000" stroke-miterlimit="10" stroke-width=".399" d="M.98 29.113V.766h28.348v28.347Zm0 0"/><use xlink:href="#a" x="7.835" y="17.236"/><use xlink:href="#b" x="13.564" y="17.236"/><use xlink:href="#f" x="16.742" y="17.236"/><path fill="none" stroke="#000" stroke-miterlimit="10" stroke-width=".399" d="M29.328 142.5v-28.348h28.344V142.5Zm0 0"/><use xlink:href="#c" x="36.181" y="130.622"/><use xlink:href="#b" x="41.91" y="130.622"/><use xlink:href="#a" x="45.088" y="130.622"/><path fill="none" stroke="#000" stroke-miterlimit="10" stroke-width=".399" d="M29.328 114.152V85.805h28.344v28.347Zm0 0"/><use xlink:href="#c" x="36.181" y="102.275"/><use xlink:href="#b" x="41.91" y="102.275"/><use xlink:href="#c" x="45.088" y="102.275"/><path fill="none" stroke="#000" stroke-miterlimit="10" stroke-width=".399" d="M29.328 85.805V57.457h28.344v28.348Zm0 0"/><use xlink:href="#c" x="36.181" y="73.929"/><use xlink:href="#b" x="41.91" y="73.929"/><use xlink:href="#d" x="45.088" y="73.929"/><path fill="none" stroke="#000" stroke-miterlimit="10" stroke-width=".399" d="M29.328 57.457V29.113h28.344v28.344Zm0 0"/><use xlink:href="#c" x="36.181" y="45.587"/><use xlink:href="#b" x="41.91" y="45.587"/><use xlink:href="#e" x="45.088" y="45.587"/><path fill="none" stroke="#000" stroke-miterlimit="10" stroke-width=".399" d="M29.328 29.113V.766h28.344v28.347Zm0 0"/><use xlink:href="#c" x="36.181" y="17.236"/><use xlink:href="#b" x="41.91" y="17.236"/><use xlink:href="#f" x="45.088" y="17.236"/><path fill="none" stroke="#000" stroke-miterlimit="10" stroke-width=".399" d="M57.672 142.5v-28.348H86.02V142.5Zm0 0"/><use xlink:href="#d" x="64.528" y="130.622"/><use xlink:href="#b" x="70.257" y="130.622"/><use xlink:href="#a" x="73.435" y="130.622"/><path fill="none" stroke="#000" stroke-miterlimit="10" stroke-width=".399" d="M57.672 114.152V85.805H86.02v28.347Zm0 0"/><use xlink:href="#d" x="64.528" y="102.275"/><use xlink:href="#b" x="70.257" y="102.275"/><use xlink:href="#c" x="73.435" y="102.275"/><path fill="none" stroke="#000" stroke-miterlimit="10" stroke-width=".399" d="M57.672 85.805V57.457H86.02v28.348Zm0 0"/><use xlink:href="#d" x="64.528" y="73.929"/><use xlink:href="#b" x="70.257" y="73.929"/><use xlink:href="#d" x="73.435" y="73.929"/><path fill="none" stroke="#000" stroke-miterlimit="10" stroke-width=".399" d="M57.672 57.457V29.113H86.02v28.344Zm0 0"/><use xlink:href="#d" x="64.528" y="45.587"/><use xlink:href="#b" x="70.257" y="45.587"/><use xlink:href="#e" x="73.435" y="45.587"/><path fill="none" stroke="#000" stroke-miterlimit="10" stroke-width=".399" d="M57.672 29.113V.766H86.02v28.347Zm0 0"/><use xlink:href="#d" x="64.528" y="17.236"/><use xlink:href="#b" x="70.257" y="17.236"/><use xlink:href="#f" x="73.435" y="17.236"/><path fill="none" stroke="#000" stroke-miterlimit="10" stroke-width=".399" d="M86.02 142.5v-28.348h28.347V142.5Zm0 0"/><use xlink:href="#e" x="92.874" y="130.627"/><use xlink:href="#b" x="98.603" y="130.627"/><use xlink:href="#a" x="101.781" y="130.627"/><path fill="none" stroke="#000" stroke-miterlimit="10" stroke-width=".399" d="M86.02 114.152V85.805h28.347v28.347Zm0 0"/><use xlink:href="#e" x="92.874" y="102.28"/><use xlink:href="#b" x="98.603" y="102.28"/><use xlink:href="#c" x="101.781" y="102.28"/><path fill="none" stroke="#000" stroke-miterlimit="10" stroke-width=".399" d="M86.02 85.805V57.457h28.347v28.348Zm0 0"/><use xlink:href="#e" x="92.874" y="73.934"/><use xlink:href="#b" x="98.603" y="73.934"/><use xlink:href="#d" x="101.781" y="73.934"/><path fill="none" stroke="#000" stroke-miterlimit="10" stroke-width=".399" d="M86.02 57.457V29.113h28.347v28.344Zm0 0"/><use xlink:href="#e" x="92.874" y="45.587"/><use xlink:href="#b" x="98.603" y="45.587"/><use xlink:href="#e" x="101.781" y="45.587"/><path fill="none" stroke="#000" stroke-miterlimit="10" stroke-width=".399" d="M86.02 29.113V.766h28.347v28.347Zm0 0"/><use xlink:href="#e" x="92.874" y="17.241"/><use xlink:href="#b" x="98.603" y="17.241"/><use xlink:href="#f" x="101.781" y="17.241"/><path fill="none" stroke="#000" stroke-miterlimit="10" stroke-width=".399" d="M114.367 142.5v-28.348h28.348V142.5Zm0 0"/><use xlink:href="#f" x="121.221" y="130.622"/><use xlink:href="#b" x="126.95" y="130.622"/><use xlink:href="#a" x="130.128" y="130.622"/><path fill="none" stroke="#000" stroke-miterlimit="10" stroke-width=".399" d="M114.367 114.152V85.805h28.348v28.347Zm0 0"/><use xlink:href="#f" x="121.221" y="102.275"/><use xlink:href="#b" x="126.95" y="102.275"/><use xlink:href="#c" x="130.128" y="102.275"/><path fill="none" stroke="#000" stroke-miterlimit="10" stroke-width=".399" d="M114.367 85.805V57.457h28.348v28.348Zm0 0"/><use xlink:href="#f" x="121.221" y="73.929"/><use xlink:href="#b" x="126.95" y="73.929"/><use xlink:href="#d" x="130.128" y="73.929"/><path fill="none" stroke="#000" stroke-miterlimit="10" stroke-width=".399" d="M114.367 57.457V29.113h28.348v28.344Zm0 0"/><use xlink:href="#f" x="121.221" y="45.587"/><use xlink:href="#b" x="126.95" y="45.587"/><use xlink:href="#e" x="130.128" y="45.587"/><path fill="none" stroke="#000" stroke-miterlimit="10" stroke-width=".399" d="M114.367 29.113V.766h28.348v28.347Zm0 0"/><use xlink:href="#f" x="121.221" y="17.236"/><use xlink:href="#b" x="126.95" y="17.236"/><use xlink:href="#f" x="130.128" y="17.236"/><path fill="none" stroke="#000" stroke-miterlimit="10" stroke-width=".399" d="M171.059 142.5v-28.348h28.347V142.5Zm0 0"/><use xlink:href="#g" x="177.914" y="130.726"/><use xlink:href="#b" x="183.643" y="130.726"/><use xlink:href="#a" x="186.821" y="130.726"/><path fill="none" stroke="#000" stroke-miterlimit="10" stroke-width=".399" d="M171.059 114.152V85.805h28.347v28.347Zm0 0"/><use xlink:href="#g" x="177.914" y="102.38"/><use xlink:href="#b" x="183.643" y="102.38"/><use xlink:href="#c" x="186.821" y="102.38"/><path fill="none" stroke="#000" stroke-miterlimit="10" stroke-width=".399" d="M171.059 85.805V57.457h28.347v28.348Zm0 0"/><use xlink:href="#g" x="177.914" y="74.033"/><use xlink:href="#b" x="183.643" y="74.033"/><use xlink:href="#d" x="186.821" y="74.033"/><path fill="none" stroke="#000" stroke-miterlimit="10" stroke-width=".399" d="M171.059 57.457V29.113h28.347v28.344Zm0 0"/><use xlink:href="#g" x="177.914" y="45.687"/><use xlink:href="#b" x="183.643" y="45.687"/><use xlink:href="#e" x="186.821" y="45.687"/><path fill="none" stroke="#000" stroke-miterlimit="10" stroke-width=".399" d="M171.059 29.113V.766h28.347v28.347Zm0 0"/><use xlink:href="#g" x="177.914" y="17.34"/><use xlink:href="#b" x="183.643" y="17.34"/><use xlink:href="#f" x="186.821" y="17.34"/><path fill="none" stroke="#000" stroke-miterlimit="10" stroke-width=".399" d="M199.406 142.5v-28.348h28.348V142.5Zm0 0"/><use xlink:href="#h" x="206.26" y="130.622"/><use xlink:href="#b" x="211.989" y="130.622"/><use xlink:href="#a" x="215.167" y="130.622"/><path fill="none" stroke="#000" stroke-miterlimit="10" stroke-width=".399" d="M199.406 114.152V85.805h28.348v28.347Zm0 0"/><use xlink:href="#h" x="206.26" y="102.275"/><use xlink:href="#b" x="211.989" y="102.275"/><use xlink:href="#c" x="215.167" y="102.275"/><path fill="none" stroke="#000" stroke-miterlimit="10" stroke-width=".399" d="M199.406 85.805V57.457h28.348v28.348Zm0 0"/><use xlink:href="#h" x="206.26" y="73.929"/><use xlink:href="#b" x="211.989" y="73.929"/><use xlink:href="#d" x="215.167" y="73.929"/><path fill="none" stroke="#000" stroke-miterlimit="10" stroke-width=".399" d="M199.406 57.457V29.113h28.348v28.344Zm0 0"/><use xlink:href="#h" x="206.26" y="45.587"/><use xlink:href="#b" x="211.989" y="45.587"/><use xlink:href="#e" x="215.167" y="45.587"/><path fill="none" stroke="#000" stroke-miterlimit="10" stroke-width=".399" d="M199.406 29.113V.766h28.348v28.347Zm0 0"/><use xlink:href="#h" x="206.26" y="17.236"/><use xlink:href="#b" x="211.989" y="17.236"/><use xlink:href="#f" x="215.167" y="17.236"/><path fill="none" stroke="#000" stroke-miterlimit="10" stroke-width=".399" d="M227.754 142.5v-28.348h28.348V142.5Zm0 0"/><use xlink:href="#i" x="234.606" y="130.622"/><use xlink:href="#b" x="240.335" y="130.622"/><use xlink:href="#a" x="243.513" y="130.622"/><path fill="none" stroke="#000" stroke-miterlimit="10" stroke-width=".399" d="M227.754 114.152V85.805h28.348v28.347Zm0 0"/><use xlink:href="#i" x="234.606" y="102.275"/><use xlink:href="#b" x="240.335" y="102.275"/><use xlink:href="#c" x="243.513" y="102.275"/><path fill="none" stroke="#000" stroke-miterlimit="10" stroke-width=".399" d="M227.754 85.805V57.457h28.348v28.348Zm0 0"/><use xlink:href="#i" x="234.606" y="73.929"/><use xlink:href="#b" x="240.335" y="73.929"/><use xlink:href="#d" x="243.513" y="73.929"/><path fill="none" stroke="#000" stroke-miterlimit="10" stroke-width=".399" d="M227.754 57.457V29.113h28.348v28.344Zm0 0"/><use xlink:href="#i" x="234.606" y="45.587"/><use xlink:href="#b" x="240.335" y="45.587"/><use xlink:href="#e" x="243.513" y="45.587"/><path fill="none" stroke="#000" stroke-miterlimit="10" stroke-width=".399" d="M227.754 29.113V.766h28.348v28.347Zm0 0"/><use xlink:href="#i" x="234.606" y="17.236"/><use xlink:href="#b" x="240.335" y="17.236"/><use xlink:href="#f" x="243.513" y="17.236"/><path fill="none" stroke="#000" stroke-miterlimit="10" stroke-width=".399" d="M256.102 142.5v-28.348h28.347V142.5Zm0 0"/><use xlink:href="#a" x="260.089" y="130.622"/><use xlink:href="#j" x="265.818" y="130.622"/><use xlink:href="#b" x="271.546" y="130.622"/><use xlink:href="#a" x="274.724" y="130.622"/><path fill="none" stroke="#000" stroke-miterlimit="10" stroke-width=".399" d="M256.102 114.152V85.805h28.347v28.347Zm0 0"/><use xlink:href="#a" x="260.089" y="102.275"/><use xlink:href="#j" x="265.818" y="102.275"/><use xlink:href="#b" x="271.546" y="102.275"/><use xlink:href="#c" x="274.724" y="102.275"/><path fill="none" stroke="#000" stroke-miterlimit="10" stroke-width=".399" d="M256.102 85.805V57.457h28.347v28.348Zm0 0"/><use xlink:href="#a" x="260.089" y="73.929"/><use xlink:href="#j" x="265.818" y="73.929"/><use xlink:href="#b" x="271.546" y="73.929"/><use xlink:href="#d" x="274.724" y="73.929"/><path fill="none" stroke="#000" stroke-miterlimit="10" stroke-width=".399" d="M256.102 57.457V29.113h28.347v28.344Zm0 0"/><use xlink:href="#a" x="260.089" y="45.587"/><use xlink:href="#j" x="265.818" y="45.587"/><use xlink:href="#b" x="271.546" y="45.587"/><use xlink:href="#e" x="274.724" y="45.587"/><path fill="none" stroke="#000" stroke-miterlimit="10" stroke-width=".399" d="M256.102 29.113V.766h28.347v28.347Zm0 0"/><use xlink:href="#a" x="260.089" y="17.236"/><use xlink:href="#j" x="265.818" y="17.236"/><use xlink:href="#b" x="271.546" y="17.236"/><use xlink:href="#f" x="274.724" y="17.236"/><path fill="none" stroke="#000" stroke-miterlimit="10" stroke-width=".399" d="M284.45 142.5v-28.348h28.343V142.5Zm0 0"/><use xlink:href="#a" x="288.435" y="130.622"/><use xlink:href="#a" x="294.164" y="130.622"/><use xlink:href="#b" x="299.892" y="130.622"/><use xlink:href="#a" x="303.07" y="130.622"/><path fill="none" stroke="#000" stroke-miterlimit="10" stroke-width=".399" d="M284.45 114.152V85.805h28.343v28.347Zm0 0"/><use xlink:href="#a" x="288.435" y="102.275"/><use xlink:href="#a" x="294.164" y="102.275"/><use xlink:href="#b" x="299.892" y="102.275"/><use xlink:href="#c" x="303.07" y="102.275"/><path fill="none" stroke="#000" stroke-miterlimit="10" stroke-width=".399" d="M284.45 85.805V57.457h28.343v28.348Zm0 0"/><use xlink:href="#a" x="288.435" y="73.929"/><use xlink:href="#a" x="294.164" y="73.929"/><use xlink:href="#b" x="299.892" y="73.929"/><use xlink:href="#d" x="303.07" y="73.929"/><path fill="none" stroke="#000" stroke-miterlimit="10" stroke-width=".399" d="M284.45 57.457V29.113h28.343v28.344Zm0 0"/><use xlink:href="#a" x="288.435" y="45.587"/><use xlink:href="#a" x="294.164" y="45.587"/><use xlink:href="#b" x="299.892" y="45.587"/><use xlink:href="#e" x="303.07" y="45.587"/><path fill="none" stroke="#000" stroke-miterlimit="10" stroke-width=".399" d="M284.45 29.113V.766h28.343v28.347Zm0 0"/><use xlink:href="#a" x="288.435" y="17.236"/><use xlink:href="#a" x="294.164" y="17.236"/><use xlink:href="#b" x="299.892" y="17.236"/><use xlink:href="#f" x="303.07" y="17.236"/><path fill="none" stroke="#000" stroke-miterlimit="10" stroke-width=".399" d="M312.793 142.5v-28.348h28.348V142.5Zm0 0"/><use xlink:href="#a" x="316.782" y="130.622"/><use xlink:href="#c" x="322.511" y="130.622"/><use xlink:href="#b" x="328.239" y="130.622"/><use xlink:href="#a" x="331.417" y="130.622"/><path fill="none" stroke="#000" stroke-miterlimit="10" stroke-width=".399" d="M312.793 114.152V85.805h28.348v28.347Zm0 0"/><use xlink:href="#a" x="316.782" y="102.275"/><use xlink:href="#c" x="322.511" y="102.275"/><use xlink:href="#b" x="328.239" y="102.275"/><use xlink:href="#c" x="331.417" y="102.275"/><path fill="none" stroke="#000" stroke-miterlimit="10" stroke-width=".399" d="M312.793 85.805V57.457h28.348v28.348Zm0 0"/><use xlink:href="#a" x="316.782" y="73.929"/><use xlink:href="#c" x="322.511" y="73.929"/><use xlink:href="#b" x="328.239" y="73.929"/><use xlink:href="#d" x="331.417" y="73.929"/><path fill="none" stroke="#000" stroke-miterlimit="10" stroke-width=".399" d="M312.793 57.457V29.113h28.348v28.344Zm0 0"/><use xlink:href="#a" x="316.782" y="45.587"/><use xlink:href="#c" x="322.511" y="45.587"/><use xlink:href="#b" x="328.239" y="45.587"/><use xlink:href="#e" x="331.417" y="45.587"/><path fill="none" stroke="#000" stroke-miterlimit="10" stroke-width=".399" d="M312.793 29.113V.766h28.348v28.347Zm0 0"/><use xlink:href="#a" x="316.782" y="17.236"/><use xlink:href="#c" x="322.511" y="17.236"/><use xlink:href="#b" x="328.239" y="17.236"/><use xlink:href="#f" x="331.417" y="17.236"/></svg>