<svg xmlns="http://www.w3.org/2000/svg" xmlns:xlink="http://www.w3.org/1999/xlink" width="87.23" height="149.582"><defs><path id="b" d="M5.188-.375c0-.36-.282-.375-.47-.375-.28 0-.421-.031-.5-.062v-2.032c0-.719-.546-1.578-2-1.578-.437 0-1.484.031-1.484.781 0 .344.25.516.516.516.172 0 .5-.094.5-.531 0 0 .328-.016.484-.016.657 0 1.125.25 1.157.828-1.72.047-2.907.578-2.907 1.516 0 .703.625 1.39 1.672 1.39.36 0 .938-.078 1.406-.359.25.281.688.297 1.063.297.328 0 .563-.016.563-.375m-1.813-1c0 .188 0 .375-.328.531s-.75.156-.828.156c-.547 0-.922-.296-.922-.64 0-.438.781-.734 2.078-.781Zm0 0"/><path id="c" d="M4.5-1.312c0-.204 0-.438-.422-.438-.39 0-.406.234-.406.438 0 .53-.5.625-.719.625-.656 0-.656-.454-.656-.672v-2.235h1.515c.172 0 .47-.015.47-.375 0-.375-.282-.375-.47-.375H2.298v-.718c0-.22-.016-.47-.406-.47-.422 0-.422.235-.422.47v.718H.703c-.187 0-.469.016-.469.375 0 .36.282.375.454.375h.78v2.282c0 1 .688 1.375 1.454 1.375.75 0 1.578-.454 1.578-1.375m0 0"/><path id="d" d="M4.656-1.14c0-.329-.343-.344-.422-.344-.218 0-.312.03-.39.265-.203.453-.688.532-.938.532-.672 0-1.344-.422-1.515-1.172h2.797c.25 0 .468 0 .468-.438 0-1.14-.656-2.125-1.968-2.125-1.188 0-2.172 1-2.172 2.234C.516-.952 1.53.063 2.828.063c1.36 0 1.828-.937 1.828-1.203m-.86-1.454H1.392c.172-.625.687-1.078 1.297-1.078.468 0 1 .219 1.109 1.078m0 0"/><path id="e" d="M5.11-.375c0-.36-.282-.375-.47-.375h-.343v-2.172c0-1.031-.531-1.469-1.344-1.469-.562 0-.953.22-1.203.407 0-.25-.078-.36-.469-.36H.578c-.187 0-.469.016-.469.375 0 .36.297.375.454.375h.359V-.75H.578C.391-.75.11-.734.11-.375c0 .36.297.375.454.375h1.546c.172 0 .47-.016.47-.375 0-.36-.282-.375-.47-.375H1.75v-1.64c0-.907.688-1.266 1.14-1.266.47 0 .579.25.579.781V-.75h-.297c-.188 0-.485.016-.485.375 0 .36.313.375.485.375h1.484c.157 0 .453-.016.453-.375m0 0"/><path id="f" d="M5.125-.375c0-.36-.297-.375-.469-.375h-.36v-4.86c0-.359-.062-.484-.468-.484h-.703c-.187 0-.484.016-.484.375 0 .36.297.375.468.375h.36v1.297a1.73 1.73 0 0 0-1.063-.344c-1.094 0-2.062.938-2.062 2.235C.344-.922 1.25.063 2.328.063c.485 0 .86-.204 1.14-.454.016.282.079.391.47.391h.703c.187 0 .484-.016.484-.375M3.453-1.969c0 .516-.406 1.282-1.094 1.282-.671 0-1.203-.657-1.203-1.47 0-.89.64-1.5 1.282-1.5.578 0 1.015.5 1.015 1Zm0 0"/><path id="g" d="M5-3.969c0-.375-.281-.375-.469-.375H3.406c-.187 0-.469.016-.469.36 0 .375.266.39.47.39h.155L2.61-.78l-.937-2.813h.156c.172 0 .469-.015.469-.375 0-.375-.281-.375-.469-.375H.688c-.188 0-.47 0-.47.375 0 .36.298.375.47.375h.234l1.11 3.25c.124.39.343.39.577.39.22 0 .47-.015.594-.39l1.094-3.25h.234c.188 0 .469-.015.469-.375m0 0"/><path id="h" d="M4.875-3.719c0-.219-.125-.672-1-.672-.469 0-1.047.141-1.578.657v-.141c0-.36-.063-.469-.469-.469H.766c-.172 0-.47.016-.47.36 0 .375.282.39.47.39h.703V-.75H.766c-.172 0-.47.016-.47.375 0 .36.282.375.47.375h2.53c.188 0 .485-.016.485-.375 0-.36-.297-.375-.484-.375h-1v-1.14c0-.844.531-1.735 1.594-1.766 0 .25.234.422.5.422.25 0 .484-.172.484-.485m0 0"/><path id="i" d="M5-3.969c0-.375-.281-.375-.469-.375H3.406c-.187 0-.469.016-.469.36 0 .375.266.39.47.39h.155L2.704-1 1.72-3.594h.125c.187 0 .468-.015.468-.375 0-.375-.28-.375-.468-.375H.704c-.188 0-.47 0-.47.375 0 .36.297.375.47.375h.25L2.358-.078C2.313.032 2.11.734 2 .953c-.203.375-.516.61-.703.61.016-.047.11-.079.11-.235 0-.281-.204-.484-.5-.484-.313 0-.5.203-.5.484 0 .453.359.89.874.89 1 0 1.485-1.327 1.532-1.437l1.484-4.375h.234c.188 0 .469-.015.469-.375m0 0"/><path id="j" d="M5.203-.375c0-.328-.187-.375-.547-.375v-2.266c0-.218-.015-1.375-.953-1.375-.281 0-.656.11-.937.438a.83.83 0 0 0-.75-.438q-.446 0-.797.282c-.063-.235-.25-.235-.438-.235H.484c-.187 0-.484.016-.484.36 0 .328.188.39.547.39V-.75C.187-.75 0-.703 0-.375 0-.015.313 0 .484 0h.844c.172 0 .453-.016.453-.375 0-.328-.172-.375-.531-.375v-1.656c0-.797.344-1.25.719-1.25.187 0 .281.172.281.719V-.75c-.203.016-.39.063-.39.375 0 .36.28.375.437.375h.734c.172 0 .453-.016.453-.375 0-.328-.171-.375-.53-.375v-1.656c0-.797.343-1.25.718-1.25.203 0 .281.172.281.719V-.75c-.203.016-.39.063-.39.375 0 .36.28.375.437.375h.719c.187 0 .484-.016.484-.375m0 0"/><path id="k" d="M4.563-.375c0-.36-.297-.375-.47-.375h-.937v-3.125c0-.36-.078-.469-.469-.469H1.314c-.188 0-.485.016-.485.36 0 .375.297.39.485.39h1.015V-.75h-1.11c-.187 0-.468.016-.468.375 0 .36.297.375.469.375h2.875c.172 0 .468-.016.468-.375m-1.375-5.11a.56.56 0 0 0-.563-.562.564.564 0 0 0-.578.563c0 .328.25.562.578.562a.55.55 0 0 0 .563-.562m0 0"/><path id="l" d="M5.078-3.984c0-.344-.266-.36-.484-.36h-1.11c-.218 0-.5.016-.5.36 0 .375.266.39.5.39h.375L3.438-1.14l-.188-.75c-.187-.687-.25-.78-.625-.78-.11 0-.328 0-.453.265l-.375 1.281-.438-2.469h.391c.219 0 .484-.015.484-.375s-.265-.375-.484-.375H.625c-.203 0-.484.016-.484.36s.203.39.5.39l.578 3.188c.047.281.093.453.531.453s.484-.094.64-.75l.25-.906.376 1.437c.14.203.343.219.484.219.422 0 .453-.188.5-.453l.578-3.188c.313 0 .5-.047.5-.39m0 0"/><path id="m" d="M4.61-1.297c0-1.062-1.313-1.281-1.641-1.328l-1-.187c-.266-.063-.532-.172-.532-.391 0-.235.313-.469 1.157-.469.719 0 .86.235.89.469.016.187.047.39.407.39.422 0 .422-.234.422-.468v-.672c0-.188-.016-.469-.36-.469-.219 0-.297.078-.344.172-.421-.172-.812-.172-1-.172-1.703 0-1.921.86-1.921 1.219 0 .937 1.046 1.125 1.984 1.265.437.079 1.187.188 1.187.641 0 .344-.343.61-1.171.61-.422 0-.938-.094-1.157-.813-.062-.219-.11-.328-.422-.328-.406 0-.421.234-.421.469v.937c0 .188.015.485.375.485.093 0 .265 0 .39-.329.469.313.953.329 1.235.329 1.593 0 1.921-.875 1.921-1.36m0 0"/><clipPath id="a"><path d="M17 0h59v149.371H17Zm0 0"/></clipPath></defs><g clip-path="url(#a)"><path fill="none" stroke="#000" stroke-miterlimit="10" stroke-width=".399" d="M41.902 145.586c0-56.691-56.695-141.734 28.344-141.734"/></g><use xlink:href="#b" x="54.556" y="6.869"/><use xlink:href="#c" x="59.786" y="6.869"/><use xlink:href="#d" x="70.247" y="6.869"/><use xlink:href="#e" x="75.478" y="6.869"/><use xlink:href="#f" x="80.708" y="6.869"/><use xlink:href="#g" x="10.617" y="9.558"/><use xlink:href="#d" x="15.847" y="9.558"/><use xlink:href="#h" x="21.078" y="9.558"/><use xlink:href="#i" x="26.308" y="9.558"/><use xlink:href="#e" x="36.769" y="9.558"/><use xlink:href="#d" x="41.999" y="9.558"/><use xlink:href="#b" x="47.23" y="9.558"/><use xlink:href="#h" x="52.46" y="9.558"/><use xlink:href="#d" x="62.921" y="9.558"/><use xlink:href="#e" x="68.151" y="9.558"/><use xlink:href="#f" x="73.382" y="9.558"/><use xlink:href="#e" x="9.021" y="21.042"/><use xlink:href="#d" x="14.251" y="21.042"/><use xlink:href="#b" x="19.482" y="21.042"/><use xlink:href="#h" x="24.712" y="21.042"/><use xlink:href="#d" x="35.173" y="21.042"/><use xlink:href="#e" x="40.403" y="21.042"/><use xlink:href="#f" x="45.634" y="21.042"/><use xlink:href="#j" x="8.493" y="55.399"/><use xlink:href="#k" x="13.723" y="55.399"/><use xlink:href="#f" x="18.954" y="55.399"/><use xlink:href="#l" x="24.184" y="55.399"/><use xlink:href="#b" x="29.415" y="55.399"/><use xlink:href="#i" x="34.645" y="55.399"/><use xlink:href="#e" x="8.22" y="102.259"/><use xlink:href="#d" x="13.45" y="102.259"/><use xlink:href="#b" x="18.681" y="102.259"/><use xlink:href="#h" x="23.911" y="102.259"/><use xlink:href="#m" x="34.372" y="102.259"/><use xlink:href="#c" x="39.602" y="102.259"/><use xlink:href="#b" x="44.833" y="102.259"/><use xlink:href="#h" x="50.063" y="102.259"/><use xlink:href="#c" x="55.293" y="102.259"/><use xlink:href="#g" x=".403" y="124.879"/><use xlink:href="#d" x="5.633" y="124.879"/><use xlink:href="#h" x="10.864" y="124.879"/><use xlink:href="#i" x="16.094" y="124.879"/><use xlink:href="#e" x="26.555" y="124.879"/><use xlink:href="#d" x="31.785" y="124.879"/><use xlink:href="#b" x="37.016" y="124.879"/><use xlink:href="#h" x="42.246" y="124.879"/><use xlink:href="#m" x="52.707" y="124.879"/><use xlink:href="#c" x="57.937" y="124.879"/><use xlink:href="#b" x="63.168" y="124.879"/><use xlink:href="#h" x="68.398" y="124.879"/><use xlink:href="#c" x="73.628" y="124.879"/><use xlink:href="#b" x="20.98" y="148.322"/><use xlink:href="#c" x="26.21" y="148.322"/><use xlink:href="#m" x="36.671" y="148.322"/><use xlink:href="#c" x="41.902" y="148.322"/><use xlink:href="#b" x="47.132" y="148.322"/><use xlink:href="#h" x="52.362" y="148.322"/><use xlink:href="#c" x="57.593" y="148.322"/></svg>