<svg xmlns="http://www.w3.org/2000/svg" width="87.256" height="75.296"><defs><clipPath id="a"><path d="M9 37h55v37.945H9Zm0 0"/></clipPath></defs><path fill="none" stroke="#7F7F7F" stroke-miterlimit="10" stroke-width=".199" d="M.738 71.73h85.04M.737 43.383h85.04M.737 15.047h85.04M.737 71.73V15.04m28.344 56.69V15.04M57.43 71.73V15.04m28.336 56.69V15.04"/><path fill="#7F7F7F" d="M45.469 17.25c0-7.828-6.344-14.176-14.172-14.176S17.12 9.422 17.12 17.25s6.348 14.172 14.176 14.172 14.172-6.344 14.172-14.172m14.172 0c0-7.828-6.344-14.176-14.172-14.176S31.297 9.422 31.297 17.25s6.344 14.172 14.172 14.172S59.64 25.078 59.64 17.25m0 0"/><path fill="#FFF" stroke="#000" stroke-miterlimit="10" stroke-width=".399" d="M43.258 15.04C43.258 7.21 36.91.862 29.082.862 21.258.863 14.91 7.211 14.91 15.04c0 7.824 6.348 14.172 14.172 14.172 7.828 0 14.176-6.348 14.176-14.172Zm14.172 0C57.43 7.21 51.086.862 43.258.862S29.082 7.211 29.082 15.04c0 7.824 6.348 14.172 14.176 14.172S57.43 22.863 57.43 15.039Zm0 0"/><path fill="#7F7F7F" fill-opacity=".25" d="M45.469 59.77c0-7.829-6.344-14.172-14.172-14.172S17.12 51.94 17.12 59.77c0 7.828 6.348 14.171 14.176 14.171s14.172-6.343 14.172-14.171m14.172 0c0-7.829-6.344-14.172-14.172-14.172S31.297 51.94 31.297 59.77c0 7.828 6.344 14.171 14.172 14.171S59.64 67.598 59.64 59.77m0 0"/><path fill="#FFF" d="M43.258 57.559c0-7.829-6.348-14.176-14.176-14.176-7.824 0-14.172 6.347-14.172 14.176S21.258 71.73 29.082 71.73c7.828 0 14.176-6.343 14.176-14.171m14.172 0c0-7.829-6.344-14.176-14.172-14.176S29.082 49.73 29.082 57.559 35.43 71.73 43.258 71.73 57.43 65.387 57.43 57.56m0 0"/><g clip-path="url(#a)"><path fill="none" stroke="#000" stroke-miterlimit="10" stroke-width=".399" d="M43.258 57.559c0-7.829-6.348-14.176-14.176-14.176-7.824 0-14.172 6.347-14.172 14.176S21.258 71.73 29.082 71.73c7.828 0 14.176-6.343 14.176-14.171Zm14.172 0c0-7.829-6.344-14.176-14.172-14.176S29.082 49.73 29.082 57.559 35.43 71.73 43.258 71.73 57.43 65.387 57.43 57.56Zm0 0"/></g></svg>