<svg xmlns="http://www.w3.org/2000/svg" width="97.66" height="63.38"><defs><clipPath id="a"><path d="M33 47h21v16.07H33Zm0 0"/></clipPath><clipPath id="b"><path d="M70 13h27.488v33H70Zm0 0"/></clipPath></defs><g clip-path="url(#a)"><path fill="none" stroke="#000" stroke-miterlimit="10" stroke-width=".399" d="M39 61.742v-8.719l8.52 4.36Zm0 0"/></g><path fill="none" stroke="#000" stroke-miterlimit="10" stroke-width=".399" d="M39 57.383h8.719M47.719 61.742v-8.719M41.965 48.293l5.137-5.137"/><path stroke="#000" stroke-linejoin="round" stroke-miterlimit="10" stroke-width=".39899601" d="m45.285 43.398 2.844-1.27-1.27 2.845Zm0 0"/><path fill="none" stroke="#000" stroke-miterlimit="10" stroke-width=".399" d="m44.754 51.082 5.137-5.137"/><path stroke="#000" stroke-linejoin="round" stroke-miterlimit="10" stroke-width=".39899601" d="m48.074 46.187 2.844-1.269-1.27 2.844Zm0 0"/><path fill="none" stroke="#000" stroke-miterlimit="10" stroke-width=".399" d="M82.39 15.09v27.894h6.977V15.09Zm0 0"/><g clip-path="url(#b)"><path fill="none" stroke="#000" stroke-miterlimit="10" stroke-width=".399" d="m96.34 39.496-19.895-19.89"/></g><path stroke="#000" stroke-linejoin="round" stroke-miterlimit="10" stroke-width=".39899601" d="m76.687 21.422-1.269-2.848 2.844 1.27Zm0 0"/><path fill="none" stroke="#000" stroke-miterlimit="10" stroke-width=".399" d="M.84 57.383H38.8m9.118 0h37.96v-14.2m0-28.292V.69"/></svg>