<svg xmlns="http://www.w3.org/2000/svg" width="100.928" height="100.91"><defs><clipPath id="a"><path d="M0 0h100.89v100.863H0Zm0 0"/></clipPath></defs><g clip-path="url(#a)"><path fill="none" stroke="#000" stroke-miterlimit="10" stroke-width=".399" d="m15.93 99.668 83.75-14.766m-84.735 9.184 83.75-14.766m-84.734 9.184 83.75-14.77m-84.734 9.184 83.75-14.766m-84.735 9.184 83.75-14.766m-84.734 9.184 83.75-14.77m-84.735 9.184 83.75-14.766M9.04 60.586 92.79 45.82M8.055 55.004l83.75-14.77M7.07 49.418l83.75-14.766M6.086 43.836l83.75-14.766M5.102 38.254l83.75-14.77M4.117 32.668l83.75-14.766M3.133 27.086l83.75-14.766M2.148 21.504l83.75-14.77M1.164 15.918l83.75-14.766M15.93 99.668 1.164 15.918m17.559 83.258-14.77-83.75m17.559 83.258L6.746 14.934M24.305 98.19 9.539 14.441M27.098 97.7l-14.77-83.75m17.559 83.258L15.12 13.457M32.68 96.715l-14.766-83.75m17.559 83.258-14.77-83.75M38.262 95.73 23.496 11.98m17.559 83.258-14.766-83.75m17.559 83.258-14.77-83.75m17.559 83.258L31.87 10.504M49.43 93.762l-14.766-83.75M52.223 93.27 37.453 9.52m17.559 83.257L40.246 9.027m17.559 83.258L43.039 8.535m17.559 83.258-14.77-83.75m17.559 83.258L48.62 7.55M66.18 90.809 51.414 7.059m17.559 83.257-14.77-83.75m17.559 83.258L56.996 6.074m17.559 83.258L59.789 5.582M77.348 88.84 62.578 5.09m17.559 83.258L65.37 4.598M82.93 87.855 68.164 4.105m17.559 83.258-14.77-83.75m17.559 83.258L73.746 3.121M91.305 86.38 76.539 2.629m17.555 83.258L79.328 2.137m17.559 83.258L82.12 1.645M99.68 84.902 84.91 1.152"/></g></svg>