<svg xmlns="http://www.w3.org/2000/svg" xmlns:xlink="http://www.w3.org/1999/xlink" width="48.926" height="48.073"><defs><clipPath id="b"><path d="M7 0h41.89v42H7Zm0 0"/></clipPath><clipPath id="c"><path d="M18 0h30.89v30H18Zm0 0"/></clipPath><path id="a" d="M8.25 0v-.469h-.969L4.72-6.703c-.11-.25-.219-.25-.39-.25-.282 0-.329.078-.391.25l-2.47 6c-.062.156-.093.234-.843.234H.406V0l1.172-.031c.39 0 .938 0 1.313.031v-.469S2-.469 2-.594l.047-.125.5-1.203h2.672l.593 1.453H4.86V0c.391-.031 1.329-.031 1.766-.031.39 0 1.266 0 1.625.031M5.016-2.39H2.734l1.141-2.766Zm0 0"/><path id="d" d="M7.5-1.86c0-.952-.844-1.624-2.031-1.702 1.078-.204 1.718-.797 1.718-1.563 0-.922-.875-1.719-2.468-1.719H.39v.469h1.078v5.906H.39V0h4.625C6.672 0 7.5-.875 7.5-1.86M5.766-5.124c0 .766-.47 1.39-1.438 1.39H2.766v-2.64h1.812c1.016 0 1.188.797 1.188 1.25m.28 3.266c0 .109 0 1.39-1.437 1.39H2.766v-2.906h1.937c.203 0 .672 0 1.016.422.328.422.328.984.328 1.094m0 0"/></defs><path fill="none" stroke="#000" stroke-miterlimit="10" stroke-width=".399" d="M8.813 39.613 37.16 11.266M1.164 46.41h15.297V32.816H1.164Zm0 0"/><use xlink:href="#a" x="4.483" y="43.09"/><g clip-path="url(#b)"><path fill="none" stroke="#000" stroke-miterlimit="10" stroke-width="1.395" d="M47.176 11.266c0-5.532-4.485-10.016-10.016-10.016-5.535 0-10.02 4.484-10.02 10.016 0 5.535 4.485 10.02 10.02 10.02 5.531 0 10.016-4.485 10.016-10.02Zm0 0"/></g><g clip-path="url(#c)"><path fill="none" stroke="#FFF" stroke-miterlimit="10" stroke-width=".598" d="M47.176 11.266c0-5.532-4.485-10.016-10.016-10.016-5.535 0-10.02 4.484-10.02 10.016 0 5.535 4.485 10.02 10.02 10.02 5.531 0 10.016-4.485 10.016-10.02Zm0 0"/></g><use xlink:href="#d" x="33.083" y="14.684"/></svg>