<svg xmlns="http://www.w3.org/2000/svg" xmlns:xlink="http://www.w3.org/1999/xlink" width="30.476" height="30.476"><defs><path id="b" d="M2.672-5.797c-.953-.953-2.25-.969-3.266.047-.531.531-.687 1.125-.718 1.406l-.344-.343-1.188 1.312.328.328c.438-.437.485-.484.75-.219L1.781.281l-.484.485.344.343L2.5.188l.906-.844L3.062-1l-.484.484-1.312-1.312A2 2 0 0 0 2.5-2.406c1.063-1.063 1.14-2.422.172-3.39m-.906.906c.984.985.859 1.86.406 2.313-.094.094-.438.437-1.14.36-.173-.016-.188-.032-.313-.157L-.766-3.859c-.14-.141-.14-.172-.14-.36 0-.562.328-.984.484-1.14.453-.453 1.281-.438 2.188.468m0 0"/><path id="c" d="M1.14-6.734c-.171-.172-.53-.282-.859.046a1.7 1.7 0 0 0-.484 1.016c-.203.016-.656.188-1.172.703-1.016 1.016-.86 1.953-.36 2.453.282.282.72.438 1.11.36.047.453.234.734.375.875.11.11.484.422.984.36C.672-.798.313-.126.75.312c.36.359 1.297.484 2.688-.907 1.25-1.25 1.39-2.234.906-2.718-.219-.22-.719-.594-1.438-.376-.594.22-1.015.641-1.687 1.313-.188.188-.5.5-.547.516a.63.63 0 0 1-.844-.032c-.078-.078-.156-.218-.156-.312.484-.172.875-.5 1.047-.672 1.015-1.016.844-1.969.36-2.453a1.38 1.38 0 0 0-.97-.406c.094-.313.25-.47.313-.563a.5.5 0 0 0 .11.172c.171.172.421.172.609-.016a.406.406 0 0 0 0-.593M.298-4.547c.312.313.781.781.156 1.406-.61.61-1.078.141-1.39-.171-.313-.313-.797-.797-.188-1.407.625-.625 1.11-.14 1.422.172m3.453 1.86c.25.25.344.906-.578 1.828-.828.828-1.5.875-1.828.547-.422-.422.015-.86.125-.97l.828-.827c.219-.22 1.015-1.016 1.453-.578m0 0"/><path id="d" d="M-1.234-7.39c-.313-.313-.875-.376-1.422.171-.688.688-1.156 1.75-.36 2.547l.72.719-.532.531.328.328.531-.531L.5-1.156l-.484.484.328.328.86-.89c.265-.266.718-.72 1-.97l-.329-.327-.61.61-2.468-2.47.797-.796-.328-.329-.844.844-.719-.719c-.781-.78-.312-1.375-.14-1.546.03-.032.078-.079.156-.094a.59.59 0 0 0 .172.515c.297.297.687.157.859-.015.203-.203.297-.578.016-.86m0 0"/><clipPath id="a"><path d="M0 0h30.215v30.215H0Zm0 0"/></clipPath></defs><g clip-path="url(#a)"><path fill="none" stroke="#00F" stroke-miterlimit="10" stroke-width="1.19598804" d="m12.633 28.36 15.722-15.723L17.313 1.594 1.59 17.316Zm0 0"/></g><use xlink:href="#b" x="11.217" y="22.246"/><use xlink:href="#c" x="15.719" y="17.745"/><use xlink:href="#d" x="19.769" y="13.694"/></svg>