<svg xmlns="http://www.w3.org/2000/svg" width="58.72" height="65.792"><path fill="#D9D9D9" d="M.879 7.984V.894h7.086v7.09ZM7.965 7.984V.894h7.086v7.09Zm0 0"/><path fill="#D9D9D9" d="M15.05 7.984V.894h7.087v7.09ZM22.137 7.984V.894h7.086v7.09ZM29.223 7.984V.894h7.09v7.09ZM36.313 7.984V.894h7.085v7.09ZM43.398 7.984V.894h7.086v7.09ZM50.484 7.984V.894h7.086v7.09ZM.879 15.07V7.984h7.086v7.086ZM7.965 15.07V7.984h7.086v7.086Zm0 0"/><path fill="#595959" d="M15.05 15.07V7.984h7.087v7.086ZM22.137 15.07V7.984h7.086v7.086ZM29.223 15.07V7.984h7.09v7.086ZM36.313 15.07V7.984h7.085v7.086Zm0 0"/><path fill="#D9D9D9" d="M43.398 15.07V7.984h7.086v7.086ZM50.484 15.07V7.984h7.086v7.086ZM.879 22.156V15.07h7.086v7.086Zm0 0"/><path fill="#595959" d="M7.965 22.156V15.07h7.086v7.086Zm0 0"/><path fill="#595959" d="M15.05 22.156V15.07h7.087v7.086Zm0 0"/><path fill="#D9D9D9" d="M22.137 22.156V15.07h7.086v7.086ZM29.223 22.156V15.07h7.09v7.086Zm0 0"/><path fill="#595959" d="M36.313 22.156V15.07h7.085v7.086ZM43.398 22.156V15.07h7.086v7.086Zm0 0"/><path fill="#D9D9D9" d="M50.484 22.156V15.07h7.086v7.086ZM.879 29.242v-7.086h7.086v7.086Zm0 0"/><path fill="#595959" d="M7.965 29.242v-7.086h7.086v7.086Zm0 0"/><path fill="#595959" d="M15.05 29.242v-7.086h7.087v7.086Zm0 0"/><path fill="#D9D9D9" d="M22.137 29.242v-7.086h7.086v7.086ZM29.223 29.242v-7.086h7.09v7.086Zm0 0"/><path fill="#595959" d="M36.313 29.242v-7.086h7.085v7.086ZM43.398 29.242v-7.086h7.086v7.086Zm0 0"/><path fill="#D9D9D9" d="M50.484 29.242v-7.086h7.086v7.086ZM.879 36.328v-7.086h7.086v7.086Zm0 0"/><path fill="#595959" d="M7.965 36.328v-7.086h7.086v7.086Zm0 0"/><path fill="#595959" d="M15.05 36.328v-7.086h7.087v7.086ZM22.137 36.328v-7.086h7.086v7.086ZM29.223 36.328v-7.086h7.09v7.086ZM36.313 36.328v-7.086h7.085v7.086ZM43.398 36.328v-7.086h7.086v7.086Zm0 0"/><path fill="#D9D9D9" d="M50.484 36.328v-7.086h7.086v7.086ZM.879 43.418v-7.09h7.086v7.09Zm0 0"/><path fill="#595959" d="M7.965 43.418v-7.09h7.086v7.09Zm0 0"/><path fill="#595959" d="M15.05 43.418v-7.09h7.087v7.09Zm0 0"/><path fill="#D9D9D9" d="M22.137 43.418v-7.09h7.086v7.09ZM29.223 43.418v-7.09h7.09v7.09Zm0 0"/><path fill="#595959" d="M36.313 43.418v-7.09h7.085v7.09ZM43.398 43.418v-7.09h7.086v7.09Zm0 0"/><path fill="#D9D9D9" d="M50.484 43.418v-7.09h7.086v7.09ZM.879 50.504v-7.086h7.086v7.086Zm0 0"/><path fill="#595959" d="M7.965 50.504v-7.086h7.086v7.086Zm0 0"/><path fill="#595959" d="M15.05 50.504v-7.086h7.087v7.086Zm0 0"/><path fill="#D9D9D9" d="M22.137 50.504v-7.086h7.086v7.086ZM29.223 50.504v-7.086h7.09v7.086Zm0 0"/><path fill="#595959" d="M36.313 50.504v-7.086h7.085v7.086ZM43.398 50.504v-7.086h7.086v7.086Zm0 0"/><path fill="#D9D9D9" d="M50.484 50.504v-7.086h7.086v7.086ZM.879 57.59v-7.086h7.086v7.086Zm0 0"/><path fill="#595959" d="M7.965 57.59v-7.086h7.086v7.086Zm0 0"/><path fill="#595959" d="M15.05 57.59v-7.086h7.087v7.086Zm0 0"/><path fill="#D9D9D9" d="M22.137 57.59v-7.086h7.086v7.086ZM29.223 57.59v-7.086h7.09v7.086Zm0 0"/><path fill="#595959" d="M36.313 57.59v-7.086h7.085v7.086ZM43.398 57.59v-7.086h7.086v7.086Zm0 0"/><path fill="#D9D9D9" d="M50.484 57.59v-7.086h7.086v7.086ZM.879 64.676V57.59h7.086v7.086ZM7.965 64.676V57.59h7.086v7.086Zm0 0"/><path fill="#D9D9D9" d="M15.05 64.676V57.59h7.087v7.086ZM22.137 64.676V57.59h7.086v7.086ZM29.223 64.676V57.59h7.09v7.086ZM36.313 64.676V57.59h7.085v7.086ZM43.398 64.676V57.59h7.086v7.086ZM50.484 64.676V57.59h7.086v7.086Zm0 0"/></svg>