<svg xmlns="http://www.w3.org/2000/svg" width="87.058" height="45.74"><defs><clipPath id="a"><path d="M0 0h86.586v3H0Zm0 0"/></clipPath><clipPath id="b"><path d="M0 15h86.586v2H0Zm0 0"/></clipPath><clipPath id="c"><path d="M0 29h86.586v2H0Zm0 0"/></clipPath><clipPath id="d"><path d="M0 43h86.586v2H0Zm0 0"/></clipPath></defs><g clip-path="url(#a)"><path fill="none" stroke="#000" stroke-miterlimit="10" stroke-width="1.196" d="M.54 1.484h28.343m28.344 0h28.351"/></g><g clip-path="url(#b)"><path fill="none" stroke="#000" stroke-miterlimit="10" stroke-width="1.196" d="M.54 15.66h9.444m9.45 0h9.449m28.344 0h9.449m9.449 0h9.453"/></g><g clip-path="url(#c)"><path fill="none" stroke="#000" stroke-miterlimit="10" stroke-width="1.196" d="M.54 29.832h3.148m3.148 0h3.148m9.45 0h3.148m3.148 0h3.153m28.344 0h3.148m3.148 0h3.153m9.449 0h3.152m3.149 0h3.152"/></g><g clip-path="url(#d)"><path fill="none" stroke="#000" stroke-miterlimit="10" stroke-width="1.196" d="M.54 44.008h1.046m1.05 0h1.051m3.149 0h1.05m1.048 0h1.05m9.45 0h1.046m1.051 0h1.051m3.148 0h1.051m1.051 0h1.05m28.345 0h1.046m1.051 0h1.051m3.148 0h1.051m1.051 0h1.05m9.45 0h1.05m1.052 0h1.05m3.149 0h1.05m1.051 0h1.051"/></g></svg>