<svg xmlns="http://www.w3.org/2000/svg" width="65.733" height="68.51"><defs><clipPath id="a"><path d="M22 52h22v16.266H22Zm0 0"/></clipPath></defs><path fill="none" stroke="#000" stroke-miterlimit="10" stroke-width=".399" d="M37.43 5.668A4.695 4.695 0 0 0 32.734.973a4.695 4.695 0 0 0-4.695 4.695 4.695 4.695 0 0 0 4.695 4.695 4.695 4.695 0 0 0 4.696-4.695ZM37.43 34.016c0-2.594-2.102-4.7-4.696-4.7a4.698 4.698 0 0 0 0 9.395 4.695 4.695 0 0 0 4.696-4.695Zm0 0"/><g clip-path="url(#a)"><path fill="none" stroke="#000" stroke-miterlimit="10" stroke-width=".399" d="M37.43 62.36a4.695 4.695 0 0 0-4.696-4.696 4.698 4.698 0 0 0 0 9.395 4.7 4.7 0 0 0 4.696-4.7Zm0 0"/></g><path fill="none" stroke="#000" stroke-miterlimit="10" stroke-width=".399" d="M57.758 37.336h6.644v-6.64h-6.644ZM1.066 37.336h6.641v-6.64h-6.64Zm0 0"/></svg>