<svg xmlns="http://www.w3.org/2000/svg" width="58.687" height="8.426"><defs><clipPath id="a"><path d="M17 0h40v8.14H17Zm0 0"/></clipPath><clipPath id="b"><path d="M25 0h33.531v8.14H25Zm0 0"/></clipPath><clipPath id="c"><path d="M34 0h24.531v8.14H34Zm0 0"/></clipPath></defs><path fill="none" stroke="#000" stroke-miterlimit="10" stroke-width="1.196" d="M.852 3.93h34.8"/><path d="m39.105 3.93-4.734-1.793L35.95 3.93l-1.578 1.797Zm0 0"/><g clip-path="url(#a)"><path fill="none" stroke="#000" stroke-miterlimit="10" stroke-width="1.196" d="m39.105 3.93-4.734-1.793L35.95 3.93l-1.578 1.797Zm0 0"/></g><path d="m47.477 3.93-4.739-1.793L44.32 3.93l-1.582 1.797Zm0 0"/><g clip-path="url(#b)"><path fill="none" stroke="#000" stroke-miterlimit="10" stroke-width="1.196" d="m47.477 3.93-4.739-1.793L44.32 3.93l-1.582 1.797Zm0 0"/></g><path d="m55.844 3.93-4.735-1.793 1.578 1.793-1.578 1.797Zm0 0"/><g clip-path="url(#c)"><path fill="none" stroke="#000" stroke-miterlimit="10" stroke-width="1.196" d="m55.844 3.93-4.735-1.793 1.578 1.793-1.578 1.797Zm0 0"/></g></svg>