<svg xmlns="http://www.w3.org/2000/svg" xmlns:xlink="http://www.w3.org/1999/xlink" width="90.839" height="41.204"><defs><path id="a" d="M3.813-1.234v-.532h-.47v.516c0 .672-.327.906-.609.906-.578 0-.578-.64-.578-.86v-2.75h1.469v-.468H2.156v-1.906h-.469c0 1-.484 1.984-1.484 2.016v.359h.828v2.734c0 1.063.86 1.282 1.578 1.282.75 0 1.204-.579 1.204-1.297m0 0"/><path id="b" d="M4.922-1.172c0-.172-.188-.172-.234-.172-.172 0-.188.047-.25.203-.204.485-.782.797-1.422.797-1.407 0-1.422-1.328-1.422-1.828h3.015c.22 0 .313 0 .313-.265 0-.313-.063-1.047-.563-1.547-.359-.36-.89-.532-1.578-.532C1.187-4.516.313-3.484.313-2.25c0 1.344 1 2.313 2.609 2.313 1.578 0 2-1.063 2-1.235M3.984-2.5h-2.39c.015-.39.031-.812.234-1.14.266-.391.672-.516.953-.516 1.172 0 1.188 1.312 1.203 1.656m0 0"/><path id="c" d="M5.828 0v-.469h-.703L3.453-2.453 4.61-3.75c.141-.14.204-.203 1.016-.203v-.469l-.906.031-1.032-.03v.468c.141 0 .266.015.376.078-.032.063-.032.094-.079.125l-.828.938-.984-1.141h.406v-.469L1.36-4.39.266-4.42v.468h.718l1.547 1.828L1.22-.656c-.157.187-.516.187-1 .187V0l.922-.031L2.156 0v-.469c-.172 0-.36-.047-.36-.11 0 0 0-.015.063-.093l.97-1.094L3.921-.469h-.39V0l1.202-.031Zm0 0"/><path id="d" d="M6.125 0v-.469h-.687v-2.578c0-1.047-.532-1.437-1.532-1.437a1.9 1.9 0 0 0-1.687.953v-3.39l-1.766.077v.469c.61 0 .688 0 .688.39v5.516H.453V0l1.25-.031L2.953 0v-.469h-.687v-2.078c0-1.094.859-1.578 1.5-1.578.328 0 .547.203.547.969V-.47h-.688V0l1.25-.031Zm0 0"/><path id="e" d="M2.844 0v-.469h-.61v-4.015L.5-4.406v.468c.594 0 .656 0 .656.391v3.078H.47V0l1.219-.031Zm-.469-6.047a.774.774 0 0 0-.781-.781.784.784 0 0 0-.782.781c0 .422.36.766.782.766a.77.77 0 0 0 .781-.766m0 0"/><path id="f" d="M4.406-3.672c0-.531-.531-.812-1.062-.812-.688 0-1.094.5-1.313 1.125v-1.125l-1.656.078v.468c.61 0 .688 0 .688.391v3.078H.375V0l1.25-.031C2-.031 2.641-.031 3 0v-.469h-.86v-1.75c0-.687.235-1.906 1.235-1.906 0 0-.187.172-.187.453 0 .406.328.61.609.61.297 0 .61-.204.61-.61m0 0"/><path id="g" d="M5.984 0v-.469c-.609 0-.687 0-.687-.39v-6.063l-1.766.078v.469c.625 0 .703 0 .703.39v1.954a2.18 2.18 0 0 0-1.359-.453c-1.453 0-2.5.875-2.5 2.28 0 1.313.922 2.267 2.39 2.267.61 0 1.094-.235 1.407-.485v.485ZM4.172-1.031c-.14.187-.547.734-1.297.734-1.219 0-1.219-1.203-1.219-1.906 0-.485 0-1.016.25-1.406.297-.422.766-.516 1.078-.516.563 0 .97.313 1.188.61Zm0 0"/></defs><path fill="none" stroke="#000" stroke-miterlimit="10" stroke-width=".399" d="M1.129 39.59h31.726V.82H1.13Zm31.726-25.344H1.13m31.726 11.332H1.13"/><use xlink:href="#a" x="6.889" y="10.665"/><use xlink:href="#b" x="11.343" y="10.665"/><use xlink:href="#c" x="16.593" y="10.665"/><use xlink:href="#a" x="22.64" y="10.665"/><use xlink:href="#a" x="4.449" y="36.012"/><use xlink:href="#d" x="8.902" y="36.012"/><use xlink:href="#e" x="15.268" y="36.012"/><use xlink:href="#f" x="18.446" y="36.012"/><use xlink:href="#g" x="23.168" y="36.012"/><path fill="none" stroke="#000" stroke-miterlimit="10" stroke-width=".399" d="M57.82 28.258h31.73V.82H57.82Zm31.73-14.012H57.82"/><use xlink:href="#a" x="63.583" y="10.665"/><use xlink:href="#b" x="68.036" y="10.665"/><use xlink:href="#c" x="73.286" y="10.665"/><use xlink:href="#a" x="79.333" y="10.665"/><use xlink:href="#a" x="61.142" y="24.679"/><use xlink:href="#d" x="65.595" y="24.679"/><use xlink:href="#e" x="71.961" y="24.679"/><use xlink:href="#f" x="75.139" y="24.679"/><use xlink:href="#g" x="79.861" y="24.679"/></svg>