<svg xmlns="http://www.w3.org/2000/svg" xmlns:xlink="http://www.w3.org/1999/xlink" width="233.54" height="162.668"><defs><path id="b" d="M9.984-1.094c0-.203-.093-.25-.25-.25-.234 0-.25.094-.25.25-.062.594-.437.844-.765.844-.766 0-.86-.797-.953-1.906-.063-.625-.157-1.516-1.438-1.906 1.61-.438 2-1.297 2-1.938 0-1.203-1.25-2.203-3.469-2.203H.453v.515H1.72v7.172H.453V0C.797-.031 2.047-.031 2.47-.031c.437 0 1.687 0 2.031.031v-.516H3.234v-3.39h1.422c.485 0 .86.14 1.125.453.36.406.36.672.36 1.469s0 1.297.609 1.703C7.375.125 8.36.14 8.625.14c1.219 0 1.36-1.078 1.36-1.235M6.641-6c0 .656 0 1.703-2 1.703H3.234v-3.39h1.422c1.953 0 1.985.984 1.985 1.687m0 0"/><path id="c" d="M6.328-2.625c0-1.61-1.094-2.797-2.969-2.797-1.953 0-2.984 1.25-2.984 2.797C.375-1.047 1.469.078 3.344.078c1.953 0 2.984-1.187 2.984-2.703m-1.422-.11c0 .985 0 2.376-1.547 2.376S1.813-1.75 1.813-2.734c0-.563 0-1.157.218-1.594.266-.484.797-.688 1.313-.688.687 0 1.11.313 1.312.657.25.422.25 1.047.25 1.625m0 0"/><path id="d" d="M4.469-1.484v-.625h-.5v.609c0 .797-.36 1.14-.735 1.14-.718 0-.718-.796-.718-1.078v-3.359H4.25v-.516H2.516v-2.28h-.5c0 1.187-.578 2.374-1.766 2.406v.39h.969v3.328c0 1.266.984 1.547 1.844 1.547.874 0 1.406-.672 1.406-1.562m0 0"/><path id="e" d="M5.594-1.406c0-.14-.125-.14-.25-.14-.188 0-.203.015-.266.155-.078.235-.406 1.032-1.5 1.032-1.687 0-1.687-1.813-1.687-2.36 0-.703.015-2.265 1.578-2.265.078 0 .781.03.781.078 0 0 0 .031-.031.047a.73.73 0 0 0-.188.515c0 .5.407.703.703.703.25 0 .704-.156.704-.718 0-.985-1.375-1.063-2.016-1.063-2.125 0-2.969 1.39-2.969 2.766 0 1.625 1.14 2.734 2.89 2.734 1.876 0 2.25-1.39 2.25-1.484m0 0"/><path id="f" d="M7.172 0v-.516h-.828v-3.14c0-1.14-.485-1.719-1.797-1.719-.86 0-1.61.422-2.016 1.313h-.015v-1.313L.5-5.281v.515c.75 0 .828 0 .828.47v3.78H.5V0c.281-.031 1.14-.031 1.469-.031.343 0 1.203 0 1.484.031v-.516h-.828v-2.546c0-1.282.953-1.922 1.719-1.922.453 0 .703.28.703 1.187v3.281h-.828V0c.281-.031 1.14-.031 1.468-.031.344 0 1.204 0 1.485.031m0 0"/><path id="g" d="M5.75-1.406c0-.172-.187-.172-.25-.172-.187 0-.203.031-.281.187-.313.782-1.094 1.032-1.672 1.032-1.735 0-1.735-1.61-1.735-2.282h3.594c.266 0 .344 0 .344-.296 0-.36-.078-1.266-.64-1.813-.5-.516-1.173-.672-1.86-.672-1.86 0-2.875 1.219-2.875 2.734C.375-1.016 1.609.079 3.406.079 5.22.078 5.75-1.187 5.75-1.406M4.656-2.984H1.813c.015-.5.03-.953.28-1.391a1.32 1.32 0 0 1 1.157-.64c1.281 0 1.39 1.437 1.406 2.03m0 0"/><path id="h" d="M7-2.672c0-1.64-1.11-2.703-2.719-2.703-.703 0-1.312.234-1.797.625v-.625l-2.062.094v.515c.734 0 .828 0 .828.47v6.109H.422v.5c.266-.016 1.125-.016 1.469-.016.328 0 1.203 0 1.484.015v-.5h-.828V-.483c.297.25.828.562 1.547.562C5.719.078 7-.922 7-2.672m-1.437 0c0 1.735-.86 2.344-1.625 2.344-.5 0-1.016-.25-1.391-.813v-3.046a2 2 0 0 1 1.547-.766c.765 0 1.468.703 1.468 2.281m0 0"/><path id="i" d="M7.063-2.047c0-.203-.079-.203-.235-.203-.094 0-.203 0-.219.156C6.531-.797 5.344-.328 4.5-.328c-.484 0-1.36-.11-1.969-.766C2.062-1.625 2-2.469 2-3.078c0-1.078.219-1.61.578-2.031.422-.47 1.156-.72 1.89-.72.798 0 1.845.485 2.063 1.907.032.125.125.125.266.125.25 0 .266-.031.266-.265V-6c0-.156 0-.266-.172-.266-.094 0-.11.016-.188.094l-.594.516a2.96 2.96 0 0 0-1.828-.61C1.97-6.266.594-4.89.594-3.078.594-1.297 1.922.109 4.297.109c1.687 0 2.766-1.078 2.766-2.156m0 0"/><path id="j" d="M5.656 0v-.437h-.61v-2.297c0-1.063-.655-1.297-1.437-1.297-.843 0-1.328.484-1.562.843v-3.03l-1.594.062v.437c.531 0 .61 0 .61.36v4.922h-.61V0l1.125-.031L2.718 0v-.437H2.11v-1.844c0-1 .829-1.39 1.36-1.39.344 0 .515.187.515.858v2.376h-.609V0l1.14-.031Zm0 0"/><path id="k" d="M2.625 0v-.437h-.547v-3.594L.5-3.97v.438c.516 0 .578 0 .578.36v2.734h-.61V0c.595-.016.72-.031 1.095-.031.437 0 .546.015 1.062.031m-.453-5.422a.713.713 0 0 0-.703-.719.71.71 0 0 0-.703.704.7.7 0 0 0 .703.703.697.697 0 0 0 .703-.688m0 0"/><path id="l" d="M2.688 0v-.437h-.61V-6.22l-1.61.063v.437c.532 0 .61 0 .61.36v4.922h-.61V0l1.095-.031Zm0 0"/><path id="m" d="M5.516 0v-.437c-.532 0-.61 0-.61-.36v-5.422l-1.61.063v.437c.548 0 .61 0 .61.36v1.734a2 2 0 0 0-1.25-.406c-1.453 0-2.312.89-2.312 2.047 0 1.187.844 2.03 2.219 2.03.562 0 1-.202 1.296-.437v.438ZM3.859-.984a1.43 1.43 0 0 1-1.203.672c-1.11 0-1.11-1.063-1.11-1.657 0-.531 0-.906.235-1.234.235-.36.672-.469.985-.469.437 0 .812.188 1.093.547Zm0 0"/><path id="n" d="M4.406-1.047c0-.14-.125-.14-.234-.14-.172 0-.172.015-.25.171-.172.438-.578.688-1.11.688-1.265 0-1.265-1.297-1.265-1.703 0-.531 0-1.64 1.172-1.64.078 0 .562 0 .562.046l-.031.047a.6.6 0 0 0-.125.375c0 .36.281.578.594.578a.57.57 0 0 0 .578-.594c0-.844-1.25-.844-1.61-.844C.97-4.062.345-2.968.345-1.983c0 1.125.812 2.03 2.297 2.03.343 0 .78-.046 1.156-.28.515-.313.61-.782.61-.813m0 0"/><path id="o" d="M5-1.953c0-1.172-.828-2.11-2.344-2.11-1.578 0-2.36.985-2.36 2.11 0 1.11.813 2 2.345 2C4.25.047 5-.891 5-1.953m-1.187-.094c0 .766 0 1.719-1.157 1.719-1.172 0-1.172-.953-1.172-1.719 0-.765 0-1.656 1.157-1.656 1.172 0 1.172.89 1.172 1.656m0 0"/><path id="p" d="M5.656 0v-.437h-.61v-2.297c0-1.063-.655-1.297-1.437-1.297-1.093 0-1.53.797-1.593.937H2v-.937L.453-3.97v.438c.531 0 .61 0 .61.36v2.734h-.61V0l1.125-.031L2.718 0v-.437H2.11v-1.844c0-1 .829-1.39 1.36-1.39.344 0 .515.187.515.858v2.376h-.609V0l1.14-.031Zm0 0"/><path id="q" d="M4.563-1.047c0-.172-.172-.172-.235-.172-.156 0-.172.047-.234.172-.203.469-.75.719-1.313.719-1.281 0-1.297-1.156-1.297-1.594h2.782c.187 0 .297 0 .297-.25 0-.203-.016-1-.594-1.484-.406-.328-.953-.406-1.39-.406-1.532 0-2.282.968-2.282 2.046 0 1.172.89 2.063 2.406 2.063 1.485 0 1.86-.938 1.86-1.094M3.688-2.25H1.483c.016-.406.063-1.453 1.094-1.453 1.047 0 1.094 1.094 1.11 1.453m0 0"/><path id="r" d="M5.531-1.984c0-1.188-.812-2.047-2.172-2.047-.718 0-1.218.297-1.39.422v-.422L.375-3.97v.438c.172 0 .313 0 .438.031.171.031.171.125.171.313v4.484H.375v.437L1.5 1.72l1.14.015v-.437h-.609v-1.64c.531.39 1.016.39 1.188.39 1.406 0 2.312-.844 2.312-2.031M4.344-2c0 1.25-.64 1.688-1.235 1.688-.453 0-.843-.25-1.078-.625v-2.157a1.55 1.55 0 0 1 1.188-.562c.625 0 1.125.562 1.125 1.656m0 0"/><path id="s" d="M3.531-1.11v-.468h-.469v.453c0 .625-.312.797-.546.797C2-.328 2-.875 2-1.078v-2.469h1.36v-.437H2v-1.703h-.453c-.016.828-.438 1.765-1.344 1.78v.36h.75v2.438c0 1.03.89 1.156 1.438 1.156.703 0 1.14-.5 1.14-1.156m0 0"/><clipPath id="a"><path d="M0 30h132v132.504H0Zm0 0"/></clipPath><clipPath id="t"><path d="M94 38h43v57H94Zm0 0"/></clipPath><clipPath id="u"><path d="M94.52 60.777a56.68 56.68 0 0 1 19.39 33.586c-2.46-13.96 6.938-23.172 19.211-30.261l-2.793-4.832c-12.273 7.085-24.95 10.617-35.808 1.507m43.457-5.922-7.649 4.415 2.793 4.832 7.645-4.415Zm11.414-15.96a31.9 31.9 0 0 0 10.906 18.89c-6.106-5.125-12.625-2.082-19.531 1.903l-2.79-4.833c6.903-3.984 12.797-8.113 11.415-15.96m0 0"/></clipPath><clipPath id="v"><path d="M123 38h38v57h-38Zm0 0"/></clipPath><clipPath id="w"><path d="M94.52 60.777a56.68 56.68 0 0 1 19.39 33.586c-2.46-13.96 6.938-23.172 19.211-30.261l-2.793-4.832c-12.273 7.085-24.95 10.617-35.808 1.507m43.457-5.922-7.649 4.415 2.793 4.832 7.645-4.415Zm11.414-15.96a31.9 31.9 0 0 0 10.906 18.89c-6.106-5.125-12.625-2.082-19.531 1.903l-2.79-4.833c6.903-3.984 12.797-8.113 11.415-15.96m0 0"/></clipPath><clipPath id="x"><path d="M94 38h67v57H94Zm0 0"/></clipPath><clipPath id="y"><path d="M94.52 60.777a56.68 56.68 0 0 1 19.39 33.586c-2.46-13.96 6.938-23.172 19.211-30.261l-2.793-4.832c-12.273 7.085-24.95 10.617-35.808 1.507m43.457-5.922-7.649 4.415 2.793 4.832 7.645-4.415Zm11.414-15.96a31.9 31.9 0 0 0 10.906 18.89c-6.106-5.125-12.625-2.082-19.531 1.903l-2.79-4.833c6.903-3.984 12.797-8.113 11.415-15.96m0 0"/></clipPath><clipPath id="z"><path d="m135.523 124.96 46.036-26.573L124.863.18 78.828 26.758Zm0 0"/></clipPath><clipPath id="B"><path d="M151 55h82.309v99H151Zm0 0"/></clipPath><clipPath id="C"><path d="M111 84h5v40h-5Zm0 0"/></clipPath><clipPath id="D"><path d="M111.355 84.816a56.7 56.7 0 0 1 0 38.782c4.848-13.32 17.59-16.602 31.766-16.602v-5.582c-14.176 0-26.918-3.281-31.766-16.598m31.766 22.18h8.856v-5.582h-8.856Zm26.727-13.7a31.87 31.87 0 0 0 0 21.817c-2.727-7.492-9.899-8.117-17.871-8.117v-5.582c7.972 0 15.144-.625 17.87-8.117m0 0"/></clipPath><clipPath id="E"><path d="M166 84h4v40h-4Zm0 0"/></clipPath><clipPath id="F"><path d="M111.355 84.816a56.7 56.7 0 0 1 0 38.782c4.848-13.32 17.59-16.602 31.766-16.602v-5.582c-14.176 0-26.918-3.281-31.766-16.598m31.766 22.18h8.856v-5.582h-8.856Zm26.727-13.7a31.87 31.87 0 0 0 0 21.817c-2.727-7.492-9.899-8.117-17.871-8.117v-5.582c7.972 0 15.144-.625 17.87-8.117m0 0"/></clipPath><clipPath id="G"><path d="M115 84h52.93v40H115Zm0 0"/></clipPath><clipPath id="H"><path d="M111.355 84.816a56.7 56.7 0 0 1 0 38.782c4.848-13.32 17.59-16.602 31.766-16.602v-5.582c-14.176 0-26.918-3.281-31.766-16.598m31.766 22.18h8.856v-5.582h-8.856Zm26.727-13.7a31.87 31.87 0 0 0 0 21.817c-2.727-7.492-9.899-8.117-17.871-8.117v-5.582c7.972 0 15.144-.625 17.87-8.117m0 0"/></clipPath><linearGradient id="A" x1="0" x2="100.001" y1="0" y2="0" gradientTransform="matrix(.46034 -.26576 -.56697 -.98206 135.525 124.963)" gradientUnits="userSpaceOnUse"><stop offset="0" stop-color="#33F"/><stop offset=".004" stop-color="#3433FE"/><stop offset=".008" stop-color="#3533FD"/><stop offset=".012" stop-color="#3532FC"/><stop offset=".016" stop-color="#3632FB"/><stop offset=".02" stop-color="#3732FA"/><stop offset=".023" stop-color="#3832F9"/><stop offset=".027" stop-color="#3932F8"/><stop offset=".031" stop-color="#3931F7"/><stop offset=".035" stop-color="#3A31F6"/><stop offset=".039" stop-color="#3B31F5"/><stop offset=".043" stop-color="#3C31F4"/><stop offset=".047" stop-color="#3D31F3"/><stop offset=".051" stop-color="#3D30F2"/><stop offset=".055" stop-color="#3E30F1"/><stop offset=".059" stop-color="#3F30F0"/><stop offset=".063" stop-color="#4030EF"/><stop offset=".066" stop-color="#4130EE"/><stop offset=".07" stop-color="#412FED"/><stop offset=".074" stop-color="#422FEC"/><stop offset=".078" stop-color="#432FEB"/><stop offset=".082" stop-color="#442FEA"/><stop offset=".086" stop-color="#452FE9"/><stop offset=".09" stop-color="#452EE8"/><stop offset=".094" stop-color="#462EE7"/><stop offset=".098" stop-color="#472EE6"/><stop offset=".102" stop-color="#482EE5"/><stop offset=".105" stop-color="#492EE4"/><stop offset=".109" stop-color="#492DE3"/><stop offset=".113" stop-color="#4A2DE2"/><stop offset=".117" stop-color="#4B2DE1"/><stop offset=".121" stop-color="#4C2DE0"/><stop offset=".125" stop-color="#4C2DDF"/><stop offset=".129" stop-color="#4D2CDE"/><stop offset=".133" stop-color="#4E2CDD"/><stop offset=".137" stop-color="#4F2CDC"/><stop offset=".141" stop-color="#502CDB"/><stop offset=".145" stop-color="#502CDA"/><stop offset=".148" stop-color="#512BD9"/><stop offset=".152" stop-color="#522BD8"/><stop offset=".156" stop-color="#532BD7"/><stop offset=".16" stop-color="#542BD6"/><stop offset=".164" stop-color="#542BD5"/><stop offset=".168" stop-color="#552AD4"/><stop offset=".172" stop-color="#562AD3"/><stop offset=".176" stop-color="#572AD2"/><stop offset=".18" stop-color="#582AD1"/><stop offset=".184" stop-color="#582AD0"/><stop offset=".188" stop-color="#5929CF"/><stop offset=".191" stop-color="#5A29CE"/><stop offset=".195" stop-color="#5B29CD"/><stop offset=".199" stop-color="#5C29CC"/><stop offset=".203" stop-color="#5C29CB"/><stop offset=".207" stop-color="#5D28CA"/><stop offset=".211" stop-color="#5E28C9"/><stop offset=".215" stop-color="#5F28C8"/><stop offset=".219" stop-color="#6028C7"/><stop offset=".223" stop-color="#6028C6"/><stop offset=".227" stop-color="#6127C5"/><stop offset=".23" stop-color="#6227C4"/><stop offset=".234" stop-color="#6327C3"/><stop offset=".238" stop-color="#6427C2"/><stop offset=".242" stop-color="#6427C1"/><stop offset=".246" stop-color="#6526C0"/><stop offset=".25" stop-color="#6626BF"/><stop offset=".254" stop-color="#6726BE"/><stop offset=".258" stop-color="#6826BD"/><stop offset=".262" stop-color="#6826BC"/><stop offset=".266" stop-color="#6925BB"/><stop offset=".27" stop-color="#6A25BA"/><stop offset=".273" stop-color="#6B25B9"/><stop offset=".277" stop-color="#6C25B8"/><stop offset=".281" stop-color="#6C25B7"/><stop offset=".285" stop-color="#6D24B6"/><stop offset=".289" stop-color="#6E24B5"/><stop offset=".293" stop-color="#6F24B4"/><stop offset=".297" stop-color="#7024B3"/><stop offset=".301" stop-color="#7024B2"/><stop offset=".305" stop-color="#7123B1"/><stop offset=".309" stop-color="#7223B0"/><stop offset=".313" stop-color="#7323AF"/><stop offset=".316" stop-color="#7423AE"/><stop offset=".32" stop-color="#7423AD"/><stop offset=".324" stop-color="#7522AC"/><stop offset=".328" stop-color="#7622AB"/><stop offset=".332" stop-color="#72A"/><stop offset=".336" stop-color="#7822A9"/><stop offset=".34" stop-color="#7822A8"/><stop offset=".344" stop-color="#7921A7"/><stop offset=".348" stop-color="#7A21A6"/><stop offset=".352" stop-color="#7B21A5"/><stop offset=".355" stop-color="#7C21A4"/><stop offset=".359" stop-color="#7C21A3"/><stop offset=".363" stop-color="#7D20A2"/><stop offset=".367" stop-color="#7E20A1"/><stop offset=".371" stop-color="#7F20A0"/><stop offset=".375" stop-color="#7F209F"/><stop offset=".379" stop-color="#80209E"/><stop offset=".383" stop-color="#811F9D"/><stop offset=".387" stop-color="#821F9C"/><stop offset=".391" stop-color="#831F9B"/><stop offset=".395" stop-color="#831F9A"/><stop offset=".398" stop-color="#841F99"/><stop offset=".402" stop-color="#851E98"/><stop offset=".406" stop-color="#861E97"/><stop offset=".41" stop-color="#871E96"/><stop offset=".414" stop-color="#871E95"/><stop offset=".418" stop-color="#881E94"/><stop offset=".422" stop-color="#891D93"/><stop offset=".426" stop-color="#8A1D92"/><stop offset=".43" stop-color="#8B1D91"/><stop offset=".434" stop-color="#8B1D90"/><stop offset=".438" stop-color="#8C1D8F"/><stop offset=".441" stop-color="#8D1C8E"/><stop offset=".445" stop-color="#8E1C8D"/><stop offset=".449" stop-color="#8F1C8C"/><stop offset=".453" stop-color="#8F1C8B"/><stop offset=".457" stop-color="#901C8A"/><stop offset=".461" stop-color="#911B89"/><stop offset=".465" stop-color="#921B88"/><stop offset=".469" stop-color="#931B87"/><stop offset=".473" stop-color="#931B86"/><stop offset=".477" stop-color="#941B85"/><stop offset=".48" stop-color="#951A84"/><stop offset=".484" stop-color="#961A83"/><stop offset=".488" stop-color="#971A82"/><stop offset=".492" stop-color="#971A81"/><stop offset=".496" stop-color="#981A80"/><stop offset=".5" stop-color="#99197F"/><stop offset=".504" stop-color="#9A197F"/><stop offset=".508" stop-color="#9B197E"/><stop offset=".512" stop-color="#9B197D"/><stop offset=".516" stop-color="#9C197C"/><stop offset=".52" stop-color="#9D197B"/><stop offset=".523" stop-color="#9E187A"/><stop offset=".527" stop-color="#9F1879"/><stop offset=".531" stop-color="#9F1878"/><stop offset=".535" stop-color="#A01877"/><stop offset=".539" stop-color="#A11876"/><stop offset=".543" stop-color="#A21775"/><stop offset=".547" stop-color="#A31774"/><stop offset=".551" stop-color="#A31773"/><stop offset=".555" stop-color="#A41772"/><stop offset=".559" stop-color="#A51771"/><stop offset=".563" stop-color="#A61670"/><stop offset=".566" stop-color="#A7166F"/><stop offset=".57" stop-color="#A7166E"/><stop offset=".574" stop-color="#A8166D"/><stop offset=".578" stop-color="#A9166C"/><stop offset=".582" stop-color="#AA156B"/><stop offset=".586" stop-color="#AB156A"/><stop offset=".59" stop-color="#AB1569"/><stop offset=".594" stop-color="#AC1568"/><stop offset=".598" stop-color="#AD1567"/><stop offset=".602" stop-color="#AE1466"/><stop offset=".605" stop-color="#AF1465"/><stop offset=".609" stop-color="#AF1464"/><stop offset=".613" stop-color="#B01463"/><stop offset=".617" stop-color="#B11462"/><stop offset=".621" stop-color="#B21361"/><stop offset=".625" stop-color="#B21360"/><stop offset=".629" stop-color="#B3135F"/><stop offset=".633" stop-color="#B4135E"/><stop offset=".637" stop-color="#B5135D"/><stop offset=".641" stop-color="#B6125C"/><stop offset=".645" stop-color="#B6125B"/><stop offset=".648" stop-color="#B7125A"/><stop offset=".652" stop-color="#B81259"/><stop offset=".656" stop-color="#B91258"/><stop offset=".66" stop-color="#BA1157"/><stop offset=".664" stop-color="#BA1156"/><stop offset=".668" stop-color="#B15"/><stop offset=".672" stop-color="#BC1154"/><stop offset=".676" stop-color="#BD1153"/><stop offset=".68" stop-color="#BE1052"/><stop offset=".684" stop-color="#BE1051"/><stop offset=".688" stop-color="#BF1050"/><stop offset=".691" stop-color="#C0104F"/><stop offset=".695" stop-color="#C1104E"/><stop offset=".699" stop-color="#C20F4D"/><stop offset=".703" stop-color="#C20F4C"/><stop offset=".707" stop-color="#C30F4B"/><stop offset=".711" stop-color="#C40F4A"/><stop offset=".715" stop-color="#C50F49"/><stop offset=".719" stop-color="#C60E48"/><stop offset=".723" stop-color="#C60E47"/><stop offset=".727" stop-color="#C70E46"/><stop offset=".73" stop-color="#C80E45"/><stop offset=".734" stop-color="#C90E44"/><stop offset=".738" stop-color="#CA0D43"/><stop offset=".742" stop-color="#CA0D42"/><stop offset=".746" stop-color="#CB0D41"/><stop offset=".75" stop-color="#CC0D40"/><stop offset=".754" stop-color="#CD0D3F"/><stop offset=".758" stop-color="#CE0C3E"/><stop offset=".762" stop-color="#CE0C3D"/><stop offset=".766" stop-color="#CF0C3C"/><stop offset=".77" stop-color="#D00C3B"/><stop offset=".773" stop-color="#D10C3A"/><stop offset=".777" stop-color="#D20B39"/><stop offset=".781" stop-color="#D20B38"/><stop offset=".785" stop-color="#D30B37"/><stop offset=".789" stop-color="#D40B36"/><stop offset=".793" stop-color="#D50B35"/><stop offset=".797" stop-color="#D60A34"/><stop offset=".801" stop-color="#D60A33"/><stop offset=".805" stop-color="#D70A32"/><stop offset=".809" stop-color="#D80A31"/><stop offset=".813" stop-color="#D90A30"/><stop offset=".816" stop-color="#DA092F"/><stop offset=".82" stop-color="#DA092E"/><stop offset=".824" stop-color="#DB092D"/><stop offset=".828" stop-color="#DC092C"/><stop offset=".832" stop-color="#DD092B"/><stop offset=".836" stop-color="#DE082A"/><stop offset=".84" stop-color="#DE0829"/><stop offset=".844" stop-color="#DF0828"/><stop offset=".848" stop-color="#E00827"/><stop offset=".852" stop-color="#E10826"/><stop offset=".855" stop-color="#E20725"/><stop offset=".859" stop-color="#E20724"/><stop offset=".863" stop-color="#E30723"/><stop offset=".867" stop-color="#E40722"/><stop offset=".871" stop-color="#E50721"/><stop offset=".875" stop-color="#E50620"/><stop offset=".879" stop-color="#E6061F"/><stop offset=".883" stop-color="#E7061E"/><stop offset=".887" stop-color="#E8061D"/><stop offset=".891" stop-color="#E9061C"/><stop offset=".895" stop-color="#E9051B"/><stop offset=".898" stop-color="#EA051A"/><stop offset=".902" stop-color="#EB0519"/><stop offset=".906" stop-color="#EC0518"/><stop offset=".91" stop-color="#ED0517"/><stop offset=".914" stop-color="#ED0416"/><stop offset=".918" stop-color="#EE0415"/><stop offset=".922" stop-color="#EF0414"/><stop offset=".926" stop-color="#F00413"/><stop offset=".93" stop-color="#F10412"/><stop offset=".934" stop-color="#F10311"/><stop offset=".938" stop-color="#F20310"/><stop offset=".941" stop-color="#F3030F"/><stop offset=".945" stop-color="#F4030E"/><stop offset=".949" stop-color="#F5030D"/><stop offset=".953" stop-color="#F5020C"/><stop offset=".957" stop-color="#F6020B"/><stop offset=".961" stop-color="#F7020A"/><stop offset=".965" stop-color="#F80209"/><stop offset=".969" stop-color="#F90208"/><stop offset=".973" stop-color="#F90107"/><stop offset=".977" stop-color="#FA0106"/><stop offset=".98" stop-color="#FB0105"/><stop offset=".984" stop-color="#FC0104"/><stop offset=".988" stop-color="#FD0103"/><stop offset=".992" stop-color="#FD0002"/><stop offset=".996" stop-color="#FE0001"/><stop offset="1" stop-color="red"/></linearGradient><linearGradient id="I" x1="0" x2="100" y1="0" y2="0" gradientTransform="matrix(.53156 0 0 -1.134 114.773 160.906)" gradientUnits="userSpaceOnUse"><stop offset="0" stop-color="#33F"/><stop offset=".004" stop-color="#3433FE"/><stop offset=".008" stop-color="#3534FD"/><stop offset=".012" stop-color="#3534FC"/><stop offset=".016" stop-color="#3634FB"/><stop offset=".02" stop-color="#3734FA"/><stop offset=".023" stop-color="#3835F9"/><stop offset=".027" stop-color="#3935F8"/><stop offset=".031" stop-color="#3935F7"/><stop offset=".035" stop-color="#3A36F6"/><stop offset=".039" stop-color="#3B36F5"/><stop offset=".043" stop-color="#3C36F4"/><stop offset=".047" stop-color="#3D37F3"/><stop offset=".051" stop-color="#3D37F2"/><stop offset=".055" stop-color="#3E37F1"/><stop offset=".059" stop-color="#3F37F0"/><stop offset=".063" stop-color="#4038EF"/><stop offset=".066" stop-color="#4138EE"/><stop offset=".07" stop-color="#4138ED"/><stop offset=".074" stop-color="#4239EC"/><stop offset=".078" stop-color="#4339EB"/><stop offset=".082" stop-color="#4439EA"/><stop offset=".086" stop-color="#453AE9"/><stop offset=".09" stop-color="#453AE8"/><stop offset=".094" stop-color="#463AE7"/><stop offset=".098" stop-color="#473AE6"/><stop offset=".102" stop-color="#483BE5"/><stop offset=".105" stop-color="#493BE4"/><stop offset=".109" stop-color="#493BE3"/><stop offset=".113" stop-color="#4A3CE2"/><stop offset=".117" stop-color="#4B3CE1"/><stop offset=".121" stop-color="#4C3CE0"/><stop offset=".125" stop-color="#4C3DDF"/><stop offset=".129" stop-color="#4D3DDE"/><stop offset=".133" stop-color="#4E3DDD"/><stop offset=".137" stop-color="#4F3DDC"/><stop offset=".141" stop-color="#503EDB"/><stop offset=".145" stop-color="#503EDA"/><stop offset=".148" stop-color="#513ED9"/><stop offset=".152" stop-color="#523FD8"/><stop offset=".156" stop-color="#533FD7"/><stop offset=".16" stop-color="#543FD6"/><stop offset=".164" stop-color="#5440D5"/><stop offset=".168" stop-color="#5540D4"/><stop offset=".172" stop-color="#5640D3"/><stop offset=".176" stop-color="#5740D2"/><stop offset=".18" stop-color="#5841D1"/><stop offset=".184" stop-color="#5841D0"/><stop offset=".188" stop-color="#5941CF"/><stop offset=".191" stop-color="#5A42CE"/><stop offset=".195" stop-color="#5B42CD"/><stop offset=".199" stop-color="#5C42CC"/><stop offset=".203" stop-color="#5C43CB"/><stop offset=".207" stop-color="#5D43CA"/><stop offset=".211" stop-color="#5E43C9"/><stop offset=".215" stop-color="#5F43C8"/><stop offset=".219" stop-color="#6044C7"/><stop offset=".223" stop-color="#6044C6"/><stop offset=".227" stop-color="#6144C5"/><stop offset=".23" stop-color="#6245C4"/><stop offset=".234" stop-color="#6345C3"/><stop offset=".238" stop-color="#6445C2"/><stop offset=".242" stop-color="#6446C1"/><stop offset=".246" stop-color="#6546C0"/><stop offset=".25" stop-color="#6646BF"/><stop offset=".254" stop-color="#6746BE"/><stop offset=".258" stop-color="#6847BD"/><stop offset=".262" stop-color="#6847BC"/><stop offset=".266" stop-color="#6947BB"/><stop offset=".27" stop-color="#6A48BA"/><stop offset=".273" stop-color="#6B48B9"/><stop offset=".277" stop-color="#6C48B8"/><stop offset=".281" stop-color="#6C49B7"/><stop offset=".285" stop-color="#6D49B6"/><stop offset=".289" stop-color="#6E49B5"/><stop offset=".293" stop-color="#6F49B4"/><stop offset=".297" stop-color="#704AB3"/><stop offset=".301" stop-color="#704AB2"/><stop offset=".305" stop-color="#714AB1"/><stop offset=".309" stop-color="#724BB0"/><stop offset=".313" stop-color="#734BAF"/><stop offset=".316" stop-color="#744BAE"/><stop offset=".32" stop-color="#744CAD"/><stop offset=".324" stop-color="#754CAC"/><stop offset=".328" stop-color="#764CAB"/><stop offset=".332" stop-color="#774CAA"/><stop offset=".336" stop-color="#784DA9"/><stop offset=".34" stop-color="#784DA8"/><stop offset=".344" stop-color="#794DA7"/><stop offset=".348" stop-color="#7A4EA6"/><stop offset=".352" stop-color="#7B4EA5"/><stop offset=".355" stop-color="#7C4EA4"/><stop offset=".359" stop-color="#7C4EA3"/><stop offset=".363" stop-color="#7D4FA2"/><stop offset=".367" stop-color="#7E4FA1"/><stop offset=".371" stop-color="#7F4FA0"/><stop offset=".375" stop-color="#7F509F"/><stop offset=".379" stop-color="#80509E"/><stop offset=".383" stop-color="#81509D"/><stop offset=".387" stop-color="#82519C"/><stop offset=".391" stop-color="#83519B"/><stop offset=".395" stop-color="#83519A"/><stop offset=".398" stop-color="#845199"/><stop offset=".402" stop-color="#855298"/><stop offset=".406" stop-color="#865297"/><stop offset=".41" stop-color="#875296"/><stop offset=".414" stop-color="#875395"/><stop offset=".418" stop-color="#885394"/><stop offset=".422" stop-color="#895393"/><stop offset=".426" stop-color="#8A5492"/><stop offset=".43" stop-color="#8B5491"/><stop offset=".434" stop-color="#8B5490"/><stop offset=".438" stop-color="#8C548F"/><stop offset=".441" stop-color="#8D558E"/><stop offset=".445" stop-color="#8E558D"/><stop offset=".449" stop-color="#8F558C"/><stop offset=".453" stop-color="#8F568B"/><stop offset=".457" stop-color="#90568A"/><stop offset=".461" stop-color="#915689"/><stop offset=".465" stop-color="#925788"/><stop offset=".469" stop-color="#935787"/><stop offset=".473" stop-color="#935786"/><stop offset=".477" stop-color="#945785"/><stop offset=".48" stop-color="#955884"/><stop offset=".484" stop-color="#965883"/><stop offset=".488" stop-color="#975882"/><stop offset=".492" stop-color="#975981"/><stop offset=".496" stop-color="#985980"/><stop offset=".5" stop-color="#99597F"/><stop offset=".504" stop-color="#9A5A7F"/><stop offset=".508" stop-color="#9B5A7E"/><stop offset=".512" stop-color="#9B5A7D"/><stop offset=".516" stop-color="#9C5A7C"/><stop offset=".52" stop-color="#9D5B7B"/><stop offset=".523" stop-color="#9E5B7A"/><stop offset=".527" stop-color="#9F5B79"/><stop offset=".531" stop-color="#9F5C78"/><stop offset=".535" stop-color="#A05C77"/><stop offset=".539" stop-color="#A15C76"/><stop offset=".543" stop-color="#A25D75"/><stop offset=".547" stop-color="#A35D74"/><stop offset=".551" stop-color="#A35D73"/><stop offset=".555" stop-color="#A45D72"/><stop offset=".559" stop-color="#A55E71"/><stop offset=".563" stop-color="#A65E70"/><stop offset=".566" stop-color="#A75E6F"/><stop offset=".57" stop-color="#A75F6E"/><stop offset=".574" stop-color="#A85F6D"/><stop offset=".578" stop-color="#A95F6C"/><stop offset=".582" stop-color="#AA606B"/><stop offset=".586" stop-color="#AB606A"/><stop offset=".59" stop-color="#AB6069"/><stop offset=".594" stop-color="#AC6068"/><stop offset=".598" stop-color="#AD6167"/><stop offset=".602" stop-color="#AE6166"/><stop offset=".605" stop-color="#AF6165"/><stop offset=".609" stop-color="#AF6264"/><stop offset=".613" stop-color="#B06263"/><stop offset=".617" stop-color="#B16262"/><stop offset=".621" stop-color="#B26361"/><stop offset=".625" stop-color="#B26360"/><stop offset=".629" stop-color="#B3635F"/><stop offset=".633" stop-color="#B4635E"/><stop offset=".637" stop-color="#B5645D"/><stop offset=".641" stop-color="#B6645C"/><stop offset=".645" stop-color="#B6645B"/><stop offset=".648" stop-color="#B7655A"/><stop offset=".652" stop-color="#B86559"/><stop offset=".656" stop-color="#B96558"/><stop offset=".66" stop-color="#BA6657"/><stop offset=".664" stop-color="#BA6656"/><stop offset=".668" stop-color="#B65"/><stop offset=".672" stop-color="#BC6654"/><stop offset=".676" stop-color="#BD6753"/><stop offset=".68" stop-color="#BE6752"/><stop offset=".684" stop-color="#BE6751"/><stop offset=".688" stop-color="#BF6850"/><stop offset=".691" stop-color="#C0684F"/><stop offset=".695" stop-color="#C1684E"/><stop offset=".699" stop-color="#C2684D"/><stop offset=".703" stop-color="#C2694C"/><stop offset=".707" stop-color="#C3694B"/><stop offset=".711" stop-color="#C4694A"/><stop offset=".715" stop-color="#C56A49"/><stop offset=".719" stop-color="#C66A48"/><stop offset=".723" stop-color="#C66A47"/><stop offset=".727" stop-color="#C76B46"/><stop offset=".73" stop-color="#C86B45"/><stop offset=".734" stop-color="#C96B44"/><stop offset=".738" stop-color="#CA6B43"/><stop offset=".742" stop-color="#CA6C42"/><stop offset=".746" stop-color="#CB6C41"/><stop offset=".75" stop-color="#CC6C40"/><stop offset=".754" stop-color="#CD6D3F"/><stop offset=".758" stop-color="#CE6D3E"/><stop offset=".762" stop-color="#CE6D3D"/><stop offset=".766" stop-color="#CF6E3C"/><stop offset=".77" stop-color="#D06E3B"/><stop offset=".773" stop-color="#D16E3A"/><stop offset=".777" stop-color="#D26E39"/><stop offset=".781" stop-color="#D26F38"/><stop offset=".785" stop-color="#D36F37"/><stop offset=".789" stop-color="#D46F36"/><stop offset=".793" stop-color="#D57035"/><stop offset=".797" stop-color="#D67034"/><stop offset=".801" stop-color="#D67033"/><stop offset=".805" stop-color="#D77132"/><stop offset=".809" stop-color="#D87131"/><stop offset=".813" stop-color="#D97130"/><stop offset=".816" stop-color="#DA712F"/><stop offset=".82" stop-color="#DA722E"/><stop offset=".824" stop-color="#DB722D"/><stop offset=".828" stop-color="#DC722C"/><stop offset=".832" stop-color="#DD732B"/><stop offset=".836" stop-color="#DE732A"/><stop offset=".84" stop-color="#DE7329"/><stop offset=".844" stop-color="#DF7428"/><stop offset=".848" stop-color="#E07427"/><stop offset=".852" stop-color="#E17426"/><stop offset=".855" stop-color="#E27425"/><stop offset=".859" stop-color="#E27524"/><stop offset=".863" stop-color="#E37523"/><stop offset=".867" stop-color="#E47522"/><stop offset=".871" stop-color="#E57621"/><stop offset=".875" stop-color="#E57620"/><stop offset=".879" stop-color="#E6761F"/><stop offset=".883" stop-color="#E7771E"/><stop offset=".887" stop-color="#E8771D"/><stop offset=".891" stop-color="#E9771C"/><stop offset=".895" stop-color="#E9771B"/><stop offset=".898" stop-color="#EA781A"/><stop offset=".902" stop-color="#EB7819"/><stop offset=".906" stop-color="#EC7818"/><stop offset=".91" stop-color="#ED7917"/><stop offset=".914" stop-color="#ED7916"/><stop offset=".918" stop-color="#EE7915"/><stop offset=".922" stop-color="#EF7A14"/><stop offset=".926" stop-color="#F07A13"/><stop offset=".93" stop-color="#F17A12"/><stop offset=".934" stop-color="#F17A11"/><stop offset=".938" stop-color="#F27B10"/><stop offset=".941" stop-color="#F37B0F"/><stop offset=".945" stop-color="#F47B0E"/><stop offset=".949" stop-color="#F57C0D"/><stop offset=".953" stop-color="#F57C0C"/><stop offset=".957" stop-color="#F67C0B"/><stop offset=".961" stop-color="#F77D0A"/><stop offset=".965" stop-color="#F87D09"/><stop offset=".969" stop-color="#F97D08"/><stop offset=".973" stop-color="#F97D07"/><stop offset=".977" stop-color="#FA7E06"/><stop offset=".98" stop-color="#FB7E05"/><stop offset=".984" stop-color="#FC7E04"/><stop offset=".988" stop-color="#FD7F03"/><stop offset=".992" stop-color="#FD7F02"/><stop offset=".996" stop-color="#FE7F01"/><stop offset="1" stop-color="#FF7F00"/></linearGradient></defs><path fill="#33F" d="M114.773 104.207c0-31.312-25.382-56.695-56.695-56.695-31.308 0-56.691 25.383-56.691 56.695 0 31.309 25.383 56.691 56.691 56.691 31.313 0 56.695-25.382 56.695-56.691m0 0"/><g clip-path="url(#a)"><path fill="none" stroke="#33F" stroke-miterlimit="10" stroke-width="1.196" d="M114.773 104.207c0-31.312-25.382-56.695-56.695-56.695-31.308 0-56.691 25.383-56.691 56.695 0 31.309 25.383 56.691 56.691 56.691 31.313 0 56.695-25.382 56.695-56.691Zm0 0"/></g><use xlink:href="#b" x="19.037" y="107.147"/><use xlink:href="#c" x="29.067" y="107.147"/><use xlink:href="#c" x="36.169" y="107.147"/><use xlink:href="#d" x="42.9" y="107.147"/><use xlink:href="#e" x="52.117" y="107.147"/><use xlink:href="#c" x="58.095" y="107.147"/><use xlink:href="#f" x="64.825" y="107.147"/><use xlink:href="#e" x="72.297" y="107.147"/><use xlink:href="#g" x="78.275" y="107.147"/><use xlink:href="#h" x="84.408" y="107.147"/><use xlink:href="#d" x="91.88" y="107.147"/><path fill="red" stroke="red" stroke-miterlimit="10" stroke-width="1.196" d="M212.715 33.34c0-17.613-14.278-31.89-31.89-31.89-17.614 0-31.891 14.277-31.891 31.89s14.277 31.89 31.89 31.89 31.89-14.277 31.89-31.89Zm0 0"/><use xlink:href="#i" x="168.149" y="30.12"/><use xlink:href="#j" x="175.815" y="30.12"/><use xlink:href="#k" x="181.706" y="30.12"/><use xlink:href="#l" x="184.656" y="30.12"/><use xlink:href="#m" x="187.606" y="30.12"/><use xlink:href="#n" x="163.065" y="41.078"/><use xlink:href="#o" x="167.781" y="41.078"/><use xlink:href="#p" x="173.089" y="41.078"/><use xlink:href="#n" x="178.98" y="41.078"/><use xlink:href="#q" x="183.697" y="41.078"/><use xlink:href="#r" x="188.565" y="41.078"/><use xlink:href="#s" x="194.456" y="41.078"/><g clip-path="url(#t)"><g clip-path="url(#u)"><path fill="#33F" d="m79.691 26.258-49.96 28.844 56.699 98.207 49.957-28.844Zm0 0"/></g></g><g clip-path="url(#v)"><g clip-path="url(#w)"><path fill="red" d="m123.996.68 28.477-16.442 56.699 98.207-28.48 16.442Zm0 0"/></g></g><g clip-path="url(#x)"><g clip-path="url(#y)"><g clip-path="url(#z)"><path fill="url(#A)" d="M110.965 122.844 70.5 52.758l73.355-42.348 40.461 70.086Zm0 0"/></g></g></g><path fill="#FF7F00" d="M231.703 104.207c0-17.613-14.277-31.89-31.89-31.89-17.614 0-31.891 14.277-31.891 31.89s14.277 31.89 31.89 31.89c17.614 0 31.891-14.277 31.891-31.89m0 0"/><g clip-path="url(#B)"><path fill="none" stroke="#FF7F00" stroke-miterlimit="10" stroke-width="1.196" d="M231.703 104.207c0-17.613-14.277-31.89-31.89-31.89-17.614 0-31.891 14.277-31.891 31.89s14.277 31.89 31.89 31.89c17.614 0 31.891-14.277 31.891-31.89Zm0 0"/></g><use xlink:href="#i" x="187.137" y="100.986"/><use xlink:href="#j" x="194.803" y="100.986"/><use xlink:href="#k" x="200.694" y="100.986"/><use xlink:href="#l" x="203.644" y="100.986"/><use xlink:href="#m" x="206.594" y="100.986"/><use xlink:href="#n" x="182.053" y="111.945"/><use xlink:href="#o" x="186.769" y="111.945"/><use xlink:href="#p" x="192.077" y="111.945"/><use xlink:href="#n" x="197.968" y="111.945"/><use xlink:href="#q" x="202.685" y="111.945"/><use xlink:href="#r" x="207.553" y="111.945"/><use xlink:href="#s" x="213.444" y="111.945"/><g clip-path="url(#C)"><g clip-path="url(#D)"><path fill="#33F" d="M115.77 47.504H58.078v113.402h57.692Zm0 0"/></g></g><g clip-path="url(#E)"><g clip-path="url(#F)"><path fill="#FF7F00" d="M166.926 47.504h32.887v113.402h-32.887Zm0 0"/></g></g><g clip-path="url(#G)"><g clip-path="url(#H)"><path fill="url(#I)" d="M114.773 123.598V84.816h53.157v38.782Zm0 0"/></g></g></svg>