<svg xmlns="http://www.w3.org/2000/svg" xmlns:xlink="http://www.w3.org/1999/xlink" width="20.504" height="20.504"><defs><clipPath id="a"><path d="M0 0h20.258v20.258H0Zm0 0"/></clipPath><path id="b" d="M-1.234-7.39c-.313-.313-.875-.376-1.422.171-.688.688-1.156 1.75-.36 2.547l.72.719-.532.531.328.328.531-.531L.5-1.156l-.484.484.328.328.86-.89c.265-.266.718-.72 1-.97l-.329-.327-.61.61-2.468-2.47.797-.796-.328-.329-.844.844-.719-.719c-.781-.78-.312-1.375-.14-1.546.03-.032.078-.079.156-.094a.59.59 0 0 0 .172.515c.297.297.687.157.859-.015.203-.203.297-.578.016-.86m0 0"/></defs><g clip-path="url(#a)"><path fill="none" stroke="#00F" stroke-miterlimit="10" stroke-width="1.19598804" d="m11.23 18.398 7.168-7.168-9.625-9.628L1.602 8.77Zm0 0"/></g><use xlink:href="#b" x="11.23" y="13.702"/></svg>