<svg xmlns="http://www.w3.org/2000/svg" width="40.164" height="40.142"><defs><clipPath id="a"><path d="M23 0h16.746v16H23Zm0 0"/></clipPath><clipPath id="b"><path d="M23 23h16.746v16.715H23Zm0 0"/></clipPath></defs><path fill="none" stroke="#000" stroke-miterlimit="10" stroke-width=".399" d="M10.191 5.469a4.698 4.698 0 1 0-9.395-.003 4.698 4.698 0 0 0 9.395.003Zm0 0"/><g clip-path="url(#a)"><path fill="none" stroke="#000" stroke-miterlimit="10" stroke-width=".399" d="M38.54 5.469a4.7 4.7 0 0 0-4.696-4.7 4.698 4.698 0 1 0 4.695 4.7Zm0 0"/></g><g clip-path="url(#b)"><path fill="none" stroke="#000" stroke-miterlimit="10" stroke-width=".399" d="M38.54 33.813a4.697 4.697 0 1 0-9.395.003 4.697 4.697 0 0 0 9.394-.004Zm0 0"/></g><path fill="none" stroke="#000" stroke-miterlimit="10" stroke-width=".399" d="M10.39 5.469h18.157"/><path fill="none" stroke="#000" stroke-linecap="round" stroke-linejoin="round" stroke-miterlimit="10" stroke-width=".399" d="M26.676 3.074c.379 1.438 1.222 2.114 2.07 2.395-.848.277-1.691.953-2.07 2.39"/><path fill="none" stroke="#000" stroke-miterlimit="10" stroke-width=".399" d="m8.957 8.93 21.14 21.14"/><path fill="none" stroke="#000" stroke-linecap="round" stroke-linejoin="round" stroke-miterlimit="10" stroke-width=".39899601" d="M30.465 27.055c-.746 1.28-.63 2.36-.227 3.156-.797-.402-1.87-.52-3.156.227"/></svg>