<svg xmlns="http://www.w3.org/2000/svg" width="97.427" height="99.974"><defs><clipPath id="a"><path d="M5 0h78v99.96H5Zm0 0"/></clipPath><clipPath id="b"><path d="M0 0h97.14v84H0Zm0 0"/></clipPath><clipPath id="c"><path d="M0 48h83v51.96H0Zm0 0"/></clipPath></defs><path fill="none" stroke="#FF4040" stroke-miterlimit="10" stroke-width=".399" d="M5.902 93.777V6.184"/><path fill="none" stroke="#4040FF" stroke-miterlimit="10" stroke-width=".399" d="M90.945 93.777V6.184"/><path fill="none" stroke="#7F7F7F" stroke-miterlimit="10" stroke-width=".399" d="M5.902 93.777h85.043M5.902 6.184h85.043M.922 98.758V1.203M95.926 98.758V1.203M.922 98.758h95.004M.922 1.203h95.004"/><path fill="none" stroke="#000" stroke-miterlimit="10" stroke-width=".598" d="M48.422 51.102h8.504l8.508-22.457 17.007 11.23"/><g clip-path="url(#a)"><path fill="none" stroke="#000" stroke-miterlimit="10" stroke-width=".598" d="m14.406 93.777 8.504-20.214 8.504-67.38 42.524 67.38"/></g><g clip-path="url(#b)"><path fill="none" stroke="#000" stroke-miterlimit="10" stroke-width=".598" d="m5.902 75.14 17.008-9.32 17.008-27.953L90.945 6.184"/></g><g clip-path="url(#c)"><path fill="none" stroke="#000" stroke-miterlimit="10" stroke-width=".598" d="m5.902 93.777 17.008-9.32 8.504-9.316 42.524-18.637"/></g></svg>