<svg xmlns="http://www.w3.org/2000/svg" width="87.058" height="164.972"><path fill="none" stroke="#000" stroke-miterlimit="10" stroke-width=".399" d="M.54 22.465h21.257V1.203h21.262v42.52h21.257V22.465h21.262M.54 79.156h5.312V73.84h5.316v10.633h5.316v-5.317h5.313V73.84h-5.313v-5.313h10.63v-5.316h-5.317v-5.313h5.316v-5.316h5.317v10.629h5.312v-5.313h5.317v5.313h5.316v5.316H37.742v5.313h5.317v10.633h5.316v5.312H37.742v5.317h5.317v5.316h5.316v-5.316h5.313v10.628h5.316v-5.312h5.312v-5.316h-5.312v-5.317h10.629v-5.312h-5.317v-5.317h5.317V73.84h5.316v10.633h5.313v-5.317h5.316M.54 135.852h1.327v-1.329h1.328v2.657h1.328v-1.328h1.329v-1.329H4.523v-1.332h2.66v-1.328H5.853v-1.328h1.332v-1.328h1.328v2.656H9.84v-1.328h1.328v1.328h1.328v1.328H9.84v1.329h1.328v2.66h1.328v1.328H9.84v1.328h1.328v1.328h1.328v-1.328h1.328v2.656h1.332v-1.328h1.328v-1.328h-1.328v-1.328h2.656v-1.328h-1.328v-1.328h1.328v-1.332h1.329v2.66h1.328v-1.328h1.328v-1.329h-1.328v-1.332h2.656v-1.328h-1.328v-1.328h-1.328v1.328H19.14v-2.656h-1.328v1.328h-1.329v-1.328h-1.328v-1.328h2.656v-1.328h-1.328v-1.332h1.328v-1.328h1.329v2.66h1.328v-1.332h2.656v-1.328h1.332v2.66h1.328v-1.332h1.328v-1.328h-1.328v-1.329h2.656v-1.328h-1.328v-1.328h-1.328v1.328h-1.328v-2.656h-1.332v1.328h-1.328v-1.328h-1.328v-1.332h2.656v-1.328h-1.328v-1.328h1.328v-1.328h1.332v2.656h1.328v-1.328h1.328v-1.328h-1.328v-1.328h2.656v-1.329h-1.328v-1.332h1.328v-1.328h1.329v2.66h1.328v-1.332h1.332v1.332h1.328v1.329h-2.66v1.328h1.332v2.656h1.328v1.328h-2.66v1.332h1.332v1.328h1.328v-1.328h1.328v2.656h1.328v-1.328h1.328v-1.328h-1.328v-1.332h2.656v-1.328h-1.328v-1.328h1.328v-1.328h1.332v2.656h1.328v-1.328h1.329v1.328h1.328v1.328H41.73v1.332h1.329v1.328h1.328v-1.328h1.328v2.656h1.328v-1.328h1.332v1.328h1.328v1.329h-2.66v1.328h1.332v1.328h-1.332v1.332h-1.328v-2.66h-1.328v1.328H41.73v1.332h-1.328v-2.66H39.07v1.328h-1.328v1.332h1.328v1.328h-2.656v1.328h1.328v1.328h1.328v-1.328h1.332v2.656h1.328v-1.328h1.329v1.328h1.328v1.328H41.73v1.329h1.329v2.66h1.328v1.328H41.73v1.328h1.329v1.328h1.328v-1.328h1.328v2.656h1.328v-1.328h1.332v1.328h1.328v1.332h-2.66v1.328h1.332v1.328h-1.332v1.329h-1.328v-2.657h-1.328v1.328H41.73v1.329h-1.328v-2.657H39.07v1.328h-1.328v1.329h1.328v1.328h-2.656v1.328h1.328v1.332h1.328v-1.332h1.332v2.66h1.328v-1.328h1.329v1.328h1.328v1.328H41.73v1.328h1.329v1.328h1.328v-1.328h1.328v2.656h1.328v-1.328h1.332v-1.328h-1.332v-1.328h2.66v-1.328h-1.328v-1.328h1.328v-1.332h1.328v2.66h1.328v-1.328h1.328v1.328h1.329v1.328h-2.657v1.328h1.328v2.656h1.329v1.333h-2.657v1.328h1.328v1.328h1.329v-1.328h1.332v2.656h1.328v-1.328h1.328v-1.328h-1.328v-1.328h2.656v-1.333h-1.328v-1.328h1.328v-1.328h1.328v2.656h1.328v-1.328h1.328v-1.328h-1.328v-1.328h2.66v-1.328h-1.332v-1.328h-1.328v1.328H61.66v-2.66h-1.328v1.332h-1.328v-1.332h-1.328v-1.328h2.656v-1.328h-1.328v-1.329h1.328v-1.328h1.328v2.657h1.328v-1.329h2.66v-1.328h1.329v2.657h1.328v-1.329h1.328v-1.328h-1.328v-1.328h2.656v-1.332h-1.328v-1.328h-1.328v1.328h-1.328v-2.656h-1.329v1.328h-1.332v-1.328h-1.328v-1.328h2.66v-1.328h-1.332v-1.328h1.332v-1.329h1.329v2.657h1.328v-1.328h1.328v-1.329h-1.328v-1.332h2.656v-1.328h-1.328v-1.328h1.328v-1.328h1.328v2.656h1.332v-1.328h1.328v1.328h1.328v1.328h-2.656v1.329h1.328v2.66h1.328v1.328h-2.656v1.328h1.328v1.328h1.328v-1.328h1.328v2.656h1.329v-1.328h1.328v-1.328h-1.328v-1.328h2.66v-1.328h-1.332v-1.328h1.332v-1.332h1.328v2.66h1.328v-1.328h1.328"/></svg>