<svg xmlns="http://www.w3.org/2000/svg" xmlns:xlink="http://www.w3.org/1999/xlink" width="162.581" height="101.721"><defs><path id="b" d="M2.25-1.625c.125-.125.453-.39.594-.5.484-.453.953-.89.953-1.61 0-.953-.797-1.562-1.781-1.562-.97 0-1.594.719-1.594 1.438 0 .39.312.437.422.437.172 0 .422-.11.422-.422 0-.406-.407-.406-.5-.406.234-.594.765-.781 1.156-.781.734 0 1.125.625 1.125 1.297 0 .828-.578 1.437-1.531 2.39l-1 1.047C.422-.219.422-.203.422 0h3.14l.235-1.422h-.25c-.016.156-.078.547-.172.703-.047.063-.656.063-.781.063H1.172Zm0 0"/><path id="d" d="M1.11-4.484c.109.03.421.125.765.125 1 0 1.594-.703 1.594-.828 0-.094-.047-.11-.094-.11-.016 0-.031 0-.094.031a3 3 0 0 1-1.11.22c-.468 0-.858-.11-1.108-.22-.079-.03-.094-.03-.11-.03-.094 0-.094.077-.094.234v2.328c0 .14 0 .234.125.234.063 0 .079-.031.125-.094.094-.11.391-.515 1.079-.515.437 0 .656.359.734.515.125.281.14.656.14.953s0 .735-.218 1.079c-.156.25-.485.484-.906.484A1.27 1.27 0 0 1 .734-.922c.016.016.079.016.079.016.218 0 .406-.14.406-.39a.39.39 0 0 0-.39-.407c-.157 0-.407.078-.407.422 0 .718.625 1.453 1.531 1.453 1 0 1.844-.781 1.844-1.766 0-.922-.672-1.75-1.61-1.75-.39 0-.765.125-1.078.406Zm0 0"/><path id="e" d="M4.031-4.86c.078-.077.078-.093.078-.265H2.08a9 9 0 0 1-.642-.031c-.421-.032-.421-.11-.453-.235h-.25L.47-3.703h.25c.015-.125.11-.672.219-.735.078-.046.687-.046.796-.046h1.688l-.813 1.109C1.703-2.172 1.5-.906 1.5-.281c0 .078 0 .453.375.453s.375-.36.375-.453v-.39c0-1.141.203-2.079.594-2.61Zm0 0"/><path id="f" d="M2.5-5.078c0-.219-.016-.219-.234-.219-.328.313-.75.5-1.5.5v.266c.218 0 .64 0 1.109-.203v4.078c0 .297-.031.39-.781.39H.812V0c.329-.031 1.016-.031 1.376-.031s1.046 0 1.374.031v-.266h-.28c-.75 0-.782-.093-.782-.39Zm0 0"/><path id="g" d="M3.89-2.547c0-.844-.078-1.36-.343-1.875-.344-.703-1-.875-1.438-.875-1 0-1.375.75-1.484.969C.344-3.75.328-2.953.328-2.547c0 .531.016 1.328.406 1.969.36.594.954.75 1.375.75.391 0 1.063-.125 1.47-.906.296-.578.312-1.297.312-1.813M2.11-.062c-.266 0-.813-.125-.985-.954-.094-.453-.094-1.203-.094-1.625 0-.546 0-1.109.094-1.546.172-.813.781-.891.984-.891.266 0 .829.14.985.86.094.437.094 1.046.094 1.577 0 .47 0 1.188-.094 1.641-.172.828-.719.938-.985.938m0 0"/><path id="c" d="M1.625-.437a.463.463 0 0 0-.453-.454.447.447 0 0 0-.438.438.44.44 0 0 0 .438.453.45.45 0 0 0 .453-.437m0 0"/><clipPath id="a"><path d="M8 0h154.371v100H8Zm0 0"/></clipPath></defs><path fill="none" stroke="#7F7F7F" stroke-linecap="round" stroke-miterlimit="10" stroke-width=".399" d="M38.707 92.637v-1.992M74.14 92.637v-1.992M109.578 92.637v-1.992M145.012 92.637v-1.992M38.707 3.05V1.06M74.14 3.05V1.06M109.578 3.05V1.06M145.012 3.05V1.06M15.453 90.645h1.992M15.453 84.074h1.992M15.453 18.379h1.992M159.18 90.645h1.992M159.18 84.074h1.992M159.18 18.379h1.992"/><path fill="none" stroke="#7F7F7F" stroke-miterlimit="10" stroke-width=".399" d="M17.445 90.645H159.18M17.445 3.05H159.18M17.445 90.645V3.05M159.18 90.645V3.05"/><g clip-path="url(#a)"><path fill="none" stroke="#000" stroke-miterlimit="10" stroke-width=".598" d="M17.445 90.645s4.266-.497 5.907-.735c1.636-.242 4.265-.68 5.906-.988 1.637-.313 4.265-.863 5.906-1.242a195 195 0 0 0 5.906-1.496c1.637-.45 4.266-1.23 5.903-1.75 1.64-.52 4.27-1.41 5.906-2 1.64-.594 4.27-1.598 5.906-2.258 1.64-.66 4.266-1.778 5.906-2.508a228 228 0 0 0 5.907-2.762 241 241 0 0 0 5.906-3.02 234 234 0 0 0 5.902-3.269c1.64-.941 4.27-2.508 5.906-3.52 1.641-1.015 4.27-2.695 5.907-3.777 1.64-1.082 4.27-2.879 5.906-4.03a312 312 0 0 0 5.906-4.282 347 347 0 0 0 5.906-4.54 370 370 0 0 0 5.907-4.788 395 395 0 0 0 5.906-5.043 401 401 0 0 0 5.902-5.297c1.641-1.504 4.27-3.977 5.907-5.55 1.64-1.575 4.27-4.161 5.906-5.806a461 461 0 0 0 5.906-6.058 551 551 0 0 0 5.906-6.309c1.637-1.785 5.907-6.566 5.907-6.566"/></g><use xlink:href="#b" x="33.297" y="100.428"/><use xlink:href="#c" x="37.531" y="100.428"/><use xlink:href="#d" x="39.883" y="100.428"/><use xlink:href="#d" x="72.025" y="100.428"/><use xlink:href="#e" x="104.165" y="100.428"/><use xlink:href="#c" x="108.4" y="100.428"/><use xlink:href="#d" x="110.752" y="100.428"/><use xlink:href="#f" x="140.776" y="100.428"/><use xlink:href="#g" x="145.011" y="100.428"/><use xlink:href="#f" x="8.563" y="93.212"/><use xlink:href="#f" x="4.329" y="86.641"/><use xlink:href="#g" x="8.563" y="86.641"/><use xlink:href="#f" x=".095" y="20.947"/><use xlink:href="#g" x="4.329" y="20.947"/><use xlink:href="#g" x="8.564" y="20.947"/></svg>