<svg xmlns="http://www.w3.org/2000/svg" xmlns:xlink="http://www.w3.org/1999/xlink" width="102.998" height="98.552"><defs><path id="a" d="M5.563-1.812c.14 0 .312 0 .312-.172 0-.188-.172-.188-.312-.188H1c-.125 0-.297 0-.297.188 0 .172.172.172.297.172Zm0 0"/><path id="b" d="M1.016-3.328c.203.062.406.078.609.078.14 0 .469 0 .844-.203.11-.063.469-.313.469-.438 0-.078-.047-.093-.079-.093-.015 0-.015 0-.093.03a2.5 2.5 0 0 1-.907.173c-.296 0-.609-.063-.89-.156q-.07-.047-.094-.047c-.094 0-.094.078-.094.172v1.796c0 .094 0 .172.11.172.062 0 .078-.031.109-.078.156-.187.422-.39.89-.39.735 0 .735.89.735 1.078 0 .234-.016.578-.219.828a.95.95 0 0 1-.719.312C1.281-.094.86-.312.72-.672c.297 0 .328-.234.328-.297a.304.304 0 0 0-.313-.312.303.303 0 0 0-.296.328C.438-.406.953.125 1.703.125c.828 0 1.516-.578 1.516-1.328A1.3 1.3 0 0 0 1.89-2.5c-.375 0-.688.125-.875.281Zm0 0"/><path id="c" d="M.969-1.984c.015-.297.031-.797.234-1.157.266-.468.656-.64 1.016-.64.14 0 .422.015.562.187-.219.047-.265.188-.265.297 0 .156.109.281.297.281.171 0 .28-.109.28-.296 0-.376-.265-.672-.874-.672-.938 0-1.844.812-1.844 2.093 0 1.454.672 2.016 1.469 2.016.234 0 .64-.031 1-.39.203-.188.422-.422.422-.954 0-.203-.016-.593-.375-.922-.22-.203-.485-.406-.985-.406-.422 0-.734.219-.937.563m.875 1.89C1-.094 1-1.125 1-1.359c0-.5.328-1 .875-1 .313 0 .484.125.625.312.172.235.172.516.172.828 0 .407-.016.61-.219.86-.14.172-.328.265-.61.265m0 0"/><path id="e" d="M3.219-1.125H3c-.016.094-.078.484-.156.547-.047.047-.531.047-.625.047h-1.11l.766-.625c.203-.172.734-.547.922-.735.172-.171.422-.484.422-.906 0-.75-.672-1.187-1.485-1.187-.765 0-1.296.515-1.296 1.078 0 .297.25.344.312.344a.32.32 0 0 0 .328-.329c0-.125-.078-.328-.344-.328.141-.297.5-.531.922-.531.625 0 .953.469.953.953 0 .422-.28.86-.687 1.25L.5-.25C.438-.187.438-.187.438 0H3.03Zm0 0"/><path id="f" d="M1.766-1.984c.5 0 .843.343.843.953 0 .656-.39.937-.828.937C1.61-.094 1-.125.734-.469c.235-.031.329-.187.329-.343a.33.33 0 0 0-.344-.344.34.34 0 0 0-.344.36c0 .593.656.921 1.422.921.89 0 1.469-.562 1.469-1.156 0-.438-.328-.907-1.047-1.078.484-.157.86-.547.86-1.032 0-.484-.563-.843-1.282-.843-.703 0-1.234.328-1.234.812 0 .266.203.328.328.328.156 0 .312-.094.312-.312 0-.188-.125-.297-.297-.313.282-.312.828-.312.89-.312.298 0 .688.14.688.64 0 .329-.187.907-.796.938-.11 0-.266.015-.313.015-.062.016-.125.016-.125.11s.063.094.156.094Zm0 0"/><path id="g" d="M2.14-3.797c0-.187-.015-.187-.203-.187-.39.39-1 .39-1.218.39v.235c.156 0 .562 0 .922-.172v3.015c0 .204 0 .282-.625.282h-.25V0c.328-.031.797-.031 1.125-.031s.797 0 1.125.031v-.234h-.25c-.625 0-.625-.078-.625-.282Zm0 0"/><path id="d" d="M2.266-2.906h.906c-.156.719-.297 1.312-.297 1.906 0 .047 0 .39.078.688.11.328.188.39.328.39.172 0 .36-.156.36-.344 0-.046 0-.062-.032-.14-.171-.36-.296-.75-.296-1.406 0-.172 0-.516.124-1.094h.97c.124 0 .202 0 .28-.063a.31.31 0 0 0 .125-.25c0-.219-.203-.219-.328-.219H1.61c-.171 0-.484 0-.875.391-.28.281-.5.64-.5.703 0 .078.047.094.11.094.094 0 .11-.016.156-.078.39-.578.86-.578 1.031-.578H2c-.234.844-.656 1.812-.953 2.39C1-.39.922-.234.922-.172c0 .172.125.25.25.25.312 0 .39-.297.562-.953Zm0 0"/><path id="h" d="M3.89-2.547c0-.844-.078-1.36-.343-1.875-.344-.703-1-.875-1.438-.875-1 0-1.375.75-1.484.969C.344-3.75.328-2.953.328-2.547c0 .531.016 1.328.406 1.969.36.594.954.75 1.375.75.391 0 1.063-.125 1.47-.906.296-.578.312-1.297.312-1.813M2.11-.062c-.266 0-.813-.125-.985-.954-.094-.453-.094-1.203-.094-1.625 0-.546 0-1.109.094-1.546.172-.813.781-.891.984-.891.266 0 .829.14.985.86.094.437.094 1.046.094 1.577 0 .47 0 1.188-.094 1.641-.172.828-.719.938-.985.938m0 0"/><path id="i" d="M2.5-5.078c0-.219-.016-.219-.234-.219-.328.313-.75.5-1.5.5v.266c.218 0 .64 0 1.109-.203v4.078c0 .297-.031.39-.781.39H.812V0c.329-.031 1.016-.031 1.376-.031s1.046 0 1.374.031v-.266h-.28c-.75 0-.782-.093-.782-.39Zm0 0"/></defs><path fill="none" stroke="#7F7F7F" stroke-linecap="round" stroke-miterlimit="10" stroke-width=".399" d="m22.453 65.785-1.726.996M34.652 77.984l-.996 1.727M51.316 82.45v1.991M67.98 77.98l.997 1.727M80.18 65.785l1.722.996M84.645 49.121h1.992M80.18 32.457l1.722-.996M67.98 20.258l.997-1.727M51.316 15.793v-1.992M34.652 20.258l-.996-1.727M22.453 32.453l-1.726-.996M17.988 49.117h-1.992M51.316 51.113v-1.992M70.21 51.113v-1.992"/><path fill="none" stroke="#BFBFBF" stroke-linecap="square" stroke-miterlimit="10" stroke-width=".399" d="M22.969 49.121c0 15.656 12.691 28.344 28.347 28.344S79.66 64.773 79.66 49.12c0-15.656-12.691-28.348-28.347-28.348-15.653 0-28.344 12.692-28.344 28.348"/><path fill="none" stroke="#7F7F7F" stroke-linecap="square" stroke-miterlimit="10" stroke-width=".399" d="M17.988 49.121c0 18.406 14.922 33.328 33.328 33.328 18.407-.004 33.329-14.926 33.329-33.332-.004-18.406-14.926-33.324-33.332-33.324-18.403 0-33.325 14.922-33.325 33.324"/><path fill="none" stroke="#BFBFBF" stroke-linecap="square" stroke-miterlimit="10" stroke-width=".399" d="M51.316 49.121H79.66"/><path fill="none" stroke="#7F7F7F" stroke-linecap="square" stroke-miterlimit="10" stroke-width=".399" d="M51.316 49.121H79.66"/><path fill="none" stroke="#000" stroke-miterlimit="10" stroke-width=".399" d="m59.168 48.652 2.816-2.816m-2.816 0 2.816 2.816M67.957 44.945l2.82-2.82m-2.82 0 2.82 2.82M76.016 39.492l2.816-2.82m-2.816 0 2.816 2.82"/><use xlink:href="#a" x=".293" y="76.549"/><use xlink:href="#b" x="8.075" y="73.291"/><path fill="none" stroke="#000" stroke-miterlimit="10" stroke-width=".359" d="M8.074 74.559h3.653"/><use xlink:href="#c" x="8.075" y="79.675"/><use xlink:href="#d" x="12.923" y="76.549"/><use xlink:href="#a" x="13.221" y="89.476"/><use xlink:href="#e" x="21.003" y="86.217"/><path fill="none" stroke="#000" stroke-miterlimit="10" stroke-width=".359" d="M21.004 87.484h3.652"/><use xlink:href="#f" x="21.003" y="92.601"/><use xlink:href="#d" x="25.852" y="89.476"/><use xlink:href="#a" x="42.427" y="94.207"/><use xlink:href="#g" x="50.209" y="90.948"/><path fill="none" stroke="#000" stroke-miterlimit="10" stroke-width=".359" d="M50.21 92.215h3.653"/><use xlink:href="#e" x="50.209" y="97.332"/><use xlink:href="#d" x="55.057" y="94.207"/><use xlink:href="#a" x="71.631" y="89.474"/><use xlink:href="#g" x="79.413" y="86.216"/><path fill="none" stroke="#000" stroke-miterlimit="10" stroke-width=".359" d="M79.414 87.48h3.652"/><use xlink:href="#f" x="79.413" y="92.6"/><use xlink:href="#d" x="84.262" y="89.474"/><use xlink:href="#a" x="84.559" y="76.546"/><use xlink:href="#g" x="92.341" y="73.288"/><path fill="none" stroke="#000" stroke-miterlimit="10" stroke-width=".359" d="M92.34 74.555h3.652"/><use xlink:href="#c" x="92.341" y="79.672"/><use xlink:href="#d" x="97.189" y="76.546"/><use xlink:href="#h" x="89.291" y="51.688"/><use xlink:href="#g" x="85.754" y="22.421"/><path fill="none" stroke="#000" stroke-miterlimit="10" stroke-width=".359" d="M85.754 23.688h3.652"/><use xlink:href="#c" x="85.754" y="28.805"/><use xlink:href="#d" x="90.603" y="25.679"/><use xlink:href="#g" x="72.827" y="9.493"/><path fill="none" stroke="#000" stroke-miterlimit="10" stroke-width=".359" d="M72.828 10.758h3.652"/><use xlink:href="#f" x="72.827" y="15.877"/><use xlink:href="#d" x="77.675" y="12.751"/><use xlink:href="#g" x="46.915" y="4.76"/><path fill="none" stroke="#000" stroke-miterlimit="10" stroke-width=".359" d="M46.914 6.027h3.652"/><use xlink:href="#e" x="46.915" y="11.144"/><use xlink:href="#d" x="51.764" y="8.019"/><use xlink:href="#e" x="21.003" y="9.491"/><path fill="none" stroke="#000" stroke-miterlimit="10" stroke-width=".359" d="M21.004 10.758h3.652"/><use xlink:href="#f" x="21.003" y="15.875"/><use xlink:href="#d" x="25.852" y="12.75"/><use xlink:href="#b" x="8.075" y="22.418"/><path fill="none" stroke="#000" stroke-miterlimit="10" stroke-width=".359" d="M8.074 23.684h3.653"/><use xlink:href="#c" x="8.075" y="28.802"/><use xlink:href="#d" x="12.923" y="25.676"/><use xlink:href="#d" x="8.19" y="50.833"/><use xlink:href="#h" x="49.197" y="58.905"/><use xlink:href="#i" x="68.095" y="58.905"/></svg>