<svg xmlns="http://www.w3.org/2000/svg" xmlns:xlink="http://www.w3.org/1999/xlink" width="87.465" height="141.914"><defs><path id="a" d="M4.922 0v-.469h-1.39v-5.734c0-.234 0-.328-.266-.328-.11 0-.125 0-.22.078-.765.562-1.796.562-2 .562H.845v.47h.203c.156 0 .703-.016 1.297-.204v5.156H.954V0c.437-.031 1.5-.031 1.984-.031s1.546 0 1.984.031m0 0"/><path id="b" d="M5.156-2.219h-.468c-.032.203-.125.844-.266.906-.11.063-.86.063-1.016.063H1.937c.47-.39 1-.812 1.438-1.14 1.14-.844 1.781-1.313 1.781-2.25 0-1.157-1.047-1.891-2.437-1.891-1.219 0-2.156.625-2.156 1.515 0 .594.484.735.718.735C1.61-4.281 2-4.5 2-5c0-.516-.422-.672-.562-.719.28-.234.671-.343 1.03-.343.845 0 1.313.671 1.313 1.421 0 .688-.375 1.375-1.078 2.079l-2 2.046c-.14.11-.14.141-.14.344V0h4.28Zm0 0"/><path id="c" d="M5.25-1.797c0-.547-.297-1.406-1.734-1.719.687-.203 1.406-.765 1.406-1.625 0-.765-.75-1.39-2.156-1.39-1.188 0-1.97.64-1.97 1.437 0 .422.313.703.688.703a.67.67 0 0 0 .704-.687c0-.578-.547-.688-.579-.703.344-.282.782-.36 1.094-.36.828 0 .86.641.86.97 0 .124-.016 1.437-1.047 1.5-.407.015-.438.015-.485.03-.094.016-.125.11-.125.172 0 .172.11.172.282.172h.437c1.094 0 1.094.985 1.094 1.5 0 .469 0 1.485-1.031 1.485-.266 0-.782-.047-1.266-.344C1.75-.75 2-1 2-1.406c0-.453-.312-.75-.75-.75-.422 0-.766.265-.766.765 0 .907.97 1.5 2.25 1.5 1.782 0 2.516-1 2.516-1.906m0 0"/><path id="d" d="M5.406 0v-.469h-.968v-1.094h.968v-.468h-.968V-6.22c0-.265-.016-.328-.297-.328-.22 0-.22.016-.344.172L.313-2.031v.469h2.875V-.47h-1.11V0c.375-.031 1.281-.031 1.703-.031.406 0 1.266 0 1.625.031m-2.11-2.031H.845L3.297-5.11Zm0 0"/><path id="e" d="M5.156-2c0-1.156-.797-2.078-2.265-2.078-.282 0-.813.031-1.282.344v-1.313c.282.047.391.078.72.078 1.452 0 2.374-1.125 2.374-1.375 0-.078-.016-.187-.14-.187-.032 0-.032 0-.141.047a4.3 4.3 0 0 1-1.531.28c-.75 0-1.282-.202-1.547-.28-.094-.032-.094-.047-.125-.047-.14 0-.14.11-.14.265v2.922c0 .172 0 .297.218.297.125 0 .156-.031.219-.11.39-.468.922-.562 1.328-.562.89 0 .89.875.89 1.672 0 .735 0 1.735-1.187 1.735-.25 0-.875-.063-1.297-.625.36-.016.656-.266.656-.672 0-.532-.437-.672-.672-.672-.14 0-.671.094-.671.703 0 .844.78 1.687 2.015 1.687C4.172.11 5.156-.78 5.156-2m0 0"/><path id="f" d="M2.047 5.25c1.39 0 2.125-1.016 2.125-2.219 0-.219 0-.781-.766-1.203h.188c1.14 0 1.562.219 1.719.281.468.25.828.782.828 1.391 0 .172-.032.516-.266.75a.595.595 0 0 0-.61-.547c-.343 0-.624.235-.624.625s.265.625.64.625c.625 0 1.25-.422 1.25-1.469 0-1.359-.86-3-3.375-3-.781 0-1.578.079-2.265.5-.766.47-1 1.22-1 1.922 0 1.375.812 2.344 2.156 2.344m.015-1.36c-1 0-1.75 0-1.75-1.015 0-.516.391-.781.563-.86.313-.156 1.031-.156 1.219-.156 1.25 0 1.719.532 1.719 1.079 0 .953-.75.953-1.75.953m0 0"/><path id="h" d="M1.86 5.25c1.078 0 1.546-.844 1.828-1.328.359.687.796 1 1.374 1 1.016 0 1.47-.906 1.47-2.047 0-1.375-.798-2.078-1.75-2.078-.438 0-1.063.187-1.5.953C2.905.922 2.343.484 1.608.484.406.484-.109 1.563-.109 2.844c0 1.594.875 2.406 1.968 2.406m3.187-1.078c-.484 0-.813-.25-1.11-.688l.844-1.5c.078-.156.25-.437.594-.437.703 0 .766.89.766 1.297 0 .828-.407 1.328-1.094 1.328m-3.734.219c-.829 0-1-.938-1-1.516 0-.969.515-1.547 1.296-1.547.766 0 1.204.531 1.407.89l-.766 1.36c-.25.438-.453.813-.937.813m0 0"/><path id="j" d="M0 4.922h.469v-1.39h5.734c.234 0 .328 0 .328-.266 0-.11 0-.125-.078-.22-.562-.765-.562-1.796-.562-2V.845h-.47v.203c0 .156.016.703.204 1.297H.469V.954H0c.031.437.031 1.5.031 1.984s0 1.546-.031 1.984m0 0"/><path id="k" d="M3.188 5.281c.953 0 3.343-.015 3.343-2.422S4.156.453 3.188.453c-1 0-3.297 0-3.297 2.406 0 2.391 2.297 2.422 3.297 2.422M3.297 4c-.563 0-1.469 0-1.985-.078C.391 3.782.25 3.156.25 2.859c0-.359.219-.921.953-1.046.516-.094 1.547-.094 2.094-.094.719 0 1.375 0 1.89.078.891.125.985.828.985 1.062 0 .375-.188.782-.625.97C5.172 4 4.109 4 3.297 4m0 0"/><path id="m" d="M2.219 5.156v-.468c-.203-.032-.844-.125-.906-.266-.063-.11-.063-.86-.063-1.016V1.937c.39.47.813 1 1.14 1.438.844 1.14 1.313 1.781 2.25 1.781 1.157 0 1.891-1.047 1.891-2.437C6.531 1.5 5.906.563 5.016.563c-.594 0-.735.484-.735.718C4.281 1.61 4.5 2 5 2c.516 0 .672-.422.719-.562.234.28.343.671.343 1.03 0 .845-.671 1.313-1.421 1.313-.688 0-1.375-.375-2.078-1.078l-2.047-2C.406.563.375.563.172.563H0v4.28Zm0 0"/><path id="o" d="M0 5.406h.469v-.968h1.094v.968h.468v-.968H6.22c.265 0 .328-.016.328-.297 0-.22-.016-.22-.172-.344L2.031.313h-.469v2.875H.47v-1.11H0c.031.375.031 1.281.031 1.703 0 .406 0 1.266-.031 1.625m2.031-2.11V.845L5.11 3.297Zm0 0"/><path id="p" d="M2 5.156c1.156 0 2.078-.797 2.078-2.265 0-.282-.031-.813-.344-1.282h1.313c-.047.282-.078.391-.078.72 0 1.452 1.125 2.374 1.375 2.374.078 0 .187-.016.187-.14 0-.032 0-.032-.047-.141a4.3 4.3 0 0 1-.28-1.531c0-.75.202-1.282.28-1.547.032-.094.047-.094.047-.125 0-.14-.11-.14-.265-.14H3.344c-.172 0-.297 0-.297.218 0 .125.031.156.11.219.468.39.562.922.562 1.328 0 .89-.875.89-1.672.89-.735 0-1.735 0-1.735-1.187 0-.25.063-.875.626-1.297.015.36.265.656.671.656.532 0 .672-.437.672-.672 0-.14-.094-.671-.703-.671-.844 0-1.687.78-1.687 2.015C-.11 4.172.78 5.156 2 5.156m0 0"/><path id="g" d="M-6.422-5.562v2.03c0 .235-.047 1.704-.094 1.845-.03.203-.125.218-.218.234v.469l2.53.343v-.468c-.765-.094-.89-.22-.905-.266-.063-.11-.063-.922-.063-1.094V-4.14c.219.172.422.36.64.547 1.126.953 2.47 1.672 3.938 1.672.703 0 .703-.562.703-.625 0-.156-.046-.625-.703-.625h-.468c-.47 0-.954-.031-1.422-.094-.672-.093-1.25-.296-1.657-.656l-1.796-1.547c-.11-.093-.141-.093-.485-.093m0 0"/><path id="i" d="M-3.281-5.25c-.672 0-3.25 0-3.25 2.375 0 1.406.812 2.39 2.14 2.39 1.375 0 2.125-.984 2.125-2.202 0-.36-.062-.829-.765-1.204h.219c.734 0 1.312.094 1.656.235.39.172.843.61.843 1.297 0 .172-.03.53-.218.828-.031-.11-.172-.485-.625-.485-.344 0-.625.235-.625.625 0 .391.265.625.64.625.688 0 1.25-.515 1.25-1.609 0-1.297-.843-2.875-3.39-2.875m-.985 1.375c.625 0 1.641.25 1.641 1.094 0 .953-.75.953-1.734.953-.985 0-1.782 0-1.782-1.078 0-.578.532-.813.625-.86.329-.109.907-.109 1.25-.109m0 0"/><path id="l" d="M0-4.922h-.469v1.39h-5.734c-.234 0-.328 0-.328.266 0 .11 0 .125.078.22.562.765.562 1.796.562 2v.202h.47v-.203c0-.156-.016-.703-.204-1.297h5.156v1.39H0c-.031-.437-.031-1.5-.031-1.983 0-.485 0-1.547.031-1.985m0 0"/><path id="n" d="M-1.797-5.25c-.547 0-1.406.297-1.719 1.734-.203-.687-.765-1.406-1.625-1.406-.765 0-1.39.75-1.39 2.156 0 1.188.64 1.97 1.437 1.97a.68.68 0 0 0 .703-.688.67.67 0 0 0-.687-.703c-.578 0-.688.546-.703.578-.282-.344-.36-.782-.36-1.094 0-.828.641-.86.97-.86.124 0 1.437.016 1.5 1.047.015.407.015.438.03.485.016.094.11.125.172.125.172 0 .172-.11.172-.282v-.437c0-1.094.985-1.094 1.5-1.094.469 0 1.485 0 1.485 1.031 0 .266-.047.782-.344 1.266C-.75-1.75-1-2-1.406-2c-.453 0-.75.313-.75.75 0 .422.265.766.765.766.907 0 1.5-.97 1.5-2.25 0-1.782-1-2.516-1.906-2.516m0 0"/><path id="x" d="M-2.219-5.156v.468c.203.032.844.125.906.266.063.11.063.86.063 1.016v1.469c-.39-.47-.812-1-1.14-1.438-.844-1.14-1.313-1.781-2.25-1.781-1.157 0-1.891 1.047-1.891 2.437 0 1.219.625 2.157 1.515 2.157.594 0 .735-.485.735-.72C-4.281-1.608-4.5-2-5-2c-.516 0-.672.422-.719.563-.234-.282-.343-.672-.343-1.032 0-.844.671-1.312 1.421-1.312.688 0 1.375.375 2.079 1.078l2.046 2c.11.14.141.14.344.14H0v-4.28Zm0 0"/><path id="y" d="M-2-5.156c-1.156 0-2.078.797-2.078 2.265 0 .282.031.813.344 1.282h-1.313c.047-.282.078-.391.078-.72 0-1.452-1.125-2.374-1.375-2.374-.078 0-.187.016-.187.14 0 .032 0 .032.047.141a4.3 4.3 0 0 1 .28 1.531c0 .75-.202 1.282-.28 1.547-.032.094-.047.094-.047.125 0 .14.11.14.265.14h2.922c.172 0 .297 0 .297-.218 0-.125-.031-.156-.11-.219-.468-.39-.562-.921-.562-1.328 0-.89.875-.89 1.672-.89.735 0 1.735 0 1.735 1.187 0 .25-.063.875-.625 1.297-.016-.36-.266-.656-.672-.656-.532 0-.672.437-.672.672 0 .14.094.672.703.672.844 0 1.687-.782 1.687-2.016C.11-4.172-.78-5.156-2-5.156m0 0"/><path id="z" d="M-2.047-5.25c-1.39 0-2.125 1.016-2.125 2.219 0 .219 0 .781.766 1.203h-.188c-1.14 0-1.562-.219-1.719-.281A1.6 1.6 0 0 1-6.14-3.5c0-.172.032-.516.266-.75.047.36.313.547.61.547.343 0 .624-.235.624-.625s-.265-.625-.64-.625c-.625 0-1.25.422-1.25 1.469 0 1.359.86 3 3.375 3 .781 0 1.578-.079 2.265-.5.766-.47 1-1.22 1-1.922 0-1.375-.812-2.344-2.156-2.344m-.015 1.36c1 0 1.75 0 1.75 1.015 0 .516-.391.781-.563.86-.312.156-1.031.156-1.219.156-1.25 0-1.719-.532-1.719-1.078 0-.954.75-.954 1.75-.954m0 0"/><path id="q" d="M-4.922 0v.469h1.39v5.734c0 .234 0 .328.266.328.11 0 .125 0 .22-.078.765-.562 1.796-.562 2-.562h.202v-.47h-.203c-.156 0-.703.016-1.297.204V.469h1.39V0c-.437.031-1.5.031-1.983.031-.485 0-1.547 0-1.985-.031m0 0"/><path id="r" d="M-5.25 2.047c0 1.39 1.016 2.125 2.219 2.125.219 0 .781 0 1.203-.766v.188c0 1.14-.219 1.562-.281 1.719-.25.468-.782.828-1.391.828-.172 0-.516-.032-.75-.266a.595.595 0 0 0 .547-.61c0-.343-.235-.624-.625-.624s-.625.265-.625.64c0 .625.422 1.25 1.469 1.25 1.359 0 3-.86 3-3.375 0-.781-.079-1.578-.5-2.265-.47-.766-1.22-1-1.922-1-1.375 0-2.344.812-2.344 2.156m1.36.015c0-1 0-1.75 1.015-1.75.516 0 .781.391.86.563.156.313.156 1.031.156 1.219 0 1.25-.532 1.719-1.078 1.719-.954 0-.954-.75-.954-1.75m0 0"/><path id="s" d="M-5.562 6.422h2.03c.235 0 1.704.047 1.845.094.203.03.218.125.234.218h.469l.343-2.53h-.468c-.094.765-.22.89-.266.905-.11.063-.922.063-1.094.063H-4.14c.172-.219.36-.422.547-.64.953-1.126 1.672-2.47 1.672-3.938 0-.703-.562-.703-.625-.703-.156 0-.625.047-.625.703v.469c0 .468-.031.953-.094 1.421-.093.672-.296 1.25-.656 1.657l-1.547 1.797c-.093.109-.093.14-.093.484m0 0"/><path id="t" d="M-5.25 1.86c0 1.078.844 1.546 1.328 1.828-.687.359-1 .796-1 1.374 0 1.016.906 1.47 2.047 1.47 1.375 0 2.078-.798 2.078-1.75 0-.438-.187-1.063-.953-1.5.828-.376 1.266-.938 1.266-1.673 0-1.203-1.078-1.718-2.36-1.718-1.594 0-2.406.875-2.406 1.968m1.078 3.187c0-.484.25-.813.688-1.11l1.5.844c.156.078.437.25.437.594 0 .703-.89.766-1.297.766-.828 0-1.328-.407-1.328-1.094m-.219-3.734c0-.829.938-1 1.516-1 .969 0 1.547.515 1.547 1.296 0 .766-.531 1.204-.89 1.407l-1.36-.766c-.438-.25-.813-.453-.813-.937m0 0"/><clipPath id="u"><path d="M29 131h29v10.871H29Zm0 0"/></clipPath><clipPath id="v"><path d="M14 123h27v18.871H14Zm0 0"/></clipPath><clipPath id="w"><path d="M46 123h27v18.871H46Zm0 0"/></clipPath></defs><use xlink:href="#a" x="40.605" y="80.972"/><use xlink:href="#b" x="40.605" y="63.965"/><use xlink:href="#c" x="40.605" y="46.902"/><use xlink:href="#d" x="40.605" y="29.954"/><use xlink:href="#e" x="40.605" y="12.886"/><path fill="none" stroke="#000" stroke-miterlimit="10" stroke-width=".399" d="M34.965 1.172h17.008"/><use xlink:href="#f" x="57.27" y="6.814"/><path fill="none" stroke="#7F7F7F" stroke-miterlimit="10" stroke-width=".199" d="M68.98 1.172v17.012"/><path fill="none" stroke="#000" stroke-miterlimit="10" stroke-width=".399" d="m68.98 1.172 3.403 8.504-3.403 8.508"/><path fill="none" stroke="#7F7F7F" stroke-miterlimit="10" stroke-width=".199" d="M68.98 18.184H51.973"/><path fill="none" stroke="#000" stroke-miterlimit="10" stroke-width=".399" d="m68.98 18.184-8.503 3.398-8.504-3.398"/><path fill="none" stroke="#7F7F7F" stroke-miterlimit="10" stroke-width=".199" d="M51.973 18.184V1.172"/><path fill="none" stroke="#000" stroke-miterlimit="10" stroke-width=".399" d="M51.973 1.172H68.98"/><path fill="none" stroke="#7F7F7F" stroke-miterlimit="10" stroke-width=".199" d="M51.973 18.184H34.965"/><use xlink:href="#g" x="29.774" y="12.542"/><path fill="none" stroke="#7F7F7F" stroke-miterlimit="10" stroke-width=".199" d="M17.957 18.184V1.172"/><path fill="none" stroke="#000" stroke-miterlimit="10" stroke-width=".399" d="m17.957 18.184-3.402-8.508 3.402-8.504M17.957 1.172h17.008"/><path fill="none" stroke="#7F7F7F" stroke-miterlimit="10" stroke-width=".199" d="M34.965 1.172v17.012M34.965 18.184H17.957"/><path fill="none" stroke="#000" stroke-miterlimit="10" stroke-width=".399" d="m34.965 18.184-8.504 3.398-8.504-3.398"/><use xlink:href="#h" x="53.675" y="23.822"/><path fill="none" stroke="#7F7F7F" stroke-miterlimit="10" stroke-width=".199" d="m66.703 26.688-14.73 8.503"/><path fill="none" stroke="#000" stroke-miterlimit="10" stroke-width=".399" d="m66.703 26.688-5.664 7.195-9.066 1.308"/><path fill="none" stroke="#7F7F7F" stroke-miterlimit="10" stroke-width=".199" d="M51.973 35.191V18.184"/><path fill="none" stroke="#000" stroke-miterlimit="10" stroke-width=".399" d="m51.973 18.184 14.73 8.503"/><path fill="none" stroke="#7F7F7F" stroke-miterlimit="10" stroke-width=".199" d="M51.973 35.191H34.965"/><use xlink:href="#i" x="33.264" y="29.55"/><path fill="none" stroke="#000" stroke-miterlimit="10" stroke-width=".399" d="m20.234 26.688 14.73-8.504"/><path fill="none" stroke="#7F7F7F" stroke-miterlimit="10" stroke-width=".199" d="M34.965 18.184V35.19M34.965 35.191l-14.73-8.504"/><path fill="none" stroke="#000" stroke-miterlimit="10" stroke-width=".399" d="m34.965 35.191-9.067-1.308-5.664-7.196"/><use xlink:href="#j" x="57.27" y="37.965"/><use xlink:href="#k" x="57.27" y="43.694"/><path fill="none" stroke="#7F7F7F" stroke-miterlimit="10" stroke-width=".199" d="M68.98 35.191V52.2"/><path fill="none" stroke="#000" stroke-miterlimit="10" stroke-width=".399" d="m68.98 35.191 3.403 8.504L68.98 52.2"/><path fill="none" stroke="#7F7F7F" stroke-miterlimit="10" stroke-width=".199" d="M68.98 52.2H51.973"/><path fill="none" stroke="#000" stroke-miterlimit="10" stroke-width=".399" d="m68.98 52.2-8.503 3.398-8.504-3.399"/><path fill="none" stroke="#7F7F7F" stroke-miterlimit="10" stroke-width=".199" d="M51.973 52.2V35.19"/><path fill="none" stroke="#000" stroke-miterlimit="10" stroke-width=".399" d="M51.973 35.191H68.98"/><path fill="none" stroke="#7F7F7F" stroke-miterlimit="10" stroke-width=".199" d="M51.973 52.2H34.965"/><use xlink:href="#l" x="29.724" y="49.422"/><use xlink:href="#l" x="29.724" y="43.693"/><path fill="none" stroke="#7F7F7F" stroke-miterlimit="10" stroke-width=".199" d="M17.957 52.2V35.19"/><path fill="none" stroke="#000" stroke-miterlimit="10" stroke-width=".399" d="m17.957 52.2-3.402-8.505 3.402-8.504M17.957 35.191h17.008"/><path fill="none" stroke="#7F7F7F" stroke-miterlimit="10" stroke-width=".199" d="M34.965 35.191V52.2M34.965 52.2H17.957"/><path fill="none" stroke="#000" stroke-miterlimit="10" stroke-width=".399" d="m34.965 52.2-8.504 3.398-8.504-3.399"/><use xlink:href="#j" x="53.62" y="54.973"/><use xlink:href="#m" x="53.62" y="60.702"/><path fill="none" stroke="#7F7F7F" stroke-miterlimit="10" stroke-width=".199" d="m66.703 60.703-14.73 8.504"/><path fill="none" stroke="#000" stroke-miterlimit="10" stroke-width=".399" d="m66.703 60.703-5.664 7.195-9.066 1.309"/><path fill="none" stroke="#7F7F7F" stroke-miterlimit="10" stroke-width=".199" d="M51.973 69.207V52.199"/><path fill="none" stroke="#000" stroke-miterlimit="10" stroke-width=".399" d="m51.973 52.2 14.73 8.503"/><path fill="none" stroke="#7F7F7F" stroke-miterlimit="10" stroke-width=".199" d="M51.973 69.207H34.965"/><use xlink:href="#l" x="33.264" y="66.43"/><use xlink:href="#n" x="33.264" y="60.701"/><path fill="none" stroke="#000" stroke-miterlimit="10" stroke-width=".399" d="m20.234 60.703 14.73-8.504"/><path fill="none" stroke="#7F7F7F" stroke-miterlimit="10" stroke-width=".199" d="M34.965 52.2v17.007M34.965 69.207l-14.73-8.504"/><path fill="none" stroke="#000" stroke-miterlimit="10" stroke-width=".399" d="m34.965 69.207-9.067-1.309-5.664-7.195"/><use xlink:href="#j" x="57.209" y="71.981"/><use xlink:href="#o" x="57.209" y="77.71"/><use xlink:href="#j" x="74.278" y="71.981"/><use xlink:href="#p" x="74.278" y="77.71"/><path fill="none" stroke="#000" stroke-miterlimit="10" stroke-width=".399" d="M85.988 69.207v17.008M85.988 86.215H68.98"/><path fill="none" stroke="#7F7F7F" stroke-miterlimit="10" stroke-width=".199" d="M68.98 86.215V69.207"/><path fill="none" stroke="#000" stroke-miterlimit="10" stroke-width=".399" d="M68.98 69.207h17.008"/><path fill="none" stroke="#7F7F7F" stroke-miterlimit="10" stroke-width=".199" d="M68.98 86.215H51.973"/><path fill="none" stroke="#000" stroke-miterlimit="10" stroke-width=".399" d="m68.98 86.215-8.503 3.402-8.504-3.402"/><path fill="none" stroke="#7F7F7F" stroke-miterlimit="10" stroke-width=".199" d="M51.973 86.215V69.207"/><path fill="none" stroke="#000" stroke-miterlimit="10" stroke-width=".399" d="M51.973 69.207H68.98"/><use xlink:href="#q" x="49.197" y="91.51"/><use xlink:href="#r" x="43.469" y="91.51"/><use xlink:href="#q" x="49.197" y="108.413"/><use xlink:href="#s" x="43.469" y="108.413"/><use xlink:href="#q" x="49.197" y="125.525"/><use xlink:href="#t" x="43.469" y="125.525"/><path fill="none" stroke="#7F7F7F" stroke-miterlimit="10" stroke-width=".199" d="M51.973 137.238H34.965"/><g clip-path="url(#u)"><path fill="none" stroke="#000" stroke-miterlimit="10" stroke-width=".399" d="m51.973 137.238-8.504 3.403-8.504-3.403"/></g><use xlink:href="#l" x="33.264" y="134.462"/><use xlink:href="#i" x="33.264" y="128.733"/><path fill="none" stroke="#000" stroke-miterlimit="10" stroke-width=".399" d="m20.234 128.734 14.73-8.504"/><path fill="none" stroke="#7F7F7F" stroke-miterlimit="10" stroke-width=".199" d="M34.965 120.23v17.008M34.965 137.238l-14.73-8.504"/><g clip-path="url(#v)"><path fill="none" stroke="#000" stroke-miterlimit="10" stroke-width=".399" d="m34.965 137.238-9.067-1.304-5.664-7.2"/></g><path fill="none" stroke="#7F7F7F" stroke-miterlimit="10" stroke-width=".199" d="M34.965 120.23h17.008"/><use xlink:href="#m" x="53.675" y="123.005"/><use xlink:href="#k" x="53.675" y="128.734"/><path fill="none" stroke="#7F7F7F" stroke-miterlimit="10" stroke-width=".199" d="m66.703 128.734-14.73 8.504"/><g clip-path="url(#w)"><path fill="none" stroke="#000" stroke-miterlimit="10" stroke-width=".399" d="m66.703 128.734-5.664 7.2-9.066 1.304"/></g><path fill="none" stroke="#7F7F7F" stroke-miterlimit="10" stroke-width=".199" d="M51.973 137.238V120.23"/><path fill="none" stroke="#000" stroke-miterlimit="10" stroke-width=".399" d="m51.973 120.23 14.73 8.504"/><use xlink:href="#x" x="29.724" y="117.454"/><use xlink:href="#l" x="29.724" y="111.725"/><path fill="none" stroke="#7F7F7F" stroke-miterlimit="10" stroke-width=".199" d="M17.957 120.23v-17.007"/><path fill="none" stroke="#000" stroke-miterlimit="10" stroke-width=".399" d="m17.957 120.23-3.402-8.503 3.402-8.504M17.957 103.223h17.008"/><path fill="none" stroke="#7F7F7F" stroke-miterlimit="10" stroke-width=".199" d="M34.965 103.223v17.007M34.965 120.23H17.957"/><path fill="none" stroke="#000" stroke-miterlimit="10" stroke-width=".399" d="m34.965 120.23-8.504 3.403-8.504-3.403"/><path fill="none" stroke="#7F7F7F" stroke-miterlimit="10" stroke-width=".199" d="M34.965 103.223h17.008"/><use xlink:href="#m" x="57.215" y="105.997"/><use xlink:href="#m" x="57.215" y="111.726"/><path fill="none" stroke="#7F7F7F" stroke-miterlimit="10" stroke-width=".199" d="M68.98 103.223v17.007"/><path fill="none" stroke="#000" stroke-miterlimit="10" stroke-width=".399" d="m68.98 103.223 3.403 8.504-3.403 8.503"/><path fill="none" stroke="#7F7F7F" stroke-miterlimit="10" stroke-width=".199" d="M68.98 120.23H51.973"/><path fill="none" stroke="#000" stroke-miterlimit="10" stroke-width=".399" d="m68.98 120.23-8.503 3.403-8.504-3.403"/><path fill="none" stroke="#7F7F7F" stroke-miterlimit="10" stroke-width=".199" d="M51.973 120.23v-17.007"/><path fill="none" stroke="#000" stroke-miterlimit="10" stroke-width=".399" d="M51.973 103.223H68.98"/><use xlink:href="#x" x="33.264" y="100.446"/><use xlink:href="#n" x="33.264" y="94.717"/><path fill="none" stroke="#000" stroke-miterlimit="10" stroke-width=".399" d="m20.234 94.719 14.73-8.504"/><path fill="none" stroke="#7F7F7F" stroke-miterlimit="10" stroke-width=".199" d="M34.965 86.215v17.008M34.965 103.223l-14.73-8.504"/><path fill="none" stroke="#000" stroke-miterlimit="10" stroke-width=".399" d="m34.965 103.223-9.067-1.309-5.664-7.195"/><path fill="none" stroke="#7F7F7F" stroke-miterlimit="10" stroke-width=".199" d="M34.965 86.215h17.008"/><use xlink:href="#m" x="53.615" y="88.989"/><use xlink:href="#o" x="53.615" y="94.718"/><path fill="none" stroke="#7F7F7F" stroke-miterlimit="10" stroke-width=".199" d="m66.703 94.719-14.73 8.504"/><path fill="none" stroke="#000" stroke-miterlimit="10" stroke-width=".399" d="m66.703 94.719-5.664 7.195-9.066 1.309"/><path fill="none" stroke="#7F7F7F" stroke-miterlimit="10" stroke-width=".199" d="M51.973 103.223V86.215"/><path fill="none" stroke="#000" stroke-miterlimit="10" stroke-width=".399" d="m51.973 86.215 14.73 8.504"/><use xlink:href="#x" x="29.669" y="83.438"/><use xlink:href="#y" x="29.669" y="77.709"/><use xlink:href="#x" x="12.662" y="83.438"/><use xlink:href="#z" x="12.662" y="77.709"/><path fill="none" stroke="#000" stroke-miterlimit="10" stroke-width=".399" d="M.95 86.215V69.207M.95 69.207h17.007"/><path fill="none" stroke="#7F7F7F" stroke-miterlimit="10" stroke-width=".199" d="M17.957 69.207v17.008"/><path fill="none" stroke="#000" stroke-miterlimit="10" stroke-width=".399" d="M17.957 86.215H.949M17.957 69.207h17.008"/><path fill="none" stroke="#7F7F7F" stroke-miterlimit="10" stroke-width=".199" d="M34.965 69.207v17.008M34.965 86.215H17.957"/><path fill="none" stroke="#000" stroke-miterlimit="10" stroke-width=".399" d="m34.965 86.215-8.504 3.402-8.504-3.402"/></svg>