<svg xmlns="http://www.w3.org/2000/svg" xmlns:xlink="http://www.w3.org/1999/xlink" width="270.653" height="129.26"><defs><path id="a" d="M5.984 0v-.469h-.687V-4.53l-1.75.062-.016.047H2.078v-.984c0-.828.672-1.219 1.594-1.219.281 0 .5.063.719.188-.157.062-.438.234-.438.625 0 .39.297.656.656.656s.657-.25.657-.672c0-.516-.438-1.156-1.532-1.156-1.234 0-2.671.39-2.671 1.562v1h-.75v.469h.75V-.47H.375V0l1.219-.031L2.828 0v-.469h-.687v-3.484h1.78c.25 0 .313 0 .313.344v3.14h-.703V0l1.235-.031Zm0 0"/><path id="b" d="M4.406-3.672c0-.531-.531-.812-1.062-.812-.688 0-1.094.5-1.313 1.125v-1.125l-1.656.078v.468c.61 0 .688 0 .688.391v3.078H.375V0l1.25-.031C2-.031 2.641-.031 3 0v-.469h-.86v-1.75c0-.687.235-1.906 1.235-1.906 0 0-.187.172-.187.453 0 .406.328.61.609.61.297 0 .61-.204.61-.61m0 0"/><path id="c" d="M4.14-1.39c0-.438-.202-.782-.546-1.063-.39-.281-.719-.344-1.485-.485-.375-.062-1.015-.171-1.015-.64 0-.625.922-.625 1.11-.625.75 0 1.124.297 1.171.844.016.156.031.203.234.203.235 0 .235-.047.235-.281v-.797c0-.188 0-.282-.172-.282-.047 0-.063 0-.453.188-.266-.125-.61-.188-1-.188-.313 0-1.844 0-1.844 1.313 0 .39.203.656.406.828.39.344.782.406 1.547.547.36.062 1.094.187 1.094.781 0 .75-.906.75-1.125.75C1.234-.297.984-1.03.859-1.453c-.046-.14-.109-.14-.234-.14-.25 0-.25.062-.25.28v1.094c0 .188 0 .282.188.282.062 0 .078 0 .296-.157l.25-.172c.47.329.985.329 1.188.329.312 0 1.844 0 1.844-1.454m0 0"/><path id="d" d="M3.813-1.234v-.532h-.47v.516c0 .672-.327.906-.609.906-.578 0-.578-.64-.578-.86v-2.75h1.469v-.468H2.156v-1.906h-.469c0 1-.484 1.984-1.484 2.016v.359h.828v2.734c0 1.063.86 1.282 1.578 1.282.75 0 1.204-.579 1.204-1.297m0 0"/><path id="e" d="M5.406-2.172c0-1.344-.922-2.344-2.547-2.344C1.22-4.516.313-3.5.313-2.172c0 1.235.89 2.235 2.546 2.235 1.672 0 2.547-1.016 2.547-2.235m-1.281-.11c0 .86 0 1.938-1.266 1.938-1.265 0-1.265-1.078-1.265-1.937 0-.453 0-.953.172-1.297.187-.375.609-.578 1.093-.578.422 0 .844.156 1.063.5.203.344.203.89.203 1.375m0 0"/><path id="f" d="M4.922 0v-.469h-1.39v-5.734c0-.234 0-.328-.266-.328-.11 0-.125 0-.22.078-.765.562-1.796.562-2 .562H.845v.47h.203c.156 0 .703-.016 1.297-.204v5.156H.954V0c.437-.031 1.5-.031 1.984-.031s1.546 0 1.984.031m0 0"/><path id="g" d="M5.156-2.219h-.468c-.032.203-.125.844-.266.906-.11.063-.86.063-1.016.063H1.937c.47-.39 1-.812 1.438-1.14 1.14-.844 1.781-1.313 1.781-2.25 0-1.157-1.047-1.891-2.437-1.891-1.219 0-2.156.625-2.156 1.515 0 .594.484.735.718.735C1.61-4.281 2-4.5 2-5c0-.516-.422-.672-.562-.719.28-.234.671-.343 1.03-.343.845 0 1.313.671 1.313 1.421 0 .688-.375 1.375-1.078 2.079l-2 2.046c-.14.11-.14.141-.14.344V0h4.28Zm0 0"/><path id="h" d="M5.25-1.797c0-.547-.297-1.406-1.734-1.719.687-.203 1.406-.765 1.406-1.625 0-.765-.75-1.39-2.156-1.39-1.188 0-1.97.64-1.97 1.437 0 .422.313.703.688.703a.67.67 0 0 0 .704-.687c0-.578-.547-.688-.579-.703.344-.282.782-.36 1.094-.36.828 0 .86.641.86.97 0 .124-.016 1.437-1.047 1.5-.407.015-.438.015-.485.03-.094.016-.125.11-.125.172 0 .172.11.172.282.172h.437c1.094 0 1.094.985 1.094 1.5 0 .469 0 1.485-1.031 1.485-.266 0-.782-.047-1.266-.344C1.75-.75 2-1 2-1.406c0-.453-.312-.75-.75-.75-.422 0-.766.265-.766.765 0 .907.97 1.5 2.25 1.5 1.782 0 2.516-1 2.516-1.906m0 0"/><path id="i" d="M5.563-6.422H3.53c-.234 0-1.703-.047-1.844-.094-.203-.03-.218-.125-.234-.218H.984l-.343 2.53h.468c.094-.765.22-.89.266-.905.11-.063.922-.063 1.094-.063H4.14c-.172.219-.36.422-.547.64-.953 1.126-1.672 2.47-1.672 3.938 0 .703.562.703.625.703.156 0 .625-.046.625-.703v-.468c0-.47.031-.954.094-1.422.093-.672.297-1.25.656-1.657l1.547-1.796c.093-.11.093-.141.093-.485m0 0"/><path id="j" d="M5.406 0v-.469h-.968v-1.094h.968v-.468h-.968V-6.22c0-.265-.016-.328-.297-.328-.22 0-.22.016-.344.172L.313-2.031v.469h2.875V-.47h-1.11V0c.375-.031 1.281-.031 1.703-.031.406 0 1.266 0 1.625.031m-2.11-2.031H.845L3.297-5.11Zm0 0"/><path id="k" d="M5.156-2c0-1.156-.797-2.078-2.265-2.078-.282 0-.813.031-1.282.344v-1.313c.282.047.391.078.72.078 1.452 0 2.374-1.125 2.374-1.375 0-.078-.016-.187-.14-.187-.032 0-.032 0-.141.047a4.3 4.3 0 0 1-1.531.28c-.75 0-1.282-.202-1.547-.28-.094-.032-.094-.047-.125-.047-.14 0-.14.11-.14.265v2.922c0 .172 0 .297.218.297.125 0 .156-.031.219-.11.39-.468.922-.562 1.328-.562.89 0 .89.875.89 1.672 0 .735 0 1.735-1.187 1.735-.25 0-.875-.063-1.297-.625.36-.016.656-.266.656-.672 0-.532-.437-.672-.672-.672-.14 0-.671.094-.671.703 0 .844.78 1.687 2.015 1.687C4.172.11 5.156-.78 5.156-2m0 0"/><path id="l" d="M5.25-2.047c0-1.39-1.016-2.125-2.219-2.125-.219 0-.781 0-1.203.766v-.188c0-1.14.219-1.562.281-1.719.25-.468.782-.828 1.391-.828.172 0 .516.032.75.266a.595.595 0 0 0-.547.61c0 .343.235.624.625.624s.625-.265.625-.64c0-.625-.422-1.25-1.469-1.25-1.359 0-3 .86-3 3.375 0 .781.079 1.578.5 2.265.47.766 1.22 1 1.922 1C4.281.11 5.25-.703 5.25-2.047m-1.36-.015c0 1 0 1.75-1.015 1.75-.516 0-.781-.391-.86-.563-.156-.312-.156-1.031-.156-1.219 0-1.25.532-1.719 1.079-1.719.953 0 .953.75.953 1.75m0 0"/><path id="m" d="M4.922-1.172c0-.172-.188-.172-.234-.172-.172 0-.188.047-.25.203-.204.485-.782.797-1.422.797-1.407 0-1.422-1.328-1.422-1.828h3.015c.22 0 .313 0 .313-.265 0-.313-.063-1.047-.563-1.547-.359-.36-.89-.532-1.578-.532C1.187-4.516.313-3.484.313-2.25c0 1.344 1 2.313 2.609 2.313 1.578 0 2-1.063 2-1.235M3.984-2.5h-2.39c.015-.39.031-.812.234-1.14.266-.391.672-.516.953-.516 1.172 0 1.188 1.312 1.203 1.656m0 0"/><path id="n" d="M4.766-1.172c0-.14-.141-.14-.235-.14-.187 0-.187.03-.25.156-.25.625-.734.812-1.234.812-1.39 0-1.39-1.453-1.39-1.922 0-.562 0-1.843 1.28-1.843.36 0 .516.015.657.046a.62.62 0 0 0-.203.47c0 .437.343.624.609.624.313 0 .64-.219.64-.625 0-.86-1.156-.922-1.734-.922C1.11-4.516.375-3.375.375-2.219.375-.89 1.313.063 2.844.063c1.625 0 1.922-1.157 1.922-1.235m0 0"/><path id="o" d="M6.125 0v-.469h-.687v-2.578c0-1.047-.532-1.437-1.532-1.437-.953 0-1.484.562-1.75 1.078v-1.078l-1.703.078v.468c.61 0 .688 0 .688.391v3.078H.453V0l1.25-.031L2.953 0v-.469h-.687v-2.078c0-1.094.859-1.578 1.5-1.578.328 0 .547.203.547.969V-.47h-.688V0l1.25-.031Zm0 0"/><path id="p" d="M5.984 0v-.469c-.609 0-.687 0-.687-.39v-6.063l-1.766.078v.469c.625 0 .703 0 .703.39v1.954a2.18 2.18 0 0 0-1.359-.453c-1.453 0-2.5.875-2.5 2.28 0 1.313.922 2.267 2.39 2.267.61 0 1.094-.235 1.407-.485v.485ZM4.172-1.031c-.14.187-.547.734-1.297.734-1.219 0-1.219-1.203-1.219-1.906 0-.485 0-1.016.25-1.406.297-.422.766-.516 1.078-.516.563 0 .97.313 1.188.61Zm0 0"/><path id="q" d="M5.828 0v-.469h-.703L3.453-2.453 4.61-3.75c.141-.14.204-.203 1.016-.203v-.469l-.906.031-1.032-.03v.468c.141 0 .266.015.376.078-.032.063-.032.094-.079.125l-.828.938-.984-1.141h.406v-.469L1.36-4.39.266-4.42v.468h.718l1.547 1.828L1.22-.656c-.157.187-.516.187-1 .187V0l.922-.031L2.156 0v-.469c-.172 0-.36-.047-.36-.11 0 0 0-.015.063-.093l.97-1.094L3.921-.469h-.39V0l1.202-.031Zm0 0"/><path id="r" d="M5.516-.234c0-.235-.125-.235-.266-.235-.61-.015-.61-.14-.61-.375v-2.14c0-.891-.702-1.532-2.187-1.532-.562 0-1.781.047-1.781.922 0 .438.344.625.61.625.312 0 .624-.219.624-.625 0-.297-.187-.469-.218-.5a5 5 0 0 1 .718-.062c.75 0 1.11.422 1.11 1.172v.343c-.72.032-3.25.125-3.25 1.563C.266-.125 1.5.062 2.188.062c.796 0 1.265-.406 1.484-.828 0 .313 0 .766 1.047.766h.468c.204 0 .329 0 .329-.234m-2-1.157c0 .97-.922 1.094-1.172 1.094-.516 0-.906-.344-.906-.797 0-1.062 1.578-1.203 2.078-1.234Zm0 0"/><path id="s" d="M6.125 0v-.469c-.61 0-.687 0-.687-.39v-3.625l-1.813.078v.468c.61 0 .688 0 .688.391v1.906c0 .813-.516 1.344-1.235 1.344-.781 0-.812-.25-.812-.797v-3.39l-1.813.078v.468c.61 0 .688 0 .688.391v2.328c0 1.063.797 1.282 1.797 1.282.25 0 .968 0 1.421-.782v.782Zm0 0"/><path id="t" d="M5.781-3.953v-.469c-.25.016-.531.031-.781.031l-.906-.03v.468c.187 0 .468.031.468.11 0 0 0 .015-.046.109l-1.157 2.5-1.265-2.72h.531v-.468l-1.234.031-1.125-.03v.468H.89l1.75 3.75c.125.25.25.25.375.25.172 0 .28-.031.375-.25L5.047-3.75c.062-.14.094-.203.734-.203m0 0"/><path id="u" d="M5.984-2.219c0-1.328-.937-2.265-2.39-2.265-.719 0-1.219.28-1.453.484v-2.922l-1.766.078v.469c.61 0 .688 0 .688.39V0h.468c.157-.187.328-.375.485-.562.078.078.562.625 1.453.625 1.484 0 2.515-.907 2.515-2.282m-1.28 0c0 .469 0 1.016-.25 1.406-.298.407-.75.516-1.079.516-.687 0-1.078-.547-1.187-.687v-2.5c.28-.36.75-.641 1.296-.641 1.22 0 1.22 1.203 1.22 1.906m0 0"/><path id="v" d="M8.031-3.953v-.469a13 13 0 0 1-.781.031l-.953-.03v.468c.094 0 .578 0 .578.11 0 .03-.031.093-.031.124L5.797-1.172l-1.14-2.781h.562v-.469l-1.14.031c-.423 0-.845-.03-1-.03v.468h.593c.203.5.203.531.203.531 0 .031-.031.094-.031.125L3.047-1.39 2-3.953h.563v-.469l-1.235.031L.25-4.42v.468h.594L2.359-.234c.079.172.11.28.36.28s.297-.108.36-.28L4.14-2.812 5.188-.235c.078.172.109.28.359.28s.297-.108.36-.28L7.343-3.75c.047-.125.093-.203.687-.203m0 0"/><path id="w" d="M4.61-2.016h-.47C4.048-1 3.89-.406 2.579-.406h-.86L4.469-4c.095-.11.11-.125.11-.219 0-.203-.14-.203-.328-.203H.594l-.11 1.734h.47c.046-1.015.359-1.374 1.39-1.374h.844L.406-.437C.312-.328.312-.312.312-.22.313 0 .454 0 .642 0h3.78Zm0 0"/><path id="x" d="M6.125 0v-.469h-.687v-2.578c0-1.047-.532-1.437-1.532-1.437a1.9 1.9 0 0 0-1.687.953v-3.39l-1.766.077v.469c.61 0 .688 0 .688.39v5.516H.453V0l1.25-.031L2.953 0v-.469h-.687v-2.078c0-1.094.859-1.578 1.5-1.578.328 0 .547.203.547.969V-.47h-.688V0l1.25-.031Zm0 0"/><path id="y" d="M2.844 0v-.469h-.61v-4.015L.5-4.406v.468c.594 0 .656 0 .656.391v3.078H.47V0l1.219-.031Zm-.469-6.047a.774.774 0 0 0-.781-.781.784.784 0 0 0-.782.781c0 .422.36.766.782.766a.77.77 0 0 0 .781-.766m0 0"/><path id="z" d="M2.922 0v-.469h-.688v-6.453L.47-6.844v.469c.625 0 .687 0 .687.39v5.516H.47V0l1.219-.031Zm0 0"/><path id="A" d="M5.563-3.953c0-.235-.172-.578-.625-.578-.157 0-.625.031-1.063.375-.172-.125-.594-.328-1.328-.328-1.438 0-1.985.78-1.985 1.468 0 .407.188.829.516 1.047-.281.36-.344.688-.344.89 0 .157.047.642.438.954-.125.031-.86.25-.86.875C.313 1.25.876 2 2.86 2 4.625 2 5.406 1.422 5.406.719c0-.297-.078-.922-.75-1.266-.562-.281-1.156-.281-2.11-.281-.265 0-.718 0-.765-.016a.625.625 0 0 1-.562-.625c0-.093.047-.25.11-.328.452.234.968.266 1.218.266 1.437 0 1.984-.782 1.984-1.485 0-.468-.25-.796-.406-.953.297-.156.516-.172.625-.187a.43.43 0 0 0-.047.203c0 .25.172.422.438.422a.41.41 0 0 0 .422-.422m-2.141.937c0 .454 0 1.125-.875 1.125s-.875-.671-.875-1.125c0-.437 0-1.109.875-1.109s.875.672.875 1.11M4.547.75c0 .36-.39.89-1.688.89-1.187 0-1.687-.452-1.687-.906 0-.609.625-.609.766-.609h1.171c.313 0 1.438 0 1.438.625m0 0"/><path id="B" d="M5.781-3.953v-.469A13 13 0 0 1 5-4.39l-.906-.03v.468s.468 0 .468.11L4.5-3.72 3.36-1.266 2.093-3.953h.531v-.469l-1.234.031-1.125-.03v.468H.89L2.766 0 2.53.484C2.312.954 2 1.641 1.281 1.641c-.14 0-.156-.016-.234-.047.094-.032.312-.172.312-.532C1.36.734 1.125.5.781.5a.553.553 0 0 0-.562.578c0 .5.469.922 1.062.922.766 0 1.344-.625 1.625-1.187l2.14-4.563c.063-.14.095-.203.735-.203m0 0"/></defs><path fill="none" stroke="#000" stroke-miterlimit="10" stroke-width=".399" d="m24.773 42.797 5.743 11.48"/><path stroke="#000" stroke-linejoin="round" stroke-miterlimit="10" stroke-width=".39896808000000006" d="m31.629 56.508-.39-3.793-.68 1.648-1.727-.445Zm0 0"/><path fill="none" stroke="#000" stroke-miterlimit="10" stroke-width=".399" d="m17.992 42.797-9 18c-.984 1.969-1.781 5.348-1.781 7.55V82.18"/><path stroke="#000" stroke-linejoin="round" stroke-miterlimit="10" stroke-width=".399" d="m7.21 84.676 1.345-3.574-1.344 1.175-1.348-1.175Zm0 0"/><path fill="none" stroke="#000" stroke-miterlimit="10" stroke-width=".399" d="m27.766 40.27 26.683 17.789"/><path stroke="#000" stroke-linejoin="round" stroke-miterlimit="10" stroke-width=".39898404" d="m56.523 59.441-2.222-3.101.23 1.773-1.722.469Zm0 0"/><path fill="none" stroke="#000" stroke-miterlimit="10" stroke-width=".399" d="M35.555 71.145v11.082"/><path stroke="#000" stroke-linejoin="round" stroke-miterlimit="10" stroke-width=".399" d="m35.555 84.723 1.347-3.57-1.347 1.175-1.344-1.176Zm0 0"/><path fill="none" stroke="#000" stroke-miterlimit="10" stroke-width=".399" d="m13.594 96.965 26.68 17.785"/><path stroke="#000" stroke-linejoin="round" stroke-miterlimit="10" stroke-width=".39898404" d="m42.352 116.137-2.227-3.102.23 1.77-1.722.468Zm0 0"/><path fill="none" stroke="#000" stroke-miterlimit="10" stroke-width=".399" d="M63.902 71.3v17.423c0 2.199-.797 5.582-1.78 7.55L54.8 110.914"/><path stroke="#000" stroke-linejoin="round" stroke-miterlimit="10" stroke-width=".39896808000000006" d="m53.684 113.148 2.8-2.593-1.73.449-.676-1.652Zm0 0"/><path fill="none" stroke="#000" stroke-miterlimit="10" stroke-width=".399" d="M32.04 14.703 26.425 25.93"/><path stroke="#000" stroke-linejoin="round" stroke-miterlimit="10" stroke-width=".39896808000000006" d="m25.309 28.16 2.8-2.59-1.73.45-.676-1.653Zm0 0"/><path fill="none" stroke="#000" stroke-miterlimit="10" stroke-width=".399" d="m39.074 14.703 5.586 11.172"/><path stroke="#000" stroke-linejoin="round" stroke-miterlimit="10" stroke-width=".39896808000000006" d="m45.777 28.105-.394-3.793-.68 1.653-1.726-.45Zm0 0"/><path fill="none" stroke="#000" stroke-miterlimit="10" stroke-width=".399" d="m38.95 99.496 7.362 14.719M128.07 14.672V26.59"/><path stroke="#000" stroke-linejoin="round" stroke-miterlimit="10" stroke-width=".399" d="m128.07 29.086 1.348-3.57-1.348 1.175-1.343-1.175Zm0 0"/><path fill="none" stroke="#000" stroke-miterlimit="10" stroke-width=".399" d="m96.82 70.168-6.722 13.445"/><path stroke="#000" stroke-linejoin="round" stroke-miterlimit="10" stroke-width=".39897606" d="m88.98 85.848 2.801-2.594-1.73.45-.676-1.653Zm0 0"/><path fill="none" stroke="#000" stroke-miterlimit="10" stroke-width=".399" d="m102.625 70.168 6.746 13.484"/><path stroke="#000" stroke-linejoin="round" stroke-miterlimit="10" stroke-width=".39896808000000006" d="m110.488 85.887-.394-3.797-.68 1.652-1.726-.449Zm0 0"/><path fill="none" stroke="#000" stroke-miterlimit="10" stroke-width=".399" d="M156.418 70.168v11.84"/><path stroke="#000" stroke-linejoin="round" stroke-miterlimit="10" stroke-width=".399" d="m156.418 84.504 1.344-3.57-1.344 1.175-1.348-1.175Zm0 0"/><path fill="none" stroke="#000" stroke-miterlimit="10" stroke-width=".399" d="M152.914 99.715 146.77 112"/><path stroke="#000" stroke-linejoin="round" stroke-miterlimit="10" stroke-width=".39896808000000006" d="m145.656 114.234 2.797-2.593-1.726.449-.68-1.653Zm0 0"/><path fill="none" stroke="#000" stroke-miterlimit="10" stroke-width=".399" d="m159.922 99.715 6.152 12.305"/><path stroke="#000" stroke-linejoin="round" stroke-miterlimit="10" stroke-width=".39896808000000006" d="m167.191 114.254-.394-3.797-.68 1.652-1.726-.449Zm0 0"/><path fill="none" stroke="#000" stroke-miterlimit="10" stroke-width=".399" d="m122.34 41.746-14.2 14.2"/><path stroke="#000" stroke-linejoin="round" stroke-miterlimit="10" stroke-width=".39899601" d="m106.375 57.707 3.477-1.57-1.782-.121-.12-1.786Zm0 0"/><path fill="none" stroke="#000" stroke-miterlimit="10" stroke-width=".399" d="M128.07 41.746V53.66"/><path stroke="#000" stroke-linejoin="round" stroke-miterlimit="10" stroke-width=".399" d="m128.07 56.16 1.348-3.574-1.348 1.176-1.343-1.176Zm0 0"/><path fill="none" stroke="#000" stroke-miterlimit="10" stroke-width=".399" d="m133.8 41.746 14.2 14.2"/><path stroke="#000" stroke-linejoin="round" stroke-miterlimit="10" stroke-width=".39899601" d="m149.766 57.707-1.575-3.477-.12 1.786-1.782.12Zm0 0"/><path fill="none" stroke="#000" stroke-miterlimit="10" stroke-width=".399" d="m233.434 14.672-12.832 11.832"/><path stroke="#000" stroke-linejoin="round" stroke-miterlimit="10" stroke-width=".39897606" d="m218.77 28.195 3.535-1.43-1.774-.195-.05-1.785Zm0 0"/><path fill="none" stroke="#000" stroke-miterlimit="10" stroke-width=".399" d="m209.695 43.02-.816 9.683"/><path stroke="#000" stroke-linejoin="round" stroke-miterlimit="10" stroke-width=".39897606" d="m208.668 55.191 1.64-3.445-1.44 1.059-1.24-1.285Zm0 0"/><path fill="none" stroke="#000" stroke-miterlimit="10" stroke-width=".399" d="m217.219 72.34 12.027 10.285"/><path stroke="#000" stroke-linejoin="round" stroke-miterlimit="10" stroke-width=".39897606" d="m231.14 84.246-1.84-3.344.02 1.786-1.765.261Zm0 0"/><path fill="none" stroke="#000" stroke-miterlimit="10" stroke-width=".399" d="M241.035 85.023V18.367"/><path stroke="#000" stroke-linejoin="round" stroke-miterlimit="10" stroke-width=".399" d="m241.035 15.871-1.347 3.57 1.347-1.175 1.344 1.175Zm0 0"/><path fill="none" stroke="#000" stroke-miterlimit="10" stroke-width=".399" d="M9.82 14.504h51.473V.828H9.82Zm0 0"/><use xlink:href="#a" x="13.142" y="11.124"/><use xlink:href="#b" x="19.508" y="11.124"/><use xlink:href="#c" x="24.23" y="11.124"/><use xlink:href="#d" x="28.753" y="11.124"/><use xlink:href="#b" x="37.022" y="11.124"/><use xlink:href="#e" x="41.744" y="11.124"/><use xlink:href="#e" x="47.792" y="11.124"/><use xlink:href="#d" x="53.52" y="11.124"/><path fill="none" stroke="#000" stroke-miterlimit="10" stroke-width=".399" d="M15.2 42.598h12.37V29.43H15.2Zm0 0"/><use xlink:href="#f" x="18.52" y="39.276"/><path fill="none" stroke="#000" stroke-miterlimit="10" stroke-width=".399" d="M29.371 70.941h12.371V57.777h-12.37Zm0 0"/><use xlink:href="#g" x="32.693" y="67.622"/><path fill="none" stroke="#000" stroke-miterlimit="10" stroke-width=".399" d="M1.027 99.344h12.368V86.066H1.027Zm0 0"/><use xlink:href="#h" x="4.346" y="95.914"/><path fill="none" stroke="#000" stroke-miterlimit="10" stroke-width=".399" d="M57.719 71.102h12.37V57.617H57.72Zm0 0"/><use xlink:href="#i" x="61.039" y="67.672"/><path fill="none" stroke="#000" stroke-miterlimit="10" stroke-width=".399" d="M29.371 99.293h12.371V86.117h-12.37Zm0 0"/><use xlink:href="#j" x="32.693" y="95.974"/><path fill="none" stroke="#000" stroke-miterlimit="10" stroke-width=".399" d="M43.547 127.691h12.367v-13.277H43.547Zm0 0"/><use xlink:href="#k" x="46.865" y="124.26"/><path fill="none" stroke="#000" stroke-miterlimit="10" stroke-width=".399" d="M43.547 42.652h12.367V29.375H43.547Zm0 0"/><use xlink:href="#l" x="46.865" y="39.221"/><path fill="none" stroke="#000" stroke-miterlimit="10" stroke-width=".399" d="M95.703 14.473h64.735V.859H95.703Zm0 0"/><use xlink:href="#c" x="99.023" y="11.094"/><use xlink:href="#m" x="103.547" y="11.094"/><use xlink:href="#n" x="108.797" y="11.094"/><use xlink:href="#e" x="113.888" y="11.094"/><use xlink:href="#o" x="119.616" y="11.094"/><use xlink:href="#p" x="125.982" y="11.094"/><use xlink:href="#b" x="136.164" y="11.094"/><use xlink:href="#e" x="140.887" y="11.094"/><use xlink:href="#e" x="146.934" y="11.094"/><use xlink:href="#d" x="152.662" y="11.094"/><path fill="none" stroke="#000" stroke-miterlimit="10" stroke-width=".399" d="M121.727 41.547h12.687V30.48h-12.687Zm0 0"/><use xlink:href="#q" x="125.046" y="38.225"/><path fill="none" stroke="#000" stroke-miterlimit="10" stroke-width=".399" d="M93.617 69.965h12.211V58.754h-12.21Zm0 0"/><use xlink:href="#r" x="96.939" y="66.586"/><path fill="none" stroke="#000" stroke-miterlimit="10" stroke-width=".399" d="M79.047 98.297h13.008V87.113H79.047Zm0 0"/><use xlink:href="#s" x="82.368" y="94.918"/><path fill="none" stroke="#000" stroke-miterlimit="10" stroke-width=".399" d="M107.55 98.258h12.692V87.152h-12.691Zm0 0"/><use xlink:href="#t" x="110.873" y="94.898"/><path fill="none" stroke="#000" stroke-miterlimit="10" stroke-width=".399" d="M121.566 71.168h13.008V57.551h-13.008Zm0 0"/><use xlink:href="#u" x="124.886" y="67.787"/><path fill="none" stroke="#000" stroke-miterlimit="10" stroke-width=".399" d="M150.55 69.965h11.731V58.754h-11.73Zm0 0"/><use xlink:href="#n" x="153.87" y="66.586"/><path fill="none" stroke="#000" stroke-miterlimit="10" stroke-width=".399" d="M149.914 99.512h13.008V85.898h-13.008Zm0 0"/><use xlink:href="#p" x="153.233" y="96.133"/><path fill="none" stroke="#000" stroke-miterlimit="10" stroke-width=".399" d="M134.785 126.605h14.918V115.5h-14.918Zm0 0"/><use xlink:href="#v" x="138.103" y="123.244"/><path fill="none" stroke="#000" stroke-miterlimit="10" stroke-width=".399" d="M164.723 126.586h11.734V115.52h-11.734Zm0 0"/><use xlink:href="#w" x="168.044" y="123.264"/><path fill="none" stroke="#000" stroke-miterlimit="10" stroke-width=".399" d="M212.785 14.473h56.496V.859h-56.496Zm0 0"/><use xlink:href="#d" x="216.107" y="11.094"/><use xlink:href="#x" x="220.56" y="11.094"/><use xlink:href="#y" x="226.926" y="11.094"/><use xlink:href="#b" x="230.104" y="11.094"/><use xlink:href="#p" x="234.826" y="11.094"/><use xlink:href="#b" x="245.008" y="11.094"/><use xlink:href="#e" x="249.73" y="11.094"/><use xlink:href="#e" x="255.778" y="11.094"/><use xlink:href="#d" x="261.506" y="11.094"/><path fill="none" stroke="#000" stroke-miterlimit="10" stroke-width=".399" d="M195.035 42.82h30.504V29.207h-30.504Zm0 0"/><use xlink:href="#n" x="198.357" y="39.44"/><use xlink:href="#x" x="203.13" y="39.44"/><use xlink:href="#y" x="209.496" y="39.44"/><use xlink:href="#z" x="212.674" y="39.44"/><use xlink:href="#p" x="215.852" y="39.44"/><path fill="none" stroke="#000" stroke-miterlimit="10" stroke-width=".399" d="M178.262 72.137h59.254V56.582h-59.254Zm0 0"/><use xlink:href="#A" x="181.583" y="66.815"/><use xlink:href="#b" x="187.311" y="66.815"/><use xlink:href="#r" x="192.033" y="66.815"/><use xlink:href="#o" x="197.602" y="66.815"/><use xlink:href="#p" x="203.969" y="66.815"/><use xlink:href="#n" x="210.335" y="66.815"/><use xlink:href="#x" x="215.107" y="66.815"/><use xlink:href="#y" x="221.473" y="66.815"/><use xlink:href="#z" x="224.651" y="66.815"/><use xlink:href="#p" x="227.829" y="66.815"/><path fill="none" stroke="#000" stroke-miterlimit="10" stroke-width=".399" d="M213.277 100.191h55.508V85.223h-55.508Zm0 0"/><use xlink:href="#B" x="216.6" y="94.868"/><use xlink:href="#e" x="222.328" y="94.868"/><use xlink:href="#s" x="228.057" y="94.868"/><use xlink:href="#o" x="234.423" y="94.868"/><use xlink:href="#A" x="240.789" y="94.868"/><use xlink:href="#c" x="246.517" y="94.868"/><use xlink:href="#d" x="251.04" y="94.868"/><use xlink:href="#m" x="255.494" y="94.868"/><use xlink:href="#b" x="260.744" y="94.868"/></svg>