<svg xmlns="http://www.w3.org/2000/svg" width="31.906" height="7.616"><defs><clipPath id="a"><path d="M0 0h31.86v7.426H0Zm0 0"/></clipPath></defs><path fill="none" stroke="#000" stroke-miterlimit="10" stroke-width="1.594" d="M.96 3.613H20.47"/><path fill="#FF7F7F" d="M30.055 3.613c0-1.105-2.149-2-4.793-2-2.649 0-4.793.895-4.793 2 0 1.102 2.144 1.996 4.793 1.996 2.644 0 4.793-.894 4.793-1.996m0 0"/><g clip-path="url(#a)"><path fill="none" stroke="#000" stroke-miterlimit="10" stroke-width="1.594" d="M30.055 3.613c0-1.105-2.149-2-4.793-2-2.649 0-4.793.895-4.793 2 0 1.102 2.144 1.996 4.793 1.996 2.644 0 4.793-.894 4.793-1.996Zm0 0"/></g></svg>