<svg xmlns="http://www.w3.org/2000/svg" xmlns:xlink="http://www.w3.org/1999/xlink" width="267.582" height="89.228"><defs><path id="a" d="M8.5 0v-.469h-.297c-.531 0-.562-.047-.672-.203L4.828-4.203l2.406-1.984c.22-.188.625-.188.938-.188h.156v-.469c-.39.032-.969.032-1.015.032-.375 0-1.094 0-1.454-.032v.469c.125 0 .329 0 .579.063.156.03.046.015.125.046L2.875-3.187v-3.188h1.078v-.469c-.375.032-1.344.032-1.781.032-.422 0-1.406 0-1.781-.032v.469h1.078v5.906H.39V0C.766-.031 1.75-.031 2.17-.031c.438 0 1.407 0 1.782.031v-.469H2.875v-2.093l1-.829L5.938-.687c.046.062.046.078.078.14-.188.078-.391.078-.735.078V0c.407-.031 1.313-.031 1.75-.031.407 0 1.094 0 1.469.031m0 0"/><path id="b" d="M6.125 0v-.469h-.687v-2.578c0-1.047-.532-1.437-1.532-1.437-.953 0-1.484.562-1.75 1.078v-1.078l-1.703.078v.468c.61 0 .688 0 .688.391v3.078H.453V0l1.25-.031L2.953 0v-.469h-.687v-2.078c0-1.094.859-1.578 1.5-1.578.328 0 .547.203.547.969V-.47h-.688V0l1.25-.031Zm0 0"/><path id="c" d="M6.125 0v-.469c-.61 0-.687 0-.687-.39v-3.625l-1.813.078v.468c.61 0 .688 0 .688.391v1.906c0 .813-.516 1.344-1.235 1.344-.781 0-.812-.25-.812-.797v-3.39l-1.813.078v.468c.61 0 .688 0 .688.391v2.328c0 1.063.797 1.282 1.797 1.282.25 0 .968 0 1.421-.782v.782Zm0 0"/><path id="d" d="M3.813-1.234v-.532h-.47v.516c0 .672-.327.906-.609.906-.578 0-.578-.64-.578-.86v-2.75h1.469v-.468H2.156v-1.906h-.469c0 1-.484 1.984-1.484 2.016v.359h.828v2.734c0 1.063.86 1.282 1.578 1.282.75 0 1.204-.579 1.204-1.297m0 0"/><path id="e" d="M6.125 0v-.469h-.687v-2.578c0-1.047-.532-1.437-1.532-1.437a1.9 1.9 0 0 0-1.687.953v-3.39l-1.766.077v.469c.61 0 .688 0 .688.39v5.516H.453V0l1.25-.031L2.953 0v-.469h-.687v-2.078c0-1.094.859-1.578 1.5-1.578.328 0 .547.203.547.969V-.47h-.688V0l1.25-.031Zm0 0"/><path id="f" d="M7.5-1.86c0-.952-.844-1.624-2.031-1.702 1.078-.204 1.718-.797 1.718-1.563 0-.922-.875-1.719-2.468-1.719H.39v.469h1.078v5.906H.39V0h4.625C6.672 0 7.5-.875 7.5-1.86M5.766-5.124c0 .766-.47 1.39-1.438 1.39H2.766v-2.64h1.812c1.016 0 1.188.797 1.188 1.25m.28 3.266c0 .109 0 1.39-1.437 1.39H2.766v-2.906h1.937c.203 0 .672 0 1.016.422.328.422.328.984.328 1.094m0 0"/><path id="g" d="M4.922-1.172c0-.172-.188-.172-.234-.172-.172 0-.188.047-.25.203-.204.485-.782.797-1.422.797-1.407 0-1.422-1.328-1.422-1.828h3.015c.22 0 .313 0 .313-.265 0-.313-.063-1.047-.563-1.547-.359-.36-.89-.532-1.578-.532C1.187-4.516.313-3.484.313-2.25c0 1.344 1 2.313 2.609 2.313 1.578 0 2-1.063 2-1.235M3.984-2.5h-2.39c.015-.39.031-.812.234-1.14.266-.391.672-.516.953-.516 1.172 0 1.188 1.312 1.203 1.656m0 0"/><path id="h" d="M5.406-2.172c0-1.344-.922-2.344-2.547-2.344C1.22-4.516.313-3.5.313-2.172c0 1.235.89 2.235 2.546 2.235 1.672 0 2.547-1.016 2.547-2.235m-1.281-.11c0 .86 0 1.938-1.266 1.938-1.265 0-1.265-1.078-1.265-1.937 0-.453 0-.953.172-1.297.187-.375.609-.578 1.093-.578.422 0 .844.156 1.063.5.203.344.203.89.203 1.375m0 0"/><path id="i" d="M2.922 0v-.469h-.688v-6.453L.47-6.844v.469c.625 0 .687 0 .687.39v5.516H.47V0l1.219-.031Zm0 0"/><path id="j" d="M4.406-3.672c0-.531-.531-.812-1.062-.812-.688 0-1.094.5-1.313 1.125v-1.125l-1.656.078v.468c.61 0 .688 0 .688.391v3.078H.375V0l1.25-.031C2-.031 2.641-.031 3 0v-.469h-.86v-1.75c0-.687.235-1.906 1.235-1.906 0 0-.187.172-.187.453 0 .406.328.61.609.61.297 0 .61-.204.61-.61m0 0"/><path id="k" d="M9.328 0v-.469h-.687v-2.578c0-1.031-.516-1.437-1.547-1.437-.907 0-1.422.5-1.688.953-.187-.922-1.11-.953-1.484-.953-.875 0-1.438.453-1.766 1.078v-1.078l-1.703.078v.468c.61 0 .688 0 .688.391v3.078H.453V0l1.25-.031L2.953 0v-.469h-.687v-2.078c0-1.094.875-1.578 1.5-1.578.328 0 .547.203.547.969V-.47h-.688V0l1.266-.031L6.14 0v-.469h-.688v-2.078c0-1.094.86-1.578 1.484-1.578.344 0 .563.203.563.969V-.47h-.687V0l1.25-.031Zm0 0"/><path id="l" d="M5.516-.234c0-.235-.125-.235-.266-.235-.61-.015-.61-.14-.61-.375v-2.14c0-.891-.702-1.532-2.187-1.532-.562 0-1.781.047-1.781.922 0 .438.344.625.61.625.312 0 .624-.219.624-.625 0-.297-.187-.469-.218-.5a5 5 0 0 1 .718-.062c.75 0 1.11.422 1.11 1.172v.343c-.72.032-3.25.125-3.25 1.563C.266-.125 1.5.062 2.188.062c.796 0 1.265-.406 1.484-.828 0 .313 0 .766 1.047.766h.468c.204 0 .329 0 .329-.234m-2-1.157c0 .97-.922 1.094-1.172 1.094-.516 0-.906-.344-.906-.797 0-1.062 1.578-1.203 2.078-1.234Zm0 0"/><path id="m" d="M7.64-2.266c0-.203-.077-.203-.25-.203-.124 0-.218 0-.218.172C7.094-.969 5.89-.359 4.89-.359c-.782 0-1.625-.235-2.141-.844-.469-.578-.594-1.313-.594-2.219 0-.562.031-1.625.672-2.297.64-.656 1.516-.765 2.031-.765 1.079 0 2.016.765 2.235 2.03.031.188.047.204.265.204.266 0 .282-.016.282-.281v-2.14c0-.188 0-.282-.188-.282-.094 0-.11.031-.187.094l-.657.593a3.03 3.03 0 0 0-1.968-.687c-2.485 0-4 1.484-4 3.531S2.156.11 4.64.11c1.875 0 3-1.218 3-2.375m0 0"/><path id="n" d="M4.14-1.39c0-.438-.202-.782-.546-1.063-.39-.281-.719-.344-1.485-.485-.375-.062-1.015-.171-1.015-.64 0-.625.922-.625 1.11-.625.75 0 1.124.297 1.171.844.016.156.031.203.234.203.235 0 .235-.047.235-.281v-.797c0-.188 0-.282-.172-.282-.047 0-.063 0-.453.188-.266-.125-.61-.188-1-.188-.313 0-1.844 0-1.844 1.313 0 .39.203.656.406.828.39.344.782.406 1.547.547.36.062 1.094.187 1.094.781 0 .75-.906.75-1.125.75C1.234-.297.984-1.03.859-1.453c-.046-.14-.109-.14-.234-.14-.25 0-.25.062-.25.28v1.094c0 .188 0 .282.188.282.062 0 .078 0 .296-.157l.25-.172c.47.329.985.329 1.188.329.312 0 1.844 0 1.844-1.454m0 0"/><path id="o" d="m7.547-4.328-.203-2.406H.625L.422-4.328H.89c.093-1.125.187-1.938 1.625-1.938h.765v5.797H1.75V0c.547-.031 1.656-.031 2.234-.031.594 0 1.704 0 2.235.031v-.469H4.687v-5.797h.766c1.422 0 1.531.797 1.625 1.938Zm0 0"/><path id="p" d="M5.984-2.219c0-1.328-.937-2.265-2.39-2.265-.719 0-1.219.28-1.453.484v-2.922l-1.766.078v.469c.61 0 .688 0 .688.39V0h.468c.157-.187.328-.375.485-.562.078.078.562.625 1.453.625 1.484 0 2.515-.907 2.515-2.282m-1.28 0c0 .469 0 1.016-.25 1.406-.298.407-.75.516-1.079.516-.687 0-1.078-.547-1.187-.687v-2.5c.28-.36.75-.641 1.296-.641 1.22 0 1.22 1.203 1.22 1.906m0 0"/><path id="q" d="M2.844 0v-.469h-.61v-4.015L.5-4.406v.468c.594 0 .656 0 .656.391v3.078H.47V0l1.219-.031Zm-.469-6.047a.774.774 0 0 0-.781-.781.784.784 0 0 0-.782.781c0 .422.36.766.782.766a.77.77 0 0 0 .781-.766m0 0"/><path id="r" d="M7.188-4.89c0-1.094-.985-1.954-2.641-1.954H.39v.469h1.078v5.906H.39V0C.766-.031 1.75-.031 2.17-.031c.438 0 1.407 0 1.782.031v-.469H2.875v-2.547h1.766c1.39 0 2.547-.718 2.547-1.875m-1.532 0c0 .702 0 1.468-1.5 1.468H2.828v-2.953h1.344c1.484 0 1.484.766 1.484 1.484m0 0"/><path id="s" d="M6.406-2.734h-.468c-.079.687-.25 2.265-2.032 2.265H2.875v-5.906h1.36v-.469c-.454.032-1.532.032-2.016.032-.438 0-1.453 0-1.828-.032v.469h1.078v5.906H.39V0h5.703Zm0 0"/><path id="t" d="M5.984-2.219c0-1.328-.906-2.265-2.343-2.265-.75 0-1.282.312-1.5.484v-.484l-1.766.078v.468c.61 0 .688 0 .688.376v5.03H.375v.47l1.25-.032 1.25.032v-.47h-.687V-.39a2 2 0 0 0 1.28.454c1.5 0 2.516-.907 2.516-2.282m-1.28 0C4.703-.813 4-.297 3.358-.297c-.14 0-.609 0-1.062-.547-.11-.125-.11-.14-.11-.328v-2.11c0-.187.016-.202.157-.343.39-.406.922-.469 1.14-.469.657 0 1.22.61 1.22 1.875m0 0"/><path id="u" d="M5.719-2.031c0-1.094-.797-1.906-1.719-2.094l-1.437-.312c-.407-.094-.954-.422-.954-1.032 0-.437.282-1.047 1.266-1.047.797 0 1.813.329 2.047 1.688.031.25.031.266.234.266.25 0 .25-.047.25-.282v-1.828c0-.187 0-.281-.187-.281-.078 0-.078.016-.188.11l-.453.437C4-6.86 3.344-6.953 2.875-6.953c-1.516 0-2.234.969-2.234 2.016 0 .64.328 1.093.53 1.312.5.5.829.563 1.923.797.875.203 1.047.219 1.265.437.141.141.391.407.391.86 0 .484-.25 1.172-1.297 1.172-.75 0-2.265-.203-2.344-1.688-.015-.172-.015-.219-.234-.219-.234 0-.234.047-.234.282v1.812C.64.016.64.11.813.11.906.11.922.094 1 .016l.469-.453c.656.484 1.578.546 1.984.546C5.11.11 5.72-1.016 5.72-2.03m0 0"/><path id="v" d="M5.781-3.953v-.469c-.25.016-.531.031-.781.031l-.906-.03v.468c.187 0 .468.031.468.11 0 0 0 .015-.046.109l-1.157 2.5-1.265-2.72h.531v-.468l-1.234.031-1.125-.03v.468H.89l1.75 3.75c.125.25.25.25.375.25.172 0 .28-.031.375-.25L5.047-3.75c.062-.14.094-.203.734-.203m0 0"/><path id="w" d="M5.86 0v-.469h-.173c-.437 0-.468-.047-.593-.203L3.406-2.766 4.703-3.78c.14-.11.234-.172.906-.172v-.469c-.28.031-.53.031-.78.031l-1.157-.03v.468c.234 0 .265.031.344.11L2.14-2.36v-4.563l-1.766.078v.469c.61 0 .688 0 .688.39v5.516H.375V0l1.188-.031L2.766 0v-.469h-.688v-1.265c.297-.235.375-.297.578-.422l1 1.25c.094.125.25.312.25.344 0 .093-.172.093-.312.093V0a53 53 0 0 1 1.219-.031c.359 0 .703.015 1.046.031m0 0"/></defs><path fill="none" stroke="#000" stroke-miterlimit="10" stroke-width=".399" d="M108.258 14.887c1.226.234 2.3-2.098 3.523-1.867.887.168 1.422 1.507 1.985 2.914.558 1.402 1.093 2.742 1.98 2.91 1.223.23 2.3-2.098 3.524-1.867l3.238.613"/><path stroke="#000" stroke-linejoin="round" stroke-miterlimit="10" stroke-width=".39897606" d="m124.96 18.059-3.257-1.989.902 1.54-1.402 1.105Zm0 0"/><path fill="none" stroke="#000" stroke-miterlimit="10" stroke-width=".399" d="M192.703 18.262c1.223-.23 1.367-2.797 2.59-3.028.887-.168 1.879.88 2.914 1.98 1.035 1.102 2.027 2.15 2.914 1.981 1.223-.234 1.367-2.797 2.59-3.027l3.164-.605"/><path stroke="#000" stroke-linejoin="round" stroke-miterlimit="10" stroke-width=".39898803000000005" d="m209.328 15.098-3.762-.657 1.407 1.106-.903 1.539Zm0 0"/><path fill="none" stroke="#000" stroke-miterlimit="10" stroke-width=".399" d="M101.586 72.473c1.215-.278 1.262-2.844 2.477-3.125.874-.203 1.906.808 2.984 1.867 1.078 1.062 2.105 2.07 2.984 1.87.88-.202 1.364-1.562 1.871-2.987.504-1.422.989-2.782 1.868-2.985 1.214-.281 2.378 2.008 3.593 1.727l3.203-.735"/><path stroke="#000" stroke-linejoin="round" stroke-miterlimit="10" stroke-width=".39898803000000005" d="m122.996 67.543-3.781-.508 1.445 1.047-.84 1.574Zm0 0"/><path fill="none" stroke="#000" stroke-miterlimit="10" stroke-width=".399" d="M162.316 60.059c1.23-.184 1.48-2.743 2.711-2.922.895-.137 1.84.953 2.832 2.093.993 1.141 1.938 2.23 2.832 2.098.891-.133 1.48-1.45 2.094-2.832.617-1.379 1.207-2.695 2.098-2.828s1.84.953 2.828 2.094c.992 1.144 1.941 2.23 2.832 2.097.89-.132 1.48-1.449 2.098-2.832.613-1.379 1.203-2.695 2.093-2.828.895-.133 1.84.953 2.832 2.098.993 1.14 1.938 2.226 2.829 2.094.894-.133 1.484-1.45 2.097-2.828.617-1.383 1.203-2.7 2.098-2.833.89-.132 1.84.954 2.828 2.098.992 1.14 1.941 2.227 2.832 2.094 1.23-.184 1.48-2.738 2.71-2.922l3.427-.508"/><path stroke="#000" stroke-linejoin="round" stroke-miterlimit="10" stroke-width=".39897207" d="m208.855 53.121-3.73-.805 1.36 1.16-.962 1.504Zm0 0"/><path fill="none" stroke="#000" stroke-miterlimit="10" stroke-width=".399" d="M162.316 65.973c1.23.195 2.235-2.168 3.465-1.977.89.14 1.469 1.465 2.07 2.848.606 1.386 1.184 2.71 2.075 2.851.89.14 1.847-.941 2.847-2.074s1.957-2.21 2.848-2.07 1.469 1.46 2.07 2.847c.606 1.387 1.184 2.707 2.075 2.848.89.14 1.847-.937 2.847-2.07s1.957-2.215 2.848-2.074c.89.14 1.469 1.464 2.074 2.851.602 1.383 1.18 2.707 2.07 2.848.891.14 1.848-.942 2.848-2.074 1-1.133 1.957-2.211 2.848-2.07.89.14 1.469 1.46 2.074 2.847.602 1.387 1.18 2.707 2.07 2.848 1.23.195 2.235-2.168 3.465-1.973l3.48.55"/><path stroke="#000" stroke-linejoin="round" stroke-miterlimit="10" stroke-width=".39899601" d="m208.855 73.316-3.316-1.886.95 1.515-1.368 1.145Zm0 0"/><path fill="none" stroke="#000" stroke-miterlimit="10" stroke-width=".399" d="M40.375 34.45c1.094-.59.457-3.079 1.55-3.673.794-.43 2.055.27 3.376 1.008 1.32.735 2.582 1.434 3.375 1.004s.898-1.871 1.004-3.379c.11-1.508.215-2.945 1.008-3.375.792-.43 2.054.27 3.374 1.004s2.583 1.434 3.376 1.004c1.093-.59.457-3.078 1.55-3.672l4.371-2.363"/><path stroke="#000" stroke-linejoin="round" stroke-miterlimit="10" stroke-width=".39897207" d="m65.555 20.816-3.782.52 1.672.625-.39 1.742Zm0 0"/><path fill="none" stroke="#000" stroke-miterlimit="10" stroke-width=".399" d="M40.04 53.41c1.081.617 2.858-1.234 3.94-.617.782.445.852 1.887.926 3.398.07 1.508.14 2.95.926 3.399.781.445 2.059-.223 3.398-.926 1.336-.703 2.614-1.375 3.399-.926.781.446.851 1.887.926 3.399.07 1.508.14 2.949.925 3.398 1.083.617 2.856-1.234 3.938-.617l4.117 2.355"/><path stroke="#000" stroke-linejoin="round" stroke-miterlimit="10" stroke-width=".39898404" d="M64.703 67.512 62.27 64.57l.351 1.75-1.687.586Zm0 0"/><path fill="#7F7FFF" d="m45.543 39.902-5.89-5.89H6.69l-5.89 5.89v7.723l5.89 5.89h32.961l5.891-5.89Zm0 0"/><g fill="#FFF"><use xlink:href="#a" x="7.067" y="47.191"/><use xlink:href="#b" x="16.043" y="47.191"/></g><g fill="#FFF"><use xlink:href="#c" x="22.091" y="47.191"/><use xlink:href="#d" x="28.457" y="47.191"/><use xlink:href="#e" x="32.91" y="47.191"/></g><path fill="#7F7FFF" d="m108.617 6.602-2.949-2.946-2.945-2.945H66.777l-2.945 2.945-2.95 2.946v7.644l2.95 2.945 2.945 2.95h35.946l2.945-2.95 2.95-2.945Zm0 0"/><g fill="#FFF"><use xlink:href="#f" x="67.151" y="13.813"/><use xlink:href="#g" x="75.3" y="13.813"/><use xlink:href="#g" x="80.551" y="13.813"/><use xlink:href="#d" x="85.801" y="13.813"/><use xlink:href="#h" x="90.254" y="13.813"/><use xlink:href="#b" x="95.983" y="13.813"/></g><path fill="#7F7FFF" d="M194.895 20.738 189 14.844h-59.148l-2.95 2.945-2.945 2.95v7.722l2.945 2.945 2.95 2.946H189l2.945-2.946 2.95-2.945Zm0 0"/><g fill="#FFF"><use xlink:href="#a" x="130.225" y="28.026"/><use xlink:href="#g" x="139.201" y="28.026"/><use xlink:href="#i" x="144.452" y="28.026"/><use xlink:href="#i" x="147.63" y="28.026"/><use xlink:href="#g" x="150.808" y="28.026"/><use xlink:href="#j" x="156.058" y="28.026"/><use xlink:href="#k" x="160.78" y="28.026"/><use xlink:href="#l" x="170.325" y="28.026"/><use xlink:href="#b" x="175.894" y="28.026"/><use xlink:href="#b" x="182.26" y="28.026"/></g><path fill="#7F7FFF" d="m257.477 6.523-5.891-5.89h-35.461l-5.89 5.89v7.805l5.89 5.89h35.46l5.892-5.89Zm0 0"/><g fill="#FFF"><use xlink:href="#m" x="216.501" y="13.842"/><use xlink:href="#l" x="224.78" y="13.842"/><use xlink:href="#j" x="230.349" y="13.842"/><use xlink:href="#b" x="235.071" y="13.842"/><use xlink:href="#g" x="241.437" y="13.842"/><use xlink:href="#n" x="246.688" y="13.842"/></g><path fill="#7F7FFF" d="m102.07 73.242-2.945-2.949-2.945-2.945H66.777l-5.894 5.894v7.723l2.949 2.945 2.945 2.945H96.18l5.89-5.89Zm0 0"/><use xlink:href="#o" x="67.151" y="80.529" fill="#FFF"/><g fill="#FFF"><use xlink:href="#h" x="74.165" y="80.529"/><use xlink:href="#p" x="79.893" y="80.529"/><use xlink:href="#q" x="86.259" y="80.529"/><use xlink:href="#b" x="89.437" y="80.529"/></g><path fill="#7F7FFF" d="m162.117 59.066-2.949-2.945-2.945-2.945h-26.371l-2.95 2.945-2.945 2.945v7.723l2.945 2.95 2.95 2.945h26.37l5.895-5.895Zm0 0"/><g fill="#FFF"><use xlink:href="#r" x="130.225" y="66.356"/><use xlink:href="#i" x="138.056" y="66.356"/><use xlink:href="#l" x="141.234" y="66.356"/><use xlink:href="#n" x="146.803" y="66.356"/><use xlink:href="#n" x="151.326" y="66.356"/></g><path fill="#7F7FFF" d="m266.363 43.977-2.945-2.946-2.945-2.949h-44.348l-2.945 2.95-2.946 2.945v9.515l5.891 5.89h44.348l5.89-5.89Zm0 0"/><g fill="#FFF"><use xlink:href="#s" x="216.501" y="51.185"/><use xlink:href="#l" x="223.395" y="51.185"/><use xlink:href="#k" x="228.964" y="51.185"/><use xlink:href="#t" x="238.508" y="51.185"/></g><g fill="#FFF"><use xlink:href="#h" x="245.193" y="51.185"/><use xlink:href="#j" x="250.922" y="51.185"/><use xlink:href="#d" x="255.644" y="51.185"/></g><path fill="#7F7FFF" d="m255.703 72.309-5.89-5.891h-33.688l-5.89 5.89v9.63l5.89 5.89h33.688l5.89-5.89Zm0 0"/><g fill="#FFF"><use xlink:href="#u" x="216.501" y="79.629"/><use xlink:href="#t" x="222.867" y="79.629"/><use xlink:href="#q" x="229.233" y="79.629"/><use xlink:href="#v" x="232.411" y="79.629"/></g><g fill="#FFF"><use xlink:href="#l" x="237.821" y="79.629"/><use xlink:href="#w" x="243.39" y="79.629"/></g></svg>