<svg xmlns="http://www.w3.org/2000/svg" width="61.982" height="16.598"><path d="M2.195 2.957c-.726.324-1.312.879-1.175 1.652.136.774 1.07 1.254 1.671 1.149.602-.106.836-.371.973-.64.102-.208.133-.563.383-.93s.52-.653 1.156-.766c.64-.113 1.426.203 2.027.789.598.586 1.52.676 1.922.195.399-.484.051-1.636-.742-2.394s-1.48-.86-2.262-.625c-.777.238-2.71 1.02-3.953 1.57m8.95.816c-.051-.293-.434-.468-.852-.394-.422.074-.719.371-.668.66.05.293.434.469.855.395.418-.075.72-.372.665-.66m-.72-.957c-.034-.199-.265-.328-.515-.285s-.422.242-.387.446c.036.203.266.328.516.285s.426-.242.387-.446m-.577-.718c-.059-.18-.27-.27-.477-.2-.203.067-.32.266-.262.442.059.18.27.27.477.2.203-.067.32-.267.262-.442m-.645-.575c-.031-.168-.21-.277-.402-.246-.192.036-.32.2-.29.371.028.168.208.278.4.247.19-.036.32-.2.292-.372m-.758-.468a.296.296 0 0 0-.582.102.29.29 0 0 0 .34.234.29.29 0 0 0 .242-.336m18.66 12.195c-.73-.324-1.316-.879-1.18-1.652.137-.774 1.071-1.258 1.673-1.149.601.106.836.371.972.64.102.208.137.56.383.93.25.368.52.653 1.16.766.637.113 1.422-.207 2.024-.793.597-.586 1.523-.676 1.922-.191.398.484.05 1.636-.743 2.39-.793.758-1.48.864-2.261.63-.778-.239-2.711-1.02-3.95-1.571m8.95-.816c-.055.293-.434.468-.856.394-.418-.074-.719-.371-.668-.66.051-.293.434-.469.856-.395.418.075.718.372.668.66m-.72.953c-.034.203-.269.332-.519.289-.25-.047-.421-.246-.386-.446.035-.203.265-.332.515-.285.25.043.426.242.39.442m-.581.722c-.059.176-.27.266-.473.2-.207-.067-.324-.266-.265-.446.058-.175.273-.265.476-.199.203.07.32.266.262.445m-.645.57c-.03.173-.21.282-.402.247-.187-.031-.32-.196-.289-.367.031-.168.207-.282.398-.246s.32.199.293.367m-.757.47a.29.29 0 0 1-.34.234.29.29 0 0 1-.242-.336.296.296 0 0 1 .582.102m18.66-12.192c-.73.324-1.317.879-1.18 1.652.137.774 1.07 1.254 1.672 1.149.601-.106.836-.371.973-.64.101-.208.136-.563.386-.93.246-.368.52-.653 1.157-.766.636-.113 1.421.203 2.023.789.598.586 1.523.676 1.922.195.398-.484.055-1.636-.742-2.394-.793-.758-1.48-.86-2.258-.625-.781.238-2.715 1.02-3.953 1.57m8.949.816c-.05-.293-.434-.468-.856-.394-.417.074-.718.371-.667.66.054.293.433.469.855.395.418-.075.719-.372.668-.66m-.719-.957c-.035-.199-.265-.328-.515-.285s-.426.242-.391.446c.035.203.27.328.52.285.246-.043.421-.242.386-.446m-.578-.718c-.059-.18-.273-.27-.477-.2-.207.067-.324.266-.265.442.058.18.273.27.476.2.204-.067.325-.267.266-.442m-.648-.575c-.032-.168-.211-.277-.399-.246-.191.036-.324.2-.293.371.031.168.207.278.399.247.191-.036.324-.2.293-.372m-.758-.468a.296.296 0 0 0-.582.102c.031.16.183.261.344.234a.29.29 0 0 0 .238-.336m0 0"/></svg>