<svg xmlns="http://www.w3.org/2000/svg" xmlns:xlink="http://www.w3.org/1999/xlink" width="150.536" height="67.358"><defs><path id="a" d="m8.125-1.437-.078-.47-.953.173-3.61-5.672c-.14-.235-.25-.219-.421-.188-.282.047-.313.14-.344.313L1.329-.937c-.032.156-.048.234-.798.359l-.203.031.078.469 1.14-.234c.391-.063.938-.157 1.298-.188l-.078-.469s-.875.156-.907.047l.032-.14.297-1.266 2.625-.469.828 1.313-.938.172.078.468c.39-.094 1.313-.265 1.75-.343.375-.063 1.235-.22 1.594-.25m-3.61-1.797-2.25.406.657-2.922Zm0 0"/><path id="b" d="m6.031-1.062-.078-.47-.672.126-.453-2.532c-.172-1.03-.781-1.343-1.766-1.156-.937.157-1.359.813-1.53 1.36l-.188-1.063-1.656.375.078.469c.593-.11.672-.125.75.25l.53 3.031-.671.125.078.469 1.219-.25 1.234-.188-.078-.468-.672.125-.36-2.047C1.61-3.97 2.36-4.61 2.985-4.72c.329-.047.579.11.72.86l.468 2.64-.688.125.079.469 1.234-.25Zm0 0"/><path id="c" d="M4.64-2.016c-.03-.171-.218-.14-.265-.125-.156.032-.156.079-.203.25-.11.516-.64.907-1.266 1.016-1.39.25-1.64-1.047-1.719-1.547l2.985-.515c.203-.047.297-.063.25-.329-.063-.296-.25-1.015-.813-1.406-.421-.297-.968-.39-1.656-.266-1.562.282-2.25 1.454-2.031 2.672C.156-.937 1.312-.172 2.89-.437 4.453-.72 4.67-1.844 4.64-2.016m-1.156-1.14-2.359.406c-.047-.375-.11-.797.047-1.14a1.17 1.17 0 0 1 .844-.688c1.156-.203 1.39 1.094 1.468 1.422m0 0"/><path id="d" d="m2.875-.5-.078-.469-.672.11L1-7.203l-1.719.39.078.454c.61-.11.672-.125.735.265l.969 5.422-.672.125.078.469 1.187-.25Zm0 0"/><path id="e" d="m2.797-.5-.078-.469-.594.11-.703-3.953-1.688.375.079.468c.578-.094.64-.11.718.266l.532 3.031-.672.125.078.469 1.187-.25Zm-1.5-5.86A.786.786 0 0 0 .375-7a.783.783 0 0 0-.625.906c.063.407.484.688.89.61.438-.079.72-.47.657-.875m0 0"/><path id="f" d="M5.5-3.234c-.219-1.313-1.281-2.063-2.703-1.813a2.43 2.43 0 0 0-1.375.734l-.094-.484-1.719.39.079.47c.593-.11.671-.126.734.234l.875 4.969-.672.125.094.453 1.203-.25 1.25-.188-.094-.453-.672.125-.312-1.844c.469.266.937.297 1.344.22C4.906-.797 5.75-1.876 5.5-3.235M4.234-3c.25 1.39-.343 2.016-.968 2.125-.141.016-.61.094-1.141-.36-.14-.093-.14-.109-.172-.296l-.36-2.078c-.046-.188-.03-.203.095-.36.296-.469.828-.625 1.046-.672.641-.109 1.282.391 1.5 1.641m0 0"/><path id="g" d="M3.844-2.094c-.078-.422-.344-.734-.719-.953-.437-.203-.781-.203-1.562-.203-.375 0-1.032 0-1.11-.469-.11-.61.797-.765.984-.797.735-.14 1.172.094 1.313.61.031.156.063.203.25.172.234-.047.219-.094.188-.328l-.141-.782c-.031-.187-.047-.281-.219-.25-.047.016-.062.016-.406.266-.281-.078-.64-.078-1.016-.016-.312.063-1.812.328-1.593 1.625.078.39.312.61.546.735.438.28.829.28 1.625.28.344 0 1.11 0 1.204.579.14.734-.75.89-.97.922-1.046.187-1.421-.485-1.624-.89-.078-.11-.14-.095-.266-.079-.234.047-.219.094-.187.313L.344-.281c.031.187.047.281.219.25C.625-.047.64-.047.828-.25l.219-.203c.516.234 1.031.156 1.234.11.297-.048 1.813-.313 1.563-1.75m0 0"/><path id="i" d="M8.25 0v-.469h-.969L4.72-6.703c-.11-.25-.219-.25-.39-.25-.282 0-.329.078-.391.25l-2.47 6c-.062.156-.093.234-.843.234H.406V0l1.172-.031c.39 0 .938 0 1.313.031v-.469S2-.469 2-.594l.047-.125.5-1.203h2.672l.593 1.453H4.86V0c.391-.031 1.329-.031 1.766-.031.39 0 1.266 0 1.625.031M5.016-2.39H2.734l1.141-2.766Zm0 0"/><path id="j" d="M4.766-1.172c0-.14-.141-.14-.235-.14-.187 0-.187.03-.25.156-.25.625-.734.812-1.234.812-1.39 0-1.39-1.453-1.39-1.922 0-.562 0-1.843 1.28-1.843.36 0 .516.015.657.046a.62.62 0 0 0-.203.47c0 .437.343.624.609.624.313 0 .64-.219.64-.625 0-.86-1.156-.922-1.734-.922C1.11-4.516.375-3.375.375-2.219.375-.89 1.313.063 2.844.063c1.625 0 1.922-1.157 1.922-1.235m0 0"/><path id="k" d="M2.844 0v-.469h-.61v-4.015L.5-4.406v.468c.594 0 .656 0 .656.391v3.078H.47V0l1.219-.031Zm-.469-6.047a.774.774 0 0 0-.781-.781.784.784 0 0 0-.782.781c0 .422.36.766.782.766a.77.77 0 0 0 .781-.766m0 0"/><path id="l" d="M4.406-3.672c0-.531-.531-.812-1.062-.812-.688 0-1.094.5-1.313 1.125v-1.125l-1.656.078v.468c.61 0 .688 0 .688.391v3.078H.375V0l1.25-.031C2-.031 2.641-.031 3 0v-.469h-.86v-1.75c0-.687.235-1.906 1.235-1.906 0 0-.187.172-.187.453 0 .406.328.61.609.61.297 0 .61-.204.61-.61m0 0"/><path id="m" d="M2.922 0v-.469h-.688v-6.453L.47-6.844v.469c.625 0 .687 0 .687.39v5.516H.47V0l1.219-.031Zm0 0"/><path id="n" d="M4.922-1.172c0-.172-.188-.172-.234-.172-.172 0-.188.047-.25.203-.204.485-.782.797-1.422.797-1.407 0-1.422-1.328-1.422-1.828h3.015c.22 0 .313 0 .313-.265 0-.313-.063-1.047-.563-1.547-.359-.36-.89-.532-1.578-.532C1.187-4.516.313-3.484.313-2.25c0 1.344 1 2.313 2.609 2.313 1.578 0 2-1.063 2-1.235M3.984-2.5h-2.39c.015-.39.031-.812.234-1.14.266-.391.672-.516.953-.516 1.172 0 1.188 1.312 1.203 1.656m0 0"/><clipPath id="h"><path d="M95 12h55.305v55.035H95Zm0 0"/></clipPath></defs><path fill="none" stroke="#000" stroke-miterlimit="10" stroke-width=".399" d="M79.59 6.809C78.535.836 60.098-.902 38.402 2.922 16.707 6.746-.023 14.688 1.032 20.66c1.05 5.973 19.491 7.711 41.183 3.887C63.91 20.723 80.64 12.78 79.59 6.809Zm0 0"/><use xlink:href="#a" x="16.241" y="20.527"/><use xlink:href="#b" x="24.767" y="19.024"/><use xlink:href="#c" x="34.794" y="17.256"/><use xlink:href="#d" x="39.965" y="16.344"/><use xlink:href="#d" x="43.095" y="15.792"/><use xlink:href="#e" x="46.225" y="15.24"/><use xlink:href="#f" x="49.354" y="14.688"/><use xlink:href="#g" x="55.624" y="13.583"/><use xlink:href="#c" x="60.078" y="12.797"/><g clip-path="url(#h)"><path fill="none" stroke="#000" stroke-miterlimit="10" stroke-width=".399" d="M149.09 42.082c0-13.113-10.63-23.742-23.742-23.742-13.11 0-23.739 10.629-23.739 23.742 0 13.11 10.63 23.738 23.739 23.738 13.113 0 23.742-10.629 23.742-23.738Zm0 0"/></g><use xlink:href="#i" x="105.856" y="45.528"/><use xlink:href="#j" x="118.329" y="45.528"/><use xlink:href="#k" x="123.42" y="45.528"/><use xlink:href="#l" x="126.598" y="45.528"/><use xlink:href="#j" x="131.321" y="45.528"/><use xlink:href="#m" x="136.411" y="45.528"/><use xlink:href="#n" x="139.589" y="45.528"/><path fill="none" stroke="#000" stroke-miterlimit="10" stroke-width=".797" d="m60.113 20.332 42.528 14.18"/></svg>