<svg xmlns="http://www.w3.org/2000/svg" xmlns:xlink="http://www.w3.org/1999/xlink" width="200.45" height="148.772"><defs><path id="b" d="M5.281-3.187c0-.954-.015-3.344-2.422-3.344S.453-4.156.453-3.188c0 1 0 3.297 2.406 3.297 2.391 0 2.422-2.296 2.422-3.296M4-3.297c0 .563 0 1.469-.078 1.985-.14.921-.766 1.062-1.063 1.062-.359 0-.921-.219-1.046-.953-.094-.516-.094-1.547-.094-2.094 0-.719 0-1.375.078-1.89.125-.891.828-.985 1.062-.985.375 0 .782.188.97.625C4-5.172 4-4.109 4-3.297m0 0"/><path id="d" d="M5.156-2.219h-.468c-.032.203-.125.844-.266.906-.11.063-.86.063-1.016.063H1.937c.47-.39 1-.812 1.438-1.14 1.14-.844 1.781-1.313 1.781-2.25 0-1.157-1.047-1.891-2.437-1.891-1.219 0-2.156.625-2.156 1.515 0 .594.484.735.718.735C1.61-4.281 2-4.5 2-5c0-.516-.422-.672-.562-.719.28-.234.671-.343 1.03-.343.845 0 1.313.671 1.313 1.421 0 .688-.375 1.375-1.078 2.079l-2 2.046c-.14.11-.14.141-.14.344V0h4.28Zm0 0"/><path id="f" d="M5.406 0v-.469h-.968v-1.094h.968v-.468h-.968V-6.22c0-.265-.016-.328-.297-.328-.22 0-.22.016-.344.172L.313-2.031v.469h2.875V-.47h-1.11V0c.375-.031 1.281-.031 1.703-.031.406 0 1.266 0 1.625.031m-2.11-2.031H.845L3.297-5.11Zm0 0"/><path id="h" d="M5.25-2.047c0-1.39-1.016-2.125-2.219-2.125-.219 0-.781 0-1.203.766v-.188c0-1.14.219-1.562.281-1.719.25-.468.782-.828 1.391-.828.172 0 .516.032.75.266a.595.595 0 0 0-.547.61c0 .343.235.624.625.624s.625-.265.625-.64c0-.625-.422-1.25-1.469-1.25-1.359 0-3 .86-3 3.375 0 .781.079 1.578.5 2.265.47.766 1.22 1 1.922 1C4.281.11 5.25-.703 5.25-2.047m-1.36-.015c0 1 0 1.75-1.015 1.75-.516 0-.781-.391-.86-.563-.156-.312-.156-1.031-.156-1.219 0-1.25.532-1.719 1.079-1.719.953 0 .953.75.953 1.75m0 0"/><path id="j" d="M5.25-1.86c0-1.077-.844-1.546-1.328-1.827.687-.36 1-.797 1-1.376 0-1.015-.906-1.468-2.047-1.468-1.375 0-2.078.797-2.078 1.75 0 .437.187 1.062.953 1.5C.922-2.906.484-2.344.484-1.61.484-.406 1.563.109 2.844.109 4.438.11 5.25-.766 5.25-1.859M4.172-5.046c0 .484-.25.813-.688 1.11l-1.5-.844c-.156-.078-.437-.25-.437-.594 0-.703.89-.766 1.297-.766.828 0 1.328.407 1.328 1.094m.219 3.734c0 .829-.938 1-1.516 1-.969 0-1.547-.515-1.547-1.296 0-.766.531-1.203.89-1.407l1.36.766c.438.25.813.453.813.938m0 0"/><path id="l" d="M4.922 0v-.469h-1.39v-5.734c0-.234 0-.328-.266-.328-.11 0-.125 0-.22.078-.765.562-1.796.562-2 .562H.845v.47h.203c.156 0 .703-.016 1.297-.204v5.156H.954V0c.437-.031 1.5-.031 1.984-.031s1.546 0 1.984.031m0 0"/><path id="m" d="M-3.953-5.781h-.469c.016.25.031.531.031.781l-.03.906h.468c0-.187.031-.468.11-.468 0 0 .015 0 .109.046l2.5 1.157-2.72 1.265v-.531h-.468l.031 1.234-.03 1.125h.468V-.89l3.75-1.75c.25-.125.25-.25.25-.375 0-.171-.031-.28-.25-.375L-3.75-5.047c-.14-.062-.203-.094-.203-.734m0 0"/><path id="n" d="M-1.172-4.922c-.172 0-.172.188-.172.234 0 .172.047.188.203.25.485.204.797.782.797 1.422 0 1.407-1.328 1.422-1.828 1.422v-3.015c0-.22 0-.313-.265-.313-.313 0-1.047.063-1.547.563-.36.359-.532.89-.532 1.578 0 1.594 1.032 2.469 2.266 2.469 1.344 0 2.313-1 2.313-2.61 0-1.578-1.063-2-1.235-2m-1.328.938v2.39c-.39-.015-.812-.031-1.14-.234a1.17 1.17 0 0 1-.516-.953c0-1.172 1.312-1.188 1.656-1.203m0 0"/><path id="o" d="M-3.672-4.406c-.531 0-.812.531-.812 1.062 0 .688.5 1.094 1.125 1.313h-1.125l.078 1.656h.468c0-.61 0-.687.391-.687h3.078v.687H0l-.031-1.25C-.031-2-.031-2.641 0-3h-.469v.86h-1.75c-.687 0-1.906-.235-1.906-1.235 0 0 .172.188.453.188.406 0 .61-.329.61-.61 0-.297-.204-.61-.61-.61m0 0"/><path id="p" d="M-3.953-5.781h-.469c.016.234.031.531.031.781l-.03.906h.468s0-.468.11-.468l.124.062 2.453 1.14-2.687 1.266v-.531h-.469l.031 1.234-.03 1.125h.468V-.89L0-2.766l.484.235c.47.219 1.157.531 1.157 1.25 0 .14-.016.156-.047.234-.032-.094-.172-.312-.532-.312-.328 0-.562.234-.562.578 0 .265.188.562.578.562.5 0 .922-.468.922-1.062 0-.766-.625-1.344-1.187-1.625l-4.563-2.14c-.14-.063-.203-.095-.203-.735m0 0"/><path id="q" d="M-3.953-5.562c-.235 0-.578.171-.578.625 0 .156.031.625.375 1.062-.125.172-.328.594-.328 1.328 0 1.438.78 1.985 1.468 1.985.407 0 .829-.188 1.047-.516.36.281.688.344.89.344.157 0 .642-.047.954-.438.031.125.25.86.875.86C1.25-.312 2-.875 2-2.86 2-4.625 1.422-5.406.719-5.406c-.297 0-.922.078-1.266.75-.281.562-.281 1.156-.281 2.11 0 .265 0 .718-.016.765a.625.625 0 0 1-.625.562.63.63 0 0 1-.328-.11c.234-.452.266-.968.266-1.218 0-1.437-.782-1.984-1.485-1.984-.468 0-.796.25-.953.406-.156-.297-.172-.516-.187-.625.047.031.14.047.203.047.25 0 .422-.172.422-.438a.41.41 0 0 0-.422-.421m.937 2.14c.454 0 1.125 0 1.125.875s-.671.875-1.125.875c-.437 0-1.109 0-1.109-.875s.672-.875 1.11-.875M.75-4.547c.36 0 .89.39.89 1.688 0 1.187-.452 1.687-.906 1.687-.609 0-.609-.625-.609-.766v-1.171c0-.313 0-1.438.625-1.438m0 0"/><path id="r" d="M-2.172-5.406c-1.344 0-2.344.922-2.344 2.547 0 1.64 1.016 2.547 2.344 2.547C-.937-.312.063-1.203.063-2.86c0-1.672-1.016-2.547-2.235-2.547m-.11 1.281c.86 0 1.938 0 1.938 1.266 0 1.265-1.078 1.265-1.937 1.265-.453 0-.953 0-1.297-.172-.375-.187-.578-.609-.578-1.093 0-.422.156-.844.5-1.063.344-.203.89-.203 1.375-.203m0 0"/><path id="s" d="M0-5.984h-.469c0 .609 0 .687-.39.687h-6.063l.078 1.766h.469c0-.625 0-.703.39-.703h1.954c-.39.5-.453 1.03-.453 1.359 0 1.453.875 2.5 2.28 2.5 1.313 0 2.267-.922 2.267-2.39 0-.61-.235-1.094-.485-1.407h.485Zm-1.031 1.812c.187.14.734.547.734 1.297 0 1.219-1.203 1.219-1.906 1.219-.485 0-1.016 0-1.406-.25-.422-.297-.516-.766-.516-1.078 0-.563.313-.97.61-1.188Zm0 0"/><path id="t" d="M0-5.86h-.469v.173c0 .437-.047.468-.203.593l-2.094 1.688-1.015-1.297c-.11-.14-.172-.234-.172-.906h-.469c.031.28.031.53.031.78l-.03 1.157h.468c0-.234.031-.265.11-.344L-2.36-2.14h-4.563l.078 1.766h.469c0-.61 0-.687.39-.687h5.516v.687H0l-.031-1.187L0-2.766h-.469v.688h-1.265c-.235-.297-.297-.375-.422-.578l1.25-1c.125-.094.312-.25.344-.25.093 0 .093.172.093.312H0a53 53 0 0 1-.031-1.219c0-.359.015-.703.031-1.046m0 0"/><path id="u" d="M-2.219-5.984c-1.328 0-2.265.937-2.265 2.39 0 .719.28 1.219.484 1.453h-2.922l.078 1.766h.469c0-.61 0-.687.39-.687H0v-.47c-.187-.155-.375-.327-.562-.484.078-.078.625-.562.625-1.453 0-1.484-.907-2.515-2.282-2.515m0 1.28c.469 0 1.016 0 1.406.25.407.298.516.75.516 1.079 0 .688-.547 1.078-.687 1.188h-2.5c-.36-.282-.641-.75-.641-1.297 0-1.22 1.203-1.22 1.906-1.22m0 0"/><path id="v" d="M-.234-5.516c-.235 0-.235.125-.235.266-.015.61-.14.61-.375.61h-2.14c-.891 0-1.532.702-1.532 2.187 0 .562.047 1.781.922 1.781a.6.6 0 0 0 .625-.61c0-.312-.219-.624-.625-.624-.297 0-.469.187-.5.218a5 5 0 0 1-.062-.718c0-.75.422-1.11 1.172-1.11h.343c.032.72.125 3.25 1.563 3.25.953 0 1.14-1.234 1.14-1.921 0-.797-.406-1.266-.828-1.485.313 0 .766 0 .766-1.047v-.468c0-.204 0-.329-.234-.329m-1.157 2c.97 0 1.094.922 1.094 1.172 0 .516-.344.906-.797.906-1.062 0-1.203-1.578-1.234-2.078Zm0 0"/><clipPath id="a"><path d="M14 80h186.176v21H14Zm0 0"/></clipPath><clipPath id="c"><path d="M14 63h186.176v21H14Zm0 0"/></clipPath><clipPath id="e"><path d="M14 46h186.176v21H14Zm0 0"/></clipPath><clipPath id="g"><path d="M14 29h186.176v21H14Zm0 0"/></clipPath><clipPath id="i"><path d="M14 12h186.176v21H14Zm0 0"/></clipPath><clipPath id="k"><path d="M14 0h186.176v16H14Zm0 0"/></clipPath></defs><g clip-path="url(#a)"><path fill="none" stroke="#000" stroke-dasharray="2.98883 2.98883" stroke-miterlimit="10" stroke-width=".399" d="m20.574 94.645 8.504-8.504H199.16"/></g><use xlink:href="#b" x="11.327" y="97.851"/><g clip-path="url(#c)"><path fill="none" stroke="#000" stroke-dasharray="2.98883 2.98883" stroke-miterlimit="10" stroke-width=".399" d="m20.574 77.637 8.504-8.504H199.16"/></g><use xlink:href="#d" x="5.598" y="80.844"/><use xlink:href="#b" x="11.327" y="80.844"/><g clip-path="url(#e)"><path fill="none" stroke="#000" stroke-dasharray="2.98883 2.98883" stroke-miterlimit="10" stroke-width=".399" d="m20.574 60.629 8.504-8.504H199.16"/></g><use xlink:href="#f" x="5.598" y="63.842"/><use xlink:href="#b" x="11.327" y="63.842"/><g clip-path="url(#g)"><path fill="none" stroke="#000" stroke-dasharray="2.98883 2.98883" stroke-miterlimit="10" stroke-width=".399" d="m20.574 43.621 8.504-8.504H199.16"/></g><use xlink:href="#h" x="5.598" y="46.829"/><use xlink:href="#b" x="11.327" y="46.829"/><g clip-path="url(#i)"><path fill="none" stroke="#000" stroke-dasharray="2.98883 2.98883" stroke-miterlimit="10" stroke-width=".399" d="m20.574 26.613 8.504-8.504H199.16"/></g><use xlink:href="#j" x="5.598" y="29.822"/><use xlink:href="#b" x="11.327" y="29.822"/><g clip-path="url(#k)"><path fill="none" stroke="#000" stroke-dasharray="2.98883 2.98883" stroke-miterlimit="10" stroke-width=".399" d="m20.574 9.605 8.504-8.503H199.16"/></g><use xlink:href="#l" x="-.13" y="12.815"/><use xlink:href="#b" x="5.599" y="12.815"/><use xlink:href="#b" x="11.327" y="12.815"/><path fill="none" stroke="#000" stroke-miterlimit="10" stroke-width=".399" d="M20.574 94.645V9.605m8.504 76.536V1.1M20.574 94.645h170.082"/><use xlink:href="#m" x="51.377" y="147.916"/><use xlink:href="#n" x="51.377" y="142.187"/><use xlink:href="#o" x="51.377" y="136.937"/><use xlink:href="#p" x="51.377" y="132.215"/><use xlink:href="#q" x="51.377" y="122.352"/><use xlink:href="#r" x="51.377" y="116.623"/><use xlink:href="#r" x="51.377" y="110.576"/><use xlink:href="#s" x="51.377" y="104.529"/><path fill="#7F7FFF" stroke="#000" stroke-miterlimit="10" stroke-width=".399" d="M40.418 94.645V86.14h17.008v8.504Zm0 0"/><path fill="#B2B2FF" stroke="#000" stroke-miterlimit="10" stroke-width=".399" d="m57.426 94.645 8.504-8.504v-8.504l-8.504 8.504Zm0 0"/><path fill="#CCF" stroke="#000" stroke-miterlimit="10" stroke-width=".399" d="M40.418 86.14h17.008l8.504-8.503H48.922Zm0 0"/><use xlink:href="#q" x="79.724" y="122.352"/><use xlink:href="#r" x="79.724" y="116.623"/><use xlink:href="#r" x="79.724" y="110.576"/><use xlink:href="#s" x="79.724" y="104.529"/><path fill="#7F7FFF" stroke="#000" stroke-miterlimit="10" stroke-width=".399" d="M68.766 94.645V69.133h17.007v25.512Zm0 0"/><path fill="#B2B2FF" stroke="#000" stroke-miterlimit="10" stroke-width=".399" d="m85.773 94.645 8.504-8.504V60.629l-8.504 8.504Zm0 0"/><path fill="#CCF" stroke="#000" stroke-miterlimit="10" stroke-width=".399" d="M68.766 69.133h17.007l8.504-8.504H77.27Zm0 0"/><use xlink:href="#r" x="109.041" y="109.939"/><use xlink:href="#t" x="109.041" y="104.21"/><path fill="#7F7FFF" stroke="#000" stroke-miterlimit="10" stroke-width=".399" d="M97.113 94.645V66.582h17.008v28.063Zm0 0"/><path fill="#B2B2FF" stroke="#000" stroke-miterlimit="10" stroke-width=".399" d="m114.121 94.645 8.504-8.504V58.078l-8.504 8.504Zm0 0"/><path fill="#CCF" stroke="#000" stroke-miterlimit="10" stroke-width=".399" d="M97.113 66.582h17.008l8.504-8.504h-17.008Zm0 0"/><use xlink:href="#u" x="137.388" y="116.464"/><use xlink:href="#v" x="137.388" y="110.098"/><use xlink:href="#s" x="137.388" y="104.529"/><path fill="#7F7FFF" stroke="#000" stroke-miterlimit="10" stroke-width=".399" d="M125.457 94.645V71.684h17.008v22.96Zm0 0"/><path fill="#B2B2FF" stroke="#000" stroke-miterlimit="10" stroke-width=".399" d="m142.465 94.645 8.504-8.504V63.18l-8.504 8.504Zm0 0"/><path fill="#CCF" stroke="#000" stroke-miterlimit="10" stroke-width=".399" d="M125.457 71.684h17.008l8.504-8.504H133.96Zm0 0"/><use xlink:href="#m" x="164.768" y="142.028"/><use xlink:href="#n" x="164.768" y="136.299"/><use xlink:href="#o" x="164.768" y="131.049"/><use xlink:href="#p" x="164.768" y="126.327"/><use xlink:href="#u" x="164.768" y="116.464"/><use xlink:href="#v" x="164.768" y="110.098"/><use xlink:href="#s" x="164.768" y="104.529"/><path fill="none" stroke="#000" stroke-miterlimit="10" stroke-width=".399" d="M153.805 94.645h17.007Zm0 0"/><path fill="#B2B2FF" stroke="#000" stroke-miterlimit="10" stroke-width=".399" d="m170.813 94.645 8.503-8.504Zm0 0"/><path fill="#CCF" stroke="#000" stroke-miterlimit="10" stroke-width=".399" d="M153.805 94.645h17.007l8.504-8.504H162.31Zm0 0"/></svg>