<svg xmlns="http://www.w3.org/2000/svg" width="87.446" height="59.096"><defs><clipPath id="a"><path d="M0 37h44v21.645H0Zm0 0"/></clipPath><clipPath id="b"><path d="M0 27h28v31.645H0Zm0 0"/></clipPath><clipPath id="c"><path d="M0 0h87.168v58.645H0Zm0 0"/></clipPath></defs><path fill="none" stroke="#7F7F7F" stroke-miterlimit="10" stroke-width=".199" d="M.941 57.441h85.04M.94 29.094h85.04M.94.746h85.04M.94 57.441V.746m28.344 56.695V.746m28.348 56.695V.746M85.98 57.441V.746"/><path fill="none" stroke="#000" stroke-miterlimit="10" stroke-width=".399" d="M.941 57.441h42.52"/><g clip-path="url(#a)"><path fill="none" stroke="#000" stroke-miterlimit="10" stroke-width=".399" d="m.941 57.441 36.825-14.175"/></g><g clip-path="url(#b)"><path fill="none" stroke="#000" stroke-miterlimit="10" stroke-width=".399" d="M.941 57.441 22.2 32.891"/></g><path fill="none" stroke="#000" stroke-miterlimit="10" stroke-width=".399" d="M.941 57.441V29.094"/><g clip-path="url(#c)"><path fill="none" stroke="#000" stroke-miterlimit="10" stroke-width=".399" d="M85.98 57.441 74.586 29.094 43.46 8.34.94.746"/></g></svg>