<svg xmlns="http://www.w3.org/2000/svg" width="59.11" height="59.114"><defs><clipPath id="a"><path d="M0 0h58.664v58.672H0Zm0 0"/></clipPath><clipPath id="b"><path d="M29 0h29v58H29Zm0 0"/></clipPath><clipPath id="c"><path d="M57.457 29.121C57.457 13.465 44.766.773 29.109.773S.762 13.465.762 29.121 13.453 57.47 29.109 57.47 57.457 44.777 57.457 29.12m0 0"/></clipPath></defs><g clip-path="url(#a)"><path fill="none" stroke="#000" stroke-miterlimit="10" stroke-width=".399" d="M57.457 29.121C57.457 13.465 44.766.773 29.109.773S.762 13.465.762 29.121 13.453 57.47 29.109 57.47 57.457 44.777 57.457 29.12Zm0 0"/></g><g clip-path="url(#b)"><g clip-path="url(#c)"><path fill="red" d="M85.805 29.121C85.805 13.465 73.113.773 57.457.773S29.109 13.465 29.109 29.121 41.801 57.47 57.457 57.47 85.805 44.777 85.805 29.12m0 0"/></g></g></svg>