<?xml version="1.0" encoding="UTF-8"?>
<svg xmlns="http://www.w3.org/2000/svg" xmlns:xlink="http://www.w3.org/1999/xlink" width="70.829pt" height="76.52pt" viewBox="0 0 70.829 76.52" version="1.2">
<defs>
<clipPath id="clip1">
  <path d="M 15 46 L 56 46 L 56 76.28125 L 15 76.28125 Z M 15 46 "/>
</clipPath>
</defs>
<g id="surface1">
<path style="fill-rule:nonzero;fill:rgb(79.998779%,79.998779%,100%);fill-opacity:1;stroke-width:0.79701;stroke-linecap:butt;stroke-linejoin:miter;stroke:rgb(50%,50%,100%);stroke-opacity:1;stroke-miterlimit:10;" d="M 8.502531 56.693313 C 8.502531 61.388625 4.697844 65.197219 -0.001375 65.197219 C -4.696687 65.197219 -8.505281 61.388625 -8.505281 56.693313 C -8.505281 51.998 -4.696687 48.189406 -0.001375 48.189406 C 4.697844 48.189406 8.502531 51.998 8.502531 56.693313 Z M 8.502531 56.693313 " transform="matrix(1,0,0,-1,35.3295,66.373)"/>
<path style="fill-rule:nonzero;fill:rgb(79.998779%,79.998779%,100%);fill-opacity:1;stroke-width:0.79701;stroke-linecap:butt;stroke-linejoin:miter;stroke:rgb(50%,50%,100%);stroke-opacity:1;stroke-miterlimit:10;" d="M 8.502531 28.345656 C 8.502531 33.044875 4.697844 36.849563 -0.001375 36.849563 C -4.696687 36.849563 -8.505281 33.044875 -8.505281 28.345656 C -8.505281 23.650344 -4.696687 19.84175 -0.001375 19.84175 C 4.697844 19.84175 8.502531 23.650344 8.502531 28.345656 Z M 8.502531 28.345656 " transform="matrix(1,0,0,-1,35.3295,66.373)"/>
<path style=" stroke:none;fill-rule:nonzero;fill:rgb(79.998779%,79.998779%,100%);fill-opacity:1;" d="M 43.832031 66.371094 C 43.832031 61.675781 40.027344 57.867188 35.328125 57.867188 C 30.632812 57.867188 26.824219 61.675781 26.824219 66.371094 C 26.824219 71.070312 30.632812 74.878906 35.328125 74.878906 C 40.027344 74.878906 43.832031 71.070312 43.832031 66.371094 Z M 43.832031 66.371094 "/>
<g clip-path="url(#clip1)" clip-rule="nonzero">
<path style="fill:none;stroke-width:0.79701;stroke-linecap:butt;stroke-linejoin:miter;stroke:rgb(50%,50%,100%);stroke-opacity:1;stroke-miterlimit:10;" d="M 8.502531 0.00190625 C 8.502531 4.697219 4.697844 8.505813 -0.001375 8.505813 C -4.696687 8.505813 -8.505281 4.697219 -8.505281 0.00190625 C -8.505281 -4.697312 -4.696687 -8.505906 -0.001375 -8.505906 C 4.697844 -8.505906 8.502531 -4.697312 8.502531 0.00190625 Z M 8.502531 0.00190625 " transform="matrix(1,0,0,-1,35.3295,66.373)"/>
</g>
<path style="fill-rule:nonzero;fill:rgb(79.998779%,79.998779%,79.998779%);fill-opacity:1;stroke-width:0.79701;stroke-linecap:butt;stroke-linejoin:miter;stroke:rgb(50%,50%,50%);stroke-opacity:1;stroke-miterlimit:10;" d="M 22.678313 22.677688 L 34.01425 22.677688 L 34.01425 34.017531 L 22.678313 34.017531 Z M 22.678313 22.677688 " transform="matrix(1,0,0,-1,35.3295,66.373)"/>
<path style="fill-rule:nonzero;fill:rgb(79.998779%,79.998779%,79.998779%);fill-opacity:1;stroke-width:0.79701;stroke-linecap:butt;stroke-linejoin:miter;stroke:rgb(50%,50%,50%);stroke-opacity:1;stroke-miterlimit:10;" d="M -34.017 22.677688 L -22.677156 22.677688 L -22.677156 34.017531 L -34.017 34.017531 Z M -34.017 22.677688 " transform="matrix(1,0,0,-1,35.3295,66.373)"/>
</g>
</svg>
