<svg xmlns="http://www.w3.org/2000/svg" width="98.804" height="98.804"><defs><clipPath id="a"><path d="M0 80h19v18.707H0Zm0 0"/></clipPath><clipPath id="b"><path d="M23 80h24v18.707H23Zm0 0"/></clipPath><clipPath id="c"><path d="M52 80h23v18.707H52Zm0 0"/></clipPath><clipPath id="d"><path d="M80 80h18.707v18.707H80Zm0 0"/></clipPath><clipPath id="e"><path d="M80 52h18.707v23H80Zm0 0"/></clipPath><clipPath id="f"><path d="M80 23h18.707v24H80Zm0 0"/></clipPath><clipPath id="g"><path d="M80 0h18.707v19H80Zm0 0"/></clipPath></defs><g clip-path="url(#a)"><path fill="none" stroke="#000" stroke-miterlimit="10" stroke-width=".399" d="M12.457 91.828a5.667 5.667 0 0 0-5.668-5.668 5.668 5.668 0 1 0 0 11.336 5.667 5.667 0 0 0 5.668-5.668Zm0 0"/></g><path d="M9.621 91.828a2.83 2.83 0 0 0-2.832-2.836 2.836 2.836 0 1 0 0 5.672 2.83 2.83 0 0 0 2.832-2.836m0 0"/><path fill="none" stroke="#000" stroke-miterlimit="10" stroke-width=".399" d="M12.457 63.48a5.67 5.67 0 1 0-11.34.004 5.67 5.67 0 0 0 11.34-.004Zm0 0"/><path d="M9.621 63.48a2.83 2.83 0 0 0-2.832-2.835 2.836 2.836 0 1 0 0 5.671 2.83 2.83 0 0 0 2.832-2.836m0 0"/><path fill="none" stroke="#000" stroke-miterlimit="10" stroke-width=".399" d="M12.457 35.133a5.67 5.67 0 1 0-11.34.003 5.67 5.67 0 0 0 11.34-.003Zm0 0"/><path d="M9.621 35.133a2.835 2.835 0 1 0-5.666.006 2.835 2.835 0 0 0 5.666-.006m0 0"/><path fill="none" stroke="#000" stroke-miterlimit="10" stroke-width=".399" d="M12.457 6.79a5.67 5.67 0 1 0-11.341-.003 5.67 5.67 0 0 0 11.341.002Zm0 0"/><path d="M9.621 6.79A2.83 2.83 0 0 0 6.79 3.952 2.835 2.835 0 1 0 9.621 6.79m0 0"/><g clip-path="url(#b)"><path fill="none" stroke="#000" stroke-miterlimit="10" stroke-width=".399" d="M40.805 91.828a5.667 5.667 0 0 0-5.668-5.668 5.668 5.668 0 1 0 0 11.336 5.667 5.667 0 0 0 5.668-5.668Zm0 0"/></g><path d="M37.969 91.828a2.835 2.835 0 1 0-2.832 2.836 2.835 2.835 0 0 0 2.832-2.836m0 0"/><path fill="none" stroke="#000" stroke-miterlimit="10" stroke-width=".399" d="M40.805 63.48a5.67 5.67 0 1 0-11.34.004 5.67 5.67 0 0 0 11.34-.004Zm0 0"/><path d="M37.969 63.48a2.835 2.835 0 1 0-2.832 2.836 2.835 2.835 0 0 0 2.832-2.836m0 0"/><path fill="none" stroke="#000" stroke-miterlimit="10" stroke-width=".399" d="M40.805 35.133a5.67 5.67 0 1 0-11.34.003 5.67 5.67 0 0 0 11.34-.003Zm0 0"/><path d="M37.969 35.133a2.834 2.834 0 1 0-5.668.004 2.834 2.834 0 0 0 5.668-.004m0 0"/><path fill="none" stroke="#000" stroke-miterlimit="10" stroke-width=".399" d="M40.805 6.79a5.67 5.67 0 1 0-11.342-.003 5.67 5.67 0 0 0 11.342.002Zm0 0"/><path d="M37.969 6.79a2.835 2.835 0 1 0-5.668 0 2.835 2.835 0 0 0 5.668 0m0 0"/><g clip-path="url(#c)"><path fill="none" stroke="#000" stroke-miterlimit="10" stroke-width=".399" d="M69.152 91.828a5.67 5.67 0 0 0-5.672-5.668 5.667 5.667 0 0 0-5.667 5.668 5.667 5.667 0 0 0 5.667 5.668 5.67 5.67 0 0 0 5.672-5.668Zm0 0"/></g><path d="M66.316 91.828a2.836 2.836 0 0 0-2.836-2.836 2.83 2.83 0 0 0-2.832 2.836 2.83 2.83 0 0 0 2.832 2.836 2.836 2.836 0 0 0 2.836-2.836m0 0"/><path fill="none" stroke="#000" stroke-miterlimit="10" stroke-width=".399" d="M69.152 63.48a5.67 5.67 0 1 0-11.34.006 5.67 5.67 0 0 0 11.34-.006Zm0 0"/><path d="M66.316 63.48a2.836 2.836 0 0 0-2.836-2.835 2.83 2.83 0 0 0-2.832 2.835 2.83 2.83 0 0 0 2.832 2.836 2.836 2.836 0 0 0 2.836-2.836m0 0"/><path fill="none" stroke="#000" stroke-miterlimit="10" stroke-width=".399" d="M69.152 35.133a5.67 5.67 0 1 0-11.34.005 5.67 5.67 0 0 0 11.34-.005Zm0 0"/><path d="M66.316 35.133a2.835 2.835 0 1 0-5.67.006 2.835 2.835 0 0 0 5.67-.006m0 0"/><path fill="none" stroke="#000" stroke-miterlimit="10" stroke-width=".399" d="M69.152 6.79a5.67 5.67 0 1 0-11.338-.002 5.67 5.67 0 0 0 11.338.001Zm0 0"/><path d="M66.316 6.79a2.836 2.836 0 0 0-2.836-2.837 2.83 2.83 0 0 0-2.832 2.836 2.835 2.835 0 0 0 5.668 0m0 0"/><g clip-path="url(#d)"><path fill="none" stroke="#000" stroke-miterlimit="10" stroke-width=".399" d="M97.496 91.828a5.665 5.665 0 0 0-5.668-5.668 5.667 5.667 0 0 0-5.668 5.668 5.667 5.667 0 0 0 5.668 5.668 5.665 5.665 0 0 0 5.668-5.668Zm0 0"/></g><path d="M94.664 91.828a2.836 2.836 0 1 0-5.671 0 2.836 2.836 0 0 0 5.671 0m0 0"/><g clip-path="url(#e)"><path fill="none" stroke="#000" stroke-miterlimit="10" stroke-width=".399" d="M97.496 63.48a5.667 5.667 0 1 0-11.336 0 5.668 5.668 0 1 0 11.336 0Zm0 0"/></g><path d="M94.664 63.48a2.836 2.836 0 1 0-5.671 0 2.836 2.836 0 0 0 5.671 0m0 0"/><g clip-path="url(#f)"><path fill="none" stroke="#000" stroke-miterlimit="10" stroke-width=".399" d="M97.496 35.133a5.667 5.667 0 1 0-11.336 0 5.668 5.668 0 1 0 11.336 0Zm0 0"/></g><path d="M94.664 35.133a2.835 2.835 0 0 0-2.836-2.832 2.835 2.835 0 1 0 2.836 2.832m0 0"/><g clip-path="url(#g)"><path fill="none" stroke="#000" stroke-miterlimit="10" stroke-width=".399" d="M97.496 6.79a5.668 5.668 0 1 0-11.336 0 5.667 5.667 0 1 0 11.336 0Zm0 0"/></g><path d="M94.664 6.79a2.836 2.836 0 1 0-5.672 0 2.835 2.835 0 0 0 2.836 2.831 2.835 2.835 0 0 0 2.836-2.832m0 0"/></svg>