<svg xmlns="http://www.w3.org/2000/svg" width="105.266" height="76.358"><defs><clipPath id="a"><path d="M0 0h104.898v76.035H0Zm0 0"/></clipPath></defs><path fill="#CCF" d="M9.738 66.496 2.652 59.41l14.172-14.176L2.652 31.062l14.172-14.175L2.652 2.715 31 16.887 45.172 2.715l14.172 14.172L73.52 2.715 87.69 16.887l14.172-14.172-14.172 28.348 14.172 14.171-14.172 14.172 14.172 14.176L73.52 59.41 59.344 73.582 45.172 59.41 31 73.582 16.824 59.41z"/><g clip-path="url(#a)"><path fill="none" stroke="#00F" stroke-miterlimit="10" stroke-width=".797" d="M9.738 66.496 2.652 59.41l14.172-14.176L2.652 31.063l14.172-14.176L2.652 2.715 31 16.887 45.172 2.715l14.172 14.172L73.52 2.715 87.69 16.887l14.172-14.172-14.172 28.348 14.172 14.171-14.172 14.172 14.172 14.176L73.52 59.41 59.344 73.582 45.172 59.41 31 73.582 16.824 59.41l-7.086 7.086"/></g></svg>