<svg xmlns="http://www.w3.org/2000/svg" xmlns:xlink="http://www.w3.org/1999/xlink" width="35.156" height="36.992"><defs><path id="a" d="M4.922 0v-.469h-1.39v-5.734c0-.234 0-.328-.266-.328-.11 0-.125 0-.22.078-.765.562-1.796.562-2 .562H.845v.47h.203c.156 0 .703-.016 1.297-.204v5.156H.954V0c.437-.031 1.5-.031 1.984-.031s1.546 0 1.984.031m0 0"/><path id="b" d="M5.281-3.187c0-.954-.015-3.344-2.422-3.344S.453-4.156.453-3.188c0 1 0 3.297 2.406 3.297 2.391 0 2.422-2.296 2.422-3.296M4-3.297c0 .563 0 1.469-.078 1.985-.14.921-.766 1.062-1.063 1.062-.359 0-.921-.219-1.046-.953-.094-.516-.094-1.547-.094-2.094 0-.719 0-1.375.078-1.89.125-.891.828-.985 1.062-.985.375 0 .782.188.97.625C4-5.172 4-4.109 4-3.297m0 0"/></defs><use xlink:href="#a" x=".119" y="7.53"/><use xlink:href="#b" x="14.292" y="7.53"/><use xlink:href="#b" x="28.465" y="7.53"/><use xlink:href="#b" x=".119" y="21.703"/><use xlink:href="#a" x="14.292" y="21.703"/><use xlink:href="#b" x="28.465" y="21.703"/><use xlink:href="#b" x=".119" y="35.876"/><use xlink:href="#b" x="14.292" y="35.876"/><use xlink:href="#a" x="28.465" y="35.876"/></svg>