<svg xmlns="http://www.w3.org/2000/svg" width="30.365" height="5.582"><defs><clipPath id="a"><path d="M0 0h11v5.371H0Zm0 0"/></clipPath><clipPath id="b"><path d="M19 0h11.047v5.371H19Zm0 0"/></clipPath></defs><path fill="none" stroke="#000" stroke-miterlimit="10" stroke-width=".399" d="M4.453 2.586h20.824"/><path d="M4.652 2.586c-.46.113-2.492.754-3.761 1.45V1.14c1.27.695 3.3 1.332 3.761 1.445m0 0"/><g clip-path="url(#a)"><path fill="none" stroke="#000" stroke-miterlimit="10" stroke-width=".399" d="M4.652 2.586c-.46.113-2.492.754-3.761 1.45V1.14c1.27.695 3.3 1.332 3.761 1.445Zm0 0"/></g><path d="M25.078 2.586c.461-.113 2.492-.75 3.762-1.445v2.894c-1.27-.695-3.3-1.336-3.762-1.45m0 0"/><g clip-path="url(#b)"><path fill="none" stroke="#000" stroke-miterlimit="10" stroke-width=".399" d="M25.078 2.586c.461-.113 2.492-.75 3.762-1.445v2.894c-1.27-.695-3.3-1.336-3.762-1.45Zm0 0"/></g></svg>