<svg xmlns="http://www.w3.org/2000/svg" xmlns:xlink="http://www.w3.org/1999/xlink" width="139.34" height="86.294"><defs><path id="b" d="M4.688-.375c0-.36-.282-.375-.47-.375H3.032v-4.86c0-.359-.078-.484-.469-.484h-1.53c-.188 0-.485.016-.485.375 0 .36.297.375.469.375h1.187V-.75H1.031c-.187 0-.484.016-.484.375 0 .36.297.375.469.375h3.203c.172 0 .468-.016.468-.375m0 0"/><path id="c" d="M4.656-1.14c0-.329-.343-.344-.422-.344-.218 0-.312.03-.39.265-.203.453-.688.532-.938.532-.672 0-1.344-.422-1.515-1.172h2.797c.25 0 .468 0 .468-.438 0-1.14-.656-2.125-1.968-2.125-1.188 0-2.172 1-2.172 2.234C.516-.952 1.53.063 2.828.063c1.36 0 1.828-.937 1.828-1.203m-.86-1.454H1.392c.172-.625.687-1.078 1.297-1.078.468 0 1 .219 1.109 1.078m0 0"/><path id="d" d="M5.11-.375c0-.36-.282-.375-.47-.375h-.343v-2.172c0-1.031-.531-1.469-1.344-1.469-.562 0-.953.22-1.203.407 0-.25-.078-.36-.469-.36H.578c-.187 0-.469.016-.469.375 0 .36.297.375.454.375h.359V-.75H.578C.391-.75.11-.734.11-.375c0 .36.297.375.454.375h1.546c.172 0 .47-.016.47-.375 0-.36-.282-.375-.47-.375H1.75v-1.64c0-.907.688-1.266 1.14-1.266.47 0 .579.25.579.781V-.75h-.297c-.188 0-.485.016-.485.375 0 .36.313.375.485.375h1.484c.157 0 .453-.016.453-.375m0 0"/><path id="e" d="M5.094-3.844c0-.25-.203-.61-.782-.61-.109 0-.578.016-1.046.329-.172-.11-.5-.266-.938-.266-.953 0-1.687.75-1.687 1.625 0 .407.156.72.312.922-.11.157-.187.375-.187.657 0 .312.109.546.187.671C.266-.046.266.61.266.72c0 .86 1.047 1.5 2.343 1.5s2.344-.64 2.344-1.5c0-.375-.187-.89-.703-1.172-.14-.078-.547-.297-1.453-.297h-.688c-.171 0-.39.047-.53-.125-.095-.11-.11-.297-.11-.297 0-.031.015-.094.031-.156.14.078.469.203.828.203.938 0 1.688-.734 1.688-1.64 0-.282-.079-.547-.235-.813.156-.078.297-.094.406-.125a.48.48 0 0 0 .438.328c.203 0 .469-.14.469-.469M3.187-2.766c0 .5-.39.907-.859.907-.484 0-.86-.422-.86-.907 0-.5.391-.89.86-.89s.86.422.86.89M4.235.72c0 .406-.703.765-1.625.765-.921 0-1.625-.359-1.625-.765 0-.156.079-.438.375-.625.22-.14.313-.14 1-.14.813 0 1.875 0 1.875.765m0 0"/><path id="f" d="M4.5-1.312c0-.204 0-.438-.422-.438-.39 0-.406.234-.406.438 0 .53-.5.625-.719.625-.656 0-.656-.454-.656-.672v-2.235h1.515c.172 0 .47-.015.47-.375 0-.375-.282-.375-.47-.375H2.298v-.718c0-.22-.016-.47-.406-.47-.422 0-.422.235-.422.47v.718H.703c-.187 0-.469.016-.469.375 0 .36.282.375.454.375h.78v2.282c0 1 .688 1.375 1.454 1.375.75 0 1.578-.454 1.578-1.375m0 0"/><path id="g" d="M5.11-.375c0-.36-.282-.375-.47-.375h-.343v-2.172c0-1.031-.531-1.469-1.344-1.469a2 2 0 0 0-1.203.407V-5.61c0-.36-.062-.485-.469-.485H.578c-.187 0-.469.016-.469.375 0 .36.297.375.454.375h.359V-.75H.578C.391-.75.11-.734.11-.375c0 .36.297.375.454.375h1.546c.172 0 .47-.016.47-.375 0-.36-.282-.375-.47-.375H1.75v-1.64c0-.907.688-1.266 1.14-1.266.47 0 .579.25.579.781V-.75h-.297c-.188 0-.485.016-.485.375 0 .36.313.375.485.375h1.484c.157 0 .453-.016.453-.375m0 0"/><path id="m" d="M4.563-.375c0-.36-.297-.375-.47-.375h-.937v-3.125c0-.36-.078-.469-.469-.469H1.314c-.188 0-.485.016-.485.36 0 .375.297.39.485.39h1.015V-.75h-1.11c-.187 0-.468.016-.468.375 0 .36.297.375.469.375h2.875c.172 0 .468-.016.468-.375m-1.375-5.11a.56.56 0 0 0-.563-.562.564.564 0 0 0-.578.563c0 .328.25.562.578.562a.55.55 0 0 0 .563-.562m0 0"/><path id="n" d="M4.61-1.297c0-1.062-1.313-1.281-1.641-1.328l-1-.187c-.266-.063-.532-.172-.532-.391 0-.235.313-.469 1.157-.469.719 0 .86.235.89.469.016.187.047.39.407.39.422 0 .422-.234.422-.468v-.672c0-.188-.016-.469-.36-.469-.219 0-.297.078-.344.172-.421-.172-.812-.172-1-.172-1.703 0-1.921.86-1.921 1.219 0 .937 1.046 1.125 1.984 1.265.437.079 1.187.188 1.187.641 0 .344-.343.61-1.171.61-.422 0-.938-.094-1.157-.813-.062-.219-.11-.328-.422-.328-.406 0-.421.234-.421.469v.937c0 .188.015.485.375.485.093 0 .265 0 .39-.329.469.313.953.329 1.235.329 1.593 0 1.921-.875 1.921-1.36m0 0"/><path id="h" d="M-3.984-5.078c-.344 0-.36.266-.36.484v1.11c0 .218.016.5.36.5.375 0 .39-.266.39-.5v-.375l2.453.422-.75.187c-.687.188-.78.25-.78.625 0 .11 0 .328.265.453l1.281.375-2.469.438v-.391c0-.219-.015-.484-.375-.484s-.375.265-.375.484v1.125c0 .203.016.484.36.484s.39-.203.39-.5l3.188-.578c.281-.047.453-.093.453-.531 0-.437-.094-.484-.75-.64l-.906-.25 1.437-.376c.203-.14.219-.343.219-.484 0-.422-.188-.453-.453-.5l-3.188-.578c0-.313-.047-.5-.39-.5m0 0"/><path id="i" d="M-.375-4.562c-.36 0-.375.296-.375.468v.938h-3.125c-.36 0-.469.078-.469.469v1.374c0 .188.016.485.36.485.375 0 .39-.297.39-.485v-1.015H-.75v1.11c0 .187.016.468.375.468.36 0 .375-.297.375-.469v-2.875c0-.172-.016-.468-.375-.468m-5.11 1.375a.56.56 0 0 0-.562.562c0 .328.25.578.563.578.328 0 .562-.25.562-.578a.55.55 0 0 0-.562-.562m0 0"/><path id="j" d="M-.375-5.125c-.36 0-.375.297-.375.469v.36h-4.86c-.359 0-.484.062-.484.468v.703c0 .188.016.484.375.484.36 0 .375-.296.375-.468v-.36h1.297a1.73 1.73 0 0 0-.344 1.063c0 1.094.938 2.062 2.235 2.062C-.922-.344.063-1.25.063-2.328c0-.485-.204-.86-.454-1.14.282-.016.391-.079.391-.47v-.703c0-.187-.016-.484-.375-.484m-1.594 1.672c.516 0 1.282.406 1.282 1.094 0 .672-.657 1.203-1.47 1.203-.89 0-1.5-.64-1.5-1.281 0-.579.5-1.016 1-1.016Zm0 0"/><path id="k" d="M-1.312-4.5c-.204 0-.438 0-.438.422 0 .39.234.406.438.406.53 0 .625.5.625.719 0 .656-.454.656-.672.656h-2.235v-1.515c0-.172-.015-.47-.375-.47-.375 0-.375.282-.375.47v1.515h-.718c-.22 0-.47.016-.47.406 0 .422.235.422.47.422h.718v.766c0 .187.016.469.375.469.36 0 .375-.282.375-.453v-.782h2.282c1 0 1.375-.687 1.375-1.453 0-.75-.454-1.578-1.375-1.578m0 0"/><path id="l" d="M-.375-5.11c-.36 0-.375.282-.375.47v.343h-2.172c-1.031 0-1.469.531-1.469 1.344 0 .547.22.953.407 1.203H-5.61c-.36 0-.485.063-.485.469v.703c0 .187.016.469.375.469.36 0 .375-.297.375-.453v-.36H-.75v.344c0 .187.016.469.375.469.36 0 .375-.297.375-.453V-2.11c0-.172-.016-.47-.375-.47-.36 0-.375.282-.375.47v.359h-1.64c-.907 0-1.266-.687-1.266-1.14 0-.47.25-.579.781-.579H-.75v.297c0 .188.016.485.375.485.36 0 .375-.313.375-.485v-1.484c0-.157-.016-.453-.375-.453m0 0"/><clipPath id="a"><path d="M0 0h139.012v85.941H0Zm0 0"/></clipPath></defs><path fill="none" stroke="#7F7F7F" stroke-miterlimit="10" stroke-width="14.173" d="M.68 42.906h38.37"/><path d="M98.223 42.906 58.773 23.18 39.051 42.906 58.773 62.63Zm0 0"/><g clip-path="url(#a)"><path fill="none" stroke="#000" stroke-miterlimit="10" stroke-width="14.173" d="M98.223 42.906 58.773 23.18 39.051 42.906 58.773 62.63Zm0 0"/></g><path fill="none" stroke="red" stroke-miterlimit="10" stroke-width=".598" d="M30.223 10.574h82.648"/><path fill="none" stroke="red" stroke-linecap="round" stroke-linejoin="round" stroke-miterlimit="10" stroke-width=".598" d="M32.234 13.324c-.422-1.652-1.363-2.43-2.308-2.75.945-.32 1.887-1.101 2.308-2.754"/><path fill="none" stroke="red" stroke-miterlimit="10" stroke-width=".598" d="M29.328 13.262v-5.38"/><path fill="none" stroke="red" stroke-linecap="round" stroke-linejoin="round" stroke-miterlimit="10" stroke-width=".598" d="M110.86 7.82c.421 1.653 1.363 2.434 2.312 2.754-.95.32-1.89 1.098-2.313 2.75"/><path fill="none" stroke="red" stroke-miterlimit="10" stroke-width=".598" d="M113.77 7.883v5.379"/><g fill="red"><use xlink:href="#b" x="55.858" y="6.725"/><use xlink:href="#c" x="61.088" y="6.725"/><use xlink:href="#d" x="66.319" y="6.725"/><use xlink:href="#e" x="71.549" y="6.725"/><use xlink:href="#f" x="76.78" y="6.725"/><use xlink:href="#g" x="82.01" y="6.725"/></g><path fill="none" stroke="red" stroke-miterlimit="10" stroke-width=".598" d="M128.242 70.055V15.754"/><path fill="none" stroke="red" stroke-linecap="round" stroke-linejoin="round" stroke-miterlimit="10" stroke-width=".598" d="M130.992 68.043c-1.652.422-2.43 1.363-2.75 2.312-.32-.949-1.101-1.89-2.75-2.312"/><path fill="none" stroke="red" stroke-miterlimit="10" stroke-width=".598" d="M130.93 70.953h-5.38"/><path fill="none" stroke="red" stroke-linecap="round" stroke-linejoin="round" stroke-miterlimit="10" stroke-width=".598" d="M125.492 17.766c1.649-.422 2.43-1.364 2.75-2.313.32.95 1.098 1.89 2.75 2.313"/><path fill="none" stroke="red" stroke-miterlimit="10" stroke-width=".598" d="M125.55 14.855h5.38"/><g fill="red"><use xlink:href="#h" x="137.948" y="55.981"/><use xlink:href="#i" x="137.948" y="50.751"/><use xlink:href="#j" x="137.948" y="45.52"/><use xlink:href="#k" x="137.948" y="40.29"/><use xlink:href="#l" x="137.948" y="35.059"/></g><path fill="none" stroke="red" stroke-miterlimit="10" stroke-width=".598" d="M30.223 75.238H56.18"/><path fill="none" stroke="red" stroke-linecap="round" stroke-linejoin="round" stroke-miterlimit="10" stroke-width=".598" d="M32.234 77.988c-.422-1.652-1.363-2.43-2.308-2.75.945-.324 1.887-1.101 2.308-2.754"/><path fill="none" stroke="red" stroke-miterlimit="10" stroke-width=".598" d="M29.328 77.926v-5.38"/><path fill="none" stroke="red" stroke-linecap="round" stroke-linejoin="round" stroke-miterlimit="10" stroke-width=".598" d="M54.168 72.484c.422 1.653 1.363 2.43 2.309 2.754-.946.32-1.887 1.098-2.309 2.75"/><path fill="none" stroke="red" stroke-miterlimit="10" stroke-width=".598" d="M57.074 72.547v5.379"/><g fill="red"><use xlink:href="#m" x="30.126" y="84.893"/><use xlink:href="#d" x="35.356" y="84.893"/><use xlink:href="#n" x="40.587" y="84.893"/><use xlink:href="#c" x="45.817" y="84.893"/><use xlink:href="#f" x="51.048" y="84.893"/></g></svg>