<svg xmlns="http://www.w3.org/2000/svg" xmlns:xlink="http://www.w3.org/1999/xlink" width="142.234" height="42.477"><defs><path id="a" d="M8.578 0v-.469H7.5v-5.906h1.078v-.469c-.39.032-1.36.032-1.797.032-.422 0-1.39 0-1.781-.032v.469h1.078v2.594H2.875v-2.594h1.078v-.469c-.375.032-1.344.032-1.781.032-.422 0-1.406 0-1.781-.032v.469h1.078v5.906H.39V0C.766-.031 1.75-.031 2.17-.031c.438 0 1.407 0 1.782.031v-.469H2.875v-2.843h3.203V-.47H5V0c.39-.031 1.36-.031 1.781-.031.438 0 1.407 0 1.797.031m0 0"/><path id="b" d="M4.922-1.172c0-.172-.188-.172-.234-.172-.172 0-.188.047-.25.203-.204.485-.782.797-1.422.797-1.407 0-1.422-1.328-1.422-1.828h3.015c.22 0 .313 0 .313-.265 0-.313-.063-1.047-.563-1.547-.359-.36-.89-.532-1.578-.532C1.187-4.516.313-3.484.313-2.25c0 1.344 1 2.313 2.609 2.313 1.578 0 2-1.063 2-1.235M3.984-2.5h-2.39c.015-.39.031-.812.234-1.14.266-.391.672-.516.953-.516 1.172 0 1.188 1.312 1.203 1.656m0 0"/><path id="c" d="M2.922 0v-.469h-.688v-6.453L.47-6.844v.469c.625 0 .687 0 .687.39v5.516H.47V0l1.219-.031Zm0 0"/><path id="d" d="M5.406-2.172c0-1.344-.922-2.344-2.547-2.344C1.22-4.516.313-3.5.313-2.172c0 1.235.89 2.235 2.546 2.235 1.672 0 2.547-1.016 2.547-2.235m-1.281-.11c0 .86 0 1.938-1.266 1.938-1.265 0-1.265-1.078-1.265-1.937 0-.453 0-.953.172-1.297.187-.375.609-.578 1.093-.578.422 0 .844.156 1.063.5.203.344.203.89.203 1.375m0 0"/><path id="e" d="M11.61-6.375v-.469c-.282.016-.626.032-1.079.032-.375 0-.984 0-1.344-.032v.469c.25 0 .72 0 1.016.11L8.484-1.798 6.72-6.375h.953v-.469c-.375.032-1.313.032-1.734.032-.391 0-1.188 0-1.532-.032v.469h.86l.406 1.063-1.36 3.515-1.765-4.578h.969v-.469c-.391.032-1.328.032-1.75.032-.391 0-1.172 0-1.532-.032v.469h.86l2.39 6.203c.063.156.11.25.36.25s.281-.094.344-.25l1.734-4.5 1.734 4.5c.063.156.094.25.344.25s.297-.094.36-.25l2.296-5.953c.063-.172.063-.187.375-.219.203-.031.406-.031.578-.031m0 0"/><path id="f" d="M4.406-3.672c0-.531-.531-.812-1.062-.812-.688 0-1.094.5-1.313 1.125v-1.125l-1.656.078v.468c.61 0 .688 0 .688.391v3.078H.375V0l1.25-.031C2-.031 2.641-.031 3 0v-.469h-.86v-1.75c0-.687.235-1.906 1.235-1.906 0 0-.187.172-.187.453 0 .406.328.61.609.61.297 0 .61-.204.61-.61m0 0"/><path id="g" d="M5.984 0v-.469c-.609 0-.687 0-.687-.39v-6.063l-1.766.078v.469c.625 0 .703 0 .703.39v1.954a2.18 2.18 0 0 0-1.359-.453c-1.453 0-2.5.875-2.5 2.28 0 1.313.922 2.267 2.39 2.267.61 0 1.094-.235 1.407-.485v.485ZM4.172-1.031c-.14.187-.547.734-1.297.734-1.219 0-1.219-1.203-1.219-1.906 0-.485 0-1.016.25-1.406.297-.422.766-.516 1.078-.516.563 0 .97.313 1.188.61Zm0 0"/><path id="h" d="M2.5-.312c0-.672-.344-1.25-.922-1.25-.469 0-.766.359-.766.78 0 .407.266.782.766.782a.84.84 0 0 0 .563-.203C2.047.89 1.406 1.422 1.203 1.594c-.062.047-.094.078-.094.14 0 .094.11.204.188.204.156 0 1.203-.86 1.203-2.25m0 0"/><path id="i" d="M3.813-1.234v-.532h-.47v.516c0 .672-.327.906-.609.906-.578 0-.578-.64-.578-.86v-2.75h1.469v-.468H2.156v-1.906h-.469c0 1-.484 1.984-1.484 2.016v.359h.828v2.734c0 1.063.86 1.282 1.578 1.282.75 0 1.204-.579 1.204-1.297m0 0"/><path id="j" d="M6.125 0v-.469h-.687v-2.578c0-1.047-.532-1.437-1.532-1.437a1.9 1.9 0 0 0-1.687.953v-3.39l-1.766.077v.469c.61 0 .688 0 .688.39v5.516H.453V0l1.25-.031L2.953 0v-.469h-.687v-2.078c0-1.094.859-1.578 1.5-1.578.328 0 .547.203.547.969V-.47h-.688V0l1.25-.031Zm0 0"/><path id="k" d="M2.844 0v-.469h-.61v-4.015L.5-4.406v.468c.594 0 .656 0 .656.391v3.078H.47V0l1.219-.031Zm-.469-6.047a.774.774 0 0 0-.781-.781.784.784 0 0 0-.782.781c0 .422.36.766.782.766a.77.77 0 0 0 .781-.766m0 0"/><path id="l" d="M4.14-1.39c0-.438-.202-.782-.546-1.063-.39-.281-.719-.344-1.485-.485-.375-.062-1.015-.171-1.015-.64 0-.625.922-.625 1.11-.625.75 0 1.124.297 1.171.844.016.156.031.203.234.203.235 0 .235-.047.235-.281v-.797c0-.188 0-.282-.172-.282-.047 0-.063 0-.453.188-.266-.125-.61-.188-1-.188-.313 0-1.844 0-1.844 1.313 0 .39.203.656.406.828.39.344.782.406 1.547.547.36.062 1.094.187 1.094.781 0 .75-.906.75-1.125.75C1.234-.297.984-1.03.859-1.453c-.046-.14-.109-.14-.234-.14-.25 0-.25.062-.25.28v1.094c0 .188 0 .282.188.282.062 0 .078 0 .296-.157l.25-.172c.47.329.985.329 1.188.329.312 0 1.844 0 1.844-1.454m0 0"/></defs><path fill="none" stroke="#000" stroke-miterlimit="10" stroke-width=".399" d="M.816 14.563h32.942V.948H.816Zm0 0"/><use xlink:href="#a" x="4.138" y="11.182"/><use xlink:href="#b" x="13.104" y="11.182"/><use xlink:href="#c" x="18.355" y="11.182"/><use xlink:href="#c" x="21.533" y="11.182"/><use xlink:href="#d" x="24.711" y="11.182"/><path fill="none" stroke="#000" stroke-miterlimit="10" stroke-width=".399" d="M48.332 14.574h37.523V.938H48.332Zm0 0"/><use xlink:href="#e" x="51.652" y="11.172"/><use xlink:href="#d" x="62.541" y="11.172"/><use xlink:href="#f" x="68.27" y="11.172"/><use xlink:href="#c" x="72.992" y="11.172"/><use xlink:href="#g" x="76.17" y="11.172"/><path fill="none" stroke="#000" stroke-miterlimit="10" stroke-width=".399" d="M62.184 39.273h9.82V29.145h-9.82Zm0 0"/><use xlink:href="#h" x="65.505" y="34.019"/><path fill="none" stroke="#000" stroke-miterlimit="10" stroke-width=".399" d="M86.574 41.016h25.164V27.402H86.574Zm0 0"/><use xlink:href="#i" x="89.896" y="37.636"/><use xlink:href="#j" x="94.349" y="37.636"/><use xlink:href="#k" x="100.715" y="37.636"/><use xlink:href="#l" x="103.894" y="37.636"/><path fill="none" stroke="#000" stroke-miterlimit="10" stroke-width=".399" d="M126.309 40.973h14.343V27.445H126.31Zm0 0"/><use xlink:href="#k" x="129.629" y="37.59"/><use xlink:href="#l" x="132.807" y="37.59"/></svg>