<svg xmlns="http://www.w3.org/2000/svg" xmlns:xlink="http://www.w3.org/1999/xlink" width="68.924" height="102.044"><defs><path id="a" d="M5.906-2.219h-.468c-.094.203-.407.844-.563.906-.14.063-.89.063-1.047.063H2.36c.61-.39 1.282-.812 1.829-1.14 1.421-.844 2.234-1.313 2.546-2.25.391-1.157-.406-1.891-1.796-1.891-1.22 0-2.36.625-2.672 1.515-.203.594.234.735.468.735.329 0 .797-.219.97-.719.171-.516-.204-.672-.329-.719a2.24 2.24 0 0 1 1.156-.343c.844 0 1.078.671.828 1.421-.234.688-.843 1.375-1.78 2.079L.874-.517c-.172.11-.187.141-.25.344L.563 0h4.28Zm0 0"/><path id="k" d="M7.75-6.422H5.719c-.235 0-1.688-.047-1.813-.094-.203-.03-.187-.125-.156-.218h-.469l-1.219 2.53h.47c.359-.765.53-.89.577-.905.141-.063.954-.063 1.125-.063h1.672c-.25.219-.515.422-.765.64-1.344 1.126-2.516 2.47-3.016 3.938-.234.703.328.703.39.703.157 0 .641-.046.86-.703l.156-.468c.156-.47.36-.954.578-1.422.329-.672.72-1.25 1.22-1.657l2.155-1.796c.141-.11.141-.141.266-.485m0 0"/><path id="n" d="m4.922 0 .156-.469h-1.39L5.64-6.203c.078-.234.109-.328-.157-.328-.109 0-.125 0-.25.078-.953.562-1.984.562-2.187.562h-.203l-.156.47h.203c.156 0 .703-.016 1.359-.204L2.5-.469H1.11L.952 0c.453-.031 1.516-.031 2-.031.485 0 1.547 0 1.969.031m0 0"/><path id="b" d="M-3.578-5.234c-.547 0-1.313.297-1.125 1.734-.438-.687-1.266-1.406-2.125-1.406-.75 0-1.11.75-.64 2.156.406 1.188 1.312 1.953 2.109 1.953.422 0 .593-.312.468-.687a1 1 0 0 0-.921-.688c-.579 0-.532.531-.516.578a2.9 2.9 0 0 1-.734-1.093c-.282-.829.359-.86.687-.86.125 0 1.422 0 1.828 1.031.172.422.203.438.234.485.032.094.125.125.188.125.188 0 .156-.11.094-.282l-.14-.453c-.376-1.078.593-1.078 1.109-1.078.453 0 1.484 0 1.843 1.047.078.25.203.766.078 1.25C-1.344-1.75-1.656-2-2.078-2c-.438 0-.656.313-.5.75.14.422.531.781 1.031.781.89 0 1.156-.984.734-2.25-.609-1.797-1.859-2.515-2.765-2.515m0 0"/><path id="j" d="M-3.64-5.234c-1.079 0-1.282.843-1.376 1.328-.593-.703-1.14-1-1.718-1-1.016 0-1.157.89-.766 2.031C-7.047-1.5-6.016-.797-5.047-.797c.438 0 1-.172 1.172-.953C-3.219-.922-2.5-.469-1.75-.469c1.203 0 1.328-1.078.89-2.375-.53-1.578-1.703-2.39-2.78-2.39M-6.47-4.172c.469 0 .922.266 1.344.703l-.312 1.485c-.063.172-.11.453-.454.453-.703 0-1.078-.907-1.218-1.313-.282-.828-.047-1.328.64-1.328m3.672-.203c.828 0 1.313.922 1.516 1.5.312.969 0 1.547-.766 1.547-.781 0-1.406-.531-1.703-.875l.266-1.375c.125-.438.203-.797.687-.797m0 0"/><path id="l" d="M-1.672-4.906h-.469l.47 1.39h-5.735c-.235 0-.328 0-.235.25.032.11.047.125.157.22.812.765 1.172 1.796 1.234 2l.078.202h.469l-.078-.203a5 5 0 0 0-.64-1.297h5.155l.47 1.375h.468C-.5-1.39-.86-2.453-1.031-2.938c-.172-.5-.532-1.546-.64-1.968m0 0"/><path id="m" d="m-3.969-5.14.156.468c.22.031.891.11 1.016.25.078.11.328.86.39 1.016l.5 1.469c-.546-.47-1.155-.985-1.624-1.438-1.235-1.14-1.922-1.766-2.86-1.766-1.156 0-1.53 1.032-1.062 2.438.406 1.187 1.36 2.14 2.25 2.14.594 0 .562-.484.484-.718-.11-.313-.437-.719-.953-.719s-.531.422-.516.563a2.2 2.2 0 0 1-.703-1.016c-.296-.86.235-1.313.97-1.313.702 0 1.5.375 2.437 1.079l2.734 2c.172.125.188.125.375.125h.188l-1.454-4.282Zm0 0"/><path id="c" d="M-.062 6.172c.968.75 1.984.61 2.468-.781.094-.266.266-.797.156-1.438l1.094.86c-.14.234-.203.328-.312.625-.485 1.375.14 2.984.36 3.14.062.063.155.11.202-.015v-.157c.016-.687.125-1.219.266-1.625.25-.703.61-1.078.75-1.281.062-.062.078-.062.094-.078.046-.14-.047-.203-.172-.313L2.422 3.203c-.156-.11-.25-.187-.328.016-.031.125-.031.172.031.265.234.688.14 1.25 0 1.641-.297.828-1.016.25-1.672-.266-.61-.484-1.437-1.14-1.031-2.25.078-.234.328-.78.937-.828-.093.36 0 .797.329 1.063.453.36.718.031.796-.203.047-.125.141-.672-.359-1.078-.703-.547-1.672-.375-2.078.796-.531 1.5-.125 3.016.89 3.813m0 0"/><path id="d" d="M6.219-1.86c.453-1.312-.36-2.015-1.625-2.03-.235 0-.828 0-1.516.703l.063-.172c.375-1.078.734-1.485.859-1.625.406-.438 1.094-.766 1.734-.75.188 0 .532.03.704.234a.93.93 0 0 0-.782.578c-.11.328.047.594.453.61.407 0 .75-.25.875-.61.204-.578-.03-1.172-1.14-1.187-1.438-.016-3.453.75-4.297 3.14-.25.735-.438 1.485-.219 2.14.25.72.969.97 1.703.97 1.453.015 2.735-.75 3.188-2M4.78-1.89c-.328.937-.578 1.64-1.64 1.624-.532 0-.703-.375-.72-.53-.077-.298.173-.985.235-1.141.406-1.172 1.14-1.625 1.719-1.625.984.015.734.734.406 1.671m0 0"/><path id="g" d="m-4.203-3.39-.422.265.75.61-.969.609-.75-.61-.422.266.75.61L-9 .733c-.25.141-.281.172-.062.344.171.14.187.14.421.125l6.579-.266.421-.265-2.234-1.797.969-.61.875.688.422-.266c-.328-.218-1.032-.78-1.36-1.046-.312-.25-.984-.797-1.234-1.032m-.172 2.453L-2.469.609l-4.656.188Zm0 0"/><path id="r" d="m-4.078 3.219.156.437 1.156-.922 1.907 5.407c.078.218.109.312.312.156.11-.078.125-.094.172-.219C.078 7.047.922 6.391 1.094 6.25l.172-.14-.157-.438-.171.14a5.1 5.1 0 0 0-1 1.032l-1.72-4.875 1.141-.907-.156-.437a37 37 0 0 1-1.625 1.328c-.406.328-1.281 1.016-1.656 1.266m0 0"/><path id="s" d="M-3.312 6.438C-3 7.344-2.188 9.594-.203 8.015c2-1.563 1.219-3.797.89-4.72C.36 2.36-.405.189-2.405 1.75c-1.985 1.578-1.25 3.734-.906 4.688m1.093-.72c-.187-.53-.484-1.374-.594-1.905-.203-.97.282-1.516.516-1.72.297-.218.844-.39 1.188.22.265.437.609 1.406.78 1.921.25.672.47 1.297.563 1.844a1.54 1.54 0 0 1-.546 1.594c-.297.25-.72.328-1.016.062-.266-.25-.61-1.25-.89-2.015m0 0"/><path id="t" d="M-3.297-3.734c-.89.703-1 1.812-1.078 2.437-.516-.406-.984-.406-1.469-.031-.843.656-.922 1.812-.531 2.89.453 1.282 1.36 1.438 2.14.813.36-.281.829-.86.938-1.89.578.546 1.203.593 1.813.109.984-.781 1.062-2.14.625-3.36-.532-1.5-1.532-1.687-2.438-.968M-5.578-.641c.406-.312.75-.296 1.156-.062l-.203 1.953c-.016.203-.062.594-.344.813-.593.453-.937-.344-1.078-.735-.266-.781-.094-1.515.469-1.969m3.016-2.64c.687-.547 1.14.234 1.343.781.313.906.094 1.797-.547 2.297-.64.5-1.187.297-1.468.078l.187-1.781c.047-.563.094-1.063.485-1.375m0 0"/><path id="u" d="M.047-6.297c-1.14-.906-2.094-.437-2.484.703-.079.203-.266.735.218 1.64l-.156-.108c-.937-.75-1.219-1.25-1.328-1.391-.313-.547-.422-1.281-.219-1.86.047-.171.203-.468.469-.53a.98.98 0 0 0 .312.921c.297.219.61.172.735-.187.14-.375 0-.766-.313-1.016-.531-.406-1.187-.406-1.547.578-.453 1.281-.28 3.39 1.797 5.031.656.516 1.344.954 2.063 1.016.781.047 1.234-.5 1.469-1.156.453-1.297.109-2.75-1.016-3.64m-.453 1.281c.828.657 1.437 1.141 1.094 2.11-.172.484-.563.484-.735.422-.312-.047-.906-.516-1.062-.641-1.047-.812-1.25-1.625-1.063-2.14.313-.907.922-.407 1.766.25m0 0"/><clipPath id="e"><path d="M56 21h12.887v29H56Zm0 0"/></clipPath><clipPath id="f"><path d="M45 18h23.887v16H45Zm0 0"/></clipPath><clipPath id="h"><path d="M46 2h22.887v23H46Zm0 0"/></clipPath><clipPath id="i"><path d="M45 12h23.887v22H45Zm0 0"/></clipPath><clipPath id="o"><path d="M9 91h29v10.566H9Zm0 0"/></clipPath><clipPath id="p"><path d="M9 75h18v26.566H9Zm0 0"/></clipPath><clipPath id="q"><path d="M26 75h18v26.566H26Zm0 0"/></clipPath></defs><use xlink:href="#a" x="21.519" y="27.984"/><use xlink:href="#b" x="30.241" y="11.551"/><path fill="none" stroke="#000" stroke-miterlimit="10" stroke-width=".399" d="M14.777.738h17.008"/><path fill="none" stroke="#7F7F7F" stroke-miterlimit="10" stroke-width=".199" d="m31.785.738 5.668 16.035"/><path fill="none" stroke="#000" stroke-miterlimit="10" stroke-width=".399" d="m31.785.738 6.04 6.883-.372 9.152"/><path fill="none" stroke="#7F7F7F" stroke-miterlimit="10" stroke-width=".199" d="M37.453 16.773H20.445M20.445 16.773 14.777.738"/><path fill="none" stroke="#000" stroke-miterlimit="10" stroke-width=".399" d="m20.445 16.773-6.039-6.882.371-9.153"/><use xlink:href="#c" x="39.8" y="24.774"/><use xlink:href="#d" x="52.34" y="38.438"/><g clip-path="url(#e)"><path fill="none" stroke="#000" stroke-miterlimit="10" stroke-width=".399" d="M67.688 27.465 62.02 43.496"/></g><path fill="none" stroke="#000" stroke-miterlimit="10" stroke-width=".399" d="M62.02 43.496H45.012"/><path fill="none" stroke="#7F7F7F" stroke-miterlimit="10" stroke-width=".199" d="m45.012 43.496 5.668-16.031M50.68 27.465h17.008"/><g clip-path="url(#f)"><path fill="none" stroke="#000" stroke-miterlimit="10" stroke-width=".399" d="m50.68 27.465 8.504-3.402 8.504 3.402"/></g><path fill="none" stroke="#000" stroke-miterlimit="10" stroke-width=".399" d="M45.012 43.496 31.785 32.81"/><path fill="none" stroke="#7F7F7F" stroke-miterlimit="10" stroke-width=".199" d="m31.785 32.809 5.668-16.036"/><use xlink:href="#g" x="56.014" y="17.176"/><g clip-path="url(#h)"><path fill="none" stroke="#000" stroke-miterlimit="10" stroke-width=".399" d="m51.938 7.867 13.23 10.688"/></g><g clip-path="url(#i)"><path fill="none" stroke="#000" stroke-miterlimit="10" stroke-width=".399" d="M65.168 18.555 50.68 27.46"/></g><path fill="none" stroke="#7F7F7F" stroke-miterlimit="10" stroke-width=".199" d="M50.68 27.46 37.453 16.774"/><path fill="none" stroke="#000" stroke-miterlimit="10" stroke-width=".399" d="m37.453 16.773 14.484-8.906"/><use xlink:href="#j" x="30.354" y="43.76"/><use xlink:href="#k" x="22.749" y="60.242"/><use xlink:href="#l" x="31.383" y="78.693"/><use xlink:href="#m" x="29.435" y="72.964"/><use xlink:href="#n" x="19.901" y="92.261"/><use xlink:href="#n" x="25.63" y="92.261"/><path fill="none" stroke="#7F7F7F" stroke-miterlimit="10" stroke-width=".199" d="M31.785 96.945H14.777"/><g clip-path="url(#o)"><path fill="none" stroke="#000" stroke-miterlimit="10" stroke-width=".399" d="m31.785 96.945-8.504 3.403-8.504-3.403"/></g><g clip-path="url(#p)"><path fill="none" stroke="#000" stroke-miterlimit="10" stroke-width=".399" d="m14.777 96.945 5.668-16.035"/></g><path fill="none" stroke="#7F7F7F" stroke-miterlimit="10" stroke-width=".199" d="M20.445 80.91h17.008M37.453 80.91l-5.668 16.035"/><g clip-path="url(#q)"><path fill="none" stroke="#000" stroke-miterlimit="10" stroke-width=".399" d="m37.453 80.91.375 9.153-6.043 6.882"/></g><use xlink:href="#r" x="14.635" y="71.546"/><use xlink:href="#s" x="9.883" y="75.292"/><path fill="none" stroke="#7F7F7F" stroke-miterlimit="10" stroke-width=".199" d="M7.219 91.602 1.55 75.566"/><path fill="none" stroke="#000" stroke-miterlimit="10" stroke-width=".399" d="m7.219 91.602-6.04-6.883.372-9.153M1.55 75.566 14.778 64.88"/><path fill="none" stroke="#7F7F7F" stroke-miterlimit="10" stroke-width=".199" d="M14.777 64.879 20.45 80.91M20.45 80.91 7.218 91.602"/><path fill="none" stroke="#000" stroke-miterlimit="10" stroke-width=".399" d="m20.45 80.91-4.477 7.992-8.754 2.7"/><path fill="none" stroke="#7F7F7F" stroke-miterlimit="10" stroke-width=".199" d="M14.777 64.879h17.008M31.785 64.879l5.668 16.031"/><path fill="none" stroke="#000" stroke-miterlimit="10" stroke-width=".399" d="m31.785 64.879 6.043 6.883-.375 9.148M14.777 64.875l5.668-16.031"/><path fill="none" stroke="#7F7F7F" stroke-miterlimit="10" stroke-width=".199" d="M20.445 48.844h17.008M37.453 48.844l-5.668 16.035"/><path fill="none" stroke="#000" stroke-miterlimit="10" stroke-width=".399" d="m37.453 48.844.375 9.148-6.043 6.887"/><use xlink:href="#t" x="14.568" y="46.85"/><path fill="none" stroke="#7F7F7F" stroke-miterlimit="10" stroke-width=".199" d="M7.219 59.531 1.55 43.496"/><path fill="none" stroke="#000" stroke-miterlimit="10" stroke-width=".399" d="m7.219 59.531-6.04-6.883.372-9.152"/><path fill="none" stroke="#7F7F7F" stroke-miterlimit="10" stroke-width=".199" d="m1.55 43.5 13.227-10.691"/><path fill="none" stroke="#000" stroke-miterlimit="10" stroke-width=".399" d="m1.55 43.5 4.477-7.992 8.75-2.7"/><path fill="none" stroke="#7F7F7F" stroke-miterlimit="10" stroke-width=".199" d="m14.777 32.809 5.672 16.035M20.45 48.844 7.218 59.53"/><path fill="none" stroke="#000" stroke-miterlimit="10" stroke-width=".399" d="m20.45 48.844-4.477 7.988-8.754 2.7"/><path fill="none" stroke="#7F7F7F" stroke-miterlimit="10" stroke-width=".199" d="M14.777 32.809h17.008M31.785 32.809l5.668 16.035"/><path fill="none" stroke="#000" stroke-miterlimit="10" stroke-width=".399" d="m31.785 32.809 6.043 6.882-.375 9.153"/><use xlink:href="#u" x="12.431" y="24.809"/><path fill="none" stroke="#000" stroke-miterlimit="10" stroke-width=".399" d="M1.55 22.117 7.22 6.086M7.219 6.086l13.226 10.687"/><path fill="none" stroke="#7F7F7F" stroke-miterlimit="10" stroke-width=".199" d="M20.445 16.773 14.777 32.81"/><path fill="none" stroke="#000" stroke-miterlimit="10" stroke-width=".399" d="M14.777 32.809 1.551 22.12"/></svg>