<svg xmlns="http://www.w3.org/2000/svg" xmlns:xlink="http://www.w3.org/1999/xlink" width="16.811" height="13.334"><defs><path id="a" d="M6.11 4.36c.421 0 .874-.36.874-1.141 0-.969-.421-2.047-1.546-2.047H4.422v-.75h-.469v.75H.47V.484H0l.031 1.25c0 .375 0 1.016-.031 1.375h.469V2.25h3.484v1.14h.469V2.188h1.016c1.093 0 1.187.75 1.187 1 0 .047 0 .11-.031.172a.59.59 0 0 0-.485-.234c-.421 0-.609.36-.609.61 0 .296.203.624.61.624m0 0"/></defs><path fill="none" stroke="#00F" stroke-miterlimit="10" stroke-width="1.196" d="M1.504 1.266v10.136h13.613V1.266Zm0 0"/><use xlink:href="#a" x="4.824" y="4.585"/></svg>