<svg xmlns="http://www.w3.org/2000/svg" width="95.771" height="60.392"><defs><clipPath id="a"><path d="M15 51h29v9.09H15Zm0 0"/></clipPath><clipPath id="b"><path d="M71 0h24.656v8H71Zm0 0"/></clipPath></defs><path fill="none" stroke="#7F7F7F" stroke-miterlimit="10" stroke-width=".199" d="M.996 58.852h85.04M.995 30.504h85.04M.995 2.168h85.04M.995 58.852V2.156M29.34 58.852V2.156m28.348 56.696V2.156m28.335 56.696V2.156"/><g clip-path="url(#a)"><path fill="none" stroke="#000" stroke-miterlimit="10" stroke-width=".399" d="M20.836 58.852c2.875-1.66 5.633-1.66 8.504 0 2.875-1.66 5.633-1.66 8.504 0"/></g><path fill="none" stroke="#000" stroke-miterlimit="10" stroke-width=".399" d="M49.184 30.504c2.87-1.66 5.632-1.66 8.504 0 2.87-1.66 5.632-1.66 8.503 0"/><g clip-path="url(#b)"><path fill="none" stroke="#000" stroke-miterlimit="10" stroke-width=".399" d="M77.531 2.156C80.402.5 83.164.5 86.035 2.156 88.906.5 91.668.5 94.54 2.156"/></g></svg>