<svg xmlns="http://www.w3.org/2000/svg" width="91.514" height="66.044"><defs><clipPath id="a"><path d="M66 23h25.27v33H66Zm0 0"/></clipPath><clipPath id="b"><path d="M23 37h31v28.566H23Zm0 0"/></clipPath></defs><path fill="none" stroke="#7F7F7F" stroke-miterlimit="10" stroke-width=".199" d="M1.117 58.988H86.16M1.117 30.641H86.16M1.117 2.305H86.16M1.117 58.988V2.293m28.348 56.695V2.293m28.348 56.695V2.293m28.335 56.695V2.293"/><path fill="none" stroke="#000" stroke-miterlimit="10" stroke-width=".399" d="M1.117 30.64H3.11l.996 1.727.997-1.726h1.992l1 1.726-1 1.723H9.09l.996 1.726.996-1.726h1.992l-.996-1.723.996-1.726h1.992l.996 1.726.997-1.726h1.992l-.996-1.727.996-1.726h-1.992l-.997-1.723.997-1.727h1.992l-.996-1.726.996-1.727h-1.992l-.997-1.723-.996 1.723h-1.992l-.996-1.723.996-1.726h-1.992l-.996-1.727-.996 1.727H7.094l1 1.727-1 1.722H5.102l-.997-1.723-.996 1.723H1.117l.996 1.727-.996 1.726H3.11l.996 1.727-.996 1.723H1.117l.996 1.726-.996 1.727M43.637 16.465h1.992l1 1.726.996-1.726h1.992l.996 1.726-.996 1.727h1.992l.996 1.727.997-1.727h1.992l-.996-1.727.996-1.726h1.992l.996 1.726.996-1.726h1.992l-.996-1.723.996-1.726h-1.992l-.996-1.727.996-1.726h1.992l-.996-1.723.996-1.727h-1.992l-.996-1.726-.996 1.726h-1.992l-.996-1.726.996-1.727h-1.992L52.605.937 51.61 2.66h-1.992l.996 1.727-.996 1.726h-1.992l-.996-1.726-1 1.726h-1.992l.996 1.727-.996 1.723h1.992l1 1.726-1 1.727h-1.992l.996 1.726-.996 1.723"/><g clip-path="url(#a)"><path fill="none" stroke="#000" stroke-miterlimit="10" stroke-width=".399" d="M71.984 44.813h1.993l.996 1.726.996-1.727h1.992l.996 1.727-.996 1.727h1.996l.996 1.726.996-1.726h1.992l-.996-1.727.996-1.727h1.993l.996 1.727.996-1.727h1.992l-.996-1.722.996-1.727h-1.992l-.996-1.726.996-1.727h1.992l-.996-1.722.996-1.727h-1.992l-.996-1.727-.996 1.727H83.94l-.996-1.727.996-1.726H81.95l-.996-1.727-.996 1.727h-1.996l.996 1.726-.996 1.727h-1.992l-.996-1.727-.996 1.727h-1.993l.996 1.727-.996 1.722h1.993l.996 1.727-.996 1.726h-1.993l.996 1.727-.996 1.722"/></g><g clip-path="url(#b)"><path fill="none" stroke="#000" stroke-miterlimit="10" stroke-width=".399" d="M29.465 58.988h1.992l.996 1.723.996-1.723h1.992l.996 1.723-.996 1.727h1.993l.996 1.726.996-1.727h1.996l-.996-1.726.996-1.723h1.992l.996 1.723.996-1.723h1.992l-.996-1.726.996-1.727h-1.992l-.996-1.726.996-1.723h1.992l-.996-1.727.996-1.726h-1.992l-.996-1.727-.996 1.727h-1.992l-.996-1.727.996-1.722h-1.996l-.996-1.727-.996 1.727H35.44l.996 1.722-.996 1.727H33.45l-.996-1.727-.996 1.727h-1.992l.996 1.726-.996 1.727h1.992l.996 1.723-.996 1.726h-1.992l.996 1.727-.996 1.726"/></g></svg>