<svg xmlns="http://www.w3.org/2000/svg" width="95.666" height="60.554"><defs><clipPath id="a"><path d="M0 23h95.5v37.332H0Zm0 0"/></clipPath><clipPath id="b"><path d="M0 21h95.5v39.332H0Zm0 0"/></clipPath><clipPath id="c"><path d="M0 17h95.5v43.332H0Zm0 0"/></clipPath></defs><path fill="none" stroke="#7F7F7F" stroke-miterlimit="10" stroke-width=".199" d="M6.125 57.57h85.04M6.124 29.223h85.04M6.124.887h85.04M6.124 57.57V.875M34.473 57.57V.875M62.82 57.57V.875M91.156 57.57V.875"/><g clip-path="url(#a)"><path fill="none" stroke="#000" stroke-miterlimit="10" stroke-width=".399" d="m6.125 57.57 28.348-28.347c31.312 0 56.691 12.691 56.691 28.347"/></g><g clip-path="url(#b)"><path fill="none" stroke="#000" stroke-miterlimit="10" stroke-width=".399" d="M4.363 57.57h3.524m-1.762 1.762v-3.523m5.285-5.286h3.52m-1.762 1.762v-3.52m5.285-5.285h3.524m-1.762 1.762V41.72m5.285-5.282h3.52m-1.762 1.758v-3.52m5.285-5.284h3.523m-1.761 1.761V27.63m8.777.664 2.266 2.695m-2.48-.215 2.694-2.265m7.524 1.008 1.996 2.898m-2.45-.45 2.903-2m7.399 1.778 1.664 3.106m-2.383-.72 3.101-1.663m7.157 2.691 1.21 3.309m-2.257-1.05 3.308-1.208m6.668 3.898.5 3.485m-1.992-1.492 3.488-.5m5.508 5.675-.77 3.438m-1.331-2.106 3.437.77"/></g><g clip-path="url(#c)"><path fill="none" stroke="red" stroke-miterlimit="10" stroke-width=".399" d="M.84 54.047h3.523m-1.761 1.762v-3.524m5.285-5.281h3.523m-1.762 1.762v-3.524m5.282-5.285h3.523m-1.762 1.762v-3.524m5.286-5.28H25.5m-1.762 1.76v-3.523m5.282-5.285h3.523m-1.762 1.762v-3.52m12.73-.78 2.266 2.698m-2.48-.215 2.695-2.269m7.996 1.074 2 2.899m-2.449-.45 2.898-2m7.938 1.91 1.664 3.102m-2.383-.719 3.102-1.664m7.816 2.946 1.207 3.308m-2.258-1.05 3.309-1.208m7.555 4.426.504 3.485m-1.996-1.493 3.488-.5m6.73 6.996-.77 3.434m-1.331-2.102 3.433.77"/></g></svg>