<svg xmlns="http://www.w3.org/2000/svg" width="87.058" height="5.906"><defs><clipPath id="a"><path d="M35 0h16v5.86H35Zm0 0"/></clipPath></defs><path d="M44.8 2.902a1.741 1.741 0 1 0-3.484 0c0 .965.778 1.743 1.743 1.743.96 0 1.742-.778 1.742-1.743m0 0"/><g clip-path="url(#a)"><path fill="none" stroke="#000" stroke-miterlimit="10" stroke-width=".399" d="M44.8 2.902a1.741 1.741 0 1 0-3.484 0c0 .965.778 1.743 1.743 1.743.96 0 1.742-.778 1.742-1.743Zm0 0"/></g><path fill="none" stroke="#000" stroke-miterlimit="10" stroke-width=".399" d="M.54 2.902h40.675m3.687 0h40.676"/></svg>