<svg xmlns="http://www.w3.org/2000/svg" width="108.281" height="115.814"><defs><clipPath id="a"><path d="M0 0h64v115.723H0Zm0 0"/></clipPath><clipPath id="b"><path d="M23 3h84.922v89H23Zm0 0"/></clipPath></defs><g clip-path="url(#a)"><path fill="none" stroke="#000" stroke-miterlimit="10" stroke-width=".399" d="M57.543 57.816c0-31.312-12.691-56.691-28.348-56.691S.848 26.504.848 57.816s12.691 56.696 28.347 56.696 28.348-25.383 28.348-56.696Zm0 0"/></g><g clip-path="url(#b)"><path fill="none" stroke="#000" stroke-miterlimit="10" stroke-width=".399" d="M106.64 37.066 57.544 8.72 29.195 57.816l49.098 28.348Zm0 0"/></g><path fill="none" stroke="#000" stroke-miterlimit="10" stroke-width=".399" d="M52.617 20.684a1.99 1.99 0 0 0-1.992-1.993 1.993 1.993 0 1 0 1.992 1.992Zm5.82 52.867a1.99 1.99 0 0 0-1.992-1.992 1.99 1.99 0 0 0-1.992 1.992 1.99 1.99 0 0 0 1.992 1.992 1.99 1.99 0 0 0 1.992-1.992Zm0 0"/></svg>