<svg xmlns="http://www.w3.org/2000/svg" xmlns:xlink="http://www.w3.org/1999/xlink" width="225.147" height="116.606"><defs><path id="b" d="M9.984-1.094c0-.203-.093-.25-.25-.25-.234 0-.25.094-.25.25-.062.594-.437.844-.765.844-.766 0-.86-.797-.953-1.906-.063-.625-.157-1.516-1.438-1.906 1.61-.438 2-1.297 2-1.938 0-1.203-1.25-2.203-3.469-2.203H.453v.515H1.72v7.172H.453V0C.797-.031 2.047-.031 2.47-.031c.437 0 1.687 0 2.031.031v-.516H3.234v-3.39h1.422c.485 0 .86.14 1.125.453.36.406.36.672.36 1.469s0 1.297.609 1.703C7.375.125 8.36.14 8.625.14c1.219 0 1.36-1.078 1.36-1.235M6.641-6c0 .656 0 1.703-2 1.703H3.234v-3.39h1.422c1.953 0 1.985.984 1.985 1.687m0 0"/><path id="c" d="M6.328-2.625c0-1.61-1.094-2.797-2.969-2.797-1.953 0-2.984 1.25-2.984 2.797C.375-1.047 1.469.078 3.344.078c1.953 0 2.984-1.187 2.984-2.703m-1.422-.11c0 .985 0 2.376-1.547 2.376S1.813-1.75 1.813-2.734c0-.563 0-1.157.218-1.594.266-.484.797-.688 1.313-.688.687 0 1.11.313 1.312.657.25.422.25 1.047.25 1.625m0 0"/><path id="d" d="M4.469-1.484v-.625h-.5v.609c0 .797-.36 1.14-.735 1.14-.718 0-.718-.796-.718-1.078v-3.359H4.25v-.516H2.516v-2.28h-.5c0 1.187-.578 2.374-1.766 2.406v.39h.969v3.328c0 1.266.984 1.547 1.844 1.547.874 0 1.406-.672 1.406-1.562m0 0"/><path id="e" d="M5.594-1.406c0-.14-.125-.14-.25-.14-.188 0-.203.015-.266.155-.078.235-.406 1.032-1.5 1.032-1.687 0-1.687-1.813-1.687-2.36 0-.703.015-2.265 1.578-2.265.078 0 .781.03.781.078 0 0 0 .031-.031.047a.73.73 0 0 0-.188.515c0 .5.407.703.703.703.25 0 .704-.156.704-.718 0-.985-1.375-1.063-2.016-1.063-2.125 0-2.969 1.39-2.969 2.766 0 1.625 1.14 2.734 2.89 2.734 1.876 0 2.25-1.39 2.25-1.484m0 0"/><path id="f" d="M7.172 0v-.516h-.828v-3.14c0-1.14-.485-1.719-1.797-1.719-.86 0-1.61.422-2.016 1.313h-.015v-1.313L.5-5.281v.515c.75 0 .828 0 .828.47v3.78H.5V0c.281-.031 1.14-.031 1.469-.031.343 0 1.203 0 1.484.031v-.516h-.828v-2.546c0-1.282.953-1.922 1.719-1.922.453 0 .703.28.703 1.187v3.281h-.828V0c.281-.031 1.14-.031 1.468-.031.344 0 1.204 0 1.485.031m0 0"/><path id="g" d="M5.75-1.406c0-.172-.187-.172-.25-.172-.187 0-.203.031-.281.187-.313.782-1.094 1.032-1.672 1.032-1.735 0-1.735-1.61-1.735-2.282h3.594c.266 0 .344 0 .344-.296 0-.36-.078-1.266-.64-1.813-.5-.516-1.173-.672-1.86-.672-1.86 0-2.875 1.219-2.875 2.734C.375-1.016 1.609.079 3.406.079 5.22.078 5.75-1.187 5.75-1.406M4.656-2.984H1.813c.015-.5.03-.953.28-1.391a1.32 1.32 0 0 1 1.157-.64c1.281 0 1.39 1.437 1.406 2.03m0 0"/><path id="h" d="M7-2.672c0-1.64-1.11-2.703-2.719-2.703-.703 0-1.312.234-1.797.625v-.625l-2.062.094v.515c.734 0 .828 0 .828.47v6.109H.422v.5c.266-.016 1.125-.016 1.469-.016.328 0 1.203 0 1.484.015v-.5h-.828V-.483c.297.25.828.562 1.547.562C5.719.078 7-.922 7-2.672m-1.437 0c0 1.735-.86 2.344-1.625 2.344-.5 0-1.016-.25-1.391-.813v-3.046a2 2 0 0 1 1.547-.766c.765 0 1.468.703 1.468 2.281m0 0"/><path id="i" d="m4.844-2.312-.125-1.016H.484l-.14 1.015H.75C.828-2.859 1.063-3 1.61-3h.593v2.672H1.47V0c.234-.016.86-.016 1.125-.016s.89 0 1.14.016v-.328h-.75V-3h.594c.547 0 .781.14.86.688Zm0 0"/><path id="j" d="M3.875 0v-.328h-.36v-1.14c0-.735-.609-.782-.968-.782-.5 0-.844.172-1.078.469v-1.672l-.985.031v.344c.313 0 .36 0 .36.187v2.563h-.36V0l.688-.016c.187 0 .469 0 .687.016v-.328H1.5v-.875c0-.61.625-.766.922-.766.328 0 .422.125.422.485v1.156h-.36V0l.704-.016c.171 0 .468 0 .687.016m0 0"/><path id="k" d="M3.172-.547c0-.125-.125-.125-.203-.125h-.031c-.094 0-.126 0-.172.063-.047.093-.188.343-.72.343-.64 0-.968-.25-1.015-.718H2.97c.11 0 .203 0 .203-.157 0-.296-.11-.625-.328-.812-.235-.203-.531-.313-1.016-.313-1.125 0-1.547.61-1.547 1.141S.703.047 1.921.047c.126 0 .47 0 .782-.125.328-.14.469-.406.469-.469m-.516-.687H1.031c.016-.188.016-.766.797-.766.672 0 .813.438.828.766m0 0"/><path id="l" d="M2.813-1.781c0-.282-.282-.469-.626-.469-.437 0-.734.313-.859.594h-.016v-.594l-.89.031v.344c.312 0 .36 0 .36.188v1.359h-.36V0c.219-.016.453-.016.687-.016.282 0 .563 0 .735.016v-.328h-.438v-.656c0-.532.313-.953.735-.985-.032.047-.047.078-.047.188 0 .218.156.36.36.36.202 0 .358-.141.358-.36m0 0"/><path id="m" d="M3.5-1.078c0-.563-.437-1.188-1.61-1.188-1.187 0-1.609.641-1.609 1.188C.281-.547.72.047 1.891.047S3.5-.547 3.5-1.078m-.75-.063c0 .407 0 .875-.86.875-.859 0-.859-.468-.859-.875 0-.39 0-.859.86-.859.859 0 .859.469.859.86m0 0"/><path id="n" d="M2.484-.594v-.234h-.406v.219c0 .14-.047.343-.344.343-.312 0-.312-.203-.312-.343v-1.266h.953v-.344h-.953v-.953H1c0 .516-.266 1-.781 1.016v.281H.75v1.281c0 .563.547.64.875.64.36 0 .86-.14.86-.64m0 0"/><path id="o" d="M3.094-.547c0-.11-.094-.11-.203-.11-.157 0-.172 0-.203.079-.079.14-.22.312-.641.312-.25 0-.5-.046-.703-.203-.172-.125-.266-.343-.266-.656 0-.625.313-.844.86-.844.218 0 .328.016.39.032a.34.34 0 0 0-.062.203c0 .218.156.375.375.375a.36.36 0 0 0 .375-.375c0-.532-.75-.532-1.078-.532-1.375 0-1.61.782-1.61 1.157 0 .515.39 1.156 1.563 1.156.14 0 .468 0 .75-.125.328-.14.453-.422.453-.469m0 0"/><path id="p" d="M3.875 0v-.328h-.36v-1.14c0-.735-.609-.782-.968-.782-.672 0-1 .344-1.125.531v-.531l-.938.031v.344c.313 0 .36 0 .36.188v1.359h-.36V0l.688-.016c.187 0 .469 0 .687.016v-.328H1.5v-.875c0-.61.625-.766.922-.766.328 0 .422.125.422.485v1.156h-.36V0l.704-.016c.171 0 .468 0 .687.016m0 0"/><path id="q" d="M3.86-1.11c0-.546-.407-1.14-1.454-1.14-.187 0-.61.016-1 .219v-.219l-.984.031v.344H.5c.281 0 .281.031.281.172V.64h-.36v.328L1.11.953l.688.016V.64h-.36v-.828c.141.093.438.234.86.234C3.328.047 3.859-.5 3.859-1.11m-.75 0c0 .548-.376.876-.891.876-.235 0-.531-.078-.781-.407v-.984c.25-.266.64-.312.843-.312.547 0 .828.359.828.828m0 0"/><path id="r" d="M1.813 0v-.328h-.329V-2.25l-.968.031v.344c.312 0 .343 0 .343.188v1.359H.5V0c.219-.016.453-.016.672-.016.203 0 .422 0 .64.016m-.297-3a.42.42 0 0 0-.422-.422c-.25 0-.438.188-.438.406 0 .25.203.422.438.422A.417.417 0 0 0 1.516-3m0 0"/><path id="s" d="M2.688-.703a.6.6 0 0 0-.344-.531c-.25-.141-.375-.157-.985-.235-.343-.062-.625-.093-.625-.281 0-.125.141-.281.735-.281.515 0 .61.14.625.328.015.11.047.125.172.125h.062c.156 0 .172-.031.172-.172v-.344c0-.11 0-.172-.14-.172a.8.8 0 0 0-.235.063c-.219-.063-.469-.063-.625-.063-.187 0-.516 0-.797.125-.312.141-.375.375-.375.532 0 .515.672.609 1.047.672.594.078.906.109.906.359 0 .344-.61.344-.734.344-.453 0-.672-.141-.797-.47C.703-.796.688-.796.563-.796H.5c-.156 0-.172.016-.172.172v.484c0 .11 0 .188.14.188.063 0 .063 0 .173-.063a.7.7 0 0 0 .14-.093c.282.156.61.156.75.156.203 0 1.157 0 1.157-.75m0 0"/><path id="t" d="M1.594-.187c0-.375-.203-.672-.516-.672a.424.424 0 0 0-.422.437c0 .219.172.422.438.422.11 0 .187-.047.218-.062-.062.39-.28.625-.468.75C.78.734.75.75.75.813c0 .062.094.156.156.156.11 0 .688-.438.688-1.156m0 0"/><path id="u" d="M3.594-1.906c0-.188-.156-.39-.453-.39-.11 0-.375.03-.657.202-.28-.156-.609-.156-.796-.156-.954 0-1.22.453-1.22.766 0 .28.188.437.282.515a.63.63 0 0 0-.14.407c0 .203.078.359.171.484-.234.047-.5.172-.5.437 0 .36.516.657 1.61.657.734 0 1.609-.141 1.609-.672 0-.156-.062-.516-.547-.688-.344-.11-.656-.11-1.219-.11h-.28c-.25 0-.298 0-.407-.062a.36.36 0 0 1-.11-.234c0-.062 0-.078.016-.11.235.11.516.141.735.141.953 0 1.218-.468 1.218-.765 0-.25-.172-.422-.203-.453.094-.032.25-.063.328-.079-.015.063-.015.063-.015.11 0 .187.14.297.28.297a.295.295 0 0 0 .298-.297m-1.313.422c0 .218-.031.484-.594.484-.546 0-.593-.266-.593-.484 0-.22.031-.485.593-.485.547 0 .594.25.594.485M2.97.359c0 .157-.313.375-1.078.375S.813.516.813.36c0-.234.406-.234.593-.234h.282c.562 0 1.28 0 1.28.234m0 0"/><path id="v" d="M3.563-.172c0-.156-.079-.156-.188-.156h-.031c-.063 0-.25 0-.344-.063v-1.062c0-.39-.312-.813-1.375-.813-.36 0-1.094 0-1.094.532a.36.36 0 0 0 .375.375.36.36 0 0 0 .375-.375.37.37 0 0 0-.078-.22C1.391-2 1.547-2 1.625-2c.453 0 .703.172.703.563v.109c-.062 0-.578-.016-1.062.078-.594.11-.97.281-.97.656 0 .64.954.64 1.157.64.484 0 .844-.124 1-.343C2.5 0 2.843 0 3.22 0c.312 0 .344 0 .344-.172M2.327-.656c0 .11 0 .25-.25.344-.203.078-.469.078-.5.078-.36 0-.625-.141-.625-.375 0-.438 1.14-.485 1.375-.485Zm0 0"/><path id="w" d="M1.844 0v-.328h-.36v-3.125L.5-3.422v.344c.328 0 .36 0 .36.187v2.563H.5V0c.234-.016.453-.016.672-.016.016 0 .406 0 .672.016m0 0"/><path id="x" d="M5.875 0v-.328h-.36v-1.14c0-.735-.577-.782-.952-.782-.329 0-.766.063-1.094.469-.14-.36-.422-.469-.922-.469-.688 0-1.016.36-1.125.531v-.531l-.938.031v.344c.313 0 .36 0 .36.188v1.359h-.36V0l.688-.016c.187 0 .469 0 .687.016v-.328H1.5v-.875c0-.61.625-.766.922-.766.328 0 .422.11.422.485v1.156H2.5V0l.688-.016c.187 0 .468 0 .687.016v-.328h-.36v-.875c0-.61.626-.766.922-.766.313 0 .422.11.422.485v1.156H4.5V0l.688-.016c.187 0 .468 0 .687.016m0 0"/><path id="y" d="M1.516-.422a.434.434 0 0 0-.422-.437.447.447 0 0 0-.438.437c0 .235.203.422.438.422a.42.42 0 0 0 .422-.422m0 0"/><clipPath id="a"><path d="M0 0h132v116.41H0Zm0 0"/></clipPath></defs><path fill="#33F" d="M114.574 58.113c0-31.312-25.379-56.695-56.691-56.695S1.188 26.801 1.188 58.113c0 31.309 25.382 56.692 56.695 56.692s56.691-25.383 56.691-56.692m0 0"/><g clip-path="url(#a)"><path fill="none" stroke="#33F" stroke-miterlimit="10" stroke-width="1.196" d="M114.574 58.113c0-31.312-25.379-56.695-56.691-56.695S1.188 26.801 1.188 58.113c0 31.309 25.382 56.692 56.695 56.692s56.691-25.383 56.691-56.692Zm0 0"/></g><use xlink:href="#b" x="18.84" y="61.053"/><use xlink:href="#c" x="28.871" y="61.053"/><use xlink:href="#c" x="35.972" y="61.053"/><use xlink:href="#d" x="42.703" y="61.053"/><use xlink:href="#e" x="51.92" y="61.053"/><use xlink:href="#c" x="57.898" y="61.053"/><use xlink:href="#f" x="64.629" y="61.053"/><use xlink:href="#e" x="72.101" y="61.053"/><use xlink:href="#g" x="78.078" y="61.053"/><use xlink:href="#h" x="84.211" y="61.053"/><use xlink:href="#d" x="91.683" y="61.053"/><path fill="#FCC" d="M219.727 47.09h-96.914a3.984 3.984 0 0 0-3.985 3.984v14.078c0 2.2 1.785 3.985 3.984 3.985h96.915c2.199 0 3.984-1.785 3.984-3.985V51.074a3.984 3.984 0 0 0-3.984-3.984m0 0"/><use xlink:href="#i" x="121.662" y="53.379"/><use xlink:href="#j" x="126.852" y="53.379"/><use xlink:href="#k" x="131.031" y="53.379"/><use xlink:href="#l" x="137.054" y="53.379"/><use xlink:href="#m" x="140.152" y="53.379"/><use xlink:href="#m" x="144.127" y="53.379"/><use xlink:href="#n" x="147.903" y="53.379"/><use xlink:href="#o" x="153.452" y="53.379"/><use xlink:href="#m" x="156.83" y="53.379"/><use xlink:href="#p" x="160.605" y="53.379"/><use xlink:href="#o" x="164.785" y="53.379"/><use xlink:href="#k" x="168.162" y="53.379"/><use xlink:href="#q" x="171.609" y="53.379"/><use xlink:href="#n" x="175.789" y="53.379"/><use xlink:href="#r" x="181.338" y="53.379"/><use xlink:href="#s" x="183.51" y="53.379"/><use xlink:href="#t" x="186.523" y="53.379"/><use xlink:href="#r" x="191.27" y="53.379"/><use xlink:href="#p" x="193.442" y="53.379"/><use xlink:href="#u" x="121.662" y="59.357"/><use xlink:href="#k" x="125.437" y="59.357"/><use xlink:href="#p" x="128.884" y="59.357"/><use xlink:href="#k" x="133.064" y="59.357"/><use xlink:href="#l" x="136.511" y="59.357"/><use xlink:href="#v" x="139.609" y="59.357"/><use xlink:href="#w" x="143.285" y="59.357"/><use xlink:href="#t" x="145.457" y="59.357"/><use xlink:href="#n" x="150.204" y="59.357"/><use xlink:href="#j" x="153.178" y="59.357"/><use xlink:href="#k" x="157.358" y="59.357"/><use xlink:href="#x" x="163.38" y="59.357"/><use xlink:href="#m" x="169.567" y="59.357"/><use xlink:href="#s" x="173.343" y="59.357"/><use xlink:href="#n" x="176.356" y="59.357"/><use xlink:href="#r" x="181.906" y="59.357"/><use xlink:href="#x" x="184.077" y="59.357"/><use xlink:href="#q" x="190.264" y="59.357"/><use xlink:href="#m" x="194.643" y="59.357"/><use xlink:href="#l" x="198.419" y="59.357"/><use xlink:href="#n" x="201.517" y="59.357"/><use xlink:href="#v" x="204.491" y="59.357"/><use xlink:href="#p" x="208.167" y="59.357"/><use xlink:href="#n" x="212.147" y="59.357"/><use xlink:href="#o" x="121.662" y="65.335"/><use xlink:href="#m" x="125.039" y="65.335"/><use xlink:href="#p" x="128.815" y="65.335"/><use xlink:href="#o" x="132.994" y="65.335"/><use xlink:href="#k" x="136.371" y="65.335"/><use xlink:href="#q" x="139.818" y="65.335"/><use xlink:href="#n" x="143.998" y="65.335"/><use xlink:href="#y" x="146.972" y="65.335"/></svg>