<svg xmlns="http://www.w3.org/2000/svg" width="117.497" height="115.598"><path fill="none" stroke="#7F7F7F" stroke-miterlimit="10" stroke-width=".199" d="M.86 114.285h113.386M.86 85.938h113.387M.86 57.59h113.387M.86 29.242h113.387M.86.906h113.387M.86 114.286V.897m28.344 113.387V.898m28.348 113.387V.898m28.347 113.387V.898m28.336 113.387V.898"/><path d="M59.543 57.59a1.99 1.99 0 0 0-1.992-1.992 1.99 1.99 0 0 0-1.992 1.992 1.99 1.99 0 0 0 1.992 1.992 1.99 1.99 0 0 0 1.992-1.992m0 0"/><path d="M62.816 56.234a1.99 1.99 0 0 0-1.992-1.992 1.99 1.99 0 0 0-1.992 1.992 1.99 1.99 0 0 0 1.992 1.993 1.99 1.99 0 0 0 1.992-1.993m0 0"/><path d="M64.555 52.578a1.993 1.993 0 1 0-3.986.002 1.993 1.993 0 0 0 3.986-.002M63.613 47.77a1.994 1.994 0 0 0-3.988 0 1.994 1.994 0 0 0 3.988 0M59.543 43.418a1.99 1.99 0 0 0-1.992-1.992 1.993 1.993 0 1 0 1.992 1.992M52.766 41.223a1.994 1.994 0 0 0-3.988 0 1.994 1.994 0 0 0 3.988 0M44.512 42.559a1.994 1.994 0 0 0-3.988 0c0 1.097.894 1.992 1.996 1.992a1.996 1.996 0 0 0 1.992-1.992M36.629 48.098a1.993 1.993 0 1 0-3.986.001 1.993 1.993 0 0 0 3.986-.001M31.195 57.59a1.993 1.993 0 1 0-3.983.002 1.993 1.993 0 0 0 3.983-.002M30.082 69.793a1.99 1.99 0 0 0-1.992-1.992 1.99 1.99 0 0 0-1.992 1.992 1.99 1.99 0 0 0 1.992 1.992 1.99 1.99 0 0 0 1.992-1.992M34.488 82.645a1.993 1.993 0 1 0-3.986.001 1.993 1.993 0 0 0 3.986-.001M44.629 93.598a1.993 1.993 0 1 0-3.986.001 1.993 1.993 0 0 0 3.986-.001M59.543 100.11a1.993 1.993 0 1 0-3.986.001 1.993 1.993 0 0 0 3.986-.002M77.172 100.145a1.996 1.996 0 0 0-1.992-1.993 1.996 1.996 0 0 0-1.996 1.993 1.994 1.994 0 0 0 3.988 0M94.621 92.668a1.99 1.99 0 0 0-1.992-1.992 1.99 1.99 0 0 0-1.992 1.992 1.99 1.99 0 0 0 1.992 1.992 1.99 1.99 0 0 0 1.992-1.992M108.645 77.93a1.993 1.993 0 1 0-3.983.002 1.993 1.993 0 0 0 3.983-.002M116.238 57.59a1.993 1.993 0 1 0-3.986.001 1.993 1.993 0 0 0 3.986-.001m0 0"/></svg>