<svg xmlns="http://www.w3.org/2000/svg" xmlns:xlink="http://www.w3.org/1999/xlink" width="134.395" height="94.304"><defs><path id="b" d="M17.125 0v-.937h-2.14v-11.797h2.14v-.938c-.75.063-2.703.063-3.562.063-.86 0-2.813 0-3.563-.063v.938h2.156v5.172H5.75v-5.172h2.156v-.938c-.75.063-2.703.063-3.562.063-.86 0-2.813 0-3.563-.063v.938h2.14V-.937H.782V0c.75-.062 2.703-.062 3.563-.062s2.812 0 3.562.062v-.937H5.75v-5.704h6.406v5.704H10V0c.75-.062 2.703-.062 3.563-.062.859 0 2.812 0 3.562.062m0 0"/><path id="c" d="M5.703 0v-.937H4.47V-8.97L1-8.813v.938c1.172 0 1.313 0 1.313.781v6.157H.937V0L3.36-.062Zm-.969-12.094a1.54 1.54 0 0 0-1.546-1.547 1.54 1.54 0 0 0-1.547 1.547c0 .86.687 1.563 1.547 1.563s1.546-.703 1.546-1.563m0 0"/><clipPath id="a"><path d="M0 0h115v93.957H0Zm0 0"/></clipPath></defs><path fill="none" stroke="red" stroke-miterlimit="10" stroke-width="1.196" d="M46.86 75.152V18.457h56.69v56.695Zm0 0"/><path fill="none" stroke="#00F" stroke-miterlimit="10" stroke-width="2.39197608" d="M18.512 75.152V18.457h113.386v56.695Zm0 0"/><g clip-path="url(#a)"><path fill="none" stroke="#000" stroke-miterlimit="10" stroke-width="1.5939840600000001" d="M92.21 46.805c0-25.051-20.304-45.356-45.35-45.356-25.051 0-45.356 20.305-45.356 45.356 0 25.047 20.305 45.355 45.355 45.355 25.047 0 45.352-20.308 45.352-45.355Zm0 0"/></g><use xlink:href="#b" x="34.712" y="53.638"/><use xlink:href="#c" x="52.645" y="53.638"/></svg>