<svg xmlns="http://www.w3.org/2000/svg" xmlns:xlink="http://www.w3.org/1999/xlink" width="121.07" height="209.522"><defs><path id="a" d="M3.89-2.547c0-.844-.078-1.36-.343-1.875-.344-.703-1-.875-1.438-.875-1 0-1.375.75-1.484.969C.344-3.75.328-2.953.328-2.547c0 .531.016 1.328.406 1.969.36.594.954.75 1.375.75.391 0 1.063-.125 1.47-.906.296-.578.312-1.297.312-1.813M2.11-.062c-.266 0-.813-.125-.985-.954-.094-.453-.094-1.203-.094-1.625 0-.546 0-1.109.094-1.546.172-.813.781-.891.984-.891.266 0 .829.14.985.86.094.437.094 1.046.094 1.577 0 .47 0 1.188-.094 1.641-.172.828-.719.938-.985.938m0 0"/><path id="c" d="M2.5-5.078c0-.219-.016-.219-.234-.219-.328.313-.75.5-1.5.5v.266c.218 0 .64 0 1.109-.203v4.078c0 .297-.031.39-.781.39H.812V0c.329-.031 1.016-.031 1.376-.031s1.046 0 1.374.031v-.266h-.28c-.75 0-.782-.093-.782-.39Zm0 0"/><path id="d" d="M2.25-1.625c.125-.125.453-.39.594-.5.484-.453.953-.89.953-1.61 0-.953-.797-1.562-1.781-1.562-.97 0-1.594.719-1.594 1.438 0 .39.312.437.422.437.172 0 .422-.11.422-.422 0-.406-.407-.406-.5-.406.234-.594.765-.781 1.156-.781.734 0 1.125.625 1.125 1.297 0 .828-.578 1.437-1.531 2.39l-1 1.047C.422-.219.422-.203.422 0h3.14l.235-1.422h-.25c-.016.156-.078.547-.172.703-.047.063-.656.063-.781.063H1.172Zm0 0"/><path id="e" d="M2.016-2.656c.625 0 1.03.453 1.03 1.297 0 1-.562 1.28-.983 1.28-.438 0-1.047-.155-1.329-.577.297 0 .5-.188.5-.438 0-.265-.187-.437-.453-.437-.203 0-.437.125-.437.453 0 .75.812 1.25 1.734 1.25 1.047 0 1.797-.734 1.797-1.531 0-.672-.531-1.266-1.344-1.453.625-.22 1.11-.75 1.11-1.391 0-.64-.72-1.094-1.547-1.094-.86 0-1.5.453-1.5 1.063 0 .297.187.422.406.422.25 0 .406-.172.406-.407 0-.297-.265-.406-.437-.406.344-.437.953-.469 1.094-.469.203 0 .812.063.812.89 0 .548-.234.891-.344 1.016-.234.25-.422.266-.906.297-.156 0-.219.016-.219.125 0 .11.078.11.219.11Zm0 0"/><path id="f" d="M3.14-5.156c0-.157 0-.219-.171-.219-.094 0-.11 0-.188.11L.234-1.564v.25h2.25v.672c0 .297-.015.375-.64.375h-.172V0c.672-.031.687-.031 1.14-.031.454 0 .47 0 1.141.031v-.266h-.172c-.625 0-.64-.078-.64-.375v-.671h.843v-.25h-.843Zm-.593.64v2.954H.516Zm0 0"/><path id="g" d="M1.11-4.484c.109.03.421.125.765.125 1 0 1.594-.703 1.594-.828 0-.094-.047-.11-.094-.11-.016 0-.031 0-.094.031a3 3 0 0 1-1.11.22c-.468 0-.858-.11-1.108-.22-.079-.03-.094-.03-.11-.03-.094 0-.094.077-.094.234v2.328c0 .14 0 .234.125.234.063 0 .079-.031.125-.094.094-.11.391-.515 1.079-.515.437 0 .656.359.734.515.125.281.14.656.14.953s0 .735-.218 1.079c-.156.25-.485.484-.906.484A1.27 1.27 0 0 1 .734-.922c.016.016.079.016.079.016.218 0 .406-.14.406-.39a.39.39 0 0 0-.39-.407c-.157 0-.407.078-.407.422 0 .718.625 1.453 1.531 1.453 1 0 1.844-.781 1.844-1.766 0-.922-.672-1.75-1.61-1.75-.39 0-.765.125-1.078.406Zm0 0"/><path id="h" d="M1.094-2.64c0-.657.062-1.235.343-1.72.25-.406.657-.734 1.157-.734.156 0 .515.032.703.297-.36.031-.39.297-.39.375 0 .25.187.375.374.375.14 0 .375-.078.375-.39 0-.47-.36-.86-1.078-.86C1.468-5.297.344-4.25.344-2.53.344-.36 1.359.172 2.125.172c.39 0 .797-.11 1.156-.453.328-.313.594-.64.594-1.344 0-1.031-.797-1.766-1.672-1.766-.578 0-.922.36-1.11.75M2.125-.079a.88.88 0 0 1-.797-.516c-.187-.36-.203-.89-.203-1.203 0-.781.422-1.375 1.047-1.375.39 0 .64.203.781.485.172.296.172.656.172 1.062s0 .75-.156 1.047c-.219.36-.485.5-.844.5m0 0"/><path id="i" d="M2.64-2.875c.454-.219 1-.61 1-1.234 0-.766-.78-1.188-1.515-1.188-.844 0-1.531.578-1.531 1.328 0 .297.094.563.297.797.14.172.172.188.656.5C.563-2.234.344-1.656.344-1.219c0 .89.89 1.39 1.765 1.39.97 0 1.766-.671 1.766-1.515 0-.5-.266-.828-.406-.968-.125-.126-.14-.141-.828-.563m-1.234-.75c-.234-.14-.422-.375-.422-.64 0-.5.547-.829 1.125-.829.61 0 1.125.422 1.125.985 0 .453-.359.843-.828 1.078Zm.39 1.094c.032.015.938.578 1.079.656.125.078.547.328.547.813 0 .609-.656.984-1.297.984-.719 0-1.312-.484-1.312-1.14 0-.594.437-1.063.984-1.313m0 0"/><path id="b" d="M1.625-.437a.463.463 0 0 0-.453-.454.447.447 0 0 0-.438.438.44.44 0 0 0 .438.453.45.45 0 0 0 .453-.437m0 0"/></defs><path fill="none" stroke="#BFBFBF" stroke-miterlimit="10" stroke-width=".199" d="m14.277 101.238.293-92.125M14.277 101.238l9.067-91.675M14.277 101.238 30.7 10.59M14.277 101.238l22.72-89.277M14.277 101.238l28.176-87.71M14.277 101.238l61.348-68.722M14.277 101.238 88.73 46.98M14.277 101.238l81.746-42.472M14.277 101.238l86.141-32.656M14.277 101.238l88.86-24.3M14.277 101.238l90.532-17.062M14.277 101.238l91.5-10.695M14.277 101.238l91.989-5.039M14.277 101.238l86.114 32.727M14.277 101.238l77.29 50.137M14.277 101.238l68.887 61.164M14.277 101.238l61.293 68.774M14.277 101.238l54.457 74.305M14.277 101.238l48.297 78.45M14.277 101.238l42.696 81.633M14.277 101.238l37.586 84.11M14.277 101.238l.215 92.125"/><path fill="none" stroke="#BFBFBF" stroke-miterlimit="10" stroke-width=".399" d="M14.277 80.766c11.309 0 20.473 9.164 20.473 20.472 0 11.305-9.164 20.473-20.473 20.473"/><path fill="none" stroke="#BFBFBF" stroke-miterlimit="10" stroke-width=".399" d="M14.277 60.293c22.614 0 40.946 18.332 40.946 40.945 0 22.614-18.332 40.946-40.946 40.946"/><path fill="none" stroke="#BFBFBF" stroke-miterlimit="10" stroke-width=".399" d="M14.277 39.82c33.922 0 61.418 27.496 61.418 61.418S48.2 162.656 14.277 162.656"/><path fill="none" stroke="#BFBFBF" stroke-miterlimit="10" stroke-width=".399" d="M14.277 19.348c45.23 0 81.891 36.664 81.891 81.89s-36.66 81.89-81.89 81.89M14.277 101.238l32.97-86.023M14.277 101.238l92.13.04M14.277 101.238l32.891 86.051"/><path fill="none" stroke="#7F7F7F" stroke-linecap="round" stroke-miterlimit="10" stroke-width=".399" d="m14.586 4.133.004-1.395M23.836 4.605l.137-1.386M31.59 5.688l.246-1.372M38.223 7.133l.343-1.352M43.977 8.785l.425-1.328M78.941 28.797l.93-1.04M92.758 44.047l1.125-.82M100.445 56.469l1.239-.645M105.078 66.816l1.305-.496M107.941 75.625l1.348-.367M109.703 83.254l1.371-.262M110.727 89.965l1.386-.16M111.238 95.926l1.395-.074M105.047 135.734l1.305.496M95.746 154.086l1.168.762M86.89 165.71l1.044.927M78.883 173.73l.93 1.04M71.68 179.559l.824 1.125M65.188 183.926l.73 1.187M59.281 187.285l.645 1.235M53.898 189.895l.567 1.273M14.504 198.344l.004 1.394M49.027 10.563l.715-1.86M111.387 101.281h1.992M48.95 191.945l.71 1.86M105.047 135.734l1.863.711M95.746 154.086l1.672 1.086M86.89 165.71l1.489 1.321M78.883 173.73l1.328 1.489M29.063 197.21l.304 1.97M14.504 198.344l.004 1.992"/><path fill="none" stroke="#C00" stroke-linecap="round" stroke-miterlimit="10" stroke-width=".399" d="M7.305 101.238h1.992M7.305 80.766h1.992M7.305 60.293h1.992M7.305 39.82h1.992M7.305 19.348h1.992M9.297 121.71H7.305M9.297 142.184H7.305M9.297 162.656H7.305M9.297 183.129H7.305"/><path fill="none" stroke="#BFBFBF" stroke-linecap="square" stroke-miterlimit="10" stroke-width=".399" d="M14.277 9.11c50.883 0 92.13 41.245 92.13 92.128 0 50.88-41.247 92.125-92.13 92.125"/><path fill="none" stroke="#7F7F7F" stroke-linecap="square" stroke-miterlimit="10" stroke-width=".399" d="M14.277 4.129c53.633 0 97.11 43.476 97.11 97.11 0 53.632-43.477 97.109-97.11 97.109"/><path fill="none" stroke="#BFBFBF" stroke-linecap="square" stroke-miterlimit="10" stroke-width=".399" d="M14.277 101.238V9.11"/><path fill="none" stroke="#7F7F7F" stroke-linecap="square" stroke-miterlimit="10" stroke-width=".399" d="M9.297 101.238V9.11"/><path fill="none" stroke="#BFBFBF" stroke-linecap="square" stroke-miterlimit="10" stroke-width=".399" d="M14.277 101.238v92.125"/><path fill="none" stroke="#7F7F7F" stroke-linecap="square" stroke-miterlimit="10" stroke-width=".399" d="M9.297 101.238v92.125"/><path fill="none" stroke="#000" stroke-miterlimit="10" stroke-width=".598" d="M14.277 9.113S22.13 20.29 24.43 24.5c2.3 4.207 5.086 10.941 6.433 14.95 1.348 4.007 2.746 10.277 3.29 13.933.542 3.652.734 9.219.624 12.41s-.82 7.926-1.402 10.586-1.91 6.484-2.8 8.586c-.887 2.097-2.571 4.996-3.602 6.547-1.028 1.547-2.805 3.57-3.825 4.613-1.023 1.043-2.66 2.297-3.55 2.914-.887.617-2.196 1.246-2.848 1.54-.648.292-1.492.484-1.836.577-.344.09-.637.059-.637.082s.293-.008.637.082c.344.094 1.188.285 1.836.582.652.293 1.96.922 2.848 1.54.886.62 2.523 1.87 3.543 2.917 1.023 1.043 2.797 3.067 3.824 4.618 1.031 1.55 2.71 4.449 3.598 6.55.886 2.098 2.214 5.922 2.796 8.582s1.286 7.399 1.391 10.59c.102 3.192-.102 8.758-.645 12.414-.542 3.653-1.921 9.914-3.27 13.922-1.347 4.004-4.151 10.742-6.448 14.95-2.297 4.206-10.106 15.378-10.106 15.378"/><use xlink:href="#a" x="52.398" y="6.048"/><use xlink:href="#b" x="56.632" y="6.048"/><use xlink:href="#c" x="58.985" y="6.048"/><use xlink:href="#c" x="116.034" y="103.85"/><use xlink:href="#c" x="52.315" y="201.596"/><use xlink:href="#a" x="56.55" y="201.596"/><use xlink:href="#d" x="109.566" y="144.236"/><use xlink:href="#e" x="100.071" y="162.964"/><use xlink:href="#f" x="91.035" y="174.823"/><use xlink:href="#g" x="82.865" y="183.008"/><use xlink:href="#c" x="32.023" y="206.97"/><use xlink:href="#g" x="36.258" y="206.97"/><use xlink:href="#d" x="10.273" y="208.127"/><use xlink:href="#a" x="14.508" y="208.127"/><use xlink:href="#a" x=".415" y="103.806" fill="#C00"/><use xlink:href="#d" x=".415" y="83.334" fill="#C00"/><use xlink:href="#f" x=".415" y="62.861" fill="#C00"/><use xlink:href="#h" x=".415" y="42.389" fill="#C00"/><use xlink:href="#i" x=".415" y="21.917" fill="#C00"/><use xlink:href="#d" x=".415" y="124.278" fill="#C00"/><use xlink:href="#f" x=".415" y="144.75" fill="#C00"/><use xlink:href="#h" x=".415" y="165.222" fill="#C00"/><use xlink:href="#i" x=".415" y="185.695" fill="#C00"/></svg>