<svg xmlns="http://www.w3.org/2000/svg" xmlns:xlink="http://www.w3.org/1999/xlink" width="105.5" height="89.444"><defs><path id="a" d="M3.89-2.547c0-.844-.078-1.36-.343-1.875-.344-.703-1-.875-1.438-.875-1 0-1.375.75-1.484.969C.344-3.75.328-2.953.328-2.547c0 .531.016 1.328.406 1.969.36.594.954.75 1.375.75.391 0 1.063-.125 1.47-.906.296-.578.312-1.297.312-1.813M2.11-.062c-.266 0-.813-.125-.985-.954-.094-.453-.094-1.203-.094-1.625 0-.546 0-1.109.094-1.546.172-.813.781-.891.984-.891.266 0 .829.14.985.86.094.437.094 1.046.094 1.577 0 .47 0 1.188-.094 1.641-.172.828-.719.938-.985.938m0 0"/><path id="c" d="M2.016-2.656c.625 0 1.03.453 1.03 1.297 0 1-.562 1.28-.983 1.28-.438 0-1.047-.155-1.329-.577.297 0 .5-.188.5-.438 0-.265-.187-.437-.453-.437-.203 0-.437.125-.437.453 0 .75.812 1.25 1.734 1.25 1.047 0 1.797-.734 1.797-1.531 0-.672-.531-1.266-1.344-1.453.625-.22 1.11-.75 1.11-1.391 0-.64-.72-1.094-1.547-1.094-.86 0-1.5.453-1.5 1.063 0 .297.187.422.406.422.25 0 .406-.172.406-.407 0-.297-.265-.406-.437-.406.344-.437.953-.469 1.094-.469.203 0 .812.063.812.89 0 .548-.234.891-.344 1.016-.234.25-.422.266-.906.297-.156 0-.219.016-.219.125 0 .11.078.11.219.11Zm0 0"/><path id="d" d="M1.094-2.64c0-.657.062-1.235.343-1.72.25-.406.657-.734 1.157-.734.156 0 .515.032.703.297-.36.031-.39.297-.39.375 0 .25.187.375.374.375.14 0 .375-.078.375-.39 0-.47-.36-.86-1.078-.86C1.468-5.297.344-4.25.344-2.53.344-.36 1.359.172 2.125.172c.39 0 .797-.11 1.156-.453.328-.313.594-.64.594-1.344 0-1.031-.797-1.766-1.672-1.766-.578 0-.922.36-1.11.75M2.125-.079a.88.88 0 0 1-.797-.516c-.187-.36-.203-.89-.203-1.203 0-.781.422-1.375 1.047-1.375.39 0 .64.203.781.485.172.296.172.656.172 1.062s0 .75-.156 1.047c-.219.36-.485.5-.844.5m0 0"/><path id="e" d="M3.125-2.344c0 1.938-.922 2.266-1.39 2.266-.173 0-.579-.016-.798-.266.36-.031.375-.297.375-.375a.37.37 0 0 0-.375-.375.37.37 0 0 0-.375.39c0 .548.454.876 1.188.876 1.094 0 2.125-1.094 2.125-2.797 0-2.062-.922-2.672-1.734-2.672-.953 0-1.797.734-1.797 1.781 0 1.016.781 1.766 1.687 1.766.563 0 .906-.36 1.094-.766Zm-1.062.375c-.376 0-.61-.172-.782-.468-.187-.282-.187-.672-.187-1.079 0-.468 0-.796.218-1.125.204-.296.454-.453.829-.453.53 0 .765.532.797.563.156.39.171 1.015.171 1.172 0 .64-.343 1.39-1.046 1.39m0 0"/><path id="f" d="M2.5-5.078c0-.219-.016-.219-.234-.219-.328.313-.75.5-1.5.5v.266c.218 0 .64 0 1.109-.203v4.078c0 .297-.031.39-.781.39H.812V0c.329-.031 1.016-.031 1.376-.031s1.046 0 1.374.031v-.266h-.28c-.75 0-.782-.093-.782-.39Zm0 0"/><path id="g" d="M2.25-1.625c.125-.125.453-.39.594-.5.484-.453.953-.89.953-1.61 0-.953-.797-1.562-1.781-1.562-.97 0-1.594.719-1.594 1.438 0 .39.312.437.422.437.172 0 .422-.11.422-.422 0-.406-.407-.406-.5-.406.234-.594.765-.781 1.156-.781.734 0 1.125.625 1.125 1.297 0 .828-.578 1.437-1.531 2.39l-1 1.047C.422-.219.422-.203.422 0h3.14l.235-1.422h-.25c-.016.156-.078.547-.172.703-.047.063-.656.063-.781.063H1.172Zm0 0"/><path id="h" d="M1.11-4.484c.109.03.421.125.765.125 1 0 1.594-.703 1.594-.828 0-.094-.047-.11-.094-.11-.016 0-.031 0-.094.031a3 3 0 0 1-1.11.22c-.468 0-.858-.11-1.108-.22-.079-.03-.094-.03-.11-.03-.094 0-.094.077-.094.234v2.328c0 .14 0 .234.125.234.063 0 .079-.031.125-.094.094-.11.391-.515 1.079-.515.437 0 .656.359.734.515.125.281.14.656.14.953s0 .735-.218 1.079c-.156.25-.485.484-.906.484A1.27 1.27 0 0 1 .734-.922c.016.016.079.016.079.016.218 0 .406-.14.406-.39a.39.39 0 0 0-.39-.407c-.157 0-.407.078-.407.422 0 .718.625 1.453 1.531 1.453 1 0 1.844-.781 1.844-1.766 0-.922-.672-1.75-1.61-1.75-.39 0-.765.125-1.078.406Zm0 0"/><path id="i" d="M2.64-2.875c.454-.219 1-.61 1-1.234 0-.766-.78-1.188-1.515-1.188-.844 0-1.531.578-1.531 1.328 0 .297.094.563.297.797.14.172.172.188.656.5C.563-2.234.344-1.656.344-1.219c0 .89.89 1.39 1.765 1.39.97 0 1.766-.671 1.766-1.515 0-.5-.266-.828-.406-.968-.125-.126-.14-.141-.828-.563m-1.234-.75c-.234-.14-.422-.375-.422-.64 0-.5.547-.829 1.125-.829.61 0 1.125.422 1.125.985 0 .453-.359.843-.828 1.078Zm.39 1.094c.032.015.938.578 1.079.656.125.078.547.328.547.813 0 .609-.656.984-1.297.984-.719 0-1.312-.484-1.312-1.14 0-.594.437-1.063.984-1.313m0 0"/><path id="j" d="M3.14-5.156c0-.157 0-.219-.171-.219-.094 0-.11 0-.188.11L.234-1.564v.25h2.25v.672c0 .297-.015.375-.64.375h-.172V0c.672-.031.687-.031 1.14-.031.454 0 .47 0 1.141.031v-.266h-.172c-.625 0-.64-.078-.64-.375v-.671h.843v-.25h-.843Zm-.593.64v2.954H.516Zm0 0"/><path id="k" d="M4.031-4.86c.078-.077.078-.093.078-.265H2.08a9 9 0 0 1-.642-.031c-.421-.032-.421-.11-.453-.235h-.25L.47-3.703h.25c.015-.125.11-.672.219-.735.078-.046.687-.046.796-.046h1.688l-.813 1.109C1.703-2.172 1.5-.906 1.5-.281c0 .078 0 .453.375.453s.375-.36.375-.453v-.39c0-1.141.203-2.079.594-2.61Zm0 0"/><path id="b" d="M3.266-1.5c0-.75-.61-1.36-1.36-1.36-.734 0-1.343.61-1.343 1.36 0 .766.609 1.36 1.343 1.36.75 0 1.36-.594 1.36-1.36M1.906-.453A1.024 1.024 0 0 1 .875-1.5c0-.578.453-1.047 1.031-1.047s1.047.469 1.047 1.047c0 .594-.469 1.047-1.047 1.047m0 0"/></defs><path fill="none" stroke="#7F7F7F" stroke-linecap="round" stroke-miterlimit="10" stroke-width=".399" d="M88.371 44.367h1.992M83.906 27.703l1.727-.996M71.707 15.504l.996-1.723M55.043 11.04V9.046M38.379 15.504l-.996-1.723M26.18 27.703l-1.723-.996M21.715 44.367h-1.992M26.18 61.031l-1.723.996M38.379 73.23l-.996 1.727M55.043 77.695v1.993M71.707 73.23l.996 1.727M83.906 61.031l1.727.996M55.043 46.36v-1.993M73.941 46.36v-1.993"/><path fill="none" stroke="#BFBFBF" stroke-linecap="square" stroke-miterlimit="10" stroke-width=".399" d="M83.39 44.367c0-15.656-12.69-28.347-28.347-28.347-15.656 0-28.348 12.69-28.348 28.347 0 15.656 12.692 28.348 28.348 28.348s28.348-12.692 28.348-28.348"/><path fill="none" stroke="#7F7F7F" stroke-linecap="square" stroke-miterlimit="10" stroke-width=".399" d="M88.371 44.367c0-18.406-14.922-33.328-33.328-33.328S21.715 25.961 21.715 44.367s14.922 33.328 33.328 33.328 33.328-14.922 33.328-33.328"/><path fill="none" stroke="#BFBFBF" stroke-linecap="square" stroke-miterlimit="10" stroke-width=".399" d="M55.043 44.367h28.348"/><path fill="none" stroke="#7F7F7F" stroke-linecap="square" stroke-miterlimit="10" stroke-width=".399" d="M55.043 44.367h28.348"/><path fill="none" stroke="#000" stroke-miterlimit="10" stroke-width=".399" d="m62.516 42.547 2.816-2.82m-2.816 0 2.816 2.82M70 36.328l2.82-2.816m-2.82 0 2.82 2.816M75.352 27.555l2.816-2.817m-2.816 0 2.816 2.817"/><use xlink:href="#a" x="93.02" y="47.199"/><use xlink:href="#b" x="97.254" y="44.387"/><use xlink:href="#c" x="88.288" y="24.052"/><use xlink:href="#a" x="92.523" y="24.052"/><use xlink:href="#b" x="96.756" y="21.239"/><use xlink:href="#d" x="75.36" y="11.123"/><use xlink:href="#a" x="79.595" y="11.123"/><use xlink:href="#b" x="83.828" y="8.311"/><use xlink:href="#e" x="48.651" y="6.391"/><use xlink:href="#a" x="52.886" y="6.391"/><use xlink:href="#b" x="57.119" y="3.579"/><use xlink:href="#f" x="17.708" y="11.123"/><use xlink:href="#g" x="21.943" y="11.123"/><use xlink:href="#a" x="26.177" y="11.123"/><use xlink:href="#b" x="30.41" y="8.311"/><use xlink:href="#f" x="4.78" y="24.052"/><use xlink:href="#h" x="9.015" y="24.052"/><use xlink:href="#a" x="13.249" y="24.052"/><use xlink:href="#b" x="17.482" y="21.239"/><use xlink:href="#f" x=".048" y="47.199"/><use xlink:href="#i" x="4.283" y="47.199"/><use xlink:href="#a" x="8.517" y="47.199"/><use xlink:href="#b" x="12.75" y="44.387"/><use xlink:href="#g" x="4.78" y="70.347"/><use xlink:href="#f" x="9.015" y="70.347"/><use xlink:href="#a" x="13.249" y="70.347"/><use xlink:href="#b" x="17.482" y="67.534"/><use xlink:href="#g" x="17.708" y="83.275"/><use xlink:href="#j" x="21.943" y="83.275"/><use xlink:href="#a" x="26.177" y="83.275"/><use xlink:href="#b" x="30.41" y="80.462"/><use xlink:href="#g" x="46.534" y="88.007"/><use xlink:href="#k" x="50.769" y="88.007"/><use xlink:href="#a" x="55.003" y="88.007"/><use xlink:href="#b" x="59.236" y="85.194"/><use xlink:href="#c" x="75.36" y="83.275"/><use xlink:href="#a" x="79.595" y="83.275"/><use xlink:href="#a" x="83.829" y="83.275"/><use xlink:href="#b" x="88.062" y="80.462"/><use xlink:href="#c" x="88.288" y="70.347"/><use xlink:href="#c" x="92.523" y="70.347"/><use xlink:href="#a" x="96.757" y="70.347"/><use xlink:href="#b" x="100.99" y="67.534"/><use xlink:href="#a" x="52.926" y="54.153"/><use xlink:href="#f" x="71.824" y="54.153"/></svg>