<svg xmlns="http://www.w3.org/2000/svg" xmlns:xlink="http://www.w3.org/1999/xlink" width="80.336" height="61.994"><defs><clipPath id="d"><path d="M0 26h14v35.992H0Zm0 0"/></clipPath><clipPath id="e"><path d="M2 26h19v35.992H2Zm0 0"/></clipPath><clipPath id="f"><path d="M44 26h27v35.992H44Zm0 0"/></clipPath><clipPath id="g"><path d="M64 32h1v29.992h-1Zm0 0"/></clipPath><clipPath id="h"><path d="M59 26h21.004v35.992H59Zm0 0"/></clipPath><path id="a" d="M4.406-3.672c0-.531-.531-.812-1.062-.812-.688 0-1.094.5-1.313 1.125v-1.125l-1.656.078v.468c.61 0 .688 0 .688.391v3.078H.375V0l1.25-.031C2-.031 2.641-.031 3 0v-.469h-.86v-1.75c0-.687.235-1.906 1.235-1.906 0 0-.187.172-.187.453 0 .406.328.61.609.61.297 0 .61-.204.61-.61m0 0"/><path id="b" d="M5.406-2.172c0-1.344-.922-2.344-2.547-2.344C1.22-4.516.313-3.5.313-2.172c0 1.235.89 2.235 2.546 2.235 1.672 0 2.547-1.016 2.547-2.235m-1.281-.11c0 .86 0 1.938-1.266 1.938-1.265 0-1.265-1.078-1.265-1.937 0-.453 0-.953.172-1.297.187-.375.609-.578 1.093-.578.422 0 .844.156 1.063.5.203.344.203.89.203 1.375m0 0"/><path id="c" d="M3.813-1.234v-.532h-.47v.516c0 .672-.327.906-.609.906-.578 0-.578-.64-.578-.86v-2.75h1.469v-.468H2.156v-1.906h-.469c0 1-.484 1.984-1.484 2.016v.359h.828v2.734c0 1.063.86 1.282 1.578 1.282.75 0 1.204-.579 1.204-1.297m0 0"/></defs><use xlink:href="#a" x="25.825" y="7.332"/><use xlink:href="#b" x="30.547" y="7.332"/><use xlink:href="#b" x="36.595" y="7.332"/><use xlink:href="#c" x="42.323" y="7.332"/><path fill="none" stroke="#000" stroke-miterlimit="10" stroke-width=".399" d="M29.59 10.91 7.953 32.547"/><g clip-path="url(#d)"><path fill="none" stroke="#000" stroke-miterlimit="10" stroke-width=".399" d="M7.953 32.547.867 60.895"/></g><g clip-path="url(#e)"><path fill="none" stroke="#000" stroke-miterlimit="10" stroke-width=".399" d="m7.953 32.547 7.086 28.348"/></g><path fill="none" stroke="#000" stroke-miterlimit="10" stroke-width=".399" d="m43.012 10.91 21.636 21.637"/><g clip-path="url(#f)"><path fill="none" stroke="#000" stroke-miterlimit="10" stroke-width=".399" d="M64.648 32.547 50.473 60.895"/></g><g clip-path="url(#g)"><path fill="none" stroke="#000" stroke-miterlimit="10" stroke-width=".399" d="M64.648 32.547v28.348"/></g><g clip-path="url(#h)"><path fill="none" stroke="#000" stroke-miterlimit="10" stroke-width=".399" d="M64.648 32.547 78.82 60.895"/></g></svg>