<svg xmlns="http://www.w3.org/2000/svg" xmlns:xlink="http://www.w3.org/1999/xlink" width="28.748" height="5.078"><defs><path id="a" d="M4.438-1.703c.078 0 .203 0 .203-.14s-.157-.141-.22-.141H.704c-.078 0-.219 0-.219.14s.125.14.188.14ZM4.422-.516c.062 0 .219 0 .219-.14s-.125-.14-.203-.14H.672c-.063 0-.188 0-.188.14s.141.14.22.14Zm0 0"/><path id="b" d="M4.672-1.703c.25.203.531.36.797.453-.25.094-.532.234-.797.453H.828c-.078 0-.203 0-.203.14s.14.141.234.141h3.5c-.28.297-.5.641-.5.688 0 .094.094.094.141.094.063 0 .11 0 .14-.063.094-.156.25-.437.563-.703.578-.5 1.094-.61 1.39-.672.048 0 .063-.047.063-.078 0-.062-.047-.078-.078-.078-.75-.14-1.422-.5-1.937-1.375C4.109-2.75 4.062-2.75 4-2.75c-.047 0-.14 0-.14.078 0 .047.14.313.5.688H.86c-.094 0-.235 0-.235.14s.125.14.203.14Zm0 0"/></defs><use xlink:href="#a" x=".514" y="3.297"/><use xlink:href="#a" x="7.666" y="3.297"/><use xlink:href="#b" x="11.568" y="3.297"/><path fill="none" stroke="#000" stroke-miterlimit="10" stroke-width="1.195" d="M20.984 2.191h5.508"/><path fill="none" stroke="#FFF" stroke-miterlimit="10" stroke-width=".796" d="M20.984 2.191h5.508"/><path fill="none" stroke="#000" stroke-linecap="round" stroke-linejoin="round" stroke-miterlimit="10" stroke-width=".199" d="M25.828.871c.32.7 1.192 1.297 1.692 1.32-.5.024-1.372.622-1.692 1.32"/></svg>