<svg xmlns="http://www.w3.org/2000/svg" xmlns:xlink="http://www.w3.org/1999/xlink" width="103.772" height="71.354"><defs><path id="b" d="M2.5-5.078c0-.219-.016-.219-.234-.219-.328.313-.75.5-1.5.5v.266c.218 0 .64 0 1.109-.203v4.078c0 .297-.031.39-.781.39H.812V0c.329-.031 1.016-.031 1.376-.031s1.046 0 1.374.031v-.266h-.28c-.75 0-.782-.093-.782-.39Zm0 0"/><path id="c" d="M3.89-2.547c0-.844-.078-1.36-.343-1.875-.344-.703-1-.875-1.438-.875-1 0-1.375.75-1.484.969C.344-3.75.328-2.953.328-2.547c0 .531.016 1.328.406 1.969.36.594.954.75 1.375.75.391 0 1.063-.125 1.47-.906.296-.578.312-1.297.312-1.813M2.11-.062c-.266 0-.813-.125-.985-.954-.094-.453-.094-1.203-.094-1.625 0-.546 0-1.109.094-1.546.172-.813.781-.891.984-.891.266 0 .829.14.985.86.094.437.094 1.046.094 1.577 0 .47 0 1.188-.094 1.641-.172.828-.719.938-.985.938m0 0"/><path id="d" d="M2.25-1.625c.125-.125.453-.39.594-.5.484-.453.953-.89.953-1.61 0-.953-.797-1.562-1.781-1.562-.97 0-1.594.719-1.594 1.438 0 .39.312.437.422.437.172 0 .422-.11.422-.422 0-.406-.407-.406-.5-.406.234-.594.765-.781 1.156-.781.734 0 1.125.625 1.125 1.297 0 .828-.578 1.437-1.531 2.39l-1 1.047C.422-.219.422-.203.422 0h3.14l.235-1.422h-.25c-.016.156-.078.547-.172.703-.047.063-.656.063-.781.063H1.172Zm0 0"/><path id="f" d="M1.11-4.484c.109.03.421.125.765.125 1 0 1.594-.703 1.594-.828 0-.094-.047-.11-.094-.11-.016 0-.031 0-.094.031a3 3 0 0 1-1.11.22c-.468 0-.858-.11-1.108-.22-.079-.03-.094-.03-.11-.03-.094 0-.094.077-.094.234v2.328c0 .14 0 .234.125.234.063 0 .079-.031.125-.094.094-.11.391-.515 1.079-.515.437 0 .656.359.734.515.125.281.14.656.14.953s0 .735-.218 1.079c-.156.25-.485.484-.906.484A1.27 1.27 0 0 1 .734-.922c.016.016.079.016.079.016.218 0 .406-.14.406-.39a.39.39 0 0 0-.39-.407c-.157 0-.407.078-.407.422 0 .718.625 1.453 1.531 1.453 1 0 1.844-.781 1.844-1.766 0-.922-.672-1.75-1.61-1.75-.39 0-.765.125-1.078.406Zm0 0"/><path id="g" d="M4.031-4.86c.078-.077.078-.093.078-.265H2.08a9 9 0 0 1-.642-.031c-.421-.032-.421-.11-.453-.235h-.25L.47-3.703h.25c.015-.125.11-.672.219-.735.078-.046.687-.046.796-.046h1.688l-.813 1.109C1.703-2.172 1.5-.906 1.5-.281c0 .078 0 .453.375.453s.375-.36.375-.453v-.39c0-1.141.203-2.079.594-2.61Zm0 0"/><path id="h" d="M2.016-2.656c.625 0 1.03.453 1.03 1.297 0 1-.562 1.28-.983 1.28-.438 0-1.047-.155-1.329-.577.297 0 .5-.188.5-.438 0-.265-.187-.437-.453-.437-.203 0-.437.125-.437.453 0 .75.812 1.25 1.734 1.25 1.047 0 1.797-.734 1.797-1.531 0-.672-.531-1.266-1.344-1.453.625-.22 1.11-.75 1.11-1.391 0-.64-.72-1.094-1.547-1.094-.86 0-1.5.453-1.5 1.063 0 .297.187.422.406.422.25 0 .406-.172.406-.407 0-.297-.265-.406-.437-.406.344-.437.953-.469 1.094-.469.203 0 .812.063.812.89 0 .548-.234.891-.344 1.016-.234.25-.422.266-.906.297-.156 0-.219.016-.219.125 0 .11.078.11.219.11Zm0 0"/><path id="e" d="M1.625-.437a.463.463 0 0 0-.453-.454.447.447 0 0 0-.438.438.44.44 0 0 0 .438.453.45.45 0 0 0 .453-.437m0 0"/><clipPath id="a"><path d="M5 0h98.656v69H5Zm0 0"/></clipPath></defs><path fill="none" stroke="#7F7F7F" stroke-linecap="round" stroke-miterlimit="10" stroke-width=".399" d="M13.738 62.082V60.09M35 62.082V60.09M56.258 62.082V60.09M77.52 62.082V60.09M98.777 62.082V60.09M13.738 3.395V1.402M35 3.395V1.402M56.258 3.395V1.402M77.52 3.395V1.402M98.777 3.395V1.402M11.746 60.09h1.992M11.746 45.914h1.992M11.746 31.742h1.992M11.746 17.566h1.992M11.746 3.395h1.992M98.781 60.09h1.992M98.781 45.914h1.992M98.781 31.742h1.992M98.781 17.566h1.992M98.781 3.395h1.992"/><path fill="none" stroke="#7F7F7F" stroke-miterlimit="10" stroke-width=".399" d="M13.738 60.09h85.043M13.738 3.395h85.043M13.738 60.09V3.395M98.781 60.09V3.395"/><g clip-path="url(#a)"><path fill="none" stroke="#000" stroke-miterlimit="10" stroke-width=".598" d="m13.738 60.09 85.04-28.348-42.52-28.347L39.25 31.742"/></g><use xlink:href="#b" x="9.505" y="69.873"/><use xlink:href="#c" x="13.74" y="69.873"/><use xlink:href="#b" x="27.472" y="69.873"/><use xlink:href="#d" x="31.707" y="69.873"/><use xlink:href="#e" x="35.94" y="69.873"/><use xlink:href="#f" x="38.292" y="69.873"/><use xlink:href="#b" x="52.025" y="69.873"/><use xlink:href="#f" x="56.26" y="69.873"/><use xlink:href="#b" x="69.991" y="69.873"/><use xlink:href="#g" x="74.226" y="69.873"/><use xlink:href="#e" x="78.459" y="69.873"/><use xlink:href="#f" x="80.812" y="69.873"/><use xlink:href="#d" x="94.544" y="69.873"/><use xlink:href="#c" x="98.779" y="69.873"/><use xlink:href="#b" x=".622" y="62.656"/><use xlink:href="#c" x="4.857" y="62.656"/><use xlink:href="#b" x=".622" y="48.483"/><use xlink:href="#f" x="4.857" y="48.483"/><use xlink:href="#d" x=".622" y="34.31"/><use xlink:href="#c" x="4.857" y="34.31"/><use xlink:href="#d" x=".622" y="20.137"/><use xlink:href="#f" x="4.857" y="20.137"/><use xlink:href="#h" x=".622" y="5.964"/><use xlink:href="#c" x="4.857" y="5.964"/></svg>