<svg xmlns="http://www.w3.org/2000/svg" xmlns:xlink="http://www.w3.org/1999/xlink" width="84.374" height="92.792"><defs><path id="b" d="M5.516-.234c0-.235-.125-.235-.266-.235-.61-.015-.61-.14-.61-.375v-2.14c0-.891-.702-1.532-2.187-1.532-.562 0-1.781.047-1.781.922 0 .438.344.625.61.625.312 0 .624-.219.624-.625 0-.297-.187-.469-.218-.5a5 5 0 0 1 .718-.062c.75 0 1.11.422 1.11 1.172v.343c-.72.032-3.25.125-3.25 1.563C.266-.125 1.5.062 2.188.062c.796 0 1.265-.406 1.484-.828 0 .313 0 .766 1.047.766h.468c.204 0 .329 0 .329-.234m-2-1.157c0 .97-.922 1.094-1.172 1.094-.516 0-.906-.344-.906-.797 0-1.062 1.578-1.203 2.078-1.234Zm0 0"/><path id="c" d="M5.984-2.219c0-1.328-.937-2.265-2.39-2.265-.719 0-1.219.28-1.453.484v-2.922l-1.766.078v.469c.61 0 .688 0 .688.39V0h.468c.157-.187.328-.375.485-.562.078.078.562.625 1.453.625 1.484 0 2.515-.907 2.515-2.282m-1.28 0c0 .469 0 1.016-.25 1.406-.298.407-.75.516-1.079.516-.687 0-1.078-.547-1.187-.687v-2.5c.28-.36.75-.641 1.296-.641 1.22 0 1.22 1.203 1.22 1.906m0 0"/><path id="d" d="M4.766-1.172c0-.14-.141-.14-.235-.14-.187 0-.187.03-.25.156-.25.625-.734.812-1.234.812-1.39 0-1.39-1.453-1.39-1.922 0-.562 0-1.843 1.28-1.843.36 0 .516.015.657.046a.62.62 0 0 0-.203.47c0 .437.343.624.609.624.313 0 .64-.219.64-.625 0-.86-1.156-.922-1.734-.922C1.11-4.516.375-3.375.375-2.219.375-.89 1.313.063 2.844.063c1.625 0 1.922-1.157 1.922-1.235m0 0"/><path id="e" d="M5.984 0v-.469c-.609 0-.687 0-.687-.39v-6.063l-1.766.078v.469c.625 0 .703 0 .703.39v1.954a2.18 2.18 0 0 0-1.359-.453c-1.453 0-2.5.875-2.5 2.28 0 1.313.922 2.267 2.39 2.267.61 0 1.094-.235 1.407-.485v.485ZM4.172-1.031c-.14.187-.547.734-1.297.734-1.219 0-1.219-1.203-1.219-1.906 0-.485 0-1.016.25-1.406.297-.422.766-.516 1.078-.516.563 0 .97.313 1.188.61Zm0 0"/><path id="f" d="M4.922-1.172c0-.172-.188-.172-.234-.172-.172 0-.188.047-.25.203-.204.485-.782.797-1.422.797-1.407 0-1.422-1.328-1.422-1.828h3.015c.22 0 .313 0 .313-.265 0-.313-.063-1.047-.563-1.547-.359-.36-.89-.532-1.578-.532C1.187-4.516.313-3.484.313-2.25c0 1.344 1 2.313 2.609 2.313 1.578 0 2-1.063 2-1.235M3.984-2.5h-2.39c.015-.39.031-.812.234-1.14.266-.391.672-.516.953-.516 1.172 0 1.188 1.312 1.203 1.656m0 0"/><path id="g" d="M4.36-6.11c0-.421-.36-.874-1.141-.874-.969 0-2.047.422-2.047 1.547v1.015h-.75v.469h.75V-.47H.484V0l1.25-.031c.375 0 1.016 0 1.375.031v-.469H2.25v-3.484h1.14v-.469H2.188v-1.016c0-1.093.75-1.187 1-1.187.047 0 .11 0 .172.031a.59.59 0 0 0-.234.485c0 .422.36.609.61.609.296 0 .624-.203.624-.61m0 0"/><path id="h" d="M6.125 0v-.469h-.687v-2.578c0-1.047-.532-1.437-1.532-1.437a1.9 1.9 0 0 0-1.687.953v-3.39l-1.766.077v.469c.61 0 .688 0 .688.39v5.516H.453V0l1.25-.031L2.953 0v-.469h-.687v-2.078c0-1.094.859-1.578 1.5-1.578.328 0 .547.203.547.969V-.47h-.688V0l1.25-.031Zm0 0"/><clipPath id="a"><path d="M61 3h23.063v85H61Zm0 0"/></clipPath></defs><path fill="none" stroke="#000" stroke-miterlimit="10" stroke-width=".399" d="m28.422 36.133-18.899 18"/><path fill="none" stroke="#000" stroke-linecap="round" stroke-linejoin="round" stroke-miterlimit="10" stroke-width=".39898005000000003" d="M12.527 54.57c-1.261-.777-2.34-.687-3.148-.3.422-.79.566-1.86-.149-3.16"/><path fill="none" stroke="#000" stroke-miterlimit="10" stroke-width=".399" d="m31.215 37.34-5.727 16.363"/><path fill="none" stroke="#000" stroke-linecap="round" stroke-linejoin="round" stroke-miterlimit="10" stroke-width=".39898404" d="M28.363 52.727c-1.48-.118-2.398.453-2.941 1.164.015-.895-.344-1.914-1.57-2.746"/><path fill="none" stroke="#000" stroke-miterlimit="10" stroke-width=".399" d="m35.277 37.34 5.38 15.367"/><path fill="none" stroke="#000" stroke-linecap="round" stroke-linejoin="round" stroke-miterlimit="10" stroke-width=".39898005000000003" d="M42.293 50.148c-1.23.832-1.59 1.852-1.574 2.747-.543-.711-1.461-1.282-2.942-1.165"/><path fill="none" stroke="#000" stroke-miterlimit="10" stroke-width=".399" d="m70.898 8.996-5.304 15.16"/><path fill="none" stroke="#000" stroke-linecap="round" stroke-linejoin="round" stroke-miterlimit="10" stroke-width=".39898404" d="M68.469 23.176c-1.48-.117-2.399.457-2.942 1.168.02-.895-.343-1.914-1.57-2.746"/><path fill="none" stroke="#000" stroke-miterlimit="10" stroke-width=".399" d="m67.355 7.172-28.37 20.27"/><path fill="none" stroke="#000" stroke-linecap="round" stroke-linejoin="round" stroke-miterlimit="10" stroke-width=".39897606" d="M41.895 28.297c-1.141-.95-2.22-1.008-3.075-.742.532-.72.825-1.762.297-3.149"/><path fill="none" stroke="#000" stroke-miterlimit="10" stroke-width=".399" d="M63.008 38.543v42.312"/><path fill="none" stroke="#000" stroke-linecap="round" stroke-linejoin="round" stroke-miterlimit="10" stroke-width=".399" d="M65.402 78.984c-1.437.38-2.113 1.223-2.394 2.07-.278-.847-.953-1.69-2.39-2.07"/><path fill="none" stroke="#000" stroke-miterlimit="10" stroke-width=".399" d="m10.168 63.07 45.797 21.805"/><path fill="none" stroke="#000" stroke-linecap="round" stroke-linejoin="round" stroke-miterlimit="10" stroke-width=".39897207" d="M55.3 81.914c-.273 1.457.196 2.43.845 3.047-.887-.113-1.942.137-2.899 1.27"/><path fill="none" stroke="#000" stroke-miterlimit="10" stroke-width=".399" d="m28.793 63.79 27.562 19.687"/><path fill="none" stroke="#000" stroke-linecap="round" stroke-linejoin="round" stroke-miterlimit="10" stroke-width=".39897207" d="M56.223 80.445c-.528 1.387-.235 2.43.293 3.149-.852-.266-1.934-.207-3.075.742"/><path fill="none" stroke="#000" stroke-miterlimit="10" stroke-width=".399" d="m47.21 65.664 11.044 15.777"/><path fill="none" stroke="#000" stroke-linecap="round" stroke-linejoin="round" stroke-miterlimit="10" stroke-width=".39899202" d="M59.14 78.535c-.956 1.133-1.03 2.211-.769 3.067-.719-.536-1.758-.836-3.148-.325"/><g clip-path="url(#a)"><path fill="none" stroke="#000" stroke-miterlimit="10" stroke-width=".399" d="m67.535 81.766 13.031-18.618c1.262-1.8 2.286-5.046 2.286-7.25V35.523c0-2.203-.59-5.668-1.317-7.746L75.094 9.375"/></g><path fill="none" stroke="#000" stroke-linecap="round" stroke-linejoin="round" stroke-miterlimit="10" stroke-width=".39898404" d="M73.457 11.93c1.23-.828 1.59-1.852 1.57-2.746.547.71 1.465 1.285 2.942 1.168"/><use xlink:href="#b" x="70.147" y="5.418"/><use xlink:href="#c" x="59.827" y="34.965"/><use xlink:href="#d" x="30.701" y="33.764"/><use xlink:href="#e" x=".3" y="63.311"/><use xlink:href="#f" x="20.7" y="62.11"/><use xlink:href="#g" x="41.419" y="63.371"/><use xlink:href="#h" x="59.827" y="91.687"/></svg>