<svg xmlns="http://www.w3.org/2000/svg" width="285.752" height="59.114"><defs><clipPath id="a"><path d="M0 0h285.629v58.672H0Zm0 0"/></clipPath></defs><g clip-path="url(#a)"><path fill="none" stroke="#000" stroke-miterlimit="10" stroke-width=".399" d="M1.02 29.113S11.8 18.29 15.94 14.875c4.141-3.418 10.778-8.43 14.918-10.387C35 2.531 41.641.734 45.777.77 49.918.8 56.56 2.707 60.7 4.719c4.14 2.015 10.778 7.11 14.918 10.554 4.14 3.45 10.781 10.352 14.918 14.301 4.14 3.953 10.781 10.793 14.922 14.176 4.14 3.387 10.777 8.316 14.918 10.215 4.14 1.902 10.781 3.582 14.922 3.488 4.137-.098 10.777-2.117 14.918-4.183 4.14-2.07 10.777-7.243 14.918-10.723 4.14-3.48 10.781-10.406 14.922-14.356 4.14-3.949 10.777-10.757 14.918-14.109 4.14-3.352 10.78-8.195 14.918-10.039 4.14-1.844 10.78-3.414 14.922-3.254 4.14.164 10.777 2.293 14.917 4.414 4.141 2.125 10.782 7.375 14.922 10.887 4.137 3.508 10.778 10.465 14.918 14.41s14.918 14.035 14.918 14.035"/></g></svg>