<svg xmlns="http://www.w3.org/2000/svg" width="257.15" height="257.15"><path fill="none" stroke="#7F7F7F" stroke-miterlimit="10" stroke-width=".199" d="M9.098 213.195H247.21M9.098 170.672H247.21M9.098 128.152H247.21M9.098 85.632H247.21M9.098 43.114H247.21M43.113 247.211V9.098m42.52 238.113V9.098m42.52 238.113V9.098m42.519 238.113V9.098m42.523 238.113V9.098"/><path fill="none" stroke="#000" stroke-miterlimit="10" stroke-width=".399" d="M.594 128.152h255.12M128.152 255.715V.594M213.195 128.152c0-46.964-38.074-85.039-85.043-85.039-46.964 0-85.039 38.075-85.039 85.04 0 46.968 38.075 85.042 85.04 85.042 46.968 0 85.042-38.074 85.042-85.043Zm0 0"/><path fill="none" stroke="#000" stroke-miterlimit="10" stroke-width=".399" d="M153.664 128.152c0-4.476-1.18-8.879-3.418-12.754"/></svg>