<svg xmlns="http://www.w3.org/2000/svg" xmlns:xlink="http://www.w3.org/1999/xlink" width="92.81" height="105.86"><defs><path id="a" d="M-2.281-2.89c-.172-.11-.422-.016-.531.187-.11.187-.079.437.093.547.031.015.047.015.11.047l1.843.734c.11.047.11.047.172-.047.047-.094.063-.11-.031-.187l-1.594-1.235ZM.313-1.376a.41.41 0 0 0-.579.14.435.435 0 0 0 .157.579c.203.11.468.031.578-.156a.41.41 0 0 0-.156-.563m0 0"/><path id="v" d="m.453-2.11-.25-.14-.125.219.25.14c.313.172.328.375.25.516-.156.266-.453.094-.562.031l-1.297-.734.39-.672-.218-.125-.391.672-.89-.516-.126.219c.47.281.797.766.547 1.25l.157.094.234-.39 1.297.734c.484.28.828-.063 1.015-.391.204-.344.047-.719-.28-.906m0 0"/><path id="b" d="m1.781-3.094-.234-.125-.203.344L.03-3.641c-.531-.296-.875-.125-1.156.375-.281.485-.14.891-.016 1.11l-1.703-.985-.484.922.234.125c.188-.312.203-.328.406-.203L.095-.687-.11-.36l.234.125.36-.625.374-.625-.234-.125-.203.328-1.047-.61c-.562-.328-.547-.89-.36-1.203.094-.187.266-.219.641 0l1.36.797-.203.344.234.125.36-.64Zm0 0"/><path id="w" d="M.844-2.828c-.078-.047-.14.047-.156.062-.047.094-.032.125.046.188.157.25.157.625-.03.969-.407.703-1.079.312-1.329.172L.25-2.953c.063-.11.094-.156-.047-.235-.156-.093-.547-.296-.937-.171-.297.078-.547.297-.735.64-.468.813-.203 1.547.422 1.906.688.391 1.453.172 1.922-.64.469-.797.063-1.313-.031-1.375m-.953.11-.688 1.187c-.203-.125-.406-.266-.515-.453a.62.62 0 0 1 .03-.625c.329-.578 1-.22 1.173-.11m0 0"/><path id="c" d="M.531-2.437.234-2.61l-.156.265.281.156c.36.22.391.438.297.61-.172.312-.515.125-.64.047l-1.485-.86.453-.796-.25-.141-.453.797-1.031-.594-.14.234c.53.329.906.875.624 1.438l.188.11.25-.454 1.484.86c.578.328.969-.079 1.188-.454.234-.406.078-.828-.313-1.046m0 0"/><path id="x" d="m1.813-3.156-.25-.14-.22.374-1.593.281-.344-1.015c-.031-.11-.047-.172.203-.625l-.25-.14-.265.5-.344.562.25.14a.33.33 0 0 1 .188-.172c0 .032.015.047.015.063l.266.75-.938.172.125-.219-.25-.14-.36.64-.359.594.25.14.22-.375 1.468-.25.39 1.157c.063.156-.046.343-.202.593l.25.141.265-.484.344-.547-.25-.14c-.063.093-.14.171-.172.155 0 0-.016-.015-.031-.062l-.297-.875 1.047-.188-.125.22.25.14.36-.657Zm0 0"/><path id="d" d="M1.688-3.266c-.125-.078-.157 0-.204.079-.203.359-.296.312-.421.234l-1.235-.703c-.516-.297-1.125-.11-1.625.734-.187.344-.562 1.063-.062 1.36.25.14.468 0 .562-.172.11-.172.094-.438-.14-.563a.37.37 0 0 0-.36-.031c.063-.188.172-.375.203-.438.25-.437.61-.5 1.047-.25l.188.11C-.58-2.47-1.391-1-.547-.516.016-.187.547-.844.781-1.25c.266-.469.156-.844-.015-1.125.187.094.453.25.797-.344l.156-.265c.078-.125.11-.203-.032-.282m-1.313.782c.547.312.313.89.234 1.03-.171.298-.515.407-.765.266-.625-.359-.172-1.312-.016-1.609Zm0 0"/><path id="y" d="M.547-2.594.25-2.766.094-2.5l.281.156c.39.235.438.485.344.656-.188.329-.563.11-.688.047l-1.593-.921.484-.829-.281-.156-.485.828-1.093-.64-.157.28c.578.345.985.954.672 1.517l.203.125.281-.47L-.359-1C.25-.64.67-1.078.906-1.484c.25-.438.063-.875-.36-1.11m0 0"/><path id="e" d="M.75-4.453c-.812-.469-1.703-.234-2.219.64-.265.47-.265.891-.234 1.094L-2-2.89l-.578 1.094.281.172c.219-.375.25-.422.5-.281L1.266-.141l-.25.422.297.172.421-.781.47-.75-.298-.172-.25.422-1.14-.656c.375-.141.609-.375.75-.625.53-.922.328-1.86-.516-2.344m-.453.797c.86.5.937 1.078.703 1.484-.047.094-.219.375-.703.469-.125.016-.125.016-.25-.047L-1.25-2.5c-.11-.062-.11-.094-.14-.219-.11-.375.046-.719.124-.86.235-.405.782-.53 1.563-.077m0 0"/><path id="f" d="M-.5-5.375a.48.48 0 0 0-.656.188c-.063.109-.219.437-.172.89-.156.078-.453.281-.75.781-.563 1-.25 1.672.219 1.954.297.156.656.187.937.046.125.329.328.516.453.594.11.063.469.219.86.063-.047.109-.188.687.25.937.343.203 1.078.125 1.859-1.25.703-1.203.61-1.969.125-2.25-.203-.125-.672-.312-1.156.016-.407.265-.657.687-1.031 1.328-.094.187-.282.5-.297.531a.515.515 0 0 1-.657.125.6.6 0 0 1-.203-.187c.36-.22.563-.563.657-.75C.5-3.33.203-4-.297-4.281a1.02 1.02 0 0 0-.797-.11 1.4 1.4 0 0 1 .11-.5.6.6 0 0 0 .14.11c.156.093.344.047.453-.125.094-.172.047-.375-.109-.469m-.234 1.844c.312.172.78.437.437 1.031-.344.61-.812.344-1.125.172-.297-.172-.75-.438-.406-1.047.344-.594.797-.328 1.094-.156m3.047.719c.234.14.453.593-.063 1.484-.469.828-.969.984-1.281.797-.406-.235-.172-.656-.11-.75l.47-.813c.109-.203.562-.969.984-.719m0 0"/><path id="A" d="M-2.469-5.406c-.297-.157-.75-.11-1.062.437-.375.657-.516 1.578.265 2.032l.688.39-.297.516.328.187.297-.515L.125-.984l-.266.468.329.188.468-.875c.14-.266.39-.688.578-.938l-.328-.187-.343.594-2.375-1.375.453-.782-.328-.187-.485.828-.687-.39c-.766-.438-.516-.985-.407-1.157.016-.031.032-.078.079-.11 0 .141.109.266.234.329.297.172.562.031.656-.156.125-.22.11-.5-.172-.672m0 0"/><path id="g" d="m2.547-4.422-.344-.187-.281.5L.078-5.187c-.765-.438-1.281-.204-1.687.515-.407.688-.22 1.297.03 1.688l-.765-.438L-3-2.156l.344.187c.25-.437.281-.5.562-.328L.125-1.016l-.281.5.344.188.484-.922.562-.89-.343-.188-.297.5-1.5-.875c-.781-.453-.781-1.281-.516-1.719.14-.25.375-.297.938.016l1.922 1.125-.282.484.344.188.5-.922Zm0 0"/><path id="B" d="M-2.594-5.687c-.297-.172-.781-.094-1.094.453-.421.718-.546 1.672.266 2.14l.719.406-.313.547.329.204.312-.547L.141-1.031l-.297.5.344.187.5-.922c.156-.28.421-.734.609-.984l-.344-.187-.375.64-2.515-1.453.484-.844-.328-.203-.5.89L-3-3.811c-.797-.47-.562-1.063-.453-1.235a.3.3 0 0 1 .078-.125c.016.156.125.281.266.36a.476.476 0 0 0 .687-.157c.125-.218.125-.547-.172-.718m0 0"/><path id="h" d="M.703-5.047c-1-.578-2.172-.312-2.875.906-.719 1.235-.344 2.36.656 2.938.954.547 2.079.312 2.813-.953.734-1.266.344-2.344-.594-2.89m-.64.922c.671.39 1.484.86.937 1.813-.562.968-1.375.5-2.047.109-.344-.188-.719-.406-.89-.703-.204-.281-.188-.703.03-1.078.188-.313.485-.563.845-.578.359 0 .765.234 1.125.437m0 0"/><path id="C" d="M1.281-4.234c-.14-.079-.234.078-.25.109-.078.125-.047.156.047.266.266.375.266.937-.016 1.437-.609 1.063-1.64.5-2.03.266L.358-4.437c.094-.172.141-.25-.062-.36-.219-.14-.813-.406-1.406-.234-.422.11-.797.437-1.094.953-.703 1.219-.297 2.312.64 2.844 1.016.593 2.188.25 2.875-.953.704-1.204.094-1.985-.03-2.047m-1.437.125-1.047 1.812c-.281-.187-.594-.375-.766-.687a.94.94 0 0 1 .032-.938c.5-.875 1.5-.328 1.78-.187m0 0"/><path id="i" d="m1.328-2.312-.36-.204-.312.547-5.125-2.953-.75 1.438.375.218c.297-.5.328-.562.64-.39L.173-1.125l-.328.563.36.203.53-1Zm0 0"/><path id="D" d="M1.25-4.312c-.125-.063-.187.046-.234.14-.079.125-.047.156.015.25.39.5.328.953.094 1.36-.64 1.093-1.812.421-2.172.218-.437-.25-1.469-.844-.875-1.86.156-.28.266-.405.344-.5a.7.7 0 0 0 .266.376c.359.203.656 0 .78-.219.141-.234.141-.594-.202-.781-.672-.39-1.25.5-1.516.969-.828 1.422-.25 2.53.656 3.047 1.063.609 2.235.296 2.938-.922.75-1.282-.032-2.047-.094-2.078m0 0"/><path id="j" d="M2.438-4.687c-.188-.11-.25 0-.313.109-.297.5-.406.437-.594.328L-.25-5.281c-.734-.422-1.625-.14-2.328 1.093-.281.47-.813 1.485-.094 1.907.36.203.688.015.813-.203.156-.266.125-.61-.22-.813a.6.6 0 0 0-.5-.062c.079-.266.22-.532.282-.625.36-.625.875-.703 1.5-.344l.281.156c-.312.594-1.453 2.75-.25 3.438.797.468 1.532-.485 1.86-1.047.375-.657.281-1.25.015-1.625.266.14.641.36 1.141-.5l.234-.39c.094-.188.157-.282-.046-.391M.516-3.562c.797.453.468 1.265.359 1.468-.25.438-.734.594-1.094.39-.89-.515-.25-1.89-.047-2.312Zm0 0"/><path id="E" d="M.781-3.75.344-4l-.219.375.422.25c.578.328.61.719.484.953-.281.469-.812.156-1 .047L-2.25-3.687l.703-1.204-.39-.218-.704 1.203-1.578-.922-.218.39c.812.5 1.406 1.375.953 2.204l.297.172.39-.688L-.53-1.437c.875.5 1.484-.094 1.812-.688.375-.625.11-1.266-.5-1.625m0 0"/><path id="k" d="M.89-4.453C.5-4.687.079-4.672-.343-4.5c-.468.203-.687.453-1.203 1.094-.25.281-.687.828-1.11.578-.562-.328-.077-1.172.016-1.344.391-.687.86-.86 1.36-.625.156.063.203.094.312-.094.125-.218.078-.25-.125-.359l-.718-.422c-.172-.094-.266-.14-.36.031-.015.016-.031.047-.047.5-.265.157-.5.438-.719.813-.156.266-.953 1.64.235 2.312.36.22.719.172.969.079.515-.172.78-.485 1.28-1.11.25-.297.767-.875 1.282-.578.688.39.203 1.203.094 1.39-.547.97-1.344.829-1.797.72-.14-.048-.172.015-.25.124-.125.22-.062.25.14.375l.97.563c.171.094.25.14.343-.016C.375-.53.375-.547.36-.812l-.015-.313c.515-.266.781-.719.89-.922.157-.265.97-1.656-.343-2.406m0 0"/><path id="l" d="m.906-4.25-.5-.281-.265.453.484.281c.625.36.688.797.547 1.047-.313.547-.922.188-1.14.063l-2.563-1.485.781-1.36-.453-.25-.781 1.36-1.782-1.031L-5.03-5c.937.531 1.593 1.531 1.093 2.469l.344.187.438-.75L-.61-1.609c1 .578 1.672-.125 2.062-.797.406-.719.14-1.438-.547-1.844m0 0"/><path id="G" d="M2.75-5.297c-.203-.125-.281 0-.344.125-.344.563-.453.484-.672.36L-.28-5.97c-.828-.484-1.828-.156-2.625 1.235-.313.53-.922 1.687-.11 2.172.407.234.782 0 .922-.25.172-.297.14-.704-.25-.922-.281-.172-.531-.094-.578-.047.094-.313.266-.625.328-.735.406-.703.985-.78 1.688-.375l.328.188c-.36.672-1.656 3.094-.297 3.875.906.516 1.734-.547 2.11-1.203.421-.735.312-1.406.03-1.828.282.156.72.406 1.282-.563l.265-.453c.11-.187.172-.297-.062-.422M.594-4.03c.89.515.531 1.437.39 1.687-.28.469-.812.64-1.218.406-1.016-.593-.313-2.14-.063-2.609Zm0 0"/><path id="m" d="M1.531-5.297c-.125-.078-.203.063-.25.156-.11.172-.093.204 0 .329.469.593.375 1.171.094 1.656-.781 1.36-2.219.531-2.656.281-.547-.312-1.797-1.047-1.063-2.312.188-.329.297-.485.406-.579a.74.74 0 0 0 .344.454c.422.25.797 0 .953-.25a.674.674 0 0 0-.265-.954c-.828-.484-1.531.594-1.86 1.157-1 1.75-.312 3.109.813 3.765C-.656-.859.78-1.25 1.64-2.75c.906-1.562-.032-2.5-.11-2.547m0 0"/><path id="H" d="m1.64-2.844-.452-.265-.391.672-6.281-3.625-.907 1.765.454.266c.343-.61.375-.672.765-.453l5.36 3.093-.375.672.453.266.656-1.219Zm0 0"/><path id="n" d="M1.703-5.656c-.187-.11-.312.093-.328.14-.11.172-.062.22.047.375.375.5.36 1.266-.016 1.907-.812 1.422-2.156.656-2.672.359L.5-5.922c.125-.219.188-.328-.094-.484-.312-.172-1.094-.532-1.875-.313-.593.157-1.078.594-1.468 1.282-.938 1.609-.391 3.078.859 3.812 1.344.766 2.89.328 3.828-1.297.922-1.594.125-2.64-.047-2.734m-1.922.187-1.39 2.407c-.375-.266-.797-.5-1.016-.922-.234-.47-.11-.953.063-1.25.671-1.172 2-.422 2.343-.235m0 0"/><path id="I" d="M.953-6.719C-.407-7.5-1.953-7.156-2.89-5.516c-.953 1.641-.453 3.157.891 3.922 1.234.719 2.734.422 3.719-1.265.968-1.703.468-3.141-.766-3.86M.11-5.5c.86.5 1.954 1.14 1.22 2.422-.75 1.281-1.845.64-2.704.14-.469-.265-.984-.562-1.203-.921-.266-.407-.235-.953.062-1.453.235-.422.641-.75 1.11-.766.468-.016 1.031.297 1.515.578m0 0"/><path id="o" d="M-3.766-8.234c-.421-.25-1.125-.157-1.593.656-.594 1.031-.797 2.406.375 3.078l1.062.61-.453.78.484.282.454-.781L.219-1.5l-.422.719L.28-.5l.735-1.328c.218-.39.609-1.063.859-1.422l-.484-.281-.532.906-3.656-2.11.703-1.202-.484-.282-.735 1.266-1.062-.61c-1.125-.656-.781-1.5-.625-1.75.031-.062.063-.109.11-.171a.77.77 0 0 0 .39.515c.453.266.86.016 1.016-.25a.71.71 0 0 0-.282-1.015m0 0"/><path id="J" d="m3.703-6.406-.484-.282-.422.72L.094-7.532C-1-8.156-1.75-7.828-2.344-6.797c-.578 1.016-.297 1.906.078 2.484l-1.14-.656-.922 1.844.484.281c.375-.64.422-.719.828-.484l3.22 1.86-.423.718.485.281L1-1.797l.781-1.297-.484-.281-.406.719-2.188-1.25c-1.125-.656-1.125-1.86-.75-2.5.203-.36.547-.453 1.344 0l2.812 1.625-.406.718.484.282.72-1.328Zm0 0"/><path id="p" d="M-3.89-8.516c-.454-.265-1.157-.171-1.657.672-.61 1.063-.828 2.485.39 3.188l1.079.625-.469.812.516.297.468-.812L.22-1.547l-.422.75.5.281.75-1.375c.234-.406.64-1.109.89-1.484l-.5-.281-.546.953-3.782-2.188.72-1.25-.517-.296-.75 1.296-1.078-.625c-1.187-.687-.812-1.546-.656-1.812.031-.047.063-.11.125-.188a.8.8 0 0 0 .39.563.75.75 0 0 0 1.048-.266c.187-.328.156-.797-.282-1.047m0 0"/><path id="K" d="M-.812-8.484a.74.74 0 0 0-1.016.312c-.094.156-.36.688-.25 1.39-.235.11-.735.438-1.203 1.235-.89 1.563-.375 2.625.36 3.063.452.25 1.015.297 1.468.109.203.516.516.781.75.906.156.094.719.36 1.297.125C.563-1.187.344-.28 1.016.11c.547.313 1.687.204 2.937-1.953 1.11-1.906.953-3.125.188-3.562-.313-.188-1.047-.485-1.828.031-.641.422-1.016 1.078-1.626 2.11-.156.28-.437.78-.484.828a.8.8 0 0 1-1.016.203c-.109-.063-.265-.188-.296-.313.547-.36.859-.875 1.015-1.156.907-1.547.422-2.64-.343-3.078-.5-.297-1-.219-1.282-.157.016-.437.11-.671.172-.78.063.046.14.124.203.155.282.157.578.079.735-.187a.52.52 0 0 0-.203-.734m-.329 2.922c.485.28 1.22.703.672 1.64-.547.953-1.281.531-1.765.25-.485-.281-1.203-.703-.657-1.656.547-.938 1.266-.516 1.75-.234m4.782 1.125c.375.218.734.968-.079 2.375-.75 1.296-1.546 1.53-2.046 1.25-.641-.375-.25-1.063-.172-1.204l.734-1.28c.188-.313.89-1.532 1.563-1.142m0 0"/><path id="q" d="M1.875-6.25c-.203-.11-.328.094-.36.156-.109.188-.062.235.079.39.39.563.39 1.391-.032 2.11-.906 1.578-2.406.735-2.968.406L.53-6.562c.14-.25.203-.344-.094-.516-.343-.188-1.187-.61-2.078-.375-.625.187-1.171.656-1.609 1.437-1.031 1.782-.437 3.407.953 4.22 1.485.859 3.203.359 4.235-1.438C2.968-5 2.063-6.141 1.875-6.25m-2.11.188-1.53 2.671c-.438-.265-.891-.562-1.126-1.015a1.44 1.44 0 0 1 .032-1.39c.75-1.298 2.234-.485 2.625-.266m0 0"/><path id="r" d="m1.14-5.375-.624-.36-.313.548.594.343c.812.469.875 1.016.672 1.344-.39.688-1.14.25-1.422.094l-3.266-1.89 1-1.72-.562-.312-1 1.719-2.266-1.313-.328.563C-5.187-5.656-4.359-4.406-5-3.22l.438.25.562-.969 3.234 1.876c1.282.734 2.125-.172 2.61-1C2.375-3.97 2-4.875 1.14-5.376m0 0"/><path id="M" d="M3.5-6.719c-.281-.156-.36 0-.453.157-.422.703-.578.625-.86.453L-.358-7.58c-1.047-.609-2.313-.202-3.328 1.563-.391.672-1.188 2.141-.157 2.75.531.297 1 .032 1.188-.296.219-.36.187-.891-.328-1.172-.344-.203-.672-.125-.735-.094.14-.375.344-.766.422-.906.516-.891 1.25-1.016 2.156-.5L-.734-6c-.453.875-2.078 3.938-.36 4.938 1.125.656 2.188-.688 2.657-1.516.546-.953.39-1.766.046-2.344.375.219.922.531 1.625-.687l.329-.578c.14-.22.218-.375-.063-.532M.75-5.14c1.14.657.672 1.86.5 2.157-.36.609-1.031.843-1.562.53-1.282-.733-.375-2.702-.063-3.327Zm0 0"/><path id="s" d="m4.125-7.14-.562-.329-.5.86-3.625.656-.766-2.36c-.078-.25-.125-.374.469-1.39l-.578-.328-.625 1.14-.75 1.25.578.329a.86.86 0 0 1 .375-.407c.03.094.062.11.078.172l.547 1.703-2.078.375.28-.484-.577-.328-.813 1.5-.812 1.328.578.328.5-.86 3.343-.609.86 2.625c.14.344-.125.782-.453 1.375l.562.328.594-1.14.781-1.25-.562-.328c-.125.218-.344.422-.406.375 0 0-.032-.016-.079-.141l-.656-1.969 2.39-.422-.28.47.562.327.797-1.484Zm0 0"/><path id="N" d="m1.172-5.547-.656-.375-.328.578.625.36c.843.484.906 1.047.703 1.39-.407.703-1.172.25-1.453.094l-3.375-1.953 1.03-1.781-.577-.328-1.032 1.78-2.328-1.343-.328.578c1.203.703 2.063 2 1.39 3.25l.454.25.578-1.015 3.344 1.937c1.312.75 2.187-.172 2.687-1.031.532-.922.157-1.875-.734-2.39m0 0"/><path id="t" d="M2.11-7.047c-.235-.14-.36.078-.407.156-.125.204-.078.282.094.454.453.64.422 1.578-.047 2.39-1.016 1.766-2.687.828-3.344.453L.61-7.39c.157-.28.22-.39-.109-.593-.406-.22-1.344-.688-2.344-.407-.734.188-1.328.72-1.843 1.61-1.157 2-.47 3.843 1.093 4.75 1.672.969 3.625.406 4.797-1.61 1.14-1.984.11-3.28-.094-3.406m-2.376.219-1.734 3c-.484-.328-1-.64-1.266-1.125a1.67 1.67 0 0 1 .032-1.578c.859-1.485 2.53-.547 2.968-.297m0 0"/><path id="O" d="m4.469-7.734-.594-.344-.5.86L.109-9.095c-1.312-.765-2.187-.375-2.921.89-.704 1.22-.344 2.282-.032 2.845v.015l-4.281-2.468-1.187 2.265.609.344c.453-.797.5-.875.984-.594L.234-1.78l-.5.875.594.344.86-1.61.968-1.562-.594-.344-.5.86-2.625-1.516c-1.374-.782-1.359-2.22-.906-3.016.25-.422.672-.531 1.625.016l3.39 1.953-.5.86.595.343.859-1.594Zm0 0"/><path id="u" d="m1.234-5.86-.671-.39-.344.61.656.374c.875.516.938 1.094.719 1.454-.438.765-1.25.28-1.547.109l-3.578-2.063 1.094-1.906-.594-.344-1.094 1.907-2.484-1.422-.344.593c1.297.766 2.203 2.125 1.5 3.438l.469.266.609-1.063L-.828-2.25c1.39.813 2.328-.172 2.86-1.094.562-.969.155-1.969-.798-2.515m0 0"/><path id="P" d="M-6.312-8.016c-.5-.28-1.188-.062-1.516.485-.313.562-.156 1.265.344 1.547.078.046.109.062.25.125l5.078 2.047c.344.14.375.14.531-.141.14-.235.14-.297-.094-.469l-4.437-3.484ZM.875-3.859c-.547-.328-1.266-.11-1.594.437a1.166 1.166 0 0 0 .422 1.578c.563.328 1.281.14 1.594-.422a1.16 1.16 0 0 0-.422-1.593m0 0"/><path id="z" d="M1.094-3.625c-.125-.062-.203.047-.219.078-.062.11-.031.14.047.25C1.14-3 1.14-2.5.906-2.078c-.531.906-1.39.422-1.719.234L.313-3.797C.39-3.937.438-4 .266-4.094c-.203-.125-.72-.36-1.22-.218-.359.093-.687.375-.952.828-.594 1.03-.25 1.984.547 2.437.89.516 1.89.203 2.5-.828.593-1.031.046-1.687-.047-1.75m-1.235.11-.89 1.546c-.25-.156-.516-.328-.64-.578a.79.79 0 0 1 .015-.797c.437-.765 1.281-.297 1.515-.172m0 0"/><path id="F" d="M.86-4.266c-.376-.218-.766-.218-1.188-.062-.453.187-.656.453-1.172 1.031-.234.297-.64.797-1.047.563-.547-.313-.094-1.11 0-1.266.375-.656.813-.828 1.328-.594.125.063.188.063.282-.11.125-.202.078-.218-.125-.343l-.688-.39c-.156-.094-.234-.141-.328 0-.016.046-.031.062-.063.5-.25.156-.468.421-.656.765-.156.266-.922 1.594.203 2.25.344.188.672.156.922.063.484-.172.75-.485 1.25-1.063.235-.281.703-.86 1.219-.562.656.375.203 1.172.094 1.359-.532.922-1.297.75-1.735.656-.125-.031-.156.016-.219.125-.125.219-.078.25.11.36L0-.437c.156.093.234.14.328-.016C.36-.516.36-.531.344-.797l-.031-.281c.515-.25.78-.703.875-.875.156-.281.921-1.594-.329-2.313m0 0"/><path id="L" d="M1.406-8.39c-1.515-.876-3.218-.454-4.172 1.218-.5.844-.484 1.672-.421 2.047l-.579-.328-1.093 2.094.547.312c.421-.719.468-.797.921-.531L2.391-.25l-.47.797.548.312.797-1.468.89-1.438-.547-.312-.468.797L1-2.782c.703-.265 1.094-.718 1.375-1.187.984-1.719.656-3.484-.969-4.422m-.86 1.484c1.626.937 1.767 2.078 1.329 2.828-.094.156-.406.687-1.297.875-.234.031-.25.031-.469-.094l-2.437-1.422c-.219-.125-.219-.14-.297-.39-.187-.735.078-1.375.219-1.625.453-.782 1.515-1 2.953-.172m0 0"/></defs><use xlink:href="#a" x="3.831" y="105.329"/><use xlink:href="#b" x="4.775" y="103.693"/><use xlink:href="#c" x="6.632" y="100.477"/><use xlink:href="#d" x="8.024" y="98.067"/><use xlink:href="#e" x="9.88" y="94.851"/><use xlink:href="#f" x="13.565" y="88.468"/><use xlink:href="#g" x="15.833" y="84.541"/><use xlink:href="#h" x="18.485" y="79.946"/><use xlink:href="#i" x="20.991" y="75.606"/><use xlink:href="#j" x="22.448" y="73.083"/><use xlink:href="#k" x="27.024" y="65.156"/><use xlink:href="#l" x="29.38" y="61.076"/><use xlink:href="#m" x="31.792" y="56.898"/><use xlink:href="#n" x="34.656" y="51.938"/><use xlink:href="#o" x="37.718" y="46.634"/><use xlink:href="#p" x="39.831" y="42.975"/><use xlink:href="#q" x="42.016" y="39.189"/><use xlink:href="#r" x="47.951" y="28.91"/><use xlink:href="#s" x="51.012" y="23.608"/><use xlink:href="#t" x="55.295" y="16.188"/><use xlink:href="#u" x="59.124" y="9.558"/><use xlink:href="#v" x="90.778" y="3.829" fill="#00F"/><use xlink:href="#w" x="89.247" y="6.481" fill="#00F"/><use xlink:href="#x" x="87.357" y="9.754" fill="#00F"/><use xlink:href="#y" x="85.873" y="12.325" fill="#00F"/><use xlink:href="#z" x="82.553" y="18.076" fill="#00F"/><use xlink:href="#A" x="81.169" y="20.473" fill="#00F"/><use xlink:href="#B" x="79.712" y="22.997" fill="#00F"/><use xlink:href="#C" x="77.415" y="26.975" fill="#00F"/><use xlink:href="#D" x="75.082" y="31.017" fill="#00F"/><use xlink:href="#E" x="72.948" y="34.712" fill="#00F"/><use xlink:href="#F" x="70.687" y="38.629" fill="#00F"/><use xlink:href="#G" x="65.683" y="47.296" fill="#00F"/><use xlink:href="#H" x="63.895" y="50.393" fill="#00F"/><use xlink:href="#I" x="60.554" y="56.18" fill="#00F"/><use xlink:href="#J" x="56.708" y="62.842" fill="#00F"/><use xlink:href="#K" x="53.127" y="69.043" fill="#00F"/><use xlink:href="#L" x="46.419" y="80.662" fill="#00F"/><use xlink:href="#M" x="42.591" y="87.294" fill="#00F"/><use xlink:href="#N" x="39.436" y="92.757" fill="#00F"/><use xlink:href="#O" x="34.795" y="100.797" fill="#00F"/><use xlink:href="#P" x="32.179" y="105.327" fill="#00F"/></svg>