<svg xmlns="http://www.w3.org/2000/svg" width="100.77" height="112.142"><defs><clipPath id="a"><path d="M30 82h41v29.715H30Zm0 0"/></clipPath></defs><path fill="#CCF" stroke="#7F7FFF" stroke-miterlimit="10" stroke-width=".797" d="M58.773 9.492c0-4.699-3.808-8.504-8.503-8.504a8.503 8.503 0 0 0-8.504 8.504 8.506 8.506 0 0 0 8.504 8.504 8.506 8.506 0 0 0 8.503-8.504ZM58.773 55.645c0-4.7-3.808-8.504-8.503-8.504a8.503 8.503 0 0 0-8.504 8.504 8.506 8.506 0 0 0 8.504 8.503 8.506 8.506 0 0 0 8.503-8.503Zm0 0"/><path fill="#CCF" d="M58.773 101.793a8.506 8.506 0 0 0-8.503-8.504 8.506 8.506 0 0 0-8.504 8.504c0 4.7 3.808 8.504 8.504 8.504a8.503 8.503 0 0 0 8.503-8.504m0 0"/><g clip-path="url(#a)"><path fill="none" stroke="#7F7FFF" stroke-miterlimit="10" stroke-width=".797" d="M58.773 101.793a8.506 8.506 0 0 0-8.503-8.504 8.506 8.506 0 0 0-8.504 8.504c0 4.7 3.808 8.504 8.504 8.504a8.503 8.503 0 0 0 8.503-8.504Zm0 0"/></g><path fill="#CCC" stroke="#7F7F7F" stroke-miterlimit="10" stroke-width=".797" d="M87.918 61.313h11.34v-11.34h-11.34ZM1.285 61.313h11.336v-11.34H1.285Zm0 0"/><path fill="none" stroke="#000" stroke-miterlimit="10" stroke-width=".399" d="M13.02 55.645h27.949"/><path fill="none" stroke="#000" stroke-linecap="round" stroke-linejoin="round" stroke-miterlimit="10" stroke-width=".399" d="M39.098 53.25c.375 1.438 1.218 2.113 2.07 2.395-.852.277-1.695.953-2.07 2.39"/><path fill="none" stroke="#000" stroke-miterlimit="10" stroke-width=".399" d="M41.367 9.492c-13.664 0-34.086 23.102-34.41 39.688"/><path fill="none" stroke="#000" stroke-linecap="round" stroke-linejoin="round" stroke-miterlimit="10" stroke-width=".399" d="M9.344 47.305c-1.434.379-2.114 1.222-2.39 2.07-.278-.848-.958-1.691-2.391-2.07"/></svg>