<svg xmlns="http://www.w3.org/2000/svg" xmlns:xlink="http://www.w3.org/1999/xlink" width="30.098" height="26.516"><defs><path id="b" d="M4.688-4.344C4.172-5.578 2.968-6.078 1.64-5.53A2.4 2.4 0 0 0 .453-4.516l-.187-.437-1.61.734.188.438c.562-.235.64-.266.781.078L1.547.953l-.64.266.171.437 1.156-.515L3.391.703 3.219.266l-.64.25-.72-1.72c.547.157 1 .095 1.375-.062 1.391-.578 1.97-1.812 1.454-3.078m-1.188.5c.531 1.297.094 2.031-.5 2.282-.14.046-.562.234-1.203-.094-.156-.078-.156-.094-.234-.266L.766-3.875c-.079-.172-.063-.187.015-.36.203-.53.672-.796.875-.874.61-.25 1.36.093 1.844 1.265m0 0"/><path id="c" d="M3.625-5.781C3.531-6 3.25-6.25 2.828-6.078c-.14.062-.562.266-.844.75-.203-.047-.671-.063-1.343.219C-.687-4.562-.906-3.641-.641-3c.157.375.485.703.891.781-.125.422-.062.75.016.938.046.14.28.578.765.718C.938-.5.328-.015.563.563c.203.468 1.015.953 2.843.187 1.625-.672 2.14-1.5 1.875-2.156-.125-.266-.437-.813-1.187-.875-.625-.047-1.172.172-2.047.547-.25.093-.672.265-.735.265-.421.11-.671-.187-.75-.36a.64.64 0 0 1-.015-.343c.5.047.984-.125 1.219-.219 1.328-.562 1.53-1.484 1.265-2.125-.172-.437-.531-.64-.734-.734.203-.25.406-.36.5-.406-.016.047.015.156.031.203.094.234.328.328.578.219.235-.094.313-.328.219-.547M2-4.094c.172.407.438 1.032-.36 1.375C.829-2.39.564-3.016.39-3.422.22-3.828-.03-4.453.782-4.782c.797-.343 1.047.282 1.219.688m2.484 3.047c.141.344-.015.969-1.218 1.469C2.172.875 1.53.64 1.359.219c-.234-.563.344-.797.485-.844l1.078-.453c.281-.125 1.328-.547 1.562.031m0 0"/><path id="d" d="M1.688-7.312c-.157-.391-.657-.672-1.391-.375-.89.375-1.734 1.171-1.297 2.203l.39.953-.687.297.172.422.688-.297L.906-.891l-.625.266.172.438 1.14-.5c.345-.157.938-.391 1.282-.5l-.172-.438-.797.328L.563-4.516l1.046-.437-.171-.422-1.11.453-.39-.953c-.422-1 .25-1.375.468-1.469.047-.015.11-.047.188-.031-.125.172-.11.36-.047.531.172.39.562.438.797.344.265-.125.5-.437.343-.812m0 0"/><clipPath id="a"><path d="M0 0h29.648v26.273H0Zm0 0"/></clipPath></defs><g clip-path="url(#a)"><path fill="none" stroke="#00F" stroke-miterlimit="10" stroke-width="1.1959402" d="m7.32 24.484 20.54-8.507-5.977-14.43-20.54 8.508Zm0 0"/></g><use xlink:href="#b" x="8.352" y="18.296"/><use xlink:href="#c" x="14.233" y="15.86"/><use xlink:href="#d" x="19.526" y="13.668"/></svg>