<svg xmlns="http://www.w3.org/2000/svg" width="87.428" height="59.114"><defs><clipPath id="a"><path d="M0 0h87.14v58.672H0Zm0 0"/></clipPath></defs><path fill="none" stroke="#7F7F7F" stroke-miterlimit="10" stroke-width=".199" d="M.89 57.469h85.044M.89 29.12h85.043M.89.785h85.043M.89 57.47V.773M29.238 57.47V.773M57.586 57.47V.773M85.922 57.47V.773"/><g fill="none" stroke-miterlimit="10" stroke-width=".399" clip-path="url(#a)"><path stroke="#00F" stroke-dasharray="2.98883 2.98883" d="M85.934 29.121c0-15.656-19.04-28.348-42.52-28.348C19.93.773.891 13.465.891 29.121S19.93 57.47 43.414 57.47c23.48 0 42.52-12.692 42.52-28.348Zm0 0"/><path stroke="#000" d="M57.074 11.254c-1.55-5.79-7.668-10.48-13.66-10.48s-12.11 4.69-13.66 10.48c-2.961-3.957-9.082-5.684-13.672-3.848-4.59 1.832-7.84 7.301-7.258 12.207-2.984-.277-6.242 1.774-7.285 4.582-1.039 2.809.098 6.496 2.54 8.227-1.61 3.531-.485 8.398 2.51 10.867 2.997 2.473 7.99 2.648 11.15.395.515 5.691 5.5 11.097 11.128 12.074 5.633.972 12.145-2.438 14.547-7.625 2.398 5.187 8.91 8.601 14.54 7.625 5.632-.977 10.616-6.383 11.132-12.074 3.16 2.254 8.152 2.078 11.148-.391s4.121-7.34 2.512-10.871c2.442-1.73 3.578-5.414 2.54-8.223-1.04-2.808-4.302-4.863-7.286-4.586.582-4.906-2.668-10.375-7.258-12.207s-10.71-.11-13.668 3.848Zm0 0"/></g></svg>