<svg xmlns="http://www.w3.org/2000/svg" xmlns:xlink="http://www.w3.org/1999/xlink" width="105.374" height="62.84"><defs><path id="b" d="M8.25 0v-.469h-.969L4.72-6.703c-.11-.25-.219-.25-.39-.25-.282 0-.329.078-.391.25l-2.47 6c-.062.156-.093.234-.843.234H.406V0l1.172-.031c.39 0 .938 0 1.313.031v-.469S2-.469 2-.594l.047-.125.5-1.203h2.672l.593 1.453H4.86V0c.391-.031 1.329-.031 1.766-.031.39 0 1.266 0 1.625.031M5.016-2.39H2.734l1.141-2.766Zm0 0"/><path id="c" d="M7.5-1.86c0-.952-.844-1.624-2.031-1.702 1.078-.204 1.718-.797 1.718-1.563 0-.922-.875-1.719-2.468-1.719H.39v.469h1.078v5.906H.39V0h4.625C6.672 0 7.5-.875 7.5-1.86M5.766-5.124c0 .766-.47 1.39-1.438 1.39H2.766v-2.64h1.812c1.016 0 1.188.797 1.188 1.25m.28 3.266c0 .109 0 1.39-1.437 1.39H2.766v-2.906h1.937c.203 0 .672 0 1.016.422.328.422.328.984.328 1.094m0 0"/><clipPath id="a"><path d="M0 0h105.063v62.762H0Zm0 0"/></clipPath></defs><path fill="#D2C92A" d="M2.766 59.691C.273 42.684.273 20.004 2.766 2.996 32.53.508 72.215.508 101.98 2.996c2.489 17.008 2.489 39.688 0 56.695-29.765 2.493-69.449 2.493-99.214 0"/><g clip-path="url(#a)"><path fill="none" stroke="#000" stroke-miterlimit="10" stroke-width=".399" d="M2.766 59.691C.273 42.684.273 20.004 2.766 2.996 32.53.508 72.215.508 101.98 2.996c2.489 17.008 2.489 39.688 0 56.695-29.765 2.493-69.449 2.493-99.214 0"/></g><path fill="none" stroke="#000" stroke-miterlimit="10" stroke-width=".399" d="M27.137 45.52c0-5.637-4.567-10.2-10.2-10.2S6.739 39.883 6.739 45.52c0 5.632 4.567 10.199 10.2 10.199s10.199-4.567 10.199-10.2Zm0 0"/><use xlink:href="#b" x="12.609" y="48.995"/><path fill="none" stroke="#000" stroke-miterlimit="10" stroke-width=".399" d="M97.82 17.172c0-5.535-4.484-10.02-10.015-10.02s-10.016 4.485-10.016 10.02c0 5.531 4.484 10.016 10.016 10.016 5.53 0 10.015-4.485 10.015-10.016Zm0 0"/><use xlink:href="#c" x="83.73" y="20.588"/><path fill="none" stroke="#000" stroke-miterlimit="10" stroke-width=".399" d="M26.594 41.656c14.468-8.449 34.941-16.66 51.312-20.59"/><path fill="none" stroke="#000" stroke-linecap="round" stroke-linejoin="round" stroke-miterlimit="10" stroke-width=".39898005000000003" d="M75.531 19.172c.7 1.308 1.676 1.773 2.57 1.851-.765.465-1.43 1.32-1.468 2.801"/><path fill="none" stroke="#000" stroke-miterlimit="10" stroke-width=".399" d="M78.32 20.965c-14.472 8.45-34.941 16.66-51.316 20.59"/><path fill="none" stroke="#000" stroke-linecap="round" stroke-linejoin="round" stroke-miterlimit="10" stroke-width=".39898005000000003" d="M29.379 43.45c-.695-1.31-1.676-1.774-2.567-1.852.762-.465 1.43-1.32 1.465-2.805"/></svg>