<svg xmlns="http://www.w3.org/2000/svg" xmlns:xlink="http://www.w3.org/1999/xlink" width="216.47" height="112.394"><defs><path id="a" d="M3.89-2.547c0-.844-.078-1.36-.343-1.875-.344-.703-1-.875-1.438-.875-1 0-1.375.75-1.484.969C.344-3.75.328-2.953.328-2.547c0 .531.016 1.328.406 1.969.36.594.954.75 1.375.75.391 0 1.063-.125 1.47-.906.296-.578.312-1.297.312-1.813M2.11-.062c-.266 0-.813-.125-.985-.954-.094-.453-.094-1.203-.094-1.625 0-.546 0-1.109.094-1.546.172-.813.781-.891.984-.891.266 0 .829.14.985.86.094.437.094 1.046.094 1.577 0 .47 0 1.188-.094 1.641-.172.828-.719.938-.985.938m0 0"/><path id="c" d="M2.5-5.078c0-.219-.016-.219-.234-.219-.328.313-.75.5-1.5.5v.266c.218 0 .64 0 1.109-.203v4.078c0 .297-.031.39-.781.39H.812V0c.329-.031 1.016-.031 1.376-.031s1.046 0 1.374.031v-.266h-.28c-.75 0-.782-.093-.782-.39Zm0 0"/><path id="d" d="M1.11-4.484c.109.03.421.125.765.125 1 0 1.594-.703 1.594-.828 0-.094-.047-.11-.094-.11-.016 0-.031 0-.094.031a3 3 0 0 1-1.11.22c-.468 0-.858-.11-1.108-.22-.079-.03-.094-.03-.11-.03-.094 0-.094.077-.094.234v2.328c0 .14 0 .234.125.234.063 0 .079-.031.125-.094.094-.11.391-.515 1.079-.515.437 0 .656.359.734.515.125.281.14.656.14.953s0 .735-.218 1.079c-.156.25-.485.484-.906.484A1.27 1.27 0 0 1 .734-.922c.016.016.079.016.079.016.218 0 .406-.14.406-.39a.39.39 0 0 0-.39-.407c-.157 0-.407.078-.407.422 0 .718.625 1.453 1.531 1.453 1 0 1.844-.781 1.844-1.766 0-.922-.672-1.75-1.61-1.75-.39 0-.765.125-1.078.406Zm0 0"/><path id="e" d="M2.016-2.656c.625 0 1.03.453 1.03 1.297 0 1-.562 1.28-.983 1.28-.438 0-1.047-.155-1.329-.577.297 0 .5-.188.5-.438 0-.265-.187-.437-.453-.437-.203 0-.437.125-.437.453 0 .75.812 1.25 1.734 1.25 1.047 0 1.797-.734 1.797-1.531 0-.672-.531-1.266-1.344-1.453.625-.22 1.11-.75 1.11-1.391 0-.64-.72-1.094-1.547-1.094-.86 0-1.5.453-1.5 1.063 0 .297.187.422.406.422.25 0 .406-.172.406-.407 0-.297-.265-.406-.437-.406.344-.437.953-.469 1.094-.469.203 0 .812.063.812.89 0 .548-.234.891-.344 1.016-.234.25-.422.266-.906.297-.156 0-.219.016-.219.125 0 .11.078.11.219.11Zm0 0"/><path id="f" d="M3.14-5.156c0-.157 0-.219-.171-.219-.094 0-.11 0-.188.11L.234-1.564v.25h2.25v.672c0 .297-.015.375-.64.375h-.172V0c.672-.031.687-.031 1.14-.031.454 0 .47 0 1.141.031v-.266h-.172c-.625 0-.64-.078-.64-.375v-.671h.843v-.25h-.843Zm-.593.64v2.954H.516Zm0 0"/><path id="g" d="M1.094-2.64c0-.657.062-1.235.343-1.72.25-.406.657-.734 1.157-.734.156 0 .515.032.703.297-.36.031-.39.297-.39.375 0 .25.187.375.374.375.14 0 .375-.078.375-.39 0-.47-.36-.86-1.078-.86C1.468-5.297.344-4.25.344-2.53.344-.36 1.359.172 2.125.172c.39 0 .797-.11 1.156-.453.328-.313.594-.64.594-1.344 0-1.031-.797-1.766-1.672-1.766-.578 0-.922.36-1.11.75M2.125-.079a.88.88 0 0 1-.797-.516c-.187-.36-.203-.89-.203-1.203 0-.781.422-1.375 1.047-1.375.39 0 .64.203.781.485.172.296.172.656.172 1.062s0 .75-.156 1.047c-.219.36-.485.5-.844.5m0 0"/><path id="h" d="M4.031-4.86c.078-.077.078-.093.078-.265H2.08a9 9 0 0 1-.642-.031c-.421-.032-.421-.11-.453-.235h-.25L.47-3.703h.25c.015-.125.11-.672.219-.735.078-.046.687-.046.796-.046h1.688l-.813 1.109C1.703-2.172 1.5-.906 1.5-.281c0 .078 0 .453.375.453s.375-.36.375-.453v-.39c0-1.141.203-2.079.594-2.61Zm0 0"/><path id="i" d="M3.125-2.344c0 1.938-.922 2.266-1.39 2.266-.173 0-.579-.016-.798-.266.36-.031.375-.297.375-.375a.37.37 0 0 0-.375-.375.37.37 0 0 0-.375.39c0 .548.454.876 1.188.876 1.094 0 2.125-1.094 2.125-2.797 0-2.062-.922-2.672-1.734-2.672-.953 0-1.797.734-1.797 1.781 0 1.016.781 1.766 1.687 1.766.563 0 .906-.36 1.094-.766Zm-1.062.375c-.376 0-.61-.172-.782-.468-.187-.282-.187-.672-.187-1.079 0-.468 0-.796.218-1.125.204-.296.454-.453.829-.453.53 0 .765.532.797.563.156.39.171 1.015.171 1.172 0 .64-.343 1.39-1.046 1.39m0 0"/><path id="j" d="M2.25-1.625c.125-.125.453-.39.594-.5.484-.453.953-.89.953-1.61 0-.953-.797-1.562-1.781-1.562-.97 0-1.594.719-1.594 1.438 0 .39.312.437.422.437.172 0 .422-.11.422-.422 0-.406-.407-.406-.5-.406.234-.594.765-.781 1.156-.781.734 0 1.125.625 1.125 1.297 0 .828-.578 1.437-1.531 2.39l-1 1.047C.422-.219.422-.203.422 0h3.14l.235-1.422h-.25c-.016.156-.078.547-.172.703-.047.063-.656.063-.781.063H1.172Zm0 0"/><path id="k" d="M2.64-2.875c.454-.219 1-.61 1-1.234 0-.766-.78-1.188-1.515-1.188-.844 0-1.531.578-1.531 1.328 0 .297.094.563.297.797.14.172.172.188.656.5C.563-2.234.344-1.656.344-1.219c0 .89.89 1.39 1.765 1.39.97 0 1.766-.671 1.766-1.515 0-.5-.266-.828-.406-.968-.125-.126-.14-.141-.828-.563m-1.234-.75c-.234-.14-.422-.375-.422-.64 0-.5.547-.829 1.125-.829.61 0 1.125.422 1.125.985 0 .453-.359.843-.828 1.078Zm.39 1.094c.032.015.938.578 1.079.656.125.078.547.328.547.813 0 .609-.656.984-1.297.984-.719 0-1.312-.484-1.312-1.14 0-.594.437-1.063.984-1.313m0 0"/><path id="b" d="M3.266-1.5c0-.75-.61-1.36-1.36-1.36-.734 0-1.343.61-1.343 1.36 0 .766.609 1.36 1.343 1.36.75 0 1.36-.594 1.36-1.36M1.906-.453A1.024 1.024 0 0 1 .875-1.5c0-.578.453-1.047 1.031-1.047s1.047.469 1.047 1.047c0 .594-.469 1.047-1.047 1.047m0 0"/></defs><path fill="none" stroke="#7F7F7F" stroke-linecap="round" stroke-miterlimit="10" stroke-width=".399" d="M201.977 101.148h1.992M198.906 77.82l1.922-.515M189.898 56.082l1.727-.996M175.574 37.414l1.41-1.41M156.91 23.09l.996-1.727M135.168 14.086l.516-1.926M111.84 11.012V9.02M88.512 14.086l-.516-1.926M66.773 23.09l-.996-1.727M48.105 37.414l-1.41-1.41M33.781 56.082l-1.726-.996M24.777 77.82l-1.925-.515M21.707 101.148h-1.992M111.84 101.148h0M134.871 101.148h0M157.906 101.148h0M180.938 101.148h0M203.969 101.148h0M134.871 103.14v-3.984M157.906 103.14v-3.984M180.938 103.14v-3.984M203.969 103.14v-3.984M113.832 78.117h-3.984M113.832 55.086h-3.984M113.832 32.055h-3.984M113.832 9.02h-3.984M88.809 99.156v3.985M65.777 99.156v3.985M42.746 99.156v3.985M19.715 99.156v3.985"/><path fill="none" stroke="#7F7F7F" stroke-miterlimit="10" stroke-width=".399" d="M203.969 101.148c0-50.882-41.246-92.128-92.13-92.128-50.878 0-92.124 41.246-92.124 92.128M111.84 101.148h92.129M111.84 101.148V9.02M111.84 101.148H19.715"/><path fill="none" stroke="#000" stroke-miterlimit="10" stroke-width=".598" d="M111.84 101.148s2.777-.125 3.828-.277a32 32 0 0 0 3.77-.836 33 33 0 0 0 3.644-1.379 34 34 0 0 0 3.469-1.91 36 36 0 0 0 3.226-2.422 37 37 0 0 0 2.938-2.91 40 40 0 0 0 2.59-3.36c.66-.992 1.644-2.679 2.191-3.78a43 43 0 0 0 1.75-4.157c.422-1.199.988-3.203 1.27-4.488.277-1.281.613-3.414.742-4.77.133-1.355.219-3.586.191-4.996a56 56 0 0 0-.394-5.172c-.196-1.449-.637-3.808-1.004-5.28a62 62 0 0 0-1.625-5.333 65 65 0 0 0-2.262-5.32 69 69 0 0 0-2.898-5.246 74 74 0 0 0-3.543-5.102c-1.07-1.387-2.93-3.574-4.176-4.894a82 82 0 0 0-4.793-4.618 87 87 0 0 0-5.399-4.28c-1.574-1.13-4.238-2.868-5.968-3.88a98 98 0 0 0-6.516-3.418c-1.879-.875-7.027-2.898-7.027-2.898"/><use xlink:href="#a" x="206.623" y="103.98"/><use xlink:href="#b" x="210.857" y="101.167"/><use xlink:href="#c" x="203.484" y="74.648"/><use xlink:href="#d" x="207.719" y="74.648"/><use xlink:href="#b" x="211.952" y="71.836"/><use xlink:href="#e" x="194.281" y="52.429"/><use xlink:href="#a" x="198.516" y="52.429"/><use xlink:href="#b" x="202.749" y="49.617"/><use xlink:href="#f" x="179.64" y="33.349"/><use xlink:href="#d" x="183.875" y="33.349"/><use xlink:href="#b" x="188.108" y="30.537"/><use xlink:href="#g" x="160.56" y="18.709"/><use xlink:href="#a" x="164.795" y="18.709"/><use xlink:href="#b" x="169.028" y="15.896"/><use xlink:href="#h" x="138.341" y="9.505"/><use xlink:href="#d" x="142.576" y="9.505"/><use xlink:href="#b" x="146.809" y="6.693"/><use xlink:href="#i" x="105.448" y="6.366"/><use xlink:href="#a" x="109.683" y="6.366"/><use xlink:href="#b" x="113.917" y="3.554"/><use xlink:href="#c" x="68.321" y="9.505"/><use xlink:href="#a" x="72.556" y="9.505"/><use xlink:href="#d" x="76.79" y="9.505"/><use xlink:href="#b" x="81.024" y="6.693"/><use xlink:href="#c" x="46.102" y="18.709"/><use xlink:href="#j" x="50.337" y="18.709"/><use xlink:href="#a" x="54.571" y="18.709"/><use xlink:href="#b" x="58.805" y="15.896"/><use xlink:href="#c" x="27.022" y="33.349"/><use xlink:href="#e" x="31.257" y="33.349"/><use xlink:href="#d" x="35.491" y="33.349"/><use xlink:href="#b" x="39.725" y="30.537"/><use xlink:href="#c" x="12.382" y="52.429"/><use xlink:href="#d" x="16.617" y="52.429"/><use xlink:href="#a" x="20.851" y="52.429"/><use xlink:href="#b" x="25.084" y="49.617"/><use xlink:href="#c" x="3.178" y="74.648"/><use xlink:href="#g" x="7.413" y="74.648"/><use xlink:href="#d" x="11.647" y="74.648"/><use xlink:href="#b" x="15.881" y="71.836"/><use xlink:href="#c" x=".039" y="103.98"/><use xlink:href="#k" x="4.274" y="103.98"/><use xlink:href="#a" x="8.508" y="103.98"/><use xlink:href="#b" x="12.742" y="101.167"/><use xlink:href="#a" x="109.724" y="108.941"/><use xlink:href="#j" x="130.638" y="108.941"/><use xlink:href="#d" x="134.873" y="108.941"/><use xlink:href="#d" x="153.669" y="108.941"/><use xlink:href="#a" x="157.904" y="108.941"/><use xlink:href="#h" x="176.701" y="108.941"/><use xlink:href="#d" x="180.936" y="108.941"/><use xlink:href="#c" x="197.615" y="108.941"/><use xlink:href="#a" x="201.85" y="108.941"/><use xlink:href="#a" x="206.084" y="108.941"/><use xlink:href="#j" x="130.638" y="110.933"/><use xlink:href="#d" x="134.873" y="110.933"/><use xlink:href="#d" x="153.669" y="110.933"/><use xlink:href="#a" x="157.904" y="110.933"/><use xlink:href="#h" x="176.701" y="110.933"/><use xlink:href="#d" x="180.936" y="110.933"/><use xlink:href="#c" x="197.615" y="110.933"/><use xlink:href="#a" x="201.85" y="110.933"/><use xlink:href="#a" x="206.084" y="110.933"/><use xlink:href="#j" x="98.724" y="80.685"/><use xlink:href="#d" x="102.959" y="80.685"/><use xlink:href="#d" x="98.724" y="57.654"/><use xlink:href="#a" x="102.959" y="57.654"/><use xlink:href="#h" x="98.724" y="34.622"/><use xlink:href="#d" x="102.959" y="34.622"/><use xlink:href="#c" x="94.49" y="11.591"/><use xlink:href="#a" x="98.725" y="11.591"/><use xlink:href="#a" x="102.959" y="11.591"/><use xlink:href="#j" x="84.575" y="110.933"/><use xlink:href="#d" x="88.81" y="110.933"/><use xlink:href="#d" x="61.544" y="110.933"/><use xlink:href="#a" x="65.779" y="110.933"/><use xlink:href="#h" x="38.513" y="110.933"/><use xlink:href="#d" x="42.748" y="110.933"/><use xlink:href="#c" x="13.364" y="110.933"/><use xlink:href="#a" x="17.599" y="110.933"/><use xlink:href="#a" x="21.833" y="110.933"/></svg>