<svg xmlns="http://www.w3.org/2000/svg" xmlns:xlink="http://www.w3.org/1999/xlink" width="93.861" height="57.17"><defs><path id="b" d="M4.188-.922c0-.156-.157-.156-.22-.156-.14 0-.171.016-.234.14-.25.563-.921.626-1.156.626-1.172 0-1.219-.938-1.234-1.375h2.578c.172 0 .265 0 .265-.235 0-.344-.078-.86-.468-1.25-.453-.453-1.172-.453-1.36-.453-1.406 0-2.093.89-2.093 1.828 0 1.031.797 1.86 2.218 1.86 1.407 0 1.704-.875 1.704-.985M3.406-2H1.344c.015-.312.047-1.297 1.031-1.297S3.406-2.312 3.406-2m0 0"/><path id="c" d="M4.938 0v-.422h-.563L2.969-1.937l1-1.047c.14-.141.375-.141.781-.141v-.406c-.234.015-.594.015-.75.015-.078 0-.531 0-.812-.015v.406c.078 0 .218.031.218.078 0 .016-.062.078-.062.078l-.672.703-.797-.859h.25v-.406c-.469.015-.578.015-.969.015-.14 0-.61 0-.89-.015v.406h.562l1.297 1.406-1.11 1.157C.939-.47.86-.422.36-.422H.22V0c.25-.031.625-.031.765-.031.047 0 .532 0 .813.031v-.422c-.14 0-.188-.031-.234-.062l.875-.907.89.97h-.25V0c.469-.031.578-.031.969-.031.11 0 .61 0 .89.031m0 0"/><path id="d" d="M3.25-.984v-.407h-.453V-1c0 .547-.297.688-.485.688-.468 0-.468-.422-.468-.641v-2.172h1.234v-.406H1.844v-1.531H1.39c0 .796-.407 1.593-1.203 1.609v.328h.687v2.14c0 .829.64 1.047 1.313 1.047.609 0 1.062-.406 1.062-1.046m0 0"/><path id="e" d="M3.75-2.906c0-.438-.437-.688-.906-.688-.672 0-1 .563-1.125.86v-.86l-1.36.063v.422c.485 0 .532 0 .532.297v2.39H.359V0c.47-.031.547-.031 1.032-.031L2.469 0v-.422h-.656v-1.281c0-.625.25-1.531 1.015-1.563 0 0-.125.141-.125.36 0 .328.235.531.531.531a.514.514 0 0 0 .516-.531m0 0"/><path id="f" d="M7.89 0v-.422h-.53v-2c0-.953-.579-1.172-1.313-1.172-.828 0-1.281.485-1.438.735-.187-.625-.734-.735-1.265-.735-.969 0-1.406.64-1.5.813v-.813l-1.39.063v.422c.468 0 .515 0 .515.297v2.39H.453V0c.422-.031.703-.031 1-.031.313 0 .594 0 1.016.031v-.422h-.531v-1.594c0-.89.765-1.25 1.28-1.25.282 0 .47.141.47.766v2.078h-.532V0c.422-.031.703-.031 1.016-.031.312 0 .578 0 1 .031v-.422h-.516v-1.594c0-.89.766-1.25 1.266-1.25.281 0 .469.141.469.766v2.078h-.532V0c.438-.031.72-.031 1.016-.031.313 0 .578 0 1.016.031m0 0"/><path id="g" d="M4.688-.203c0-.219-.125-.219-.235-.219-.5 0-.5-.078-.5-.25v-1.687c0-.72-.562-1.266-1.86-1.266-.39 0-1.53 0-1.53.781 0 .36.265.547.53.547a.53.53 0 0 0 .548-.531c0-.25-.172-.406-.172-.406.062-.016.297-.063.61-.063.624 0 .905.36.905.938v.218c-1.187.016-2.75.282-2.75 1.25 0 .672.766.954 1.641.954.813 0 1.156-.438 1.266-.61 0 .25.093.547.859.547h.422c.156 0 .266 0 .266-.203m-1.704-.89c0 .812-.953.812-.984.812-.422 0-.781-.25-.781-.625 0-.563.734-.906 1.765-.922Zm0 0"/><path id="h" d="M2.453 0v-.422h-.531v-5.11l-1.453.063v.422c.469 0 .531 0 .531.313v4.312H.469V0c.469-.031.547-.031.984-.031.453 0 .531 0 1 .031m0 0"/><path id="i" d="M5.094-1.781c0-.985-.719-1.813-2-1.813-.453 0-.89.125-1.281.375v-.375L.359-3.53v.422c.157 0 .297 0 .391.015.14.031.14.11.14.266v3.953H.36v.422c.437-.031.718-.031 1.015-.031.313 0 .578 0 1.016.03v-.421h-.532V-.297c.422.313.813.36 1.094.36 1.297 0 2.14-.766 2.14-1.844m-1.078 0c0 1.078-.563 1.5-1.141 1.5-.36 0-.75-.172-1.016-.563v-1.875c.141-.172.547-.5 1.11-.5.625 0 1.047.531 1.047 1.438m0 0"/><path id="j" d="M4.61-1.734c0-1-.72-1.891-2.173-1.891-1.468 0-2.171.89-2.171 1.89C.266-.78.969.064 2.438.064c1.484 0 2.171-.86 2.171-1.797M3.53-1.828c0 .687 0 1.516-1.094 1.516-1.093 0-1.093-.829-1.093-1.516 0-.656 0-1.469 1.094-1.469 1.093 0 1.093.813 1.093 1.469m0 0"/><path id="k" d="M2.39 0v-.422h-.468v-3.172L.5-3.53v.422c.438 0 .5 0 .5.297v2.39H.469V0c.469-.031.547-.031.969-.031.328 0 .562 0 .953.031M2-4.828a.64.64 0 0 0-.64-.625.63.63 0 0 0-.641.625c0 .36.297.64.64.64.36 0 .641-.28.641-.64m0 0"/><path id="l" d="M5.172 0v-.422h-.516v-2c0-.969-.61-1.172-1.312-1.172-.969 0-1.406.64-1.5.813v-.813l-1.39.063v.422c.468 0 .515 0 .515.297v2.39H.453V0c.422-.031.703-.031 1-.031.313 0 .594 0 1.016.031v-.422h-.531v-1.594c0-.89.765-1.25 1.28-1.25.282 0 .47.141.47.766v2.078h-.532V0c.422-.031.703-.031 1.016-.031.312 0 .578 0 1 .031m0 0"/><path id="m" d="M2.5-5.078c0-.219-.016-.219-.234-.219-.328.313-.75.5-1.5.5v.266c.218 0 .64 0 1.109-.203v4.078c0 .297-.031.39-.781.39H.812V0c.329-.031 1.016-.031 1.376-.031s1.046 0 1.374.031v-.266h-.28c-.75 0-.782-.093-.782-.39Zm0 0"/><path id="n" d="M2.25-1.625c.125-.125.453-.39.594-.5.484-.453.953-.89.953-1.61 0-.953-.797-1.562-1.781-1.562-.97 0-1.594.719-1.594 1.438 0 .39.312.437.422.437.172 0 .422-.11.422-.422 0-.406-.407-.406-.5-.406.234-.594.765-.781 1.156-.781.734 0 1.125.625 1.125 1.297 0 .828-.578 1.437-1.531 2.39l-1 1.047C.422-.219.422-.203.422 0h3.14l.235-1.422h-.25c-.016.156-.078.547-.172.703-.047.063-.656.063-.781.063H1.172Zm0 0"/><path id="o" d="M3.89-2.547c0-.844-.078-1.36-.343-1.875-.344-.703-1-.875-1.438-.875-1 0-1.375.75-1.484.969C.344-3.75.328-2.953.328-2.547c0 .531.016 1.328.406 1.969.36.594.954.75 1.375.75.391 0 1.063-.125 1.47-.906.296-.578.312-1.297.312-1.813M2.11-.062c-.266 0-.813-.125-.985-.954-.094-.453-.094-1.203-.094-1.625 0-.546 0-1.109.094-1.546.172-.813.781-.891.984-.891.266 0 .829.14.985.86.094.437.094 1.046.094 1.577 0 .47 0 1.188-.094 1.641-.172.828-.719.938-.985.938m0 0"/><clipPath id="a"><path d="M0 2h83v54.754H0Zm0 0"/></clipPath></defs><path fill="none" stroke="#000" stroke-linecap="round" stroke-miterlimit="10" stroke-width=".399" d="M45.664 41.512v-3.985M74.012 41.512v-3.985M15.324 11.172h3.985"/><path fill="none" stroke="#000" stroke-miterlimit="10" stroke-width=".399" d="M.938 39.52h80.144"/><path fill="none" stroke="#000" stroke-linecap="round" stroke-linejoin="round" stroke-miterlimit="10" stroke-width=".399" d="M79.207 37.129c.379 1.434 1.223 2.11 2.074 2.39-.851.278-1.695.958-2.074 2.391"/><path fill="none" stroke="#000" stroke-miterlimit="10" stroke-width=".399" d="M17.316 55.75V4.129"/><path fill="none" stroke="#000" stroke-linecap="round" stroke-linejoin="round" stroke-miterlimit="10" stroke-width=".399" d="M14.926 6c1.433-.379 2.113-1.223 2.39-2.07.278.847.957 1.691 2.391 2.07"/><g clip-path="url(#a)"><path fill="none" stroke="#000" stroke-miterlimit="10" stroke-width=".598" d="m8.41 48.277 2.735-2.636 2.734-2.692 2.73-2.726 2.735-2.73 2.734-2.712 2.73-2.668 2.735-2.601 2.734-2.504 2.735-2.39 2.73-2.255 2.735-2.093 2.734-1.91 2.73-1.72 2.735-1.503 2.734-1.282 2.73-1.039 2.735-.793 2.734-.535 2.73-.277 2.735-.012 2.735.25 2.734.512 2.73.766 2.735 1.02"/></g><path fill="none" stroke="red" stroke-miterlimit="10" stroke-width=".399" d="M62.84 11.172a.995.995 0 1 0-1.99-.002.995.995 0 0 0 1.99.002Zm0 0"/><g fill="red"><use xlink:href="#b" x="30.332" y="6.107"/><use xlink:href="#c" x="34.804" y="6.107"/><use xlink:href="#d" x="39.96" y="6.107"/><use xlink:href="#e" x="43.754" y="6.107"/><use xlink:href="#b" x="47.787" y="6.107"/><use xlink:href="#f" x="52.258" y="6.107"/><use xlink:href="#g" x="60.396" y="6.107"/><use xlink:href="#h" x="65.146" y="6.107"/></g><use xlink:href="#i" x="71.108" y="6.107" fill="red"/><g fill="red"><use xlink:href="#j" x="76.806" y="6.107"/><use xlink:href="#k" x="81.692" y="6.107"/><use xlink:href="#l" x="84.402" y="6.107"/></g><use xlink:href="#d" x="89.558" y="6.107" fill="red"/><use xlink:href="#m" x="43.545" y="49.304"/><use xlink:href="#n" x="71.891" y="49.304"/><use xlink:href="#o" x="10.425" y="47.311"/><use xlink:href="#m" x="8.434" y="13.741"/></svg>