<svg xmlns="http://www.w3.org/2000/svg" xmlns:xlink="http://www.w3.org/1999/xlink" width="171.52" height="125.372"><defs><path id="b" d="M3.89-2.547c0-.844-.078-1.36-.343-1.875-.344-.703-1-.875-1.438-.875-1 0-1.375.75-1.484.969C.344-3.75.328-2.953.328-2.547c0 .531.016 1.328.406 1.969.36.594.954.75 1.375.75.391 0 1.063-.125 1.47-.906.296-.578.312-1.297.312-1.813M2.11-.062c-.266 0-.813-.125-.985-.954-.094-.453-.094-1.203-.094-1.625 0-.546 0-1.109.094-1.546.172-.813.781-.891.984-.891.266 0 .829.14.985.86.094.437.094 1.046.094 1.577 0 .47 0 1.188-.094 1.641-.172.828-.719.938-.985.938m0 0"/><path id="d" d="M1.11-4.484c.109.03.421.125.765.125 1 0 1.594-.703 1.594-.828 0-.094-.047-.11-.094-.11-.016 0-.031 0-.094.031a3 3 0 0 1-1.11.22c-.468 0-.858-.11-1.108-.22-.079-.03-.094-.03-.11-.03-.094 0-.094.077-.094.234v2.328c0 .14 0 .234.125.234.063 0 .079-.031.125-.094.094-.11.391-.515 1.079-.515.437 0 .656.359.734.515.125.281.14.656.14.953s0 .735-.218 1.079c-.156.25-.485.484-.906.484A1.27 1.27 0 0 1 .734-.922c.016.016.079.016.079.016.218 0 .406-.14.406-.39a.39.39 0 0 0-.39-.407c-.157 0-.407.078-.407.422 0 .718.625 1.453 1.531 1.453 1 0 1.844-.781 1.844-1.766 0-.922-.672-1.75-1.61-1.75-.39 0-.765.125-1.078.406Zm0 0"/><path id="e" d="M2.5-5.078c0-.219-.016-.219-.234-.219-.328.313-.75.5-1.5.5v.266c.218 0 .64 0 1.109-.203v4.078c0 .297-.031.39-.781.39H.812V0c.329-.031 1.016-.031 1.376-.031s1.046 0 1.374.031v-.266h-.28c-.75 0-.782-.093-.782-.39Zm0 0"/><path id="f" d="M2.25-1.625c.125-.125.453-.39.594-.5.484-.453.953-.89.953-1.61 0-.953-.797-1.562-1.781-1.562-.97 0-1.594.719-1.594 1.438 0 .39.312.437.422.437.172 0 .422-.11.422-.422 0-.406-.407-.406-.5-.406.234-.594.765-.781 1.156-.781.734 0 1.125.625 1.125 1.297 0 .828-.578 1.437-1.531 2.39l-1 1.047C.422-.219.422-.203.422 0h3.14l.235-1.422h-.25c-.016.156-.078.547-.172.703-.047.063-.656.063-.781.063H1.172Zm0 0"/><path id="g" d="M2.016-2.656c.625 0 1.03.453 1.03 1.297 0 1-.562 1.28-.983 1.28-.438 0-1.047-.155-1.329-.577.297 0 .5-.188.5-.438 0-.265-.187-.437-.453-.437-.203 0-.437.125-.437.453 0 .75.812 1.25 1.734 1.25 1.047 0 1.797-.734 1.797-1.531 0-.672-.531-1.266-1.344-1.453.625-.22 1.11-.75 1.11-1.391 0-.64-.72-1.094-1.547-1.094-.86 0-1.5.453-1.5 1.063 0 .297.187.422.406.422.25 0 .406-.172.406-.407 0-.297-.265-.406-.437-.406.344-.437.953-.469 1.094-.469.203 0 .812.063.812.89 0 .548-.234.891-.344 1.016-.234.25-.422.266-.906.297-.156 0-.219.016-.219.125 0 .11.078.11.219.11Zm0 0"/><path id="h" d="M3.14-5.156c0-.157 0-.219-.171-.219-.094 0-.11 0-.188.11L.234-1.564v.25h2.25v.672c0 .297-.015.375-.64.375h-.172V0c.672-.031.687-.031 1.14-.031.454 0 .47 0 1.141.031v-.266h-.172c-.625 0-.64-.078-.64-.375v-.671h.843v-.25h-.843Zm-.593.64v2.954H.516Zm0 0"/><path id="i" d="M1.094-2.64c0-.657.062-1.235.343-1.72.25-.406.657-.734 1.157-.734.156 0 .515.032.703.297-.36.031-.39.297-.39.375 0 .25.187.375.374.375.14 0 .375-.078.375-.39 0-.47-.36-.86-1.078-.86C1.468-5.297.344-4.25.344-2.53.344-.36 1.359.172 2.125.172c.39 0 .797-.11 1.156-.453.328-.313.594-.64.594-1.344 0-1.031-.797-1.766-1.672-1.766-.578 0-.922.36-1.11.75M2.125-.079a.88.88 0 0 1-.797-.516c-.187-.36-.203-.89-.203-1.203 0-.781.422-1.375 1.047-1.375.39 0 .64.203.781.485.172.296.172.656.172 1.062s0 .75-.156 1.047c-.219.36-.485.5-.844.5m0 0"/><path id="l" d="M4.031-4.86c.078-.077.078-.093.078-.265H2.08a9 9 0 0 1-.642-.031c-.421-.032-.421-.11-.453-.235h-.25L.47-3.703h.25c.015-.125.11-.672.219-.735.078-.046.687-.046.796-.046h1.688l-.813 1.109C1.703-2.172 1.5-.906 1.5-.281c0 .078 0 .453.375.453s.375-.36.375-.453v-.39c0-1.141.203-2.079.594-2.61Zm0 0"/><path id="c" d="M1.625-.437a.463.463 0 0 0-.453-.454.447.447 0 0 0-.438.438.44.44 0 0 0 .438.453.45.45 0 0 0 .453-.437m0 0"/><path id="j" d="M2.266-2.906h.906c-.156.719-.297 1.312-.297 1.906 0 .047 0 .39.078.688.11.328.188.39.328.39.172 0 .36-.156.36-.344 0-.046 0-.062-.032-.14-.171-.36-.296-.75-.296-1.406 0-.172 0-.516.124-1.094h.97c.124 0 .202 0 .28-.063a.31.31 0 0 0 .125-.25c0-.219-.203-.219-.328-.219H1.61c-.171 0-.484 0-.875.391-.28.281-.5.64-.5.703 0 .078.047.094.11.094.094 0 .11-.016.156-.078.39-.578.86-.578 1.031-.578H2c-.234.844-.656 1.812-.953 2.39C1-.39.922-.234.922-.172c0 .172.125.25.25.25.312 0 .39-.297.562-.953Zm0 0"/><path id="k" d="M5.563-1.812c.14 0 .312 0 .312-.172 0-.188-.172-.188-.312-.188H1c-.125 0-.297 0-.297.188 0 .172.172.172.297.172Zm0 0"/><clipPath id="a"><path d="M17 0h154.281v100H17Zm0 0"/></clipPath></defs><path fill="none" stroke="#7F7F7F" stroke-linecap="round" stroke-miterlimit="10" stroke-width=".399" d="M26.355 92.988v-1.992M37.633 102.95V90.995M48.914 92.988v-1.992M60.191 102.95V90.995M71.473 92.988v-1.992M82.75 102.95V90.995M94.031 92.988v-1.992M105.309 102.95V90.995M116.59 92.988v-1.992M127.867 102.95V90.995M139.148 92.988v-1.992M150.426 102.95V90.995M161.707 92.988v-1.992M97.223 117.895V90.996M26.355 3.402V1.41M37.633 3.402V1.41M48.914 3.402V1.41M60.191 3.402V1.41M71.473 3.402V1.41M82.75 3.402V1.41M94.031 3.402V1.41M105.309 3.402V1.41M116.59 3.402V1.41M127.867 3.402V1.41M139.148 3.402V1.41M150.426 3.402V1.41M161.707 3.402V1.41M97.223 3.402V1.41M24.363 90.996h1.992M24.363 80.047h1.992M24.363 69.098h1.992M24.363 58.148h1.992M24.363 47.2h1.992M24.363 36.25h1.992M24.363 25.3h1.992M24.363 14.352h1.992M24.363 3.402h1.992M168.09 90.996h1.992M168.09 80.047h1.992M168.09 69.098h1.992M168.09 58.148h1.992M168.09 47.2h1.992M168.09 36.25h1.992M168.09 25.3h1.992M168.09 14.352h1.992M168.09 3.402h1.992"/><path fill="none" stroke="#7F7F7F" stroke-miterlimit="10" stroke-width=".399" d="M26.355 90.996H168.09M26.355 3.402H168.09M26.355 90.996V3.402M168.09 90.996V3.402"/><g clip-path="url(#a)"><path fill="none" stroke="#000" stroke-miterlimit="10" stroke-width=".598" d="M26.355 47.2s4.266-8.298 5.907-11.337c1.636-3.035 4.265-7.836 5.902-10.562 1.64-2.723 4.27-6.844 5.906-9.07 1.64-2.223 4.27-5.387 5.907-6.958 1.64-1.574 4.265-3.562 5.906-4.375 1.64-.816 4.265-1.496 5.906-1.496 1.637 0 4.266.68 5.906 1.493 1.637.816 4.266 2.804 5.907 4.375 1.636 1.574 4.265 4.738 5.906 6.96 1.637 2.223 4.265 6.344 5.902 9.07 1.64 2.723 4.27 7.524 5.906 10.563 1.641 3.04 4.27 8.188 5.907 11.332 1.64 3.149 4.265 8.297 5.906 11.336 1.64 3.04 4.266 7.84 5.906 10.563 1.637 2.726 4.266 6.847 5.906 9.07 1.637 2.227 4.266 5.39 5.907 6.961 1.636 1.574 4.265 3.563 5.902 4.379 1.64.812 4.27 1.492 5.906 1.492 1.64 0 4.27-.68 5.906-1.492 1.641-.813 4.27-2.8 5.907-4.375 1.64-1.574 4.265-4.734 5.906-6.957 1.64-2.227 4.266-6.348 5.906-9.07 1.637-2.727 4.266-7.524 5.906-10.563 1.637-3.039 5.907-11.336 5.907-11.336"/></g><use xlink:href="#b" x="24.237" y="100.78"/><use xlink:href="#b" x="32.223" y="110.743"/><use xlink:href="#c" x="36.457" y="110.743"/><use xlink:href="#d" x="38.81" y="110.743"/><use xlink:href="#e" x="46.795" y="100.78"/><use xlink:href="#e" x="54.781" y="110.743"/><use xlink:href="#c" x="59.016" y="110.743"/><use xlink:href="#d" x="61.368" y="110.743"/><use xlink:href="#f" x="69.354" y="100.78"/><use xlink:href="#f" x="77.34" y="110.743"/><use xlink:href="#c" x="81.574" y="110.743"/><use xlink:href="#d" x="83.926" y="110.743"/><use xlink:href="#g" x="91.912" y="100.78"/><use xlink:href="#g" x="99.898" y="110.743"/><use xlink:href="#c" x="104.132" y="110.743"/><use xlink:href="#d" x="106.485" y="110.743"/><use xlink:href="#h" x="114.471" y="100.78"/><use xlink:href="#h" x="122.457" y="110.743"/><use xlink:href="#c" x="126.691" y="110.743"/><use xlink:href="#d" x="129.043" y="110.743"/><use xlink:href="#d" x="137.029" y="100.78"/><use xlink:href="#d" x="145.015" y="110.743"/><use xlink:href="#c" x="149.249" y="110.743"/><use xlink:href="#d" x="151.602" y="110.743"/><use xlink:href="#i" x="159.588" y="100.78"/><use xlink:href="#j" x="94.649" y="123.982"/><use xlink:href="#k" x="10.885" y="93.148"/><use xlink:href="#e" x="17.471" y="93.148"/><use xlink:href="#k" x=".064" y="82.2"/><use xlink:href="#b" x="6.651" y="82.2"/><use xlink:href="#c" x="10.885" y="82.2"/><use xlink:href="#l" x="13.237" y="82.2"/><use xlink:href="#d" x="17.472" y="82.2"/><use xlink:href="#k" x="4.298" y="71.251"/><use xlink:href="#b" x="10.885" y="71.251"/><use xlink:href="#c" x="15.119" y="71.251"/><use xlink:href="#d" x="17.471" y="71.251"/><use xlink:href="#k" x=".064" y="60.302"/><use xlink:href="#b" x="6.651" y="60.302"/><use xlink:href="#c" x="10.885" y="60.302"/><use xlink:href="#f" x="13.237" y="60.302"/><use xlink:href="#d" x="17.472" y="60.302"/><use xlink:href="#b" x="17.471" y="49.768"/><use xlink:href="#b" x="6.651" y="38.819"/><use xlink:href="#c" x="10.885" y="38.819"/><use xlink:href="#f" x="13.237" y="38.819"/><use xlink:href="#d" x="17.472" y="38.819"/><use xlink:href="#b" x="10.885" y="27.87"/><use xlink:href="#c" x="15.119" y="27.87"/><use xlink:href="#d" x="17.471" y="27.87"/><use xlink:href="#b" x="6.651" y="16.922"/><use xlink:href="#c" x="10.885" y="16.922"/><use xlink:href="#l" x="13.237" y="16.922"/><use xlink:href="#d" x="17.472" y="16.922"/><use xlink:href="#e" x="17.471" y="5.973"/></svg>