<svg xmlns="http://www.w3.org/2000/svg" xmlns:xlink="http://www.w3.org/1999/xlink" width="92.702" height="58.898"><defs><path id="a" d="M.063-5.516c-.235-.015-.25.094-.25.235-.047.61-.172.61-.407.593l-2.14-.109c-.891-.047-1.578.625-1.657 2.11-.03.562-.046 1.78.829 1.828a.61.61 0 0 0 .656-.578c.015-.313-.172-.641-.578-.657A.7.7 0 0 0-4-1.906c-.031-.282-.031-.61-.031-.719.047-.75.484-1.094 1.234-1.047l.344.016c0 .719-.047 3.25 1.39 3.328C-.109-.266.141-1.5.173-2.188c.047-.796-.328-1.28-.734-1.53.312.015.765.046.812-1l.031-.47c0-.203.016-.312-.219-.328m-1.266 1.922c.969.063 1.047.985 1.031 1.235-.031.515-.39.89-.844.859-1.062-.047-1.125-1.64-1.125-2.14Zm0 0"/><path id="b" d="M-.125-6.39c-1.25-.438-2.437.14-2.922 1.515-.234.672-.14 1.25-.031 1.531l-2.75-.953-.5 1.672.437.156c.204-.562.22-.64.579-.5L.343-1 .5-1.453c-.11-.203-.25-.422-.36-.64.094-.032.766-.329 1.063-1.173.5-1.39-.031-2.671-1.328-3.125m-.422 1.218c.438.156.953.344 1.25.703.281.407.235.875.125 1.188-.219.656-.86.828-1.031.89l-2.36-.828a1.6 1.6 0 0 1-.171-1.422c.39-1.156 1.515-.765 2.187-.53m0 0"/><path id="c" d="m1.469-2.437-.407-.25-.312.53-3.422-2.077-.828 1.53.406.235c.297-.515.328-.562.656-.36L.188-1.233l-.344.578.406.25.594-1.047Zm-5.406-2.735a.785.785 0 1 0-.813 1.344.784.784 0 0 0 1.063-.266c.218-.375.109-.86-.25-1.078m0 0"/><path id="d" d="M1.063-6.75a.603.603 0 0 0-.86.063c-.11.109-.406.453-.469 1-.218.046-.64.218-1.156.734-1 1.031-.844 1.969-.344 2.437.282.282.735.454 1.11.375.062.438.25.72.406.86.11.11.484.406.969.343C.672-.812.313-.125.75.313c.36.344 1.297.454 2.688-.968 1.234-1.266 1.359-2.219.859-2.719-.219-.203-.719-.578-1.438-.328-.593.187-1.015.625-1.671 1.297-.188.187-.5.515-.547.531-.375.297-.72.11-.844-.031a.55.55 0 0 1-.156-.297c.484-.172.875-.5 1.047-.688 1-1.03.812-1.968.312-2.468-.344-.328-.75-.36-.969-.36.11-.328.235-.5.313-.593.015.062.062.156.11.187.171.188.421.172.609-.031a.406.406 0 0 0 0-.594M.234-4.562c.329.312.797.796.188 1.421-.61.625-1.078.141-1.406-.171-.313-.297-.797-.766-.188-1.391.61-.625 1.094-.156 1.406.14m3.47 1.843c.265.25.374.89-.532 1.813-.828.844-1.516.89-1.828.578-.438-.422 0-.86.11-.969l.812-.828c.218-.234 1-1.031 1.437-.594m0 0"/><path id="e" d="M3.766-5.687A.6.6 0 0 0 2.969-6a1.64 1.64 0 0 0-.86.734c-.203-.062-.656-.109-1.343.157-1.344.515-1.563 1.453-1.328 2.093.156.375.484.704.859.782-.125.453-.078.78 0 .968.062.141.281.579.75.735C.937-.47.344 0 .563.594c.187.469.968.953 2.828.234 1.64-.64 2.172-1.453 1.922-2.11-.11-.28-.422-.827-1.172-.905-.625-.047-1.172.156-2.063.5-.25.093-.672.265-.719.265-.453.094-.687-.203-.75-.39a.64.64 0 0 1-.015-.344c.5.062 1-.094 1.234-.188 1.344-.515 1.563-1.453 1.297-2.11a1.22 1.22 0 0 0-.719-.734c.235-.25.422-.343.531-.406-.015.063 0 .14.032.203.094.235.312.329.562.235.235-.078.313-.313.235-.532m-1.672 1.64c.172.422.406 1.047-.406 1.36C.875-2.375.64-3 .468-3.422c-.156-.406-.39-1.031.423-1.344.812-.312 1.047.313 1.203.72M4.5-.937C4.64-.61 4.469.03 3.266.5c-1.11.422-1.75.188-1.907-.234-.218-.578.36-.797.5-.86l1.094-.422c.281-.109 1.328-.515 1.547.079m0 0"/><path id="f" d="M3.5-4.531c-.11-.532-.687-.688-1.203-.563-.672.14-.953.719-1.047 1.375l-.234-1.094-1.61.438.094.453c.594-.14.672-.156.766.219L.922-.687.25-.531l.11.453 1.234-.313c.36-.078.984-.218 1.328-.265l-.11-.453-.828.187L1.61-2.64c-.14-.671-.187-1.906.797-2.125 0 0-.156.22-.094.5.094.391.454.516.72.454.296-.063.562-.329.468-.72m0 0"/><path id="g" d="M4.75-1.766c-.031-.171-.219-.14-.266-.14-.171.031-.171.078-.218.234-.141.5-.688.875-1.313.953-1.406.172-1.578-1.14-1.64-1.64l3-.36c.218-.031.312-.047.28-.312-.046-.313-.187-1.016-.75-1.453-.405-.313-.952-.422-1.624-.344C.625-4.625-.11-3.484.03-2.266.203-.937 1.297-.094 2.906-.296 4.47-.485 4.766-1.61 4.75-1.767M3.64-2.969l-2.374.281c-.032-.39-.063-.796.093-1.14.22-.422.61-.61.891-.64 1.156-.141 1.344 1.156 1.39 1.5m0 0"/><path id="h" d="M4.844-1.453c-.016-.172-.203-.172-.25-.156-.157 0-.172.046-.219.218-.172.485-.734.829-1.375.875-1.406.079-1.5-1.25-1.531-1.75l3.015-.171c.204-.016.297-.016.282-.282-.016-.312-.125-1.047-.641-1.515-.375-.344-.922-.485-1.61-.438C.923-4.578.11-3.5.189-2.266.266-.922 1.313-.016 2.922-.109 4.5-.203 4.844-1.281 4.844-1.453m-1-1.281-2.39.14c-.016-.39-.016-.812.171-1.156.234-.406.64-.547.922-.562 1.172-.079 1.25 1.234 1.297 1.578m0 0"/><path id="i" d="M6.125-.094v-.468h-.687L5.39-3.141c-.016-1.046-.563-1.421-1.563-1.406-.953.016-1.469.578-1.734 1.11l-.016-1.079-1.703.11.016.468c.609-.015.687-.015.687.376l.063 3.078-.688.015V0l1.25-.062 1.25.015v-.469L2.266-.5l-.047-2.078c-.016-1.094.844-1.594 1.484-1.61.328 0 .547.188.563.954l.046 2.687-.687.016v.469l1.25-.047Zm0 0"/><path id="j" d="M2.656.422v-4.906l-1.828.078v.468c.172 0 .39 0 .531.016.22.047.22.172.22.39V.423c0 .5-.141 1.219-.735 1.219-.172 0-.25-.032-.39-.063a.62.62 0 0 0 .233-.5.617.617 0 0 0-.624-.625c-.375 0-.625.281-.625.64 0 .563.609.907 1.421.907.86 0 1.797-.531 1.797-1.578m0-6.469a.774.774 0 1 0-1.547-.015.774.774 0 0 0 1.547.015m0 0"/><path id="k" d="M6.125-.094v-.468c-.61.015-.687.015-.703-.375l-.047-3.625-1.812.109v.469C4.172-4 4.25-4 4.266-3.61l.015 1.906c.016.812-.484 1.344-1.203 1.36-.781.015-.828-.235-.828-.782l-.047-3.39-1.812.109v.468c.609-.015.687-.015.703.376l.031 2.328C1.141-.172 1.938.03 2.938.016c.25 0 .968-.016 1.406-.797L4.359 0Zm0 0"/><path id="l" d="m2.844-.125-.016-.469-.61.031-.187-4.015-1.734.156.031.469c.594-.031.656-.031.672.36l.14 3.077-.687.032.016.468 1.219-.093Zm-.735-6.031a.8.8 0 0 0-.828-.75.785.785 0 0 0-.734.828c.015.422.39.75.812.719a.77.77 0 0 0 .75-.797m0 0"/><path id="m" d="M4.64-1.594c0-.14-.14-.125-.234-.11-.187.016-.187.048-.234.173C3.969-.891 3.5-.656 3-.61c-1.375.125-1.5-1.328-1.547-1.782-.047-.562-.156-1.843 1.11-1.953.359-.031.515-.031.656-.015a.58.58 0 0 0-.156.484c.03.438.39.594.656.578.312-.031.625-.281.594-.687-.079-.86-1.235-.828-1.813-.766C.719-4.594.078-3.39.188-2.234.297-.922 1.313-.047 2.828-.187c1.625-.141 1.828-1.329 1.813-1.407m0 0"/><path id="n" d="m5-4.906-.094-.469c-.234.063-.5.125-.75.172l-.906.125.094.469s.453-.079.469.03l-.032.126-.687 2.61-1.719-2.423.516-.093-.094-.47-1.188.25-1.125.173.094.468.61-.109 2.53 3.563-.155.53c-.11.485-.313 1.204-1.016 1.345-.14.015-.156 0-.234-.016.093-.047.28-.203.218-.562C1.47.484 1.203.297.86.359.594.406.344.641.406 1.031c.094.485.625.813 1.219.719C2.375 1.61 2.813.89 3 .281l1.313-4.86c.03-.155.062-.218.687-.327m0 0"/><path id="o" d="M4.828-2.656c-.094-.219-.203-.156-.328-.094-.562.25-.61.14-.719-.062l-.953-1.922c-.39-.797-1.312-1.063-2.64-.407-.516.25-1.563.844-1.172 1.625.187.391.562.407.797.297.28-.14.468-.484.296-.844-.14-.265-.375-.343-.421-.359.234-.156.53-.312.625-.375.671-.328 1.187-.11 1.515.563l.156.312C1.344-3.594-.89-2.375-.25-1.094c.422.86 1.625.485 2.234.188.72-.36.954-.938.954-1.422.14.281.343.687 1.28.234l.423-.219c.187-.078.297-.14.187-.343m-2.297-.156c.438.874-.328 1.39-.562 1.5-.453.234-.969.093-1.172-.313-.469-.953.89-1.781 1.328-2.016Zm0 0"/><path id="p" d="M2.922-5.672c-.89-.984-2.188-1.062-3.25-.094a2.67 2.67 0 0 0-.797 1.375l-.312-.359-1.25 1.25.312.344c.453-.406.5-.469.75-.188L1.765.36l-.5.47.329.359.89-.875.954-.813-.329-.36-.515.47-1.25-1.36c.562-.047.968-.266 1.265-.547 1.11-1 1.25-2.36.313-3.375m-.953.86c.953 1.046.781 1.89.312 2.328-.11.093-.453.406-1.14.312-.188-.015-.188-.031-.328-.156L-.61-3.891c-.125-.14-.11-.171-.094-.359 0-.578.344-.969.516-1.11.484-.452 1.312-.39 2.156.548m0 0"/><path id="q" d="M.969-6.312c-1.156-.641-2.422-.313-3.125.937a2.5 2.5 0 0 0-.297 1.563l-.422-.25-.781 1.593.406.219c.297-.531.328-.594.656-.406l4.39 2.453L1.47.39l.406.218L2.469-.5l.61-1.078-.407-.219-.328.61-1.625-.907A2.02 2.02 0 0 0 1.734-3c.735-1.312.438-2.64-.765-3.312M.344-5.187c1.234.687 1.328 1.546 1.031 2.109-.078.125-.297.531-1 .672-.156.031-.172.015-.344-.063L-1.797-3.5c-.172-.094-.172-.11-.234-.312-.156-.532.047-1.032.14-1.22.329-.577 1.125-.765 2.235-.155m0 0"/><path id="r" d="m.875-2.781-.453-.14-.203.655-6.14-1.953-.47 1.703.454.141c.187-.594.203-.656.578-.547L-.11-1.25l-.203.656.453.14.343-1.171Zm0 0"/><path id="s" d="M-.328-5.047c-.172-.031-.203.14-.203.188-.031.172.015.203.156.297.453.28.656.89.547 1.53-.25 1.376-1.547 1.173-2.047 1.095l.516-2.97c.03-.218.046-.296-.22-.343-.296-.062-1.03-.14-1.608.281-.422.297-.672.782-.797 1.469-.266 1.563.593 2.594 1.812 2.813C-.844-.47.281-1.281.563-2.86c.265-1.563-.72-2.157-.891-2.188m-1.469.703L-2.203-2c-.375-.078-.781-.172-1.078-.406a1.23 1.23 0 0 1-.344-1.031c.203-1.157 1.5-.954 1.828-.907m0 0"/><path id="t" d="M-.625-2.406c-.422-.031-.812.281-.828.719a.782.782 0 0 0 1.562.109.785.785 0 0 0-.734-.828m0 0"/></defs><path fill="none" stroke="#7F7F7F" stroke-miterlimit="10" stroke-width=".199" d="M6.406 57.742h85.04M6.405 29.395h85.04M6.405 1.059h85.04M6.405 57.742V1.047M34.75 57.742V1.047m28.348 56.695V1.047m28.336 56.695V1.047"/><use xlink:href="#a" x="6.328" y="57.738"/><use xlink:href="#b" x="7.177" y="48.363"/><use xlink:href="#c" x="9.421" y="42.398"/><use xlink:href="#d" x="10.967" y="39.569"/><use xlink:href="#e" x="18.279" y="33.449" fill="#0F0"/><use xlink:href="#f" x="23.65" y="31.441" fill="#0F0"/><use xlink:href="#g" x="28.263" y="30.418" fill="#0F0"/><use xlink:href="#h" x="33.474" y="29.787" fill="#0F0"/><use xlink:href="#i" x="38.717" y="29.486" fill="#0F0"/><use xlink:href="#j" x="48.894" y="29.396"/><use xlink:href="#k" x="52.39" y="29.41"/><use xlink:href="#l" x="58.753" y="29.299"/><use xlink:href="#m" x="61.93" y="29.182"/><use xlink:href="#n" x="67.01" y="28.775"/><use xlink:href="#o" x="76.653" y="26.625"/><use xlink:href="#p" x="81.725" y="24.197"/><use xlink:href="#q" x="86.453" y="19.848"/><use xlink:href="#r" x="89.392" y="14.195"/><use xlink:href="#s" x="90.41" y="11.169"/><use xlink:href="#t" x="91.234" y="5.981"/></svg>