<svg xmlns="http://www.w3.org/2000/svg" width="92.702" height="88.742"><defs><clipPath id="a"><path d="M76 24h16.555v22H76Zm0 0"/></clipPath><clipPath id="b"><path d="M60 72h22v16.613H60Zm0 0"/></clipPath><clipPath id="c"><path d="M10 72h22v16.613H10Zm0 0"/></clipPath></defs><path fill="none" stroke="#000" stroke-miterlimit="10" stroke-width=".399" d="M50.898 34.129a4.695 4.695 0 0 0-4.695-4.695 4.698 4.698 0 0 0 0 9.395 4.7 4.7 0 0 0 4.695-4.7ZM64.379 43.926c0-2.594-2.102-4.7-4.695-4.7a4.698 4.698 0 0 0 0 9.395 4.695 4.695 0 0 0 4.695-4.695ZM59.23 59.77a4.698 4.698 0 1 0-9.393.005 4.698 4.698 0 0 0 9.393-.005ZM42.57 59.77a4.698 4.698 0 1 0-9.395.005 4.698 4.698 0 0 0 9.395-.005ZM37.418 43.926c0-2.594-2.102-4.7-4.695-4.7a4.698 4.698 0 0 0 0 9.395 4.695 4.695 0 0 0 4.695-4.695ZM50.898 5.785c0-2.594-2.101-4.7-4.695-4.7a4.698 4.698 0 0 0 0 9.395 4.695 4.695 0 0 0 4.695-4.695Zm0 0"/><g clip-path="url(#a)"><path fill="none" stroke="#000" stroke-miterlimit="10" stroke-width=".399" d="M91.34 35.164a4.698 4.698 0 0 0-9.395 0 4.698 4.698 0 0 0 9.395 0Zm0 0"/></g><g clip-path="url(#b)"><path fill="none" stroke="#000" stroke-miterlimit="10" stroke-width=".399" d="M75.89 82.703a4.695 4.695 0 0 0-4.695-4.695 4.695 4.695 0 0 0-4.695 4.695 4.695 4.695 0 0 0 4.695 4.695 4.695 4.695 0 0 0 4.696-4.695Zm0 0"/></g><g clip-path="url(#c)"><path fill="none" stroke="#000" stroke-miterlimit="10" stroke-width=".399" d="M25.906 82.703a4.695 4.695 0 0 0-4.695-4.695 4.695 4.695 0 0 0-4.695 4.695 4.695 4.695 0 0 0 4.695 4.695 4.695 4.695 0 0 0 4.695-4.695Zm0 0"/></g><path fill="none" stroke="#000" stroke-miterlimit="10" stroke-width=".399" d="M10.46 35.164a4.698 4.698 0 0 0-9.394 0 4.698 4.698 0 0 0 9.395 0ZM46.203 29.234V10.68M51.098 34.254l30.652.785M48.441 38.484l20.516 39.868M43.965 38.484 23.449 78.352M41.309 34.254l-30.653.785M58.05 39.309l-10.214-28.91M64.34 42.41l17.648-5.734M61.074 48.617l8.727 29.395M56.234 47.398 24.656 79.227M54.852 43.14l-44.258-7.19M53.79 54.934 46.95 10.62M58.418 56.793l24.34-18.652M57.41 63.73l10.906 15.012M50.5 62.547 25.242 79.93M50.164 57.566 10.133 37.371M38.617 54.934l6.84-44.313M42.242 57.566l40.031-20.195M41.906 62.547 67.164 79.93M34.996 63.73l-10.91 15.012M33.988 56.793 9.648 38.141M34.355 39.309l10.215-28.91M37.555 43.14l44.254-7.19M36.172 47.398l31.574 31.829M31.328 48.617l-8.723 29.395M28.066 42.41l-17.648-5.734"/></svg>