<svg xmlns="http://www.w3.org/2000/svg" xmlns:xlink="http://www.w3.org/1999/xlink" width="52.094" height="63.092"><defs><path id="b" d="m1.625 9.188.469-.079-.125-.671L4.5 7.984c1.016-.171 1.328-.765 1.156-1.78a1.85 1.85 0 0 0-1.234-1.485c.875-.344.75-1.266.687-1.64-.156-.86-.703-1.329-1.375-1.548l1.063-.187-.375-1.656-.469.078c.11.593.125.672-.25.75l-3.031.53L.547.376.078.453l.25 1.219.188 1.234.468-.078-.125-.672 2.047-.36A1.525 1.525 0 0 1 4.72 2.985c.047.329-.11.579-.86.72l-2.64.468-.125-.688-.469.079.25 1.25.188 1.234.468-.078-.11-.672 2.048-.36C4.53 4.75 5.156 5.5 5.266 6.11c.062.344-.11.594-.86.735l-2.64.468-.11-.687-.468.078.25 1.234Zm0 0"/><path id="c" d="M1.188 5.39c.234-.03.218-.156.187-.296-.078-.61.031-.64.266-.672l2.109-.375c.875-.156 1.39-.953 1.125-2.406-.094-.563-.36-1.766-1.219-1.61a.61.61 0 0 0-.515.719c.062.297.328.578.734.5.281-.047.422-.266.453-.297.094.266.172.594.188.703.125.735-.235 1.157-.97 1.297l-.343.063C3.047 2.296 2.531-.172 1.11.078.172.25.203 1.5.313 2.172c.14.781.625 1.172 1.078 1.297-.297.062-.75.14-.578 1.172l.093.468c.031.204.047.329.282.282m.796-2.156C1.031 3.391.75 2.5.704 2.266c-.095-.516.171-.953.624-1.032 1.047-.187 1.469 1.329 1.578 1.829Zm0 0"/><path id="d" d="m.5 2.797.469-.078-.11-.594 3.954-.703-.375-1.688-.47.079c.095.578.11.64-.265.718l-3.031.532L.547.39.078.469l.25 1.187Zm5.86-1.5A.786.786 0 0 0 7 .375a.783.783 0 0 0-.906-.625c-.407.063-.688.484-.61.89.079.438.47.72.875.657m0 0"/><path id="e" d="m1.063 6.031.468-.078-.125-.672 2.532-.453c1.03-.172 1.343-.781 1.156-1.766-.157-.937-.813-1.359-1.36-1.53l1.063-.188-.375-1.656-.469.078c.11.593.125.672-.25.75l-3.031.53L.547.376.078.453l.25 1.219.188 1.234.468-.078-.125-.672 2.047-.36C3.97 1.61 4.61 2.36 4.72 2.985c.047.329-.11.579-.86.72l-2.64.468-.125-.688-.469.079.25 1.234Zm0 0"/><path id="f" d="M3.078 4.953c1.328-.234 2.156-1.312 1.875-2.922S3.5-.297 2.187-.062C.97.156.142 1.203.438 2.828.72 4.484 1.876 5.156 3.079 4.953m-.11-1.281c-.843.14-1.905.328-2.124-.922s.844-1.437 1.687-1.578c.438-.078.938-.172 1.313-.063.39.125.656.516.75.985.062.422-.016.86-.313 1.125s-.843.36-1.312.453m0 0"/><path id="g" d="m1.047 5.89.469-.077c-.11-.594-.125-.672.25-.75l5.968-1.047-.39-1.72-.453.079c.109.61.125.688-.266.75l-1.922.344a2.08 2.08 0 0 0 .219-1.422C4.672.625 3.609-.25 2.234 0 .938.219.156 1.297.422 2.734c.11.61.422 1.032.719 1.297l-.485.094Zm.687-1.952c-.203-.11-.812-.422-.937-1.157-.219-1.203.969-1.422 1.656-1.531.469-.094 1-.187 1.422 0 .469.219.656.656.703.969a1.5 1.5 0 0 1-.39 1.281Zm0 0"/><path id="h" d="M2.016 4.64c.172-.03.14-.218.125-.265-.032-.156-.079-.156-.25-.203-.516-.11-.907-.64-1.016-1.266-.25-1.39 1.047-1.64 1.547-1.719l.515 2.985c.047.203.063.297.329.25.297-.063 1.015-.25 1.406-.813.297-.421.39-.968.266-1.656C4.656.391 3.484-.297 2.266-.078.938.156.172 1.312.438 2.89c.28 1.562 1.406 1.78 1.578 1.75m1.14-1.156L2.75 1.125c.375-.047.797-.11 1.14.047.438.187.641.578.688.844.203 1.156-1.094 1.39-1.422 1.468m0 0"/><path id="i" d="M2.922 0v-.469h-.688v-6.453L.47-6.844v.469c.625 0 .687 0 .687.39v5.516H.47V0l1.219-.031Zm0 0"/><path id="j" d="M5.516-.234c0-.235-.125-.235-.266-.235-.61-.015-.61-.14-.61-.375v-2.14c0-.891-.702-1.532-2.187-1.532-.562 0-1.781.047-1.781.922 0 .438.344.625.61.625.312 0 .624-.219.624-.625 0-.297-.187-.469-.218-.5a5 5 0 0 1 .718-.062c.75 0 1.11.422 1.11 1.172v.343c-.72.032-3.25.125-3.25 1.563C.266-.125 1.5.062 2.188.062c.796 0 1.265-.406 1.484-.828 0 .313 0 .766 1.047.766h.468c.204 0 .329 0 .329-.234m-2-1.157c0 .97-.922 1.094-1.172 1.094-.516 0-.906-.344-.906-.797 0-1.062 1.578-1.203 2.078-1.234Zm0 0"/><path id="k" d="M5.984-2.219c0-1.328-.937-2.265-2.39-2.265-.719 0-1.219.28-1.453.484v-2.922l-1.766.078v.469c.61 0 .688 0 .688.39V0h.468c.157-.187.328-.375.485-.562.078.078.562.625 1.453.625 1.484 0 2.515-.907 2.515-2.282m-1.28 0c0 .469 0 1.016-.25 1.406-.298.407-.75.516-1.079.516-.687 0-1.078-.547-1.187-.687v-2.5c.28-.36.75-.641 1.296-.641 1.22 0 1.22 1.203 1.22 1.906m0 0"/><path id="l" d="M4.922-1.172c0-.172-.188-.172-.234-.172-.172 0-.188.047-.25.203-.204.485-.782.797-1.422.797-1.407 0-1.422-1.328-1.422-1.828h3.015c.22 0 .313 0 .313-.265 0-.313-.063-1.047-.563-1.547-.359-.36-.89-.532-1.578-.532C1.187-4.516.313-3.484.313-2.25c0 1.344 1 2.313 2.609 2.313 1.578 0 2-1.063 2-1.235M3.984-2.5h-2.39c.015-.39.031-.812.234-1.14.266-.391.672-.516.953-.516 1.172 0 1.188 1.312 1.203 1.656m0 0"/><clipPath id="a"><path d="M0 0h31v62.637H0Zm0 0"/></clipPath></defs><g clip-path="url(#a)"><path fill="none" stroke="#000" stroke-miterlimit="10" stroke-width=".399" d="M24.46 59.027 14.192.781.781 3.145l10.27 58.246Zm0 0"/></g><use xlink:href="#b" x="4.688" y="5.829"/><use xlink:href="#c" x="6.345" y="15.228"/><use xlink:href="#d" x="7.312" y="20.713"/><use xlink:href="#e" x="7.864" y="23.843"/><use xlink:href="#e" x="9.632" y="33.87"/><use xlink:href="#f" x="10.738" y="40.139"/><use xlink:href="#g" x="11.788" y="46.095"/><use xlink:href="#h" x="12.893" y="52.365"/><path fill="none" stroke="red" stroke-miterlimit="10" stroke-width=".399" d="M19.941 37.918h30.5V24.305h-30.5Zm0 0"/><g fill="red"><use xlink:href="#i" x="23.26" y="34.538"/><use xlink:href="#j" x="26.438" y="34.538"/><use xlink:href="#k" x="32.007" y="34.538"/></g><g fill="red"><use xlink:href="#l" x="38.692" y="34.538"/><use xlink:href="#i" x="43.942" y="34.538"/></g></svg>