<svg xmlns="http://www.w3.org/2000/svg" width="104.067" height="75.71"><path fill="none" stroke="#000" stroke-miterlimit="10" stroke-width=".797" d="M.543 66.055H102.59M.543 37.707H102.59M.543 9.359H102.59M9.047 74.56V.855M37.395 74.56V.855M65.738 74.56V.855M94.086 74.56V.855"/><path fill="none" stroke="#000" stroke-miterlimit="10" stroke-width=".399" d="M4.793 68.887H98.34M4.793 66.055H98.34M4.793 63.219H98.34M4.793 60.383H98.34M4.793 57.55H98.34M4.793 54.715H98.34M4.793 51.879H98.34M4.793 49.047H98.34M4.793 46.21H98.34M4.793 43.375H98.34M4.793 40.543H98.34M4.793 37.707H98.34M4.793 34.871H98.34M4.793 32.04H98.34M4.793 29.203H98.34M4.793 26.367H98.34M4.793 23.535H98.34M4.793 20.7H98.34M4.793 17.863H98.34M4.793 15.031H98.34M4.793 12.195H98.34M4.793 9.36H98.34M4.793 6.527H98.34M6.21 70.305V5.109m2.837 65.196V5.109m2.836 65.196V5.109m2.832 65.196V5.109m2.836 65.196V5.109m2.836 65.196V5.109m2.832 65.196V5.109m2.836 65.196V5.109m2.836 65.196V5.109m2.832 65.196V5.109m2.836 65.196V5.109m2.836 65.196V5.109m2.832 65.196V5.109m2.836 65.196V5.109m2.835 65.196V5.109m2.832 65.196V5.109m2.836 65.196V5.109m2.836 65.196V5.109m2.832 65.196V5.109m2.836 65.196V5.109m2.836 65.196V5.109m2.832 65.196V5.109m2.836 65.196V5.109m2.836 65.196V5.109m2.832 65.196V5.109m2.836 65.196V5.109m2.836 65.196V5.109m2.832 65.196V5.109m2.836 65.196V5.109m2.836 65.196V5.109m2.832 65.196V5.109m2.836 65.196V5.109m2.836 65.196V5.109"/></svg>