<svg xmlns="http://www.w3.org/2000/svg" xmlns:xlink="http://www.w3.org/1999/xlink" width="86.636" height="93.62"><defs><path id="b" d="M5.281-3.187c0-.954-.015-3.344-2.422-3.344S.453-4.156.453-3.188c0 1 0 3.297 2.406 3.297 2.391 0 2.422-2.296 2.422-3.296M4-3.297c0 .563 0 1.469-.078 1.985-.14.921-.766 1.062-1.063 1.062-.359 0-.921-.219-1.046-.953-.094-.516-.094-1.547-.094-2.094 0-.719 0-1.375.078-1.89.125-.891.828-.985 1.062-.985.375 0 .782.188.97.625C4-5.172 4-4.109 4-3.297m0 0"/><path id="c" d="M2.36-.781a.784.784 0 0 0-.782-.781.78.78 0 0 0-.766.78.774.774 0 1 0 1.547 0m0 0"/><path id="d" d="M4.922 0v-.469h-1.39v-5.734c0-.234 0-.328-.266-.328-.11 0-.125 0-.22.078-.765.562-1.796.562-2 .562H.845v.47h.203c.156 0 .703-.016 1.297-.204v5.156H.954V0c.437-.031 1.5-.031 1.984-.031s1.546 0 1.984.031m0 0"/><path id="e" d="M5.156-2.219h-.468c-.032.203-.125.844-.266.906-.11.063-.86.063-1.016.063H1.937c.47-.39 1-.812 1.438-1.14 1.14-.844 1.781-1.313 1.781-2.25 0-1.157-1.047-1.891-2.437-1.891-1.219 0-2.156.625-2.156 1.515 0 .594.484.735.718.735C1.61-4.281 2-4.5 2-5c0-.516-.422-.672-.562-.719.28-.234.671-.343 1.03-.343.845 0 1.313.671 1.313 1.421 0 .688-.375 1.375-1.078 2.079l-2 2.046c-.14.11-.14.141-.14.344V0h4.28Zm0 0"/><path id="f" d="M5.156-2c0-1.156-.797-2.078-2.265-2.078-.282 0-.813.031-1.282.344v-1.313c.282.047.391.078.72.078 1.452 0 2.374-1.125 2.374-1.375 0-.078-.016-.187-.14-.187-.032 0-.032 0-.141.047a4.3 4.3 0 0 1-1.531.28c-.75 0-1.282-.202-1.547-.28-.094-.032-.094-.047-.125-.047-.14 0-.14.11-.14.265v2.922c0 .172 0 .297.218.297.125 0 .156-.031.219-.11.39-.468.922-.562 1.328-.562.89 0 .89.875.89 1.672 0 .735 0 1.735-1.187 1.735-.25 0-.875-.063-1.297-.625.36-.016.656-.266.656-.672 0-.532-.437-.672-.672-.672-.14 0-.671.094-.671.703 0 .844.78 1.687 2.015 1.687C4.172.11 5.156-.78 5.156-2m0 0"/><path id="g" d="M5.25-1.797c0-.547-.297-1.406-1.734-1.719.687-.203 1.406-.765 1.406-1.625 0-.765-.75-1.39-2.156-1.39-1.188 0-1.97.64-1.97 1.437 0 .422.313.703.688.703a.67.67 0 0 0 .704-.687c0-.578-.547-.688-.579-.703.344-.282.782-.36 1.094-.36.828 0 .86.641.86.97 0 .124-.016 1.437-1.047 1.5-.407.015-.438.015-.485.03-.094.016-.125.11-.125.172 0 .172.11.172.282.172h.437c1.094 0 1.094.985 1.094 1.5 0 .469 0 1.485-1.031 1.485-.266 0-.782-.047-1.266-.344C1.75-.75 2-1 2-1.406c0-.453-.312-.75-.75-.75-.422 0-.766.265-.766.765 0 .907.97 1.5 2.25 1.5 1.782 0 2.516-1 2.516-1.906m0 0"/><path id="h" d="M5.563-6.422H3.53c-.234 0-1.703-.047-1.844-.094-.203-.03-.218-.125-.234-.218H.984l-.343 2.53h.468c.094-.765.22-.89.266-.905.11-.063.922-.063 1.094-.063H4.14c-.172.219-.36.422-.547.64-.953 1.126-1.672 2.47-1.672 3.938 0 .703.562.703.625.703.156 0 .625-.046.625-.703v-.468c0-.47.031-.954.094-1.422.093-.672.297-1.25.656-1.657l1.547-1.796c.093-.11.093-.141.093-.485m0 0"/><path id="i" d="M5.25-2.047c0-1.39-1.016-2.125-2.219-2.125-.219 0-.781 0-1.203.766v-.188c0-1.14.219-1.562.281-1.719.25-.468.782-.828 1.391-.828.172 0 .516.032.75.266a.595.595 0 0 0-.547.61c0 .343.235.624.625.624s.625-.265.625-.64c0-.625-.422-1.25-1.469-1.25-1.359 0-3 .86-3 3.375 0 .781.079 1.578.5 2.265.47.766 1.22 1 1.922 1C4.281.11 5.25-.703 5.25-2.047m-1.36-.015c0 1 0 1.75-1.015 1.75-.516 0-.781-.391-.86-.563-.156-.312-.156-1.031-.156-1.219 0-1.25.532-1.719 1.079-1.719.953 0 .953.75.953 1.75m0 0"/><path id="j" d="M5.25-1.86c0-1.077-.844-1.546-1.328-1.827.687-.36 1-.797 1-1.376 0-1.015-.906-1.468-2.047-1.468-1.375 0-2.078.797-2.078 1.75 0 .437.187 1.062.953 1.5C.922-2.906.484-2.344.484-1.61.484-.406 1.563.109 2.844.109 4.438.11 5.25-.766 5.25-1.859M4.172-5.046c0 .484-.25.813-.688 1.11l-1.5-.844c-.156-.078-.437-.25-.437-.594 0-.703.89-.766 1.297-.766.828 0 1.328.407 1.328 1.094m.219 3.734c0 .829-.938 1-1.516 1-.969 0-1.547-.515-1.547-1.296 0-.766.531-1.203.89-1.407l1.36.766c.438.25.813.453.813.938m0 0"/><clipPath id="a"><path d="M0 0h84v93.43H0Zm0 0"/></clipPath></defs><g clip-path="url(#a)"><path fill="none" stroke="#000" stroke-miterlimit="10" stroke-width=".399" d="M3.223 89.121c99.215 0 99.215-85.039 0-85.039"/></g><use xlink:href="#b" x=".359" y="92.329"/><use xlink:href="#b" x="22.731" y="88.675"/><use xlink:href="#c" x="28.46" y="88.675"/><use xlink:href="#d" x="31.638" y="88.675"/><use xlink:href="#e" x="37.366" y="88.675"/><use xlink:href="#f" x="43.095" y="88.675"/><use xlink:href="#b" x="48.848" y="79.041"/><use xlink:href="#c" x="54.577" y="79.041"/><use xlink:href="#e" x="57.755" y="79.041"/><use xlink:href="#f" x="63.483" y="79.041"/><use xlink:href="#b" x="59.936" y="65.526"/><use xlink:href="#c" x="65.665" y="65.526"/><use xlink:href="#g" x="68.843" y="65.526"/><use xlink:href="#h" x="74.571" y="65.526"/><use xlink:href="#f" x="80.3" y="65.526"/><use xlink:href="#b" x="70.315" y="49.809"/><use xlink:href="#c" x="76.044" y="49.809"/><use xlink:href="#f" x="79.222" y="49.809"/><use xlink:href="#b" x="59.936" y="34.196"/><use xlink:href="#c" x="65.665" y="34.196"/><use xlink:href="#i" x="68.843" y="34.196"/><use xlink:href="#e" x="74.571" y="34.196"/><use xlink:href="#f" x="80.3" y="34.196"/><use xlink:href="#b" x="48.848" y="20.681"/><use xlink:href="#c" x="54.577" y="20.681"/><use xlink:href="#h" x="57.755" y="20.681"/><use xlink:href="#f" x="63.483" y="20.681"/><use xlink:href="#b" x="22.731" y="11.048"/><use xlink:href="#c" x="28.46" y="11.048"/><use xlink:href="#j" x="31.638" y="11.048"/><use xlink:href="#h" x="37.366" y="11.048"/><use xlink:href="#f" x="43.095" y="11.048"/><use xlink:href="#d" x=".359" y="7.344"/></svg>