<svg xmlns="http://www.w3.org/2000/svg" width="101.78" height="73.298"><defs><clipPath id="a"><path d="M0 0h101.672v21H0Zm0 0"/></clipPath><clipPath id="b"><path d="M0 23h101.672v27H0Zm0 0"/></clipPath><clipPath id="c"><path d="M0 51h101.672v21.945H0Zm0 0"/></clipPath></defs><path fill="none" stroke="#7F7F7F" stroke-miterlimit="10" stroke-width=".199" d="M8.309 64.645h85.039M8.308 36.297h85.04M8.308 7.96h85.04M8.308 64.645V7.953m28.348 56.692V7.953M65 64.645V7.953m28.34 56.692V7.953"/><path fill="#FF7F7F" d="M8.309.863h3.543l3.543 7.09-3.543 7.086H1.219l3.547-7.086L1.219.863Zm14.171 0h3.543l3.547 7.09-3.547 7.086H15.395l3.543-7.086-3.543-7.09Zm14.176 0H40.2l3.543 7.09L40.2 15.04H29.566l3.543-7.086-3.543-7.09Zm14.172 0h3.543l3.543 7.09-3.543 7.086H43.742l3.543-7.086-3.543-7.09ZM65 .863h3.547l3.543 7.09-3.543 7.086H57.914l3.543-7.086-3.543-7.09Zm14.176 0h3.543l3.543 7.09-3.543 7.086H72.086l3.547-7.086-3.547-7.09Zm14.172 0h3.543l3.543 7.09-3.543 7.086H86.26l3.544-7.086-3.543-7.09Zm0 0"/><g clip-path="url(#a)"><path fill="none" stroke="#7F0000" stroke-miterlimit="10" stroke-width=".399" d="M8.309.863h3.543l3.543 7.09-3.543 7.086H1.219l3.547-7.086L1.219.863Zm14.171 0h3.543l3.547 7.09-3.547 7.086H15.395l3.543-7.086-3.543-7.09Zm14.176 0H40.2l3.543 7.09L40.2 15.04H29.566l3.543-7.086-3.543-7.09Zm14.172 0h3.543l3.543 7.09-3.543 7.086H43.742l3.543-7.086-3.543-7.09ZM65 .863h3.547l3.543 7.09-3.543 7.086H57.914l3.543-7.086-3.543-7.09Zm14.176 0h3.543l3.543 7.09-3.543 7.086H72.086l3.547-7.086-3.547-7.09Zm14.172 0h3.543l3.543 7.09-3.543 7.086H86.26l3.544-7.086-3.543-7.09Zm0 0"/></g><path fill="#7FFF7F" d="M8.309 29.21h3.543l3.543 7.087-3.543 7.086H1.219l3.547-7.086-3.547-7.086Zm28.347 0H40.2l3.543 7.087-3.543 7.086H29.566l3.543-7.086-3.543-7.086Zm28.344 0h3.547l3.543 7.087-3.543 7.086H57.914l3.543-7.086-3.543-7.086Zm28.348 0h3.543l3.546 7.087-3.546 7.086H86.26l3.544-7.086-3.543-7.086Zm0 0"/><g clip-path="url(#b)"><path fill="none" stroke="#007F00" stroke-miterlimit="10" stroke-width=".399" d="M8.309 29.21h3.543l3.543 7.087-3.543 7.086H1.219l3.547-7.086-3.547-7.086Zm28.347 0H40.2l3.543 7.087-3.543 7.086H29.566l3.543-7.086-3.543-7.086Zm28.344 0h3.547l3.543 7.087-3.543 7.086H57.914l3.543-7.086-3.543-7.086Zm28.348 0h3.543l3.546 7.087-3.546 7.086H86.26l3.544-7.086-3.543-7.086Zm0 0"/></g><path fill="#7F7FFF" d="M8.309 57.559h3.543l3.543 7.086-3.543 7.085H1.219l3.547-7.085-3.547-7.086Zm42.52 0h3.542l3.543 7.086-3.543 7.085H43.742l3.543-7.085-3.543-7.086Zm42.519 0h3.543l3.546 7.086-3.546 7.085H86.26l3.544-7.085-3.543-7.086Zm0 0"/><g clip-path="url(#c)"><path fill="none" stroke="#00007F" stroke-miterlimit="10" stroke-width=".399" d="M8.309 57.559h3.543l3.543 7.086-3.543 7.085H1.219l3.547-7.085-3.547-7.086Zm42.52 0h3.542l3.543 7.086-3.543 7.085H43.742l3.543-7.085-3.543-7.086Zm42.519 0h3.543l3.546 7.086-3.546 7.085H86.26l3.544-7.085-3.543-7.086Zm0 0"/></g></svg>