<svg xmlns="http://www.w3.org/2000/svg" xmlns:xlink="http://www.w3.org/1999/xlink" width="160.274" height="275.456"><defs><path id="b" d="M8.25 0v-.469h-.969L4.72-6.703c-.11-.25-.219-.25-.39-.25-.282 0-.329.078-.391.25l-2.47 6c-.062.156-.093.234-.843.234H.406V0l1.172-.031c.39 0 .938 0 1.313.031v-.469S2-.469 2-.594l.047-.125.5-1.203h2.672l.593 1.453H4.86V0c.391-.031 1.329-.031 1.766-.031.39 0 1.266 0 1.625.031M5.016-2.39H2.734l1.141-2.766Zm0 0"/><path id="c" d="M2.922 0v-.469h-.688v-6.453L.47-6.844v.469c.625 0 .687 0 .687.39v5.516H.47V0l1.219-.031Zm0 0"/><path id="d" d="M2.844 0v-.469h-.61v-4.015L.5-4.406v.468c.594 0 .656 0 .656.391v3.078H.47V0l1.219-.031Zm-.469-6.047a.774.774 0 0 0-.781-.781.784.784 0 0 0-.782.781c0 .422.36.766.782.766a.77.77 0 0 0 .781-.766m0 0"/><path id="e" d="M4.766-1.172c0-.14-.141-.14-.235-.14-.187 0-.187.03-.25.156-.25.625-.734.812-1.234.812-1.39 0-1.39-1.453-1.39-1.922 0-.562 0-1.843 1.28-1.843.36 0 .516.015.657.046a.62.62 0 0 0-.203.47c0 .437.343.624.609.624.313 0 .64-.219.64-.625 0-.86-1.156-.922-1.734-.922C1.11-4.516.375-3.375.375-2.219.375-.89 1.313.063 2.844.063c1.625 0 1.922-1.157 1.922-1.235m0 0"/><path id="f" d="M4.922-1.172c0-.172-.188-.172-.234-.172-.172 0-.188.047-.25.203-.204.485-.782.797-1.422.797-1.407 0-1.422-1.328-1.422-1.828h3.015c.22 0 .313 0 .313-.265 0-.313-.063-1.047-.563-1.547-.359-.36-.89-.532-1.578-.532C1.187-4.516.313-3.484.313-2.25c0 1.344 1 2.313 2.609 2.313 1.578 0 2-1.063 2-1.235M3.984-2.5h-2.39c.015-.39.031-.812.234-1.14.266-.391.672-.516.953-.516 1.172 0 1.188 1.312 1.203 1.656m0 0"/><path id="g" d="M7.5-1.86c0-.952-.844-1.624-2.031-1.702 1.078-.204 1.718-.797 1.718-1.563 0-.922-.875-1.719-2.468-1.719H.39v.469h1.078v5.906H.39V0h4.625C6.672 0 7.5-.875 7.5-1.86M5.766-5.124c0 .766-.47 1.39-1.438 1.39H2.766v-2.64h1.812c1.016 0 1.188.797 1.188 1.25m.28 3.266c0 .109 0 1.39-1.437 1.39H2.766v-2.906h1.937c.203 0 .672 0 1.016.422.328.422.328.984.328 1.094m0 0"/><path id="h" d="M5.406-2.172c0-1.344-.922-2.344-2.547-2.344C1.22-4.516.313-3.5.313-2.172c0 1.235.89 2.235 2.546 2.235 1.672 0 2.547-1.016 2.547-2.235m-1.281-.11c0 .86 0 1.938-1.266 1.938-1.265 0-1.265-1.078-1.265-1.937 0-.453 0-.953.172-1.297.187-.375.609-.578 1.093-.578.422 0 .844.156 1.063.5.203.344.203.89.203 1.375m0 0"/><path id="i" d="M5.984-2.219c0-1.328-.937-2.265-2.39-2.265-.719 0-1.219.28-1.453.484v-2.922l-1.766.078v.469c.61 0 .688 0 .688.39V0h.468c.157-.187.328-.375.485-.562.078.078.562.625 1.453.625 1.484 0 2.515-.907 2.515-2.282m-1.28 0c0 .469 0 1.016-.25 1.406-.298.407-.75.516-1.079.516-.687 0-1.078-.547-1.187-.687v-2.5c.28-.36.75-.641 1.296-.641 1.22 0 1.22 1.203 1.22 1.906m0 0"/><path id="j" d="M7.64-2.266c0-.203-.077-.203-.25-.203-.124 0-.218 0-.218.172C7.094-.969 5.89-.359 4.89-.359c-.782 0-1.625-.235-2.141-.844-.469-.578-.594-1.313-.594-2.219 0-.562.031-1.625.672-2.297.64-.656 1.516-.765 2.031-.765 1.079 0 2.016.765 2.235 2.03.031.188.047.204.265.204.266 0 .282-.016.282-.281v-2.14c0-.188 0-.282-.188-.282-.094 0-.11.031-.187.094l-.657.593a3.03 3.03 0 0 0-1.968-.687c-2.485 0-4 1.484-4 3.531S2.156.11 4.64.11c1.875 0 3-1.218 3-2.375m0 0"/><path id="k" d="M6.125 0v-.469h-.687v-2.578c0-1.047-.532-1.437-1.532-1.437a1.9 1.9 0 0 0-1.687.953v-3.39l-1.766.077v.469c.61 0 .688 0 .688.39v5.516H.453V0l1.25-.031L2.953 0v-.469h-.687v-2.078c0-1.094.859-1.578 1.5-1.578.328 0 .547.203.547.969V-.47h-.688V0l1.25-.031Zm0 0"/><path id="l" d="M5.516-.234c0-.235-.125-.235-.266-.235-.61-.015-.61-.14-.61-.375v-2.14c0-.891-.702-1.532-2.187-1.532-.562 0-1.781.047-1.781.922 0 .438.344.625.61.625.312 0 .624-.219.624-.625 0-.297-.187-.469-.218-.5a5 5 0 0 1 .718-.062c.75 0 1.11.422 1.11 1.172v.343c-.72.032-3.25.125-3.25 1.563C.266-.125 1.5.062 2.188.062c.796 0 1.265-.406 1.484-.828 0 .313 0 .766 1.047.766h.468c.204 0 .329 0 .329-.234m-2-1.157c0 .97-.922 1.094-1.172 1.094-.516 0-.906-.344-.906-.797 0-1.062 1.578-1.203 2.078-1.234Zm0 0"/><path id="m" d="M4.406-3.672c0-.531-.531-.812-1.062-.812-.688 0-1.094.5-1.313 1.125v-1.125l-1.656.078v.468c.61 0 .688 0 .688.391v3.078H.375V0l1.25-.031C2-.031 2.641-.031 3 0v-.469h-.86v-1.75c0-.687.235-1.906 1.235-1.906 0 0-.187.172-.187.453 0 .406.328.61.609.61.297 0 .61-.204.61-.61m0 0"/><path id="n" d="M5.781-3.953v-.469A13 13 0 0 1 5-4.39l-.906-.03v.468s.468 0 .468.11L4.5-3.72 3.36-1.266 2.093-3.953h.531v-.469l-1.234.031-1.125-.03v.468H.89L2.766 0 2.53.484C2.312.954 2 1.641 1.281 1.641c-.14 0-.156-.016-.234-.047.094-.032.312-.172.312-.532C1.36.734 1.125.5.781.5a.553.553 0 0 0-.562.578c0 .5.469.922 1.062.922.766 0 1.344-.625 1.625-1.187l2.14-4.563c.063-.14.095-.203.735-.203m0 0"/><path id="o" d="M8.14-3.36c0-2.187-1.484-3.484-3.468-3.484H.39v.469h1.078v5.906H.39V0h4.297C6.656 0 8.14-1.219 8.14-3.36m-1.468-.015c0 1.094-.11 1.625-.438 2.063-.468.687-1.343.843-1.953.843H2.828v-5.906h1.453c.657 0 1.485.188 1.969.89.344.516.422 1.188.422 2.11m0 0"/><path id="p" d="M5.781-3.953v-.469c-.25.016-.531.031-.781.031l-.906-.03v.468c.187 0 .468.031.468.11 0 0 0 .015-.046.109l-1.157 2.5-1.265-2.72h.531v-.468l-1.234.031-1.125-.03v.468H.89l1.75 3.75c.125.25.25.25.375.25.172 0 .28-.031.375-.25L5.047-3.75c.062-.14.094-.203.734-.203m0 0"/><path id="q" d="M7.203-2.734h-.469C6.516-1.36 6.234-.47 4.391-.47H2.875V-3.28h.547c.969 0 1.062.437 1.062 1.172h.47v-2.813h-.47c0 .75-.093 1.172-1.062 1.172h-.547v-2.562h1.516c1.609 0 1.875.734 2.03 1.937h.47l-.313-2.406H.391v.468h1.078v5.844H.39V0H6.75Zm0 0"/><path id="r" d="m6.734-4.375-.312-2.406H.39v.468h1.078v5.844H.39V0c.375-.031 1.39-.031 1.828-.031.484 0 1.562 0 2.015.031v-.469H2.875v-2.687h.5c.969 0 1.047.422 1.047 1.156h.469v-2.797h-.47c0 .734-.077 1.172-1.046 1.172h-.5v-2.687h1.406c1.594 0 1.828.765 1.985 1.937Zm0 0"/><path id="s" d="M3.813-1.234v-.532h-.47v.516c0 .672-.327.906-.609.906-.578 0-.578-.64-.578-.86v-2.75h1.469v-.468H2.156v-1.906h-.469c0 1-.484 1.984-1.484 2.016v.359h.828v2.734c0 1.063.86 1.282 1.578 1.282.75 0 1.204-.579 1.204-1.297m0 0"/><path id="t" d="M4.61-2.016h-.47C4.048-1 3.89-.406 2.579-.406h-.86L4.469-4c.095-.11.11-.125.11-.219 0-.203-.14-.203-.328-.203H.594l-.11 1.734h.47c.046-1.015.359-1.374 1.39-1.374h.844L.406-.437C.312-.328.312-.312.312-.22.313 0 .454 0 .642 0h3.78Zm0 0"/><path id="u" d="M8.422-2.281v-.469c-.344.031-1.219.031-1.61.031-.578 0-1.5 0-2.03-.031v.469h1.421v1c0 .187 0 .484-.375.718-.266.141-.578.204-.906.204-.86 0-1.719-.282-2.203-.907-.422-.546-.563-1.25-.563-2.156 0-1.125.203-1.703.578-2.187.391-.5 1.157-.875 2.125-.875 1.063 0 2.016.765 2.235 2.03.031.188.031.204.265.204.25 0 .266-.016.266-.281v-2.14c0-.188 0-.282-.172-.282-.094 0-.11.031-.203.094l-.656.593a3.03 3.03 0 0 0-1.953-.687c-2.453 0-4 1.469-4 3.531C.64-1.437 2.078.11 4.656.11c.328 0 1.36-.015 1.86-.64.297.265.906.531.968.531.141 0 .141-.125.141-.281v-2Zm0 0"/><path id="v" d="M5.563-3.953c0-.235-.172-.578-.625-.578-.157 0-.625.031-1.063.375-.172-.125-.594-.328-1.328-.328-1.438 0-1.985.78-1.985 1.468 0 .407.188.829.516 1.047-.281.36-.344.688-.344.89 0 .157.047.642.438.954-.125.031-.86.25-.86.875C.313 1.25.876 2 2.86 2 4.625 2 5.406 1.422 5.406.719c0-.297-.078-.922-.75-1.266-.562-.281-1.156-.281-2.11-.281-.265 0-.718 0-.765-.016a.625.625 0 0 1-.562-.625c0-.093.047-.25.11-.328.452.234.968.266 1.218.266 1.437 0 1.984-.782 1.984-1.485 0-.468-.25-.796-.406-.953.297-.156.516-.172.625-.187a.43.43 0 0 0-.047.203c0 .25.172.422.438.422a.41.41 0 0 0 .422-.422m-2.141.937c0 .454 0 1.125-.875 1.125s-.875-.671-.875-1.125c0-.437 0-1.109.875-1.109s.875.672.875 1.11M4.547.75c0 .36-.39.89-1.688.89-1.187 0-1.687-.452-1.687-.906 0-.609.625-.609.766-.609h1.171c.313 0 1.438 0 1.438.625m0 0"/><clipPath id="a"><path d="M94 140h65.91v127H94Zm0 0"/></clipPath></defs><path fill="none" stroke="#000" stroke-miterlimit="10" stroke-width=".399" d="M88.387 11.25 63.21 60.566"/><path stroke="#000" stroke-linejoin="round" stroke-miterlimit="10" stroke-width=".39898803000000005" d="m62.078 62.79 2.82-2.571-1.73.433-.668-1.656Zm0 0"/><path fill="none" stroke="#000" stroke-miterlimit="10" stroke-width=".399" d="M84.188 11.25 28.672 61.352"/><path stroke="#000" stroke-linejoin="round" stroke-miterlimit="10" stroke-width=".39898803000000005" d="m26.816 63.023 3.555-1.394-1.773-.211-.032-1.785Zm0 0"/><path fill="none" stroke="#000" stroke-miterlimit="10" stroke-width=".399" d="m20.832 79.8 22.27 47.407"/><path stroke="#000" stroke-linejoin="round" stroke-miterlimit="10" stroke-width=".39898404" d="m44.164 129.465-.3-3.805-.72 1.637-1.718-.492Zm0 0"/><path fill="none" stroke="#000" stroke-miterlimit="10" stroke-width=".399" d="m56.902 77.867-7.363 49.031"/><path stroke="#000" stroke-linejoin="round" stroke-miterlimit="10" stroke-width=".39898005000000003" d="m49.168 129.367 1.863-3.332-1.508.961-1.156-1.363Zm0 0"/><path fill="none" stroke="#000" stroke-miterlimit="10" stroke-width=".399" d="m52.547 144.48 32.808 49.665"/><path stroke="#000" stroke-linejoin="round" stroke-miterlimit="10" stroke-width=".39897207" d="m86.73 196.227-.843-3.723-.477 1.723-1.77-.239Zm0 0"/><path fill="none" stroke="#000" stroke-miterlimit="10" stroke-width=".399" d="m95.516 211.098 25.238 49.402"/><path stroke="#000" stroke-linejoin="round" stroke-miterlimit="10" stroke-width=".39899202" d="m121.887 262.723-.426-3.793-.664 1.66-1.73-.434Zm0 0"/><path fill="none" stroke="#000" stroke-miterlimit="10" stroke-width=".399" d="M125.988 263.79V78.272c0-2.203-.781-5.59-1.742-7.57l-27.25-56.129"/><path stroke="#000" stroke-linejoin="round" stroke-miterlimit="10" stroke-width=".39898404" d="m95.906 12.328.348 3.8.7-1.644 1.722.47Zm0 0"/><path fill="none" stroke="#000" stroke-miterlimit="10" stroke-width=".399" d="M91.973 146.426v47.105"/><path stroke="#000" stroke-linejoin="round" stroke-miterlimit="10" stroke-width=".399" d="m91.973 196.027 1.343-3.57-1.343 1.172-1.348-1.172Zm0 0"/><g clip-path="url(#a)"><path fill="none" stroke="#000" stroke-miterlimit="10" stroke-width=".399" d="m99.844 146.426 57.363 58.254c1.547 1.566 1.953 4.41.91 6.347L131.48 260.54"/></g><path stroke="#000" stroke-linejoin="round" stroke-miterlimit="10" stroke-width=".39898005000000003" d="m130.3 262.734 2.876-2.507-1.742.398-.63-1.672Zm0 0"/><path fill="none" stroke="#000" stroke-miterlimit="10" stroke-width=".399" d="M91.973 11.25v115.496"/><path stroke="#000" stroke-linejoin="round" stroke-miterlimit="10" stroke-width=".399" d="m91.973 129.242 1.343-3.57-1.343 1.176-1.348-1.176Zm0 0"/><use xlink:href="#b" x="79.294" y="7.672"/><use xlink:href="#c" x="87.952" y="7.672"/><use xlink:href="#d" x="91.13" y="7.672"/><use xlink:href="#e" x="94.308" y="7.672"/><use xlink:href="#f" x="99.399" y="7.672"/><use xlink:href="#g" x="47.834" y="74.287"/><use xlink:href="#h" x="55.983" y="74.287"/><use xlink:href="#i" x="61.712" y="74.287"/><use xlink:href="#j" x="-.002" y="74.287"/><use xlink:href="#k" x="8.277" y="74.287"/><use xlink:href="#l" x="14.643" y="74.287"/><use xlink:href="#m" x="20.212" y="74.287"/><use xlink:href="#c" x="24.934" y="74.287"/><use xlink:href="#n" x="28.113" y="74.287"/><use xlink:href="#o" x="35.438" y="140.901"/><use xlink:href="#l" x="44.225" y="140.901"/><use xlink:href="#p" x="49.475" y="140.901"/><use xlink:href="#f" x="55.204" y="140.901"/><use xlink:href="#q" x="82.716" y="207.515"/><use xlink:href="#p" x="90.248" y="207.515"/><use xlink:href="#f" x="95.976" y="207.515"/><use xlink:href="#r" x="114.137" y="274.13"/><use xlink:href="#m" x="120.394" y="274.13"/><use xlink:href="#d" x="125.116" y="274.13"/><use xlink:href="#s" x="128.294" y="274.13"/><use xlink:href="#t" x="132.747" y="274.13"/><use xlink:href="#u" x="74.129" y="140.901"/><use xlink:href="#f" x="83.135" y="140.901"/><use xlink:href="#h" x="88.386" y="140.901"/><use xlink:href="#m" x="94.114" y="140.901"/><use xlink:href="#v" x="98.836" y="140.901"/><use xlink:href="#f" x="104.565" y="140.901"/></svg>