<svg xmlns="http://www.w3.org/2000/svg" xmlns:xlink="http://www.w3.org/1999/xlink" width="98.048" height="58.898"><defs><path id="b" d="M.047-5.531c-.234-.016-.25.11-.25.25-.047.61-.172.61-.406.593l-2.141-.109c-.89-.047-1.562.625-1.64 2.11-.032.562-.048 1.78.827 1.828.438.03.641-.313.657-.578a.613.613 0 0 0-.594-.657c-.297-.015-.469.172-.516.203a4 4 0 0 1-.015-.718c.031-.75.468-1.094 1.218-1.063l.344.016c0 .734-.031 3.265 1.406 3.344C-.109-.266.141-1.5.173-2.187c.047-.797-.344-1.282-.75-1.516.312.015.766.031.812-1.016l.032-.468c0-.204.015-.329-.22-.344M-1.22-3.594c.969.063 1.047.985 1.047 1.235-.031.515-.39.89-.844.859-1.062-.047-1.125-1.625-1.14-2.14Zm0 0"/><path id="c" d="M2.11-6.031c-1.032-.844-2.344-.719-3.266.406-.469.547-.563 1.125-.563 1.422l-2.25-1.86L-5.03-4.64l.36.297c.39-.484.437-.531.734-.281L.672-.812l.297-.375c-.031-.235-.063-.485-.125-.72.11-.015.844-.03 1.406-.718.953-1.14.906-2.516-.14-3.406m-.813.984c.36.313.781.656.922 1.094.125.484-.094.906-.297 1.172-.438.515-1.11.484-1.297.469l-1.922-1.594c-.094-.453 0-.985.344-1.406.781-.938 1.703-.172 2.25.265m0 0"/><path id="d" d="m2.078-1.953-.328-.344-.453.422-2.75-2.922-1.203 1.234.312.344c.438-.406.485-.453.766-.156L.516-1.141l-.5.47.328.343.875-.844Zm-4.484-4.078a.787.787 0 0 0-1.11-.032c-.296.297-.328.782-.03 1.094a.77.77 0 0 0 1.093.032.77.77 0 0 0 .047-1.094m0 0"/><path id="e" d="M2.11-6.5c-.141-.187-.485-.36-.86-.094a1.77 1.77 0 0 0-.625.953c-.219-.015-.672.094-1.25.532-1.156.859-1.14 1.812-.719 2.359.235.328.64.547 1.032.531-.016.453.14.75.265.922.094.125.406.484.906.5C.781-.703.33-.094.703.422c.297.39 1.188.672 2.781-.516 1.407-1.062 1.704-2 1.282-2.562-.172-.235-.61-.688-1.36-.563-.625.11-1.094.453-1.86 1.031-.218.157-.577.422-.624.454a.635.635 0 0 1-.938-.5c.5-.079.938-.375 1.141-.516 1.156-.86 1.14-1.812.719-2.375a1.4 1.4 0 0 0-.907-.531c.141-.297.313-.438.391-.516 0 .063.047.14.078.188.14.203.39.25.61.093a.43.43 0 0 0 .093-.609M.952-4.469c.266.36.672.907-.031 1.438-.703.515-1.11-.031-1.375-.39-.266-.345-.672-.892.031-1.407.703-.531 1.11.016 1.375.36m3.14 2.36c.204.28.22.937-.812 1.718-.953.704-1.64.641-1.906.282-.36-.5.14-.875.25-.953l.953-.704c.25-.187 1.14-.859 1.516-.343m0 0"/><path id="f" d="m2.688.266-.282-4.907-1.828.188.031.469C.781-4 1-4 1.141-4c.218.031.218.156.234.375L1.609.328c.016.5-.078 1.235-.671 1.266-.172.015-.25-.016-.391-.047.172-.14.203-.375.203-.516A.597.597 0 0 0 .094.453c-.375.016-.61.313-.594.672.031.563.656.875 1.469.828.86-.047 1.765-.64 1.719-1.687m-.376-6.453c-.03-.438-.39-.766-.812-.735a.775.775 0 0 0-.734.828c.015.422.39.75.828.719a.78.78 0 0 0 .718-.812m0 0"/><path id="g" d="m6.125.281.016-.468C5.53-.22 5.453-.22 5.484-.61l.157-3.625H3.828l-.015.468c.609.016.687.032.656.422L4.39-1.438c-.047.813-.578 1.313-1.297 1.282-.781-.031-.797-.281-.781-.828l.156-3.391-1.813-.016-.015.47c.609.03.687.03.656.421l-.094 2.328C1.141-.109 1.937.156 2.938.203c.25 0 .968.031 1.453-.719l-.032.782Zm0 0"/><path id="h" d="m2.813.422.062-.469-.61-.094.594-3.968-1.718-.172-.063.468c.578.079.64.094.578.47L1.203-.298l-.672-.11-.062.47 1.203.156Zm.406-6.063c.062-.437-.203-.812-.64-.875-.423-.062-.845.22-.907.657-.063.422.25.812.672.875a.766.766 0 0 0 .875-.657m0 0"/><path id="i" d="M4.906-.031c.047-.14-.093-.172-.187-.188-.188-.047-.203-.015-.297.094-.375.547-.89.625-1.375.5C1.687.063 2.03-1.359 2.14-1.812c.125-.547.422-1.797 1.672-1.5.343.078.5.124.64.203a.57.57 0 0 0-.312.406c-.11.437.172.687.437.75.297.062.688-.063.781-.469.188-.828-.921-1.156-1.484-1.297-1.75-.406-2.734.531-3 1.656C.563-.766 1.265.376 2.75.72c1.578.39 2.14-.672 2.156-.75m0 0"/><path id="j" d="m6.797-1.672.156-.437a8 8 0 0 1-.719-.25l-.859-.344-.156.437s.437.157.39.266l-.078.094-1.953 1.89-.234-2.953.5.188L4-3.22l-1.156-.406-1.047-.422-.156.438.578.218.375 4.36-.39.375c-.36.36-.907.89-1.579.64-.14-.046-.156-.078-.203-.109.094 0 .344-.062.469-.39A.538.538 0 0 0 .563.75c-.25-.094-.594-.031-.735.344-.172.468.11 1.015.672 1.234.719.266 1.469-.125 1.938-.547L6.03-1.75c.11-.094.172-.156.766.078m0 0"/><path id="k" d="M3.016 4.61c.203-.11.14-.204.078-.329-.297-.547-.188-.61 0-.734l1.844-1.094c.765-.453.953-1.375.187-2.656-.281-.484-.937-1.5-1.687-1.047-.376.219-.376.61-.235.828.156.281.5.438.86.235a.67.67 0 0 0 .312-.454c.188.22.375.485.438.579.375.656.187 1.171-.454 1.546l-.296.188c-.391-.594-1.766-2.719-3-1.984-.813.484-.344 1.64 0 2.218.421.688 1 .89 1.468.86-.265.156-.656.39-.125 1.297l.25.39c.094.188.156.281.36.156M3 2.311c-.844.485-1.422-.234-1.547-.453-.266-.437-.172-.953.219-1.187.922-.531 1.844.75 2.125 1.156Zm0 0"/><path id="l" d="M4.297 4.719c1.234-.5 1.766-1.688 1.219-3.016C5.234 1.016 4.766.625 4.5.484l.453-.171-.719-1.625-.437.187c.234.563.25.64-.11.781L-.968 1.531l-.25-.64-.437.172.5 1.156.437 1.172.438-.172-.266-.64 1.719-.688c-.14.53-.094.968.062 1.343.563 1.391 1.782 2 3.063 1.485M3.828 3.53c-1.312.531-2.047.063-2.297-.531-.047-.125-.218-.562.11-1.187.062-.141.078-.157.265-.22L3.86.798c.172-.063.204-.047.375.015.516.204.782.688.86.891.25.61-.094 1.36-1.266 1.828m0 0"/><path id="m" d="M3.531 5.313c1.297-.297 2-1.407 1.672-2.797-.172-.735-.594-1.188-.812-1.36l.468-.11-.484-1.702-.453.11c.14.593.156.671-.203.75l-4.89 1.171-.157-.672-.469.11.313 1.203.25 1.234.468-.11-.156-.671L.875 2.03c-.219.5-.234.969-.14 1.36.343 1.453 1.468 2.25 2.796 1.922m-.297-1.25c-1.359.328-2.03-.235-2.171-.86-.047-.14-.141-.594.296-1.156.079-.14.094-.156.282-.188l2.047-.484c.187-.047.203-.031.39.078.469.281.656.781.703 1 .157.64-.312 1.328-1.547 1.61m0 0"/><path id="n" d="m.375 2.89.469-.062-.094-.672 6.39-.828-.296-1.75-.453.063c.078.609.093.672-.297.718l-5.469.72L.531.405.063.47.25 1.672Zm0 0"/><path id="o" d="M1.406 4.86c.172 0 .157-.188.157-.235 0-.172-.063-.187-.22-.234C.86 4.203.517 3.64.485 3 .422 1.594 1.75 1.516 2.25 1.484L2.39 4.5c0 .219.016.313.282.313.312-.016 1.047-.11 1.515-.641.344-.375.485-.922.454-1.61C4.578.97 3.5.156 2.266.204.922.266 0 1.313.078 2.922.141 4.5 1.234 4.875 1.406 4.859m1.282-.985-.11-2.39c.39-.016.813-.016 1.14.171.407.25.548.657.563.938.063 1.172-1.25 1.234-1.593 1.281m0 0"/><clipPath id="a"><path d="M0 9h96v49.848H0Zm0 0"/></clipPath></defs><path fill="none" stroke="#7F7F7F" stroke-miterlimit="10" stroke-width=".199" d="M5.023 57.734h85.043M5.023 29.387h85.043M5.023 1.05h85.043M5.023 57.734V1.04m28.348 56.695V1.04M61.72 57.734V1.04m28.336 56.695V1.04"/><g clip-path="url(#a)"><path fill="none" stroke="red" stroke-dasharray="2.98883 2.98883" stroke-miterlimit="10" stroke-width=".399" d="M5.023 57.734c0-56.695 85.043-56.695 85.043 0"/></g><use xlink:href="#b" x="4.954" y="57.73"/><use xlink:href="#c" x="12.231" y="32.493"/><use xlink:href="#d" x="16.368" y="27.65"/><use xlink:href="#e" x="18.644" y="25.415"/><use xlink:href="#f" x="43.051" y="15.393"/><use xlink:href="#g" x="46.548" y="15.118"/><use xlink:href="#h" x="52.907" y="15.489"/><use xlink:href="#i" x="56.065" y="15.91"/><use xlink:href="#j" x="61.034" y="17.068"/><use xlink:href="#k" x="82.792" y="32.454"/><use xlink:href="#l" x="85.667" y="37.244"/><use xlink:href="#m" x="88.047" y="43.165"/><use xlink:href="#n" x="89.431" y="49.382"/><use xlink:href="#o" x="89.882" y="52.535"/></svg>