<svg xmlns="http://www.w3.org/2000/svg" width="93.476" height="313.994"><defs><clipPath id="a"><path d="M50 0h43.215v65H50Zm0 0"/></clipPath><clipPath id="b"><path d="M51 249h42.215v64.992H51Zm0 0"/></clipPath><clipPath id="c"><path d="M0 257h51v56.992H0Zm0 0"/></clipPath></defs><path fill="none" stroke="#FFF200" stroke-miterlimit="10" stroke-width=".996" d="m4.637 44.348.015-1.352.051-1.348.082-1.347.121-1.34.153-1.344.191-1.336.23-1.328.27-1.324.309-1.313.347-1.3.387-1.293.43-1.282.472-1.261.52-1.266-1.89-1.902 5.402.304-3.434-4.058 5.344.851-2.996-4.39 5.226 1.406-2.52-4.68 5.051 1.95-2.015-4.918 2.46 1.187.747-.61m0 0 1.07-.82 1.102-.78 1.12-.747L24.033 8l1.171-.672 1.192-.633 1.21-.59 1.227-.554 1.246-.516 1.266-.48 1.273-.438 1.29-.398 1.296-.364.52-.128"/><path fill="none" stroke="#FFF200" stroke-linecap="round" stroke-linejoin="round" stroke-miterlimit="10" stroke-width=".79698406" d="M33.484 1.398c.348.809 2.203 1.688 2.66 1.727-.386.242-1.62 1.887-1.55 2.762"/><g clip-path="url(#a)"><path fill="none" stroke="#FFD900" stroke-miterlimit="10" stroke-width=".996" d="m64.383 5.094 1.242.52 1.227.558 1.21.598 1.188.636 1.168.672 1.144.715 1.122.75 1.097.789 1.067.824 1.039.86 1.008.898.976.93.942.965.921 1.011 2.532-.89-2.598 4.746 5.14-1.348-3.078 4.453 5.254-.804-3.523 4.105 5.309-.262-3.918 3.73 5.312.262-2.11 1.727.243.934m0 0 .3 1.316.266 1.32.227 1.332.187 1.336.149 1.344.113 1.344.082 1.344.043 1.347.012 1.352-.024 1.488-.062 1.484-.11 1.485-.156 1.457"/></g><path fill="none" stroke="#FFD900" stroke-linecap="round" stroke-linejoin="round" stroke-miterlimit="10" stroke-width=".7969601500000001" d="M91.809 48.95c-.88.05-2.34 1.487-2.532 1.902-.097-.446-1.218-2.165-2.062-2.403"/><path fill="none" stroke="#FFB300" stroke-miterlimit="10" stroke-width=".996" d="m77.574 76.652-.976 1.125-1 1.098-1.028 1.078-1.047 1.059-1.066 1.035-1.082 1.02-1.102.996-1.117.984-1.133.965-1.144.949-1.156.937-1.993 1.559.727 2.582-4.605-2.777 1.351 5.18-4.535-2.88 1.246 5.211-4.484-2.957 1.175 5.227-4.449-3.004 1.13 5.238-2.216-1.515-.8.535m0 0-1.239.828-1.238.824-1.238.828-1.235.825-1.234.832-1.227.832-1.23.84-1.223.843-1.222.848-1.211.86-1.211.863-1.371 1.003"/><path fill="none" stroke="#FFB300" stroke-linecap="round" stroke-linejoin="round" stroke-miterlimit="10" stroke-width=".7969601500000001" d="M36.152 111.367c-.629-.617-2.675-.73-3.113-.59.266-.37.781-2.359.387-3.144"/><path fill="none" stroke="#FF8C00" stroke-miterlimit="10" stroke-width=".996" d="m12.645 130.832-.805 1.25-.77 1.273-.73 1.297-.692 1.317-.648 1.34-.605 1.359-.563 1.375-.516 1.398-.472 1.41-.426 1.426-.379 1.442-.535 2.472 2.262 1.442-5.2 1.148 4.73 2.606-5.093 1.562 4.918 2.23-4.969 1.934 5.067 1.867-4.813 2.297 5.196 1.477-2.313 1.285.164.95m0 0 .29 1.46.335 1.45.383 1.44.43 1.423.476 1.41.52 1.394.57 1.38.61 1.355.652 1.336.695 1.316.734 1.293.899 1.441"/><path fill="none" stroke="#FF8C00" stroke-linecap="round" stroke-linejoin="round" stroke-miterlimit="10" stroke-width=".79697609" d="M13.094 180.996c-.66.582-.922 2.617-.817 3.059-.351-.29-2.297-.953-3.109-.617"/><path fill="none" stroke="#F60" stroke-miterlimit="10" stroke-width=".996" d="m32.484 204.281 1.2.883 1.203.871 1.21.867 1.215.856 1.223.847 1.223.844 1.23.84 1.23.832 1.235.832 1.234.828 1.239.824 2.105 1.403 2.211-1.52-1.11 5.25 4.427-3.023-1.137 5.246 4.45-2.992-1.196 5.238 4.484-2.93-1.277 5.22 4.535-2.849-.68 2.606.766.582m0 0 1.176.91 1.168.922 1.152.937 1.145.95 1.128.968 1.118.985 1.097 1 1.082 1.02 1.067 1.038 1.043 1.059 1.023 1.082 1.133 1.266"/><path fill="none" stroke="#F60" stroke-linecap="round" stroke-linejoin="round" stroke-miterlimit="10" stroke-width=".7969601500000001" d="M77.402 235.14c-.55.684-.46 2.739-.28 3.157-.395-.227-2.423-.547-3.165-.078"/><g clip-path="url(#b)"><path fill="none" stroke="#FF4000" stroke-miterlimit="10" stroke-width=".996" d="m89.195 263.934.18 1.476.14 1.48.094 1.485.055 1.488.012 1.489-.02 1.347-.054 1.348-.09 1.348-.125 1.343-.16 1.34-.2 1.332-.238 1.328-.426 1.977 2.192 1.547-5.368.644 4.106 3.383-5.406.133 3.758 3.765-5.395-.406 3.352 4.125-5.325-.96 2.907 4.449-2.637-.707-.625.738m0 0-.899 1.008-.933.972-.969.938-1 .902-1.031.871-1.063.832-1.09.797-1.113.758-1.14.723-1.164.683-1.184.645-1.203.605-1.223.57-.492.207"/></g><path fill="none" stroke="#FF4000" stroke-linecap="round" stroke-linejoin="round" stroke-miterlimit="10" stroke-width=".7969681200000001" d="M67.918 311.387c-.473-.742-2.445-1.317-2.898-1.278.34-.304 1.293-2.12 1.085-2.976"/><g clip-path="url(#c)"><path fill="none" stroke="#FF1A00" stroke-miterlimit="10" stroke-width=".996" d="m36.813 312.504-1.31-.317-1.304-.351-1.289-.39-1.277-.43-1.266-.47-1.25-.507-1.234-.547-1.215-.586-1.195-.62-1.176-.661-1.152-.7-1.13-.738-1.105-.777-1.094-.824-2.32 1.351 1.66-5.152-4.793 2.297 2.18-4.953-5.004 1.781 2.688-4.695-5.164 1.246 3.167-4.39-5.27.699 1.77-2.075-.398-.879m0 0-.523-1.242-.48-1.262-.442-1.277-.395-1.285-.36-1.3-.316-1.313-.277-1.32-.238-1.329-.2-1.332-.163-1.34-.13-1.343-.09-1.348-.058-1.348-.012-.824"/></g><path fill="none" stroke="#FF1A00" stroke-linecap="round" stroke-linejoin="round" stroke-miterlimit="10" stroke-width=".79697609" d="M2.363 273.719c.864-.157 2.14-1.766 2.282-2.2.148.43 1.472 2 2.34 2.133"/></svg>