<svg xmlns="http://www.w3.org/2000/svg" width="104.375" height="80.57"><defs><clipPath id="a"><path d="M0 0h40v80.355H0Zm0 0"/></clipPath><clipPath id="b"><path d="M10 0h94.063v47H10Zm0 0"/></clipPath><clipPath id="c"><path d="M28 32h76.063v48.355H28Zm0 0"/></clipPath></defs><path fill="#BF7F40" d="M33.969 79.035.895 64.211V32.266L15.93 1.254l18.039 39.45Zm0 0"/><g clip-path="url(#a)"><path fill="none" stroke="#000" stroke-miterlimit="10" stroke-width=".399" d="M33.969 79.035.895 64.211V32.266L15.93 1.254l18.039 39.45Zm0 0"/></g><path fill="#B20000" d="m33.969 40.703 68.738-2.605L82.918 6.145 15.93 1.254Zm0 0"/><g clip-path="url(#b)"><path fill="none" stroke="#000" stroke-miterlimit="10" stroke-width=".399" d="m33.969 40.703 68.738-2.605L82.918 6.145 15.93 1.254Zm0 0"/></g><path fill="#C96" d="M33.969 79.035V40.703l68.738-2.605v30.668Zm0 0"/><g clip-path="url(#c)"><path fill="none" stroke="#000" stroke-miterlimit="10" stroke-width=".399" d="M33.969 79.035V40.703l68.738-2.605v30.668Zm0 0"/></g></svg>