<svg xmlns="http://www.w3.org/2000/svg" xmlns:xlink="http://www.w3.org/1999/xlink" width="261.848" height="149.384"><defs><path id="b" d="M8.547-.953c0-.219-.14-.219-.235-.219-.203 0-.218.11-.234.234-.047.47-.328.688-.625.688-.61 0-.687-.703-.75-1.125-.016-.11-.094-.797-.11-.844-.14-.703-.687-1.015-1.109-1.172C6.641-3.687 7.141-4.344 7.141-5c0-1-1.094-1.844-2.97-1.844H.392v.469h1.078v5.906H.39V0C.75-.031 1.719-.031 2.14-.031s1.39 0 1.75.031v-.469H2.828v-2.765h1.156c.141 0 .579 0 .891.328.313.36.313.547.313 1.265 0 .657 0 1.157.703 1.485.437.219 1.062.265 1.468.265 1.063 0 1.188-.89 1.188-1.062M5.625-4.984c0 .562 0 1.39-1.64 1.39H2.827v-2.781H4c1.61 0 1.625.781 1.625 1.39m0 0"/><path id="c" d="M5.406-2.172c0-1.344-.922-2.344-2.547-2.344C1.22-4.516.313-3.5.313-2.172c0 1.235.89 2.235 2.546 2.235 1.672 0 2.547-1.016 2.547-2.235m-1.281-.11c0 .86 0 1.938-1.266 1.938-1.265 0-1.265-1.078-1.265-1.937 0-.453 0-.953.172-1.297.187-.375.609-.578 1.093-.578.422 0 .844.156 1.063.5.203.344.203.89.203 1.375m0 0"/><path id="d" d="M6.125 0v-.469c-.61 0-.687 0-.687-.39v-3.625l-1.813.078v.468c.61 0 .688 0 .688.391v1.906c0 .813-.516 1.344-1.235 1.344-.781 0-.812-.25-.812-.797v-3.39l-1.813.078v.468c.61 0 .688 0 .688.391v2.328c0 1.063.797 1.282 1.797 1.282.25 0 .968 0 1.421-.782v.782Zm0 0"/><path id="e" d="M6.125 0v-.469h-.687v-2.578c0-1.047-.532-1.437-1.532-1.437-.953 0-1.484.562-1.75 1.078v-1.078l-1.703.078v.468c.61 0 .688 0 .688.391v3.078H.453V0l1.25-.031L2.953 0v-.469h-.687v-2.078c0-1.094.859-1.578 1.5-1.578.328 0 .547.203.547.969V-.47h-.688V0l1.25-.031Zm0 0"/><path id="f" d="M5.984 0v-.469c-.609 0-.687 0-.687-.39v-6.063l-1.766.078v.469c.625 0 .703 0 .703.39v1.954a2.18 2.18 0 0 0-1.359-.453c-1.453 0-2.5.875-2.5 2.28 0 1.313.922 2.267 2.39 2.267.61 0 1.094-.235 1.407-.485v.485ZM4.172-1.031c-.14.187-.547.734-1.297.734-1.219 0-1.219-1.203-1.219-1.906 0-.485 0-1.016.25-1.406.297-.422.766-.516 1.078-.516.563 0 .97.313 1.188.61Zm0 0"/><path id="g" d="M4.922-1.172c0-.172-.188-.172-.234-.172-.172 0-.188.047-.25.203-.204.485-.782.797-1.422.797-1.407 0-1.422-1.328-1.422-1.828h3.015c.22 0 .313 0 .313-.265 0-.313-.063-1.047-.563-1.547-.359-.36-.89-.532-1.578-.532C1.187-4.516.313-3.484.313-2.25c0 1.344 1 2.313 2.609 2.313 1.578 0 2-1.063 2-1.235M3.984-2.5h-2.39c.015-.39.031-.812.234-1.14.266-.391.672-.516.953-.516 1.172 0 1.188 1.312 1.203 1.656m0 0"/><path id="h" d="M4.766-1.172c0-.14-.141-.14-.235-.14-.187 0-.187.03-.25.156-.25.625-.734.812-1.234.812-1.39 0-1.39-1.453-1.39-1.922 0-.562 0-1.843 1.28-1.843.36 0 .516.015.657.046a.62.62 0 0 0-.203.47c0 .437.343.624.609.624.313 0 .64-.219.64-.625 0-.86-1.156-.922-1.734-.922C1.11-4.516.375-3.375.375-2.219.375-.89 1.313.063 2.844.063c1.625 0 1.922-1.157 1.922-1.235m0 0"/><path id="i" d="M3.813-1.234v-.532h-.47v.516c0 .672-.327.906-.609.906-.578 0-.578-.64-.578-.86v-2.75h1.469v-.468H2.156v-1.906h-.469c0 1-.484 1.984-1.484 2.016v.359h.828v2.734c0 1.063.86 1.282 1.578 1.282.75 0 1.204-.579 1.204-1.297m0 0"/><path id="j" d="M5.516-.234c0-.235-.125-.235-.266-.235-.61-.015-.61-.14-.61-.375v-2.14c0-.891-.702-1.532-2.187-1.532-.562 0-1.781.047-1.781.922 0 .438.344.625.61.625.312 0 .624-.219.624-.625 0-.297-.187-.469-.218-.5a5 5 0 0 1 .718-.062c.75 0 1.11.422 1.11 1.172v.343c-.72.032-3.25.125-3.25 1.563C.266-.125 1.5.062 2.188.062c.796 0 1.265-.406 1.484-.828 0 .313 0 .766 1.047.766h.468c.204 0 .329 0 .329-.234m-2-1.157c0 .97-.922 1.094-1.172 1.094-.516 0-.906-.344-.906-.797 0-1.062 1.578-1.203 2.078-1.234Zm0 0"/><path id="k" d="M5.563-3.953c0-.235-.172-.578-.625-.578-.157 0-.625.031-1.063.375-.172-.125-.594-.328-1.328-.328-1.438 0-1.985.78-1.985 1.468 0 .407.188.829.516 1.047-.281.36-.344.688-.344.89 0 .157.047.642.438.954-.125.031-.86.25-.86.875C.313 1.25.876 2 2.86 2 4.625 2 5.406 1.422 5.406.719c0-.297-.078-.922-.75-1.266-.562-.281-1.156-.281-2.11-.281-.265 0-.718 0-.765-.016a.625.625 0 0 1-.562-.625c0-.093.047-.25.11-.328.452.234.968.266 1.218.266 1.437 0 1.984-.782 1.984-1.485 0-.468-.25-.796-.406-.953.297-.156.516-.172.625-.187a.43.43 0 0 0-.047.203c0 .25.172.422.438.422a.41.41 0 0 0 .422-.422m-2.141.937c0 .454 0 1.125-.875 1.125s-.875-.671-.875-1.125c0-.437 0-1.109.875-1.109s.875.672.875 1.11M4.547.75c0 .36-.39.89-1.688.89-1.187 0-1.687-.452-1.687-.906 0-.609.625-.609.766-.609h1.171c.313 0 1.438 0 1.438.625m0 0"/><path id="l" d="M2.922 0v-.469h-.688v-6.453L.47-6.844v.469c.625 0 .687 0 .687.39v5.516H.47V0l1.219-.031Zm0 0"/><path id="m" d="M3.078.313c0-.125-.047-.157-.187-.25C2.063-.5 1.75-1.391 1.75-2.125c0-.672.25-1.594 1.156-2.203.125-.094.172-.125.172-.25a.254.254 0 0 0-.265-.25c-.204 0-1.641.906-1.641 2.703 0 .813.312 1.438.562 1.781.375.516.907.907 1.079.907.218 0 .265-.172.265-.25m0 0"/><path id="n" d="M3.219-.906c0-.735-.906-.906-1.14-.938l-.704-.125C1.188-2 1-2.079 1-2.25c0-.156.219-.328.813-.328.515 0 .609.172.625.328.015.14.03.281.28.281.298 0 .298-.156.298-.328v-.469c0-.14-.016-.328-.25-.328-.157 0-.22.063-.25.125-.282-.125-.563-.125-.688-.125-1.187 0-1.344.594-1.344.844 0 .656.735.797 1.391.89.297.063.828.141.828.454 0 .234-.25.422-.828.422-.297 0-.656-.063-.812-.563C1.03-1.203.984-1.28.78-1.28c-.297 0-.297.172-.297.328v.656c0 .14 0 .344.25.344.079 0 .188 0 .282-.234.328.218.672.234.859.234 1.125 0 1.344-.61 1.344-.953m0 0"/><path id="o" d="M2.313-.469a.477.477 0 0 0-.485-.484.47.47 0 0 0-.469.469c0 .28.22.484.47.484a.473.473 0 0 0 .484-.469m0 0"/><path id="p" d="M3.266-.797c0-.234-.235-.234-.297-.234-.125 0-.203 0-.266.172-.047.078-.187.375-.625.375a1.027 1.027 0 0 1-1.015-1.032c0-.312.187-1.062 1.062-1.062l.344.015c.015.282.172.376.36.376.187 0 .358-.126.358-.36 0-.531-.734-.547-1.062-.547-1.219 0-1.64.953-1.64 1.578 0 .844.671 1.563 1.546 1.563 1 0 1.235-.719 1.235-.844m0 0"/><path id="q" d="M3.25-.797c0-.234-.234-.234-.281-.234-.156 0-.219.015-.281.172-.141.328-.485.375-.657.375-.469 0-.937-.297-1.062-.813h1.953c.172 0 .328 0 .328-.312 0-.797-.453-1.485-1.375-1.485-.828 0-1.516.703-1.516 1.563S1.08.047 1.984.047c.938 0 1.266-.656 1.266-.844m-.594-1.015H.97c.125-.438.484-.766.906-.766.328 0 .703.156.781.765m0 0"/><path id="r" d="M3.578-.266c0-.25-.203-.25-.328-.25H3v-1.53c0-.72-.36-1.032-.937-1.032-.391 0-.672.172-.844.297 0-.172-.047-.25-.313-.25h-.5c-.14 0-.328 0-.328.25 0 .265.203.265.313.265h.25v2H.406c-.14 0-.328 0-.328.25C.078 0 .281 0 .391 0h1.093c.11 0 .329 0 .329-.266 0-.25-.204-.25-.344-.25h-.25v-1.156c0-.64.484-.875.797-.875.328 0 .406.172.406.547v1.484h-.203c-.14 0-.344 0-.344.25 0 .266.219.266.344.266H3.25c.11 0 .328 0 .328-.266m0 0"/><path id="s" d="M3.14-.906c0-.156 0-.313-.296-.313-.266 0-.266.157-.266.297-.015.375-.36.438-.515.438-.454 0-.454-.313-.454-.47v-1.562h1.047c.125 0 .328 0 .328-.265 0-.25-.187-.25-.328-.25H1.61v-.516c0-.14-.015-.328-.296-.328-.282 0-.282.172-.282.328v.516H.484c-.125 0-.328 0-.328.25 0 .265.203.265.328.265h.547v1.61c0 .687.485.953 1.016.953S3.14-.266 3.14-.906m0 0"/><path id="t" d="M3.406-2.594c0-.156-.078-.484-.703-.484-.328 0-.734.11-1.094.469v-.094c0-.25-.046-.328-.328-.328h-.75c-.125 0-.328 0-.328.25 0 .265.203.265.328.265h.5v2h-.5c-.125 0-.328 0-.328.25C.203 0 .406 0 .531 0h1.781c.126 0 .329 0 .329-.266 0-.25-.203-.25-.328-.25h-.704v-.796c0-.61.36-1.22 1.11-1.235 0 .156.172.281.344.281.187 0 .343-.125.343-.328m0 0"/><path id="u" d="M2.484-2.125c0-.828-.312-1.453-.562-1.797-.375-.515-.906-.906-1.078-.906-.203 0-.266.187-.266.25 0 .125.094.187.14.219 1.095.718 1.188 1.797 1.188 2.234 0 .656-.25 1.578-1.14 2.188C.64.14.578.188.578.313c0 .078.063.25.266.25s1.64-.907 1.64-2.688m0 0"/><path id="v" d="M3.469-.266c0-.25-.203-.25-.328-.25h-.25l-.828-1.046.734-.954h.234c.125 0 .344 0 .344-.265 0-.25-.219-.25-.344-.25H2.25c-.125 0-.328 0-.328.25 0 .203.11.265.281.265l-.39.547-.422-.547c.156 0 .28-.062.28-.265 0-.25-.202-.25-.327-.25H.547c-.125 0-.328 0-.328.25 0 .265.219.265.328.265h.25l.75.954L.75-.516H.516c-.125 0-.344 0-.344.25C.172 0 .39 0 .516 0h.78c.126 0 .329 0 .329-.266 0-.203-.11-.25-.297-.25l.484-.703.5.703c-.187 0-.296.047-.296.25 0 .266.203.266.328.266h.797c.109 0 .328 0 .328-.266m0 0"/><path id="w" d="M3.094-.266c0-.25-.188-.25-.313-.25H2.22V-4c0-.125-.016-.328-.266-.328-.156 0-.219.094-.25.187-.234.547-.578.625-.687.641-.141 0-.313.031-.313.266 0 .203.156.25.281.25s.375-.032.657-.235v2.703h-.563c-.14 0-.328 0-.328.25C.75 0 .953 0 1.078 0h1.703c.125 0 .313 0 .313-.266m0 0"/><path id="x" d="M3.313-2.125c0-1.297-.72-2.203-1.485-2.203-.781 0-1.5.922-1.5 2.203 0 1.297.734 2.203 1.5 2.203.781 0 1.485-.922 1.485-2.203m-.563-.078c0 .969-.422 1.75-.922 1.75-.516 0-.922-.781-.922-1.75 0-.953.438-1.61.922-1.61.469 0 .922.657.922 1.61m0 0"/><path id="y" d="M3.64-.266c0-.218-.14-.25-.39-.25v-1.593c0-.157-.016-.97-.656-.97a.84.84 0 0 0-.656.313.61.61 0 0 0-.532-.312.88.88 0 0 0-.547.203c-.046-.156-.187-.156-.312-.156H.328c-.125 0-.328 0-.328.25 0 .234.125.265.39.265v2c-.265 0-.39.032-.39.25C0 0 .219 0 .328 0h.594c.125 0 .312 0 .312-.266 0-.218-.109-.25-.359-.25v-1.171c0-.563.234-.86.5-.86.14 0 .203.11.203.5v1.531c-.156 0-.281.032-.281.25 0 .266.187.266.312.266h.516c.125 0 .313 0 .313-.266 0-.218-.126-.25-.376-.25v-1.171c0-.563.25-.86.5-.86.141 0 .204.11.204.5v1.531c-.141 0-.282.032-.282.25 0 .266.204.266.313.266h.5c.125 0 .344 0 .344-.266m0 0"/><path id="z" d="M3.188-.266c0-.25-.204-.25-.329-.25h-.656v-2.187c0-.25-.047-.328-.328-.328H.906c-.125 0-.328 0-.328.25 0 .265.203.265.328.265h.719v2H.859c-.14 0-.343 0-.343.25C.516 0 .734 0 .859 0h2c.125 0 .329 0 .329-.266m-.954-3.562a.39.39 0 0 0-.406-.39.387.387 0 0 0-.39.39c0 .219.171.39.39.39a.39.39 0 0 0 .406-.39m0 0"/><path id="A" d="M3.578-.266c0-.25-.203-.25-.328-.25H3v-3.406c0-.25-.047-.344-.328-.344h-.485c-.14 0-.343.016-.343.266s.218.266.328.266h.25v.906a1.26 1.26 0 0 0-.735-.25c-.765 0-1.453.672-1.453 1.562C.234-.64.875.047 1.625.047c.344 0 .61-.14.797-.313.015.188.062.266.328.266h.5c.125 0 .328 0 .328-.266M2.422-1.375c0 .36-.297.89-.781.89-.453 0-.828-.452-.828-1.03 0-.61.437-1.032.89-1.032.406 0 .719.344.719.688Zm0 0"/><path id="B" d="M3.547-2.781c0-.25-.188-.25-.328-.25h-.781c-.157 0-.344 0-.344.25 0 .265.172.265.344.265h.265l-.297 1.72-.14-.532c-.125-.469-.172-.547-.422-.547-.094 0-.235 0-.328.188l-.266.906-.297-1.735h.266c.156 0 .343 0 .343-.265 0-.25-.187-.25-.343-.25H.437c-.14 0-.343 0-.343.25 0 .234.14.265.36.265L.858-.28c.032.187.047.312.36.312.312 0 .343-.062.453-.515l.172-.641.265 1c.094.14.235.156.344.156.281 0 .313-.125.344-.312l.406-2.235c.219 0 .344-.03.344-.265m0 0"/><path id="C" d="M3.625-.266c0-.25-.203-.25-.328-.25-.203 0-.297-.03-.344-.046V-2c0-.5-.375-1.094-1.406-1.094-.313 0-1.031.016-1.031.547 0 .235.172.36.359.36.11 0 .344-.063.344-.36 0 0 .234-.031.343-.031.454 0 .782.187.813.594-1.219.03-2.047.39-2.047 1.062 0 .485.453.969 1.188.969.234 0 .656-.047.968-.25.172.187.485.203.75.203.235 0 .391-.016.391-.266M2.359-.969c0 .14 0 .266-.234.375-.234.11-.516.11-.578.11-.39 0-.64-.203-.64-.438 0-.312.546-.515 1.452-.562Zm0 0"/><path id="D" d="M3.422-1.516c0-.875-.64-1.562-1.39-1.562-.298 0-.579.11-.813.265v-1.109c0-.25-.047-.344-.313-.344h-.5c-.14 0-.343.016-.343.266s.218.266.328.266h.25v3.406C.64-.172.656 0 .938 0c.218 0 .28-.094.28-.234.266.218.532.28.735.28.766 0 1.469-.671 1.469-1.562m-.578 0c0 .61-.453 1.032-.906 1.032-.485 0-.704-.563-.704-.875v-.485c0-.375.375-.703.766-.703.469 0 .844.469.844 1.031m0 0"/><path id="E" d="M3.281-1.516c0-.89-.672-1.578-1.453-1.578-.797 0-1.453.688-1.453 1.578S1.047.047 1.828.047c.766 0 1.453-.688 1.453-1.563m-.578-.046c0 .593-.406 1.078-.875 1.078S.953-.97.953-1.562s.422-1.016.875-1.016.875.422.875 1.015m0 0"/><path id="F" d="M3.578-.266c0-.25-.203-.25-.328-.25H3v-1.53c0-.72-.36-1.032-.937-1.032-.391 0-.672.172-.844.297v-1.14c0-.25-.047-.345-.313-.345h-.5c-.14 0-.328.016-.328.266s.203.266.313.266h.25v3.218H.406c-.14 0-.328 0-.328.25C.078 0 .281 0 .391 0h1.093c.11 0 .329 0 .329-.266 0-.25-.204-.25-.344-.25h-.25v-1.156c0-.64.484-.875.797-.875.328 0 .406.172.406.547v1.484h-.203c-.14 0-.344 0-.344.25 0 .266.219.266.344.266H3.25c.11 0 .328 0 .328-.266m0 0"/><path id="G" d="M3.578-.266c0-.25-.219-.25-.328-.25H3v-2.187c0-.25-.047-.328-.328-.328h-.485c-.14 0-.343 0-.343.25 0 .265.218.265.328.265h.25v1.391c0 .563-.516.64-.719.64-.469 0-.484-.187-.484-.39v-1.828c0-.25-.047-.328-.313-.328h-.5c-.14 0-.328 0-.328.25 0 .265.203.265.313.265h.25v1.688c0 .687.5.875 1.03.875.266 0 .517-.063.767-.219C2.484 0 2.625 0 2.75 0h.5c.125 0 .328 0 .328-.266m0 0"/><clipPath id="a"><path d="M0 0h261.773v149.074H0Zm0 0"/></clipPath></defs><path fill="#FFFBB3" d="M130.844 16.691h42.52c31.863 0 57.695 25.829 57.695 57.696 0 31.863-25.832 57.691-57.696 57.691H88.324c-31.867 0-57.695-25.828-57.695-57.691 0-31.867 25.828-57.696 57.695-57.696Zm0 0"/><g clip-path="url(#a)"><path fill="none" stroke="#B2B2B2" stroke-miterlimit="10" stroke-width="14.173" d="M130.844 16.691h42.52c31.863 0 57.695 25.829 57.695 57.696 0 31.863-25.832 57.691-57.696 57.691H88.324c-31.867 0-57.695-25.828-57.695-57.691 0-31.867 25.828-57.696 57.695-57.696Zm0 0"/></g><g fill="#B2B2B2"><use xlink:href="#b" x="81.174" y="101.73"/><use xlink:href="#c" x="89.772" y="101.73"/><use xlink:href="#d" x="95.5" y="101.73"/><use xlink:href="#e" x="101.866" y="101.73"/><use xlink:href="#f" x="108.233" y="101.73"/><use xlink:href="#g" x="114.599" y="101.73"/><use xlink:href="#f" x="119.849" y="101.73"/></g><g fill="#B2B2B2"><use xlink:href="#b" x="130.031" y="101.73"/><use xlink:href="#g" x="138.629" y="101.73"/><use xlink:href="#h" x="143.879" y="101.73"/><use xlink:href="#i" x="148.97" y="101.73"/><use xlink:href="#j" x="153.423" y="101.73"/><use xlink:href="#e" x="158.992" y="101.73"/><use xlink:href="#k" x="165.358" y="101.73"/><use xlink:href="#l" x="171.087" y="101.73"/><use xlink:href="#g" x="174.265" y="101.73"/></g><path fill="none" stroke="#B2B2B2" stroke-miterlimit="10" stroke-width=".996" d="M180.016 103.734V45.04"/><path fill="none" stroke="#000" stroke-miterlimit="10" stroke-width=".399" d="m129.434 75.793 2.816-2.816m-2.816 0 2.816 2.816"/><use xlink:href="#m" x="112.537" y="70.307"/><use xlink:href="#n" x="116.198" y="70.307"/><use xlink:href="#o" x="119.86" y="70.307"/><use xlink:href="#p" x="123.521" y="70.307"/><use xlink:href="#q" x="127.182" y="70.307"/><use xlink:href="#r" x="130.843" y="70.307"/><use xlink:href="#s" x="134.505" y="70.307"/><use xlink:href="#q" x="138.166" y="70.307"/><use xlink:href="#t" x="141.827" y="70.307"/><use xlink:href="#u" x="145.488" y="70.307"/><path fill="none" stroke="#000" stroke-miterlimit="10" stroke-width=".399" d="m79.766 103.14 2.816-2.82m-2.816 0 2.816 2.82"/><use xlink:href="#m" x="66.529" y="110.076"/><use xlink:href="#n" x="70.19" y="110.076"/><use xlink:href="#o" x="73.852" y="110.076"/><use xlink:href="#s" x="77.513" y="110.076"/><use xlink:href="#q" x="81.174" y="110.076"/><use xlink:href="#v" x="84.835" y="110.076"/><use xlink:href="#s" x="88.497" y="110.076"/><use xlink:href="#u" x="92.158" y="110.076"/><path fill="none" stroke="#000" stroke-miterlimit="10" stroke-width=".399" d="m234.05 57.348 2.817-2.817m-2.816 0 2.816 2.817"/><use xlink:href="#m" x="224.474" y="51.862"/><use xlink:href="#n" x="228.135" y="51.862"/><use xlink:href="#o" x="231.797" y="51.862"/><use xlink:href="#w" x="235.458" y="51.862"/><use xlink:href="#x" x="239.119" y="51.862"/><use xlink:href="#u" x="242.78" y="51.862"/><path fill="none" stroke="#000" stroke-miterlimit="10" stroke-width=".399" d="m129.434 100.93 2.816-2.82m-2.816 0 2.816 2.82"/><use xlink:href="#m" x="118.029" y="95.441"/><use xlink:href="#n" x="121.69" y="95.441"/><use xlink:href="#o" x="125.352" y="95.441"/><use xlink:href="#y" x="129.013" y="95.441"/><use xlink:href="#z" x="132.674" y="95.441"/><use xlink:href="#A" x="136.335" y="95.441"/><use xlink:href="#u" x="139.997" y="95.441"/><path fill="none" stroke="#000" stroke-miterlimit="10" stroke-width=".399" d="m22.133 100.93 2.816-2.82m-2.816 0 2.816 2.82"/><use xlink:href="#m" x="27.063" y="101.652"/><use xlink:href="#n" x="30.724" y="101.652"/><use xlink:href="#o" x="34.386" y="101.652"/><use xlink:href="#y" x="38.047" y="101.652"/><use xlink:href="#z" x="41.708" y="101.652"/><use xlink:href="#A" x="45.369" y="101.652"/><use xlink:href="#B" x="52.685" y="101.652"/><use xlink:href="#q" x="56.346" y="101.652"/><use xlink:href="#n" x="60.007" y="101.652"/><use xlink:href="#s" x="63.669" y="101.652"/><use xlink:href="#u" x="67.33" y="101.652"/><path fill="none" stroke="#000" stroke-miterlimit="10" stroke-width=".399" d="m236.734 100.93 2.82-2.82m-2.82 0 2.82 2.82"/><use xlink:href="#m" x="190.688" y="101.652"/><use xlink:href="#n" x="194.349" y="101.652"/><use xlink:href="#o" x="198.011" y="101.652"/><use xlink:href="#y" x="201.672" y="101.652"/><use xlink:href="#z" x="205.333" y="101.652"/><use xlink:href="#A" x="208.994" y="101.652"/><use xlink:href="#q" x="216.317" y="101.652"/><use xlink:href="#C" x="219.978" y="101.652"/><use xlink:href="#n" x="223.639" y="101.652"/><use xlink:href="#s" x="227.301" y="101.652"/><use xlink:href="#u" x="230.962" y="101.652"/><path fill="none" stroke="#000" stroke-miterlimit="10" stroke-width=".399" d="m129.434 103.14 2.816-2.82m-2.816 0 2.816 2.82"/><use xlink:href="#m" x="116.198" y="110.076"/><use xlink:href="#n" x="119.859" y="110.076"/><use xlink:href="#o" x="123.521" y="110.076"/><use xlink:href="#D" x="127.182" y="110.076"/><use xlink:href="#C" x="130.843" y="110.076"/><use xlink:href="#n" x="134.504" y="110.076"/><use xlink:href="#q" x="138.166" y="110.076"/><use xlink:href="#u" x="141.827" y="110.076"/><path fill="none" stroke="#000" stroke-miterlimit="10" stroke-width=".399" d="m22.133 103.14 2.816-2.82m-2.816 0 2.816 2.82"/><use xlink:href="#m" x="-.255" y="110.076"/><use xlink:href="#n" x="3.406" y="110.076"/><use xlink:href="#o" x="7.068" y="110.076"/><use xlink:href="#D" x="10.729" y="110.076"/><use xlink:href="#C" x="14.39" y="110.076"/><use xlink:href="#n" x="18.051" y="110.076"/><use xlink:href="#q" x="21.713" y="110.076"/><use xlink:href="#B" x="29.028" y="110.076"/><use xlink:href="#q" x="32.689" y="110.076"/><use xlink:href="#n" x="36.351" y="110.076"/><use xlink:href="#s" x="40.012" y="110.076"/><use xlink:href="#u" x="43.673" y="110.076"/><path fill="none" stroke="#000" stroke-miterlimit="10" stroke-width=".399" d="m236.734 103.14 2.82-2.82m-2.82 0 2.82 2.82"/><use xlink:href="#m" x="214.345" y="110.076"/><use xlink:href="#n" x="218.006" y="110.076"/><use xlink:href="#o" x="221.668" y="110.076"/><use xlink:href="#D" x="225.329" y="110.076"/><use xlink:href="#C" x="228.99" y="110.076"/><use xlink:href="#n" x="232.651" y="110.076"/><use xlink:href="#q" x="236.313" y="110.076"/><use xlink:href="#q" x="243.635" y="110.076"/><use xlink:href="#C" x="247.296" y="110.076"/><use xlink:href="#n" x="250.958" y="110.076"/><use xlink:href="#s" x="254.619" y="110.076"/><use xlink:href="#u" x="258.28" y="110.076"/><path fill="none" stroke="#000" stroke-miterlimit="10" stroke-width=".399" d="m129.434 11.012 2.816-2.817m-2.816 0 2.816 2.817"/><use xlink:href="#m" x="114.367" y="5.526"/><use xlink:href="#n" x="118.028" y="5.526"/><use xlink:href="#o" x="121.69" y="5.526"/><use xlink:href="#r" x="125.351" y="5.526"/><use xlink:href="#E" x="129.012" y="5.526"/><use xlink:href="#t" x="132.673" y="5.526"/><use xlink:href="#s" x="136.335" y="5.526"/><use xlink:href="#F" x="139.996" y="5.526"/><use xlink:href="#u" x="143.657" y="5.526"/><path fill="none" stroke="#000" stroke-miterlimit="10" stroke-width=".399" d="m129.434 140.574 2.816-2.816m-2.816 0 2.816 2.816"/><use xlink:href="#m" x="114.367" y="147.511"/><use xlink:href="#n" x="118.028" y="147.511"/><use xlink:href="#o" x="121.69" y="147.511"/><use xlink:href="#n" x="125.351" y="147.511"/><use xlink:href="#E" x="129.012" y="147.511"/><use xlink:href="#G" x="132.673" y="147.511"/><use xlink:href="#s" x="136.335" y="147.511"/><use xlink:href="#F" x="139.996" y="147.511"/><use xlink:href="#u" x="143.657" y="147.511"/><path fill="none" stroke="#000" stroke-miterlimit="10" stroke-width=".399" d="m236.734 75.793 2.82-2.816m-2.82 0 2.82 2.816"/><use xlink:href="#m" x="223.498" y="70.307"/><use xlink:href="#n" x="227.159" y="70.307"/><use xlink:href="#o" x="230.821" y="70.307"/><use xlink:href="#q" x="234.482" y="70.307"/><use xlink:href="#C" x="238.143" y="70.307"/><use xlink:href="#n" x="241.804" y="70.307"/><use xlink:href="#s" x="245.466" y="70.307"/><use xlink:href="#u" x="249.127" y="70.307"/><path fill="none" stroke="#000" stroke-miterlimit="10" stroke-width=".399" d="m22.133 75.793 2.816-2.816m-2.816 0 2.816 2.816"/><use xlink:href="#m" x="8.898" y="70.307"/><use xlink:href="#n" x="12.559" y="70.307"/><use xlink:href="#o" x="16.221" y="70.307"/><use xlink:href="#B" x="19.882" y="70.307"/><use xlink:href="#q" x="23.543" y="70.307"/><use xlink:href="#n" x="27.204" y="70.307"/><use xlink:href="#s" x="30.866" y="70.307"/><use xlink:href="#u" x="34.527" y="70.307"/><path fill="none" stroke="#000" stroke-miterlimit="10" stroke-width=".399" d="m86.914 11.012 2.816-2.817m-2.816 0 2.816 2.817"/><use xlink:href="#m" x="33.546" y="5.526"/><use xlink:href="#n" x="37.207" y="5.526"/><use xlink:href="#o" x="40.869" y="5.526"/><use xlink:href="#r" x="44.53" y="5.526"/><use xlink:href="#E" x="48.191" y="5.526"/><use xlink:href="#t" x="51.852" y="5.526"/><use xlink:href="#s" x="55.514" y="5.526"/><use xlink:href="#F" x="59.175" y="5.526"/><use xlink:href="#B" x="66.497" y="5.526"/><use xlink:href="#q" x="70.159" y="5.526"/><use xlink:href="#n" x="73.82" y="5.526"/><use xlink:href="#s" x="77.481" y="5.526"/><use xlink:href="#u" x="81.143" y="5.526"/><path fill="none" stroke="#000" stroke-miterlimit="10" stroke-width=".399" d="m171.953 11.012 2.82-2.817m-2.82 0 2.82 2.817"/><use xlink:href="#m" x="176.882" y="5.526"/><use xlink:href="#n" x="180.543" y="5.526"/><use xlink:href="#o" x="184.205" y="5.526"/><use xlink:href="#r" x="187.866" y="5.526"/><use xlink:href="#E" x="191.527" y="5.526"/><use xlink:href="#t" x="195.188" y="5.526"/><use xlink:href="#s" x="198.85" y="5.526"/><use xlink:href="#F" x="202.511" y="5.526"/><use xlink:href="#q" x="209.833" y="5.526"/><use xlink:href="#C" x="213.495" y="5.526"/><use xlink:href="#n" x="217.156" y="5.526"/><use xlink:href="#s" x="220.817" y="5.526"/><use xlink:href="#u" x="224.479" y="5.526"/><path fill="none" stroke="#000" stroke-miterlimit="10" stroke-width=".399" d="m86.914 140.574 2.816-2.816m-2.816 0 2.816 2.816"/><use xlink:href="#m" x="33.546" y="147.511"/><use xlink:href="#n" x="37.207" y="147.511"/><use xlink:href="#o" x="40.869" y="147.511"/><use xlink:href="#n" x="44.53" y="147.511"/><use xlink:href="#E" x="48.191" y="147.511"/><use xlink:href="#G" x="51.852" y="147.511"/><use xlink:href="#s" x="55.514" y="147.511"/><use xlink:href="#F" x="59.175" y="147.511"/><use xlink:href="#B" x="66.497" y="147.511"/><use xlink:href="#q" x="70.159" y="147.511"/><use xlink:href="#n" x="73.82" y="147.511"/><use xlink:href="#s" x="77.481" y="147.511"/><use xlink:href="#u" x="81.143" y="147.511"/><path fill="none" stroke="#000" stroke-miterlimit="10" stroke-width=".399" d="m171.953 140.574 2.82-2.816m-2.82 0 2.82 2.816"/><use xlink:href="#m" x="176.882" y="147.511"/><use xlink:href="#n" x="180.543" y="147.511"/><use xlink:href="#o" x="184.205" y="147.511"/><use xlink:href="#n" x="187.866" y="147.511"/><use xlink:href="#E" x="191.527" y="147.511"/><use xlink:href="#G" x="195.188" y="147.511"/><use xlink:href="#s" x="198.85" y="147.511"/><use xlink:href="#F" x="202.511" y="147.511"/><use xlink:href="#q" x="209.833" y="147.511"/><use xlink:href="#C" x="213.495" y="147.511"/><use xlink:href="#n" x="217.156" y="147.511"/><use xlink:href="#s" x="220.817" y="147.511"/><use xlink:href="#u" x="224.479" y="147.511"/></svg>