<svg xmlns="http://www.w3.org/2000/svg" width="90.11" height="63.434"><defs><clipPath id="a"><path d="M0 0h89.664v63.152H0Zm0 0"/></clipPath><clipPath id="b"><path d="M0 51h11v12.152H0Zm0 0"/></clipPath><clipPath id="c"><path d="M0 52h12v11.152H0Zm0 0"/></clipPath><clipPath id="d"><path d="M9 46h15v17.152H9Zm0 0"/></clipPath><clipPath id="e"><path d="M76 24h13.664v17H76Zm0 0"/></clipPath><clipPath id="f"><path d="M75 25h14.664v15H75Zm0 0"/></clipPath><clipPath id="g"><path d="M77 15h12.664v14H77Zm0 0"/></clipPath><clipPath id="h"><path d="M79 13h10.664v18H79Zm0 0"/></clipPath></defs><path fill="none" stroke="#7F7F7F" stroke-miterlimit="10" stroke-width=".199" d="M3.164 59.54h85.043M3.164 31.19h85.043M3.164 2.855h85.043M3.164 59.54V2.848m28.348 56.691V2.848m28.347 56.691V2.848m28.336 56.691V2.848"/><g clip-path="url(#a)"><path fill="none" stroke="#000" stroke-miterlimit="10" stroke-width=".399" d="M3.164 59.54 88.207 31.19c0-15.652-19.039-28.343-42.52-28.343-23.484 0-42.523 12.691-42.523 28.343"/></g><g clip-path="url(#b)"><path fill="none" stroke="#000" stroke-miterlimit="10" stroke-width=".399" d="m1.906 62.059 2.52-5.04"/></g><g clip-path="url(#c)"><path fill="none" stroke="#000" stroke-miterlimit="10" stroke-width=".399" d="M5.688 60.8.644 58.282"/></g><g clip-path="url(#d)"><path fill="none" stroke="#000" stroke-miterlimit="10" stroke-width=".399" d="m15.352 57.578 2.52-5.039"/></g><path fill="none" stroke="#000" stroke-miterlimit="10" stroke-width=".399" d="m19.133 56.32-5.043-2.523M28.797 53.098l2.52-5.043M32.578 51.836l-5.043-2.52M42.242 48.613l2.52-5.039M46.023 47.355l-5.043-2.52M55.688 44.133l2.519-5.04M59.469 42.875l-5.043-2.523M69.133 39.652l2.52-5.043M72.914 38.39l-5.043-2.519"/><g clip-path="url(#e)"><path fill="none" stroke="#000" stroke-miterlimit="10" stroke-width=".399" d="m82.578 35.168 2.52-5.04"/></g><g clip-path="url(#f)"><path fill="none" stroke="#000" stroke-miterlimit="10" stroke-width=".399" d="m86.36 33.91-5.044-2.52"/></g><g clip-path="url(#g)"><path fill="none" stroke="#000" stroke-miterlimit="10" stroke-width=".399" d="m88.59 22.828-5.367-1.715"/></g><g clip-path="url(#h)"><path fill="none" stroke="#000" stroke-miterlimit="10" stroke-width=".399" d="m86.762 19.285-1.715 5.367"/></g><path fill="none" stroke="#000" stroke-miterlimit="10" stroke-width=".399" d="m79.203 11.117-5.547.988M75.938 8.836l.988 5.55M66.195 4.2l-4.992 2.616M62.39 3.012l2.618 4.992M51.902 1.113l-4.23 3.727M47.922.86l3.726 4.23M37.309 1.355l-3.297 4.567M33.375 1.988l4.57 3.301M23.102 4.977l-2.02 5.261M19.46 6.598l5.263 2.02M10.363 12.598l-.02 5.636M7.54 15.406l5.632.02M1.922 25.254l3.168 4.66M1.176 29.168 5.84 26"/></svg>