<svg xmlns="http://www.w3.org/2000/svg" xmlns:xlink="http://www.w3.org/1999/xlink" width="260.95" height="142.04"><defs><path id="a" d="M3.328-3.016c.063-.25.297-1.171.985-1.171.046 0 .296 0 .5.125a.58.58 0 0 0-.47.546c0 .157.11.344.376.344a.546.546 0 0 0 .531-.578c0-.516-.578-.656-.922-.656-.578 0-.922.531-1.047.75-.25-.656-.781-.75-1.078-.75-1.031 0-1.61 1.281-1.61 1.531 0 .11.11.11.126.11.078 0 .11-.032.125-.11.344-1.062 1-1.312 1.344-1.312.187 0 .53.093.53.671 0 .313-.171.97-.53 2.375-.157.61-.516 1.032-.954 1.032-.062 0-.28 0-.5-.125.25-.063.47-.266.47-.547 0-.266-.22-.344-.36-.344-.313 0-.547.25-.547.578 0 .453.484.656.922.656.672 0 1.031-.703 1.047-.75.125.36.484.75 1.078.75 1.031 0 1.594-1.28 1.594-1.53 0-.11-.079-.11-.11-.11-.094 0-.11.047-.14.11-.329 1.077-1 1.312-1.313 1.312-.39 0-.547-.313-.547-.657 0-.218.047-.437.156-.875Zm0 0"/><path id="g" d="M4.844-3.797c.047-.14.047-.156.047-.234 0-.172-.141-.266-.297-.266a.46.46 0 0 0-.344.203c-.016.063-.11.36-.14.547-.079.25-.141.531-.204.797L3.453-.953c-.031.14-.469.844-1.125.844-.5 0-.61-.438-.61-.813 0-.453.173-1.078.5-1.953.157-.406.204-.516.204-.719 0-.437-.313-.812-.813-.812-.953 0-1.312 1.453-1.312 1.531 0 .11.094.11.11.11.109 0 .109-.032.156-.188.28-.938.671-1.235 1.015-1.235.078 0 .25 0 .25.313 0 .25-.11.516-.172.703-.406 1.063-.578 1.625-.578 2.094 0 .89.625 1.187 1.219 1.187.39 0 .719-.171 1-.453-.125.516-.25 1.016-.64 1.547-.266.328-.641.625-1.094.625-.141 0-.594-.031-.766-.422.156 0 .297 0 .422-.125a.5.5 0 0 0 .203-.406c0-.312-.266-.344-.36-.344C.829.531.5.687.5 1.171c0 .5.438.876 1.063.876 1.015 0 2.046-.906 2.328-2.031Zm0 0"/><path id="b" d="M3.172-1.734v-.97H.125v.97Zm0 0"/><path id="c" d="M5.516-.234c0-.235-.125-.235-.266-.235-.61-.015-.61-.14-.61-.375v-2.14c0-.891-.702-1.532-2.187-1.532-.562 0-1.781.047-1.781.922 0 .438.344.625.61.625.312 0 .624-.219.624-.625 0-.297-.187-.469-.218-.5a5 5 0 0 1 .718-.062c.75 0 1.11.422 1.11 1.172v.343c-.72.032-3.25.125-3.25 1.563C.266-.125 1.5.062 2.188.062c.796 0 1.265-.406 1.484-.828 0 .313 0 .766 1.047.766h.468c.204 0 .329 0 .329-.234m-2-1.157c0 .97-.922 1.094-1.172 1.094-.516 0-.906-.344-.906-.797 0-1.062 1.578-1.203 2.078-1.234Zm0 0"/><path id="d" d="M5.828 0v-.469h-.703L3.453-2.453 4.61-3.75c.141-.14.204-.203 1.016-.203v-.469l-.906.031-1.032-.03v.468c.141 0 .266.015.376.078-.032.063-.032.094-.079.125l-.828.938-.984-1.141h.406v-.469L1.36-4.39.266-4.42v.468h.718l1.547 1.828L1.22-.656c-.157.187-.516.187-1 .187V0l.922-.031L2.156 0v-.469c-.172 0-.36-.047-.36-.11 0 0 0-.015.063-.093l.97-1.094L3.921-.469h-.39V0l1.202-.031Zm0 0"/><path id="e" d="M2.844 0v-.469h-.61v-4.015L.5-4.406v.468c.594 0 .656 0 .656.391v3.078H.47V0l1.219-.031Zm-.469-6.047a.774.774 0 0 0-.781-.781.784.784 0 0 0-.782.781c0 .422.36.766.782.766a.77.77 0 0 0 .781-.766m0 0"/><path id="f" d="M4.14-1.39c0-.438-.202-.782-.546-1.063-.39-.281-.719-.344-1.485-.485-.375-.062-1.015-.171-1.015-.64 0-.625.922-.625 1.11-.625.75 0 1.124.297 1.171.844.016.156.031.203.234.203.235 0 .235-.047.235-.281v-.797c0-.188 0-.282-.172-.282-.047 0-.063 0-.453.188-.266-.125-.61-.188-1-.188-.313 0-1.844 0-1.844 1.313 0 .39.203.656.406.828.39.344.782.406 1.547.547.36.062 1.094.187 1.094.781 0 .75-.906.75-1.125.75C1.234-.297.984-1.03.859-1.453c-.046-.14-.109-.14-.234-.14-.25 0-.25.062-.25.28v1.094c0 .188 0 .282.188.282.062 0 .078 0 .296-.157l.25-.172c.47.329.985.329 1.188.329.312 0 1.844 0 1.844-1.454m0 0"/><path id="h" d="M6.047-2.047c.172 0 .344 0 .344-.203 0-.187-.188-.187-.344-.187H1.109c-.156 0-.343 0-.343.187 0 .203.172.203.343.203Zm0 0"/><path id="i" d="M2.734-3.156C3.563-3.47 3.97-4.125 3.97-4.75c0-.687-.766-1.219-1.703-1.219-.922 0-1.625.532-1.625 1.203 0 .297.187.47.453.47a.435.435 0 0 0 .453-.454c0-.312-.219-.437-.531-.437.234-.375.78-.563 1.234-.563.734 0 .875.594.875 1.016 0 .265-.047.703-.266 1.047-.28.39-.593.406-.859.437-.219.016-.234.016-.312.016-.079 0-.157.015-.157.109 0 .125.078.125.235.125h.406c.781 0 1.125.625 1.125 1.469 0 1.156-.61 1.484-1.063 1.484-.171 0-1.046-.047-1.437-.719a.475.475 0 0 0 .562-.484.47.47 0 0 0-.484-.484c-.219 0-.484.14-.484.515 0 .797.828 1.422 1.875 1.422 1.109 0 1.953-.812 1.953-1.734 0-.782-.625-1.438-1.485-1.625m0 0"/><path id="j" d="M4.14-1.594h-.25c-.015.125-.093.657-.203.797-.062.078-.671.078-.859.078H1.234l.891-.843c1.469-1.266 2.016-1.75 2.016-2.657 0-1.031-.844-1.75-1.953-1.75-1.032 0-1.735.813-1.735 1.625 0 .453.39.5.469.5.203 0 .469-.14.469-.469a.45.45 0 0 0-.47-.468c-.046 0-.062 0-.109.015.22-.64.797-.921 1.282-.921.906 0 1.219.843 1.219 1.468 0 .907-.688 1.657-1.11 2.125L.563-.328c-.11.11-.11.125-.11.328h3.438Zm0 0"/><path id="k" d="M2.719-5.734c0-.22 0-.235-.219-.235-.562.563-1.39.563-1.672.563v.281c.172 0 .719 0 1.203-.234v4.64c0 .328-.015.438-.86.438h-.28V0c.312-.031 1.125-.031 1.484-.031.375 0 1.172 0 1.5.031v-.281h-.281c-.844 0-.875-.11-.875-.438Zm0 0"/></defs><path fill="none" stroke="#FF7F7F" stroke-miterlimit="10" stroke-width="28.347" d="M.984 76.77h113.387"/><path fill-opacity=".25" d="M171.066 76.77 57.676 20.078 86.023 76.77l-28.347 56.695Zm0 0"/><path fill="none" stroke="#000" stroke-miterlimit="10" stroke-width=".797" d="M29.332 76.77h197.629"/><path fill="none" stroke="#000" stroke-linecap="round" stroke-linejoin="round" stroke-miterlimit="10" stroke-width=".797" d="M224.809 73.66c.468 1.867 1.504 2.746 2.55 3.11-1.047.363-2.082 1.246-2.55 3.113"/><use xlink:href="#a" x="231.475" y="80.153"/><use xlink:href="#b" x="237.169" y="80.153"/><use xlink:href="#c" x="240.985" y="80.153"/><use xlink:href="#d" x="246.554" y="80.153"/><use xlink:href="#e" x="252.601" y="80.153"/><use xlink:href="#f" x="255.779" y="80.153"/><path fill="none" stroke="#000" stroke-miterlimit="10" stroke-width=".797" d="M142.719 140.55V13.79"/><path fill="none" stroke="#000" stroke-linecap="round" stroke-linejoin="round" stroke-miterlimit="10" stroke-width=".797" d="M139.605 15.941c1.868-.468 2.75-1.507 3.114-2.55.363 1.043 1.242 2.082 3.11 2.55"/><use xlink:href="#g" x="128.529" y="7.335"/><use xlink:href="#b" x="133.771" y="7.335"/><use xlink:href="#c" x="137.587" y="7.335"/><use xlink:href="#d" x="143.156" y="7.335"/><use xlink:href="#e" x="149.203" y="7.335"/><use xlink:href="#f" x="152.381" y="7.335"/><path fill="none" stroke="#000" stroke-miterlimit="10" stroke-width=".399" d="M57.676 79.605v-5.668"/><use xlink:href="#h" x="51.789" y="69.586"/><use xlink:href="#i" x="58.957" y="69.586"/><path fill="none" stroke="#000" stroke-miterlimit="10" stroke-width=".399" d="M86.023 79.605v-5.668"/><use xlink:href="#h" x="80.136" y="69.586"/><use xlink:href="#j" x="87.303" y="69.586"/><path fill="none" stroke="#000" stroke-miterlimit="10" stroke-width=".399" d="M114.371 79.605v-5.668"/><use xlink:href="#h" x="108.482" y="69.586"/><use xlink:href="#k" x="115.65" y="69.586"/><path fill="none" stroke="#000" stroke-miterlimit="10" stroke-width=".399" d="M171.066 79.605v-5.668"/><use xlink:href="#k" x="168.759" y="70.416"/><path fill="none" stroke="#000" stroke-miterlimit="10" stroke-width=".399" d="M199.41 79.605v-5.668"/><use xlink:href="#j" x="197.105" y="70.416"/><path fill="none" stroke="#000" stroke-miterlimit="10" stroke-width=".399" d="M139.883 133.465h5.672"/><use xlink:href="#h" x="149.071" y="135.938"/><use xlink:href="#j" x="156.238" y="135.938"/><path fill="none" stroke="#000" stroke-miterlimit="10" stroke-width=".399" d="M139.883 105.117h5.672"/><use xlink:href="#h" x="149.071" y="107.591"/><use xlink:href="#k" x="156.238" y="107.591"/><path fill="none" stroke="#000" stroke-miterlimit="10" stroke-width=".399" d="M139.883 48.426h5.672"/><use xlink:href="#k" x="149.071" y="51.313"/><path fill="none" stroke="#000" stroke-miterlimit="10" stroke-width=".399" d="M139.883 20.078h5.672"/><use xlink:href="#j" x="149.071" y="22.967"/></svg>