<svg xmlns="http://www.w3.org/2000/svg" xmlns:xlink="http://www.w3.org/1999/xlink" width="286.616" height="42.014"><defs><clipPath id="j"><path d="M72.25 10.55h141.73v19.927H72.25Zm0 0"/></clipPath><clipPath id="b"><path d="M0 0h12v12H0Zm0 0"/></clipPath><clipPath id="a"><path d="M0 0h12v12H0z"/></clipPath><clipPath id="l"><path d="M72.25 10.55h42.52v19.927H72.25Zm0 0"/></clipPath><clipPath id="d"><path d="M0 0h12v12H0z"/></clipPath><clipPath id="n"><path d="M121.855 10.55h42.524v19.927h-42.524Zm0 0"/></clipPath><clipPath id="f"><path d="M0 0h12v12H0z"/></clipPath><clipPath id="p"><path d="M171.465 10.55h42.52v19.927h-42.52Zm0 0"/></clipPath><clipPath id="h"><path d="M0 0h12v12H0z"/></clipPath><pattern id="k" width="12" height="12" x="0" y="0" patternTransform="matrix(.9449 0 0 -.9449 -71.75 13618.551)" patternUnits="userSpaceOnUse"><use xlink:href="#c"/></pattern><pattern id="m" width="12" height="12" x="0" y="0" patternTransform="matrix(.9449 0 0 -.9449 -71.75 13618.551)" patternUnits="userSpaceOnUse"><use xlink:href="#e"/></pattern><pattern id="o" width="12" height="12" x="0" y="0" patternTransform="matrix(.9449 0 0 -.9449 -71.75 13618.551)" patternUnits="userSpaceOnUse"><use xlink:href="#g"/></pattern><pattern id="q" width="12" height="12" x="0" y="0" patternTransform="matrix(.9449 0 0 -.9449 -71.75 13618.551)" patternUnits="userSpaceOnUse"><use xlink:href="#i"/></pattern><g id="c" clip-path="url(#a)"><g clip-path="url(#b)"><path d="M9.202 14358.558H446v64.029H9.202z"/></g><path fill="#CCC" d="M0 0h6v6H0Zm6 6h6v6H6Zm0 0"/></g><g id="e" clip-path="url(#d)"><path d="M0 0h6v6H0Zm6 6h6v6H6Zm0 0"/></g><g id="g" clip-path="url(#f)"><path fill="#00F" d="M0 0h6v6H0Zm6 6h6v6H6Zm0 0"/></g><g id="i" clip-path="url(#h)"><path fill="red" d="M0 0h6v6H0Zm6 6h6v6H6Zm0 0"/></g></defs><g clip-path="url(#j)"><path fill="url(#k)" d="M72.25 30.477h141.73V10.55H72.25Zm0 0"/></g><g clip-path="url(#l)"><path fill="url(#m)" d="M72.25 30.477h42.52V10.55H72.25Zm0 0"/></g><g clip-path="url(#n)"><path fill="url(#o)" d="M121.855 30.477h42.52V10.55h-42.52Zm0 0"/></g><g clip-path="url(#p)"><path fill="url(#q)" d="M171.465 30.477h42.52V10.55h-42.52Zm0 0"/></g></svg>