<svg xmlns="http://www.w3.org/2000/svg" xmlns:xlink="http://www.w3.org/1999/xlink" width="13.333" height="16.811"><defs><path id="a" d="M-4.36 6.11c0 .421.36.874 1.141.874.969 0 2.047-.421 2.047-1.546V4.422h.75v-.469h-.75V.47h.688V0l-1.25.031C-2.11.031-2.75.031-3.11 0v.469h.859v3.484h-1.14v.469h1.203v1.016c0 1.093-.75 1.187-1 1.187-.047 0-.11 0-.172-.031a.59.59 0 0 0 .234-.485c0-.421-.36-.609-.61-.609-.296 0-.624.203-.624.61m0 0"/></defs><path fill="none" stroke="#00F" stroke-miterlimit="10" stroke-width="1.196" d="M11.402 1.504H1.266v13.613h10.136Zm0 0"/><use xlink:href="#a" x="8.082" y="4.824"/></svg>