<svg xmlns="http://www.w3.org/2000/svg" xmlns:xlink="http://www.w3.org/1999/xlink" width="254.81" height="287.516"><defs><path id="a" d="M3.813-1.234v-.532h-.47v.516c0 .672-.327.906-.609.906-.578 0-.578-.64-.578-.86v-2.75h1.469v-.468H2.156v-1.906h-.469c0 1-.484 1.984-1.484 2.016v.359h.828v2.734c0 1.063.86 1.282 1.578 1.282.75 0 1.204-.579 1.204-1.297m0 0"/><path id="b" d="M4.922-1.172c0-.172-.188-.172-.234-.172-.172 0-.188.047-.25.203-.204.485-.782.797-1.422.797-1.407 0-1.422-1.328-1.422-1.828h3.015c.22 0 .313 0 .313-.265 0-.313-.063-1.047-.563-1.547-.359-.36-.89-.532-1.578-.532C1.187-4.516.313-3.484.313-2.25c0 1.344 1 2.313 2.609 2.313 1.578 0 2-1.063 2-1.235M3.984-2.5h-2.39c.015-.39.031-.812.234-1.14.266-.391.672-.516.953-.516 1.172 0 1.188 1.312 1.203 1.656m0 0"/><path id="c" d="M5.828 0v-.469h-.703L3.453-2.453 4.61-3.75c.141-.14.204-.203 1.016-.203v-.469l-.906.031-1.032-.03v.468c.141 0 .266.015.376.078-.032.063-.032.094-.079.125l-.828.938-.984-1.141h.406v-.469L1.36-4.39.266-4.42v.468h.718l1.547 1.828L1.22-.656c-.157.187-.516.187-1 .187V0l.922-.031L2.156 0v-.469c-.172 0-.36-.047-.36-.11 0 0 0-.015.063-.093l.97-1.094L3.921-.469h-.39V0l1.202-.031Zm0 0"/><path id="d" d="M8.031-3.953v-.469a13 13 0 0 1-.781.031l-.953-.03v.468c.094 0 .578 0 .578.11 0 .03-.031.093-.031.124L5.797-1.172l-1.14-2.781h.562v-.469l-1.14.031c-.423 0-.845-.03-1-.03v.468h.593c.203.5.203.531.203.531 0 .031-.031.094-.031.125L3.047-1.39 2-3.953h.563v-.469l-1.235.031L.25-4.42v.468h.594L2.359-.234c.079.172.11.28.36.28s.297-.108.36-.28L4.14-2.812 5.188-.235c.078.172.109.28.359.28s.297-.108.36-.28L7.343-3.75c.047-.125.093-.203.687-.203m0 0"/><path id="e" d="M5.406-2.172c0-1.344-.922-2.344-2.547-2.344C1.22-4.516.313-3.5.313-2.172c0 1.235.89 2.235 2.546 2.235 1.672 0 2.547-1.016 2.547-2.235m-1.281-.11c0 .86 0 1.938-1.266 1.938-1.265 0-1.265-1.078-1.265-1.937 0-.453 0-.953.172-1.297.187-.375.609-.578 1.093-.578.422 0 .844.156 1.063.5.203.344.203.89.203 1.375m0 0"/><path id="f" d="M6.125 0v-.469h-.687v-2.578c0-1.047-.532-1.437-1.532-1.437a1.9 1.9 0 0 0-1.687.953v-3.39l-1.766.077v.469c.61 0 .688 0 .688.39v5.516H.453V0l1.25-.031L2.953 0v-.469h-.687v-2.078c0-1.094.859-1.578 1.5-1.578.328 0 .547.203.547.969V-.47h-.688V0l1.25-.031Zm0 0"/><path id="g" d="M4.406-3.672c0-.531-.531-.812-1.062-.812-.688 0-1.094.5-1.313 1.125v-1.125l-1.656.078v.468c.61 0 .688 0 .688.391v3.078H.375V0l1.25-.031C2-.031 2.641-.031 3 0v-.469h-.86v-1.75c0-.687.235-1.906 1.235-1.906 0 0-.187.172-.187.453 0 .406.328.61.609.61.297 0 .61-.204.61-.61m0 0"/><path id="h" d="M4.36-6.11c0-.421-.36-.874-1.141-.874-.969 0-2.047.422-2.047 1.547v1.015h-.75v.469h.75V-.47H.484V0l1.25-.031c.375 0 1.016 0 1.375.031v-.469H2.25v-3.484h1.14v-.469H2.188v-1.016c0-1.093.75-1.187 1-1.187.047 0 .11 0 .172.031a.59.59 0 0 0-.234.485c0 .422.36.609.61.609.296 0 .624-.203.624-.61m0 0"/><path id="i" d="M6.125 0v-.469c-.61 0-.687 0-.687-.39v-3.625l-1.813.078v.468c.61 0 .688 0 .688.391v1.906c0 .813-.516 1.344-1.235 1.344-.781 0-.812-.25-.812-.797v-3.39l-1.813.078v.468c.61 0 .688 0 .688.391v2.328c0 1.063.797 1.282 1.797 1.282.25 0 .968 0 1.421-.782v.782Zm0 0"/><path id="j" d="M3.078.313c0-.125-.047-.157-.187-.25C2.063-.5 1.75-1.391 1.75-2.125c0-.672.25-1.594 1.156-2.203.125-.094.172-.125.172-.25a.254.254 0 0 0-.265-.25c-.204 0-1.641.906-1.641 2.703 0 .813.312 1.438.562 1.781.375.516.907.907 1.079.907.218 0 .265-.172.265-.25m0 0"/><path id="k" d="M3.219-.906c0-.735-.906-.906-1.14-.938l-.704-.125C1.188-2 1-2.079 1-2.25c0-.156.219-.328.813-.328.515 0 .609.172.625.328.015.14.03.281.28.281.298 0 .298-.156.298-.328v-.469c0-.14-.016-.328-.25-.328-.157 0-.22.063-.25.125-.282-.125-.563-.125-.688-.125-1.187 0-1.344.594-1.344.844 0 .656.735.797 1.391.89.297.063.828.141.828.454 0 .234-.25.422-.828.422-.297 0-.656-.063-.812-.563C1.03-1.203.984-1.28.78-1.28c-.297 0-.297.172-.297.328v.656c0 .14 0 .344.25.344.079 0 .188 0 .282-.234.328.218.672.234.859.234 1.125 0 1.344-.61 1.344-.953m0 0"/><path id="l" d="M2.313-.469a.477.477 0 0 0-.485-.484.47.47 0 0 0-.469.469c0 .28.22.484.47.484a.473.473 0 0 0 .484-.469m0 0"/><path id="m" d="M3.14-.906c0-.156 0-.313-.296-.313-.266 0-.266.157-.266.297-.015.375-.36.438-.515.438-.454 0-.454-.313-.454-.47v-1.562h1.047c.125 0 .328 0 .328-.265 0-.25-.187-.25-.328-.25H1.61v-.516c0-.14-.015-.328-.296-.328-.282 0-.282.172-.282.328v.516H.484c-.125 0-.328 0-.328.25 0 .265.203.265.328.265h.547v1.61c0 .687.485.953 1.016.953S3.14-.266 3.14-.906m0 0"/><path id="n" d="M3.25-.797c0-.234-.234-.234-.281-.234-.156 0-.219.015-.281.172-.141.328-.485.375-.657.375-.469 0-.937-.297-1.062-.813h1.953c.172 0 .328 0 .328-.312 0-.797-.453-1.485-1.375-1.485-.828 0-1.516.703-1.516 1.563S1.08.047 1.984.047c.938 0 1.266-.656 1.266-.844m-.594-1.015H.97c.125-.438.484-.766.906-.766.328 0 .703.156.781.765m0 0"/><path id="o" d="M3.469-.266c0-.25-.203-.25-.328-.25h-.25l-.828-1.046.734-.954h.234c.125 0 .344 0 .344-.265 0-.25-.219-.25-.344-.25H2.25c-.125 0-.328 0-.328.25 0 .203.11.265.281.265l-.39.547-.422-.547c.156 0 .28-.062.28-.265 0-.25-.202-.25-.327-.25H.547c-.125 0-.328 0-.328.25 0 .265.219.265.328.265h.25l.75.954L.75-.516H.516c-.125 0-.344 0-.344.25C.172 0 .39 0 .516 0h.78c.126 0 .329 0 .329-.266 0-.203-.11-.25-.297-.25l.484-.703.5.703c-.187 0-.296.047-.296.25 0 .266.203.266.328.266h.797c.109 0 .328 0 .328-.266m0 0"/><path id="p" d="M2.484-2.125c0-.828-.312-1.453-.562-1.797-.375-.515-.906-.906-1.078-.906-.203 0-.266.187-.266.25 0 .125.094.187.14.219 1.095.718 1.188 1.797 1.188 2.234 0 .656-.25 1.578-1.14 2.188C.64.14.578.188.578.313c0 .078.063.25.266.25s1.64-.907 1.64-2.688m0 0"/><path id="q" d="M3.625-.266c0-.25-.203-.25-.328-.25-.203 0-.297-.03-.344-.046V-2c0-.5-.375-1.094-1.406-1.094-.313 0-1.031.016-1.031.547 0 .235.172.36.359.36.11 0 .344-.063.344-.36 0 0 .234-.031.343-.031.454 0 .782.187.813.594-1.219.03-2.047.39-2.047 1.062 0 .485.453.969 1.188.969.234 0 .656-.047.968-.25.172.187.485.203.75.203.235 0 .391-.016.391-.266M2.359-.969c0 .14 0 .266-.234.375-.234.11-.516.11-.578.11-.39 0-.64-.203-.64-.438 0-.312.546-.515 1.452-.562Zm0 0"/><path id="r" d="M3.547-2.781c0-.25-.188-.25-.328-.25h-.781c-.157 0-.344 0-.344.25 0 .265.172.265.344.265h.265l-.297 1.72-.14-.532c-.125-.469-.172-.547-.422-.547-.094 0-.235 0-.328.188l-.266.906-.297-1.735h.266c.156 0 .343 0 .343-.265 0-.25-.187-.25-.343-.25H.437c-.14 0-.343 0-.343.25 0 .234.14.265.36.265L.858-.28c.032.187.047.312.36.312.312 0 .343-.062.453-.515l.172-.641.265 1c.094.14.235.156.344.156.281 0 .313-.125.344-.312l.406-2.235c.219 0 .344-.03.344-.265m0 0"/><path id="s" d="M3.281-1.516c0-.89-.672-1.578-1.453-1.578-.797 0-1.453.688-1.453 1.578S1.047.047 1.828.047c.766 0 1.453-.688 1.453-1.563m-.578-.046c0 .593-.406 1.078-.875 1.078S.953-.97.953-1.562s.422-1.016.875-1.016.875.422.875 1.015m0 0"/><path id="t" d="M3.578-.266c0-.25-.203-.25-.328-.25H3v-1.53c0-.72-.36-1.032-.937-1.032-.391 0-.672.172-.844.297v-1.14c0-.25-.047-.345-.313-.345h-.5c-.14 0-.328.016-.328.266s.203.266.313.266h.25v3.218H.406c-.14 0-.328 0-.328.25C.078 0 .281 0 .391 0h1.093c.11 0 .329 0 .329-.266 0-.25-.204-.25-.344-.25h-.25v-1.156c0-.64.484-.875.797-.875.328 0 .406.172.406.547v1.484h-.203c-.14 0-.344 0-.344.25 0 .266.219.266.344.266H3.25c.11 0 .328 0 .328-.266m0 0"/><path id="u" d="M3.406-2.594c0-.156-.078-.484-.703-.484-.328 0-.734.11-1.094.469v-.094c0-.25-.046-.328-.328-.328h-.75c-.125 0-.328 0-.328.25 0 .265.203.265.328.265h.5v2h-.5c-.125 0-.328 0-.328.25C.203 0 .406 0 .531 0h1.781c.126 0 .329 0 .329-.266 0-.25-.203-.25-.328-.25h-.704v-.796c0-.61.36-1.22 1.11-1.235 0 .156.172.281.344.281.187 0 .343-.125.343-.328m0 0"/><path id="v" d="M3.063-3.844c0-.437-.579-.453-.704-.453-.578 0-1.125.328-1.125.953v.313H.61c-.125 0-.328 0-.328.25 0 .265.203.265.328.265h.625v2H.61c-.125 0-.343 0-.343.25C.266 0 .484 0 .609 0h1.844c.125 0 .328 0 .328-.266 0-.25-.203-.25-.328-.25h-.64v-2h.78c.11 0 .313 0 .313-.265 0-.25-.187-.25-.312-.25h-.781v-.266c0-.453.359-.484.562-.484.031.11.125.297.344.297a.35.35 0 0 0 .344-.36m0 0"/><path id="w" d="M3.578-.266c0-.25-.219-.25-.328-.25H3v-2.187c0-.25-.047-.328-.328-.328h-.485c-.14 0-.343 0-.343.25 0 .265.218.265.328.265h.25v1.391c0 .563-.516.64-.719.64-.469 0-.484-.187-.484-.39v-1.828c0-.25-.047-.328-.313-.328h-.5c-.14 0-.328 0-.328.25 0 .265.203.265.313.265h.25v1.688c0 .687.5.875 1.03.875.266 0 .517-.063.767-.219C2.484 0 2.625 0 2.75 0h.5c.125 0 .328 0 .328-.266m0 0"/><path id="x" d="M3.422-1.516c0-.875-.64-1.562-1.39-1.562-.298 0-.579.11-.813.281 0-.172-.063-.234-.313-.234h-.5c-.14 0-.343 0-.343.25 0 .265.218.265.328.265h.25v3.5H.406c-.14 0-.343 0-.343.266 0 .25.218.25.328.25h1.093c.11 0 .329 0 .329-.25 0-.266-.204-.266-.344-.266h-.25V-.234c.265.234.531.28.734.28.766 0 1.469-.671 1.469-1.562m-.578 0c0 .61-.453 1.032-.906 1.032-.485 0-.704-.563-.704-.875v-.485c0-.375.375-.703.766-.703.469 0 .844.469.844 1.031m0 0"/><path id="y" d="M3.281-.266c0-.25-.203-.25-.328-.25h-.828v-3.406c0-.25-.062-.344-.328-.344H.719C.579-4.266.39-4.25.39-4s.203.266.312.266h.844v3.218H.719c-.14 0-.328 0-.328.25C.39 0 .594 0 .703 0h2.25c.125 0 .328 0 .328-.266m0 0"/><path id="z" d="M3.188-.266c0-.25-.204-.25-.329-.25h-.656v-2.187c0-.25-.047-.328-.328-.328H.906c-.125 0-.328 0-.328.25 0 .265.203.265.328.265h.719v2H.859c-.14 0-.343 0-.343.25C.516 0 .734 0 .859 0h2c.125 0 .329 0 .329-.266m-.954-3.562a.39.39 0 0 0-.406-.39.387.387 0 0 0-.39.39c0 .219.171.39.39.39a.39.39 0 0 0 .406-.39m0 0"/><path id="A" d="M3.578-.266c0-.25-.203-.25-.328-.25H3v-1.53c0-.72-.36-1.032-.937-1.032-.391 0-.672.172-.844.297 0-.172-.047-.25-.313-.25h-.5c-.14 0-.328 0-.328.25 0 .265.203.265.313.265h.25v2H.406c-.14 0-.328 0-.328.25C.078 0 .281 0 .391 0h1.093c.11 0 .329 0 .329-.266 0-.25-.204-.25-.344-.25h-.25v-1.156c0-.64.484-.875.797-.875.328 0 .406.172.406.547v1.484h-.203c-.14 0-.344 0-.344.25 0 .266.219.266.344.266H3.25c.11 0 .328 0 .328-.266m0 0"/><path id="B" d="M3.266-.797c0-.234-.235-.234-.297-.234-.125 0-.203 0-.266.172-.047.078-.187.375-.625.375a1.027 1.027 0 0 1-1.015-1.032c0-.312.187-1.062 1.062-1.062l.344.015c.015.282.172.376.36.376.187 0 .358-.126.358-.36 0-.531-.734-.547-1.062-.547-1.219 0-1.64.953-1.64 1.578 0 .844.671 1.563 1.546 1.563 1 0 1.235-.719 1.235-.844m0 0"/><path id="C" d="M3.36-4c0-.25-.188-.266-.329-.266H.828c-.062-.093-.187-.109-.25-.109-.281 0-.281.188-.281.344v.281c0 .156 0 .328.281.328.266 0 .281-.125.297-.312h1.61C1.358-2.5 1.155-1.031 1.155-.297c0 .11 0 .375.282.375.14 0 .28-.094.28-.328a4.94 4.94 0 0 1 1.47-3.469c.171-.14.171-.156.171-.281m0 0"/><path id="D" d="M3.313-2.125c0-1.297-.72-2.203-1.485-2.203-.781 0-1.5.922-1.5 2.203 0 1.297.734 2.203 1.5 2.203.781 0 1.485-.922 1.485-2.203m-.563-.078c0 .969-.422 1.75-.922 1.75-.516 0-.922-.781-.922-1.75 0-.953.438-1.61.922-1.61.469 0 .922.657.922 1.61m0 0"/><path id="E" d="M3.64-.266c0-.218-.14-.25-.39-.25v-1.593c0-.157-.016-.97-.656-.97a.84.84 0 0 0-.656.313.61.61 0 0 0-.532-.312.88.88 0 0 0-.547.203c-.046-.156-.187-.156-.312-.156H.328c-.125 0-.328 0-.328.25 0 .234.125.265.39.265v2c-.265 0-.39.032-.39.25C0 0 .219 0 .328 0h.594c.125 0 .312 0 .312-.266 0-.218-.109-.25-.359-.25v-1.171c0-.563.234-.86.5-.86.14 0 .203.11.203.5v1.531c-.156 0-.281.032-.281.25 0 .266.187.266.312.266h.516c.125 0 .313 0 .313-.266 0-.218-.126-.25-.376-.25v-1.171c0-.563.25-.86.5-.86.141 0 .204.11.204.5v1.531c-.141 0-.282.032-.282.25 0 .266.204.266.313.266h.5c.125 0 .344 0 .344-.266m0 0"/><path id="F" d="M3.578-.266c0-.25-.203-.25-.328-.25H3v-3.406c0-.25-.047-.344-.328-.344h-.485c-.14 0-.343.016-.343.266s.218.266.328.266h.25v.906a1.26 1.26 0 0 0-.735-.25c-.765 0-1.453.672-1.453 1.562C.234-.64.875.047 1.625.047c.344 0 .61-.14.797-.313.015.188.062.266.328.266h.5c.125 0 .328 0 .328-.266M2.422-1.375c0 .36-.297.89-.781.89-.453 0-.828-.452-.828-1.03 0-.61.437-1.032.89-1.032.406 0 .719.344.719.688Zm0 0"/><path id="G" d="M3.422-1.516c0-.875-.64-1.562-1.39-1.562-.298 0-.579.11-.813.265v-1.109c0-.25-.047-.344-.313-.344h-.5c-.14 0-.343.016-.343.266s.218.266.328.266h.25v3.406C.64-.172.656 0 .938 0c.218 0 .28-.094.28-.234.266.218.532.28.735.28.766 0 1.469-.671 1.469-1.562m-.578 0c0 .61-.453 1.032-.906 1.032-.485 0-.704-.563-.704-.875v-.485c0-.375.375-.703.766-.703.469 0 .844.469.844 1.031m0 0"/></defs><path fill="#FFFBB3" stroke="#B2B2B2" stroke-miterlimit="10" stroke-width="14.173" d="M43.422 270.293h167.777V16.738H43.422ZM211.199 79.816H43.422m167.777 63.079H43.422m167.777 63.667H43.422"/><g fill="#B2B2B2"><use xlink:href="#a" x="117.21" y="51.411"/><use xlink:href="#b" x="121.663" y="51.411"/><use xlink:href="#c" x="126.914" y="51.411"/><use xlink:href="#a" x="132.961" y="51.411"/></g><use xlink:href="#a" x="118.401" y="114.49" fill="#B2B2B2"/><use xlink:href="#d" x="122.535" y="114.49" fill="#B2B2B2"/><use xlink:href="#e" x="130.496" y="114.49" fill="#B2B2B2"/><g fill="#B2B2B2"><use xlink:href="#a" x="114.291" y="178.157"/><use xlink:href="#f" x="118.744" y="178.157"/><use xlink:href="#g" x="125.11" y="178.157"/><use xlink:href="#b" x="129.833" y="178.157"/><use xlink:href="#b" x="135.083" y="178.157"/></g><g fill="#B2B2B2"><use xlink:href="#h" x="117.155" y="241.884"/><use xlink:href="#e" x="120.652" y="241.884"/><use xlink:href="#i" x="126.38" y="241.884"/><use xlink:href="#g" x="132.747" y="241.884"/></g><path fill="none" stroke="#000" stroke-miterlimit="10" stroke-width=".399" d="m115.8 52.82 2.817-2.82m-2.816 0 2.816 2.82"/><use xlink:href="#j" x="84.4" y="53.545"/><use xlink:href="#k" x="88.061" y="53.545"/><use xlink:href="#l" x="91.723" y="53.545"/><use xlink:href="#m" x="95.384" y="53.545"/><use xlink:href="#n" x="99.045" y="53.545"/><use xlink:href="#o" x="102.706" y="53.545"/><use xlink:href="#m" x="106.368" y="53.545"/><use xlink:href="#p" x="110.029" y="53.545"/><path fill="none" stroke="#000" stroke-miterlimit="10" stroke-width=".399" d="m216.879 49.688 2.816-2.82m-2.816 0 2.816 2.82"/><use xlink:href="#j" x="194.488" y="44.2"/><use xlink:href="#k" x="198.149" y="44.2"/><use xlink:href="#l" x="201.811" y="44.2"/><use xlink:href="#m" x="205.472" y="44.2"/><use xlink:href="#n" x="209.133" y="44.2"/><use xlink:href="#o" x="212.794" y="44.2"/><use xlink:href="#m" x="216.456" y="44.2"/><use xlink:href="#n" x="223.778" y="44.2"/><use xlink:href="#q" x="227.439" y="44.2"/><use xlink:href="#k" x="231.101" y="44.2"/><use xlink:href="#m" x="234.762" y="44.2"/><use xlink:href="#p" x="238.423" y="44.2"/><path fill="none" stroke="#000" stroke-miterlimit="10" stroke-width=".399" d="m34.93 49.688 2.816-2.82m-2.816 0 2.816 2.82"/><use xlink:href="#j" x="12.54" y="44.2"/><use xlink:href="#k" x="16.201" y="44.2"/><use xlink:href="#l" x="19.863" y="44.2"/><use xlink:href="#m" x="23.524" y="44.2"/><use xlink:href="#n" x="27.185" y="44.2"/><use xlink:href="#o" x="30.846" y="44.2"/><use xlink:href="#m" x="34.508" y="44.2"/><use xlink:href="#r" x="41.83" y="44.2"/><use xlink:href="#n" x="45.491" y="44.2"/><use xlink:href="#k" x="49.153" y="44.2"/><use xlink:href="#m" x="52.814" y="44.2"/><use xlink:href="#p" x="56.475" y="44.2"/><path fill="none" stroke="#000" stroke-miterlimit="10" stroke-width=".399" d="m116.992 115.898 2.817-2.816m-2.817 0 2.817 2.816"/><use xlink:href="#j" x="89.252" y="116.624"/><use xlink:href="#k" x="92.913" y="116.624"/><use xlink:href="#l" x="96.575" y="116.624"/><use xlink:href="#m" x="100.236" y="116.624"/><use xlink:href="#r" x="103.897" y="116.624"/><use xlink:href="#s" x="107.558" y="116.624"/><use xlink:href="#p" x="111.22" y="116.624"/><path fill="none" stroke="#000" stroke-miterlimit="10" stroke-width=".399" d="m216.879 112.766 2.816-2.817m-2.816 0 2.816 2.817"/><use xlink:href="#j" x="196.318" y="107.279"/><use xlink:href="#k" x="199.979" y="107.279"/><use xlink:href="#l" x="203.641" y="107.279"/><use xlink:href="#m" x="207.302" y="107.279"/><use xlink:href="#r" x="210.963" y="107.279"/><use xlink:href="#s" x="214.624" y="107.279"/><use xlink:href="#n" x="221.947" y="107.279"/><use xlink:href="#q" x="225.608" y="107.279"/><use xlink:href="#k" x="229.269" y="107.279"/><use xlink:href="#m" x="232.931" y="107.279"/><use xlink:href="#p" x="236.592" y="107.279"/><path fill="none" stroke="#000" stroke-miterlimit="10" stroke-width=".399" d="m34.93 112.766 2.816-2.817m-2.816 0 2.816 2.817"/><use xlink:href="#j" x="14.371" y="107.279"/><use xlink:href="#k" x="18.032" y="107.279"/><use xlink:href="#l" x="21.694" y="107.279"/><use xlink:href="#m" x="25.355" y="107.279"/><use xlink:href="#r" x="29.016" y="107.279"/><use xlink:href="#s" x="32.677" y="107.279"/><use xlink:href="#r" x="39.993" y="107.279"/><use xlink:href="#n" x="43.654" y="107.279"/><use xlink:href="#k" x="47.315" y="107.279"/><use xlink:href="#m" x="50.977" y="107.279"/><use xlink:href="#p" x="54.638" y="107.279"/><path fill="none" stroke="#000" stroke-miterlimit="10" stroke-width=".399" d="m112.883 179.566 2.816-2.816m-2.816 0 2.816 2.816"/><use xlink:href="#j" x="77.82" y="180.291"/><use xlink:href="#k" x="81.481" y="180.291"/><use xlink:href="#l" x="85.143" y="180.291"/><use xlink:href="#m" x="88.804" y="180.291"/><use xlink:href="#t" x="92.465" y="180.291"/><use xlink:href="#u" x="96.126" y="180.291"/><use xlink:href="#n" x="99.788" y="180.291"/><use xlink:href="#n" x="103.449" y="180.291"/><use xlink:href="#p" x="107.11" y="180.291"/><path fill="none" stroke="#000" stroke-miterlimit="10" stroke-width=".399" d="m216.879 176.14 2.816-2.82m-2.816 0 2.816 2.82"/><use xlink:href="#j" x="192.657" y="183.076"/><use xlink:href="#k" x="196.318" y="183.076"/><use xlink:href="#l" x="199.98" y="183.076"/><use xlink:href="#m" x="203.641" y="183.076"/><use xlink:href="#t" x="207.302" y="183.076"/><use xlink:href="#u" x="210.963" y="183.076"/><use xlink:href="#n" x="214.625" y="183.076"/><use xlink:href="#n" x="218.286" y="183.076"/><use xlink:href="#n" x="225.608" y="183.076"/><use xlink:href="#q" x="229.27" y="183.076"/><use xlink:href="#k" x="232.931" y="183.076"/><use xlink:href="#m" x="236.592" y="183.076"/><use xlink:href="#p" x="240.254" y="183.076"/><path fill="none" stroke="#000" stroke-miterlimit="10" stroke-width=".399" d="m34.93 176.14 2.816-2.82m-2.816 0 2.816 2.82"/><use xlink:href="#j" x="10.709" y="183.076"/><use xlink:href="#k" x="14.37" y="183.076"/><use xlink:href="#l" x="18.032" y="183.076"/><use xlink:href="#m" x="21.693" y="183.076"/><use xlink:href="#t" x="25.354" y="183.076"/><use xlink:href="#u" x="29.015" y="183.076"/><use xlink:href="#n" x="32.677" y="183.076"/><use xlink:href="#n" x="36.338" y="183.076"/><use xlink:href="#r" x="43.66" y="183.076"/><use xlink:href="#n" x="47.322" y="183.076"/><use xlink:href="#k" x="50.983" y="183.076"/><use xlink:href="#m" x="54.644" y="183.076"/><use xlink:href="#p" x="58.306" y="183.076"/><path fill="none" stroke="#000" stroke-miterlimit="10" stroke-width=".399" d="m115.746 243.293 2.817-2.816m-2.817 0 2.817 2.816"/><use xlink:href="#j" x="84.345" y="244.018"/><use xlink:href="#k" x="88.006" y="244.018"/><use xlink:href="#l" x="91.668" y="244.018"/><use xlink:href="#v" x="95.329" y="244.018"/><use xlink:href="#s" x="98.99" y="244.018"/><use xlink:href="#w" x="102.651" y="244.018"/><use xlink:href="#u" x="106.313" y="244.018"/><use xlink:href="#p" x="109.974" y="244.018"/><path fill="none" stroke="#000" stroke-miterlimit="10" stroke-width=".399" d="m216.879 239.836 2.816-2.816m-2.816 0 2.816 2.816"/><use xlink:href="#j" x="194.488" y="246.772"/><use xlink:href="#k" x="198.149" y="246.772"/><use xlink:href="#l" x="201.811" y="246.772"/><use xlink:href="#v" x="205.472" y="246.772"/><use xlink:href="#s" x="209.133" y="246.772"/><use xlink:href="#w" x="212.794" y="246.772"/><use xlink:href="#u" x="216.456" y="246.772"/><use xlink:href="#n" x="223.778" y="246.772"/><use xlink:href="#q" x="227.439" y="246.772"/><use xlink:href="#k" x="231.101" y="246.772"/><use xlink:href="#m" x="234.762" y="246.772"/><use xlink:href="#p" x="238.423" y="246.772"/><path fill="none" stroke="#000" stroke-miterlimit="10" stroke-width=".399" d="m34.93 239.836 2.816-2.816m-2.816 0 2.816 2.816"/><use xlink:href="#j" x="12.54" y="246.772"/><use xlink:href="#k" x="16.201" y="246.772"/><use xlink:href="#l" x="19.863" y="246.772"/><use xlink:href="#v" x="23.524" y="246.772"/><use xlink:href="#s" x="27.185" y="246.772"/><use xlink:href="#w" x="30.846" y="246.772"/><use xlink:href="#u" x="34.508" y="246.772"/><use xlink:href="#r" x="41.83" y="246.772"/><use xlink:href="#n" x="45.491" y="246.772"/><use xlink:href="#k" x="49.153" y="246.772"/><use xlink:href="#m" x="52.814" y="246.772"/><use xlink:href="#p" x="56.475" y="246.772"/><path fill="none" stroke="#000" stroke-miterlimit="10" stroke-width=".399" d="m125.902 81.227 2.82-2.82m-2.82 0 2.82 2.82"/><use xlink:href="#j" x="72.535" y="81.477"/><use xlink:href="#k" x="76.196" y="81.477"/><use xlink:href="#l" x="79.858" y="81.477"/><use xlink:href="#m" x="83.519" y="81.477"/><use xlink:href="#n" x="87.18" y="81.477"/><use xlink:href="#o" x="90.841" y="81.477"/><use xlink:href="#m" x="94.503" y="81.477"/><use xlink:href="#k" x="101.818" y="81.477"/><use xlink:href="#x" x="105.479" y="81.477"/><use xlink:href="#y" x="109.141" y="81.477"/><use xlink:href="#z" x="112.802" y="81.477"/><use xlink:href="#m" x="116.463" y="81.477"/><use xlink:href="#p" x="120.125" y="81.477"/><path fill="none" stroke="#000" stroke-miterlimit="10" stroke-width=".399" d="m216.879 81.227 2.816-2.82m-2.816 0 2.816 2.82"/><use xlink:href="#j" x="183.504" y="74.791"/><use xlink:href="#k" x="187.165" y="74.791"/><use xlink:href="#l" x="190.827" y="74.791"/><use xlink:href="#m" x="194.488" y="74.791"/><use xlink:href="#n" x="198.149" y="74.791"/><use xlink:href="#o" x="201.81" y="74.791"/><use xlink:href="#m" x="205.472" y="74.791"/><use xlink:href="#k" x="212.794" y="74.791"/><use xlink:href="#x" x="216.455" y="74.791"/><use xlink:href="#y" x="220.117" y="74.791"/><use xlink:href="#z" x="223.778" y="74.791"/><use xlink:href="#m" x="227.439" y="74.791"/><use xlink:href="#n" x="234.762" y="74.791"/><use xlink:href="#q" x="238.423" y="74.791"/><use xlink:href="#k" x="242.084" y="74.791"/><use xlink:href="#m" x="245.746" y="74.791"/><use xlink:href="#p" x="249.407" y="74.791"/><path fill="none" stroke="#000" stroke-miterlimit="10" stroke-width=".399" d="m34.93 81.227 2.816-2.82m-2.816 0 2.816 2.82"/><use xlink:href="#j" x="1.556" y="74.791"/><use xlink:href="#k" x="5.217" y="74.791"/><use xlink:href="#l" x="8.879" y="74.791"/><use xlink:href="#m" x="12.54" y="74.791"/><use xlink:href="#n" x="16.201" y="74.791"/><use xlink:href="#o" x="19.862" y="74.791"/><use xlink:href="#m" x="23.524" y="74.791"/><use xlink:href="#k" x="30.846" y="74.791"/><use xlink:href="#x" x="34.507" y="74.791"/><use xlink:href="#y" x="38.169" y="74.791"/><use xlink:href="#z" x="41.83" y="74.791"/><use xlink:href="#m" x="45.491" y="74.791"/><use xlink:href="#r" x="52.814" y="74.791"/><use xlink:href="#n" x="56.475" y="74.791"/><use xlink:href="#k" x="60.136" y="74.791"/><use xlink:href="#m" x="63.798" y="74.791"/><use xlink:href="#p" x="67.459" y="74.791"/><path fill="none" stroke="#000" stroke-miterlimit="10" stroke-width=".399" d="m125.902 144.305 2.82-2.817m-2.82 0 2.82 2.817"/><use xlink:href="#j" x="76.196" y="144.556"/><use xlink:href="#k" x="79.857" y="144.556"/><use xlink:href="#l" x="83.519" y="144.556"/><use xlink:href="#m" x="87.18" y="144.556"/><use xlink:href="#r" x="90.841" y="144.556"/><use xlink:href="#s" x="94.502" y="144.556"/><use xlink:href="#k" x="101.825" y="144.556"/><use xlink:href="#x" x="105.486" y="144.556"/><use xlink:href="#y" x="109.147" y="144.556"/><use xlink:href="#z" x="112.809" y="144.556"/><use xlink:href="#m" x="116.47" y="144.556"/><use xlink:href="#p" x="120.131" y="144.556"/><path fill="none" stroke="#000" stroke-miterlimit="10" stroke-width=".399" d="m216.879 144.305 2.816-2.817m-2.816 0 2.816 2.817"/><use xlink:href="#j" x="185.335" y="137.87"/><use xlink:href="#k" x="188.996" y="137.87"/><use xlink:href="#l" x="192.658" y="137.87"/><use xlink:href="#m" x="196.319" y="137.87"/><use xlink:href="#r" x="199.98" y="137.87"/><use xlink:href="#s" x="203.641" y="137.87"/><use xlink:href="#k" x="210.957" y="137.87"/><use xlink:href="#x" x="214.618" y="137.87"/><use xlink:href="#y" x="218.279" y="137.87"/><use xlink:href="#z" x="221.941" y="137.87"/><use xlink:href="#m" x="225.602" y="137.87"/><use xlink:href="#n" x="232.925" y="137.87"/><use xlink:href="#q" x="236.586" y="137.87"/><use xlink:href="#k" x="240.247" y="137.87"/><use xlink:href="#m" x="243.908" y="137.87"/><use xlink:href="#p" x="247.57" y="137.87"/><path fill="none" stroke="#000" stroke-miterlimit="10" stroke-width=".399" d="m34.93 144.305 2.816-2.817m-2.816 0 2.816 2.817"/><use xlink:href="#j" x="3.387" y="137.87"/><use xlink:href="#k" x="7.048" y="137.87"/><use xlink:href="#l" x="10.71" y="137.87"/><use xlink:href="#m" x="14.371" y="137.87"/><use xlink:href="#r" x="18.032" y="137.87"/><use xlink:href="#s" x="21.693" y="137.87"/><use xlink:href="#k" x="29.016" y="137.87"/><use xlink:href="#x" x="32.677" y="137.87"/><use xlink:href="#y" x="36.338" y="137.87"/><use xlink:href="#z" x="40" y="137.87"/><use xlink:href="#m" x="43.661" y="137.87"/><use xlink:href="#r" x="50.984" y="137.87"/><use xlink:href="#n" x="54.645" y="137.87"/><use xlink:href="#k" x="58.306" y="137.87"/><use xlink:href="#m" x="61.967" y="137.87"/><use xlink:href="#p" x="65.629" y="137.87"/><path fill="none" stroke="#000" stroke-miterlimit="10" stroke-width=".399" d="m125.902 207.973 2.82-2.817m-2.82 0 2.82 2.817"/><use xlink:href="#j" x="68.873" y="208.223"/><use xlink:href="#k" x="72.534" y="208.223"/><use xlink:href="#l" x="76.196" y="208.223"/><use xlink:href="#m" x="79.857" y="208.223"/><use xlink:href="#t" x="83.518" y="208.223"/><use xlink:href="#u" x="87.179" y="208.223"/><use xlink:href="#n" x="90.841" y="208.223"/><use xlink:href="#n" x="94.502" y="208.223"/><use xlink:href="#k" x="101.824" y="208.223"/><use xlink:href="#x" x="105.486" y="208.223"/><use xlink:href="#y" x="109.147" y="208.223"/><use xlink:href="#z" x="112.808" y="208.223"/><use xlink:href="#m" x="116.47" y="208.223"/><use xlink:href="#p" x="120.131" y="208.223"/><path fill="none" stroke="#000" stroke-miterlimit="10" stroke-width=".399" d="m216.879 207.973 2.816-2.817m-2.816 0 2.816 2.817"/><use xlink:href="#j" x="181.673" y="214.909"/><use xlink:href="#k" x="185.334" y="214.909"/><use xlink:href="#l" x="188.996" y="214.909"/><use xlink:href="#m" x="192.657" y="214.909"/><use xlink:href="#t" x="196.318" y="214.909"/><use xlink:href="#u" x="199.979" y="214.909"/><use xlink:href="#n" x="203.641" y="214.909"/><use xlink:href="#n" x="207.302" y="214.909"/><use xlink:href="#k" x="214.624" y="214.909"/><use xlink:href="#x" x="218.286" y="214.909"/><use xlink:href="#y" x="221.947" y="214.909"/><use xlink:href="#z" x="225.608" y="214.909"/><use xlink:href="#m" x="229.27" y="214.909"/><use xlink:href="#n" x="236.592" y="214.909"/><use xlink:href="#q" x="240.253" y="214.909"/><use xlink:href="#k" x="243.915" y="214.909"/><use xlink:href="#m" x="247.576" y="214.909"/><use xlink:href="#p" x="251.237" y="214.909"/><path fill="none" stroke="#000" stroke-miterlimit="10" stroke-width=".399" d="m34.93 207.973 2.816-2.817m-2.816 0 2.816 2.817"/><use xlink:href="#j" x="-.274" y="214.909"/><use xlink:href="#k" x="3.387" y="214.909"/><use xlink:href="#l" x="7.049" y="214.909"/><use xlink:href="#m" x="10.71" y="214.909"/><use xlink:href="#t" x="14.371" y="214.909"/><use xlink:href="#u" x="18.032" y="214.909"/><use xlink:href="#n" x="21.694" y="214.909"/><use xlink:href="#n" x="25.355" y="214.909"/><use xlink:href="#k" x="32.67" y="214.909"/><use xlink:href="#x" x="36.332" y="214.909"/><use xlink:href="#y" x="39.993" y="214.909"/><use xlink:href="#z" x="43.654" y="214.909"/><use xlink:href="#m" x="47.316" y="214.909"/><use xlink:href="#r" x="54.638" y="214.909"/><use xlink:href="#n" x="58.299" y="214.909"/><use xlink:href="#k" x="61.961" y="214.909"/><use xlink:href="#m" x="65.622" y="214.909"/><use xlink:href="#p" x="69.283" y="214.909"/><path fill="none" stroke="#000" stroke-miterlimit="10" stroke-width=".399" d="m125.902 11.059 2.82-2.817m-2.82 0 2.82 2.817"/><use xlink:href="#j" x="110.836" y="5.574"/><use xlink:href="#k" x="114.497" y="5.574"/><use xlink:href="#l" x="118.159" y="5.574"/><use xlink:href="#A" x="121.82" y="5.574"/><use xlink:href="#s" x="125.481" y="5.574"/><use xlink:href="#u" x="129.142" y="5.574"/><use xlink:href="#m" x="132.804" y="5.574"/><use xlink:href="#t" x="136.465" y="5.574"/><use xlink:href="#p" x="140.126" y="5.574"/><path fill="none" stroke="#000" stroke-miterlimit="10" stroke-width=".399" d="m125.902 278.785 2.82-2.816m-2.82 0 2.82 2.816"/><use xlink:href="#j" x="110.836" y="285.722"/><use xlink:href="#k" x="114.497" y="285.722"/><use xlink:href="#l" x="118.159" y="285.722"/><use xlink:href="#k" x="121.82" y="285.722"/><use xlink:href="#s" x="125.481" y="285.722"/><use xlink:href="#w" x="129.142" y="285.722"/><use xlink:href="#m" x="132.804" y="285.722"/><use xlink:href="#t" x="136.465" y="285.722"/><use xlink:href="#p" x="140.126" y="285.722"/><path fill="none" stroke="#000" stroke-miterlimit="10" stroke-width=".399" d="m216.879 144.922 2.816-2.817m-2.816 0 2.816 2.817"/><use xlink:href="#j" x="203.641" y="151.86"/><use xlink:href="#k" x="207.302" y="151.86"/><use xlink:href="#l" x="210.964" y="151.86"/><use xlink:href="#n" x="214.625" y="151.86"/><use xlink:href="#q" x="218.286" y="151.86"/><use xlink:href="#k" x="221.947" y="151.86"/><use xlink:href="#m" x="225.609" y="151.86"/><use xlink:href="#p" x="229.27" y="151.86"/><path fill="none" stroke="#000" stroke-miterlimit="10" stroke-width=".399" d="m34.93 144.922 2.816-2.817m-2.816 0 2.816 2.817"/><use xlink:href="#j" x="21.693" y="151.86"/><use xlink:href="#k" x="25.354" y="151.86"/><use xlink:href="#l" x="29.016" y="151.86"/><use xlink:href="#r" x="32.677" y="151.86"/><use xlink:href="#n" x="36.338" y="151.86"/><use xlink:href="#k" x="39.999" y="151.86"/><use xlink:href="#m" x="43.661" y="151.86"/><use xlink:href="#p" x="47.322" y="151.86"/><path fill="none" stroke="#000" stroke-miterlimit="10" stroke-width=".399" d="m34.93 11.059 2.816-2.817m-2.816 0 2.816 2.817"/><use xlink:href="#j" x="10.709" y="5.574"/><use xlink:href="#k" x="14.37" y="5.574"/><use xlink:href="#l" x="18.032" y="5.574"/><use xlink:href="#A" x="21.693" y="5.574"/><use xlink:href="#s" x="25.354" y="5.574"/><use xlink:href="#u" x="29.015" y="5.574"/><use xlink:href="#m" x="32.677" y="5.574"/><use xlink:href="#t" x="36.338" y="5.574"/><use xlink:href="#r" x="43.66" y="5.574"/><use xlink:href="#n" x="47.322" y="5.574"/><use xlink:href="#k" x="50.983" y="5.574"/><use xlink:href="#m" x="54.644" y="5.574"/><use xlink:href="#p" x="58.306" y="5.574"/><path fill="none" stroke="#000" stroke-miterlimit="10" stroke-width=".399" d="m216.879 11.059 2.816-2.817m-2.816 0 2.816 2.817"/><use xlink:href="#j" x="192.657" y="5.574"/><use xlink:href="#k" x="196.318" y="5.574"/><use xlink:href="#l" x="199.98" y="5.574"/><use xlink:href="#A" x="203.641" y="5.574"/><use xlink:href="#s" x="207.302" y="5.574"/><use xlink:href="#u" x="210.963" y="5.574"/><use xlink:href="#m" x="214.625" y="5.574"/><use xlink:href="#t" x="218.286" y="5.574"/><use xlink:href="#n" x="225.608" y="5.574"/><use xlink:href="#q" x="229.27" y="5.574"/><use xlink:href="#k" x="232.931" y="5.574"/><use xlink:href="#m" x="236.592" y="5.574"/><use xlink:href="#p" x="240.254" y="5.574"/><path fill="none" stroke="#000" stroke-miterlimit="10" stroke-width=".399" d="m34.93 278.785 2.816-2.816m-2.816 0 2.816 2.816"/><use xlink:href="#j" x="10.709" y="285.722"/><use xlink:href="#k" x="14.37" y="285.722"/><use xlink:href="#l" x="18.032" y="285.722"/><use xlink:href="#k" x="21.693" y="285.722"/><use xlink:href="#s" x="25.354" y="285.722"/><use xlink:href="#w" x="29.015" y="285.722"/><use xlink:href="#m" x="32.677" y="285.722"/><use xlink:href="#t" x="36.338" y="285.722"/><use xlink:href="#r" x="43.66" y="285.722"/><use xlink:href="#n" x="47.322" y="285.722"/><use xlink:href="#k" x="50.983" y="285.722"/><use xlink:href="#m" x="54.644" y="285.722"/><use xlink:href="#p" x="58.306" y="285.722"/><path fill="none" stroke="#000" stroke-miterlimit="10" stroke-width=".399" d="m216.879 278.785 2.816-2.816m-2.816 0 2.816 2.816"/><use xlink:href="#j" x="192.657" y="285.722"/><use xlink:href="#k" x="196.318" y="285.722"/><use xlink:href="#l" x="199.98" y="285.722"/><use xlink:href="#k" x="203.641" y="285.722"/><use xlink:href="#s" x="207.302" y="285.722"/><use xlink:href="#w" x="210.963" y="285.722"/><use xlink:href="#m" x="214.625" y="285.722"/><use xlink:href="#t" x="218.286" y="285.722"/><use xlink:href="#n" x="225.608" y="285.722"/><use xlink:href="#q" x="229.27" y="285.722"/><use xlink:href="#k" x="232.931" y="285.722"/><use xlink:href="#m" x="236.592" y="285.722"/><use xlink:href="#p" x="240.254" y="285.722"/><path fill="none" stroke="#000" stroke-miterlimit="10" stroke-width=".399" d="m125.902 144.922 2.82-2.817m-2.82 0 2.82 2.817"/><use xlink:href="#j" x="109.006" y="139.437"/><use xlink:href="#k" x="112.667" y="139.437"/><use xlink:href="#l" x="116.329" y="139.437"/><use xlink:href="#B" x="119.99" y="139.437"/><use xlink:href="#n" x="123.651" y="139.437"/><use xlink:href="#A" x="127.312" y="139.437"/><use xlink:href="#m" x="130.974" y="139.437"/><use xlink:href="#n" x="134.635" y="139.437"/><use xlink:href="#u" x="138.296" y="139.437"/><use xlink:href="#p" x="141.957" y="139.437"/><path fill="none" stroke="#000" stroke-miterlimit="10" stroke-width=".399" d="m174.625 11.059 2.816-2.817m-2.816 0 2.816 2.817"/><use xlink:href="#j" x="165.05" y="5.574"/><use xlink:href="#k" x="168.711" y="5.574"/><use xlink:href="#l" x="172.373" y="5.574"/><use xlink:href="#C" x="176.034" y="5.574"/><use xlink:href="#D" x="179.695" y="5.574"/><use xlink:href="#p" x="183.356" y="5.574"/><path fill="none" stroke="#000" stroke-miterlimit="10" stroke-width=".399" d="m125.902 50.605 2.82-2.816m-2.82 0 2.82 2.816"/><use xlink:href="#j" x="114.498" y="45.122"/><use xlink:href="#k" x="118.159" y="45.122"/><use xlink:href="#l" x="121.821" y="45.122"/><use xlink:href="#E" x="125.482" y="45.122"/><use xlink:href="#z" x="129.143" y="45.122"/><use xlink:href="#F" x="132.804" y="45.122"/><use xlink:href="#p" x="136.466" y="45.122"/><path fill="none" stroke="#000" stroke-miterlimit="10" stroke-width=".399" d="m125.902 52.82 2.82-2.82m-2.82 0 2.82 2.82"/><use xlink:href="#j" x="112.667" y="59.757"/><use xlink:href="#k" x="116.328" y="59.757"/><use xlink:href="#l" x="119.99" y="59.757"/><use xlink:href="#G" x="123.651" y="59.757"/><use xlink:href="#q" x="127.312" y="59.757"/><use xlink:href="#k" x="130.973" y="59.757"/><use xlink:href="#n" x="134.635" y="59.757"/><use xlink:href="#p" x="138.296" y="59.757"/></svg>