<svg xmlns="http://www.w3.org/2000/svg" width="92.612" height="61.562"><defs><clipPath id="a"><path d="M0 0h92.418v61.344H0Zm0 0"/></clipPath></defs><path fill="none" stroke="#7F7F7F" stroke-miterlimit="10" stroke-width=".199" d="M3.605 57.566h85.04M3.605 29.22h85.04M3.605.883h85.04M3.605 57.566V.871M31.95 57.566V.871m28.348 56.695V.871m28.336 56.695V.871"/><g clip-path="url(#a)"><path fill="none" stroke="#000" stroke-miterlimit="10" stroke-width=".399" d="m3.605 57.566-2.492-2.492 5.465-4.707-3.71-5.703 6.757-2.894-1.086-6.524 7.45.563 2.066-6.301 6.496 3.41 3.918-5.606 5.543 4.567 4.703-5.125 5.082 4.95 4.965-4.977 5.004 4.945 4.87-5.145 5.259 4.57 4.328-5.706 5.863 3.554 2.836-6.734 6.543 1.215-.399-7.457 6.278-2.028-3.559-6.464 5.363-4.157-.011.293-4.985 4.985 4.985 4.98-4.985 4.98 4.985 4.981-4.985 4.98 4.985 4.985-4.985 4.98 4.985 4.98-4.985 4.981 4.985 4.985-4.985 4.98-3.336 1.645-4.98-4.98-4.98 4.98-4.981-4.98-4.98 4.98-4.985-4.98-4.98 4.98-4.98-4.98-4.981 4.98-4.985-4.98-4.98 4.98-4.98-4.98-4.981 4.98-4.984-4.98-4.98 4.98-4.981-4.98-2.493 2.491h-2"/></g></svg>