<svg xmlns="http://www.w3.org/2000/svg" xmlns:xlink="http://www.w3.org/1999/xlink" width="640.856" height="146.324"><defs><path id="a" d="M4.25-1.484v-4.953c0-.329-.062-.485-.469-.485h-.484c-.375 0-.469.14-.469.484v4.891c0 .219 0 .766-.89.766a1.24 1.24 0 0 1-1.032-.5c-.078-.094-.094-.11-.156-.11-.11 0-.125.079-.14.188-.047.312-.157.828-.157.875 0 .094.063.125.25.203a4.4 4.4 0 0 0 1.64.344c1.063 0 1.907-.531 1.907-1.703m0 0"/><path id="b" d="M4.719-.484v-2.672c0-1.563-1.516-1.578-2-1.578-.469 0-.969.046-1.64.312-.204.094-.266.125-.266.234 0 .079.062.657.078.735 0 .047.062.11.125.11.046 0 .078-.032.109-.063.438-.453.922-.672 1.547-.672.531 0 .703.328.703.922v.344c-.36 0-2.969.015-2.969 1.484C.406-.625.97.109 1.844.109c.343 0 1.094-.093 1.562-.78v.187c0 .328.063.484.469.484h.375c.375 0 .469-.125.469-.484M3.375-1.531c0 .922-.953.922-.984.922-.422 0-.688-.36-.688-.735 0-.984 1.39-1.047 1.672-1.062Zm0 0"/><path id="c" d="M4.984-.484v-2.75c0-1.032-.437-1.438-1.453-1.438-1.047 0-1.5.75-1.625 1.016h-.015v-.485c0-.328-.063-.484-.47-.484h-.343c-.36 0-.484.11-.484.484v3.657c0 .359.11.484.484.484h.39c.391 0 .485-.125.485-.484v-2.203c0-.86.578-1.266 1.094-1.266.484 0 .578.219.578.734v2.735c0 .328.078.484.484.484H4.5c.39 0 .484-.125.484-.484m0 0"/><path id="d" d="M4.984-.484v-3.61c0-.312-.062-.468-.484-.468h-.39c-.376 0-.485.125-.485.468v2.375c0 .657-.344 1.219-1.047 1.219-.562 0-.625-.14-.625-.672v-2.922c0-.312-.062-.468-.484-.468h-.39c-.36 0-.485.109-.485.468v2.844c0 1.063.578 1.36 1.625 1.36.265 0 .969 0 1.437-.844v.25c0 .328.078.484.485.484H4.5c.39 0 .484-.125.484-.484m0 0"/><path id="e" d="M3.547-3.937v-.47c0-.202 0-.265-.172-.265-.281 0-1.016.094-1.484 1.172v-.64c0-.329-.079-.485-.485-.485h-.312c-.36 0-.485.11-.485.484v3.657c0 .359.11.484.485.484h.36c.374 0 .484-.125.484-.484v-1.813c0-.937.78-1.328 1.406-1.375.187 0 .203 0 .203-.265m0 0"/><path id="f" d="M4.719-4.297c0-.266-.266-.266-.407-.266h-.218c-.157 0-.375 0-.532.22-.03.062-.828 2.265-.874 2.921h-.016c-.047-.484-.453-1.406-.89-2.36-.282-.64-.344-.78-.844-.78H.672c-.14 0-.375 0-.375.25 0 .046.016.109.047.171L2.219 0c-.078.203-.11.313-.14.422-.11.328-.282.781-.829.781-.328 0-.547-.14-.656-.219C.53.954.516.954.484.954c-.046 0-.125.03-.125.14 0 .078.063.765.094.812.078.125.625.14.781.14 1.235 0 1.72-1.171 1.813-1.421l1.625-4.719c.047-.14.047-.156.047-.203m0 0"/><path id="g" d="M4.719-.36c0-.359-.375-.359-.485-.359h-.703v-5.937c0-.188 0-.485-.437-.485-.188 0-.235.016-.36.141-.171.156-.546.531-1.53.547-.188 0-.454.078-.454.36 0 .359.36.359.484.359.297 0 .657-.047.938-.125v5.14H1.39c-.125 0-.47 0-.47.36 0 .359.345.359.47.359h2.843c.11 0 .485 0 .485-.36m0 0"/><path id="h" d="M4.922-.484v-.11c0-.156 0-.36-.203-.437-.078-.047-.39-.047-.594-.047l-.672.016H1.828l1.328-1.25c.14-.126.516-.438.672-.579.547-.53 1.094-1.062 1.094-1.953 0-1.218-.875-2.297-2.344-2.297-.344 0-.906.047-1.39.438-.094.078-.547.437-.735 1.094l.5.64c.063.078.094.125.156.125.094 0 .11-.078.141-.187.203-.688.547-1.11 1.188-1.11.765 0 1.093.704 1.093 1.313 0 .64-.375 1.312-.984 1.953L.64-.844c-.094.094-.094.11-.094.282v.078c0 .359.11.484.484.484h3.422c.375 0 .469-.125.469-.484m0 0"/><path id="i" d="M5.016-2.031c0-.89-.485-1.5-1.375-1.735.812-.437 1.078-1.078 1.078-1.64 0-1.61-1.422-1.735-2.078-1.735-1.36 0-2.032.985-2.032 1.063 0 .062.063.14.063.14l.281.407c.078.125.156.125.156.125.063 0 .094-.047.141-.11.5-.734 1.219-.734 1.344-.734.64 0 .719.328.719.813 0 .14 0 .625-.297 1-.25.28-.5.296-.797.328-.11 0-.297.015-.328.03-.063.032-.063.095-.063.25v.173c0 .265 0 .281.266.281h.437c.906 0 1.016.563 1.016 1.328 0 .672-.063 1.328-.969 1.328a2.48 2.48 0 0 1-1.734-.703C.75-1.5.75-1.516.704-1.516c-.095 0-.11.094-.126.11 0 0-.125.64-.125.687 0 .125.86.938 2.172.938 1.719 0 2.39-.922 2.39-2.25m0 0"/><path id="j" d="M5.156-2c0-.36-.125-.469-.468-.469h-.422v-3.968c0-.36-.11-.485-.485-.485h-.719c-.187 0-.343 0-.453.234L.391-2.609c-.079.14-.079.172-.079.359V-2c0 .313.063.469.47.469h2.25v1.047c0 .328.062.484.484.484h.265c.39 0 .485-.125.485-.484v-1.047h.422c.312 0 .468-.063.468-.469m-2.062-.469h-1.75C2.938-5.39 3.03-5.703 3.078-5.875h.016Zm0 0"/><path id="k" d="M4.922-2.203c0-1.313-.547-2.297-2.078-2.297a2 2 0 0 0-.719.14v-1.562h1.953c.469 0 .484-.234.484-.5 0-.25 0-.5-.484-.5H1.312c-.328 0-.484.063-.484.469v3.047c0 .453.235.453.5.453.25 0 .344 0 .484-.235.235-.39.579-.593 1-.593.641 0 .641.765.641 1.531 0 .781 0 1.531-1.047 1.531-.297 0-.984-.094-1.375-.875C1-1.656.97-1.719.891-1.719s-.094.047-.157.14c-.14.22-.359.579-.359.642 0 .078.64 1.156 2.063 1.156 1.609 0 2.484-.813 2.484-2.422m0 0"/><path id="l" d="M5.016-2.36c0-.562 0-2.421-1.938-2.421-.562 0-.953.312-1.219.89.047-.89.047-1.109.204-1.515.296-.75.953-.844 1.296-.844.172 0 .438.031.672.156.078.047.11.078.157.078.125 0 .125-.125.125-.28v-.36c0-.235 0-.25-.36-.375-.25-.11-.531-.11-.625-.11C.453-7.14.453-4.266.453-3.39c0 1.032 0 3.61 2.328 3.61.766 0 1.25-.188 1.656-.64.516-.579.579-1.157.579-1.938m-1.391 0c0 .97 0 1.641-.86 1.641-.78 0-.89-.89-.89-1.75 0-.828.234-1.594.953-1.594.797 0 .797.72.797 1.704m0 0"/><path id="m" d="M5.016-6.422c0-.219 0-.484-.422-.5H1.14c-.485 0-.688 0-.688.469v.14c0 .157 0 .344.219.438.062.031.39.031.61.031l.687-.015h1.687C1.422-3.391 1.422-.875 1.422-.375c0 .328.078.484.484.484h.453c.157 0 .485 0 .485-.39.031-2.469.89-4.281 2.094-5.781.078-.094.078-.172.078-.36m0 0"/><path id="n" d="M5.016-2.031c0-.906-.438-1.469-1.235-1.703C4.75-4.047 4.86-4.75 4.86-5.187c0-1.47-.937-1.954-2.125-1.954C1.656-7.14.61-6.75.61-5.187c0 .515.172 1.156 1.079 1.453C.656-3.437.452-2.656.452-2.031c0 1.562.844 2.25 2.281 2.25 1.5 0 2.282-.75 2.282-2.25M3.594-5.187c0 .578-.016 1.093-.86 1.093-.828 0-.843-.484-.843-1.093 0-.688.046-1.063.843-1.063.782 0 .86.36.86 1.063m.031 3.14c0 .75-.016 1.328-.89 1.328-.876 0-.891-.562-.891-1.328 0-.64 0-1.328.89-1.328.891 0 .891.672.891 1.328m0 0"/><path id="o" d="M5.016-3.547C5.016-4.609 5-7.14 2.734-7.14c-.609 0-1.265.11-1.78.75-.423.547-.5 1.047-.5 1.813 0 .625.03 1.203.452 1.766.407.515.86.671 1.5.671.735 0 1.078-.593 1.219-.906-.016.094 0 .281-.031.719-.063.61-.235 1.61-1.328 1.61-.313 0-.594-.079-.875-.329-.047-.062-.079-.078-.125-.078-.079 0-.094.047-.157.125-.187.328-.328.547-.328.61 0 .078.532.609 1.5.609 2.735 0 2.735-2.875 2.735-3.766m-1.407-.89c0 .14 0 1.578-.953 1.578-.797 0-.797-.72-.797-1.703 0-.97 0-1.688.907-1.688.687 0 .843.766.843 1.813m0 0"/><path id="p" d="M5.047-3.422c0-1.36 0-3.719-2.313-3.719C.422-7.14.422-4.812.422-3.42c0 1.374 0 3.64 2.312 3.64 2.313 0 2.313-2.25 2.313-3.64m-1.36-.14c0 .578 0 1.343-.062 1.89-.031.266-.14 1.172-.89 1.172-.735 0-.844-.922-.876-1.187-.078-.532-.078-1.47-.078-1.875 0-.579 0-1.22.063-1.72.031-.265.125-1.14.89-1.14.735 0 .86.844.891 1.031.063.516.063 1.297.063 1.829m0 0"/><path id="q" d="M5.625-6.328v-.078c0-.328-.078-.485-.484-.485H1.39c-.36 0-.485.11-.485.485v5.922c0 .359.11.484.485.484h.5c.375 0 .484-.125.484-.484v-2.5h2.313c.312 0 .468-.063.468-.47 0-.358-.125-.468-.468-.468H2.375v-1.953h.422l2.25.016c.344 0 .578 0 .578-.47m0 0"/><path id="r" d="M4.781-2.594c0-1.281-.61-2.14-2.093-2.14-1.594 0-2.375.89-2.375 2.406 0 1.64.937 2.437 2.515 2.437.375 0 .938-.046 1.594-.375.219-.109.297-.14.297-.265 0-.063-.032-.36-.047-.438-.031-.312-.047-.312-.14-.312-.032 0-.063 0-.173.093a2.2 2.2 0 0 1-1.5.579c-1.125 0-1.25-.891-1.28-1.532h2.718c.234 0 .484 0 .484-.453m-1.11-.062H1.595c.031-.61.234-1.36 1.094-1.36.796 0 .953.579.984 1.36m0 0"/><path id="s" d="M5.219-2.297c0-.484 0-2.375-1.875-2.375-.828 0-1.313.453-1.406.563v-2.328c0-.329-.079-.485-.485-.485h-.36c-.359 0-.484.11-.484.484v5.954c0 .359.11.484.485.484h.39c.172 0 .47 0 .485-.39.453.5.968.5 1.125.5 2.125 0 2.125-1.907 2.125-2.407m-1.36 0c0 .735 0 1.688-1.125 1.688A.97.97 0 0 1 1.97-1v-2.61c.125-.124.422-.343.875-.343 1.015 0 1.015.906 1.015 1.656m0 0"/><path id="t" d="M8.828-.484v-5.953c0-.329-.062-.485-.469-.485h-.843c-.25 0-.5.031-.672.438L5.53-3.266c-.203.516-.578 1.438-.656 1.782h-.016c-.078-.36-.5-1.344-.703-1.875L2.875-6.516c-.156-.406-.484-.406-.656-.406H1.39c-.36 0-.485.11-.485.484v5.954c0 .359.11.484.485.484h.265c.375 0 .485-.125.485-.484v-5.141c.109.438.562 1.547.797 2.14L4.093-.64c.187.422.422.422.765.422.329 0 .579 0 .75-.422l1.282-3.14c.093-.235.64-1.594.703-1.844h.015v5.14c0 .329.063.485.47.485h.28c.375 0 .47-.125.47-.484m0 0"/><path id="u" d="M4.563-.5c0-.11-.047-.562-.063-.703 0-.016-.031-.125-.125-.125-.031 0-.062 0-.156.11-.172.14-.64.546-1.453.546-1.047 0-1.047-1-1.047-1.64 0-.813.062-1.641 1.078-1.641.64 0 .906.156 1.265.453.125.11.141.11.188.11.094 0 .11-.094.125-.126.016-.078.125-.64.125-.687 0-.094-.078-.14-.25-.219-.469-.219-.766-.312-1.469-.312-1.484 0-2.406.703-2.406 2.437C.375-.64 1.219.11 2.735.11c.265 0 .859-.015 1.53-.343.282-.157.298-.172.298-.266m0 0"/><path id="v" d="M4.984-.484v-2.75c0-1.032-.437-1.438-1.453-1.438-1 0-1.453.688-1.594.969h-.015v-2.734c0-.329-.063-.485-.469-.485h-.375c-.36 0-.484.11-.484.484v5.954c0 .359.11.484.484.484h.39c.391 0 .485-.125.485-.484v-2.203c0-.86.578-1.266 1.094-1.266.484 0 .578.219.578.734v2.735c0 .328.078.484.484.484H4.5c.39 0 .484-.125.484-.484m0 0"/><path id="w" d="M6.875-.266c0-.046 0-.078-.047-.203l-2.11-6.015c-.14-.438-.437-.438-.624-.438h-.89c-.188 0-.485 0-.626.438L.468-.47c-.046.125-.046.156-.046.203 0 .266.25.266.39.266h.36c.172 0 .484 0 .625-.406l.39-1.094h2.75l.344.953c.125.344.188.547.672.547h.531c.141 0 .391 0 .391-.266M4.641-2.359H2.484l.72-2.11c.14-.453.28-.828.358-1.187.063.25.063.265.141.5Zm0 0"/><path id="x" d="M5.219-2.297c0-.5 0-2.375-1.813-2.375-.578 0-1.11.234-1.469.578 0-.375-.14-.468-.484-.468h-.36c-.359 0-.484.109-.484.468v5.547c0 .36.11.484.485.484h.39c.375 0 .485-.14.485-.484V-.39c.437.5.984.5 1.125.5 2.125 0 2.125-1.906 2.125-2.406m-1.36.016c0 .39 0 1.672-1.125 1.672a.86.86 0 0 1-.53-.172c-.235-.172-.235-.219-.235-.39v-2.391c.11-.11.437-.329.86-.329 1.015 0 1.03 1.172 1.03 1.61m0 0"/><path id="y" d="M1.938-.484v-3.61c0-.312-.079-.468-.485-.468h-.36c-.359 0-.484.109-.484.468v3.61c0 .359.11.484.485.484h.36c.374 0 .484-.125.484-.484M2-6.047v-.187c0-.313-.062-.47-.469-.47h-.515c-.375 0-.485.126-.485.47v.187c0 .297.063.484.485.484h.515c.407 0 .469-.171.469-.484m0 0"/><path id="z" d="M1.938-.484v-5.953c0-.329-.079-.485-.485-.485h-.36c-.359 0-.484.11-.484.484v5.954c0 .359.11.484.485.484h.36c.374 0 .484-.125.484-.484m0 0"/><path id="A" d="M5.328-4.031c0-.047-.047-.282-.078-.39-.031-.235-.031-.25-.219-.25-.312 0-.797.109-1.187.343-.469-.313-.985-.344-1.406-.344-.422 0-2.016 0-2.016 1.64 0 .407.11.891.5 1.235C.64-1.437.64-1.047.64-1c0 .188.062.516.28.797C.767-.156.25.03.25.672c0 .312.156.828.781 1.11.563.265 1.235.265 1.703.265.579 0 2.485 0 2.485-1.406 0-1.563-1.407-1.563-2.75-1.563H2c-.36 0-.5 0-.64-.11-.048-.046-.22-.187-.22-.452 0-.079.016-.094.032-.157.469.266 1.047.266 1.266.266.406 0 2 0 2-1.64 0-.579-.22-.938-.313-1.047.172 0 .516 0 .922.109.047.031.11.047.14.047.094 0 .141-.063.141-.125m-2.172 1c0 .547-.031.937-.719.937-.703 0-.734-.375-.734-.922 0-.546.031-.937.734-.937.688 0 .72.375.72.922M4.203.672c0 .656-1.14.656-1.469.656-.39 0-1.453 0-1.453-.687 0-.47.297-.47.532-.47h1.156c.812 0 1.234.142 1.234.5m0 0"/><path id="B" d="M3.953-1.406c0-.563-.297-.907-.484-1.063-.39-.36-.75-.422-1.172-.5-.547-.11-.938-.187-.938-.562 0-.422.329-.5.72-.5.655 0 1.015.25 1.28.468.094.11.125.11.157.11.109 0 .125-.094.14-.14.016-.079.11-.641.11-.688 0-.157-.532-.297-.641-.328a3.5 3.5 0 0 0-.969-.125c-.453 0-1.781 0-1.781 1.422 0 .484.219.796.484 1.03.344.313.735.391 1.297.5.297.048.797.141.797.579 0 .469-.375.531-.765.531-.438 0-1-.125-1.47-.687-.046-.047-.077-.079-.14-.079-.094 0-.125.094-.125.157-.031.14-.14.703-.14.797 0 .187.75.422.75.422.546.171.953.171 1.125.171.5 0 1.765-.046 1.765-1.515m0 0"/><path id="C" d="M3.719-.469c0-.031-.016-.094-.078-.312-.047-.203-.079-.25-.157-.25-.062 0-.062 0-.125.062-.109.078-.375.297-.796.297-.235 0-.391-.172-.391-.828v-2.344h.89c.126 0 .47 0 .47-.36 0-.359-.344-.359-.47-.359h-.89v-.828c0-.328-.063-.484-.485-.484h-.296c-.36 0-.485.11-.485.484v.829H.672c-.11 0-.469 0-.469.359 0 .36.36.36.469.36h.203v2.515c0 1.016.36 1.437 1.047 1.437.094 0 .531 0 1.047-.156.172-.047.75-.234.75-.422m0 0"/><path id="D" d="M5.469-2c0-1.11-.828-1.953-1.813-2.172l-.969-.219c-.218-.062-.828-.28-.828-.859 0-.844.844-.86 1.188-.86.547 0 1.047.126 1.531.61.172.14.172.156.219.156.062 0 .11-.031.14-.172l.141-.875c.031-.078.031-.093.031-.125 0-.078-.015-.093-.265-.218-.703-.36-1.297-.407-1.797-.407-.89 0-2.438.22-2.438 2.079 0 .703.375 1.171.563 1.359.5.515.969.625 1.75.797.562.14.781.187 1 .39.094.094.312.297.312.688 0 .937-.859.953-1.187.953-.844 0-1.578-.328-2.063-.781-.125-.125-.14-.125-.187-.125-.063 0-.11.031-.14.187l-.141.86c-.032.093-.032.109-.032.14 0 .203 1.047.563 1.094.578A4.7 4.7 0 0 0 3.047.22C4.53.219 5.469-.453 5.469-2m0 0"/><path id="E" d="M8.031-.484v-2.75c0-1.032-.437-1.438-1.453-1.438-.703 0-1.25.328-1.61.984-.155-.953-1.015-.984-1.437-.984-.187 0-.594 0-1.047.328a2 2 0 0 0-.578.688h-.015v-.485c0-.328-.063-.484-.47-.484h-.343c-.36 0-.484.11-.484.484v3.657c0 .359.11.484.484.484h.39c.391 0 .485-.125.485-.484v-2.203c0-.891.61-1.266 1.094-1.266s.594.203.594.734v2.735c0 .359.109.484.468.484h.407C4.89 0 5-.125 5-.484v-2.203c0-.891.61-1.266 1.094-1.266.468 0 .578.203.578.734v2.735c0 .359.11.484.484.484h.407c.375 0 .468-.125.468-.484m0 0"/><path id="F" d="M7.297-3.406c0-2-.734-3.735-3.344-3.735C1.203-7.14.61-5.234.61-3.406c0 1.86.641 3.625 3.344 3.625 2.563 0 3.344-1.578 3.344-3.625m-1.469-.156c0 .874 0 2.984-1.875 2.984S2.078-2.656 2.078-3.562c0-.891 0-2.797 1.875-2.797s1.875 1.89 1.875 2.797m0 0"/><path id="G" d="M5.156-2.25c0-1.625-.797-2.484-2.422-2.484-1.656 0-2.421.89-2.421 2.484 0 1.625.859 2.36 2.421 2.36 1.563 0 2.422-.72 2.422-2.36m-1.343-.11c0 .782 0 1.688-1.079 1.688-1.062 0-1.062-.89-1.062-1.687 0-.766 0-1.657 1.062-1.657 1.079 0 1.079.875 1.079 1.657m0 0"/><path id="H" d="M7-.484v-5.953c0-.329-.078-.485-.484-.485H6.25c-.375 0-.484.14-.484.484v5.235l-2.75-5.313c-.203-.406-.5-.406-.703-.406H1.39c-.36 0-.485.11-.485.484v5.954c0 .359.11.484.485.484h.265c.375 0 .485-.125.485-.484V-5.72L4.89-.406c.203.406.5.406.703.406h.922C6.89 0 7-.125 7-.484m0 0"/><path id="I" d="M4.719-4.281c0-.282-.25-.282-.407-.282H4.11c-.421 0-.53.141-.625.422L2.5-1.125l-.984-3.016c-.063-.203-.141-.421-.625-.421H.656c-.14 0-.39 0-.39.28 0 .032 0 .048.046.188L1.5-.422C1.64 0 1.938 0 2.125 0h.719c.187 0 .5 0 .64-.422l1.188-3.672c.047-.14.047-.156.047-.187m0 0"/><path id="J" d="M7.297-3.406c0-.797-.125-1.75-.688-2.469-.75-.922-1.937-1.047-2.593-1.047H1.39c-.36 0-.485.11-.485.484v5.954c0 .359.11.484.485.484h2.625c2.437 0 3.28-1.453 3.28-3.406m-1.438 0C5.86-2.281 5.75-.86 3.625-.86H2.344v-5.203h1.281c2.14 0 2.234 1.53 2.234 2.656m0 0"/></defs><use xlink:href="#a" x="14.46" y="7.786"/><use xlink:href="#b" x="19.631" y="7.786"/><use xlink:href="#c" x="24.861" y="7.786"/><use xlink:href="#d" x="30.45" y="7.786"/><use xlink:href="#b" x="36.039" y="7.786"/><use xlink:href="#e" x="40.961" y="7.786"/><use xlink:href="#f" x="44.667" y="7.786"/><use xlink:href="#g" x="139.989" y="7.786"/><use xlink:href="#h" x="155.959" y="7.786" fill="#7F7F7F"/><use xlink:href="#i" x="171.929" y="7.786"/><use xlink:href="#j" x="187.9" y="7.786"/><use xlink:href="#k" x="203.87" y="7.786"/><use xlink:href="#l" x="219.84" y="7.786"/><use xlink:href="#m" x="235.81" y="7.786"/><use xlink:href="#n" x="251.78" y="7.786"/><use xlink:href="#o" x="267.75" y="7.786" fill="#7F7F7F"/><use xlink:href="#g" x="278.241" y="7.786"/><use xlink:href="#p" x="283.72" y="7.786"/><use xlink:href="#g" x="294.211" y="7.786"/><use xlink:href="#g" x="299.69" y="7.786"/><use xlink:href="#g" x="310.181" y="7.786"/><use xlink:href="#h" x="315.66" y="7.786"/><use xlink:href="#g" x="326.151" y="7.786"/><use xlink:href="#i" x="331.63" y="7.786"/><use xlink:href="#g" x="342.121" y="7.786"/><use xlink:href="#j" x="347.6" y="7.786"/><use xlink:href="#g" x="358.091" y="7.786"/><use xlink:href="#k" x="363.57" y="7.786"/><g fill="#7F7F7F"><use xlink:href="#g" x="374.061" y="7.786"/><use xlink:href="#l" x="379.54" y="7.786"/></g><use xlink:href="#g" x="390.031" y="7.786"/><use xlink:href="#m" x="395.51" y="7.786"/><use xlink:href="#g" x="406.002" y="7.786"/><use xlink:href="#n" x="411.481" y="7.786"/><use xlink:href="#g" x="421.972" y="7.786"/><use xlink:href="#o" x="427.451" y="7.786"/><use xlink:href="#h" x="437.942" y="7.786"/><use xlink:href="#p" x="443.421" y="7.786"/><use xlink:href="#h" x="453.912" y="7.786"/><use xlink:href="#g" x="459.391" y="7.786"/><use xlink:href="#h" x="469.882" y="7.786"/><use xlink:href="#h" x="475.361" y="7.786"/><g fill="#7F7F7F"><use xlink:href="#h" x="485.852" y="7.786"/><use xlink:href="#i" x="491.331" y="7.786"/></g><use xlink:href="#h" x="501.822" y="7.786"/><use xlink:href="#j" x="507.301" y="7.786"/><use xlink:href="#h" x="517.792" y="7.786"/><use xlink:href="#k" x="523.271" y="7.786"/><use xlink:href="#h" x="533.762" y="7.786"/><use xlink:href="#l" x="539.241" y="7.786"/><use xlink:href="#h" x="549.733" y="7.786"/><use xlink:href="#m" x="555.212" y="7.786"/><use xlink:href="#h" x="565.703" y="7.786"/><use xlink:href="#n" x="571.182" y="7.786"/><use xlink:href="#h" x="581.673" y="7.786"/><use xlink:href="#o" x="587.152" y="7.786"/><g fill="#7F7F7F"><use xlink:href="#i" x="597.643" y="7.786"/><use xlink:href="#p" x="603.122" y="7.786"/></g><use xlink:href="#i" x="613.613" y="7.786"/><use xlink:href="#g" x="619.092" y="7.786"/><use xlink:href="#q" x="10.594" y="20.239"/><use xlink:href="#r" x="16.372" y="20.239"/><use xlink:href="#s" x="21.463" y="20.239"/><use xlink:href="#e" x="26.743" y="20.239"/><use xlink:href="#d" x="30.45" y="20.239"/><use xlink:href="#b" x="36.039" y="20.239"/><use xlink:href="#e" x="40.96" y="20.239"/><use xlink:href="#f" x="44.666" y="20.239"/><use xlink:href="#g" x="76.109" y="20.239"/><use xlink:href="#h" x="92.079" y="20.239"/><use xlink:href="#i" x="108.049" y="20.239"/><use xlink:href="#j" x="124.019" y="20.239"/><use xlink:href="#k" x="139.989" y="20.239"/><use xlink:href="#l" x="155.959" y="20.239" fill="#7F7F7F"/><use xlink:href="#m" x="171.929" y="20.239"/><use xlink:href="#n" x="187.9" y="20.239"/><use xlink:href="#o" x="203.87" y="20.239"/><use xlink:href="#g" x="214.36" y="20.239"/><use xlink:href="#p" x="219.839" y="20.239"/><use xlink:href="#g" x="230.33" y="20.239"/><use xlink:href="#g" x="235.809" y="20.239"/><use xlink:href="#g" x="246.3" y="20.239"/><use xlink:href="#h" x="251.779" y="20.239"/><g fill="#7F7F7F"><use xlink:href="#g" x="262.271" y="20.239"/><use xlink:href="#i" x="267.75" y="20.239"/></g><use xlink:href="#g" x="278.241" y="20.239"/><use xlink:href="#j" x="283.72" y="20.239"/><use xlink:href="#g" x="294.211" y="20.239"/><use xlink:href="#k" x="299.69" y="20.239"/><use xlink:href="#g" x="310.181" y="20.239"/><use xlink:href="#l" x="315.66" y="20.239"/><use xlink:href="#g" x="326.151" y="20.239"/><use xlink:href="#m" x="331.63" y="20.239"/><use xlink:href="#g" x="342.121" y="20.239"/><use xlink:href="#n" x="347.6" y="20.239"/><use xlink:href="#g" x="358.091" y="20.239"/><use xlink:href="#o" x="363.57" y="20.239"/><g fill="#7F7F7F"><use xlink:href="#h" x="374.061" y="20.239"/><use xlink:href="#p" x="379.54" y="20.239"/></g><use xlink:href="#h" x="390.031" y="20.239"/><use xlink:href="#g" x="395.51" y="20.239"/><use xlink:href="#h" x="406.002" y="20.239"/><use xlink:href="#h" x="411.481" y="20.239"/><use xlink:href="#h" x="421.972" y="20.239"/><use xlink:href="#i" x="427.451" y="20.239"/><use xlink:href="#h" x="437.942" y="20.239"/><use xlink:href="#j" x="443.421" y="20.239"/><use xlink:href="#h" x="453.912" y="20.239"/><use xlink:href="#k" x="459.391" y="20.239"/><use xlink:href="#h" x="469.882" y="20.239"/><use xlink:href="#l" x="475.361" y="20.239"/><g fill="#7F7F7F"><use xlink:href="#h" x="485.852" y="20.239"/><use xlink:href="#m" x="491.331" y="20.239"/></g><use xlink:href="#h" x="501.822" y="20.239"/><use xlink:href="#n" x="507.301" y="20.239"/><use xlink:href="#h" x="517.792" y="20.239"/><use xlink:href="#o" x="523.271" y="20.239"/><use xlink:href="#t" x="20.816" y="32.692"/><use xlink:href="#b" x="30.559" y="32.692"/><use xlink:href="#e" x="35.481" y="32.692"/><use xlink:href="#u" x="39.187" y="32.692"/><use xlink:href="#v" x="44.059" y="32.692"/><use xlink:href="#g" x="92.079" y="32.692"/><use xlink:href="#h" x="108.049" y="32.692"/><use xlink:href="#i" x="124.019" y="32.692"/><use xlink:href="#j" x="139.989" y="32.692"/><use xlink:href="#k" x="155.959" y="32.692" fill="#7F7F7F"/><use xlink:href="#l" x="171.929" y="32.692"/><use xlink:href="#m" x="187.9" y="32.692"/><use xlink:href="#n" x="203.87" y="32.692"/><use xlink:href="#o" x="219.84" y="32.692"/><use xlink:href="#g" x="230.33" y="32.692"/><use xlink:href="#p" x="235.809" y="32.692"/><use xlink:href="#g" x="246.3" y="32.692"/><use xlink:href="#g" x="251.779" y="32.692"/><g fill="#7F7F7F"><use xlink:href="#g" x="262.271" y="32.692"/><use xlink:href="#h" x="267.75" y="32.692"/></g><use xlink:href="#g" x="278.241" y="32.692"/><use xlink:href="#i" x="283.72" y="32.692"/><use xlink:href="#g" x="294.211" y="32.692"/><use xlink:href="#j" x="299.69" y="32.692"/><use xlink:href="#g" x="310.181" y="32.692"/><use xlink:href="#k" x="315.66" y="32.692"/><use xlink:href="#g" x="326.151" y="32.692"/><use xlink:href="#l" x="331.63" y="32.692"/><use xlink:href="#g" x="342.121" y="32.692"/><use xlink:href="#m" x="347.6" y="32.692"/><use xlink:href="#g" x="358.091" y="32.692"/><use xlink:href="#n" x="363.57" y="32.692"/><g fill="#7F7F7F"><use xlink:href="#g" x="374.061" y="32.692"/><use xlink:href="#o" x="379.54" y="32.692"/></g><use xlink:href="#h" x="390.031" y="32.692"/><use xlink:href="#p" x="395.51" y="32.692"/><use xlink:href="#h" x="406.002" y="32.692"/><use xlink:href="#g" x="411.481" y="32.692"/><use xlink:href="#h" x="421.972" y="32.692"/><use xlink:href="#h" x="427.451" y="32.692"/><use xlink:href="#h" x="437.942" y="32.692"/><use xlink:href="#i" x="443.421" y="32.692"/><use xlink:href="#h" x="453.912" y="32.692"/><use xlink:href="#j" x="459.391" y="32.692"/><use xlink:href="#h" x="469.882" y="32.692"/><use xlink:href="#k" x="475.361" y="32.692"/><g fill="#7F7F7F"><use xlink:href="#h" x="485.852" y="32.692"/><use xlink:href="#l" x="491.331" y="32.692"/></g><use xlink:href="#h" x="501.822" y="32.692"/><use xlink:href="#m" x="507.301" y="32.692"/><use xlink:href="#h" x="517.792" y="32.692"/><use xlink:href="#n" x="523.271" y="32.692"/><use xlink:href="#h" x="533.762" y="32.692"/><use xlink:href="#o" x="539.241" y="32.692"/><use xlink:href="#i" x="549.733" y="32.692"/><use xlink:href="#p" x="555.212" y="32.692"/><use xlink:href="#i" x="565.703" y="32.692"/><use xlink:href="#g" x="571.182" y="32.692"/><use xlink:href="#w" x="28.258" y="45.146"/><use xlink:href="#x" x="35.561" y="45.146"/><use xlink:href="#e" x="40.841" y="45.146"/><use xlink:href="#y" x="44.547" y="45.146"/><use xlink:href="#z" x="47.097" y="45.146"/><use xlink:href="#g" x="139.989" y="45.146"/><use xlink:href="#h" x="155.959" y="45.146" fill="#7F7F7F"/><use xlink:href="#i" x="171.929" y="45.146"/><use xlink:href="#j" x="187.9" y="45.146"/><use xlink:href="#k" x="203.87" y="45.146"/><use xlink:href="#l" x="219.84" y="45.146"/><use xlink:href="#m" x="235.81" y="45.146"/><use xlink:href="#n" x="251.78" y="45.146"/><use xlink:href="#o" x="267.75" y="45.146" fill="#7F7F7F"/><use xlink:href="#g" x="278.241" y="45.146"/><use xlink:href="#p" x="283.72" y="45.146"/><use xlink:href="#g" x="294.211" y="45.146"/><use xlink:href="#g" x="299.69" y="45.146"/><use xlink:href="#g" x="310.181" y="45.146"/><use xlink:href="#h" x="315.66" y="45.146"/><use xlink:href="#g" x="326.151" y="45.146"/><use xlink:href="#i" x="331.63" y="45.146"/><use xlink:href="#g" x="342.121" y="45.146"/><use xlink:href="#j" x="347.6" y="45.146"/><use xlink:href="#g" x="358.091" y="45.146"/><use xlink:href="#k" x="363.57" y="45.146"/><g fill="#7F7F7F"><use xlink:href="#g" x="374.061" y="45.146"/><use xlink:href="#l" x="379.54" y="45.146"/></g><use xlink:href="#g" x="390.031" y="45.146"/><use xlink:href="#m" x="395.51" y="45.146"/><use xlink:href="#g" x="406.002" y="45.146"/><use xlink:href="#n" x="411.481" y="45.146"/><use xlink:href="#g" x="421.972" y="45.146"/><use xlink:href="#o" x="427.451" y="45.146"/><use xlink:href="#h" x="437.942" y="45.146"/><use xlink:href="#p" x="443.421" y="45.146"/><use xlink:href="#h" x="453.912" y="45.146"/><use xlink:href="#g" x="459.391" y="45.146"/><use xlink:href="#h" x="469.882" y="45.146"/><use xlink:href="#h" x="475.361" y="45.146"/><g fill="#7F7F7F"><use xlink:href="#h" x="485.852" y="45.146"/><use xlink:href="#i" x="491.331" y="45.146"/></g><use xlink:href="#h" x="501.822" y="45.146"/><use xlink:href="#j" x="507.301" y="45.146"/><use xlink:href="#h" x="517.792" y="45.146"/><use xlink:href="#k" x="523.271" y="45.146"/><use xlink:href="#h" x="533.762" y="45.146"/><use xlink:href="#l" x="539.241" y="45.146"/><use xlink:href="#h" x="549.733" y="45.146"/><use xlink:href="#m" x="555.212" y="45.146"/><use xlink:href="#h" x="565.703" y="45.146"/><use xlink:href="#n" x="571.182" y="45.146"/><use xlink:href="#h" x="581.673" y="45.146"/><use xlink:href="#o" x="587.152" y="45.146"/><g fill="#7F7F7F"><use xlink:href="#i" x="597.643" y="45.146"/><use xlink:href="#p" x="603.122" y="45.146"/></g><use xlink:href="#t" x="30.002" y="57.599"/><use xlink:href="#b" x="39.745" y="57.599"/><use xlink:href="#f" x="44.667" y="57.599"/><use xlink:href="#g" x="60.139" y="57.599"/><use xlink:href="#h" x="76.109" y="57.599"/><use xlink:href="#i" x="92.079" y="57.599"/><use xlink:href="#j" x="108.049" y="57.599"/><use xlink:href="#k" x="124.019" y="57.599"/><use xlink:href="#l" x="139.989" y="57.599"/><use xlink:href="#m" x="155.959" y="57.599" fill="#7F7F7F"/><use xlink:href="#n" x="171.929" y="57.599"/><use xlink:href="#o" x="187.9" y="57.599"/><use xlink:href="#g" x="198.39" y="57.599"/><use xlink:href="#p" x="203.869" y="57.599"/><use xlink:href="#g" x="214.36" y="57.599"/><use xlink:href="#g" x="219.839" y="57.599"/><use xlink:href="#g" x="230.33" y="57.599"/><use xlink:href="#h" x="235.809" y="57.599"/><use xlink:href="#g" x="246.3" y="57.599"/><use xlink:href="#i" x="251.779" y="57.599"/><g fill="#7F7F7F"><use xlink:href="#g" x="262.271" y="57.599"/><use xlink:href="#j" x="267.75" y="57.599"/></g><use xlink:href="#g" x="278.241" y="57.599"/><use xlink:href="#k" x="283.72" y="57.599"/><use xlink:href="#g" x="294.211" y="57.599"/><use xlink:href="#l" x="299.69" y="57.599"/><use xlink:href="#g" x="310.181" y="57.599"/><use xlink:href="#m" x="315.66" y="57.599"/><use xlink:href="#g" x="326.151" y="57.599"/><use xlink:href="#n" x="331.63" y="57.599"/><use xlink:href="#g" x="342.121" y="57.599"/><use xlink:href="#o" x="347.6" y="57.599"/><use xlink:href="#h" x="358.091" y="57.599"/><use xlink:href="#p" x="363.57" y="57.599"/><g fill="#7F7F7F"><use xlink:href="#h" x="374.061" y="57.599"/><use xlink:href="#g" x="379.54" y="57.599"/></g><use xlink:href="#h" x="390.031" y="57.599"/><use xlink:href="#h" x="395.51" y="57.599"/><use xlink:href="#h" x="406.002" y="57.599"/><use xlink:href="#i" x="411.481" y="57.599"/><use xlink:href="#h" x="421.972" y="57.599"/><use xlink:href="#j" x="427.451" y="57.599"/><use xlink:href="#h" x="437.942" y="57.599"/><use xlink:href="#k" x="443.421" y="57.599"/><use xlink:href="#h" x="453.912" y="57.599"/><use xlink:href="#l" x="459.391" y="57.599"/><use xlink:href="#h" x="469.882" y="57.599"/><use xlink:href="#m" x="475.361" y="57.599"/><g fill="#7F7F7F"><use xlink:href="#h" x="485.852" y="57.599"/><use xlink:href="#n" x="491.331" y="57.599"/></g><use xlink:href="#h" x="501.822" y="57.599"/><use xlink:href="#o" x="507.301" y="57.599"/><use xlink:href="#i" x="517.792" y="57.599"/><use xlink:href="#p" x="523.271" y="57.599"/><use xlink:href="#i" x="533.762" y="57.599"/><use xlink:href="#g" x="539.241" y="57.599"/><use xlink:href="#a" x="28.208" y="70.052"/><use xlink:href="#d" x="33.379" y="70.052"/><use xlink:href="#c" x="38.968" y="70.052"/><use xlink:href="#r" x="44.557" y="70.052"/><use xlink:href="#g" x="108.049" y="70.052"/><use xlink:href="#h" x="124.019" y="70.052"/><use xlink:href="#i" x="139.989" y="70.052"/><use xlink:href="#j" x="155.959" y="70.052" fill="#7F7F7F"/><use xlink:href="#k" x="171.929" y="70.052"/><use xlink:href="#l" x="187.9" y="70.052"/><use xlink:href="#m" x="203.87" y="70.052"/><use xlink:href="#n" x="219.84" y="70.052"/><use xlink:href="#o" x="235.81" y="70.052"/><use xlink:href="#g" x="246.3" y="70.052"/><use xlink:href="#p" x="251.779" y="70.052"/><g fill="#7F7F7F"><use xlink:href="#g" x="262.271" y="70.052"/><use xlink:href="#g" x="267.75" y="70.052"/></g><use xlink:href="#g" x="278.241" y="70.052"/><use xlink:href="#h" x="283.72" y="70.052"/><use xlink:href="#g" x="294.211" y="70.052"/><use xlink:href="#i" x="299.69" y="70.052"/><use xlink:href="#g" x="310.181" y="70.052"/><use xlink:href="#j" x="315.66" y="70.052"/><use xlink:href="#g" x="326.151" y="70.052"/><use xlink:href="#k" x="331.63" y="70.052"/><use xlink:href="#g" x="342.121" y="70.052"/><use xlink:href="#l" x="347.6" y="70.052"/><use xlink:href="#g" x="358.091" y="70.052"/><use xlink:href="#m" x="363.57" y="70.052"/><g fill="#7F7F7F"><use xlink:href="#g" x="374.061" y="70.052"/><use xlink:href="#n" x="379.54" y="70.052"/></g><use xlink:href="#g" x="390.031" y="70.052"/><use xlink:href="#o" x="395.51" y="70.052"/><use xlink:href="#h" x="406.002" y="70.052"/><use xlink:href="#p" x="411.481" y="70.052"/><use xlink:href="#h" x="421.972" y="70.052"/><use xlink:href="#g" x="427.451" y="70.052"/><use xlink:href="#h" x="437.942" y="70.052"/><use xlink:href="#h" x="443.421" y="70.052"/><use xlink:href="#h" x="453.912" y="70.052"/><use xlink:href="#i" x="459.391" y="70.052"/><use xlink:href="#h" x="469.882" y="70.052"/><use xlink:href="#j" x="475.361" y="70.052"/><g fill="#7F7F7F"><use xlink:href="#h" x="485.852" y="70.052"/><use xlink:href="#k" x="491.331" y="70.052"/></g><use xlink:href="#h" x="501.822" y="70.052"/><use xlink:href="#l" x="507.301" y="70.052"/><use xlink:href="#h" x="517.792" y="70.052"/><use xlink:href="#m" x="523.271" y="70.052"/><use xlink:href="#h" x="533.762" y="70.052"/><use xlink:href="#n" x="539.241" y="70.052"/><use xlink:href="#h" x="549.733" y="70.052"/><use xlink:href="#o" x="555.212" y="70.052"/><use xlink:href="#i" x="565.703" y="70.052"/><use xlink:href="#p" x="571.182" y="70.052"/><use xlink:href="#a" x="31.357" y="82.506"/><use xlink:href="#d" x="36.528" y="82.506"/><use xlink:href="#z" x="42.117" y="82.506"/><use xlink:href="#f" x="44.667" y="82.506"/><use xlink:href="#g" x="139.989" y="82.506"/><use xlink:href="#h" x="155.959" y="82.506" fill="#7F7F7F"/><use xlink:href="#i" x="171.929" y="82.506"/><use xlink:href="#j" x="187.9" y="82.506"/><use xlink:href="#k" x="203.87" y="82.506"/><use xlink:href="#l" x="219.84" y="82.506"/><use xlink:href="#m" x="235.81" y="82.506"/><use xlink:href="#n" x="251.78" y="82.506"/><use xlink:href="#o" x="267.75" y="82.506" fill="#7F7F7F"/><use xlink:href="#g" x="278.241" y="82.506"/><use xlink:href="#p" x="283.72" y="82.506"/><use xlink:href="#g" x="294.211" y="82.506"/><use xlink:href="#g" x="299.69" y="82.506"/><use xlink:href="#g" x="310.181" y="82.506"/><use xlink:href="#h" x="315.66" y="82.506"/><use xlink:href="#g" x="326.151" y="82.506"/><use xlink:href="#i" x="331.63" y="82.506"/><use xlink:href="#g" x="342.121" y="82.506"/><use xlink:href="#j" x="347.6" y="82.506"/><use xlink:href="#g" x="358.091" y="82.506"/><use xlink:href="#k" x="363.57" y="82.506"/><g fill="#7F7F7F"><use xlink:href="#g" x="374.061" y="82.506"/><use xlink:href="#l" x="379.54" y="82.506"/></g><use xlink:href="#g" x="390.031" y="82.506"/><use xlink:href="#m" x="395.51" y="82.506"/><use xlink:href="#g" x="406.002" y="82.506"/><use xlink:href="#n" x="411.481" y="82.506"/><use xlink:href="#g" x="421.972" y="82.506"/><use xlink:href="#o" x="427.451" y="82.506"/><use xlink:href="#h" x="437.942" y="82.506"/><use xlink:href="#p" x="443.421" y="82.506"/><use xlink:href="#h" x="453.912" y="82.506"/><use xlink:href="#g" x="459.391" y="82.506"/><use xlink:href="#h" x="469.882" y="82.506"/><use xlink:href="#h" x="475.361" y="82.506"/><g fill="#7F7F7F"><use xlink:href="#h" x="485.852" y="82.506"/><use xlink:href="#i" x="491.331" y="82.506"/></g><use xlink:href="#h" x="501.822" y="82.506"/><use xlink:href="#j" x="507.301" y="82.506"/><use xlink:href="#h" x="517.792" y="82.506"/><use xlink:href="#k" x="523.271" y="82.506"/><use xlink:href="#h" x="533.762" y="82.506"/><use xlink:href="#l" x="539.241" y="82.506"/><use xlink:href="#h" x="549.733" y="82.506"/><use xlink:href="#m" x="555.212" y="82.506"/><use xlink:href="#h" x="565.703" y="82.506"/><use xlink:href="#n" x="571.182" y="82.506"/><use xlink:href="#h" x="581.673" y="82.506"/><use xlink:href="#o" x="587.152" y="82.506"/><g fill="#7F7F7F"><use xlink:href="#i" x="597.643" y="82.506"/><use xlink:href="#p" x="603.122" y="82.506"/></g><use xlink:href="#i" x="613.613" y="82.506"/><use xlink:href="#g" x="619.092" y="82.506"/><use xlink:href="#w" x="17.768" y="94.959"/><use xlink:href="#d" x="24.762" y="94.959"/><use xlink:href="#A" x="30.351" y="94.959"/><use xlink:href="#d" x="35.83" y="94.959"/><use xlink:href="#B" x="41.419" y="94.959"/><use xlink:href="#C" x="45.624" y="94.959"/><use xlink:href="#g" x="76.109" y="94.959"/><use xlink:href="#h" x="92.079" y="94.959"/><use xlink:href="#i" x="108.049" y="94.959"/><use xlink:href="#j" x="124.019" y="94.959"/><use xlink:href="#k" x="139.989" y="94.959"/><use xlink:href="#l" x="155.959" y="94.959" fill="#7F7F7F"/><use xlink:href="#m" x="171.929" y="94.959"/><use xlink:href="#n" x="187.9" y="94.959"/><use xlink:href="#o" x="203.87" y="94.959"/><use xlink:href="#g" x="214.36" y="94.959"/><use xlink:href="#p" x="219.839" y="94.959"/><use xlink:href="#g" x="230.33" y="94.959"/><use xlink:href="#g" x="235.809" y="94.959"/><use xlink:href="#g" x="246.3" y="94.959"/><use xlink:href="#h" x="251.779" y="94.959"/><g fill="#7F7F7F"><use xlink:href="#g" x="262.271" y="94.959"/><use xlink:href="#i" x="267.75" y="94.959"/></g><use xlink:href="#g" x="278.241" y="94.959"/><use xlink:href="#j" x="283.72" y="94.959"/><use xlink:href="#g" x="294.211" y="94.959"/><use xlink:href="#k" x="299.69" y="94.959"/><use xlink:href="#g" x="310.181" y="94.959"/><use xlink:href="#l" x="315.66" y="94.959"/><use xlink:href="#g" x="326.151" y="94.959"/><use xlink:href="#m" x="331.63" y="94.959"/><use xlink:href="#g" x="342.121" y="94.959"/><use xlink:href="#n" x="347.6" y="94.959"/><use xlink:href="#g" x="358.091" y="94.959"/><use xlink:href="#o" x="363.57" y="94.959"/><g fill="#7F7F7F"><use xlink:href="#h" x="374.061" y="94.959"/><use xlink:href="#p" x="379.54" y="94.959"/></g><use xlink:href="#h" x="390.031" y="94.959"/><use xlink:href="#g" x="395.51" y="94.959"/><use xlink:href="#h" x="406.002" y="94.959"/><use xlink:href="#h" x="411.481" y="94.959"/><use xlink:href="#h" x="421.972" y="94.959"/><use xlink:href="#i" x="427.451" y="94.959"/><use xlink:href="#h" x="437.942" y="94.959"/><use xlink:href="#j" x="443.421" y="94.959"/><use xlink:href="#h" x="453.912" y="94.959"/><use xlink:href="#k" x="459.391" y="94.959"/><use xlink:href="#h" x="469.882" y="94.959"/><use xlink:href="#l" x="475.361" y="94.959"/><g fill="#7F7F7F"><use xlink:href="#h" x="485.852" y="94.959"/><use xlink:href="#m" x="491.331" y="94.959"/></g><use xlink:href="#h" x="501.822" y="94.959"/><use xlink:href="#n" x="507.301" y="94.959"/><use xlink:href="#h" x="517.792" y="94.959"/><use xlink:href="#o" x="523.271" y="94.959"/><use xlink:href="#i" x="533.762" y="94.959"/><use xlink:href="#p" x="539.241" y="94.959"/><use xlink:href="#i" x="549.733" y="94.959"/><use xlink:href="#g" x="555.212" y="94.959"/><use xlink:href="#D" x=".433" y="107.412"/><use xlink:href="#r" x="6.52" y="107.412"/><use xlink:href="#x" x="11.611" y="107.412"/><use xlink:href="#C" x="17.2" y="107.412"/><use xlink:href="#r" x="21.225" y="107.412"/><use xlink:href="#E" x="26.316" y="107.412"/><use xlink:href="#s" x="34.954" y="107.412"/><use xlink:href="#r" x="40.851" y="107.412"/><use xlink:href="#e" x="45.942" y="107.412"/><use xlink:href="#g" x="124.019" y="107.412"/><use xlink:href="#h" x="139.989" y="107.412"/><use xlink:href="#i" x="155.959" y="107.412" fill="#7F7F7F"/><use xlink:href="#j" x="171.929" y="107.412"/><use xlink:href="#k" x="187.9" y="107.412"/><use xlink:href="#l" x="203.87" y="107.412"/><use xlink:href="#m" x="219.84" y="107.412"/><use xlink:href="#n" x="235.81" y="107.412"/><use xlink:href="#o" x="251.78" y="107.412"/><g fill="#7F7F7F"><use xlink:href="#g" x="262.271" y="107.412"/><use xlink:href="#p" x="267.75" y="107.412"/></g><use xlink:href="#g" x="278.241" y="107.412"/><use xlink:href="#g" x="283.72" y="107.412"/><use xlink:href="#g" x="294.211" y="107.412"/><use xlink:href="#h" x="299.69" y="107.412"/><use xlink:href="#g" x="310.181" y="107.412"/><use xlink:href="#i" x="315.66" y="107.412"/><use xlink:href="#g" x="326.151" y="107.412"/><use xlink:href="#j" x="331.63" y="107.412"/><use xlink:href="#g" x="342.121" y="107.412"/><use xlink:href="#k" x="347.6" y="107.412"/><use xlink:href="#g" x="358.091" y="107.412"/><use xlink:href="#l" x="363.57" y="107.412"/><g fill="#7F7F7F"><use xlink:href="#g" x="374.061" y="107.412"/><use xlink:href="#m" x="379.54" y="107.412"/></g><use xlink:href="#g" x="390.031" y="107.412"/><use xlink:href="#n" x="395.51" y="107.412"/><use xlink:href="#g" x="406.002" y="107.412"/><use xlink:href="#o" x="411.481" y="107.412"/><use xlink:href="#h" x="421.972" y="107.412"/><use xlink:href="#p" x="427.451" y="107.412"/><use xlink:href="#h" x="437.942" y="107.412"/><use xlink:href="#g" x="443.421" y="107.412"/><use xlink:href="#h" x="453.912" y="107.412"/><use xlink:href="#h" x="459.391" y="107.412"/><use xlink:href="#h" x="469.882" y="107.412"/><use xlink:href="#i" x="475.361" y="107.412"/><g fill="#7F7F7F"><use xlink:href="#h" x="485.852" y="107.412"/><use xlink:href="#j" x="491.331" y="107.412"/></g><use xlink:href="#h" x="501.822" y="107.412"/><use xlink:href="#k" x="507.301" y="107.412"/><use xlink:href="#h" x="517.792" y="107.412"/><use xlink:href="#l" x="523.271" y="107.412"/><use xlink:href="#h" x="533.762" y="107.412"/><use xlink:href="#m" x="539.241" y="107.412"/><use xlink:href="#h" x="549.733" y="107.412"/><use xlink:href="#n" x="555.212" y="107.412"/><use xlink:href="#h" x="565.703" y="107.412"/><use xlink:href="#o" x="571.182" y="107.412"/><use xlink:href="#i" x="581.673" y="107.412"/><use xlink:href="#p" x="587.152" y="107.412"/><use xlink:href="#F" x="12.667" y="119.865"/><use xlink:href="#u" x="20.577" y="119.865"/><use xlink:href="#C" x="25.449" y="119.865"/><use xlink:href="#G" x="29.474" y="119.865"/><use xlink:href="#s" x="34.953" y="119.865"/><use xlink:href="#r" x="40.851" y="119.865"/><use xlink:href="#e" x="45.942" y="119.865"/><use xlink:href="#g" x="155.959" y="119.865" fill="#7F7F7F"/><use xlink:href="#h" x="171.929" y="119.865"/><use xlink:href="#i" x="187.9" y="119.865"/><use xlink:href="#j" x="203.87" y="119.865"/><use xlink:href="#k" x="219.84" y="119.865"/><use xlink:href="#l" x="235.81" y="119.865"/><use xlink:href="#m" x="251.78" y="119.865"/><use xlink:href="#n" x="267.75" y="119.865" fill="#7F7F7F"/><use xlink:href="#o" x="283.72" y="119.865"/><use xlink:href="#g" x="294.211" y="119.865"/><use xlink:href="#p" x="299.69" y="119.865"/><use xlink:href="#g" x="310.181" y="119.865"/><use xlink:href="#g" x="315.66" y="119.865"/><use xlink:href="#g" x="326.151" y="119.865"/><use xlink:href="#h" x="331.63" y="119.865"/><use xlink:href="#g" x="342.121" y="119.865"/><use xlink:href="#i" x="347.6" y="119.865"/><use xlink:href="#g" x="358.091" y="119.865"/><use xlink:href="#j" x="363.57" y="119.865"/><g fill="#7F7F7F"><use xlink:href="#g" x="374.061" y="119.865"/><use xlink:href="#k" x="379.54" y="119.865"/></g><use xlink:href="#g" x="390.031" y="119.865"/><use xlink:href="#l" x="395.51" y="119.865"/><use xlink:href="#g" x="406.002" y="119.865"/><use xlink:href="#m" x="411.481" y="119.865"/><use xlink:href="#g" x="421.972" y="119.865"/><use xlink:href="#n" x="427.451" y="119.865"/><use xlink:href="#g" x="437.942" y="119.865"/><use xlink:href="#o" x="443.421" y="119.865"/><use xlink:href="#h" x="453.912" y="119.865"/><use xlink:href="#p" x="459.391" y="119.865"/><use xlink:href="#h" x="469.882" y="119.865"/><use xlink:href="#g" x="475.361" y="119.865"/><g fill="#7F7F7F"><use xlink:href="#h" x="485.852" y="119.865"/><use xlink:href="#h" x="491.331" y="119.865"/></g><use xlink:href="#h" x="501.822" y="119.865"/><use xlink:href="#i" x="507.301" y="119.865"/><use xlink:href="#h" x="517.792" y="119.865"/><use xlink:href="#j" x="523.271" y="119.865"/><use xlink:href="#h" x="533.762" y="119.865"/><use xlink:href="#k" x="539.241" y="119.865"/><use xlink:href="#h" x="549.733" y="119.865"/><use xlink:href="#l" x="555.212" y="119.865"/><use xlink:href="#h" x="565.703" y="119.865"/><use xlink:href="#m" x="571.182" y="119.865"/><use xlink:href="#h" x="581.673" y="119.865"/><use xlink:href="#n" x="587.152" y="119.865"/><g fill="#7F7F7F"><use xlink:href="#h" x="597.643" y="119.865"/><use xlink:href="#o" x="603.122" y="119.865"/></g><use xlink:href="#i" x="613.613" y="119.865"/><use xlink:href="#p" x="619.092" y="119.865"/><use xlink:href="#i" x="629.583" y="119.865"/><use xlink:href="#g" x="635.062" y="119.865"/><use xlink:href="#H" x="2.853" y="132.319"/><use xlink:href="#G" x="10.763" y="132.319"/><use xlink:href="#I" x="16.243" y="132.319"/><use xlink:href="#r" x="21.224" y="132.319"/><use xlink:href="#E" x="26.315" y="132.319"/><use xlink:href="#s" x="34.953" y="132.319"/><use xlink:href="#r" x="40.851" y="132.319"/><use xlink:href="#e" x="45.941" y="132.319"/><use xlink:href="#g" x="92.079" y="132.319"/><use xlink:href="#h" x="108.049" y="132.319"/><use xlink:href="#i" x="124.019" y="132.319"/><use xlink:href="#j" x="139.989" y="132.319"/><use xlink:href="#k" x="155.959" y="132.319" fill="#7F7F7F"/><use xlink:href="#l" x="171.929" y="132.319"/><use xlink:href="#m" x="187.9" y="132.319"/><use xlink:href="#n" x="203.87" y="132.319"/><use xlink:href="#o" x="219.84" y="132.319"/><use xlink:href="#g" x="230.33" y="132.319"/><use xlink:href="#p" x="235.809" y="132.319"/><use xlink:href="#g" x="246.3" y="132.319"/><use xlink:href="#g" x="251.779" y="132.319"/><g fill="#7F7F7F"><use xlink:href="#g" x="262.271" y="132.319"/><use xlink:href="#h" x="267.75" y="132.319"/></g><use xlink:href="#g" x="278.241" y="132.319"/><use xlink:href="#i" x="283.72" y="132.319"/><use xlink:href="#g" x="294.211" y="132.319"/><use xlink:href="#j" x="299.69" y="132.319"/><use xlink:href="#g" x="310.181" y="132.319"/><use xlink:href="#k" x="315.66" y="132.319"/><use xlink:href="#g" x="326.151" y="132.319"/><use xlink:href="#l" x="331.63" y="132.319"/><use xlink:href="#g" x="342.121" y="132.319"/><use xlink:href="#m" x="347.6" y="132.319"/><use xlink:href="#g" x="358.091" y="132.319"/><use xlink:href="#n" x="363.57" y="132.319"/><g fill="#7F7F7F"><use xlink:href="#g" x="374.061" y="132.319"/><use xlink:href="#o" x="379.54" y="132.319"/></g><use xlink:href="#h" x="390.031" y="132.319"/><use xlink:href="#p" x="395.51" y="132.319"/><use xlink:href="#h" x="406.002" y="132.319"/><use xlink:href="#g" x="411.481" y="132.319"/><use xlink:href="#h" x="421.972" y="132.319"/><use xlink:href="#h" x="427.451" y="132.319"/><use xlink:href="#h" x="437.942" y="132.319"/><use xlink:href="#i" x="443.421" y="132.319"/><use xlink:href="#h" x="453.912" y="132.319"/><use xlink:href="#j" x="459.391" y="132.319"/><use xlink:href="#h" x="469.882" y="132.319"/><use xlink:href="#k" x="475.361" y="132.319"/><g fill="#7F7F7F"><use xlink:href="#h" x="485.852" y="132.319"/><use xlink:href="#l" x="491.331" y="132.319"/></g><use xlink:href="#h" x="501.822" y="132.319"/><use xlink:href="#m" x="507.301" y="132.319"/><use xlink:href="#h" x="517.792" y="132.319"/><use xlink:href="#n" x="523.271" y="132.319"/><use xlink:href="#h" x="533.762" y="132.319"/><use xlink:href="#o" x="539.241" y="132.319"/><use xlink:href="#i" x="549.733" y="132.319"/><use xlink:href="#p" x="555.212" y="132.319"/><use xlink:href="#J" x="3.352" y="144.772"/><use xlink:href="#r" x="11.262" y="144.772"/><use xlink:href="#u" x="16.353" y="144.772"/><use xlink:href="#r" x="21.225" y="144.772"/><use xlink:href="#E" x="26.316" y="144.772"/><use xlink:href="#s" x="34.953" y="144.772"/><use xlink:href="#r" x="40.851" y="144.772"/><use xlink:href="#e" x="45.942" y="144.772"/><use xlink:href="#g" x="124.019" y="144.772"/><use xlink:href="#h" x="139.989" y="144.772"/><use xlink:href="#i" x="155.959" y="144.772" fill="#7F7F7F"/><use xlink:href="#j" x="171.929" y="144.772"/><use xlink:href="#k" x="187.9" y="144.772"/><use xlink:href="#l" x="203.87" y="144.772"/><use xlink:href="#m" x="219.84" y="144.772"/><use xlink:href="#n" x="235.81" y="144.772"/><use xlink:href="#o" x="251.78" y="144.772"/><g fill="#7F7F7F"><use xlink:href="#g" x="262.271" y="144.772"/><use xlink:href="#p" x="267.75" y="144.772"/></g><use xlink:href="#g" x="278.241" y="144.772"/><use xlink:href="#g" x="283.72" y="144.772"/><use xlink:href="#g" x="294.211" y="144.772"/><use xlink:href="#h" x="299.69" y="144.772"/><use xlink:href="#g" x="310.181" y="144.772"/><use xlink:href="#i" x="315.66" y="144.772"/><use xlink:href="#g" x="326.151" y="144.772"/><use xlink:href="#j" x="331.63" y="144.772"/><use xlink:href="#g" x="342.121" y="144.772"/><use xlink:href="#k" x="347.6" y="144.772"/><use xlink:href="#g" x="358.091" y="144.772"/><use xlink:href="#l" x="363.57" y="144.772"/><g fill="#7F7F7F"><use xlink:href="#g" x="374.061" y="144.772"/><use xlink:href="#m" x="379.54" y="144.772"/></g><use xlink:href="#g" x="390.031" y="144.772"/><use xlink:href="#n" x="395.51" y="144.772"/><use xlink:href="#g" x="406.002" y="144.772"/><use xlink:href="#o" x="411.481" y="144.772"/><use xlink:href="#h" x="421.972" y="144.772"/><use xlink:href="#p" x="427.451" y="144.772"/><use xlink:href="#h" x="437.942" y="144.772"/><use xlink:href="#g" x="443.421" y="144.772"/><use xlink:href="#h" x="453.912" y="144.772"/><use xlink:href="#h" x="459.391" y="144.772"/><use xlink:href="#h" x="469.882" y="144.772"/><use xlink:href="#i" x="475.361" y="144.772"/><g fill="#7F7F7F"><use xlink:href="#h" x="485.852" y="144.772"/><use xlink:href="#j" x="491.331" y="144.772"/></g><use xlink:href="#h" x="501.822" y="144.772"/><use xlink:href="#k" x="507.301" y="144.772"/><use xlink:href="#h" x="517.792" y="144.772"/><use xlink:href="#l" x="523.271" y="144.772"/><use xlink:href="#h" x="533.762" y="144.772"/><use xlink:href="#m" x="539.241" y="144.772"/><use xlink:href="#h" x="549.733" y="144.772"/><use xlink:href="#n" x="555.212" y="144.772"/><use xlink:href="#h" x="565.703" y="144.772"/><use xlink:href="#o" x="571.182" y="144.772"/><use xlink:href="#i" x="581.673" y="144.772"/><use xlink:href="#p" x="587.152" y="144.772"/><g fill="#7F7F7F"><use xlink:href="#i" x="597.643" y="144.772"/><use xlink:href="#g" x="603.122" y="144.772"/></g></svg>