<svg xmlns="http://www.w3.org/2000/svg" xmlns:xlink="http://www.w3.org/1999/xlink" width="292.826" height="12.242"><defs><path id="a" d="M2.89-3.516c.813-.265 1.391-.953 1.391-1.75 0-.812-.875-1.375-1.828-1.375-1 0-1.765.594-1.765 1.36 0 .328.218.515.515.515s.5-.218.5-.515c0-.485-.469-.485-.61-.485.298-.5.954-.625 1.313-.625.422 0 .969.22.969 1.11 0 .125-.031.703-.281 1.14-.297.485-.64.516-.89.516a3 3 0 0 1-.392.031c-.078.016-.14.031-.14.125 0 .11.062.11.234.11h.438c.812 0 1.187.672 1.187 1.656 0 1.36-.687 1.64-1.125 1.64S1.22-.233.875-.812c.344.047.656-.171.656-.546a.537.537 0 0 0-.547-.563c-.25 0-.562.14-.562.578C.422-.437 1.344.22 2.437.22c1.22 0 2.126-.906 2.126-1.922 0-.813-.641-1.594-1.672-1.813m0 0"/><path id="c" d="M6.844-3.266c.156 0 .343 0 .343-.187 0-.203-.187-.203-.328-.203H.891c-.141 0-.328 0-.328.203 0 .187.187.187.328.187Zm.015 1.938c.141 0 .329 0 .329-.203 0-.188-.188-.188-.344-.188H.89c-.141 0-.328 0-.328.188 0 .203.187.203.328.203Zm0 0"/><path id="d" d="M2.938-6.375c0-.25 0-.266-.235-.266C2.078-6 1.203-6 .891-6v.313c.203 0 .78 0 1.297-.266v5.172c0 .36-.032.469-.922.469H.953V0c.344-.031 1.203-.031 1.61-.031.39 0 1.265 0 1.609.031v-.312h-.313c-.906 0-.921-.11-.921-.47Zm0 0"/><path id="h" d="M3.656-3.172v.328c0 2.328-1.031 2.782-1.61 2.782-.171 0-.718-.016-.983-.36.437 0 .515-.281.515-.453 0-.312-.234-.453-.453-.453-.156 0-.453.078-.453.469 0 .672.531 1.078 1.375 1.078 1.297 0 2.516-1.36 2.516-3.5 0-2.688-1.157-3.36-2.047-3.36-.547 0-1.032.188-1.453.625C.64-5.562.422-5.14.422-4.39c0 1.235.875 2.22 1.984 2.22.61 0 1.016-.423 1.25-1m-1.234.766c-.156 0-.625 0-.922-.625-.187-.375-.187-.86-.187-1.36 0-.53 0-1 .218-1.375.266-.5.64-.625.985-.625.468 0 .797.344.968.782.11.328.157.953.157 1.406 0 .828-.344 1.797-1.22 1.797m0 0"/><path id="j" d="m1.266-.766 1.062-1.03c1.547-1.376 2.14-1.907 2.14-2.907 0-1.14-.89-1.938-2.109-1.938C1.234-6.64.5-5.719.5-4.828c0 .547.5.547.531.547.172 0 .516-.11.516-.532a.513.513 0 0 0-.531-.515c-.079 0-.094 0-.125.016.218-.657.765-1.016 1.343-1.016.907 0 1.329.812 1.329 1.625 0 .797-.485 1.578-1.047 2.203L.609-.375C.5-.265.5-.235.5 0h3.703l.266-1.734h-.235C4.172-1.437 4.11-1 4-.844c-.062.078-.719.078-.937.078Zm0 0"/><path id="k" d="M4.75-6.078c.078-.11.078-.125.078-.344H2.406c-1.203 0-1.234-.125-1.265-.312H.89L.563-4.687h.25c.03-.157.109-.782.25-.907.062-.062.843-.062.968-.062h2.063c-.11.156-.89 1.25-1.11 1.578C2.078-2.734 1.75-1.344 1.75-.328c0 .094 0 .547.469.547.453 0 .453-.453.453-.547v-.516c0-.547.031-1.094.11-1.625.046-.234.171-1.094.624-1.703Zm0 0"/><path id="m" d="M1.625-4.562c-.453-.297-.5-.625-.5-.797 0-.61.656-1.032 1.36-1.032.718 0 1.359.516 1.359 1.235 0 .578-.39 1.047-.985 1.39Zm1.453.953c.719-.375 1.203-.891 1.203-1.547 0-.922-.875-1.485-1.781-1.485-1 0-1.812.735-1.812 1.672 0 .172.015.625.437 1.094.11.11.484.36.734.531C1.281-3.047.422-2.5.422-1.5.422-.453 1.438.219 2.484.219c1.125 0 2.079-.828 2.079-1.89 0-.36-.11-.813-.5-1.235-.188-.203-.344-.297-.985-.703m-1 .422 1.235.78c.28.188.75.485.75 1.095 0 .734-.75 1.25-1.563 1.25C1.64-.062.922-.672.922-1.5c0-.578.312-1.219 1.156-1.687m0 0"/><path id="o" d="M2.938-1.64v.859c0 .36-.032.469-.766.469h-.203V0c.406-.031.922-.031 1.344-.031.421 0 .937 0 1.359.031v-.312h-.219c-.734 0-.75-.11-.75-.47v-.859h.985v-.312h-.985v-4.531c0-.203 0-.266-.172-.266-.078 0-.11 0-.187.125L.28-1.953v.312Zm.046-.313H.563l2.421-3.719Zm0 0"/><path id="b" d="M3.594-2.219c0-.765-.094-1.328-.406-1.812-.22-.313-.657-.594-1.204-.594C.36-4.625.36-2.719.36-2.219s0 2.36 1.625 2.36c1.61 0 1.61-1.86 1.61-2.36M1.984-.062c-.328 0-.75-.188-.89-.75C1-1.22 1-1.797 1-2.312c0-.516 0-1.047.094-1.422.156-.547.593-.703.89-.703.375 0 .735.234.86.64.11.375.125.875.125 1.485 0 .515 0 1.03-.094 1.468-.14.64-.61.782-.89.782m0 0"/><path id="f" d="M2.328-4.437c0-.188 0-.188-.203-.188-.453.438-1.078.438-1.36.438v.25c.157 0 .626 0 1-.188v3.547c0 .234 0 .328-.687.328H.812V0c.125 0 .985-.031 1.235-.031.219 0 1.094.031 1.25.031v-.25H3.03c-.703 0-.703-.094-.703-.328Zm0 0"/><path id="g" d="M3.516-1.266H3.28c-.015.157-.094.563-.187.625-.047.047-.578.047-.688.047H1.125c.734-.64.984-.843 1.39-1.172.516-.406 1-.843 1-1.5 0-.843-.734-1.359-1.624-1.359-.86 0-1.453.61-1.453 1.25 0 .344.296.39.375.39.156 0 .359-.124.359-.374 0-.125-.047-.375-.406-.375.218-.485.687-.641 1.015-.641.703 0 1.063.547 1.063 1.11 0 .609-.438 1.078-.656 1.328L.516-.266C.437-.203.437-.187.437 0h2.876Zm0 0"/><path id="i" d="M1.906-2.328c.547 0 .938.375.938 1.125 0 .86-.516 1.125-.906 1.125-.282 0-.907-.078-1.188-.5.328 0 .406-.235.406-.39 0-.22-.172-.376-.39-.376a.38.38 0 0 0-.391.407C.375-.281 1.094.14 1.938.14c.968 0 1.64-.657 1.64-1.344 0-.547-.437-1.094-1.203-1.25.719-.266.984-.781.984-1.219 0-.547-.625-.953-1.406-.953-.766 0-1.36.375-1.36.938 0 .234.157.359.36.359.219 0 .36-.156.36-.344 0-.203-.141-.36-.36-.375.25-.297.719-.375.985-.375.312 0 .75.156.75.75 0 .297-.094.625-.282.828-.219.266-.422.281-.765.313-.172.015-.188.015-.22.015-.015 0-.077.016-.077.094 0 .094.062.094.187.094Zm0 0"/><path id="l" d="M3.688-1.14v-.25h-.782V-4.5c0-.14 0-.203-.14-.203-.094 0-.125 0-.188.11L.266-1.392v.25h2.062v.563c0 .25 0 .328-.578.328h-.187V0c.359-.016.796-.031 1.046-.031.266 0 .704.015 1.063.031v-.25h-.188c-.578 0-.578-.078-.578-.328v-.563ZM2.375-3.939v2.547H.531Zm0 0"/><path id="n" d="M1.078-3.89c.36.093.563.093.672.093.922 0 1.469-.625 1.469-.734 0-.078-.047-.094-.078-.094-.016 0-.032 0-.063.016-.172.062-.531.203-1.047.203-.203 0-.562-.016-1.015-.188-.079-.031-.094-.031-.094-.031-.094 0-.094.078-.094.188v2.046c0 .125 0 .204.11.204.062 0 .078 0 .14-.094.297-.375.734-.438.969-.438.422 0 .61.328.64.39.126.235.172.5.172.907 0 .203 0 .61-.218.922a.98.98 0 0 1-.813.422c-.453 0-.922-.25-1.094-.719.266.016.407-.156.407-.344 0-.296-.266-.343-.36-.343 0 0-.343 0-.343.375 0 .625.578 1.25 1.406 1.25.89 0 1.672-.657 1.672-1.547 0-.782-.594-1.5-1.453-1.5-.313 0-.672.062-.985.328Zm0 0"/><path id="p" d="M1.047-2.281c0-.563.047-1.078.312-1.516.235-.375.61-.625 1.063-.625.203 0 .484.047.625.234-.172.016-.328.141-.328.344a.32.32 0 0 0 .328.328c.219 0 .344-.14.344-.343 0-.407-.297-.766-.985-.766-1 0-2.031.922-2.031 2.422C.375-.406 1.219.14 2 .14c.844 0 1.578-.657 1.578-1.563 0-.89-.703-1.547-1.515-1.547-.563 0-.86.375-1.016.688M2-.078c-.36 0-.625-.203-.781-.516-.094-.203-.157-.562-.157-.968 0-.688.407-1.204.97-1.204.312 0 .53.125.702.375.172.266.172.563.172.97 0 .39 0 .687-.187.968A.82.82 0 0 1 2-.078m0 0"/><path id="e" d="M2.5-.312c0-.672-.344-1.25-.922-1.25-.469 0-.766.359-.766.78 0 .407.266.782.766.782a.84.84 0 0 0 .563-.203C2.047.89 1.406 1.422 1.203 1.594c-.062.047-.094.078-.094.14 0 .094.11.204.188.204.156 0 1.203-.86 1.203-2.25m0 0"/></defs><use xlink:href="#a" x=".499" y="8.944"/><use xlink:href="#b" x="5.48" y="5.328"/><use xlink:href="#c" x="12.717" y="8.944"/><use xlink:href="#d" x="23.226" y="8.944"/><use xlink:href="#e" x="28.214" y="8.944"/><use xlink:href="#a" x="39.024" y="8.944"/><use xlink:href="#f" x="44.005" y="5.328"/><use xlink:href="#c" x="51.242" y="8.944"/><use xlink:href="#a" x="61.751" y="8.944"/><use xlink:href="#e" x="66.739" y="8.944"/><use xlink:href="#a" x="77.549" y="8.944"/><use xlink:href="#g" x="82.53" y="5.328"/><use xlink:href="#c" x="89.767" y="8.944"/><use xlink:href="#h" x="100.276" y="8.944"/><use xlink:href="#e" x="105.264" y="8.944"/><use xlink:href="#a" x="116.074" y="8.944"/><use xlink:href="#i" x="121.055" y="5.328"/><use xlink:href="#c" x="128.292" y="8.944"/><use xlink:href="#j" x="138.801" y="8.944"/><use xlink:href="#k" x="143.782" y="8.944"/><use xlink:href="#e" x="148.771" y="8.944"/><use xlink:href="#a" x="159.58" y="8.944"/><use xlink:href="#l" x="164.561" y="5.328"/><use xlink:href="#c" x="171.798" y="8.944"/><use xlink:href="#m" x="182.307" y="8.944"/><use xlink:href="#d" x="187.288" y="8.944"/><use xlink:href="#e" x="192.277" y="8.944"/><use xlink:href="#a" x="203.086" y="8.944"/><use xlink:href="#n" x="208.068" y="5.328"/><use xlink:href="#c" x="215.304" y="8.944"/><use xlink:href="#j" x="225.813" y="8.944"/><use xlink:href="#o" x="230.794" y="8.944"/><use xlink:href="#a" x="235.775" y="8.944"/><use xlink:href="#e" x="240.764" y="8.944"/><use xlink:href="#a" x="251.574" y="8.944"/><use xlink:href="#p" x="256.555" y="5.328"/><use xlink:href="#c" x="263.792" y="8.944"/><use xlink:href="#k" x="274.301" y="8.944"/><use xlink:href="#j" x="279.282" y="8.944"/><use xlink:href="#h" x="284.263" y="8.944"/><use xlink:href="#e" x="289.252" y="8.944"/></svg>