<svg xmlns="http://www.w3.org/2000/svg" xmlns:xlink="http://www.w3.org/1999/xlink" width="59.103" height="59.366"><defs><clipPath id="a"><path d="M0 0h58.656v59.05H0Zm0 0"/></clipPath><clipPath id="b"><path d="M0 0h58.656v59H0Zm0 0"/></clipPath><path id="c" d="M5.719-2.031c0-1.094-.797-1.906-1.719-2.094l-1.437-.312c-.407-.094-.954-.422-.954-1.032 0-.437.282-1.047 1.266-1.047.797 0 1.813.329 2.047 1.688.031.25.031.266.234.266.25 0 .25-.047.25-.282v-1.828c0-.187 0-.281-.187-.281-.078 0-.078.016-.188.11l-.453.437C4-6.86 3.344-6.953 2.875-6.953c-1.516 0-2.234.969-2.234 2.016 0 .64.328 1.093.53 1.312.5.5.829.563 1.923.797.875.203 1.047.219 1.265.437.141.141.391.407.391.86 0 .484-.25 1.172-1.297 1.172-.75 0-2.265-.203-2.344-1.688-.015-.172-.015-.219-.234-.219-.234 0-.234.047-.234.282v1.812C.64.016.64.11.813.11.906.11.922.094 1 .016l.469-.453c.656.484 1.578.546 1.984.546C5.11.11 5.72-1.016 5.72-2.03m0 0"/></defs><path fill="none" stroke="#7F7F7F" stroke-miterlimit="10" stroke-width=".199" d="M.754 57.844h56.691M.754 29.5h56.691M.754 1.16h56.691M.754 57.844V1.152m28.344 56.692V1.152m28.34 56.692V1.152"/><g clip-path="url(#a)"><path fill="none" stroke="#00F" stroke-dasharray="2.98883 2.98883" stroke-miterlimit="10" stroke-width=".399" d="M57.445 29.5c0-15.656-12.691-28.348-28.347-28.348C13.445 1.152.754 13.844.754 29.5c0 15.652 12.691 28.344 28.344 28.344 15.656 0 28.347-12.692 28.347-28.344Zm0 0"/></g><path fill="none" stroke="red" stroke-dasharray="2.98883 2.98883" stroke-miterlimit="10" stroke-width=".399" d="M43.273 29.5c0-7.828-6.347-14.176-14.175-14.176S14.926 21.672 14.926 29.5c0 7.824 6.344 14.172 14.172 14.172S43.273 37.324 43.273 29.5Zm0 0"/><g clip-path="url(#b)"><path fill="none" stroke="#000" stroke-miterlimit="10" stroke-width=".399" d="m29.098 1.152-8.328 16.88-18.63 2.706 13.481 13.14-3.184 18.552 16.66-8.758 16.665 8.758-3.184-18.551 13.48-13.14L37.43 18.03Zm0 0"/></g><use xlink:href="#c" x="25.916" y="32.916"/></svg>