<svg xmlns="http://www.w3.org/2000/svg" width="90.596" height="34.004"><defs><clipPath id="a"><path d="M0 0h90.395v33.508H0Zm0 0"/></clipPath></defs><g clip-path="url(#a)"><path fill="none" stroke="#000" stroke-miterlimit="10" stroke-width=".399" d="m.871 30.2 3.34 1.116M1.984 32.43l1.114-3.344m6.683-3.34 3.34 1.113m-2.226 1.114 1.113-3.34m6.683-3.344 3.344 1.117m-2.23 1.114 1.113-3.344m6.977-2.094 1.113-3.34 6.683 2.227 2.227-6.684 6.684 2.227 2.226-6.68 6.684 2.227 2.226-6.684 6.684 2.227L66.953.789l3.426 6.496 6.422-2 .972 7.278 6.72.324-1.583 7.168 6.195 2.617-1.921 3.308.398 4.778"/></g></svg>