<svg xmlns="http://www.w3.org/2000/svg" xmlns:xlink="http://www.w3.org/1999/xlink" width="94.554" height="42.338"><defs><clipPath id="e"><path d="M16 15h78.332v27.008H16Zm0 0"/></clipPath><clipPath id="f"><path d="M18 15h76.332v27.008H18Zm0 0"/></clipPath><clipPath id="g"><path d="M20 15h74.332v27.008H20Zm0 0"/></clipPath><clipPath id="h"><path d="M22 15h72.332v27.008H22Zm0 0"/></clipPath><clipPath id="i"><path d="M24 15h70.332v27.008H24Zm0 0"/></clipPath><clipPath id="j"><path d="M26 15h68.332v27H26Zm0 0"/></clipPath><clipPath id="k"><path d="M29 15h65.332v24H29Zm0 0"/></clipPath><clipPath id="l"><path d="M33 15h61.332v21H33Zm0 0"/></clipPath><clipPath id="m"><path d="M36 15h58.332v17H36Zm0 0"/></clipPath><clipPath id="n"><path d="M38 15h56.332v12H38Zm0 0"/></clipPath><clipPath id="o"><path d="M36 10h58.332v17H36Zm0 0"/></clipPath><clipPath id="p"><path d="M33 6h61.332v21H33Zm0 0"/></clipPath><clipPath id="q"><path d="M29 2h65.332v25H29Zm0 0"/></clipPath><clipPath id="r"><path d="M26 0h68.332v27H26Zm0 0"/></clipPath><clipPath id="s"><path d="M24 0h70.332v27H24Zm0 0"/></clipPath><clipPath id="t"><path d="M22 0h72.332v27H22Zm0 0"/></clipPath><clipPath id="u"><path d="M20 0h74.332v27H20Zm0 0"/></clipPath><clipPath id="v"><path d="M18 0h76.332v27H18Zm0 0"/></clipPath><clipPath id="w"><path d="M16 0h78.332v27H16Zm0 0"/></clipPath><path id="a" d="M4.14-1.39c0-.438-.202-.782-.546-1.063-.39-.281-.719-.344-1.485-.485-.375-.062-1.015-.171-1.015-.64 0-.625.922-.625 1.11-.625.75 0 1.124.297 1.171.844.016.156.031.203.234.203.235 0 .235-.047.235-.281v-.797c0-.188 0-.282-.172-.282-.047 0-.063 0-.453.188-.266-.125-.61-.188-1-.188-.313 0-1.844 0-1.844 1.313 0 .39.203.656.406.828.39.344.782.406 1.547.547.36.062 1.094.187 1.094.781 0 .75-.906.75-1.125.75C1.234-.297.984-1.03.859-1.453c-.046-.14-.109-.14-.234-.14-.25 0-.25.062-.25.28v1.094c0 .188 0 .282.188.282.062 0 .078 0 .296-.157l.25-.172c.47.329.985.329 1.188.329.312 0 1.844 0 1.844-1.454m0 0"/><path id="b" d="M3.813-1.234v-.532h-.47v.516c0 .672-.327.906-.609.906-.578 0-.578-.64-.578-.86v-2.75h1.469v-.468H2.156v-1.906h-.469c0 1-.484 1.984-1.484 2.016v.359h.828v2.734c0 1.063.86 1.282 1.578 1.282.75 0 1.204-.579 1.204-1.297m0 0"/><path id="c" d="M5.516-.234c0-.235-.125-.235-.266-.235-.61-.015-.61-.14-.61-.375v-2.14c0-.891-.702-1.532-2.187-1.532-.562 0-1.781.047-1.781.922 0 .438.344.625.61.625.312 0 .624-.219.624-.625 0-.297-.187-.469-.218-.5a5 5 0 0 1 .718-.062c.75 0 1.11.422 1.11 1.172v.343c-.72.032-3.25.125-3.25 1.563C.266-.125 1.5.062 2.188.062c.796 0 1.265-.406 1.484-.828 0 .313 0 .766 1.047.766h.468c.204 0 .329 0 .329-.234m-2-1.157c0 .97-.922 1.094-1.172 1.094-.516 0-.906-.344-.906-.797 0-1.062 1.578-1.203 2.078-1.234Zm0 0"/><path id="d" d="M4.406-3.672c0-.531-.531-.812-1.062-.812-.688 0-1.094.5-1.313 1.125v-1.125l-1.656.078v.468c.61 0 .688 0 .688.391v3.078H.375V0l1.25-.031C2-.031 2.641-.031 3 0v-.469h-.86v-1.75c0-.687.235-1.906 1.235-1.906 0 0-.187.172-.187.453 0 .406.328.61.609.61.297 0 .61-.204.61-.61m0 0"/></defs><path fill="none" stroke="#000" stroke-miterlimit="10" stroke-width=".399" d="M43.926 20.84c0-5.086-9.614-9.211-21.473-9.211-11.855 0-21.469 4.125-21.469 9.21 0 5.09 9.614 9.212 21.47 9.212 11.859 0 21.472-4.121 21.472-9.211Zm0 0"/><use xlink:href="#a" x="10.594" y="23.975"/><use xlink:href="#b" x="15.117" y="23.975"/><use xlink:href="#c" x="19.57" y="23.975"/><use xlink:href="#d" x="25.139" y="23.975"/><use xlink:href="#b" x="29.862" y="23.975"/><g clip-path="url(#e)"><path fill="none" stroke="#000" stroke-miterlimit="10" stroke-width=".399" d="M22.453 30.25c0 28.348 42.524-9.41 70.867-9.41"/></g><g clip-path="url(#f)"><path fill="none" stroke="#000" stroke-miterlimit="10" stroke-width=".399" d="M24.11 30.223C29.03 58.14 64.976 20.84 93.32 20.84"/></g><g clip-path="url(#g)"><path fill="none" stroke="#000" stroke-miterlimit="10" stroke-width=".399" d="M25.836 30.137c9.695 26.636 39.14-9.297 67.484-9.297"/></g><g clip-path="url(#h)"><path fill="none" stroke="#000" stroke-miterlimit="10" stroke-width=".399" d="M27.723 29.969c14.175 24.55 37.254-9.13 65.597-9.13"/></g><g clip-path="url(#i)"><path fill="none" stroke="#000" stroke-miterlimit="10" stroke-width=".399" d="M29.875 29.684C48.094 51.398 64.977 20.84 93.32 20.84"/></g><g clip-path="url(#j)"><path fill="none" stroke="#000" stroke-miterlimit="10" stroke-width=".399" d="M32.414 29.2c21.715 18.218 32.563-8.36 60.906-8.36"/></g><g clip-path="url(#k)"><path fill="none" stroke="#000" stroke-miterlimit="10" stroke-width=".399" d="M35.48 28.363c24.551 14.172 29.497-7.523 57.84-7.523"/></g><g clip-path="url(#l)"><path fill="none" stroke="#000" stroke-miterlimit="10" stroke-width=".399" d="M39.063 26.887c26.636 9.695 25.914-6.047 54.257-6.047"/></g><g clip-path="url(#m)"><path fill="none" stroke="#000" stroke-miterlimit="10" stroke-width=".399" d="M42.531 24.383c27.918 4.922 22.446-3.543 50.79-3.543"/></g><g clip-path="url(#n)"><path fill="none" stroke="#000" stroke-miterlimit="10" stroke-width=".399" d="M44.125 20.84H93.32"/></g><g clip-path="url(#o)"><path fill="none" stroke="#000" stroke-miterlimit="10" stroke-width=".399" d="M42.531 17.3c27.918-4.921 22.446 3.54 50.79 3.54"/></g><g clip-path="url(#p)"><path fill="none" stroke="#000" stroke-miterlimit="10" stroke-width=".399" d="M39.063 14.797C65.699 5.102 64.977 20.84 93.32 20.84"/></g><g clip-path="url(#q)"><path fill="none" stroke="#000" stroke-miterlimit="10" stroke-width=".399" d="M35.48 13.32c24.551-14.172 29.497 7.52 57.84 7.52"/></g><g clip-path="url(#r)"><path fill="none" stroke="#000" stroke-miterlimit="10" stroke-width=".399" d="M32.414 12.484C54.13-5.738 64.977 20.84 93.32 20.84"/></g><g clip-path="url(#s)"><path fill="none" stroke="#000" stroke-miterlimit="10" stroke-width=".399" d="M29.875 12c18.219-21.715 35.102 8.84 63.445 8.84"/></g><g clip-path="url(#t)"><path fill="none" stroke="#000" stroke-miterlimit="10" stroke-width=".399" d="M27.723 11.71c14.175-24.546 37.254 9.13 65.597 9.13"/></g><g clip-path="url(#u)"><path fill="none" stroke="#000" stroke-miterlimit="10" stroke-width=".399" d="M25.836 11.547C35.53-15.09 64.976 20.84 93.32 20.84"/></g><g clip-path="url(#v)"><path fill="none" stroke="#000" stroke-miterlimit="10" stroke-width=".399" d="M24.11 11.457c4.921-27.914 40.867 9.383 69.21 9.383"/></g><g clip-path="url(#w)"><path fill="none" stroke="#000" stroke-miterlimit="10" stroke-width=".399" d="M22.453 11.43c0-28.348 42.524 9.41 70.867 9.41"/></g></svg>