<?xml version="1.0" encoding="UTF-8"?>
<svg xmlns="http://www.w3.org/2000/svg" xmlns:xlink="http://www.w3.org/1999/xlink" width="280.217pt" height="25.112pt" viewBox="0 0 280.217 25.112" version="1.2">
<defs>
<clipPath id="clip1">
  <path d="M 0 0 L 30 0 L 30 24.667969 L 0 24.667969 Z M 0 0 "/>
</clipPath>
<clipPath id="clip2">
  <path d="M 23 0 L 58 0 L 58 24.667969 L 23 24.667969 Z M 23 0 "/>
</clipPath>
<clipPath id="clip3">
  <path d="M 51 0 L 86 0 L 86 24.667969 L 51 24.667969 Z M 51 0 "/>
</clipPath>
<clipPath id="clip4">
  <path d="M 80 0 L 115 0 L 115 24.667969 L 80 24.667969 Z M 80 0 "/>
</clipPath>
<clipPath id="clip5">
  <path d="M 108 0 L 143 0 L 143 24.667969 L 108 24.667969 Z M 108 0 "/>
</clipPath>
<clipPath id="clip6">
  <path d="M 136 0 L 171 0 L 171 24.667969 L 136 24.667969 Z M 136 0 "/>
</clipPath>
<clipPath id="clip7">
  <path d="M 165 0 L 200 0 L 200 24.667969 L 165 24.667969 Z M 165 0 "/>
</clipPath>
<clipPath id="clip8">
  <path d="M 193 0 L 228 0 L 228 24.667969 L 193 24.667969 Z M 193 0 "/>
</clipPath>
<clipPath id="clip9">
  <path d="M 221 0 L 256 0 L 256 24.667969 L 221 24.667969 Z M 221 0 "/>
</clipPath>
<clipPath id="clip10">
  <path d="M 250 0 L 279.824219 0 L 279.824219 24.667969 L 250 24.667969 Z M 250 0 "/>
</clipPath>
</defs>
<g id="surface1">
<g clip-path="url(#clip1)" clip-rule="nonzero">
<path style="fill:none;stroke-width:0.3985;stroke-linecap:butt;stroke-linejoin:miter;stroke:rgb(0%,0%,0%);stroke-opacity:1;stroke-miterlimit:10;" d="M 39.683688 -0.00128125 C 39.683688 6.260437 34.609469 11.338562 28.34775 11.338562 C 22.086031 11.338562 17.007906 6.260437 17.007906 -0.00128125 C 17.007906 -6.263 22.086031 -11.337219 28.34775 -11.337219 C 34.609469 -11.337219 39.683688 -6.263 39.683688 -0.00128125 Z M 39.683688 -0.00128125 " transform="matrix(1,0,0,-1,-16.1915,12.112)"/>
</g>
<g clip-path="url(#clip2)" clip-rule="nonzero">
<path style="fill:none;stroke-width:0.3985;stroke-linecap:butt;stroke-linejoin:miter;stroke:rgb(0%,0%,0%);stroke-opacity:1;stroke-miterlimit:10;" d="M 68.031344 -0.00128125 C 68.031344 6.260437 62.957125 11.338562 56.695406 11.338562 C 50.429781 11.338562 45.355563 6.260437 45.355563 -0.00128125 C 45.355563 -6.263 50.429781 -11.337219 56.695406 -11.337219 C 62.957125 -11.337219 68.031344 -6.263 68.031344 -0.00128125 Z M 68.031344 -0.00128125 " transform="matrix(1,0,0,-1,-16.1915,12.112)"/>
</g>
<g clip-path="url(#clip3)" clip-rule="nonzero">
<path style="fill:none;stroke-width:0.3985;stroke-linecap:butt;stroke-linejoin:miter;stroke:rgb(0%,0%,0%);stroke-opacity:1;stroke-miterlimit:10;" d="M 96.379 -0.00128125 C 96.379 6.260437 91.300875 11.338562 85.039156 11.338562 C 78.777438 11.338562 73.703219 6.260437 73.703219 -0.00128125 C 73.703219 -6.263 78.777438 -11.337219 85.039156 -11.337219 C 91.300875 -11.337219 96.379 -6.263 96.379 -0.00128125 Z M 96.379 -0.00128125 " transform="matrix(1,0,0,-1,-16.1915,12.112)"/>
</g>
<g clip-path="url(#clip4)" clip-rule="nonzero">
<path style="fill:none;stroke-width:0.3985;stroke-linecap:butt;stroke-linejoin:miter;stroke:rgb(0%,0%,0%);stroke-opacity:1;stroke-miterlimit:10;" d="M 124.726656 -0.00128125 C 124.726656 6.260437 119.648531 11.338562 113.386813 11.338562 C 107.125094 11.338562 102.046969 6.260437 102.046969 -0.00128125 C 102.046969 -6.263 107.125094 -11.337219 113.386813 -11.337219 C 119.648531 -11.337219 124.726656 -6.263 124.726656 -0.00128125 Z M 124.726656 -0.00128125 " transform="matrix(1,0,0,-1,-16.1915,12.112)"/>
</g>
<g clip-path="url(#clip5)" clip-rule="nonzero">
<path style="fill:none;stroke-width:0.3985;stroke-linecap:butt;stroke-linejoin:miter;stroke:rgb(0%,0%,0%);stroke-opacity:1;stroke-miterlimit:10;" d="M 153.074313 -0.00128125 C 153.074313 6.260437 147.996188 11.338562 141.734469 11.338562 C 135.47275 11.338562 130.394625 6.260437 130.394625 -0.00128125 C 130.394625 -6.263 135.47275 -11.337219 141.734469 -11.337219 C 147.996188 -11.337219 153.074313 -6.263 153.074313 -0.00128125 Z M 153.074313 -0.00128125 " transform="matrix(1,0,0,-1,-16.1915,12.112)"/>
</g>
<g clip-path="url(#clip6)" clip-rule="nonzero">
<path style="fill:none;stroke-width:0.3985;stroke-linecap:butt;stroke-linejoin:miter;stroke:rgb(0%,0%,0%);stroke-opacity:1;stroke-miterlimit:10;" d="M 181.418063 -0.00128125 C 181.418063 6.260437 176.343844 11.338562 170.082125 11.338562 C 163.820406 11.338562 158.742281 6.260437 158.742281 -0.00128125 C 158.742281 -6.263 163.820406 -11.337219 170.082125 -11.337219 C 176.343844 -11.337219 181.418063 -6.263 181.418063 -0.00128125 Z M 181.418063 -0.00128125 " transform="matrix(1,0,0,-1,-16.1915,12.112)"/>
</g>
<g clip-path="url(#clip7)" clip-rule="nonzero">
<path style="fill:none;stroke-width:0.3985;stroke-linecap:butt;stroke-linejoin:miter;stroke:rgb(0%,0%,0%);stroke-opacity:1;stroke-miterlimit:10;" d="M 209.765719 -0.00128125 C 209.765719 6.260437 204.6915 11.338562 198.425875 11.338562 C 192.164156 11.338562 187.089938 6.260437 187.089938 -0.00128125 C 187.089938 -6.263 192.164156 -11.337219 198.425875 -11.337219 C 204.6915 -11.337219 209.765719 -6.263 209.765719 -0.00128125 Z M 209.765719 -0.00128125 " transform="matrix(1,0,0,-1,-16.1915,12.112)"/>
</g>
<g clip-path="url(#clip8)" clip-rule="nonzero">
<path style="fill:none;stroke-width:0.3985;stroke-linecap:butt;stroke-linejoin:miter;stroke:rgb(0%,0%,0%);stroke-opacity:1;stroke-miterlimit:10;" d="M 238.113375 -0.00128125 C 238.113375 6.260437 233.03525 11.338562 226.773531 11.338562 C 220.511813 11.338562 215.437594 6.260437 215.437594 -0.00128125 C 215.437594 -6.263 220.511813 -11.337219 226.773531 -11.337219 C 233.03525 -11.337219 238.113375 -6.263 238.113375 -0.00128125 Z M 238.113375 -0.00128125 " transform="matrix(1,0,0,-1,-16.1915,12.112)"/>
</g>
<g clip-path="url(#clip9)" clip-rule="nonzero">
<path style="fill:none;stroke-width:0.3985;stroke-linecap:butt;stroke-linejoin:miter;stroke:rgb(0%,0%,0%);stroke-opacity:1;stroke-miterlimit:10;" d="M 266.461031 -0.00128125 C 266.461031 6.260437 261.382906 11.338562 255.121188 11.338562 C 248.859469 11.338562 243.781344 6.260437 243.781344 -0.00128125 C 243.781344 -6.263 248.859469 -11.337219 255.121188 -11.337219 C 261.382906 -11.337219 266.461031 -6.263 266.461031 -0.00128125 Z M 266.461031 -0.00128125 " transform="matrix(1,0,0,-1,-16.1915,12.112)"/>
</g>
<g clip-path="url(#clip10)" clip-rule="nonzero">
<path style="fill:none;stroke-width:0.3985;stroke-linecap:butt;stroke-linejoin:miter;stroke:rgb(0%,0%,0%);stroke-opacity:1;stroke-miterlimit:10;" d="M 294.804781 -0.00128125 C 294.804781 6.260437 289.730563 11.338562 283.468844 11.338562 C 277.207125 11.338562 272.129 6.260437 272.129 -0.00128125 C 272.129 -6.263 277.207125 -11.337219 283.468844 -11.337219 C 289.730563 -11.337219 294.804781 -6.263 294.804781 -0.00128125 Z M 294.804781 -0.00128125 " transform="matrix(1,0,0,-1,-16.1915,12.112)"/>
</g>
</g>
</svg>
