<svg xmlns="http://www.w3.org/2000/svg" xmlns:xlink="http://www.w3.org/1999/xlink" width="216.06" height="101.721"><defs><path id="a" d="M5.563-1.812c.14 0 .312 0 .312-.172 0-.188-.172-.188-.312-.188H1c-.125 0-.297 0-.297.188 0 .172.172.172.297.172Zm0 0"/><path id="b" d="M2.25-1.625c.125-.125.453-.39.594-.5.484-.453.953-.89.953-1.61 0-.953-.797-1.562-1.781-1.562-.97 0-1.594.719-1.594 1.438 0 .39.312.437.422.437.172 0 .422-.11.422-.422 0-.406-.407-.406-.5-.406.234-.594.765-.781 1.156-.781.734 0 1.125.625 1.125 1.297 0 .828-.578 1.437-1.531 2.39l-1 1.047C.422-.219.422-.203.422 0h3.14l.235-1.422h-.25c-.016.156-.078.547-.172.703-.047.063-.656.063-.781.063H1.172Zm0 0"/><path id="c" d="M2.5-5.078c0-.219-.016-.219-.234-.219-.328.313-.75.5-1.5.5v.266c.218 0 .64 0 1.109-.203v4.078c0 .297-.031.39-.781.39H.812V0c.329-.031 1.016-.031 1.376-.031s1.046 0 1.374.031v-.266h-.28c-.75 0-.782-.093-.782-.39Zm0 0"/><path id="d" d="M3.89-2.547c0-.844-.078-1.36-.343-1.875-.344-.703-1-.875-1.438-.875-1 0-1.375.75-1.484.969C.344-3.75.328-2.953.328-2.547c0 .531.016 1.328.406 1.969.36.594.954.75 1.375.75.391 0 1.063-.125 1.47-.906.296-.578.312-1.297.312-1.813M2.11-.062c-.266 0-.813-.125-.985-.954-.094-.453-.094-1.203-.094-1.625 0-.546 0-1.109.094-1.546.172-.813.781-.891.984-.891.266 0 .829.14.985.86.094.437.094 1.046.094 1.577 0 .47 0 1.188-.094 1.641-.172.828-.719.938-.985.938m0 0"/><path id="f" d="m1.656-6.219-1.328.094v.281c.61 0 .688.063.688.5v4.657c0 .406-.094.406-.688.406V0c.422-.016.594-.031 1-.031.422 0 .578.015 1.016.031v-.281c-.594 0-.688 0-.688-.406Zm0 0"/><path id="g" d="M4.344-1.906c0-1.172-.938-2.11-2.032-2.11-1.14 0-2.046.954-2.046 2.11 0 1.11.922 2 2.03 2 1.142 0 2.048-.906 2.048-2M2.312-.156c-.453 0-.828-.219-1.03-.563-.235-.39-.25-.86-.25-1.265 0-.344 0-.844.218-1.22a1.22 1.22 0 0 1 1.047-.593c.515 0 .875.297 1.062.594.204.375.204.828.204 1.219 0 .328 0 .843-.22 1.234a1.18 1.18 0 0 1-1.03.594m0 0"/><path id="h" d="M1.125-1.61c.219.141.5.282.906.282.86 0 1.5-.61 1.5-1.313 0-.437-.25-.75-.36-.875.36-.328.782-.328.876-.328-.031.031-.11.078-.11.235 0 .109.063.265.266.265.125 0 .266-.078.266-.265a.457.457 0 0 0-.485-.453c-.25 0-.656.093-.968.421a1.54 1.54 0 0 0-.97-.328c-.858 0-1.5.61-1.5 1.328 0 .454.266.782.407.907a1.26 1.26 0 0 0-.265.75c0 .297.14.625.39.78C.625-.046.266.282.266.704c0 .64.875 1.14 2.03 1.14 1.11 0 2.048-.468 2.048-1.155 0-.375-.172-.766-.5-.985-.5-.312-1.031-.312-1.875-.312-.188 0-.469 0-.547-.016C1.172-.687 1-.922 1-1.203c0-.156.047-.281.125-.406m.906.048c-.797 0-.797-.891-.797-1.079 0-.25.016-.546.172-.765a.8.8 0 0 1 .625-.313c.813 0 .813.86.813 1.078 0 .204 0 1.079-.813 1.079m.422 1.515c.281 0 1.39.016 1.39.735 0 .515-.702.921-1.53.921-.891 0-1.547-.421-1.547-.921 0-.141.093-.735.859-.735Zm0 0"/><path id="l" d="M4.14-1.594h-.25c-.015.125-.093.657-.203.797-.062.078-.671.078-.859.078H1.234l.891-.843c1.469-1.266 2.016-1.75 2.016-2.657 0-1.031-.844-1.75-1.953-1.75-1.032 0-1.735.813-1.735 1.625 0 .453.39.5.469.5.203 0 .469-.14.469-.469a.45.45 0 0 0-.47-.468c-.046 0-.062 0-.109.015.22-.64.797-.921 1.282-.921.906 0 1.219.843 1.219 1.468 0 .907-.688 1.657-1.11 2.125L.563-.328c-.11.11-.11.125-.11.328h3.438Zm0 0"/><path id="i" d="M4.406-3.625a.504.504 0 0 0-.422.484c0 .172.125.329.344.329.25 0 .5-.22.5-.532 0-.422-.453-.625-.875-.625-.531 0-.844.485-.953.672a1.04 1.04 0 0 0-1-.672c-.953 0-1.484 1.156-1.484 1.39 0 .079.062.11.125.11.078 0 .109-.047.125-.11.28-.89.875-1.155 1.218-1.155.266 0 .485.172.485.593 0 .313-.375 1.75-.5 2.188-.063.265-.344.828-.828.828-.188 0-.375-.062-.453-.11.234-.046.421-.265.421-.484 0-.234-.171-.328-.343-.328-.266 0-.5.219-.5.531 0 .438.484.61.859.61.531 0 .828-.422.969-.672.219.594.75.672.984.672.969 0 1.485-1.156 1.485-1.375 0-.047-.032-.11-.11-.11-.11 0-.11.032-.156.172-.203.64-.719 1.094-1.188 1.094-.25 0-.5-.156-.5-.594 0-.203.125-.687.204-1.031.046-.156.28-1.125.296-1.187.11-.329.375-.797.844-.797.156 0 .328.015.453.109m0 0"/><path id="k" d="M4.031-6.375c.063-.125.063-.14.063-.156 0-.11-.094-.203-.188-.203-.125 0-.172.078-.172.093L.563 1.891c-.047.125-.047.14-.047.156 0 .11.078.203.187.203.094 0 .156-.047.219-.219Zm0 0"/><path id="n" d="M1.234-2.047c.547 0 1.125 0 1.594-.125.844-.203 1-.703 1-1.015 0-.5-.469-.782-1-.782-1.047 0-2.406.89-2.406 2.422 0 .86.5 1.64 1.469 1.64 1.343 0 2.093-.921 2.093-1.046 0-.047-.062-.125-.125-.125-.03 0-.046.016-.125.11-.546.656-1.359.843-1.828.843-.625 0-.797-.594-.797-1.047 0-.016 0-.328.125-.875m.063-.234c.39-1.406 1.39-1.453 1.531-1.453.297 0 .672.14.672.547 0 .906-1.36.906-2.203.906m0 0"/><path id="m" d="M3.219-1.125H3c-.016.094-.078.484-.156.547-.047.047-.531.047-.625.047h-1.11l.766-.625c.203-.172.734-.547.922-.735.172-.171.422-.484.422-.906 0-.75-.672-1.187-1.485-1.187-.765 0-1.296.515-1.296 1.078 0 .297.25.344.312.344a.32.32 0 0 0 .328-.329c0-.125-.078-.328-.344-.328.141-.297.5-.531.922-.531.625 0 .953.469.953.953 0 .422-.28.86-.687 1.25L.5-.25C.438-.187.438-.187.438 0H3.03Zm0 0"/><path id="o" d="M3.375-2.36a.34.34 0 0 0-.266.329c0 .187.157.234.235.234.187 0 .36-.14.36-.375 0-.328-.36-.469-.657-.469-.406 0-.64.313-.703.422-.078-.156-.313-.422-.766-.422-.687 0-1.094.72-1.094.922 0 .032.032.078.11.078.094 0 .11-.03.125-.078.156-.484.562-.718.844-.718.296 0 .39.187.39.39 0 .063 0 .125-.047.313-.14.547-.265 1.093-.297 1.172-.093.218-.312.421-.562.421-.031 0-.203 0-.344-.093C.938-.312.97-.5.97-.547c0-.156-.125-.234-.25-.234-.156 0-.344.125-.344.375 0 .344.375.469.656.469.344 0 .594-.235.703-.422.125.25.407.422.75.422.704 0 1.094-.735 1.094-.922 0-.016 0-.094-.11-.094-.077 0-.093.047-.109.11-.171.515-.593.702-.859.702-.219 0-.375-.125-.375-.375 0-.125.016-.25.078-.453l.188-.781c.062-.234.093-.344.218-.484a.57.57 0 0 1 .422-.203c.031 0 .203 0 .344.078m0 0"/><clipPath id="e"><path d="M190 19h25.59v23H190Zm0 0"/></clipPath><clipPath id="j"><path d="M190 30h25.59v31H190Zm0 0"/></clipPath></defs><path fill="none" stroke="#7F7F7F" stroke-linecap="round" stroke-miterlimit="10" stroke-width=".399" d="M29.477 92.637v-1.992M57.82 92.637v-1.992M86.168 92.637v-1.992M114.516 92.637v-1.992M142.86 92.637v-1.992M29.477 3.05V1.06M57.82 3.05V1.06M86.168 3.05V1.06M114.516 3.05V1.06M142.86 3.05V1.06M13.309 78.328h1.996M13.309 58.082h1.996M13.309 37.832h1.996M13.309 17.586h1.996M157.035 78.328h1.996M157.035 58.082h1.996M157.035 37.832h1.996M157.035 17.586h1.996"/><path fill="none" stroke="#7F7F7F" stroke-miterlimit="10" stroke-width=".399" d="M15.305 90.645h141.73M15.305 3.05h141.73M15.305 90.645V3.05M157.035 90.645V3.05"/><path fill="none" stroke="#090" stroke-miterlimit="10" stroke-width=".598" d="M15.305 56.422s2.984-.184 4.133-.262c1.144-.078 2.984-.21 4.132-.3a478 478 0 0 0 4.133-.352c1.149-.106 2.988-.281 4.133-.403 1.148-.12 2.988-.328 4.137-.468 1.144-.14 2.984-.383 4.132-.543 1.149-.164 2.985-.438 4.133-.625 1.149-.188 2.989-.508 4.133-.723a189 189 0 0 0 4.133-.84c1.148-.25 2.988-.68 4.137-.968a151 151 0 0 0 4.132-1.126 117 117 0 0 0 4.133-1.296c1.149-.387 2.989-1.051 4.133-1.504 1.148-.45 2.988-1.215 4.137-1.735 1.144-.523 2.984-1.41 4.133-2.011a94 94 0 0 0 4.132-2.325c1.149-.699 2.989-1.89 4.133-2.695a87 87 0 0 0 4.133-3.105 90 90 0 0 0 4.137-3.602 99 99 0 0 0 4.133-4.168 106 106 0 0 0 4.132-4.82 116 116 0 0 0 4.133-5.578 139 139 0 0 0 4.137-6.453c1.144-1.934 4.133-7.47 4.133-7.47"/><path fill="none" stroke="#00C" stroke-miterlimit="10" stroke-width=".598" d="M43.648 12.523s2.563 5.344 3.543 7.278c.985 1.93 2.563 4.887 3.543 6.644a193 193 0 0 0 3.543 6.012 148 148 0 0 0 3.543 5.375c.985 1.406 2.563 3.52 3.547 4.746a84 84 0 0 0 3.543 4.113 64 64 0 0 0 3.543 3.48c.98.88 2.559 2.145 3.543 2.849.98.703 2.559 1.687 3.543 2.214.984.528 2.559 1.23 3.543 1.582s2.559.774 3.543.95 2.559.316 3.543.316 2.559-.14 3.543-.316 2.559-.598 3.543-.95a31 31 0 0 0 3.543-1.582 39 39 0 0 0 3.543-2.214 49 49 0 0 0 3.543-2.848 64 64 0 0 0 3.543-3.48 86 86 0 0 0 3.547-4.114c.98-1.226 2.558-3.34 3.543-4.746.98-1.402 2.558-3.797 3.543-5.375a193 193 0 0 0 3.543-6.012c.98-1.758 2.558-4.715 3.543-6.644.984-1.934 3.543-7.278 3.543-7.278"/><path fill="none" stroke="#C00" stroke-miterlimit="10" stroke-width=".598" d="m29.477 78.328 5.312-1.898c1.477-.528 3.844-1.371 5.316-1.899l5.317-1.898c1.473-.524 3.84-1.371 5.312-1.899 1.477-.523 3.84-1.37 5.317-1.898 1.472-.523 3.84-1.371 5.316-1.895 1.473-.527 3.84-1.375 5.313-1.898 1.476-.527 3.84-1.375 5.316-1.898 1.473-.528 3.84-1.372 5.313-1.899l5.316-1.898 5.316-1.899c1.473-.527 3.84-1.37 5.313-1.898l5.316-1.899c1.473-.527 3.84-1.37 5.313-1.898l5.316-1.899 5.317-1.898 5.312-1.898 5.317-1.899c1.472-.527 3.84-1.37 5.312-1.898 1.477-.528 3.844-1.371 5.316-1.899l5.317-1.898c1.472-.524 3.84-1.371 5.312-1.899 1.477-.523 3.84-1.37 5.317-1.894 1.472-.527 5.316-1.899 5.316-1.899"/><path fill="none" stroke="#000" stroke-miterlimit="10" stroke-width=".598" d="M91.836 90.645s1.965-6.016 2.719-7.903c.754-1.883 1.96-4.277 2.715-5.68.753-1.402 1.96-3.308 2.714-4.43.754-1.116 1.965-2.702 2.72-3.636a62 62 0 0 1 2.714-3.078c.754-.8 1.965-1.977 2.719-2.672.75-.7 1.96-1.742 2.715-2.363.753-.621 1.96-1.551 2.714-2.11a89 89 0 0 1 2.72-1.918c.753-.507 1.96-1.28 2.714-1.75a124 124 0 0 1 2.715-1.609c.754-.43 1.965-1.09 2.719-1.488.754-.403 1.96-1.016 2.714-1.39.754-.372 1.961-.95 2.715-1.298a139 139 0 0 1 8.153-3.46c.754-.297 1.96-.755 2.714-1.036a189 189 0 0 1 5.434-1.922c.754-.257 1.961-.656 2.715-.898s1.96-.625 2.715-.86 1.965-.597 2.719-.824c.753-.222 2.714-.789 2.714-.789"/><use xlink:href="#a" x="24.066" y="100.428"/><use xlink:href="#b" x="30.652" y="100.428"/><use xlink:href="#a" x="52.412" y="100.428"/><use xlink:href="#c" x="58.998" y="100.428"/><use xlink:href="#d" x="84.051" y="100.428"/><use xlink:href="#c" x="112.396" y="100.428"/><use xlink:href="#b" x="140.742" y="100.428"/><use xlink:href="#a" x="-.166" y="80.481"/><use xlink:href="#c" x="6.421" y="80.481"/><use xlink:href="#d" x="6.421" y="60.65"/><use xlink:href="#c" x="6.421" y="40.403"/><use xlink:href="#b" x="6.421" y="20.154"/><g clip-path="url(#e)"><path fill="none" stroke="#000" stroke-miterlimit="10" stroke-width=".399" d="M212.887 25.094h-15.672c-.828 0-1.496.668-1.496 1.496v7.969c0 .824.668 1.496 1.496 1.496h15.672c.828 0 1.496-.672 1.496-1.496v-7.97c0-.827-.668-1.495-1.496-1.495Zm0 0"/></g><use xlink:href="#f" x="195.72" y="32.815"/><use xlink:href="#g" x="198.28" y="32.815"/><use xlink:href="#h" x="202.888" y="32.815"/><use xlink:href="#i" x="209.159" y="32.815"/><path fill="none" stroke="#000" stroke-miterlimit="10" stroke-width=".598" d="M170.816 30.602s2.907-1.508 4.98-1.325c2.075.184 7.892 2.47 9.966 2.653s4.98-1.328 4.98-1.328"/><g clip-path="url(#j)"><path fill="none" stroke="red" stroke-miterlimit="10" stroke-width=".399" d="M213.84 45.512a9.064 9.064 0 0 0-9.063-9.063c-5.004 0-9.058 4.059-9.058 9.063a9.057 9.057 0 0 0 9.058 9.058c5.004 0 9.063-4.054 9.063-9.058Zm0 0"/></g><use xlink:href="#i" x="197.56" y="47.752"/><use xlink:href="#k" x="202.784" y="47.752"/><use xlink:href="#l" x="207.391" y="47.752"/><path fill="none" stroke="#C00" stroke-miterlimit="10" stroke-width=".598" d="M170.816 45.54s2.907-1.509 4.98-1.325c2.075.183 7.892 2.469 9.966 2.652s4.98-1.328 4.98-1.328"/><path fill="none" stroke="#000" stroke-miterlimit="10" stroke-width=".399" d="M203.598 54.969h-6.383c-.828 0-1.496.668-1.496 1.496v8.906c0 .824.668 1.492 1.496 1.492h6.383c.828 0 1.496-.668 1.496-1.492v-8.906c0-.828-.668-1.496-1.496-1.496Zm0 0"/><use xlink:href="#i" x="195.72" y="63.627"/><use xlink:href="#m" x="200.943" y="59.818"/><path fill="none" stroke="#00C" stroke-miterlimit="10" stroke-width=".598" d="M170.816 61.414s2.907-1.512 4.98-1.328c2.075.187 7.892 2.473 9.966 2.656s4.98-1.328 4.98-1.328"/><path fill="none" stroke="#000" stroke-miterlimit="10" stroke-width=".399" d="M203.18 67.262h-5.965c-.828 0-1.496.668-1.496 1.496v7.969c0 .824.668 1.496 1.496 1.496h5.965c.824 0 1.492-.672 1.492-1.496v-7.97c0-.827-.668-1.495-1.492-1.495Zm0 0"/><use xlink:href="#n" x="195.72" y="74.984"/><use xlink:href="#o" x="200.004" y="71.174"/><path fill="none" stroke="#090" stroke-miterlimit="10" stroke-width=".598" d="M170.816 72.773s2.907-1.511 4.98-1.328c2.075.184 7.892 2.47 9.966 2.653s4.98-1.325 4.98-1.325"/></svg>