<svg xmlns="http://www.w3.org/2000/svg" xmlns:xlink="http://www.w3.org/1999/xlink" width="56.851" height="73.874"><defs><path id="a" d="M4.922 0v-.469h-1.39v-5.734c0-.234 0-.328-.266-.328-.11 0-.125 0-.22.078-.765.562-1.796.562-2 .562H.845v.47h.203c.156 0 .703-.016 1.297-.204v5.156H.954V0c.437-.031 1.5-.031 1.984-.031s1.546 0 1.984.031m0 0"/><path id="b" d="M5.156-2.219h-.468c-.032.203-.125.844-.266.906-.11.063-.86.063-1.016.063H1.937c.47-.39 1-.812 1.438-1.14 1.14-.844 1.781-1.313 1.781-2.25 0-1.157-1.047-1.891-2.437-1.891-1.219 0-2.156.625-2.156 1.515 0 .594.484.735.718.735C1.61-4.281 2-4.5 2-5c0-.516-.422-.672-.562-.719.28-.234.671-.343 1.03-.343.845 0 1.313.671 1.313 1.421 0 .688-.375 1.375-1.078 2.079l-2 2.046c-.14.11-.14.141-.14.344V0h4.28Zm0 0"/><path id="c" d="M1.797 5.25c.547 0 1.406-.297 1.719-1.734.203.687.765 1.406 1.625 1.406.765 0 1.39-.75 1.39-2.156 0-1.188-.64-1.97-1.437-1.97a.68.68 0 0 0-.703.688c0 .454.328.704.687.704.578 0 .688-.547.703-.579.282.344.36.782.36 1.094 0 .828-.641.86-.97.86-.124 0-1.437-.016-1.5-1.047-.015-.407-.015-.438-.03-.485-.016-.094-.11-.125-.172-.125-.172 0-.172.11-.172.282v.437c0 1.094-.985 1.094-1.5 1.094-.469 0-1.484 0-1.484-1.031 0-.266.046-.782.343-1.266C.75 1.75 1 2 1.406 2c.453 0 .75-.312.75-.75 0-.422-.265-.766-.765-.766-.907 0-1.5.97-1.5 2.25 0 1.782 1 2.516 1.906 2.516m0 0"/><path id="d" d="M-5.406 0v.469h.968v1.094h-.968v.468h.968V6.22c0 .265.016.328.297.328.22 0 .22-.016.344-.172l3.485-4.344v-.469h-2.875V.47h1.109V0c-.375.031-1.281.031-1.703.031-.406 0-1.266 0-1.625-.031m2.11 2.031h2.452L-3.297 5.11Zm0 0"/><path id="e" d="M-5.156 2c0 1.156.797 2.078 2.265 2.078.282 0 .813-.031 1.282-.344v1.313C-1.891 5-2 4.969-2.33 4.969c-1.452 0-2.374 1.125-2.374 1.375 0 .078.016.187.14.187.032 0 .032 0 .141-.047a4.3 4.3 0 0 1 1.531-.28c.75 0 1.282.202 1.547.28.094.032.094.047.125.047.14 0 .14-.11.14-.265V3.344c0-.172 0-.297-.218-.297-.125 0-.156.031-.219.11-.39.468-.921.562-1.328.562-.89 0-.89-.875-.89-1.672 0-.735 0-1.735 1.187-1.735.25 0 .875.063 1.297.626-.36.015-.656.265-.656.671 0 .532.437.672.672.672.14 0 .672-.094.672-.703 0-.844-.782-1.687-2.016-1.687C-4.172-.11-5.156.78-5.156 2m0 0"/><path id="h" d="M-2.047-5.25c-1.39 0-2.125 1.016-2.125 2.219 0 .219 0 .781.766 1.203h-.188c-1.14 0-1.562-.219-1.719-.281A1.6 1.6 0 0 1-6.14-3.5c0-.172.032-.516.266-.75.047.36.313.547.61.547.343 0 .624-.235.624-.625s-.265-.625-.64-.625c-.625 0-1.25.422-1.25 1.469 0 1.359.86 3 3.375 3 .781 0 1.578-.079 2.265-.5.766-.47 1-1.22 1-1.922 0-1.375-.812-2.344-2.156-2.344m-.015 1.36c1 0 1.75 0 1.75 1.015 0 .516-.391.781-.563.86-.312.156-1.031.156-1.219.156-1.25 0-1.719-.532-1.719-1.078 0-.954.75-.954 1.75-.954m0 0"/><clipPath id="f"><path d="M15 63h30v10.813H15Zm0 0"/></clipPath><clipPath id="g"><path d="M32 46h16v27.813H32Zm0 0"/></clipPath></defs><use xlink:href="#a" x="27.192" y="29.929"/><use xlink:href="#b" x="27.192" y="12.921"/><path fill="none" stroke="#000" stroke-miterlimit="10" stroke-width=".399" d="M21.55 1.152h17.013"/><path fill="none" stroke="#7F7F7F" stroke-miterlimit="10" stroke-width=".199" d="M38.563 1.152V18.16"/><path fill="none" stroke="#000" stroke-miterlimit="10" stroke-width=".399" d="m38.563 1.152 3.398 8.504-3.398 8.504"/><path fill="none" stroke="#7F7F7F" stroke-miterlimit="10" stroke-width=".199" d="M38.563 18.16H21.55M21.55 18.16V1.152"/><path fill="none" stroke="#000" stroke-miterlimit="10" stroke-width=".399" d="m21.55 18.16-3.398-8.504 3.399-8.504"/><use xlink:href="#c" x="43.855" y="23.802"/><path fill="none" stroke="#000" stroke-miterlimit="10" stroke-width=".399" d="M55.57 18.16v17.012M55.57 35.172H38.563"/><path fill="none" stroke="#7F7F7F" stroke-miterlimit="10" stroke-width=".199" d="M38.563 35.172V18.16"/><path fill="none" stroke="#000" stroke-miterlimit="10" stroke-width=".399" d="M38.563 18.16H55.57"/><use xlink:href="#d" x="32.92" y="40.406"/><use xlink:href="#e" x="32.92" y="57.474"/><path fill="none" stroke="#7F7F7F" stroke-miterlimit="10" stroke-width=".199" d="M38.563 69.188H21.55"/><g clip-path="url(#f)"><path fill="none" stroke="#000" stroke-miterlimit="10" stroke-width=".399" d="m38.563 69.188-8.508 3.398-8.504-3.398"/></g><path fill="none" stroke="#000" stroke-miterlimit="10" stroke-width=".399" d="M21.55 69.188V52.18"/><path fill="none" stroke="#7F7F7F" stroke-miterlimit="10" stroke-width=".199" d="M21.55 52.18h17.013M38.563 52.18v17.008"/><g clip-path="url(#g)"><path fill="none" stroke="#000" stroke-miterlimit="10" stroke-width=".399" d="m38.563 52.18 3.398 8.504-3.398 8.504"/></g><path fill="none" stroke="#7F7F7F" stroke-miterlimit="10" stroke-width=".199" d="M21.55 52.18V35.172"/><path fill="none" stroke="#000" stroke-miterlimit="10" stroke-width=".399" d="m21.55 52.18-3.398-8.504 3.399-8.504"/><path fill="none" stroke="#7F7F7F" stroke-miterlimit="10" stroke-width=".199" d="M21.55 35.172h17.013M38.563 35.172V52.18"/><path fill="none" stroke="#000" stroke-miterlimit="10" stroke-width=".399" d="m38.563 35.172 3.398 8.504-3.398 8.504"/><use xlink:href="#h" x="16.256" y="29.53"/><path fill="none" stroke="#7F7F7F" stroke-miterlimit="10" stroke-width=".199" d="M4.543 35.172V18.16"/><path fill="none" stroke="#000" stroke-miterlimit="10" stroke-width=".399" d="m4.543 35.172-3.398-8.508 3.398-8.504M4.543 18.16h17.008"/><path fill="none" stroke="#7F7F7F" stroke-miterlimit="10" stroke-width=".199" d="M21.55 18.16v17.012"/><path fill="none" stroke="#000" stroke-miterlimit="10" stroke-width=".399" d="M21.55 35.172H4.544"/></svg>