<svg xmlns="http://www.w3.org/2000/svg" width="41.564" height="41.546"><defs><clipPath id="a"><path d="M0 23h18v18.32H0Zm0 0"/></clipPath></defs><path fill="none" stroke="#000" stroke-miterlimit="10" stroke-width=".399" d="M11.988 29.121h27.95"/><path fill="none" stroke="#000" stroke-linecap="round" stroke-linejoin="round" stroke-miterlimit="10" stroke-width=".399" d="M38.066 26.73c.38 1.434 1.223 2.114 2.07 2.391-.847.277-1.69.957-2.07 2.39"/><path fill="none" stroke="#000" stroke-miterlimit="10" stroke-width=".399" d="M11.988 29.121V1.171"/><path fill="none" stroke="#000" stroke-linecap="round" stroke-linejoin="round" stroke-miterlimit="10" stroke-width=".399" d="M9.598 3.047c1.437-.379 2.113-1.223 2.39-2.074.282.851.957 1.695 2.395 2.074"/><g clip-path="url(#a)"><path fill="none" stroke="#000" stroke-miterlimit="10" stroke-width=".399" d="M11.988 29.121 1.36 39.754"/></g><path fill="none" stroke="#000" stroke-linecap="round" stroke-linejoin="round" stroke-miterlimit="10" stroke-width=".39899601" d="M4.375 40.117c-1.285-.746-2.36-.629-3.156-.222.402-.801.52-1.875-.227-3.157"/></svg>