<svg xmlns="http://www.w3.org/2000/svg" width="30.745" height="30.745"><defs><radialGradient id="b" cx="28.35" cy="28.35" r="28.35" fx="28.35" fy="28.35" gradientTransform="matrix(1 0 0 -1 -13.105 43.595)" gradientUnits="userSpaceOnUse"><stop offset="0" stop-opacity="0"/><stop offset="0" stop-color="gray"/><stop offset=".004" stop-color="#818181"/><stop offset=".008" stop-color="#828282"/><stop offset=".012" stop-color="#838383"/><stop offset=".016" stop-color="#848484"/><stop offset=".02" stop-color="#858585"/><stop offset=".023" stop-color="#868686"/><stop offset=".027" stop-color="#878787"/><stop offset=".031" stop-color="#888"/><stop offset=".035" stop-color="#898989"/><stop offset=".039" stop-color="#8A8A8A"/><stop offset=".043" stop-color="#8B8B8B"/><stop offset=".047" stop-color="#8C8C8C"/><stop offset=".051" stop-color="#8D8D8D"/><stop offset=".055" stop-color="#8E8E8E"/><stop offset=".059" stop-color="#8F8F8F"/><stop offset=".063" stop-color="#909090"/><stop offset=".066" stop-color="#919191"/><stop offset=".07" stop-color="#929292"/><stop offset=".074" stop-color="#939393"/><stop offset=".078" stop-color="#949494"/><stop offset=".082" stop-color="#959595"/><stop offset=".086" stop-color="#969696"/><stop offset=".09" stop-color="#979797"/><stop offset=".094" stop-color="#989898"/><stop offset=".098" stop-color="#999"/><stop offset=".102" stop-color="#9A9A9A"/><stop offset=".105" stop-color="#9B9B9B"/><stop offset=".109" stop-color="#9C9C9C"/><stop offset=".113" stop-color="#9D9D9D"/><stop offset=".117" stop-color="#9E9E9E"/><stop offset=".121" stop-color="#9F9F9F"/><stop offset=".125" stop-color="#A0A0A0"/><stop offset=".129" stop-color="#A1A1A1"/><stop offset=".133" stop-color="#A2A2A2"/><stop offset=".137" stop-color="#A3A3A3"/><stop offset=".141" stop-color="#A4A4A4"/><stop offset=".145" stop-color="#A5A5A5"/><stop offset=".148" stop-color="#A6A6A6"/><stop offset=".152" stop-color="#A7A7A7"/><stop offset=".156" stop-color="#A8A8A8"/><stop offset=".16" stop-color="#A9A9A9"/><stop offset=".164" stop-color="#AAA"/><stop offset=".168" stop-color="#ABABAB"/><stop offset=".172" stop-color="#ACACAC"/><stop offset=".176" stop-color="#ADADAD"/><stop offset=".18" stop-color="#AEAEAE"/><stop offset=".184" stop-color="#AFAFAF"/><stop offset=".188" stop-color="#B0B0B0"/><stop offset=".191" stop-color="#B1B1B1"/><stop offset=".195" stop-color="#B2B2B2"/><stop offset=".199" stop-color="#B3B3B3"/><stop offset=".203" stop-color="#B4B4B4"/><stop offset=".207" stop-color="#B5B5B5"/><stop offset=".211" stop-color="#B6B6B6"/><stop offset=".215" stop-color="#B7B7B7"/><stop offset=".219" stop-color="#B8B8B8"/><stop offset=".223" stop-color="#B9B9B9"/><stop offset=".227" stop-color="#BABABA"/><stop offset=".23" stop-color="#BBB"/><stop offset=".234" stop-color="#BCBCBC"/><stop offset=".238" stop-color="#BDBDBD"/><stop offset=".242" stop-color="#BEBEBE"/><stop offset=".246" stop-color="#BFBFBF"/><stop offset=".25" stop-color="silver"/><stop offset=".254" stop-color="#C1C1C1"/><stop offset=".258" stop-color="#C2C2C2"/><stop offset=".262" stop-color="#C3C3C3"/><stop offset=".266" stop-color="#C4C4C4"/><stop offset=".27" stop-color="#C5C5C5"/><stop offset=".273" stop-color="#C6C6C6"/><stop offset=".277" stop-color="#C7C7C7"/><stop offset=".281" stop-color="#C8C8C8"/><stop offset=".285" stop-color="#C9C9C9"/><stop offset=".289" stop-color="#CACACA"/><stop offset=".293" stop-color="#CBCBCB"/><stop offset=".297" stop-color="#CCC"/><stop offset=".301" stop-color="#CDCDCD"/><stop offset=".305" stop-color="#CECECE"/><stop offset=".309" stop-color="#CFCFCF"/><stop offset=".313" stop-color="#D0D0D0"/><stop offset=".316" stop-color="#D1D1D1"/><stop offset=".32" stop-color="#D2D2D2"/><stop offset=".324" stop-color="#D3D3D3"/><stop offset=".328" stop-color="#D4D4D4"/><stop offset=".332" stop-color="#D5D5D5"/><stop offset=".336" stop-color="#D6D6D6"/><stop offset=".34" stop-color="#D7D7D7"/><stop offset=".344" stop-color="#D8D8D8"/><stop offset=".348" stop-color="#D9D9D9"/><stop offset=".352" stop-color="#DADADA"/><stop offset=".355" stop-color="#DBDBDB"/><stop offset=".359" stop-color="#DCDCDC"/><stop offset=".363" stop-color="#DDD"/><stop offset=".367" stop-color="#DEDEDE"/><stop offset=".371" stop-color="#DFDFDF"/><stop offset=".375" stop-color="#E0E0E0"/><stop offset=".379" stop-color="#E1E1E1"/><stop offset=".383" stop-color="#E2E2E2"/><stop offset=".387" stop-color="#E3E3E3"/><stop offset=".391" stop-color="#E4E4E4"/><stop offset=".395" stop-color="#E5E5E5"/><stop offset=".398" stop-color="#E6E6E6"/><stop offset=".402" stop-color="#E7E7E7"/><stop offset=".406" stop-color="#E8E8E8"/><stop offset=".41" stop-color="#E9E9E9"/><stop offset=".414" stop-color="#EAEAEA"/><stop offset=".418" stop-color="#EBEBEB"/><stop offset=".422" stop-color="#ECECEC"/><stop offset=".426" stop-color="#EDEDED"/><stop offset=".43" stop-color="#EEE"/><stop offset=".434" stop-color="#EFEFEF"/><stop offset=".438" stop-color="#F0F0F0"/><stop offset=".441" stop-color="#F1F1F1"/><stop offset=".445" stop-color="#F2F2F2"/><stop offset=".449" stop-color="#F3F3F3"/><stop offset=".453" stop-color="#F4F4F4"/><stop offset=".457" stop-color="#F5F5F5"/><stop offset=".461" stop-color="#F6F6F6"/><stop offset=".465" stop-color="#F7F7F7"/><stop offset=".469" stop-color="#F8F8F8"/><stop offset=".473" stop-color="#F9F9F9"/><stop offset=".477" stop-color="#FAFAFA"/><stop offset=".48" stop-color="#FBFBFB"/><stop offset=".484" stop-color="#FCFCFC"/><stop offset=".488" stop-color="#FDFDFD"/><stop offset=".492" stop-color="#FEFEFE"/><stop offset=".496" stop-color="#FFF"/><stop offset="1" stop-color="#FFF"/><stop offset="1" stop-opacity="0"/></radialGradient><clipPath id="a"><path d="M1.07 1.07h28.348v28.348H1.07Zm0 0"/></clipPath></defs><g clip-path="url(#a)"><path fill="url(#b)" d="M15.356 15.246v.016l-.004.02-.008.015-.024.031-.015.012-.02.008-.015.004-.02.003h-.02l-.02-.003-.015-.008-.03-.024-.013-.011-.007-.02-.008-.016v-.054l.008-.02.007-.015.012-.016.031-.023.016-.004.039-.008.02.004.015.004.02.011.015.008.024.031.008.016.003.02Zm0 0v-.02l-.004-.019-.008-.016-.024-.03-.015-.009-.02-.011-.015-.004-.02-.004-.04.008-.015.004-.03.023-.013.016-.007.015-.008.02v.054l.008.016.007.02.012.011.031.024.016.008.02.003h.019l.02-.003.015-.004.02-.008.015-.012.024-.031.008-.016.003-.02Zm.109 0v.035l-.012.04-.015.03-.02.032-.027.027-.028.024-.035.015-.035.012-.04.004h-.034l-.04-.008-.034-.016-.032-.02-.027-.023-.024-.03-.019-.032-.012-.035-.008-.04v-.034l.008-.04.012-.035.02-.03.023-.032.027-.024.032-.02.035-.015.039-.008h.035l.039.004.035.012.035.016.028.023.027.027.02.032.015.035.012.035Zm0 0v-.039l-.012-.035-.015-.035-.02-.032-.027-.027-.028-.023-.035-.016-.035-.012-.04-.004h-.034l-.04.008-.034.016-.032.02-.027.023-.024.031-.019.031-.012.036-.008.039v.035l.008.039.012.035.02.031.023.031.027.024.032.02.035.015.039.008h.035l.039-.004.035-.012.035-.015.028-.024.027-.027.02-.031.015-.032.012-.039Zm.113 0-.004.055-.015.054-.024.051-.031.047-.04.043-.046.031-.05.028-.052.015-.058.008-.055-.004-.055-.011-.054-.02-.047-.031-.043-.035-.035-.047-.028-.047-.02-.055-.007-.055v-.058l.008-.055.02-.05.027-.051.035-.043.043-.04.047-.027.054-.023.055-.012h.055l.058.008.051.015.051.024.047.035.039.04.031.046.024.05.015.056Zm0 0-.004-.059-.015-.054-.024-.051-.031-.047-.04-.039-.046-.035-.05-.024-.052-.015-.058-.008h-.055l-.055.012-.054.023-.047.028-.043.039-.035.043-.028.05-.02.051-.007.055v.058l.008.055.02.055.027.047.035.047.043.035.047.031.054.02.055.011.055.004.058-.008.051-.015.051-.028.047-.03.039-.044.031-.047.024-.05.015-.055Zm.11 0-.004.074-.02.07-.031.07-.043.063-.05.055-.063.043-.067.035-.07.024-.074.008-.079-.004-.07-.016-.07-.027-.067-.04-.054-.05-.047-.059-.04-.066-.023-.07-.011-.075v-.074l.011-.074.024-.07.039-.067.047-.059.054-.05.067-.04.07-.027.07-.015.079-.004.074.011.07.02.067.035.062.047.05.05.044.063.031.07.02.071Zm0 0-.004-.078-.02-.07-.031-.07-.043-.063-.05-.05-.063-.048-.067-.035-.07-.02-.074-.011-.079.004-.07.015-.07.028-.067.039-.054.05-.047.06-.04.066-.023.07-.011.074v.074l.011.074.024.07.039.067.047.059.054.05.067.04.07.027.07.016.079.004.074-.008.07-.024.067-.035.062-.043.05-.055.044-.062.031-.07.02-.07Zm.113 0-.012.094-.023.09-.036.086-.054.078-.067.066-.074.055-.082.043-.09.027-.093.012-.094-.004-.094-.02-.086-.035-.082-.047-.07-.062-.059-.074-.043-.082-.031-.09-.016-.09v-.094l.016-.094.031-.09.043-.081.059-.07.07-.063.082-.051.086-.035.094-.02.094-.004.093.012.09.027.082.043.074.055.067.07.054.079.036.082.023.093Zm0 0-.012-.094-.023-.093-.036-.082-.054-.079-.067-.07-.074-.055-.082-.043-.09-.027-.093-.012-.094.004-.094.02-.086.035-.082.05-.07.063-.059.07-.043.083-.031.09-.016.093v.094l.016.09.031.09.043.082.059.074.07.062.082.047.086.035.094.02.094.004.093-.012.09-.027.082-.043.074-.055.067-.066.054-.078.036-.086.023-.09Zm.11 0-.013.11-.027.109-.047.105-.062.094-.078.078-.09.07-.102.047-.105.036-.114.015-.113-.008-.11-.023-.105-.04-.093-.062-.086-.074-.07-.086-.055-.097-.04-.106-.019-.113v-.114l.02-.109.039-.105.054-.102.07-.086.087-.074.093-.059.106-.043.11-.023.112-.004.114.012.105.035.102.05.09.067.078.082.062.094.047.101.027.11Zm0 0-.013-.113-.027-.11-.047-.101-.062-.094-.078-.082-.09-.066-.102-.051-.105-.035-.114-.012-.113.004-.11.023-.105.043-.093.059-.086.074-.07.086-.055.102-.04.105-.019.11v.113l.02.113.039.106.054.097.07.086.087.074.093.063.106.039.11.023.112.008.114-.015.105-.036.102-.046.09-.07.078-.079.062-.094.047-.105.027-.11Zm.109 0-.012.129-.031.129-.055.117-.074.11-.09.097-.106.078-.117.059-.125.039-.133.016-.129-.004-.128-.032-.125-.046-.11-.07-.098-.087-.085-.101-.063-.117-.043-.122-.023-.132v-.13l.023-.128.043-.125.063-.114.085-.105.098-.086.11-.07.125-.047.128-.027.13-.008.132.02.125.038.117.059.106.078.09.094.074.11.055.12.03.125Zm0 0-.012-.133-.031-.125-.055-.12-.074-.11-.09-.094-.106-.078-.117-.059-.125-.039-.133-.02-.129.009-.128.027-.125.047-.11.07-.098.086-.085.105-.063.114-.043.125-.023.129v.129l.023.132.043.121.063.118.085.101.098.086.11.07.125.047.128.032.13.004.132-.016.125-.04.117-.058.106-.078.09-.098.074-.109.055-.117.03-.129Zm.113 0-.016.149-.035.144-.062.137-.086.125-.102.11-.121.089-.137.066-.14.043-.153.02-.148-.004-.149-.031-.136-.059-.13-.078-.113-.098-.093-.117-.075-.133-.05-.14-.024-.149v-.152l.024-.145.05-.144.075-.129.093-.117.114-.102.129-.078.136-.055.149-.03.148-.009.153.02.14.043.137.07.121.086.102.11.086.124.062.137.035.145Zm0 0-.016-.152-.035-.145-.062-.136-.086-.126-.102-.109-.121-.086-.137-.07-.14-.043-.153-.02-.148.008-.149.031-.136.055-.13.078-.113.102-.093.117-.075.129-.05.144-.024.145v.152l.024.149.05.14.075.133.093.117.114.098.129.078.136.059.149.031.148.004.153-.02.14-.043.137-.066.121-.09.102-.11.086-.124.062-.137.035-.144Zm.11 0-.016.168-.043.164-.067.152-.097.141-.118.121-.132.102-.153.074-.16.05-.168.024-.172-.008-.164-.035-.156-.066-.145-.086-.125-.113-.109-.13-.082-.148-.055-.16-.027-.168v-.168l.027-.168.055-.156.082-.149.11-.132.124-.11.145-.09.156-.062.164-.035.172-.008.168.02.16.05.153.075.132.101.118.121.097.14.067.157.043.164Zm0 0-.016-.168-.043-.164-.067-.156-.097-.14-.118-.122-.132-.101-.153-.075-.16-.05-.168-.02-.172.008-.164.035-.156.062-.145.09-.125.11-.109.133-.082.148-.055.156-.027.168v.168l.027.168.055.16.082.149.11.129.124.113.145.086.156.066.164.035.172.008.168-.023.16-.051.153-.074.132-.102.118-.12.097-.142.067-.152.043-.164Zm.109 0-.016.188-.047.18-.078.171-.106.156-.128.133-.153.113-.168.086-.176.055-.187.024-.188-.008-.183-.04-.176-.07-.16-.097-.14-.125-.118-.149-.094-.164-.062-.176-.031-.183v-.188l.03-.187.063-.176.094-.164.117-.148.14-.122.161-.097.176-.07.183-.043.188-.008.187.027.176.055.168.082.153.113.128.137.106.152.078.172.047.184Zm0 0-.016-.187-.047-.184-.078-.172-.106-.152-.128-.137-.153-.113-.168-.082-.176-.055-.187-.027-.188.008-.183.043-.176.07-.16.097-.14.122-.118.148-.094.164-.062.176-.031.187v.188l.03.183.063.176.094.164.117.149.14.125.161.097.176.07.183.04.188.008.187-.024.176-.055.168-.085.153-.114.128-.133.106-.156.078-.172.047-.18Zm.113 0-.02.203-.05.203-.086.188-.118.172-.14.148-.168.121-.184.094-.199.063-.203.023-.207-.008-.203-.043-.192-.078-.175-.11-.153-.136-.133-.16-.097-.18-.07-.195-.036-.203v-.207l.035-.203.07-.196.098-.18.133-.16.153-.136.175-.11.192-.078.203-.043.207-.008.203.028.2.058.183.094.168.125.14.148.118.172.086.188.05.2Zm0 0-.02-.207-.05-.2-.086-.187-.118-.172-.14-.148-.168-.125-.184-.094-.199-.058-.203-.028-.207.008-.203.043-.192.078-.175.11-.153.136-.133.16-.097.18-.07.195-.036.204v.207l.035.203.07.195.098.18.133.16.153.137.175.109.192.078.203.043.207.008.203-.023.2-.063.183-.094.168-.12.14-.15.118-.171.086-.188.05-.203Zm.11 0-.02.223-.055.219-.094.207-.129.183-.152.164-.184.133-.199.102-.219.066-.222.031-.223-.012-.223-.046-.207-.086-.195-.117-.168-.149-.14-.176-.11-.195-.074-.215-.04-.219v-.226l.04-.223.074-.21.11-.2.14-.176.168-.148.195-.117.207-.086.223-.047.223-.008.222.027.22.067.198.101.184.133.152.164.13.188.093.203.055.219Zm0 0-.02-.226-.055-.22-.094-.202-.129-.188-.152-.164-.184-.133-.199-.101-.219-.067-.222-.027-.223.008-.223.047-.207.086-.195.117-.168.148-.14.176-.11.2-.074.21-.04.223v.226l.04.22.074.214.11.195.14.176.168.148.195.118.207.086.223.047.223.011.222-.031.22-.066.198-.102.184-.133.152-.164.13-.183.093-.207.055-.22Zm.109 0-.02.242-.062.235-.098.222-.137.203-.172.176-.195.145-.219.113-.234.07-.242.032-.242-.012-.239-.05-.226-.09-.207-.13-.184-.16-.156-.191-.117-.215-.082-.227-.04-.242v-.246l.04-.238.082-.23.117-.216.156-.187.184-.164.207-.125.226-.094.239-.05.242-.012.242.03.234.075.219.11.195.144.172.176.137.203.098.223.062.234Zm0 0-.02-.246-.062-.234-.098-.223-.137-.203-.172-.176L16 14.02l-.219-.11-.234-.074-.242-.031-.242.011-.239.051-.226.094-.207.125-.184.164-.156.188-.117.214-.082.23-.04.24v.245l.04.242.082.227.117.215.156.191.184.16.207.13.226.09.239.05.242.012.242-.032.234-.07.219-.113.195-.145.172-.176.137-.203.098-.222.062-.235Zm.113 0-.024.262-.066.254-.11.238-.144.219-.183.191-.211.156-.235.118-.254.078-.258.031-.265-.012-.254-.054-.246-.098-.223-.137-.199-.176-.164-.203-.129-.23-.086-.246-.047-.262v-.262l.047-.258.086-.25.129-.23.164-.203.2-.172.222-.14.246-.098.254-.055.265-.012.258.035.254.075.235.12.21.157.184.188.145.218.109.239.066.257Zm0 0-.024-.262-.066-.257-.11-.239-.144-.218-.183-.188-.211-.156-.235-.121-.254-.075-.258-.035-.265.012-.254.055-.246.097-.223.141-.199.172-.164.203-.129.23-.086.25-.047.258v.262l.047.262.086.246.129.23.164.203.2.176.222.137.246.098.254.054.265.012.258-.031.254-.078.235-.118.21-.156.184-.191.145-.219.109-.238.066-.254Zm.11 0-.024.281-.07.27-.118.258-.156.234-.195.203-.227.168-.254.125-.27.082-.277.04-.28-.016-.278-.059-.262-.105-.238-.145-.211-.187-.18-.22-.137-.245-.093-.266-.047-.277v-.282l.047-.277.093-.27.137-.242.18-.222.21-.184.24-.148.26-.106.278-.058.281-.012.278.035.27.082.253.129.227.164.195.207.156.23.117.258.07.274Zm0 0-.024-.281-.07-.274-.118-.257-.156-.23-.195-.208-.227-.164-.254-.129-.27-.082-.277-.035-.28.012-.278.058-.262.106-.238.148-.211.184-.18.222-.137.243-.093.27-.047.276v.282l.047.277.093.266.137.246.18.219.21.187.24.145.26.105.278.059.281.015.278-.039.27-.082.253-.125.227-.168.195-.203.156-.234.117-.258.07-.27Zm.109 0-.024.297-.078.293-.121.273-.168.25-.21.215-.24.18-.269.137-.289.086-.297.039-.3-.012-.293-.067-.278-.109-.258-.16-.226-.195-.188-.235-.148-.265-.098-.282-.05-.296v-.301l.05-.297.098-.281.148-.262.188-.234.226-.2.258-.156.278-.113.293-.063.3-.015.297.039.29.09.269.132.238.18.211.219.168.246.121.277.078.29Zm0 0-.024-.3-.078-.29-.121-.277-.168-.246-.21-.219-.24-.18-.269-.132-.289-.09-.297-.04-.3.016-.293.063-.278.113-.258.156-.226.2-.188.234-.148.262-.098.28-.05.298v.3l.05.297.098.282.148.265.188.235.226.195.258.16.278.11.293.066.3.012.297-.04.29-.085.269-.137.238-.18.211-.215.168-.25.121-.273.078-.293Zm.113 0-.027.316-.082.31-.13.292-.18.262-.222.23-.258.192-.285.144-.304.094-.317.039-.316-.012-.313-.07-.297-.117-.273-.168-.238-.211-.203-.246-.153-.281-.11-.301-.05-.313v-.32l.05-.316.11-.301.153-.278.203-.25.238-.21.273-.168.297-.118.313-.066.316-.016.317.043.304.09.285.145.258.191.223.23.18.266.129.29.082.308Zm0 0-.027-.32-.082-.309-.13-.289-.18-.265-.222-.231-.258-.191-.285-.145-.304-.09-.317-.043-.316.016-.313.066-.297.117-.273.168-.238.211-.203.25-.153.278-.11.3-.05.317v.32l.05.313.11.3.153.282.203.246.238.21.273.169.297.117.313.07.316.012.317-.04.304-.093.285-.144.258-.192.223-.23.18-.262.129-.293.082-.309Zm.11 0-.028.336-.086.328-.14.309-.188.277-.235.246-.273.2-.3.152-.325.101-.336.043-.336-.015-.332-.07-.312-.13-.29-.175-.253-.223-.211-.266-.164-.293-.114-.32-.058-.332v-.34l.058-.332.114-.32.164-.293.21-.262.255-.226.289-.176.312-.125.332-.074.336-.012.336.043.324.098.301.152.273.203.235.242.187.281.141.309.086.324Zm0 0-.028-.34-.086-.324-.14-.309-.188-.28-.235-.243-.273-.203-.3-.152-.325-.098-.336-.043-.336.012-.332.074-.312.125-.29.176-.253.226-.211.262-.164.293-.114.32-.058.332v.34l.058.332.114.32.164.293.21.266.255.223.289.175.312.13.332.07.336.015.336-.043.324-.101.301-.153.273-.199.235-.246.187-.277.141-.309.086-.328Zm.109 0-.028.356-.09.343-.148.325-.2.296-.245.258-.29.211-.316.16-.343.106-.352.047-.36-.016-.347-.074-.332-.133-.305-.187-.265-.239-.223-.277-.176-.309-.117-.34-.063-.351v-.356l.063-.351.117-.336.176-.313.223-.277.265-.234.305-.188.332-.133.348-.078.359-.015.351.046.344.106.317.16.289.211.246.258.199.297.148.324.09.348Zm0 0-.028-.355-.09-.348-.148-.324-.2-.297-.245-.258-.29-.21-.316-.161-.343-.105-.352-.047-.36.015-.347.078-.332.133-.305.188-.265.234-.223.277-.176.313-.117.336-.063.351v.356l.063.351.117.34.176.309.223.277.265.238.305.188.332.133.348.074.359.016.351-.047.344-.106.317-.16.289-.21.246-.259.199-.296.148-.325.09-.343Zm.113 0-.031.371-.098.367-.152.34-.211.313-.262.27-.3.222-.337.172-.36.11-.37.046-.375-.016-.367-.078-.348-.14-.32-.196-.285-.25-.235-.293-.183-.328-.125-.351-.063-.371v-.375l.063-.371.125-.356.183-.328.235-.293.285-.246.32-.2.348-.136.367-.082.375-.016.37.047.36.113.336.168.301.223.262.27.21.312.153.344.098.363Zm0 0-.031-.375-.098-.363-.152-.344-.211-.312-.262-.27-.3-.223-.337-.168-.36-.113-.37-.047-.375.016-.367.082-.348.137-.32.199-.285.246-.235.293-.183.328-.125.355-.063.372v.375l.063.37.125.352.183.328.235.293.285.25.32.196.348.14.367.078.375.016.37-.047.36-.11.336-.171.301-.223.262-.27.21-.312.153-.34.098-.367Zm.11 0-.032.39-.102.384-.16.359-.222.328-.274.285-.316.235-.352.175-.379.118-.39.046-.395-.015-.386-.082-.364-.149-.336-.207-.297-.258-.246-.308-.195-.344-.129-.371-.066-.39v-.395l.066-.387.129-.375.195-.344.246-.304.297-.262.336-.207.364-.148.386-.082.395-.016.39.05.38.114.35.18.317.234.274.285.222.324.16.36.102.383Zm0 0-.032-.394-.102-.383-.16-.36-.222-.324-.274-.285-.316-.234-.352-.18-.379-.113-.39-.051-.395.015-.386.083-.364.148-.336.207-.297.262-.246.304-.195.344-.129.375-.066.387v.394l.066.391.129.371.195.344.246.308.297.258.336.207.364.149.386.082.395.015.39-.046.38-.118.35-.175.317-.235.274-.285.222-.328.16-.36.102-.382Zm.109 0-.032.41-.105.399-.172.379-.23.34-.286.3-.332.246-.37.184-.395.121-.41.055-.41-.02-.407-.086-.383-.152-.351-.219-.313-.273-.257-.32-.204-.36-.136-.39-.07-.407v-.414l.07-.41.136-.387.204-.363.257-.32.313-.274.351-.215.383-.156.406-.086.41-.015.41.05.395.121.371.188.332.242.286.3.23.34.172.38.105.398Zm0 0-.032-.414-.105-.398-.172-.38-.23-.34-.286-.3-.332-.242-.37-.188-.395-.12-.41-.052-.41.016-.407.086-.383.156-.351.215-.313.274-.257.32-.204.363-.136.387-.07.41v.414l.07.406.136.391.204.36.257.32.313.273.351.219.383.152.406.086.41.02.41-.055.395-.121.371-.184.332-.246.286-.3.23-.34.172-.38.105-.398Zm.113 0-.04.43-.105.418-.18.394-.241.356-.297.312-.348.258-.387.195-.414.125-.43.055-.43-.02-.421-.09-.402-.16-.368-.226-.324-.285-.27-.336-.21-.379-.145-.406-.074-.426v-.434l.074-.425.145-.407.21-.375.27-.34.324-.285.368-.226.402-.16.422-.09.43-.02.43.055.413.129.387.191.348.258.297.313.242.359.18.39.105.418Zm0 0-.04-.434-.105-.417-.18-.391-.241-.36-.297-.312-.348-.258-.387-.191-.414-.13-.43-.054-.43.02-.421.09-.402.16-.368.226-.324.285-.27.34-.21.375-.145.407-.074.425v.434l.074.426.145.406.21.379.27.336.324.285.368.227.402.16.422.09.43.02.43-.056.413-.125.387-.195.348-.258.297-.312.242-.356.18-.394.105-.418Zm.11 0-.04.45-.113.433-.184.41-.253.375-.313.324-.36.27-.406.203-.43.133-.445.054-.453-.015-.437-.098-.422-.168-.383-.234-.336-.301-.285-.348-.219-.394-.152-.426-.074-.445v-.45l.074-.445.152-.426.219-.39.285-.352.336-.297.383-.238.422-.168.437-.094.453-.02.446.06.43.128.406.203.359.27.313.324.253.375.184.41.113.438Zm0 0-.04-.45-.113-.437-.184-.41-.253-.375L17 13.25l-.36-.27-.406-.203-.43-.129-.445-.058-.453.02-.437.093-.422.168-.383.238-.336.297-.285.352-.219.39-.152.426-.074.446v.449l.074.445.152.426.219.394.285.348.336.3.383.235.422.168.437.098.453.015.446-.054.43-.133.406-.203.359-.27.313-.324.253-.375.184-.41.113-.434Zm.113 0-.043.465-.118.457-.19.426-.267.39-.324.34-.379.278-.418.21-.449.141-.465.059-.468-.02-.461-.101-.434-.172-.402-.25-.352-.309-.293-.363-.23-.41-.157-.446-.078-.46v-.47l.078-.464.157-.442.23-.41.293-.367.352-.308.402-.247.434-.175.46-.098.47-.02.464.06.45.136.417.21.38.282.323.336.266.39.191.43.118.453Zm0 0-.043-.469-.118-.453-.19-.43-.267-.39-.324-.336-.379-.281-.418-.211-.449-.137-.465-.059-.468.02-.461.098-.434.175-.402.247-.352.308-.293.367-.23.41-.157.442-.078.465v.468l.078.461.157.446.23.41.293.363.352.309.402.25.434.172.46.101.47.02.464-.059.45-.14.417-.211.38-.278.323-.34.266-.39.191-.426.118-.457Zm.109 0-.043.484-.121.473-.203.445-.274.407-.336.351-.394.29-.434.222-.468.14-.485.063-.488-.02-.477-.105-.453-.18-.418-.257-.363-.32-.309-.384-.238-.425-.164-.461-.082-.48V15l.082-.48.164-.461.238-.426.309-.38.363-.323.418-.258.453-.18.477-.101.488-.024.485.063.468.144.434.219.394.289.336.355.274.403.203.445.121.473Zm0 0-.043-.488-.121-.473-.203-.445-.274-.402-.336-.356-.394-.289-.434-.219-.468-.144-.485-.063-.488.024-.477.101-.453.18-.418.258-.363.324-.309.379-.238.426-.164.46-.082.481v.488l.082.48.164.462.238.425.309.383.363.32.418.258.453.18.477.106.488.02.485-.063.468-.141.434-.223.394-.289.336-.351.274-.407.203-.445.121-.473Zm.11 0-.044.504-.125.492-.21.461-.286.422-.347.363-.41.301-.454.23-.484.149-.504.062-.504-.02-.496-.105-.473-.19-.43-.267-.382-.335-.316-.395-.25-.441-.168-.477-.086-.5v-.508l.086-.5.168-.48.25-.442.316-.394.383-.336.43-.266.472-.187.496-.11.504-.02.504.063.484.149.453.23.41.301.348.367.285.418.211.465.125.488Zm0 0-.044-.508-.125-.488-.21-.465-.286-.418-.347-.367-.41-.3-.454-.231-.484-.149-.504-.062-.504.02-.496.109-.473.187-.43.266-.382.336-.316.394-.25.442-.168.48-.086.5v.508l.086.5.168.477.25.441.316.395.383.335.43.266.472.191.496.106.504.02.504-.063.484-.148.453-.23.41-.302.348-.363.285-.422.211-.46.125-.493Zm.113 0-.047.524-.133.507-.215.48-.297.434-.363.383-.422.313-.469.234-.504.156-.523.067-.523-.024-.516-.11-.488-.198-.446-.274-.394-.347-.332-.41-.258-.458-.172-.496-.09-.52v-.527l.09-.515.172-.496.258-.461.332-.41.394-.348.446-.273.488-.196.516-.113.523-.02.523.067.504.152.47.238.421.313.363.379.297.437.215.477.133.512Zm0 0-.047-.523-.133-.512-.215-.477-.297-.437-.363-.379-.422-.313-.469-.238-.504-.152-.523-.067-.523.02-.516.113-.488.196-.446.273-.394.348-.332.41-.258.46-.172.497-.09.515v.528l.09.52.172.495.258.457.332.41.394.348.446.274.488.199.516.11.523.023.523-.067.504-.156.47-.234.421-.313.363-.383.297-.433.215-.48.133-.508Zm.109 0-.047.543-.137.527-.222.497-.309.449-.375.394-.437.324-.489.247-.52.156-.538.07-.547-.023-.531-.114-.504-.203-.465-.285-.41-.36-.34-.425-.266-.477-.183-.511-.09-.54v-.542l.09-.54.183-.511.266-.477.34-.422.41-.359.465-.285.504-.203.53-.117.548-.024.539.07.52.16.488.247.437.32.375.395.309.453.222.496.137.527Zm0 0-.047-.543-.137-.527-.222-.496-.309-.453-.375-.395-.437-.32-.489-.246-.52-.16-.538-.07-.547.023-.531.117-.504.203-.465.285-.41.36-.34.421-.266.477-.183.512-.09.539v.543l.09.539.183.511.266.477.34.426.41.36.465.284.504.203.53.114.548.023.539-.07.52-.156.488-.247.437-.324.375-.394.309-.45.222-.496.137-.527Zm.11 0-.047.559-.141.547-.234.511-.313.469-.39.406-.454.336-.504.254-.539.164-.558.07-.563-.023-.55-.117-.524-.211-.48-.297-.422-.371-.356-.438-.273-.492-.188-.531-.097-.555v-.562l.097-.559.188-.531.273-.492.356-.438.422-.37.48-.298.523-.21.551-.118.563-.023.558.07.54.164.503.254.453.336.391.406.313.469.234.512.14.547Zm0 0-.047-.562-.141-.547-.234-.512-.313-.469-.39-.406-.454-.336-.504-.254-.539-.164-.558-.07-.563.023-.55.117-.524.211-.48.297-.422.371-.356.438-.273.492-.188.531-.097.559v.562l.097.555.188.531.273.492.356.438.422.371.48.297.523.21.551.118.563.023.558-.07.54-.164.503-.254.453-.336.391-.406.313-.469.234-.511.14-.547Zm.113 0-.051.578-.149.563-.238.531-.324.484-.406.418-.465.348-.524.262-.554.172-.578.074-.582-.028-.57-.12-.54-.22-.496-.304-.437-.383-.364-.453-.285-.508-.195-.55-.098-.575v-.582l.098-.574.195-.547.285-.508.364-.453.437-.387.496-.304.54-.22.57-.12.582-.024.578.075.554.168.524.261.465.348.406.422.324.48.238.532.149.562Zm0 0-.051-.582-.149-.562-.238-.532-.324-.48-.406-.422-.465-.348-.524-.261-.554-.168-.578-.075-.582.024-.57.12-.54.22-.496.304-.437.387-.364.453-.285.508-.195.547-.098.574v.582l.098.574.195.551.285.508.364.453.437.383.496.305.54.218.57.121.582.028.578-.074.554-.172.524-.262.465-.348.406-.418.324-.484.238-.531.149-.563Zm.11 0-.052.598-.152.582-.246.547-.336.5-.418.433-.484.356-.536.27-.574.179-.597.074-.598-.023-.59-.13-.559-.222-.511-.316-.45-.399-.378-.465-.293-.527-.2-.566-.101-.59v-.602l.101-.593.2-.567.293-.523.379-.469.449-.398.511-.313.559-.227.59-.125.598-.027.597.078.574.176.536.27.484.359.418.434.336.496.246.547.152.582Zm0 0-.052-.601-.152-.582-.246-.547-.336-.496-.418-.434-.484-.36-.536-.269-.574-.176-.597-.078-.598.027-.59.125-.559.227-.511.313-.45.398-.378.469-.293.523-.2.567-.101.593v.602l.101.59.2.566.293.527.379.465.449.399.511.316.559.223.59.129.598.023.597-.074.574-.18.536-.27.484-.355.418-.433.336-.5.246-.547.152-.582Zm.108 0-.05.617-.157.598-.253.566-.348.512-.43.45-.5.366-.55.282-.594.18-.618.078-.617-.024-.605-.133-.574-.23-.532-.324-.465-.41-.386-.481-.305-.543-.207-.586-.102-.61v-.62l.102-.61.207-.586.305-.539.386-.484.465-.41.532-.325.574-.23.605-.129.617-.027.618.078.593.183.551.278.5.367.43.45.348.51.253.567.157.602Zm0 0-.05-.617-.157-.602-.253-.566-.348-.512-.43-.449-.5-.367-.55-.278-.594-.183-.618-.078-.617.027-.605.129-.574.23-.532.325-.465.41-.386.484-.305.54-.207.585-.102.61v.62l.102.61.207.586.305.543.386.48.465.41.532.325.574.23.605.133.617.024.618-.079.593-.18.551-.28.5-.368.43-.449.348-.512.253-.566.157-.598Zm.114 0-.055.637-.16.617-.266.582-.355.527-.442.461-.515.38-.57.288-.61.188-.633.082-.64-.028-.621-.136-.594-.239-.543-.332-.48-.421-.403-.5-.312-.555-.211-.602-.11-.633v-.636l.11-.63.21-.6.313-.56.402-.495.48-.422.544-.336.594-.238.62-.133.641-.028.633.079.61.187.57.29.515.378.442.46.355.532.266.582.16.617Zm0 0-.055-.637-.16-.617-.266-.582-.355-.531-.442-.461-.515-.379-.57-.289-.61-.187-.633-.079-.64.028-.621.133-.594.238-.543.336-.48.422-.403.496-.312.558-.211.602-.11.629v.636l.11.633.21.602.313.555.402.5.48.421.544.332.594.239.62.136.641.028.633-.082.61-.188.57-.289.515-.379.442-.46.355-.528.266-.582.16-.617Zm.11 0-.056.652-.168.637-.27.602-.366.543-.457.476-.528.39-.586.294-.628.195-.653.082-.656-.027-.645-.14-.609-.243-.559-.348-.496-.433-.41-.512-.32-.574-.219-.617-.113-.649v-.656l.113-.648.219-.622.32-.574.41-.511.496-.434.559-.344.61-.246.644-.14.656-.028.652.086.63.191.585.297.528.39.457.474.367.546.27.598.167.637Zm0 0-.056-.656-.168-.637-.27-.598-.366-.546-.457-.473-.528-.39-.586-.298-.628-.191-.653-.086-.656.027-.645.141-.609.246-.559.344-.496.434-.41.511-.32.574-.219.622-.113.648v.656l.113.649.219.617.32.574.41.512.496.433.559.348.61.242.644.14.656.028.652-.082.63-.195.585-.293.528-.39.457-.477.367-.543.27-.602.167-.637Zm.108 0-.054.672-.172.656-.277.613-.38.563-.468.488-.543.403-.606.304-.644.196-.672.086-.676-.028-.66-.14-.629-.254-.574-.356-.508-.445-.426-.527-.328-.59-.226-.637-.114-.668v-.676l.114-.668.226-.636.328-.59.426-.528.508-.445.574-.355.63-.25.66-.145.675-.027.672.086.644.199.606.305.543.402.469.484.379.563.277.617.172.652Zm0 0-.054-.676-.172-.652-.277-.617-.38-.563-.468-.484-.543-.402-.606-.305-.644-.2-.672-.085-.676.027-.66.145-.629.25-.574.355-.508.445-.426.528-.328.59-.226.636-.114.668v.676l.114.668.226.637.328.59.426.527.508.445.574.356.63.254.66.14.675.028.672-.086.644-.196.606-.304.543-.403.469-.488.379-.562.277-.614.172-.656Zm.114 0-.059.691-.176.672-.285.633-.39.578-.48.5-.56.414-.62.313-.665.203-.691.09-.691-.031-.68-.145-.645-.262-.593-.363-.524-.46-.433-.54-.34-.605-.23-.657-.118-.683v-.696l.117-.687.23-.652.34-.61.434-.539.524-.46.593-.364.645-.258.68-.148.691-.028.691.086.664.203.622.313.558.414.48.504.391.574.285.633.176.672Zm0 0-.059-.695-.176-.672-.285-.633-.39-.574-.48-.504-.56-.414-.62-.313-.665-.203-.691-.086-.691.028-.68.148-.645.258-.593.363-.524.461-.433.54-.34.609-.23.652-.118.687v.696l.117.683.23.657.34.605.434.54.524.46.593.363.645.262.68.145.691.03.691-.089.664-.203.622-.313.558-.414.48-.5.391-.578.285-.633.176-.672Zm.11 0-.06.711-.18.691-.296.649-.398.59-.493.515-.574.426-.64.32-.68.211-.707.09-.715-.031-.7-.148-.66-.266-.609-.375-.535-.473-.45-.554-.347-.625-.238-.672-.121-.703v-.715l.12-.703.24-.672.347-.625.449-.555.535-.473.61-.37.66-.266.699-.153.715-.03.707.093.68.207.64.32.574.426.493.516.398.59.297.652.18.691Zm0 0-.06-.71-.18-.692-.296-.653-.398-.59-.493-.515-.574-.426-.64-.32-.68-.207-.707-.094-.715.031-.7.153-.66.265-.609.371-.535.473-.45.555-.347.625-.238.672-.121.703v.715l.12.703.24.672.347.625.449.554.535.473.61.375.66.266.699.148.715.031.707-.09.68-.21.64-.32.574-.427.493-.515.398-.59.297-.649.18-.691Zm.108 0-.058.73-.188.708-.3.668-.41.605-.508.531-.59.434-.653.332-.699.215-.726.09-.735-.032-.715-.152-.68-.273-.624-.383-.547-.485-.461-.57-.36-.64-.242-.692-.125-.723v-.73l.125-.723.243-.691.359-.637.46-.57.548-.485.625-.386.68-.274.714-.152.735-.031.726.093.7.215.652.328.59.438.507.527.41.606.301.668.188.71Zm0 0-.058-.73-.188-.711-.3-.668-.41-.606-.508-.527-.59-.438-.653-.328-.699-.215-.726-.093-.735.03-.715.153-.68.274-.624.386-.547.485-.461.57-.36.637-.242.691-.125.723v.73l.125.723.243.691.359.641.46.57.548.485.625.383.68.273.714.152.735.032.726-.09.7-.215.652-.332.59-.434.507-.531.41-.605.301-.668.188-.707Zm.114 0-.067.746-.187.727-.309.687-.422.621-.52.543-.605.446-.668.34-.718.218-.746.098-.75-.035-.735-.157-.699-.28-.64-.395-.563-.496-.473-.582-.367-.657-.25-.71-.125-.739v-.754l.125-.738.25-.707.367-.656.473-.586.562-.496.641-.395.7-.281.734-.156.75-.032.746.094.718.219.668.34.606.445.52.543.421.625.309.684.187.726Zm0 0-.067-.75-.187-.726-.309-.684-.422-.625-.52-.543-.605-.445-.668-.34-.718-.219-.746-.094-.75.032-.735.156-.699.281-.64.395-.563.496-.473.586-.367.656-.25.707-.125.738v.754l.125.738.25.711.367.657.473.582.562.496.641.394.7.281.734.157.75.035.746-.098.718-.219.668-.34.606-.445.52-.543.421-.62.309-.688.187-.727Zm.11 0-.067.766-.192.746-.316.703-.434.637-.53.554-.622.457-.687.348-.735.227-.765.097-.77-.031-.754-.164-.715-.285-.652-.406-.578-.508-.485-.598-.375-.676-.257-.722-.13-.762v-.77l.13-.757.257-.727.375-.672.485-.601.578-.508.652-.403.715-.289.754-.16.77-.035.765.098.735.226.687.348.621.457.531.555.434.64.316.7.192.746Zm0 0-.067-.77-.192-.746-.316-.699-.434-.64-.53-.555-.622-.457-.687-.348-.735-.226-.765-.098-.77.035-.754.16-.715.29-.652.402-.578.508-.485.601-.375.672-.257.727-.13.757v.77l.13.762.257.722.375.676.485.598.578.508.652.406.715.285.754.164.77.031.765-.097.735-.227.687-.348.621-.457.531-.554.434-.637.316-.703.192-.746Zm.109 0-.067.785-.2.762-.323.719-.442.656-.547.566-.632.473-.704.355-.753.231-.786.098-.785-.032-.773-.168-.73-.293-.673-.414-.593-.52-.496-.616-.383-.688-.266-.742-.133-.777v-.79l.133-.777.266-.746.383-.687.496-.614.593-.523.672-.414.73-.293.774-.164.785-.035.786.101.753.23.704.356.632.469.547.57.442.653.324.718.2.762Zm0 0-.067-.789-.2-.762-.323-.718-.442-.653-.547-.57-.632-.469-.704-.355-.753-.23-.786-.102-.785.035-.773.164-.73.293-.673.414-.593.523-.496.614-.383.687-.266.746-.133.778v.789l.133.777.266.742.383.688.496.617.593.52.672.413.73.293.774.168.785.032.786-.098.753-.23.704-.356.632-.473.547-.566.442-.656.324-.719.2-.762Zm.113 0-.07.805-.204.781-.332.734-.453.668-.558.586-.649.48-.722.364-.77.234-.8.106-.81-.035-.788-.172-.75-.3-.688-.423-.605-.535-.508-.629-.395-.703-.27-.762-.136-.797v-.808l.137-.797.27-.758.394-.707.508-.629.605-.531.688-.426.75-.3.789-.172.808-.032.801.102.77.234.722.367.649.48.558.583.453.668.332.738.203.781Zm0 0-.07-.805-.204-.78-.332-.74-.453-.667-.558-.582-.649-.48-.722-.368-.77-.234-.8-.102-.81.032-.788.171-.75.301-.688.426-.605.531-.508.63-.395.706-.27.758-.136.797v.808l.137.797.27.762.394.703.508.63.605.534.688.422.75.3.789.173.808.035.801-.106.77-.234.722-.363.649-.48.558-.587.453-.668.332-.734.203-.781Zm.11 0-.071.82-.207.801-.34.754-.465.684-.57.597-.664.493-.738.37-.79.243-.82.105-.828-.035-.805-.176-.77-.304-.702-.434-.621-.547-.52-.644-.402-.723-.274-.777-.14-.817v-.824l.14-.816.274-.778.402-.722.52-.641.62-.547.704-.433.77-.31.804-.175.828-.035.82.105.79.243.738.37.664.493.57.598.465.683.34.754.207.8Zm0 0-.071-.824-.207-.8-.34-.755-.465-.683-.57-.598-.664-.492-.738-.371-.79-.243-.82-.105-.828.035-.805.176-.77.309-.702.433-.621.547-.52.64-.402.723-.274.778-.14.816v.824l.14.817.274.777.402.723.52.644.62.547.704.434.77.304.804.176.828.035.82-.105.79-.242.738-.371.664-.493.57-.597.465-.684.34-.754.207-.8Zm.112 0-.074.84-.21.82-.348.77-.477.699-.582.61-.68.503-.757.38-.805.25-.84.105-.844-.035-.828-.176-.785-.317-.719-.445-.633-.559-.53-.656-.415-.738-.281-.797-.14-.832v-.848l.14-.832.281-.797.414-.738.531-.656.633-.559.719-.445.785-.313.828-.18.844-.034.84.109.805.246.757.379.68.504.582.61.477.698.347.774.211.816Zm0 0-.074-.844-.21-.816-.348-.774-.477-.699-.582-.61-.68-.503-.757-.379-.805-.246-.84-.11-.844.036-.828.18-.785.312-.719.445-.633.559-.53.656-.415.738-.281.797-.14.832v.848l.14.832.281.797.414.738.531.656.633.559.719.445.785.317.828.175.844.036.84-.106.805-.25.757-.379.68-.504.582-.609.477-.7.347-.769.211-.82Zm.11 0-.074.86-.22.835-.355.79-.484.714-.598.625-.691.512-.773.39-.825.255-.86.109-.862-.04-.844-.179-.8-.324-.74-.453-.648-.57-.543-.672-.421-.754-.286-.817-.148-.851v-.864l.148-.851.286-.816.421-.754.543-.672.649-.57.738-.454.8-.32.845-.184.863-.035.86.11.824.254.773.386.691.516.598.621.484.719.356.785.219.836Zm0 0-.074-.863-.22-.836-.355-.785-.484-.719-.598-.621-.691-.516-.773-.386-.825-.254-.86-.11-.862.035-.844.184-.8.32-.74.453-.648.57-.543.673-.421.754-.286.816-.148.851v.864l.148.851.286.817.421.754.543.672.649.57.738.453.8.324.845.18.863.039.86-.11.824-.253.773-.391.691-.512.598-.625.484-.715.356-.789.219-.836Zm.11 0-.075.879-.223.855-.363.801-.496.735-.61.636-.71.524-.785.398-.844.258-.88.113-.878-.039-.863-.183-.82-.332-.755-.461-.66-.582-.554-.688-.43-.77-.297-.835-.148-.867v-.883l.148-.871.297-.832.43-.77.554-.687.66-.586.754-.461.82-.328.864-.188.879-.039.879.113.843.258.786.399.71.523.61.64.496.731.363.805.223.851Zm0 0-.075-.883-.223-.851-.363-.805-.496-.73-.61-.641-.71-.524-.785-.398-.844-.258-.88-.113-.878.039-.863.188-.82.328-.755.46-.66.587-.554.687-.43.77-.297.832-.148.87v.883l.148.868.297.836.43.77.554.687.66.582.754.46.82.333.864.183.879.04.879-.114.843-.258.786-.398.71-.524.61-.636.496-.735.363-.8.223-.856Zm.113 0-.079.899-.226.87-.371.82-.504.75-.625.65-.727.535-.804.406-.864.265-.89.114-.903-.04-.883-.187-.835-.336-.766-.472-.68-.598-.566-.7-.438-.788-.3-.848-.153-.89v-.903l.153-.887.3-.851.438-.785.566-.704.68-.593.766-.473.835-.34.883-.187.903-.04.89.114.864.265.804.407.727.535.625.652.504.746.37.82.227.876Zm0 0-.079-.898-.226-.875-.371-.82-.504-.747-.625-.652-.727-.535-.804-.406-.864-.266-.89-.113-.903.039-.883.187-.835.34-.766.473-.68.593-.566.704-.438.785-.3.851-.153.887v.902l.153.89.3.849.438.789.566.699.68.598.766.472.835.336.883.188.903.039.89-.114.864-.265.804-.406.727-.536.625-.648.504-.75.37-.82.227-.871Zm.109 0-.078.914-.23.89-.38.84-.515.762-.637.664-.742.551-.82.414-.883.27-.91.117-.922-.04-.899-.194-.855-.344-.781-.48-.692-.61-.578-.715-.45-.805-.308-.867-.152-.91v-.918l.152-.906.309-.871.449-.801.578-.719.692-.605.78-.485.856-.343.899-.192.922-.039.91.117.883.27.82.414.742.547.637.664.515.762.38.84.23.89Zm0 0-.078-.918-.23-.89-.38-.84-.515-.762-.637-.664-.742-.547-.82-.414-.883-.27-.91-.117-.922.04-.899.19-.855.344-.781.485-.692.605-.578.719-.45.8-.308.872-.152.906v.918l.152.91.309.867.449.805.578.715.692.61.78.48.856.344.899.195.922.039.91-.117.883-.27.82-.414.742-.55.637-.665.515-.761.38-.84.23-.89Zm.11 0-.079.934-.238.91-.387.855-.523.778-.653.68-.754.558-.84.422-.898.273-.93.121-.937-.039-.918-.199-.871-.352-.8-.492-.708-.62-.59-.731-.457-.817-.312-.886-.16-.926v-.942l.16-.925.312-.883.457-.82.59-.73.707-.622.8-.492.872-.352.918-.195.937-.043.93.121.899.273.84.426.753.559.653.676.523.777.387.855.238.91Zm0 0-.079-.937-.238-.91-.387-.856-.523-.777-.653-.676-.754-.559-.84-.426-.898-.273-.93-.121-.937.043-.918.195-.871.352-.8.492-.708.621-.59.73-.457.82-.312.884-.16.925v.942l.16.926.312.886.457.817.59.73.707.621.8.492.872.352.918.2.937.038.93-.12.899-.274.84-.422.753-.559.653-.68.523-.777.387-.855.238-.91Zm.113 0-.082.953-.243.926-.394.875-.535.793-.664.691-.77.57-.855.43-.918.282-.95.12-.957-.038-.937-.203-.887-.356-.816-.504-.719-.633-.602-.746-.468-.836-.317-.902-.164-.945v-.957l.164-.946.317-.902.468-.836.602-.746.719-.633.816-.5.887-.36.937-.202.957-.04.95.122.918.28.855.43.77.57.664.692.535.797.394.871.242.926Zm0 0-.082-.957-.243-.926-.394-.87-.535-.798-.664-.691-.77-.57-.855-.43-.918-.281-.95-.121-.957.039-.937.203-.887.36-.816.5-.719.632-.602.746-.468.836-.317.902-.164.946v.957l.164.945.317.902.468.836.602.746.719.633.816.504.887.356.937.203.957.039.95-.121.918-.282.855-.43.77-.57.664-.691.535-.793.394-.875.242-.926Zm.109 0-.082.973-.246.945-.403.89-.546.81-.676.702-.785.582-.875.442-.934.285-.969.125-.972-.043-.957-.207-.907-.363-.832-.512-.734-.645-.613-.761-.477-.852-.324-.922-.164-.96v-.977l.164-.965.324-.922.477-.851.613-.758.734-.649.832-.511.907-.364.957-.207.972-.039.969.125.934.285.875.438.785.582.676.707.546.809.403.89.246.945Zm0 0-.082-.973-.246-.945-.403-.89-.546-.81-.676-.706-.785-.582-.875-.438-.934-.285-.969-.125-.972.04-.957.206-.907.364-.832.511-.734.649-.613.758-.477.851-.324.922-.164.965v.976l.164.961.324.922.477.852.613.761.734.645.832.512.907.363.957.207.972.043.969-.125.934-.285.875-.442.785-.582.676-.703.546-.808.403-.89.246-.946Zm.11 0-.083.992-.25.961-.41.906-.558.829-.692.718-.797.59-.89.45-.954.288-.984.13-.996-.044-.973-.21-.925-.372-.848-.52-.746-.66-.625-.773-.485-.867-.332-.941-.168-.98v-.997l.168-.98.332-.938.485-.871.625-.773.746-.657.848-.523.925-.371.973-.211.996-.043.984.129.954.289.89.45.797.593.692.719.558.824.41.906.25.965Zm0 0-.083-.992-.25-.965-.41-.906-.558-.824-.692-.72-.797-.593-.89-.45-.954-.288-.984-.13-.996.044-.973.21-.925.372-.848.523-.746.657-.625.773-.485.871-.332.938-.168.98v.996l.168.98.332.942.485.867.625.774.746.66.848.52.925.37.973.211.996.043.984-.129.954-.289.89-.449.797-.59.692-.718.558-.829.41-.906.25-.96Zm.113 0-.086 1.008-.258.984-.418.922-.567.84-.703.734-.816.602-.902.457-.973.297-1.004.129-1.016-.043-.992-.215-.937-.375-.867-.531-.758-.672-.64-.79-.493-.886-.34-.957-.172-1v-1.012l.172-1 .34-.957.492-.886.64-.79.758-.668.868-.53.937-.38.992-.214L15.5 9.27l1.004.128.973.297.902.457.816.602.703.734.567.84.418.926.258.98Zm0 0-.086-1.012-.258-.98-.418-.926-.567-.84-.703-.734-.816-.602-.902-.457-.973-.297L15.5 9.27l-1.016.043-.992.214-.937.38-.867.53-.758.668-.64.79-.493.886-.34.957-.172 1v1.012l.172 1 .34.957.492.887.64.789.758.672.868.53.937.376.992.215 1.016.043 1.004-.13.973-.296.902-.457.816-.602.703-.734.567-.84.418-.922.258-.984Zm.109 0-.086 1.027-.262 1-.425.942-.579.855-.714.746-.832.614-.922.465-.989.304-1.023.133-1.031-.047-1.012-.215-.957-.386-.879-.543-.777-.68-.649-.805-.504-.902-.343-.973-.176-1.02v-1.034l.176-1.016.343-.977.504-.898.649-.805.777-.683.879-.543.957-.383 1.012-.219 1.03-.043 1.024.13.989.304.922.465.832.613.714.746.578.855.426.942.262 1Zm0 0-.086-1.031-.262-1-.425-.942-.579-.855-.714-.746-.832-.613-.922-.465-.989-.305-1.023-.129-1.031.043-1.012.219-.957.383-.879.543-.777.683-.649.805-.504.898-.343.977-.176 1.016v1.035l.176 1.02.343.972.504.902.649.805.777.68.879.543.957.386 1.012.215 1.03.047 1.024-.133.989-.304.922-.465.832-.614.714-.746.578-.855.426-.942.262-1Zm.11 0-.087 1.047-.265 1.02-.434.957-.59.87-.726.758-.848.63-.937.472-1.008.309-1.043.132-1.051-.046-1.027-.22-.977-.394-.894-.55-.79-.696-.664-.816-.511-.918-.352-.992-.176-1.04v-1.05l.176-1.035.352-.993.511-.918.665-.82.789-.695.894-.551.977-.39 1.027-.223 1.05-.047 1.044.137 1.008.308.937.473.848.625.726.758.59.87.434.962.265 1.015Zm0 0-.087-1.05-.265-1.016-.434-.961-.59-.871-.726-.758-.848-.625-.937-.473-1.008-.308-1.043-.137-1.051.047-1.027.222-.977.391-.894.55-.79.696-.664.82-.511.918-.352.993-.176 1.035v1.05l.176 1.04.352.992.511.918.665.816.789.695.894.551.977.395 1.027.219 1.05.046 1.044-.132L17.559 21l.937-.473.848-.629.726-.757.59-.871.434-.957.265-1.02Zm.113 0-.09 1.066-.274 1.036-.437.976-.602.887-.742.773-.86.637-.956.48-1.024.313-1.062.137-1.067-.043-1.047-.227-.996-.398-.91-.563-.805-.707-.671-.832-.524-.937-.355-1.008-.18-1.055v-1.07l.18-1.059.355-1.007.524-.934.672-.832.804-.711.91-.559.996-.398 1.047-.227 1.067-.046 1.062.136 1.024.313.957.484.86.637.741.77.602.89.437.973.274 1.039Zm0 0-.09-1.066-.274-1.04-.437-.972-.602-.89-.742-.77-.86-.637-.956-.484-1.024-.313-1.062-.136-1.067.046-1.047.227-.996.398-.91.559-.805.71-.671.833-.524.934-.355 1.007-.18 1.059v1.07l.18 1.055.355 1.008.524.937.672.832.804.707.91.563.996.398 1.047.227 1.067.043 1.062-.137 1.024-.312.957-.48.86-.638.741-.773.602-.887.437-.976.274-1.035Zm.109 0-.094 1.086-.273 1.05-.45.997-.609.902-.754.785-.875.649-.972.488-1.043.32-1.078.137-1.09-.043-1.067-.23-1.008-.407-.93-.57-.816-.723-.687-.847-.531-.95-.36-1.027-.187-1.074V14.7l.187-1.074.36-1.027.53-.95.688-.847.817-.719.93-.574 1.007-.406 1.067-.227 1.09-.047 1.078.137 1.043.32.972.488.875.649.754.789.61.902.449.992.273 1.055Zm0 0-.094-1.086-.273-1.055-.45-.992-.609-.902-.754-.79-.875-.648-.972-.488-1.043-.32-1.078-.137-1.09.047-1.067.227-1.008.406-.93.574-.816.719-.687.847-.531.95-.36 1.027-.187 1.074v1.09l.187 1.074.36 1.028.53.949.688.848.817.722.93.57 1.007.407 1.067.23 1.09.043 1.078-.137 1.043-.32.972-.488.875-.649.754-.785.61-.902.449-.996.273-1.051Zm.11 0-.094 1.102-.278 1.074-.457 1.008-.62.918-.767.8-.89.66-.992.5-1.059.325-1.098.14-1.109-.046-1.082-.235-1.027-.414-.946-.582-.832-.73-.695-.864-.539-.965-.371-1.046-.188-1.09v-1.11l.188-1.093.371-1.043.539-.97.695-.862.832-.73.946-.583 1.027-.414 1.082-.23 1.11-.051 1.097.144 1.059.325.992.496.89.66.766.8.621.919.457 1.007.278 1.075Zm0 0-.094-1.105-.278-1.075-.457-1.007-.62-.918-.767-.801-.89-.66-.992-.496-1.059-.325-1.098-.144-1.109.05-1.082.231-1.027.414-.946.582-.832.73-.695.864-.539.969-.371 1.043-.188 1.093v1.11l.188 1.09.371 1.047.539.964.695.864.832.73.946.582 1.027.414 1.082.235 1.11.046 1.097-.14 1.059-.324.992-.5.89-.66.766-.801.621-.918.457-1.008.278-1.074Zm.113 0-.098 1.121-.281 1.09-.465 1.027-.633.934-.777.816-.907.668-1.007.508-1.078.328-1.118.145-1.125-.047-1.101-.238-1.047-.418-.961-.594-.844-.742-.71-.88-.548-.984-.375-1.062-.191-1.11V14.68l.191-1.11.375-1.062.547-.985.711-.875.844-.746.96-.59 1.048-.421 1.101-.239 1.125-.047 1.118.145 1.078.328 1.007.508.907.672.777.812.633.934.465 1.027.281 1.09Zm0 0-.098-1.125-.281-1.09-.465-1.027-.633-.934-.777-.812-.907-.672-1.007-.508-1.078-.328-1.118-.145-1.125.047-1.101.239-1.047.422-.961.59-.844.745-.71.875-.548.985-.375 1.062-.191 1.11v1.129l.191 1.109.375 1.062.547.985.711.879.844.742.96.594 1.048.418 1.101.238 1.125.047 1.118-.145 1.078-.328 1.007-.508.907-.668.777-.816.633-.934.465-1.027.281-1.09Zm.109 0-.098 1.14-.289 1.11-.468 1.043-.645.95-.793.827-.918.68-1.023.516-1.098.336-1.137.144-1.144-.047-1.121-.242-1.063-.426-.976-.601-.86-.758-.719-.89-.558-1-.383-1.083-.191-1.129v-1.144l.191-1.129.383-1.082.558-1 .72-.89.859-.758.976-.602 1.063-.426 1.12-.242 1.145-.047 1.137.145 1.098.336 1.023.515.918.68.793.828.645.95.468 1.046.29 1.106Zm0 0-.098-1.144-.289-1.106-.468-1.047L20.5 11l-.793-.828-.918-.68-1.023-.515-1.098-.336-1.137-.145-1.144.047-1.121.242-1.063.426-.976.601-.86.758-.719.89-.558 1-.383 1.083-.191 1.129v1.144l.191 1.13.383 1.081.558 1 .72.891.859.758.976.601 1.063.426 1.12.242 1.145.047 1.137-.144 1.098-.336 1.023-.516.918-.68.793-.828.645-.949.468-1.043.29-1.11Zm.113 0-.101 1.16-.293 1.125-.48 1.063-.653.965-.805.84-.937.69-1.04.528-1.113.34-1.156.148-1.16-.05-1.14-.246-1.083-.434-.988-.61-.875-.769-.734-.906-.567-1.016-.386-1.097-.2-1.149v-1.164l.2-1.148.386-1.098.567-1.02.734-.906.875-.77.988-.609 1.082-.433 1.141-.246 1.16-.047 1.156.144 1.114.344 1.039.523.937.692.805.84.652.965.48 1.062.294 1.129Zm0 0-.101-1.16-.293-1.129-.48-1.062-.653-.965-.805-.84-.937-.692-1.04-.523-1.113-.344-1.156-.144-1.16.047-1.14.246-1.083.433-.988.61-.875.77-.734.905-.567 1.02-.386 1.098-.2 1.148v1.164l.2 1.149.386 1.097.567 1.016.734.906.875.77.988.609 1.082.434 1.141.246 1.16.05 1.156-.148 1.114-.34 1.039-.527.937-.692.805-.84.652-.964.48-1.063.294-1.125Zm.11 0-.102 1.18-.297 1.144-.488 1.078-.664.98-.817.852-.953.707-1.054.532-1.133.347-1.172.149-1.184-.05-1.156-.25-1.098-.442-1.007-.618-.891-.78-.742-.923-.578-1.035-.395-1.113-.199-1.168v-1.184l.2-1.164.394-1.117.578-1.035.742-.918.89-.781 1.008-.621 1.098-.442 1.156-.25 1.184-.05 1.172.152 1.133.344 1.054.535.953.703.817.855.664.98.488 1.079.297 1.144Zm0 0-.102-1.18-.297-1.144-.488-1.078-.664-.98-.817-.856-.953-.703-1.054-.535-1.133-.344-1.172-.153-1.184.051-1.156.25-1.098.442-1.007.62-.891.782-.742.918-.578 1.035-.395 1.117-.199 1.164v1.184l.2 1.168.394 1.113.578 1.035.742.922.89.781 1.008.618 1.098.441 1.156.25 1.184.05 1.172-.148 1.133-.347 1.054-.532.953-.707.817-.851.664-.98.488-1.079.297-1.144Zm.109 0-.102 1.195-.3 1.164-.496 1.098-.676.996-.828.867-.97.715-1.073.54-1.149.35-1.191.153-1.203-.05-1.176-.25-1.113-.45-1.024-.633-.902-.793-.754-.933-.59-1.05-.398-1.134-.203-1.183v-1.203l.203-1.188.398-1.133.59-1.047.754-.937.902-.793 1.024-.629 1.113-.45 1.176-.253 1.203-.05 1.191.151 1.149.352 1.074.543.969.715.828.867.676.996.496 1.094.3 1.164Zm0 0-.102-1.2-.3-1.163-.496-1.094-.676-.996-.828-.867-.97-.715-1.073-.543-1.149-.352-1.191-.152-1.203.05-1.176.255-1.113.449-1.024.629-.902.793-.754.937-.59 1.047-.398 1.133-.203 1.188v1.203l.203 1.183.398 1.133.59 1.05.754.934.902.793 1.024.633 1.113.45 1.176.25 1.203.05 1.191-.152 1.149-.352 1.074-.539.969-.715.828-.867.676-.996.496-1.098.3-1.164Zm.113 0-.105 1.215-.309 1.184-.5 1.109-.683 1.012-.848.882-.98.727-1.09.55-1.168.356-1.211.157-1.219-.051-1.195-.258-1.133-.457-1.04-.64-.917-.805-.766-.95-.594-1.066-.41-1.152-.203-1.204v-1.222l.203-1.203.41-1.149.594-1.066.766-.95.918-.808 1.039-.64 1.133-.454 1.195-.258 1.219-.05 1.21.152 1.169.36 1.09.546.98.727.848.883.683 1.011.5 1.114.309 1.18Zm0 0-.105-1.219-.309-1.18-.5-1.113-.683-1.011L20 9.84l-.98-.727-1.09-.547-1.168-.359-1.211-.152-1.219.05-1.195.258-1.133.453-1.04.641-.917.809-.766.949-.594 1.066-.41 1.149-.203 1.203v1.222l.203 1.204.41 1.152.594 1.066.766.95.918.804 1.039.64 1.133.458 1.195.258 1.219.05 1.21-.156 1.169-.355 1.09-.551.98-.727.848-.882.683-1.012.5-1.11.309-1.183Zm.11 0-.106 1.234-.312 1.2-.512 1.129-.691 1.027-.86.894-.996.739-1.11.558-1.183.364-1.23.156-1.239-.05-1.21-.263-1.153-.464-1.055-.649-.93-.82-.777-.965-.605-1.082-.414-1.168-.211-1.223v-1.238l.21-1.223.415-1.168.605-1.082.778-.964.93-.82 1.054-.65 1.152-.46 1.211-.262 1.239-.055 1.23.16 1.184.36 1.11.559.995.738.86.894.691 1.028.512 1.129.312 1.199Zm0 0-.106-1.238-.312-1.2-.512-1.128-.691-1.028-.86-.894-.996-.738-1.11-.56-1.183-.358-1.23-.16-1.239.054-1.21.262-1.153.46-1.055.65-.93.82-.777.964-.605 1.082-.414 1.168-.211 1.223v1.238l.21 1.223.415 1.168.605 1.082.778.965.93.82 1.054.649 1.152.464 1.211.262 1.239.05 1.23-.155 1.184-.364 1.11-.558.995-.739.86-.894.691-1.027.512-1.13.312-1.199Zm.11 0-.106 1.254-.317 1.215-.52 1.148-.702 1.043-.872.91-1.011.747-1.125.566-1.203.367-1.25.16-1.254-.05-1.23-.266-1.169-.469-1.074-.66-.945-.832-.79-.98-.613-1.098-.418-1.188-.214-1.238v-1.258l.214-1.242.418-1.187.614-1.098.789-.98.945-.833 1.074-.656 1.168-.473 1.23-.261 1.255-.055 1.25.16 1.203.367 1.125.567 1.011.75.872.906.703 1.043.52 1.148.316 1.22Zm0 0-.106-1.254-.317-1.219-.52-1.148-.702-1.043-.872-.906-1.011-.75-1.125-.567-1.203-.367-1.25-.16-1.254.055-1.23.261-1.169.473-1.074.656-.945.832-.79.98-.613 1.098-.418 1.188-.214 1.242v1.258l.214 1.238.418 1.188.614 1.097.789.98.945.833 1.074.66 1.168.469 1.23.265 1.255.051 1.25-.16 1.203-.367 1.125-.567 1.011-.746.872-.91.703-1.043.52-1.148.316-1.215Zm.112 0-.109 1.27-.324 1.238-.524 1.164-.715 1.059-.886.921-1.024.758-1.14.574-1.223.375-1.266.165-1.277-.055-1.25-.27-1.184-.476-1.09-.668-.956-.844-.801-.996-.625-1.113-.426-1.207-.215-1.258v-1.278l.215-1.257.426-1.203.625-1.118.8-.992.958-.844 1.09-.671 1.183-.477 1.25-.27 1.277-.05 1.266.16 1.223.375 1.14.574 1.024.758.886.926.715 1.054.524 1.164.324 1.239Zm0 0-.109-1.273-.324-1.239-.524-1.164-.715-1.054-.886-.926-1.024-.758-1.14-.574-1.223-.375-1.266-.16-1.277.05-1.25.27-1.184.477-1.09.671-.956.844-.801.992-.625 1.118-.426 1.203-.215 1.257v1.278l.215 1.258.426 1.207.625 1.113.8.996.958.844 1.09.668 1.183.476 1.25.27 1.277.055 1.266-.165 1.223-.375 1.14-.574 1.024-.758.886-.921.715-1.059.524-1.164.324-1.238Zm.11 0-.11 1.29-.328 1.253-.531 1.184-.727 1.074-.898.933-1.043.77-1.156.586-1.239.379-1.285.164-1.297-.055-1.265-.273-1.203-.485-1.102-.68-.973-.855-.816-1.008-.633-1.132-.43-1.22-.218-1.276v-1.297l.219-1.278.43-1.222.632-1.133.816-1.008.973-.855 1.102-.68 1.203-.485 1.265-.273 1.297-.055 1.285.164 1.239.383 1.156.582 1.043.77.898.937.727 1.075.531 1.18.328 1.253Zm0 0-.11-1.293-.328-1.254-.531-1.18-.727-1.074-.898-.937-1.043-.77-1.156-.582-1.239-.383-1.285-.164-1.297.055-1.265.274-1.203.484-1.102.68-.973.855-.816 1.008-.633 1.133-.43 1.222-.218 1.278v1.297l.219 1.277.43 1.219.632 1.132.816 1.008.973.856 1.102.68 1.203.484 1.265.273 1.297.055 1.285-.164 1.239-.38 1.156-.585 1.043-.77.898-.933.727-1.074.531-1.184.328-1.254Zm.11 0-.11 1.309-.332 1.273-.543 1.195-.735 1.09-.91.95-1.058.785-1.172.59-1.258.386-1.305.164-1.312-.054-1.285-.278-1.223-.488-1.117-.691-.989-.868-.824-1.023-.644-1.148-.438-1.239-.222-1.297v-1.316l.222-1.293.438-1.242.644-1.149.824-1.023.989-.867 1.117-.688 1.223-.492 1.285-.277 1.312-.055 1.305.168 1.258.383 1.172.594 1.058.78.91.95.735 1.09.543 1.2.332 1.269Zm0 0-.11-1.312-.332-1.27-.543-1.2-.735-1.089-.91-.95-1.058-.78-1.172-.594-1.258-.383-1.305-.168-1.312.055-1.285.277-1.223.492-1.117.688-.989.867-.824 1.023-.644 1.149-.438 1.242-.222 1.293v1.316l.222 1.297.438 1.238.644 1.149.824 1.023.989.868 1.117.691 1.223.488 1.285.278 1.312.054 1.305-.164 1.258-.387 1.172-.59 1.058-.785.91-.949.735-1.09.543-1.195.332-1.273Zm.112 0-.113 1.328-.336 1.29-.55 1.214-.747 1.106-.922.964-1.074.793-1.191.598-1.274.39-1.324.173-1.332-.059-1.305-.281-1.234-.496-1.137-.7-1-.882-.84-1.036-.648-1.164-.445-1.257-.227-1.317v-1.332l.227-1.316.445-1.254.648-1.168.84-1.035 1-.883 1.137-.7 1.234-.495 1.305-.282 1.332-.054 1.324.168 1.274.39 1.191.602 1.074.793.922.96.746 1.106.551 1.215.336 1.29Zm0 0-.113-1.332-.336-1.289-.55-1.215-.747-1.105-.922-.961-1.074-.793-1.191-.602-1.274-.39-1.324-.168-1.332.054-1.305.282-1.234.496-1.137.699-1 .883-.84 1.035-.648 1.168-.445 1.254-.227 1.316v1.332l.227 1.317.445 1.257.648 1.164.84 1.036 1 .882 1.137.7 1.234.496 1.305.281 1.332.059 1.324-.172 1.274-.39 1.191-.599 1.074-.793.922-.964.746-1.106.551-1.215.336-1.289Zm.11 0-.114 1.348-.343 1.308-.555 1.23-.758 1.122-.937.976-1.086.805-1.207.61-1.293.394-1.344.172-1.348-.059-1.324-.285-1.254-.504-1.152-.707-1.016-.894-.847-1.051-.66-1.184-.454-1.273-.226-1.332V14.57l.226-1.336.453-1.273.66-1.18.848-1.054 1.016-.891 1.152-.711 1.254-.504 1.324-.285 1.348-.059 1.344.172 1.293.399 1.207.605 1.086.805.937.976.758 1.121.555 1.235.343 1.308Zm0 0-.114-1.348-.343-1.308-.555-1.235-.758-1.12-.937-.977-1.086-.805-1.207-.605-1.293-.399-1.344-.172-1.348.059-1.324.285-1.254.504-1.152.71-1.016.892-.847 1.054-.66 1.18-.454 1.273-.226 1.336v1.352l.226 1.332.453 1.273.66 1.184.848 1.05 1.016.895 1.152.707 1.254.504 1.324.285 1.348.059 1.344-.172 1.293-.394 1.207-.61 1.086-.805.937-.976.758-1.121.555-1.23.343-1.31Zm.11 0-.114 1.363-.348 1.328-.562 1.25-.77 1.137-.95.988-1.1.817-1.227.617-1.309.402-1.36.172-1.37-.058-1.34-.285-1.274-.512-1.168-.719-1.027-.906-.863-1.067-.668-1.199-.457-1.293-.23-1.351v-1.371l.23-1.352.457-1.293.668-1.195.863-1.067 1.027-.906 1.168-.719 1.274-.511 1.34-.29 1.37-.058 1.36.176 1.309.398 1.226.617 1.102.817.95.992.769 1.133.562 1.25.348 1.328Zm0 0-.114-1.367-.348-1.328-.562-1.25-.77-1.133-.95-.992-1.1-.817-1.227-.617-1.309-.398-1.36-.176-1.37.059-1.34.289-1.274.511-1.168.72-1.027.905-.863 1.067-.668 1.195-.457 1.293-.23 1.352v1.37l.23 1.352.457 1.293.668 1.2.863 1.066 1.027.906 1.168.719 1.274.512 1.34.285 1.37.058 1.36-.172 1.309-.402 1.226-.617 1.102-.817.95-.988.769-1.137.562-1.25.348-1.328Zm.112 0-.117 1.383-.351 1.348-.575 1.265-.777 1.153-.96 1.003-1.118.825-1.242.625-1.328.406-1.38.18-1.39-.059-1.36-.293-1.288-.52-1.184-.73-1.043-.918-.871-1.082-.68-1.21-.46-1.313-.239-1.368v-1.39l.238-1.371.461-1.309.68-1.215.871-1.082 1.043-.918 1.184-.73 1.289-.516 1.36-.293 1.39-.058 1.379.175 1.328.407 1.242.625 1.117.828.961 1.004.777 1.152.575 1.266.351 1.343Zm0 0-.117-1.387-.351-1.343-.575-1.266-.777-1.152-.96-1.004-1.118-.828-1.242-.625-1.328-.407-1.38-.175-1.39.058-1.36.293-1.288.516-1.184.73-1.043.918-.871 1.082-.68 1.215-.46 1.309-.239 1.37v1.391l.238 1.368.461 1.312.68 1.211.871 1.082 1.043.918 1.184.73 1.289.52 1.36.293 1.39.059 1.379-.18 1.328-.406 1.242-.625 1.117-.825.961-1.003.777-1.153.575-1.265.351-1.348Zm.11 0-.121 1.402-.352 1.364-.582 1.285-.789 1.164-.973 1.02-1.132.835-1.258.637-1.348.41-1.398.18-1.407-.059-1.379-.297-1.304-.527-1.203-.738-1.055-.93-.887-1.097-.687-1.23-.469-1.33-.238-1.386v-1.41l.238-1.387.469-1.328.687-1.23.887-1.098 1.055-.93 1.203-.738 1.305-.523 1.378-.297 1.407-.063 1.398.18 1.348.414 1.258.633 1.132.84.973 1.015.79 1.168.581 1.282.352 1.363Zm0 0-.121-1.406-.352-1.363-.582-1.282-.789-1.168-.973-1.015-1.132-.84-1.258-.633-1.348-.414-1.398-.18-1.407.063-1.379.297-1.304.523-1.203.738-1.055.93-.887 1.098-.687 1.23-.469 1.328-.238 1.387v1.41l.238 1.387.469 1.328.687 1.23.887 1.098 1.055.93 1.203.738 1.305.527 1.378.297 1.407.059 1.398-.18 1.348-.41 1.258-.637 1.132-.836.973-1.02.79-1.163.581-1.285.352-1.364Zm.11 0-.122 1.422-.36 1.379-.585 1.3-.801 1.184-.988 1.032-1.149.847-1.273.645-1.363.418-1.418.18-1.426-.06-1.395-.3-1.324-.531-1.215-.75-1.074-.942-.895-1.113-.699-1.246-.472-1.344-.243-1.41v-1.426l.243-1.406.472-1.348.7-1.246.894-1.11 1.074-.944 1.215-.747 1.324-.535 1.395-.3 1.426-.06 1.418.18 1.363.419 1.273.644 1.149.848.988 1.031.8 1.184.587 1.3.36 1.383Zm0 0-.122-1.422-.36-1.383-.585-1.3-.801-1.184-.988-1.031-1.149-.848-1.273-.644-1.363-.418-1.418-.18-1.426.059-1.395.3-1.324.535-1.215.747-1.074.945-.895 1.11-.699 1.245-.472 1.348-.243 1.406v1.426l.243 1.41.472 1.344.7 1.246.894 1.113 1.074.942 1.215.75 1.324.531 1.395.3 1.426.06 1.418-.18 1.363-.418 1.273-.645 1.149-.848.988-1.03.8-1.184.587-1.301.36-1.379Zm.112 0-.125 1.441-.363 1.399-.594 1.316-.812 1.2-1 1.043-1.164.863-1.29.648-1.382.426-1.438.184-1.44-.063-1.415-.305-1.344-.539-1.23-.757-1.086-.957-.91-1.125-.703-1.262-.485-1.363-.242-1.426v-1.446l.242-1.425.485-1.368.703-1.261.91-1.125 1.086-.953 1.23-.762 1.344-.54 1.414-.304 1.441-.058 1.438.183 1.383.422 1.289.652 1.164.86 1 1.043.812 1.199.594 1.316.363 1.403Zm0 0-.125-1.441-.363-1.403-.594-1.316-.812-1.2-1-1.042-1.164-.86-1.29-.652-1.382-.422-1.438-.183-1.44.058-1.415.305-1.344.539-1.23.762-1.086.953-.91 1.125-.703 1.261-.485 1.368-.242 1.425v1.446l.242 1.426.485 1.363.703 1.262.91 1.125 1.086.957 1.23.757 1.344.54 1.414.304 1.441.063 1.438-.184 1.383-.426 1.289-.648 1.164-.863 1-1.043.812-1.2.594-1.316.363-1.398Zm.11 0-.125 1.457-.367 1.418-.606 1.336-.82 1.215-1.012 1.058-1.18.872-1.308.66-1.399.425-1.453.188-1.465-.062-1.433-.31-1.36-.546-1.246-.766-1.101-.968-.918-1.141-.715-1.277-.488-1.383-.25-1.445v-1.465l.25-1.446.488-1.379.715-1.28.918-1.137 1.101-.97 1.246-.769 1.36-.547 1.433-.308 1.465-.063 1.453.188 1.399.43 1.308.66 1.18.87 1.012 1.055.82 1.215.606 1.336.367 1.418Zm0 0-.125-1.46-.367-1.419-.606-1.336-.82-1.215-1.012-1.054-1.18-.871-1.308-.66-1.399-.43-1.453-.188-1.465.063-1.433.308-1.36.547-1.246.77-1.101.969-.918 1.136-.715 1.281-.488 1.38-.25 1.445v1.465l.25 1.445.488 1.383.715 1.277.918 1.14 1.101.97 1.246.765 1.36.547 1.433.308 1.465.063 1.453-.187 1.399-.426 1.308-.66 1.18-.872 1.012-1.058.82-1.215.606-1.336.367-1.418Zm.11 0-.126 1.477-.37 1.437-.614 1.352-.832 1.23-1.028 1.07-1.191.883-1.324.668-1.418.434-1.473.187-1.484-.062-1.45-.313-1.378-.55-1.262-.782-1.113-.98-.934-1.152-.723-1.297-.496-1.399-.25-1.46v-1.485l.25-1.465.496-1.398.723-1.297.934-1.153 1.113-.98 1.262-.777 1.379-.555 1.449-.313 1.484-.062 1.473.187 1.418.434 1.324.672 1.191.879 1.028 1.074.832 1.227.613 1.355.371 1.434Zm0 0-.126-1.48-.37-1.434-.614-1.355-.832-1.227-1.028-1.074-1.191-.88-1.324-.671-1.418-.434-1.473-.187-1.484.062-1.45.313-1.378.555-1.262.777-1.113.98-.934 1.153-.723 1.297-.496 1.398-.25 1.465v1.484l.25 1.461.496 1.399.723 1.297.934 1.152 1.113.98 1.262.782 1.379.55 1.449.313 1.484.062 1.473-.187 1.418-.434 1.324-.668 1.191-.883 1.028-1.07.832-1.23.613-1.352.371-1.437Zm.112 0-.128 1.496-.38 1.453-.617 1.371-.843 1.243-1.04 1.086-1.206.894-1.344.676-1.434.441-1.492.192-1.5-.067-1.469-.316-1.394-.559-1.281-.789-1.13-.992-.94-1.168-.735-1.312-.5-1.418-.254-1.48v-1.505l.254-1.48.5-1.418.734-1.309.942-1.172 1.129-.992 1.28-.789 1.395-.559 1.47-.316 1.5-.062 1.491.19 1.434.438 1.344.676 1.207.895 1.039 1.086.843 1.246.618 1.367.379 1.453Zm0 0-.128-1.5-.38-1.453-.617-1.367-.843-1.246-1.04-1.086-1.206-.895-1.344-.676-1.434-.437-1.492-.191-1.5.062-1.469.316-1.394.559-1.281.79-1.13.991-.94 1.172-.735 1.309-.5 1.418-.254 1.48v1.504l.254 1.48.5 1.419.734 1.312.942 1.168 1.129.992 1.28.79 1.395.558 1.47.316 1.5.067 1.491-.192 1.434-.441 1.344-.676 1.207-.894 1.039-1.086.843-1.243.618-1.37.379-1.454Zm.11 0-.13 1.516-.382 1.472-.625 1.387-.855 1.258-1.051 1.098-1.223.906-1.36.683-1.452.446-1.512.195-1.52-.066-1.488-.32-1.41-.567-1.297-.797-1.14-1.004-.957-1.183-.743-1.329-.504-1.437-.257-1.5v-1.52l.257-1.5.504-1.433.742-1.328.958-1.184 1.14-1.008 1.297-.797 1.41-.566 1.488-.32 1.52-.067 1.512.196 1.453.445 1.36.683 1.222.907 1.05 1.097.856 1.262.625 1.387.383 1.472Zm0 0-.13-1.516-.382-1.472-.625-1.387-.855-1.262-1.051-1.097-1.223-.907-1.36-.683-1.452-.445-1.512-.196-1.52.067-1.488.32-1.41.566-1.297.797L8.77 9.04l-.957 1.184-.743 1.328-.504 1.433-.257 1.5v1.52l.257 1.5.504 1.437.742 1.329.958 1.183 1.14 1.004 1.297.797 1.41.566 1.488.32 1.52.067 1.512-.195 1.453-.446 1.36-.683 1.222-.906 1.05-1.098.856-1.258.625-1.387.383-1.472Zm.113 0-.133 1.535-.386 1.489-.637 1.402-.86 1.277-1.066 1.113-1.238.915-1.375.695-1.473.45-1.531.194-1.535-.062-1.508-.328-1.43-.574-1.312-.805-1.156-1.02-.965-1.199-.754-1.344-.512-1.453-.262-1.515v-1.54l.262-1.519.512-1.453.754-1.344.965-1.2 1.156-1.015 1.312-.808 1.43-.574 1.508-.325 1.535-.066 1.531.195 1.473.453 1.375.692 1.238.918 1.067 1.11.859 1.276.637 1.403.386 1.492Zm0 0-.133-1.535-.386-1.492-.637-1.403-.86-1.277-1.066-1.11-1.238-.917-1.375-.692-1.473-.453-1.531-.195-1.535.066-1.508.324-1.43.575-1.312.808-1.156 1.016-.965 1.2-.754 1.343-.512 1.453-.262 1.52v1.539l.262 1.515.512 1.453.754 1.344.965 1.2 1.156 1.019 1.312.805 1.43.574 1.508.328 1.535.062 1.531-.195 1.473-.45 1.375-.694 1.238-.915 1.067-1.113.859-1.277.637-1.402.386-1.489Zm.11 0-.133 1.55-.395 1.513-.64 1.418-.872 1.293-1.082 1.125-1.25.925-1.394.703-1.488.457-1.547.2-1.559-.067-1.523-.328-1.45-.582-1.324-.816-1.172-1.032-.98-1.214-.758-1.36-.52-1.468-.265-1.54v-1.558l.266-1.535.52-1.473.757-1.36.98-1.214 1.172-1.028 1.324-.816 1.45-.582 1.523-.328 1.559-.066 1.547.195 1.488.457 1.394.703 1.25.926 1.082 1.125.872 1.293.64 1.422.395 1.507Zm0 0-.133-1.555-.395-1.507-.64-1.422-.872-1.293-1.082-1.125-1.25-.926-1.394-.703-1.488-.457-1.547-.195-1.559.066-1.523.328-1.45.582-1.324.816L8.61 8.883l-.98 1.215-.758 1.359-.52 1.473-.265 1.535v1.558l.266 1.54.52 1.468.757 1.36.98 1.214 1.172 1.032 1.324.816 1.45.582 1.523.328 1.559.067 1.547-.2 1.488-.457 1.394-.703 1.25-.925 1.082-1.125.872-1.293.64-1.418.395-1.512Zm.109 0-.133 1.57-.398 1.528-.649 1.437-.883 1.309-1.093 1.137-1.27.941-1.406.707-1.508.465-1.566.2-1.578-.067-1.543-.332-1.461-.59-1.344-.828-1.188-1.043-.988-1.227-.77-1.375-.527-1.488-.265-1.555v-1.578l.265-1.555.528-1.488.77-1.379.987-1.226 1.188-1.043 1.344-.828 1.46-.586 1.543-.332 1.579-.07 1.566.202 1.508.461 1.406.711 1.27.938 1.093 1.14.883 1.305.649 1.438.398 1.527Zm0 0-.133-1.574-.398-1.527-.649-1.438-.883-1.305-1.093-1.14-1.27-.938-1.406-.71-1.508-.462-1.566-.203-1.578.07-1.543.333-1.461.585-1.344.829-1.188 1.043-.988 1.226-.77 1.38-.527 1.487-.265 1.555v1.578l.265 1.555.528 1.488.77 1.375.987 1.227 1.188 1.043 1.344.828 1.46.59 1.543.332 1.579.066 1.566-.2 1.508-.464 1.406-.707 1.27-.941 1.093-1.137.883-1.309.649-1.437.398-1.528Zm.113 0-.137 1.59-.402 1.543-.656 1.457-.895 1.324-1.105 1.152-1.285.95-1.426.718-1.527.465-1.582.203-1.594-.066-1.563-.336-1.48-.598-1.36-.835-1.199-1.055-1.004-1.242-.777-1.395-.531-1.504-.27-1.574v-1.598l.27-1.574.531-1.504.777-1.394L8.45 8.73l1.2-1.054 1.359-.836 1.48-.594 1.563-.34 1.594-.066 1.582.203 1.527.469 1.426.718 1.285.95 1.105 1.152.895 1.32.656 1.457.402 1.543Zm0 0-.137-1.594-.402-1.543-.656-1.457-.895-1.32-1.105-1.152-1.285-.95-1.426-.718-1.527-.469-1.582-.203-1.594.066-1.563.34-1.48.594-1.36.836L8.45 8.73 7.445 9.973l-.777 1.394-.531 1.504-.27 1.574v1.598l.27 1.574.531 1.504.777 1.395 1.004 1.242 1.2 1.055 1.359.835 1.48.598 1.563.336 1.594.066 1.582-.203 1.527-.465 1.426-.718 1.285-.95 1.105-1.152.895-1.324.656-1.457.402-1.543Zm.11 0-.137 1.61-.406 1.562-.668 1.473-.903 1.336-1.117 1.168-1.3.96-1.442.727-1.547.473-1.602.207-1.613-.07-1.578-.34-1.5-.602-1.375-.848-1.21-1.066-1.017-1.258-.789-1.41-.539-1.523-.273-1.594v-1.613l.273-1.594.54-1.524.788-1.41 1.016-1.254 1.211-1.07 1.375-.844 1.5-.605 1.578-.34 1.613-.067 1.602.204 1.547.472 1.441.73 1.301.958 1.117 1.168.903 1.34.668 1.468.406 1.567Zm0 0-.137-1.61-.406-1.566-.668-1.468-.903-1.34-1.117-1.168-1.3-.957-1.442-.73-1.547-.473-1.602-.204-1.613.067-1.578.34-1.5.605-1.375.844-1.21 1.07L7.354 9.91l-.789 1.41-.539 1.524-.273 1.594v1.613l.273 1.594.54 1.523.788 1.41 1.016 1.258 1.211 1.066 1.375.848 1.5.602 1.578.34 1.613.07 1.602-.207 1.547-.473 1.441-.727 1.301-.96 1.117-1.168.903-1.336.668-1.473.406-1.563Zm.109 0-.137 1.625-.414 1.582-.672 1.492-.914 1.352-1.133 1.18-1.312.972-1.461.735-1.563.48-1.62.207-1.633-.07-1.594-.344-1.52-.61-1.39-.855-1.227-1.082-1.027-1.27-.797-1.425-.543-1.543-.277-1.61v-1.636l.277-1.61.543-1.539.797-1.43 1.027-1.269L9.516 7.5l1.39-.86 1.52-.609 1.594-.343 1.632-.07 1.621.21 1.563.477 1.46.734 1.313.973 1.133 1.18.914 1.355.672 1.488.414 1.582Zm0 0-.137-1.629-.414-1.582-.672-1.488-.914-1.356-1.133-1.18-1.312-.972-1.461-.734-1.563-.477-1.62-.21-1.633.07-1.594.343-1.52.61-1.39.859-1.227 1.078-1.027 1.27-.797 1.43-.543 1.538-.277 1.61v1.636l.277 1.61.543 1.543.797 1.426 1.027 1.27 1.227 1.081 1.39.856 1.52.609 1.594.344 1.632.07 1.621-.207 1.563-.48 1.46-.735 1.313-.972 1.133-1.18.914-1.352.672-1.492.414-1.582Zm.113 0-.14 1.645-.418 1.601-.68 1.504-.926 1.371-1.144 1.192-1.329.984-1.476.746-1.582.48-1.637.211-1.652-.07-1.617-.348-1.532-.617-1.41-.867-1.238-1.09-1.04-1.285-.808-1.445-.55-1.559-.278-1.629v-1.652l.277-1.629.551-1.559.809-1.44L8.21 8.5l1.238-1.09 1.41-.867 1.532-.617 1.617-.348 1.652-.07 1.637.21 1.582.485 1.476.742 1.329.985 1.144 1.191.926 1.371.68 1.508.418 1.598Zm0 0-.14-1.648L24.434 12l-.68-1.508-.926-1.37-1.144-1.192-1.329-.985-1.476-.742-1.582-.484-1.637-.211-1.652.07-1.617.348-1.532.617-1.41.867L8.211 8.5 7.17 9.79l-.808 1.44-.55 1.56-.278 1.628v1.652l.277 1.63.551 1.558.809 1.445 1.039 1.285 1.238 1.09 1.41.867 1.532.617 1.617.348 1.652.07 1.637-.21 1.582-.48 1.476-.747 1.329-.984 1.144-1.192.926-1.37.68-1.505.418-1.601Zm.11 0-.141 1.664-.422 1.617-.687 1.524-.938 1.387-1.156 1.207-1.344.992-1.492.754-1.602.488-1.656.215-1.672-.074-1.633-.352-1.55-.621-1.426-.879-1.254-1.102-1.05-1.3-.813-1.461-.559-1.578-.281-1.645V14.41l.281-1.648.559-1.578.812-1.457 1.05-1.301L9.384 7.32l1.426-.875 1.55-.625 1.633-.351 1.672-.07 1.656.21 1.602.489 1.492.754 1.344.996 1.156 1.207.938 1.383.687 1.523.422 1.617Zm0 0-.141-1.668-.422-1.617-.687-1.524-.938-1.382-1.156-1.207-1.344-.996-1.492-.754-1.602-.489-1.656-.21-1.672.07-1.633.351-1.55.625-1.426.875-1.254 1.106-1.05 1.3-.813 1.458-.559 1.578-.281 1.648v1.672l.281 1.645.559 1.578.812 1.46 1.05 1.301 1.255 1.102 1.426.879 1.55.621 1.633.352 1.672.074 1.656-.215 1.602-.488 1.492-.754 1.344-.992 1.156-1.207.938-1.387.687-1.524.422-1.617Zm.109 0-.14 1.684-.426 1.636-.7 1.54L23 21.507l-1.168 1.219-1.36 1.003-1.511.762-1.617.496-1.676.215-1.688-.07-1.652-.36-1.57-.628-1.438-.887-1.27-1.117-1.062-1.317-.824-1.472-.562-1.594-.29-1.668v-1.692l.29-1.664.562-1.593.824-1.477 1.063-1.316L9.32 7.23l1.437-.886 1.57-.63 1.652-.355 1.688-.074 1.676.215 1.617.496 1.512.762 1.359 1.004L23 8.984l.945 1.399.7 1.543.425 1.633Zm0 0-.14-1.687-.426-1.633-.7-1.543L23 8.984l-1.168-1.222-1.36-1.004-1.511-.762-1.617-.496-1.676-.215-1.688.074-1.652.356-1.57.629-1.438.886-1.27 1.118-1.062 1.316-.824 1.477-.562 1.593-.29 1.664v1.692l.29 1.668.562 1.594.824 1.472 1.063 1.317 1.27 1.117 1.437.887 1.57.628 1.652.36 1.688.07 1.676-.215 1.617-.496 1.512-.762 1.359-1.003L23 21.507l.945-1.402.7-1.539.425-1.636Zm.113 0-.144 1.703-.434 1.653-.703 1.558-.957 1.414-1.184 1.235-1.375 1.02-1.523.769-1.637.5-1.695.215-1.707-.07-1.672-.364-1.586-.637-1.453-.894-1.285-1.13-1.074-1.331-.832-1.492-.57-1.61-.29-1.687V14.39l.29-1.684.57-1.613.832-1.492 1.074-1.329 1.285-1.132 1.453-.895 1.586-.637 1.672-.359 1.707-.074 1.695.219 1.637.5 1.523.77 1.375 1.015 1.184 1.234.957 1.414.703 1.559.434 1.656Zm0 0-.144-1.703-.434-1.656-.703-1.559-.957-1.414-1.184-1.234-1.375-1.016-1.523-.77-1.637-.5-1.695-.218-1.707.074-1.672.36-1.586.636-1.453.895-1.285 1.132-1.074 1.329-.832 1.492-.57 1.613-.29 1.684v1.707l.29 1.687.57 1.61.832 1.492 1.074 1.332 1.285 1.129 1.453.894 1.586.637 1.672.363 1.707.07 1.695-.214 1.637-.5 1.523-.77 1.375-1.02 1.184-1.234.957-1.414.703-1.558.434-1.653Zm.11 0-.145 1.719-.437 1.676-.711 1.574-.97 1.43-1.194 1.25-1.391 1.027-1.543.777-1.652.504-1.715.223-1.727-.074-1.687-.364-1.602-.644-1.473-.907-1.296-1.144-1.086-1.344-.844-1.508-.574-1.628-.293-1.704v-1.73l.293-1.703.574-1.63.844-1.507L7.89 8.195l1.297-1.14 1.472-.907 1.602-.644 1.687-.363 1.727-.075 1.715.22 1.652.507 1.543.777 1.39 1.028 1.196 1.246.969 1.433.71 1.575.438 1.671Zm0 0-.145-1.723-.437-1.671-.711-1.575-.97-1.433-1.194-1.246-1.391-1.028-1.543-.777-1.652-.508-1.715-.219-1.727.075-1.687.363-1.602.644-1.473.907-1.296 1.14L6.805 9.54l-.844 1.508-.574 1.629-.293 1.703v1.73l.293 1.703.574 1.63.844 1.507 1.086 1.344 1.297 1.145 1.472.906 1.602.644 1.687.364 1.727.074 1.715-.223 1.652-.504 1.543-.777 1.39-1.027 1.196-1.25.969-1.43.71-1.574.438-1.676Zm.109 0-.148 1.738-.438 1.692-.719 1.594-.98 1.445-1.207 1.262-1.406 1.039-1.56.785-1.67.512-1.731.222-1.746-.074-1.708-.367-1.62-.653-1.489-.918-1.312-1.152-1.098-1.36-.852-1.523-.582-1.648-.293-1.723v-1.746l.293-1.723.582-1.644.852-1.527 1.098-1.36L9.12 6.965l1.488-.918 1.621-.649 1.707-.37 1.747-.075 1.73.223 1.672.511 1.559.79 1.406 1.035 1.207 1.261.98 1.45.719 1.59.438 1.69Zm0 0-.148-1.742-.438-1.691-.719-1.59-.98-1.45-1.207-1.261-1.406-1.035-1.56-.79-1.67-.511-1.731-.223-1.746.074-1.708.371-1.62.649-1.489.918L7.81 8.117 6.71 9.477l-.852 1.527-.582 1.644-.293 1.723v1.746l.293 1.723.582 1.648.852 1.524 1.098 1.36 1.312 1.151 1.488.918 1.621.653 1.707.367 1.747.074 1.73-.223 1.672-.511 1.559-.785 1.406-1.04 1.207-1.261.98-1.445.719-1.594.438-1.692Zm.113 0-.152 1.758-.445 1.707-.727 1.61-.988 1.464-1.223 1.274-1.418 1.05-1.578.793-1.687.52-1.75.223-1.766-.075-1.727-.37-1.636-.66-1.504-.927L7.73 22.45l-1.109-1.375-.863-1.543-.586-1.664-.3-1.738v-1.766l.3-1.742.586-1.664.863-1.543 1.11-1.371 1.324-1.168 1.504-.926 1.636-.656 1.727-.375 1.765-.074 1.75.226 1.688.516 1.578.793 1.418 1.05 1.223 1.274.988 1.465.727 1.61.445 1.706Zm0 0-.152-1.762-.445-1.707-.727-1.609-.988-1.465L22.12 7.43l-1.418-1.051-1.578-.793-1.687-.516-1.75-.226-1.766.074-1.727.375-1.636.656-1.504.926L7.73 8.043 6.621 9.414l-.863 1.543-.586 1.664-.3 1.742v1.766l.3 1.738.586 1.664.863 1.543 1.11 1.375 1.324 1.164 1.504.926 1.636.66 1.727.371 1.765.075 1.75-.223 1.688-.52 1.578-.793 1.418-1.05 1.223-1.274.988-1.465.727-1.61.445-1.706Zm.11 0-.153 1.777-.449 1.727-.734 1.625-1 1.48-1.235 1.286-1.433 1.062-1.594.805-1.707.52-1.77.23-1.78-.078-1.747-.375-1.656-.664-1.52-.938-1.34-1.18-1.12-1.386-.868-1.559-.598-1.683-.3-1.758v-1.785l.3-1.758.598-1.684.867-1.558 1.121-1.387 1.34-1.18 1.52-.933 1.656-.668 1.746-.375 1.781-.075 1.77.227 1.707.523 1.594.801 1.433 1.063 1.235 1.289 1 1.476.734 1.625.45 1.727Zm0 0-.153-1.781-.449-1.727-.734-1.625-1-1.476-1.235-1.29-1.433-1.062-1.594-.8-1.707-.524-1.77-.227-1.78.075-1.747.375-1.656.668-1.52.933-1.34 1.18-1.12 1.387-.868 1.558-.598 1.684-.3 1.758v1.785l.3 1.758.598 1.683.867 1.559 1.121 1.386 1.34 1.18 1.52.938 1.656.664 1.746.375 1.781.078 1.77-.23 1.707-.52 1.594-.805 1.433-1.062 1.235-1.286 1-1.48.734-1.625.45-1.727Zm.109 0-.152 1.797-.453 1.742-.743 1.645-1.011 1.492-1.246 1.305-1.45 1.07-1.61.812-1.726.528-1.789.23-1.8-.078-1.762-.379-1.676-.672-1.535-.945-1.352-1.191-1.133-1.403-.878-1.574-.602-1.703-.305-1.777v-1.801l.305-1.778.602-1.699.878-1.574L7.57 7.887l1.352-1.192 1.535-.945 1.676-.672 1.762-.379 1.8-.078 1.79.23 1.726.528 1.61.812 1.449 1.075 1.246 1.3 1.011 1.493.743 1.644.453 1.746Zm0 0-.152-1.797-.453-1.746-.743-1.644-1.011-1.493-1.246-1.3-1.45-1.075-1.61-.812-1.726-.527-1.789-.23-1.8.077-1.762.38-1.676.671-1.535.945L7.57 7.887 6.437 9.293l-.878 1.574-.602 1.7-.305 1.777v1.8l.305 1.778.602 1.703.878 1.574 1.133 1.403 1.352 1.191 1.535.945 1.676.672 1.762.38 1.8.077 1.79-.23 1.726-.528 1.61-.812 1.449-1.07 1.246-1.305 1.011-1.492.743-1.645.453-1.742Zm.113 0-.156 1.813-.457 1.765-.75 1.66-1.023 1.508-1.258 1.317-1.465 1.082-1.629.82-1.742.535-1.809.23-1.82-.078-1.777-.382-1.692-.68-1.55-.953-1.372-1.207-1.144-1.414-.887-1.594-.605-1.715-.309-1.797v-1.824l.309-1.793.605-1.719.887-1.59 1.144-1.418L8.86 6.61l1.551-.957 1.692-.68 1.777-.382 1.82-.078 1.809.23 1.742.535 1.629.82 1.465 1.083 1.258 1.316 1.023 1.512.75 1.66.457 1.762Zm0 0-.156-1.816-.457-1.762-.75-1.66-1.023-1.512-1.258-1.316-1.465-1.082-1.629-.82-1.742-.536-1.809-.23-1.82.078-1.777.383-1.692.68-1.55.956-1.372 1.204L6.344 9.23l-.887 1.59-.605 1.72-.309 1.792v1.824l.309 1.797.605 1.715.887 1.594 1.144 1.414 1.371 1.207 1.551.953 1.692.68 1.777.382 1.82.079 1.809-.23 1.742-.536 1.629-.82 1.465-1.082 1.258-1.317 1.023-1.508.75-1.66.457-1.765Zm.11 0-.157 1.832-.464 1.781-.758 1.68-1.032 1.523-1.273 1.329-1.48 1.093-1.641.832-1.762.54-1.824.23-1.84-.078-1.8-.387-1.708-.683-1.566-.97-1.383-1.214-1.156-1.434-.899-1.605-.613-1.735-.312-1.816v-1.84l.312-1.812.613-1.739.899-1.605L7.41 7.734 8.793 6.52l1.566-.965 1.707-.688 1.801-.387 1.84-.078 1.824.235 1.762.539 1.64.828 1.481 1.094 1.273 1.328 1.032 1.527.758 1.676.464 1.781Zm0 0-.157-1.836-.464-1.781-.758-1.676-1.032-1.527-1.273-1.328-1.48-1.094-1.641-.828-1.762-.54-1.824-.234-1.84.078-1.8.387-1.708.688-1.566.965L7.41 7.734 6.254 9.168l-.899 1.605-.613 1.739-.312 1.812v1.84l.312 1.816.613 1.735.899 1.605 1.156 1.434 1.383 1.215 1.566.968 1.707.684 1.801.387 1.84.078 1.824-.23 1.762-.54 1.64-.832 1.481-1.093 1.273-1.328 1.032-1.524.758-1.68.464-1.78Zm.109 0-.156 1.852-.469 1.8-.766 1.692-1.043 1.543-1.285 1.344-1.496 1.105-1.66.836-1.777.543-1.844.238-1.86-.078-1.816-.394-1.726-.692-1.582-.976-1.399-1.227-1.168-1.45-.906-1.62-.617-1.754-.317-1.832v-1.86l.317-1.836.617-1.75.906-1.625L7.328 7.66l1.399-1.23 1.582-.977 1.726-.691 1.817-.39 1.859-.083 1.844.238 1.777.543 1.66.84 1.496 1.106 1.285 1.34 1.043 1.542.766 1.696.469 1.797Zm0 0-.156-1.855-.469-1.797-.766-1.696-1.043-1.543-1.285-1.34-1.496-1.105-1.66-.84-1.777-.543-1.844-.238-1.86.082-1.816.39-1.726.692-1.582.977-1.399 1.23L6.16 9.105l-.906 1.625-.617 1.75-.317 1.836v1.86l.317 1.832.617 1.754.906 1.62 1.168 1.45 1.399 1.227 1.582.976 1.726.692 1.817.394 1.859.078 1.844-.238 1.777-.543 1.66-.836 1.496-1.105 1.285-1.344 1.043-1.543.766-1.692.469-1.8Zm.113 0-.16 1.871-.473 1.817-.773 1.71-1.05 1.56-1.302 1.355-1.511 1.117-1.676.844-1.797.55-1.863.239-1.875-.079-1.836-.398-1.746-.7-1.598-.984-1.41-1.242-1.18-1.46-.918-1.641-.625-1.77-.316-1.851v-1.88l.316-1.85.625-1.77.918-1.641 1.18-1.461L8.66 6.34l1.598-.985 1.746-.699 1.836-.394 1.875-.082 1.863.238 1.797.55 1.676.848 1.512 1.114 1.3 1.36 1.051 1.554.773 1.71.473 1.821Zm0 0-.16-1.871-.473-1.82-.773-1.711-1.05-1.555-1.302-1.36-1.511-1.113-1.676-.847-1.797-.551-1.863-.238-1.875.082-1.836.394-1.746.7-1.598.984-1.41 1.242-1.18 1.461-.918 1.64-.625 1.77-.316 1.852v1.879l.316 1.851.625 1.77.918 1.64 1.18 1.461 1.41 1.242 1.598.985 1.746.699 1.836.398 1.875.079 1.863-.239 1.797-.55 1.676-.844 1.512-1.117 1.3-1.356 1.051-1.558.773-1.711.473-1.817Zm.11 0-.16 1.89-.477 1.837-.781 1.726-1.063 1.57-1.312 1.372-1.528 1.129-1.695.855-1.812.555-1.883.238-1.895-.078-1.855-.399-1.758-.71-1.617-.993-1.422-1.254-1.195-1.476-.922-1.656-.633-1.79-.32-1.87v-1.895l.32-1.871.633-1.79.922-1.656 1.195-1.476 1.422-1.25 1.617-.996 1.758-.707 1.855-.403 1.895-.078 1.883.242 1.812.555 1.695.852 1.528 1.129 1.312 1.37 1.063 1.571.781 1.73.477 1.836Zm0 0-.16-1.89-.477-1.836-.781-1.73-1.063-1.571-1.312-1.371-1.528-1.13-1.695-.85-1.812-.556-1.883-.242-1.895.078-1.855.403-1.758.707-1.617.996-1.422 1.25L5.977 8.98l-.922 1.657-.633 1.789-.32 1.87v1.895l.32 1.872.633 1.789.922 1.656 1.195 1.476 1.422 1.254 1.617.992 1.758.711 1.855.399 1.895.078 1.883-.238 1.812-.555 1.695-.855 1.528-1.13 1.312-1.37 1.063-1.57.781-1.727.477-1.836Zm.113 0-.164 1.906-.484 1.856-.79 1.746-1.07 1.586-1.328 1.383-1.539 1.14-1.711.864-1.832.558-1.898.246-1.918-.082-1.871-.402-1.778-.715-1.633-1.004-1.437-1.265-1.203-1.493-.934-1.672-.64-1.808-.325-1.887v-1.918l.325-1.887.64-1.804.934-1.676L7.09 7.43l1.437-1.266L10.16 5.16l1.777-.715 1.872-.406 1.918-.078 1.898.242 1.832.559 1.711.863 1.539 1.14 1.328 1.383 1.07 1.586.79 1.746.484 1.856Zm0 0-.164-1.91-.484-1.856-.79-1.746-1.07-1.586-1.328-1.382-1.539-1.141-1.711-.863-1.832-.559-1.898-.242-1.918.078-1.871.406-1.778.715-1.633 1.004L7.09 7.43 5.887 8.918l-.934 1.676-.64 1.804-.325 1.887v1.918l.325 1.887.64 1.808.934 1.672 1.203 1.492 1.437 1.266 1.633 1.004 1.777.715 1.872.402 1.918.082 1.898-.246 1.832-.558 1.711-.864 1.539-1.14 1.328-1.383 1.07-1.586.79-1.746.484-1.856Zm.11 0-.165 1.926L26 19.043l-.797 1.766-1.082 1.601-1.34 1.399-1.554 1.148-1.727.871-1.852.567-1.918.246-1.933-.082-1.89-.407-1.798-.722-1.648-1.016-1.45-1.277-1.218-1.504-.941-1.692-.645-1.824-.328-1.906v-1.934l.328-1.906.645-1.824.941-1.692 1.219-1.503L8.46 6.074l1.648-1.015 1.797-.72 1.89-.41 1.934-.081 1.918.246 1.852.566 1.727.871 1.554 1.153 1.34 1.394 1.082 1.606.797 1.761.488 1.871Zm0 0-.165-1.93-.488-1.87-.797-1.762-1.082-1.606-1.34-1.394-1.554-1.153-1.727-.87-1.852-.567-1.918-.246-1.933.082-1.89.41-1.798.719-1.648 1.015-1.45 1.278-1.218 1.503-.941 1.692-.645 1.824-.328 1.906v1.934l.328 1.906.645 1.824.941 1.692 1.219 1.504 1.449 1.277 1.648 1.016 1.797.722 1.89.407 1.934.082 1.918-.246 1.852-.567 1.727-.871 1.554-1.148 1.34-1.399 1.082-1.601.797-1.766.488-1.871Zm.109 0-.164 1.945-.493 1.891-.804 1.781-1.094 1.617-1.352 1.41-1.57 1.16-1.746.88-1.867.574-1.938.246-1.953-.082-1.91-.41-1.812-.73-1.66-1.024-1.47-1.29-1.226-1.519-.953-1.707-.652-1.84-.328-1.925V14.27l.328-1.926.652-1.844.953-1.703 1.227-1.52 1.468-1.293 1.66-1.023 1.813-.73 1.91-.41 1.953-.083 1.938.246 1.867.575 1.746.878 1.57 1.16 1.352 1.41 1.094 1.622.804 1.777.493 1.89Zm0 0-.164-1.95-.493-1.89-.804-1.777-1.094-1.621-1.352-1.41-1.57-1.16-1.746-.88-1.867-.574-1.938-.246-1.953.082-1.91.41-1.812.73-1.66 1.024-1.47 1.293-1.226 1.52L4.75 10.5l-.652 1.844-.328 1.926v1.953l.328 1.925.652 1.84.953 1.707 1.227 1.52 1.468 1.289 1.66 1.023 1.813.73 1.91.411 1.953.082 1.938-.246 1.867-.574 1.746-.88 1.57-1.16 1.352-1.41 1.094-1.617.804-1.781.493-1.89Zm.113 0-.168 1.965-.496 1.906-.813 1.797-1.105 1.637-1.367 1.422-1.582 1.172-1.762.89-1.887.578-1.957.25-1.968-.086-1.93-.414-1.828-.734-1.68-1.035-1.48-1.305-1.243-1.531-.96-1.723-.657-1.86-.332-1.945v-1.972l.332-1.942.656-1.859.961-1.723L6.852 7.2l1.48-1.304 1.68-1.032 1.828-.738 1.93-.414 1.968-.082 1.957.25 1.887.578 1.762.887 1.582 1.172 1.367 1.425 1.105 1.633.813 1.797.496 1.91Zm0 0-.168-1.965-.496-1.91-.813-1.797-1.105-1.633-1.367-1.425-1.582-1.172-1.762-.887-1.887-.578-1.957-.25-1.968.082-1.93.414-1.828.738-1.68 1.032-1.48 1.304-1.243 1.535-.96 1.723-.657 1.86-.332 1.94v1.973l.332 1.946.656 1.86.961 1.722 1.243 1.531 1.48 1.305 1.68 1.035 1.828.734 1.93.414 1.968.086 1.957-.25 1.887-.578 1.762-.89 1.582-1.172 1.367-1.422 1.105-1.637.813-1.797.496-1.906Zm.11 0-.169 1.984-.503 1.926-.82 1.813-1.114 1.652L23 24.06l-1.602 1.183-1.777.895-1.902.582-1.977.254-1.988-.086-1.945-.418-1.848-.742-1.695-1.043-1.496-1.317-1.25-1.55-.973-1.739-.66-1.875-.34-1.96V14.25l.34-1.965.66-1.875.973-1.738 1.25-1.55 1.496-1.313L9.96 4.762l1.848-.742 1.945-.418 1.988-.086 1.977.254 1.902.582 1.777.898L23 6.434l1.379 1.437 1.113 1.649.82 1.816.504 1.926Zm0 0-.169-1.984-.503-1.926-.82-1.816-1.114-1.649L23 6.434 21.398 5.25l-1.777-.898-1.902-.582-1.977-.254-1.988.086-1.945.418-1.848.742-1.695 1.047L6.77 7.12l-1.25 1.55-.973 1.74-.66 1.874-.34 1.965v1.992l.34 1.961.66 1.875.973 1.738 1.25 1.551 1.496 1.317 1.695 1.043 1.848.742 1.945.418 1.988.086 1.977-.254 1.902-.582 1.777-.895L23 24.06l1.379-1.438 1.113-1.652.82-1.813.504-1.926Zm.109 0-.168 2-.508 1.945-.828 1.832-1.125 1.665-1.39 1.453-1.618 1.195-1.793.902-1.922.59-1.992.254L13.738 27l-1.96-.426-1.868-.75-1.71-1.05-1.509-1.329L5.43 21.88l-.98-1.754-.673-1.895-.34-1.98v-2.012l.34-1.98.672-1.895.98-1.754 1.262-1.562L8.2 5.719 9.91 4.664l1.867-.75 1.961-.422 2.012-.086 1.992.254 1.922.59 1.793.906 1.617 1.192 1.39 1.453 1.126 1.664.828 1.832.508 1.945Zm0 0-.168-2.004-.508-1.945-.828-1.832L24.465 7.8l-1.39-1.453-1.618-1.192-1.793-.906-1.922-.59-1.992-.254-2.012.086-1.96.422-1.868.75L8.2 5.72 6.69 7.047 5.43 8.609l-.98 1.754-.673 1.895-.34 1.98v2.012l.34 1.98.672 1.895.98 1.754 1.262 1.566L8.2 24.773l1.711 1.051 1.867.75 1.961.426 2.012.082 1.992-.254 1.922-.59 1.793-.902 1.617-1.195 1.39-1.453 1.126-1.665.828-1.832.508-1.945Zm.113 0-.172 2.02-.512 1.964-.835 1.848-1.137 1.68-1.403 1.465-1.632 1.207-1.813.914-1.937.593-2.012.258-2.027-.086-1.985-.43-1.883-.753-1.726-1.067-1.524-1.34-1.273-1.578-.988-1.77-.676-1.913-.344-2V14.23l.344-2 .676-1.914.988-1.77L6.609 6.97l1.524-1.34 1.726-1.063 1.883-.757 1.985-.426 2.027-.086 2.012.258 1.937.593 1.813.91 1.632 1.208 1.403 1.464 1.137 1.68.835 1.852.512 1.96Zm0 0-.172-2.023-.512-1.961-.835-1.852-1.137-1.68-1.403-1.464-1.632-1.207-1.813-.91-1.937-.594-2.012-.258-2.027.086-1.985.426-1.883.757L8.133 5.63l-1.524 1.34-1.273 1.578-.988 1.77-.676 1.913-.344 2v2.028l.344 2 .676 1.914.988 1.77 1.273 1.578 1.524 1.34 1.726 1.066 1.883.754 1.985.43 2.027.085 2.012-.258 1.937-.593 1.813-.914 1.632-1.207 1.403-1.465 1.137-1.68.835-1.848.512-1.964Zm.11 0-.172 2.04-.52 1.98-.84 1.867-1.148 1.695-1.418 1.477-1.645 1.218-1.828.922-1.957.598-2.031.262-2.047-.086-2-.434-1.899-.762-1.746-1.074-1.535-1.351-1.285-1.594-1-1.785-.684-1.934-.343-2.015v-2.047l.344-2.02.683-1.93 1-1.789 1.285-1.593 1.535-1.352 1.746-1.074 1.899-.762 2-.433 2.047-.086 2.031.261 1.957.598 1.828.922 1.645 1.219 1.418 1.476 1.148 1.7.84 1.863.52 1.98Zm0 0-.172-2.043-.52-1.98-.84-1.864-1.148-1.699-1.418-1.476-1.645-1.22-1.828-.921-1.957-.598-2.031-.261-2.047.086-2 .433-1.899.762-1.746 1.074-1.535 1.352-1.285 1.593-1 1.79-.684 1.93-.343 2.019v2.047l.344 2.015.683 1.934 1 1.785 1.285 1.594 1.535 1.351 1.746 1.074 1.899.762 2 .434 2.047.086 2.031-.262 1.957-.598 1.828-.922 1.645-1.218 1.418-1.477 1.148-1.695.84-1.867.52-1.98Zm.109 0-.176 2.059-.52 2-.851 1.883-1.156 1.71-1.43 1.493-1.66 1.226-1.844.93-1.977.605-2.05.262-2.063-.086-2.02-.437-1.917-.77L8 25.04l-1.55-1.367-1.298-1.606-1.007-1.804-.688-1.95-.352-2.035v-2.066l.352-2.035.688-1.95 1.007-1.804L6.45 6.816 8 5.45l1.762-1.082 1.918-.77 2.02-.437 2.062-.086 2.05.262 1.977.605 1.844.93 1.66 1.23 1.43 1.493 1.156 1.71.851 1.883.52 2Zm0 0-.176-2.059-.52-2-.851-1.882-1.156-1.711-1.43-1.492-1.66-1.23-1.844-.93-1.977-.606-2.05-.262-2.063.086-2.02.438-1.917.77L8 5.448 6.45 6.816 5.151 8.422l-1.007 1.805-.688 1.949-.352 2.035v2.066l.352 2.035.688 1.95 1.007 1.804 1.297 1.606L8 25.039l1.762 1.082 1.918.77 2.02.437 2.062.086 2.05-.262 1.977-.605 1.844-.93 1.66-1.226 1.43-1.493 1.156-1.71.851-1.883.52-2Zm.113 0-.18 2.074-.523 2.02-.86 1.898-1.167 1.73-1.442 1.505-1.676 1.238-1.863.941-1.992.61-2.07.265-2.082-.09-2.04-.437-1.933-.777-1.774-1.094-1.566-1.379-1.309-1.621-1.019-1.82-.695-1.965-.352-2.055v-2.086l.352-2.055.695-1.968 1.02-1.82L6.37 6.737l1.566-1.375L9.712 4.27l1.934-.778 2.039-.441 2.082-.086 2.07.262 1.992.613 1.863.937 1.676 1.239 1.442 1.507 1.168 1.727.859 1.898.523 2.02Zm0 0-.18-2.078-.523-2.02-.86-1.898-1.167-1.727-1.442-1.507-1.676-1.239-1.863-.937-1.992-.613-2.07-.262-2.082.086-2.04.441-1.933.778-1.774 1.093-1.566 1.375L5.062 8.36l-1.019 1.82-.695 1.97-.352 2.054v2.086l.352 2.055.695 1.965 1.02 1.82L6.37 23.75l1.566 1.379 1.774 1.094 1.934.777 2.039.438 2.082.09 2.07-.266 1.992-.61 1.863-.941 1.676-1.238 1.442-1.504 1.168-1.73.859-1.9.523-2.019Zm.11 0-.18 2.094-.528 2.035-.867 1.918-1.18 1.742-1.453 1.52-1.691 1.25-1.879.949-2.012.617-2.086.266-2.105-.09-2.055-.442-1.953-.785-1.789-1.101-1.582-1.39-1.32-1.638-1.028-1.836-.699-1.984-.355-2.074V14.19l.355-2.07.7-1.984L4.968 8.3l1.32-1.637 1.582-1.39 1.79-1.106 1.952-.781 2.055-.446 2.105-.09 2.086.27 2.012.613 1.879.95 1.691 1.25 1.454 1.52 1.18 1.741.866 1.918.528 2.035Zm0 0-.18-2.098-.528-2.035-.867-1.918-1.18-1.742-1.453-1.52-1.691-1.25-1.879-.949-2.012-.613-2.086-.27-2.105.09-2.055.446-1.953.781-1.789 1.105L6.29 6.664 4.97 8.301 3.94 10.137l-.699 1.984-.355 2.07v2.106l.355 2.074.7 1.984 1.027 1.836 1.32 1.637 1.582 1.39 1.79 1.102 1.952.785 2.055.442 2.105.09 2.086-.266 2.012-.617 1.879-.95 1.691-1.25 1.454-1.519 1.18-1.742.866-1.918.528-2.035Zm.109 0-.18 2.113-.535 2.055-.871 1.934-1.192 1.757-1.468 1.536-1.707 1.261-1.895.953-2.027.622-2.106.27-2.12-.09-2.075-.446-1.969-.793-1.808-1.113-1.594-1.403-1.332-1.648-1.035-1.856-.707-2-.36-2.093v-2.121l.36-2.094.707-2 1.035-1.852L6.21 6.586l1.594-1.402L9.613 4.07l1.969-.793 2.074-.445 2.121-.09 2.106.27 2.027.62 1.895.958 1.707 1.262 1.468 1.53 1.192 1.759.871 1.933.535 2.055Zm0 0-.18-2.117-.535-2.055-.871-1.933-1.192-1.758-1.468-1.531-1.707-1.262-1.895-.957-2.027-.621-2.106-.27-2.12.09-2.075.445-1.969.793-1.808 1.114L6.21 6.586 4.879 8.238 3.844 10.09l-.707 2-.36 2.094v2.12l.36 2.094.707 2 1.035 1.856 1.332 1.648 1.594 1.403 1.808 1.113 1.969.793 2.074.445 2.121.09 2.106-.27 2.027-.62 1.895-.954 1.707-1.261 1.468-1.536 1.192-1.757.871-1.934.535-2.055Zm.113 0-.183 2.133-.54 2.07-.882 1.953-1.2 1.774-1.48 1.547-1.723 1.273-1.91.965-2.047.625-2.125.273-2.14-.093-2.094-.45-1.985-.796-1.824-1.125-1.61-1.415-1.343-1.668-1.043-1.867-.715-2.02-.363-2.109v-2.14l.363-2.113.715-2.02 1.043-1.867L6.13 6.508l1.61-1.414 1.824-1.121 1.984-.801 2.094-.45 2.14-.09 2.125.27 2.047.63 1.91.964 1.723 1.274 1.48 1.543 1.2 1.773.882 1.953.54 2.07Zm0 0-.183-2.137-.54-2.07-.882-1.953-1.2-1.774-1.48-1.542-1.723-1.274-1.91-.965-2.047-.629-2.125-.27-2.14.09-2.094.45-1.985.8-1.824 1.122-1.61 1.414-1.343 1.668-1.043 1.867-.715 2.02-.363 2.113v2.14l.363 2.11.715 2.02 1.043 1.866L6.13 23.98l1.61 1.415 1.824 1.125 1.984.796 2.094.45 2.14.093 2.125-.273 2.047-.625 1.91-.965 1.723-1.273 1.48-1.547 1.2-1.774.882-1.953.54-2.07Zm.11 0-.184 2.152-.543 2.09-.89 1.969-1.212 1.79-1.492 1.558-1.738 1.285-1.93.973-2.062.632-2.145.274-2.156-.09-2.113-.457-2.004-.805-1.84-1.133L6.05 24.06l-1.356-1.684-1.054-1.883-.72-2.039-.366-2.129v-2.16l.367-2.129L3.64 10l1.054-1.887 1.356-1.68 1.62-1.43 1.84-1.132 2.005-.805 2.113-.453 2.156-.093 2.145.277 2.062.629 1.93.972 1.738 1.286 1.492 1.558 1.211 1.793.89 1.969.544 2.09Zm0 0-.184-2.152-.543-2.09-.89-1.969-1.212-1.793-1.492-1.558-1.738-1.286-1.93-.972-2.062-.63-2.145-.276-2.156.093-2.113.453-2.004.805-1.84 1.133-1.621 1.43-1.356 1.68L3.641 10l-.72 2.035-.366 2.13v2.16l.367 2.128.719 2.04 1.054 1.882 1.356 1.684 1.62 1.425 1.84 1.133 2.005.805 2.113.457 2.156.09 2.145-.274 2.062-.633 1.93-.972 1.738-1.285 1.492-1.559 1.211-1.789.89-1.969.544-2.09Zm.109 0-.184 2.168-.547 2.11-.898 1.988-1.223 1.804-1.504 1.57-1.754 1.298-1.945.98-2.082.637-2.164.277-2.176-.09-2.129-.46-2.023-.813-1.856-1.14-1.632-1.442-1.371-1.695-1.063-1.903-.727-2.055-.367-2.144v-2.18l.368-2.148.726-2.055 1.063-1.902 1.37-1.696 1.633-1.437 1.856-1.145 2.023-.812 2.13-.457 2.175-.094 2.164.277 2.082.637 1.945.98 1.754 1.298 1.504 1.574 1.223 1.804.898 1.985.547 2.11Zm0 0-.184-2.172-.547-2.11-.898-1.984-1.223-1.804-1.504-1.574-1.754-1.297-1.945-.98-2.082-.638-2.164-.277-2.176.094-2.129.457-2.023.812-1.856 1.145-1.632 1.437-1.371 1.696-1.063 1.902-.727 2.055-.367 2.148v2.18l.368 2.144.726 2.055 1.063 1.902 1.37 1.696 1.633 1.441 1.856 1.14 2.023.813 2.13.461 2.175.09 2.164-.277 2.082-.637 1.945-.98 1.754-1.297 1.504-1.57 1.223-1.805.898-1.989.547-2.109Zm.113 0-.187 2.188-.555 2.128-.902 2-1.23 1.82-1.524 1.59-1.766 1.305-1.96.989-2.102.644-2.18.281-2.2-.093-2.148-.465-2.039-.82-1.87-1.149-1.65-1.453L4.513 22.5l-1.074-1.918-.731-2.074-.371-2.164v-2.2l.371-2.164.73-2.074 1.075-1.918 1.379-1.71 1.648-1.45L9.41 3.676l2.04-.82 2.148-.461 2.199-.094 2.18.277 2.101.645 1.961.988 1.766 1.309 1.523 1.585 1.23 1.82.903 2.005.555 2.125Zm0 0-.187-2.191-.555-2.125-.902-2.004-1.23-1.82-1.524-1.586-1.766-1.31-1.96-.987-2.102-.645-2.18-.277-2.2.094-2.148.46-2.039.82-1.87 1.153-1.65 1.45-1.378 1.71-1.074 1.918-.731 2.074-.371 2.165v2.199l.371 2.164.73 2.074L4.513 22.5l1.379 1.71 1.648 1.454 1.871 1.148 2.04.82 2.148.466 2.199.093 2.18-.28 2.101-.645 1.961-.989 1.766-1.304 1.523-1.59 1.23-1.82.903-2 .555-2.13Zm.11 0-.188 2.207-.559 2.145-.914 2.02-1.238 1.835-1.535 1.602-1.781 1.316-1.98 1L18 28.02l-2.2.28-2.214-.093-2.168-.469-2.055-.824-1.886-1.164-1.665-1.465-1.394-1.723-1.082-1.933-.738-2.09-.375-2.187v-2.215l.375-2.184.738-2.09 1.082-1.937 1.394-1.723 1.665-1.465 1.886-1.16 2.055-.828 2.168-.469 2.215-.094L18 2.47l2.117.652 1.98.996 1.782 1.317 1.535 1.601 1.238 1.836.914 2.02.559 2.144Zm0 0-.188-2.21-.559-2.145-.914-2.02-1.238-1.836-1.535-1.601-1.781-1.317-1.98-.996L18 2.47l-2.2-.281-2.214.093-2.168.469-2.055.828-1.886 1.16-1.665 1.465-1.394 1.723-1.082 1.937-.738 2.09-.375 2.184v2.215l.375 2.187.738 2.09 1.082 1.933 1.394 1.723 1.665 1.465 1.886 1.164 2.055.824 2.168.469 2.215.094L18 28.02l2.117-.649 1.98-1 1.782-1.316 1.535-1.602 1.238-1.836.914-2.02.559-2.144Zm.109 0-.188 2.227-.562 2.164-.922 2.035-1.25 1.851-1.547 1.614-1.797 1.328-1.996 1.008-2.137.656-2.218.281-2.235-.094-2.183-.472-2.075-.832L7.41 25.84l-1.68-1.477-1.402-1.738-1.09-1.953-.746-2.106-.379-2.203V14.13l.38-2.203.745-2.11 1.09-1.953L5.73 6.125l1.68-1.477 1.902-1.171 2.075-.832 2.183-.473 2.235-.094 2.218.285 2.137.653 1.996 1.007 1.797 1.329L25.5 6.965l1.25 1.851.922 2.04.562 2.16Zm0 0-.188-2.23-.562-2.16-.922-2.04-1.25-1.851-1.547-1.613-1.797-1.329-1.996-1.007-2.137-.653-2.218-.285-2.235.094-2.183.473-2.075.832L7.41 4.648 5.73 6.125 4.328 7.863l-1.09 1.953-.746 2.11-.379 2.203v2.234l.38 2.203.745 2.106 1.09 1.953 1.402 1.738 1.68 1.477 1.902 1.172 2.075.832 2.183.472 2.235.094 2.218-.281 2.137-.656 1.996-1.008 1.797-1.328 1.547-1.614 1.25-1.851.922-2.035.562-2.164Zm.113 0-.191 2.246-.57 2.18-.926 2.055-1.262 1.867-1.563 1.625-1.808 1.343-2.016 1.012-2.152.66-2.238.29-2.25-.098-2.204-.473-2.093-.844-1.918-1.18-1.692-1.488-1.418-1.753-1.097-1.97-.75-2.124-.383-2.223v-2.254l.383-2.222.75-2.125 1.097-1.965L5.652 6.05l1.692-1.492 1.918-1.18 2.093-.84 2.204-.477 2.25-.093 2.238.285 2.152.66 2.016 1.016 1.808 1.34 1.563 1.625 1.262 1.867.925 2.054.57 2.184Zm0 0L28.344 13l-.57-2.184-.926-2.054-1.262-1.867-1.563-1.625-1.808-1.34-2.016-1.016-2.152-.66-2.238-.285-2.25.093-2.204.477-2.093.84-1.918 1.18L5.652 6.05 4.234 7.805 3.137 9.77l-.75 2.125-.383 2.222v2.254l.383 2.223.75 2.125 1.097 1.968 1.418 1.754 1.692 1.489 1.918 1.18 2.093.843 2.204.473 2.25.097 2.238-.289 2.152-.66 2.016-1.012 1.808-1.343 1.563-1.625 1.262-1.867.925-2.055.57-2.18Zm.11 0-.192 2.262-.574 2.199-.934 2.074-1.273 1.883-1.574 1.64-1.828 1.352-2.028 1.024-2.176.664-2.253.289-2.27-.098-2.223-.476-2.11-.848-1.933-1.191-1.707-1.504-1.425-1.766-1.11-1.984-.758-2.145-.382-2.238v-2.274l.382-2.242.758-2.14 1.11-1.985 1.425-1.77 1.707-1.5 1.934-1.19 2.11-.848 2.222-.48 2.27-.099 2.253.29 2.176.668 2.028 1.023 1.828 1.352 1.574 1.64 1.273 1.883.934 2.07.574 2.2Zm0 0-.192-2.266-.574-2.199-.934-2.07-1.273-1.883-1.574-1.64-1.828-1.352-2.028-1.023-2.176-.668-2.253-.29-2.27.098-2.223.48-2.11.848-1.933 1.192-1.707 1.5-1.425 1.77-1.11 1.984-.758 2.14-.382 2.242v2.274l.382 2.238.758 2.145 1.11 1.984 1.425 1.766 1.707 1.504 1.934 1.19 2.11.849 2.222.476 2.27.098 2.253-.29 2.176-.663 2.028-1.024 1.828-1.351 1.574-1.64 1.273-1.884.934-2.074.574-2.2Zm.113 0-.195 2.281-.579 2.22-.945 2.085-1.281 1.902-1.586 1.653-1.844 1.363-2.047 1.031-2.191.672-2.27.29-2.293-.098-2.238-.48-2.125-.856-1.953-1.204-1.719-1.511-1.441-1.785-1.117-2-.762-2.16-.387-2.258v-2.293l.387-2.258.762-2.16 1.117-2 1.441-1.785 1.719-1.512L9.164 3.18l2.125-.852 2.238-.484 2.293-.098 2.27.293 2.191.668 2.047 1.031 1.844 1.364 1.586 1.656 1.281 1.898.945 2.086.578 2.219Zm0 0-.195-2.285-.579-2.219-.945-2.086-1.281-1.898-1.586-1.656-1.844-1.364-2.047-1.031-2.191-.668-2.27-.293-2.293.098-2.238.484-2.125.852-1.953 1.203-1.719 1.512L4.051 7.68l-1.117 2-.762 2.16-.387 2.258v2.293l.387 2.257.762 2.16 1.117 2 1.441 1.786 1.719 1.511 1.953 1.204 2.125.855 2.238.48 2.293.098 2.27-.289 2.191-.672 2.047-1.031 1.844-1.363 1.586-1.653 1.281-1.902.945-2.086.578-2.219Zm.11 0-.196 2.3-.582 2.235-.953 2.106-1.293 1.914-1.598 1.668-1.86 1.375-2.062 1.039-2.21.676-2.29.296-2.308-.097-2.258-.488-2.145-.864-1.968-1.21-1.735-1.524-1.45-1.8-1.128-2.017-.77-2.18-.39-2.277V14.09l.39-2.277.77-2.18 1.129-2.016L5.41 5.82l1.734-1.527 1.968-1.211 2.145-.863 2.258-.485 2.308-.097 2.29.293 2.21.675 2.063 1.04 1.86 1.375 1.597 1.668 1.293 1.914.953 2.105.582 2.234Zm0 0-.196-2.305-.582-2.234-.953-2.105-1.293-1.915-1.598-1.667-1.86-1.375-2.062-1.04-2.21-.675-2.29-.293-2.308.097-2.258.485-2.145.863-1.968 1.211L5.41 5.82 3.96 7.617 2.833 9.633l-.77 2.18-.39 2.277v2.308l.39 2.278.77 2.18 1.129 2.015 1.45 1.8 1.734 1.524 1.968 1.211 2.145.864 2.258.488 2.308.097 2.29-.296 2.21-.676 2.063-1.04 1.86-1.374 1.597-1.668 1.293-1.914.953-2.106.582-2.234Zm.109 0-.196 2.32-.59 2.254-.957 2.121-1.304 1.93-1.614 1.684-1.87 1.383-2.079 1.05-2.23.68-2.309.297-2.328-.098-2.277-.492-2.16-.867-1.985-1.223-1.746-1.539-1.465-1.812-1.137-2.032-.773-2.199-.395-2.293v-2.328l.395-2.297.773-2.195 1.137-2.035 1.465-1.813 1.746-1.539 1.984-1.219 2.16-.87 2.278-.489 2.328-.102 2.309.297 2.23.684 2.078 1.047 1.871 1.386 1.614 1.68 1.304 1.93.957 2.125.59 2.254Zm0 0-.196-2.32-.59-2.254-.957-2.125-1.304-1.93-1.614-1.68-1.87-1.386-2.079-1.047-2.23-.684-2.309-.297-2.328.102-2.277.488-2.16.871-1.985 1.22-1.746 1.538-1.465 1.813L2.73 9.59l-.773 2.195-.395 2.297v2.328l.395 2.293.773 2.2 1.137 2.03 1.465 1.813 1.746 1.54 1.984 1.222 2.16.867 2.278.492 2.328.098 2.309-.297 2.23-.68 2.078-1.05 1.871-1.383 1.614-1.684 1.304-1.93.957-2.12.59-2.255Zm.113 0-.2 2.34-.593 2.27-.965 2.14-1.316 1.945-1.625 1.696-1.887 1.394-2.098 1.059-2.246.687-2.328.297-2.344-.097-2.297-.497-2.18-.875-1.995-1.23-1.766-1.55-1.473-1.829-1.144-2.05-.785-2.212-.395-2.316V14.07l.395-2.312.785-2.215 1.144-2.05L5.25 5.667l1.766-1.555 1.996-1.23 2.18-.875 2.296-.492 2.344-.102 2.328.297 2.246.687 2.098 1.059 1.887 1.395 1.625 1.695 1.316 1.945.965 2.14.594 2.274Zm0 0-.2-2.34-.593-2.273-.965-2.14-1.316-1.946-1.625-1.695-1.887-1.395-2.098-1.059-2.246-.687-2.328-.297-2.344.102-2.297.492-2.18.875-1.995 1.23L5.25 5.668 3.777 7.492 2.633 9.543l-.785 2.215-.395 2.312v2.348l.395 2.316.785 2.211 1.144 2.051 1.473 1.828 1.766 1.551 1.996 1.23 2.18.875 2.296.497 2.344.097 2.328-.297 2.246-.687 2.098-1.059 1.887-1.394 1.625-1.696 1.316-1.945.965-2.14.594-2.27Zm.11 0-.2 2.356-.598 2.293-.976 2.156-1.324 1.96-1.637 1.708-1.902 1.406-2.114 1.066-2.265.696-2.348.3-2.363-.101-2.313-.5-2.195-.883-2.016-1.238-1.777-1.567-1.488-1.84-1.153-2.066-.789-2.23-.398-2.332v-2.367l.398-2.333.79-2.234L3.683 7.43l1.488-1.84 1.777-1.563 2.016-1.242 2.195-.883 2.313-.5 2.363-.097 2.348.3 2.265.692 2.113 1.066 1.903 1.407 1.637 1.71 1.324 1.961.976 2.157.598 2.289Zm0 0-.2-2.36-.598-2.288-.976-2.157-1.324-1.96-1.637-1.711-1.902-1.407-2.114-1.066-2.265-.692-2.348-.3-2.363.097-2.313.5-2.195.883-2.016 1.242L5.172 5.59 3.684 7.43 2.53 9.496l-.789 2.234-.398 2.332v2.368l.398 2.332.79 2.23 1.152 2.067 1.488 1.84 1.777 1.566 2.016 1.238 2.195.883 2.313.5 2.363.102 2.348-.301 2.265-.696 2.113-1.066 1.903-1.406 1.637-1.707 1.324-1.961.976-2.156.598-2.293Zm.109 0-.204 2.375-.597 2.309-.985 2.175-1.335 1.977-1.649 1.719-1.918 1.422-2.133 1.074-2.281.695-2.363.305-2.387-.102-2.332-.504-2.21-.886-2.032-1.254-1.793-1.574-1.496-1.856L2.43 21.04l-.797-2.25-.403-2.352v-2.386l.403-2.352.797-2.246 1.164-2.086L5.09 5.512l1.793-1.574 2.031-1.25 2.211-.891 2.332-.504 2.387-.102 2.363.305 2.281.7 2.133 1.074 1.918 1.418 1.648 1.722 1.336 1.977.985 2.172.597 2.308Zm0 0-.204-2.379-.597-2.308-.985-2.172-1.335-1.977-1.649-1.723-1.918-1.417-2.133-1.075-2.281-.699-2.363-.305-2.387.102-2.332.504-2.21.89-2.032 1.25L5.09 5.513 3.594 7.367 2.43 9.453 1.633 11.7l-.403 2.352v2.387l.403 2.351.797 2.25 1.164 2.082 1.496 1.856 1.793 1.574 2.031 1.254 2.211.886 2.332.504 2.387.102 2.363-.305 2.281-.695 2.133-1.074L24.54 25.8l1.648-1.719 1.336-1.977.985-2.175.597-2.309Zm14.285 0-.407 4.79-1.21 4.651-1.98 4.383-2.692 3.985-3.328 3.472-3.868 2.86-4.293 2.164-4.597 1.406-4.77.613-4.804-.203-4.7-1.015-4.465-1.793-4.093-2.52-3.61-3.176-3.02-3.742-2.347-4.2-1.601-4.534-.813-4.739V12.84l.813-4.738 1.601-4.536 2.348-4.195 3.02-3.742 3.609-3.18 4.093-2.52 4.465-1.792 4.7-1.012 4.804-.203 4.77.61 4.597 1.406 4.293 2.167 3.868 2.86 3.328 3.469 2.691 3.984 1.98 4.383 1.212 4.652ZM1.07 29.418V1.07h28.348v28.348Zm0 0"/></g><path fill="none" stroke="#000" stroke-miterlimit="10" stroke-width=".399" d="M1.07 29.418V1.07h28.348v28.348Zm0 0"/></svg>