<svg xmlns="http://www.w3.org/2000/svg" width="87.896" height="30.728"><defs><clipPath id="a"><path d="M0 0h87.844v30.594H0Zm0 0"/></clipPath></defs><g clip-path="url(#a)"><path fill="none" stroke="#000" stroke-miterlimit="10" stroke-width=".399" d="m1.04 29.41.565-.285.567-.281.566-.285.567-.282.566-.285.567-.281.566-.285.566-.281.567-.286.566-.28.567-.286.566-.281.566-.285.567-.282.566-.285.567-.281.566-.285.566-.282.567-.285.566-.28.567-.286.566-.281.566-.285.567-.282.566-.285.567-.281.566-.285.566-.282.567-.285.566-.28.567-.286.566-.281.566-.285.567-.282.566-.285.567-.281.566-.285.567-.282.566-.285.566-.281.567-.285.566-.281.567-.286.566-.28.566-.286.567-.281.566-.285.567-.282.566-.285.566-.281.567-.285.566-.281.567-.286.566-.28.566-.286.567-.281.566-.285.567-.282.566-.285.566-.281.567-.285.566-.281.567-.286.566-.28.566-.286.567-.281.566-.285.567-.282.566-.285.566-.281.567-.285.566-.281.567-.286.566-.28.567-.286.566-.281.566-.285.567-.282.566-.285.567-.281.566-.285.566-.282.567-.285.566-.28.567-.286.566-.281.566-.285.567-.282.566-.285.567-.281.566-.285.566-.282.567-.285.566-.28.567-.286.566-.281.566-.285.567-.282.57-.285.567-.281.68-.02.445.012.445.02.445.027.442.035.445.04.441.05.442.055.441.058.438.07.441.075.438.082.433.09.434.097.433.102.434.11.43.116.425.125.426.13.426.136.422.145.418.148.418.156.414.164.41.172.406.176.406.184.403.187.402.195.395.203.394.207.39.215.388.22.382.226.38.23.374.238.375.247.368.25.363.253.36.262.359.266.351.273.348.278.34.285.34.289.335.293.329.297.43.406 3.519-.07-.79 7.296 6.446 1.922-3.262 6.578 2.653 1.809.144 2.91"/></g></svg>