<svg xmlns="http://www.w3.org/2000/svg" width="87.465" height="61.67"><defs><clipPath id="a"><path d="M0 0h87.2v61.504H0Zm0 0"/></clipPath></defs><path fill="none" stroke="#7F7F7F" stroke-miterlimit="10" stroke-width=".199" d="M.95 60.39h85.038M.95 32.044h85.04M.948 3.707h85.04M.948 60.391V3.699m28.348 56.692V3.699m28.348 56.692V3.699M85.98 60.391V3.699"/><g clip-path="url(#a)"><path fill="none" stroke="#000" stroke-miterlimit="10" stroke-width=".399" d="m.95 60.39.015-1.347.05-1.348.083-1.347.12-1.344.153-1.34.192-1.336.23-1.332.27-1.32.308-1.313.348-1.304.386-1.293.43-1.278.473-1.265.512-1.246.558-1.227.594-1.21.64-1.188.68-1.164.719-1.141.762-1.117.8-1.086.836-1.059.875-1.023.914-.996.946-.961.976-.93 1.012-.895 1.043-.855 1.07-.824 1.098-.781 1.121-.747 1.148-.71 1.567-.887-6.8-15.266 5.237 3.031 1.102-5.816 4.816 3.621 1.711-5.644 4.36 4.132 2.289-5.425 3.875 4.578L41.3 1.23l3.363 4.958 3.352-4.833 2.832 5.282 3.847-4.453 2.274 5.55 4.32-4.011L62.973 9.5 67.734 6l1.055 5.945 2.89-1.3-6.585 12.546v.004l1.176.657 1.156.699 1.129.734 1.105.774 1.082.808 1.047.848 1.023.883.989.918.957.953.922.984.882 1.016.852 1.047.813 1.078.77 1.105.733 1.133.692 1.16.652 1.18.61 1.203.57 1.227.527 1.242.48 1.258.446 1.273.402 1.29.36 1.3.32 1.308.281 1.325.239 1.324.203 1.336.168 1.336.129 1.343.093 1.348.059 1.348.027 1.758"/></g></svg>