<svg xmlns="http://www.w3.org/2000/svg" xmlns:xlink="http://www.w3.org/1999/xlink" width="87.253" height="167.474"><defs><path id="a" d="M5.406-2.172c0-1.344-.922-2.344-2.547-2.344C1.22-4.516.313-3.5.313-2.172c0 1.235.89 2.235 2.546 2.235 1.672 0 2.547-1.016 2.547-2.235m-1.281-.11c0 .86 0 1.938-1.266 1.938-1.265 0-1.265-1.078-1.265-1.937 0-.453 0-.953.172-1.297.187-.375.609-.578 1.093-.578.422 0 .844.156 1.063.5.203.344.203.89.203 1.375m0 0"/><path id="b" d="M6.125 0v-.469h-.687v-2.578c0-1.047-.532-1.437-1.532-1.437-.953 0-1.484.562-1.75 1.078v-1.078l-1.703.078v.468c.61 0 .688 0 .688.391v3.078H.453V0l1.25-.031L2.953 0v-.469h-.687v-2.078c0-1.094.859-1.578 1.5-1.578.328 0 .547.203.547.969V-.47h-.688V0l1.25-.031Zm0 0"/><path id="c" d="M4.922-1.172c0-.172-.188-.172-.234-.172-.172 0-.188.047-.25.203-.204.485-.782.797-1.422.797-1.407 0-1.422-1.328-1.422-1.828h3.015c.22 0 .313 0 .313-.265 0-.313-.063-1.047-.563-1.547-.359-.36-.89-.532-1.578-.532C1.187-4.516.313-3.484.313-2.25c0 1.344 1 2.313 2.609 2.313 1.578 0 2-1.063 2-1.235M3.984-2.5h-2.39c.015-.39.031-.812.234-1.14.266-.391.672-.516.953-.516 1.172 0 1.188 1.312 1.203 1.656m0 0"/><path id="d" d="M3.813-1.234v-.532h-.47v.516c0 .672-.327.906-.609.906-.578 0-.578-.64-.578-.86v-2.75h1.469v-.468H2.156v-1.906h-.469c0 1-.484 1.984-1.484 2.016v.359h.828v2.734c0 1.063.86 1.282 1.578 1.282.75 0 1.204-.579 1.204-1.297m0 0"/><path id="e" d="M8.031-3.953v-.469a13 13 0 0 1-.781.031l-.953-.03v.468c.094 0 .578 0 .578.11 0 .03-.031.093-.031.124L5.797-1.172l-1.14-2.781h.562v-.469l-1.14.031c-.423 0-.845-.03-1-.03v.468h.593c.203.5.203.531.203.531 0 .031-.031.094-.031.125L3.047-1.39 2-3.953h.563v-.469l-1.235.031L.25-4.42v.468h.594L2.359-.234c.079.172.11.28.36.28s.297-.108.36-.28L4.14-2.812 5.188-.235c.078.172.109.28.359.28s.297-.108.36-.28L7.343-3.75c.047-.125.093-.203.687-.203m0 0"/><path id="f" d="M6.125 0v-.469h-.687v-2.578c0-1.047-.532-1.437-1.532-1.437a1.9 1.9 0 0 0-1.687.953v-3.39l-1.766.077v.469c.61 0 .688 0 .688.39v5.516H.453V0l1.25-.031L2.953 0v-.469h-.687v-2.078c0-1.094.859-1.578 1.5-1.578.328 0 .547.203.547.969V-.47h-.688V0l1.25-.031Zm0 0"/><path id="g" d="M4.406-3.672c0-.531-.531-.812-1.062-.812-.688 0-1.094.5-1.313 1.125v-1.125l-1.656.078v.468c.61 0 .688 0 .688.391v3.078H.375V0l1.25-.031C2-.031 2.641-.031 3 0v-.469h-.86v-1.75c0-.687.235-1.906 1.235-1.906 0 0-.187.172-.187.453 0 .406.328.61.609.61.297 0 .61-.204.61-.61m0 0"/><path id="h" d="M4.36-6.11c0-.421-.36-.874-1.141-.874-.969 0-2.047.422-2.047 1.547v1.015h-.75v.469h.75V-.47H.484V0l1.25-.031c.375 0 1.016 0 1.375.031v-.469H2.25v-3.484h1.14v-.469H2.188v-1.016c0-1.093.75-1.187 1-1.187.047 0 .11 0 .172.031a.59.59 0 0 0-.234.485c0 .422.36.609.61.609.296 0 .624-.203.624-.61m0 0"/><path id="i" d="M6.125 0v-.469c-.61 0-.687 0-.687-.39v-3.625l-1.813.078v.468c.61 0 .688 0 .688.391v1.906c0 .813-.516 1.344-1.235 1.344-.781 0-.812-.25-.812-.797v-3.39l-1.813.078v.468c.61 0 .688 0 .688.391v2.328c0 1.063.797 1.282 1.797 1.282.25 0 .968 0 1.421-.782v.782Zm0 0"/><clipPath id="j"><path d="M34 131h52.879v36.21H34Zm0 0"/></clipPath></defs><use xlink:href="#a" x="20.396" y="5.259"/><use xlink:href="#b" x="26.125" y="5.259"/><use xlink:href="#c" x="32.491" y="5.259"/><path fill="none" stroke="#000" stroke-miterlimit="10" stroke-width=".399" d="M17.457 8.84.723 17.207"/><use xlink:href="#d" x="20.157" y="48.685"/><use xlink:href="#e" x="24.292" y="48.685"/><use xlink:href="#a" x="32.252" y="48.685"/><path fill="none" stroke="#000" stroke-miterlimit="10" stroke-width=".399" d="M16.637 51.766.723 59.726M29.07 52.266v14.547"/><use xlink:href="#d" x="16.049" y="91.498"/><use xlink:href="#f" x="20.502" y="91.498"/><use xlink:href="#g" x="26.868" y="91.498"/><use xlink:href="#c" x="31.59" y="91.498"/><use xlink:href="#c" x="36.841" y="91.498"/><path fill="none" stroke="#000" stroke-miterlimit="10" stroke-width=".399" d="M15.059 95.078.723 102.246M29.07 95.078v14.254M36.074 95.078l21.344 21.34"/><use xlink:href="#h" x="18.913" y="134.048"/><use xlink:href="#a" x="22.409" y="134.048"/><use xlink:href="#i" x="28.138" y="134.048"/><use xlink:href="#g" x="34.504" y="134.048"/><path fill="none" stroke="#000" stroke-miterlimit="10" stroke-width=".399" d="M15.395 137.43.723 144.766M29.07 137.629v14.223M36.105 137.629l21.313 21.309"/><g clip-path="url(#j)"><path fill="none" stroke="#000" stroke-miterlimit="10" stroke-width=".399" d="m40.324 137.629 45.438 28.398"/></g></svg>