<svg xmlns="http://www.w3.org/2000/svg" xmlns:xlink="http://www.w3.org/1999/xlink" width="277.88" height="87.05"><defs><path id="d" d="M2.078-1.937c.219.046 1.031.203 1.031.921 0 .5-.343.907-1.125.907-.843 0-1.203-.563-1.39-1.422-.031-.125-.031-.157-.14-.157-.126 0-.126.063-.126.235v1.328c0 .172 0 .234.11.234C.484.11.5.094.688-.094.703-.109.703-.125.89-.312c.437.406.89.421 1.093.421 1.141 0 1.61-.671 1.61-1.39 0-.516-.297-.828-.422-.938-.328-.328-.719-.406-1.14-.484-.563-.11-1.22-.235-1.22-.813 0-.359.25-.765 1.11-.765 1.094 0 1.156.906 1.172 1.203 0 .094.094.094.11.094.14 0 .14-.047.14-.235v-1.015c0-.157 0-.235-.11-.235-.046 0-.078 0-.203.125-.031.032-.125.125-.172.157-.375-.282-.78-.282-.937-.282-1.219 0-1.594.672-1.594 1.235 0 .343.156.625.422.843.328.25.61.313 1.328.454m0 0"/><path id="e" d="m1.766-4.406-1.391.11v.312c.64 0 .734.062.734.547V-.75c0 .438-.109.438-.78.438V0c.312-.016.859-.031 1.093-.031.36 0 .703.015 1.047.031v-.312c-.672 0-.703-.047-.703-.438Zm.03-1.735a.514.514 0 0 0-.515-.53.537.537 0 0 0-.531.53c0 .266.219.532.531.532a.514.514 0 0 0 .516-.532m0 0"/><path id="f" d="M1.094-3.422V-.75c0 .438-.11.438-.782.438V0c.36-.016.86-.031 1.141-.031.25 0 .766.015 1.11.031v-.312c-.672 0-.782 0-.782-.438v-1.844c0-1.031.719-1.594 1.344-1.594.64 0 .75.532.75 1.11V-.75c0 .438-.11.438-.781.438V0c.344-.016.86-.031 1.125-.031.25 0 .781.015 1.11.031v-.312c-.516 0-.766 0-.766-.297v-1.907c0-.859 0-1.156-.313-1.515-.14-.172-.469-.375-1.047-.375-.734 0-1.203.422-1.484 1.047v-1.047l-1.406.11v.312c.703 0 .78.062.78.562m0 0"/><path id="h" d="M1.172-2.172c0-1.625.812-2.047 1.344-2.047.093 0 .718.016 1.062.375-.406.031-.469.328-.469.453 0 .266.188.454.454.454.265 0 .468-.157.468-.47 0-.671-.765-1.062-1.531-1.062C1.25-4.469.344-3.39.344-2.156c0 1.281.984 2.265 2.14 2.265 1.329 0 1.657-1.203 1.657-1.296 0-.094-.11-.094-.141-.094-.078 0-.11.031-.125.093C3.594-.265 2.938-.14 2.578-.14c-.531 0-1.406-.421-1.406-2.03m0 0"/><path id="i" d="M4.688-2.14c0-1.266-.985-2.329-2.188-2.329C1.25-4.469.281-3.375.281-2.14A2.22 2.22 0 0 0 2.484.11c1.204 0 2.204-.984 2.204-2.25M2.5-.14c-.437 0-.875-.204-1.14-.672-.25-.438-.25-1.047-.25-1.407 0-.39 0-.922.234-1.36a1.35 1.35 0 0 1 1.14-.671c.438 0 .86.219 1.125.656.266.422.266 1 .266 1.375 0 .36 0 .906-.219 1.344-.234.453-.672.734-1.156.734m0 0"/><path id="l" d="M1.719-3.984h1.437v-.313H1.72v-1.828h-.25c0 .813-.297 1.875-1.281 1.922v.219h.843v2.75c0 1.218.938 1.343 1.297 1.343.703 0 .985-.703.985-1.343v-.563h-.25v.547c0 .734-.297 1.11-.672 1.11-.672 0-.672-.907-.672-1.079Zm0 0"/><path id="m" d="M3.313-.75c.046.39.312.813.78.813.22 0 .829-.141.829-.954v-.562h-.25v.562c0 .579-.25.641-.36.641-.328 0-.375-.453-.375-.5v-1.984c0-.422 0-.813-.359-1.188-.39-.39-.89-.547-1.36-.547-.827 0-1.515.469-1.515 1.125 0 .297.203.469.469.469a.435.435 0 0 0 .453-.453c0-.125-.047-.453-.516-.453.282-.36.766-.469 1.079-.469.5 0 1.062.39 1.062 1.281v.36c-.516.03-1.203.062-1.828.359-.75.344-1 .86-1 1.297 0 .812.969 1.062 1.594 1.062.656 0 1.109-.406 1.297-.859M3.25-2.39v1c0 .937-.719 1.28-1.172 1.28-.484 0-.89-.343-.89-.843 0-.547.421-1.375 2.062-1.438m0 0"/><path id="n" d="M6.844-3.266c.156 0 .343 0 .343-.187 0-.203-.187-.203-.328-.203H.891c-.141 0-.328 0-.328.203 0 .187.187.187.328.187Zm.015 1.938c.141 0 .329 0 .329-.203 0-.188-.188-.188-.344-.188H.89c-.141 0-.328 0-.328.188 0 .203.187.203.328.203Zm0 0"/><path id="r" d="M2.938-6.375c0-.25 0-.266-.235-.266C2.078-6 1.203-6 .891-6v.313c.203 0 .78 0 1.297-.266v5.172c0 .36-.032.469-.922.469H.953V0c.344-.031 1.203-.031 1.61-.031.39 0 1.265 0 1.609.031v-.312h-.313c-.906 0-.921-.11-.921-.47Zm0 0"/><path id="g" d="M4.75-2.36c0-1.562-.922-2.046-1.656-2.046-1.375 0-2.688 1.422-2.688 2.828C.406-.641 1 .109 2.031.109c.625 0 1.344-.234 2.094-.843.125.53.453.843.906.843.532 0 .844-.546.844-.703 0-.078-.062-.11-.125-.11-.062 0-.094.032-.125.11-.187.485-.547.485-.562.485-.313 0-.313-.782-.313-1.016 0-.203 0-.234.11-.344C5.796-2.656 6-3.812 6-3.812c0-.032-.016-.11-.125-.11-.094 0-.094.031-.14.219-.188.625-.516 1.375-.985 1.969ZM4.094-.983c-.89.765-1.657.875-2.047.875-.594 0-.906-.453-.906-1.094 0-.484.265-1.563.578-2.063.468-.734 1.015-.921 1.36-.921.983 0 .983 1.312.983 2.078 0 .375 0 .953.032 1.125m0 0"/><path id="q" d="M6.563-2.297c.171 0 .359 0 .359-.203 0-.187-.188-.187-.36-.187h-5.39c-.172 0-.344 0-.344.187 0 .203.172.203.344.203Zm0 0"/><path id="t" d="M2.328-4.437c0-.188 0-.188-.203-.188-.453.438-1.078.438-1.36.438v.25c.157 0 .626 0 1-.188v3.547c0 .234 0 .328-.687.328H.812V0c.125 0 .985-.031 1.235-.031.219 0 1.094.031 1.25.031v-.25H3.03c-.703 0-.703-.094-.703-.328Zm0 0"/><path id="v" d="M3.516-1.266H3.28c-.015.157-.094.563-.187.625-.047.047-.578.047-.688.047H1.125c.734-.64.984-.843 1.39-1.172.516-.406 1-.843 1-1.5 0-.843-.734-1.359-1.624-1.359-.86 0-1.453.61-1.453 1.25 0 .344.296.39.375.39.156 0 .359-.124.359-.374 0-.125-.047-.375-.406-.375.218-.485.687-.641 1.015-.641.703 0 1.063.547 1.063 1.11 0 .609-.438 1.078-.656 1.328L.516-.266C.437-.203.437-.187.437 0h2.876Zm0 0"/><clipPath id="a"><path d="M9 .523h239v85.043H9Zm0 0"/></clipPath><clipPath id="b"><path d="M128 .523h1v85.043h-1Zm0 0"/></clipPath><clipPath id="c"><path d="M37 .523h183v85.043H37Zm0 0"/></clipPath><clipPath id="j"><path d="M196 2h35v83.566h-35Zm0 0"/></clipPath><clipPath id="k"><path d="M215 30h62.82v28H215Zm0 0"/></clipPath><clipPath id="o"><path d="M255 44h22.82v1H255Zm0 0"/></clipPath><clipPath id="p"><path d="M33 71h21v14.566H33Zm0 0"/></clipPath><clipPath id="s"><path d="M75 71h22v14.566H75Zm0 0"/></clipPath><clipPath id="u"><path d="M88 82h4v3.566h-4Zm0 0"/></clipPath></defs><g clip-path="url(#a)"><path fill="none" stroke="#7F7F7F" stroke-miterlimit="10" stroke-width=".199" d="M9.453 153.598h238.113M9.453 111.078h238.113M9.453 68.558h238.113M9.453 26.036h238.113M9.453-16.485h238.113M43.47 187.614V-50.5m42.52 238.113V-50.5m42.523 238.113V-50.5m42.52 238.113V-50.5m42.519 238.113V-50.5"/></g><path fill="#CFC" stroke="#007F00" stroke-miterlimit="10" stroke-width=".399" d="M128.512 68.559h25.511c0-4.48-1.18-8.88-3.418-12.758Zm0 0"/><path fill="none" stroke="#000" stroke-miterlimit="10" stroke-width=".399" d="M.95 68.559h254.722"/><path fill="none" stroke="#000" stroke-linecap="round" stroke-linejoin="round" stroke-miterlimit="10" stroke-width=".399" d="M253.8 66.164c.376 1.438 1.22 2.113 2.071 2.395-.851.277-1.695.953-2.07 2.39"/><g clip-path="url(#b)"><path fill="none" stroke="#000" stroke-miterlimit="10" stroke-width=".399" d="M128.512 196.117V-58.605"/></g><g clip-path="url(#c)"><path fill="none" stroke="#000" stroke-miterlimit="10" stroke-width=".399" d="M213.55 68.559c0-46.97-38.073-85.043-85.038-85.043-46.969 0-85.043 38.074-85.043 85.043 0 46.964 38.074 85.039 85.043 85.039 46.965 0 85.039-38.075 85.039-85.04Zm0 0"/></g><path fill="none" stroke="red" stroke-miterlimit="10" stroke-width="1.196" d="M202.156 26.035V68.56"/><path fill="#FFF" d="M173.621 53.945h26.941V40.648h-26.94Zm0 0"/><g fill="red"><use xlink:href="#d" x="176.939" y="50.624"/><use xlink:href="#e" x="180.868" y="50.624"/><use xlink:href="#f" x="183.636" y="50.624"/></g><use xlink:href="#g" x="190.832" y="50.624" fill="red"/><path fill="none" stroke="#00F" stroke-miterlimit="10" stroke-width="1.196" d="M202.156 68.559h-73.644"/><path fill="#FFF" d="M151.309 82.078h28.05v-10.93h-28.05Zm0 0"/><g fill="#00F"><use xlink:href="#h" x="154.628" y="78.757"/><use xlink:href="#i" x="159.055" y="78.757"/><use xlink:href="#d" x="164.037" y="78.757"/></g><use xlink:href="#g" x="169.628" y="78.757" fill="#00F"/><g clip-path="url(#j)"><path fill="none" stroke="#FF7F00" stroke-miterlimit="10" stroke-width="1.196" d="m213.55 68.559-.003-49.102"/></g><g clip-path="url(#k)"><path fill="#FFF" d="M215.145 57.441h66.183V30.574h-66.183Zm0 0"/></g><g fill="#FF7F00"><use xlink:href="#l" x="218.462" y="47.287"/><use xlink:href="#m" x="222.336" y="47.287"/><use xlink:href="#f" x="227.318" y="47.287"/></g><use xlink:href="#g" x="234.513" y="47.287" fill="#FF7F00"/><use xlink:href="#n" x="243.69" y="47.287"/><g fill="red"><use xlink:href="#d" x="255.956" y="40.548"/><use xlink:href="#e" x="259.885" y="40.548"/><use xlink:href="#f" x="262.653" y="40.548"/></g><use xlink:href="#g" x="269.848" y="40.548" fill="red"/><g clip-path="url(#o)"><path fill="none" stroke="#000" stroke-miterlimit="10" stroke-width=".398" d="M255.402 44.797h21.41"/></g><g fill="#00F"><use xlink:href="#h" x="255.402" y="54.121"/><use xlink:href="#i" x="259.829" y="54.121"/><use xlink:href="#d" x="264.811" y="54.121"/></g><use xlink:href="#g" x="270.401" y="54.121" fill="#00F"/><path fill="none" stroke="#000" stroke-miterlimit="10" stroke-width=".399" d="m128.512 68.559 85.035-49.102M43.469 65.566v5.98"/><g clip-path="url(#p)"><path fill="#FFF" d="M33.785 85.637h19.371v-13.89h-19.37Zm0 0"/></g><use xlink:href="#q" x="37.105" y="81.486"/><use xlink:href="#r" x="44.854" y="81.486"/><path fill="none" stroke="#000" stroke-miterlimit="10" stroke-width=".399" d="M85.988 65.566v5.98"/><g clip-path="url(#s)"><path fill="#FFF" d="M75.613 90.238h20.754V71.746H75.613Zm0 0"/></g><use xlink:href="#q" x="78.935" y="83.482"/><use xlink:href="#t" x="87.879" y="79.56"/><path fill="none" stroke="#000" stroke-miterlimit="10" stroke-width=".398" d="M87.879 80.992h3.973"/><g clip-path="url(#u)"><use xlink:href="#v" x="87.879" y="86.918"/></g><path fill="none" stroke="#000" stroke-miterlimit="10" stroke-width=".399" d="M213.55 65.566v5.98"/><path fill="#FFF" d="M207.738 84.809h11.625V71.746h-11.625Zm0 0"/><use xlink:href="#r" x="211.058" y="81.486"/><path fill="none" stroke="#000" stroke-miterlimit="10" stroke-width=".399" d="M131.5 26.035h-5.98"/><path fill="#FFF" d="M112.32 35.285h13V16.79h-13Zm0 0"/><use xlink:href="#t" x="116.834" y="24.605"/><path fill="none" stroke="#000" stroke-miterlimit="10" stroke-width=".398" d="M116.836 26.035h3.969"/><use xlink:href="#v" x="116.834" y="31.963"/></svg>