<svg xmlns="http://www.w3.org/2000/svg" xmlns:xlink="http://www.w3.org/1999/xlink" width="167.033" height="139.574"><defs><path id="b" d="m1.656-6.219-1.328.094v.281c.61 0 .688.063.688.5v4.657c0 .406-.094.406-.688.406V0c.422-.016.594-.031 1-.031.422 0 .578.015 1.016.031v-.281c-.594 0-.688 0-.688-.406Zm0 0"/><path id="c" d="M4.344-1.906c0-1.172-.938-2.11-2.032-2.11-1.14 0-2.046.954-2.046 2.11 0 1.11.922 2 2.03 2 1.142 0 2.048-.906 2.048-2M2.312-.156c-.453 0-.828-.219-1.03-.563-.235-.39-.25-.86-.25-1.265 0-.344 0-.844.218-1.22a1.22 1.22 0 0 1 1.047-.593c.515 0 .875.297 1.062.594.204.375.204.828.204 1.219 0 .328 0 .843-.22 1.234a1.18 1.18 0 0 1-1.03.594m0 0"/><path id="d" d="M1.125-1.61c.219.141.5.282.906.282.86 0 1.5-.61 1.5-1.313 0-.437-.25-.75-.36-.875.36-.328.782-.328.876-.328-.031.031-.11.078-.11.235 0 .109.063.265.266.265.125 0 .266-.078.266-.265a.457.457 0 0 0-.485-.453c-.25 0-.656.093-.968.421a1.54 1.54 0 0 0-.97-.328c-.858 0-1.5.61-1.5 1.328 0 .454.266.782.407.907a1.26 1.26 0 0 0-.265.75c0 .297.14.625.39.78C.625-.046.266.282.266.704c0 .64.875 1.14 2.03 1.14 1.11 0 2.048-.468 2.048-1.155 0-.375-.172-.766-.5-.985-.5-.312-1.031-.312-1.875-.312-.188 0-.469 0-.547-.016C1.172-.687 1-.922 1-1.203c0-.156.047-.281.125-.406m.906.048c-.797 0-.797-.891-.797-1.079 0-.25.016-.546.172-.765a.8.8 0 0 1 .625-.313c.813 0 .813.86.813 1.078 0 .204 0 1.079-.813 1.079m.422 1.515c.281 0 1.39.016 1.39.735 0 .515-.702.921-1.53.921-.891 0-1.547-.421-1.547-.921 0-.141.093-.735.859-.735Zm0 0"/><path id="e" d="M4.406-3.625a.504.504 0 0 0-.422.484c0 .172.125.329.344.329.25 0 .5-.22.5-.532 0-.422-.453-.625-.875-.625-.531 0-.844.485-.953.672a1.04 1.04 0 0 0-1-.672c-.953 0-1.484 1.156-1.484 1.39 0 .079.062.11.125.11.078 0 .109-.047.125-.11.28-.89.875-1.155 1.218-1.155.266 0 .485.172.485.593 0 .313-.375 1.75-.5 2.188-.063.265-.344.828-.828.828-.188 0-.375-.062-.453-.11.234-.046.421-.265.421-.484 0-.234-.171-.328-.343-.328-.266 0-.5.219-.5.531 0 .438.484.61.859.61.531 0 .828-.422.969-.672.219.594.75.672.984.672.969 0 1.485-1.156 1.485-1.375 0-.047-.032-.11-.11-.11-.11 0-.11.032-.156.172-.203.64-.719 1.094-1.188 1.094-.25 0-.5-.156-.5-.594 0-.203.125-.687.204-1.031.046-.156.28-1.125.296-1.187.11-.329.375-.797.844-.797.156 0 .328.015.453.109m0 0"/><path id="f" d="M2.313-5.219a.506.506 0 0 0-.157.625c.078.157.266.235.469.14.219-.109.328-.421.188-.687-.188-.39-.688-.359-1.063-.171-.469.234-.531.812-.531 1.015C.859-4.609.406-4.64 0-4.437c-.844.421-.781 1.687-.687 1.89.03.078.093.078.156.063.062-.047.078-.094.062-.172-.14-.922.266-1.422.578-1.578.235-.11.5-.063.688.312.14.281.453 1.735.547 2.188.047.265.047.89-.39 1.109a.9.9 0 0 1-.454.11c.203-.141.281-.438.172-.626-.094-.218-.297-.218-.453-.14A.51.51 0 0 0 0-.594c.203.407.719.344 1.047.172.484-.234.562-.75.562-1.031.454.437.985.266 1.188.156.875-.437.812-1.703.703-1.89-.016-.047-.078-.094-.14-.047-.094.046-.079.078-.063.218.094.672-.156 1.313-.578 1.516-.219.11-.516.078-.719-.312-.078-.188-.172-.657-.266-1a43 43 0 0 0-.265-1.204c-.047-.343-.032-.89.39-1.093.141-.079.313-.141.454-.11m0 0"/><path id="g" d="M.766-7.5C.75-7.64.75-7.656.734-7.672c-.046-.094-.171-.125-.25-.094-.125.063-.125.141-.109.157l.969 9.047c.031.125.031.14.047.156.046.093.14.156.234.11.094-.048.125-.126.11-.298Zm0 0"/><path id="h" d="m2.984-3.281-.218.125c.046.11.203.61.172.781-.016.11-.563.39-.735.469l-1.422.718.422-1.156c.75-1.797 1.016-2.484.61-3.281C1.359-6.562.28-6.812-.72-6.328c-.922.469-1.187 1.516-.812 2.234.203.407.562.282.64.25.172-.094.36-.344.22-.64a.467.467 0 0 0-.641-.203c-.047.015-.063.015-.079.062a1.32 1.32 0 0 1 .72-1.406c.812-.407 1.468.218 1.75.781.405.797.124 1.781-.048 2.39L.36-.546c-.046.14-.046.156.047.344l3.078-1.531Zm0 0"/><path id="i" d="M3.219-1.125H3c-.016.094-.078.484-.156.547-.047.047-.531.047-.625.047h-1.11l.766-.625c.203-.172.734-.547.922-.735.172-.171.422-.484.422-.906 0-.75-.672-1.187-1.485-1.187-.765 0-1.296.515-1.296 1.078 0 .297.25.344.312.344a.32.32 0 0 0 .328-.329c0-.125-.078-.328-.344-.328.141-.297.5-.531.922-.531.625 0 .953.469.953.953 0 .422-.28.86-.687 1.25L.5-.25C.438-.187.438-.187.438 0H3.03Zm0 0"/><path id="j" d="M.938-2.203c.546-.063 1.125-.14 1.562-.328.813-.328.906-.828.86-1.14-.063-.5-.563-.72-1.094-.642C1.234-4.171 0-3.109.219-1.592.329-.75.922-.032 1.89-.157 3.219-.344 3.844-1.36 3.828-1.47c-.015-.047-.078-.125-.14-.11-.032 0-.047.016-.11.126-.469.703-1.234 1-1.703 1.062C1.25-.297 1-.875.938-1.312c0-.016-.047-.329 0-.891m.03-.235c.204-1.453 1.188-1.624 1.329-1.64.297-.047.687.047.734.453.125.89-1.219 1.063-2.062 1.188m0 0"/><path id="k" d="M3.031-2.797a.36.36 0 0 0-.234.36.227.227 0 0 0 .265.203.365.365 0 0 0 .313-.422c-.047-.328-.422-.406-.719-.36-.406.047-.578.375-.625.5-.11-.156-.375-.375-.828-.312-.687.094-.984.86-.953 1.062 0 .032.047.079.125.063.094-.016.11-.047.11-.094.078-.516.453-.797.734-.844.297-.03.422.141.437.344.016.063.016.125 0 .313a39 39 0 0 1-.14 1.203c-.063.234-.25.469-.5.5-.032 0-.188.031-.344-.047.203-.11.219-.297.203-.344C.859-.828.735-.89.609-.875c-.156.016-.328.172-.296.422.046.344.453.422.718.375a.83.83 0 0 0 .64-.516c.157.235.47.36.813.313.688-.094.97-.875.954-1.047-.016-.016-.016-.094-.126-.078-.078.015-.093.062-.093.11-.11.53-.5.78-.75.812-.219.03-.39-.063-.422-.313a.9.9 0 0 1 .015-.453l.079-.812c.03-.235.046-.36.14-.516.063-.094.203-.235.39-.25a.6.6 0 0 1 .36.031m0 0"/><path id="l" d="M5.563-1.812c.14 0 .312 0 .312-.172 0-.188-.172-.188-.312-.188H1c-.125 0-.297 0-.297.188 0 .172.172.172.297.172Zm0 0"/><path id="m" d="M2.25-1.625c.125-.125.453-.39.594-.5.484-.453.953-.89.953-1.61 0-.953-.797-1.562-1.781-1.562-.97 0-1.594.719-1.594 1.438 0 .39.312.437.422.437.172 0 .422-.11.422-.422 0-.406-.407-.406-.5-.406.234-.594.765-.781 1.156-.781.734 0 1.125.625 1.125 1.297 0 .828-.578 1.437-1.531 2.39l-1 1.047C.422-.219.422-.203.422 0h3.14l.235-1.422h-.25c-.016.156-.078.547-.172.703-.047.063-.656.063-.781.063H1.172Zm0 0"/><path id="n" d="M2.5-5.078c0-.219-.016-.219-.234-.219-.328.313-.75.5-1.5.5v.266c.218 0 .64 0 1.109-.203v4.078c0 .297-.031.39-.781.39H.812V0c.329-.031 1.016-.031 1.376-.031s1.046 0 1.374.031v-.266h-.28c-.75 0-.782-.093-.782-.39Zm0 0"/><path id="o" d="M3.89-2.547c0-.844-.078-1.36-.343-1.875-.344-.703-1-.875-1.438-.875-1 0-1.375.75-1.484.969C.344-3.75.328-2.953.328-2.547c0 .531.016 1.328.406 1.969.36.594.954.75 1.375.75.391 0 1.063-.125 1.47-.906.296-.578.312-1.297.312-1.813M2.11-.062c-.266 0-.813-.125-.985-.954-.094-.453-.094-1.203-.094-1.625 0-.546 0-1.109.094-1.546.172-.813.781-.891.984-.891.266 0 .829.14.985.86.094.437.094 1.046.094 1.577 0 .47 0 1.188-.094 1.641-.172.828-.719.938-.985.938m0 0"/><clipPath id="a"><path d="M76 50h83v89.36H76Zm0 0"/></clipPath></defs><path fill="none" stroke="#000" stroke-linecap="round" stroke-miterlimit="10" stroke-width=".399" d="M22.172 87.293v-3.984M50.52 87.293v-3.984M107.21 87.293v-3.984M135.559 87.293v-3.984M76.871 113.648h3.984M76.871 56.953h3.984M76.871 28.605h3.984"/><path fill="none" stroke="#000" stroke-miterlimit="10" stroke-width=".399" d="M.527 85.3h156.278"/><path fill="none" stroke="#000" stroke-linecap="round" stroke-linejoin="round" stroke-miterlimit="10" stroke-width=".399" d="M154.934 82.91c.375 1.434 1.218 2.11 2.07 2.39-.852.278-1.695.958-2.07 2.391"/><path fill="none" stroke="#000" stroke-miterlimit="10" stroke-width=".399" d="M78.863 138.36V1.187"/><path fill="none" stroke="#000" stroke-linecap="round" stroke-linejoin="round" stroke-miterlimit="10" stroke-width=".399" d="M76.473 3.059c1.433-.38 2.113-1.223 2.39-2.07.282.847.957 1.69 2.39 2.07"/><path fill="none" stroke="#6ECC14" stroke-miterlimit="10" stroke-width=".598" d="M7.996 82.977s2.988-.258 4.137-.368a380 380 0 0 0 4.133-.421 244.16 244.16 0 0 0 8.266-1.055c1.148-.168 2.988-.461 4.136-.656a196 196 0 0 0 4.133-.758c1.148-.23 2.984-.617 4.133-.88a142 142 0 0 0 4.132-1.01c1.149-.302 2.989-.821 4.137-1.173 1.145-.351 2.985-.953 4.133-1.36a114 114 0 0 0 4.133-1.57 98 98 0 0 0 4.133-1.816 98 98 0 0 0 4.136-2.105 90 90 0 0 0 4.133-2.434 88 88 0 0 0 4.133-2.812 84 84 0 0 0 4.133-3.258 93 93 0 0 0 4.136-3.766 104 104 0 0 0 4.133-4.351 113 113 0 0 0 4.133-5.043 121 121 0 0 0 4.133-5.836 146 146 0 0 0 4.137-6.746 178 178 0 0 0 4.132-7.813 218 218 0 0 0 4.133-9.035c1.149-2.703 4.133-10.453 4.133-10.453"/><path fill="none" stroke="#CC3F14" stroke-miterlimit="10" stroke-width=".598" d="M36.344 21.52s2.562 7.484 3.543 10.187a393 393 0 0 0 3.543 9.3 302 302 0 0 0 3.543 8.415 217 217 0 0 0 3.547 7.531c.98 1.965 2.558 4.922 3.543 6.645.98 1.718 2.558 4.28 3.542 5.757.98 1.473 2.56 3.641 3.543 4.872.985 1.23 2.559 3.003 3.543 3.988.985.98 2.559 2.36 3.543 3.097.985.739 2.559 1.723 3.543 2.215.985.493 2.563 1.082 3.543 1.328.985.247 2.563.446 3.543.446.985 0 2.563-.2 3.543-.446.985-.246 2.563-.835 3.543-1.328.985-.492 2.563-1.476 3.547-2.215.98-.738 2.559-2.117 3.543-3.097.98-.985 2.559-2.758 3.543-3.988.98-1.23 2.559-3.399 3.543-4.872.984-1.476 2.559-4.039 3.543-5.757.984-1.723 2.559-4.68 3.543-6.645a217 217 0 0 0 3.543-7.531c.984-2.211 2.562-5.957 3.543-8.414a362 362 0 0 0 3.543-9.301c.984-2.703 3.543-10.187 3.543-10.187"/><path fill="none" stroke="#C414CC" stroke-miterlimit="10" stroke-width=".598" d="M22.172 113.648s3.84-1.921 5.312-2.66c1.477-.738 3.844-1.918 5.317-2.656 1.476-.738 3.84-1.922 5.316-2.656 1.473-.739 3.84-1.922 5.313-2.66 1.476-.739 3.84-1.918 5.316-2.657 1.477-.738 3.84-1.921 5.317-2.656l5.312-2.66c1.477-.734 3.84-1.918 5.316-2.656 1.477-.739 3.84-1.922 5.317-2.657 1.472-.738 3.84-1.921 5.312-2.66 1.477-.734 3.84-1.918 5.317-2.656 1.472-.738 3.84-1.922 5.312-2.656l5.317-2.66c1.476-.735 3.84-1.918 5.316-2.657 1.473-.738 3.84-1.918 5.313-2.656l5.316-2.66c1.477-.734 3.84-1.918 5.316-2.656 1.473-.739 3.84-1.918 5.313-2.656l5.316-2.66c1.477-.735 3.84-1.919 5.317-2.657 1.472-.738 3.84-1.918 5.312-2.656 1.477-.738 3.84-1.922 5.317-2.656 1.472-.739 3.84-1.922 5.316-2.66 1.473-.739 5.312-2.657 5.312-2.657"/><g clip-path="url(#a)"><path fill="none" stroke="#1450CC" stroke-miterlimit="10" stroke-width=".598" d="M84.535 130.887s1.961-8.422 2.715-11.063c.754-2.636 1.96-5.988 2.715-7.949.754-1.965 1.965-4.637 2.719-6.203s1.96-3.785 2.714-5.09 1.965-3.195 2.72-4.312c.75-1.118 1.96-2.762 2.714-3.743a91 91 0 0 1 2.715-3.304 97 97 0 0 1 2.719-2.957 97 97 0 0 1 2.714-2.68 96 96 0 0 1 2.715-2.45 106 106 0 0 1 2.72-2.253c.753-.602 1.96-1.528 2.714-2.086.754-.563 1.965-1.422 2.719-1.945.75-.524 1.96-1.329 2.715-1.817.753-.492 1.96-1.25 2.714-1.71a165 165 0 0 1 2.72-1.614c.753-.434 1.96-1.113 2.714-1.523a167 167 0 0 1 5.434-2.829c.753-.37 1.96-.957 2.714-1.312s1.965-.914 2.72-1.254c.753-.34 1.96-.875 2.714-1.203s1.96-.84 2.715-1.153c.754-.316 2.719-1.109 2.719-1.109"/></g><g fill="#1450CC"><use xlink:href="#b" x="92.623" y="120.755"/><use xlink:href="#c" x="95.182" y="120.755"/><use xlink:href="#d" x="99.79" y="120.755"/></g><use xlink:href="#e" x="106.061" y="120.755" fill="#1450CC"/><g fill="#C414CC"><use xlink:href="#f" x="130.453" y="54.03"/><use xlink:href="#g" x="135.126" y="51.694"/></g><use xlink:href="#h" x="139.246" y="49.634" fill="#C414CC"/><use xlink:href="#e" x="98.724" y="46.768" fill="#CC3F14"/><use xlink:href="#i" x="103.948" y="42.959" fill="#CC3F14"/><use xlink:href="#j" x="19.738" y="79.106" fill="#6ECC14"/><use xlink:href="#k" x="23.468" y="74.753" fill="#6ECC14"/><use xlink:href="#l" x="16.762" y="95.085"/><use xlink:href="#m" x="23.349" y="95.085"/><use xlink:href="#l" x="45.108" y="95.085"/><use xlink:href="#n" x="51.694" y="95.085"/><use xlink:href="#n" x="105.094" y="95.085"/><use xlink:href="#m" x="133.44" y="95.085"/><use xlink:href="#l" x="63.395" y="115.799"/><use xlink:href="#n" x="69.981" y="115.799"/><use xlink:href="#o" x="71.975" y="93.092"/><use xlink:href="#n" x="69.981" y="59.522"/><use xlink:href="#m" x="69.981" y="31.175"/><use xlink:href="#e" x="160.722" y="87.23"/></svg>