<?xml version="1.0" encoding="UTF-8"?>
<svg xmlns="http://www.w3.org/2000/svg" xmlns:xlink="http://www.w3.org/1999/xlink" width="100.77pt" height="112.142pt" viewBox="0 0 100.77 112.142" version="1.2">
<defs>
<clipPath id="clip1">
  <path d="M 30 82 L 71 82 L 71 111.714844 L 30 111.714844 Z M 30 82 "/>
</clipPath>
<clipPath id="clip2">
  <path d="M 54 1 L 100.65625 1 L 100.65625 59 L 54 59 Z M 54 1 "/>
</clipPath>
<clipPath id="clip3">
  <path d="M 50 57 L 100.65625 57 L 100.65625 110 L 50 110 Z M 50 57 "/>
</clipPath>
</defs>
<g id="surface1">
<path style="fill-rule:nonzero;fill:rgb(79.998779%,79.998779%,100%);fill-opacity:1;stroke-width:0.79701;stroke-linecap:butt;stroke-linejoin:miter;stroke:rgb(50%,50%,100%);stroke-opacity:1;stroke-miterlimit:10;" d="M 8.503437 -0.0011875 C 8.503437 4.698031 4.694844 8.502719 -0.00046875 8.502719 C -4.695781 8.502719 -8.504375 4.698031 -8.504375 -0.0011875 C -8.504375 -4.6965 -4.695781 -8.505094 -0.00046875 -8.505094 C 4.694844 -8.505094 8.503437 -4.6965 8.503437 -0.0011875 Z M 8.503437 -0.0011875 " transform="matrix(1,0,0,-1,50.27,9.491)"/>
<path style="fill-rule:nonzero;fill:rgb(79.998779%,79.998779%,100%);fill-opacity:1;stroke-width:0.79701;stroke-linecap:butt;stroke-linejoin:miter;stroke:rgb(50%,50%,100%);stroke-opacity:1;stroke-miterlimit:10;" d="M 8.503437 -46.153531 C 8.503437 -41.454313 4.694844 -37.649625 -0.00046875 -37.649625 C -4.695781 -37.649625 -8.504375 -41.454313 -8.504375 -46.153531 C -8.504375 -50.848844 -4.695781 -54.657438 -0.00046875 -54.657438 C 4.694844 -54.657438 8.503437 -50.848844 8.503437 -46.153531 Z M 8.503437 -46.153531 " transform="matrix(1,0,0,-1,50.27,9.491)"/>
<path style=" stroke:none;fill-rule:nonzero;fill:rgb(79.998779%,79.998779%,100%);fill-opacity:1;" d="M 58.773438 101.792969 C 58.773438 97.097656 54.964844 93.289062 50.269531 93.289062 C 45.574219 93.289062 41.765625 97.097656 41.765625 101.792969 C 41.765625 106.492188 45.574219 110.296875 50.269531 110.296875 C 54.964844 110.296875 58.773438 106.492188 58.773438 101.792969 Z M 58.773438 101.792969 "/>
<g clip-path="url(#clip1)" clip-rule="nonzero">
<path style="fill:none;stroke-width:0.79701;stroke-linecap:butt;stroke-linejoin:miter;stroke:rgb(50%,50%,100%);stroke-opacity:1;stroke-miterlimit:10;" d="M 8.503437 -92.301969 C 8.503437 -87.606656 4.694844 -83.798063 -0.00046875 -83.798063 C -4.695781 -83.798063 -8.504375 -87.606656 -8.504375 -92.301969 C -8.504375 -97.001188 -4.695781 -100.805875 -0.00046875 -100.805875 C 4.694844 -100.805875 8.503437 -97.001188 8.503437 -92.301969 Z M 8.503437 -92.301969 " transform="matrix(1,0,0,-1,50.27,9.491)"/>
</g>
<path style="fill-rule:nonzero;fill:rgb(79.998779%,79.998779%,79.998779%);fill-opacity:1;stroke-width:0.79701;stroke-linecap:butt;stroke-linejoin:miter;stroke:rgb(50%,50%,50%);stroke-opacity:1;stroke-miterlimit:10;" d="M 37.647969 -51.8215 L 48.987812 -51.8215 L 48.987812 -40.481656 L 37.647969 -40.481656 Z M 37.647969 -51.8215 " transform="matrix(1,0,0,-1,50.27,9.491)"/>
<path style="fill:none;stroke-width:0.59776;stroke-linecap:butt;stroke-linejoin:miter;stroke:rgb(0%,0%,0%);stroke-opacity:1;stroke-miterlimit:10;" d="M 33.218281 -46.153531 L 8.901875 -46.153531 " transform="matrix(1,0,0,-1,50.27,9.491)"/>
<path style="fill-rule:nonzero;fill:rgb(0%,0%,0%);fill-opacity:1;stroke-width:0.59776;stroke-linecap:butt;stroke-linejoin:round;stroke:rgb(0%,0%,0%);stroke-opacity:1;stroke-miterlimit:10;" d="M 4.826066 -0.00166125 L 0.966691 1.459276 L 2.240129 -0.00166125 L 0.966691 -1.458693 Z M 4.826066 -0.00166125 " transform="matrix(1,0,0,-1,81.39659,55.64287)"/>
<g clip-path="url(#clip2)" clip-rule="nonzero">
<path style="fill:none;stroke-width:0.59776;stroke-linecap:butt;stroke-linejoin:miter;stroke:rgb(0%,0%,0%);stroke-opacity:1;stroke-miterlimit:10;" d="M 43.51125 -40.083219 C 44.855 -20.8215 31.476094 -4.067594 12.897969 -0.774625 " transform="matrix(1,0,0,-1,50.27,9.491)"/>
</g>
<path style="fill-rule:nonzero;fill:rgb(0%,0%,0%);fill-opacity:1;stroke-width:0.59776;stroke-linecap:butt;stroke-linejoin:round;stroke:rgb(0%,0%,0%);stroke-opacity:1;stroke-miterlimit:10;" d="M 4.828039 -0.00171757 L 0.963852 1.45841 L 2.240384 -0.000200605 L 0.965161 -1.460169 Z M 4.828039 -0.00171757 " transform="matrix(-0.99036,-0.1383,-0.1383,0.99036,65.23829,10.56395)"/>
<g clip-path="url(#clip3)" clip-rule="nonzero">
<path style="fill:none;stroke-width:0.59776;stroke-linecap:butt;stroke-linejoin:miter;stroke:rgb(0%,0%,0%);stroke-opacity:1;stroke-miterlimit:10;" d="M 43.577656 -56.251188 C 42.894062 -75.10275 28.159687 -90.676969 8.897969 -92.020719 " transform="matrix(1,0,0,-1,50.27,9.491)"/>
</g>
<path style="fill-rule:nonzero;fill:rgb(0%,0%,0%);fill-opacity:1;stroke-width:0.59776;stroke-linecap:butt;stroke-linejoin:round;stroke:rgb(0%,0%,0%);stroke-opacity:1;stroke-miterlimit:10;" d="M 4.82859 0.0000316337 L 0.965991 1.459101 L 2.242602 0.00137637 L 0.964473 -1.458926 Z M 4.82859 0.0000316337 " transform="matrix(-0.00052,-0.99998,-0.99998,0.00052,93.83848,67.8324)"/>
<path style="fill-rule:nonzero;fill:rgb(79.998779%,79.998779%,79.998779%);fill-opacity:1;stroke-width:0.79701;stroke-linecap:butt;stroke-linejoin:miter;stroke:rgb(50%,50%,50%);stroke-opacity:1;stroke-miterlimit:10;" d="M -48.984844 -51.8215 L -37.648906 -51.8215 L -37.648906 -40.481656 L -48.984844 -40.481656 Z M -48.984844 -51.8215 " transform="matrix(1,0,0,-1,50.27,9.491)"/>
<path style="fill:none;stroke-width:0.59776;stroke-linecap:butt;stroke-linejoin:miter;stroke:rgb(0%,0%,0%);stroke-opacity:1;stroke-miterlimit:10;" d="M -37.250469 -46.153531 L -12.934063 -46.153531 " transform="matrix(1,0,0,-1,50.27,9.491)"/>
<path style="fill-rule:nonzero;fill:rgb(0%,0%,0%);fill-opacity:1;stroke-width:0.59776;stroke-linecap:butt;stroke-linejoin:round;stroke:rgb(0%,0%,0%);stroke-opacity:1;stroke-miterlimit:10;" d="M 4.829499 -0.00166125 L 0.966217 1.459276 L 2.239655 -0.00166125 L 0.966217 -1.458693 Z M 4.829499 -0.00166125 " transform="matrix(1,0,0,-1,35.24472,55.64287)"/>
<path style="fill:none;stroke-width:0.59776;stroke-linecap:butt;stroke-linejoin:miter;stroke:rgb(0%,0%,0%);stroke-opacity:1;stroke-miterlimit:10;" d="M -43.578594 -36.051969 C -42.895 -17.200406 -28.156719 -1.626188 -8.898906 -0.282438 " transform="matrix(1,0,0,-1,50.27,9.491)"/>
<path style="fill-rule:nonzero;fill:rgb(0%,0%,0%);fill-opacity:1;stroke-width:0.59776;stroke-linecap:butt;stroke-linejoin:round;stroke:rgb(0%,0%,0%);stroke-opacity:1;stroke-miterlimit:10;" d="M 4.828076 -0.000905618 L 0.965476 1.458163 L 2.242088 0.000439123 L 0.963959 -1.459863 Z M 4.828076 -0.000905618 " transform="matrix(0.00052,0.99998,0.99998,-0.00052,6.70152,43.45327)"/>
<path style="fill:none;stroke-width:0.59776;stroke-linecap:butt;stroke-linejoin:miter;stroke:rgb(0%,0%,0%);stroke-opacity:1;stroke-miterlimit:10;" d="M -43.508281 -52.219938 C -44.852031 -71.481656 -31.477031 -88.235563 -12.898906 -91.528531 " transform="matrix(1,0,0,-1,50.27,9.491)"/>
<path style="fill-rule:nonzero;fill:rgb(0%,0%,0%);fill-opacity:1;stroke-width:0.59776;stroke-linecap:butt;stroke-linejoin:round;stroke:rgb(0%,0%,0%);stroke-opacity:1;stroke-miterlimit:10;" d="M 4.82704 -0.00134831 L 0.966723 1.459319 L 2.239386 0.000168655 L 0.964162 -1.4598 Z M 4.82704 -0.00134831 " transform="matrix(0.99036,0.1383,0.1383,-0.99036,35.30171,100.72171)"/>
</g>
</svg>
