<svg xmlns="http://www.w3.org/2000/svg" xmlns:xlink="http://www.w3.org/1999/xlink" width="90.659" height="141.464"><defs><path id="b" d="M5.563-1.812c.14 0 .312 0 .312-.172 0-.188-.172-.188-.312-.188H1c-.125 0-.297 0-.297.188 0 .172.172.172.297.172Zm0 0"/><path id="c" d="M2.5-5.078c0-.219-.016-.219-.234-.219-.328.313-.75.5-1.5.5v.266c.218 0 .64 0 1.109-.203v4.078c0 .297-.031.39-.781.39H.812V0c.329-.031 1.016-.031 1.376-.031s1.046 0 1.374.031v-.266h-.28c-.75 0-.782-.093-.782-.39Zm0 0"/><path id="d" d="M2.25-1.625c.125-.125.453-.39.594-.5.484-.453.953-.89.953-1.61 0-.953-.797-1.562-1.781-1.562-.97 0-1.594.719-1.594 1.438 0 .39.312.437.422.437.172 0 .422-.11.422-.422 0-.406-.407-.406-.5-.406.234-.594.765-.781 1.156-.781.734 0 1.125.625 1.125 1.297 0 .828-.578 1.437-1.531 2.39l-1 1.047C.422-.219.422-.203.422 0h3.14l.235-1.422h-.25c-.016.156-.078.547-.172.703-.047.063-.656.063-.781.063H1.172Zm0 0"/><path id="e" d="M3.89-2.547c0-.844-.078-1.36-.343-1.875-.344-.703-1-.875-1.438-.875-1 0-1.375.75-1.484.969C.344-3.75.328-2.953.328-2.547c0 .531.016 1.328.406 1.969.36.594.954.75 1.375.75.391 0 1.063-.125 1.47-.906.296-.578.312-1.297.312-1.813M2.11-.062c-.266 0-.813-.125-.985-.954-.094-.453-.094-1.203-.094-1.625 0-.546 0-1.109.094-1.546.172-.813.781-.891.984-.891.266 0 .829.14.985.86.094.437.094 1.046.094 1.577 0 .47 0 1.188-.094 1.641-.172.828-.719.938-.985.938m0 0"/><clipPath id="a"><path d="M0 0h90.488v141.195H0Zm0 0"/></clipPath></defs><path fill="none" stroke="#000" stroke-linecap="round" stroke-miterlimit="10" stroke-width=".399" d="M16.816 72.434v-3.985M73.508 72.434v-3.985M43.168 127.137h3.984M43.168 98.79h3.984M43.168 42.094h3.984M43.168 13.75h3.984"/><path fill="none" stroke="#000" stroke-miterlimit="10" stroke-width=".399" d="M.84 70.441h88.238"/><path fill="none" stroke="#000" stroke-linecap="round" stroke-linejoin="round" stroke-miterlimit="10" stroke-width=".399" d="M87.207 68.05c.375 1.434 1.219 2.114 2.07 2.391-.851.282-1.695.957-2.07 2.391"/><path fill="none" stroke="#000" stroke-miterlimit="10" stroke-width=".399" d="M45.16 140.191V1.13"/><path fill="none" stroke="#000" stroke-linecap="round" stroke-linejoin="round" stroke-miterlimit="10" stroke-width=".399" d="M42.77 3.004c1.437-.379 2.113-1.223 2.39-2.074.281.851.957 1.695 2.39 2.074"/><g clip-path="url(#a)"><path fill="none" stroke="#000" stroke-miterlimit="10" stroke-width=".598" d="M8.313 132.719s2.218-10.664 3.07-14.305a322 322 0 0 1 3.07-11.93c.852-3.011 2.219-7.328 3.07-9.765.852-2.442 2.22-5.89 3.07-7.82.852-1.93 2.22-4.614 3.071-6.094.852-1.477 2.219-3.485 3.07-4.575.852-1.093 2.22-2.523 3.07-3.28.852-.763 2.22-1.712 3.071-2.2.852-.492 2.219-1.055 3.07-1.336.852-.277 2.22-.555 3.07-.684.852-.128 2.22-.21 3.07-.253.852-.04 2.22-.024 3.071-.036.852-.007 2.219.004 3.07-.035.856-.039 2.22-.12 3.07-.25.856-.133 2.22-.406 3.075-.683.852-.282 2.215-.844 3.07-1.332.852-.493 2.22-1.438 3.07-2.2.852-.757 2.22-2.187 3.071-3.277.852-1.09 2.219-3.094 3.07-4.574.852-1.477 2.22-4.156 3.07-6.086.852-1.93 2.22-5.375 3.071-7.817.852-2.437 2.219-6.75 3.07-9.761a322 322 0 0 0 3.07-11.922c.852-3.637 3.07-14.3 3.07-14.3"/></g><use xlink:href="#b" x="11.405" y="80.227"/><use xlink:href="#c" x="17.991" y="80.227"/><use xlink:href="#c" x="71.391" y="80.227"/><use xlink:href="#b" x="29.692" y="129.288"/><use xlink:href="#d" x="36.279" y="129.288"/><use xlink:href="#b" x="29.692" y="100.942"/><use xlink:href="#c" x="36.279" y="100.942"/><use xlink:href="#e" x="38.272" y="78.235"/><use xlink:href="#c" x="36.279" y="44.664"/><use xlink:href="#d" x="36.279" y="16.318"/></svg>