<svg xmlns="http://www.w3.org/2000/svg" xmlns:xlink="http://www.w3.org/1999/xlink" width="116.609" height="58.52"><defs><path id="b" d="M4.5-4.297c0-.047-.031-.094-.094-.094-.11 0-.515.391-.672.688-.218-.547-.609-.703-.937-.703-1.172 0-2.39 1.468-2.39 2.922C.406-.516.983.109 1.718.109c.422 0 .812-.234 1.172-.593-.094.343-.422 1.687-.453 1.78-.079.282-.157.313-.72.329-.124 0-.218 0-.218.203 0 0 0 .11.125.11.313 0 .672-.032 1-.032s.688.032 1.031.032c.047 0 .172 0 .172-.204 0-.109-.094-.109-.265-.109-.47 0-.47-.062-.47-.156 0-.078.016-.14.032-.219ZM1.75-.109c-.61 0-.64-.766-.64-.938 0-.484.28-1.562.452-1.984.313-.735.829-1.156 1.235-1.156.656 0 .797.812.797.875s-.547 2.25-.578 2.28c-.157.282-.72.923-1.266.923m0 0"/><path id="f" d="M3.719-3.766c-.188-.375-.469-.64-.922-.64-1.156 0-2.39 1.468-2.39 2.922C.406-.547.952.109 1.718.109c.203 0 .703-.046 1.297-.75a.91.91 0 0 0 .906.75c.36 0 .578-.234.75-.546a6.5 6.5 0 0 0 .297-.985c0-.11-.094-.11-.125-.11-.094 0-.11.048-.14.188-.173.64-.345 1.235-.75 1.235-.282 0-.298-.266-.298-.453 0-.22.016-.313.125-.75.11-.407.125-.516.219-.891l.36-1.39c.062-.282.062-.298.062-.344 0-.172-.11-.266-.281-.266-.25 0-.391.219-.422.437m-.64 2.579c-.063.187-.063.203-.204.375-.437.546-.844.703-1.125.703-.5 0-.64-.547-.64-.938 0-.5.312-1.719.546-2.187.313-.578.75-.953 1.157-.953.64 0 .78.812.78.875a.6.6 0 0 1-.03.171Zm0 0"/><path id="g" d="M2.375-6.812s0-.11-.125-.11c-.219 0-.953.078-1.219.11-.078 0-.187.015-.187.187 0 .125.094.125.25.125.468 0 .484.063.484.172 0 .062-.078.406-.125.61l-.828 3.25c-.11.5-.156.671-.156 1.015C.469-.516 1 .109 1.734.109c1.172 0 2.407-1.484 2.407-2.921 0-.907-.532-1.594-1.328-1.594-.454 0-.876.297-1.172.593Zm-.922 3.765c.047-.219.047-.234.14-.344.485-.64.938-.796 1.204-.796.36 0 .625.296.625.937 0 .594-.328 1.734-.516 2.11-.328.671-.781 1.03-1.172 1.03-.343 0-.671-.265-.671-1 0-.202 0-.39.156-1.015Zm0 0"/><path id="c" d="M3.594-2.219c0-.765-.094-1.328-.406-1.812-.22-.313-.657-.594-1.204-.594C.36-4.625.36-2.719.36-2.219s0 2.36 1.625 2.36c1.61 0 1.61-1.86 1.61-2.36M1.984-.062c-.328 0-.75-.188-.89-.75C1-1.22 1-1.797 1-2.312c0-.516 0-1.047.094-1.422.156-.547.593-.703.89-.703.375 0 .735.234.86.64.11.375.125.875.125 1.485 0 .515 0 1.03-.094 1.468-.14.64-.61.782-.89.782m0 0"/><path id="e" d="M2.328-4.437c0-.188 0-.188-.203-.188-.453.438-1.078.438-1.36.438v.25c.157 0 .626 0 1-.188v3.547c0 .234 0 .328-.687.328H.812V0c.125 0 .985-.031 1.235-.031.219 0 1.094.031 1.25.031v-.25H3.03c-.703 0-.703-.094-.703-.328Zm0 0"/><path id="j" d="M3.516-1.266H3.28c-.015.157-.094.563-.187.625-.047.047-.578.047-.688.047H1.125c.734-.64.984-.843 1.39-1.172.516-.406 1-.843 1-1.5 0-.843-.734-1.359-1.624-1.359-.86 0-1.453.61-1.453 1.25 0 .344.296.39.375.39.156 0 .359-.124.359-.374 0-.125-.047-.375-.406-.375.218-.485.687-.641 1.015-.641.703 0 1.063.547 1.063 1.11 0 .609-.438 1.078-.656 1.328L.516-.266C.437-.203.437-.187.437 0h2.876Zm0 0"/><clipPath id="a"><path d="M0 19h38v39.281H0Zm0 0"/></clipPath><clipPath id="d"><path d="M35 19h46v39.281H35Zm0 0"/></clipPath><clipPath id="h"><path d="M60 2h56.414v56.281H60Zm0 0"/></clipPath><clipPath id="i"><path d="M77 19h39.414v39.281H77Zm0 0"/></clipPath></defs><g clip-path="url(#a)"><path fill="none" stroke="red" stroke-miterlimit="10" stroke-width=".598" d="M29.469 42.195c0-7.828-6.348-14.172-14.176-14.172S1.121 34.367 1.121 42.195s6.344 14.176 14.172 14.176 14.176-6.348 14.176-14.176Zm0 0"/></g><use xlink:href="#b" x="10.836" y="43.372"/><use xlink:href="#c" x="15.284" y="44.867"/><g clip-path="url(#d)"><path fill="none" stroke="#000" stroke-miterlimit="10" stroke-width=".598" d="M71.988 42.195c0-7.828-6.347-14.172-14.172-14.172-7.828 0-14.175 6.344-14.175 14.172s6.347 14.176 14.175 14.176c7.825 0 14.172-6.348 14.172-14.176Zm0 0"/></g><use xlink:href="#b" x="53.355" y="43.372"/><use xlink:href="#e" x="57.803" y="44.867"/><path fill="none" stroke="#000" stroke-miterlimit="10" stroke-width=".598" d="M29.766 42.195h11.922"/><path fill="none" stroke="#000" stroke-linecap="round" stroke-linejoin="round" stroke-miterlimit="10" stroke-width=".598" d="M39.676 39.445c.422 1.649 1.363 2.43 2.312 2.75-.949.32-1.89 1.102-2.312 2.75"/><use xlink:href="#f" x="33.922" y="38.577"/><path fill="none" stroke="#000" stroke-miterlimit="10" stroke-width=".598" d="M54.07 28.219c-5.808-21.672 12.016-22.54 8.094-2.598"/><path fill="none" stroke="#000" stroke-linecap="round" stroke-linejoin="round" stroke-miterlimit="10" stroke-width=".59798206" d="M65.277 24.246c-1.703.066-2.66.824-3.172 1.684-.117-.996-.683-2.078-2.207-2.836"/><use xlink:href="#g" x="55.676" y="7.669"/><g clip-path="url(#h)"><path fill="none" stroke="#000" stroke-miterlimit="10" stroke-width="1.793" d="M114.508 42.195c0-7.828-6.344-14.172-14.172-14.172S86.16 34.367 86.16 42.195s6.348 14.176 14.176 14.176 14.172-6.348 14.172-14.176Zm0 0"/></g><g clip-path="url(#i)"><path fill="none" stroke="#FFF" stroke-miterlimit="10" stroke-width=".598" d="M114.508 42.195c0-7.828-6.344-14.172-14.172-14.172S86.16 34.367 86.16 42.195s6.348 14.176 14.176 14.176 14.172-6.348 14.172-14.176Zm0 0"/></g><use xlink:href="#b" x="95.876" y="43.372"/><use xlink:href="#j" x="100.323" y="44.867"/><path fill="none" stroke="#000" stroke-miterlimit="10" stroke-width=".598" d="M72.285 42.195h11.922"/><path fill="none" stroke="#000" stroke-linecap="round" stroke-linejoin="round" stroke-miterlimit="10" stroke-width=".598" d="M82.195 39.445c.422 1.649 1.364 2.43 2.313 2.75-.95.32-1.89 1.102-2.313 2.75"/><use xlink:href="#f" x="76.442" y="38.577"/></svg>