<svg xmlns="http://www.w3.org/2000/svg" xmlns:xlink="http://www.w3.org/1999/xlink" width="104.969" height="59.092"><defs><path id="a" d="m7.547-4.328-.203-2.406H.625L.422-4.328H.89c.093-1.125.187-1.938 1.625-1.938h.765v5.797H1.75V0c.547-.031 1.656-.031 2.234-.031.594 0 1.704 0 2.235.031v-.469H4.687v-5.797h.766c1.422 0 1.531.797 1.625 1.938Zm0 0"/><path id="b" d="M4.922-1.172c0-.172-.188-.172-.234-.172-.172 0-.188.047-.25.203-.204.485-.782.797-1.422.797-1.407 0-1.422-1.328-1.422-1.828h3.015c.22 0 .313 0 .313-.265 0-.313-.063-1.047-.563-1.547-.359-.36-.89-.532-1.578-.532C1.187-4.516.313-3.484.313-2.25c0 1.344 1 2.313 2.609 2.313 1.578 0 2-1.063 2-1.235M3.984-2.5h-2.39c.015-.39.031-.812.234-1.14.266-.391.672-.516.953-.516 1.172 0 1.188 1.312 1.203 1.656m0 0"/><path id="c" d="M5.828 0v-.469h-.703L3.453-2.453 4.61-3.75c.141-.14.204-.203 1.016-.203v-.469l-.906.031-1.032-.03v.468c.141 0 .266.015.376.078-.032.063-.032.094-.079.125l-.828.938-.984-1.141h.406v-.469L1.36-4.39.266-4.42v.468h.718l1.547 1.828L1.22-.656c-.157.187-.516.187-1 .187V0l.922-.031L2.156 0v-.469c-.172 0-.36-.047-.36-.11 0 0 0-.015.063-.093l.97-1.094L3.921-.469h-.39V0l1.202-.031Zm0 0"/><path id="d" d="M3.813-1.234v-.532h-.47v.516c0 .672-.327.906-.609.906-.578 0-.578-.64-.578-.86v-2.75h1.469v-.468H2.156v-1.906h-.469c0 1-.484 1.984-1.484 2.016v.359h.828v2.734c0 1.063.86 1.282 1.578 1.282.75 0 1.204-.579 1.204-1.297m0 0"/><path id="e" d="M5.516-.234c0-.235-.125-.235-.266-.235-.61-.015-.61-.14-.61-.375v-2.14c0-.891-.702-1.532-2.187-1.532-.562 0-1.781.047-1.781.922 0 .438.344.625.61.625.312 0 .624-.219.624-.625 0-.297-.187-.469-.218-.5a5 5 0 0 1 .718-.062c.75 0 1.11.422 1.11 1.172v.343c-.72.032-3.25.125-3.25 1.563C.266-.125 1.5.062 2.188.062c.796 0 1.265-.406 1.484-.828 0 .313 0 .766 1.047.766h.468c.204 0 .329 0 .329-.234m-2-1.157c0 .97-.922 1.094-1.172 1.094-.516 0-.906-.344-.906-.797 0-1.062 1.578-1.203 2.078-1.234Zm0 0"/><path id="f" d="M5.11-.375c0-.36-.282-.375-.47-.375h-.343v-2.172c0-1.031-.531-1.469-1.344-1.469-.562 0-.953.22-1.203.407 0-.25-.078-.36-.469-.36H.578c-.187 0-.469.016-.469.375 0 .36.297.375.454.375h.359V-.75H.578C.391-.75.11-.734.11-.375c0 .36.297.375.454.375h1.546c.172 0 .47-.016.47-.375 0-.36-.282-.375-.47-.375H1.75v-1.64c0-.907.688-1.266 1.14-1.266.47 0 .579.25.579.781V-.75h-.297c-.188 0-.485.016-.485.375 0 .36.313.375.485.375h1.484c.157 0 .453-.016.453-.375m0 0"/><path id="g" d="M4.688-2.172c0-1.265-.954-2.25-2.079-2.25S.531-3.438.531-2.172C.531-.89 1.5.063 2.61.063c1.11 0 2.079-.97 2.079-2.235m-.829-.078c0 .86-.562 1.563-1.25 1.563-.671 0-1.25-.704-1.25-1.563 0-.828.61-1.422 1.25-1.422.657 0 1.25.594 1.25 1.422m0 0"/><path id="h" d="M5.125-.375c0-.36-.297-.375-.469-.375h-.36v-4.86c0-.359-.062-.484-.468-.484h-.703c-.187 0-.484.016-.484.375 0 .36.297.375.468.375h.36v1.297a1.73 1.73 0 0 0-1.063-.344c-1.094 0-2.062.938-2.062 2.235C.344-.922 1.25.063 2.328.063c.485 0 .86-.204 1.14-.454.016.282.079.391.47.391h.703c.187 0 .484-.016.484-.375M3.453-1.969c0 .516-.406 1.282-1.094 1.282-.671 0-1.203-.657-1.203-1.47 0-.89.64-1.5 1.282-1.5.578 0 1.015.5 1.015 1Zm0 0"/><path id="i" d="M4.656-1.14c0-.329-.343-.344-.422-.344-.218 0-.312.03-.39.265-.203.453-.688.532-.938.532-.672 0-1.344-.422-1.515-1.172h2.797c.25 0 .468 0 .468-.438 0-1.14-.656-2.125-1.968-2.125-1.188 0-2.172 1-2.172 2.234C.516-.952 1.53.063 2.828.063c1.36 0 1.828-.937 1.828-1.203m-.86-1.454H1.392c.172-.625.687-1.078 1.297-1.078.468 0 1 .219 1.109 1.078m0 0"/><path id="j" d="M4.438-.375c0-.36-.266-.375-.454-.375h-.812v-4.969c0-.187-.016-.484-.375-.484-.219 0-.297.14-.36.281-.343.781-.828.89-.984.906-.203.016-.437.047-.437.375 0 .313.203.375.39.375.172 0 .532-.046.938-.343V-.75H1.53c-.187 0-.468.016-.468.375 0 .36.296.375.468.375h2.453c.172 0 .454-.016.454-.375m0 0"/><path id="k" d="M4.719-.484v-.25c0-.22 0-.47-.39-.47-.376 0-.423.173-.423.454H1.891c.562-.484 1.375-1.125 1.765-1.469.625-.562 1.063-1.203 1.063-2.015 0-1.203-1-1.97-2.235-1.97C1.281-6.203.5-5.358.5-4.5a.51.51 0 1 0 1.016.031.58.58 0 0 0-.125-.344c.156-.375.562-.64 1.047-.64.75 0 1.468.422 1.468 1.219 0 .672-.469 1.218-1.094 1.718L.672-.703C.562-.61.5-.547.5-.375.5-.015.781 0 .969 0h3.297c.375 0 .453-.094.453-.484m0 0"/></defs><path fill="none" stroke="#000" stroke-miterlimit="10" stroke-width=".399" d="M26.043 57.438V.745h56.691v56.692ZM40.215 43.266l28.347-28.348"/><path fill="#D2C92A" d="M.992 49.977h78.446V36.55H.992Zm0 0"/><use xlink:href="#a" x="4.314" y="46.598"/><use xlink:href="#b" x="11.328" y="46.598"/><use xlink:href="#c" x="16.579" y="46.598"/><use xlink:href="#d" x="22.626" y="46.598"/><use xlink:href="#e" x="30.895" y="46.598"/><use xlink:href="#d" x="36.464" y="46.598"/><use xlink:href="#f" x="44.733" y="46.598"/><use xlink:href="#g" x="49.963" y="46.598"/><use xlink:href="#h" x="55.193" y="46.598"/><use xlink:href="#i" x="60.424" y="46.598"/><use xlink:href="#j" x="70.884" y="46.598"/><use xlink:href="#a" x="32.66" y="18.252"/><use xlink:href="#b" x="39.674" y="18.252"/><use xlink:href="#c" x="44.925" y="18.252"/><use xlink:href="#d" x="50.972" y="18.252"/><use xlink:href="#e" x="59.241" y="18.252"/><use xlink:href="#d" x="64.81" y="18.252"/><use xlink:href="#f" x="73.079" y="18.252"/><use xlink:href="#g" x="78.309" y="18.252"/><use xlink:href="#h" x="83.539" y="18.252"/><use xlink:href="#i" x="88.77" y="18.252"/><use xlink:href="#k" x="99.23" y="18.252"/></svg>