<svg xmlns="http://www.w3.org/2000/svg" xmlns:xlink="http://www.w3.org/1999/xlink" width="13.333" height="16.811"><defs><path id="a" d="M4.36-6.11c0-.421-.36-.874-1.141-.874-.969 0-2.047.422-2.047 1.547v1.015h-.75v.469h.75V-.47H.484V0l1.25-.031c.375 0 1.016 0 1.375.031v-.469H2.25v-3.484h1.14v-.469H2.188v-1.016c0-1.093.75-1.187 1-1.187.047 0 .11 0 .172.031a.59.59 0 0 0-.234.485c0 .422.36.609.61.609.296 0 .624-.203.624-.61m0 0"/></defs><path fill="none" stroke="#00F" stroke-miterlimit="10" stroke-width="1.196" d="M1.266 15.117h10.136V1.504H1.266Zm0 0"/><use xlink:href="#a" x="4.585" y="11.799"/></svg>