<svg xmlns="http://www.w3.org/2000/svg" width="73.442" height="15.068"><defs><clipPath id="a"><path d="M0 0h24v14.602H0Zm0 0"/></clipPath><clipPath id="b"><path d="M16 0h57.164v14.602H16Zm0 0"/></clipPath><clipPath id="c"><path d="M20 0h40v14.602H20Zm0 0"/></clipPath><clipPath id="d"><path d="M13 0h40v14.602H13Zm0 0"/></clipPath></defs><g clip-path="url(#a)"><path fill="none" stroke="#000" stroke-miterlimit="10" stroke-width=".399" d="M.938 12.86c0-5.5 4.46-9.962 9.964-9.962A9.95 9.95 0 0 1 17.613 5.5"/></g><path stroke="#000" stroke-miterlimit="10" stroke-width=".39897606" d="m19.168 7.441-1.219-3.617-.297 1.762-1.785-.059Zm0 0"/><g clip-path="url(#b)"><path fill="none" stroke="#000" stroke-miterlimit="10" stroke-width="1.196" d="m33.504 9.895 9.953-6.997 14.176 9.961L71.805 2.9"/></g><path d="m37.523 7.07 4.907-1.254-2.325-.562.262-2.375Zm0 0"/><g clip-path="url(#c)"><path fill="none" stroke="#000" stroke-miterlimit="10" stroke-width="1.1959402" d="m37.523 7.07 4.907-1.254-2.325-.562.262-2.375Zm0 0"/></g><path d="m30.676 11.883 4.91-1.254-2.328-.563.262-2.375Zm0 0"/><g clip-path="url(#d)"><path fill="none" stroke="#000" stroke-miterlimit="10" stroke-width="1.1959402" d="m30.676 11.883 4.91-1.254-2.328-.563.262-2.375Zm0 0"/></g></svg>