<svg xmlns="http://www.w3.org/2000/svg" xmlns:xlink="http://www.w3.org/1999/xlink" width="81.578" height="50.528"><defs><path id="a" d="M2.547-4.89c-.203-.126-.266-.016-.328.109-.328.531-.438.468-.64.343L-.267-5.5c-.78-.453-1.671-.156-2.421 1.125-.282.484-.86 1.563-.094 2 .375.219.703.016.844-.219.156-.265.125-.656-.22-.86-.265-.14-.5-.062-.546-.062.11-.25.25-.546.312-.64.375-.657.907-.75 1.563-.375l.297.172c-.344.64-1.516 2.875-.281 3.593.828.47 1.609-.5 1.953-1.093.39-.688.28-1.297.03-1.703.266.156.657.374 1.188-.532l.235-.406c.094-.172.156-.281-.047-.39m-2 1.156c.844.484.5 1.343.375 1.562-.266.453-.766.61-1.156.375-.922-.531-.25-1.953-.032-2.406Zm0 0"/><path id="b" d="M-.984-5.64c-.453-.266-.97.046-1.235.515-.344.594-.11 1.188.328 1.688L-2.875-4l-.75 1.469.406.234c.297-.531.344-.594.672-.39l2.672 1.53-.344.595.407.234.593-1.094c.188-.328.5-.875.719-1.172l-.406-.234-.438.734-1.515-.875c-.594-.344-1.532-1.156-1.032-2.015 0 0 .063.25.297.39.36.203.688.016.828-.218.157-.266.141-.625-.218-.829m0 0"/><path id="c" d="M.828-5.766c-1.172-.671-2.5-.375-3.312 1.047-.813 1.407-.391 2.703.765 3.375 1.063.61 2.36.328 3.188-1.093.843-1.454.406-2.72-.64-3.329M.094-4.719c.734.438 1.672.969 1.031 2.078-.625 1.094-1.562.563-2.297.125-.406-.218-.828-.468-1.047-.796-.234-.344-.187-.829.047-1.235.219-.375.547-.656.953-.672.407-.015.89.266 1.313.5m0 0"/><path id="d" d="m.594-8.922-.406-.234c-.11.203-.235.469-.36.687l-.516.813.407.234c.047-.078.297-.5.39-.453.032.016.063.078.094.094l1.672 2.187L-1.094-6l.282-.484-.407-.235-.547 1c-.203.36-.453.719-.53.844l.405.234.297-.515c.547.078.563.093.563.093.031.016.078.079.093.094l1.25 1.64-2.734-.374.281-.485-.406-.234-.594 1.078-.562.922.406.235.297-.516 3.969.547c.203.015.312.031.437-.188s.047-.297-.078-.437L-.375-4.984l2.766.375c.187.015.297.03.422-.172.124-.219.062-.313-.063-.438L.422-8.234c-.094-.11-.125-.172.172-.688m0 0"/><path id="e" d="M2.453-4.266 2.047-4.5l-.688 1.203-4.968-2.86c-.203-.124-.282-.171-.422.063-.047.094-.063.11-.047.235.125.953-.39 1.843-.5 2.015l-.094.172.39.235.095-.172c.078-.141.359-.625.484-1.235L.766-2.266.063-1.062l.406.234c.187-.39.719-1.313.969-1.735.234-.421.765-1.343 1.015-1.703m0 0"/><path id="f" d="m.656-5.578-.234.406c.156.14.672.531.64.688.016.125-.359.78-.437.906l-.734 1.281a30 30 0 0 1-.266-1.812c-.172-1.407-.25-2.203-1.062-2.672-1-.578-2.172-.047-2.86 1.156-.61 1.063-.531 2.188.234 2.64.516.297.875-.062 1-.265.157-.281.172-.734-.265-.984-.453-.25-.797.046-.906.125-.063-.344.03-.75.218-1.063.422-.734 1.235-.797 1.891-.422.594.344 1 1.016 1.25 1.969l.766 2.766c.03.172.062.187.234.297l.156.078 2.14-3.703Zm0 0"/></defs><path fill="#FF7F7F" d="M32.758.766 13.77 5.852l6.136 3.543L.805 42.477l11.8 6.812 19.102-33.082 6.137 3.543Zm0 0"/><use xlink:href="#a" x="11.266" y="44.451"/><use xlink:href="#b" x="14.051" y="39.628"/><use xlink:href="#b" x="16.412" y="35.538"/><use xlink:href="#c" x="18.773" y="31.449"/><use xlink:href="#d" x="21.478" y="26.764"/><use xlink:href="#e" x="27.525" y="16.289"/><path fill="#7F7FFF" d="M75.277.766 56.29 5.852l8.348-.286-21.309 36.91 11.797 6.813 21.313-36.91 3.925 7.371Zm0 0"/><use xlink:href="#a" x="53.786" y="44.451"/><use xlink:href="#b" x="56.571" y="39.628"/><use xlink:href="#b" x="58.932" y="35.538"/><use xlink:href="#c" x="61.293" y="31.449"/><use xlink:href="#d" x="63.998" y="26.764"/><use xlink:href="#f" x="70.045" y="16.289"/></svg>