<svg xmlns="http://www.w3.org/2000/svg" xmlns:xlink="http://www.w3.org/1999/xlink" width="256.61" height="105.334"><defs><path id="a" d="M3.89-2.547c0-.844-.078-1.36-.343-1.875-.344-.703-1-.875-1.438-.875-1 0-1.375.75-1.484.969C.344-3.75.328-2.953.328-2.547c0 .531.016 1.328.406 1.969.36.594.954.75 1.375.75.391 0 1.063-.125 1.47-.906.296-.578.312-1.297.312-1.813M2.11-.062c-.266 0-.813-.125-.985-.954-.094-.453-.094-1.203-.094-1.625 0-.546 0-1.109.094-1.546.172-.813.781-.891.984-.891.266 0 .829.14.985.86.094.437.094 1.046.094 1.577 0 .47 0 1.188-.094 1.641-.172.828-.719.938-.985.938m0 0"/><path id="c" d="M2.5-5.078c0-.219-.016-.219-.234-.219-.328.313-.75.5-1.5.5v.266c.218 0 .64 0 1.109-.203v4.078c0 .297-.031.39-.781.39H.812V0c.329-.031 1.016-.031 1.376-.031s1.046 0 1.374.031v-.266h-.28c-.75 0-.782-.093-.782-.39Zm0 0"/><path id="d" d="M2.25-1.625c.125-.125.453-.39.594-.5.484-.453.953-.89.953-1.61 0-.953-.797-1.562-1.781-1.562-.97 0-1.594.719-1.594 1.438 0 .39.312.437.422.437.172 0 .422-.11.422-.422 0-.406-.407-.406-.5-.406.234-.594.765-.781 1.156-.781.734 0 1.125.625 1.125 1.297 0 .828-.578 1.437-1.531 2.39l-1 1.047C.422-.219.422-.203.422 0h3.14l.235-1.422h-.25c-.016.156-.078.547-.172.703-.047.063-.656.063-.781.063H1.172Zm0 0"/><path id="e" d="M2.016-2.656c.625 0 1.03.453 1.03 1.297 0 1-.562 1.28-.983 1.28-.438 0-1.047-.155-1.329-.577.297 0 .5-.188.5-.438 0-.265-.187-.437-.453-.437-.203 0-.437.125-.437.453 0 .75.812 1.25 1.734 1.25 1.047 0 1.797-.734 1.797-1.531 0-.672-.531-1.266-1.344-1.453.625-.22 1.11-.75 1.11-1.391 0-.64-.72-1.094-1.547-1.094-.86 0-1.5.453-1.5 1.063 0 .297.187.422.406.422.25 0 .406-.172.406-.407 0-.297-.265-.406-.437-.406.344-.437.953-.469 1.094-.469.203 0 .812.063.812.89 0 .548-.234.891-.344 1.016-.234.25-.422.266-.906.297-.156 0-.219.016-.219.125 0 .11.078.11.219.11Zm0 0"/><path id="f" d="M3.14-5.156c0-.157 0-.219-.171-.219-.094 0-.11 0-.188.11L.234-1.564v.25h2.25v.672c0 .297-.015.375-.64.375h-.172V0c.672-.031.687-.031 1.14-.031.454 0 .47 0 1.141.031v-.266h-.172c-.625 0-.64-.078-.64-.375v-.671h.843v-.25h-.843Zm-.593.64v2.954H.516Zm0 0"/><path id="g" d="M1.11-4.484c.109.03.421.125.765.125 1 0 1.594-.703 1.594-.828 0-.094-.047-.11-.094-.11-.016 0-.031 0-.094.031a3 3 0 0 1-1.11.22c-.468 0-.858-.11-1.108-.22-.079-.03-.094-.03-.11-.03-.094 0-.094.077-.094.234v2.328c0 .14 0 .234.125.234.063 0 .079-.031.125-.094.094-.11.391-.515 1.079-.515.437 0 .656.359.734.515.125.281.14.656.14.953s0 .735-.218 1.079c-.156.25-.485.484-.906.484A1.27 1.27 0 0 1 .734-.922c.016.016.079.016.079.016.218 0 .406-.14.406-.39a.39.39 0 0 0-.39-.407c-.157 0-.407.078-.407.422 0 .718.625 1.453 1.531 1.453 1 0 1.844-.781 1.844-1.766 0-.922-.672-1.75-1.61-1.75-.39 0-.765.125-1.078.406Zm0 0"/><path id="b" d="M3.266-1.5c0-.75-.61-1.36-1.36-1.36-.734 0-1.343.61-1.343 1.36 0 .766.609 1.36 1.343 1.36.75 0 1.36-.594 1.36-1.36M1.906-.453A1.024 1.024 0 0 1 .875-1.5c0-.578.453-1.047 1.031-1.047s1.047.469 1.047 1.047c0 .594-.469 1.047-1.047 1.047m0 0"/><path id="h" d="M5.563-1.812c.14 0 .312 0 .312-.172 0-.188-.172-.188-.312-.188H1c-.125 0-.297 0-.297.188 0 .172.172.172.297.172Zm0 0"/><path id="i" d="M1.625-.437a.463.463 0 0 0-.453-.454.447.447 0 0 0-.438.438.44.44 0 0 0 .438.453.45.45 0 0 0 .453-.437m0 0"/><path id="j" d="M2.14-3.797c0-.187-.015-.187-.203-.187-.39.39-1 .39-1.218.39v.235c.156 0 .562 0 .922-.172v3.015c0 .204 0 .282-.625.282h-.25V0c.328-.031.797-.031 1.125-.031s.797 0 1.125.031v-.234h-.25c-.625 0-.625-.078-.625-.282Zm0 0"/><path id="k" d="M.969-1.984c.015-.297.031-.797.234-1.157.266-.468.656-.64 1.016-.64.14 0 .422.015.562.187-.219.047-.265.188-.265.297 0 .156.109.281.297.281.171 0 .28-.109.28-.296 0-.376-.265-.672-.874-.672-.938 0-1.844.812-1.844 2.093 0 1.454.672 2.016 1.469 2.016.234 0 .64-.031 1-.39.203-.188.422-.422.422-.954 0-.203-.016-.593-.375-.922-.22-.203-.485-.406-.985-.406-.422 0-.734.219-.937.563m.875 1.89C1-.094 1-1.125 1-1.359c0-.5.328-1 .875-1 .313 0 .484.125.625.312.172.235.172.516.172.828 0 .407-.016.61-.219.86-.14.172-.328.265-.61.265m0 0"/><path id="q" d="M3.422-3.61c.047-.062.047-.078.047-.25H1.922c-.234 0-.39 0-.625-.015-.281-.016-.36-.031-.39-.172h-.22L.47-2.734h.219c.03-.125.078-.485.171-.547.047-.031.563-.031.657-.031h1.343c-.062.078-.375.468-.53.64-.579.703-.985 1.547-.985 2.453 0 .063 0 .344.297.344.28 0 .28-.281.28-.36V-.39c0-1.156.25-1.734.548-2.093Zm0 0"/><path id="s" d="M2.297-2.156c.453-.203.781-.5.781-.922 0-.594-.625-.906-1.25-.906-.672 0-1.265.406-1.265 1.015 0 .375.25.656.5.813.062.031.203.11.265.14-.39.157-.953.485-.953 1.094 0 .703.75 1.047 1.438 1.047.796 0 1.453-.484 1.453-1.14 0-.423-.25-.657-.328-.75-.126-.11-.422-.282-.641-.391M1.219-2.75c-.016-.016-.313-.172-.313-.453 0-.39.469-.578.907-.578.468 0 .937.25.937.703 0 .469-.5.703-.672.797Zm.343.86c.079.046.72.406.876.484.124.078.453.25.453.593 0 .485-.547.72-1.063.72-.547 0-1.062-.313-1.062-.829 0-.515.468-.844.797-.969m0 0"/><path id="u" d="M2.672-1.89c0 .452-.031.906-.25 1.265-.156.234-.438.531-.906.531-.141 0-.47-.015-.625-.172.187-.046.234-.171.234-.28 0-.157-.11-.298-.281-.298S.547-.719.547-.53c0 .484.453.656.969.656.922 0 1.75-.844 1.75-2.094 0-1.453-.657-2.015-1.422-2.015-.766 0-1.469.562-1.469 1.343 0 .454.172.704.39.922.25.25.548.407.985.407.516 0 .797-.344.922-.579m-.89.39a.7.7 0 0 1-.626-.312C.984-2.047.97-2.297.97-2.641s0-.578.203-.828a.8.8 0 0 1 .672-.312c.812 0 .812 1.015.812 1.265 0 .532-.36 1.016-.875 1.016m0 0"/><path id="w" d="M3.297-1.906c0-.438 0-2.078-1.469-2.078S.36-2.344.36-1.906c0 .422 0 2.031 1.47 2.031 1.468 0 1.468-1.61 1.468-2.031M1.828-.062a.84.84 0 0 1-.812-.625C.922-1.031.922-1.61.922-1.984c0-.407 0-.86.094-1.188.14-.531.593-.61.812-.61.266 0 .672.126.797.579.094.312.094.75.094 1.219 0 .375 0 .984-.094 1.312a.825.825 0 0 1-.797.61m0 0"/><path id="z" d="M3.219-1.125H3c-.016.094-.078.484-.156.547-.047.047-.531.047-.625.047h-1.11l.766-.625c.203-.172.734-.547.922-.735.172-.171.422-.484.422-.906 0-.75-.672-1.187-1.485-1.187-.765 0-1.296.515-1.296 1.078 0 .297.25.344.312.344a.32.32 0 0 0 .328-.329c0-.125-.078-.328-.344-.328.141-.297.5-.531.922-.531.625 0 .953.469.953.953 0 .422-.28.86-.687 1.25L.5-.25C.438-.187.438-.187.438 0H3.03Zm0 0"/><path id="B" d="M1.766-1.984c.5 0 .843.343.843.953 0 .656-.39.937-.828.937C1.61-.094 1-.125.734-.469c.235-.031.329-.187.329-.343a.33.33 0 0 0-.344-.344.34.34 0 0 0-.344.36c0 .593.656.921 1.422.921.89 0 1.469-.562 1.469-1.156 0-.438-.328-.907-1.047-1.078.484-.157.86-.547.86-1.032 0-.484-.563-.843-1.282-.843-.703 0-1.234.328-1.234.812 0 .266.203.328.328.328.156 0 .312-.094.312-.312 0-.188-.125-.297-.297-.313.282-.312.828-.312.89-.312.298 0 .688.14.688.64 0 .329-.187.907-.796.938-.11 0-.266.015-.313.015-.062.016-.125.016-.125.11s.063.094.156.094Zm0 0"/><path id="l" d="M3.078-3.781c0-.156 0-.235-.094-.235-.046 0-.062 0-.187.11-.016.015-.094.094-.156.14-.266-.203-.547-.25-.86-.25-1.187 0-1.468.657-1.468 1.11 0 .281.125.515.328.719.297.28.64.343 1.093.421.47.094.61.11.813.266.094.078.312.25.312.578 0 .797-.906.797-1.03.797-.907 0-1.141-.766-1.25-1.25-.032-.094-.048-.14-.141-.14-.125 0-.125.077-.125.234v1.14c0 .157 0 .235.093.235.063 0 .063 0 .235-.172a1.2 1.2 0 0 1 .172-.219c.375.375.796.39 1.015.39 1.11 0 1.485-.64 1.485-1.234 0-.406-.172-.656-.376-.859-.296-.297-.624-.36-1.28-.484-.235-.047-.891-.157-.891-.672 0-.281.203-.672 1.015-.672.969 0 1.032.75 1.047.969.016.109.016.172.125.172.125 0 .125-.063.125-.235Zm0 0"/><path id="m" d="m1.656-3.969-1.297.11v.265c.579 0 .657.063.657.5v2.407c0 .406-.094.406-.688.406V0c.39-.016.594-.031.984-.031.141 0 .516 0 .954.031v-.281c-.578 0-.61-.047-.61-.39Zm.016-1.562a.477.477 0 0 0-.484-.485.497.497 0 0 0-.485.485c0 .265.219.484.485.484a.47.47 0 0 0 .484-.484m0 0"/><path id="n" d="M1.672-2.328c0-.953.672-1.406 1.234-1.406.531 0 .64.437.64.968v2.079c0 .406-.093.406-.687.406V0c.422-.016.594-.031 1.032-.031.422 0 .547.015 1.015.031v-.281c-.453 0-.687 0-.687-.281v-1.72c0-.734 0-1-.25-1.312-.203-.25-.547-.375-1-.375-.828 0-1.219.625-1.344.875h-.016v-.875l-1.296.11v.265c.609 0 .687.063.687.516v2.39C1-.28.906-.28.313-.28V0c.421-.016.593-.031 1.03-.031.423 0 .548.015 1.016.031v-.281c-.593 0-.687 0-.687-.406Zm0 0"/><path id="o" d="M2.719-5.734c0-.22 0-.235-.219-.235-.562.563-1.39.563-1.672.563v.281c.172 0 .719 0 1.203-.234v4.64c0 .328-.015.438-.86.438h-.28V0c.312-.031 1.125-.031 1.484-.031.375 0 1.172 0 1.5.031v-.281h-.281c-.844 0-.875-.11-.875-.438Zm0 0"/><path id="r" d="M4.14-1.594h-.25c-.015.125-.093.657-.203.797-.062.078-.671.078-.859.078H1.234l.891-.843c1.469-1.266 2.016-1.75 2.016-2.657 0-1.031-.844-1.75-1.953-1.75-1.032 0-1.735.813-1.735 1.625 0 .453.39.5.469.5.203 0 .469-.14.469-.469a.45.45 0 0 0-.47-.468c-.046 0-.062 0-.109.015.22-.64.797-.921 1.282-.921.906 0 1.219.843 1.219 1.468 0 .907-.688 1.657-1.11 2.125L.563-.328c-.11.11-.11.125-.11.328h3.438Zm0 0"/><path id="t" d="M2.734-3.156C3.563-3.47 3.97-4.125 3.97-4.75c0-.687-.766-1.219-1.703-1.219-.922 0-1.625.532-1.625 1.203 0 .297.187.47.453.47a.435.435 0 0 0 .453-.454c0-.312-.219-.437-.531-.437.234-.375.78-.563 1.234-.563.734 0 .875.594.875 1.016 0 .265-.047.703-.266 1.047-.28.39-.593.406-.859.437-.219.016-.234.016-.312.016-.079 0-.157.015-.157.109 0 .125.078.125.235.125h.406c.781 0 1.125.625 1.125 1.469 0 1.156-.61 1.484-1.063 1.484-.171 0-1.046-.047-1.437-.719a.475.475 0 0 0 .562-.484.47.47 0 0 0-.484-.484c-.219 0-.484.14-.484.515 0 .797.828 1.422 1.875 1.422 1.109 0 1.953-.812 1.953-1.734 0-.782-.625-1.438-1.485-1.625m0 0"/><path id="v" d="M.266-1.766v.282h2.437v.78c0 .329-.015.423-.687.423h-.203V0C2.375-.031 3-.031 3.063-.031c.046 0 .703 0 1.265.031v-.281h-.203c-.672 0-.703-.094-.703-.422v-.781h.922v-.282h-.922v-4.062c0-.188 0-.25-.172-.25-.11 0-.11.016-.187.14Zm.28 0 2.22-3.312v3.312Zm0 0"/><path id="x" d="M.938-3.094c0 .156 0 .266.125.266.062 0 .093-.047.14-.125a1.45 1.45 0 0 1 1.172-.594c.969 0 .969 1.39.969 1.703 0 .282 0 .844-.266 1.25-.234.375-.61.547-.969.547a1.46 1.46 0 0 1-1.343-1c.015 0 .062.016.125.016.187 0 .453-.11.453-.438 0-.281-.203-.437-.453-.437-.188 0-.438.11-.438.468 0 .813.688 1.641 1.688 1.641 1.078 0 2-.89 2-2 0-1.078-.766-1.969-1.75-1.969-.422 0-.86.141-1.188.47v-1.767c.281.079.563.125.828.125 1.11 0 1.75-.796 1.75-.921 0-.079-.047-.11-.094-.11-.015 0-.03 0-.124.047a3.5 3.5 0 0 1-1.204.234c-.39 0-.796-.078-1.203-.234-.093-.047-.11-.047-.11-.047-.109 0-.109.078-.109.235Zm0 0"/><path id="y" d="M1.203-2.969c0-.922.094-1.422.344-1.89.172-.375.61-.891 1.281-.891.172 0 .594.031.797.36-.328 0-.484.171-.484.406a.41.41 0 0 0 .422.422c.25 0 .421-.172.421-.438 0-.5-.359-.969-1.171-.969-1.157 0-2.422 1.14-2.422 3.14C.39-.405 1.484.204 2.328.204c.985 0 1.89-.844 1.89-2.031 0-1.125-.827-2-1.843-2-.531 0-.922.328-1.172.86m1.11 2.922c-.516 0-.813-.422-.907-.687-.172-.407-.187-1.157-.187-1.297 0-.594.281-1.563 1.14-1.563.141 0 .579 0 .875.547.172.344.172.781.172 1.219 0 .422 0 .875-.172 1.203-.28.516-.671.578-.921.578m0 0"/><path id="A" d="M4.39-5.469c.079-.093.079-.125.079-.312H2.25c-1.14 0-1.172-.11-1.187-.282h-.25L.516-4.187h.25C.796-4.39.875-4.89.984-5c.063-.062.782-.062.907-.062h1.875l-.86 1.171C1.734-2.28 1.625-.812 1.625-.312c0 .109 0 .515.422.515s.422-.406.422-.516V-.75c0-1.328.187-2.36.672-3.016Zm0 0"/><path id="C" d="M1.547-4.078c-.266-.172-.484-.406-.484-.734 0-.594.625-.938 1.218-.938.703 0 1.25.484 1.25 1.11 0 .624-.531 1.046-.89 1.25Zm1.312.828c.454-.219 1.11-.656 1.11-1.39 0-.844-.844-1.329-1.656-1.329-.938 0-1.672.672-1.672 1.5 0 .328.125.657.343.922.141.172.204.203.72.531C.921-2.64.39-2.094.39-1.359c0 .953.937 1.562 1.906 1.562C3.344.203 4.219-.53 4.219-1.5c0-.875-.672-1.312-.89-1.453-.095-.063-.36-.235-.47-.297m-.906.39 1.125.704c.203.125.656.422.656.969 0 .703-.718 1.14-1.421 1.14C1.53-.047.875-.609.875-1.359c0-.641.438-1.172 1.078-1.5m0 0"/><path id="p" d="M4.406-3.625a.504.504 0 0 0-.422.484c0 .172.125.329.344.329.25 0 .5-.22.5-.532 0-.422-.453-.625-.875-.625-.531 0-.844.485-.953.672a1.04 1.04 0 0 0-1-.672c-.953 0-1.484 1.156-1.484 1.39 0 .079.062.11.125.11.078 0 .109-.047.125-.11.28-.89.875-1.155 1.218-1.155.266 0 .485.172.485.593 0 .313-.375 1.75-.5 2.188-.063.265-.344.828-.828.828-.188 0-.375-.062-.453-.11.234-.046.421-.265.421-.484 0-.234-.171-.328-.343-.328-.266 0-.5.219-.5.531 0 .438.484.61.859.61.531 0 .828-.422.969-.672.219.594.75.672.984.672.969 0 1.485-1.156 1.485-1.375 0-.047-.032-.11-.11-.11-.11 0-.11.032-.156.172-.203.64-.719 1.094-1.188 1.094-.25 0-.5-.156-.5-.594 0-.203.125-.687.204-1.031.046-.156.28-1.125.296-1.187.11-.329.375-.797.844-.797.156 0 .328.015.453.109m0 0"/><clipPath id="D"><path d="M181 84h43v21h-43Zm0 0"/></clipPath></defs><path fill="none" stroke="#7F7F7F" stroke-linecap="round" stroke-miterlimit="10" stroke-width=".399" d="M31.379 95.516v-1.993M59.727 95.516v-1.993M88.074 95.516v-1.993M116.422 95.516v-1.993M144.77 95.516v-1.993M173.117 95.516v-1.993M24.406 84.32h1.992M24.406 71.156h1.992M24.406 57.988h1.992M24.406 44.82h1.992M24.406 31.652h1.992M24.406 18.484h1.992M24.406 5.316h1.992"/><path fill="none" stroke="#7F7F7F" stroke-miterlimit="10" stroke-width=".399" d="M31.379 93.523h141.734"/><path fill="none" stroke="#BFBFBF" stroke-linecap="square" stroke-miterlimit="10" stroke-width=".399" d="M31.379 88.54h141.734M31.379.95h141.734"/><path fill="none" stroke="#7F7F7F" stroke-miterlimit="10" stroke-width=".399" d="M26.398 88.54V.95"/><path fill="none" stroke="#BFBFBF" stroke-linecap="square" stroke-miterlimit="10" stroke-width=".399" d="M31.379 88.54V.95M173.113 88.54V.95"/><path fill="none" stroke="#000" stroke-dasharray="2.98885 0.89665 0.89665 0.89665" stroke-miterlimit="10" stroke-width=".797" d="M31.379 44.82s4.27-9.613 5.906-12.328c1.64-2.715 4.266-6.355 5.906-7.238 1.637-.887 4.266-.457 5.907.851 1.636 1.31 4.265 5.625 5.906 8.586 1.637 2.965 4.266 9.38 5.902 12.77 1.64 3.39 4.27 9.258 5.907 11.68 1.64 2.418 4.269 5.312 5.906 5.757 1.64.45 4.265-.828 5.906-2.539 1.64-1.71 4.266-6.629 5.906-9.789 1.637-3.16 4.266-9.687 5.906-12.992 1.637-3.305 4.266-8.746 5.907-10.828 1.636-2.086 4.265-4.187 5.902-4.187 1.64 0 4.27 2.101 5.906 4.187 1.641 2.082 4.27 7.523 5.907 10.828 1.64 3.305 4.265 9.828 5.906 12.988 1.637 3.16 4.265 8.082 5.906 9.793 1.637 1.711 4.266 2.989 5.906 2.54 1.637-.446 4.266-3.34 5.903-5.758 1.64-2.418 4.27-8.286 5.906-11.676 1.64-3.395 4.27-9.809 5.906-12.774 1.64-2.96 4.266-7.277 5.906-8.586 1.637-1.308 4.266-1.738 5.907-.851 1.636.883 4.265 4.523 5.906 7.238 1.637 2.715 5.902 12.328 5.902 12.328"/><path fill="none" stroke="#000" stroke-dasharray="2.98885 0.89665 0.89665 0.89665" stroke-miterlimit="10" stroke-width=".399" d="M31.379 44.82s4.27-9.84 5.906-12.715c1.64-2.875 4.266-6.851 5.906-8.011 1.637-1.16 4.266-1.328 5.907-.34 1.636.988 4.265 4.687 5.906 7.457 1.637 2.766 4.266 8.969 5.902 12.496 1.64 3.523 4.27 9.926 5.907 12.902 1.64 2.977 4.269 7.22 5.906 8.543 1.64 1.328 4.265 1.832 5.906 1.016 1.64-.813 4.266-4.23 5.906-6.883 1.637-2.652 4.266-8.726 5.906-12.234 1.637-3.512 4.266-9.992 5.907-13.063 1.636-3.066 4.265-7.566 5.902-9.058 1.64-1.492 4.27-2.332 5.906-1.692 1.641.637 4.27 3.758 5.907 6.29 1.64 2.535 4.265 8.468 5.906 11.956 1.637 3.489 4.265 10.028 5.906 13.18 1.637 3.152 4.266 7.89 5.906 9.543 1.637 1.652 4.266 2.828 5.903 2.367 1.64-.46 4.27-3.281 5.906-5.683 1.64-2.407 4.27-8.18 5.906-11.633 1.64-3.457 4.266-10.043 5.906-13.274 1.637-3.23 4.266-8.199 5.907-10.007 1.636-1.809 4.265-3.313 5.906-3.028 1.637.281 5.902 5.059 5.902 5.059"/><path fill="none" stroke="#000" stroke-dasharray="0.89665 0.89665" stroke-miterlimit="10" stroke-width=".797" d="M31.379 44.82s4.27-10.101 5.906-13.152c1.64-3.05 4.266-7.383 5.906-8.832 1.637-1.445 4.266-2.227 5.907-1.594 1.636.637 4.265 3.66 5.906 6.164 1.637 2.504 4.266 8.344 5.902 11.895 1.64 3.554 4.27 10.273 5.907 13.703 1.64 3.43 4.269 8.832 5.906 11.016 1.64 2.18 4.265 4.484 5.906 4.695 1.64.215 4.266-1.34 5.906-3.164 1.637-1.824 4.266-6.727 5.906-9.989 1.637-3.261 4.266-9.894 5.907-13.519 1.636-3.625 4.265-9.816 5.902-12.613 1.64-2.797 4.27-6.496 5.906-7.543 1.641-1.047 4.27-1.047 5.907 0 1.64 1.047 4.265 4.746 5.906 7.543 1.637 2.797 4.265 8.988 5.906 12.613 1.637 3.625 4.266 10.258 5.906 13.52 1.637 3.261 4.266 8.164 5.903 9.988 1.64 1.824 4.27 3.379 5.906 3.164 1.64-.211 4.27-2.516 5.906-4.695 1.64-2.184 4.266-7.586 5.906-11.016 1.637-3.43 4.266-10.149 5.907-13.703 1.636-3.551 4.265-9.39 5.906-11.895 1.637-2.504 5.902-6.164 5.902-6.164"/><path fill="none" stroke="#000" stroke-dasharray="0.89665 0.89665" stroke-miterlimit="10" stroke-width=".399" d="M31.379 44.82s4.27-10.418 5.906-13.66c1.64-3.238 4.266-7.945 5.906-9.695 1.637-1.75 4.266-3.172 5.907-2.922 1.636.246 4.265 2.531 5.906 4.703 1.637 2.176 4.266 7.5 5.902 10.969 1.64 3.469 4.27 10.281 5.907 14.043 1.64 3.758 4.269 10.086 5.906 13.043 1.64 2.957 4.265 6.965 5.906 8.261 1.64 1.297 4.266 1.825 5.906 1.083 1.637-.739 4.266-3.848 5.906-6.41 1.637-2.563 4.266-8.41 5.907-12.051 1.636-3.637 4.265-10.52 5.902-14.18 1.64-3.66 4.27-9.582 5.906-12.203 1.641-2.621 4.27-5.867 5.907-6.688 1.64-.82 4.265-.445 5.906.774 1.637 1.215 4.265 5.101 5.906 8.008 1.637 2.902 4.266 9.171 5.906 12.918 1.637 3.746 4.266 10.578 5.903 14.078 1.64 3.504 4.27 8.922 5.906 11.164 1.64 2.242 4.27 4.668 5.906 4.996 1.64.332 4.266-.938 5.906-2.614 1.637-1.675 4.266-6.269 5.907-9.468 1.636-3.196 4.265-9.785 5.906-13.574 1.637-3.793 5.902-13.743 5.902-13.743"/><path fill="none" stroke="#000" stroke-dasharray="2.98885 1.19554" stroke-miterlimit="10" stroke-width=".797" d="M31.379 44.82s4.27-10.804 5.906-14.257c1.64-3.458 4.266-8.567 5.906-10.645 1.637-2.078 4.266-4.156 5.907-4.332 1.636-.172 4.265 1.309 5.906 3.086 1.637 1.773 4.266 6.437 5.902 9.715 1.64 3.273 4.27 9.945 5.907 13.886 1.64 3.942 4.269 10.91 5.906 14.52 1.64 3.61 4.265 9.129 5.906 11.492 1.64 2.363 4.266 5.024 5.906 5.543 1.637.516 4.266-.355 5.906-1.816 1.637-1.461 4.266-5.649 5.907-8.715 1.636-3.07 4.265-9.5 5.902-13.399 1.64-3.894 4.27-10.945 5.906-14.683 1.641-3.738 4.27-9.625 5.907-12.254 1.64-2.629 4.265-5.848 5.906-6.703 1.637-.86 4.265-.602 5.906.531 1.637 1.137 4.266 4.805 5.906 7.645 1.637 2.836 4.266 8.992 5.903 12.812 1.64 3.824 4.27 10.895 5.906 14.73 1.64 3.837 4.27 10.04 5.906 12.919 1.64 2.878 4.266 6.64 5.906 7.828 1.637 1.191 4.266 1.55 5.907.75 1.636-.797 4.265-3.93 5.906-6.516 1.637-2.586 5.902-12.129 5.902-12.129"/><path fill="none" stroke="#000" stroke-dasharray="2.98885 1.19554" stroke-miterlimit="10" stroke-width=".399" d="M31.379 44.82s4.27-11.285 5.906-14.984c1.64-3.703 4.266-9.266 5.906-11.703 1.637-2.434 4.266-5.215 5.907-5.848 1.636-.633 4.265-.02 5.906 1.29 1.637 1.308 4.266 5.175 5.902 8.136 1.64 2.965 4.27 9.246 5.907 13.21 1.64 3.966 4.269 11.274 5.906 15.376 1.64 4.101 4.265 10.84 5.906 14.176 1.64 3.336 4.266 8.027 5.906 9.867 1.637 1.84 4.266 3.45 5.906 3.39 1.637-.058 4.266-1.878 5.907-3.828 1.636-1.945 4.265-6.797 5.902-10.203 1.64-3.406 4.27-10.23 5.906-14.347 1.641-4.118 4.27-11.41 5.907-15.336 1.64-3.93 4.265-10.098 5.906-12.973 1.637-2.879 4.265-6.566 5.906-7.758 1.637-1.191 4.266-1.59 5.906-.836 1.637.75 4.266 3.723 5.903 6.254 1.64 2.531 4.27 8.238 5.906 11.992 1.64 3.758 4.27 10.922 5.906 15.078 1.64 4.157 4.266 11.227 5.906 14.875 1.637 3.645 4.266 9.067 5.907 11.403 1.636 2.34 4.265 4.922 5.906 5.433 1.637.516 5.902-1.73 5.902-1.73"/><path fill="none" stroke="#000" stroke-miterlimit="10" stroke-width=".797" d="M31.379 44.82s4.27-11.898 5.906-15.898c1.64-3.996 4.266-10.082 5.906-12.918 1.637-2.836 4.266-6.383 5.907-7.524 1.636-1.144 4.265-1.48 5.906-.71 1.637.765 4.266 3.703 5.902 6.23 1.64 2.531 4.27 8.188 5.907 12.008 1.64 3.82 4.269 11.14 5.906 15.535 1.64 4.395 4.265 12 5.906 16.145 1.64 4.144 4.266 10.613 5.906 13.734 1.637 3.117 4.266 7.238 5.906 8.746 1.637 1.508 4.266 2.512 5.907 2.125 1.636-.383 4.265-2.691 5.902-4.898 1.64-2.204 4.27-7.383 5.906-10.997 1.641-3.613 4.27-10.703 5.907-15.046 1.64-4.348 4.265-12.004 5.906-16.266 1.637-4.262 4.265-11.066 5.906-14.445 1.637-3.38 4.266-8.055 5.906-9.918 1.637-1.864 4.266-3.524 5.903-3.524 1.64 0 4.27 1.66 5.906 3.524 1.64 1.863 4.27 6.53 5.906 9.914 1.64 3.379 4.266 10.183 5.906 14.445 1.637 4.262 4.266 11.926 5.907 16.27 1.636 4.343 4.265 11.425 5.906 15.043 1.637 3.613 5.902 11 5.902 11"/><path fill="none" stroke="#000" stroke-miterlimit="10" stroke-width=".399" d="M31.379 44.82s4.27-12.726 5.906-17.093c1.64-4.368 4.266-11.086 5.906-14.387 1.637-3.305 4.266-7.707 5.907-9.426C50.734 2.195 53.363.813 55.004.95c1.637.137 4.266 1.989 5.902 3.957 1.64 1.973 4.27 6.762 5.907 10.258 1.64 3.5 4.269 10.477 5.906 14.945 1.64 4.465 4.265 12.524 5.906 17.258 1.64 4.735 4.266 12.606 5.906 16.86 1.637 4.257 4.266 10.699 5.906 13.8 1.637 3.102 4.266 7.094 5.907 8.551 1.636 1.461 4.265 2.375 5.902 1.961 1.64-.41 4.27-2.719 5.906-4.937 1.641-2.223 4.27-7.387 5.907-11.063 1.64-3.676 4.265-10.887 5.906-15.441 1.637-4.551 4.265-12.66 5.906-17.368 1.637-4.71 4.266-12.449 5.906-16.574 1.637-4.125 4.266-10.27 5.903-13.156 1.64-2.89 4.27-6.465 5.906-7.656 1.64-1.196 4.27-1.637 5.906-.95 1.64.688 4.266 3.446 5.906 5.907 1.637 2.457 4.266 7.98 5.907 11.824 1.636 3.848 4.265 11.262 5.906 15.883 1.637 4.625 5.902 17.43 5.902 17.43"/><use xlink:href="#a" x="27.105" y="103.834"/><use xlink:href="#b" x="31.339" y="101.021"/><use xlink:href="#c" x="53.334" y="103.834"/><use xlink:href="#a" x="57.569" y="103.834"/><use xlink:href="#b" x="61.803" y="101.021"/><use xlink:href="#d" x="81.681" y="103.834"/><use xlink:href="#a" x="85.916" y="103.834"/><use xlink:href="#b" x="90.15" y="101.021"/><use xlink:href="#e" x="110.028" y="103.834"/><use xlink:href="#a" x="114.263" y="103.834"/><use xlink:href="#b" x="118.496" y="101.021"/><use xlink:href="#f" x="138.375" y="103.834"/><use xlink:href="#a" x="142.61" y="103.834"/><use xlink:href="#b" x="146.843" y="101.021"/><use xlink:href="#g" x="166.721" y="103.834"/><use xlink:href="#a" x="170.956" y="103.834"/><use xlink:href="#b" x="175.19" y="101.021"/><use xlink:href="#h" x=".109" y="86.475"/><use xlink:href="#a" x="6.696" y="86.475"/><use xlink:href="#i" x="10.93" y="86.475"/><use xlink:href="#c" x="13.282" y="86.475"/><use xlink:href="#g" x="17.517" y="86.475"/><use xlink:href="#h" x=".109" y="73.307"/><use xlink:href="#a" x="6.696" y="73.307"/><use xlink:href="#i" x="10.93" y="73.307"/><use xlink:href="#c" x="13.282" y="73.307"/><use xlink:href="#a" x="17.517" y="73.307"/><use xlink:href="#h" x=".109" y="60.14"/><use xlink:href="#a" x="6.696" y="60.14"/><use xlink:href="#i" x="10.93" y="60.14"/><use xlink:href="#a" x="13.282" y="60.14"/><use xlink:href="#g" x="17.517" y="60.14"/><use xlink:href="#a" x="6.696" y="47.388"/><use xlink:href="#i" x="10.93" y="47.388"/><use xlink:href="#a" x="13.282" y="47.388"/><use xlink:href="#a" x="17.517" y="47.388"/><use xlink:href="#a" x="6.696" y="34.22"/><use xlink:href="#i" x="10.93" y="34.22"/><use xlink:href="#a" x="13.282" y="34.22"/><use xlink:href="#g" x="17.517" y="34.22"/><use xlink:href="#a" x="6.696" y="21.053"/><use xlink:href="#i" x="10.93" y="21.053"/><use xlink:href="#c" x="13.282" y="21.053"/><use xlink:href="#a" x="17.517" y="21.053"/><use xlink:href="#a" x="6.696" y="7.885"/><use xlink:href="#i" x="10.93" y="7.885"/><use xlink:href="#c" x="13.282" y="7.885"/><use xlink:href="#g" x="17.517" y="7.885"/><use xlink:href="#j" x="218.489" y="7.374"/><path fill="none" stroke="#000" stroke-miterlimit="10" stroke-width=".379" d="M218.488 8.805h3.653"/><use xlink:href="#k" x="218.489" y="14.09"/><use xlink:href="#l" x="224.874" y="11.048"/><use xlink:href="#m" x="228.509" y="11.048"/><use xlink:href="#n" x="231.069" y="11.048"/><use xlink:href="#o" x="237.722" y="11.048"/><use xlink:href="#o" x="242.33" y="11.048"/><use xlink:href="#p" x="246.939" y="11.048"/><path fill="none" stroke="#000" stroke-miterlimit="10" stroke-width=".399" d="M192.39 8.836s2.91-1.512 4.981-1.328c2.074.183 7.89 2.472 9.965 2.656 2.074.184 4.98-1.328 4.98-1.328"/><use xlink:href="#j" x="218.489" y="19.935"/><path fill="none" stroke="#000" stroke-miterlimit="10" stroke-width=".379" d="M218.488 21.367h3.653"/><use xlink:href="#q" x="218.489" y="26.651"/><use xlink:href="#l" x="224.874" y="23.608"/><use xlink:href="#m" x="228.509" y="23.608"/><use xlink:href="#n" x="231.069" y="23.608"/><use xlink:href="#o" x="237.722" y="23.608"/><use xlink:href="#r" x="242.33" y="23.608"/><use xlink:href="#p" x="246.939" y="23.608"/><path fill="none" stroke="#000" stroke-miterlimit="10" stroke-width=".797" d="M192.39 21.398s2.91-1.511 4.981-1.328c2.074.184 7.89 2.47 9.965 2.653 2.074.183 4.98-1.325 4.98-1.325"/><use xlink:href="#j" x="218.489" y="32.496"/><path fill="none" stroke="#000" stroke-miterlimit="10" stroke-width=".379" d="M218.488 33.93h3.653"/><use xlink:href="#s" x="218.489" y="39.212"/><use xlink:href="#l" x="224.874" y="36.169"/><use xlink:href="#m" x="228.509" y="36.169"/><use xlink:href="#n" x="231.069" y="36.169"/><use xlink:href="#o" x="237.722" y="36.169"/><use xlink:href="#t" x="242.33" y="36.169"/><use xlink:href="#p" x="246.939" y="36.169"/><path fill="none" stroke="#000" stroke-dasharray="2.98885 1.19554" stroke-miterlimit="10" stroke-width=".399" d="M192.39 33.957s2.91-1.512 4.981-1.324c2.074.183 7.89 2.469 9.965 2.652 2.074.184 4.98-1.328 4.98-1.328"/><use xlink:href="#j" x="218.489" y="45.057"/><path fill="none" stroke="#000" stroke-miterlimit="10" stroke-width=".379" d="M218.488 46.488h3.653"/><use xlink:href="#u" x="218.489" y="51.773"/><use xlink:href="#l" x="224.874" y="48.73"/><use xlink:href="#m" x="228.509" y="48.73"/><use xlink:href="#n" x="231.069" y="48.73"/><use xlink:href="#o" x="237.722" y="48.73"/><use xlink:href="#v" x="242.33" y="48.73"/><use xlink:href="#p" x="246.939" y="48.73"/><path fill="none" stroke="#000" stroke-dasharray="2.98885 1.19554" stroke-miterlimit="10" stroke-width=".797" d="M192.39 46.52s2.91-1.512 4.981-1.329c2.074.184 7.89 2.47 9.965 2.653 2.074.183 4.98-1.324 4.98-1.324"/><use xlink:href="#j" x="220.316" y="57.617"/><path fill="none" stroke="#000" stroke-miterlimit="10" stroke-width=".379" d="M218.488 59.05h7.309"/><use xlink:href="#j" x="218.489" y="64.334"/><use xlink:href="#w" x="222.142" y="64.334"/><use xlink:href="#l" x="228.527" y="61.291"/><use xlink:href="#m" x="232.162" y="61.291"/><use xlink:href="#n" x="234.722" y="61.291"/><use xlink:href="#o" x="241.375" y="61.291"/><use xlink:href="#x" x="245.983" y="61.291"/><use xlink:href="#p" x="250.592" y="61.291"/><path fill="none" stroke="#000" stroke-dasharray="0.89665 0.89665" stroke-miterlimit="10" stroke-width=".399" d="M192.39 59.078s2.91-1.512 4.981-1.324c2.074.184 7.89 2.469 9.965 2.652 2.074.184 4.98-1.328 4.98-1.328"/><use xlink:href="#j" x="220.316" y="70.178"/><path fill="none" stroke="#000" stroke-miterlimit="10" stroke-width=".379" d="M218.488 71.61h7.309"/><use xlink:href="#j" x="218.489" y="76.894"/><use xlink:href="#j" x="222.142" y="76.894"/><use xlink:href="#l" x="228.527" y="73.852"/><use xlink:href="#m" x="232.162" y="73.852"/><use xlink:href="#n" x="234.722" y="73.852"/><use xlink:href="#o" x="241.375" y="73.852"/><use xlink:href="#y" x="245.983" y="73.852"/><use xlink:href="#p" x="250.592" y="73.852"/><path fill="none" stroke="#000" stroke-dasharray="0.89665 0.89665" stroke-miterlimit="10" stroke-width=".797" d="M192.39 71.64s2.91-1.511 4.981-1.328c2.074.184 7.89 2.47 9.965 2.657 2.074.183 4.98-1.328 4.98-1.328"/><use xlink:href="#j" x="220.316" y="82.739"/><path fill="none" stroke="#000" stroke-miterlimit="10" stroke-width=".379" d="M218.488 84.172h7.309"/><use xlink:href="#j" x="218.489" y="89.455"/><use xlink:href="#z" x="222.142" y="89.455"/><use xlink:href="#l" x="228.527" y="86.413"/><use xlink:href="#m" x="232.162" y="86.413"/><use xlink:href="#n" x="234.722" y="86.413"/><use xlink:href="#o" x="241.375" y="86.413"/><use xlink:href="#A" x="245.983" y="86.413"/><use xlink:href="#p" x="250.592" y="86.413"/><path fill="none" stroke="#000" stroke-dasharray="2.98885 0.89665 0.89665 0.89665" stroke-miterlimit="10" stroke-width=".399" d="M192.39 84.2s2.91-1.509 4.981-1.325c2.074.184 7.89 2.469 9.965 2.652 2.074.184 4.98-1.328 4.98-1.328"/><use xlink:href="#j" x="220.316" y="95.3"/><path fill="none" stroke="#000" stroke-miterlimit="10" stroke-width=".379" d="M218.488 96.73h7.309"/><use xlink:href="#j" x="218.489" y="102.016"/><use xlink:href="#B" x="222.142" y="102.016"/><use xlink:href="#l" x="228.527" y="98.974"/><use xlink:href="#m" x="232.162" y="98.974"/><use xlink:href="#n" x="234.722" y="98.974"/><use xlink:href="#o" x="241.375" y="98.974"/><use xlink:href="#C" x="245.983" y="98.974"/><use xlink:href="#p" x="250.592" y="98.974"/><g clip-path="url(#D)"><path fill="none" stroke="#000" stroke-dasharray="2.98885 0.89665 0.89665 0.89665" stroke-miterlimit="10" stroke-width=".797" d="M192.39 96.762s2.91-1.512 4.981-1.328c2.074.183 7.89 2.472 9.965 2.656 2.074.183 4.98-1.328 4.98-1.328"/></g></svg>