<svg xmlns="http://www.w3.org/2000/svg" xmlns:xlink="http://www.w3.org/1999/xlink" width="101.072" height="79.49"><defs><path id="a" d="M5.563-1.812c.14 0 .312 0 .312-.172 0-.188-.172-.188-.312-.188H1c-.125 0-.297 0-.297.188 0 .172.172.172.297.172Zm0 0"/><path id="b" d="M2.5-5.078c0-.219-.016-.219-.234-.219-.328.313-.75.5-1.5.5v.266c.218 0 .64 0 1.109-.203v4.078c0 .297-.031.39-.781.39H.812V0c.329-.031 1.016-.031 1.376-.031s1.046 0 1.374.031v-.266h-.28c-.75 0-.782-.093-.782-.39Zm0 0"/><path id="c" d="M1.11-4.484c.109.03.421.125.765.125 1 0 1.594-.703 1.594-.828 0-.094-.047-.11-.094-.11-.016 0-.031 0-.094.031a3 3 0 0 1-1.11.22c-.468 0-.858-.11-1.108-.22-.079-.03-.094-.03-.11-.03-.094 0-.094.077-.094.234v2.328c0 .14 0 .234.125.234.063 0 .079-.031.125-.094.094-.11.391-.515 1.079-.515.437 0 .656.359.734.515.125.281.14.656.14.953s0 .735-.218 1.079c-.156.25-.485.484-.906.484A1.27 1.27 0 0 1 .734-.922c.016.016.079.016.079.016.218 0 .406-.14.406-.39a.39.39 0 0 0-.39-.407c-.157 0-.407.078-.407.422 0 .718.625 1.453 1.531 1.453 1 0 1.844-.781 1.844-1.766 0-.922-.672-1.75-1.61-1.75-.39 0-.765.125-1.078.406Zm0 0"/><path id="d" d="M3.89-2.547c0-.844-.078-1.36-.343-1.875-.344-.703-1-.875-1.438-.875-1 0-1.375.75-1.484.969C.344-3.75.328-2.953.328-2.547c0 .531.016 1.328.406 1.969.36.594.954.75 1.375.75.391 0 1.063-.125 1.47-.906.296-.578.312-1.297.312-1.813M2.11-.062c-.266 0-.813-.125-.985-.954-.094-.453-.094-1.203-.094-1.625 0-.546 0-1.109.094-1.546.172-.813.781-.891.984-.891.266 0 .829.14.985.86.094.437.094 1.046.094 1.577 0 .47 0 1.188-.094 1.641-.172.828-.719.938-.985.938m0 0"/><path id="f" d="M2.25-1.625c.125-.125.453-.39.594-.5.484-.453.953-.89.953-1.61 0-.953-.797-1.562-1.781-1.562-.97 0-1.594.719-1.594 1.438 0 .39.312.437.422.437.172 0 .422-.11.422-.422 0-.406-.407-.406-.5-.406.234-.594.765-.781 1.156-.781.734 0 1.125.625 1.125 1.297 0 .828-.578 1.437-1.531 2.39l-1 1.047C.422-.219.422-.203.422 0h3.14l.235-1.422h-.25c-.016.156-.078.547-.172.703-.047.063-.656.063-.781.063H1.172Zm0 0"/><path id="g" d="M3.125-2.344c0 1.938-.922 2.266-1.39 2.266-.173 0-.579-.016-.798-.266.36-.031.375-.297.375-.375a.37.37 0 0 0-.375-.375.37.37 0 0 0-.375.39c0 .548.454.876 1.188.876 1.094 0 2.125-1.094 2.125-2.797 0-2.062-.922-2.672-1.734-2.672-.953 0-1.797.734-1.797 1.781 0 1.016.781 1.766 1.687 1.766.563 0 .906-.36 1.094-.766Zm-1.062.375c-.376 0-.61-.172-.782-.468-.187-.282-.187-.672-.187-1.079 0-.468 0-.796.218-1.125.204-.296.454-.453.829-.453.53 0 .765.532.797.563.156.39.171 1.015.171 1.172 0 .64-.343 1.39-1.046 1.39m0 0"/><path id="h" d="M1.094-2.64c0-.657.062-1.235.343-1.72.25-.406.657-.734 1.157-.734.156 0 .515.032.703.297-.36.031-.39.297-.39.375 0 .25.187.375.374.375.14 0 .375-.078.375-.39 0-.47-.36-.86-1.078-.86C1.468-5.297.344-4.25.344-2.53.344-.36 1.359.172 2.125.172c.39 0 .797-.11 1.156-.453.328-.313.594-.64.594-1.344 0-1.031-.797-1.766-1.672-1.766-.578 0-.922.36-1.11.75M2.125-.079a.88.88 0 0 1-.797-.516c-.187-.36-.203-.89-.203-1.203 0-.781.422-1.375 1.047-1.375.39 0 .64.203.781.485.172.296.172.656.172 1.062s0 .75-.156 1.047c-.219.36-.485.5-.844.5m0 0"/><path id="i" d="M2.016-2.656c.625 0 1.03.453 1.03 1.297 0 1-.562 1.28-.983 1.28-.438 0-1.047-.155-1.329-.577.297 0 .5-.188.5-.438 0-.265-.187-.437-.453-.437-.203 0-.437.125-.437.453 0 .75.812 1.25 1.734 1.25 1.047 0 1.797-.734 1.797-1.531 0-.672-.531-1.266-1.344-1.453.625-.22 1.11-.75 1.11-1.391 0-.64-.72-1.094-1.547-1.094-.86 0-1.5.453-1.5 1.063 0 .297.187.422.406.422.25 0 .406-.172.406-.407 0-.297-.265-.406-.437-.406.344-.437.953-.469 1.094-.469.203 0 .812.063.812.89 0 .548-.234.891-.344 1.016-.234.25-.422.266-.906.297-.156 0-.219.016-.219.125 0 .11.078.11.219.11Zm0 0"/><path id="j" d="M2.64-2.875c.454-.219 1-.61 1-1.234 0-.766-.78-1.188-1.515-1.188-.844 0-1.531.578-1.531 1.328 0 .297.094.563.297.797.14.172.172.188.656.5C.563-2.234.344-1.656.344-1.219c0 .89.89 1.39 1.765 1.39.97 0 1.766-.671 1.766-1.515 0-.5-.266-.828-.406-.968-.125-.126-.14-.141-.828-.563m-1.234-.75c-.234-.14-.422-.375-.422-.64 0-.5.547-.829 1.125-.829.61 0 1.125.422 1.125.985 0 .453-.359.843-.828 1.078Zm.39 1.094c.032.015.938.578 1.079.656.125.078.547.328.547.813 0 .609-.656.984-1.297.984-.719 0-1.312-.484-1.312-1.14 0-.594.437-1.063.984-1.313m0 0"/><path id="e" d="M3.266-1.5c0-.75-.61-1.36-1.36-1.36-.734 0-1.343.61-1.343 1.36 0 .766.609 1.36 1.343 1.36.75 0 1.36-.594 1.36-1.36M1.906-.453A1.024 1.024 0 0 1 .875-1.5c0-.578.453-1.047 1.031-1.047s1.047.469 1.047 1.047c0 .594-.469 1.047-1.047 1.047m0 0"/></defs><path fill="none" stroke="#7F7F7F" stroke-linecap="round" stroke-miterlimit="10" stroke-width=".399" d="m27.816 53.582-1.726.996M38.191 63.957l-.996 1.727M52.363 67.754v1.996M66.54 63.957l.995 1.727M76.914 53.582l1.727.996M80.71 39.41h1.993M76.914 25.234l1.727-.996M66.54 14.86l.995-1.727M52.363 11.063V9.07M38.191 14.86l-.996-1.727M27.816 25.234l-1.726-.996M24.016 39.41h-1.993M52.363 39.41h0M71.262 39.41h0M71.262 41.402v-3.984M54.355 20.512h-3.984M33.465 37.418v3.984M50.371 58.309h3.984"/><path fill="none" stroke="#7F7F7F" stroke-miterlimit="10" stroke-width=".399" d="M24.016 39.41c0 15.656 12.691 28.344 28.347 28.344S80.711 55.066 80.711 39.41 68.02 11.063 52.363 11.063 24.016 23.752 24.016 39.41M52.363 39.41h28.348M52.363 39.41V11.063M52.363 39.41H24.016M52.363 39.41v28.344"/><path fill="none" stroke="#000" stroke-miterlimit="10" stroke-width=".399" d="m59.836 37.586 2.816-2.816m-2.816 0 2.816 2.816M67.32 31.367l2.82-2.816m-2.82 0 2.82 2.816M72.668 22.598l2.82-2.82m-2.82 0 2.82 2.82"/><use xlink:href="#a" x="-.173" y="62.898"/><use xlink:href="#b" x="6.413" y="62.898"/><use xlink:href="#c" x="10.648" y="62.898"/><use xlink:href="#d" x="14.882" y="62.898"/><use xlink:href="#e" x="19.116" y="60.085"/><use xlink:href="#a" x="10.932" y="74.003"/><use xlink:href="#b" x="17.518" y="74.003"/><use xlink:href="#f" x="21.753" y="74.003"/><use xlink:href="#d" x="25.987" y="74.003"/><use xlink:href="#e" x="30.221" y="71.19"/><use xlink:href="#a" x="42.678" y="78.068"/><use xlink:href="#g" x="49.264" y="78.068"/><use xlink:href="#d" x="53.499" y="78.068"/><use xlink:href="#e" x="57.732" y="75.255"/><use xlink:href="#a" x="70.189" y="74.003"/><use xlink:href="#h" x="76.775" y="74.003"/><use xlink:href="#d" x="81.01" y="74.003"/><use xlink:href="#e" x="85.244" y="71.19"/><use xlink:href="#a" x="81.294" y="62.898"/><use xlink:href="#i" x="87.88" y="62.898"/><use xlink:href="#d" x="92.115" y="62.898"/><use xlink:href="#e" x="96.349" y="60.085"/><use xlink:href="#d" x="85.358" y="42.241"/><use xlink:href="#e" x="89.593" y="39.428"/><use xlink:href="#i" x="81.294" y="21.584"/><use xlink:href="#d" x="85.529" y="21.584"/><use xlink:href="#e" x="89.762" y="18.771"/><use xlink:href="#h" x="70.189" y="10.479"/><use xlink:href="#d" x="74.424" y="10.479"/><use xlink:href="#e" x="78.657" y="7.666"/><use xlink:href="#g" x="45.971" y="6.414"/><use xlink:href="#d" x="50.206" y="6.414"/><use xlink:href="#e" x="54.439" y="3.602"/><use xlink:href="#b" x="17.518" y="10.479"/><use xlink:href="#f" x="21.753" y="10.479"/><use xlink:href="#d" x="25.987" y="10.479"/><use xlink:href="#e" x="30.221" y="7.666"/><use xlink:href="#b" x="6.413" y="21.584"/><use xlink:href="#c" x="10.648" y="21.584"/><use xlink:href="#d" x="14.882" y="21.584"/><use xlink:href="#e" x="19.116" y="18.771"/><use xlink:href="#b" x="2.349" y="42.241"/><use xlink:href="#j" x="6.584" y="42.241"/><use xlink:href="#d" x="10.818" y="42.241"/><use xlink:href="#e" x="15.051" y="39.428"/><use xlink:href="#d" x="50.246" y="47.202"/><use xlink:href="#b" x="69.144" y="47.202"/><use xlink:href="#b" x="69.144" y="49.194"/><use xlink:href="#b" x="43.481" y="23.08"/><use xlink:href="#b" x="31.349" y="49.194"/><use xlink:href="#b" x="43.481" y="60.875"/></svg>