<svg xmlns="http://www.w3.org/2000/svg" width="87.356" height="75.926"><defs><clipPath id="a"><path d="M0 0h50v75.89H0Zm0 0"/></clipPath></defs><path fill="none" stroke="#7F7F7F" stroke-miterlimit="10" stroke-width=".199" d="M.895 72.047h85.039M.894 43.699h85.04M.894 15.363h85.04M.894 72.047V15.352m28.348 56.695V15.352M57.59 72.047V15.352m28.336 56.695V15.352"/><path fill-opacity=".5" d="M3.73 74.879V18.187h28.348V74.88Zm42.52-56.692c0-7.828-6.344-14.175-14.172-14.175s-14.176 6.347-14.176 14.176 6.348 14.171 14.176 14.171S46.25 26.016 46.25 18.187m0 0"/><path fill="red" d="M.895 72.047V15.352h28.347v56.695Zm42.52-56.695c0-7.829-6.345-14.172-14.173-14.172S15.07 7.523 15.07 15.352c0 7.828 6.344 14.175 14.172 14.175s14.172-6.347 14.172-14.175m0 0"/><g clip-path="url(#a)"><path fill="none" stroke="#000" stroke-miterlimit="10" stroke-width=".399" d="M.895 72.047V15.352h28.347v56.695Zm42.52-56.695c0-7.829-6.345-14.172-14.173-14.172S15.07 7.523 15.07 15.352c0 7.828 6.344 14.175 14.172 14.175s14.172-6.347 14.172-14.175Zm0 0"/></g></svg>