<svg xmlns="http://www.w3.org/2000/svg" xmlns:xlink="http://www.w3.org/1999/xlink" width="91.1" height="94.052"><defs><path id="a" d="M3.719-3.766c-.188-.375-.469-.64-.922-.64-1.156 0-2.39 1.468-2.39 2.922C.406-.547.952.109 1.718.109c.203 0 .703-.046 1.297-.75a.91.91 0 0 0 .906.75c.36 0 .578-.234.75-.546a6.5 6.5 0 0 0 .297-.985c0-.11-.094-.11-.125-.11-.094 0-.11.048-.14.188-.173.64-.345 1.235-.75 1.235-.282 0-.298-.266-.298-.453 0-.22.016-.313.125-.75.11-.407.125-.516.219-.891l.36-1.39c.062-.282.062-.298.062-.344 0-.172-.11-.266-.281-.266-.25 0-.391.219-.422.437m-.64 2.579c-.063.187-.063.203-.204.375-.437.546-.844.703-1.125.703-.5 0-.64-.547-.64-.938 0-.5.312-1.719.546-2.187.313-.578.75-.953 1.157-.953.64 0 .78.812.78.875a.6.6 0 0 1-.03.171Zm0 0"/><path id="b" d="M2.375-6.812s0-.11-.125-.11c-.219 0-.953.078-1.219.11-.078 0-.187.015-.187.187 0 .125.094.125.25.125.468 0 .484.063.484.172 0 .062-.078.406-.125.61l-.828 3.25c-.11.5-.156.671-.156 1.015C.469-.516 1 .109 1.734.109c1.172 0 2.407-1.484 2.407-2.921 0-.907-.532-1.594-1.328-1.594-.454 0-.876.297-1.172.593Zm-.922 3.765c.047-.219.047-.234.14-.344.485-.64.938-.796 1.204-.796.36 0 .625.296.625.937 0 .594-.328 1.734-.516 2.11-.328.671-.781 1.03-1.172 1.03-.343 0-.671-.265-.671-1 0-.202 0-.39.156-1.015Zm0 0"/><path id="c" d="M3.953-3.781c-.172 0-.297 0-.437.125a.53.53 0 0 0-.188.39c0 .25.188.36.375.36.281 0 .547-.25.547-.64 0-.485-.469-.86-1.172-.86-1.344 0-2.672 1.422-2.672 2.828C.406-.672.984.109 2.031.109c1.422 0 2.25-1.062 2.25-1.171 0-.063-.047-.141-.11-.141-.062 0-.077.031-.14.11-.781.984-1.875.984-1.984.984-.625 0-.906-.485-.906-1.094 0-.406.203-1.375.547-1.984.312-.579.859-1 1.406-1 .328 0 .719.125.86.406m0 0"/><path id="d" d="M5.14-6.812s0-.11-.124-.11c-.157 0-1.094.094-1.266.11-.078.015-.14.062-.14.187s.093.125.234.125c.484 0 .5.063.5.172l-.032.203-.593 2.36c-.188-.376-.469-.641-.922-.641-1.156 0-2.39 1.468-2.39 2.922C.406-.547.952.109 1.718.109c.203 0 .703-.046 1.297-.75a.91.91 0 0 0 .906.75c.36 0 .578-.234.75-.546a6.5 6.5 0 0 0 .297-.985c0-.11-.094-.11-.125-.11-.094 0-.11.048-.14.188-.173.64-.345 1.235-.75 1.235-.282 0-.298-.266-.298-.453 0-.25.016-.313.047-.485ZM3.079-1.187c-.062.187-.062.203-.203.375-.437.546-.844.703-1.125.703-.5 0-.64-.547-.64-.938 0-.5.312-1.719.546-2.187.313-.578.75-.953 1.157-.953.64 0 .78.812.78.875a.6.6 0 0 1-.03.171Zm0 0"/><path id="e" d="M4.469-2c0-1.187-.813-2.187-1.89-2.187-.47 0-.907.156-1.267.515v-1.953c.204.063.532.125.844.125 1.235 0 1.938-.906 1.938-1.031 0-.063-.032-.11-.11-.11 0 0-.03 0-.078.032a3.2 3.2 0 0 1-1.36.297c-.39 0-.858-.079-1.327-.282-.078-.031-.094-.031-.11-.031C1-6.625 1-6.547 1-6.391v2.954c0 .171 0 .25.14.25.079 0 .094-.016.141-.079.11-.156.469-.703 1.282-.703.515 0 .765.453.843.64.156.376.188.75.188 1.25 0 .36 0 .954-.25 1.376-.235.39-.61.64-1.063.64-.719 0-1.297-.53-1.469-1.109.032 0 .063.016.172.016.329 0 .5-.25.5-.485 0-.25-.171-.5-.5-.5-.14 0-.484.079-.484.532C.5-.75 1.188.219 2.297.219 3.453.219 4.469-.734 4.469-2m0 0"/><path id="f" d="M0 9.328h.469v-.687h2.578c1.031 0 1.437-.516 1.437-1.547 0-.907-.5-1.422-.953-1.688.922-.187.953-1.11.953-1.484 0-.875-.453-1.438-1.078-1.766h1.078L4.406.453h-.468c0 .61 0 .688-.391.688H.469V.453H0l.031 1.25L0 2.953h.469v-.687h2.078c1.094 0 1.578.875 1.578 1.5 0 .328-.203.547-.969.547H.47v-.688H0l.031 1.266L0 6.14h.469v-.688h2.078c1.094 0 1.578.86 1.578 1.484 0 .344-.203.563-.969.563H.47v-.687H0l.031 1.25Zm0 0"/><path id="g" d="M0 2.844h.469v-.61h4.015L4.406.5h-.468c0 .594 0 .656-.391.656H.469V.47H0l.031 1.219Zm6.047-.469a.774.774 0 0 0 .781-.781.784.784 0 0 0-.781-.782.78.78 0 0 0-.766.782.77.77 0 0 0 .766.781m0 0"/><path id="h" d="M1.39 4.14c.438 0 .782-.202 1.063-.546.281-.39.344-.719.485-1.485.062-.375.171-1.015.64-1.015.625 0 .625.922.625 1.11 0 .75-.297 1.124-.844 1.171-.156.016-.203.031-.203.234 0 .235.047.235.281.235h.797c.188 0 .282 0 .282-.172 0-.047 0-.063-.188-.453.125-.266.188-.61.188-1 0-.313 0-1.844-1.313-1.844-.39 0-.656.203-.828.406-.344.39-.406.782-.547 1.547-.062.36-.187 1.094-.781 1.094-.75 0-.75-.906-.75-1.125 0-1.063.734-1.313 1.156-1.438.14-.046.14-.109.14-.234 0-.25-.062-.25-.28-.25H.218c-.188 0-.281 0-.281.188 0 .062 0 .078.156.296l.172.25c-.328.47-.328.985-.328 1.188 0 .312 0 1.844 1.453 1.844m0 0"/><path id="i" d="M0 6.125h.469v-.687h2.578c1.047 0 1.437-.532 1.437-1.532 0-.953-.562-1.484-1.078-1.75h1.078L4.406.453h-.468c0 .61 0 .688-.391.688H.469V.453H0l.031 1.25L0 2.953h.469v-.687h2.078c1.094 0 1.578.859 1.578 1.5 0 .328-.203.547-.969.547H.47v-.688H0l.031 1.25Zm0 0"/><path id="j" d="M3.953 5.563c.235 0 .578-.172.578-.625 0-.157-.031-.625-.375-1.063.125-.172.328-.594.328-1.328 0-1.438-.78-1.985-1.468-1.985-.407 0-.828.188-1.047.516-.36-.281-.688-.344-.89-.344-.157 0-.641.047-.954.438-.031-.125-.25-.86-.875-.86C-1.25.313-2 .876-2 2.86c0 1.766.578 2.547 1.281 2.547.297 0 .922-.078 1.266-.75.281-.562.281-1.156.281-2.11 0-.265 0-.718.016-.765a.625.625 0 0 1 .625-.562c.093 0 .25.047.328.11-.234.452-.266.968-.266 1.218 0 1.437.782 1.984 1.485 1.984.468 0 .797-.25.953-.406.156.297.172.516.187.625a.43.43 0 0 0-.203-.047c-.25 0-.422.172-.422.438 0 .25.188.422.422.422m-.937-2.141c-.453 0-1.125 0-1.125-.875s.672-.875 1.125-.875c.437 0 1.109 0 1.109.875s-.672.875-1.11.875M-.75 4.547c-.36 0-.89-.39-.89-1.688 0-1.187.452-1.687.906-1.687.609 0 .609.625.609.766v1.171c0 .313 0 1.438-.625 1.438m0 0"/><path id="k" d="M1.297-6.89.969-7.22c-.172.203-.36.39-.547.578l-.656.625.328.329c.14-.141.36-.297.406-.25 0 0 .016.015.047.109L1.5-3.25l-2.812-1.031.375-.375-.329-.328-.859.89-.812.782.328.328.437-.438L1.718-2c.266.078.36-.016.438-.094.125-.125.188-.219.094-.437L.906-6.22c-.047-.14-.062-.218.39-.672m0 0"/><path id="l" d="M2.656-4.312c-.125-.125-.265.015-.297.046-.125.125-.093.157-.03.313.202.484 0 1.125-.454 1.578-.984.984-1.937.063-2.281-.281l2.14-2.14c.141-.141.22-.22.032-.407-.22-.219-.797-.703-1.5-.688-.516-.015-1 .25-1.485.735-1.125 1.125-1.031 2.468-.156 3.343.953.954 2.344.938 3.484-.203 1.125-1.125.672-2.171.547-2.296m-1.61-.266L-.64-2.891c-.265-.296-.546-.609-.64-.984-.078-.453.11-.828.312-1.031.828-.828 1.766.078 2.016.328m0 0"/><path id="m" d="M.516-5.703c-.375-.375-.953-.203-1.328.172-.485.484-.407 1.125-.125 1.718l-.797-.796-1.11 1.234.328.328c.438-.437.485-.484.75-.219L.422-1.078l-.484.484.328.328.875-.906c.265-.266.703-.703.984-.953l-.328-.328-.61.61-1.234-1.235c-.5-.5-1.203-1.516-.484-2.234 0 0-.016.265.187.468.282.282.657.188.86-.015s.28-.563 0-.844m0 0"/><path id="n" d="M1.297-6.89.969-7.22c-.156.188-.36.39-.547.578l-.656.625.328.329s.328-.329.406-.25l.063.125.921 2.546-2.796-1.015.375-.375-.329-.328-.859.89-.812.782.328.328.437-.438 4.125 1.469.188.5c.172.484.437 1.187-.079 1.703-.093.094-.109.11-.203.14.063-.093.11-.359-.14-.609-.235-.234-.563-.218-.813.032C.72 0 .641.328.922.609c.344.344.984.329 1.406-.093.547-.547.5-1.407.313-2L.906-6.22c-.047-.14-.062-.218.39-.672m0 0"/><path id="o" d="M2.672-5.797C1.719-6.75.39-6.734-.625-5.719c-.516.516-.672 1.078-.687 1.375l-2.063-2.062-1.203 1.297.344.343c.437-.437.484-.484.75-.218L.75-.75l.328-.328c-.016-.234-.031-.5-.047-.734.11-.016.844.03 1.469-.594 1.047-1.047 1.14-2.422.172-3.39m-.906.906c.328.329.718.72.812 1.157.078.515-.156.906-.39 1.14-.485.485-1.157.375-1.344.344L-.922-4.016C-.969-4.469-.844-5-.453-5.39c.86-.859 1.719 0 2.219.5m0 0"/><path id="p" d="M3.734-4.078c-.156-.156-.25-.063-.343.031-.453.422-.547.328-.703.172L1.172-5.391c-.625-.625-1.578-.578-2.625.47-.39.39-1.234 1.296-.625 1.905a.62.62 0 0 0 .89.016.61.61 0 0 0-.015-.89c-.203-.204-.453-.204-.5-.188a6 6 0 0 1 .469-.563c.53-.53 1.078-.484 1.609.047l.25.25c-.484.516-2.219 2.375-1.203 3.39.672.673 1.687-.062 2.172-.546.562-.562.593-1.187.453-1.64.219.218.547.546 1.297-.204l.328-.328c.14-.14.234-.234.062-.406m-2.234.61c.688.687.125 1.437-.047 1.609-.36.359-.89.39-1.203.078-.766-.766.25-1.969.594-2.344Zm0 0"/><path id="q" d="m4.234-4.234-.328-.328c-.437.437-.484.484-.765.203l-4.282-4.282-1.203 1.297L-2-7c.438-.437.5-.5.766-.234l1.39 1.39a2.2 2.2 0 0 0-1.297.64c-1.03 1.032-1.14 2.391-.156 3.376C-.359-.891.97-.875 2-1.906c.438-.438.61-.953.656-1.344L3-2.906Zm-2.015.547c.031.25.14.921-.39 1.453-.86.859-1.72 0-2.22-.5-.343-.344-.718-.72-.812-1.157-.078-.515.172-.921.39-1.14A1.45 1.45 0 0 1 .47-5.438Zm0 0"/></defs><use xlink:href="#a" x="84.688" y="48.64"/><use xlink:href="#b" x="42.664" y="7.435"/><use xlink:href="#c" x=".127" y="48.64"/><use xlink:href="#d" x="42.209" y="92.474"/><path fill="none" stroke="#000" stroke-miterlimit="10" stroke-width=".399" d="M50.46 9.629 81.38 40.547"/><path fill="none" stroke="#000" stroke-linecap="round" stroke-linejoin="round" stroke-miterlimit="10" stroke-width=".39899202" d="M81.746 37.535c-.75 1.281-.633 2.356-.226 3.156-.801-.406-1.875-.523-3.157.223"/><use xlink:href="#e" x="69.579" y="21.711"/><path fill="none" stroke="#000" stroke-miterlimit="10" stroke-width=".399" d="M39.145 9.629 8.227 40.547"/><path fill="none" stroke="#000" stroke-linecap="round" stroke-linejoin="round" stroke-miterlimit="10" stroke-width=".39899202" d="M11.242 40.914c-1.281-.746-2.36-.629-3.156-.223.402-.8.52-1.875-.227-3.156"/><path fill="none" stroke="#000" stroke-dasharray="0.3985 1.99255" stroke-miterlimit="10" stroke-width=".399" d="M44.8 10.953v71.082"/><use xlink:href="#f" x="34.458" y="27.975"/><use xlink:href="#g" x="34.458" y="37.519"/><use xlink:href="#h" x="34.458" y="40.697"/><use xlink:href="#h" x="34.458" y="45.22"/><use xlink:href="#g" x="34.458" y="49.743"/><use xlink:href="#i" x="34.458" y="52.921"/><use xlink:href="#j" x="34.458" y="59.288"/><path fill="none" stroke="#000" stroke-miterlimit="10" stroke-width=".399" d="M7.957 46.496H80.77"/><path fill="none" stroke="#000" stroke-linecap="round" stroke-linejoin="round" stroke-miterlimit="10" stroke-width=".399" d="M78.898 44.105c.38 1.434 1.223 2.11 2.07 2.391-.847.277-1.69.957-2.07 2.39"/><path fill="none" stroke="#000" stroke-miterlimit="10" stroke-width=".399" d="m7.945 52.16 30.461 30.465"/><path fill="none" stroke="#000" stroke-linecap="round" stroke-linejoin="round" stroke-miterlimit="10" stroke-width=".39899202" d="M38.773 79.61c-.746 1.28-.628 2.355-.226 3.156-.797-.407-1.871-.524-3.152.222"/><path fill="none" stroke="red" stroke-miterlimit="10" stroke-width=".399" d="M50.914 82.906 81.38 52.441"/><path fill="none" stroke="red" stroke-linecap="round" stroke-linejoin="round" stroke-miterlimit="10" stroke-width=".39899601" d="M78.363 52.074c1.282.746 2.356.63 3.157.227-.407.797-.524 1.875.226 3.156"/><use xlink:href="#k" x="54.7" y="71.324" fill="red"/><g fill="red"><use xlink:href="#l" x="58.751" y="67.273"/><use xlink:href="#m" x="62.463" y="63.561"/><use xlink:href="#n" x="65.802" y="60.222"/></g><g fill="red"><use xlink:href="#o" x="67.194" y="81.381"/><use xlink:href="#p" x="71.695" y="76.88"/><use xlink:href="#q" x="75.633" y="72.942"/></g></svg>