<svg xmlns="http://www.w3.org/2000/svg" xmlns:xlink="http://www.w3.org/1999/xlink" width="76.722" height="105.158"><defs><path id="a" d="M5.516-.234c0-.235-.125-.235-.266-.235-.61-.015-.61-.14-.61-.375v-2.14c0-.891-.702-1.532-2.187-1.532-.562 0-1.781.047-1.781.922 0 .438.344.625.61.625.312 0 .624-.219.624-.625 0-.297-.187-.469-.218-.5a5 5 0 0 1 .718-.062c.75 0 1.11.422 1.11 1.172v.343c-.72.032-3.25.125-3.25 1.563C.266-.125 1.5.062 2.188.062c.796 0 1.265-.406 1.484-.828 0 .313 0 .766 1.047.766h.468c.204 0 .329 0 .329-.234m-2-1.157c0 .97-.922 1.094-1.172 1.094-.516 0-.906-.344-.906-.797 0-1.062 1.578-1.203 2.078-1.234Zm0 0"/><path id="b" d="M5.984-2.219c0-1.328-.937-2.265-2.39-2.265-.719 0-1.219.28-1.453.484v-2.922l-1.766.078v.469c.61 0 .688 0 .688.39V0h.468c.157-.187.328-.375.485-.562.078.078.562.625 1.453.625 1.484 0 2.515-.907 2.515-2.282m-1.28 0c0 .469 0 1.016-.25 1.406-.298.407-.75.516-1.079.516-.687 0-1.078-.547-1.187-.687v-2.5c.28-.36.75-.641 1.296-.641 1.22 0 1.22 1.203 1.22 1.906m0 0"/><path id="c" d="M4.766-1.172c0-.14-.141-.14-.235-.14-.187 0-.187.03-.25.156-.25.625-.734.812-1.234.812-1.39 0-1.39-1.453-1.39-1.922 0-.562 0-1.843 1.28-1.843.36 0 .516.015.657.046a.62.62 0 0 0-.203.47c0 .437.343.624.609.624.313 0 .64-.219.64-.625 0-.86-1.156-.922-1.734-.922C1.11-4.516.375-3.375.375-2.219.375-.89 1.313.063 2.844.063c1.625 0 1.922-1.157 1.922-1.235m0 0"/><path id="e" d="M5.984 0v-.469c-.609 0-.687 0-.687-.39v-6.063l-1.766.078v.469c.625 0 .703 0 .703.39v1.954a2.18 2.18 0 0 0-1.359-.453c-1.453 0-2.5.875-2.5 2.28 0 1.313.922 2.267 2.39 2.267.61 0 1.094-.235 1.407-.485v.485ZM4.172-1.031c-.14.187-.547.734-1.297.734-1.219 0-1.219-1.203-1.219-1.906 0-.485 0-1.016.25-1.406.297-.422.766-.516 1.078-.516.563 0 .97.313 1.188.61Zm0 0"/><path id="g" d="M4.922-1.172c0-.172-.188-.172-.234-.172-.172 0-.188.047-.25.203-.204.485-.782.797-1.422.797-1.407 0-1.422-1.328-1.422-1.828h3.015c.22 0 .313 0 .313-.265 0-.313-.063-1.047-.563-1.547-.359-.36-.89-.532-1.578-.532C1.187-4.516.313-3.484.313-2.25c0 1.344 1 2.313 2.609 2.313 1.578 0 2-1.063 2-1.235M3.984-2.5h-2.39c.015-.39.031-.812.234-1.14.266-.391.672-.516.953-.516 1.172 0 1.188 1.312 1.203 1.656m0 0"/><path id="h" d="M4.36-6.11c0-.421-.36-.874-1.141-.874-.969 0-2.047.422-2.047 1.547v1.015h-.75v.469h.75V-.47H.484V0l1.25-.031c.375 0 1.016 0 1.375.031v-.469H2.25v-3.484h1.14v-.469H2.188v-1.016c0-1.093.75-1.187 1-1.187.047 0 .11 0 .172.031a.59.59 0 0 0-.234.485c0 .422.36.609.61.609.296 0 .624-.203.624-.61m0 0"/><path id="j" d="M5.563-3.953c0-.235-.172-.578-.625-.578-.157 0-.625.031-1.063.375-.172-.125-.594-.328-1.328-.328-1.438 0-1.985.78-1.985 1.468 0 .407.188.829.516 1.047-.281.36-.344.688-.344.89 0 .157.047.642.438.954-.125.031-.86.25-.86.875C.313 1.25.876 2 2.86 2 4.625 2 5.406 1.422 5.406.719c0-.297-.078-.922-.75-1.266-.562-.281-1.156-.281-2.11-.281-.265 0-.718 0-.765-.016a.625.625 0 0 1-.562-.625c0-.093.047-.25.11-.328.452.234.968.266 1.218.266 1.437 0 1.984-.782 1.984-1.485 0-.468-.25-.796-.406-.953.297-.156.516-.172.625-.187a.43.43 0 0 0-.047.203c0 .25.172.422.438.422a.41.41 0 0 0 .422-.422m-2.141.937c0 .454 0 1.125-.875 1.125s-.875-.671-.875-1.125c0-.437 0-1.109.875-1.109s.875.672.875 1.11M4.547.75c0 .36-.39.89-1.688.89-1.187 0-1.687-.452-1.687-.906 0-.609.625-.609.766-.609h1.171c.313 0 1.438 0 1.438.625m0 0"/><clipPath id="d"><path d="M0 79h26v25.738H0Zm0 0"/></clipPath><clipPath id="f"><path d="M53 23h23.582v29H53Zm0 0"/></clipPath><clipPath id="i"><path d="M24 79h30v25.738H24Zm0 0"/></clipPath></defs><path fill="none" stroke="#000" stroke-miterlimit="10" stroke-width=".399" d="M34.543 46.02 28.57 57.965"/><path fill="none" stroke="#000" stroke-linecap="round" stroke-linejoin="round" stroke-miterlimit="10" stroke-width=".39896808000000006" d="M31.547 57.355c-1.453-.3-2.438.153-3.067.786.13-.883-.097-1.942-1.21-2.922"/><path fill="none" stroke="#000" stroke-miterlimit="10" stroke-width=".399" d="M20.953 73.2 14.98 85.144"/><path fill="none" stroke="#000" stroke-linecap="round" stroke-linejoin="round" stroke-miterlimit="10" stroke-width=".39896808000000006" d="M17.953 84.54c-1.45-.306-2.433.148-3.062.784.129-.886-.098-1.945-1.211-2.926"/><path fill="none" stroke="#000" stroke-miterlimit="10" stroke-width=".399" d="m63.441 44.91-6.37 12.746"/><path fill="none" stroke="#000" stroke-linecap="round" stroke-linejoin="round" stroke-miterlimit="10" stroke-width=".39897606" d="M60.047 57.05c-1.453-.304-2.438.15-3.067.786.13-.887-.097-1.945-1.21-2.922"/><path fill="none" stroke="#000" stroke-miterlimit="10" stroke-width=".399" d="m49.145 73.508-6 11.996"/><path fill="none" stroke="#000" stroke-linecap="round" stroke-linejoin="round" stroke-miterlimit="10" stroke-width=".39896808000000006" d="M46.121 84.898c-1.45-.304-2.434.149-3.062.782.129-.883-.098-1.942-1.215-2.922"/><path fill="none" stroke="#000" stroke-miterlimit="10" stroke-width=".399" d="m49.23 16.64-5.906 11.81"/><path fill="none" stroke="#000" stroke-linecap="round" stroke-linejoin="round" stroke-miterlimit="10" stroke-width=".39896808000000006" d="M46.3 27.844c-1.452-.301-2.433.148-3.062.785.13-.887-.101-1.942-1.215-2.922"/><path fill="none" stroke="#000" stroke-miterlimit="10" stroke-width=".399" d="m56.805 16.64 6.457 12.919"/><path fill="none" stroke="#000" stroke-linecap="round" stroke-linejoin="round" stroke-miterlimit="10" stroke-width=".39896808000000006" d="M64.566 26.812c-1.117.981-1.343 2.04-1.214 2.922-.63-.632-1.614-1.086-3.063-.78"/><path fill="none" stroke="#000" stroke-miterlimit="10" stroke-width=".399" d="M61.29 9.066a8.27 8.27 0 1 0-16.542.002 8.27 8.27 0 0 0 16.541-.002Zm0 0"/><use xlink:href="#a" x="50.233" y="11.292"/><path fill="none" stroke="#000" stroke-miterlimit="10" stroke-width=".399" d="M48.266 37.41c0-5.2-4.22-9.418-9.422-9.418s-9.418 4.219-9.418 9.418c0 5.203 4.215 9.422 9.418 9.422a9.42 9.42 0 0 0 9.422-9.422Zm0 0"/><use xlink:href="#b" x="35.662" y="40.839"/><path fill="none" stroke="#000" stroke-miterlimit="10" stroke-width=".399" d="M32.79 65.758a8.118 8.118 0 1 0-16.237.001 8.118 8.118 0 0 0 16.236-.001Zm0 0"/><use xlink:href="#c" x="22.126" y="67.985"/><g clip-path="url(#d)"><path fill="none" stroke="#000" stroke-miterlimit="10" stroke-width=".399" d="M19.918 94.105a9.42 9.42 0 0 0-9.422-9.421c-5.2 0-9.418 4.218-9.418 9.421 0 5.204 4.219 9.418 9.418 9.418 5.203 0 9.422-4.214 9.422-9.418Zm0 0"/></g><use xlink:href="#e" x="7.315" y="97.532"/><g clip-path="url(#f)"><path fill="none" stroke="#000" stroke-miterlimit="10" stroke-width=".399" d="M75.375 37.41a8.18 8.18 0 0 0-8.184-8.18 8.18 8.18 0 0 0-8.183 8.18 8.184 8.184 0 0 0 16.367 0Zm0 0"/></g><use xlink:href="#g" x="64.566" y="39.639"/><path fill="none" stroke="#000" stroke-miterlimit="10" stroke-width=".399" d="M61.477 65.758c0-4.672-3.786-8.461-8.457-8.461a8.462 8.462 0 0 0 0 16.922c4.671 0 8.457-3.79 8.457-8.461Zm0 0"/><use xlink:href="#h" x="51.269" y="69.245"/><g clip-path="url(#i)"><path fill="none" stroke="#000" stroke-miterlimit="10" stroke-width=".399" d="M47.863 94.105a9.02 9.02 0 1 0-18.037.002 9.02 9.02 0 0 0 18.037-.002Zm0 0"/></g><use xlink:href="#j" x="35.98" y="95.37"/></svg>