<svg xmlns="http://www.w3.org/2000/svg" width="67.226" height="31.124"><defs><clipPath id="a"><path d="M4 0h54v30.688H4Zm0 0"/></clipPath><clipPath id="b"><path d="M51 14h15.84v2H51Zm0 0"/></clipPath></defs><g clip-path="url(#a)"><path fill="none" stroke="#000" stroke-miterlimit="10" stroke-width=".399" d="M26.578.777a28.7 28.7 0 0 1 24.848 14.348 28.7 28.7 0 0 1-24.848 14.348H12.23a28.69 28.69 0 0 0 0-28.696ZM14.223 5.563a1.996 1.996 0 0 0-1.993-1.997 1.994 1.994 0 0 0 0 3.989 1.996 1.996 0 0 0 1.993-1.992Zm1.652 9.562a1.993 1.993 0 1 0-3.983.002 1.993 1.993 0 0 0 3.983-.002Zm-1.652 9.563a1.993 1.993 0 0 0-3.984 0c0 1.101.89 1.996 1.991 1.996a1.996 1.996 0 0 0 1.993-1.997Zm0 0"/></g><path fill="none" stroke="#000" stroke-miterlimit="10" stroke-width=".399" d="M.621 5.563h9.418M.621 10.344H15.47M.621 15.125h11.07M.621 19.906H15.47M.621 24.688h9.418"/><g clip-path="url(#b)"><path fill="none" stroke="#000" stroke-miterlimit="10" stroke-width=".399" d="M51.656 15.125h14.176"/></g></svg>