<svg xmlns="http://www.w3.org/2000/svg" width="289.64" height="62.3"><defs><clipPath id="a"><path d="M114 48h16v13.95h-16Zm0 0"/></clipPath><clipPath id="b"><path d="M129 51h16v10.95h-16Zm0 0"/></clipPath><clipPath id="c"><path d="M144 47h16v14.95h-16Zm0 0"/></clipPath><clipPath id="d"><path d="M279 38h10.46v16H279Zm0 0"/></clipPath></defs><path fill="#CCF" d="m2.906 30.207 14.918-14.238L32.746 5.582l14.918-3.719 14.918 3.953 14.922 10.555 14.918 14.3 14.918 14.173 14.922 10.215 14.918 3.488 14.918-4.184 14.922-10.722 14.917-14.356 14.922-14.11 14.918-10.038 14.918-3.254 14.922 4.414 14.918 10.887 14.918 14.41 14.922 14.035V30.207z"/><path fill="#00F" stroke="#00F" stroke-miterlimit="10" stroke-width=".399" d="M2.906 32.2 1.18 29.21h3.453ZM17.824 17.96l-1.722-2.987h3.449ZM32.746 7.574 31.02 4.586h3.449ZM47.664 3.855 45.937.867h3.454ZM62.582 7.809l-1.723-2.993h3.45ZM77.504 18.363l-1.727-2.988h3.45ZM92.422 32.664l-1.727-2.992h3.453ZM107.34 46.84l-1.723-2.992h3.45Zm0 0"/><path fill="#00F" d="m122.262 57.05-1.727-2.987h3.453Zm0 0"/><g clip-path="url(#a)"><path fill="none" stroke="#00F" stroke-miterlimit="10" stroke-width=".399" d="m122.262 57.05-1.727-2.987h3.453Zm0 0"/></g><path fill="#00F" d="m137.18 60.54-1.727-2.99h3.453Zm0 0"/><g clip-path="url(#b)"><path fill="none" stroke="#00F" stroke-miterlimit="10" stroke-width=".399" d="m137.18 60.54-1.727-2.99h3.453Zm0 0"/></g><path fill="#00F" d="m152.098 56.355-1.723-2.988h3.45Zm0 0"/><g clip-path="url(#c)"><path fill="none" stroke="#00F" stroke-miterlimit="10" stroke-width=".399" d="m152.098 56.355-1.723-2.988h3.45Zm0 0"/></g><path fill="#00F" stroke="#00F" stroke-miterlimit="10" stroke-width=".399" d="m167.02 45.633-1.727-2.988h3.453ZM181.938 31.277l-1.723-2.988h3.45ZM196.86 17.168l-1.727-2.988h3.449ZM211.777 7.129l-1.726-2.988h3.453ZM226.695 3.879 224.973.887h3.449ZM241.617 8.29l-1.726-2.99h3.449ZM256.535 19.176l-1.726-2.988h3.453ZM271.453 33.586l-1.723-2.988h3.45Zm0 0"/><path fill="#00F" d="m286.375 47.621-1.727-2.988h3.454Zm0 0"/><g clip-path="url(#d)"><path fill="none" stroke="#00F" stroke-miterlimit="10" stroke-width=".399" d="m286.375 47.621-1.727-2.988h3.454Zm0 0"/></g></svg>