<?xml version="1.0" encoding="UTF-8"?>
<svg xmlns="http://www.w3.org/2000/svg" xmlns:xlink="http://www.w3.org/1999/xlink" width="66.132pt" height="68.906pt" viewBox="0 0 66.132 68.906" version="1.2">
<defs>
<clipPath id="clip1">
  <path d="M 16 46 L 49 46 L 49 68.859375 L 16 68.859375 Z M 16 46 "/>
</clipPath>
</defs>
<g id="surface1">
<path style="fill-rule:nonzero;fill:rgb(79.998779%,79.998779%,100%);fill-opacity:1;stroke-width:0.79701;stroke-linecap:butt;stroke-linejoin:miter;stroke:rgb(50%,50%,100%);stroke-opacity:1;stroke-miterlimit:10;" d="M 4.696125 56.692594 C 4.696125 59.286344 2.594562 61.391813 0.0008125 61.391813 C -2.592938 61.391813 -4.6945 59.286344 -4.6945 56.692594 C -4.6945 54.098844 -2.592938 51.997281 0.0008125 51.997281 C 2.594562 51.997281 4.696125 54.098844 4.696125 56.692594 Z M 4.696125 56.692594 " transform="matrix(1,0,0,-1,32.632,62.759)"/>
<path style="fill-rule:nonzero;fill:rgb(79.998779%,79.998779%,100%);fill-opacity:1;stroke-width:0.79701;stroke-linecap:butt;stroke-linejoin:miter;stroke:rgb(50%,50%,100%);stroke-opacity:1;stroke-miterlimit:10;" d="M 4.696125 28.344938 C 4.696125 30.938688 2.594562 33.044156 0.0008125 33.044156 C -2.592938 33.044156 -4.6945 30.938688 -4.6945 28.344938 C -4.6945 25.751188 -2.592938 23.649625 0.0008125 23.649625 C 2.594562 23.649625 4.696125 25.751188 4.696125 28.344938 Z M 4.696125 28.344938 " transform="matrix(1,0,0,-1,32.632,62.759)"/>
<path style=" stroke:none;fill-rule:nonzero;fill:rgb(79.998779%,79.998779%,100%);fill-opacity:1;" d="M 37.328125 62.757812 C 37.328125 60.164062 35.226562 58.0625 32.632812 58.0625 C 30.039062 58.0625 27.9375 60.164062 27.9375 62.757812 C 27.9375 65.351562 30.039062 67.457031 32.632812 67.457031 C 35.226562 67.457031 37.328125 65.351562 37.328125 62.757812 Z M 37.328125 62.757812 "/>
<g clip-path="url(#clip1)" clip-rule="nonzero">
<path style="fill:none;stroke-width:0.79701;stroke-linecap:butt;stroke-linejoin:miter;stroke:rgb(50%,50%,100%);stroke-opacity:1;stroke-miterlimit:10;" d="M 4.696125 0.0011875 C 4.696125 2.594938 2.594562 4.6965 0.0008125 4.6965 C -2.592938 4.6965 -4.6945 2.594938 -4.6945 0.0011875 C -4.6945 -2.592562 -2.592938 -4.698031 0.0008125 -4.698031 C 2.594562 -4.698031 4.696125 -2.592562 4.696125 0.0011875 Z M 4.696125 0.0011875 " transform="matrix(1,0,0,-1,32.632,62.759)"/>
</g>
<path style="fill-rule:nonzero;fill:rgb(79.998779%,79.998779%,79.998779%);fill-opacity:1;stroke-width:0.79701;stroke-linecap:butt;stroke-linejoin:miter;stroke:rgb(50%,50%,50%);stroke-opacity:1;stroke-miterlimit:10;" d="M 25.028156 25.024625 L 31.668781 25.024625 L 31.668781 31.669156 L 25.028156 31.669156 Z M 25.028156 25.024625 " transform="matrix(1,0,0,-1,32.632,62.759)"/>
<path style="fill-rule:nonzero;fill:rgb(79.998779%,79.998779%,79.998779%);fill-opacity:1;stroke-width:0.79701;stroke-linecap:butt;stroke-linejoin:miter;stroke:rgb(50%,50%,50%);stroke-opacity:1;stroke-miterlimit:10;" d="M -31.667156 25.024625 L -25.026531 25.024625 L -25.026531 31.669156 L -31.667156 31.669156 Z M -31.667156 25.024625 " transform="matrix(1,0,0,-1,32.632,62.759)"/>
</g>
</svg>
