<svg xmlns="http://www.w3.org/2000/svg" xmlns:xlink="http://www.w3.org/1999/xlink" width="77.6" height="115.94"><defs><path id="b" d="M2.813.11 2.75 1.171l-.375.297.063-1.047c.078-1.375-.141-1.625-.36-1.438-.453.36-.531 1.641-.562 2.11l-.328 5.594 1.14-.922-.062.922-1.141.921-.234 3.875-.36.297C.656 9.75.406 8.078-.375 8.641l.047-.72.64-.53.329-5.547c.14-2.188.828-3.157 1.39-3.61.578-.468.875.391.781 1.875m0 0"/><path id="c" d="M3.719-1.078c.031.344-.11.469-.14.5-.126.125-.157.015-.22-.235-.187-.796-.656-1.015-1.125-.578-1.03.97-.875 3.547-.828 4.516l2.188-2.047c.172-.156.234-.219.265.313.047.609.079 2.078-.234 3.359-.219.969-.594 1.672-1.094 2.14C1.375 7.985.625 6.579.484 4.14c-.156-2.593.47-5.156 1.657-6.265 1.14-1.078 1.562.719 1.578 1.047m-.531 3.234L1.453 3.781c.047.75.11 1.547.281 2.063.25.578.563.562.766.36.86-.798.719-3.36.688-4.048m0 0"/><path id="d" d="m3.906-4.328.172.86-.469.515-.421 4.89 1.25 1.516c.156.172.203.25.75-.344l.171.844-.625.64-.671.798-.172-.844a.95.95 0 0 0 .218-.453c-.03-.094-.046-.14-.093-.172l-.891-1.094-.25 2.844.281-.313.172.844-.844.875-.718.844-.172-.844.484-.531.375-4.516L1.047.297C.89.078.64.344.313.703L.14-.157.78-.78l.657-.813.171.86c-.109.125-.218.359-.203.453 0 0 .016.047.094.156l1.031 1.266.266-3.188-.266.281-.172-.859.829-.828Zm0 0"/><path id="e" d="m3.047-.906.297.89-.297.36-.297-.86c-.39-1.156-.703-1.28-.875-1.062-.36.469 0 1.547.14 1.937L3.61 5.047 4.5 3.875l.266.781-.891 1.172 1.11 3.266-.282.36c-.578-1.72-1.453-3-2.078-2.25l-.203-.61.5-.657-1.578-4.656c-.625-1.828-.219-2.89.218-3.453.454-.594 1.063.031 1.485 1.266m0 0"/><path id="f" d="M3.563-2.594c.156.25.062.406.046.453-.093.141-.14.079-.312-.078-.547-.5-1.125-.437-1.453.11-.719 1.203.484 3.078.937 3.78L4.312-.921c.11-.187.157-.265.407.125.281.438.906 1.516 1.11 2.64.14.829.046 1.532-.298 2.126-.812 1.375-2.203.687-3.343-1.078C.984 1.016.609-1.22 1.422-2.61c.812-1.36 1.984-.22 2.14.015m.75 2.688L3.093 2.14c.345.53.735 1.109 1.157 1.406.484.344.797.156.953-.078.594-1.016-.594-2.89-.89-3.375m0 0"/><path id="g" d="M8.375 3.75c.438.531.719 1.39.36 2.078-.438.86-1.36 1.297-2.532-.11l-1.062-1.25-.36.673-.468-.578.359-.672-3.64-4.36-.329.625L.22-.422.829-1.5c.171-.344.468-.906.609-1.25l.484.578-.39.75 3.64 4.36.516-1 .468.578-.547 1.062 1.063 1.25c1.14 1.375 1.578.813 1.687.594.032-.047.063-.094.047-.172-.172-.016-.422-.172-.61-.406-.452-.532-.468-1.094-.359-1.313.141-.265.516-.281.938.219m0 0"/><path id="h" d="M8.844 2.75c.469.453.828 1.266.484 1.969-.406.875-1.344 1.39-2.64.156l-1.141-1.11-.313.688-.53-.5.312-.687L1.03-.547.734.078l-.53-.515.577-1.094c.156-.344.422-.922.547-1.281l.531.515-.359.781 3.984 3.813.485-1.031.531.5-.516 1.078 1.141 1.11c1.25 1.202 1.688.624 1.781.405.031-.046.047-.109.063-.171-.203.015-.438-.125-.656-.329-.485-.468-.547-1-.454-1.234.141-.266.516-.328.985.125m0 0"/><path id="i" d="M3.36-3.437c.218.156.156.328.124.374-.062.157-.125.126-.343.047-.672-.265-1.282-.015-1.532.563-.562 1.297 1.079 2.531 1.688 3L4.469-2.22c.093-.203.125-.297.453-.047.39.297 1.281 1.047 1.672 1.954.312.671.328 1.328.062 1.953-.625 1.468-2.234 1.328-3.765.172C1.25.563.438-1.267 1.063-2.75c.625-1.453 2.093-.844 2.296-.687m1.28 2.093L3.704.86c.485.344 1.016.72 1.5.844.578.14.906-.125 1.016-.39C6.672.234 5.047-1 4.64-1.344m0 0"/><path id="j" d="M3.234-3.562c.172.109.125.234.079.328-.063.172-.079.156-.266.125-.906-.25-1.328.062-1.5.53C1.047-1.28 2.953-.155 3.563.189 4.297.625 6 1.609 6.453.406c.125-.328.14-.484.14-.656-.265.063-.546-.094-.671-.156-.578-.344-.703-.797-.61-1.047.11-.297.516-.438 1.063-.11C7.5-.905 7.172.22 6.953.75c-.64 1.688-2.39 1.484-3.922.61C1.297.343.391-1.267.938-2.704c.578-1.516 2.203-.906 2.296-.86m0 0"/><path id="k" d="m2.969-2.828.719.328-.157.438-.703-.329c-.937-.406-1.36-.234-1.453.032-.187.547.688.937 1 1.078L6.156.422l.485-1.39.625.28L6.78.704l2.61 1.172-.157.438c-1.375-.61-2.875-.766-3.25.171L5.5 2.266l.281-.782-3.75-1.687C.562-.875.547-1.813.797-2.484c.25-.72 1.172-.797 2.172-.344m0 0"/><path id="l" d="M3.313-3.25c.609.203 1.03.563 1.328 1.016.28.515.265.859.187 1.64 0 .39-.078 1.063.594 1.281.875.297 1.172-.578 1.234-.765.25-.703-.047-1.203-.812-1.516-.188-.078-.266-.11-.203-.312.078-.219.156-.188.484-.078l1.125.375c.266.093.39.14.328.297-.016.046-.016.062-.406.343.094.313.078.672-.047 1.047-.11.281-.594 1.735-2.437 1.11C4.125 1 3.797.672 3.625.406c-.375-.547-.344-.953-.281-1.734.015-.375.078-1.125-.766-1.406-1.062-.36-1.344.5-1.422.703-.343 1 .61 1.578 1.203 1.922.172.109.141.172.11.28-.078.235-.172.204-.5.095L.438-.25C.172-.344.03-.39.094-.562c.015-.063.015-.079.328-.204l.312-.156C.406-1.532.578-2.016.641-2.203c.109-.297.593-1.75 2.672-1.047m0 0"/><path id="m" d="M2.125-5.156c.344.047.297.156.25.297-.172.578.016.609.36.672l3.218.515c1.328.219 2.078 1.031 1.594 2.438-.172.53-.625 1.687-1.938 1.468C4.953.125 4.781-.25 4.86-.5c.11-.297.516-.547 1.141-.437.453.078.64.296.672.343.172-.265.297-.562.328-.672.25-.703-.281-1.156-1.406-1.343l-.516-.079C4.797-2.015 3.86.36 1.688.017.25-.22.39-1.437.609-2.094c.25-.75 1.016-1.094 1.72-1.203-.47-.078-1.157-.187-.813-1.172l.14-.453c.063-.187.11-.297.469-.234m1.078 2.172c-1.437-.235-1.922.609-2 .843-.172.485.219.938.875 1.047 1.61.266 2.344-1.203 2.547-1.672Zm0 0"/><path id="n" d="m.969-2.75.719.063-.235.64 9.906.922-.687 1.672-.719-.063c.203-.593.235-.656-.36-.718L1.11-1.031l-.234.656-.719-.062.453-1.157Zm0 0"/><path id="o" d="M5.328-4.937c2.125.078 3.375 1 2.797 2.53C7.547-.874 5.641-.093 3.531-.171 1.594-.234.328-1.125.906-2.672 1.5-4.234 3.406-5 5.328-4.937M5.062-3.72C3.688-3.78 2-3.844 1.547-2.656c-.438 1.187 1.25 1.25 2.625 1.312.703.016 1.516.047 2.094-.093.656-.157 1.125-.532 1.297-.985.156-.406.03-.812-.422-1.031-.47-.203-1.328-.25-2.078-.266m0 0"/><path id="p" d="M2.39-5.64h.766L2.891-5l4.187.031c1.703.016 2.125.5 1.734 1.422-.374.875-1.5 1.36-2.437 1.61h1.75L7.328-.375h-.766C6.813-.937 6.845-1 6.204-1L1.22-1.047l-.282.625H.173l.547-1.14.437-1.157h.766l-.266.64 3.375.032c1.766.016 2.89-.781 3.14-1.375.142-.297-.124-.5-1.358-.515l-4.36-.032-.265.64h-.766l.531-1.155Zm0 0"/><path id="q" d="M9.11-5.016c.374 0 .874.157.671.563-.062.14-.312.562-1.094.953.11.156.282.531-.046 1.188-.625 1.28-2.172 1.796-3.344 1.796-.672 0-1.297-.171-1.531-.468-.703.25-1.282.328-1.641.328-.234 0-1.047-.047-1.422-.39-.078.109-.75.765-1.812.765-.844 0-1.86-.485-.985-2.266.781-1.578 2.125-2.281 3.297-2.297.5 0 1.5.063 1.781.672.204.5-.062 1.031-.484 1.89-.11.235-.312.641-.312.688-.079.407.515.5.828.485.156 0 .406-.047.578-.094-.188-.406-.016-.875.094-1.094.64-1.281 2.203-1.781 3.375-1.781.78 0 1.218.219 1.406.344.422-.266.547-.453.61-.547-.11.015-.267.031-.345.031-.421.016-.656-.14-.546-.375.109-.219.515-.375.921-.39M6.562-3.078c-.75 0-1.875 0-2.266.781-.375.781.75.781 1.5.781s1.875-.015 2.25-.796c.39-.782-.735-.766-1.485-.766m-5.797-1c-.61 0-1.688.375-2.266 1.531-.516 1.063.031 1.5.797 1.5 1.015 0 1.297-.562 1.36-.687l.515-1.047c.14-.281.64-1.297-.406-1.297m0 0"/><path id="r" d="M7.297-5.016c2.39-.015 3.578.735 2.781 1.922-.406.64-1.25 1.094-1.719 1.281l.891-.015L8.14-.36l-.843.015c.344-.515.375-.578-.313-.578l-9.046.047-.376.578h-.828l.72-1.047.655-1.047h.829l-.375.579 3.328-.016c-.375-.36-.313-.734-.094-1.063.828-1.25 3-2.109 5.5-2.125m-.703 1.079c-2.532.015-3.844.593-4.203 1.14-.079.11-.328.5.375.875.187.078.203.078.547.078l3.812-.015c.328 0 .36-.016.688-.125.937-.328 1.343-.766 1.468-.953.36-.547-.422-1.016-2.687-1m0 0"/><path id="s" d="M3.875-4.312c.422 0 .344.093.25.203-.36.484-.125.5.313.515l4.015.094c1.672.047 2.438.625 1.516 1.797-.344.437-1.172 1.39-2.813 1.344-.812-.016-.968-.297-.797-.5.188-.25.782-.485 1.563-.47.562.016.75.173.781.204.281-.219.516-.469.594-.562.453-.579-.125-.891-1.531-.922l-.641-.016c-.516.563-2.234 2.547-4.937 2.469C.39-.203.827-1.172 1.25-1.72c.484-.625 1.531-.968 2.469-1.125-.578-.015-1.438-.031-.797-.86l.297-.358c.125-.172.203-.266.656-.25m.906 1.625c-1.797-.047-2.61.671-2.765.859-.313.406.078.734.906.75 2.015.062 3.266-1.172 3.64-1.563Zm0 0"/><path id="t" d="m5-2.672 1.016.047-.313.344-1-.047c-1.312-.063-1.984.14-2.172.344-.39.437.844.5 1.297.53l5.36.266.984-1.093.89.047-.984 1.093 3.719.172-.328.344c-1.953-.094-4.188.156-4.922.89l-.688-.03.563-.61-5.328-.266C1.016-.75 1.156-1.39 1.64-1.92 2.156-2.47 3.578-2.75 5-2.672m0 0"/><path id="u" d="m4.5-4.156.953.078-.5.469 5.235.437c2.109.188 2.5.61 1.765 1.297-.703.64-2.234.89-3.187.969l6.859.578L14.188.859l-.954-.078c.454-.406.516-.453-.265-.531L1.797-.687l-.516.453-.953-.078.984-.844.86-.844.953.078-.5.469 4.219.36c2.203.187 3.812-.329 4.281-.75.25-.235-.016-.407-1.547-.548l-5.453-.453-.5.469-.953-.078.969-.86Zm0 0"/><path id="v" d="M15.297-.078c.812.094 1.203.39.875.656-.344.281-1.297.422-2.11.328-.14-.015-.187-.015-.359-.062L6.47-.344c-.485-.078-.516-.078-.344-.219.14-.109.188-.14.64-.109l8.25.578ZM3.609-1.375c.907.094 1.36.39 1.032.656-.344.282-1.344.39-2.25.297-.922-.11-1.36-.39-1.016-.672.328-.265 1.313-.39 2.234-.281m0 0"/><path id="w" d="m2.188-3.36-.329-.421-.375.297.329.406c.421.515.312.906.093 1.094-.453.359-.86-.141-.984-.313l-1.735-2.14L.329-5.36l-.297-.36-1.14.922-1.203-1.484-.36.297c.625.78.875 1.859.11 2.515l.234.266.64-.531L.032-1.61c.671.828 1.484.468 2.046.015.578-.468.563-1.218.11-1.765m0 0"/><path id="x" d="M2.797-4.219c-.125-.125-.266 0-.297.032-.125.125-.11.156-.047.328.188.484-.015 1.109-.484 1.547-1.031.968-1.938 0-2.282-.376l2.188-2.046c.172-.157.234-.22.047-.407-.203-.234-.75-.718-1.453-.75-.516-.015-1.016.22-1.516.688-1.156 1.094-1.094 2.437-.25 3.344C-.39-.875 1-.844 2.187-1.953c1.141-1.078.72-2.14.61-2.266m-1.594-.328L-.53-2.922c-.266-.281-.547-.61-.625-.984-.063-.469.14-.828.343-1.031.86-.797 1.782.156 2.016.39m0 0"/><path id="y" d="m3.906-4.328-.344-.313-.468.516-2.61-.078-.171-1.734C.297-6.141.28-6.22.828-6.812l-.344-.329-.593.704-.703.734.343.328c.094-.11.188-.203.313-.234.031.062.047.078.047.14l.125 1.235-1.5-.016.28-.312-.343-.329-.812.938-.75.781.343.328.485-.531 2.39.078.22 1.953c.046.25-.204.516-.532.875l.344.313L.75-.86l.688-.735-.344-.312c-.11.125-.282.234-.313.187 0 0-.015 0-.031-.11L.578-3.28l1.703.062-.265.281.343.313.797-.906Zm0 0"/><path id="z" d="m1.344-3.766-.422-.328-.297.36.422.312c.531.406.531.828.36 1.047-.36.469-.876.078-1.048-.062L-1.828-4.11l.89-1.172-.359-.282-.89 1.172-1.516-1.171-.281.359c.797.61 1.28 1.61.687 2.422l.281.219.5-.657 2.172 1.656c.844.657 1.547.094 1.985-.468.453-.594.28-1.297-.297-1.735m0 0"/><path id="A" d="M1.484-4.828c-.14-.094-.234.062-.25.11-.093.14-.046.187.047.327.313.422.282 1.079-.047 1.625-.718 1.204-1.859.547-2.296.282l1.53-2.594c.11-.188.157-.266-.062-.39-.265-.173-.937-.5-1.61-.313-.5.14-.921.5-1.265 1.093-.812 1.375-.375 2.641.688 3.282 1.156.672 2.5.312 3.312-1.078.813-1.36.11-2.266-.047-2.344m-1.609.14L-1.344-2.64c-.328-.218-.672-.453-.86-.796A1.09 1.09 0 0 1-2.155-4.5c.594-1.016 1.719-.375 2.031-.187m0 0"/><path id="B" d="M-3.406-6.687c-.375-.188-.938-.094-1.297.593-.438.86-.563 2.016.422 2.532l.906.468-.36.672.422.219.36-.672 3.078 1.61-.328.624.422.22.547-1.126c.172-.344.468-.906.672-1.203l-.422-.219-.391.75-3.078-1.61.515-1-.421-.218-.547 1.063-.906-.47c-.97-.5-.704-1.218-.594-1.437.031-.046.062-.093.11-.14.03.187.155.36.312.437.375.203.718-.047.828-.265.14-.266.11-.641-.25-.828m0 0"/><path id="C" d="M-3.64-6.562c-.391-.172-.954-.032-1.297.671-.407.875-.5 2.016.53 2.5l.907.438-.312.687.421.204.313-.688L.078-1.266l-.297.625.422.204.516-1.141c.156-.344.422-.922.61-1.234l-.423-.204-.36.782-3.155-1.485.484-1.031-.422-.203-.515 1.078-.907-.437c-1-.47-.75-1.188-.656-1.407.031-.047.047-.11.11-.14.03.187.171.328.343.406a.57.57 0 0 0 .797-.281.596.596 0 0 0-.266-.828m0 0"/><path id="D" d="M.844-4.984c-.156-.079-.219.093-.25.14-.063.157-.016.203.094.313.359.39.437 1.031.187 1.61-.562 1.296-1.781.796-2.25.608l1.172-2.765c.094-.203.125-.297-.125-.406-.281-.125-.969-.344-1.64-.094-.47.187-.829.625-1.094 1.25-.626 1.469-.016 2.687 1.109 3.172 1.25.515 2.531-.016 3.156-1.5C1.828-4.11 1-4.922.843-4.984m-1.578.328-.938 2.203c-.36-.156-.734-.344-.953-.656a1.14 1.14 0 0 1-.11-1.078c.454-1.079 1.672-.579 2-.47m0 0"/><path id="E" d="M.61-4.875c-.126-.047-.172.078-.22.172-.062.172-.046.187.063.297.485.453.485.968.313 1.437-.5 1.297-1.844.781-2.282.61-.53-.203-1.734-.657-1.28-1.86.124-.328.202-.453.28-.593a.64.64 0 0 0 .36.359.594.594 0 0 0 .797-.344c.109-.297.03-.672-.344-.812-.797-.313-1.266.75-1.484 1.28-.641 1.688.171 2.782 1.25 3.188 1.25.485 2.468-.062 3.015-1.5.578-1.515-.39-2.203-.469-2.234m0 0"/><path id="F" d="m.11-4-.516-.187-.156.437.5.172c.625.234.734.625.64.89-.187.547-.781.329-1 .25L-3-3.343l.484-1.39-.453-.157-.484 1.391-1.797-.64-.156.437c.953.328 1.718 1.11 1.406 2.078l.344.125.281-.781 2.563.906c1.015.36 1.5-.39 1.75-1.062C1.188-3.157.78-3.766.109-4m0 0"/><path id="G" d="M.016-4.375c-.422-.14-.813-.062-1.188.188-.39.28-.562.578-.937 1.25-.172.328-.485.906-.938.765-.594-.203-.297-1.078-.234-1.265.25-.704.64-.97 1.172-.844.172.031.218.047.28-.157.079-.218.032-.234-.187-.312L-2.78-5c-.172-.062-.266-.094-.328.063-.016.046-.016.062.046.5a2.4 2.4 0 0 0-.5.89c-.109.281-.593 1.735.657 2.156.375.125.687.032.906-.109.453-.266.64-.61 1.016-1.297.172-.312.53-.969 1.093-.765.704.234.422 1.093.344 1.296-.344 1-1.125 1-1.547.985-.156 0-.187.062-.218.172-.079.234-.016.265.187.328l1.047.36c.172.046.266.077.328-.095.016-.062.016-.078-.062-.328l-.079-.281c.454-.36.625-.844.688-1.031.11-.297.594-1.75-.781-2.219m0 0"/><path id="H" d="M1.547-5.297c-.219-.078-.266.031-.313.172-.203.578-.328.547-.546.469l-2.032-.688c-.843-.281-1.672.172-2.156 1.578-.172.532-.516 1.688.313 1.97a.59.59 0 0 0 .78-.376c.11-.297 0-.656-.39-.797-.281-.094-.5.047-.531.063.031-.281.125-.594.156-.703.25-.703.766-.907 1.469-.672l.328.11c-.203.687-.937 3.109.438 3.577.89.297 1.484-.812 1.703-1.469.25-.75.015-1.312-.313-1.671.297.109.719.25 1.063-.735l.14-.453c.063-.187.11-.297-.11-.375M-.187-3.766c.906.297.734 1.22.656 1.454-.172.484-.625.75-1.047.609-1.016-.344-.625-1.89-.5-2.375Zm0 0"/><path id="I" d="M.969-2.75.53-2.906l-.234.64-6.094-2.14-.5 1.703.438.156c.203-.594.234-.656.609-.531L-.047-1.25l-.234.656.437.156.375-1.171Zm0 0"/><path id="J" d="M-.125-5.828c-1.266-.469-2.531.031-3.11 1.562s.063 2.735 1.313 3.204C-.766-.625.484-1.11 1.062-2.657c.594-1.563-.046-2.735-1.187-3.172m-.562 1.172c.812.297 1.812.672 1.359 1.86-.438 1.187-1.438.812-2.25.515-.422-.172-.89-.344-1.14-.64-.298-.298-.344-.767-.173-1.22.157-.406.438-.734.844-.812s.906.125 1.36.297m0 0"/><path id="K" d="m2.39-5.64-.437-.188-.266.64-2.359-1c-.969-.421-1.531-.078-1.922.844-.375.875-.062 1.578.297 2.032l-.984-.422-.61 1.593.438.172c.25-.562.281-.625.64-.468L.017-1.234l-.282.625.438.187.469-1.156.515-1.14-.437-.188-.266.64-1.906-.812a1.523 1.523 0 0 1-.875-2c.14-.297.406-.422 1.11-.125L1.25-4.156l-.266.64.438.188.453-1.172Zm0 0"/><path id="L" d="M-1.078-6.734c-.203-.11-.594-.11-.797.297-.062.14-.234.578-.125 1.125-.203.093-.562.39-.89 1.046-.626 1.282-.172 2.125.437 2.422.36.188.828.203 1.172 0 .203.407.468.625.64.703.141.079.594.25 1.047.032C.391-.984.25-.22.813.047c.453.234 1.375.062 2.25-1.719.78-1.578.624-2.547-.016-2.86-.266-.124-.875-.343-1.469.11-.5.375-.766.906-1.187 1.766-.11.234-.313.64-.344.687a.617.617 0 0 1-.813.219.52.52 0 0 1-.25-.234c.407-.297.657-.766.766-.985.64-1.281.188-2.125-.437-2.437-.422-.203-.829-.125-1.047-.063 0-.328.093-.531.125-.625.015.032.109.094.156.125.234.11.469.032.578-.203a.405.405 0 0 0-.203-.562m-.11 2.328c.407.203 1.016.5.626 1.281-.375.781-.985.484-1.391.281-.39-.187-1-.484-.625-1.265.39-.782 1-.485 1.39-.297m3.875.656c.329.172.626.766.047 1.922C2.22-.766 1.578-.516 1.172-.718.625-.985.906-1.548.969-1.673l.515-1.047C1.625-3 2.125-4.016 2.688-3.75m0 0"/><path id="M" d="M1.438-6.219c-1.11-.734-2.391-.484-3.188.703a2.64 2.64 0 0 0-.422 1.532l-.406-.266-.89 1.516.39.25c.344-.516.375-.578.687-.375L1.797-.08 1.422.5l.406.25.656-1.062.72-1.032-.407-.25-.375.578-1.547-1.03c.516-.173.86-.485 1.078-.813.828-1.25.64-2.61-.516-3.36M.734-5.14c1.188.766 1.22 1.641.86 2.188-.078.11-.328.5-1.031.562-.172.032-.188.016-.344-.078l-1.75-1.172c-.157-.093-.157-.125-.203-.312-.125-.547.109-1.016.234-1.203.36-.547 1.188-.688 2.234.015m0 0"/><path id="N" d="M3.234-4.469c-.187-.156-.265-.062-.359.047-.375.484-.484.406-.656.266L.53-5.484c-.703-.563-1.64-.407-2.562.765-.344.438-1.047 1.422-.36 1.953.344.282.688.125.86-.078.187-.25.218-.64-.094-.89-.234-.172-.5-.125-.547-.141.14-.234.328-.5.406-.594.454-.578 1.032-.593 1.61-.125l.265.203c-.421.579-1.906 2.625-.78 3.516.75.594 1.655-.266 2.077-.812.485-.625.469-1.235.282-1.657.234.188.593.469 1.234-.36l.297-.358c.125-.172.203-.266.015-.407m-2.14.86c.765.593.281 1.39.125 1.578-.313.406-.828.515-1.188.234-.828-.672.047-1.984.328-2.39Zm0 0"/><path id="O" d="M1.672-3.64 1.282-4l-.313.344.375.36c.5.452.453.843.265 1.046-.39.438-.859 0-1.03-.14l-2.016-1.86.984-1.094-.344-.328-.984 1.094-1.406-1.281-.329.343c.735.672 1.141 1.688.485 2.438l.265.25.563-.61 2.015 1.844c.782.719 1.516.25 2-.281.516-.547.391-1.266-.14-1.766m0 0"/><path id="P" d="M4.5-4.156 4.188-4.5l-.5.469-1.75-1.89c-.72-.782-1.375-.704-2.11-.016-.703.64-.672 1.406-.594 1.843l-2.296-2.5-1.25 1.25L-4-5c.453-.406.516-.453.781-.172l3.75 4.063-.515.453.312.344.906-.86L2.172-2l-.313-.344-.5.469-1.406-1.531c-.75-.797-.453-1.75.016-2.172.25-.234.547-.234 1.062.328L2.86-3.266l-.5.47.313.343.89-.875Zm0 0"/><path id="Q" d="M-1.953-6.516c-.25-.296-.734-.343-1.063-.078-.343.282-.421.766-.171 1.063a.5.5 0 0 0 .124.125l2.672 2.5c.188.187.188.187.36.047.14-.11.156-.141.047-.328l-1.907-3.22Zm3.437 4.344C1.22-2.5.734-2.578.406-2.312c-.343.28-.406.765-.14 1.093a.78.78 0 0 0 1.109.125c.328-.265.375-.734.11-1.078m0 0"/><clipPath id="a"><path d="M2 100h5v15.91H2Zm0 0"/></clipPath></defs><g clip-path="url(#a)"><use xlink:href="#b" x="3.472" y="103.14" fill="#7F7F7F" fill-opacity=".5"/></g><use xlink:href="#c" x="6.946" y="100.344" fill="#7F7F7F" fill-opacity=".5"/><use xlink:href="#d" x="10.798" y="96.766" fill="#7F7F7F" fill-opacity=".5"/><use xlink:href="#e" x="14.827" y="92.251" fill="#7F7F7F" fill-opacity=".5"/><use xlink:href="#f" x="19.691" y="85.56" fill="#7F7F7F" fill-opacity=".5"/><use xlink:href="#g" x="22.343" y="81.023" fill="#7F7F7F" fill-opacity=".5"/><use xlink:href="#h" x="23.96" y="77.919" fill="#7F7F7F" fill-opacity=".5"/><use xlink:href="#i" x="25.473" y="74.763" fill="#7F7F7F" fill-opacity=".5"/><use xlink:href="#j" x="27.524" y="69.926" fill="#7F7F7F" fill-opacity=".5"/><use xlink:href="#k" x="29.332" y="65.166" fill="#7F7F7F" fill-opacity=".5"/><use xlink:href="#l" x="30.816" y="60.964" fill="#7F7F7F" fill-opacity=".5"/><use xlink:href="#m" x="33.467" y="53.054" fill="#7F7F7F" fill-opacity=".5"/><use xlink:href="#n" x="35.253" y="47.776" fill="#7F7F7F" fill-opacity=".5"/><use xlink:href="#o" x="36.293" y="44.77" fill="#7F7F7F" fill-opacity=".5"/><use xlink:href="#p" x="38.294" y="39.4" fill="#7F7F7F" fill-opacity=".5"/><use xlink:href="#q" x="40.788" y="33.538" fill="#7F7F7F" fill-opacity=".5"/><use xlink:href="#r" x="45.2" y="25.065" fill="#7F7F7F" fill-opacity=".5"/><use xlink:href="#s" x="48.719" y="19.753" fill="#7F7F7F" fill-opacity=".5"/><use xlink:href="#t" x="52.193" y="15.393" fill="#7F7F7F" fill-opacity=".5"/><use xlink:href="#u" x="55.187" y="12.089" fill="#7F7F7F" fill-opacity=".5"/><use xlink:href="#v" x="59.905" y="7.81" fill="#7F7F7F" fill-opacity=".5"/><use xlink:href="#w" x="3.472" y="103.14" fill="#FF7A00"/><use xlink:href="#x" x="6.946" y="100.344" fill="#FF7500"/><use xlink:href="#y" x="10.798" y="96.766" fill="#FF7000"/><use xlink:href="#z" x="14.827" y="92.251" fill="#FF6A00"/><use xlink:href="#A" x="19.691" y="85.56" fill="#FF6000"/><use xlink:href="#B" x="22.343" y="81.023" fill="#FF5A00"/><use xlink:href="#C" x="23.96" y="77.919" fill="#F50"/><use xlink:href="#D" x="25.473" y="74.763" fill="#FF5000"/><use xlink:href="#E" x="27.524" y="69.926" fill="#FF4A00"/><use xlink:href="#F" x="29.332" y="65.166" fill="#FF4500"/><use xlink:href="#G" x="30.816" y="60.964" fill="#FF4000"/><use xlink:href="#H" x="33.467" y="53.054" fill="#FF3500"/><use xlink:href="#I" x="35.253" y="47.776" fill="#FF3000"/><use xlink:href="#J" x="36.293" y="44.77" fill="#FF2A00"/><use xlink:href="#K" x="38.294" y="39.4" fill="#FF2500"/><use xlink:href="#L" x="40.788" y="33.538" fill="#FF2000"/><use xlink:href="#M" x="45.2" y="25.065" fill="#FF1500"/><use xlink:href="#N" x="48.719" y="19.753" fill="#FF1000"/><use xlink:href="#O" x="52.193" y="15.393" fill="#FF0B00"/><use xlink:href="#P" x="55.187" y="12.089" fill="#FF0500"/><use xlink:href="#Q" x="59.905" y="7.81" fill="red"/></svg>