<svg xmlns="http://www.w3.org/2000/svg" width="101.232" height="44.75"><defs><clipPath id="a"><path d="M71 0h29v30H71Zm0 0"/></clipPath><clipPath id="b"><path d="M99.84 15.066C99.84 7.238 93.492.895 85.664.895S71.492 7.238 71.492 15.066c0 7.829 6.344 14.172 14.172 14.172S99.84 22.895 99.84 15.066m0 0"/></clipPath></defs><path fill="none" stroke="#000" stroke-miterlimit="10" stroke-width=".399" d="M.625 43.414h2.102v-2.102h2.097v2.102h2.102v-2.102H4.824v-2.097h2.102v-2.102h2.097v-2.097h2.102v2.097h2.098v2.102h2.101v2.097h-2.101v2.102h2.101v-2.102h2.098v2.102h2.101v-2.102h-2.101v-2.097h2.101v-2.102h-2.101v2.102h-2.098v-2.102h-2.101v-2.097h-2.098v-2.102h2.098v-2.098h2.101v-2.101h2.098v2.101h2.101v-2.101h-2.101v-2.098h2.101v-2.101h2.098v-2.102h2.102v2.102h2.097v-2.102h-2.097v-2.098h2.097v-2.101h2.102v-2.098h2.098v2.098h2.101v2.101h2.098v2.098H32.12v2.102h2.098v-2.102h2.101v2.102h2.102v2.097h2.098v2.102h-2.098v2.101h2.098v-2.101h2.101v2.101h2.098v2.098h2.101v2.102H44.72v2.097H42.62v2.102H40.52v-2.102h-2.098v2.102h2.098v2.097h-2.098v2.102h2.098v-2.102h2.101v2.102h2.098v-2.102H42.62v-2.097h2.098v-2.102h2.101v-2.097h2.098v2.097h2.102v2.102h2.097v2.097H51.02v2.102h2.097v-2.102h2.102v2.102h2.101"/><path fill="#0F0" fill-opacity=".2" d="M50.703 34.91a4.725 4.725 0 1 0-9.449-.004 4.725 4.725 0 0 0 9.45.004M99.84 15.066C99.84 7.238 93.492.895 85.664.895S71.492 7.238 71.492 15.066c0 7.829 6.344 14.172 14.172 14.172S99.84 22.895 99.84 15.066m0 0"/><g clip-path="url(#a)"><g clip-path="url(#b)"><path fill="none" stroke="#000" stroke-miterlimit="10" stroke-width="1.197" d="M-50.398 40.578h6.296v-6.297h6.301v6.297h6.297v-6.297H-37.8v-6.3h6.297V21.68h6.3v-6.297h6.298v6.297h6.3v6.3h6.297v6.297h-6.296v6.301h6.3v-6.3h6.297v6.3h6.301v-6.297h-6.3v-6.3h6.3V21.68h-6.3v6.3h-6.298v-6.3h-6.3v-6.297h-6.297V9.082h6.297V2.785h6.3v-6.3h6.297v6.3h6.301v-6.3h-6.3v-6.301h6.3v-6.297h6.297v-6.301h6.3v6.3h6.301v-6.3h-6.3v-6.297h6.3v-6.3h6.297v-6.301h6.301v6.3h6.297v6.301h6.3v6.297h-6.3v6.3h6.3v-6.3h6.301v6.3h6.297v6.298h6.301v6.3h-6.3v6.297h6.3v-6.297h6.297v6.297h6.3v6.301h6.298v6.3h-6.297v6.298h-6.301v6.3h-6.297v-6.3h-6.3v6.3h6.3v6.297h-6.3v6.301h6.3v-6.3h6.297v6.3h6.3v-6.3h-6.296V27.98h6.297v-6.3h6.3v-6.297h6.297v6.297h6.301v6.3h6.301v6.297h-6.3v6.301h6.3v-6.3h6.297v6.3h6.3"/></g></g><path fill="none" stroke="#0F0" stroke-miterlimit="10" stroke-width=".399" d="m50.207 32.797 22.781-11.395"/></svg>