<svg xmlns="http://www.w3.org/2000/svg" width="22.024" height="5.672"><defs><clipPath id="a"><path d="M11 0h10.535v5.508H11Zm0 0"/></clipPath></defs><path fill="none" stroke="#000" stroke-miterlimit="10" stroke-width=".399" d="M.52 2.676h16.468"/><path d="M20.246 2.676c.27-.903-.238-1.63-1.14-1.63-.899 0-1.848.727-2.118 1.63-.27.898.242 1.629 1.14 1.629.9 0 1.849-.73 2.118-1.63m0 0"/><g clip-path="url(#a)"><path fill="none" stroke="#000" stroke-miterlimit="10" stroke-width=".399" d="M3.457-.002a1.627 1.627 0 0 1-1.63 1.63C.93 1.627.197.9.2-.003a1.63 1.63 0 0 1 3.258 0Zm0 0" transform="matrix(1 0 .3 -1 16.79 2.674)"/></g></svg>