<svg xmlns="http://www.w3.org/2000/svg" xmlns:xlink="http://www.w3.org/1999/xlink" width="59.092" height="30.745"><defs><clipPath id="e"><path d="M.746 1.07h28.348v28.348H.746Zm0 0"/></clipPath><clipPath id="a"><path d="M0 0h9v9H0z"/></clipPath><clipPath id="g"><path d="M.746 25H4v4.418H.746Zm0 0"/></clipPath><clipPath id="h"><path d="M6 25h7v4.418H6Zm0 0"/></clipPath><clipPath id="i"><path d="M15 25h6v4.418h-6Zm0 0"/></clipPath><clipPath id="j"><path d="M23 25h6.094v4.418H23Zm0 0"/></clipPath><clipPath id="k"><path d="M.746 16H4v6H.746Zm0 0"/></clipPath><clipPath id="l"><path d="M23 16h6.094v6H23Zm0 0"/></clipPath><clipPath id="m"><path d="M.746 8H4v6H.746Zm0 0"/></clipPath><clipPath id="n"><path d="M23 8h6.094v6H23Zm0 0"/></clipPath><clipPath id="o"><path d="M.746 1.07H4V5H.746Zm0 0"/></clipPath><clipPath id="p"><path d="M6 1.07h7V5H6Zm0 0"/></clipPath><clipPath id="q"><path d="M15 1.07h6V5h-6Zm0 0"/></clipPath><clipPath id="r"><path d="M23 1.07h6.094V5H23Zm0 0"/></clipPath><clipPath id="s"><path d="M29.094 1.07h28.344v28.348H29.094Zm0 0"/></clipPath><clipPath id="c"><path d="M0 0h9v9H0z"/></clipPath><clipPath id="u"><path d="M29.094 25H30v4.418h-.906Zm0 0"/></clipPath><clipPath id="v"><path d="M32 25h6v4.418h-6Zm0 0"/></clipPath><clipPath id="w"><path d="M41 25h6v4.418h-6Zm0 0"/></clipPath><clipPath id="x"><path d="M49 25h6v4.418h-6Zm0 0"/></clipPath><clipPath id="y"><path d="M29.094 16H30v7h-.906Zm0 0"/></clipPath><clipPath id="z"><path d="M29.094 8H30v6h-.906Zm0 0"/></clipPath><clipPath id="A"><path d="M29.094 1.07H30V6h-.906Zm0 0"/></clipPath><clipPath id="B"><path d="M32 1.07h6V6h-6Zm0 0"/></clipPath><clipPath id="C"><path d="M41 1.07h6V6h-6Zm0 0"/></clipPath><clipPath id="D"><path d="M49 1.07h6V6h-6Zm0 0"/></clipPath><pattern id="f" width="9" height="9" x="0" y="0" patternTransform="matrix(.9449 0 0 -.9449 -143.454 13608.872)" patternUnits="userSpaceOnUse"><use xlink:href="#b"/></pattern><pattern id="t" width="9" height="9" x="0" y="0" patternTransform="matrix(.9449 0 0 -.9449 -143.454 13608.872)" patternUnits="userSpaceOnUse"><use xlink:href="#d"/></pattern><g id="b" clip-path="url(#a)"><path fill="#FF7F00" d="M5.852 3.926H.148L4.762.574 3 6 1.238.574Zm0 0"/></g><g id="d" clip-path="url(#c)"><path fill="#FF7F00" d="M5.598 4.5H.402L3 0Zm0-3L3 6 .402 1.5Zm0 0"/></g></defs><g clip-path="url(#e)"><path fill="url(#f)" d="M.746 29.418h28.348V1.07H.746Zm0 0"/></g><path fill="none" stroke="#000" stroke-miterlimit="10" stroke-width=".399" d="M.746 29.418V1.07h28.348v28.348Zm0 0"/><g clip-path="url(#g)"><path fill="#00F" d="m1.113 25.102-.832 1.687-1.863.273 1.348 1.313-.317 1.855 1.664-.875 1.668.875-.32-1.855 1.348-1.312-1.86-.274Zm0 0"/></g><g clip-path="url(#h)"><path fill="#00F" d="m9.617 25.102-.832 1.687-1.863.273 1.348 1.313-.317 1.855 1.664-.875 1.668.875-.32-1.855 1.351-1.312-1.863-.274Zm0 0"/></g><g clip-path="url(#i)"><path fill="#00F" d="m18.121 25.102-.832 1.687-1.863.273 1.347 1.313-.316 1.855 1.664-.875 1.668.875-.32-1.855 1.351-1.312-1.863-.274Zm0 0"/></g><g clip-path="url(#j)"><path fill="#00F" d="m26.625 25.102-.832 1.687-1.863.273 1.347 1.313-.316 1.855 1.664-.875 1.668.875-.32-1.855 1.351-1.312-1.863-.274Zm0 0"/></g><g clip-path="url(#k)"><path fill="#00F" d="m1.113 16.598-.832 1.687-1.863.27 1.348 1.316-.317 1.856 1.664-.875 1.668.875-.32-1.856 1.348-1.316-1.86-.27Zm0 0"/></g><path fill="#00F" d="m9.617 16.598-.832 1.687-1.863.27L8.27 19.87l-.317 1.856 1.664-.875 1.668.875-.32-1.856 1.351-1.316-1.863-.27ZM18.121 16.598l-.832 1.687-1.863.27 1.347 1.316-.316 1.856 1.664-.875 1.668.875-.32-1.856 1.351-1.316-1.863-.27Zm0 0"/><g clip-path="url(#l)"><path fill="#00F" d="m26.625 16.598-.832 1.687-1.863.27 1.347 1.316-.316 1.856 1.664-.875 1.668.875-.32-1.856 1.351-1.316-1.863-.27Zm0 0"/></g><g clip-path="url(#m)"><path fill="#00F" d="M1.113 8.094.281 9.78l-1.863.27 1.348 1.316-.317 1.856 1.664-.875 1.668.875-.32-1.856 1.348-1.316-1.86-.27Zm0 0"/></g><path fill="#00F" d="M9.617 8.094 8.785 9.78l-1.863.27 1.348 1.316-.317 1.856 1.664-.875 1.668.875-.32-1.856 1.351-1.316-1.863-.27ZM18.121 8.094 17.29 9.78l-1.863.27 1.347 1.316-.316 1.856 1.664-.875 1.668.875-.32-1.856 1.351-1.316-1.863-.27Zm0 0"/><g clip-path="url(#n)"><path fill="#00F" d="m26.625 8.094-.832 1.687-1.863.27 1.347 1.316-.316 1.856 1.664-.875 1.668.875-.32-1.856 1.351-1.316-1.863-.27Zm0 0"/></g><g clip-path="url(#o)"><path fill="#00F" d="M1.113-.41.281 1.277l-1.863.27 1.348 1.316-.317 1.856 1.664-.875 1.668.875-.32-1.856 1.348-1.316-1.86-.27Zm0 0"/></g><g clip-path="url(#p)"><path fill="#00F" d="m9.617-.41-.832 1.687-1.863.27L8.27 2.863 7.953 4.72l1.664-.875 1.668.875-.32-1.856 1.351-1.316-1.863-.27Zm0 0"/></g><g clip-path="url(#q)"><path fill="#00F" d="m18.121-.41-.832 1.687-1.863.27 1.347 1.316-.316 1.856 1.664-.875 1.668.875-.32-1.856 1.351-1.316-1.863-.27Zm0 0"/></g><g clip-path="url(#r)"><path fill="#00F" d="m26.625-.41-.832 1.687-1.863.27 1.347 1.316-.316 1.856 1.664-.875 1.668.875-.32-1.856 1.351-1.316-1.863-.27Zm0 0"/></g><path fill="none" stroke="#000" stroke-miterlimit="10" stroke-width=".399" d="M.746 29.418V1.07h28.348v28.348Zm0 0"/><g clip-path="url(#s)"><path fill="url(#t)" d="M29.094 29.418H57.44V1.07H29.094Zm0 0"/></g><path fill="none" stroke="#000" stroke-miterlimit="10" stroke-width=".399" d="M29.094 29.418V1.07h28.344v28.348Zm0 0"/><g clip-path="url(#u)"><path fill="#00F" d="m26.625 25.102-.707 1.609-1.746-.191 1.039 1.418-1.04 1.417 1.747-.19.707 1.605.71-1.606 1.747.191-1.039-1.418 1.039-1.417-1.746.19Zm0 0"/></g><g clip-path="url(#v)"><path fill="#00F" d="m35.129 25.102-.707 1.609-1.746-.191 1.039 1.418-1.04 1.417 1.747-.19.707 1.605.71-1.606 1.747.191-1.04-1.418 1.04-1.417-1.746.19Zm0 0"/></g><g clip-path="url(#w)"><path fill="#00F" d="m43.633 25.102-.707 1.609-1.746-.191 1.039 1.418-1.04 1.417 1.747-.19.707 1.605.71-1.606 1.747.191-1.04-1.418 1.04-1.417-1.746.19Zm0 0"/></g><g clip-path="url(#x)"><path fill="#00F" d="m52.14 25.102-.71 1.609-1.746-.191 1.039 1.418-1.04 1.417 1.747-.19.71 1.605.708-1.606 1.746.191-1.04-1.418 1.04-1.417-1.746.19Zm0 0"/></g><g clip-path="url(#y)"><path fill="#00F" d="m26.625 16.598-.707 1.609-1.746-.191 1.039 1.418-1.04 1.418 1.747-.192.707 1.606.71-1.606 1.747.192-1.039-1.418 1.039-1.418-1.746.191Zm0 0"/></g><path fill="#00F" d="m35.129 16.598-.707 1.609-1.746-.191 1.039 1.418-1.04 1.418 1.747-.192.707 1.606.71-1.606 1.747.192-1.04-1.418 1.04-1.418-1.746.191ZM43.633 16.598l-.707 1.609-1.746-.191 1.039 1.418-1.04 1.418 1.747-.192.707 1.606.71-1.606 1.747.192-1.04-1.418 1.04-1.418-1.746.191ZM52.14 16.598l-.71 1.609-1.746-.191 1.039 1.418-1.04 1.418 1.747-.192.71 1.606.708-1.606 1.746.192-1.04-1.418 1.04-1.418-1.746.191Zm0 0"/><g clip-path="url(#z)"><path fill="#00F" d="m26.625 8.094-.707 1.605-1.746-.187 1.039 1.418-1.04 1.418 1.747-.192.707 1.606.71-1.606 1.747.192-1.039-1.418 1.039-1.418-1.746.187Zm0 0"/></g><path fill="#00F" d="m35.129 8.094-.707 1.605-1.746-.187 1.039 1.418-1.04 1.418 1.747-.192.707 1.606.71-1.606 1.747.192-1.04-1.418 1.04-1.418-1.746.187ZM43.633 8.094l-.707 1.605-1.746-.187 1.039 1.418-1.04 1.418 1.747-.192.707 1.606.71-1.606 1.747.192-1.04-1.418 1.04-1.418-1.746.187ZM52.14 8.094l-.71 1.605-1.746-.187 1.039 1.418-1.04 1.418 1.747-.192.71 1.606.708-1.606 1.746.192-1.04-1.418 1.04-1.418-1.746.187Zm0 0"/><g clip-path="url(#A)"><path fill="#00F" d="m26.625-.41-.707 1.605-1.746-.187 1.039 1.418-1.04 1.418 1.747-.192.707 1.606.71-1.606 1.747.192-1.039-1.418 1.039-1.418-1.746.187Zm0 0"/></g><g clip-path="url(#B)"><path fill="#00F" d="m35.129-.41-.707 1.605-1.746-.187 1.039 1.418-1.04 1.418 1.747-.192.707 1.606.71-1.606 1.747.192-1.04-1.418 1.04-1.418-1.746.187Zm0 0"/></g><g clip-path="url(#C)"><path fill="#00F" d="m43.633-.41-.707 1.605-1.746-.187 1.039 1.418-1.04 1.418 1.747-.192.707 1.606.71-1.606 1.747.192-1.04-1.418 1.04-1.418-1.746.187Zm0 0"/></g><g clip-path="url(#D)"><path fill="#00F" d="m52.14-.41-.71 1.605-1.746-.187 1.039 1.418-1.04 1.418 1.747-.192.71 1.606.708-1.606 1.746.192-1.04-1.418 1.04-1.418-1.746.187Zm0 0"/></g><path fill="none" stroke="#000" stroke-miterlimit="10" stroke-width=".399" d="M29.094 29.418V1.07h28.344v28.348Zm0 0"/></svg>