<svg xmlns="http://www.w3.org/2000/svg" xmlns:xlink="http://www.w3.org/1999/xlink" width="357.644" height="345.638"><defs><path id="b" d="M5.719-2.031c0-1.094-.797-1.906-1.719-2.094l-1.437-.312c-.407-.094-.954-.422-.954-1.032 0-.437.282-1.047 1.266-1.047.797 0 1.813.329 2.047 1.688.031.25.031.266.234.266.25 0 .25-.047.25-.282v-1.828c0-.187 0-.281-.187-.281-.078 0-.078.016-.188.11l-.453.437C4-6.86 3.344-6.953 2.875-6.953c-1.516 0-2.234.969-2.234 2.016 0 .64.328 1.093.53 1.312.5.5.829.563 1.923.797.875.203 1.047.219 1.265.437.141.141.391.407.391.86 0 .484-.25 1.172-1.297 1.172-.75 0-2.265-.203-2.344-1.688-.015-.172-.015-.219-.234-.219-.234 0-.234.047-.234.282v1.812C.64.016.64.11.813.11.906.11.922.094 1 .016l.469-.453c.656.484 1.578.546 1.984.546C5.11.11 5.72-1.016 5.72-2.03m0 0"/><path id="c" d="M3.813-1.234v-.532h-.47v.516c0 .672-.327.906-.609.906-.578 0-.578-.64-.578-.86v-2.75h1.469v-.468H2.156v-1.906h-.469c0 1-.484 1.984-1.484 2.016v.359h.828v2.734c0 1.063.86 1.282 1.578 1.282.75 0 1.204-.579 1.204-1.297m0 0"/><path id="d" d="M5.516-.234c0-.235-.125-.235-.266-.235-.61-.015-.61-.14-.61-.375v-2.14c0-.891-.702-1.532-2.187-1.532-.562 0-1.781.047-1.781.922 0 .438.344.625.61.625.312 0 .624-.219.624-.625 0-.297-.187-.469-.218-.5a5 5 0 0 1 .718-.062c.75 0 1.11.422 1.11 1.172v.343c-.72.032-3.25.125-3.25 1.563C.266-.125 1.5.062 2.188.062c.796 0 1.265-.406 1.484-.828 0 .313 0 .766 1.047.766h.468c.204 0 .329 0 .329-.234m-2-1.157c0 .97-.922 1.094-1.172 1.094-.516 0-.906-.344-.906-.797 0-1.062 1.578-1.203 2.078-1.234Zm0 0"/><path id="e" d="M4.406-3.672c0-.531-.531-.812-1.062-.812-.688 0-1.094.5-1.313 1.125v-1.125l-1.656.078v.468c.61 0 .688 0 .688.391v3.078H.375V0l1.25-.031C2-.031 2.641-.031 3 0v-.469h-.86v-1.75c0-.687.235-1.906 1.235-1.906 0 0-.187.172-.187.453 0 .406.328.61.609.61.297 0 .61-.204.61-.61m0 0"/><path id="f" d="M5.984-2.219c0-1.328-.937-2.265-2.39-2.265-.719 0-1.219.28-1.453.484v-2.922l-1.766.078v.469c.61 0 .688 0 .688.39V0h.468c.157-.187.328-.375.485-.562.078.078.562.625 1.453.625 1.484 0 2.515-.907 2.515-2.282m-1.28 0c0 .469 0 1.016-.25 1.406-.298.407-.75.516-1.079.516-.687 0-1.078-.547-1.187-.687v-2.5c.28-.36.75-.641 1.296-.641 1.22 0 1.22 1.203 1.22 1.906m0 0"/><path id="g" d="M6.125 0v-.469c-.61 0-.687 0-.687-.39v-3.625l-1.813.078v.468c.61 0 .688 0 .688.391v1.906c0 .813-.516 1.344-1.235 1.344-.781 0-.812-.25-.812-.797v-3.39l-1.813.078v.468c.61 0 .688 0 .688.391v2.328c0 1.063.797 1.282 1.797 1.282.25 0 .968 0 1.421-.782v.782Zm0 0"/><path id="h" d="M4.14-1.39c0-.438-.202-.782-.546-1.063-.39-.281-.719-.344-1.485-.485-.375-.062-1.015-.171-1.015-.64 0-.625.922-.625 1.11-.625.75 0 1.124.297 1.171.844.016.156.031.203.234.203.235 0 .235-.047.235-.281v-.797c0-.188 0-.282-.172-.282-.047 0-.063 0-.453.188-.266-.125-.61-.188-1-.188-.313 0-1.844 0-1.844 1.313 0 .39.203.656.406.828.39.344.782.406 1.547.547.36.062 1.094.187 1.094.781 0 .75-.906.75-1.125.75C1.234-.297.984-1.03.859-1.453c-.046-.14-.109-.14-.234-.14-.25 0-.25.062-.25.28v1.094c0 .188 0 .282.188.282.062 0 .078 0 .296-.157l.25-.172c.47.329.985.329 1.188.329.312 0 1.844 0 1.844-1.454m0 0"/><path id="i" d="M3.078.313c0-.125-.047-.157-.187-.25C2.063-.5 1.75-1.391 1.75-2.125c0-.672.25-1.594 1.156-2.203.125-.094.172-.125.172-.25a.254.254 0 0 0-.265-.25c-.204 0-1.641.906-1.641 2.703 0 .813.312 1.438.562 1.781.375.516.907.907 1.079.907.218 0 .265-.172.265-.25m0 0"/><path id="j" d="M3.219-.906c0-.735-.906-.906-1.14-.938l-.704-.125C1.188-2 1-2.079 1-2.25c0-.156.219-.328.813-.328.515 0 .609.172.625.328.015.14.03.281.28.281.298 0 .298-.156.298-.328v-.469c0-.14-.016-.328-.25-.328-.157 0-.22.063-.25.125-.282-.125-.563-.125-.688-.125-1.187 0-1.344.594-1.344.844 0 .656.735.797 1.391.89.297.063.828.141.828.454 0 .234-.25.422-.828.422-.297 0-.656-.063-.812-.563C1.03-1.203.984-1.28.78-1.28c-.297 0-.297.172-.297.328v.656c0 .14 0 .344.25.344.079 0 .188 0 .282-.234.328.218.672.234.859.234 1.125 0 1.344-.61 1.344-.953m0 0"/><path id="k" d="M2.313-.469a.477.477 0 0 0-.485-.484.47.47 0 0 0-.469.469c0 .28.22.484.47.484a.473.473 0 0 0 .484-.469m0 0"/><path id="l" d="M3.281-1.516c0-.89-.672-1.578-1.453-1.578-.797 0-1.453.688-1.453 1.578S1.047.047 1.828.047c.766 0 1.453-.688 1.453-1.563m-.578-.046c0 .593-.406 1.078-.875 1.078S.953-.97.953-1.562s.422-1.016.875-1.016.875.422.875 1.015m0 0"/><path id="m" d="M3.578-.266c0-.25-.219-.25-.328-.25H3v-2.187c0-.25-.047-.328-.328-.328h-.485c-.14 0-.343 0-.343.25 0 .265.218.265.328.265h.25v1.391c0 .563-.516.64-.719.64-.469 0-.484-.187-.484-.39v-1.828c0-.25-.047-.328-.313-.328h-.5c-.14 0-.328 0-.328.25 0 .265.203.265.313.265h.25v1.688c0 .687.5.875 1.03.875.266 0 .517-.063.767-.219C2.484 0 2.625 0 2.75 0h.5c.125 0 .328 0 .328-.266m0 0"/><path id="n" d="M3.14-.906c0-.156 0-.313-.296-.313-.266 0-.266.157-.266.297-.015.375-.36.438-.515.438-.454 0-.454-.313-.454-.47v-1.562h1.047c.125 0 .328 0 .328-.265 0-.25-.187-.25-.328-.25H1.61v-.516c0-.14-.015-.328-.296-.328-.282 0-.282.172-.282.328v.516H.484c-.125 0-.328 0-.328.25 0 .265.203.265.328.265h.547v1.61c0 .687.485.953 1.016.953S3.14-.266 3.14-.906m0 0"/><path id="o" d="M3.25-.797c0-.234-.234-.234-.281-.234-.156 0-.219.015-.281.172-.141.328-.485.375-.657.375-.469 0-.937-.297-1.062-.813h1.953c.172 0 .328 0 .328-.312 0-.797-.453-1.485-1.375-1.485-.828 0-1.516.703-1.516 1.563S1.08.047 1.984.047c.938 0 1.266-.656 1.266-.844m-.594-1.015H.97c.125-.438.484-.766.906-.766.328 0 .703.156.781.765m0 0"/><path id="p" d="M3.406-2.594c0-.156-.078-.484-.703-.484-.328 0-.734.11-1.094.469v-.094c0-.25-.046-.328-.328-.328h-.75c-.125 0-.328 0-.328.25 0 .265.203.265.328.265h.5v2h-.5c-.125 0-.328 0-.328.25C.203 0 .406 0 .531 0h1.781c.126 0 .329 0 .329-.266 0-.25-.203-.25-.328-.25h-.704v-.796c0-.61.36-1.22 1.11-1.235 0 .156.172.281.344.281.187 0 .343-.125.343-.328m0 0"/><path id="q" d="M3.422-1.516c0-.875-.64-1.562-1.39-1.562-.298 0-.579.11-.813.281 0-.172-.063-.234-.313-.234h-.5c-.14 0-.343 0-.343.25 0 .265.218.265.328.265h.25v3.5H.406c-.14 0-.343 0-.343.266 0 .25.218.25.328.25h1.093c.11 0 .329 0 .329-.25 0-.266-.204-.266-.344-.266h-.25V-.234c.265.234.531.28.734.28.766 0 1.469-.671 1.469-1.562m-.578 0c0 .61-.453 1.032-.906 1.032-.485 0-.704-.563-.704-.875v-.485c0-.375.375-.703.766-.703.469 0 .844.469.844 1.031m0 0"/><path id="r" d="M3.188-.266c0-.25-.204-.25-.329-.25h-.656v-2.187c0-.25-.047-.328-.328-.328H.906c-.125 0-.328 0-.328.25 0 .265.203.265.328.265h.719v2H.859c-.14 0-.343 0-.343.25C.516 0 .734 0 .859 0h2c.125 0 .329 0 .329-.266m-.954-3.562a.39.39 0 0 0-.406-.39.387.387 0 0 0-.39.39c0 .219.171.39.39.39a.39.39 0 0 0 .406-.39m0 0"/><path id="s" d="M3.578-.266c0-.25-.203-.25-.328-.25H3v-1.53c0-.72-.36-1.032-.937-1.032-.391 0-.672.172-.844.297 0-.172-.047-.25-.313-.25h-.5c-.14 0-.328 0-.328.25 0 .265.203.265.313.265h.25v2H.406c-.14 0-.328 0-.328.25C.078 0 .281 0 .391 0h1.093c.11 0 .329 0 .329-.266 0-.25-.204-.25-.344-.25h-.25v-1.156c0-.64.484-.875.797-.875.328 0 .406.172.406.547v1.484h-.203c-.14 0-.344 0-.344.25 0 .266.219.266.344.266H3.25c.11 0 .328 0 .328-.266m0 0"/><path id="t" d="M3.094-.266c0-.25-.188-.25-.313-.25H2.22V-4c0-.125-.016-.328-.266-.328-.156 0-.219.094-.25.187-.234.547-.578.625-.687.641-.141 0-.313.031-.313.266 0 .203.156.25.281.25s.375-.032.657-.235v2.703h-.563c-.14 0-.328 0-.328.25C.75 0 .953 0 1.078 0h1.703c.125 0 .313 0 .313-.266m0 0"/><path id="u" d="M2.484-2.125c0-.828-.312-1.453-.562-1.797-.375-.515-.906-.906-1.078-.906-.203 0-.266.187-.266.25 0 .125.094.187.14.219 1.095.718 1.188 1.797 1.188 2.234 0 .656-.25 1.578-1.14 2.188C.64.14.578.188.578.313c0 .078.063.25.266.25s1.64-.907 1.64-2.688m0 0"/><path id="v" d="M3.297-.328v-.188c0-.156 0-.328-.266-.328-.265 0-.297.125-.297.328H1.313c.406-.343.968-.796 1.234-1.03.437-.391.75-.845.75-1.407 0-.844-.703-1.375-1.563-1.375-.828 0-1.39.578-1.39 1.187 0 .297.234.375.36.375.171 0 .359-.14.359-.359a.35.35 0 0 0-.094-.234c.11-.266.39-.453.734-.453.531 0 1.031.296 1.031.859 0 .453-.328.844-.765 1.203L.469-.484C.39-.422.344-.391.344-.266.344 0 .547 0 .672 0h2.312c.266 0 .313-.062.313-.328m0 0"/><path id="w" d="M3.36-1.234c0-.47-.297-.875-.72-1.094.344-.25.516-.64.516-1 0-.516-.515-1-1.328-1-.86 0-1.344.36-1.344.844 0 .265.204.375.36.375.172 0 .36-.141.36-.36 0-.078-.032-.14-.048-.172.203-.171.625-.171.688-.171.422 0 .734.218.734.5a.72.72 0 0 1-.25.546c-.219.172-.375.188-.61.188-.437 0-.546.062-.546.281 0 .266.203.266.328.266h.313c.64 0 .968.422.968.797 0 .39-.36.78-.937.78-.25 0-.719-.062-.907-.327A.36.36 0 0 0 1-1a.363.363 0 0 0-.36-.36c-.171 0-.343.126-.343.391C.297-.344.969.078 1.844.078c.922 0 1.515-.656 1.515-1.312m0 0"/><path id="x" d="M3.469-1.406c0-.266-.203-.266-.328-.266h-.485V-4c0-.266-.047-.344-.328-.344h-.187c-.188 0-.235.016-.328.172L.266-1.734c-.079.093-.079.109-.079.265 0 .266.079.313.329.313h1.656v.64h-.36c-.14 0-.328 0-.328.25 0 .266.188.266.329.266H3.03c.125 0 .328 0 .328-.266 0-.25-.203-.25-.328-.25h-.375v-.64h.485c.125 0 .328 0 .328-.25m-1.313-.266H.812l1.344-2.125Zm0 0"/><path id="y" d="M3.297-1.344c0-.718-.531-1.406-1.36-1.406-.234 0-.515.047-.78.172v-1.156H2.75c.11 0 .313-.016.313-.266s-.188-.266-.313-.266H.906c-.265 0-.312.079-.312.344v1.797c0 .156 0 .344.265.344.157 0 .188-.047.25-.125.172-.203.438-.328.813-.328.531 0 .812.484.812.89 0 .516-.468.89-1 .89-.171 0-.562-.046-.75-.358.032-.047.079-.11.079-.22a.367.367 0 0 0-.36-.374c-.125 0-.36.078-.36.39C.344-.437.939.078 1.735.078c.875 0 1.563-.64 1.563-1.422m0 0"/><path id="z" d="M3.297-1.36c0-.812-.625-1.437-1.39-1.437-.329 0-.657.094-.938.313.125-.828.703-1.328 1.25-1.328.156 0 .25.03.297.062-.032.047-.047.094-.047.188 0 .203.14.359.36.359.202 0 .358-.14.358-.375 0-.36-.265-.75-.968-.75-.922 0-1.86.844-1.86 2.25C.36-.422 1.156.078 1.844.078c.765 0 1.453-.594 1.453-1.437m-.578 0a.88.88 0 0 1-.875.907c-.422 0-.672-.313-.797-.703C1-1.313 1-1.484 1-1.563c0-.39.39-.703.875-.703.516 0 .844.422.844.907m0 0"/><path id="B" d="M3.36-4c0-.25-.188-.266-.329-.266H.828c-.062-.093-.187-.109-.25-.109-.281 0-.281.188-.281.344v.281c0 .156 0 .328.281.328.266 0 .281-.125.297-.312h1.61C1.358-2.5 1.155-1.031 1.155-.297c0 .11 0 .375.282.375.14 0 .28-.094.28-.328a4.94 4.94 0 0 1 1.47-3.469c.171-.14.171-.156.171-.281m0 0"/><path id="C" d="M3.36-1.234c0-.485-.376-.875-.844-1.063.484-.203.75-.531.75-.89 0-.579-.594-1.141-1.438-1.141-.86 0-1.437.562-1.437 1.14 0 .36.265.704.734.891-.469.188-.828.578-.828 1.063 0 .687.64 1.312 1.531 1.312S3.36-.547 3.36-1.234m-.672-1.953c0 .359-.407.64-.86.64-.469 0-.86-.281-.86-.64 0-.329.36-.626.86-.626s.86.297.86.626m.093 1.953c0 .437-.422.78-.953.78s-.953-.343-.953-.78c0-.391.36-.797.953-.797.578 0 .953.406.953.797m0 0"/><path id="D" d="M3.297-2.172c0-1.687-.781-2.156-1.453-2.156-.782 0-1.485.578-1.485 1.437 0 .797.61 1.422 1.391 1.422.328 0 .656-.078.953-.312-.125.75-.594 1.328-1.187 1.328-.047 0-.235 0-.375-.063.015-.046.03-.093.03-.187a.337.337 0 0 0-.343-.344c-.203 0-.36.125-.36.375 0 .219.126.75 1.048.75s1.78-.875 1.78-2.25m-.64-.531c0 .36-.344.703-.876.703-.515 0-.86-.422-.86-.89 0-.563.47-.922.923-.922.578 0 .812.64.812 1.109m0 0"/><path id="E" d="M3.266-.797c0-.234-.235-.234-.297-.234-.125 0-.203 0-.266.172-.047.078-.187.375-.625.375a1.027 1.027 0 0 1-1.015-1.032c0-.312.187-1.062 1.062-1.062l.344.015c.015.282.172.376.36.376.187 0 .358-.126.358-.36 0-.531-.734-.547-1.062-.547-1.219 0-1.64.953-1.64 1.578 0 .844.671 1.563 1.546 1.563 1 0 1.235-.719 1.235-.844m0 0"/><path id="F" d="M3.469-.266c0-.25-.203-.25-.328-.25h-.25l-.828-1.046.734-.954h.234c.125 0 .344 0 .344-.265 0-.25-.219-.25-.344-.25H2.25c-.125 0-.328 0-.328.25 0 .203.11.265.281.265l-.39.547-.422-.547c.156 0 .28-.062.28-.265 0-.25-.202-.25-.327-.25H.547c-.125 0-.328 0-.328.25 0 .265.219.265.328.265h.25l.75.954L.75-.516H.516c-.125 0-.344 0-.344.25C.172 0 .39 0 .516 0h.78c.126 0 .329 0 .329-.266 0-.203-.11-.25-.297-.25l.484-.703.5.703c-.187 0-.296.047-.296.25 0 .266.203.266.328.266h.797c.109 0 .328 0 .328-.266m0 0"/><path id="G" d="M3.64-.266c0-.218-.14-.25-.39-.25v-1.593c0-.157-.016-.97-.656-.97a.84.84 0 0 0-.656.313.61.61 0 0 0-.532-.312.88.88 0 0 0-.547.203c-.046-.156-.187-.156-.312-.156H.328c-.125 0-.328 0-.328.25 0 .234.125.265.39.265v2c-.265 0-.39.032-.39.25C0 0 .219 0 .328 0h.594c.125 0 .312 0 .312-.266 0-.218-.109-.25-.359-.25v-1.171c0-.563.234-.86.5-.86.14 0 .203.11.203.5v1.531c-.156 0-.281.032-.281.25 0 .266.187.266.312.266h.516c.125 0 .313 0 .313-.266 0-.218-.126-.25-.376-.25v-1.171c0-.563.25-.86.5-.86.141 0 .204.11.204.5v1.531c-.141 0-.282.032-.282.25 0 .266.204.266.313.266h.5c.125 0 .344 0 .344-.266m0 0"/><path id="H" d="M3.578-.266c0-.25-.203-.25-.328-.25H3v-3.406c0-.25-.047-.344-.328-.344h-.485c-.14 0-.343.016-.343.266s.218.266.328.266h.25v.906a1.26 1.26 0 0 0-.735-.25c-.765 0-1.453.672-1.453 1.562C.234-.64.875.047 1.625.047c.344 0 .61-.14.797-.313.015.188.062.266.328.266h.5c.125 0 .328 0 .328-.266M2.422-1.375c0 .36-.297.89-.781.89-.453 0-.828-.452-.828-1.03 0-.61.437-1.032.89-1.032.406 0 .719.344.719.688Zm0 0"/><path id="I" d="M3.422-1.516c0-.875-.64-1.562-1.39-1.562-.298 0-.579.11-.813.265v-1.109c0-.25-.047-.344-.313-.344h-.5c-.14 0-.343.016-.343.266s.218.266.328.266h.25v3.406C.64-.172.656 0 .938 0c.218 0 .28-.094.28-.234.266.218.532.28.735.28.766 0 1.469-.671 1.469-1.562m-.578 0c0 .61-.453 1.032-.906 1.032-.485 0-.704-.563-.704-.875v-.485c0-.375.375-.703.766-.703.469 0 .844.469.844 1.031m0 0"/><path id="J" d="M3.625-.266c0-.25-.203-.25-.328-.25-.203 0-.297-.03-.344-.046V-2c0-.5-.375-1.094-1.406-1.094-.313 0-1.031.016-1.031.547 0 .235.172.36.359.36.11 0 .344-.063.344-.36 0 0 .234-.031.343-.031.454 0 .782.187.813.594-1.219.03-2.047.39-2.047 1.062 0 .485.453.969 1.188.969.234 0 .656-.047.968-.25.172.187.485.203.75.203.235 0 .391-.016.391-.266M2.359-.969c0 .14 0 .266-.234.375-.234.11-.516.11-.578.11-.39 0-.64-.203-.64-.438 0-.312.546-.515 1.452-.562Zm0 0"/><path id="K" d="M3.313-2.125c0-1.297-.72-2.203-1.485-2.203-.781 0-1.5.922-1.5 2.203 0 1.297.734 2.203 1.5 2.203.781 0 1.485-.922 1.485-2.203m-.563-.078c0 .969-.422 1.75-.922 1.75-.516 0-.922-.781-.922-1.75 0-.953.438-1.61.922-1.61.469 0 .922.657.922 1.61m0 0"/><path id="L" d="M3.578-.266c0-.25-.203-.25-.328-.25H3v-1.53c0-.72-.36-1.032-.937-1.032-.391 0-.672.172-.844.297v-1.14c0-.25-.047-.345-.313-.345h-.5c-.14 0-.328.016-.328.266s.203.266.313.266h.25v3.218H.406c-.14 0-.328 0-.328.25C.078 0 .281 0 .391 0h1.093c.11 0 .329 0 .329-.266 0-.25-.204-.25-.344-.25h-.25v-1.156c0-.64.484-.875.797-.875.328 0 .406.172.406.547v1.484h-.203c-.14 0-.344 0-.344.25 0 .266.219.266.344.266H3.25c.11 0 .328 0 .328-.266m0 0"/><path id="M" d="M3.547-2.781c0-.25-.188-.25-.328-.25h-.781c-.157 0-.344 0-.344.25 0 .265.172.265.344.265h.265l-.297 1.72-.14-.532c-.125-.469-.172-.547-.422-.547-.094 0-.235 0-.328.188l-.266.906-.297-1.735h.266c.156 0 .343 0 .343-.265 0-.25-.187-.25-.343-.25H.437c-.14 0-.343 0-.343.25 0 .234.14.265.36.265L.858-.28c.032.187.047.312.36.312.312 0 .343-.062.453-.515l.172-.641.265 1c.094.14.235.156.344.156.281 0 .313-.125.344-.312l.406-2.235c.219 0 .344-.03.344-.265m0 0"/><clipPath id="a"><path d="M0 0h357.465v345.457H0Zm0 0"/></clipPath><clipPath id="A"><path d="M347 273h10.465v15H347Zm0 0"/></clipPath></defs><path fill="#FFFBB3" d="m193.734 32.926-25.449 75.8-51.851-21.183 12.859 56.473L28.32 153.96l92.133 44.117-40.238 54.527 65.691-6.988 1.684 70.801 46.144-52.023 43.125 43.718 4.707-62.496 91.664 21.985-66.214-69.524 34.257-33.914-43.097-20.148 37.043-85.293-76.035 50.004Zm0 0"/><g clip-path="url(#a)"><path fill="none" stroke="#B2B2B2" stroke-miterlimit="10" stroke-width="14.173" d="m193.734 32.926-25.449 75.8-51.851-21.183 12.859 56.473L28.32 153.96l92.133 44.117-40.238 54.527 65.691-6.988 1.684 70.801 46.144-52.023 43.125 43.718 4.707-62.496 91.664 21.985-66.214-69.524 34.257-33.914-43.097-20.148 37.043-85.293-76.035 50.004Zm0 0"/></g><g fill="#B2B2B2"><use xlink:href="#b" x="169.466" y="212.433"/><use xlink:href="#c" x="175.832" y="212.433"/><use xlink:href="#d" x="180.285" y="212.433"/><use xlink:href="#e" x="185.855" y="212.433"/><use xlink:href="#f" x="190.577" y="212.433"/><use xlink:href="#g" x="196.943" y="212.433"/><use xlink:href="#e" x="203.309" y="212.433"/><use xlink:href="#h" x="208.031" y="212.433"/><use xlink:href="#c" x="212.554" y="212.433"/></g><path fill="none" stroke="#B2B2B2" stroke-miterlimit="10" stroke-width=".996" d="M217.508 212.543v-56.805"/><path fill="none" stroke="#000" stroke-miterlimit="10" stroke-width=".399" d="m192.324 12.066 2.82-2.816m-2.82 0 2.82 2.816"/><use xlink:href="#i" x="162.614" y="5.635"/><use xlink:href="#j" x="166.275" y="5.635"/><use xlink:href="#k" x="169.937" y="5.635"/><use xlink:href="#l" x="173.598" y="5.635"/><use xlink:href="#m" x="177.259" y="5.635"/><use xlink:href="#n" x="180.92" y="5.635"/><use xlink:href="#o" x="184.582" y="5.635"/><use xlink:href="#p" x="188.243" y="5.635"/><use xlink:href="#q" x="195.565" y="5.635"/><use xlink:href="#l" x="199.227" y="5.635"/><use xlink:href="#r" x="202.888" y="5.635"/><use xlink:href="#s" x="206.549" y="5.635"/><use xlink:href="#n" x="210.211" y="5.635"/><use xlink:href="#t" x="217.533" y="5.635"/><use xlink:href="#u" x="221.194" y="5.635"/><path fill="none" stroke="#000" stroke-miterlimit="10" stroke-width=".399" d="m105.09 77.238 2.816-2.82m-2.816 0 2.816 2.82"/><use xlink:href="#i" x="75.379" y="70.803"/><use xlink:href="#j" x="79.04" y="70.803"/><use xlink:href="#k" x="82.702" y="70.803"/><use xlink:href="#l" x="86.363" y="70.803"/><use xlink:href="#m" x="90.024" y="70.803"/><use xlink:href="#n" x="93.685" y="70.803"/><use xlink:href="#o" x="97.347" y="70.803"/><use xlink:href="#p" x="101.008" y="70.803"/><use xlink:href="#q" x="108.33" y="70.803"/><use xlink:href="#l" x="111.992" y="70.803"/><use xlink:href="#r" x="115.653" y="70.803"/><use xlink:href="#s" x="119.314" y="70.803"/><use xlink:href="#n" x="122.976" y="70.803"/><use xlink:href="#v" x="130.298" y="70.803"/><use xlink:href="#u" x="133.959" y="70.803"/><path fill="none" stroke="#000" stroke-miterlimit="10" stroke-width=".399" d="m.965 150.805 2.816-2.82m-2.816 0 2.816 2.82"/><use xlink:href="#i" x="5.895" y="151.054"/><use xlink:href="#j" x="9.556" y="151.054"/><use xlink:href="#k" x="13.218" y="151.054"/><use xlink:href="#l" x="16.879" y="151.054"/><use xlink:href="#m" x="20.54" y="151.054"/><use xlink:href="#n" x="24.201" y="151.054"/><use xlink:href="#o" x="27.863" y="151.054"/><use xlink:href="#p" x="31.524" y="151.054"/><use xlink:href="#q" x="38.846" y="151.054"/><use xlink:href="#l" x="42.508" y="151.054"/><use xlink:href="#r" x="46.169" y="151.054"/><use xlink:href="#s" x="49.83" y="151.054"/><use xlink:href="#n" x="53.492" y="151.054"/><use xlink:href="#w" x="60.814" y="151.054"/><use xlink:href="#u" x="64.475" y="151.054"/><path fill="none" stroke="#000" stroke-miterlimit="10" stroke-width=".399" d="m63.54 262.762 2.815-2.817m-2.816 0 2.816 2.817"/><use xlink:href="#i" x="33.829" y="256.328"/><use xlink:href="#j" x="37.49" y="256.328"/><use xlink:href="#k" x="41.152" y="256.328"/><use xlink:href="#l" x="44.813" y="256.328"/><use xlink:href="#m" x="48.474" y="256.328"/><use xlink:href="#n" x="52.135" y="256.328"/><use xlink:href="#o" x="55.797" y="256.328"/><use xlink:href="#p" x="59.458" y="256.328"/><use xlink:href="#q" x="66.78" y="256.328"/><use xlink:href="#l" x="70.442" y="256.328"/><use xlink:href="#r" x="74.103" y="256.328"/><use xlink:href="#s" x="77.764" y="256.328"/><use xlink:href="#n" x="81.426" y="256.328"/><use xlink:href="#x" x="88.748" y="256.328"/><use xlink:href="#u" x="92.409" y="256.328"/><path fill="none" stroke="#000" stroke-miterlimit="10" stroke-width=".399" d="m139.523 336.012 2.817-2.82m-2.817 0 2.817 2.82"/><use xlink:href="#i" x="109.812" y="342.946"/><use xlink:href="#j" x="113.473" y="342.946"/><use xlink:href="#k" x="117.135" y="342.946"/><use xlink:href="#l" x="120.796" y="342.946"/><use xlink:href="#m" x="124.457" y="342.946"/><use xlink:href="#n" x="128.118" y="342.946"/><use xlink:href="#o" x="131.78" y="342.946"/><use xlink:href="#p" x="135.441" y="342.946"/><use xlink:href="#q" x="142.763" y="342.946"/><use xlink:href="#l" x="146.425" y="342.946"/><use xlink:href="#r" x="150.086" y="342.946"/><use xlink:href="#s" x="153.747" y="342.946"/><use xlink:href="#n" x="157.409" y="342.946"/><use xlink:href="#y" x="164.731" y="342.946"/><use xlink:href="#u" x="168.392" y="342.946"/><path fill="none" stroke="#000" stroke-miterlimit="10" stroke-width=".399" d="m241.348 325.59 2.816-2.817m-2.816 0 2.816 2.817"/><use xlink:href="#i" x="211.634" y="319.153"/><use xlink:href="#j" x="215.295" y="319.153"/><use xlink:href="#k" x="218.957" y="319.153"/><use xlink:href="#l" x="222.618" y="319.153"/><use xlink:href="#m" x="226.279" y="319.153"/><use xlink:href="#n" x="229.94" y="319.153"/><use xlink:href="#o" x="233.602" y="319.153"/><use xlink:href="#p" x="237.263" y="319.153"/><use xlink:href="#q" x="244.585" y="319.153"/><use xlink:href="#l" x="248.247" y="319.153"/><use xlink:href="#r" x="251.908" y="319.153"/><use xlink:href="#s" x="255.569" y="319.153"/><use xlink:href="#n" x="259.231" y="319.153"/><use xlink:href="#z" x="266.553" y="319.153"/><use xlink:href="#u" x="270.214" y="319.153"/><g clip-path="url(#A)"><path fill="none" stroke="#000" stroke-miterlimit="10" stroke-width=".399" d="m353.504 281.496 2.816-2.816m-2.816 0 2.816 2.816"/></g><use xlink:href="#i" x="289.147" y="281.746"/><use xlink:href="#j" x="292.808" y="281.746"/><use xlink:href="#k" x="296.47" y="281.746"/><use xlink:href="#l" x="300.131" y="281.746"/><use xlink:href="#m" x="303.792" y="281.746"/><use xlink:href="#n" x="307.453" y="281.746"/><use xlink:href="#o" x="311.115" y="281.746"/><use xlink:href="#p" x="314.776" y="281.746"/><use xlink:href="#q" x="322.098" y="281.746"/><use xlink:href="#l" x="325.76" y="281.746"/><use xlink:href="#r" x="329.421" y="281.746"/><use xlink:href="#s" x="333.082" y="281.746"/><use xlink:href="#n" x="336.744" y="281.746"/><use xlink:href="#B" x="344.066" y="281.746"/><use xlink:href="#u" x="347.727" y="281.746"/><path fill="none" stroke="#000" stroke-miterlimit="10" stroke-width=".399" d="m312.078 163.46 2.817-2.82m-2.817 0 2.817 2.82"/><use xlink:href="#i" x="282.363" y="157.024"/><use xlink:href="#j" x="286.024" y="157.024"/><use xlink:href="#k" x="289.686" y="157.024"/><use xlink:href="#l" x="293.347" y="157.024"/><use xlink:href="#m" x="297.008" y="157.024"/><use xlink:href="#n" x="300.669" y="157.024"/><use xlink:href="#o" x="304.331" y="157.024"/><use xlink:href="#p" x="307.992" y="157.024"/><use xlink:href="#q" x="315.314" y="157.024"/><use xlink:href="#l" x="318.976" y="157.024"/><use xlink:href="#r" x="322.637" y="157.024"/><use xlink:href="#s" x="326.298" y="157.024"/><use xlink:href="#n" x="329.96" y="157.024"/><use xlink:href="#C" x="337.282" y="157.024"/><use xlink:href="#u" x="340.943" y="157.024"/><path fill="none" stroke="#000" stroke-miterlimit="10" stroke-width=".399" d="m309.785 41.14 2.817-2.816m-2.817 0 2.817 2.817"/><use xlink:href="#i" x="280.071" y="34.709"/><use xlink:href="#j" x="283.732" y="34.709"/><use xlink:href="#k" x="287.394" y="34.709"/><use xlink:href="#l" x="291.055" y="34.709"/><use xlink:href="#m" x="294.716" y="34.709"/><use xlink:href="#n" x="298.377" y="34.709"/><use xlink:href="#o" x="302.039" y="34.709"/><use xlink:href="#p" x="305.7" y="34.709"/><use xlink:href="#q" x="313.022" y="34.709"/><use xlink:href="#l" x="316.684" y="34.709"/><use xlink:href="#r" x="320.345" y="34.709"/><use xlink:href="#s" x="324.006" y="34.709"/><use xlink:href="#n" x="327.668" y="34.709"/><use xlink:href="#D" x="334.99" y="34.709"/><use xlink:href="#u" x="338.651" y="34.709"/><path fill="none" stroke="#000" stroke-miterlimit="10" stroke-width=".399" d="m162.563 100.719 2.816-2.82m-2.816 0 2.816 2.82"/><use xlink:href="#i" x="132.851" y="107.655"/><use xlink:href="#j" x="136.512" y="107.655"/><use xlink:href="#k" x="140.174" y="107.655"/><use xlink:href="#r" x="143.835" y="107.655"/><use xlink:href="#s" x="147.496" y="107.655"/><use xlink:href="#s" x="151.157" y="107.655"/><use xlink:href="#o" x="154.819" y="107.655"/><use xlink:href="#p" x="158.48" y="107.655"/><use xlink:href="#q" x="165.795" y="107.655"/><use xlink:href="#l" x="169.457" y="107.655"/><use xlink:href="#r" x="173.118" y="107.655"/><use xlink:href="#s" x="176.779" y="107.655"/><use xlink:href="#n" x="180.441" y="107.655"/><use xlink:href="#t" x="187.763" y="107.655"/><use xlink:href="#u" x="191.424" y="107.655"/><path fill="none" stroke="#000" stroke-miterlimit="10" stroke-width=".399" d="m119.191 139.156 2.817-2.816m-2.817 0 2.817 2.816"/><use xlink:href="#i" x="89.478" y="132.723"/><use xlink:href="#j" x="93.139" y="132.723"/><use xlink:href="#k" x="96.801" y="132.723"/><use xlink:href="#r" x="100.462" y="132.723"/><use xlink:href="#s" x="104.123" y="132.723"/><use xlink:href="#s" x="107.784" y="132.723"/><use xlink:href="#o" x="111.446" y="132.723"/><use xlink:href="#p" x="115.107" y="132.723"/><use xlink:href="#q" x="122.429" y="132.723"/><use xlink:href="#l" x="126.091" y="132.723"/><use xlink:href="#r" x="129.752" y="132.723"/><use xlink:href="#s" x="133.413" y="132.723"/><use xlink:href="#n" x="137.075" y="132.723"/><use xlink:href="#v" x="144.397" y="132.723"/><use xlink:href="#u" x="148.058" y="132.723"/><path fill="none" stroke="#000" stroke-miterlimit="10" stroke-width=".399" d="m108.254 202.176 2.816-2.82m-2.816 0 2.816 2.82"/><use xlink:href="#i" x="43.901" y="202.426"/><use xlink:href="#j" x="47.562" y="202.426"/><use xlink:href="#k" x="51.224" y="202.426"/><use xlink:href="#r" x="54.885" y="202.426"/><use xlink:href="#s" x="58.546" y="202.426"/><use xlink:href="#s" x="62.207" y="202.426"/><use xlink:href="#o" x="65.869" y="202.426"/><use xlink:href="#p" x="69.53" y="202.426"/><use xlink:href="#q" x="76.845" y="202.426"/><use xlink:href="#l" x="80.507" y="202.426"/><use xlink:href="#r" x="84.168" y="202.426"/><use xlink:href="#s" x="87.829" y="202.426"/><use xlink:href="#n" x="91.491" y="202.426"/><use xlink:href="#w" x="98.813" y="202.426"/><use xlink:href="#u" x="102.474" y="202.426"/><path fill="none" stroke="#000" stroke-miterlimit="10" stroke-width=".399" d="m137.594 254.887 2.816-2.817m-2.816 0 2.816 2.817"/><use xlink:href="#i" x="107.882" y="248.453"/><use xlink:href="#j" x="111.543" y="248.453"/><use xlink:href="#k" x="115.205" y="248.453"/><use xlink:href="#r" x="118.866" y="248.453"/><use xlink:href="#s" x="122.527" y="248.453"/><use xlink:href="#s" x="126.188" y="248.453"/><use xlink:href="#o" x="129.85" y="248.453"/><use xlink:href="#p" x="133.511" y="248.453"/><use xlink:href="#q" x="140.833" y="248.453"/><use xlink:href="#l" x="144.495" y="248.453"/><use xlink:href="#r" x="148.156" y="248.453"/><use xlink:href="#s" x="151.817" y="248.453"/><use xlink:href="#n" x="155.479" y="248.453"/><use xlink:href="#x" x="162.801" y="248.453"/><use xlink:href="#u" x="166.462" y="248.453"/><path fill="none" stroke="#000" stroke-miterlimit="10" stroke-width=".399" d="m192.602 276.176 2.816-2.82m-2.816 0 2.816 2.82"/><use xlink:href="#i" x="162.889" y="269.738"/><use xlink:href="#j" x="166.55" y="269.738"/><use xlink:href="#k" x="170.212" y="269.738"/><use xlink:href="#r" x="173.873" y="269.738"/><use xlink:href="#s" x="177.534" y="269.738"/><use xlink:href="#s" x="181.195" y="269.738"/><use xlink:href="#o" x="184.857" y="269.738"/><use xlink:href="#p" x="188.518" y="269.738"/><use xlink:href="#q" x="195.833" y="269.738"/><use xlink:href="#l" x="199.495" y="269.738"/><use xlink:href="#r" x="203.156" y="269.738"/><use xlink:href="#s" x="206.817" y="269.738"/><use xlink:href="#n" x="210.479" y="269.738"/><use xlink:href="#y" x="217.801" y="269.738"/><use xlink:href="#u" x="221.462" y="269.738"/><path fill="none" stroke="#000" stroke-miterlimit="10" stroke-width=".399" d="m246.598 255.86 2.82-2.817m-2.82 0 2.82 2.816"/><use xlink:href="#i" x="216.886" y="249.425"/><use xlink:href="#j" x="220.547" y="249.425"/><use xlink:href="#k" x="224.209" y="249.425"/><use xlink:href="#r" x="227.87" y="249.425"/><use xlink:href="#s" x="231.531" y="249.425"/><use xlink:href="#s" x="235.192" y="249.425"/><use xlink:href="#o" x="238.854" y="249.425"/><use xlink:href="#p" x="242.515" y="249.425"/><use xlink:href="#q" x="249.837" y="249.425"/><use xlink:href="#l" x="253.499" y="249.425"/><use xlink:href="#r" x="257.16" y="249.425"/><use xlink:href="#s" x="260.821" y="249.425"/><use xlink:href="#n" x="264.483" y="249.425"/><use xlink:href="#z" x="271.805" y="249.425"/><use xlink:href="#u" x="275.466" y="249.425"/><path fill="none" stroke="#000" stroke-miterlimit="10" stroke-width=".399" d="m275.531 199.633 2.82-2.82m-2.82 0 2.82 2.82"/><use xlink:href="#i" x="245.82" y="206.568"/><use xlink:href="#j" x="249.481" y="206.568"/><use xlink:href="#k" x="253.143" y="206.568"/><use xlink:href="#r" x="256.804" y="206.568"/><use xlink:href="#s" x="260.465" y="206.568"/><use xlink:href="#s" x="264.126" y="206.568"/><use xlink:href="#o" x="267.788" y="206.568"/><use xlink:href="#p" x="271.449" y="206.568"/><use xlink:href="#q" x="278.771" y="206.568"/><use xlink:href="#l" x="282.433" y="206.568"/><use xlink:href="#r" x="286.094" y="206.568"/><use xlink:href="#s" x="289.755" y="206.568"/><use xlink:href="#n" x="293.417" y="206.568"/><use xlink:href="#B" x="300.739" y="206.568"/><use xlink:href="#u" x="304.4" y="206.568"/><path fill="none" stroke="#000" stroke-miterlimit="10" stroke-width=".399" d="m266.016 141.922 2.816-2.817m-2.816 0 2.816 2.817"/><use xlink:href="#i" x="236.301" y="135.488"/><use xlink:href="#j" x="239.962" y="135.488"/><use xlink:href="#k" x="243.624" y="135.488"/><use xlink:href="#r" x="247.285" y="135.488"/><use xlink:href="#s" x="250.946" y="135.488"/><use xlink:href="#s" x="254.607" y="135.488"/><use xlink:href="#o" x="258.269" y="135.488"/><use xlink:href="#p" x="261.93" y="135.488"/><use xlink:href="#q" x="269.252" y="135.488"/><use xlink:href="#l" x="272.914" y="135.488"/><use xlink:href="#r" x="276.575" y="135.488"/><use xlink:href="#s" x="280.236" y="135.488"/><use xlink:href="#n" x="283.898" y="135.488"/><use xlink:href="#C" x="291.22" y="135.488"/><use xlink:href="#u" x="294.881" y="135.488"/><path fill="none" stroke="#000" stroke-miterlimit="10" stroke-width=".399" d="m221.566 99.16 2.82-2.82m-2.82 0 2.82 2.82"/><use xlink:href="#i" x="191.855" y="106.097"/><use xlink:href="#j" x="195.516" y="106.097"/><use xlink:href="#k" x="199.178" y="106.097"/><use xlink:href="#r" x="202.839" y="106.097"/><use xlink:href="#s" x="206.5" y="106.097"/><use xlink:href="#s" x="210.161" y="106.097"/><use xlink:href="#o" x="213.823" y="106.097"/><use xlink:href="#p" x="217.484" y="106.097"/><use xlink:href="#q" x="224.806" y="106.097"/><use xlink:href="#l" x="228.468" y="106.097"/><use xlink:href="#r" x="232.129" y="106.097"/><use xlink:href="#s" x="235.79" y="106.097"/><use xlink:href="#n" x="239.452" y="106.097"/><use xlink:href="#D" x="246.774" y="106.097"/><use xlink:href="#u" x="250.435" y="106.097"/><path fill="none" stroke="#000" stroke-miterlimit="10" stroke-width=".399" d="m192.324 185.55 2.82-2.82m-2.82 0 2.82 2.82"/><use xlink:href="#i" x="175.429" y="180.063"/><use xlink:href="#j" x="179.09" y="180.063"/><use xlink:href="#k" x="182.752" y="180.063"/><use xlink:href="#E" x="186.413" y="180.063"/><use xlink:href="#o" x="190.074" y="180.063"/><use xlink:href="#s" x="193.735" y="180.063"/><use xlink:href="#n" x="197.397" y="180.063"/><use xlink:href="#o" x="201.058" y="180.063"/><use xlink:href="#p" x="204.719" y="180.063"/><use xlink:href="#u" x="208.38" y="180.063"/><path fill="none" stroke="#000" stroke-miterlimit="10" stroke-width=".399" d="m168.059 213.844 2.816-2.82m-2.816 0 2.816 2.82"/><use xlink:href="#i" x="136.656" y="214.567"/><use xlink:href="#j" x="140.317" y="214.567"/><use xlink:href="#k" x="143.979" y="214.567"/><use xlink:href="#n" x="147.64" y="214.567"/><use xlink:href="#o" x="151.301" y="214.567"/><use xlink:href="#F" x="154.962" y="214.567"/><use xlink:href="#n" x="158.624" y="214.567"/><use xlink:href="#u" x="162.285" y="214.567"/><path fill="none" stroke="#000" stroke-miterlimit="10" stroke-width=".399" d="m192.324 211.629 2.82-2.816m-2.82 0 2.82 2.816"/><use xlink:href="#i" x="197.255" y="212.355"/><use xlink:href="#j" x="200.916" y="212.355"/><use xlink:href="#k" x="204.578" y="212.355"/><use xlink:href="#G" x="208.239" y="212.355"/><use xlink:href="#r" x="211.9" y="212.355"/><use xlink:href="#H" x="215.561" y="212.355"/><use xlink:href="#u" x="219.223" y="212.355"/><path fill="none" stroke="#000" stroke-miterlimit="10" stroke-width=".399" d="m192.324 213.844 2.82-2.82m-2.82 0 2.82 2.82"/><use xlink:href="#i" x="179.09" y="220.778"/><use xlink:href="#j" x="182.751" y="220.778"/><use xlink:href="#k" x="186.413" y="220.778"/><use xlink:href="#I" x="190.074" y="220.778"/><use xlink:href="#J" x="193.735" y="220.778"/><use xlink:href="#j" x="197.396" y="220.778"/><use xlink:href="#o" x="201.058" y="220.778"/><use xlink:href="#u" x="204.719" y="220.778"/><path fill="none" stroke="#000" stroke-miterlimit="10" stroke-width=".399" d="m212.383 71.793 2.82-2.82m-2.82 0 2.82 2.82"/><use xlink:href="#i" x="202.809" y="66.306"/><use xlink:href="#j" x="206.47" y="66.306"/><use xlink:href="#k" x="210.132" y="66.306"/><use xlink:href="#C" x="213.793" y="66.306"/><use xlink:href="#K" x="217.454" y="66.306"/><use xlink:href="#u" x="221.115" y="66.306"/><path fill="none" stroke="#000" stroke-miterlimit="10" stroke-width=".399" d="m192.328 12.055 2.817-2.82m-2.817 0 2.817 2.82"/><use xlink:href="#i" x="177.261" y="18.992"/><use xlink:href="#j" x="180.922" y="18.992"/><use xlink:href="#k" x="184.584" y="18.992"/><use xlink:href="#s" x="188.245" y="18.992"/><use xlink:href="#l" x="191.906" y="18.992"/><use xlink:href="#p" x="195.567" y="18.992"/><use xlink:href="#n" x="199.229" y="18.992"/><use xlink:href="#L" x="202.89" y="18.992"/><use xlink:href="#u" x="206.551" y="18.992"/><path fill="none" stroke="#000" stroke-miterlimit="10" stroke-width=".399" d="m192.324 276.484 2.82-2.82m-2.82 0 2.82 2.82"/><use xlink:href="#i" x="177.259" y="283.419"/><use xlink:href="#j" x="180.92" y="283.419"/><use xlink:href="#k" x="184.582" y="283.419"/><use xlink:href="#j" x="188.243" y="283.419"/><use xlink:href="#l" x="191.904" y="283.419"/><use xlink:href="#m" x="195.565" y="283.419"/><use xlink:href="#n" x="199.227" y="283.419"/><use xlink:href="#L" x="202.888" y="283.419"/><use xlink:href="#u" x="206.549" y="283.419"/><path fill="none" stroke="#000" stroke-miterlimit="10" stroke-width=".399" d="m289.77 185.547 2.82-2.817m-2.82 0 2.82 2.817"/><use xlink:href="#i" x="258.369" y="186.272"/><use xlink:href="#j" x="262.03" y="186.272"/><use xlink:href="#k" x="265.692" y="186.272"/><use xlink:href="#o" x="269.353" y="186.272"/><use xlink:href="#J" x="273.014" y="186.272"/><use xlink:href="#j" x="276.675" y="186.272"/><use xlink:href="#n" x="280.337" y="186.272"/><use xlink:href="#u" x="283.998" y="186.272"/><path fill="none" stroke="#000" stroke-miterlimit="10" stroke-width=".399" d="m73.531 185.55 2.82-2.816m-2.82 0 2.82 2.817"/><use xlink:href="#i" x="78.463" y="186.276"/><use xlink:href="#j" x="82.124" y="186.276"/><use xlink:href="#k" x="85.786" y="186.276"/><use xlink:href="#M" x="89.447" y="186.276"/><use xlink:href="#o" x="93.108" y="186.276"/><use xlink:href="#j" x="96.769" y="186.276"/><use xlink:href="#n" x="100.431" y="186.276"/><use xlink:href="#u" x="104.092" y="186.276"/><path fill="none" stroke="#000" stroke-miterlimit="10" stroke-width=".399" d="m289.098 88.777 2.82-2.82m-2.82 0 2.82 2.82"/><use xlink:href="#i" x="264.878" y="95.715"/><use xlink:href="#j" x="268.539" y="95.715"/><use xlink:href="#k" x="272.201" y="95.715"/><use xlink:href="#s" x="275.862" y="95.715"/><use xlink:href="#l" x="279.523" y="95.715"/><use xlink:href="#p" x="283.184" y="95.715"/><use xlink:href="#n" x="286.846" y="95.715"/><use xlink:href="#L" x="290.507" y="95.715"/><use xlink:href="#o" x="297.829" y="95.715"/><use xlink:href="#J" x="301.491" y="95.715"/><use xlink:href="#j" x="305.152" y="95.715"/><use xlink:href="#n" x="308.813" y="95.715"/><use xlink:href="#u" x="312.475" y="95.715"/><path fill="none" stroke="#000" stroke-miterlimit="10" stroke-width=".399" d="m121.25 256.625 2.816-2.816m-2.816 0 2.816 2.816"/><use xlink:href="#i" x="97.03" y="263.562"/><use xlink:href="#j" x="100.691" y="263.562"/><use xlink:href="#k" x="104.353" y="263.562"/><use xlink:href="#j" x="108.014" y="263.562"/><use xlink:href="#l" x="111.675" y="263.562"/><use xlink:href="#m" x="115.336" y="263.562"/><use xlink:href="#n" x="118.998" y="263.562"/><use xlink:href="#L" x="122.659" y="263.562"/><use xlink:href="#M" x="129.981" y="263.562"/><use xlink:href="#o" x="133.643" y="263.562"/><use xlink:href="#j" x="137.304" y="263.562"/><use xlink:href="#n" x="140.965" y="263.562"/><use xlink:href="#u" x="144.627" y="263.562"/><path fill="none" stroke="#000" stroke-miterlimit="10" stroke-width=".399" d="m267.7 260.922 2.82-2.817m-2.82 0 2.82 2.817"/><use xlink:href="#i" x="243.48" y="267.858"/><use xlink:href="#j" x="247.141" y="267.858"/><use xlink:href="#k" x="250.803" y="267.858"/><use xlink:href="#j" x="254.464" y="267.858"/><use xlink:href="#l" x="258.125" y="267.858"/><use xlink:href="#m" x="261.786" y="267.858"/><use xlink:href="#n" x="265.448" y="267.858"/><use xlink:href="#L" x="269.109" y="267.858"/><use xlink:href="#o" x="276.424" y="267.858"/><use xlink:href="#J" x="280.093" y="267.858"/><use xlink:href="#j" x="283.754" y="267.858"/><use xlink:href="#n" x="287.415" y="267.858"/><use xlink:href="#u" x="291.077" y="267.858"/><path fill="none" stroke="#000" stroke-miterlimit="10" stroke-width=".399" d="m111.305 104.527 2.816-2.82m-2.816 0 2.816 2.82"/><use xlink:href="#i" x="87.084" y="111.464"/><use xlink:href="#j" x="90.745" y="111.464"/><use xlink:href="#k" x="94.407" y="111.464"/><use xlink:href="#s" x="98.068" y="111.464"/><use xlink:href="#l" x="101.729" y="111.464"/><use xlink:href="#p" x="105.39" y="111.464"/><use xlink:href="#n" x="109.052" y="111.464"/><use xlink:href="#L" x="112.713" y="111.464"/><use xlink:href="#M" x="120.035" y="111.464"/><use xlink:href="#o" x="123.697" y="111.464"/><use xlink:href="#j" x="127.358" y="111.464"/><use xlink:href="#n" x="131.019" y="111.464"/><use xlink:href="#u" x="134.681" y="111.464"/></svg>