<svg xmlns="http://www.w3.org/2000/svg" xmlns:xlink="http://www.w3.org/1999/xlink" width="32.24" height="110.18"><defs><path id="a" d="M5.156-2.219h-.468c-.032.203-.125.844-.266.906-.11.063-.86.063-1.016.063H1.937c.47-.39 1-.812 1.438-1.14 1.14-.844 1.781-1.313 1.781-2.25 0-1.157-1.047-1.891-2.437-1.891-1.219 0-2.156.625-2.156 1.515 0 .594.484.735.718.735C1.61-4.281 2-4.5 2-5c0-.516-.422-.672-.562-.719.28-.234.671-.343 1.03-.343.845 0 1.313.671 1.313 1.421 0 .688-.375 1.375-1.078 2.079l-2 2.046c-.14.11-.14.141-.14.344V0h4.28Zm0 0"/><path id="b" d="M5.25-1.86c0-1.077-.844-1.546-1.328-1.827.687-.36 1-.797 1-1.376 0-1.015-.906-1.468-2.047-1.468-1.375 0-2.078.797-2.078 1.75 0 .437.187 1.062.953 1.5C.922-2.906.484-2.344.484-1.61.484-.406 1.563.109 2.844.109 4.438.11 5.25-.766 5.25-1.859M4.172-5.046c0 .484-.25.813-.688 1.11l-1.5-.844c-.156-.078-.437-.25-.437-.594 0-.703.89-.766 1.297-.766.828 0 1.328.407 1.328 1.094m.219 3.734c0 .829-.938 1-1.516 1-.969 0-1.547-.515-1.547-1.296 0-.766.531-1.203.89-1.407l1.36.766c.438.25.813.453.813.938m0 0"/><path id="c" d="M5.25-3.281c0-.672 0-3.25-2.375-3.25-1.406 0-2.39.812-2.39 2.14 0 1.375.984 2.125 2.203 2.125.359 0 .828-.062 1.203-.765v.219c0 .734-.094 1.312-.235 1.656-.172.39-.61.843-1.297.843-.171 0-.53-.03-.828-.218.11-.031.485-.172.485-.625 0-.344-.235-.625-.625-.625-.391 0-.625.265-.625.64 0 .688.515 1.25 1.609 1.25C3.672.11 5.25-.734 5.25-3.28m-1.375-.985c0 .625-.25 1.641-1.094 1.641-.953 0-.953-.75-.953-1.734 0-.985 0-1.782 1.078-1.782.578 0 .813.532.86.625.109.329.109.907.109 1.25m0 0"/><path id="d" d="M5.25-1.797c0-.547-.297-1.406-1.734-1.719.687-.203 1.406-.765 1.406-1.625 0-.765-.75-1.39-2.156-1.39-1.188 0-1.97.64-1.97 1.437 0 .422.313.703.688.703a.67.67 0 0 0 .704-.687c0-.578-.547-.688-.579-.703.344-.282.782-.36 1.094-.36.828 0 .86.641.86.97 0 .124-.016 1.437-1.047 1.5-.407.015-.438.015-.485.03-.094.016-.125.11-.125.172 0 .172.11.172.282.172h.437c1.094 0 1.094.985 1.094 1.5 0 .469 0 1.485-1.031 1.485-.266 0-.782-.047-1.266-.344C1.75-.75 2-1 2-1.406c0-.453-.312-.75-.75-.75-.422 0-.766.265-.766.765 0 .907.97 1.5 2.25 1.5 1.782 0 2.516-1 2.516-1.906m0 0"/><path id="e" d="M5.281-3.187c0-.954-.015-3.344-2.422-3.344S.453-4.156.453-3.188c0 1 0 3.297 2.406 3.297 2.391 0 2.422-2.296 2.422-3.296M4-3.297c0 .563 0 1.469-.078 1.985-.14.921-.766 1.062-1.063 1.062-.359 0-.921-.219-1.046-.953-.094-.516-.094-1.547-.094-2.094 0-.719 0-1.375.078-1.89.125-.891.828-.985 1.062-.985.375 0 .782.188.97.625C4-5.172 4-4.109 4-3.297m0 0"/><path id="f" d="M4.922 0v-.469h-1.39v-5.734c0-.234 0-.328-.266-.328-.11 0-.125 0-.22.078-.765.562-1.796.562-2 .562H.845v.47h.203c.156 0 .703-.016 1.297-.204v5.156H.954V0c.437-.031 1.5-.031 1.984-.031s1.546 0 1.984.031m0 0"/><path id="g" d="m4.375 6.734 2.406-.312V.39h-.468v1.078H.468V.39H0c.031.375.031 1.39.031 1.828 0 .484 0 1.562-.031 2.015h.469V2.875h2.687v.5c0 .969-.422 1.047-1.156 1.047v.469h2.797v-.47c-.734 0-1.172-.077-1.172-1.046v-.5h2.688v1.406c0 1.594-.766 1.828-1.938 1.985Zm0 0"/><path id="h" d="M1.172 4.922c.172 0 .172-.188.172-.234 0-.172-.047-.188-.203-.25-.485-.204-.797-.782-.797-1.422 0-1.407 1.328-1.422 1.828-1.422v3.015c0 .22 0 .313.265.313.313 0 1.047-.063 1.547-.563.36-.359.532-.89.532-1.578C4.516 1.187 3.484.313 2.25.313c-1.344 0-2.312 1-2.312 2.609 0 1.578 1.062 2 1.234 2M2.5 3.984v-2.39c.39.015.813.031 1.14.234.391.266.516.672.516.953 0 1.172-1.312 1.188-1.656 1.203m0 0"/><path id="i" d="M2.219 5.984c1.328 0 2.265-.937 2.265-2.39 0-.719-.28-1.219-.484-1.453h2.922L6.844.375h-.469c0 .61 0 .688-.39.688H0v.468c.188.157.375.328.563.485-.079.078-.625.562-.625 1.453 0 1.484.906 2.515 2.28 2.515m0-1.28c-.469 0-1.016 0-1.406-.25-.407-.298-.516-.75-.516-1.079 0-.687.547-1.078.687-1.187h2.5c.36.28.641.75.641 1.296 0 1.22-1.203 1.22-1.906 1.22m0 0"/><path id="j" d="M3.672 4.406c.531 0 .812-.531.812-1.062 0-.688-.5-1.094-1.125-1.313h1.125L4.406.375h-.468c0 .61 0 .688-.391.688H.469V.375H0l.031 1.25C.031 2 .031 2.641 0 3h.469v-.86h1.75c.687 0 1.906.235 1.906 1.235 0 0-.172-.187-.453-.187-.406 0-.61.328-.61.609 0 .297.204.61.61.61m0 0"/><path id="k" d="M0 6.125h.469c0-.61 0-.687.39-.687h3.625l-.078-1.813h-.468c0 .61 0 .688-.391.688H1.64c-.813 0-1.344-.516-1.344-1.235 0-.781.25-.812.797-.812h3.39L4.406.453h-.468c0 .61 0 .688-.391.688H1.219c-1.063 0-1.281.797-1.281 1.797 0 .25 0 .968.78 1.421h-.78Zm0 0"/><path id="l" d="M.234 5.516c.235 0 .235-.125.235-.266.015-.61.14-.61.375-.61h2.14c.891 0 1.532-.702 1.532-2.187 0-.562-.047-1.781-.922-1.781a.6.6 0 0 0-.625.61c0 .312.219.624.625.624.297 0 .469-.187.5-.218.047.28.062.609.062.718 0 .75-.422 1.11-1.172 1.11h-.343c-.032-.72-.125-3.25-1.563-3.25-.953 0-1.14 1.234-1.14 1.922 0 .796.406 1.265.828 1.484-.313 0-.766 0-.766 1.047v.468c0 .204 0 .329.234.329m1.157-2c-.97 0-1.094-.922-1.094-1.172 0-.516.344-.906.797-.906 1.062 0 1.203 1.578 1.234 2.078Zm0 0"/><path id="m" d="M3.953 5.781h.469A13 13 0 0 1 4.39 5l.03-.906h-.468s0 .468-.11.468L3.72 4.5 1.266 3.36l2.687-1.266v.531h.469L4.39 1.391 4.42.266h-.468V.89L0 2.766l-.484-.235c-.47-.219-1.157-.531-1.157-1.25 0-.14.016-.156.047-.234.032.094.172.312.532.312.328 0 .562-.234.562-.578A.553.553 0 0 0-1.078.22C-1.578.219-2 .688-2 1.28c0 .766.625 1.344 1.188 1.625l4.562 2.14c.14.063.203.095.203.735m0 0"/></defs><use xlink:href="#a" x=".125" y="7.124"/><use xlink:href="#b" x="5.854" y="7.124"/><use xlink:href="#a" x=".125" y="20.394"/><use xlink:href="#c" x="5.854" y="20.394"/><use xlink:href="#d" x=".125" y="33.665"/><use xlink:href="#e" x="5.854" y="33.665"/><use xlink:href="#d" x=".125" y="46.935"/><use xlink:href="#f" x="5.854" y="46.935"/><use xlink:href="#g" x="23.948" y="63.735"/><use xlink:href="#h" x="23.948" y="69.992"/><use xlink:href="#i" x="23.948" y="75.242"/><use xlink:href="#j" x="23.948" y="81.608"/><use xlink:href="#k" x="23.948" y="86.33"/><use xlink:href="#l" x="23.948" y="92.696"/><use xlink:href="#j" x="23.948" y="98.266"/><use xlink:href="#m" x="23.948" y="102.988"/><use xlink:href="#f" x="5.853" y="70.168"/><use xlink:href="#a" x="5.853" y="83.438"/><use xlink:href="#d" x="5.853" y="96.708"/></svg>