<svg xmlns="http://www.w3.org/2000/svg" xmlns:xlink="http://www.w3.org/1999/xlink" width="207.488" height="110.865"><defs><path id="a" d="M5.563-1.812c.14 0 .312 0 .312-.172 0-.188-.172-.188-.312-.188H1c-.125 0-.297 0-.297.188 0 .172.172.172.297.172Zm0 0"/><path id="b" d="M2.25-1.625c.125-.125.453-.39.594-.5.484-.453.953-.89.953-1.61 0-.953-.797-1.562-1.781-1.562-.97 0-1.594.719-1.594 1.438 0 .39.312.437.422.437.172 0 .422-.11.422-.422 0-.406-.407-.406-.5-.406.234-.594.765-.781 1.156-.781.734 0 1.125.625 1.125 1.297 0 .828-.578 1.437-1.531 2.39l-1 1.047C.422-.219.422-.203.422 0h3.14l.235-1.422h-.25c-.016.156-.078.547-.172.703-.047.063-.656.063-.781.063H1.172Zm0 0"/><path id="c" d="M2.5-5.078c0-.219-.016-.219-.234-.219-.328.313-.75.5-1.5.5v.266c.218 0 .64 0 1.109-.203v4.078c0 .297-.031.39-.781.39H.812V0c.329-.031 1.016-.031 1.376-.031s1.046 0 1.374.031v-.266h-.28c-.75 0-.782-.093-.782-.39Zm0 0"/><path id="d" d="M3.89-2.547c0-.844-.078-1.36-.343-1.875-.344-.703-1-.875-1.438-.875-1 0-1.375.75-1.484.969C.344-3.75.328-2.953.328-2.547c0 .531.016 1.328.406 1.969.36.594.954.75 1.375.75.391 0 1.063-.125 1.47-.906.296-.578.312-1.297.312-1.813M2.11-.062c-.266 0-.813-.125-.985-.954-.094-.453-.094-1.203-.094-1.625 0-.546 0-1.109.094-1.546.172-.813.781-.891.984-.891.266 0 .829.14.985.86.094.437.094 1.046.094 1.577 0 .47 0 1.188-.094 1.641-.172.828-.719.938-.985.938m0 0"/><path id="e" d="M4.406-3.625a.504.504 0 0 0-.422.484c0 .172.125.329.344.329.25 0 .5-.22.5-.532 0-.422-.453-.625-.875-.625-.531 0-.844.485-.953.672a1.04 1.04 0 0 0-1-.672c-.953 0-1.484 1.156-1.484 1.39 0 .079.062.11.125.11.078 0 .109-.047.125-.11.28-.89.875-1.155 1.218-1.155.266 0 .485.172.485.593 0 .313-.375 1.75-.5 2.188-.063.265-.344.828-.828.828-.188 0-.375-.062-.453-.11.234-.046.421-.265.421-.484 0-.234-.171-.328-.343-.328-.266 0-.5.219-.5.531 0 .438.484.61.859.61.531 0 .828-.422.969-.672.219.594.75.672.984.672.969 0 1.485-1.156 1.485-1.375 0-.047-.032-.11-.11-.11-.11 0-.11.032-.156.172-.203.64-.719 1.094-1.188 1.094-.25 0-.5-.156-.5-.594 0-.203.125-.687.204-1.031.046-.156.28-1.125.296-1.187.11-.329.375-.797.844-.797.156 0 .328.015.453.109m0 0"/><path id="i" d="M4.031-6.375c.063-.125.063-.14.063-.156 0-.11-.094-.203-.188-.203-.125 0-.172.078-.172.093L.563 1.891c-.047.125-.047.14-.047.156 0 .11.078.203.187.203.094 0 .156-.047.219-.219Zm0 0"/><path id="l" d="M1.234-2.047c.547 0 1.125 0 1.594-.125.844-.203 1-.703 1-1.015 0-.5-.469-.782-1-.782-1.047 0-2.406.89-2.406 2.422 0 .86.5 1.64 1.469 1.64 1.343 0 2.093-.921 2.093-1.046 0-.047-.062-.125-.125-.125-.03 0-.046.016-.125.11-.546.656-1.359.843-1.828.843-.625 0-.797-.594-.797-1.047 0-.016 0-.328.125-.875m.063-.234c.39-1.406 1.39-1.453 1.531-1.453.297 0 .672.14.672.547 0 .906-1.36.906-2.203.906m0 0"/><path id="f" d="m1.656-6.219-1.328.094v.281c.61 0 .688.063.688.5v4.657c0 .406-.094.406-.688.406V0c.422-.016.594-.031 1-.031.422 0 .578.015 1.016.031v-.281c-.594 0-.688 0-.688-.406Zm0 0"/><path id="g" d="M4.344-1.906c0-1.172-.938-2.11-2.032-2.11-1.14 0-2.046.954-2.046 2.11 0 1.11.922 2 2.03 2 1.142 0 2.048-.906 2.048-2M2.312-.156c-.453 0-.828-.219-1.03-.563-.235-.39-.25-.86-.25-1.265 0-.344 0-.844.218-1.22a1.22 1.22 0 0 1 1.047-.593c.515 0 .875.297 1.062.594.204.375.204.828.204 1.219 0 .328 0 .843-.22 1.234a1.18 1.18 0 0 1-1.03.594m0 0"/><path id="h" d="M1.125-1.61c.219.141.5.282.906.282.86 0 1.5-.61 1.5-1.313 0-.437-.25-.75-.36-.875.36-.328.782-.328.876-.328-.031.031-.11.078-.11.235 0 .109.063.265.266.265.125 0 .266-.078.266-.265a.457.457 0 0 0-.485-.453c-.25 0-.656.093-.968.421a1.54 1.54 0 0 0-.97-.328c-.858 0-1.5.61-1.5 1.328 0 .454.266.782.407.907a1.26 1.26 0 0 0-.265.75c0 .297.14.625.39.78C.625-.046.266.282.266.704c0 .64.875 1.14 2.03 1.14 1.11 0 2.048-.468 2.048-1.155 0-.375-.172-.766-.5-.985-.5-.312-1.031-.312-1.875-.312-.188 0-.469 0-.547-.016C1.172-.687 1-.922 1-1.203c0-.156.047-.281.125-.406m.906.048c-.797 0-.797-.891-.797-1.079 0-.25.016-.546.172-.765a.8.8 0 0 1 .625-.313c.813 0 .813.86.813 1.078 0 .204 0 1.079-.813 1.079m.422 1.515c.281 0 1.39.016 1.39.735 0 .515-.702.921-1.53.921-.891 0-1.547-.421-1.547-.921 0-.141.093-.735.859-.735Zm0 0"/><path id="j" d="M4.14-1.594h-.25c-.015.125-.093.657-.203.797-.062.078-.671.078-.859.078H1.234l.891-.843c1.469-1.266 2.016-1.75 2.016-2.657 0-1.031-.844-1.75-1.953-1.75-1.032 0-1.735.813-1.735 1.625 0 .453.39.5.469.5.203 0 .469-.14.469-.469a.45.45 0 0 0-.47-.468c-.046 0-.062 0-.109.015.22-.64.797-.921 1.282-.921.906 0 1.219.843 1.219 1.468 0 .907-.688 1.657-1.11 2.125L.563-.328c-.11.11-.11.125-.11.328h3.438Zm0 0"/><path id="k" d="M3.219-1.125H3c-.016.094-.078.484-.156.547-.047.047-.531.047-.625.047h-1.11l.766-.625c.203-.172.734-.547.922-.735.172-.171.422-.484.422-.906 0-.75-.672-1.187-1.485-1.187-.765 0-1.296.515-1.296 1.078 0 .297.25.344.312.344a.32.32 0 0 0 .328-.329c0-.125-.078-.328-.344-.328.141-.297.5-.531.922-.531.625 0 .953.469.953.953 0 .422-.28.86-.687 1.25L.5-.25C.438-.187.438-.187.438 0H3.03Zm0 0"/><path id="m" d="M3.375-2.36a.34.34 0 0 0-.266.329c0 .187.157.234.235.234.187 0 .36-.14.36-.375 0-.328-.36-.469-.657-.469-.406 0-.64.313-.703.422-.078-.156-.313-.422-.766-.422-.687 0-1.094.72-1.094.922 0 .032.032.078.11.078.094 0 .11-.03.125-.078.156-.484.562-.718.844-.718.296 0 .39.187.39.39 0 .063 0 .125-.047.313-.14.547-.265 1.093-.297 1.172-.093.218-.312.421-.562.421-.031 0-.203 0-.344-.093C.938-.312.97-.5.97-.547c0-.156-.125-.234-.25-.234-.156 0-.344.125-.344.375 0 .344.375.469.656.469.344 0 .594-.235.703-.422.125.25.407.422.75.422.704 0 1.094-.735 1.094-.922 0-.016 0-.094-.11-.094-.077 0-.093.047-.109.11-.171.515-.593.702-.859.702-.219 0-.375-.125-.375-.375 0-.125.016-.25.078-.453l.188-.781c.062-.234.093-.344.218-.484a.57.57 0 0 1 .422-.203c.031 0 .203 0 .344.078m0 0"/></defs><path fill="none" stroke="#7F7F7F" stroke-linecap="round" stroke-miterlimit="10" stroke-width=".399" d="M29.691 92.707v-1.992M58.035 92.707v-1.992M86.383 92.707v-1.992M114.727 92.707v-1.992M143.074 92.707v-1.992M29.691 3.125V1.133M58.035 3.125V1.133M86.383 3.125V1.133M114.727 3.125V1.133M143.074 3.125V1.133M13.523 78.402h1.993M13.523 58.152h1.993M13.523 37.906h1.993M13.523 17.656h1.993M157.25 78.402h1.992M157.25 58.152h1.992M157.25 37.906h1.992M157.25 17.656h1.992"/><path fill="none" stroke="#7F7F7F" stroke-miterlimit="10" stroke-width=".399" d="M15.516 90.715H157.25M15.516 3.125H157.25M15.516 90.715V3.125M157.25 90.715V3.125"/><path fill="none" stroke="#000" stroke-dasharray="2.98885 0.89665 0.89665 0.89665" stroke-miterlimit="10" stroke-width=".598" d="M15.516 56.492s2.988-.183 4.136-.262c1.145-.078 2.985-.21 4.133-.3 1.145-.09 2.985-.246 4.133-.352 1.148-.101 2.988-.281 4.133-.402a291 291 0 0 0 4.133-.469c1.148-.14 2.988-.379 4.136-.543 1.145-.16 2.985-.437 4.133-.625 1.149-.187 2.984-.504 4.133-.723 1.148-.214 2.988-.586 4.133-.836 1.148-.253 2.988-.683 4.133-.972 1.148-.29 2.988-.785 4.136-1.121 1.145-.336 2.985-.91 4.133-1.297 1.149-.39 2.988-1.055 4.133-1.504 1.148-.45 2.988-1.219 4.133-1.738a96 96 0 0 0 4.136-2.008 94 94 0 0 0 4.133-2.328 91 91 0 0 0 4.133-2.692 85 85 0 0 0 4.133-3.11 88 88 0 0 0 4.133-3.6 97 97 0 0 0 4.136-4.165c1.145-1.25 2.985-3.379 4.133-4.824a117 117 0 0 0 4.133-5.578 134 134 0 0 0 4.133-6.453c1.148-1.93 4.137-7.465 4.137-7.465"/><path fill="none" stroke="#000" stroke-dasharray="0.89665 0.89665" stroke-miterlimit="10" stroke-width=".598" d="M43.863 12.598s2.559 5.343 3.543 7.273c.985 1.934 2.559 4.89 3.543 6.645.985 1.757 2.559 4.43 3.543 6.011a148 148 0 0 0 3.543 5.38 117 117 0 0 0 3.543 4.745 90 90 0 0 0 3.543 4.114 67 67 0 0 0 3.543 3.476c.984.88 2.563 2.149 3.547 2.848.98.703 2.559 1.687 3.543 2.215.98.527 2.558 1.23 3.543 1.582.98.351 2.558.773 3.543.949.98.176 2.558.316 3.543.316.984 0 2.558-.14 3.543-.316.984-.176 2.558-.598 3.543-.95.984-.35 2.558-1.054 3.543-1.581.984-.528 2.558-1.512 3.543-2.215.984-.7 2.558-1.969 3.543-2.848a64 64 0 0 0 3.543-3.476 85 85 0 0 0 3.543-4.114 110 110 0 0 0 3.543-4.746 138 138 0 0 0 3.543-5.379 182 182 0 0 0 3.546-6.011c.98-1.754 2.559-4.711 3.543-6.645.98-1.93 3.543-7.273 3.543-7.273"/><path fill="none" stroke="#000" stroke-dasharray="2.98885 1.19554" stroke-miterlimit="10" stroke-width=".598" d="M29.691 78.402s3.84-1.37 5.313-1.898l5.316-1.899c1.473-.527 3.84-1.37 5.313-1.898 1.476-.527 3.844-1.371 5.316-1.898l5.317-1.899c1.472-.527 3.84-1.37 5.312-1.898l5.317-1.899c1.472-.527 3.84-1.37 5.316-1.898 1.473-.527 3.84-1.371 5.312-1.899l5.317-1.898 5.312-1.898 5.317-1.899 5.316-1.898c1.473-.524 3.84-1.371 5.313-1.899 1.476-.523 3.84-1.37 5.316-1.898 1.473-.524 3.84-1.371 5.313-1.895 1.476-.527 3.84-1.375 5.316-1.898 1.477-.528 3.84-1.375 5.316-1.899 1.473-.527 3.84-1.37 5.313-1.898l5.316-1.898c1.473-.528 3.84-1.372 5.313-1.899 1.476-.527 3.844-1.371 5.316-1.898l5.317-1.899 5.312-1.898"/><path fill="none" stroke="#000" stroke-miterlimit="10" stroke-width=".598" d="M92.05 90.715s1.966-6.016 2.716-7.899c.754-1.886 1.964-4.28 2.718-5.683s1.961-3.309 2.715-4.426c.754-1.121 1.965-2.707 2.719-3.64.754-.93 1.96-2.282 2.715-3.079a70 70 0 0 1 2.715-2.672c.754-.699 1.965-1.738 2.718-2.359a80 80 0 0 1 2.715-2.113 89 89 0 0 1 2.715-1.914 88 88 0 0 1 2.719-1.75c.754-.465 1.96-1.18 2.715-1.61s1.965-1.093 2.715-1.492c.753-.398 1.964-1.015 2.718-1.387.754-.375 1.961-.949 2.715-1.3.754-.348 1.965-.891 2.719-1.22a157.393 157.393 0 0 1 8.148-3.273c.754-.28 1.961-.718 2.715-.988.754-.265 1.961-.683 2.715-.937a245 245 0 0 1 8.152-2.578c.75-.227 2.715-.793 2.715-.793"/><use xlink:href="#a" x="24.28" y="100.501"/><use xlink:href="#b" x="30.866" y="100.501"/><use xlink:href="#a" x="52.626" y="100.501"/><use xlink:href="#c" x="59.212" y="100.501"/><use xlink:href="#d" x="84.265" y="100.501"/><use xlink:href="#c" x="112.61" y="100.501"/><use xlink:href="#b" x="140.956" y="100.501"/><use xlink:href="#a" x=".048" y="80.553"/><use xlink:href="#c" x="6.635" y="80.553"/><use xlink:href="#d" x="6.635" y="60.721"/><use xlink:href="#c" x="6.635" y="40.474"/><use xlink:href="#b" x="6.635" y="20.227"/><use xlink:href="#e" x="83.772" y="109.707"/><use xlink:href="#f" x="187.963" y="12.373"/><use xlink:href="#g" x="190.523" y="12.373"/><use xlink:href="#h" x="195.131" y="12.373"/><use xlink:href="#e" x="201.403" y="12.373"/><path fill="none" stroke="#000" stroke-miterlimit="10" stroke-width=".598" d="M163.059 10.16s2.91-1.512 4.984-1.324c2.074.184 7.887 2.469 9.96 2.652 2.075.184 4.981-1.328 4.981-1.328"/><use xlink:href="#e" x="187.963" y="23.332"/><use xlink:href="#i" x="193.187" y="23.332"/><use xlink:href="#j" x="197.795" y="23.332"/><path fill="none" stroke="#000" stroke-dasharray="2.98885 1.19554" stroke-miterlimit="10" stroke-width=".598" d="M163.059 21.121s2.91-1.512 4.984-1.328 7.887 2.469 9.96 2.656c2.075.184 4.981-1.328 4.981-1.328"/><use xlink:href="#e" x="187.963" y="35.227"/><use xlink:href="#k" x="193.187" y="31.419"/><path fill="none" stroke="#000" stroke-dasharray="0.89665 0.89665" stroke-miterlimit="10" stroke-width=".598" d="M163.059 33.016s2.91-1.512 4.984-1.325c2.074.184 7.887 2.47 9.96 2.653 2.075.183 4.981-1.328 4.981-1.328"/><use xlink:href="#l" x="187.963" y="46.187"/><use xlink:href="#m" x="192.248" y="42.377"/><path fill="none" stroke="#000" stroke-dasharray="2.98885 0.89665 0.89665 0.89665" stroke-miterlimit="10" stroke-width=".598" d="M163.059 43.977s2.91-1.512 4.984-1.329 7.887 2.47 9.96 2.653c2.075.187 4.981-1.324 4.981-1.324"/></svg>