<svg xmlns="http://www.w3.org/2000/svg" xmlns:xlink="http://www.w3.org/1999/xlink" width="50.564" height="57.566"><defs><path id="a" d="M4.36-6.11c0-.421-.36-.874-1.141-.874-.969 0-2.047.422-2.047 1.547v1.015h-.75v.469h.75V-.47H.484V0l1.25-.031c.375 0 1.016 0 1.375.031v-.469H2.25v-3.484h1.14v-.469H2.188v-1.016c0-1.093.75-1.187 1-1.187.047 0 .11 0 .172.031a.59.59 0 0 0-.234.485c0 .422.36.609.61.609.296 0 .624-.203.624-.61m0 0"/><path id="b" d="M4.766-1.172c0-.14-.141-.14-.235-.14-.187 0-.187.03-.25.156-.25.625-.734.812-1.234.812-1.39 0-1.39-1.453-1.39-1.922 0-.562 0-1.843 1.28-1.843.36 0 .516.015.657.046a.62.62 0 0 0-.203.47c0 .437.343.624.609.624.313 0 .64-.219.64-.625 0-.86-1.156-.922-1.734-.922C1.11-4.516.375-3.375.375-2.219.375-.89 1.313.063 2.844.063c1.625 0 1.922-1.157 1.922-1.235m0 0"/><path id="c" d="M4.922-1.172c0-.172-.188-.172-.234-.172-.172 0-.188.047-.25.203-.204.485-.782.797-1.422.797-1.407 0-1.422-1.328-1.422-1.828h3.015c.22 0 .313 0 .313-.265 0-.313-.063-1.047-.563-1.547-.359-.36-.89-.532-1.578-.532C1.187-4.516.313-3.484.313-2.25c0 1.344 1 2.313 2.609 2.313 1.578 0 2-1.063 2-1.235M3.984-2.5h-2.39c.015-.39.031-.812.234-1.14.266-.391.672-.516.953-.516 1.172 0 1.188 1.312 1.203 1.656m0 0"/><path id="d" d="M5.516-.234c0-.235-.125-.235-.266-.235-.61-.015-.61-.14-.61-.375v-2.14c0-.891-.702-1.532-2.187-1.532-.562 0-1.781.047-1.781.922 0 .438.344.625.61.625.312 0 .624-.219.624-.625 0-.297-.187-.469-.218-.5a5 5 0 0 1 .718-.062c.75 0 1.11.422 1.11 1.172v.343c-.72.032-3.25.125-3.25 1.563C.266-.125 1.5.062 2.188.062c.796 0 1.265-.406 1.484-.828 0 .313 0 .766 1.047.766h.468c.204 0 .329 0 .329-.234m-2-1.157c0 .97-.922 1.094-1.172 1.094-.516 0-.906-.344-.906-.797 0-1.062 1.578-1.203 2.078-1.234Zm0 0"/><path id="e" d="M5.984-2.219c0-1.328-.937-2.265-2.39-2.265-.719 0-1.219.28-1.453.484v-2.922l-1.766.078v.469c.61 0 .688 0 .688.39V0h.468c.157-.187.328-.375.485-.562.078.078.562.625 1.453.625 1.484 0 2.515-.907 2.515-2.282m-1.28 0c0 .469 0 1.016-.25 1.406-.298.407-.75.516-1.079.516-.687 0-1.078-.547-1.187-.687v-2.5c.28-.36.75-.641 1.296-.641 1.22 0 1.22 1.203 1.22 1.906m0 0"/><path id="f" d="M5.984 0v-.469c-.609 0-.687 0-.687-.39v-6.063l-1.766.078v.469c.625 0 .703 0 .703.39v1.954a2.18 2.18 0 0 0-1.359-.453c-1.453 0-2.5.875-2.5 2.28 0 1.313.922 2.267 2.39 2.267.61 0 1.094-.235 1.407-.485v.485ZM4.172-1.031c-.14.187-.547.734-1.297.734-1.219 0-1.219-1.203-1.219-1.906 0-.485 0-1.016.25-1.406.297-.422.766-.516 1.078-.516.563 0 .97.313 1.188.61Zm0 0"/></defs><path fill="none" stroke="#000" stroke-miterlimit="10" stroke-width=".399" d="M46.734 23.723v11.695"/><path fill="none" stroke="#000" stroke-linecap="round" stroke-linejoin="round" stroke-miterlimit="10" stroke-width=".399" d="M49.125 33.543c-1.434.379-2.11 1.223-2.39 2.074-.278-.851-.958-1.695-2.391-2.074"/><path fill="none" stroke="#000" stroke-miterlimit="10" stroke-width=".399" d="m40.668 45.121-9.012 5.207"/><path fill="none" stroke="#000" stroke-linecap="round" stroke-linejoin="round" stroke-miterlimit="10" stroke-width=".39899202" d="M34.473 51.46c-1.047-1.05-2.114-1.218-2.989-1.034.594-.664.989-1.676.598-3.106"/><path fill="none" stroke="#000" stroke-miterlimit="10" stroke-width=".399" d="m19.02 50.527-8.774-5.066"/><path fill="none" stroke="#000" stroke-linecap="round" stroke-linejoin="round" stroke-miterlimit="10" stroke-width=".39899202" d="M10.672 48.469c.387-1.434-.004-2.442-.602-3.11.88.184 1.946.02 2.992-1.035"/><path fill="none" stroke="#000" stroke-miterlimit="10" stroke-width=".399" d="m10.297 20.582 30.027 17.336"/><path fill="none" stroke="#000" stroke-linecap="round" stroke-linejoin="round" stroke-miterlimit="10" stroke-width=".39899202" d="M39.898 34.914c-.39 1.43.004 2.438.598 3.106-.875-.184-1.945-.02-2.988 1.035"/><path fill="none" stroke="#000" stroke-miterlimit="10" stroke-width=".399" d="m10.297 12.844 7.82-4.516"/><path fill="none" stroke="#000" stroke-linecap="round" stroke-linejoin="round" stroke-miterlimit="10" stroke-width=".39899202" d="M15.3 7.195c1.044 1.055 2.114 1.22 2.99 1.035-.599.668-.99 1.676-.599 3.106"/><path fill="none" stroke="#000" stroke-miterlimit="10" stroke-width=".399" d="M10.297 16.715h30.77"/><path fill="none" stroke="#000" stroke-linecap="round" stroke-linejoin="round" stroke-miterlimit="10" stroke-width=".399" d="M39.195 14.324c.38 1.434 1.223 2.11 2.07 2.39-.847.278-1.69.958-2.07 2.391"/><path fill="none" stroke="#000" stroke-miterlimit="10" stroke-width=".399" d="M21.813 48.27 7.84 24.066"/><path fill="none" stroke="#000" stroke-linecap="round" stroke-linejoin="round" stroke-miterlimit="10" stroke-width=".39899202" d="M6.707 26.883c1.05-1.043 1.215-2.113 1.031-2.988.668.593 1.676.988 3.11.597"/><path fill="none" stroke="#000" stroke-miterlimit="10" stroke-width=".399" d="m9.898 37.98 31.223-18.027"/><path fill="none" stroke="#000" stroke-linecap="round" stroke-linejoin="round" stroke-miterlimit="10" stroke-width=".39899202" d="M38.305 18.82c1.043 1.055 2.113 1.22 2.988 1.035-.594.668-.988 1.676-.598 3.106"/><path fill="none" stroke="#000" stroke-miterlimit="10" stroke-width=".399" d="m9.898 45.262 8.778 5.066"/><path fill="none" stroke="#000" stroke-linecap="round" stroke-linejoin="round" stroke-miterlimit="10" stroke-width=".39899202" d="M18.25 47.32c-.39 1.43 0 2.442.598 3.106-.875-.184-1.946-.016-2.993 1.035"/><use xlink:href="#a" x="44.987" y="20.201"/><use xlink:href="#b" x="44.19" y="43.847"/><use xlink:href="#c" x="22.54" y="56.3"/><use xlink:href="#d" x=".811" y="43.847"/><use xlink:href="#e" x=".413" y="20.141"/><use xlink:href="#f" x="21.982" y="7.688"/></svg>