<svg xmlns="http://www.w3.org/2000/svg" xmlns:xlink="http://www.w3.org/1999/xlink" width="265.826" height="186.572"><defs><path id="b" d="M7.203-2.734h-.469C6.516-1.36 6.234-.47 4.391-.47H2.875V-3.28h.547c.969 0 1.062.437 1.062 1.172h.47v-2.813h-.47c0 .75-.093 1.172-1.062 1.172h-.547v-2.562h1.516c1.609 0 1.875.734 2.03 1.937h.47l-.313-2.406H.391v.468h1.078v5.844H.39V0H6.75Zm0 0"/><path id="c" d="M2.922 0v-.469h-.688v-6.453L.47-6.844v.469c.625 0 .687 0 .687.39v5.516H.47V0l1.219-.031Zm0 0"/><path id="d" d="M2.844 0v-.469h-.61v-4.015L.5-4.406v.468c.594 0 .656 0 .656.391v3.078H.47V0l1.219-.031Zm-.469-6.047a.774.774 0 0 0-.781-.781.784.784 0 0 0-.782.781c0 .422.36.766.782.766a.77.77 0 0 0 .781-.766m0 0"/><path id="e" d="M5.984-2.219c0-1.328-.906-2.265-2.343-2.265-.75 0-1.282.312-1.5.484v-.484l-1.766.078v.468c.61 0 .688 0 .688.376v5.03H.375v.47l1.25-.032 1.25.032v-.47h-.687V-.39a2 2 0 0 0 1.28.454c1.5 0 2.516-.907 2.516-2.282m-1.28 0C4.703-.813 4-.297 3.358-.297c-.14 0-.609 0-1.062-.547-.11-.125-.11-.14-.11-.328v-2.11c0-.187.016-.202.157-.343.39-.406.922-.469 1.14-.469.657 0 1.22.61 1.22 1.875m0 0"/><path id="f" d="M4.14-1.39c0-.438-.202-.782-.546-1.063-.39-.281-.719-.344-1.485-.485-.375-.062-1.015-.171-1.015-.64 0-.625.922-.625 1.11-.625.75 0 1.124.297 1.171.844.016.156.031.203.234.203.235 0 .235-.047.235-.281v-.797c0-.188 0-.282-.172-.282-.047 0-.063 0-.453.188-.266-.125-.61-.188-1-.188-.313 0-1.844 0-1.844 1.313 0 .39.203.656.406.828.39.344.782.406 1.547.547.36.062 1.094.187 1.094.781 0 .75-.906.75-1.125.75C1.234-.297.984-1.03.859-1.453c-.046-.14-.109-.14-.234-.14-.25 0-.25.062-.25.28v1.094c0 .188 0 .282.188.282.062 0 .078 0 .296-.157l.25-.172c.47.329.985.329 1.188.329.312 0 1.844 0 1.844-1.454m0 0"/><path id="g" d="M4.922-1.172c0-.172-.188-.172-.234-.172-.172 0-.188.047-.25.203-.204.485-.782.797-1.422.797-1.407 0-1.422-1.328-1.422-1.828h3.015c.22 0 .313 0 .313-.265 0-.313-.063-1.047-.563-1.547-.359-.36-.89-.532-1.578-.532C1.187-4.516.313-3.484.313-2.25c0 1.344 1 2.313 2.609 2.313 1.578 0 2-1.063 2-1.235M3.984-2.5h-2.39c.015-.39.031-.812.234-1.14.266-.391.672-.516.953-.516 1.172 0 1.188 1.312 1.203 1.656m0 0"/><path id="h" d="M7.64-2.266c0-.203-.077-.203-.25-.203-.124 0-.218 0-.218.172C7.094-.969 5.89-.359 4.89-.359c-.782 0-1.625-.235-2.141-.844-.469-.578-.594-1.313-.594-2.219 0-.562.031-1.625.672-2.297.64-.656 1.516-.765 2.031-.765 1.079 0 2.016.765 2.235 2.03.031.188.047.204.265.204.266 0 .282-.016.282-.281v-2.14c0-.188 0-.282-.188-.282-.094 0-.11.031-.187.094l-.657.593a3.03 3.03 0 0 0-1.968-.687c-2.485 0-4 1.484-4 3.531S2.156.11 4.64.11c1.875 0 3-1.218 3-2.375m0 0"/><path id="i" d="M5.516-.234c0-.235-.125-.235-.266-.235-.61-.015-.61-.14-.61-.375v-2.14c0-.891-.702-1.532-2.187-1.532-.562 0-1.781.047-1.781.922 0 .438.344.625.61.625.312 0 .624-.219.624-.625 0-.297-.187-.469-.218-.5a5 5 0 0 1 .718-.062c.75 0 1.11.422 1.11 1.172v.343c-.72.032-3.25.125-3.25 1.563C.266-.125 1.5.062 2.188.062c.796 0 1.265-.406 1.484-.828 0 .313 0 .766 1.047.766h.468c.204 0 .329 0 .329-.234m-2-1.157c0 .97-.922 1.094-1.172 1.094-.516 0-.906-.344-.906-.797 0-1.062 1.578-1.203 2.078-1.234Zm0 0"/><path id="j" d="M5.406-2.172c0-1.344-.922-2.344-2.547-2.344C1.22-4.516.313-3.5.313-2.172c0 1.235.89 2.235 2.546 2.235 1.672 0 2.547-1.016 2.547-2.235m-1.281-.11c0 .86 0 1.938-1.266 1.938-1.265 0-1.265-1.078-1.265-1.937 0-.453 0-.953.172-1.297.187-.375.609-.578 1.093-.578.422 0 .844.156 1.063.5.203.344.203.89.203 1.375m0 0"/><path id="k" d="M6.125 0v-.469c-.61 0-.687 0-.687-.39v-3.625l-1.813.078v.468c.61 0 .688 0 .688.391v1.906c0 .813-.516 1.344-1.235 1.344-.781 0-.812-.25-.812-.797v-3.39l-1.813.078v.468c.61 0 .688 0 .688.391v2.328c0 1.063.797 1.282 1.797 1.282.25 0 .968 0 1.421-.782v.782Zm0 0"/><path id="l" d="M3.813-1.234v-.532h-.47v.516c0 .672-.327.906-.609.906-.578 0-.578-.64-.578-.86v-2.75h1.469v-.468H2.156v-1.906h-.469c0 1-.484 1.984-1.484 2.016v.359h.828v2.734c0 1.063.86 1.282 1.578 1.282.75 0 1.204-.579 1.204-1.297m0 0"/><path id="m" d="M3.078.313c0-.125-.047-.157-.187-.25C2.063-.5 1.75-1.391 1.75-2.125c0-.672.25-1.594 1.156-2.203.125-.094.172-.125.172-.25a.254.254 0 0 0-.265-.25c-.204 0-1.641.906-1.641 2.703 0 .813.312 1.438.562 1.781.375.516.907.907 1.079.907.218 0 .265-.172.265-.25m0 0"/><path id="n" d="M3.219-.906c0-.735-.906-.906-1.14-.938l-.704-.125C1.188-2 1-2.079 1-2.25c0-.156.219-.328.813-.328.515 0 .609.172.625.328.015.14.03.281.28.281.298 0 .298-.156.298-.328v-.469c0-.14-.016-.328-.25-.328-.157 0-.22.063-.25.125-.282-.125-.563-.125-.688-.125-1.187 0-1.344.594-1.344.844 0 .656.735.797 1.391.89.297.063.828.141.828.454 0 .234-.25.422-.828.422-.297 0-.656-.063-.812-.563C1.03-1.203.984-1.28.78-1.28c-.297 0-.297.172-.297.328v.656c0 .14 0 .344.25.344.079 0 .188 0 .282-.234.328.218.672.234.859.234 1.125 0 1.344-.61 1.344-.953m0 0"/><path id="o" d="M2.313-.469a.477.477 0 0 0-.485-.484.47.47 0 0 0-.469.469c0 .28.22.484.47.484a.473.473 0 0 0 .484-.469m0 0"/><path id="p" d="M3.266-.797c0-.234-.235-.234-.297-.234-.125 0-.203 0-.266.172-.047.078-.187.375-.625.375a1.027 1.027 0 0 1-1.015-1.032c0-.312.187-1.062 1.062-1.062l.344.015c.015.282.172.376.36.376.187 0 .358-.126.358-.36 0-.531-.734-.547-1.062-.547-1.219 0-1.64.953-1.64 1.578 0 .844.671 1.563 1.546 1.563 1 0 1.235-.719 1.235-.844m0 0"/><path id="q" d="M3.25-.797c0-.234-.234-.234-.281-.234-.156 0-.219.015-.281.172-.141.328-.485.375-.657.375-.469 0-.937-.297-1.062-.813h1.953c.172 0 .328 0 .328-.312 0-.797-.453-1.485-1.375-1.485-.828 0-1.516.703-1.516 1.563S1.08.047 1.984.047c.938 0 1.266-.656 1.266-.844m-.594-1.015H.97c.125-.438.484-.766.906-.766.328 0 .703.156.781.765m0 0"/><path id="r" d="M3.578-.266c0-.25-.203-.25-.328-.25H3v-1.53c0-.72-.36-1.032-.937-1.032-.391 0-.672.172-.844.297 0-.172-.047-.25-.313-.25h-.5c-.14 0-.328 0-.328.25 0 .265.203.265.313.265h.25v2H.406c-.14 0-.328 0-.328.25C.078 0 .281 0 .391 0h1.093c.11 0 .329 0 .329-.266 0-.25-.204-.25-.344-.25h-.25v-1.156c0-.64.484-.875.797-.875.328 0 .406.172.406.547v1.484h-.203c-.14 0-.344 0-.344.25 0 .266.219.266.344.266H3.25c.11 0 .328 0 .328-.266m0 0"/><path id="s" d="M3.14-.906c0-.156 0-.313-.296-.313-.266 0-.266.157-.266.297-.015.375-.36.438-.515.438-.454 0-.454-.313-.454-.47v-1.562h1.047c.125 0 .328 0 .328-.265 0-.25-.187-.25-.328-.25H1.61v-.516c0-.14-.015-.328-.296-.328-.282 0-.282.172-.282.328v.516H.484c-.125 0-.328 0-.328.25 0 .265.203.265.328.265h.547v1.61c0 .687.485.953 1.016.953S3.14-.266 3.14-.906m0 0"/><path id="t" d="M3.406-2.594c0-.156-.078-.484-.703-.484-.328 0-.734.11-1.094.469v-.094c0-.25-.046-.328-.328-.328h-.75c-.125 0-.328 0-.328.25 0 .265.203.265.328.265h.5v2h-.5c-.125 0-.328 0-.328.25C.203 0 .406 0 .531 0h1.781c.126 0 .329 0 .329-.266 0-.25-.203-.25-.328-.25h-.704v-.796c0-.61.36-1.22 1.11-1.235 0 .156.172.281.344.281.187 0 .343-.125.343-.328m0 0"/><path id="u" d="M2.484-2.125c0-.828-.312-1.453-.562-1.797-.375-.515-.906-.906-1.078-.906-.203 0-.266.187-.266.25 0 .125.094.187.14.219 1.095.718 1.188 1.797 1.188 2.234 0 .656-.25 1.578-1.14 2.188C.64.14.578.188.578.313c0 .078.063.25.266.25s1.64-.907 1.64-2.688m0 0"/><path id="v" d="M3.469-.266c0-.25-.203-.25-.328-.25h-.25l-.828-1.046.734-.954h.234c.125 0 .344 0 .344-.265 0-.25-.219-.25-.344-.25H2.25c-.125 0-.328 0-.328.25 0 .203.11.265.281.265l-.39.547-.422-.547c.156 0 .28-.062.28-.265 0-.25-.202-.25-.327-.25H.547c-.125 0-.328 0-.328.25 0 .265.219.265.328.265h.25l.75.954L.75-.516H.516c-.125 0-.344 0-.344.25C.172 0 .39 0 .516 0h.78c.126 0 .329 0 .329-.266 0-.203-.11-.25-.297-.25l.484-.703.5.703c-.187 0-.296.047-.296.25 0 .266.203.266.328.266h.797c.109 0 .328 0 .328-.266m0 0"/><path id="w" d="M3.297-1.36c0-.812-.625-1.437-1.39-1.437-.329 0-.657.094-.938.313.125-.828.703-1.328 1.25-1.328.156 0 .25.03.297.062-.032.047-.047.094-.047.188 0 .203.14.359.36.359.202 0 .358-.14.358-.375 0-.36-.265-.75-.968-.75-.922 0-1.86.844-1.86 2.25C.36-.422 1.156.078 1.844.078c.765 0 1.453-.594 1.453-1.437m-.578 0a.88.88 0 0 1-.875.907c-.422 0-.672-.313-.797-.703C1-1.313 1-1.484 1-1.563c0-.39.39-.703.875-.703.516 0 .844.422.844.907m0 0"/><path id="x" d="M3.313-2.125c0-1.297-.72-2.203-1.485-2.203-.781 0-1.5.922-1.5 2.203 0 1.297.734 2.203 1.5 2.203.781 0 1.485-.922 1.485-2.203m-.563-.078c0 .969-.422 1.75-.922 1.75-.516 0-.922-.781-.922-1.75 0-.953.438-1.61.922-1.61.469 0 .922.657.922 1.61m0 0"/><path id="y" d="M3.64-.266c0-.218-.14-.25-.39-.25v-1.593c0-.157-.016-.97-.656-.97a.84.84 0 0 0-.656.313.61.61 0 0 0-.532-.312.88.88 0 0 0-.547.203c-.046-.156-.187-.156-.312-.156H.328c-.125 0-.328 0-.328.25 0 .234.125.265.39.265v2c-.265 0-.39.032-.39.25C0 0 .219 0 .328 0h.594c.125 0 .312 0 .312-.266 0-.218-.109-.25-.359-.25v-1.171c0-.563.234-.86.5-.86.14 0 .203.11.203.5v1.531c-.156 0-.281.032-.281.25 0 .266.187.266.312.266h.516c.125 0 .313 0 .313-.266 0-.218-.126-.25-.376-.25v-1.171c0-.563.25-.86.5-.86.141 0 .204.11.204.5v1.531c-.141 0-.282.032-.282.25 0 .266.204.266.313.266h.5c.125 0 .344 0 .344-.266m0 0"/><path id="z" d="M3.188-.266c0-.25-.204-.25-.329-.25h-.656v-2.187c0-.25-.047-.328-.328-.328H.906c-.125 0-.328 0-.328.25 0 .265.203.265.328.265h.719v2H.859c-.14 0-.343 0-.343.25C.516 0 .734 0 .859 0h2c.125 0 .329 0 .329-.266m-.954-3.562a.39.39 0 0 0-.406-.39.387.387 0 0 0-.39.39c0 .219.171.39.39.39a.39.39 0 0 0 .406-.39m0 0"/><path id="A" d="M3.578-.266c0-.25-.203-.25-.328-.25H3v-3.406c0-.25-.047-.344-.328-.344h-.485c-.14 0-.343.016-.343.266s.218.266.328.266h.25v.906a1.26 1.26 0 0 0-.735-.25c-.765 0-1.453.672-1.453 1.562C.234-.64.875.047 1.625.047c.344 0 .61-.14.797-.313.015.188.062.266.328.266h.5c.125 0 .328 0 .328-.266M2.422-1.375c0 .36-.297.89-.781.89-.453 0-.828-.452-.828-1.03 0-.61.437-1.032.89-1.032.406 0 .719.344.719.688Zm0 0"/><path id="B" d="M3.547-2.781c0-.25-.188-.25-.328-.25h-.781c-.157 0-.344 0-.344.25 0 .265.172.265.344.265h.265l-.297 1.72-.14-.532c-.125-.469-.172-.547-.422-.547-.094 0-.235 0-.328.188l-.266.906-.297-1.735h.266c.156 0 .343 0 .343-.265 0-.25-.187-.25-.343-.25H.437c-.14 0-.343 0-.343.25 0 .234.14.265.36.265L.858-.28c.032.187.047.312.36.312.312 0 .343-.062.453-.515l.172-.641.265 1c.094.14.235.156.344.156.281 0 .313-.125.344-.312l.406-2.235c.219 0 .344-.03.344-.265m0 0"/><path id="C" d="M3.625-.266c0-.25-.203-.25-.328-.25-.203 0-.297-.03-.344-.046V-2c0-.5-.375-1.094-1.406-1.094-.313 0-1.031.016-1.031.547 0 .235.172.36.359.36.11 0 .344-.063.344-.36 0 0 .234-.031.343-.031.454 0 .782.187.813.594-1.219.03-2.047.39-2.047 1.062 0 .485.453.969 1.188.969.234 0 .656-.047.968-.25.172.187.485.203.75.203.235 0 .391-.016.391-.266M2.359-.969c0 .14 0 .266-.234.375-.234.11-.516.11-.578.11-.39 0-.64-.203-.64-.438 0-.312.546-.515 1.452-.562Zm0 0"/><path id="D" d="M3.422-1.516c0-.875-.64-1.562-1.39-1.562-.298 0-.579.11-.813.265v-1.109c0-.25-.047-.344-.313-.344h-.5c-.14 0-.343.016-.343.266s.218.266.328.266h.25v3.406C.64-.172.656 0 .938 0c.218 0 .28-.094.28-.234.266.218.532.28.735.28.766 0 1.469-.671 1.469-1.562m-.578 0c0 .61-.453 1.032-.906 1.032-.485 0-.704-.563-.704-.875v-.485c0-.375.375-.703.766-.703.469 0 .844.469.844 1.031m0 0"/><path id="E" d="M3.281-1.516c0-.89-.672-1.578-1.453-1.578-.797 0-1.453.688-1.453 1.578S1.047.047 1.828.047c.766 0 1.453-.688 1.453-1.563m-.578-.046c0 .593-.406 1.078-.875 1.078S.953-.97.953-1.562s.422-1.016.875-1.016.875.422.875 1.015m0 0"/><path id="F" d="M3.578-.266c0-.25-.203-.25-.328-.25H3v-1.53c0-.72-.36-1.032-.937-1.032-.391 0-.672.172-.844.297v-1.14c0-.25-.047-.345-.313-.345h-.5c-.14 0-.328.016-.328.266s.203.266.313.266h.25v3.218H.406c-.14 0-.328 0-.328.25C.078 0 .281 0 .391 0h1.093c.11 0 .329 0 .329-.266 0-.25-.204-.25-.344-.25h-.25v-1.156c0-.64.484-.875.797-.875.328 0 .406.172.406.547v1.484h-.203c-.14 0-.344 0-.344.25 0 .266.219.266.344.266H3.25c.11 0 .328 0 .328-.266m0 0"/><path id="G" d="M3.578-.266c0-.25-.219-.25-.328-.25H3v-2.187c0-.25-.047-.328-.328-.328h-.485c-.14 0-.343 0-.343.25 0 .265.218.265.328.265h.25v1.391c0 .563-.516.64-.719.64-.469 0-.484-.187-.484-.39v-1.828c0-.25-.047-.328-.313-.328h-.5c-.14 0-.328 0-.328.25 0 .265.203.265.313.265h.25v1.688c0 .687.5.875 1.03.875.266 0 .517-.063.767-.219C2.484 0 2.625 0 2.75 0h.5c.125 0 .328 0 .328-.266m0 0"/><path id="H" d="M3.422-1.516c0-.875-.64-1.562-1.39-1.562-.298 0-.579.11-.813.281 0-.172-.063-.234-.313-.234h-.5c-.14 0-.343 0-.343.25 0 .265.218.265.328.265h.25v3.5H.406c-.14 0-.343 0-.343.266 0 .25.218.25.328.25h1.093c.11 0 .329 0 .329-.25 0-.266-.204-.266-.344-.266h-.25V-.234c.265.234.531.28.734.28.766 0 1.469-.671 1.469-1.562m-.578 0c0 .61-.453 1.032-.906 1.032-.485 0-.704-.563-.704-.875v-.485c0-.375.375-.703.766-.703.469 0 .844.469.844 1.031m0 0"/><clipPath id="a"><path d="M0 0h265.738v186.36H0Zm0 0"/></clipPath></defs><path fill="#FFFBB3" d="m219.906 154.008-26.566-33.856c15.98-11.375 24.87-26.34 24.87-41.87 0-33.966-41.616-61.497-92.956-61.497S32.293 44.316 32.293 78.281c0 33.969 41.621 61.5 92.96 61.5 17.47 0 34.59-3.258 49.388-9.398Zm0 0"/><g clip-path="url(#a)"><path fill="none" stroke="#B2B2B2" stroke-miterlimit="10" stroke-width="14.173" d="m219.906 154.008-26.566-33.856c15.98-11.375 24.87-26.34 24.87-41.87 0-33.966-41.616-61.497-92.956-61.497S32.293 44.316 32.293 78.281c0 33.969 41.621 61.5 92.96 61.5 17.47 0 34.59-3.258 49.388-9.398Zm0 0"/></g><g fill="#B2B2B2"><use xlink:href="#b" x="87.869" y="105.663"/><use xlink:href="#c" x="95.401" y="105.663"/><use xlink:href="#c" x="98.579" y="105.663"/><use xlink:href="#d" x="101.757" y="105.663"/><use xlink:href="#e" x="104.935" y="105.663"/><use xlink:href="#f" x="111.301" y="105.663"/><use xlink:href="#g" x="115.824" y="105.663"/></g><g fill="#B2B2B2"><use xlink:href="#h" x="124.89" y="105.663"/><use xlink:href="#i" x="133.169" y="105.663"/><use xlink:href="#c" x="138.738" y="105.663"/><use xlink:href="#c" x="141.916" y="105.663"/><use xlink:href="#j" x="145.094" y="105.663"/><use xlink:href="#k" x="150.823" y="105.663"/><use xlink:href="#l" x="157.189" y="105.663"/></g><path fill="none" stroke="#B2B2B2" stroke-miterlimit="10" stroke-width=".996" d="M162.14 107.598v-58.63"/><path fill="none" stroke="#000" stroke-miterlimit="10" stroke-width=".399" d="m123.844 79.691 2.816-2.816m-2.816 0 2.816 2.816"/><use xlink:href="#m" x="106.947" y="74.206"/><use xlink:href="#n" x="110.608" y="74.206"/><use xlink:href="#o" x="114.27" y="74.206"/><use xlink:href="#p" x="117.931" y="74.206"/><use xlink:href="#q" x="121.592" y="74.206"/><use xlink:href="#r" x="125.253" y="74.206"/><use xlink:href="#s" x="128.915" y="74.206"/><use xlink:href="#q" x="132.576" y="74.206"/><use xlink:href="#t" x="136.237" y="74.206"/><use xlink:href="#u" x="139.898" y="74.206"/><path fill="none" stroke="#000" stroke-miterlimit="10" stroke-width=".399" d="m86.457 107.074 2.82-2.82m-2.82 0 2.82 2.82"/><use xlink:href="#m" x="73.224" y="114.009"/><use xlink:href="#n" x="76.885" y="114.009"/><use xlink:href="#o" x="80.547" y="114.009"/><use xlink:href="#s" x="84.208" y="114.009"/><use xlink:href="#q" x="87.869" y="114.009"/><use xlink:href="#v" x="91.53" y="114.009"/><use xlink:href="#s" x="95.192" y="114.009"/><use xlink:href="#u" x="98.853" y="114.009"/><path fill="none" stroke="#000" stroke-miterlimit="10" stroke-width=".399" d="m160.656 15.922 2.82-2.817m-2.82 0 2.82 2.817"/><use xlink:href="#m" x="151.083" y="10.437"/><use xlink:href="#n" x="154.744" y="10.437"/><use xlink:href="#o" x="158.406" y="10.437"/><use xlink:href="#w" x="162.067" y="10.437"/><use xlink:href="#x" x="165.728" y="10.437"/><use xlink:href="#u" x="169.389" y="10.437"/><path fill="none" stroke="#000" stroke-miterlimit="10" stroke-width=".399" d="m123.844 104.86 2.816-2.817m-2.816 0 2.816 2.816"/><use xlink:href="#m" x="112.439" y="99.374"/><use xlink:href="#n" x="116.1" y="99.374"/><use xlink:href="#o" x="119.762" y="99.374"/><use xlink:href="#y" x="123.423" y="99.374"/><use xlink:href="#z" x="127.084" y="99.374"/><use xlink:href="#A" x="130.745" y="99.374"/><use xlink:href="#u" x="134.407" y="99.374"/><path fill="none" stroke="#000" stroke-miterlimit="10" stroke-width=".399" d="m30.785 104.86 2.817-2.817m-2.817 0 2.817 2.816"/><use xlink:href="#m" x="35.714" y="105.585"/><use xlink:href="#n" x="39.375" y="105.585"/><use xlink:href="#o" x="43.037" y="105.585"/><use xlink:href="#y" x="46.698" y="105.585"/><use xlink:href="#z" x="50.359" y="105.585"/><use xlink:href="#A" x="54.02" y="105.585"/><use xlink:href="#B" x="61.343" y="105.585"/><use xlink:href="#q" x="65.004" y="105.585"/><use xlink:href="#n" x="68.665" y="105.585"/><use xlink:href="#s" x="72.327" y="105.585"/><use xlink:href="#u" x="75.988" y="105.585"/><path fill="none" stroke="#000" stroke-miterlimit="10" stroke-width=".399" d="m216.906 104.86 2.817-2.817m-2.817 0 2.817 2.816"/><use xlink:href="#m" x="170.858" y="105.585"/><use xlink:href="#n" x="174.519" y="105.585"/><use xlink:href="#o" x="178.181" y="105.585"/><use xlink:href="#y" x="181.842" y="105.585"/><use xlink:href="#z" x="185.503" y="105.585"/><use xlink:href="#A" x="189.164" y="105.585"/><use xlink:href="#q" x="196.48" y="105.585"/><use xlink:href="#C" x="200.141" y="105.585"/><use xlink:href="#n" x="203.802" y="105.585"/><use xlink:href="#s" x="207.464" y="105.585"/><use xlink:href="#u" x="211.125" y="105.585"/><path fill="none" stroke="#000" stroke-miterlimit="10" stroke-width=".399" d="m123.844 107.074 2.816-2.82m-2.816 0 2.816 2.82"/><use xlink:href="#m" x="110.608" y="114.009"/><use xlink:href="#n" x="114.269" y="114.009"/><use xlink:href="#o" x="117.931" y="114.009"/><use xlink:href="#D" x="121.592" y="114.009"/><use xlink:href="#C" x="125.253" y="114.009"/><use xlink:href="#n" x="128.914" y="114.009"/><use xlink:href="#q" x="132.576" y="114.009"/><use xlink:href="#u" x="136.237" y="114.009"/><path fill="none" stroke="#000" stroke-miterlimit="10" stroke-width=".399" d="m32.121 107.07 2.816-2.816m-2.816 0 2.816 2.816"/><use xlink:href="#m" x="9.733" y="114.008"/><use xlink:href="#n" x="13.394" y="114.008"/><use xlink:href="#o" x="17.056" y="114.008"/><use xlink:href="#D" x="20.717" y="114.008"/><use xlink:href="#C" x="24.378" y="114.008"/><use xlink:href="#n" x="28.039" y="114.008"/><use xlink:href="#q" x="31.701" y="114.008"/><use xlink:href="#B" x="39.023" y="114.008"/><use xlink:href="#q" x="42.684" y="114.008"/><use xlink:href="#n" x="46.346" y="114.008"/><use xlink:href="#s" x="50.007" y="114.008"/><use xlink:href="#u" x="53.668" y="114.008"/><path fill="none" stroke="#000" stroke-miterlimit="10" stroke-width=".399" d="m215.566 107.07 2.82-2.816m-2.82 0 2.82 2.816"/><use xlink:href="#m" x="193.177" y="114.008"/><use xlink:href="#n" x="196.838" y="114.008"/><use xlink:href="#o" x="200.5" y="114.008"/><use xlink:href="#D" x="204.161" y="114.008"/><use xlink:href="#C" x="207.822" y="114.008"/><use xlink:href="#n" x="211.483" y="114.008"/><use xlink:href="#q" x="215.145" y="114.008"/><use xlink:href="#q" x="222.467" y="114.008"/><use xlink:href="#C" x="226.128" y="114.008"/><use xlink:href="#n" x="229.79" y="114.008"/><use xlink:href="#s" x="233.451" y="114.008"/><use xlink:href="#u" x="237.112" y="114.008"/><path fill="none" stroke="#000" stroke-miterlimit="10" stroke-width=".399" d="m123.844 11.105 2.816-2.816m-2.816 0 2.816 2.816"/><use xlink:href="#m" x="108.778" y="5.62"/><use xlink:href="#n" x="112.439" y="5.62"/><use xlink:href="#o" x="116.101" y="5.62"/><use xlink:href="#r" x="119.762" y="5.62"/><use xlink:href="#E" x="123.423" y="5.62"/><use xlink:href="#t" x="127.084" y="5.62"/><use xlink:href="#s" x="130.746" y="5.62"/><use xlink:href="#F" x="134.407" y="5.62"/><use xlink:href="#u" x="138.068" y="5.62"/><path fill="none" stroke="#000" stroke-miterlimit="10" stroke-width=".399" d="m123.844 148.277 2.816-2.816m-2.816 0 2.816 2.816"/><use xlink:href="#m" x="108.778" y="155.214"/><use xlink:href="#n" x="112.439" y="155.214"/><use xlink:href="#o" x="116.101" y="155.214"/><use xlink:href="#n" x="119.762" y="155.214"/><use xlink:href="#E" x="123.423" y="155.214"/><use xlink:href="#G" x="127.084" y="155.214"/><use xlink:href="#s" x="130.746" y="155.214"/><use xlink:href="#F" x="134.407" y="155.214"/><use xlink:href="#u" x="138.068" y="155.214"/><path fill="none" stroke="#000" stroke-miterlimit="10" stroke-width=".399" d="m223.89 79.691 2.817-2.816m-2.816 0 2.816 2.816"/><use xlink:href="#m" x="210.653" y="74.206"/><use xlink:href="#n" x="214.314" y="74.206"/><use xlink:href="#o" x="217.976" y="74.206"/><use xlink:href="#q" x="221.637" y="74.206"/><use xlink:href="#C" x="225.298" y="74.206"/><use xlink:href="#n" x="228.959" y="74.206"/><use xlink:href="#s" x="232.621" y="74.206"/><use xlink:href="#u" x="236.282" y="74.206"/><path fill="none" stroke="#000" stroke-miterlimit="10" stroke-width=".399" d="m23.797 79.691 2.82-2.816m-2.82 0 2.82 2.816"/><use xlink:href="#m" x="10.564" y="74.206"/><use xlink:href="#n" x="14.225" y="74.206"/><use xlink:href="#o" x="17.887" y="74.206"/><use xlink:href="#B" x="21.548" y="74.206"/><use xlink:href="#q" x="25.209" y="74.206"/><use xlink:href="#n" x="28.87" y="74.206"/><use xlink:href="#s" x="32.532" y="74.206"/><use xlink:href="#u" x="36.193" y="74.206"/><path fill="none" stroke="#000" stroke-miterlimit="10" stroke-width=".399" d="m53.102 31.195 2.816-2.82m-2.816 0 2.816 2.82"/><use xlink:href="#m" x="-.266" y="25.709"/><use xlink:href="#n" x="3.395" y="25.709"/><use xlink:href="#o" x="7.057" y="25.709"/><use xlink:href="#r" x="10.718" y="25.709"/><use xlink:href="#E" x="14.379" y="25.709"/><use xlink:href="#t" x="18.04" y="25.709"/><use xlink:href="#s" x="21.702" y="25.709"/><use xlink:href="#F" x="25.363" y="25.709"/><use xlink:href="#B" x="32.678" y="25.709"/><use xlink:href="#q" x="36.34" y="25.709"/><use xlink:href="#n" x="40.001" y="25.709"/><use xlink:href="#s" x="43.662" y="25.709"/><use xlink:href="#u" x="47.324" y="25.709"/><path fill="none" stroke="#000" stroke-miterlimit="10" stroke-width=".399" d="m194.586 31.195 2.82-2.82m-2.82 0 2.82 2.82"/><use xlink:href="#m" x="199.516" y="25.709"/><use xlink:href="#n" x="203.177" y="25.709"/><use xlink:href="#o" x="206.839" y="25.709"/><use xlink:href="#r" x="210.5" y="25.709"/><use xlink:href="#E" x="214.161" y="25.709"/><use xlink:href="#t" x="217.822" y="25.709"/><use xlink:href="#s" x="221.484" y="25.709"/><use xlink:href="#F" x="225.145" y="25.709"/><use xlink:href="#q" x="232.46" y="25.709"/><use xlink:href="#C" x="236.122" y="25.709"/><use xlink:href="#n" x="239.783" y="25.709"/><use xlink:href="#s" x="243.444" y="25.709"/><use xlink:href="#u" x="247.106" y="25.709"/><path fill="none" stroke="#000" stroke-miterlimit="10" stroke-width=".399" d="m53.102 128.191 2.816-2.82m-2.816 0 2.816 2.82"/><use xlink:href="#m" x="-.266" y="135.126"/><use xlink:href="#n" x="3.395" y="135.126"/><use xlink:href="#o" x="7.057" y="135.126"/><use xlink:href="#n" x="10.718" y="135.126"/><use xlink:href="#E" x="14.379" y="135.126"/><use xlink:href="#G" x="18.04" y="135.126"/><use xlink:href="#s" x="21.702" y="135.126"/><use xlink:href="#F" x="25.363" y="135.126"/><use xlink:href="#B" x="32.678" y="135.126"/><use xlink:href="#q" x="36.34" y="135.126"/><use xlink:href="#n" x="40.001" y="135.126"/><use xlink:href="#s" x="43.662" y="135.126"/><use xlink:href="#u" x="47.324" y="135.126"/><path fill="none" stroke="#000" stroke-miterlimit="10" stroke-width=".399" d="m194.586 128.191 2.82-2.82m-2.82 0 2.82 2.82"/><use xlink:href="#m" x="199.516" y="135.126"/><use xlink:href="#n" x="203.177" y="135.126"/><use xlink:href="#o" x="206.839" y="135.126"/><use xlink:href="#n" x="210.5" y="135.126"/><use xlink:href="#E" x="214.161" y="135.126"/><use xlink:href="#G" x="217.822" y="135.126"/><use xlink:href="#s" x="221.484" y="135.126"/><use xlink:href="#F" x="225.145" y="135.126"/><use xlink:href="#q" x="232.46" y="135.126"/><use xlink:href="#C" x="236.122" y="135.126"/><use xlink:href="#n" x="239.783" y="135.126"/><use xlink:href="#s" x="243.444" y="135.126"/><use xlink:href="#u" x="247.106" y="135.126"/><path fill="none" stroke="#000" stroke-miterlimit="10" stroke-width=".399" d="m244.375 176.918 2.82-2.816m-2.82 0 2.82 2.816"/><use xlink:href="#m" x="225.647" y="183.854"/><use xlink:href="#n" x="229.308" y="183.854"/><use xlink:href="#o" x="232.97" y="183.854"/><use xlink:href="#H" x="236.631" y="183.854"/><use xlink:href="#E" x="240.292" y="183.854"/><use xlink:href="#z" x="243.953" y="183.854"/><use xlink:href="#r" x="247.615" y="183.854"/><use xlink:href="#s" x="251.276" y="183.854"/><use xlink:href="#q" x="254.937" y="183.854"/><use xlink:href="#t" x="258.598" y="183.854"/><use xlink:href="#u" x="262.26" y="183.854"/></svg>