<svg xmlns="http://www.w3.org/2000/svg" xmlns:xlink="http://www.w3.org/1999/xlink" width="50.114" height="97.487"><defs><path id="a" d="M5.516-.234c0-.235-.125-.235-.266-.235-.61-.015-.61-.14-.61-.375v-2.14c0-.891-.702-1.532-2.187-1.532-.562 0-1.781.047-1.781.922 0 .438.344.625.61.625.312 0 .624-.219.624-.625 0-.297-.187-.469-.218-.5a5 5 0 0 1 .718-.062c.75 0 1.11.422 1.11 1.172v.343c-.72.032-3.25.125-3.25 1.563C.266-.125 1.5.062 2.188.062c.796 0 1.265-.406 1.484-.828 0 .313 0 .766 1.047.766h.468c.204 0 .329 0 .329-.234m-2-1.157c0 .97-.922 1.094-1.172 1.094-.516 0-.906-.344-.906-.797 0-1.062 1.578-1.203 2.078-1.234Zm0 0"/><path id="b" d="M8.328 0v-.469h-.984L4.828-3.953 6.5-6.156c.11-.14.125-.157.469-.188.234-.031.297-.031.578-.031h.281v-.469c-.406.032-.906.032-1.328.032-.39 0-1.156 0-1.516-.032v.469c.172 0 .563 0 .922.11-.015.03-.062.077-.078.109L4.5-4.406 3.078-6.375h.828v-.469c-.406.032-1.36.032-1.797.032-.406 0-1.265 0-1.625-.032v.469h.985l2.203 3.063-2 2.64c-.094.125-.11.14-.438.172-.203.016-.406.031-.609.031H.344V0c.406-.031.906-.031 1.328-.031.39 0 1.156 0 1.516.031v-.469c-.172 0-.563 0-.922-.11.015-.015.062-.077.093-.109L4-2.874 5.734-.469h-.828V0c.407-.031 1.36-.031 1.797-.031.406 0 1.266 0 1.625.031m0 0"/><path id="c" d="M5.563-3.953c0-.235-.172-.578-.625-.578-.157 0-.625.031-1.063.375-.172-.125-.594-.328-1.328-.328-1.438 0-1.985.78-1.985 1.468 0 .407.188.829.516 1.047-.281.36-.344.688-.344.89 0 .157.047.642.438.954-.125.031-.86.25-.86.875C.313 1.25.876 2 2.86 2 4.625 2 5.406 1.422 5.406.719c0-.297-.078-.922-.75-1.266-.562-.281-1.156-.281-2.11-.281-.265 0-.718 0-.765-.016a.625.625 0 0 1-.562-.625c0-.093.047-.25.11-.328.452.234.968.266 1.218.266 1.437 0 1.984-.782 1.984-1.485 0-.468-.25-.796-.406-.953.297-.156.516-.172.625-.187a.43.43 0 0 0-.047.203c0 .25.172.422.438.422a.41.41 0 0 0 .422-.422m-2.141.937c0 .454 0 1.125-.875 1.125s-.875-.671-.875-1.125c0-.437 0-1.109.875-1.109s.875.672.875 1.11M4.547.75c0 .36-.39.89-1.688.89-1.187 0-1.687-.452-1.687-.906 0-.609.625-.609.766-.609h1.171c.313 0 1.438 0 1.438.625m0 0"/></defs><path fill="none" stroke="red" stroke-miterlimit="10" stroke-width=".399" d="M.758 39.336h47.715V.94H.758Zm0 0"/><path fill="none" stroke="#000" stroke-miterlimit="10" stroke-width=".399" d="M4.277 18h12.207V6.785H4.277Zm0 0"/><use xlink:href="#a" x="7.597" y="14.618"/><path fill="none" stroke="#000" stroke-miterlimit="10" stroke-width=".399" d="M16.883 17.938h15.3V4.464h-15.3Zm0 0"/><use xlink:href="#b" x="20.205" y="14.618"/><path fill="none" stroke="#000" stroke-miterlimit="10" stroke-width=".399" d="M32.582 19.941h12.371V6.766H32.582Zm0 0"/><use xlink:href="#c" x="35.902" y="14.618"/><path fill="none" stroke="#000" stroke-miterlimit="10" stroke-width=".399" d="M4.277 33.875h12.207V22.66H4.277Zm0 0"/><use xlink:href="#a" x="7.597" y="30.494"/><path fill="none" stroke="#000" stroke-miterlimit="10" stroke-width=".399" d="M16.883 33.816h15.3V20.34h-15.3Zm0 0"/><use xlink:href="#b" x="20.205" y="30.494"/><path fill="none" stroke="#000" stroke-miterlimit="10" stroke-width=".399" d="M32.582 35.816h12.371V22.641H32.582Zm0 0"/><use xlink:href="#c" x="35.902" y="30.494"/><path fill="none" stroke="red" stroke-miterlimit="10" stroke-width=".399" d="M.758 96.031h47.715V49.133H.758Zm0 0"/><path fill="none" stroke="#000" stroke-miterlimit="10" stroke-width=".399" d="M4.277 66.188h12.207V54.973H4.277Zm0 0"/><use xlink:href="#a" x="7.597" y="62.807"/><path fill="none" stroke="#000" stroke-miterlimit="10" stroke-width=".399" d="M16.883 66.129h15.3V52.652h-15.3Zm0 0"/><use xlink:href="#b" x="20.205" y="62.807"/><path fill="none" stroke="#000" stroke-miterlimit="10" stroke-width=".399" d="M32.582 68.129h12.371V54.953H32.582Zm0 0"/><use xlink:href="#c" x="35.902" y="62.807"/><path fill="none" stroke="#000" stroke-miterlimit="10" stroke-width=".399" d="M4.277 90.566h12.207v-11.21H4.277Zm0 0"/><use xlink:href="#a" x="7.597" y="87.188"/><path fill="none" stroke="#000" stroke-miterlimit="10" stroke-width=".399" d="M16.883 90.508h15.3V77.03h-15.3Zm0 0"/><use xlink:href="#b" x="20.205" y="87.188"/><path fill="none" stroke="#000" stroke-miterlimit="10" stroke-width=".399" d="M32.582 92.512h12.371v-13.18H32.582Zm0 0"/><use xlink:href="#c" x="35.902" y="87.188"/></svg>