<svg xmlns="http://www.w3.org/2000/svg" xmlns:xlink="http://www.w3.org/1999/xlink" width="71.216" height="97.112"><defs><path id="a" d="m4.922 0 .203-.469h-1.39l2.562-5.734c.11-.234.156-.328-.11-.328-.109 0-.125 0-.25.078-1.015.562-2.046.562-2.25.562h-.203l-.218.47h.203c.156 0 .719-.016 1.39-.204L2.547-.469h-1.39L.952 0c.453-.031 1.516-.031 2-.031.485 0 1.547 0 1.969.031m0 0"/><path id="b" d="M-4.172 2.219h.469c-.047-.203-.25-.844-.125-.906.078-.063.828-.063.984-.063h1.469c-.297.39-.64.813-.937 1.14-.75.844-1.188 1.313-.766 2.25.515 1.157 1.89 1.891 3.281 1.891 1.219 0 1.875-.625 1.469-1.515A1.21 1.21 0 0 0 .625 4.28c-.328 0-.61.219-.39.719.234.516.718.672.89.719-.187.234-.531.343-.89.343-.844 0-1.61-.671-1.938-1.421-.313-.688-.25-1.375.14-2.078L-.468.515C-.375.406-.39.375-.484.172L-.563 0h-4.28Zm0 0"/><path id="j" d="m-4.922 0 .203.469h1.39l2.563 5.734c.11.234.157.328.422.328.11 0 .125 0 .188-.078.515-.562 1.547-.562 1.75-.562h.203l-.219-.47h-.203c-.156 0-.687.016-1.203.204L-2.141.469H-.75L-.953 0c-.422.031-1.485.031-1.969.031s-1.547 0-2-.031m0 0"/><path id="c" d="M.922-6.297C.125-7.28-.875-7.359-1.531-6.03c-.125.25-.36.75-.344 1.437l-.906-1.125c.156-.203.219-.265.375-.562.64-1.297.281-3.078.11-3.297-.048-.063-.142-.14-.188-.031-.016.03-.016.03-.032.156a6.3 6.3 0 0 1-.5 1.625c-.343.656-.718.969-.89 1.125-.063.062-.063.047-.078.078-.063.125.015.219.109.344l2.031 2.484c.125.14.219.25.313.063.062-.11.047-.172.015-.297-.14-.75.032-1.313.204-1.672C-.906-6.5-.298-5.75.25-5.078c.516.625 1.203 1.469.672 2.531-.11.235-.438.735-1.016.625a1.08 1.08 0 0 0-.172-1.14c-.359-.454-.656-.188-.765.015-.063.125-.235.688.187 1.203.578.719 1.516.735 2.078-.375.704-1.422.532-3.047-.312-4.078m0 0"/><path id="d" d="M-.312 4.797c1.187.047 2.078-.703 2.593-1.11.078.626.422.938 1.063.954 1.11.046 2-.735 2.515-1.75.61-1.235.063-1.907-.984-1.938-.484-.031-1.25.094-2.062.766C2.78.969 2.343.547 1.547.516.219.453-.828 1.39-1.391 2.546-2.109 3.97-1.5 4.735-.312 4.797m3.968-.828c-.515-.016-.765-.25-.906-.672l1.594-1.281c.156-.141.468-.391.843-.375.782.03.438.843.266 1.203C5.078 3.578 4.422 4 3.656 3.969m-4.187.015c-.906-.046-.672-.875-.406-1.39.421-.875 1.25-1.36 2.109-1.328.828.03 1.078.53 1.125.859L.875 3.313C.391 3.687 0 4-.531 3.984m0 0"/><path id="g" d="m6.766-1.703-1.22-1.625c-.14-.188-1.015-1.39-1.062-1.563-.109-.187-.078-.296-.03-.406l-.282-.375-1.547 2.156.281.375c.453-.656.594-.671.64-.656.095.031.579.688.688.813l1 1.343c-.218.063-.437.125-.671.172C3.39-1.156 2.25-.437 1.469.97c-.375.672-.047 1.125 0 1.172.093.125.406.453.75-.172l.25-.453c.25-.453.531-.891.812-1.282.406-.562.844-.968 1.281-1.062l1.875-.485c.125-.03.141-.062.329-.39m0 0"/><path id="h" d="m5.406 0-.203-.469h-.969l-.5-1.094h.97L4.5-2.03h-.969L1.656-6.22c-.125-.265-.156-.328-.437-.328-.219 0-.219.016-.266.172L-.594-2.031l.203.469h2.875l.5 1.093H1.875L2.078 0c.36-.031 1.266-.031 1.688-.031.406 0 1.265 0 1.64.031M2.391-2.031H-.062L1.016-5.11Zm0 0"/><path id="i" d="M-6.719 3.281c-.297.672-1.453 3.25.922 3.25 1.406 0 2.75-.812 3.344-2.14.625-1.375-.031-2.125-1.25-2.125-.36 0-.86.062-1.547.765l.11-.219c.327-.734.671-1.312.968-1.656.344-.39.984-.843 1.672-.843.172 0 .516.03.734.218-.125.031-.562.172-.765.625-.156.344-.047.625.344.625s.75-.265.906-.64C-.97.453-1.234-.11-2.328-.11c-1.297 0-3.25.843-4.39 3.39m.938.985c.281-.625.984-1.641 1.828-1.641.953 0 .61.75.172 1.734-.438.985-.797 1.782-1.875 1.782-.578 0-.563-.532-.578-.625.046-.328.297-.907.453-1.25m0 0"/><path id="n" d="m2.203 4.406.328-.39-.625-1.25 3.985-4.86c.156-.203.218-.281.093-.515-.046-.094-.046-.11-.14-.141-.735-.187-1.188-1.11-1.282-1.297l-.093-.187-.328.39.093.188c.063.14.329.61.72.984L1.374 1.703.75.47l-.328.39c.219.36.687 1.297.906 1.735.219.437.688 1.39.875 1.812m0 0"/><path id="o" d="M4.578 2.016c.656-.797 2.313-2.844 1.234-4.985-1.078-2.156-2.718-.14-3.39.672C1.719-1.453.125.5 1.203 2.656c1.063 2.14 2.672.203 3.375-.64M4.078.78c-.39.485-1.031 1.25-1.422 1.625-.703.64-1.078.203-1.203-.062-.156-.328-.266-1 .188-1.735.312-.53 1.03-1.406 1.422-1.875.484-.609.953-1.156 1.343-1.515.672-.64 1.047-.11 1.157.11.171.327.218.858.015 1.39-.203.484-.937 1.375-1.5 2.062m0 0"/><path id="q" d="M-4.578-4.61c-1.531.063-1.875 1.032-1.344 2.094.11.204.36.704 1.375 1.032l-.203.015c-1.25.047-1.812-.11-2-.172-.64-.187-1.266-.64-1.531-1.187-.078-.156-.203-.469-.047-.688.219.313.578.47.906.454.375-.016.578-.235.406-.594C-7.187-4-7.594-4.203-8-4.187c-.687.03-1.172.453-.703 1.39.61 1.203 2.281 2.625 5.031 2.516.86-.047 1.688-.14 2.266-.547.61-.469.547-1.14.234-1.766-.625-1.234-1.937-2.078-3.406-2.015m.594 1.22c1.093-.047 1.906-.079 2.359.828.219.468-.078.718-.234.812-.266.156-1.063.188-1.266.188-1.36.062-2.11-.391-2.36-.875-.421-.86.407-.907 1.5-.954m0 0"/><path id="r" d="M-1.094 6.219C-.719 6.687 0 7.156.86 6.125c-.156.797-.093 1.906.5 2.64.547.641 1.313.5 1.938-.765.531-1.062.437-2.297-.125-2.969-.281-.36-.625-.312-.781.016-.203.406-.094.906.156 1.203.39.5.719.11.75.078.031.563-.094 1.016-.235 1.297-.374.734-.843.219-1.062-.062-.094-.094-1-1.235-.578-2.204.187-.375.203-.406.203-.468.031-.079-.031-.203-.078-.25-.11-.141-.156-.047-.234.109l-.188.39c-.484.985-1.172.141-1.531-.296-.328-.39-1.031-1.25-.578-2.172.125-.235.375-.672.797-.844-.079.375-.016.797.28 1.14.313.391.657.376.845-.015A1.27 1.27 0 0 0 .75 1.61c-.625-.765-1.484-.406-2.047.75-.797 1.579-.422 3.094.203 3.86m0 0"/><clipPath id="e"><path d="M56 23h14.824v28H56Zm0 0"/></clipPath><clipPath id="f"><path d="M46 20h24.824v16H46Zm0 0"/></clipPath><clipPath id="k"><path d="M12 86h29v10.668H12Zm0 0"/></clipPath><clipPath id="l"><path d="M12 71h20v25.668H12Zm0 0"/></clipPath><clipPath id="m"><path d="M29 71h20v25.668H29Zm0 0"/></clipPath><clipPath id="p"><path d="M1 69h20v27.668H1Zm0 0"/></clipPath></defs><use xlink:href="#a" x="25.805" y="26.856"/><use xlink:href="#b" x="31.52" y="5.119"/><path fill="none" stroke="#000" stroke-miterlimit="10" stroke-width=".399" d="M17.813.773H34.82"/><path fill="none" stroke="#7F7F7F" stroke-miterlimit="10" stroke-width=".199" d="m34.816.777 7.606 15.215"/><path fill="none" stroke="#000" stroke-miterlimit="10" stroke-width=".399" d="m34.816.777 6.844 6.086.762 9.13"/><path fill="none" stroke="#7F7F7F" stroke-miterlimit="10" stroke-width=".199" d="M42.43 15.984H25.418M25.418 15.984 17.813.774"/><use xlink:href="#c" x="44.663" y="35.679"/><use xlink:href="#d" x="55.097" y="34.477"/><g clip-path="url(#e)"><path fill="none" stroke="#000" stroke-miterlimit="10" stroke-width=".399" d="m69.633 29.594-7.606 15.21"/></g><path fill="none" stroke="#000" stroke-miterlimit="10" stroke-width=".399" d="M62.023 44.797H45.02"/><path fill="none" stroke="#7F7F7F" stroke-miterlimit="10" stroke-width=".199" d="m45.02 44.805 7.605-15.211M52.625 29.594h17.008"/><g clip-path="url(#f)"><path fill="none" stroke="#000" stroke-miterlimit="10" stroke-width=".399" d="m52.625 29.594 8.504-3.403 8.504 3.403"/></g><path fill="none" stroke="#000" stroke-miterlimit="10" stroke-width=".399" d="M45.02 44.797 34.816 31.195"/><path fill="none" stroke="#7F7F7F" stroke-miterlimit="10" stroke-width=".199" d="m34.816 31.2 7.606-15.212"/><use xlink:href="#g" x="47.84" y="16.062"/><path fill="none" stroke="#000" stroke-miterlimit="10" stroke-width=".399" d="M50.027.777 60.23 14.383M60.223 14.383 52.617 29.59"/><path fill="none" stroke="#7F7F7F" stroke-miterlimit="10" stroke-width=".199" d="M52.625 29.594 42.422 15.988"/><path fill="none" stroke="#000" stroke-miterlimit="10" stroke-width=".399" d="M42.422 15.988 50.027.778"/><use xlink:href="#h" x="28.724" y="42.067"/><use xlink:href="#i" x="34.412" y="50.802"/><use xlink:href="#j" x="34.398" y="65.959"/><use xlink:href="#b" x="28.669" y="65.959"/><use xlink:href="#a" x="22.927" y="87.696"/><use xlink:href="#a" x="28.656" y="87.696"/><path fill="none" stroke="#7F7F7F" stroke-miterlimit="10" stroke-width=".199" d="M34.82 92.043H17.813"/><g clip-path="url(#k)"><path fill="none" stroke="#000" stroke-miterlimit="10" stroke-width=".399" d="m34.82 92.043-8.504 3.402-8.503-3.402"/></g><g clip-path="url(#l)"><path fill="none" stroke="#000" stroke-miterlimit="10" stroke-width=".399" d="m17.82 92.04 7.606-15.212"/></g><path fill="none" stroke="#7F7F7F" stroke-miterlimit="10" stroke-width=".199" d="M25.418 76.832H42.43M42.43 76.832l-7.61 15.211"/><g clip-path="url(#m)"><path fill="none" stroke="#000" stroke-miterlimit="10" stroke-width=".399" d="m42.43 76.832-.762 9.125-6.848 6.086"/></g><use xlink:href="#n" x="11.737" y="73.619"/><use xlink:href="#o" x="14.299" y="78.742"/><path fill="none" stroke="#7F7F7F" stroke-miterlimit="10" stroke-width=".199" d="M15.223 90.43 7.617 75.219"/><g clip-path="url(#p)"><path fill="none" stroke="#000" stroke-miterlimit="10" stroke-width=".399" d="m15.223 90.43-6.848-6.086-.758-9.125"/></g><path fill="none" stroke="#000" stroke-miterlimit="10" stroke-width=".399" d="m7.625 75.219 10.203-13.606"/><path fill="none" stroke="#7F7F7F" stroke-miterlimit="10" stroke-width=".199" d="m17.82 61.613 7.606 15.211M25.426 76.824 15.223 90.43M17.813 61.621H34.82M34.82 61.621l7.61 15.211"/><path fill="none" stroke="#000" stroke-miterlimit="10" stroke-width=".399" d="m34.82 61.621 6.848 6.082.762 9.129M17.82 61.617l7.606-15.21"/><path fill="none" stroke="#7F7F7F" stroke-miterlimit="10" stroke-width=".199" d="M25.418 46.406H42.43M42.43 46.406l-7.61 15.215"/><path fill="none" stroke="#000" stroke-miterlimit="10" stroke-width=".399" d="m42.43 46.406-.762 9.13-6.848 6.085"/><use xlink:href="#q" x="17.91" y="41.197"/><path fill="none" stroke="#7F7F7F" stroke-miterlimit="10" stroke-width=".199" d="M8.418 46.402.813 31.187"/><path fill="none" stroke="#000" stroke-miterlimit="10" stroke-width=".399" d="m8.418 46.402-6.844-6.086-.762-9.129"/><path fill="none" stroke="#7F7F7F" stroke-miterlimit="10" stroke-width=".199" d="M.816 31.191h17.008"/><path fill="none" stroke="#000" stroke-miterlimit="10" stroke-width=".399" d="m.816 31.191 8.504-3.398 8.504 3.398"/><path fill="none" stroke="#7F7F7F" stroke-miterlimit="10" stroke-width=".199" d="m17.82 31.188 7.606 15.214M25.426 46.402H8.418"/><path fill="none" stroke="#000" stroke-miterlimit="10" stroke-width=".399" d="m25.426 46.402-8.504 3.399-8.504-3.399"/><path fill="none" stroke="#7F7F7F" stroke-miterlimit="10" stroke-width=".199" d="M17.813 31.195H34.82M34.82 31.195l7.61 15.211"/><use xlink:href="#r" x="15.574" y="11.505"/><path fill="none" stroke="#000" stroke-miterlimit="10" stroke-width=".399" d="m7.61 17.59 7.605-15.211M15.215 2.387l10.207 13.601"/><path fill="none" stroke="#7F7F7F" stroke-miterlimit="10" stroke-width=".199" d="m25.418 15.984-7.605 15.211"/><path fill="none" stroke="#000" stroke-miterlimit="10" stroke-width=".399" d="M17.813 31.195 7.608 17.59"/></svg>