<svg xmlns="http://www.w3.org/2000/svg" width="87.158" height="58.448"><path fill="none" stroke="#000" stroke-miterlimit="10" stroke-width=".399" d="M.688 41.04c20.34-11.743 40.12-15.169 60.132-10.278"/><path d="M85.727 41.04a176 176 0 0 0-9.797-12.747 148 148 0 0 0-11.743-11.3 134 134 0 0 0-14.152-9.4A137 137 0 0 0 33.383.744a161 161 0 0 1 8.758 13.695 152 152 0 0 1 6.336 14.359 142 142 0 0 0-5.985 13.984 139 139 0 0 0-3.566 14.38A66 66 0 0 1 46.922 50c3.219-2.047 6.734-3.879 10.535-5.473 4.086-1.332 8.445-2.382 13.063-3.136 4.855-.438 9.972-.536 15.207-.352m0 0"/></svg>