<svg xmlns="http://www.w3.org/2000/svg" width="48.029" height="12.332"><defs><clipPath id="a"><path d="M0 0h47.543v11.996H0Zm0 0"/></clipPath><clipPath id="b"><path d="M0 1h10v10.996H0Zm0 0"/></clipPath><clipPath id="c"><path d="M23 1h15v10.996H23Zm0 0"/></clipPath><clipPath id="d"><path d="M37 0h10.543v11H37Zm0 0"/></clipPath></defs><g clip-path="url(#a)"><path fill="none" stroke="#BFBFBF" stroke-miterlimit="10" stroke-width=".399" d="m2.262 8.664 14.176-5.672 14.171 5.672 14.176-5.672"/></g><path fill="#D2C92A" d="m.77 8.664 1.492 1.992 1.496-1.992"/><path fill="#FFF" d="M3.758 8.664 2.262 6.672.77 8.664"/><g clip-path="url(#b)"><path fill="none" stroke="#000" stroke-miterlimit="10" stroke-width=".399" d="M3.758 8.664 2.262 6.672.77 8.664l1.492 1.992Zm0 0"/></g><path fill="#D2C92A" d="m14.941 2.992 1.496 1.992 1.493-1.992"/><path fill="#FFF" d="M17.93 2.992 16.438 1 14.94 2.992"/><path fill="none" stroke="#000" stroke-miterlimit="10" stroke-width=".399" d="M17.93 2.992 16.438 1 14.94 2.992l1.496 1.992Zm0 0"/><path fill="#D2C92A" d="m29.117 8.664 1.492 1.992 1.496-1.992"/><path fill="#FFF" d="M32.105 8.664 30.61 6.672l-1.492 1.992"/><g clip-path="url(#c)"><path fill="none" stroke="#000" stroke-miterlimit="10" stroke-width=".399" d="M32.105 8.664 30.61 6.672l-1.492 1.992 1.492 1.992Zm0 0"/></g><path fill="#D2C92A" d="m43.29 2.992 1.495 1.992 1.492-1.992"/><path fill="#FFF" d="M46.277 2.992 44.785 1 43.29 2.992"/><g clip-path="url(#d)"><path fill="none" stroke="#000" stroke-miterlimit="10" stroke-width=".399" d="M46.277 2.992 44.785 1 43.29 2.992l1.496 1.992Zm0 0"/></g></svg>