<svg xmlns="http://www.w3.org/2000/svg" width="41.402" height="41.384"><defs><clipPath id="a"><path d="M0 23h18v18.074H0Zm0 0"/></clipPath></defs><g clip-path="url(#a)"><path fill="none" stroke="#000" stroke-miterlimit="10" stroke-width=".399" d="M11.742 29.04 1.152 39.628"/></g><path fill="none" stroke="#000" stroke-linecap="round" stroke-linejoin="round" stroke-miterlimit="10" stroke-width=".31899681" d="M3.125 39.91c-.492-.351-1.902-.21-2.184-.07.141-.281.282-1.692-.07-2.184"/><path fill="none" stroke="#000" stroke-miterlimit="10" stroke-width=".399" d="M11.742 29.04V1.151"/><path fill="none" stroke="#000" stroke-linecap="round" stroke-linejoin="round" stroke-miterlimit="10" stroke-width=".319" d="M10.148 2.348c.598-.102 1.493-1.196 1.594-1.496.098.3.996 1.394 1.594 1.496"/><path fill="none" stroke="#000" stroke-miterlimit="10" stroke-width=".399" d="M11.742 29.04H39.63"/><path fill="none" stroke="#000" stroke-linecap="round" stroke-linejoin="round" stroke-miterlimit="10" stroke-width=".319" d="M38.434 27.445c.101.598 1.195 1.496 1.496 1.594-.301.102-1.395.996-1.496 1.594"/></svg>