<svg xmlns="http://www.w3.org/2000/svg" width="96.579" height="82.244"><path fill="none" stroke="#7F7F7F" stroke-miterlimit="10" stroke-width=".199" d="M10.23 80.762h85.04M10.23 52.418h85.04m-85.04-28.34h85.04M10.23 80.762V24.07m28.348 56.692V24.07m28.344 56.692V24.07m28.34 56.692V24.07"/><path fill="none" stroke="#000" stroke-miterlimit="10" stroke-width=".399" d="M.953 47.336c2.543.996 4.992 1.945 7.328 2.875 2.223.941 4.336 1.914 6.348 2.937a87 87 0 0 1 5.629 3.461c1.816 1.282 3.644 2.567 5.523 3.977 1.93 1.348 3.977 2.766 6.117 4.105a74 74 0 0 0 7.5 3.848c2.914 1.094 6.082 2.059 9.563 2.887 3.828.668 7.95 1.117 12.488 1.347M5.637 41.172c2.789.723 5.441 1.398 7.922 2.086a56 56 0 0 1 6.476 2.504c1.89 1.035 3.7 2.207 5.438 3.453a175 175 0 0 1 5.136 4.215 140 140 0 0 0 5.57 4.425 64 64 0 0 0 6.762 4.07c2.637 1.153 5.508 2.16 8.657 3.009 3.453.66 7.207 1.09 11.324 1.28M8.965 33.653c3.11.38 6.008.766 8.668 1.266a38.6 38.6 0 0 1 6.773 2.504 49 49 0 0 1 5.567 3.89 172 172 0 0 1 5.125 4.72 143 143 0 0 0 5.386 4.863 60 60 0 0 0 6.383 4.332 50.3 50.3 0 0 0 8.082 3.09c3.196.636 6.684 1.027 10.496 1.152M10.23 24.07c3.325.137 6.625.575 9.579 1.266a44.8 44.8 0 0 1 7.523 3.328 64 64 0 0 1 6.164 4.684 203 203 0 0 1 5.516 5.332 151 151 0 0 0 5.574 5.273 59 59 0 0 0 6.332 4.516 45 45 0 0 0 7.805 3.043c3.05.566 6.367.863 9.98.867m-57.207-37.89a69.6 69.6 0 0 1 9.582 2.175 61 61 0 0 1 8.34 4.074 86 86 0 0 1 6.953 5.278 264 264 0 0 1 6.133 5.73 168 168 0 0 0 5.973 5.45 58 58 0 0 0 6.515 4.464 41.5 41.5 0 0 0 7.758 2.77c2.984.422 6.21.55 9.71.36M14.825 6.968c2.89.824 5.828 1.789 8.758 2.922a83 83 0 0 1 8.34 4.375 113 113 0 0 1 7.379 5.402c2.285 1.91 4.469 3.816 6.648 5.715a153 153 0 0 0 6.371 5.258 57 57 0 0 0 6.793 4.086 39 39 0 0 0 7.828 2.187c2.985.176 6.168.04 9.618-.45M19.5.81a154 154 0 0 1 7.965 3.523 119 119 0 0 1 7.902 4.5 179 179 0 0 1 7.383 5.215c2.355 1.797 4.594 3.578 6.887 5.324 2.18 1.668 4.43 3.25 6.629 4.703a52 52 0 0 0 7.039 3.352 36.6 36.6 0 0 0 7.925 1.27c3.008-.188 6.176-.7 9.61-1.598M.953 47.336a70 70 0 0 0 3.61-4.523 48 48 0 0 0 2.949-5.188A44.4 44.4 0 0 0 9.5 31.477c.41-2.41.652-4.91.73-7.407.075-2.496.317-5 .727-7.406a45 45 0 0 1 1.988-6.148 48 48 0 0 1 2.95-5.188A68 68 0 0 1 19.508.801M8.28 50.21a94 94 0 0 0 4.043-5.106 67 67 0 0 0 3.473-5.824 60 60 0 0 0 2.574-6.691 75 75 0 0 0 1.442-7.254c.289-2.352.562-4.59.878-6.695q.57-2.959 1.438-5.559a37.6 37.6 0 0 1 2.312-4.664 52 52 0 0 1 3.032-4.094M14.629 53.148c1.41-1.773 2.789-3.597 4.125-5.457A92 92 0 0 0 22.39 41.7a82 82 0 0 0 2.882-6.472 110 110 0 0 0 2.059-6.563c.547-2.105 1.063-4.137 1.566-6.078a79 79 0 0 1 1.66-5.254c.653-1.57 1.344-3.066 2.13-4.496a51 51 0 0 1 2.69-4.012M20.259 56.61a201 201 0 0 0 3.96-5.484 129 129 0 0 0 3.626-5.812c1.097-1.993 2.133-4 3.101-6.012a174 174 0 0 0 2.551-5.953c.754-1.918 1.477-3.782 2.18-5.586a136 136 0 0 1 2.117-5.035 83 83 0 0 1 2.324-4.512 95 95 0 0 1 2.653-4.172M25.78 60.586a453 453 0 0 0 3.637-5.336q1.788-2.729 3.5-5.5c1.105-1.86 2.18-3.719 3.21-5.578a316 316 0 0 0 2.884-5.492c.898-1.785 1.777-3.54 2.64-5.254q1.277-2.518 2.555-4.926a187 187 0 0 1 2.633-4.637 231 231 0 0 1 2.8-4.5m-17.714 45.38a561 561 0 0 1 3.18-5.134 845 845 0 0 0 3.25-5.214 493 493 0 0 0 3.18-5.243 884 884 0 0 0 3.05-5.199l2.93-5.09q1.448-2.496 2.89-4.957a701 701 0 0 1 2.922-4.886l3-4.954M39.43 68.57a159 159 0 0 1 2.593-4.965q1.402-2.497 2.868-5.007a775 775 0 0 1 2.988-5.055q1.517-2.537 3.039-5.074 1.523-2.55 3.059-5.098l3.082-5.144c1.03-1.739 2.074-3.497 3.12-5.278a364 364 0 0 0 3.169-5.539M49.03 71.46a81 81 0 0 1 1.864-4.874 147 147 0 0 1 2.328-4.934c.851-1.66 1.734-3.332 2.64-5.015a552 552 0 0 1 2.86-5.125c.988-1.742 1.992-3.5 3.004-5.278 1.027-1.804 2.07-3.632 3.12-5.496a470 470 0 0 0 3.204-5.808 340 340 0 0 0 3.258-6.27m-9.875 44.113q.374-2.443.988-4.906a88 88 0 0 1 1.637-4.992 155 155 0 0 1 2.129-5.145q1.195-2.631 2.503-5.351a732 732 0 0 1 2.778-5.637q1.466-2.928 2.992-6.008a522 522 0 0 0 3.14-6.5c1.07-2.3 2.153-4.683 3.231-7.144"/><path fill="none" stroke="#00F" stroke-miterlimit="10" stroke-width="1.196" d="M29.418 20.738a46.3 46.3 0 0 0-9.04.008c-3.237.672-6.757 1.82-10.148 3.324 3.239 1.813 6.266 3.938 8.747 6.121a46.4 46.4 0 0 1 5.43 7.23"/><path fill="none" stroke="red" stroke-miterlimit="10" stroke-width="1.196" d="M10.23 24.07c28.348 0 28.348 28.348 56.692 28.348"/></svg>