<svg xmlns="http://www.w3.org/2000/svg" width="40.619" height="40.61"><defs><clipPath id="a"><path d="M0 13h27v27.414H0Zm0 0"/></clipPath></defs><path fill="none" stroke="#7F7F7F" stroke-miterlimit="10" stroke-width=".199" d="M10.98 29.25h28.348M10.98.914h28.348M10.98 29.25V.902M39.316 29.25V.902"/><path fill="#D2C92A" d="M20.941 29.25c0-5.5-4.457-9.96-9.96-9.96S1.02 23.75 1.02 29.25c0 5.504 4.457 9.965 9.96 9.965s9.961-4.461 9.961-9.965m0 0"/><g clip-path="url(#a)"><path fill="none" stroke="#000" stroke-miterlimit="10" stroke-width=".399" d="M20.941 29.25c0-5.5-4.457-9.96-9.96-9.96S1.02 23.75 1.02 29.25c0 5.504 4.457 9.965 9.96 9.965s9.961-4.461 9.961-9.965Zm0 0"/></g></svg>