<svg xmlns="http://www.w3.org/2000/svg" width="48.458" height="11.396"><defs><clipPath id="a"><path d="M0 0h48.188v11.094H0Zm0 0"/></clipPath><clipPath id="b"><path d="M0 0h11v11.094H0Zm0 0"/></clipPath><clipPath id="c"><path d="M23 0h16v11.094H23Zm0 0"/></clipPath><clipPath id="d"><path d="M37 0h11.188v10H37Zm0 0"/></clipPath></defs><g clip-path="url(#a)"><path fill="none" stroke="#BFBFBF" stroke-miterlimit="10" stroke-width=".399" d="m2.695 8.363 14.176-5.668 14.172 5.668 14.172-5.668"/></g><g clip-path="url(#b)"><path fill="none" stroke="#000" stroke-miterlimit="10" stroke-width=".399" d="M2.695 8.363V6.371m0 1.992 1.895-.617m-1.895.617 1.172 1.614M2.695 8.363 1.523 9.977m1.172-1.614L.801 7.746"/></g><path fill="none" stroke="#000" stroke-miterlimit="10" stroke-width=".399" d="M16.871 2.695V.703m0 1.992 1.895-.617m-1.895.617 1.168 1.61m-1.168-1.61L15.7 4.305m1.172-1.61-1.898-.617"/><g clip-path="url(#c)"><path fill="none" stroke="#000" stroke-miterlimit="10" stroke-width=".399" d="M31.043 8.363V6.371m0 1.992 1.895-.617m-1.895.617 1.172 1.614m-1.172-1.614-1.172 1.614m1.172-1.614-1.895-.617"/></g><g clip-path="url(#d)"><path fill="none" stroke="#000" stroke-miterlimit="10" stroke-width=".399" d="M45.215 2.695V.703m0 1.992 1.894-.617m-1.894.617 1.172 1.61m-1.172-1.61-1.168 1.61m1.168-1.61-1.895-.617"/></g></svg>