<svg xmlns="http://www.w3.org/2000/svg" xmlns:xlink="http://www.w3.org/1999/xlink" width="88.184" height="95.87"><defs><path id="b" d="M3.813-1.234v-.532h-.47v.516c0 .672-.327.906-.609.906-.578 0-.578-.64-.578-.86v-2.75h1.469v-.468H2.156v-1.906h-.469c0 1-.484 1.984-1.484 2.016v.359h.828v2.734c0 1.063.86 1.282 1.578 1.282.75 0 1.204-.579 1.204-1.297m0 0"/><path id="c" d="M4.922-1.172c0-.172-.188-.172-.234-.172-.172 0-.188.047-.25.203-.204.485-.782.797-1.422.797-1.407 0-1.422-1.328-1.422-1.828h3.015c.22 0 .313 0 .313-.265 0-.313-.063-1.047-.563-1.547-.359-.36-.89-.532-1.578-.532C1.187-4.516.313-3.484.313-2.25c0 1.344 1 2.313 2.609 2.313 1.578 0 2-1.063 2-1.235M3.984-2.5h-2.39c.015-.39.031-.812.234-1.14.266-.391.672-.516.953-.516 1.172 0 1.188 1.312 1.203 1.656m0 0"/><path id="d" d="M5.828 0v-.469h-.703L3.453-2.453 4.61-3.75c.141-.14.204-.203 1.016-.203v-.469l-.906.031-1.032-.03v.468c.141 0 .266.015.376.078-.032.063-.032.094-.079.125l-.828.938-.984-1.141h.406v-.469L1.36-4.39.266-4.42v.468h.718l1.547 1.828L1.22-.656c-.157.187-.516.187-1 .187V0l.922-.031L2.156 0v-.469c-.172 0-.36-.047-.36-.11 0 0 0-.015.063-.093l.97-1.094L3.921-.469h-.39V0l1.202-.031Zm0 0"/><path id="e" d="M4.36-6.11c0-.421-.36-.874-1.141-.874-.969 0-2.047.422-2.047 1.547v1.015h-.75v.469h.75V-.47H.484V0l1.25-.031c.375 0 1.016 0 1.375.031v-.469H2.25v-3.484h1.14v-.469H2.188v-1.016c0-1.093.75-1.187 1-1.187.047 0 .11 0 .172.031a.59.59 0 0 0-.234.485c0 .422.36.609.61.609.296 0 .624-.203.624-.61m0 0"/><path id="g" d="m3.672-1.625-.047-.516-.469.047.047.5c.063.672-.234.938-.515.969-.579.063-.641-.578-.672-.797l-.282-2.734 1.47-.157-.048-.468-1.469.156-.187-1.89-.469.046c.094 1-.265 2.016-1.265 2.157l.03.359.829-.094.281 2.719c.11 1.062.969 1.203 1.688 1.125.75-.078 1.156-.703 1.078-1.422m0 0"/><path id="h" d="M4.375-2.547c-.047-.156-.234-.094-.281-.078-.157.047-.157.094-.172.25-.063.531-.516 1-1.125 1.172-1.344.406-1.75-.844-1.89-1.328l2.874-.875c.219-.063.313-.094.235-.344-.094-.312-.36-1-1-1.312-.438-.25-.985-.266-1.657-.063C-.156-4.672-.703-3.437-.359-2.25.03-.969 1.266-.312 2.813-.781c1.515-.453 1.624-1.594 1.562-1.766m-1.281-1-2.281.703c-.094-.39-.204-.797-.11-1.172a1.14 1.14 0 0 1 .75-.765c1.125-.344 1.531.922 1.64 1.234m0 0"/><path id="i" d="M5.234-2.578 5.031-3l-.64.313-2.375-1.047.468-1.657c.063-.187.079-.28.813-.64l-.203-.422-.797.437-.938.422.204.422a.86.86 0 0 1 .375-.11c0 .079.015.11-.016.157l-.328 1.203L.204-4.5l.359-.187-.204-.422-1.078.578-1 .437.203.422.657-.312 2.187.953-.531 1.906C.75-.891.422-.735 0-.515l.203.421.813-.437.922-.422-.204-.422c-.156.078-.359.11-.375.063 0 0-.015-.016.016-.125l.375-1.391 1.563.672-.344.172.203.422 1.062-.563Zm0 0"/><path id="j" d="M2.563-3.094 2.28-3.53l-.39.25.265.422c.36.578.203.953-.031 1.093-.484.313-.828-.218-.937-.406L-.282-4.5l1.235-.781-.25-.39-1.234.78L-1.562-6.5l-.407.25c.547.844.657 1.938-.172 2.5l.204.297.703-.438L.219-1.578c.578.906 1.406.61 2.015.234.641-.406.704-1.14.329-1.75m0 0"/><path id="k" d="M3.094-4c-.11-.14-.25-.016-.281.016-.141.109-.126.14-.079.312.157.5-.109 1.11-.609 1.516-1.094.875-1.937-.14-2.25-.531l2.36-1.891c.171-.14.234-.203.062-.406-.188-.25-.703-.782-1.406-.86-.5-.047-1.016.157-1.547.578-1.25 1-1.281 2.344-.5 3.313.843 1.047 2.218 1.172 3.484.172 1.219-1 .875-2.094.766-2.219m-1.547-.453-1.875 1.5c-.234-.313-.484-.64-.531-1.016a1.18 1.18 0 0 1 .422-1.015c.906-.735 1.75.28 1.984.53m0 0"/><path id="l" d="M-.719-7.469c-.265-.312-.843-.422-1.437.094-.719.64-1.266 1.656-.516 2.5l.656.766-.578.484.313.36.578-.485L.578-1.125l-.531.453.312.36.938-.86c.281-.25.766-.656 1.047-.875l-.313-.36-.64.579-2.282-2.625.86-.75-.313-.36-.906.782-.656-.766c-.719-.812-.219-1.375-.032-1.547a.3.3 0 0 1 .141-.078.67.67 0 0 0 .14.516.6.6 0 0 0 .86.047c.235-.188.36-.547.078-.86m0 0"/><path id="m" d="M-.89-7.453c-.282-.313-.86-.406-1.438.11-.703.656-1.235 1.702-.469 2.546l.688.75-.547.5.312.344.547-.5L.547-1.125l-.5.453.312.344.907-.86c.28-.25.75-.671 1.03-.906l-.312-.344-.625.579-2.343-2.578.843-.766-.312-.344-.89.813-.688-.75c-.735-.813-.25-1.407-.063-1.563.031-.031.078-.078.14-.094a.62.62 0 0 0 .157.516.6.6 0 0 0 .86.047c.218-.203.312-.578.046-.875m0 0"/><path id="n" d="M2.75-4.234c-.11-.125-.234 0-.266.03-.125.126-.109.173-.046.313.187.5-.016 1.125-.485 1.563C.937-1.36 0-2.313-.344-2.672L1.844-4.75c.156-.156.218-.219.047-.406-.22-.235-.766-.719-1.485-.735-.484-.015-1 .22-1.5.688-1.156 1.11-1.078 2.453-.218 3.36C-.391-.876 1-.86 2.172-1.97c1.14-1.078.703-2.14.578-2.265m-1.578-.328L-.562-2.907c-.25-.297-.547-.625-.61-1-.094-.453.125-.828.328-1.031.844-.797 1.766.14 2.016.375m0 0"/><path id="o" d="M2.578-4.187c-.094-.094-.203.015-.265.078-.141.125-.11.14-.063.28.25.626.047 1.095-.312 1.438-.985.985-2.016-.046-2.344-.39-.39-.39-1.281-1.313-.375-2.219.265-.25.39-.344.5-.422 0 .25.125.422.187.484a.6.6 0 0 0 .875.016c.219-.219.297-.61.016-.89-.61-.61-1.469.156-1.875.562C-2.36-4-2.094-2.672-1.281-1.844c.922.938 2.265.969 3.36-.093 1.155-1.141.562-2.188.5-2.25m0 0"/><path id="p" d="m1.828-3.562-.375-.376-.328.329.375.359c.469.484.39.875.188 1.063-.407.421-.844-.032-1-.188l-1.954-1.937L-.234-5.36l-.328-.328-1.032 1.046L-2.937-6l-.344.328c.703.703 1.078 1.75.375 2.484l.25.25.594-.593 1.937 1.937c.75.75 1.516.313 2.016-.203.53-.531.453-1.25-.063-1.765m0 0"/><path id="q" d="M1.938-3.906c-.313-.313-.688-.406-1.125-.375-.485.078-.766.265-1.407.718-.312.22-.828.594-1.156.266-.437-.437.203-1.094.344-1.234.531-.532 1-.594 1.422-.235.109.11.156.125.297-.015.171-.172.14-.203-.032-.375L-.28-5.72c-.125-.125-.188-.187-.313-.062-.031.031-.047.047-.187.437-.266.094-.563.313-.844.594-.219.219-1.297 1.297-.375 2.219.281.281.61.328.875.312.516-.047.844-.281 1.469-.719.312-.218.922-.64 1.344-.218.53.531-.11 1.172-.266 1.328-.75.75-1.453.39-1.844.187-.125-.062-.172-.015-.265.079-.172.171-.125.218.03.375l.766.765c.141.14.204.203.329.078C.484-.39.5-.406.547-.672l.047-.297c.562-.094.937-.468 1.078-.61.219-.218 1.297-1.296.266-2.327m0 0"/><path id="r" d="M3.797-4.016c-.172-.171-.266-.093-.36.016-.453.422-.53.328-.703.156L1.25-5.375c-.625-.64-1.578-.61-2.64.438-.407.39-1.235 1.265-.626 1.89a.604.604 0 0 0 .875.031.62.62 0 0 0 0-.89c-.218-.203-.453-.203-.515-.203.172-.235.406-.47.484-.547.547-.532 1.078-.469 1.61.062l.234.25c-.485.516-2.234 2.36-1.235 3.39C.095-.28 1.126-1 1.61-1.483c.579-.547.625-1.172.485-1.625.219.218.531.547 1.281-.188l.344-.312c.14-.157.234-.235.078-.407m-2.25.563c.672.703.11 1.422-.063 1.594-.375.359-.906.406-1.218.078C-.47-2.547.563-3.75.89-4.125Zm0 0"/><path id="s" d="m2.125-2-.328-.344-.5.469-4.422-4.687-1.219 1.25.313.343c.453-.422.5-.468.765-.187L.516-1.141l-.5.47.328.343.875-.844Zm0 0"/><path id="t" d="M2.563-5.219c-.907-1-2.25-1.14-3.454-.047-1.218 1.094-1.218 2.47-.328 3.454.828.906 2.157 1.046 3.39-.047 1.25-1.125 1.204-2.453.392-3.36m-1.032.75c.578.64 1.297 1.453.36 2.313-.938.844-1.657.031-2.235-.61-.297-.328-.625-.703-.734-1.078-.11-.406.062-.844.422-1.156.312-.281.734-.453 1.125-.344.375.11.75.516 1.062.875m0 0"/><path id="u" d="m4.734-3.89-.296-.36-.532.438-1.64-2C1.609-6.625.953-6.578.172-5.953c-.734.61-.781 1.39-.656 1.937l-.688-.828-1.281 1.157.297.359c.484-.39.531-.438.781-.14l1.953 2.39-.531.437.297.36.953-.828.984-.766-.297-.36-.53.438L.14-3.407c-.703-.843-.328-1.765.156-2.171.266-.203.547-.188 1.031.406l1.703 2.078-.531.438.297.36.953-.829Zm0 0"/><path id="v" d="M2.234-6.437c-.125-.188-.468-.375-.843-.11a1.74 1.74 0 0 0-.641.906c-.219.016-.672.079-1.266.5-1.171.844-1.171 1.797-.78 2.36.234.328.64.562 1.03.547-.015.453.11.765.235.937.094.125.422.484.906.5C.813-.687.328-.078.688.422c.28.406 1.187.703 2.796-.453 1.438-1.031 1.75-1.953 1.344-2.531-.172-.235-.61-.704-1.344-.594-.64.11-1.125.453-1.89 1C1.375-2 1-1.734.969-1.72a.62.62 0 0 1-.828-.187.74.74 0 0 1-.11-.328c.516-.063.953-.344 1.157-.5 1.171-.828 1.156-1.782.75-2.344a1.32 1.32 0 0 0-.875-.547c.156-.297.312-.437.406-.516-.016.063.031.141.062.188.157.203.39.25.61.094a.395.395 0 0 0 .093-.578m-1.203 2c.266.359.657.906-.047 1.406-.718.515-1.109-.031-1.375-.39-.25-.36-.64-.907.079-1.423.703-.5 1.093.047 1.343.407m3.11 2.406c.203.297.203.969-.86 1.719-.969.687-1.64.593-1.906.218-.344-.484.172-.843.281-.922l.953-.671c.25-.188 1.172-.844 1.532-.344m0 0"/><path id="w" d="M4.516-4.516c-.563-1.203-1.782-1.671-3.078-1.078C.75-5.28.406-4.78.28-4.53L.078-4.97l-1.578.813.203.422c.547-.25.625-.282.781.062L1.578.891l-.625.28.203.438 1.125-.546 1.14-.5L3.22.125l-.625.297-.766-1.688c.547.125.984.047 1.36-.125 1.359-.625 1.89-1.875 1.328-3.125m-1.157.547c.579 1.281.157 2.031-.437 2.297-.125.063-.547.266-1.188-.047-.156-.062-.156-.078-.234-.25L.61-3.89c-.079-.171-.063-.203 0-.39.187-.532.656-.797.859-.89.593-.266 1.36.046 1.89 1.202m0 0"/><path id="x" d="M5.297-1.547c-.047-.219-.172-.203-.313-.156-.593.125-.625 0-.687-.219L3.78-4c-.203-.875-1.031-1.328-2.484-.984-.547.14-1.703.484-1.5 1.343.11.422.484.516.75.454.297-.063.531-.36.437-.75-.078-.297-.28-.407-.328-.438a7 7 0 0 1 .688-.234c.718-.172 1.172.14 1.344.875l.093.328C2.094-3.203-.344-2.5 0-1.11c.234.922 1.469.812 2.14.64.766-.187 1.141-.687 1.235-1.156.078.313.188.75 1.203.5l.453-.11c.203-.062.328-.077.266-.312m-2.219-.64c.235.937-.64 1.28-.875 1.343-.5.125-.969-.125-1.078-.562-.25-1.031 1.25-1.547 1.719-1.703Zm0 0"/><path id="y" d="m3.781-1.344-.015-.531h-.47l.017.516c.015.672-.313.922-.594.937-.578.016-.594-.625-.594-.844l-.094-2.75L3.5-4.062l-.016-.47-1.468.048-.047-1.907-.469.016c.031 1-.422 2-1.422 2.063v.359l.828-.031L1-1.25C1.031-.187 1.89 0 2.61-.016c.75-.03 1.187-.609 1.171-1.328m0 0"/><clipPath id="a"><path d="M0 29h87.777v66.805H0Zm0 0"/></clipPath><clipPath id="f"><path d="M0 1h87.777v69H0Zm0 0"/></clipPath></defs><g clip-path="url(#a)"><path fill="none" stroke="red" stroke-dasharray="0.3985 1.99255" stroke-miterlimit="10" stroke-width=".399" d="M.82 92.29c28.348 0 56.696-56.692 85.043-56.692"/></g><use xlink:href="#b" x="4.091" y="94.744"/><use xlink:href="#c" x="14.186" y="89.258"/><use xlink:href="#d" x="23.669" y="81.954"/><use xlink:href="#b" x="33.244" y="74.858"/><use xlink:href="#c" x="48.452" y="58.521"/><use xlink:href="#e" x="57.432" y="52.325"/><use xlink:href="#e" x="65.424" y="46.095"/><use xlink:href="#c" x="74.212" y="39.604"/><g clip-path="url(#f)"><path fill="none" stroke="#00F" stroke-dasharray="0.3985 1.99255" stroke-miterlimit="10" stroke-width=".399" d="M.82 63.941c28.348 0 56.696-56.691 85.043-56.691"/></g><use xlink:href="#g" x=".831" y="64.055"/><use xlink:href="#h" x="5.281" y="63.62"/><use xlink:href="#i" x="10.322" y="62.106"/><use xlink:href="#j" x="15.723" y="59.383"/><use xlink:href="#k" x="22.575" y="54.758"/><use xlink:href="#l" x="26.649" y="51.448"/><use xlink:href="#m" x="29.286" y="49.154"/><use xlink:href="#n" x="31.876" y="46.805"/><use xlink:href="#o" x="35.68" y="43.189"/><use xlink:href="#p" x="39.31" y="39.621"/><use xlink:href="#q" x="42.462" y="36.477"/><use xlink:href="#r" x="48.361" y="30.588"/><use xlink:href="#s" x="52.356" y="26.711"/><use xlink:href="#t" x="54.656" y="24.518"/><use xlink:href="#u" x="58.904" y="20.673"/><use xlink:href="#v" x="63.825" y="16.633"/><use xlink:href="#w" x="71.74" y="11.281"/><use xlink:href="#x" x="77.547" y="8.625"/><use xlink:href="#y" x="82.981" y="7.329"/></svg>