<svg xmlns="http://www.w3.org/2000/svg" xmlns:xlink="http://www.w3.org/1999/xlink" width="449.588" height="448.472"><defs><path id="a" d="M4.922-.484v-.11c0-.156 0-.36-.203-.437-.078-.047-.39-.047-.594-.047l-.672.016H1.828l1.328-1.25c.14-.126.516-.438.672-.579.547-.53 1.094-1.062 1.094-1.953 0-1.218-.875-2.297-2.344-2.297-.344 0-.906.047-1.39.438-.094.078-.547.437-.735 1.094l.5.64c.063.078.094.125.156.125.094 0 .11-.078.141-.187.203-.688.547-1.11 1.188-1.11.765 0 1.093.704 1.093 1.313 0 .64-.375 1.312-.984 1.953L.64-.844c-.094.094-.094.11-.094.282v.078c0 .359.11.484.484.484h3.422c.375 0 .469-.125.469-.484m0 0"/><path id="b" d="M5.047-3.422c0-1.36 0-3.719-2.313-3.719C.422-7.14.422-4.812.422-3.42c0 1.374 0 3.64 2.312 3.64 2.313 0 2.313-2.25 2.313-3.64m-1.36-.14c0 .578 0 1.343-.062 1.89-.031.266-.14 1.172-.89 1.172-.735 0-.844-.922-.876-1.187-.078-.532-.078-1.47-.078-1.875 0-.579 0-1.22.063-1.72.031-.265.125-1.14.89-1.14.735 0 .86.844.891 1.031.063.516.063 1.297.063 1.829m0 0"/><path id="c" d="M5.156-2c0-.36-.125-.469-.468-.469h-.422v-3.968c0-.36-.11-.485-.485-.485h-.719c-.187 0-.343 0-.453.234L.391-2.609c-.079.14-.079.172-.079.359V-2c0 .313.063.469.47.469h2.25v1.047c0 .328.062.484.484.484h.265c.39 0 .485-.125.485-.484v-1.047h.422c.312 0 .468-.063.468-.469m-2.062-.469h-1.75C2.938-5.39 3.03-5.703 3.078-5.875h.016Zm0 0"/><path id="d" d="M4.25-1.484v-4.953c0-.329-.062-.485-.469-.485h-.484c-.375 0-.469.14-.469.484v4.891c0 .219 0 .766-.89.766a1.24 1.24 0 0 1-1.032-.5c-.078-.094-.094-.11-.156-.11-.11 0-.125.079-.14.188-.047.312-.157.828-.157.875 0 .094.063.125.25.203a4.4 4.4 0 0 0 1.64.344c1.063 0 1.907-.531 1.907-1.703m0 0"/><path id="e" d="M4.719-.484v-2.672c0-1.563-1.516-1.578-2-1.578-.469 0-.969.046-1.64.312-.204.094-.266.125-.266.234 0 .079.062.657.078.735 0 .047.062.11.125.11.046 0 .078-.032.109-.063.438-.453.922-.672 1.547-.672.531 0 .703.328.703.922v.344c-.36 0-2.969.015-2.969 1.484C.406-.625.97.109 1.844.109c.343 0 1.094-.093 1.562-.78v.187c0 .328.063.484.469.484h.375c.375 0 .469-.125.469-.484M3.375-1.531c0 .922-.953.922-.984.922-.422 0-.688-.36-.688-.735 0-.984 1.39-1.047 1.672-1.062Zm0 0"/><path id="f" d="M4.984-.484v-2.75c0-1.032-.437-1.438-1.453-1.438-1.047 0-1.5.75-1.625 1.016h-.015v-.485c0-.328-.063-.484-.47-.484h-.343c-.36 0-.484.11-.484.484v3.657c0 .359.11.484.484.484h.39c.391 0 .485-.125.485-.484v-2.203c0-.86.578-1.266 1.094-1.266.484 0 .578.219.578.734v2.735c0 .328.078.484.484.484H4.5c.39 0 .484-.125.484-.484m0 0"/><path id="g" d="M4.984-.484v-3.61c0-.312-.062-.468-.484-.468h-.39c-.376 0-.485.125-.485.468v2.375c0 .657-.344 1.219-1.047 1.219-.562 0-.625-.14-.625-.672v-2.922c0-.312-.062-.468-.484-.468h-.39c-.36 0-.485.109-.485.468v2.844c0 1.063.578 1.36 1.625 1.36.265 0 .969 0 1.437-.844v.25c0 .328.078.484.485.484H4.5c.39 0 .484-.125.484-.484m0 0"/><path id="h" d="M3.547-3.937v-.47c0-.202 0-.265-.172-.265-.281 0-1.016.094-1.484 1.172v-.64c0-.329-.079-.485-.485-.485h-.312c-.36 0-.485.11-.485.484v3.657c0 .359.11.484.485.484h.36c.374 0 .484-.125.484-.484v-1.813c0-.937.78-1.328 1.406-1.375.187 0 .203 0 .203-.265m0 0"/><path id="i" d="M4.719-4.297c0-.266-.266-.266-.407-.266h-.218c-.157 0-.375 0-.532.22-.03.062-.828 2.265-.874 2.921h-.016c-.047-.484-.453-1.406-.89-2.36-.282-.64-.344-.78-.844-.78H.672c-.14 0-.375 0-.375.25 0 .046.016.109.047.171L2.219 0c-.078.203-.11.313-.14.422-.11.328-.282.781-.829.781-.328 0-.547-.14-.656-.219C.53.954.516.954.484.954c-.046 0-.125.03-.125.14 0 .078.063.765.094.812.078.125.625.14.781.14 1.235 0 1.72-1.171 1.813-1.421l1.625-4.719c.047-.14.047-.156.047-.203m0 0"/><path id="t" d="M5.625-6.328v-.078c0-.328-.078-.485-.484-.485H1.39c-.36 0-.485.11-.485.485v5.922c0 .359.11.484.485.484h.5c.375 0 .484-.125.484-.484v-2.5h2.313c.312 0 .468-.063.468-.47 0-.358-.125-.468-.468-.468H2.375v-1.953h.422l2.25.016c.344 0 .578 0 .578-.47m0 0"/><path id="u" d="M4.781-2.594c0-1.281-.61-2.14-2.093-2.14-1.594 0-2.375.89-2.375 2.406 0 1.64.937 2.437 2.515 2.437.375 0 .938-.046 1.594-.375.219-.109.297-.14.297-.265 0-.063-.032-.36-.047-.438-.031-.312-.047-.312-.14-.312-.032 0-.063 0-.173.093a2.2 2.2 0 0 1-1.5.579c-1.125 0-1.25-.891-1.28-1.532h2.718c.234 0 .484 0 .484-.453m-1.11-.062H1.595c.031-.61.234-1.36 1.094-1.36.796 0 .953.579.984 1.36m0 0"/><path id="v" d="M5.219-2.297c0-.484 0-2.375-1.875-2.375-.828 0-1.313.453-1.406.563v-2.328c0-.329-.079-.485-.485-.485h-.36c-.359 0-.484.11-.484.484v5.954c0 .359.11.484.485.484h.39c.172 0 .47 0 .485-.39.453.5.968.5 1.125.5 2.125 0 2.125-1.907 2.125-2.407m-1.36 0c0 .735 0 1.688-1.125 1.688A.97.97 0 0 1 1.97-1v-2.61c.125-.124.422-.343.875-.343 1.015 0 1.015.906 1.015 1.656m0 0"/><path id="w" d="M8.828-.484v-5.953c0-.329-.062-.485-.469-.485h-.843c-.25 0-.5.031-.672.438L5.53-3.266c-.203.516-.578 1.438-.656 1.782h-.016c-.078-.36-.5-1.344-.703-1.875L2.875-6.516c-.156-.406-.484-.406-.656-.406H1.39c-.36 0-.485.11-.485.484v5.954c0 .359.11.484.485.484h.265c.375 0 .485-.125.485-.484v-5.141c.109.438.562 1.547.797 2.14L4.093-.64c.187.422.422.422.765.422.329 0 .579 0 .75-.422l1.282-3.14c.093-.235.64-1.594.703-1.844h.015v5.14c0 .329.063.485.47.485h.28c.375 0 .47-.125.47-.484m0 0"/><path id="x" d="M4.563-.5c0-.11-.047-.562-.063-.703 0-.016-.031-.125-.125-.125-.031 0-.062 0-.156.11-.172.14-.64.546-1.453.546-1.047 0-1.047-1-1.047-1.64 0-.813.062-1.641 1.078-1.641.64 0 .906.156 1.265.453.125.11.141.11.188.11.094 0 .11-.094.125-.126.016-.078.125-.64.125-.687 0-.094-.078-.14-.25-.219-.469-.219-.766-.312-1.469-.312-1.484 0-2.406.703-2.406 2.437C.375-.64 1.219.11 2.735.11c.265 0 .859-.015 1.53-.343.282-.157.298-.172.298-.266m0 0"/><path id="y" d="M4.984-.484v-2.75c0-1.032-.437-1.438-1.453-1.438-1 0-1.453.688-1.594.969h-.015v-2.734c0-.329-.063-.485-.469-.485h-.375c-.36 0-.484.11-.484.484v5.954c0 .359.11.484.484.484h.39c.391 0 .485-.125.485-.484v-2.203c0-.86.578-1.266 1.094-1.266.484 0 .578.219.578.734v2.735c0 .328.078.484.484.484H4.5c.39 0 .484-.125.484-.484m0 0"/><path id="z" d="M6.875-.266c0-.046 0-.078-.047-.203l-2.11-6.015c-.14-.438-.437-.438-.624-.438h-.89c-.188 0-.485 0-.626.438L.468-.47c-.046.125-.046.156-.046.203 0 .266.25.266.39.266h.36c.172 0 .484 0 .625-.406l.39-1.094h2.75l.344.953c.125.344.188.547.672.547h.531c.141 0 .391 0 .391-.266M4.641-2.359H2.484l.72-2.11c.14-.453.28-.828.358-1.187.063.25.063.265.141.5Zm0 0"/><path id="A" d="M5.219-2.297c0-.5 0-2.375-1.813-2.375-.578 0-1.11.234-1.469.578 0-.375-.14-.468-.484-.468h-.36c-.359 0-.484.109-.484.468v5.547c0 .36.11.484.485.484h.39c.375 0 .485-.14.485-.484V-.39c.437.5.984.5 1.125.5 2.125 0 2.125-1.906 2.125-2.406m-1.36.016c0 .39 0 1.672-1.125 1.672a.86.86 0 0 1-.53-.172c-.235-.172-.235-.219-.235-.39v-2.391c.11-.11.437-.329.86-.329 1.015 0 1.03 1.172 1.03 1.61m0 0"/><path id="B" d="M1.938-.484v-3.61c0-.312-.079-.468-.485-.468h-.36c-.359 0-.484.109-.484.468v3.61c0 .359.11.484.485.484h.36c.374 0 .484-.125.484-.484M2-6.047v-.187c0-.313-.062-.47-.469-.47h-.515c-.375 0-.485.126-.485.47v.187c0 .297.063.484.485.484h.515c.407 0 .469-.171.469-.484m0 0"/><path id="C" d="M1.938-.484v-5.953c0-.329-.079-.485-.485-.485h-.36c-.359 0-.484.11-.484.484v5.954c0 .359.11.484.485.484h.36c.374 0 .484-.125.484-.484m0 0"/><path id="D" d="M5.328-4.031c0-.047-.047-.282-.078-.39-.031-.235-.031-.25-.219-.25-.312 0-.797.109-1.187.343-.469-.313-.985-.344-1.406-.344-.422 0-2.016 0-2.016 1.64 0 .407.11.891.5 1.235C.64-1.437.64-1.047.64-1c0 .188.062.516.28.797C.767-.156.25.03.25.672c0 .312.156.828.781 1.11.563.265 1.235.265 1.703.265.579 0 2.485 0 2.485-1.406 0-1.563-1.407-1.563-2.75-1.563H2c-.36 0-.5 0-.64-.11-.048-.046-.22-.187-.22-.452 0-.079.016-.094.032-.157.469.266 1.047.266 1.266.266.406 0 2 0 2-1.64 0-.579-.22-.938-.313-1.047.172 0 .516 0 .922.109.047.031.11.047.14.047.094 0 .141-.063.141-.125m-2.172 1c0 .547-.031.937-.719.937-.703 0-.734-.375-.734-.922 0-.546.031-.937.734-.937.688 0 .72.375.72.922M4.203.672c0 .656-1.14.656-1.469.656-.39 0-1.453 0-1.453-.687 0-.47.297-.47.532-.47h1.156c.812 0 1.234.142 1.234.5m0 0"/><path id="E" d="M3.953-1.406c0-.563-.297-.907-.484-1.063-.39-.36-.75-.422-1.172-.5-.547-.11-.938-.187-.938-.562 0-.422.329-.5.72-.5.655 0 1.015.25 1.28.468.094.11.125.11.157.11.109 0 .125-.094.14-.14.016-.079.11-.641.11-.688 0-.157-.532-.297-.641-.328a3.5 3.5 0 0 0-.969-.125c-.453 0-1.781 0-1.781 1.422 0 .484.219.796.484 1.03.344.313.735.391 1.297.5.297.048.797.141.797.579 0 .469-.375.531-.765.531-.438 0-1-.125-1.47-.687-.046-.047-.077-.079-.14-.079-.094 0-.125.094-.125.157-.031.14-.14.703-.14.797 0 .187.75.422.75.422.546.171.953.171 1.125.171.5 0 1.765-.046 1.765-1.515m0 0"/><path id="F" d="M3.719-.469c0-.031-.016-.094-.078-.312-.047-.203-.079-.25-.157-.25-.062 0-.062 0-.125.062-.109.078-.375.297-.796.297-.235 0-.391-.172-.391-.828v-2.344h.89c.126 0 .47 0 .47-.36 0-.359-.344-.359-.47-.359h-.89v-.828c0-.328-.063-.484-.485-.484h-.296c-.36 0-.485.11-.485.484v.829H.672c-.11 0-.469 0-.469.359 0 .36.36.36.469.36h.203v2.515c0 1.016.36 1.437 1.047 1.437.094 0 .531 0 1.047-.156.172-.047.75-.234.75-.422m0 0"/><path id="G" d="M5.469-2c0-1.11-.828-1.953-1.813-2.172l-.969-.219c-.218-.062-.828-.28-.828-.859 0-.844.844-.86 1.188-.86.547 0 1.047.126 1.531.61.172.14.172.156.219.156.062 0 .11-.031.14-.172l.141-.875c.031-.078.031-.093.031-.125 0-.078-.015-.093-.265-.218-.703-.36-1.297-.407-1.797-.407-.89 0-2.438.22-2.438 2.079 0 .703.375 1.171.563 1.359.5.515.969.625 1.75.797.562.14.781.187 1 .39.094.094.312.297.312.688 0 .937-.859.953-1.187.953-.844 0-1.578-.328-2.063-.781-.125-.125-.14-.125-.187-.125-.063 0-.11.031-.14.187l-.141.86c-.032.093-.032.109-.032.14 0 .203 1.047.563 1.094.578A4.7 4.7 0 0 0 3.047.22C4.53.219 5.469-.453 5.469-2m0 0"/><path id="H" d="M8.031-.484v-2.75c0-1.032-.437-1.438-1.453-1.438-.703 0-1.25.328-1.61.984-.155-.953-1.015-.984-1.437-.984-.187 0-.594 0-1.047.328a2 2 0 0 0-.578.688h-.015v-.485c0-.328-.063-.484-.47-.484h-.343c-.36 0-.484.11-.484.484v3.657c0 .359.11.484.484.484h.39c.391 0 .485-.125.485-.484v-2.203c0-.891.61-1.266 1.094-1.266s.594.203.594.734v2.735c0 .359.109.484.468.484h.407C4.89 0 5-.125 5-.484v-2.203c0-.891.61-1.266 1.094-1.266.468 0 .578.203.578.734v2.735c0 .359.11.484.484.484h.407c.375 0 .468-.125.468-.484m0 0"/><path id="I" d="M7.297-3.406c0-2-.734-3.735-3.344-3.735C1.203-7.14.61-5.234.61-3.406c0 1.86.641 3.625 3.344 3.625 2.563 0 3.344-1.578 3.344-3.625m-1.469-.156c0 .874 0 2.984-1.875 2.984S2.078-2.656 2.078-3.562c0-.891 0-2.797 1.875-2.797s1.875 1.89 1.875 2.797m0 0"/><path id="J" d="M5.156-2.25c0-1.625-.797-2.484-2.422-2.484-1.656 0-2.421.89-2.421 2.484 0 1.625.859 2.36 2.421 2.36 1.563 0 2.422-.72 2.422-2.36m-1.343-.11c0 .782 0 1.688-1.079 1.688-1.062 0-1.062-.89-1.062-1.687 0-.766 0-1.657 1.062-1.657 1.079 0 1.079.875 1.079 1.657m0 0"/><path id="K" d="M7-.484v-5.953c0-.329-.078-.485-.484-.485H6.25c-.375 0-.484.14-.484.484v5.235l-2.75-5.313c-.203-.406-.5-.406-.703-.406H1.39c-.36 0-.485.11-.485.484v5.954c0 .359.11.484.485.484h.265c.375 0 .485-.125.485-.484V-5.72L4.89-.406c.203.406.5.406.703.406h.922C6.89 0 7-.125 7-.484m0 0"/><path id="L" d="M4.719-4.281c0-.282-.25-.282-.407-.282H4.11c-.421 0-.53.141-.625.422L2.5-1.125l-.984-3.016c-.063-.203-.141-.421-.625-.421H.656c-.14 0-.39 0-.39.28 0 .032 0 .048.046.188L1.5-.422C1.64 0 1.938 0 2.125 0h.719c.187 0 .5 0 .64-.422l1.188-3.672c.047-.14.047-.156.047-.187m0 0"/><path id="M" d="M7.297-3.406c0-.797-.125-1.75-.688-2.469-.75-.922-1.937-1.047-2.593-1.047H1.39c-.36 0-.485.11-.485.484v5.954c0 .359.11.484.485.484h2.625c2.437 0 3.28-1.453 3.28-3.406m-1.438 0C5.86-2.281 5.75-.86 3.625-.86H2.344v-5.203h1.281c2.14 0 2.234 1.53 2.234 2.656m0 0"/><path id="j" d="M2.828-.219c0-.218-.219-.218-.281-.218h-.422V-4c0-.11 0-.281-.266-.281-.125 0-.14.015-.218.078-.11.094-.328.312-.922.328-.11 0-.266.047-.266.219 0 .219.219.219.281.219.188 0 .391-.032.563-.079v3.079H.844c-.078 0-.297 0-.297.218C.547 0 .766 0 .844 0h1.703c.062 0 .281 0 .281-.219m0 0"/><path id="k" d="M2.953-.281V-.36c0-.094 0-.203-.125-.266-.047-.016-.234-.016-.344-.016h-1.39l.797-.75c.093-.078.312-.265.406-.343.328-.328.656-.641.656-1.172 0-.735-.531-1.375-1.406-1.375-.203 0-.547.031-.828.265-.063.032-.328.25-.438.657l.297.375c.031.046.047.078.094.078s.062-.047.078-.11c.125-.421.328-.671.703-.671.469 0 .672.421.672.796s-.234.782-.594 1.157L.391-.516c-.063.063-.063.079-.063.188v.047C.328-.078.391 0 .61 0h2.063c.219 0 .281-.078.281-.281m0 0"/><path id="l" d="M3.016-1.219c0-.531-.297-.906-.828-1.031.484-.266.64-.656.64-1 0-.953-.86-1.031-1.25-1.031-.812 0-1.219.578-1.219.625s.047.094.047.094l.172.234c.047.078.094.078.094.078.031 0 .047-.016.078-.062.297-.438.734-.438.813-.438.375 0 .437.203.437.484 0 .094 0 .375-.187.61-.157.156-.297.172-.485.187-.062 0-.172.016-.187.016-.047.031-.047.062-.047.156v.11c0 .156 0 .156.156.156h.266c.547 0 .609.344.609.797 0 .406-.031.797-.578.797-.188 0-.64-.032-1.031-.407C.453-.906.453-.906.422-.906c-.063 0-.063.047-.078.062 0 0-.063.39-.063.407 0 .078.516.562 1.297.562 1.031 0 1.438-.547 1.438-1.344m0 0"/><path id="m" d="M3.094-1.203c0-.219-.078-.281-.281-.281h-.25V-3.86c0-.22-.063-.297-.282-.297h-.437c-.125 0-.203 0-.282.14L.234-1.562c-.047.078-.047.109-.047.203v.156c0 .187.047.281.282.281h1.344v.64c0 .188.046.282.296.282h.172c.219 0 .281-.078.281-.281v-.64h.25c.188 0 .282-.032.282-.282m-1.235-.281H.813c.953-1.75 1-1.938 1.03-2.047h.016Zm0 0"/><path id="n" d="M2.953-1.328c0-.781-.328-1.375-1.234-1.375-.157 0-.297.031-.438.078v-.922h1.172c.281 0 .281-.14.281-.312 0-.157 0-.297-.28-.297H.78c-.187 0-.281.031-.281.281v1.828c0 .266.14.281.297.281s.203 0 .297-.156c.14-.219.343-.344.593-.344.391 0 .391.454.391.922 0 .453 0 .907-.625.907A.92.92 0 0 1 .61-.953C.594-1 .58-1.031.531-1.031c-.047 0-.047.031-.094.078C.36-.813.22-.61.22-.563s.39.688 1.25.688c.953 0 1.484-.484 1.484-1.453m0 0"/><path id="o" d="M3.016-1.406c0-.344 0-1.453-1.172-1.453-.328 0-.563.172-.735.53.032-.546.047-.671.125-.921.172-.453.579-.5.782-.5.109 0 .265.016.406.094.047.031.062.047.094.047.062 0 .062-.079.062-.172V-4c0-.14 0-.14-.203-.219C2.219-4.28 2.063-4.28 2-4.28.281-4.281.281-2.563.281-2.031c0 .61 0 2.156 1.39 2.156.454 0 .75-.11.985-.375.313-.36.36-.703.36-1.156m-.844-.016c0 .594 0 .984-.516.984-.468 0-.531-.53-.531-1.046 0-.5.14-.953.563-.953.484 0 .484.421.484 1.015m0 0"/><path id="p" d="M3.016-3.86c0-.124 0-.28-.25-.296H.688c-.297 0-.407 0-.407.281v.078c0 .094 0 .219.125.266.031.031.235.031.36.031l.422-.016h1.015C.86-2.03.86-.53.86-.219c0 .188.032.282.282.282h.28c.095 0 .282 0 .282-.235.016-1.484.547-2.562 1.266-3.469.047-.062.047-.109.047-.218m0 0"/><path id="q" d="M3.016-1.219c0-.547-.266-.875-.735-1.015.563-.188.64-.61.64-.891 0-.875-.562-1.156-1.28-1.156C1-4.281.359-4.047.359-3.125c0 .328.11.703.657.89C.39-2.062.28-1.593.28-1.218c0 .938.5 1.344 1.36 1.344.906 0 1.375-.437 1.375-1.344m-.86-1.89c0 .343-.015.656-.515.656s-.516-.297-.516-.656c0-.422.047-.641.516-.641.468 0 .515.219.515.64m.016 1.875c0 .453 0 .797-.531.797-.516 0-.532-.329-.532-.797 0-.375 0-.797.532-.797.53 0 .53.406.53.797m0 0"/><path id="r" d="M3.016-2.125c0-.64-.016-2.156-1.375-2.156-.36 0-.766.062-1.078.437C.313-3.5.28-3.204.28-2.75c0 .375 0 .719.266 1.063.234.312.516.406.89.406.454 0 .657-.36.735-.547 0 .062 0 .172-.016.422-.031.375-.14.968-.797.968a.73.73 0 0 1-.515-.187C.813-.672.797-.672.766-.672c-.047 0-.063.031-.094.078-.11.188-.203.328-.203.36 0 .047.312.359.906.359 1.64 0 1.64-1.719 1.64-2.25m-.844-.531c0 .078 0 .937-.578.937-.485 0-.485-.422-.485-1.015 0-.594 0-1.016.547-1.016.422 0 .516.453.516 1.094m0 0"/><path id="s" d="M3.031-2.047c0-.828 0-2.234-1.39-2.234C.25-4.281.25-2.891.25-2.047c0 .813 0 2.172 1.39 2.172 1.391 0 1.391-1.344 1.391-2.172M2.22-2.14c0 .344 0 .813-.047 1.141-.016.156-.078.703-.531.703-.438 0-.516-.547-.532-.719-.03-.312-.03-.875-.03-1.125 0-.343 0-.734.03-1.03.016-.157.079-.688.532-.688.437 0 .515.515.53.625.048.312.048.78.048 1.093m0 0"/></defs><use xlink:href="#a" x="213.794" y="227.302"/><use xlink:href="#b" x="219.273" y="227.302"/><use xlink:href="#a" x="224.753" y="227.302"/><use xlink:href="#c" x="230.232" y="227.302"/><g fill="#00F"><use xlink:href="#d" x="207.159" y="407.698"/><use xlink:href="#e" x="212.33" y="407.698"/><use xlink:href="#f" x="217.56" y="407.698"/><use xlink:href="#g" x="223.149" y="407.698"/><use xlink:href="#e" x="228.738" y="407.698"/></g><g fill="#00F"><use xlink:href="#h" x="233.66" y="407.698"/><use xlink:href="#i" x="237.366" y="407.698"/></g><use xlink:href="#j" x="223.109" y="367.859" fill="#00F"/><use xlink:href="#k" x="230.681" y="368.588"/><use xlink:href="#l" x="237.975" y="370.748"/><use xlink:href="#m" x="244.723" y="374.261"/><use xlink:href="#n" x="250.676" y="378.997"/><use xlink:href="#o" x="255.617" y="384.781"/><use xlink:href="#p" x="259.363" y="391.402" fill="red"/><use xlink:href="#q" x="261.777" y="398.617"/><use xlink:href="#r" x="262.77" y="406.159"/><use xlink:href="#j" x="260.661" y="413.752"/><use xlink:href="#s" x="263.949" y="413.752"/><use xlink:href="#j" x="258.757" y="421.117"/><use xlink:href="#j" x="262.045" y="421.117"/><use xlink:href="#j" x="255.481" y="427.983"/><use xlink:href="#k" x="258.769" y="427.983"/><use xlink:href="#j" x="250.956" y="434.098"/><use xlink:href="#l" x="254.244" y="434.098"/><g fill="red"><use xlink:href="#j" x="245.348" y="439.238"/><use xlink:href="#m" x="248.636" y="439.238"/></g><use xlink:href="#j" x="238.862" y="443.212"/><use xlink:href="#n" x="242.15" y="443.212"/><use xlink:href="#j" x="231.736" y="445.876"/><use xlink:href="#o" x="235.024" y="445.876"/><use xlink:href="#j" x="224.234" y="447.132"/><use xlink:href="#p" x="227.522" y="447.132"/><use xlink:href="#j" x="216.629" y="446.933"/><use xlink:href="#q" x="219.917" y="446.933"/><use xlink:href="#j" x="209.202" y="445.286"/><use xlink:href="#r" x="212.49" y="445.286"/><use xlink:href="#k" x="202.225" y="442.253"/><use xlink:href="#s" x="205.513" y="442.253"/><g fill="red"><use xlink:href="#k" x="195.956" y="437.944"/><use xlink:href="#j" x="199.244" y="437.944"/></g><use xlink:href="#k" x="190.624" y="432.518"/><use xlink:href="#k" x="193.912" y="432.518"/><use xlink:href="#k" x="186.425" y="426.174"/><use xlink:href="#l" x="189.713" y="426.174"/><use xlink:href="#k" x="183.515" y="419.146"/><use xlink:href="#m" x="186.803" y="419.146"/><use xlink:href="#k" x="181.998" y="411.692"/><use xlink:href="#n" x="185.286" y="411.692"/><use xlink:href="#k" x="181.932" y="404.085"/><use xlink:href="#o" x="185.22" y="404.085"/><use xlink:href="#k" x="183.318" y="396.605"/><use xlink:href="#p" x="186.606" y="396.605"/><g fill="red"><use xlink:href="#k" x="186.106" y="389.527"/><use xlink:href="#q" x="189.394" y="389.527"/></g><use xlink:href="#k" x="190.193" y="383.111"/><use xlink:href="#r" x="193.481" y="383.111"/><use xlink:href="#l" x="195.429" y="377.593"/><use xlink:href="#s" x="198.717" y="377.593"/><use xlink:href="#l" x="201.623" y="373.175"/><use xlink:href="#j" x="204.911" y="373.175"/><use xlink:href="#t" x="295.935" y="383.393" fill="#00F"/><g fill="#00F"><use xlink:href="#u" x="301.713" y="383.393"/><use xlink:href="#v" x="306.804" y="383.393"/></g><g fill="#00F"><use xlink:href="#h" x="312.084" y="383.393"/><use xlink:href="#g" x="315.791" y="383.393"/><use xlink:href="#e" x="321.38" y="383.393"/></g><g fill="#00F"><use xlink:href="#h" x="326.301" y="383.393"/><use xlink:href="#i" x="330.007" y="383.393"/></g><use xlink:href="#j" x="313.818" y="343.554" fill="#00F"/><use xlink:href="#k" x="321.39" y="344.283"/><use xlink:href="#l" x="328.684" y="346.444"/><use xlink:href="#m" x="335.432" y="349.956" fill="red"/><use xlink:href="#n" x="341.385" y="354.692"/><use xlink:href="#o" x="346.326" y="360.476"/><use xlink:href="#p" x="350.071" y="367.097"/><use xlink:href="#q" x="352.485" y="374.312"/><use xlink:href="#r" x="353.478" y="381.854"/><use xlink:href="#j" x="351.37" y="389.447"/><use xlink:href="#s" x="354.658" y="389.447"/><g fill="red"><use xlink:href="#j" x="349.465" y="396.812"/><use xlink:href="#j" x="352.753" y="396.812"/></g><use xlink:href="#j" x="346.19" y="403.678"/><use xlink:href="#k" x="349.478" y="403.678"/><use xlink:href="#j" x="341.665" y="409.793"/><use xlink:href="#l" x="344.953" y="409.793"/><use xlink:href="#j" x="336.057" y="414.933"/><use xlink:href="#m" x="339.345" y="414.933"/><use xlink:href="#j" x="329.57" y="418.907"/><use xlink:href="#n" x="332.858" y="418.907"/><use xlink:href="#j" x="322.445" y="421.571"/><use xlink:href="#o" x="325.733" y="421.571"/><use xlink:href="#j" x="314.942" y="422.827"/><use xlink:href="#p" x="318.23" y="422.827"/><g fill="red"><use xlink:href="#j" x="307.337" y="422.628"/><use xlink:href="#q" x="310.625" y="422.628"/></g><use xlink:href="#j" x="299.91" y="420.982"/><use xlink:href="#r" x="303.198" y="420.982"/><use xlink:href="#k" x="292.934" y="417.948"/><use xlink:href="#s" x="296.222" y="417.948"/><use xlink:href="#k" x="286.665" y="413.639"/><use xlink:href="#j" x="289.953" y="413.639"/><use xlink:href="#k" x="281.333" y="408.213"/><use xlink:href="#k" x="284.621" y="408.213"/><use xlink:href="#k" x="277.134" y="401.869"/><use xlink:href="#l" x="280.422" y="401.869"/><use xlink:href="#k" x="274.223" y="394.842"/><use xlink:href="#m" x="277.511" y="394.842"/><g fill="red"><use xlink:href="#k" x="272.706" y="387.387"/><use xlink:href="#n" x="275.994" y="387.387"/></g><use xlink:href="#k" x="272.64" y="379.78"/><use xlink:href="#o" x="275.928" y="379.78"/><use xlink:href="#k" x="274.026" y="372.3"/><use xlink:href="#p" x="277.314" y="372.3"/><use xlink:href="#k" x="276.814" y="365.222"/><use xlink:href="#q" x="280.102" y="365.222"/><use xlink:href="#k" x="280.902" y="358.806"/><use xlink:href="#r" x="284.19" y="358.806"/><g fill="#090"><use xlink:href="#w" x="367.449" y="317.956"/><use xlink:href="#e" x="377.192" y="317.956"/></g><g fill="#090"><use xlink:href="#h" x="382.114" y="317.956"/><use xlink:href="#x" x="385.82" y="317.956"/><use xlink:href="#y" x="390.692" y="317.956"/></g><use xlink:href="#j" x="380.221" y="277.15" fill="#090"/><use xlink:href="#k" x="387.794" y="277.879"/><use xlink:href="#l" x="395.087" y="280.04" fill="red"/><use xlink:href="#m" x="401.836" y="283.553"/><use xlink:href="#n" x="407.789" y="288.288"/><use xlink:href="#o" x="412.729" y="294.073"/><use xlink:href="#p" x="416.475" y="300.694"/><use xlink:href="#q" x="418.889" y="307.908"/><use xlink:href="#r" x="419.882" y="315.45"/><g fill="red"><use xlink:href="#j" x="417.774" y="323.043"/><use xlink:href="#s" x="421.062" y="323.043"/></g><use xlink:href="#j" x="415.869" y="330.408"/><use xlink:href="#j" x="419.157" y="330.408"/><use xlink:href="#j" x="412.594" y="337.275"/><use xlink:href="#k" x="415.882" y="337.275"/><use xlink:href="#j" x="408.069" y="343.389"/><use xlink:href="#l" x="411.357" y="343.389"/><use xlink:href="#j" x="402.461" y="348.529"/><use xlink:href="#m" x="405.749" y="348.529"/><use xlink:href="#j" x="395.974" y="352.503"/><use xlink:href="#n" x="399.262" y="352.503"/><use xlink:href="#j" x="388.849" y="355.168"/><use xlink:href="#o" x="392.137" y="355.168"/><g fill="red"><use xlink:href="#j" x="381.346" y="356.423"/><use xlink:href="#p" x="384.634" y="356.423"/></g><use xlink:href="#j" x="373.741" y="356.224"/><use xlink:href="#q" x="377.029" y="356.224"/><use xlink:href="#j" x="366.314" y="354.578"/><use xlink:href="#r" x="369.602" y="354.578"/><use xlink:href="#k" x="359.338" y="351.544"/><use xlink:href="#s" x="362.626" y="351.544"/><use xlink:href="#k" x="353.068" y="347.235"/><use xlink:href="#j" x="356.356" y="347.235"/><use xlink:href="#k" x="347.737" y="341.809"/><use xlink:href="#k" x="351.025" y="341.809"/><use xlink:href="#k" x="343.538" y="335.466"/><use xlink:href="#l" x="346.826" y="335.466"/><g fill="red"><use xlink:href="#k" x="340.627" y="328.438"/><use xlink:href="#m" x="343.915" y="328.438"/></g><use xlink:href="#k" x="339.11" y="320.983"/><use xlink:href="#n" x="342.398" y="320.983"/><use xlink:href="#k" x="339.044" y="313.376"/><use xlink:href="#o" x="342.332" y="313.376"/><use xlink:href="#k" x="340.43" y="305.897"/><use xlink:href="#p" x="343.718" y="305.897"/><use xlink:href="#k" x="343.218" y="298.818"/><use xlink:href="#q" x="346.506" y="298.818"/><use xlink:href="#k" x="347.305" y="292.403"/><use xlink:href="#r" x="350.593" y="292.403"/><use xlink:href="#l" x="352.542" y="286.884"/><use xlink:href="#s" x="355.83" y="286.884"/><g fill="red"><use xlink:href="#l" x="358.735" y="282.467"/><use xlink:href="#j" x="362.023" y="282.467"/></g><g fill="#090"><use xlink:href="#z" x="395.475" y="226.336"/><use xlink:href="#A" x="402.778" y="226.336"/></g><g fill="#090"><use xlink:href="#h" x="408.058" y="226.336"/><use xlink:href="#B" x="411.764" y="226.336"/><use xlink:href="#C" x="414.314" y="226.336"/></g><use xlink:href="#j" x="404.526" y="186.442" fill="#090"/><use xlink:href="#k" x="412.098" y="187.171"/><use xlink:href="#l" x="419.392" y="189.331"/><use xlink:href="#m" x="426.14" y="192.844"/><use xlink:href="#n" x="432.093" y="197.579"/><use xlink:href="#o" x="437.034" y="203.364"/><use xlink:href="#p" x="440.78" y="209.985" fill="red"/><use xlink:href="#q" x="443.194" y="217.2"/><use xlink:href="#r" x="444.187" y="224.742"/><use xlink:href="#j" x="442.078" y="232.334"/><use xlink:href="#s" x="445.366" y="232.334"/><use xlink:href="#j" x="440.174" y="239.7"/><use xlink:href="#j" x="443.462" y="239.7"/><use xlink:href="#j" x="436.899" y="246.566"/><use xlink:href="#k" x="440.187" y="246.566"/><use xlink:href="#j" x="432.373" y="252.681"/><use xlink:href="#l" x="435.661" y="252.681"/><g fill="red"><use xlink:href="#j" x="426.765" y="257.821"/><use xlink:href="#m" x="430.053" y="257.821"/></g><use xlink:href="#j" x="420.279" y="261.795"/><use xlink:href="#n" x="423.567" y="261.795"/><use xlink:href="#j" x="413.153" y="264.459"/><use xlink:href="#o" x="416.441" y="264.459"/><use xlink:href="#j" x="405.651" y="265.714"/><use xlink:href="#p" x="408.939" y="265.714"/><use xlink:href="#j" x="398.046" y="265.516"/><use xlink:href="#q" x="401.334" y="265.516"/><use xlink:href="#j" x="390.619" y="263.869"/><use xlink:href="#r" x="393.907" y="263.869"/><use xlink:href="#k" x="383.642" y="260.836"/><use xlink:href="#s" x="386.93" y="260.836"/><g fill="red"><use xlink:href="#k" x="377.373" y="256.527"/><use xlink:href="#j" x="380.661" y="256.527"/></g><use xlink:href="#k" x="372.041" y="251.101"/><use xlink:href="#k" x="375.329" y="251.101"/><use xlink:href="#k" x="367.843" y="244.757"/><use xlink:href="#l" x="371.131" y="244.757"/><use xlink:href="#k" x="364.932" y="237.729"/><use xlink:href="#m" x="368.22" y="237.729"/><use xlink:href="#k" x="363.415" y="230.274"/><use xlink:href="#n" x="366.703" y="230.274"/><use xlink:href="#k" x="363.349" y="222.668"/><use xlink:href="#o" x="366.637" y="222.668"/><use xlink:href="#k" x="364.735" y="215.188"/><use xlink:href="#p" x="368.023" y="215.188"/><g fill="red"><use xlink:href="#k" x="367.523" y="208.11"/><use xlink:href="#q" x="370.811" y="208.11"/></g><use xlink:href="#k" x="371.61" y="201.694"/><use xlink:href="#r" x="374.898" y="201.694"/><use xlink:href="#l" x="376.846" y="196.176"/><use xlink:href="#s" x="380.134" y="196.176"/><g fill="#090"><use xlink:href="#w" x="372.042" y="135.572"/><use xlink:href="#e" x="381.785" y="135.572"/></g><use xlink:href="#i" x="386.707" y="135.572" fill="#090"/><use xlink:href="#j" x="380.221" y="95.733" fill="#090"/><use xlink:href="#k" x="387.794" y="96.462"/><use xlink:href="#l" x="395.087" y="98.623"/><use xlink:href="#m" x="401.836" y="102.135"/><use xlink:href="#n" x="407.789" y="106.871" fill="red"/><use xlink:href="#o" x="412.729" y="112.656"/><use xlink:href="#p" x="416.475" y="119.277"/><use xlink:href="#q" x="418.889" y="126.491"/><use xlink:href="#r" x="419.882" y="134.033"/><use xlink:href="#j" x="417.774" y="141.626"/><use xlink:href="#s" x="421.062" y="141.626"/><use xlink:href="#j" x="415.869" y="148.991"/><use xlink:href="#j" x="419.157" y="148.991"/><g fill="red"><use xlink:href="#j" x="412.594" y="155.857"/><use xlink:href="#k" x="415.882" y="155.857"/></g><use xlink:href="#j" x="408.069" y="161.972"/><use xlink:href="#l" x="411.357" y="161.972"/><use xlink:href="#j" x="402.461" y="167.112"/><use xlink:href="#m" x="405.749" y="167.112"/><use xlink:href="#j" x="395.974" y="171.086"/><use xlink:href="#n" x="399.262" y="171.086"/><use xlink:href="#j" x="388.849" y="173.751"/><use xlink:href="#o" x="392.137" y="173.751"/><use xlink:href="#j" x="381.346" y="175.006"/><use xlink:href="#p" x="384.634" y="175.006"/><use xlink:href="#j" x="373.741" y="174.807"/><use xlink:href="#q" x="377.029" y="174.807"/><g fill="red"><use xlink:href="#j" x="366.314" y="173.161"/><use xlink:href="#r" x="369.602" y="173.161"/></g><use xlink:href="#k" x="359.338" y="170.127"/><use xlink:href="#s" x="362.626" y="170.127"/><use xlink:href="#k" x="353.068" y="165.818"/><use xlink:href="#j" x="356.356" y="165.818"/><use xlink:href="#k" x="347.737" y="160.392"/><use xlink:href="#k" x="351.025" y="160.392"/><use xlink:href="#k" x="343.538" y="154.049"/><use xlink:href="#l" x="346.826" y="154.049"/><use xlink:href="#k" x="340.627" y="147.021"/><use xlink:href="#m" x="343.915" y="147.021"/><use xlink:href="#k" x="339.11" y="139.566"/><use xlink:href="#n" x="342.398" y="139.566"/><g fill="red"><use xlink:href="#k" x="339.044" y="131.959"/><use xlink:href="#o" x="342.332" y="131.959"/></g><use xlink:href="#k" x="340.43" y="124.479"/><use xlink:href="#p" x="343.718" y="124.479"/><use xlink:href="#k" x="343.218" y="117.401"/><use xlink:href="#q" x="346.506" y="117.401"/><use xlink:href="#k" x="347.305" y="110.985"/><use xlink:href="#r" x="350.593" y="110.985"/><use xlink:href="#l" x="352.542" y="105.467"/><use xlink:href="#s" x="355.83" y="105.467"/><use xlink:href="#l" x="358.735" y="101.05"/><use xlink:href="#j" x="362.023" y="101.05"/><g fill="#FF7F00"><use xlink:href="#d" x="304.742" y="70.08"/><use xlink:href="#g" x="309.913" y="70.08"/><use xlink:href="#f" x="315.502" y="70.08"/><use xlink:href="#u" x="321.091" y="70.08"/></g><use xlink:href="#j" x="313.818" y="29.329" fill="#FF7F00"/><use xlink:href="#k" x="321.39" y="30.058" fill="red"/><use xlink:href="#l" x="328.684" y="32.219"/><use xlink:href="#m" x="335.432" y="35.732"/><use xlink:href="#n" x="341.385" y="40.467"/><use xlink:href="#o" x="346.326" y="46.252"/><use xlink:href="#p" x="350.071" y="52.873"/><use xlink:href="#q" x="352.485" y="60.087"/><use xlink:href="#r" x="353.478" y="67.629" fill="red"/><use xlink:href="#j" x="351.37" y="75.222"/><use xlink:href="#s" x="354.658" y="75.222"/><use xlink:href="#j" x="349.465" y="82.587"/><use xlink:href="#j" x="352.753" y="82.587"/><use xlink:href="#j" x="346.19" y="89.454"/><use xlink:href="#k" x="349.478" y="89.454"/><use xlink:href="#j" x="341.665" y="95.568"/><use xlink:href="#l" x="344.953" y="95.568"/><use xlink:href="#j" x="336.057" y="100.708"/><use xlink:href="#m" x="339.345" y="100.708"/><use xlink:href="#j" x="329.57" y="104.682"/><use xlink:href="#n" x="332.858" y="104.682"/><g fill="red"><use xlink:href="#j" x="322.445" y="107.347"/><use xlink:href="#o" x="325.733" y="107.347"/></g><use xlink:href="#j" x="314.942" y="108.602"/><use xlink:href="#p" x="318.23" y="108.602"/><use xlink:href="#j" x="307.337" y="108.404"/><use xlink:href="#q" x="310.625" y="108.404"/><use xlink:href="#j" x="299.91" y="106.757"/><use xlink:href="#r" x="303.198" y="106.757"/><use xlink:href="#k" x="292.934" y="103.723"/><use xlink:href="#s" x="296.222" y="103.723"/><use xlink:href="#k" x="286.665" y="99.414"/><use xlink:href="#j" x="289.953" y="99.414"/><use xlink:href="#k" x="281.333" y="93.989"/><use xlink:href="#k" x="284.621" y="93.989"/><g fill="red"><use xlink:href="#k" x="277.134" y="87.645"/><use xlink:href="#l" x="280.422" y="87.645"/></g><use xlink:href="#k" x="274.223" y="80.617"/><use xlink:href="#m" x="277.511" y="80.617"/><use xlink:href="#k" x="272.706" y="73.162"/><use xlink:href="#n" x="275.994" y="73.162"/><use xlink:href="#k" x="272.64" y="65.555"/><use xlink:href="#o" x="275.928" y="65.555"/><use xlink:href="#k" x="274.026" y="58.076"/><use xlink:href="#p" x="277.314" y="58.076"/><use xlink:href="#k" x="276.814" y="50.997"/><use xlink:href="#q" x="280.102" y="50.997"/><use xlink:href="#k" x="280.902" y="44.582"/><use xlink:href="#r" x="284.19" y="44.582"/><g fill="red"><use xlink:href="#l" x="286.138" y="39.063"/><use xlink:href="#s" x="289.426" y="39.063"/></g><g fill="#FF7F00"><use xlink:href="#d" x="215.607" y="44.864"/><use xlink:href="#g" x="220.778" y="44.864"/><use xlink:href="#C" x="226.367" y="44.864"/><use xlink:href="#i" x="228.917" y="44.864"/></g><use xlink:href="#j" x="223.109" y="5.024" fill="#FF7F00"/><use xlink:href="#k" x="230.681" y="5.754"/><use xlink:href="#l" x="237.975" y="7.914"/><use xlink:href="#m" x="244.723" y="11.427"/><use xlink:href="#n" x="250.676" y="16.162"/><use xlink:href="#o" x="255.617" y="21.947"/><use xlink:href="#p" x="259.363" y="28.568" fill="red"/><use xlink:href="#q" x="261.777" y="35.782"/><use xlink:href="#r" x="262.77" y="43.324"/><use xlink:href="#j" x="260.661" y="50.917"/><use xlink:href="#s" x="263.949" y="50.917"/><use xlink:href="#j" x="258.757" y="58.283"/><use xlink:href="#j" x="262.045" y="58.283"/><use xlink:href="#j" x="255.481" y="65.149"/><use xlink:href="#k" x="258.769" y="65.149"/><use xlink:href="#j" x="250.956" y="71.264"/><use xlink:href="#l" x="254.244" y="71.264"/><g fill="red"><use xlink:href="#j" x="245.348" y="76.403"/><use xlink:href="#m" x="248.636" y="76.403"/></g><use xlink:href="#j" x="238.862" y="80.378"/><use xlink:href="#n" x="242.15" y="80.378"/><use xlink:href="#j" x="231.736" y="83.042"/><use xlink:href="#o" x="235.024" y="83.042"/><use xlink:href="#j" x="224.234" y="84.297"/><use xlink:href="#p" x="227.522" y="84.297"/><use xlink:href="#j" x="216.629" y="84.099"/><use xlink:href="#q" x="219.917" y="84.099"/><use xlink:href="#j" x="209.202" y="82.452"/><use xlink:href="#r" x="212.49" y="82.452"/><use xlink:href="#k" x="202.225" y="79.418"/><use xlink:href="#s" x="205.513" y="79.418"/><g fill="red"><use xlink:href="#k" x="195.956" y="75.109"/><use xlink:href="#j" x="199.244" y="75.109"/></g><use xlink:href="#k" x="190.624" y="69.684"/><use xlink:href="#k" x="193.912" y="69.684"/><use xlink:href="#k" x="186.425" y="63.34"/><use xlink:href="#l" x="189.713" y="63.34"/><use xlink:href="#k" x="183.515" y="56.312"/><use xlink:href="#m" x="186.803" y="56.312"/><use xlink:href="#k" x="181.998" y="48.857"/><use xlink:href="#n" x="185.286" y="48.857"/><use xlink:href="#k" x="181.932" y="41.25"/><use xlink:href="#o" x="185.22" y="41.25"/><use xlink:href="#k" x="183.318" y="33.771"/><use xlink:href="#p" x="186.606" y="33.771"/><g fill="red"><use xlink:href="#k" x="186.106" y="26.693"/><use xlink:href="#q" x="189.394" y="26.693"/></g><use xlink:href="#k" x="190.193" y="20.277"/><use xlink:href="#r" x="193.481" y="20.277"/><use xlink:href="#l" x="195.429" y="14.759"/><use xlink:href="#s" x="198.717" y="14.759"/><use xlink:href="#l" x="201.623" y="10.341"/><use xlink:href="#j" x="204.911" y="10.341"/><use xlink:href="#z" x="118.104" y="69.164" fill="#FF7F00"/><g fill="#FF7F00"><use xlink:href="#g" x="125.098" y="69.164"/><use xlink:href="#D" x="130.687" y="69.164"/><use xlink:href="#g" x="136.166" y="69.164"/><use xlink:href="#E" x="141.755" y="69.164"/><use xlink:href="#F" x="145.96" y="69.164"/></g><use xlink:href="#j" x="132.4" y="29.329" fill="#FF7F00"/><use xlink:href="#k" x="139.973" y="30.058"/><use xlink:href="#l" x="147.266" y="32.219"/><use xlink:href="#m" x="154.015" y="35.732" fill="red"/><use xlink:href="#n" x="159.968" y="40.467"/><use xlink:href="#o" x="164.908" y="46.252"/><use xlink:href="#p" x="168.654" y="52.873"/><use xlink:href="#q" x="171.068" y="60.087"/><use xlink:href="#r" x="172.061" y="67.629"/><use xlink:href="#j" x="169.953" y="75.222"/><use xlink:href="#s" x="173.241" y="75.222"/><g fill="red"><use xlink:href="#j" x="168.048" y="82.587"/><use xlink:href="#j" x="171.336" y="82.587"/></g><use xlink:href="#j" x="164.773" y="89.454"/><use xlink:href="#k" x="168.061" y="89.454"/><use xlink:href="#j" x="160.248" y="95.568"/><use xlink:href="#l" x="163.536" y="95.568"/><use xlink:href="#j" x="154.64" y="100.708"/><use xlink:href="#m" x="157.928" y="100.708"/><use xlink:href="#j" x="148.153" y="104.682"/><use xlink:href="#n" x="151.441" y="104.682"/><use xlink:href="#j" x="141.028" y="107.347"/><use xlink:href="#o" x="144.316" y="107.347"/><use xlink:href="#j" x="133.525" y="108.602"/><use xlink:href="#p" x="136.813" y="108.602"/><g fill="red"><use xlink:href="#j" x="125.92" y="108.404"/><use xlink:href="#q" x="129.208" y="108.404"/></g><use xlink:href="#j" x="118.493" y="106.757"/><use xlink:href="#r" x="121.781" y="106.757"/><use xlink:href="#k" x="111.517" y="103.723"/><use xlink:href="#s" x="114.805" y="103.723"/><use xlink:href="#k" x="105.247" y="99.414"/><use xlink:href="#j" x="108.535" y="99.414"/><use xlink:href="#k" x="99.916" y="93.989"/><use xlink:href="#k" x="103.204" y="93.989"/><use xlink:href="#k" x="95.717" y="87.645"/><use xlink:href="#l" x="99.005" y="87.645"/><use xlink:href="#k" x="92.806" y="80.617"/><use xlink:href="#m" x="96.094" y="80.617"/><g fill="red"><use xlink:href="#k" x="91.289" y="73.162"/><use xlink:href="#n" x="94.577" y="73.162"/></g><use xlink:href="#k" x="91.223" y="65.555"/><use xlink:href="#o" x="94.511" y="65.555"/><use xlink:href="#k" x="92.609" y="58.076"/><use xlink:href="#p" x="95.897" y="58.076"/><use xlink:href="#k" x="95.397" y="50.997"/><use xlink:href="#q" x="98.685" y="50.997"/><use xlink:href="#k" x="99.485" y="44.582"/><use xlink:href="#r" x="102.773" y="44.582"/><use xlink:href="#l" x="104.721" y="39.063"/><use xlink:href="#s" x="108.009" y="39.063"/><use xlink:href="#l" x="110.914" y="34.646"/><use xlink:href="#j" x="114.202" y="34.646"/><g fill="red"><use xlink:href="#G" x="43.033" y="135.737"/><use xlink:href="#u" x="49.12" y="135.737"/><use xlink:href="#A" x="54.211" y="135.737"/><use xlink:href="#F" x="59.8" y="135.737"/><use xlink:href="#u" x="63.825" y="135.737"/><use xlink:href="#H" x="68.916" y="135.737"/><use xlink:href="#v" x="77.554" y="135.737"/></g><g fill="red"><use xlink:href="#u" x="83.451" y="135.737"/><use xlink:href="#h" x="88.542" y="135.737"/></g><use xlink:href="#j" x="65.997" y="95.733" fill="red"/><use xlink:href="#k" x="73.569" y="96.462"/><use xlink:href="#l" x="80.863" y="98.623"/><use xlink:href="#m" x="87.611" y="102.135"/><use xlink:href="#n" x="93.564" y="106.871"/><use xlink:href="#o" x="98.505" y="112.656"/><use xlink:href="#p" x="102.251" y="119.277"/><use xlink:href="#q" x="104.664" y="126.491" fill="red"/><use xlink:href="#r" x="105.657" y="134.033"/><use xlink:href="#j" x="103.549" y="141.626"/><use xlink:href="#s" x="106.837" y="141.626"/><use xlink:href="#j" x="101.645" y="148.991"/><use xlink:href="#j" x="104.933" y="148.991"/><use xlink:href="#j" x="98.369" y="155.857"/><use xlink:href="#k" x="101.657" y="155.857"/><use xlink:href="#j" x="93.844" y="161.972"/><use xlink:href="#l" x="97.132" y="161.972"/><use xlink:href="#j" x="88.236" y="167.112"/><use xlink:href="#m" x="91.524" y="167.112"/><g fill="red"><use xlink:href="#j" x="81.749" y="171.086"/><use xlink:href="#n" x="85.037" y="171.086"/></g><use xlink:href="#j" x="74.624" y="173.751"/><use xlink:href="#o" x="77.912" y="173.751"/><use xlink:href="#j" x="67.121" y="175.006"/><use xlink:href="#p" x="70.409" y="175.006"/><use xlink:href="#j" x="59.516" y="174.807"/><use xlink:href="#q" x="62.804" y="174.807"/><use xlink:href="#j" x="52.089" y="173.161"/><use xlink:href="#r" x="55.377" y="173.161"/><use xlink:href="#k" x="45.113" y="170.127"/><use xlink:href="#s" x="48.401" y="170.127"/><use xlink:href="#k" x="38.844" y="165.818"/><use xlink:href="#j" x="42.132" y="165.818"/><g fill="red"><use xlink:href="#k" x="33.512" y="160.392"/><use xlink:href="#k" x="36.8" y="160.392"/></g><use xlink:href="#k" x="29.313" y="154.049"/><use xlink:href="#l" x="32.601" y="154.049"/><use xlink:href="#k" x="26.402" y="147.021"/><use xlink:href="#m" x="29.69" y="147.021"/><use xlink:href="#k" x="24.885" y="139.566"/><use xlink:href="#n" x="28.173" y="139.566"/><use xlink:href="#k" x="24.819" y="131.959"/><use xlink:href="#o" x="28.107" y="131.959"/><use xlink:href="#k" x="26.205" y="124.479"/><use xlink:href="#p" x="29.493" y="124.479"/><use xlink:href="#k" x="28.993" y="117.401"/><use xlink:href="#q" x="32.281" y="117.401"/><g fill="red"><use xlink:href="#k" x="33.081" y="110.985"/><use xlink:href="#r" x="36.369" y="110.985"/></g><use xlink:href="#l" x="38.317" y="105.467"/><use xlink:href="#s" x="41.605" y="105.467"/><g fill="red"><use xlink:href="#I" x="24.845" y="227.302"/><use xlink:href="#x" x="32.755" y="227.302"/><use xlink:href="#F" x="37.627" y="227.302"/><use xlink:href="#J" x="41.652" y="227.302"/><use xlink:href="#v" x="47.131" y="227.302"/></g><g fill="red"><use xlink:href="#u" x="53.029" y="227.302"/><use xlink:href="#h" x="58.12" y="227.302"/></g><use xlink:href="#j" x="41.692" y="186.442" fill="red"/><use xlink:href="#k" x="49.264" y="187.171"/><use xlink:href="#l" x="56.558" y="189.331"/><use xlink:href="#m" x="63.306" y="192.844"/><use xlink:href="#n" x="69.259" y="197.579"/><use xlink:href="#o" x="74.2" y="203.364" fill="red"/><use xlink:href="#p" x="77.946" y="209.985"/><use xlink:href="#q" x="80.359" y="217.2"/><use xlink:href="#r" x="81.352" y="224.742"/><use xlink:href="#j" x="79.244" y="232.334"/><use xlink:href="#s" x="82.532" y="232.334"/><use xlink:href="#j" x="77.34" y="239.7"/><use xlink:href="#j" x="80.628" y="239.7"/><use xlink:href="#j" x="74.064" y="246.566"/><use xlink:href="#k" x="77.352" y="246.566"/><g fill="red"><use xlink:href="#j" x="69.539" y="252.681"/><use xlink:href="#l" x="72.827" y="252.681"/></g><use xlink:href="#j" x="63.931" y="257.821"/><use xlink:href="#m" x="67.219" y="257.821"/><use xlink:href="#j" x="57.445" y="261.795"/><use xlink:href="#n" x="60.733" y="261.795"/><use xlink:href="#j" x="50.319" y="264.459"/><use xlink:href="#o" x="53.607" y="264.459"/><use xlink:href="#j" x="42.817" y="265.714"/><use xlink:href="#p" x="46.105" y="265.714"/><use xlink:href="#j" x="35.212" y="265.516"/><use xlink:href="#q" x="38.5" y="265.516"/><use xlink:href="#j" x="27.785" y="263.869"/><use xlink:href="#r" x="31.073" y="263.869"/><g fill="red"><use xlink:href="#k" x="20.808" y="260.836"/><use xlink:href="#s" x="24.096" y="260.836"/></g><use xlink:href="#k" x="14.539" y="256.527"/><use xlink:href="#j" x="17.827" y="256.527"/><use xlink:href="#k" x="9.207" y="251.101"/><use xlink:href="#k" x="12.495" y="251.101"/><use xlink:href="#k" x="5.008" y="244.757"/><use xlink:href="#l" x="8.296" y="244.757"/><use xlink:href="#k" x="2.097" y="237.729"/><use xlink:href="#m" x="5.385" y="237.729"/><use xlink:href="#k" x=".581" y="230.274"/><use xlink:href="#n" x="3.869" y="230.274"/><use xlink:href="#k" x=".515" y="222.668"/><use xlink:href="#o" x="3.803" y="222.668"/><g fill="red"><use xlink:href="#k" x="1.901" y="215.188"/><use xlink:href="#p" x="5.189" y="215.188"/></g><use xlink:href="#k" x="4.689" y="208.11"/><use xlink:href="#q" x="7.977" y="208.11"/><use xlink:href="#k" x="8.776" y="201.694"/><use xlink:href="#r" x="12.064" y="201.694"/><use xlink:href="#l" x="14.012" y="196.176"/><use xlink:href="#s" x="17.3" y="196.176"/><use xlink:href="#l" x="20.206" y="191.758"/><use xlink:href="#j" x="23.494" y="191.758"/><g fill="red"><use xlink:href="#K" x="44.243" y="317.956"/><use xlink:href="#J" x="52.153" y="317.956"/><use xlink:href="#L" x="57.633" y="317.956"/><use xlink:href="#u" x="62.614" y="317.956"/><use xlink:href="#H" x="67.705" y="317.956"/><use xlink:href="#v" x="76.343" y="317.956"/></g><g fill="red"><use xlink:href="#u" x="82.241" y="317.956"/><use xlink:href="#h" x="87.331" y="317.956"/></g><use xlink:href="#j" x="65.997" y="277.15" fill="red"/><use xlink:href="#k" x="73.569" y="277.879"/><use xlink:href="#l" x="80.863" y="280.04" fill="red"/><use xlink:href="#m" x="87.611" y="283.553"/><use xlink:href="#n" x="93.564" y="288.288"/><use xlink:href="#o" x="98.505" y="294.073"/><use xlink:href="#p" x="102.251" y="300.694"/><use xlink:href="#q" x="104.664" y="307.908"/><use xlink:href="#r" x="105.657" y="315.45"/><g fill="red"><use xlink:href="#j" x="103.549" y="323.043"/><use xlink:href="#s" x="106.837" y="323.043"/></g><use xlink:href="#j" x="101.645" y="330.408"/><use xlink:href="#j" x="104.933" y="330.408"/><use xlink:href="#j" x="98.369" y="337.275"/><use xlink:href="#k" x="101.657" y="337.275"/><use xlink:href="#j" x="93.844" y="343.389"/><use xlink:href="#l" x="97.132" y="343.389"/><use xlink:href="#j" x="88.236" y="348.529"/><use xlink:href="#m" x="91.524" y="348.529"/><use xlink:href="#j" x="81.749" y="352.503"/><use xlink:href="#n" x="85.037" y="352.503"/><use xlink:href="#j" x="74.624" y="355.168"/><use xlink:href="#o" x="77.912" y="355.168"/><g fill="red"><use xlink:href="#j" x="67.121" y="356.423"/><use xlink:href="#p" x="70.409" y="356.423"/></g><use xlink:href="#j" x="59.516" y="356.224"/><use xlink:href="#q" x="62.804" y="356.224"/><use xlink:href="#j" x="52.089" y="354.578"/><use xlink:href="#r" x="55.377" y="354.578"/><use xlink:href="#k" x="45.113" y="351.544"/><use xlink:href="#s" x="48.401" y="351.544"/><use xlink:href="#k" x="38.844" y="347.235"/><use xlink:href="#j" x="42.132" y="347.235"/><use xlink:href="#k" x="33.512" y="341.809"/><use xlink:href="#k" x="36.8" y="341.809"/><use xlink:href="#k" x="29.313" y="335.466"/><use xlink:href="#l" x="32.601" y="335.466"/><g fill="red"><use xlink:href="#k" x="26.402" y="328.438"/><use xlink:href="#m" x="29.69" y="328.438"/></g><use xlink:href="#k" x="24.885" y="320.983"/><use xlink:href="#n" x="28.173" y="320.983"/><use xlink:href="#k" x="24.819" y="313.376"/><use xlink:href="#o" x="28.107" y="313.376"/><use xlink:href="#k" x="26.205" y="305.897"/><use xlink:href="#p" x="29.493" y="305.897"/><use xlink:href="#k" x="28.993" y="298.818"/><use xlink:href="#q" x="32.281" y="298.818"/><use xlink:href="#k" x="33.081" y="292.403"/><use xlink:href="#r" x="36.369" y="292.403"/><use xlink:href="#l" x="38.317" y="286.884"/><use xlink:href="#s" x="41.605" y="286.884"/><g fill="#00F"><use xlink:href="#M" x="110.896" y="384.36"/><use xlink:href="#u" x="118.806" y="384.36"/><use xlink:href="#x" x="123.897" y="384.36"/><use xlink:href="#u" x="128.769" y="384.36"/><use xlink:href="#H" x="133.86" y="384.36"/><use xlink:href="#v" x="142.497" y="384.36"/></g><g fill="#00F"><use xlink:href="#u" x="148.395" y="384.36"/><use xlink:href="#h" x="153.486" y="384.36"/></g><use xlink:href="#j" x="132.4" y="343.554" fill="red"/><use xlink:href="#k" x="139.973" y="344.283"/><use xlink:href="#l" x="147.266" y="346.444"/><use xlink:href="#m" x="154.015" y="349.956"/><use xlink:href="#n" x="159.968" y="354.692"/><use xlink:href="#o" x="164.908" y="360.476"/><use xlink:href="#p" x="168.654" y="367.097"/><use xlink:href="#q" x="171.068" y="374.312" fill="red"/><use xlink:href="#r" x="172.061" y="381.854"/><use xlink:href="#j" x="169.953" y="389.447"/><use xlink:href="#s" x="173.241" y="389.447"/><use xlink:href="#j" x="168.048" y="396.812"/><use xlink:href="#j" x="171.336" y="396.812"/><use xlink:href="#j" x="164.773" y="403.678"/><use xlink:href="#k" x="168.061" y="403.678"/><use xlink:href="#j" x="160.248" y="409.793"/><use xlink:href="#l" x="163.536" y="409.793"/><use xlink:href="#j" x="154.64" y="414.933"/><use xlink:href="#m" x="157.928" y="414.933"/><g fill="red"><use xlink:href="#j" x="148.153" y="418.907"/><use xlink:href="#n" x="151.441" y="418.907"/></g><use xlink:href="#j" x="141.028" y="421.571"/><use xlink:href="#o" x="144.316" y="421.571"/><use xlink:href="#j" x="133.525" y="422.827"/><use xlink:href="#p" x="136.813" y="422.827"/><use xlink:href="#j" x="125.92" y="422.628"/><use xlink:href="#q" x="129.208" y="422.628"/><use xlink:href="#j" x="118.493" y="420.982"/><use xlink:href="#r" x="121.781" y="420.982"/><use xlink:href="#k" x="111.517" y="417.948"/><use xlink:href="#s" x="114.805" y="417.948"/><use xlink:href="#k" x="105.247" y="413.639"/><use xlink:href="#j" x="108.535" y="413.639"/><g fill="red"><use xlink:href="#k" x="99.916" y="408.213"/><use xlink:href="#k" x="103.204" y="408.213"/></g><use xlink:href="#k" x="95.717" y="401.869"/><use xlink:href="#l" x="99.005" y="401.869"/><use xlink:href="#k" x="92.806" y="394.842"/><use xlink:href="#m" x="96.094" y="394.842"/><use xlink:href="#k" x="91.289" y="387.387"/><use xlink:href="#n" x="94.577" y="387.387"/><use xlink:href="#k" x="91.223" y="379.78"/><use xlink:href="#o" x="94.511" y="379.78"/><use xlink:href="#k" x="92.609" y="372.3"/><use xlink:href="#p" x="95.897" y="372.3"/><use xlink:href="#k" x="95.397" y="365.222"/><use xlink:href="#q" x="98.685" y="365.222"/><g fill="red"><use xlink:href="#k" x="99.485" y="358.806"/><use xlink:href="#r" x="102.773" y="358.806"/></g><use xlink:href="#l" x="104.721" y="353.288"/><use xlink:href="#s" x="108.009" y="353.288"/><use xlink:href="#l" x="110.914" y="348.871"/><use xlink:href="#j" x="114.202" y="348.871"/></svg>