<svg xmlns="http://www.w3.org/2000/svg" xmlns:xlink="http://www.w3.org/1999/xlink" width="104.924" height="395.102"><defs><path id="g" d="M2.016-2.656c.625 0 1.03.453 1.03 1.297 0 1-.562 1.28-.983 1.28-.438 0-1.047-.155-1.329-.577.297 0 .5-.188.5-.438 0-.265-.187-.437-.453-.437-.203 0-.437.125-.437.453 0 .75.812 1.25 1.734 1.25 1.047 0 1.797-.734 1.797-1.531 0-.672-.531-1.266-1.344-1.453.625-.22 1.11-.75 1.11-1.391 0-.64-.72-1.094-1.547-1.094-.86 0-1.5.453-1.5 1.063 0 .297.187.422.406.422.25 0 .406-.172.406-.407 0-.297-.265-.406-.437-.406.344-.437.953-.469 1.094-.469.203 0 .812.063.812.89 0 .548-.234.891-.344 1.016-.234.25-.422.266-.906.297-.156 0-.219.016-.219.125 0 .11.078.11.219.11Zm0 0"/><path id="h" d="M5.281-4.64c.219-.532.719-.532.875-.532v-.266c-.234.016-.64.016-.781.016-.156 0-.516 0-.875-.016v.266c.344 0 .531.172.531.375 0 .078 0 .094-.047.188L3.406-.75 1.75-4.812c-.031-.079-.047-.11-.047-.141 0-.219.422-.219.61-.219v-.266c-.672.016-.688.016-1.11.016-.375 0-.625 0-1.031-.016v.266c.484 0 .656 0 .781.297l2 4.86c.063.156.125.187.203.187.156 0 .172-.063.219-.188Zm0 0"/><path id="j" d="M5.734-1.312h-.25c-.015.078-.109.484-.156.625-.047.078-.062.14-.531.14H4.14c.14-.469.375-.812.734-1.312.36-.5.766-1.078.766-1.766 0-1.078-1.125-1.984-2.594-1.984S.469-4.703.469-3.625c0 .703.39 1.25.828 1.86.281.406.531.765.656 1.218h-.64c-.47 0-.485-.062-.532-.14-.062-.141-.14-.547-.156-.625h-.25L.656 0h1.36c.172 0 .218 0 .218-.172 0-.578-.28-1.265-.484-1.75-.219-.547-.453-1.125-.453-1.703 0-1.187.906-1.766 1.75-1.766.86 0 1.765.594 1.765 1.766 0 .578-.234 1.125-.437 1.61-.234.593-.516 1.265-.516 1.828 0 .187.047.187.235.187h1.36Zm0 0"/><path id="k" d="M3.14-5.156c0-.157 0-.219-.171-.219-.094 0-.11 0-.188.11L.234-1.564v.25h2.25v.672c0 .297-.015.375-.64.375h-.172V0c.672-.031.687-.031 1.14-.031.454 0 .47 0 1.141.031v-.266h-.172c-.625 0-.64-.078-.64-.375v-.671h.843v-.25h-.843Zm-.593.64v2.954H.516Zm0 0"/><path id="l" d="M2.64-2.875c.454-.219 1-.61 1-1.234 0-.766-.78-1.188-1.515-1.188-.844 0-1.531.578-1.531 1.328 0 .297.094.563.297.797.14.172.172.188.656.5C.563-2.234.344-1.656.344-1.219c0 .89.89 1.39 1.765 1.39.97 0 1.766-.671 1.766-1.515 0-.5-.266-.828-.406-.968-.125-.126-.14-.141-.828-.563m-1.234-.75c-.234-.14-.422-.375-.422-.64 0-.5.547-.829 1.125-.829.61 0 1.125.422 1.125.985 0 .453-.359.843-.828 1.078Zm.39 1.094c.032.015.938.578 1.079.656.125.078.547.328.547.813 0 .609-.656.984-1.297.984-.719 0-1.312-.484-1.312-1.14 0-.594.437-1.063.984-1.313m0 0"/><path id="m" d="M2.25-1.625c.125-.125.453-.39.594-.5.484-.453.953-.89.953-1.61 0-.953-.797-1.562-1.781-1.562-.97 0-1.594.719-1.594 1.438 0 .39.312.437.422.437.172 0 .422-.11.422-.422 0-.406-.407-.406-.5-.406.234-.594.765-.781 1.156-.781.734 0 1.125.625 1.125 1.297 0 .828-.578 1.437-1.531 2.39l-1 1.047C.422-.219.422-.203.422 0h3.14l.235-1.422h-.25c-.016.156-.078.547-.172.703-.047.063-.656.063-.781.063H1.172Zm0 0"/><path id="n" d="M2.5-5.078c0-.219-.016-.219-.234-.219-.328.313-.75.5-1.5.5v.266c.218 0 .64 0 1.109-.203v4.078c0 .297-.031.39-.781.39H.812V0c.329-.031 1.016-.031 1.376-.031s1.046 0 1.374.031v-.266h-.28c-.75 0-.782-.093-.782-.39Zm0 0"/><path id="s" d="M5.828-2.656c.11 0 .281 0 .281-.188 0-.172-.203-.172-.312-.172H.78c-.125 0-.312 0-.312.172 0 .188.156.188.281.188ZM5.797-.97c.11 0 .312 0 .312-.172 0-.187-.171-.187-.28-.187H.75c-.125 0-.281 0-.281.187 0 .172.187.172.312.172Zm0 0"/><path id="o" d="M5.344-5.39a.3.3 0 0 0 .031-.126c0-.046-.047-.093-.11-.093-.046 0-.062.015-.156.109-.093.11-.296.36-.39.453-.297-.453-.813-.562-1.219-.562-1.094 0-2.047.937-2.047 1.843 0 .454.25.735.281.782.266.28.5.343 1.079.484.265.063.28.063.515.125.235.063.75.188.75.844 0 .687-.687 1.437-1.531 1.437-.516 0-1.469-.156-1.469-1.156 0-.016 0-.187.047-.375l.016-.078c0-.094-.094-.11-.125-.11-.094 0-.11.032-.141.22L.547-.298C.516-.172.453.047.453.063c0 .062.047.109.11.109.046 0 .062-.016.14-.11l.39-.453c.188.235.641.563 1.438.563 1.156 0 2.11-1.047 2.11-2 0-.375-.125-.656-.344-.875-.234-.266-.5-.328-.875-.422-.219-.062-.531-.14-.719-.187-.234-.047-.687-.204-.687-.766 0-.625.672-1.297 1.484-1.297.719 0 1.203.375 1.203 1.234 0 .204-.031.36-.031.391 0 .094.078.11.14.11.094 0 .094-.032.125-.157Zm0 0"/><path id="q" d="M.828-1.828c-.094.328-.015.031-.11.36-.077.296-.265.593-.265.874 0 .422.328.672.734.672.282 0 .688-.094 1.079-.437.406-.36.468-.766.468-.782 0-.093-.062-.109-.109-.109-.094 0-.11.047-.14.156-.204.578-.797.953-1.266.953C1.125-.14 1-.156 1-.406c0-.188.078-.36.11-.469.421-1.094.702-2.36.702-2.39 0-.172-.125-.25-.265-.25a.38.38 0 0 0-.313.218c-.062.172-.14.563-.187.719Zm0 0"/><path id="r" d="M3.094-4.89c.062-.266.078-.282.406-.282h.64c.657 0 1.266.156 1.266.813 0 .343-.172.906-.547 1.156-.375.281-.828.36-1.296.36h-.985Zm1.36 2.187c.968-.25 1.734-.844 1.734-1.531 0-.688-.782-1.203-1.891-1.203H1.953c-.14 0-.25 0-.25.14 0 .125.11.125.234.125.266 0 .5 0 .5.125 0 .031-.015.031-.03.14L1.327-.624c-.062.297-.078.36-.672.36-.156 0-.25 0-.25.156 0 .03.031.109.125.109.156 0 .344-.016.5-.031h.485c.75 0 .984.031 1.03.031.048 0 .157 0 .157-.156 0-.11-.11-.11-.234-.11-.031 0-.172 0-.313-.015-.172-.016-.187-.031-.187-.11 0-.046.015-.093.031-.125l.516-2.093h1.03c.72 0 .954.375.954.703 0 .11-.062.343-.094.5-.078.234-.156.547-.156.703 0 .61.531.875 1.125.875.688 0 1.016-.781 1.016-.938a.12.12 0 0 0-.125-.109c-.094 0-.11.063-.125.11-.172.546-.516.703-.75.703-.297 0-.328-.22-.328-.485s.046-.61.078-.875c.03-.234.03-.281.03-.36 0-.484-.296-.765-.718-.921m0 0"/><path id="p" d="M2.14-3.797c0-.187-.015-.187-.203-.187-.39.39-1 .39-1.218.39v.235c.156 0 .562 0 .922-.172v3.015c0 .204 0 .282-.625.282h-.25V0c.328-.031.797-.031 1.125-.031s.797 0 1.125.031v-.234h-.25c-.625 0-.625-.078-.625-.282Zm0 0"/><clipPath id="a"><path d="M92 320h12.887v21H92Zm0 0"/></clipPath><clipPath id="b"><path d="M92 264h12.887v20H92Zm0 0"/></clipPath><clipPath id="c"><path d="M92 179h12.887v20H92Zm0 0"/></clipPath><clipPath id="d"><path d="M92 122h12.887v21H92Zm0 0"/></clipPath><clipPath id="e"><path d="M92 65h12.887v21H92Zm0 0"/></clipPath><clipPath id="f"><path d="M23 372h30v22.652H23Zm0 0"/></clipPath><clipPath id="i"><path d="M58 376h46v18.652H58Zm0 0"/></clipPath></defs><path stroke="#000" stroke-miterlimit="10" stroke-width=".598" d="M18.54 330.684a1.496 1.496 0 0 0-2.993 0 1.495 1.495 0 0 0 2.992 0Zm0 0"/><path d="M103.578 330.684a1.494 1.494 0 1 0-2.987-.005 1.494 1.494 0 0 0 2.987.005m0 0"/><g clip-path="url(#a)"><path fill="none" stroke="#000" stroke-miterlimit="10" stroke-width=".598" d="M103.578 330.684a1.494 1.494 0 1 0-2.987-.005 1.494 1.494 0 0 0 2.987.005Zm0 0"/></g><path stroke="#000" stroke-miterlimit="10" stroke-width=".598" d="M18.54 273.988a1.495 1.495 0 1 0-1.497 1.496c.824 0 1.496-.671 1.496-1.496Zm0 0"/><path d="M103.578 273.988c0-.824-.668-1.492-1.496-1.492-.824 0-1.492.668-1.492 1.492a1.495 1.495 0 1 0 2.988 0m0 0"/><g clip-path="url(#b)"><path fill="none" stroke="#000" stroke-miterlimit="10" stroke-width=".598" d="M103.578 273.988c0-.824-.668-1.492-1.496-1.492-.824 0-1.492.668-1.492 1.492a1.495 1.495 0 1 0 2.988 0Zm0 0"/></g><path stroke="#000" stroke-miterlimit="10" stroke-width=".598" d="M18.54 188.95a1.496 1.496 0 0 0-2.993 0 1.495 1.495 0 0 0 2.992 0Zm0 0"/><path d="M103.578 188.95a1.494 1.494 0 1 0-2.987-.006 1.494 1.494 0 0 0 2.987.005m0 0"/><g clip-path="url(#c)"><path fill="none" stroke="#000" stroke-miterlimit="10" stroke-width=".598" d="M103.578 188.95a1.494 1.494 0 1 0-2.987-.006 1.494 1.494 0 0 0 2.987.005Zm0 0"/></g><path stroke="#000" stroke-miterlimit="10" stroke-width=".598" d="M18.54 132.254a1.495 1.495 0 1 0-1.497 1.496c.824 0 1.496-.672 1.496-1.496Zm0 0"/><path d="M103.578 132.254c0-.824-.668-1.492-1.496-1.492-.824 0-1.492.668-1.492 1.492a1.495 1.495 0 1 0 2.988 0m0 0"/><g clip-path="url(#d)"><path fill="none" stroke="#000" stroke-miterlimit="10" stroke-width=".598" d="M103.578 132.254c0-.824-.668-1.492-1.496-1.492-.824 0-1.492.668-1.492 1.492a1.495 1.495 0 1 0 2.988 0Zm0 0"/></g><path stroke="#000" stroke-miterlimit="10" stroke-width=".598" d="M18.54 75.563a1.496 1.496 0 0 0-2.993 0 1.495 1.495 0 0 0 2.992 0Zm0 0"/><path d="M103.578 75.563a1.494 1.494 0 1 0-2.987-.005 1.494 1.494 0 0 0 2.987.004m0 0"/><g clip-path="url(#e)"><path fill="none" stroke="#000" stroke-miterlimit="10" stroke-width=".598" d="M103.578 75.563a1.494 1.494 0 1 0-2.987-.005 1.494 1.494 0 0 0 2.987.004Zm0 0"/></g><path fill="none" stroke="#000" stroke-miterlimit="10" stroke-width=".598" d="M102.082 329.04v-53.407m0-3.29v-81.75m0-3.288v-53.407m0-3.289V77.203"/><path stroke="#000" stroke-miterlimit="10" stroke-width=".598" d="M13.309 356.113h7.468l-3.734 7.176Zm0 0"/><path fill="none" stroke="#000" stroke-miterlimit="10" stroke-width=".598" d="M17.043 356.113v7.473M13.309 363.586h7.468"/><g clip-path="url(#f)"><path fill="none" stroke="#000" stroke-miterlimit="10" stroke-width=".598" d="M44.281 387.375c0-3.3-2.676-5.977-5.976-5.977a5.977 5.977 0 0 0-5.98 5.977 5.98 5.98 0 0 0 5.98 5.98 5.98 5.98 0 0 0 5.976-5.98Zm0 0"/></g><path fill="none" stroke="#000" stroke-miterlimit="10" stroke-width=".598" d="M32.324 387.375h11.957M30.832 379.105h13.656"/><path stroke="#000" stroke-linejoin="round" stroke-miterlimit="10" stroke-width=".598" d="m43.203 378.125 2.57.98-2.57.985Zm0 0"/><use xlink:href="#g" x="32.956" y="374.492"/><use xlink:href="#h" x="37.191" y="374.492"/><g clip-path="url(#i)"><path fill="none" stroke="#000" stroke-linecap="round" stroke-miterlimit="10" stroke-width=".598" d="m66.477 387.375 2.39-2.39 4.781 4.78 2.395-2.39 2.39-2.39 4.782 4.78 4.781-4.78 4.781 4.78 2.391-2.39"/></g><use xlink:href="#g" x="75.648" y="381.366"/><use xlink:href="#j" x="79.883" y="381.366"/><path fill="none" stroke="#000" stroke-miterlimit="10" stroke-width=".598" d="M17.043 332.328v23.488m0 8.07v23.489h14.984m12.551 0h21.899m28.691 0h6.914v-55.047"/><path fill="none" stroke="#000" stroke-linecap="round" stroke-miterlimit="10" stroke-width=".598" d="m45.219 330.684 2.39-2.391 4.782 4.781 4.78-4.781 4.782 4.781 2.39-2.39 2.395-2.391 4.782 4.781 2.39-2.39"/><use xlink:href="#k" x="54.388" y="324.673"/><use xlink:href="#j" x="58.623" y="324.673"/><path fill="none" stroke="#000" stroke-miterlimit="10" stroke-width=".598" d="M18.688 330.684h26.53m28.692 0h26.531"/><path fill="none" stroke="#000" stroke-linecap="round" stroke-miterlimit="10" stroke-width=".598" d="m17.043 316.684-2.39-2.395 4.78-4.781-4.78-4.781 4.78-4.782-4.78-4.78 4.78-4.786-2.39-2.39"/><use xlink:href="#g" x=".683" y="305.06"/><use xlink:href="#j" x="4.918" y="305.06"/><path fill="none" stroke="#000" stroke-miterlimit="10" stroke-width=".598" d="M17.043 329.04v-12.356m0-28.696v-12.355M45.102 273.988a5.977 5.977 0 1 0-11.954 0 5.977 5.977 0 0 0 11.954 0ZM33.148 273.988h11.954M32.938 265.719h13.66"/><path stroke="#000" stroke-linejoin="round" stroke-miterlimit="10" stroke-width=".598" d="m34.223 266.703-2.57-.984 2.57-.985Zm0 0"/><use xlink:href="#l" x="33.778" y="261.106"/><use xlink:href="#h" x="38.013" y="261.106"/><path fill="none" stroke="#000" stroke-linecap="round" stroke-miterlimit="10" stroke-width=".598" d="m65.656 273.988 2.39-2.39 4.782 4.78 4.781-4.78 4.782 4.78 2.394-2.39 2.39-2.39 4.782 4.78 2.39-2.39"/><use xlink:href="#m" x="74.826" y="267.98"/><use xlink:href="#j" x="79.061" y="267.98"/><path fill="none" stroke="#000" stroke-miterlimit="10" stroke-width=".598" d="M18.688 273.988h14.16m12.554 0h20.254m28.692 0h6.093"/><path fill="none" stroke="#000" stroke-linecap="round" stroke-miterlimit="10" stroke-width=".598" d="m17.043 266.254-2.39-2.39 4.78-4.786-4.78-4.781 4.78-4.781-4.78-4.782 4.78-4.78-2.39-2.395"/><use xlink:href="#n" x=".683" y="254.632"/><use xlink:href="#j" x="4.918" y="254.632"/><path fill="none" stroke="#000" stroke-linecap="round" stroke-miterlimit="10" stroke-width=".598" d="M17.043 215.812a1.195 1.195 0 1 0 0 2.391 1.195 1.195 0 0 0 0-2.39Zm-.496.106-5.48-12.063"/><use xlink:href="#o" x="21.26" y="213.203" fill="red"/><use xlink:href="#p" x="26.411" y="214.309" fill="red"/><path fill="none" stroke="#000" stroke-miterlimit="10" stroke-width=".598" d="M17.043 272.344v-6.09m0-28.695v-19.356m0-14.348v-13.261M41.195 188.95h-4.14"/><path stroke="#000" stroke-linejoin="round" stroke-miterlimit="10" stroke-width=".598" d="m41.195 190.531-4.14-1.582 4.14-1.586Zm0 0"/><use xlink:href="#q" x="37.626" y="197.586"/><path fill="none" stroke="#000" stroke-linecap="round" stroke-miterlimit="10" stroke-width=".598" d="m65.656 188.95 2.39-2.391 4.782 4.78 4.781-4.78 4.782 4.78 2.394-2.39 2.39-2.39 4.782 4.78 2.39-2.39"/><use xlink:href="#r" x="65.966" y="182.941"/><use xlink:href="#s" x="74.746" y="182.941"/><use xlink:href="#k" x="83.684" y="182.941"/><use xlink:href="#j" x="87.918" y="182.941"/><path fill="none" stroke="#000" stroke-miterlimit="10" stroke-width=".598" d="M18.688 188.95h18.367m4.14 0h24.461m28.692 0h6.093M45.102 132.254a5.977 5.977 0 1 0-11.954 0 5.977 5.977 0 0 0 11.954 0ZM33.148 132.254h11.954M32.938 123.984h13.66"/><path stroke="#000" stroke-linejoin="round" stroke-miterlimit="10" stroke-width=".598" d="m34.223 124.969-2.57-.985 2.57-.98Zm0 0"/><use xlink:href="#l" x="33.778" y="119.374"/><use xlink:href="#h" x="38.013" y="119.374"/><path fill="none" stroke="#000" stroke-linecap="round" stroke-miterlimit="10" stroke-width=".598" d="m65.656 132.254 2.39-2.39 4.782 4.78 4.781-4.78 4.782 4.78 2.394-2.39 2.39-2.39 4.782 4.78 2.39-2.39"/><use xlink:href="#m" x="74.826" y="126.248"/><use xlink:href="#j" x="79.061" y="126.248"/><path fill="none" stroke="#000" stroke-miterlimit="10" stroke-width=".598" d="M18.688 132.254h14.16m12.554 0h20.254m28.692 0h6.093"/><path fill="none" stroke="#000" stroke-linecap="round" stroke-miterlimit="10" stroke-width=".598" d="m17.043 174.95-2.39-2.391 4.78-4.786-4.78-4.78 4.78-4.782-4.78-4.781 4.78-4.785-2.39-2.391"/><use xlink:href="#n" x=".683" y="163.328"/><use xlink:href="#j" x="4.918" y="163.328"/><path fill="none" stroke="#000" stroke-miterlimit="10" stroke-width=".598" d="M17.043 187.305v-12.356m0-28.695v-12.356"/><path fill="none" stroke="#000" stroke-linecap="round" stroke-miterlimit="10" stroke-width=".598" d="m17.043 118.254-2.39-2.39 4.78-4.782-4.78-4.781 4.78-4.785-4.78-4.782 4.78-4.78-2.39-2.391"/><use xlink:href="#g" x=".683" y="106.635"/><use xlink:href="#j" x="4.918" y="106.635"/><path fill="none" stroke="#000" stroke-miterlimit="10" stroke-width=".598" d="M17.043 130.61v-12.356m0-28.692V77.204"/><path fill="none" stroke="#000" stroke-linecap="round" stroke-miterlimit="10" stroke-width=".598" d="m45.219 75.563 2.39-2.391 4.782 4.781 4.78-4.781 4.782 4.781 2.39-2.39 2.395-2.391 4.782 4.781 2.39-2.39"/><use xlink:href="#k" x="54.388" y="69.555"/><use xlink:href="#j" x="58.623" y="69.555"/><path fill="none" stroke="#000" stroke-miterlimit="10" stroke-width=".598" d="M18.688 75.563h26.53m28.692 0h26.531"/><path stroke="#000" stroke-miterlimit="10" stroke-width=".598" d="M20.777 50.129H13.31l3.734-7.172Zm0 0"/><path fill="none" stroke="#000" stroke-miterlimit="10" stroke-width=".598" d="M17.043 50.129v-7.473M20.777 42.656H13.31M44.281 18.867c0-3.3-2.676-5.976-5.976-5.976a5.977 5.977 0 1 0 0 11.953c3.3 0 5.976-2.676 5.976-5.977ZM32.324 18.867h11.957M30.832 10.598h13.656"/><path stroke="#000" stroke-linejoin="round" stroke-miterlimit="10" stroke-width=".598" d="m43.203 9.613 2.57.985-2.57.984Zm0 0"/><use xlink:href="#g" x="32.956" y="5.988"/><use xlink:href="#h" x="37.191" y="5.988"/><path fill="none" stroke="#000" stroke-linecap="round" stroke-miterlimit="10" stroke-width=".598" d="m66.477 18.867 2.39-2.39 4.781 4.78 2.395-2.39 2.39-2.39 4.782 4.78 4.781-4.78 4.781 4.78 2.391-2.39"/><use xlink:href="#g" x="75.648" y="12.862"/><use xlink:href="#j" x="79.883" y="12.862"/><path fill="none" stroke="#000" stroke-miterlimit="10" stroke-width=".598" d="M17.043 73.918V50.426m0-8.07V18.866h14.984m12.551 0h21.899m28.691 0h6.914v55.051"/></svg>