<svg xmlns="http://www.w3.org/2000/svg" width="79.184" height="79.022"><defs><clipPath id="a"><path d="M0 51h27v27.531H0Zm0 0"/></clipPath><clipPath id="b"><path d="M0 51h33v27.531H0Zm0 0"/></clipPath><clipPath id="c"><path d="M6 51h32v27.531H6Zm0 0"/></clipPath><clipPath id="d"><path d="M12 51h32v27.531H12Zm0 0"/></clipPath><clipPath id="e"><path d="M17 51h33v27.531H17Zm0 0"/></clipPath><clipPath id="f"><path d="M23 51h32v27.531H23Zm0 0"/></clipPath><clipPath id="g"><path d="M29 51h32v27.531H29Zm0 0"/></clipPath><clipPath id="h"><path d="M34 51h33v27.531H34Zm0 0"/></clipPath><clipPath id="i"><path d="M40 51h32v27.531H40Zm0 0"/></clipPath><clipPath id="j"><path d="M46 51h32v27.531H46Zm0 0"/></clipPath><clipPath id="k"><path d="M51 51h27.777v27.531H51Zm0 0"/></clipPath><clipPath id="l"><path d="M0 51h27v27.531H0Zm0 0"/></clipPath></defs><g clip-path="url(#a)"><path fill="none" stroke="#BFBFBF" stroke-miterlimit="10" stroke-width=".399" d="M20.93 57.203.887 77.25"/></g><g clip-path="url(#b)"><path fill="none" stroke="#BFBFBF" stroke-miterlimit="10" stroke-width=".399" d="M26.598 57.203 6.555 77.25"/></g><g clip-path="url(#c)"><path fill="none" stroke="#BFBFBF" stroke-miterlimit="10" stroke-width=".399" d="M32.27 57.203 12.227 77.25"/></g><g clip-path="url(#d)"><path fill="none" stroke="#BFBFBF" stroke-miterlimit="10" stroke-width=".399" d="M37.938 57.203 17.895 77.25"/></g><g clip-path="url(#e)"><path fill="none" stroke="#BFBFBF" stroke-miterlimit="10" stroke-width=".399" d="M43.605 57.203 23.563 77.25"/></g><g clip-path="url(#f)"><path fill="none" stroke="#BFBFBF" stroke-miterlimit="10" stroke-width=".399" d="M49.277 57.203 29.234 77.25"/></g><g clip-path="url(#g)"><path fill="none" stroke="#BFBFBF" stroke-miterlimit="10" stroke-width=".399" d="M54.945 57.203 34.902 77.25"/></g><g clip-path="url(#h)"><path fill="none" stroke="#BFBFBF" stroke-miterlimit="10" stroke-width=".399" d="M60.617 57.203 40.57 77.25"/></g><g clip-path="url(#i)"><path fill="none" stroke="#BFBFBF" stroke-miterlimit="10" stroke-width=".399" d="M66.285 57.203 46.242 77.25"/></g><g clip-path="url(#j)"><path fill="none" stroke="#BFBFBF" stroke-miterlimit="10" stroke-width=".399" d="M71.953 57.203 51.91 77.25"/></g><g clip-path="url(#k)"><path fill="none" stroke="#BFBFBF" stroke-miterlimit="10" stroke-width=".399" d="M77.625 57.203 57.578 77.25"/></g><path fill="none" stroke="#BFBFBF" stroke-miterlimit="10" stroke-width=".399" d="M20.93 57.203h56.695M18.926 59.21h56.691M16.922 61.215h56.691M14.918 63.219h56.691M12.914 65.223h56.691M10.906 67.227h56.696M8.902 69.23h56.696M6.898 71.234h56.696M4.895 73.238H61.59M2.89 75.246h56.696M.887 77.25h56.691M20.93 57.203V.512M18.926 59.21V2.517M16.922 61.215V4.52M14.918 63.219V6.523M12.914 65.223V8.527M10.906 67.227V10.535M8.902 69.23V12.54M6.898 71.234V14.543M4.895 73.238V16.547M2.89 75.246V18.551M.887 77.25V20.555"/><path fill="none" stroke="#000" stroke-miterlimit="10" stroke-width=".399" d="M20.93 57.203h56.297"/><path fill="none" stroke="#000" stroke-linecap="round" stroke-linejoin="round" stroke-miterlimit="10" stroke-width=".399" d="M75.352 54.813c.378 1.437 1.222 2.113 2.074 2.39-.852.281-1.696.957-2.074 2.395"/><path fill="none" stroke="#000" stroke-miterlimit="10" stroke-width=".399" d="M20.93 57.203V.91"/><path fill="none" stroke="#000" stroke-linecap="round" stroke-linejoin="round" stroke-miterlimit="10" stroke-width=".399" d="M18.54 2.781c1.433-.375 2.112-1.219 2.39-2.07.277.852.957 1.695 2.39 2.07"/><g clip-path="url(#l)"><path fill="none" stroke="#000" stroke-miterlimit="10" stroke-width=".399" d="M20.93 57.203 1.168 76.97"/></g><path fill="none" stroke="#000" stroke-linecap="round" stroke-linejoin="round" stroke-miterlimit="10" stroke-width=".39899601" d="M4.184 77.332c-1.282-.746-2.36-.629-3.157-.223.403-.8.52-1.875-.226-3.156"/><path fill="none" stroke="#000" stroke-miterlimit="10" stroke-width=".399" d="m9.5 68.637 2.816-2.82m-2.816 0 2.816 2.82M19.52 30.266l2.82-2.817m-2.82 0 2.82 2.817M56.172 21.965l2.816-2.82m-2.816 0 2.816 2.82"/></svg>