<svg xmlns="http://www.w3.org/2000/svg" width="89.948" height="61.742"><defs><clipPath id="a"><path d="M0 0h89.922v61.613H0Zm0 0"/></clipPath></defs><path fill="none" stroke="#7F7F7F" stroke-miterlimit="10" stroke-width=".199" d="M2.309 59.05h85.039M2.308 30.704h85.04M2.308 2.367h85.04M2.308 59.051V2.355m28.348 56.696V2.355m28.348 56.696V2.355M87.34 59.051V2.355"/><path fill="#D2C92A" d="m1.914 57.867 2.758.395-1.969 1.968Zm9.453-3.148 2.754.394-1.969 1.969Zm9.45-3.153 2.757.395-1.969 1.969Zm9.453-3.148 2.753.395-1.968 1.968Zm9.449-3.152 2.758.394-1.97 1.969Zm9.453-3.149 2.754.395-1.969 1.968Zm9.45-3.148 2.757.39-1.969 1.97Zm9.452-3.153 2.754.395-1.969 1.969Zm9.45-3.148 2.757.39-1.969 1.97Zm8.581-2.008 1.239-2.496 1.25 2.488Zm-2.347-8.957-.086-2.781 2.277 1.601Zm-6.004-7.312-1.063-2.57 2.696.69Zm-8.04-5.29L68.044 6.88l2.785-.004Zm-9.077-3.43-2.075-1.859 2.735-.542Zm-9.582-1.76-2.356-1.49 2.602-.991Zm-9.758-.212-2.555-1.105 2.418-1.38Zm-9.66 1.324-2.7-.675 2.16-1.758Zm-9.258 2.954-2.777-.165 1.796-2.125ZM13.98 12.73l-2.742.48 1.262-2.483Zm-6.707 6.75-2.449 1.332.403-2.757Zm-3.527 8.61L2.152 30.37l-.87-2.644Zm0 0"/><g clip-path="url(#a)"><path fill="none" stroke="#000" stroke-miterlimit="10" stroke-width=".399" d="m1.914 57.867 2.758.395-1.969 1.968Zm9.453-3.148 2.754.394-1.969 1.969Zm9.45-3.153 2.757.395-1.969 1.969Zm9.453-3.148 2.753.395-1.968 1.968Zm9.449-3.152 2.758.394-1.97 1.969Zm9.453-3.149 2.754.395-1.969 1.968Zm9.45-3.148 2.757.39-1.969 1.97Zm9.452-3.153 2.754.395-1.969 1.969Zm9.45-3.148 2.757.39-1.969 1.97Zm8.581-2.008 1.239-2.496 1.25 2.488Zm-2.347-8.957-.086-2.781 2.277 1.601Zm-6.004-7.312-1.063-2.57 2.696.69Zm-8.04-5.29L68.044 6.88l2.785-.004Zm-9.077-3.43-2.075-1.859 2.735-.542Zm-9.582-1.76-2.356-1.49 2.602-.991Zm-9.758-.212-2.555-1.105 2.418-1.38Zm-9.66 1.324-2.7-.675 2.16-1.758Zm-9.258 2.954-2.777-.165 1.796-2.125ZM13.98 12.73l-2.742.48 1.262-2.483Zm-6.707 6.75-2.449 1.332.403-2.757Zm-3.527 8.61L2.152 30.37l-.87-2.644Zm0 0"/></g></svg>