<svg xmlns="http://www.w3.org/2000/svg" xmlns:xlink="http://www.w3.org/1999/xlink" width="45.776" height="45.776"><defs><path id="b" d="M4.5-4.297c0-.047-.031-.094-.094-.094-.11 0-.515.391-.672.688-.218-.547-.609-.703-.937-.703-1.172 0-2.39 1.468-2.39 2.922C.406-.516.983.109 1.718.109c.422 0 .812-.234 1.172-.593-.094.343-.422 1.687-.453 1.78-.079.282-.157.313-.72.329-.124 0-.218 0-.218.203 0 0 0 .11.125.11.313 0 .672-.032 1-.032s.688.032 1.031.032c.047 0 .172 0 .172-.204 0-.109-.094-.109-.265-.109-.47 0-.47-.062-.47-.156 0-.078.016-.14.032-.219ZM1.75-.109c-.61 0-.64-.766-.64-.938 0-.484.28-1.562.452-1.984.313-.735.829-1.156 1.235-1.156.656 0 .797.812.797.875s-.547 2.25-.578 2.28c-.157.282-.72.923-1.266.923m0 0"/><path id="c" d="M2.328-4.437c0-.188 0-.188-.203-.188-.453.438-1.078.438-1.36.438v.25c.157 0 .626 0 1-.188v3.547c0 .234 0 .328-.687.328H.812V0c.125 0 .985-.031 1.235-.031.219 0 1.094.031 1.25.031v-.25H3.03c-.703 0-.703-.094-.703-.328Zm0 0"/><path id="d" d="M4.578-3.187c0-.797-.047-1.594-.39-2.329C3.734-6.484 2.906-6.64 2.5-6.64c-.61 0-1.328.266-1.75 1.188-.312.687-.36 1.469-.36 2.266 0 .75.032 1.64.454 2.406a1.83 1.83 0 0 0 1.64 1c.532 0 1.297-.203 1.735-1.156.312-.688.36-1.47.36-2.25M2.484 0c-.39 0-.984-.25-1.156-1.203-.11-.594-.11-1.516-.11-2.11 0-.64 0-1.296.079-1.828.187-1.187.937-1.28 1.187-1.28.329 0 .985.187 1.172 1.171.11.563.11 1.313.11 1.938 0 .75 0 1.421-.11 2.062C3.5-.297 2.937 0 2.484 0m0 0"/><clipPath id="a"><path d="M0 0h45.664v45.664H0Zm0 0"/></clipPath></defs><path fill="#FCC" d="M43.953 22.777c0-11.695-9.48-21.175-21.176-21.175S1.602 11.082 1.602 22.777s9.48 21.176 21.175 21.176 21.176-9.48 21.176-21.176m0 0"/><g fill="none" stroke-miterlimit="10" clip-path="url(#a)"><path stroke="#000" stroke-width="1.395" d="M43.953 22.777c0-11.695-9.48-21.175-21.176-21.175S1.602 11.082 1.602 22.777s9.48 21.176 21.175 21.176 21.176-9.48 21.176-21.176Zm0 0"/><path stroke="#FFF" stroke-width=".598" d="M43.953 22.777c0-11.695-9.48-21.175-21.176-21.175S1.602 11.082 1.602 22.777s9.48 21.176 21.175 21.176 21.176-9.48 21.176-21.176Zm0 0"/></g><path fill="none" stroke="#000" stroke-miterlimit="10" stroke-width=".399" d="m13.613 31.945 18.332-18.332"/><use xlink:href="#b" x="11.746" y="16.035"/><use xlink:href="#c" x="16.193" y="17.53"/><use xlink:href="#d" x="24.469" y="34.432"/><use xlink:href="#d" x="29.45" y="34.432"/></svg>