<svg xmlns="http://www.w3.org/2000/svg" width="30.363" height="35.534"><path fill="none" stroke="#000" stroke-miterlimit="10" stroke-width=".399" d="M.691 3.355h27.95"/><path fill="none" stroke="#000" stroke-linecap="round" stroke-linejoin="round" stroke-miterlimit="10" stroke-width=".399" d="M18.836.965c.379 1.437 1.223 2.113 2.07 2.39-.847.282-1.691.958-2.07 2.395M22.3.965c.38 1.437 1.223 2.113 2.075 2.39-.852.282-1.695.958-2.074 2.395M26.766.965c.379 1.437 1.222 2.113 2.074 2.39-.852.282-1.695.958-2.074 2.395"/><path fill="none" stroke="#000" stroke-miterlimit="10" stroke-width=".399" d="M.691 17.531h27.95"/><path fill="none" stroke="#000" stroke-linecap="round" stroke-linejoin="round" stroke-miterlimit="10" stroke-width=".399" d="M22.82 15.14c.38 1.434 1.223 2.11 2.075 2.391-.852.278-1.696.957-2.075 2.39M26.29 15.14c.378 1.434 1.222 2.11 2.07 2.391-.848.278-1.692.957-2.07 2.39"/><path fill="none" stroke="#000" stroke-linecap="round" stroke-linejoin="round" stroke-miterlimit="10" stroke-width=".399" d="M26.766 15.14c.379 1.434 1.222 2.11 2.074 2.391-.852.278-1.695.957-2.074 2.39"/><path fill="none" stroke="#000" stroke-miterlimit="10" stroke-width=".399" d="M.691 31.703h27.95"/><path fill="none" stroke="#000" stroke-linecap="round" stroke-linejoin="round" stroke-miterlimit="10" stroke-width=".399" d="M20.828 29.313c.379 1.433 1.223 2.113 2.07 2.39-.847.281-1.691.957-2.07 2.39M23.297 29.313c.379 1.433 1.223 2.113 2.074 2.39-.851.281-1.695.957-2.074 2.39M26.766 29.313c.379 1.433 1.222 2.113 2.074 2.39-.852.281-1.695.957-2.074 2.39"/></svg>