<svg xmlns="http://www.w3.org/2000/svg" width="104.078" height="146.576"><defs><clipPath id="a"><path d="M.555 9h102.05v136.36H.555Zm0 0"/></clipPath><clipPath id="b"><path d="M.555 128h102.05v1H.555Zm0 0"/></clipPath><clipPath id="c"><path d="M8 0h2v145.36H8Zm0 0"/></clipPath><clipPath id="d"><path d="M.555 37H100v108.36H.555Zm0 0"/></clipPath><clipPath id="e"><path d="M77 62h25.605v83.36H77Zm0 0"/></clipPath></defs><g clip-path="url(#a)"><path fill="none" stroke="#7F7F7F" stroke-miterlimit="10" stroke-width=".199" d="M-109.996 213.39h238.113m-238.113-42.519h238.113m-238.113-42.52h238.113m-238.113-42.519h238.113m-238.113-42.52h238.113M-75.98 247.407V9.296m42.52 238.11V9.296m42.523 238.11V9.296m42.519 238.11V9.296m42.52 238.11V9.296"/></g><g clip-path="url(#b)"><path fill="none" stroke="#000" stroke-miterlimit="10" stroke-width=".399" d="M-118.5 128.352h254.723"/></g><g clip-path="url(#c)"><path fill="none" stroke="#000" stroke-miterlimit="10" stroke-width=".399" d="M9.063 255.91V1.188"/></g><path fill="none" stroke="#000" stroke-linecap="round" stroke-linejoin="round" stroke-miterlimit="10" stroke-width=".399" d="M6.672 3.063c1.433-.38 2.11-1.223 2.39-2.075.278.852.954 1.696 2.391 2.075"/><g clip-path="url(#d)"><path fill="none" stroke="#000" stroke-miterlimit="10" stroke-width=".399" d="M94.102 128.352c0-46.97-38.075-85.04-85.04-85.04-46.968 0-85.042 38.07-85.042 85.04 0 46.964 38.074 85.039 85.043 85.039 46.964 0 85.039-38.075 85.039-85.04Zm0 0"/></g><path fill="#CFC" stroke="#007F00" stroke-miterlimit="10" stroke-width=".399" d="M9.063 128.352h25.511c0-4.477-1.18-8.88-3.418-12.758Zm0 0"/><path fill="none" stroke="red" stroke-miterlimit="10" stroke-width="1.196" d="M82.707 85.832v42.52"/><path fill="none" stroke="#00F" stroke-miterlimit="10" stroke-width="1.196" d="M82.707 128.352H9.063"/><g clip-path="url(#e)"><path fill="none" stroke="#FF7F00" stroke-miterlimit="10" stroke-width="1.196" d="m94.102 128.352-.004-49.098"/></g></svg>