<svg xmlns="http://www.w3.org/2000/svg" xmlns:xlink="http://www.w3.org/1999/xlink" width="275.816" height="67.592"><defs><path id="a" d="M4.14-1.39c0-.438-.202-.782-.546-1.063-.39-.281-.719-.344-1.485-.485-.375-.062-1.015-.171-1.015-.64 0-.625.922-.625 1.11-.625.75 0 1.124.297 1.171.844.016.156.031.203.234.203.235 0 .235-.047.235-.281v-.797c0-.188 0-.282-.172-.282-.047 0-.063 0-.453.188-.266-.125-.61-.188-1-.188-.313 0-1.844 0-1.844 1.313 0 .39.203.656.406.828.39.344.782.406 1.547.547.36.062 1.094.187 1.094.781 0 .75-.906.75-1.125.75C1.234-.297.984-1.03.859-1.453c-.046-.14-.109-.14-.234-.14-.25 0-.25.062-.25.28v1.094c0 .188 0 .282.188.282.062 0 .078 0 .296-.157l.25-.172c.47.329.985.329 1.188.329.312 0 1.844 0 1.844-1.454m0 0"/><path id="b" d="M3.813-1.234v-.532h-.47v.516c0 .672-.327.906-.609.906-.578 0-.578-.64-.578-.86v-2.75h1.469v-.468H2.156v-1.906h-.469c0 1-.484 1.984-1.484 2.016v.359h.828v2.734c0 1.063.86 1.282 1.578 1.282.75 0 1.204-.579 1.204-1.297m0 0"/><path id="c" d="M5.516-.234c0-.235-.125-.235-.266-.235-.61-.015-.61-.14-.61-.375v-2.14c0-.891-.702-1.532-2.187-1.532-.562 0-1.781.047-1.781.922 0 .438.344.625.61.625.312 0 .624-.219.624-.625 0-.297-.187-.469-.218-.5a5 5 0 0 1 .718-.062c.75 0 1.11.422 1.11 1.172v.343c-.72.032-3.25.125-3.25 1.563C.266-.125 1.5.062 2.188.062c.796 0 1.265-.406 1.484-.828 0 .313 0 .766 1.047.766h.468c.204 0 .329 0 .329-.234m-2-1.157c0 .97-.922 1.094-1.172 1.094-.516 0-.906-.344-.906-.797 0-1.062 1.578-1.203 2.078-1.234Zm0 0"/><path id="d" d="M4.406-3.672c0-.531-.531-.812-1.062-.812-.688 0-1.094.5-1.313 1.125v-1.125l-1.656.078v.468c.61 0 .688 0 .688.391v3.078H.375V0l1.25-.031C2-.031 2.641-.031 3 0v-.469h-.86v-1.75c0-.687.235-1.906 1.235-1.906 0 0-.187.172-.187.453 0 .406.328.61.609.61.297 0 .61-.204.61-.61m0 0"/><path id="e" d="M2.922 0v-.469h-.688v-6.453L.47-6.844v.469c.625 0 .687 0 .687.39v5.516H.47V0l1.219-.031Zm0 0"/><path id="f" d="M5.406-2.172c0-1.344-.922-2.344-2.547-2.344C1.22-4.516.313-3.5.313-2.172c0 1.235.89 2.235 2.546 2.235 1.672 0 2.547-1.016 2.547-2.235m-1.281-.11c0 .86 0 1.938-1.266 1.938-1.265 0-1.265-1.078-1.265-1.937 0-.453 0-.953.172-1.297.187-.375.609-.578 1.093-.578.422 0 .844.156 1.063.5.203.344.203.89.203 1.375m0 0"/><path id="g" d="M6.125 0v-.469h-.687v-2.578c0-1.047-.532-1.437-1.532-1.437-.953 0-1.484.562-1.75 1.078v-1.078l-1.703.078v.468c.61 0 .688 0 .688.391v3.078H.453V0l1.25-.031L2.953 0v-.469h-.687v-2.078c0-1.094.859-1.578 1.5-1.578.328 0 .547.203.547.969V-.47h-.688V0l1.25-.031Zm0 0"/><path id="h" d="M5.563-3.953c0-.235-.172-.578-.625-.578-.157 0-.625.031-1.063.375-.172-.125-.594-.328-1.328-.328-1.438 0-1.985.78-1.985 1.468 0 .407.188.829.516 1.047-.281.36-.344.688-.344.89 0 .157.047.642.438.954-.125.031-.86.25-.86.875C.313 1.25.876 2 2.86 2 4.625 2 5.406 1.422 5.406.719c0-.297-.078-.922-.75-1.266-.562-.281-1.156-.281-2.11-.281-.265 0-.718 0-.765-.016a.625.625 0 0 1-.562-.625c0-.093.047-.25.11-.328.452.234.968.266 1.218.266 1.437 0 1.984-.782 1.984-1.485 0-.468-.25-.796-.406-.953.297-.156.516-.172.625-.187a.43.43 0 0 0-.047.203c0 .25.172.422.438.422a.41.41 0 0 0 .422-.422m-2.141.937c0 .454 0 1.125-.875 1.125s-.875-.671-.875-1.125c0-.437 0-1.109.875-1.109s.875.672.875 1.11M4.547.75c0 .36-.39.89-1.688.89-1.187 0-1.687-.452-1.687-.906 0-.609.625-.609.766-.609h1.171c.313 0 1.438 0 1.438.625m0 0"/><path id="i" d="M4.922-1.172c0-.172-.188-.172-.234-.172-.172 0-.188.047-.25.203-.204.485-.782.797-1.422.797-1.407 0-1.422-1.328-1.422-1.828h3.015c.22 0 .313 0 .313-.265 0-.313-.063-1.047-.563-1.547-.359-.36-.89-.532-1.578-.532C1.187-4.516.313-3.484.313-2.25c0 1.344 1 2.313 2.609 2.313 1.578 0 2-1.063 2-1.235M3.984-2.5h-2.39c.015-.39.031-.812.234-1.14.266-.391.672-.516.953-.516 1.172 0 1.188 1.312 1.203 1.656m0 0"/><path id="j" d="M5.828 0v-.469h-.703L3.453-2.453 4.61-3.75c.141-.14.204-.203 1.016-.203v-.469l-.906.031-1.032-.03v.468c.141 0 .266.015.376.078-.032.063-.032.094-.079.125l-.828.938-.984-1.141h.406v-.469L1.36-4.39.266-4.42v.468h.718l1.547 1.828L1.22-.656c-.157.187-.516.187-1 .187V0l.922-.031L2.156 0v-.469c-.172 0-.36-.047-.36-.11 0 0 0-.015.063-.093l.97-1.094L3.921-.469h-.39V0l1.202-.031Zm0 0"/><path id="k" d="M6.125 0v-.469h-.687v-2.578c0-1.047-.532-1.437-1.532-1.437a1.9 1.9 0 0 0-1.687.953v-3.39l-1.766.077v.469c.61 0 .688 0 .688.39v5.516H.453V0l1.25-.031L2.953 0v-.469h-.687v-2.078c0-1.094.859-1.578 1.5-1.578.328 0 .547.203.547.969V-.47h-.688V0l1.25-.031Zm0 0"/><path id="l" d="M5.781-3.953v-.469c-.25.016-.531.031-.781.031l-.906-.03v.468c.187 0 .468.031.468.11 0 0 0 .015-.046.109l-1.157 2.5-1.265-2.72h.531v-.468l-1.234.031-1.125-.03v.468H.89l1.75 3.75c.125.25.25.25.375.25.172 0 .28-.031.375-.25L5.047-3.75c.062-.14.094-.203.734-.203m0 0"/><path id="m" d="M5.781-3.953v-.469A13 13 0 0 1 5-4.39l-.906-.03v.468s.468 0 .468.11L4.5-3.72 3.36-1.266 2.093-3.953h.531v-.469l-1.234.031-1.125-.03v.468H.89L2.766 0 2.53.484C2.312.954 2 1.641 1.281 1.641c-.14 0-.156-.016-.234-.047.094-.032.312-.172.312-.532C1.36.734 1.125.5.781.5a.553.553 0 0 0-.562.578c0 .5.469.922 1.062.922.766 0 1.344-.625 1.625-1.187l2.14-4.563c.063-.14.095-.203.735-.203m0 0"/><path id="n" d="M9.328 0v-.469h-.687v-2.578c0-1.031-.516-1.437-1.547-1.437-.907 0-1.422.5-1.688.953-.187-.922-1.11-.953-1.484-.953-.875 0-1.438.453-1.766 1.078v-1.078l-1.703.078v.468c.61 0 .688 0 .688.391v3.078H.453V0l1.25-.031L2.953 0v-.469h-.687v-2.078c0-1.094.875-1.578 1.5-1.578.328 0 .547.203.547.969V-.47h-.688V0l1.266-.031L6.14 0v-.469h-.688v-2.078c0-1.094.86-1.578 1.484-1.578.344 0 .563.203.563.969V-.47h-.687V0l1.25-.031Zm0 0"/><path id="p" d="M5.984 0v-.469c-.609 0-.687 0-.687-.39v-6.063l-1.766.078v.469c.625 0 .703 0 .703.39v1.954a2.18 2.18 0 0 0-1.359-.453c-1.453 0-2.5.875-2.5 2.28 0 1.313.922 2.267 2.39 2.267.61 0 1.094-.235 1.407-.485v.485ZM4.172-1.031c-.14.187-.547.734-1.297.734-1.219 0-1.219-1.203-1.219-1.906 0-.485 0-1.016.25-1.406.297-.422.766-.516 1.078-.516.563 0 .97.313 1.188.61Zm0 0"/><clipPath id="o"><path d="M22 0h22v67.387H22Zm0 0"/></clipPath><clipPath id="q"><path d="M160 0h100v67.387H160Zm0 0"/></clipPath></defs><use xlink:href="#a" x=".521" y="8.378"/><use xlink:href="#b" x="5.044" y="8.378"/><use xlink:href="#c" x="9.497" y="8.378"/><use xlink:href="#d" x="15.066" y="8.378"/><use xlink:href="#b" x="19.789" y="8.378"/><use xlink:href="#e" x="41.244" y="7.701"/><use xlink:href="#f" x="44.422" y="7.701"/><use xlink:href="#g" x="50.151" y="7.701"/><use xlink:href="#h" x="56.517" y="7.701"/><use xlink:href="#b" x="66.061" y="7.701"/><use xlink:href="#i" x="70.514" y="7.701"/><use xlink:href="#j" x="75.765" y="7.701"/><use xlink:href="#b" x="81.812" y="7.701"/><use xlink:href="#a" x="103.267" y="8.672"/><use xlink:href="#k" x="107.79" y="8.672"/><use xlink:href="#f" x="114.156" y="8.672"/><use xlink:href="#d" x="119.885" y="8.672"/><use xlink:href="#b" x="124.607" y="8.672"/><use xlink:href="#l" x="103.267" y="36.047"/><use xlink:href="#i" x="108.996" y="36.047"/><use xlink:href="#d" x="114.246" y="36.047"/><use xlink:href="#m" x="118.968" y="36.047"/><use xlink:href="#e" x="128.831" y="36.047"/><use xlink:href="#f" x="132.009" y="36.047"/><use xlink:href="#g" x="137.738" y="36.047"/><use xlink:href="#h" x="144.104" y="36.047"/><use xlink:href="#b" x="153.648" y="36.047"/><use xlink:href="#i" x="158.101" y="36.047"/><use xlink:href="#j" x="163.352" y="36.047"/><use xlink:href="#b" x="169.399" y="36.047"/><path fill="none" stroke="#000" stroke-miterlimit="10" stroke-width=".399" d="M89.785 5.246h9.965M89.785 5.246l9.965 28.348"/><use xlink:href="#n" x="190.855" y="8.378"/><use xlink:href="#f" x="200.399" y="8.378"/><use xlink:href="#d" x="206.128" y="8.378"/><use xlink:href="#i" x="210.85" y="8.378"/><use xlink:href="#b" x="219.916" y="8.378"/><use xlink:href="#i" x="224.369" y="8.378"/><use xlink:href="#j" x="229.62" y="8.378"/><use xlink:href="#b" x="235.667" y="8.378"/><path fill="none" stroke="#000" stroke-miterlimit="10" stroke-width=".399" d="M132.582 5.246h54.754M177.375 33.594l9.96-28.348"/><use xlink:href="#e" x="41.244" y="64.393"/><use xlink:href="#f" x="44.422" y="64.393"/><use xlink:href="#g" x="50.151" y="64.393"/><use xlink:href="#h" x="56.517" y="64.393"/><use xlink:href="#e" x="79.247" y="64.393"/><use xlink:href="#f" x="82.425" y="64.393"/><use xlink:href="#g" x="88.154" y="64.393"/><use xlink:href="#h" x="94.52" y="64.393"/><use xlink:href="#i" x="100.248" y="64.393"/><use xlink:href="#d" x="105.499" y="64.393"/><path fill="none" stroke="#000" stroke-miterlimit="10" stroke-width=".399" d="M65.766 61.938h9.964"/><use xlink:href="#e" x="127.223" y="64.393"/><use xlink:href="#f" x="130.401" y="64.393"/><use xlink:href="#g" x="136.13" y="64.393"/><use xlink:href="#h" x="142.496" y="64.393"/><use xlink:href="#i" x="148.224" y="64.393"/><use xlink:href="#a" x="153.475" y="64.393"/><use xlink:href="#b" x="157.998" y="64.393"/><path fill="none" stroke="#000" stroke-miterlimit="10" stroke-width=".399" d="M113.742 61.938h9.965M27.762 5.246h9.965"/><g clip-path="url(#o)"><path fill="none" stroke="#000" stroke-miterlimit="10" stroke-width=".399" d="m27.762 5.246 9.965 56.692"/></g><use xlink:href="#i" x="257.122" y="8.672"/><use xlink:href="#g" x="262.372" y="8.672"/><use xlink:href="#p" x="268.738" y="8.672"/><path fill="none" stroke="#000" stroke-miterlimit="10" stroke-width=".399" d="M243.645 5.246h9.96"/><g clip-path="url(#q)"><path fill="none" stroke="#000" stroke-miterlimit="10" stroke-width=".399" d="m165.973 61.938 87.632-56.692"/></g></svg>