<svg xmlns="http://www.w3.org/2000/svg" xmlns:xlink="http://www.w3.org/1999/xlink" width="24.534" height="34.382"><defs><path id="b" d="M.453 1.219c-.078.343-.11.406-.547.406-.11 0-.218 0-.218.188 0 .078.046.125.125.125.265 0 .562-.032.828-.032.343 0 .672.032 1 .032.046 0 .172 0 .172-.204 0-.109-.094-.109-.235-.109-.5 0-.5-.062-.5-.156 0-.125.422-1.75.484-2 .125.297.407.64.922.64 1.157 0 2.407-1.453 2.407-2.921 0-.938-.578-1.594-1.328-1.594-.5 0-.985.36-1.313.75-.094-.547-.531-.75-.89-.75-.47 0-.657.39-.735.562-.187.344-.312.938-.312.969 0 .11.093.11.109.11.11 0 .11-.016.172-.235.172-.703.375-1.187.734-1.187.172 0 .313.078.313.453 0 .234-.032.343-.079.515Zm1.75-4.328c.063-.266.344-.547.516-.703.36-.297.64-.376.812-.376.39 0 .64.344.64.938s-.327 1.734-.515 2.11C3.312-.439 2.844-.11 2.47-.11c-.656 0-.781-.827-.781-.89 0-.016 0-.031.03-.156Zm0 0"/><path id="c" d="M2.328-4.437c0-.188 0-.188-.203-.188-.453.438-1.078.438-1.36.438v.25c.157 0 .626 0 1-.188v3.547c0 .234 0 .328-.687.328H.812V0c.125 0 .985-.031 1.235-.031.219 0 1.094.031 1.25.031v-.25H3.03c-.703 0-.703-.094-.703-.328Zm0 0"/><path id="d" d="M3.188 0v-.328H2.28V-3.11c0-.157-.015-.188-.187-.188H2c-.437.328-1.078.328-1.187.328H.672v.328h.14c.063 0 .438 0 .813-.125v2.438H.719V0c.25-.016.953-.016 1.234-.016s1 0 1.235.016m0 0"/><path id="e" d="M3.328-1.047h-.406c-.031.188-.11.313-.156.328-.11.016-.328.016-.5.016H1.53c.313-.203.61-.39.828-.516.563-.312.97-.531.97-1.047 0-.625-.563-1.03-1.548-1.03-.234 0-1.343 0-1.343.733 0 .297.25.422.421.422.188 0 .407-.14.407-.406 0-.187-.11-.297-.125-.312.172-.094.359-.094.468-.094.5 0 .938.234.938.687 0 .391-.313.688-.625.907L.532-.344C.436-.28.436-.266.436-.156V0h2.704Zm0 0"/><path id="f" d="M3.39-.906c0-.438-.406-.735-.89-.844.297-.094.688-.344.688-.812 0-.407-.454-.735-1.344-.735-.797 0-1.25.344-1.25.797 0 .281.219.422.39.422a.394.394 0 0 0 .407-.406c0-.25-.188-.36-.188-.36.203-.14.453-.172.625-.172.484 0 .594.204.594.454 0 .203-.125.656-.735.671-.046 0-.265.016-.312.016-.078.016-.078.11-.078.14 0 .141.078.141.172.141h.343c.672 0 .72.407.72.688 0 .25-.032.687-.72.687-.109 0-.484-.015-.75-.172A.44.44 0 0 0 1.25-.75a.427.427 0 0 0-.437-.437c-.25 0-.422.171-.422.437 0 .5.484.828 1.437.828 1.235 0 1.563-.594 1.563-.984m0 0"/><clipPath id="a"><path d="M0 5h24.3v29.074H0Zm0 0"/></clipPath></defs><g clip-path="url(#a)"><path fill="none" stroke="#000" stroke-miterlimit="10" stroke-width=".399" d="M23.094 21.813c0-6.11-4.953-11.06-11.059-11.06-6.11 0-11.058 4.95-11.058 11.06 0 6.105 4.949 11.058 11.058 11.058 6.106 0 11.059-4.953 11.059-11.059Zm0 0"/></g><use xlink:href="#b" x="7.293" y="5.097"/><use xlink:href="#c" x="12.305" y="6.591"/><path d="M15.23 18.031a3.198 3.198 0 1 0-6.392-.002 3.198 3.198 0 0 0 6.392.002m0 0"/><use xlink:href="#d" x="10.146" y="19.676" fill="#FFF"/><path d="M11.914 23.844a3.198 3.198 0 1 0-6.397-.002 3.198 3.198 0 0 0 6.397.002m0 0"/><use xlink:href="#e" x="6.828" y="25.489" fill="#FFF"/><path d="M18.582 23.844a3.233 3.233 0 0 0-3.23-3.235 3.233 3.233 0 0 0 0 6.465 3.23 3.23 0 0 0 3.23-3.23m0 0"/><use xlink:href="#f" x="13.463" y="25.446" fill="#FFF"/></svg>