<svg xmlns="http://www.w3.org/2000/svg" width="80.37" height="47.756"><path fill="#FF7F7F" d="M.895 12.43V1.094h14.171V12.43Zm0 0"/><path fill="#7FFF7F" d="M.895 23.762V12.43h14.171v11.332Zm0 0"/><path fill="#7F7FFF" d="M.895 35.094V23.762h14.171v11.332Zm0 0"/><path fill="#FFF87F" d="M.895 46.43V35.094h14.171V46.43Zm0 0"/><path fill="none" stroke="#000" stroke-miterlimit="10" stroke-width=".399" d="M.895 46.43h14.171V1.094H.895Zm14.171-34H.895m14.171 11.332H.895m14.171 11.332H.895"/><path fill="#FF7F7F" d="M22.152 12.43V1.094h14.176V12.43Zm0 0"/><path fill="#7FFF7F" d="M22.152 23.762V12.43h14.176v11.332Zm0 0"/><path fill="#7F7FFF" d="M22.152 35.094V23.762h14.176v11.332ZM22.152 46.43V35.094h14.176V46.43Zm0 0"/><path fill="none" stroke="#000" stroke-miterlimit="10" stroke-width=".399" d="M22.152 46.43h14.176V1.094H22.152Zm14.176-34H22.152m14.176 11.332H22.152m14.176 11.332H22.152"/><path fill="#FF7F7F" d="M43.414 12.43V1.094h14.172V12.43Zm0 0"/><path fill="#7FFF7F" d="M43.414 23.762V12.43h14.172v11.332ZM43.414 35.094V23.762h14.172v11.332ZM43.414 46.43V35.094h14.172V46.43Zm0 0"/><path fill="none" stroke="#000" stroke-miterlimit="10" stroke-width=".399" d="M43.414 46.43h14.172V1.094H43.414Zm14.172-34H43.414m14.172 11.332H43.414m14.172 11.332H43.414"/><path fill="#FF7F7F" d="M64.672 12.43V1.094h14.176V12.43ZM64.672 23.762V12.43h14.176v11.332ZM64.672 35.094V23.762h14.176v11.332ZM64.672 46.43V35.094h14.176V46.43Zm0 0"/><path fill="none" stroke="#000" stroke-miterlimit="10" stroke-width=".399" d="M64.672 46.43h14.176V1.094H64.672Zm14.176-34H64.672m14.176 11.332H64.672m14.176 11.332H64.672"/></svg>