<svg xmlns="http://www.w3.org/2000/svg" xmlns:xlink="http://www.w3.org/1999/xlink" width="98.07" height="59.096"><defs><path id="a" d="M8.25 0v-.469h-.969L4.72-6.703c-.11-.25-.219-.25-.39-.25-.282 0-.329.078-.391.25l-2.47 6c-.062.156-.093.234-.843.234H.406V0l1.172-.031c.39 0 .938 0 1.313.031v-.469S2-.469 2-.594l.047-.125.5-1.203h2.672l.593 1.453H4.86V0c.391-.031 1.329-.031 1.766-.031.39 0 1.266 0 1.625.031M5.016-2.39H2.734l1.141-2.766Zm0 0"/><path id="b" d="M7.5-1.86c0-.952-.844-1.624-2.031-1.702 1.078-.204 1.718-.797 1.718-1.563 0-.922-.875-1.719-2.468-1.719H.39v.469h1.078v5.906H.39V0h4.625C6.672 0 7.5-.875 7.5-1.86M5.766-5.124c0 .766-.47 1.39-1.438 1.39H2.766v-2.64h1.812c1.016 0 1.188.797 1.188 1.25m.28 3.266c0 .109 0 1.39-1.437 1.39H2.766v-2.906h1.937c.203 0 .672 0 1.016.422.328.422.328.984.328 1.094m0 0"/></defs><path fill="none" stroke="#000" stroke-miterlimit="10" stroke-width=".399" d="M11.363 57.441h85.043M11.363 29.094h85.043M11.363.758h85.043M11.363 57.44V.746m28.348 56.695V.746m28.348 56.695V.746m28.336 56.695V.746"/><path fill="#FF7F7F" d="m96.406 14.918-74.593-2.484c-1.547-5.13-7.477-8.172-13.25-6.801C2.793 7.008-.633 12.28.914 17.406c1.547 5.13 7.48 8.172 13.25 6.801 3.734-.89 6.649-3.48 7.649-6.8Zm0 0"/><use xlink:href="#a" x="7.036" y="18.397"/><path fill="#7FFF7F" d="M68.059 43.266 21.465 40.8c-1.492-5.082-7.227-8.102-12.809-6.739-5.578 1.364-8.89 6.586-7.394 11.672 1.496 5.082 7.23 8.098 12.808 6.735 3.61-.88 6.43-3.45 7.395-6.735Zm0 0"/><use xlink:href="#b" x="7.29" y="46.684"/></svg>