<svg xmlns="http://www.w3.org/2000/svg" xmlns:xlink="http://www.w3.org/1999/xlink" width="149.456" height="31.088"><defs><path id="b" d="M4.86-1.61c0-.718-.532-1.327-1.548-1.546.907-.313 1.25-.938 1.25-1.485 0-.671-.671-1.25-2-1.25-1.109 0-1.828.594-1.828 1.329 0 .406.282.656.641.656.39 0 .656-.281.656-.656 0-.297-.172-.547-.531-.625.063-.063.438-.344 1.016-.344.78 0 .78.593.78.875 0 .5-.187 1.281-.968 1.328l-.422.031c-.14.016-.14.11-.14.172 0 .188.093.188.265.188h.422c1 0 1 .874 1 1.328 0 .406 0 1.312-.953 1.312-.11 0-.734-.016-1.14-.312.406-.11.5-.47.5-.672 0-.422-.298-.703-.72-.703-.374 0-.702.25-.702.703 0 .843.906 1.39 2.093 1.39 1.64 0 2.328-.906 2.328-1.718m0 0"/><path id="c" d="M4.86-1.844c0-.484-.094-.968-.61-1.437-.469-.39-.937-.485-1.484-.485-.578 0-.922.407-1.063.688v-.156c0-1.125.219-1.485.313-1.641a1.47 1.47 0 0 1 1.218-.656c.172 0 .454.031.672.234-.36.078-.484.344-.484.563 0 .39.297.593.594.593a.57.57 0 0 0 .578-.609c0-.547-.375-1.14-1.375-1.14-1.297 0-2.781.827-2.781 3.046 0 .438.03 1.313.421 1.953.391.688 1.016 1 1.829 1 1.28 0 2.171-.734 2.171-1.953m-1.266-.015c0 .906 0 1.562-.922 1.562-.531 0-.766-.406-.828-.562-.125-.282-.125-1-.125-1.032 0-.921.39-1.515 1.015-1.515.86 0 .86.656.86 1.547m0 0"/><path id="d" d="M4.766-2.016h-.453c-.016.125-.094.766-.235.829-.11.046-.781.046-.937.046H1.859c.485-.39 1.016-.812 1.47-1.125.75-.53 1.437-1.015 1.437-1.89 0-1.047-.953-1.735-2.25-1.735-1.11 0-1.985.532-1.985 1.36 0 .468.36.687.672.687a.65.65 0 0 0 .656-.672c0-.203-.078-.53-.468-.64.312-.25.718-.282.89-.282.735 0 1.203.547 1.203 1.282 0 .656-.375 1.234-.859 1.718l-2 1.985c-.094.094-.094.11-.094.281V0H4.5Zm0 0"/><path id="e" d="M4.766-1.797c0-1.031-.72-1.875-2.078-1.875-.422 0-.797.063-1.188.297v-1.14c.313.062.453.062.64.062.25 0 .829 0 1.5-.453.204-.125.72-.563.72-.797 0-.031 0-.188-.141-.188 0 0-.047 0-.14.047a4.07 4.07 0 0 1-2.813 0c-.125-.047-.157-.047-.157-.047-.125 0-.125.125-.125.266v2.64c0 .157 0 .282.204.282.125 0 .14 0 .234-.125.375-.422.86-.485 1.219-.485.828 0 .828.782.828 1.485 0 .64 0 1.531-1.125 1.531-.485 0-.922-.234-1.14-.516.374-.046.577-.296.577-.624 0-.438-.343-.625-.625-.625s-.625.171-.625.64C.531-.64 1.25.11 2.391.11c1.53 0 2.375-.859 2.375-1.906m0 0"/><path id="f" d="M4.86-1.672c0-.953-.735-1.375-1.204-1.64.64-.313.906-.75.906-1.25 0-.86-.75-1.329-1.89-1.329-1.297 0-1.938.72-1.938 1.594 0 .484.266 1 .86 1.344-.485.25-1.156.61-1.156 1.515 0 1.11 1 1.547 2.203 1.547 1.453 0 2.218-.765 2.218-1.78m-1-2.89c0 .468-.282.796-.657 1l-1.375-.75c-.047-.016-.39-.204-.39-.516 0-.594.703-.703 1.187-.703.797 0 1.234.39 1.234.968m.187 3.375c0 .843-1.047.89-1.39.89-.798 0-1.407-.36-1.407-1.156 0-.406.172-.875.797-1.25l1.203.656c.484.266.797.438.797.86m0 0"/><path id="g" d="M4.563 0v-.437H3.266v-5.157c0-.187 0-.297-.266-.297-.11 0-.125 0-.203.063-.688.516-1.656.516-1.828.516H.797v.437h.172a4.2 4.2 0 0 0 1.203-.172v4.61H.89V0c.343-.031 1.422-.031 1.828-.031.422 0 1.484 0 1.844.031m0 0"/><path id="i" d="M5 0v-.437h-.89v-.954H5v-.437h-.89v-3.766c0-.265-.032-.312-.298-.312-.218 0-.234.015-.328.14L.297-1.828v.437h2.656v.954H1.922V0C2.25-.031 3.14-.031 3.5-.031c.375 0 1.172 0 1.5.031M3.063-1.828H.813l2.25-2.797Zm0 0"/><path id="k" d="M5.156-5.516v-.265H3.11c-.187 0-1.437-.047-1.546-.078-.172-.047-.188-.11-.204-.203H.906L.594-3.766h.453c.094-.75.25-.812.25-.812.125-.047.812-.047.984-.047h1.5c-.922 1.047-.922 1.063-1.11 1.344-.733 1.11-.89 2.14-.89 2.75 0 .625.485.64.578.64.235 0 .407-.14.454-.187.124-.188.124-.234.124-.75 0-1.156.11-2.234.688-2.89l1.438-1.626c.078-.093.093-.14.093-.172m0 0"/><clipPath id="a"><path d="M0 0h38v30.633H0Zm0 0"/></clipPath><clipPath id="h"><path d="M32 16h38v14.633H32Zm0 0"/></clipPath><clipPath id="j"><path d="M71 16h38v14.633H71Zm0 0"/></clipPath><clipPath id="l"><path d="M109 16h38v14.633h-38Zm0 0"/></clipPath></defs><path fill="none" stroke="#7F7F7F" stroke-miterlimit="10" stroke-width=".399" d="M1.027 29.3h28.348M1.027.953h28.348M1.027 29.3V.954M29.375 29.3V.954"/><g fill="none" stroke-miterlimit="10" stroke-width=".598" clip-path="url(#a)"><path stroke="#CC8714" d="M1.027 15.152s.852-3.113 1.18-3.992c.328-.875.856-2.055 1.184-2.34.328-.289.851-.148 1.18.274.327.426.85 1.82 1.179 2.781.328.957.855 3.035 1.184 4.133s.851 2.996 1.18 3.777c.327.785.855 1.719 1.179 1.863.328.145.855-.265 1.184-.82s.851-2.144 1.18-3.168c.327-1.023.855-3.137 1.183-4.203.324-1.07.851-2.832 1.18-3.508.328-.672.851-1.355 1.18-1.355.327 0 .855.683 1.183 1.355.328.676.851 2.438 1.18 3.508.328 1.066.855 3.18 1.18 4.203.327 1.024.855 2.613 1.183 3.168s.851.965 1.18.82c.328-.144.855-1.078 1.183-1.863.324-.781.852-2.68 1.18-3.777.328-1.098.851-3.176 1.18-4.133.328-.96.855-2.355 1.183-2.781.328-.422.852-.563 1.18-.274.328.285.851 1.465 1.18 2.34.328.88 1.183 3.992 1.183 3.992"/><path stroke="#CC148C" d="M1.027 15.152s.852-3.183 1.18-4.117c.328-.93.856-2.215 1.184-2.59s.851-.43 1.18-.113c.327.32.85 1.52 1.179 2.414.328.899.855 2.902 1.184 4.043.328 1.14.851 3.215 1.18 4.18.327.96.855 2.332 1.179 2.761.328.43.855.594 1.184.332.328-.265.851-1.37 1.18-2.23.327-.86.855-2.824 1.183-3.957.324-1.137.851-3.234 1.18-4.227.328-.996.851-2.449 1.18-2.933.327-.485.855-.754 1.183-.547s.851 1.215 1.18 2.035.855 2.742 1.18 3.871c.327 1.125.855 3.242 1.183 4.262.328 1.023.851 2.555 1.18 3.09s.855.914 1.183.765c.324-.148.852-1.062 1.18-1.84.328-.777.851-2.644 1.18-3.765.328-1.117.855-3.25 1.183-4.293.328-1.047.852-2.656 1.18-3.238.328-.586.851-1.075 1.18-.98.328.09 1.183 1.636 1.183 1.636"/><path stroke="#2114CC" d="M1.027 15.152s.852-3.27 1.18-4.257c.328-.989.856-2.391 1.184-2.856.328-.469.851-.723 1.18-.516.327.204.85 1.184 1.179 1.993.328.812.855 2.699 1.184 3.851.328 1.149.851 3.324 1.18 4.434.327 1.11.855 2.86 1.179 3.562.328.707.855 1.453 1.184 1.524.328.066.851-.434 1.18-1.028.327-.59.855-2.175 1.183-3.23.324-1.055.851-3.203 1.18-4.375.328-1.176.851-3.176 1.18-4.082.327-.906.855-2.102 1.183-2.442a.81.81 0 0 1 1.18 0c.328.34.855 1.536 1.18 2.442.327.906.855 2.906 1.183 4.082.328 1.172.851 3.32 1.18 4.375s.855 2.64 1.183 3.23c.324.594.852 1.094 1.18 1.028.328-.07.851-.817 1.18-1.524.328-.703.855-2.453 1.183-3.562.328-1.11.852-3.285 1.18-4.434.328-1.152.851-3.039 1.18-3.851.328-.809 1.183-1.993 1.183-1.993"/><path stroke="#14CCA5" d="M1.027 15.152s.852-3.37 1.18-4.422c.328-1.046.856-2.57 1.184-3.136s.851-1.028 1.18-.946c.327.079.85.817 1.179 1.524.328.703.855 2.426 1.184 3.547.328 1.125.851 3.328 1.18 4.543.327 1.218.855 3.265 1.179 4.222.328.957.855 2.254 1.184 2.676.328.418.851.59 1.18.348.327-.238.855-1.246 1.183-2.074.324-.829.851-2.72 1.18-3.899.328-1.176.851-3.406 1.18-4.59.327-1.183.855-3.101 1.183-3.949s.851-1.898 1.18-2.164.855-.144 1.18.25c.327.395.855 1.652 1.183 2.59.328.941.851 2.973 1.18 4.183.328 1.211.855 3.422 1.183 4.555.324 1.133.852 2.887 1.18 3.613.328.727.851 1.512 1.18 1.618.328.105.855-.305 1.183-.848.328-.54.852-2.027 1.18-3.063.328-1.035.851-3.168 1.18-4.394.328-1.227 1.183-4.445 1.183-4.445"/><path stroke="#6ECC14" d="M1.027 15.152s.852-3.496 1.18-4.617c.328-1.117.856-2.77 1.184-3.441.328-.676.851-1.348 1.18-1.403.327-.054.85.422 1.179.997.328.578.855 2.085 1.184 3.144.328 1.063.851 3.219 1.18 4.496.327 1.274.855 3.531 1.179 4.7.328 1.167.855 2.952 1.184 3.718s.851 1.625 1.18 1.793c.327.168.855-.113 1.183-.586.324-.473.851-1.828 1.18-2.82.328-.996.851-3.078 1.18-4.336.327-1.262.855-3.543 1.183-4.754s.851-3.113 1.18-3.965.855-1.894 1.18-2.172c.327-.277.855-.191 1.183.176s.851 1.555 1.18 2.473.855 2.91 1.183 4.144c.324 1.238.852 3.528 1.18 4.77s.851 3.246 1.18 4.18c.328.93.855 2.148 1.183 2.535.328.382.852.5 1.18.242s.851-1.274 1.18-2.11c.328-.84 1.183-3.925 1.183-3.925"/><path stroke="#CC3F14" d="M1.027 15.152s.852-3.652 1.18-4.851c.328-1.196.856-2.996 1.184-3.785s.851-1.688 1.18-1.895c.327-.203.85-.004 1.179.418.328.426.855 1.676 1.184 2.633.328.96.851 2.992 1.18 4.277.327 1.281.855 3.649 1.179 4.977.328 1.324.855 3.508 1.184 4.586s.851 2.597 1.18 3.191c.327.598.855 1.117 1.183 1.098.324-.02.851-.606 1.18-1.238.328-.63.851-2.2 1.18-3.301.327-1.102.855-3.313 1.183-4.645s.851-3.691 1.18-4.96c.328-1.274.855-3.27 1.18-4.2.327-.934.855-2.125 1.183-2.512.328-.386.851-.511 1.18-.27.328.243.855 1.204 1.183 2.024.324.82.852 2.664 1.18 3.883.328 1.215.851 3.531 1.18 4.879.328 1.344.855 3.633 1.183 4.812s.852 2.934 1.18 3.692.851 1.594 1.18 1.758c.328.168 1.183-.559 1.183-.559"/><path stroke="#C414CC" d="M1.027 15.152s.852-3.851 1.18-5.144.856-3.266 1.184-4.184.851-2.062 1.18-2.433c.327-.371.85-.477 1.179-.23.328.25.855 1.198 1.184 2.019.328.816.851 2.648 1.18 3.883.327 1.238.855 3.605 1.179 5.027.328 1.422.855 3.883 1.184 5.226.328 1.34.851 3.434 1.18 4.446.327 1.008.855 2.34 1.183 2.828.324.488.851.812 1.18.691.328-.125.851-.875 1.18-1.586.327-.715.855-2.39 1.183-3.558.328-1.172.851-3.465 1.18-4.871s.855-3.887 1.18-5.266c.327-1.379.855-3.578 1.183-4.672s.851-2.61 1.18-3.21c.328-.606.855-1.141 1.183-1.141.324 0 .852.535 1.18 1.14.328.602.851 2.113 1.18 3.207s.855 3.297 1.183 4.676.852 3.86 1.18 5.266.851 3.699 1.18 4.867c.328 1.172 1.183 3.562 1.183 3.562"/><path stroke="#1450CC" d="M1.027 15.152s.852-4.117 1.18-5.53c.328-1.415.856-3.59 1.184-4.657.328-1.07.851-2.496 1.18-3.05.327-.556.85-1.005 1.179-.962.328.047.855.645 1.184 1.281.328.641.851 2.188 1.18 3.32.327 1.133.855 3.391 1.179 4.837.328 1.445.855 4.054 1.184 5.586.328 1.53.851 4.078 1.18 5.457.327 1.375.855 3.46 1.183 4.464.324 1.004.851 2.297 1.18 2.77.328.469.851.766 1.18.633.327-.133.855-.88 1.183-1.598s.851-2.39 1.18-3.582c.328-1.187.855-3.523 1.18-4.996.327-1.473.855-4.098 1.183-5.621s.851-4.027 1.18-5.363.855-3.325 1.183-4.258c.324-.934.852-2.09 1.18-2.477.328-.386.851-.531 1.18-.308.328.222.855 1.113 1.183 1.91s.852 2.586 1.18 3.828c.328 1.246.851 3.644 1.18 5.14.328 1.497 1.183 5.641 1.183 5.641"/></g><use xlink:href="#b" x="66.065" y="6.438"/><path fill="none" stroke="#CC3F14" stroke-miterlimit="10" stroke-width=".598" d="M41.164 4.227s2.906-1.512 4.98-1.329 7.887 2.47 9.961 2.657c2.075.183 4.985-1.328 4.985-1.328"/><use xlink:href="#c" x="104.544" y="6.438"/><path fill="none" stroke="#2114CC" stroke-miterlimit="10" stroke-width=".598" d="M79.64 4.227s2.91-1.512 4.981-1.329c2.074.184 7.89 2.47 9.965 2.657 2.074.183 4.98-1.328 4.98-1.328"/><use xlink:href="#d" x="66.065" y="17.396"/><path fill="none" stroke="#C414CC" stroke-miterlimit="10" stroke-width=".598" d="M41.164 15.184s2.906-1.508 4.98-1.325 7.887 2.47 9.961 2.653 4.985-1.328 4.985-1.328"/><use xlink:href="#e" x="104.544" y="17.396"/><path fill="none" stroke="#14CCA5" stroke-miterlimit="10" stroke-width=".598" d="M79.64 15.184s2.91-1.508 4.981-1.325c2.074.184 7.89 2.47 9.965 2.653 2.074.183 4.98-1.328 4.98-1.328"/><use xlink:href="#f" x="143.024" y="17.396"/><path fill="none" stroke="#CC8714" stroke-miterlimit="10" stroke-width=".598" d="M118.121 15.184s2.91-1.508 4.98-1.325c2.075.184 7.891 2.47 9.965 2.653 2.075.183 4.98-1.328 4.98-1.328"/><use xlink:href="#g" x="66.065" y="28.355"/><g clip-path="url(#h)"><path fill="none" stroke="#1450CC" stroke-miterlimit="10" stroke-width=".598" d="M41.164 26.145s2.906-1.512 4.98-1.329 7.887 2.47 9.961 2.657c2.075.183 4.985-1.328 4.985-1.328"/></g><use xlink:href="#i" x="104.544" y="28.355"/><g clip-path="url(#j)"><path fill="none" stroke="#6ECC14" stroke-miterlimit="10" stroke-width=".598" d="M79.64 26.145s2.91-1.512 4.981-1.329c2.074.184 7.89 2.47 9.965 2.657 2.074.183 4.98-1.328 4.98-1.328"/></g><use xlink:href="#k" x="143.024" y="28.355"/><g clip-path="url(#l)"><path fill="none" stroke="#CC148C" stroke-miterlimit="10" stroke-width=".598" d="M118.121 26.145s2.91-1.512 4.98-1.329c2.075.184 7.891 2.47 9.965 2.657 2.075.183 4.98-1.328 4.98-1.328"/></g></svg>