<svg xmlns="http://www.w3.org/2000/svg" xmlns:xlink="http://www.w3.org/1999/xlink" width="120.08" height="15.104"><defs><path id="a" d="M2.063-.672v-.281h-.25v.281c0 .36-.172.485-.329.485-.312 0-.312-.344-.312-.47V-2.14h.781v-.25h-.781v-1.03h-.25C.906-2.892.64-2.345.109-2.329v.187h.454v1.485c0 .562.468.687.843.687.407 0 .657-.312.657-.703m0 0"/><path id="b" d="M2.875-.687c0-.094-.11-.094-.14-.094-.094 0-.11.031-.141.125-.125.265-.453.453-.844.453-.812 0-.812-.766-.812-1.063h1.75c.124 0 .187 0 .187-.156 0-.187-.031-.61-.328-.89-.219-.22-.531-.329-.922-.329-.937 0-1.437.61-1.437 1.329C.188-.532.766.03 1.703.03c.922 0 1.172-.61 1.172-.718m-.562-.766H.937c0-.234.016-.484.125-.672a.66.66 0 0 1 .563-.297c.672 0 .688.766.688.969m0 0"/><path id="c" d="M3.64 0v-.297h-.437L2.156-1.53l.735-.813c.078-.094.109-.125.625-.125v-.297l-.563.016-.64-.016v.297c.078 0 .156 0 .234.047-.031.047-.031.047-.047.078l-.531.578-.61-.703h.25v-.297l-.75.016-.687-.016v.297h.437l.97 1.14-.813.923c-.11.11-.328.11-.625.11V0l.562-.016L1.36 0v-.297c-.125 0-.234-.031-.234-.062 0 0 0-.016.047-.063l.594-.687.687.812H2.22V0l.75-.016Zm0 0"/><path id="d" d="M2.531-.828v-.344H2.22v.328c0 .453-.203.625-.39.625-.391 0-.391-.437-.391-.578V-2.64h.968v-.312h-.969V-4.22h-.312c0 .672-.328 1.328-.984 1.344v.234h.547v1.829c0 .703.578.859 1.046.859.5 0 .797-.39.797-.875m0 0"/><path id="e" d="M3.688-.875c0-.14-.141-.14-.172-.14-.125 0-.141.046-.188.171-.156.344-.594.594-1.078.594-1.047 0-1.062-1-1.062-1.375h2.265c.156 0 .235 0 .235-.203 0-.234-.047-.781-.422-1.156-.266-.266-.672-.407-1.188-.407-1.187 0-1.844.782-1.844 1.704C.234-.673.984.046 2.188.046c1.187 0 1.5-.797 1.5-.922m-.704-1H1.188c.015-.297.03-.61.187-.844a.79.79 0 0 1 .703-.39c.875 0 .89.968.906 1.234m0 0"/><path id="f" d="M3.453-4.844c0-.328-.281-.687-.906-.687-.766 0-1.625.343-1.625 1.234v.797H.328v.375h.594v2.75H.375V0l1-.031c.297 0 .797 0 1.094.031v-.375H1.78v-2.75h.907V-3.5h-.954v-.797c0-.875.594-.937.797-.937.031 0 .078 0 .125.015a.48.48 0 0 0-.172.375c0 .344.266.5.47.5.25 0 .5-.172.5-.5m0 0"/><path id="g" d="M3.625-5.094c0-.343-.297-.718-.937-.718-.829 0-1.72.359-1.72 1.296v.829H.345v.39h.625V-.39H.39V0l1.047-.031c.328 0 .859 0 1.156.031v-.39h-.735v-2.907h.97v-.39H1.811v-.829c0-.921.641-1 .844-1 .047 0 .078 0 .14.016a.5.5 0 0 0-.187.406c0 .36.282.516.5.516.25 0 .516-.172.516-.516m0 0"/><path id="h" d="M4.313-1.016c0-.156-.172-.156-.22-.156-.14 0-.155.031-.218.172-.172.422-.672.703-1.234.703-1.235 0-1.25-1.156-1.25-1.61h2.64c.188 0 .282 0 .282-.234 0-.265-.063-.906-.5-1.343-.313-.313-.782-.47-1.376-.47-1.406 0-2.156.907-2.156 1.985 0 1.172.875 2.016 2.266 2.016 1.39 0 1.765-.922 1.765-1.063m-.829-1.171H1.391c.015-.344.03-.704.218-1a.97.97 0 0 1 .829-.454c1.015 0 1.03 1.141 1.046 1.454m0 0"/><path id="i" d="M4.36-1.062c0-.141-.126-.141-.22-.141-.156 0-.171.031-.218.14-.235.579-.672.75-1.14.75-1.266 0-1.266-1.343-1.266-1.765 0-.5 0-1.688 1.172-1.688.328 0 .484.032.593.047a.6.6 0 0 0-.172.422c0 .406.313.578.563.578.281 0 .578-.187.578-.578 0-.781-1.062-.844-1.594-.844-1.64 0-2.312 1.063-2.312 2.11 0 1.219.86 2.094 2.265 2.094C4.094.063 4.36-1 4.36-1.062m0 0"/><path id="j" d="M3.64-1.187v-.5h-.437v.484c0 .656-.312.875-.578.875-.547 0-.547-.61-.547-.828v-2.64h1.39v-.438h-1.39v-1.828h-.453c-.016.953-.484 1.906-1.422 1.921v.344h.781v2.625c0 1.016.829 1.235 1.5 1.235.735 0 1.157-.547 1.157-1.25m0 0"/><path id="k" d="M4.14-1.39c0-.438-.202-.782-.546-1.063-.39-.281-.719-.344-1.485-.485-.375-.062-1.015-.171-1.015-.64 0-.625.922-.625 1.11-.625.75 0 1.124.297 1.171.844.016.156.031.203.234.203.235 0 .235-.047.235-.281v-.797c0-.188 0-.282-.172-.282-.047 0-.063 0-.453.188-.266-.125-.61-.188-1-.188-.313 0-1.844 0-1.844 1.313 0 .39.203.656.406.828.39.344.782.406 1.547.547.36.062 1.094.187 1.094.781 0 .75-.906.75-1.125.75C1.234-.297.984-1.03.859-1.453c-.046-.14-.109-.14-.234-.14-.25 0-.25.062-.25.28v1.094c0 .188 0 .282.188.282.062 0 .078 0 .296-.157l.25-.172c.47.329.985.329 1.188.329.312 0 1.844 0 1.844-1.454m0 0"/><path id="l" d="M5.969-.266c0-.234-.14-.234-.282-.234-.656-.016-.656-.156-.656-.406v-2.328c0-.953-.765-1.657-2.375-1.657-.61 0-1.937.047-1.937 1 0 .47.375.672.672.672.343 0 .687-.219.687-.672 0-.328-.203-.515-.25-.53.313-.063.656-.079.781-.079.813 0 1.188.453 1.188 1.266v.375c-.766.03-3.5.125-3.5 1.687C.297-.125 1.625.063 2.375.063c.86 0 1.375-.438 1.61-.891 0 .328 0 .828 1.124.828h.516c.219 0 .344 0 .344-.266M3.797-1.5c0 1.031-.985 1.172-1.266 1.172-.547 0-.969-.375-.969-.844 0-1.172 1.704-1.328 2.235-1.36Zm0 0"/><path id="m" d="M3.281 0v-.531h-.765v-7.25L.53-7.688v.532c.688 0 .766 0 .766.437V-.53H.53V0l1.375-.031Zm0 0"/><path id="n" d="M6.297-2.531c0-1.563-1.063-2.735-2.953-2.735C1.438-5.266.375-4.078.375-2.53.375-1.094 1.391.063 3.344.063S6.297-1.11 6.297-2.531m-1.484-.125c0 1 0 2.265-1.47 2.265C1.86-.39 1.86-1.656 1.86-2.656c0-.531 0-1.125.204-1.516.218-.437.703-.672 1.28-.672.485 0 .97.188 1.22.594.25.39.25 1.031.25 1.594m0 0"/><path id="o" d="M7.406 0v-.562h-.843v-3.125c0-1.25-.641-1.735-1.844-1.735-1.157 0-1.797.688-2.11 1.313v-1.313l-2.062.11v.562c.734 0 .828 0 .828.469v3.718H.547V0l1.515-.031L3.579 0v-.562H2.75v-2.516c0-1.313 1.031-1.906 1.781-1.906.407 0 .672.25.672 1.172v3.25h-.828V0l1.516-.031Zm0 0"/><path id="p" d="M6.953-4.937a.74.74 0 0 0-.781-.735 2.22 2.22 0 0 0-1.328.484c-.219-.156-.75-.421-1.672-.421-1.797 0-2.469.984-2.469 1.843 0 .516.25 1.032.64 1.313C1-2.016.923-1.61.923-1.343c0 .187.047.796.547 1.187C1.312-.11.406.156.406.938c0 .625.672 1.562 3.172 1.562C5.781 2.5 6.75 1.766 6.75.89c0-.374-.094-1.156-.937-1.578-.688-.343-1.438-.343-2.641-.343-.313 0-.89 0-.953-.016a.804.804 0 0 1-.688-.781c0-.125.047-.313.125-.406.578.297 1.203.312 1.516.312 1.797 0 2.484-.969 2.484-1.844 0-.578-.312-.984-.5-1.187.375-.203.64-.234.766-.234-.016.062-.047.171-.047.25 0 .312.219.53.531.53.328 0 .547-.234.547-.53M4.266-3.766c0 .563 0 1.407-1.094 1.407s-1.094-.844-1.094-1.407c0-.562 0-1.39 1.094-1.39s1.094.828 1.094 1.39M5.672.938c0 .437-.484 1.125-2.094 1.125-1.5 0-2.11-.579-2.11-1.157 0-.75.782-.75.954-.75H3.89c.375 0 1.78 0 1.78.782m0 0"/><path id="q" d="M7.969-2.969c0-1.765-1.203-3.015-3.125-3.015-.985 0-1.703.422-2 .656v-.656l-2.36.109v.625c.829 0 .922 0 .922.516v6.687H.484v.625l1.688-.047 1.672.047v-.625h-.922V-.516a2.58 2.58 0 0 0 1.703.594c1.984 0 3.344-1.187 3.344-3.047m-1.703 0c0 1.875-.922 2.563-1.797 2.563-.172 0-.797 0-1.407-.703-.14-.172-.14-.188-.14-.438v-2.828c0-.25.015-.266.203-.453.531-.531 1.219-.625 1.516-.625.89 0 1.625.812 1.625 2.484m0 0"/><path id="r" d="M7.578-.328c0-.313-.172-.313-.36-.313-.827-.015-.827-.187-.827-.515v-2.938c0-1.218-.985-2.11-3.016-2.11-.781 0-2.453.048-2.453 1.25 0 .61.469.876.844.876.422 0 .859-.297.859-.875 0-.406-.25-.64-.297-.672.39-.078.828-.094.985-.094 1.03 0 1.515.578 1.515 1.625v.469c-.984.031-4.453.156-4.453 2.14C.375-.171 2.063.079 3.015.079c1.094 0 1.735-.562 2.047-1.14 0 .437 0 1.062 1.422 1.062h.657c.265 0 .437 0 .437-.328m-2.75-1.578c0 1.312-1.266 1.5-1.61 1.5-.702 0-1.25-.485-1.25-1.094 0-1.469 2.173-1.672 2.86-1.703Zm0 0"/><path id="s" d="M5.39-1.75v-.75h-.656v.719c0 .968-.453 1.297-.859 1.297-.812 0-.812-.891-.812-1.22v-3.89h2.062v-.672H3.063v-2.687h-.657C2.391-7.547 1.687-6.156.296-6.11v.515h1.157v3.86C1.453-.22 2.688.078 3.687.078c1.063 0 1.704-.797 1.704-1.828m0 0"/><path id="t" d="M8.938 0v-.687h-1v-3.766c0-1.516-.782-2.078-2.235-2.078-1.406 0-2.14.828-2.469 1.39H3.22v-4.937l-2.563.11v.687c.907 0 1 0 1 .562v8.031h-1V0l1.828-.047L4.313 0v-.687h-1V-3.72c0-1.578 1.25-2.297 2.171-2.297.485 0 .797.313.797 1.407v3.922h-1V0L7.11-.047Zm0 0"/><path id="u" d="M3.797-9.469c0-.578-.547-1.062-1.188-1.062s-1.171.484-1.171 1.062c0 .094 0 .125.03.266l.766 5.437c.047.36.063.391.375.391.282 0 .329-.031.375-.328l.782-5.578ZM3.78-1.172c0-.64-.531-1.156-1.172-1.156s-1.156.515-1.156 1.156C1.453-.516 1.97 0 2.61 0a1.17 1.17 0 0 0 1.172-1.172m0 0"/></defs><use xlink:href="#a" x=".432" y="11.082"/><use xlink:href="#b" x="2.844" y="11.082"/><use xlink:href="#c" x="5.907" y="11.082"/><use xlink:href="#d" x="9.686" y="11.082"/><use xlink:href="#e" x="15.358" y="11.082"/><use xlink:href="#f" x="19.296" y="11.082"/><use xlink:href="#g" x="22.064" y="11.082"/><use xlink:href="#h" x="24.978" y="11.082"/><use xlink:href="#i" x="29.572" y="11.082"/><use xlink:href="#j" x="34.239" y="11.082"/><use xlink:href="#k" x="38.506" y="11.082"/><use xlink:href="#l" x="47.004" y="11.082"/><use xlink:href="#m" x="53.037" y="11.082"/><use xlink:href="#n" x="56.612" y="11.082"/><use xlink:href="#o" x="63.296" y="11.082"/><use xlink:href="#p" x="70.988" y="11.082"/><use xlink:href="#q" x="83.077" y="11.082"/><use xlink:href="#r" x="91.565" y="11.082"/><use xlink:href="#s" x="99.223" y="11.082"/><use xlink:href="#t" x="105.531" y="11.082"/><use xlink:href="#u" x="114.815" y="11.082"/></svg>