<svg xmlns="http://www.w3.org/2000/svg" xmlns:xlink="http://www.w3.org/1999/xlink" width="87.43" height="82.892"><defs><path id="a" d="M4.922 0v-.469h-1.39v-5.734c0-.234 0-.328-.266-.328-.11 0-.125 0-.22.078-.765.562-1.796.562-2 .562H.845v.47h.203c.156 0 .703-.016 1.297-.204v5.156H.954V0c.437-.031 1.5-.031 1.984-.031s1.546 0 1.984.031m0 0"/><path id="i" d="M5.563-6.422H3.53c-.234 0-1.703-.047-1.844-.094-.203-.03-.218-.125-.234-.218H.984l-.343 2.53h.468c.094-.765.22-.89.266-.905.11-.063.922-.063 1.094-.063H4.14c-.172.219-.36.422-.547.64-.953 1.126-1.672 2.47-1.672 3.938 0 .703.562.703.625.703.156 0 .625-.046.625-.703v-.468c0-.47.031-.954.094-1.422.093-.672.297-1.25.656-1.657l1.547-1.796c.093-.11.093-.141.093-.485m0 0"/><path id="z" d="M5.25-2.047c0-1.39-1.016-2.125-2.219-2.125-.219 0-.781 0-1.203.766v-.188c0-1.14.219-1.562.281-1.719.25-.468.782-.828 1.391-.828.172 0 .516.032.75.266a.595.595 0 0 0-.547.61c0 .343.235.624.625.624s.625-.265.625-.64c0-.625-.422-1.25-1.469-1.25-1.359 0-3 .86-3 3.375 0 .781.079 1.578.5 2.265.47.766 1.22 1 1.922 1C4.281.11 5.25-.703 5.25-2.047m-1.36-.015c0 1 0 1.75-1.015 1.75-.516 0-.781-.391-.86-.563-.156-.312-.156-1.031-.156-1.219 0-1.25.532-1.719 1.079-1.719.953 0 .953.75.953 1.75m0 0"/><path id="C" d="M5.25-1.86c0-1.077-.844-1.546-1.328-1.827.687-.36 1-.797 1-1.376 0-1.015-.906-1.468-2.047-1.468-1.375 0-2.078.797-2.078 1.75 0 .437.187 1.062.953 1.5C.922-2.906.484-2.344.484-1.61.484-.406 1.563.109 2.844.109 4.438.11 5.25-.766 5.25-1.859M4.172-5.046c0 .484-.25.813-.688 1.11l-1.5-.844c-.156-.078-.437-.25-.437-.594 0-.703.89-.766 1.297-.766.828 0 1.328.407 1.328 1.094m.219 3.734c0 .829-.938 1-1.516 1-.969 0-1.547-.515-1.547-1.296 0-.766.531-1.203.89-1.407l1.36.766c.438.25.813.453.813.938m0 0"/><path id="b" d="m4.5 3.36-.234-.407c-.188.078-.797.313-.922.219-.11-.063-.485-.719-.563-.844l-.734-1.281c.578.219 1.203.469 1.703.687 1.297.563 2.031.891 2.844.422 1-.578 1.11-1.86.422-3.062-.61-1.063-1.625-1.563-2.391-1.11-.516.297-.406.782-.281.985.156.281.547.515.984.265.453-.25.36-.703.344-.843.344.125.625.406.812.718.422.735.079 1.485-.578 1.86-.593.344-1.375.36-2.343.094L.797.359C.64.281.609.297.437.406L.282.484l2.14 3.704Zm0 0"/><path id="f" d="M4.39 3.531c1.22-.703 1.329-1.937.735-2.984-.11-.188-.39-.672-1.266-.672l.157-.094C5-.78 5.484-.812 5.64-.829a1.62 1.62 0 0 1 1.422.798c.078.156.234.469.156.781-.235-.281-.563-.328-.813-.172a.61.61 0 0 0-.234.86c.203.343.547.406.875.218.531-.312.875-1 .344-1.906-.672-1.172-2.25-2.156-4.422-.906-.672.39-1.328.86-1.719 1.578-.422.781-.25 1.531.11 2.14.687 1.188 1.874 1.641 3.03.97M3.72 2.344c-.86.5-1.516.875-2.016-.016-.266-.437-.047-.86.047-1.015.203-.297.828-.657.984-.75C3.813-.062 4.484.156 4.766.64c.468.828-.172 1.203-1.047 1.703m0 0"/><path id="A" d="m2.453 4.266.406-.235-.687-1.203L7.14-.032c.203-.124.28-.171.14-.405-.047-.094-.062-.11-.172-.141-.875-.39-1.39-1.281-1.5-1.453l-.093-.172-.391.234.094.172c.078.14.36.594.828 1.016L1.578 1.797.875.594.469.828c.25.36.781 1.281 1.031 1.703.234.422.766 1.344.953 1.735m0 0"/><path id="B" d="M8.344 1.61 7.328-.14c-.125-.204-.812-1.516-.844-1.641-.078-.203 0-.266.063-.313L6.313-2.5l-2.36.969.235.39c.703-.296.875-.25.921-.218.11.062.516.765.61.922L6.547 1C6.28.969 6 .906 5.719.844 4.266.578 2.734.64 1.469 1.375c-.61.344-.328.828-.297.875.078.14.36.531.922.203L2.5 2.22c.406-.235.844-.438 1.281-.625.625-.266 1.235-.375 1.75-.266l2.344.438c.14.03.172.015.469-.157m0 0"/><path id="c" d="M-1.062 5.438c.468.28 1.375.453 2.359-.641-.172.703-.047 1.61.703 2.031.656.39 1.578.047 2.281-1.172.594-1.031.422-2.031-.265-2.422a.67.67 0 0 0-.953.235.67.67 0 0 0 .234.953c.5.297.89-.125.906-.14.078.437-.078.843-.234 1.124-.422.719-.985.422-1.266.25-.11-.062-1.234-.718-.765-1.656.187-.344.203-.375.203-.422.03-.094-.032-.156-.094-.187-.14-.094-.188 0-.281.14l-.22.375C1 4.86.142 4.375-.296 4.11c-.406-.234-1.297-.734-.781-1.625.14-.234.437-.656.937-.921-.078.328 0 .671.36.875.39.218.812.109 1.031-.282.219-.36.156-.797-.281-1.047-.781-.453-1.781.11-2.422 1.22-.89 1.53-.406 2.655.39 3.109m0 0"/><path id="e" d="M-.844 5.469c1 .578 2.203.343 2.938-.938.14-.234.375-.718.344-1.281l1.14.656c-.187.235-.281.313-.437.594-.735 1.266-.203 2.625.015 2.75.063.031.156.078.219-.031.016-.032.016-.032.031-.157a4.1 4.1 0 0 1 .531-1.468c.376-.64.813-1 1-1.203.079-.063.094-.047.11-.063.078-.125-.016-.187-.156-.266L2.359 2.61c-.14-.093-.25-.156-.359.032-.062.109-.047.156-.016.25.204.578.016 1.078-.187 1.437-.438.766-1.188.328-1.89-.078-.626-.36-1.5-.86-.907-1.89.125-.22.5-.72 1.188-.813-.157.312-.094.703.25.906.468.266.796-.047.921-.25.063-.11.25-.625-.28-.937-.72-.422-1.845-.157-2.454.922-.797 1.374-.531 2.671.531 3.28m0 0"/><path id="u" d="m-2.453 4.266.406.234.688-1.203 4.968 2.86c.204.124.282.171.422-.063.047-.094.063-.11.047-.235-.125-.953.39-1.843.5-2.015l.094-.172-.39-.235-.095.172c-.078.141-.359.625-.484 1.235L-.766 2.266l.704-1.203L-.47.828c-.187.39-.718 1.313-.968 1.735-.235.421-.766 1.343-1.016 1.703m0 0"/><path id="v" d="m-2.703 4.688.406.234.485-.844.953.547-.485.844.407.234.484-.844 3.625 2.094c.219.125.297.14.437-.11.11-.187.094-.187.016-.374L1.609 1.28l-.406-.234-1.437 2.5L-1.187 3l.562-.969-.406-.234c-.157.344-.61 1.125-.828 1.5-.203.344-.625 1.094-.844 1.39m2.828-.813L1.344 1.75 2.78 5.406Zm0 0"/><path id="d" d="M-5.406 0v.469h.968v1.094h-.968v.468h.968V6.22c0 .265.016.328.297.328.22 0 .22-.016.344-.172l3.485-4.344v-.469h-2.875V.47h1.109V0c-.375.031-1.281.031-1.703.031-.406 0-1.266 0-1.625-.031m2.11 2.031h2.452L-3.297 5.11Zm0 0"/><path id="l" d="M-5.25 1.86c0 1.078.844 1.546 1.328 1.828-.687.359-1 .796-1 1.374 0 1.016.906 1.47 2.047 1.47 1.375 0 2.078-.798 2.078-1.75 0-.438-.187-1.063-.953-1.5.828-.376 1.266-.938 1.266-1.673 0-1.203-1.078-1.718-2.36-1.718-1.594 0-2.406.875-2.406 1.968m1.078 3.187c0-.484.25-.813.688-1.11l1.5.844c.156.078.437.25.437.594 0 .703-.89.766-1.297.766-.828 0-1.328-.407-1.328-1.094m-.219-3.734c0-.829.938-1 1.516-1 .969 0 1.547.515 1.547 1.296 0 .766-.531 1.204-.89 1.407l-1.36-.766c-.438-.25-.813-.453-.813-.937m0 0"/><path id="q" d="M-4.922 0v.469h1.39v5.734c0 .234 0 .328.266.328.11 0 .125 0 .22-.078.765-.562 1.796-.562 2-.562h.202v-.47h-.203c-.156 0-.703.016-1.297.204V.469h1.39V0c-.437.031-1.5.031-1.983.031-.485 0-1.547 0-1.985-.031m0 0"/><path id="r" d="M-5.156 2.219h.468c.032-.203.125-.844.266-.906.11-.063.86-.063 1.016-.063h1.469c-.47.39-1 .813-1.438 1.14-1.14.844-1.781 1.313-1.781 2.25 0 1.157 1.047 1.891 2.437 1.891 1.219 0 2.157-.625 2.157-1.515 0-.594-.485-.735-.72-.735C-1.608 4.281-2 4.5-2 5c0 .516.422.672.563.719-.282.234-.672.343-1.032.343-.844 0-1.312-.671-1.312-1.421 0-.688.375-1.375 1.078-2.078l2-2.047c.14-.11.14-.141.14-.344V0h-4.28Zm0 0"/><path id="m" d="M-5.469-2.906C-6.047-2.578-8.28-1.281-7.094.78-6.39 2-5.187 2.437-4.03 1.766c1.187-.688 1.328-1.907.718-2.97-.171-.312-.453-.687-1.25-.655l.188-.11c.64-.375 1.188-.562 1.547-.625a1.42 1.42 0 0 1 1.39.703c.079.157.235.485.22.829-.079-.079-.391-.344-.782-.11-.297.172-.437.516-.234.86.187.343.547.406.875.218.593-.343.812-1.062.265-2.015-.64-1.125-2.172-2.078-4.375-.797m-.156 1.672c.531-.313 1.547-.594 1.969.14.484.828-.172 1.203-1.031 1.688-.844.5-1.532.89-2.079-.047-.28-.5.047-.969.11-1.063.218-.25.734-.546 1.031-.718m0 0"/><path id="p" d="m-2.453-4.266-.406.235.687 1.203L-7.14.032c-.203.124-.28.171-.14.406.047.093.062.109.172.14.875.39 1.39 1.281 1.5 1.453l.093.172.391-.234-.094-.172A4.3 4.3 0 0 0-6.047.78l4.469-2.578.703 1.203.406-.234c-.25-.36-.781-1.281-1.031-1.703-.234-.422-.766-1.344-.953-1.735m0 0"/><path id="s" d="M-4.187-3.656c-.47.281-1.063.953-.61 2.36-.516-.485-1.36-.829-2.11-.407-.655.39-.827 1.36-.124 2.578.593 1.031 1.547 1.375 2.234.984.36-.218.453-.625.266-.953a.687.687 0 0 0-.953-.265c-.5.297-.328.812-.313.859-.422-.156-.703-.5-.86-.781-.421-.719.11-1.047.391-1.219.11-.062 1.266-.719 1.829.156.218.344.234.375.265.39.063.095.156.063.219.032.14-.094.094-.187 0-.328l-.219-.375c-.547-.953.313-1.437.75-1.703.406-.235 1.297-.735 1.813.156.14.235.343.688.343 1.266-.265-.235-.593-.328-.953-.125-.39.218-.5.64-.281 1.031.219.36.625.516 1.063.266.78-.453.812-1.578.171-2.688-.89-1.531-2.125-1.687-2.921-1.234m0 0"/><path id="E" d="m-4.5-3.36.234.407c.188-.078.797-.313.922-.219.11.063.485.719.563.844l.734 1.281a38 38 0 0 1-1.703-.687c-1.297-.563-2.031-.891-2.844-.422-1 .578-1.11 1.86-.422 3.062.61 1.063 1.625 1.563 2.391 1.11.516-.297.406-.782.281-.985C-4.5.75-4.89.516-5.328.766c-.453.25-.36.703-.344.843-.344-.125-.625-.406-.812-.718-.422-.735-.079-1.485.578-1.86.593-.343 1.375-.36 2.343-.094l2.766.704c.156.078.188.062.36-.047l.156-.078-2.14-3.703Zm0 0"/><path id="F" d="M-5.406-2.984c-.813.468-2.875 1.687-1.672 3.78 1.203 2.079 3.266.892 4.094.407.875-.5 2.859-1.64 1.656-3.719s-3.203-.968-4.078-.468m.547 1.156c.484-.281 1.28-.734 1.765-.906.86-.36 1.297.125 1.453.39.172.297.266.906-.312 1.375-.39.344-1.281.86-1.766 1.125-.625.36-1.187.688-1.672.875-.828.328-1.265-.218-1.375-.422C-6.953.281-7-.17-6.703-.547c.219-.344 1.14-.875 1.844-1.281m0 0"/><path id="n" d="M2.453-4.266 2.047-4.5l-.688 1.203-4.968-2.86c-.203-.124-.282-.171-.422.063-.047.094-.063.11-.047.235.125.953-.39 1.843-.5 2.015l-.094.172.39.235.095-.172c.078-.141.359-.625.484-1.235L.766-2.266.063-1.062l.406.234c.187-.39.719-1.313.969-1.735.234-.421.765-1.343 1.015-1.703m0 0"/><path id="o" d="M-.125-6.172c-.812-.469-2.906-1.656-4.11.438-1.202 2.078.86 3.265 1.688 3.75.875.5 2.86 1.64 4.063-.438S.75-5.672-.125-6.172m-.734 1.063c.484.28 1.28.734 1.672 1.062.734.578.546 1.188.39 1.453-.172.297-.64.688-1.344.438C-.625-2.344-1.516-2.86-2-3.125c-.625-.36-1.187-.687-1.61-1.031-.703-.547-.421-1.188-.312-1.39.188-.329.547-.595 1.031-.532.407.031 1.329.562 2.032.969m0 0"/><path id="y" d="M.844-5.469c-1-.578-2.203-.343-2.938.938-.14.234-.375.718-.344 1.281l-1.14-.656c.187-.235.281-.313.437-.594.735-1.266.204-2.625-.015-2.75-.063-.031-.156-.078-.219.031-.016.032-.016.032-.031.157a4.1 4.1 0 0 1-.531 1.468c-.376.64-.813 1-1 1.203-.079.063-.094.047-.11.063-.078.125.016.187.156.266l2.532 1.453c.14.093.25.156.359-.032.063-.109.047-.156.016-.25-.203-.578-.016-1.078.187-1.437.438-.766 1.188-.328 1.89.078.626.36 1.5.86.907 1.89-.125.22-.5.72-1.187.813.156-.312.093-.703-.25-.906-.47-.266-.797.047-.922.25-.063.11-.25.625.28.937.72.422 1.845.157 2.454-.921.797-1.376.531-2.672-.531-3.282m0 0"/><path id="D" d="M-.219-6.187c-.578-.329-2.812-1.625-4 .437-.703 1.219-.5 2.469.657 3.14 1.187.688 2.328.22 2.937-.843.172-.313.36-.75-.062-1.438l.187.11c.64.375 1.094.75 1.328 1.031.25.36.422.953.078 1.547a1.54 1.54 0 0 1-.593.61c.015-.11.078-.5-.313-.735-.297-.172-.656-.11-.86.234-.187.344-.078.688.25.875.594.344 1.344.157 1.891-.797.64-1.125.703-2.89-1.5-4.171m-1.531.703c.531.312 1.297 1.03.875 1.765-.484.828-1.14.453-2-.031-.844-.5-1.531-.89-.984-1.828.28-.5.859-.438.953-.438.344.063.86.36 1.156.532m0 0"/><clipPath id="g"><path d="M74 45h13.145v22H74Zm0 0"/></clipPath><clipPath id="h"><path d="M71 43h16.145v27H71Zm0 0"/></clipPath><clipPath id="j"><path d="M74 31h13.145v21H74Zm0 0"/></clipPath><clipPath id="k"><path d="M71 28h16.145v27H71Zm0 0"/></clipPath><clipPath id="t"><path d="M0 57h16v25.84H0Zm0 0"/></clipPath><clipPath id="w"><path d="M12 72h29v10.84H12Zm0 0"/></clipPath><clipPath id="x"><path d="M20 57h21v25.84H20Zm0 0"/></clipPath></defs><use xlink:href="#a" x="40.556" y="47.105"/><use xlink:href="#b" x="47.666" y="38.083"/><use xlink:href="#c" x="59.082" y="39.758"/><use xlink:href="#d" x="63.292" y="50.394"/><path fill="none" stroke="#000" stroke-miterlimit="10" stroke-width=".399" d="m60.43 63.48-8.504-14.726"/><path fill="none" stroke="#7F7F7F" stroke-miterlimit="10" stroke-width=".199" d="M51.926 48.754h17.008"/><use xlink:href="#e" x="67.586" y="54.487"/><path fill="none" stroke="#000" stroke-miterlimit="10" stroke-width=".399" d="M77.438 63.48H60.43"/><path fill="none" stroke="#7F7F7F" stroke-miterlimit="10" stroke-width=".199" d="m60.43 63.48 8.504-14.726"/><use xlink:href="#f" x="73.226" y="52.785"/><g clip-path="url(#g)"><path fill="none" stroke="#7F7F7F" stroke-miterlimit="10" stroke-width=".199" d="M85.941 48.754 77.437 63.48"/></g><g clip-path="url(#h)"><path fill="none" stroke="#000" stroke-miterlimit="10" stroke-width=".399" d="m85.941 48.754-1.308 9.062-7.195 5.664"/></g><path fill="none" stroke="#7F7F7F" stroke-miterlimit="10" stroke-width=".199" d="m77.438 63.48-8.504-14.726"/><use xlink:href="#i" x="74.572" y="47.155"/><g clip-path="url(#j)"><path fill="none" stroke="#7F7F7F" stroke-miterlimit="10" stroke-width=".199" d="m77.438 34.023 8.503 14.73"/></g><g clip-path="url(#k)"><path fill="none" stroke="#000" stroke-miterlimit="10" stroke-width=".399" d="m77.438 34.023 7.195 5.664 1.308 9.067"/></g><path fill="none" stroke="#7F7F7F" stroke-miterlimit="10" stroke-width=".199" d="M85.941 48.754H68.934"/><path fill="none" stroke="#000" stroke-miterlimit="10" stroke-width=".399" d="m68.934 48.754 8.504-14.73"/><path fill="none" stroke="#7F7F7F" stroke-miterlimit="10" stroke-width=".199" d="m51.926 48.754 8.504-14.73M60.43 34.023l8.504 14.73"/><path fill="none" stroke="#000" stroke-miterlimit="10" stroke-width=".399" d="m60.43 34.023 7.195 5.664 1.309 9.067"/><path fill="none" stroke="#7F7F7F" stroke-miterlimit="10" stroke-width=".199" d="m51.926 48.754-8.504-14.73M43.422 34.023H60.43"/><path fill="none" stroke="#000" stroke-miterlimit="10" stroke-width=".399" d="m43.422 34.023 8.504-3.402 8.504 3.402"/><use xlink:href="#l" x="46.284" y="50.454"/><use xlink:href="#m" x="39.126" y="59.448"/><use xlink:href="#n" x="26.326" y="60.227"/><use xlink:href="#o" x="29.19" y="55.266"/><path fill="none" stroke="#000" stroke-miterlimit="10" stroke-width=".399" d="M17.906 48.754h17.008"/><path fill="none" stroke="#7F7F7F" stroke-miterlimit="10" stroke-width=".199" d="M34.914 48.754 26.41 63.48"/><use xlink:href="#p" x="23.598" y="61.901"/><use xlink:href="#p" x="20.734" y="56.94"/><path fill="none" stroke="#000" stroke-miterlimit="10" stroke-width=".399" d="m9.402 63.48 8.504-14.726"/><path fill="none" stroke="#7F7F7F" stroke-miterlimit="10" stroke-width=".199" d="M17.906 48.754 26.41 63.48"/><use xlink:href="#q" x="23.637" y="65.128"/><use xlink:href="#r" x="17.908" y="65.128"/><use xlink:href="#p" x="15.047" y="76.658"/><use xlink:href="#s" x="12.183" y="71.697"/><g clip-path="url(#t)"><path fill="none" stroke="#000" stroke-miterlimit="10" stroke-width=".399" d="m.898 78.21 8.504-14.73"/></g><path fill="none" stroke="#7F7F7F" stroke-miterlimit="10" stroke-width=".199" d="m9.402 63.48 8.504 14.73"/><path fill="none" stroke="#000" stroke-miterlimit="10" stroke-width=".399" d="M17.906 78.21H.898"/><path fill="none" stroke="#7F7F7F" stroke-miterlimit="10" stroke-width=".199" d="M9.402 63.48H26.41"/><use xlink:href="#u" x="26.447" y="66.706"/><use xlink:href="#v" x="23.583" y="71.667"/><path fill="none" stroke="#7F7F7F" stroke-miterlimit="10" stroke-width=".199" d="M34.918 78.21H17.906"/><g clip-path="url(#w)"><path fill="none" stroke="#000" stroke-miterlimit="10" stroke-width=".399" d="m34.918 78.21-8.508 3.403-8.504-3.402"/></g><path fill="none" stroke="#7F7F7F" stroke-miterlimit="10" stroke-width=".199" d="m17.906 78.21 8.504-14.73"/><g clip-path="url(#x)"><path fill="none" stroke="#000" stroke-miterlimit="10" stroke-width=".399" d="m26.41 63.48 8.504 14.73"/></g><path fill="none" stroke="#7F7F7F" stroke-miterlimit="10" stroke-width=".199" d="m34.914 48.754 8.508 14.726M43.422 63.48H26.41"/><path fill="none" stroke="#000" stroke-miterlimit="10" stroke-width=".399" d="m43.422 63.48-8.508 3.403-8.504-3.403"/><path fill="none" stroke="#7F7F7F" stroke-miterlimit="10" stroke-width=".199" d="M34.914 48.754h17.012M51.926 48.754 43.422 63.48"/><path fill="none" stroke="#000" stroke-miterlimit="10" stroke-width=".399" d="m51.926 48.754-1.309 9.062-7.195 5.664"/><use xlink:href="#n" x="34.83" y="45.497"/><use xlink:href="#y" x="37.694" y="40.536"/><use xlink:href="#a" x="29.188" y="32.321"/><use xlink:href="#z" x="34.917" y="32.321"/><use xlink:href="#A" x="37.687" y="20.898"/><use xlink:href="#B" x="40.551" y="25.859"/><path fill="none" stroke="#000" stroke-miterlimit="10" stroke-width=".399" d="m51.926 19.293-8.504 14.73"/><path fill="none" stroke="#7F7F7F" stroke-miterlimit="10" stroke-width=".199" d="m43.422 34.023-8.508-14.73"/><use xlink:href="#a" x="37.692" y="17.591"/><use xlink:href="#C" x="43.421" y="17.591"/><path fill="none" stroke="#000" stroke-miterlimit="10" stroke-width=".399" d="m43.422 4.563 8.504 14.73"/><path fill="none" stroke="#7F7F7F" stroke-miterlimit="10" stroke-width=".199" d="M51.926 19.293H34.914"/><use xlink:href="#n" x="34.83" y="16.039"/><use xlink:href="#D" x="37.694" y="11.078"/><path fill="none" stroke="#7F7F7F" stroke-miterlimit="10" stroke-width=".199" d="M26.41 4.563h17.008"/><path fill="none" stroke="#000" stroke-miterlimit="10" stroke-width=".399" d="m26.41 4.563 8.504-3.403 8.504 3.403"/><path fill="none" stroke="#7F7F7F" stroke-miterlimit="10" stroke-width=".199" d="m43.422 4.563-8.508 14.73"/><use xlink:href="#E" x="32.055" y="17.741"/><use xlink:href="#F" x="29.191" y="12.78"/><path fill="none" stroke="#7F7F7F" stroke-miterlimit="10" stroke-width=".199" d="m17.906 19.293 8.504-14.73"/><path fill="none" stroke="#000" stroke-miterlimit="10" stroke-width=".399" d="m17.906 19.293 1.309-9.066 7.195-5.664"/><path fill="none" stroke="#7F7F7F" stroke-miterlimit="10" stroke-width=".199" d="m26.41 4.563 8.504 14.73"/><path fill="none" stroke="#000" stroke-miterlimit="10" stroke-width=".399" d="M34.914 19.293H17.906"/><path fill="none" stroke="#7F7F7F" stroke-miterlimit="10" stroke-width=".199" d="M43.422 34.023H26.41M26.41 34.023l8.504-14.73"/><path fill="none" stroke="#000" stroke-miterlimit="10" stroke-width=".399" d="m26.41 34.023 1.309-9.066 7.195-5.664"/><path fill="none" stroke="#7F7F7F" stroke-miterlimit="10" stroke-width=".199" d="m43.422 34.023-8.508 14.73M34.914 48.754l-8.504-14.73"/><path fill="none" stroke="#000" stroke-miterlimit="10" stroke-width=".399" d="M34.914 48.754 27.72 43.09l-1.309-9.067"/></svg>