<?xml version="1.0" encoding="UTF-8"?>
<svg xmlns="http://www.w3.org/2000/svg" xmlns:xlink="http://www.w3.org/1999/xlink" width="73.442pt" height="15.068pt" viewBox="0 0 73.442 15.068" version="1.2">
<defs>
<clipPath id="clip1">
  <path d="M 0 0 L 24 0 L 24 14.601562 L 0 14.601562 Z M 0 0 "/>
</clipPath>
<clipPath id="clip2">
  <path d="M 16 0 L 73.164062 0 L 73.164062 14.601562 L 16 14.601562 Z M 16 0 "/>
</clipPath>
<clipPath id="clip3">
  <path d="M 20 0 L 60 0 L 60 14.601562 L 20 14.601562 Z M 20 0 "/>
</clipPath>
<clipPath id="clip4">
  <path d="M 13 0 L 53 0 L 53 14.601562 L 13 14.601562 Z M 13 0 "/>
</clipPath>
</defs>
<g id="surface1">
<g clip-path="url(#clip1)" clip-rule="nonzero">
<path style="fill:none;stroke-width:0.3985;stroke-linecap:butt;stroke-linejoin:miter;stroke:rgb(0%,0%,0%);stroke-opacity:1;stroke-miterlimit:10;" d="M -0.0005 0.001625 C -0.0005 5.501625 4.460438 9.962562 9.964344 9.962562 C 12.479969 9.962562 14.866688 9.013344 16.675281 7.361 " transform="matrix(1,0,0,-1,0.938,12.861)"/>
</g>
<path style="fill-rule:nonzero;fill:rgb(0%,0%,0%);fill-opacity:1;stroke-width:0.3985;stroke-linecap:butt;stroke-linejoin:miter;stroke:rgb(0%,0%,0%);stroke-opacity:1;stroke-miterlimit:10;" d="M 4.214399 -0.00171076 L 0.642993 1.345985 L 1.818445 0.000435794 L 0.642469 -1.34407 Z M 4.214399 -0.00171076 " transform="matrix(0.63327,0.77385,0.77385,-0.63327,16.50044,4.17901)"/>
<g clip-path="url(#clip2)" clip-rule="nonzero">
<path style="fill:none;stroke-width:1.19553;stroke-linecap:butt;stroke-linejoin:miter;stroke:rgb(0%,0%,0%);stroke-opacity:1;stroke-miterlimit:10;" d="M 32.565906 2.966469 L 42.519031 9.962562 L 56.694813 0.001625 L 70.866688 9.962562 " transform="matrix(1,0,0,-1,0.938,12.861)"/>
</g>
<path style=" stroke:none;fill-rule:nonzero;fill:rgb(0%,0%,0%);fill-opacity:1;" d="M 37.523438 7.070312 L 42.429688 5.816406 L 40.105469 5.253906 L 40.367188 2.878906 Z M 37.523438 7.070312 "/>
<g clip-path="url(#clip3)" clip-rule="nonzero">
<path style="fill:none;stroke-width:1.19553;stroke-linecap:butt;stroke-linejoin:miter;stroke:rgb(0%,0%,0%);stroke-opacity:1;stroke-miterlimit:10;" d="M 6.666854 0.000384485 L 1.931724 1.796054 L 3.50978 -0.000791833 L 1.929813 -1.793372 Z M 6.666854 0.000384485 " transform="matrix(-0.81807,0.57504,0.57504,0.81807,42.97717,3.23629)"/>
</g>
<path style=" stroke:none;fill-rule:nonzero;fill:rgb(0%,0%,0%);fill-opacity:1;" d="M 30.675781 11.882812 L 35.585938 10.628906 L 33.257812 10.066406 L 33.519531 7.691406 Z M 30.675781 11.882812 "/>
<g clip-path="url(#clip4)" clip-rule="nonzero">
<path style="fill:none;stroke-width:1.19553;stroke-linecap:butt;stroke-linejoin:miter;stroke:rgb(0%,0%,0%);stroke-opacity:1;stroke-miterlimit:10;" d="M 6.66814 -0.000336023 L 1.929814 1.79758 L 3.511066 -0.00151234 L 1.931099 -1.794092 Z M 6.66814 -0.000336023 " transform="matrix(-0.81807,0.57504,0.57504,0.81807,36.13098,8.04864)"/>
</g>
</g>
</svg>
