<svg xmlns="http://www.w3.org/2000/svg" xmlns:xlink="http://www.w3.org/1999/xlink" width="229.556" height="104.801"><defs><path id="a" d="M5.563-1.812c.14 0 .312 0 .312-.172 0-.188-.172-.188-.312-.188H1c-.125 0-.297 0-.297.188 0 .172.172.172.297.172Zm0 0"/><path id="b" d="M2.5-5.078c0-.219-.016-.219-.234-.219-.328.313-.75.5-1.5.5v.266c.218 0 .64 0 1.109-.203v4.078c0 .297-.031.39-.781.39H.812V0c.329-.031 1.016-.031 1.376-.031s1.046 0 1.374.031v-.266h-.28c-.75 0-.782-.093-.782-.39Zm0 0"/><path id="c" d="M3.89-2.547c0-.844-.078-1.36-.343-1.875-.344-.703-1-.875-1.438-.875-1 0-1.375.75-1.484.969C.344-3.75.328-2.953.328-2.547c0 .531.016 1.328.406 1.969.36.594.954.75 1.375.75.391 0 1.063-.125 1.47-.906.296-.578.312-1.297.312-1.813M2.11-.062c-.266 0-.813-.125-.985-.954-.094-.453-.094-1.203-.094-1.625 0-.546 0-1.109.094-1.546.172-.813.781-.891.984-.891.266 0 .829.14.985.86.094.437.094 1.046.094 1.577 0 .47 0 1.188-.094 1.641-.172.828-.719.938-.985.938m0 0"/><path id="d" d="M2.25-1.625c.125-.125.453-.39.594-.5.484-.453.953-.89.953-1.61 0-.953-.797-1.562-1.781-1.562-.97 0-1.594.719-1.594 1.438 0 .39.312.437.422.437.172 0 .422-.11.422-.422 0-.406-.407-.406-.5-.406.234-.594.765-.781 1.156-.781.734 0 1.125.625 1.125 1.297 0 .828-.578 1.437-1.531 2.39l-1 1.047C.422-.219.422-.203.422 0h3.14l.235-1.422h-.25c-.016.156-.078.547-.172.703-.047.063-.656.063-.781.063H1.172Zm0 0"/><path id="e" d="M2.016-2.656c.625 0 1.03.453 1.03 1.297 0 1-.562 1.28-.983 1.28-.438 0-1.047-.155-1.329-.577.297 0 .5-.188.5-.438 0-.265-.187-.437-.453-.437-.203 0-.437.125-.437.453 0 .75.812 1.25 1.734 1.25 1.047 0 1.797-.734 1.797-1.531 0-.672-.531-1.266-1.344-1.453.625-.22 1.11-.75 1.11-1.391 0-.64-.72-1.094-1.547-1.094-.86 0-1.5.453-1.5 1.063 0 .297.187.422.406.422.25 0 .406-.172.406-.407 0-.297-.265-.406-.437-.406.344-.437.953-.469 1.094-.469.203 0 .812.063.812.89 0 .548-.234.891-.344 1.016-.234.25-.422.266-.906.297-.156 0-.219.016-.219.125 0 .11.078.11.219.11Zm0 0"/><path id="f" d="M3.14-5.156c0-.157 0-.219-.171-.219-.094 0-.11 0-.188.11L.234-1.564v.25h2.25v.672c0 .297-.015.375-.64.375h-.172V0c.672-.031.687-.031 1.14-.031.454 0 .47 0 1.141.031v-.266h-.172c-.625 0-.64-.078-.64-.375v-.671h.843v-.25h-.843Zm-.593.64v2.954H.516Zm0 0"/><path id="h" d="M1.11-4.484c.109.03.421.125.765.125 1 0 1.594-.703 1.594-.828 0-.094-.047-.11-.094-.11-.016 0-.031 0-.094.031a3 3 0 0 1-1.11.22c-.468 0-.858-.11-1.108-.22-.079-.03-.094-.03-.11-.03-.094 0-.094.077-.094.234v2.328c0 .14 0 .234.125.234.063 0 .079-.031.125-.094.094-.11.391-.515 1.079-.515.437 0 .656.359.734.515.125.281.14.656.14.953s0 .735-.218 1.079c-.156.25-.485.484-.906.484A1.27 1.27 0 0 1 .734-.922c.016.016.079.016.079.016.218 0 .406-.14.406-.39a.39.39 0 0 0-.39-.407c-.157 0-.407.078-.407.422 0 .718.625 1.453 1.531 1.453 1 0 1.844-.781 1.844-1.766 0-.922-.672-1.75-1.61-1.75-.39 0-.765.125-1.078.406Zm0 0"/><path id="g" d="M1.625-.437a.463.463 0 0 0-.453-.454.447.447 0 0 0-.438.438.44.44 0 0 0 .438.453.45.45 0 0 0 .453-.437m0 0"/><path id="i" d="M3.078-3.781c0-.156 0-.235-.094-.235-.046 0-.062 0-.187.11-.016.015-.094.094-.156.14-.266-.203-.547-.25-.86-.25-1.187 0-1.468.657-1.468 1.11 0 .281.125.515.328.719.297.28.64.343 1.093.421.47.094.61.11.813.266.094.078.312.25.312.578 0 .797-.906.797-1.03.797-.907 0-1.141-.766-1.25-1.25-.032-.094-.048-.14-.141-.14-.125 0-.125.077-.125.234v1.14c0 .157 0 .235.093.235.063 0 .063 0 .235-.172a1.2 1.2 0 0 1 .172-.219c.375.375.796.39 1.015.39 1.11 0 1.485-.64 1.485-1.234 0-.406-.172-.656-.376-.859-.296-.297-.624-.36-1.28-.484-.235-.047-.891-.157-.891-.672 0-.281.203-.672 1.015-.672.969 0 1.032.75 1.047.969.016.109.016.172.125.172.125 0 .125-.063.125-.235Zm0 0"/><path id="j" d="m1.656-3.969-1.297.11v.265c.579 0 .657.063.657.5v2.407c0 .406-.094.406-.688.406V0c.39-.016.594-.031.984-.031.141 0 .516 0 .954.031v-.281c-.578 0-.61-.047-.61-.39Zm.016-1.562a.477.477 0 0 0-.484-.485.497.497 0 0 0-.485.485c0 .265.219.484.485.484a.47.47 0 0 0 .484-.484m0 0"/><path id="k" d="M1.672-2.328c0-.953.672-1.406 1.234-1.406.531 0 .64.437.64.968v2.079c0 .406-.093.406-.687.406V0c.422-.016.594-.031 1.032-.031.422 0 .547.015 1.015.031v-.281c-.453 0-.687 0-.687-.281v-1.72c0-.734 0-1-.25-1.312-.203-.25-.547-.375-1-.375-.828 0-1.219.625-1.344.875h-.016v-.875l-1.296.11v.265c.609 0 .687.063.687.516v2.39C1-.28.906-.28.313-.28V0c.421-.016.593-.031 1.03-.031.423 0 .548.015 1.016.031v-.281c-.593 0-.687 0-.687-.406Zm0 0"/><path id="m" d="M3.266-3.531c-.188.047-.375.172-.375.422a.42.42 0 0 0 .422.422c.234 0 .421-.157.421-.438 0-.547-.625-.89-1.421-.89-1.141 0-2 .952-2 2.077C.313-.78 1.234.095 2.297.095c1.25 0 1.531-1.078 1.531-1.156 0-.11-.094-.11-.125-.11-.094 0-.094.016-.156.172-.203.61-.703.844-1.156.844-.578 0-1.313-.469-1.313-1.797 0-1.39.719-1.813 1.25-1.813.125 0 .61.016.938.235m0 0"/><path id="n" d="M4.344-1.906c0-1.172-.938-2.11-2.032-2.11-1.14 0-2.046.954-2.046 2.11 0 1.11.922 2 2.03 2 1.142 0 2.048-.906 2.048-2M2.312-.156c-.453 0-.828-.219-1.03-.563-.235-.39-.25-.86-.25-1.265 0-.344 0-.844.218-1.22a1.22 1.22 0 0 1 1.047-.593c.515 0 .875.297 1.062.594.204.375.204.828.204 1.219 0 .328 0 .843-.22 1.234a1.18 1.18 0 0 1-1.03.594m0 0"/><path id="o" d="M2.922-3.594v-.265H1.609v-1.657h-.25c0 .75-.312 1.672-1.187 1.704v.218h.781v2.485c0 1 .719 1.203 1.203 1.203.594 0 .906-.563.906-1.203v-.516h-.25v.484c0 .672-.28.985-.593.985-.61 0-.61-.781-.61-.953v-2.485Zm0 0"/><path id="p" d="M3.063-.64c.046.374.312.687.703.687.218 0 .78-.125.78-.844v-.5h-.25v.484c0 .11 0 .547-.327.547-.313 0-.313-.421-.313-.562v-1.578c0-.516 0-.813-.406-1.188-.328-.297-.766-.422-1.219-.422-.75 0-1.375.375-1.375.954 0 .265.188.421.422.421a.394.394 0 0 0 .406-.406c0-.39-.39-.437-.406-.437.25-.235.688-.313.938-.313.453 0 .968.344.968 1.14v.282c-.484.031-1.156.063-1.75.36-.656.312-.843.78-.843 1.14 0 .734.859.969 1.468.969.735 0 1.079-.485 1.204-.735m-.079-.626c0 .875-.671 1.141-1.062 1.141-.422 0-.813-.312-.813-.75 0-.594.5-1.219 1.875-1.281Zm0 0"/><path id="l" d="M4.406-3.625a.504.504 0 0 0-.422.484c0 .172.125.329.344.329.25 0 .5-.22.5-.532 0-.422-.453-.625-.875-.625-.531 0-.844.485-.953.672a1.04 1.04 0 0 0-1-.672c-.953 0-1.484 1.156-1.484 1.39 0 .079.062.11.125.11.078 0 .109-.047.125-.11.28-.89.875-1.155 1.218-1.155.266 0 .485.172.485.593 0 .313-.375 1.75-.5 2.188-.063.265-.344.828-.828.828-.188 0-.375-.062-.453-.11.234-.046.421-.265.421-.484 0-.234-.171-.328-.343-.328-.266 0-.5.219-.5.531 0 .438.484.61.859.61.531 0 .828-.422.969-.672.219.594.75.672.984.672.969 0 1.485-1.156 1.485-1.375 0-.047-.032-.11-.11-.11-.11 0-.11.032-.156.172-.203.64-.719 1.094-1.188 1.094-.25 0-.5-.156-.5-.594 0-.203.125-.687.204-1.031.046-.156.28-1.125.296-1.187.11-.329.375-.797.844-.797.156 0 .328.015.453.109m0 0"/></defs><path fill="none" stroke="#BFBFBF" stroke-miterlimit="10" stroke-width=".399" d="M27.117 76.797h141.735M27.117 60.887h141.735M27.117 44.977h141.735M27.117 29.066h141.735M27.117 13.156h141.735"/><path fill="none" stroke="#7F7F7F" stroke-linecap="round" stroke-miterlimit="10" stroke-width=".399" d="M41.64 95.75v-1.992M67.086 95.75v-1.992M92.531 95.75v-1.992M117.973 95.75v-1.992M143.418 95.75v-1.992M168.863 95.75v-1.992M20.145 76.797h1.992M20.145 60.887h1.992M20.145 44.977h1.992M20.145 29.066h1.992M20.145 13.156h1.992"/><path fill="none" stroke="#7F7F7F" stroke-miterlimit="10" stroke-width=".399" d="M27.117 93.758h141.735"/><path fill="none" stroke="#BFBFBF" stroke-linecap="square" stroke-miterlimit="10" stroke-width=".399" d="M27.117 88.773h141.735M27.117 1.184h141.735"/><path fill="none" stroke="#7F7F7F" stroke-miterlimit="10" stroke-width=".399" d="M22.137 88.773V1.183"/><path fill="none" stroke="#BFBFBF" stroke-linecap="square" stroke-miterlimit="10" stroke-width=".399" d="M27.117 88.773V1.183M168.852 88.773V1.183"/><path fill="none" stroke="#00C" stroke-dasharray="0.89665 0.89665" stroke-miterlimit="10" stroke-width=".598" d="M43.105 88.773s1.446-4.878 2-6.543c.555-1.66 1.442-4.035 1.997-5.433a113 113 0 0 1 2-4.645 107 107 0 0 1 1.996-4.058 108 108 0 0 1 2-3.617c.554-.961 1.445-2.41 1.996-3.29.554-.874 1.445-2.218 2-3.03a149 149 0 0 1 2-2.844c.554-.77 1.441-1.965 1.996-2.7.555-.734 1.445-1.886 2-2.597s1.441-1.836 1.996-2.536c.555-.699 1.445-1.808 2-2.503s1.441-1.805 1.996-2.504 1.445-1.82 2-2.535c.555-.711 1.445-1.864 2-2.598.55-.735 1.441-1.934 1.996-2.7a149 149 0 0 0 2-2.843c.555-.813 1.442-2.156 1.996-3.031a121 121 0 0 0 2-3.286 108 108 0 0 0 1.996-3.62 110 110 0 0 0 2-4.055c.555-1.211 1.442-3.246 1.996-4.645a124 124 0 0 0 2-5.437c.555-1.66 2-6.54 2-6.54"/><path fill="none" stroke="#C00" stroke-dasharray="2.98885 1.19554" stroke-miterlimit="10" stroke-width=".598" d="M27.117 44.977s4.27-5.344 5.906-7.32c1.641-1.977 4.27-5.11 5.907-6.927 1.64-1.816 4.265-4.605 5.906-6.164 1.637-1.558 4.266-3.851 5.906-5.066 1.637-1.219 4.266-2.89 5.906-3.703 1.637-.809 4.266-1.777 5.903-2.137 1.64-.36 4.27-.566 5.906-.457 1.64.11 4.27.676 5.906 1.246 1.64.574 4.266 1.88 5.907 2.883 1.636 1.008 4.265 2.98 5.906 4.367 1.636 1.383 4.265 3.926 5.906 5.613 1.637 1.692 4.266 4.66 5.902 6.563 1.641 1.902 4.27 5.14 5.907 7.156 1.64 2.016 4.265 5.348 5.906 7.367 1.64 2.02 4.266 5.274 5.906 7.188 1.637 1.914 4.266 4.906 5.906 6.613 1.637 1.707 4.266 4.285 5.907 5.692 1.636 1.41 4.265 3.43 5.902 4.464 1.64 1.036 4.27 2.387 5.906 2.993 1.64.605 4.266 1.226 5.906 1.367 1.641.144 4.266-.008 5.907-.336 1.636-.328 4.265-1.242 5.906-2.024 1.637-.777 4.266-2.402 5.906-3.593 1.637-1.192 5.903-4.98 5.903-4.98"/><path fill="none" stroke="#000" stroke-miterlimit="10" stroke-width=".598" d="M27.117 76.793s4.27-.387 5.906-.852c1.641-.468 4.27-1.605 5.907-2.515 1.64-.91 4.265-2.739 5.906-4.04 1.637-1.3 4.266-3.722 5.906-5.347 1.637-1.629 4.266-4.512 5.906-6.371 1.637-1.863 4.266-5.055 5.903-7.055 1.64-1.996 4.27-5.324 5.906-7.351 1.64-2.028 4.27-5.313 5.906-7.262 1.64-1.95 4.266-5.02 5.907-6.781 1.636-1.766 4.265-4.453 5.906-5.938 1.636-1.484 4.265-3.644 5.906-4.77 1.637-1.128 4.266-2.644 5.902-3.355 1.641-.707 4.27-1.504 5.907-1.754 1.64-.254 4.265-.28 5.906-.062 1.64.219 4.266.96 5.906 1.637 1.637.68 4.266 2.148 5.906 3.246 1.637 1.097 4.266 3.215 5.907 4.68 1.636 1.46 4.265 4.117 5.902 5.863 1.64 1.746 4.27 4.793 5.906 6.734 1.64 1.938 4.266 5.215 5.906 7.238 1.641 2.028 4.266 5.356 5.907 7.36 1.636 2.007 4.265 5.21 5.906 7.086 1.637 1.875 4.266 4.789 5.906 6.433 1.637 1.645 5.903 5.43 5.903 5.43"/><use xlink:href="#a" x="36.232" y="103.54"/><use xlink:href="#b" x="42.818" y="103.54"/><use xlink:href="#c" x="64.969" y="103.54"/><use xlink:href="#b" x="90.412" y="103.54"/><use xlink:href="#d" x="115.856" y="103.54"/><use xlink:href="#e" x="141.3" y="103.54"/><use xlink:href="#f" x="166.743" y="103.54"/><use xlink:href="#a" x="6.669" y="78.948"/><use xlink:href="#b" x="13.255" y="78.948"/><use xlink:href="#a" x=".082" y="63.038"/><use xlink:href="#c" x="6.669" y="63.038"/><use xlink:href="#g" x="10.903" y="63.038"/><use xlink:href="#h" x="13.255" y="63.038"/><use xlink:href="#c" x="13.255" y="47.544"/><use xlink:href="#c" x="6.669" y="31.634"/><use xlink:href="#g" x="10.903" y="31.634"/><use xlink:href="#h" x="13.255" y="31.634"/><use xlink:href="#b" x="13.255" y="15.726"/><use xlink:href="#i" x="208.665" y="44.559"/><use xlink:href="#j" x="212.3" y="44.559"/><use xlink:href="#k" x="214.86" y="44.559"/><use xlink:href="#l" x="221.515" y="44.559"/><path fill="none" stroke="#000" stroke-miterlimit="10" stroke-width=".598" d="M183.762 42.348s2.91-1.512 4.98-1.328c2.074.183 7.89 2.468 9.965 2.652 2.074.187 4.98-1.324 4.98-1.324"/><use xlink:href="#m" x="208.665" y="55.517"/><use xlink:href="#n" x="212.761" y="55.517"/><use xlink:href="#i" x="217.369" y="55.517"/><use xlink:href="#l" x="222.539" y="55.517"/><path fill="none" stroke="#C00" stroke-dasharray="2.98885 1.19554" stroke-miterlimit="10" stroke-width=".598" d="M183.762 53.305s2.91-1.512 4.98-1.328c2.074.187 7.89 2.472 9.965 2.656 2.074.183 4.98-1.328 4.98-1.328"/><use xlink:href="#o" x="208.665" y="66.477"/><use xlink:href="#p" x="212.249" y="66.477"/><use xlink:href="#k" x="216.857" y="66.477"/><use xlink:href="#l" x="223.512" y="66.477"/><path fill="none" stroke="#00C" stroke-dasharray="0.89665 0.89665" stroke-miterlimit="10" stroke-width=".598" d="M183.762 64.266s2.91-1.512 4.98-1.329c2.074.184 7.89 2.47 9.965 2.653 2.074.187 4.98-1.324 4.98-1.324"/></svg>