<svg xmlns="http://www.w3.org/2000/svg" xmlns:xlink="http://www.w3.org/1999/xlink" width="76.358" height="52.329"><defs><path id="a" d="M5.719-2.031c0-1.094-.797-1.906-1.719-2.094l-1.437-.312c-.407-.094-.954-.422-.954-1.032 0-.437.282-1.047 1.266-1.047.797 0 1.813.329 2.047 1.688.031.25.031.266.234.266.25 0 .25-.047.25-.282v-1.828c0-.187 0-.281-.187-.281-.078 0-.078.016-.188.11l-.453.437C4-6.86 3.344-6.953 2.875-6.953c-1.516 0-2.234.969-2.234 2.016 0 .64.328 1.093.53 1.312.5.5.829.563 1.923.797.875.203 1.047.219 1.265.437.141.141.391.407.391.86 0 .484-.25 1.172-1.297 1.172-.75 0-2.265-.203-2.344-1.688-.015-.172-.015-.219-.234-.219-.234 0-.234.047-.234.282v1.812C.64.016.64.11.813.11.906.11.922.094 1 .016l.469-.453c.656.484 1.578.546 1.984.546C5.11.11 5.72-1.016 5.72-2.03m0 0"/><path id="b" d="M6.125 0v-.469h-.687v-2.578c0-1.047-.532-1.437-1.532-1.437a1.9 1.9 0 0 0-1.687.953v-3.39l-1.766.077v.469c.61 0 .688 0 .688.39v5.516H.453V0l1.25-.031L2.953 0v-.469h-.687v-2.078c0-1.094.859-1.578 1.5-1.578.328 0 .547.203.547.969V-.47h-.688V0l1.25-.031Zm0 0"/><path id="c" d="M4.922-1.172c0-.172-.188-.172-.234-.172-.172 0-.188.047-.25.203-.204.485-.782.797-1.422.797-1.407 0-1.422-1.328-1.422-1.828h3.015c.22 0 .313 0 .313-.265 0-.313-.063-1.047-.563-1.547-.359-.36-.89-.532-1.578-.532C1.187-4.516.313-3.484.313-2.25c0 1.344 1 2.313 2.609 2.313 1.578 0 2-1.063 2-1.235M3.984-2.5h-2.39c.015-.39.031-.812.234-1.14.266-.391.672-.516.953-.516 1.172 0 1.188 1.312 1.203 1.656m0 0"/><path id="d" d="M5.984-2.219c0-1.328-.906-2.265-2.343-2.265-.75 0-1.282.312-1.5.484v-.484l-1.766.078v.468c.61 0 .688 0 .688.376v5.03H.375v.47l1.25-.032 1.25.032v-.47h-.687V-.39a2 2 0 0 0 1.28.454c1.5 0 2.516-.907 2.516-2.282m-1.28 0C4.703-.813 4-.297 3.358-.297c-.14 0-.609 0-1.062-.547-.11-.125-.11-.14-.11-.328v-2.11c0-.187.016-.202.157-.343.39-.406.922-.469 1.14-.469.657 0 1.22.61 1.22 1.875m0 0"/><path id="f" d="M6.125 0v-.469h-.687v-2.578c0-1.047-.532-1.437-1.532-1.437-.953 0-1.484.562-1.75 1.078v-1.078l-1.703.078v.468c.61 0 .688 0 .688.391v3.078H.453V0l1.25-.031L2.953 0v-.469h-.687v-2.078c0-1.094.859-1.578 1.5-1.578.328 0 .547.203.547.969V-.47h-.688V0l1.25-.031Zm0 0"/><path id="g" d="M5.516-.234c0-.235-.125-.235-.266-.235-.61-.015-.61-.14-.61-.375v-2.14c0-.891-.702-1.532-2.187-1.532-.562 0-1.781.047-1.781.922 0 .438.344.625.61.625.312 0 .624-.219.624-.625 0-.297-.187-.469-.218-.5a5 5 0 0 1 .718-.062c.75 0 1.11.422 1.11 1.172v.343c-.72.032-3.25.125-3.25 1.563C.266-.125 1.5.062 2.188.062c.796 0 1.265-.406 1.484-.828 0 .313 0 .766 1.047.766h.468c.204 0 .329 0 .329-.234m-2-1.157c0 .97-.922 1.094-1.172 1.094-.516 0-.906-.344-.906-.797 0-1.062 1.578-1.203 2.078-1.234Zm0 0"/><path id="h" d="M9.328 0v-.469h-.687v-2.578c0-1.031-.516-1.437-1.547-1.437-.907 0-1.422.5-1.688.953-.187-.922-1.11-.953-1.484-.953-.875 0-1.438.453-1.766 1.078v-1.078l-1.703.078v.468c.61 0 .688 0 .688.391v3.078H.453V0l1.25-.031L2.953 0v-.469h-.687v-2.078c0-1.094.875-1.578 1.5-1.578.328 0 .547.203.547.969V-.47h-.688V0l1.266-.031L6.14 0v-.469h-.688v-2.078c0-1.094.86-1.578 1.484-1.578.344 0 .563.203.563.969V-.47h-.687V0l1.25-.031Zm0 0"/><path id="j" d="M4.766-1.172c0-.14-.141-.14-.235-.14-.187 0-.187.03-.25.156-.25.625-.734.812-1.234.812-1.39 0-1.39-1.453-1.39-1.922 0-.562 0-1.843 1.28-1.843.36 0 .516.015.657.046a.62.62 0 0 0-.203.47c0 .437.343.624.609.624.313 0 .64-.219.64-.625 0-.86-1.156-.922-1.734-.922C1.11-4.516.375-3.375.375-2.219.375-.89 1.313.063 2.844.063c1.625 0 1.922-1.157 1.922-1.235m0 0"/><path id="k" d="M5.406-2.172c0-1.344-.922-2.344-2.547-2.344C1.22-4.516.313-3.5.313-2.172c0 1.235.89 2.235 2.546 2.235 1.672 0 2.547-1.016 2.547-2.235m-1.281-.11c0 .86 0 1.938-1.266 1.938-1.265 0-1.265-1.078-1.265-1.937 0-.453 0-.953.172-1.297.187-.375.609-.578 1.093-.578.422 0 .844.156 1.063.5.203.344.203.89.203 1.375m0 0"/><path id="l" d="M2.922 0v-.469h-.688v-6.453L.47-6.844v.469c.625 0 .687 0 .687.39v5.516H.47V0l1.219-.031Zm0 0"/><path id="m" d="M4.406-3.672c0-.531-.531-.812-1.062-.812-.688 0-1.094.5-1.313 1.125v-1.125l-1.656.078v.468c.61 0 .688 0 .688.391v3.078H.375V0l1.25-.031C2-.031 2.641-.031 3 0v-.469h-.86v-1.75c0-.687.235-1.906 1.235-1.906 0 0-.187.172-.187.453 0 .406.328.61.609.61.297 0 .61-.204.61-.61m0 0"/><clipPath id="e"><path d="M0 26h54v25.992H0Zm0 0"/></clipPath><clipPath id="i"><path d="M25 25h51.035v26.992H25Zm0 0"/></clipPath></defs><path fill="none" stroke="#000" stroke-miterlimit="10" stroke-width=".399" d="M14.754 24.773h47.824V.863H14.754Zm0 0"/><use xlink:href="#a" x="23.867" y="15.325"/><use xlink:href="#b" x="30.233" y="15.325"/><use xlink:href="#c" x="36.599" y="15.325"/><use xlink:href="#c" x="41.85" y="15.325"/><use xlink:href="#d" x="47.1" y="15.325"/><g clip-path="url(#e)"><path fill="none" stroke="#000" stroke-miterlimit="10" stroke-width=".399" d="M48.09 41.168c0-4.953-10.567-8.969-23.598-8.969S.895 36.215.895 41.168c0 4.95 10.566 8.965 23.597 8.965s23.598-4.016 23.598-8.965Zm0 0"/></g><use xlink:href="#f" x="11.128" y="43.394"/><use xlink:href="#g" x="17.494" y="43.394"/><use xlink:href="#h" x="23.063" y="43.394"/><use xlink:href="#c" x="32.607" y="43.394"/><path fill="none" stroke="#000" stroke-miterlimit="10" stroke-width=".399" d="m32.59 24.973-3.598 7.195"/><g clip-path="url(#i)"><path fill="none" stroke="#000" stroke-miterlimit="10" stroke-width=".399" d="M74.824 41.168c0-5.32-9.844-9.629-21.984-9.629s-21.985 4.309-21.985 9.629c0 5.316 9.844 9.625 21.985 9.625s21.984-4.309 21.984-9.625Zm0 0"/></g><use xlink:href="#j" x="40.615" y="44.593"/><use xlink:href="#k" x="45.706" y="44.593"/><use xlink:href="#l" x="51.434" y="44.593"/><use xlink:href="#k" x="54.613" y="44.593"/><use xlink:href="#m" x="60.341" y="44.593"/><path fill="none" stroke="#000" stroke-miterlimit="10" stroke-width=".399" d="m44.742 24.973 3.301 6.601"/></svg>