<svg xmlns="http://www.w3.org/2000/svg" width="87.356" height="58.898"><defs><clipPath id="a"><path d="M0 7h87v51.848H0Zm0 0"/></clipPath></defs><path fill="none" stroke="#7F7F7F" stroke-miterlimit="10" stroke-width=".199" d="M.895 57.734h85.039M.894 29.387h85.04M.894 1.05h85.04M.894 57.734V1.04m28.348 56.695V1.04M57.59 57.734V1.04m28.336 56.695V1.04"/><g clip-path="url(#a)"><path fill="none" stroke="#000" stroke-miterlimit="10" stroke-width=".399" d="m.895 57.734.015-1.351.05-1.348.083-1.347.121-1.34.152-1.344.192-1.332.23-1.332.27-1.32.308-1.313.348-1.305.387-1.293.43-1.277.472-1.266.516-1.246.554-1.23.594-1.207.64-1.192.68-1.164.72-1.14.761-1.114.816-1.109-1.218-2.504 5.492 1.277-1.875-5.16 5.277 1.98-1.195-5.362 4.984 2.636-.52-5.472 4.622 3.222.137-5.5 4.214 3.739.762-5.454 3.77 4.184 1.355-5.34 3.293 4.563 1.918-5.168 2.797 4.883 2.441-4.938 2.274 5.145 2.945-4.657 1.723 5.356 3.422-4.317 1.136 5.512 1.871-1.98 1.778.668 1.242.523 1.23.559 1.207.597 1.188.633 1.168.676 1.148.71 1.121.755 1.094.785 1.067.824 1.039.86 1.007.898.977.93.945.968.907.996.875 1.032.832 1.058.796 1.09.758 1.117.719 1.145.676 1.164.648 1.219"/></g></svg>