<svg xmlns="http://www.w3.org/2000/svg" xmlns:xlink="http://www.w3.org/1999/xlink" width="63.298" height="73.298"><defs><clipPath id="c"><path d="M9 37h45v35.945H9Zm0 0"/></clipPath><clipPath id="d"><path d="M47 14h15.945v2H47Zm0 0"/></clipPath><clipPath id="e"><path d="M47 57h15.945v1H47Zm0 0"/></clipPath><path id="a" d="M6.719-3.234c.14-.063.203-.125.203-.22 0-.093-.047-.155-.203-.218l-5.5-2.594c-.125-.078-.172-.078-.188-.078a.197.197 0 0 0-.203.203c0 .125.078.172.188.22L6.25-3.454 1.031-1c-.187.094-.203.172-.203.234 0 .11.094.204.203.204.032 0 .047 0 .172-.079Zm-.157 4.593c.172 0 .36 0 .36-.187 0-.203-.219-.203-.36-.203H1.189c-.157 0-.36 0-.36.203 0 .187.172.187.344.187Zm0 0"/><path id="b" d="M2.938-6.375c0-.25 0-.266-.235-.266C2.078-6 1.203-6 .891-6v.313c.203 0 .78 0 1.297-.266v5.172c0 .36-.032.469-.922.469H.953V0c.344-.031 1.203-.031 1.61-.031.39 0 1.265 0 1.609.031v-.312h-.313c-.906 0-.921-.11-.921-.47Zm0 0"/></defs><path fill="none" stroke="#000" stroke-miterlimit="10" stroke-width=".399" d="M15.031 29.21H43.38V.868H15.03Zm32.532-14.17a1.993 1.993 0 1 0-3.987 0 1.993 1.993 0 0 0 3.986 0Zm0 0"/><use xlink:href="#a" x="21.455" y="10.607"/><use xlink:href="#b" x="31.971" y="10.607"/><g clip-path="url(#c)"><path fill="none" stroke="#000" stroke-miterlimit="10" stroke-width=".399" d="M15.031 71.73H43.38V43.387H15.03ZM47.563 57.56a1.993 1.993 0 1 0-3.987.001 1.993 1.993 0 0 0 3.986-.001Zm0 0"/></g><use xlink:href="#a" x="24.559" y="67.057"/><use xlink:href="#b" x="35.075" y="67.057"/><path fill="none" stroke="#000" stroke-miterlimit="10" stroke-width=".399" d="M.656 10.246h14.176M.656 19.828h14.176"/><g clip-path="url(#d)"><path fill="none" stroke="#000" stroke-miterlimit="10" stroke-width=".399" d="M47.762 15.04h14.172"/></g><path fill="none" stroke="#000" stroke-miterlimit="10" stroke-width=".399" d="M.656 52.77h14.176M.656 62.352h14.176"/><g clip-path="url(#e)"><path fill="none" stroke="#000" stroke-miterlimit="10" stroke-width=".399" d="M47.762 57.559h14.172"/></g></svg>