<svg xmlns="http://www.w3.org/2000/svg" width="87.446" height="58.898"><defs><clipPath id="a"><path d="M0 9h87.168v41H0Zm0 0"/></clipPath></defs><path fill="none" stroke="#7F7F7F" stroke-miterlimit="10" stroke-width=".199" d="M.914 57.742h85.043M.914 29.395h85.043M.914 1.059h85.043M.914 57.742V1.047m28.348 56.695V1.047m28.347 56.695V1.047m28.336 56.695V1.047"/><g clip-path="url(#a)"><path fill="none" stroke="#000" stroke-miterlimit="10" stroke-width=".399" d="M85.957 29.395c0-3.18-3.332-6.352-9.277-8.836-5.95-2.485-14.48-4.274-23.782-4.98-9.3-.708-19.312-.333-27.91 1.046-8.593 1.379-15.718 3.758-19.86 6.621-4.14 2.863-5.269 6.203-3.144 9.3 2.121 3.102 7.485 5.946 14.942 7.93 7.46 1.981 16.969 3.094 26.512 3.094"/></g></svg>