<svg xmlns="http://www.w3.org/2000/svg" xmlns:xlink="http://www.w3.org/1999/xlink" width="28.028" height="53.012"><defs><path id="b" d="M4.922 0v-.469h-1.39v-5.734c0-.234 0-.328-.266-.328-.11 0-.125 0-.22.078-.765.562-1.796.562-2 .562H.845v.47h.203c.156 0 .703-.016 1.297-.204v5.156H.954V0c.437-.031 1.5-.031 1.984-.031s1.546 0 1.984.031m0 0"/><path id="c" d="M5.25-1.86c0-1.077-.844-1.546-1.328-1.827.687-.36 1-.797 1-1.376 0-1.015-.906-1.468-2.047-1.468-1.375 0-2.078.797-2.078 1.75 0 .437.187 1.062.953 1.5C.922-2.906.484-2.344.484-1.61.484-.406 1.563.109 2.844.109 4.438.11 5.25-.766 5.25-1.859M4.172-5.046c0 .484-.25.813-.688 1.11l-1.5-.844c-.156-.078-.437-.25-.437-.594 0-.703.89-.766 1.297-.766.828 0 1.328.407 1.328 1.094m.219 3.734c0 .829-.938 1-1.516 1-.969 0-1.547-.515-1.547-1.296 0-.766.531-1.203.89-1.407l1.36.766c.438.25.813.453.813.938m0 0"/><path id="d" d="M5.281-3.187c0-.954-.015-3.344-2.422-3.344S.453-4.156.453-3.188c0 1 0 3.297 2.406 3.297 2.391 0 2.422-2.296 2.422-3.296M4-3.297c0 .563 0 1.469-.078 1.985-.14.921-.766 1.062-1.063 1.062-.359 0-.921-.219-1.046-.953-.094-.516-.094-1.547-.094-2.094 0-.719 0-1.375.078-1.89.125-.891.828-.985 1.062-.985.375 0 .782.188.97.625C4-5.172 4-4.109 4-3.297m0 0"/><path id="f" d="M5.156-2.219h-.468c-.032.203-.125.844-.266.906-.11.063-.86.063-1.016.063H1.937c.47-.39 1-.812 1.438-1.14 1.14-.844 1.781-1.313 1.781-2.25 0-1.157-1.047-1.891-2.437-1.891-1.219 0-2.156.625-2.156 1.515 0 .594.484.735.718.735C1.61-4.281 2-4.5 2-5c0-.516-.422-.672-.562-.719.28-.234.671-.343 1.03-.343.845 0 1.313.671 1.313 1.421 0 .688-.375 1.375-1.078 2.079l-2 2.046c-.14.11-.14.141-.14.344V0h4.28Zm0 0"/><path id="h" d="M5.25-3.281c0-.672 0-3.25-2.375-3.25-1.406 0-2.39.812-2.39 2.14 0 1.375.984 2.125 2.203 2.125.359 0 .828-.062 1.203-.765v.219c0 .734-.094 1.312-.235 1.656-.172.39-.61.843-1.297.843-.171 0-.53-.03-.828-.218.11-.031.485-.172.485-.625 0-.344-.235-.625-.625-.625-.391 0-.625.265-.625.64 0 .688.515 1.25 1.609 1.25C3.672.11 5.25-.734 5.25-3.28m-1.375-.985c0 .625-.25 1.641-1.094 1.641-.953 0-.953-.75-.953-1.734 0-.985 0-1.782 1.078-1.782.578 0 .813.532.86.625.109.329.109.907.109 1.25m0 0"/><clipPath id="a"><path d="M0 0h27.543v20H0Zm0 0"/></clipPath><clipPath id="e"><path d="M0 13h27.543v26H0Zm0 0"/></clipPath><clipPath id="g"><path d="M0 32h27.543v20.52H0Zm0 0"/></clipPath></defs><g clip-path="url(#a)"><path fill="none" stroke="#000" stroke-miterlimit="10" stroke-width=".399" d="M13.527.715h6.164a6.64 6.64 0 0 1 6.637 6.637 6.636 6.636 0 0 1-6.637 6.636H7.363a6.637 6.637 0 1 1 0-13.273Zm0 0"/></g><use xlink:href="#b" x="4.933" y="10.56"/><use xlink:href="#c" x="10.662" y="10.56"/><use xlink:href="#d" x="16.39" y="10.56"/><g clip-path="url(#e)"><path fill="none" stroke="#000" stroke-miterlimit="10" stroke-width=".399" d="M13.527 19.371h8.836a7.665 7.665 0 0 1 0 13.273H4.688a7.663 7.663 0 0 1 0-13.273Zm0 0"/></g><use xlink:href="#b" x="4.933" y="29.216"/><use xlink:href="#f" x="10.662" y="29.216"/><use xlink:href="#d" x="16.39" y="29.216"/><g clip-path="url(#g)"><path fill="none" stroke="#000" stroke-miterlimit="10" stroke-width=".399" d="M13.527 38.027h6.903c3.668 3.664 3.668 9.61 0 13.278H6.62c-3.668-3.668-3.668-9.614 0-13.278Zm0 0"/></g><use xlink:href="#h" x="7.798" y="47.872"/><use xlink:href="#d" x="13.527" y="47.872"/></svg>