<svg xmlns="http://www.w3.org/2000/svg" xmlns:xlink="http://www.w3.org/1999/xlink" width="74.225" height="32.87"><defs><clipPath id="a"><path d="M0 0h22v32.805H0Zm0 0"/></clipPath><clipPath id="c"><path d="M23 3h27v29.805H23Zm0 0"/></clipPath><clipPath id="e"><path d="M52 7h21.836v25.805H52Zm0 0"/></clipPath><path id="b" d="M8.25 0v-.469h-.969L4.72-6.703c-.11-.25-.219-.25-.39-.25-.282 0-.329.078-.391.25l-2.47 6c-.062.156-.093.234-.843.234H.406V0l1.172-.031c.39 0 .938 0 1.313.031v-.469S2-.469 2-.594l.047-.125.5-1.203h2.672l.593 1.453H4.86V0c.391-.031 1.329-.031 1.766-.031.39 0 1.266 0 1.625.031M5.016-2.39H2.734l1.141-2.766Zm0 0"/><path id="d" d="M7.5-1.86c0-.952-.844-1.624-2.031-1.702 1.078-.204 1.718-.797 1.718-1.563 0-.922-.875-1.719-2.468-1.719H.39v.469h1.078v5.906H.39V0h4.625C6.672 0 7.5-.875 7.5-1.86M5.766-5.124c0 .766-.47 1.39-1.438 1.39H2.766v-2.64h1.812c1.016 0 1.188.797 1.188 1.25m.28 3.266c0 .109 0 1.39-1.437 1.39H2.766v-2.906h1.937c.203 0 .672 0 1.016.422.328.422.328.984.328 1.094m0 0"/><path id="f" d="M7.64-2.266c0-.203-.077-.203-.25-.203-.124 0-.218 0-.218.172C7.094-.969 5.89-.359 4.89-.359c-.782 0-1.625-.235-2.141-.844-.469-.578-.594-1.313-.594-2.219 0-.562.031-1.625.672-2.297.64-.656 1.516-.765 2.031-.765 1.079 0 2.016.765 2.235 2.03.031.188.047.204.265.204.266 0 .282-.016.282-.281v-2.14c0-.188 0-.282-.188-.282-.094 0-.11.031-.187.094l-.657.593a3.03 3.03 0 0 0-1.968-.687c-2.485 0-4 1.484-4 3.531S2.156.11 4.64.11c1.875 0 3-1.218 3-2.375m0 0"/></defs><g clip-path="url(#a)"><path fill="none" stroke="#000" stroke-miterlimit="10" stroke-width=".399" d="M.82 23.938a7.651 7.651 0 1 0 15.301 0V8.8a7.651 7.651 0 0 0-15.3 0ZM.82 8.8a7.651 7.651 0 1 0 15.301 0"/></g><use xlink:href="#b" x="4.141" y="26.925"/><g clip-path="url(#c)"><path fill="none" stroke="#000" stroke-miterlimit="10" stroke-width=".399" d="M29.422 27.102c0 2.039 3.312 3.695 7.394 3.695 4.086 0 7.395-1.656 7.395-3.695v-14.29c0-2.042-3.309-3.695-7.395-3.695-4.082 0-7.394 1.653-7.394 3.695Zm0-14.29c0 2.043 3.312 3.7 7.394 3.7 4.086 0 7.395-1.657 7.395-3.7"/></g><use xlink:href="#d" x="32.742" y="26.865"/><g clip-path="url(#e)"><path fill="none" stroke="#000" stroke-miterlimit="10" stroke-width=".399" d="M57.703 28.742c0 1.031 3.34 1.867 7.461 1.867s7.461-.836 7.461-1.867V14.535c0-1.027-3.34-1.863-7.46-1.863-4.122 0-7.462.836-7.462 1.863Zm0-14.207c0 1.031 3.34 1.867 7.461 1.867s7.461-.836 7.461-1.867"/></g><use xlink:href="#f" x="61.023" y="26.865"/></svg>