<svg xmlns="http://www.w3.org/2000/svg" xmlns:xlink="http://www.w3.org/1999/xlink" width="95.273" height="48.656"><defs><path id="a" d="M16.922 0v-.89h-1.985L9.704-8.188l3.5-4.657c.203-.265.281-.312.969-.375.531-.062.625-.062 1.219-.062h.53v-.89c-.468.046-2.124.046-2.702.046-.64 0-2.438 0-2.953-.047v.89c.25 0 1.265 0 1.875.25L9.125-8.983l-3.078-4.297h1.719v-.89c-.75.046-2.688.046-3.532.046-.703 0-2.75 0-3.312-.047v.89h2.015l4.579 6.423-4.157 5.53c-.171.25-.234.313-.968.376-.516.047-.61.062-1.188.062H.641V0c.468-.047 2.14-.047 2.718-.047.641 0 2.422 0 2.938.047v-.89c-.219 0-1.281 0-1.875-.25l3.672-4.907L11.813-.89h-1.72V0c.673-.047 2.735-.047 3.516-.047.672 0 2.797 0 3.313.047m0 0"/><path id="b" d="M11.172-.453c0-.438-.188-.438-.469-.438-1.297-.015-1.297-.343-1.297-.828v-4.453c0-1.906-1.515-3.187-4.422-3.187-1.156 0-3.593.109-3.593 1.843 0 .86.656 1.235 1.218 1.235.61 0 1.22-.438 1.22-1.219 0-.39-.157-.766-.5-.984C4-8.672 4.5-8.672 4.89-8.672c1.406 0 2.25.781 2.25 2.469v.828c-3.25 0-6.547.906-6.547 3.203C.594-.297 3 .125 4.422.125c1.594 0 2.594-.875 3.016-1.781 0 .765 0 1.656 2.078 1.656h1.062c.438 0 .594 0 .594-.453M7.14-2.875C7.14-.922 5.406-.562 4.75-.562c-1.016 0-1.86-.672-1.86-1.625 0-1.876 2.235-2.516 4.25-2.625Zm0 0"/><path id="c" d="M11.75-8.281v-.89c-.703.046-.781.046-1.625.046l-1.781-.047v.89s1 0 1 .266c0 .063-.063.188-.094.25L6.844-2.562l-2.657-5.72h1.141v-.89c-.5.047-1.906.047-2.484.047-.594 0-1.813 0-2.344-.047v.89h1.313L5.64 0c-.11.25-.391.844-.5 1.094-.438.937-1.094 2.36-2.532 2.36-.093 0-.343 0-.562-.126.047-.015.656-.265.656-1.062 0-.672-.5-1.11-1.11-1.11-.64 0-1.14.438-1.14 1.14 0 .97.906 1.829 2.156 1.829 1.688 0 2.797-1.516 3.22-2.437l4.39-9.516c.125-.297.219-.453 1.531-.453m0 0"/></defs><path fill="none" stroke="#7F7F7F" stroke-miterlimit="10" stroke-width=".199" d="M8.77 36.254h85.043M8.77 7.918h85.043M8.77 36.254V7.906m28.347 28.348V7.906m28.348 28.348V7.906M93.8 36.254V7.906"/><use xlink:href="#a" x="-.011" y="14.995"/><use xlink:href="#b" x="40.898" y="12.526"/><use xlink:href="#c" x="75.547" y="10.429"/><use xlink:href="#a" x="-.011" y="43.342"/><use xlink:href="#b" x="40.898" y="43.342"/><use xlink:href="#c" x="75.547" y="43.342"/></svg>