<svg xmlns="http://www.w3.org/2000/svg" xmlns:xlink="http://www.w3.org/1999/xlink" width="171.83" height="97.76"><defs><path id="b" d="M5.563-1.812c.14 0 .312 0 .312-.172 0-.188-.172-.188-.312-.188H1c-.125 0-.297 0-.297.188 0 .172.172.172.297.172Zm0 0"/><path id="c" d="M2.5-5.078c0-.219-.016-.219-.234-.219-.328.313-.75.5-1.5.5v.266c.218 0 .64 0 1.109-.203v4.078c0 .297-.031.39-.781.39H.812V0c.329-.031 1.016-.031 1.376-.031s1.046 0 1.374.031v-.266h-.28c-.75 0-.782-.093-.782-.39Zm0 0"/><path id="d" d="M3.89-2.547c0-.844-.078-1.36-.343-1.875-.344-.703-1-.875-1.438-.875-1 0-1.375.75-1.484.969C.344-3.75.328-2.953.328-2.547c0 .531.016 1.328.406 1.969.36.594.954.75 1.375.75.391 0 1.063-.125 1.47-.906.296-.578.312-1.297.312-1.813M2.11-.062c-.266 0-.813-.125-.985-.954-.094-.453-.094-1.203-.094-1.625 0-.546 0-1.109.094-1.546.172-.813.781-.891.984-.891.266 0 .829.14.985.86.094.437.094 1.046.094 1.577 0 .47 0 1.188-.094 1.641-.172.828-.719.938-.985.938m0 0"/><path id="e" d="M1.11-4.484c.109.03.421.125.765.125 1 0 1.594-.703 1.594-.828 0-.094-.047-.11-.094-.11-.016 0-.031 0-.094.031a3 3 0 0 1-1.11.22c-.468 0-.858-.11-1.108-.22-.079-.03-.094-.03-.11-.03-.094 0-.094.077-.094.234v2.328c0 .14 0 .234.125.234.063 0 .079-.031.125-.094.094-.11.391-.515 1.079-.515.437 0 .656.359.734.515.125.281.14.656.14.953s0 .735-.218 1.079c-.156.25-.485.484-.906.484A1.27 1.27 0 0 1 .734-.922c.016.016.079.016.079.016.218 0 .406-.14.406-.39a.39.39 0 0 0-.39-.407c-.157 0-.407.078-.407.422 0 .718.625 1.453 1.531 1.453 1 0 1.844-.781 1.844-1.766 0-.922-.672-1.75-1.61-1.75-.39 0-.765.125-1.078.406Zm0 0"/><path id="f" d="M1.484-.125c0 .516-.109.984-.593 1.469-.032.031-.047.047-.047.078 0 .062.062.11.11.11.093 0 .765-.626.765-1.563 0-.5-.203-.86-.547-.86a.436.436 0 0 0-.438.438c0 .234.157.453.438.453.203 0 .312-.11.312-.125m0 0"/><clipPath id="a"><path d="M20 0h151.746v97.64H20Zm0 0"/></clipPath></defs><path fill="none" stroke="#7F7F7F" stroke-linecap="round" stroke-miterlimit="10" stroke-width=".399" d="M40.563 88.68v-1.993M70.09 88.68v-1.993M99.617 88.68v-1.993M129.145 88.68v-1.993M158.672 88.68v-1.993M40.563 3.082V1.086M70.09 3.082V1.086M99.617 3.082V1.086M129.145 3.082V1.086M158.672 3.082V1.086M28.75 82.902h1.992M28.75 70.227h1.992M28.75 57.555h1.992M28.75 44.883h1.992M28.75 32.21h1.992M28.75 19.54h1.992M28.75 6.867h1.992M168.492 82.902h1.992M168.492 70.227h1.992M168.492 57.555h1.992M168.492 44.883h1.992M168.492 32.21h1.992M168.492 19.54h1.992M168.492 6.867h1.992"/><path fill="none" stroke="#7F7F7F" stroke-miterlimit="10" stroke-width=".399" d="M28.75 88.68h141.734M28.75 1.086h141.734M28.75 88.68V1.086M170.484 88.68V1.086"/><g clip-path="url(#a)"><path fill="none" stroke="#000" stroke-miterlimit="10" stroke-width=".598" d="M28.75 88.68s4.27-7.504 5.906-10.063c1.64-2.558 4.266-6.273 5.907-8.39 1.636-2.118 4.265-5.153 5.906-6.868 1.636-1.714 4.265-4.14 5.906-5.5 1.637-1.355 4.266-3.242 5.902-4.28 1.641-1.044 4.27-2.454 5.907-3.22 1.64-.77 4.265-1.773 5.906-2.308 1.637-.535 4.265-1.2 5.906-1.547 1.637-.344 4.266-.738 5.906-.938 1.637-.195 4.266-.39 5.903-.48 1.64-.09 4.27-.148 5.906-.176 1.64-.031 4.27-.02 5.906-.027 1.64-.008 4.266.004 5.906-.024 1.637-.03 4.266-.086 5.907-.18 1.636-.09 4.265-.284 5.902-.48 1.64-.195 4.27-.594 5.906-.937 1.64-.344 4.27-1.012 5.907-1.547 1.64-.535 4.265-1.54 5.906-2.305 1.637-.77 4.265-2.18 5.906-3.219 1.637-1.043 4.266-2.925 5.906-4.285 1.637-1.355 4.266-3.785 5.903-5.5 1.64-1.715 4.27-4.75 5.906-6.867 1.64-2.117 4.266-5.828 5.906-8.39 1.64-2.56 5.906-10.063 5.906-10.063"/></g><use xlink:href="#b" x="33.034" y="96.472"/><use xlink:href="#c" x="39.621" y="96.472"/><use xlink:href="#d" x="43.856" y="96.472"/><use xlink:href="#b" x="64.679" y="96.472"/><use xlink:href="#e" x="71.265" y="96.472"/><use xlink:href="#d" x="97.499" y="96.472"/><use xlink:href="#e" x="127.026" y="96.472"/><use xlink:href="#c" x="154.437" y="96.472"/><use xlink:href="#d" x="158.672" y="96.472"/><use xlink:href="#b" x=".219" y="84.694"/><use xlink:href="#c" x="6.806" y="84.694"/><use xlink:href="#f" x="11.04" y="84.694"/><use xlink:href="#e" x="13.392" y="84.694"/><use xlink:href="#d" x="17.627" y="84.694"/><use xlink:href="#d" x="21.861" y="84.694"/><use xlink:href="#b" x=".219" y="72.022"/><use xlink:href="#c" x="6.806" y="72.022"/><use xlink:href="#f" x="11.04" y="72.022"/><use xlink:href="#d" x="13.392" y="72.022"/><use xlink:href="#d" x="17.627" y="72.022"/><use xlink:href="#d" x="21.861" y="72.022"/><use xlink:href="#b" x="6.806" y="59.709"/><use xlink:href="#e" x="13.392" y="59.709"/><use xlink:href="#d" x="17.627" y="59.709"/><use xlink:href="#d" x="21.861" y="59.709"/><use xlink:href="#d" x="21.861" y="47.452"/><use xlink:href="#e" x="13.392" y="34.78"/><use xlink:href="#d" x="17.627" y="34.78"/><use xlink:href="#d" x="21.861" y="34.78"/><use xlink:href="#c" x="6.806" y="21.333"/><use xlink:href="#f" x="11.04" y="21.333"/><use xlink:href="#d" x="13.392" y="21.333"/><use xlink:href="#d" x="17.627" y="21.333"/><use xlink:href="#d" x="21.861" y="21.333"/><use xlink:href="#c" x="6.806" y="8.661"/><use xlink:href="#f" x="11.04" y="8.661"/><use xlink:href="#e" x="13.392" y="8.661"/><use xlink:href="#d" x="17.627" y="8.661"/><use xlink:href="#d" x="21.861" y="8.661"/></svg>