<svg xmlns="http://www.w3.org/2000/svg" xmlns:xlink="http://www.w3.org/1999/xlink" width="85.727" height="48.818"><defs><path id="a" d="M4.922 0v-.469h-1.39v-5.734c0-.234 0-.328-.266-.328-.11 0-.125 0-.22.078-.765.562-1.796.562-2 .562H.845v.47h.203c.156 0 .703-.016 1.297-.204v5.156H.954V0c.437-.031 1.5-.031 1.984-.031s1.546 0 1.984.031m0 0"/><path id="c" d="M5.156-2.219h-.468c-.032.203-.125.844-.266.906-.11.063-.86.063-1.016.063H1.937c.47-.39 1-.812 1.438-1.14 1.14-.844 1.781-1.313 1.781-2.25 0-1.157-1.047-1.891-2.437-1.891-1.219 0-2.156.625-2.156 1.515 0 .594.484.735.718.735C1.61-4.281 2-4.5 2-5c0-.516-.422-.672-.562-.719.28-.234.671-.343 1.03-.343.845 0 1.313.671 1.313 1.421 0 .688-.375 1.375-1.078 2.079l-2 2.046c-.14.11-.14.141-.14.344V0h4.28Zm0 0"/><path id="e" d="M5.25-1.797c0-.547-.297-1.406-1.734-1.719.687-.203 1.406-.765 1.406-1.625 0-.765-.75-1.39-2.156-1.39-1.188 0-1.97.64-1.97 1.437 0 .422.313.703.688.703a.67.67 0 0 0 .704-.687c0-.578-.547-.688-.579-.703.344-.282.782-.36 1.094-.36.828 0 .86.641.86.97 0 .124-.016 1.437-1.047 1.5-.407.015-.438.015-.485.03-.094.016-.125.11-.125.172 0 .172.11.172.282.172h.437c1.094 0 1.094.985 1.094 1.5 0 .469 0 1.485-1.031 1.485-.266 0-.782-.047-1.266-.344C1.75-.75 2-1 2-1.406c0-.453-.312-.75-.75-.75-.422 0-.766.265-.766.765 0 .907.97 1.5 2.25 1.5 1.782 0 2.516-1 2.516-1.906m0 0"/><path id="g" d="M5.406 0v-.469h-.968v-1.094h.968v-.468h-.968V-6.22c0-.265-.016-.328-.297-.328-.22 0-.22.016-.344.172L.313-2.031v.469h2.875V-.47h-1.11V0c.375-.031 1.281-.031 1.703-.031.406 0 1.266 0 1.625.031m-2.11-2.031H.845L3.297-5.11Zm0 0"/><path id="i" d="M5.156-2c0-1.156-.797-2.078-2.265-2.078-.282 0-.813.031-1.282.344v-1.313c.282.047.391.078.72.078 1.452 0 2.374-1.125 2.374-1.375 0-.078-.016-.187-.14-.187-.032 0-.032 0-.141.047a4.3 4.3 0 0 1-1.531.28c-.75 0-1.282-.202-1.547-.28-.094-.032-.094-.047-.125-.047-.14 0-.14.11-.14.265v2.922c0 .172 0 .297.218.297.125 0 .156-.031.219-.11.39-.468.922-.562 1.328-.562.89 0 .89.875.89 1.672 0 .735 0 1.735-1.187 1.735-.25 0-.875-.063-1.297-.625.36-.016.656-.266.656-.672 0-.532-.437-.672-.672-.672-.14 0-.671.094-.671.703 0 .844.78 1.687 2.015 1.687C4.172.11 5.156-.78 5.156-2m0 0"/><clipPath id="b"><path d="M0 23h25v25.727H0Zm0 0"/></clipPath><clipPath id="d"><path d="M13 23h31v25.727H13Zm0 0"/></clipPath><clipPath id="f"><path d="M42 23h30v25.727H42Zm0 0"/></clipPath><clipPath id="h"><path d="M60 23h25.59v25.727H60Zm0 0"/></clipPath></defs><path fill="none" stroke="#000" stroke-miterlimit="10" stroke-width=".399" d="M35.758 16.18 17.039 32.445M38.59 18.379l-5.922 11.844M46.832 18.379l5.926 11.86M49.664 16.18l18.7 16.246M51.723 10.14c0-4.98-4.035-9.015-9.012-9.015s-9.012 4.035-9.012 9.016a9.012 9.012 0 0 0 18.024 0Zm0 0"/><use xlink:href="#a" x="39.846" y="13.401"/><g clip-path="url(#b)"><path fill="none" stroke="#000" stroke-miterlimit="10" stroke-width=".399" d="M19.098 38.484a9.01 9.01 0 0 0-9.012-9.011c-4.98 0-9.016 4.035-9.016 9.011 0 4.977 4.035 9.012 9.016 9.012a9.01 9.01 0 0 0 9.012-9.012Zm0 0"/></g><use xlink:href="#c" x="7.22" y="41.748"/><g clip-path="url(#d)"><path fill="none" stroke="#000" stroke-miterlimit="10" stroke-width=".399" d="M37.574 38.484a9.039 9.039 0 1 0-18.078 0 9.039 9.039 0 1 0 18.078 0Zm0 0"/></g><use xlink:href="#e" x="25.669" y="41.693"/><g clip-path="url(#f)"><path fill="none" stroke="#000" stroke-miterlimit="10" stroke-width=".399" d="M65.898 38.484a9.02 9.02 0 1 0-18.037.002 9.02 9.02 0 0 0 18.037-.002Zm0 0"/></g><use xlink:href="#g" x="54.016" y="41.753"/><g clip-path="url(#h)"><path fill="none" stroke="#000" stroke-miterlimit="10" stroke-width=".399" d="M84.375 38.484a9.039 9.039 0 1 0-18.078 0 9.039 9.039 0 1 0 18.078 0Zm0 0"/></g><use xlink:href="#i" x="72.472" y="41.693"/></svg>