<svg xmlns="http://www.w3.org/2000/svg" width="299.651" height="44.552"><path d="M.824 29.14 29.172.794H57.52M128.387 29.14c0-7.828-6.348-14.175-14.176-14.175-7.824 0-14.172 6.348-14.172 14.176s6.348 14.172 14.172 14.172c7.828 0 14.176-6.344 14.176-14.172m14.172 0c0-7.828-6.344-14.175-14.172-14.175S114.21 21.313 114.21 29.14s6.348 14.172 14.176 14.172 14.172-6.344 14.172-14.172m0 0"/><path fill-rule="evenodd" d="M185.078 29.14c0-7.828-6.344-14.175-14.172-14.175s-14.172 6.348-14.172 14.176 6.344 14.172 14.172 14.172 14.172-6.344 14.172-14.172m14.176 0c0-7.828-6.348-14.175-14.176-14.175s-14.172 6.348-14.172 14.176 6.344 14.172 14.172 14.172 14.176-6.344 14.176-14.172m0 0"/><path d="M227.602 29.14 255.945.794l28.348 28.348m14.176 0c0-7.828-6.348-14.176-14.176-14.176s-14.172 6.348-14.172 14.176 6.344 14.172 14.172 14.172 14.176-6.344 14.176-14.172m0 0"/></svg>