<svg xmlns="http://www.w3.org/2000/svg" width="115.078" height="60.95"><defs><clipPath id="a"><path d="M48 51h15v9.926H48Zm0 0"/></clipPath><clipPath id="b"><path d="M59 51h15v9.926H59Zm0 0"/></clipPath><clipPath id="c"><path d="M71 51h15v9.926H71Zm0 0"/></clipPath><clipPath id="d"><path d="M82 51h15v9.926H82Zm0 0"/></clipPath><clipPath id="e"><path d="M93 51h15v9.926H93Zm0 0"/></clipPath><clipPath id="f"><path d="M105 51h9.617v9.926H105Zm0 0"/></clipPath><clipPath id="g"><path d="M48 51h15v9.926H48Zm0 0"/></clipPath><clipPath id="h"><path d="M58 47h16v13.926H58Zm0 0"/></clipPath><clipPath id="i"><path d="M101 31h13.617v16H101Zm0 0"/></clipPath><clipPath id="j"><path d="M48 51h15v9.926H48Zm0 0"/></clipPath><clipPath id="k"><path d="M48 51h15v9.926H48Zm0 0"/></clipPath><clipPath id="l"><path d="M48 51h15v9.926H48Zm0 0"/></clipPath><clipPath id="m"><path d="M48 51h15v9.926H48Zm0 0"/></clipPath><clipPath id="n"><path d="M48 51h15v9.926H48Zm0 0"/></clipPath><clipPath id="o"><path d="M48 51h15v9.926H48Zm0 0"/></clipPath><clipPath id="p"><path d="M48 51h15v9.926H48Zm0 0"/></clipPath><clipPath id="q"><path d="M37 47h15v13.926H37Zm0 0"/></clipPath></defs><g clip-path="url(#a)"><path fill="none" stroke="#000" stroke-miterlimit="10" stroke-width=".399" d="m53.96 59.77 2.817-2.82m-2.816 0 2.816 2.82"/></g><g clip-path="url(#b)"><path fill="none" stroke="#000" stroke-miterlimit="10" stroke-width=".399" d="m65.297 59.77 2.82-2.82m-2.82 0 2.82 2.82"/></g><g clip-path="url(#c)"><path fill="none" stroke="#000" stroke-miterlimit="10" stroke-width=".399" d="m76.637 59.77 2.816-2.82m-2.816 0 2.816 2.82"/></g><g clip-path="url(#d)"><path fill="none" stroke="#000" stroke-miterlimit="10" stroke-width=".399" d="m87.977 59.77 2.816-2.82m-2.816 0 2.816 2.82"/></g><g clip-path="url(#e)"><path fill="none" stroke="#000" stroke-miterlimit="10" stroke-width=".399" d="m99.313 59.77 2.82-2.82m-2.82 0 2.82 2.82"/></g><g clip-path="url(#f)"><path fill="none" stroke="#000" stroke-miterlimit="10" stroke-width=".399" d="m110.652 59.77 2.817-2.82m-2.817 0 2.817 2.82"/></g><g clip-path="url(#g)"><path fill="none" stroke="#000" stroke-miterlimit="10" stroke-width=".399" d="m53.96 59.77 2.817-2.82m-2.816 0 2.816 2.82"/></g><g clip-path="url(#h)"><path fill="none" stroke="#000" stroke-miterlimit="10" stroke-width=".399" d="m64.613 55.89 2.82-2.816m-2.82 0 2.82 2.817"/></g><path fill="none" stroke="#000" stroke-miterlimit="10" stroke-width=".399" d="m75.27 52.012 2.816-2.817m-2.816 0 2.816 2.817M85.922 48.133l2.82-2.817m-2.82 0 2.82 2.817M96.578 44.258l2.817-2.82m-2.817 0 2.817 2.82"/><g clip-path="url(#i)"><path fill="none" stroke="#000" stroke-miterlimit="10" stroke-width=".399" d="m107.234 40.379 2.817-2.816m-2.817 0 2.817 2.816"/></g><g clip-path="url(#j)"><path fill="none" stroke="#000" stroke-miterlimit="10" stroke-width=".399" d="m53.96 59.77 2.817-2.82m-2.816 0 2.816 2.82"/></g><path fill="none" stroke="#000" stroke-miterlimit="10" stroke-width=".399" d="m62.645 52.48 2.816-2.816m-2.816 0 2.816 2.816M71.332 45.191l2.816-2.816m-2.816 0 2.816 2.816M80.016 37.902l2.82-2.816m-2.82 0 2.82 2.816M88.703 30.617l2.817-2.82m-2.817 0 2.817 2.82M97.387 23.328l2.82-2.82m-2.82 0 2.82 2.82"/><g clip-path="url(#k)"><path fill="none" stroke="#000" stroke-miterlimit="10" stroke-width=".399" d="m53.96 59.77 2.817-2.82m-2.816 0 2.816 2.82"/></g><path fill="none" stroke="#000" stroke-miterlimit="10" stroke-width=".399" d="m59.629 49.95 2.816-2.817m-2.816 0 2.816 2.816M65.297 40.129l2.82-2.816m-2.82 0 2.82 2.816M70.969 30.309l2.816-2.817m-2.816 0 2.816 2.817M76.637 20.492l2.816-2.82m-2.816 0 2.816 2.82M82.305 10.672l2.82-2.82m-2.82 0 2.82 2.82"/><g clip-path="url(#l)"><path fill="none" stroke="#000" stroke-miterlimit="10" stroke-width=".399" d="m53.96 59.77 2.817-2.82m-2.816 0 2.816 2.82"/></g><path fill="none" stroke="#000" stroke-miterlimit="10" stroke-width=".399" d="m55.93 48.602 2.816-2.817m-2.816 0 2.816 2.817M57.898 37.438l2.817-2.82m-2.817 0 2.817 2.82M59.867 26.27l2.817-2.817m-2.817 0 2.817 2.817M61.836 15.102l2.816-2.817m-2.816 0 2.816 2.817M63.805 3.938l2.816-2.82m-2.816 0 2.816 2.82"/><g clip-path="url(#m)"><path fill="none" stroke="#000" stroke-miterlimit="10" stroke-width=".399" d="m53.96 59.77 2.817-2.82m-2.816 0 2.816 2.82"/></g><path fill="none" stroke="#000" stroke-miterlimit="10" stroke-width=".399" d="m51.988 48.602 2.82-2.817m-2.82 0 2.82 2.817M50.02 37.438l2.82-2.82m-2.82 0 2.82 2.82M48.05 26.27l2.821-2.817m-2.82 0 2.82 2.817M46.082 15.102l2.82-2.817m-2.82 0 2.82 2.817M44.113 3.938l2.82-2.82m-2.82 0 2.82 2.82"/><g clip-path="url(#n)"><path fill="none" stroke="#000" stroke-miterlimit="10" stroke-width=".399" d="m53.96 59.77 2.817-2.82m-2.816 0 2.816 2.82"/></g><path fill="none" stroke="#000" stroke-miterlimit="10" stroke-width=".399" d="m48.29 49.95 2.82-2.817m-2.82 0 2.82 2.816M42.621 40.129l2.816-2.816m-2.816 0 2.816 2.816M36.95 30.309l2.82-2.817m-2.82 0 2.82 2.817M31.281 20.492l2.82-2.82m-2.82 0 2.82 2.82M25.613 10.672l2.817-2.82m-2.817 0 2.817 2.82"/><g clip-path="url(#o)"><path fill="none" stroke="#000" stroke-miterlimit="10" stroke-width=".399" d="m53.96 59.77 2.817-2.82m-2.816 0 2.816 2.82"/></g><path fill="none" stroke="#000" stroke-miterlimit="10" stroke-width=".399" d="m45.273 52.48 2.817-2.816m-2.817 0 2.817 2.816M36.586 45.191l2.82-2.816m-2.82 0 2.82 2.816M27.902 37.902l2.817-2.816m-2.817 0 2.817 2.816M19.215 30.617l2.82-2.82m-2.82 0 2.82 2.82M10.531 23.328l2.817-2.82m-2.817 0 2.817 2.82"/><g clip-path="url(#p)"><path fill="none" stroke="#000" stroke-miterlimit="10" stroke-width=".399" d="m53.96 59.77 2.817-2.82m-2.816 0 2.816 2.82"/></g><g clip-path="url(#q)"><path fill="none" stroke="#000" stroke-miterlimit="10" stroke-width=".399" d="m43.305 55.89 2.816-2.816m-2.816 0 2.816 2.817"/></g><path fill="none" stroke="#000" stroke-miterlimit="10" stroke-width=".399" d="m32.648 52.012 2.82-2.817m-2.82 0 2.82 2.817M21.996 48.133l2.817-2.817m-2.817 0 2.817 2.817M11.34 44.258l2.816-2.82m-2.816 0 2.816 2.82M.684 40.379l2.82-2.816m-2.82 0 2.82 2.816"/></svg>