<svg xmlns="http://www.w3.org/2000/svg" xmlns:xlink="http://www.w3.org/1999/xlink" width="77.195" height="84.548"><defs><path id="a" d="M.453 1.219c-.078.343-.11.406-.547.406-.11 0-.218 0-.218.188 0 .078.046.125.125.125.265 0 .562-.032.828-.032.343 0 .672.032 1 .032.046 0 .172 0 .172-.204 0-.109-.094-.109-.235-.109-.5 0-.5-.062-.5-.156 0-.125.422-1.75.484-2 .125.297.407.64.922.64 1.157 0 2.407-1.453 2.407-2.921 0-.938-.578-1.594-1.328-1.594-.5 0-.985.36-1.313.75-.094-.547-.531-.75-.89-.75-.47 0-.657.39-.735.562-.187.344-.312.938-.312.969 0 .11.093.11.109.11.11 0 .11-.016.172-.235.172-.703.375-1.187.734-1.187.172 0 .313.078.313.453 0 .234-.032.343-.079.515Zm1.75-4.328c.063-.266.344-.547.516-.703.36-.297.64-.376.812-.376.39 0 .64.344.64.938s-.327 1.734-.515 2.11C3.312-.439 2.844-.11 2.47-.11c-.656 0-.781-.827-.781-.89 0-.016 0-.031.03-.156Zm0 0"/><path id="g" d="M2.047-3.984h.937c.204 0 .313 0 .313-.203 0-.11-.11-.11-.281-.11H2.14c.359-1.422.406-1.61.406-1.672 0-.172-.125-.265-.297-.265-.031 0-.312 0-.39.359l-.391 1.578H.53c-.203 0-.297 0-.297.188 0 .125.078.125.282.125h.875C.67-1.156.625-.984.625-.812c0 .546.375.921.922.921 1.016 0 1.578-1.453 1.578-1.53 0-.11-.078-.11-.11-.11-.093 0-.109.031-.156.14C2.438-.344 1.906-.109 1.563-.109c-.204 0-.313-.125-.313-.453 0-.25.031-.313.063-.485Zm0 0"/><path id="b" d="M2.328-4.437c0-.188 0-.188-.203-.188-.453.438-1.078.438-1.36.438v.25c.157 0 .626 0 1-.188v3.547c0 .234 0 .328-.687.328H.812V0c.125 0 .985-.031 1.235-.031.219 0 1.094.031 1.25.031v-.25H3.03c-.703 0-.703-.094-.703-.328Zm0 0"/><path id="d" d="M3.516-1.266H3.28c-.015.157-.094.563-.187.625-.047.047-.578.047-.688.047H1.125c.734-.64.984-.843 1.39-1.172.516-.406 1-.843 1-1.5 0-.843-.734-1.359-1.624-1.359-.86 0-1.453.61-1.453 1.25 0 .344.296.39.375.39.156 0 .359-.124.359-.374 0-.125-.047-.375-.406-.375.218-.485.687-.641 1.015-.641.703 0 1.063.547 1.063 1.11 0 .609-.438 1.078-.656 1.328L.516-.266C.437-.203.437-.187.437 0h2.876Zm0 0"/><path id="e" d="M6.719-3.234c.14-.063.203-.125.203-.22 0-.093-.047-.155-.203-.218l-5.5-2.594c-.125-.078-.172-.078-.188-.078a.197.197 0 0 0-.203.203c0 .125.078.172.188.22L6.25-3.454 1.031-1c-.187.094-.203.172-.203.234 0 .11.094.204.203.204.032 0 .047 0 .172-.079Zm-.157 4.593c.172 0 .36 0 .36-.187 0-.203-.219-.203-.36-.203H1.189c-.157 0-.36 0-.36.203 0 .187.172.187.344.187Zm0 0"/><path id="f" d="M2.938-6.375c0-.25 0-.266-.235-.266C2.078-6 1.203-6 .891-6v.313c.203 0 .78 0 1.297-.266v5.172c0 .36-.032.469-.922.469H.953V0c.344-.031 1.203-.031 1.61-.031.39 0 1.265 0 1.609.031v-.312h-.313c-.906 0-.921-.11-.921-.47Zm0 0"/><path id="h" d="M5.156-2.219h-.468c-.032.203-.125.844-.266.906-.11.063-.86.063-1.016.063H1.937c.47-.39 1-.812 1.438-1.14 1.14-.844 1.781-1.313 1.781-2.25 0-1.157-1.047-1.891-2.437-1.891-1.219 0-2.156.625-2.156 1.515 0 .594.484.735.718.735C1.61-4.281 2-4.5 2-5c0-.516-.422-.672-.562-.719.28-.234.671-.343 1.03-.343.845 0 1.313.671 1.313 1.421 0 .688-.375 1.375-1.078 2.079l-2 2.046c-.14.11-.14.141-.14.344V0h4.28Zm0 0"/><clipPath id="c"><path d="M46 7h30.793v34H46Zm0 0"/></clipPath></defs><path fill="none" stroke="#000" stroke-miterlimit="10" stroke-width=".399" d="M22.922 24.133c0-6.106-4.95-11.059-11.059-11.059-6.105 0-11.058 4.953-11.058 11.059 0 6.11 4.953 11.058 11.058 11.058 6.11 0 11.059-4.949 11.059-11.058Zm0 0"/><path d="M10.758 24.133a2.211 2.211 0 0 0-4.422 0c0 1.222.988 2.215 2.21 2.215 1.224 0 2.212-.993 2.212-2.215M17.395 24.133a2.214 2.214 0 0 0-4.426 0c0 1.222.992 2.215 2.215 2.215 1.218 0 2.21-.993 2.21-2.215m0 0"/><use xlink:href="#a" x="7.123" y="7.419"/><use xlink:href="#b" x="12.136" y="8.913"/><g clip-path="url(#c)"><path fill="none" stroke="#000" stroke-miterlimit="10" stroke-width=".399" d="M73.785 24.133c0-6.106-4.95-11.059-11.058-11.059-6.106 0-11.059 4.953-11.059 11.059 0 6.11 4.953 11.058 11.059 11.058 6.109 0 11.058-4.949 11.058-11.058Zm0 0"/></g><use xlink:href="#a" x="48.853" y="7.419"/><use xlink:href="#d" x="53.865" y="8.913"/><use xlink:href="#e" x="61.102" y="7.419"/><use xlink:href="#f" x="71.618" y="7.419"/><path fill="none" stroke="#000" stroke-miterlimit="10" stroke-width=".399" d="M48.371 71.98h11.34V60.64H48.37Zm0 0"/><use xlink:href="#g" x="50.007" y="81.825"/><use xlink:href="#b" x="53.603" y="83.32"/><path fill="none" stroke="#000" stroke-miterlimit="10" stroke-width=".399" d="M47.188 59.457 19.824 32.094"/><path fill="none" stroke="#000" stroke-linecap="round" stroke-linejoin="round" stroke-miterlimit="10" stroke-width=".39899202" d="M47.555 56.441c-.75 1.282-.633 2.356-.227 3.157-.8-.407-1.875-.524-3.156.222"/><path fill="none" stroke="#000" stroke-miterlimit="10" stroke-width=".399" d="m55.25 60.441 4.926-23.914"/><path fill="none" stroke="#000" stroke-linecap="round" stroke-linejoin="round" stroke-miterlimit="10" stroke-width=".39898005000000003" d="M57.457 37.879c1.48-.082 2.313-.774 2.758-1.547.101.887.594 1.852 1.926 2.512"/><use xlink:href="#h" x="48.603" y="44.28"/></svg>