<svg xmlns="http://www.w3.org/2000/svg" xmlns:xlink="http://www.w3.org/1999/xlink" width="368.192" height="116.606"><defs><path id="b" d="M9.984-1.094c0-.203-.093-.25-.25-.25-.234 0-.25.094-.25.25-.062.594-.437.844-.765.844-.766 0-.86-.797-.953-1.906-.063-.625-.157-1.516-1.438-1.906 1.61-.438 2-1.297 2-1.938 0-1.203-1.25-2.203-3.469-2.203H.453v.515H1.72v7.172H.453V0C.797-.031 2.047-.031 2.47-.031c.437 0 1.687 0 2.031.031v-.516H3.234v-3.39h1.422c.485 0 .86.14 1.125.453.36.406.36.672.36 1.469s0 1.297.609 1.703C7.375.125 8.36.14 8.625.14c1.219 0 1.36-1.078 1.36-1.235M6.641-6c0 .656 0 1.703-2 1.703H3.234v-3.39h1.422c1.953 0 1.985.984 1.985 1.687m0 0"/><path id="c" d="M6.328-2.625c0-1.61-1.094-2.797-2.969-2.797-1.953 0-2.984 1.25-2.984 2.797C.375-1.047 1.469.078 3.344.078c1.953 0 2.984-1.187 2.984-2.703m-1.422-.11c0 .985 0 2.376-1.547 2.376S1.813-1.75 1.813-2.734c0-.563 0-1.157.218-1.594.266-.484.797-.688 1.313-.688.687 0 1.11.313 1.312.657.25.422.25 1.047.25 1.625m0 0"/><path id="d" d="M4.469-1.484v-.625h-.5v.609c0 .797-.36 1.14-.735 1.14-.718 0-.718-.796-.718-1.078v-3.359H4.25v-.516H2.516v-2.28h-.5c0 1.187-.578 2.374-1.766 2.406v.39h.969v3.328c0 1.266.984 1.547 1.844 1.547.874 0 1.406-.672 1.406-1.562m0 0"/><path id="e" d="M5.594-1.406c0-.14-.125-.14-.25-.14-.188 0-.203.015-.266.155-.078.235-.406 1.032-1.5 1.032-1.687 0-1.687-1.813-1.687-2.36 0-.703.015-2.265 1.578-2.265.078 0 .781.03.781.078 0 0 0 .031-.031.047a.73.73 0 0 0-.188.515c0 .5.407.703.703.703.25 0 .704-.156.704-.718 0-.985-1.375-1.063-2.016-1.063-2.125 0-2.969 1.39-2.969 2.766 0 1.625 1.14 2.734 2.89 2.734 1.876 0 2.25-1.39 2.25-1.484m0 0"/><path id="f" d="M7.172 0v-.516h-.828v-3.14c0-1.14-.485-1.719-1.797-1.719-.86 0-1.61.422-2.016 1.313h-.015v-1.313L.5-5.281v.515c.75 0 .828 0 .828.47v3.78H.5V0c.281-.031 1.14-.031 1.469-.031.343 0 1.203 0 1.484.031v-.516h-.828v-2.546c0-1.282.953-1.922 1.719-1.922.453 0 .703.28.703 1.187v3.281h-.828V0c.281-.031 1.14-.031 1.468-.031.344 0 1.204 0 1.485.031m0 0"/><path id="g" d="M5.75-1.406c0-.172-.187-.172-.25-.172-.187 0-.203.031-.281.187-.313.782-1.094 1.032-1.672 1.032-1.735 0-1.735-1.61-1.735-2.282h3.594c.266 0 .344 0 .344-.296 0-.36-.078-1.266-.64-1.813-.5-.516-1.173-.672-1.86-.672-1.86 0-2.875 1.219-2.875 2.734C.375-1.016 1.609.079 3.406.079 5.22.078 5.75-1.187 5.75-1.406M4.656-2.984H1.813c.015-.5.03-.953.28-1.391a1.32 1.32 0 0 1 1.157-.64c1.281 0 1.39 1.437 1.406 2.03m0 0"/><path id="h" d="M7-2.672c0-1.64-1.11-2.703-2.719-2.703-.703 0-1.312.234-1.797.625v-.625l-2.062.094v.515c.734 0 .828 0 .828.47v6.109H.422v.5c.266-.016 1.125-.016 1.469-.016.328 0 1.203 0 1.484.015v-.5h-.828V-.483c.297.25.828.562 1.547.562C5.719.078 7-.922 7-2.672m-1.437 0c0 1.735-.86 2.344-1.625 2.344-.5 0-1.016-.25-1.391-.813v-3.046a2 2 0 0 1 1.547-.766c.765 0 1.468.703 1.468 2.281m0 0"/><path id="j" d="M4.188-.922c0-.156-.157-.156-.22-.156-.14 0-.171.016-.234.14-.25.563-.921.626-1.156.626-1.172 0-1.219-.938-1.234-1.375h2.578c.172 0 .265 0 .265-.235 0-.344-.078-.86-.468-1.25-.453-.453-1.172-.453-1.36-.453-1.406 0-2.093.89-2.093 1.828 0 1.031.797 1.86 2.218 1.86 1.407 0 1.704-.875 1.704-.985M3.406-2H1.344c.015-.312.047-1.297 1.031-1.297S3.406-2.312 3.406-2m0 0"/><path id="k" d="M4.938 0v-.422h-.563L2.969-1.937l1-1.047c.14-.141.375-.141.781-.141v-.406c-.234.015-.594.015-.75.015-.078 0-.531 0-.812-.015v.406c.078 0 .218.031.218.078 0 .016-.062.078-.062.078l-.672.703-.797-.859h.25v-.406c-.469.015-.578.015-.969.015-.14 0-.61 0-.89-.015v.406h.562l1.297 1.406-1.11 1.157C.939-.47.86-.422.36-.422H.22V0c.25-.031.625-.031.765-.031.047 0 .532 0 .813.031v-.422c-.14 0-.188-.031-.234-.062l.875-.907.89.97h-.25V0c.469-.031.578-.031.969-.031.11 0 .61 0 .89.031m0 0"/><path id="l" d="M3.25-.984v-.407h-.453V-1c0 .547-.297.688-.485.688-.468 0-.468-.422-.468-.641v-2.172h1.234v-.406H1.844v-1.531H1.39c0 .796-.407 1.593-1.203 1.609v.328h.687v2.14c0 .829.64 1.047 1.313 1.047.609 0 1.062-.406 1.062-1.046m0 0"/><path id="m" d="M3.75-2.906c0-.438-.437-.688-.906-.688-.672 0-1 .563-1.125.86v-.86l-1.36.063v.422c.485 0 .532 0 .532.297v2.39H.359V0c.47-.031.547-.031 1.032-.031L2.469 0v-.422h-.656v-1.281c0-.625.25-1.531 1.015-1.563 0 0-.125.141-.125.36 0 .328.235.531.531.531a.514.514 0 0 0 .516-.531m0 0"/><path id="n" d="M4.688-.203c0-.219-.125-.219-.235-.219-.5 0-.5-.078-.5-.25v-1.687c0-.72-.562-1.266-1.86-1.266-.39 0-1.53 0-1.53.781 0 .36.265.547.53.547a.53.53 0 0 0 .548-.531c0-.25-.172-.406-.172-.406.062-.016.297-.063.61-.063.624 0 .905.36.905.938v.218c-1.187.016-2.75.282-2.75 1.25 0 .672.766.954 1.641.954.813 0 1.156-.438 1.266-.61 0 .25.093.547.859.547h.422c.156 0 .266 0 .266-.203m-1.704-.89c0 .812-.953.812-.984.812-.422 0-.781-.25-.781-.625 0-.563.734-.906 1.765-.922Zm0 0"/><path id="o" d="M4.063-.922c0-.14-.141-.14-.235-.14-.14 0-.172 0-.219.14-.234.531-.765.61-1.015.61-1.188 0-1.188-1.141-1.188-1.485 0-.484.016-1.453 1.094-1.453.047 0 .5.016.5.047 0 0-.016.031-.031.047a.6.6 0 0 0-.094.328c0 .312.234.531.531.531s.531-.203.531-.547c0-.781-1.156-.781-1.468-.781-1.531 0-2.14.953-2.14 1.86 0 .984.718 1.828 2.109 1.828.343 0 .75-.079 1.078-.266.422-.266.547-.672.547-.719m0 0"/><path id="p" d="M4.61-1.734c0-1-.72-1.891-2.173-1.891-1.468 0-2.171.89-2.171 1.89C.266-.78.969.064 2.438.064c1.484 0 2.171-.86 2.171-1.797M3.53-1.828c0 .687 0 1.516-1.094 1.516-1.093 0-1.093-.829-1.093-1.516 0-.656 0-1.469 1.094-1.469 1.093 0 1.093.813 1.093 1.469m0 0"/><path id="q" d="M5.172 0v-.422h-.516v-2c0-.969-.61-1.172-1.312-1.172-.969 0-1.406.64-1.5.813v-.813l-1.39.063v.422c.468 0 .515 0 .515.297v2.39H.453V0c.422-.031.703-.031 1-.031.313 0 .594 0 1.016.031v-.422h-.531v-1.594c0-.89.765-1.25 1.28-1.25.282 0 .47.141.47.766v2.078h-.532V0c.422-.031.703-.031 1.016-.031.312 0 .578 0 1 .031m0 0"/><path id="r" d="M5.094-1.781c0-.985-.719-1.813-2-1.813-.453 0-.89.125-1.281.375v-.375L.359-3.53v.422c.157 0 .297 0 .391.015.14.031.14.11.14.266v3.953H.36v.422c.437-.031.718-.031 1.015-.031.313 0 .578 0 1.016.03v-.421h-.532V-.297c.422.313.813.36 1.094.36 1.297 0 2.14-.766 2.14-1.844m-1.078 0c0 1.078-.563 1.5-1.141 1.5-.36 0-.75-.172-1.016-.563v-1.875c.141-.172.547-.5 1.11-.5.625 0 1.047.531 1.047 1.438m0 0"/><clipPath id="a"><path d="M0 0h132v116.41H0Zm0 0"/></clipPath><clipPath id="i"><path d="M299 16h68.79v84H299Zm0 0"/></clipPath></defs><path fill="#33F" d="M114.598 58.113c0-31.312-25.383-56.695-56.692-56.695-31.312 0-56.695 25.383-56.695 56.695 0 31.309 25.383 56.692 56.695 56.692 31.309 0 56.692-25.383 56.692-56.692m0 0"/><g clip-path="url(#a)"><path fill="none" stroke="#33F" stroke-miterlimit="10" stroke-width="1.196" d="M114.598 58.113c0-31.312-25.383-56.695-56.692-56.695-31.312 0-56.695 25.383-56.695 56.695 0 31.309 25.383 56.692 56.695 56.692 31.309 0 56.692-25.383 56.692-56.692Zm0 0"/></g><use xlink:href="#b" x="18.863" y="61.053"/><use xlink:href="#c" x="28.893" y="61.053"/><use xlink:href="#c" x="35.995" y="61.053"/><use xlink:href="#d" x="42.726" y="61.053"/><use xlink:href="#e" x="51.943" y="61.053"/><use xlink:href="#c" x="57.921" y="61.053"/><use xlink:href="#f" x="64.651" y="61.053"/><use xlink:href="#e" x="72.123" y="61.053"/><use xlink:href="#g" x="78.101" y="61.053"/><use xlink:href="#h" x="84.234" y="61.053"/><use xlink:href="#d" x="91.706" y="61.053"/><path fill="#7F7F7F" d="M366.176 58.113c0-13.699-11.106-24.804-24.801-24.804-13.7 0-24.805 11.105-24.805 24.804 0 13.7 11.106 24.801 24.805 24.801 13.695 0 24.8-11.102 24.8-24.8m0 0"/><g clip-path="url(#i)"><path fill="none" stroke="#7F7F7F" stroke-miterlimit="10" stroke-width="1.196" d="M366.176 58.113c0-13.699-11.106-24.804-24.801-24.804-13.7 0-24.805 11.105-24.805 24.804 0 13.7 11.106 24.801 24.805 24.801 13.695 0 24.8-11.102 24.8-24.8Zm0 0"/></g><use xlink:href="#j" x="330.267" y="55.137"/><use xlink:href="#k" x="334.738" y="55.137"/><use xlink:href="#l" x="339.895" y="55.137"/><use xlink:href="#m" x="343.689" y="55.137"/><use xlink:href="#n" x="347.722" y="55.137"/><use xlink:href="#o" x="325.03" y="64.601"/><use xlink:href="#p" x="329.366" y="64.601"/><use xlink:href="#q" x="334.251" y="64.601"/><use xlink:href="#o" x="339.679" y="64.601"/><use xlink:href="#j" x="344.015" y="64.601"/><use xlink:href="#r" x="348.486" y="64.601"/><use xlink:href="#l" x="353.914" y="64.601"/></svg>