<svg xmlns="http://www.w3.org/2000/svg" xmlns:xlink="http://www.w3.org/1999/xlink" width="87.837" height="167.24"><defs><path id="a" d="M3.89-3.734c-.265.015-.468.234-.468.453 0 .14.094.297.312.297.22 0 .454-.172.454-.563 0-.453-.422-.86-1.188-.86-1.312 0-1.687 1.016-1.687 1.454 0 .781.734.922 1.03.984.516.11 1.032.219 1.032.766 0 .25-.219 1.094-1.422 1.094-.14 0-.906 0-1.14-.532.39.047.64-.25.64-.53 0-.22-.172-.345-.375-.345-.266 0-.562.204-.562.657 0 .562.578.968 1.422.968 1.625 0 2.015-1.203 2.015-1.656a.97.97 0 0 0-.312-.719c-.266-.28-.563-.343-1-.421-.36-.079-.75-.157-.75-.61 0-.281.234-.89 1.109-.89.25 0 .75.078.89.453m0 0"/><path id="b" d="M4.281-5.578v-.297H.688v.297Zm0 0"/><path id="d" d="M5.156-2.219h-.468c-.032.203-.125.844-.266.906-.11.063-.86.063-1.016.063H1.937c.47-.39 1-.812 1.438-1.14 1.14-.844 1.781-1.313 1.781-2.25 0-1.157-1.047-1.891-2.437-1.891-1.219 0-2.156.625-2.156 1.515 0 .594.484.735.718.735C1.61-4.281 2-4.5 2-5c0-.516-.422-.672-.562-.719.28-.234.671-.343 1.03-.343.845 0 1.313.671 1.313 1.421 0 .688-.375 1.375-1.078 2.079l-2 2.046c-.14.11-.14.141-.14.344V0h4.28Zm0 0"/><clipPath id="c"><path d="M24 137h40v29.86H24Zm0 0"/></clipPath></defs><path fill="#CCF" stroke="#7F7FFF" stroke-miterlimit="10" stroke-width=".797" d="M52.34 9.54a8.503 8.503 0 0 0-8.504-8.505 8.506 8.506 0 0 0-8.504 8.504c0 4.7 3.809 8.504 8.504 8.504a8.5 8.5 0 0 0 8.504-8.504Zm0 0"/><path d="M46.05 9.54c0-1.22-.991-2.212-2.214-2.212a2.211 2.211 0 0 0 0 4.422 2.21 2.21 0 0 0 2.215-2.21m0 0"/><path fill="#CCF" stroke="#7F7FFF" stroke-miterlimit="10" stroke-width=".797" d="M52.34 46.39a8.503 8.503 0 0 0-8.504-8.503 8.506 8.506 0 0 0-8.504 8.504 8.506 8.506 0 0 0 8.504 8.504c4.7 0 8.504-3.81 8.504-8.504Zm0 0"/><path fill="#FCC" stroke="#FF4040" stroke-miterlimit="10" stroke-width=".797" d="M38.168 83.242a8.506 8.506 0 0 0-8.504-8.504 8.506 8.506 0 0 0-8.504 8.504 8.506 8.506 0 0 0 8.504 8.504 8.506 8.506 0 0 0 8.504-8.504Zm0 0"/><use xlink:href="#a" x="12.569" y="85.386" fill="red"/><path fill="#FCC" stroke="#FF4040" stroke-miterlimit="10" stroke-width=".797" d="M66.516 83.242a8.506 8.506 0 0 0-8.504-8.504 8.503 8.503 0 0 0-8.504 8.504 8.503 8.503 0 0 0 8.504 8.504 8.506 8.506 0 0 0 8.504-8.504Zm0 0"/><path d="M60.223 79.46a2.215 2.215 0 0 0-2.211-2.214 2.212 2.212 0 0 0 0 4.426c1.218 0 2.21-.992 2.21-2.211M56.906 85.273a2.212 2.212 0 0 0-4.426 0 2.214 2.214 0 0 0 4.426 0M63.54 85.273c0-1.222-.99-2.21-2.212-2.21s-2.21.988-2.21 2.21a2.211 2.211 0 0 0 4.421 0m0 0"/><use xlink:href="#b" x="70.828" y="86.07" fill="red"/><use xlink:href="#a" x="70.43" y="86.07" fill="red"/><path fill="#CCF" stroke="#7F7FFF" stroke-miterlimit="10" stroke-width=".797" d="M52.34 120.094a8.5 8.5 0 0 0-8.504-8.504 8.503 8.503 0 0 0-8.504 8.504 8.506 8.506 0 0 0 8.504 8.504c4.7 0 8.504-3.809 8.504-8.504Zm0 0"/><path fill="#CCF" d="M52.34 156.945a8.5 8.5 0 0 0-8.504-8.504 8.503 8.503 0 0 0-8.504 8.504 8.506 8.506 0 0 0 8.504 8.504c4.7 0 8.504-3.808 8.504-8.504m0 0"/><g clip-path="url(#c)"><path fill="none" stroke="#7F7FFF" stroke-miterlimit="10" stroke-width=".797" d="M52.34 156.945a8.5 8.5 0 0 0-8.504-8.504 8.503 8.503 0 0 0-8.504 8.504 8.506 8.506 0 0 0 8.504 8.504c4.7 0 8.504-3.808 8.504-8.504Zm0 0"/></g><path d="M46.05 156.945a2.216 2.216 0 0 0-2.214-2.215 2.214 2.214 0 1 0 2.215 2.215m0 0"/><path fill="#CCC" stroke="#7F7F7F" stroke-miterlimit="10" stroke-width=".797" d="M1.316 52.059h11.34V40.723H1.316Zm0 0"/><path fill="none" stroke="#000" stroke-miterlimit="10" stroke-width=".399" d="M7.035 36.633C8.148 22.066 19.961 10.262 34.934 9.539"/><path stroke="#000" stroke-linejoin="round" stroke-miterlimit="10" stroke-width=".39898803000000005" d="m6.96 39.129 1.466-3.527-1.383 1.128-1.309-1.214Zm0 0"/><path fill="none" stroke="#000" stroke-miterlimit="10" stroke-width=".399" d="m10.719 52.457 12.344 20.059"/><path stroke="#000" stroke-linejoin="round" stroke-miterlimit="10" stroke-width=".39898404" d="m24.371 74.64-.726-3.745-.528 1.707-1.762-.297Zm0 0"/><path fill="none" stroke="#000" stroke-miterlimit="10" stroke-width=".399" d="M16.047 52.934 50.793 78.03"/><path stroke="#000" stroke-linejoin="round" stroke-miterlimit="10" stroke-width=".39898404" d="m14.023 51.473 2.106 3.18-.164-1.778 1.742-.402Zm0 0"/><path fill="none" stroke="#000" stroke-miterlimit="10" stroke-width=".399" d="M13.055 46.39h18.187"/><path stroke="#000" stroke-linejoin="round" stroke-miterlimit="10" stroke-width=".399" d="m33.738 46.39-3.57-1.343 1.176 1.344-1.176 1.347Zm0 0"/><path fill="#CCC" stroke="#7F7F7F" stroke-miterlimit="10" stroke-width=".797" d="M1.316 125.762h11.34v-11.34H1.316Zm0 0"/><path fill="none" stroke="#000" stroke-miterlimit="10" stroke-width=".399" d="M7.035 129.848c1.113 14.57 12.926 26.375 27.899 27.097"/><path stroke="#000" stroke-linejoin="round" stroke-miterlimit="10" stroke-width=".39898803000000005" d="m6.96 127.355-1.226 3.614 1.309-1.219 1.383 1.129Zm0 0"/><path fill="none" stroke="#000" stroke-miterlimit="10" stroke-width=".399" d="M10.719 114.023 23.063 93.97"/><path stroke="#000" stroke-linejoin="round" stroke-miterlimit="10" stroke-width=".39898404" d="m24.371 91.84-3.016 2.336 1.762-.293.528 1.707Zm0 0"/><path fill="none" stroke="#000" stroke-miterlimit="10" stroke-width=".399" d="m16.047 113.55 34.746-25.097"/><path stroke="#000" stroke-linejoin="round" stroke-miterlimit="10" stroke-width=".39898404" d="m14.023 115.012 3.684-1-1.742-.403.164-1.78Zm0 0"/><path fill="none" stroke="#000" stroke-miterlimit="10" stroke-width=".399" d="M13.055 120.094h18.187"/><path stroke="#000" stroke-linejoin="round" stroke-miterlimit="10" stroke-width=".399" d="m33.738 120.094-3.57-1.348 1.176 1.348-1.176 1.344Zm0 0"/><path fill="#CCC" stroke="#7F7F7F" stroke-miterlimit="10" stroke-width=".797" d="M75.02 52.059h11.34V40.723H75.02Zm0 0"/><path fill="none" stroke="#000" stroke-miterlimit="10" stroke-width=".399" d="M70.93 46.39H52.738"/><path stroke="#000" stroke-linejoin="round" stroke-miterlimit="10" stroke-width=".399" d="m73.426 46.39-3.57-1.343 1.171 1.344-1.172 1.347Zm0 0"/><path fill="none" stroke="#000" stroke-miterlimit="10" stroke-width=".399" d="M71.629 52.934 36.883 78.03"/><path stroke="#000" stroke-linejoin="round" stroke-miterlimit="10" stroke-width=".39898404" d="m73.652 51.473-3.683 1 1.738.402-.164 1.777Zm0 0"/><path fill="none" stroke="#000" stroke-miterlimit="10" stroke-width=".399" d="M76.957 52.457 64.609 72.516"/><path stroke="#000" stroke-linejoin="round" stroke-miterlimit="10" stroke-width=".39898404" d="m63.305 74.64 3.015-2.335-1.761.297-.532-1.707Zm0 0"/><path fill="none" stroke="#000" stroke-miterlimit="10" stroke-width=".399" d="M80.688 40.324c.722-14.972-9.887-27.87-24.282-30.379"/><path stroke="#000" stroke-linejoin="round" stroke-miterlimit="10" stroke-width=".39898005000000003" d="m53.934 9.629 3.367 1.797-.992-1.485 1.34-1.183Zm0 0"/><use xlink:href="#d" x="76.606" y="15.624"/><path fill="#CCC" stroke="#7F7F7F" stroke-miterlimit="10" stroke-width=".797" d="M75.02 125.762h11.34v-11.34H75.02Zm0 0"/><path fill="none" stroke="#000" stroke-miterlimit="10" stroke-width=".399" d="M70.93 120.094H52.738"/><path stroke="#000" stroke-linejoin="round" stroke-miterlimit="10" stroke-width=".399" d="m73.426 120.094-3.57-1.348 1.171 1.348-1.172 1.344Zm0 0"/><path fill="none" stroke="#000" stroke-miterlimit="10" stroke-width=".399" d="M71.629 113.55 36.883 88.454"/><path stroke="#000" stroke-linejoin="round" stroke-miterlimit="10" stroke-width=".39898404" d="m73.652 115.012-2.109-3.184.164 1.781-1.738.403Zm0 0"/><path fill="none" stroke="#000" stroke-miterlimit="10" stroke-width=".399" d="M76.957 114.023 64.609 93.97"/><path stroke="#000" stroke-linejoin="round" stroke-miterlimit="10" stroke-width=".39898404" d="m63.305 91.84.722 3.75.532-1.707 1.761.293Zm0 0"/><path fill="none" stroke="#000" stroke-miterlimit="10" stroke-width=".399" d="M80.688 126.16c.722 14.973-9.887 27.871-24.282 30.38"/><path stroke="#000" stroke-linejoin="round" stroke-miterlimit="10" stroke-width=".39898005000000003" d="m53.934 156.852 3.714.875-1.34-1.184.993-1.484Zm0 0"/><use xlink:href="#d" x="76.606" y="157.384"/></svg>