<svg xmlns="http://www.w3.org/2000/svg" xmlns:xlink="http://www.w3.org/1999/xlink" width="415.155" height="89.192"><defs><path id="b" d="M5.563-1.812c.14 0 .312 0 .312-.172 0-.188-.172-.188-.312-.188H1c-.125 0-.297 0-.297.188 0 .172.172.172.297.172Zm0 0"/><path id="c" d="M2.5-5.078c0-.219-.016-.219-.234-.219-.328.313-.75.5-1.5.5v.266c.218 0 .64 0 1.109-.203v4.078c0 .297-.031.39-.781.39H.812V0c.329-.031 1.016-.031 1.376-.031s1.046 0 1.374.031v-.266h-.28c-.75 0-.782-.093-.782-.39Zm0 0"/><path id="d" d="M3.89-2.547c0-.844-.078-1.36-.343-1.875-.344-.703-1-.875-1.438-.875-1 0-1.375.75-1.484.969C.344-3.75.328-2.953.328-2.547c0 .531.016 1.328.406 1.969.36.594.954.75 1.375.75.391 0 1.063-.125 1.47-.906.296-.578.312-1.297.312-1.813M2.11-.062c-.266 0-.813-.125-.985-.954-.094-.453-.094-1.203-.094-1.625 0-.546 0-1.109.094-1.546.172-.813.781-.891.984-.891.266 0 .829.14.985.86.094.437.094 1.046.094 1.577 0 .47 0 1.188-.094 1.641-.172.828-.719.938-.985.938m0 0"/><path id="e" d="M2.25-1.625c.125-.125.453-.39.594-.5.484-.453.953-.89.953-1.61 0-.953-.797-1.562-1.781-1.562-.97 0-1.594.719-1.594 1.438 0 .39.312.437.422.437.172 0 .422-.11.422-.422 0-.406-.407-.406-.5-.406.234-.594.765-.781 1.156-.781.734 0 1.125.625 1.125 1.297 0 .828-.578 1.437-1.531 2.39l-1 1.047C.422-.219.422-.203.422 0h3.14l.235-1.422h-.25c-.016.156-.078.547-.172.703-.047.063-.656.063-.781.063H1.172Zm0 0"/><path id="f" d="M2.016-2.656c.625 0 1.03.453 1.03 1.297 0 1-.562 1.28-.983 1.28-.438 0-1.047-.155-1.329-.577.297 0 .5-.188.5-.438 0-.265-.187-.437-.453-.437-.203 0-.437.125-.437.453 0 .75.812 1.25 1.734 1.25 1.047 0 1.797-.734 1.797-1.531 0-.672-.531-1.266-1.344-1.453.625-.22 1.11-.75 1.11-1.391 0-.64-.72-1.094-1.547-1.094-.86 0-1.5.453-1.5 1.063 0 .297.187.422.406.422.25 0 .406-.172.406-.407 0-.297-.265-.406-.437-.406.344-.437.953-.469 1.094-.469.203 0 .812.063.812.89 0 .548-.234.891-.344 1.016-.234.25-.422.266-.906.297-.156 0-.219.016-.219.125 0 .11.078.11.219.11Zm0 0"/><path id="g" d="M3.14-5.156c0-.157 0-.219-.171-.219-.094 0-.11 0-.188.11L.234-1.564v.25h2.25v.672c0 .297-.015.375-.64.375h-.172V0c.672-.031.687-.031 1.14-.031.454 0 .47 0 1.141.031v-.266h-.172c-.625 0-.64-.078-.64-.375v-.671h.843v-.25h-.843Zm-.593.64v2.954H.516Zm0 0"/><path id="h" d="M1.11-4.484c.109.03.421.125.765.125 1 0 1.594-.703 1.594-.828 0-.094-.047-.11-.094-.11-.016 0-.031 0-.094.031a3 3 0 0 1-1.11.22c-.468 0-.858-.11-1.108-.22-.079-.03-.094-.03-.11-.03-.094 0-.094.077-.094.234v2.328c0 .14 0 .234.125.234.063 0 .079-.031.125-.094.094-.11.391-.515 1.079-.515.437 0 .656.359.734.515.125.281.14.656.14.953s0 .735-.218 1.079c-.156.25-.485.484-.906.484A1.27 1.27 0 0 1 .734-.922c.016.016.079.016.079.016.218 0 .406-.14.406-.39a.39.39 0 0 0-.39-.407c-.157 0-.407.078-.407.422 0 .718.625 1.453 1.531 1.453 1 0 1.844-.781 1.844-1.766 0-.922-.672-1.75-1.61-1.75-.39 0-.765.125-1.078.406Zm0 0"/><path id="i" d="M1.094-2.64c0-.657.062-1.235.343-1.72.25-.406.657-.734 1.157-.734.156 0 .515.032.703.297-.36.031-.39.297-.39.375 0 .25.187.375.374.375.14 0 .375-.078.375-.39 0-.47-.36-.86-1.078-.86C1.468-5.297.344-4.25.344-2.53.344-.36 1.359.172 2.125.172c.39 0 .797-.11 1.156-.453.328-.313.594-.64.594-1.344 0-1.031-.797-1.766-1.672-1.766-.578 0-.922.36-1.11.75M2.125-.079a.88.88 0 0 1-.797-.516c-.187-.36-.203-.89-.203-1.203 0-.781.422-1.375 1.047-1.375.39 0 .64.203.781.485.172.296.172.656.172 1.062s0 .75-.156 1.047c-.219.36-.485.5-.844.5m0 0"/><path id="j" d="M4.031-4.86c.078-.077.078-.093.078-.265H2.08a9 9 0 0 1-.642-.031c-.421-.032-.421-.11-.453-.235h-.25L.47-3.703h.25c.015-.125.11-.672.219-.735.078-.046.687-.046.796-.046h1.688l-.813 1.109C1.703-2.172 1.5-.906 1.5-.281c0 .078 0 .453.375.453s.375-.36.375-.453v-.39c0-1.141.203-2.079.594-2.61Zm0 0"/><path id="k" d="M2.64-2.875c.454-.219 1-.61 1-1.234 0-.766-.78-1.188-1.515-1.188-.844 0-1.531.578-1.531 1.328 0 .297.094.563.297.797.14.172.172.188.656.5C.563-2.234.344-1.656.344-1.219c0 .89.89 1.39 1.765 1.39.97 0 1.766-.671 1.766-1.515 0-.5-.266-.828-.406-.968-.125-.126-.14-.141-.828-.563m-1.234-.75c-.234-.14-.422-.375-.422-.64 0-.5.547-.829 1.125-.829.61 0 1.125.422 1.125.985 0 .453-.359.843-.828 1.078Zm.39 1.094c.032.015.938.578 1.079.656.125.078.547.328.547.813 0 .609-.656.984-1.297.984-.719 0-1.312-.484-1.312-1.14 0-.594.437-1.063.984-1.313m0 0"/><path id="l" d="M3.125-2.344c0 1.938-.922 2.266-1.39 2.266-.173 0-.579-.016-.798-.266.36-.031.375-.297.375-.375a.37.37 0 0 0-.375-.375.37.37 0 0 0-.375.39c0 .548.454.876 1.188.876 1.094 0 2.125-1.094 2.125-2.797 0-2.062-.922-2.672-1.734-2.672-.953 0-1.797.734-1.797 1.781 0 1.016.781 1.766 1.687 1.766.563 0 .906-.36 1.094-.766Zm-1.062.375c-.376 0-.61-.172-.782-.468-.187-.282-.187-.672-.187-1.079 0-.468 0-.796.218-1.125.204-.296.454-.453.829-.453.53 0 .765.532.797.563.156.39.171 1.015.171 1.172 0 .64-.343 1.39-1.046 1.39m0 0"/><path id="m" d="M2.031-2.156h.735c-.125.531-.203.922-.203 1.312 0 .297.093.907.374.907A.29.29 0 0 0 3.22-.22a.3.3 0 0 0-.031-.125 2.2 2.2 0 0 1-.266-1.094c0-.093 0-.359.078-.718h.797c.062 0 .328 0 .328-.25 0-.172-.172-.172-.266-.172H1.47c-.11 0-.39 0-.703.297-.188.172-.407.469-.407.515 0 .094.079.094.11.094.062 0 .078-.016.125-.062.094-.157.328-.422.812-.422h.39c-.202.75-.608 1.547-.687 1.703-.046.094-.125.25-.125.312 0 .125.094.204.22.204.202 0 .28-.22.343-.407.11-.375.11-.39.203-.703Zm0 0"/><path id="n" d="M3.219-1.125H3c-.016.094-.078.484-.156.547-.047.047-.531.047-.625.047h-1.11l.766-.625c.203-.172.734-.547.922-.735.172-.171.422-.484.422-.906 0-.75-.672-1.187-1.485-1.187-.765 0-1.296.515-1.296 1.078 0 .297.25.344.312.344a.32.32 0 0 0 .328-.329c0-.125-.078-.328-.344-.328.141-.297.5-.531.922-.531.625 0 .953.469.953.953 0 .422-.28.86-.687 1.25L.5-.25C.438-.187.438-.187.438 0H3.03Zm0 0"/><path id="o" d="M1.625-.437a.463.463 0 0 0-.453-.454.447.447 0 0 0-.438.438.44.44 0 0 0 .438.453.45.45 0 0 0 .453-.437m0 0"/><clipPath id="a"><path d="M13 0h401.734v83H13Zm0 0"/></clipPath></defs><path fill="none" stroke="#BFBFBF" stroke-miterlimit="10" stroke-width=".399" d="M42.164 74.18V3.313M77.594 74.18V3.313M113.027 74.18V3.313M148.46 74.18V3.313M183.895 74.18V3.313M219.328 74.18V3.313M254.762 74.18V3.313M290.195 74.18V3.313M325.629 74.18V3.313M361.063 74.18V3.313M396.496 74.18V3.313M133.254 74.18V3.313M21.938 74.18h389.601M21.938 56.465h389.601M21.938 38.746h389.601M21.938 21.031h389.601M21.938 3.313h389.601"/><path fill="none" stroke="#7F7F7F" stroke-linecap="round" stroke-miterlimit="10" stroke-width=".399" d="M42.164 76.172V74.18M77.594 76.172V74.18M113.027 76.172V74.18M148.46 76.172V74.18M183.895 76.172V74.18M219.328 76.172V74.18M254.762 76.172V74.18M290.195 76.172V74.18M325.629 76.172V74.18M361.063 76.172V74.18M396.496 76.172V74.18M133.254 76.172V74.18M42.164 3.313V1.32M77.594 3.313V1.32M113.027 3.313V1.32M148.46 3.313V1.32M183.895 3.313V1.32M219.328 3.313V1.32M254.762 3.313V1.32M290.195 3.313V1.32M325.629 3.313V1.32M361.063 3.313V1.32M396.496 3.313V1.32M133.254 3.313V1.32M19.945 74.18h1.992M19.945 56.465h1.992M19.945 38.746h1.992M19.945 21.031h1.992M19.945 3.313h1.992M411.54 74.18h1.995M411.54 56.465h1.995M411.54 38.746h1.995M411.54 21.031h1.995M411.54 3.313h1.995"/><path fill="none" stroke="#7F7F7F" stroke-miterlimit="10" stroke-width=".399" d="M21.938 74.18h389.601M21.938 3.313h389.601M21.938 74.18V3.313M411.54 74.18V3.313"/><g clip-path="url(#a)"><path fill="none" stroke="#000" stroke-miterlimit="10" stroke-width=".598" d="M21.938 74.18s5.746-.403 7.949-.89c2.207-.485 5.746-1.673 7.953-2.622 2.207-.95 5.746-2.856 7.95-4.219 2.206-1.367 5.745-3.902 7.952-5.613 2.207-1.707 5.746-4.746 7.95-6.715 2.206-1.973 5.746-5.355 7.953-7.488 2.207-2.137 5.746-5.7 7.949-7.887 2.207-2.187 5.746-5.75 7.953-7.883s5.742-5.515 7.95-7.488c2.206-1.973 5.745-5.008 7.952-6.719 2.207-1.71 5.742-4.246 7.95-5.61 2.206-1.362 5.746-3.273 7.953-4.222s5.742-2.133 7.949-2.62c2.207-.49 5.746-.891 7.953-.891s5.742.402 7.95.89c2.206.488 5.745 1.672 7.952 2.621 2.203.95 5.742 2.856 7.95 4.219 2.207 1.367 5.746 3.902 7.953 5.613 2.203 1.707 5.742 4.746 7.949 6.715 2.207 1.973 5.746 5.356 7.953 7.488 2.203 2.133 5.742 5.7 7.95 7.887 2.206 2.188 5.745 5.75 7.952 7.883 2.203 2.133 5.742 5.516 7.95 7.488 2.207 1.973 5.746 5.008 7.949 6.719 2.207 1.71 5.746 4.246 7.953 5.61 2.207 1.367 5.746 3.273 7.95 4.222 2.206.95 5.745 2.137 7.952 2.621 2.207.488 5.746.89 7.95.89 2.206 0 5.745-.402 7.953-.886 2.207-.488 5.746-1.672 7.949-2.621 2.207-.95 5.746-2.856 7.953-4.223 2.207-1.363 5.746-3.898 7.95-5.61 2.206-1.71 5.745-4.745 7.952-6.718 2.207-1.969 5.742-5.351 7.95-7.484 2.206-2.137 5.746-5.7 7.953-7.887s5.742-5.75 7.949-7.883 5.746-5.515 7.953-7.488 5.742-5.008 7.95-6.719c2.206-1.71 5.745-4.246 7.952-5.613 2.207-1.363 5.742-3.27 7.95-4.219 2.207-.953 5.746-2.137 7.953-2.625s5.742-.887 7.949-.89c2.207 0 5.746.402 7.953.89 2.203.484 5.742 1.668 7.95 2.617 2.206.95 5.745 2.86 7.952 4.223 2.203 1.363 5.742 3.898 7.95 5.61 2.207 1.71 5.746 4.745 7.953 6.714 2.203 1.973 5.742 5.356 7.949 7.488 2.207 2.137 7.95 7.887 7.95 7.887"/></g><use xlink:href="#b" x="36.752" y="83.964"/><use xlink:href="#c" x="43.339" y="83.964"/><use xlink:href="#d" x="75.478" y="83.964"/><use xlink:href="#c" x="110.91" y="83.964"/><use xlink:href="#e" x="146.344" y="83.964"/><use xlink:href="#f" x="181.776" y="83.964"/><use xlink:href="#g" x="217.209" y="83.964"/><use xlink:href="#h" x="252.643" y="83.964"/><use xlink:href="#i" x="288.075" y="83.964"/><use xlink:href="#j" x="323.509" y="83.964"/><use xlink:href="#k" x="358.942" y="83.964"/><use xlink:href="#l" x="394.375" y="83.964"/><use xlink:href="#m" x="130.974" y="81.402"/><path fill="none" stroke="#000" stroke-miterlimit="10" stroke-width=".359" d="M130.973 82.668h4.558"/><use xlink:href="#n" x="131.427" y="87.786"/><use xlink:href="#b" x="6.468" y="76.333"/><use xlink:href="#c" x="13.055" y="76.333"/><use xlink:href="#b" x="-.118" y="58.617"/><use xlink:href="#d" x="6.468" y="58.617"/><use xlink:href="#o" x="10.703" y="58.617"/><use xlink:href="#h" x="13.055" y="58.617"/><use xlink:href="#d" x="13.055" y="41.315"/><use xlink:href="#d" x="6.468" y="23.599"/><use xlink:href="#o" x="10.703" y="23.599"/><use xlink:href="#h" x="13.055" y="23.599"/><use xlink:href="#c" x="13.055" y="5.883"/></svg>