<svg xmlns="http://www.w3.org/2000/svg" width="87.466" height="59.114"><defs><clipPath id="a"><path d="M0 0h87.2v58.672H0Zm0 0"/></clipPath></defs><path fill="none" stroke="#7F7F7F" stroke-miterlimit="10" stroke-width=".199" d="M.95 57.469h85.042M.95 29.12h85.043M.95.785h85.043M.95 57.47V.773M29.297 57.47V.773M57.645 57.47V.773M85.98 57.47V.773"/><g fill="none" stroke-miterlimit="10" stroke-width=".399" clip-path="url(#a)"><path stroke="#000" d="M.95 57.469 85.991 29.12C85.992 13.465 66.953.773 43.47.773 19.989.773.949 13.465.949 29.121"/><path stroke="red" d="m.95 57.469 1.952-1.551m7.5-1.602 1.95-1.546m7.5-1.602 1.953-1.55m7.5-1.602 1.949-1.547m7.5-1.602 1.953-1.55m7.5-1.602 1.95-1.547m7.5-1.602 1.948-1.55m7.504-1.602 1.95-1.547m7.5-1.601 1.949-1.551m7.484-1.645-.86-2.336m-1.636-7.203-1.86-1.656m-4.425-6.008-2.324-.89m-5.977-4.57-2.472-.282m-6.833-3.238-2.48.203M49.82 1.086l-2.414.617M39.871.875l-2.289.98m-7.574.368-2.098 1.34M20.531 5.25l-1.816 1.703m-6.836 3.192-1.375 2.078m-5.613 4.96-.641 2.41m-3.098 6.731.504 2.442"/></g></svg>