<svg xmlns="http://www.w3.org/2000/svg" xmlns:xlink="http://www.w3.org/1999/xlink" width="106.847" height="112.783"><defs><path id="a" d="M5.516-.234c0-.235-.125-.235-.266-.235-.61-.015-.61-.14-.61-.375v-2.14c0-.891-.702-1.532-2.187-1.532-.562 0-1.781.047-1.781.922 0 .438.344.625.61.625.312 0 .624-.219.624-.625 0-.297-.187-.469-.218-.5a5 5 0 0 1 .718-.062c.75 0 1.11.422 1.11 1.172v.343c-.72.032-3.25.125-3.25 1.563C.266-.125 1.5.062 2.188.062c.796 0 1.265-.406 1.484-.828 0 .313 0 .766 1.047.766h.468c.204 0 .329 0 .329-.234m-2-1.157c0 .97-.922 1.094-1.172 1.094-.516 0-.906-.344-.906-.797 0-1.062 1.578-1.203 2.078-1.234Zm0 0"/><path id="b" d="M5.984-2.219c0-1.328-.937-2.265-2.39-2.265-.719 0-1.219.28-1.453.484v-2.922l-1.766.078v.469c.61 0 .688 0 .688.39V0h.468c.157-.187.328-.375.485-.562.078.078.562.625 1.453.625 1.484 0 2.515-.907 2.515-2.282m-1.28 0c0 .469 0 1.016-.25 1.406-.298.407-.75.516-1.079.516-.687 0-1.078-.547-1.187-.687v-2.5c.28-.36.75-.641 1.296-.641 1.22 0 1.22 1.203 1.22 1.906m0 0"/><path id="c" d="M4.766-1.172c0-.14-.141-.14-.235-.14-.187 0-.187.03-.25.156-.25.625-.734.812-1.234.812-1.39 0-1.39-1.453-1.39-1.922 0-.562 0-1.843 1.28-1.843.36 0 .516.015.657.046a.62.62 0 0 0-.203.47c0 .437.343.624.609.624.313 0 .64-.219.64-.625 0-.86-1.156-.922-1.734-.922C1.11-4.516.375-3.375.375-2.219.375-.89 1.313.063 2.844.063c1.625 0 1.922-1.157 1.922-1.235m0 0"/><path id="d" d="M5.984 0v-.469c-.609 0-.687 0-.687-.39v-6.063l-1.766.078v.469c.625 0 .703 0 .703.39v1.954a2.18 2.18 0 0 0-1.359-.453c-1.453 0-2.5.875-2.5 2.28 0 1.313.922 2.267 2.39 2.267.61 0 1.094-.235 1.407-.485v.485ZM4.172-1.031c-.14.187-.547.734-1.297.734-1.219 0-1.219-1.203-1.219-1.906 0-.485 0-1.016.25-1.406.297-.422.766-.516 1.078-.516.563 0 .97.313 1.188.61Zm0 0"/><path id="e" d="M4.922-1.172c0-.172-.188-.172-.234-.172-.172 0-.188.047-.25.203-.204.485-.782.797-1.422.797-1.407 0-1.422-1.328-1.422-1.828h3.015c.22 0 .313 0 .313-.265 0-.313-.063-1.047-.563-1.547-.359-.36-.89-.532-1.578-.532C1.187-4.516.313-3.484.313-2.25c0 1.344 1 2.313 2.609 2.313 1.578 0 2-1.063 2-1.235M3.984-2.5h-2.39c.015-.39.031-.812.234-1.14.266-.391.672-.516.953-.516 1.172 0 1.188 1.312 1.203 1.656m0 0"/><path id="f" d="M4.36-6.11c0-.421-.36-.874-1.141-.874-.969 0-2.047.422-2.047 1.547v1.015h-.75v.469h.75V-.47H.484V0l1.25-.031c.375 0 1.016 0 1.375.031v-.469H2.25v-3.484h1.14v-.469H2.188v-1.016c0-1.093.75-1.187 1-1.187.047 0 .11 0 .172.031a.59.59 0 0 0-.234.485c0 .422.36.609.61.609.296 0 .624-.203.624-.61m0 0"/><path id="g" d="M5.563-3.953c0-.235-.172-.578-.625-.578-.157 0-.625.031-1.063.375-.172-.125-.594-.328-1.328-.328-1.438 0-1.985.78-1.985 1.468 0 .407.188.829.516 1.047-.281.36-.344.688-.344.89 0 .157.047.642.438.954-.125.031-.86.25-.86.875C.313 1.25.876 2 2.86 2 4.625 2 5.406 1.422 5.406.719c0-.297-.078-.922-.75-1.266-.562-.281-1.156-.281-2.11-.281-.265 0-.718 0-.765-.016a.625.625 0 0 1-.562-.625c0-.093.047-.25.11-.328.452.234.968.266 1.218.266 1.437 0 1.984-.782 1.984-1.485 0-.468-.25-.796-.406-.953.297-.156.516-.172.625-.187a.43.43 0 0 0-.047.203c0 .25.172.422.438.422a.41.41 0 0 0 .422-.422m-2.141.937c0 .454 0 1.125-.875 1.125s-.875-.671-.875-1.125c0-.437 0-1.109.875-1.109s.875.672.875 1.11M4.547.75c0 .36-.39.89-1.688.89-1.187 0-1.687-.452-1.687-.906 0-.609.625-.609.766-.609h1.171c.313 0 1.438 0 1.438.625m0 0"/><path id="h" d="M6.125 0v-.469h-.687v-2.578c0-1.047-.532-1.437-1.532-1.437a1.9 1.9 0 0 0-1.687.953v-3.39l-1.766.077v.469c.61 0 .688 0 .688.39v5.516H.453V0l1.25-.031L2.953 0v-.469h-.687v-2.078c0-1.094.859-1.578 1.5-1.578.328 0 .547.203.547.969V-.47h-.688V0l1.25-.031Zm0 0"/><path id="i" d="M3.297-1.469c0-.14-.125-.14-.281-.14-.235 0-.25 0-.313.25-.078.328-.265 1.078-.594 1.078-.125 0-.203-.078-.203-.313 0-.187.032-.265.063-.422l1.406-5.562c0-.047.031-.11.031-.156 0-.188-.187-.188-.328-.172l-1.219.062c-.109 0-.312 0-.312.297 0 .172.172.172.266.172.125 0 .296.016.421.031L.954-1.172c-.048.156-.048.219-.048.281 0 .641.594.97 1.156.97.47 0 .72-.345.844-.532.266-.422.39-.984.39-1.016m0 0"/><path id="j" d="M5.344-.86c0-.078-.203-.312-.297-.312-.031 0-.078 0-.14.063-.735.828-1.75.828-1.891.828-.547 0-.844-.328-.844-.922 0-.25.078-.625.156-.969h.406c.594 0 2.563 0 2.563-1.375C5.297-4.14 4.75-4.5 4-4.5c-1.719 0-2.906 1.297-2.906 2.828 0 1.078.672 1.75 1.922 1.75.297 0 .89-.031 1.406-.219.531-.203.922-.593.922-.718m-.688-2.702c0 1.03-1.625 1.03-2.234 1.03.14-.5.234-.796.531-1.124A1.45 1.45 0 0 1 4-4.141c.422 0 .656.266.656.579m0 0"/><path id="k" d="M5.36-6.203C5.36-6.672 4.89-7 4.233-7 3-7 2.72-5.906 2.625-5.406l-.187.984H1.53c-.172 0-.36 0-.36.281 0 .188.173.188.329.188h.86L1.655-.156c-.093.531-.125.64-.25 1.14-.031.141-.172.672-.5.672 0 0-.156 0-.297-.078a.74.74 0 0 0 .407-.64c0-.266-.203-.454-.5-.454a.717.717 0 0 0-.703.735c0 .5.5.797 1.078.797.375 0 1.203-.22 1.672-1.688.124-.422.171-.625.265-1.062l.594-3.22h1.094c.172 0 .343 0 .343-.296 0-.172-.171-.172-.312-.172H3.516c.078-.469.312-1.828.375-1.969.062-.125.203-.25.343-.25.047 0 .188.016.329.079-.22.125-.407.359-.407.64 0 .266.203.453.5.453a.727.727 0 0 0 .703-.734m0 0"/><path id="l" d="M4.172-1.469c0-.14-.125-.14-.281-.14-.22 0-.22 0-.297.156-.422 1-.906 1.172-1.172 1.172-.094 0-.203-.016-.203-.313 0-.187.015-.265.047-.422l.75-2.937h.797c.171 0 .328 0 .328-.297 0-.172-.157-.172-.297-.172h-.719l.188-.797c.078-.25.187-.687.187-.765 0-.235-.172-.422-.453-.422-.125 0-.5.062-.625.531l-.36 1.453H1.25c-.172 0-.344 0-.344.281 0 .188.172.188.313.188h.718L1.25-1.172c-.047.156-.047.219-.047.281 0 .625.578.97 1.172.97 1.14 0 1.797-1.391 1.797-1.548m0 0"/><path id="m" d="M5.61-3.625c0-.516-.548-.875-1.266-.875-.39 0-.86.11-1.282.531C2.892-4.28 2.5-4.5 2-4.5c-.469 0-.719.328-.844.531-.265.422-.39.985-.39 1.016 0 .14.125.14.28.14.235 0 .25-.015.313-.265.094-.328.266-1.063.61-1.063.11 0 .187.079.187.297 0 .188-.015.281-.062.438L1.39-.562c-.047.14-.047.156-.047.218 0 .297.234.422.453.422.062 0 .5-.015.625-.531l.672-2.719c.062-.234.515-.969 1.219-.969.109 0 .343 0 .546.157-.468.218-.468.64-.468.672 0 .25.187.468.5.468.375 0 .718-.328.718-.781m0 0"/><path id="n" d="M3.89-1.469c0-.14-.124-.14-.28-.14-.188 0-.235 0-.282.125-.078.265-.344 1.203-.922 1.203-.047 0-.14 0-.14-.172 0-.14.078-.39.093-.406l.891-2.375c.063-.157.094-.235.094-.391 0-.547-.516-.875-1.047-.875C1.25-4.5.766-3.156.766-2.953c0 .14.125.14.28.14.188 0 .235 0 .282-.124.078-.266.344-1.204.922-1.204.047 0 .125 0 .125.172 0 .125-.062.375-.078.406l-.89 2.36c-.063.172-.095.25-.095.39 0 .563.516.891 1.047.891 1.047 0 1.532-1.344 1.532-1.547m.141-4.656a.6.6 0 0 0-.625-.594c-.453 0-.89.422-.89.86 0 .328.25.609.625.609.468 0 .89-.437.89-.875m0 0"/><path id="o" d="m4.5.64 1.078-4.312c.031-.172.031-.25.031-.25 0-.219-.171-.422-.453-.422-.265 0-.375.11-.468.203-.282-.265-.594-.359-.954-.359-1.703 0-2.671 1.64-2.671 2.922C1.063-.516 1.78 0 2.688 0c.312 0 .624-.078.968-.266l-.172.704c-.25.921-.812 1.218-1.343 1.218-.282 0-.5-.031-.625-.062a.8.8 0 0 0 .28-.563c0-.25-.187-.453-.5-.453a.727.727 0 0 0-.702.735c0 .625.781.703 1.515.703C3.313 2.016 4.281 1.5 4.5.64m-.625-1.812c-.094.36-.672.813-1.156.813-.531 0-.578-.485-.578-.703 0-.547.359-1.766.484-2.11.328-.828.844-.969 1.11-.969.296 0 .609.157.734.594Zm0 0"/><path id="p" d="M6.234-1.469c0-.14-.14-.14-.28-.14-.188 0-.235 0-.282.125-.078.265-.344 1.203-.922 1.203-.047 0-.14 0-.14-.172 0-.219.109-.469.234-.813.14-.375.593-1.546.593-2.109 0-.828-.593-1.125-1.375-1.125-.515 0-.906.156-1.343.5l.656-2.578c0-.047.031-.11.031-.156 0-.188-.187-.188-.328-.172l-1.219.062c-.109 0-.312 0-.312.297 0 .172.172.172.266.172.125 0 .296.016.421.031L.797-.562C.75-.422.75-.406.75-.344c0 .25.203.422.469.422.11 0 .5-.047.61-.531l.624-2.484c.063-.266.625-1.204 1.531-1.204.438 0 .438.375.438.563 0 .594-.469 1.828-.64 2.266-.095.25-.126.359-.126.5 0 .562.516.89 1.047.89 1.031 0 1.531-1.344 1.531-1.547m0 0"/></defs><path fill="none" stroke="#000" stroke-miterlimit="10" stroke-width=".399" d="M47.223 8.992 31.668 24.547"/><path fill="none" stroke="#000" stroke-linecap="round" stroke-linejoin="round" stroke-miterlimit="10" stroke-width=".39899601" d="M34.68 24.914c-1.282-.746-2.356-.629-3.153-.226.403-.797.52-1.872-.226-3.157"/><path fill="none" stroke="#000" stroke-miterlimit="10" stroke-width=".399" d="m58.836 8.992 16.453 16.453"/><path fill="none" stroke="#000" stroke-linecap="round" stroke-linejoin="round" stroke-miterlimit="10" stroke-width=".39899601" d="M75.652 22.43c-.746 1.28-.629 2.355-.222 3.156-.801-.406-1.875-.524-3.157.226"/><path fill="none" stroke="#000" stroke-miterlimit="10" stroke-width=".399" d="m21.18 38.54-7.59 15.175"/><path fill="none" stroke="#000" stroke-linecap="round" stroke-linejoin="round" stroke-miterlimit="10" stroke-width=".39896808000000006" d="M16.566 53.11c-1.453-.301-2.437.148-3.066.785.133-.887-.098-1.942-1.21-2.922"/><path fill="none" stroke="#000" stroke-miterlimit="10" stroke-width=".399" d="m28.184 38.54 6.988 13.976"/><path fill="none" stroke="#000" stroke-linecap="round" stroke-linejoin="round" stroke-miterlimit="10" stroke-width=".39896808000000006" d="M36.473 49.773c-1.114.977-1.34 2.036-1.211 2.922-.63-.636-1.614-1.09-3.063-.785"/><path fill="none" stroke="#000" stroke-miterlimit="10" stroke-width=".399" d="m78.473 37.34-7.59 15.176"/><path fill="none" stroke="#000" stroke-linecap="round" stroke-linejoin="round" stroke-miterlimit="10" stroke-width=".39896808000000006" d="M73.86 51.91c-1.454-.305-2.434.149-3.067.785.133-.886-.098-1.945-1.211-2.922"/><path fill="none" stroke="#000" stroke-miterlimit="10" stroke-width=".399" d="m84.277 37.34 7.7 15.394"/><path fill="none" stroke="#000" stroke-linecap="round" stroke-linejoin="round" stroke-miterlimit="10" stroke-width=".39896808000000006" d="M93.277 49.992c-1.113.98-1.343 2.035-1.21 2.922-.63-.637-1.614-1.086-3.067-.785"/><path fill="none" stroke="#000" stroke-miterlimit="10" stroke-width=".399" d="M95.547 66.668v14.184"/><path fill="none" stroke="#000" stroke-linecap="round" stroke-linejoin="round" stroke-miterlimit="10" stroke-width=".399" d="M97.941 78.977c-1.437.378-2.113 1.222-2.394 2.074-.277-.852-.953-1.696-2.39-2.074"/><path fill="none" stroke="#000" stroke-miterlimit="10" stroke-width=".399" d="m49.465 58.504 8.562 2.215"/><path fill="none" stroke="#000" stroke-linecap="round" stroke-linejoin="round" stroke-miterlimit="10" stroke-width=".39897606" d="M50.68 61.29c-.008-1.485-.657-2.352-1.41-2.833.894-.059 1.878-.504 2.605-1.797M56.813 57.938c.007 1.48.656 2.347 1.41 2.832-.895.058-1.88.5-2.606 1.796"/><use xlink:href="#a" x="50.243" y="5.412"/><use xlink:href="#b" x="21.498" y="34.959"/><use xlink:href="#c" x="7.963" y="62.105"/><use xlink:href="#d" x="35.672" y="63.306"/><use xlink:href="#e" x="78.749" y="33.758"/><use xlink:href="#f" x="65.453" y="63.365"/><use xlink:href="#g" x="92.683" y="61.144"/><use xlink:href="#h" x="92.365" y="91.681"/><path fill="none" stroke="#000" stroke-miterlimit="10" stroke-width=".399" d="M1.121 83.156H48.88V21.203H1.12Zm0 0"/><use xlink:href="#i" x="16.96" y="79.837"/><use xlink:href="#j" x="19.919" y="79.837"/><use xlink:href="#k" x="25.22" y="79.837"/><use xlink:href="#l" x="29.205" y="79.837"/><path fill="none" stroke="#000" stroke-miterlimit="10" stroke-width=".399" d="M58.613 111.473h46.957V22.406H58.613Zm0 0"/><use xlink:href="#m" x="70.306" y="108.153"/><use xlink:href="#n" x="75.308" y="108.153"/><use xlink:href="#o" x="78.854" y="108.153"/><use xlink:href="#p" x="84.155" y="108.153"/><use xlink:href="#l" x="90.042" y="108.153"/></svg>