<svg xmlns="http://www.w3.org/2000/svg" xmlns:xlink="http://www.w3.org/1999/xlink" width="32.459" height="29.298"><defs><path id="a" d="M3.828-1.25c0-.469-.265-.75-.422-.89-.406-.329-.687-.376-1.39-.5-.438-.063-1-.157-1-.563 0-.531.828-.531 1.03-.531 1 0 1.032.53 1.063.765 0 .125.125.125.22.125.218 0 .233-.047.233-.265v-.688c0-.172 0-.265-.187-.265-.078 0-.234.078-.39.156-.282-.125-.641-.156-.938-.156-.266 0-1.703 0-1.703 1.187 0 .938 1.187 1.14 1.5 1.188.734.125 1.328.218 1.328.734 0 .64-.844.64-1.047.64-.453 0-1.047-.109-1.297-.937-.047-.156-.062-.172-.25-.172-.234 0-.234.047-.234.266v.953c0 .156 0 .25.187.25.063 0 .078 0 .282-.125l.234-.14c.422.265.906.265 1.078.265.266 0 1.703 0 1.703-1.297m0 0"/><path id="b" d="M8.594 0v-.437h-.61v-2.297c0-1.063-.625-1.297-1.421-1.297-.938 0-1.391.562-1.563.843C4.813-4 4.016-4.03 3.625-4.03c-1.11 0-1.547.797-1.61.937H2v-.937L.453-3.97v.438c.531 0 .61 0 .61.36v2.734h-.61V0l1.125-.031L2.718 0v-.437H2.11v-1.844c0-1 .829-1.39 1.36-1.39.344 0 .531.171.531.858v2.376h-.61V0l1.126-.031L5.656 0v-.437h-.61v-1.844c0-1 .829-1.39 1.36-1.39.344 0 .532.171.532.858v2.376h-.61V0l1.14-.031Zm0 0"/><path id="c" d="M5.11-.219c0-.218-.157-.218-.235-.218-.578-.016-.578-.094-.578-.313v-1.922c0-.797-.64-1.39-2.031-1.39-.5 0-1.657.015-1.657.843 0 .406.313.594.579.594.312 0 .593-.219.593-.578 0-.266-.156-.422-.187-.453.093-.016.312-.047.64-.047.641 0 1.016.328 1.016 1.031v.281C1.766-2.39.25-2 .25-1 .25-.11 1.375.047 2.016.047c.687 0 1.156-.281 1.39-.703 0 .219 0 .656.969.656h.438c.171 0 .296 0 .296-.219M3.25-1.25c0 .938-1.047.938-1.078.938-.453 0-.828-.282-.828-.688 0-.297.156-1 1.906-1.078Zm0 0"/><path id="d" d="M2.688 0v-.437h-.61V-6.22l-1.61.063v.437c.532 0 .61 0 .61.36v4.922h-.61V0l1.095-.031Zm0 0"/></defs><path fill="none" stroke="#000" stroke-miterlimit="10" stroke-width=".399" d="M.93 27.75h30.058V.848H.93Zm0 0"/><use xlink:href="#a" x="3.917" y="17.383"/><use xlink:href="#b" x="8.105" y="17.383"/><use xlink:href="#c" x="16.946" y="17.383"/><use xlink:href="#d" x="22.101" y="17.383"/><use xlink:href="#d" x="25.051" y="17.383"/></svg>