<svg xmlns="http://www.w3.org/2000/svg" xmlns:xlink="http://www.w3.org/1999/xlink" width="59.092" height="30.745"><defs><clipPath id="c"><path d="M.746 27H1v1.625H.746Zm0 0"/></clipPath><clipPath id="d"><path d="M2.004 27h1.992v1.625H2.004Zm0 0"/></clipPath><clipPath id="e"><path d="M5 27h1.984v1.625H5Zm0 0"/></clipPath><clipPath id="f"><path d="M8 27h1.973v1.625H8Zm0 0"/></clipPath><clipPath id="g"><path d="M11 27h1.96v1.625H11Zm0 0"/></clipPath><clipPath id="h"><path d="M14 27h1.95v1.625H14Zm0 0"/></clipPath><clipPath id="i"><path d="M17 27h1.938v1.625H17Zm0 0"/></clipPath><clipPath id="j"><path d="M20 27h1.93v1.625H20Zm0 0"/></clipPath><clipPath id="k"><path d="M23 27h1.918v1.625H23Zm0 0"/></clipPath><clipPath id="l"><path d="M26 27h1.906v1.625H26Zm0 0"/></clipPath><clipPath id="m"><path d="M29 27h.094v1.625H29Zm0 0"/></clipPath><clipPath id="n"><path d="M.746 24H1v1.637H.746Zm0 0"/></clipPath><clipPath id="o"><path d="M2.004 24h1.992v1.637H2.004Zm0 0"/></clipPath><clipPath id="p"><path d="M5 24h1.984v1.637H5Zm0 0"/></clipPath><clipPath id="q"><path d="M8 24h1.973v1.637H8Zm0 0"/></clipPath><clipPath id="r"><path d="M11 24h1.96v1.637H11Zm0 0"/></clipPath><clipPath id="s"><path d="M14 24h1.95v1.637H14Zm0 0"/></clipPath><clipPath id="t"><path d="M17 24h1.938v1.637H17Zm0 0"/></clipPath><clipPath id="u"><path d="M20 24h1.93v1.637H20Zm0 0"/></clipPath><clipPath id="v"><path d="M23 24h1.918v1.637H23Zm0 0"/></clipPath><clipPath id="w"><path d="M26 24h1.906v1.637H26Zm0 0"/></clipPath><clipPath id="x"><path d="M29 24h.094v1.637H29Zm0 0"/></clipPath><clipPath id="y"><path d="M.746 21H1v1.648H.746Zm0 0"/></clipPath><clipPath id="z"><path d="M2.004 21h1.992v1.648H2.004Zm0 0"/></clipPath><clipPath id="A"><path d="M5 21h1.984v1.648H5Zm0 0"/></clipPath><clipPath id="B"><path d="M8 21h1.973v1.648H8Zm0 0"/></clipPath><clipPath id="C"><path d="M11 21h1.96v1.648H11Zm0 0"/></clipPath><clipPath id="D"><path d="M14 21h1.95v1.648H14Zm0 0"/></clipPath><clipPath id="E"><path d="M17 21h1.938v1.648H17Zm0 0"/></clipPath><clipPath id="F"><path d="M20 21h1.93v1.648H20Zm0 0"/></clipPath><clipPath id="G"><path d="M23 21h1.918v1.648H23Zm0 0"/></clipPath><clipPath id="H"><path d="M26 21h1.906v1.648H26Zm0 0"/></clipPath><clipPath id="I"><path d="M29 21h.094v1.648H29Zm0 0"/></clipPath><clipPath id="J"><path d="M.746 18H1v1.66H.746Zm0 0"/></clipPath><clipPath id="K"><path d="M2.004 18h1.992v1.66H2.004Zm0 0"/></clipPath><clipPath id="L"><path d="M5 18h1.984v1.66H5Zm0 0"/></clipPath><clipPath id="M"><path d="M8 18h1.973v1.66H8Zm0 0"/></clipPath><clipPath id="N"><path d="M11 18h1.96v1.66H11Zm0 0"/></clipPath><clipPath id="O"><path d="M14 18h1.95v1.66H14Zm0 0"/></clipPath><clipPath id="P"><path d="M17 18h1.938v1.66H17Zm0 0"/></clipPath><clipPath id="Q"><path d="M20 18h1.93v1.66H20Zm0 0"/></clipPath><clipPath id="R"><path d="M23 18h1.918v1.66H23Zm0 0"/></clipPath><clipPath id="S"><path d="M26 18h1.906v1.66H26Zm0 0"/></clipPath><clipPath id="T"><path d="M29 18h.094v1.66H29Zm0 0"/></clipPath><clipPath id="U"><path d="M.746 15H1v1.672H.746Zm0 0"/></clipPath><clipPath id="V"><path d="M2.004 15h1.992v1.672H2.004Zm0 0"/></clipPath><clipPath id="W"><path d="M5 15h1.984v1.672H5Zm0 0"/></clipPath><clipPath id="X"><path d="M8 15h1.973v1.672H8Zm0 0"/></clipPath><clipPath id="Y"><path d="M11 15h1.96v1.672H11Zm0 0"/></clipPath><clipPath id="Z"><path d="M14 15h1.95v1.672H14Zm0 0"/></clipPath><clipPath id="aa"><path d="M17 15h1.938v1.672H17Zm0 0"/></clipPath><clipPath id="ab"><path d="M20 15h1.93v1.672H20Zm0 0"/></clipPath><clipPath id="ac"><path d="M23 15h1.918v1.672H23Zm0 0"/></clipPath><clipPath id="ad"><path d="M26 15h1.906v1.672H26Zm0 0"/></clipPath><clipPath id="ae"><path d="M29 15h.094v1.672H29Zm0 0"/></clipPath><clipPath id="af"><path d="M.746 12H1v1.68H.746Zm0 0"/></clipPath><clipPath id="ag"><path d="M2.004 12h1.992v1.68H2.004Zm0 0"/></clipPath><clipPath id="ah"><path d="M5 12h1.984v1.68H5Zm0 0"/></clipPath><clipPath id="ai"><path d="M8 12h1.973v1.68H8Zm0 0"/></clipPath><clipPath id="aj"><path d="M11 12h1.96v1.68H11Zm0 0"/></clipPath><clipPath id="ak"><path d="M14 12h1.95v1.68H14Zm0 0"/></clipPath><clipPath id="al"><path d="M17 12h1.938v1.68H17Zm0 0"/></clipPath><clipPath id="am"><path d="M20 12h1.93v1.68H20Zm0 0"/></clipPath><clipPath id="an"><path d="M23 12h1.918v1.68H23Zm0 0"/></clipPath><clipPath id="ao"><path d="M26 12h1.906v1.68H26Zm0 0"/></clipPath><clipPath id="ap"><path d="M29 12h.094v1.68H29Zm0 0"/></clipPath><clipPath id="aq"><path d="M.746 9H1v1.691H.746Zm0 0"/></clipPath><clipPath id="ar"><path d="M2.004 9h1.992v1.691H2.004Zm0 0"/></clipPath><clipPath id="as"><path d="M5 9h1.984v1.691H5Zm0 0"/></clipPath><clipPath id="at"><path d="M8 9h1.973v1.691H8Zm0 0"/></clipPath><clipPath id="au"><path d="M11 9h1.96v1.691H11Zm0 0"/></clipPath><clipPath id="av"><path d="M14 9h1.95v1.691H14Zm0 0"/></clipPath><clipPath id="aw"><path d="M17 9h1.938v1.691H17Zm0 0"/></clipPath><clipPath id="ax"><path d="M20 9h1.93v1.691H20Zm0 0"/></clipPath><clipPath id="ay"><path d="M23 9h1.918v1.691H23Zm0 0"/></clipPath><clipPath id="az"><path d="M26 9h1.906v1.691H26Zm0 0"/></clipPath><clipPath id="aA"><path d="M29 9h.094v1.691H29Zm0 0"/></clipPath><clipPath id="aB"><path d="M.746 6H1v1.703H.746Zm0 0"/></clipPath><clipPath id="aC"><path d="M2.004 6h1.992v1.703H2.004Zm0 0"/></clipPath><clipPath id="aD"><path d="M5 6h1.984v1.703H5Zm0 0"/></clipPath><clipPath id="aE"><path d="M8 6h1.973v1.703H8Zm0 0"/></clipPath><clipPath id="aF"><path d="M11 6h1.96v1.703H11Zm0 0"/></clipPath><clipPath id="aG"><path d="M14 6h1.95v1.703H14Zm0 0"/></clipPath><clipPath id="aH"><path d="M17 6h1.938v1.703H17Zm0 0"/></clipPath><clipPath id="aI"><path d="M20 6h1.93v1.703H20Zm0 0"/></clipPath><clipPath id="aJ"><path d="M23 6h1.918v1.703H23Zm0 0"/></clipPath><clipPath id="aK"><path d="M26 6h1.906v1.703H26Zm0 0"/></clipPath><clipPath id="aL"><path d="M29 6h.094v1.703H29Zm0 0"/></clipPath><clipPath id="aM"><path d="M.746 3H1v1.715H.746Zm0 0"/></clipPath><clipPath id="aN"><path d="M2.004 3h1.992v1.715H2.004Zm0 0"/></clipPath><clipPath id="aO"><path d="M5 3h1.984v1.715H5Zm0 0"/></clipPath><clipPath id="aP"><path d="M8 3h1.973v1.715H8Zm0 0"/></clipPath><clipPath id="aQ"><path d="M11 3h1.96v1.715H11Zm0 0"/></clipPath><clipPath id="aR"><path d="M14 3h1.95v1.715H14Zm0 0"/></clipPath><clipPath id="aS"><path d="M17 3h1.938v1.715H17Zm0 0"/></clipPath><clipPath id="aT"><path d="M20 3h1.93v1.715H20Zm0 0"/></clipPath><clipPath id="aU"><path d="M23 3h1.918v1.715H23Zm0 0"/></clipPath><clipPath id="aV"><path d="M26 3h1.906v1.715H26Zm0 0"/></clipPath><clipPath id="aW"><path d="M29 3h.094v1.715H29Zm0 0"/></clipPath><clipPath id="aX"><path d="M.746 1.07H1v.657H.746Zm0 0"/></clipPath><clipPath id="aY"><path d="M2.004 1.07h1.992v.657H2.004Zm0 0"/></clipPath><clipPath id="aZ"><path d="M5 1.07h1.984v.657H5Zm0 0"/></clipPath><clipPath id="ba"><path d="M8 1.07h1.973v.657H8Zm0 0"/></clipPath><clipPath id="bb"><path d="M11 1.07h1.96v.657H11Zm0 0"/></clipPath><clipPath id="bc"><path d="M14 1.07h1.95v.657H14Zm0 0"/></clipPath><clipPath id="bd"><path d="M17 1.07h1.938v.657H17Zm0 0"/></clipPath><clipPath id="be"><path d="M20 1.07h1.93v.657H20Zm0 0"/></clipPath><clipPath id="bf"><path d="M23 1.07h1.918v.657H23Zm0 0"/></clipPath><clipPath id="bg"><path d="M26 1.07h1.906v.657H26Zm0 0"/></clipPath><clipPath id="bh"><path d="M29 1.07h.094v.657H29Zm0 0"/></clipPath><clipPath id="bi"><path d="M.746 27H1v2H.746Zm0 0"/></clipPath><clipPath id="bj"><path d="M29 27h.094v2H29Zm0 0"/></clipPath><clipPath id="bk"><path d="M.746 24H1v2H.746Zm0 0"/></clipPath><clipPath id="bl"><path d="M29 24h.094v2H29Zm0 0"/></clipPath><clipPath id="bm"><path d="M.746 21H1v2H.746Zm0 0"/></clipPath><clipPath id="bn"><path d="M29 21h.094v2H29Zm0 0"/></clipPath><clipPath id="bo"><path d="M.746 18H1v2H.746Zm0 0"/></clipPath><clipPath id="bp"><path d="M29 18h.094v2H29Zm0 0"/></clipPath><clipPath id="bq"><path d="M.746 15H1v2H.746Zm0 0"/></clipPath><clipPath id="br"><path d="M29 15h.094v2H29Zm0 0"/></clipPath><clipPath id="bs"><path d="M.746 12H1v2H.746Zm0 0"/></clipPath><clipPath id="bt"><path d="M29 12h.094v2H29Zm0 0"/></clipPath><clipPath id="bu"><path d="M.746 9H1v2H.746Zm0 0"/></clipPath><clipPath id="bv"><path d="M29 9h.094v2H29Zm0 0"/></clipPath><clipPath id="bw"><path d="M.746 6H1v2H.746Zm0 0"/></clipPath><clipPath id="bx"><path d="M29 6h.094v2H29Zm0 0"/></clipPath><clipPath id="by"><path d="M.746 3H1v2H.746Zm0 0"/></clipPath><clipPath id="bz"><path d="M29 3h.094v2H29Zm0 0"/></clipPath><clipPath id="bA"><path d="M.746 1.07H1V2H.746Zm0 0"/></clipPath><clipPath id="bB"><path d="M2 1.07h2V2H2Zm0 0"/></clipPath><clipPath id="bC"><path d="M5 1.07h2V2H5Zm0 0"/></clipPath><clipPath id="bD"><path d="M8 1.07h2V2H8Zm0 0"/></clipPath><clipPath id="bE"><path d="M11 1.07h2V2h-2Zm0 0"/></clipPath><clipPath id="bF"><path d="M14 1.07h2V2h-2Zm0 0"/></clipPath><clipPath id="bG"><path d="M17 1.07h2V2h-2Zm0 0"/></clipPath><clipPath id="bH"><path d="M20 1.07h2V2h-2Zm0 0"/></clipPath><clipPath id="bI"><path d="M23 1.07h2V2h-2Zm0 0"/></clipPath><clipPath id="bJ"><path d="M26 1.07h2V2h-2Zm0 0"/></clipPath><clipPath id="bK"><path d="M29 1.07h.094V2H29Zm0 0"/></clipPath><clipPath id="bL"><path d="M29.094 28.129H32v1.289h-2.906Zm0 0"/></clipPath><clipPath id="bM"><path d="M32 28.129h3v1.289h-3Zm0 0"/></clipPath><clipPath id="bN"><path d="M35 28.129h3v1.289h-3Zm0 0"/></clipPath><clipPath id="bO"><path d="M38 28.129h3v1.289h-3Zm0 0"/></clipPath><clipPath id="bP"><path d="M41 28.129h3v1.289h-3Zm0 0"/></clipPath><clipPath id="bQ"><path d="M44 28.129h3v1.289h-3Zm0 0"/></clipPath><clipPath id="bR"><path d="M47 28.129h3v1.289h-3Zm0 0"/></clipPath><clipPath id="bS"><path d="M50 28.129h3v1.289h-3Zm0 0"/></clipPath><clipPath id="bT"><path d="M53 28.129h3v1.289h-3Zm0 0"/></clipPath><clipPath id="bU"><path d="M56 28.129h1.438v1.289H56Zm0 0"/></clipPath><clipPath id="bV"><path d="M29.094 25.137H32v3.488h-2.906Zm0 0"/></clipPath><clipPath id="bW"><path d="M32 25.137h3v3.488h-3Zm0 0"/></clipPath><clipPath id="bX"><path d="M35 25.137h3v3.488h-3Zm0 0"/></clipPath><clipPath id="bY"><path d="M38 25.137h3v3.488h-3Zm0 0"/></clipPath><clipPath id="bZ"><path d="M41 25.137h3v3.488h-3Zm0 0"/></clipPath><clipPath id="ca"><path d="M44 25.137h3v3.488h-3Zm0 0"/></clipPath><clipPath id="cb"><path d="M47 25.137h3v3.488h-3Zm0 0"/></clipPath><clipPath id="cc"><path d="M50 25.137h3v3.488h-3Zm0 0"/></clipPath><clipPath id="cd"><path d="M53 25.137h3v3.488h-3Zm0 0"/></clipPath><clipPath id="ce"><path d="M56 25.137h1.438v3.488H56Zm0 0"/></clipPath><clipPath id="cf"><path d="M29.094 22.148H32v3.489h-2.906Zm0 0"/></clipPath><clipPath id="cg"><path d="M32 22.148h3v3.489h-3Zm0 0"/></clipPath><clipPath id="ch"><path d="M35 22.148h3v3.489h-3Zm0 0"/></clipPath><clipPath id="ci"><path d="M38 22.148h3v3.489h-3Zm0 0"/></clipPath><clipPath id="cj"><path d="M41 22.148h3v3.489h-3Zm0 0"/></clipPath><clipPath id="ck"><path d="M44 22.148h3v3.489h-3Zm0 0"/></clipPath><clipPath id="cl"><path d="M47 22.148h3v3.489h-3Zm0 0"/></clipPath><clipPath id="cm"><path d="M50 22.148h3v3.489h-3Zm0 0"/></clipPath><clipPath id="cn"><path d="M53 22.148h3v3.489h-3Zm0 0"/></clipPath><clipPath id="co"><path d="M56 22.148h1.438v3.489H56Zm0 0"/></clipPath><clipPath id="cp"><path d="M29.094 19.16H32v3.488h-2.906Zm0 0"/></clipPath><clipPath id="cq"><path d="M32 19.16h3v3.488h-3Zm0 0"/></clipPath><clipPath id="cr"><path d="M35 19.16h3v3.488h-3Zm0 0"/></clipPath><clipPath id="cs"><path d="M38 19.16h3v3.488h-3Zm0 0"/></clipPath><clipPath id="ct"><path d="M41 19.16h3v3.488h-3Zm0 0"/></clipPath><clipPath id="cu"><path d="M44 19.16h3v3.488h-3Zm0 0"/></clipPath><clipPath id="cv"><path d="M47 19.16h3v3.488h-3Zm0 0"/></clipPath><clipPath id="cw"><path d="M50 19.16h3v3.488h-3Zm0 0"/></clipPath><clipPath id="cx"><path d="M53 19.16h3v3.488h-3Zm0 0"/></clipPath><clipPath id="cy"><path d="M56 19.16h1.438v3.488H56Zm0 0"/></clipPath><clipPath id="cz"><path d="M29.094 16.172H32v3.488h-2.906Zm0 0"/></clipPath><clipPath id="cA"><path d="M32 16.172h3v3.488h-3Zm0 0"/></clipPath><clipPath id="cB"><path d="M35 16.172h3v3.488h-3Zm0 0"/></clipPath><clipPath id="cC"><path d="M38 16.172h3v3.488h-3Zm0 0"/></clipPath><clipPath id="cD"><path d="M41 16.172h3v3.488h-3Zm0 0"/></clipPath><clipPath id="cE"><path d="M44 16.172h3v3.488h-3Zm0 0"/></clipPath><clipPath id="cF"><path d="M47 16.172h3v3.488h-3Zm0 0"/></clipPath><clipPath id="cG"><path d="M50 16.172h3v3.488h-3Zm0 0"/></clipPath><clipPath id="cH"><path d="M53 16.172h3v3.488h-3Zm0 0"/></clipPath><clipPath id="cI"><path d="M56 16.172h1.438v3.488H56Zm0 0"/></clipPath><clipPath id="cJ"><path d="M29.094 13.184H32v3.488h-2.906Zm0 0"/></clipPath><clipPath id="cK"><path d="M32 13.184h3v3.488h-3Zm0 0"/></clipPath><clipPath id="cL"><path d="M35 13.184h3v3.488h-3Zm0 0"/></clipPath><clipPath id="cM"><path d="M38 13.184h3v3.488h-3Zm0 0"/></clipPath><clipPath id="cN"><path d="M41 13.184h3v3.488h-3Zm0 0"/></clipPath><clipPath id="cO"><path d="M44 13.184h3v3.488h-3Zm0 0"/></clipPath><clipPath id="cP"><path d="M47 13.184h3v3.488h-3Zm0 0"/></clipPath><clipPath id="cQ"><path d="M50 13.184h3v3.488h-3Zm0 0"/></clipPath><clipPath id="cR"><path d="M53 13.184h3v3.488h-3Zm0 0"/></clipPath><clipPath id="cS"><path d="M56 13.184h1.438v3.488H56Zm0 0"/></clipPath><clipPath id="cT"><path d="M29.094 10.195H32v3.485h-2.906Zm0 0"/></clipPath><clipPath id="cU"><path d="M32 10.195h3v3.485h-3Zm0 0"/></clipPath><clipPath id="cV"><path d="M35 10.195h3v3.485h-3Zm0 0"/></clipPath><clipPath id="cW"><path d="M38 10.195h3v3.485h-3Zm0 0"/></clipPath><clipPath id="cX"><path d="M41 10.195h3v3.485h-3Zm0 0"/></clipPath><clipPath id="cY"><path d="M44 10.195h3v3.485h-3Zm0 0"/></clipPath><clipPath id="cZ"><path d="M47 10.195h3v3.485h-3Zm0 0"/></clipPath><clipPath id="da"><path d="M50 10.195h3v3.485h-3Zm0 0"/></clipPath><clipPath id="db"><path d="M53 10.195h3v3.485h-3Zm0 0"/></clipPath><clipPath id="dc"><path d="M56 10.195h1.438v3.485H56Zm0 0"/></clipPath><clipPath id="dd"><path d="M29.094 7.207H32v3.484h-2.906Zm0 0"/></clipPath><clipPath id="de"><path d="M32 7.207h3v3.484h-3Zm0 0"/></clipPath><clipPath id="df"><path d="M35 7.207h3v3.484h-3Zm0 0"/></clipPath><clipPath id="dg"><path d="M38 7.207h3v3.484h-3Zm0 0"/></clipPath><clipPath id="dh"><path d="M41 7.207h3v3.484h-3Zm0 0"/></clipPath><clipPath id="di"><path d="M44 7.207h3v3.484h-3Zm0 0"/></clipPath><clipPath id="dj"><path d="M47 7.207h3v3.484h-3Zm0 0"/></clipPath><clipPath id="dk"><path d="M50 7.207h3v3.484h-3Zm0 0"/></clipPath><clipPath id="dl"><path d="M53 7.207h3v3.484h-3Zm0 0"/></clipPath><clipPath id="dm"><path d="M56 7.207h1.438v3.484H56Zm0 0"/></clipPath><clipPath id="dn"><path d="M29.094 4.215H32v3.488h-2.906Zm0 0"/></clipPath><clipPath id="do"><path d="M32 4.215h3v3.488h-3Zm0 0"/></clipPath><clipPath id="dp"><path d="M35 4.215h3v3.488h-3Zm0 0"/></clipPath><clipPath id="dq"><path d="M38 4.215h3v3.488h-3Zm0 0"/></clipPath><clipPath id="dr"><path d="M41 4.215h3v3.488h-3Zm0 0"/></clipPath><clipPath id="ds"><path d="M44 4.215h3v3.488h-3Zm0 0"/></clipPath><clipPath id="dt"><path d="M47 4.215h3v3.488h-3Zm0 0"/></clipPath><clipPath id="du"><path d="M50 4.215h3v3.488h-3Zm0 0"/></clipPath><clipPath id="dv"><path d="M53 4.215h3v3.488h-3Zm0 0"/></clipPath><clipPath id="dw"><path d="M56 4.215h1.438v3.488H56Zm0 0"/></clipPath><clipPath id="dx"><path d="M29.094 1.227H32v3.488h-2.906Zm0 0"/></clipPath><clipPath id="dy"><path d="M32 1.227h3v3.488h-3Zm0 0"/></clipPath><clipPath id="dz"><path d="M35 1.227h3v3.488h-3Zm0 0"/></clipPath><clipPath id="dA"><path d="M38 1.227h3v3.488h-3Zm0 0"/></clipPath><clipPath id="dB"><path d="M41 1.227h3v3.488h-3Zm0 0"/></clipPath><clipPath id="dC"><path d="M44 1.227h3v3.488h-3Zm0 0"/></clipPath><clipPath id="dD"><path d="M47 1.227h3v3.488h-3Zm0 0"/></clipPath><clipPath id="dE"><path d="M50 1.227h3v3.488h-3Zm0 0"/></clipPath><clipPath id="dF"><path d="M53 1.227h3v3.488h-3Zm0 0"/></clipPath><clipPath id="dG"><path d="M56 1.227h1.438v3.488H56Zm0 0"/></clipPath><clipPath id="dH"><path d="M29.094 1.07H32v.657h-2.906Zm0 0"/></clipPath><clipPath id="dI"><path d="M32 1.07h3v.657h-3Zm0 0"/></clipPath><clipPath id="dJ"><path d="M35 1.07h3v.657h-3Zm0 0"/></clipPath><clipPath id="dK"><path d="M38 1.07h3v.657h-3Zm0 0"/></clipPath><clipPath id="dL"><path d="M41 1.07h3v.657h-3Zm0 0"/></clipPath><clipPath id="dM"><path d="M44 1.07h3v.657h-3Zm0 0"/></clipPath><clipPath id="dN"><path d="M47 1.07h3v.657h-3Zm0 0"/></clipPath><clipPath id="dO"><path d="M50 1.07h3v.657h-3Zm0 0"/></clipPath><clipPath id="dP"><path d="M53 1.07h3v.657h-3Zm0 0"/></clipPath><clipPath id="dQ"><path d="M56 1.07h1.438v.657H56Zm0 0"/></clipPath><clipPath id="dR"><path d="M29.094 1.07h28.344v28.348H29.094Zm0 0"/></clipPath><clipPath id="a"><path d="M0 0h3v3H0z"/></clipPath><pattern id="dS" width="3" height="3" x="0" y="0" patternTransform="scale(.70446 -.70446)rotate(45 23219.847 -9905.962)" patternUnits="userSpaceOnUse"><use xlink:href="#b"/></pattern><g id="b" clip-path="url(#a)"><path fill="#00F" d="M2.207 1.5a.707.707 0 1 1-1.414 0 .707.707 0 0 1 1.414 0m0 0"/></g></defs><g clip-path="url(#c)"><path fill="#FF7F00" d="M.508 27.629a.5.5 0 0 0-.496-.5.501.501 0 0 0 0 1 .5.5 0 0 0 .496-.5m0 0"/></g><g clip-path="url(#d)"><path fill="#FF7F00" d="M3.496 27.629a.5.5 0 0 0-.496-.5.501.501 0 0 0 0 1 .5.5 0 0 0 .496-.5m0 0"/></g><g clip-path="url(#e)"><path fill="#FF7F00" d="M6.484 27.629a.5.5 0 0 0-.496-.5.501.501 0 0 0 0 1 .5.5 0 0 0 .496-.5m0 0"/></g><g clip-path="url(#f)"><path fill="#FF7F00" d="M9.473 27.629a.5.5 0 0 0-.496-.5c-.274 0-.5.226-.5.5 0 .273.226.5.5.5a.5.5 0 0 0 .496-.5m0 0"/></g><g clip-path="url(#g)"><path fill="#FF7F00" d="M12.465 27.629c0-.274-.223-.5-.5-.5a.5.5 0 0 0 0 1c.277 0 .5-.227.5-.5m0 0"/></g><g clip-path="url(#h)"><path fill="#FF7F00" d="M15.453 27.629c0-.274-.223-.5-.5-.5a.5.5 0 0 0 0 1c.277 0 .5-.227.5-.5m0 0"/></g><g clip-path="url(#i)"><path fill="#FF7F00" d="M18.441 27.629c0-.274-.222-.5-.5-.5a.5.5 0 0 0 0 1c.278 0 .5-.227.5-.5m0 0"/></g><g clip-path="url(#j)"><path fill="#FF7F00" d="M21.43 27.629a.5.5 0 0 0-.496-.5.501.501 0 0 0 0 1 .5.5 0 0 0 .496-.5m0 0"/></g><g clip-path="url(#k)"><path fill="#FF7F00" d="M24.418 27.629a.5.5 0 0 0-.496-.5.501.501 0 0 0 0 1 .5.5 0 0 0 .496-.5m0 0"/></g><g clip-path="url(#l)"><path fill="#FF7F00" d="M27.406 27.629a.5.5 0 0 0-.496-.5.501.501 0 0 0 0 1 .5.5 0 0 0 .496-.5m0 0"/></g><g clip-path="url(#m)"><path fill="#FF7F00" d="M30.395 27.629a.5.5 0 0 0-.497-.5.501.501 0 0 0 0 1 .5.5 0 0 0 .497-.5m0 0"/></g><g clip-path="url(#n)"><path fill="#FF7F00" d="M.508 24.64a.498.498 0 1 0-.995-.004.498.498 0 0 0 .995.005m0 0"/></g><g clip-path="url(#o)"><path fill="#FF7F00" d="M3.496 24.64a.498.498 0 1 0-.995-.004.498.498 0 0 0 .995.005m0 0"/></g><g clip-path="url(#p)"><path fill="#FF7F00" d="M6.484 24.64a.498.498 0 1 0-.995-.004.498.498 0 0 0 .995.005m0 0"/></g><g clip-path="url(#q)"><path fill="#FF7F00" d="M9.473 24.64a.498.498 0 1 0-.996-.004.498.498 0 0 0 .996.005m0 0"/></g><g clip-path="url(#r)"><path fill="#FF7F00" d="M12.465 24.64a.498.498 0 1 0-.997-.002.498.498 0 0 0 .997.003m0 0"/></g><g clip-path="url(#s)"><path fill="#FF7F00" d="M15.453 24.64a.498.498 0 1 0-.997-.002.498.498 0 0 0 .997.003m0 0"/></g><g clip-path="url(#t)"><path fill="#FF7F00" d="M18.441 24.64a.498.498 0 1 0-.997-.002.498.498 0 0 0 .997.003m0 0"/></g><g clip-path="url(#u)"><path fill="#FF7F00" d="M21.43 24.64a.498.498 0 1 0-.996-.004.498.498 0 0 0 .996.005m0 0"/></g><g clip-path="url(#v)"><path fill="#FF7F00" d="M24.418 24.64a.498.498 0 1 0-.995-.004.498.498 0 0 0 .995.005m0 0"/></g><g clip-path="url(#w)"><path fill="#FF7F00" d="M27.406 24.64a.498.498 0 1 0-.995-.004.498.498 0 0 0 .995.005m0 0"/></g><g clip-path="url(#x)"><path fill="#FF7F00" d="M30.395 24.64a.498.498 0 1 0-.996-.004.498.498 0 0 0 .996.005m0 0"/></g><g clip-path="url(#y)"><path fill="#FF7F00" d="M.508 21.652a.498.498 0 1 0-.995-.004.498.498 0 0 0 .995.004m0 0"/></g><g clip-path="url(#z)"><path fill="#FF7F00" d="M3.496 21.652a.498.498 0 1 0-.995-.004.498.498 0 0 0 .995.004m0 0"/></g><g clip-path="url(#A)"><path fill="#FF7F00" d="M6.484 21.652a.498.498 0 1 0-.995-.004.498.498 0 0 0 .995.004m0 0"/></g><g clip-path="url(#B)"><path fill="#FF7F00" d="M9.473 21.652a.498.498 0 1 0-.996-.004.498.498 0 0 0 .996.004m0 0"/></g><g clip-path="url(#C)"><path fill="#FF7F00" d="M12.465 21.652a.498.498 0 1 0-.997-.003.498.498 0 0 0 .997.003m0 0"/></g><g clip-path="url(#D)"><path fill="#FF7F00" d="M15.453 21.652a.498.498 0 1 0-.997-.003.498.498 0 0 0 .997.003m0 0"/></g><g clip-path="url(#E)"><path fill="#FF7F00" d="M18.441 21.652a.498.498 0 1 0-.997-.003.498.498 0 0 0 .997.003m0 0"/></g><g clip-path="url(#F)"><path fill="#FF7F00" d="M21.43 21.652a.498.498 0 1 0-.996-.004.498.498 0 0 0 .996.004m0 0"/></g><g clip-path="url(#G)"><path fill="#FF7F00" d="M24.418 21.652a.498.498 0 1 0-.995-.004.498.498 0 0 0 .995.004m0 0"/></g><g clip-path="url(#H)"><path fill="#FF7F00" d="M27.406 21.652a.498.498 0 1 0-.995-.004.498.498 0 0 0 .995.004m0 0"/></g><g clip-path="url(#I)"><path fill="#FF7F00" d="M30.395 21.652a.498.498 0 1 0-.996-.004.498.498 0 0 0 .996.004m0 0"/></g><g clip-path="url(#J)"><path fill="#FF7F00" d="M.508 18.664a.498.498 0 1 0-.995-.005.498.498 0 0 0 .995.005m0 0"/></g><g clip-path="url(#K)"><path fill="#FF7F00" d="M3.496 18.664a.498.498 0 1 0-.995-.005.498.498 0 0 0 .995.005m0 0"/></g><g clip-path="url(#L)"><path fill="#FF7F00" d="M6.484 18.664a.498.498 0 1 0-.995-.005.498.498 0 0 0 .995.005m0 0"/></g><g clip-path="url(#M)"><path fill="#FF7F00" d="M9.473 18.664a.498.498 0 1 0-.996-.005.498.498 0 0 0 .996.005m0 0"/></g><g clip-path="url(#N)"><path fill="#FF7F00" d="M12.465 18.664a.498.498 0 1 0-.997-.003.498.498 0 0 0 .997.003m0 0"/></g><g clip-path="url(#O)"><path fill="#FF7F00" d="M15.453 18.664a.498.498 0 1 0-.997-.003.498.498 0 0 0 .997.003m0 0"/></g><g clip-path="url(#P)"><path fill="#FF7F00" d="M18.441 18.664a.498.498 0 1 0-.997-.003.498.498 0 0 0 .997.003m0 0"/></g><g clip-path="url(#Q)"><path fill="#FF7F00" d="M21.43 18.664a.498.498 0 1 0-.996-.005.498.498 0 0 0 .996.005m0 0"/></g><g clip-path="url(#R)"><path fill="#FF7F00" d="M24.418 18.664a.498.498 0 1 0-.995-.005.498.498 0 0 0 .995.005m0 0"/></g><g clip-path="url(#S)"><path fill="#FF7F00" d="M27.406 18.664a.498.498 0 1 0-.995-.005.498.498 0 0 0 .995.005m0 0"/></g><g clip-path="url(#T)"><path fill="#FF7F00" d="M30.395 18.664a.498.498 0 1 0-.996-.005.498.498 0 0 0 .996.005m0 0"/></g><g clip-path="url(#U)"><path fill="#FF7F00" d="M.508 15.672a.498.498 0 1 0-.997.003.498.498 0 0 0 .997-.003m0 0"/></g><g clip-path="url(#V)"><path fill="#FF7F00" d="M3.496 15.672a.498.498 0 1 0-.997.003.498.498 0 0 0 .997-.003m0 0"/></g><g clip-path="url(#W)"><path fill="#FF7F00" d="M6.484 15.672a.498.498 0 1 0-.997.003.498.498 0 0 0 .997-.003m0 0"/></g><g clip-path="url(#X)"><path fill="#FF7F00" d="M9.473 15.672a.497.497 0 0 0-.496-.496.5.5 0 0 0-.5.496.498.498 0 1 0 .996 0m0 0"/></g><g clip-path="url(#Y)"><path fill="#FF7F00" d="M12.465 15.672a.498.498 0 1 0-.995.003.498.498 0 0 0 .995-.003m0 0"/></g><g clip-path="url(#Z)"><path fill="#FF7F00" d="M15.453 15.672a.498.498 0 1 0-.995.003.498.498 0 0 0 .995-.003m0 0"/></g><g clip-path="url(#aa)"><path fill="#FF7F00" d="M18.441 15.672a.498.498 0 1 0-.995.003.498.498 0 0 0 .995-.003m0 0"/></g><g clip-path="url(#ab)"><path fill="#FF7F00" d="M21.43 15.672a.498.498 0 1 0-.997.003.498.498 0 0 0 .997-.003m0 0"/></g><g clip-path="url(#ac)"><path fill="#FF7F00" d="M24.418 15.672a.498.498 0 1 0-.997.003.498.498 0 0 0 .997-.003m0 0"/></g><g clip-path="url(#ad)"><path fill="#FF7F00" d="M27.406 15.672a.498.498 0 1 0-.997.003.498.498 0 0 0 .997-.003m0 0"/></g><g clip-path="url(#ae)"><path fill="#FF7F00" d="M30.395 15.672a.498.498 0 1 0-.997.003.498.498 0 0 0 .997-.003m0 0"/></g><g clip-path="url(#af)"><path fill="#FF7F00" d="M.508 12.684a.498.498 0 1 0-.997.003.498.498 0 0 0 .997-.003m0 0"/></g><g clip-path="url(#ag)"><path fill="#FF7F00" d="M3.496 12.684a.498.498 0 1 0-.997.003.498.498 0 0 0 .997-.003m0 0"/></g><g clip-path="url(#ah)"><path fill="#FF7F00" d="M6.484 12.684a.498.498 0 1 0-.997.003.498.498 0 0 0 .997-.003m0 0"/></g><g clip-path="url(#ai)"><path fill="#FF7F00" d="M9.473 12.684a.497.497 0 0 0-.496-.496.5.5 0 0 0-.5.496.498.498 0 1 0 .996 0m0 0"/></g><g clip-path="url(#aj)"><path fill="#FF7F00" d="M12.465 12.684a.498.498 0 1 0-.995.003.498.498 0 0 0 .995-.003m0 0"/></g><g clip-path="url(#ak)"><path fill="#FF7F00" d="M15.453 12.684a.498.498 0 1 0-.995.003.498.498 0 0 0 .995-.003m0 0"/></g><g clip-path="url(#al)"><path fill="#FF7F00" d="M18.441 12.684a.498.498 0 1 0-.995.003.498.498 0 0 0 .995-.003m0 0"/></g><g clip-path="url(#am)"><path fill="#FF7F00" d="M21.43 12.684a.498.498 0 1 0-.997.003.498.498 0 0 0 .997-.003m0 0"/></g><g clip-path="url(#an)"><path fill="#FF7F00" d="M24.418 12.684a.498.498 0 1 0-.997.003.498.498 0 0 0 .997-.003m0 0"/></g><g clip-path="url(#ao)"><path fill="#FF7F00" d="M27.406 12.684a.498.498 0 1 0-.997.003.498.498 0 0 0 .997-.003m0 0"/></g><g clip-path="url(#ap)"><path fill="#FF7F00" d="M30.395 12.684a.498.498 0 1 0-.997.003.498.498 0 0 0 .997-.003m0 0"/></g><g clip-path="url(#aq)"><path fill="#FF7F00" d="M.508 9.695a.498.498 0 1 0-.997.003.498.498 0 0 0 .997-.003m0 0"/></g><g clip-path="url(#ar)"><path fill="#FF7F00" d="M3.496 9.695a.498.498 0 1 0-.997.003.498.498 0 0 0 .997-.003m0 0"/></g><g clip-path="url(#as)"><path fill="#FF7F00" d="M6.484 9.695a.498.498 0 1 0-.997.003.498.498 0 0 0 .997-.003m0 0"/></g><g clip-path="url(#at)"><path fill="#FF7F00" d="M9.473 9.695a.497.497 0 0 0-.496-.496.5.5 0 0 0-.5.496.498.498 0 1 0 .996 0m0 0"/></g><g clip-path="url(#au)"><path fill="#FF7F00" d="M12.465 9.695a.498.498 0 1 0-.995.003.498.498 0 0 0 .995-.003m0 0"/></g><g clip-path="url(#av)"><path fill="#FF7F00" d="M15.453 9.695a.498.498 0 1 0-.995.003.498.498 0 0 0 .995-.003m0 0"/></g><g clip-path="url(#aw)"><path fill="#FF7F00" d="M18.441 9.695a.498.498 0 1 0-.995.003.498.498 0 0 0 .995-.003m0 0"/></g><g clip-path="url(#ax)"><path fill="#FF7F00" d="M21.43 9.695a.498.498 0 1 0-.997.003.498.498 0 0 0 .997-.003m0 0"/></g><g clip-path="url(#ay)"><path fill="#FF7F00" d="M24.418 9.695a.498.498 0 1 0-.997.003.498.498 0 0 0 .997-.003m0 0"/></g><g clip-path="url(#az)"><path fill="#FF7F00" d="M27.406 9.695a.498.498 0 1 0-.997.003.498.498 0 0 0 .997-.003m0 0"/></g><g clip-path="url(#aA)"><path fill="#FF7F00" d="M30.395 9.695a.498.498 0 1 0-.997.003.498.498 0 0 0 .997-.003m0 0"/></g><g clip-path="url(#aB)"><path fill="#FF7F00" d="M.508 6.707a.498.498 0 1 0-.997.003.498.498 0 0 0 .997-.003m0 0"/></g><g clip-path="url(#aC)"><path fill="#FF7F00" d="M3.496 6.707a.498.498 0 1 0-.997.003.498.498 0 0 0 .997-.003m0 0"/></g><g clip-path="url(#aD)"><path fill="#FF7F00" d="M6.484 6.707a.498.498 0 1 0-.997.003.498.498 0 0 0 .997-.003m0 0"/></g><g clip-path="url(#aE)"><path fill="#FF7F00" d="M9.473 6.707a.497.497 0 0 0-.496-.496.5.5 0 0 0-.5.496c0 .273.226.5.5.5a.5.5 0 0 0 .496-.5m0 0"/></g><g clip-path="url(#aF)"><path fill="#FF7F00" d="M12.465 6.707a.498.498 0 1 0-.995.003.498.498 0 0 0 .995-.003m0 0"/></g><g clip-path="url(#aG)"><path fill="#FF7F00" d="M15.453 6.707a.498.498 0 1 0-.995.003.498.498 0 0 0 .995-.003m0 0"/></g><g clip-path="url(#aH)"><path fill="#FF7F00" d="M18.441 6.707a.498.498 0 1 0-.995.003.498.498 0 0 0 .995-.003m0 0"/></g><g clip-path="url(#aI)"><path fill="#FF7F00" d="M21.43 6.707a.498.498 0 1 0-.997.003.498.498 0 0 0 .997-.003m0 0"/></g><g clip-path="url(#aJ)"><path fill="#FF7F00" d="M24.418 6.707a.498.498 0 1 0-.997.003.498.498 0 0 0 .997-.003m0 0"/></g><g clip-path="url(#aK)"><path fill="#FF7F00" d="M27.406 6.707a.498.498 0 1 0-.997.003.498.498 0 0 0 .997-.003m0 0"/></g><g clip-path="url(#aL)"><path fill="#FF7F00" d="M30.395 6.707a.498.498 0 1 0-.997.003.498.498 0 0 0 .997-.003m0 0"/></g><g clip-path="url(#aM)"><path fill="#FF7F00" d="M.508 3.719a.498.498 0 1 0-.995-.005.498.498 0 0 0 .995.005m0 0"/></g><g clip-path="url(#aN)"><path fill="#FF7F00" d="M3.496 3.719a.498.498 0 1 0-.995-.005.498.498 0 0 0 .995.005m0 0"/></g><g clip-path="url(#aO)"><path fill="#FF7F00" d="M6.484 3.719a.498.498 0 1 0-.995-.005.498.498 0 0 0 .995.005m0 0"/></g><g clip-path="url(#aP)"><path fill="#FF7F00" d="M9.473 3.719a.498.498 0 1 0-.996-.005.498.498 0 0 0 .996.005m0 0"/></g><g clip-path="url(#aQ)"><path fill="#FF7F00" d="M12.465 3.719a.498.498 0 1 0-.997-.003.498.498 0 0 0 .997.003m0 0"/></g><g clip-path="url(#aR)"><path fill="#FF7F00" d="M15.453 3.719a.498.498 0 1 0-.997-.003.498.498 0 0 0 .997.003m0 0"/></g><g clip-path="url(#aS)"><path fill="#FF7F00" d="M18.441 3.719a.498.498 0 1 0-.997-.003.498.498 0 0 0 .997.003m0 0"/></g><g clip-path="url(#aT)"><path fill="#FF7F00" d="M21.43 3.719a.498.498 0 1 0-.996-.005.498.498 0 0 0 .996.005m0 0"/></g><g clip-path="url(#aU)"><path fill="#FF7F00" d="M24.418 3.719a.498.498 0 1 0-.995-.005.498.498 0 0 0 .995.005m0 0"/></g><g clip-path="url(#aV)"><path fill="#FF7F00" d="M27.406 3.719a.498.498 0 1 0-.995-.005.498.498 0 0 0 .995.005m0 0"/></g><g clip-path="url(#aW)"><path fill="#FF7F00" d="M30.395 3.719a.498.498 0 1 0-.996-.005.498.498 0 0 0 .996.005m0 0"/></g><g clip-path="url(#aX)"><path fill="#FF7F00" d="M.508.73A.498.498 0 1 0-.487.726.498.498 0 0 0 .508.73m0 0"/></g><g clip-path="url(#aY)"><path fill="#FF7F00" d="M3.496.73a.498.498 0 1 0-.995-.004.498.498 0 0 0 .995.004m0 0"/></g><g clip-path="url(#aZ)"><path fill="#FF7F00" d="M6.484.73A.498.498 0 1 0 5.49.726a.498.498 0 0 0 .995.004m0 0"/></g><g clip-path="url(#ba)"><path fill="#FF7F00" d="M9.473.73a.498.498 0 1 0-.996-.004.498.498 0 0 0 .996.004m0 0"/></g><g clip-path="url(#bb)"><path fill="#FF7F00" d="M12.465.73a.498.498 0 1 0-.997-.003.498.498 0 0 0 .997.003m0 0"/></g><g clip-path="url(#bc)"><path fill="#FF7F00" d="M15.453.73a.498.498 0 1 0-.997-.003.498.498 0 0 0 .997.003m0 0"/></g><g clip-path="url(#bd)"><path fill="#FF7F00" d="M18.441.73a.498.498 0 1 0-.997-.003.498.498 0 0 0 .997.003m0 0"/></g><g clip-path="url(#be)"><path fill="#FF7F00" d="M21.43.73a.498.498 0 1 0-.996-.004.498.498 0 0 0 .996.004m0 0"/></g><g clip-path="url(#bf)"><path fill="#FF7F00" d="M24.418.73a.498.498 0 1 0-.995-.004.498.498 0 0 0 .995.004m0 0"/></g><g clip-path="url(#bg)"><path fill="#FF7F00" d="M27.406.73a.498.498 0 1 0-.995-.004.498.498 0 0 0 .995.004m0 0"/></g><g clip-path="url(#bh)"><path fill="#FF7F00" d="M30.395.73a.498.498 0 1 0-.996-.004.498.498 0 0 0 .996.004m0 0"/></g><path fill="none" stroke="#000" stroke-miterlimit="10" stroke-width=".399" d="M.746 29.418V1.07h28.348v28.348Zm0 0"/><g clip-path="url(#bi)"><path fill="#00F" d="M.508 27.629a.5.5 0 0 0-.496-.5.501.501 0 0 0 0 1 .5.5 0 0 0 .496-.5m0 0"/></g><path fill="#00F" d="M3.496 27.629a.5.5 0 0 0-.496-.5.501.501 0 0 0 0 1 .5.5 0 0 0 .496-.5M6.484 27.629a.5.5 0 0 0-.496-.5.501.501 0 0 0 0 1 .5.5 0 0 0 .496-.5M9.473 27.629a.5.5 0 0 0-.496-.5c-.274 0-.5.226-.5.5 0 .273.226.5.5.5a.5.5 0 0 0 .496-.5M12.465 27.629c0-.274-.223-.5-.5-.5a.5.5 0 0 0 0 1c.277 0 .5-.227.5-.5M15.453 27.629c0-.274-.223-.5-.5-.5a.5.5 0 0 0 0 1c.277 0 .5-.227.5-.5M18.441 27.629c0-.274-.222-.5-.5-.5a.5.5 0 0 0 0 1c.278 0 .5-.227.5-.5M21.43 27.629a.5.5 0 0 0-.496-.5.501.501 0 0 0 0 1 .5.5 0 0 0 .496-.5M24.418 27.629a.5.5 0 0 0-.496-.5.501.501 0 0 0 0 1 .5.5 0 0 0 .496-.5M27.406 27.629a.5.5 0 0 0-.496-.5.501.501 0 0 0 0 1 .5.5 0 0 0 .496-.5m0 0"/><g clip-path="url(#bj)"><path fill="#00F" d="M30.395 27.629a.5.5 0 0 0-.497-.5.501.501 0 0 0 0 1 .5.5 0 0 0 .497-.5m0 0"/></g><g clip-path="url(#bk)"><path fill="#00F" d="M.508 24.64a.498.498 0 1 0-.995-.004.498.498 0 0 0 .995.005m0 0"/></g><path fill="#00F" d="M3.496 24.64a.498.498 0 1 0-.995-.004.498.498 0 0 0 .995.005M6.484 24.64a.498.498 0 1 0-.995-.004.498.498 0 0 0 .995.005M9.473 24.64a.498.498 0 1 0-.996-.004.498.498 0 0 0 .996.005M12.465 24.64a.498.498 0 1 0-.997-.002.498.498 0 0 0 .997.003M15.453 24.64a.498.498 0 1 0-.997-.002.498.498 0 0 0 .997.003M18.441 24.64a.498.498 0 1 0-.997-.002.498.498 0 0 0 .997.003M21.43 24.64a.498.498 0 1 0-.996-.004.498.498 0 0 0 .996.005M24.418 24.64a.498.498 0 1 0-.995-.004.498.498 0 0 0 .995.005M27.406 24.64a.498.498 0 1 0-.995-.004.498.498 0 0 0 .995.005m0 0"/><g clip-path="url(#bl)"><path fill="#00F" d="M30.395 24.64a.498.498 0 1 0-.996-.004.498.498 0 0 0 .996.005m0 0"/></g><g clip-path="url(#bm)"><path fill="#00F" d="M.508 21.652a.498.498 0 1 0-.995-.004.498.498 0 0 0 .995.004m0 0"/></g><path fill="#00F" d="M3.496 21.652a.498.498 0 1 0-.995-.004.498.498 0 0 0 .995.004M6.484 21.652a.498.498 0 1 0-.995-.004.498.498 0 0 0 .995.004M9.473 21.652a.498.498 0 1 0-.996-.004.498.498 0 0 0 .996.004M12.465 21.652a.498.498 0 1 0-.997-.003.498.498 0 0 0 .997.003M15.453 21.652a.498.498 0 1 0-.997-.003.498.498 0 0 0 .997.003M18.441 21.652a.498.498 0 1 0-.997-.003.498.498 0 0 0 .997.003M21.43 21.652a.498.498 0 1 0-.996-.004.498.498 0 0 0 .996.004M24.418 21.652a.498.498 0 1 0-.995-.004.498.498 0 0 0 .995.004M27.406 21.652a.498.498 0 1 0-.995-.004.498.498 0 0 0 .995.004m0 0"/><g clip-path="url(#bn)"><path fill="#00F" d="M30.395 21.652a.498.498 0 1 0-.996-.004.498.498 0 0 0 .996.004m0 0"/></g><g clip-path="url(#bo)"><path fill="#00F" d="M.508 18.664a.498.498 0 1 0-.995-.005.498.498 0 0 0 .995.005m0 0"/></g><path fill="#00F" d="M3.496 18.664a.498.498 0 1 0-.995-.005.498.498 0 0 0 .995.005M6.484 18.664a.498.498 0 1 0-.995-.005.498.498 0 0 0 .995.005M9.473 18.664a.498.498 0 1 0-.996-.005.498.498 0 0 0 .996.005M12.465 18.664a.498.498 0 1 0-.997-.003.498.498 0 0 0 .997.003M15.453 18.664a.498.498 0 1 0-.997-.003.498.498 0 0 0 .997.003M18.441 18.664a.498.498 0 1 0-.997-.003.498.498 0 0 0 .997.003M21.43 18.664a.498.498 0 1 0-.996-.005.498.498 0 0 0 .996.005M24.418 18.664a.498.498 0 1 0-.995-.005.498.498 0 0 0 .995.005M27.406 18.664a.498.498 0 1 0-.995-.005.498.498 0 0 0 .995.005m0 0"/><g clip-path="url(#bp)"><path fill="#00F" d="M30.395 18.664a.498.498 0 1 0-.996-.005.498.498 0 0 0 .996.005m0 0"/></g><g clip-path="url(#bq)"><path fill="#00F" d="M.508 15.672a.498.498 0 1 0-.997.003.498.498 0 0 0 .997-.003m0 0"/></g><path fill="#00F" d="M3.496 15.672a.498.498 0 1 0-.997.003.498.498 0 0 0 .997-.003M6.484 15.672a.498.498 0 1 0-.997.003.498.498 0 0 0 .997-.003M9.473 15.672a.497.497 0 0 0-.496-.496.5.5 0 0 0-.5.496.498.498 0 1 0 .996 0M12.465 15.672a.498.498 0 1 0-.995.003.498.498 0 0 0 .995-.003M15.453 15.672a.498.498 0 1 0-.995.003.498.498 0 0 0 .995-.003M18.441 15.672a.498.498 0 1 0-.995.003.498.498 0 0 0 .995-.003M21.43 15.672a.498.498 0 1 0-.997.003.498.498 0 0 0 .997-.003M24.418 15.672a.498.498 0 1 0-.997.003.498.498 0 0 0 .997-.003M27.406 15.672a.498.498 0 1 0-.997.003.498.498 0 0 0 .997-.003m0 0"/><g clip-path="url(#br)"><path fill="#00F" d="M30.395 15.672a.498.498 0 1 0-.997.003.498.498 0 0 0 .997-.003m0 0"/></g><g clip-path="url(#bs)"><path fill="#00F" d="M.508 12.684a.498.498 0 1 0-.997.003.498.498 0 0 0 .997-.003m0 0"/></g><path fill="#00F" d="M3.496 12.684a.498.498 0 1 0-.997.003.498.498 0 0 0 .997-.003M6.484 12.684a.498.498 0 1 0-.997.003.498.498 0 0 0 .997-.003M9.473 12.684a.497.497 0 0 0-.496-.496.5.5 0 0 0-.5.496.498.498 0 1 0 .996 0M12.465 12.684a.498.498 0 1 0-.995.003.498.498 0 0 0 .995-.003M15.453 12.684a.498.498 0 1 0-.995.003.498.498 0 0 0 .995-.003M18.441 12.684a.498.498 0 1 0-.995.003.498.498 0 0 0 .995-.003M21.43 12.684a.498.498 0 1 0-.997.003.498.498 0 0 0 .997-.003M24.418 12.684a.498.498 0 1 0-.997.003.498.498 0 0 0 .997-.003M27.406 12.684a.498.498 0 1 0-.997.003.498.498 0 0 0 .997-.003m0 0"/><g clip-path="url(#bt)"><path fill="#00F" d="M30.395 12.684a.498.498 0 1 0-.997.003.498.498 0 0 0 .997-.003m0 0"/></g><g clip-path="url(#bu)"><path fill="#00F" d="M.508 9.695a.498.498 0 1 0-.997.003.498.498 0 0 0 .997-.003m0 0"/></g><path fill="#00F" d="M3.496 9.695a.498.498 0 1 0-.997.003.498.498 0 0 0 .997-.003M6.484 9.695a.498.498 0 1 0-.997.003.498.498 0 0 0 .997-.003M9.473 9.695a.497.497 0 0 0-.496-.496.5.5 0 0 0-.5.496.498.498 0 1 0 .996 0M12.465 9.695a.498.498 0 1 0-.995.003.498.498 0 0 0 .995-.003M15.453 9.695a.498.498 0 1 0-.995.003.498.498 0 0 0 .995-.003M18.441 9.695a.498.498 0 1 0-.995.003.498.498 0 0 0 .995-.003M21.43 9.695a.498.498 0 1 0-.997.003.498.498 0 0 0 .997-.003M24.418 9.695a.498.498 0 1 0-.997.003.498.498 0 0 0 .997-.003M27.406 9.695a.498.498 0 1 0-.997.003.498.498 0 0 0 .997-.003m0 0"/><g clip-path="url(#bv)"><path fill="#00F" d="M30.395 9.695a.498.498 0 1 0-.997.003.498.498 0 0 0 .997-.003m0 0"/></g><g clip-path="url(#bw)"><path fill="#00F" d="M.508 6.707a.498.498 0 1 0-.997.003.498.498 0 0 0 .997-.003m0 0"/></g><path fill="#00F" d="M3.496 6.707a.498.498 0 1 0-.997.003.498.498 0 0 0 .997-.003M6.484 6.707a.498.498 0 1 0-.997.003.498.498 0 0 0 .997-.003M9.473 6.707a.497.497 0 0 0-.496-.496.5.5 0 0 0-.5.496c0 .273.226.5.5.5a.5.5 0 0 0 .496-.5M12.465 6.707a.498.498 0 1 0-.995.003.498.498 0 0 0 .995-.003M15.453 6.707a.498.498 0 1 0-.995.003.498.498 0 0 0 .995-.003M18.441 6.707a.498.498 0 1 0-.995.003.498.498 0 0 0 .995-.003M21.43 6.707a.498.498 0 1 0-.997.003.498.498 0 0 0 .997-.003M24.418 6.707a.498.498 0 1 0-.997.003.498.498 0 0 0 .997-.003M27.406 6.707a.498.498 0 1 0-.997.003.498.498 0 0 0 .997-.003m0 0"/><g clip-path="url(#bx)"><path fill="#00F" d="M30.395 6.707a.498.498 0 1 0-.997.003.498.498 0 0 0 .997-.003m0 0"/></g><g clip-path="url(#by)"><path fill="#00F" d="M.508 3.719a.498.498 0 1 0-.995-.005.498.498 0 0 0 .995.005m0 0"/></g><path fill="#00F" d="M3.496 3.719a.498.498 0 1 0-.995-.005.498.498 0 0 0 .995.005M6.484 3.719a.498.498 0 1 0-.995-.005.498.498 0 0 0 .995.005M9.473 3.719a.498.498 0 1 0-.996-.005.498.498 0 0 0 .996.005M12.465 3.719a.498.498 0 1 0-.997-.003.498.498 0 0 0 .997.003M15.453 3.719a.498.498 0 1 0-.997-.003.498.498 0 0 0 .997.003M18.441 3.719a.498.498 0 1 0-.997-.003.498.498 0 0 0 .997.003M21.43 3.719a.498.498 0 1 0-.996-.005.498.498 0 0 0 .996.005M24.418 3.719a.498.498 0 1 0-.995-.005.498.498 0 0 0 .995.005M27.406 3.719a.498.498 0 1 0-.995-.005.498.498 0 0 0 .995.005m0 0"/><g clip-path="url(#bz)"><path fill="#00F" d="M30.395 3.719a.498.498 0 1 0-.996-.005.498.498 0 0 0 .996.005m0 0"/></g><g clip-path="url(#bA)"><path fill="#00F" d="M.508.73A.498.498 0 1 0-.487.726.498.498 0 0 0 .508.73m0 0"/></g><g clip-path="url(#bB)"><path fill="#00F" d="M3.496.73a.498.498 0 1 0-.995-.004.498.498 0 0 0 .995.004m0 0"/></g><g clip-path="url(#bC)"><path fill="#00F" d="M6.484.73A.498.498 0 1 0 5.49.726a.498.498 0 0 0 .995.004m0 0"/></g><g clip-path="url(#bD)"><path fill="#00F" d="M9.473.73a.498.498 0 1 0-.996-.004.498.498 0 0 0 .996.004m0 0"/></g><g clip-path="url(#bE)"><path fill="#00F" d="M12.465.73a.498.498 0 1 0-.997-.003.498.498 0 0 0 .997.003m0 0"/></g><g clip-path="url(#bF)"><path fill="#00F" d="M15.453.73a.498.498 0 1 0-.997-.003.498.498 0 0 0 .997.003m0 0"/></g><g clip-path="url(#bG)"><path fill="#00F" d="M18.441.73a.498.498 0 1 0-.997-.003.498.498 0 0 0 .997.003m0 0"/></g><g clip-path="url(#bH)"><path fill="#00F" d="M21.43.73a.498.498 0 1 0-.996-.004.498.498 0 0 0 .996.004m0 0"/></g><g clip-path="url(#bI)"><path fill="#00F" d="M24.418.73a.498.498 0 1 0-.995-.004.498.498 0 0 0 .995.004m0 0"/></g><g clip-path="url(#bJ)"><path fill="#00F" d="M27.406.73a.498.498 0 1 0-.995-.004.498.498 0 0 0 .995.004m0 0"/></g><g clip-path="url(#bK)"><path fill="#00F" d="M30.395.73a.498.498 0 1 0-.996-.004.498.498 0 0 0 .996.004m0 0"/></g><path fill="none" stroke="#000" stroke-miterlimit="10" stroke-width=".399" d="M.746 29.418V1.07h28.348v28.348Zm0 0"/><g clip-path="url(#bL)"><path fill="#FF7F00" d="M30.395 30.617a.498.498 0 1 0-.997.003.498.498 0 0 0 .997-.003m1.496-1.492a.498.498 0 1 0-.997-.003.498.498 0 0 0 .997.003m0 0"/></g><g clip-path="url(#bM)"><path fill="#FF7F00" d="M33.387 30.617a.5.5 0 0 0-.5-.496.498.498 0 1 0 .5.496m1.492-1.492a.498.498 0 1 0-.995-.005.498.498 0 0 0 .995.005m0 0"/></g><g clip-path="url(#bN)"><path fill="#FF7F00" d="M36.375 30.617a.498.498 0 1 0-.995.003.498.498 0 0 0 .995-.003m1.492-1.492a.498.498 0 1 0-.995-.005.498.498 0 0 0 .995.005m0 0"/></g><g clip-path="url(#bO)"><path fill="#FF7F00" d="M39.363 30.617a.498.498 0 1 0-.995.003.498.498 0 0 0 .995-.003m1.492-1.492a.498.498 0 1 0-.995-.005.498.498 0 0 0 .995.005m0 0"/></g><g clip-path="url(#bP)"><path fill="#FF7F00" d="M42.352 30.617a.498.498 0 1 0-.996.003.498.498 0 0 0 .996-.003m1.496-1.492a.498.498 0 1 0-.997-.005.498.498 0 0 0 .997.005m0 0"/></g><g clip-path="url(#bQ)"><path fill="#FF7F00" d="M45.34 30.617a.498.498 0 1 0-.997.003.498.498 0 0 0 .997-.003m1.496-1.492a.498.498 0 1 0-.997-.003.498.498 0 0 0 .997.003m0 0"/></g><g clip-path="url(#bR)"><path fill="#FF7F00" d="M48.328 30.617a.498.498 0 1 0-.997.003.498.498 0 0 0 .997-.003m1.496-1.492a.498.498 0 1 0-.997-.003.498.498 0 0 0 .997.003m0 0"/></g><g clip-path="url(#bS)"><path fill="#FF7F00" d="M51.316 30.617a.498.498 0 1 0-.997.003.498.498 0 0 0 .997-.003m1.496-1.492a.498.498 0 1 0-.996-.003.498.498 0 0 0 .996.003m0 0"/></g><g clip-path="url(#bT)"><path fill="#FF7F00" d="M54.309 30.617a.5.5 0 0 0-.5-.496.498.498 0 1 0 .5.496m1.492-1.492a.498.498 0 1 0-.995-.005.498.498 0 0 0 .995.005m0 0"/></g><g clip-path="url(#bU)"><path fill="#FF7F00" d="M57.297 30.617a.498.498 0 1 0-.995.003.498.498 0 0 0 .995-.003m1.492-1.492a.498.498 0 1 0-.995-.005.498.498 0 0 0 .995.005m0 0"/></g><g clip-path="url(#bV)"><path fill="#FF7F00" d="M30.395 27.629a.5.5 0 0 0-.497-.5.501.501 0 0 0 0 1 .5.5 0 0 0 .497-.5m1.496-1.496a.498.498 0 1 0-.996.003.498.498 0 0 0 .996-.003m0 0"/></g><g clip-path="url(#bW)"><path fill="#FF7F00" d="M33.387 27.629c0-.274-.227-.5-.5-.5a.5.5 0 0 0 0 1c.273 0 .5-.227.5-.5m1.492-1.496a.498.498 0 1 0-.997.003.498.498 0 0 0 .997-.003m0 0"/></g><g clip-path="url(#bX)"><path fill="#FF7F00" d="M36.375 27.629c0-.274-.223-.5-.5-.5a.5.5 0 0 0 0 1c.277 0 .5-.227.5-.5m1.492-1.496a.498.498 0 1 0-.997.003.498.498 0 0 0 .997-.003m0 0"/></g><g clip-path="url(#bY)"><path fill="#FF7F00" d="M39.363 27.629c0-.274-.222-.5-.5-.5a.5.5 0 0 0 0 1c.278 0 .5-.227.5-.5m1.492-1.496a.498.498 0 1 0-.997.003.498.498 0 0 0 .997-.003m0 0"/></g><g clip-path="url(#bZ)"><path fill="#FF7F00" d="M42.352 27.629c0-.274-.223-.5-.5-.5a.5.5 0 0 0 0 1c.277 0 .5-.227.5-.5m1.496-1.496a.5.5 0 0 0-.5-.496.498.498 0 1 0 .5.496m0 0"/></g><g clip-path="url(#ca)"><path fill="#FF7F00" d="M45.34 27.629a.5.5 0 0 0-.496-.5.501.501 0 0 0 0 1 .5.5 0 0 0 .496-.5m1.496-1.496a.498.498 0 1 0-.995.003.498.498 0 0 0 .995-.003m0 0"/></g><g clip-path="url(#cb)"><path fill="#FF7F00" d="M48.328 27.629a.5.5 0 0 0-.496-.5.501.501 0 0 0 0 1 .5.5 0 0 0 .496-.5m1.496-1.496a.498.498 0 1 0-.995.003.498.498 0 0 0 .995-.003m0 0"/></g><g clip-path="url(#cc)"><path fill="#FF7F00" d="M51.316 27.629a.5.5 0 0 0-.496-.5.501.501 0 0 0 0 1 .5.5 0 0 0 .496-.5m1.496-1.496a.498.498 0 1 0-.995.003.498.498 0 0 0 .995-.003m0 0"/></g><g clip-path="url(#cd)"><path fill="#FF7F00" d="M54.309 27.629c0-.274-.227-.5-.5-.5a.5.5 0 0 0 0 1c.273 0 .5-.227.5-.5m1.492-1.496a.498.498 0 1 0-.997.003.498.498 0 0 0 .997-.003m0 0"/></g><g clip-path="url(#ce)"><path fill="#FF7F00" d="M57.297 27.629c0-.274-.223-.5-.5-.5a.5.5 0 0 0 0 1c.277 0 .5-.227.5-.5m1.492-1.496a.498.498 0 1 0-.997.003.498.498 0 0 0 .997-.003m0 0"/></g><g clip-path="url(#cf)"><path fill="#FF7F00" d="M30.395 24.64a.498.498 0 1 0-.996-.004.498.498 0 0 0 .996.005m1.496-1.495a.498.498 0 1 0-.996.003.498.498 0 0 0 .996-.003m0 0"/></g><g clip-path="url(#cg)"><path fill="#FF7F00" d="M33.387 24.64a.498.498 0 1 0-.997-.005.498.498 0 0 0 .997.006m1.492-1.495a.498.498 0 1 0-.997.003.498.498 0 0 0 .997-.003m0 0"/></g><g clip-path="url(#ch)"><path fill="#FF7F00" d="M36.375 24.64a.498.498 0 1 0-.997-.002.498.498 0 0 0 .997.003m1.492-1.495a.498.498 0 1 0-.997.003.498.498 0 0 0 .997-.003m0 0"/></g><g clip-path="url(#ci)"><path fill="#FF7F00" d="M39.363 24.64a.498.498 0 1 0-.997-.002.498.498 0 0 0 .997.003m1.492-1.495a.498.498 0 1 0-.997.003.498.498 0 0 0 .997-.003m0 0"/></g><g clip-path="url(#cj)"><path fill="#FF7F00" d="M42.352 24.64a.498.498 0 1 0-.997-.002.498.498 0 0 0 .997.003m1.496-1.495a.5.5 0 0 0-.5-.497.498.498 0 1 0 .5.496m0 0"/></g><g clip-path="url(#ck)"><path fill="#FF7F00" d="M45.34 24.64a.498.498 0 1 0-.995-.004.498.498 0 0 0 .995.005m1.496-1.495a.498.498 0 1 0-.995.003.498.498 0 0 0 .995-.003m0 0"/></g><g clip-path="url(#cl)"><path fill="#FF7F00" d="M48.328 24.64a.498.498 0 1 0-.995-.004.498.498 0 0 0 .995.005m1.496-1.495a.498.498 0 1 0-.995.003.498.498 0 0 0 .995-.003m0 0"/></g><g clip-path="url(#cm)"><path fill="#FF7F00" d="M51.316 24.64a.498.498 0 1 0-.995-.004.498.498 0 0 0 .995.005m1.496-1.495a.498.498 0 1 0-.995.003.498.498 0 0 0 .995-.003m0 0"/></g><g clip-path="url(#cn)"><path fill="#FF7F00" d="M54.309 24.64a.498.498 0 1 0-.997-.005.498.498 0 0 0 .997.006m1.492-1.495a.498.498 0 1 0-.997.003.498.498 0 0 0 .997-.003m0 0"/></g><g clip-path="url(#co)"><path fill="#FF7F00" d="M57.297 24.64a.498.498 0 1 0-.997-.002.498.498 0 0 0 .997.003m1.492-1.495a.498.498 0 1 0-.997.003.498.498 0 0 0 .997-.003m0 0"/></g><g clip-path="url(#cp)"><path fill="#FF7F00" d="M30.395 21.652a.498.498 0 1 0-.996-.004.498.498 0 0 0 .996.004m1.496-1.496a.498.498 0 1 0-.996.003.498.498 0 0 0 .996-.003m0 0"/></g><g clip-path="url(#cq)"><path fill="#FF7F00" d="M33.387 21.652a.498.498 0 1 0-.997-.005.498.498 0 0 0 .997.005m1.492-1.496a.498.498 0 1 0-.997.003.498.498 0 0 0 .997-.003m0 0"/></g><g clip-path="url(#cr)"><path fill="#FF7F00" d="M36.375 21.652a.498.498 0 1 0-.997-.003.498.498 0 0 0 .997.003m1.492-1.496a.498.498 0 1 0-.997.003.498.498 0 0 0 .997-.003m0 0"/></g><g clip-path="url(#cs)"><path fill="#FF7F00" d="M39.363 21.652a.498.498 0 1 0-.997-.003.498.498 0 0 0 .997.003m1.492-1.496a.498.498 0 1 0-.997.003.498.498 0 0 0 .997-.003m0 0"/></g><g clip-path="url(#ct)"><path fill="#FF7F00" d="M42.352 21.652a.498.498 0 1 0-.997-.003.498.498 0 0 0 .997.003m1.496-1.496a.5.5 0 0 0-.5-.496.498.498 0 1 0 .5.496m0 0"/></g><g clip-path="url(#cu)"><path fill="#FF7F00" d="M45.34 21.652a.498.498 0 1 0-.995-.004.498.498 0 0 0 .995.004m1.496-1.496a.498.498 0 1 0-.995.003.498.498 0 0 0 .995-.003m0 0"/></g><g clip-path="url(#cv)"><path fill="#FF7F00" d="M48.328 21.652a.498.498 0 1 0-.995-.004.498.498 0 0 0 .995.004m1.496-1.496a.498.498 0 1 0-.995.003.498.498 0 0 0 .995-.003m0 0"/></g><g clip-path="url(#cw)"><path fill="#FF7F00" d="M51.316 21.652a.498.498 0 1 0-.995-.004.498.498 0 0 0 .995.004m1.496-1.496a.498.498 0 1 0-.995.003.498.498 0 0 0 .995-.003m0 0"/></g><g clip-path="url(#cx)"><path fill="#FF7F00" d="M54.309 21.652a.498.498 0 1 0-.997-.005.498.498 0 0 0 .997.005m1.492-1.496a.498.498 0 1 0-.997.003.498.498 0 0 0 .997-.003m0 0"/></g><g clip-path="url(#cy)"><path fill="#FF7F00" d="M57.297 21.652a.498.498 0 1 0-.997-.003.498.498 0 0 0 .997.003m1.492-1.496a.498.498 0 1 0-.997.003.498.498 0 0 0 .997-.003m0 0"/></g><g clip-path="url(#cz)"><path fill="#FF7F00" d="M30.395 18.664a.498.498 0 1 0-.996-.005.498.498 0 0 0 .996.005m1.496-1.496a.498.498 0 1 0-.996.003.498.498 0 0 0 .996-.003m0 0"/></g><g clip-path="url(#cA)"><path fill="#FF7F00" d="M33.387 18.664a.498.498 0 1 0-.997-.005.498.498 0 0 0 .997.005m1.492-1.496a.498.498 0 1 0-.997.003.498.498 0 0 0 .997-.003m0 0"/></g><g clip-path="url(#cB)"><path fill="#FF7F00" d="M36.375 18.664a.498.498 0 1 0-.997-.003.498.498 0 0 0 .997.003m1.492-1.496a.498.498 0 1 0-.997.003.498.498 0 0 0 .997-.003m0 0"/></g><g clip-path="url(#cC)"><path fill="#FF7F00" d="M39.363 18.664a.498.498 0 1 0-.997-.003.498.498 0 0 0 .997.003m1.492-1.496a.498.498 0 1 0-.997.003.498.498 0 0 0 .997-.003m0 0"/></g><g clip-path="url(#cD)"><path fill="#FF7F00" d="M42.352 18.664a.498.498 0 1 0-.997-.003.498.498 0 0 0 .997.003m1.496-1.496a.5.5 0 0 0-.5-.496.497.497 0 0 0-.496.496.5.5 0 0 0 .496.5c.273 0 .5-.227.5-.5m0 0"/></g><g clip-path="url(#cE)"><path fill="#FF7F00" d="M45.34 18.664a.498.498 0 1 0-.995-.005.498.498 0 0 0 .995.005m1.496-1.496a.498.498 0 1 0-.995.003.498.498 0 0 0 .995-.003m0 0"/></g><g clip-path="url(#cF)"><path fill="#FF7F00" d="M48.328 18.664a.498.498 0 1 0-.995-.005.498.498 0 0 0 .995.005m1.496-1.496a.498.498 0 1 0-.995.003.498.498 0 0 0 .995-.003m0 0"/></g><g clip-path="url(#cG)"><path fill="#FF7F00" d="M51.316 18.664a.498.498 0 1 0-.995-.005.498.498 0 0 0 .995.005m1.496-1.496a.498.498 0 1 0-.995.003.498.498 0 0 0 .995-.003m0 0"/></g><g clip-path="url(#cH)"><path fill="#FF7F00" d="M54.309 18.664a.498.498 0 1 0-.997-.005.498.498 0 0 0 .997.005m1.492-1.496a.498.498 0 1 0-.997.003.498.498 0 0 0 .997-.003m0 0"/></g><g clip-path="url(#cI)"><path fill="#FF7F00" d="M57.297 18.664a.498.498 0 1 0-.997-.003.498.498 0 0 0 .997.003m1.492-1.496a.498.498 0 1 0-.997.003.498.498 0 0 0 .997-.003m0 0"/></g><g clip-path="url(#cJ)"><path fill="#FF7F00" d="M30.395 15.672a.498.498 0 1 0-.997.003.498.498 0 0 0 .997-.003m1.496-1.492a.498.498 0 1 0-.997-.003.498.498 0 0 0 .997.003m0 0"/></g><g clip-path="url(#cK)"><path fill="#FF7F00" d="M33.387 15.672a.5.5 0 0 0-.5-.496.498.498 0 1 0 .5.496m1.492-1.492a.498.498 0 1 0-.995-.005.498.498 0 0 0 .995.005m0 0"/></g><g clip-path="url(#cL)"><path fill="#FF7F00" d="M36.375 15.672a.498.498 0 1 0-.995.003.498.498 0 0 0 .995-.003m1.492-1.492a.498.498 0 1 0-.995-.005.498.498 0 0 0 .995.005m0 0"/></g><g clip-path="url(#cM)"><path fill="#FF7F00" d="M39.363 15.672a.498.498 0 1 0-.995.003.498.498 0 0 0 .995-.003m1.492-1.492a.498.498 0 1 0-.995-.005.498.498 0 0 0 .995.005m0 0"/></g><g clip-path="url(#cN)"><path fill="#FF7F00" d="M42.352 15.672a.498.498 0 1 0-.996.003.498.498 0 0 0 .996-.003m1.496-1.492a.498.498 0 1 0-.997-.005.498.498 0 0 0 .997.005m0 0"/></g><g clip-path="url(#cO)"><path fill="#FF7F00" d="M45.34 15.672a.498.498 0 1 0-.997.003.498.498 0 0 0 .997-.003m1.496-1.492a.498.498 0 1 0-.997-.003.498.498 0 0 0 .997.003m0 0"/></g><g clip-path="url(#cP)"><path fill="#FF7F00" d="M48.328 15.672a.498.498 0 1 0-.997.003.498.498 0 0 0 .997-.003m1.496-1.492a.498.498 0 1 0-.997-.003.498.498 0 0 0 .997.003m0 0"/></g><g clip-path="url(#cQ)"><path fill="#FF7F00" d="M51.316 15.672a.498.498 0 1 0-.997.003.498.498 0 0 0 .997-.003m1.496-1.492a.498.498 0 1 0-.996-.003.498.498 0 0 0 .996.003m0 0"/></g><g clip-path="url(#cR)"><path fill="#FF7F00" d="M54.309 15.672a.5.5 0 0 0-.5-.496.498.498 0 1 0 .5.496M55.8 14.18a.498.498 0 1 0-.995-.005.498.498 0 0 0 .995.005m0 0"/></g><g clip-path="url(#cS)"><path fill="#FF7F00" d="M57.297 15.672a.498.498 0 1 0-.995.003.498.498 0 0 0 .995-.003m1.492-1.492a.498.498 0 1 0-.995-.005.498.498 0 0 0 .995.005m0 0"/></g><g clip-path="url(#cT)"><path fill="#FF7F00" d="M30.395 12.684a.498.498 0 1 0-.997.003.498.498 0 0 0 .997-.003m1.496-1.493a.498.498 0 1 0-.997-.003.498.498 0 0 0 .997.003m0 0"/></g><g clip-path="url(#cU)"><path fill="#FF7F00" d="M33.387 12.684a.5.5 0 0 0-.5-.496.498.498 0 1 0 .5.496m1.492-1.493a.498.498 0 1 0-.995-.004.498.498 0 0 0 .995.004m0 0"/></g><g clip-path="url(#cV)"><path fill="#FF7F00" d="M36.375 12.684a.498.498 0 1 0-.995.003.498.498 0 0 0 .995-.003m1.492-1.493a.498.498 0 1 0-.995-.004.498.498 0 0 0 .995.004m0 0"/></g><g clip-path="url(#cW)"><path fill="#FF7F00" d="M39.363 12.684a.498.498 0 1 0-.995.003.498.498 0 0 0 .995-.003m1.492-1.493a.498.498 0 1 0-.995-.004.498.498 0 0 0 .995.004m0 0"/></g><g clip-path="url(#cX)"><path fill="#FF7F00" d="M42.352 12.684a.498.498 0 1 0-.996.003.498.498 0 0 0 .996-.003m1.496-1.493a.498.498 0 1 0-.997-.005.498.498 0 0 0 .997.005m0 0"/></g><g clip-path="url(#cY)"><path fill="#FF7F00" d="M45.34 12.684a.498.498 0 1 0-.997.003.498.498 0 0 0 .997-.003m1.496-1.493a.498.498 0 1 0-.997-.003.498.498 0 0 0 .997.003m0 0"/></g><g clip-path="url(#cZ)"><path fill="#FF7F00" d="M48.328 12.684a.498.498 0 1 0-.997.003.498.498 0 0 0 .997-.003m1.496-1.493a.498.498 0 1 0-.997-.003.498.498 0 0 0 .997.003m0 0"/></g><g clip-path="url(#da)"><path fill="#FF7F00" d="M51.316 12.684a.498.498 0 1 0-.997.003.498.498 0 0 0 .997-.003m1.496-1.493a.498.498 0 1 0-.996-.003.498.498 0 0 0 .996.003m0 0"/></g><g clip-path="url(#db)"><path fill="#FF7F00" d="M54.309 12.684a.5.5 0 0 0-.5-.496.498.498 0 1 0 .5.496M55.8 11.19a.498.498 0 1 0-.995-.004.498.498 0 0 0 .995.004m0 0"/></g><g clip-path="url(#dc)"><path fill="#FF7F00" d="M57.297 12.684a.498.498 0 1 0-.995.003.498.498 0 0 0 .995-.003m1.492-1.493a.498.498 0 1 0-.995-.004.498.498 0 0 0 .995.004m0 0"/></g><g clip-path="url(#dd)"><path fill="#FF7F00" d="M30.395 9.695a.498.498 0 1 0-.997.003.498.498 0 0 0 .997-.003m1.496-1.492a.498.498 0 1 0-.997-.003.498.498 0 0 0 .997.003m0 0"/></g><g clip-path="url(#de)"><path fill="#FF7F00" d="M33.387 9.695a.5.5 0 0 0-.5-.496.498.498 0 1 0 .5.496m1.492-1.492a.498.498 0 1 0-.995-.005.498.498 0 0 0 .995.005m0 0"/></g><g clip-path="url(#df)"><path fill="#FF7F00" d="M36.375 9.695a.498.498 0 1 0-.995.003.498.498 0 0 0 .995-.003m1.492-1.492a.498.498 0 1 0-.995-.005.498.498 0 0 0 .995.005m0 0"/></g><g clip-path="url(#dg)"><path fill="#FF7F00" d="M39.363 9.695a.498.498 0 1 0-.995.003.498.498 0 0 0 .995-.003m1.492-1.492a.498.498 0 1 0-.995-.005.498.498 0 0 0 .995.005m0 0"/></g><g clip-path="url(#dh)"><path fill="#FF7F00" d="M42.352 9.695a.498.498 0 1 0-.996.003.498.498 0 0 0 .996-.003m1.496-1.492a.498.498 0 1 0-.997-.005.498.498 0 0 0 .997.005m0 0"/></g><g clip-path="url(#di)"><path fill="#FF7F00" d="M45.34 9.695a.498.498 0 1 0-.997.003.498.498 0 0 0 .997-.003m1.496-1.492a.498.498 0 1 0-.997-.003.498.498 0 0 0 .997.003m0 0"/></g><g clip-path="url(#dj)"><path fill="#FF7F00" d="M48.328 9.695a.498.498 0 1 0-.997.003.498.498 0 0 0 .997-.003m1.496-1.492a.498.498 0 1 0-.997-.003.498.498 0 0 0 .997.003m0 0"/></g><g clip-path="url(#dk)"><path fill="#FF7F00" d="M51.316 9.695a.498.498 0 1 0-.997.003.498.498 0 0 0 .997-.003m1.496-1.492a.498.498 0 1 0-.996-.003.498.498 0 0 0 .996.003m0 0"/></g><g clip-path="url(#dl)"><path fill="#FF7F00" d="M54.309 9.695a.5.5 0 0 0-.5-.496.498.498 0 1 0 .5.496M55.8 8.203a.498.498 0 1 0-.995-.005.498.498 0 0 0 .995.005m0 0"/></g><g clip-path="url(#dm)"><path fill="#FF7F00" d="M57.297 9.695a.498.498 0 1 0-.995.003.498.498 0 0 0 .995-.003m1.492-1.492a.498.498 0 1 0-.995-.005.498.498 0 0 0 .995.005m0 0"/></g><g clip-path="url(#dn)"><path fill="#FF7F00" d="M30.395 6.707a.498.498 0 1 0-.997.003.498.498 0 0 0 .997-.003m1.496-1.496a.498.498 0 1 0-.996.003.498.498 0 0 0 .996-.003m0 0"/></g><g clip-path="url(#do)"><path fill="#FF7F00" d="M33.387 6.707a.5.5 0 0 0-.5-.496.497.497 0 0 0-.496.496.5.5 0 0 0 .496.5c.273 0 .5-.227.5-.5m1.492-1.496a.498.498 0 1 0-.997.003.498.498 0 0 0 .997-.003m0 0"/></g><g clip-path="url(#dp)"><path fill="#FF7F00" d="M36.375 6.707a.498.498 0 1 0-.995.003.498.498 0 0 0 .995-.003m1.492-1.496a.498.498 0 1 0-.997.003.498.498 0 0 0 .997-.003m0 0"/></g><g clip-path="url(#dq)"><path fill="#FF7F00" d="M39.363 6.707a.498.498 0 1 0-.995.003.498.498 0 0 0 .995-.003m1.492-1.496a.498.498 0 1 0-.997.003.498.498 0 0 0 .997-.003m0 0"/></g><g clip-path="url(#dr)"><path fill="#FF7F00" d="M42.352 6.707a.498.498 0 1 0-.996.003.498.498 0 0 0 .996-.003m1.496-1.496a.5.5 0 0 0-.5-.496.498.498 0 1 0 .5.496m0 0"/></g><g clip-path="url(#ds)"><path fill="#FF7F00" d="M45.34 6.707a.498.498 0 1 0-.997.003.498.498 0 0 0 .997-.003m1.496-1.496a.498.498 0 1 0-.995.003.498.498 0 0 0 .995-.003m0 0"/></g><g clip-path="url(#dt)"><path fill="#FF7F00" d="M48.328 6.707a.498.498 0 1 0-.997.003.498.498 0 0 0 .997-.003m1.496-1.496a.498.498 0 1 0-.995.003.498.498 0 0 0 .995-.003m0 0"/></g><g clip-path="url(#du)"><path fill="#FF7F00" d="M51.316 6.707a.498.498 0 1 0-.997.003.498.498 0 0 0 .997-.003m1.496-1.496a.498.498 0 1 0-.995.003.498.498 0 0 0 .995-.003m0 0"/></g><g clip-path="url(#dv)"><path fill="#FF7F00" d="M54.309 6.707a.5.5 0 0 0-.5-.496.497.497 0 0 0-.496.496.5.5 0 0 0 .496.5c.273 0 .5-.227.5-.5M55.8 5.211a.498.498 0 1 0-.997.003.498.498 0 0 0 .997-.003m0 0"/></g><g clip-path="url(#dw)"><path fill="#FF7F00" d="M57.297 6.707a.498.498 0 1 0-.995.003.498.498 0 0 0 .995-.003m1.492-1.496a.498.498 0 1 0-.997.003.498.498 0 0 0 .997-.003m0 0"/></g><g clip-path="url(#dx)"><path fill="#FF7F00" d="M30.395 3.719a.498.498 0 1 0-.996-.005.498.498 0 0 0 .996.005m1.496-1.496a.498.498 0 1 0-.996.003.498.498 0 0 0 .996-.003m0 0"/></g><g clip-path="url(#dy)"><path fill="#FF7F00" d="M33.387 3.719a.498.498 0 1 0-.997-.005.498.498 0 0 0 .997.005m1.492-1.496a.498.498 0 1 0-.997.003.498.498 0 0 0 .997-.003m0 0"/></g><g clip-path="url(#dz)"><path fill="#FF7F00" d="M36.375 3.719a.498.498 0 1 0-.997-.003.498.498 0 0 0 .997.003m1.492-1.496a.498.498 0 1 0-.997.003.498.498 0 0 0 .997-.003m0 0"/></g><g clip-path="url(#dA)"><path fill="#FF7F00" d="M39.363 3.719a.498.498 0 1 0-.997-.003.498.498 0 0 0 .997.003m1.492-1.496a.498.498 0 1 0-.997.003.498.498 0 0 0 .997-.003m0 0"/></g><g clip-path="url(#dB)"><path fill="#FF7F00" d="M42.352 3.719a.498.498 0 1 0-.997-.003.498.498 0 0 0 .997.003m1.496-1.496a.5.5 0 0 0-.5-.496.498.498 0 1 0 .5.496m0 0"/></g><g clip-path="url(#dC)"><path fill="#FF7F00" d="M45.34 3.719a.498.498 0 1 0-.995-.005.498.498 0 0 0 .995.005m1.496-1.496a.498.498 0 1 0-.995.003.498.498 0 0 0 .995-.003m0 0"/></g><g clip-path="url(#dD)"><path fill="#FF7F00" d="M48.328 3.719a.498.498 0 1 0-.995-.005.498.498 0 0 0 .995.005m1.496-1.496a.498.498 0 1 0-.995.003.498.498 0 0 0 .995-.003m0 0"/></g><g clip-path="url(#dE)"><path fill="#FF7F00" d="M51.316 3.719a.498.498 0 1 0-.995-.005.498.498 0 0 0 .995.005m1.496-1.496a.498.498 0 1 0-.995.003.498.498 0 0 0 .995-.003m0 0"/></g><g clip-path="url(#dF)"><path fill="#FF7F00" d="M54.309 3.719a.498.498 0 1 0-.997-.005.498.498 0 0 0 .997.005M55.8 2.223a.498.498 0 1 0-.997.003.498.498 0 0 0 .997-.003m0 0"/></g><g clip-path="url(#dG)"><path fill="#FF7F00" d="M57.297 3.719a.498.498 0 1 0-.997-.003.498.498 0 0 0 .997.003m1.492-1.496a.498.498 0 1 0-.997.003.498.498 0 0 0 .997-.003m0 0"/></g><g clip-path="url(#dH)"><path fill="#FF7F00" d="M30.395.73a.498.498 0 1 0-.996-.004.498.498 0 0 0 .996.004M31.89-.766a.498.498 0 1 0-.996.003.498.498 0 0 0 .996-.003m0 0"/></g><g clip-path="url(#dI)"><path fill="#FF7F00" d="M33.387.73a.498.498 0 1 0-.997-.005.498.498 0 0 0 .997.005m1.492-1.496a.498.498 0 1 0-.997.003.498.498 0 0 0 .997-.003m0 0"/></g><g clip-path="url(#dJ)"><path fill="#FF7F00" d="M36.375.73a.498.498 0 1 0-.997-.003.498.498 0 0 0 .997.003m1.492-1.496a.498.498 0 1 0-.997.003.498.498 0 0 0 .997-.003m0 0"/></g><g clip-path="url(#dK)"><path fill="#FF7F00" d="M39.363.73a.498.498 0 1 0-.997-.003.498.498 0 0 0 .997.003m1.492-1.496a.498.498 0 1 0-.997.003.498.498 0 0 0 .997-.003m0 0"/></g><g clip-path="url(#dL)"><path fill="#FF7F00" d="M42.352.73a.498.498 0 1 0-.997-.003.498.498 0 0 0 .997.003m1.496-1.496a.5.5 0 0 0-.5-.496.498.498 0 1 0 .5.496m0 0"/></g><g clip-path="url(#dM)"><path fill="#FF7F00" d="M45.34.73a.498.498 0 1 0-.995-.004.498.498 0 0 0 .995.004m1.496-1.496a.498.498 0 1 0-.995.003.498.498 0 0 0 .995-.003m0 0"/></g><g clip-path="url(#dN)"><path fill="#FF7F00" d="M48.328.73a.498.498 0 1 0-.995-.004.498.498 0 0 0 .995.004m1.496-1.496a.498.498 0 1 0-.995.003.498.498 0 0 0 .995-.003m0 0"/></g><g clip-path="url(#dO)"><path fill="#FF7F00" d="M51.316.73a.498.498 0 1 0-.995-.004.498.498 0 0 0 .995.004m1.496-1.496a.498.498 0 1 0-.995.003.498.498 0 0 0 .995-.003m0 0"/></g><g clip-path="url(#dP)"><path fill="#FF7F00" d="M54.309.73a.498.498 0 1 0-.997-.005.498.498 0 0 0 .997.005M55.8-.766a.498.498 0 1 0-.997.003.498.498 0 0 0 .997-.003m0 0"/></g><g clip-path="url(#dQ)"><path fill="#FF7F00" d="M57.297.73A.498.498 0 1 0 56.3.727a.498.498 0 0 0 .997.003m1.492-1.496a.498.498 0 1 0-.997.003.498.498 0 0 0 .997-.003m0 0"/></g><path fill="none" stroke="#000" stroke-miterlimit="10" stroke-width=".399" d="M29.094 29.418V1.07h28.344v28.348Zm0 0"/><g clip-path="url(#dR)"><path fill="url(#dS)" d="M29.094 29.418H57.44V1.07H29.094Zm0 0"/></g><path fill="none" stroke="#000" stroke-miterlimit="10" stroke-width=".399" d="M29.094 29.418V1.07h28.344v28.348Zm0 0"/></svg>