<svg xmlns="http://www.w3.org/2000/svg" width="66.296" height="84.206"><defs><clipPath id="a"><path d="M0 0h65.945v83.809H0Zm0 0"/></clipPath><clipPath id="b"><path d="M51 0h14.945v14H51Zm0 0"/></clipPath><clipPath id="c"><path d="M0 69h15v14.809H0Zm0 0"/></clipPath></defs><g clip-path="url(#a)"><path fill="none" stroke="#000" stroke-miterlimit="10" stroke-width=".399" d="M24.078 26.102h28.348m-28.348 0L60.902 4.84M24.078 26.102l-13.316-4.848m13.316 4.848L4.688 79.375m19.39-53.273 11.34 19.636"/></g><path fill="#FFF" stroke="red" stroke-miterlimit="10" stroke-width=".399" d="m52.426 22.113 3.793 2.754-1.45 4.457h-4.683l-1.45-4.457Zm0 0"/><path fill="#FFF" d="m60.902.855 3.793 2.754-1.449 4.454h-4.684l-1.449-4.454Zm0 0"/><g clip-path="url(#b)"><path fill="none" stroke="red" stroke-miterlimit="10" stroke-width=".399" d="m60.902.855 3.793 2.754-1.449 4.454h-4.684l-1.449-4.454Zm0 0"/></g><path fill="#FFF" stroke="red" stroke-miterlimit="10" stroke-width=".399" d="m10.762 17.266 3.789 2.754-1.446 4.457H8.418L6.973 20.02Zm0 0"/><path fill="#FFF" d="m4.688 75.39 3.792 2.755-1.449 4.453H2.348l-1.45-4.453Zm0 0"/><g clip-path="url(#c)"><path fill="none" stroke="red" stroke-miterlimit="10" stroke-width=".399" d="m4.688 75.39 3.792 2.755-1.449 4.453H2.348l-1.45-4.453Zm0 0"/></g><path fill="#FFF" stroke="red" stroke-miterlimit="10" stroke-width=".399" d="m35.418 41.754 3.789 2.754-1.445 4.457h-4.684l-1.45-4.457Zm0 0"/></svg>