<svg xmlns="http://www.w3.org/2000/svg" width="59.132" height="59.132"><defs><clipPath id="a"><path d="M37 21h21.7v14H37Zm0 0"/></clipPath><clipPath id="b"><path d="M37 16h21.7v17H37Zm0 0"/></clipPath><clipPath id="c"><path d="M36 11h22.7v19H36Zm0 0"/></clipPath><clipPath id="d"><path d="M35 7h23.7v21H35Zm0 0"/></clipPath><clipPath id="e"><path d="M9 35h20v23.7H9Zm0 0"/></clipPath><clipPath id="f"><path d="M13 36h19v22.7H13Zm0 0"/></clipPath><clipPath id="g"><path d="M18 37h16v21.7H18Zm0 0"/></clipPath><clipPath id="h"><path d="M23 37h15v21.7H23Zm0 0"/></clipPath><clipPath id="i"><path d="M25 37h18v21.7H25Zm0 0"/></clipPath><clipPath id="j"><path d="M28 36h19v22.7H28Zm0 0"/></clipPath><clipPath id="k"><path d="M30 35h22v23.7H30Zm0 0"/></clipPath><clipPath id="l"><path d="M35 29h23.7v20H35Zm0 0"/></clipPath><clipPath id="m"><path d="M36 27h22.7v18H36Zm0 0"/></clipPath><clipPath id="n"><path d="M37 24h21.7v16H37Zm0 0"/></clipPath></defs><path fill="#7FFF7F" d="M43.305 29.129h14.172l-.11-2.469-14.117 1.235Zm0 0"/><g clip-path="url(#a)"><path fill="none" stroke="#0F0" stroke-miterlimit="10" stroke-width=".399" d="M43.305 29.129h14.172l-.11-2.469-14.117 1.235Zm0 0"/></g><path fill="#7FFF7F" d="m43.09 26.668 13.957-2.461-.535-2.414-13.692 3.668Zm0 0"/><g clip-path="url(#b)"><path fill="none" stroke="#0F0" stroke-miterlimit="10" stroke-width=".399" d="m43.09 26.668 13.957-2.461-.535-2.414-13.692 3.668Zm0 0"/></g><path fill="#7FFF7F" d="m42.45 24.281 13.316-4.847-.946-2.286-12.843 5.993Zm0 0"/><g clip-path="url(#c)"><path fill="none" stroke="#0F0" stroke-miterlimit="10" stroke-width=".399" d="m42.45 24.281 13.316-4.847-.946-2.286-12.843 5.993Zm0 0"/></g><path fill="#7FFF7F" d="m41.406 22.043 12.274-7.086-1.328-2.086L40.738 21Zm0 0"/><g clip-path="url(#d)"><path fill="none" stroke="#0F0" stroke-miterlimit="10" stroke-width=".399" d="m41.406 22.043 12.274-7.086-1.328-2.086L40.738 21Zm0 0"/></g><path fill="#7FFF7F" stroke="#0F0" stroke-miterlimit="10" stroke-width=".399" d="m39.988 20.02 10.856-9.11-1.668-1.824-10.024 10.023ZM38.242 18.273l9.11-10.859L45.39 5.91l-8.133 11.61ZM36.215 16.855l7.09-12.273-2.196-1.144-5.988 12.847ZM33.977 15.812l4.847-13.32-2.36-.742-3.667 13.691ZM31.59 15.172l2.46-13.957L31.603.89l-1.235 14.12Zm0 0"/><path fill="#FF7F7F" stroke="red" stroke-miterlimit="10" stroke-width=".399" d="M29.129 14.957V.781l-2.469.11 1.235 14.12ZM26.668 15.172 24.207 1.215l-2.414.535 3.668 13.691ZM24.281 15.812l-4.847-13.32-2.286.946 5.993 12.847ZM22.043 16.855 14.957 4.582 12.871 5.91 21 17.52ZM20.02 18.273 10.91 7.414 9.086 9.086l10.023 10.023ZM18.273 20.02 7.414 10.91 5.91 12.871 17.52 21ZM16.855 22.043 4.582 14.957l-1.144 2.191 12.847 5.993ZM15.812 24.281l-13.32-4.847-.742 2.359 13.691 3.668ZM15.172 26.668 1.215 24.207.89 26.66l14.12 1.235Zm0 0"/><path fill="#7F7FFF" stroke="#00F" stroke-miterlimit="10" stroke-width=".399" d="M14.957 29.129H.781l.11 2.473 14.12-1.235ZM15.172 31.59 1.215 34.05l.535 2.415 13.691-3.668ZM15.812 33.977l-13.32 4.847.946 2.285 12.847-5.988ZM16.855 36.215l-12.273 7.09L5.91 45.39l11.61-8.133ZM18.273 38.242l-10.859 9.11 1.672 1.824 10.023-10.024ZM20.02 39.988l-9.11 10.856 1.961 1.508L21 40.738Zm0 0"/><path fill="#7F7FFF" d="M22.043 41.406 14.957 53.68l2.191 1.14 5.993-12.843Zm0 0"/><g clip-path="url(#e)"><path fill="none" stroke="#00F" stroke-miterlimit="10" stroke-width=".399" d="M22.043 41.406 14.957 53.68l2.191 1.14 5.993-12.843Zm0 0"/></g><path fill="#7F7FFF" d="m24.281 42.45-4.847 13.316 2.359.746 3.668-13.692Zm0 0"/><g clip-path="url(#f)"><path fill="none" stroke="#00F" stroke-miterlimit="10" stroke-width=".399" d="m24.281 42.45-4.847 13.316 2.359.746 3.668-13.692Zm0 0"/></g><path fill="#7F7FFF" d="m26.668 43.09-2.461 13.957 2.453.32 1.235-14.117Zm0 0"/><g clip-path="url(#g)"><path fill="none" stroke="#00F" stroke-miterlimit="10" stroke-width=".399" d="m26.668 43.09-2.461 13.957 2.453.32 1.235-14.117Zm0 0"/></g><path fill="#FFBF7F" d="M29.129 43.305v14.172l2.473-.11-1.235-14.117Zm0 0"/><g clip-path="url(#h)"><path fill="none" stroke="#FF7F00" stroke-miterlimit="10" stroke-width=".399" d="M29.129 43.305v14.172l2.473-.11-1.235-14.117Zm0 0"/></g><path fill="#FFBF7F" d="m31.59 43.09 2.46 13.957 2.415-.535-3.668-13.692Zm0 0"/><g clip-path="url(#i)"><path fill="none" stroke="#FF7F00" stroke-miterlimit="10" stroke-width=".399" d="m31.59 43.09 2.46 13.957 2.415-.535-3.668-13.692Zm0 0"/></g><path fill="#FFBF7F" d="m33.977 42.45 4.847 13.316 2.285-.946-5.988-12.843Zm0 0"/><g clip-path="url(#j)"><path fill="none" stroke="#FF7F00" stroke-miterlimit="10" stroke-width=".399" d="m33.977 42.45 4.847 13.316 2.285-.946-5.988-12.843Zm0 0"/></g><path fill="#FFBF7F" d="m36.215 41.406 7.09 12.274 2.086-1.328-8.133-11.614Zm0 0"/><g clip-path="url(#k)"><path fill="none" stroke="#FF7F00" stroke-miterlimit="10" stroke-width=".399" d="m36.215 41.406 7.09 12.274 2.086-1.328-8.133-11.614Zm0 0"/></g><path fill="#FFBF7F" stroke="#FF7F00" stroke-miterlimit="10" stroke-width=".399" d="m38.242 39.988 9.11 10.856 1.824-1.668-10.024-10.024ZM39.988 38.242l10.856 9.11 1.508-1.961-11.614-8.133Zm0 0"/><path fill="#FFBF7F" d="m41.406 36.215 12.274 7.09 1.14-2.196-12.843-5.988Zm0 0"/><g clip-path="url(#l)"><path fill="none" stroke="#FF7F00" stroke-miterlimit="10" stroke-width=".399" d="m41.406 36.215 12.274 7.09 1.14-2.196-12.843-5.988Zm0 0"/></g><path fill="#FFBF7F" d="m42.45 33.977 13.316 4.847.746-2.36-13.692-3.667Zm0 0"/><g clip-path="url(#m)"><path fill="none" stroke="#FF7F00" stroke-miterlimit="10" stroke-width=".399" d="m42.45 33.977 13.316 4.847.746-2.36-13.692-3.667Zm0 0"/></g><path fill="#FFBF7F" d="m43.09 31.59 13.957 2.46.32-2.448-14.117-1.235Zm0 0"/><g clip-path="url(#n)"><path fill="none" stroke="#FF7F00" stroke-miterlimit="10" stroke-width=".399" d="m43.09 31.59 13.957 2.46.32-2.448-14.117-1.235Zm0 0"/></g></svg>