<svg xmlns="http://www.w3.org/2000/svg" width="87.058" height="115.814"><path fill="none" stroke="#000" stroke-miterlimit="10" stroke-width=".399" d="M.54 29.469h28.343V1.125H57.23v28.344h28.348M.54 71.988h9.448v-9.445h9.446v9.445h9.449v-9.445h-9.445v-9.45h9.445v-9.448h9.449v-9.45h9.45v9.45h9.448v9.449h9.45v9.449h-9.45v9.445h9.45v-9.445h9.449v9.445h9.45M.54 114.512h3.148v-3.153h3.148v3.153h3.152v-3.153H6.836v-3.148h3.152v-3.148h3.149v-3.149h3.148v3.148h3.149v3.149h3.152v3.148h-3.152v3.153h3.152v-3.153h3.148v3.153h3.149v-3.153h-3.149v-3.148h3.149v-3.148h-3.149v3.148h-3.148v-3.148h-3.148v-3.149h-3.153v-3.152h3.153v-3.149h3.148v-3.148h3.148v3.148h3.149v-3.148h-3.149v-3.153h3.149v-3.148h3.152v-3.148h3.149v3.148h3.148v-3.148h-3.148v-3.153h3.148v-3.148h3.152v-3.149h3.149v3.149h3.148v3.148h3.149v3.153H47.78v3.148h3.149v-3.148h3.152v3.148h3.148v3.148h3.149v3.153H57.23v3.148h3.149v-3.148h3.152v3.148h3.149v3.149h3.148v3.148H66.68v3.153H63.53v3.148H60.38v-3.148H57.23v3.148h3.149v3.148H57.23v3.153h3.149v-3.153h3.152v3.153h3.149v-3.153H63.53v-3.148h3.149v-3.148h3.148v-3.153h3.152v3.153h3.149v3.148h3.148v3.148H76.13v3.153h3.148v-3.153h3.153v3.153h3.148"/></svg>