<svg xmlns="http://www.w3.org/2000/svg" xmlns:xlink="http://www.w3.org/1999/xlink" width="123.259" height="108.92"><defs><path id="d" d="M5.563-1.812c.14 0 .312 0 .312-.172 0-.188-.172-.188-.312-.188H1c-.125 0-.297 0-.297.188 0 .172.172.172.297.172Zm0 0"/><path id="e" d="M2.25-1.625c.125-.125.453-.39.594-.5.484-.453.953-.89.953-1.61 0-.953-.797-1.562-1.781-1.562-.97 0-1.594.719-1.594 1.438 0 .39.312.437.422.437.172 0 .422-.11.422-.422 0-.406-.407-.406-.5-.406.234-.594.765-.781 1.156-.781.734 0 1.125.625 1.125 1.297 0 .828-.578 1.437-1.531 2.39l-1 1.047C.422-.219.422-.203.422 0h3.14l.235-1.422h-.25c-.016.156-.078.547-.172.703-.047.063-.656.063-.781.063H1.172Zm0 0"/><path id="f" d="M2.5-5.078c0-.219-.016-.219-.234-.219-.328.313-.75.5-1.5.5v.266c.218 0 .64 0 1.109-.203v4.078c0 .297-.031.39-.781.39H.812V0c.329-.031 1.016-.031 1.376-.031s1.046 0 1.374.031v-.266h-.28c-.75 0-.782-.093-.782-.39Zm0 0"/><path id="g" d="M3.89-2.547c0-.844-.078-1.36-.343-1.875-.344-.703-1-.875-1.438-.875-1 0-1.375.75-1.484.969C.344-3.75.328-2.953.328-2.547c0 .531.016 1.328.406 1.969.36.594.954.75 1.375.75.391 0 1.063-.125 1.47-.906.296-.578.312-1.297.312-1.813M2.11-.062c-.266 0-.813-.125-.985-.954-.094-.453-.094-1.203-.094-1.625 0-.546 0-1.109.094-1.546.172-.813.781-.891.984-.891.266 0 .829.14.985.86.094.437.094 1.046.094 1.577 0 .47 0 1.188-.094 1.641-.172.828-.719.938-.985.938m0 0"/><clipPath id="a"><path d="M61 1h1v107.879h-1Zm0 0"/></clipPath><clipPath id="b"><path d="M10 31h112.887v65H10Zm0 0"/></clipPath><clipPath id="c"><path d="M57 38h65.887v70.879H57Zm0 0"/></clipPath></defs><path fill="none" stroke="#000" stroke-linecap="round" stroke-miterlimit="10" stroke-width=".399" d="M18.742 68.207v-3.988M40 68.207v-3.988M82.52 68.207v-3.988M103.781 68.207v-3.988M59.27 87.473h3.984M59.27 44.953h3.984M59.27 23.691h3.984"/><path fill="none" stroke="#000" stroke-miterlimit="10" stroke-width=".399" d="M.637 66.215h120.847"/><path fill="none" stroke="#000" stroke-linecap="round" stroke-linejoin="round" stroke-miterlimit="10" stroke-width=".399" d="M119.61 63.82c.378 1.438 1.222 2.114 2.074 2.395-.852.277-1.696.953-2.075 2.39"/><g clip-path="url(#a)"><path fill="none" stroke="#000" stroke-miterlimit="10" stroke-width=".399" d="M61.262 107.875V1.359"/></g><path fill="none" stroke="#000" stroke-linecap="round" stroke-linejoin="round" stroke-miterlimit="10" stroke-width=".399" d="M58.871 3.23c1.434-.375 2.11-1.218 2.39-2.07.278.852.958 1.695 2.391 2.07"/><path fill="none" stroke="#090" stroke-miterlimit="10" stroke-width=".598" d="M8.11 64.469s2.242-.192 3.1-.274c.86-.082 2.24-.222 3.102-.316a164.333 164.333 0 0 0 9.3-1.281c.86-.149 2.24-.403 3.099-.57.863-.173 2.242-.462 3.102-.657.859-.2 2.242-.535 3.101-.762.86-.226 2.238-.617 3.098-.879a93 93 0 0 0 3.101-1.02 77 77 0 0 0 3.102-1.179 71 71 0 0 0 3.097-1.363 66 66 0 0 0 3.102-1.578 64 64 0 0 0 3.102-1.824 63 63 0 0 0 3.097-2.11 63 63 0 0 0 3.102-2.441c.86-.73 2.242-1.98 3.101-2.828a76 76 0 0 0 3.102-3.262 80 80 0 0 0 3.098-3.781 94 94 0 0 0 3.101-4.375 112 112 0 0 0 3.102-5.063c.86-1.515 2.238-4.105 3.097-5.855.86-1.754 2.243-4.75 3.102-6.778.86-2.027 3.102-7.84 3.102-7.84"/><path fill="none" stroke="#00C" stroke-miterlimit="10" stroke-width=".598" d="M29.371 18.379s1.918 5.613 2.656 7.64a284 284 0 0 0 2.66 6.977 205 205 0 0 0 2.657 6.309A166 166 0 0 0 40 44.953a128 128 0 0 0 2.656 4.984 89 89 0 0 0 2.66 4.317c.739 1.105 1.918 2.734 2.657 3.656.738.918 1.922 2.25 2.656 2.988.738.739 1.922 1.774 2.66 2.325.738.554 1.918 1.293 2.656 1.66.739.37 1.922.812 2.657.996.738.187 1.921.336 2.66.336.734 0 1.918-.149 2.656-.336.738-.184 1.922-.625 2.656-.996.739-.367 1.922-1.106 2.66-1.66.735-.551 1.918-1.586 2.657-2.325.738-.738 1.918-2.07 2.656-2.988a63 63 0 0 0 2.66-3.656 92 92 0 0 0 2.656-4.317 123 123 0 0 0 2.657-4.984 166 166 0 0 0 2.66-5.648 226 226 0 0 0 2.656-6.309 284 284 0 0 0 2.656-6.976c.738-2.028 2.66-7.641 2.66-7.641"/><g clip-path="url(#b)"><path fill="none" stroke="#C00" stroke-miterlimit="10" stroke-width=".598" d="M18.742 87.473s2.88-1.442 3.985-1.993c1.105-.554 2.878-1.44 3.988-1.992 1.105-.554 2.879-1.441 3.984-1.996 1.106-.55 2.88-1.437 3.988-1.992 1.106-.55 2.88-1.441 3.985-1.992a1893 1893 0 0 1 3.984-1.992l3.989-1.996c1.105-.551 2.878-1.438 3.984-1.993 1.11-.55 2.883-1.437 3.988-1.992 1.106-.555 2.88-1.441 3.985-1.992 1.109-.555 2.882-1.441 3.988-1.996 1.105-.55 2.879-1.438 3.984-1.992 1.106-.551 2.883-1.438 3.989-1.993 1.105-.554 2.878-1.44 3.984-1.992 1.105-.554 2.883-1.441 3.988-1.996 1.106-.55 2.88-1.437 3.985-1.992 1.105-.55 2.882-1.437 3.988-1.992s2.879-1.442 3.984-1.992c1.106-.555 2.88-1.442 3.988-1.993 1.106-.554 2.88-1.44 3.985-1.996 1.105-.55 2.879-1.437 3.988-1.992a1893 1893 0 0 1 3.984-1.992c1.106-.555 2.88-1.441 3.989-1.992 1.105-.555 3.984-1.996 3.984-1.996"/></g><g clip-path="url(#c)"><path fill="none" stroke="#000" stroke-miterlimit="10" stroke-width=".598" d="M65.512 100.402s1.472-6.316 2.039-8.297c.562-1.976 1.472-4.488 2.035-5.96.566-1.473 1.473-3.477 2.039-4.653.563-1.176 1.473-2.84 2.035-3.82a65 65 0 0 1 2.04-3.23 68 68 0 0 1 2.034-2.81 69 69 0 0 1 2.04-2.476 72 72 0 0 1 2.035-2.219 76 76 0 0 1 2.039-2.011 72 72 0 0 1 2.039-1.836 79 79 0 0 1 2.035-1.692 89 89 0 0 1 2.039-1.562 85 85 0 0 1 2.035-1.461c.567-.39 1.473-.996 2.04-1.363.562-.367 1.468-.934 2.034-1.282a111 111 0 0 1 4.075-2.351 172 172 0 0 1 2.039-1.086 166 166 0 0 1 2.035-1.035c.566-.281 1.472-.719 2.039-.985.566-.265 1.472-.683 2.035-.941.566-.254 1.473-.656 2.039-.902s1.473-.63 2.035-.864c.567-.234 2.04-.832 2.04-.832"/></g><use xlink:href="#d" x="13.332" y="75.998"/><use xlink:href="#e" x="19.918" y="75.998"/><use xlink:href="#d" x="34.59" y="75.998"/><use xlink:href="#f" x="41.178" y="75.998"/><use xlink:href="#f" x="80.403" y="75.998"/><use xlink:href="#e" x="101.663" y="75.998"/><use xlink:href="#d" x="45.791" y="89.625"/><use xlink:href="#f" x="52.379" y="89.625"/><use xlink:href="#g" x="54.37" y="74.005"/><use xlink:href="#f" x="52.379" y="47.521"/><use xlink:href="#e" x="52.379" y="26.262"/></svg>