<svg xmlns="http://www.w3.org/2000/svg" width="56.522" height="64.946"><defs><clipPath id="a"><path d="M1 1h54v63H1Zm0 0"/></clipPath><clipPath id="b"><path d="M1.121 47.98h1.992l.996 1.723.996-1.723h1.997l.996 1.723-.996 1.727h1.992l.996 1.726.996-1.726h1.992l-.996-1.727.996-1.723h1.992l.996 1.723.997-1.723h1.992l.996 1.723-.996 1.727h1.992l.996 1.726-.996 1.727h-1.992l.996 1.722-.996 1.727h1.992l.996 1.727.996-1.727h1.992l.996 1.727-.996 1.726h1.992l.997 1.723 1-1.723h1.992l-.996-1.726.996-1.727h1.992L34 60.059l.996-1.727h1.992l-.996-1.727.996-1.722h-1.992L34 53.156l.996-1.726h1.992l-.996-1.727.996-1.723h1.992l.997 1.723.996-1.723h1.992l.996 1.723-.996 1.727h1.992l.996 1.726.996-1.726h1.992l-.996-1.727.996-1.723h1.996l.997 1.723.996-1.723h1.992l-.996-1.726.996-1.727H52.93l-.996-1.726.996-1.723h1.992l-.996-1.726.996-1.727H52.93l-.996-1.727-.996 1.727H48.94l-.996-1.727.996-1.722H46.95l-.996-1.727.996-1.726h1.992l-.996-1.727.996-1.723h1.996l.997 1.723.996-1.723h1.992l-.996-1.726.996-1.727H52.93l-.996-1.726.996-1.723h1.992l-.996-1.726.996-1.727H52.93l-.996-1.727-.996 1.727H48.94l-.996-1.727.996-1.722H46.95l-.996-1.727-.996 1.727h-1.992l.996 1.722-.996 1.727h-1.992l-.996-1.727-.997 1.727h-1.992l-.996-1.727.996-1.722h-1.992L34 11.742l.996-1.726h1.992l-.996-1.727.996-1.726h-1.992L34 4.84l-.996 1.723h-1.992l-.996-1.723.996-1.727H29.02l-1-1.726-.997 1.726h-1.992l.996 1.727-.996 1.723H23.04l-.996-1.723-.996 1.723h-1.992l.996 1.726-.996 1.727h1.992l.996 1.726-.996 1.727h-1.992l.996 1.722-.996 1.727h-1.992l-.997-1.727-.996 1.727h-1.992l-.996-1.727.996-1.722h-1.992l-.996-1.727-.996 1.727H7.102l.996 1.722-.996 1.727H5.105l-.996-1.727-.996 1.727H1.121l.996 1.727-.996 1.726h1.992l.996 1.723-.996 1.726H1.121l.996 1.727-.996 1.726h1.992l.996 1.723.996-1.723h1.997l.996 1.723-.996 1.727h1.992l.996 1.726-.996 1.727H7.102l.996 1.722-.996 1.727H5.105l-.996-1.727-.996 1.727H1.121l.996 1.727-.996 1.726h1.992l.996 1.723-.996 1.726H1.121l.996 1.727Zm0 0"/></clipPath><clipPath id="d"><path d="M0 0h56.281v64.918H0Zm0 0"/></clipPath><linearGradient id="c" x1="0" x2="0" y1="25.003" y2="74.997" gradientTransform="matrix(1.07611 0 0 -1.24258 -25.784 94.578)" gradientUnits="userSpaceOnUse"><stop offset="0" stop-color="#8080FF"/><stop offset=".008" stop-color="#8080FF"/><stop offset=".016" stop-color="#8181FF"/><stop offset=".023" stop-color="#8282FF"/><stop offset=".031" stop-color="#8383FF"/><stop offset=".039" stop-color="#8484FF"/><stop offset=".047" stop-color="#8585FF"/><stop offset=".055" stop-color="#8686FF"/><stop offset=".063" stop-color="#8787FF"/><stop offset=".07" stop-color="#88F"/><stop offset=".078" stop-color="#8989FF"/><stop offset=".086" stop-color="#8A8AFF"/><stop offset=".094" stop-color="#8B8BFF"/><stop offset=".102" stop-color="#8C8CFF"/><stop offset=".109" stop-color="#8D8DFF"/><stop offset=".117" stop-color="#8E8EFF"/><stop offset=".125" stop-color="#8F8FFF"/><stop offset=".133" stop-color="#9090FF"/><stop offset=".141" stop-color="#9191FF"/><stop offset=".148" stop-color="#9292FF"/><stop offset=".156" stop-color="#9393FF"/><stop offset=".164" stop-color="#9494FF"/><stop offset=".172" stop-color="#9595FF"/><stop offset=".18" stop-color="#9696FF"/><stop offset=".188" stop-color="#9797FF"/><stop offset=".195" stop-color="#9898FF"/><stop offset=".203" stop-color="#99F"/><stop offset=".211" stop-color="#9A9AFF"/><stop offset=".219" stop-color="#9B9BFF"/><stop offset=".227" stop-color="#9C9CFF"/><stop offset=".234" stop-color="#9D9DFF"/><stop offset=".242" stop-color="#9E9EFF"/><stop offset=".25" stop-color="#9F9FFF"/><stop offset=".258" stop-color="#A0A0FF"/><stop offset=".266" stop-color="#A1A1FF"/><stop offset=".273" stop-color="#A2A2FF"/><stop offset=".281" stop-color="#A3A3FF"/><stop offset=".289" stop-color="#A4A4FF"/><stop offset=".297" stop-color="#A5A5FF"/><stop offset=".305" stop-color="#A6A6FF"/><stop offset=".313" stop-color="#A7A7FF"/><stop offset=".32" stop-color="#A8A8FF"/><stop offset=".328" stop-color="#A9A9FF"/><stop offset=".336" stop-color="#AAF"/><stop offset=".344" stop-color="#ABABFF"/><stop offset=".352" stop-color="#ACACFF"/><stop offset=".359" stop-color="#ADADFF"/><stop offset=".367" stop-color="#AEAEFF"/><stop offset=".375" stop-color="#AFAFFF"/><stop offset=".383" stop-color="#B0B0FF"/><stop offset=".391" stop-color="#B1B1FF"/><stop offset=".398" stop-color="#B2B2FF"/><stop offset=".406" stop-color="#B3B3FF"/><stop offset=".414" stop-color="#B4B4FF"/><stop offset=".422" stop-color="#B5B5FF"/><stop offset=".43" stop-color="#B6B6FF"/><stop offset=".438" stop-color="#B7B7FF"/><stop offset=".445" stop-color="#B8B8FF"/><stop offset=".453" stop-color="#B9B9FF"/><stop offset=".461" stop-color="#BABAFF"/><stop offset=".469" stop-color="#BBF"/><stop offset=".477" stop-color="#BCBCFF"/><stop offset=".484" stop-color="#BDBDFF"/><stop offset=".492" stop-color="#BEBEFF"/><stop offset=".5" stop-color="#BFBFFF"/><stop offset=".508" stop-color="#C0C0FF"/><stop offset=".516" stop-color="#C1C1FF"/><stop offset=".523" stop-color="#C2C2FF"/><stop offset=".531" stop-color="#C3C3FF"/><stop offset=".539" stop-color="#C4C4FF"/><stop offset=".547" stop-color="#C5C5FF"/><stop offset=".555" stop-color="#C6C6FF"/><stop offset=".563" stop-color="#C7C7FF"/><stop offset=".57" stop-color="#C8C8FF"/><stop offset=".578" stop-color="#C9C9FF"/><stop offset=".586" stop-color="#CACAFF"/><stop offset=".594" stop-color="#CBCBFF"/><stop offset=".602" stop-color="#CCF"/><stop offset=".609" stop-color="#CDCDFF"/><stop offset=".617" stop-color="#CECEFF"/><stop offset=".625" stop-color="#CFCFFF"/><stop offset=".633" stop-color="#D0D0FF"/><stop offset=".641" stop-color="#D1D1FF"/><stop offset=".648" stop-color="#D2D2FF"/><stop offset=".656" stop-color="#D3D3FF"/><stop offset=".664" stop-color="#D4D4FF"/><stop offset=".672" stop-color="#D5D5FF"/><stop offset=".68" stop-color="#D6D6FF"/><stop offset=".688" stop-color="#D7D7FF"/><stop offset=".695" stop-color="#D8D8FF"/><stop offset=".703" stop-color="#D9D9FF"/><stop offset=".711" stop-color="#DADAFF"/><stop offset=".719" stop-color="#DBDBFF"/><stop offset=".727" stop-color="#DCDCFF"/><stop offset=".734" stop-color="#DDF"/><stop offset=".742" stop-color="#DEDEFF"/><stop offset=".75" stop-color="#DFDFFF"/><stop offset=".758" stop-color="#E0E0FF"/><stop offset=".766" stop-color="#E1E1FF"/><stop offset=".773" stop-color="#E2E2FF"/><stop offset=".781" stop-color="#E3E3FF"/><stop offset=".789" stop-color="#E4E4FF"/><stop offset=".797" stop-color="#E5E5FF"/><stop offset=".805" stop-color="#E6E6FF"/><stop offset=".813" stop-color="#E7E7FF"/><stop offset=".82" stop-color="#E8E8FF"/><stop offset=".828" stop-color="#E9E9FF"/><stop offset=".836" stop-color="#EAEAFF"/><stop offset=".844" stop-color="#EBEBFF"/><stop offset=".852" stop-color="#ECECFF"/><stop offset=".859" stop-color="#EDEDFF"/><stop offset=".867" stop-color="#EEF"/><stop offset=".875" stop-color="#EFEFFF"/><stop offset=".883" stop-color="#F0F0FF"/><stop offset=".891" stop-color="#F1F1FF"/><stop offset=".898" stop-color="#F2F2FF"/><stop offset=".906" stop-color="#F3F3FF"/><stop offset=".914" stop-color="#F4F4FF"/><stop offset=".922" stop-color="#F5F5FF"/><stop offset=".93" stop-color="#F6F6FF"/><stop offset=".938" stop-color="#F7F7FF"/><stop offset=".945" stop-color="#F8F8FF"/><stop offset=".953" stop-color="#F9F9FF"/><stop offset=".961" stop-color="#FAFAFF"/><stop offset=".969" stop-color="#FBFBFF"/><stop offset=".977" stop-color="#FCFCFF"/><stop offset=".984" stop-color="#FCFCFF"/><stop offset=".992" stop-color="#FDFDFF"/><stop offset="1" stop-color="#FEFEFF"/></linearGradient></defs><g clip-path="url(#a)"><g clip-path="url(#b)"><path fill="url(#c)" d="M1.121 63.508V1.387h53.8v62.12Zm0 0"/></g></g><g clip-path="url(#d)"><path fill="none" stroke="#00007F" stroke-miterlimit="10" stroke-width=".399" d="M1.121 47.98h1.992l.996 1.723.996-1.723h1.997l.996 1.723-.996 1.727h1.992l.996 1.726.996-1.726h1.992l-.996-1.727.996-1.723h1.992l.996 1.723.997-1.723h1.992l.996 1.723-.996 1.727h1.992l.996 1.726-.996 1.727h-1.992l.996 1.722-.996 1.727h1.992l.996 1.727.996-1.727h1.992l.996 1.727-.996 1.726h1.992l.997 1.723 1-1.723h1.992l-.996-1.726.996-1.727h1.992L34 60.059l.996-1.727h1.992l-.996-1.727.996-1.722h-1.992L34 53.156l.996-1.726h1.992l-.996-1.727.996-1.723h1.992l.997 1.723.996-1.723h1.992l.996 1.723-.996 1.727h1.992l.996 1.726.996-1.726h1.992l-.996-1.727.996-1.723h1.996l.997 1.723.996-1.723h1.992l-.996-1.726.996-1.727H52.93l-.996-1.726.996-1.723h1.992l-.996-1.726.996-1.727H52.93l-.996-1.727-.996 1.727H48.94l-.996-1.727.996-1.722H46.95l-.996-1.727.996-1.726h1.992l-.996-1.727.996-1.723h1.996l.997 1.723.996-1.723h1.992l-.996-1.726.996-1.727H52.93l-.996-1.726.996-1.723h1.992l-.996-1.726.996-1.727H52.93l-.996-1.727-.996 1.727H48.94l-.996-1.727.996-1.722H46.95l-.996-1.727-.996 1.727h-1.992l.996 1.722-.996 1.727h-1.992l-.996-1.727-.997 1.727h-1.992l-.996-1.727.996-1.722h-1.992L34 11.742l.996-1.726h1.992l-.996-1.727.996-1.726h-1.992L34 4.84l-.996 1.723h-1.992l-.996-1.723.996-1.727H29.02l-1-1.726-.997 1.726h-1.992l.996 1.727-.996 1.723H23.04l-.996-1.723-.996 1.723h-1.992l.996 1.726-.996 1.727h1.992l.996 1.726-.996 1.727h-1.992l.996 1.722-.996 1.727h-1.992l-.997-1.727-.996 1.727h-1.992l-.996-1.727.996-1.722h-1.992l-.996-1.727-.996 1.727H7.102l.996 1.722-.996 1.727H5.105l-.996-1.727-.996 1.727H1.121l.996 1.727-.996 1.726h1.992l.996 1.723-.996 1.726H1.121l.996 1.727-.996 1.726h1.992l.996 1.723.996-1.723h1.997l.996 1.723-.996 1.727h1.992l.996 1.726-.996 1.727H7.102l.996 1.722-.996 1.727H5.105l-.996-1.727-.996 1.727H1.121l.996 1.727-.996 1.726h1.992l.996 1.723-.996 1.726H1.121l.996 1.727Zm0 0"/></g></svg>