<svg xmlns="http://www.w3.org/2000/svg" width="85.867" height="97.562"><defs><clipPath id="a"><path d="M0 45h43v52.344H0Zm0 0"/></clipPath><clipPath id="b"><path d="M0 47h40v50.344H0Zm0 0"/></clipPath><clipPath id="c"><path d="M0 46h39v51.344H0Zm0 0"/></clipPath><clipPath id="d"><path d="M0 46h47v51.344H0Zm0 0"/></clipPath><clipPath id="e"><path d="M1 53h55v44.344H1Zm0 0"/></clipPath><clipPath id="f"><path d="M5 56h56v41.344H5Zm0 0"/></clipPath><clipPath id="g"><path d="M15 60h49v37.344H15Zm0 0"/></clipPath><clipPath id="h"><path d="M18 61h54v36.344H18Zm0 0"/></clipPath><clipPath id="i"><path d="M19 59h51v38.344H19Zm0 0"/></clipPath><clipPath id="j"><path d="M24 61h54v36.344H24Zm0 0"/></clipPath><clipPath id="k"><path d="M32 62h53.8v35.344H32Zm0 0"/></clipPath><clipPath id="l"><path d="M32 58h53.8v39.344H32Zm0 0"/></clipPath><clipPath id="m"><path d="M32 54h52v43.344H32Zm0 0"/></clipPath><clipPath id="n"><path d="M36 52h49.8v45.344H36Zm0 0"/></clipPath><clipPath id="o"><path d="M32 53h53.8v44.344H32Zm0 0"/></clipPath><clipPath id="p"><path d="M34 53h50v44.344H34Zm0 0"/></clipPath><clipPath id="q"><path d="M32 54h53v43.344H32Zm0 0"/></clipPath><clipPath id="r"><path d="M35 59h50.8v38.344H35Zm0 0"/></clipPath><clipPath id="s"><path d="M40 52h45.8v45.344H40Zm0 0"/></clipPath><clipPath id="t"><path d="M44 49h41.8v48.344H44Zm0 0"/></clipPath><clipPath id="u"><path d="M40 54h45.8v43.344H40Zm0 0"/></clipPath><clipPath id="v"><path d="M43 62h42.8v35.344H43Zm0 0"/></clipPath><clipPath id="w"><path d="M48 56h37.8v41.344H48Zm0 0"/></clipPath><clipPath id="x"><path d="M46 57h39.8v40.344H46Zm0 0"/></clipPath><clipPath id="y"><path d="M45 49h40.8v48.344H45Zm0 0"/></clipPath><clipPath id="z"><path d="M38 50h47.8v47.344H38Zm0 0"/></clipPath><clipPath id="A"><path d="M39 50h46.8v47.344H39Zm0 0"/></clipPath><clipPath id="B"><path d="M41 50h44.8v47.344H41Zm0 0"/></clipPath><clipPath id="C"><path d="M38 52h47.8v45.344H38Zm0 0"/></clipPath><clipPath id="D"><path d="M39 54h46.8v43.344H39Zm0 0"/></clipPath><clipPath id="E"><path d="M41 44h44.8v53.344H41Zm0 0"/></clipPath><clipPath id="F"><path d="M44 44h41.8v53.344H44Zm0 0"/></clipPath><clipPath id="G"><path d="M34 46h51.8v51.344H34Zm0 0"/></clipPath><clipPath id="H"><path d="M36 42h49.8v55.344H36Zm0 0"/></clipPath><clipPath id="I"><path d="M44 35h41.8v53H44Zm0 0"/></clipPath><clipPath id="J"><path d="M43 32h42.8v57H43Zm0 0"/></clipPath><clipPath id="K"><path d="M44 24h41.8v54H44Zm0 0"/></clipPath><clipPath id="L"><path d="M39 27h46.8v50H39Zm0 0"/></clipPath><clipPath id="M"><path d="M48 20h37.8v53H48Zm0 0"/></clipPath><clipPath id="N"><path d="M50 11h35.8v55H50Zm0 0"/></clipPath><clipPath id="O"><path d="M53 11h32.8v52H53Zm0 0"/></clipPath><clipPath id="P"><path d="M58 9h27.8v55H58Zm0 0"/></clipPath><clipPath id="Q"><path d="M51 18h34.8v55H51Zm0 0"/></clipPath><clipPath id="R"><path d="M42 23h43.8v48H42Zm0 0"/></clipPath><clipPath id="S"><path d="M43 23h42.8v51H43Zm0 0"/></clipPath><clipPath id="T"><path d="M43 26h42.8v51H43Zm0 0"/></clipPath><clipPath id="U"><path d="M42 23h43.8v50H42Zm0 0"/></clipPath><clipPath id="V"><path d="M41 27h44.8v50H41Zm0 0"/></clipPath></defs><path fill="none" stroke="#FFF" stroke-linecap="round" stroke-miterlimit="10" stroke-width="1.594" d="M28.79 7.34s1.901-1.25 1.312 8.598"/><path fill="none" stroke="#FFFCFC" stroke-linecap="round" stroke-miterlimit="10" stroke-width="1.594" d="M30.102 15.938c-.59 9.847 2.378-2.368-2.5-9.157"/><path fill="none" stroke="snow" stroke-linecap="round" stroke-miterlimit="10" stroke-width="1.594" d="M27.602 6.781c-4.88-6.789 2.32-3.843-1.961-2.89"/><path fill="none" stroke="#FFF7F7" stroke-linecap="round" stroke-miterlimit="10" stroke-width="1.594" d="M25.64 3.89c-4.285.954 3.012-5.53-3.03.93"/><path fill="none" stroke="#FFF5F5" stroke-linecap="round" stroke-miterlimit="10" stroke-width="1.594" d="M22.61 4.82c-6.044 6.461 14.73-9.777 8.773-.027"/><path fill="none" stroke="#FFF2F2" stroke-linecap="round" stroke-miterlimit="10" stroke-width="1.594" d="M31.383 4.793c-5.957 9.746 2.039 8.437.156 6.184"/><path fill="none" stroke="#FFF0F0" stroke-linecap="round" stroke-miterlimit="10" stroke-width="1.594" d="M31.54 10.977c-1.88-2.254 6.144 4.113 3.015 2.546"/><path fill="none" stroke="#FFEDED" stroke-linecap="round" stroke-miterlimit="10" stroke-width="1.594" d="M34.555 13.523c-3.133-1.57 15.68 12.875 6.218 4.817"/><path fill="none" stroke="#FFEBEB" stroke-linecap="round" stroke-miterlimit="10" stroke-width="1.594" d="M40.773 18.34c-9.46-8.055-3.652-2.184-4.015-9.723"/><path fill="none" stroke="#FFE8E8" stroke-linecap="round" stroke-miterlimit="10" stroke-width="1.594" d="M36.758 8.617c-.363-7.543 4.527 12.613-.047 9.266"/><path fill="none" stroke="#FFE5E5" stroke-linecap="round" stroke-miterlimit="10" stroke-width="1.594" d="M36.71 17.883c-4.577-3.352 3.267 14.742-2.253 8.933"/><path fill="none" stroke="#FFE3E3" stroke-linecap="round" stroke-miterlimit="10" stroke-width="1.594" d="M34.457 26.816c-5.52-5.804-18.27 2.532-9.754 2.508"/><path fill="none" stroke="#FFE0E0" stroke-linecap="round" stroke-miterlimit="10" stroke-width="1.594" d="M24.703 29.324c8.516-.023-11.492-.71-9.086 5.852"/><path fill="none" stroke="#FFDEDE" stroke-linecap="round" stroke-miterlimit="10" stroke-width="1.594" d="M15.617 35.176c2.406 6.566-2.652.11-1.125 6.043"/><path fill="none" stroke="#FFDBDB" stroke-linecap="round" stroke-miterlimit="10" stroke-width="1.594" d="M14.492 41.219c1.524 5.93 3.567 10.476 1.242 4.445"/><path fill="none" stroke="#FFD9D9" stroke-linecap="round" stroke-miterlimit="10" stroke-width="1.594" d="M15.734 45.664c-2.324-6.035 2.336 7.004-7.308 3.258"/><path fill="none" stroke="#FFD6D6" stroke-linecap="round" stroke-miterlimit="10" stroke-width="1.594" d="M8.426 48.922c-9.649-3.75-3.223 9.273 6.004 2.16"/><path fill="none" stroke="#FFD4D4" stroke-linecap="round" stroke-miterlimit="10" stroke-width="1.594" d="M14.43 51.082c9.23-7.113 13.625-8.363 7.043-1.828"/><path fill="none" stroke="#FFD1D1" stroke-linecap="round" stroke-miterlimit="10" stroke-width="1.594" d="M21.473 49.254c-6.582 6.535-17.965 10.492-8.239 5.918"/><path fill="none" stroke="#FFCFCF" stroke-linecap="round" stroke-miterlimit="10" stroke-width="1.594" d="M13.234 55.172c9.73-4.574 2.34-2.137 4.325-9.453"/><path fill="none" stroke="#FCC" stroke-linecap="round" stroke-miterlimit="10" stroke-width="1.594" d="M17.559 45.719c1.98-7.317-7.07-15.735-6.688-5.836"/><path fill="none" stroke="#FFC9C9" stroke-linecap="round" stroke-miterlimit="10" stroke-width="1.594" d="M10.871 39.883c.383 9.898 7.188-13.106 8.188-3.836"/><path fill="none" stroke="#FFC7C7" stroke-linecap="round" stroke-miterlimit="10" stroke-width="1.594" d="M19.059 36.047c1 9.27-2.528 13.082-2.446 6.226"/><path fill="none" stroke="#FFC4C4" stroke-linecap="round" stroke-miterlimit="10" stroke-width="1.594" d="M16.613 42.273c.078-6.855-15.011-2.925-9.406-4.261"/><path fill="none" stroke="#FFC2C2" stroke-linecap="round" stroke-miterlimit="10" stroke-width="1.594" d="M7.207 38.012c5.606-1.34-3.332 6.203-5.227 1.129"/><path fill="none" stroke="#FFBFBF" stroke-linecap="round" stroke-miterlimit="10" stroke-width="1.594" d="M1.98 39.14c-1.89-5.074 8.211-3.855 8.243-8.6"/><path fill="none" stroke="#FFBDBD" stroke-linecap="round" stroke-miterlimit="10" stroke-width="1.594" d="M10.223 30.54c.03-4.747 8.336-5.165 1.582-.942"/><path fill="none" stroke="#FFBABA" stroke-linecap="round" stroke-miterlimit="10" stroke-width="1.594" d="M11.805 29.598c-6.75 4.222 9.785 14.449.968 8.402"/><path fill="none" stroke="#FFB8B8" stroke-linecap="round" stroke-miterlimit="10" stroke-width="1.594" d="M12.773 38c-8.82-6.05-1.558-.3 5.461 4.633"/><path fill="none" stroke="#FFB5B5" stroke-linecap="round" stroke-miterlimit="10" stroke-width="1.594" d="M18.234 42.633c7.024 4.937 10.778 3.535 2.743 2.785"/><path fill="none" stroke="#FFB2B2" stroke-linecap="round" stroke-miterlimit="10" stroke-width="1.594" d="M20.977 45.418c-8.04-.75.484 1.578 4.148 9.777"/><path fill="none" stroke="#FFB0B0" stroke-linecap="round" stroke-miterlimit="10" stroke-width="1.594" d="M25.125 55.195c3.664 8.2-17.52-13.101-8.062-5.062"/><path fill="none" stroke="#FFADAD" stroke-linecap="round" stroke-miterlimit="10" stroke-width="1.594" d="M17.063 50.133c9.453 8.035-4.622-17.973 1.671-9.485"/><path fill="none" stroke="#FFABAB" stroke-linecap="round" stroke-miterlimit="10" stroke-width="1.594" d="M18.734 40.648c6.297 8.485-1.21-5.02-5.672 4.747"/><path fill="none" stroke="#FFA8A8" stroke-linecap="round" stroke-miterlimit="10" stroke-width="1.594" d="M13.063 45.395c-4.461 9.765 5.714 2.757 1.175-1.418"/><path fill="none" stroke="#FFA6A6" stroke-linecap="round" stroke-miterlimit="10" stroke-width="1.594" d="M14.238 43.977c-4.539-4.18 3.594 7.828 1.453-1.211"/><path fill="none" stroke="#FFA3A3" stroke-linecap="round" stroke-miterlimit="10" stroke-width="1.594" d="M15.691 42.766c-2.144-9.036 4.086-4.391-3.53 1.972"/><path fill="none" stroke="#FFA1A1" stroke-linecap="round" stroke-miterlimit="10" stroke-width="1.594" d="M12.16 44.738c-7.613 6.364-10.605 13.063-9.496 9.383"/><path fill="none" stroke="#FF9E9E" stroke-linecap="round" stroke-miterlimit="10" stroke-width="1.594" d="M2.664 54.121c1.113-3.68 8.809 10.332 9.297.926"/><path fill="none" stroke="#FF9C9C" stroke-linecap="round" stroke-miterlimit="10" stroke-width="1.594" d="M11.96 55.047c.493-9.41 7.185-1.422-2.315 1.14"/><path fill="none" stroke="#F99" stroke-linecap="round" stroke-miterlimit="10" stroke-width="1.594" d="M9.645 56.188c-9.5 2.562 6.527-3.211 3.027-.29"/><path fill="none" stroke="#FF9696" stroke-linecap="round" stroke-miterlimit="10" stroke-width="1.594" d="M12.672 55.898c-3.5 2.922-4.16-9.582 3.246-3.246"/><path fill="none" stroke="#FF9494" stroke-linecap="round" stroke-miterlimit="10" stroke-width="1.594" d="M15.918 52.652c7.402 6.336 4.062 9.578 2.289 3.926"/><path fill="none" stroke="#FF9191" stroke-linecap="round" stroke-miterlimit="10" stroke-width="1.594" d="M18.207 56.578c-1.773-5.656-6.047 2.164-.89 3.11"/><path fill="none" stroke="#FF8F8F" stroke-linecap="round" stroke-miterlimit="10" stroke-width="1.594" d="M17.316 59.688c5.157.945-.468 11.832 2.813 2.132"/><path fill="none" stroke="#FF8C8C" stroke-linecap="round" stroke-miterlimit="10" stroke-width="1.594" d="M20.129 61.82c3.277-9.699-11.606 6.485-6.297 5.09"/><path fill="none" stroke="#FF8A8A" stroke-linecap="round" stroke-miterlimit="10" stroke-width="1.594" d="M13.832 66.91c5.313-1.394 4.254 10.41 1.293 2.664"/><path fill="none" stroke="#FF8787" stroke-linecap="round" stroke-miterlimit="10" stroke-width="1.594" d="M15.125 69.574c-2.96-7.746 4.738 2.758 3.867-6.367"/><path fill="none" stroke="#FF8585" stroke-linecap="round" stroke-miterlimit="10" stroke-width="1.594" d="M18.992 63.207c-.875-9.125.969-6.426.992.258"/><path fill="none" stroke="#FF8282" stroke-linecap="round" stroke-miterlimit="10" stroke-width="1.594" d="M19.984 63.465c.028 6.687-1.058-6.399 7.91-.82"/><path fill="none" stroke="#FF7F7F" stroke-linecap="round" stroke-miterlimit="10" stroke-width="1.594" d="M27.895 62.645c8.968 5.582-17.13 7.363-9.247 5.289"/><g clip-path="url(#a)"><path fill="none" stroke="#FF7D7D" stroke-linecap="round" stroke-miterlimit="10" stroke-width="1.594" d="M18.648 67.934c7.883-2.075-13.359 14.132-3.484 4.968"/></g><path fill="none" stroke="#FF7A7A" stroke-linecap="round" stroke-miterlimit="10" stroke-width="1.594" d="M15.164 72.902c9.871-9.164-6.082-8.086.457-3.144"/><g clip-path="url(#b)"><path fill="none" stroke="#FF7878" stroke-linecap="round" stroke-miterlimit="10" stroke-width="1.594" d="M15.621 69.758c6.54 4.941-15.762 7.879-7.55 5.656"/></g><g clip-path="url(#c)"><path fill="none" stroke="#FF7575" stroke-linecap="round" stroke-miterlimit="10" stroke-width="1.594" d="M8.07 75.414c8.211-2.223 3.871-.23 7.754-6.094"/></g><path fill="none" stroke="#FF7373" stroke-linecap="round" stroke-miterlimit="10" stroke-width="1.594" d="M15.824 69.32c3.88-5.863-4.472 3.555-.406.871"/><g clip-path="url(#d)"><path fill="none" stroke="#FF7070" stroke-linecap="round" stroke-miterlimit="10" stroke-width="1.594" d="M15.418 70.191c4.066-2.687 8.102-2.77 8.898 5.918"/></g><g clip-path="url(#e)"><path fill="none" stroke="#FF6E6E" stroke-linecap="round" stroke-miterlimit="10" stroke-width="1.594" d="M24.316 76.11c.801 8.687 13.454.624 6.696 3.304"/></g><g clip-path="url(#f)"><path fill="none" stroke="#FF6B6B" stroke-linecap="round" stroke-miterlimit="10" stroke-width="1.594" d="M31.012 79.414c-6.758 2.68-.282 4.559 6.68 3.633"/></g><g clip-path="url(#g)"><path fill="none" stroke="#FF6969" stroke-linecap="round" stroke-miterlimit="10" stroke-width="1.594" d="M37.691 83.047c6.961-.93-5.496-.02 3.348 1.379"/></g><g clip-path="url(#h)"><path fill="none" stroke="#F66" stroke-linecap="round" stroke-miterlimit="10" stroke-width="1.594" d="M41.04 84.426c8.839 1.394 11.487-.668 4.03 9.078"/></g><g clip-path="url(#i)"><path fill="none" stroke="#FF6363" stroke-linecap="round" stroke-miterlimit="10" stroke-width="1.594" d="M45.07 93.504c-7.457 9.746 1.672-19.203 2.301-9.797"/></g><g clip-path="url(#j)"><path fill="none" stroke="#FF6161" stroke-linecap="round" stroke-miterlimit="10" stroke-width="1.594" d="M47.371 83.707c.629 9.41 2.715 6.332 7.586 7.414"/></g><g clip-path="url(#k)"><path fill="none" stroke="#FF5E5E" stroke-linecap="round" stroke-miterlimit="10" stroke-width="1.594" d="M54.957 91.121c4.871 1.082 3.508-7.273 9.414-5.887"/></g><g clip-path="url(#l)"><path fill="none" stroke="#FF5C5C" stroke-linecap="round" stroke-miterlimit="10" stroke-width="1.594" d="M64.371 85.234c5.906 1.391-11.48-4.902-8.836-4.156"/></g><g clip-path="url(#m)"><path fill="none" stroke="#FF5959" stroke-linecap="round" stroke-miterlimit="10" stroke-width="1.594" d="M55.535 81.078c2.645.746 7.309 2.977 4.082-3.726"/></g><g clip-path="url(#n)"><path fill="none" stroke="#FF5757" stroke-linecap="round" stroke-miterlimit="10" stroke-width="1.594" d="M59.617 77.352c-3.226-6.707 3.098 6.746 3.79 7.117"/></g><g clip-path="url(#o)"><path fill="none" stroke="#FF5454" stroke-linecap="round" stroke-miterlimit="10" stroke-width="1.594" d="M63.406 84.469c.692.37-12.46-3.156-6.203-8.008"/></g><g clip-path="url(#p)"><path fill="none" stroke="#FF5252" stroke-linecap="round" stroke-miterlimit="10" stroke-width="1.594" d="M57.203 76.46c6.262-4.855-3.023 11.806 3.567 3.517"/></g><g clip-path="url(#q)"><path fill="none" stroke="#FF4F4F" stroke-linecap="round" stroke-miterlimit="10" stroke-width="1.594" d="M60.77 79.977c6.593-8.29-12.684 3.445-3.051 2.613"/></g><g clip-path="url(#r)"><path fill="none" stroke="#FF4C4C" stroke-linecap="round" stroke-miterlimit="10" stroke-width="1.594" d="M57.719 82.59c9.636-.828-4.133 8.91 5.215.394"/></g><g clip-path="url(#s)"><path fill="none" stroke="#FF4A4A" stroke-linecap="round" stroke-miterlimit="10" stroke-width="1.594" d="M62.934 82.984c9.343-8.515 5.879-1.035 4.722-7.882"/></g><g clip-path="url(#t)"><path fill="none" stroke="#FF4747" stroke-linecap="round" stroke-miterlimit="10" stroke-width="1.594" d="M67.656 75.102c-1.16-6.852 5.977.14-1.101 2.043"/></g><g clip-path="url(#u)"><path fill="none" stroke="#FF4545" stroke-linecap="round" stroke-miterlimit="10" stroke-width="1.594" d="M66.555 77.145c-7.075 1.898-.399 12.46-.934 9.484"/></g><g clip-path="url(#v)"><path fill="none" stroke="#FF4242" stroke-linecap="round" stroke-miterlimit="10" stroke-width="1.594" d="M65.621 86.629c-.531-2.98 8.856-.52 6.742-1.918"/></g><g clip-path="url(#w)"><path fill="none" stroke="#FF4040" stroke-linecap="round" stroke-miterlimit="10" stroke-width="1.594" d="M72.363 84.71c-2.113-1.397-1.828-8.19 2.989-4.175"/></g><g clip-path="url(#x)"><path fill="none" stroke="#FF3D3D" stroke-linecap="round" stroke-miterlimit="10" stroke-width="1.594" d="M75.352 80.535c4.816 4.012-5.329-3.613-6.805.137"/></g><g clip-path="url(#y)"><path fill="none" stroke="#FF3B3B" stroke-linecap="round" stroke-miterlimit="10" stroke-width="1.594" d="M68.547 80.672c-1.473 3.75-1.375-15.426 1.676-6.93"/></g><g clip-path="url(#z)"><path fill="none" stroke="#FF3838" stroke-linecap="round" stroke-miterlimit="10" stroke-width="1.594" d="M70.223 73.742c3.047 8.496-13.93-.449-8.164-.715"/></g><g clip-path="url(#A)"><path fill="none" stroke="#FF3636" stroke-linecap="round" stroke-miterlimit="10" stroke-width="1.594" d="M62.059 73.027c5.765-.265 17.347 1.368 8.28 3.223"/></g><g clip-path="url(#B)"><path fill="none" stroke="#F33" stroke-linecap="round" stroke-miterlimit="10" stroke-width="1.594" d="M70.34 76.25c-9.067 1.855-7.063-7.457-3.031-.992"/></g><g clip-path="url(#C)"><path fill="none" stroke="#FF3030" stroke-linecap="round" stroke-miterlimit="10" stroke-width="1.594" d="M67.309 75.258c4.03 6.46-10.125 10.64-4.852 9.562"/></g><g clip-path="url(#D)"><path fill="none" stroke="#FF2E2E" stroke-linecap="round" stroke-miterlimit="10" stroke-width="1.594" d="M62.457 84.82c5.273-1.082-2.047-9.406 1.895-8.097"/></g><g clip-path="url(#E)"><path fill="none" stroke="#FF2B2B" stroke-linecap="round" stroke-miterlimit="10" stroke-width="1.594" d="M64.352 76.723c3.937 1.312-3.223-12.344 2.996-9.516"/></g><g clip-path="url(#F)"><path fill="none" stroke="#FF2929" stroke-linecap="round" stroke-miterlimit="10" stroke-width="1.594" d="M67.348 67.207c6.218 2.828 5.836 10.098-.243 9.602"/></g><g clip-path="url(#G)"><path fill="none" stroke="#FF2626" stroke-linecap="round" stroke-miterlimit="10" stroke-width="1.594" d="M67.105 76.809c-6.078-.5-13.117-14.508-8.093-4.653"/></g><g clip-path="url(#H)"><path fill="none" stroke="#FF2424" stroke-linecap="round" stroke-miterlimit="10" stroke-width="1.594" d="M59.012 72.156c5.027 9.852 9.894-3.558 8.527-7.199"/></g><g clip-path="url(#I)"><path fill="none" stroke="#FF2121" stroke-linecap="round" stroke-miterlimit="10" stroke-width="1.594" d="M67.54 64.957c-1.368-3.637 8.878-11.887 7.718-2.965"/></g><g clip-path="url(#J)"><path fill="none" stroke="#FF1F1F" stroke-linecap="round" stroke-miterlimit="10" stroke-width="1.594" d="M75.258 61.992c-1.156 8.918-13.953 1.957-6.574-7.308"/></g><g clip-path="url(#K)"><path fill="none" stroke="#FF1C1C" stroke-linecap="round" stroke-miterlimit="10" stroke-width="1.594" d="M68.684 54.684c7.375-9.262 8.23-9.133-1.352-2.672"/></g><g clip-path="url(#L)"><path fill="none" stroke="#FF1919" stroke-linecap="round" stroke-miterlimit="10" stroke-width="1.594" d="M67.332 52.012c-9.582 6.46-5.023-3.864 3.527-1.946"/></g><g clip-path="url(#M)"><path fill="none" stroke="#FF1717" stroke-linecap="round" stroke-miterlimit="10" stroke-width="1.594" d="M70.86 50.066c8.55 1.918 16.261-4.492 7.46-6.648"/></g><g clip-path="url(#N)"><path fill="none" stroke="#FF1414" stroke-linecap="round" stroke-miterlimit="10" stroke-width="1.594" d="M78.32 43.418c-8.797-2.16-4.484-8.523-2.64-9.54"/></g><g clip-path="url(#O)"><path fill="none" stroke="#FF1212" stroke-linecap="round" stroke-miterlimit="10" stroke-width="1.594" d="M75.68 33.879c1.843-1.012 9.324 11.851 8.203 2.809"/></g><g clip-path="url(#P)"><path fill="none" stroke="#FF0F0F" stroke-linecap="round" stroke-miterlimit="10" stroke-width="1.594" d="M83.883 36.688c-1.125-9.047-.766-1.504-3.2 4.101"/></g><g clip-path="url(#Q)"><path fill="none" stroke="#FF0D0D" stroke-linecap="round" stroke-miterlimit="10" stroke-width="1.594" d="M80.684 40.79c-2.434 5.6.504 12.01-6.184 7.503"/></g><g clip-path="url(#R)"><path fill="none" stroke="#FF0A0A" stroke-linecap="round" stroke-miterlimit="10" stroke-width="1.594" d="M74.5 48.293c-6.684-4.508-11.824 1.105-8.14-.625"/></g><g clip-path="url(#S)"><path fill="none" stroke="#FF0808" stroke-linecap="round" stroke-miterlimit="10" stroke-width="1.594" d="M66.36 47.668c3.687-1.734 12.519-3.66 9.484 3.02"/></g><g clip-path="url(#T)"><path fill="none" stroke="#FF0505" stroke-linecap="round" stroke-miterlimit="10" stroke-width="1.594" d="M75.844 50.688c-3.031 6.675-12.989 2.476-8.824-1.645"/></g><g clip-path="url(#U)"><path fill="none" stroke="#FF0303" stroke-linecap="round" stroke-miterlimit="10" stroke-width="1.594" d="M67.02 49.043c4.168-4.125-4.844-5-1.286 1.266"/></g><g clip-path="url(#V)"><path fill="none" stroke="red" stroke-linecap="round" stroke-miterlimit="10" stroke-width="1.594" d="M65.734 50.309c3.559 6.27-6.632 2.086 1.657.91"/></g></svg>