<svg xmlns="http://www.w3.org/2000/svg" width="21.951" height="6.95"><defs><clipPath id="a"><path d="M0 0h21.926v6.926H0Zm0 0"/></clipPath><clipPath id="b"><path d="M5 0h16.926v6.926H5Zm0 0"/></clipPath></defs><path fill="none" stroke="#000" stroke-miterlimit="10" stroke-width=".797" d="M.984 3.457H16.38"/><path d="M14.469 3.457a2.065 2.065 0 0 0-2.067-2.066 2.065 2.065 0 1 0 0 4.129c1.141 0 2.067-.922 2.067-2.063m0 0"/><g clip-path="url(#a)"><path fill="none" stroke="#000" stroke-miterlimit="10" stroke-width=".797" d="M14.469 3.457a2.065 2.065 0 0 0-2.067-2.066 2.065 2.065 0 1 0 0 4.129c1.141 0 2.067-.922 2.067-2.063Zm0 0"/></g><path d="M20.512 3.457a2.065 2.065 0 0 0-2.067-2.066 2.065 2.065 0 1 0 0 4.129c1.14 0 2.067-.922 2.067-2.063m0 0"/><g clip-path="url(#b)"><path fill="none" stroke="#000" stroke-miterlimit="10" stroke-width=".797" d="M20.512 3.457a2.065 2.065 0 0 0-2.067-2.066 2.065 2.065 0 1 0 0 4.129c1.14 0 2.067-.922 2.067-2.063Zm0 0"/></g></svg>