<svg xmlns="http://www.w3.org/2000/svg" xmlns:xlink="http://www.w3.org/1999/xlink" width="80.669" height="90.272"><defs><path id="b" d="M5.281-3.187c0-.954-.015-3.344-2.422-3.344S.453-4.156.453-3.188c0 1 0 3.297 2.406 3.297 2.391 0 2.422-2.296 2.422-3.296M4-3.297c0 .563 0 1.469-.078 1.985-.14.921-.766 1.062-1.063 1.062-.359 0-.921-.219-1.046-.953-.094-.516-.094-1.547-.094-2.094 0-.719 0-1.375.078-1.89.125-.891.828-.985 1.062-.985.375 0 .782.188.97.625C4-5.172 4-4.109 4-3.297m0 0"/><path id="c" d="M5.156-2.219h-.468c-.032.203-.125.844-.266.906-.11.063-.86.063-1.016.063H1.937c.47-.39 1-.812 1.438-1.14 1.14-.844 1.781-1.313 1.781-2.25 0-1.157-1.047-1.891-2.437-1.891-1.219 0-2.156.625-2.156 1.515 0 .594.484.735.718.735C1.61-4.281 2-4.5 2-5c0-.516-.422-.672-.562-.719.28-.234.671-.343 1.03-.343.845 0 1.313.671 1.313 1.421 0 .688-.375 1.375-1.078 2.079l-2 2.046c-.14.11-.14.141-.14.344V0h4.28Zm0 0"/><path id="d" d="M5.406 0v-.469h-.968v-1.094h.968v-.468h-.968V-6.22c0-.265-.016-.328-.297-.328-.22 0-.22.016-.344.172L.313-2.031v.469h2.875V-.47h-1.11V0c.375-.031 1.281-.031 1.703-.031.406 0 1.266 0 1.625.031m-2.11-2.031H.845L3.297-5.11Zm0 0"/><path id="e" d="M5.25-2.047c0-1.39-1.016-2.125-2.219-2.125-.219 0-.781 0-1.203.766v-.188c0-1.14.219-1.562.281-1.719.25-.468.782-.828 1.391-.828.172 0 .516.032.75.266a.595.595 0 0 0-.547.61c0 .343.235.624.625.624s.625-.265.625-.64c0-.625-.422-1.25-1.469-1.25-1.359 0-3 .86-3 3.375 0 .781.079 1.578.5 2.265.47.766 1.22 1 1.922 1C4.281.11 5.25-.703 5.25-2.047m-1.36-.015c0 1 0 1.75-1.015 1.75-.516 0-.781-.391-.86-.563-.156-.312-.156-1.031-.156-1.219 0-1.25.532-1.719 1.079-1.719.953 0 .953.75.953 1.75m0 0"/><path id="f" d="M5.25-1.86c0-1.077-.844-1.546-1.328-1.827.687-.36 1-.797 1-1.376 0-1.015-.906-1.468-2.047-1.468-1.375 0-2.078.797-2.078 1.75 0 .437.187 1.062.953 1.5C.922-2.906.484-2.344.484-1.61.484-.406 1.563.109 2.844.109 4.438.11 5.25-.766 5.25-1.859M4.172-5.046c0 .484-.25.813-.688 1.11l-1.5-.844c-.156-.078-.437-.25-.437-.594 0-.703.89-.766 1.297-.766.828 0 1.328.407 1.328 1.094m.219 3.734c0 .829-.938 1-1.516 1-.969 0-1.547-.515-1.547-1.296 0-.766.531-1.203.89-1.407l1.36.766c.438.25.813.453.813.938m0 0"/><path id="g" d="M7.39-3.61c-.062-.937-.234-3.327-3.687-3.124C.234-6.547.375-4.172.438-3.22.5-2.219.656.078 4.124-.109c3.438-.188 3.328-2.5 3.266-3.5m-1.859 0c.047.563.094 1.47.032 1.985C5.422-.687 4.547-.5 4.109-.469c-.515.016-1.328-.156-1.562-.875-.172-.515-.25-1.547-.281-2.093-.047-.704-.094-1.36 0-1.876.109-.906 1.109-1.046 1.453-1.062.531-.031 1.125.125 1.437.547.25.36.328 1.422.375 2.219m0 0"/><path id="h" d="M6.938.625 6.39.391c-.125.172-.47.718-.657.703-.156-.016-1.03-.39-1.234-.485L2.766-.156c.718-.11 1.484-.219 2.156-.297C6.594-.641 7.516-.734 7.89-1.61c.453-1.063-.485-2.266-2.141-3-1.437-.625-2.781-.532-3.125.28-.234.548.281.938.563 1.063.39.172.921.157 1.124-.312s-.218-.813-.375-.938c.422-.078.907.032 1.329.22C6.28-3.86 6.578-3 6.28-2.313c-.265.64-1 1.078-2.093 1.359L1.03-.11C.828-.08.813-.047.734.14L.672.297l5.047 2.219Zm0 0"/><path id="i" d="M7.469-.203c.36-.875 1.297-3.078-1.547-4.328-2.828-1.25-3.766.937-4.14 1.828C1.39-1.781.5.328 3.327 1.578s3.75-.86 4.14-1.781M6-.953C5.781-.437 5.438.39 5.156.844c-.531.765-1.328.562-1.687.406-.422-.187-1-.687-.86-1.422.094-.516.5-1.469.704-1.969.28-.671.546-1.265.828-1.703.515-.75 1.359-.484 1.64-.36.438.204.844.579.89 1.079.063.438-.343 1.422-.671 2.172m0 0"/><path id="j" d="m3.36 3.281.328-.344-.61-.593.766-.781.61.593.312-.328-.61-.594L7.078-1.78c.188-.188.219-.25.047-.422-.125-.125-.156-.11-.328-.078L1.609-1.25l-.312.328L3.078.813l-.765.78-.704-.687-.328.344c.25.219.813.766 1.078 1.031.25.235.782.766 1 1M3.452.547l-1.531-1.5 3.687-.719Zm0 0"/><path id="k" d="M5.5.906c.656-.672 2.313-2.406.828-3.86-1.5-1.468-3.156.235-3.828.923-.703.719-2.297 2.375-.797 3.844C3.172 3.25 4.797 1.625 5.5.906m-.719-.86C4.391.454 3.75 1.11 3.344 1.439c-.735.578-1.219.296-1.39.125-.235-.22-.423-.735.015-1.313.312-.437 1.015-1.172 1.406-1.578.5-.516.953-.984 1.36-1.297.702-.562 1.187-.234 1.343-.078.219.219.344.61.156 1.031-.156.375-.89 1.14-1.453 1.719m0 0"/><path id="l" d="M3.11-.266c.828-1.125.921-1.953.468-2.28-.078-.048-.265-.204-.875.296l.11-.156c.687-.906 1.015-1.188 1.124-1.297.36-.328.766-.453.985-.297.078.047.172.156.125.406-.156-.047-.39.094-.563.328-.203.282-.296.594-.156.688s.39-.047.625-.344c.36-.5.578-1.125.203-1.406-.5-.36-1.61-.094-3.11 1.922-.452.625-.905 1.281-1.155 1.937C.594.281.734.671.984.86c.5.36 1.329-.046 2.125-1.125m-.454-.359C2.062.172 1.61.781 1.234.515c-.187-.14-.062-.53.016-.687.125-.297.563-.875.672-1.031.75-1 1.234-1.219 1.422-1.094.36.266-.094.875-.688 1.672m0 0"/><path id="m" d="M3.813-1.172c.562-.766 1.984-2.687 1.109-3.328-.86-.625-2.266 1.281-2.844 2.063C1.468-1.625.11.219.968.842c.876.641 2.235-1.202 2.845-2.015m-.391-.406C3.078-1.125 2.547-.406 2.203 0c-.594.688-.89.64-1.015.547C1.063.453.984.14 1.375-.484c.281-.438.89-1.266 1.219-1.703.422-.579.812-1.11 1.156-1.5.563-.688.89-.579.969-.516.14.11.156.36-.016.766-.172.343-.797 1.203-1.281 1.859m0 0"/><path id="n" d="M2.984-1.578c.125-1.078-.265-1.578-.5-1.89.422-.313.625-.735.688-1.313.11-1.016-.328-1.5-.906-1.547-.75-.078-1.203.672-1.313 1.625-.047.437-.031 1.047.344 1.531-.484.328-.781.875-.875 1.61C.297-.375.812.188 1.5.25c.844.094 1.36-.75 1.484-1.828m-.203-3.219c-.062.484-.234.797-.5 1.078l-.687-.922c-.094-.093-.203-.28-.172-.625.078-.703.562-.718.766-.703.437.047.671.485.593 1.172M2.47-1.063c-.094.813-.61.922-.89.907C1.046-.22.812-.766.89-1.531c.093-.766.422-1.172.625-1.36l.625.844c.203.266.39.5.328.985m0 0"/><path id="o" d="M3.156-2.906c.094-.938.36-3.313-.906-3.438C.969-6.454.688-4.109.594-3.156.469-2.156.234.14 1.516.25 2.78.375 3.03-1.906 3.156-2.906m-.672-.172c-.062.562-.156 1.469-.265 1.984-.156.907-.516 1-.656.985-.188-.016-.485-.266-.454-1 0-.5.11-1.532.172-2.078.078-.704.157-1.36.266-1.876.156-.89.547-.937.672-.937.172.031.36.234.422.688.062.375-.063 1.437-.157 2.234m0 0"/><clipPath id="a"><path d="M8 0h66v89.906H8Zm0 0"/></clipPath></defs><g clip-path="url(#a)"><path fill="none" stroke="#7F7F7F" stroke-miterlimit="10" stroke-width=".199" d="M11.172 60.512c.8.027 1.234.082 1.355.11-.011-.005-.011-.005.125.073.352.239.961.707 1.848 1.465 1.16 1.078 2.598 2.488 4.328 4.215a199 199 0 0 0 7.227 6.805 103.5 103.5 0 0 0 11.195 7.914c4.746 2.39 9.957 4.449 15.543 6.054 5.855 1.09 11.898 1.637 18.05 1.649m-59.671-38.25c1.64.066 3.031.25 4.098.496.89.3 1.726.676 2.59 1.16.956.64 2.046 1.477 3.285 2.54 1.398 1.296 2.968 2.831 4.726 4.585 1.969 1.95 4.18 4.063 6.676 6.293 2.816 2.297 6 4.586 9.574 6.781 3.965 2 8.3 3.711 12.961 5.051 4.922.918 10.055 1.379 15.363 1.387M11.172 40.586c2.484.102 4.828.41 6.84.879 1.797.61 3.46 1.355 5.054 2.242 1.567 1.043 3.133 2.246 4.727 3.613 1.637 1.52 3.336 3.18 5.121 4.957a168 168 0 0 0 6.121 5.79 74 74 0 0 0 7.957 5.644 59.7 59.7 0 0 0 10.383 4.047c3.984.742 8.21 1.125 12.672 1.129M11.172 30.62c3.324.137 6.625.578 9.582 1.266 2.7.918 5.2 2.035 7.52 3.328a64 64 0 0 1 6.163 4.683 215 215 0 0 1 5.516 5.332 152 152 0 0 0 5.574 5.278 58 58 0 0 0 6.336 4.512 44.2 44.2 0 0 0 7.805 3.042c3.047.567 6.367.868 9.977.872M11.172 20.66c4.164.172 8.422.738 12.32 1.652a60 60 0 0 1 9.988 4.41 79 79 0 0 1 7.606 5.755 225 225 0 0 1 5.91 5.707 135 135 0 0 0 5.02 4.765 43 43 0 0 0 4.714 3.38 29.6 29.6 0 0 0 5.227 2.038c2.113.395 4.523.61 7.29.613M11.171 10.695c5.004.211 10.223.907 15.062 2.04a75 75 0 0 1 12.453 5.495 93 93 0 0 1 9.043 6.829 230 230 0 0 1 6.31 6.078c1.663 1.648 3.148 3.07 4.468 4.254 1.164.953 2.187 1.691 3.094 2.25.84.422 1.691.757 2.648 1.035 1.176.215 2.68.347 4.598.347M11.172.743a98 98 0 0 1 17.805 2.421C34.39 5 39.383 7.234 43.887 9.746a108 108 0 0 1 10.484 7.899 247 247 0 0 1 6.7 6.453c1.59 1.574 2.894 2.82 3.921 3.746.75.613 1.235.96 1.477 1.113.058.031.039.023.07.031.242.043.836.094 1.906.094m-57.273 31.43V.734m1.355 59.887q1.027-3.591 2.055-7.184c.688-2.394 1.371-4.789 2.059-7.183q1.026-3.593 2.054-7.184c.688-2.394 1.371-4.789 2.059-7.183.683-2.395 1.371-4.785 2.055-7.18.687-2.395 1.37-4.789 2.058-7.184l2.055-7.183q1.029-3.593 2.058-7.184m-16.328 57.54q1.953-3.184 3.907-6.372c1.3-2.12 2.601-4.246 3.906-6.367 1.3-2.125 2.601-4.246 3.902-6.371 1.305-2.125 2.606-4.246 3.906-6.371l3.907-6.367c1.3-2.125 2.601-4.246 3.906-6.371q1.951-3.186 3.902-6.372c1.305-2.12 2.606-4.246 3.907-6.367M14.5 62.16q2.489-2.778 4.984-5.562c1.66-1.856 3.325-3.711 4.985-5.567q2.492-2.782 4.984-5.566 2.495-2.784 4.985-5.567 2.495-2.782 4.984-5.566l4.988-5.562q2.489-2.784 4.985-5.567c1.66-1.855 3.324-3.71 4.984-5.566m-35.55 48.738c1.76-1.762 3.523-3.523 5.28-5.285q2.644-2.643 5.282-5.285c1.761-1.762 3.523-3.528 5.28-5.29q2.645-2.642 5.282-5.285 2.644-2.642 5.281-5.285a6731 6731 0 0 0 5.282-5.285q2.643-2.642 5.28-5.285 2.645-2.643 5.282-5.285M26.055 73.18q2.436-2.832 4.867-5.668 2.437-2.834 4.867-5.668l4.871-5.668q2.43-2.834 4.867-5.668 2.433-2.834 4.868-5.668c1.62-1.89 3.246-3.781 4.867-5.668q2.437-2.836 4.867-5.668 2.436-2.836 4.871-5.668M37.25 81.094q1.83-3.263 3.652-6.52 1.83-3.257 3.653-6.52l3.656-6.515a5461 5461 0 0 1 3.652-6.52q1.824-3.257 3.653-6.515 1.822-3.263 3.652-6.52 1.827-3.256 3.652-6.52c1.22-2.171 2.434-4.343 3.653-6.515m-13.68 58.2c.57-2.422 1.145-4.848 1.719-7.27q.856-3.637 1.718-7.274.856-3.633 1.72-7.27.856-3.636 1.718-7.272.857-3.635 1.719-7.27.857-3.638 1.715-7.27.862-3.636 1.718-7.273a4895 4895 0 0 0 1.72-7.27m4.284 59.817c-.097-2.488-.199-4.977-.297-7.465q-.15-3.732-.297-7.469-.15-3.732-.3-7.465-.146-3.732-.297-7.464c-.098-2.489-.2-4.977-.297-7.465q-.152-3.732-.297-7.469-.151-3.733-.3-7.465t-.298-7.465"/></g><path fill="#FCC" d="M4.988 57.188h12.367V43.91H4.988Zm0 0"/><use xlink:href="#b" x="8.307" y="53.757"/><path fill="#FCC" d="M8.813 58.84H26.91V45.562H8.813Zm0 0"/><use xlink:href="#c" x="12.132" y="55.411"/><use xlink:href="#b" x="17.86" y="55.411"/><path fill="#FCC" d="M16.82 65.969h18.102V52.684H16.82Zm0 0"/><use xlink:href="#d" x="20.142" y="62.54"/><use xlink:href="#b" x="25.871" y="62.54"/><path fill="#FCC" d="M33.07 79.04h18.102V65.761H33.07Zm0 0"/><use xlink:href="#e" x="36.392" y="75.61"/><use xlink:href="#b" x="42.121" y="75.61"/><path fill="#FCC" d="M61.395 85.48h18.097V72.203H61.395Zm0 0"/><use xlink:href="#f" x="64.716" y="82.05"/><use xlink:href="#b" x="70.444" y="82.05"/><path fill="#CCF" d="M21.793 4.93C14.586 4.145 7.77 4.14.852 4.785l1.793 13.153c5.757-.536 11.265-.532 16.93.082q1.106-6.546 2.218-13.09m0 0"/><use xlink:href="#g" x="7.079" y="14.044"/><path fill="#CCF" d="M51.402 19.441a102 102 0 0 0-9.246-6.87 85 85 0 0 0-12.652-5.786c-1.328 4.219-2.66 8.442-3.992 12.66a65.5 65.5 0 0 1 9.707 4.442 82 82 0 0 1 7.441 5.547c2.914-3.332 5.828-6.66 8.742-9.993m0 0"/><use xlink:href="#h" x="30.678" y="17.699"/><use xlink:href="#i" x="37.442" y="20.677"/><path fill="#CCF" d="M62.55 30.105q-1.605-1.47-3.82-3.668a269 269 0 0 0-5.84-5.671q-4.482 4.906-8.964 9.804a251 251 0 0 1 5.414 5.266 144 144 0 0 0 4.43 4.238c2.925-3.324 5.855-6.648 8.78-9.969m0 0"/><use xlink:href="#j" x="48.449" y="30.124"/><use xlink:href="#k" x="52.003" y="33.593"/><path fill="#CCF" d="M65.668 32.188a5 5 0 0 1-.82-.34c-.414-.254-.989-.66-1.746-1.266q-4.258 5.094-8.516 10.188a38 38 0 0 0 3.77 2.66 25 25 0 0 0 3.914 1.59zm0 0"/><use xlink:href="#l" x="58.053" y="39.142"/><use xlink:href="#m" x="60.128" y="40.653"/><path fill="#CCF" d="M75.07 31.395c-2.648.55-4.804.867-6.492.996-1.246.007-2.113-.059-2.676-.149-.902 4.332-1.808 8.664-2.71 12.996 1.69.274 3.648.426 5.917.418 2.625-.203 5.621-.636 9.02-1.343q-1.53-6.457-3.059-12.918m0 0"/><use xlink:href="#n" x="65.448" y="42.127"/><use xlink:href="#o" x="68.493" y="42.423"/></svg>