<svg xmlns="http://www.w3.org/2000/svg" width="113.492" height="106.886"><path fill="red" fill-opacity=".5" d="M87.676 32.125C87.676 14.902 73.715.941 56.492.941c-17.219 0-31.18 13.961-31.18 31.184 0 17.219 13.961 31.18 31.18 31.18 17.223 0 31.184-13.961 31.184-31.18m0 0"/><path fill="#0F0" fill-opacity=".5" d="M63.125 74.645c0-17.223-13.957-31.18-31.18-31.18S.762 57.422.762 74.645s13.96 31.18 31.183 31.18 31.18-13.958 31.18-31.18m0 0"/><path fill="#00F" fill-opacity=".5" d="M112.223 74.645c0-17.223-13.957-31.18-31.18-31.18s-31.18 13.957-31.18 31.18 13.957 31.18 31.18 31.18 31.18-13.958 31.18-31.18m0 0"/></svg>