<svg xmlns="http://www.w3.org/2000/svg" xmlns:xlink="http://www.w3.org/1999/xlink" width="87.296" height="62.156"><defs><path id="b" d="M5.281-3.187c0-.954-.015-3.344-2.422-3.344S.453-4.156.453-3.188c0 1 0 3.297 2.406 3.297 2.391 0 2.422-2.296 2.422-3.296M4-3.297c0 .563 0 1.469-.078 1.985-.14.921-.766 1.062-1.063 1.062-.359 0-.921-.219-1.046-.953-.094-.516-.094-1.547-.094-2.094 0-.719 0-1.375.078-1.89.125-.891.828-.985 1.062-.985.375 0 .782.188.97.625C4-5.172 4-4.109 4-3.297m0 0"/><path id="c" d="M4.766-1.172c0-.14-.141-.14-.235-.14-.187 0-.187.03-.25.156-.25.625-.734.812-1.234.812-1.39 0-1.39-1.453-1.39-1.922 0-.562 0-1.843 1.28-1.843.36 0 .516.015.657.046a.62.62 0 0 0-.203.47c0 .437.343.624.609.624.313 0 .64-.219.64-.625 0-.86-1.156-.922-1.734-.922C1.11-4.516.375-3.375.375-2.219.375-.89 1.313.063 2.844.063c1.625 0 1.922-1.157 1.922-1.235m0 0"/><path id="d" d="M9.328 0v-.469h-.687v-2.578c0-1.031-.516-1.437-1.547-1.437-.907 0-1.422.5-1.688.953-.187-.922-1.11-.953-1.484-.953-.875 0-1.438.453-1.766 1.078v-1.078l-1.703.078v.468c.61 0 .688 0 .688.391v3.078H.453V0l1.25-.031L2.953 0v-.469h-.687v-2.078c0-1.094.875-1.578 1.5-1.578.328 0 .547.203.547.969V-.47h-.688V0l1.266-.031L6.14 0v-.469h-.688v-2.078c0-1.094.86-1.578 1.484-1.578.344 0 .563.203.563.969V-.47h-.687V0l1.25-.031Zm0 0"/><path id="e" d="M4.922 0v-.469h-1.39v-5.734c0-.234 0-.328-.266-.328-.11 0-.125 0-.22.078-.765.562-1.796.562-2 .562H.845v.47h.203c.156 0 .703-.016 1.297-.204v5.156H.954V0c.437-.031 1.5-.031 1.984-.031s1.546 0 1.984.031m0 0"/><path id="f" d="M5.156-2c0-1.156-.797-2.078-2.265-2.078-.282 0-.813.031-1.282.344v-1.313c.282.047.391.078.72.078 1.452 0 2.374-1.125 2.374-1.375 0-.078-.016-.187-.14-.187-.032 0-.032 0-.141.047a4.3 4.3 0 0 1-1.531.28c-.75 0-1.282-.202-1.547-.28-.094-.032-.094-.047-.125-.047-.14 0-.14.11-.14.265v2.922c0 .172 0 .297.218.297.125 0 .156-.031.219-.11.39-.468.922-.562 1.328-.562.89 0 .89.875.89 1.672 0 .735 0 1.735-1.187 1.735-.25 0-.875-.063-1.297-.625.36-.016.656-.266.656-.672 0-.532-.437-.672-.672-.672-.14 0-.671.094-.671.703 0 .844.78 1.687 2.015 1.687C4.172.11 5.156-.78 5.156-2m0 0"/><clipPath id="a"><path d="M23 0h63.945v61.734H23Zm0 0"/></clipPath></defs><path fill="none" stroke="#7F7F7F" stroke-miterlimit="10" stroke-width=".199" d="M.758 57.414h85.039M.757 29.07h85.04M.757.73h85.04M.757 57.414V.723m28.348 56.691V.723M57.45 57.414V.723m28.34 56.691V.723"/><g clip-path="url(#a)"><path fill="none" stroke="#000" stroke-miterlimit="10" stroke-width=".399" d="M29.105 57.414 85.797.723"/></g><use xlink:href="#b" x="18.921" y="60.624"/><use xlink:href="#c" x="24.65" y="60.624"/><use xlink:href="#d" x="29.74" y="60.624"/><use xlink:href="#e" x="38.965" y="40.605"/><use xlink:href="#c" x="44.694" y="40.605"/><use xlink:href="#d" x="49.784" y="40.605"/><use xlink:href="#e" x="43.896" y="30.558"/><use xlink:href="#f" x="49.625" y="30.558"/><use xlink:href="#d" x="55.353" y="30.558"/><use xlink:href="#d" x="64.897" y="30.558"/></svg>