<svg xmlns="http://www.w3.org/2000/svg" width="104.078" height="82.82"><defs><clipPath id="a"><path d="M.555.926h102.05v80.789H.555Zm0 0"/></clipPath><clipPath id="b"><path d="M.555 64h102.05v1H.555Zm0 0"/></clipPath><clipPath id="c"><path d="M8 .926h2v80.789H8Zm0 0"/></clipPath><clipPath id="d"><path d="M.555.926H100v80.789H.555Zm0 0"/></clipPath></defs><g clip-path="url(#a)"><path fill="none" stroke="#7F7F7F" stroke-miterlimit="10" stroke-width=".199" d="M-109.996 149.746h238.113m-238.113-42.52h238.113m-238.113-42.519h238.113m-238.113-42.52h238.113m-238.113-42.519h238.113M-75.98 183.762v-238.11m42.52 238.11v-238.11m42.523 238.11v-238.11m42.519 238.11v-238.11m42.52 238.11v-238.11"/></g><g clip-path="url(#b)"><path fill="none" stroke="#000" stroke-miterlimit="10" stroke-width=".399" d="M-118.5 64.707h255.121"/></g><g clip-path="url(#c)"><path fill="none" stroke="#000" stroke-miterlimit="10" stroke-width=".399" d="M9.063 192.27V-62.855"/></g><g clip-path="url(#d)"><path fill="none" stroke="#000" stroke-miterlimit="10" stroke-width=".399" d="M94.102 64.707c0-46.969-38.075-85.039-85.04-85.039-46.968 0-85.042 38.07-85.042 85.039s38.074 85.04 85.043 85.04c46.964 0 85.039-38.071 85.039-85.04Zm0 0"/></g><path fill="#CFC" d="M9.063 64.707h25.511c0-4.477-1.18-8.879-3.418-12.758z"/></svg>