<svg xmlns="http://www.w3.org/2000/svg" xmlns:xlink="http://www.w3.org/1999/xlink" width="229.718" height="146.936"><defs><path id="a" d="m8.125-1.437-.078-.47-.953.173-3.61-5.672c-.14-.235-.25-.219-.421-.188-.282.047-.313.14-.344.313L1.329-.937c-.032.156-.048.234-.798.359l-.203.031.078.469 1.14-.234c.391-.063.938-.157 1.298-.188l-.078-.469s-.875.156-.907.047l.032-.14.297-1.266 2.625-.469.828 1.313-.938.172.078.468c.39-.094 1.313-.265 1.75-.343.375-.063 1.235-.22 1.594-.25m-3.61-1.797-2.25.406.657-2.922Zm0 0"/><path id="b" d="m6.031-1.062-.078-.47-.672.126-.453-2.532c-.172-1.03-.781-1.343-1.766-1.156-.937.157-1.359.813-1.53 1.36l-.188-1.063-1.656.375.078.469c.593-.11.672-.125.75.25l.53 3.031-.671.125.078.469 1.219-.25 1.234-.188-.078-.468-.672.125-.36-2.047C1.61-3.97 2.36-4.61 2.985-4.72c.329-.047.579.11.72.86l.468 2.64-.688.125.079.469 1.234-.25Zm0 0"/><path id="c" d="M4.64-2.016c-.03-.171-.218-.14-.265-.125-.156.032-.156.079-.203.25-.11.516-.64.907-1.266 1.016-1.39.25-1.64-1.047-1.719-1.547l2.985-.515c.203-.047.297-.063.25-.329-.063-.296-.25-1.015-.813-1.406-.421-.297-.968-.39-1.656-.266-1.562.282-2.25 1.454-2.031 2.672C.156-.937 1.312-.172 2.89-.437 4.453-.72 4.67-1.844 4.64-2.016m-1.156-1.14-2.359.406c-.047-.375-.11-.797.047-1.14a1.17 1.17 0 0 1 .844-.688c1.156-.203 1.39 1.094 1.468 1.422m0 0"/><path id="d" d="m2.875-.5-.078-.469-.672.11L1-7.203l-1.719.39.078.454c.61-.11.672-.125.735.265l.969 5.422-.672.125.078.469 1.187-.25Zm0 0"/><path id="e" d="m2.797-.5-.078-.469-.594.11-.703-3.953-1.688.375.079.468c.578-.094.64-.11.718.266l.532 3.031-.672.125.078.469 1.187-.25Zm-1.5-5.86A.786.786 0 0 0 .375-7a.783.783 0 0 0-.625.906c.063.407.484.688.89.61.438-.079.72-.47.657-.875m0 0"/><path id="f" d="M5.5-3.234c-.219-1.313-1.281-2.063-2.703-1.813a2.43 2.43 0 0 0-1.375.734l-.094-.484-1.719.39.079.47c.593-.11.671-.126.734.234l.875 4.969-.672.125.094.453 1.203-.25 1.25-.188-.094-.453-.672.125-.312-1.844c.469.266.937.297 1.344.22C4.906-.797 5.75-1.876 5.5-3.235M4.234-3c.25 1.39-.343 2.016-.968 2.125-.141.016-.61.094-1.141-.36-.14-.093-.14-.109-.172-.296l-.36-2.078c-.046-.188-.03-.203.095-.36.296-.469.828-.625 1.046-.672.641-.109 1.282.391 1.5 1.641m0 0"/><path id="g" d="M3.844-2.094c-.078-.422-.344-.734-.719-.953-.437-.203-.781-.203-1.562-.203-.375 0-1.032 0-1.11-.469-.11-.61.797-.765.984-.797.735-.14 1.172.094 1.313.61.031.156.063.203.25.172.234-.047.219-.094.188-.328l-.141-.782c-.031-.187-.047-.281-.219-.25-.047.016-.062.016-.406.266-.281-.078-.64-.078-1.016-.016-.312.063-1.812.328-1.593 1.625.078.39.312.61.546.735.438.28.829.28 1.625.28.344 0 1.11 0 1.204.579.14.734-.75.89-.97.922-1.046.187-1.421-.485-1.624-.89-.078-.11-.14-.095-.266-.079-.234.047-.219.094-.187.313L.344-.281c.031.187.047.281.219.25C.625-.047.64-.047.828-.25l.219-.203c.516.234 1.031.156 1.234.11.297-.048 1.813-.313 1.563-1.75m0 0"/><path id="i" d="M8.25 0v-.469h-.969L4.72-6.703c-.11-.25-.219-.25-.39-.25-.282 0-.329.078-.391.25l-2.47 6c-.062.156-.093.234-.843.234H.406V0l1.172-.031c.39 0 .938 0 1.313.031v-.469S2-.469 2-.594l.047-.125.5-1.203h2.672l.593 1.453H4.86V0c.391-.031 1.329-.031 1.766-.031.39 0 1.266 0 1.625.031M5.016-2.39H2.734l1.141-2.766Zm0 0"/><path id="j" d="M4.766-1.172c0-.14-.141-.14-.235-.14-.187 0-.187.03-.25.156-.25.625-.734.812-1.234.812-1.39 0-1.39-1.453-1.39-1.922 0-.562 0-1.843 1.28-1.843.36 0 .516.015.657.046a.62.62 0 0 0-.203.47c0 .437.343.624.609.624.313 0 .64-.219.64-.625 0-.86-1.156-.922-1.734-.922C1.11-4.516.375-3.375.375-2.219.375-.89 1.313.063 2.844.063c1.625 0 1.922-1.157 1.922-1.235m0 0"/><path id="k" d="M2.844 0v-.469h-.61v-4.015L.5-4.406v.468c.594 0 .656 0 .656.391v3.078H.47V0l1.219-.031Zm-.469-6.047a.774.774 0 0 0-.781-.781.784.784 0 0 0-.782.781c0 .422.36.766.782.766a.77.77 0 0 0 .781-.766m0 0"/><path id="l" d="M4.406-3.672c0-.531-.531-.812-1.062-.812-.688 0-1.094.5-1.313 1.125v-1.125l-1.656.078v.468c.61 0 .688 0 .688.391v3.078H.375V0l1.25-.031C2-.031 2.641-.031 3 0v-.469h-.86v-1.75c0-.687.235-1.906 1.235-1.906 0 0-.187.172-.187.453 0 .406.328.61.609.61.297 0 .61-.204.61-.61m0 0"/><path id="m" d="M2.922 0v-.469h-.688v-6.453L.47-6.844v.469c.625 0 .687 0 .687.39v5.516H.47V0l1.219-.031Zm0 0"/><path id="n" d="M4.922-1.172c0-.172-.188-.172-.234-.172-.172 0-.188.047-.25.203-.204.485-.782.797-1.422.797-1.407 0-1.422-1.328-1.422-1.828h3.015c.22 0 .313 0 .313-.265 0-.313-.063-1.047-.563-1.547-.359-.36-.89-.532-1.578-.532C1.187-4.516.313-3.484.313-2.25c0 1.344 1 2.313 2.609 2.313 1.578 0 2-1.063 2-1.235M3.984-2.5h-2.39c.015-.39.031-.812.234-1.14.266-.391.672-.516.953-.516 1.172 0 1.188 1.312 1.203 1.656m0 0"/><path id="o" d="m7.75-2.828-.156-.438-.907.344-4.546-4.984c-.188-.203-.282-.172-.453-.11-.266.094-.266.188-.282.375l-.265 6.485c0 .156 0 .25-.703.5l-.22.078.157.437 1.094-.437c.36-.125.875-.313 1.25-.406l-.156-.438s-.844.297-.891.172v-.125l.062-1.312 2.516-.907 1.063 1.172-.907.328.157.438c.359-.172 1.234-.485 1.64-.64.375-.142 1.203-.438 1.547-.532m-3.844-1.14-2.156.78.125-2.984Zm0 0"/><path id="p" d="M2.89-4.953c-.187-.5-.78-.594-1.28-.406-.641.234-.86.843-.86 1.515L.375-4.906l-1.516.64.157.438c.562-.219.64-.235.765.14L.844-.796l-.64.235.155.437 1.157-.469c.343-.125.953-.343 1.297-.437l-.157-.438-.797.297-.609-1.64c-.234-.657-.422-1.876.516-2.22 0 0-.125.22-.016.485.14.39.5.469.766.375.28-.11.515-.39.375-.781m0 0"/><path id="q" d="M4.219-2.781c-.047-.172-.219-.11-.266-.094-.156.063-.156.11-.172.281-.015.531-.469 1.016-1.078 1.235C1.391-.875.922-2.125.75-2.594l2.828-1.031c.203-.078.297-.11.219-.36-.11-.28-.422-.953-1.063-1.25-.453-.218-1.015-.202-1.671.032-1.5.547-1.954 1.812-1.532 2.984C-.016-.969 1.25-.39 2.766-.938 4.25-1.483 4.28-2.625 4.219-2.78M2.89-3.703l-2.25.812C.53-3.266.39-3.67.469-4.047c.125-.453.453-.719.719-.812 1.109-.407 1.578.828 1.703 1.156m0 0"/><path id="r" d="M4.078-2.719c-.047-.14-.187-.094-.266-.062-.187.062-.171.094-.187.219-.031.687-.422 1.015-.89 1.187C1.437-.891.952-2.25.78-2.687.594-3.22.156-4.422 1.36-4.86c.329-.125.485-.172.625-.188a.67.67 0 0 0-.03.516c.155.406.546.453.796.36a.61.61 0 0 0 .375-.798c-.281-.812-1.39-.468-1.937-.281C-.5-4.625-.798-3.297-.407-2.203.063-.97 1.25-.391 2.688-.906c1.53-.563 1.421-1.75 1.39-1.813m0 0"/><path id="s" d="m3.156-2.453-.187-.5-.438.156.188.485c.219.624-.016.953-.281 1.046-.532.204-.75-.39-.813-.593L.672-4.453l1.375-.5-.156-.438-1.375.5-.657-1.796-.453.156c.344.953.235 2.047-.687 2.422l.11.328.78-.297L.547-1.5c.375 1 1.25.922 1.922.672.703-.266.937-.953.687-1.625m0 0"/><path id="t" d="M5.11-2.11c-.079-.218-.204-.171-.329-.124-.593.187-.625.062-.703-.157l-.734-2C3.03-5.234 2.156-5.594.766-5.094.234-4.89-.906-4.437-.61-3.609a.613.613 0 0 0 .797.375c.296-.11.515-.422.375-.797a.63.63 0 0 0-.391-.39c.25-.141.562-.266.672-.313.703-.25 1.172.015 1.437.734l.11.313c-.657.28-3 1.234-2.516 2.578.328.89 1.547.656 2.203.422.735-.266 1.047-.829 1.11-1.282.109.297.265.719 1.25.36l.437-.172c.188-.063.313-.11.234-.328m-2.282-.406c.328.922-.484 1.344-.719 1.438-.484.172-.984-.016-1.14-.438-.36-1 1.078-1.671 1.531-1.875Zm0 0"/><path id="u" d="m5.75-2.094-.156-.437-.64.234-.891-2.422c-.36-.984-.985-1.172-1.922-.843C1.25-5.234.938-4.516.859-3.937L.5-4.953l-1.578.656.156.438c.578-.203.656-.235.781.14L.922-.829l-.656.235.156.438L1.578-.61l1.203-.407-.156-.437-.656.234-.719-1.953c-.375-1.031.281-1.765.875-1.984.313-.125.578 0 .844.718l.922 2.532-.641.234.156.438 1.156-.47Zm0 0"/><path id="v" d="M3.875-5.625a.58.58 0 0 0-.781-.328c-.14.047-.594.25-.875.719-.203-.047-.672-.11-1.36.14-1.343.5-1.593 1.422-1.359 2.078.14.375.453.704.844.797-.14.438-.094.766-.031.953.062.157.265.594.734.735C.953-.453.344.016.547.594c.172.469.969.984 2.828.297C5.031.297 5.563-.5 5.328-1.172c-.11-.281-.39-.844-1.14-.937-.625-.079-1.188.125-2.079.453-.25.093-.671.25-.718.25a.634.634 0 0 1-.75-.39c-.032-.095-.047-.25 0-.345.5.063.984-.078 1.218-.171 1.36-.485 1.61-1.407 1.375-2.063-.156-.453-.515-.672-.718-.766.234-.25.422-.343.53-.39a.43.43 0 0 0 .017.203c.093.234.312.344.562.25a.405.405 0 0 0 .25-.547M2.188-4c.156.422.39 1.047-.438 1.344-.812.297-1.047-.328-1.203-.75S.172-4.453.984-4.75c.829-.297 1.047.328 1.204.75M4.515-.86C4.64-.515 4.469.126 3.25.563 2.14.97 1.5.704 1.344.283c-.203-.563.39-.766.531-.813l1.094-.406c.297-.11 1.344-.5 1.547.078m0 0"/><path id="w" d="m2.75-1-.156-.437-.656.234-2.22-6.063-1.624.672.156.453c.594-.218.656-.234.797.125L.937-.828l-.656.234.156.438L1.564-.61Zm0 0"/><path id="y" d="m7.14 4.125.235-.406-.828-.485.89-6.687c.016-.266-.078-.313-.218-.406-.25-.141-.313-.094-.469.015L1.61.125c-.126.11-.188.156-.829-.219l-.187-.11-.235.407L1.375.75c.344.203.813.469 1.125.688l.234-.407S1.97.594 2.031.484l.094-.093 1.031-.797L5.47.938 5.266 2.5l-.828-.484-.235.406c.36.172 1.172.64 1.547.86.344.187 1.094.624 1.39.843M5.532.438 3.563-.703l2.375-1.828Zm0 0"/><path id="z" d="m5.297 3.063.234-.407-.593-.344L6.218.079c.532-.906.266-1.515-.593-2.015-.828-.485-1.578-.25-2.047.062l.531-.937-1.515-.782-.235.406c.532.313.594.344.391.672L1.219.156.625-.187.391.219l1.093.594 1.079.656.234-.407L2.203.72l1.031-1.797c.547-.953 1.532-.938 2.094-.625.281.172.36.469-.016 1.125L3.97 1.75l-.594-.344-.234.407 1.093.593Zm0 0"/><path id="A" d="M5.766.828c.672-1.172.375-2.5-1.047-3.312-1.407-.813-2.703-.391-3.375.765C.734-.656 1.016.641 2.438 1.47c1.453.843 2.718.406 3.328-.64M4.719.094C4.28.828 3.75 1.766 2.64 1.125 1.547.5 2.078-.437 2.516-1.172c.218-.406.468-.828.797-1.047.343-.234.828-.187 1.234.047.375.219.656.547.672.953.015.407-.266.89-.5 1.313m0 0"/><path id="B" d="m3.906.844.266-.469-.406-.234-.25.453c-.344.578-.735.61-.97.469C2.047.78 2.36.219 2.47.03l1.375-2.375 1.265.735.235-.407-1.266-.734.953-1.656-.406-.235c-.5.875-1.406 1.47-2.297 1l-.187.313.718.422L1.5-.546c-.531.921.11 1.53.734 1.89.641.375 1.313.11 1.672-.5m0 0"/><path id="C" d="m5.297 3.063.234-.407-.593-.344L6.218.079c.532-.906.266-1.515-.593-2.015a1.87 1.87 0 0 0-1.937-.016l1.687-2.938-1.562-.812-.235.406c.531.313.594.344.39.672L1.219.156.626-.187.391.219l1.093.594 1.079.656.234-.407L2.203.72l1.031-1.797c.547-.953 1.532-.938 2.094-.625.281.172.36.469-.016 1.125L3.97 1.75l-.594-.344-.234.407 1.093.593Zm0 0"/><path id="D" d="M4.844 1.438c.093-.141-.078-.235-.11-.25-.156-.094-.203-.063-.328.046-.406.313-1.062.297-1.625-.03C1.562.5 2.203-.657 2.453-1.079l2.61 1.5c.203.11.28.156.421-.078.157-.266.454-.938.282-1.625-.125-.485-.516-.89-1.11-1.235-1.375-.796-2.656-.343-3.265.72C.719-.626 1.109.703 2.5 1.5c1.36.797 2.266.094 2.344-.062m-.14-1.625L2.624-1.375c.203-.328.438-.687.766-.875.437-.187.859-.094 1.093.047 1.016.578.375 1.719.22 2.015m0 0"/><path id="E" d="M5.64-.984c.266-.453-.046-.97-.515-1.235-.594-.344-1.187-.11-1.687.328L4-2.875l-1.469-.75-.234.406c.531.297.594.344.39.672L1.158.125.562-.219.328.188 1.422.78c.328.188.875.5 1.172.719l.234-.406-.734-.438.875-1.515c.344-.594 1.156-1.532 2.015-1.032 0 0-.25.063-.39.297-.203.36-.016.688.218.828.266.157.625.141.829-.218m0 0"/><path id="F" d="M4.703 1.36c.078-.126-.047-.188-.125-.235-.156-.094-.172-.062-.297.016-.531.422-1.031.328-1.468.078-1.204-.688-.485-1.953-.25-2.36.28-.484.921-1.593 2.03-.953.313.172.438.266.548.375a.58.58 0 0 0-.407.297c-.218.375-.015.703.22.844.265.156.655.125.859-.219.421-.75-.547-1.375-1.047-1.656-1.563-.906-2.75-.281-3.328.719-.672 1.156-.329 2.437 1 3.203 1.406.812 2.234-.047 2.265-.11m0 0"/><path id="G" d="M4.89 2.547c.126-.203.016-.266-.109-.328-.531-.328-.468-.438-.343-.64L5.5-.267c.453-.78.156-1.671-1.125-2.421-.484-.282-1.562-.86-2-.094-.219.375-.016.703.219.844.265.156.656.125.86-.22.14-.265.062-.5.062-.546.25.11.547.25.64.312.657.375.75.907.375 1.563l-.172.297C3.72-.875 1.484-2.047.766-.812c-.47.828.5 1.609 1.093 1.953.688.39 1.297.28 1.704.03-.157.266-.376.657.53 1.188l.407.235c.172.094.281.156.39-.047m-1.156-2c-.484.844-1.343.5-1.562.375-.453-.266-.61-.766-.375-1.156.531-.922 1.953-.25 2.406-.032Zm0 0"/><path id="H" d="M6.781-.64a.57.57 0 0 0-.234-.813 1.8 1.8 0 0 0-1.11-.203c-.093-.203-.359-.594-1-.969-1.25-.719-2.109-.297-2.453.297-.203.344-.234.812-.062 1.156-.438.172-.64.422-.75.594-.078.14-.281.594-.094 1.047C.953.438.203.266-.109.813c-.25.421-.141 1.359 1.578 2.343 1.531.89 2.515.781 2.86.172.155-.265.374-.844-.032-1.469-.344-.53-.86-.828-1.688-1.312-.234-.125-.625-.36-.64-.39a.613.613 0 0 1-.172-.813.64.64 0 0 1 .25-.25c.281.437.703.719.922.844 1.25.718 2.11.328 2.453-.282.234-.406.187-.812.14-1.031.329 0 .516.11.625.156a.3.3 0 0 0-.14.14c-.125.22-.063.454.172.579.218.125.453.063.562-.14M4.47-.907c-.219.39-.563.969-1.328.531-.75-.437-.407-1.016-.188-1.406.219-.375.563-.969 1.313-.532.765.438.422 1.032.203 1.407m-.907 3.828c-.171.297-.78.578-1.906-.078C.641 2.25.422 1.609.656 1.219.953.687 1.5 1 1.61 1.079l1.016.577c.281.157 1.25.719.938 1.266m0 0"/><path id="I" d="m2.531 1.453.235-.406-.594-.344L5.39-4.89l-1.563-.796-.234.406c.547.312.594.343.39.672L1.234.17.641-.171.406.234l1.078.579Zm0 0"/><clipPath id="h"><path d="M96 88h59v58.902H96Zm0 0"/></clipPath><clipPath id="x"><path d="M130 0h99.578v70H130Zm0 0"/></clipPath></defs><path fill="none" stroke="#7F7F7F" stroke-miterlimit="10" stroke-width=".199" d="M12.055 145.8H210.48M12.055 117.454H210.48M12.055 89.105H210.48M12.055 60.762H210.48M12.055 32.414H210.48M12.055 4.078H210.48M12.055 145.801V4.066m28.343 141.735V4.066m28.348 141.735V4.066m28.348 141.735V4.066m28.347 141.735V4.066m28.348 141.735V4.066m28.344 141.735V4.066m28.34 141.735V4.066"/><path fill="#CCF" stroke="#000" stroke-miterlimit="10" stroke-width=".399" d="M79.68 82.18c-1.055-5.97-19.493-7.711-41.188-3.887C16.801 82.117.066 90.063 1.122 96.031c1.054 5.973 19.491 7.715 41.183 3.89C64 96.095 80.73 88.153 79.68 82.18Zm0 0"/><use xlink:href="#a" x="16.332" y="95.9"/><use xlink:href="#b" x="24.858" y="94.397"/><use xlink:href="#c" x="34.885" y="92.629"/><use xlink:href="#d" x="40.056" y="91.717"/><use xlink:href="#d" x="43.186" y="91.165"/><use xlink:href="#e" x="46.316" y="90.613"/><use xlink:href="#f" x="49.445" y="90.061"/><use xlink:href="#g" x="55.715" y="88.956"/><use xlink:href="#c" x="60.169" y="88.17"/><path fill="#CCF" d="M149.18 117.453c0-13.11-10.63-23.738-23.739-23.738-13.113 0-23.742 10.629-23.742 23.738 0 13.113 10.63 23.742 23.742 23.742 13.11 0 23.739-10.629 23.739-23.742m0 0"/><g clip-path="url(#h)"><path fill="none" stroke="#000" stroke-miterlimit="10" stroke-width=".399" d="M149.18 117.453c0-13.11-10.63-23.738-23.739-23.738-13.113 0-23.742 10.629-23.742 23.738 0 13.113 10.63 23.742 23.742 23.742 13.11 0 23.739-10.629 23.739-23.742Zm0 0"/></g><use xlink:href="#i" x="105.947" y="120.9"/><use xlink:href="#j" x="118.42" y="120.9"/><use xlink:href="#k" x="123.511" y="120.9"/><use xlink:href="#l" x="126.689" y="120.9"/><use xlink:href="#j" x="131.412" y="120.9"/><use xlink:href="#m" x="136.502" y="120.9"/><use xlink:href="#n" x="139.68" y="120.9"/><path fill="#CCF" stroke="#000" stroke-miterlimit="10" stroke-width=".399" d="m124.836 14.016-60.82 22.136 5.336 14.66 60.82-22.14Zm0 0"/><use xlink:href="#o" x="70.649" y="44.673"/><use xlink:href="#p" x="82.37" y="40.407"/><use xlink:href="#q" x="86.808" y="38.792"/><use xlink:href="#r" x="91.741" y="36.996"/><use xlink:href="#s" x="96.525" y="35.255"/><use xlink:href="#t" x="100.71" y="33.731"/><use xlink:href="#u" x="105.943" y="31.827"/><use xlink:href="#v" x="111.926" y="29.649"/><use xlink:href="#w" x="117.309" y="27.69"/><use xlink:href="#q" x="120.295" y="26.603"/><path fill="#CCF" d="M228.3 50.063 143.767 1.258l-7.797 13.508L220.5 63.57Zm0 0"/><g clip-path="url(#x)"><path fill="none" stroke="#000" stroke-miterlimit="10" stroke-width=".399" d="M228.3 50.063 143.767 1.258l-7.797 13.508L220.5 63.57Zm0 0"/></g><use xlink:href="#y" x="141.503" y="11.815"/><use xlink:href="#z" x="149.001" y="16.144"/><use xlink:href="#A" x="154.514" y="19.327"/><use xlink:href="#B" x="159.475" y="22.191"/><use xlink:href="#C" x="163.332" y="24.418"/><use xlink:href="#D" x="168.845" y="27.601"/><use xlink:href="#E" x="173.392" y="30.226"/><use xlink:href="#E" x="180.786" y="34.495"/><use xlink:href="#D" x="184.876" y="36.856"/><use xlink:href="#F" x="189.423" y="39.481"/><use xlink:href="#B" x="193.831" y="42.027"/><use xlink:href="#G" x="197.688" y="44.253"/><use xlink:href="#z" x="202.511" y="47.038"/><use xlink:href="#H" x="208.024" y="50.221"/><use xlink:href="#I" x="212.986" y="53.085"/><use xlink:href="#D" x="215.738" y="54.674"/><path fill="none" stroke="#000" stroke-miterlimit="10" stroke-width=".797" d="m42.34 100.117 59.668 12.45m15.863-17.82L99.625 40.003m20.848-7.59h45.668"/><path fill="none" stroke="red" stroke-miterlimit="10" stroke-width=".797" d="M40.402 77.77V4.066h56.692v19.836m0 17.024v76.527h3.61"/><path fill="none" stroke="red" stroke-linecap="round" stroke-linejoin="round" stroke-miterlimit="10" stroke-width=".797" d="M98.55 114.344c.47 1.867 1.505 2.746 2.552 3.11-1.047.362-2.082 1.245-2.551 3.112"/><path fill="none" stroke="#00F" stroke-miterlimit="10" stroke-width=".797" d="M150.176 117.441c31.523-.898 31.953-55.324 31.957-75"/><path fill="none" stroke="#00F" stroke-linecap="round" stroke-linejoin="round" stroke-miterlimit="10" stroke-width=".797" d="M152.328 120.566c-.465-1.867-1.504-2.75-2.55-3.113 1.046-.363 2.085-1.242 2.55-3.11"/><path fill="none" stroke="#00F" stroke-linecap="round" stroke-linejoin="round" stroke-miterlimit="10" stroke-width=".79698406" d="M179.023 44.598c1.868-.465 2.747-1.504 3.11-2.551.363 1.047 1.246 2.086 3.11 2.55"/></svg>