<svg xmlns="http://www.w3.org/2000/svg" xmlns:xlink="http://www.w3.org/1999/xlink" width="45.254" height="7.742"><defs><path id="a" d="M6.844-3.266c.156 0 .343 0 .343-.187 0-.203-.187-.203-.328-.203H.891c-.141 0-.328 0-.328.203 0 .187.187.187.328.187Zm.015 1.938c.141 0 .329 0 .329-.203 0-.188-.188-.188-.344-.188H.89c-.141 0-.328 0-.328.188 0 .203.187.203.328.203Zm0 0"/><path id="b" d="M7.234-3.266c.422.36.938.625 1.266.766-.36.172-.86.422-1.266.781H.906c-.172 0-.36 0-.36.188 0 .203.188.203.345.203h5.89C6.313-.875 5.797.016 5.797.14c0 .109.125.109.187.109.079 0 .141 0 .188-.078.203-.375.484-.906 1.14-1.484a4.7 4.7 0 0 1 1.875-1.032c.157-.062.172-.062.188-.094.031 0 .031-.03.031-.062 0-.016 0-.031-.015-.047l-.032-.031c-.015 0-.03-.016-.218-.078a4.76 4.76 0 0 1-2.907-2.375c-.109-.188-.109-.203-.25-.203-.062 0-.187 0-.187.109 0 .125.5 1 .984 1.469H.891c-.157 0-.344 0-.344.203 0 .187.187.187.36.187Zm0 0"/></defs><use xlink:href="#a" x=".069" y="6.365"/><use xlink:href="#a" x="10.578" y="6.365"/><use xlink:href="#b" x="16.673" y="6.365"/><path fill="none" stroke="#000" stroke-miterlimit="10" stroke-width="2.389" d="M30.598 3.71h11.02"/><path fill="none" stroke="#FFF" stroke-miterlimit="10" stroke-width="1.592" d="M30.598 3.71h11.02"/><path fill="none" stroke="#000" stroke-linecap="round" stroke-linejoin="round" stroke-miterlimit="10" stroke-width=".399" d="M40.285 1.074c.649 1.395 2.39 2.586 3.383 2.637-.992.05-2.734 1.242-3.383 2.637"/></svg>