<svg xmlns="http://www.w3.org/2000/svg" xmlns:xlink="http://www.w3.org/1999/xlink" width="24.534" height="34.382"><defs><path id="b" d="M.453 1.219c-.078.343-.11.406-.547.406-.11 0-.218 0-.218.188 0 .078.046.125.125.125.265 0 .562-.032.828-.032.343 0 .672.032 1 .032.046 0 .172 0 .172-.204 0-.109-.094-.109-.235-.109-.5 0-.5-.062-.5-.156 0-.125.422-1.75.484-2 .125.297.407.64.922.64 1.157 0 2.407-1.453 2.407-2.921 0-.938-.578-1.594-1.328-1.594-.5 0-.985.36-1.313.75-.094-.547-.531-.75-.89-.75-.47 0-.657.39-.735.562-.187.344-.312.938-.312.969 0 .11.093.11.109.11.11 0 .11-.016.172-.235.172-.703.375-1.187.734-1.187.172 0 .313.078.313.453 0 .234-.032.343-.079.515Zm1.75-4.328c.063-.266.344-.547.516-.703.36-.297.64-.376.812-.376.39 0 .64.344.64.938s-.327 1.734-.515 2.11C3.312-.439 2.844-.11 2.47-.11c-.656 0-.781-.827-.781-.89 0-.016 0-.031.03-.156Zm0 0"/><path id="c" d="M3.516-1.266H3.28c-.015.157-.094.563-.187.625-.047.047-.578.047-.688.047H1.125c.734-.64.984-.843 1.39-1.172.516-.406 1-.843 1-1.5 0-.843-.734-1.359-1.624-1.359-.86 0-1.453.61-1.453 1.25 0 .344.296.39.375.39.156 0 .359-.124.359-.374 0-.125-.047-.375-.406-.375.218-.485.687-.641 1.015-.641.703 0 1.063.547 1.063 1.11 0 .609-.438 1.078-.656 1.328L.516-.266C.437-.203.437-.187.437 0h2.876Zm0 0"/><path id="d" d="M3.188 0v-.328H2.28V-3.11c0-.157-.015-.188-.187-.188H2c-.437.328-1.078.328-1.187.328H.672v.328h.14c.063 0 .438 0 .813-.125v2.438H.719V0c.25-.016.953-.016 1.234-.016s1 0 1.235.016m0 0"/><path id="e" d="M3.328-1.047h-.406c-.031.188-.11.313-.156.328-.11.016-.328.016-.5.016H1.53c.313-.203.61-.39.828-.516.563-.312.97-.531.97-1.047 0-.625-.563-1.03-1.548-1.03-.234 0-1.343 0-1.343.733 0 .297.25.422.421.422.188 0 .407-.14.407-.406 0-.187-.11-.297-.125-.312.172-.094.359-.094.468-.094.5 0 .938.234.938.687 0 .391-.313.688-.625.907L.532-.344C.436-.28.436-.266.436-.156V0h2.704Zm0 0"/><clipPath id="a"><path d="M0 5h24.3v29.074H0Zm0 0"/></clipPath></defs><g clip-path="url(#a)"><path fill="none" stroke="#000" stroke-miterlimit="10" stroke-width=".399" d="M23.094 21.813c0-6.11-4.953-11.06-11.059-11.06-6.11 0-11.058 4.95-11.058 11.06 0 6.105 4.949 11.058 11.058 11.058 6.106 0 11.059-4.953 11.059-11.059Zm0 0"/></g><use xlink:href="#b" x="7.293" y="5.097"/><use xlink:href="#c" x="12.305" y="6.591"/><path d="M11.914 18.496c0-1.77-1.43-3.2-3.2-3.2a3.195 3.195 0 0 0-3.194 3.2 3.194 3.194 0 0 0 3.195 3.195c1.77 0 3.2-1.43 3.2-3.195m0 0"/><use xlink:href="#d" x="6.828" y="20.14" fill="#FFF"/><path fill="red" d="M18.55 18.496a3.198 3.198 0 1 0-6.396-.002 3.198 3.198 0 0 0 6.397.002m0 0"/><use xlink:href="#e" x="13.463" y="20.14" fill="#FFF"/><path fill="red" d="M11.914 25.129a3.198 3.198 0 1 0-6.397-.002 3.198 3.198 0 0 0 6.397.002m0 0"/><use xlink:href="#e" x="6.828" y="26.776" fill="#FFF"/><path d="M18.55 25.129a3.2 3.2 0 0 0-3.198-3.2 3.2 3.2 0 0 0-3.2 3.2 3.2 3.2 0 0 0 3.2 3.2 3.2 3.2 0 0 0 3.199-3.2m0 0"/><use xlink:href="#d" x="13.463" y="26.776" fill="#FFF"/></svg>