<svg xmlns="http://www.w3.org/2000/svg" xmlns:xlink="http://www.w3.org/1999/xlink" width="387.704" height="114.428"><defs><path id="c" d="M5.984 0v-.469h-.687V-4.53l-1.75.062-.016.047H2.078v-.984c0-.828.672-1.219 1.594-1.219.281 0 .5.063.719.188-.157.062-.438.234-.438.625 0 .39.297.656.656.656s.657-.25.657-.672c0-.516-.438-1.156-1.532-1.156-1.234 0-2.671.39-2.671 1.562v1h-.75v.469h.75V-.47H.375V0l1.219-.031L2.828 0v-.469h-.687v-3.484h1.78c.25 0 .313 0 .313.344v3.14h-.703V0l1.235-.031Zm0 0"/><path id="d" d="M4.406-3.672c0-.531-.531-.812-1.062-.812-.688 0-1.094.5-1.313 1.125v-1.125l-1.656.078v.468c.61 0 .688 0 .688.391v3.078H.375V0l1.25-.031C2-.031 2.641-.031 3 0v-.469h-.86v-1.75c0-.687.235-1.906 1.235-1.906 0 0-.187.172-.187.453 0 .406.328.61.609.61.297 0 .61-.204.61-.61m0 0"/><path id="e" d="M4.14-1.39c0-.438-.202-.782-.546-1.063-.39-.281-.719-.344-1.485-.485-.375-.062-1.015-.171-1.015-.64 0-.625.922-.625 1.11-.625.75 0 1.124.297 1.171.844.016.156.031.203.234.203.235 0 .235-.047.235-.281v-.797c0-.188 0-.282-.172-.282-.047 0-.063 0-.453.188-.266-.125-.61-.188-1-.188-.313 0-1.844 0-1.844 1.313 0 .39.203.656.406.828.39.344.782.406 1.547.547.36.062 1.094.187 1.094.781 0 .75-.906.75-1.125.75C1.234-.297.984-1.03.859-1.453c-.046-.14-.109-.14-.234-.14-.25 0-.25.062-.25.28v1.094c0 .188 0 .282.188.282.062 0 .078 0 .296-.157l.25-.172c.47.329.985.329 1.188.329.312 0 1.844 0 1.844-1.454m0 0"/><path id="f" d="M3.813-1.234v-.532h-.47v.516c0 .672-.327.906-.609.906-.578 0-.578-.64-.578-.86v-2.75h1.469v-.468H2.156v-1.906h-.469c0 1-.484 1.984-1.484 2.016v.359h.828v2.734c0 1.063.86 1.282 1.578 1.282.75 0 1.204-.579 1.204-1.297m0 0"/><path id="g" d="M8.031-3.953v-.469a13 13 0 0 1-.781.031l-.953-.03v.468c.094 0 .578 0 .578.11 0 .03-.031.093-.031.124L5.797-1.172l-1.14-2.781h.562v-.469l-1.14.031c-.423 0-.845-.03-1-.03v.468h.593c.203.5.203.531.203.531 0 .031-.031.094-.031.125L3.047-1.39 2-3.953h.563v-.469l-1.235.031L.25-4.42v.468h.594L2.359-.234c.079.172.11.28.36.28s.297-.108.36-.28L4.14-2.812 5.188-.235c.078.172.109.28.359.28s.297-.108.36-.28L7.343-3.75c.047-.125.093-.203.687-.203m0 0"/><path id="h" d="M5.406-2.172c0-1.344-.922-2.344-2.547-2.344C1.22-4.516.313-3.5.313-2.172c0 1.235.89 2.235 2.546 2.235 1.672 0 2.547-1.016 2.547-2.235m-1.281-.11c0 .86 0 1.938-1.266 1.938-1.265 0-1.265-1.078-1.265-1.937 0-.453 0-.953.172-1.297.187-.375.609-.578 1.093-.578.422 0 .844.156 1.063.5.203.344.203.89.203 1.375m0 0"/><path id="i" d="M5.516-.234c0-.235-.125-.235-.266-.235-.61-.015-.61-.14-.61-.375v-2.14c0-.891-.702-1.532-2.187-1.532-.562 0-1.781.047-1.781.922 0 .438.344.625.61.625.312 0 .624-.219.624-.625 0-.297-.187-.469-.218-.5a5 5 0 0 1 .718-.062c.75 0 1.11.422 1.11 1.172v.343c-.72.032-3.25.125-3.25 1.563C.266-.125 1.5.062 2.188.062c.796 0 1.265-.406 1.484-.828 0 .313 0 .766 1.047.766h.468c.204 0 .329 0 .329-.234m-2-1.157c0 .97-.922 1.094-1.172 1.094-.516 0-.906-.344-.906-.797 0-1.062 1.578-1.203 2.078-1.234Zm0 0"/><path id="j" d="M5.984-2.219c0-1.328-.906-2.265-2.343-2.265-.75 0-1.282.312-1.5.484v-.484l-1.766.078v.468c.61 0 .688 0 .688.376v5.03H.375v.47l1.25-.032 1.25.032v-.47h-.687V-.39a2 2 0 0 0 1.28.454c1.5 0 2.516-.907 2.516-2.282m-1.28 0C4.703-.813 4-.297 3.358-.297c-.14 0-.609 0-1.062-.547-.11-.125-.11-.14-.11-.328v-2.11c0-.187.016-.202.157-.343.39-.406.922-.469 1.14-.469.657 0 1.22.61 1.22 1.875m0 0"/><path id="k" d="M2.922 0v-.469h-.688v-6.453L.47-6.844v.469c.625 0 .687 0 .687.39v5.516H.47V0l1.219-.031Zm0 0"/><path id="l" d="M2.844 0v-.469h-.61v-4.015L.5-4.406v.468c.594 0 .656 0 .656.391v3.078H.47V0l1.219-.031Zm-.469-6.047a.774.774 0 0 0-.781-.781.784.784 0 0 0-.782.781c0 .422.36.766.782.766a.77.77 0 0 0 .781-.766m0 0"/><path id="m" d="M4.766-1.172c0-.14-.141-.14-.235-.14-.187 0-.187.03-.25.156-.25.625-.734.812-1.234.812-1.39 0-1.39-1.453-1.39-1.922 0-.562 0-1.843 1.28-1.843.36 0 .516.015.657.046a.62.62 0 0 0-.203.47c0 .437.343.624.609.624.313 0 .64-.219.64-.625 0-.86-1.156-.922-1.734-.922C1.11-4.516.375-3.375.375-2.219.375-.89 1.313.063 2.844.063c1.625 0 1.922-1.157 1.922-1.235m0 0"/><path id="n" d="M6.125 0v-.469h-.687v-2.578c0-1.047-.532-1.437-1.532-1.437-.953 0-1.484.562-1.75 1.078v-1.078l-1.703.078v.468c.61 0 .688 0 .688.391v3.078H.453V0l1.25-.031L2.953 0v-.469h-.687v-2.078c0-1.094.859-1.578 1.5-1.578.328 0 .547.203.547.969V-.47h-.688V0l1.25-.031Zm0 0"/><path id="q" d="M6.125 0v-.469h-.687v-2.578c0-1.047-.532-1.437-1.532-1.437a1.9 1.9 0 0 0-1.687.953v-3.39l-1.766.077v.469c.61 0 .688 0 .688.39v5.516H.453V0l1.25-.031L2.953 0v-.469h-.687v-2.078c0-1.094.859-1.578 1.5-1.578.328 0 .547.203.547.969V-.47h-.688V0l1.25-.031Zm0 0"/><path id="r" d="M5.984 0v-.469c-.609 0-.687 0-.687-.39v-6.063l-1.766.078v.469c.625 0 .703 0 .703.39v1.954a2.18 2.18 0 0 0-1.359-.453c-1.453 0-2.5.875-2.5 2.28 0 1.313.922 2.267 2.39 2.267.61 0 1.094-.235 1.407-.485v.485ZM4.172-1.031c-.14.187-.547.734-1.297.734-1.219 0-1.219-1.203-1.219-1.906 0-.485 0-1.016.25-1.406.297-.422.766-.516 1.078-.516.563 0 .97.313 1.188.61Zm0 0"/><path id="u" d="M4.36-6.11c0-.421-.36-.874-1.141-.874-.969 0-2.047.422-2.047 1.547v1.015h-.75v.469h.75V-.47H.484V0l1.25-.031c.375 0 1.016 0 1.375.031v-.469H2.25v-3.484h1.14v-.469H2.188v-1.016c0-1.093.75-1.187 1-1.187.047 0 .11 0 .172.031a.59.59 0 0 0-.234.485c0 .422.36.609.61.609.296 0 .624-.203.624-.61m0 0"/><path id="v" d="M6.125 0v-.469c-.61 0-.687 0-.687-.39v-3.625l-1.813.078v.468c.61 0 .688 0 .688.391v1.906c0 .813-.516 1.344-1.235 1.344-.781 0-.812-.25-.812-.797v-3.39l-1.813.078v.468c.61 0 .688 0 .688.391v2.328c0 1.063.797 1.282 1.797 1.282.25 0 .968 0 1.421-.782v.782Zm0 0"/><linearGradient id="b" x1="0" x2="0" y1="0" y2="100" gradientTransform="matrix(1 0 0 -1 3.079 100.723)" gradientUnits="userSpaceOnUse"><stop offset="0" stop-color="red"/><stop offset=".004" stop-color="#FB0400"/><stop offset=".008" stop-color="#F70800"/><stop offset=".012" stop-color="#F30C00"/><stop offset=".016" stop-color="#EF1000"/><stop offset=".02" stop-color="#EB1400"/><stop offset=".023" stop-color="#E71800"/><stop offset=".027" stop-color="#E31C00"/><stop offset=".031" stop-color="#DF2000"/><stop offset=".035" stop-color="#DB2400"/><stop offset=".039" stop-color="#D72800"/><stop offset=".043" stop-color="#D32C00"/><stop offset=".047" stop-color="#CF3000"/><stop offset=".051" stop-color="#CB3400"/><stop offset=".055" stop-color="#C73800"/><stop offset=".059" stop-color="#C33C00"/><stop offset=".063" stop-color="#BF4000"/><stop offset=".066" stop-color="#B40"/><stop offset=".07" stop-color="#B74800"/><stop offset=".074" stop-color="#B34C00"/><stop offset=".078" stop-color="#AF5000"/><stop offset=".082" stop-color="#AB5400"/><stop offset=".086" stop-color="#A75800"/><stop offset=".09" stop-color="#A35C00"/><stop offset=".094" stop-color="#9F6000"/><stop offset=".098" stop-color="#9B6400"/><stop offset=".102" stop-color="#976800"/><stop offset=".105" stop-color="#936C00"/><stop offset=".109" stop-color="#8F7000"/><stop offset=".113" stop-color="#8B7400"/><stop offset=".117" stop-color="#877800"/><stop offset=".121" stop-color="#837C00"/><stop offset=".125" stop-color="#7F7F00"/><stop offset=".129" stop-color="#7C8300"/><stop offset=".133" stop-color="#788700"/><stop offset=".137" stop-color="#748B00"/><stop offset=".141" stop-color="#708F00"/><stop offset=".145" stop-color="#6C9300"/><stop offset=".148" stop-color="#689700"/><stop offset=".152" stop-color="#649B00"/><stop offset=".156" stop-color="#609F00"/><stop offset=".16" stop-color="#5CA300"/><stop offset=".164" stop-color="#58A700"/><stop offset=".168" stop-color="#54AB00"/><stop offset=".172" stop-color="#50AF00"/><stop offset=".176" stop-color="#4CB300"/><stop offset=".18" stop-color="#48B700"/><stop offset=".184" stop-color="#4B0"/><stop offset=".188" stop-color="#40BF00"/><stop offset=".191" stop-color="#3CC300"/><stop offset=".195" stop-color="#38C700"/><stop offset=".199" stop-color="#34CB00"/><stop offset=".203" stop-color="#30CF00"/><stop offset=".207" stop-color="#2CD300"/><stop offset=".211" stop-color="#28D700"/><stop offset=".215" stop-color="#24DB00"/><stop offset=".219" stop-color="#20DF00"/><stop offset=".223" stop-color="#1CE300"/><stop offset=".227" stop-color="#18E700"/><stop offset=".23" stop-color="#14EB00"/><stop offset=".234" stop-color="#10EF00"/><stop offset=".238" stop-color="#0CF300"/><stop offset=".242" stop-color="#08F700"/><stop offset=".246" stop-color="#04FB00"/><stop offset=".25" stop-color="#0F0"/><stop offset=".254" stop-color="#00FD02"/><stop offset=".258" stop-color="#00FB04"/><stop offset=".262" stop-color="#00F906"/><stop offset=".266" stop-color="#00F708"/><stop offset=".27" stop-color="#00F50A"/><stop offset=".273" stop-color="#00F30C"/><stop offset=".277" stop-color="#00F10E"/><stop offset=".281" stop-color="#00EF10"/><stop offset=".285" stop-color="#00ED12"/><stop offset=".289" stop-color="#00EB14"/><stop offset=".293" stop-color="#00E916"/><stop offset=".297" stop-color="#00E718"/><stop offset=".301" stop-color="#00E51A"/><stop offset=".305" stop-color="#00E31C"/><stop offset=".309" stop-color="#00E11E"/><stop offset=".313" stop-color="#00DF20"/><stop offset=".316" stop-color="#0D2"/><stop offset=".32" stop-color="#00DB24"/><stop offset=".324" stop-color="#00D926"/><stop offset=".328" stop-color="#00D728"/><stop offset=".332" stop-color="#00D52A"/><stop offset=".336" stop-color="#00D32C"/><stop offset=".34" stop-color="#00D12E"/><stop offset=".344" stop-color="#00CF30"/><stop offset=".348" stop-color="#00CD32"/><stop offset=".352" stop-color="#00CB34"/><stop offset=".355" stop-color="#00C936"/><stop offset=".359" stop-color="#00C738"/><stop offset=".363" stop-color="#00C53A"/><stop offset=".367" stop-color="#00C33C"/><stop offset=".371" stop-color="#00C13E"/><stop offset=".375" stop-color="#00BF40"/><stop offset=".379" stop-color="#00BD42"/><stop offset=".383" stop-color="#0B4"/><stop offset=".387" stop-color="#00B946"/><stop offset=".391" stop-color="#00B748"/><stop offset=".395" stop-color="#00B54A"/><stop offset=".398" stop-color="#00B34C"/><stop offset=".402" stop-color="#00B14E"/><stop offset=".406" stop-color="#00AF50"/><stop offset=".41" stop-color="#00AD52"/><stop offset=".414" stop-color="#00AB54"/><stop offset=".418" stop-color="#00A956"/><stop offset=".422" stop-color="#00A758"/><stop offset=".426" stop-color="#00A55A"/><stop offset=".43" stop-color="#00A35C"/><stop offset=".434" stop-color="#00A15E"/><stop offset=".438" stop-color="#009F60"/><stop offset=".441" stop-color="#009D62"/><stop offset=".445" stop-color="#009B64"/><stop offset=".449" stop-color="#096"/><stop offset=".453" stop-color="#009768"/><stop offset=".457" stop-color="#00956A"/><stop offset=".461" stop-color="#00936C"/><stop offset=".465" stop-color="#00916E"/><stop offset=".469" stop-color="#008F70"/><stop offset=".473" stop-color="#008D72"/><stop offset=".477" stop-color="#008B74"/><stop offset=".48" stop-color="#008976"/><stop offset=".484" stop-color="#008778"/><stop offset=".488" stop-color="#00857A"/><stop offset=".492" stop-color="#00837C"/><stop offset=".496" stop-color="#00817E"/><stop offset=".5" stop-color="#007F7F"/><stop offset=".504" stop-color="#007E81"/><stop offset=".508" stop-color="#007C83"/><stop offset=".512" stop-color="#007A85"/><stop offset=".516" stop-color="#007887"/><stop offset=".52" stop-color="#007689"/><stop offset=".523" stop-color="#00748B"/><stop offset=".527" stop-color="#00728D"/><stop offset=".531" stop-color="#00708F"/><stop offset=".535" stop-color="#006E91"/><stop offset=".539" stop-color="#006C93"/><stop offset=".543" stop-color="#006A95"/><stop offset=".547" stop-color="#006897"/><stop offset=".551" stop-color="#069"/><stop offset=".555" stop-color="#00649B"/><stop offset=".559" stop-color="#00629D"/><stop offset=".563" stop-color="#00609F"/><stop offset=".566" stop-color="#005EA1"/><stop offset=".57" stop-color="#005CA3"/><stop offset=".574" stop-color="#005AA5"/><stop offset=".578" stop-color="#0058A7"/><stop offset=".582" stop-color="#0056A9"/><stop offset=".586" stop-color="#0054AB"/><stop offset=".59" stop-color="#0052AD"/><stop offset=".594" stop-color="#0050AF"/><stop offset=".598" stop-color="#004EB1"/><stop offset=".602" stop-color="#004CB3"/><stop offset=".605" stop-color="#004AB5"/><stop offset=".609" stop-color="#0048B7"/><stop offset=".613" stop-color="#0046B9"/><stop offset=".617" stop-color="#04B"/><stop offset=".621" stop-color="#0042BD"/><stop offset=".625" stop-color="#0040BF"/><stop offset=".629" stop-color="#003EC1"/><stop offset=".633" stop-color="#003CC3"/><stop offset=".637" stop-color="#003AC5"/><stop offset=".641" stop-color="#0038C7"/><stop offset=".645" stop-color="#0036C9"/><stop offset=".648" stop-color="#0034CB"/><stop offset=".652" stop-color="#0032CD"/><stop offset=".656" stop-color="#0030CF"/><stop offset=".66" stop-color="#002ED1"/><stop offset=".664" stop-color="#002CD3"/><stop offset=".668" stop-color="#002AD5"/><stop offset=".672" stop-color="#0028D7"/><stop offset=".676" stop-color="#0026D9"/><stop offset=".68" stop-color="#0024DB"/><stop offset=".684" stop-color="#02D"/><stop offset=".688" stop-color="#0020DF"/><stop offset=".691" stop-color="#001EE1"/><stop offset=".695" stop-color="#001CE3"/><stop offset=".699" stop-color="#001AE5"/><stop offset=".703" stop-color="#0018E7"/><stop offset=".707" stop-color="#0016E9"/><stop offset=".711" stop-color="#0014EB"/><stop offset=".715" stop-color="#0012ED"/><stop offset=".719" stop-color="#0010EF"/><stop offset=".723" stop-color="#000EF1"/><stop offset=".727" stop-color="#000CF3"/><stop offset=".73" stop-color="#000AF5"/><stop offset=".734" stop-color="#0008F7"/><stop offset=".738" stop-color="#0006F9"/><stop offset=".742" stop-color="#0004FB"/><stop offset=".746" stop-color="#0002FD"/><stop offset=".75" stop-color="#00F"/><stop offset=".754" stop-color="#0000FB"/><stop offset=".758" stop-color="#0000F7"/><stop offset=".762" stop-color="#0000F3"/><stop offset=".766" stop-color="#0000EF"/><stop offset=".77" stop-color="#0000EB"/><stop offset=".773" stop-color="#0000E7"/><stop offset=".777" stop-color="#0000E3"/><stop offset=".781" stop-color="#0000DF"/><stop offset=".785" stop-color="#0000DB"/><stop offset=".789" stop-color="#0000D7"/><stop offset=".793" stop-color="#0000D3"/><stop offset=".797" stop-color="#0000CF"/><stop offset=".801" stop-color="#0000CB"/><stop offset=".805" stop-color="#0000C7"/><stop offset=".809" stop-color="#0000C3"/><stop offset=".813" stop-color="#0000BF"/><stop offset=".816" stop-color="#00B"/><stop offset=".82" stop-color="#0000B7"/><stop offset=".824" stop-color="#0000B3"/><stop offset=".828" stop-color="#0000AF"/><stop offset=".832" stop-color="#0000AB"/><stop offset=".836" stop-color="#0000A7"/><stop offset=".84" stop-color="#0000A3"/><stop offset=".844" stop-color="#00009F"/><stop offset=".848" stop-color="#00009B"/><stop offset=".852" stop-color="#000097"/><stop offset=".855" stop-color="#000093"/><stop offset=".859" stop-color="#00008F"/><stop offset=".863" stop-color="#00008B"/><stop offset=".867" stop-color="#000087"/><stop offset=".871" stop-color="#000083"/><stop offset=".875" stop-color="navy"/><stop offset=".879" stop-color="#00007C"/><stop offset=".883" stop-color="#000078"/><stop offset=".887" stop-color="#000074"/><stop offset=".891" stop-color="#000070"/><stop offset=".895" stop-color="#00006C"/><stop offset=".898" stop-color="#000068"/><stop offset=".902" stop-color="#000064"/><stop offset=".906" stop-color="#000060"/><stop offset=".91" stop-color="#00005C"/><stop offset=".914" stop-color="#000058"/><stop offset=".918" stop-color="#000054"/><stop offset=".922" stop-color="#000050"/><stop offset=".926" stop-color="#00004C"/><stop offset=".93" stop-color="#000048"/><stop offset=".934" stop-color="#004"/><stop offset=".938" stop-color="#000040"/><stop offset=".941" stop-color="#00003C"/><stop offset=".945" stop-color="#000038"/><stop offset=".949" stop-color="#000034"/><stop offset=".953" stop-color="#000030"/><stop offset=".957" stop-color="#00002C"/><stop offset=".961" stop-color="#000028"/><stop offset=".965" stop-color="#000024"/><stop offset=".969" stop-color="#000020"/><stop offset=".973" stop-color="#00001C"/><stop offset=".977" stop-color="#000018"/><stop offset=".98" stop-color="#000014"/><stop offset=".984" stop-color="#000010"/><stop offset=".988" stop-color="#00000C"/><stop offset=".992" stop-color="#000008"/><stop offset=".996" stop-color="#000004"/><stop offset="1"/></linearGradient><linearGradient id="p" x1="0" x2="0" y1="0" y2="100" gradientTransform="matrix(1 0 0 -1 144.812 100.723)" gradientUnits="userSpaceOnUse"><stop offset="0" stop-color="red"/><stop offset=".004" stop-color="#FB0400"/><stop offset=".008" stop-color="#F70800"/><stop offset=".012" stop-color="#F30C00"/><stop offset=".016" stop-color="#EF1000"/><stop offset=".02" stop-color="#EB1400"/><stop offset=".023" stop-color="#E71800"/><stop offset=".027" stop-color="#E31C00"/><stop offset=".031" stop-color="#DF2000"/><stop offset=".035" stop-color="#DB2400"/><stop offset=".039" stop-color="#D72800"/><stop offset=".043" stop-color="#D32C00"/><stop offset=".047" stop-color="#CF3000"/><stop offset=".051" stop-color="#CB3400"/><stop offset=".055" stop-color="#C73800"/><stop offset=".059" stop-color="#C33C00"/><stop offset=".063" stop-color="#BF4000"/><stop offset=".066" stop-color="#B40"/><stop offset=".07" stop-color="#B74800"/><stop offset=".074" stop-color="#B34C00"/><stop offset=".078" stop-color="#AF5000"/><stop offset=".082" stop-color="#AB5400"/><stop offset=".086" stop-color="#A75800"/><stop offset=".09" stop-color="#A35C00"/><stop offset=".094" stop-color="#9F6000"/><stop offset=".098" stop-color="#9B6400"/><stop offset=".102" stop-color="#976800"/><stop offset=".105" stop-color="#936C00"/><stop offset=".109" stop-color="#8F7000"/><stop offset=".113" stop-color="#8B7400"/><stop offset=".117" stop-color="#877800"/><stop offset=".121" stop-color="#837C00"/><stop offset=".125" stop-color="#7F7F00"/><stop offset=".129" stop-color="#7C8300"/><stop offset=".133" stop-color="#788700"/><stop offset=".137" stop-color="#748B00"/><stop offset=".141" stop-color="#708F00"/><stop offset=".145" stop-color="#6C9300"/><stop offset=".148" stop-color="#689700"/><stop offset=".152" stop-color="#649B00"/><stop offset=".156" stop-color="#609F00"/><stop offset=".16" stop-color="#5CA300"/><stop offset=".164" stop-color="#58A700"/><stop offset=".168" stop-color="#54AB00"/><stop offset=".172" stop-color="#50AF00"/><stop offset=".176" stop-color="#4CB300"/><stop offset=".18" stop-color="#48B700"/><stop offset=".184" stop-color="#4B0"/><stop offset=".188" stop-color="#40BF00"/><stop offset=".191" stop-color="#3CC300"/><stop offset=".195" stop-color="#38C700"/><stop offset=".199" stop-color="#34CB00"/><stop offset=".203" stop-color="#30CF00"/><stop offset=".207" stop-color="#2CD300"/><stop offset=".211" stop-color="#28D700"/><stop offset=".215" stop-color="#24DB00"/><stop offset=".219" stop-color="#20DF00"/><stop offset=".223" stop-color="#1CE300"/><stop offset=".227" stop-color="#18E700"/><stop offset=".23" stop-color="#14EB00"/><stop offset=".234" stop-color="#10EF00"/><stop offset=".238" stop-color="#0CF300"/><stop offset=".242" stop-color="#08F700"/><stop offset=".246" stop-color="#04FB00"/><stop offset=".25" stop-color="#0F0"/><stop offset=".254" stop-color="#00FD02"/><stop offset=".258" stop-color="#00FB04"/><stop offset=".262" stop-color="#00F906"/><stop offset=".266" stop-color="#00F708"/><stop offset=".27" stop-color="#00F50A"/><stop offset=".273" stop-color="#00F30C"/><stop offset=".277" stop-color="#00F10E"/><stop offset=".281" stop-color="#00EF10"/><stop offset=".285" stop-color="#00ED12"/><stop offset=".289" stop-color="#00EB14"/><stop offset=".293" stop-color="#00E916"/><stop offset=".297" stop-color="#00E718"/><stop offset=".301" stop-color="#00E51A"/><stop offset=".305" stop-color="#00E31C"/><stop offset=".309" stop-color="#00E11E"/><stop offset=".313" stop-color="#00DF20"/><stop offset=".316" stop-color="#0D2"/><stop offset=".32" stop-color="#00DB24"/><stop offset=".324" stop-color="#00D926"/><stop offset=".328" stop-color="#00D728"/><stop offset=".332" stop-color="#00D52A"/><stop offset=".336" stop-color="#00D32C"/><stop offset=".34" stop-color="#00D12E"/><stop offset=".344" stop-color="#00CF30"/><stop offset=".348" stop-color="#00CD32"/><stop offset=".352" stop-color="#00CB34"/><stop offset=".355" stop-color="#00C936"/><stop offset=".359" stop-color="#00C738"/><stop offset=".363" stop-color="#00C53A"/><stop offset=".367" stop-color="#00C33C"/><stop offset=".371" stop-color="#00C13E"/><stop offset=".375" stop-color="#00BF40"/><stop offset=".379" stop-color="#00BD42"/><stop offset=".383" stop-color="#0B4"/><stop offset=".387" stop-color="#00B946"/><stop offset=".391" stop-color="#00B748"/><stop offset=".395" stop-color="#00B54A"/><stop offset=".398" stop-color="#00B34C"/><stop offset=".402" stop-color="#00B14E"/><stop offset=".406" stop-color="#00AF50"/><stop offset=".41" stop-color="#00AD52"/><stop offset=".414" stop-color="#00AB54"/><stop offset=".418" stop-color="#00A956"/><stop offset=".422" stop-color="#00A758"/><stop offset=".426" stop-color="#00A55A"/><stop offset=".43" stop-color="#00A35C"/><stop offset=".434" stop-color="#00A15E"/><stop offset=".438" stop-color="#009F60"/><stop offset=".441" stop-color="#009D62"/><stop offset=".445" stop-color="#009B64"/><stop offset=".449" stop-color="#096"/><stop offset=".453" stop-color="#009768"/><stop offset=".457" stop-color="#00956A"/><stop offset=".461" stop-color="#00936C"/><stop offset=".465" stop-color="#00916E"/><stop offset=".469" stop-color="#008F70"/><stop offset=".473" stop-color="#008D72"/><stop offset=".477" stop-color="#008B74"/><stop offset=".48" stop-color="#008976"/><stop offset=".484" stop-color="#008778"/><stop offset=".488" stop-color="#00857A"/><stop offset=".492" stop-color="#00837C"/><stop offset=".496" stop-color="#00817E"/><stop offset=".5" stop-color="#007F7F"/><stop offset=".504" stop-color="#007E81"/><stop offset=".508" stop-color="#007C83"/><stop offset=".512" stop-color="#007A85"/><stop offset=".516" stop-color="#007887"/><stop offset=".52" stop-color="#007689"/><stop offset=".523" stop-color="#00748B"/><stop offset=".527" stop-color="#00728D"/><stop offset=".531" stop-color="#00708F"/><stop offset=".535" stop-color="#006E91"/><stop offset=".539" stop-color="#006C93"/><stop offset=".543" stop-color="#006A95"/><stop offset=".547" stop-color="#006897"/><stop offset=".551" stop-color="#069"/><stop offset=".555" stop-color="#00649B"/><stop offset=".559" stop-color="#00629D"/><stop offset=".563" stop-color="#00609F"/><stop offset=".566" stop-color="#005EA1"/><stop offset=".57" stop-color="#005CA3"/><stop offset=".574" stop-color="#005AA5"/><stop offset=".578" stop-color="#0058A7"/><stop offset=".582" stop-color="#0056A9"/><stop offset=".586" stop-color="#0054AB"/><stop offset=".59" stop-color="#0052AD"/><stop offset=".594" stop-color="#0050AF"/><stop offset=".598" stop-color="#004EB1"/><stop offset=".602" stop-color="#004CB3"/><stop offset=".605" stop-color="#004AB5"/><stop offset=".609" stop-color="#0048B7"/><stop offset=".613" stop-color="#0046B9"/><stop offset=".617" stop-color="#04B"/><stop offset=".621" stop-color="#0042BD"/><stop offset=".625" stop-color="#0040BF"/><stop offset=".629" stop-color="#003EC1"/><stop offset=".633" stop-color="#003CC3"/><stop offset=".637" stop-color="#003AC5"/><stop offset=".641" stop-color="#0038C7"/><stop offset=".645" stop-color="#0036C9"/><stop offset=".648" stop-color="#0034CB"/><stop offset=".652" stop-color="#0032CD"/><stop offset=".656" stop-color="#0030CF"/><stop offset=".66" stop-color="#002ED1"/><stop offset=".664" stop-color="#002CD3"/><stop offset=".668" stop-color="#002AD5"/><stop offset=".672" stop-color="#0028D7"/><stop offset=".676" stop-color="#0026D9"/><stop offset=".68" stop-color="#0024DB"/><stop offset=".684" stop-color="#02D"/><stop offset=".688" stop-color="#0020DF"/><stop offset=".691" stop-color="#001EE1"/><stop offset=".695" stop-color="#001CE3"/><stop offset=".699" stop-color="#001AE5"/><stop offset=".703" stop-color="#0018E7"/><stop offset=".707" stop-color="#0016E9"/><stop offset=".711" stop-color="#0014EB"/><stop offset=".715" stop-color="#0012ED"/><stop offset=".719" stop-color="#0010EF"/><stop offset=".723" stop-color="#000EF1"/><stop offset=".727" stop-color="#000CF3"/><stop offset=".73" stop-color="#000AF5"/><stop offset=".734" stop-color="#0008F7"/><stop offset=".738" stop-color="#0006F9"/><stop offset=".742" stop-color="#0004FB"/><stop offset=".746" stop-color="#0002FD"/><stop offset=".75" stop-color="#00F"/><stop offset=".754" stop-color="#0000FB"/><stop offset=".758" stop-color="#0000F7"/><stop offset=".762" stop-color="#0000F3"/><stop offset=".766" stop-color="#0000EF"/><stop offset=".77" stop-color="#0000EB"/><stop offset=".773" stop-color="#0000E7"/><stop offset=".777" stop-color="#0000E3"/><stop offset=".781" stop-color="#0000DF"/><stop offset=".785" stop-color="#0000DB"/><stop offset=".789" stop-color="#0000D7"/><stop offset=".793" stop-color="#0000D3"/><stop offset=".797" stop-color="#0000CF"/><stop offset=".801" stop-color="#0000CB"/><stop offset=".805" stop-color="#0000C7"/><stop offset=".809" stop-color="#0000C3"/><stop offset=".813" stop-color="#0000BF"/><stop offset=".816" stop-color="#00B"/><stop offset=".82" stop-color="#0000B7"/><stop offset=".824" stop-color="#0000B3"/><stop offset=".828" stop-color="#0000AF"/><stop offset=".832" stop-color="#0000AB"/><stop offset=".836" stop-color="#0000A7"/><stop offset=".84" stop-color="#0000A3"/><stop offset=".844" stop-color="#00009F"/><stop offset=".848" stop-color="#00009B"/><stop offset=".852" stop-color="#000097"/><stop offset=".855" stop-color="#000093"/><stop offset=".859" stop-color="#00008F"/><stop offset=".863" stop-color="#00008B"/><stop offset=".867" stop-color="#000087"/><stop offset=".871" stop-color="#000083"/><stop offset=".875" stop-color="navy"/><stop offset=".879" stop-color="#00007C"/><stop offset=".883" stop-color="#000078"/><stop offset=".887" stop-color="#000074"/><stop offset=".891" stop-color="#000070"/><stop offset=".895" stop-color="#00006C"/><stop offset=".898" stop-color="#000068"/><stop offset=".902" stop-color="#000064"/><stop offset=".906" stop-color="#000060"/><stop offset=".91" stop-color="#00005C"/><stop offset=".914" stop-color="#000058"/><stop offset=".918" stop-color="#000054"/><stop offset=".922" stop-color="#000050"/><stop offset=".926" stop-color="#00004C"/><stop offset=".93" stop-color="#000048"/><stop offset=".934" stop-color="#004"/><stop offset=".938" stop-color="#000040"/><stop offset=".941" stop-color="#00003C"/><stop offset=".945" stop-color="#000038"/><stop offset=".949" stop-color="#000034"/><stop offset=".953" stop-color="#000030"/><stop offset=".957" stop-color="#00002C"/><stop offset=".961" stop-color="#000028"/><stop offset=".965" stop-color="#000024"/><stop offset=".969" stop-color="#000020"/><stop offset=".973" stop-color="#00001C"/><stop offset=".977" stop-color="#000018"/><stop offset=".98" stop-color="#000014"/><stop offset=".984" stop-color="#000010"/><stop offset=".988" stop-color="#00000C"/><stop offset=".992" stop-color="#000008"/><stop offset=".996" stop-color="#000004"/><stop offset="1"/></linearGradient><linearGradient id="t" x1="0" x2="0" y1="0" y2="100" gradientTransform="matrix(1 0 0 -1 286.544 100.723)" gradientUnits="userSpaceOnUse"><stop offset="0" stop-color="red"/><stop offset=".004" stop-color="#FB0400"/><stop offset=".008" stop-color="#F70800"/><stop offset=".012" stop-color="#F30C00"/><stop offset=".016" stop-color="#EF1000"/><stop offset=".02" stop-color="#EB1400"/><stop offset=".023" stop-color="#E71800"/><stop offset=".027" stop-color="#E31C00"/><stop offset=".031" stop-color="#DF2000"/><stop offset=".035" stop-color="#DB2400"/><stop offset=".039" stop-color="#D72800"/><stop offset=".043" stop-color="#D32C00"/><stop offset=".047" stop-color="#CF3000"/><stop offset=".051" stop-color="#CB3400"/><stop offset=".055" stop-color="#C73800"/><stop offset=".059" stop-color="#C33C00"/><stop offset=".063" stop-color="#BF4000"/><stop offset=".066" stop-color="#B40"/><stop offset=".07" stop-color="#B74800"/><stop offset=".074" stop-color="#B34C00"/><stop offset=".078" stop-color="#AF5000"/><stop offset=".082" stop-color="#AB5400"/><stop offset=".086" stop-color="#A75800"/><stop offset=".09" stop-color="#A35C00"/><stop offset=".094" stop-color="#9F6000"/><stop offset=".098" stop-color="#9B6400"/><stop offset=".102" stop-color="#976800"/><stop offset=".105" stop-color="#936C00"/><stop offset=".109" stop-color="#8F7000"/><stop offset=".113" stop-color="#8B7400"/><stop offset=".117" stop-color="#877800"/><stop offset=".121" stop-color="#837C00"/><stop offset=".125" stop-color="#7F7F00"/><stop offset=".129" stop-color="#7C8300"/><stop offset=".133" stop-color="#788700"/><stop offset=".137" stop-color="#748B00"/><stop offset=".141" stop-color="#708F00"/><stop offset=".145" stop-color="#6C9300"/><stop offset=".148" stop-color="#689700"/><stop offset=".152" stop-color="#649B00"/><stop offset=".156" stop-color="#609F00"/><stop offset=".16" stop-color="#5CA300"/><stop offset=".164" stop-color="#58A700"/><stop offset=".168" stop-color="#54AB00"/><stop offset=".172" stop-color="#50AF00"/><stop offset=".176" stop-color="#4CB300"/><stop offset=".18" stop-color="#48B700"/><stop offset=".184" stop-color="#4B0"/><stop offset=".188" stop-color="#40BF00"/><stop offset=".191" stop-color="#3CC300"/><stop offset=".195" stop-color="#38C700"/><stop offset=".199" stop-color="#34CB00"/><stop offset=".203" stop-color="#30CF00"/><stop offset=".207" stop-color="#2CD300"/><stop offset=".211" stop-color="#28D700"/><stop offset=".215" stop-color="#24DB00"/><stop offset=".219" stop-color="#20DF00"/><stop offset=".223" stop-color="#1CE300"/><stop offset=".227" stop-color="#18E700"/><stop offset=".23" stop-color="#14EB00"/><stop offset=".234" stop-color="#10EF00"/><stop offset=".238" stop-color="#0CF300"/><stop offset=".242" stop-color="#08F700"/><stop offset=".246" stop-color="#04FB00"/><stop offset=".25" stop-color="#0F0"/><stop offset=".254" stop-color="#00FD02"/><stop offset=".258" stop-color="#00FB04"/><stop offset=".262" stop-color="#00F906"/><stop offset=".266" stop-color="#00F708"/><stop offset=".27" stop-color="#00F50A"/><stop offset=".273" stop-color="#00F30C"/><stop offset=".277" stop-color="#00F10E"/><stop offset=".281" stop-color="#00EF10"/><stop offset=".285" stop-color="#00ED12"/><stop offset=".289" stop-color="#00EB14"/><stop offset=".293" stop-color="#00E916"/><stop offset=".297" stop-color="#00E718"/><stop offset=".301" stop-color="#00E51A"/><stop offset=".305" stop-color="#00E31C"/><stop offset=".309" stop-color="#00E11E"/><stop offset=".313" stop-color="#00DF20"/><stop offset=".316" stop-color="#0D2"/><stop offset=".32" stop-color="#00DB24"/><stop offset=".324" stop-color="#00D926"/><stop offset=".328" stop-color="#00D728"/><stop offset=".332" stop-color="#00D52A"/><stop offset=".336" stop-color="#00D32C"/><stop offset=".34" stop-color="#00D12E"/><stop offset=".344" stop-color="#00CF30"/><stop offset=".348" stop-color="#00CD32"/><stop offset=".352" stop-color="#00CB34"/><stop offset=".355" stop-color="#00C936"/><stop offset=".359" stop-color="#00C738"/><stop offset=".363" stop-color="#00C53A"/><stop offset=".367" stop-color="#00C33C"/><stop offset=".371" stop-color="#00C13E"/><stop offset=".375" stop-color="#00BF40"/><stop offset=".379" stop-color="#00BD42"/><stop offset=".383" stop-color="#0B4"/><stop offset=".387" stop-color="#00B946"/><stop offset=".391" stop-color="#00B748"/><stop offset=".395" stop-color="#00B54A"/><stop offset=".398" stop-color="#00B34C"/><stop offset=".402" stop-color="#00B14E"/><stop offset=".406" stop-color="#00AF50"/><stop offset=".41" stop-color="#00AD52"/><stop offset=".414" stop-color="#00AB54"/><stop offset=".418" stop-color="#00A956"/><stop offset=".422" stop-color="#00A758"/><stop offset=".426" stop-color="#00A55A"/><stop offset=".43" stop-color="#00A35C"/><stop offset=".434" stop-color="#00A15E"/><stop offset=".438" stop-color="#009F60"/><stop offset=".441" stop-color="#009D62"/><stop offset=".445" stop-color="#009B64"/><stop offset=".449" stop-color="#096"/><stop offset=".453" stop-color="#009768"/><stop offset=".457" stop-color="#00956A"/><stop offset=".461" stop-color="#00936C"/><stop offset=".465" stop-color="#00916E"/><stop offset=".469" stop-color="#008F70"/><stop offset=".473" stop-color="#008D72"/><stop offset=".477" stop-color="#008B74"/><stop offset=".48" stop-color="#008976"/><stop offset=".484" stop-color="#008778"/><stop offset=".488" stop-color="#00857A"/><stop offset=".492" stop-color="#00837C"/><stop offset=".496" stop-color="#00817E"/><stop offset=".5" stop-color="#007F7F"/><stop offset=".504" stop-color="#007E81"/><stop offset=".508" stop-color="#007C83"/><stop offset=".512" stop-color="#007A85"/><stop offset=".516" stop-color="#007887"/><stop offset=".52" stop-color="#007689"/><stop offset=".523" stop-color="#00748B"/><stop offset=".527" stop-color="#00728D"/><stop offset=".531" stop-color="#00708F"/><stop offset=".535" stop-color="#006E91"/><stop offset=".539" stop-color="#006C93"/><stop offset=".543" stop-color="#006A95"/><stop offset=".547" stop-color="#006897"/><stop offset=".551" stop-color="#069"/><stop offset=".555" stop-color="#00649B"/><stop offset=".559" stop-color="#00629D"/><stop offset=".563" stop-color="#00609F"/><stop offset=".566" stop-color="#005EA1"/><stop offset=".57" stop-color="#005CA3"/><stop offset=".574" stop-color="#005AA5"/><stop offset=".578" stop-color="#0058A7"/><stop offset=".582" stop-color="#0056A9"/><stop offset=".586" stop-color="#0054AB"/><stop offset=".59" stop-color="#0052AD"/><stop offset=".594" stop-color="#0050AF"/><stop offset=".598" stop-color="#004EB1"/><stop offset=".602" stop-color="#004CB3"/><stop offset=".605" stop-color="#004AB5"/><stop offset=".609" stop-color="#0048B7"/><stop offset=".613" stop-color="#0046B9"/><stop offset=".617" stop-color="#04B"/><stop offset=".621" stop-color="#0042BD"/><stop offset=".625" stop-color="#0040BF"/><stop offset=".629" stop-color="#003EC1"/><stop offset=".633" stop-color="#003CC3"/><stop offset=".637" stop-color="#003AC5"/><stop offset=".641" stop-color="#0038C7"/><stop offset=".645" stop-color="#0036C9"/><stop offset=".648" stop-color="#0034CB"/><stop offset=".652" stop-color="#0032CD"/><stop offset=".656" stop-color="#0030CF"/><stop offset=".66" stop-color="#002ED1"/><stop offset=".664" stop-color="#002CD3"/><stop offset=".668" stop-color="#002AD5"/><stop offset=".672" stop-color="#0028D7"/><stop offset=".676" stop-color="#0026D9"/><stop offset=".68" stop-color="#0024DB"/><stop offset=".684" stop-color="#02D"/><stop offset=".688" stop-color="#0020DF"/><stop offset=".691" stop-color="#001EE1"/><stop offset=".695" stop-color="#001CE3"/><stop offset=".699" stop-color="#001AE5"/><stop offset=".703" stop-color="#0018E7"/><stop offset=".707" stop-color="#0016E9"/><stop offset=".711" stop-color="#0014EB"/><stop offset=".715" stop-color="#0012ED"/><stop offset=".719" stop-color="#0010EF"/><stop offset=".723" stop-color="#000EF1"/><stop offset=".727" stop-color="#000CF3"/><stop offset=".73" stop-color="#000AF5"/><stop offset=".734" stop-color="#0008F7"/><stop offset=".738" stop-color="#0006F9"/><stop offset=".742" stop-color="#0004FB"/><stop offset=".746" stop-color="#0002FD"/><stop offset=".75" stop-color="#00F"/><stop offset=".754" stop-color="#0000FB"/><stop offset=".758" stop-color="#0000F7"/><stop offset=".762" stop-color="#0000F3"/><stop offset=".766" stop-color="#0000EF"/><stop offset=".77" stop-color="#0000EB"/><stop offset=".773" stop-color="#0000E7"/><stop offset=".777" stop-color="#0000E3"/><stop offset=".781" stop-color="#0000DF"/><stop offset=".785" stop-color="#0000DB"/><stop offset=".789" stop-color="#0000D7"/><stop offset=".793" stop-color="#0000D3"/><stop offset=".797" stop-color="#0000CF"/><stop offset=".801" stop-color="#0000CB"/><stop offset=".805" stop-color="#0000C7"/><stop offset=".809" stop-color="#0000C3"/><stop offset=".813" stop-color="#0000BF"/><stop offset=".816" stop-color="#00B"/><stop offset=".82" stop-color="#0000B7"/><stop offset=".824" stop-color="#0000B3"/><stop offset=".828" stop-color="#0000AF"/><stop offset=".832" stop-color="#0000AB"/><stop offset=".836" stop-color="#0000A7"/><stop offset=".84" stop-color="#0000A3"/><stop offset=".844" stop-color="#00009F"/><stop offset=".848" stop-color="#00009B"/><stop offset=".852" stop-color="#000097"/><stop offset=".855" stop-color="#000093"/><stop offset=".859" stop-color="#00008F"/><stop offset=".863" stop-color="#00008B"/><stop offset=".867" stop-color="#000087"/><stop offset=".871" stop-color="#000083"/><stop offset=".875" stop-color="navy"/><stop offset=".879" stop-color="#00007C"/><stop offset=".883" stop-color="#000078"/><stop offset=".887" stop-color="#000074"/><stop offset=".891" stop-color="#000070"/><stop offset=".895" stop-color="#00006C"/><stop offset=".898" stop-color="#000068"/><stop offset=".902" stop-color="#000064"/><stop offset=".906" stop-color="#000060"/><stop offset=".91" stop-color="#00005C"/><stop offset=".914" stop-color="#000058"/><stop offset=".918" stop-color="#000054"/><stop offset=".922" stop-color="#000050"/><stop offset=".926" stop-color="#00004C"/><stop offset=".93" stop-color="#000048"/><stop offset=".934" stop-color="#004"/><stop offset=".938" stop-color="#000040"/><stop offset=".941" stop-color="#00003C"/><stop offset=".945" stop-color="#000038"/><stop offset=".949" stop-color="#000034"/><stop offset=".953" stop-color="#000030"/><stop offset=".957" stop-color="#00002C"/><stop offset=".961" stop-color="#000028"/><stop offset=".965" stop-color="#000024"/><stop offset=".969" stop-color="#000020"/><stop offset=".973" stop-color="#00001C"/><stop offset=".977" stop-color="#000018"/><stop offset=".98" stop-color="#000014"/><stop offset=".984" stop-color="#000010"/><stop offset=".988" stop-color="#00000C"/><stop offset=".992" stop-color="#000008"/><stop offset=".996" stop-color="#000004"/><stop offset="1"/></linearGradient><clipPath id="a"><path d="M3.078 1h100v99.723h-100Zm0 0"/></clipPath><clipPath id="o"><path d="M144.813 1h100v99.723h-100Zm0 0"/></clipPath><clipPath id="s"><path d="M286.543 1h100v99.723h-100Zm0 0"/></clipPath></defs><g clip-path="url(#a)"><path fill="url(#b)" d="M3.078 100.723v-100h100v100Zm0 0"/></g><path fill="none" stroke="#FFF" stroke-miterlimit="10" stroke-width=".797" d="M28.078 75.723v-50h50v50Zm0 0"/><use xlink:href="#c" x=".537" y="111.216"/><use xlink:href="#d" x="6.903" y="111.216"/><use xlink:href="#e" x="11.625" y="111.216"/><use xlink:href="#f" x="16.148" y="111.216"/><use xlink:href="#f" x="24.417" y="111.216"/><use xlink:href="#g" x="28.552" y="111.216"/><use xlink:href="#h" x="36.512" y="111.216"/><use xlink:href="#i" x="46.056" y="111.216"/><use xlink:href="#j" x="51.625" y="111.216"/><use xlink:href="#j" x="57.992" y="111.216"/><use xlink:href="#k" x="64.358" y="111.216"/><use xlink:href="#l" x="67.536" y="111.216"/><use xlink:href="#m" x="70.714" y="111.216"/><use xlink:href="#i" x="75.805" y="111.216"/><use xlink:href="#f" x="81.374" y="111.216"/><use xlink:href="#l" x="85.827" y="111.216"/><use xlink:href="#h" x="89.005" y="111.216"/><use xlink:href="#n" x="94.734" y="111.216"/><use xlink:href="#e" x="101.1" y="111.216"/><g clip-path="url(#o)"><path fill="url(#p)" d="M144.813 100.723v-100h100v100Zm0 0"/></g><path fill="none" stroke="#FFF" stroke-miterlimit="10" stroke-width=".797" d="m194.813 86.078-35.356-35.355 35.356-35.356 35.355 35.356Zm0 0"/><use xlink:href="#f" x="152.839" y="111.156"/><use xlink:href="#q" x="157.292" y="111.156"/><use xlink:href="#l" x="163.658" y="111.156"/><use xlink:href="#d" x="166.837" y="111.156"/><use xlink:href="#r" x="171.559" y="111.156"/><use xlink:href="#i" x="181.741" y="111.156"/><use xlink:href="#j" x="187.31" y="111.156"/><use xlink:href="#j" x="193.676" y="111.156"/><use xlink:href="#k" x="200.042" y="111.156"/><use xlink:href="#l" x="203.22" y="111.156"/><use xlink:href="#m" x="206.398" y="111.156"/><use xlink:href="#i" x="211.489" y="111.156"/><use xlink:href="#f" x="217.058" y="111.156"/><use xlink:href="#l" x="221.511" y="111.156"/><use xlink:href="#h" x="224.69" y="111.156"/><use xlink:href="#n" x="230.418" y="111.156"/><g clip-path="url(#s)"><path fill="url(#t)" d="M286.543 100.723v-100h100v100Zm0 0"/></g><path fill="none" stroke="#FFF" stroke-miterlimit="10" stroke-width=".797" d="M361.547 50.723c0-13.809-11.192-25-25-25-13.805 0-25 11.191-25 25s11.195 25 25 25c13.808 0 25-11.192 25-25Zm0 0"/><use xlink:href="#u" x="291.548" y="111.216"/><use xlink:href="#h" x="295.045" y="111.216"/><use xlink:href="#v" x="300.773" y="111.216"/><use xlink:href="#d" x="307.14" y="111.216"/><use xlink:href="#f" x="311.862" y="111.216"/><use xlink:href="#q" x="316.315" y="111.216"/><use xlink:href="#i" x="326.497" y="111.216"/><use xlink:href="#j" x="332.066" y="111.216"/><use xlink:href="#j" x="338.432" y="111.216"/><use xlink:href="#k" x="344.798" y="111.216"/><use xlink:href="#l" x="347.976" y="111.216"/><use xlink:href="#m" x="351.154" y="111.216"/><use xlink:href="#i" x="356.245" y="111.216"/><use xlink:href="#f" x="361.815" y="111.216"/><use xlink:href="#l" x="366.268" y="111.216"/><use xlink:href="#h" x="369.446" y="111.216"/><use xlink:href="#n" x="375.174" y="111.216"/></svg>