<svg xmlns="http://www.w3.org/2000/svg" xmlns:xlink="http://www.w3.org/1999/xlink" width="108.92" height="75.314"><defs><path id="a" d="M5.281-3.187c0-.954-.015-3.344-2.422-3.344S.453-4.156.453-3.188c0 1 0 3.297 2.406 3.297 2.391 0 2.422-2.296 2.422-3.296M4-3.297c0 .563 0 1.469-.078 1.985-.14.921-.766 1.062-1.063 1.062-.359 0-.921-.219-1.046-.953-.094-.516-.094-1.547-.094-2.094 0-.719 0-1.375.078-1.89.125-.891.828-.985 1.062-.985.375 0 .782.188.97.625C4-5.172 4-4.109 4-3.297m0 0"/><path id="b" d="M4.922 0v-.469h-1.39v-5.734c0-.234 0-.328-.266-.328-.11 0-.125 0-.22.078-.765.562-1.796.562-2 .562H.845v.47h.203c.156 0 .703-.016 1.297-.204v5.156H.954V0c.437-.031 1.5-.031 1.984-.031s1.546 0 1.984.031m0 0"/><clipPath id="c"><path d="M99 37h9.879v1H99Zm0 0"/></clipPath></defs><use xlink:href="#a" x=".509" y="7.2"/><path fill="none" stroke="#000" stroke-miterlimit="10" stroke-width=".399" d="M42.676 10.828a8.717 8.717 0 1 1 0 17.434H29.602V10.828Zm0 0"/><use xlink:href="#a" x=".509" y="40.587"/><path fill="none" stroke="#000" stroke-miterlimit="10" stroke-width=".399" d="M84.04 28.66a17.43 17.43 0 0 1 15.097 8.719 17.43 17.43 0 0 1-15.098 8.719H75.32a17.5 17.5 0 0 0 2.336-8.72 17.5 17.5 0 0 0-2.336-8.718ZM42.676 46.496a8.717 8.717 0 1 1 0 17.434H29.602V46.496Zm12.402 8.715a1.741 1.741 0 1 0-3.484 0 1.742 1.742 0 1 0 3.484 0Zm0 0"/><use xlink:href="#b" x=".509" y="73.975"/><path fill="none" stroke="#000" stroke-miterlimit="10" stroke-width=".399" d="M9.758 3.992h8.504v12.649h11.136M9.758 37.379h8.504V22.453h11.136M9.758 37.379h8.504v14.93h11.136M9.758 70.715h8.504V58.117h11.136M51.594 19.547h8.504v14.926H77.21M55.277 55.215h8.504v-14.93h13.43"/><g clip-path="url(#c)"><path fill="none" stroke="#000" stroke-miterlimit="10" stroke-width=".399" d="M99.367 37.379h8.504"/></g></svg>