<svg xmlns="http://www.w3.org/2000/svg" xmlns:xlink="http://www.w3.org/1999/xlink" width="116.609" height="116.606"><defs><path id="b" d="M6.719-2.39c0-1.126-.75-2.204-2.047-2.5l-1.64-.376c-1.173-.25-1.22-1.125-1.22-1.28 0-.61.407-1.313 1.563-1.313s2.188.562 2.453 2.125c.031.25.031.265.25.265.25 0 .25-.047.25-.312v-2.25c0-.235 0-.313-.172-.313-.078 0-.125.016-.234.125l-.5.594c-.313-.25-.906-.719-2.063-.719-1.703 0-2.625 1.078-2.625 2.375 0 .813.438 1.36.61 1.532.61.625.953.703 2.187.968 1.203.266 1.344.297 1.61.547.156.156.5.485.5 1.094 0 .516-.25 1.453-1.594 1.453C3-.375 1.344-.735 1.25-2.469c-.016-.219-.016-.25-.266-.25s-.25.031-.25.297v2.25c0 .235 0 .313.188.313.078 0 .094-.016.219-.11.125-.14.234-.297.53-.593.688.546 1.673.703 2.391.703 1.86 0 2.657-1.266 2.657-2.532m0 0"/><path id="c" d="M6.328-2.625c0-1.61-1.094-2.797-2.969-2.797-1.953 0-2.984 1.25-2.984 2.797C.375-1.047 1.469.078 3.344.078c1.953 0 2.984-1.187 2.984-2.703m-1.422-.11c0 .985 0 2.376-1.547 2.376S1.813-1.75 1.813-2.734c0-.563 0-1.157.218-1.594.266-.484.797-.688 1.313-.688.687 0 1.11.313 1.312.657.25.422.25 1.047.25 1.625m0 0"/><path id="d" d="M10.906 0v-.516h-.812v-3.14c0-1.094-.469-1.719-1.813-1.719-1.203 0-1.765.813-1.953 1.188-.203-1.016-1.016-1.188-1.781-1.188-1.14 0-1.766.734-2.016 1.313h-.015v-1.313L.5-5.281v.515c.75 0 .828 0 .828.47v3.78H.5V0c.281-.031 1.14-.031 1.469-.031.343 0 1.203 0 1.484.031v-.516h-.828v-2.546c0-1.297.969-1.922 1.719-1.922.453 0 .718.265.718 1.187v3.281h-.828V0C4.5-.031 5.36-.031 5.704-.031c.327 0 1.202 0 1.484.031v-.516h-.829v-2.546c0-1.297.97-1.922 1.72-1.922.437 0 .702.265.702 1.187v3.281h-.828V0c.281-.031 1.14-.031 1.484-.031.329 0 1.204 0 1.47.031m0 0"/><path id="e" d="M5.75-1.406c0-.172-.187-.172-.25-.172-.187 0-.203.031-.281.187-.313.782-1.094 1.032-1.672 1.032-1.735 0-1.735-1.61-1.735-2.282h3.594c.266 0 .344 0 .344-.296 0-.36-.078-1.266-.64-1.813-.5-.516-1.173-.672-1.86-.672-1.86 0-2.875 1.219-2.875 2.734C.375-1.016 1.609.079 3.406.079 5.22.078 5.75-1.187 5.75-1.406M4.656-2.984H1.813c.015-.5.03-.953.28-1.391a1.32 1.32 0 0 1 1.157-.64c1.281 0 1.39 1.437 1.406 2.03m0 0"/><path id="f" d="M5.594-1.406c0-.14-.125-.14-.25-.14-.188 0-.203.015-.266.155-.078.235-.406 1.032-1.5 1.032-1.687 0-1.687-1.813-1.687-2.36 0-.703.015-2.265 1.578-2.265.078 0 .781.03.781.078 0 0 0 .031-.031.047a.73.73 0 0 0-.188.515c0 .5.407.703.703.703.25 0 .704-.156.704-.718 0-.985-1.375-1.063-2.016-1.063-2.125 0-2.969 1.39-2.969 2.766 0 1.625 1.14 2.734 2.89 2.734 1.876 0 2.25-1.39 2.25-1.484m0 0"/><path id="g" d="M7.172 0v-.516h-.828v-3.14c0-1.14-.485-1.719-1.797-1.719-.86 0-1.61.422-2.016 1.313h-.015v-1.313L.5-5.281v.515c.75 0 .828 0 .828.47v3.78H.5V0c.281-.031 1.14-.031 1.469-.031.343 0 1.203 0 1.484.031v-.516h-.828v-2.546c0-1.282.953-1.922 1.719-1.922.453 0 .703.28.703 1.187v3.281h-.828V0c.281-.031 1.14-.031 1.468-.031.344 0 1.204 0 1.485.031m0 0"/><path id="h" d="M7-2.672c0-1.64-1.11-2.703-2.719-2.703-.703 0-1.312.234-1.797.625v-.625l-2.062.094v.515c.734 0 .828 0 .828.47v6.109H.422v.5c.266-.016 1.125-.016 1.469-.016.328 0 1.203 0 1.484.015v-.5h-.828V-.483c.297.25.828.562 1.547.562C5.719.078 7-.922 7-2.672m-1.437 0c0 1.735-.86 2.344-1.625 2.344-.5 0-1.016-.25-1.391-.813v-3.046a2 2 0 0 1 1.547-.766c.765 0 1.468.703 1.468 2.281m0 0"/><path id="i" d="M4.469-1.484v-.625h-.5v.609c0 .797-.36 1.14-.735 1.14-.718 0-.718-.796-.718-1.078v-3.359H4.25v-.516H2.516v-2.28h-.5c0 1.187-.578 2.374-1.766 2.406v.39h.969v3.328c0 1.266.984 1.547 1.844 1.547.874 0 1.406-.672 1.406-1.562m0 0"/><clipPath id="a"><path d="M0 0h116.414v116.41H0Zm0 0"/></clipPath></defs><path fill="#FF7F7F" d="M114.809 58.113c0-31.312-25.383-56.695-56.696-56.695S1.418 26.801 1.418 58.113c0 31.309 25.383 56.692 56.695 56.692s56.696-25.383 56.696-56.692m0 0"/><g clip-path="url(#a)"><path fill="none" stroke="#FF7F7F" stroke-miterlimit="10" stroke-width="1.196" d="M114.809 58.113c0-31.312-25.383-56.695-56.696-56.695S1.418 26.801 1.418 58.113c0 31.309 25.383 56.692 56.695 56.692s56.696-25.383 56.696-56.692Zm0 0"/></g><use xlink:href="#b" x="17.846" y="61.124"/><use xlink:href="#c" x="25.318" y="61.124"/><use xlink:href="#d" x="32.049" y="61.124"/><use xlink:href="#e" x="43.263" y="61.124"/><use xlink:href="#f" x="53.377" y="61.124"/><use xlink:href="#c" x="59.355" y="61.124"/><use xlink:href="#g" x="66.086" y="61.124"/><use xlink:href="#f" x="73.558" y="61.124"/><use xlink:href="#e" x="79.535" y="61.124"/><use xlink:href="#h" x="85.668" y="61.124"/><use xlink:href="#i" x="93.14" y="61.124"/></svg>