<svg xmlns="http://www.w3.org/2000/svg" xmlns:xlink="http://www.w3.org/1999/xlink" width="71.606" height="44.642"><defs><clipPath id="b"><path d="M44 2h27.41v32H44Zm0 0"/></clipPath><clipPath id="d"><path d="M43 18h28.41v26.465H43Zm0 0"/></clipPath><clipPath id="e"><path d="M41 18h28v26.465H41Zm0 0"/></clipPath><path id="a" d="M8.25 0v-.469h-.969L4.72-6.703c-.11-.25-.219-.25-.39-.25-.282 0-.329.078-.391.25l-2.47 6c-.062.156-.093.234-.843.234H.406V0l1.172-.031c.39 0 .938 0 1.313.031v-.469S2-.469 2-.594l.047-.125.5-1.203h2.672l.593 1.453H4.86V0c.391-.031 1.329-.031 1.766-.031.39 0 1.266 0 1.625.031M5.016-2.39H2.734l1.141-2.766Zm0 0"/><path id="c" d="M7.5-1.86c0-.952-.844-1.624-2.031-1.702 1.078-.204 1.718-.797 1.718-1.563 0-.922-.875-1.719-2.468-1.719H.39v.469h1.078v5.906H.39V0h4.625C6.672 0 7.5-.875 7.5-1.86M5.766-5.124c0 .766-.47 1.39-1.438 1.39H2.766v-2.64h1.812c1.016 0 1.188.797 1.188 1.25m.28 3.266c0 .109 0 1.39-1.437 1.39H2.766v-2.906h1.937c.203 0 .672 0 1.016.422.328.422.328.984.328 1.094m0 0"/></defs><path fill="none" stroke="#000" stroke-miterlimit="10" stroke-width=".399" d="M21.418 18.094c0-5.633-4.566-10.2-10.2-10.2-5.632 0-10.198 4.567-10.198 10.2s4.566 10.199 10.199 10.199 10.199-4.566 10.199-10.2Zm0 0"/><use xlink:href="#a" x="6.891" y="21.569"/><g clip-path="url(#b)"><path fill="none" stroke="#000" stroke-miterlimit="10" stroke-width=".399" d="M70.195 18.094c0-5.535-4.484-10.02-10.015-10.02s-10.016 4.485-10.016 10.02c0 5.531 4.484 10.015 10.016 10.015 5.53 0 10.015-4.484 10.015-10.015Zm0 0"/></g><use xlink:href="#c" x="56.105" y="21.509"/><path fill="none" stroke="#00F" stroke-miterlimit="10" stroke-width=".797" d="M19.98 9.445C27.996 2.63 39.324 1.844 48.102 7.07"/><path fill="none" stroke="#00F" stroke-linecap="round" stroke-linejoin="round" stroke-miterlimit="10" stroke-width=".79694421" d="M23.656 10.293c-1.601-1.07-2.96-1.023-3.98-.59.531-.973.707-2.324-.2-4.02"/><path fill="#7F7FFF" d="M45.563 5.754c-.79-.582-4.504-3.082-7.051-4.934q-.306 2.976-.614 5.946c2.516-1.055 6.704-1.16 7.664-1.012m0 0"/><path fill="none" stroke="#00F" stroke-miterlimit="10" stroke-width=".797" d="M51.3 9.344a37.4 37.4 0 0 0-3.66-4.918c.243.918.458 1.832.633 2.75-.87.297-1.714.62-2.53.984 1.82.215 3.687.613 5.558 1.184Zm0 0"/><g clip-path="url(#d)"><path fill="none" stroke="#00F" stroke-miterlimit="10" stroke-width=".797" d="M64.277 29.512c4.91 16.527-10.53 17.93-9.062 4.199"/></g><path fill="none" stroke="#00F" stroke-linecap="round" stroke-linejoin="round" stroke-miterlimit="10" stroke-width=".79697609" d="M61.996 32.512c1.629-1.02 2.145-2.282 2.164-3.387.672.879 1.832 1.594 3.75 1.457"/><path fill="#7F7FFF" d="M55.129 36.102c-.184.734-.8 3.933-1.223 6.277q2.52-1.61 5.04-3.215c-1.72-.242-3.54-2.375-3.817-3.062m0 0"/><g clip-path="url(#e)"><path fill="none" stroke="#00F" stroke-miterlimit="10" stroke-width=".797" d="M55.988 29.844c-1.133 1.676-2.136 3.496-2.96 5.215.718-.516 1.452-1.024 2.206-1.54a14.4 14.4 0 0 0 1.977 1.645c-.59-1.496-.988-3.363-1.223-5.32Zm0 0"/></g></svg>