<svg xmlns="http://www.w3.org/2000/svg" xmlns:xlink="http://www.w3.org/1999/xlink" width="125.608" height="172.154"><defs><path id="a" d="M4.922 0v-.469h-1.39v-5.734c0-.234 0-.328-.266-.328-.11 0-.125 0-.22.078-.765.562-1.796.562-2 .562H.845v.47h.203c.156 0 .703-.016 1.297-.204v5.156H.954V0c.437-.031 1.5-.031 1.984-.031s1.546 0 1.984.031m0 0"/><path id="b" d="M5.156-2.219h-.468c-.032.203-.125.844-.266.906-.11.063-.86.063-1.016.063H1.937c.47-.39 1-.812 1.438-1.14 1.14-.844 1.781-1.313 1.781-2.25 0-1.157-1.047-1.891-2.437-1.891-1.219 0-2.156.625-2.156 1.515 0 .594.484.735.718.735C1.61-4.281 2-4.5 2-5c0-.516-.422-.672-.562-.719.28-.234.671-.343 1.03-.343.845 0 1.313.671 1.313 1.421 0 .688-.375 1.375-1.078 2.079l-2 2.046c-.14.11-.14.141-.14.344V0h4.28Zm0 0"/><path id="c" d="M4.984 2.453c.391-.39.782-1.219-.015-2.453.625.344 1.547.453 2.156-.156.531-.531.453-1.516-.547-2.516-.844-.844-1.844-.937-2.406-.375-.313.313-.281.719-.016.985.328.328.735.265.985.015.406-.406.093-.875.093-.906.422.047.797.297 1.016.515.594.594.156 1.063-.078 1.297-.094.094-1.016 1.016-1.797.329-.312-.282-.328-.297-.36-.329-.077-.046-.171-.015-.218.032-.125.125-.047.203.078.328l.313.312c.765.766.078 1.453-.297 1.828-.328.329-1.047 1.047-1.766.329-.187-.188-.531-.594-.656-1.157.297.172.656.188.953-.11a.73.73 0 0 0 0-1.062c-.313-.312-.735-.359-1.094 0-.64.641-.375 1.75.531 2.657 1.25 1.25 2.485 1.078 3.125.437m0 0"/><path id="p" d="m3.484 3.484.329-.328-.985-.984 4.063-4.063c.156-.156.234-.234.046-.421-.078-.079-.093-.094-.218-.094-.938-.156-1.657-.875-1.813-1.031l-.14-.141-.344.344.14.14c.11.11.516.485 1.079.766L1.984 1.328 1 .344.672.672a58 58 0 0 1 1.422 1.39 58 58 0 0 1 1.39 1.422m0 0"/><path id="q" d="m5.203 2.078-.328-.328c-.156.125-.687.5-.828.453-.11-.047-.64-.578-.75-.687L2.266.484c.593.063 1.265.141 1.812.22 1.39.202 2.188.312 2.844-.345.812-.812.61-2.078-.375-3.062-.86-.86-1.984-1.078-2.61-.453-.421.422-.171.86 0 1.031.235.234.672.36 1.016.016.375-.375.172-.797.11-.922.359.047.703.234.968.5.594.594.453 1.39-.078 1.922C5.47-.125 4.72.094 3.72.094L.859.14C.672.109.656.125.516.266L.39.39l3.03 3.03Zm0 0"/><path id="d" d="m-3.828 3.828.328.328.688-.687.78.781-.687.688.328.328.688-.688L1.25 7.531c.188.188.25.219.453.016.156-.156.156-.156.11-.36l-.594-5.53-.328-.329-2.032 2.031-.78-.78.78-.782-.328-.328c-.25.281-.89.922-1.187 1.219-.297.296-.89.89-1.172 1.14m2.937-.062L.844 2.03l.437 3.907Zm0 0"/><path id="u" d="m-3.484 3.484.328.329.984-.985 4.063 4.063c.156.156.234.234.422.046.078-.078.093-.093.093-.218.156-.938.875-1.657 1.031-1.813l.141-.14-.344-.344-.14.14c-.11.11-.485.516-.766 1.079l-3.656-3.657L-.344 1-.672.672C-.969 1-1.719 1.75-2.062 2.094c-.344.344-1.094 1.094-1.422 1.39m0 0"/><path id="e" d="M-5.062-2.219c-.813.813-.907 2.031.125 3.063.203.203.609.547 1.156.656l-.922.922c-.172-.235-.234-.328-.453-.547-1.032-1.031-2.485-.89-2.657-.719-.062.063-.125.157-.03.25.015.016.015.016.14.047.547.266.969.594 1.266.89.53.532.765 1.048.906 1.282.031.094.015.11.047.14.093.094.172.016.28-.093l2.079-2.078c.11-.11.203-.203.047-.36-.078-.078-.125-.093-.235-.078-.593.063-1.03-.25-1.328-.547-.625-.625-.015-1.234.547-1.796.532-.532 1.235-1.235 2.078-.391.172.172.563.656.47 1.344-.266-.235-.641-.266-.938.03-.375.376-.157.782 0 .938.109.11.547.422.984-.015.594-.594.625-1.75-.25-2.625-1.125-1.125-2.437-1.188-3.312-.313m0 0"/><path id="i" d="M-5.031-2.406c-.766.765-.485 1.703-.344 2.25-.75-.25-1.281-.156-1.687.25-.72.719-.407 1.687.406 2.5.968.969 2.031.906 2.718.219.297-.297.61-.891.391-1.735.828.328 1.547.234 2.063-.281.859-.86.453-1.985-.453-2.89-1.125-1.126-2.329-1.079-3.094-.313M-6.516.609c.344-.343.75-.375 1.266-.296l.469 1.656c.047.172.125.5-.11.734-.5.5-1.171-.078-1.468-.375-.578-.578-.657-1.219-.157-1.719m2.485-2.796c.578-.579 1.375-.032 1.781.374.688.688.734 1.454.172 2.016-.531.531-1.219.469-1.61.36l-.437-1.5c-.14-.485-.25-.907.094-1.25m0 0"/><path id="f" d="M2.266-5.172c-.985-.984-2.22-.781-3.078.078-.157.157-.547.547-.297 1.39l-.141-.14c-.797-.797-.937-1.25-1.016-1.39a1.61 1.61 0 0 1 .391-1.578c.125-.125.406-.344.719-.344-.219.281-.157.593.062.812.235.235.594.282.875 0s.25-.625-.015-.89c-.438-.438-1.188-.594-1.922.14-.969.969-1.516 2.735.265 4.516.563.562 1.172 1.078 1.97 1.25.859.203 1.562-.156 2.062-.656.968-.97 1.078-2.235.125-3.188m-.97.969C2-3.5 2.532-2.97 1.814-2.25c-.36.36-.829.266-1.016.203-.328-.11-.828-.61-.969-.75-.875-.875-.844-1.594-.453-1.984.672-.672 1.203-.14 1.922.578m0 0"/><path id="o" d="m3.484-3.484-.328-.328-.984.984-4.063-4.063c-.156-.156-.234-.234-.421-.046-.079.078-.094.093-.094.218-.156.938-.875 1.657-1.031 1.813l-.141.14.344.344.14-.14c.11-.11.485-.516.766-1.079l3.656 3.657L.344-1l.328.328C.969-1 1.719-1.75 2.062-2.094c.344-.344 1.094-1.094 1.422-1.39m0 0"/><path id="g" d="M6.422 5.563V3.53c0-.234.047-1.703.094-1.844.03-.203.125-.218.218-.234V.984L4.204.641v.468c.765.094.89.22.905.266.063.11.063.922.063 1.094V4.14c-.219-.172-.422-.36-.64-.547C3.405 2.64 2.061 1.922.593 1.922c-.703 0-.703.562-.703.625 0 .156.047.625.703.625h.469c.468 0 .953.031 1.421.094.672.093 1.25.297 1.657.656l1.797 1.547c.109.093.14.093.484.093m0 0"/><path id="k" d="M-5.25 3.281c0 .672 0 3.25 2.375 3.25 1.406 0 2.39-.812 2.39-2.14 0-1.375-.984-2.125-2.202-2.125-.36 0-.829.062-1.204.765v-.219c0-.734.094-1.312.235-1.656.172-.39.61-.843 1.297-.843.172 0 .53.03.828.218-.11.031-.485.172-.485.625 0 .344.235.625.625.625.391 0 .625-.265.625-.64 0-.688-.515-1.25-1.609-1.25-1.297 0-2.875.843-2.875 3.39m1.375.985c0-.625.25-1.641 1.094-1.641.953 0 .953.75.953 1.734 0 .985 0 1.782-1.078 1.782-.578 0-.813-.532-.86-.625-.109-.328-.109-.907-.109-1.25m0 0"/><path id="l" d="M-4.922 0v.469h1.39v5.734c0 .234 0 .328.266.328.11 0 .125 0 .22-.078.765-.562 1.796-.562 2-.562h.202v-.47h-.203c-.156 0-.703.016-1.297.204V.469h1.39V0c-.437.031-1.5.031-1.983.031-.485 0-1.547 0-1.985-.031m0 0"/><path id="m" d="M-5.281 3.188c0 .953.015 3.343 2.422 3.343S-.453 4.156-.453 3.188c0-1 0-3.297-2.406-3.297-2.391 0-2.422 2.297-2.422 3.297M-4 3.297c0-.563 0-1.469.078-1.985C-3.782.391-3.156.25-2.859.25c.359 0 .922.219 1.047.953.093.516.093 1.547.093 2.094 0 .719 0 1.375-.078 1.89-.125.891-.828.985-1.062.985-.375 0-.782-.188-.97-.625C-4 5.172-4 4.109-4 3.297m0 0"/><path id="s" d="M0-4.922h-.469v1.39h-5.734c-.234 0-.328 0-.328.266 0 .11 0 .125.078.22.562.765.562 1.796.562 2v.202h.47v-.203c0-.156-.016-.703-.204-1.297h5.156v1.39H0c-.031-.437-.031-1.5-.031-1.983 0-.485 0-1.547.031-1.985m0 0"/><path id="t" d="M-1.797-5.25c-.547 0-1.406.297-1.719 1.734-.203-.687-.765-1.406-1.625-1.406-.765 0-1.39.75-1.39 2.156 0 1.188.64 1.97 1.437 1.97a.68.68 0 0 0 .703-.688.67.67 0 0 0-.687-.703c-.578 0-.688.546-.703.578-.282-.344-.36-.782-.36-1.094 0-.828.641-.86.97-.86.124 0 1.437.016 1.5 1.047.015.407.015.438.03.485.016.094.11.125.172.125.172 0 .172-.11.172-.282v-.437c0-1.094.985-1.094 1.5-1.094.469 0 1.485 0 1.485 1.031 0 .266-.047.782-.344 1.266C-.75-1.75-1-2-1.406-2c-.453 0-.75.313-.75.75 0 .422.265.766.765.766.907 0 1.5-.97 1.5-2.25 0-1.782-1-2.516-1.906-2.516m0 0"/><clipPath id="h"><path d="M106 70h19.41v25H106Zm0 0"/></clipPath><clipPath id="j"><path d="M106 41h19.41v24H106Zm0 0"/></clipPath><clipPath id="n"><path d="M36 152h24v19.73H36Zm0 0"/></clipPath><clipPath id="r"><path d="M65 152h24v19.73H65Zm0 0"/></clipPath></defs><use xlink:href="#a" x="59.748" y="71.128"/><use xlink:href="#b" x="59.748" y="30.068"/><path fill="none" stroke="#7F7F7F" stroke-miterlimit="10" stroke-width=".199" d="M54.11 6.273h17.007"/><path fill="none" stroke="#000" stroke-miterlimit="10" stroke-width=".399" d="m54.11 6.273 8.503-3.402 8.504 3.402"/><use xlink:href="#c" x="76.307" y="9.059"/><path fill="none" stroke="#7F7F7F" stroke-miterlimit="10" stroke-width=".199" d="m87.543 1.871-4.398 16.43"/><path fill="none" stroke="#000" stroke-miterlimit="10" stroke-width=".399" d="m87.543 1.871 1.086 9.094-5.484 7.336"/><path fill="none" stroke="#7F7F7F" stroke-miterlimit="10" stroke-width=".199" d="M83.145 18.3 71.117 6.274M71.117 6.273l16.426-4.402"/><path fill="none" stroke="#000" stroke-miterlimit="10" stroke-width=".399" d="M71.117 6.273 78.45.79l9.094 1.082M83.145 18.3V35.31"/><use xlink:href="#d" x="80.316" y="40.458"/><path fill="none" stroke="#7F7F7F" stroke-miterlimit="10" stroke-width=".199" d="m87.543 51.738-16.426-4.402"/><path fill="none" stroke="#000" stroke-miterlimit="10" stroke-width=".399" d="m87.543 51.738-9.094 1.082-7.332-5.484"/><path fill="none" stroke="#7F7F7F" stroke-miterlimit="10" stroke-width=".199" d="m71.117 47.336 12.028-12.027M83.145 35.309l4.398 16.43"/><path fill="none" stroke="#000" stroke-miterlimit="10" stroke-width=".399" d="m83.145 35.309 5.484 7.332-1.086 9.097"/><path fill="none" stroke="#7F7F7F" stroke-miterlimit="10" stroke-width=".199" d="M71.117 47.336H54.11"/><use xlink:href="#e" x="48.917" y="44.551"/><path fill="none" stroke="#7F7F7F" stroke-miterlimit="10" stroke-width=".199" d="m37.68 51.738 4.402-16.43"/><path fill="none" stroke="#000" stroke-miterlimit="10" stroke-width=".399" d="m37.68 51.738-1.086-9.097 5.488-7.332"/><path fill="none" stroke="#7F7F7F" stroke-miterlimit="10" stroke-width=".199" d="m42.082 35.309 12.027 12.027M54.11 47.336l-16.43 4.402"/><path fill="none" stroke="#000" stroke-miterlimit="10" stroke-width=".399" d="m54.11 47.336-7.337 5.484-9.093-1.082M42.082 35.309V18.3"/><use xlink:href="#f" x="44.866" y="13.11"/><path fill="none" stroke="#7F7F7F" stroke-miterlimit="10" stroke-width=".199" d="m37.68 1.871 16.43 4.402"/><path fill="none" stroke="#000" stroke-miterlimit="10" stroke-width=".399" d="M37.68 1.871 46.773.785l7.336 5.488"/><path fill="none" stroke="#7F7F7F" stroke-miterlimit="10" stroke-width=".199" d="M54.11 6.273 42.081 18.301M42.082 18.3 37.68 1.872"/><path fill="none" stroke="#000" stroke-miterlimit="10" stroke-width=".399" d="m42.082 18.3-5.488-7.335L37.68 1.87M71.117 47.336l12.028 12.027"/><use xlink:href="#g" x="100.36" y="65.001"/><path fill="none" stroke="#000" stroke-miterlimit="10" stroke-width=".399" d="M124.203 59.363v17.008"/><g clip-path="url(#h)"><path fill="none" stroke="#000" stroke-miterlimit="10" stroke-width=".399" d="m124.203 76.371-12.027 12.024"/></g><path fill="none" stroke="#7F7F7F" stroke-miterlimit="10" stroke-width=".199" d="M112.176 88.395H95.168"/><path fill="none" stroke="#000" stroke-miterlimit="10" stroke-width=".399" d="m112.176 88.395-8.504 3.402-8.504-3.402"/><use xlink:href="#i" x="89.978" y="85.612"/><path fill="none" stroke="#7F7F7F" stroke-miterlimit="10" stroke-width=".199" d="m78.742 92.797 4.403-16.426"/><path fill="none" stroke="#000" stroke-miterlimit="10" stroke-width=".399" d="m78.742 92.797-1.086-9.094 5.489-7.332"/><path fill="none" stroke="#7F7F7F" stroke-miterlimit="10" stroke-width=".199" d="m83.145 76.371 12.023 12.024M95.168 88.395l-16.426 4.402"/><path fill="none" stroke="#000" stroke-miterlimit="10" stroke-width=".399" d="m95.168 88.395-7.332 5.488-9.094-1.086"/><path fill="none" stroke="#7F7F7F" stroke-miterlimit="10" stroke-width=".199" d="M83.145 76.371V59.363"/><path fill="none" stroke="#000" stroke-miterlimit="10" stroke-width=".399" d="m83.145 59.363 12.023-12.027"/><path fill="none" stroke="#7F7F7F" stroke-miterlimit="10" stroke-width=".199" d="M95.168 47.336h17.008"/><path fill="none" stroke="#000" stroke-miterlimit="10" stroke-width=".399" d="m95.168 47.336 8.504-3.402 8.504 3.402"/><g clip-path="url(#j)"><path fill="none" stroke="#000" stroke-miterlimit="10" stroke-width=".399" d="m112.176 47.336 12.027 12.027"/></g><path fill="none" stroke="#000" stroke-miterlimit="10" stroke-width=".399" d="M83.145 76.371 71.117 88.395"/><use xlink:href="#k" x="65.476" y="105.718"/><use xlink:href="#l" x="68.341" y="146.779"/><use xlink:href="#m" x="62.612" y="146.779"/><path fill="none" stroke="#000" stroke-miterlimit="10" stroke-width=".399" d="M71.117 170.52H54.11"/><g clip-path="url(#n)"><path fill="none" stroke="#000" stroke-miterlimit="10" stroke-width=".399" d="m54.11 170.52-12.028-12.028"/></g><path fill="none" stroke="#7F7F7F" stroke-miterlimit="10" stroke-width=".199" d="M42.082 158.492v-17.008"/><path fill="none" stroke="#000" stroke-miterlimit="10" stroke-width=".399" d="m42.082 158.492-3.402-8.504 3.402-8.504"/><use xlink:href="#o" x="42.88" y="138.356"/><use xlink:href="#o" x="46.931" y="134.305"/><path fill="none" stroke="#7F7F7F" stroke-miterlimit="10" stroke-width=".199" d="m37.68 125.055 16.43 4.402"/><path fill="none" stroke="#000" stroke-miterlimit="10" stroke-width=".399" d="m37.68 125.055 9.093-1.086 7.336 5.488"/><path fill="none" stroke="#7F7F7F" stroke-miterlimit="10" stroke-width=".199" d="m54.11 129.457-12.028 12.027M42.082 141.484l-4.402-16.43"/><path fill="none" stroke="#000" stroke-miterlimit="10" stroke-width=".399" d="m42.082 141.484-5.488-7.336 1.086-9.093"/><path fill="none" stroke="#7F7F7F" stroke-miterlimit="10" stroke-width=".199" d="M54.11 129.457h17.007"/><use xlink:href="#p" x="74.243" y="130.254"/><use xlink:href="#q" x="78.294" y="134.305"/><path fill="none" stroke="#7F7F7F" stroke-miterlimit="10" stroke-width=".199" d="m87.543 125.055-4.398 16.43"/><path fill="none" stroke="#000" stroke-miterlimit="10" stroke-width=".399" d="m87.543 125.055 1.086 9.093-5.484 7.336"/><path fill="none" stroke="#7F7F7F" stroke-miterlimit="10" stroke-width=".199" d="m83.145 141.484-12.028-12.027M71.117 129.457l16.426-4.402"/><path fill="none" stroke="#000" stroke-miterlimit="10" stroke-width=".399" d="m71.117 129.457 7.332-5.488 9.094 1.086"/><path fill="none" stroke="#7F7F7F" stroke-miterlimit="10" stroke-width=".199" d="M83.145 141.484v17.008"/><path fill="none" stroke="#000" stroke-miterlimit="10" stroke-width=".399" d="m83.145 141.484 3.398 8.504-3.398 8.504"/><g clip-path="url(#r)"><path fill="none" stroke="#000" stroke-miterlimit="10" stroke-width=".399" d="M83.145 158.492 71.117 170.52"/></g><path fill="none" stroke="#000" stroke-miterlimit="10" stroke-width=".399" d="M54.11 129.457 42.081 117.43M42.082 117.43v-17.008M42.082 100.422l12.027-12.027"/><path fill="none" stroke="#7F7F7F" stroke-miterlimit="10" stroke-width=".199" d="M54.11 88.395h17.007"/><path fill="none" stroke="#000" stroke-miterlimit="10" stroke-width=".399" d="m71.117 88.395 12.028 12.027M83.145 100.422v17.008M83.145 117.43l-12.028 12.027M54.11 88.395 42.081 76.37"/><use xlink:href="#s" x="24.76" y="73.594"/><use xlink:href="#t" x="24.76" y="67.865"/><path fill="none" stroke="#000" stroke-miterlimit="10" stroke-width=".399" d="M1.02 76.371V59.363M1.02 59.363l12.027-12.027"/><path fill="none" stroke="#7F7F7F" stroke-miterlimit="10" stroke-width=".199" d="M13.047 47.336h17.008"/><path fill="none" stroke="#000" stroke-miterlimit="10" stroke-width=".399" d="m13.047 47.336 8.504-3.402 8.504 3.402M30.055 47.336l12.027 12.027"/><path fill="none" stroke="#7F7F7F" stroke-miterlimit="10" stroke-width=".199" d="M42.082 59.363v17.008"/><use xlink:href="#u" x="41.28" y="79.493"/><use xlink:href="#d" x="37.229" y="83.544"/><path fill="none" stroke="#7F7F7F" stroke-miterlimit="10" stroke-width=".199" d="m46.484 92.797-16.43-4.402"/><path fill="none" stroke="#000" stroke-miterlimit="10" stroke-width=".399" d="m46.484 92.797-9.093 1.086-7.336-5.488"/><path fill="none" stroke="#7F7F7F" stroke-miterlimit="10" stroke-width=".199" d="M30.055 88.395 42.082 76.37M42.082 76.371l4.402 16.426"/><path fill="none" stroke="#000" stroke-miterlimit="10" stroke-width=".399" d="m42.082 76.371 5.484 7.332-1.082 9.094"/><path fill="none" stroke="#7F7F7F" stroke-miterlimit="10" stroke-width=".199" d="M30.055 88.395H13.047"/><path fill="none" stroke="#000" stroke-miterlimit="10" stroke-width=".399" d="m30.055 88.395-8.504 3.402-8.504-3.402M13.047 88.395 1.02 76.37M42.082 59.363l12.027-12.027"/></svg>