<svg xmlns="http://www.w3.org/2000/svg" width="81.796" height="87.356"><defs><clipPath id="a"><path d="M0 23h64v64.035H0Zm0 0"/></clipPath><clipPath id="b"><path d="M29 0h52.695v58H29Zm0 0"/></clipPath></defs><path fill="none" stroke="#7F7F7F" stroke-miterlimit="10" stroke-width=".199" d="M15.29 57.473h56.69M15.29 29.125h56.69M15.29.789h56.69M15.29 57.473V.777m28.347 56.696V.777m28.336 56.696V.777"/><g clip-path="url(#a)"><path fill="none" stroke="#000" stroke-miterlimit="10" stroke-width=".399" d="M57.809 57.473c0-15.657-12.692-28.348-28.348-28.348S1.113 41.816 1.113 57.473c0 15.652 12.692 28.343 28.348 28.343s28.348-12.691 28.348-28.343Zm0 0"/></g><g clip-path="url(#b)"><path fill="none" stroke="#000" stroke-miterlimit="10" stroke-width=".399" d="M80.484 29.125c0-12.527-10.152-22.68-22.675-22.68s-22.68 10.153-22.68 22.68c0 12.523 10.156 22.676 22.68 22.676s22.675-10.153 22.675-22.676Zm0 0"/></g><path fill="none" stroke="#000" stroke-miterlimit="10" stroke-width=".399" d="M59.184 51.902a1.994 1.994 0 0 0-3.988 0 1.994 1.994 0 0 0 3.988 0Zm0 0"/></svg>