<svg xmlns="http://www.w3.org/2000/svg" xmlns:xlink="http://www.w3.org/1999/xlink" width="174.602" height="107.228"><defs><path id="b" d="M3.89-2.547c0-.844-.078-1.36-.343-1.875-.344-.703-1-.875-1.438-.875-1 0-1.375.75-1.484.969C.344-3.75.328-2.953.328-2.547c0 .531.016 1.328.406 1.969.36.594.954.75 1.375.75.391 0 1.063-.125 1.47-.906.296-.578.312-1.297.312-1.813M2.11-.062c-.266 0-.813-.125-.985-.954-.094-.453-.094-1.203-.094-1.625 0-.546 0-1.109.094-1.546.172-.813.781-.891.984-.891.266 0 .829.14.985.86.094.437.094 1.046.094 1.577 0 .47 0 1.188-.094 1.641-.172.828-.719.938-.985.938m0 0"/><path id="c" d="M2.25-1.625c.125-.125.453-.39.594-.5.484-.453.953-.89.953-1.61 0-.953-.797-1.562-1.781-1.562-.97 0-1.594.719-1.594 1.438 0 .39.312.437.422.437.172 0 .422-.11.422-.422 0-.406-.407-.406-.5-.406.234-.594.765-.781 1.156-.781.734 0 1.125.625 1.125 1.297 0 .828-.578 1.437-1.531 2.39l-1 1.047C.422-.219.422-.203.422 0h3.14l.235-1.422h-.25c-.016.156-.078.547-.172.703-.047.063-.656.063-.781.063H1.172Zm0 0"/><path id="d" d="M3.14-5.156c0-.157 0-.219-.171-.219-.094 0-.11 0-.188.11L.234-1.564v.25h2.25v.672c0 .297-.015.375-.64.375h-.172V0c.672-.031.687-.031 1.14-.031.454 0 .47 0 1.141.031v-.266h-.172c-.625 0-.64-.078-.64-.375v-.671h.843v-.25h-.843Zm-.593.64v2.954H.516Zm0 0"/><path id="e" d="M1.094-2.64c0-.657.062-1.235.343-1.72.25-.406.657-.734 1.157-.734.156 0 .515.032.703.297-.36.031-.39.297-.39.375 0 .25.187.375.374.375.14 0 .375-.078.375-.39 0-.47-.36-.86-1.078-.86C1.468-5.297.344-4.25.344-2.53.344-.36 1.359.172 2.125.172c.39 0 .797-.11 1.156-.453.328-.313.594-.64.594-1.344 0-1.031-.797-1.766-1.672-1.766-.578 0-.922.36-1.11.75M2.125-.079a.88.88 0 0 1-.797-.516c-.187-.36-.203-.89-.203-1.203 0-.781.422-1.375 1.047-1.375.39 0 .64.203.781.485.172.296.172.656.172 1.062s0 .75-.156 1.047c-.219.36-.485.5-.844.5m0 0"/><path id="f" d="M2.64-2.875c.454-.219 1-.61 1-1.234 0-.766-.78-1.188-1.515-1.188-.844 0-1.531.578-1.531 1.328 0 .297.094.563.297.797.14.172.172.188.656.5C.563-2.234.344-1.656.344-1.219c0 .89.89 1.39 1.765 1.39.97 0 1.766-.671 1.766-1.515 0-.5-.266-.828-.406-.968-.125-.126-.14-.141-.828-.563m-1.234-.75c-.234-.14-.422-.375-.422-.64 0-.5.547-.829 1.125-.829.61 0 1.125.422 1.125.985 0 .453-.359.843-.828 1.078Zm.39 1.094c.032.015.938.578 1.079.656.125.078.547.328.547.813 0 .609-.656.984-1.297.984-.719 0-1.312-.484-1.312-1.14 0-.594.437-1.063.984-1.313m0 0"/><path id="h" d="M2.5-5.078c0-.219-.016-.219-.234-.219-.328.313-.75.5-1.5.5v.266c.218 0 .64 0 1.109-.203v4.078c0 .297-.031.39-.781.39H.812V0c.329-.031 1.016-.031 1.376-.031s1.046 0 1.374.031v-.266h-.28c-.75 0-.782-.093-.782-.39Zm0 0"/><path id="j" d="M4.031-4.86c.078-.077.078-.093.078-.265H2.08a9 9 0 0 1-.642-.031c-.421-.032-.421-.11-.453-.235h-.25L.47-3.703h.25c.015-.125.11-.672.219-.735.078-.046.687-.046.796-.046h1.688l-.813 1.109C1.703-2.172 1.5-.906 1.5-.281c0 .078 0 .453.375.453s.375-.36.375-.453v-.39c0-1.141.203-2.079.594-2.61Zm0 0"/><path id="k" d="M1.11-4.484c.109.03.421.125.765.125 1 0 1.594-.703 1.594-.828 0-.094-.047-.11-.094-.11-.016 0-.031 0-.094.031a3 3 0 0 1-1.11.22c-.468 0-.858-.11-1.108-.22-.079-.03-.094-.03-.11-.03-.094 0-.094.077-.094.234v2.328c0 .14 0 .234.125.234.063 0 .079-.031.125-.094.094-.11.391-.515 1.079-.515.437 0 .656.359.734.515.125.281.14.656.14.953s0 .735-.218 1.079c-.156.25-.485.484-.906.484A1.27 1.27 0 0 1 .734-.922c.016.016.079.016.079.016.218 0 .406-.14.406-.39a.39.39 0 0 0-.39-.407c-.157 0-.407.078-.407.422 0 .718.625 1.453 1.531 1.453 1 0 1.844-.781 1.844-1.766 0-.922-.672-1.75-1.61-1.75-.39 0-.765.125-1.078.406Zm0 0"/><path id="g" d="M5.563-1.812c.14 0 .312 0 .312-.172 0-.188-.172-.188-.312-.188H1c-.125 0-.297 0-.297.188 0 .172.172.172.297.172Zm0 0"/><path id="i" d="M1.625-.437a.463.463 0 0 0-.453-.454.447.447 0 0 0-.438.438.44.44 0 0 0 .438.453.45.45 0 0 0 .453-.437m0 0"/><clipPath id="a"><path d="M22 0h152.402v100H22Zm0 0"/></clipPath></defs><path fill="none" stroke="#7F7F7F" stroke-linecap="round" stroke-miterlimit="10" stroke-width=".399" d="M31.375 97.898v-1.992M61.457 97.898v-1.992M91.535 97.898v-1.992M121.613 97.898v-1.992M151.695 97.898v-1.992M24.402 90.922h1.993M24.402 79.977h1.993M24.402 69.027h1.993M24.402 58.078h1.993M24.402 47.129h1.993M24.402 36.18h1.993M24.402 25.23h1.993M24.402 14.281h1.993M24.402 3.332h1.993"/><path fill="none" stroke="#7F7F7F" stroke-miterlimit="10" stroke-width=".399" d="M31.375 95.906h141.734"/><path fill="none" stroke="#BFBFBF" stroke-linecap="square" stroke-miterlimit="10" stroke-width=".399" d="M31.375 90.922h141.734M31.375 3.332h141.734"/><path fill="none" stroke="#7F7F7F" stroke-miterlimit="10" stroke-width=".399" d="M26.395 90.922V3.332"/><path fill="none" stroke="#BFBFBF" stroke-linecap="square" stroke-miterlimit="10" stroke-width=".399" d="M31.375 90.922V3.332M173.11 90.922V3.332"/><g clip-path="url(#a)"><path fill="none" stroke="#000" stroke-dasharray="2.98883 2.98883" stroke-miterlimit="10" stroke-width=".598" d="M31.375 47.129s4.27-12.465 5.906-16.758c1.64-4.297 4.27-10.922 5.907-14.21 1.64-3.29 4.265-7.712 5.906-9.493 1.64-1.781 4.265-3.336 5.906-3.336 1.637 0 4.266 1.555 5.906 3.332 1.637 1.781 4.266 6.203 5.907 9.492 1.636 3.29 4.265 9.91 5.906 14.207 1.636 4.297 4.265 12.11 5.906 16.762 1.637 4.648 4.266 12.46 5.902 16.758 1.641 4.297 4.27 10.918 5.907 14.207 1.64 3.289 4.27 7.715 5.906 9.496 1.64 1.781 4.27 3.336 5.906 3.336 1.64 0 4.27-1.55 5.906-3.332 1.641-1.778 4.266-6.2 5.907-9.488 1.64-3.29 4.265-9.91 5.906-14.207 1.637-4.297 4.265-12.11 5.906-16.758 1.637-4.653 4.266-12.461 5.906-16.758 1.637-4.297 4.266-10.922 5.907-14.211 1.636-3.29 4.265-7.715 5.906-9.496 1.637-1.781 4.265-3.34 5.902-3.34 1.64 0 4.27 1.55 5.906 3.332 1.641 1.777 4.27 6.2 5.907 9.484 1.64 3.29 4.27 9.91 5.906 14.207 1.64 4.297 5.906 16.758 5.906 16.758"/></g><use xlink:href="#b" x="29.259" y="105.689"/><use xlink:href="#c" x="59.339" y="105.689"/><use xlink:href="#d" x="89.418" y="105.689"/><use xlink:href="#e" x="119.497" y="105.689"/><use xlink:href="#f" x="149.576" y="105.689"/><use xlink:href="#g" x="10.926" y="93.076"/><use xlink:href="#h" x="17.512" y="93.076"/><use xlink:href="#g" x=".105" y="82.128"/><use xlink:href="#b" x="6.692" y="82.128"/><use xlink:href="#i" x="10.926" y="82.128"/><use xlink:href="#j" x="13.278" y="82.128"/><use xlink:href="#k" x="17.513" y="82.128"/><use xlink:href="#g" x="4.339" y="71.179"/><use xlink:href="#b" x="10.926" y="71.179"/><use xlink:href="#i" x="15.16" y="71.179"/><use xlink:href="#k" x="17.512" y="71.179"/><use xlink:href="#g" x=".105" y="60.23"/><use xlink:href="#b" x="6.692" y="60.23"/><use xlink:href="#i" x="10.926" y="60.23"/><use xlink:href="#c" x="13.278" y="60.23"/><use xlink:href="#k" x="17.513" y="60.23"/><use xlink:href="#b" x="17.512" y="49.696"/><use xlink:href="#b" x="6.692" y="38.747"/><use xlink:href="#i" x="10.926" y="38.747"/><use xlink:href="#c" x="13.278" y="38.747"/><use xlink:href="#k" x="17.513" y="38.747"/><use xlink:href="#b" x="10.926" y="27.798"/><use xlink:href="#i" x="15.16" y="27.798"/><use xlink:href="#k" x="17.512" y="27.798"/><use xlink:href="#b" x="6.692" y="16.85"/><use xlink:href="#i" x="10.926" y="16.85"/><use xlink:href="#j" x="13.278" y="16.85"/><use xlink:href="#k" x="17.513" y="16.85"/><use xlink:href="#h" x="17.512" y="5.901"/></svg>