<svg xmlns="http://www.w3.org/2000/svg" width="57.548" height="110.702"><path fill="#BF0040" d="M4.48 106.531a1.99 1.99 0 0 0-2.734-.676 1.993 1.993 0 1 0 2.734.676m0 0"/><path fill="#BF0040" d="M7.59 104.023a1.992 1.992 0 1 0-3.102 2.5 1.995 1.995 0 0 0 2.801.305 1.996 1.996 0 0 0 .3-2.805m0 0"/><path fill="#BF0040" d="M10.371 101.16a1.992 1.992 0 1 0-2.777 2.855 1.992 1.992 0 0 0 2.777-2.855M14.996 94.668a1.99 1.99 0 0 0-2.754.586 1.99 1.99 0 0 0 .582 2.754 1.991 1.991 0 1 0 2.172-3.34m0 0"/><path fill="#BF0040" d="M16.914 91.168a1.992 1.992 0 1 0-1.916 3.493 1.992 1.992 0 0 0 1.916-3.493m0 0"/><path fill="#FF7F00" d="M18.621 87.559a1.997 1.997 0 0 0-2.656.949 1.99 1.99 0 0 0 .95 2.652 1.99 1.99 0 0 0 2.651-.945 1.995 1.995 0 0 0-.945-2.656m0 0"/><path fill="#BF0040" d="M21.523 80.133a1.996 1.996 0 0 0-2.558 1.18 1.99 1.99 0 0 0 1.18 2.558 1.99 1.99 0 0 0 2.558-1.176 1.995 1.995 0 0 0-1.18-2.562m0 0"/><path fill="#FF7F00" d="M22.785 76.352a1.996 1.996 0 0 0-2.523 1.257 1.994 1.994 0 0 0 3.781 1.262 1.99 1.99 0 0 0-1.258-2.52m0 0"/><path fill="#BF0040" d="M23.95 72.535a1.99 1.99 0 0 0-2.49 1.324 1.992 1.992 0 1 0 3.81 1.164 1.99 1.99 0 0 0-1.32-2.488M26.074 64.848a1.992 1.992 0 1 0-1.035 3.848 1.992 1.992 0 0 0 1.035-3.848m0 0"/><path fill="#FF7F00" d="M27.07 60.988a2 2 0 0 0-2.43 1.434 1.994 1.994 0 0 0 3.86.996 2 2 0 0 0-1.43-2.43m0 0"/><path fill="#FF7F00" d="M28.043 57.121a1.993 1.993 0 1 0-.97 3.867 1.993 1.993 0 0 0 .97-3.867M29.98 49.39a1.99 1.99 0 0 0-2.418 1.442 1.992 1.992 0 1 0 2.418-1.441m0 0"/><path fill="#BF0040" d="M30.977 45.527a1.992 1.992 0 1 0-.995 3.86 1.992 1.992 0 0 0 .995-3.86m0 0"/><path fill="#BF0040" d="M32.012 41.68a1.992 1.992 0 1 0-1.035 3.848 1.992 1.992 0 0 0 1.035-3.848m0 0"/><path fill="#FF7F00" d="M34.27 34.031a1.993 1.993 0 0 0-1.168 3.813 1.99 1.99 0 0 0 2.488-1.324 1.99 1.99 0 0 0-1.32-2.489m0 0"/><path fill="#BF0040" d="M35.531 30.25a1.99 1.99 0 0 0-2.52 1.258 1.991 1.991 0 1 0 3.778 1.265 1.994 1.994 0 0 0-1.258-2.523m0 0"/><path fill="#FF7F00" d="M36.914 26.508a1.995 1.995 0 0 0-2.562 1.176 2 2 0 0 0 1.18 2.562 1.99 1.99 0 0 0 2.558-1.18 1.99 1.99 0 0 0-1.176-2.558M40.148 19.219a1.99 1.99 0 0 0-2.652.945 1.987 1.987 0 0 0 .945 2.652c.993.473 2.184.051 2.653-.945.472-.992.05-2.18-.946-2.652m0 0"/><path fill="#FF7F00" d="M42.07 15.723a1.993 1.993 0 1 0-1.921 3.492 1.993 1.993 0 0 0 1.921-3.492m0 0"/><path fill="#BF0040" d="M44.246 12.379a1.993 1.993 0 1 0-2.176 3.34 1.993 1.993 0 0 0 2.176-3.34m0 0"/><path fill="#FF7F00" d="M49.492 6.379a1.99 1.99 0 0 0-2.816.035 1.992 1.992 0 1 0 2.816-.035m0 0"/><path fill="#FF7F00" d="M52.605 3.879a1.993 1.993 0 0 0-3.113 2.492 1.993 1.993 0 0 0 3.113-2.492m0 0"/><path fill="#FF7F00" d="M56.023 1.82a1.991 1.991 0 1 0-3.414 2.051 1.991 1.991 0 1 0 3.414-2.05m0 0"/></svg>