<svg xmlns="http://www.w3.org/2000/svg" width="269.228" height="45.146"><defs><clipPath id="a"><path d="M5 9h41v35.719H5Zm0 0"/></clipPath><clipPath id="b"><path d="M0 0h56v44.719H0Zm0 0"/></clipPath><clipPath id="c"><path d="M62 9h41v35.719H62Zm0 0"/></clipPath><clipPath id="d"><path d="M119 9h40v35.719h-40Zm0 0"/></clipPath><clipPath id="e"><path d="M116 6h46v38.719h-46Zm0 0"/></clipPath><clipPath id="f"><path d="M175 9h41v35.719h-41Zm0 0"/></clipPath><clipPath id="g"><path d="M173 9h45v35.719h-45Zm0 0"/></clipPath><clipPath id="h"><path d="M232 9h36.844v35.719H232Zm0 0"/></clipPath><clipPath id="i"><path d="M231 7h37.844v37.719H231Zm0 0"/></clipPath></defs><g clip-path="url(#a)"><path fill="none" stroke="red" stroke-dasharray="2.98883 2.98883" stroke-miterlimit="10" stroke-width=".399" d="M39.68 29.328c0-7.824-6.348-14.172-14.176-14.172s-14.172 6.348-14.172 14.172c0 7.828 6.344 14.176 14.172 14.176S39.68 37.156 39.68 29.328Zm0 0"/></g><g clip-path="url(#b)"><path fill="none" stroke="#000" stroke-miterlimit="10" stroke-width=".399" d="M25.504.988.96 43.5h49.09Zm0 0"/></g><g clip-path="url(#c)"><path fill="none" stroke="red" stroke-dasharray="2.98883 2.98883" stroke-miterlimit="10" stroke-width=".399" d="M96.371 29.328c0-7.824-6.344-14.172-14.172-14.172s-14.176 6.348-14.176 14.172c0 7.828 6.348 14.176 14.176 14.176s14.172-6.348 14.172-14.176Zm0 0"/></g><path fill="none" stroke="#000" stroke-miterlimit="10" stroke-width=".399" d="M96.371 15.156H68.027v28.348h28.344Zm0 0"/><g clip-path="url(#d)"><path fill="none" stroke="red" stroke-dasharray="2.98883 2.98883" stroke-miterlimit="10" stroke-width=".399" d="M153.066 29.328c0-7.824-6.347-14.172-14.175-14.172s-14.172 6.348-14.172 14.172c0 7.828 6.344 14.176 14.172 14.176s14.175-6.348 14.175-14.176Zm0 0"/></g><g clip-path="url(#e)"><path fill="none" stroke="#000" stroke-miterlimit="10" stroke-width=".399" d="m138.89 11.813-16.656 12.105 6.364 19.582h20.59l6.363-19.582Zm0 0"/></g><g clip-path="url(#f)"><path fill="none" stroke="red" stroke-dasharray="2.98883 2.98883" stroke-miterlimit="10" stroke-width=".399" d="M209.758 29.328c0-7.824-6.344-14.172-14.172-14.172s-14.172 6.348-14.172 14.172c0 7.828 6.344 14.176 14.172 14.176s14.172-6.348 14.172-14.176Zm0 0"/></g><g clip-path="url(#g)"><path fill="none" stroke="#000" stroke-miterlimit="10" stroke-width=".399" d="M203.766 15.16h-16.36l-8.183 14.168 8.183 14.172h16.36l8.183-14.172Zm0 0"/></g><g clip-path="url(#h)"><path fill="none" stroke="red" stroke-dasharray="2.98883 2.98883" stroke-miterlimit="10" stroke-width=".399" d="M266.453 29.328c0-7.824-6.348-14.172-14.172-14.172-7.828 0-14.176 6.348-14.176 14.172 0 7.828 6.348 14.176 14.176 14.176 7.824 0 14.172-6.348 14.172-14.176Zm0 0"/></g><g clip-path="url(#i)"><path fill="none" stroke="#000" stroke-miterlimit="10" stroke-width=".399" d="m252.281 13.602-12.3 5.921-3.036 13.305 8.512 10.672h13.645l8.511-10.672-3.039-13.305Zm0 0"/></g></svg>