<svg xmlns="http://www.w3.org/2000/svg" xmlns:xlink="http://www.w3.org/1999/xlink" width="214.138" height="188.39"><defs><path id="a" d="M3.328-3.016c.063-.25.297-1.171.985-1.171.046 0 .296 0 .5.125a.58.58 0 0 0-.47.546c0 .157.11.344.376.344a.546.546 0 0 0 .531-.578c0-.516-.578-.656-.922-.656-.578 0-.922.531-1.047.75-.25-.656-.781-.75-1.078-.75-1.031 0-1.61 1.281-1.61 1.531 0 .11.11.11.126.11.078 0 .11-.032.125-.11.344-1.062 1-1.312 1.344-1.312.187 0 .53.093.53.671 0 .313-.171.97-.53 2.375-.157.61-.516 1.032-.954 1.032-.062 0-.28 0-.5-.125.25-.063.47-.266.47-.547 0-.266-.22-.344-.36-.344-.313 0-.547.25-.547.578 0 .453.484.656.922.656.672 0 1.031-.703 1.047-.75.125.36.484.75 1.078.75 1.031 0 1.594-1.28 1.594-1.53 0-.11-.079-.11-.11-.11-.094 0-.11.047-.14.11-.329 1.077-1 1.312-1.313 1.312-.39 0-.547-.313-.547-.657 0-.218.047-.437.156-.875Zm0 0"/><path id="c" d="M2.047-3.984h.937c.204 0 .313 0 .313-.203 0-.11-.11-.11-.281-.11H2.14c.359-1.422.406-1.61.406-1.672 0-.172-.125-.265-.297-.265-.031 0-.312 0-.39.359l-.391 1.578H.53c-.203 0-.297 0-.297.188 0 .125.078.125.282.125h.875C.67-1.156.625-.984.625-.812c0 .546.375.921.922.921 1.016 0 1.578-1.453 1.578-1.53 0-.11-.078-.11-.11-.11-.093 0-.109.031-.156.14C2.438-.344 1.906-.109 1.563-.109c-.204 0-.313-.125-.313-.453 0-.25.031-.313.063-.485Zm0 0"/><path id="e" d="M4.844-3.797c.047-.14.047-.156.047-.234 0-.172-.141-.266-.297-.266a.46.46 0 0 0-.344.203c-.016.063-.11.36-.14.547-.079.25-.141.531-.204.797L3.453-.953c-.031.14-.469.844-1.125.844-.5 0-.61-.438-.61-.813 0-.453.173-1.078.5-1.953.157-.406.204-.516.204-.719 0-.437-.313-.812-.813-.812-.953 0-1.312 1.453-1.312 1.531 0 .11.094.11.11.11.109 0 .109-.032.156-.188.28-.938.671-1.235 1.015-1.235.078 0 .25 0 .25.313 0 .25-.11.516-.172.703-.406 1.063-.578 1.625-.578 2.094 0 .89.625 1.187 1.219 1.187.39 0 .719-.171 1-.453-.125.516-.25 1.016-.64 1.547-.266.328-.641.625-1.094.625-.141 0-.594-.031-.766-.422.156 0 .297 0 .422-.125a.5.5 0 0 0 .203-.406c0-.312-.266-.344-.36-.344C.829.531.5.687.5 1.171c0 .5.438.876 1.063.876 1.015 0 2.046-.906 2.328-2.031Zm0 0"/><path id="k" d="M2.031-.016c0-.656-.25-1.046-.64-1.046a.517.517 0 0 0-.532.53c0 .266.204.532.532.532a.58.58 0 0 0 .343-.125c.032-.031.047-.031.047-.031.016 0 .016 0 .016.14 0 .75-.344 1.344-.672 1.672-.11.11-.11.125-.11.157 0 .078.048.109.094.109.11 0 .922-.766.922-1.938m0 0"/><path id="b" d="M3.297 2.39c0-.03 0-.046-.172-.218C1.891.922 1.563-.968 1.563-2.5c0-1.734.375-3.469 1.609-4.703.125-.125.125-.14.125-.172 0-.078-.031-.11-.094-.11-.11 0-1 .688-1.594 1.954C1.11-4.438.984-3.328.984-2.5c0 .781.11 1.984.657 3.125C2.25 1.844 3.094 2.5 3.203 2.5c.063 0 .094-.031.094-.11m0 0"/><path id="d" d="M2.875-2.5c0-.766-.11-1.969-.656-3.11C1.625-6.827.766-7.483.672-7.483a.107.107 0 0 0-.11.109c0 .031 0 .047.188.234.984.985 1.547 2.563 1.547 4.641 0 1.719-.36 3.469-1.594 4.719-.14.125-.14.14-.14.172 0 .062.046.109.109.109.094 0 1-.687 1.578-1.953.516-1.094.625-2.203.625-3.047m0 0"/><path id="g" d="M2.938-6.375c0-.25 0-.266-.235-.266C2.078-6 1.203-6 .891-6v.313c.203 0 .78 0 1.297-.266v5.172c0 .36-.032.469-.922.469H.953V0c.344-.031 1.203-.031 1.61-.031.39 0 1.265 0 1.609.031v-.312h-.313c-.906 0-.921-.11-.921-.47Zm0 0"/><path id="h" d="m1.266-.766 1.062-1.03c1.547-1.376 2.14-1.907 2.14-2.907 0-1.14-.89-1.938-2.109-1.938C1.234-6.64.5-5.719.5-4.828c0 .547.5.547.531.547.172 0 .516-.11.516-.532a.513.513 0 0 0-.531-.515c-.079 0-.094 0-.125.016.218-.657.765-1.016 1.343-1.016.907 0 1.329.812 1.329 1.625 0 .797-.485 1.578-1.047 2.203L.609-.375C.5-.265.5-.235.5 0h3.703l.266-1.734h-.235C4.172-1.437 4.11-1 4-.844c-.062.078-.719.078-.937.078Zm0 0"/><path id="i" d="M2.89-3.516c.813-.265 1.391-.953 1.391-1.75 0-.812-.875-1.375-1.828-1.375-1 0-1.765.594-1.765 1.36 0 .328.218.515.515.515s.5-.218.5-.515c0-.485-.469-.485-.61-.485.298-.5.954-.625 1.313-.625.422 0 .969.22.969 1.11 0 .125-.031.703-.281 1.14-.297.485-.64.516-.89.516a3 3 0 0 1-.392.031c-.078.016-.14.031-.14.125 0 .11.062.11.234.11h.438c.812 0 1.187.672 1.187 1.656 0 1.36-.687 1.64-1.125 1.64S1.22-.233.875-.812c.344.047.656-.171.656-.546a.537.537 0 0 0-.547-.563c-.25 0-.562.14-.562.578C.422-.437 1.344.22 2.437.22c1.22 0 2.126-.906 2.126-1.922 0-.813-.641-1.594-1.672-1.813m0 0"/><path id="m" d="M6.844-3.266c.156 0 .343 0 .343-.187 0-.203-.187-.203-.328-.203H.891c-.141 0-.328 0-.328.203 0 .187.187.187.328.187Zm.015 1.938c.141 0 .329 0 .329-.203 0-.188-.188-.188-.344-.188H.89c-.141 0-.328 0-.328.188 0 .203.187.203.328.203Zm0 0"/><path id="n" d="M2.078-1.937c.219.046 1.031.203 1.031.921 0 .5-.343.907-1.125.907-.843 0-1.203-.563-1.39-1.422-.031-.125-.031-.157-.14-.157-.126 0-.126.063-.126.235v1.328c0 .172 0 .234.11.234C.484.11.5.094.688-.094.703-.109.703-.125.89-.312c.437.406.89.421 1.093.421 1.141 0 1.61-.671 1.61-1.39 0-.516-.297-.828-.422-.938-.328-.328-.719-.406-1.14-.484-.563-.11-1.22-.235-1.22-.813 0-.359.25-.765 1.11-.765 1.094 0 1.156.906 1.172 1.203 0 .094.094.094.11.094.14 0 .14-.047.14-.235v-1.015c0-.157 0-.235-.11-.235-.046 0-.078 0-.203.125-.031.032-.125.125-.172.157-.375-.282-.78-.282-.937-.282-1.219 0-1.594.672-1.594 1.235 0 .343.156.625.422.843.328.25.61.313 1.328.454m0 0"/><path id="o" d="m1.766-4.406-1.391.11v.312c.64 0 .734.062.734.547V-.75c0 .438-.109.438-.78.438V0c.312-.016.859-.031 1.093-.031.36 0 .703.015 1.047.031v-.312c-.672 0-.703-.047-.703-.438Zm.03-1.735a.514.514 0 0 0-.515-.53.537.537 0 0 0-.531.53c0 .266.219.532.531.532a.514.514 0 0 0 .516-.532m0 0"/><path id="p" d="M1.094-3.422V-.75c0 .438-.11.438-.782.438V0c.36-.016.86-.031 1.141-.031.25 0 .766.015 1.11.031v-.312c-.672 0-.782 0-.782-.438v-1.844c0-1.031.719-1.594 1.344-1.594.64 0 .75.532.75 1.11V-.75c0 .438-.11.438-.781.438V0c.344-.016.86-.031 1.125-.031.25 0 .781.015 1.11.031v-.312c-.516 0-.766 0-.766-.297v-1.907c0-.859 0-1.156-.313-1.515-.14-.172-.469-.375-1.047-.375-.734 0-1.203.422-1.484 1.047v-1.047l-1.406.11v.312c.703 0 .78.062.78.562m0 0"/><path id="s" d="M1.172-2.172c0-1.625.812-2.047 1.344-2.047.093 0 .718.016 1.062.375-.406.031-.469.328-.469.453 0 .266.188.454.454.454.265 0 .468-.157.468-.47 0-.671-.765-1.062-1.531-1.062C1.25-4.469.344-3.39.344-2.156c0 1.281.984 2.265 2.14 2.265 1.329 0 1.657-1.203 1.657-1.296 0-.094-.11-.094-.141-.094-.078 0-.11.031-.125.093C3.594-.265 2.938-.14 2.578-.14c-.531 0-1.406-.421-1.406-2.03m0 0"/><path id="t" d="M4.688-2.14c0-1.266-.985-2.329-2.188-2.329C1.25-4.469.281-3.375.281-2.14A2.22 2.22 0 0 0 2.484.11c1.204 0 2.204-.984 2.204-2.25M2.5-.14c-.437 0-.875-.204-1.14-.672-.25-.438-.25-1.047-.25-1.407 0-.39 0-.922.234-1.36a1.35 1.35 0 0 1 1.14-.671c.438 0 .86.219 1.125.656.266.422.266 1 .266 1.375 0 .36 0 .906-.219 1.344-.234.453-.672.734-1.156.734m0 0"/><path id="w" d="M4.578-3.187c0-.797-.047-1.594-.39-2.329C3.734-6.484 2.906-6.64 2.5-6.64c-.61 0-1.328.266-1.75 1.188-.312.687-.36 1.469-.36 2.266 0 .75.032 1.64.454 2.406a1.83 1.83 0 0 0 1.64 1c.532 0 1.297-.203 1.735-1.156.312-.688.36-1.47.36-2.25M2.484 0c-.39 0-.984-.25-1.156-1.203-.11-.594-.11-1.516-.11-2.11 0-.64 0-1.296.079-1.828.187-1.187.937-1.28 1.187-1.28.329 0 .985.187 1.172 1.171.11.563.11 1.313.11 1.938 0 .75 0 1.421-.11 2.062C3.5-.297 2.937 0 2.484 0m0 0"/><path id="f" d="M6.563-2.297c.171 0 .359 0 .359-.203 0-.187-.188-.187-.36-.187h-5.39c-.172 0-.344 0-.344.187 0 .203.172.203.344.203Zm0 0"/><path id="j" d="M4.11 11.453c0-.031-.016-.062-.032-.094-.453-.484-1.14-1.296-1.562-2.921-.22-.907-.313-1.922-.313-2.86 0-2.625.625-4.453 1.828-5.75.078-.094.078-.11.078-.125 0-.11-.078-.11-.109-.11-.156 0-.687.61-.812.75-1.032 1.22-1.672 3-1.672 5.235 0 1.406.25 3.406 1.562 5.094.094.125.735.875.922.875.031 0 .11 0 .11-.094m0 0"/><path id="l" d="M3.047 5.578c0-1.406-.25-3.422-1.563-5.094-.093-.125-.75-.89-.921-.89-.047 0-.125.031-.125.11 0 .03.015.062.062.093.484.516 1.125 1.328 1.531 2.922.235.906.328 1.922.328 2.86 0 1-.093 2.015-.359 3-.375 1.39-.969 2.187-1.469 2.75-.094.093-.094.108-.094.124 0 .078.079.094.126.094.14 0 .687-.594.812-.735 1.016-1.218 1.672-3 1.672-5.234m0 0"/><path id="q" d="M2.328-4.437c0-.188 0-.188-.203-.188-.453.438-1.078.438-1.36.438v.25c.157 0 .626 0 1-.188v3.547c0 .234 0 .328-.687.328H.812V0c.125 0 .985-.031 1.235-.031.219 0 1.094.031 1.25.031v-.25H3.03c-.703 0-.703-.094-.703-.328Zm0 0"/><path id="u" d="M3.516-1.266H3.28c-.015.157-.094.563-.187.625-.047.047-.578.047-.688.047H1.125c.734-.64.984-.843 1.39-1.172.516-.406 1-.843 1-1.5 0-.843-.734-1.359-1.624-1.359-.86 0-1.453.61-1.453 1.25 0 .344.296.39.375.39.156 0 .359-.124.359-.374 0-.125-.047-.375-.406-.375.218-.485.687-.641 1.015-.641.703 0 1.063.547 1.063 1.11 0 .609-.438 1.078-.656 1.328L.516-.266C.437-.203.437-.187.437 0h2.876Zm0 0"/><path id="r" d="M1.719-2.75h.703c.14 0 .219 0 .219-.156C2.64-3 2.562-3 2.438-3H1.78l.25-1.031a.3.3 0 0 0 .031-.094c0-.14-.109-.234-.25-.234-.171 0-.265.125-.328.297-.046.187.047-.157-.265 1.062H.516c-.125 0-.22 0-.22.156 0 .094.079.094.204.094h.656L.75-1.11c-.047.173-.11.423-.11.516 0 .407.36.657.75.657.782 0 1.22-.97 1.22-1.063 0-.094-.094-.094-.11-.094-.094 0-.094.016-.156.14-.188.438-.547.829-.922.829-.156 0-.25-.094-.25-.344 0-.062.031-.219.047-.281Zm0 0"/><path id="v" d="M2.172-2.531H3c-.11.422-.266 1.047-.266 1.61 0 .28.047.468.079.609.109.359.203.375.312.375.172 0 .328-.141.328-.313 0-.047-.015-.078-.047-.14-.14-.266-.265-.657-.265-1.235 0-.125 0-.406.093-.906h.875c.125 0 .188 0 .266-.047a.3.3 0 0 0 .11-.219C4.484-3 4.311-3 4.186-3H1.563c-.28 0-.484.063-.796.36-.188.156-.453.53-.453.593 0 .078.093.078.125.078.078 0 .078-.015.125-.078.343-.484.78-.484.937-.484h.422c-.219.765-.594 1.594-.797 2.015-.047.079-.11.235-.14.25 0 .032-.016.063-.016.11 0 .11.078.219.25.219.265 0 .343-.313.515-.938Zm0 0"/></defs><path fill="none" stroke="#7F7F7F" stroke-miterlimit="10" stroke-width=".199" d="M3.414 155.902h136.063M3.414 127.555h136.063M3.414 99.207h136.063M3.414 70.859h136.063M3.414 42.512h136.063M28.926 181.414V17m28.347 164.414V17m28.344 164.414V17m28.348 164.414V17m-85.04 138.902h56.692m-56.691-7.09h56.691m-56.691-7.085h56.691m-56.691-7.086h56.691m-56.691-7.086h56.691m-56.691-7.086h56.691m-56.691-7.09h56.691m-56.691-7.086h56.691m-56.691-7.086h56.691m-56.691 56.695V99.207m7.086 56.695V99.207m7.086 56.695V99.207m7.086 56.695V99.207m7.09 56.695V99.207m7.085 56.695V99.207m7.086 56.695V99.207m7.086 56.695V99.207m7.086 56.695V99.207"/><path fill="none" stroke="#00F" stroke-miterlimit="10" stroke-width=".399" d="M85.617 187.082V11.332"/><path fill="none" stroke="#000" stroke-miterlimit="10" stroke-width=".399" d="M.578 127.555h141.336"/><path fill="none" stroke="#000" stroke-linecap="round" stroke-linejoin="round" stroke-miterlimit="10" stroke-width=".399" d="M140.04 125.164c.378 1.434 1.222 2.11 2.073 2.39-.851.278-1.695.958-2.074 2.391"/><use xlink:href="#a" x="145.831" y="130.044"/><use xlink:href="#b" x="151.525" y="130.044"/><use xlink:href="#c" x="155.4" y="130.044"/><use xlink:href="#d" x="158.997" y="130.044"/><path fill="none" stroke="#000" stroke-miterlimit="10" stroke-width=".399" d="M57.273 184.246V14.566"/><path fill="none" stroke="#000" stroke-linecap="round" stroke-linejoin="round" stroke-miterlimit="10" stroke-width=".399" d="M54.883 16.438c1.433-.38 2.11-1.223 2.39-2.07.278.847.954 1.69 2.391 2.07"/><use xlink:href="#e" x="48.978" y="8.158"/><use xlink:href="#b" x="54.22" y="8.158"/><use xlink:href="#c" x="58.094" y="8.158"/><use xlink:href="#d" x="61.692" y="8.158"/><path fill="none" stroke="#000" stroke-miterlimit="10" stroke-width=".399" d="M28.926 125.563v3.984"/><use xlink:href="#f" x="22.561" y="139.486"/><use xlink:href="#g" x="30.309" y="139.486"/><path fill="none" stroke="#000" stroke-miterlimit="10" stroke-width=".399" d="M113.965 125.563v3.984"/><use xlink:href="#h" x="111.474" y="139.486"/><path fill="none" stroke="#000" stroke-miterlimit="10" stroke-width=".399" d="M59.266 155.902H55.28"/><use xlink:href="#f" x="39.03" y="158.695"/><use xlink:href="#g" x="46.779" y="158.695"/><path fill="none" stroke="#000" stroke-miterlimit="10" stroke-width=".399" d="M59.266 99.207H55.28"/><use xlink:href="#g" x="46.779" y="102.417"/><path fill="none" stroke="#000" stroke-miterlimit="10" stroke-width=".399" d="M59.266 70.86H55.28"/><use xlink:href="#h" x="46.779" y="74.071"/><path fill="none" stroke="#000" stroke-miterlimit="10" stroke-width=".399" d="M59.266 42.512H55.28"/><use xlink:href="#i" x="46.779" y="45.725"/><path d="M59.086 127.555a1.815 1.815 0 1 0-3.63-.004 1.815 1.815 0 0 0 3.63.004m0 0"/><path fill="none" stroke="#000" stroke-miterlimit="10" stroke-width=".797" d="m57.422 129.363 1.086-.379.668-.922.05-1.125-.535-.972-.933-.574-1.086-.063-.98.43-.696.8-.305 1.004.118 1.032.484.902.766.664.933.36.992.035.946-.27.808-.535.621-.734.395-.864.156-.93-.082-.925-.293-.875-.48-.774-.633-.648-.746-.492-.824-.336-.864-.164-.867-.008-.851.148-.805.286-.742.41-.664.515-.57.602-.477.676-.375.726-.274.766-.172.785-.074.797.02.793.113.777.191.758.27.727.34.691.402.648.461.606.504.555.55.507.59.457.618.407.644.351.664.301.68.254.691.2.7.155.703.11.707.062.707.024.7-.02.694-.058.688-.098.68-.129.668-.164.66-.195.644-.223.63-.254.616-.277.606-.301.586-.328.574-.344.559-.367.539-.387.527-.406.512-.418.496-.434.48-.449.469-.465.45-.472.437-.489.425-.496.407-.507.398-.516.383-.524.367-.535.36-.539.343-.55.332-.555.325-.559.308-.566.3-.574.29-.579.281-.582.27-.59.258-.59.254-.597.242-.598.23-.605.227-.61.218-.609.207-.617.204-.617.195-.621.187-.625.184-.63.176-.632.168-.633.164-.637.156-.64.152-.645.149-.644.14-.653.137-.652.133-.652.129-.66.121-.66.121-.665.113-.668.114-.671.105-.672.106-.68.195-1.36.094-.687.18-1.383.081-.695.082-.703.079-.703.078-.707.074-.711.07-.711.07-.719.067-.723.062-.722.063-.73.062-.735.059-.738.055-.739.054-.746.055-.75.05-.754.052-.757.047-.762.046-.766.047-.773.043-.774.086-1.562.078-1.586.035-.797.04-.805.035-.808.035-.813.031-.816.031-.824.032-.829.03-.832.032-.84.027-.843.028-.848.027-.855.027-.86.024-.867.023-.871.028-.875.023-.883.02-.886.023-.895.024-.898.02-.903.038-1.828.02-.922.02-.93.015-.933.02-.941.015-.946.016-.953.015-.96.02-.966.011-.972.016-.977.016-.984.011-.989.016-1 .012-1.004.015-1.007.012-1.02.012-1.023.012-1.028.011-1.039.012-1.043.012-1.05.011-1.059.008-1.063.012-1.074.008-1.078.011-1.082.008-1.094.012-1.101"/><use xlink:href="#j" x="88.925" y="30.474"/><use xlink:href="#a" x="93.491" y="38.544"/><use xlink:href="#b" x="99.185" y="38.544"/><use xlink:href="#c" x="103.059" y="38.544"/><use xlink:href="#d" x="106.657" y="38.544"/><use xlink:href="#k" x="110.531" y="38.544"/><use xlink:href="#e" x="114.952" y="38.544"/><use xlink:href="#b" x="120.201" y="38.544"/><use xlink:href="#c" x="124.075" y="38.544"/><use xlink:href="#d" x="127.673" y="38.544"/><use xlink:href="#l" x="131.547" y="30.474"/><use xlink:href="#m" x="138.881" y="38.544"/><use xlink:href="#b" x="149.39" y="38.544"/><use xlink:href="#c" x="153.271" y="38.544"/><use xlink:href="#n" x="158.529" y="38.544"/><use xlink:href="#o" x="162.458" y="38.544"/><use xlink:href="#p" x="165.226" y="38.544"/><use xlink:href="#q" x="173.617" y="34.621"/><path fill="none" stroke="#000" stroke-miterlimit="10" stroke-width=".398" d="M173.617 36.055h3.973"/><use xlink:href="#r" x="174.098" y="41.979"/><use xlink:href="#k" x="178.784" y="38.544"/><use xlink:href="#c" x="183.205" y="38.544"/><use xlink:href="#s" x="188.47" y="38.544"/><use xlink:href="#t" x="192.897" y="38.544"/><use xlink:href="#n" x="197.879" y="38.544"/><use xlink:href="#q" x="204.664" y="34.621"/><path fill="none" stroke="#000" stroke-miterlimit="10" stroke-width=".398" d="M204.664 36.055h3.973"/><use xlink:href="#r" x="205.145" y="41.979"/><use xlink:href="#d" x="209.831" y="38.544"/><path fill="red" d="M77.313 127.555a1.994 1.994 0 0 0-3.989 0 1.994 1.994 0 0 0 3.988 0m0 0"/><path fill="#FFF" d="M75.52 150.23h31.097v-18.492H75.52Zm0 0"/><use xlink:href="#b" x="78.838" y="143.475" fill="red"/><use xlink:href="#u" x="84.377" y="139.553" fill="red"/><path fill="none" stroke="red" stroke-miterlimit="10" stroke-width=".398" d="M83.906 140.984h4.91"/><use xlink:href="#v" x="83.908" y="146.911" fill="red"/><use xlink:href="#k" x="90.012" y="143.475" fill="red"/><g fill="red"><use xlink:href="#w" x="94.44" y="143.475"/><use xlink:href="#d" x="99.421" y="143.475"/></g></svg>