<svg xmlns="http://www.w3.org/2000/svg" xmlns:xlink="http://www.w3.org/1999/xlink" width="101.998" height="83.036"><defs><path id="b" d="M5.563-1.812c.14 0 .312 0 .312-.172 0-.188-.172-.188-.312-.188H1c-.125 0-.297 0-.297.188 0 .172.172.172.297.172Zm0 0"/><path id="c" d="M2.5-5.078c0-.219-.016-.219-.234-.219-.328.313-.75.5-1.5.5v.266c.218 0 .64 0 1.109-.203v4.078c0 .297-.031.39-.781.39H.812V0c.329-.031 1.016-.031 1.376-.031s1.046 0 1.374.031v-.266h-.28c-.75 0-.782-.093-.782-.39Zm0 0"/><path id="d" d="M3.89-2.547c0-.844-.078-1.36-.343-1.875-.344-.703-1-.875-1.438-.875-1 0-1.375.75-1.484.969C.344-3.75.328-2.953.328-2.547c0 .531.016 1.328.406 1.969.36.594.954.75 1.375.75.391 0 1.063-.125 1.47-.906.296-.578.312-1.297.312-1.813M2.11-.062c-.266 0-.813-.125-.985-.954-.094-.453-.094-1.203-.094-1.625 0-.546 0-1.109.094-1.546.172-.813.781-.891.984-.891.266 0 .829.14.985.86.094.437.094 1.046.094 1.577 0 .47 0 1.188-.094 1.641-.172.828-.719.938-.985.938m0 0"/><path id="e" d="M2.25-1.625c.125-.125.453-.39.594-.5.484-.453.953-.89.953-1.61 0-.953-.797-1.562-1.781-1.562-.97 0-1.594.719-1.594 1.438 0 .39.312.437.422.437.172 0 .422-.11.422-.422 0-.406-.407-.406-.5-.406.234-.594.765-.781 1.156-.781.734 0 1.125.625 1.125 1.297 0 .828-.578 1.437-1.531 2.39l-1 1.047C.422-.219.422-.203.422 0h3.14l.235-1.422h-.25c-.016.156-.078.547-.172.703-.047.063-.656.063-.781.063H1.172Zm0 0"/><clipPath id="a"><path d="M0 0h101.996v81H0Zm0 0"/></clipPath></defs><path fill="none" stroke="#7F7F7F" stroke-linecap="round" stroke-miterlimit="10" stroke-width=".399" d="M8.48 73.164v-2.789M15.566 73.164v-2.789M29.738 73.164v-2.789M36.828 73.164v-2.789M43.914 73.164v-2.789M58.086 73.164v-2.789M65.172 73.164v-2.789M72.262 73.164v-2.789M86.434 73.164v-2.789M49.605 68.934h2.79M49.605 66.102h2.79M49.605 63.266h2.79M49.605 60.43h2.79M49.605 57.598h2.79M49.605 54.762h2.79M49.605 51.926h2.79M49.605 49.094h2.79M49.605 46.258h2.79M49.605 40.59h2.79M49.605 37.754h2.79M49.605 34.918h2.79M49.605 32.086h2.79M49.605 29.25h2.79M49.605 26.414h2.79M49.605 23.582h2.79M49.605 20.746h2.79M49.605 17.91h2.79M49.605 12.242h2.79M49.605 9.406h2.79"/><path fill="none" stroke="#000" stroke-linecap="round" stroke-miterlimit="10" stroke-width=".399" d="M22.652 73.762v-3.985M79.348 73.762v-3.985M49.008 43.422h3.984M49.008 15.078h3.984"/><path fill="none" stroke="#000" stroke-miterlimit="10" stroke-width=".399" d="M1.008 71.77h99.586"/><path fill="none" stroke="#000" stroke-linecap="round" stroke-linejoin="round" stroke-miterlimit="10" stroke-width=".399" d="M98.719 69.379c.379 1.433 1.222 2.113 2.074 2.39-.852.282-1.695.958-2.074 2.391"/><path fill="none" stroke="#000" stroke-miterlimit="10" stroke-width=".399" d="M51 79.242V.918"/><path fill="none" stroke="#000" stroke-linecap="round" stroke-linejoin="round" stroke-miterlimit="10" stroke-width=".399" d="M48.61 2.79c1.433-.38 2.113-1.224 2.39-2.071.277.847.957 1.691 2.39 2.07"/><g clip-path="url(#a)"><path fill="none" stroke="#000" stroke-miterlimit="10" stroke-width=".598" d="M8.48 7.988s2.56 7.485 3.543 10.188a371 371 0 0 0 3.543 9.3c.985 2.461 2.559 6.204 3.543 8.419.985 2.21 2.563 5.562 3.543 7.527a166 166 0 0 0 3.543 6.644 119 119 0 0 0 3.543 5.758c.985 1.477 2.563 3.645 3.547 4.871.98 1.23 2.559 3.004 3.543 3.989.98.984 2.559 2.363 3.543 3.101.98.735 2.559 1.723 3.543 2.215.984.488 2.559 1.082 3.543 1.328s2.559.442 3.543.442 2.559-.196 3.543-.442 2.559-.84 3.543-1.328c.984-.492 2.562-1.48 3.543-2.215.984-.738 2.562-2.117 3.543-3.101.984-.985 2.562-2.758 3.543-3.989.984-1.226 2.562-3.394 3.547-4.87a119 119 0 0 0 3.543-5.759c.98-1.718 2.558-4.675 3.543-6.644.98-1.965 2.558-5.317 3.543-7.527a291 291 0 0 0 3.543-8.418 371 371 0 0 0 3.543-9.301c.984-2.703 3.543-10.188 3.543-10.188"/></g><use xlink:href="#b" x="17.243" y="81.555"/><use xlink:href="#c" x="23.83" y="81.555"/><use xlink:href="#c" x="77.229" y="81.555"/><use xlink:href="#d" x="44.11" y="79.563"/><use xlink:href="#c" x="42.117" y="45.992"/><use xlink:href="#e" x="42.117" y="17.646"/></svg>