<svg xmlns="http://www.w3.org/2000/svg" xmlns:xlink="http://www.w3.org/1999/xlink" width="65.997" height="131.33"><defs><path id="a" d="M11.297-5.75v-.625c-.406.031-.594.031-1.11.031-.593 0-.78 0-1.296-.031v.625c.125 0 .828 0 .828.188 0 0 0 .03-.047.171L8.156-1.656 6.516-5.75h.812v-.625c-.344.031-1.187.031-1.578.031l-1.469-.031v.625h.844a3 3 0 0 0 .172.422c.031.094.187.437.187.516l-.062.171-1.094 2.704L2.781-5.75h.813v-.625c-.328.031-1.297.031-1.688.031-.453 0-1.14 0-1.578-.031v.625h.844L3.375-.281c.094.25.156.36.469.36.156 0 .328 0 .437-.298l1.532-3.797L7.328-.25c.125.328.281.328.453.328.328 0 .36-.094.469-.344l2.078-5.14c.094-.25.14-.344.969-.344m0 0"/><path id="b" d="M5.828 0v-.469h-.703L3.453-2.453 4.61-3.75c.141-.14.204-.203 1.016-.203v-.469l-.906.031-1.032-.03v.468c.141 0 .266.015.376.078-.032.063-.032.094-.079.125l-.828.938-.984-1.141h.406v-.469L1.36-4.39.266-4.42v.468h.718l1.547 1.828L1.22-.656c-.157.187-.516.187-1 .187V0l.922-.031L2.156 0v-.469c-.172 0-.36-.047-.36-.11 0 0 0-.015.063-.093l.97-1.094L3.921-.469h-.39V0l1.202-.031Zm0 0"/><path id="c" d="M14.094-9.937V-11c-.828.047-.938.047-1.953.047L10.016-11v1.063s1.187 0 1.187.328c0 .062-.078.218-.094.297L8.203-3.078l-3.172-6.86h1.36V-11c-.594.047-2.282.047-2.97.047-.718 0-2.187 0-2.827-.047v1.063h1.594L6.766 0c-.125.297-.47 1.016-.594 1.313C5.656 2.422 4.859 4.14 3.125 4.14c-.11 0-.406 0-.672-.157.047-.015.797-.312.797-1.265 0-.813-.594-1.328-1.344-1.328-.765 0-1.36.515-1.36 1.359 0 1.172 1.095 2.203 2.579 2.203 2.031 0 3.375-1.828 3.86-2.922l5.28-11.422c.157-.343.25-.546 1.829-.546m0 0"/><path id="d" d="M3-.89h-.422c-.078.53-.406.578-.844.578h-.5l1.672-1.594c.063-.063.063-.063.063-.157 0-.156-.078-.156-.188-.156H.47l-.078.781h.406c.062-.453.375-.5.781-.5h.453L.344-.312C.297-.266.28-.266.28-.172.281 0 .375 0 .47 0h2.406Zm0 0"/></defs><path fill="none" stroke="#000" stroke-miterlimit="10" stroke-width=".399" d="M1.215 23.484h63.574V.883H1.215ZM19.719.883v22.601M32.805.883v22.601M54.57.883v22.601"/><use xlink:href="#a" x="4.537" y="15.333"/><use xlink:href="#b" x="23.239" y="8.626"/><use xlink:href="#c" x="36.327" y="15.208"/><use xlink:href="#d" x="58.09" y="20.166"/><path fill="none" stroke="#000" stroke-miterlimit="10" stroke-width=".399" d="M1.215 58.918h63.574V36.316H1.215Zm18.504-22.602v22.602m13.086-22.602v22.602M54.57 36.316v22.602"/><use xlink:href="#a" x="4.537" y="50.766"/><use xlink:href="#b" x="23.239" y="44.059"/><use xlink:href="#c" x="36.327" y="50.641"/><use xlink:href="#d" x="58.09" y="41.848"/><path fill="none" stroke="#000" stroke-miterlimit="10" stroke-width=".399" d="M1.215 94.352h63.574V71.75H1.215ZM19.719 71.75v22.602M32.805 71.75v22.602M54.57 71.75v22.602"/><use xlink:href="#a" x="4.537" y="86.199"/><use xlink:href="#b" x="23.239" y="85.262"/><use xlink:href="#c" x="36.327" y="86.074"/><use xlink:href="#d" x="58.09" y="84.156"/><path fill="none" stroke="#000" stroke-miterlimit="10" stroke-width=".399" d="M1.215 129.785h63.574v-22.601H1.215Zm18.504-22.601v22.601m13.086-22.601v22.601m21.765-22.601v22.601"/><use xlink:href="#a" x="4.537" y="121.507"/><use xlink:href="#b" x="23.239" y="121.507"/><use xlink:href="#c" x="36.327" y="121.507"/><use xlink:href="#d" x="58.09" y="121.507"/></svg>