<svg xmlns="http://www.w3.org/2000/svg" xmlns:xlink="http://www.w3.org/1999/xlink" width="88.616" height="44.912"><defs><clipPath id="a"><path d="M0 0h51v44.867H0Zm0 0"/></clipPath><clipPath id="c"><path d="M45 0h43.426v35H45Zm0 0"/></clipPath><path id="b" d="M8.25 0v-.469h-.969L4.72-6.703c-.11-.25-.219-.25-.39-.25-.282 0-.329.078-.391.25l-2.47 6c-.062.156-.093.234-.843.234H.406V0l1.172-.031c.39 0 .938 0 1.313.031v-.469S2-.469 2-.594l.047-.125.5-1.203h2.672l.593 1.453H4.86V0c.391-.031 1.329-.031 1.766-.031.39 0 1.266 0 1.625.031M5.016-2.39H2.734l1.141-2.766Zm0 0"/><path id="d" d="M7.5-1.86c0-.952-.844-1.624-2.031-1.702 1.078-.204 1.718-.797 1.718-1.563 0-.922-.875-1.719-2.468-1.719H.39v.469h1.078v5.906H.39V0h4.625C6.672 0 7.5-.875 7.5-1.86M5.766-5.124c0 .766-.47 1.39-1.438 1.39H2.766v-2.64h1.812c1.016 0 1.188.797 1.188 1.25m.28 3.266c0 .109 0 1.39-1.437 1.39H2.766v-2.906h1.937c.203 0 .672 0 1.016.422.328.422.328.984.328 1.094m0 0"/></defs><g clip-path="url(#a)"><path fill="none" stroke="#000" stroke-miterlimit="10" stroke-width=".399" d="M30.77 15.617v5.028h9.054v-3.543l5.317 5.312-5.317 5.316v-3.543H30.77v5.024h-5.88v9.059h3.544l-5.317 5.316-5.312-5.316h3.543v-9.06h-5.88v-5.023H6.415v3.543l-5.316-5.316 5.316-5.312v3.543h9.055v-5.028h5.879V6.56h-3.543l5.312-5.313 5.317 5.313H24.89v9.058Zm0 0"/></g><use xlink:href="#b" x="18.79" y="25.892"/><g clip-path="url(#c)"><path fill="none" stroke="#000" stroke-miterlimit="10" stroke-width=".399" d="M87.207 15.676v13.476H72.418v-4.965H56.273v3.543l-5.316-5.316 5.316-5.312v3.543h16.145v-4.97h5.621V6.622h-3.543l5.317-5.316 5.316 5.316h-3.543v9.055Zm0 0"/></g><use xlink:href="#d" x="75.737" y="25.832"/></svg>