<svg xmlns="http://www.w3.org/2000/svg" width="89.149" height="60.806"><path fill="none" stroke="#7F7F7F" stroke-miterlimit="10" stroke-width=".199" d="M.684 59.605h85.039M.683 31.258h85.04M.683 2.922h85.04M.683 59.605V2.915m28.348 56.69V2.915m28.348 56.69V2.915m28.336 56.69V2.915"/><path fill="red" d="M59.371 2.914A1.996 1.996 0 0 0 57.38.918a1.997 1.997 0 0 0-1.996 1.996c0 1.098.894 1.992 1.996 1.992a1.996 1.996 0 0 0 1.992-1.992m0 0"/><path fill="#0F0" d="M59.371 31.258a1.996 1.996 0 0 0-1.992-1.992 1.996 1.996 0 0 0-1.996 1.992 1.994 1.994 0 0 0 3.988 0m0 0"/><path fill="#00F" d="M31.023 31.258a1.993 1.993 0 1 0-3.983.002 1.993 1.993 0 0 0 3.983-.002m0 0"/><path d="M87.715 17.086a1.993 1.993 0 1 0-3.983.002 1.993 1.993 0 0 0 3.983-.002m0 0"/></svg>