<svg xmlns="http://www.w3.org/2000/svg" xmlns:xlink="http://www.w3.org/1999/xlink" width="82.557" height="54.038"><defs><path id="b" d="M2.5-5.078c0-.219-.016-.219-.234-.219-.328.313-.75.5-1.5.5v.266c.218 0 .64 0 1.109-.203v4.078c0 .297-.031.39-.781.39H.812V0c.329-.031 1.016-.031 1.376-.031s1.046 0 1.374.031v-.266h-.28c-.75 0-.782-.093-.782-.39Zm0 0"/><path id="c" d="M2.25-1.625c.125-.125.453-.39.594-.5.484-.453.953-.89.953-1.61 0-.953-.797-1.562-1.781-1.562-.97 0-1.594.719-1.594 1.438 0 .39.312.437.422.437.172 0 .422-.11.422-.422 0-.406-.407-.406-.5-.406.234-.594.765-.781 1.156-.781.734 0 1.125.625 1.125 1.297 0 .828-.578 1.437-1.531 2.39l-1 1.047C.422-.219.422-.203.422 0h3.14l.235-1.422h-.25c-.016.156-.078.547-.172.703-.047.063-.656.063-.781.063H1.172Zm0 0"/><path id="d" d="M3.89-2.547c0-.844-.078-1.36-.343-1.875-.344-.703-1-.875-1.438-.875-1 0-1.375.75-1.484.969C.344-3.75.328-2.953.328-2.547c0 .531.016 1.328.406 1.969.36.594.954.75 1.375.75.391 0 1.063-.125 1.47-.906.296-.578.312-1.297.312-1.813M2.11-.062c-.266 0-.813-.125-.985-.954-.094-.453-.094-1.203-.094-1.625 0-.546 0-1.109.094-1.546.172-.813.781-.891.984-.891.266 0 .829.14.985.86.094.437.094 1.046.094 1.577 0 .47 0 1.188-.094 1.641-.172.828-.719.938-.985.938m0 0"/><clipPath id="a"><path d="M0 0h82.336v53.559H0Zm0 0"/></clipPath></defs><path fill="none" stroke="#000" stroke-linecap="round" stroke-miterlimit="10" stroke-width=".399" d="M45.512 38.3v-3.984M73.86 38.3v-3.984M15.172 7.965h3.984"/><path fill="none" stroke="#000" stroke-miterlimit="10" stroke-width=".399" d="M.785 36.309H80.93"/><path fill="none" stroke="#000" stroke-linecap="round" stroke-linejoin="round" stroke-miterlimit="10" stroke-width=".399" d="M79.055 33.918c.379 1.437 1.222 2.113 2.074 2.39-.852.282-1.695.958-2.074 2.391"/><path fill="none" stroke="#000" stroke-miterlimit="10" stroke-width=".399" d="M17.164 52.543V.918"/><path fill="none" stroke="#000" stroke-linecap="round" stroke-linejoin="round" stroke-miterlimit="10" stroke-width=".399" d="M14.773 2.793c1.434-.379 2.114-1.223 2.391-2.074.281.851.957 1.695 2.39 2.074"/><path fill="red" d="M67.36 7.965a5.668 5.668 0 1 0-11.337 0 5.667 5.667 0 0 0 5.668 5.668 5.667 5.667 0 0 0 5.668-5.668m0 0"/><g clip-path="url(#a)"><path fill="none" stroke="#000" stroke-miterlimit="10" stroke-width=".598" d="m8.258 45.07 2.734-2.636 2.735-2.696 2.73-2.722 2.734-2.73 2.735-2.712 2.734-2.672 2.73-2.597 2.735-2.508 2.734-2.39 2.73-2.25 2.735-2.094 2.735-1.915 2.73-1.718 2.734-1.504 2.735-1.278 2.73-1.039 2.735-.793 2.734-.535 2.734-.277 2.73-.012 2.735.25 2.735.512 2.73.766 2.734 1.015"/></g><use xlink:href="#b" x="43.394" y="46.095"/><use xlink:href="#c" x="71.74" y="46.095"/><use xlink:href="#d" x="10.274" y="44.102"/><use xlink:href="#b" x="8.281" y="10.532"/></svg>