<svg xmlns="http://www.w3.org/2000/svg" xmlns:xlink="http://www.w3.org/1999/xlink" width="340.238" height="40.214"><defs><path id="a" d="M2.531-6.312c0-.391-.36-.72-.781-.72-.437 0-.797.329-.797.72 0 .046 0 .078.031.171L1.5-2.516c.031.25.031.266.25.266.188 0 .219-.016.25-.219l.516-3.718Zm-.015 5.53a.78.78 0 0 0-.766-.78.784.784 0 0 0-.781.78.774.774 0 1 0 1.547 0m0 0"/><path id="b" d="M5.563-6.422H3.53c-.234 0-1.703-.047-1.844-.094-.203-.03-.218-.125-.234-.218H.984l-.343 2.53h.468c.094-.765.22-.89.266-.905.11-.063.922-.063 1.094-.063H4.14c-.172.219-.36.422-.547.64-.953 1.126-1.672 2.47-1.672 3.938 0 .703.562.703.625.703.156 0 .625-.046.625-.703v-.468c0-.47.031-.954.094-1.422.093-.672.297-1.25.656-1.657l1.547-1.796c.093-.11.093-.141.093-.485m0 0"/><path id="c" d="M5.156-2c0-1.156-.797-2.078-2.265-2.078-.282 0-.813.031-1.282.344v-1.313c.282.047.391.078.72.078 1.452 0 2.374-1.125 2.374-1.375 0-.078-.016-.187-.14-.187-.032 0-.032 0-.141.047a4.3 4.3 0 0 1-1.531.28c-.75 0-1.282-.202-1.547-.28-.094-.032-.094-.047-.125-.047-.14 0-.14.11-.14.265v2.922c0 .172 0 .297.218.297.125 0 .156-.031.219-.11.39-.468.922-.562 1.328-.562.89 0 .89.875.89 1.672 0 .735 0 1.735-1.187 1.735-.25 0-.875-.063-1.297-.625.36-.016.656-.266.656-.672 0-.532-.437-.672-.672-.672-.14 0-.671.094-.671.703 0 .844.78 1.687 2.015 1.687C4.172.11 5.156-.78 5.156-2m0 0"/><path id="d" d="M8.031-3.953v-.469a13 13 0 0 1-.781.031l-.953-.03v.468c.094 0 .578 0 .578.11 0 .03-.031.093-.031.124L5.797-1.172l-1.14-2.781h.562v-.469l-1.14.031c-.423 0-.845-.03-1-.03v.468h.593c.203.5.203.531.203.531 0 .031-.031.094-.031.125L3.047-1.39 2-3.953h.563v-.469l-1.235.031L.25-4.42v.468h.594L2.359-.234c.079.172.11.28.36.28s.297-.108.36-.28L4.14-2.812 5.188-.235c.078.172.109.28.359.28s.297-.108.36-.28L7.343-3.75c.047-.125.093-.203.687-.203m0 0"/><path id="e" d="M6.125 0v-.469h-.687v-2.578c0-1.047-.532-1.437-1.532-1.437a1.9 1.9 0 0 0-1.687.953v-3.39l-1.766.077v.469c.61 0 .688 0 .688.39v5.516H.453V0l1.25-.031L2.953 0v-.469h-.687v-2.078c0-1.094.859-1.578 1.5-1.578.328 0 .547.203.547.969V-.47h-.688V0l1.25-.031Zm0 0"/><path id="f" d="M2.844 0v-.469h-.61v-4.015L.5-4.406v.468c.594 0 .656 0 .656.391v3.078H.47V0l1.219-.031Zm-.469-6.047a.774.774 0 0 0-.781-.781.784.784 0 0 0-.782.781c0 .422.36.766.782.766a.77.77 0 0 0 .781-.766m0 0"/><path id="g" d="M3.813-1.234v-.532h-.47v.516c0 .672-.327.906-.609.906-.578 0-.578-.64-.578-.86v-2.75h1.469v-.468H2.156v-1.906h-.469c0 1-.484 1.984-1.484 2.016v.359h.828v2.734c0 1.063.86 1.282 1.578 1.282.75 0 1.204-.579 1.204-1.297m0 0"/><path id="h" d="M4.922-1.172c0-.172-.188-.172-.234-.172-.172 0-.188.047-.25.203-.204.485-.782.797-1.422.797-1.407 0-1.422-1.328-1.422-1.828h3.015c.22 0 .313 0 .313-.265 0-.313-.063-1.047-.563-1.547-.359-.36-.89-.532-1.578-.532C1.187-4.516.313-3.484.313-2.25c0 1.344 1 2.313 2.609 2.313 1.578 0 2-1.063 2-1.235M3.984-2.5h-2.39c.015-.39.031-.812.234-1.14.266-.391.672-.516.953-.516 1.172 0 1.188 1.312 1.203 1.656m0 0"/><path id="i" d="M4.14-1.39c0-.438-.202-.782-.546-1.063-.39-.281-.719-.344-1.485-.485-.375-.062-1.015-.171-1.015-.64 0-.625.922-.625 1.11-.625.75 0 1.124.297 1.171.844.016.156.031.203.234.203.235 0 .235-.047.235-.281v-.797c0-.188 0-.282-.172-.282-.047 0-.063 0-.453.188-.266-.125-.61-.188-1-.188-.313 0-1.844 0-1.844 1.313 0 .39.203.656.406.828.39.344.782.406 1.547.547.36.062 1.094.187 1.094.781 0 .75-.906.75-1.125.75C1.234-.297.984-1.03.859-1.453c-.046-.14-.109-.14-.234-.14-.25 0-.25.062-.25.28v1.094c0 .188 0 .282.188.282.062 0 .078 0 .296-.157l.25-.172c.47.329.985.329 1.188.329.312 0 1.844 0 1.844-1.454m0 0"/><path id="j" d="M5.406-2.172c0-1.344-.922-2.344-2.547-2.344C1.22-4.516.313-3.5.313-2.172c0 1.235.89 2.235 2.546 2.235 1.672 0 2.547-1.016 2.547-2.235m-1.281-.11c0 .86 0 1.938-1.266 1.938-1.265 0-1.265-1.078-1.265-1.937 0-.453 0-.953.172-1.297.187-.375.609-.578 1.093-.578.422 0 .844.156 1.063.5.203.344.203.89.203 1.375m0 0"/><path id="k" d="M6.125 0v-.469c-.61 0-.687 0-.687-.39v-3.625l-1.813.078v.468c.61 0 .688 0 .688.391v1.906c0 .813-.516 1.344-1.235 1.344-.781 0-.812-.25-.812-.797v-3.39l-1.813.078v.468c.61 0 .688 0 .688.391v2.328c0 1.063.797 1.282 1.797 1.282.25 0 .968 0 1.421-.782v.782Zm0 0"/><path id="l" d="M2.922 0v-.469h-.688v-6.453L.47-6.844v.469c.625 0 .687 0 .687.39v5.516H.47V0l1.219-.031Zm0 0"/><path id="m" d="M5.984 0v-.469c-.609 0-.687 0-.687-.39v-6.063l-1.766.078v.469c.625 0 .703 0 .703.39v1.954a2.18 2.18 0 0 0-1.359-.453c-1.453 0-2.5.875-2.5 2.28 0 1.313.922 2.267 2.39 2.267.61 0 1.094-.235 1.407-.485v.485ZM4.172-1.031c-.14.187-.547.734-1.297.734-1.219 0-1.219-1.203-1.219-1.906 0-.485 0-1.016.25-1.406.297-.422.766-.516 1.078-.516.563 0 .97.313 1.188.61Zm0 0"/><path id="n" d="M5.984-2.219c0-1.328-.937-2.265-2.39-2.265-.719 0-1.219.28-1.453.484v-2.922l-1.766.078v.469c.61 0 .688 0 .688.39V0h.468c.157-.187.328-.375.485-.562.078.078.562.625 1.453.625 1.484 0 2.515-.907 2.515-2.282m-1.28 0c0 .469 0 1.016-.25 1.406-.298.407-.75.516-1.079.516-.687 0-1.078-.547-1.187-.687v-2.5c.28-.36.75-.641 1.296-.641 1.22 0 1.22 1.203 1.22 1.906m0 0"/><path id="o" d="M2.36-4.203c0-.406-.266-.781-.782-.781A.83.83 0 0 0 1-4.75c.063-1.125.766-1.672.984-1.844.047-.031.079-.062.079-.125 0-.093-.11-.203-.188-.203-.14 0-1.234.844-1.234 2.25 0 .688.375 1.25.953 1.25.453 0 .765-.36.765-.781m2.515 0c0-.406-.266-.781-.781-.781a.8.8 0 0 0-.578.234c.062-1.125.765-1.672.984-1.844.031-.031.078-.062.078-.125 0-.093-.11-.203-.187-.203-.141 0-1.235.844-1.235 2.25 0 .688.375 1.25.953 1.25.454 0 .766-.36.766-.781m0 0"/><path id="p" d="M2.531-5.672c0-.687-.375-1.25-.953-1.25-.453 0-.766.36-.766.781 0 .407.282.782.782.782a.8.8 0 0 0 .578-.235c-.063 1.125-.75 1.672-.969 1.828-.047.032-.094.063-.094.141 0 .094.11.203.204.203.14 0 1.218-.86 1.218-2.25m2.516 0c0-.687-.375-1.25-.953-1.25-.453 0-.766.36-.766.781 0 .407.266.782.781.782a.8.8 0 0 0 .579-.235 2.35 2.35 0 0 1-.985 1.828c-.031.032-.078.063-.078.141 0 .094.11.203.188.203.14 0 1.234-.86 1.234-2.25m0 0"/><path id="q" d="M5.516-.234c0-.235-.125-.235-.266-.235-.61-.015-.61-.14-.61-.375v-2.14c0-.891-.702-1.532-2.187-1.532-.562 0-1.781.047-1.781.922 0 .438.344.625.61.625.312 0 .624-.219.624-.625 0-.297-.187-.469-.218-.5a5 5 0 0 1 .718-.062c.75 0 1.11.422 1.11 1.172v.343c-.72.032-3.25.125-3.25 1.563C.266-.125 1.5.062 2.188.062c.796 0 1.265-.406 1.484-.828 0 .313 0 .766 1.047.766h.468c.204 0 .329 0 .329-.234m-2-1.157c0 .97-.922 1.094-1.172 1.094-.516 0-.906-.344-.906-.797 0-1.062 1.578-1.203 2.078-1.234Zm0 0"/><path id="r" d="M4.766-1.172c0-.14-.141-.14-.235-.14-.187 0-.187.03-.25.156-.25.625-.734.812-1.234.812-1.39 0-1.39-1.453-1.39-1.922 0-.562 0-1.843 1.28-1.843.36 0 .516.015.657.046a.62.62 0 0 0-.203.47c0 .437.343.624.609.624.313 0 .64-.219.64-.625 0-.86-1.156-.922-1.734-.922C1.11-4.516.375-3.375.375-2.219.375-.89 1.313.063 2.844.063c1.625 0 1.922-1.157 1.922-1.235m0 0"/><path id="s" d="M5.86 0v-.469h-.173c-.437 0-.468-.047-.593-.203L3.406-2.766 4.703-3.78c.14-.11.234-.172.906-.172v-.469c-.28.031-.53.031-.78.031l-1.157-.03v.468c.234 0 .265.031.344.11L2.14-2.36v-4.563l-1.766.078v.469c.61 0 .688 0 .688.39v5.516H.375V0l1.188-.031L2.766 0v-.469h-.688v-1.265c.297-.235.375-.297.578-.422l1 1.25c.094.125.25.312.25.344 0 .093-.172.093-.312.093V0a53 53 0 0 1 1.219-.031c.359 0 .703.015 1.046.031m0 0"/><path id="t" d="M5.281-3.187c0-.954-.015-3.344-2.422-3.344S.453-4.156.453-3.188c0 1 0 3.297 2.406 3.297 2.391 0 2.422-2.296 2.422-3.296M4-3.297c0 .563 0 1.469-.078 1.985-.14.921-.766 1.062-1.063 1.062-.359 0-.921-.219-1.046-.953-.094-.516-.094-1.547-.094-2.094 0-.719 0-1.375.078-1.89.125-.891.828-.985 1.062-.985.375 0 .782.188.97.625C4-5.172 4-4.109 4-3.297m0 0"/></defs><g fill="#404040"><use xlink:href="#a" x="-.335" y="7.631"/><use xlink:href="#b" x="3.152" y="7.631"/><use xlink:href="#c" x="8.88" y="7.631"/><use xlink:href="#a" x="14.609" y="7.631"/><use xlink:href="#d" x="18.096" y="7.631"/><use xlink:href="#e" x="26.375" y="7.631"/><use xlink:href="#f" x="32.741" y="7.631"/><use xlink:href="#g" x="35.919" y="7.631"/><use xlink:href="#h" x="40.372" y="7.631"/></g><g fill="#404040"><use xlink:href="#i" x="49.438" y="7.631"/><use xlink:href="#e" x="53.961" y="7.631"/><use xlink:href="#j" x="60.328" y="7.631"/><use xlink:href="#k" x="66.056" y="7.631"/><use xlink:href="#l" x="72.422" y="7.631"/><use xlink:href="#m" x="75.6" y="7.631"/></g><use xlink:href="#n" x="85.782" y="7.631" fill="#404040"/><use xlink:href="#h" x="92.467" y="7.631" fill="#404040"/><g fill="#404040"><use xlink:href="#o" x="101.533" y="7.631"/><use xlink:href="#a" x="107.222" y="7.631"/><use xlink:href="#b" x="110.709" y="7.631"/><use xlink:href="#c" x="116.437" y="7.631"/><use xlink:href="#a" x="122.166" y="7.631"/><use xlink:href="#d" x="125.653" y="7.631"/><use xlink:href="#e" x="133.931" y="7.631"/><use xlink:href="#f" x="140.298" y="7.631"/><use xlink:href="#g" x="143.476" y="7.631"/><use xlink:href="#h" x="147.929" y="7.631"/><use xlink:href="#p" x="153.179" y="7.631"/></g><g fill="#404040"><use xlink:href="#a" x="-.335" y="23.172"/><use xlink:href="#b" x="3.152" y="23.172"/><use xlink:href="#c" x="8.88" y="23.172"/><use xlink:href="#a" x="14.609" y="23.172"/><use xlink:href="#n" x="18.096" y="23.172"/><use xlink:href="#l" x="24.462" y="23.172"/><use xlink:href="#q" x="27.64" y="23.172"/><use xlink:href="#r" x="33.209" y="23.172"/></g><g fill="#404040"><use xlink:href="#s" x="37.981" y="23.172"/><use xlink:href="#a" x="44.029" y="23.172"/><use xlink:href="#b" x="47.516" y="23.172"/><use xlink:href="#c" x="53.244" y="23.172"/><use xlink:href="#a" x="58.973" y="23.172"/><use xlink:href="#d" x="62.46" y="23.172"/><use xlink:href="#e" x="70.738" y="23.172"/><use xlink:href="#f" x="77.105" y="23.172"/><use xlink:href="#g" x="80.283" y="23.172"/><use xlink:href="#h" x="84.736" y="23.172"/></g><g fill="#404040"><use xlink:href="#i" x="93.802" y="23.172"/><use xlink:href="#e" x="98.325" y="23.172"/><use xlink:href="#j" x="104.691" y="23.172"/><use xlink:href="#k" x="110.42" y="23.172"/><use xlink:href="#l" x="116.786" y="23.172"/><use xlink:href="#m" x="119.964" y="23.172"/></g><use xlink:href="#n" x="130.146" y="23.172" fill="#404040"/><use xlink:href="#h" x="136.831" y="23.172" fill="#404040"/><g fill="#404040"><use xlink:href="#o" x="145.897" y="23.172"/><use xlink:href="#a" x="151.585" y="23.172"/><use xlink:href="#b" x="155.072" y="23.172"/><use xlink:href="#c" x="160.801" y="23.172"/><use xlink:href="#a" x="166.529" y="23.172"/><use xlink:href="#n" x="170.016" y="23.172"/><use xlink:href="#l" x="176.382" y="23.172"/><use xlink:href="#q" x="179.56" y="23.172"/><use xlink:href="#r" x="185.13" y="23.172"/></g><g fill="#404040"><use xlink:href="#s" x="189.902" y="23.172"/><use xlink:href="#a" x="195.949" y="23.172"/><use xlink:href="#b" x="199.436" y="23.172"/><use xlink:href="#c" x="205.164" y="23.172"/><use xlink:href="#a" x="210.893" y="23.172"/><use xlink:href="#d" x="214.38" y="23.172"/><use xlink:href="#e" x="222.659" y="23.172"/><use xlink:href="#f" x="229.025" y="23.172"/><use xlink:href="#g" x="232.203" y="23.172"/><use xlink:href="#h" x="236.656" y="23.172"/><use xlink:href="#p" x="241.907" y="23.172"/></g><g fill="#878787"><use xlink:href="#a" x="-.335" y="38.714"/><use xlink:href="#c" x="3.152" y="38.714"/><use xlink:href="#t" x="8.88" y="38.714"/><use xlink:href="#a" x="14.609" y="38.714"/><use xlink:href="#d" x="18.096" y="38.714"/><use xlink:href="#e" x="26.375" y="38.714"/><use xlink:href="#f" x="32.741" y="38.714"/><use xlink:href="#g" x="35.919" y="38.714"/><use xlink:href="#h" x="40.372" y="38.714"/><use xlink:href="#a" x="45.623" y="38.714"/><use xlink:href="#b" x="49.11" y="38.714"/><use xlink:href="#c" x="54.838" y="38.714"/><use xlink:href="#a" x="60.567" y="38.714"/><use xlink:href="#n" x="64.054" y="38.714"/><use xlink:href="#l" x="70.42" y="38.714"/><use xlink:href="#q" x="73.598" y="38.714"/><use xlink:href="#r" x="79.167" y="38.714"/></g><g fill="#878787"><use xlink:href="#s" x="83.939" y="38.714"/><use xlink:href="#a" x="89.986" y="38.714"/><use xlink:href="#b" x="93.473" y="38.714"/><use xlink:href="#c" x="99.202" y="38.714"/><use xlink:href="#a" x="104.93" y="38.714"/><use xlink:href="#d" x="108.417" y="38.714"/><use xlink:href="#e" x="116.696" y="38.714"/><use xlink:href="#f" x="123.062" y="38.714"/><use xlink:href="#g" x="126.24" y="38.714"/><use xlink:href="#h" x="130.694" y="38.714"/></g><g fill="#878787"><use xlink:href="#i" x="139.76" y="38.714"/><use xlink:href="#e" x="144.283" y="38.714"/><use xlink:href="#j" x="150.649" y="38.714"/><use xlink:href="#k" x="156.377" y="38.714"/><use xlink:href="#l" x="162.743" y="38.714"/><use xlink:href="#m" x="165.922" y="38.714"/></g><use xlink:href="#n" x="176.103" y="38.714" fill="#878787"/><use xlink:href="#h" x="182.788" y="38.714" fill="#878787"/><g fill="#878787"><use xlink:href="#o" x="191.854" y="38.714"/><use xlink:href="#a" x="197.543" y="38.714"/><use xlink:href="#c" x="201.03" y="38.714"/><use xlink:href="#t" x="206.758" y="38.714"/><use xlink:href="#a" x="212.487" y="38.714"/><use xlink:href="#d" x="215.974" y="38.714"/><use xlink:href="#e" x="224.253" y="38.714"/><use xlink:href="#f" x="230.619" y="38.714"/><use xlink:href="#g" x="233.797" y="38.714"/><use xlink:href="#h" x="238.25" y="38.714"/><use xlink:href="#a" x="243.501" y="38.714"/><use xlink:href="#b" x="246.988" y="38.714"/><use xlink:href="#c" x="252.716" y="38.714"/><use xlink:href="#a" x="258.445" y="38.714"/><use xlink:href="#n" x="261.931" y="38.714"/><use xlink:href="#l" x="268.298" y="38.714"/><use xlink:href="#q" x="271.476" y="38.714"/><use xlink:href="#r" x="277.045" y="38.714"/></g><g fill="#878787"><use xlink:href="#s" x="281.817" y="38.714"/><use xlink:href="#a" x="287.864" y="38.714"/><use xlink:href="#b" x="291.351" y="38.714"/><use xlink:href="#c" x="297.08" y="38.714"/><use xlink:href="#a" x="302.808" y="38.714"/><use xlink:href="#d" x="306.295" y="38.714"/><use xlink:href="#e" x="314.574" y="38.714"/><use xlink:href="#f" x="320.94" y="38.714"/><use xlink:href="#g" x="324.118" y="38.714"/><use xlink:href="#h" x="328.572" y="38.714"/><use xlink:href="#p" x="333.822" y="38.714"/></g></svg>