<svg xmlns="http://www.w3.org/2000/svg" xmlns:xlink="http://www.w3.org/1999/xlink" width="444.35" height="115.526"><defs><path id="a" d="M1.781-1.14C1.391-.485 1-.345.563-.314c-.125.016-.22.016-.22.204 0 .062.063.109.141.109.266 0 .579-.031.844-.031.344 0 .688.031 1 .031.063 0 .188 0 .188-.187 0-.11-.079-.125-.157-.125-.218-.016-.468-.094-.468-.344 0-.125.062-.235.14-.375l.766-1.266h2.5c.016.203.156 1.563.156 1.656 0 .297-.516.329-.719.329-.14 0-.234 0-.234.203C4.5 0 4.61 0 4.64 0c.407 0 .829-.031 1.235-.031.25 0 .89.031 1.14.031.048 0 .173 0 .173-.203 0-.11-.094-.11-.235-.11-.61 0-.61-.062-.64-.359l-.61-6.219c-.016-.203-.016-.25-.187-.25-.157 0-.203.079-.266.172Zm1.203-1.47 1.954-3.296.328 3.297Zm0 0"/><path id="b" d="M1.594-.781c-.094.39-.125.469-.907.469-.171 0-.265 0-.265.203C.422 0 .516 0 .688 0H4.25C5.828 0 7-1.172 7-2.156c0-.719-.578-1.297-1.547-1.406 1.031-.188 2.078-.922 2.078-1.876 0-.734-.656-1.375-1.843-1.375h-3.36c-.187 0-.281 0-.281.204 0 .109.094.109.281.109.016 0 .203 0 .375.016.172.03.266.03.266.172 0 .03-.016.062-.031.187Zm1.5-2.875.625-2.469c.094-.344.11-.375.531-.375h1.297c.875 0 1.078.594 1.078 1.031 0 .875-.86 1.813-2.062 1.813ZM2.656-.312h-.219c-.109-.016-.14-.032-.14-.11 0-.031 0-.047.062-.219l.688-2.78h1.875c.953 0 1.156.733 1.156 1.155 0 .985-.89 1.954-2.078 1.954Zm0 0"/><path id="d" d="M1.578-.781c-.094.39-.11.469-.906.469-.156 0-.266 0-.266.187C.406 0 .484 0 .672 0h3.312c2.063 0 4.032-2.11 4.032-4.281 0-1.407-.844-2.532-2.344-2.532H2.328c-.187 0-.297 0-.297.188 0 .125.078.125.281.125.126 0 .313.016.422.016.172.03.22.046.22.172 0 .03 0 .062-.032.187Zm2.156-5.344c.094-.344.11-.375.547-.375h1.063c.968 0 1.797.531 1.797 1.844 0 .484-.188 2.125-1.047 3.218A2.92 2.92 0 0 1 3.797-.312H2.453c-.094-.016-.125-.032-.125-.11 0-.031 0-.047.047-.219Zm0 0"/><path id="f" d="M7.063-2.328c.015-.047.046-.11.046-.14 0 0 0-.11-.125-.11-.093 0-.109.062-.125.125-.656 1.469-1.015 2.14-2.718 2.14H2.468c-.109-.015-.14-.03-.14-.109 0-.031 0-.047.047-.219l.688-2.734h.984c.844 0 .844.219.844.469 0 .062 0 .187-.063.484-.016.047-.031.078-.031.11 0 .046.031.109.125.109.078 0 .11-.047.156-.203l.563-2.328c0-.063-.047-.11-.125-.11-.079 0-.11.063-.125.172-.22.766-.391 1-1.313 1h-.937l.593-2.406c.094-.36.11-.39.547-.39h1.407c1.203 0 1.515.28 1.515 1.109 0 .234 0 .25-.047.53 0 .048-.015.126-.015.173s.03.125.125.125c.109 0 .125-.063.14-.25l.203-1.735c.032-.265-.015-.265-.265-.265H2.297c-.188 0-.297 0-.297.203 0 .11.094.11.281.11.375 0 .656 0 .656.171 0 .047 0 .063-.062.25L1.563-.78c-.094.39-.11.469-.907.469-.172 0-.281 0-.281.187C.375 0 .469 0 .656 0h5.172c.234 0 .25-.016.313-.172Zm0 0"/><path id="g" d="M7.578-6.922c0-.031-.016-.11-.11-.11-.03 0-.046.016-.155.126l-.688.765c-.094-.14-.547-.89-1.656-.89C2.734-7.031.5-4.828.5-2.516.5-.875 1.672.22 3.203.22c.86 0 1.625-.39 2.156-.86.922-.812 1.094-1.718 1.094-1.75 0-.109-.11-.109-.125-.109-.062 0-.11.031-.125.11-.094.28-.328 1-1.016 1.578-.687.546-1.312.718-1.828.718-.89 0-1.953-.515-1.953-2.062 0-.578.203-2.188 1.203-3.36.61-.703 1.547-1.203 2.438-1.203 1.016 0 1.61.766 1.61 1.922 0 .406-.032.406-.032.516 0 .093.11.093.14.093.126 0 .126-.015.188-.203Zm0 0"/><path id="h" d="M6.64-4.39c0-.985-.906-1.766-2.437-1.766H.375v.437h.969v5.282H.375V0c.313-.031 1.25-.031 1.61-.031.374 0 1.312 0 1.624.031v-.437h-.968v-2.25h1.656c1.281 0 2.344-.657 2.344-1.704m-1.406 0c0 .624 0 1.312-1.375 1.312H2.594v-2.64h1.265c1.375 0 1.375.687 1.375 1.327m0 0"/><path id="i" d="M4.078-3.281c0-.453-.469-.75-1-.75-.625 0-1 .453-1.203.968h-.016v-.968L.375-3.97v.438c.531 0 .61 0 .61.36v2.734h-.61V0l1.14-.031c.22 0 .75 0 1.22.031v-.437h-.766v-1.516c0-.656.25-1.703 1.11-1.719a.57.57 0 0 0-.142.39c0 .391.313.579.563.579.297 0 .578-.203.578-.578m0 0"/><path id="j" d="M5-1.953c0-1.172-.828-2.11-2.344-2.11-1.578 0-2.36.985-2.36 2.11 0 1.11.813 2 2.345 2C4.25.047 5-.891 5-1.953m-1.187-.094c0 .766 0 1.719-1.157 1.719-1.172 0-1.172-.953-1.172-1.719 0-.765 0-1.656 1.157-1.656 1.172 0 1.172.89 1.172 1.656m0 0"/><path id="k" d="M5.531-1.984c0-1.188-.812-2.047-2.172-2.047-.718 0-1.218.297-1.39.422v-.422L.375-3.97v.438c.172 0 .313 0 .438.031.171.031.171.125.171.313v4.484H.375v.437L1.5 1.72l1.14.015v-.437h-.609v-1.64c.531.39 1.016.39 1.188.39 1.406 0 2.312-.844 2.312-2.031M4.344-2c0 1.25-.64 1.688-1.235 1.688-.453 0-.843-.25-1.078-.625v-2.157a1.55 1.55 0 0 1 1.188-.562c.625 0 1.125.562 1.125 1.656m0 0"/><path id="l" d="M3.828-1.25c0-.469-.265-.75-.422-.89-.406-.329-.687-.376-1.39-.5-.438-.063-1-.157-1-.563 0-.531.828-.531 1.03-.531 1 0 1.032.53 1.063.765 0 .125.125.125.22.125.218 0 .233-.047.233-.265v-.688c0-.172 0-.265-.187-.265-.078 0-.234.078-.39.156-.282-.125-.641-.156-.938-.156-.266 0-1.703 0-1.703 1.187 0 .938 1.187 1.14 1.5 1.188.734.125 1.328.218 1.328.734 0 .64-.844.64-1.047.64-.453 0-1.047-.109-1.297-.937-.047-.156-.062-.172-.25-.172-.234 0-.234.047-.234.266v.953c0 .156 0 .25.187.25.063 0 .078 0 .282-.125l.234-.14c.422.265.906.265 1.078.265.266 0 1.703 0 1.703-1.297m0 0"/><path id="m" d="M2.625 0v-.437h-.547v-3.594L.5-3.97v.438c.516 0 .578 0 .578.36v2.734h-.61V0c.595-.016.72-.031 1.095-.031.437 0 .546.015 1.062.031m-.453-5.422a.713.713 0 0 0-.703-.719.71.71 0 0 0-.703.704.7.7 0 0 0 .703.703.697.697 0 0 0 .703-.688m0 0"/><path id="n" d="M3.531-1.11v-.468h-.469v.453c0 .625-.312.797-.546.797C2-.328 2-.875 2-1.078v-2.469h1.36v-.437H2v-1.703h-.453c-.016.828-.438 1.765-1.344 1.78v.36h.75v2.438c0 1.03.89 1.156 1.438 1.156.703 0 1.14-.5 1.14-1.156m0 0"/><path id="o" d="M5.656 0v-.437h-.61v-2.297c0-1.063-.655-1.297-1.437-1.297-1.093 0-1.53.797-1.593.937H2v-.937L.453-3.97v.438c.531 0 .61 0 .61.36v2.734h-.61V0l1.125-.031L2.718 0v-.437H2.11v-1.844c0-1 .829-1.39 1.36-1.39.344 0 .515.187.515.858v2.376h-.609V0l1.14-.031Zm0 0"/><path id="p" d="M3.656 0v-.437H2.641V-5.72h1.015v-.437c-.312.031-1.281.031-1.656.031s-1.36 0-1.672-.031v.437h1.016v5.282H.328V0C.641-.031 1.61-.031 1.984-.031c.391 0 1.36 0 1.672.031m0 0"/><path id="I" d="M5.922-2.469h-.453c-.063.61-.219 2.031-1.86 2.031h-.968v-5.28h1.218v-.438c-.375.031-1.39.031-1.812.031-.375 0-1.36 0-1.672-.031v.437h.969v5.282H.375V0h5.281Zm0 0"/><path id="J" d="M4.563-1.047c0-.172-.172-.172-.235-.172-.156 0-.172.047-.234.172-.203.469-.75.719-1.313.719-1.281 0-1.297-1.156-1.297-1.594h2.782c.187 0 .297 0 .297-.25 0-.203-.016-1-.594-1.484-.406-.328-.953-.406-1.39-.406-1.532 0-2.282.968-2.282 2.046 0 1.172.89 2.063 2.406 2.063 1.485 0 1.86-.938 1.86-1.094M3.688-2.25H1.483c.016-.406.063-1.453 1.094-1.453 1.047 0 1.094 1.094 1.11 1.453m0 0"/><path id="M" d="M5.531-1.984c0-1.22-.875-2.047-2.187-2.047-.719 0-1.203.297-1.375.422v-2.61l-1.594.063v.437c.531 0 .61 0 .61.36V0h.453l.421-.516c.282.297.72.563 1.36.563 1.406 0 2.312-.844 2.312-2.031m-1.187-.032c0 .391 0 .844-.188 1.172-.297.5-.843.532-1.031.532-.547 0-.906-.329-1.094-.625V-3.11a1.55 1.55 0 0 1 1.203-.563c1.11 0 1.11 1.078 1.11 1.656m0 0"/><path id="N" d="M5.656 0v-.437h-.61v-2.297c0-1.063-.655-1.297-1.437-1.297-.843 0-1.328.484-1.562.843v-3.03l-1.594.062v.437c.531 0 .61 0 .61.36v4.922h-.61V0l1.125-.031L2.718 0v-.437H2.11v-1.844c0-1 .829-1.39 1.36-1.39.344 0 .515.187.515.858v2.376h-.609V0l1.14-.031Zm0 0"/><path id="O" d="M5.156-3.547c0-.234-.172-.547-.593-.547-.438 0-.813.219-.985.344-.375-.219-.781-.281-1.219-.281-1.375 0-1.843.734-1.843 1.328 0 .484.312.812.468.937a1.25 1.25 0 0 0-.296.782c0 .39.187.703.375.875C.39.078.297.453.297.656c0 .532.625 1.14 2.344 1.14C4.219 1.797 5 1.313 5 .626c0-.312-.11-.86-.734-1.156C3.75-.766 3.28-.766 2.39-.766h-.453c-.282 0-.407 0-.563-.109a.56.56 0 0 1-.203-.453c0-.172.062-.281.062-.281.329.172.735.234 1.125.234 1.375 0 1.844-.734 1.844-1.328 0-.36-.172-.656-.36-.844.235-.125.423-.14.532-.172 0 .047-.031.094-.031.188a.407.407 0 1 0 .813-.016m-1.984.844c0 .39 0 .969-.813.969s-.812-.578-.812-.97c0-.405 0-.968.812-.968s.813.563.813.969M4.203.657c0 .296-.328.78-1.547.78C1.47 1.438 1.094 1 1.094.642c0-.516.578-.516.703-.516H2.89c.28 0 1.312 0 1.312.531m0 0"/><path id="P" d="M5.344-3.547v-.437c-.25.03-.469.03-.719.03-.266 0-.547 0-.812-.03v.437c.25 0 .328.047.406.078 0 .047 0 .063-.047.125L3.094-1.109 1.922-3.547h.469v-.437l-1.11.03c-.328 0-.5 0-1.031-.03v.437h.563L2.422-.203c.078.172.156.25.375.25s.297-.078.375-.25L4.687-3.36c.063-.125.094-.188.657-.188m0 0"/><path id="Q" d="M5.516 0v-.437h-.61v-3.641l-1.61.047v.047H1.923v-.86c0-.781.703-1.078 1.453-1.078.11 0 .39 0 .64.14a.62.62 0 0 0-.359.579c0 .344.25.594.61.594.328 0 .593-.235.593-.61 0-.468-.39-1.062-1.406-1.062-1.172 0-2.469.36-2.469 1.422v.875H.281v.437h.703v3.11H.375V0l1.094-.031L2.579 0v-.437h-.61v-3.11h1.687c.203 0 .25 0 .25.313v2.797h-.61V0l1.11-.031Zm0 0"/><path id="R" d="M5.11-.219c0-.218-.157-.218-.235-.218-.578-.016-.578-.094-.578-.313v-1.922c0-.797-.64-1.39-2.031-1.39-.5 0-1.657.015-1.657.843 0 .406.313.594.579.594.312 0 .593-.219.593-.578 0-.266-.156-.422-.187-.453.093-.016.312-.047.64-.047.641 0 1.016.328 1.016 1.031v.281C1.766-2.39.25-2 .25-1 .25-.11 1.375.047 2.016.047c.687 0 1.156-.281 1.39-.703 0 .219 0 .656.969.656h.438c.171 0 .296 0 .296-.219M3.25-1.25c0 .938-1.047.938-1.078.938-.453 0-.828-.282-.828-.688 0-.297.156-1 1.906-1.078Zm0 0"/><path id="S" d="M2.688 0v-.437h-.61V-6.22l-1.61.063v.437c.532 0 .61 0 .61.36v4.922h-.61V0l1.095-.031Zm0 0"/><path id="T" d="M2.172-.703a.704.704 0 0 0-1.406 0A.71.71 0 0 0 1.469 0a.69.69 0 0 0 .703-.703m0 0"/><path id="U" d="M2.172-.703a.704.704 0 0 0-1.406 0A.71.71 0 0 0 1.469 0a.69.69 0 0 0 .703-.703m2.375 0a.7.7 0 0 0-.703-.703.7.7 0 0 0-.703.703.7.7 0 0 0 .703.703.7.7 0 0 0 .703-.703m2.375 0a.71.71 0 0 0-.703-.703.704.704 0 0 0-.719.703.71.71 0 0 0 .703.703.704.704 0 0 0 .719-.703m0 0"/><path id="q" d="m7.547-4.125.25-1.625c.031-.094.031-.14.031-.14 0-.157-.156-.157-.297-.157H2.547c-.203 0-.235 0-.297.156l-.453 1.297c-.063.188-.172.485-.172.547 0 .156.172.156.266.156.172 0 .203-.015.265-.187.422-1.219.672-1.547 1.828-1.547h.375L3.08-.469c-.032.016-.298.047-.735.047h-.406c-.157 0-.313 0-.313.266 0 .156.172.156.219.156l1.719-.031L5.343 0c.126 0 .266 0 .266-.266 0-.156-.14-.156-.28-.156h-.391c-.188 0-.47-.016-.641-.031l1.25-5.031c.047-.141.047-.141.187-.141h.313c.875 0 1.078.156 1.078.719 0 .281-.062.625-.078.718-.016.094-.016.125-.016.125 0 .172.157.172.25.172.157 0 .235 0 .266-.234m0 0"/><path id="r" d="M5.344-2.547c0-.922-.64-1.5-1.719-1.5-1.766 0-2.672 1.484-2.672 2.61 0 .921.64 1.515 1.703 1.515 1.781 0 2.688-1.5 2.688-2.625M3.906-1.109c-.265.562-.765.859-1.219.859-.312 0-.75-.156-.75-.797 0-.344.235-1.344.454-1.828.265-.562.765-.86 1.218-.86.313 0 .75.157.75.797 0 .344-.234 1.344-.453 1.829m0 0"/><path id="s" d="M4.813-.766c0-.078-.188-.296-.282-.296-.015 0-.062 0-.125.062-.656.75-1.562.75-1.703.75-.484 0-.765-.281-.765-.797 0-.344.25-1.437.5-1.906.343-.64.906-.781 1.171-.781.094 0 .344.015.5.187a.69.69 0 0 0-.453.61c0 .124.078.406.453.406s.641-.313.641-.703c0-.438-.39-.813-1.14-.813-1.704 0-2.657 1.453-2.657 2.61 0 .734.422 1.515 1.75 1.515.235 0 .781-.031 1.266-.203.484-.187.844-.531.844-.64m0 0"/><path id="t" d="M6.14-1.328c0-.125-.124-.125-.25-.125-.171 0-.218 0-.265.11-.062.234-.312 1.093-.812 1.093-.047 0-.125 0-.125-.156 0-.188.078-.422.203-.735.125-.328.53-1.39.53-1.906 0-.734-.53-1-1.25-1-.187 0-.765 0-1.359.61-.187-.516-.718-.61-1.015-.61-.422 0-.64.297-.75.484-.234.376-.36.876-.36.907 0 .125.125.125.25.125.22 0 .235 0 .297-.235.063-.296.235-.968.532-.968.109 0 .172.078.172.28 0 .173-.016.25-.047.392L1.25-.517c-.047.141-.047.157-.047.204 0 .28.219.39.406.39a.59.59 0 0 0 .563-.484l.562-2.235c.063-.25.563-1.093 1.375-1.093.391 0 .391.343.391.515 0 .531-.406 1.64-.578 2.047-.078.219-.094.313-.094.453 0 .5.453.797.938.797.922 0 1.375-1.219 1.375-1.406m0 0"/><path id="u" d="M4.172-1.469c0-.203-.063-.5-.39-.765-.266-.203-.485-.25-.97-.344-.265-.047-.64-.125-.64-.453 0 0 0-.703.953-.703.094 0 .422 0 .625.218-.344.157-.344.47-.344.5 0 .22.172.375.39.375.235 0 .563-.187.563-.625 0-.5-.5-.78-1.218-.78-.688 0-1 .234-1.172.374-.297.25-.469.719-.469 1 0 .766.766.906 1.047.969.469.094.937.172.937.594 0 0 0 .859-1.234.859-.125 0-.547 0-.844-.25.063-.016.438-.187.438-.61 0-.327-.282-.406-.438-.406-.328 0-.64.266-.64.704 0 .562.578.89 1.453.89.25 0 .828-.015 1.312-.36.453-.327.64-.89.64-1.187m0 0"/><path id="v" d="M3.766-1.328c0-.125-.125-.125-.266-.125-.187 0-.203.016-.266.156C2.86-.407 2.406-.25 2.172-.25c-.078 0-.188-.016-.188-.281 0-.172.032-.235.063-.39l.656-2.641h.719c.156 0 .312 0 .312-.266 0-.156-.156-.156-.28-.156h-.642l.172-.703c.063-.235.157-.625.157-.704 0-.203-.141-.375-.391-.375a.58.58 0 0 0-.578.47l-.313 1.312h-.734c-.156 0-.312 0-.312.265 0 .156.156.156.296.156h.641l-.625 2.5c-.047.141-.047.204-.047.266 0 .563.516.875 1.063.875 1.03 0 1.625-1.25 1.625-1.406m0 0"/><path id="w" d="M5.047-3.25c0-.484-.484-.797-1.14-.797-.344 0-.766.094-1.157.484-.156-.28-.5-.484-.953-.484-.422 0-.64.297-.75.484-.234.376-.36.876-.36.907 0 .125.125.125.25.125.22 0 .235 0 .297-.235.063-.296.235-.968.532-.968.109 0 .172.078.172.28 0 .173-.016.25-.047.392L1.25-.517c-.047.141-.047.157-.047.204 0 .28.219.39.406.39a.59.59 0 0 0 .563-.484l.625-2.453c.047-.203.453-.875 1.078-.875.094 0 .313.015.5.156-.422.187-.422.562-.422.594 0 .234.156.422.438.422.343 0 .656-.297.656-.688m0 0"/><path id="x" d="M5.875-1.328c0-.125-.11-.125-.25-.125-.219 0-.219.016-.281.234-.078.297-.235.969-.547.969-.11 0-.172-.078-.172-.281 0-.172.016-.235.063-.39l.609-2.485c.047-.125.047-.14.047-.188 0-.281-.219-.39-.407-.39-.125 0-.468.062-.578.5l-.625 2.53c-.03.157-.046.188-.296.438a.9.9 0 0 1-.61.266c-.453 0-.469-.422-.469-.625 0-.531.297-1.328.516-1.89C2.953-3 3-3.11 3-3.25c0-.516-.453-.797-.937-.797-.938 0-1.376 1.203-1.376 1.39 0 .126.125.126.25.126.172 0 .22 0 .25-.11.079-.234.313-1.093.829-1.093.046 0 .125 0 .125.172 0 .187-.11.453-.157.578-.296.78-.546 1.422-.546 1.922 0 .828.593 1.14 1.328 1.14.25 0 .64-.047 1.078-.469.172.313.562.47.922.47.422 0 .64-.313.765-.485.235-.39.344-.89.344-.922m0 0"/><path id="y" d="M5.516-1.328c0-.125-.11-.125-.25-.125-.22 0-.22.016-.282.234-.078.297-.234.969-.546.969-.11 0-.172-.078-.172-.281 0-.172.015-.235.062-.39l.594-2.423c.031-.125.031-.14.031-.187 0-.203-.14-.375-.39-.375a.62.62 0 0 0-.422.187c-.297-.297-.641-.328-.875-.328-1.5 0-2.407 1.484-2.407 2.688C.86-.297 1.61.078 2.297.078c.547 0 .969-.297 1.187-.469.172.313.563.47.922.47.422 0 .64-.313.766-.485.234-.39.344-.89.344-.922m-2.141.437c-.39.5-.766.641-1.047.641-.203 0-.5-.125-.5-.64 0-.485.313-1.579.406-1.829.297-.875.797-1.015 1.032-1.015.312 0 .562.203.656.562l-.516 2.11c-.031.062-.031.093-.031.171m0 0"/><path id="z" d="M4.813-.766c0-.078-.188-.296-.282-.296-.015 0-.062 0-.125.062-.656.75-1.562.75-1.687.75-.5 0-.766-.297-.766-.828 0-.219.063-.578.14-.875h.36c.547 0 2.313 0 2.313-1.234 0-.547-.5-.86-1.157-.86C2.047-4.047.984-2.875.984-1.5c0 .969.61 1.578 1.72 1.578.28 0 .812-.031 1.265-.203.484-.187.844-.531.844-.64m-.625-2.437c0 .922-1.47.922-2.016.922.14-.438.219-.719.484-1 .25-.313.64-.453.953-.453.375 0 .579.25.579.53m0 0"/><path id="A" d="M4.484 1.484c0-.156-.156-.171-.234-.171h-.39l1.265-5.079c.016-.03.016-.093.016-.125 0-.03-.016-.156-.157-.156 0 0-.5.11-.765.328-.282-.297-.625-.328-.86-.328-1.515 0-2.406 1.484-2.406 2.688 0 1.062.75 1.437 1.438 1.437.406 0 .734-.172.875-.25l-.328 1.344c-.032.125-.047.125-.141.14h-.313c-.156 0-.328 0-.328.266 0 .047.031.156.188.156.297 0 .625-.015.937-.015s.64.015.969.015c.063 0 .234 0 .234-.25M3.47-.984c-.078.312-.594.734-1.047.734-.203 0-.516-.125-.516-.64 0-.485.313-1.579.422-1.829.297-.875.797-1.015 1.031-1.015.313 0 .563.203.657.562Zm0 0"/><path id="B" d="M3.5-1.328c0-.125-.125-.125-.25-.125-.172 0-.219 0-.25.11-.078.234-.312 1.093-.828 1.093-.047 0-.125 0-.125-.156 0-.125.062-.344.062-.36l.813-2.14A.7.7 0 0 0 3-3.25c0-.516-.453-.797-.937-.797-.938 0-1.376 1.203-1.376 1.39 0 .126.125.126.25.126.172 0 .22 0 .25-.11.079-.234.313-1.093.829-1.093.046 0 .125 0 .125.172 0 .109-.063.328-.063.359l-.812 2.125a.75.75 0 0 0-.079.36c0 .5.454.796.938.796C3.063.078 3.5-1.14 3.5-1.328M3.625-5.5a.537.537 0 0 0-.562-.547c-.407 0-.797.39-.797.781 0 .282.218.532.562.532.422 0 .797-.391.797-.766m0 0"/><path id="C" d="M2.969-1.328c0-.125-.11-.125-.25-.125-.219 0-.219.016-.281.234-.079.297-.235.969-.547.969-.11 0-.172-.078-.172-.281 0-.172.015-.235.062-.39l1.25-5c.016-.048.031-.095.031-.141 0-.172-.171-.157-.296-.157l-1.094.063c-.11 0-.281 0-.281.265 0 .157.156.157.234.157.11 0 .281.015.39.015L.86-1.062c-.046.14-.046.203-.046.265 0 .578.546.875 1.046.875.422 0 .641-.312.766-.484.234-.39.344-.89.344-.922m0 0"/><path id="D" d="m4.047.578.969-3.89c.03-.141.03-.22.03-.22 0-.202-.155-.374-.405-.374-.235 0-.328.11-.422.187-.25-.25-.547-.328-.86-.328-1.53 0-2.406 1.469-2.406 2.625C.953-.469 1.61 0 2.406 0c.297 0 .578-.078.875-.234L3.125.39c-.203.843-.719 1.093-1.203 1.093-.25 0-.453-.015-.563-.046a.72.72 0 0 0 .25-.5c0-.235-.171-.422-.437-.422a.66.66 0 0 0-.64.672c0 .546.702.625 1.374.625 1.078 0 1.938-.454 2.14-1.235m-.563-1.625c-.078.313-.609.719-1.03.719-.485 0-.532-.438-.532-.625 0-.5.328-1.578.453-1.906.281-.735.75-.875.984-.875.266 0 .547.14.657.547Zm0 0"/><path id="E" d="M4.984-3.281c0-.656-.406-.781-.578-.781-.312 0-.64.328-.64.64 0 .219.125.313.203.375.187.125.36.328.36.594 0 .031-.376 2.203-1.391 2.203-.5 0-.563-.39-.563-.672 0-.5.281-1.265.5-1.86C2.969-3 3-3.108 3-3.25c0-.516-.453-.797-.937-.797-.938 0-1.376 1.203-1.376 1.39 0 .126.125.126.25.126.172 0 .22 0 .25-.11.079-.234.313-1.093.829-1.093.046 0 .125 0 .125.172 0 .187-.11.453-.157.578-.343.906-.53 1.437-.53 1.89 0 1.016.874 1.172 1.421 1.172 1.594 0 2.11-2.89 2.11-3.36m0 0"/><path id="F" d="M6.344-1.328c0-.125-.11-.125-.25-.125-.203 0-.219.016-.282.234-.078.297-.234.969-.53.969-.11 0-.173-.078-.173-.281 0-.172.016-.266.047-.39l.703-2.813a.4.4 0 0 0 .032-.125c0-.125-.125-.125-.266-.125H3.047c.312-1.75.36-1.985 1.531-1.985.172 0 .656 0 .984.14a.67.67 0 0 0-.359.579c0 .234.172.406.453.406a.66.66 0 0 0 .625-.687c0-.75-1.14-.766-1.703-.766-.562 0-1.203.016-1.687.406-.547.438-.657 1.079-.797 1.907h-.828c-.157 0-.313 0-.313.265 0 .156.156.156.281.156h.782L1.39-.171C1.297.313 1.297.36 1.17.86c-.046.188-.14.625-.405.625 0 0-.125 0-.235-.062.266-.11.39-.36.39-.578C.922.594.735.438.47.438a.65.65 0 0 0-.64.671c0 .438.437.704.921.704.5 0 1.047-.438 1.328-1.172.172-.438.281-.907.375-1.36l.516-2.843h1.89l-.625 2.5c-.03.14-.03.203-.03.265 0 .578.53.875 1.03.875.422 0 .657-.312.766-.484.234-.39.344-.89.344-.922m0 0"/><path id="G" d="M5.61-1.328c0-.125-.126-.125-.25-.125-.173 0-.22 0-.25.11C5.03-1.11 4.796-.25 4.28-.25c-.047 0-.125 0-.125-.156 0-.188.094-.422.203-.735.125-.328.532-1.39.532-1.906 0-.734-.532-1-1.235-1-.469 0-.828.14-1.203.453l.578-2.328c.016-.047.031-.094.031-.14 0-.172-.171-.157-.296-.157l-1.094.063c-.11 0-.281 0-.281.265 0 .157.156.157.234.157.11 0 .281.015.39.015L.72-.516c-.031.141-.031.157-.031.204 0 .218.171.39.406.39.11 0 .453-.047.562-.484l.547-2.235c.063-.25.563-1.093 1.39-1.093.376 0 .376.343.376.515 0 .531-.406 1.64-.563 2.047-.094.219-.11.313-.11.453 0 .5.454.797.938.797.938 0 1.375-1.219 1.375-1.406m0 0"/><path id="H" d="M2.438-.797c0-.312-.22-.515-.547-.515-.36 0-.797.328-.797.78 0 .376.281.532.531.532.406 0 .813-.375.813-.797m0 0"/><path id="K" d="M1.625-1.047C1.188-.328.797-.313.438-.28c-.063.015-.11.078-.11.172 0 .047.047.109.125.109.172 0 .594-.031.766-.031.203 0 .687.031.875.031.062 0 .172 0 .172-.156 0-.11-.11-.125-.125-.125-.094 0-.422-.031-.422-.297 0-.125.093-.297.125-.344l.703-1.156H4.89c.03.219.046.515.078.734.031.36.093.75.093.782 0 .125-.125.28-.656.28-.078 0-.203 0-.203.173 0 .093.078.109.14.109.173 0 .391-.016.563-.016s.39-.015.532-.015c.296 0 .328 0 .53.015.141 0 .36.016.5.016.048 0 .173 0 .173-.156 0-.125-.11-.125-.203-.125-.547 0-.547-.063-.579-.313l-.625-5.578c-.03-.203-.03-.25-.187-.25-.125 0-.172.063-.25.172Zm1.094-1.297L4.53-5.312l.328 2.968Zm0 0"/><path id="L" d="M1.469-.687c-.094.328-.11.406-.782.406-.171 0-.265 0-.265.172C.422 0 .516 0 .672 0h3.266C5.39 0 6.453-1.062 6.453-1.922c0-.64-.531-1.187-1.406-1.281 1.016-.203 1.89-.875 1.89-1.672 0-.703-.656-1.25-1.718-1.25H2.156c-.172 0-.265 0-.265.156 0 .125.078.125.265.125.031 0 .188 0 .344.016.14.016.203.031.203.14 0 .032 0 .079-.031.172Zm1.39-2.61L3.406-5.5c.078-.328.094-.344.485-.344h1.203c.937 0 1.015.703 1.015.922 0 .813-.828 1.625-1.843 1.625ZM2.438-.28H2.25c-.094-.016-.11-.031-.11-.094 0-.016 0-.031.032-.203l.625-2.5h1.687c.563 0 1.125.25 1.125 1.062 0 .891-.812 1.735-1.89 1.735Zm0 0"/><clipPath id="c"><path d="M6 43h77v72.29H6Zm0 0"/></clipPath><clipPath id="e"><path d="M38 39h78v76.29H38Zm0 0"/></clipPath></defs><path fill="#F93" d="m44.934 81.668 12.168-30.043L77.039 77.16Zm0 0"/><use xlink:href="#a" x="33.743" y="85.07" fill="#00C"/><use xlink:href="#b" x="80.759" y="80.565" fill="#00C"/><path fill="none" stroke="#00C" stroke-miterlimit="10" stroke-width=".797" d="m44.934 81.668 32.105-4.508"/><g clip-path="url(#c)"><path fill="none" stroke="#7F7F7F" stroke-miterlimit="10" stroke-width=".399" d="M77.355 81.668c0-17.906-14.515-32.422-32.421-32.422-17.907 0-32.422 14.516-32.422 32.422 0 17.902 14.515 32.418 32.422 32.418S77.355 99.57 77.355 81.668Zm0 0"/></g><use xlink:href="#d" x=".27" y="85.07"/><g clip-path="url(#e)"><path fill="none" stroke="#7F7F7F" stroke-miterlimit="10" stroke-width=".399" d="M109.46 77.16c0-17.906-14.515-32.418-32.42-32.418-17.907 0-32.419 14.512-32.419 32.418s14.512 32.422 32.418 32.422 32.422-14.516 32.422-32.422Zm0 0"/></g><use xlink:href="#f" x="113.18" y="80.565"/><use xlink:href="#g" x="53.186" y="47.906" fill="#B20000"/><path fill="none" stroke="#B20000" stroke-miterlimit="10" stroke-width=".797" d="m44.934 81.668 12.168-30.043L77.039 77.16"/><path fill-opacity=".5" d="M46.926 81.668a1.99 1.99 0 0 0-1.992-1.992 1.993 1.993 0 1 0 1.992 1.992M79.031 77.16a1.993 1.993 0 1 0-3.986.002 1.993 1.993 0 0 0 3.986-.002M59.094 51.625a1.993 1.993 0 1 0-3.983.002 1.993 1.993 0 0 0 3.983-.002m0 0"/><use xlink:href="#h" x="159.248" y="6.922"/><use xlink:href="#i" x="166.493" y="6.922"/><use xlink:href="#j" x="170.868" y="6.922"/><use xlink:href="#k" x="176.177" y="6.922"/><use xlink:href="#j" x="182.363" y="6.922"/><use xlink:href="#l" x="187.671" y="6.922"/><use xlink:href="#m" x="191.859" y="6.922"/><use xlink:href="#n" x="194.809" y="6.922"/><use xlink:href="#m" x="198.933" y="6.922"/><use xlink:href="#j" x="201.883" y="6.922"/><use xlink:href="#o" x="207.191" y="6.922"/><use xlink:href="#p" x="216.615" y="6.922"/><use xlink:href="#q" x="159.248" y="17.881"/><use xlink:href="#r" x="165.596" y="17.881"/><use xlink:href="#s" x="175.558" y="17.881"/><use xlink:href="#r" x="179.808" y="17.881"/><use xlink:href="#t" x="185.107" y="17.881"/><use xlink:href="#u" x="190.935" y="17.881"/><use xlink:href="#v" x="195.302" y="17.881"/><use xlink:href="#w" x="198.754" y="17.881"/><use xlink:href="#x" x="203.255" y="17.881"/><use xlink:href="#s" x="208.823" y="17.881"/><use xlink:href="#v" x="213.593" y="17.881"/><use xlink:href="#y" x="221.699" y="17.881"/><use xlink:href="#t" x="226.998" y="17.881"/><use xlink:href="#z" x="237.501" y="17.881" fill="#FF7F00"/><g fill="#FF7F00"><use xlink:href="#A" x="241.742" y="17.881"/><use xlink:href="#x" x="246.512" y="17.881"/><use xlink:href="#B" x="252.08" y="17.881"/><use xlink:href="#C" x="255.272" y="17.881"/><use xlink:href="#y" x="257.935" y="17.881"/><use xlink:href="#v" x="263.235" y="17.881"/><use xlink:href="#z" x="266.687" y="17.881"/><use xlink:href="#w" x="271.457" y="17.881"/></g><g fill="#FF7F00"><use xlink:href="#y" x="275.429" y="17.881"/><use xlink:href="#C" x="280.728" y="17.881"/></g><g fill="#FF7F00"><use xlink:href="#v" x="288.053" y="17.881"/><use xlink:href="#w" x="291.506" y="17.881"/><use xlink:href="#B" x="296.007" y="17.881"/><use xlink:href="#y" x="299.199" y="17.881"/><use xlink:href="#t" x="304.498" y="17.881"/><use xlink:href="#D" x="310.326" y="17.881"/><use xlink:href="#C" x="315.096" y="17.881"/><use xlink:href="#z" x="317.759" y="17.881"/></g><use xlink:href="#r" x="327.2" y="17.881"/><use xlink:href="#t" x="332.499" y="17.881"/><use xlink:href="#y" x="342.99" y="17.881"/><use xlink:href="#D" x="352.951" y="17.881"/><use xlink:href="#B" x="357.722" y="17.881"/><use xlink:href="#E" x="360.914" y="17.881"/><use xlink:href="#z" x="365.684" y="17.881"/><use xlink:href="#t" x="370.454" y="17.881"/><g fill="#00C"><use xlink:href="#F" x="380.957" y="17.881"/><use xlink:href="#t" x="387" y="17.881"/><use xlink:href="#B" x="392.828" y="17.881"/><use xlink:href="#v" x="396.021" y="17.881"/><use xlink:href="#z" x="399.473" y="17.881"/></g><g fill="#00C"><use xlink:href="#u" x="408.905" y="17.881"/><use xlink:href="#v" x="413.272" y="17.881"/><use xlink:href="#w" x="416.724" y="17.881"/></g><g fill="#00C"><use xlink:href="#y" x="420.705" y="17.881"/><use xlink:href="#B" x="426.004" y="17.881"/><use xlink:href="#D" x="429.196" y="17.881"/><use xlink:href="#G" x="433.966" y="17.881"/><use xlink:href="#v" x="439.265" y="17.881"/></g><g fill="#00C"><use xlink:href="#C" x="159.248" y="28.84"/><use xlink:href="#B" x="161.911" y="28.84"/><use xlink:href="#t" x="165.103" y="28.84"/><use xlink:href="#z" x="170.931" y="28.84"/></g><use xlink:href="#H" x="175.701" y="28.84"/><use xlink:href="#I" x="159.248" y="49.762"/><use xlink:href="#J" x="165.623" y="49.762"/><use xlink:href="#n" x="170.492" y="49.762"/><use xlink:href="#K" x="178.149" y="49.762" fill="#00C"/><use xlink:href="#L" x="185.059" y="49.762" fill="#00C"/><use xlink:href="#M" x="196.011" y="49.762"/><use xlink:href="#J" x="202.198" y="49.762"/><use xlink:href="#n" x="210.599" y="49.762"/><use xlink:href="#N" x="214.724" y="49.762"/><use xlink:href="#J" x="220.615" y="49.762"/><use xlink:href="#O" x="229.016" y="49.762"/><use xlink:href="#m" x="234.324" y="49.762"/><use xlink:href="#P" x="237.274" y="49.762"/><use xlink:href="#J" x="242.582" y="49.762"/><use xlink:href="#o" x="247.451" y="49.762"/><g fill="#00C"><use xlink:href="#Q" x="256.875" y="49.762"/><use xlink:href="#o" x="262.766" y="49.762"/><use xlink:href="#m" x="268.657" y="49.762"/><use xlink:href="#n" x="271.607" y="49.762"/><use xlink:href="#J" x="275.731" y="49.762"/></g><g fill="#00C"><use xlink:href="#l" x="284.133" y="49.762"/><use xlink:href="#n" x="288.32" y="49.762"/><use xlink:href="#i" x="292.445" y="49.762"/><use xlink:href="#R" x="296.82" y="49.762"/><use xlink:href="#m" x="301.976" y="49.762"/><use xlink:href="#O" x="304.926" y="49.762"/><use xlink:href="#N" x="310.234" y="49.762"/></g><use xlink:href="#n" x="315.829" y="49.762" fill="#00C"/><g fill="#00C"><use xlink:href="#S" x="323.486" y="49.762"/><use xlink:href="#m" x="326.436" y="49.762"/><use xlink:href="#o" x="329.386" y="49.762"/><use xlink:href="#J" x="335.277" y="49.762"/></g><use xlink:href="#T" x="340.146" y="49.762"/><use xlink:href="#U" x="347.803" y="49.762"/></svg>