<svg xmlns="http://www.w3.org/2000/svg" width="89.596" height="184.16"><path fill="none" stroke="#000" stroke-miterlimit="10" stroke-width=".399" d="M.809 41.004h4.98v-4.98h4.98v14.945h4.981V26.063h4.984V60.93h4.98V16.098h4.981v54.797h4.98V6.137h4.981v74.718h4.985V.797h4.98V76.23h4.98V10.762h4.981V66.27h4.984V20.723h4.98v35.582h4.981V30.684h4.98v15.66h4.985v-5.34h.356"/><path fill="#FF7F7F" d="m16.39 99.11.704.703c.777.777 2.039.777 2.816 0l.707-.704a1.985 1.985 0 0 1 2.817 0l.703.704c.781.777.781 2.039 0 2.816l-.703.707-2.817 2.816-4.226 4.227a1.985 1.985 0 0 0 0 2.816l.703.707c.777.778 2.039.778 2.816 0l4.227-4.226c.781-.778 2.043-2.04 2.82-2.82l7.75-7.747a1.985 1.985 0 0 1 2.816 0l.704.704c.78.777.78 2.039 0 2.816l-7.747 7.75c-.78.777-2.043 2.039-2.82 2.816L16.39 124.47a1.985 1.985 0 0 0 0 2.816l.704.707c.777.778 2.039.778 2.816 0l11.274-11.273L34 113.902 48.797 99.11a1.985 1.985 0 0 1 2.816 0l.703.704c.778.777.778 2.039 0 2.816l-14.793 14.797-2.816 2.816-18.316 18.317a1.985 1.985 0 0 0 0 2.816l.703.707c.777.777 2.039.777 2.816 0l18.317-18.316c.78-.782 2.043-2.043 2.82-2.82l21.836-21.837a1.99 1.99 0 0 1 2.82 0l.703.704c.778.777.778 2.039 0 2.816l-21.84 21.84-2.816 2.816-25.36 25.363a1.985 1.985 0 0 0 0 2.817l.704.707c.777.777 2.039.777 2.816 0l25.363-25.363 2.817-2.817L76.973 99.11a1.99 1.99 0 0 1 2.82 0l.703.704c.777.777.777 2.039 0 2.816l-28.883 28.883c-.777.781-2.039 2.043-2.816 2.82L16.39 166.738a1.985 1.985 0 0 0 0 2.817l.703.703c.777.781 2.039.781 2.816 0l32.406-32.403c.778-.78 2.04-2.042 2.82-2.82l29.134-29.137a1.997 1.997 0 0 1 2.82 0l.703.707c.777.778.777 2.04 0 2.817l-29.137 29.137-2.816 2.816-25.613 25.613a1.997 1.997 0 0 0 0 2.82l.703.704a1.997 1.997 0 0 0 2.82 0l25.613-25.614 2.817-2.816 22.09-22.094a1.997 1.997 0 0 1 2.82 0l.703.707c.777.778.777 2.04 0 2.817l-22.09 22.09c-.777.78-2.039 2.043-2.82 2.82l-18.567 18.566a1.997 1.997 0 0 0 0 2.82l.704.704c.777.777 2.039.777 2.82 0l18.566-18.57c.778-.778 2.04-2.04 2.82-2.817l15.044-15.047a1.997 1.997 0 0 1 2.82 0l.703.707c.777.778.777 2.04 0 2.817l-15.047 15.046-2.816 2.817-11.524 11.523a1.997 1.997 0 0 0 0 2.82l.703.704c.778.777 2.04.777 2.82 0l11.524-11.524 2.817-2.816 8-8.004a1.997 1.997 0 0 1 2.82 0l.703.707c.777.777.777 2.04 0 2.816l-8 8-2.82 2.82-4.477 4.477a1.997 1.997 0 0 0 0 2.82l.703.704c.778.777 2.04.777 2.817 0l4.48-4.48 2.817-2.817.957-.957a1.997 1.997 0 0 1 2.82 0l.703.703a1.997 1.997 0 0 1 0 2.82l-.957.957a1.99 1.99 0 0 0 0 2.817l-2.398-2.399c.777.778 1.41 2.301 1.41 3.403v10.187a1.99 1.99 0 0 1-1.993 1.992H2.801a1.99 1.99 0 0 1-1.992-1.992V99.691A1.99 1.99 0 0 1 2.8 97.7h10.187c1.102 0 2.621.63 3.403 1.41m0 0"/></svg>