<svg xmlns="http://www.w3.org/2000/svg" xmlns:xlink="http://www.w3.org/1999/xlink" width="87.374" height="59.078"><defs><clipPath id="a"><path d="M0 0h87.063v58.617H0Zm0 0"/></clipPath><clipPath id="c"><path d="M0 0h87.063v58.617H0Zm0 0"/></clipPath><path id="b" d="m4.844-3.234-.266-.391-.578.39-2.484-.734.234-1.719c.047-.187.063-.28.75-.734l-.266-.375-.75.516-.875.562.266.375c.125-.078.234-.125.344-.125.031.063.047.094.015.14l-.171 1.235L-.375-4.5l.328-.234-.265-.375-1 .703-.922.593.265.376.594-.407 2.313.672-.282 1.953c-.031.235-.343.438-.734.703l.266.391.75-.531.859-.547-.266-.39c-.14.109-.312.171-.36.109v-.11l.204-1.437L3-2.562l-.328.218.265.39.985-.702Zm0 0"/><path id="d" d="m5.078-2.86-.234-.406-.61.344-2.437-.922.375-1.687c.062-.188.078-.266.797-.672l-.235-.406-.78.468-.907.485.234.406a.9.9 0 0 1 .344-.125c.016.063.031.094 0 .156L1.375-4l-1.422-.5.36-.203-.235-.406-1.047.609-.968.531.234.406.625-.359 2.234.828-.422 1.922c-.046.25-.359.422-.78.656l.233.407.797-.485.891-.468-.234-.407c-.141.094-.328.125-.36.078 0 0-.015-.015.016-.093l.297-1.438 1.594.594-.344.187.234.407L4.11-2.36Zm0 0"/></defs><g clip-path="url(#a)"><path fill="none" stroke="#000" stroke-miterlimit="10" stroke-width=".399" d="M.902 57.45 85.945.753"/></g><use xlink:href="#b" x="38.956" y="27.851"/><g clip-path="url(#c)"><path fill="none" stroke="#000" stroke-miterlimit="10" stroke-width=".399" d="M.902 57.45C.902 17.433 45.93.753 85.945.753"/></g><use xlink:href="#d" x="24.056" y="12.518"/></svg>