<svg xmlns="http://www.w3.org/2000/svg" xmlns:xlink="http://www.w3.org/1999/xlink" width="18.825" height="17.343"><defs><path id="a" d="M2.484-.594v-.234h-.406v.219c0 .14-.047.343-.344.343-.312 0-.312-.203-.312-.343v-1.266h.953v-.344h-.953v-.953H1c0 .516-.266 1-.781 1.016v.281H.75v1.281c0 .563.547.64.875.64.36 0 .86-.14.86-.64m0 0"/><path id="b" d="M1.813 0v-.328h-.329V-2.25l-.968.031v.344c.312 0 .343 0 .343.188v1.359H.5V0c.219-.016.453-.016.672-.016.203 0 .422 0 .64.016m-.297-3a.42.42 0 0 0-.422-.422c-.25 0-.438.188-.438.406 0 .25.203.422.438.422A.417.417 0 0 0 1.516-3m0 0"/><path id="c" d="M3.875 0v-.328h-.36v-1.14c0-.735-.609-.782-.968-.782-.672 0-1 .344-1.125.531v-.531l-.938.031v.344c.313 0 .36 0 .36.188v1.359h-.36V0l.688-.016c.187 0 .469 0 .687.016v-.328H1.5v-.875c0-.61.625-.766.922-.766.328 0 .422.125.422.485v1.156h-.36V0l.704-.016c.171 0 .468 0 .687.016m0 0"/><path id="d" d="M3.719-1.875v-.344c-.14.016-.297.031-.516.031a7 7 0 0 1-.562-.03v.343h.234l-.656 1.25-.813-1.25h.203v-.344c-.234.016-.562.031-.687.031-.203 0-.422-.015-.625-.03v.343h.375L1.844-.062c.031.046.031.062.031.062 0 .016-.078.156-.125.234-.094.188-.25.5-.828.5C.89.734.844.72.844.72S.859.703.859.688a.37.37 0 0 0 .079-.22C.938.235.766.11.578.11c-.187 0-.36.125-.36.36C.219.75.5 1 .907 1c.328 0 .969-.11 1.25-.64l1.188-2.235Zm0 0"/></defs><path fill="none" stroke="#000" stroke-miterlimit="10" stroke-width=".399" d="M1.113 15.816H17.54V.871H1.113Zm0 0"/><use xlink:href="#a" x="2.773" y="9.552"/><use xlink:href="#b" x="5.747" y="9.552"/><use xlink:href="#c" x="7.919" y="9.552"/><use xlink:href="#d" x="11.899" y="9.552"/></svg>