<svg xmlns="http://www.w3.org/2000/svg" xmlns:xlink="http://www.w3.org/1999/xlink" width="107.03" height="68.582"><defs><path id="b" d="M8.25 0v-.469h-.969L4.72-6.703c-.11-.25-.219-.25-.39-.25-.282 0-.329.078-.391.25l-2.47 6c-.062.156-.093.234-.843.234H.406V0l1.172-.031c.39 0 .938 0 1.313.031v-.469S2-.469 2-.594l.047-.125.5-1.203h2.672l.593 1.453H4.86V0c.391-.031 1.329-.031 1.766-.031.39 0 1.266 0 1.625.031M5.016-2.39H2.734l1.141-2.766Zm0 0"/><path id="c" d="M7.5-1.86c0-.952-.844-1.624-2.031-1.702 1.078-.204 1.718-.797 1.718-1.563 0-.922-.875-1.719-2.468-1.719H.39v.469h1.078v5.906H.39V0h4.625C6.672 0 7.5-.875 7.5-1.86M5.766-5.124c0 .766-.47 1.39-1.438 1.39H2.766v-2.64h1.812c1.016 0 1.188.797 1.188 1.25m.28 3.266c0 .109 0 1.39-1.437 1.39H2.766v-2.906h1.937c.203 0 .672 0 1.016.422.328.422.328.984.328 1.094m0 0"/><path id="e" d="M7.64-2.266c0-.203-.077-.203-.25-.203-.124 0-.218 0-.218.172C7.094-.969 5.89-.359 4.89-.359c-.782 0-1.625-.235-2.141-.844-.469-.578-.594-1.313-.594-2.219 0-.562.031-1.625.672-2.297.64-.656 1.516-.765 2.031-.765 1.079 0 2.016.765 2.235 2.03.031.188.047.204.265.204.266 0 .282-.016.282-.281v-2.14c0-.188 0-.282-.188-.282-.094 0-.11.031-.187.094l-.657.593a3.03 3.03 0 0 0-1.968-.687c-2.485 0-4 1.484-4 3.531S2.156.11 4.64.11c1.875 0 3-1.218 3-2.375m0 0"/><clipPath id="a"><path d="M0 45h42v23.371H0Zm0 0"/></clipPath><clipPath id="d"><path d="M50 42h54v26.371H50Zm0 0"/></clipPath></defs><path fill="none" stroke="#7F7F7F" stroke-miterlimit="10" stroke-width=".199" d="M20.398 57.7h85.043M20.398 29.354h85.043M20.398 1.015h85.043M20.398 57.7V1.008m28.348 56.691V1.008m28.348 56.691V1.008m28.336 56.691V1.008"/><path fill="#FCC" d="m4.902 64.5 7.848-13.598h15.3L35.899 64.5Zm0 0"/><g clip-path="url(#a)"><path fill="none" stroke="#FF4040" stroke-miterlimit="10" stroke-width=".399" d="m4.902 64.5 7.848-13.598h15.3L35.899 64.5Zm0 0"/></g><use xlink:href="#b" x="16.071" y="61.178"/><path fill="#CFC" stroke="#40FF40" stroke-miterlimit="10" stroke-width=".399" d="m.875 43.527 24.543-42.52h46.656l24.543 42.52Zm0 0"/><use xlink:href="#c" x="44.671" y="25.685"/><path fill="#CCF" d="M55.848 67.168 66.78 48.234h20.625L98.34 67.168Zm0 0"/><g clip-path="url(#d)"><path fill="none" stroke="#4040FF" stroke-miterlimit="10" stroke-width=".399" d="M55.848 67.168 66.78 48.234h20.625L98.34 67.168Zm0 0"/></g><use xlink:href="#e" x="72.953" y="61.118"/></svg>