<svg xmlns="http://www.w3.org/2000/svg" xmlns:xlink="http://www.w3.org/1999/xlink" width="122.73" height="140.174"><defs><path id="a" d="M11.61-6.375v-.469c-.282.016-.626.032-1.079.032-.375 0-.984 0-1.344-.032v.469c.25 0 .72 0 1.016.11L8.484-1.798 6.72-6.375h.953v-.469c-.375.032-1.313.032-1.734.032-.391 0-1.188 0-1.532-.032v.469h.86l.406 1.063-1.36 3.515-1.765-4.578h.969v-.469c-.391.032-1.328.032-1.75.032-.391 0-1.172 0-1.532-.032v.469h.86l2.39 6.203c.063.156.11.25.36.25s.281-.094.344-.25l1.734-4.5 1.734 4.5c.063.156.094.25.344.25s.297-.094.36-.25l2.296-5.953c.063-.172.063-.187.375-.219.203-.031.406-.031.578-.031m0 0"/><path id="b" d="M5.406-2.172c0-1.344-.922-2.344-2.547-2.344C1.22-4.516.313-3.5.313-2.172c0 1.235.89 2.235 2.546 2.235 1.672 0 2.547-1.016 2.547-2.235m-1.281-.11c0 .86 0 1.938-1.266 1.938-1.265 0-1.265-1.078-1.265-1.937 0-.453 0-.953.172-1.297.187-.375.609-.578 1.093-.578.422 0 .844.156 1.063.5.203.344.203.89.203 1.375m0 0"/><path id="c" d="M4.406-3.672c0-.531-.531-.812-1.062-.812-.688 0-1.094.5-1.313 1.125v-1.125l-1.656.078v.468c.61 0 .688 0 .688.391v3.078H.375V0l1.25-.031C2-.031 2.641-.031 3 0v-.469h-.86v-1.75c0-.687.235-1.906 1.235-1.906 0 0-.187.172-.187.453 0 .406.328.61.609.61.297 0 .61-.204.61-.61m0 0"/><path id="d" d="M2.922 0v-.469h-.688v-6.453L.47-6.844v.469c.625 0 .687 0 .687.39v5.516H.47V0l1.219-.031Zm0 0"/><path id="e" d="M5.984 0v-.469c-.609 0-.687 0-.687-.39v-6.063l-1.766.078v.469c.625 0 .703 0 .703.39v1.954a2.18 2.18 0 0 0-1.359-.453c-1.453 0-2.5.875-2.5 2.28 0 1.313.922 2.267 2.39 2.267.61 0 1.094-.235 1.407-.485v.485ZM4.172-1.031c-.14.187-.547.734-1.297.734-1.219 0-1.219-1.203-1.219-1.906 0-.485 0-1.016.25-1.406.297-.422.766-.516 1.078-.516.563 0 .97.313 1.188.61Zm0 0"/><path id="f" d="M5.984-2.219c0-1.328-.906-2.265-2.343-2.265-.75 0-1.282.312-1.5.484v-.484l-1.766.078v.468c.61 0 .688 0 .688.376v5.03H.375v.47l1.25-.032 1.25.032v-.47h-.687V-.39a2 2 0 0 0 1.28.454c1.5 0 2.516-.907 2.516-2.282m-1.28 0C4.703-.813 4-.297 3.358-.297c-.14 0-.609 0-1.062-.547-.11-.125-.11-.14-.11-.328v-2.11c0-.187.016-.202.157-.343.39-.406.922-.469 1.14-.469.657 0 1.22.61 1.22 1.875m0 0"/><path id="g" d="M4.922-1.172c0-.172-.188-.172-.234-.172-.172 0-.188.047-.25.203-.204.485-.782.797-1.422.797-1.407 0-1.422-1.328-1.422-1.828h3.015c.22 0 .313 0 .313-.265 0-.313-.063-1.047-.563-1.547-.359-.36-.89-.532-1.578-.532C1.187-4.516.313-3.484.313-2.25c0 1.344 1 2.313 2.609 2.313 1.578 0 2-1.063 2-1.235M3.984-2.5h-2.39c.015-.39.031-.812.234-1.14.266-.391.672-.516.953-.516 1.172 0 1.188 1.312 1.203 1.656m0 0"/><path id="h" d="M5.516-.234c0-.235-.125-.235-.266-.235-.61-.015-.61-.14-.61-.375v-2.14c0-.891-.702-1.532-2.187-1.532-.562 0-1.781.047-1.781.922 0 .438.344.625.61.625.312 0 .624-.219.624-.625 0-.297-.187-.469-.218-.5a5 5 0 0 1 .718-.062c.75 0 1.11.422 1.11 1.172v.343c-.72.032-3.25.125-3.25 1.563C.266-.125 1.5.062 2.188.062c.796 0 1.265-.406 1.484-.828 0 .313 0 .766 1.047.766h.468c.204 0 .329 0 .329-.234m-2-1.157c0 .97-.922 1.094-1.172 1.094-.516 0-.906-.344-.906-.797 0-1.062 1.578-1.203 2.078-1.234Zm0 0"/><path id="i" d="M4.766-1.172c0-.14-.141-.14-.235-.14-.187 0-.187.03-.25.156-.25.625-.734.812-1.234.812-1.39 0-1.39-1.453-1.39-1.922 0-.562 0-1.843 1.28-1.843.36 0 .516.015.657.046a.62.62 0 0 0-.203.47c0 .437.343.624.609.624.313 0 .64-.219.64-.625 0-.86-1.156-.922-1.734-.922C1.11-4.516.375-3.375.375-2.219.375-.89 1.313.063 2.844.063c1.625 0 1.922-1.157 1.922-1.235m0 0"/><path id="j" d="M5.984-2.219c0-1.328-.937-2.265-2.39-2.265-.719 0-1.219.28-1.453.484v-2.922l-1.766.078v.469c.61 0 .688 0 .688.39V0h.468c.157-.187.328-.375.485-.562.078.078.562.625 1.453.625 1.484 0 2.515-.907 2.515-2.282m-1.28 0c0 .469 0 1.016-.25 1.406-.298.407-.75.516-1.079.516-.687 0-1.078-.547-1.187-.687v-2.5c.28-.36.75-.641 1.296-.641 1.22 0 1.22 1.203 1.22 1.906m0 0"/><path id="l" d="M8.031-3.953v-.469a13 13 0 0 1-.781.031l-.953-.03v.468c.094 0 .578 0 .578.11 0 .03-.031.093-.031.124L5.797-1.172l-1.14-2.781h.562v-.469l-1.14.031c-.423 0-.845-.03-1-.03v.468h.593c.203.5.203.531.203.531 0 .031-.031.094-.031.125L3.047-1.39 2-3.953h.563v-.469l-1.235.031L.25-4.42v.468h.594L2.359-.234c.079.172.11.28.36.28s.297-.108.36-.28L4.14-2.812 5.188-.235c.078.172.109.28.359.28s.297-.108.36-.28L7.343-3.75c.047-.125.093-.203.687-.203m0 0"/><path id="m" d="M6.125 0v-.469c-.61 0-.687 0-.687-.39v-3.625l-1.813.078v.468c.61 0 .688 0 .688.391v1.906c0 .813-.516 1.344-1.235 1.344-.781 0-.812-.25-.812-.797v-3.39l-1.813.078v.468c.61 0 .688 0 .688.391v2.328c0 1.063.797 1.282 1.797 1.282.25 0 .968 0 1.421-.782v.782Zm0 0"/><path id="o" d="M5.563-3.953c0-.235-.172-.578-.625-.578-.157 0-.625.031-1.063.375-.172-.125-.594-.328-1.328-.328-1.438 0-1.985.78-1.985 1.468 0 .407.188.829.516 1.047-.281.36-.344.688-.344.89 0 .157.047.642.438.954-.125.031-.86.25-.86.875C.313 1.25.876 2 2.86 2 4.625 2 5.406 1.422 5.406.719c0-.297-.078-.922-.75-1.266-.562-.281-1.156-.281-2.11-.281-.265 0-.718 0-.765-.016a.625.625 0 0 1-.562-.625c0-.093.047-.25.11-.328.452.234.968.266 1.218.266 1.437 0 1.984-.782 1.984-1.485 0-.468-.25-.796-.406-.953.297-.156.516-.172.625-.187a.43.43 0 0 0-.047.203c0 .25.172.422.438.422a.41.41 0 0 0 .422-.422m-2.141.937c0 .454 0 1.125-.875 1.125s-.875-.671-.875-1.125c0-.437 0-1.109.875-1.109s.875.672.875 1.11M4.547.75c0 .36-.39.89-1.688.89-1.187 0-1.687-.452-1.687-.906 0-.609.625-.609.766-.609h1.171c.313 0 1.438 0 1.438.625m0 0"/><path id="p" d="M3.813-1.234v-.532h-.47v.516c0 .672-.327.906-.609.906-.578 0-.578-.64-.578-.86v-2.75h1.469v-.468H2.156v-1.906h-.469c0 1-.484 1.984-1.484 2.016v.359h.828v2.734c0 1.063.86 1.282 1.578 1.282.75 0 1.204-.579 1.204-1.297m0 0"/><path id="q" d="M2.531-6.312c0-.391-.36-.72-.781-.72-.437 0-.797.329-.797.72 0 .046 0 .078.031.171L1.5-2.516c.031.25.031.266.25.266.188 0 .219-.016.25-.219l.516-3.718Zm-.015 5.53a.78.78 0 0 0-.766-.78.784.784 0 0 0-.781.78.774.774 0 1 0 1.547 0m0 0"/><clipPath id="k"><path d="M59 50h63.594v55H59Zm0 0"/></clipPath><clipPath id="n"><path d="M0 108h56v31.762H0Zm0 0"/></clipPath></defs><path fill="none" stroke="#000" stroke-miterlimit="10" stroke-width=".399" d="M1.063 138.563h120.332V.785H1.063Zm0 0"/><path fill="none" stroke="#000" stroke-miterlimit="10" stroke-width=".399" d="M8.707 27.39h37.527V13.755H8.707Zm0 0"/><use xlink:href="#a" x="12.028" y="23.99"/><use xlink:href="#b" x="22.917" y="23.99"/><use xlink:href="#c" x="28.646" y="23.99"/><use xlink:href="#d" x="33.368" y="23.99"/><use xlink:href="#e" x="36.546" y="23.99"/><path fill="none" stroke="#000" stroke-miterlimit="10" stroke-width=".399" d="M101.715 22.7c0-10.157-8.238-18.391-18.395-18.391-10.16 0-18.394 8.234-18.394 18.39 0 10.16 8.234 18.395 18.394 18.395 10.157 0 18.395-8.235 18.395-18.395Zm0 0"/><use xlink:href="#f" x="69.397" y="23.99"/><use xlink:href="#g" x="76.082" y="23.99"/><use xlink:href="#h" x="81.332" y="23.99"/><use xlink:href="#i" x="86.901" y="23.99"/><use xlink:href="#g" x="91.992" y="23.99"/><path fill="none" stroke="#000" stroke-miterlimit="10" stroke-width=".399" d="M18.184 84.29h18.574V70.675H18.184Zm0 0"/><use xlink:href="#j" x="21.503" y="80.909"/><use xlink:href="#g" x="28.188" y="80.909"/><g clip-path="url(#k)"><path fill="none" stroke="#000" stroke-miterlimit="10" stroke-width=".399" d="M117.875 77.48 65.199 55.664v43.637Zm0 0"/></g><use xlink:href="#l" x="68.52" y="80.909"/><use xlink:href="#b" x="76.48" y="80.909"/><use xlink:href="#m" x="82.209" y="80.909"/><use xlink:href="#d" x="88.575" y="80.909"/><use xlink:href="#e" x="91.753" y="80.909"/><g clip-path="url(#n)"><path fill="none" stroke="#000" stroke-miterlimit="10" stroke-width=".399" d="M50.355 124.457c0-5.848-10.246-10.586-22.886-10.586-12.637 0-22.883 4.738-22.883 10.586 0 5.844 10.246 10.586 22.883 10.586 12.64 0 22.886-4.742 22.886-10.586Zm0 0"/></g><use xlink:href="#o" x="14.608" y="126.618"/><use xlink:href="#c" x="20.337" y="126.618"/><use xlink:href="#g" x="25.059" y="126.618"/><use xlink:href="#h" x="30.309" y="126.618"/><use xlink:href="#p" x="35.878" y="126.618"/><path fill="none" stroke="#000" stroke-miterlimit="10" stroke-width=".399" d="M78.258 129.938h10.125v-13.665H78.258Zm0 0"/><use xlink:href="#q" x="81.576" y="126.618"/><path fill="none" stroke="#000" stroke-miterlimit="10" stroke-width=".399" d="m46.43 21.293 17.914.684"/><path fill="none" stroke="#000" stroke-linecap="round" stroke-linejoin="round" stroke-miterlimit="10" stroke-width=".39898404" d="M62.562 19.516c.325 1.449 1.141 2.156 1.981 2.468-.86.246-1.73.891-2.16 2.309"/><path fill="none" stroke="#000" stroke-miterlimit="10" stroke-width=".399" d="M83.32 41.293v21.262"/><path fill="none" stroke="#000" stroke-linecap="round" stroke-linejoin="round" stroke-miterlimit="10" stroke-width=".399" d="M85.71 60.68c-1.433.379-2.112 1.222-2.39 2.074-.277-.852-.957-1.695-2.39-2.074"/><path fill="none" stroke="#000" stroke-miterlimit="10" stroke-width=".399" d="M65 77.48H37.355"/><path fill="none" stroke="#000" stroke-linecap="round" stroke-linejoin="round" stroke-miterlimit="10" stroke-width=".399" d="M39.23 79.871c-.378-1.433-1.222-2.11-2.074-2.39.852-.278 1.696-.958 2.074-2.391"/><path fill="none" stroke="#000" stroke-miterlimit="10" stroke-width=".399" d="M27.469 84.488v28.785"/><path fill="none" stroke="#000" stroke-linecap="round" stroke-linejoin="round" stroke-miterlimit="10" stroke-width=".399" d="M29.86 111.402c-1.434.375-2.11 1.22-2.391 2.07-.278-.85-.957-1.695-2.39-2.07"/><path fill="none" stroke="#000" stroke-miterlimit="10" stroke-width=".399" d="m50.523 123.898 27.137-.656"/><path fill="none" stroke="#000" stroke-linecap="round" stroke-linejoin="round" stroke-miterlimit="10" stroke-width=".39897606" d="M75.727 120.898c.414 1.426 1.273 2.082 2.128 2.34-.84.301-1.668.996-2.011 2.442"/></svg>