<svg xmlns="http://www.w3.org/2000/svg" width="63.047" height="64.37"><defs><clipPath id="a"><path d="M47 14h15.57v21H47Zm0 0"/></clipPath><clipPath id="b"><path d="M47 28h15.57v21H47Zm0 0"/></clipPath><clipPath id="c"><path d="M40 0h22.57v22H40Zm0 0"/></clipPath></defs><path fill="none" stroke="#000" stroke-miterlimit="10" stroke-width=".399" d="m28.25 20.406-4.371 8.746M9.098 48.754 4.723 57.5M33.23 48.754 28.86 57.5M35.945 48.754 40.32 57.5M20.555 34.176l-8.137 9.554M24.488 34.176l8.133 9.554"/><g clip-path="url(#a)"><path fill="none" stroke="#000" stroke-miterlimit="10" stroke-width=".399" d="m57.367 20.406-4.37 8.746"/></g><g clip-path="url(#b)"><path fill="none" stroke="#000" stroke-miterlimit="10" stroke-width=".399" d="m52.996 34.582 4.371 8.742"/></g><path fill="none" stroke="#000" stroke-miterlimit="10" stroke-width=".399" d="m41.992 5.637-10.21 9.941"/><g clip-path="url(#c)"><path fill="none" stroke="#000" stroke-miterlimit="10" stroke-width=".399" d="m46.34 5.637 10.21 9.941"/></g><path d="M47 3.52a2.835 2.835 0 1 0-2.832 2.835A2.835 2.835 0 0 0 47 3.52M32.441 17.691a2.835 2.835 0 1 0-5.666.006 2.835 2.835 0 0 0 5.666-.006M25.355 31.867a2.835 2.835 0 1 0-5.667 0 2.835 2.835 0 0 0 5.667 0M13.29 46.04a2.836 2.836 0 1 0-5.672-.001 2.836 2.836 0 0 0 5.671 0M6.203 60.21a2.83 2.83 0 0 0-2.836-2.831A2.83 2.83 0 0 0 .531 60.21a2.836 2.836 0 1 0 5.672 0M37.426 46.04a2.836 2.836 0 1 0-5.672-.001 2.836 2.836 0 0 0 5.672 0M30.336 60.21a2.83 2.83 0 0 0-2.832-2.831 2.83 2.83 0 0 0-2.836 2.832 2.835 2.835 0 1 0 5.668 0M44.512 60.21a2.83 2.83 0 0 0-2.836-2.831 2.83 2.83 0 0 0-2.832 2.832 2.83 2.83 0 0 0 2.832 2.836 2.836 2.836 0 0 0 2.836-2.836M61.559 17.691a2.835 2.835 0 1 0-5.666.006 2.835 2.835 0 0 0 5.666-.006M54.473 31.867a2.835 2.835 0 1 0-2.836 2.832 2.835 2.835 0 0 0 2.836-2.832M61.559 46.04a2.83 2.83 0 0 0-2.832-2.837 2.836 2.836 0 1 0 0 5.672 2.83 2.83 0 0 0 2.832-2.836m0 0"/></svg>