<svg xmlns="http://www.w3.org/2000/svg" xmlns:xlink="http://www.w3.org/1999/xlink" width="88.653" height="95.564"><defs><path id="a" d="M3.188 0v-.328H2.28V-3.11c0-.157-.015-.188-.187-.188H2c-.437.328-1.078.328-1.187.328H.672v.328h.14c.063 0 .438 0 .813-.125v2.438H.719V0c.25-.016.953-.016 1.234-.016s1 0 1.235.016m0 0"/><path id="b" d="M3.328-1.047h-.406c-.031.188-.11.313-.156.328-.11.016-.328.016-.5.016H1.53c.313-.203.61-.39.828-.516.563-.312.97-.531.97-1.047 0-.625-.563-1.03-1.548-1.03-.234 0-1.343 0-1.343.733 0 .297.25.422.421.422.188 0 .407-.14.407-.406 0-.187-.11-.297-.125-.312.172-.094.359-.094.468-.094.5 0 .938.234.938.687 0 .391-.313.688-.625.907L.532-.344C.436-.28.436-.266.436-.156V0h2.704Zm0 0"/><path id="c" d="M3.39-.906c0-.438-.406-.735-.89-.844.297-.094.688-.344.688-.812 0-.407-.454-.735-1.344-.735-.797 0-1.25.344-1.25.797 0 .281.219.422.39.422a.394.394 0 0 0 .407-.406c0-.25-.188-.36-.188-.36.203-.14.453-.172.625-.172.484 0 .594.204.594.454 0 .203-.125.656-.735.671-.046 0-.265.016-.312.016-.078.016-.078.11-.078.14 0 .141.078.141.172.141h.343c.672 0 .72.407.72.688 0 .25-.032.687-.72.687-.109 0-.484-.015-.75-.172A.44.44 0 0 0 1.25-.75a.427.427 0 0 0-.437-.437c-.25 0-.422.171-.422.437 0 .5.484.828 1.437.828 1.235 0 1.563-.594 1.563-.984m0 0"/><path id="d" d="M3.5 0v-.328h-.656v-.438H3.5v-.343h-.656v-2.032c0-.156-.031-.187-.188-.187h-.36c-.124 0-.155 0-.202.078L.28-1.11v.344h1.86v.438h-.703V0c.234-.016.765-.016 1.046-.016.266 0 .75 0 1.016.016M2.219-1.11h-1.5l1.5-1.78Zm0 0"/><path id="e" d="M3.328-1c0-.5-.39-1.062-1.39-1.062a1.8 1.8 0 0 0-.782.156v-.547c.188.031.407.031.407.031A1.94 1.94 0 0 0 2.968-3c.078-.078.078-.078.078-.156 0-.031 0-.14-.11-.14 0 0-.015 0-.046.015-.203.047-.547.14-1.016.14-.344 0-.672-.046-1-.14-.047-.016-.062-.016-.078-.016-.11 0-.11.11-.11.188v1.5c0 .156.032.187.188.187.11 0 .11 0 .203-.094.078-.062.281-.28.828-.28.657 0 .657.468.657.765s0 .812-.844.812c-.078 0-.453 0-.688-.203a.39.39 0 0 0 .203-.344.4.4 0 0 0-.39-.406c-.188 0-.406.125-.406.406 0 .485.5.844 1.296.844C2.844.078 3.328-.453 3.328-1m0 0"/><path id="f" d="M3.39-1.031c0-.657-.546-1.094-1.374-1.094-.328 0-.641.14-.844.406.016-.453.031-.718.281-.984.14-.156.438-.313.828-.313.047 0 .219 0 .36.094-.047.016-.172.125-.172.313a.36.36 0 0 0 .375.375c.156 0 .36-.11.36-.375 0-.25-.126-.688-.923-.688-1.11 0-1.89.64-1.89 1.703S.875.078 1.906.078c.313 0 .657-.015 1-.25.266-.172.485-.406.485-.86m-.78 0c0 .406 0 .812-.704.812-.656 0-.718-.484-.718-.875 0-.375.265-.75.765-.75.656 0 .656.39.656.813m0 0"/><path id="g" d="M3.594-3.203H2.359L1.266-3.22c-.125 0-.141-.062-.157-.11H.703L.484-2.155h.422a.7.7 0 0 1 .11-.297c.03-.031.03-.031.078-.031.125-.016.343-.016.515-.016h.907c-.36.328-.485.438-.641.656-.5.657-.562 1.25-.562 1.516 0 .39.328.406.375.406.156 0 .234-.062.265-.094.11-.109.11-.234.11-.328.015-1.203.343-1.515.671-1.812l.313-.281.5-.47c.015-.015.031-.03.047-.062zm0 0"/><path id="h" d="M3.39-.922c0-.39-.265-.703-.765-.906.453-.203.563-.469.563-.703 0-.719-.876-.766-1.282-.766-.547 0-1.312.156-1.312.906 0 .407.328.641.5.735-.375.14-.703.375-.703.843 0 .844.968.891 1.484.891.25 0 1.516 0 1.516-1m-.703-1.594c0 .235-.156.407-.437.516l-.703-.312c-.344-.157-.453-.204-.453-.36 0-.219.172-.344.765-.344.313 0 .829.047.829.5m.126 1.844c0 .281-.22.453-.907.453-.39 0-.937-.078-.937-.593 0-.313.187-.516.547-.657l.984.438c.031 0 .313.125.313.36m0 0"/></defs><path fill="#7F7FFF" d="M9.34 51.813V17.797h8.504v34.016Zm0 0"/><use xlink:href="#a" x="7.452" y="27.949"/><path fill="#7F7FFF" d="M43.355 26.3v-8.503h17.008V26.3Zm0 0"/><use xlink:href="#b" x="49.971" y="27.949"/><path fill="#7F7FFF" d="M60.363 43.309V26.3h8.504v17.008Zm0 0"/><use xlink:href="#c" x="66.98" y="27.906"/><path fill="#7F7FFF" d="M77.371 34.805V.789h8.504v34.016Zm0 0"/><use xlink:href="#d" x="83.987" y="27.969"/><path fill="#7F7FFF" d="M.836 85.828v-8.504h42.52v8.504Zm0 0"/><use xlink:href="#e" x="7.452" y="87.434"/><path fill="#7F7FFF" d="M51.86 94.336V77.324h8.503v17.012Zm0 0"/><use xlink:href="#f" x="49.971" y="87.434"/><path fill="#7F7FFF" d="M68.867 85.828V51.813h8.504v34.015Zm0 0"/><use xlink:href="#g" x="66.98" y="87.449"/><path fill="#7F7FFF" d="M77.371 94.336v-8.508h8.504v8.508Zm0 0"/><use xlink:href="#h" x="83.987" y="87.434"/></svg>