<svg xmlns="http://www.w3.org/2000/svg" xmlns:xlink="http://www.w3.org/1999/xlink" width="98.156" height="106.706"><defs><path id="a" d="M5.281-3.187c0-.954-.015-3.344-2.422-3.344S.453-4.156.453-3.188c0 1 0 3.297 2.406 3.297 2.391 0 2.422-2.296 2.422-3.296M4-3.297c0 .563 0 1.469-.078 1.985-.14.921-.766 1.062-1.063 1.062-.359 0-.921-.219-1.046-.953-.094-.516-.094-1.547-.094-2.094 0-.719 0-1.375.078-1.89.125-.891.828-.985 1.062-.985.375 0 .782.188.97.625C4-5.172 4-4.109 4-3.297m0 0"/><path id="e" d="M4.922 0v-.469h-1.39v-5.734c0-.234 0-.328-.266-.328-.11 0-.125 0-.22.078-.765.562-1.796.562-2 .562H.845v.47h.203c.156 0 .703-.016 1.297-.204v5.156H.954V0c.437-.031 1.5-.031 1.984-.031s1.546 0 1.984.031m0 0"/><path id="b" d="M5.375-.844c-.016.516-.484.735-.828.735-.438 0-.828-.36-1.031-.563.437-.437.859-1.062 1.172-1.531.171-.25.359-.547.984-.547V-3A10 10 0 0 1 5-2.969c-.312 0-.86-.031-.875-.031v.25c.25 0 .422.11.422.266 0 .062-.031.125-.031.125-.016.03-.344.515-.578.828-.297.422-.5.593-.579.687-.062-.062-.921-1-1.25-1.797.563-.578.97-.984.97-1.421 0-.36-.188-.907-.704-.907-.5 0-1.078.39-1.078 1.14 0 .61.203 1.157.297 1.392l-.75.703c-.25.234-.469.437-.469.828 0 .625.64 1.047 1.406 1.047.703 0 1.203-.375 1.375-.516.406.313.86.516 1.375.516.563 0 1.078-.391 1.078-.985Zm-3.344-2A3.5 3.5 0 0 1 1.812-4c0-.5.282-.781.563-.781.375 0 .469.515.469.718 0 .344-.328.735-.813 1.22m-.344.594c.422.906 1.157 1.61 1.297 1.734-.343.235-.734.407-1.156.407-.562 0-.812-.563-.812-1 0-.516.187-.703.672-1.141m0 0"/><path id="d" d="M2.328-4.437c0-.188 0-.188-.203-.188-.453.438-1.078.438-1.36.438v.25c.157 0 .626 0 1-.188v3.547c0 .234 0 .328-.687.328H.812V0c.125 0 .985-.031 1.235-.031.219 0 1.094.031 1.25.031v-.25H3.03c-.703 0-.703-.094-.703-.328Zm0 0"/><path id="c" d="M5.297-2.312c.125-.063.172-.11.172-.188s-.047-.14-.172-.187L1.063-4.72C.969-4.78.938-4.78.922-4.78c-.094 0-.172.078-.172.187 0 .094.094.14.156.172l4 1.922L.938-.594C.813-.53.75-.516.75-.39a.17.17 0 0 0 .172.157c.015 0 .047 0 .125-.032Zm-.11 3.609c.11 0 .282 0 .282-.156 0-.172-.172-.172-.282-.172H1.032c-.125 0-.281 0-.281.172 0 .156.172.156.281.156Zm0 0"/></defs><use xlink:href="#a" x=".127" y="7.396"/><path fill="none" stroke="#000" stroke-miterlimit="10" stroke-width=".399" d="M29.219 38.922h17.433V11.023H29.22Zm0 0"/><use xlink:href="#b" x="34.877" y="18.08"/><use xlink:href="#a" x=".127" y="56.475"/><path fill="none" stroke="#000" stroke-miterlimit="10" stroke-width=".399" d="M70.578 67.215h17.438V39.32H70.578Zm0 0"/><use xlink:href="#c" x="74.198" y="46.311"/><use xlink:href="#d" x="80.425" y="46.311"/><path fill="none" stroke="#000" stroke-miterlimit="10" stroke-width=".399" d="M29.219 95.508h17.433V67.613H29.22Zm21.12-13.95a1.745 1.745 0 1 0-3.488.005 1.745 1.745 0 0 0 3.489-.004Zm0 0"/><use xlink:href="#b" x="34.877" y="74.667"/><use xlink:href="#e" x=".127" y="105.553"/><path fill="none" stroke="#000" stroke-miterlimit="10" stroke-width=".399" d="M9.375 4.188h8.504v16.07h11.14M9.375 53.266h8.504V29.688h11.14M9.375 53.266h8.504v23.578h11.14M9.375 102.293h8.504V86.277h11.14M46.852 24.973h8.503V48.55H70.38M50.54 81.563h8.503V57.984h11.336M88.215 53.266h8.504"/></svg>