<svg xmlns="http://www.w3.org/2000/svg" xmlns:xlink="http://www.w3.org/1999/xlink" width="400.196" height="336.764"><defs><path id="b" d="M5.719-2.031c0-1.094-.797-1.906-1.719-2.094l-1.437-.312c-.407-.094-.954-.422-.954-1.032 0-.437.282-1.047 1.266-1.047.797 0 1.813.329 2.047 1.688.031.25.031.266.234.266.25 0 .25-.047.25-.282v-1.828c0-.187 0-.281-.187-.281-.078 0-.078.016-.188.11l-.453.437C4-6.86 3.344-6.953 2.875-6.953c-1.516 0-2.234.969-2.234 2.016 0 .64.328 1.093.53 1.312.5.5.829.563 1.923.797.875.203 1.047.219 1.265.437.141.141.391.407.391.86 0 .484-.25 1.172-1.297 1.172-.75 0-2.265-.203-2.344-1.688-.015-.172-.015-.219-.234-.219-.234 0-.234.047-.234.282v1.812C.64.016.64.11.813.11.906.11.922.094 1 .016l.469-.453c.656.484 1.578.546 1.984.546C5.11.11 5.72-1.016 5.72-2.03m0 0"/><path id="c" d="M3.813-1.234v-.532h-.47v.516c0 .672-.327.906-.609.906-.578 0-.578-.64-.578-.86v-2.75h1.469v-.468H2.156v-1.906h-.469c0 1-.484 1.984-1.484 2.016v.359h.828v2.734c0 1.063.86 1.282 1.578 1.282.75 0 1.204-.579 1.204-1.297m0 0"/><path id="d" d="M5.516-.234c0-.235-.125-.235-.266-.235-.61-.015-.61-.14-.61-.375v-2.14c0-.891-.702-1.532-2.187-1.532-.562 0-1.781.047-1.781.922 0 .438.344.625.61.625.312 0 .624-.219.624-.625 0-.297-.187-.469-.218-.5a5 5 0 0 1 .718-.062c.75 0 1.11.422 1.11 1.172v.343c-.72.032-3.25.125-3.25 1.563C.266-.125 1.5.062 2.188.062c.796 0 1.265-.406 1.484-.828 0 .313 0 .766 1.047.766h.468c.204 0 .329 0 .329-.234m-2-1.157c0 .97-.922 1.094-1.172 1.094-.516 0-.906-.344-.906-.797 0-1.062 1.578-1.203 2.078-1.234Zm0 0"/><path id="e" d="M4.406-3.672c0-.531-.531-.812-1.062-.812-.688 0-1.094.5-1.313 1.125v-1.125l-1.656.078v.468c.61 0 .688 0 .688.391v3.078H.375V0l1.25-.031C2-.031 2.641-.031 3 0v-.469h-.86v-1.75c0-.687.235-1.906 1.235-1.906 0 0-.187.172-.187.453 0 .406.328.61.609.61.297 0 .61-.204.61-.61m0 0"/><path id="f" d="M3.078.313c0-.125-.047-.157-.187-.25C2.063-.5 1.75-1.391 1.75-2.125c0-.672.25-1.594 1.156-2.203.125-.094.172-.125.172-.25a.254.254 0 0 0-.265-.25c-.204 0-1.641.906-1.641 2.703 0 .813.312 1.438.562 1.781.375.516.907.907 1.079.907.218 0 .265-.172.265-.25m0 0"/><path id="g" d="M3.219-.906c0-.735-.906-.906-1.14-.938l-.704-.125C1.188-2 1-2.079 1-2.25c0-.156.219-.328.813-.328.515 0 .609.172.625.328.015.14.03.281.28.281.298 0 .298-.156.298-.328v-.469c0-.14-.016-.328-.25-.328-.157 0-.22.063-.25.125-.282-.125-.563-.125-.688-.125-1.187 0-1.344.594-1.344.844 0 .656.735.797 1.391.89.297.063.828.141.828.454 0 .234-.25.422-.828.422-.297 0-.656-.063-.812-.563C1.03-1.203.984-1.28.78-1.28c-.297 0-.297.172-.297.328v.656c0 .14 0 .344.25.344.079 0 .188 0 .282-.234.328.218.672.234.859.234 1.125 0 1.344-.61 1.344-.953m0 0"/><path id="h" d="M2.313-.469a.477.477 0 0 0-.485-.484.47.47 0 0 0-.469.469c0 .28.22.484.47.484a.473.473 0 0 0 .484-.469m0 0"/><path id="i" d="M3.188-.266c0-.25-.204-.25-.329-.25h-.656v-2.187c0-.25-.047-.328-.328-.328H.906c-.125 0-.328 0-.328.25 0 .265.203.265.328.265h.719v2H.859c-.14 0-.343 0-.343.25C.516 0 .734 0 .859 0h2c.125 0 .329 0 .329-.266m-.954-3.562a.39.39 0 0 0-.406-.39.387.387 0 0 0-.39.39c0 .219.171.39.39.39a.39.39 0 0 0 .406-.39m0 0"/><path id="j" d="M3.578-.266c0-.25-.203-.25-.328-.25H3v-1.53c0-.72-.36-1.032-.937-1.032-.391 0-.672.172-.844.297 0-.172-.047-.25-.313-.25h-.5c-.14 0-.328 0-.328.25 0 .265.203.265.313.265h.25v2H.406c-.14 0-.328 0-.328.25C.078 0 .281 0 .391 0h1.093c.11 0 .329 0 .329-.266 0-.25-.204-.25-.344-.25h-.25v-1.156c0-.64.484-.875.797-.875.328 0 .406.172.406.547v1.484h-.203c-.14 0-.344 0-.344.25 0 .266.219.266.344.266H3.25c.11 0 .328 0 .328-.266m0 0"/><path id="k" d="M3.25-.797c0-.234-.234-.234-.281-.234-.156 0-.219.015-.281.172-.141.328-.485.375-.657.375-.469 0-.937-.297-1.062-.813h1.953c.172 0 .328 0 .328-.312 0-.797-.453-1.485-1.375-1.485-.828 0-1.516.703-1.516 1.563S1.08.047 1.984.047c.938 0 1.266-.656 1.266-.844m-.594-1.015H.97c.125-.438.484-.766.906-.766.328 0 .703.156.781.765m0 0"/><path id="l" d="M3.406-2.594c0-.156-.078-.484-.703-.484-.328 0-.734.11-1.094.469v-.094c0-.25-.046-.328-.328-.328h-.75c-.125 0-.328 0-.328.25 0 .265.203.265.328.265h.5v2h-.5c-.125 0-.328 0-.328.25C.203 0 .406 0 .531 0h1.781c.126 0 .329 0 .329-.266 0-.25-.203-.25-.328-.25h-.704v-.796c0-.61.36-1.22 1.11-1.235 0 .156.172.281.344.281.187 0 .343-.125.343-.328m0 0"/><path id="m" d="M3.422-1.516c0-.875-.64-1.562-1.39-1.562-.298 0-.579.11-.813.281 0-.172-.063-.234-.313-.234h-.5c-.14 0-.343 0-.343.25 0 .265.218.265.328.265h.25v3.5H.406c-.14 0-.343 0-.343.266 0 .25.218.25.328.25h1.093c.11 0 .329 0 .329-.25 0-.266-.204-.266-.344-.266h-.25V-.234c.265.234.531.28.734.28.766 0 1.469-.671 1.469-1.562m-.578 0c0 .61-.453 1.032-.906 1.032-.485 0-.704-.563-.704-.875v-.485c0-.375.375-.703.766-.703.469 0 .844.469.844 1.031m0 0"/><path id="n" d="M3.281-1.516c0-.89-.672-1.578-1.453-1.578-.797 0-1.453.688-1.453 1.578S1.047.047 1.828.047c.766 0 1.453-.688 1.453-1.563m-.578-.046c0 .593-.406 1.078-.875 1.078S.953-.97.953-1.562s.422-1.016.875-1.016.875.422.875 1.015m0 0"/><path id="o" d="M3.14-.906c0-.156 0-.313-.296-.313-.266 0-.266.157-.266.297-.015.375-.36.438-.515.438-.454 0-.454-.313-.454-.47v-1.562h1.047c.125 0 .328 0 .328-.265 0-.25-.187-.25-.328-.25H1.61v-.516c0-.14-.015-.328-.296-.328-.282 0-.282.172-.282.328v.516H.484c-.125 0-.328 0-.328.25 0 .265.203.265.328.265h.547v1.61c0 .687.485.953 1.016.953S3.14-.266 3.14-.906m0 0"/><path id="p" d="M3.094-.266c0-.25-.188-.25-.313-.25H2.22V-4c0-.125-.016-.328-.266-.328-.156 0-.219.094-.25.187-.234.547-.578.625-.687.641-.141 0-.313.031-.313.266 0 .203.156.25.281.25s.375-.032.657-.235v2.703h-.563c-.14 0-.328 0-.328.25C.75 0 .953 0 1.078 0h1.703c.125 0 .313 0 .313-.266m0 0"/><path id="q" d="M2.484-2.125c0-.828-.312-1.453-.562-1.797-.375-.515-.906-.906-1.078-.906-.203 0-.266.187-.266.25 0 .125.094.187.14.219 1.095.718 1.188 1.797 1.188 2.234 0 .656-.25 1.578-1.14 2.188C.64.14.578.188.578.313c0 .078.063.25.266.25s1.64-.907 1.64-2.688m0 0"/><path id="r" d="M3.297-.328v-.188c0-.156 0-.328-.266-.328-.265 0-.297.125-.297.328H1.313c.406-.343.968-.796 1.234-1.03.437-.391.75-.845.75-1.407 0-.844-.703-1.375-1.563-1.375-.828 0-1.39.578-1.39 1.187 0 .297.234.375.36.375.171 0 .359-.14.359-.359a.35.35 0 0 0-.094-.234c.11-.266.39-.453.734-.453.531 0 1.031.296 1.031.859 0 .453-.328.844-.765 1.203L.469-.484C.39-.422.344-.391.344-.266.344 0 .547 0 .672 0h2.312c.266 0 .313-.062.313-.328m0 0"/><path id="s" d="M3.36-1.234c0-.47-.297-.875-.72-1.094.344-.25.516-.64.516-1 0-.516-.515-1-1.328-1-.86 0-1.344.36-1.344.844 0 .265.204.375.36.375.172 0 .36-.141.36-.36 0-.078-.032-.14-.048-.172.203-.171.625-.171.688-.171.422 0 .734.218.734.5a.72.72 0 0 1-.25.546c-.219.172-.375.188-.61.188-.437 0-.546.062-.546.281 0 .266.203.266.328.266h.313c.64 0 .968.422.968.797 0 .39-.36.78-.937.78-.25 0-.719-.062-.907-.327A.36.36 0 0 0 1-1a.363.363 0 0 0-.36-.36c-.171 0-.343.126-.343.391C.297-.344.969.078 1.844.078c.922 0 1.515-.656 1.515-1.312m0 0"/><path id="t" d="M3.469-1.406c0-.266-.203-.266-.328-.266h-.485V-4c0-.266-.047-.344-.328-.344h-.187c-.188 0-.235.016-.328.172L.266-1.734c-.079.093-.079.109-.079.265 0 .266.079.313.329.313h1.656v.64h-.36c-.14 0-.328 0-.328.25 0 .266.188.266.329.266H3.03c.125 0 .328 0 .328-.266 0-.25-.203-.25-.328-.25h-.375v-.64h.485c.125 0 .328 0 .328-.25m-1.313-.266H.812l1.344-2.125Zm0 0"/><path id="u" d="M3.297-1.344c0-.718-.531-1.406-1.36-1.406-.234 0-.515.047-.78.172v-1.156H2.75c.11 0 .313-.016.313-.266s-.188-.266-.313-.266H.906c-.265 0-.312.079-.312.344v1.797c0 .156 0 .344.265.344.157 0 .188-.047.25-.125.172-.203.438-.328.813-.328.531 0 .812.484.812.89 0 .516-.468.89-1 .89-.171 0-.562-.046-.75-.358.032-.047.079-.11.079-.22a.367.367 0 0 0-.36-.374c-.125 0-.36.078-.36.39C.344-.437.939.078 1.735.078c.875 0 1.563-.64 1.563-1.422m0 0"/><path id="v" d="M3.578-.266c0-.25-.219-.25-.328-.25H3v-2.187c0-.25-.047-.328-.328-.328h-.485c-.14 0-.343 0-.343.25 0 .265.218.265.328.265h.25v1.391c0 .563-.516.64-.719.64-.469 0-.484-.187-.484-.39v-1.828c0-.25-.047-.328-.313-.328h-.5c-.14 0-.328 0-.328.25 0 .265.203.265.313.265h.25v1.688c0 .687.5.875 1.03.875.266 0 .517-.063.767-.219C2.484 0 2.625 0 2.75 0h.5c.125 0 .328 0 .328-.266m0 0"/><path id="y" d="M3.266-.797c0-.234-.235-.234-.297-.234-.125 0-.203 0-.266.172-.047.078-.187.375-.625.375a1.027 1.027 0 0 1-1.015-1.032c0-.312.187-1.062 1.062-1.062l.344.015c.015.282.172.376.36.376.187 0 .358-.126.358-.36 0-.531-.734-.547-1.062-.547-1.219 0-1.64.953-1.64 1.578 0 .844.671 1.563 1.546 1.563 1 0 1.235-.719 1.235-.844m0 0"/><path id="z" d="M3.469-.266c0-.25-.203-.25-.328-.25h-.25l-.828-1.046.734-.954h.234c.125 0 .344 0 .344-.265 0-.25-.219-.25-.344-.25H2.25c-.125 0-.328 0-.328.25 0 .203.11.265.281.265l-.39.547-.422-.547c.156 0 .28-.062.28-.265 0-.25-.202-.25-.327-.25H.547c-.125 0-.328 0-.328.25 0 .265.219.265.328.265h.25l.75.954L.75-.516H.516c-.125 0-.344 0-.344.25C.172 0 .39 0 .516 0h.78c.126 0 .329 0 .329-.266 0-.203-.11-.25-.297-.25l.484-.703.5.703c-.187 0-.296.047-.296.25 0 .266.203.266.328.266h.797c.109 0 .328 0 .328-.266m0 0"/><path id="A" d="M3.64-.266c0-.218-.14-.25-.39-.25v-1.593c0-.157-.016-.97-.656-.97a.84.84 0 0 0-.656.313.61.61 0 0 0-.532-.312.88.88 0 0 0-.547.203c-.046-.156-.187-.156-.312-.156H.328c-.125 0-.328 0-.328.25 0 .234.125.265.39.265v2c-.265 0-.39.032-.39.25C0 0 .219 0 .328 0h.594c.125 0 .312 0 .312-.266 0-.218-.109-.25-.359-.25v-1.171c0-.563.234-.86.5-.86.14 0 .203.11.203.5v1.531c-.156 0-.281.032-.281.25 0 .266.187.266.312.266h.516c.125 0 .313 0 .313-.266 0-.218-.126-.25-.376-.25v-1.171c0-.563.25-.86.5-.86.141 0 .204.11.204.5v1.531c-.141 0-.282.032-.282.25 0 .266.204.266.313.266h.5c.125 0 .344 0 .344-.266m0 0"/><path id="B" d="M3.578-.266c0-.25-.203-.25-.328-.25H3v-3.406c0-.25-.047-.344-.328-.344h-.485c-.14 0-.343.016-.343.266s.218.266.328.266h.25v.906a1.26 1.26 0 0 0-.735-.25c-.765 0-1.453.672-1.453 1.562C.234-.64.875.047 1.625.047c.344 0 .61-.14.797-.313.015.188.062.266.328.266h.5c.125 0 .328 0 .328-.266M2.422-1.375c0 .36-.297.89-.781.89-.453 0-.828-.452-.828-1.03 0-.61.437-1.032.89-1.032.406 0 .719.344.719.688Zm0 0"/><path id="C" d="M3.422-1.516c0-.875-.64-1.562-1.39-1.562-.298 0-.579.11-.813.265v-1.109c0-.25-.047-.344-.313-.344h-.5c-.14 0-.343.016-.343.266s.218.266.328.266h.25v3.406C.64-.172.656 0 .938 0c.218 0 .28-.094.28-.234.266.218.532.28.735.28.766 0 1.469-.671 1.469-1.562m-.578 0c0 .61-.453 1.032-.906 1.032-.485 0-.704-.563-.704-.875v-.485c0-.375.375-.703.766-.703.469 0 .844.469.844 1.031m0 0"/><path id="D" d="M3.625-.266c0-.25-.203-.25-.328-.25-.203 0-.297-.03-.344-.046V-2c0-.5-.375-1.094-1.406-1.094-.313 0-1.031.016-1.031.547 0 .235.172.36.359.36.11 0 .344-.063.344-.36 0 0 .234-.031.343-.031.454 0 .782.187.813.594-1.219.03-2.047.39-2.047 1.062 0 .485.453.969 1.188.969.234 0 .656-.047.968-.25.172.187.485.203.75.203.235 0 .391-.016.391-.266M2.359-.969c0 .14 0 .266-.234.375-.234.11-.516.11-.578.11-.39 0-.64-.203-.64-.438 0-.312.546-.515 1.452-.562Zm0 0"/><path id="E" d="M3.36-4c0-.25-.188-.266-.329-.266H.828c-.062-.093-.187-.109-.25-.109-.281 0-.281.188-.281.344v.281c0 .156 0 .328.281.328.266 0 .281-.125.297-.312h1.61C1.358-2.5 1.155-1.031 1.155-.297c0 .11 0 .375.282.375.14 0 .28-.094.28-.328a4.94 4.94 0 0 1 1.47-3.469c.171-.14.171-.156.171-.281m0 0"/><path id="F" d="M3.547-2.781c0-.25-.188-.25-.328-.25h-.781c-.157 0-.344 0-.344.25 0 .265.172.265.344.265h.265l-.297 1.72-.14-.532c-.125-.469-.172-.547-.422-.547-.094 0-.235 0-.328.188l-.266.906-.297-1.735h.266c.156 0 .343 0 .343-.265 0-.25-.187-.25-.343-.25H.437c-.14 0-.343 0-.343.25 0 .234.14.265.36.265L.858-.28c.032.187.047.312.36.312.312 0 .343-.062.453-.515l.172-.641.265 1c.094.14.235.156.344.156.281 0 .313-.125.344-.312l.406-2.235c.219 0 .344-.03.344-.265m0 0"/><path id="G" d="M3.578-.266c0-.25-.203-.25-.328-.25H3v-1.53c0-.72-.36-1.032-.937-1.032-.391 0-.672.172-.844.297v-1.14c0-.25-.047-.345-.313-.345h-.5c-.14 0-.328.016-.328.266s.203.266.313.266h.25v3.218H.406c-.14 0-.328 0-.328.25C.078 0 .281 0 .391 0h1.093c.11 0 .329 0 .329-.266 0-.25-.204-.25-.344-.25h-.25v-1.156c0-.64.484-.875.797-.875.328 0 .406.172.406.547v1.484h-.203c-.14 0-.344 0-.344.25 0 .266.219.266.344.266H3.25c.11 0 .328 0 .328-.266m0 0"/><clipPath id="a"><path d="M0 0h399.793v336.645H0Zm0 0"/></clipPath><clipPath id="w"><path d="M88 325h15v11.645H88Zm0 0"/></clipPath><clipPath id="x"><path d="M297 325h15v11.645h-15Zm0 0"/></clipPath></defs><path fill="#FFFBB3" d="m199.695 23.094-58.953 84.347-98.437 30.004 62 82.137-1.883 102.89 97.273-33.59 97.274 33.59-1.883-102.89 62.004-82.137-98.438-30.004Zm0 0"/><g clip-path="url(#a)"><path fill="none" stroke="#B2B2B2" stroke-miterlimit="10" stroke-width="14.173" d="m199.695 23.094-58.953 84.347-98.437 30.004 62 82.137-1.883 102.89 97.273-33.59 97.274 33.59-1.883-102.89 62.004-82.137-98.438-30.004Zm0 0"/></g><g fill="#B2B2B2"><use xlink:href="#b" x="188.644" y="216.878"/><use xlink:href="#c" x="195.01" y="216.878"/><use xlink:href="#d" x="199.463" y="216.878"/><use xlink:href="#e" x="205.033" y="216.878"/></g><path fill="none" stroke="#B2B2B2" stroke-miterlimit="10" stroke-width=".996" d="M210.254 216.988v-56.804"/><path fill="none" stroke="#000" stroke-miterlimit="10" stroke-width=".399" d="m134.926 102.785 2.82-2.816m-2.82 0 2.82 2.816"/><use xlink:href="#f" x="105.217" y="96.352"/><use xlink:href="#g" x="108.878" y="96.352"/><use xlink:href="#h" x="112.54" y="96.352"/><use xlink:href="#i" x="116.201" y="96.352"/><use xlink:href="#j" x="119.862" y="96.352"/><use xlink:href="#j" x="123.523" y="96.352"/><use xlink:href="#k" x="127.185" y="96.352"/><use xlink:href="#l" x="130.846" y="96.352"/><use xlink:href="#m" x="138.168" y="96.352"/><use xlink:href="#n" x="141.83" y="96.352"/><use xlink:href="#i" x="145.491" y="96.352"/><use xlink:href="#j" x="149.152" y="96.352"/><use xlink:href="#o" x="152.814" y="96.352"/><use xlink:href="#p" x="160.136" y="96.352"/><use xlink:href="#q" x="163.797" y="96.352"/><path fill="none" stroke="#000" stroke-miterlimit="10" stroke-width=".399" d="m95.766 223.305 2.82-2.817m-2.82 0 2.82 2.817"/><use xlink:href="#f" x="66.057" y="216.871"/><use xlink:href="#g" x="69.718" y="216.871"/><use xlink:href="#h" x="73.38" y="216.871"/><use xlink:href="#i" x="77.041" y="216.871"/><use xlink:href="#j" x="80.702" y="216.871"/><use xlink:href="#j" x="84.363" y="216.871"/><use xlink:href="#k" x="88.025" y="216.871"/><use xlink:href="#l" x="91.686" y="216.871"/><use xlink:href="#m" x="99.008" y="216.871"/><use xlink:href="#n" x="102.67" y="216.871"/><use xlink:href="#i" x="106.331" y="216.871"/><use xlink:href="#j" x="109.992" y="216.871"/><use xlink:href="#o" x="113.654" y="216.871"/><use xlink:href="#r" x="120.976" y="216.871"/><use xlink:href="#q" x="124.637" y="216.871"/><path fill="none" stroke="#000" stroke-miterlimit="10" stroke-width=".399" d="m198.29 297.79 2.815-2.817m-2.816 0 2.816 2.816"/><use xlink:href="#f" x="168.577" y="304.726"/><use xlink:href="#g" x="172.238" y="304.726"/><use xlink:href="#h" x="175.9" y="304.726"/><use xlink:href="#i" x="179.561" y="304.726"/><use xlink:href="#j" x="183.222" y="304.726"/><use xlink:href="#j" x="186.883" y="304.726"/><use xlink:href="#k" x="190.545" y="304.726"/><use xlink:href="#l" x="194.206" y="304.726"/><use xlink:href="#m" x="201.521" y="304.726"/><use xlink:href="#n" x="205.183" y="304.726"/><use xlink:href="#i" x="208.844" y="304.726"/><use xlink:href="#j" x="212.505" y="304.726"/><use xlink:href="#o" x="216.167" y="304.726"/><use xlink:href="#s" x="223.489" y="304.726"/><use xlink:href="#q" x="227.15" y="304.726"/><path fill="none" stroke="#000" stroke-miterlimit="10" stroke-width=".399" d="m300.809 223.305 2.816-2.817m-2.816 0 2.816 2.817"/><use xlink:href="#f" x="305.737" y="223.557"/><use xlink:href="#g" x="309.398" y="223.557"/><use xlink:href="#h" x="313.06" y="223.557"/><use xlink:href="#i" x="316.721" y="223.557"/><use xlink:href="#j" x="320.382" y="223.557"/><use xlink:href="#j" x="324.043" y="223.557"/><use xlink:href="#k" x="327.705" y="223.557"/><use xlink:href="#l" x="331.366" y="223.557"/><use xlink:href="#m" x="338.681" y="223.557"/><use xlink:href="#n" x="342.343" y="223.557"/><use xlink:href="#i" x="346.004" y="223.557"/><use xlink:href="#j" x="349.665" y="223.557"/><use xlink:href="#o" x="353.327" y="223.557"/><use xlink:href="#t" x="360.649" y="223.557"/><use xlink:href="#q" x="364.31" y="223.557"/><path fill="none" stroke="#000" stroke-miterlimit="10" stroke-width=".399" d="m261.648 102.785 2.817-2.816m-2.817 0 2.817 2.816"/><use xlink:href="#f" x="231.936" y="96.352"/><use xlink:href="#g" x="235.597" y="96.352"/><use xlink:href="#h" x="239.259" y="96.352"/><use xlink:href="#i" x="242.92" y="96.352"/><use xlink:href="#j" x="246.581" y="96.352"/><use xlink:href="#j" x="250.242" y="96.352"/><use xlink:href="#k" x="253.904" y="96.352"/><use xlink:href="#l" x="257.565" y="96.352"/><use xlink:href="#m" x="264.887" y="96.352"/><use xlink:href="#n" x="268.549" y="96.352"/><use xlink:href="#i" x="272.21" y="96.352"/><use xlink:href="#j" x="275.871" y="96.352"/><use xlink:href="#o" x="279.533" y="96.352"/><use xlink:href="#u" x="286.855" y="96.352"/><use xlink:href="#q" x="290.516" y="96.352"/><path fill="none" stroke="#000" stroke-miterlimit="10" stroke-width=".399" d="m198.29 12.133 2.815-2.82m-2.816 0 2.816 2.82"/><use xlink:href="#f" x="168.577" y="5.698"/><use xlink:href="#g" x="172.238" y="5.698"/><use xlink:href="#h" x="175.9" y="5.698"/><use xlink:href="#n" x="179.561" y="5.698"/><use xlink:href="#v" x="183.222" y="5.698"/><use xlink:href="#o" x="186.883" y="5.698"/><use xlink:href="#k" x="190.545" y="5.698"/><use xlink:href="#l" x="194.206" y="5.698"/><use xlink:href="#m" x="201.521" y="5.698"/><use xlink:href="#n" x="205.183" y="5.698"/><use xlink:href="#i" x="208.844" y="5.698"/><use xlink:href="#j" x="212.505" y="5.698"/><use xlink:href="#o" x="216.167" y="5.698"/><use xlink:href="#p" x="223.489" y="5.698"/><use xlink:href="#q" x="227.15" y="5.698"/><path fill="none" stroke="#000" stroke-miterlimit="10" stroke-width=".399" d="m29.129 135.031 2.816-2.816m-2.816 0 2.816 2.816"/><use xlink:href="#f" x="-.581" y="128.597"/><use xlink:href="#g" x="3.08" y="128.597"/><use xlink:href="#h" x="6.742" y="128.597"/><use xlink:href="#n" x="10.403" y="128.597"/><use xlink:href="#v" x="14.064" y="128.597"/><use xlink:href="#o" x="17.725" y="128.597"/><use xlink:href="#k" x="21.387" y="128.597"/><use xlink:href="#l" x="25.048" y="128.597"/><use xlink:href="#m" x="32.363" y="128.597"/><use xlink:href="#n" x="36.025" y="128.597"/><use xlink:href="#i" x="39.686" y="128.597"/><use xlink:href="#j" x="43.347" y="128.597"/><use xlink:href="#o" x="47.009" y="128.597"/><use xlink:href="#r" x="54.331" y="128.597"/><use xlink:href="#q" x="57.992" y="128.597"/><g clip-path="url(#w)"><path fill="none" stroke="#000" stroke-miterlimit="10" stroke-width=".399" d="m93.742 333.89 2.817-2.816m-2.817 0 2.817 2.817"/></g><use xlink:href="#f" x="29.392" y="334.14"/><use xlink:href="#g" x="33.053" y="334.14"/><use xlink:href="#h" x="36.715" y="334.14"/><use xlink:href="#n" x="40.376" y="334.14"/><use xlink:href="#v" x="44.037" y="334.14"/><use xlink:href="#o" x="47.698" y="334.14"/><use xlink:href="#k" x="51.36" y="334.14"/><use xlink:href="#l" x="55.021" y="334.14"/><use xlink:href="#m" x="62.343" y="334.14"/><use xlink:href="#n" x="66.005" y="334.14"/><use xlink:href="#i" x="69.666" y="334.14"/><use xlink:href="#j" x="73.327" y="334.14"/><use xlink:href="#o" x="76.989" y="334.14"/><use xlink:href="#s" x="84.311" y="334.14"/><use xlink:href="#q" x="87.972" y="334.14"/><g clip-path="url(#x)"><path fill="none" stroke="#000" stroke-miterlimit="10" stroke-width=".399" d="m302.832 333.89 2.82-2.816m-2.82 0 2.82 2.817"/></g><use xlink:href="#f" x="307.761" y="334.14"/><use xlink:href="#g" x="311.422" y="334.14"/><use xlink:href="#h" x="315.084" y="334.14"/><use xlink:href="#n" x="318.745" y="334.14"/><use xlink:href="#v" x="322.406" y="334.14"/><use xlink:href="#o" x="326.067" y="334.14"/><use xlink:href="#k" x="329.729" y="334.14"/><use xlink:href="#l" x="333.39" y="334.14"/><use xlink:href="#m" x="340.712" y="334.14"/><use xlink:href="#n" x="344.374" y="334.14"/><use xlink:href="#i" x="348.035" y="334.14"/><use xlink:href="#j" x="351.696" y="334.14"/><use xlink:href="#o" x="355.358" y="334.14"/><use xlink:href="#t" x="362.68" y="334.14"/><use xlink:href="#q" x="366.341" y="334.14"/><path fill="none" stroke="#000" stroke-miterlimit="10" stroke-width=".399" d="m367.45 135.031 2.816-2.816m-2.817 0 2.817 2.816"/><use xlink:href="#f" x="337.735" y="128.597"/><use xlink:href="#g" x="341.396" y="128.597"/><use xlink:href="#h" x="345.058" y="128.597"/><use xlink:href="#n" x="348.719" y="128.597"/><use xlink:href="#v" x="352.38" y="128.597"/><use xlink:href="#o" x="356.041" y="128.597"/><use xlink:href="#k" x="359.703" y="128.597"/><use xlink:href="#l" x="363.364" y="128.597"/><use xlink:href="#m" x="370.679" y="128.597"/><use xlink:href="#n" x="374.341" y="128.597"/><use xlink:href="#i" x="378.002" y="128.597"/><use xlink:href="#j" x="381.663" y="128.597"/><use xlink:href="#o" x="385.325" y="128.597"/><use xlink:href="#u" x="392.647" y="128.597"/><use xlink:href="#q" x="396.308" y="128.597"/><path fill="none" stroke="#000" stroke-miterlimit="10" stroke-width=".399" d="m198.29 189.996 2.815-2.82m-2.816 0 2.816 2.82"/><use xlink:href="#f" x="181.391" y="184.509"/><use xlink:href="#g" x="185.052" y="184.509"/><use xlink:href="#h" x="188.714" y="184.509"/><use xlink:href="#y" x="192.375" y="184.509"/><use xlink:href="#k" x="196.036" y="184.509"/><use xlink:href="#j" x="199.697" y="184.509"/><use xlink:href="#o" x="203.359" y="184.509"/><use xlink:href="#k" x="207.02" y="184.509"/><use xlink:href="#l" x="210.681" y="184.509"/><use xlink:href="#q" x="214.342" y="184.509"/><path fill="none" stroke="#000" stroke-miterlimit="10" stroke-width=".399" d="m187.234 218.285 2.817-2.816m-2.817 0 2.817 2.816"/><use xlink:href="#f" x="155.834" y="219.012"/><use xlink:href="#g" x="159.495" y="219.012"/><use xlink:href="#h" x="163.157" y="219.012"/><use xlink:href="#o" x="166.818" y="219.012"/><use xlink:href="#k" x="170.479" y="219.012"/><use xlink:href="#z" x="174.14" y="219.012"/><use xlink:href="#o" x="177.802" y="219.012"/><use xlink:href="#q" x="181.463" y="219.012"/><path fill="none" stroke="#000" stroke-miterlimit="10" stroke-width=".399" d="m198.29 216.074 2.815-2.816m-2.816 0 2.816 2.816"/><use xlink:href="#f" x="203.217" y="216.8"/><use xlink:href="#g" x="206.878" y="216.8"/><use xlink:href="#h" x="210.54" y="216.8"/><use xlink:href="#A" x="214.201" y="216.8"/><use xlink:href="#i" x="217.862" y="216.8"/><use xlink:href="#B" x="221.523" y="216.8"/><use xlink:href="#q" x="225.185" y="216.8"/><path fill="none" stroke="#000" stroke-miterlimit="10" stroke-width=".399" d="m198.29 218.285 2.815-2.816m-2.816 0 2.816 2.816"/><use xlink:href="#f" x="185.052" y="225.224"/><use xlink:href="#g" x="188.713" y="225.224"/><use xlink:href="#h" x="192.375" y="225.224"/><use xlink:href="#C" x="196.036" y="225.224"/><use xlink:href="#D" x="199.697" y="225.224"/><use xlink:href="#g" x="203.358" y="225.224"/><use xlink:href="#k" x="207.02" y="225.224"/><use xlink:href="#q" x="210.681" y="225.224"/><path fill="none" stroke="#000" stroke-miterlimit="10" stroke-width=".399" d="m232.742 61.406 2.82-2.82m-2.82 0 2.82 2.82"/><use xlink:href="#f" x="223.168" y="55.921"/><use xlink:href="#g" x="226.829" y="55.921"/><use xlink:href="#h" x="230.491" y="55.921"/><use xlink:href="#E" x="234.152" y="55.921"/><use xlink:href="#u" x="237.813" y="55.921"/><use xlink:href="#q" x="241.474" y="55.921"/><path fill="none" stroke="#000" stroke-miterlimit="10" stroke-width=".399" d="m70.61 189.992 2.816-2.816m-2.817 0 2.817 2.816"/><use xlink:href="#f" x="57.375" y="184.506"/><use xlink:href="#g" x="61.036" y="184.506"/><use xlink:href="#h" x="64.698" y="184.506"/><use xlink:href="#F" x="68.359" y="184.506"/><use xlink:href="#k" x="72.02" y="184.506"/><use xlink:href="#g" x="75.681" y="184.506"/><use xlink:href="#o" x="79.343" y="184.506"/><use xlink:href="#q" x="83.004" y="184.506"/><path fill="none" stroke="#000" stroke-miterlimit="10" stroke-width=".399" d="m325.969 189.992 2.816-2.816m-2.816 0 2.816 2.816"/><use xlink:href="#f" x="312.732" y="184.506"/><use xlink:href="#g" x="316.393" y="184.506"/><use xlink:href="#h" x="320.055" y="184.506"/><use xlink:href="#k" x="323.716" y="184.506"/><use xlink:href="#D" x="327.377" y="184.506"/><use xlink:href="#g" x="331.038" y="184.506"/><use xlink:href="#o" x="334.7" y="184.506"/><use xlink:href="#q" x="338.361" y="184.506"/><path fill="none" stroke="#000" stroke-miterlimit="10" stroke-width=".399" d="m198.29 12.121 2.815-2.816m-2.816 0 2.816 2.816"/><use xlink:href="#f" x="183.222" y="19.061"/><use xlink:href="#g" x="186.883" y="19.061"/><use xlink:href="#h" x="190.545" y="19.061"/><use xlink:href="#j" x="194.206" y="19.061"/><use xlink:href="#n" x="197.867" y="19.061"/><use xlink:href="#l" x="201.528" y="19.061"/><use xlink:href="#o" x="205.19" y="19.061"/><use xlink:href="#G" x="208.851" y="19.061"/><use xlink:href="#q" x="212.512" y="19.061"/><path fill="none" stroke="#000" stroke-miterlimit="10" stroke-width=".399" d="m198.29 297.793 2.815-2.82m-2.816 0 2.816 2.82"/><use xlink:href="#f" x="183.222" y="292.304"/><use xlink:href="#g" x="186.883" y="292.304"/><use xlink:href="#h" x="190.545" y="292.304"/><use xlink:href="#g" x="194.206" y="292.304"/><use xlink:href="#n" x="197.867" y="292.304"/><use xlink:href="#v" x="201.528" y="292.304"/><use xlink:href="#o" x="205.19" y="292.304"/><use xlink:href="#G" x="208.851" y="292.304"/><use xlink:href="#q" x="212.512" y="292.304"/><path fill="none" stroke="#000" stroke-miterlimit="10" stroke-width=".399" d="m279.934 108.348 2.82-2.82m-2.82 0 2.82 2.82"/><use xlink:href="#f" x="255.714" y="115.285"/><use xlink:href="#g" x="259.375" y="115.285"/><use xlink:href="#h" x="263.037" y="115.285"/><use xlink:href="#j" x="266.698" y="115.285"/><use xlink:href="#n" x="270.359" y="115.285"/><use xlink:href="#l" x="274.02" y="115.285"/><use xlink:href="#o" x="277.682" y="115.285"/><use xlink:href="#G" x="281.343" y="115.285"/><use xlink:href="#k" x="288.665" y="115.285"/><use xlink:href="#D" x="292.327" y="115.285"/><use xlink:href="#g" x="295.988" y="115.285"/><use xlink:href="#o" x="299.649" y="115.285"/><use xlink:href="#q" x="303.311" y="115.285"/><path fill="none" stroke="#000" stroke-miterlimit="10" stroke-width=".399" d="m302.098 293.805 2.816-2.817m-2.816 0 2.816 2.817"/><use xlink:href="#f" x="277.877" y="288.317"/><use xlink:href="#g" x="281.538" y="288.317"/><use xlink:href="#h" x="285.2" y="288.317"/><use xlink:href="#g" x="288.861" y="288.317"/><use xlink:href="#n" x="292.522" y="288.317"/><use xlink:href="#v" x="296.183" y="288.317"/><use xlink:href="#o" x="299.845" y="288.317"/><use xlink:href="#G" x="303.506" y="288.317"/><use xlink:href="#k" x="310.821" y="288.317"/><use xlink:href="#D" x="314.483" y="288.317"/><use xlink:href="#g" x="318.144" y="288.317"/><use xlink:href="#o" x="321.805" y="288.317"/><use xlink:href="#q" x="325.467" y="288.317"/><path fill="none" stroke="#000" stroke-miterlimit="10" stroke-width=".399" d="m116.645 108.348 2.816-2.82m-2.816 0 2.816 2.82"/><use xlink:href="#f" x="92.425" y="115.285"/><use xlink:href="#g" x="96.086" y="115.285"/><use xlink:href="#h" x="99.748" y="115.285"/><use xlink:href="#j" x="103.409" y="115.285"/><use xlink:href="#n" x="107.07" y="115.285"/><use xlink:href="#l" x="110.731" y="115.285"/><use xlink:href="#o" x="114.393" y="115.285"/><use xlink:href="#G" x="118.054" y="115.285"/><use xlink:href="#F" x="125.376" y="115.285"/><use xlink:href="#k" x="129.038" y="115.285"/><use xlink:href="#g" x="132.699" y="115.285"/><use xlink:href="#o" x="136.36" y="115.285"/><use xlink:href="#q" x="140.022" y="115.285"/><path fill="none" stroke="#000" stroke-miterlimit="10" stroke-width=".399" d="m94.48 293.805 2.817-2.82m-2.817 0 2.817 2.82"/><use xlink:href="#f" x="70.261" y="288.316"/><use xlink:href="#g" x="73.922" y="288.316"/><use xlink:href="#h" x="77.584" y="288.316"/><use xlink:href="#g" x="81.245" y="288.316"/><use xlink:href="#n" x="84.906" y="288.316"/><use xlink:href="#v" x="88.567" y="288.316"/><use xlink:href="#o" x="92.229" y="288.316"/><use xlink:href="#G" x="95.89" y="288.316"/><use xlink:href="#F" x="103.212" y="288.316"/><use xlink:href="#k" x="106.874" y="288.316"/><use xlink:href="#g" x="110.535" y="288.316"/><use xlink:href="#o" x="114.196" y="288.316"/><use xlink:href="#q" x="117.858" y="288.316"/></svg>