<svg xmlns="http://www.w3.org/2000/svg" xmlns:xlink="http://www.w3.org/1999/xlink" width="357.554" height="204.068"><defs><path id="b" d="M8.578-6.375v-.469c-.39.032-.953.032-1.344.032-.421 0-.937 0-1.343-.032v.469h.25c.172 0 .343.016.53.031.282.032.298.047.298.266v4.031L3-6.703c-.11-.125-.125-.14-.328-.14H.39v.468h1.078V-.75c0 .219-.016.219-.297.25-.234.031-.25.031-.531.031H.39V0c.375-.031.937-.031 1.328-.031.422 0 .937 0 1.36.031v-.469h-.25c-.188 0-.36-.015-.532-.031C2-.531 2-.531 2-.75v-5.219L6.953-.125c.11.11.11.125.281.125C7.5 0 7.5-.094 7.5-.312v-5.766c0-.219 0-.234.281-.266.25-.031.266-.031.547-.031Zm0 0"/><path id="c" d="M5.516-.234c0-.235-.125-.235-.266-.235-.61-.015-.61-.14-.61-.375v-2.14c0-.891-.702-1.532-2.187-1.532-.562 0-1.781.047-1.781.922 0 .438.344.625.61.625.312 0 .624-.219.624-.625 0-.297-.187-.469-.218-.5a5 5 0 0 1 .718-.062c.75 0 1.11.422 1.11 1.172v.343c-.72.032-3.25.125-3.25 1.563C.266-.125 1.5.062 2.188.062c.796 0 1.265-.406 1.484-.828 0 .313 0 .766 1.047.766h.468c.204 0 .329 0 .329-.234m-2-1.157c0 .97-.922 1.094-1.172 1.094-.516 0-.906-.344-.906-.797 0-1.062 1.578-1.203 2.078-1.234Zm0 0"/><path id="d" d="M6.125 0v-.469h-.687v-2.578c0-1.047-.532-1.437-1.532-1.437-.953 0-1.484.562-1.75 1.078v-1.078l-1.703.078v.468c.61 0 .688 0 .688.391v3.078H.453V0l1.25-.031L2.953 0v-.469h-.687v-2.078c0-1.094.859-1.578 1.5-1.578.328 0 .547.203.547.969V-.47h-.688V0l1.25-.031Zm0 0"/><path id="e" d="M5.984 0v-.469c-.609 0-.687 0-.687-.39v-6.063l-1.766.078v.469c.625 0 .703 0 .703.39v1.954a2.18 2.18 0 0 0-1.359-.453c-1.453 0-2.5.875-2.5 2.28 0 1.313.922 2.267 2.39 2.267.61 0 1.094-.235 1.407-.485v.485ZM4.172-1.031c-.14.187-.547.734-1.297.734-1.219 0-1.219-1.203-1.219-1.906 0-.485 0-1.016.25-1.406.297-.422.766-.516 1.078-.516.563 0 .97.313 1.188.61Zm0 0"/><path id="f" d="M8.422-2.281v-.469c-.344.031-1.219.031-1.61.031-.578 0-1.5 0-2.03-.031v.469h1.421v1c0 .187 0 .484-.375.718-.266.141-.578.204-.906.204-.86 0-1.719-.282-2.203-.907-.422-.546-.563-1.25-.563-2.156 0-1.125.203-1.703.578-2.187.391-.5 1.157-.875 2.125-.875 1.063 0 2.016.765 2.235 2.03.031.188.031.204.265.204.25 0 .266-.016.266-.281v-2.14c0-.188 0-.282-.172-.282-.094 0-.11.031-.203.094l-.656.593a3.03 3.03 0 0 0-1.953-.687c-2.453 0-4 1.469-4 3.531C.64-1.437 2.078.11 4.656.11c.328 0 1.36-.015 1.86-.64.297.265.906.531.968.531.141 0 .141-.125.141-.281v-2Zm0 0"/><path id="g" d="M3.813-1.234v-.532h-.47v.516c0 .672-.327.906-.609.906-.578 0-.578-.64-.578-.86v-2.75h1.469v-.468H2.156v-1.906h-.469c0 1-.484 1.984-1.484 2.016v.359h.828v2.734c0 1.063.86 1.282 1.578 1.282.75 0 1.204-.579 1.204-1.297m0 0"/><path id="h" d="M4.922-1.172c0-.172-.188-.172-.234-.172-.172 0-.188.047-.25.203-.204.485-.782.797-1.422.797-1.407 0-1.422-1.328-1.422-1.828h3.015c.22 0 .313 0 .313-.265 0-.313-.063-1.047-.563-1.547-.359-.36-.89-.532-1.578-.532C1.187-4.516.313-3.484.313-2.25c0 1.344 1 2.313 2.609 2.313 1.578 0 2-1.063 2-1.235M3.984-2.5h-2.39c.015-.39.031-.812.234-1.14.266-.391.672-.516.953-.516 1.172 0 1.188 1.312 1.203 1.656m0 0"/><path id="i" d="M3.078.313c0-.125-.047-.157-.187-.25C2.063-.5 1.75-1.391 1.75-2.125c0-.672.25-1.594 1.156-2.203.125-.094.172-.125.172-.25a.254.254 0 0 0-.265-.25c-.204 0-1.641.906-1.641 2.703 0 .813.312 1.438.562 1.781.375.516.907.907 1.079.907.218 0 .265-.172.265-.25m0 0"/><path id="j" d="M3.219-.906c0-.735-.906-.906-1.14-.938l-.704-.125C1.188-2 1-2.079 1-2.25c0-.156.219-.328.813-.328.515 0 .609.172.625.328.015.14.03.281.28.281.298 0 .298-.156.298-.328v-.469c0-.14-.016-.328-.25-.328-.157 0-.22.063-.25.125-.282-.125-.563-.125-.688-.125-1.187 0-1.344.594-1.344.844 0 .656.735.797 1.391.89.297.063.828.141.828.454 0 .234-.25.422-.828.422-.297 0-.656-.063-.812-.563C1.03-1.203.984-1.28.78-1.28c-.297 0-.297.172-.297.328v.656c0 .14 0 .344.25.344.079 0 .188 0 .282-.234.328.218.672.234.859.234 1.125 0 1.344-.61 1.344-.953m0 0"/><path id="k" d="M2.313-.469a.477.477 0 0 0-.485-.484.47.47 0 0 0-.469.469c0 .28.22.484.47.484a.473.473 0 0 0 .484-.469m0 0"/><path id="l" d="M3.266-.797c0-.234-.235-.234-.297-.234-.125 0-.203 0-.266.172-.047.078-.187.375-.625.375a1.027 1.027 0 0 1-1.015-1.032c0-.312.187-1.062 1.062-1.062l.344.015c.015.282.172.376.36.376.187 0 .358-.126.358-.36 0-.531-.734-.547-1.062-.547-1.219 0-1.64.953-1.64 1.578 0 .844.671 1.563 1.546 1.563 1 0 1.235-.719 1.235-.844m0 0"/><path id="m" d="M3.25-.797c0-.234-.234-.234-.281-.234-.156 0-.219.015-.281.172-.141.328-.485.375-.657.375-.469 0-.937-.297-1.062-.813h1.953c.172 0 .328 0 .328-.312 0-.797-.453-1.485-1.375-1.485-.828 0-1.516.703-1.516 1.563S1.08.047 1.984.047c.938 0 1.266-.656 1.266-.844m-.594-1.015H.97c.125-.438.484-.766.906-.766.328 0 .703.156.781.765m0 0"/><path id="n" d="M3.578-.266c0-.25-.203-.25-.328-.25H3v-1.53c0-.72-.36-1.032-.937-1.032-.391 0-.672.172-.844.297 0-.172-.047-.25-.313-.25h-.5c-.14 0-.328 0-.328.25 0 .265.203.265.313.265h.25v2H.406c-.14 0-.328 0-.328.25C.078 0 .281 0 .391 0h1.093c.11 0 .329 0 .329-.266 0-.25-.204-.25-.344-.25h-.25v-1.156c0-.64.484-.875.797-.875.328 0 .406.172.406.547v1.484h-.203c-.14 0-.344 0-.344.25 0 .266.219.266.344.266H3.25c.11 0 .328 0 .328-.266m0 0"/><path id="o" d="M3.14-.906c0-.156 0-.313-.296-.313-.266 0-.266.157-.266.297-.015.375-.36.438-.515.438-.454 0-.454-.313-.454-.47v-1.562h1.047c.125 0 .328 0 .328-.265 0-.25-.187-.25-.328-.25H1.61v-.516c0-.14-.015-.328-.296-.328-.282 0-.282.172-.282.328v.516H.484c-.125 0-.328 0-.328.25 0 .265.203.265.328.265h.547v1.61c0 .687.485.953 1.016.953S3.14-.266 3.14-.906m0 0"/><path id="p" d="M3.406-2.594c0-.156-.078-.484-.703-.484-.328 0-.734.11-1.094.469v-.094c0-.25-.046-.328-.328-.328h-.75c-.125 0-.328 0-.328.25 0 .265.203.265.328.265h.5v2h-.5c-.125 0-.328 0-.328.25C.203 0 .406 0 .531 0h1.781c.126 0 .329 0 .329-.266 0-.25-.203-.25-.328-.25h-.704v-.796c0-.61.36-1.22 1.11-1.235 0 .156.172.281.344.281.187 0 .343-.125.343-.328m0 0"/><path id="q" d="M2.484-2.125c0-.828-.312-1.453-.562-1.797-.375-.515-.906-.906-1.078-.906-.203 0-.266.187-.266.25 0 .125.094.187.14.219 1.095.718 1.188 1.797 1.188 2.234 0 .656-.25 1.578-1.14 2.188C.64.14.578.188.578.313c0 .078.063.25.266.25s1.64-.907 1.64-2.688m0 0"/><path id="r" d="M3.469-.266c0-.25-.203-.25-.328-.25h-.25l-.828-1.046.734-.954h.234c.125 0 .344 0 .344-.265 0-.25-.219-.25-.344-.25H2.25c-.125 0-.328 0-.328.25 0 .203.11.265.281.265l-.39.547-.422-.547c.156 0 .28-.062.28-.265 0-.25-.202-.25-.327-.25H.547c-.125 0-.328 0-.328.25 0 .265.219.265.328.265h.25l.75.954L.75-.516H.516c-.125 0-.344 0-.344.25C.172 0 .39 0 .516 0h.78c.126 0 .329 0 .329-.266 0-.203-.11-.25-.297-.25l.484-.703.5.703c-.187 0-.296.047-.296.25 0 .266.203.266.328.266h.797c.109 0 .328 0 .328-.266m0 0"/><path id="s" d="M3.36-1.234c0-.47-.297-.875-.72-1.094.344-.25.516-.64.516-1 0-.516-.515-1-1.328-1-.86 0-1.344.36-1.344.844 0 .265.204.375.36.375.172 0 .36-.141.36-.36 0-.078-.032-.14-.048-.172.203-.171.625-.171.688-.171.422 0 .734.218.734.5a.72.72 0 0 1-.25.546c-.219.172-.375.188-.61.188-.437 0-.546.062-.546.281 0 .266.203.266.328.266h.313c.64 0 .968.422.968.797 0 .39-.36.78-.937.78-.25 0-.719-.062-.907-.327A.36.36 0 0 0 1-1a.363.363 0 0 0-.36-.36c-.171 0-.343.126-.343.391C.297-.344.969.078 1.844.078c.922 0 1.515-.656 1.515-1.312m0 0"/><path id="t" d="M3.313-2.125c0-1.297-.72-2.203-1.485-2.203-.781 0-1.5.922-1.5 2.203 0 1.297.734 2.203 1.5 2.203.781 0 1.485-.922 1.485-2.203m-.563-.078c0 .969-.422 1.75-.922 1.75-.516 0-.922-.781-.922-1.75 0-.953.438-1.61.922-1.61.469 0 .922.657.922 1.61m0 0"/><path id="u" d="M3.64-.266c0-.218-.14-.25-.39-.25v-1.593c0-.157-.016-.97-.656-.97a.84.84 0 0 0-.656.313.61.61 0 0 0-.532-.312.88.88 0 0 0-.547.203c-.046-.156-.187-.156-.312-.156H.328c-.125 0-.328 0-.328.25 0 .234.125.265.39.265v2c-.265 0-.39.032-.39.25C0 0 .219 0 .328 0h.594c.125 0 .312 0 .312-.266 0-.218-.109-.25-.359-.25v-1.171c0-.563.234-.86.5-.86.14 0 .203.11.203.5v1.531c-.156 0-.281.032-.281.25 0 .266.187.266.312.266h.516c.125 0 .313 0 .313-.266 0-.218-.126-.25-.376-.25v-1.171c0-.563.25-.86.5-.86.141 0 .204.11.204.5v1.531c-.141 0-.282.032-.282.25 0 .266.204.266.313.266h.5c.125 0 .344 0 .344-.266m0 0"/><path id="v" d="M3.188-.266c0-.25-.204-.25-.329-.25h-.656v-2.187c0-.25-.047-.328-.328-.328H.906c-.125 0-.328 0-.328.25 0 .265.203.265.328.265h.719v2H.859c-.14 0-.343 0-.343.25C.516 0 .734 0 .859 0h2c.125 0 .329 0 .329-.266m-.954-3.562a.39.39 0 0 0-.406-.39.387.387 0 0 0-.39.39c0 .219.171.39.39.39a.39.39 0 0 0 .406-.39m0 0"/><path id="w" d="M3.578-.266c0-.25-.203-.25-.328-.25H3v-3.406c0-.25-.047-.344-.328-.344h-.485c-.14 0-.343.016-.343.266s.218.266.328.266h.25v.906a1.26 1.26 0 0 0-.735-.25c-.765 0-1.453.672-1.453 1.562C.234-.64.875.047 1.625.047c.344 0 .61-.14.797-.313.015.188.062.266.328.266h.5c.125 0 .328 0 .328-.266M2.422-1.375c0 .36-.297.89-.781.89-.453 0-.828-.452-.828-1.03 0-.61.437-1.032.89-1.032.406 0 .719.344.719.688Zm0 0"/><path id="x" d="M3.625-.266c0-.25-.203-.25-.328-.25-.203 0-.297-.03-.344-.046V-2c0-.5-.375-1.094-1.406-1.094-.313 0-1.031.016-1.031.547 0 .235.172.36.359.36.11 0 .344-.063.344-.36 0 0 .234-.031.343-.031.454 0 .782.187.813.594-1.219.03-2.047.39-2.047 1.062 0 .485.453.969 1.188.969.234 0 .656-.047.968-.25.172.187.485.203.75.203.235 0 .391-.016.391-.266M2.359-.969c0 .14 0 .266-.234.375-.234.11-.516.11-.578.11-.39 0-.64-.203-.64-.438 0-.312.546-.515 1.452-.562Zm0 0"/><path id="y" d="M3.547-2.781c0-.25-.188-.25-.328-.25h-.781c-.157 0-.344 0-.344.25 0 .265.172.265.344.265h.265l-.297 1.72-.14-.532c-.125-.469-.172-.547-.422-.547-.094 0-.235 0-.328.188l-.266.906-.297-1.735h.266c.156 0 .343 0 .343-.265 0-.25-.187-.25-.343-.25H.437c-.14 0-.343 0-.343.25 0 .234.14.265.36.265L.858-.28c.032.187.047.312.36.312.312 0 .343-.062.453-.515l.172-.641.265 1c.094.14.235.156.344.156.281 0 .313-.125.344-.312l.406-2.235c.219 0 .344-.03.344-.265m0 0"/><path id="z" d="M3.422-1.516c0-.875-.64-1.562-1.39-1.562-.298 0-.579.11-.813.265v-1.109c0-.25-.047-.344-.313-.344h-.5c-.14 0-.343.016-.343.266s.218.266.328.266h.25v3.406C.64-.172.656 0 .938 0c.218 0 .28-.094.28-.234.266.218.532.28.735.28.766 0 1.469-.671 1.469-1.562m-.578 0c0 .61-.453 1.032-.906 1.032-.485 0-.704-.563-.704-.875v-.485c0-.375.375-.703.766-.703.469 0 .844.469.844 1.031m0 0"/><path id="A" d="M3.281-1.516c0-.89-.672-1.578-1.453-1.578-.797 0-1.453.688-1.453 1.578S1.047.047 1.828.047c.766 0 1.453-.688 1.453-1.563m-.578-.046c0 .593-.406 1.078-.875 1.078S.953-.97.953-1.562s.422-1.016.875-1.016.875.422.875 1.015m0 0"/><path id="B" d="M3.578-.266c0-.25-.203-.25-.328-.25H3v-1.53c0-.72-.36-1.032-.937-1.032-.391 0-.672.172-.844.297v-1.14c0-.25-.047-.345-.313-.345h-.5c-.14 0-.328.016-.328.266s.203.266.313.266h.25v3.218H.406c-.14 0-.328 0-.328.25C.078 0 .281 0 .391 0h1.093c.11 0 .329 0 .329-.266 0-.25-.204-.25-.344-.25h-.25v-1.156c0-.64.484-.875.797-.875.328 0 .406.172.406.547v1.484h-.203c-.14 0-.344 0-.344.25 0 .266.219.266.344.266H3.25c.11 0 .328 0 .328-.266m0 0"/><path id="C" d="M3.578-.266c0-.25-.219-.25-.328-.25H3v-2.187c0-.25-.047-.328-.328-.328h-.485c-.14 0-.343 0-.343.25 0 .265.218.265.328.265h.25v1.391c0 .563-.516.64-.719.64-.469 0-.484-.187-.484-.39v-1.828c0-.25-.047-.328-.313-.328h-.5c-.14 0-.328 0-.328.25 0 .265.203.265.313.265h.25v1.688c0 .687.5.875 1.03.875.266 0 .517-.063.767-.219C2.484 0 2.625 0 2.75 0h.5c.125 0 .328 0 .328-.266m0 0"/><path id="D" d="M3.422-1.516c0-.875-.64-1.562-1.39-1.562-.298 0-.579.11-.813.281 0-.172-.063-.234-.313-.234h-.5c-.14 0-.343 0-.343.25 0 .265.218.265.328.265h.25v3.5H.406c-.14 0-.343 0-.343.266 0 .25.218.25.328.25h1.093c.11 0 .329 0 .329-.25 0-.266-.204-.266-.344-.266h-.25V-.234c.265.234.531.28.734.28.766 0 1.469-.671 1.469-1.562m-.578 0c0 .61-.453 1.032-.906 1.032-.485 0-.704-.563-.704-.875v-.485c0-.375.375-.703.766-.703.469 0 .844.469.844 1.031m0 0"/><path id="E" d="M3.094-.266c0-.25-.188-.25-.313-.25H2.22V-4c0-.125-.016-.328-.266-.328-.156 0-.219.094-.25.187-.234.547-.578.625-.687.641-.141 0-.313.031-.313.266 0 .203.156.25.281.25s.375-.032.657-.235v2.703h-.563c-.14 0-.328 0-.328.25C.75 0 .953 0 1.078 0h1.703c.125 0 .313 0 .313-.266m0 0"/><path id="F" d="M3.297-.328v-.188c0-.156 0-.328-.266-.328-.265 0-.297.125-.297.328H1.313c.406-.343.968-.796 1.234-1.03.437-.391.75-.845.75-1.407 0-.844-.703-1.375-1.563-1.375-.828 0-1.39.578-1.39 1.187 0 .297.234.375.36.375.171 0 .359-.14.359-.359a.35.35 0 0 0-.094-.234c.11-.266.39-.453.734-.453.531 0 1.031.296 1.031.859 0 .453-.328.844-.765 1.203L.469-.484C.39-.422.344-.391.344-.266.344 0 .547 0 .672 0h2.312c.266 0 .313-.062.313-.328m0 0"/><clipPath id="a"><path d="M0 0h357.332v203.602H0Zm0 0"/></clipPath></defs><path fill="#FFFBB3" d="M189.813 16.531c46.968 0 85.042 38.074 85.042 85.04 0 46.968-38.074 85.042-85.043 85.042H62.254V16.531ZM55.167 73.227c0-7.829-6.348-14.176-14.176-14.176S26.82 65.398 26.82 73.227s6.344 14.171 14.172 14.171 14.176-6.343 14.176-14.171m255.121 28.343c0-7.824-6.348-14.172-14.176-14.172s-14.172 6.348-14.172 14.172c0 7.828 6.344 14.176 14.172 14.176s14.176-6.348 14.176-14.176m0 0"/><g clip-path="url(#a)"><path fill="none" stroke="#B2B2B2" stroke-miterlimit="10" stroke-width="14.173" d="M189.813 16.531c46.968 0 85.042 38.074 85.042 85.04 0 46.968-38.074 85.042-85.043 85.042H62.254V16.531ZM55.167 73.227c0-7.829-6.348-14.176-14.176-14.176S26.82 65.398 26.82 73.227s6.344 14.171 14.172 14.171 14.176-6.343 14.176-14.171Zm255.121 28.343c0-7.824-6.348-14.172-14.176-14.172s-14.172 6.348-14.172 14.172c0 7.828 6.344 14.176 14.172 14.176s14.176-6.348 14.176-14.176Zm0 0"/></g><g fill="#B2B2B2"><use xlink:href="#b" x="133.288" y="129.864"/><use xlink:href="#c" x="142.254" y="129.864"/><use xlink:href="#d" x="147.823" y="129.864"/><use xlink:href="#e" x="154.19" y="129.864"/></g><g fill="#B2B2B2"><use xlink:href="#f" x="164.371" y="129.864"/><use xlink:href="#c" x="173.378" y="129.864"/><use xlink:href="#g" x="178.947" y="129.864"/><use xlink:href="#h" x="183.4" y="129.864"/></g><path fill="none" stroke="#B2B2B2" stroke-miterlimit="10" stroke-width=".996" d="M189.148 129.973V73.172"/><path fill="none" stroke="#000" stroke-miterlimit="10" stroke-width=".399" d="m160.059 102.98 2.816-2.816m-2.816 0 2.816 2.816"/><use xlink:href="#i" x="143.161" y="97.494"/><use xlink:href="#j" x="146.822" y="97.494"/><use xlink:href="#k" x="150.484" y="97.494"/><use xlink:href="#l" x="154.145" y="97.494"/><use xlink:href="#m" x="157.806" y="97.494"/><use xlink:href="#n" x="161.467" y="97.494"/><use xlink:href="#o" x="165.129" y="97.494"/><use xlink:href="#m" x="168.79" y="97.494"/><use xlink:href="#p" x="172.451" y="97.494"/><use xlink:href="#q" x="176.112" y="97.494"/><path fill="none" stroke="#000" stroke-miterlimit="10" stroke-width=".399" d="m131.879 131.273 2.816-2.82m-2.816 0 2.816 2.82"/><use xlink:href="#i" x="118.643" y="125.786"/><use xlink:href="#j" x="122.304" y="125.786"/><use xlink:href="#k" x="125.966" y="125.786"/><use xlink:href="#o" x="129.627" y="125.786"/><use xlink:href="#m" x="133.288" y="125.786"/><use xlink:href="#r" x="136.949" y="125.786"/><use xlink:href="#o" x="140.611" y="125.786"/><use xlink:href="#q" x="144.272" y="125.786"/><path fill="none" stroke="#000" stroke-miterlimit="10" stroke-width=".399" d="m260.152 45.195 2.817-2.816m-2.817 0 2.817 2.816"/><use xlink:href="#i" x="265.078" y="39.71"/><use xlink:href="#j" x="268.739" y="39.71"/><use xlink:href="#k" x="272.401" y="39.71"/><use xlink:href="#s" x="276.062" y="39.71"/><use xlink:href="#t" x="279.723" y="39.71"/><use xlink:href="#q" x="283.384" y="39.71"/><path fill="none" stroke="#000" stroke-miterlimit="10" stroke-width=".399" d="m160.059 129.063 2.816-2.82m-2.816 0 2.816 2.82"/><use xlink:href="#i" x="164.987" y="129.786"/><use xlink:href="#j" x="168.648" y="129.786"/><use xlink:href="#k" x="172.31" y="129.786"/><use xlink:href="#u" x="175.971" y="129.786"/><use xlink:href="#v" x="179.632" y="129.786"/><use xlink:href="#w" x="183.293" y="129.786"/><use xlink:href="#q" x="186.955" y="129.786"/><path fill="none" stroke="#000" stroke-miterlimit="10" stroke-width=".399" d="m280.531 129.063 2.817-2.82m-2.817 0 2.817 2.82"/><use xlink:href="#i" x="234.484" y="129.786"/><use xlink:href="#j" x="238.145" y="129.786"/><use xlink:href="#k" x="241.807" y="129.786"/><use xlink:href="#u" x="245.468" y="129.786"/><use xlink:href="#v" x="249.129" y="129.786"/><use xlink:href="#w" x="252.79" y="129.786"/><use xlink:href="#m" x="260.113" y="129.786"/><use xlink:href="#x" x="263.774" y="129.786"/><use xlink:href="#j" x="267.435" y="129.786"/><use xlink:href="#o" x="271.097" y="129.786"/><use xlink:href="#q" x="274.758" y="129.786"/><path fill="none" stroke="#000" stroke-miterlimit="10" stroke-width=".399" d="m53.758 129.063 2.82-2.82m-2.82 0 2.82 2.82"/><use xlink:href="#i" x="33.201" y="123.574"/><use xlink:href="#j" x="36.862" y="123.574"/><use xlink:href="#k" x="40.524" y="123.574"/><use xlink:href="#u" x="44.185" y="123.574"/><use xlink:href="#v" x="47.846" y="123.574"/><use xlink:href="#w" x="51.507" y="123.574"/><use xlink:href="#y" x="58.83" y="123.574"/><use xlink:href="#m" x="62.491" y="123.574"/><use xlink:href="#j" x="66.152" y="123.574"/><use xlink:href="#o" x="69.814" y="123.574"/><use xlink:href="#q" x="73.475" y="123.574"/><path fill="none" stroke="#000" stroke-miterlimit="10" stroke-width=".399" d="m160.059 131.273 2.816-2.82m-2.816 0 2.816 2.82"/><use xlink:href="#i" x="146.822" y="138.209"/><use xlink:href="#j" x="150.483" y="138.209"/><use xlink:href="#k" x="154.145" y="138.209"/><use xlink:href="#z" x="157.806" y="138.209"/><use xlink:href="#x" x="161.467" y="138.209"/><use xlink:href="#j" x="165.128" y="138.209"/><use xlink:href="#m" x="168.79" y="138.209"/><use xlink:href="#q" x="172.451" y="138.209"/><path fill="none" stroke="#000" stroke-miterlimit="10" stroke-width=".399" d="m280.531 131.273 2.817-2.82m-2.817 0 2.817 2.82"/><use xlink:href="#i" x="258.141" y="138.209"/><use xlink:href="#j" x="261.802" y="138.209"/><use xlink:href="#k" x="265.464" y="138.209"/><use xlink:href="#z" x="269.125" y="138.209"/><use xlink:href="#x" x="272.786" y="138.209"/><use xlink:href="#j" x="276.447" y="138.209"/><use xlink:href="#m" x="280.109" y="138.209"/><use xlink:href="#m" x="287.431" y="138.209"/><use xlink:href="#x" x="291.092" y="138.209"/><use xlink:href="#j" x="294.754" y="138.209"/><use xlink:href="#o" x="298.415" y="138.209"/><use xlink:href="#q" x="302.076" y="138.209"/><path fill="none" stroke="#000" stroke-miterlimit="10" stroke-width=".399" d="m53.758 131.273 2.82-2.82m-2.82 0 2.82 2.82"/><use xlink:href="#i" x="4.053" y="131.998"/><use xlink:href="#j" x="7.714" y="131.998"/><use xlink:href="#k" x="11.376" y="131.998"/><use xlink:href="#z" x="15.037" y="131.998"/><use xlink:href="#x" x="18.698" y="131.998"/><use xlink:href="#j" x="22.359" y="131.998"/><use xlink:href="#m" x="26.021" y="131.998"/><use xlink:href="#y" x="33.336" y="131.998"/><use xlink:href="#m" x="36.997" y="131.998"/><use xlink:href="#j" x="40.659" y="131.998"/><use xlink:href="#o" x="44.32" y="131.998"/><use xlink:href="#q" x="47.981" y="131.998"/><path fill="none" stroke="#000" stroke-miterlimit="10" stroke-width=".399" d="m160.059 10.855 2.816-2.82m-2.816 0 2.816 2.82"/><use xlink:href="#i" x="144.991" y="5.368"/><use xlink:href="#j" x="148.652" y="5.368"/><use xlink:href="#k" x="152.314" y="5.368"/><use xlink:href="#n" x="155.975" y="5.368"/><use xlink:href="#A" x="159.636" y="5.368"/><use xlink:href="#p" x="163.297" y="5.368"/><use xlink:href="#o" x="166.959" y="5.368"/><use xlink:href="#B" x="170.62" y="5.368"/><use xlink:href="#q" x="174.281" y="5.368"/><path fill="none" stroke="#000" stroke-miterlimit="10" stroke-width=".399" d="m160.059 195.11 2.816-2.82m-2.816 0 2.816 2.82"/><use xlink:href="#i" x="144.991" y="202.044"/><use xlink:href="#j" x="148.652" y="202.044"/><use xlink:href="#k" x="152.314" y="202.044"/><use xlink:href="#j" x="155.975" y="202.044"/><use xlink:href="#A" x="159.636" y="202.044"/><use xlink:href="#C" x="163.297" y="202.044"/><use xlink:href="#o" x="166.959" y="202.044"/><use xlink:href="#B" x="170.62" y="202.044"/><use xlink:href="#q" x="174.281" y="202.044"/><path fill="none" stroke="#000" stroke-miterlimit="10" stroke-width=".399" d="m280.531 102.98 2.817-2.816m-2.817 0 2.817 2.816"/><use xlink:href="#i" x="267.294" y="97.494"/><use xlink:href="#j" x="270.955" y="97.494"/><use xlink:href="#k" x="274.617" y="97.494"/><use xlink:href="#m" x="278.278" y="97.494"/><use xlink:href="#x" x="281.939" y="97.494"/><use xlink:href="#j" x="285.6" y="97.494"/><use xlink:href="#o" x="289.262" y="97.494"/><use xlink:href="#q" x="292.923" y="97.494"/><path fill="none" stroke="#000" stroke-miterlimit="10" stroke-width=".399" d="m53.758 102.98 2.82-2.816m-2.82 0 2.82 2.816"/><use xlink:href="#i" x="40.524" y="97.494"/><use xlink:href="#j" x="44.185" y="97.494"/><use xlink:href="#k" x="47.847" y="97.494"/><use xlink:href="#y" x="51.508" y="97.494"/><use xlink:href="#m" x="55.169" y="97.494"/><use xlink:href="#j" x="58.83" y="97.494"/><use xlink:href="#o" x="62.492" y="97.494"/><use xlink:href="#q" x="66.153" y="97.494"/><path fill="none" stroke="#000" stroke-miterlimit="10" stroke-width=".399" d="m253.547 37.836 2.82-2.816m-2.82 0 2.82 2.816"/><use xlink:href="#i" x="229.327" y="32.351"/><use xlink:href="#j" x="232.988" y="32.351"/><use xlink:href="#k" x="236.65" y="32.351"/><use xlink:href="#n" x="240.311" y="32.351"/><use xlink:href="#A" x="243.972" y="32.351"/><use xlink:href="#p" x="247.633" y="32.351"/><use xlink:href="#o" x="251.295" y="32.351"/><use xlink:href="#B" x="254.956" y="32.351"/><use xlink:href="#m" x="262.278" y="32.351"/><use xlink:href="#x" x="265.94" y="32.351"/><use xlink:href="#j" x="269.601" y="32.351"/><use xlink:href="#o" x="273.262" y="32.351"/><use xlink:href="#q" x="276.924" y="32.351"/><path fill="none" stroke="#000" stroke-miterlimit="10" stroke-width=".399" d="m253.547 168.125 2.82-2.816m-2.82 0 2.82 2.816"/><use xlink:href="#i" x="229.327" y="175.061"/><use xlink:href="#j" x="232.988" y="175.061"/><use xlink:href="#k" x="236.65" y="175.061"/><use xlink:href="#j" x="240.311" y="175.061"/><use xlink:href="#A" x="243.972" y="175.061"/><use xlink:href="#C" x="247.633" y="175.061"/><use xlink:href="#o" x="251.295" y="175.061"/><use xlink:href="#B" x="254.956" y="175.061"/><use xlink:href="#m" x="262.278" y="175.061"/><use xlink:href="#x" x="265.94" y="175.061"/><use xlink:href="#j" x="269.601" y="175.061"/><use xlink:href="#o" x="273.262" y="175.061"/><use xlink:href="#q" x="276.924" y="175.061"/><path fill="none" stroke="#000" stroke-miterlimit="10" stroke-width=".399" d="m53.758 195.11 2.82-2.82m-2.82 0 2.82 2.82"/><use xlink:href="#i" x="29.54" y="202.044"/><use xlink:href="#j" x="33.201" y="202.044"/><use xlink:href="#k" x="36.863" y="202.044"/><use xlink:href="#j" x="40.524" y="202.044"/><use xlink:href="#A" x="44.185" y="202.044"/><use xlink:href="#C" x="47.846" y="202.044"/><use xlink:href="#o" x="51.508" y="202.044"/><use xlink:href="#B" x="55.169" y="202.044"/><use xlink:href="#y" x="62.491" y="202.044"/><use xlink:href="#m" x="66.153" y="202.044"/><use xlink:href="#j" x="69.814" y="202.044"/><use xlink:href="#o" x="73.475" y="202.044"/><use xlink:href="#q" x="77.137" y="202.044"/><path fill="none" stroke="#000" stroke-miterlimit="10" stroke-width=".399" d="m53.758 10.855 2.82-2.82m-2.82 0 2.82 2.82"/><use xlink:href="#i" x="29.54" y="5.368"/><use xlink:href="#j" x="33.201" y="5.368"/><use xlink:href="#k" x="36.863" y="5.368"/><use xlink:href="#n" x="40.524" y="5.368"/><use xlink:href="#A" x="44.185" y="5.368"/><use xlink:href="#p" x="47.846" y="5.368"/><use xlink:href="#o" x="51.508" y="5.368"/><use xlink:href="#B" x="55.169" y="5.368"/><use xlink:href="#y" x="62.491" y="5.368"/><use xlink:href="#m" x="66.153" y="5.368"/><use xlink:href="#j" x="69.814" y="5.368"/><use xlink:href="#o" x="73.475" y="5.368"/><use xlink:href="#q" x="77.137" y="5.368"/><path fill="none" stroke="#000" stroke-miterlimit="10" stroke-width=".399" d="m315.965 102.98 2.816-2.816m-2.816 0 2.816 2.816"/><use xlink:href="#i" x="320.892" y="103.232"/><use xlink:href="#j" x="324.553" y="103.232"/><use xlink:href="#k" x="328.215" y="103.232"/><use xlink:href="#A" x="331.876" y="103.232"/><use xlink:href="#C" x="335.537" y="103.232"/><use xlink:href="#o" x="339.198" y="103.232"/><use xlink:href="#D" x="342.86" y="103.232"/><use xlink:href="#C" x="346.521" y="103.232"/><use xlink:href="#o" x="350.182" y="103.232"/><use xlink:href="#q" x="353.843" y="103.232"/><path fill="none" stroke="#000" stroke-miterlimit="10" stroke-width=".399" d="m18.324 74.633 2.817-2.817m-2.817 0 2.817 2.817"/><use xlink:href="#i" x="-.402" y="68.199"/><use xlink:href="#j" x="3.259" y="68.199"/><use xlink:href="#k" x="6.921" y="68.199"/><use xlink:href="#v" x="10.582" y="68.199"/><use xlink:href="#n" x="14.243" y="68.199"/><use xlink:href="#D" x="17.904" y="68.199"/><use xlink:href="#C" x="21.566" y="68.199"/><use xlink:href="#o" x="25.227" y="68.199"/><use xlink:href="#E" x="32.542" y="68.199"/><use xlink:href="#q" x="36.204" y="68.199"/><path fill="none" stroke="#000" stroke-miterlimit="10" stroke-width=".399" d="m53.758 131.328 2.816-2.816m-2.816 0 2.816 2.816"/><use xlink:href="#i" x="35.031" y="138.264"/><use xlink:href="#j" x="38.692" y="138.264"/><use xlink:href="#k" x="42.354" y="138.264"/><use xlink:href="#v" x="46.015" y="138.264"/><use xlink:href="#n" x="49.676" y="138.264"/><use xlink:href="#D" x="53.337" y="138.264"/><use xlink:href="#C" x="56.999" y="138.264"/><use xlink:href="#o" x="60.66" y="138.264"/><use xlink:href="#F" x="67.975" y="138.264"/><use xlink:href="#q" x="71.637" y="138.264"/></svg>