<svg xmlns="http://www.w3.org/2000/svg" width="32.071" height="9.488"><defs><clipPath id="a"><path d="M0 0h31.605v9.23H0Zm0 0"/></clipPath></defs><path fill="none" stroke="#000" stroke-miterlimit="10" stroke-width="1.594" d="M.543 4.484h23.215"/><path d="M29.637 4.484c.484-1.625-.434-2.937-2.059-2.937-1.621 0-3.332 1.312-3.82 2.937s.433 2.938 2.058 2.938c1.622 0 3.332-1.313 3.82-2.938m0 0"/><g clip-path="url(#a)"><path fill="none" stroke="#000" stroke-miterlimit="10" stroke-width="1.594" d="M6.676 0A2.938 2.938 0 1 1 .795-.002 2.938 2.938 0 0 1 6.676 0Zm0 0" transform="matrix(1 0 .3 -1 22.96 4.484)"/></g></svg>