<svg xmlns="http://www.w3.org/2000/svg" xmlns:xlink="http://www.w3.org/1999/xlink" width="143.948" height="99.92"><defs><path id="b" d="M7.797-5.719v-.437c-.438.015-.61.031-1.063.031l-1.187-.031v.437c.219 0 .422 0 .656.094l-.062.125-1.703 2.39-1.844-2.609h.75v-.437c-.328.031-1.266.031-1.64.031-.36 0-1.173 0-1.5-.031v.437h.859l2.312 3.266v2.015h-.969V0c.313-.031 1.219-.031 1.578-.031.375 0 1.282 0 1.61.031v-.437h-.969v-2.016l2.172-3.078c.094-.125.156-.125.344-.157.156-.015.328-.03.468-.03Zm0 0"/><path id="c" d="M4.563-1.047c0-.172-.172-.172-.235-.172-.156 0-.172.047-.234.172-.203.469-.75.719-1.313.719-1.281 0-1.297-1.156-1.297-1.594h2.782c.187 0 .297 0 .297-.25 0-.203-.016-1-.594-1.484-.406-.328-.953-.406-1.39-.406-1.532 0-2.282.968-2.282 2.046 0 1.172.89 2.063 2.406 2.063 1.485 0 1.86-.938 1.86-1.094M3.688-2.25H1.483c.016-.406.063-1.453 1.094-1.453 1.047 0 1.094 1.094 1.11 1.453m0 0"/><path id="d" d="M5.11-.219c0-.218-.157-.218-.235-.218-.578-.016-.578-.094-.578-.313v-1.922c0-.797-.64-1.39-2.031-1.39-.5 0-1.657.015-1.657.843 0 .406.313.594.579.594.312 0 .593-.219.593-.578 0-.266-.156-.422-.187-.453.093-.016.312-.047.64-.047.641 0 1.016.328 1.016 1.031v.281C1.766-2.39.25-2 .25-1 .25-.11 1.375.047 2.016.047c.687 0 1.156-.281 1.39-.703 0 .219 0 .656.969.656h.438c.171 0 .296 0 .296-.219M3.25-1.25c0 .938-1.047.938-1.078.938-.453 0-.828-.282-.828-.688 0-.297.156-1 1.906-1.078Zm0 0"/><path id="e" d="M4.078-3.281c0-.453-.469-.75-1-.75-.625 0-1 .453-1.203.968h-.016v-.968L.375-3.97v.438c.531 0 .61 0 .61.36v2.734h-.61V0l1.14-.031c.22 0 .75 0 1.22.031v-.437h-.766v-1.516c0-.656.25-1.703 1.11-1.719a.57.57 0 0 0-.142.39c0 .391.313.579.563.579.297 0 .578-.203.578-.578m0 0"/><clipPath id="a"><path d="M0 0h143.922v79H0Zm0 0"/></clipPath></defs><path fill="none" stroke="#000" stroke-miterlimit="10" stroke-width=".598" d="M71.941 46.48h14.176l14.172-22.457 28.348 11.23"/><path fill="none" stroke="#000" stroke-miterlimit="10" stroke-width=".598" d="m15.25 89.156 14.172-20.215L43.594 1.563 114.46 68.94"/><g clip-path="url(#a)"><path fill="none" stroke="#000" stroke-miterlimit="10" stroke-width=".598" d="m1.074 70.52 28.348-9.32L57.77 33.245l85.039-31.684"/></g><path fill="none" stroke="#000" stroke-miterlimit="10" stroke-width=".598" d="m1.074 89.156 28.348-9.32 14.172-9.316 70.867-18.637"/><use xlink:href="#b" x="61.181" y="98.826"/><use xlink:href="#c" x="68.3" y="98.826"/><use xlink:href="#d" x="73.169" y="98.826"/><use xlink:href="#e" x="78.325" y="98.826"/></svg>