<svg xmlns="http://www.w3.org/2000/svg" width="98.901" height="72.344"><path fill="#00F" d="M82.355 2.664A1.996 1.996 0 0 0 80.36.672a1.993 1.993 0 0 0 0 3.984c1.102 0 1.996-.89 1.996-1.992M97.836 2.664a1.993 1.993 0 1 0-3.986.002 1.993 1.993 0 0 0 3.986-.002M4.941 15.934A1.993 1.993 0 1 0 2.95 17.93a1.994 1.994 0 0 0 1.992-1.996M20.426 15.934a1.993 1.993 0 0 0-3.984 0c0 1.101.89 1.996 1.992 1.996a1.996 1.996 0 0 0 1.992-1.996M35.906 15.934a1.993 1.993 0 1 0-1.992 1.996 1.994 1.994 0 0 0 1.992-1.996M51.39 15.934a1.993 1.993 0 0 0-3.984 0c0 1.101.89 1.996 1.992 1.996a1.996 1.996 0 0 0 1.993-1.996M66.871 15.934a1.993 1.993 0 1 0-1.992 1.996 1.994 1.994 0 0 0 1.992-1.996M82.355 15.934a1.996 1.996 0 0 0-1.996-1.993 1.996 1.996 0 0 0-1.992 1.993c0 1.101.895 1.996 1.992 1.996a1.997 1.997 0 0 0 1.996-1.996M97.836 15.934a1.993 1.993 0 1 0-1.992 1.996 1.994 1.994 0 0 0 1.992-1.996M4.941 29.207a1.993 1.993 0 1 0-3.983.002 1.993 1.993 0 0 0 3.983-.002M20.426 29.207a1.993 1.993 0 1 0-3.986.002 1.993 1.993 0 0 0 3.986-.002M35.906 29.207a1.99 1.99 0 0 0-1.992-1.992 1.993 1.993 0 1 0 1.992 1.992M51.39 29.207a1.993 1.993 0 1 0-3.985.002 1.993 1.993 0 0 0 3.986-.002M66.871 29.207a1.99 1.99 0 0 0-1.992-1.992 1.993 1.993 0 1 0 1.992 1.992M82.355 29.207a1.994 1.994 0 0 0-3.988 0c0 1.098.895 1.992 1.992 1.992a1.996 1.996 0 0 0 1.996-1.992M97.836 29.207a1.99 1.99 0 0 0-1.992-1.992 1.993 1.993 0 1 0 1.992 1.992M4.941 42.477a1.993 1.993 0 1 0-3.983.002 1.993 1.993 0 0 0 3.983-.002M20.426 42.477a1.993 1.993 0 1 0-3.986.001 1.993 1.993 0 0 0 3.986-.001M35.906 42.477a1.99 1.99 0 0 0-1.992-1.993 1.99 1.99 0 0 0-1.992 1.993 1.99 1.99 0 0 0 1.992 1.992 1.99 1.99 0 0 0 1.992-1.992M51.39 42.477a1.993 1.993 0 1 0-3.985.001 1.993 1.993 0 0 0 3.986-.001M66.871 42.477a1.99 1.99 0 0 0-1.992-1.993 1.99 1.99 0 0 0-1.992 1.993 1.99 1.99 0 0 0 1.992 1.992 1.99 1.99 0 0 0 1.992-1.992M82.355 42.477a1.994 1.994 0 0 0-3.988 0 1.994 1.994 0 0 0 3.988 0M97.836 42.477a1.99 1.99 0 0 0-1.992-1.993 1.99 1.99 0 0 0-1.992 1.993 1.99 1.99 0 0 0 1.992 1.992 1.99 1.99 0 0 0 1.992-1.992M4.941 55.746a1.993 1.993 0 1 0-3.983.002 1.993 1.993 0 0 0 3.983-.002M20.426 55.746a1.993 1.993 0 1 0-3.986.002 1.993 1.993 0 0 0 3.986-.002M35.906 55.746a1.99 1.99 0 0 0-1.992-1.992 1.99 1.99 0 0 0-1.992 1.992 1.99 1.99 0 0 0 1.992 1.992 1.99 1.99 0 0 0 1.992-1.992M51.39 55.746a1.993 1.993 0 1 0-3.985.002 1.993 1.993 0 0 0 3.986-.002M66.871 55.746a1.99 1.99 0 0 0-1.992-1.992 1.99 1.99 0 0 0-1.992 1.992 1.99 1.99 0 0 0 1.992 1.992 1.99 1.99 0 0 0 1.992-1.992M82.355 55.746a1.994 1.994 0 0 0-3.988 0 1.994 1.994 0 0 0 3.988 0M97.836 55.746a1.99 1.99 0 0 0-1.992-1.992 1.99 1.99 0 0 0-1.992 1.992 1.99 1.99 0 0 0 1.992 1.992 1.99 1.99 0 0 0 1.992-1.992M4.941 69.016a1.993 1.993 0 1 0-3.986.001 1.993 1.993 0 0 0 3.986-.001m0 0"/></svg>