<svg xmlns="http://www.w3.org/2000/svg" xmlns:xlink="http://www.w3.org/1999/xlink" width="91.5" height="99.848"><defs><clipPath id="b"><path d="M27 0h64.25v64H27Zm0 0"/></clipPath><clipPath id="c"><path d="M42 80h25v19.773H42Zm0 0"/></clipPath><clipPath id="d"><path d="M14 80h25v19.773H14Zm0 0"/></clipPath><path id="a" d="M2.36-.781a.784.784 0 0 0-.782-.781.78.78 0 0 0-.766.78.774.774 0 1 0 1.547 0m0 0"/></defs><path fill="none" stroke="#000" stroke-miterlimit="10" stroke-width=".399" d="m33.418 26.242-.086-.008M73.93 55.29l-.04-.083M75.098 67.535v-.004M68.746 78.473l-9.504 9.148M47.926 92.184H33.46M22.227 87.531 12 77.305M7.348 66.07V51.605M33.262 25.492a6.382 6.382 0 1 0-12.764.006 6.382 6.382 0 0 0 12.764-.006Zm0 0"/><use xlink:href="#a" x="25.291" y="26.271"/><g clip-path="url(#b)"><path fill="none" stroke="#000" stroke-miterlimit="10" stroke-width=".399" d="M90.043 29.488c0-15.656-12.691-28.347-28.348-28.347S33.348 13.832 33.348 29.488s12.691 28.348 28.347 28.348 28.348-12.691 28.348-28.348Zm0 0"/></g><use xlink:href="#a" x="60.106" y="30.265"/><path fill="none" stroke="#000" stroke-miterlimit="10" stroke-width=".399" d="M83.09 61.152a6.38 6.38 0 0 0-6.38-6.379 6.38 6.38 0 1 0 0 12.758 6.38 6.38 0 0 0 6.38-6.379Zm0 0"/><use xlink:href="#a" x="75.12" y="61.93"/><path fill="none" stroke="#000" stroke-miterlimit="10" stroke-width=".399" d="M79.867 73.91a6.382 6.382 0 1 0-12.76-.002 6.382 6.382 0 0 0 12.76.002Zm0 0"/><use xlink:href="#a" x="71.897" y="74.686"/><g clip-path="url(#c)"><path fill="none" stroke="#000" stroke-miterlimit="10" stroke-width=".399" d="M60.883 92.184a6.382 6.382 0 0 0-12.762 0 6.382 6.382 0 0 0 12.762 0Zm0 0"/></g><use xlink:href="#a" x="52.914" y="92.96"/><g clip-path="url(#d)"><path fill="none" stroke="#000" stroke-miterlimit="10" stroke-width=".399" d="M33.262 92.184a6.382 6.382 0 0 0-12.762 0 6.382 6.382 0 0 0 12.762 0Zm0 0"/></g><use xlink:href="#a" x="25.291" y="92.96"/><path fill="none" stroke="#000" stroke-miterlimit="10" stroke-width=".399" d="M13.727 72.648a6.38 6.38 0 0 0-6.38-6.378 6.382 6.382 0 0 0 0 12.762 6.38 6.38 0 0 0 6.38-6.384Zm0 0"/><use xlink:href="#a" x="5.758" y="73.427"/><path fill="none" stroke="#000" stroke-miterlimit="10" stroke-width=".399" d="M13.727 45.027a6.38 6.38 0 0 0-6.38-6.379 6.38 6.38 0 0 0-6.378 6.38 6.38 6.38 0 0 0 6.379 6.378 6.38 6.38 0 0 0 6.379-6.379Zm0 0"/><use xlink:href="#a" x="5.758" y="45.804"/><path fill="none" stroke="red" stroke-miterlimit="10" stroke-width=".399" d="M27.18 25.492h27.75M27.078 27.785v-4.582M55.027 23.203v4.582M54.203 92.184H26.457M54.305 89.89v4.587M26.355 94.477V89.89"/></svg>