<svg xmlns="http://www.w3.org/2000/svg" xmlns:xlink="http://www.w3.org/1999/xlink" width="109.08" height="74.108"><defs><path id="b" d="M5.563-1.812c.14 0 .312 0 .312-.172 0-.188-.172-.188-.312-.188H1c-.125 0-.297 0-.297.188 0 .172.172.172.297.172Zm0 0"/><path id="c" d="M2.5-5.078c0-.219-.016-.219-.234-.219-.328.313-.75.5-1.5.5v.266c.218 0 .64 0 1.109-.203v4.078c0 .297-.031.39-.781.39H.812V0c.329-.031 1.016-.031 1.376-.031s1.046 0 1.374.031v-.266h-.28c-.75 0-.782-.093-.782-.39Zm0 0"/><path id="d" d="M2.25-1.625c.125-.125.453-.39.594-.5.484-.453.953-.89.953-1.61 0-.953-.797-1.562-1.781-1.562-.97 0-1.594.719-1.594 1.438 0 .39.312.437.422.437.172 0 .422-.11.422-.422 0-.406-.407-.406-.5-.406.234-.594.765-.781 1.156-.781.734 0 1.125.625 1.125 1.297 0 .828-.578 1.437-1.531 2.39l-1 1.047C.422-.219.422-.203.422 0h3.14l.235-1.422h-.25c-.016.156-.078.547-.172.703-.047.063-.656.063-.781.063H1.172Zm0 0"/><path id="e" d="M3.89-2.547c0-.844-.078-1.36-.343-1.875-.344-.703-1-.875-1.438-.875-1 0-1.375.75-1.484.969C.344-3.75.328-2.953.328-2.547c0 .531.016 1.328.406 1.969.36.594.954.75 1.375.75.391 0 1.063-.125 1.47-.906.296-.578.312-1.297.312-1.813M2.11-.062c-.266 0-.813-.125-.985-.954-.094-.453-.094-1.203-.094-1.625 0-.546 0-1.109.094-1.546.172-.813.781-.891.984-.891.266 0 .829.14.985.86.094.437.094 1.046.094 1.577 0 .47 0 1.188-.094 1.641-.172.828-.719.938-.985.938m0 0"/><clipPath id="a"><path d="M0 0h108.621v73.66H0Zm0 0"/></clipPath></defs><path fill="none" stroke="#7F7F7F" stroke-linecap="round" stroke-miterlimit="10" stroke-width=".399" d="M9.438 64.707v-1.394M12.273 64.707v-1.394M17.941 64.707v-1.394M20.777 64.707v-1.394M23.613 64.707v-1.394M26.445 64.707v-1.394M29.281 64.707v-1.394M32.117 64.707v-1.394M34.95 64.707v-1.394M37.785 64.707v-1.394M40.621 64.707v-1.394M46.29 64.707v-1.394M49.125 64.707v-1.394M51.957 64.707v-1.394M54.793 64.707v-1.394M57.629 64.707v-1.394M60.46 64.707v-1.394M63.297 64.707v-1.394M66.133 64.707v-1.394M68.965 64.707v-1.394M74.637 64.707v-1.394M77.469 64.707v-1.394M80.305 64.707v-1.394M83.14 64.707v-1.394M85.973 64.707v-1.394M88.809 64.707v-1.394M91.645 64.707v-1.394M94.477 64.707v-1.394M97.313 64.707v-1.394"/><path fill="none" stroke="#000" stroke-linecap="round" stroke-miterlimit="10" stroke-width=".399" d="M15.105 64.707v-1.992M71.8 64.707v-1.992M100.148 64.707v-1.992M41.46 36.36h3.985M41.46 8.012h3.985"/><path fill="none" stroke="#000" stroke-miterlimit="10" stroke-width=".399" d="M.547 64.707h106.668"/><path fill="none" stroke="#000" stroke-linecap="round" stroke-linejoin="round" stroke-miterlimit="10" stroke-width=".399" d="M105.34 62.316c.379 1.434 1.222 2.11 2.074 2.391-.852.277-1.695.957-2.074 2.39"/><path fill="none" stroke="#000" stroke-miterlimit="10" stroke-width=".399" d="M43.453 72.18V.953"/><path fill="none" stroke="#000" stroke-linecap="round" stroke-linejoin="round" stroke-miterlimit="10" stroke-width=".399" d="M41.063 2.824c1.433-.375 2.113-1.219 2.39-2.07.281.851.957 1.695 2.39 2.07"/><g clip-path="url(#a)"><path fill="none" stroke="#000" stroke-miterlimit="10" stroke-width=".598" d="M8.02 42.559s2.773 3.351 3.84 4.539a106 106 0 0 0 3.835 4.02 87 87 0 0 0 3.84 3.5 69 69 0 0 0 3.84 2.976 59 59 0 0 0 3.836 2.46 48 48 0 0 0 3.84 1.938 42 42 0 0 0 3.84 1.422c1.062.32 2.77.719 3.836.898a35 35 0 0 0 3.84.38 34 34 0 0 0 3.835-.137 37 37 0 0 0 3.84-.66 40 40 0 0 0 3.84-1.18 44 44 0 0 0 3.836-1.7 52 52 0 0 0 3.84-2.218 62 62 0 0 0 3.836-2.738 77 77 0 0 0 3.84-3.258 94 94 0 0 0 3.84-3.778 115 115 0 0 0 3.835-4.296 144 144 0 0 0 3.84-4.817 171 171 0 0 0 3.84-5.34c1.063-1.55 2.77-4.156 3.836-5.855a248 248 0 0 0 3.84-6.375A296 296 0 0 0 96.3 15.44c1.066-1.984 3.84-7.414 3.84-7.414"/></g><use xlink:href="#b" x="9.697" y="72.498"/><use xlink:href="#c" x="16.284" y="72.498"/><use xlink:href="#c" x="69.683" y="72.498"/><use xlink:href="#d" x="98.03" y="72.498"/><use xlink:href="#e" x="36.564" y="72.498"/><use xlink:href="#c" x="34.571" y="38.928"/><use xlink:href="#d" x="34.571" y="10.581"/></svg>