<svg xmlns="http://www.w3.org/2000/svg" xmlns:xlink="http://www.w3.org/1999/xlink" width="67.16" height="89.444"><defs><path id="a" d="M5.563-1.812c.14 0 .312 0 .312-.172 0-.188-.172-.188-.312-.188H1c-.125 0-.297 0-.297.188 0 .172.172.172.297.172Zm0 0"/><path id="b" d="M3.125-2.344c0 1.938-.922 2.266-1.39 2.266-.173 0-.579-.016-.798-.266.36-.031.375-.297.375-.375a.37.37 0 0 0-.375-.375.37.37 0 0 0-.375.39c0 .548.454.876 1.188.876 1.094 0 2.125-1.094 2.125-2.797 0-2.062-.922-2.672-1.734-2.672-.953 0-1.797.734-1.797 1.781 0 1.016.781 1.766 1.687 1.766.563 0 .906-.36 1.094-.766Zm-1.062.375c-.376 0-.61-.172-.782-.468-.187-.282-.187-.672-.187-1.079 0-.468 0-.796.218-1.125.204-.296.454-.453.829-.453.53 0 .765.532.797.563.156.39.171 1.015.171 1.172 0 .64-.343 1.39-1.046 1.39m0 0"/><path id="c" d="M3.89-2.547c0-.844-.078-1.36-.343-1.875-.344-.703-1-.875-1.438-.875-1 0-1.375.75-1.484.969C.344-3.75.328-2.953.328-2.547c0 .531.016 1.328.406 1.969.36.594.954.75 1.375.75.391 0 1.063-.125 1.47-.906.296-.578.312-1.297.312-1.813M2.11-.062c-.266 0-.813-.125-.985-.954-.094-.453-.094-1.203-.094-1.625 0-.546 0-1.109.094-1.546.172-.813.781-.891.984-.891.266 0 .829.14.985.86.094.437.094 1.046.094 1.577 0 .47 0 1.188-.094 1.641-.172.828-.719.938-.985.938m0 0"/><path id="e" d="M1.094-2.64c0-.657.062-1.235.343-1.72.25-.406.657-.734 1.157-.734.156 0 .515.032.703.297-.36.031-.39.297-.39.375 0 .25.187.375.374.375.14 0 .375-.078.375-.39 0-.47-.36-.86-1.078-.86C1.468-5.297.344-4.25.344-2.53.344-.36 1.359.172 2.125.172c.39 0 .797-.11 1.156-.453.328-.313.594-.64.594-1.344 0-1.031-.797-1.766-1.672-1.766-.578 0-.922.36-1.11.75M2.125-.079a.88.88 0 0 1-.797-.516c-.187-.36-.203-.89-.203-1.203 0-.781.422-1.375 1.047-1.375.39 0 .64.203.781.485.172.296.172.656.172 1.062s0 .75-.156 1.047c-.219.36-.485.5-.844.5m0 0"/><path id="f" d="M2.016-2.656c.625 0 1.03.453 1.03 1.297 0 1-.562 1.28-.983 1.28-.438 0-1.047-.155-1.329-.577.297 0 .5-.188.5-.438 0-.265-.187-.437-.453-.437-.203 0-.437.125-.437.453 0 .75.812 1.25 1.734 1.25 1.047 0 1.797-.734 1.797-1.531 0-.672-.531-1.266-1.344-1.453.625-.22 1.11-.75 1.11-1.391 0-.64-.72-1.094-1.547-1.094-.86 0-1.5.453-1.5 1.063 0 .297.187.422.406.422.25 0 .406-.172.406-.407 0-.297-.265-.406-.437-.406.344-.437.953-.469 1.094-.469.203 0 .812.063.812.89 0 .548-.234.891-.344 1.016-.234.25-.422.266-.906.297-.156 0-.219.016-.219.125 0 .11.078.11.219.11Zm0 0"/><path id="g" d="M2.5-5.078c0-.219-.016-.219-.234-.219-.328.313-.75.5-1.5.5v.266c.218 0 .64 0 1.109-.203v4.078c0 .297-.031.39-.781.39H.812V0c.329-.031 1.016-.031 1.376-.031s1.046 0 1.374.031v-.266h-.28c-.75 0-.782-.093-.782-.39Zm0 0"/><path id="d" d="M3.266-1.5c0-.75-.61-1.36-1.36-1.36-.734 0-1.343.61-1.343 1.36 0 .766.609 1.36 1.343 1.36.75 0 1.36-.594 1.36-1.36M1.906-.453A1.024 1.024 0 0 1 .875-1.5c0-.578.453-1.047 1.031-1.047s1.047.469 1.047 1.047c0 .594-.469 1.047-1.047 1.047m0 0"/></defs><path fill="none" stroke="#7F7F7F" stroke-linecap="round" stroke-miterlimit="10" stroke-width=".399" d="M14.176 77.695v1.993M30.84 73.23l.996 1.727M43.04 61.031l1.726.996M47.504 44.367h1.992M43.04 27.703l1.726-.996M30.84 15.504l.996-1.723M14.176 11.04V9.046M7.203 44.367h1.992M7.203 63.266h1.992M9.195 25.469H7.203"/><path fill="none" stroke="#BFBFBF" stroke-linecap="square" stroke-miterlimit="10" stroke-width=".399" d="M14.176 72.715c15.656 0 28.347-12.692 28.347-28.348S29.832 16.02 14.176 16.02"/><path fill="none" stroke="#7F7F7F" stroke-linecap="square" stroke-miterlimit="10" stroke-width=".399" d="M14.176 77.695c18.406 0 33.328-14.922 33.328-33.328S32.582 11.04 14.176 11.04"/><path fill="none" stroke="#BFBFBF" stroke-linecap="square" stroke-miterlimit="10" stroke-width=".399" d="M14.176 44.367v28.348"/><path fill="none" stroke="#7F7F7F" stroke-linecap="square" stroke-miterlimit="10" stroke-width=".399" d="M9.195 44.367v28.348"/><path fill="none" stroke="#BFBFBF" stroke-linecap="square" stroke-miterlimit="10" stroke-width=".399" d="M14.176 44.367V16.02"/><path fill="none" stroke="#7F7F7F" stroke-linecap="square" stroke-miterlimit="10" stroke-width=".399" d="M9.195 44.367V16.02"/><path fill="none" stroke="#000" stroke-miterlimit="10" stroke-width=".399" d="m21.645 42.547 2.82-2.82m-2.82 0 2.82 2.82M29.133 36.328l2.816-2.816m-2.816 0 2.816 2.816M34.48 27.555l2.82-2.817m-2.82 0 2.82 2.817"/><use xlink:href="#a" x="4.49" y="88.007"/><use xlink:href="#b" x="11.076" y="88.007"/><use xlink:href="#c" x="15.311" y="88.007"/><use xlink:href="#d" x="19.544" y="85.194"/><use xlink:href="#a" x="34.492" y="83.275"/><use xlink:href="#e" x="41.078" y="83.275"/><use xlink:href="#c" x="45.313" y="83.275"/><use xlink:href="#d" x="49.546" y="80.462"/><use xlink:href="#a" x="47.42" y="70.347"/><use xlink:href="#f" x="54.006" y="70.347"/><use xlink:href="#c" x="58.241" y="70.347"/><use xlink:href="#d" x="62.475" y="67.534"/><use xlink:href="#c" x="52.152" y="47.199"/><use xlink:href="#d" x="56.386" y="44.387"/><use xlink:href="#f" x="47.42" y="24.052"/><use xlink:href="#c" x="51.655" y="24.052"/><use xlink:href="#d" x="55.888" y="21.239"/><use xlink:href="#e" x="34.492" y="11.123"/><use xlink:href="#c" x="38.727" y="11.123"/><use xlink:href="#d" x="42.96" y="8.311"/><use xlink:href="#b" x="7.783" y="6.391"/><use xlink:href="#c" x="12.018" y="6.391"/><use xlink:href="#d" x="16.251" y="3.579"/><use xlink:href="#c" x=".311" y="46.936"/><use xlink:href="#g" x=".311" y="65.833"/><use xlink:href="#g" x=".311" y="28.038"/></svg>