<svg xmlns="http://www.w3.org/2000/svg" width="67.958" height="39.602"><defs><clipPath id="a"><path d="M0 0h67.938v39H0Zm0 0"/></clipPath><clipPath id="b"><path d="M0 0h67.938v39.402H0Zm0 0"/></clipPath></defs><g clip-path="url(#a)"><path fill="none" stroke="red" stroke-miterlimit="10" stroke-width=".797" d="M.988 33.773h65.938M.988 19.598h65.938M.988 5.426h65.938M5.609 38.395V.805m14.176 37.59V.805m14.172 37.59V.805m14.172 37.59V.805m14.176 37.59V.805"/></g><g clip-path="url(#b)"><path fill="none" stroke="#000" stroke-miterlimit="10" stroke-width=".399" d="M62.305 19.598c0-7.828-12.692-14.172-28.348-14.172S5.609 11.77 5.609 19.598s12.692 14.175 28.348 14.175 28.348-6.347 28.348-14.175Zm0 0"/></g></svg>