<svg xmlns="http://www.w3.org/2000/svg" width="98.12" height="66.584"><defs><clipPath id="a"><path d="M0 0h70v66.375H0Zm0 0"/></clipPath><clipPath id="b"><path d="M26 0h71.68v66.375H26Zm0 0"/></clipPath></defs><path fill="none" stroke="#7F7F7F" stroke-miterlimit="10" stroke-width=".199" d="M8.363 57.574h85.04M8.362 29.23h85.04M8.362.89h85.04M8.362 57.575V.883m28.344 56.691V.883m28.348 56.691V.883M93.39 57.574V.883"/><path fill="#FF7F7F" d="M18.438 47.5.901 56.02l9.016 9.015Zm15.03-15.031-17.53 8.515L24.953 50Zm15.036-15.035-17.535 8.52 9.015 9.015ZM63.535 2.402l-17.531 8.516 9.016 9.016Zm0 0"/><g clip-path="url(#a)"><path fill="none" stroke="#7F0000" stroke-miterlimit="10" stroke-width=".399" d="M18.438 47.5.901 56.02l9.016 9.015Zm15.03-15.031-17.53 8.515L24.953 50Zm15.036-15.035-17.535 8.52 9.015 9.015ZM63.535 2.402l-17.531 8.516 9.016 9.016Zm0 0"/></g><path fill="#7F7FFF" d="M50.96 57.574 32.536 51.2v12.754Zm15.032-15.031L47.57 36.164v12.758Zm15.035-15.035-18.425-6.375v12.754ZM96.06 12.477l-18.426-6.38v12.758Zm0 0"/><g clip-path="url(#b)"><path fill="none" stroke="#00007F" stroke-miterlimit="10" stroke-width=".399" d="M50.96 57.574 32.536 51.2v12.754Zm15.032-15.031L47.57 36.164v12.758Zm15.035-15.035-18.425-6.375v12.754ZM96.06 12.477l-18.426-6.38v12.758Zm0 0"/></g></svg>