<svg xmlns="http://www.w3.org/2000/svg" xmlns:xlink="http://www.w3.org/1999/xlink" width="87.256" height="87.248"><defs><path id="a" d="M5.828 0v-.469h-.703L3.453-2.453 4.61-3.75c.141-.14.204-.203 1.016-.203v-.469l-.906.031-1.032-.03v.468c.141 0 .266.015.376.078-.032.063-.032.094-.079.125l-.828.938-.984-1.141h.406v-.469L1.36-4.39.266-4.42v.468h.718l1.547 1.828L1.22-.656c-.157.187-.516.187-1 .187V0l.922-.031L2.156 0v-.469c-.172 0-.36-.047-.36-.11 0 0 0-.015.063-.093l.97-1.094L3.921-.469h-.39V0l1.202-.031Zm0 0"/></defs><path fill="none" stroke="#7F7F7F" stroke-miterlimit="10" stroke-width=".199" d="M.738 85.762h85.04M.737 57.418h85.04M.737 29.07h85.04M.737.734h85.04M.737 85.762V.722m28.344 85.04V.722m28.348 85.04V.722m28.336 85.04V.722"/><path fill="none" stroke="#000" stroke-miterlimit="10" stroke-width=".399" d="M25.117 79.805 66.02 8.125"/><use xlink:href="#a" x="26.059" y="31.282"/><path fill="none" stroke="#000" stroke-miterlimit="10" stroke-width=".399" d="M50.777 29.07c0-11.984-9.71-21.695-21.695-21.695-11.98 0-21.691 9.71-21.691 21.695 0 11.98 9.71 21.696 21.691 21.696 11.984 0 21.695-9.715 21.695-21.696Zm0 0"/></svg>