<svg xmlns="http://www.w3.org/2000/svg" xmlns:xlink="http://www.w3.org/1999/xlink" width="92.45" height="37.154"><defs><path id="a" d="M4.922 0v-.469h-1.39v-5.734c0-.234 0-.328-.266-.328-.11 0-.125 0-.22.078-.765.562-1.796.562-2 .562H.845v.47h.203c.156 0 .703-.016 1.297-.204v5.156H.954V0c.437-.031 1.5-.031 1.984-.031s1.546 0 1.984.031m0 0"/><path id="b" d="M5.156-2.219h-.468c-.032.203-.125.844-.266.906-.11.063-.86.063-1.016.063H1.937c.47-.39 1-.812 1.438-1.14 1.14-.844 1.781-1.313 1.781-2.25 0-1.157-1.047-1.891-2.437-1.891-1.219 0-2.156.625-2.156 1.515 0 .594.484.735.718.735C1.61-4.281 2-4.5 2-5c0-.516-.422-.672-.562-.719.28-.234.671-.343 1.03-.343.845 0 1.313.671 1.313 1.421 0 .688-.375 1.375-1.078 2.079l-2 2.046c-.14.11-.14.141-.14.344V0h4.28Zm0 0"/><path id="c" d="M5.25-1.797c0-.547-.297-1.406-1.734-1.719.687-.203 1.406-.765 1.406-1.625 0-.765-.75-1.39-2.156-1.39-1.188 0-1.97.64-1.97 1.437 0 .422.313.703.688.703a.67.67 0 0 0 .704-.687c0-.578-.547-.688-.579-.703.344-.282.782-.36 1.094-.36.828 0 .86.641.86.97 0 .124-.016 1.437-1.047 1.5-.407.015-.438.015-.485.03-.094.016-.125.11-.125.172 0 .172.11.172.282.172h.437c1.094 0 1.094.985 1.094 1.5 0 .469 0 1.485-1.031 1.485-.266 0-.782-.047-1.266-.344C1.75-.75 2-1 2-1.406c0-.453-.312-.75-.75-.75-.422 0-.766.265-.766.765 0 .907.97 1.5 2.25 1.5 1.782 0 2.516-1 2.516-1.906m0 0"/><path id="d" d="M5.516-.234c0-.235-.125-.235-.266-.235-.61-.015-.61-.14-.61-.375v-2.14c0-.891-.702-1.532-2.187-1.532-.562 0-1.781.047-1.781.922 0 .438.344.625.61.625.312 0 .624-.219.624-.625 0-.297-.187-.469-.218-.5a5 5 0 0 1 .718-.062c.75 0 1.11.422 1.11 1.172v.343c-.72.032-3.25.125-3.25 1.563C.266-.125 1.5.062 2.188.062c.796 0 1.265-.406 1.484-.828 0 .313 0 .766 1.047.766h.468c.204 0 .329 0 .329-.234m-2-1.157c0 .97-.922 1.094-1.172 1.094-.516 0-.906-.344-.906-.797 0-1.062 1.578-1.203 2.078-1.234Zm0 0"/><path id="e" d="M5.984-2.219c0-1.328-.937-2.265-2.39-2.265-.719 0-1.219.28-1.453.484v-2.922l-1.766.078v.469c.61 0 .688 0 .688.39V0h.468c.157-.187.328-.375.485-.562.078.078.562.625 1.453.625 1.484 0 2.515-.907 2.515-2.282m-1.28 0c0 .469 0 1.016-.25 1.406-.298.407-.75.516-1.079.516-.687 0-1.078-.547-1.187-.687v-2.5c.28-.36.75-.641 1.296-.641 1.22 0 1.22 1.203 1.22 1.906m0 0"/><path id="f" d="M4.766-1.172c0-.14-.141-.14-.235-.14-.187 0-.187.03-.25.156-.25.625-.734.812-1.234.812-1.39 0-1.39-1.453-1.39-1.922 0-.562 0-1.843 1.28-1.843.36 0 .516.015.657.046a.62.62 0 0 0-.203.47c0 .437.343.624.609.624.313 0 .64-.219.64-.625 0-.86-1.156-.922-1.734-.922C1.11-4.516.375-3.375.375-2.219.375-.89 1.313.063 2.844.063c1.625 0 1.922-1.157 1.922-1.235m0 0"/><path id="g" d="M5.984 0v-.469c-.609 0-.687 0-.687-.39v-6.063l-1.766.078v.469c.625 0 .703 0 .703.39v1.954a2.18 2.18 0 0 0-1.359-.453c-1.453 0-2.5.875-2.5 2.28 0 1.313.922 2.267 2.39 2.267.61 0 1.094-.235 1.407-.485v.485ZM4.172-1.031c-.14.187-.547.734-1.297.734-1.219 0-1.219-1.203-1.219-1.906 0-.485 0-1.016.25-1.406.297-.422.766-.516 1.078-.516.563 0 .97.313 1.188.61Zm0 0"/></defs><use xlink:href="#a" x=".464" y="7.166"/><use xlink:href="#b" x="28.81" y="7.166"/><use xlink:href="#c" x="57.156" y="7.111"/><use xlink:href="#d" x=".543" y="34.476"/><use xlink:href="#e" x="28.491" y="35.677"/><use xlink:href="#f" x="57.475" y="34.476"/><use xlink:href="#g" x="85.184" y="35.677"/><path fill="none" stroke="#000" stroke-miterlimit="10" stroke-width=".399" d="M3.328 10.688v15.359"/><path fill="none" stroke="#000" stroke-linecap="round" stroke-linejoin="round" stroke-miterlimit="10" stroke-width=".399" d="M5.719 24.172c-1.434.379-2.114 1.223-2.39 2.074-.278-.851-.958-1.695-2.391-2.074"/><path fill="none" stroke="#000" stroke-miterlimit="10" stroke-width=".399" d="m9.71 10.285 14.981 14.98"/><path fill="none" stroke="#000" stroke-linecap="round" stroke-linejoin="round" stroke-miterlimit="10" stroke-width=".39899202" d="M25.055 22.25c-.746 1.281-.63 2.36-.223 3.156-.8-.402-1.875-.52-3.156.227"/><path fill="none" stroke="#000" stroke-miterlimit="10" stroke-width=".399" d="m9.71 7.094 43.892 21.945"/><path fill="none" stroke="#000" stroke-linecap="round" stroke-linejoin="round" stroke-miterlimit="10" stroke-width=".39897606" d="M52.996 26.066c-.305 1.45.149 2.434.781 3.063-.882-.129-1.941.098-2.922 1.21"/><path fill="none" stroke="#000" stroke-miterlimit="10" stroke-width=".399" d="m9.71 6.031 71.58 23.86"/><path fill="none" stroke="#000" stroke-linecap="round" stroke-linejoin="round" stroke-miterlimit="10" stroke-width=".39897606" d="M80.266 27.031c-.094 1.48.492 2.39 1.21 2.922-.894-.004-1.91.375-2.722 1.613"/><path fill="none" stroke="#000" stroke-miterlimit="10" stroke-width=".399" d="M25.29 10.285 9.413 26.16"/><path fill="none" stroke="#000" stroke-linecap="round" stroke-linejoin="round" stroke-miterlimit="10" stroke-width=".39899202" d="M12.43 26.527c-1.282-.746-2.356-.629-3.157-.226.407-.797.524-1.871-.226-3.153"/><path fill="none" stroke="#000" stroke-miterlimit="10" stroke-width=".399" d="M31.676 11.086v14.156"/><path fill="none" stroke="#000" stroke-linecap="round" stroke-linejoin="round" stroke-miterlimit="10" stroke-width=".399" d="M29.285 12.957c1.434-.379 2.11-1.223 2.39-2.07.278.847.958 1.691 2.391 2.07"/><path fill="none" stroke="#000" stroke-miterlimit="10" stroke-width=".399" d="m38.34 10.566 15.875 15.88"/><path fill="none" stroke="#000" stroke-linecap="round" stroke-linejoin="round" stroke-miterlimit="10" stroke-width=".39899202" d="M37.973 13.582c.75-1.281.632-2.355.226-3.156.801.406 1.875.523 3.156-.227"/><path fill="none" stroke="#000" stroke-miterlimit="10" stroke-width=".399" d="m38.059 7.094 43.25 21.629"/><path fill="none" stroke="#000" stroke-linecap="round" stroke-linejoin="round" stroke-miterlimit="10" stroke-width=".39897207" d="M80.703 25.746c-.305 1.453.149 2.434.785 3.067-.886-.133-1.945.097-2.922 1.21"/><path fill="none" stroke="#000" stroke-miterlimit="10" stroke-width=".399" d="M53.637 7.094 9.988 28.922"/><path fill="none" stroke="#000" stroke-linecap="round" stroke-linejoin="round" stroke-miterlimit="10" stroke-width=".39897606" d="M12.734 30.223c-.98-1.114-2.039-1.344-2.922-1.211.633-.633 1.086-1.614.782-3.067"/><path fill="none" stroke="#000" stroke-miterlimit="10" stroke-width=".399" d="M53.355 10.566 38.38 25.546"/><path fill="none" stroke="#000" stroke-linecap="round" stroke-linejoin="round" stroke-miterlimit="10" stroke-width=".39899202" d="M50.34 10.203c1.281.746 2.36.629 3.156.223-.402.8-.52 1.875.227 3.156"/><path fill="none" stroke="#000" stroke-miterlimit="10" stroke-width=".399" d="M60.023 11.14v15.305"/><path fill="none" stroke="#000" stroke-linecap="round" stroke-linejoin="round" stroke-miterlimit="10" stroke-width=".399" d="M57.629 13.012c1.437-.38 2.113-1.223 2.394-2.07.278.847.954 1.69 2.391 2.07"/><path fill="none" stroke="#000" stroke-miterlimit="10" stroke-width=".399" d="m66.406 10.285 14.977 14.98"/><path fill="none" stroke="#000" stroke-linecap="round" stroke-linejoin="round" stroke-miterlimit="10" stroke-width=".39899202" d="M81.75 22.25c-.746 1.281-.629 2.36-.227 3.156-.796-.402-1.87-.52-3.156.227"/></svg>