<svg xmlns="http://www.w3.org/2000/svg" xmlns:xlink="http://www.w3.org/1999/xlink" width="181.897" height="113.87"><defs><clipPath id="e"><path d="M129 104h9v9.805h-9Zm0 0"/></clipPath><clipPath id="f"><path d="M165 18h16.844v21H165Zm0 0"/></clipPath><clipPath id="g"><path d="M52 97h21v16.805H52Zm0 0"/></clipPath><clipPath id="h"><path d="M80 97h22v16.805H80Zm0 0"/></clipPath><clipPath id="i"><path d="M108 97h22v16.805h-22Zm0 0"/></clipPath><clipPath id="j"><path d="M137 97h21v16.805h-21Zm0 0"/></clipPath><path id="a" d="M5.516-.234c0-.235-.125-.235-.266-.235-.61-.015-.61-.14-.61-.375v-2.14c0-.891-.702-1.532-2.187-1.532-.562 0-1.781.047-1.781.922 0 .438.344.625.61.625.312 0 .624-.219.624-.625 0-.297-.187-.469-.218-.5a5 5 0 0 1 .718-.062c.75 0 1.11.422 1.11 1.172v.343c-.72.032-3.25.125-3.25 1.563C.266-.125 1.5.062 2.188.062c.796 0 1.265-.406 1.484-.828 0 .313 0 .766 1.047.766h.468c.204 0 .329 0 .329-.234m-2-1.157c0 .97-.922 1.094-1.172 1.094-.516 0-.906-.344-.906-.797 0-1.062 1.578-1.203 2.078-1.234Zm0 0"/><path id="b" d="M4.36-6.11c0-.421-.36-.874-1.141-.874-.969 0-2.047.422-2.047 1.547v1.015h-.75v.469h.75V-.47H.484V0l1.25-.031c.375 0 1.016 0 1.375.031v-.469H2.25v-3.484h1.14v-.469H2.188v-1.016c0-1.093.75-1.187 1-1.187.047 0 .11 0 .172.031a.59.59 0 0 0-.234.485c0 .422.36.609.61.609.296 0 .624-.203.624-.61m0 0"/><path id="c" d="M5.563-3.953c0-.235-.172-.578-.625-.578-.157 0-.625.031-1.063.375-.172-.125-.594-.328-1.328-.328-1.438 0-1.985.78-1.985 1.468 0 .407.188.829.516 1.047-.281.36-.344.688-.344.89 0 .157.047.642.438.954-.125.031-.86.25-.86.875C.313 1.25.876 2 2.86 2 4.625 2 5.406 1.422 5.406.719c0-.297-.078-.922-.75-1.266-.562-.281-1.156-.281-2.11-.281-.265 0-.718 0-.765-.016a.625.625 0 0 1-.562-.625c0-.093.047-.25.11-.328.452.234.968.266 1.218.266 1.437 0 1.984-.782 1.984-1.485 0-.468-.25-.796-.406-.953.297-.156.516-.172.625-.187a.43.43 0 0 0-.047.203c0 .25.172.422.438.422a.41.41 0 0 0 .422-.422m-2.141.937c0 .454 0 1.125-.875 1.125s-.875-.671-.875-1.125c0-.437 0-1.109.875-1.109s.875.672.875 1.11M4.547.75c0 .36-.39.89-1.688.89-1.187 0-1.687-.452-1.687-.906 0-.609.625-.609.766-.609h1.171c.313 0 1.438 0 1.438.625m0 0"/><path id="d" d="M6.125 0v-.469h-.687v-2.578c0-1.047-.532-1.437-1.532-1.437-.953 0-1.484.562-1.75 1.078v-1.078l-1.703.078v.468c.61 0 .688 0 .688.391v3.078H.453V0l1.25-.031L2.953 0v-.469h-.687v-2.078c0-1.094.859-1.578 1.5-1.578.328 0 .547.203.547.969V-.47h-.688V0l1.25-.031Zm0 0"/></defs><path fill="none" stroke="#000" stroke-miterlimit="10" stroke-width=".399" d="M8.996 58.781 30.18 33.355"/><path fill="none" stroke="#000" stroke-linecap="round" stroke-linejoin="round" stroke-miterlimit="10" stroke-width=".39898005000000003" d="M27.145 33.266c1.343.629 2.406.414 3.164-.063-.329.832-.348 1.914.511 3.125"/><path fill="#FFF" d="M16.254 48.8h7.562v-6.566h-7.562Zm0 0"/><use xlink:href="#a" x="17.25" y="47.745"/><path fill="none" stroke="red" stroke-miterlimit="10" stroke-width=".399" d="m10.406 60.723 17.961-7.184"/><path fill="none" stroke="red" stroke-linecap="round" stroke-linejoin="round" stroke-miterlimit="10" stroke-width=".39898404" d="M25.738 52.016c.887 1.191 1.922 1.507 2.813 1.449-.684.574-1.215 1.515-1.035 2.988"/><path fill="#FFF" d="M17.29 60.078h5.491v-8.965H17.29Zm0 0"/><use xlink:href="#b" x="18.287" y="59.084" fill="red"/><path fill="none" stroke="#000" stroke-miterlimit="10" stroke-width=".399" d="m10.406 64.36 17.961 7.183"/><path fill="none" stroke="#000" stroke-linecap="round" stroke-linejoin="round" stroke-miterlimit="10" stroke-width=".39898404" d="M27.516 68.629c-.18 1.473.351 2.414 1.035 2.988-.89-.058-1.926.258-2.813 1.45"/><path fill="#FFF" d="M16.176 73.422h7.719v-8.527h-7.72Zm0 0"/><use xlink:href="#c" x="17.171" y="70.422"/><path fill="none" stroke="#000" stroke-miterlimit="10" stroke-width=".399" d="M8.996 66.3 30.18 91.728"/><path fill="none" stroke="#000" stroke-linecap="round" stroke-linejoin="round" stroke-miterlimit="10" stroke-width=".39898005000000003" d="M30.82 88.754c-.86 1.21-.84 2.293-.511 3.125-.758-.477-1.82-.692-3.164-.063"/><path fill="#FFF" d="M15.855 82.758h8.36V76.28h-8.36Zm0 0"/><use xlink:href="#d" x="16.852" y="81.761"/><path fill="none" stroke="#000" stroke-miterlimit="10" stroke-width=".399" d="M39.105 28.523h17.16"/><path fill="none" stroke="#000" stroke-linecap="round" stroke-linejoin="round" stroke-miterlimit="10" stroke-width=".399" d="M54.39 26.133c.38 1.437 1.223 2.113 2.075 2.39-.852.282-1.695.957-2.074 2.391"/><path fill="#FFF" d="M44.203 31.734h8.36v-6.476h-8.36Zm0 0"/><use xlink:href="#d" x="45.199" y="30.737"/><path fill="none" stroke="#000" stroke-miterlimit="10" stroke-width=".399" d="m66.379 25.465 19.61-15.688"/><path fill="none" stroke="#000" stroke-linecap="round" stroke-linejoin="round" stroke-miterlimit="10" stroke-width=".39897606" d="M83.035 9.078c1.192.887 2.274.887 3.11.574-.489.75-.723 1.805-.125 3.16"/><path fill="#FFF" d="M72.867 22.398h7.723v-8.53h-7.723Zm0 0"/><use xlink:href="#c" x="73.864" y="19.399"/><path fill="none" stroke="#000" stroke-miterlimit="10" stroke-width=".399" d="M67.45 28.523h17.163"/><path fill="none" stroke="#000" stroke-linecap="round" stroke-linejoin="round" stroke-miterlimit="10" stroke-width=".399" d="M82.738 26.133c.38 1.437 1.223 2.113 2.075 2.39-.852.282-1.696.957-2.075 2.391"/><path fill="#FFF" d="M73.984 31.734h5.489v-8.968h-5.489Zm0 0"/><use xlink:href="#b" x="74.98" y="30.737"/><path fill="none" stroke="#000" stroke-miterlimit="10" stroke-width=".399" d="M95.797 28.523h17.16"/><path fill="none" stroke="#000" stroke-linecap="round" stroke-linejoin="round" stroke-miterlimit="10" stroke-width=".399" d="M111.086 26.133c.379 1.437 1.223 2.113 2.07 2.39-.847.282-1.691.957-2.07 2.391"/><path fill="#FFF" d="M101.293 31.793h7.562v-6.566h-7.562Zm0 0"/><use xlink:href="#a" x="102.29" y="30.737"/><path fill="none" stroke="#000" stroke-miterlimit="10" stroke-width=".399" d="M124.145 28.523h17.16"/><path fill="none" stroke="#000" stroke-linecap="round" stroke-linejoin="round" stroke-miterlimit="10" stroke-width=".399" d="M139.434 26.133c.379 1.437 1.222 2.113 2.07 2.39-.848.282-1.691.957-2.07 2.391"/><path fill="#FFF" d="M129.242 31.734h8.36v-6.476h-8.36Zm0 0"/><use xlink:href="#d" x="130.238" y="30.737"/><path fill="none" stroke="#000" stroke-miterlimit="10" stroke-width=".399" d="M152.492 28.523h17.16"/><path fill="none" stroke="#000" stroke-linecap="round" stroke-linejoin="round" stroke-miterlimit="10" stroke-width=".399" d="M167.777 26.133c.38 1.437 1.223 2.113 2.075 2.39-.852.282-1.696.957-2.075 2.391"/><path fill="#FFF" d="M157.91 33.734h7.719v-8.527h-7.719Zm0 0"/><use xlink:href="#c" x="158.904" y="30.737"/><path fill="none" stroke="red" stroke-miterlimit="10" stroke-width=".399" d="M39.105 51.203h17.16"/><path fill="none" stroke="red" stroke-linecap="round" stroke-linejoin="round" stroke-miterlimit="10" stroke-width=".399" d="M54.39 48.813c.38 1.433 1.223 2.109 2.075 2.39-.852.277-1.695.957-2.074 2.39"/><path fill="#FFF" d="M44.602 54.469h7.562v-6.563h-7.562Zm0 0"/><use xlink:href="#a" x="45.597" y="53.415" fill="red"/><path fill="none" stroke="red" stroke-miterlimit="10" stroke-width=".399" d="M67.45 51.203h17.163"/><path fill="none" stroke="red" stroke-linecap="round" stroke-linejoin="round" stroke-miterlimit="10" stroke-width=".399" d="M82.738 48.813c.38 1.433 1.223 2.109 2.075 2.39-.852.277-1.696.957-2.075 2.39"/><path fill="#FFF" d="M72.55 54.41h8.356v-6.476h-8.355Zm0 0"/><use xlink:href="#d" x="73.546" y="53.415" fill="red"/><path fill="none" stroke="#000" stroke-miterlimit="10" stroke-width=".399" d="M95.797 51.203h17.16"/><path fill="none" stroke="#000" stroke-linecap="round" stroke-linejoin="round" stroke-miterlimit="10" stroke-width=".399" d="M111.086 48.813c.379 1.433 1.223 2.109 2.07 2.39-.847.277-1.691.957-2.07 2.39"/><path fill="#FFF" d="M101.215 56.414h7.722v-8.531h-7.722Zm0 0"/><use xlink:href="#c" x="102.21" y="53.415"/><path fill="none" stroke="#000" stroke-miterlimit="10" stroke-width=".399" d="m38.754 94.738 17.96-7.183"/><path fill="none" stroke="#000" stroke-linecap="round" stroke-linejoin="round" stroke-miterlimit="10" stroke-width=".39898404" d="M54.086 86.031c.887 1.192 1.918 1.508 2.812 1.45-.683.574-1.218 1.515-1.035 2.988"/><path fill="#FFF" d="M44.52 96.098h7.722V87.57H44.52Zm0 0"/><use xlink:href="#c" x="45.517" y="93.1"/><path fill="none" stroke="#000" stroke-miterlimit="10" stroke-width=".399" d="m38.754 98.375 17.96 7.184"/><path fill="none" stroke="#000" stroke-linecap="round" stroke-linejoin="round" stroke-miterlimit="10" stroke-width=".39898404" d="M55.863 102.645c-.183 1.472.352 2.414 1.035 2.988-.894-.055-1.925.258-2.812 1.449"/><path fill="#FFF" d="M45.637 105.434h5.488v-8.965h-5.488Zm0 0"/><use xlink:href="#b" x="46.633" y="104.438"/><path fill="none" stroke="#000" stroke-miterlimit="10" stroke-width=".399" d="M67.45 107.895h17.163"/><path fill="none" stroke="#000" stroke-linecap="round" stroke-linejoin="round" stroke-miterlimit="10" stroke-width=".399" d="M82.738 105.504c.38 1.437 1.223 2.113 2.075 2.39-.852.282-1.696.958-2.075 2.391"/><path fill="#FFF" d="M72.95 111.164h7.558v-6.566h-7.559Zm0 0"/><use xlink:href="#a" x="73.944" y="110.107"/><path fill="none" stroke="#000" stroke-miterlimit="10" stroke-width=".399" d="M95.797 107.895h17.16"/><path fill="none" stroke="#000" stroke-linecap="round" stroke-linejoin="round" stroke-miterlimit="10" stroke-width=".399" d="M111.086 105.504c.379 1.437 1.223 2.113 2.07 2.39-.847.282-1.691.958-2.07 2.391"/><path fill="#FFF" d="M100.895 111.105h8.359v-6.476h-8.36Zm0 0"/><use xlink:href="#d" x="101.891" y="110.107"/><path fill="none" stroke="#000" stroke-miterlimit="10" stroke-width=".399" d="M124.145 107.895h17.16"/><path fill="none" stroke="#000" stroke-linecap="round" stroke-linejoin="round" stroke-miterlimit="10" stroke-width=".399" d="M139.434 105.504c.379 1.437 1.222 2.113 2.07 2.39-.848.282-1.691.958-2.07 2.391"/><g clip-path="url(#e)"><path fill="#FFF" d="M129.563 113.105h7.718v-8.527h-7.719Zm0 0"/></g><use xlink:href="#c" x="130.556" y="110.107"/><path fill="#7F7F7F" stroke="#000" stroke-miterlimit="10" stroke-width=".399" d="M10.559 62.54a4.697 4.697 0 1 0-9.394.003 4.697 4.697 0 0 0 9.394-.004Zm0 0"/><path fill="none" stroke="#000" stroke-miterlimit="10" stroke-width=".399" d="M38.906 28.527a4.698 4.698 0 1 0-9.393-.003 4.698 4.698 0 0 0 9.393.003ZM67.25 28.527c0-2.593-2.102-4.699-4.695-4.699a4.698 4.698 0 0 0 0 9.395 4.695 4.695 0 0 0 4.695-4.696Zm0 0"/><path fill="#7F7F7F" stroke="#000" stroke-miterlimit="10" stroke-width=".399" d="M95.598 5.848a4.695 4.695 0 0 0-4.696-4.696 4.698 4.698 0 0 0 0 9.395 4.7 4.7 0 0 0 4.696-4.7Zm0 0"/><path fill="none" stroke="#000" stroke-miterlimit="10" stroke-width=".399" d="M95.598 28.527c0-2.593-2.102-4.699-4.696-4.699a4.698 4.698 0 0 0 0 9.395 4.695 4.695 0 0 0 4.696-4.696ZM123.945 28.527a4.698 4.698 0 1 0-9.393-.003 4.698 4.698 0 0 0 9.393.003ZM152.29 28.527c0-2.593-2.102-4.699-4.696-4.699a4.698 4.698 0 0 0 0 9.395 4.695 4.695 0 0 0 4.695-4.696Zm0 0"/><path fill="#7F7F7F" d="M180.637 28.527c0-2.593-2.102-4.699-4.696-4.699a4.698 4.698 0 0 0 0 9.395 4.695 4.695 0 0 0 4.696-4.696m0 0"/><g clip-path="url(#f)"><path fill="none" stroke="#000" stroke-miterlimit="10" stroke-width=".399" d="M180.637 28.527c0-2.593-2.102-4.699-4.696-4.699a4.698 4.698 0 0 0 0 9.395 4.695 4.695 0 0 0 4.696-4.696Zm0 0"/></g><path fill="none" stroke="#000" stroke-miterlimit="10" stroke-width=".399" d="M38.906 51.203a4.698 4.698 0 0 0-9.394 0 4.698 4.698 0 0 0 9.395 0ZM67.25 51.203a4.695 4.695 0 0 0-4.695-4.695 4.695 4.695 0 0 0-4.696 4.695 4.695 4.695 0 0 0 4.696 4.695 4.695 4.695 0 0 0 4.695-4.695ZM95.598 51.203a4.695 4.695 0 0 0-4.696-4.695 4.695 4.695 0 0 0-4.695 4.695 4.695 4.695 0 0 0 4.695 4.695 4.695 4.695 0 0 0 4.696-4.695Zm0 0"/><path fill="#7F7F7F" stroke="#000" stroke-miterlimit="10" stroke-width=".399" d="M123.945 51.203a4.698 4.698 0 0 0-9.394 0 4.698 4.698 0 0 0 9.395 0ZM38.906 73.879a4.698 4.698 0 1 0-9.396.005 4.698 4.698 0 0 0 9.396-.005Zm0 0"/><path fill="none" stroke="#000" stroke-miterlimit="10" stroke-width=".399" d="M38.906 96.559a4.698 4.698 0 1 0-9.393-.003 4.698 4.698 0 0 0 9.393.003Zm0 0"/><path fill="#7F7F7F" stroke="#000" stroke-miterlimit="10" stroke-width=".399" d="M67.25 85.219a4.695 4.695 0 0 0-4.695-4.696 4.695 4.695 0 0 0-4.696 4.696 4.695 4.695 0 0 0 4.696 4.695 4.695 4.695 0 0 0 4.695-4.695Zm0 0"/><g clip-path="url(#g)"><path fill="none" stroke="#000" stroke-miterlimit="10" stroke-width=".399" d="M67.25 107.895a4.695 4.695 0 0 0-4.695-4.696 4.698 4.698 0 0 0 0 9.395 4.7 4.7 0 0 0 4.695-4.7Zm0 0"/></g><g clip-path="url(#h)"><path fill="none" stroke="#000" stroke-miterlimit="10" stroke-width=".399" d="M95.598 107.895a4.695 4.695 0 0 0-4.696-4.696 4.698 4.698 0 0 0 0 9.395 4.7 4.7 0 0 0 4.696-4.7Zm0 0"/></g><g clip-path="url(#i)"><path fill="none" stroke="#000" stroke-miterlimit="10" stroke-width=".399" d="M123.945 107.895a4.698 4.698 0 1 0-9.395.005 4.698 4.698 0 0 0 9.395-.005Zm0 0"/></g><path fill="#7F7F7F" d="M152.29 107.895a4.695 4.695 0 0 0-4.696-4.696 4.698 4.698 0 0 0 0 9.395 4.7 4.7 0 0 0 4.695-4.7m0 0"/><g clip-path="url(#j)"><path fill="none" stroke="#000" stroke-miterlimit="10" stroke-width=".399" d="M152.29 107.895a4.695 4.695 0 0 0-4.696-4.696 4.698 4.698 0 0 0 0 9.395 4.7 4.7 0 0 0 4.695-4.7Zm0 0"/></g></svg>