<svg xmlns="http://www.w3.org/2000/svg" width="94.106" height="91.874"><path fill="none" stroke="#7F7F7F" stroke-miterlimit="10" stroke-width=".199" d="M3.594 90.703h85.039M3.593 62.355h85.04M3.593 34.008h85.04M3.593 5.672h85.04M3.593 90.703V5.664m28.348 85.04V5.663m28.344 85.04V5.663m28.34 85.04V5.663"/><path d="M1.875 87.559c-.215.34-.305.73-.035 1.015.273.281.797.227 1.015.016.223-.211.247-.387.227-.54-.016-.112-.098-.269-.098-.491.004-.223.036-.418.27-.641s.648-.309 1.062-.23c.41.078.82-.141.852-.454.031-.312-.43-.695-.973-.789-.539-.097-.855.051-1.113.368-.258.312-.844 1.175-1.207 1.746m3.95-2.141c-.106-.11-.313-.074-.466.07-.156.149-.199.356-.093.461.101.11.308.074.46-.07.157-.149.2-.356.098-.461m-.567-.2c-.07-.073-.203-.062-.293.024-.09.09-.11.219-.04.293s.204.063.298-.023c.09-.086.105-.219.035-.293m-.442-.14c-.07-.055-.183-.035-.25.05-.066.087-.062.2.012.259s.188.035.254-.051c.066-.082.059-.2-.016-.258m-.425-.058c-.059-.06-.164-.06-.235.011-.07.067-.078.172-.02.235.06.058.165.054.235-.012.07-.067.078-.172.02-.234m-.446.015a.144.144 0 0 0-.207 0 .143.143 0 0 0-.008.203.147.147 0 0 0 .208.004.147.147 0 0 0 .007-.207m6.032 5.703c-.391.067-.79-.004-.946-.363-.16-.36.094-.82.375-.941s.45-.079.582-.004c.102.058.211.195.418.28.207.087.399.13.696-.003.296-.129.535-.48.62-.887.087-.41.446-.707.747-.613.3.09.476.664.355 1.2-.12.534-.379.769-.765.886-.391.117-1.414.328-2.082.445m3.5-2.824c.058.137-.051.316-.247.402-.195.086-.402.043-.46-.09-.063-.136.046-.316.242-.402.195-.086.402-.043.465.09m-.036.598c.04.093-.02.21-.136.261-.117.051-.242.016-.285-.078-.04-.093.02-.21.136-.261.117-.051.242-.016.285.078m-.043.46c.028.09-.039.188-.14.216-.106.027-.207-.024-.235-.114-.023-.09.04-.183.145-.215.102-.027.207.024.23.114m-.109.419c.035.078-.008.171-.098.21-.09.04-.187.008-.222-.07s.008-.176.097-.215c.09-.039.188-.007.223.075m-.184.402a.146.146 0 0 1-.078.191.143.143 0 0 1-.191-.07.14.14 0 0 1 .074-.191c.074-.035.16 0 .195.07m-2.94-7.758c-.216.336-.306.727-.032 1.012.27.285.793.226 1.012.016.222-.211.246-.387.226-.536-.016-.117-.098-.273-.098-.496.004-.222.036-.414.27-.636.234-.227.648-.313 1.062-.235.41.078.82-.14.852-.453.031-.312-.43-.695-.973-.789-.539-.094-.855.05-1.113.367-.258.313-.844 1.176-1.207 1.75m3.948-2.144c-.105-.106-.312-.075-.465.074-.156.144-.199.351-.093.46.101.106.308.075.46-.073.157-.149.2-.356.098-.461m-.566-.2c-.07-.074-.2-.062-.293.028-.09.086-.11.219-.04.293s.204.062.298-.028c.09-.086.105-.218.035-.293m-.442-.136c-.07-.059-.183-.035-.25.047-.066.085-.062.203.012.257.074.059.188.036.254-.046.066-.086.059-.2-.016-.258m-.425-.059c-.059-.062-.164-.058-.235.008s-.078.172-.02.234c.06.063.165.059.235-.008.07-.066.078-.171.02-.234m-.446.016a.144.144 0 0 0-.207-.004.147.147 0 0 0-.007.207.147.147 0 0 0 .207 0 .143.143 0 0 0 .007-.203m6.032 5.699c-.391.066-.79 0-.946-.363-.16-.36.094-.817.375-.942.282-.12.45-.074.582 0 .102.055.211.196.418.278.207.086.399.129.696 0 .297-.133.535-.48.62-.891.087-.41.446-.703.747-.613.3.09.476.664.355 1.199-.12.535-.379.77-.765.887-.391.12-1.414.328-2.082.445m3.5-2.82c.058.132-.051.312-.246.398-.196.086-.403.047-.461-.09-.063-.136.05-.316.242-.398.195-.086.402-.047.465.09m-.036.593c.04.094-.02.211-.136.262-.117.05-.242.02-.285-.074-.04-.094.02-.215.136-.266.117-.05.242-.015.285.078m-.043.461c.028.09-.039.188-.14.215-.106.031-.207-.02-.235-.11-.023-.09.04-.187.145-.214.102-.031.207.02.23.11m-.109.418c.035.078-.008.176-.098.215s-.187.004-.222-.074.008-.176.097-.215c.09-.039.188-.004.223.074m-.183.407c.03.07-.004.156-.079.19a.145.145 0 0 1-.191-.073.14.14 0 0 1 .074-.192.15.15 0 0 1 .196.075m-2.942-7.762c-.215.336-.305.73-.031 1.012.27.285.793.226 1.012.015.222-.21.246-.387.226-.535-.015-.113-.098-.273-.098-.492.004-.223.036-.418.27-.64s.648-.31 1.063-.235c.41.078.82-.14.851-.453.031-.309-.43-.692-.973-.79-.539-.093-.855.055-1.113.368-.258.316-.844 1.176-1.207 1.75m3.95-2.145c-.106-.105-.313-.074-.465.075-.157.148-.2.351-.094.46.101.106.308.075.465-.074.152-.148.195-.351.093-.46m-.567-.195c-.07-.074-.2-.063-.293.023-.09.086-.11.22-.04.293.071.075.204.063.298-.023.09-.09.105-.219.035-.293m-.438-.14c-.074-.06-.187-.036-.253.05-.067.082-.063.2.011.258.074.055.188.035.254-.05.067-.087.059-.2-.012-.259m-.43-.06c-.058-.062-.163-.058-.234.009-.07.066-.078.171-.02.234.06.062.165.059.235-.008.07-.066.078-.172.02-.234m-.445.016a.147.147 0 0 0-.207-.004.15.15 0 0 0-.007.207.148.148 0 0 0 .215-.203m6.032 5.7c-.39.066-.79 0-.946-.36-.16-.36.094-.82.375-.941.282-.125.45-.078.582-.004.102.058.211.195.418.281.207.082.399.125.696-.004s.535-.48.62-.89c.087-.41.446-.704.747-.614.3.09.476.668.355 1.203-.12.536-.379.766-.765.887-.39.117-1.41.328-2.082.442m3.5-2.82c.058.136-.051.316-.246.398-.196.086-.403.047-.461-.09-.063-.133.05-.313.246-.399.195-.085.398-.046.46.09m-.035.597c.039.094-.02.21-.137.262-.117.05-.242.015-.285-.078-.04-.094.02-.211.136-.262.118-.051.243-.016.286.078m-.043.457c.027.094-.04.187-.141.219-.106.027-.207-.024-.234-.114-.024-.09.039-.187.144-.214.102-.028.207.02.23.109m-.11.418c.035.078-.008.176-.097.215-.09.039-.188.008-.223-.074-.035-.079.008-.172.098-.211s.187-.008.222.07m-.183.406a.146.146 0 0 1-.079.192.145.145 0 0 1-.19-.075c-.036-.07 0-.156.073-.191a.15.15 0 0 1 .196.074m-2.942-7.762c-.215.34-.305.73-.031 1.016.27.281.793.227 1.012.016.222-.211.246-.387.226-.54-.012-.113-.097-.269-.097-.492.003-.222.035-.418.27-.64.233-.223.648-.309 1.062-.23.41.074.82-.141.851-.454.031-.312-.43-.695-.973-.789-.539-.097-.855.051-1.113.367-.258.313-.844 1.176-1.207 1.746m3.95-2.14c-.106-.11-.313-.074-.465.07-.157.149-.196.356-.094.461.101.11.308.074.465-.07.152-.149.195-.356.093-.461m-.567-.2c-.07-.074-.2-.062-.293.024-.09.09-.11.219-.039.293.07.074.203.063.297-.023.09-.086.105-.22.035-.293m-.437-.14c-.075-.055-.188-.035-.254.05-.067.087-.063.2.011.259.075.058.188.035.254-.051.067-.082.059-.2-.012-.258m-.43-.059c-.059-.062-.164-.058-.235.012-.07.067-.078.172-.02.234.06.06.165.055.235-.011.07-.067.078-.172.02-.235m-.445.016a.144.144 0 0 0-.208 0 .14.14 0 0 0-.003.203.143.143 0 0 0 .203.004.147.147 0 0 0 .008-.207m6.03 5.7c-.39.07-.788 0-.945-.36-.16-.36.098-.82.375-.942.282-.12.45-.078.582-.003.102.058.211.195.418.28.207.087.399.13.696-.003.297-.129.535-.48.62-.89.087-.407.446-.704.747-.61.3.09.477.664.355 1.2-.12.534-.379.769-.765.886-.39.117-1.41.328-2.082.441m3.5-2.821c.06.137-.05.316-.245.402-.196.086-.403.043-.461-.09-.063-.136.05-.316.246-.402.195-.086.398-.043.46.09m-.034.598c.039.093-.02.21-.137.261s-.242.016-.285-.078c-.04-.094.02-.21.136-.262.118-.05.243-.015.286.079m-.043.46c.027.09-.04.188-.141.215-.105.028-.207-.023-.234-.113-.024-.09.039-.183.144-.215.102-.027.207.024.23.114m-.11.418c.035.079-.008.172-.097.211-.09.04-.188.008-.223-.07s.008-.176.098-.215.187-.008.222.075m-.183.403a.146.146 0 0 1-.078.191.143.143 0 0 1-.192-.07.14.14 0 0 1 .074-.191c.075-.036.16 0 .196.07m-2.942-7.758c-.215.336-.304.727-.031 1.012.27.285.793.226 1.012.015.222-.21.246-.386.226-.535-.011-.117-.097-.273-.097-.496.004-.223.035-.414.27-.637.234-.226.648-.312 1.062-.234.41.078.82-.14.851-.453s-.43-.695-.972-.79c-.54-.093-.856.052-1.114.368-.258.313-.843 1.176-1.207 1.75m3.95-2.144c-.102-.106-.313-.075-.465.074-.157.144-.196.351-.094.46.101.106.308.075.465-.074.152-.148.195-.355.093-.46m-.567-.2c-.07-.074-.2-.062-.293.028-.09.086-.11.218-.039.293.07.074.203.062.297-.028.09-.086.11-.218.035-.293m-.437-.136c-.075-.059-.188-.036-.254.046-.067.086-.063.204.011.258.075.059.188.035.254-.047.067-.086.059-.203-.011-.257m-.43-.059c-.059-.063-.164-.059-.234.008-.07.066-.079.172-.02.234s.164.059.234-.008c.07-.066.078-.172.02-.234m-.445.016a.144.144 0 0 0-.207-.004.144.144 0 1 0 .199.207.143.143 0 0 0 .008-.203m6.03 5.699c-.39.066-.788 0-.944-.363-.16-.36.097-.817.374-.942.282-.121.45-.074.583 0 .101.055.214.195.417.277.208.086.399.13.696 0 .297-.132.535-.48.62-.89.087-.41.446-.703.747-.613.3.09.477.664.355 1.199-.12.535-.378.77-.765.886-.39.122-1.41.329-2.082.446m3.5-2.82c.06.132-.05.312-.245.398-.196.086-.403.047-.461-.09-.063-.137.05-.316.246-.398.195-.086.398-.047.46.09m-.034.593c.039.094-.02.211-.137.262-.117.05-.242.016-.285-.078-.04-.094.02-.211.136-.262.118-.05.243-.016.286.078m-.043.461c.027.09-.04.188-.14.215-.106.027-.208-.02-.235-.11-.024-.09.039-.187.144-.214.102-.031.207.02.23.11m-.11.418c.035.078-.008.176-.097.215-.09.04-.188.004-.223-.074s.008-.176.098-.215.187-.004.222.074m-.183.406c.031.07-.004.157-.078.192a.145.145 0 0 1-.192-.074.14.14 0 0 1 .074-.192c.075-.031.164 0 .196.074M43.32 59.93c-.215.336-.304.73-.03 1.011.269.286.792.227 1.01.016.223-.21.247-.387.227-.535-.011-.113-.097-.274-.097-.496.004-.219.035-.414.27-.637.234-.223.648-.309 1.062-.234.41.078.82-.14.851-.453.032-.309-.43-.692-.972-.79-.54-.093-.856.055-1.114.368-.257.316-.843 1.175-1.207 1.75m3.95-2.145c-.102-.105-.313-.074-.465.074-.157.149-.196.352-.094.461.102.106.309.075.465-.074.152-.148.195-.351.094-.46m-.567-.195c-.07-.074-.2-.063-.293.023-.09.086-.11.219-.039.293.074.074.203.063.297-.023.09-.09.11-.219.035-.293m-.437-.14c-.075-.06-.188-.036-.254.05-.067.082-.063.2.011.258.075.054.188.035.254-.051.067-.086.059-.2-.011-.258m-.43-.06c-.059-.062-.164-.058-.234.008-.07.067-.079.172-.02.235.059.062.164.058.234-.008s.079-.172.02-.234m-.445.016a.147.147 0 0 0-.207-.004.144.144 0 0 0-.004.207.143.143 0 0 0 .203.004.15.15 0 0 0 .008-.207m6.03 5.7c-.39.066-.788 0-.944-.36-.16-.36.097-.82.375-.941.28-.125.453-.078.582-.004.101.058.214.195.418.281.207.082.398.125.695-.004s.535-.48.621-.89c.09-.41.445-.704.746-.614.3.09.477.668.356 1.203-.122.535-.38.766-.766.887-.39.117-1.41.328-2.082.441m3.5-2.82c.06.136-.05.316-.245.398-.196.086-.403.046-.461-.09-.063-.133.05-.313.246-.399.195-.086.398-.047.46.09m-.034.597c.039.094-.02.21-.137.262-.117.05-.242.015-.285-.079-.04-.093.02-.21.137-.261s.242-.016.285.078m-.043.457c.027.094-.04.187-.14.219-.106.027-.208-.024-.235-.114-.024-.09.039-.187.144-.215.102-.027.207.02.23.11m-.11.418c.036.078-.007.176-.097.215s-.188.007-.223-.075c-.035-.078.008-.171.098-.21.09-.04.187-.008.222.07m-.183.406a.146.146 0 0 1-.078.191.145.145 0 0 1-.192-.074c-.035-.07 0-.156.074-.191.075-.031.165 0 .196.074m-2.942-7.762c-.214.34-.304.73-.03 1.016.269.281.792.227 1.01.016.224-.211.247-.387.227-.54-.011-.113-.097-.269-.097-.492.004-.222.035-.418.27-.64.234-.223.648-.309 1.062-.23.41.073.82-.141.851-.454.032-.312-.43-.695-.972-.789-.54-.098-.856.05-1.114.363-.257.317-.843 1.18-1.207 1.75m3.95-2.14c-.102-.11-.313-.075-.465.07-.157.148-.196.355-.094.461.102.11.309.074.465-.074.152-.145.195-.352.094-.457m-.567-.2c-.07-.074-.199-.062-.293.024-.09.09-.11.219-.039.293.074.074.203.062.297-.024.09-.09.11-.218.035-.292m-.437-.14c-.075-.055-.188-.035-.254.05-.067.087-.063.2.011.258.075.06.188.036.254-.05.067-.082.059-.2-.011-.258m-.43-.059c-.059-.062-.164-.058-.234.012-.07.066-.078.172-.02.23.059.063.164.06.234-.007s.079-.172.02-.235m-.445.016a.147.147 0 0 0-.207-.004c-.059.059-.063.152-.004.207a.143.143 0 0 0 .203.004.144.144 0 0 0 .008-.207m6.035 5.7c-.395.07-.793 0-.95-.36-.16-.36.098-.82.376-.942.28-.12.453-.078.582-.004.101.059.215.196.418.282.207.086.398.129.695-.004.297-.13.535-.48.621-.89.09-.407.445-.704.746-.61.3.09.477.664.356 1.199s-.375.77-.766.887c-.39.117-1.41.328-2.078.441m3.496-2.821c.059.137-.05.316-.246.402-.195.086-.403.043-.461-.09-.063-.136.05-.316.246-.402.195-.086.402-.043.46.09m-.035.597c.039.094-.02.211-.137.262s-.242.016-.285-.078c-.04-.094.02-.21.137-.262.117-.05.242-.015.285.078m-.043.461c.027.09-.04.184-.14.215-.106.028-.208-.023-.235-.113-.024-.09.039-.184.144-.215.102-.027.207.024.23.113m-.11.418c.036.078-.007.172-.097.211s-.188.008-.223-.07c-.035-.082.008-.176.098-.215s.187-.008.222.074m-.183.403a.146.146 0 0 1-.078.191.143.143 0 0 1-.192-.07.14.14 0 0 1 .075-.192.15.15 0 0 1 .195.07m-2.942-7.758c-.214.336-.304.726-.03 1.012.269.285.792.226 1.01.015.224-.21.247-.386.227-.539-.011-.113-.097-.27-.097-.492.004-.223.035-.414.27-.64.234-.223.648-.31 1.062-.231.41.078.82-.14.851-.453s-.43-.696-.972-.79c-.54-.093-.852.051-1.114.368-.257.312-.843 1.176-1.207 1.75m3.95-2.145c-.102-.105-.313-.074-.465.075-.156.144-.196.351-.094.46.102.106.309.075.465-.074.152-.148.195-.355.094-.46m-.563-.199c-.074-.074-.203-.062-.297.028-.09.085-.11.218-.039.292.074.075.203.063.297-.027.09-.086.11-.219.04-.293m-.441-.137c-.074-.058-.188-.035-.254.047-.067.086-.063.2.012.258.074.059.187.035.253-.047.067-.086.063-.203-.011-.258m-.43-.058c-.059-.063-.164-.059-.234.008-.07.066-.078.172-.02.234.059.063.164.059.235-.008.07-.066.078-.172.02-.234m-.445.015a.144.144 0 0 0-.207-.003.147.147 0 0 0-.004.207.143.143 0 0 0 .203 0 .14.14 0 0 0 .008-.204m6.035 5.7c-.395.066-.793-.004-.95-.364-.16-.359.098-.816.376-.941.28-.121.453-.074.582 0 .101.055.215.195.418.277.207.086.398.13.695 0 .297-.132.535-.48.621-.89.09-.41.45-.703.746-.614.301.09.477.664.356 1.2s-.375.77-.766.886c-.39.118-1.41.328-2.078.446m3.496-2.82c.059.132-.05.312-.246.398-.195.086-.402.047-.461-.09s.05-.316.246-.402c.195-.082.402-.043.461.093m-.035.593c.043.094-.02.211-.137.262-.117.05-.242.015-.285-.078-.04-.094.02-.211.137-.262.117-.05.242-.016.285.078m-.043.461c.027.09-.04.188-.14.215-.106.027-.208-.02-.235-.11-.024-.09.039-.187.144-.214.102-.032.207.02.23.11m-.11.418c.036.078-.007.176-.097.215-.09.035-.188.004-.223-.074s.008-.176.098-.215.187-.004.222.074m-.183.406c.031.07-.004.157-.078.192a.145.145 0 0 1-.192-.075.145.145 0 0 1 .075-.19c.074-.032.164 0 .195.073m-2.942-7.761c-.214.336-.304.73-.03 1.011.269.285.792.227 1.011.016.223-.211.246-.387.227-.535-.012-.114-.098-.274-.098-.496.004-.22.035-.414.27-.637.234-.223.648-.309 1.062-.234.41.078.82-.141.851-.454.032-.308-.43-.695-.972-.789-.54-.093-.852.055-1.113.368-.258.316-.844 1.175-1.207 1.75m3.95-2.145c-.102-.105-.313-.074-.465.074-.156.149-.195.352-.094.461.102.106.309.074.465-.074.152-.148.195-.352.094-.461m-.563-.195c-.074-.075-.203-.063-.297.023-.09.086-.109.219-.035.293.07.074.2.063.293-.023.09-.09.11-.22.04-.293m-.441-.14c-.074-.06-.188-.036-.254.05-.067.082-.063.2.012.258.074.054.187.035.254-.051.066-.086.062-.2-.012-.258m-.43-.06c-.058-.062-.164-.058-.234.008-.07.067-.078.172-.02.235.059.062.164.058.235-.008.07-.067.078-.172.02-.234m-.445.016a.147.147 0 0 0-.207-.004.147.147 0 0 0-.004.207c.055.059.144.059.207.004a.147.147 0 0 0 .004-.207m6.035 5.7c-.395.066-.793 0-.95-.36-.16-.36.098-.82.376-.941.281-.125.453-.079.582-.004.101.058.215.195.418.28.207.083.398.126.695-.003s.535-.48.621-.89c.09-.41.45-.704.746-.614.301.09.477.664.356 1.203-.121.535-.375.766-.766.887-.39.117-1.41.328-2.078.441m3.496-2.821c.059.137-.05.316-.246.398-.195.086-.402.047-.461-.09-.059-.132.05-.312.246-.398.195-.086.402-.047.461.09m-.035.598c.043.093-.02.21-.137.261-.113.051-.242.016-.285-.078-.039-.093.02-.21.137-.261s.242-.016.285.078m-.04.457c.024.09-.038.187-.144.215-.105.03-.207-.02-.234-.11-.023-.09.039-.187.144-.215.102-.027.207.02.235.11m-.112.418c.035.078-.008.175-.098.215-.09.039-.188.007-.223-.075-.035-.078.008-.172.098-.21.09-.04.187-.008.223.07m-.184.406a.146.146 0 0 1-.078.191.145.145 0 0 1-.192-.074.147.147 0 0 1 .075-.191c.078-.032.164 0 .195.074m-2.941-7.762c-.215.336-.305.73-.032 1.016.27.281.793.222 1.012.012.223-.211.246-.383.227-.536-.012-.113-.098-.27-.098-.492.004-.222.035-.418.27-.64.234-.223.648-.309 1.062-.23.41.073.82-.145.852-.454.03-.312-.43-.695-.97-.79-.542-.097-.855.052-1.116.364-.258.317-.844 1.18-1.207 1.75m3.949-2.14c-.102-.11-.313-.075-.465.07-.152.148-.195.355-.094.46.102.11.309.075.465-.073.152-.145.195-.352.094-.457m-.563-.2c-.074-.074-.203-.062-.297.024-.09.09-.109.219-.035.293.07.074.2.062.293-.024.09-.09.11-.218.04-.293m-.441-.14c-.074-.055-.188-.035-.254.05s-.063.2.012.258c.074.059.187.035.254-.05.066-.082.062-.2-.012-.258m-.43-.059c-.058-.062-.164-.058-.234.012-.07.066-.078.172-.02.23.063.063.164.059.235-.007.07-.067.078-.172.02-.235m-.445.016a.147.147 0 0 0-.207-.004.147.147 0 0 0-.004.207c.055.059.144.059.207.004a.147.147 0 0 0 .004-.207M84.582 41c-.394.07-.793 0-.95-.36-.155-.359.098-.82.376-.94.281-.122.453-.079.582-.005.101.059.215.196.418.282.207.082.398.128.695-.004.297-.13.535-.48.621-.891.09-.41.45-.703.746-.613.301.093.477.668.356 1.203s-.375.77-.766.887c-.39.117-1.41.328-2.078.441m3.496-2.82c.059.136-.05.316-.246.402-.195.086-.402.043-.46-.09-.06-.137.05-.316.245-.402s.403-.043.461.09m-.035.597c.043.094-.02.211-.137.262-.113.05-.242.016-.285-.078-.039-.094.02-.211.137-.262.117-.05.246-.015.285.078m-.04.461c.024.09-.038.184-.144.215-.105.027-.207-.023-.234-.113-.023-.09.04-.184.145-.215.101-.027.207.023.234.113m-.112.418c.035.078-.008.172-.098.211s-.188.008-.223-.07c-.035-.082.008-.176.098-.215s.187-.008.223.074m-.184.403a.146.146 0 0 1-.078.191.143.143 0 0 1-.192-.07.145.145 0 0 1 .075-.192.146.146 0 0 1 .195.07m-2.941-7.762c-.215.34-.305.73-.032 1.016.27.285.793.226 1.012.015.223-.21.246-.387.227-.539-.012-.113-.098-.27-.098-.492.004-.223.035-.414.27-.64.234-.223.648-.31 1.062-.231.41.078.82-.14.852-.453.03-.313-.43-.696-.97-.79-.542-.093-.855.051-1.116.368-.258.312-.844 1.176-1.207 1.746m3.949-2.14c-.102-.106-.313-.075-.465.073-.152.145-.195.352-.094.457.102.11.309.079.465-.07.152-.148.195-.355.094-.46m-.563-.2c-.074-.074-.203-.062-.297.027-.09.086-.109.22-.035.293.07.07.2.063.293-.027.09-.086.11-.219.04-.293m-.441-.137c-.074-.058-.188-.035-.254.047-.066.086-.062.2.012.258.074.059.187.035.254-.047.066-.086.062-.203-.012-.258m-.43-.058c-.058-.063-.164-.059-.234.008-.07.066-.078.171-.02.234.063.062.164.058.235-.008.07-.07.082-.172.02-.234m-.445.015a.144.144 0 0 0-.207-.004.147.147 0 0 0-.004.207.147.147 0 0 0 .207 0 .143.143 0 0 0 .004-.203m5.137.993c-.114.382-.352.707-.743.69-.394-.019-.69-.448-.675-.753.011-.309.129-.441.254-.523.093-.067.27-.106.437-.254a.78.78 0 0 0 .305-.621c.015-.325-.196-.692-.524-.954-.328-.257-.433-.71-.218-.94.214-.227.808-.13 1.234.214s.523.68.453 1.082c-.066.402-.328 1.41-.523 2.059m-.977-4.383c.149.004.258.183.25.398-.012.211-.137.38-.285.371-.148-.008-.262-.183-.25-.398.008-.211.137-.38.285-.371m.52.293c.101.004.18.113.171.238-.003.129-.093.227-.195.223-.101-.008-.18-.114-.172-.239.004-.129.09-.226.196-.222m.394.242c.09.015.149.117.13.223-.02.105-.114.175-.204.16-.094-.02-.152-.117-.129-.223.02-.105.11-.18.203-.16m.324.285c.086.004.153.082.149.18s-.078.172-.164.168-.153-.086-.149-.18c.004-.098.078-.172.164-.168m.282.344a.147.147 0 0 1-.016.293.145.145 0 0 1-.137-.153.145.145 0 0 1 .153-.14m-8.73.207c.284.281.651.449.984.242.335-.207.386-.73.226-.988-.16-.262-.328-.32-.476-.332-.114-.012-.286.039-.504-.008-.22-.05-.399-.121-.57-.399-.169-.273-.165-.699-.005-1.085.16-.387.032-.833-.265-.93-.297-.094-.77.277-.977.789-.203.508-.125.848.13 1.164.253.32.972 1.074 1.456 1.547m-1.274-4.309c-.125.078-.137.29-.024.469.11.184.305.266.43.187.125-.078.137-.285.027-.468-.113-.18-.308-.266-.433-.188m-.309.512c-.09.05-.105.184-.039.293.066.105.191.148.277.098.09-.055.106-.188.04-.293-.067-.11-.192-.153-.278-.098m-.23.402c-.07.059-.075.172-.004.258.07.082.183.098.254.04.074-.06.074-.177.007-.259-.07-.082-.183-.101-.257-.039m-.145.403c-.074.047-.094.152-.039.234.05.082.148.113.223.066.074-.046.09-.148.039-.23s-.149-.113-.223-.07m-.078.441a.14.14 0 0 0-.047.2c.043.07.133.093.203.05a.15.15 0 0 0 .043-.203.146.146 0 0 0-.199-.047m5.906-5.125c.07.395.004.79-.351.95-.36.163-.82-.09-.946-.368-.125-.277-.082-.45-.007-.582.054-.102.195-.215.277-.422s.125-.398-.008-.691c-.133-.297-.484-.532-.894-.617-.415-.082-.707-.442-.622-.743.09-.3.66-.48 1.2-.363.535.117.77.371.89.762.121.387.34 1.406.461 2.074m-2.847-3.477c.132-.058.312.051.402.247.086.191.047.398-.086.46-.137.06-.316-.046-.402-.242-.09-.195-.051-.402.086-.465m.593.032c.094-.043.215.02.266.133.05.117.02.246-.074.285-.094.043-.211-.016-.266-.133-.05-.117-.016-.242.074-.285m.461.039c.09-.028.188.035.219.14.027.102-.02.207-.11.235-.09.023-.187-.04-.218-.145-.027-.101.02-.207.11-.23m.418.105c.082-.035.176.008.215.098.04.086.008.187-.07.223-.078.035-.172-.008-.215-.098-.04-.086-.008-.188.07-.223m.41.184c.07-.035.157 0 .192.074.031.074 0 .16-.074.191-.07.036-.157 0-.192-.074a.145.145 0 0 1 .074-.191M78.95 20.78c.371.149.774.16 1-.16.23-.316.074-.82-.176-.996-.246-.18-.421-.168-.566-.121-.11.035-.25.144-.469.187-.218.04-.414.043-.675-.144-.266-.188-.426-.582-.43-1 0-.418-.293-.781-.602-.754-.312.027-.605.555-.597 1.102.011.55.214.832.57 1.027.355.195 1.312.61 1.945.86m-2.844-3.476c-.085.117-.015.316.157.441.175.125.386.125.472.008.086-.121.012-.32-.16-.445-.172-.122-.383-.125-.469-.004m-.09.59c-.058.082-.023.21.079.285.105.07.234.066.297-.02.058-.082.023-.21-.082-.285-.102-.07-.235-.062-.293.02m-.054.457c-.043.085 0 .191.098.242.093.047.207.02.25-.063.043-.082 0-.191-.098-.238-.094-.05-.207-.023-.25.059m.023.433c-.05.07-.027.172.051.227.078.058.184.047.235-.024.05-.07.027-.172-.051-.23-.082-.055-.184-.043-.235.027m.098.434a.145.145 0 0 0 .035.203.15.15 0 0 0 .203-.031.145.145 0 0 0-.035-.203.144.144 0 0 0-.203.03m3.781-7.028c.196.348.262.746-.027 1.016-.285.266-.805.18-1.012-.047-.21-.223-.222-.398-.195-.547.02-.113.113-.265.125-.488s-.012-.418-.23-.652c-.223-.239-.633-.348-1.047-.293-.418.05-.813-.188-.829-.504-.011-.313.473-.668 1.016-.73.547-.063.852.1 1.094.429.238.328.777 1.223 1.105 1.816m-3.82-2.367c.11-.101.316-.054.46.102.145.152.177.363.067.465-.11.097-.312.054-.457-.102-.148-.156-.175-.363-.07-.465m.574-.164c.074-.07.207-.05.293.04.086.093.098.226.02.296-.075.07-.203.05-.29-.043-.09-.094-.097-.223-.023-.293m.45-.113c.078-.055.187-.027.25.062.062.09.046.204-.028.258-.078.051-.191.024-.25-.066-.062-.086-.05-.203.027-.254m.43-.035c.062-.059.167-.047.233.023.067.07.067.176.004.235-.062.058-.168.046-.23-.024-.067-.07-.07-.176-.008-.234m.444.039a.147.147 0 0 1 .204.011.144.144 0 0 1-.004.208c-.059.054-.149.05-.207-.012a.147.147 0 0 1 .007-.207m-6.183 5.887c.398.042.789-.055.922-.422.132-.371-.153-.813-.438-.914-.289-.106-.457-.047-.582.035-.097.066-.2.21-.398.308-.2.098-.387.157-.692.043-.304-.11-.566-.441-.683-.843-.114-.403-.492-.672-.785-.563-.293.113-.43.7-.274 1.223.156.527.43.742.828.832.395.093 1.43.234 2.102.3m-3.68-2.575c-.05.137.074.309.274.383.199.07.402.016.453-.121.05-.14-.07-.312-.274-.383-.199-.074-.402-.02-.453.121m.074.59c-.035.098.035.211.157.254.117.043.242 0 .277-.098.035-.093-.035-.207-.152-.25-.121-.043-.246 0-.282.094m.075.457c-.02.094.05.184.156.207.105.02.207-.035.226-.129.016-.09-.054-.183-.16-.203-.105-.023-.203.035-.222.125m.136.41c-.027.082.024.172.114.207.09.032.187-.007.218-.09.028-.078-.023-.171-.113-.203-.09-.035-.187.004-.219.086m.215.39a.148.148 0 0 0 .277.102.153.153 0 0 0-.09-.187c-.078-.027-.163.012-.187.086m1.914-7.839c.27.293.426.664.207.992-.215.328-.738.36-.992.192-.258-.168-.309-.336-.32-.489-.004-.113.05-.285.011-.503-.043-.22-.109-.403-.378-.583-.27-.175-.692-.187-1.086-.039-.391.149-.832.004-.918-.296-.086-.301.3-.762.816-.95s.852-.097 1.16.164c.313.266 1.043 1.012 1.5 1.512m-4.265-1.414c.082-.125.293-.129.468-.012.18.117.258.313.176.438-.082.12-.293.129-.469.008-.18-.118-.257-.313-.175-.434m.52-.297c.058-.082.187-.098.292-.027.106.07.148.199.09.281-.055.086-.188.098-.293.027-.106-.07-.145-.195-.09-.28m.41-.215c.062-.066.179-.066.257.004.082.074.094.188.031.258-.062.07-.175.066-.257-.004-.079-.07-.094-.187-.032-.258m.41-.133c.046-.07.152-.085.234-.03.078.054.105.155.058.226-.046.07-.152.086-.23.035-.082-.055-.11-.156-.063-.23m.44-.062c.044-.066.138-.082.204-.04a.15.15 0 0 1 .043.204c-.043.066-.137.082-.203.04a.15.15 0 0 1-.043-.204m-4.714 7.055c.398-.043.762-.215.816-.606.055-.386-.316-.761-.617-.804-.304-.043-.453.046-.562.156-.078.082-.149.246-.325.383-.175.136-.347.23-.667.183-.325-.043-.649-.316-.844-.687-.196-.371-.617-.555-.883-.387s-.277.77-.016 1.25c.258.484.57.64.977.648.406.008 1.45-.066 2.121-.136m-4.129-1.77c-.02.149.133.29.344.32.21.028.402-.066.422-.21.02-.149-.137-.293-.348-.32-.21-.032-.398.066-.418.21m.195.567c-.015.101.075.195.2.214.129.016.242-.05.254-.152.015-.101-.075-.2-.2-.215-.129-.02-.242.051-.254.153m.164.43c0 .093.086.167.196.167.105 0 .195-.074.195-.168-.004-.094-.09-.172-.2-.168-.105 0-.19.075-.19.168m.22.37c-.013.086.054.168.152.18.097.016.183-.043.195-.129s-.055-.164-.153-.18c-.097-.011-.183.047-.195.13m.288.34a.143.143 0 0 0 .125.164.14.14 0 0 0 .164-.12.145.145 0 0 0-.125-.165.145.145 0 0 0-.164.121m.348-8.11c.32.243.543.575.39.938-.152.364-.66.492-.94.375-.282-.117-.368-.273-.403-.422-.028-.109-.004-.289-.086-.496a.77.77 0 0 0-.477-.5c-.3-.125-.718-.058-1.074.16-.36.22-.82.16-.96-.12-.142-.278.155-.801.628-1.083.473-.28.816-.257 1.172-.054.351.203 1.207.797 1.75 1.203m-4.453-.597c.058-.137.265-.18.46-.098.196.086.31.262.255.399-.059.137-.266.18-.461.098-.196-.082-.309-.262-.254-.399m.457-.383c.039-.093.168-.132.285-.082.117.047.18.164.14.258-.042.094-.167.133-.285.082-.117-.047-.18-.164-.14-.258m.363-.289c.047-.078.164-.097.254-.043.094.055.129.164.078.246-.047.079-.16.098-.254.043-.09-.054-.125-.164-.078-.246m.379-.207c.035-.078.133-.113.223-.074s.132.133.101.211c-.035.082-.133.113-.222.078-.09-.039-.133-.133-.102-.215m.422-.144a.145.145 0 0 1 .191-.075c.075.032.11.118.078.192-.027.07-.113.105-.191.074a.146.146 0 0 1-.078-.191m-3.363 7.761c.382-.109.71-.343.699-.738-.016-.39-.442-.695-.746-.683-.309.007-.442.125-.528.25-.066.093-.105.265-.257.43-.149.167-.301.288-.625.3-.325.012-.692-.203-.946-.535-.258-.332-.707-.442-.937-.23-.235.21-.145.804.199 1.238.34.43.672.527 1.074.468.403-.062 1.414-.316 2.067-.5m-4.375-1.03c.007.148.183.26.394.253.215-.008.383-.133.379-.281s-.184-.262-.395-.254c-.214.008-.382.133-.378.281m.289.523c.004.101.109.18.238.175.125-.004.227-.09.223-.191-.004-.105-.11-.184-.239-.18-.125.004-.226.09-.222.196m.238.394c.016.094.113.152.219.133.11-.02.18-.11.164-.2-.016-.093-.117-.152-.223-.132-.105.02-.18.11-.16.2m.277.328c.004.086.086.157.184.153.094-.004.172-.079.168-.164s-.082-.153-.18-.149-.172.074-.172.16m.344.285c.004.082.07.145.152.141a.144.144 0 0 0 .141-.148.143.143 0 0 0-.152-.141c-.078.004-.145.07-.141.148M49.941 2.2c.356.184.63.48.54.86-.09.382-.57.597-.872.523-.297-.07-.402-.21-.464-.348-.043-.105-.051-.285-.165-.476-.113-.192-.238-.344-.55-.418-.317-.074-.72.058-1.035.332-.317.277-.782.293-.965.039-.184-.254.023-.816.441-1.172.418-.351.766-.383 1.149-.242.378.14 1.32.59 1.921.902m-4.488.137c.035-.145.23-.223.438-.172.207.05.347.207.312.352-.035.144-.23.218-.437.168-.207-.047-.348-.207-.313-.348m.387-.457c.023-.098.144-.156.265-.125.125.027.204.133.18.234-.023.098-.14.157-.265.125-.125-.027-.204-.133-.18-.234m.312-.34c.032-.086.141-.125.243-.086.101.04.152.14.117.23-.035.087-.145.126-.242.087-.102-.043-.153-.145-.118-.23m.34-.266c.02-.085.113-.132.207-.113.094.024.153.11.133.195-.02.083-.113.133-.207.11s-.152-.11-.133-.192m.39-.21a.15.15 0 0 1 .177-.11c.082.02.129.098.109.176-.016.078-.098.125-.176.105a.14.14 0 0 1-.11-.171M44.81 9.246c.363-.168.648-.45.574-.836-.074-.387-.543-.62-.844-.562s-.414.191-.48.328c-.051.105-.063.281-.188.469-.121.187-.254.332-.57.39-.317.063-.715-.09-1.02-.379-.304-.285-.765-.324-.96-.078-.196.242-.012.817.39 1.188.402.375.746.422 1.133.297.39-.126 1.347-.532 1.965-.817m-4.48-.336c.026.145.218.23.429.192.21-.043.355-.192.328-.34-.027-.145-.219-.23-.43-.188-.21.04-.355.192-.328.336m.366.473c.02.097.137.16.262.137.121-.024.207-.125.188-.227-.02-.098-.137-.16-.258-.137-.125.024-.211.125-.192.227m.293.355c.032.086.14.13.242.094.102-.035.16-.137.13-.223-.032-.09-.141-.132-.243-.097-.101.035-.156.136-.129.226m.328.278c.02.086.11.14.204.12.093-.019.16-.1.144-.187-.02-.082-.11-.136-.203-.117-.094.016-.16.102-.145.184m.383.23a.146.146 0 0 0 .172.113.14.14 0 0 0 .117-.168.145.145 0 0 0-.172-.117.15.15 0 0 0-.117.172m-2.258-7.824c.38.125.696.375.664.765-.03.391-.472.676-.777.653-.305-.027-.433-.149-.512-.274-.062-.097-.097-.273-.238-.445s-.289-.3-.61-.328c-.323-.023-.698.168-.972.488-.27.32-.726.41-.945.188-.223-.223-.106-.813.254-1.227s.699-.496 1.097-.418c.399.082 1.399.38 2.04.598m-4.414.824c.012-.144.192-.25.407-.234.21.015.375.148.363.297-.012.148-.195.253-.406.238-.215-.02-.375-.152-.364-.3m.313-.508c.008-.101.117-.175.242-.164.129.008.223.098.215.203-.008.102-.117.176-.242.164-.13-.007-.223-.101-.215-.203m.254-.386c.02-.09.12-.145.226-.122.106.024.172.118.153.211-.02.09-.121.145-.227.122-.105-.024-.172-.118-.152-.211m.293-.313c.008-.086.093-.152.187-.144.098.007.172.085.164.171s-.09.149-.187.141c-.098-.008-.168-.082-.164-.168m.355-.27a.146.146 0 0 1 .16-.132c.082.008.141.074.137.156a.15.15 0 0 1-.16.133.15.15 0 0 1-.137-.156m-.773 8.415c.332-.223.57-.547.437-.918-.136-.368-.636-.524-.926-.418-.285.101-.378.254-.421.398-.032.11-.016.29-.11.492-.09.203-.195.367-.5.477-.304.113-.719.023-1.066-.211-.348-.238-.809-.2-.961.07-.156.274.113.813.57 1.114.457.304.805.296 1.168.113.363-.184 1.246-.739 1.809-1.117m-4.477.379c.051.136.254.19.457.117.2-.07.32-.242.27-.383-.051-.14-.254-.192-.457-.117-.2.07-.32.242-.27.383m.438.406c.035.097.16.14.277.094.121-.043.188-.157.152-.25-.035-.098-.16-.141-.277-.098-.121.043-.187.156-.152.254m.347.304c.043.082.157.11.254.055.094-.05.133-.156.09-.238s-.156-.11-.254-.059c-.094.051-.133.16-.09.242m.368.227c.03.078.128.117.218.086.094-.035.14-.129.114-.207-.032-.082-.13-.121-.22-.086-.089.031-.14.125-.112.207m.414.164a.15.15 0 0 0 .187.086c.078-.031.117-.113.09-.187a.146.146 0 0 0-.188-.086.15.15 0 0 0-.09.187M29.066 4.32c.395.063.75.258.786.649.03.39-.356.746-.66.77-.305.027-.454-.071-.551-.184-.078-.086-.141-.254-.309-.399-.168-.144-.336-.25-.656-.222-.324.03-.66.285-.875.644s-.649.524-.906.344c-.254-.184-.235-.785.05-1.254s.606-.606 1.012-.594c.406.016 1.441.14 2.11.246m-4.214 1.551c-.016-.148.148-.281.359-.3.215-.016.394.085.41.234.012.148-.148.28-.363.3-.211.02-.395-.085-.406-.234m.222-.555c-.008-.101.086-.191.211-.203.13-.011.238.063.246.164s-.086.196-.21.207c-.13.008-.239-.062-.247-.168m.188-.421c.004-.094.097-.165.203-.157.11.004.191.086.183.18-.003.094-.093.164-.203.156-.105-.004-.191-.086-.183-.18m.238-.36c-.008-.086.063-.16.16-.172.098-.008.184.055.188.14.007.087-.063.165-.16.173-.098.008-.18-.055-.188-.14m.305-.324a.147.147 0 0 1 .133-.156.145.145 0 1 1 .027.289.15.15 0 0 1-.16-.133m.683 8.441c.285-.28.461-.64.266-.98-.2-.34-.719-.402-.984-.25-.262.152-.329.32-.344.469-.012.113.031.289-.02.504-.054.214-.133.394-.41.558-.281.164-.703.152-1.086-.02s-.832-.054-.937.243c-.102.297.261.777.761.992.504.219.848.148 1.172-.098s1.094-.945 1.582-1.418m-4.34 1.164c.075.13.286.145.47.04.183-.11.273-.297.198-.426-.074-.13-.285-.145-.468-.04-.184.11-.274.301-.2.426m.5.325c.055.09.184.109.293.046.11-.066.157-.187.106-.277-.05-.09-.184-.11-.293-.043-.11.063-.156.188-.106.274m.399.238c.058.074.172.078.258.012.086-.067.105-.18.047-.254-.059-.075-.176-.078-.258-.012-.086.066-.106.18-.047.254m.402.156c.043.074.145.094.23.047.083-.05.118-.148.075-.223a.167.167 0 0 0-.23-.046c-.087.046-.118.148-.075.222m.438.09c.039.066.129.09.199.05a.15.15 0 0 0 .055-.198.14.14 0 0 0-.2-.051.143.143 0 0 0-.054.199m-4.774-6.543c.399-.016.785.105.89.484.11.375-.202.797-.495.883s-.457.016-.578-.074c-.09-.07-.184-.223-.375-.332-.196-.113-.38-.18-.692-.09-.308.09-.593.402-.734.8-.14.395-.535.638-.82.509-.286-.13-.383-.723-.192-1.239.188-.511.477-.71.875-.777.403-.066 1.445-.14 2.121-.164m-3.84 2.332c-.039-.14.094-.305.297-.363.207-.059.407.008.446.152.043.14-.09.305-.297.363-.203.059-.403-.007-.446-.152m.114-.586c-.028-.098.047-.207.168-.242.125-.035.246.02.273.117.027.098-.047.207-.168.242-.12.035-.246-.02-.273-.117m.101-.45c-.011-.093.063-.179.172-.194.106-.016.203.05.215.14.012.094-.062.18-.172.196-.105.015-.203-.047-.215-.141m.164-.398c-.023-.082.036-.171.125-.199.094-.027.188.02.215.102.024.082-.035.172-.125.199-.094.027-.191-.02-.215-.102m.239-.378c-.024-.075.023-.157.101-.18a.144.144 0 1 1 .078.277.14.14 0 0 1-.18-.097m2.398 8.16c.219-.336.316-.727.047-1.016-.266-.289-.79-.238-1.012-.031-.226.207-.25.383-.234.531.012.117.094.274.086.496-.004.223-.04.414-.278.637-.238.219-.656.297-1.066.21-.41-.081-.824.13-.86.442-.038.309.419.7.958.805s.855-.04 1.12-.348c.262-.308.864-1.16 1.24-1.726m-3.984 2.074c.097.11.308.078.465-.066.156-.145.203-.352.101-.457-.101-.11-.309-.083-.465.062s-.203.352-.101.46m.558.207c.07.074.2.066.293-.02.094-.085.114-.218.043-.293-.066-.074-.199-.066-.293.02s-.113.219-.043.293m.438.145c.074.058.187.039.254-.043.07-.082.066-.2-.008-.258-.074-.059-.188-.04-.254.043-.07.086-.063.199.008.258m.426.066c.058.062.164.062.234-.004.074-.066.082-.168.023-.234-.058-.063-.164-.059-.234.004-.07.066-.082.171-.023.234m.445-.008a.148.148 0 0 0 .219-.2.147.147 0 0 0-.207-.003.143.143 0 0 0-.012.203m-6.106-5.215c.383-.113.786-.094.985.246s0 .825-.266.98c-.262.153-.437.13-.578.071-.105-.047-.23-.172-.445-.23s-.41-.078-.688.086c-.281.16-.476.539-.515.953-.04.418-.364.754-.668.699-.309-.055-.551-.606-.496-1.152.058-.547.285-.809.66-.97.37-.163 1.363-.491 2.011-.683m-3.14 3.211c-.078-.129.011-.32.195-.43.184-.105.395-.09.469.036.074.129-.012.32-.2.43-.183.105-.39.09-.464-.036m-.04-.597c-.05-.09-.003-.211.106-.278.11-.062.242-.043.293.043.05.09.004.215-.105.277-.11.067-.239.047-.293-.042m-.011-.461c-.035-.09.016-.192.117-.23.098-.044.207-.005.242.081s-.015.192-.113.23c-.101.04-.21.005-.246-.081m.063-.43c-.047-.074-.012-.172.07-.223.086-.047.187-.027.23.047s.012.172-.07.223c-.086.05-.188.027-.23-.047m.136-.422a.14.14 0 0 1 .051-.2c.07-.042.16-.019.203.052a.15.15 0 0 1-.055.199.15.15 0 0 1-.199-.051m4.535 7.273c.114-.382.09-.785-.25-.984-.336-.195-.824.004-.976.266-.156.265-.13.437-.07.578.042.105.167.234.23.45.059.214.078.41-.086.687s-.539.476-.957.515c-.414.04-.75.36-.695.668.054.309.605.55 1.152.492.547-.054.809-.285.969-.656.164-.375.492-1.363.683-2.016M8.402 25.75c.125.078.317-.012.426-.195.106-.184.09-.395-.035-.47-.129-.073-.32.013-.43.2-.105.184-.09.39.04.465m.594.035c.09.055.215.008.277-.101s.043-.243-.043-.293c-.09-.051-.21-.004-.277.105-.062.11-.043.238.043.29m.465.016c.086.035.187-.02.23-.117.04-.102 0-.211-.086-.247-.085-.035-.187.02-.23.118-.04.101-.004.21.086.246m.426-.063c.074.043.175.012.222-.074a.167.167 0 0 0-.046-.23c-.075-.043-.172-.008-.223.074-.047.082-.027.187.047.23m.425-.136c.067.039.157.015.2-.055a.15.15 0 0 0-.051-.2.146.146 0 0 0-.2.055c-.042.07-.019.16.052.2m-7.34-2.934c.321-.238.704-.36 1.008-.11.305.247.29.774.098 1.008-.195.239-.367.278-.52.27-.113-.004-.277-.078-.495-.059-.223.02-.415.067-.618.32-.203.25-.257.673-.148 1.075.11.406-.074.832-.383.887-.309.058-.726-.375-.863-.907-.137-.53-.016-.855.277-1.14.293-.282 1.106-.934 1.645-1.344m-1.82 4.11c-.117-.094-.101-.305.036-.47.132-.167.335-.226.449-.132.117.094.101.304-.035.469-.133.168-.336.226-.45.132M.91 26.23c-.082-.066-.078-.195 0-.296.082-.098.211-.125.29-.059.077.063.077.195 0 .293-.083.098-.212.125-.29.062m-.176-.43c-.062-.066-.05-.183.032-.253.078-.074.195-.078.257-.008.063.066.051.184-.03.254-.079.074-.192.078-.259.008m-.09-.421c-.066-.055-.074-.156-.011-.234.062-.075.164-.09.23-.036.07.055.075.157.012.235-.062.074-.164.09-.23.035m-.023-.445a.143.143 0 0 1-.016-.204.144.144 0 0 1 .204-.023c.062.05.07.14.02.203a.145.145 0 0 1-.208.024m7.059 5.062c-.055-.394-.242-.754-.633-.793-.39-.039-.75.344-.781.649-.032.304.066.453.175.554.086.078.25.14.395.313.144.172.246.34.21.66-.03.324-.292.656-.655.867-.364.207-.532.64-.352.899.176.257.777.246 1.25-.032.473-.281.617-.597.61-1.004-.008-.406-.122-1.441-.22-2.113m-1.61 4.195c.149.012.285-.144.305-.359.023-.21-.078-.395-.227-.41-.148-.016-.285.144-.304.355-.024.215.078.399.226.414m.559-.218c.101.011.191-.082.207-.207.012-.13-.059-.239-.164-.25-.102-.008-.192.086-.207.21-.012.126.058.239.164.247m.422-.18c.094-.004.168-.094.164-.2-.008-.109-.086-.19-.18-.187s-.164.094-.16.2c.004.109.086.19.176.187m.363-.234c.086.011.164-.063.176-.157.008-.097-.055-.183-.137-.191-.086-.008-.164.062-.176.16-.007.094.055.18.137.188m.332-.301c.078.012.149-.051.156-.13a.15.15 0 0 0-.129-.163.147.147 0 0 0-.156.133.143.143 0 0 0 .13.16m0 0"/></svg>