<svg xmlns="http://www.w3.org/2000/svg" xmlns:xlink="http://www.w3.org/1999/xlink" width="144.657" height="73.064"><defs><path id="a" d="M4.5-4.297c0-.047-.031-.094-.094-.094-.11 0-.515.391-.672.688-.218-.547-.609-.703-.937-.703-1.172 0-2.39 1.468-2.39 2.922C.406-.516.983.109 1.718.109c.422 0 .812-.234 1.172-.593-.094.343-.422 1.687-.453 1.78-.079.282-.157.313-.72.329-.124 0-.218 0-.218.203 0 0 0 .11.125.11.313 0 .672-.032 1-.032s.688.032 1.031.032c.047 0 .172 0 .172-.204 0-.109-.094-.109-.265-.109-.47 0-.47-.062-.47-.156 0-.078.016-.14.032-.219ZM1.75-.109c-.61 0-.64-.766-.64-.938 0-.484.28-1.562.452-1.984.313-.735.829-1.156 1.235-1.156.656 0 .797.812.797.875s-.547 2.25-.578 2.28c-.157.282-.72.923-1.266.923m0 0"/><path id="b" d="M3.594-2.219c0-.765-.094-1.328-.406-1.812-.22-.313-.657-.594-1.204-.594C.36-4.625.36-2.719.36-2.219s0 2.36 1.625 2.36c1.61 0 1.61-1.86 1.61-2.36M1.984-.062c-.328 0-.75-.188-.89-.75C1-1.22 1-1.797 1-2.312c0-.516 0-1.047.094-1.422.156-.547.593-.703.89-.703.375 0 .735.234.86.64.11.375.125.875.125 1.485 0 .515 0 1.03-.094 1.468-.14.64-.61.782-.89.782m0 0"/><path id="c" d="M2.328-4.437c0-.188 0-.188-.203-.188-.453.438-1.078.438-1.36.438v.25c.157 0 .626 0 1-.188v3.547c0 .234 0 .328-.687.328H.812V0c.125 0 .985-.031 1.235-.031.219 0 1.094.031 1.25.031v-.25H3.03c-.703 0-.703-.094-.703-.328Zm0 0"/><path id="f" d="M3.516-1.266H3.28c-.015.157-.094.563-.187.625-.047.047-.578.047-.688.047H1.125c.734-.64.984-.843 1.39-1.172.516-.406 1-.843 1-1.5 0-.843-.734-1.359-1.624-1.359-.86 0-1.453.61-1.453 1.25 0 .344.296.39.375.39.156 0 .359-.124.359-.374 0-.125-.047-.375-.406-.375.218-.485.687-.641 1.015-.641.703 0 1.063.547 1.063 1.11 0 .609-.438 1.078-.656 1.328L.516-.266C.437-.203.437-.187.437 0h2.876Zm0 0"/><path id="g" d="M5.281-3.187c0-.954-.015-3.344-2.422-3.344S.453-4.156.453-3.188c0 1 0 3.297 2.406 3.297 2.391 0 2.422-2.296 2.422-3.296M4-3.297c0 .563 0 1.469-.078 1.985-.14.921-.766 1.062-1.063 1.062-.359 0-.921-.219-1.046-.953-.094-.516-.094-1.547-.094-2.094 0-.719 0-1.375.078-1.89.125-.891.828-.985 1.062-.985.375 0 .782.188.97.625C4-5.172 4-4.109 4-3.297m0 0"/><path id="h" d="M4.922 0v-.469h-1.39v-5.734c0-.234 0-.328-.266-.328-.11 0-.125 0-.22.078-.765.562-1.796.562-2 .562H.845v.47h.203c.156 0 .703-.016 1.297-.204v5.156H.954V0c.437-.031 1.5-.031 1.984-.031s1.546 0 1.984.031m0 0"/><clipPath id="d"><path d="M94 7h50.484v65.598H94Zm0 0"/></clipPath><clipPath id="e"><path d="M105 18h39.484v46H105Zm0 0"/></clipPath></defs><path fill="none" stroke="red" stroke-miterlimit="10" stroke-width=".399" d="M29.39 41.281c0-7.828-6.343-14.176-14.171-14.176S1.047 33.453 1.047 41.281 7.39 55.453 15.219 55.453 29.39 49.11 29.39 41.281Zm0 0"/><use xlink:href="#a" x="10.761" y="42.457"/><use xlink:href="#b" x="15.207" y="43.951"/><path fill="none" stroke="#000" stroke-miterlimit="10" stroke-width=".399" d="M86.086 41.281c0-7.828-6.348-14.176-14.172-14.176-7.828 0-14.176 6.348-14.176 14.176s6.348 14.172 14.176 14.172c7.824 0 14.172-6.344 14.172-14.172Zm0 0"/><use xlink:href="#a" x="67.454" y="42.457"/><use xlink:href="#c" x="71.9" y="43.951"/><g clip-path="url(#d)"><path fill="none" stroke="#000" stroke-miterlimit="10" stroke-width="1.395" d="M142.777 41.281c0-7.828-6.343-14.176-14.172-14.176-7.828 0-14.171 6.348-14.171 14.176s6.343 14.172 14.171 14.172c7.829 0 14.172-6.344 14.172-14.172Zm0 0"/></g><g clip-path="url(#e)"><path fill="none" stroke="#FFF" stroke-miterlimit="10" stroke-width=".598" d="M142.777 41.281c0-7.828-6.343-14.176-14.172-14.176-7.828 0-14.171 6.348-14.171 14.176s6.343 14.172 14.171 14.172c7.829 0 14.172-6.344 14.172-14.172Zm0 0"/></g><use xlink:href="#a" x="124.147" y="42.457"/><use xlink:href="#f" x="128.594" y="43.951"/><path fill="none" stroke="#000" stroke-miterlimit="10" stroke-width=".399" d="M29.59 41.281h26.555"/><path fill="none" stroke="#000" stroke-linecap="round" stroke-linejoin="round" stroke-miterlimit="10" stroke-width=".399" d="M54.273 38.89c.375 1.434 1.22 2.11 2.07 2.391-.85.278-1.695.957-2.07 2.39"/><use xlink:href="#g" x="40.702" y="37.651"/><path fill="none" stroke="#000" stroke-miterlimit="10" stroke-width=".399" d="M11.5 27.398C5.617 5.441 24.152 4.992 19.277 26.04"/><path fill="none" stroke="#000" stroke-linecap="round" stroke-linejoin="round" stroke-miterlimit="10" stroke-width=".39898404" d="M22.043 24.793c-1.484.031-2.34.691-2.813 1.45-.07-.891-.53-1.872-1.835-2.579"/><use xlink:href="#h" x="12.354" y="7.066"/><path fill="none" stroke="#000" stroke-miterlimit="10" stroke-width=".399" d="M27.664 34.094c29.367-17.02 57.633-17.297 87.027-.836"/><path fill="none" stroke="#000" stroke-linecap="round" stroke-linejoin="round" stroke-miterlimit="10" stroke-width=".39898005000000003" d="M114.238 30.258c-.375 1.433.028 2.437.63 3.101-.876-.175-1.946 0-2.981 1.063"/><use xlink:href="#h" x="68.897" y="17.597"/><path fill="none" stroke="#000" stroke-miterlimit="10" stroke-width=".399" d="M27.664 48.465c29.367 17.023 57.633 17.3 87.027.836"/><path fill="none" stroke="#000" stroke-linecap="round" stroke-linejoin="round" stroke-miterlimit="10" stroke-width=".39898005000000003" d="M111.887 48.14c1.035 1.063 2.105 1.239 2.98 1.063-.601.66-1.004 1.664-.629 3.102"/><use xlink:href="#g" x="68.897" y="71.489"/><path fill="none" stroke="#000" stroke-miterlimit="10" stroke-width=".399" d="M86.285 41.281h26.254"/><path fill="none" stroke="#000" stroke-linecap="round" stroke-linejoin="round" stroke-miterlimit="10" stroke-width=".399" d="M110.668 38.89c.379 1.434 1.223 2.11 2.07 2.391-.847.278-1.691.957-2.07 2.39"/><use xlink:href="#h" x="97.245" y="37.761"/></svg>