<svg xmlns="http://www.w3.org/2000/svg" xmlns:xlink="http://www.w3.org/1999/xlink" width="297.075" height="14.222"><defs><path id="a" d="M2.328-4.437c0-.188 0-.188-.203-.188-.453.438-1.078.438-1.36.438v.25c.157 0 .626 0 1-.188v3.547c0 .234 0 .328-.687.328H.812V0c.125 0 .985-.031 1.235-.031.219 0 1.094.031 1.25.031v-.25H3.03c-.703 0-.703-.094-.703-.328Zm0 0"/><path id="b" d="M1.906-2.328c.547 0 .938.375.938 1.125 0 .86-.516 1.125-.906 1.125-.282 0-.907-.078-1.188-.5.328 0 .406-.235.406-.39 0-.22-.172-.376-.39-.376a.38.38 0 0 0-.391.407C.375-.281 1.094.14 1.938.14c.968 0 1.64-.657 1.64-1.344 0-.547-.437-1.094-1.203-1.25.719-.266.984-.781.984-1.219 0-.547-.625-.953-1.406-.953-.766 0-1.36.375-1.36.938 0 .234.157.359.36.359.219 0 .36-.156.36-.344 0-.203-.141-.36-.36-.375.25-.297.719-.375.985-.375.312 0 .75.156.75.75 0 .297-.094.625-.282.828-.219.266-.422.281-.765.313-.172.015-.188.015-.22.015-.015 0-.077.016-.077.094 0 .094.062.094.187.094Zm0 0"/><path id="c" d="M3.516-1.266H3.28c-.015.157-.094.563-.187.625-.047.047-.578.047-.688.047H1.125c.734-.64.984-.843 1.39-1.172.516-.406 1-.843 1-1.5 0-.843-.734-1.359-1.624-1.359-.86 0-1.453.61-1.453 1.25 0 .344.296.39.375.39.156 0 .359-.124.359-.374 0-.125-.047-.375-.406-.375.218-.485.687-.641 1.015-.641.703 0 1.063.547 1.063 1.11 0 .609-.438 1.078-.656 1.328L.516-.266C.437-.203.437-.187.437 0h2.876Zm0 0"/><path id="d" d="M1.047-2.281c0-.563.047-1.078.312-1.516.235-.375.61-.625 1.063-.625.203 0 .484.047.625.234-.172.016-.328.141-.328.344a.32.32 0 0 0 .328.328c.219 0 .344-.14.344-.343 0-.407-.297-.766-.985-.766-1 0-2.031.922-2.031 2.422C.375-.406 1.219.14 2 .14c.844 0 1.578-.657 1.578-1.563 0-.89-.703-1.547-1.515-1.547-.563 0-.86.375-1.016.688M2-.078c-.36 0-.625-.203-.781-.516-.094-.203-.157-.562-.157-.968 0-.688.407-1.204.97-1.204.312 0 .53.125.702.375.172.266.172.563.172.97 0 .39 0 .687-.187.968A.82.82 0 0 1 2-.078m0 0"/><path id="e" d="M3.734-4.203c.063-.094.063-.11.063-.281H1.969c-.282 0-.36-.016-.61-.032C1-4.546.984-4.594.97-4.703H.734L.484-3.22H.72c.015-.11.094-.562.203-.64.047-.032.625-.032.719-.032h1.515c-.219.282-.578.72-.719.922-.906 1.188-1 2.297-1 2.703 0 .079 0 .407.329.407.343 0 .343-.313.343-.407v-.28c0-1.345.282-1.97.579-2.345Zm0 0"/><path id="f" d="M1.078-3.89c.36.093.563.093.672.093.922 0 1.469-.625 1.469-.734 0-.078-.047-.094-.078-.094-.016 0-.032 0-.063.016-.172.062-.531.203-1.047.203-.203 0-.562-.016-1.015-.188-.079-.031-.094-.031-.094-.031-.094 0-.094.078-.094.188v2.046c0 .125 0 .204.11.204.062 0 .078 0 .14-.094.297-.375.734-.438.969-.438.422 0 .61.328.64.39.126.235.172.5.172.907 0 .203 0 .61-.218.922a.98.98 0 0 1-.813.422c-.453 0-.922-.25-1.094-.719.266.016.407-.156.407-.344 0-.296-.266-.343-.36-.343 0 0-.343 0-.343.375 0 .625.578 1.25 1.406 1.25.89 0 1.672-.657 1.672-1.547 0-.782-.594-1.5-1.453-1.5-.313 0-.672.062-.985.328Zm0 0"/><path id="h" d="M2.469-2.516c.547-.265.89-.593.89-1.078 0-.672-.703-1.031-1.375-1.031-.765 0-1.39.5-1.39 1.156 0 .328.156.563.281.703.125.157.172.188.578.422-.39.172-1.078.547-1.078 1.281 0 .766.797 1.204 1.594 1.204.89 0 1.61-.563 1.61-1.313 0-.469-.267-.86-.673-1.094-.094-.062-.328-.187-.437-.25m-1.125-.656c-.188-.11-.375-.297-.375-.562 0-.438.5-.688 1-.688.547 0 1.031.344 1.031.828 0 .625-.734.938-.734.938-.016 0-.032 0-.079-.031Zm.328.969.969.547c.172.11.515.312.515.718 0 .532-.578.86-1.172.86-.64 0-1.187-.422-1.187-.984 0-.516.375-.922.875-1.141m0 0"/><path id="k" d="M2.906-2.078c0 1.734-.844 2-1.265 2-.157 0-.532-.016-.72-.234a.315.315 0 0 0 .313-.329.32.32 0 0 0-.328-.328c-.203 0-.328.14-.328.344 0 .469.39.766 1.063.766 1 0 1.937-.938 1.937-2.438 0-1.719-.765-2.328-1.578-2.328a1.55 1.55 0 0 0-1.11.422c-.234.234-.515.5-.515 1.125 0 .89.703 1.547 1.516 1.547.562 0 .859-.375 1.015-.688Zm-.969.344c-.28 0-.53-.079-.734-.407-.156-.25-.156-.546-.156-.937 0-.406 0-.672.203-.953.172-.25.39-.39.75-.39s.578.218.688.405c.187.282.203.782.203 1.016 0 .906-.516 1.266-.953 1.266m0 0"/><path id="l" d="M3.594-2.219c0-.765-.094-1.328-.406-1.812-.22-.313-.657-.594-1.204-.594C.36-4.625.36-2.719.36-2.219s0 2.36 1.625 2.36c1.61 0 1.61-1.86 1.61-2.36M1.984-.062c-.328 0-.75-.188-.89-.75C1-1.22 1-1.797 1-2.312c0-.516 0-1.047.094-1.422.156-.547.593-.703.89-.703.375 0 .735.234.86.64.11.375.125.875.125 1.485 0 .515 0 1.03-.094 1.468-.14.64-.61.782-.89.782m0 0"/><path id="g" d="M6.563-2.297c.171 0 .359 0 .359-.203 0-.187-.188-.187-.36-.187h-5.39c-.172 0-.344 0-.344.187 0 .203.172.203.344.203Zm0 0"/><path id="i" d="M2.89-3.516c.813-.265 1.391-.953 1.391-1.75 0-.812-.875-1.375-1.828-1.375-1 0-1.765.594-1.765 1.36 0 .328.218.515.515.515s.5-.218.5-.515c0-.485-.469-.485-.61-.485.298-.5.954-.625 1.313-.625.422 0 .969.22.969 1.11 0 .125-.031.703-.281 1.14-.297.485-.64.516-.89.516a3 3 0 0 1-.392.031c-.078.016-.14.031-.14.125 0 .11.062.11.234.11h.438c.812 0 1.187.672 1.187 1.656 0 1.36-.687 1.64-1.125 1.64S1.22-.233.875-.812c.344.047.656-.171.656-.546a.537.537 0 0 0-.547-.563c-.25 0-.562.14-.562.578C.422-.437 1.344.22 2.437.22c1.22 0 2.126-.906 2.126-1.922 0-.813-.641-1.594-1.672-1.813m0 0"/><path id="j" d="M2.938-6.375c0-.25 0-.266-.235-.266C2.078-6 1.203-6 .891-6v.313c.203 0 .78 0 1.297-.266v5.172c0 .36-.032.469-.922.469H.953V0c.344-.031 1.203-.031 1.61-.031.39 0 1.265 0 1.609.031v-.312h-.313c-.906 0-.921-.11-.921-.47Zm0 0"/><path id="m" d="M1.313-3.266v-.25c0-2.515 1.234-2.875 1.75-2.875.234 0 .656.063.874.407-.156 0-.546 0-.546.437 0 .313.234.469.453.469.156 0 .469-.094.469-.484 0-.594-.438-1.079-1.266-1.079C1.766-6.64.422-5.359.422-3.156.422-.484 1.578.219 2.5.219c1.11 0 2.063-.938 2.063-2.25 0-1.266-.891-2.219-2-2.219-.672 0-1.047.5-1.25.984M2.5-.062c-.625 0-.922-.594-.984-.75-.188-.47-.188-1.266-.188-1.438 0-.781.328-1.781 1.219-1.781.172 0 .625 0 .937.625.172.36.172.875.172 1.36 0 .483 0 .983-.172 1.343-.296.594-.75.64-.984.64m0 0"/></defs><use xlink:href="#a" x=".546" y="5.331"/><path fill="none" stroke="#000" stroke-miterlimit="10" stroke-width=".398" d="M.547 6.762h3.969"/><use xlink:href="#b" x=".546" y="12.689"/><use xlink:href="#a" x="16.87" y="5.331"/><path fill="none" stroke="#000" stroke-miterlimit="10" stroke-width=".398" d="M16.871 6.762h3.969"/><use xlink:href="#c" x="16.87" y="12.689"/><use xlink:href="#a" x="33.196" y="5.331"/><use xlink:href="#d" x="37.166" y="5.331"/><path fill="none" stroke="#000" stroke-miterlimit="10" stroke-width=".398" d="M33.195 6.762h7.942"/><use xlink:href="#e" x="33.196" y="12.689"/><use xlink:href="#f" x="37.166" y="12.689"/><use xlink:href="#b" x="55.477" y="5.331"/><path fill="none" stroke="#000" stroke-miterlimit="10" stroke-width=".398" d="M53.492 6.762h7.942"/><use xlink:href="#c" x="53.492" y="12.689"/><use xlink:href="#f" x="57.462" y="12.689"/><use xlink:href="#c" x="75.773" y="5.331"/><path fill="none" stroke="#000" stroke-miterlimit="10" stroke-width=".398" d="M73.79 6.762h7.94"/><use xlink:href="#e" x="73.788" y="12.689"/><use xlink:href="#f" x="77.759" y="12.689"/><use xlink:href="#g" x="92.888" y="9.254"/><use xlink:href="#a" x="103.819" y="5.331"/><path fill="none" stroke="#000" stroke-miterlimit="10" stroke-width=".398" d="M101.832 6.762h7.941"/><use xlink:href="#e" x="101.832" y="12.689"/><use xlink:href="#f" x="105.803" y="12.689"/><use xlink:href="#a" x="122.129" y="5.331"/><use xlink:href="#h" x="126.1" y="5.331"/><path fill="none" stroke="#000" stroke-miterlimit="10" stroke-width=".398" d="M122.129 6.762h7.941"/><use xlink:href="#c" x="122.129" y="12.689"/><use xlink:href="#f" x="126.1" y="12.689"/><use xlink:href="#a" x="144.411" y="5.331"/><path fill="none" stroke="#000" stroke-miterlimit="10" stroke-width=".398" d="M142.426 6.762h7.941"/><use xlink:href="#a" x="142.425" y="12.689"/><use xlink:href="#f" x="146.396" y="12.689"/><use xlink:href="#c" x="164.708" y="5.331"/><path fill="none" stroke="#000" stroke-miterlimit="10" stroke-width=".398" d="M162.723 6.762h7.941"/><use xlink:href="#a" x="162.721" y="12.689"/><use xlink:href="#f" x="166.692" y="12.689"/><use xlink:href="#g" x="181.822" y="9.254"/><use xlink:href="#a" x="192.751" y="5.331"/><path fill="none" stroke="#000" stroke-miterlimit="10" stroke-width=".398" d="M190.766 6.762h7.941"/><use xlink:href="#e" x="190.767" y="12.689"/><use xlink:href="#f" x="194.737" y="12.689"/><use xlink:href="#i" x="209.867" y="9.254"/><use xlink:href="#a" x="216.043" y="5.331"/><path fill="none" stroke="#000" stroke-miterlimit="10" stroke-width=".398" d="M216.043 6.762h3.973"/><use xlink:href="#b" x="216.043" y="12.689"/><use xlink:href="#j" x="231.173" y="9.254"/><use xlink:href="#c" x="237.351" y="5.331"/><use xlink:href="#c" x="241.321" y="5.331"/><use xlink:href="#d" x="245.292" y="5.331"/><use xlink:href="#f" x="249.263" y="5.331"/><use xlink:href="#e" x="253.234" y="5.331"/><path fill="none" stroke="#000" stroke-miterlimit="10" stroke-width=".398" d="M237.352 6.762h19.855"/><use xlink:href="#k" x="237.351" y="12.689"/><use xlink:href="#d" x="241.321" y="12.689"/><use xlink:href="#d" x="245.292" y="12.689"/><use xlink:href="#c" x="249.263" y="12.689"/><use xlink:href="#l" x="253.234" y="12.689"/><use xlink:href="#j" x="268.365" y="9.254"/><use xlink:href="#g" x="283.308" y="9.254"/><use xlink:href="#m" x="291.058" y="9.254"/></svg>