<svg xmlns="http://www.w3.org/2000/svg" xmlns:xlink="http://www.w3.org/1999/xlink" width="19.604" height="9.344"><defs><path id="a" d="M2.938-6.375c0-.25 0-.266-.235-.266C2.078-6 1.203-6 .891-6v.313c.203 0 .78 0 1.297-.266v5.172c0 .36-.032.469-.922.469H.953V0c.344-.031 1.203-.031 1.61-.031.39 0 1.265 0 1.609.031v-.312h-.313c-.906 0-.921-.11-.921-.47Zm0 0"/><path id="b" d="M6.188-5.828c.14-.375.406-.656 1.093-.672v-.312c-.312.03-.718.03-.968.03-.297 0-.875-.015-1.141-.03v.312c.516.016.734.266.734.5 0 .078-.031.14-.047.203L4.031-1 2.125-6.031c-.062-.14-.062-.157-.062-.172 0-.297.562-.297.812-.297v-.312c-.36.03-1.047.03-1.422.03-.469 0-.906-.015-1.265-.03v.312c.656 0 .843 0 .984.375L3.484 0c.063.188.11.219.25.219.157 0 .188-.047.235-.188Zm0 0"/><path id="c" d="M3.969-6.937c-.047-.125-.078-.204-.235-.204s-.187.063-.234.204L1.438-.984C1.25-.47.859-.312.313-.312V0c.234-.016.671-.031 1.015-.031.313 0 .828.015 1.156.031v-.312c-.5 0-.75-.25-.75-.5 0-.032.016-.141.016-.157l.469-1.297h2.453L5.203-.75a.6.6 0 0 1 .031.14c0 .298-.562.298-.828.298V0c.36-.031 1.063-.031 1.438-.031.422 0 .89.015 1.297.031v-.312h-.172c-.594 0-.735-.063-.844-.391Zm-.531 1.109 1.124 3.25H2.329Zm0 0"/></defs><use xlink:href="#a" x="-.08" y="7.803"/><use xlink:href="#b" x="4.901" y="7.803"/><use xlink:href="#c" x="11.267" y="7.803"/></svg>