<svg xmlns="http://www.w3.org/2000/svg" xmlns:xlink="http://www.w3.org/1999/xlink" width="75.396" height="34.382"><defs><path id="b" d="M.453 1.219c-.078.343-.11.406-.547.406-.11 0-.218 0-.218.188 0 .078.046.125.125.125.265 0 .562-.032.828-.032.343 0 .672.032 1 .032.046 0 .172 0 .172-.204 0-.109-.094-.109-.235-.109-.5 0-.5-.062-.5-.156 0-.125.422-1.75.484-2 .125.297.407.64.922.64 1.157 0 2.407-1.453 2.407-2.921 0-.938-.578-1.594-1.328-1.594-.5 0-.985.36-1.313.75-.094-.547-.531-.75-.89-.75-.47 0-.657.39-.735.562-.187.344-.312.938-.312.969 0 .11.093.11.109.11.11 0 .11-.016.172-.235.172-.703.375-1.187.734-1.187.172 0 .313.078.313.453 0 .234-.032.343-.079.515Zm1.75-4.328c.063-.266.344-.547.516-.703.36-.297.64-.376.812-.376.39 0 .64.344.64.938s-.327 1.734-.515 2.11C3.312-.439 2.844-.11 2.47-.11c-.656 0-.781-.827-.781-.89 0-.016 0-.031.03-.156Zm0 0"/><path id="c" d="M2.328-4.437c0-.188 0-.188-.203-.188-.453.438-1.078.438-1.36.438v.25c.157 0 .626 0 1-.188v3.547c0 .234 0 .328-.687.328H.812V0c.125 0 .985-.031 1.235-.031.219 0 1.094.031 1.25.031v-.25H3.03c-.703 0-.703-.094-.703-.328Zm0 0"/><path id="e" d="M3.516-1.266H3.28c-.015.157-.094.563-.187.625-.047.047-.578.047-.688.047H1.125c.734-.64.984-.843 1.39-1.172.516-.406 1-.843 1-1.5 0-.843-.734-1.359-1.624-1.359-.86 0-1.453.61-1.453 1.25 0 .344.296.39.375.39.156 0 .359-.124.359-.374 0-.125-.047-.375-.406-.375.218-.485.687-.641 1.015-.641.703 0 1.063.547 1.063 1.11 0 .609-.438 1.078-.656 1.328L.516-.266C.437-.203.437-.187.437 0h2.876Zm0 0"/><path id="f" d="M3.297-1.86c.015-.077.015-.109.015-.109 0-.11-.078-.172-.171-.172-.203 0-.25.172-.282.297l-.109.422-.14.625c-.032.063-.047.156-.063.188 0 .03-.266.5-.688.5-.234 0-.406-.11-.406-.438 0-.265.14-.64.281-1a.45.45 0 0 0 .063-.219c0-.25-.234-.437-.547-.437-.516 0-.797.64-.797.765 0 .079.078.079.11.079.078 0 .078-.032.109-.094.11-.344.344-.578.562-.578.094 0 .157.047.157.187 0 .094-.032.172-.063.266-.25.594-.297.766-.297.969 0 .547.469.672.797.672.281 0 .5-.141.625-.25-.078.28-.125.5-.36.734-.124.11-.359.312-.655.312-.094 0-.282-.015-.391-.125a.33.33 0 0 0 .25-.296c0-.141-.125-.204-.219-.204A.324.324 0 0 0 .75.578c0 .25.266.438.688.438C2 1.016 2.672.64 2.827 0Zm0 0"/><clipPath id="a"><path d="M0 5h29v29.074H0Zm0 0"/></clipPath><clipPath id="d"><path d="M46 5h29.094v29.074H46Zm0 0"/></clipPath></defs><g clip-path="url(#a)"><path fill="none" stroke="#000" stroke-miterlimit="10" stroke-width=".399" d="M23.023 21.813c0-6.11-4.949-11.06-11.058-11.06-6.11 0-11.059 4.95-11.059 11.06 0 6.105 4.95 11.058 11.059 11.058 6.11 0 11.058-4.953 11.058-11.059Zm0 0"/></g><use xlink:href="#b" x="7.224" y="5.097"/><use xlink:href="#c" x="12.236" y="6.591"/><path d="M14.176 21.813c0-1.223-.989-2.211-2.211-2.211-1.223 0-2.211.988-2.211 2.21 0 1.223.988 2.211 2.21 2.211 1.223 0 2.212-.988 2.212-2.21m0 0"/><g clip-path="url(#d)"><path fill="none" stroke="#000" stroke-miterlimit="10" stroke-width=".399" d="M73.887 21.813c0-6.11-4.953-11.06-11.059-11.06-6.11 0-11.058 4.95-11.058 11.06 0 6.105 4.949 11.058 11.058 11.058 6.106 0 11.059-4.953 11.059-11.059Zm0 0"/></g><use xlink:href="#b" x="58.086" y="5.097"/><use xlink:href="#e" x="63.098" y="6.591"/><path d="M65.988 21.813a3.16 3.16 0 0 0-3.16-3.16 3.16 3.16 0 0 0-3.16 3.16 3.16 3.16 0 0 0 3.16 3.16 3.16 3.16 0 0 0 3.16-3.16m0 0"/><use xlink:href="#f" x="60.918" y="22.4" fill="#FFF"/></svg>