<svg xmlns="http://www.w3.org/2000/svg" width="48.026" height="12.332"><defs><clipPath id="a"><path d="M0 0h47.54v11.996H0Zm0 0"/></clipPath><clipPath id="b"><path d="M0 1h10v10.996H0Zm0 0"/></clipPath><clipPath id="c"><path d="M23 1h15v10.996H23Zm0 0"/></clipPath><clipPath id="d"><path d="M37 0h10.54v11H37Zm0 0"/></clipPath></defs><g clip-path="url(#a)"><path fill="none" stroke="#BFBFBF" stroke-miterlimit="10" stroke-width=".399" d="m2.258 8.664 14.176-5.672 14.171 5.672 14.172-5.672"/></g><path fill="#D2C92A" d="m2.258 6.672 1.496 1.992-1.496 1.992L.766 8.664Zm0 0"/><g clip-path="url(#b)"><path fill="none" stroke="#000" stroke-miterlimit="10" stroke-width=".399" d="m2.258 6.672 1.496 1.992-1.496 1.992L.766 8.664Zm0 0"/></g><path fill="#D2C92A" stroke="#000" stroke-miterlimit="10" stroke-width=".399" d="m16.434 1 1.492 1.992-1.492 1.992-1.497-1.992Zm0 0"/><path fill="#D2C92A" d="m30.605 6.672 1.497 1.992-1.497 1.992-1.492-1.992Zm0 0"/><g clip-path="url(#c)"><path fill="none" stroke="#000" stroke-miterlimit="10" stroke-width=".399" d="m30.605 6.672 1.497 1.992-1.497 1.992-1.492-1.992Zm0 0"/></g><path fill="#D2C92A" d="m44.777 1 1.496 1.992-1.496 1.992-1.492-1.992Zm0 0"/><g clip-path="url(#d)"><path fill="none" stroke="#000" stroke-miterlimit="10" stroke-width=".399" d="m44.777 1 1.496 1.992-1.496 1.992-1.492-1.992Zm0 0"/></g></svg>