<?xml version="1.0" encoding="UTF-8"?>
<svg xmlns="http://www.w3.org/2000/svg" xmlns:xlink="http://www.w3.org/1999/xlink" width="65.733pt" height="68.51pt" viewBox="0 0 65.733 68.51" version="1.2">
<defs>
<clipPath id="clip1">
  <path d="M 22 52 L 44 52 L 44 68.265625 L 22 68.265625 Z M 22 52 "/>
</clipPath>
</defs>
<g id="surface1">
<path style="fill:none;stroke-width:0.3985;stroke-linecap:butt;stroke-linejoin:miter;stroke:rgb(0%,0%,0%);stroke-opacity:1;stroke-miterlimit:10;" d="M 4.696187 56.693031 C 4.696187 59.286781 2.594625 61.388344 0.000875 61.388344 C -2.592875 61.388344 -4.694438 59.286781 -4.694438 56.693031 C -4.694438 54.099281 -2.592875 51.997719 0.000875 51.997719 C 2.594625 51.997719 4.696187 54.099281 4.696187 56.693031 Z M 4.696187 56.693031 " transform="matrix(1,0,0,-1,32.7335,62.361)"/>
<path style="fill:none;stroke-width:0.3985;stroke-linecap:butt;stroke-linejoin:miter;stroke:rgb(0%,0%,0%);stroke-opacity:1;stroke-miterlimit:10;" d="M 4.696187 28.345375 C 4.696187 30.939125 2.594625 33.044594 0.000875 33.044594 C -2.592875 33.044594 -4.694438 30.939125 -4.694438 28.345375 C -4.694438 25.751625 -2.592875 23.650062 0.000875 23.650062 C 2.594625 23.650062 4.696187 25.751625 4.696187 28.345375 Z M 4.696187 28.345375 " transform="matrix(1,0,0,-1,32.7335,62.361)"/>
<g clip-path="url(#clip1)" clip-rule="nonzero">
<path style="fill:none;stroke-width:0.3985;stroke-linecap:butt;stroke-linejoin:miter;stroke:rgb(0%,0%,0%);stroke-opacity:1;stroke-miterlimit:10;" d="M 4.696187 0.001625 C 4.696187 2.595375 2.594625 4.696937 0.000875 4.696937 C -2.592875 4.696937 -4.694438 2.595375 -4.694438 0.001625 C -4.694438 -2.592125 -2.592875 -4.697594 0.000875 -4.697594 C 2.594625 -4.697594 4.696187 -2.592125 4.696187 0.001625 Z M 4.696187 0.001625 " transform="matrix(1,0,0,-1,32.7335,62.361)"/>
</g>
<path style="fill:none;stroke-width:0.3985;stroke-linecap:butt;stroke-linejoin:miter;stroke:rgb(0%,0%,0%);stroke-opacity:1;stroke-miterlimit:10;" d="M 25.024312 25.025062 L 31.668844 25.025062 L 31.668844 31.665687 L 25.024312 31.665687 Z M 25.024312 25.025062 " transform="matrix(1,0,0,-1,32.7335,62.361)"/>
<path style="fill:none;stroke-width:0.3985;stroke-linecap:butt;stroke-linejoin:miter;stroke:rgb(0%,0%,0%);stroke-opacity:1;stroke-miterlimit:10;" d="M -31.667094 25.025062 L -25.026469 25.025062 L -25.026469 31.665687 L -31.667094 31.665687 Z M -31.667094 25.025062 " transform="matrix(1,0,0,-1,32.7335,62.361)"/>
</g>
</svg>
