<svg xmlns="http://www.w3.org/2000/svg" xmlns:xlink="http://www.w3.org/1999/xlink" width="74.954" height="68.51"><defs><path id="a" d="M.875-.594c-.031.156-.094.39-.094.438 0 .172.14.265.297.265a.41.41 0 0 0 .375-.28c.016-.032.344-1.391.39-1.579.079-.328.266-1.016.313-1.297.047-.125.328-.594.563-.812.078-.063.375-.328.797-.328.265 0 .406.125.422.125-.297.046-.516.28-.516.546 0 .157.11.344.375.344s.547-.234.547-.594c0-.343-.313-.64-.828-.64-.641 0-1.078.484-1.266.765-.094-.453-.453-.765-.922-.765-.453 0-.64.39-.734.562-.172.344-.297.938-.297.969 0 .11.094.11.11.11.109 0 .109-.016.171-.235.172-.703.375-1.187.735-1.187.156 0 .296.078.296.453 0 .218-.03.328-.156.843Zm0 0"/><path id="c" d="M4.688-3.766a.6.6 0 0 0 .03-.171c0-.172-.109-.266-.28-.266-.094 0-.375.062-.407.422-.187-.36-.531-.625-.937-.625-1.125 0-2.36 1.39-2.36 2.828C.734-.594 1.328 0 2.047 0c.594 0 1.062-.469 1.156-.578l.016.015C3.016.314 2.89.734 2.89.75c-.047.094-.375 1.078-1.438 1.078a2.7 2.7 0 0 1-.797-.11.54.54 0 0 0 .407-.515c0-.156-.11-.344-.375-.344a.546.546 0 0 0-.532.579c0 .406.36.609 1.313.609 1.25 0 1.969-.781 2.125-1.375ZM3.406-1.28c-.062.265-.297.515-.515.703-.203.172-.516.36-.813.36-.5 0-.64-.516-.64-.923 0-.468.28-1.656.562-2.156.266-.484.688-.89 1.11-.89.656 0 .796.812.796.859s-.015.11-.031.14Zm0 0"/><path id="b" d="M2.328-4.437c0-.188 0-.188-.203-.188-.453.438-1.078.438-1.36.438v.25c.157 0 .626 0 1-.188v3.547c0 .234 0 .328-.687.328H.812V0c.125 0 .985-.031 1.235-.031.219 0 1.094.031 1.25.031v-.25H3.03c-.703 0-.703-.094-.703-.328Zm0 0"/><path id="d" d="M3.516-1.266H3.28c-.015.157-.094.563-.187.625-.047.047-.578.047-.688.047H1.125c.734-.64.984-.843 1.39-1.172.516-.406 1-.843 1-1.5 0-.843-.734-1.359-1.624-1.359-.86 0-1.453.61-1.453 1.25 0 .344.296.39.375.39.156 0 .359-.124.359-.374 0-.125-.047-.375-.406-.375.218-.485.687-.641 1.015-.641.703 0 1.063.547 1.063 1.11 0 .609-.438 1.078-.656 1.328L.516-.266C.437-.203.437-.187.437 0h2.876Zm0 0"/><path id="e" d="M1.906-2.328c.547 0 .938.375.938 1.125 0 .86-.516 1.125-.906 1.125-.282 0-.907-.078-1.188-.5.328 0 .406-.235.406-.39 0-.22-.172-.376-.39-.376a.38.38 0 0 0-.391.407C.375-.281 1.094.14 1.938.14c.968 0 1.64-.657 1.64-1.344 0-.547-.437-1.094-1.203-1.25.719-.266.984-.781.984-1.219 0-.547-.625-.953-1.406-.953-.766 0-1.36.375-1.36.938 0 .234.157.359.36.359.219 0 .36-.156.36-.344 0-.203-.141-.36-.36-.375.25-.297.719-.375.985-.375.312 0 .75.156.75.75 0 .297-.094.625-.282.828-.219.266-.422.281-.765.313-.172.015-.188.015-.22.015-.015 0-.077.016-.077.094 0 .094.062.094.187.094Zm0 0"/><path id="f" d="M4.406-3.672c0-.531-.531-.812-1.062-.812-.688 0-1.094.5-1.313 1.125v-1.125l-1.656.078v.468c.61 0 .688 0 .688.391v3.078H.375V0l1.25-.031C2-.031 2.641-.031 3 0v-.469h-.86v-1.75c0-.687.235-1.906 1.235-1.906 0 0-.187.172-.187.453 0 .406.328.61.609.61.297 0 .61-.204.61-.61m0 0"/><path id="g" d="M5.406-2.172c0-1.344-.922-2.344-2.547-2.344C1.22-4.516.313-3.5.313-2.172c0 1.235.89 2.235 2.546 2.235 1.672 0 2.547-1.016 2.547-2.235m-1.281-.11c0 .86 0 1.938-1.266 1.938-1.265 0-1.265-1.078-1.265-1.937 0-.453 0-.953.172-1.297.187-.375.609-.578 1.093-.578.422 0 .844.156 1.063.5.203.344.203.89.203 1.375m0 0"/><path id="h" d="M3.813-1.234v-.532h-.47v.516c0 .672-.327.906-.609.906-.578 0-.578-.64-.578-.86v-2.75h1.469v-.468H2.156v-1.906h-.469c0 1-.484 1.984-1.484 2.016v.359h.828v2.734c0 1.063.86 1.282 1.578 1.282.75 0 1.204-.579 1.204-1.297m0 0"/></defs><path fill="none" stroke="#F33" stroke-miterlimit="10" stroke-width=".399" d="M1.305 41.945H16.91V29.523H1.305Zm0 0"/><use xlink:href="#a" x="4.625" y="37.132" fill="#F33"/><use xlink:href="#b" x="9.12" y="38.626" fill="#F33"/><path fill="none" stroke="#007F00" stroke-miterlimit="10" stroke-width=".399" d="M1.176 13.82h15.863V.953H1.176Zm0 0"/><use xlink:href="#c" x="4.497" y="8.564" fill="#007F00"/><use xlink:href="#b" x="9.249" y="10.059" fill="#007F00"/><path fill="none" stroke="#F33" stroke-miterlimit="10" stroke-width=".399" d="M29.652 41.945h15.606V29.523H29.652Zm0 0"/><use xlink:href="#a" x="32.972" y="37.132" fill="#F33"/><use xlink:href="#d" x="37.467" y="38.626" fill="#F33"/><path fill="none" stroke="#007F00" stroke-miterlimit="10" stroke-width=".399" d="M29.523 13.82h15.864V.953H29.523Zm0 0"/><use xlink:href="#c" x="32.843" y="8.564" fill="#007F00"/><use xlink:href="#d" x="37.595" y="10.059" fill="#007F00"/><path fill="none" stroke="#F33" stroke-miterlimit="10" stroke-width=".399" d="M58 41.945h15.605V29.523H58Zm0 0"/><use xlink:href="#a" x="61.318" y="37.132" fill="#F33"/><use xlink:href="#e" x="65.813" y="38.626" fill="#F33"/><path fill="none" stroke="#007F00" stroke-miterlimit="10" stroke-width=".399" d="M57.871 13.82h15.863V.953H57.871Zm0 0"/><use xlink:href="#c" x="61.19" y="8.564" fill="#007F00"/><use xlink:href="#e" x="65.942" y="10.059" fill="#007F00"/><use xlink:href="#f" x="26.978" y="67.214"/><use xlink:href="#g" x="31.7" y="67.214"/><use xlink:href="#g" x="37.748" y="67.214"/><use xlink:href="#h" x="43.476" y="67.214"/><path fill="none" stroke="#000" stroke-miterlimit="10" stroke-width=".399" d="M30.742 57.367 17.211 43.836"/><path fill="none" stroke="#000" stroke-linecap="round" stroke-linejoin="round" stroke-miterlimit="10" stroke-width=".39898803000000005" d="M16.844 46.852c.746-1.282.629-2.36.226-3.157.797.403 1.871.524 3.153-.226"/><path fill="none" stroke="#000" stroke-miterlimit="10" stroke-width=".399" d="M37.453 57.367V44.535"/><path fill="none" stroke="#000" stroke-linecap="round" stroke-linejoin="round" stroke-miterlimit="10" stroke-width=".399" d="M35.063 46.41c1.437-.379 2.113-1.222 2.39-2.074.281.852.957 1.695 2.39 2.074"/><path fill="none" stroke="#000" stroke-miterlimit="10" stroke-width=".399" d="m44.168 57.367 13.531-13.531"/><path fill="none" stroke="#000" stroke-linecap="round" stroke-linejoin="round" stroke-miterlimit="10" stroke-width=".39898803000000005" d="M54.684 43.469c1.285.75 2.359.629 3.156.226-.402.797-.52 1.875.226 3.157"/><path fill="none" stroke="#000" stroke-miterlimit="10" stroke-width=".399" d="M9.11 29.324V16.41"/><path fill="none" stroke="#000" stroke-linecap="round" stroke-linejoin="round" stroke-miterlimit="10" stroke-width=".399" d="M6.715 18.285c1.437-.379 2.113-1.223 2.394-2.074.278.852.954 1.695 2.391 2.074"/><path fill="none" stroke="#000" stroke-miterlimit="10" stroke-width=".399" d="m17.11 29.605 18.445-14.132"/><path fill="none" stroke="#000" stroke-linecap="round" stroke-linejoin="round" stroke-miterlimit="10" stroke-width=".39898005000000003" d="M32.617 14.715c1.172.91 2.254.933 3.098.637-.504.738-.762 1.789-.192 3.16"/><path fill="none" stroke="#000" stroke-miterlimit="10" stroke-width=".399" d="m17.11 32.672 46.46-17.797"/><path fill="none" stroke="#000" stroke-linecap="round" stroke-linejoin="round" stroke-miterlimit="10" stroke-width=".39899202" d="M60.965 13.313c.867 1.203 1.894 1.535 2.789 1.492-.691.562-1.238 1.5-1.078 2.972"/><path fill="none" stroke="#000" stroke-miterlimit="10" stroke-width=".399" d="m29.453 29.605-18.45-14.132"/><path fill="none" stroke="#000" stroke-linecap="round" stroke-linejoin="round" stroke-miterlimit="10" stroke-width=".39898005000000003" d="M11.04 18.512c.57-1.371.312-2.422-.192-3.16.843.296 1.925.273 3.097-.637"/><path fill="none" stroke="#000" stroke-miterlimit="10" stroke-width=".399" d="M37.453 29.324V16.41"/><path fill="none" stroke="#000" stroke-linecap="round" stroke-linejoin="round" stroke-miterlimit="10" stroke-width=".399" d="M35.063 18.285c1.437-.379 2.113-1.223 2.39-2.074.281.852.957 1.695 2.39 2.074"/><path fill="none" stroke="#000" stroke-miterlimit="10" stroke-width=".399" d="m45.457 29.605 18.445-14.132"/><path fill="none" stroke="#000" stroke-linecap="round" stroke-linejoin="round" stroke-miterlimit="10" stroke-width=".39898005000000003" d="M60.96 14.715c1.177.91 2.259.933 3.102.637-.507.738-.765 1.789-.19 3.16"/><path fill="none" stroke="#000" stroke-miterlimit="10" stroke-width=".399" d="M57.8 32.672 11.34 14.875"/><path fill="none" stroke="#000" stroke-linecap="round" stroke-linejoin="round" stroke-miterlimit="10" stroke-width=".39899202" d="M12.234 17.777c.16-1.472-.386-2.41-1.078-2.972.89.043 1.922-.29 2.79-1.492"/><path fill="none" stroke="#000" stroke-miterlimit="10" stroke-width=".399" d="M57.8 29.605 39.353 15.473"/><path fill="none" stroke="#000" stroke-linecap="round" stroke-linejoin="round" stroke-miterlimit="10" stroke-width=".39898005000000003" d="M39.387 18.512c.57-1.371.312-2.422-.192-3.16.844.296 1.926.273 3.098-.637"/><path fill="none" stroke="#000" stroke-miterlimit="10" stroke-width=".399" d="M65.8 29.324V16.41"/><path fill="none" stroke="#000" stroke-linecap="round" stroke-linejoin="round" stroke-miterlimit="10" stroke-width=".399" d="M63.41 18.285c1.434-.379 2.113-1.223 2.39-2.074.282.852.958 1.695 2.391 2.074"/></svg>