<svg xmlns="http://www.w3.org/2000/svg" width="58.708" height="9.524"><defs><clipPath id="a"><path d="M31 0h15v9.285H31Zm0 0"/></clipPath><clipPath id="b"><path d="M36 0h16v9.285H36Zm0 0"/></clipPath><clipPath id="c"><path d="M42 0h16.563v9.285H42Zm0 0"/></clipPath></defs><path fill="none" stroke="#000" stroke-miterlimit="10" stroke-width=".399" d="M.863 4.52h41.153"/><path fill="red" d="m40.25 4.52-3.57-1.344 1.175 1.344-1.175 1.347Zm0 0"/><g clip-path="url(#a)"><path fill="none" stroke="red" stroke-miterlimit="10" stroke-width=".399" d="m40.25 4.52-3.57-1.344 1.175 1.344-1.175 1.347Zm0 0"/></g><path fill="red" d="M45.777 4.52c-.465-.114-2.492-.75-3.761-1.446v2.89c1.27-.694 3.297-1.331 3.761-1.444m0 0"/><g clip-path="url(#b)"><path fill="none" stroke="red" stroke-miterlimit="10" stroke-width=".399" d="M45.777 4.52c-.465-.114-2.492-.75-3.761-1.446v2.89c1.27-.694 3.297-1.331 3.761-1.444Zm0 0"/></g><g clip-path="url(#c)"><path fill="none" stroke="#000" stroke-miterlimit="10" stroke-width=".399" d="m56.988 4.52-8.75-3.29 2.856 3.29-2.856 3.289Zm0 0"/></g></svg>