<svg xmlns="http://www.w3.org/2000/svg" width="115.408" height="31.934"><defs><clipPath id="a"><path d="M75 19h17v12.902H75Zm0 0"/></clipPath><clipPath id="b"><path d="M72 17h17v14.902H72Zm0 0"/></clipPath></defs><path fill="none" stroke="#000" stroke-miterlimit="10" stroke-width=".399" d="M15.113 18.98h27.895v-6.972H15.113ZM24.29 1.113l5.136 5.133"/><path stroke="#000" stroke-linejoin="round" stroke-miterlimit="10" stroke-width=".39899601" d="m29.184 4.43 1.27 2.847-2.845-1.27Zm0 0"/><path fill="none" stroke="#000" stroke-miterlimit="10" stroke-width=".399" d="m21.5 3.902 5.137 5.133"/><path stroke="#000" stroke-linejoin="round" stroke-miterlimit="10" stroke-width=".39899601" d="m26.395 7.223 1.27 2.843-2.845-1.27Zm0 0"/><path fill="none" stroke="#000" stroke-miterlimit="10" stroke-width=".399" d="M81.395 19.855v-8.718l8.52 4.36ZM81.395 15.496h8.718M90.113 19.855v-8.718"/><g clip-path="url(#a)"><path fill="none" stroke="#000" stroke-miterlimit="10" stroke-width=".399" d="m80.984 30.75 5.137-5.137"/></g><path stroke="#000" stroke-linejoin="round" stroke-miterlimit="10" stroke-width=".39899601" d="m84.305 25.855 2.843-1.27-1.27 2.845Zm0 0"/><g clip-path="url(#b)"><path fill="none" stroke="#000" stroke-miterlimit="10" stroke-width=".399" d="m78.195 27.96 5.137-5.136"/></g><path stroke="#000" stroke-linejoin="round" stroke-miterlimit="10" stroke-width=".39899601" d="m81.516 23.066 2.843-1.27-1.27 2.845Zm0 0"/><path fill="none" stroke="#000" stroke-miterlimit="10" stroke-width=".399" d="M.715 15.496h14.2m28.292 0h37.988m9.118 0h23.789"/></svg>