<svg xmlns="http://www.w3.org/2000/svg" xmlns:xlink="http://www.w3.org/1999/xlink" width="87.452" height="157.682"><defs><path id="a" d="M4.922 0v-.469h-1.39v-5.734c0-.234 0-.328-.266-.328-.11 0-.125 0-.22.078-.765.562-1.796.562-2 .562H.845v.47h.203c.156 0 .703-.016 1.297-.204v5.156H.954V0c.437-.031 1.5-.031 1.984-.031s1.546 0 1.984.031m0 0"/><path id="b" d="M5.156-2.219h-.468c-.032.203-.125.844-.266.906-.11.063-.86.063-1.016.063H1.937c.47-.39 1-.812 1.438-1.14 1.14-.844 1.781-1.313 1.781-2.25 0-1.157-1.047-1.891-2.437-1.891-1.219 0-2.156.625-2.156 1.515 0 .594.484.735.718.735C1.61-4.281 2-4.5 2-5c0-.516-.422-.672-.562-.719.28-.234.671-.343 1.03-.343.845 0 1.313.671 1.313 1.421 0 .688-.375 1.375-1.078 2.079l-2 2.046c-.14.11-.14.141-.14.344V0h4.28Zm0 0"/><path id="c" d="M5.25-1.797c0-.547-.297-1.406-1.734-1.719.687-.203 1.406-.765 1.406-1.625 0-.765-.75-1.39-2.156-1.39-1.188 0-1.97.64-1.97 1.437 0 .422.313.703.688.703a.67.67 0 0 0 .704-.687c0-.578-.547-.688-.579-.703.344-.282.782-.36 1.094-.36.828 0 .86.641.86.97 0 .124-.016 1.437-1.047 1.5-.407.015-.438.015-.485.03-.094.016-.125.11-.125.172 0 .172.11.172.282.172h.437c1.094 0 1.094.985 1.094 1.5 0 .469 0 1.485-1.031 1.485-.266 0-.782-.047-1.266-.344C1.75-.75 2-1 2-1.406c0-.453-.312-.75-.75-.75-.422 0-.766.265-.766.765 0 .907.97 1.5 2.25 1.5 1.782 0 2.516-1 2.516-1.906m0 0"/><path id="d" d="m2.703 4.688.406-.235-.484-.844.953-.546.485.843.406-.234-.485-.844L7.61.734c.22-.125.266-.171.125-.421-.109-.188-.125-.188-.328-.22L1.922-.75l-.406.234 1.437 2.5L2 2.531l-.562-.969-.407.235c.219.312.672 1.094.89 1.469.204.343.626 1.093.782 1.422m.703-2.844L2.187-.281l3.876.594Zm0 0"/><path id="u" d="m2.453 4.266.406-.235-.687-1.203L7.14-.032c.203-.124.28-.171.14-.405-.047-.094-.062-.11-.172-.141-.875-.39-1.39-1.281-1.5-1.453l-.093-.172-.391.234.094.172c.078.14.36.594.828 1.016L1.578 1.797.875.594.469.828c.25.36.781 1.281 1.031 1.703.234.422.766 1.344.953 1.735m0 0"/><path id="v" d="M4.188 3.656c.468-.281 1.062-.953.609-2.36.516.485 1.36.829 2.11.407.656-.39.827-1.36.124-2.578-.593-1.031-1.547-1.375-2.234-.984-.36.218-.453.625-.266.953.235.39.657.437.953.265.5-.296.329-.812.313-.859.422.156.703.5.86.781C7.077 0 6.546.328 6.265.5 6.156.563 5 1.219 4.438.344c-.22-.344-.235-.375-.266-.39-.063-.095-.156-.063-.219-.032-.14.094-.094.187 0 .328l.219.375c.547.953-.313 1.438-.75 1.703-.406.235-1.297.735-1.813-.156A2.5 2.5 0 0 1 1.266.906c.265.235.593.328.953.125.39-.218.5-.64.281-1.031-.219-.36-.625-.516-1.062-.266-.782.454-.813 1.579-.172 2.688.89 1.531 2.125 1.687 2.922 1.234m0 0"/><path id="i" d="M-.844 5.469c1 .578 2.203.343 2.938-.938.14-.234.375-.718.344-1.281l1.14.656c-.187.235-.281.313-.437.594-.735 1.266-.203 2.625.015 2.75.063.031.156.078.219-.031.016-.032.016-.032.031-.157a4.1 4.1 0 0 1 .531-1.468c.376-.64.813-1 1-1.203.079-.063.094-.047.11-.063.078-.125-.016-.187-.156-.266L2.359 2.61c-.14-.093-.25-.156-.359.032-.062.109-.047.156-.016.25.204.578.016 1.078-.187 1.437-.438.766-1.188.328-1.89-.078-.626-.36-1.5-.86-.907-1.89.125-.22.5-.72 1.188-.813-.157.312-.094.703.25.906.468.266.796-.047.921-.25.063-.11.25-.625-.28-.937-.72-.422-1.845-.157-2.454.922-.797 1.374-.531 2.671.531 3.28m0 0"/><path id="y" d="m-2.453 4.266.406.234.688-1.203 4.968 2.86c.204.124.282.171.422-.063.047-.094.063-.11.047-.235-.125-.953.39-1.843.5-2.015l.094-.172-.39-.235-.095.172c-.078.141-.359.625-.484 1.235L-.766 2.266l.704-1.203L-.47.828c-.187.39-.718 1.313-.968 1.735-.235.421-.766 1.343-1.016 1.703m0 0"/><path id="z" d="m-2.703 4.688.406.234.485-.844.953.547-.485.844.407.234.484-.844 3.625 2.094c.219.125.297.14.437-.11.11-.187.094-.187.016-.374L1.609 1.28l-.406-.234-1.437 2.5L-1.187 3l.562-.969-.406-.234c-.157.344-.61 1.125-.828 1.5-.203.344-.625 1.094-.844 1.39m2.828-.813L1.344 1.75 2.78 5.406Zm0 0"/><path id="j" d="M-4.39-3.531c-1.22.703-1.329 1.937-.735 2.984.11.188.39.672 1.266.672l-.157.094C-5 .78-5.484.813-5.64.829A1.62 1.62 0 0 1-7.062.03c-.079-.156-.235-.468-.157-.781.235.281.563.328.813.172a.61.61 0 0 0 .234-.86c-.203-.343-.547-.406-.875-.218-.531.312-.875 1-.344 1.906.672 1.172 2.25 2.156 4.422.906.672-.39 1.328-.86 1.719-1.578.422-.781.25-1.531-.11-2.14-.687-1.188-1.874-1.641-3.03-.97m.671 1.187c.86-.5 1.516-.875 2.016.016.266.437.047.86-.047 1.015-.203.297-.828.657-.984.75-1.078.626-1.75.407-2.032-.078-.468-.828.172-1.203 1.047-1.703m0 0"/><path id="r" d="m-2.453-4.266-.406.235.687 1.203L-7.14.032c-.203.124-.28.171-.14.406.047.093.062.109.172.14.875.39 1.39 1.281 1.5 1.453l.093.172.391-.234-.094-.172A4.3 4.3 0 0 0-6.047.78l4.469-2.578.703 1.203.406-.234c-.25-.36-.781-1.281-1.031-1.703-.234-.422-.766-1.344-.953-1.735m0 0"/><path id="k" d="m-2.781-8.016-1.016 1.75c-.125.204-.906 1.454-1 1.547-.14.172-.219.14-.312.094l-.235.406 2.016 1.563.234-.39c-.61-.485-.656-.657-.64-.688-.016-.125.39-.828.484-.985l.828-1.437c.11.25.203.5.297.781.484 1.39 1.297 2.672 2.563 3.406.609.344.89-.14.921-.187.079-.14.266-.563-.296-.89l-.407-.235c-.406-.235-.812-.5-1.187-.781-.531-.422-.922-.875-1.094-1.391l-.781-2.25c-.047-.125-.078-.14-.375-.313m0 0"/><path id="s" d="M2.453-4.266 2.047-4.5l-.688 1.203-4.968-2.86c-.203-.124-.282-.171-.422.063-.047.094-.063.11-.047.235.125.953-.39 1.843-.5 2.015l-.094.172.39.235.095-.172c.078-.141.359-.625.484-1.235L.766-2.266.063-1.062l.406.234c.187-.39.719-1.313.969-1.735.234-.421.765-1.343 1.015-1.703m0 0"/><path id="t" d="m.656-5.578-.234.406c.156.14.672.531.64.688.016.125-.359.78-.437.906l-.734 1.281a30 30 0 0 1-.266-1.812c-.172-1.407-.25-2.203-1.062-2.672-1-.578-2.172-.047-2.86 1.156-.61 1.063-.531 2.188.234 2.64.516.297.875-.062 1-.265.157-.281.172-.734-.265-.984-.453-.25-.797.046-.906.125-.063-.344.03-.75.218-1.063.422-.734 1.235-.797 1.891-.422.594.344 1 1.016 1.25 1.969l.766 2.766c.03.172.062.187.234.297l.156.078 2.14-3.703Zm0 0"/><path id="l" d="M-5.25 1.86c0 1.078.844 1.546 1.328 1.828-.687.359-1 .796-1 1.374 0 1.016.906 1.47 2.047 1.47 1.375 0 2.078-.798 2.078-1.75 0-.438-.187-1.063-.953-1.5.828-.376 1.266-.938 1.266-1.673 0-1.203-1.078-1.718-2.36-1.718-1.594 0-2.406.875-2.406 1.968m1.078 3.187c0-.484.25-.813.688-1.11l1.5.844c.156.078.437.25.437.594 0 .703-.89.766-1.297.766-.828 0-1.328-.407-1.328-1.094m-.219-3.734c0-.829.938-1 1.516-1 .969 0 1.547.515 1.547 1.296 0 .766-.531 1.204-.89 1.407l-1.36-.766c-.438-.25-.813-.453-.813-.937m0 0"/><path id="m" d="M-5.25 3.281c0 .672 0 3.25 2.375 3.25 1.406 0 2.39-.812 2.39-2.14 0-1.375-.984-2.125-2.202-2.125-.36 0-.829.062-1.204.765v-.219c0-.734.094-1.312.235-1.656.172-.39.61-.843 1.297-.843.172 0 .53.03.828.218-.11.031-.485.172-.485.625 0 .344.235.625.625.625.391 0 .625-.265.625-.64 0-.688-.515-1.25-1.609-1.25-1.297 0-2.875.843-2.875 3.39m1.375.985c0-.625.25-1.641 1.094-1.641.953 0 .953.75.953 1.734 0 .985 0 1.782-1.078 1.782-.578 0-.813-.532-.86-.625-.109-.328-.109-.907-.109-1.25m0 0"/><path id="n" d="M-4.922 0v.469h1.39v5.734c0 .234 0 .328.266.328.11 0 .125 0 .22-.078.765-.562 1.796-.562 2-.562h.202v-.47h-.203c-.156 0-.703.016-1.297.204V.469h1.39V0c-.437.031-1.5.031-1.983.031-.485 0-1.547 0-1.985-.031m0 0"/><path id="o" d="M-5.281 3.188c0 .953.015 3.343 2.422 3.343S-.453 4.156-.453 3.188c0-1 0-3.297-2.406-3.297-2.391 0-2.422 2.297-2.422 3.297M-4 3.297c0-.563 0-1.469.078-1.985C-3.782.391-3.156.25-2.859.25c.359 0 .922.219 1.047.953.093.516.093 1.547.093 2.094 0 .719 0 1.375-.078 1.89-.125.891-.828.985-1.062.985-.375 0-.782-.188-.97-.625C-4 5.172-4 4.109-4 3.297m0 0"/><clipPath id="e"><path d="M74 3h13.18v22H74Zm0 0"/></clipPath><clipPath id="f"><path d="M71 1h16.18v27H71Zm0 0"/></clipPath><clipPath id="g"><path d="M74 18h13.18v22H74Zm0 0"/></clipPath><clipPath id="h"><path d="M71 15h16.18v27H71Zm0 0"/></clipPath><clipPath id="p"><path d="M20 135h21v22.523H20Zm0 0"/></clipPath><clipPath id="q"><path d="M46 135h21v22.523H46Zm0 0"/></clipPath><clipPath id="w"><path d="M71 77h16.18v27H71Zm0 0"/></clipPath><clipPath id="x"><path d="M71 91h16.18v27H71Zm0 0"/></clipPath></defs><use xlink:href="#a" x="40.587" y="68.918"/><use xlink:href="#b" x="40.587" y="39.46"/><use xlink:href="#c" x="40.587" y="16.172"/><path fill="none" stroke="#7F7F7F" stroke-miterlimit="10" stroke-width=".199" d="M34.945 4.46h17.008"/><path fill="none" stroke="#000" stroke-miterlimit="10" stroke-width=".399" d="M34.945 4.46 43.45 1.06l8.504 3.402M51.953 4.46V21.47"/><path fill="none" stroke="#7F7F7F" stroke-miterlimit="10" stroke-width=".199" d="M51.953 21.469H34.945"/><path fill="none" stroke="#000" stroke-miterlimit="10" stroke-width=".399" d="M34.945 21.469V4.46"/><use xlink:href="#d" x="64.701" y="20.621"/><g clip-path="url(#e)"><path fill="none" stroke="#7F7F7F" stroke-miterlimit="10" stroke-width=".199" d="m77.469 6.738 8.504 14.73"/></g><g clip-path="url(#f)"><path fill="none" stroke="#000" stroke-miterlimit="10" stroke-width=".399" d="m77.469 6.738 7.195 5.664 1.309 9.067"/></g><g clip-path="url(#g)"><path fill="none" stroke="#7F7F7F" stroke-miterlimit="10" stroke-width=".199" d="m85.973 21.469-8.504 14.726"/></g><g clip-path="url(#h)"><path fill="none" stroke="#000" stroke-miterlimit="10" stroke-width=".399" d="m85.973 21.469-1.309 9.062-7.195 5.664"/></g><path fill="none" stroke="#7F7F7F" stroke-miterlimit="10" stroke-width=".199" d="M77.469 36.195H60.46"/><path fill="none" stroke="#000" stroke-miterlimit="10" stroke-width=".399" d="m77.469 36.195-8.504 3.403-8.504-3.403"/><path fill="none" stroke="#7F7F7F" stroke-miterlimit="10" stroke-width=".199" d="M60.46 36.195 51.954 21.47M51.953 21.469l8.508-14.73"/><path fill="none" stroke="#000" stroke-miterlimit="10" stroke-width=".399" d="m51.953 21.469 1.309-9.067 7.199-5.664"/><path fill="none" stroke="#7F7F7F" stroke-miterlimit="10" stroke-width=".199" d="M60.46 6.738H77.47"/><path fill="none" stroke="#000" stroke-miterlimit="10" stroke-width=".399" d="m60.46 6.738 8.505-3.402 8.504 3.402"/><use xlink:href="#i" x="62.225" y="43.729"/><path fill="none" stroke="#7F7F7F" stroke-miterlimit="10" stroke-width=".199" d="m75.188 44.7-8.504 14.73"/><path fill="none" stroke="#000" stroke-miterlimit="10" stroke-width=".399" d="m75.188 44.7-1.305 9.066-7.2 5.664"/><path fill="none" stroke="#7F7F7F" stroke-miterlimit="10" stroke-width=".199" d="m66.684 59.43-14.73-8.504"/><path fill="none" stroke="#000" stroke-miterlimit="10" stroke-width=".399" d="m66.684 59.43-9.067-1.305-5.664-7.2"/><path fill="none" stroke="#7F7F7F" stroke-miterlimit="10" stroke-width=".199" d="m51.953 50.926 8.508-14.73"/><path fill="none" stroke="#000" stroke-miterlimit="10" stroke-width=".399" d="M60.46 36.195 75.189 44.7"/><path fill="none" stroke="#7F7F7F" stroke-miterlimit="10" stroke-width=".199" d="M51.953 50.926H34.945"/><use xlink:href="#j" x="27.541" y="48.69"/><path fill="none" stroke="#7F7F7F" stroke-miterlimit="10" stroke-width=".199" d="M20.219 59.43 11.715 44.7"/><path fill="none" stroke="#000" stroke-miterlimit="10" stroke-width=".399" d="m20.219 59.43-7.2-5.664-1.304-9.067M11.715 44.7l14.726-8.505"/><path fill="none" stroke="#7F7F7F" stroke-miterlimit="10" stroke-width=".199" d="m26.441 36.195 8.504 14.73M34.945 50.926 20.22 59.43"/><path fill="none" stroke="#000" stroke-miterlimit="10" stroke-width=".399" d="m34.945 50.926-5.664 7.199-9.062 1.305"/><use xlink:href="#k" x="19.376" y="25.604"/><path fill="none" stroke="#7F7F7F" stroke-miterlimit="10" stroke-width=".199" d="m.93 21.469 8.504-14.73"/><path fill="none" stroke="#000" stroke-miterlimit="10" stroke-width=".399" d="m.93 21.469 1.308-9.067 7.196-5.664"/><path fill="none" stroke="#7F7F7F" stroke-miterlimit="10" stroke-width=".199" d="M9.434 6.738H26.44"/><path fill="none" stroke="#000" stroke-miterlimit="10" stroke-width=".399" d="m9.434 6.738 8.504-3.402 8.503 3.402"/><path fill="none" stroke="#7F7F7F" stroke-miterlimit="10" stroke-width=".199" d="m26.441 6.738 8.504 14.73"/><path fill="none" stroke="#000" stroke-miterlimit="10" stroke-width=".399" d="m26.441 6.738 7.2 5.664 1.304 9.067"/><path fill="none" stroke="#7F7F7F" stroke-miterlimit="10" stroke-width=".199" d="m34.945 21.469-8.504 14.726M26.441 36.195H9.434"/><path fill="none" stroke="#000" stroke-miterlimit="10" stroke-width=".399" d="m26.441 36.195-8.503 3.403-8.504-3.403"/><path fill="none" stroke="#7F7F7F" stroke-miterlimit="10" stroke-width=".199" d="M9.434 36.195.93 21.47"/><path fill="none" stroke="#000" stroke-miterlimit="10" stroke-width=".399" d="m9.434 36.195-7.196-5.664L.93 21.47M51.953 50.926l8.508 14.73"/><path fill="none" stroke="#7F7F7F" stroke-miterlimit="10" stroke-width=".199" d="m60.46 65.656-8.507 14.73"/><path fill="none" stroke="#000" stroke-miterlimit="10" stroke-width=".399" d="m60.46 65.656-1.308 9.067-7.199 5.664"/><use xlink:href="#l" x="46.315" y="85.681"/><use xlink:href="#m" x="46.315" y="108.914"/><use xlink:href="#n" x="49.18" y="138.372"/><use xlink:href="#o" x="43.451" y="138.372"/><path fill="none" stroke="#000" stroke-miterlimit="10" stroke-width=".399" d="M51.953 156.313H34.945"/><g clip-path="url(#p)"><path fill="none" stroke="#000" stroke-miterlimit="10" stroke-width=".399" d="m34.945 156.313-8.504-14.731"/></g><path fill="none" stroke="#7F7F7F" stroke-miterlimit="10" stroke-width=".199" d="m26.441 141.582 8.504-14.73"/><path fill="none" stroke="#000" stroke-miterlimit="10" stroke-width=".399" d="m26.441 141.582 1.309-9.066 7.195-5.664"/><path fill="none" stroke="#7F7F7F" stroke-miterlimit="10" stroke-width=".199" d="M34.945 126.852h17.008M51.953 126.852l8.508 14.73"/><path fill="none" stroke="#000" stroke-miterlimit="10" stroke-width=".399" d="m51.953 126.852 7.2 5.664 1.308 9.066"/><g clip-path="url(#q)"><path fill="none" stroke="#000" stroke-miterlimit="10" stroke-width=".399" d="m60.46 141.582-8.507 14.73"/></g><use xlink:href="#r" x="29.02" y="127.068"/><use xlink:href="#r" x="26.156" y="122.107"/><path fill="none" stroke="#000" stroke-miterlimit="10" stroke-width=".399" d="m20.219 135.355-8.504-14.73"/><path fill="none" stroke="#7F7F7F" stroke-miterlimit="10" stroke-width=".199" d="m11.715 120.625 14.726-8.504"/><path fill="none" stroke="#000" stroke-miterlimit="10" stroke-width=".399" d="m11.715 120.625 5.664-7.195 9.062-1.309"/><path fill="none" stroke="#7F7F7F" stroke-miterlimit="10" stroke-width=".199" d="m26.441 112.121 8.504 14.73"/><path fill="none" stroke="#000" stroke-miterlimit="10" stroke-width=".399" d="m34.945 126.852-14.726 8.503"/><use xlink:href="#s" x="17.901" y="103.985"/><use xlink:href="#t" x="20.765" y="99.024"/><path fill="none" stroke="#000" stroke-miterlimit="10" stroke-width=".399" d="m.93 97.395 8.504-14.73M9.434 82.664H26.44M26.441 82.664l8.504 14.73"/><path fill="none" stroke="#7F7F7F" stroke-miterlimit="10" stroke-width=".199" d="m34.945 97.395-8.504 14.726"/><path fill="none" stroke="#000" stroke-miterlimit="10" stroke-width=".399" d="M26.441 112.121H9.434M9.434 112.121.93 97.395"/><path fill="none" stroke="#7F7F7F" stroke-miterlimit="10" stroke-width=".199" d="M34.945 97.395h17.008"/><use xlink:href="#u" x="63.32" y="94.036"/><use xlink:href="#v" x="66.184" y="98.997"/><g clip-path="url(#w)"><path fill="none" stroke="#000" stroke-miterlimit="10" stroke-width=".399" d="m77.469 82.664 8.504 14.73"/></g><g clip-path="url(#x)"><path fill="none" stroke="#000" stroke-miterlimit="10" stroke-width=".399" d="m85.973 97.395-8.504 14.726"/></g><path fill="none" stroke="#000" stroke-miterlimit="10" stroke-width=".399" d="M77.469 112.121H60.46"/><path fill="none" stroke="#7F7F7F" stroke-miterlimit="10" stroke-width=".199" d="m60.46 112.121-8.507-14.726"/><path fill="none" stroke="#000" stroke-miterlimit="10" stroke-width=".399" d="m51.953 97.395 8.508-14.73M60.46 82.664H77.47"/><use xlink:href="#y" x="63.606" y="117.144"/><use xlink:href="#z" x="60.742" y="122.105"/><path fill="none" stroke="#000" stroke-miterlimit="10" stroke-width=".399" d="m75.188 120.625-8.504 14.73M66.684 135.355l-14.73-8.503"/><path fill="none" stroke="#7F7F7F" stroke-miterlimit="10" stroke-width=".199" d="m51.953 126.852 8.508-14.73M60.46 112.121l14.728 8.504"/><path fill="none" stroke="#000" stroke-miterlimit="10" stroke-width=".399" d="m60.46 112.121 9.063 1.309 5.665 7.195"/><path fill="none" stroke="#7F7F7F" stroke-miterlimit="10" stroke-width=".199" d="M34.945 97.395V80.387"/><path fill="none" stroke="#000" stroke-miterlimit="10" stroke-width=".399" d="m34.945 97.395-3.398-8.504 3.398-8.504"/><path fill="none" stroke="#7F7F7F" stroke-miterlimit="10" stroke-width=".199" d="M34.945 80.387h17.008M51.953 80.387v17.008"/><path fill="none" stroke="#000" stroke-miterlimit="10" stroke-width=".399" d="m51.953 80.387 3.402 8.504-3.402 8.504"/><path fill="none" stroke="#7F7F7F" stroke-miterlimit="10" stroke-width=".199" d="m34.945 80.387-8.504-14.73"/><path fill="none" stroke="#000" stroke-miterlimit="10" stroke-width=".399" d="m34.945 80.387-7.195-5.664-1.309-9.067M26.441 65.656l8.504-14.73"/></svg>