<svg xmlns="http://www.w3.org/2000/svg" xmlns:xlink="http://www.w3.org/1999/xlink" width="187.778" height="30.998"><defs><path id="b" d="M4.563 0v-.437H3.266v-5.157c0-.187 0-.297-.266-.297-.11 0-.125 0-.203.063-.688.516-1.656.516-1.828.516H.797v.437h.172a4.2 4.2 0 0 0 1.203-.172v4.61H.89V0c.343-.031 1.422-.031 1.828-.031.422 0 1.484 0 1.844.031m0 0"/><path id="c" d="M4.766-2.016h-.453c-.016.125-.094.766-.235.829-.11.046-.781.046-.937.046H1.859c.485-.39 1.016-.812 1.47-1.125.75-.53 1.437-1.015 1.437-1.89 0-1.047-.953-1.735-2.25-1.735-1.11 0-1.985.532-1.985 1.36 0 .468.36.687.672.687a.65.65 0 0 0 .656-.672c0-.203-.078-.53-.468-.64.312-.25.718-.282.89-.282.735 0 1.203.547 1.203 1.282 0 .656-.375 1.234-.859 1.718l-2 1.985c-.094.094-.094.11-.094.281V0H4.5Zm0 0"/><path id="d" d="M4.86-1.61c0-.718-.532-1.327-1.548-1.546.907-.313 1.25-.938 1.25-1.485 0-.671-.671-1.25-2-1.25-1.109 0-1.828.594-1.828 1.329 0 .406.282.656.641.656.39 0 .656-.281.656-.656 0-.297-.172-.547-.531-.625.063-.063.438-.344 1.016-.344.78 0 .78.593.78.875 0 .5-.187 1.281-.968 1.328l-.422.031c-.14.016-.14.11-.14.172 0 .188.093.188.265.188h.422c1 0 1 .874 1 1.328 0 .406 0 1.312-.953 1.312-.11 0-.734-.016-1.14-.312.406-.11.5-.47.5-.672 0-.422-.298-.703-.72-.703-.374 0-.702.25-.702.703 0 .843.906 1.39 2.093 1.39 1.64 0 2.328-.906 2.328-1.718m0 0"/><path id="e" d="M5 0v-.437h-.89v-.954H5v-.437h-.89v-3.766c0-.265-.032-.312-.298-.312-.218 0-.234.015-.328.14L.297-1.828v.437h2.656v.954H1.922V0C2.25-.031 3.14-.031 3.5-.031c.375 0 1.172 0 1.5.031M3.063-1.828H.813l2.25-2.797Zm0 0"/><path id="f" d="M4.766-1.797c0-1.031-.72-1.875-2.078-1.875-.422 0-.797.063-1.188.297v-1.14c.313.062.453.062.64.062.25 0 .829 0 1.5-.453.204-.125.72-.563.72-.797 0-.031 0-.188-.141-.188 0 0-.047 0-.14.047a4.07 4.07 0 0 1-2.813 0c-.125-.047-.157-.047-.157-.047-.125 0-.125.125-.125.266v2.64c0 .157 0 .282.204.282.125 0 .14 0 .234-.125.375-.422.86-.485 1.219-.485.828 0 .828.782.828 1.485 0 .64 0 1.531-1.125 1.531-.485 0-.922-.234-1.14-.516.374-.046.577-.296.577-.624 0-.438-.343-.625-.625-.625s-.625.171-.625.64C.531-.64 1.25.11 2.391.11c1.53 0 2.375-.859 2.375-1.906m0 0"/><path id="h" d="M4.86-1.844c0-.484-.094-.968-.61-1.437-.469-.39-.937-.485-1.484-.485-.578 0-.922.407-1.063.688v-.156c0-1.125.219-1.485.313-1.641a1.47 1.47 0 0 1 1.218-.656c.172 0 .454.031.672.234-.36.078-.484.344-.484.563 0 .39.297.593.594.593a.57.57 0 0 0 .578-.609c0-.547-.375-1.14-1.375-1.14-1.297 0-2.781.827-2.781 3.046 0 .438.03 1.313.421 1.953.391.688 1.016 1 1.829 1 1.28 0 2.171-.734 2.171-1.953m-1.266-.015c0 .906 0 1.562-.922 1.562-.531 0-.766-.406-.828-.562-.125-.282-.125-1-.125-1.032 0-.921.39-1.515 1.015-1.515.86 0 .86.656.86 1.547m0 0"/><path id="j" d="M5.156-5.516v-.265H3.11c-.187 0-1.437-.047-1.546-.078-.172-.047-.188-.11-.204-.203H.906L.594-3.766h.453c.094-.75.25-.812.25-.812.125-.047.812-.047.984-.047h1.5c-.922 1.047-.922 1.063-1.11 1.344-.733 1.11-.89 2.14-.89 2.75 0 .625.485.64.578.64.235 0 .407-.14.454-.187.124-.188.124-.234.124-.75 0-1.156.11-2.234.688-2.89l1.438-1.626c.078-.093.093-.14.093-.172m0 0"/><path id="l" d="M4.86-1.672c0-.953-.735-1.375-1.204-1.64.64-.313.906-.75.906-1.25 0-.86-.75-1.329-1.89-1.329-1.297 0-1.938.72-1.938 1.594 0 .484.266 1 .86 1.344-.485.25-1.156.61-1.156 1.515 0 1.11 1 1.547 2.203 1.547 1.453 0 2.218-.765 2.218-1.78m-1-2.89c0 .468-.282.796-.657 1l-1.375-.75c-.047-.016-.39-.204-.39-.516 0-.594.703-.703 1.187-.703.797 0 1.234.39 1.234.968m.187 3.375c0 .843-1.047.89-1.39.89-.798 0-1.407-.36-1.407-1.156 0-.406.172-.875.797-1.25l1.203.656c.484.266.797.438.797.86m0 0"/><clipPath id="a"><path d="M0 0h38v30.996H0Zm0 0"/></clipPath><clipPath id="g"><path d="M32 11h38v19.996H32Zm0 0"/></clipPath><clipPath id="i"><path d="M71 11h38v19.996H71Zm0 0"/></clipPath><clipPath id="k"><path d="M109 11h38v19.996h-38Zm0 0"/></clipPath><clipPath id="m"><path d="M148 11h38v19.996h-38Zm0 0"/></clipPath></defs><path fill="none" stroke="#7F7F7F" stroke-miterlimit="10" stroke-width=".399" d="M1.188 29.652h28.347M1.188 1.305h28.347M1.188 29.652V1.305M29.535 29.652V1.305"/><g fill="none" stroke-miterlimit="10" stroke-width=".598" clip-path="url(#a)"><path stroke="#CC8714" d="M1.188 15.5s.855-3.11 1.18-3.988c.327-.88.855-2.055 1.183-2.344.328-.285.851-.148 1.18.277.328.422.855 1.82 1.183 2.778.328.96.852 3.035 1.18 4.132.328 1.098.851 2.997 1.18 3.782.328.781.855 1.718 1.183 1.863s.852-.27 1.18-.824c.328-.551.855-2.145 1.18-3.168.328-1.02.855-3.133 1.183-4.203s.852-2.828 1.18-3.504.855-1.356 1.183-1.356c.325 0 .852.68 1.18 1.356s.852 2.433 1.18 3.504c.328 1.07.855 3.18 1.183 4.203s.852 2.617 1.18 3.168c.328.554.852.969 1.18.824s.855-1.082 1.183-1.863c.328-.785.852-2.684 1.18-3.782s.855-3.171 1.18-4.132c.328-.957.855-2.356 1.183-2.778.328-.425.852-.562 1.18-.277.328.289.855 1.465 1.183 2.344.325.879 1.18 3.988 1.18 3.988"/><path stroke="#CC148C" d="M1.188 15.5s.855-3.184 1.18-4.113c.327-.93.855-2.219 1.183-2.594s.851-.43 1.18-.11.855 1.516 1.183 2.415c.328.894.852 2.902 1.18 4.043.328 1.14.851 3.214 1.18 4.175.328.965.855 2.336 1.183 2.766s.852.594 1.18.328c.328-.262.855-1.367 1.18-2.226.328-.86.855-2.825 1.183-3.961.328-1.137.852-3.235 1.18-4.227s.855-2.45 1.183-2.93c.325-.484.852-.757 1.18-.55s.852 1.218 1.18 2.039c.328.816.855 2.738 1.183 3.867s.852 3.246 1.18 4.265c.328 1.02.852 2.555 1.18 3.09s.855.914 1.183.766.852-1.063 1.18-1.84.855-2.648 1.18-3.765c.328-1.118.855-3.25 1.183-4.297.328-1.043.852-2.653 1.18-3.239s.855-1.07 1.183-.98c.325.094 1.18 1.64 1.18 1.64"/><path stroke="#2114CC" d="M1.188 15.5s.855-3.27 1.18-4.254c.327-.988.855-2.39 1.183-2.86.328-.468.851-.718 1.18-.515.328.207.855 1.184 1.183 1.996.328.809.852 2.7 1.18 3.848.328 1.152.851 3.324 1.18 4.433.328 1.114.855 2.86 1.183 3.567s.852 1.453 1.18 1.52c.328.07.855-.434 1.18-1.024.328-.59.855-2.176 1.183-3.234.328-1.055.852-3.2 1.18-4.375.328-1.172.855-3.176 1.183-4.082.325-.903.852-2.102 1.18-2.442a.816.816 0 0 1 1.18 0c.328.34.855 1.54 1.183 2.442.328.906.852 2.91 1.18 4.082.328 1.175.852 3.32 1.18 4.375.328 1.058.855 2.644 1.183 3.234s.852 1.094 1.18 1.023c.328-.066.855-.812 1.18-1.52.328-.706.855-2.452 1.183-3.566.328-1.109.852-3.28 1.18-4.433.328-1.149.855-3.04 1.183-3.848.325-.812 1.18-1.996 1.18-1.996"/><path stroke="#14CCA5" d="M1.188 15.5s.855-3.371 1.18-4.418c.327-1.05.855-2.57 1.183-3.14.328-.567.851-1.024 1.18-.946.328.082.855.82 1.183 1.524.328.703.852 2.425 1.18 3.55.328 1.121.851 3.328 1.18 4.543s.855 3.266 1.183 4.223.852 2.254 1.18 2.672c.328.422.855.59 1.18.351.328-.238.855-1.246 1.183-2.074s.852-2.722 1.18-3.898c.328-1.18.855-3.407 1.183-4.59.325-1.188.852-3.102 1.18-3.95.328-.85.852-1.898 1.18-2.163.328-.266.855-.145 1.183.25.328.394.852 1.652 1.18 2.59.328.94.852 2.968 1.18 4.18.328 1.214.855 3.425 1.183 4.558s.852 2.886 1.18 3.613c.328.723.855 1.508 1.18 1.617.328.106.855-.305 1.183-.847.328-.543.852-2.028 1.18-3.063s.855-3.168 1.183-4.395l1.18-4.445"/><path stroke="#6ECC14" d="M1.188 15.5s.855-3.496 1.18-4.613c.327-1.117.855-2.774 1.183-3.446.328-.671.851-1.343 1.18-1.402.328-.055.855.426 1.183 1s.852 2.086 1.18 3.145c.328 1.058.851 3.218 1.18 4.492.328 1.277.855 3.531 1.183 4.699s.852 2.957 1.18 3.723c.328.761.855 1.625 1.18 1.793.328.164.855-.118 1.183-.59.328-.473.852-1.828 1.18-2.82.328-.993.855-3.075 1.183-4.336.325-1.262.852-3.543 1.18-4.75.328-1.211.852-3.118 1.18-3.97.328-.85.855-1.89 1.183-2.167.328-.278.852-.195 1.18.172s.852 1.554 1.18 2.472c.328.922.855 2.91 1.183 4.149s.852 3.527 1.18 4.765c.328 1.243.855 3.25 1.18 4.184.328.93.855 2.148 1.183 2.531.328.387.852.504 1.18.242.328-.257.855-1.27 1.183-2.109.325-.836 1.18-3.926 1.18-3.926"/><path stroke="#CC3F14" d="M1.188 15.5s.855-3.648 1.18-4.848c.327-1.199.855-3 1.183-3.789.328-.785.851-1.687 1.18-1.89.328-.207.855-.008 1.183.418.328.422.852 1.675 1.18 2.632s.851 2.993 1.18 4.274c.328 1.285.855 3.648 1.183 4.976.328 1.329.852 3.508 1.18 4.59.328 1.078.855 2.598 1.18 3.192.328.593.855 1.117 1.183 1.097s.852-.609 1.18-1.238.855-2.2 1.183-3.3c.325-1.106.852-3.313 1.18-4.645s.852-3.692 1.18-4.965c.328-1.27.855-3.266 1.183-4.2.328-.929.852-2.12 1.18-2.507s.852-.516 1.18-.274c.328.247.855 1.207 1.183 2.028.328.816.852 2.664 1.18 3.879s.855 3.535 1.18 4.879c.328 1.347.855 3.636 1.183 4.816s.852 2.934 1.18 3.691c.328.754.855 1.59 1.183 1.758.325.164 1.18-.562 1.18-.562"/><path stroke="#C414CC" d="M1.188 15.5s.855-3.848 1.18-5.145c.327-1.293.855-3.261 1.183-4.18.328-.917.851-2.066 1.18-2.433.328-.37.855-.48 1.183-.23.328.246.852 1.195 1.18 2.015s.851 2.649 1.18 3.887c.328 1.234.855 3.606 1.183 5.027s.852 3.883 1.18 5.223c.328 1.344.855 3.438 1.18 4.445.328 1.012.855 2.344 1.183 2.832.328.489.852.813 1.18.688s.855-.871 1.183-1.586c.325-.711.852-2.387 1.18-3.559.328-1.168.852-3.464 1.18-4.87.328-1.403.855-3.884 1.183-5.262.328-1.38.852-3.582 1.18-4.676s.852-2.606 1.18-3.207c.328-.606.855-1.14 1.183-1.14s.852.534 1.18 1.14c.328.601.855 2.113 1.18 3.207.328 1.094.855 3.297 1.183 4.676.328 1.378.852 3.859 1.18 5.261.328 1.407.855 3.7 1.183 4.871.325 1.168 1.18 3.559 1.18 3.559"/><path stroke="#1450CC" d="M1.188 15.5s.855-4.117 1.18-5.531c.327-1.414.855-3.586 1.183-4.656s.851-2.493 1.18-3.047c.328-.559.855-1.008 1.183-.961.328.043.852.64 1.18 1.28.328.638.851 2.188 1.18 3.321.328 1.13.855 3.387 1.183 4.836.328 1.445.852 4.051 1.18 5.582.328 1.535.855 4.082 1.18 5.457.328 1.38.855 3.465 1.183 4.469s.852 2.293 1.18 2.766.855.77 1.183.636c.325-.136.852-.882 1.18-1.601s.852-2.387 1.18-3.578c.328-1.192.855-3.524 1.183-4.996s.852-4.098 1.18-5.622c.328-1.527.852-4.03 1.18-5.363.328-1.336.855-3.324 1.183-4.258.328-.937.852-2.093 1.18-2.48s.855-.527 1.18-.305c.328.223.855 1.114 1.183 1.91.328.797.852 2.582 1.18 3.829.328 1.242.855 3.644 1.183 5.14.325 1.496 1.18 5.64 1.18 5.64"/></g><use xlink:href="#b" x="66.226" y="12.267"/><path fill="none" stroke="#1450CC" stroke-miterlimit="10" stroke-width=".598" d="M41.324 10.055s2.906-1.512 4.98-1.325c2.075.184 7.891 2.47 9.966 2.653 2.07.183 4.98-1.328 4.98-1.328"/><use xlink:href="#c" x="104.705" y="12.267"/><path fill="none" stroke="#C414CC" stroke-miterlimit="10" stroke-width=".598" d="M79.8 10.055s2.91-1.512 4.985-1.325c2.07.184 7.887 2.47 9.961 2.653s4.98-1.328 4.98-1.328"/><use xlink:href="#d" x="143.185" y="12.267"/><path fill="none" stroke="#CC3F14" stroke-miterlimit="10" stroke-width=".598" d="M118.281 10.055s2.91-1.512 4.985-1.325c2.07.184 7.886 2.47 9.96 2.653s4.981-1.328 4.981-1.328"/><use xlink:href="#e" x="181.665" y="12.267"/><path fill="none" stroke="#6ECC14" stroke-miterlimit="10" stroke-width=".598" d="M156.762 10.055s2.906-1.512 4.98-1.325c2.074.184 7.89 2.47 9.965 2.653 2.07.183 4.98-1.328 4.98-1.328"/><use xlink:href="#f" x="66.226" y="23.226"/><g clip-path="url(#g)"><path fill="none" stroke="#14CCA5" stroke-miterlimit="10" stroke-width=".598" d="M41.324 21.016s2.906-1.512 4.98-1.328 7.891 2.468 9.966 2.656c2.07.183 4.98-1.328 4.98-1.328"/></g><use xlink:href="#h" x="104.705" y="23.226"/><g clip-path="url(#i)"><path fill="none" stroke="#2114CC" stroke-miterlimit="10" stroke-width=".598" d="M79.8 21.016s2.91-1.512 4.985-1.328c2.07.183 7.887 2.468 9.961 2.656 2.074.183 4.98-1.328 4.98-1.328"/></g><use xlink:href="#j" x="143.185" y="23.226"/><g clip-path="url(#k)"><path fill="none" stroke="#CC148C" stroke-miterlimit="10" stroke-width=".598" d="M118.281 21.016s2.91-1.512 4.985-1.328c2.07.183 7.886 2.468 9.96 2.656 2.075.183 4.981-1.328 4.981-1.328"/></g><use xlink:href="#l" x="181.665" y="23.226"/><g clip-path="url(#m)"><path fill="none" stroke="#CC8714" stroke-miterlimit="10" stroke-width=".598" d="M156.762 21.016s2.906-1.512 4.98-1.328 7.89 2.468 9.965 2.656c2.07.183 4.98-1.328 4.98-1.328"/></g></svg>