<svg xmlns="http://www.w3.org/2000/svg" width="115.408" height="37.738"><defs><clipPath id="a"><path d="M66 23h40v14.605H66Zm0 0"/></clipPath></defs><path fill="none" stroke="#000" stroke-miterlimit="10" stroke-width=".399" d="M15.113 8.059h27.895V1.086H15.113Zm0 0"/><path fill="none" stroke="#000" stroke-linecap="round" stroke-miterlimit="10" stroke-width=".399" d="M71.805 4.574a3.49 3.49 0 0 1 6.976 0 3.486 3.486 0 1 1 6.973 0 3.486 3.486 0 1 1 6.973 0 3.49 3.49 0 0 1 6.976 0"/><path fill="none" stroke="#000" stroke-miterlimit="10" stroke-width=".399" d="M.715 4.574h14.2m28.292 0h28.598m27.898 0h14.399M18.598 36.406H39.52v-6.972H18.598Zm0 0"/><g clip-path="url(#a)"><path fill="none" stroke="#000" stroke-linecap="round" stroke-miterlimit="10" stroke-width=".399" d="M71.805 32.922a3.49 3.49 0 0 1 6.976 0 3.486 3.486 0 1 1 6.973 0 3.486 3.486 0 1 1 6.973 0 3.49 3.49 0 0 1 6.976 0"/></g><path fill="none" stroke="#000" stroke-miterlimit="10" stroke-width=".399" d="M.715 32.922h17.683m21.32 0h32.087m27.898 0h14.399"/></svg>