<svg xmlns="http://www.w3.org/2000/svg" width="87.195" height="44.948"><defs><clipPath id="a"><path d="M0 9h86.793v35.922H0Zm0 0"/></clipPath><clipPath id="b"><path d="M0 4h69v40.922H0Zm0 0"/></clipPath></defs><path fill="#7F7F7F" d="M29.09 15.164h14.172C43.262 7.336 36.918.992 29.09.992S14.918 7.336 14.918 15.164a14.18 14.18 0 0 0 4.148 10.024Zm0 0"/><g clip-path="url(#a)"><path fill="none" stroke="#000" stroke-miterlimit="10" stroke-width=".399" d="M85.781 15.164H29.09L.742 43.512"/></g><g clip-path="url(#b)"><path fill="none" stroke="red" stroke-miterlimit="10" stroke-width=".797" d="M9.047 35.21c11.07 11.071 29.016 11.071 40.086 0a28.35 28.35 0 0 0 8.293-19.25"/></g><path fill="none" stroke="red" stroke-linecap="round" stroke-linejoin="round" stroke-miterlimit="10" stroke-width=".797" d="M54.324 18.113c1.867-.465 2.75-1.504 3.114-2.55.363 1.046 1.242 2.085 3.109 2.55"/></svg>