<svg xmlns="http://www.w3.org/2000/svg" xmlns:xlink="http://www.w3.org/1999/xlink" width="375.158" height="106.346"><defs><path id="a" d="M3.89-2.547c0-.844-.078-1.36-.343-1.875-.344-.703-1-.875-1.438-.875-1 0-1.375.75-1.484.969C.344-3.75.328-2.953.328-2.547c0 .531.016 1.328.406 1.969.36.594.954.75 1.375.75.391 0 1.063-.125 1.47-.906.296-.578.312-1.297.312-1.813M2.11-.062c-.266 0-.813-.125-.985-.954-.094-.453-.094-1.203-.094-1.625 0-.546 0-1.109.094-1.546.172-.813.781-.891.984-.891.266 0 .829.14.985.86.094.437.094 1.046.094 1.577 0 .47 0 1.188-.094 1.641-.172.828-.719.938-.985.938m0 0"/><path id="b" d="M2.5-5.078c0-.219-.016-.219-.234-.219-.328.313-.75.5-1.5.5v.266c.218 0 .64 0 1.109-.203v4.078c0 .297-.031.39-.781.39H.812V0c.329-.031 1.016-.031 1.376-.031s1.046 0 1.374.031v-.266h-.28c-.75 0-.782-.093-.782-.39Zm0 0"/><path id="c" d="M2.25-1.625c.125-.125.453-.39.594-.5.484-.453.953-.89.953-1.61 0-.953-.797-1.562-1.781-1.562-.97 0-1.594.719-1.594 1.438 0 .39.312.437.422.437.172 0 .422-.11.422-.422 0-.406-.407-.406-.5-.406.234-.594.765-.781 1.156-.781.734 0 1.125.625 1.125 1.297 0 .828-.578 1.437-1.531 2.39l-1 1.047C.422-.219.422-.203.422 0h3.14l.235-1.422h-.25c-.016.156-.078.547-.172.703-.047.063-.656.063-.781.063H1.172Zm0 0"/><path id="d" d="M2.016-2.656c.625 0 1.03.453 1.03 1.297 0 1-.562 1.28-.983 1.28-.438 0-1.047-.155-1.329-.577.297 0 .5-.188.5-.438 0-.265-.187-.437-.453-.437-.203 0-.437.125-.437.453 0 .75.812 1.25 1.734 1.25 1.047 0 1.797-.734 1.797-1.531 0-.672-.531-1.266-1.344-1.453.625-.22 1.11-.75 1.11-1.391 0-.64-.72-1.094-1.547-1.094-.86 0-1.5.453-1.5 1.063 0 .297.187.422.406.422.25 0 .406-.172.406-.407 0-.297-.265-.406-.437-.406.344-.437.953-.469 1.094-.469.203 0 .812.063.812.89 0 .548-.234.891-.344 1.016-.234.25-.422.266-.906.297-.156 0-.219.016-.219.125 0 .11.078.11.219.11Zm0 0"/><path id="e" d="M3.14-5.156c0-.157 0-.219-.171-.219-.094 0-.11 0-.188.11L.234-1.564v.25h2.25v.672c0 .297-.015.375-.64.375h-.172V0c.672-.031.687-.031 1.14-.031.454 0 .47 0 1.141.031v-.266h-.172c-.625 0-.64-.078-.64-.375v-.671h.843v-.25h-.843Zm-.593.64v2.954H.516Zm0 0"/><path id="f" d="M1.11-4.484c.109.03.421.125.765.125 1 0 1.594-.703 1.594-.828 0-.094-.047-.11-.094-.11-.016 0-.031 0-.094.031a3 3 0 0 1-1.11.22c-.468 0-.858-.11-1.108-.22-.079-.03-.094-.03-.11-.03-.094 0-.094.077-.094.234v2.328c0 .14 0 .234.125.234.063 0 .079-.031.125-.094.094-.11.391-.515 1.079-.515.437 0 .656.359.734.515.125.281.14.656.14.953s0 .735-.218 1.079c-.156.25-.485.484-.906.484A1.27 1.27 0 0 1 .734-.922c.016.016.079.016.079.016.218 0 .406-.14.406-.39a.39.39 0 0 0-.39-.407c-.157 0-.407.078-.407.422 0 .718.625 1.453 1.531 1.453 1 0 1.844-.781 1.844-1.766 0-.922-.672-1.75-1.61-1.75-.39 0-.765.125-1.078.406Zm0 0"/><path id="g" d="M1.094-2.64c0-.657.062-1.235.343-1.72.25-.406.657-.734 1.157-.734.156 0 .515.032.703.297-.36.031-.39.297-.39.375 0 .25.187.375.374.375.14 0 .375-.078.375-.39 0-.47-.36-.86-1.078-.86C1.468-5.297.344-4.25.344-2.53.344-.36 1.359.172 2.125.172c.39 0 .797-.11 1.156-.453.328-.313.594-.64.594-1.344 0-1.031-.797-1.766-1.672-1.766-.578 0-.922.36-1.11.75M2.125-.079a.88.88 0 0 1-.797-.516c-.187-.36-.203-.89-.203-1.203 0-.781.422-1.375 1.047-1.375.39 0 .64.203.781.485.172.296.172.656.172 1.062s0 .75-.156 1.047c-.219.36-.485.5-.844.5m0 0"/><path id="h" d="M4.031-4.86c.078-.077.078-.093.078-.265H2.08a9 9 0 0 1-.642-.031c-.421-.032-.421-.11-.453-.235h-.25L.47-3.703h.25c.015-.125.11-.672.219-.735.078-.046.687-.046.796-.046h1.688l-.813 1.109C1.703-2.172 1.5-.906 1.5-.281c0 .078 0 .453.375.453s.375-.36.375-.453v-.39c0-1.141.203-2.079.594-2.61Zm0 0"/><path id="i" d="M2.64-2.875c.454-.219 1-.61 1-1.234 0-.766-.78-1.188-1.515-1.188-.844 0-1.531.578-1.531 1.328 0 .297.094.563.297.797.14.172.172.188.656.5C.563-2.234.344-1.656.344-1.219c0 .89.89 1.39 1.765 1.39.97 0 1.766-.671 1.766-1.515 0-.5-.266-.828-.406-.968-.125-.126-.14-.141-.828-.563m-1.234-.75c-.234-.14-.422-.375-.422-.64 0-.5.547-.829 1.125-.829.61 0 1.125.422 1.125.985 0 .453-.359.843-.828 1.078Zm.39 1.094c.032.015.938.578 1.079.656.125.078.547.328.547.813 0 .609-.656.984-1.297.984-.719 0-1.312-.484-1.312-1.14 0-.594.437-1.063.984-1.313m0 0"/><path id="j" d="M3.125-2.344c0 1.938-.922 2.266-1.39 2.266-.173 0-.579-.016-.798-.266.36-.031.375-.297.375-.375a.37.37 0 0 0-.375-.375.37.37 0 0 0-.375.39c0 .548.454.876 1.188.876 1.094 0 2.125-1.094 2.125-2.797 0-2.062-.922-2.672-1.734-2.672-.953 0-1.797.734-1.797 1.781 0 1.016.781 1.766 1.687 1.766.563 0 .906-.36 1.094-.766Zm-1.062.375c-.376 0-.61-.172-.782-.468-.187-.282-.187-.672-.187-1.079 0-.468 0-.796.218-1.125.204-.296.454-.453.829-.453.53 0 .765.532.797.563.156.39.171 1.015.171 1.172 0 .64-.343 1.39-1.046 1.39m0 0"/><path id="k" d="M4.719-1.922c0-1.016-.766-2.016-1.953-2.016-.328 0-.72.063-1.094.235v-1.64h2.25c.172 0 .469-.016.469-.376s-.282-.375-.47-.375H1.314c-.391 0-.47.11-.47.485v2.578c0 .203.016.484.391.484.22 0 .266-.062.344-.187.25-.282.64-.453 1.172-.453.75 0 1.156.671 1.156 1.265 0 .734-.656 1.281-1.437 1.281-.235 0-.797-.062-1.063-.53.047-.048.11-.141.11-.313A.51.51 0 0 0 1-2c-.156 0-.5.094-.5.547C.5-.625 1.328.109 2.469.109c1.265 0 2.25-.921 2.25-2.03m0 0"/><path id="l" d="M4.813-1.766c0-.671-.422-1.25-1.032-1.562.5-.375.75-.906.75-1.422 0-.75-.75-1.453-1.906-1.453-1.234 0-1.922.516-1.922 1.219 0 .375.281.53.516.53s.5-.187.5-.515a.53.53 0 0 0-.063-.25c.297-.234.89-.234.969-.234.61 0 1.078.312 1.078.703 0 .281-.14.594-.39.797-.297.234-.516.281-.844.281-.64 0-.781.078-.781.39 0 .376.28.376.468.376h.453c.907 0 1.375.61 1.375 1.14 0 .563-.53 1.125-1.359 1.125-.36 0-1.016-.093-1.297-.468.063-.063.11-.157.11-.313a.51.51 0 0 0-.516-.516c-.25 0-.5.172-.5.547 0 .891.969 1.5 2.203 1.5 1.328 0 2.188-.937 2.188-1.875m0 0"/><path id="m" d="M4.438-.375c0-.36-.266-.375-.454-.375h-.812v-4.969c0-.187-.016-.484-.375-.484-.219 0-.297.14-.36.281-.343.781-.828.89-.984.906-.203.016-.437.047-.437.375 0 .313.203.375.39.375.172 0 .532-.046.938-.343V-.75H1.53c-.187 0-.468.016-.468.375 0 .36.296.375.468.375h2.453c.172 0 .454-.016.454-.375m0 0"/><path id="n" d="M4.75-3.047c0-1.86-1.047-3.156-2.14-3.156C1.5-6.203.483-4.875.483-3.047.484-1.187 1.516.11 2.61.11 3.734.11 4.75-1.219 4.75-3.047m-.828-.11c0 1.391-.578 2.516-1.313 2.516-.718 0-1.312-1.125-1.312-2.515 0-1.36.625-2.297 1.312-2.297s1.313.937 1.313 2.297m0 0"/><path id="o" d="M5.188-.375c0-.36-.282-.375-.47-.375-.28 0-.421-.031-.5-.062v-2.032c0-.719-.546-1.578-2-1.578-.437 0-1.484.031-1.484.781 0 .344.25.516.516.516.172 0 .5-.094.5-.531 0 0 .328-.016.484-.016.657 0 1.125.25 1.157.828-1.72.047-2.907.578-2.907 1.516 0 .703.625 1.39 1.672 1.39.36 0 .938-.078 1.406-.359.25.281.688.297 1.063.297.328 0 .563-.016.563-.375m-1.813-1c0 .188 0 .375-.328.531s-.75.156-.828.156c-.547 0-.922-.296-.922-.64 0-.438.781-.734 2.078-.781Zm0 0"/><path id="p" d="M4.89-2.172c0-1.25-.906-2.219-1.984-2.219-.422 0-.828.141-1.156.375v-1.593c0-.36-.062-.485-.469-.485H.578c-.187 0-.484.016-.484.375 0 .36.312.375.469.375h.359v4.86c0 .25.015.484.422.484.312 0 .39-.14.406-.344.375.328.766.407 1.047.407C3.89.063 4.89-.891 4.89-2.172m-.827 0c0 .875-.641 1.485-1.282 1.485-.703 0-1.015-.813-1.015-1.25v-.704c0-.546.53-1.015 1.093-1.015.672 0 1.204.687 1.204 1.484m0 0"/><path id="q" d="M4.688-2.172c0-1.265-.954-2.25-2.079-2.25S.531-3.438.531-2.172C.531-.89 1.5.063 2.61.063c1.11 0 2.079-.97 2.079-2.235m-.829-.078c0 .86-.562 1.563-1.25 1.563-.671 0-1.25-.704-1.25-1.563 0-.828.61-1.422 1.25-1.422.657 0 1.25.594 1.25 1.422m0 0"/><path id="r" d="M5.11-.375c0-.36-.298-.375-.454-.375h-.36v-3.125c0-.36-.077-.469-.468-.469h-.703c-.187 0-.484.016-.484.375 0 .36.297.375.468.375h.36v1.985c0 .812-.735.922-1.031.922-.672 0-.688-.282-.688-.563v-2.625c0-.36-.062-.469-.469-.469H.578c-.187 0-.469.016-.469.375 0 .36.297.375.454.375h.359v2.407c0 .984.719 1.25 1.469 1.25.375 0 .75-.094 1.093-.313.063.234.266.25.454.25h.703c.187 0 .468-.016.468-.375m0 0"/><path id="s" d="M4.5-1.312c0-.204 0-.438-.422-.438-.39 0-.406.234-.406.438 0 .53-.5.625-.719.625-.656 0-.656-.454-.656-.672v-2.235h1.515c.172 0 .47-.015.47-.375 0-.375-.282-.375-.47-.375H2.298v-.718c0-.22-.016-.47-.406-.47-.422 0-.422.235-.422.47v.718H.703c-.187 0-.469.016-.469.375 0 .36.282.375.454.375h.78v2.282c0 1 .688 1.375 1.454 1.375.75 0 1.578-.454 1.578-1.375m0 0"/><path id="t" d="M4.86-3.781c0-.406-.407-.422-.563-.422H.922c-.156 0-.563.016-.563.422s.375.406.516.406h3.469c.14 0 .515 0 .515-.406m0 1.469c0-.407-.376-.422-.516-.422H.875c-.14 0-.516.015-.516.422s.407.421.563.421h3.375c.156 0 .562-.015.562-.421m0 0"/></defs><path fill="none" stroke="#000" stroke-linecap="round" stroke-miterlimit="10" stroke-width=".399" d="M38.223 88.52h3.984M38.223 80.016h3.984M38.223 71.512h3.984M38.223 63.008h3.984M38.223 54.504h3.984M38.223 46h3.984M38.223 37.496h3.984M38.223 28.992h3.984M38.223 20.488h3.984M38.223 11.984h3.984M38.223 3.48h3.984"/><path fill="none" stroke="#000" stroke-miterlimit="10" stroke-width=".399" d="M40.215 88.52V3.879"/><path fill="none" stroke="#000" stroke-linecap="round" stroke-linejoin="round" stroke-miterlimit="10" stroke-width=".399" d="M37.824 5.754c1.438-.379 2.114-1.223 2.39-2.074.282.851.958 1.695 2.391 2.074"/><path fill="none" stroke="#000" stroke-linecap="round" stroke-miterlimit="10" stroke-width=".399" d="M68.113 88.52h3.985M68.113 46h3.985M68.113 3.48h3.985"/><path fill="none" stroke="#000" stroke-miterlimit="10" stroke-width=".399" d="M70.105 88.52V3.879"/><path fill="none" stroke="#000" stroke-linecap="round" stroke-linejoin="round" stroke-miterlimit="10" stroke-width=".399" d="M67.715 5.754c1.433-.379 2.11-1.223 2.39-2.074.278.851.957 1.695 2.391 2.074"/><path fill="none" stroke="#000" stroke-linecap="round" stroke-miterlimit="10" stroke-width=".399" d="M98 88.52h3.984M98 60.176h3.984M98 31.828h3.984M98 3.48h3.984"/><path fill="none" stroke="#000" stroke-miterlimit="10" stroke-width=".399" d="M99.992 88.52V3.879"/><path fill="none" stroke="#000" stroke-linecap="round" stroke-linejoin="round" stroke-miterlimit="10" stroke-width=".399" d="M97.602 5.754c1.433-.379 2.113-1.223 2.39-2.074.281.851.957 1.695 2.39 2.074"/><path fill="none" stroke="#000" stroke-linecap="round" stroke-miterlimit="10" stroke-width=".399" d="M127.887 88.52h3.988M127.887 67.262h3.988M127.887 46h3.988M127.887 24.742h3.988M127.887 3.48h3.988"/><path fill="none" stroke="#000" stroke-miterlimit="10" stroke-width=".399" d="M129.883 88.52V3.879"/><path fill="none" stroke="#000" stroke-linecap="round" stroke-linejoin="round" stroke-miterlimit="10" stroke-width=".399" d="M127.488 5.754c1.438-.379 2.114-1.223 2.395-2.074.277.851.953 1.695 2.39 2.074"/><path fill="none" stroke="#000" stroke-linecap="round" stroke-miterlimit="10" stroke-width=".399" d="M157.777 88.52h3.985M157.777 71.512h3.985M157.777 54.504h3.985M157.777 37.496h3.985M157.777 20.488h3.985M157.777 3.48h3.985"/><path fill="none" stroke="#000" stroke-miterlimit="10" stroke-width=".399" d="M159.77 88.52V3.879"/><path fill="none" stroke="#000" stroke-linecap="round" stroke-linejoin="round" stroke-miterlimit="10" stroke-width=".399" d="M157.379 5.754c1.434-.379 2.113-1.223 2.39-2.074.278.851.958 1.695 2.391 2.074"/><path fill="none" stroke="#000" stroke-linecap="round" stroke-miterlimit="10" stroke-width=".399" d="M187.664 88.52h3.984M187.664 74.348h3.984M187.664 60.176h3.984M187.664 46h3.984M187.664 31.828h3.984M187.664 17.656h3.984M187.664 3.48h3.984"/><path fill="none" stroke="#000" stroke-miterlimit="10" stroke-width=".399" d="M189.656 88.52V3.879"/><path fill="none" stroke="#000" stroke-linecap="round" stroke-linejoin="round" stroke-miterlimit="10" stroke-width=".399" d="M187.266 5.754c1.437-.379 2.113-1.223 2.39-2.074.281.851.957 1.695 2.395 2.074"/><path fill="none" stroke="#000" stroke-linecap="round" stroke-miterlimit="10" stroke-width=".399" d="M217.555 88.52h3.984M217.555 76.371h3.984M217.555 64.223h3.984M217.555 52.074h3.984M217.555 39.926h3.984M217.555 27.777h3.984M217.555 15.629h3.984M217.555 3.48h3.984"/><path fill="none" stroke="#000" stroke-miterlimit="10" stroke-width=".399" d="M219.547 88.52V3.879"/><path fill="none" stroke="#000" stroke-linecap="round" stroke-linejoin="round" stroke-miterlimit="10" stroke-width=".399" d="M217.156 5.754c1.434-.379 2.11-1.223 2.39-2.074.278.851.958 1.695 2.392 2.074"/><path fill="none" stroke="#000" stroke-linecap="round" stroke-miterlimit="10" stroke-width=".399" d="M247.441 88.52h3.985M247.441 77.89h3.985M247.441 67.262h3.985M247.441 56.633h3.985M247.441 46h3.985M247.441 35.371h3.985M247.441 24.742h3.985M247.441 14.11h3.985M247.441 3.48h3.985"/><path fill="none" stroke="#000" stroke-miterlimit="10" stroke-width=".399" d="M249.434 88.52V3.879"/><path fill="none" stroke="#000" stroke-linecap="round" stroke-linejoin="round" stroke-miterlimit="10" stroke-width=".399" d="M247.043 5.754c1.434-.379 2.113-1.223 2.39-2.074.282.851.958 1.695 2.391 2.074"/><path fill="none" stroke="#000" stroke-linecap="round" stroke-miterlimit="10" stroke-width=".399" d="M277.332 88.52h3.984M277.332 79.07h3.984M277.332 69.625h3.984M277.332 60.176h3.984M277.332 50.727h3.984M277.332 41.277h3.984M277.332 31.828h3.984M277.332 22.379h3.984M277.332 12.93h3.984M277.332 3.48h3.984"/><path fill="none" stroke="#000" stroke-miterlimit="10" stroke-width=".399" d="M279.324 88.52V3.879"/><path fill="none" stroke="#000" stroke-linecap="round" stroke-linejoin="round" stroke-miterlimit="10" stroke-width=".399" d="M276.934 5.754c1.433-.379 2.109-1.223 2.39-2.074.278.851.953 1.695 2.39 2.074"/><path fill="none" stroke="#000" stroke-linecap="round" stroke-miterlimit="10" stroke-width=".399" d="M307.219 88.52h3.984M307.219 80.016h3.984M307.219 71.512h3.984M307.219 63.008h3.984M307.219 54.504h3.984M307.219 46h3.984M307.219 37.496h3.984M307.219 28.992h3.984M307.219 20.488h3.984M307.219 11.984h3.984M307.219 3.48h3.984"/><path fill="none" stroke="#000" stroke-miterlimit="10" stroke-width=".399" d="M309.21 88.52V3.879"/><path fill="none" stroke="#000" stroke-linecap="round" stroke-linejoin="round" stroke-miterlimit="10" stroke-width=".399" d="M306.82 5.754c1.434-.379 2.114-1.223 2.39-2.074.278.851.958 1.695 2.392 2.074"/><path fill="none" stroke="#000" stroke-linecap="round" stroke-miterlimit="10" stroke-width=".399" d="M337.105 88.52h3.989M337.105 3.48h3.989"/><path fill="none" stroke="#000" stroke-miterlimit="10" stroke-width=".399" d="M339.098 88.52V3.879"/><path fill="none" stroke="#000" stroke-linecap="round" stroke-linejoin="round" stroke-miterlimit="10" stroke-width=".399" d="M336.707 5.754c1.438-.379 2.113-1.223 2.39-2.074.282.851.958 1.695 2.395 2.074"/><path fill="none" stroke="#000" stroke-linecap="round" stroke-miterlimit="10" stroke-width=".399" d="M366.996 88.52h3.984M366.996 80.016h3.984M366.996 71.512h3.984M366.996 63.008h3.984M366.996 54.504h3.984M366.996 46h3.984M366.996 37.496h3.984M366.996 28.992h3.984M366.996 20.488h3.984M366.996 11.984h3.984M366.996 3.48h3.984"/><path fill="none" stroke="#000" stroke-miterlimit="10" stroke-width=".399" d="M368.988 88.52V3.879"/><path fill="none" stroke="#000" stroke-linecap="round" stroke-linejoin="round" stroke-miterlimit="10" stroke-width=".399" d="M366.598 5.754c1.433-.379 2.109-1.223 2.39-2.074.278.851.957 1.695 2.39 2.074"/><use xlink:href="#a" x="31.333" y="91.089"/><use xlink:href="#b" x="31.333" y="82.585"/><use xlink:href="#c" x="31.333" y="74.081"/><use xlink:href="#d" x="31.333" y="65.577"/><use xlink:href="#e" x="31.333" y="57.073"/><use xlink:href="#f" x="31.333" y="48.569"/><use xlink:href="#g" x="31.333" y="40.065"/><use xlink:href="#h" x="31.333" y="31.561"/><use xlink:href="#i" x="31.333" y="23.057"/><use xlink:href="#j" x="31.333" y="14.553"/><use xlink:href="#b" x="27.099" y="6.05"/><use xlink:href="#a" x="31.334" y="6.05"/><use xlink:href="#k" x="37.601" y="104.906"/><use xlink:href="#a" x="61.221" y="91.089"/><use xlink:href="#b" x="56.987" y="48.569"/><use xlink:href="#a" x="61.222" y="48.569"/><use xlink:href="#c" x="56.987" y="6.05"/><use xlink:href="#a" x="61.222" y="6.05"/><use xlink:href="#k" x="67.489" y="104.906"/><use xlink:href="#a" x="91.109" y="91.089"/><use xlink:href="#b" x="86.875" y="62.742"/><use xlink:href="#a" x="91.11" y="62.742"/><use xlink:href="#c" x="86.875" y="34.396"/><use xlink:href="#a" x="91.11" y="34.396"/><use xlink:href="#d" x="86.875" y="6.05"/><use xlink:href="#a" x="91.11" y="6.05"/><use xlink:href="#k" x="97.377" y="104.906"/><use xlink:href="#a" x="120.997" y="91.089"/><use xlink:href="#b" x="116.763" y="69.829"/><use xlink:href="#a" x="120.998" y="69.829"/><use xlink:href="#c" x="116.763" y="48.569"/><use xlink:href="#a" x="120.998" y="48.569"/><use xlink:href="#d" x="116.763" y="27.31"/><use xlink:href="#a" x="120.998" y="27.31"/><use xlink:href="#e" x="116.763" y="6.05"/><use xlink:href="#a" x="120.998" y="6.05"/><use xlink:href="#k" x="127.265" y="104.906"/><use xlink:href="#a" x="150.885" y="91.089"/><use xlink:href="#b" x="146.651" y="74.081"/><use xlink:href="#a" x="150.886" y="74.081"/><use xlink:href="#c" x="146.651" y="57.073"/><use xlink:href="#a" x="150.886" y="57.073"/><use xlink:href="#d" x="146.651" y="40.066"/><use xlink:href="#a" x="150.886" y="40.066"/><use xlink:href="#e" x="146.651" y="23.058"/><use xlink:href="#a" x="150.886" y="23.058"/><use xlink:href="#f" x="146.651" y="6.05"/><use xlink:href="#a" x="150.886" y="6.05"/><use xlink:href="#k" x="157.152" y="104.906"/><use xlink:href="#a" x="180.773" y="91.089"/><use xlink:href="#b" x="176.539" y="76.916"/><use xlink:href="#a" x="180.774" y="76.916"/><use xlink:href="#c" x="176.539" y="62.743"/><use xlink:href="#a" x="180.774" y="62.743"/><use xlink:href="#d" x="176.539" y="48.57"/><use xlink:href="#a" x="180.774" y="48.57"/><use xlink:href="#e" x="176.539" y="34.397"/><use xlink:href="#a" x="180.774" y="34.397"/><use xlink:href="#f" x="176.539" y="20.224"/><use xlink:href="#a" x="180.774" y="20.224"/><use xlink:href="#g" x="176.539" y="6.05"/><use xlink:href="#a" x="180.774" y="6.05"/><use xlink:href="#k" x="187.04" y="104.906"/><use xlink:href="#a" x="210.661" y="91.089"/><use xlink:href="#b" x="206.427" y="78.94"/><use xlink:href="#a" x="210.662" y="78.94"/><use xlink:href="#c" x="206.427" y="66.792"/><use xlink:href="#a" x="210.662" y="66.792"/><use xlink:href="#d" x="206.427" y="54.644"/><use xlink:href="#a" x="210.662" y="54.644"/><use xlink:href="#e" x="206.427" y="42.495"/><use xlink:href="#a" x="210.662" y="42.495"/><use xlink:href="#f" x="206.427" y="30.347"/><use xlink:href="#a" x="210.662" y="30.347"/><use xlink:href="#g" x="206.427" y="18.199"/><use xlink:href="#a" x="210.662" y="18.199"/><use xlink:href="#h" x="206.427" y="6.05"/><use xlink:href="#a" x="210.662" y="6.05"/><use xlink:href="#k" x="216.928" y="104.906"/><use xlink:href="#a" x="240.549" y="91.089"/><use xlink:href="#b" x="236.315" y="80.459"/><use xlink:href="#a" x="240.55" y="80.459"/><use xlink:href="#c" x="236.315" y="69.829"/><use xlink:href="#a" x="240.55" y="69.829"/><use xlink:href="#d" x="236.315" y="59.199"/><use xlink:href="#a" x="240.55" y="59.199"/><use xlink:href="#e" x="236.315" y="48.569"/><use xlink:href="#a" x="240.55" y="48.569"/><use xlink:href="#f" x="236.315" y="37.94"/><use xlink:href="#a" x="240.55" y="37.94"/><use xlink:href="#g" x="236.315" y="27.31"/><use xlink:href="#a" x="240.55" y="27.31"/><use xlink:href="#h" x="236.315" y="16.68"/><use xlink:href="#a" x="240.55" y="16.68"/><use xlink:href="#i" x="236.315" y="6.05"/><use xlink:href="#a" x="240.55" y="6.05"/><use xlink:href="#k" x="246.816" y="104.906"/><use xlink:href="#a" x="270.437" y="91.089"/><use xlink:href="#b" x="266.202" y="81.64"/><use xlink:href="#a" x="270.437" y="81.64"/><use xlink:href="#c" x="266.202" y="72.191"/><use xlink:href="#a" x="270.437" y="72.191"/><use xlink:href="#d" x="266.202" y="62.743"/><use xlink:href="#a" x="270.437" y="62.743"/><use xlink:href="#e" x="266.202" y="53.294"/><use xlink:href="#a" x="270.437" y="53.294"/><use xlink:href="#f" x="266.202" y="43.845"/><use xlink:href="#a" x="270.437" y="43.845"/><use xlink:href="#g" x="266.202" y="34.397"/><use xlink:href="#a" x="270.437" y="34.397"/><use xlink:href="#h" x="266.202" y="24.948"/><use xlink:href="#a" x="270.437" y="24.948"/><use xlink:href="#i" x="266.202" y="15.499"/><use xlink:href="#a" x="270.437" y="15.499"/><use xlink:href="#j" x="266.202" y="6.051"/><use xlink:href="#a" x="270.437" y="6.051"/><use xlink:href="#k" x="276.704" y="104.906"/><use xlink:href="#a" x="300.325" y="91.089"/><use xlink:href="#b" x="296.09" y="82.585"/><use xlink:href="#a" x="300.325" y="82.585"/><use xlink:href="#c" x="296.09" y="74.081"/><use xlink:href="#a" x="300.325" y="74.081"/><use xlink:href="#d" x="296.09" y="65.577"/><use xlink:href="#a" x="300.325" y="65.577"/><use xlink:href="#e" x="296.09" y="57.073"/><use xlink:href="#a" x="300.325" y="57.073"/><use xlink:href="#f" x="296.09" y="48.569"/><use xlink:href="#a" x="300.325" y="48.569"/><use xlink:href="#g" x="296.09" y="40.065"/><use xlink:href="#a" x="300.325" y="40.065"/><use xlink:href="#h" x="296.09" y="31.561"/><use xlink:href="#a" x="300.325" y="31.561"/><use xlink:href="#i" x="296.09" y="23.057"/><use xlink:href="#a" x="300.325" y="23.057"/><use xlink:href="#j" x="296.09" y="14.553"/><use xlink:href="#a" x="300.325" y="14.553"/><use xlink:href="#b" x="291.856" y="6.05"/><use xlink:href="#a" x="296.091" y="6.05"/><use xlink:href="#a" x="300.325" y="6.05"/><use xlink:href="#k" x="306.592" y="104.906"/><use xlink:href="#a" x="330.212" y="91.089"/><use xlink:href="#b" x="321.744" y="6.05"/><use xlink:href="#a" x="325.979" y="6.05"/><use xlink:href="#a" x="330.213" y="6.05"/><use xlink:href="#l" x="336.48" y="104.906"/><use xlink:href="#a" x="360.1" y="91.089"/><use xlink:href="#b" x="355.866" y="82.585"/><use xlink:href="#a" x="360.101" y="82.585"/><use xlink:href="#c" x="355.866" y="74.081"/><use xlink:href="#a" x="360.101" y="74.081"/><use xlink:href="#d" x="355.866" y="65.577"/><use xlink:href="#a" x="360.101" y="65.577"/><use xlink:href="#e" x="355.866" y="57.073"/><use xlink:href="#a" x="360.101" y="57.073"/><use xlink:href="#f" x="355.866" y="48.569"/><use xlink:href="#a" x="360.101" y="48.569"/><use xlink:href="#g" x="355.866" y="40.065"/><use xlink:href="#a" x="360.101" y="40.065"/><use xlink:href="#h" x="355.866" y="31.561"/><use xlink:href="#a" x="360.101" y="31.561"/><use xlink:href="#i" x="355.866" y="23.057"/><use xlink:href="#a" x="360.101" y="23.057"/><use xlink:href="#j" x="355.866" y="14.553"/><use xlink:href="#a" x="360.101" y="14.553"/><use xlink:href="#b" x="351.632" y="6.05"/><use xlink:href="#a" x="355.867" y="6.05"/><use xlink:href="#a" x="360.101" y="6.05"/><use xlink:href="#m" x="363.753" y="104.906"/><use xlink:href="#n" x="368.983" y="104.906"/><use xlink:href="#o" x=".084" y="104.906"/><use xlink:href="#p" x="5.314" y="104.906"/><use xlink:href="#q" x="10.545" y="104.906"/><use xlink:href="#r" x="15.775" y="104.906"/><use xlink:href="#s" x="21.006" y="104.906"/><use xlink:href="#t" x="26.236" y="104.906"/></svg>