<svg xmlns="http://www.w3.org/2000/svg" xmlns:xlink="http://www.w3.org/1999/xlink" width="178.605" height="130.358"><defs><path id="b" d="M3.89-2.547c0-.844-.078-1.36-.343-1.875-.344-.703-1-.875-1.438-.875-1 0-1.375.75-1.484.969C.344-3.75.328-2.953.328-2.547c0 .531.016 1.328.406 1.969.36.594.954.75 1.375.75.391 0 1.063-.125 1.47-.906.296-.578.312-1.297.312-1.813M2.11-.062c-.266 0-.813-.125-.985-.954-.094-.453-.094-1.203-.094-1.625 0-.546 0-1.109.094-1.546.172-.813.781-.891.984-.891.266 0 .829.14.985.86.094.437.094 1.046.094 1.577 0 .47 0 1.188-.094 1.641-.172.828-.719.938-.985.938m0 0"/><path id="c" d="M2.5-5.078c0-.219-.016-.219-.234-.219-.328.313-.75.5-1.5.5v.266c.218 0 .64 0 1.109-.203v4.078c0 .297-.031.39-.781.39H.812V0c.329-.031 1.016-.031 1.376-.031s1.046 0 1.374.031v-.266h-.28c-.75 0-.782-.093-.782-.39Zm0 0"/><path id="d" d="M2.25-1.625c.125-.125.453-.39.594-.5.484-.453.953-.89.953-1.61 0-.953-.797-1.562-1.781-1.562-.97 0-1.594.719-1.594 1.438 0 .39.312.437.422.437.172 0 .422-.11.422-.422 0-.406-.407-.406-.5-.406.234-.594.765-.781 1.156-.781.734 0 1.125.625 1.125 1.297 0 .828-.578 1.437-1.531 2.39l-1 1.047C.422-.219.422-.203.422 0h3.14l.235-1.422h-.25c-.016.156-.078.547-.172.703-.047.063-.656.063-.781.063H1.172Zm0 0"/><path id="e" d="M2.016-2.656c.625 0 1.03.453 1.03 1.297 0 1-.562 1.28-.983 1.28-.438 0-1.047-.155-1.329-.577.297 0 .5-.188.5-.438 0-.265-.187-.437-.453-.437-.203 0-.437.125-.437.453 0 .75.812 1.25 1.734 1.25 1.047 0 1.797-.734 1.797-1.531 0-.672-.531-1.266-1.344-1.453.625-.22 1.11-.75 1.11-1.391 0-.64-.72-1.094-1.547-1.094-.86 0-1.5.453-1.5 1.063 0 .297.187.422.406.422.25 0 .406-.172.406-.407 0-.297-.265-.406-.437-.406.344-.437.953-.469 1.094-.469.203 0 .812.063.812.89 0 .548-.234.891-.344 1.016-.234.25-.422.266-.906.297-.156 0-.219.016-.219.125 0 .11.078.11.219.11Zm0 0"/><path id="f" d="M3.14-5.156c0-.157 0-.219-.171-.219-.094 0-.11 0-.188.11L.234-1.564v.25h2.25v.672c0 .297-.015.375-.64.375h-.172V0c.672-.031.687-.031 1.14-.031.454 0 .47 0 1.141.031v-.266h-.172c-.625 0-.64-.078-.64-.375v-.671h.843v-.25h-.843Zm-.593.64v2.954H.516Zm0 0"/><path id="g" d="M1.11-4.484c.109.03.421.125.765.125 1 0 1.594-.703 1.594-.828 0-.094-.047-.11-.094-.11-.016 0-.031 0-.094.031a3 3 0 0 1-1.11.22c-.468 0-.858-.11-1.108-.22-.079-.03-.094-.03-.11-.03-.094 0-.094.077-.094.234v2.328c0 .14 0 .234.125.234.063 0 .079-.031.125-.094.094-.11.391-.515 1.079-.515.437 0 .656.359.734.515.125.281.14.656.14.953s0 .735-.218 1.079c-.156.25-.485.484-.906.484A1.27 1.27 0 0 1 .734-.922c.016.016.079.016.079.016.218 0 .406-.14.406-.39a.39.39 0 0 0-.39-.407c-.157 0-.407.078-.407.422 0 .718.625 1.453 1.531 1.453 1 0 1.844-.781 1.844-1.766 0-.922-.672-1.75-1.61-1.75-.39 0-.765.125-1.078.406Zm0 0"/><path id="h" d="M1.094-2.64c0-.657.062-1.235.343-1.72.25-.406.657-.734 1.157-.734.156 0 .515.032.703.297-.36.031-.39.297-.39.375 0 .25.187.375.374.375.14 0 .375-.078.375-.39 0-.47-.36-.86-1.078-.86C1.468-5.297.344-4.25.344-2.53.344-.36 1.359.172 2.125.172c.39 0 .797-.11 1.156-.453.328-.313.594-.64.594-1.344 0-1.031-.797-1.766-1.672-1.766-.578 0-.922.36-1.11.75M2.125-.079a.88.88 0 0 1-.797-.516c-.187-.36-.203-.89-.203-1.203 0-.781.422-1.375 1.047-1.375.39 0 .64.203.781.485.172.296.172.656.172 1.062s0 .75-.156 1.047c-.219.36-.485.5-.844.5m0 0"/><path id="i" d="M1.625-1.984a.453.453 0 0 0-.453-.453A.437.437 0 0 0 .734-2a.45.45 0 0 0 .438.453c.25 0 .453-.219.453-.437m0 0"/><path id="j" d="M4.766-1.344c.093 0 .25 0 .25-.156s-.157-.156-.25-.156H1c-.11 0-.25 0-.25.156s.14.156.25.156Zm0 0"/><path id="k" d="M.969-1.984c.015-.297.031-.797.234-1.157.266-.468.656-.64 1.016-.64.14 0 .422.015.562.187-.219.047-.265.188-.265.297 0 .156.109.281.297.281.171 0 .28-.109.28-.296 0-.376-.265-.672-.874-.672-.938 0-1.844.812-1.844 2.093 0 1.454.672 2.016 1.469 2.016.234 0 .64-.031 1-.39.203-.188.422-.422.422-.954 0-.203-.016-.593-.375-.922-.22-.203-.485-.406-.985-.406-.422 0-.734.219-.937.563m.875 1.89C1-.094 1-1.125 1-1.359c0-.5.328-1 .875-1 .313 0 .484.125.625.312.172.235.172.516.172.828 0 .407-.016.61-.219.86-.14.172-.328.265-.61.265m0 0"/><path id="l" d="M2.14-3.797c0-.187-.015-.187-.203-.187-.39.39-1 .39-1.218.39v.235c.156 0 .562 0 .922-.172v3.015c0 .204 0 .282-.625.282h-.25V0c.328-.031.797-.031 1.125-.031s.797 0 1.125.031v-.234h-.25c-.625 0-.625-.078-.625-.282Zm0 0"/><path id="m" d="M3.219-1.125H3c-.016.094-.078.484-.156.547-.047.047-.531.047-.625.047h-1.11l.766-.625c.203-.172.734-.547.922-.735.172-.171.422-.484.422-.906 0-.75-.672-1.187-1.485-1.187-.765 0-1.296.515-1.296 1.078 0 .297.25.344.312.344a.32.32 0 0 0 .328-.329c0-.125-.078-.328-.344-.328.141-.297.5-.531.922-.531.625 0 .953.469.953.953 0 .422-.28.86-.687 1.25L.5-.25C.438-.187.438-.187.438 0H3.03Zm0 0"/><path id="n" d="M2.297-2.156c.453-.203.781-.5.781-.922 0-.594-.625-.906-1.25-.906-.672 0-1.265.406-1.265 1.015 0 .375.25.656.5.813.062.031.203.11.265.14-.39.157-.953.485-.953 1.094 0 .703.75 1.047 1.438 1.047.796 0 1.453-.484 1.453-1.14 0-.423-.25-.657-.328-.75-.126-.11-.422-.282-.641-.391M1.219-2.75c-.016-.016-.313-.172-.313-.453 0-.39.469-.578.907-.578.468 0 .937.25.937.703 0 .469-.5.703-.672.797Zm.343.86c.079.046.72.406.876.484.124.078.453.25.453.593 0 .485-.547.72-1.063.72-.547 0-1.062-.313-1.062-.829 0-.515.468-.844.797-.969m0 0"/><path id="o" d="M3.375-.984v-.235h-.703v-2.64c0-.141 0-.188-.14-.188-.11 0-.126.031-.173.094L.281-1.22v.235h1.86V-.5c0 .188 0 .266-.5.266h-.188V0c.125 0 .688-.031.953-.031.266 0 .828.031.938.031v-.234h-.172c-.5 0-.5-.078-.5-.266v-.484ZM2.172-3.391v2.172H.532Zm0 0"/><path id="p" d="M1.766-1.984c.5 0 .843.343.843.953 0 .656-.39.937-.828.937C1.61-.094 1-.125.734-.469c.235-.031.329-.187.329-.343a.33.33 0 0 0-.344-.344.34.34 0 0 0-.344.36c0 .593.656.921 1.422.921.89 0 1.469-.562 1.469-1.156 0-.438-.328-.907-1.047-1.078.484-.157.86-.547.86-1.032 0-.484-.563-.843-1.282-.843-.703 0-1.234.328-1.234.812 0 .266.203.328.328.328.156 0 .312-.094.312-.312 0-.188-.125-.297-.297-.313.282-.312.828-.312.89-.312.298 0 .688.14.688.64 0 .329-.187.907-.796.938-.11 0-.266.015-.313.015-.062.016-.125.016-.125.11s.063.094.156.094Zm0 0"/><path id="q" d="M3.297-1.906c0-.438 0-2.078-1.469-2.078S.36-2.344.36-1.906c0 .422 0 2.031 1.47 2.031 1.468 0 1.468-1.61 1.468-2.031M1.828-.062a.84.84 0 0 1-.812-.625C.922-1.031.922-1.61.922-1.984c0-.407 0-.86.094-1.188.14-.531.593-.61.812-.61.266 0 .672.126.797.579.094.312.094.75.094 1.219 0 .375 0 .984-.094 1.312a.825.825 0 0 1-.797.61m0 0"/><clipPath id="a"><path d="M25 0h153.406v128H25Zm0 0"/></clipPath></defs><path fill="none" stroke="#BFBFBF" stroke-miterlimit="10" stroke-width=".399" d="M33.48 107.754h141.735M33.48 90.746h141.735M33.48 73.738h141.735M33.48 56.73h141.735M33.48 39.719h141.735M33.48 22.71h141.735M33.48 5.703h141.735"/><path fill="none" stroke="#7F7F7F" stroke-linecap="round" stroke-miterlimit="10" stroke-width=".399" d="M33.48 121.086v-1.992M57.102 121.086v-1.992M80.727 121.086v-1.992M104.348 121.086v-1.992M127.969 121.086v-1.992M151.59 121.086v-1.992M175.21 121.086v-1.992M33.48 2.871V.88M57.102 2.871V.88M80.727 2.871V.88M104.348 2.871V.88M127.969 2.871V.88M151.59 2.871V.88M175.21 2.871V.88M31.488 107.754h1.992M31.488 90.746h1.992M31.488 73.738h1.992M31.488 56.73h1.992M31.488 39.719h1.992M31.488 22.71h1.992M31.488 5.703h1.992M175.215 107.754h1.992M175.215 90.746h1.992M175.215 73.738h1.992M175.215 56.73h1.992M175.215 39.719h1.992M175.215 22.71h1.992M175.215 5.703h1.992"/><path fill="none" stroke="#7F7F7F" stroke-miterlimit="10" stroke-width=".399" d="M33.48 119.094h141.735M33.48 2.871h141.735M33.48 119.094V2.87M175.215 119.094V2.87"/><g clip-path="url(#a)"><path fill="none" stroke="#000" stroke-miterlimit="10" stroke-width=".598" d="m33.48 119.094 23.622-28.348L80.727 76.57l23.62-17.007L127.97 2.87l23.62 63.215 23.622-28.348"/></g><use xlink:href="#b" x="31.363" y="128.876"/><use xlink:href="#c" x="54.986" y="128.876"/><use xlink:href="#d" x="78.606" y="128.876"/><use xlink:href="#e" x="102.228" y="128.876"/><use xlink:href="#f" x="125.85" y="128.876"/><use xlink:href="#g" x="149.471" y="128.876"/><use xlink:href="#h" x="173.093" y="128.876"/><use xlink:href="#c" x=".106" y="111.085"/><use xlink:href="#i" x="6.223" y="111.085"/><use xlink:href="#c" x="10.457" y="111.085"/><use xlink:href="#b" x="14.691" y="111.085"/><use xlink:href="#j" x="18.925" y="108.272"/><use xlink:href="#k" x="24.681" y="108.272"/><use xlink:href="#c" x="24.599" y="93.313"/><use xlink:href="#c" x="5.862" y="77.069"/><use xlink:href="#i" x="11.979" y="77.069"/><use xlink:href="#c" x="16.213" y="77.069"/><use xlink:href="#b" x="20.448" y="77.069"/><use xlink:href="#k" x="24.681" y="74.257"/><use xlink:href="#c" x="2.209" y="60.062"/><use xlink:href="#i" x="8.326" y="60.062"/><use xlink:href="#c" x="12.56" y="60.062"/><use xlink:href="#b" x="16.795" y="60.062"/><use xlink:href="#l" x="21.029" y="57.249"/><use xlink:href="#m" x="24.681" y="57.249"/><use xlink:href="#c" x="2.209" y="43.054"/><use xlink:href="#i" x="8.326" y="43.054"/><use xlink:href="#c" x="12.56" y="43.054"/><use xlink:href="#b" x="16.795" y="43.054"/><use xlink:href="#l" x="21.029" y="40.241"/><use xlink:href="#n" x="24.681" y="40.241"/><use xlink:href="#c" x="2.209" y="26.046"/><use xlink:href="#i" x="8.326" y="26.046"/><use xlink:href="#c" x="12.56" y="26.046"/><use xlink:href="#b" x="16.795" y="26.046"/><use xlink:href="#m" x="21.029" y="23.233"/><use xlink:href="#o" x="24.681" y="23.233"/><use xlink:href="#c" x="2.209" y="9.038"/><use xlink:href="#i" x="8.326" y="9.038"/><use xlink:href="#c" x="12.56" y="9.038"/><use xlink:href="#b" x="16.795" y="9.038"/><use xlink:href="#p" x="21.029" y="6.225"/><use xlink:href="#q" x="24.681" y="6.225"/></svg>