<?xml version="1.0" encoding="UTF-8"?>
<svg xmlns="http://www.w3.org/2000/svg" xmlns:xlink="http://www.w3.org/1999/xlink" width="75.501pt" height="13.682pt" viewBox="0 0 75.501 13.682" version="1.2">
<defs>
<clipPath id="clip1">
  <path d="M 0 0 L 28 0 L 28 13.523438 L 0 13.523438 Z M 0 0 "/>
</clipPath>
<clipPath id="clip2">
  <path d="M 26 0 L 75.25 0 L 75.25 13.523438 L 26 13.523438 Z M 26 0 "/>
</clipPath>
</defs>
<g id="surface1">
<g clip-path="url(#clip1)" clip-rule="nonzero">
<path style="fill:none;stroke-width:0.3985;stroke-linecap:butt;stroke-linejoin:miter;stroke:rgb(0%,0%,0%);stroke-opacity:1;stroke-miterlimit:10;" d="M 0.00796875 0.402375 C 0.218906 5.718781 4.593906 9.960969 9.961094 9.960969 C 13.386875 9.960969 16.562656 8.203156 18.382969 5.32425 " transform="matrix(1,0,0,-1,3.3475,11.668)"/>
</g>
<path style="fill:none;stroke-width:0.3985;stroke-linecap:round;stroke-linejoin:round;stroke:rgb(0%,0%,0%);stroke-opacity:1;stroke-miterlimit:10;" d="M -2.070312 2.390781 C -1.695312 0.957188 -0.851562 0.2775 0.000000000000333955 0.00015625 C -0.851562 -0.277187 -1.695312 -0.956875 -2.070312 -2.390469 " transform="matrix(0,1,1,0,3.3475,11.46875)"/>
<path style="fill:none;stroke-width:0.3985;stroke-linecap:round;stroke-linejoin:round;stroke:rgb(0%,0%,0%);stroke-opacity:1;stroke-miterlimit:10;" d="M -2.071822 2.392849 C -1.692551 0.956003 -0.851041 0.280702 0.00191991 0.000235325 C -0.849663 -0.279412 -1.691877 -0.956893 -2.073782 -2.391797 " transform="matrix(0.5,0.86601,0.86601,-0.5,21.83868,6.51408)"/>
<g clip-path="url(#clip2)" clip-rule="nonzero">
<path style="fill:none;stroke-width:0.3985;stroke-linecap:butt;stroke-linejoin:miter;stroke:rgb(0%,0%,0%);stroke-opacity:1;stroke-miterlimit:10;" d="M 28.672031 0.2305 L 42.519688 9.960969 L 56.695469 0.00003125 L 70.539219 9.734406 " transform="matrix(1,0,0,-1,3.3475,11.668)"/>
</g>
<path style="fill:none;stroke-width:0.3985;stroke-linecap:round;stroke-linejoin:round;stroke:rgb(0%,0%,0%);stroke-opacity:1;stroke-miterlimit:10;" d="M -2.071676 2.38887 C -1.693006 0.957605 -0.851381 0.280058 0.00222383 -0.0000382535 C -0.848958 -0.280315 -1.692597 -0.957441 -2.070479 -2.391704 " transform="matrix(-0.81807,0.57504,0.57504,0.81807,31.85731,11.55344)"/>
<path style="fill:none;stroke-width:0.3985;stroke-linecap:round;stroke-linejoin:round;stroke:rgb(0%,0%,0%);stroke-opacity:1;stroke-miterlimit:10;" d="M -2.072555 2.392123 C -1.692936 0.955416 -0.851311 0.277869 -0.000901569 0.0000194828 C -0.849837 -0.277062 -1.693476 -0.954187 -2.073605 -2.391647 " transform="matrix(0.81807,-0.57504,-0.57504,-0.81807,74.05153,1.81981)"/>
</g>
</svg>
