<svg xmlns="http://www.w3.org/2000/svg" xmlns:xlink="http://www.w3.org/1999/xlink" width="104.078" height="146.576"><defs><clipPath id="a"><path d="M.555 9h102.05v136.36H.555Zm0 0"/></clipPath><clipPath id="b"><path d="M.555 128h102.05v1H.555Zm0 0"/></clipPath><clipPath id="c"><path d="M51 0h1v145.36h-1Zm0 0"/></clipPath><clipPath id="d"><path d="M.555 37h102.05v108.36H.555Zm0 0"/></clipPath><clipPath id="e"><path d="M.555 138H6v1H.555Zm0 0"/></clipPath><path id="f" d="M6.563-2.297c.171 0 .359 0 .359-.203 0-.187-.188-.187-.36-.187h-5.39c-.172 0-.344 0-.344.187 0 .203.172.203.344.203Zm0 0"/><path id="g" d="M4.578-3.187c0-.797-.047-1.594-.39-2.329C3.734-6.484 2.906-6.64 2.5-6.64c-.61 0-1.328.266-1.75 1.188-.312.687-.36 1.469-.36 2.266 0 .75.032 1.64.454 2.406a1.83 1.83 0 0 0 1.64 1c.532 0 1.297-.203 1.735-1.156.312-.688.36-1.47.36-2.25M2.484 0c-.39 0-.984-.25-1.156-1.203-.11-.594-.11-1.516-.11-2.11 0-.64 0-1.296.079-1.828.187-1.187.937-1.28 1.187-1.28.329 0 .985.187 1.172 1.171.11.563.11 1.313.11 1.938 0 .75 0 1.421-.11 2.062C3.5-.297 2.937 0 2.484 0m0 0"/><path id="i" d="M4.469-2c0-1.187-.813-2.187-1.89-2.187-.47 0-.907.156-1.267.515v-1.953c.204.063.532.125.844.125 1.235 0 1.938-.906 1.938-1.031 0-.063-.032-.11-.11-.11 0 0-.03 0-.078.032a3.2 3.2 0 0 1-1.36.297c-.39 0-.858-.079-1.327-.282-.078-.031-.094-.031-.11-.031C1-6.625 1-6.547 1-6.391v2.954c0 .171 0 .25.14.25.079 0 .094-.016.141-.079.11-.156.469-.703 1.282-.703.515 0 .765.453.843.64.156.376.188.75.188 1.25 0 .36 0 .954-.25 1.376-.235.39-.61.64-1.063.64-.719 0-1.297-.53-1.469-1.109.032 0 .063.016.172.016.329 0 .5-.25.5-.485 0-.25-.171-.5-.5-.5-.14 0-.484.079-.484.532C.5-.75 1.188.219 2.297.219 3.453.219 4.469-.734 4.469-2m0 0"/><path id="j" d="M2.938-6.375c0-.25 0-.266-.235-.266C2.078-6 1.203-6 .891-6v.313c.203 0 .78 0 1.297-.266v5.172c0 .36-.032.469-.922.469H.953V0c.344-.031 1.203-.031 1.61-.031.39 0 1.265 0 1.609.031v-.312h-.313c-.906 0-.921-.11-.921-.47Zm0 0"/><path id="h" d="M1.906-.531a.534.534 0 0 0-.515-.531.537.537 0 0 0-.532.53.524.524 0 1 0 1.047 0m0 0"/></defs><g clip-path="url(#a)"><path fill="none" stroke="#7F7F7F" stroke-miterlimit="10" stroke-width=".199" d="M-67.477 213.39h238.114m-238.114-42.519h238.114m-238.114-42.52h238.114M-67.477 85.833h238.114m-238.114-42.52h238.114M-33.461 247.407V9.296m42.524 238.11V9.296m42.519 238.11V9.296m42.52 238.11V9.296m42.52 238.11V9.296"/></g><path fill="#CFC" stroke="#007F00" stroke-miterlimit="10" stroke-width=".399" d="M51.582 128.352h25.512c0-4.477-1.18-8.88-3.418-12.758Zm0 0"/><g clip-path="url(#b)"><path fill="none" stroke="#000" stroke-miterlimit="10" stroke-width=".399" d="M-75.98 128.352h254.722"/></g><g clip-path="url(#c)"><path fill="none" stroke="#000" stroke-miterlimit="10" stroke-width=".399" d="M51.582 255.91V1.188"/></g><path fill="none" stroke="#000" stroke-linecap="round" stroke-linejoin="round" stroke-miterlimit="10" stroke-width=".399" d="M49.191 3.063c1.434-.38 2.11-1.223 2.391-2.075.277.852.957 1.696 2.39 2.075"/><g clip-path="url(#d)"><path fill="none" stroke="#000" stroke-miterlimit="10" stroke-width=".399" d="M136.621 128.352c0-46.97-38.074-85.04-85.039-85.04-46.969 0-85.043 38.07-85.043 85.04 0 46.964 38.074 85.039 85.043 85.039 46.965 0 85.04-38.075 85.04-85.04Zm0 0"/></g><path fill="none" stroke="#000" stroke-miterlimit="10" stroke-width=".399" d="M9.063 125.363v5.977"/><g clip-path="url(#e)"><use xlink:href="#f" x="-1.178" y="141.28"/></g><use xlink:href="#g" x="6.571" y="141.28"/><use xlink:href="#h" x="11.552" y="141.28"/><use xlink:href="#i" x="14.32" y="141.28"/><path fill="none" stroke="#000" stroke-miterlimit="10" stroke-width=".399" d="M54.57 85.832h-5.976"/><use xlink:href="#g" x="32.342" y="89.041"/><use xlink:href="#h" x="37.324" y="89.041"/><use xlink:href="#i" x="40.091" y="89.041"/><path fill="none" stroke="#000" stroke-miterlimit="10" stroke-width=".399" d="M54.57 43.313h-5.976"/><use xlink:href="#j" x="40.091" y="46.522"/></svg>