<svg xmlns="http://www.w3.org/2000/svg" width="59.223" height="59.222"><defs><clipPath id="a"><path d="M0 17h41v41.832H0Zm0 0"/></clipPath></defs><path fill="none" stroke="red" stroke-miterlimit="10" stroke-width=".797" d="M29.477 28.96h27.546"/><path fill="none" stroke="red" stroke-linecap="round" stroke-linejoin="round" stroke-miterlimit="10" stroke-width=".797" d="M54.875 25.848c.465 1.867 1.504 2.75 2.547 3.113-1.043.363-2.082 1.242-2.547 3.11"/><path fill="none" stroke="#00F" stroke-miterlimit="10" stroke-width=".797" d="M29.477 28.96V1.41"/><path fill="none" stroke="#00F" stroke-linecap="round" stroke-linejoin="round" stroke-miterlimit="10" stroke-width=".797" d="M26.363 3.563c1.867-.465 2.75-1.504 3.114-2.551.363 1.047 1.242 2.086 3.109 2.55"/><g clip-path="url(#a)"><path fill="none" stroke="#FF7F00" stroke-miterlimit="10" stroke-width=".797" d="M29.477 28.96 1.69 56.743"/></g><path fill="none" stroke="#FF7F00" stroke-linecap="round" stroke-linejoin="round" stroke-miterlimit="10" stroke-width=".7969920300000001" d="M5.414 57.422c-1.648-.992-3.008-.879-4.004-.399.485-.996.594-2.351-.394-4"/></svg>