<svg xmlns="http://www.w3.org/2000/svg" width="90.848" height="58.934"><defs><clipPath id="a"><path d="M0 0h90.773v58.902H0Zm0 0"/></clipPath></defs><path fill="none" stroke="#7F7F7F" stroke-miterlimit="10" stroke-width=".199" d="M3.723 57.75h85.039M3.722 29.402h85.04M3.722 1.066h85.04M3.722 57.75V1.059M32.07 57.75V1.059M60.414 57.75V1.059m28.34 56.691V1.059"/><g clip-path="url(#a)"><path fill="none" stroke="#000" stroke-miterlimit="10" stroke-width=".399" d="M3.723 57.75 1.23 55.262l5.465-4.707-3.71-5.703 6.761-2.899-1.086-6.527 7.457.566 2.07-6.3 6.493 3.41 3.918-5.602 5.539 4.566 4.703-5.129 5.082 4.95 4.957-4.973 5.004 4.945 4.867-5.148 5.258 4.574 4.332-5.707 5.863 3.555 2.836-6.735 6.547 1.211-.402-7.457 6.28-2.03-3.558-6.47 2.645-1.918.21-4.675"/></g></svg>