<svg xmlns="http://www.w3.org/2000/svg" xmlns:xlink="http://www.w3.org/1999/xlink" width="107.07" height="102.26"><defs><path id="d" d="M3.89-2.547c0-.844-.078-1.36-.343-1.875-.344-.703-1-.875-1.438-.875-1 0-1.375.75-1.484.969C.344-3.75.328-2.953.328-2.547c0 .531.016 1.328.406 1.969.36.594.954.75 1.375.75.391 0 1.063-.125 1.47-.906.296-.578.312-1.297.312-1.813M2.11-.062c-.266 0-.813-.125-.985-.954-.094-.453-.094-1.203-.094-1.625 0-.546 0-1.109.094-1.546.172-.813.781-.891.984-.891.266 0 .829.14.985.86.094.437.094 1.046.094 1.577 0 .47 0 1.188-.094 1.641-.172.828-.719.938-.985.938m0 0"/><path id="e" d="M2.25-1.625c.125-.125.453-.39.594-.5.484-.453.953-.89.953-1.61 0-.953-.797-1.562-1.781-1.562-.97 0-1.594.719-1.594 1.438 0 .39.312.437.422.437.172 0 .422-.11.422-.422 0-.406-.407-.406-.5-.406.234-.594.765-.781 1.156-.781.734 0 1.125.625 1.125 1.297 0 .828-.578 1.437-1.531 2.39l-1 1.047C.422-.219.422-.203.422 0h3.14l.235-1.422h-.25c-.016.156-.078.547-.172.703-.047.063-.656.063-.781.063H1.172Zm0 0"/><path id="f" d="M1.11-4.484c.109.03.421.125.765.125 1 0 1.594-.703 1.594-.828 0-.094-.047-.11-.094-.11-.016 0-.031 0-.094.031a3 3 0 0 1-1.11.22c-.468 0-.858-.11-1.108-.22-.079-.03-.094-.03-.11-.03-.094 0-.094.077-.094.234v2.328c0 .14 0 .234.125.234.063 0 .079-.031.125-.094.094-.11.391-.515 1.079-.515.437 0 .656.359.734.515.125.281.14.656.14.953s0 .735-.218 1.079c-.156.25-.485.484-.906.484A1.27 1.27 0 0 1 .734-.922c.016.016.079.016.079.016.218 0 .406-.14.406-.39a.39.39 0 0 0-.39-.407c-.157 0-.407.078-.407.422 0 .718.625 1.453 1.531 1.453 1 0 1.844-.781 1.844-1.766 0-.922-.672-1.75-1.61-1.75-.39 0-.765.125-1.078.406Zm0 0"/><path id="g" d="M4.031-4.86c.078-.077.078-.093.078-.265H2.08a9 9 0 0 1-.642-.031c-.421-.032-.421-.11-.453-.235h-.25L.47-3.703h.25c.015-.125.11-.672.219-.735.078-.046.687-.046.796-.046h1.688l-.813 1.109C1.703-2.172 1.5-.906 1.5-.281c0 .078 0 .453.375.453s.375-.36.375-.453v-.39c0-1.141.203-2.079.594-2.61Zm0 0"/><path id="h" d="M2.5-5.078c0-.219-.016-.219-.234-.219-.328.313-.75.5-1.5.5v.266c.218 0 .64 0 1.109-.203v4.078c0 .297-.031.39-.781.39H.812V0c.329-.031 1.016-.031 1.376-.031s1.046 0 1.374.031v-.266h-.28c-.75 0-.782-.093-.782-.39Zm0 0"/><path id="j" d="M2.016-2.656c.625 0 1.03.453 1.03 1.297 0 1-.562 1.28-.983 1.28-.438 0-1.047-.155-1.329-.577.297 0 .5-.188.5-.438 0-.265-.187-.437-.453-.437-.203 0-.437.125-.437.453 0 .75.812 1.25 1.734 1.25 1.047 0 1.797-.734 1.797-1.531 0-.672-.531-1.266-1.344-1.453.625-.22 1.11-.75 1.11-1.391 0-.64-.72-1.094-1.547-1.094-.86 0-1.5.453-1.5 1.063 0 .297.187.422.406.422.25 0 .406-.172.406-.407 0-.297-.265-.406-.437-.406.344-.437.953-.469 1.094-.469.203 0 .812.063.812.89 0 .548-.234.891-.344 1.016-.234.25-.422.266-.906.297-.156 0-.219.016-.219.125 0 .11.078.11.219.11Zm0 0"/><path id="i" d="M1.625-.437a.463.463 0 0 0-.453-.454.447.447 0 0 0-.438.438.44.44 0 0 0 .438.453.45.45 0 0 0 .453-.437m0 0"/><clipPath id="a"><path d="M96 83h10.605v15H96Zm0 0"/></clipPath><clipPath id="b"><path d="M96 40h10.605v15H96Zm0 0"/></clipPath><clipPath id="c"><path d="M96 0h10.605v11H96Zm0 0"/></clipPath></defs><path fill="none" stroke="#7F7F7F" stroke-linecap="round" stroke-miterlimit="10" stroke-width=".399" d="M15.598 92.93v-1.993M59.504 92.93v-1.993M77.691 92.93v-1.993M91.648 92.93v-1.993M15.598 3.348V1.355M59.504 3.348V1.355M77.691 3.348V1.355M91.648 3.348V1.355M13.602 90.938h1.996M13.602 69.04h1.996M13.602 47.14h1.996M13.602 25.246h1.996M13.602 3.348h1.996M103.414 90.938h1.992M103.414 69.04h1.992M103.414 47.14h1.992M103.414 25.246h1.992M103.414 3.348h1.992"/><path fill="none" stroke="#7F7F7F" stroke-miterlimit="10" stroke-width=".399" d="M15.598 90.938h87.816M15.598 3.348h87.816M15.598 90.938V3.347M103.414 90.938V3.347"/><path fill="none" stroke="#000" stroke-miterlimit="10" stroke-width=".399" d="m14.188 92.348 2.816-2.82m-2.817 0 2.817 2.82M14.188 48.55l2.816-2.816m-2.817 0 2.817 2.817M14.188 4.758l2.816-2.82m-2.817 0 2.817 2.82M41.957 92.348l2.816-2.82m-2.816 0 2.816 2.82M41.957 48.55l2.816-2.816m-2.816 0 2.816 2.817M41.957 4.758l2.816-2.82m-2.816 0 2.816 2.82M53.46 92.348l2.817-2.82m-2.816 0 2.816 2.82M53.46 48.55l2.817-2.816m-2.816 0 2.816 2.817M53.46 4.758l2.817-2.82m-2.816 0 2.816 2.82M62.285 92.348l2.82-2.82m-2.82 0 2.82 2.82M62.285 48.55l2.82-2.816m-2.82 0 2.82 2.817M62.285 4.758l2.82-2.82m-2.82 0 2.82 2.82M69.727 92.348l2.816-2.82m-2.816 0 2.816 2.82M69.727 48.55l2.816-2.816m-2.816 0 2.816 2.817M69.727 4.758l2.816-2.82m-2.816 0 2.816 2.82M76.281 92.348l2.82-2.82m-2.82 0 2.82 2.82M76.281 48.55l2.82-2.816m-2.82 0 2.82 2.817M76.281 4.758l2.82-2.82m-2.82 0 2.82 2.82M82.21 92.348l2.817-2.82m-2.816 0 2.816 2.82M82.21 48.55l2.817-2.816m-2.816 0 2.816 2.817M82.21 4.758l2.817-2.82m-2.816 0 2.816 2.82M87.66 92.348l2.817-2.82m-2.817 0 2.817 2.82M87.66 48.55l2.817-2.816m-2.817 0 2.817 2.817M87.66 4.758l2.817-2.82m-2.817 0 2.817 2.82M92.73 92.348l2.82-2.82m-2.82 0 2.82 2.82M92.73 48.55l2.82-2.816m-2.82 0 2.82 2.817M92.73 4.758l2.82-2.82m-2.82 0 2.82 2.82M97.496 92.348l2.82-2.82m-2.82 0 2.82 2.82M97.496 48.55l2.82-2.816m-2.82 0 2.82 2.817M97.496 4.758l2.82-2.82m-2.82 0 2.82 2.82"/><g clip-path="url(#a)"><path fill="none" stroke="#000" stroke-miterlimit="10" stroke-width=".399" d="m102.004 92.348 2.82-2.82m-2.82 0 2.82 2.82"/></g><g clip-path="url(#b)"><path fill="none" stroke="#000" stroke-miterlimit="10" stroke-width=".399" d="m102.004 48.55 2.82-2.816m-2.82 0 2.82 2.817"/></g><g clip-path="url(#c)"><path fill="none" stroke="#000" stroke-miterlimit="10" stroke-width=".399" d="m102.004 4.758 2.82-2.82m-2.82 0 2.82 2.82"/></g><use xlink:href="#d" x="13.479" y="100.723"/><use xlink:href="#e" x="53.153" y="100.723"/><use xlink:href="#f" x="57.388" y="100.723"/><use xlink:href="#d" x="61.622" y="100.723"/><use xlink:href="#f" x="71.34" y="100.723"/><use xlink:href="#d" x="75.575" y="100.723"/><use xlink:href="#d" x="79.809" y="100.723"/><use xlink:href="#g" x="85.295" y="100.723"/><use xlink:href="#f" x="89.53" y="100.723"/><use xlink:href="#d" x="93.764" y="100.723"/><use xlink:href="#h" x="6.714" y="93.506"/><use xlink:href="#h" x=".127" y="71.609"/><use xlink:href="#i" x="4.361" y="71.609"/><use xlink:href="#f" x="6.714" y="71.609"/><use xlink:href="#e" x="6.714" y="49.712"/><use xlink:href="#e" x=".127" y="27.814"/><use xlink:href="#i" x="4.361" y="27.814"/><use xlink:href="#f" x="6.714" y="27.814"/><use xlink:href="#j" x="6.714" y="5.917"/></svg>