<svg xmlns="http://www.w3.org/2000/svg" xmlns:xlink="http://www.w3.org/1999/xlink" width="304.13" height="222.068"><defs><path id="b" d="M3.813-1.234v-.532h-.47v.516c0 .672-.327.906-.609.906-.578 0-.578-.64-.578-.86v-2.75h1.469v-.468H2.156v-1.906h-.469c0 1-.484 1.984-1.484 2.016v.359h.828v2.734c0 1.063.86 1.282 1.578 1.282.75 0 1.204-.579 1.204-1.297m0 0"/><path id="c" d="M4.922-1.172c0-.172-.188-.172-.234-.172-.172 0-.188.047-.25.203-.204.485-.782.797-1.422.797-1.407 0-1.422-1.328-1.422-1.828h3.015c.22 0 .313 0 .313-.265 0-.313-.063-1.047-.563-1.547-.359-.36-.89-.532-1.578-.532C1.187-4.516.313-3.484.313-2.25c0 1.344 1 2.313 2.609 2.313 1.578 0 2-1.063 2-1.235M3.984-2.5h-2.39c.015-.39.031-.812.234-1.14.266-.391.672-.516.953-.516 1.172 0 1.188 1.312 1.203 1.656m0 0"/><path id="d" d="M5.828 0v-.469h-.703L3.453-2.453 4.61-3.75c.141-.14.204-.203 1.016-.203v-.469l-.906.031-1.032-.03v.468c.141 0 .266.015.376.078-.032.063-.032.094-.079.125l-.828.938-.984-1.141h.406v-.469L1.36-4.39.266-4.42v.468h.718l1.547 1.828L1.22-.656c-.157.187-.516.187-1 .187V0l.922-.031L2.156 0v-.469c-.172 0-.36-.047-.36-.11 0 0 0-.015.063-.093l.97-1.094L3.921-.469h-.39V0l1.202-.031Zm0 0"/><path id="e" d="M2.922 0v-.469h-.688v-6.453L.47-6.844v.469c.625 0 .687 0 .687.39v5.516H.47V0l1.219-.031Zm0 0"/><path id="f" d="M5.406-2.172c0-1.344-.922-2.344-2.547-2.344C1.22-4.516.313-3.5.313-2.172c0 1.235.89 2.235 2.546 2.235 1.672 0 2.547-1.016 2.547-2.235m-1.281-.11c0 .86 0 1.938-1.266 1.938-1.265 0-1.265-1.078-1.265-1.937 0-.453 0-.953.172-1.297.187-.375.609-.578 1.093-.578.422 0 .844.156 1.063.5.203.344.203.89.203 1.375m0 0"/><path id="g" d="M8.031-3.953v-.469a13 13 0 0 1-.781.031l-.953-.03v.468c.094 0 .578 0 .578.11 0 .03-.031.093-.031.124L5.797-1.172l-1.14-2.781h.562v-.469l-1.14.031c-.423 0-.845-.03-1-.03v.468h.593c.203.5.203.531.203.531 0 .031-.031.094-.031.125L3.047-1.39 2-3.953h.563v-.469l-1.235.031L.25-4.42v.468h.594L2.359-.234c.079.172.11.28.36.28s.297-.108.36-.28L4.14-2.812 5.188-.235c.078.172.109.28.359.28s.297-.108.36-.28L7.343-3.75c.047-.125.093-.203.687-.203m0 0"/><path id="h" d="M4.406-3.672c0-.531-.531-.812-1.062-.812-.688 0-1.094.5-1.313 1.125v-1.125l-1.656.078v.468c.61 0 .688 0 .688.391v3.078H.375V0l1.25-.031C2-.031 2.641-.031 3 0v-.469h-.86v-1.75c0-.687.235-1.906 1.235-1.906 0 0-.187.172-.187.453 0 .406.328.61.609.61.297 0 .61-.204.61-.61m0 0"/><path id="i" d="M3.078.313c0-.125-.047-.157-.187-.25C2.063-.5 1.75-1.391 1.75-2.125c0-.672.25-1.594 1.156-2.203.125-.094.172-.125.172-.25a.254.254 0 0 0-.265-.25c-.204 0-1.641.906-1.641 2.703 0 .813.312 1.438.562 1.781.375.516.907.907 1.079.907.218 0 .265-.172.265-.25m0 0"/><path id="j" d="M3.219-.906c0-.735-.906-.906-1.14-.938l-.704-.125C1.188-2 1-2.079 1-2.25c0-.156.219-.328.813-.328.515 0 .609.172.625.328.015.14.03.281.28.281.298 0 .298-.156.298-.328v-.469c0-.14-.016-.328-.25-.328-.157 0-.22.063-.25.125-.282-.125-.563-.125-.688-.125-1.187 0-1.344.594-1.344.844 0 .656.735.797 1.391.89.297.063.828.141.828.454 0 .234-.25.422-.828.422-.297 0-.656-.063-.812-.563C1.03-1.203.984-1.28.78-1.28c-.297 0-.297.172-.297.328v.656c0 .14 0 .344.25.344.079 0 .188 0 .282-.234.328.218.672.234.859.234 1.125 0 1.344-.61 1.344-.953m0 0"/><path id="k" d="M2.313-.469a.477.477 0 0 0-.485-.484.47.47 0 0 0-.469.469c0 .28.22.484.47.484a.473.473 0 0 0 .484-.469m0 0"/><path id="l" d="M3.578-.266c0-.25-.203-.25-.328-.25H3v-1.53c0-.72-.36-1.032-.937-1.032-.391 0-.672.172-.844.297 0-.172-.047-.25-.313-.25h-.5c-.14 0-.328 0-.328.25 0 .265.203.265.313.265h.25v2H.406c-.14 0-.328 0-.328.25C.078 0 .281 0 .391 0h1.093c.11 0 .329 0 .329-.266 0-.25-.204-.25-.344-.25h-.25v-1.156c0-.64.484-.875.797-.875.328 0 .406.172.406.547v1.484h-.203c-.14 0-.344 0-.344.25 0 .266.219.266.344.266H3.25c.11 0 .328 0 .328-.266m0 0"/><path id="m" d="M3.281-1.516c0-.89-.672-1.578-1.453-1.578-.797 0-1.453.688-1.453 1.578S1.047.047 1.828.047c.766 0 1.453-.688 1.453-1.563m-.578-.046c0 .593-.406 1.078-.875 1.078S.953-.97.953-1.562s.422-1.016.875-1.016.875.422.875 1.015m0 0"/><path id="n" d="M3.406-2.594c0-.156-.078-.484-.703-.484-.328 0-.734.11-1.094.469v-.094c0-.25-.046-.328-.328-.328h-.75c-.125 0-.328 0-.328.25 0 .265.203.265.328.265h.5v2h-.5c-.125 0-.328 0-.328.25C.203 0 .406 0 .531 0h1.781c.126 0 .329 0 .329-.266 0-.25-.203-.25-.328-.25h-.704v-.796c0-.61.36-1.22 1.11-1.235 0 .156.172.281.344.281.187 0 .343-.125.343-.328m0 0"/><path id="o" d="M3.14-.906c0-.156 0-.313-.296-.313-.266 0-.266.157-.266.297-.015.375-.36.438-.515.438-.454 0-.454-.313-.454-.47v-1.562h1.047c.125 0 .328 0 .328-.265 0-.25-.187-.25-.328-.25H1.61v-.516c0-.14-.015-.328-.296-.328-.282 0-.282.172-.282.328v.516H.484c-.125 0-.328 0-.328.25 0 .265.203.265.328.265h.547v1.61c0 .687.485.953 1.016.953S3.14-.266 3.14-.906m0 0"/><path id="p" d="M3.578-.266c0-.25-.203-.25-.328-.25H3v-1.53c0-.72-.36-1.032-.937-1.032-.391 0-.672.172-.844.297v-1.14c0-.25-.047-.345-.313-.345h-.5c-.14 0-.328.016-.328.266s.203.266.313.266h.25v3.218H.406c-.14 0-.328 0-.328.25C.078 0 .281 0 .391 0h1.093c.11 0 .329 0 .329-.266 0-.25-.204-.25-.344-.25h-.25v-1.156c0-.64.484-.875.797-.875.328 0 .406.172.406.547v1.484h-.203c-.14 0-.344 0-.344.25 0 .266.219.266.344.266H3.25c.11 0 .328 0 .328-.266m0 0"/><path id="q" d="M3.547-2.781c0-.25-.188-.25-.328-.25h-.781c-.157 0-.344 0-.344.25 0 .265.172.265.344.265h.265l-.297 1.72-.14-.532c-.125-.469-.172-.547-.422-.547-.094 0-.235 0-.328.188l-.266.906-.297-1.735h.266c.156 0 .343 0 .343-.265 0-.25-.187-.25-.343-.25H.437c-.14 0-.343 0-.343.25 0 .234.14.265.36.265L.858-.28c.032.187.047.312.36.312.312 0 .343-.062.453-.515l.172-.641.265 1c.094.14.235.156.344.156.281 0 .313-.125.344-.312l.406-2.235c.219 0 .344-.03.344-.265m0 0"/><path id="r" d="M3.25-.797c0-.234-.234-.234-.281-.234-.156 0-.219.015-.281.172-.141.328-.485.375-.657.375-.469 0-.937-.297-1.062-.813h1.953c.172 0 .328 0 .328-.312 0-.797-.453-1.485-1.375-1.485-.828 0-1.516.703-1.516 1.563S1.08.047 1.984.047c.938 0 1.266-.656 1.266-.844m-.594-1.015H.97c.125-.438.484-.766.906-.766.328 0 .703.156.781.765m0 0"/><path id="s" d="M2.484-2.125c0-.828-.312-1.453-.562-1.797-.375-.515-.906-.906-1.078-.906-.203 0-.266.187-.266.25 0 .125.094.187.14.219 1.095.718 1.188 1.797 1.188 2.234 0 .656-.25 1.578-1.14 2.188C.64.14.578.188.578.313c0 .078.063.25.266.25s1.64-.907 1.64-2.688m0 0"/><path id="t" d="M3.625-.266c0-.25-.203-.25-.328-.25-.203 0-.297-.03-.344-.046V-2c0-.5-.375-1.094-1.406-1.094-.313 0-1.031.016-1.031.547 0 .235.172.36.359.36.11 0 .344-.063.344-.36 0 0 .234-.031.343-.031.454 0 .782.187.813.594-1.219.03-2.047.39-2.047 1.062 0 .485.453.969 1.188.969.234 0 .656-.047.968-.25.172.187.485.203.75.203.235 0 .391-.016.391-.266M2.359-.969c0 .14 0 .266-.234.375-.234.11-.516.11-.578.11-.39 0-.64-.203-.64-.438 0-.312.546-.515 1.452-.562Zm0 0"/><path id="u" d="M3.266-.797c0-.234-.235-.234-.297-.234-.125 0-.203 0-.266.172-.047.078-.187.375-.625.375a1.027 1.027 0 0 1-1.015-1.032c0-.312.187-1.062 1.062-1.062l.344.015c.015.282.172.376.36.376.187 0 .358-.126.358-.36 0-.531-.734-.547-1.062-.547-1.219 0-1.64.953-1.64 1.578 0 .844.671 1.563 1.546 1.563 1 0 1.235-.719 1.235-.844m0 0"/><path id="v" d="M3.64-.266c0-.218-.14-.25-.39-.25v-1.593c0-.157-.016-.97-.656-.97a.84.84 0 0 0-.656.313.61.61 0 0 0-.532-.312.88.88 0 0 0-.547.203c-.046-.156-.187-.156-.312-.156H.328c-.125 0-.328 0-.328.25 0 .234.125.265.39.265v2c-.265 0-.39.032-.39.25C0 0 .219 0 .328 0h.594c.125 0 .312 0 .312-.266 0-.218-.109-.25-.359-.25v-1.171c0-.563.234-.86.5-.86.14 0 .203.11.203.5v1.531c-.156 0-.281.032-.281.25 0 .266.187.266.312.266h.516c.125 0 .313 0 .313-.266 0-.218-.126-.25-.376-.25v-1.171c0-.563.25-.86.5-.86.141 0 .204.11.204.5v1.531c-.141 0-.282.032-.282.25 0 .266.204.266.313.266h.5c.125 0 .344 0 .344-.266m0 0"/><path id="w" d="M3.188-.266c0-.25-.204-.25-.329-.25h-.656v-2.187c0-.25-.047-.328-.328-.328H.906c-.125 0-.328 0-.328.25 0 .265.203.265.328.265h.719v2H.859c-.14 0-.343 0-.343.25C.516 0 .734 0 .859 0h2c.125 0 .329 0 .329-.266m-.954-3.562a.39.39 0 0 0-.406-.39.387.387 0 0 0-.39.39c0 .219.171.39.39.39a.39.39 0 0 0 .406-.39m0 0"/><path id="x" d="M3.578-.266c0-.25-.203-.25-.328-.25H3v-3.406c0-.25-.047-.344-.328-.344h-.485c-.14 0-.343.016-.343.266s.218.266.328.266h.25v.906a1.26 1.26 0 0 0-.735-.25c-.765 0-1.453.672-1.453 1.562C.234-.64.875.047 1.625.047c.344 0 .61-.14.797-.313.015.188.062.266.328.266h.5c.125 0 .328 0 .328-.266M2.422-1.375c0 .36-.297.89-.781.89-.453 0-.828-.452-.828-1.03 0-.61.437-1.032.89-1.032.406 0 .719.344.719.688Zm0 0"/><path id="y" d="M3.422-1.516c0-.875-.64-1.562-1.39-1.562-.298 0-.579.11-.813.265v-1.109c0-.25-.047-.344-.313-.344h-.5c-.14 0-.343.016-.343.266s.218.266.328.266h.25v3.406C.64-.172.656 0 .938 0c.218 0 .28-.094.28-.234.266.218.532.28.735.28.766 0 1.469-.671 1.469-1.562m-.578 0c0 .61-.453 1.032-.906 1.032-.485 0-.704-.563-.704-.875v-.485c0-.375.375-.703.766-.703.469 0 .844.469.844 1.031m0 0"/><path id="z" d="M3.578-.266c0-.25-.219-.25-.328-.25H3v-2.187c0-.25-.047-.328-.328-.328h-.485c-.14 0-.343 0-.343.25 0 .265.218.265.328.265h.25v1.391c0 .563-.516.64-.719.64-.469 0-.484-.187-.484-.39v-1.828c0-.25-.047-.328-.313-.328h-.5c-.14 0-.328 0-.328.25 0 .265.203.265.313.265h.25v1.688c0 .687.5.875 1.03.875.266 0 .517-.063.767-.219C2.484 0 2.625 0 2.75 0h.5c.125 0 .328 0 .328-.266m0 0"/><path id="A" d="M3.469-.266c0-.25-.203-.25-.328-.25h-.25l-.828-1.046.734-.954h.234c.125 0 .344 0 .344-.265 0-.25-.219-.25-.344-.25H2.25c-.125 0-.328 0-.328.25 0 .203.11.265.281.265l-.39.547-.422-.547c.156 0 .28-.062.28-.265 0-.25-.202-.25-.327-.25H.547c-.125 0-.328 0-.328.25 0 .265.219.265.328.265h.25l.75.954L.75-.516H.516c-.125 0-.344 0-.344.25C.172 0 .39 0 .516 0h.78c.126 0 .329 0 .329-.266 0-.203-.11-.25-.297-.25l.484-.703.5.703c-.187 0-.296.047-.296.25 0 .266.203.266.328.266h.797c.109 0 .328 0 .328-.266m0 0"/><path id="B" d="M3.281-.266c0-.25-.203-.25-.328-.25h-.828v-3.406c0-.25-.062-.344-.328-.344H.719C.579-4.266.39-4.25.39-4s.203.266.312.266h.844v3.218H.719c-.14 0-.328 0-.328.25C.39 0 .594 0 .703 0h2.25c.125 0 .328 0 .328-.266m0 0"/><path id="C" d="M3.094-.266c0-.25-.188-.25-.313-.25H2.22V-4c0-.125-.016-.328-.266-.328-.156 0-.219.094-.25.187-.234.547-.578.625-.687.641-.141 0-.313.031-.313.266 0 .203.156.25.281.25s.375-.032.657-.235v2.703h-.563c-.14 0-.328 0-.328.25C.75 0 .953 0 1.078 0h1.703c.125 0 .313 0 .313-.266m0 0"/><path id="D" d="M3.36-1.234c0-.47-.297-.875-.72-1.094.344-.25.516-.64.516-1 0-.516-.515-1-1.328-1-.86 0-1.344.36-1.344.844 0 .265.204.375.36.375.172 0 .36-.141.36-.36 0-.078-.032-.14-.048-.172.203-.171.625-.171.688-.171.422 0 .734.218.734.5a.72.72 0 0 1-.25.546c-.219.172-.375.188-.61.188-.437 0-.546.062-.546.281 0 .266.203.266.328.266h.313c.64 0 .968.422.968.797 0 .39-.36.78-.937.78-.25 0-.719-.062-.907-.327A.36.36 0 0 0 1-1a.363.363 0 0 0-.36-.36c-.171 0-.343.126-.343.391C.297-.344.969.078 1.844.078c.922 0 1.515-.656 1.515-1.312m0 0"/><path id="E" d="M3.313-2.125c0-1.297-.72-2.203-1.485-2.203-.781 0-1.5.922-1.5 2.203 0 1.297.734 2.203 1.5 2.203.781 0 1.485-.922 1.485-2.203m-.563-.078c0 .969-.422 1.75-.922 1.75-.516 0-.922-.781-.922-1.75 0-.953.438-1.61.922-1.61.469 0 .922.657.922 1.61m0 0"/><clipPath id="a"><path d="M0 0h303.695v221.602H0Zm0 0"/></clipPath></defs><path fill="#FFFBB3" d="M245.68 110.559c0-51.942-42.106-94.043-94.047-94.043-51.942 0-94.047 42.101-94.047 94.043 0 51.941 42.105 94.046 94.047 94.046S245.68 162.5 245.68 110.56m0 0"/><g clip-path="url(#a)"><path fill="none" stroke="#B2B2B2" stroke-miterlimit="10" stroke-width="14.173" d="M245.68 110.559c0-51.942-42.106-94.043-94.047-94.043-51.942 0-94.047 42.101-94.047 94.043 0 51.941 42.105 94.046 94.047 94.046S245.68 162.5 245.68 110.56Zm0 0"/></g><path fill="none" stroke="#B2B2B2" stroke-miterlimit="10" stroke-width="14.173" d="M64.672 110.559h173.922"/><g fill="#B2B2B2"><use xlink:href="#b" x="141.531" y="89.24"/><use xlink:href="#c" x="145.984" y="89.24"/><use xlink:href="#d" x="151.235" y="89.24"/><use xlink:href="#b" x="157.282" y="89.24"/></g><g fill="#B2B2B2"><use xlink:href="#e" x="138.373" y="138.734"/><use xlink:href="#f" x="141.551" y="138.734"/></g><use xlink:href="#g" x="146.961" y="138.734" fill="#B2B2B2"/><g fill="#B2B2B2"><use xlink:href="#c" x="154.921" y="138.734"/><use xlink:href="#h" x="160.171" y="138.734"/></g><path fill="none" stroke="#000" stroke-miterlimit="10" stroke-width=".399" d="m78.71 40.457 2.821-2.816m-2.82 0 2.82 2.816"/><use xlink:href="#i" x="25.345" y="34.971"/><use xlink:href="#j" x="29.006" y="34.971"/><use xlink:href="#k" x="32.668" y="34.971"/><use xlink:href="#l" x="36.329" y="34.971"/><use xlink:href="#m" x="39.99" y="34.971"/><use xlink:href="#n" x="43.651" y="34.971"/><use xlink:href="#o" x="47.313" y="34.971"/><use xlink:href="#p" x="50.974" y="34.971"/><use xlink:href="#q" x="58.296" y="34.971"/><use xlink:href="#r" x="61.958" y="34.971"/><use xlink:href="#j" x="65.619" y="34.971"/><use xlink:href="#o" x="69.28" y="34.971"/><use xlink:href="#s" x="72.942" y="34.971"/><path fill="none" stroke="#000" stroke-miterlimit="10" stroke-width=".399" d="m150.223 10.836 2.82-2.816m-2.82 0 2.82 2.816"/><use xlink:href="#i" x="135.158" y="5.35"/><use xlink:href="#j" x="138.819" y="5.35"/><use xlink:href="#k" x="142.481" y="5.35"/><use xlink:href="#l" x="146.142" y="5.35"/><use xlink:href="#m" x="149.803" y="5.35"/><use xlink:href="#n" x="153.464" y="5.35"/><use xlink:href="#o" x="157.126" y="5.35"/><use xlink:href="#p" x="160.787" y="5.35"/><use xlink:href="#s" x="164.448" y="5.35"/><path fill="none" stroke="#000" stroke-miterlimit="10" stroke-width=".399" d="m221.734 40.457 2.82-2.816m-2.82 0 2.82 2.816"/><use xlink:href="#i" x="226.664" y="34.971"/><use xlink:href="#j" x="230.325" y="34.971"/><use xlink:href="#k" x="233.987" y="34.971"/><use xlink:href="#l" x="237.648" y="34.971"/><use xlink:href="#m" x="241.309" y="34.971"/><use xlink:href="#n" x="244.97" y="34.971"/><use xlink:href="#o" x="248.632" y="34.971"/><use xlink:href="#p" x="252.293" y="34.971"/><use xlink:href="#r" x="259.615" y="34.971"/><use xlink:href="#t" x="263.277" y="34.971"/><use xlink:href="#j" x="266.938" y="34.971"/><use xlink:href="#o" x="270.599" y="34.971"/><use xlink:href="#s" x="274.261" y="34.971"/><path fill="none" stroke="#000" stroke-miterlimit="10" stroke-width=".399" d="m49.09 111.969 2.82-2.817m-2.82 0 2.82 2.817"/><use xlink:href="#i" x="17.692" y="112.694"/><use xlink:href="#j" x="21.353" y="112.694"/><use xlink:href="#k" x="25.015" y="112.694"/><use xlink:href="#q" x="28.676" y="112.694"/><use xlink:href="#r" x="32.337" y="112.694"/><use xlink:href="#j" x="35.998" y="112.694"/><use xlink:href="#o" x="39.66" y="112.694"/><use xlink:href="#s" x="43.321" y="112.694"/><path fill="none" stroke="#000" stroke-miterlimit="10" stroke-width=".399" d="m150.223 111.969 2.82-2.817m-2.82 0 2.82 2.817"/><use xlink:href="#i" x="133.327" y="118.905"/><use xlink:href="#j" x="136.988" y="118.905"/><use xlink:href="#k" x="140.65" y="118.905"/><use xlink:href="#u" x="144.311" y="118.905"/><use xlink:href="#r" x="147.972" y="118.905"/><use xlink:href="#l" x="151.633" y="118.905"/><use xlink:href="#o" x="155.295" y="118.905"/><use xlink:href="#r" x="158.956" y="118.905"/><use xlink:href="#n" x="162.617" y="118.905"/><use xlink:href="#s" x="166.278" y="118.905"/><path fill="none" stroke="#000" stroke-miterlimit="10" stroke-width=".399" d="m251.355 111.969 2.82-2.817m-2.82 0 2.82 2.817"/><use xlink:href="#i" x="256.285" y="112.694"/><use xlink:href="#j" x="259.946" y="112.694"/><use xlink:href="#k" x="263.608" y="112.694"/><use xlink:href="#r" x="267.269" y="112.694"/><use xlink:href="#t" x="270.93" y="112.694"/><use xlink:href="#j" x="274.591" y="112.694"/><use xlink:href="#o" x="278.253" y="112.694"/><use xlink:href="#s" x="281.914" y="112.694"/><path fill="none" stroke="#000" stroke-miterlimit="10" stroke-width=".399" d="m49.09 88.438 2.82-2.817m-2.82 0 2.82 2.817"/><use xlink:href="#i" x="54.022" y="89.162"/><use xlink:href="#j" x="57.683" y="89.162"/><use xlink:href="#k" x="61.345" y="89.162"/><use xlink:href="#v" x="65.006" y="89.162"/><use xlink:href="#w" x="68.667" y="89.162"/><use xlink:href="#x" x="72.328" y="89.162"/><use xlink:href="#q" x="79.644" y="89.162"/><use xlink:href="#r" x="83.305" y="89.162"/><use xlink:href="#j" x="86.966" y="89.162"/><use xlink:href="#o" x="90.628" y="89.162"/><use xlink:href="#s" x="94.289" y="89.162"/><path fill="none" stroke="#000" stroke-miterlimit="10" stroke-width=".399" d="m150.223 88.438 2.82-2.817m-2.82 0 2.82 2.817"/><use xlink:href="#i" x="138.819" y="82.951"/><use xlink:href="#j" x="142.48" y="82.951"/><use xlink:href="#k" x="146.142" y="82.951"/><use xlink:href="#v" x="149.803" y="82.951"/><use xlink:href="#w" x="153.464" y="82.951"/><use xlink:href="#x" x="157.125" y="82.951"/><use xlink:href="#s" x="160.787" y="82.951"/><path fill="none" stroke="#000" stroke-miterlimit="10" stroke-width=".399" d="m251.355 88.438 2.82-2.817m-2.82 0 2.82 2.817"/><use xlink:href="#i" x="205.31" y="89.162"/><use xlink:href="#j" x="208.971" y="89.162"/><use xlink:href="#k" x="212.633" y="89.162"/><use xlink:href="#v" x="216.294" y="89.162"/><use xlink:href="#w" x="219.955" y="89.162"/><use xlink:href="#x" x="223.616" y="89.162"/><use xlink:href="#r" x="230.939" y="89.162"/><use xlink:href="#t" x="234.6" y="89.162"/><use xlink:href="#j" x="238.261" y="89.162"/><use xlink:href="#o" x="241.923" y="89.162"/><use xlink:href="#s" x="245.584" y="89.162"/><path fill="none" stroke="#000" stroke-miterlimit="10" stroke-width=".399" d="m49.09 90.648 2.82-2.816m-2.82 0 2.82 2.816"/><use xlink:href="#i" x="-.614" y="91.374"/><use xlink:href="#j" x="3.047" y="91.374"/><use xlink:href="#k" x="6.709" y="91.374"/><use xlink:href="#y" x="10.37" y="91.374"/><use xlink:href="#t" x="14.031" y="91.374"/><use xlink:href="#j" x="17.692" y="91.374"/><use xlink:href="#r" x="21.354" y="91.374"/><use xlink:href="#q" x="28.669" y="91.374"/><use xlink:href="#r" x="32.33" y="91.374"/><use xlink:href="#j" x="35.992" y="91.374"/><use xlink:href="#o" x="39.653" y="91.374"/><use xlink:href="#s" x="43.314" y="91.374"/><path fill="none" stroke="#000" stroke-miterlimit="10" stroke-width=".399" d="m150.223 90.648 2.82-2.816m-2.82 0 2.82 2.816"/><use xlink:href="#i" x="136.988" y="97.586"/><use xlink:href="#j" x="140.649" y="97.586"/><use xlink:href="#k" x="144.311" y="97.586"/><use xlink:href="#y" x="147.972" y="97.586"/><use xlink:href="#t" x="151.633" y="97.586"/><use xlink:href="#j" x="155.294" y="97.586"/><use xlink:href="#r" x="158.956" y="97.586"/><use xlink:href="#s" x="162.617" y="97.586"/><path fill="none" stroke="#000" stroke-miterlimit="10" stroke-width=".399" d="m251.355 90.648 2.82-2.816m-2.82 0 2.82 2.816"/><use xlink:href="#i" x="256.285" y="91.374"/><use xlink:href="#j" x="259.946" y="91.374"/><use xlink:href="#k" x="263.608" y="91.374"/><use xlink:href="#y" x="267.269" y="91.374"/><use xlink:href="#t" x="270.93" y="91.374"/><use xlink:href="#j" x="274.591" y="91.374"/><use xlink:href="#r" x="278.253" y="91.374"/><use xlink:href="#r" x="285.575" y="91.374"/><use xlink:href="#t" x="289.236" y="91.374"/><use xlink:href="#j" x="292.898" y="91.374"/><use xlink:href="#o" x="296.559" y="91.374"/><use xlink:href="#s" x="300.22" y="91.374"/><path fill="none" stroke="#000" stroke-miterlimit="10" stroke-width=".399" d="m78.71 183.48 2.821-2.816m-2.82 0 2.82 2.816"/><use xlink:href="#i" x="25.345" y="190.416"/><use xlink:href="#j" x="29.006" y="190.416"/><use xlink:href="#k" x="32.668" y="190.416"/><use xlink:href="#j" x="36.329" y="190.416"/><use xlink:href="#m" x="39.99" y="190.416"/><use xlink:href="#z" x="43.651" y="190.416"/><use xlink:href="#o" x="47.313" y="190.416"/><use xlink:href="#p" x="50.974" y="190.416"/><use xlink:href="#q" x="58.296" y="190.416"/><use xlink:href="#r" x="61.958" y="190.416"/><use xlink:href="#j" x="65.619" y="190.416"/><use xlink:href="#o" x="69.28" y="190.416"/><use xlink:href="#s" x="72.942" y="190.416"/><path fill="none" stroke="#000" stroke-miterlimit="10" stroke-width=".399" d="m150.223 213.102 2.82-2.817m-2.82 0 2.82 2.817"/><use xlink:href="#i" x="135.158" y="220.037"/><use xlink:href="#j" x="138.819" y="220.037"/><use xlink:href="#k" x="142.481" y="220.037"/><use xlink:href="#j" x="146.142" y="220.037"/><use xlink:href="#m" x="149.803" y="220.037"/><use xlink:href="#z" x="153.464" y="220.037"/><use xlink:href="#o" x="157.126" y="220.037"/><use xlink:href="#p" x="160.787" y="220.037"/><use xlink:href="#s" x="164.448" y="220.037"/><path fill="none" stroke="#000" stroke-miterlimit="10" stroke-width=".399" d="m221.734 183.48 2.82-2.816m-2.82 0 2.82 2.816"/><use xlink:href="#i" x="226.664" y="190.416"/><use xlink:href="#j" x="230.325" y="190.416"/><use xlink:href="#k" x="233.987" y="190.416"/><use xlink:href="#j" x="237.648" y="190.416"/><use xlink:href="#m" x="241.309" y="190.416"/><use xlink:href="#z" x="244.97" y="190.416"/><use xlink:href="#o" x="248.632" y="190.416"/><use xlink:href="#p" x="252.293" y="190.416"/><use xlink:href="#r" x="259.615" y="190.416"/><use xlink:href="#t" x="263.277" y="190.416"/><use xlink:href="#j" x="266.938" y="190.416"/><use xlink:href="#o" x="270.599" y="190.416"/><use xlink:href="#s" x="274.261" y="190.416"/><path fill="none" stroke="#000" stroke-miterlimit="10" stroke-width=".399" d="m140.121 90.648 2.82-2.816m-2.82 0 2.82 2.816"/><use xlink:href="#i" x="108.721" y="91.374"/><use xlink:href="#j" x="112.382" y="91.374"/><use xlink:href="#k" x="116.044" y="91.374"/><use xlink:href="#o" x="119.705" y="91.374"/><use xlink:href="#r" x="123.366" y="91.374"/><use xlink:href="#A" x="127.027" y="91.374"/><use xlink:href="#o" x="130.689" y="91.374"/><use xlink:href="#s" x="134.35" y="91.374"/><path fill="none" stroke="#000" stroke-miterlimit="10" stroke-width=".399" d="m136.965 140.145 2.816-2.82m-2.816 0 2.816 2.82"/><use xlink:href="#i" x="101.902" y="140.868"/><use xlink:href="#j" x="105.563" y="140.868"/><use xlink:href="#k" x="109.225" y="140.868"/><use xlink:href="#B" x="112.886" y="140.868"/><use xlink:href="#m" x="116.547" y="140.868"/><use xlink:href="#q" x="120.208" y="140.868"/><use xlink:href="#r" x="123.87" y="140.868"/><use xlink:href="#n" x="127.531" y="140.868"/><use xlink:href="#s" x="131.192" y="140.868"/><path fill="none" stroke="#000" stroke-miterlimit="10" stroke-width=".399" d="m85.215 34.5 2.82-2.816m-2.82 0 2.82 2.816"/><use xlink:href="#i" x="73.812" y="29.015"/><use xlink:href="#j" x="77.473" y="29.015"/><use xlink:href="#k" x="81.135" y="29.015"/><use xlink:href="#C" x="84.796" y="29.015"/><use xlink:href="#D" x="88.457" y="29.015"/><use xlink:href="#E" x="92.118" y="29.015"/><use xlink:href="#s" x="95.78" y="29.015"/></svg>