<svg xmlns="http://www.w3.org/2000/svg" xmlns:xlink="http://www.w3.org/1999/xlink" width="77.78" height="94.79"><defs><path id="a" d="M4.922 0v-.469h-1.39v-5.734c0-.234 0-.328-.266-.328-.11 0-.125 0-.22.078-.765.562-1.796.562-2 .562H.845v.47h.203c.156 0 .703-.016 1.297-.204v5.156H.954V0c.437-.031 1.5-.031 1.984-.031s1.546 0 1.984.031m0 0"/><path id="b" d="M5.156-2.219h-.468c-.032.203-.125.844-.266.906-.11.063-.86.063-1.016.063H1.937c.47-.39 1-.812 1.438-1.14 1.14-.844 1.781-1.313 1.781-2.25 0-1.157-1.047-1.891-2.437-1.891-1.219 0-2.156.625-2.156 1.515 0 .594.484.735.718.735C1.61-4.281 2-4.5 2-5c0-.516-.422-.672-.562-.719.28-.234.671-.343 1.03-.343.845 0 1.313.671 1.313 1.421 0 .688-.375 1.375-1.078 2.079l-2 2.046c-.14.11-.14.141-.14.344V0h4.28Zm0 0"/><path id="f" d="M5.156-2c0-1.156-.797-2.078-2.265-2.078-.282 0-.813.031-1.282.344v-1.313c.282.047.391.078.72.078 1.452 0 2.374-1.125 2.374-1.375 0-.078-.016-.187-.14-.187-.032 0-.032 0-.141.047a4.3 4.3 0 0 1-1.531.28c-.75 0-1.282-.202-1.547-.28-.094-.032-.094-.047-.125-.047-.14 0-.14.11-.14.265v2.922c0 .172 0 .297.218.297.125 0 .156-.031.219-.11.39-.468.922-.562 1.328-.562.89 0 .89.875.89 1.672 0 .735 0 1.735-1.187 1.735-.25 0-.875-.063-1.297-.625.36-.016.656-.266.656-.672 0-.532-.437-.672-.672-.672-.14 0-.671.094-.671.703 0 .844.78 1.687 2.015 1.687C4.172.11 5.156-.78 5.156-2m0 0"/><path id="c" d="M4.188 3.656c.468-.281 1.062-.953.609-2.36.516.485 1.36.829 2.11.407.656-.39.827-1.36.124-2.578-.593-1.031-1.547-1.375-2.234-.984-.36.218-.453.625-.266.953.235.39.657.437.953.265.5-.296.329-.812.313-.859.422.156.703.5.86.781C7.077 0 6.546.328 6.265.5 6.156.563 5 1.219 4.438.344c-.22-.344-.235-.375-.266-.39-.063-.095-.156-.063-.219-.032-.14.094-.094.187 0 .328l.219.375c.547.953-.313 1.438-.75 1.703-.406.235-1.297.735-1.813-.156A2.5 2.5 0 0 1 1.266.906c.265.235.593.328.953.125.39-.218.5-.64.281-1.031-.219-.36-.625-.516-1.062-.266-.782.454-.813 1.579-.172 2.688.89 1.531 2.125 1.687 2.922 1.234m0 0"/><path id="d" d="m2.703 4.688.406-.235-.484-.844.953-.546.485.843.406-.234-.485-.844L7.61.734c.22-.125.266-.171.125-.421-.109-.188-.125-.188-.328-.22L1.922-.75l-.406.234 1.437 2.5L2 2.531l-.562-.969-.407.235c.219.312.672 1.094.89 1.469.204.343.626 1.093.782 1.422m.703-2.844L2.187-.281l3.876.594Zm0 0"/><path id="i" d="M2.047 5.25c1.39 0 2.125-1.016 2.125-2.219 0-.219 0-.781-.766-1.203h.188c1.14 0 1.562.219 1.719.281.468.25.828.782.828 1.391 0 .172-.032.516-.266.75a.595.595 0 0 0-.61-.547c-.343 0-.624.235-.624.625s.265.625.64.625c.625 0 1.25-.422 1.25-1.469 0-1.359-.86-3-3.375-3-.781 0-1.578.079-2.265.5-.766.47-1 1.22-1 1.922 0 1.375.812 2.344 2.156 2.344m.015-1.36c-1 0-1.75 0-1.75-1.015 0-.516.391-.781.563-.86.313-.156 1.031-.156 1.219-.156 1.25 0 1.719.532 1.719 1.079 0 .953-.75.953-1.75.953m0 0"/><path id="j" d="M-1.61 8.344.14 7.328c.204-.125 1.516-.812 1.641-.844.203-.078.266 0 .313.063l.406-.234-.969-2.36-.39.235c.297.703.25.875.218.921-.062.11-.765.516-.921.61L-1 6.547c.031-.266.094-.547.156-.828.266-1.453.203-2.985-.531-4.25-.344-.61-.828-.328-.875-.297-.14.078-.531.36-.203.922l.234.406c.235.406.438.844.625 1.281.266.625.375 1.235.266 1.75l-.438 2.344c-.03.14-.015.172.157.469m0 0"/><path id="o" d="m-4.266 2.453.235.406 1.203-.687L.032 7.14c.124.203.171.28.406.14.093-.047.109-.062.14-.172.39-.875 1.281-1.39 1.453-1.5l.172-.093-.234-.391-.172.094c-.14.078-.594.36-1.016.828l-2.578-4.469L-.594.875-.828.469c-.36.25-1.281.781-1.703 1.031-.422.234-1.344.766-1.735.953m0 0"/><path id="p" d="M-2.984 5.406c.468.813 1.687 2.875 3.78 1.672 2.079-1.203.892-3.266.407-4.094-.5-.875-1.64-2.859-3.719-1.656s-.968 3.203-.468 4.078m1.156-.547c-.281-.484-.734-1.28-.906-1.765-.36-.86.125-1.297.39-1.453.297-.172.906-.266 1.375.312.344.39.86 1.281 1.125 1.766.36.625.688 1.187.875 1.672.328.828-.218 1.265-.422 1.375-.328.187-.78.234-1.156-.063-.344-.219-.875-1.14-1.281-1.844m0 0"/><path id="m" d="M-5.25 1.86c0 1.078.844 1.546 1.328 1.828-.687.359-1 .796-1 1.374 0 1.016.906 1.47 2.047 1.47 1.375 0 2.078-.798 2.078-1.75 0-.438-.187-1.063-.953-1.5.828-.376 1.266-.938 1.266-1.673 0-1.203-1.078-1.718-2.36-1.718-1.594 0-2.406.875-2.406 1.968m1.078 3.187c0-.484.25-.813.688-1.11l1.5.844c.156.078.437.25.437.594 0 .703-.89.766-1.297.766-.828 0-1.328-.407-1.328-1.094m-.219-3.734c0-.829.938-1 1.516-1 .969 0 1.547.515 1.547 1.296 0 .766-.531 1.204-.89 1.407l-1.36-.766c-.438-.25-.813-.453-.813-.937m0 0"/><path id="n" d="M-5.469-2.906C-6.047-2.578-8.28-1.281-7.094.78-6.39 2-5.187 2.437-4.03 1.766c1.187-.688 1.328-1.907.718-2.97-.171-.312-.453-.687-1.25-.655l.188-.11c.64-.375 1.188-.562 1.547-.625a1.42 1.42 0 0 1 1.39.703c.079.157.235.485.22.829-.079-.079-.391-.344-.782-.11-.297.172-.437.516-.234.86.187.343.547.406.875.218.593-.343.812-1.062.265-2.015-.64-1.125-2.172-2.078-4.375-.797m-.156 1.672c.531-.313 1.547-.594 1.969.14.484.828-.172 1.203-1.031 1.688-.844.5-1.532.89-2.079-.047-.28-.5.047-.969.11-1.063.218-.25.734-.546 1.031-.718m0 0"/><path id="v" d="m-2.453-4.266-.406.235.687 1.203L-7.14.032c-.203.124-.28.171-.14.406.047.093.062.109.172.14.875.39 1.39 1.281 1.5 1.453l.093.172.391-.234-.094-.172A4.3 4.3 0 0 0-6.047.78l4.469-2.578.703 1.203.406-.234c-.25-.36-.781-1.281-1.031-1.703-.234-.422-.766-1.344-.953-1.735m0 0"/><path id="w" d="m-2.703-4.687-.406.234.484.844-.953.547-.485-.844-.406.234.485.844L-7.61-.734c-.22.125-.266.172-.125.422.109.187.125.187.328.218l5.484.844.406-.234-1.437-2.5.953-.547.563.969.406-.235c-.219-.312-.672-1.094-.89-1.469a26 26 0 0 1-.782-1.421m-.703 2.843L-2.187.281l-3.875-.593Zm0 0"/><path id="r" d="M0-4.922h-.469v1.39h-5.734c-.234 0-.328 0-.328.266 0 .11 0 .125.078.22.562.765.562 1.796.562 2v.202h.47v-.203c0-.156-.016-.703-.204-1.297h5.156v1.39H0c-.031-.437-.031-1.5-.031-1.983 0-.485 0-1.547.031-1.985m0 0"/><path id="s" d="M4.266-2.453 4.03-2.86l-1.203.687-2.86-4.969c-.124-.203-.171-.28-.405-.14-.094.047-.11.062-.141.172-.39.875-1.281 1.39-1.453 1.5l-.172.093.234.391.172-.094c.14-.078.594-.36 1.016-.828l2.578 4.469-1.203.703.234.406c.36-.25 1.281-.781 1.703-1.031.422-.234 1.344-.766 1.735-.953m0 0"/><path id="t" d="m3.36-4.5-.407.234c.078.188.313.797.219.922-.063.11-.719.485-.844.563l-1.281.734c.219-.578.469-1.203.687-1.703.563-1.297.891-2.031.422-2.844-.578-1-1.86-1.11-3.062-.422-1.063.61-1.563 1.625-1.11 2.391.297.516.782.406.985.281.281-.156.515-.547.265-.984-.25-.453-.703-.36-.843-.344.125-.344.406-.625.718-.812.735-.422 1.485-.079 1.86.578.344.593.36 1.375.094 2.343L.359-.796c-.078.156-.062.188.047.36l.078.156 3.704-2.14Zm0 0"/><path id="u" d="M3.656-4.187c-.281-.47-.953-1.063-2.36-.61.485-.516.829-1.36.407-2.11-.39-.655-1.36-.827-2.578-.124-1.031.593-1.375 1.547-.984 2.234.218.36.625.453.953.266a.687.687 0 0 0 .265-.953c-.296-.5-.812-.328-.859-.313.156-.422.5-.703.781-.86C0-7.077.328-6.546.5-6.265c.063.11.719 1.266-.156 1.829-.344.218-.375.234-.39.265-.095.063-.063.156-.032.219.094.14.187.094.328 0l.375-.219c.953-.547 1.438.313 1.703.75.235.406.735 1.297-.156 1.813-.235.14-.688.343-1.266.343.235-.265.328-.593.125-.953-.218-.39-.64-.5-1.031-.281-.36.219-.516.625-.266 1.063.454.78 1.579.812 2.688.171 1.531-.89 1.687-2.125 1.234-2.921m0 0"/><clipPath id="e"><path d="M58 15h19.672v27H58Zm0 0"/></clipPath><clipPath id="g"><path d="M50 0h27.672v11H50Zm0 0"/></clipPath><clipPath id="h"><path d="M67 0h10.672v28H67Zm0 0"/></clipPath><clipPath id="k"><path d="M52 62h25.672v21H52Zm0 0"/></clipPath><clipPath id="l"><path d="M58 47h19.672v27H58Zm0 0"/></clipPath><clipPath id="q"><path d="M20 79h27v15.684H20Zm0 0"/></clipPath></defs><use xlink:href="#a" x="38.445" y="56.522"/><use xlink:href="#b" x="38.445" y="43.108"/><use xlink:href="#c" x="48.716" y="32.262"/><use xlink:href="#d" x="60.281" y="25.585"/><g clip-path="url(#e)"><path fill="none" stroke="#000" stroke-miterlimit="10" stroke-width=".399" d="m73.047 21.52-8.504 14.73"/></g><path fill="none" stroke="#7F7F7F" stroke-miterlimit="10" stroke-width=".199" d="m64.543 36.25-8.504-14.73"/><use xlink:href="#f" x="61.678" y="16.226"/><path fill="none" stroke="#7F7F7F" stroke-miterlimit="10" stroke-width=".199" d="M56.04 4.512h17.007"/><g clip-path="url(#g)"><path fill="none" stroke="#000" stroke-miterlimit="10" stroke-width=".399" d="m56.04 4.512 8.503-3.399 8.504 3.399"/></g><path fill="none" stroke="#7F7F7F" stroke-miterlimit="10" stroke-width=".199" d="M73.047 4.512V21.52"/><g clip-path="url(#h)"><path fill="none" stroke="#000" stroke-miterlimit="10" stroke-width=".399" d="m73.047 4.512 3.402 8.504-3.402 8.504"/></g><path fill="none" stroke="#7F7F7F" stroke-miterlimit="10" stroke-width=".199" d="M73.047 21.52H56.039M56.04 21.52V4.512"/><path fill="none" stroke="#000" stroke-miterlimit="10" stroke-width=".399" d="m56.04 21.52-3.403-8.504 3.402-8.504"/><path fill="none" stroke="#7F7F7F" stroke-miterlimit="10" stroke-width=".199" d="m64.543 36.25-14.73 8.504"/><path fill="none" stroke="#000" stroke-miterlimit="10" stroke-width=".399" d="m64.543 36.25-5.664 7.2-9.066 1.304"/><path fill="none" stroke="#7F7F7F" stroke-miterlimit="10" stroke-width=".199" d="m49.813 44.754-8.504-14.727M41.309 30.027l14.73-8.507"/><path fill="none" stroke="#000" stroke-miterlimit="10" stroke-width=".399" d="m41.309 30.027 5.664-7.199 9.066-1.308"/><path fill="none" stroke="#7F7F7F" stroke-miterlimit="10" stroke-width=".199" d="M49.813 44.754H32.805"/><path fill="none" stroke="#000" stroke-miterlimit="10" stroke-width=".399" d="m32.805 44.754 8.504-14.727"/><use xlink:href="#i" x="51.515" y="50.394"/><use xlink:href="#j" x="62.254" y="60.574"/><path fill="none" stroke="#7F7F7F" stroke-miterlimit="10" stroke-width=".199" d="m73.047 67.988-14.73 8.504"/><g clip-path="url(#k)"><path fill="none" stroke="#000" stroke-miterlimit="10" stroke-width=".399" d="m73.047 67.988-5.664 7.2-9.067 1.304"/></g><path fill="none" stroke="#7F7F7F" stroke-miterlimit="10" stroke-width=".199" d="m58.316 76.492-8.504-14.73"/><path fill="none" stroke="#000" stroke-miterlimit="10" stroke-width=".399" d="m58.316 76.492-7.195-5.664-1.309-9.066"/><path fill="none" stroke="#7F7F7F" stroke-miterlimit="10" stroke-width=".199" d="m49.813 61.762 14.73-8.504M64.543 53.258l8.504 14.73"/><g clip-path="url(#l)"><path fill="none" stroke="#000" stroke-miterlimit="10" stroke-width=".399" d="m64.543 53.258 7.2 5.664 1.304 9.066"/></g><path fill="none" stroke="#7F7F7F" stroke-miterlimit="10" stroke-width=".199" d="M49.813 61.762V44.754"/><path fill="none" stroke="#000" stroke-miterlimit="10" stroke-width=".399" d="m49.813 44.754 14.73 8.504"/><use xlink:href="#m" x="44.174" y="63.465"/><use xlink:href="#n" x="33.903" y="74.256"/><path fill="none" stroke="#7F7F7F" stroke-miterlimit="10" stroke-width=".199" d="m26.578 84.996-8.504-14.73"/><path fill="none" stroke="#000" stroke-miterlimit="10" stroke-width=".399" d="m26.578 84.996-7.195-5.664-1.309-9.066"/><path fill="none" stroke="#7F7F7F" stroke-miterlimit="10" stroke-width=".199" d="m18.074 70.266 14.73-8.504"/><path fill="none" stroke="#000" stroke-miterlimit="10" stroke-width=".399" d="m18.074 70.266 5.664-7.196 9.067-1.308"/><path fill="none" stroke="#7F7F7F" stroke-miterlimit="10" stroke-width=".199" d="m32.805 61.762 8.504 14.73"/><use xlink:href="#o" x="39.757" y="79.354"/><use xlink:href="#p" x="34.796" y="82.218"/><g clip-path="url(#q)"><path fill="none" stroke="#000" stroke-miterlimit="10" stroke-width=".399" d="m41.309 93.5-14.73-8.504"/></g><path fill="none" stroke="#7F7F7F" stroke-miterlimit="10" stroke-width=".199" d="m26.578 84.996 14.73-8.504"/><path fill="none" stroke="#000" stroke-miterlimit="10" stroke-width=".399" d="M41.309 76.492V93.5"/><path fill="none" stroke="#7F7F7F" stroke-miterlimit="10" stroke-width=".199" d="M32.805 61.762h17.008"/><path fill="none" stroke="#000" stroke-miterlimit="10" stroke-width=".399" d="m49.813 61.762-8.504 14.73"/><use xlink:href="#r" x="31.158" y="58.987"/><use xlink:href="#r" x="31.158" y="53.258"/><use xlink:href="#s" x="17.859" y="47.332"/><use xlink:href="#t" x="22.82" y="44.468"/><use xlink:href="#s" x="11.125" y="35.668"/><use xlink:href="#u" x="16.086" y="32.804"/><path fill="none" stroke="#000" stroke-miterlimit="10" stroke-width=".399" d="m9.57 21.52 14.73 8.507"/><path fill="none" stroke="#7F7F7F" stroke-miterlimit="10" stroke-width=".199" d="M24.3 30.027 9.57 38.531"/><path fill="none" stroke="#000" stroke-miterlimit="10" stroke-width=".399" d="M9.57 38.531V21.52"/><path fill="none" stroke="#7F7F7F" stroke-miterlimit="10" stroke-width=".199" d="m24.3 30.027 8.505 14.727"/><path fill="none" stroke="#000" stroke-miterlimit="10" stroke-width=".399" d="m24.3 30.027 7.2 5.66 1.305 9.067"/><path fill="none" stroke="#7F7F7F" stroke-miterlimit="10" stroke-width=".199" d="m32.805 44.754-14.73 8.504"/><use xlink:href="#v" x="15.266" y="51.676"/><use xlink:href="#w" x="12.402" y="46.715"/><path fill="none" stroke="#000" stroke-miterlimit="10" stroke-width=".399" d="M1.066 53.258 9.57 38.53"/><path fill="none" stroke="#7F7F7F" stroke-miterlimit="10" stroke-width=".199" d="m9.57 38.531 8.504 14.727"/><path fill="none" stroke="#000" stroke-miterlimit="10" stroke-width=".399" d="M18.074 53.258H1.066"/><path fill="none" stroke="#7F7F7F" stroke-miterlimit="10" stroke-width=".199" d="M32.805 44.754v17.008"/><path fill="none" stroke="#000" stroke-miterlimit="10" stroke-width=".399" d="m32.805 61.762-14.73-8.504"/></svg>