<svg xmlns="http://www.w3.org/2000/svg" xmlns:xlink="http://www.w3.org/1999/xlink" width="106.886" height="15.932"><defs><path id="a" d="M15.938-7.953c.374 0 .734 0 .734-.422 0-.453-.422-.453-.844-.453H1.984c-.421 0-.843 0-.843.453 0 .422.375.422.75.422Zm-.11 4.406c.422 0 .844 0 .844-.437 0-.422-.36-.422-.735-.422H1.892c-.375 0-.75 0-.75.422 0 .437.422.437.843.437Zm0 0"/><path id="b" d="M17.984-8.11c1.047.891 2.313 1.547 3.125 1.922-.89.391-2.109 1.032-3.125 1.907H2.25c-.422 0-.89 0-.89.484 0 .5.452.5.874.5h14.641c-1.187 1.14-2.484 3.328-2.484 3.64 0 .282.328.282.484.282.188 0 .36 0 .469-.203.515-.938 1.203-2.25 2.828-3.688a11.7 11.7 0 0 1 4.656-2.562c.422-.14.438-.172.485-.219.062-.031.062-.094.062-.14 0-.063 0-.11-.031-.157l-.078-.047c-.047-.03-.078-.046-.547-.203a11.92 11.92 0 0 1-7.203-5.89c-.282-.5-.297-.532-.641-.532-.156 0-.484 0-.484.282 0 .312 1.265 2.468 2.484 3.64H2.235c-.422 0-.876 0-.876.5 0 .485.47.485.891.485Zm0 0"/></defs><use xlink:href="#a" x="-.191" y="13.981"/><use xlink:href="#a" x="24.517" y="13.981"/><use xlink:href="#b" x="38.248" y="13.981"/><path fill="none" stroke="#000" stroke-miterlimit="10" stroke-width="5.749" d="M72.797 7.93h27.516"/><path fill="none" stroke="#FFF" stroke-miterlimit="10" stroke-width="4.155" d="M72.797 7.93h27.516"/><path fill="none" stroke="#000" stroke-linecap="round" stroke-linejoin="round" stroke-miterlimit="10" stroke-width=".797" d="M96.992 1.367c1.613 3.465 5.945 6.438 8.422 6.563-2.477.12-6.809 3.093-8.422 6.558"/></svg>