<svg xmlns="http://www.w3.org/2000/svg" xmlns:xlink="http://www.w3.org/1999/xlink" width="17.156" height="5.492"><defs><path id="a" d="M3.75-.922c0-.484-.422-.812-1.016-.86.532-.093.86-.39.86-.78 0-.454-.438-.86-1.235-.86H.188v.235h.546v2.953H.188V0H2.5c.828 0 1.25-.437 1.25-.922m-.86-1.64c0 .39-.25.687-.734.687h-.765v-1.312h.906c.5 0 .594.39.594.624m.126 1.624c0 .063 0 .704-.72.704h-.905v-1.453h.968c.094 0 .329 0 .5.218.157.203.157.485.157.532m0 0"/><path id="b" d="M2.469-.578c0-.094-.094-.094-.125-.094-.078 0-.094.031-.125.11-.11.234-.39.39-.719.39-.703 0-.703-.656-.703-.922h1.5c.11 0 .172 0 .172-.125 0-.156-.031-.515-.281-.765q-.282-.282-.797-.282c-.797 0-1.235.516-1.235 1.141 0 .672.5 1.156 1.297 1.156S2.47-.5 2.47-.579m-.485-.672H.797c.015-.203.015-.406.125-.562a.55.55 0 0 1 .469-.266c.578 0 .593.656.593.828m0 0"/><path id="c" d="M2.203-1.828c0-.266-.265-.422-.531-.422-.344 0-.547.25-.656.563v-.563l-.828.047v.234c.312 0 .343 0 .343.188v1.547H.188V0l.625-.016c.187 0 .515 0 .687.016v-.234h-.437v-.875c0-.344.125-.953.625-.953 0 0-.094.078-.094.234 0 .203.156.297.312.297.14 0 .297-.11.297-.297m0 0"/><path id="d" d="M1.453 0v-.234H1.11v-3.22l-.875.032v.235c.313 0 .344 0 .344.203v2.75H.234V0l.61-.016Zm0 0"/><path id="e" d="M1.422 0v-.234h-.313V-2.25l-.859.047v.234c.297 0 .328 0 .328.188v1.547H.234V0l.61-.016Zm-.234-3.031a.397.397 0 0 0-.391-.39.397.397 0 0 0-.39.39c0 .219.171.39.39.39s.39-.171.39-.39m0 0"/><path id="f" d="M3.063 0v-.234h-.344v-1.297c0-.516-.266-.719-.766-.719-.484 0-.734.297-.875.547v-.547l-.86.047v.234c.313 0 .345 0 .345.188v1.547H.219V0l.64-.016.625.016v-.234h-.343v-1.047c0-.532.422-.782.734-.782.172 0 .281.11.281.485v1.344h-.344V0l.626-.016Zm0 0"/></defs><use xlink:href="#a" x=".434" y="4.202"/><use xlink:href="#b" x="4.509" y="4.202"/><use xlink:href="#c" x="7.134" y="4.202"/><use xlink:href="#d" x="9.495" y="4.202"/><use xlink:href="#e" x="11.084" y="4.202"/><use xlink:href="#f" x="12.673" y="4.202"/></svg>