<svg xmlns="http://www.w3.org/2000/svg" width="48.93" height="12.08"><defs><clipPath id="a"><path d="M0 0h48.895v11.621H0Zm0 0"/></clipPath><clipPath id="b"><path d="M0 0h11v11.621H0Zm0 0"/></clipPath><clipPath id="c"><path d="M23 0h17v11.621H23Zm0 0"/></clipPath><clipPath id="d"><path d="M38 0h10.895v11H38Zm0 0"/></clipPath></defs><g clip-path="url(#a)"><path fill="none" stroke="#BFBFBF" stroke-miterlimit="10" stroke-width=".399" d="m3.176 8.41 14.172-5.668L31.52 8.41l14.175-5.668"/></g><path fill="#D2C92A" d="M5.168 8.41a1.994 1.994 0 0 0-3.988 0 1.994 1.994 0 0 0 3.988 0m0 0"/><g clip-path="url(#b)"><path fill="none" stroke="#000" stroke-miterlimit="10" stroke-width=".399" d="M5.168 8.41a1.994 1.994 0 0 0-3.988 0 1.994 1.994 0 0 0 3.988 0Zm0 0"/></g><path fill="#D2C92A" stroke="#000" stroke-miterlimit="10" stroke-width=".399" d="M19.34 2.742A1.99 1.99 0 0 0 17.348.75a1.99 1.99 0 0 0-1.993 1.992 1.99 1.99 0 0 0 1.993 1.992 1.99 1.99 0 0 0 1.992-1.992Zm0 0"/><path fill="#D2C92A" d="M33.512 8.41a1.993 1.993 0 1 0-3.983.002 1.993 1.993 0 0 0 3.983-.002m0 0"/><g clip-path="url(#c)"><path fill="none" stroke="#000" stroke-miterlimit="10" stroke-width=".399" d="M33.512 8.41a1.993 1.993 0 1 0-3.983.002 1.993 1.993 0 0 0 3.983-.002Zm0 0"/></g><path fill="#D2C92A" d="M47.688 2.742a1.993 1.993 0 1 0-3.987.002 1.993 1.993 0 0 0 3.986-.002m0 0"/><g clip-path="url(#d)"><path fill="none" stroke="#000" stroke-miterlimit="10" stroke-width=".399" d="M47.688 2.742a1.993 1.993 0 1 0-3.987.002 1.993 1.993 0 0 0 3.986-.002Zm0 0"/></g></svg>