<svg xmlns="http://www.w3.org/2000/svg" width="87.248" height="59.024"><defs><clipPath id="a"><path d="M0 0h64v58.535H0Zm0 0"/></clipPath></defs><path fill="none" stroke="#7F7F7F" stroke-miterlimit="10" stroke-width=".199" d="M.734 57.422h85.04M.733 29.074h85.04M.733.738h85.04M.733 57.422V.727m28.344 56.695V.727m28.348 56.695V.727m28.336 56.695V.727"/><g fill="none" stroke-miterlimit="10" stroke-width=".399" clip-path="url(#a)"><path stroke="red" d="M57.426 57.422a85 85 0 0 0-1.09-11.059 85 85 0 0 0-3.227-10.636 84.5 84.5 0 0 0-5.238-9.801 85 85 0 0 0-7.05-8.59 85 85 0 0 0-8.59-7.05 85 85 0 0 0-9.805-5.24A84 84 0 0 0 11.793 1.82 85 85 0 0 0 .734.727"/><path stroke="#000" d="M57.426 57.422C49.832 29.074 29.078 8.324.734.727"/></g></svg>