<svg xmlns="http://www.w3.org/2000/svg" width="115.594" height="58.898"><defs><clipPath id="a"><path d="M0 9h43v49.848H0Zm0 0"/></clipPath><clipPath id="b"><path d="M52 0h55v58.848H52Zm0 0"/></clipPath><clipPath id="c"><path d="M0 23h31v35.848H0Zm0 0"/></clipPath><clipPath id="d"><path d="M52 17h40v41.848H52Zm0 0"/></clipPath><clipPath id="e"><path d="M0 37h19v21.848H0Zm0 0"/></clipPath><clipPath id="f"><path d="M52 34h26v24.848H52Zm0 0"/></clipPath></defs><path fill="none" stroke="#7F7F7F" stroke-miterlimit="10" stroke-width=".199" d="M.906 57.742h113.387M.906 29.395h113.387M.906 1.059h113.387M.906 57.742V1.047m28.348 56.695V1.047m28.348 56.695V1.047m28.343 56.695V1.047m28.34 56.695V1.047"/><path fill="#CCF" d="M18.816 15.023 1.203 57.543h35.223Zm0 0"/><g clip-path="url(#a)"><path fill="none" stroke="#4040FF" stroke-miterlimit="10" stroke-width=".399" d="M18.816 15.023 1.203 57.543h35.223Zm0 0"/></g><path fill="#CCF" d="M79.156 6.215 57.898 57.543h42.52Zm0 0"/><g clip-path="url(#b)"><path fill="none" stroke="#4040FF" stroke-miterlimit="10" stroke-width=".399" d="M79.156 6.215 57.898 57.543h42.52Zm0 0"/></g><path fill="#CFC" d="M12.945 29.195 1.203 57.543h23.485Zm0 0"/><g clip-path="url(#c)"><path fill="none" stroke="#40FF40" stroke-miterlimit="10" stroke-width=".399" d="M12.945 29.195 1.203 57.543h23.485Zm0 0"/></g><path fill="#CFC" d="M72.07 23.324 57.898 57.543h28.348Zm0 0"/><g clip-path="url(#d)"><path fill="none" stroke="#40FF40" stroke-miterlimit="10" stroke-width=".399" d="M72.07 23.324 57.898 57.543h28.348Zm0 0"/></g><path fill="#FCC" d="m7.074 43.371-5.87 14.172h11.741Zm0 0"/><g clip-path="url(#e)"><path fill="none" stroke="#FF4040" stroke-miterlimit="10" stroke-width=".399" d="m7.074 43.371-5.87 14.172h11.741Zm0 0"/></g><path fill="#FCC" d="m64.984 40.434-7.086 17.109H72.07Zm0 0"/><g clip-path="url(#f)"><path fill="none" stroke="#FF4040" stroke-miterlimit="10" stroke-width=".399" d="m64.984 40.434-7.086 17.109H72.07Zm0 0"/></g></svg>