<svg xmlns="http://www.w3.org/2000/svg" width="68.366" height="40.016"><defs><clipPath id="a"><path d="M0 0h68.05v39.523H0Zm0 0"/></clipPath><clipPath id="b"><path d="M0 0h68v39.523H0Zm0 0"/></clipPath></defs><path fill="#CCF" d="M.898 33.895V5.148A4.424 4.424 0 0 1 5.324.727h57.09a4.424 4.424 0 0 1 4.426 4.421v28.747a4.424 4.424 0 0 1-4.426 4.421H5.324a4.424 4.424 0 0 1-4.426-4.421m0 0"/><g clip-path="url(#a)"><path fill="none" stroke="#7F7FFF" stroke-miterlimit="10" stroke-width=".399" d="M.898 33.895V5.148A4.424 4.424 0 0 1 5.324.727h57.09a4.424 4.424 0 0 1 4.426 4.421v28.747a4.424 4.424 0 0 1-4.426 4.421H5.324a4.424 4.424 0 0 1-4.426-4.421Zm0 0"/></g><g clip-path="url(#b)"><path fill="none" stroke="#000" stroke-miterlimit="10" stroke-width=".399" d="M62.215 19.52c0-7.829-12.692-14.172-28.348-14.172-15.652 0-28.344 6.343-28.344 14.172 0 7.828 12.692 14.175 28.344 14.175 15.656 0 28.348-6.347 28.348-14.175Zm0 0"/></g></svg>