<svg xmlns="http://www.w3.org/2000/svg" xmlns:xlink="http://www.w3.org/1999/xlink" width="110.99" height="51.842"><defs><path id="a" d="M4.563 0v-.437H3.266v-5.157c0-.187 0-.297-.266-.297-.11 0-.125 0-.203.063-.688.516-1.656.516-1.828.516H.797v.437h.172a4.2 4.2 0 0 0 1.203-.172v4.61H.89V0c.343-.031 1.422-.031 1.828-.031.422 0 1.484 0 1.844.031m0 0"/><path id="b" d="M4.86-1.844c0-.484-.094-.968-.61-1.437-.469-.39-.937-.485-1.484-.485-.578 0-.922.407-1.063.688v-.156c0-1.125.219-1.485.313-1.641a1.47 1.47 0 0 1 1.218-.656c.172 0 .454.031.672.234-.36.078-.484.344-.484.563 0 .39.297.593.594.593a.57.57 0 0 0 .578-.609c0-.547-.375-1.14-1.375-1.14-1.297 0-2.781.827-2.781 3.046 0 .438.03 1.313.421 1.953.391.688 1.016 1 1.829 1 1.28 0 2.171-.734 2.171-1.953m-1.266-.015c0 .906 0 1.562-.922 1.562-.531 0-.766-.406-.828-.562-.125-.282-.125-1-.125-1.032 0-.921.39-1.515 1.015-1.515.86 0 .86.656.86 1.547m0 0"/><path id="c" d="M4.766-2.016h-.453c-.016.125-.094.766-.235.829-.11.046-.781.046-.937.046H1.859c.485-.39 1.016-.812 1.47-1.125.75-.53 1.437-1.015 1.437-1.89 0-1.047-.953-1.735-2.25-1.735-1.11 0-1.985.532-1.985 1.36 0 .468.36.687.672.687a.65.65 0 0 0 .656-.672c0-.203-.078-.53-.468-.64.312-.25.718-.282.89-.282.735 0 1.203.547 1.203 1.282 0 .656-.375 1.234-.859 1.718l-2 1.985c-.094.094-.094.11-.094.281V0H4.5Zm0 0"/><path id="d" d="M5.156-5.516v-.265H3.11c-.187 0-1.437-.047-1.546-.078-.172-.047-.188-.11-.204-.203H.906L.594-3.766h.453c.094-.75.25-.812.25-.812.125-.047.812-.047.984-.047h1.5c-.922 1.047-.922 1.063-1.11 1.344-.733 1.11-.89 2.14-.89 2.75 0 .625.485.64.578.64.235 0 .407-.14.454-.187.124-.188.124-.234.124-.75 0-1.156.11-2.234.688-2.89l1.438-1.626c.078-.093.093-.14.093-.172m0 0"/><path id="e" d="M4.86-1.61c0-.718-.532-1.327-1.548-1.546.907-.313 1.25-.938 1.25-1.485 0-.671-.671-1.25-2-1.25-1.109 0-1.828.594-1.828 1.329 0 .406.282.656.641.656.39 0 .656-.281.656-.656 0-.297-.172-.547-.531-.625.063-.063.438-.344 1.016-.344.78 0 .78.593.78.875 0 .5-.187 1.281-.968 1.328l-.422.031c-.14.016-.14.11-.14.172 0 .188.093.188.265.188h.422c1 0 1 .874 1 1.328 0 .406 0 1.312-.953 1.312-.11 0-.734-.016-1.14-.312.406-.11.5-.47.5-.672 0-.422-.298-.703-.72-.703-.374 0-.702.25-.702.703 0 .843.906 1.39 2.093 1.39 1.64 0 2.328-.906 2.328-1.718m0 0"/><path id="f" d="M4.86-1.672c0-.953-.735-1.375-1.204-1.64.64-.313.906-.75.906-1.25 0-.86-.75-1.329-1.89-1.329-1.297 0-1.938.72-1.938 1.594 0 .484.266 1 .86 1.344-.485.25-1.156.61-1.156 1.515 0 1.11 1 1.547 2.203 1.547 1.453 0 2.218-.765 2.218-1.78m-1-2.89c0 .468-.282.796-.657 1l-1.375-.75c-.047-.016-.39-.204-.39-.516 0-.594.703-.703 1.187-.703.797 0 1.234.39 1.234.968m.187 3.375c0 .843-1.047.89-1.39.89-.798 0-1.407-.36-1.407-1.156 0-.406.172-.875.797-1.25l1.203.656c.484.266.797.438.797.86m0 0"/><path id="g" d="M5 0v-.437h-.89v-.954H5v-.437h-.89v-3.766c0-.265-.032-.312-.298-.312-.218 0-.234.015-.328.14L.297-1.828v.437h2.656v.954H1.922V0C2.25-.031 3.14-.031 3.5-.031c.375 0 1.172 0 1.5.031M3.063-1.828H.813l2.25-2.797Zm0 0"/><path id="h" d="M4.766-1.797c0-1.031-.72-1.875-2.078-1.875-.422 0-.797.063-1.188.297v-1.14c.313.062.453.062.64.062.25 0 .829 0 1.5-.453.204-.125.72-.563.72-.797 0-.031 0-.188-.141-.188 0 0-.047 0-.14.047a4.07 4.07 0 0 1-2.813 0c-.125-.047-.157-.047-.157-.047-.125 0-.125.125-.125.266v2.64c0 .157 0 .282.204.282.125 0 .14 0 .234-.125.375-.422.86-.485 1.219-.485.828 0 .828.782.828 1.485 0 .64 0 1.531-1.125 1.531-.485 0-.922-.234-1.14-.516.374-.046.577-.296.577-.624 0-.438-.343-.625-.625-.625s-.625.171-.625.64C.531-.64 1.25.11 2.391.11c1.53 0 2.375-.859 2.375-1.906m0 0"/><clipPath id="i"><path d="M32 38h38v13.762H32Zm0 0"/></clipPath></defs><path fill="none" stroke="#7F7F7F" stroke-miterlimit="10" stroke-width=".399" d="M1.293 40.637h28.348M1.293 12.29h28.348M1.293 40.637V12.289M29.64 40.637V12.289"/><path fill="none" stroke="#CC8714" stroke-miterlimit="10" stroke-width=".598" d="M1.293 26.488s.855-3.113 1.184-3.992.851-2.055 1.18-2.344c.327-.285.85-.144 1.179.278.328.425.855 1.82 1.184 2.78.328.958.851 3.032 1.18 4.13.327 1.098.855 3 1.179 3.781.328.781.855 1.719 1.184 1.863.328.145.851-.27 1.18-.82.327-.555.855-2.148 1.183-3.168.324-1.023.851-3.137 1.18-4.207.328-1.066.851-2.828 1.18-3.504.327-.672.855-1.355 1.183-1.355s.851.683 1.18 1.355c.328.676.855 2.438 1.18 3.504.327 1.07.855 3.184 1.183 4.203.328 1.024.851 2.617 1.18 3.172.328.55.855.965 1.183.82.324-.144.852-1.082 1.18-1.863s.851-2.68 1.18-3.777c.328-1.098.855-3.176 1.183-4.133.328-.961.852-2.356 1.18-2.781.328-.422.851-.563 1.18-.278.327.29.855 1.465 1.183 2.344s1.18 3.992 1.18 3.992"/><path fill="none" stroke="#CC148C" stroke-miterlimit="10" stroke-width=".598" d="M1.293 26.488s.855-3.187 1.184-4.117.851-2.219 1.18-2.594c.327-.375.85-.43 1.179-.109.328.32.855 1.52 1.184 2.414s.851 2.902 1.18 4.043c.327 1.14.855 3.215 1.179 4.176.328.965.855 2.336 1.184 2.765s.851.594 1.18.329c.327-.262.855-1.368 1.183-2.227.324-.86.851-2.824 1.18-3.961.328-1.133.851-3.23 1.18-4.227.327-.992.855-2.449 1.183-2.93.328-.484.851-.753 1.18-.55.328.207.855 1.219 1.18 2.04.327.815.855 2.737 1.183 3.866s.851 3.246 1.18 4.266.855 2.555 1.183 3.09c.324.535.852.914 1.18.765.328-.148.851-1.062 1.18-1.84.328-.777.855-2.648 1.183-3.765s.852-3.25 1.18-4.297c.328-1.043.851-2.652 1.18-3.238.327-.582.855-1.07 1.183-.98.328.093 1.18 1.64 1.18 1.64"/><path fill="none" stroke="#2114CC" stroke-miterlimit="10" stroke-width=".598" d="M1.293 26.488s.855-3.27 1.184-4.258.851-2.39 1.18-2.859c.327-.465.85-.719 1.179-.516.328.208.855 1.184 1.184 1.997.328.808.851 2.699 1.18 3.847.327 1.153.855 3.328 1.179 4.438.328 1.11.855 2.855 1.184 3.562s.851 1.453 1.18 1.52c.327.07.855-.434 1.183-1.024.324-.59.851-2.175 1.18-3.234.328-1.055.851-3.2 1.18-4.371.327-1.176.855-3.18 1.183-4.082.328-.906.851-2.106 1.18-2.442a.81.81 0 0 1 1.18 0c.327.336.855 1.536 1.183 2.442.328.902.851 2.906 1.18 4.082.328 1.172.855 3.316 1.183 4.37.324 1.06.852 2.645 1.18 3.235s.851 1.094 1.18 1.024c.328-.067.855-.813 1.183-1.52s.852-2.453 1.18-3.562c.328-1.11.851-3.285 1.18-4.438.327-1.148.855-3.039 1.183-3.847.328-.813 1.18-1.997 1.18-1.997"/><path fill="none" stroke="#14CCA5" stroke-miterlimit="10" stroke-width=".598" d="M1.293 26.488s.855-3.375 1.184-4.422.851-2.57 1.18-3.136c.327-.567.85-1.028 1.179-.95.328.083.855.82 1.184 1.524.328.707.851 2.426 1.18 3.55.327 1.122.855 3.329 1.179 4.544.328 1.218.855 3.265 1.184 4.222s.851 2.254 1.18 2.676c.327.418.855.59 1.183.348.324-.239.851-1.246 1.18-2.074.328-.829.851-2.723 1.18-3.899.327-1.18.855-3.406 1.183-4.59s.851-3.101 1.18-3.949.855-1.898 1.18-2.164c.327-.266.855-.145 1.183.25s.851 1.652 1.18 2.59c.328.941.855 2.969 1.183 4.183.324 1.211.852 3.422 1.18 4.555s.851 2.887 1.18 3.613c.328.723.855 1.508 1.183 1.618.328.105.852-.305 1.18-.848s.851-2.027 1.18-3.063c.327-1.035.855-3.168 1.183-4.394.328-1.227 1.18-4.445 1.18-4.445"/><path fill="none" stroke="#6ECC14" stroke-miterlimit="10" stroke-width=".598" d="M1.293 26.488s.855-3.496 1.184-4.617c.328-1.117.851-2.773 1.18-3.445.327-.672.85-1.344 1.179-1.399.328-.058.855.422 1.184.996s.851 2.086 1.18 3.145c.327 1.059.855 3.219 1.179 4.496.328 1.274.855 3.531 1.184 4.7.328 1.167.851 2.952 1.18 3.718.327.766.855 1.625 1.183 1.793.324.168.851-.113 1.18-.59.328-.472.851-1.828 1.18-2.82.327-.992.855-3.074 1.183-4.336.328-1.258.851-3.543 1.18-4.75.328-1.211.855-3.113 1.18-3.965.327-.851.855-1.894 1.183-2.172.328-.277.851-.195 1.18.172s.855 1.555 1.183 2.477c.324.918.852 2.91 1.18 4.144.328 1.238.851 3.528 1.18 4.77.328 1.238.855 3.246 1.183 4.18.328.93.852 2.148 1.18 2.53.328.387.851.505 1.18.247.327-.262.855-1.274 1.183-2.11.328-.84 1.18-3.925 1.18-3.925"/><path fill="none" stroke="#CC3F14" stroke-miterlimit="10" stroke-width=".598" d="M1.293 26.488s.855-3.652 1.184-4.851c.328-1.2.851-3 1.18-3.785.327-.79.85-1.692 1.179-1.895.328-.203.855-.004 1.184.418s.851 1.676 1.18 2.633c.327.96.855 2.992 1.179 4.277.328 1.281.855 3.649 1.184 4.973.328 1.328.851 3.508 1.18 4.59.327 1.078.855 2.597 1.183 3.191.324.598.851 1.117 1.18 1.098.328-.02.851-.61 1.18-1.239.327-.628.855-2.199 1.183-3.3.328-1.106.851-3.313 1.18-4.645s.855-3.691 1.18-4.965c.327-1.27.855-3.265 1.183-4.195.328-.934.851-2.125 1.18-2.512.328-.386.855-.515 1.183-.27.324.243.852 1.204 1.18 2.024s.851 2.664 1.18 3.88c.328 1.218.855 3.534 1.183 4.878.328 1.348.852 3.637 1.18 4.816.328 1.18.851 2.934 1.18 3.692.327.754.855 1.59 1.183 1.758.328.164 1.18-.563 1.18-.563"/><path fill="none" stroke="#C414CC" stroke-miterlimit="10" stroke-width=".598" d="M1.293 26.488s.855-3.851 1.184-5.144c.328-1.297.851-3.266 1.18-4.184.327-.918.85-2.066 1.179-2.433.328-.372.855-.48 1.184-.23.328.245.851 1.198 1.18 2.015.327.82.855 2.648 1.179 3.886.328 1.239.855 3.606 1.184 5.028s.851 3.883 1.18 5.226c.327 1.34.855 3.434 1.183 4.442.324 1.011.851 2.343 1.18 2.832s.851.812 1.18.687c.327-.125.855-.87 1.183-1.586.328-.71.851-2.386 1.18-3.558.328-1.168.855-3.461 1.18-4.867.327-1.407.855-3.887 1.183-5.266s.851-3.582 1.18-4.676.855-2.605 1.183-3.207c.324-.605.852-1.14 1.18-1.14s.851.535 1.18 1.14c.328.602.855 2.113 1.183 3.207s.852 3.297 1.18 4.676.851 3.86 1.18 5.266c.327 1.406.855 3.695 1.183 4.867.328 1.168 1.18 3.558 1.18 3.558"/><path fill="none" stroke="#1450CC" stroke-miterlimit="10" stroke-width=".598" d="M1.293 26.488s.855-4.12 1.184-5.535c.328-1.41.851-3.586 1.18-4.656.327-1.067.85-2.492 1.179-3.047.328-.559.855-1.004 1.184-.96.328.042.851.644 1.18 1.28.327.637.855 2.188 1.179 3.32.328 1.13.855 3.391 1.184 4.837s.851 4.05 1.18 5.586c.327 1.53.855 4.078 1.183 5.457.324 1.375.851 3.46 1.18 4.464s.851 2.293 1.18 2.766c.327.473.855.77 1.183.637s.851-.883 1.18-1.598c.328-.719.855-2.39 1.18-3.582.327-1.191.855-3.523 1.183-4.996s.851-4.098 1.18-5.621.855-4.031 1.183-5.363c.324-1.336.852-3.325 1.18-4.258.328-.938.851-2.094 1.18-2.48.328-.384.855-.528 1.183-.305.328.222.852 1.113 1.18 1.91s.851 2.582 1.18 3.828c.327 1.242.855 3.644 1.183 5.14.328 1.497 1.18 5.641 1.18 5.641"/><use xlink:href="#a" x="66.332" y="6.815"/><path fill="none" stroke="#1450CC" stroke-miterlimit="10" stroke-width=".598" d="M41.43 4.602s2.906-1.508 4.98-1.325 7.89 2.47 9.965 2.653c2.07.183 4.98-1.328 4.98-1.328"/><use xlink:href="#b" x="104.811" y="6.815"/><path fill="none" stroke="#2114CC" stroke-miterlimit="10" stroke-width=".598" d="M79.91 4.602s2.906-1.508 4.98-1.325 7.887 2.47 9.962 2.653c2.074.183 4.984-1.328 4.984-1.328"/><use xlink:href="#c" x="66.332" y="17.773"/><path fill="none" stroke="#C414CC" stroke-miterlimit="10" stroke-width=".598" d="M41.43 15.563s2.906-1.512 4.98-1.329 7.89 2.47 9.965 2.657c2.07.183 4.98-1.328 4.98-1.328"/><use xlink:href="#d" x="104.811" y="17.773"/><path fill="none" stroke="#CC148C" stroke-miterlimit="10" stroke-width=".598" d="M79.91 15.563s2.906-1.512 4.98-1.329 7.887 2.47 9.962 2.657c2.074.183 4.984-1.328 4.984-1.328"/><use xlink:href="#e" x="66.332" y="28.732"/><path fill="none" stroke="#CC3F14" stroke-miterlimit="10" stroke-width=".598" d="M41.43 26.52s2.906-1.508 4.98-1.325 7.89 2.47 9.965 2.653c2.07.183 4.98-1.328 4.98-1.328"/><use xlink:href="#f" x="104.811" y="28.732"/><path fill="none" stroke="#CC8714" stroke-miterlimit="10" stroke-width=".598" d="M79.91 26.52s2.906-1.508 4.98-1.325 7.887 2.47 9.962 2.653c2.074.183 4.984-1.328 4.984-1.328"/><use xlink:href="#g" x="66.332" y="39.691"/><path fill="none" stroke="#6ECC14" stroke-miterlimit="10" stroke-width=".598" d="M41.43 37.48s2.906-1.511 4.98-1.328c2.074.184 7.89 2.47 9.965 2.657 2.07.183 4.98-1.329 4.98-1.329"/><use xlink:href="#h" x="66.332" y="50.65"/><g clip-path="url(#i)"><path fill="none" stroke="#14CCA5" stroke-miterlimit="10" stroke-width=".598" d="M41.43 48.438s2.906-1.512 4.98-1.329c2.074.188 7.89 2.473 9.965 2.657 2.07.183 4.98-1.328 4.98-1.328"/></g></svg>