<svg xmlns="http://www.w3.org/2000/svg" xmlns:xlink="http://www.w3.org/1999/xlink" width="77.195" height="46.244"><defs><path id="a" d="M.453 1.219c-.078.343-.11.406-.547.406-.11 0-.218 0-.218.188 0 .078.046.125.125.125.265 0 .562-.032.828-.032.343 0 .672.032 1 .032.046 0 .172 0 .172-.204 0-.109-.094-.109-.235-.109-.5 0-.5-.062-.5-.156 0-.125.422-1.75.484-2 .125.297.407.64.922.64 1.157 0 2.407-1.453 2.407-2.921 0-.938-.578-1.594-1.328-1.594-.5 0-.985.36-1.313.75-.094-.547-.531-.75-.89-.75-.47 0-.657.39-.735.562-.187.344-.312.938-.312.969 0 .11.093.11.109.11.11 0 .11-.016.172-.235.172-.703.375-1.187.734-1.187.172 0 .313.078.313.453 0 .234-.032.343-.079.515Zm1.75-4.328c.063-.266.344-.547.516-.703.36-.297.64-.376.812-.376.39 0 .64.344.64.938s-.327 1.734-.515 2.11C3.312-.439 2.844-.11 2.47-.11c-.656 0-.781-.827-.781-.89 0-.016 0-.031.03-.156Zm0 0"/><path id="b" d="M2.328-4.437c0-.188 0-.188-.203-.188-.453.438-1.078.438-1.36.438v.25c.157 0 .626 0 1-.188v3.547c0 .234 0 .328-.687.328H.812V0c.125 0 .985-.031 1.235-.031.219 0 1.094.031 1.25.031v-.25H3.03c-.703 0-.703-.094-.703-.328Zm0 0"/><path id="d" d="M3.516-1.266H3.28c-.015.157-.094.563-.187.625-.047.047-.578.047-.688.047H1.125c.734-.64.984-.843 1.39-1.172.516-.406 1-.843 1-1.5 0-.843-.734-1.359-1.624-1.359-.86 0-1.453.61-1.453 1.25 0 .344.296.39.375.39.156 0 .359-.124.359-.374 0-.125-.047-.375-.406-.375.218-.485.687-.641 1.015-.641.703 0 1.063.547 1.063 1.11 0 .609-.438 1.078-.656 1.328L.516-.266C.437-.203.437-.187.437 0h2.876Zm0 0"/><path id="e" d="M6.719-3.234c.14-.063.203-.125.203-.22 0-.093-.047-.155-.203-.218l-5.5-2.594c-.125-.078-.172-.078-.188-.078a.197.197 0 0 0-.203.203c0 .125.078.172.188.22L6.25-3.454 1.031-1c-.187.094-.203.172-.203.234 0 .11.094.204.203.204.032 0 .047 0 .172-.079Zm-.157 4.593c.172 0 .36 0 .36-.187 0-.203-.219-.203-.36-.203H1.189c-.157 0-.36 0-.36.203 0 .187.172.187.344.187Zm0 0"/><path id="f" d="M2.938-6.375c0-.25 0-.266-.235-.266C2.078-6 1.203-6 .891-6v.313c.203 0 .78 0 1.297-.266v5.172c0 .36-.032.469-.922.469H.953V0c.344-.031 1.203-.031 1.61-.031.39 0 1.265 0 1.609.031v-.312h-.313c-.906 0-.921-.11-.921-.47Zm0 0"/><clipPath id="c"><path d="M46 5h30.793v34H46Zm0 0"/></clipPath></defs><path fill="none" stroke="#000" stroke-miterlimit="10" stroke-width=".399" d="M22.922 21.742c0-6.105-4.95-11.058-11.059-11.058-6.105 0-11.058 4.953-11.058 11.058 0 6.11 4.953 11.059 11.058 11.059 6.11 0 11.059-4.95 11.059-11.059Zm0 0"/><use xlink:href="#a" x="7.123" y="5.028"/><use xlink:href="#b" x="12.136" y="6.522"/><path d="M10.758 21.742a2.211 2.211 0 1 0-4.423.001 2.211 2.211 0 0 0 4.423 0M17.395 21.742a2.214 2.214 0 0 0-4.426 0 2.212 2.212 0 0 0 4.426 0m0 0"/><g clip-path="url(#c)"><path fill="none" stroke="#000" stroke-miterlimit="10" stroke-width=".399" d="M73.785 21.742c0-6.105-4.95-11.058-11.058-11.058-6.106 0-11.059 4.953-11.059 11.058 0 6.11 4.953 11.059 11.059 11.059 6.109 0 11.058-4.95 11.058-11.059Zm0 0"/></g><use xlink:href="#a" x="48.853" y="42.941"/><use xlink:href="#d" x="53.865" y="44.435"/><use xlink:href="#e" x="61.102" y="42.941"/><use xlink:href="#f" x="71.618" y="42.941"/></svg>