<svg xmlns="http://www.w3.org/2000/svg" xmlns:xlink="http://www.w3.org/1999/xlink" width="74.324" height="116.984"><defs><path id="b" d="m.844-3.906-.469-.266-.234.406.453.25c.578.344.61.735.469.97-.282.5-.844.187-1.032.077l-2.375-1.375.735-1.265-.407-.235-.734 1.266-1.656-.953-.235.406c.875.5 1.47 1.406 1 2.297l.313.187.422-.718L-.546-1.5c.921.531 1.53-.11 1.89-.734.375-.641.11-1.313-.5-1.672m0 0"/><path id="c" d="M1.438-4.844c-.141-.093-.235.078-.25.11-.094.156-.063.203.046.328.313.406.297 1.062-.03 1.625-.704 1.219-1.86.578-2.282.328l1.5-2.61c.11-.203.156-.28-.078-.421-.266-.157-.938-.453-1.625-.282-.485.125-.89.516-1.235 1.11-.796 1.375-.343 2.656.72 3.265C-.626-.719.703-1.109 1.5-2.5c.797-1.36.094-2.266-.062-2.344m-1.625.14-1.188 2.079c-.328-.203-.687-.437-.875-.766a1.23 1.23 0 0 1 .047-1.093c.578-1.016 1.719-.375 2.015-.22m0 0"/><path id="d" d="M2.906-5.047 2.5-5.28l-.344.61-2.562.468-.547-1.656c-.047-.188-.063-.282.344-.985l-.407-.234-.421.797-.547.89.406.235a.67.67 0 0 1 .25-.297c.047.062.062.078.062.125l.407 1.187-1.485.297.203-.36-.406-.234-.578 1.079-.578.922.406.234.36-.625 2.359-.422.625 1.86c.078.234-.11.546-.344.968l.406.235L.531-1l.547-.875-.406-.234c-.094.156-.235.297-.281.265 0 0-.016-.015-.047-.093l-.469-1.391 1.672-.297-.188.328.407.235.562-1.047Zm0 0"/><path id="f" d="M-1.578-9.484c-.375-.22-.938-.11-1.328.547-.172.312-.422.843-.39 1.39-.517.188-.798.672-.907.86-.61 1.046-.969 2.468.031 3.062l.875.5-.375.656.406.235.375-.657L.125-1.156l-.344.593.407.235.578-1.063.64-1.062L1-2.688l-.344.594-3.015-1.734 1.047-1.813 3.015 1.735-.344.61.407.233.593-1.109c.188-.328.516-.875.72-1.172l-.407-.234-.438.75L-.78-6.562l.594-1.016-.407-.234-.61 1.062-.874-.516c-1-.562-.625-1.312-.531-1.468.046-.079.078-.079.125-.141.015.188.125.36.28.453a.624.624 0 0 0 .845-.234c.156-.266.14-.625-.22-.828M-3.5-6.954c0 .016-.016.329.297.516.156.079.36.141.562.032l.922.531L-2.797-4l-.86-.5c-.718-.406-.718-1.187-.265-1.969.156-.265.313-.422.422-.484m0 0"/><path id="g" d="M1.36-4.703c-.126-.078-.188.047-.235.125-.094.156-.062.172.016.297.422.531.328 1.031.078 1.468-.688 1.204-1.953.485-2.36.25-.484-.28-1.593-.921-.953-2.03.172-.313.266-.438.375-.548.047.25.219.36.297.407.375.218.703.015.844-.22.156-.265.125-.655-.219-.859-.75-.421-1.375.547-1.656 1.047-.906 1.563-.281 2.75.719 3.329 1.156.671 2.437.328 3.203-1 .812-1.407-.047-2.235-.11-2.266m0 0"/><path id="h" d="M.86-4.266c-.376-.218-.766-.218-1.188-.062-.453.187-.656.453-1.172 1.031-.234.297-.64.797-1.047.563-.547-.313-.094-1.11 0-1.266.375-.656.813-.828 1.328-.594.125.063.188.063.282-.11.125-.202.078-.218-.125-.343l-.688-.39c-.156-.094-.234-.141-.328 0-.016.046-.031.062-.063.5-.25.156-.468.421-.656.765-.156.266-.922 1.594.203 2.25.344.188.672.156.922.063.484-.172.75-.485 1.25-1.063.235-.281.703-.86 1.219-.562.656.375.203 1.172.094 1.359-.532.922-1.297.75-1.735.656-.125-.031-.156.016-.219.125-.125.219-.078.25.11.36L0-.437c.156.093.234.14.328-.016C.36-.516.36-.531.344-.797l-.031-.281c.515-.25.78-.703.875-.875.156-.281.921-1.594-.329-2.313m0 0"/><path id="j" d="M2.547-4.89c-.203-.126-.266-.016-.328.109-.328.531-.438.468-.64.343L-.267-5.5c-.78-.453-1.671-.156-2.421 1.125-.282.484-.86 1.563-.094 2 .375.219.703.016.844-.219.156-.265.125-.656-.22-.86-.265-.14-.5-.062-.546-.062.11-.25.25-.546.312-.64.375-.657.907-.75 1.563-.375l.297.172c-.344.64-1.516 2.875-.281 3.593.828.47 1.609-.5 1.953-1.093.39-.688.28-1.297.03-1.703.266.156.657.374 1.188-.532l.235-.406c.094-.172.156-.281-.047-.39m-2 1.156c.844.484.5 1.343.375 1.562-.266.453-.766.61-1.156.375-.922-.531-.25-1.953-.032-2.406Zm0 0"/><path id="k" d="m1.453-2.531-.406-.235-.344.594L-4.89-5.39l-.796 1.563.406.234c.312-.547.343-.594.672-.39l4.78 2.75-.343.593.406.235.579-1.078Zm0 0"/><path id="l" d="M.828-5.766c-1.172-.671-2.5-.375-3.312 1.047-.813 1.407-.391 2.703.765 3.375 1.063.61 2.36.328 3.188-1.093.843-1.454.406-2.72-.64-3.329M.094-4.719c.734.438 1.672.969 1.031 2.078-.625 1.094-1.562.563-2.297.125-.406-.218-.828-.468-1.047-.796-.234-.344-.187-.829.047-1.235.219-.375.547-.656.953-.672.407-.015.89.266 1.313.5m0 0"/><path id="m" d="m3.063-5.297-.407-.234-.344.593-2.234-1.28c-.906-.532-1.515-.266-2.015.593-.485.828-.25 1.578.062 2.047l-.937-.531-.782 1.515.406.235c.313-.532.344-.594.672-.391L.156-1.219l-.343.594.406.234.594-1.093.656-1.078-.407-.235-.343.594-1.797-1.031c-.953-.547-.938-1.532-.625-2.094.172-.281.469-.36 1.125.016L1.75-3.97l-.344.594.407.234.593-1.093Zm0 0"/><path id="n" d="M-.64-6.781a.57.57 0 0 0-.813.234c-.078.14-.281.563-.203 1.11-.203.093-.594.359-.969 1-.719 1.25-.297 2.109.297 2.453.344.203.812.234 1.156.062.172.438.422.64.594.75.14.078.594.281 1.047.094C.438-.953.266-.203.813.109c.421.25 1.359.141 2.343-1.578.89-1.531.781-2.515.172-2.86-.265-.155-.844-.374-1.469.032-.53.344-.828.86-1.312 1.688-.125.234-.36.625-.39.64a.613.613 0 0 1-.813.172.64.64 0 0 1-.25-.25c.437-.281.719-.703.844-.922.718-1.25.328-2.11-.282-2.453-.406-.234-.812-.187-1.031-.14 0-.329.11-.516.156-.625.016.046.078.109.14.14.22.125.454.063.579-.172.125-.218.063-.453-.14-.562M-.907-4.47c.39.219.969.563.531 1.328-.437.75-1.016.407-1.406.188-.375-.219-.969-.563-.532-1.313.438-.765 1.032-.421 1.407-.203m3.828.907c.297.171.578.78-.078 1.906-.594 1.015-1.235 1.234-1.625 1C.687-.953 1-1.5 1.079-1.61l.577-1.016c.157-.281.719-1.25 1.266-.937m0 0"/><path id="p" d="M1.063-6.297c-1.157-.656-2.422-.328-3.141.906a2.53 2.53 0 0 0-.328 1.532l-.422-.235-.797 1.563.406.234c.297-.531.344-.594.672-.406L1.797-.187l-.344.593.406.235.61-1.094.64-1.063-.406-.234-.344.594L.75-2.078a2.04 2.04 0 0 0 1.031-.89c.75-1.298.469-2.641-.718-3.329m-.641 1.11c1.219.703 1.328 1.578 1 2.14-.063.125-.297.531-1.016.64-.156.032-.172.032-.328-.062L-1.75-3.53c-.156-.094-.172-.11-.219-.313a1.63 1.63 0 0 1 .157-1.219c.328-.562 1.14-.75 2.234-.125m0 0"/><path id="q" d="m3.063-5.297-.407-.234-.344.593-2.234-1.28c-.906-.532-1.515-.266-2.015.593a1.87 1.87 0 0 0-.016 1.938l-2.938-1.688-.812 1.563.406.234c.313-.531.344-.594.672-.39l4.781 2.75-.343.593.406.234.594-1.093.656-1.078-.407-.235-.343.594-1.797-1.031c-.953-.547-.938-1.532-.625-2.094.172-.281.469-.36 1.125.016L1.75-3.97l-.344.594.407.234.593-1.093Zm0 0"/><path id="r" d="M-4.203-5.344c-.344-.187-.813-.047-1.016.313-.218.375-.125.86.219 1.047.047.03.063.046.172.062l3.406 1.375c.219.094.234.094.344-.094.094-.156.094-.187-.063-.328l-2.968-2.297ZM.578-2.562c-.375-.204-.86-.094-1.062.265a.77.77 0 0 0 .297 1.063.77.77 0 0 0 1.062-.282.775.775 0 0 0-.297-1.046m0 0"/><path id="e" d="M-2.687-4.234c-.157-.094-.157-.094-.25.078.14.61-.172 1.156-.313 1.406l.219.125c.078-.14.312-.547.328-.969L.375-1.813c.203.11.281.157-.062.75l-.125.235.218.125c.063-.11.453-.875.578-1.078.11-.203.579-.938.657-1.078l-.22-.125-.124.234c-.36.61-.438.563-.64.453Zm0 0"/><path id="i" d="m.656-3.672-.11.203c.126.094.438.36.438.485.016.046-.25.515-.296.609l-.641 1.11a41 41 0 0 1-.328-1.782c-.078-.656-.235-1.297-.797-1.625-.734-.422-1.531-.047-1.984.719-.422.75-.204 1.578.359 1.89.297.172.484-.062.531-.124a.37.37 0 0 0-.156-.5c-.11-.063-.344-.141-.531.171a1.11 1.11 0 0 1-.032-1.218c.344-.61 1-.641 1.485-.36.531.297.718.922.828 1.235L.016-.58c.03.11.047.11.203.204l1.437-2.5Zm0 0"/><path id="o" d="M-1.062-2.812c.265-.47.796-.626 1.437-.25.75.421.719 1.015.531 1.359-.14.234-.531.734-1.031.766.156-.282 0-.47-.14-.547-.188-.11-.407-.047-.516.156-.094.156-.094.39.156.531.563.328 1.297-.094 1.719-.812.484-.844.234-1.735-.36-2.078-.468-.282-1.156-.172-1.671.406.125-.75-.188-1.235-.579-1.453-.468-.282-1.125.046-1.515.734-.375.656-.36 1.36.14 1.64.204.126.391.047.485-.124.11-.188.047-.391-.125-.485-.172-.11-.375-.062-.5.125-.14-.375.031-.812.172-1.031.156-.281.515-.578 1.015-.281.266.14.5.39.578.656.125.328.032.5-.109.813-.062.171-.078.171-.094.203 0 .015-.031.078.047.125.078.046.11-.016.172-.125Zm0 0"/><path id="s" d="m.86-3.75-.22-.125-.39.672-2.687-1.563c-.126-.062-.188-.093-.266.032-.047.078-.063.109 0 .203l1.625 3.61.219.124L.17-2.578l.485.281c.219.125.282.156 0 .656l-.094.157.22.125c.155-.313.359-.703.484-.922.14-.219.375-.594.562-.906l-.219-.126-.093.172c-.282.5-.344.47-.563.344L.47-3.078Zm-3.079-.281L-.016-2.75l-.921 1.61Zm0 0"/><clipPath id="a"><path d="M0 96h16v20.977H0Zm0 0"/></clipPath></defs><g clip-path="url(#a)"><use xlink:href="#b" x="5.29" y="116.944"/><use xlink:href="#c" x="7.517" y="113.087"/><use xlink:href="#d" x="10.142" y="108.541"/><use xlink:href="#b" x="13.165" y="103.304"/></g><use xlink:href="#e" x="16.685" y="100.194"/><use xlink:href="#c" x="19.534" y="92.271"/><use xlink:href="#f" x="22.159" y="87.724"/><use xlink:href="#c" x="25.501" y="81.935"/><use xlink:href="#g" x="28.126" y="77.388"/><use xlink:href="#b" x="30.672" y="72.979"/><use xlink:href="#h" x="32.898" y="69.123"/><use xlink:href="#i" x="36.455" y="65.953"/><use xlink:href="#j" x="39.303" y="58.031"/><use xlink:href="#k" x="42.087" y="53.208"/><use xlink:href="#l" x="43.676" y="50.456"/><use xlink:href="#m" x="46.541" y="45.495"/><use xlink:href="#n" x="49.724" y="39.982"/><use xlink:href="#o" x="53.882" y="35.769"/><use xlink:href="#p" x="56.73" y="27.846"/><use xlink:href="#j" x="59.913" y="22.333"/><use xlink:href="#b" x="62.697" y="17.51"/><use xlink:href="#q" x="64.924" y="13.653"/><use xlink:href="#r" x="68.107" y="8.14"/><use xlink:href="#s" x="71.144" y="5.867"/></svg>