<svg xmlns="http://www.w3.org/2000/svg" xmlns:xlink="http://www.w3.org/1999/xlink" width="336.494" height="232.256"><defs><path id="a" d="M5.984-2.219c0-1.328-.906-2.265-2.343-2.265-.75 0-1.282.312-1.5.484v-.484l-1.766.078v.468c.61 0 .688 0 .688.376v5.03H.375v.47l1.25-.032 1.25.032v-.47h-.687V-.39a2 2 0 0 0 1.28.454c1.5 0 2.516-.907 2.516-2.282m-1.28 0C4.703-.813 4-.297 3.358-.297c-.14 0-.609 0-1.062-.547-.11-.125-.11-.14-.11-.328v-2.11c0-.187.016-.202.157-.343.39-.406.922-.469 1.14-.469.657 0 1.22.61 1.22 1.875m0 0"/><path id="b" d="M5.984 1.938v-.47h-.687v-5.952H4.89l-.532.78a1.85 1.85 0 0 0-1.5-.78c-1.453 0-2.484.89-2.484 2.265C.375-.813 1.391.063 2.765.063c.5 0 .938-.141 1.407-.547v1.953h-.688v.468l1.25-.03Zm-1.75-3.36c0 .188 0 .219-.156.422-.406.594-.906.703-1.203.703-.625 0-1.219-.578-1.219-1.906 0-1.422.735-1.89 1.328-1.89.766 0 1.25.796 1.25 1.296Zm0 0"/><path id="c" d="M4.406-3.672c0-.531-.531-.812-1.062-.812-.688 0-1.094.5-1.313 1.125v-1.125l-1.656.078v.468c.61 0 .688 0 .688.391v3.078H.375V0l1.25-.031C2-.031 2.641-.031 3 0v-.469h-.86v-1.75c0-.687.235-1.906 1.235-1.906 0 0-.187.172-.187.453 0 .406.328.61.609.61.297 0 .61-.204.61-.61m0 0"/><clipPath id="d"><path d="M120 195h209v36.883H120Zm0 0"/></clipPath><clipPath id="e"><path d="M7 174h125v57.883H7Zm0 0"/></clipPath></defs><path fill="#999" d="m126.328 121.16-22.676 11.738 82.153 25.665 24.695-3.04Zm0 0"/><path fill="#7F7F7F" d="M126.328 230.684V121.16l-22.676 11.738-15.12 80.844Zm0 0"/><path fill="#BFBFBF" d="M126.328 230.684V121.16l84.172 34.363 33.664 57.551Zm0 0"/><path d="M325.543 201.336a2.818 2.818 0 1 0-5.636.004 2.818 2.818 0 0 0 5.636-.004m0 0"/><use xlink:href="#a" x="329.257" y="202.612"/><path d="M15.762 179.855a2.818 2.818 0 0 0-5.637 0 2.818 2.818 0 0 0 5.637 0m0 0"/><use xlink:href="#b" x=".36" y="181.131"/><path d="M129.148 11.637a2.82 2.82 0 1 0-5.638-.003 2.82 2.82 0 0 0 5.638.003m0 0"/><use xlink:href="#c" x="123.968" y="5.102"/><g clip-path="url(#d)"><path fill="none" stroke="#000" stroke-dasharray="0.3985 1.99255" stroke-miterlimit="10" stroke-width=".399" d="m126.328 230.684 196.395-29.348"/></g><path fill="none" stroke="#000" stroke-dasharray="0.3985 1.99255" stroke-miterlimit="10" stroke-width=".399" d="m126.328 121.16 196.395 80.176M88.531 213.742l234.192-12.406M103.652 132.898l219.07 68.438"/><g clip-path="url(#e)"><path fill="none" stroke="#000" stroke-dasharray="0.3985 1.99255" stroke-miterlimit="10" stroke-width=".399" d="M126.328 230.684 12.941 179.855"/></g><path fill="none" stroke="#000" stroke-dasharray="0.3985 1.99255" stroke-miterlimit="10" stroke-width=".399" d="M126.328 121.16 12.941 179.855M244.164 213.074 12.941 179.855M210.5 155.523 12.941 179.855M126.328 230.684V11.637M88.531 213.742l37.797-202.105M244.164 213.074 126.328 11.637M205.629 207.54l-79.3-195.903"/></svg>