<svg xmlns="http://www.w3.org/2000/svg" xmlns:xlink="http://www.w3.org/1999/xlink" width="94.736" height="90.524"><defs><path id="a" d="M5.828 0v-.469h-.703L3.453-2.453 4.61-3.75c.141-.14.204-.203 1.016-.203v-.469l-.906.031-1.032-.03v.468c.141 0 .266.015.376.078-.032.063-.032.094-.079.125l-.828.938-.984-1.141h.406v-.469L1.36-4.39.266-4.42v.468h.718l1.547 1.828L1.22-.656c-.157.187-.516.187-1 .187V0l.922-.031L2.156 0v-.469c-.172 0-.36-.047-.36-.11 0 0 0-.015.063-.093l.97-1.094L3.921-.469h-.39V0l1.202-.031Zm0 0"/><path id="b" d="M5.781-3.953v-.469A13 13 0 0 1 5-4.39l-.906-.03v.468s.468 0 .468.11L4.5-3.72 3.36-1.266 2.093-3.953h.531v-.469l-1.234.031-1.125-.03v.468H.89L2.766 0 2.53.484C2.312.954 2 1.641 1.281 1.641c-.14 0-.156-.016-.234-.047.094-.032.312-.172.312-.532C1.36.734 1.125.5.781.5a.553.553 0 0 0-.562.578c0 .5.469.922 1.062.922.766 0 1.344-.625 1.625-1.187l2.14-4.563c.063-.14.095-.203.735-.203m0 0"/><path id="c" d="M4.61-2.016h-.47C4.048-1 3.89-.406 2.579-.406h-.86L4.469-4c.095-.11.11-.125.11-.219 0-.203-.14-.203-.328-.203H.594l-.11 1.734h.47c.046-1.015.359-1.374 1.39-1.374h.844L.406-.437C.312-.328.312-.312.312-.22.313 0 .454 0 .642 0h3.78Zm0 0"/></defs><path fill="#999" d="M35.555 20.824 7.21 8.117 56.309.781l28.343 12.707Zm0 0"/><path fill="#7F7F7F" d="M35.555 75.586V20.824L7.21 8.117V62.88Zm0 0"/><path fill="#BFBFBF" d="M35.555 75.586V20.824l49.097-7.336V68.25Zm0 0"/><path fill="none" stroke="#000" stroke-miterlimit="10" stroke-width=".399" d="m23.281 77.418 60.98-9.11"/><path fill="none" stroke="#000" stroke-linecap="round" stroke-linejoin="round" stroke-miterlimit="10" stroke-width=".39898005000000003" d="M82.055 66.219c.586 1.363 1.52 1.91 2.402 2.058-.8.403-1.535 1.196-1.695 2.672"/><use xlink:href="#a" x="87.768" y="69.543"/><path fill="none" stroke="#000" stroke-miterlimit="10" stroke-width=".399" d="M42.645 78.762 7.575 63.039"/><path fill="none" stroke="#000" stroke-linecap="round" stroke-linejoin="round" stroke-miterlimit="10" stroke-width=".39898803000000005" d="M8.305 65.988c.242-1.465-.254-2.426-.914-3.027.89.09 1.937-.18 2.87-1.336"/><use xlink:href="#b" x=".643" y="62.505"/><path fill="none" stroke="#000" stroke-miterlimit="10" stroke-width=".399" d="M35.555 89.277V21.223"/><path fill="none" stroke="#000" stroke-linecap="round" stroke-linejoin="round" stroke-miterlimit="10" stroke-width=".399" d="M33.164 23.094c1.438-.38 2.113-1.223 2.39-2.07.282.847.958 1.69 2.391 2.07"/><use xlink:href="#c" x="33.011" y="16.19"/></svg>