<svg xmlns="http://www.w3.org/2000/svg" width="67.304" height="36.164"><defs><clipPath id="a"><path d="M43 0h23.957v8H43Zm0 0"/></clipPath><clipPath id="b"><path d="M44 20h22.957v15.746H44Zm0 0"/></clipPath><clipPath id="c"><path d="M14 23h30v12.746H14Zm0 0"/></clipPath></defs><path fill="#CCF" d="M.652 30.39 29 2.044h28.348v28.348H29"/><path fill="none" stroke="#000" stroke-miterlimit="10" stroke-width=".399" d="M20.496 2.043c2.871-1.66 5.633-1.66 8.504 0 2.871-1.66 5.633-1.66 8.504 0"/><g clip-path="url(#a)"><path fill="none" stroke="#000" stroke-miterlimit="10" stroke-width=".399" d="M48.844 2.043c2.87-1.66 5.629-1.66 8.504 0 2.87-1.66 5.629-1.66 8.504 0"/></g><g clip-path="url(#b)"><path fill="none" stroke="#000" stroke-miterlimit="10" stroke-width=".399" d="M49.98 34.64c1.66-2.87 4.051-4.25 7.368-4.25 1.656-2.874 4.047-4.253 7.363-4.253"/></g><g clip-path="url(#c)"><path fill="none" stroke="red" stroke-miterlimit="10" stroke-width=".399" d="M20.496 30.39c2.871-1.66 5.633-1.66 8.504 0 2.871-1.66 5.633-1.66 8.504 0"/></g></svg>