<svg xmlns="http://www.w3.org/2000/svg" xmlns:xlink="http://www.w3.org/1999/xlink" width="181.898" height="153.848"><defs><clipPath id="a"><path d="M165 23h16.848v22H165Zm0 0"/></clipPath><clipPath id="b"><path d="M52 137h21v16.773H52Zm0 0"/></clipPath><clipPath id="c"><path d="M80 137h22v16.773H80Zm0 0"/></clipPath><clipPath id="d"><path d="M108 137h22v16.773h-22Zm0 0"/></clipPath><clipPath id="e"><path d="M137 137h21v16.773h-21Zm0 0"/></clipPath><path id="f" d="M5.516-.234c0-.235-.125-.235-.266-.235-.61-.015-.61-.14-.61-.375v-2.14c0-.891-.702-1.532-2.187-1.532-.562 0-1.781.047-1.781.922 0 .438.344.625.61.625.312 0 .624-.219.624-.625 0-.297-.187-.469-.218-.5a5 5 0 0 1 .718-.062c.75 0 1.11.422 1.11 1.172v.343c-.72.032-3.25.125-3.25 1.563C.266-.125 1.5.062 2.188.062c.796 0 1.265-.406 1.484-.828 0 .313 0 .766 1.047.766h.468c.204 0 .329 0 .329-.234m-2-1.157c0 .97-.922 1.094-1.172 1.094-.516 0-.906-.344-.906-.797 0-1.062 1.578-1.203 2.078-1.234Zm0 0"/><path id="g" d="M4.36-6.11c0-.421-.36-.874-1.141-.874-.969 0-2.047.422-2.047 1.547v1.015h-.75v.469h.75V-.47H.484V0l1.25-.031c.375 0 1.016 0 1.375.031v-.469H2.25v-3.484h1.14v-.469H2.188v-1.016c0-1.093.75-1.187 1-1.187.047 0 .11 0 .172.031a.59.59 0 0 0-.234.485c0 .422.36.609.61.609.296 0 .624-.203.624-.61m0 0"/><path id="h" d="M5.563-3.953c0-.235-.172-.578-.625-.578-.157 0-.625.031-1.063.375-.172-.125-.594-.328-1.328-.328-1.438 0-1.985.78-1.985 1.468 0 .407.188.829.516 1.047-.281.36-.344.688-.344.89 0 .157.047.642.438.954-.125.031-.86.25-.86.875C.313 1.25.876 2 2.86 2 4.625 2 5.406 1.422 5.406.719c0-.297-.078-.922-.75-1.266-.562-.281-1.156-.281-2.11-.281-.265 0-.718 0-.765-.016a.625.625 0 0 1-.562-.625c0-.093.047-.25.11-.328.452.234.968.266 1.218.266 1.437 0 1.984-.782 1.984-1.485 0-.468-.25-.796-.406-.953.297-.156.516-.172.625-.187a.43.43 0 0 0-.047.203c0 .25.172.422.438.422a.41.41 0 0 0 .422-.422m-2.141.937c0 .454 0 1.125-.875 1.125s-.875-.671-.875-1.125c0-.437 0-1.109.875-1.109s.875.672.875 1.11M4.547.75c0 .36-.39.89-1.688.89-1.187 0-1.687-.452-1.687-.906 0-.609.625-.609.766-.609h1.171c.313 0 1.438 0 1.438.625m0 0"/><path id="i" d="M6.125 0v-.469h-.687v-2.578c0-1.047-.532-1.437-1.532-1.437-.953 0-1.484.562-1.75 1.078v-1.078l-1.703.078v.468c.61 0 .688 0 .688.391v3.078H.453V0l1.25-.031L2.953 0v-.469h-.687v-2.078c0-1.094.859-1.578 1.5-1.578.328 0 .547.203.547.969V-.47h-.688V0l1.25-.031Zm0 0"/></defs><path fill="#7F7F7F" stroke="#000" stroke-miterlimit="10" stroke-width=".399" d="M10.559 5.82a4.698 4.698 0 0 0-9.395 0 4.698 4.698 0 0 0 9.395 0Zm0 0"/><path fill="none" stroke="#000" stroke-miterlimit="10" stroke-width=".399" d="M38.906 5.82a4.698 4.698 0 0 0-9.394 0 4.698 4.698 0 0 0 9.395 0ZM67.25 5.82a4.695 4.695 0 0 0-4.695-4.695 4.695 4.695 0 0 0-4.696 4.695 4.695 4.695 0 0 0 4.696 4.696A4.695 4.695 0 0 0 67.25 5.82Zm0 0"/><path fill="#7F7F7F" stroke="#000" stroke-miterlimit="10" stroke-width=".399" d="M95.598 5.82a4.695 4.695 0 0 0-4.696-4.695 4.695 4.695 0 0 0-4.695 4.695 4.695 4.695 0 0 0 4.695 4.696 4.695 4.695 0 0 0 4.696-4.696Zm0 0"/><path fill="none" stroke="#000" stroke-miterlimit="10" stroke-width=".399" d="M95.598 34.168c0-2.594-2.102-4.7-4.696-4.7a4.698 4.698 0 0 0 0 9.395 4.695 4.695 0 0 0 4.696-4.695ZM123.945 34.168c0-2.594-2.101-4.7-4.695-4.7a4.698 4.698 0 0 0 0 9.395 4.695 4.695 0 0 0 4.695-4.695ZM152.293 34.168a4.698 4.698 0 1 0-9.396-.003 4.698 4.698 0 0 0 9.396.003Zm0 0"/><path fill="#7F7F7F" d="M180.64 34.168a4.698 4.698 0 1 0-9.393-.003 4.698 4.698 0 0 0 9.394.003m0 0"/><g clip-path="url(#a)"><path fill="none" stroke="#000" stroke-miterlimit="10" stroke-width=".399" d="M180.64 34.168a4.698 4.698 0 1 0-9.393-.003 4.698 4.698 0 0 0 9.394.003Zm0 0"/></g><path fill="none" stroke="#000" stroke-miterlimit="10" stroke-width=".399" d="M38.906 62.512a4.698 4.698 0 1 0-9.396.005 4.698 4.698 0 0 0 9.396-.005ZM67.25 62.512a4.695 4.695 0 0 0-4.695-4.696 4.698 4.698 0 0 0 0 9.395 4.7 4.7 0 0 0 4.695-4.7ZM95.598 62.512a4.695 4.695 0 0 0-4.696-4.696 4.698 4.698 0 0 0 0 9.395 4.7 4.7 0 0 0 4.696-4.7Zm0 0"/><path fill="#7F7F7F" stroke="#000" stroke-miterlimit="10" stroke-width=".399" d="M123.945 62.512a4.695 4.695 0 0 0-4.695-4.696 4.698 4.698 0 0 0 0 9.395 4.7 4.7 0 0 0 4.695-4.7ZM38.906 90.86a4.698 4.698 0 1 0-9.396.005 4.698 4.698 0 0 0 9.396-.006Zm0 0"/><path fill="none" stroke="#000" stroke-miterlimit="10" stroke-width=".399" d="M38.906 119.207a4.698 4.698 0 0 0-9.394 0 4.698 4.698 0 0 0 9.395 0Zm0 0"/><path fill="#7F7F7F" stroke="#000" stroke-miterlimit="10" stroke-width=".399" d="M67.25 119.207a4.695 4.695 0 0 0-4.695-4.695 4.695 4.695 0 0 0-4.696 4.695 4.695 4.695 0 0 0 4.696 4.695 4.695 4.695 0 0 0 4.695-4.695Zm0 0"/><g clip-path="url(#b)"><path fill="none" stroke="#000" stroke-miterlimit="10" stroke-width=".399" d="M67.25 147.555a4.695 4.695 0 0 0-4.695-4.696 4.695 4.695 0 0 0-4.696 4.696 4.695 4.695 0 0 0 4.696 4.695 4.695 4.695 0 0 0 4.695-4.695Zm0 0"/></g><g clip-path="url(#c)"><path fill="none" stroke="#000" stroke-miterlimit="10" stroke-width=".399" d="M95.598 147.555a4.695 4.695 0 0 0-4.696-4.696 4.695 4.695 0 0 0-4.695 4.696 4.695 4.695 0 0 0 4.695 4.695 4.695 4.695 0 0 0 4.696-4.695Zm0 0"/></g><g clip-path="url(#d)"><path fill="none" stroke="#000" stroke-miterlimit="10" stroke-width=".399" d="M123.945 147.555a4.695 4.695 0 0 0-4.695-4.696 4.695 4.695 0 0 0-4.695 4.696 4.695 4.695 0 0 0 4.695 4.695 4.695 4.695 0 0 0 4.695-4.695Zm0 0"/></g><path fill="#7F7F7F" d="M152.293 147.555a4.698 4.698 0 0 0-9.395 0 4.698 4.698 0 0 0 9.395 0m0 0"/><g clip-path="url(#e)"><path fill="none" stroke="#000" stroke-miterlimit="10" stroke-width=".399" d="M152.293 147.555a4.698 4.698 0 0 0-9.395 0 4.698 4.698 0 0 0 9.395 0Zm0 0"/></g><path fill="none" stroke="#000" stroke-miterlimit="10" stroke-width=".399" d="M10.758 5.82h17.16"/><path fill="none" stroke="#000" stroke-linecap="round" stroke-linejoin="round" stroke-miterlimit="10" stroke-width=".399" d="M26.047 3.43c.379 1.433 1.223 2.113 2.07 2.39-.847.278-1.691.957-2.07 2.39"/><path fill="#F5F5CC" d="M16.254 9.086h7.562V2.523h-7.562Zm0 0"/><use xlink:href="#f" x="17.251" y="8.031"/><path fill="none" stroke="red" stroke-miterlimit="10" stroke-width=".399" d="m8.05 10.2 23.345 46.687"/><path fill="none" stroke="red" stroke-linecap="round" stroke-linejoin="round" stroke-miterlimit="10" stroke-width=".39896808000000006" d="M32.695 54.145c-1.113.98-1.34 2.035-1.21 2.921-.63-.636-1.614-1.086-3.063-.785"/><path fill="#F5F5CC" d="M17.29 37.375h5.491V28.41H17.29Zm0 0"/><use xlink:href="#g" x="18.287" y="36.378" fill="red"/><path fill="none" stroke="#000" stroke-miterlimit="10" stroke-width=".399" d="m7.41 10.465 24.809 74.43"/><path fill="none" stroke="#000" stroke-linecap="round" stroke-linejoin="round" stroke-miterlimit="10" stroke-width=".39898005000000003" d="M33.895 82.36c-1.239.812-1.618 1.828-1.614 2.722-.531-.719-1.441-1.305-2.922-1.21"/><path fill="#F5F5CC" d="M16.176 53.55h7.719v-8.527h-7.72Zm0 0"/><use xlink:href="#h" x="17.171" y="50.551"/><path fill="none" stroke="#000" stroke-miterlimit="10" stroke-width=".399" d="m7.05 10.57 25.634 102.535"/><path fill="none" stroke="#000" stroke-linecap="round" stroke-linejoin="round" stroke-miterlimit="10" stroke-width=".39899601" d="M34.547 110.707c-1.297.715-1.75 1.7-1.817 2.59-.476-.754-1.335-1.41-2.82-1.43"/><path fill="#F5F5CC" d="M15.855 65.723h8.36v-6.477h-8.36Zm0 0"/><use xlink:href="#i" x="16.853" y="64.724"/><path fill="none" stroke="#000" stroke-miterlimit="10" stroke-width=".399" d="M39.105 5.82h17.16"/><path fill="none" stroke="#000" stroke-linecap="round" stroke-linejoin="round" stroke-miterlimit="10" stroke-width=".399" d="M54.39 3.43c.38 1.433 1.223 2.113 2.075 2.39-.852.278-1.695.957-2.074 2.39"/><path fill="#F5F5CC" d="M44.203 9.027h8.36V2.551h-8.36Zm0 0"/><use xlink:href="#i" x="45.199" y="8.031"/><path fill="none" stroke="#000" stroke-miterlimit="10" stroke-width=".399" d="M67.453 5.82h17.16"/><path fill="none" stroke="#000" stroke-linecap="round" stroke-linejoin="round" stroke-miterlimit="10" stroke-width=".399" d="M82.738 3.43c.38 1.433 1.223 2.113 2.075 2.39-.852.278-1.696.957-2.075 2.39"/><path fill="#F5F5CC" d="M72.867 11.031h7.723V2.504h-7.723Zm0 0"/><use xlink:href="#h" x="73.864" y="8.031"/><path fill="none" stroke="#000" stroke-miterlimit="10" stroke-width=".399" d="M66.016 9.281 86.453 29.72"/><path fill="none" stroke="#000" stroke-linecap="round" stroke-linejoin="round" stroke-miterlimit="10" stroke-width=".39899601" d="M86.82 26.703c-.746 1.281-.629 2.36-.226 3.156-.797-.402-1.871-.52-3.156.227"/><path fill="#F5F5CC" d="M73.984 23.203h5.489v-8.969h-5.489Zm0 0"/><use xlink:href="#g" x="74.98" y="22.204"/><path fill="none" stroke="#000" stroke-miterlimit="10" stroke-width=".399" d="M95.797 34.168h17.16"/><path fill="none" stroke="#000" stroke-linecap="round" stroke-linejoin="round" stroke-miterlimit="10" stroke-width=".399" d="M111.086 31.777c.379 1.434 1.223 2.11 2.07 2.391-.847.277-1.691.957-2.07 2.39"/><path fill="#F5F5CC" d="M101.297 37.434h7.558v-6.567h-7.558Zm0 0"/><use xlink:href="#f" x="102.29" y="36.378"/><path fill="none" stroke="#000" stroke-miterlimit="10" stroke-width=".399" d="M124.145 34.168h17.16"/><path fill="none" stroke="#000" stroke-linecap="round" stroke-linejoin="round" stroke-miterlimit="10" stroke-width=".399" d="M139.434 31.777c.379 1.434 1.222 2.11 2.07 2.391-.848.277-1.691.957-2.07 2.39"/><path fill="#F5F5CC" d="M129.242 37.375h8.36v-6.477h-8.36Zm0 0"/><use xlink:href="#i" x="130.238" y="36.378"/><path fill="none" stroke="#000" stroke-miterlimit="10" stroke-width=".399" d="M152.492 34.168h17.16"/><path fill="none" stroke="#000" stroke-linecap="round" stroke-linejoin="round" stroke-miterlimit="10" stroke-width=".399" d="M167.781 31.777c.375 1.434 1.219 2.11 2.07 2.391-.851.277-1.695.957-2.07 2.39"/><path fill="#F5F5CC" d="M157.91 39.379h7.719v-8.531h-7.719Zm0 0"/><use xlink:href="#h" x="158.904" y="36.378"/><path fill="none" stroke="red" stroke-miterlimit="10" stroke-width=".399" d="M39.105 62.512h17.16"/><path fill="none" stroke="red" stroke-linecap="round" stroke-linejoin="round" stroke-miterlimit="10" stroke-width=".399" d="M54.39 60.121c.38 1.438 1.223 2.113 2.075 2.39-.852.282-1.695.958-2.074 2.395"/><path fill="#F5F5CC" d="M44.602 65.781h7.562v-6.566h-7.562Zm0 0"/><use xlink:href="#f" x="45.598" y="64.724" fill="red"/><path fill="none" stroke="red" stroke-miterlimit="10" stroke-width=".399" d="M67.453 62.512h17.16"/><path fill="none" stroke="red" stroke-linecap="round" stroke-linejoin="round" stroke-miterlimit="10" stroke-width=".399" d="M82.738 60.121c.38 1.438 1.223 2.113 2.075 2.39-.852.282-1.696.958-2.075 2.395"/><path fill="#F5F5CC" d="M72.55 65.723h8.36v-6.477h-8.36Zm0 0"/><use xlink:href="#i" x="73.546" y="64.724" fill="red"/><path fill="none" stroke="#000" stroke-miterlimit="10" stroke-width=".399" d="M95.797 62.512h17.16"/><path fill="none" stroke="#000" stroke-linecap="round" stroke-linejoin="round" stroke-miterlimit="10" stroke-width=".399" d="M111.086 60.121c.379 1.438 1.223 2.113 2.07 2.39-.847.282-1.691.958-2.07 2.395"/><path fill="#F5F5CC" d="M101.215 67.723h7.722v-8.528h-7.722Zm0 0"/><use xlink:href="#h" x="102.211" y="64.724"/><path fill="none" stroke="#000" stroke-miterlimit="10" stroke-width=".399" d="M39.105 119.207h17.16"/><path fill="none" stroke="#000" stroke-linecap="round" stroke-linejoin="round" stroke-miterlimit="10" stroke-width=".399" d="M54.39 116.816c.38 1.434 1.223 2.114 2.075 2.391-.852.277-1.695.957-2.074 2.39"/><path fill="#F5F5CC" d="M44.523 124.418h7.72v-8.527h-7.72Zm0 0"/><use xlink:href="#h" x="45.518" y="121.417"/><path fill="none" stroke="#000" stroke-miterlimit="10" stroke-width=".399" d="m37.672 122.668 20.437 20.437"/><path fill="none" stroke="#000" stroke-linecap="round" stroke-linejoin="round" stroke-miterlimit="10" stroke-width=".39899601" d="M58.473 140.09c-.746 1.285-.63 2.36-.223 3.156-.8-.402-1.875-.52-3.156.227"/><path fill="#F5F5CC" d="M45.637 136.59h5.488v-8.969h-5.488Zm0 0"/><use xlink:href="#g" x="46.634" y="135.59"/><path fill="none" stroke="#000" stroke-miterlimit="10" stroke-width=".399" d="M67.453 147.555h17.16"/><path fill="none" stroke="#000" stroke-linecap="round" stroke-linejoin="round" stroke-miterlimit="10" stroke-width=".399" d="M82.738 145.164c.38 1.434 1.223 2.11 2.075 2.39-.852.278-1.696.958-2.075 2.391"/><path fill="#F5F5CC" d="M72.95 150.82h7.562v-6.562h-7.563Zm0 0"/><use xlink:href="#f" x="73.944" y="149.763"/><path fill="none" stroke="#000" stroke-miterlimit="10" stroke-width=".399" d="M95.797 147.555h17.16"/><path fill="none" stroke="#000" stroke-linecap="round" stroke-linejoin="round" stroke-miterlimit="10" stroke-width=".399" d="M111.086 145.164c.379 1.434 1.223 2.11 2.07 2.39-.847.278-1.691.958-2.07 2.391"/><path fill="#F5F5CC" d="M100.895 150.762h8.359v-6.477h-8.36Zm0 0"/><use xlink:href="#i" x="101.892" y="149.763"/><path fill="none" stroke="#000" stroke-miterlimit="10" stroke-width=".399" d="M124.145 147.555h17.16"/><path fill="none" stroke="#000" stroke-linecap="round" stroke-linejoin="round" stroke-miterlimit="10" stroke-width=".399" d="M139.434 145.164c.379 1.434 1.222 2.11 2.07 2.39-.848.278-1.691.958-2.07 2.391"/><path fill="#F5F5CC" d="M129.563 152.766h7.722v-8.528h-7.722Zm0 0"/><use xlink:href="#h" x="130.557" y="149.763"/></svg>