<svg xmlns="http://www.w3.org/2000/svg" width="91.198" height="91.19"><defs><clipPath id="a"><path d="M0 80h11v10.785H0Zm0 0"/></clipPath><clipPath id="b"><path d="M81 0h9.797v10H81Zm0 0"/></clipPath></defs><path fill="none" stroke="#FF7F7F" stroke-miterlimit="10" stroke-width=".199" d="M4.613 80.102v-42.52M6.031 80.102v-42.52M7.45 80.102v-42.52M8.867 80.102v-42.52M10.285 80.102v-42.52M11.7 80.102v-42.52M13.117 80.102v-42.52M14.535 80.102v-42.52M15.953 80.102v-42.52M18.79 80.102v-42.52M20.203 80.102v-42.52M21.621 80.102v-42.52M23.04 80.102v-42.52M24.457 80.102v-42.52M25.875 80.102v-42.52M27.293 80.102v-42.52M28.71 80.102v-42.52M30.125 80.102v-42.52M32.96 80.102v-42.52M34.379 80.102v-42.52M35.797 80.102v-42.52M37.215 80.102v-42.52M38.629 80.102v-42.52M40.047 80.102v-42.52M41.465 80.102v-42.52M42.883 80.102v-42.52M44.3 80.102v-42.52M47.133 80.102v-42.52M48.55 80.102v-42.52M49.969 80.102v-42.52M51.387 80.102v-42.52M52.805 80.102v-42.52M54.223 80.102v-42.52M55.637 80.102v-42.52M57.055 80.102v-42.52M58.473 80.102v-42.52M61.309 80.102v-42.52M62.727 80.102v-42.52M64.14 80.102v-42.52M65.559 80.102v-42.52M66.977 80.102v-42.52M68.395 80.102v-42.52M69.813 80.102v-42.52M71.23 80.102v-42.52M72.645 80.102v-42.52M75.48 80.102v-42.52M76.898 80.102v-42.52M78.316 80.102v-42.52M79.734 80.102v-42.52M81.148 80.102v-42.52M82.566 80.102v-42.52M83.984 80.102v-42.52M85.402 80.102v-42.52M86.82 80.102v-42.52"/><path fill="none" stroke="#BFBFBF" stroke-miterlimit="10" stroke-width=".399" d="M3.195 87.188V2.147M17.371 87.188V2.147M31.543 87.188V2.147M45.719 87.188V2.147M59.89 87.188V2.147M74.063 87.188V2.147M88.238 87.188V2.147"/><path fill="none" stroke="#000" stroke-miterlimit="10" stroke-width=".399" d="M3.195 87.188H87.84"/><path fill="none" stroke="#000" stroke-linecap="round" stroke-linejoin="round" stroke-miterlimit="10" stroke-width=".399" d="M85.965 84.797c.379 1.433 1.222 2.11 2.074 2.39-.852.278-1.695.958-2.074 2.391"/><path fill="none" stroke="#000" stroke-miterlimit="10" stroke-width=".399" d="M3.195 87.188V2.546"/><path fill="none" stroke="#000" stroke-linecap="round" stroke-linejoin="round" stroke-miterlimit="10" stroke-width=".399" d="M.805 4.418c1.437-.379 2.113-1.223 2.39-2.07.282.847.957 1.691 2.395 2.07"/><g clip-path="url(#a)"><path fill="none" stroke="#000" stroke-miterlimit="10" stroke-width=".399" d="m1.79 88.598 2.815-2.82m-2.816 0 2.816 2.82"/></g><g clip-path="url(#b)"><path fill="none" stroke="#000" stroke-miterlimit="10" stroke-width=".399" d="M86.828 3.555 89.645.738m-2.817 0 2.817 2.817"/></g></svg>