<svg xmlns="http://www.w3.org/2000/svg" xmlns:xlink="http://www.w3.org/1999/xlink" width="115.594" height="157.514"><defs><path id="a" d="M5.516-.234c0-.235-.125-.235-.266-.235-.61-.015-.61-.14-.61-.375v-2.14c0-.891-.702-1.532-2.187-1.532-.562 0-1.781.047-1.781.922 0 .438.344.625.61.625.312 0 .624-.219.624-.625 0-.297-.187-.469-.218-.5a5 5 0 0 1 .718-.062c.75 0 1.11.422 1.11 1.172v.343c-.72.032-3.25.125-3.25 1.563C.266-.125 1.5.062 2.188.062c.796 0 1.265-.406 1.484-.828 0 .313 0 .766 1.047.766h.468c.204 0 .329 0 .329-.234m-2-1.157c0 .97-.922 1.094-1.172 1.094-.516 0-.906-.344-.906-.797 0-1.062 1.578-1.203 2.078-1.234Zm0 0"/><path id="b" d="M4.922 0v-.469h-1.39v-5.734c0-.234 0-.328-.266-.328-.11 0-.125 0-.22.078-.765.562-1.796.562-2 .562H.845v.47h.203c.156 0 .703-.016 1.297-.204v5.156H.954V0c.437-.031 1.5-.031 1.984-.031s1.546 0 1.984.031m0 0"/><path id="c" d="M5.156-2.219h-.468c-.032.203-.125.844-.266.906-.11.063-.86.063-1.016.063H1.937c.47-.39 1-.812 1.438-1.14 1.14-.844 1.781-1.313 1.781-2.25 0-1.157-1.047-1.891-2.437-1.891-1.219 0-2.156.625-2.156 1.515 0 .594.484.735.718.735C1.61-4.281 2-4.5 2-5c0-.516-.422-.672-.562-.719.28-.234.671-.343 1.03-.343.845 0 1.313.671 1.313 1.421 0 .688-.375 1.375-1.078 2.079l-2 2.046c-.14.11-.14.141-.14.344V0h4.28Zm0 0"/><path id="d" d="M5.25-1.797c0-.547-.297-1.406-1.734-1.719.687-.203 1.406-.765 1.406-1.625 0-.765-.75-1.39-2.156-1.39-1.188 0-1.97.64-1.97 1.437 0 .422.313.703.688.703a.67.67 0 0 0 .704-.687c0-.578-.547-.688-.579-.703.344-.282.782-.36 1.094-.36.828 0 .86.641.86.97 0 .124-.016 1.437-1.047 1.5-.407.015-.438.015-.485.03-.094.016-.125.11-.125.172 0 .172.11.172.282.172h.437c1.094 0 1.094.985 1.094 1.5 0 .469 0 1.485-1.031 1.485-.266 0-.782-.047-1.266-.344C1.75-.75 2-1 2-1.406c0-.453-.312-.75-.75-.75-.422 0-.766.265-.766.765 0 .907.97 1.5 2.25 1.5 1.782 0 2.516-1 2.516-1.906m0 0"/><path id="e" d="M5.406 0v-.469h-.968v-1.094h.968v-.468h-.968V-6.22c0-.265-.016-.328-.297-.328-.22 0-.22.016-.344.172L.313-2.031v.469h2.875V-.47h-1.11V0c.375-.031 1.281-.031 1.703-.031.406 0 1.266 0 1.625.031m-2.11-2.031H.845L3.297-5.11Zm0 0"/><path id="f" d="M5.156-2c0-1.156-.797-2.078-2.265-2.078-.282 0-.813.031-1.282.344v-1.313c.282.047.391.078.72.078 1.452 0 2.374-1.125 2.374-1.375 0-.078-.016-.187-.14-.187-.032 0-.032 0-.141.047a4.3 4.3 0 0 1-1.531.28c-.75 0-1.282-.202-1.547-.28-.094-.032-.094-.047-.125-.047-.14 0-.14.11-.14.265v2.922c0 .172 0 .297.218.297.125 0 .156-.031.219-.11.39-.468.922-.562 1.328-.562.89 0 .89.875.89 1.672 0 .735 0 1.735-1.187 1.735-.25 0-.875-.063-1.297-.625.36-.016.656-.266.656-.672 0-.532-.437-.672-.672-.672-.14 0-.671.094-.671.703 0 .844.78 1.687 2.015 1.687C4.172.11 5.156-.78 5.156-2m0 0"/><path id="g" d="M5.25-2.047c0-1.39-1.016-2.125-2.219-2.125-.219 0-.781 0-1.203.766v-.188c0-1.14.219-1.562.281-1.719.25-.468.782-.828 1.391-.828.172 0 .516.032.75.266a.595.595 0 0 0-.547.61c0 .343.235.624.625.624s.625-.265.625-.64c0-.625-.422-1.25-1.469-1.25-1.359 0-3 .86-3 3.375 0 .781.079 1.578.5 2.265.47.766 1.22 1 1.922 1C4.281.11 5.25-.703 5.25-2.047m-1.36-.015c0 1 0 1.75-1.015 1.75-.516 0-.781-.391-.86-.563-.156-.312-.156-1.031-.156-1.219 0-1.25.532-1.719 1.079-1.719.953 0 .953.75.953 1.75m0 0"/><path id="h" d="M5.563-6.422H3.53c-.234 0-1.703-.047-1.844-.094-.203-.03-.218-.125-.234-.218H.984l-.343 2.53h.468c.094-.765.22-.89.266-.905.11-.063.922-.063 1.094-.063H4.14c-.172.219-.36.422-.547.64-.953 1.126-1.672 2.47-1.672 3.938 0 .703.562.703.625.703.156 0 .625-.046.625-.703v-.468c0-.47.031-.954.094-1.422.093-.672.297-1.25.656-1.657l1.547-1.796c.093-.11.093-.141.093-.485m0 0"/><path id="i" d="M5.25-1.86c0-1.077-.844-1.546-1.328-1.827.687-.36 1-.797 1-1.376 0-1.015-.906-1.468-2.047-1.468-1.375 0-2.078.797-2.078 1.75 0 .437.187 1.062.953 1.5C.922-2.906.484-2.344.484-1.61.484-.406 1.563.109 2.844.109 4.438.11 5.25-.766 5.25-1.859M4.172-5.046c0 .484-.25.813-.688 1.11l-1.5-.844c-.156-.078-.437-.25-.437-.594 0-.703.89-.766 1.297-.766.828 0 1.328.407 1.328 1.094m.219 3.734c0 .829-.938 1-1.516 1-.969 0-1.547-.515-1.547-1.296 0-.766.531-1.203.89-1.407l1.36.766c.438.25.813.453.813.938m0 0"/><path id="j" d="M5.984-2.219c0-1.328-.937-2.265-2.39-2.265-.719 0-1.219.28-1.453.484v-2.922l-1.766.078v.469c.61 0 .688 0 .688.39V0h.468c.157-.187.328-.375.485-.562.078.078.562.625 1.453.625 1.484 0 2.515-.907 2.515-2.282m-1.28 0c0 .469 0 1.016-.25 1.406-.298.407-.75.516-1.079.516-.687 0-1.078-.547-1.187-.687v-2.5c.28-.36.75-.641 1.296-.641 1.22 0 1.22 1.203 1.22 1.906m0 0"/></defs><path fill="none" stroke="#7F7F7F" stroke-miterlimit="10" stroke-width=".199" d="M.906 120.984h113.387M.906 92.637h113.387M.906 64.289h113.387M.906 35.941h113.387M.906 7.605h113.387M.906 120.985V7.597m28.348 113.386V7.598m28.348 113.386V7.598m28.343 113.386V7.598m28.34 113.386V7.598"/><path fill="none" stroke="#000" stroke-miterlimit="10" stroke-width=".399" d="M51.496 41.55h12.207V30.337H51.496Zm0 0"/><use xlink:href="#a" x="54.814" y="38.17"/><path fill="none" stroke="#000" stroke-miterlimit="10" stroke-width=".399" d="M23.066 42.527h12.372V29.36H23.066Zm0 0"/><use xlink:href="#b" x="26.388" y="39.207"/><path fill="none" stroke="#000" stroke-miterlimit="10" stroke-width=".399" d="M79.762 42.527h12.37V29.36h-12.37Zm0 0"/><use xlink:href="#c" x="83.081" y="39.207"/><path fill="none" stroke="#000" stroke-miterlimit="10" stroke-width=".399" d="M51.414 14.234h12.371V.957h-12.37Zm0 0"/><use xlink:href="#d" x="54.734" y="10.805"/><path fill="none" stroke="#000" stroke-miterlimit="10" stroke-width=".399" d="M51.414 70.879h12.371v-13.18h-12.37Zm0 0"/><use xlink:href="#e" x="54.734" y="67.558"/><path fill="none" stroke="#000" stroke-miterlimit="10" stroke-width=".399" d="M31.371 22.535h12.367V9.262H31.371Zm0 0"/><use xlink:href="#f" x="34.69" y="19.108"/><path fill="none" stroke="#000" stroke-miterlimit="10" stroke-width=".399" d="M71.457 22.535h12.371V9.262H71.457Zm0 0"/><use xlink:href="#g" x="74.778" y="19.108"/><path fill="none" stroke="#000" stroke-miterlimit="10" stroke-width=".399" d="M31.371 62.73h12.367V49.242H31.371Zm0 0"/><use xlink:href="#h" x="34.69" y="59.3"/><path fill="none" stroke="#000" stroke-miterlimit="10" stroke-width=".399" d="M71.457 62.625h12.371V49.348H71.457Zm0 0"/><use xlink:href="#i" x="74.778" y="59.196"/><path fill="none" stroke="#000" stroke-miterlimit="10" stroke-width=".399" d="M51.098 127.79h13.004v-13.614H51.098Zm0 0"/><use xlink:href="#j" x="54.415" y="124.41"/><path fill="none" stroke="#000" stroke-miterlimit="10" stroke-width=".399" d="M23.066 127.566h12.372v-13.168H23.066Zm0 0"/><use xlink:href="#b" x="26.388" y="124.246"/><path fill="none" stroke="#000" stroke-miterlimit="10" stroke-width=".399" d="M79.762 127.566h12.37v-13.168h-12.37Zm0 0"/><use xlink:href="#c" x="83.081" y="124.246"/><path fill="none" stroke="#000" stroke-miterlimit="10" stroke-width=".399" d="M51.414 99.273h12.371V85.996h-12.37Zm0 0"/><use xlink:href="#d" x="54.734" y="95.845"/><path fill="none" stroke="#000" stroke-miterlimit="10" stroke-width=".399" d="M51.414 155.918h12.371v-13.176h-12.37Zm0 0"/><use xlink:href="#e" x="54.734" y="152.597"/><path fill="none" stroke="#000" stroke-miterlimit="10" stroke-width=".399" d="M23.066 99.273h12.372V85.996H23.066Zm0 0"/><use xlink:href="#f" x="26.388" y="95.845"/><path fill="none" stroke="#000" stroke-miterlimit="10" stroke-width=".399" d="M79.762 99.273h12.37V85.996h-12.37Zm0 0"/><use xlink:href="#g" x="83.081" y="95.845"/><path fill="none" stroke="#000" stroke-miterlimit="10" stroke-width=".399" d="M23.066 156.074h12.372v-13.488H23.066Zm0 0"/><use xlink:href="#h" x="26.388" y="152.642"/><path fill="none" stroke="#000" stroke-miterlimit="10" stroke-width=".399" d="M79.762 155.969h12.37V142.69h-12.37Zm0 0"/><use xlink:href="#i" x="83.081" y="152.538"/></svg>