<svg xmlns="http://www.w3.org/2000/svg" xmlns:xlink="http://www.w3.org/1999/xlink" width="304.07" height="27.974"><defs><path id="a" d="M3.813-1.234v-.532h-.47v.516c0 .672-.327.906-.609.906-.578 0-.578-.64-.578-.86v-2.75h1.469v-.468H2.156v-1.906h-.469c0 1-.484 1.984-1.484 2.016v.359h.828v2.734c0 1.063.86 1.282 1.578 1.282.75 0 1.204-.579 1.204-1.297m0 0"/><path id="c" d="M4.922-1.172c0-.172-.188-.172-.234-.172-.172 0-.188.047-.25.203-.204.485-.782.797-1.422.797-1.407 0-1.422-1.328-1.422-1.828h3.015c.22 0 .313 0 .313-.265 0-.313-.063-1.047-.563-1.547-.359-.36-.89-.532-1.578-.532C1.187-4.516.313-3.484.313-2.25c0 1.344 1 2.313 2.609 2.313 1.578 0 2-1.063 2-1.235M3.984-2.5h-2.39c.015-.39.031-.812.234-1.14.266-.391.672-.516.953-.516 1.172 0 1.188 1.312 1.203 1.656m0 0"/><path id="e" d="M5.828 0v-.469h-.703L3.453-2.453 4.61-3.75c.141-.14.204-.203 1.016-.203v-.469l-.906.031-1.032-.03v.468c.141 0 .266.015.376.078-.032.063-.032.094-.079.125l-.828.938-.984-1.141h.406v-.469L1.36-4.39.266-4.42v.468h.718l1.547 1.828L1.22-.656c-.157.187-.516.187-1 .187V0l.922-.031L2.156 0v-.469c-.172 0-.36-.047-.36-.11 0 0 0-.015.063-.093l.97-1.094L3.921-.469h-.39V0l1.202-.031Zm0 0"/><path id="j" d="M4.36-6.11c0-.421-.36-.874-1.141-.874-.969 0-2.047.422-2.047 1.547v1.015h-.75v.469h.75V-.47H.484V0l1.25-.031c.375 0 1.016 0 1.375.031v-.469H2.25v-3.484h1.14v-.469H2.188v-1.016c0-1.093.75-1.187 1-1.187.047 0 .11 0 .172.031a.59.59 0 0 0-.234.485c0 .422.36.609.61.609.296 0 .624-.203.624-.61m0 0"/><path id="n" d="M4.766-1.172c0-.14-.141-.14-.235-.14-.187 0-.187.03-.25.156-.25.625-.734.812-1.234.812-1.39 0-1.39-1.453-1.39-1.922 0-.562 0-1.843 1.28-1.843.36 0 .516.015.657.046a.62.62 0 0 0-.203.47c0 .437.343.624.609.624.313 0 .64-.219.64-.625 0-.86-1.156-.922-1.734-.922C1.11-4.516.375-3.375.375-2.219.375-.89 1.313.063 2.844.063c1.625 0 1.922-1.157 1.922-1.235m0 0"/><path id="p" d="M4.14-1.39c0-.438-.202-.782-.546-1.063-.39-.281-.719-.344-1.485-.485-.375-.062-1.015-.171-1.015-.64 0-.625.922-.625 1.11-.625.75 0 1.124.297 1.171.844.016.156.031.203.234.203.235 0 .235-.047.235-.281v-.797c0-.188 0-.282-.172-.282-.047 0-.063 0-.453.188-.266-.125-.61-.188-1-.188-.313 0-1.844 0-1.844 1.313 0 .39.203.656.406.828.39.344.782.406 1.547.547.36.062 1.094.187 1.094.781 0 .75-.906.75-1.125.75C1.234-.297.984-1.03.859-1.453c-.046-.14-.109-.14-.234-.14-.25 0-.25.062-.25.28v1.094c0 .188 0 .282.188.282.062 0 .078 0 .296-.157l.25-.172c.47.329.985.329 1.188.329.312 0 1.844 0 1.844-1.454m0 0"/><path id="q" d="M5.516-.234c0-.235-.125-.235-.266-.235-.61-.015-.61-.14-.61-.375v-2.14c0-.891-.702-1.532-2.187-1.532-.562 0-1.781.047-1.781.922 0 .438.344.625.61.625.312 0 .624-.219.624-.625 0-.297-.187-.469-.218-.5a5 5 0 0 1 .718-.062c.75 0 1.11.422 1.11 1.172v.343c-.72.032-3.25.125-3.25 1.563C.266-.125 1.5.062 2.188.062c.796 0 1.265-.406 1.484-.828 0 .313 0 .766 1.047.766h.468c.204 0 .329 0 .329-.234m-2-1.157c0 .97-.922 1.094-1.172 1.094-.516 0-.906-.344-.906-.797 0-1.062 1.578-1.203 2.078-1.234Zm0 0"/><path id="r" d="M2.922 0v-.469h-.688v-6.453L.47-6.844v.469c.625 0 .687 0 .687.39v5.516H.47V0l1.219-.031Zm0 0"/><path id="s" d="M5.406-2.172c0-1.344-.922-2.344-2.547-2.344C1.22-4.516.313-3.5.313-2.172c0 1.235.89 2.235 2.546 2.235 1.672 0 2.547-1.016 2.547-2.235m-1.281-.11c0 .86 0 1.938-1.266 1.938-1.265 0-1.265-1.078-1.265-1.937 0-.453 0-.953.172-1.297.187-.375.609-.578 1.093-.578.422 0 .844.156 1.063.5.203.344.203.89.203 1.375m0 0"/><path id="t" d="M6.125 0v-.469h-.687v-2.578c0-1.047-.532-1.437-1.532-1.437-.953 0-1.484.562-1.75 1.078v-1.078l-1.703.078v.468c.61 0 .688 0 .688.391v3.078H.453V0l1.25-.031L2.953 0v-.469h-.687v-2.078c0-1.094.859-1.578 1.5-1.578.328 0 .547.203.547.969V-.47h-.688V0l1.25-.031Zm0 0"/><path id="u" d="M5.563-3.953c0-.235-.172-.578-.625-.578-.157 0-.625.031-1.063.375-.172-.125-.594-.328-1.328-.328-1.438 0-1.985.78-1.985 1.468 0 .407.188.829.516 1.047-.281.36-.344.688-.344.89 0 .157.047.642.438.954-.125.031-.86.25-.86.875C.313 1.25.876 2 2.86 2 4.625 2 5.406 1.422 5.406.719c0-.297-.078-.922-.75-1.266-.562-.281-1.156-.281-2.11-.281-.265 0-.718 0-.765-.016a.625.625 0 0 1-.562-.625c0-.093.047-.25.11-.328.452.234.968.266 1.218.266 1.437 0 1.984-.782 1.984-1.485 0-.468-.25-.796-.406-.953.297-.156.516-.172.625-.187a.43.43 0 0 0-.047.203c0 .25.172.422.438.422a.41.41 0 0 0 .422-.422m-2.141.937c0 .454 0 1.125-.875 1.125s-.875-.671-.875-1.125c0-.437 0-1.109.875-1.109s.875.672.875 1.11M4.547.75c0 .36-.39.89-1.688.89-1.187 0-1.687-.452-1.687-.906 0-.609.625-.609.766-.609h1.171c.313 0 1.438 0 1.438.625m0 0"/><path id="v" d="M5.984-2.219c0-1.328-.906-2.265-2.343-2.265-.75 0-1.282.312-1.5.484v-.484l-1.766.078v.468c.61 0 .688 0 .688.376v5.03H.375v.47l1.25-.032 1.25.032v-.47h-.687V-.39a2 2 0 0 0 1.28.454c1.5 0 2.516-.907 2.516-2.282m-1.28 0C4.703-.813 4-.297 3.358-.297c-.14 0-.609 0-1.062-.547-.11-.125-.11-.14-.11-.328v-2.11c0-.187.016-.202.157-.343.39-.406.922-.469 1.14-.469.657 0 1.22.61 1.22 1.875m0 0"/><path id="w" d="M6.125 0v-.469h-.687v-2.578c0-1.047-.532-1.437-1.532-1.437a1.9 1.9 0 0 0-1.687.953v-3.39l-1.766.077v.469c.61 0 .688 0 .688.39v5.516H.453V0l1.25-.031L2.953 0v-.469h-.687v-2.078c0-1.094.859-1.578 1.5-1.578.328 0 .547.203.547.969V-.47h-.688V0l1.25-.031Zm0 0"/><path id="x" d="M2.531-6.312c0-.391-.36-.72-.781-.72-.437 0-.797.329-.797.72 0 .046 0 .078.031.171L1.5-2.516c.031.25.031.266.25.266.188 0 .219-.016.25-.219l.516-3.718Zm-.015 5.53a.78.78 0 0 0-.766-.78.784.784 0 0 0-.781.78.774.774 0 1 0 1.547 0m0 0"/><path id="b" d="M4.203 0v-.422H3.016v-4.547c0-.281-.047-.281-.36-.281-.484.39-1.125.516-1.75.516H.734v.422h.172c.203 0 .64-.032 1.11-.172v4.062H.813V0c.28-.031 1.343-.031 1.703-.031.359 0 1.39 0 1.687.031m0 0"/><path id="d" d="M4.39-1.812h-.452c-.063.515-.157.687-.204.703-.093.046-.703.046-.843.046H1.797c1.062-.828 1.5-1.078 1.844-1.343.547-.438.75-.828.75-1.281 0-.938-.875-1.563-2.078-1.563-1.016 0-1.829.453-1.829 1.203 0 .484.391.625.61.625.281 0 .61-.203.61-.61a.57.57 0 0 0-.376-.562c.219-.172.547-.234.797-.234.719 0 1.11.531 1.11 1.14 0 .657-.422 1.188-.891 1.626L.578-.423C.5-.328.484-.328.484-.172V0h3.641Zm0 0"/><path id="f" d="M4.469-1.422c0-.656-.5-1.203-1.36-1.39.22-.094 1.094-.438 1.094-1.297 0-.641-.656-1.141-1.844-1.141-1.03 0-1.687.563-1.687 1.203 0 .453.36.61.594.61.312 0 .593-.22.593-.594 0-.172-.062-.469-.453-.563.36-.312.828-.312.907-.312.734 0 .734.531.734.765 0 .579-.266.875-.297.907-.219.25-.375.25-.797.28-.25.017-.328.017-.328.188 0 .157.11.157.25.157h.39c.922 0 .938.78.938 1.172 0 .359 0 1.171-.906 1.171-.172 0-.625-.015-1.016-.28a.65.65 0 0 0 .422-.61c0-.375-.281-.64-.656-.64-.344 0-.64.234-.64.655 0 .766.827 1.25 1.921 1.25 1.563 0 2.14-.843 2.14-1.53m0 0"/><path id="g" d="M4.61 0v-.422H3.78v-.812h.828v-.407h-.828v-3.343c0-.25-.047-.266-.281-.266-.172 0-.219 0-.328.125L.266-1.641v.407h2.453v.812h-.953V0c.297-.031 1.109-.031 1.453-.031.375 0 1.031 0 1.39.031M2.827-1.64H.766l2.062-2.47Zm0 0"/><path id="h" d="M4.39-1.61c0-.89-.64-1.671-1.921-1.671-.375 0-.75.062-1.063.265V-4c.25.047.516.047.563.047.218 0 .75 0 1.36-.375.202-.14.687-.547.687-.75 0-.125-.079-.172-.157-.172 0 0-.03 0-.109.047a3.96 3.96 0 0 1-2.64-.016c-.063-.031-.079-.031-.094-.031-.141 0-.141.14-.141.25v2.344c0 .156 0 .281.219.281.125 0 .14-.031.218-.125.329-.375.813-.453 1.126-.453.765 0 .765.734.765 1.328 0 .563 0 1.36-1.031 1.36-.422 0-.813-.172-1.031-.438a.57.57 0 0 0 .5-.578c0-.36-.297-.563-.578-.563-.25 0-.579.157-.579.578 0 .72.672 1.375 1.72 1.375C3.624.11 4.39-.656 4.39-1.609m0 0"/><path id="i" d="M4.469-1.64c0-.454-.094-.86-.563-1.266-.437-.375-.875-.453-1.375-.453-.484 0-.812.312-.984.593 0-.453.016-1.046.25-1.453a1.35 1.35 0 0 1 1.172-.687c.234 0 .422.047.578.187a.534.534 0 0 0-.406.532.53.53 0 0 0 .547.53c.312 0 .53-.218.53-.546 0-.484-.327-1.047-1.25-1.047-1.25 0-2.562.766-2.562 2.719C.406-1.5.656.109 2.47.109c1.187 0 2-.671 2-1.75m-1.14 0c0 .75 0 1.374-.86 1.374-.39 0-.656-.218-.766-.468-.14-.282-.14-.922-.14-.953 0-.72.312-1.329.953-1.329.812 0 .812.61.812 1.375m0 0"/><path id="k" d="M4.734-4.984v-.141H2.891c-.25 0-.72-.031-.985-.047h-.265c-.328-.031-.344-.11-.344-.219H.844L.547-3.312h.437c.079-.547.188-.704.235-.72.093-.046.75-.046.89-.046h1.297c-.875 1-.875 1.016-1.125 1.406-.562.938-.64 1.797-.64 2.188 0 .593.484.593.53.593.25 0 .376-.14.407-.187.125-.125.125-.25.125-.61 0-.203 0-.562.047-1.015.11-1.047.516-1.5.531-1.516l1.36-1.5c.093-.093.093-.11.093-.265m0 0"/><path id="l" d="M4.469-1.484c0-.891-.766-1.297-1.078-1.47.328-.171.812-.468.812-1.093 0-1.11-1.266-1.203-1.75-1.203-1.187 0-1.781.64-1.781 1.422 0 .531.344.953.766 1.203-.829.36-1.032.86-1.032 1.344 0 1 .907 1.39 2.016 1.39 1.375 0 2.047-.703 2.047-1.593M3.53-4.047c0 .297-.125.61-.562.875l-1.25-.656c-.157-.078-.375-.219-.375-.469 0-.5.593-.61 1.078-.61.719 0 1.11.329 1.11.86m.188 3c0 .672-.781.781-1.266.781-.765 0-1.297-.343-1.297-1.015 0-.797.735-1.094.735-1.094l.422.203.906.485c.125.062.5.265.5.64m0 0"/><path id="m" d="M4.469-2.61c0-.562-.047-1.265-.407-1.828-.343-.53-.89-.812-1.609-.812C1.25-5.25.406-4.594.406-3.5c0 .328.047.828.547 1.266.344.28.688.453 1.39.453.548 0 .86-.39.985-.594 0 .594-.031 1.078-.203 1.438a1.2 1.2 0 0 1-1.11.671c-.078 0-.406 0-.656-.156.094-.031.375-.172.375-.516 0-.312-.234-.53-.546-.53-.297 0-.532.202-.532.546C.656-.359 1.078.11 2.031.11 3.25.11 4.47-.67 4.47-2.609m-1.157-.874c0 .812-.359 1.359-.953 1.359-.812 0-.812-.625-.812-1.375 0-.719 0-1.406.922-1.406.844 0 .844.968.844 1.422m0 0"/><path id="o" d="M4.5-2.547c0-.922-.078-2.703-2.062-2.703C.452-5.25.374-3.453.374-2.547.375-1.657.438.11 2.438.11 4.453.11 4.5-1.656 4.5-2.547M3.422-2.64c0 1.829-.11 1.938-.36 2.172-.062.078-.296.25-.624.25a.97.97 0 0 1-.61-.218c-.25-.22-.375-.329-.375-2.204 0-.578 0-1.156.078-1.546.11-.563.61-.72.907-.72.187 0 .796.048.921.798.063.39.063 1.015.063 1.468m0 0"/></defs><path fill="#BFBFBF" d="M14.27 17.855a6.865 6.865 0 0 0-6.864-6.863 6.862 6.862 0 1 0 0 13.723c3.79 0 6.864-3.07 6.864-6.86m0 0"/><use xlink:href="#a" x="5.179" y="20.988"/><use xlink:href="#b" x="4.963" y="7.274"/><path fill="#BFBFBF" d="M26.64 18.762a6.187 6.187 0 1 0-12.37 0 6.186 6.186 0 1 0 12.37 0m0 0"/><use xlink:href="#c" x="17.83" y="20.988"/><use xlink:href="#d" x="18.012" y="8.856"/><path fill="#BFBFBF" d="M39.23 18.777a6.295 6.295 0 1 0-6.292 6.293 6.29 6.29 0 0 0 6.292-6.293m0 0"/><use xlink:href="#e" x="29.912" y="20.988"/><use xlink:href="#f" x="30.493" y="8.651"/><path fill="#BFBFBF" d="M52.953 17.855a6.862 6.862 0 1 0-13.723-.003 6.862 6.862 0 0 0 13.723.003m0 0"/><use xlink:href="#a" x="43.865" y="20.988"/><use xlink:href="#g" x="43.649" y="7.274"/><path fill="#FFB2B2" d="M60.613 20.988a3.83 3.83 0 1 0-7.658.003 3.83 3.83 0 0 0 7.658-.003m0 0"/><use xlink:href="#h" x="54.34" y="13.329"/><path fill="#BFBFBF" d="M72.984 18.762a6.186 6.186 0 1 0-12.37 0 6.187 6.187 0 1 0 12.37 0m0 0"/><use xlink:href="#c" x="64.173" y="20.988"/><use xlink:href="#i" x="64.356" y="8.744"/><path fill="#BFBFBF" d="M87.04 17.5a7.028 7.028 0 1 0-14.056 0 7.028 7.028 0 0 0 14.055 0m0 0"/><use xlink:href="#j" x="78.264" y="20.988"/><use xlink:href="#k" x="77.569" y="6.644"/><path fill="#BFBFBF" d="M101.094 17.5a7.028 7.028 0 1 0-14.056 0 7.028 7.028 0 0 0 14.056 0m0 0"/><use xlink:href="#j" x="92.317" y="20.988"/><use xlink:href="#l" x="91.623" y="6.644"/><path fill="#BFBFBF" d="M113.469 18.762a6.187 6.187 0 0 0-6.188-6.188 6.187 6.187 0 0 0-6.187 6.188 6.187 6.187 0 0 0 6.187 6.187 6.187 6.187 0 0 0 6.188-6.187m0 0"/><use xlink:href="#c" x="104.654" y="20.988"/><use xlink:href="#m" x="104.837" y="8.744"/><path fill="#BFBFBF" d="M125.734 18.762a6.133 6.133 0 1 0-12.266 0 6.133 6.133 0 0 0 12.266 0m0 0"/><use xlink:href="#n" x="117.055" y="20.988"/><use xlink:href="#b" x="114.715" y="8.797"/><use xlink:href="#o" x="119.601" y="8.797"/><path fill="#BFBFBF" d="M139.46 17.855a6.865 6.865 0 0 0-6.862-6.863 6.862 6.862 0 1 0 0 13.723c3.789 0 6.863-3.07 6.863-6.86m0 0"/><use xlink:href="#a" x="130.37" y="20.988"/><use xlink:href="#b" x="127.71" y="7.274"/><use xlink:href="#b" x="132.596" y="7.274"/><path fill="#BFBFBF" d="M151.523 18.762a6.032 6.032 0 1 0-12.064.002 6.032 6.032 0 0 0 12.064-.002m0 0"/><use xlink:href="#p" x="143.227" y="20.988"/><use xlink:href="#b" x="140.603" y="9.012"/><use xlink:href="#d" x="145.489" y="9.012"/><path fill="#FFB2B2" d="M159.18 20.988a3.83 3.83 0 1 0-7.659.003 3.83 3.83 0 0 0 7.659-.003m0 0"/><use xlink:href="#b" x="150.463" y="13.329"/><use xlink:href="#f" x="155.349" y="13.329"/><path fill="#BFBFBF" d="M171.66 18.762a6.24 6.24 0 0 0-6.238-6.242 6.242 6.242 0 0 0 0 12.484 6.24 6.24 0 0 0 6.238-6.242m0 0"/><use xlink:href="#q" x="162.634" y="20.988"/><use xlink:href="#b" x="160.533" y="8.802"/><use xlink:href="#g" x="165.419" y="8.802"/><path fill="#BFBFBF" d="M185.543 17.531a6.943 6.943 0 0 0-6.941-6.941 6.943 6.943 0 0 0-6.942 6.941 6.943 6.943 0 0 0 6.942 6.942 6.943 6.943 0 0 0 6.941-6.942m0 0"/><use xlink:href="#r" x="177.01" y="20.988"/><use xlink:href="#b" x="173.714" y="6.76"/><use xlink:href="#h" x="178.6" y="6.76"/><path fill="#BFBFBF" d="M198.133 18.762a6.295 6.295 0 1 0-12.59 0 6.295 6.295 0 1 0 12.59 0m0 0"/><use xlink:href="#s" x="188.97" y="20.988"/><use xlink:href="#b" x="186.949" y="8.635"/><use xlink:href="#i" x="191.835" y="8.635"/><path fill="#BFBFBF" d="M210.902 18.746a6.386 6.386 0 1 0-6.382 6.387 6.386 6.386 0 0 0 6.382-6.387m0 0"/><use xlink:href="#t" x="201.332" y="20.988"/><use xlink:href="#b" x="199.629" y="8.531"/><use xlink:href="#k" x="204.515" y="8.531"/><path fill="#BFBFBF" d="M225.258 19.723a7.177 7.177 0 0 0-7.18-7.176 7.176 7.176 0 0 0 0 14.351c3.965 0 7.18-3.21 7.18-7.175m0 0"/><use xlink:href="#u" x="215.213" y="20.988"/><use xlink:href="#b" x="213.191" y="8.715"/><use xlink:href="#l" x="218.077" y="8.715"/><path fill="#FFB2B2" d="M232.914 20.988a3.83 3.83 0 0 0-7.656 0 3.83 3.83 0 0 0 7.656 0m0 0"/><use xlink:href="#b" x="224.197" y="13.329"/><use xlink:href="#m" x="229.083" y="13.329"/><path fill="#BFBFBF" d="M247.383 19.71a7.236 7.236 0 0 0-7.235-7.233 7.237 7.237 0 0 0 0 14.473 7.237 7.237 0 0 0 7.235-7.24m0 0"/><use xlink:href="#v" x="236.964" y="20.988"/><use xlink:href="#d" x="235.261" y="8.647"/><use xlink:href="#o" x="240.147" y="8.647"/><path fill="#BFBFBF" d="M259.867 18.762a6.242 6.242 0 1 0-12.485 0 6.242 6.242 0 0 0 12.485 0m0 0"/><use xlink:href="#q" x="250.838" y="20.988"/><use xlink:href="#d" x="248.737" y="8.802"/><use xlink:href="#b" x="253.623" y="8.802"/><path fill="#BFBFBF" d="M273.59 17.855a6.862 6.862 0 1 0-13.722-.003 6.862 6.862 0 0 0 13.722.003m0 0"/><use xlink:href="#a" x="264.498" y="20.988"/><use xlink:href="#d" x="261.839" y="7.274"/><use xlink:href="#d" x="266.725" y="7.274"/><path fill="#BFBFBF" d="M288.547 17.531a7.48 7.48 0 0 0-7.477-7.48 7.478 7.478 0 1 0 0 14.957 7.477 7.477 0 0 0 7.477-7.477m0 0"/><use xlink:href="#w" x="277.882" y="20.988"/><use xlink:href="#d" x="276.18" y="6.222"/><use xlink:href="#f" x="281.066" y="6.222"/><path fill="#BFBFBF" d="M302.598 17.477a7.024 7.024 0 0 0-7.028-7.024 7.023 7.023 0 0 0 0 14.047 7.024 7.024 0 0 0 7.028-7.023m0 0"/><use xlink:href="#x" x="293.825" y="20.988"/><use xlink:href="#d" x="290.683" y="6.733"/><use xlink:href="#g" x="295.569" y="6.733"/></svg>