<svg xmlns="http://www.w3.org/2000/svg" xmlns:xlink="http://www.w3.org/1999/xlink" width="69.068" height="37.316"><defs><path id="a" d="m2.531-1.453-.234-.406-.594.343-3.219-5.593-1.5.953.235.406c.547-.312.594-.344.797-.016L.766-.984l-.594.343.234.407 1.047-.641Zm0 0"/><path id="b" d="M3.61-4.578C2.937-5.75 1.64-6.141.218-5.328c-1.406.812-1.703 2.14-1.031 3.297.609 1.062 1.89 1.484 3.312.656 1.453-.844 1.719-2.156 1.11-3.203m-1.172.547c.437.734.968 1.672-.141 2.312C1.203-1.094.672-2.03.234-2.766c-.218-.406-.468-.828-.484-1.203-.031-.422.234-.812.64-1.047.376-.218.813-.296 1.172-.109.36.188.641.672.876 1.094m0 0"/><path id="c" d="m3.031-6.312-.234-.407a9 9 0 0 1-.656.422l-.797.422.234.406c.156-.093.422-.203.453-.14 0 0 .016.015.016.125l.25 2.75L-.156-4.47l.453-.265-.234-.407-1.047.657-.985.53.235.407.53-.312 3.391 2.375c.22.156.329.093.438.03.156-.093.234-.171.219-.405L2.5-5.766c-.016-.156-.016-.218.531-.546m0 0"/><path id="e" d="M3.688-3.469c-.094-.14-.266-.047-.297-.031-.157.094-.141.125-.11.297.063.531-.281 1.078-.844 1.406-1.218.703-1.89-.453-2.14-.875l2.61-1.5c.202-.11.28-.156.14-.39-.156-.266-.578-.875-1.25-1.063-.5-.14-1.047-.016-1.64.328C-1.22-4.5-1.47-3.172-.86-2.109c.672 1.172 2.03 1.5 3.422.703 1.359-.797 1.203-1.906 1.124-2.063m-1.485-.687L.125-2.97c-.172-.328-.375-.719-.36-1.094.032-.468.329-.78.563-.921 1.016-.578 1.688.53 1.875.828m0 0"/><path id="f" d="m3.031-6.312-.234-.407a9 9 0 0 1-.656.422l-.797.422.234.406s.406-.234.453-.14v.14l.25 2.703-2.437-1.703.453-.265-.234-.407-1.047.657-.985.53.235.407.53-.312 3.595 2.484.03.531c.048.516.126 1.266-.5 1.625-.124.078-.14.063-.218.078.063-.062.172-.296 0-.609C1.531-.031 1.22-.125.922.047.703.187.532.484.719.828c.25.422.875.563 1.39.266.657-.375.844-1.219.813-1.844L2.5-5.766c-.016-.156-.016-.218.531-.546m0 0"/><clipPath id="d"><path d="M55 18h13.602v11H55Zm0 0"/></clipPath></defs><path fill="none" stroke="#7F7F7F" stroke-miterlimit="10" stroke-width=".199" d="M.652 14.84h56.692M.652 29.016V.668m28.344 28.348V.668m28.34 28.348V.668"/><use xlink:href="#a" x="44.877" y="36.212"/><use xlink:href="#b" x="47.629" y="34.623"/><use xlink:href="#c" x="52.314" y="31.918"/><g clip-path="url(#d)"><use xlink:href="#e" x="57.275" y="29.054"/><use xlink:href="#a" x="61.822" y="26.429"/><use xlink:href="#f" x="64.575" y="24.84"/></g></svg>