<svg xmlns="http://www.w3.org/2000/svg" xmlns:xlink="http://www.w3.org/1999/xlink" width="351.202" height="76.43"><defs><path id="a" d="M2.922 0v-.469h-.688v-6.453L.47-6.844v.469c.625 0 .687 0 .687.39v5.516H.47V0l1.219-.031Zm0 0"/><path id="b" d="M2.844 0v-.469h-.61v-4.015L.5-4.406v.468c.594 0 .656 0 .656.391v3.078H.47V0l1.219-.031Zm-.469-6.047a.774.774 0 0 0-.781-.781.784.784 0 0 0-.782.781c0 .422.36.766.782.766a.77.77 0 0 0 .781-.766m0 0"/><path id="c" d="M6.125 0v-.469h-.687v-2.578c0-1.047-.532-1.437-1.532-1.437-.953 0-1.484.562-1.75 1.078v-1.078l-1.703.078v.468c.61 0 .688 0 .688.391v3.078H.453V0l1.25-.031L2.953 0v-.469h-.687v-2.078c0-1.094.859-1.578 1.5-1.578.328 0 .547.203.547.969V-.47h-.688V0l1.25-.031Zm0 0"/><path id="d" d="M4.922-1.172c0-.172-.188-.172-.234-.172-.172 0-.188.047-.25.203-.204.485-.782.797-1.422.797-1.407 0-1.422-1.328-1.422-1.828h3.015c.22 0 .313 0 .313-.265 0-.313-.063-1.047-.563-1.547-.359-.36-.89-.532-1.578-.532C1.187-4.516.313-3.484.313-2.25c0 1.344 1 2.313 2.609 2.313 1.578 0 2-1.063 2-1.235M3.984-2.5h-2.39c.015-.39.031-.812.234-1.14.266-.391.672-.516.953-.516 1.172 0 1.188 1.312 1.203 1.656m0 0"/><path id="e" d="M8.031-3.953v-.469a13 13 0 0 1-.781.031l-.953-.03v.468c.094 0 .578 0 .578.11 0 .03-.031.093-.031.124L5.797-1.172l-1.14-2.781h.562v-.469l-1.14.031c-.423 0-.845-.03-1-.03v.468h.593c.203.5.203.531.203.531 0 .031-.031.094-.031.125L3.047-1.39 2-3.953h.563v-.469l-1.235.031L.25-4.42v.468h.594L2.359-.234c.079.172.11.28.36.28s.297-.108.36-.28L4.14-2.812 5.188-.235c.078.172.109.28.359.28s.297-.108.36-.28L7.343-3.75c.047-.125.093-.203.687-.203m0 0"/><path id="f" d="M5.984 0v-.469c-.609 0-.687 0-.687-.39v-6.063l-1.766.078v.469c.625 0 .703 0 .703.39v1.954a2.18 2.18 0 0 0-1.359-.453c-1.453 0-2.5.875-2.5 2.28 0 1.313.922 2.267 2.39 2.267.61 0 1.094-.235 1.407-.485v.485ZM4.172-1.031c-.14.187-.547.734-1.297.734-1.219 0-1.219-1.203-1.219-1.906 0-.485 0-1.016.25-1.406.297-.422.766-.516 1.078-.516.563 0 .97.313 1.188.61Zm0 0"/><path id="g" d="M3.813-1.234v-.532h-.47v.516c0 .672-.327.906-.609.906-.578 0-.578-.64-.578-.86v-2.75h1.469v-.468H2.156v-1.906h-.469c0 1-.484 1.984-1.484 2.016v.359h.828v2.734c0 1.063.86 1.282 1.578 1.282.75 0 1.204-.579 1.204-1.297m0 0"/><path id="h" d="M6.125 0v-.469h-.687v-2.578c0-1.047-.532-1.437-1.532-1.437a1.9 1.9 0 0 0-1.687.953v-3.39l-1.766.077v.469c.61 0 .688 0 .688.39v5.516H.453V0l1.25-.031L2.953 0v-.469h-.687v-2.078c0-1.094.859-1.578 1.5-1.578.328 0 .547.203.547.969V-.47h-.688V0l1.25-.031Zm0 0"/><path id="i" d="M4.14-1.39c0-.438-.202-.782-.546-1.063-.39-.281-.719-.344-1.485-.485-.375-.062-1.015-.171-1.015-.64 0-.625.922-.625 1.11-.625.75 0 1.124.297 1.171.844.016.156.031.203.234.203.235 0 .235-.047.235-.281v-.797c0-.188 0-.282-.172-.282-.047 0-.063 0-.453.188-.266-.125-.61-.188-1-.188-.313 0-1.844 0-1.844 1.313 0 .39.203.656.406.828.39.344.782.406 1.547.547.36.062 1.094.187 1.094.781 0 .75-.906.75-1.125.75C1.234-.297.984-1.03.859-1.453c-.046-.14-.109-.14-.234-.14-.25 0-.25.062-.25.28v1.094c0 .188 0 .282.188.282.062 0 .078 0 .296-.157l.25-.172c.47.329.985.329 1.188.329.312 0 1.844 0 1.844-1.454m0 0"/><path id="j" d="M5.281-3.187c0-.954-.015-3.344-2.422-3.344S.453-4.156.453-3.188c0 1 0 3.297 2.406 3.297 2.391 0 2.422-2.296 2.422-3.296M4-3.297c0 .563 0 1.469-.078 1.985-.14.921-.766 1.062-1.063 1.062-.359 0-.921-.219-1.046-.953-.094-.516-.094-1.547-.094-2.094 0-.719 0-1.375.078-1.89.125-.891.828-.985 1.062-.985.375 0 .782.188.97.625C4-5.172 4-4.109 4-3.297m0 0"/><path id="k" d="M2.36-.781a.784.784 0 0 0-.782-.781.78.78 0 0 0-.766.78.774.774 0 1 0 1.547 0m0 0"/><path id="l" d="M4.922 0v-.469h-1.39v-5.734c0-.234 0-.328-.266-.328-.11 0-.125 0-.22.078-.765.562-1.796.562-2 .562H.845v.47h.203c.156 0 .703-.016 1.297-.204v5.156H.954V0c.437-.031 1.5-.031 1.984-.031s1.546 0 1.984.031m0 0"/><path id="m" d="M5.984-2.219c0-1.328-.906-2.265-2.343-2.265-.75 0-1.282.312-1.5.484v-.484l-1.766.078v.468c.61 0 .688 0 .688.376v5.03H.375v.47l1.25-.032 1.25.032v-.47h-.687V-.39a2 2 0 0 0 1.28.454c1.5 0 2.516-.907 2.516-2.282m-1.28 0C4.703-.813 4-.297 3.358-.297c-.14 0-.609 0-1.062-.547-.11-.125-.11-.14-.11-.328v-2.11c0-.187.016-.202.157-.343.39-.406.922-.469 1.14-.469.657 0 1.22.61 1.22 1.875m0 0"/><path id="n" d="M5.406 0v-.469h-.968v-1.094h.968v-.468h-.968V-6.22c0-.265-.016-.328-.297-.328-.22 0-.22.016-.344.172L.313-2.031v.469h2.875V-.47h-1.11V0c.375-.031 1.281-.031 1.703-.031.406 0 1.266 0 1.625.031m-2.11-2.031H.845L3.297-5.11Zm0 0"/><path id="o" d="M5.156-2.219h-.468c-.032.203-.125.844-.266.906-.11.063-.86.063-1.016.063H1.937c.47-.39 1-.812 1.438-1.14 1.14-.844 1.781-1.313 1.781-2.25 0-1.157-1.047-1.891-2.437-1.891-1.219 0-2.156.625-2.156 1.515 0 .594.484.735.718.735C1.61-4.281 2-4.5 2-5c0-.516-.422-.672-.562-.719.28-.234.671-.343 1.03-.343.845 0 1.313.671 1.313 1.421 0 .688-.375 1.375-1.078 2.079l-2 2.046c-.14.11-.14.141-.14.344V0h4.28Zm0 0"/><path id="q" d="M5.156-2c0-1.156-.797-2.078-2.265-2.078-.282 0-.813.031-1.282.344v-1.313c.282.047.391.078.72.078 1.452 0 2.374-1.125 2.374-1.375 0-.078-.016-.187-.14-.187-.032 0-.032 0-.141.047a4.3 4.3 0 0 1-1.531.28c-.75 0-1.282-.202-1.547-.28-.094-.032-.094-.047-.125-.047-.14 0-.14.11-.14.265v2.922c0 .172 0 .297.218.297.125 0 .156-.031.219-.11.39-.468.922-.562 1.328-.562.89 0 .89.875.89 1.672 0 .735 0 1.735-1.187 1.735-.25 0-.875-.063-1.297-.625.36-.016.656-.266.656-.672 0-.532-.437-.672-.672-.672-.14 0-.671.094-.671.703 0 .844.78 1.687 2.015 1.687C4.172.11 5.156-.78 5.156-2m0 0"/><clipPath id="p"><path d="M0 0h146v76.145H0Zm0 0"/></clipPath></defs><path fill="none" stroke="#000" stroke-miterlimit="10" stroke-width=".1" d="M.61 5.129h81.652"/><path stroke="#000" stroke-miterlimit="10" stroke-width=".1" d="M85.445 5.129c-.39-.094-2.11-.625-3.183-1.203v2.406c1.074-.578 2.793-1.11 3.183-1.203Zm0 0"/><use xlink:href="#a" x="89.169" y="7.62"/><use xlink:href="#b" x="92.347" y="7.62"/><use xlink:href="#c" x="95.525" y="7.62"/><use xlink:href="#d" x="101.891" y="7.62"/><use xlink:href="#e" x="110.957" y="7.62"/><use xlink:href="#b" x="119.236" y="7.62"/><use xlink:href="#f" x="122.414" y="7.62"/><use xlink:href="#g" x="128.78" y="7.62"/><use xlink:href="#h" x="133.234" y="7.62"/><use xlink:href="#b" x="143.416" y="7.62"/><use xlink:href="#i" x="146.594" y="7.62"/><use xlink:href="#j" x="154.932" y="7.62"/><use xlink:href="#k" x="160.661" y="7.62"/><use xlink:href="#l" x="163.839" y="7.62"/><use xlink:href="#m" x="169.568" y="7.62"/><use xlink:href="#g" x="175.934" y="7.62"/><path fill="none" stroke="#000" stroke-miterlimit="10" stroke-width=".399" d="M.61 25.055h80.456"/><path stroke="#000" stroke-miterlimit="10" stroke-width=".399" d="M84.828 25.055c-.46-.114-2.492-.75-3.762-1.446V26.5c1.27-.695 3.301-1.332 3.762-1.445Zm0 0"/><use xlink:href="#a" x="89.169" y="27.545"/><use xlink:href="#b" x="92.347" y="27.545"/><use xlink:href="#c" x="95.525" y="27.545"/><use xlink:href="#d" x="101.891" y="27.545"/><use xlink:href="#e" x="110.957" y="27.545"/><use xlink:href="#b" x="119.236" y="27.545"/><use xlink:href="#f" x="122.414" y="27.545"/><use xlink:href="#g" x="128.78" y="27.545"/><use xlink:href="#h" x="133.234" y="27.545"/><use xlink:href="#b" x="143.416" y="27.545"/><use xlink:href="#i" x="146.594" y="27.545"/><use xlink:href="#j" x="154.932" y="27.545"/><use xlink:href="#k" x="160.661" y="27.545"/><use xlink:href="#n" x="163.839" y="27.545"/><use xlink:href="#m" x="169.568" y="27.545"/><use xlink:href="#g" x="175.934" y="27.545"/><path fill="none" stroke="#000" stroke-miterlimit="10" stroke-width="1.196" d="M.61 44.98h77.269"/><path stroke="#000" stroke-miterlimit="10" stroke-width="1.196" d="M83.188 44.98c-.653-.164-3.52-1.09-5.31-2.097v4.195c1.79-1.008 4.657-1.933 5.31-2.098Zm0 0"/><use xlink:href="#a" x="89.169" y="47.47"/><use xlink:href="#b" x="92.347" y="47.47"/><use xlink:href="#c" x="95.525" y="47.47"/><use xlink:href="#d" x="101.891" y="47.47"/><use xlink:href="#e" x="110.957" y="47.47"/><use xlink:href="#b" x="119.236" y="47.47"/><use xlink:href="#f" x="122.414" y="47.47"/><use xlink:href="#g" x="128.78" y="47.47"/><use xlink:href="#h" x="133.234" y="47.47"/><use xlink:href="#b" x="143.416" y="47.47"/><use xlink:href="#i" x="146.594" y="47.47"/><use xlink:href="#l" x="154.932" y="47.47"/><use xlink:href="#k" x="160.661" y="47.47"/><use xlink:href="#o" x="163.839" y="47.47"/><use xlink:href="#m" x="169.568" y="47.47"/><use xlink:href="#g" x="175.934" y="47.47"/><path fill="none" stroke="#000" stroke-miterlimit="10" stroke-width="4.981" d="M.61 64.906h62.124"/><path d="M75.383 64.906c-1.555-.406-8.38-2.695-12.649-5.191v10.383c4.27-2.496 11.094-4.79 12.649-5.192m0 0"/><g clip-path="url(#p)"><path fill="none" stroke="#000" stroke-miterlimit="10" stroke-width="4.981" d="M75.383 64.906c-1.555-.406-8.38-2.695-12.649-5.191v10.383c4.27-2.496 11.094-4.79 12.649-5.192Zm0 0"/></g><use xlink:href="#a" x="89.169" y="67.395"/><use xlink:href="#b" x="92.347" y="67.395"/><use xlink:href="#c" x="95.525" y="67.395"/><use xlink:href="#d" x="101.891" y="67.395"/><use xlink:href="#e" x="110.957" y="67.395"/><use xlink:href="#b" x="119.236" y="67.395"/><use xlink:href="#f" x="122.414" y="67.395"/><use xlink:href="#g" x="128.78" y="67.395"/><use xlink:href="#h" x="133.234" y="67.395"/><use xlink:href="#b" x="143.416" y="67.395"/><use xlink:href="#i" x="146.594" y="67.395"/><use xlink:href="#q" x="154.932" y="67.395"/><use xlink:href="#m" x="160.661" y="67.395"/><use xlink:href="#g" x="167.027" y="67.395"/><path fill="none" stroke="#000" stroke-miterlimit="10" stroke-width=".1" d="M170.691 5.129h84.942"/><path fill="none" stroke="#000" stroke-linecap="round" stroke-linejoin="round" stroke-miterlimit="10" stroke-width=".08" d="M254.535 3.977c.074.433.926 1.082 1.156 1.152-.23.07-1.082.719-1.156 1.152"/><use xlink:href="#a" x="259.247" y="7.62"/><use xlink:href="#b" x="262.425" y="7.62"/><use xlink:href="#c" x="265.603" y="7.62"/><use xlink:href="#d" x="271.969" y="7.62"/><use xlink:href="#e" x="281.035" y="7.62"/><use xlink:href="#b" x="289.314" y="7.62"/><use xlink:href="#f" x="292.492" y="7.62"/><use xlink:href="#g" x="298.858" y="7.62"/><use xlink:href="#h" x="303.312" y="7.62"/><use xlink:href="#b" x="313.494" y="7.62"/><use xlink:href="#i" x="316.672" y="7.62"/><use xlink:href="#j" x="325.01" y="7.62"/><use xlink:href="#k" x="330.739" y="7.62"/><use xlink:href="#l" x="333.917" y="7.62"/><use xlink:href="#m" x="339.646" y="7.62"/><use xlink:href="#g" x="346.012" y="7.62"/><path fill="none" stroke="#000" stroke-miterlimit="10" stroke-width=".399" d="M170.691 25.055h84.641"/><path fill="none" stroke="#000" stroke-linecap="round" stroke-linejoin="round" stroke-miterlimit="10" stroke-width=".319" d="M254.078 23.469c.098.593 1.195 1.488 1.492 1.586-.297.097-1.394.992-1.492 1.586"/><use xlink:href="#a" x="259.247" y="27.545"/><use xlink:href="#b" x="262.425" y="27.545"/><use xlink:href="#c" x="265.603" y="27.545"/><use xlink:href="#d" x="271.969" y="27.545"/><use xlink:href="#e" x="281.035" y="27.545"/><use xlink:href="#b" x="289.314" y="27.545"/><use xlink:href="#f" x="292.492" y="27.545"/><use xlink:href="#g" x="298.858" y="27.545"/><use xlink:href="#h" x="303.312" y="27.545"/><use xlink:href="#b" x="313.494" y="27.545"/><use xlink:href="#i" x="316.672" y="27.545"/><use xlink:href="#j" x="325.01" y="27.545"/><use xlink:href="#k" x="330.739" y="27.545"/><use xlink:href="#n" x="333.917" y="27.545"/><use xlink:href="#m" x="339.646" y="27.545"/><use xlink:href="#g" x="346.012" y="27.545"/><path fill="none" stroke="#000" stroke-miterlimit="10" stroke-width="1.196" d="M170.691 44.98h83.844"/><path fill="none" stroke="#000" stroke-linecap="round" stroke-linejoin="round" stroke-miterlimit="10" stroke-width=".956" d="M252.863 42.238c.157 1.028 1.91 2.57 2.39 2.742-.48.172-2.233 1.715-2.39 2.743"/><use xlink:href="#a" x="259.247" y="47.47"/><use xlink:href="#b" x="262.425" y="47.47"/><use xlink:href="#c" x="265.603" y="47.47"/><use xlink:href="#d" x="271.969" y="47.47"/><use xlink:href="#e" x="281.035" y="47.47"/><use xlink:href="#b" x="289.314" y="47.47"/><use xlink:href="#f" x="292.492" y="47.47"/><use xlink:href="#g" x="298.858" y="47.47"/><use xlink:href="#h" x="303.312" y="47.47"/><use xlink:href="#b" x="313.494" y="47.47"/><use xlink:href="#i" x="316.672" y="47.47"/><use xlink:href="#l" x="325.01" y="47.47"/><use xlink:href="#k" x="330.739" y="47.47"/><use xlink:href="#o" x="333.917" y="47.47"/><use xlink:href="#m" x="339.646" y="47.47"/><use xlink:href="#g" x="346.012" y="47.47"/><path fill="none" stroke="#000" stroke-miterlimit="10" stroke-width="4.981" d="M170.691 64.906h80.059"/><path fill="none" stroke="#000" stroke-linecap="round" stroke-linejoin="round" stroke-miterlimit="10" stroke-width="3.985" d="M247.09 56.668c.441 3.09 5.32 7.723 6.648 8.238-1.328.516-6.207 5.149-6.648 8.239"/><use xlink:href="#a" x="259.247" y="67.395"/><use xlink:href="#b" x="262.425" y="67.395"/><use xlink:href="#c" x="265.603" y="67.395"/><use xlink:href="#d" x="271.969" y="67.395"/><use xlink:href="#e" x="281.035" y="67.395"/><use xlink:href="#b" x="289.314" y="67.395"/><use xlink:href="#f" x="292.492" y="67.395"/><use xlink:href="#g" x="298.858" y="67.395"/><use xlink:href="#h" x="303.312" y="67.395"/><use xlink:href="#b" x="313.494" y="67.395"/><use xlink:href="#i" x="316.672" y="67.395"/><use xlink:href="#q" x="325.01" y="67.395"/><use xlink:href="#m" x="330.739" y="67.395"/><use xlink:href="#g" x="337.105" y="67.395"/></svg>