<svg xmlns="http://www.w3.org/2000/svg" xmlns:xlink="http://www.w3.org/1999/xlink" width="133.884" height="129.167"><defs><path id="a" d="M5.281-3.187c0-.954-.015-3.344-2.422-3.344S.453-4.156.453-3.188c0 1 0 3.297 2.406 3.297 2.391 0 2.422-2.296 2.422-3.296M4-3.297c0 .563 0 1.469-.078 1.985-.14.921-.766 1.062-1.063 1.062-.359 0-.921-.219-1.046-.953-.094-.516-.094-1.547-.094-2.094 0-.719 0-1.375.078-1.89.125-.891.828-.985 1.062-.985.375 0 .782.188.97.625C4-5.172 4-4.109 4-3.297m0 0"/><path id="b" d="M5.406 0v-.469h-.968v-1.094h.968v-.468h-.968V-6.22c0-.265-.016-.328-.297-.328-.22 0-.22.016-.344.172L.313-2.031v.469h2.875V-.47h-1.11V0c.375-.031 1.281-.031 1.703-.031.406 0 1.266 0 1.625.031m-2.11-2.031H.845L3.297-5.11Zm0 0"/><path id="c" d="M5.156-2c0-1.156-.797-2.078-2.265-2.078-.282 0-.813.031-1.282.344v-1.313c.282.047.391.078.72.078 1.452 0 2.374-1.125 2.374-1.375 0-.078-.016-.187-.14-.187-.032 0-.032 0-.141.047a4.3 4.3 0 0 1-1.531.28c-.75 0-1.282-.202-1.547-.28-.094-.032-.094-.047-.125-.047-.14 0-.14.11-.14.265v2.922c0 .172 0 .297.218.297.125 0 .156-.031.219-.11.39-.468.922-.562 1.328-.562.89 0 .89.875.89 1.672 0 .735 0 1.735-1.187 1.735-.25 0-.875-.063-1.297-.625.36-.016.656-.266.656-.672 0-.532-.437-.672-.672-.672-.14 0-.671.094-.671.703 0 .844.78 1.687 2.015 1.687C4.172.11 5.156-.78 5.156-2m0 0"/><path id="d" d="M5.25-3.281c0-.672 0-3.25-2.375-3.25-1.406 0-2.39.812-2.39 2.14 0 1.375.984 2.125 2.203 2.125.359 0 .828-.062 1.203-.765v.219c0 .734-.094 1.312-.235 1.656-.172.39-.61.843-1.297.843-.171 0-.53-.03-.828-.218.11-.031.485-.172.485-.625 0-.344-.235-.625-.625-.625-.391 0-.625.265-.625.64 0 .688.515 1.25 1.609 1.25C3.672.11 5.25-.734 5.25-3.28m-1.375-.985c0 .625-.25 1.641-1.094 1.641-.953 0-.953-.75-.953-1.734 0-.985 0-1.782 1.078-1.782.578 0 .813.532.86.625.109.329.109.907.109 1.25m0 0"/><path id="e" d="M4.922 0v-.469h-1.39v-5.734c0-.234 0-.328-.266-.328-.11 0-.125 0-.22.078-.765.562-1.796.562-2 .562H.845v.47h.203c.156 0 .703-.016 1.297-.204v5.156H.954V0c.437-.031 1.5-.031 1.984-.031s1.546 0 1.984.031m0 0"/><path id="f" d="M5.25-1.797c0-.547-.297-1.406-1.734-1.719.687-.203 1.406-.765 1.406-1.625 0-.765-.75-1.39-2.156-1.39-1.188 0-1.97.64-1.97 1.437 0 .422.313.703.688.703a.67.67 0 0 0 .704-.687c0-.578-.547-.688-.579-.703.344-.282.782-.36 1.094-.36.828 0 .86.641.86.97 0 .124-.016 1.437-1.047 1.5-.407.015-.438.015-.485.03-.094.016-.125.11-.125.172 0 .172.11.172.282.172h.437c1.094 0 1.094.985 1.094 1.5 0 .469 0 1.485-1.031 1.485-.266 0-.782-.047-1.266-.344C1.75-.75 2-1 2-1.406c0-.453-.312-.75-.75-.75-.422 0-.766.265-.766.765 0 .907.97 1.5 2.25 1.5 1.782 0 2.516-1 2.516-1.906m0 0"/><path id="g" d="M5.25-1.86c0-1.077-.844-1.546-1.328-1.827.687-.36 1-.797 1-1.376 0-1.015-.906-1.468-2.047-1.468-1.375 0-2.078.797-2.078 1.75 0 .437.187 1.062.953 1.5C.922-2.906.484-2.344.484-1.61.484-.406 1.563.109 2.844.109 4.438.11 5.25-.766 5.25-1.859M4.172-5.046c0 .484-.25.813-.688 1.11l-1.5-.844c-.156-.078-.437-.25-.437-.594 0-.703.89-.766 1.297-.766.828 0 1.328.407 1.328 1.094m.219 3.734c0 .829-.938 1-1.516 1-.969 0-1.547-.515-1.547-1.296 0-.766.531-1.203.89-1.407l1.36.766c.438.25.813.453.813.938m0 0"/><path id="h" d="M5.156-2.219h-.468c-.032.203-.125.844-.266.906-.11.063-.86.063-1.016.063H1.937c.47-.39 1-.812 1.438-1.14 1.14-.844 1.781-1.313 1.781-2.25 0-1.157-1.047-1.891-2.437-1.891-1.219 0-2.156.625-2.156 1.515 0 .594.484.735.718.735C1.61-4.281 2-4.5 2-5c0-.516-.422-.672-.562-.719.28-.234.671-.343 1.03-.343.845 0 1.313.671 1.313 1.421 0 .688-.375 1.375-1.078 2.079l-2 2.046c-.14.11-.14.141-.14.344V0h4.28Zm0 0"/><path id="i" d="M5.563-6.422H3.53c-.234 0-1.703-.047-1.844-.094-.203-.03-.218-.125-.234-.218H.984l-.343 2.53h.468c.094-.765.22-.89.266-.905.11-.063.922-.063 1.094-.063H4.14c-.172.219-.36.422-.547.64-.953 1.126-1.672 2.47-1.672 3.938 0 .703.562.703.625.703.156 0 .625-.046.625-.703v-.468c0-.47.031-.954.094-1.422.093-.672.297-1.25.656-1.657l1.547-1.796c.093-.11.093-.141.093-.485m0 0"/></defs><path fill="none" stroke="#7F7F7F" stroke-miterlimit="10" stroke-width=".399" d="M120.258 70.754h12.367V57.477h-12.367Zm0 0"/><use xlink:href="#a" x="123.577" y="67.323"/><path fill="none" stroke="#7F7F7F" stroke-miterlimit="10" stroke-width=".399" d="M100.79 30.668h18.097V17.383h-18.098Zm0 0"/><use xlink:href="#b" x="104.108" y="27.239"/><use xlink:href="#c" x="109.837" y="27.239"/><path fill="none" stroke="#7F7F7F" stroke-miterlimit="10" stroke-width=".399" d="M60.7 14.059h18.097V.78H60.699Zm0 0"/><use xlink:href="#d" x="64.02" y="10.63"/><use xlink:href="#a" x="69.749" y="10.63"/><path fill="none" stroke="#7F7F7F" stroke-miterlimit="10" stroke-width=".399" d="M17.746 30.664h23.828V17.387H17.746Zm0 0"/><use xlink:href="#e" x="21.068" y="27.235"/><use xlink:href="#f" x="26.797" y="27.235"/><use xlink:href="#c" x="32.525" y="27.235"/><path fill="none" stroke="#7F7F7F" stroke-miterlimit="10" stroke-width=".399" d="M1.14 70.754H24.97V57.477H1.14Zm0 0"/><use xlink:href="#e" x="4.463" y="67.323"/><use xlink:href="#g" x="10.192" y="67.323"/><use xlink:href="#a" x="15.92" y="67.323"/><path fill="none" stroke="#7F7F7F" stroke-miterlimit="10" stroke-width=".399" d="M17.746 110.84h23.828V97.566H17.746Zm0 0"/><use xlink:href="#h" x="21.068" y="107.41"/><use xlink:href="#h" x="26.797" y="107.41"/><use xlink:href="#c" x="32.525" y="107.41"/><path fill="none" stroke="#7F7F7F" stroke-miterlimit="10" stroke-width=".399" d="M57.836 127.55H81.66v-13.484H57.836Zm0 0"/><use xlink:href="#h" x="61.156" y="124.121"/><use xlink:href="#i" x="66.885" y="124.121"/><use xlink:href="#a" x="72.613" y="124.121"/><path fill="none" stroke="#7F7F7F" stroke-miterlimit="10" stroke-width=".399" d="M97.922 110.84h23.828V97.566H97.922Zm0 0"/><use xlink:href="#f" x="101.244" y="107.41"/><use xlink:href="#e" x="106.973" y="107.41"/><use xlink:href="#c" x="112.701" y="107.41"/><path fill="none" stroke="#000" stroke-miterlimit="10" stroke-width=".399" d="M126.383 57.277c.242-8.687-3.754-19.566-9.559-26.113"/><path fill="none" stroke="#000" stroke-linecap="round" stroke-linejoin="round" stroke-miterlimit="10" stroke-width=".39897207" d="M116.324 34.156c.805-1.246.735-2.324.367-3.14.782.437 1.848.605 3.164-.082"/><path fill="none" stroke="#000" stroke-miterlimit="10" stroke-width=".399" d="M119.79 57.328c-5.93-6.598-10.08-17.656-9.895-26.46"/><path fill="none" stroke="#000" stroke-linecap="round" stroke-linejoin="round" stroke-miterlimit="10" stroke-width=".39898005000000003" d="M120.27 54.328c-.797 1.254-.72 2.332-.348 3.145-.781-.434-1.852-.59-3.16.105"/><path fill="none" stroke="#000" stroke-miterlimit="10" stroke-width=".399" d="M102.875 17.184c-5.684-5.504-15.508-9.54-23.48-9.68"/><path fill="none" stroke="#000" stroke-linecap="round" stroke-linejoin="round" stroke-miterlimit="10" stroke-width=".39899202" d="M81.266 9.895c-.38-1.434-1.22-2.114-2.07-2.395.85-.277 1.695-.953 2.074-2.387"/><path fill="none" stroke="#000" stroke-miterlimit="10" stroke-width=".399" d="M100.191 23.941c-7.976-.14-17.8-4.175-23.488-9.683"/><path fill="none" stroke="#000" stroke-linecap="round" stroke-linejoin="round" stroke-miterlimit="10" stroke-width=".39899202" d="M98.32 21.55c.375 1.438 1.22 2.114 2.07 2.395-.85.278-1.695.953-2.077 2.387"/><path fill="none" stroke="#000" stroke-miterlimit="10" stroke-width=".399" d="M60.5 7.5c-7.914.012-17.777 3.96-23.598 9.414"/><path fill="none" stroke="#000" stroke-linecap="round" stroke-linejoin="round" stroke-miterlimit="10" stroke-width=".39899202" d="M39.91 17.328c-1.27-.77-2.347-.668-3.152-.277.418-.793.55-1.867-.176-3.16"/><path fill="none" stroke="#000" stroke-miterlimit="10" stroke-width=".399" d="M62.52 14.543c-5.008 5.125-13.653 9.043-20.747 9.379"/><path fill="none" stroke="#000" stroke-linecap="round" stroke-linejoin="round" stroke-miterlimit="10" stroke-width=".39897606" d="M59.496 14.27c1.3.71 2.375.562 3.16.132-.379.813-.465 1.891.317 3.149"/><path fill="none" stroke="#000" stroke-miterlimit="10" stroke-width=".399" d="M22.941 30.863c-5.859 6.418-9.949 17.266-9.836 26.016"/><path fill="none" stroke="#000" stroke-linecap="round" stroke-linejoin="round" stroke-miterlimit="10" stroke-width=".39897606" d="M15.441 54.941c-1.425.418-2.078 1.278-2.332 2.137-.304-.844-1.004-1.668-2.449-2.004"/><path fill="none" stroke="#000" stroke-miterlimit="10" stroke-width=".399" d="M29.61 31.262c.113 8.75-3.977 19.597-9.84 26.015"/><path fill="none" stroke="#000" stroke-linecap="round" stroke-linejoin="round" stroke-miterlimit="10" stroke-width=".39897606" d="M27.273 33.2c1.422-.419 2.079-1.278 2.332-2.137.301.843 1.004 1.667 2.45 2.003"/><path fill="none" stroke="#000" stroke-miterlimit="10" stroke-width=".399" d="M13.113 70.953c-.242 8.688 3.758 19.567 9.563 26.117"/><path fill="none" stroke="#000" stroke-linecap="round" stroke-linejoin="round" stroke-miterlimit="10" stroke-width=".39897606" d="M23.176 94.074c-.805 1.25-.735 2.328-.367 3.145-.782-.442-1.848-.606-3.164.082"/><path fill="none" stroke="#000" stroke-miterlimit="10" stroke-width=".399" d="M20.035 71.246c5.809 6.55 9.805 17.43 9.567 26.121"/><path fill="none" stroke="#000" stroke-linecap="round" stroke-linejoin="round" stroke-miterlimit="10" stroke-width=".39897606" d="M19.54 74.242c.8-1.246.733-2.328.366-3.144.778.441 1.848.605 3.164-.082"/><path fill="none" stroke="#000" stroke-miterlimit="10" stroke-width=".399" d="M36.613 111.04c4.875 5.167 13.477 9.175 20.625 9.64"/><path fill="none" stroke="#000" stroke-linecap="round" stroke-linejoin="round" stroke-miterlimit="10" stroke-width=".39898404" d="M55.477 118.207c.312 1.453 1.125 2.168 1.96 2.484-.863.243-1.738.88-2.183 2.293"/><path fill="none" stroke="#000" stroke-miterlimit="10" stroke-width=".399" d="M42.168 104.328c7.113.45 15.66 4.406 20.52 9.54"/><path fill="none" stroke="#000" stroke-linecap="round" stroke-linejoin="round" stroke-miterlimit="10" stroke-width=".39898005000000003" d="M43.934 106.797c-.313-1.45-1.125-2.164-1.961-2.48.859-.239 1.734-.88 2.175-2.297"/><path fill="none" stroke="#000" stroke-miterlimit="10" stroke-width=".399" d="M81.86 120.703c7.093-.332 15.738-4.254 20.745-9.379"/><path fill="none" stroke="#000" stroke-linecap="round" stroke-linejoin="round" stroke-miterlimit="10" stroke-width=".39897606" d="M99.582 111.055c1.305.707 2.375.558 3.164.129-.383.812-.469 1.89.316 3.148"/><path fill="none" stroke="#000" stroke-miterlimit="10" stroke-width=".399" d="M77.086 113.582c4.992-5.086 13.578-8.957 20.637-9.273"/><path fill="none" stroke="#000" stroke-linecap="round" stroke-linejoin="round" stroke-miterlimit="10" stroke-width=".39898404" d="M80.105 113.86c-1.3-.712-2.37-.563-3.16-.137.383-.809.473-1.887-.308-3.149"/><path fill="none" stroke="#000" stroke-miterlimit="10" stroke-width=".399" d="M116.555 97.367c5.86-6.418 9.949-17.265 9.836-26.02"/><path fill="none" stroke="#000" stroke-linecap="round" stroke-linejoin="round" stroke-miterlimit="10" stroke-width=".39897606" d="M124.055 73.29c1.425-.419 2.078-1.282 2.332-2.138.304.84 1.004 1.664 2.449 2.004"/><path fill="none" stroke="#000" stroke-miterlimit="10" stroke-width=".399" d="M109.89 96.969c-.054-8.871 4.184-19.899 10.169-26.36"/><path fill="none" stroke="#000" stroke-linecap="round" stroke-linejoin="round" stroke-miterlimit="10" stroke-width=".39898404" d="M112.238 95.043c-1.426.41-2.086 1.27-2.347 2.125-.297-.844-.993-1.676-2.434-2.023"/></svg>