<svg xmlns="http://www.w3.org/2000/svg" xmlns:xlink="http://www.w3.org/1999/xlink" width="286.616" height="42.014"><defs><clipPath id="d"><path d="M72.25 10.55h141.73v19.927H72.25Zm0 0"/></clipPath><clipPath id="b"><path d="M0 0h12v12H0Zm0 0"/></clipPath><clipPath id="a"><path d="M0 0h12v12H0z"/></clipPath><clipPath id="f"><path d="M72.25 23H77v7.477h-4.75Zm0 0"/></clipPath><clipPath id="g"><path d="M75 23h13v7.477H75Zm0 0"/></clipPath><clipPath id="h"><path d="M86 23h13v7.477H86Zm0 0"/></clipPath><clipPath id="i"><path d="M97.336 23H111v7.477H97.336Zm0 0"/></clipPath><clipPath id="j"><path d="M109 23h5.77v7.477H109Zm0 0"/></clipPath><clipPath id="k"><path d="M72.25 11H77v13h-4.75Zm0 0"/></clipPath><clipPath id="l"><path d="M97.336 11H111v13H97.336Zm0 0"/></clipPath><clipPath id="m"><path d="M109 11h5.77v13H109Zm0 0"/></clipPath><clipPath id="n"><path d="M72.25 10.55H77V13h-4.75Zm0 0"/></clipPath><clipPath id="o"><path d="M75 10.55h13V13H75Zm0 0"/></clipPath><clipPath id="p"><path d="M86 10.55h13V13H86Zm0 0"/></clipPath><clipPath id="q"><path d="M97.336 10.55H111V13H97.336Zm0 0"/></clipPath><clipPath id="r"><path d="M109 10.55h5.77V13H109Zm0 0"/></clipPath><clipPath id="s"><path d="M121.855 23H122v7.477h-.145Zm0 0"/></clipPath><clipPath id="t"><path d="M121.855 23H133v7.477h-11.145Zm0 0"/></clipPath><clipPath id="u"><path d="M131.352 23H145v7.477h-13.648Zm0 0"/></clipPath><clipPath id="v"><path d="M143 23h13v7.477h-13Zm0 0"/></clipPath><clipPath id="w"><path d="M154.027 23h10.352v7.477h-10.352Zm0 0"/></clipPath><clipPath id="x"><path d="M121.855 11H122v13h-.145Zm0 0"/></clipPath><clipPath id="y"><path d="M121.855 11H133v13h-11.145Zm0 0"/></clipPath><clipPath id="z"><path d="M131.352 11H145v13h-13.648Zm0 0"/></clipPath><clipPath id="A"><path d="M154.027 11h10.352v13h-10.352Zm0 0"/></clipPath><clipPath id="B"><path d="M121.855 10.55H122V13h-.145Zm0 0"/></clipPath><clipPath id="C"><path d="M121.855 10.55H133V13h-11.145Zm0 0"/></clipPath><clipPath id="D"><path d="M131.352 10.55H145V13h-13.648Zm0 0"/></clipPath><clipPath id="E"><path d="M143 10.55h13V13h-13Zm0 0"/></clipPath><clipPath id="F"><path d="M154.027 10.55h10.352V13h-10.352Zm0 0"/></clipPath><clipPath id="G"><path d="M171.465 23H179v7.477h-7.535Zm0 0"/></clipPath><clipPath id="H"><path d="M177 23h13v7.477h-13Zm0 0"/></clipPath><clipPath id="I"><path d="M188.043 23H201v7.477h-12.957Zm0 0"/></clipPath><clipPath id="J"><path d="M199.383 23H213v7.477h-13.617Zm0 0"/></clipPath><clipPath id="K"><path d="M211 23h2.984v7.477H211Zm0 0"/></clipPath><clipPath id="L"><path d="M171.465 11H179v13h-7.535Zm0 0"/></clipPath><clipPath id="M"><path d="M188.043 11H201v13h-12.957Zm0 0"/></clipPath><clipPath id="N"><path d="M199.383 11H213v13h-13.617Zm0 0"/></clipPath><clipPath id="O"><path d="M211 11h2.984v13H211Zm0 0"/></clipPath><clipPath id="P"><path d="M171.465 10.55H179V13h-7.535Zm0 0"/></clipPath><clipPath id="Q"><path d="M177 10.55h13V13h-13Zm0 0"/></clipPath><clipPath id="R"><path d="M188.043 10.55H201V13h-12.957Zm0 0"/></clipPath><clipPath id="S"><path d="M199.383 10.55H213V13h-13.617Zm0 0"/></clipPath><clipPath id="T"><path d="M211 10.55h2.984V13H211Zm0 0"/></clipPath><pattern id="e" width="12" height="12" x="0" y="0" patternTransform="matrix(.9449 0 0 -.9449 -71.75 13618.551)" patternUnits="userSpaceOnUse"><use xlink:href="#c"/></pattern><g id="c" clip-path="url(#a)"><g clip-path="url(#b)"><path d="M9.202 14358.558H446v64.029H9.202z"/></g><path fill="#CCC" d="M0 0h6v6H0Zm6 6h6v6H6Zm0 0"/></g></defs><g clip-path="url(#d)"><path fill="url(#e)" d="M72.25 30.477h141.73V10.55H72.25Zm0 0"/></g><g clip-path="url(#f)"><path fill="none" stroke="#000" stroke-miterlimit="10" stroke-width=".797" d="M64.316 31.941h11.336m-11.336-5.668h11.336m-8.504 8.504v-2.836m5.672 0v-5.668m-5.672 0v-2.835"/></g><g clip-path="url(#g)"><path fill="none" stroke="#000" stroke-miterlimit="10" stroke-width=".797" d="M75.652 31.941h11.34m-11.34-5.668h11.34m-8.504 8.504v-2.836m5.668 0v-5.668m-5.668 0v-2.835"/></g><g clip-path="url(#h)"><path fill="none" stroke="#000" stroke-miterlimit="10" stroke-width=".797" d="M86.992 31.941h11.34m-11.34-5.668h11.34m-8.504 8.504v-2.836m5.668 0v-5.668m-5.668 0v-2.835"/></g><g clip-path="url(#i)"><path fill="none" stroke="#000" stroke-miterlimit="10" stroke-width=".797" d="M98.332 31.941h11.336m-11.336-5.668h11.336m-8.504 8.504v-2.836m5.672 0v-5.668m-5.672 0v-2.835"/></g><g clip-path="url(#j)"><path fill="none" stroke="#000" stroke-miterlimit="10" stroke-width=".797" d="M109.668 31.941h11.34m-11.34-5.668h11.34m-8.504 8.504v-2.836m5.668 0v-5.668m-5.668 0v-2.835"/></g><g clip-path="url(#k)"><path fill="none" stroke="#000" stroke-miterlimit="10" stroke-width=".797" d="M64.316 20.602h11.336m-11.336-5.668h11.336m-8.504 8.504v-2.836m5.672 0v-5.668m-5.672 0v-2.836"/></g><path fill="none" stroke="#000" stroke-miterlimit="10" stroke-width=".797" d="M75.652 20.602h11.34m-11.34-5.668h11.34m-8.504 8.504v-2.836m5.668 0v-5.668m-5.668 0v-2.836M86.992 20.602h11.34m-11.34-5.668h11.34m-8.504 8.504v-2.836m5.668 0v-5.668m-5.668 0v-2.836"/><g clip-path="url(#l)"><path fill="none" stroke="#000" stroke-miterlimit="10" stroke-width=".797" d="M98.332 20.602h11.336m-11.336-5.668h11.336m-8.504 8.504v-2.836m5.672 0v-5.668m-5.672 0v-2.836"/></g><g clip-path="url(#m)"><path fill="none" stroke="#000" stroke-miterlimit="10" stroke-width=".797" d="M109.668 20.602h11.34m-11.34-5.668h11.34m-8.504 8.504v-2.836m5.668 0v-5.668m-5.668 0v-2.836"/></g><g clip-path="url(#n)"><path fill="none" stroke="#000" stroke-miterlimit="10" stroke-width=".797" d="M64.316 9.266h11.336M64.316 3.594h11.336m-8.504 8.504V9.266m5.672 0V3.594m-5.672 0V.762"/></g><g clip-path="url(#o)"><path fill="none" stroke="#000" stroke-miterlimit="10" stroke-width=".797" d="M75.652 9.266h11.34m-11.34-5.672h11.34m-8.504 8.504V9.266m5.668 0V3.594m-5.668 0V.762"/></g><g clip-path="url(#p)"><path fill="none" stroke="#000" stroke-miterlimit="10" stroke-width=".797" d="M86.992 9.266h11.34m-11.34-5.672h11.34m-8.504 8.504V9.266m5.668 0V3.594m-5.668 0V.762"/></g><g clip-path="url(#q)"><path fill="none" stroke="#000" stroke-miterlimit="10" stroke-width=".797" d="M98.332 9.266h11.336M98.332 3.594h11.336m-8.504 8.504V9.266m5.672 0V3.594m-5.672 0V.762"/></g><g clip-path="url(#r)"><path fill="none" stroke="#000" stroke-miterlimit="10" stroke-width=".797" d="M109.668 9.266h11.34m-11.34-5.672h11.34m-8.504 8.504V9.266m5.668 0V3.594m-5.668 0V.762"/></g><g clip-path="url(#s)"><path fill="none" stroke="#00F" stroke-miterlimit="10" stroke-width=".797" d="M109.668 31.941h11.34m-11.34-5.668h11.34m-8.504 8.504v-2.836m5.668 0v-5.668m-5.668 0v-2.835"/></g><g clip-path="url(#t)"><path fill="none" stroke="#00F" stroke-miterlimit="10" stroke-width=".797" d="M121.008 31.941h11.34m-11.34-5.668h11.34m-8.504 8.504v-2.836m5.668 0v-5.668m-5.668 0v-2.835"/></g><g clip-path="url(#u)"><path fill="none" stroke="#00F" stroke-miterlimit="10" stroke-width=".797" d="M132.348 31.941h11.336m-11.336-5.668h11.336m-8.504 8.504v-2.836m5.672 0v-5.668m-5.672 0v-2.835"/></g><g clip-path="url(#v)"><path fill="none" stroke="#00F" stroke-miterlimit="10" stroke-width=".797" d="M143.684 31.941h11.34m-11.34-5.668h11.34m-8.504 8.504v-2.836m5.671 0v-5.668m-5.671 0v-2.835"/></g><g clip-path="url(#w)"><path fill="none" stroke="#00F" stroke-miterlimit="10" stroke-width=".797" d="M155.023 31.941h11.34m-11.34-5.668h11.34m-8.504 8.504v-2.836m5.668 0v-5.668m-5.668 0v-2.835"/></g><g clip-path="url(#x)"><path fill="none" stroke="#00F" stroke-miterlimit="10" stroke-width=".797" d="M109.668 20.602h11.34m-11.34-5.668h11.34m-8.504 8.504v-2.836m5.668 0v-5.668m-5.668 0v-2.836"/></g><g clip-path="url(#y)"><path fill="none" stroke="#00F" stroke-miterlimit="10" stroke-width=".797" d="M121.008 20.602h11.34m-11.34-5.668h11.34m-8.504 8.504v-2.836m5.668 0v-5.668m-5.668 0v-2.836"/></g><g clip-path="url(#z)"><path fill="none" stroke="#00F" stroke-miterlimit="10" stroke-width=".797" d="M132.348 20.602h11.336m-11.336-5.668h11.336m-8.504 8.504v-2.836m5.672 0v-5.668m-5.672 0v-2.836"/></g><path fill="none" stroke="#00F" stroke-miterlimit="10" stroke-width=".797" d="M143.684 20.602h11.34m-11.34-5.668h11.34m-8.504 8.504v-2.836m5.671 0v-5.668m-5.671 0v-2.836"/><g clip-path="url(#A)"><path fill="none" stroke="#00F" stroke-miterlimit="10" stroke-width=".797" d="M155.023 20.602h11.34m-11.34-5.668h11.34m-8.504 8.504v-2.836m5.668 0v-5.668m-5.668 0v-2.836"/></g><g clip-path="url(#B)"><path fill="none" stroke="#00F" stroke-miterlimit="10" stroke-width=".797" d="M109.668 9.266h11.34m-11.34-5.672h11.34m-8.504 8.504V9.266m5.668 0V3.594m-5.668 0V.762"/></g><g clip-path="url(#C)"><path fill="none" stroke="#00F" stroke-miterlimit="10" stroke-width=".797" d="M121.008 9.266h11.34m-11.34-5.672h11.34m-8.504 8.504V9.266m5.668 0V3.594m-5.668 0V.762"/></g><g clip-path="url(#D)"><path fill="none" stroke="#00F" stroke-miterlimit="10" stroke-width=".797" d="M132.348 9.266h11.336m-11.336-5.672h11.336m-8.504 8.504V9.266m5.672 0V3.594m-5.672 0V.762"/></g><g clip-path="url(#E)"><path fill="none" stroke="#00F" stroke-miterlimit="10" stroke-width=".797" d="M143.684 9.266h11.34m-11.34-5.672h11.34m-8.504 8.504V9.266m5.671 0V3.594m-5.671 0V.762"/></g><g clip-path="url(#F)"><path fill="none" stroke="#00F" stroke-miterlimit="10" stroke-width=".797" d="M155.023 9.266h11.34m-11.34-5.672h11.34m-8.504 8.504V9.266m5.668 0V3.594m-5.668 0V.762"/></g><g clip-path="url(#G)"><path fill="none" stroke="red" stroke-miterlimit="10" stroke-width=".797" d="M166.363 31.941h11.34m-11.34-5.668h11.34m-8.504 8.504v-2.836m5.668 0v-5.668m-5.668 0v-2.835"/></g><g clip-path="url(#H)"><path fill="none" stroke="red" stroke-miterlimit="10" stroke-width=".797" d="M177.703 31.941h11.336m-11.336-5.668h11.336m-8.504 8.504v-2.836m5.672 0v-5.668m-5.672 0v-2.835"/></g><g clip-path="url(#I)"><path fill="none" stroke="red" stroke-miterlimit="10" stroke-width=".797" d="M189.04 31.941h11.339m-11.34-5.668h11.34m-8.504 8.504v-2.836m5.668 0v-5.668m-5.668 0v-2.835"/></g><g clip-path="url(#J)"><path fill="none" stroke="red" stroke-miterlimit="10" stroke-width=".797" d="M200.379 31.941h11.34m-11.34-5.668h11.34m-8.504 8.504v-2.836m5.668 0v-5.668m-5.668 0v-2.835"/></g><g clip-path="url(#K)"><path fill="none" stroke="red" stroke-miterlimit="10" stroke-width=".797" d="M211.719 31.941h11.336m-11.336-5.668h11.336m-8.504 8.504v-2.836m5.672 0v-5.668m-5.672 0v-2.835"/></g><g clip-path="url(#L)"><path fill="none" stroke="red" stroke-miterlimit="10" stroke-width=".797" d="M166.363 20.602h11.34m-11.34-5.668h11.34m-8.504 8.504v-2.836m5.668 0v-5.668m-5.668 0v-2.836"/></g><path fill="none" stroke="red" stroke-miterlimit="10" stroke-width=".797" d="M177.703 20.602h11.336m-11.336-5.668h11.336m-8.504 8.504v-2.836m5.672 0v-5.668m-5.672 0v-2.836"/><g clip-path="url(#M)"><path fill="none" stroke="red" stroke-miterlimit="10" stroke-width=".797" d="M189.04 20.602h11.339m-11.34-5.668h11.34m-8.504 8.504v-2.836m5.668 0v-5.668m-5.668 0v-2.836"/></g><g clip-path="url(#N)"><path fill="none" stroke="red" stroke-miterlimit="10" stroke-width=".797" d="M200.379 20.602h11.34m-11.34-5.668h11.34m-8.504 8.504v-2.836m5.668 0v-5.668m-5.668 0v-2.836"/></g><g clip-path="url(#O)"><path fill="none" stroke="red" stroke-miterlimit="10" stroke-width=".797" d="M211.719 20.602h11.336m-11.336-5.668h11.336m-8.504 8.504v-2.836m5.672 0v-5.668m-5.672 0v-2.836"/></g><g clip-path="url(#P)"><path fill="none" stroke="red" stroke-miterlimit="10" stroke-width=".797" d="M166.363 9.266h11.34m-11.34-5.672h11.34m-8.504 8.504V9.266m5.668 0V3.594m-5.668 0V.762"/></g><g clip-path="url(#Q)"><path fill="none" stroke="red" stroke-miterlimit="10" stroke-width=".797" d="M177.703 9.266h11.336m-11.336-5.672h11.336m-8.504 8.504V9.266m5.672 0V3.594m-5.672 0V.762"/></g><g clip-path="url(#R)"><path fill="none" stroke="red" stroke-miterlimit="10" stroke-width=".797" d="M189.04 9.266h11.339m-11.34-5.672h11.34m-8.504 8.504V9.266m5.668 0V3.594m-5.668 0V.762"/></g><g clip-path="url(#S)"><path fill="none" stroke="red" stroke-miterlimit="10" stroke-width=".797" d="M200.379 9.266h11.34m-11.34-5.672h11.34m-8.504 8.504V9.266m5.668 0V3.594m-5.668 0V.762"/></g><g clip-path="url(#T)"><path fill="none" stroke="red" stroke-miterlimit="10" stroke-width=".797" d="M211.719 9.266h11.336m-11.336-5.672h11.336m-8.504 8.504V9.266m5.672 0V3.594m-5.672 0V.762"/></g></svg>