<svg xmlns="http://www.w3.org/2000/svg" width="8.642" height="8.66"><defs><clipPath id="a"><path d="M0 0h8v8H0Zm0 0"/></clipPath><clipPath id="b"><path d="M7.457 4.156a3.32 3.32 0 0 0-6.637 0 3.32 3.32 0 0 0 6.637 0m0 0"/></clipPath><radialGradient id="c" cx="6.635" cy="6.635" r="6.635" fx="5.308" fy="7.962" gradientTransform="matrix(1 0 0 -1 -2.496 10.791)" gradientUnits="userSpaceOnUse"><stop offset="0" stop-opacity="0"/><stop offset="0" stop-color="#D7D7FF"/><stop offset=".004" stop-color="#D4D4FF"/><stop offset=".008" stop-color="#D0D0FF"/><stop offset=".012" stop-color="#CDCDFF"/><stop offset=".016" stop-color="#CACAFF"/><stop offset=".02" stop-color="#C6C6FF"/><stop offset=".023" stop-color="#C3C3FF"/><stop offset=".027" stop-color="#C0C0FF"/><stop offset=".031" stop-color="#BDBDFF"/><stop offset=".035" stop-color="#B9B9FF"/><stop offset=".039" stop-color="#B6B6FF"/><stop offset=".043" stop-color="#B3B3FF"/><stop offset=".047" stop-color="#AFAFFF"/><stop offset=".051" stop-color="#ACACFF"/><stop offset=".055" stop-color="#A9A9FF"/><stop offset=".059" stop-color="#A5A5FF"/><stop offset=".063" stop-color="#A2A2FF"/><stop offset=".066" stop-color="#9F9FFF"/><stop offset=".07" stop-color="#9B9BFF"/><stop offset=".074" stop-color="#9898FF"/><stop offset=".078" stop-color="#9595FF"/><stop offset=".082" stop-color="#9191FF"/><stop offset=".086" stop-color="#8E8EFF"/><stop offset=".09" stop-color="#8B8BFF"/><stop offset=".094" stop-color="#8787FF"/><stop offset=".098" stop-color="#8484FF"/><stop offset=".102" stop-color="#8181FF"/><stop offset=".105" stop-color="#7D7DFF"/><stop offset=".109" stop-color="#7A7AFF"/><stop offset=".113" stop-color="#77F"/><stop offset=".117" stop-color="#7373FF"/><stop offset=".121" stop-color="#7070FF"/><stop offset=".125" stop-color="#6D6DFF"/><stop offset=".129" stop-color="#6A6AFF"/><stop offset=".133" stop-color="#66F"/><stop offset=".137" stop-color="#6363FF"/><stop offset=".141" stop-color="#6060FF"/><stop offset=".145" stop-color="#5C5CFF"/><stop offset=".148" stop-color="#5959FF"/><stop offset=".152" stop-color="#5656FF"/><stop offset=".156" stop-color="#5252FF"/><stop offset=".16" stop-color="#4F4FFF"/><stop offset=".164" stop-color="#4C4CFF"/><stop offset=".168" stop-color="#4848FF"/><stop offset=".172" stop-color="#4545FF"/><stop offset=".176" stop-color="#4242FF"/><stop offset=".18" stop-color="#3F3FFE"/><stop offset=".184" stop-color="#3E3EFD"/><stop offset=".188" stop-color="#3C3CFB"/><stop offset=".191" stop-color="#3B3BF9"/><stop offset=".195" stop-color="#3A3AF8"/><stop offset=".199" stop-color="#3838F6"/><stop offset=".203" stop-color="#3737F4"/><stop offset=".207" stop-color="#3535F3"/><stop offset=".211" stop-color="#3434F1"/><stop offset=".215" stop-color="#3333EF"/><stop offset=".219" stop-color="#3131EE"/><stop offset=".223" stop-color="#3030EC"/><stop offset=".227" stop-color="#2F2FEA"/><stop offset=".23" stop-color="#2D2DE9"/><stop offset=".234" stop-color="#2C2CE7"/><stop offset=".238" stop-color="#2A2AE5"/><stop offset=".242" stop-color="#2929E4"/><stop offset=".246" stop-color="#2828E2"/><stop offset=".25" stop-color="#2626E0"/><stop offset=".254" stop-color="#2525DF"/><stop offset=".258" stop-color="#2323DD"/><stop offset=".262" stop-color="#2222DB"/><stop offset=".266" stop-color="#2121DA"/><stop offset=".27" stop-color="#1F1FD8"/><stop offset=".273" stop-color="#1E1ED6"/><stop offset=".277" stop-color="#1D1DD5"/><stop offset=".281" stop-color="#1B1BD3"/><stop offset=".285" stop-color="#1A1AD1"/><stop offset=".289" stop-color="#1818D0"/><stop offset=".293" stop-color="#1717CE"/><stop offset=".297" stop-color="#1616CC"/><stop offset=".301" stop-color="#1414CB"/><stop offset=".305" stop-color="#1313C9"/><stop offset=".309" stop-color="#1212C8"/><stop offset=".313" stop-color="#1010C6"/><stop offset=".316" stop-color="#0F0FC4"/><stop offset=".32" stop-color="#0D0DC3"/><stop offset=".324" stop-color="#0C0CC1"/><stop offset=".328" stop-color="#0B0BBF"/><stop offset=".332" stop-color="#0909BE"/><stop offset=".336" stop-color="#0808BC"/><stop offset=".34" stop-color="#0606BA"/><stop offset=".344" stop-color="#0505B9"/><stop offset=".348" stop-color="#0404B7"/><stop offset=".352" stop-color="#0202B5"/><stop offset=".355" stop-color="#0101B4"/><stop offset=".359" stop-color="#0000B2"/><stop offset=".363" stop-color="#0000B1"/><stop offset=".367" stop-color="#0000AF"/><stop offset=".371" stop-color="#0000AE"/><stop offset=".375" stop-color="#0000AC"/><stop offset=".379" stop-color="#0000AB"/><stop offset=".383" stop-color="#0000A9"/><stop offset=".387" stop-color="#0000A8"/><stop offset=".391" stop-color="#0000A7"/><stop offset=".395" stop-color="#0000A5"/><stop offset=".398" stop-color="#0000A4"/><stop offset=".402" stop-color="#0000A2"/><stop offset=".406" stop-color="#0000A1"/><stop offset=".41" stop-color="#0000A0"/><stop offset=".414" stop-color="#00009E"/><stop offset=".418" stop-color="#00009D"/><stop offset=".422" stop-color="#00009B"/><stop offset=".426" stop-color="#00009A"/><stop offset=".43" stop-color="#000098"/><stop offset=".434" stop-color="#000097"/><stop offset=".438" stop-color="#000096"/><stop offset=".441" stop-color="#000094"/><stop offset=".445" stop-color="#000093"/><stop offset=".449" stop-color="#000091"/><stop offset=".453" stop-color="#000090"/><stop offset=".457" stop-color="#00008E"/><stop offset=".461" stop-color="#00008D"/><stop offset=".465" stop-color="#00008C"/><stop offset=".469" stop-color="#00008A"/><stop offset=".473" stop-color="#000089"/><stop offset=".477" stop-color="#000087"/><stop offset=".48" stop-color="#000086"/><stop offset=".484" stop-color="#000084"/><stop offset=".488" stop-color="#000083"/><stop offset=".492" stop-color="#000082"/><stop offset=".496" stop-color="navy"/><stop offset=".5" stop-color="#00007F"/><stop offset=".504" stop-color="#00007E"/><stop offset=".508" stop-color="#00007D"/><stop offset=".512" stop-color="#00007C"/><stop offset=".516" stop-color="#00007B"/><stop offset=".52" stop-color="#00007A"/><stop offset=".523" stop-color="#000079"/><stop offset=".527" stop-color="#000078"/><stop offset=".531" stop-color="#007"/><stop offset=".535" stop-color="#000076"/><stop offset=".539" stop-color="#000075"/><stop offset=".543" stop-color="#000074"/><stop offset=".547" stop-color="#000073"/><stop offset=".551" stop-color="#000072"/><stop offset=".555" stop-color="#000071"/><stop offset=".559" stop-color="#000070"/><stop offset=".563" stop-color="#00006F"/><stop offset=".566" stop-color="#00006E"/><stop offset=".57" stop-color="#00006D"/><stop offset=".574" stop-color="#00006C"/><stop offset=".578" stop-color="#00006B"/><stop offset=".582" stop-color="#00006A"/><stop offset=".586" stop-color="#000069"/><stop offset=".59" stop-color="#000068"/><stop offset=".594" stop-color="#000067"/><stop offset=".598" stop-color="#006"/><stop offset=".602" stop-color="#000065"/><stop offset=".605" stop-color="#000064"/><stop offset=".609" stop-color="#000063"/><stop offset=".613" stop-color="#000062"/><stop offset=".617" stop-color="#000061"/><stop offset=".621" stop-color="#000060"/><stop offset=".625" stop-color="#00005F"/><stop offset=".629" stop-color="#00005E"/><stop offset=".633" stop-color="#00005D"/><stop offset=".637" stop-color="#00005C"/><stop offset=".641" stop-color="#00005B"/><stop offset=".645" stop-color="#00005A"/><stop offset=".648" stop-color="#000059"/><stop offset=".652" stop-color="#000058"/><stop offset=".656" stop-color="#000057"/><stop offset=".66" stop-color="#000056"/><stop offset=".664" stop-color="#005"/><stop offset=".668" stop-color="#000054"/><stop offset=".672" stop-color="#000053"/><stop offset=".676" stop-color="#000052"/><stop offset=".68" stop-color="#000051"/><stop offset=".684" stop-color="#000050"/><stop offset=".688" stop-color="#00004F"/><stop offset=".691" stop-color="#00004E"/><stop offset=".695" stop-color="#00004D"/><stop offset=".699" stop-color="#00004C"/><stop offset=".703" stop-color="#00004B"/><stop offset=".707" stop-color="#00004A"/><stop offset=".711" stop-color="#000049"/><stop offset=".715" stop-color="#000048"/><stop offset=".719" stop-color="#000047"/><stop offset=".723" stop-color="#000046"/><stop offset=".727" stop-color="#000045"/><stop offset=".73" stop-color="#004"/><stop offset=".734" stop-color="#000043"/><stop offset=".738" stop-color="#000042"/><stop offset=".742" stop-color="#000041"/><stop offset=".746" stop-color="#000040"/><stop offset=".75" stop-color="#00003F"/><stop offset=".754" stop-color="#00003E"/><stop offset=".758" stop-color="#00003D"/><stop offset=".762" stop-color="#00003C"/><stop offset=".766" stop-color="#00003B"/><stop offset=".77" stop-color="#00003A"/><stop offset=".773" stop-color="#000039"/><stop offset=".777" stop-color="#000038"/><stop offset=".781" stop-color="#000037"/><stop offset=".785" stop-color="#000036"/><stop offset=".789" stop-color="#000035"/><stop offset=".793" stop-color="#000034"/><stop offset=".797" stop-color="#003"/><stop offset=".801" stop-color="#000032"/><stop offset=".805" stop-color="#000031"/><stop offset=".809" stop-color="#000030"/><stop offset=".813" stop-color="#00002F"/><stop offset=".816" stop-color="#00002E"/><stop offset=".82" stop-color="#00002D"/><stop offset=".824" stop-color="#00002C"/><stop offset=".828" stop-color="#00002B"/><stop offset=".832" stop-color="#00002A"/><stop offset=".836" stop-color="#000029"/><stop offset=".84" stop-color="#000028"/><stop offset=".844" stop-color="#000027"/><stop offset=".848" stop-color="#000026"/><stop offset=".852" stop-color="#000025"/><stop offset=".855" stop-color="#000024"/><stop offset=".859" stop-color="#000023"/><stop offset=".863" stop-color="#002"/><stop offset=".867" stop-color="#000021"/><stop offset=".871" stop-color="#000020"/><stop offset=".875" stop-color="#00001F"/><stop offset=".879" stop-color="#00001E"/><stop offset=".883" stop-color="#00001D"/><stop offset=".887" stop-color="#00001C"/><stop offset=".891" stop-color="#00001B"/><stop offset=".895" stop-color="#00001A"/><stop offset=".898" stop-color="#000019"/><stop offset=".902" stop-color="#000018"/><stop offset=".906" stop-color="#000017"/><stop offset=".91" stop-color="#000016"/><stop offset=".914" stop-color="#000015"/><stop offset=".918" stop-color="#000014"/><stop offset=".922" stop-color="#000013"/><stop offset=".926" stop-color="#000012"/><stop offset=".93" stop-color="#001"/><stop offset=".934" stop-color="#000010"/><stop offset=".938" stop-color="#00000F"/><stop offset=".941" stop-color="#00000E"/><stop offset=".945" stop-color="#00000D"/><stop offset=".949" stop-color="#00000C"/><stop offset=".953" stop-color="#00000B"/><stop offset=".957" stop-color="#00000A"/><stop offset=".961" stop-color="#000009"/><stop offset=".965" stop-color="#000008"/><stop offset=".969" stop-color="#000007"/><stop offset=".973" stop-color="#000006"/><stop offset=".977" stop-color="#000005"/><stop offset=".98" stop-color="#000004"/><stop offset=".984" stop-color="#000003"/><stop offset=".988" stop-color="#000002"/><stop offset=".992" stop-color="#000001"/><stop offset=".996"/><stop offset="1"/><stop offset="1" stop-opacity="0"/></radialGradient></defs><g clip-path="url(#a)"><g clip-path="url(#b)"><path fill="url(#c)" d="m2.843 2.836-.007.016-.004.003-.012.004h-.007l-.016-.007-.004-.008v-.02l.004-.008.015-.007h.008l.012.003.004.004.004.008Zm0 0-.003-.012-.004-.008-.004-.003-.012-.004h-.007l-.016.007-.004.008v.02l.004.008.015.007h.008l.012-.004.004-.003Zm.032.004-.004.015-.008.016-.015.012-.016.008h-.02l-.015-.008-.016-.012-.008-.016-.003-.015.003-.02.008-.015.016-.012.015-.004h.02l.016.004.015.012.008.015Zm0 0-.004-.02-.008-.015-.015-.012-.016-.004h-.02l-.015.004-.016.012-.008.015-.003.02.003.015.008.016.016.012.015.008h.02l.016-.008.015-.012.008-.016Zm.031.004-.004.027-.015.024-.02.015-.027.012h-.027l-.024-.012-.02-.015-.015-.024-.004-.027.004-.028.016-.023.02-.016.022-.007h.028l.027.007.02.016.015.023Zm0 0-.004-.028-.015-.023-.02-.016-.027-.007h-.027l-.024.007-.02.016-.015.023-.004.028.004.027.016.024.02.015.022.012h.028l.027-.012.02-.015.015-.024Zm.031.008-.007.035-.016.031-.031.02-.031.015h-.036l-.035-.015-.027-.02-.02-.031-.004-.035.004-.04.02-.03.027-.02.035-.016h.036l.03.016.032.02.016.03Zm0 0-.007-.04-.016-.03-.031-.02-.031-.016h-.036l-.035.016-.027.02-.02.03-.004.04.004.035.02.031.027.02.035.015h.036l.03-.015.032-.02.016-.031Zm.032.003-.008.043-.023.04-.036.03-.043.016h-.043l-.043-.015-.035-.031-.023-.04-.008-.043.008-.046.023-.036.035-.03.043-.016h.043l.043.015.035.031.024.036Zm0 0L2.96 2.81l-.023-.036-.036-.03-.043-.016h-.043l-.043.015-.035.031-.023.036-.008.046.008.043.023.04.035.03.043.016h.043l.043-.015.035-.031.024-.04ZM3 2.86l-.012.055-.027.047-.04.035-.05.016h-.055l-.05-.016-.043-.035-.028-.047-.007-.055.007-.05.028-.047.043-.035.05-.02h.055l.05.02.04.035.027.047Zm0 0-.012-.05-.027-.047-.04-.035-.05-.02h-.055l-.05.02-.043.035-.028.047-.007.05.007.055.028.047.043.035.05.016h.055l.05-.016.04-.035.027-.047Zm.031.004-.011.063-.032.054-.05.043-.06.02h-.062l-.058-.02-.047-.043-.031-.054-.012-.063.012-.058.03-.055.048-.043.058-.02h.063l.059.02.05.043.032.055Zm0 0-.011-.058-.032-.055-.05-.043-.06-.02h-.062l-.058.02-.047.043-.031.055-.012.058.012.063.03.054.048.043.058.02h.063l.059-.02.05-.043.032-.054Zm.031.008-.015.07-.035.063-.055.047-.066.023h-.075l-.066-.023-.055-.047-.035-.063-.015-.07.015-.07.035-.063.055-.047.066-.023h.075l.066.023.055.047.035.063Zm0 0-.015-.07-.035-.063-.055-.047-.066-.023h-.075l-.066.023-.055.047-.035.063-.015.07.015.07.035.063.055.047.066.023h.075l.066-.023.055-.047.035-.063Zm.032.004-.016.082-.039.07-.062.051-.079.027h-.082l-.074-.027-.062-.05-.04-.071-.015-.082.016-.078.039-.07.062-.055.074-.027h.082l.079.027.062.055.04.07Zm0 0-.016-.078-.039-.07-.062-.055-.079-.027h-.082l-.074.027-.062.055-.04.07-.015.078.016.082.039.07.062.051.074.027h.082l.079-.027.062-.05.04-.071Zm.031.004-.016.09-.046.078-.07.058-.083.032h-.09l-.086-.032-.07-.058-.043-.078-.016-.09.016-.086.043-.078.07-.059.086-.031h.09l.082.031.07.059.047.078Zm0 0-.016-.086-.046-.078-.07-.059-.083-.031h-.09l-.086.031-.07.059-.043.078-.016.086.016.09.043.078.07.058.086.032h.09l.082-.032.07-.058.047-.078Zm.027.008-.015.097-.051.086-.074.063-.094.035H2.82l-.093-.035-.075-.063-.05-.086-.016-.097.016-.098.05-.086.075-.062.093-.036h.098l.094.036.074.062.05.086Zm0 0-.015-.098-.051-.086-.074-.062-.094-.036H2.82l-.093.036-.075.062-.05.086-.016.098.016.097.05.086.075.063.093.035h.098l.094-.035.074-.063.05-.086Zm.032.004-.016.105-.055.094-.082.07-.101.04h-.11l-.101-.04-.082-.07-.055-.094-.02-.105.02-.106.055-.094.082-.07.101-.035h.11l.101.035.082.07.055.094Zm0 0-.016-.106-.055-.094-.082-.07-.101-.035h-.11l-.101.035-.082.07-.055.094-.02.106.02.105.055.094.082.07.101.04h.11l.101-.04.082-.07.055-.094Zm.03.004-.019.117-.058.101-.09.075-.11.039H2.82l-.11-.04-.089-.074-.058-.101-.02-.117.02-.114.058-.101.09-.075.11-.039h.116l.11.04.09.074.058.101Zm0 0-.019-.114-.058-.101-.09-.075-.11-.039H2.82l-.11.04-.089.074-.058.101-.02.114.02.117.058.101.09.075.11.039h.116l.11-.04.09-.074.058-.101Zm.032.007-.02.125-.062.106-.098.082-.117.043H2.82l-.117-.043-.098-.082-.062-.106-.02-.125.02-.125.062-.109.098-.082.117-.043h.13l.116.043.098.082.063.11Zm0 0-.02-.125-.062-.109-.098-.082-.117-.043H2.82l-.117.043-.098.082-.062.11-.02.124.02.125.062.106.098.082.117.043h.13l.116-.043.098-.082.063-.106Zm.031.004-.023.133-.066.117-.102.086-.129.047h-.133l-.129-.047-.101-.086-.07-.117-.024-.133.023-.133.07-.117.102-.086.13-.047h.132l.129.047.102.086.066.117Zm0 0-.023-.133-.066-.117-.102-.086-.129-.047h-.133l-.129.047-.101.086-.07.117-.024.133.023.133.07.117.102.086.13.047h.132l.129-.047.102-.086.066-.117Zm.032.004-.024.145-.074.125-.11.09-.132.05h-.145l-.136-.05-.11-.09-.074-.125-.024-.145.024-.14.074-.125.11-.094.136-.047h.145l.133.047.109.094.074.125Zm0 0-.024-.14-.074-.125-.11-.094-.132-.047h-.145l-.136.047-.11.094-.074.125-.024.14.024.145.074.125.11.09.136.05h.145l.133-.05.109-.09.074-.125Zm.03.008-.026.148-.075.133-.117.098-.144.055h-.153l-.144-.055-.118-.098-.078-.133-.023-.148.023-.152.079-.133.117-.098.144-.05h.153l.144.05.117.098.075.133Zm0 0-.026-.152-.075-.133-.117-.098-.144-.05h-.153l-.144.05-.118.098-.078.133-.023.152.023.148.079.133.117.098.144.055h.153l.144-.055.117-.098.075-.133Zm.032.004-.027.16-.082.14-.125.106-.149.055h-.164l-.152-.055-.125-.105-.078-.141-.031-.16.03-.16.079-.14.125-.102.152-.06h.164l.149.06.125.101.082.14Zm0 0-.027-.16-.082-.14-.125-.102-.149-.06h-.164l-.152.06-.125.101-.078.14-.031.16.03.161.079.14.125.106.152.055h.164l.149-.055.125-.105.082-.141Zm.031.004-.027.172-.086.144-.133.113-.16.06h-.172l-.16-.06-.129-.113-.086-.144-.031-.172.031-.168.086-.149.13-.109.16-.059h.171l.16.059.133.11.086.148Zm0 0-.027-.168-.086-.149-.133-.109-.16-.059h-.172l-.16.059-.129.11-.086.148-.031.168.031.172.086.144.13.113.16.06h.171l.16-.06.133-.113.086-.144Zm.032.008-.032.175-.09.157-.136.117-.172.058h-.18l-.168-.058-.136-.117-.09-.157-.032-.175.032-.18.09-.156.136-.114.168-.062h.18l.172.062.136.114.09.156Zm0 0-.032-.18-.09-.156-.136-.114-.172-.062h-.18l-.168.062-.136.114-.09.156-.032.18.032.175.09.157.136.117.168.058h.18l.172-.058.136-.117.09-.157Zm.03.003-.03.188-.098.164-.145.121-.175.063h-.188l-.18-.063-.144-.12-.094-.165-.035-.187.035-.188.094-.16.144-.125.18-.063h.188l.175.063.145.125.098.16Zm0 0-.03-.187-.098-.16-.145-.125-.175-.063h-.188l-.18.063-.144.125-.094.16-.035.188.035.187.094.164.144.121.18.063h.188l.175-.063.145-.12.098-.165Zm.032.004-.035.196-.098.172-.152.128-.188.067h-.195l-.187-.066-.153-.13-.097-.171-.036-.196.036-.195.097-.168.153-.129.187-.066h.195l.188.066.152.13.098.167Zm0 0-.035-.195-.098-.168-.152-.129-.188-.066h-.195l-.187.066-.153.13-.097.167-.036.195.036.196.097.172.153.128.187.067h.195l.188-.066.152-.13.098-.171Zm.031.008-.035.203-.105.18-.157.133-.195.07h-.207l-.195-.07-.156-.133-.106-.18-.035-.203.035-.203.106-.18.156-.132.195-.075h.207l.195.075.157.132.105.18Zm0 0-.035-.203-.105-.18-.157-.132-.195-.075h-.207l-.195.075-.156.132-.106.18-.035.203.035.203.106.18.156.133.195.07h.207l.195-.07.157-.133.105-.18Zm.032.004-.04.215-.105.184-.168.14-.203.074h-.215l-.203-.074-.164-.14-.11-.184-.038-.215.039-.21.109-.188.164-.14.203-.075h.215l.203.074.168.14.106.188Zm0 0-.04-.21-.105-.188-.168-.14-.203-.075h-.215l-.203.074-.164.14-.11.188-.038.211.039.215.109.184.164.14.203.074h.215l.203-.074.168-.14.106-.184Zm.03.004-.038.223-.114.195-.171.145-.211.078h-.227l-.21-.078-.173-.145-.113-.195-.039-.223.039-.219.113-.195.172-.145.211-.078h.227l.21.078.172.145.114.195Zm0 0-.038-.219-.114-.195-.171-.145-.211-.078h-.227l-.21.078-.173.145-.113.195-.039.219.039.223.113.195.172.145.211.078h.227l.21-.078.172-.145.114-.195Zm.032.008-.039.23-.117.203-.18.149-.223.082h-.234l-.219-.082-.18-.149-.116-.203-.04-.23.04-.23.117-.204.18-.152.218-.078h.235l.222.078.18.152.117.203Zm0 0-.039-.23-.117-.204-.18-.152-.223-.078h-.234l-.219.078-.18.152-.116.203-.04.23.04.231.117.203.18.149.218.082h.235l.222-.082.18-.149.117-.203Zm.031.004-.043.238-.12.211-.188.156-.227.082h-.242l-.23-.082-.188-.156-.121-.211-.04-.238.04-.239.121-.21.188-.157.23-.082h.242l.227.082.187.157.121.21Zm0 0L3.61 2.73l-.12-.21-.188-.157-.227-.082h-.242l-.23.082-.188.157-.121.21-.04.239.04.238.121.211.188.156.23.082h.242l.227-.082.187-.156.121-.211Zm.032.004-.043.25-.13.218-.19.16-.239.087h-.25l-.238-.086-.192-.16-.129-.22-.043-.25.043-.245.13-.22.19-.163.239-.086h.25l.238.086.192.164.129.219Zm0 0-.043-.246-.13-.22-.19-.163-.239-.086h-.25l-.238.086-.192.164-.129.219-.043.246.043.25.13.218.19.16.239.087h.25l.238-.086.192-.16.129-.22Zm.03.007-.046.254-.129.227-.2.168-.245.09h-.262l-.246-.09-.2-.168-.128-.227-.047-.254.047-.257.129-.227.199-.168.246-.09h.262l.246.09.2.168.128.227Zm0 0-.046-.257-.129-.227-.2-.168-.245-.09h-.262l-.246.09-.2.168-.128.227-.047.257.047.254.129.227.199.168.246.09h.262l.246-.09.2-.168.128-.227Zm.032.004L3.7 3.25l-.136.234-.208.172-.253.094h-.27l-.254-.094-.207-.172-.133-.234-.047-.266.047-.265.133-.235.207-.171.254-.094h.27l.253.094.208.171.136.235Zm0 0L3.7 2.72l-.136-.235-.208-.171-.253-.094h-.27l-.254.094-.207.171-.133.235-.047.265.047.266.133.234.207.172.254.094h.27l.253-.094.208-.172.136-.234Zm.031.004-.05.278-.137.242-.215.176-.262.097h-.281l-.262-.097-.215-.176-.136-.242-.051-.278.05-.273.137-.242.215-.18.262-.094h.281l.262.094.215.18.137.242Zm0 0-.05-.273-.137-.242-.215-.18-.262-.094h-.281l-.262.094-.215.18-.136.242-.051.273.05.278.137.242.215.176.262.097h.281l.262-.097.215-.176.137-.242Zm.032.008-.051.281-.145.25-.218.188-.274.098h-.289l-.27-.098-.218-.188-.145-.25-.05-.28.05-.286.145-.25.219-.184.269-.097h.29l.273.097.218.184.145.25Zm0 0-.051-.285-.145-.25-.218-.184-.274-.097h-.289l-.27.097-.218.184-.145.25-.05.285.05.281.145.25.219.188.269.098h.29l.273-.098.218-.188.145-.25Zm.03.004-.054.293-.148.258-.227.191-.277.102h-.297l-.281-.102-.227-.191-.148-.258L2.129 3l.05-.293.15-.258.226-.191.28-.102h.298l.277.102.227.191.148.258Zm0 0-.054-.293-.148-.258-.227-.191-.277-.102h-.297l-.281.102-.227.191-.148.258L2.129 3l.05.293.15.258.226.191.28.102h.298l.277-.102.227-.191.148-.258Zm.032.004-.055.3-.152.266-.234.2-.29.101h-.304l-.29-.101-.233-.2-.153-.265-.055-.301.055-.3.152-.267.235-.195.289-.105h.305l.289.105.234.196.152.265Zm0 0-.055-.3-.152-.267-.234-.195-.29-.105h-.304l-.29.105-.233.196-.153.265-.055.3.055.302.152.265.235.2.289.101h.305l.289-.101.234-.2.152-.265Zm.031.008-.054.308-.16.274-.243.203-.293.105h-.316l-.297-.105-.242-.203-.156-.274-.055-.308.055-.313.156-.273.242-.2.297-.109h.316l.293.11.243.199.16.273Zm0 0-.054-.313-.16-.273-.243-.2-.293-.109h-.316l-.297.11-.242.199-.156.273-.055.313.055.308.156.274.242.203.297.105h.316l.293-.105.243-.203.16-.274Zm.032.004-.059.32-.16.281-.25.207-.305.11h-.324l-.305-.11-.246-.207-.164-.281-.055-.32.055-.32.164-.282.246-.207.305-.11h.324l.305.11.25.207.16.281Zm0 0-.059-.32-.16-.282-.25-.207-.305-.11h-.324l-.305.11-.246.207-.164.281-.055.32.055.32.164.282.246.207.305.11h.324l.305-.11.25-.207.16-.281Zm.027.004-.055.328-.168.289-.254.215-.312.113h-.336l-.313-.113-.253-.215-.168-.29-.059-.327.059-.329.168-.289.253-.21.313-.114h.336l.312.113.254.211.168.29Zm0 0-.055-.329-.168-.289-.254-.21-.312-.114h-.336l-.313.113-.253.211-.168.29-.059.328.059.328.168.289.253.215.313.113h.336l.312-.113.254-.215.168-.29Zm.031.007-.058.336-.172.297-.262.219-.32.117h-.34l-.324-.117-.262-.219-.172-.297-.059-.336.059-.34.172-.292.262-.223.324-.117h.34l.32.117.262.223.172.293Zm0 0-.058-.34-.172-.292-.262-.223-.32-.117h-.34l-.324.117-.262.223-.172.293-.059.34.059.335.172.297.262.219.324.117h.34l.32-.117.262-.219.172-.297Zm.031.004-.058.344-.176.305-.27.226-.328.121H2.84l-.332-.12-.27-.227-.175-.305-.06-.344.06-.347.175-.301.27-.227.332-.12h.351l.329.12.27.227.175.3Zm0 0-.058-.347-.176-.301-.27-.227-.328-.12H2.84l-.332.12-.27.227-.175.3-.06.348.06.344.175.305.27.226.332.121h.351l.329-.12.27-.227.175-.305Zm.032.004-.063.356-.18.312-.273.23-.34.126h-.36L2.5 3.934l-.273-.23-.18-.313-.063-.356.063-.351.18-.313.273-.234.34-.121h.36l.34.12.272.235.18.313Zm0 0-.063-.351-.18-.313-.273-.234-.34-.121h-.36l-.339.12-.273.235-.18.313-.063.351.063.356.18.312.273.23.34.126h.36l.34-.125.272-.23.18-.313Zm.03.008-.062.363-.183.317-.285.238-.344.129H2.84l-.348-.13-.281-.237-.184-.317-.066-.363.066-.363.184-.32.281-.239.348-.125h.37l.345.125.285.238.183.32Zm0 0-.062-.363-.183-.32-.285-.239-.344-.125H2.84l-.348.125-.281.238-.184.32-.066.364.066.363.184.317.281.238.348.129h.37l.345-.13.285-.237.183-.317Zm.032.004-.066.371-.188.328-.289.242-.355.13h-.38l-.355-.13-.289-.242-.187-.328-.067-.371.067-.371.187-.328.29-.243.355-.132h.379l.355.132.29.243.187.328Zm0 0-.066-.371-.188-.328-.289-.243-.355-.132h-.38l-.355.132-.289.243-.187.328-.067.37.067.372.187.328.29.242.355.13h.379l.355-.13.29-.242.187-.328Zm.031.004-.066.383-.191.336-.297.246-.367.132H2.84l-.363-.132-.297-.246-.192-.336-.066-.383.066-.38.192-.335.297-.25.363-.133h.387l.367.133.297.25.191.336Zm0 0-.066-.38-.191-.335-.297-.25-.367-.133H2.84l-.363.133-.297.25-.192.336-.066.379.066.383.192.336.297.246.363.132h.387l.367-.132.297-.246.191-.336Zm.032.008-.067.386-.199.344-.305.254-.37.137h-.395l-.375-.137-.301-.254-.2-.344-.07-.386.07-.391.2-.344.3-.254.376-.136h.394l.371.136.305.254.2.344Zm0 0-.067-.391-.199-.344-.305-.254-.37-.136h-.395l-.375.136-.301.254-.2.344-.07.39.07.387.2.344.3.254.376.137h.394l.371-.137.305-.254.2-.344Zm.03.003-.07.399-.202.352-.31.257-.382.14h-.402l-.383-.14-.309-.258-.203-.351-.07-.398.07-.399.203-.352.309-.261.383-.137h.402l.383.137.309.261.203.352Zm0 0-.07-.398-.202-.352-.31-.261-.382-.137h-.402l-.383.137-.309.261-.203.352-.07.398.07.399.203.352.309.257.383.14h.402l.383-.14.309-.258.203-.351Zm.032.004-.07.41-.207.356-.317.27-.39.14h-.414l-.39-.14-.317-.27-.207-.355-.07-.41.07-.407.207-.36.316-.265.39-.14h.415l.39.14.317.266.207.36Zm0 0-.07-.406-.207-.36-.317-.265-.39-.14h-.414l-.39.14-.317.266-.207.36-.07.405.07.41.207.356.316.27.39.14h.415l.39-.14.317-.27.207-.355Zm.031.008-.074.414-.21.367-.325.274-.398.144h-.422l-.399-.144-.324-.274-.21-.367-.075-.414.074-.418.211-.367.324-.273.399-.145h.422l.398.145.324.273.211.367Zm0 0L4.2 2.656l-.21-.367-.325-.273-.398-.145h-.422l-.399.145-.324.273-.21.367-.075.418.074.414.211.367.324.274.399.144h.422l.398-.144.324-.274.211-.367Zm.032.004-.075.426-.214.375-.332.277-.407.149h-.433l-.406-.149-.329-.277-.218-.375-.075-.426.075-.426.218-.375L2.438 2l.406-.148h.433L3.684 2l.332.277.214.375Zm0 0-.075-.426-.214-.375L3.684 2l-.407-.148h-.433L2.438 2l-.329.277-.218.375-.075.426.075.426.218.375.329.277.406.149h.433l.407-.149.332-.277.214-.375Zm.03.004-.077.434-.219.382-.34.286-.414.148h-.441l-.414-.148-.336-.286-.223-.382-.074-.434.074-.434.223-.382.336-.282.414-.152h.441l.414.152.34.282.219.382Zm0 0-.077-.434-.219-.382-.34-.282-.414-.152h-.441l-.414.152-.336.282-.223.382-.074.434.074.434.223.382.336.286.414.148h.441l.414-.148.34-.286.219-.382Zm.032.008-.078.441-.226.39-.344.29-.422.152h-.45l-.425-.152-.344-.29-.226-.39-.079-.441.079-.445.226-.391.344-.29.426-.151h.449l.422.152.344.289.226.39Zm0 0-.078-.445-.226-.391-.344-.29-.422-.151h-.45l-.425.152-.344.289-.226.39-.079.446.079.441.226.39.344.29.426.152h.449l.422-.152.344-.29.226-.39Zm.031.004-.078.453-.23.394-.352.297-.433.157h-.457l-.434-.157-.352-.297-.226-.394-.082-.453.082-.453.226-.399.352-.293.434-.156h.457l.433.156.352.293.23.399Zm0 0L4.32 2.64l-.23-.399-.352-.293-.433-.156h-.457l-.434.156-.352.293-.226.399-.082.453.082.453.226.394.352.297.434.157h.457l.433-.157.352-.297.23-.394Zm.032.004-.082.46-.235.407-.36.3-.437.16h-.468l-.442-.16-.355-.3-.235-.406-.082-.461.082-.461.235-.407.355-.3.442-.16h.468l.438.16.36.3.234.407Zm0 0-.082-.461-.235-.407-.36-.3-.437-.16h-.468l-.442.16-.355.3-.235.407-.082.46.082.462.235.406.355.3.442.16h.468l.438-.16.36-.3.234-.406Zm.03.007-.081.47-.238.413-.368.305-.449.164h-.476l-.45-.164-.363-.305-.238-.414-.082-.469.082-.472.238-.414.363-.305.45-.164h.476l.45.164.367.305.238.414Zm0 0-.081-.472-.238-.414-.368-.305-.449-.164h-.476l-.45.164-.363.305-.238.414-.082.472.082.47.238.413.363.305.45.164h.476l.45-.164.367-.305.238-.414Zm.032.004-.086.477-.242.422-.371.312-.457.168h-.488L2.39 4.32l-.371-.312-.243-.422-.086-.477.086-.48.243-.418.37-.313.458-.168h.488l.457.168.371.313.242.418Zm0 0-.086-.48-.242-.418-.371-.313-.457-.168h-.488l-.457.168-.371.313-.243.418-.086.48.086.477.243.422.37.312.458.168h.488l.457-.168.371-.312.242-.422Zm.031.004-.085.489-.25.43-.38.316-.464.172h-.492l-.47-.172-.378-.317-.246-.43-.086-.488.086-.488.246-.426.379-.32.469-.168h.492l.465.168.378.32.25.426Zm0 0-.085-.488-.25-.426-.38-.32-.464-.168h-.492l-.47.168-.378.32-.246.426-.086.488.086.489.246.43.379.316.469.172h.492l.465-.172.378-.317.25-.43Zm.032.008-.09.496-.25.434-.387.324-.473.172h-.503l-.477-.172-.383-.324-.254-.434-.086-.496.086-.5.254-.433.383-.325.477-.172h.503l.473.172.387.325.25.433Zm0 0-.09-.5-.25-.433-.387-.325-.473-.172h-.503l-.477.172-.383.325-.254.433-.086.5.086.496.254.434.383.324.477.172h.503l.473-.172.387-.324.25-.434Zm.03.004-.089.504-.258.445-.39.328-.485.176h-.511l-.485-.176-.39-.328-.258-.445-.09-.504.09-.508.258-.441.39-.332.485-.176h.511l.485.176.39.332.258.441Zm0 0-.089-.508-.258-.441-.39-.332-.485-.176h-.511l-.485.176-.39.332-.258.441-.09.508.09.504.258.445.39.328.485.176h.511l.485-.176.39-.328.258-.445Zm.032.004-.094.516-.257.453-.403.332-.488.18h-.523l-.493-.18-.398-.332-.262-.453-.09-.516.09-.512.262-.453.398-.336.493-.18h.523l.488.18.403.336.257.453Zm0 0-.094-.512-.257-.453-.403-.336-.488-.18h-.523l-.493.18-.398.336-.262.453-.09.512.09.516.262.453.398.332.493.18h.523l.488-.18.403-.332.257-.453Zm.031.004-.093.523-.266.461-.406.344-.5.18h-.531l-.5-.18-.407-.344-.265-.46-.09-.524.09-.52.265-.46.407-.344.5-.18h.53l.5.18.407.343.266.461Zm0 0-.093-.52-.266-.46-.406-.344-.5-.18h-.531l-.5.18-.407.343-.265.461-.09.52.09.523.265.461.407.344.5.18h.53l.5-.18.407-.344.266-.46Zm.032.008-.094.53-.274.47-.41.347-.507.184h-.543l-.508-.184-.41-.347-.274-.47-.094-.53.094-.532.274-.468.41-.348.508-.184h.543l.507.184.41.348.274.468Zm0 0-.094-.532-.274-.468-.41-.348-.507-.184h-.543l-.508.184-.41.348-.274.468-.094.532.094.53.274.47.41.347.508.184h.543l.507-.184.41-.347.274-.47Zm.03.004-.097.543-.273.472-.422.356-.516.187h-.547l-.52-.187-.417-.356-.273-.473-.098-.542.098-.54.273-.476.418-.352.52-.187h.546l.516.187.422.352.273.476Zm0 0-.097-.54-.273-.476-.422-.352-.516-.187h-.547l-.52.187-.417.352-.273.476-.098.54.098.543.273.472.418.356.52.187h.546l.516-.187.422-.356.273-.473Zm.032.003-.097.551-.282.485-.426.359-.523.191h-.559l-.527-.191-.426-.36-.277-.484-.098-.55.098-.547.277-.485.426-.36.527-.19h.56l.523.19.425.36.282.485Zm0 0-.097-.546-.282-.485-.426-.36-.523-.19h-.559l-.527.19-.426.36-.277.485-.098.546.098.551.277.485.426.359.527.191h.56l.523-.191.425-.36.282-.484Zm.031.008-.101.559-.281.488-.438.367-.531.192h-.567L2.32 4.57l-.433-.367-.282-.488-.101-.559.101-.558.282-.493.433-.363.535-.195h.567l.531.195.438.363.28.493Zm0 0-.101-.558-.281-.493-.438-.363-.531-.195h-.567l-.535.195-.433.363-.282.493-.101.558.101.559.282.488.433.367.535.192h.567l.531-.192.438-.367.28-.488Zm.028.004-.098.567-.289.5-.441.37-.54.196h-.578l-.542-.195-.438-.371-.29-.5-.1-.567.1-.566.29-.5.438-.371.542-.196h.579l.539.196.441.37.29.5Zm0 0-.098-.566-.289-.5-.441-.371-.54-.196h-.578l-.542.196-.438.37-.29.5-.1.567.1.567.29.5.438.37.542.196h.579l.539-.195.441-.371.29-.5Zm.031.004-.102.578-.289.508-.449.375-.55.2h-.587l-.546-.2-.45-.375-.293-.508-.101-.578.101-.574.293-.508.45-.375.546-.2h.586l.551.2.45.375.288.508Zm0 0L4.73 2.59l-.289-.508-.449-.375-.55-.2h-.587l-.546.2-.45.375-.293.508-.101.574.101.578.293.508.45.375.546.2h.586l.551-.2.45-.375.288-.508Zm.031.008-.101.586-.297.512-.457.382-.555.203h-.598l-.554-.203-.457-.382-.297-.512-.102-.586.102-.586.297-.516.457-.379.554-.203h.598l.555.203.457.38.297.515Zm0 0-.101-.586-.297-.516-.457-.379-.555-.203h-.598l-.554.203-.457.38-.297.515-.102.586.102.586.297.512.457.382.554.203h.598l.555-.203.457-.382.297-.512Zm.032.004-.102.594-.305.523-.46.387-.567.207h-.602l-.566-.207-.465-.387-.3-.523-.106-.594.105-.594.301-.523.465-.387.566-.207h.602l.566.207.461.387.305.523Zm0 0-.102-.594-.305-.523-.46-.387-.567-.207h-.602l-.566.207-.465.387-.3.523-.106.594.105.594.301.523.465.387.566.207h.602l.566-.207.461-.387.305-.523Zm.03.004-.105.605-.304.527-.47.395-.577.211h-.61l-.574-.211-.473-.394-.304-.528-.106-.605.106-.602.305-.531.472-.39.574-.212h.61l.578.211.469.39.304.532Zm0 0-.105-.602-.304-.531-.47-.39-.577-.212h-.61l-.574.211-.473.39-.304.532-.106.602.106.605.305.527.472.395.574.211h.61l.578-.211.469-.394.304-.528Zm.032.007-.105.61-.313.539-.476.398-.583.215h-.62l-.583-.215-.476-.398-.313-.54-.105-.608.105-.614.313-.539.476-.398.582-.211h.621l.583.21.476.4.313.538Zm0 0-.105-.613-.313-.539-.476-.398-.583-.211h-.62l-.583.21-.476.4-.313.538-.105.614.105.609.313.539.476.398.582.215h.621l.583-.215.476-.398.313-.54Zm.031.004-.11.622-.312.546-.484.403-.594.215H2.86l-.59-.215-.484-.403-.316-.546-.11-.622.11-.62.316-.544.485-.406.59-.215h.628l.594.215.484.406.313.543Zm0 0-.11-.62-.312-.544-.484-.406-.594-.215H2.86l-.59.215-.484.406-.316.543-.11.621.11.622.316.546.485.403.59.215h.628l.594-.215.484-.403.313-.546Zm.032.004-.11.633-.32.55-.488.411-.602.219h-.64l-.598-.219-.492-.41-.32-.55-.11-.634.11-.629.32-.55.492-.414.597-.22H3.5l.602.22.488.414.32.55Zm0 0-.11-.629-.32-.55-.488-.414-.602-.22h-.64l-.598.22-.492.414-.32.55-.11.63.11.632.32.55.492.411.597.219H3.5l.602-.219.488-.41.32-.55Zm.03.008-.112.637-.325.562-.496.414-.61.223H2.86l-.605-.223-.5-.414-.32-.562-.114-.637.114-.64.32-.56.5-.417.605-.223h.649l.61.223.495.418.324.559Zm0 0-.112-.64-.325-.56-.496-.417-.61-.223H2.86l-.605.223-.5.418-.32.559-.114.64.114.637.32.562.5.414.605.223h.649l.61-.223.495-.414.324-.562Zm.032.004-.113.648-.328.567-.504.426-.617.222h-.657l-.617-.222-.504-.426-.328-.567-.117-.648.117-.648.328-.567.504-.422.617-.226h.657l.617.226.504.422.328.567Zm0 0-.113-.648-.328-.567-.504-.422-.617-.226h-.657l-.617.226-.504.422-.328.567-.117.648.117.648.328.567.504.426.617.222h.657l.617-.222.504-.426.328-.567Zm.031.004-.117.656-.332.578-.508.43-.629.227h-.664l-.625-.227-.511-.43-.332-.578-.118-.656.118-.656.332-.575.511-.43.625-.226h.664l.63.227.507.43.332.574Zm0 0-.117-.656-.332-.575-.508-.43-.629-.226h-.664l-.625.227-.511.43-.332.574-.118.656.118.656.332.578.511.43.625.227h.664l.63-.227.507-.43.332-.578Zm.032.008-.118.664-.336.586-.52.433-.632.23h-.676l-.633-.23-.52-.433-.335-.586-.117-.664.117-.664.336-.586.52-.434.632-.23h.676l.633.23.52.434.335.586Zm0 0-.118-.664-.336-.586-.52-.434-.632-.23h-.676l-.633.23-.52.434-.335.586-.117.664.117.664.336.586.52.433.632.23h.676l.633-.23.52-.433.335-.586Zm.03.004-.116.675-.344.59-.524.442-.644.234h-.684l-.64-.234-.528-.442-.34-.59-.12-.675.12-.672.34-.594.528-.441.64-.235h.684l.644.235.524.441.344.594Zm0 0L5.06 2.55l-.344-.594-.524-.441-.644-.235h-.684l-.64.235-.528.441-.34.594-.12.672.12.675.34.59.528.442.64.234h.684l.644-.234.524-.442.344-.59Zm.032.004-.121.683-.348.602-.527.445-.652.238h-.696l-.648-.238-.531-.445-.348-.602-.121-.683.12-.68.349-.602.53-.445.65-.238h.695l.652.238.527.445.348.602Zm0 0-.121-.68-.348-.602-.527-.445-.652-.238h-.696l-.648.238-.531.445-.348.602-.121.68.12.683.349.602.53.445.65.238h.695l.652-.238.527-.445.348-.602Zm.031.007-.12.692-.352.605-.54.453-.66.239h-.699l-.66-.239-.539-.453-.352-.605-.12-.692.12-.691.352-.61.539-.449.66-.242h.7l.66.242.539.45.351.609Zm0 0-.12-.691-.352-.61-.54-.449-.66-.242h-.699l-.66.242-.539.45-.352.609-.12.691.12.692.352.605.539.453.66.239h.7l.66-.239.539-.453.351-.605Zm.032.004-.125.7-.356.617-.543.457-.668.242h-.71l-.669-.242-.547-.457-.355-.617-.121-.7.12-.699.356-.617.547-.457.668-.242h.711l.668.242.543.457.356.617Zm0 0-.125-.699-.356-.617-.543-.457-.668-.242h-.71l-.669.242-.547.457-.355.617-.121.7.12.699.356.617.547.457.668.242h.711l.668-.242.543-.457.356-.617Zm.03.004-.124.711-.36.625-.554.461-.676.246h-.719l-.676-.246-.554-.46-.36-.626-.125-.71.125-.708.36-.625.554-.46.676-.247h.719l.676.246.554.461.36.625Zm0 0-.124-.707-.36-.625-.554-.46-.676-.247h-.719l-.676.246-.554.461-.36.625-.125.707.125.711.36.625.554.461.676.246h.719l.676-.246.554-.46.36-.626Zm.032.008-.129.719-.363.629-.559.468-.683.25h-.73l-.684-.25-.559-.468-.367-.63-.125-.718.125-.719.367-.633.559-.468.683-.25h.73l.684.25.559.468.363.633Zm0 0-.129-.719-.363-.633-.559-.468-.683-.25h-.73l-.684.25-.559.468-.367.633-.125.719.125.719.367.629.559.468.683.25h.73l.684-.25.559-.468.363-.63Zm.031.004-.129.726-.37.641-.563.473-.696.254h-.738l-.691-.254-.567-.473-.37-.64-.126-.727.125-.727.371-.64.567-.473.691-.254h.738l.696.254.562.473.371.64Zm0 0-.129-.727-.37-.64-.563-.473-.696-.254h-.738l-.691.254-.567.473-.37.64-.126.727.125.726.371.641.567.473.691.254h.738l.696-.254.562-.473.371-.64Zm.032.004-.13.738-.374.645-.575.48-.699.258h-.75l-.699-.258-.574-.48-.371-.645-.133-.738.133-.735.37-.648.575-.48.7-.254h.75l.698.254.575.48.375.648Zm0 0-.13-.735-.374-.648-.575-.48-.699-.254h-.75l-.699.254-.574.48-.371.648-.133.735.133.738.37.645.575.48.7.258h.75l.698-.258.575-.48.375-.645Zm.03.008-.132.742-.379.656-.578.484-.711.262h-.754l-.71-.262-.583-.484-.375-.656-.133-.742.133-.746.375-.657.582-.484.711-.258h.754l.71.258.58.484.378.657Zm0 0-.132-.746-.379-.657-.578-.484-.711-.258h-.754l-.71.258-.583.484-.375.657-.133.746.133.742.375.656.582.484.711.262h.754l.71-.262.58-.484.378-.656Zm.032.004-.133.753-.383.665-.586.488-.718.261H2.87l-.719-.261-.586-.489-.382-.664-.133-.753.133-.754.382-.664.586-.489.72-.261h.765l.718.261.586.489.383.664Zm0 0-.133-.754-.383-.664-.586-.489-.718-.261H2.87l-.719.261-.586.489-.382.664-.133.754.133.753.382.665.586.488.72.261h.765l.718-.261.586-.489.383-.664Zm.031.003-.136.762-.387.672-.594.496-.726.266H2.87l-.726-.266-.594-.496-.387-.672-.137-.762.137-.761.387-.668.594-.5.726-.266h.774l.726.266.594.5.387.668Zm0 0-.136-.761-.387-.668-.594-.5-.726-.266H2.87l-.726.266-.594.5-.387.668-.137.761.137.762.387.672.594.496.726.266h.774l.726-.266.594-.496.387-.672Zm.032.008-.137.77-.39.68-.602.503-.735.266h-.785l-.734-.266-.602-.504-.39-.68-.137-.769.137-.773.39-.676.602-.504.734-.27h.785l.735.27.601.504.39.676Zm0 0-.137-.773-.39-.676-.602-.504-.735-.27h-.785l-.734.27-.602.504-.39.676-.137.773.137.77.39.68.602.503.734.266h.785l.735-.266.601-.504.39-.68Zm.03.004-.14.781-.394.684-.606.512-.746.27h-.793l-.742-.27-.61-.512-.394-.684-.137-.78.137-.782.395-.684.609-.511.742-.27h.793l.746.27.606.511.394.684Zm0 0-.14-.781-.394-.684-.606-.511-.746-.27h-.793l-.742.27-.61.511-.394.684-.137.781.137.781.395.684.609.512.742.27h.793l.746-.27.606-.512.394-.684Zm.032.004-.14.79-.403.694-.613.516-.75.274H2.87l-.75-.274-.613-.516-.403-.695-.14-.789.14-.789.403-.691.613-.516.75-.273h.805l.75.273.613.516.402.691Zm0 0-.14-.789-.403-.691-.613-.516-.75-.273H2.87l-.75.273-.613.516-.403.691-.14.79.14.788.403.695.613.516.75.274h.805l.75-.274.613-.516.402-.695Zm.027.008-.14.797-.403.699-.62.523-.762.278h-.809l-.762-.278-.62-.523-.407-.7-.14-.796.14-.8.406-.7.621-.524L2.875 1h.809l.761.273.621.524.403.7Zm0 0-.14-.8-.403-.7-.62-.524L3.683 1h-.809l-.762.273-.62.524-.407.7-.14.8.14.797.406.699.621.523.762.278h.809l.761-.278.621-.523.403-.7Zm.032.004-.141.804-.41.711-.625.528-.774.281h-.816l-.77-.281-.628-.528-.41-.71L.925 3.3l.14-.809.41-.707.63-.527.769-.281h.816l.774.28.625.528.41.707Zm0 0L5.5 2.492l-.41-.707-.625-.527L3.69.977h-.816l-.77.28-.628.528-.41.707-.141.809.14.804.41.711.63.528.769.281h.816l.774-.281.625-.528.41-.71Zm.03.004-.14.816-.414.719-.637.531-.777.281h-.828l-.777-.28-.637-.532-.414-.719-.14-.816.14-.813.414-.719.637-.53.777-.286h.828l.777.285.637.531.414.72Zm0 0-.14-.813-.414-.719-.637-.53-.777-.286h-.828l-.777.285-.637.531-.414.72-.14.812.14.816.414.719.637.531.777.281h.828l.777-.28.637-.532.414-.719Zm.032.007-.144.825-.418.722-.641.54-.79.285h-.835l-.785-.286-.64-.539-.423-.722-.144-.824.144-.825.422-.726.64-.54.786-.284h.836l.789.285.64.539.419.726Zm0 0-.144-.824-.418-.726-.641-.54-.79-.284h-.835l-.785.285-.64.539-.423.726-.144.825.144.824.422.722.64.54.786.285h.836l.789-.286.64-.539.419-.722Zm.031.004-.144.832-.426.735-.648.543-.793.289h-.848l-.793-.29-.648-.542-.422-.735-.149-.832.149-.832.422-.734.648-.543.793-.289h.848l.793.289.648.543.426.734Zm0 0-.144-.832-.426-.734-.648-.543-.793-.289h-.848l-.793.289-.648.543-.422.734-.149.832.149.832.422.735.648.543.793.289h.848l.793-.29.648-.542.426-.735Zm.032.004-.149.844-.426.738-.656.551-.805.293h-.855l-.8-.293-.657-.55-.426-.739-.148-.844.148-.84.426-.742.656-.55.801-.29h.855l.805.29.656.55.426.742Zm0 0-.149-.84-.426-.742-.656-.55-.805-.29h-.855l-.8.29-.657.55-.426.742-.148.84.148.844.426.738.656.551.801.293h.855l.805-.293.656-.55.426-.739Zm.03.008-.148.848-.433.75-.66.554-.813.297H2.88l-.813-.297-.664-.554-.43-.75-.152-.848.153-.851.43-.75.663-.555.813-.297h.863l.813.297.66.555.433.75Zm0 0-.148-.851-.433-.75-.66-.555-.813-.297H2.88l-.813.297-.664.555-.43.75-.152.851.153.848.43.75.663.554.813.297h.863l.813-.297.66-.554.433-.75Zm.032.004-.152.86-.434.757-.672.559-.82.3h-.871l-.82-.3-.668-.559-.438-.758-.152-.859.152-.86.438-.757.668-.559.82-.3h.871l.82.3.672.559.434.758Zm0 0-.152-.86-.434-.757-.672-.559-.82-.3h-.871l-.82.3-.668.559-.438.758-.152.859.152.86.438.757.668.559.82.3h.871l.82-.3.672-.559.434-.758Zm.031.004-.152.871-.441.762-.676.566-.828.305h-.883l-.828-.305-.676-.566-.441-.762-.153-.871.153-.867.441-.766.676-.566.828-.301h.883l.828.3.676.567.441.766Zm0 0-.152-.867-.441-.766-.676-.566-.828-.301h-.883l-.828.3-.676.567-.441.766-.153.867.153.871.441.762.676.566.828.305h.883l.828-.305.676-.566.441-.762Zm.032.008-.153.875-.449.773-.68.57-.84.305h-.89l-.836-.304-.684-.57-.445-.774-.156-.875.156-.88.445-.773.684-.57.836-.305h.89l.84.305.68.57.45.774Zm0 0-.153-.88-.449-.773-.68-.57-.84-.305h-.89l-.836.305-.684.57-.445.774-.156.879.156.875.445.773.684.57.836.305h.89l.84-.304.68-.57.45-.774Zm.03.004-.155.886-.45.778-.691.582-.844.304H2.88l-.844-.304-.691-.582-.45-.778-.156-.886.157-.887.449-.781.691-.578.844-.309h.902l.844.309.691.578.45.78Zm0 0-.155-.887-.45-.781-.691-.578-.844-.309H2.88l-.844.309-.691.578-.45.78-.156.888.157.886.449.778.691.582.844.304h.902l.844-.304.691-.582.45-.778Zm.032.004-.156.894-.457.79-.695.585-.856.309h-.906l-.856-.309-.695-.586-.457-.789-.156-.894.156-.895.457-.789.695-.582.856-.313h.906l.856.313.695.582.457.789Zm0 0-.156-.895-.457-.789-.695-.582-.856-.313h-.906l-.856.313-.695.582-.457.789-.156.895.156.894.457.79.695.585.856.309h.906l.856-.309.695-.586.457-.789Zm.031.007-.16.903-.457.797-.703.59-.863.312h-.918l-.863-.313-.704-.59-.46-.796-.16-.903.16-.906.46-.793.704-.594.863-.312H3.8l.863.312.703.594.457.793Zm0 0-.16-.906-.457-.793-.703-.594-.863-.312h-.918l-.863.312-.704.594-.46.793-.16.906.16.903.46.797.704.59.863.312H3.8l.863-.313.703-.59.457-.796Zm.032.004-.16.914-.465.801-.711.598-.871.316h-.926l-.871-.316-.711-.598-.465-.8-.16-.915.16-.914.465-.8.71-.598.872-.317h.926l.87.317.712.597.464.801Zm0 0-.16-.914-.465-.8-.711-.598-.871-.317h-.926l-.871.317-.711.597-.465.801-.16.914.16.914.465.801.71.598.872.316h.926l.87-.316.712-.598.464-.8Zm.03.004-.163.922-.465.813-.719.601-.879.32h-.937l-.88-.32-.718-.601-.469-.813-.16-.922.16-.922.47-.808.718-.602.879-.32h.937l.88.32.718.602.465.808Zm0 0-.163-.922-.465-.808-.719-.602-.879-.32h-.937l-.88.32-.718.602-.469.808-.16.922.16.922.47.813.718.601.879.32h.937l.88-.32.718-.601.465-.813Zm.032.008-.164.93-.473.816-.722.61-.89.324h-.946l-.887-.325-.723-.609-.472-.816-.164-.93.164-.934.472-.816.723-.61.887-.324h.945l.89.325.723.609.473.816Zm0 0-.164-.934-.473-.816-.722-.61-.89-.324h-.946l-.887.325-.723.609-.472.816-.164.934.164.93.472.816.723.61.887.324h.945l.89-.325.723-.609.473-.816Zm.031.004-.168.937-.476.829-.73.613-.895.324h-.957l-.895-.324-.73-.613-.477-.829-.168-.937.168-.941.477-.825.73-.613.895-.328h.957L4.734 1l.73.613.477.825Zm0 0-.168-.941-.476-.825L4.735 1 3.84.672h-.957L1.988 1l-.73.613-.477.825-.168.94.168.938.477.829.73.613.895.324h.957l.894-.324.73-.613.477-.829Zm.032.004-.168.949-.48.836-.74.617-.905.328h-.961l-.907-.328-.738-.617-.48-.836-.168-.95.168-.948.48-.832L1.98.98l.907-.328h.96l.907.328.738.622.48.832Zm0 0-.168-.95-.48-.831-.74-.622-.905-.328h-.961L1.98.98l-.738.622-.48.832-.168.949.168.949.48.836.738.617.907.328h.96l.907-.328.738-.617.48-.836Zm.03.008-.167.957-.488.84-.743.625-.914.332h-.972l-.914-.332-.746-.625-.485-.84-.168-.957.168-.961.485-.84.746-.625.914-.332h.972l.914.332.743.625.488.84Zm0 0-.167-.961-.488-.84-.743-.625L3.86.633h-.972l-.914.332-.746.625-.485.84-.168.96.168.958.485.84.746.625.914.332h.972l.914-.332.743-.625.488-.84Zm.032.004-.172.964-.488.852-.754.629-.922.336h-.98l-.922-.336-.75-.63-.492-.85-.172-.965.172-.97.492-.847.75-.629.922-.336h.98L4.79.95l.754.63.488.847Zm0 0-.172-.97-.488-.847L4.789.95 3.867.613h-.98L1.965.95l-.75.63-.492.847-.172.969.172.964.492.852.75.629.922.336h.98l.922-.336.754-.63.488-.85Zm.031.003-.171.977-.497.855-.757.637-.93.34h-.992l-.93-.34-.758-.637-.496-.855-.172-.977.172-.972.496-.86.758-.636.93-.34h.992l.93.34.757.636.497.86Zm0 0-.171-.972-.497-.86L4.81.93l-.93-.34h-.992l-.93.34-.758.636-.496.86-.172.972.172.977.496.855.758.637.93.34h.992l.93-.34.757-.637.497-.855Zm.032.004-.176.985-.5.867-.766.64-.937.344h-1l-.938-.343-.765-.641-.5-.867-.172-.985.172-.98.5-.867.765-.64.938-.345h1l.937.344.766.64.5.868Zm0 0-.176-.98-.5-.867-.766-.64L3.887.57h-1l-.938.344-.765.64-.5.868-.172.98.172.985.5.867.765.64.938.344h1l.937-.343.766-.641.5-.867Zm.03.008-.175.992-.504.871-.773.649-.946.348H2.887l-.946-.348-.773-.649-.504-.87-.176-.993.176-.992.504-.875.773-.648.946-.344h1.011l.946.344.773.648.504.875Zm0 0-.175-.992-.504-.875-.773-.648L3.898.55H2.887L1.94.895l-.773.648-.504.875-.176.992.176.992.504.871.773.649.946.348h1.011l.946-.348.773-.649.504-.87Zm.032.004-.18 1.004-.507.879-.778.652-.957.352H2.891l-.957-.352-.782-.652-.507-.879-.176-1.004.176-1 .507-.883.782-.652L2.89.53h1.015l.957.348.778.652.507.883Zm0 0-.18-1-.507-.883L4.863.88 3.906.53H2.891L1.934.88l-.782.652-.507.883-.176 1 .176 1.004.507.879.782.652.957.352h1.015l.957-.352.778-.652.507-.879Zm.031.004L6.18 4.43l-.511.89-.79.66-.96.348H2.891l-.965-.348-.785-.66-.516-.89-.176-1.012.176-1.008.516-.89.785-.66.965-.348h1.027l.96.347.79.66.512.891Zm0 0L6.18 2.41l-.511-.89-.79-.66-.96-.348H2.891l-.965.347-.785.66-.516.891-.176 1.008.176 1.012.516.89.785.66.965.348h1.027l.96-.348.79-.66.512-.89Zm.032.008-.18 1.02-.52.894-.793.668-.972.351H2.89l-.973-.351-.793-.668-.52-.895-.18-1.02.18-1.019.52-.898.793-.664.973-.356h1.035l.972.356.793.664.52.898Zm0 0-.18-1.02-.52-.898-.793-.664-.972-.356H2.89l-.973.356-.793.664-.52.898-.18 1.02.18 1.02.52.894.793.668.973.351h1.035l.972-.351.793-.668.52-.895Zm.027.004-.18 1.027-.523.906-.797.672-.984.356H2.89l-.98-.356-.802-.672-.52-.906L.407 3.43.59 2.402l.52-.906.8-.668.98-.36h1.044l.984.36.797.668.523.906Zm0 0-.18-1.028-.523-.906-.797-.668-.984-.36H2.89l-.98.36-.802.668-.52.906L.407 3.43.59 4.457l.52.906.8.672.98.356h1.044l.984-.356.797-.672.523-.906Zm.031.004-.18 1.039-.527.91-.808.68-.989.359H2.891l-.989-.36-.808-.68-.524-.91-.183-1.038.183-1.036.524-.914.808-.675.989-.36h1.054l.989.36.808.675.528.914Zm0 0-.18-1.036-.527-.914L4.934.81l-.989-.36H2.891l-.989.36-.808.675-.524.914-.183 1.036.183 1.039.524.91.808.68.989.359h1.054l.989-.36.808-.68.528-.91Zm.031.007-.183 1.047-.531.918-.813.684-1 .363H2.895l-1-.363-.813-.684-.531-.918-.184-1.047.184-1.046.531-.918.813-.684 1-.363h1.058l1 .363.813.684.53.918Zm0 0-.183-1.046-.531-.918-.813-.684-1-.363H2.895l-1 .363-.813.684-.531.918L.367 3.44l.184 1.047.531.918.813.684 1 .363h1.058l1-.363.813-.684.53-.918Zm.032.004L6.328 4.5l-.535.93-.82.687-1.008.367h-1.07l-1.008-.367-.82-.687L.53 4.5.344 3.445.53 2.391l.535-.926.82-.692L2.896.41h1.07l1.008.363.82.692.535.926Zm0 0-.184-1.054-.535-.926-.82-.692L3.965.41h-1.07L1.887.773l-.82.692-.536.926-.187 1.054L.53 4.5l.535.93.82.687 1.009.367h1.07l1.008-.367.82-.687.535-.93Zm.031.004-.188 1.067-.539.933-.828.696-1.015.37H2.895l-1.016-.37-.828-.696-.54-.933-.187-1.067.188-1.062.539-.934.828-.695L2.895.387h1.078l1.015.37.828.696.54.934Zm0 0-.188-1.062-.539-.934-.828-.695L3.973.387H2.895l-1.016.37-.828.696-.54.934-.187 1.062.188 1.067.539.933.828.696 1.016.37h1.078l1.015-.37.828-.696.54-.933Zm.031.008-.187 1.07-.547.946-.832.699-1.024.371h-1.09l-1.023-.371-.836-.7-.543-.945-.187-1.07.187-1.074.543-.942.836-.703 1.024-.37h1.09l1.023.37.832.703.547.942Zm0 0-.187-1.074-.547-.942-.832-.703-1.024-.37h-1.09l-1.023.37-.836.703-.543.942-.187 1.074.187 1.07.543.946.836.699 1.024.371h1.09l1.023-.371.832-.7.547-.945Zm.031.004-.19 1.082-.548.95-.84.706-1.035.375H2.895L1.863 6.2l-.84-.707-.55-.949L.28 3.461l.192-1.082.55-.95.84-.706L2.895.348h1.097l1.035.375.84.707.547.949Zm0 0-.19-1.082-.548-.95-.84-.706L3.992.348H2.895L1.863.723l-.84.707-.55.949L.28 3.46l.192 1.082.55.95.84.706 1.032.375h1.097L5.027 6.2l.84-.707.547-.949Zm.032.004-.192 1.094-.554.957-.848.71-1.04.38H2.896l-1.04-.38-.847-.71-.555-.957-.191-1.094.191-1.09.555-.957.847-.711 1.04-.379h1.109l1.039.379.848.711.554.957Zm0 0-.192-1.09-.554-.957-.848-.711-1.04-.379H2.896l-1.04.379-.847.711-.555.957-.191 1.09.191 1.094.555.957.847.71 1.04.38h1.109l1.039-.38.848-.71.554-.957Zm.031.008L6.477 4.57l-.559.97-.856.714-1.05.383H2.898l-1.05-.383-.856-.715-.558-.969-.192-1.097.192-1.102.558-.965.856-.718 1.05-.383h1.114l1.05.383.856.718.559.965Zm0 0L6.477 2.37l-.559-.965-.856-.718-1.05-.383H2.898l-1.05.383-.856.718-.558.965-.192 1.102.192 1.097.558.97.856.714 1.05.383h1.114l1.05-.383.856-.715.559-.969Zm.031.004-.195 1.109-.563.973-.863.722-1.055.387H2.898L1.84 6.281.977 5.56l-.563-.973-.195-1.11.195-1.109.563-.972.863-.723L2.898.285h1.125l1.055.387.863.723.563.972Zm0 0-.195-1.11-.563-.972-.863-.723L4.023.285H2.898L1.84.672l-.863.723-.563.972-.195 1.11.195 1.109.563.973.863.722 1.058.387h1.125l1.055-.387.863-.722.563-.973Zm.031.003-.195 1.118-.566.984-.871.727-1.067.39H2.898l-1.066-.39-.867-.727-.57-.984L.199 3.48l.196-1.117.57-.98.867-.73L2.898.265h1.133l1.067.386.87.73.567.981Zm0 0-.195-1.117-.566-.98-.871-.73L4.03.265H2.898L1.832.652l-.867.73-.57.981L.199 3.48l.196 1.118.57.984.867.727 1.066.39h1.133l1.067-.39.87-.727.567-.984Zm.032.008-.2 1.125-.57.989-.875.734-1.074.394H2.898l-1.074-.394-.875-.734-.57-.989-.2-1.125.2-1.125.57-.992.875-.734 1.074-.39h1.145l1.074.39.875.734.57.992Zm0 0-.2-1.125-.57-.992-.875-.734-1.074-.39H2.898l-1.074.39-.875.734-.57.992-.2 1.125.2 1.125.57.989.875.734 1.074.394h1.145l1.074-.394.875-.734.57-.989Zm.031.004-.2 1.137-.577.996-.883.742-1.082.39H2.898l-1.082-.39-.882-.742-.575-.996-.203-1.137L.36 2.36l.575-1 .882-.738L2.898.227h1.153L5.133.62l.883.738.578 1Zm0 0-.2-1.133-.577-1-.883-.738L4.05.227H2.898L1.816.62l-.882.738-.575 1-.203 1.133L.36 4.63l.575.996.882.742 1.082.39h1.153l1.082-.39.883-.742.578-.996Zm.031.004-.203 1.145-.578 1.007-.89.747-1.09.394H2.898l-1.09-.394-.89-.747L.34 4.641.137 3.496l.203-1.14.578-1.008.89-.746 1.09-.399h1.164l1.09.399.891.746.578 1.007Zm0 0-.203-1.14-.578-1.008-.89-.746-1.09-.399H2.898l-1.09.399-.89.746L.34 2.355.137 3.496.34 4.641l.578 1.007.89.747 1.09.394h1.164l1.09-.394.891-.747.578-1.007Zm.031.008-.203 1.152-.586 1.012-.894.754-1.102.398H2.902l-1.101-.398-.895-.754L.32 4.656.117 3.504.32 2.352l.586-1.016.895-.75L2.902.184H4.07l1.102.402.894.75.586 1.016Zm0 0-.203-1.152-.586-1.016-.894-.75L4.07.184H2.902L1.801.586l-.895.75L.32 2.352.117 3.504.32 4.656l.586 1.012.895.754 1.101.398H4.07l1.102-.398.894-.754.586-1.012Zm.032.004-.203 1.16-.59 1.023-.907.758-1.105.403h-1.18l-1.109-.403-.902-.758L.3 4.668l-.203-1.16.203-1.16.59-1.024.902-.758 1.11-.402h1.179l1.106.402.906.758.59 1.024Zm0 0-.203-1.16-.59-1.024-.907-.758L4.082.164h-1.18L1.793.566l-.902.758L.3 2.348l-.203 1.16.203 1.16.59 1.023.902.758 1.11.403h1.179l1.106-.403.906-.758.59-1.023Zm.031.004-.207 1.172-.594 1.027-.91.766-1.117.406H2.902l-1.117-.406-.91-.766-.594-1.027-.207-1.172.207-1.168.594-1.031.91-.762L2.902.145H4.09L5.207.55l.91.762.594 1.03Zm0 0-.207-1.168-.594-1.031-.91-.762L4.09.145H2.902L1.785.55l-.91.762-.594 1.03-.207 1.169.207 1.172.594 1.027.91.766 1.117.406H4.09l1.117-.406.91-.766.594-1.027Zm.031.008L6.742 4.7l-.601 1.034-.914.77-1.125.41h-1.2l-1.125-.41-.918-.77L.262 4.7.055 3.52l.207-1.18.597-1.038.918-.77L2.902.125h1.2l1.125.406.914.77.601 1.039Zm0 0-.207-1.18-.601-1.04-.914-.769L4.102.125h-1.2L1.777.531l-.918.77L.262 2.34.055 3.52.262 4.7l.597 1.034.918.77 1.125.41h1.2l1.125-.41.914-.77.601-1.035Zm.031.003-.21 1.188-.602 1.047-.926.773-1.133.414H2.902L1.77 6.531l-.922-.773L.242 4.71.035 3.523l.207-1.187.606-1.043.922-.777L2.902.102H4.11l1.133.414.926.777.602 1.043Zm0 0-.21-1.187-.602-1.043-.926-.777L4.11.102H2.902L1.77.516l-.922.777-.606 1.043-.207 1.187.207 1.188.606 1.047.922.773 1.132.414H4.11l1.133-.414.926-.773.602-1.047Zm.032.004-.211 1.2-.61 1.05-.93.782-1.14.414H2.902l-1.14-.414-.93-.782-.61-1.05-.21-1.2.21-1.195.61-1.05.93-.782 1.14-.418h1.22L5.261.5l.93.781.609 1.051Zm0 0L6.8 2.332l-.61-1.05L5.261.5 4.122.082H2.902L1.762.5l-.93.781-.61 1.051-.21 1.195.21 1.2.61 1.05.93.782 1.14.414h1.22l1.14-.414.93-.782.609-1.05Zm.031.008-.215 1.203-.61 1.063-.937.785-1.152.418H2.906l-1.152-.418L.816 5.8.203 4.738l-.21-1.203.21-1.207.613-1.058.938-.79L2.906.063H4.13L5.28.48l.938.79.61 1.058Zm0 0-.215-1.207-.61-1.058-.937-.79L4.13.063H2.906L1.754.48l-.938.79-.613 1.058-.21 1.207.21 1.203.613 1.063.938.785 1.152.418H4.13l1.152-.418.938-.785.61-1.063Zm.031.004L6.86 4.754 6.242 5.82l-.945.793-1.156.422H2.906l-1.16-.422-.945-.793-.613-1.066-.215-1.215.215-1.215L.8 1.258l.945-.793 1.16-.422h1.235l1.156.422.945.793.617 1.066Zm0 0L6.86 2.324l-.617-1.066-.945-.793L4.14.043H2.906l-1.16.422-.945.793-.613 1.066-.215 1.215.215 1.215L.8 5.82l.945.793 1.16.422h1.235l1.156-.422.945-.793.617-1.066Zm.031.004-.218 1.223-.621 1.078-.95.797-1.168.425H2.906l-1.168-.425-.949-.797-.621-1.078-.219-1.223.219-1.223.621-1.074.95-.8L2.905.022h1.242l1.168.422.95.801.62 1.074Zm0 0L6.887 2.32l-.621-1.074-.95-.8L4.148.022H2.906L1.738.445l-.949.801L.168 2.32l-.219 1.223.219 1.223.621 1.078.95.797 1.167.425h1.242l1.168-.425.95-.797.62-1.078Zm.032.008-.219 1.23-.625 1.082-.961.805-1.176.43h-1.25l-1.176-.43-.957-.805-.625-1.082-.218-1.23.218-1.235.625-1.082L1.73.43 2.906 0h1.25l1.176.43.961.804.625 1.082Zm0 0-.219-1.235-.625-1.082L5.332.43 4.156 0h-1.25L1.73.43l-.957.804-.625 1.082-.218 1.235.218 1.23.625 1.082.957.805 1.176.43h1.25l1.176-.43.961-.805.625-1.082Zm.031.004-.219 1.242-.633 1.09-.964.808-1.184.434H2.906l-1.183-.434-.965-.808-.63-1.09-.218-1.242.219-1.243.629-1.09.965-.808L2.906-.02h1.262l1.184.434.964.809.633 1.09Zm0 0-.219-1.243-.633-1.09-.964-.808L4.168-.02H2.906L1.723.414l-.965.809-.63 1.09-.218 1.242.219 1.242.629 1.09.965.808 1.183.434h1.262l1.184-.434.964-.808.633-1.09Zm.031.004-.222 1.25-.633 1.101-.973.817-1.195.433H2.91l-1.195-.433-.973-.817L.11 4.81l-.222-1.25.222-1.25.633-1.098.973-.816L2.91-.04h1.266L5.37.395l.973.816.633 1.098Zm0 0-.222-1.25-.633-1.098L5.37.395 4.176-.04H2.91L1.715.395l-.973.816L.11 2.309l-.222 1.25.222 1.25.633 1.101.973.817 1.195.433h1.266l1.195-.433.973-.817.633-1.101Zm.031.007-.222 1.258-.64 1.106-.981.824-1.2.437H2.91l-1.203-.437L.73 5.93.09 4.824l-.223-1.258.223-1.261.64-1.106.977-.82L2.91-.06h1.277l1.2.438.98.82.64 1.106Zm0 0-.222-1.261-.64-1.106-.981-.82-1.2-.438H2.91L1.707.38l-.977.82-.64 1.106-.223 1.261.223 1.258.64 1.106.977.824 1.203.437h1.277l1.2-.437.98-.824.64-1.106Zm.028.004-.223 1.266-.644 1.117-.985.828-1.21.438H2.91L1.7 6.78l-.985-.828L.07 4.836-.152 3.57.07 2.3l.645-1.112.984-.829L2.91-.078h1.285l1.211.437.985.829.644 1.113Zm0 0L7.035 2.3l-.644-1.112-.985-.829-1.21-.437H2.91L1.7.359l-.985.829L.07 2.3l-.222 1.27.222 1.265.645 1.117.984.828 1.211.438h1.285l1.211-.438.985-.828.644-1.117Zm.031.004-.223 1.278-.648 1.12-.992.837-1.219.441H2.91l-1.219-.441L.7 5.973.051 4.852l-.223-1.278.223-1.273.648-1.125.992-.832 1.22-.446h1.296l1.219.446.992.832.648 1.125Zm0 0-.223-1.273-.648-1.125-.992-.832-1.219-.446H2.91L1.691.344.7 1.176.051 2.3l-.223 1.273.223 1.278.648 1.12.992.837 1.22.441h1.296l1.219-.441.992-.836.648-1.121Zm.031.008-.226 1.285-.653 1.13-1 .839-1.226.445H2.91l-1.226-.445-1-.84L.03 4.867l-.226-1.285.226-1.285.653-1.133 1-.84L2.91-.12h1.305L5.44.324l1 .84.653 1.133Zm0 0-.226-1.285-.653-1.133-1-.84L4.215-.12H2.91L1.684.324l-1 .84L.03 2.297l-.226 1.285.226 1.285.653 1.13 1 .839 1.226.445h1.305l1.226-.445 1-.84.653-1.129Zm.032.004-.227 1.293-.656 1.14-1.008.844-1.234.45H2.91l-1.234-.45L.672 6.02l-.66-1.141-.227-1.293.227-1.293.66-1.14L1.676.308l1.234-.45h1.317L5.46.31l1.008.843.656 1.141Zm0 0-.227-1.293-.656-1.14L5.46.308l-1.234-.45H2.91L1.676.31l-1.004.843-.66 1.141-.227 1.293.227 1.293.66 1.14 1.004.844 1.234.45h1.317l1.234-.45 1.008-.843.656-1.141Zm.03.004-.23 1.305-.66 1.144-1.012.852-1.246.453h-1.32L1.668 6.89.656 6.039l-.664-1.144-.226-1.305.226-1.3.664-1.15L1.668.294 2.914-.16h1.32L5.48.293l1.012.848.66 1.148Zm0 0-.23-1.3-.66-1.15L5.48.294 4.234-.16h-1.32L1.668.293l-1.012.848-.664 1.148-.226 1.3.226 1.306.664 1.144 1.012.852 1.246.453h1.32L5.48 6.89l1.012-.852.66-1.144Zm.032.008-.23 1.308-.664 1.157-1.024.855-1.25.457H2.914L1.66 6.918.64 6.062l-.663-1.156-.235-1.308.235-1.313L.64 1.13 1.66.273 2.913-.18h1.332l1.25.453 1.024.856.664 1.156Zm0 0-.23-1.313L6.52 1.13 5.496.273 4.246-.18H2.914L1.66.273.64 1.13l-.663 1.156-.235 1.313.235 1.308.664 1.157 1.02.855 1.253.457h1.332l1.25-.457 1.024-.856.664-1.156Zm.031.004-.23 1.32-.672 1.16-1.027.863-1.262.461h-1.34l-1.262-.46-1.027-.864-.668-1.16-.234-1.32.234-1.32.668-1.165 1.027-.86 1.262-.46h1.34l1.262.46 1.027.86.672 1.164Zm0 0-.23-1.32-.672-1.165-1.027-.86-1.262-.46h-1.34l-1.262.46-1.027.86-.668 1.164-.234 1.32.234 1.32.668 1.161 1.027.863 1.262.461h1.34l1.262-.46 1.027-.864.672-1.16Zm.032.003-.235 1.333-.676 1.167-1.03.868-1.27.46H2.914l-1.27-.46-1.03-.868-.676-1.168-.235-1.332.235-1.328.675-1.168L1.645.24l1.27-.462h1.35l1.27.461 1.031.871.676 1.168Zm0 0-.235-1.328-.676-1.168-1.03-.87-1.27-.462H2.914l-1.27.461-1.03.871-.676 1.168-.235 1.328.235 1.333.675 1.167 1.032.868 1.27.46h1.35l1.27-.46 1.031-.868.676-1.168Zm.03.008L7.274 4.95l-.68 1.18L5.552 7l-1.278.465H2.914L1.637 7l-1.04-.871-.679-1.18-.238-1.336.238-1.34.68-1.175L1.637.223l1.277-.465h1.36L5.55.223l1.043.875.68 1.175Zm0 0-.234-1.34-.68-1.175L5.552.223 4.273-.242H2.914L1.637.223l-1.04.875-.679 1.175-.238 1.34.238 1.336.68 1.18L1.637 7l1.277.465h1.36L5.55 7l1.043-.871.68-1.18Zm.032.004-.238 1.348-.684 1.183-1.047.88-1.285.468h-1.37l-1.286-.469-1.047-.879-.684-1.183-.238-1.348.238-1.347.684-1.184L1.629.203l1.285-.465h1.371L5.57.203l1.047.883.684 1.184Zm0 0L7.301 2.27l-.684-1.184L5.57.203 4.285-.262h-1.37L1.628.203l-1.047.883-.684 1.184-.238 1.347.238 1.348.684 1.183 1.047.88 1.285.468h1.371l1.285-.469 1.047-.879.684-1.183Zm.031.004-.238 1.356-.687 1.195-1.055.883-1.297.472H2.918l-1.297-.472-1.055-.883-.687-1.195L-.36 3.62l.238-1.355.687-1.192L1.621.187l1.297-.472h1.375L5.59.188l1.055.886.687 1.192Zm0 0-.238-1.355-.687-1.192L5.59.187 4.293-.284H2.918L1.621.188l-1.055.886-.687 1.192L-.36 3.62l.238 1.356.687 1.195 1.055.883 1.297.472h1.375l1.297-.472 1.055-.883.687-1.195Zm.032.008-.243 1.363-.691 1.2-1.063.89-1.3.477H2.918l-1.305-.477-1.058-.89-.696-1.2-.242-1.363.242-1.367.696-1.2 1.058-.89 1.305-.477h1.387l1.3.477 1.063.89.691 1.2Zm0 0-.243-1.367-.691-1.2-1.063-.89-1.3-.477H2.918L1.613.172l-1.058.89-.696 1.2-.242 1.367.242 1.363.696 1.2 1.058.89 1.305.477h1.387l1.3-.477 1.063-.89.691-1.2Zm.03.004-.241 1.375-.7 1.207-1.066.898-1.312.477H2.918l-1.313-.477L.54 6.215l-.7-1.207-.241-1.375.242-1.375.7-1.207L1.604.152l1.313-.476h1.394l1.313.476 1.066.899.7 1.207Zm0 0-.241-1.375-.7-1.207L5.625.152 4.313-.324H2.918L1.605.152.54 1.051l-.7 1.207-.241 1.375.242 1.375.7 1.207 1.065.898 1.313.477h1.394l1.313-.477 1.066-.898.7-1.207Zm.032.004L7.422 5.02l-.703 1.218-1.078.903-1.317.48H2.918l-1.32-.48-1.075-.903L-.18 5.02l-.242-1.383.242-1.383.703-1.215L1.598.137l1.32-.48h1.406l1.317.48 1.078.902.703 1.215Zm0 0-.242-1.383-.703-1.215L5.64.137l-1.317-.48H2.918l-1.32.48-1.075.902-.703 1.215-.242 1.383.242 1.383.703 1.218 1.075.903 1.32.48h1.406l1.317-.48 1.078-.903.703-1.218Zm.031.008-.246 1.39-.707 1.223-1.082.91-1.328.48H2.918l-1.328-.48-1.082-.91L-.2 5.035l-.242-1.39L-.2 2.25l.707-1.223L1.59.117l1.328-.48h1.414l1.328.48 1.082.91.707 1.223Zm0 0L7.45 2.25l-.707-1.223L5.66.117l-1.328-.48H2.918L1.59.117l-1.082.91L-.2 2.25l-.242 1.395.242 1.39.707 1.223 1.082.91 1.328.48h1.414l1.328-.48 1.082-.91.707-1.223Zm.032.003L7.48 5.047 6.77 6.28l-1.09.914-1.336.485H2.922l-1.34-.485-1.09-.914-.71-1.234-.247-1.399.246-1.402.711-1.23 1.09-.914 1.34-.489h1.422L5.68.102l1.09.914.71 1.23Zm0 0L7.48 2.246l-.71-1.23L5.68.102 4.344-.387H2.922l-1.34.489-1.09.914-.71 1.23-.247 1.402.246 1.399.711 1.234 1.09.914 1.34.485h1.422l1.336-.485 1.09-.914.71-1.234Zm.03.004-.25 1.41-.714 1.239-1.098.922-1.343.488h-1.43l-1.348-.488L.48 6.3l-.714-1.239-.25-1.41.25-1.41.714-1.238L1.574.086l1.348-.492h1.43l1.343.492 1.098.918.715 1.238Zm0 0-.25-1.41-.714-1.238L5.695.086 4.352-.406h-1.43L1.574.086.48 1.004l-.714 1.238-.25 1.41.25 1.41.714 1.239 1.094.922 1.348.488h1.43l1.343-.488L6.793 6.3l.715-1.239Zm.032.008-.25 1.418-.723 1.246-1.101.926-1.352.492H2.922L1.566 7.25.465 6.324l-.719-1.246-.25-1.418.25-1.422L.465.992 1.566.066l1.356-.492h1.441l1.352.492 1.101.926.723 1.246Zm0 0-.25-1.422L6.816.992 5.715.066 4.363-.426H2.922L1.566.066.465.992l-.719 1.246-.25 1.422.25 1.418.719 1.246 1.101.926 1.356.492h1.441l1.352-.492 1.101-.926.723-1.246Zm.031.004L7.566 5.09l-.722 1.258-1.11.93-1.363.495h-1.45L1.56 7.277l-1.11-.93-.722-1.257-.254-1.426.254-1.43L.449.98 1.56.05l1.363-.495h1.45L5.733.05l1.11.93.722 1.253Zm0 0-.254-1.43L6.844.98 5.734.05 4.371-.444h-1.45L1.56.05.449.98l-.722 1.253-.254 1.43.254 1.426.722 1.258 1.11.93 1.363.495h1.45l1.362-.496 1.11-.93.722-1.257Zm.032.004-.254 1.437-.73 1.262-1.118.938-1.367.5H2.922l-1.371-.5-1.117-.938-.727-1.262-.254-1.437.254-1.434L.434.97 1.55.03l1.37-.496h1.462L5.75.031 6.867.97l.73 1.265Zm0 0-.254-1.434L6.868.97 5.75.03 4.383-.465H2.922L1.55.031.434.97l-.727 1.265-.254 1.434.254 1.437.727 1.262 1.117.938 1.37.5h1.462l1.367-.5 1.117-.938.73-1.262Zm.03.008-.257 1.441-.73 1.274-1.125.941-1.38.504H2.923l-1.379-.504-1.121-.941-.734-1.274-.254-1.441.253-1.446L.423.957 1.543.016l1.379-.504H4.39L5.77.016l1.125.941.73 1.273Zm0 0L7.626 2.23 6.895.957 5.77.016 4.39-.488H2.923L1.543.016.422.957-.312 2.23l-.254 1.446.253 1.441.735 1.274 1.121.941 1.379.504H4.39l1.379-.504 1.125-.941.73-1.274Zm.032.004-.258 1.453-.738 1.277-1.129.95-1.39.503H2.925l-1.39-.504-1.13-.949-.738-1.277L-.59 3.68l.258-1.453L.406.945l1.13-.949 1.39-.504h1.472l1.391.504 1.129.95.738 1.28Zm0 0-.258-1.453L6.918.945 5.789-.004 4.4-.508H2.925l-1.39.504-1.13.95-.738 1.28L-.59 3.68l.258 1.453.738 1.277 1.13.95 1.39.503h1.472L5.79 7.36l1.129-.949.738-1.277Zm.031.004-.258 1.464-.742 1.286-1.14.953-1.395.508H2.926l-1.399-.508-1.136-.953-.743-1.286-.257-1.464.257-1.461.743-1.29L1.527-.02l1.399-.507H4.41l1.395.507 1.14.954.742 1.289Zm0 0-.258-1.461-.742-1.29-1.14-.953L4.41-.527H2.926L1.527-.02.391.934l-.743 1.289-.257 1.46.257 1.465.743 1.286 1.136.953 1.399.508H4.41l1.395-.508 1.14-.953.742-1.286Zm.032.003L7.715 5.16l-.746 1.293-1.145.961-1.406.512H2.926L1.52 7.414l-1.145-.96-.746-1.294-.258-1.473.258-1.468L.375.926 1.52-.035l1.406-.512h1.492l1.406.512 1.145.96.746 1.294Zm0 0L7.715 2.22 6.969.926 5.824-.035 4.418-.547H2.926L1.52-.035.375.925-.371 2.22-.63 3.688-.37 5.16l.746 1.293 1.145.961 1.406.512h1.492l1.406-.512 1.145-.96.746-1.294Zm.03.008-.26 1.48-.755 1.302-1.148.964-1.414.516H2.926l-1.414-.516-1.149-.964-.754-1.301-.261-1.48.261-1.481.754-1.3 1.149-.97 1.414-.511H4.43l1.414.511 1.148.97.754 1.3Zm0 0-.26-1.48-.755-1.3-1.148-.97L4.43-.566H2.926l-1.414.511-1.149.97-.754 1.3-.261 1.48.261 1.48.754 1.302 1.149.964 1.414.516H4.43l1.414-.516 1.148-.964.754-1.301Zm.032.004-.266 1.489L7.02 6.5l-1.16.969-1.423.52H2.927l-1.422-.52L.348 6.5-.41 5.188l-.262-1.489.262-1.488L.348.902 1.504-.07l1.422-.52h1.511l1.422.52 1.16.972.754 1.309Zm0 0-.266-1.488L7.02.902 5.86-.07 4.436-.59H2.927l-1.422.52L.348.902-.41 2.211l-.262 1.488.262 1.489L.348 6.5l1.156.969 1.422.52h1.511l1.422-.52L7.02 6.5l.754-1.312Zm.027.004-.261 1.5-.762 1.317-1.164.98-1.43.52H2.926l-1.43-.52-1.164-.98-.762-1.317-.261-1.5.261-1.496L.332.891l1.164-.98 1.43-.52h1.523l1.43.52 1.164.98.762 1.316Zm0 0-.261-1.496L7.043.891 5.879-.09l-1.43-.52H2.926l-1.43.52L.332.89-.43 2.207-.69 3.703l.261 1.5.762 1.317 1.164.98 1.43.52h1.523l1.43-.52 1.164-.98.762-1.317Zm.032.008-.266 1.508-.762 1.324-1.175.984-1.438.524H2.93l-1.438-.524-1.176-.984-.761-1.324-.266-1.508.266-1.508L.316.88l1.176-.984L2.93-.63h1.527l1.438.524L7.07.879l.762 1.324Zm0 0-.266-1.508L7.07.88 5.895-.105 4.457-.63H2.93l-1.438.524L.316.879l-.761 1.324-.266 1.508.266 1.508.761 1.324 1.176.984 1.438.524h1.527l1.438-.524 1.175-.984.762-1.324Zm.03.004L7.864 5.23l-.77 1.332-1.179.993-1.445.523h-1.54l-1.445-.523-1.18-.992-.769-1.333-.27-1.515.27-1.516.77-1.332 1.18-.988L2.93-.648h1.539l1.445.527 1.18.988.77 1.332Zm0 0-.265-1.516-.77-1.332L5.915-.12 4.47-.648h-1.54l-1.445.527-1.18.988L-.464 2.2l-.27 1.516.27 1.515.77 1.332 1.18.993 1.445.523h1.539l1.445-.523 1.18-.992.77-1.333Zm.032.004-.265 1.527-.778 1.34-1.183.996-1.457.527H2.93l-1.453-.527-1.188-.996-.773-1.34-.27-1.527.27-1.524.773-1.34L1.477-.14 2.93-.668h1.547l1.457.527 1.183.996.778 1.34Zm0 0-.265-1.524-.778-1.34L5.934-.14 4.477-.668H2.93l-1.453.527L.289.855l-.773 1.34-.27 1.524.27 1.527.773 1.34 1.188.996 1.453.527h1.547l1.457-.527 1.183-.996.778-1.34Zm.031.008-.27 1.53-.776 1.352-1.196 1-1.46.532h-1.56l-1.46-.532-1.196-1-.777-1.351-.27-1.531.27-1.536L.273.844l1.196-1 1.46-.535h1.56l1.46.535 1.196 1 .777 1.347Zm0 0-.27-1.536L7.146.844l-1.196-1-1.46-.535h-1.56l-1.46.535-1.196 1-.777 1.347-.27 1.536.27 1.53.777 1.352 1.196 1 1.46.532h1.56l1.46-.532 1.196-1 .777-1.351Zm.032.003-.27 1.543-.785 1.356-1.2 1.008-1.472.535H2.93l-1.47-.535L.259 6.629l-.781-1.356-.274-1.543.274-1.542.78-1.356L1.462-.176 2.93-.71h1.566l1.473.535L7.168.832l.785 1.356Zm0 0-.27-1.542L7.168.831l-1.2-1.008L4.497-.71H2.93l-1.47.535L.259.832l-.781 1.356-.274 1.542.274 1.543.78 1.356 1.204 1.008 1.469.535h1.566l1.473-.535 1.199-1.008.785-1.356Zm.03.004L7.98 5.29l-.785 1.363-1.207 1.012-1.48.54H2.93l-1.477-.54L.246 6.652-.543 5.29l-.273-1.555.273-1.55L.247.82 1.452-.19l1.477-.54h1.578l1.48.54L7.195.82l.785 1.364Zm0 0-.273-1.55L7.195.82 5.988-.19l-1.48-.54H2.93l-1.477.54L.246.82l-.789 1.364-.273 1.55.273 1.555.79 1.363 1.206 1.012 1.477.54h1.578l1.48-.54 1.207-1.012.785-1.363Zm.032.008-.273 1.559-.793 1.37-1.215 1.02-1.488.543H2.934l-1.489-.543L.23 6.671l-.792-1.37-.274-1.559.273-1.562L.23.809l1.215-1.02L2.934-.75h1.582l1.488.54L7.219.808l.793 1.37Zm0 0L8.012 2.18 7.219.809 6.004-.211 4.516-.75H2.934l-1.489.54L.23.808l-.792 1.37-.274 1.563.273 1.559.793 1.37 1.215 1.02 1.489.543h1.582l1.488-.543 1.215-1.02.793-1.37Zm.031.004-.277 1.57-.797 1.38-1.219 1.023-1.496.547H2.934l-1.497-.547L.216 6.695l-.797-1.379-.277-1.57.277-1.57.797-1.38L1.438-.226 2.934-.77h1.593l1.496.543L7.243.797l.796 1.379Zm0 0-.277-1.57-.797-1.38L6.023-.226 4.527-.77H2.934l-1.497.543L.216.797l-.797 1.379-.277 1.57.277 1.57.797 1.38 1.223 1.023 1.496.547h1.593l1.496-.547 1.22-1.024.796-1.379Zm.032.004L8.07 5.328l-.8 1.39-1.227 1.028-1.508.55H2.934l-1.504-.55L.2 6.72l-.802-1.39-.277-1.579.277-1.578L.2.785 1.43-.242l1.505-.551h1.601l1.508.55L7.27.786l.8 1.387Zm0 0L8.07 2.172 7.27.785 6.043-.242 4.535-.793H2.934l-1.504.55L.2.786l-.802 1.387-.277 1.578.277 1.578.801 1.39 1.23 1.028 1.505.55h1.601l1.508-.55L7.27 6.72l.8-1.39Zm.03.008-.28 1.586-.805 1.394-1.234 1.035-1.512.551H2.934l-1.512-.55L.188 6.737l-.81-1.394-.276-1.586.277-1.586L.188.773 1.422-.262l1.512-.55h1.613l1.512.55L7.293.773l.805 1.399Zm0 0-.28-1.586L7.293.773 6.059-.262l-1.512-.55H2.934l-1.512.55L.188.773l-.81 1.399-.276 1.586.277 1.586.809 1.394 1.234 1.035 1.512.551h1.613l1.512-.55 1.234-1.036.805-1.394Zm.032.004L8.13 5.359 7.32 6.762 6.078 7.8l-1.523.554H2.934l-1.52-.554L.172 6.76-.641 5.36l-.28-1.597.28-1.594L.172.762l1.242-1.04 1.52-.554h1.62l1.524.555L7.32.762l.809 1.406Zm0 0L8.13 2.168 7.32.762 6.078-.278 4.555-.831H2.934l-1.52.555L.172.762l-.813 1.406-.28 1.594.28 1.597.813 1.403L1.414 7.8l1.52.554h1.62l1.524-.554L7.32 6.76 8.13 5.36Zm.031.004-.28 1.605-.817 1.41-1.246 1.047-1.532.559H2.938l-1.532-.559-1.25-1.047-.812-1.41-.285-1.605.285-1.602L.156.75l1.25-1.047 1.532-.555h1.628l1.532.555L7.344.75l.816 1.414Zm0 0-.28-1.602L7.343.75 6.098-.297 4.566-.852H2.938l-1.532.555L.156.75l-.812 1.414-.285 1.602.285 1.605.812 1.41 1.25 1.047 1.532.559h1.628l1.532-.559 1.246-1.047.816-1.41Zm.032.007-.286 1.614-.82 1.418-1.254 1.054-1.539.559H2.938l-1.54-.559L.141 6.805l-.817-1.418-.285-1.614.285-1.613L.141.738l1.257-1.05 1.54-.563h1.636l1.54.563L7.366.738l.82 1.422Zm0 0L8.187 2.16 7.368.738 6.113-.312 4.574-.875H2.938l-1.54.563L.141.738-.676 2.16-.96 3.773l.285 1.614.817 1.418 1.257 1.054 1.54.559h1.636l1.54-.559 1.253-1.054.82-1.418Zm.03.004L8.22 5.398l-.824 1.43-1.262 1.059-1.547.562H2.937l-1.546-.562L.129 6.828l-.824-1.43-.285-1.62.285-1.622L.129.73 1.39-.332l1.547-.563h1.648l1.547.563L7.395.73l.824 1.426Zm0 0-.284-1.62L7.395.73 6.133-.332 4.586-.895H2.937l-1.546.563L.129.73l-.824 1.426-.285 1.621.285 1.621.824 1.43L1.39 7.887l1.547.562h1.648l1.547-.562 1.262-1.059.824-1.43Zm.032.004-.289 1.633-.828 1.434-1.27 1.066-1.554.566H2.937l-1.554-.566-1.27-1.066-.828-1.434-.289-1.633.29-1.629L.112.72l1.27-1.067 1.555-.566h1.656l1.554.566L7.418.72l.828 1.433Zm0 0-.289-1.629L7.418.72 6.148-.348 4.594-.914H2.937l-1.554.566L.113.72l-.828 1.433-.289 1.63.29 1.632.827 1.434 1.27 1.066 1.555.566h1.656l1.554-.566 1.27-1.066.828-1.434Zm.031.008-.289 1.64-.832 1.442-1.277 1.07-1.563.57H2.937l-1.562-.57-1.277-1.07-.832-1.441-.29-1.64.29-1.642L.098.707l1.277-1.07 1.563-.57h1.667l1.563.57L7.445.707l.832 1.441Zm0 0-.289-1.64L7.445.706 6.168-.363l-1.563-.57H2.937l-1.562.57L.098.707l-.832 1.441-.29 1.641.29 1.64.832 1.442 1.277 1.07 1.563.57h1.667l1.563-.57 1.277-1.07.832-1.441Zm.032.004-.293 1.648-.836 1.45-1.282 1.078-1.574.57H2.937l-1.57-.57L.082 6.89l-.836-1.45-.289-1.648.29-1.648.835-1.45L1.367-.383l1.57-.57h1.676l1.574.57L7.47.695l.836 1.45Zm0 0-.293-1.648-.836-1.45L6.187-.383l-1.574-.57H2.937l-1.57.57L.082.695l-.836 1.45-.289 1.648.29 1.648.835 1.45 1.285 1.078 1.57.57h1.676l1.574-.57L7.47 6.89l.836-1.45Zm.03.004-.292 1.66-.84 1.457-1.293 1.082-1.582.574h-1.68L1.36 7.996.07 6.914l-.843-1.457-.293-1.66.293-1.656L.07.684 1.36-.398 2.94-.977h1.68l1.582.579L7.496.684l.84 1.457Zm0 0L8.337 2.14 7.496.684 6.203-.398 4.621-.977h-1.68L1.36-.398.07.684-.773 2.14l-.293 1.656.293 1.66.843 1.457 1.29 1.082 1.581.574h1.68l1.582-.574 1.293-1.082.84-1.457Zm.032.008-.293 1.664-.847 1.465-1.297 1.09-1.59.578H2.94l-1.59-.579-1.296-1.09-.848-1.464-.293-1.664.293-1.668L.055.672l1.297-1.09 1.59-.578h1.69l1.59.578L7.52.672l.847 1.465Zm0 0-.293-1.668L7.52.672 6.223-.418l-1.59-.578H2.94l-1.59.578L.056.672l-.848 1.465-.293 1.668.293 1.664.848 1.465 1.297 1.09 1.59.578h1.69l1.59-.579 1.298-1.09.847-1.464Zm.031.004-.296 1.675-.852 1.473-1.3 1.094-1.602.582h-1.7L1.344 8.05.039 6.957l-.851-1.473-.293-1.675.293-1.676L.038.66 1.344-.434l1.597-.582h1.7l1.601.582L7.543.66l.852 1.473Zm0 0-.296-1.676L7.543.66l-1.3-1.094-1.602-.582h-1.7l-1.597.582L.039.66l-.851 1.473-.293 1.676.293 1.675.851 1.473 1.305 1.094 1.597.582h1.7l1.601-.582 1.301-1.094.852-1.473Zm.032.003L8.426 5.5 7.57 6.98 6.258 8.078l-1.606.586h-1.71l-1.606-.586L.023 6.98-.832 5.5l-.297-1.687.297-1.684.855-1.48L1.336-.45l1.605-.586h1.711l1.606.586L7.57.648l.856 1.48Zm0 0L8.426 2.13 7.57.649 6.258-.45l-1.606-.586h-1.71L1.335-.45.023.648l-.855 1.48-.297 1.685.297 1.687.855 1.48 1.313 1.098 1.605.586h1.711l1.606-.586L7.57 6.98l.856-1.48Zm.03.008-.3 1.692L7.593 7 6.278 8.105l-1.617.59H2.941l-1.613-.59L.012 7l-.864-1.488-.296-1.692.296-1.695L.012.637 1.328-.47l1.613-.586h1.72l1.616.586L7.594.637l.86 1.488Zm0 0-.3-1.695-.86-1.488L6.278-.47 4.66-1.055H2.941l-1.613.586L.012.637l-.864 1.488-.296 1.695.296 1.692L.012 7l1.316 1.105 1.613.59h1.72l1.616-.59L7.594 7l.86-1.488Zm.032.004-.3 1.703-.864 1.496-1.324 1.11-1.625.594h-1.73L1.32 8.133l-1.324-1.11-.863-1.496-.301-1.703.3-1.703.864-1.496L1.32-.485l1.621-.593h1.73l1.626.594L7.62.625l.863 1.496Zm0 0-.3-1.703L7.62.625 6.297-.485l-1.625-.593h-1.73L1.32-.484-.004.625l-.863 1.496-.301 1.703.3 1.703.864 1.496 1.324 1.11 1.621.594h1.73l1.626-.594 1.324-1.11.863-1.496Zm.031.004L8.512 5.54l-.867 1.504L6.313 8.16l-1.633.594H2.945L1.313 8.16-.02 7.043l-.867-1.504-.304-1.71.304-1.712L-.02.613 1.312-.504l1.633-.594H4.68l1.633.594L7.645.613l.867 1.504Zm0 0-.304-1.71L7.645.612 6.313-.504 4.68-1.098H2.945l-1.632.594L-.02.613l-.867 1.504-.304 1.711.304 1.711.867 1.504L1.312 8.16l1.633.594H4.68l1.633-.594 1.332-1.117.867-1.504Zm.032.008-.305 1.719-.875 1.511-1.336 1.122-1.64.597H2.944l-1.64-.598-1.34-1.12-.871-1.512-.305-1.72.305-1.722.87-1.511L1.305-.52l1.641-.597h1.746l1.641.597L7.668.602l.875 1.511Zm0 0-.305-1.723L7.668.602 6.332-.52l-1.64-.597H2.944l-1.64.597L-.035.602l-.871 1.511-.305 1.723.305 1.719.87 1.511 1.34 1.122 1.641.597h1.746l1.641-.598 1.336-1.12.875-1.512Zm.027.004L8.57 5.566 7.695 7.09 6.352 8.215l-1.653.601H2.945l-1.648-.601L-.047 7.09l-.879-1.524-.304-1.726.304-1.73.88-1.52L1.296-.54l1.648-.597H4.7l1.653.598L7.695.59l.875 1.52Zm0 0L8.57 2.11 7.695.59 6.352-.54l-1.653-.597H2.945l-1.648.598L-.047.59l-.879 1.52-.304 1.73.304 1.726.88 1.524 1.343 1.125 1.648.601H4.7l1.653-.601L7.695 7.09l.875-1.524Zm.031.004-.304 1.738-.883 1.527-1.352 1.137-1.656.602H2.945L1.29 8.246-.062 7.11l-.883-1.527-.305-1.738.305-1.735.883-1.53L1.289-.556l1.656-.601h1.766l1.656.601L7.72.578l.883 1.531Zm0 0-.304-1.735L7.719.58 6.367-.556l-1.656-.601H2.945L1.29-.555-.062.578-.945 2.11l-.305 1.735.305 1.738.883 1.527 1.351 1.137 1.656.602h1.766l1.656-.602L7.72 7.11l.883-1.527Zm.031.008-.304 1.746-.887 1.535-1.36 1.14-1.667.606H2.945l-1.664-.606-1.36-1.14-.886-1.535-.308-1.746.308-1.747.887-1.539L1.282-.57l1.663-.61H4.72l1.668.61L7.747.566l.886 1.54Zm0 0-.304-1.747L7.746.566 6.386-.57 4.72-1.18H2.945l-1.664.61L-.079.566l-.886 1.54-.308 1.746.308 1.746.887 1.535 1.36 1.14 1.663.606H4.72l1.668-.606 1.36-1.14.886-1.535Zm.032.003L8.66 5.61l-.89 1.543-1.364 1.149-1.676.61H2.95L1.272 8.3-.094 7.152l-.89-1.543-.309-1.754.309-1.753.89-1.547L1.273-.59 2.95-1.2H4.73l1.676.61L7.77.555l.89 1.547Zm0 0L8.66 2.102 7.77.555 6.406-.59 4.73-1.2H2.95l-1.677.61L-.094.555l-.89 1.547-.309 1.753.309 1.754.89 1.543 1.367 1.149 1.676.61H4.73l1.676-.61L7.77 7.152l.89-1.543ZM9 3.86l-.309 1.766-.898 1.55-1.371 1.153-1.684.613H2.95l-1.683-.613L-.11 7.176l-.895-1.551-.308-1.766.308-1.761.895-1.551L1.266-.605l1.683-.614h1.79l1.683.614L7.793.547l.898 1.55Zm0 0-.309-1.761L7.793.547 6.422-.605 4.738-1.22H2.95l-1.683.614L-.11.547l-.895 1.55-.308 1.762.308 1.766.895 1.55 1.375 1.153 1.683.613h1.79l1.683-.613 1.371-1.152.898-1.551Zm.031.008-.312 1.77-.899 1.562-1.379 1.156-1.691.614h-1.8l-1.692-.614L-.122 7.2l-.901-1.562-.313-1.77.313-1.773.902-1.559 1.379-1.16 1.691-.613H4.75l1.691.613 1.38 1.16.898 1.559Zm0 0L8.72 2.094 7.82.535 6.441-.625 4.75-1.238h-1.8l-1.692.613-1.38 1.16-.901 1.559-.313 1.773.313 1.77.902 1.562 1.379 1.156 1.691.614H4.75l1.691-.614L7.821 7.2l.898-1.562Zm.031.004L8.75 5.652 7.844 7.22 6.457 8.383 4.757 9H2.95L1.25 8.383-.137 7.219l-.906-1.567-.312-1.78.312-1.782.906-1.567L1.25-.64l1.7-.617h1.808l1.699.617L7.844.523 8.75 2.09Zm0 0L8.75 2.09 7.844.523 6.457-.64l-1.7-.617H2.95L1.25-.64-.137.523l-.906 1.567-.312 1.781.312 1.781.906 1.567L1.25 8.383 2.95 9h1.808l1.699-.617 1.387-1.164.906-1.567Zm.032.004-.317 1.793-.906 1.574L6.477 8.41l-1.707.621H2.95l-1.708-.62-1.394-1.169-.91-1.574-.313-1.793.313-1.79.91-1.573L1.242-.656l1.707-.625h1.82l1.708.625L7.87.512l.906 1.574Zm0 0-.317-1.79L7.871.513 6.477-.656 4.77-1.281H2.95l-1.708.625L-.152.512l-.91 1.574-.313 1.789.313 1.793.91 1.574L1.242 8.41l1.707.621h1.82l1.708-.62L7.87 7.241l.906-1.574Zm.031.008L8.809 5.68l-.914 1.582-1.399 1.176-1.719.624H2.95l-1.715-.624-1.402-1.176-.91-1.582-.32-1.797.32-1.801L-.168.5 1.234-.676 2.95-1.3h1.828l1.72.625L7.894.5l.914 1.582Zm0 0-.316-1.801L7.895.5 6.496-.676 4.777-1.3H2.95l-1.715.625L-.168.5l-.91 1.582-.32 1.8.32 1.798.91 1.582 1.402 1.176 1.715.624h1.828l1.72-.624 1.398-1.176.914-1.582Zm.031.004L8.84 5.695l-.922 1.59-1.406 1.18-1.723.629H2.953l-1.726-.63L-.18 7.286l-.918-1.59-.32-1.808.32-1.809.918-1.59 1.407-1.18 1.726-.628H4.79l1.723.629L7.918.489l.922 1.59Zm0 0L8.84 2.078 7.918.488 6.512-.692 4.789-1.32H2.953l-1.726.629L-.18.489l-.918 1.59-.32 1.808.32 1.808.918 1.59 1.407 1.18 1.726.629H4.79l1.723-.63 1.406-1.179.922-1.59Zm.031.004-.32 1.816-.922 1.602-1.414 1.183-1.734.633H2.953L1.22 8.492-.195 7.31l-.922-1.602-.32-1.816.32-1.817.922-1.597L1.219-.711l1.734-.629h1.844l1.734.63L7.945.476l.922 1.597Zm0 0-.32-1.817L7.945.477 6.531-.711 4.797-1.34H2.953L1.22-.71-.195.476l-.922 1.597-.32 1.817.32 1.816.922 1.602 1.414 1.183 1.734.633h1.844l1.734-.633L7.945 7.31l.922-1.602Zm.032.007-.32 1.825-.93 1.605L6.55 8.52l-1.742.636H2.953L1.211 8.52-.211 7.328l-.926-1.605-.324-1.825.324-1.828L-.21.465 1.211-.727l1.742-.632H4.81l1.742.632L7.969.465l.93 1.605Zm0 0-.32-1.828-.93-1.605L6.55-.727l-1.742-.632H2.953l-1.742.632L-.211.465l-.926 1.605-.324 1.828.324 1.825.926 1.605L1.211 8.52l1.742.636H4.81L6.55 8.52l1.418-1.192.93-1.605Zm.031.004-.324 1.836-.93 1.614-1.43 1.195-1.75.637H2.953l-1.75-.637-1.43-1.195-.93-1.614-.323-1.836.324-1.836.93-1.613 1.43-1.2 1.75-.636h1.862l1.75.637 1.43 1.2.93 1.612Zm0 0-.324-1.836-.93-1.613-1.43-1.2-1.75-.636H2.953l-1.75.637-1.43 1.2-.93 1.612-.323 1.836.324 1.836.93 1.614 1.43 1.195 1.75.637h1.862l1.75-.637 1.43-1.195.93-1.614Zm.031.004L8.957 5.75 8.02 7.371 6.586 8.574l-1.758.64H2.953l-1.758-.64-1.433-1.203-.938-1.621-.324-1.844.324-1.844.938-1.62L1.195-.763l1.758-.64h1.875l1.758.64L8.02.441l.937 1.622Zm0 0-.324-1.844L8.02.442 6.586-.763l-1.758-.64H2.953l-1.758.64L-.238.441l-.938 1.622-.324 1.843.324 1.844.938 1.621 1.433 1.203 1.758.64h1.875l1.758-.64L8.02 7.371l.937-1.621Zm.031.008-.328 1.852-.937 1.629-1.442 1.207-1.77.644H2.954l-1.765-.644-1.442-1.207-.941-1.63-.325-1.85.325-1.856.941-1.63L1.188-.776l1.765-.645h1.883l1.77.645L8.045.43l.938 1.629Zm0 0L8.985 2.06 8.047.429 6.605-.776l-1.77-.645H2.954l-1.765.645L-.254.43l-.941 1.629-.325 1.855.325 1.852.941 1.629 1.442 1.207 1.765.644h1.883l1.77-.644 1.44-1.207.938-1.63Zm.032.004-.328 1.86-.946 1.64-1.449 1.215-1.773.644H2.957L1.18 8.633-.27 7.418l-.945-1.64-.328-1.86.328-1.863L-.27.418 1.18-.797l1.777-.644h1.89l1.774.644L8.071.418l.945 1.637Zm0 0-.328-1.863L8.07.418 6.621-.797 4.848-1.44H2.957L1.18-.797-.27.418l-.945 1.637-.328 1.863.328 1.86.945 1.64 1.45 1.215 1.777.644h1.89l1.774-.644 1.45-1.215.945-1.64Zm.031.004-.332 1.871-.95 1.644L6.642 8.66l-1.786.649H2.957L1.172 8.66-.285 7.437l-.95-1.644-.327-1.871.328-1.871.949-1.645L1.172-.813l1.785-.652h1.898l1.786.653L8.094.406l.949 1.645Zm0 0L9.043 2.05 8.093.406 6.642-.813l-1.786-.652H2.957l-1.785.653L-.285.406l-.95 1.645-.327 1.87.328 1.872.949 1.644L1.172 8.66l1.785.649h1.898l1.786-.649 1.453-1.223.949-1.644Zm.031.008-.332 1.879-.953 1.652-1.46 1.226-1.798.653H2.957l-1.793-.652-1.46-1.227-.958-1.652-.328-1.88.328-1.882.957-1.652L1.164-.832l1.793-.652h1.906l1.797.652L8.121.395l.953 1.652Zm0 0-.332-1.883L8.121.395 6.661-.832l-1.798-.652H2.957l-1.793.652L-.296.395l-.958 1.652-.328 1.883.328 1.879.957 1.652 1.461 1.226 1.793.653h1.906l1.797-.652L8.121 7.46l.953-1.652Zm.031.004L9.106 5.82l-.96 1.66-1.47 1.235-1.8.656H2.957l-1.8-.656-1.47-1.235-.957-1.66-.335-1.886.335-1.891.958-1.66 1.468-1.23 1.801-.657h1.918l1.8.656 1.47 1.23.96 1.661Zm0 0-.332-1.891-.96-1.66-1.47-1.23-1.8-.657H2.957l-1.8.656-1.47 1.23-.957 1.661-.335 1.89.335 1.887.958 1.66 1.468 1.235 1.801.656h1.918l1.8-.656 1.47-1.235.96-1.66Zm.032.003-.336 1.899-.961 1.668-1.477 1.238-1.812.66H2.957l-1.809-.66-1.476-1.238-.961-1.668-.336-1.899.336-1.894.96-1.672L1.149-.863l1.809-.66h1.926l1.812.66L8.172.37l.96 1.672Zm0 0-.336-1.894L8.172.371 6.695-.863l-1.812-.66H2.957l-1.809.66L-.328.37l-.961 1.672-.336 1.894.336 1.899.96 1.668 1.477 1.238 1.809.66h1.926l1.812-.66 1.477-1.238.96-1.668Zm.031.008-.336 1.903-.969 1.675L6.711 8.77l-1.816.66H2.957l-1.816-.66-1.485-1.247-.965-1.675-.336-1.903.336-1.906.965-1.676L1.141-.883l1.816-.66h1.938l1.816.66L8.195.363l.97 1.676Zm0 0L9.164 2.04 8.195.363 6.711-.883l-1.816-.66H2.957l-1.816.66L-.344.363l-.965 1.676-.336 1.906.336 1.903.965 1.675L1.141 8.77l1.816.66h1.938l1.816-.66 1.484-1.247.97-1.675Zm.031.004-.34 1.914-.972 1.684-1.489 1.25-1.828.664H2.961l-1.828-.664-1.488-1.25-.973-1.684-.34-1.914.34-1.914.973-1.683 1.488-1.25 1.828-.668h1.941l1.828.668L8.22.352l.972 1.683Zm0 0-.34-1.914L8.22.352 6.73-.898l-1.828-.668H2.961l-1.828.668L-.355.352l-.973 1.683-.34 1.914.34 1.914.973 1.684 1.488 1.25 1.828.664h1.941l1.828-.664 1.489-1.25.972-1.684Zm.031.004-.34 1.926-.976 1.691L6.75 8.824l-1.836.668H2.961l-1.836-.668L-.371 7.57l-.977-1.691-.34-1.926.34-1.922L-.37.34 1.125-.918l1.836-.668h1.953l1.836.668L8.246.34l.977 1.691Zm0 0-.34-1.922L8.247.34 6.75-.918l-1.836-.668H2.961l-1.836.668L-.371.34l-.977 1.691-.34 1.922.34 1.926.977 1.691 1.496 1.254 1.836.668h1.953l1.836-.668L8.246 7.57l.977-1.691Zm.032.004L9.25 5.891 8.27 7.59 6.766 8.852l-1.844.671H2.96l-1.844-.671L-.387 7.59l-.98-1.7-.34-1.933.34-1.93.98-1.699L1.117-.934l1.844-.671h1.96l1.845.671L8.27.328l.98 1.7Zm0 0-.344-1.93L8.27.328 6.766-.934l-1.844-.671H2.96l-1.844.671L-.387.328l-.98 1.7-.34 1.929.34 1.934.98 1.699 1.504 1.262 1.844.671h1.96l1.845-.671L8.27 7.59l.98-1.7Zm.031.008-.344 1.941-.984 1.707L6.785 8.88l-1.851.676H2.96l-1.852-.676-1.511-1.266-.985-1.707-.343-1.941.343-1.942.985-1.707 1.511-1.27 1.852-.671h1.973l1.851.672L8.297.317l.984 1.706Zm0 0-.344-1.942L8.297.316 6.785-.954l-1.851-.671H2.96l-1.852.672L-.402.317l-.985 1.706-.343 1.942.343 1.941.985 1.707L1.109 8.88l1.852.676h1.973l1.851-.676 1.512-1.266.984-1.707Zm.031.004-.344 1.949-.992 1.715-1.515 1.273-1.864.68h-1.98l-1.86-.68-1.515-1.273-.992-1.715-.344-1.95.344-1.948.992-1.715L1.102-.97l1.859-.676h1.98l1.864.676L8.32.305l.992 1.715Zm0 0-.344-1.95L8.32.306 6.805-.97 4.94-1.645h-1.98L1.1-.969-.413.305l-.992 1.715-.344 1.949.344 1.949.992 1.715 1.516 1.273 1.859.68h1.98l1.864-.68L8.32 7.633l.992-1.715Zm.031.004-.347 1.96-.996 1.723L6.82 8.934l-1.867.683H2.965l-1.871-.683L-.43 7.656l-.996-1.722-.344-1.961.344-1.957L-.43.293 1.094-.984l1.87-.684h1.99l1.866.684L8.344.293l.996 1.723Zm0 0L9.34 2.016 8.344.293 6.82-.984l-1.867-.684H2.965l-1.871.684L-.43.293l-.996 1.723-.344 1.957.344 1.96.996 1.723 1.524 1.278 1.87.683h1.99l1.866-.683 1.524-1.278.996-1.722Zm.028.007L9.37 5.95l-1 1.73L6.84 8.96l-1.88.685H2.966l-1.88-.684-1.53-1.281-1-1.73-.348-1.97.348-1.968 1-1.73 1.53-1.286 1.88-.683H4.96l1.879.683L8.37.281l1 1.73Zm0 0L9.37 2.012l-1-1.73L6.84-1.005l-1.88-.683H2.966l-1.88.683L-.444.281l-1 1.73-.348 1.97.348 1.968 1 1.73 1.53 1.282 1.88.684H4.96L6.84 8.96 8.37 7.68l1-1.73Zm.031.004-.348 1.977-1.003 1.738-1.536 1.293-1.886.684H2.965l-1.887-.684L-.46 7.7l-1.004-1.738-.347-1.977.347-1.976L-.46.27l1.54-1.29 1.886-.687h2.008l1.886.687L8.395.27l1.003 1.738Zm0 0-.348-1.976L8.395.27 6.859-1.02l-1.886-.687H2.965l-1.887.687L-.46.27l-1.004 1.738-.347 1.976.347 1.977L-.46 7.699l1.54 1.293 1.886.684h2.008l1.886-.684L8.395 7.7l1.003-1.738Zm.031.004L9.43 5.977 8.422 7.723 6.875 9.02l-1.895.687H2.965L1.07 9.02-.473 7.723-1.48 5.977l-.352-1.989.352-1.984L-.473.258 1.07-1.04l1.895-.688H4.98l1.895.688L8.422.258 9.43 2.004Zm0 0L9.43 2.004 8.422.258 6.875-1.04 4.98-1.727H2.965l-1.895.688L-.473.258-1.48 2.004l-.352 1.984.352 1.989 1.007 1.746L1.07 9.02l1.895.687H4.98l1.895-.687 1.547-1.297L9.43 5.977Zm.032.008-.352 1.992-1.012 1.754-1.55 1.305-1.903.691H2.965l-1.902-.691-1.551-1.305L-1.5 5.988l-.352-1.992L-1.5 2-.488.246l1.55-1.3 1.903-.692h2.027l1.903.691L8.445.246 9.457 2Zm0 0L9.457 2 8.445.246l-1.55-1.3-1.903-.692H2.965l-1.902.691L-.488.246-1.5 2l-.352 1.996.352 1.992 1.012 1.754 1.55 1.305 1.903.691h2.027l1.903-.691 1.55-1.305 1.012-1.754Zm.03.004-.35 2.004-1.016 1.762-1.559 1.308L5 9.77H2.965l-1.91-.696-1.559-1.308-1.016-1.762L-1.875 4l.355-2.004L-.504.234l1.559-1.308 1.91-.696H5l1.914.696L8.473.234l1.015 1.762Zm0 0-.35-2.004L8.472.234 6.914-1.074 5-1.77H2.965l-1.91.696L-.504.234-1.52 1.996-1.875 4l.355 2.004 1.016 1.762 1.559 1.308 1.91.696H5l1.914-.696 1.559-1.308 1.015-1.762Zm.032.004L9.516 6.02l-1.02 1.77L6.93 9.101 5.012 9.8H2.969l-1.922-.7L-.52 7.79l-1.02-1.77-.355-2.015.356-2.012L-.52.222 1.046-1.09l1.922-.7h2.043l1.918.7L8.496.223l1.02 1.77Zm0 0-.355-2.012-1.02-1.77L6.93-1.09l-1.918-.7H2.969l-1.922.7L-.52.223l-1.02 1.77-.355 2.01.356 2.017 1.02 1.77 1.566 1.312 1.922.699h2.043l1.918-.7L8.496 7.79l1.02-1.77Zm.031.008-.355 2.02L8.52 7.808l-1.57 1.32-1.93.703H2.969l-1.93-.703-1.57-1.32L-1.56 6.03l-.355-2.02.355-2.023L-.53.211l1.57-1.316 1.93-.704h2.05l1.93.704L8.52.21l1.028 1.777Zm0 0-.355-2.024L8.52.211 6.95-1.105 5.02-1.81H2.969l-1.93.704L-.53.21-1.56 1.988l-.355 2.024.355 2.02L-.53 7.808l1.57 1.32 1.93.703h2.05l1.93-.703 1.57-1.32L9.548 6.03Zm.032.004-.356 2.03-1.031 1.786-1.582 1.324-1.934.703H2.97L1.03 9.156-.547 7.832l-1.031-1.785-.36-2.031.36-2.032L-.547.2l1.578-1.324 1.938-.703H5.03l1.934.703L8.547.199l1.031 1.785Zm0 0-.356-2.032L8.547.2 6.965-1.125 5.03-1.828H2.97l-1.938.703L-.547.199l-1.031 1.785-.36 2.032.36 2.03 1.031 1.786 1.578 1.324 1.938.703H5.03l1.934-.703 1.582-1.324 1.031-1.785Zm.03.004-.359 2.039L8.57 7.852 6.984 9.184 5.04 9.89H2.97l-1.946-.707-1.585-1.332-1.036-1.793-.359-2.04.36-2.039L-.563.188l1.585-1.329 1.946-.707h2.07l1.945.707L8.57.188 9.605 1.98Zm0 0-.359-2.04L8.57.188 6.984-1.141 5.04-1.848H2.97l-1.946.707L-.562.188-1.598 1.98l-.359 2.04.36 2.039 1.035 1.793 1.585 1.332 1.946.707h2.07l1.945-.707L8.57 7.852l1.035-1.793Zm.032.007-.36 2.047-1.038 1.801-1.594 1.336-1.953.71H2.969l-1.953-.71-1.594-1.336-1.04-1.8-.359-2.048.36-2.047L-.578.18l1.594-1.34 1.953-.711H5.05l1.953.71L8.598.18 9.637 1.98Zm0 0-.36-2.047L8.599.18 7.004-1.16 5.05-1.871H2.969l-1.953.71L-.578.18l-1.04 1.801-.359 2.047.36 2.047 1.039 1.801 1.594 1.336 1.953.71H5.05l1.953-.71 1.594-1.336 1.039-1.8Zm.031.004L9.664 6.09 8.621 7.898 7.02 9.238l-1.961.715h-2.09l-1.961-.715-1.598-1.34-1.047-1.808L-2 4.03l.363-2.054L-.59.168l1.598-1.344 1.96-.715h2.09l1.962.715L8.62.168l1.043 1.809Zm0 0-.363-2.054L8.621.168 7.02-1.176 5.059-1.89h-2.09l-1.961.715L-.59.168l-1.047 1.809L-2 4.03l.363 2.059L-.59 7.898l1.598 1.34 1.96.715h2.09l1.962-.715 1.601-1.34L9.664 6.09Zm.032.004-.364 2.067-1.05 1.816-1.606 1.348-1.969.718H2.973L1 9.266-.605 7.918l-1.051-1.816-.364-2.067.364-2.062L-.606.156 1-1.19l1.973-.72H5.07l1.97.72L8.644.156l1.05 1.817Zm0 0-.364-2.062L8.645.156 7.039-1.19l-1.969-.72H2.973L1-1.19-.605.156l-1.051 1.817-.364 2.062.364 2.067 1.05 1.816L1 9.266l1.973.718H5.07l1.97-.718 1.605-1.348 1.05-1.816Zm.03.008-.366 2.074-1.051 1.824-1.613 1.352-1.98.723H2.972l-1.98-.723-1.614-1.352-1.055-1.824-.363-2.074.363-2.074L-.62.145.992-1.211l1.98-.719h2.106l1.98.72L8.673.144l1.05 1.824Zm0 0-.366-2.074L8.672.145 7.059-1.211l-1.98-.719H2.972l-1.98.72L-.622.144l-1.055 1.824-.363 2.074.363 2.074L-.62 7.941.992 9.293l1.98.723h2.106l1.98-.723 1.614-1.352 1.05-1.824Zm.032.004-.367 2.082L8.695 7.96l-1.62 1.36-1.99.726H2.974L.984 9.32l-1.62-1.36-1.055-1.831-.371-2.082.37-2.082L-.636.133l1.621-1.36 1.989-.726h2.113l1.988.726L8.695.133l1.059 1.832Zm0 0-.367-2.082L8.695.133l-1.62-1.36-1.99-.726H2.974l-1.989.726-1.62 1.36-1.055 1.832-.371 2.082.37 2.082L-.636 7.96.984 9.32l1.989.726h2.113l1.988-.727 1.621-1.36L9.754 6.13Zm.031.004-.367 2.094-1.062 1.84-1.63 1.363-1.995.726H2.973L.977 9.348-.648 7.984l-1.063-1.84-.371-2.093.371-2.09L-.648.12.977-1.246l1.996-.727h2.125l1.996.727L8.723.12l1.062 1.84Zm0 0-.367-2.09L8.723.12l-1.63-1.367-1.995-.727H2.973l-1.996.727L-.648.12l-1.063 1.84-.371 2.09.371 2.094 1.063 1.84L.977 9.347l1.996.726h2.125l1.996-.726 1.629-1.364 1.062-1.84Zm.032.008L9.813 6.16 8.746 8.004 7.113 9.379l-2.008.726H2.973L.969 9.38-.664 8.004-1.73 6.16l-.372-2.101.372-2.102L-.664.109.969-1.26l2.004-.731h2.132l2.008.73L8.746.11l1.066 1.848Zm0 0-.371-2.102L8.746.109 7.113-1.26l-2.008-.731H2.973l-2.004.73L-.664.11-1.73 1.957l-.372 2.102.372 2.101 1.066 1.844L.969 9.379l2.004.726h2.132l2.008-.726 1.633-1.375L9.812 6.16Zm.03.003-.37 2.11L8.77 8.027l-1.641 1.38-2.012.73h-2.14L.96 9.407l-1.64-1.38-1.071-1.855-.371-2.11.371-2.109L-.68.098l1.64-1.38 2.017-.73h2.14l2.012.73 1.64 1.38 1.075 1.855Zm0 0-.37-2.109L8.77.098l-1.641-1.38-2.012-.73h-2.14l-2.016.73L-.68.099-1.75 1.953l-.371 2.11.371 2.109 1.07 1.855 1.64 1.38 2.017.73h2.14l2.012-.73 1.64-1.38 1.075-1.855Zm.032.004-.375 2.122L8.797 8.05 7.148 9.434l-2.023.734H2.977L.953 9.434-.695 8.05-1.77 6.187l-.375-2.12.375-2.118L-.695.086.953-1.297l2.024-.734h2.148l2.023.734L8.797.086 9.87 1.949Zm0 0L9.871 1.95 8.797.086 7.148-1.297 5.125-2.03H2.977l-2.024.734L-.695.086-1.77 1.949l-.375 2.117.375 2.122L-.695 8.05.953 9.434l2.024.734h2.148l2.023-.734L8.797 8.05 9.87 6.187Zm.031.008L9.902 6.2 8.82 8.07 7.168 9.46l-2.031.74h-2.16L.945 9.46-.707 8.07-1.789 6.2l-.375-2.126.375-2.129L-.707.075.945-1.313l2.032-.743h2.16l2.031.743L8.82.073l1.082 1.871Zm0 0-.375-2.129L8.82.075 7.168-1.313l-2.031-.743h-2.16l-2.032.743L-.707.073l-1.082 1.871-.375 2.13.375 2.124L-.707 8.07.945 9.46l2.032.74h2.16l2.031-.74L8.82 8.07 9.902 6.2Zm.032.004-.38 2.137-1.081 1.879-1.664 1.394-2.04.742H2.978l-2.04-.742-1.66-1.394-1.086-1.88-.375-2.136.375-2.137L-.723.063l1.66-1.395 2.04-.742h2.168l2.039.742L8.848.063 9.93 1.94Zm0 0-.38-2.137L8.849.063 7.184-1.332l-2.04-.742H2.978l-2.04.742L-.722.063-1.809 1.94l-.375 2.137.375 2.137 1.086 1.879 1.66 1.394 2.04.742h2.168l2.039-.742 1.664-1.394 1.082-1.88Zm.03.004L9.962 6.23 8.87 8.113 7.203 9.516l-2.047.746h-2.18L.93 9.516-.738 8.113l-1.09-1.883-.379-2.148.379-2.144L-.738.05.93-1.348l2.047-.746h2.18l2.046.746L8.871.051l1.09 1.887Zm0 0-.378-2.144L8.87.05 7.203-1.348l-2.047-.746h-2.18L.93-1.348-.738.051l-1.09 1.887-.379 2.144.379 2.148 1.09 1.883L.93 9.516l2.047.746h2.18l2.046-.746 1.668-1.403 1.09-1.883Zm.032.008-.383 2.152-1.093 1.895-1.672 1.406-2.059.746H2.977L.922 9.543-.754 8.137l-1.094-1.895-.379-2.152.38-2.156L-.755.039.922-1.367l2.055-.746h2.187l2.059.746L8.895.039l1.093 1.895Zm0 0-.383-2.156L8.895.039 7.223-1.367l-2.059-.746H2.977l-2.055.746L-.754.039l-1.094 1.895-.379 2.156.38 2.152 1.093 1.895L.922 9.543l2.055.746h2.187l2.059-.746 1.672-1.406 1.093-1.895Zm.031.004-.382 2.164L8.922 8.16 7.238 9.57l-2.062.75H2.98L.914 9.57-.77 8.16l-1.097-1.902-.38-2.164.38-2.164L-.77.027l1.684-1.41 2.066-.75h2.196l2.062.75L8.922.027 10.02 1.93Zm0 0L10.02 1.93 8.922.027l-1.684-1.41-2.062-.75H2.98l-2.066.75L-.77.027-1.867 1.93l-.38 2.164.38 2.164L-.77 8.16.914 9.57l2.066.75h2.196l2.062-.75 1.684-1.41 1.098-1.902Zm.032.004L10.05 6.27 8.945 8.18 7.258 9.598l-2.074.754H2.98L.906 9.598-.78 8.18l-1.106-1.91-.383-2.172.383-2.172L-.78.016.906-1.398l2.074-.758h2.204l2.074.758L8.945.016l1.106 1.91Zm0 0-.383-2.172L8.945.016 7.258-1.398l-2.074-.758H2.98l-2.074.758L-.78.016l-1.106 1.91-.383 2.172.383 2.172L-.78 8.18.906 9.598l2.074.754h2.204l2.074-.754L8.945 8.18l1.106-1.91Zm.03.007-.386 2.18-1.105 1.918-1.7 1.422-2.078.758H2.98L.898 9.625-.797 8.203l-1.105-1.918-.387-2.18.387-2.183L-.797.004.898-1.418l2.082-.758h2.215l2.078.758 1.7 1.422 1.105 1.918Zm0 0-.386-2.183L8.973.004l-1.7-1.422-2.078-.758H2.98l-2.082.758L-.797.004l-1.105 1.918-.387 2.183.387 2.18 1.105 1.918L.898 9.625l2.082.758h2.215l2.078-.758 1.7-1.422 1.105-1.918Zm.032.004-.387 2.188-1.113 1.926-1.703 1.43-2.09.761H2.98L.89 9.652l-1.703-1.43-1.109-1.925-.387-2.188.387-2.191 1.11-1.922L.89-1.434l2.09-.761h2.222l2.09.761 1.703 1.43 1.113 1.922Zm0 0-.387-2.191L8.996-.004l-1.703-1.43-2.09-.761H2.98l-2.09.761-1.703 1.43-1.109 1.922-.387 2.191.387 2.188 1.11 1.926L.89 9.653l2.09.761h2.222l2.09-.762 1.703-1.43 1.113-1.925Zm.027.004-.386 2.2-1.114 1.933-1.71 1.434-2.098.765H2.98L.883 9.68-.828 8.246l-1.113-1.934-.391-2.199.39-2.195L-.827-.016l1.71-1.437 2.098-.762h2.235l2.098.762 1.71 1.437 1.114 1.934Zm0 0-.386-2.195L9.023-.016l-1.71-1.437-2.098-.762H2.98l-2.097.762L-.828-.016l-1.113 1.934-.391 2.195.39 2.2 1.114 1.933L.882 9.68l2.098.765h2.235l2.098-.765 1.71-1.434 1.114-1.934Zm.032.008-.387 2.207L9.047 8.27 7.328 9.707l-2.105.77H2.98l-2.105-.77L-.84 8.27l-1.12-1.942-.392-2.207.391-2.207L-.84-.027.875-1.47l2.105-.765h2.243l2.105.765L9.047-.027l1.121 1.941Zm0 0-.387-2.207L9.047-.027 7.328-1.47l-2.105-.765H2.98L.875-1.47-.84-.027l-1.12 1.941-.392 2.207.391 2.207L-.84 8.27.875 9.707l2.105.77h2.243l2.105-.77L9.047 8.27l1.121-1.942Zm.03.004-.39 2.215L9.07 8.29 7.348 9.733l-2.114.774h-2.25L.867 9.734-.855 8.29-1.98 6.34l-.391-2.214.39-2.215L-.854-.04.867-1.487l2.117-.77h2.25l2.114.77L9.07-.04l1.125 1.95Zm0 0-.39-2.215L9.07-.04 7.348-1.487l-2.114-.77h-2.25l-2.117.77L-.855-.04-1.98 1.91l-.391 2.214.39 2.215 1.126 1.95L.867 9.733l2.117.774h2.25l2.114-.774L9.07 8.29l1.125-1.95Zm.032.004-.39 2.226-1.13 1.957-1.73 1.454-2.125.77H2.984L.86 9.765-.87 8.313-2 6.355l-.39-2.226.39-2.223L-.871-.05l1.73-1.453 2.125-.773h2.258l2.125.773L9.097-.05l1.13 1.957Zm0 0-.39-2.223L9.097-.05l-1.73-1.453-2.125-.773H2.984L.86-1.504-.87-.05-2 1.906l-.39 2.223.39 2.226 1.129 1.957 1.73 1.454 2.125.77h2.258l2.125-.77 1.73-1.453 1.13-1.958Zm.031.008-.39 2.23L9.12 8.332 7.383 9.793l-2.13.773H2.985L.852 9.793-.887 8.332-2.02 6.367l-.394-2.23.394-2.235L-.887-.062.852-1.52l2.132-.777h2.27l2.129.777L9.12-.062l1.137 1.964Zm0 0-.39-2.235L9.12-.062 7.383-1.52l-2.13-.777H2.985L.852-1.52-.887-.062-2.02 1.902l-.394 2.235.394 2.23 1.133 1.965L.852 9.793l2.132.773h2.27l2.129-.773L9.12 8.332l1.137-1.965Zm.032.004-.395 2.242-1.137 1.972L7.402 9.82l-2.14.778H2.984L.844 9.82-.898 8.355-2.04 6.383l-.395-2.242.395-2.243L-.9-.074.845-1.54l2.14-.777h2.278l2.14.777L9.148-.074l1.137 1.972Zm0 0-.395-2.243L9.148-.074 7.402-1.54l-2.14-.777H2.984l-2.14.777L-.898-.074-2.04 1.898l-.395 2.243.395 2.242L-.9 8.355.845 9.82l2.14.778h2.278l2.14-.778 1.746-1.465 1.137-1.972Zm.03.004-.394 2.253-1.144 1.98-1.75 1.47-2.149.78H2.984l-2.148-.78-1.75-1.47-1.145-1.98-.394-2.253.394-2.25 1.145-1.98 1.75-1.47 2.148-.78h2.29l2.148.78 1.75 1.47 1.144 1.98Zm0 0-.394-2.25-1.144-1.98-1.75-1.47-2.149-.78H2.984l-2.148.78-1.75 1.47-1.145 1.98-.394 2.25.394 2.253 1.145 1.98 1.75 1.47 2.148.78h2.29l2.148-.78 1.75-1.47 1.144-1.98Zm.032.007-.398 2.258-1.149 1.988-1.758 1.477-2.156.785H2.984L.828 9.875-.93 8.398-2.078 6.41l-.399-2.258.399-2.261L-.93-.098.828-1.574l2.156-.785h2.297l2.157.785L9.195-.098l1.149 1.989Zm0 0-.398-2.261L9.195-.098 7.437-1.574 5.281-2.36H2.984l-2.156.785L-.93-.098l-1.148 1.989-.399 2.261.399 2.258L-.93 8.398.828 9.875l2.156.785h2.297l2.157-.785 1.757-1.477 1.149-1.988Zm.031.004-.398 2.27-1.152 1.996-1.766 1.48-2.164.79H2.988L.82 9.901l-1.765-1.48-1.153-1.996-.398-2.27.398-2.27L-.945-.108.82-1.59l2.168-.79h2.305l2.164.79L9.223-.11l1.152 1.996ZM.82 7.473V.84h6.637v6.633Zm0 0"/></g></g></svg>