<svg xmlns="http://www.w3.org/2000/svg" width="87.347" height="80.174"><defs><clipPath id="a"><path d="M0 2h64v77.762H0Zm0 0"/></clipPath></defs><path fill="none" stroke="#7F7F7F" stroke-miterlimit="10" stroke-width=".199" d="M29.227 43.117h56.695M29.227 14.77h56.695M29.227 43.117V.597m28.347 42.52V.597m28.34 42.52V.597"/><g clip-path="url(#a)"><path fill="none" stroke="#000" stroke-miterlimit="10" stroke-width=".399" d="M57.574 43.117c0-19.57-12.691-35.433-28.347-35.433C13.574 7.684.883 23.547.883 43.117s12.691 35.434 28.344 35.434c15.656 0 28.347-15.864 28.347-35.434Zm0 0"/></g><path d="M36.203 38.133a1.993 1.993 0 0 0-3.984 0c0 1.101.89 1.996 1.992 1.996a1.996 1.996 0 0 0 1.992-1.996m-14.945 0a1.993 1.993 0 1 0-1.992 1.996 1.994 1.994 0 0 0 1.992-1.996m0 0"/><path fill="red" d="M53.355 20.98a1.993 1.993 0 1 0-3.983.002 1.993 1.993 0 0 0 3.983-.002M4.902 29.957a1.99 1.99 0 0 0-1.992-1.992 1.99 1.99 0 0 0-1.992 1.992 1.99 1.99 0 0 0 1.992 1.992 1.99 1.99 0 0 0 1.992-1.992m0 0"/></svg>