<svg xmlns="http://www.w3.org/2000/svg" width="30.36" height="35.786"><defs><clipPath id="a"><path d="M19 0h11.04v10H19Zm0 0"/></clipPath><clipPath id="b"><path d="M16 9h14.04v16H16Zm0 0"/></clipPath><clipPath id="c"><path d="M14 22h16.04v13.68H14Zm0 0"/></clipPath></defs><path fill="none" stroke="#000" stroke-miterlimit="10" stroke-width=".399" d="M.688 2.723h25.285"/><path d="m28.469 2.723-3.57-1.348 1.171 1.348-1.172 1.343Zm0 0"/><g clip-path="url(#a)"><path fill="none" stroke="#000" stroke-miterlimit="10" stroke-width=".399" d="m28.469 2.723-3.57-1.348 1.171 1.348-1.172 1.343Zm0 0"/></g><path fill="none" stroke="#000" stroke-miterlimit="10" stroke-width=".399" d="M.688 16.895h23.671"/><path d="m28.469 16.895-5.961-2.243 1.949 2.243-1.95 2.242Zm0 0"/><g clip-path="url(#b)"><path fill="none" stroke="#000" stroke-miterlimit="10" stroke-width=".399" d="m28.469 16.895-5.961-2.243 1.949 2.243-1.95 2.242Zm0 0"/></g><path fill="none" stroke="#000" stroke-miterlimit="10" stroke-width=".399" d="M.688 31.07h22.054"/><path d="m28.469 31.07-8.356-3.14 2.73 3.14-2.73 3.137Zm0 0"/><g clip-path="url(#c)"><path fill="none" stroke="#000" stroke-miterlimit="10" stroke-width=".399" d="m28.469 31.07-8.356-3.14 2.73 3.14-2.73 3.137Zm0 0"/></g></svg>