<svg xmlns="http://www.w3.org/2000/svg" width="87.466" height="59.114"><defs><clipPath id="a"><path d="M0 0h87.2v58.672H0Zm0 0"/></clipPath></defs><path fill="none" stroke="#7F7F7F" stroke-miterlimit="10" stroke-width=".199" d="M.95 57.469h85.042M.95 29.12h85.043M.95.785h85.043M.95 57.47V.773M29.297 57.47V.773M57.645 57.47V.773M85.98 57.47V.773"/><g clip-path="url(#a)"><path fill="none" stroke="#000" stroke-miterlimit="10" stroke-width=".399" d="M71.816.773H15.125C7.297.773.949 7.117.949 14.945v28.348c0 7.828 6.348 14.176 14.176 14.176h56.691c7.829 0 14.176-6.348 14.176-14.176V14.945c0-7.828-6.347-14.172-14.176-14.172Zm0 0"/></g></svg>