<svg xmlns="http://www.w3.org/2000/svg" xmlns:xlink="http://www.w3.org/1999/xlink" width="466.222" height="267.182"><defs><path id="a" d="M3.328-3.016c.063-.25.297-1.171.985-1.171.046 0 .296 0 .5.125a.58.58 0 0 0-.47.546c0 .157.11.344.376.344a.546.546 0 0 0 .531-.578c0-.516-.578-.656-.922-.656-.578 0-.922.531-1.047.75-.25-.656-.781-.75-1.078-.75-1.031 0-1.61 1.281-1.61 1.531 0 .11.11.11.126.11.078 0 .11-.032.125-.11.344-1.062 1-1.312 1.344-1.312.187 0 .53.093.53.671 0 .313-.171.97-.53 2.375-.157.61-.516 1.032-.954 1.032-.062 0-.28 0-.5-.125.25-.063.47-.266.47-.547 0-.266-.22-.344-.36-.344-.313 0-.547.25-.547.578 0 .453.484.656.922.656.672 0 1.031-.703 1.047-.75.125.36.484.75 1.078.75 1.031 0 1.594-1.28 1.594-1.53 0-.11-.079-.11-.11-.11-.094 0-.11.047-.14.11-.329 1.077-1 1.312-1.313 1.312-.39 0-.547-.313-.547-.657 0-.218.047-.437.156-.875Zm0 0"/><path id="b" d="M4.844-3.797c.047-.14.047-.156.047-.234 0-.172-.141-.266-.297-.266a.46.46 0 0 0-.344.203c-.016.063-.11.36-.14.547-.079.25-.141.531-.204.797L3.453-.953c-.031.14-.469.844-1.125.844-.5 0-.61-.438-.61-.813 0-.453.173-1.078.5-1.953.157-.406.204-.516.204-.719 0-.437-.313-.812-.813-.812-.953 0-1.312 1.453-1.312 1.531 0 .11.094.11.11.11.109 0 .109-.032.156-.188.28-.938.671-1.235 1.015-1.235.078 0 .25 0 .25.313 0 .25-.11.516-.172.703-.406 1.063-.578 1.625-.578 2.094 0 .89.625 1.187 1.219 1.187.39 0 .719-.171 1-.453-.125.516-.25 1.016-.64 1.547-.266.328-.641.625-1.094.625-.141 0-.594-.031-.766-.422.156 0 .297 0 .422-.125a.5.5 0 0 0 .203-.406c0-.312-.266-.344-.36-.344C.829.531.5.687.5 1.171c0 .5.438.876 1.063.876 1.015 0 2.046-.906 2.328-2.031Zm0 0"/><path id="g" d="M4.75-2.36c0-1.562-.922-2.046-1.656-2.046-1.375 0-2.688 1.422-2.688 2.828C.406-.641 1 .109 2.031.109c.625 0 1.344-.234 2.094-.843.125.53.453.843.906.843.532 0 .844-.546.844-.703 0-.078-.062-.11-.125-.11-.062 0-.094.032-.125.11-.187.485-.547.485-.562.485-.313 0-.313-.782-.313-1.016 0-.203 0-.234.11-.344C5.796-2.656 6-3.812 6-3.812c0-.032-.016-.11-.125-.11-.094 0-.094.031-.14.219-.188.625-.516 1.375-.985 1.969ZM4.094-.983c-.89.765-1.657.875-2.047.875-.594 0-.906-.453-.906-1.094 0-.484.265-1.563.578-2.063.468-.734 1.015-.921 1.36-.921.983 0 .983 1.312.983 2.078 0 .375 0 .953.032 1.125m0 0"/><path id="G" d="M2.64-3.719h1.126c-.328 1.469-.422 1.906-.422 2.578 0 .141 0 .407.078.75.11.438.219.5.36.5.202 0 .421-.171.421-.375 0-.062 0-.078-.062-.218-.297-.72-.297-1.375-.297-1.657 0-.515.078-1.062.187-1.578h1.125c.14 0 .5 0 .5-.344 0-.234-.218-.234-.406-.234H1.906c-.218 0-.593 0-1.031.469-.344.39-.61.844-.61.89 0 .016 0 .11.126.11.078 0 .093-.047.156-.125.484-.766 1.062-.766 1.265-.766h.563c-.312 1.203-.844 2.407-1.266 3.313-.078.156-.078.172-.078.25 0 .187.157.265.282.265.296 0 .375-.28.5-.64.14-.469.14-.485.265-.985Zm0 0"/><path id="H" d="M4.375-7.094c.047-.14.047-.172.047-.187 0-.11-.078-.203-.188-.203-.078 0-.14.03-.171.093l-3.47 9.5c-.046.141-.046.172-.046.188 0 .11.094.203.203.203.125 0 .156-.078.219-.25Zm0 0"/><path id="T" d="M1.906-.531a.534.534 0 0 0-.515-.531.537.537 0 0 0-.532.53.524.524 0 1 0 1.047 0m0 0"/><path id="c" d="M6.563-2.297c.171 0 .359 0 .359-.203 0-.187-.188-.187-.36-.187h-5.39c-.172 0-.344 0-.344.187 0 .203.172.203.344.203Zm0 0"/><path id="ad" d="M3.875 8.516 2.125 4.64c-.078-.157-.125-.157-.156-.157 0 0-.063 0-.172.079l-.938.718c-.125.11-.125.125-.125.157 0 .062.016.109.094.109.063 0 .235-.14.344-.219.047-.047.203-.156.312-.234l1.97 4.312c.062.156.108.156.202.156.156 0 .188-.046.25-.187L8.437 0C8.5-.14 8.5-.172 8.5-.203a.206.206 0 0 0-.203-.203c-.078 0-.14.062-.219.219Zm0 0"/><path id="d" d="M2.938-6.375c0-.25 0-.266-.235-.266C2.078-6 1.203-6 .891-6v.313c.203 0 .78 0 1.297-.266v5.172c0 .36-.032.469-.922.469H.953V0c.344-.031 1.203-.031 1.61-.031.39 0 1.265 0 1.609.031v-.312h-.313c-.906 0-.921-.11-.921-.47Zm0 0"/><path id="h" d="M2.078-1.937c.219.046 1.031.203 1.031.921 0 .5-.343.907-1.125.907-.843 0-1.203-.563-1.39-1.422-.031-.125-.031-.157-.14-.157-.126 0-.126.063-.126.235v1.328c0 .172 0 .234.11.234C.484.11.5.094.688-.094.703-.109.703-.125.89-.312c.437.406.89.421 1.093.421 1.141 0 1.61-.671 1.61-1.39 0-.516-.297-.828-.422-.938-.328-.328-.719-.406-1.14-.484-.563-.11-1.22-.235-1.22-.813 0-.359.25-.765 1.11-.765 1.094 0 1.156.906 1.172 1.203 0 .094.094.094.11.094.14 0 .14-.047.14-.235v-1.015c0-.157 0-.235-.11-.235-.046 0-.078 0-.203.125-.031.032-.125.125-.172.157-.375-.282-.78-.282-.937-.282-1.219 0-1.594.672-1.594 1.235 0 .343.156.625.422.843.328.25.61.313 1.328.454m0 0"/><path id="i" d="m1.766-4.406-1.391.11v.312c.64 0 .734.062.734.547V-.75c0 .438-.109.438-.78.438V0c.312-.016.859-.031 1.093-.031.36 0 .703.015 1.047.031v-.312c-.672 0-.703-.047-.703-.438Zm.03-1.735a.514.514 0 0 0-.515-.53.537.537 0 0 0-.531.53c0 .266.219.532.531.532a.514.514 0 0 0 .516-.532m0 0"/><path id="j" d="M1.094-3.422V-.75c0 .438-.11.438-.782.438V0c.36-.016.86-.031 1.141-.031.25 0 .766.015 1.11.031v-.312c-.672 0-.782 0-.782-.438v-1.844c0-1.031.719-1.594 1.344-1.594.64 0 .75.532.75 1.11V-.75c0 .438-.11.438-.781.438V0c.344-.016.86-.031 1.125-.031.25 0 .781.015 1.11.031v-.312c-.516 0-.766 0-.766-.297v-1.907c0-.859 0-1.156-.313-1.515-.14-.172-.469-.375-1.047-.375-.734 0-1.203.422-1.484 1.047v-1.047l-1.406.11v.312c.703 0 .78.062.78.562m0 0"/><path id="k" d="M1.172-2.172c0-1.625.812-2.047 1.344-2.047.093 0 .718.016 1.062.375-.406.031-.469.328-.469.453 0 .266.188.454.454.454.265 0 .468-.157.468-.47 0-.671-.765-1.062-1.531-1.062C1.25-4.469.344-3.39.344-2.156c0 1.281.984 2.265 2.14 2.265 1.329 0 1.657-1.203 1.657-1.296 0-.094-.11-.094-.141-.094-.078 0-.11.031-.125.093C3.594-.265 2.938-.14 2.578-.14c-.531 0-1.406-.421-1.406-2.03m0 0"/><path id="l" d="M4.688-2.14c0-1.266-.985-2.329-2.188-2.329C1.25-4.469.281-3.375.281-2.14A2.22 2.22 0 0 0 2.484.11c1.204 0 2.204-.984 2.204-2.25M2.5-.14c-.437 0-.875-.204-1.14-.672-.25-.438-.25-1.047-.25-1.407 0-.39 0-.922.234-1.36a1.35 1.35 0 0 1 1.14-.671c.438 0 .86.219 1.125.656.266.422.266 1 .266 1.375 0 .36 0 .906-.219 1.344-.234.453-.672.734-1.156.734m0 0"/><path id="m" d="M1.719-3.984h1.437v-.313H1.72v-1.828h-.25c0 .813-.297 1.875-1.281 1.922v.219h.843v2.75c0 1.218.938 1.343 1.297 1.343.703 0 .985-.703.985-1.343v-.563h-.25v.547c0 .734-.297 1.11-.672 1.11-.672 0-.672-.907-.672-1.079Zm0 0"/><path id="n" d="M3.313-.75c.046.39.312.813.78.813.22 0 .829-.141.829-.954v-.562h-.25v.562c0 .579-.25.641-.36.641-.328 0-.375-.453-.375-.5v-1.984c0-.422 0-.813-.359-1.188-.39-.39-.89-.547-1.36-.547-.827 0-1.515.469-1.515 1.125 0 .297.203.469.469.469a.435.435 0 0 0 .453-.453c0-.125-.047-.453-.516-.453.282-.36.766-.469 1.079-.469.5 0 1.062.39 1.062 1.281v.36c-.516.03-1.203.062-1.828.359-.75.344-1 .86-1 1.297 0 .812.969 1.062 1.594 1.062.656 0 1.109-.406 1.297-.859M3.25-2.39v1c0 .937-.719 1.28-1.172 1.28-.484 0-.89-.343-.89-.843 0-.547.421-1.375 2.062-1.438m0 0"/><path id="o" d="M6.844-3.266c.156 0 .343 0 .343-.187 0-.203-.187-.203-.328-.203H.891c-.141 0-.328 0-.328.203 0 .187.187.187.328.187Zm.015 1.938c.141 0 .329 0 .329-.203 0-.188-.188-.188-.344-.188H.89c-.141 0-.328 0-.328.188 0 .203.187.203.328.203Zm0 0"/><path id="y" d="M2.89-3.516c.813-.265 1.391-.953 1.391-1.75 0-.812-.875-1.375-1.828-1.375-1 0-1.765.594-1.765 1.36 0 .328.218.515.515.515s.5-.218.5-.515c0-.485-.469-.485-.61-.485.298-.5.954-.625 1.313-.625.422 0 .969.22.969 1.11 0 .125-.031.703-.281 1.14-.297.485-.64.516-.89.516a3 3 0 0 1-.392.031c-.078.016-.14.031-.14.125 0 .11.062.11.234.11h.438c.812 0 1.187.672 1.187 1.656 0 1.36-.687 1.64-1.125 1.64S1.22-.233.875-.812c.344.047.656-.171.656-.546a.537.537 0 0 0-.547-.563c-.25 0-.562.14-.562.578C.422-.437 1.344.22 2.437.22c1.22 0 2.126-.906 2.126-1.922 0-.813-.641-1.594-1.672-1.813m0 0"/><path id="z" d="M4.578-3.187c0-.797-.047-1.594-.39-2.329C3.734-6.484 2.906-6.64 2.5-6.64c-.61 0-1.328.266-1.75 1.188-.312.687-.36 1.469-.36 2.266 0 .75.032 1.64.454 2.406a1.83 1.83 0 0 0 1.64 1c.532 0 1.297-.203 1.735-1.156.312-.688.36-1.47.36-2.25M2.484 0c-.39 0-.984-.25-1.156-1.203-.11-.594-.11-1.516-.11-2.11 0-.64 0-1.296.079-1.828.187-1.187.937-1.28 1.187-1.28.329 0 .985.187 1.172 1.171.11.563.11 1.313.11 1.938 0 .75 0 1.421-.11 2.062C3.5-.297 2.937 0 2.484 0m0 0"/><path id="I" d="M1.313-3.266v-.25c0-2.515 1.234-2.875 1.75-2.875.234 0 .656.063.874.407-.156 0-.546 0-.546.437 0 .313.234.469.453.469.156 0 .469-.094.469-.484 0-.594-.438-1.079-1.266-1.079C1.766-6.64.422-5.359.422-3.156.422-.484 1.578.219 2.5.219c1.11 0 2.063-.938 2.063-2.25 0-1.266-.891-2.219-2-2.219-.672 0-1.047.5-1.25.984M2.5-.062c-.625 0-.922-.594-.984-.75-.188-.47-.188-1.266-.188-1.438 0-.781.328-1.781 1.219-1.781.172 0 .625 0 .937.625.172.36.172.875.172 1.36 0 .483 0 .983-.172 1.343-.296.594-.75.64-.984.64m0 0"/><path id="S" d="m1.266-.766 1.062-1.03c1.547-1.376 2.14-1.907 2.14-2.907 0-1.14-.89-1.938-2.109-1.938C1.234-6.64.5-5.719.5-4.828c0 .547.5.547.531.547.172 0 .516-.11.516-.532a.513.513 0 0 0-.531-.515c-.079 0-.094 0-.125.016.218-.657.765-1.016 1.343-1.016.907 0 1.329.812 1.329 1.625 0 .797-.485 1.578-1.047 2.203L.609-.375C.5-.265.5-.235.5 0h3.703l.266-1.734h-.235C4.172-1.437 4.11-1 4-.844c-.062.078-.719.078-.937.078Zm0 0"/><path id="Y" d="M4.078-2.297H6.86c.141 0 .329 0 .329-.203 0-.187-.188-.187-.329-.187H4.08v-2.797c0-.141 0-.328-.204-.328s-.203.187-.203.328v2.797H.89c-.141 0-.328 0-.328.187 0 .203.187.203.328.203h2.78V.5c0 .14 0 .328.204.328S4.078.641 4.078.5Zm0 0"/><path id="ac" d="M2.938-1.64v.859c0 .36-.032.469-.766.469h-.203V0c.406-.031.922-.031 1.344-.031.421 0 .937 0 1.359.031v-.312h-.219c-.734 0-.75-.11-.75-.47v-.859h.985v-.312h-.985v-4.531c0-.203 0-.266-.172-.266-.078 0-.11 0-.187.125L.28-1.953v.312Zm.046-.313H.563l2.421-3.719Zm0 0"/><path id="e" d="M2.328-4.437c0-.188 0-.188-.203-.188-.453.438-1.078.438-1.36.438v.25c.157 0 .626 0 1-.188v3.547c0 .234 0 .328-.687.328H.812V0c.125 0 .985-.031 1.235-.031.219 0 1.094.031 1.25.031v-.25H3.03c-.703 0-.703-.094-.703-.328Zm0 0"/><path id="f" d="M3.516-1.266H3.28c-.015.157-.094.563-.187.625-.047.047-.578.047-.688.047H1.125c.734-.64.984-.843 1.39-1.172.516-.406 1-.843 1-1.5 0-.843-.734-1.359-1.624-1.359-.86 0-1.453.61-1.453 1.25 0 .344.296.39.375.39.156 0 .359-.124.359-.374 0-.125-.047-.375-.406-.375.218-.485.687-.641 1.015-.641.703 0 1.063.547 1.063 1.11 0 .609-.438 1.078-.656 1.328L.516-.266C.437-.203.437-.187.437 0h2.876Zm0 0"/><path id="p" d="m7.547-4.328-.203-2.406H.625L.422-4.328H.89c.093-1.125.187-1.938 1.625-1.938h.765v5.797H1.75V0c.547-.031 1.656-.031 2.234-.031.594 0 1.704 0 2.235.031v-.469H4.687v-5.797h.766c1.422 0 1.531.797 1.625 1.938Zm0 0"/><path id="q" d="M6.125 0v-.469h-.687v-2.578c0-1.047-.532-1.437-1.532-1.437a1.9 1.9 0 0 0-1.687.953v-3.39l-1.766.077v.469c.61 0 .688 0 .688.39v5.516H.453V0l1.25-.031L2.953 0v-.469h-.687v-2.078c0-1.094.859-1.578 1.5-1.578.328 0 .547.203.547.969V-.47h-.688V0l1.25-.031Zm0 0"/><path id="r" d="M4.922-1.172c0-.172-.188-.172-.234-.172-.172 0-.188.047-.25.203-.204.485-.782.797-1.422.797-1.407 0-1.422-1.328-1.422-1.828h3.015c.22 0 .313 0 .313-.265 0-.313-.063-1.047-.563-1.547-.359-.36-.89-.532-1.578-.532C1.187-4.516.313-3.484.313-2.25c0 1.344 1 2.313 2.609 2.313 1.578 0 2-1.063 2-1.235M3.984-2.5h-2.39c.015-.39.031-.812.234-1.14.266-.391.672-.516.953-.516 1.172 0 1.188 1.312 1.203 1.656m0 0"/><path id="s" d="M5.516-.234c0-.235-.125-.235-.266-.235-.61-.015-.61-.14-.61-.375v-2.14c0-.891-.702-1.532-2.187-1.532-.562 0-1.781.047-1.781.922 0 .438.344.625.61.625.312 0 .624-.219.624-.625 0-.297-.187-.469-.218-.5a5 5 0 0 1 .718-.062c.75 0 1.11.422 1.11 1.172v.343c-.72.032-3.25.125-3.25 1.563C.266-.125 1.5.062 2.188.062c.796 0 1.265-.406 1.484-.828 0 .313 0 .766 1.047.766h.468c.204 0 .329 0 .329-.234m-2-1.157c0 .97-.922 1.094-1.172 1.094-.516 0-.906-.344-.906-.797 0-1.062 1.578-1.203 2.078-1.234Zm0 0"/><path id="t" d="M6.125 0v-.469h-.687v-2.578c0-1.047-.532-1.437-1.532-1.437-.953 0-1.484.562-1.75 1.078v-1.078l-1.703.078v.468c.61 0 .688 0 .688.391v3.078H.453V0l1.25-.031L2.953 0v-.469h-.687v-2.078c0-1.094.859-1.578 1.5-1.578.328 0 .547.203.547.969V-.47h-.688V0l1.25-.031Zm0 0"/><path id="u" d="M5.563-3.953c0-.235-.172-.578-.625-.578-.157 0-.625.031-1.063.375-.172-.125-.594-.328-1.328-.328-1.438 0-1.985.78-1.985 1.468 0 .407.188.829.516 1.047-.281.36-.344.688-.344.89 0 .157.047.642.438.954-.125.031-.86.25-.86.875C.313 1.25.876 2 2.86 2 4.625 2 5.406 1.422 5.406.719c0-.297-.078-.922-.75-1.266-.562-.281-1.156-.281-2.11-.281-.265 0-.718 0-.765-.016a.625.625 0 0 1-.562-.625c0-.093.047-.25.11-.328.452.234.968.266 1.218.266 1.437 0 1.984-.782 1.984-1.485 0-.468-.25-.796-.406-.953.297-.156.516-.172.625-.187a.43.43 0 0 0-.047.203c0 .25.172.422.438.422a.41.41 0 0 0 .422-.422m-2.141.937c0 .454 0 1.125-.875 1.125s-.875-.671-.875-1.125c0-.437 0-1.109.875-1.109s.875.672.875 1.11M4.547.75c0 .36-.39.89-1.688.89-1.187 0-1.687-.452-1.687-.906 0-.609.625-.609.766-.609h1.171c.313 0 1.438 0 1.438.625m0 0"/><path id="v" d="M2.922 0v-.469h-.688v-6.453L.47-6.844v.469c.625 0 .687 0 .687.39v5.516H.47V0l1.219-.031Zm0 0"/><path id="w" d="M2.844 0v-.469h-.61v-4.015L.5-4.406v.468c.594 0 .656 0 .656.391v3.078H.47V0l1.219-.031Zm-.469-6.047a.774.774 0 0 0-.781-.781.784.784 0 0 0-.782.781c0 .422.36.766.782.766a.77.77 0 0 0 .781-.766m0 0"/><path id="x" d="M4.14-1.39c0-.438-.202-.782-.546-1.063-.39-.281-.719-.344-1.485-.485-.375-.062-1.015-.171-1.015-.64 0-.625.922-.625 1.11-.625.75 0 1.124.297 1.171.844.016.156.031.203.234.203.235 0 .235-.047.235-.281v-.797c0-.188 0-.282-.172-.282-.047 0-.063 0-.453.188-.266-.125-.61-.188-1-.188-.313 0-1.844 0-1.844 1.313 0 .39.203.656.406.828.39.344.782.406 1.547.547.36.062 1.094.187 1.094.781 0 .75-.906.75-1.125.75C1.234-.297.984-1.03.859-1.453c-.046-.14-.109-.14-.234-.14-.25 0-.25.062-.25.28v1.094c0 .188 0 .282.188.282.062 0 .078 0 .296-.157l.25-.172c.47.329.985.329 1.188.329.312 0 1.844 0 1.844-1.454m0 0"/><path id="B" d="M3.813-1.234v-.532h-.47v.516c0 .672-.327.906-.609.906-.578 0-.578-.64-.578-.86v-2.75h1.469v-.468H2.156v-1.906h-.469c0 1-.484 1.984-1.484 2.016v.359h.828v2.734c0 1.063.86 1.282 1.578 1.282.75 0 1.204-.579 1.204-1.297m0 0"/><path id="C" d="M5.828 0v-.469h-.703L3.453-2.453 4.61-3.75c.141-.14.204-.203 1.016-.203v-.469l-.906.031-1.032-.03v.468c.141 0 .266.015.376.078-.032.063-.032.094-.079.125l-.828.938-.984-1.141h.406v-.469L1.36-4.39.266-4.42v.468h.718l1.547 1.828L1.22-.656c-.157.187-.516.187-1 .187V0l.922-.031L2.156 0v-.469c-.172 0-.36-.047-.36-.11 0 0 0-.015.063-.093l.97-1.094L3.921-.469h-.39V0l1.202-.031Zm0 0"/><path id="D" d="M9.328 0v-.469h-.687v-2.578c0-1.031-.516-1.437-1.547-1.437-.907 0-1.422.5-1.688.953-.187-.922-1.11-.953-1.484-.953-.875 0-1.438.453-1.766 1.078v-1.078l-1.703.078v.468c.61 0 .688 0 .688.391v3.078H.453V0l1.25-.031L2.953 0v-.469h-.687v-2.078c0-1.094.875-1.578 1.5-1.578.328 0 .547.203.547.969V-.47h-.688V0l1.266-.031L6.14 0v-.469h-.688v-2.078c0-1.094.86-1.578 1.484-1.578.344 0 .563.203.563.969V-.47h-.687V0l1.25-.031Zm0 0"/><path id="E" d="M5.984-2.219c0-1.328-.906-2.265-2.343-2.265-.75 0-1.282.312-1.5.484v-.484l-1.766.078v.468c.61 0 .688 0 .688.376v5.03H.375v.47l1.25-.032 1.25.032v-.47h-.687V-.39a2 2 0 0 0 1.28.454c1.5 0 2.516-.907 2.516-2.282m-1.28 0C4.703-.813 4-.297 3.358-.297c-.14 0-.609 0-1.062-.547-.11-.125-.11-.14-.11-.328v-2.11c0-.187.016-.202.157-.343.39-.406.922-.469 1.14-.469.657 0 1.22.61 1.22 1.875m0 0"/><path id="F" d="M3.813 2.344c0-.047-.032-.094-.032-.094-.297-.281-.937-.89-1.36-2.156-.265-.797-.374-1.703-.374-2.594 0-1.953.5-3.516 1.61-4.625.14-.156.155-.156.155-.219 0-.11-.109-.14-.187-.14-.172 0-.578.375-.766.547C1.313-5.391 1.08-3.562 1.08-2.5c0 1.25.327 2.344.796 3.172.656 1.14 1.563 1.812 1.75 1.812.078 0 .188-.03.188-.14m0 0"/><path id="J" d="M4.406-3.672c0-.531-.531-.812-1.062-.812-.688 0-1.094.5-1.313 1.125v-1.125l-1.656.078v.468c.61 0 .688 0 .688.391v3.078H.375V0l1.25-.031C2-.031 2.641-.031 3 0v-.469h-.86v-1.75c0-.687.235-1.906 1.235-1.906 0 0-.187.172-.187.453 0 .406.328.61.609.61.297 0 .61-.204.61-.61m0 0"/><path id="K" d="M5.984 0v-.469c-.609 0-.687 0-.687-.39v-6.063l-1.766.078v.469c.625 0 .703 0 .703.39v1.954a2.18 2.18 0 0 0-1.359-.453c-1.453 0-2.5.875-2.5 2.28 0 1.313.922 2.267 2.39 2.267.61 0 1.094-.235 1.407-.485v.485ZM4.172-1.031c-.14.187-.547.734-1.297.734-1.219 0-1.219-1.203-1.219-1.906 0-.485 0-1.016.25-1.406.297-.422.766-.516 1.078-.516.563 0 .97.313 1.188.61Zm0 0"/><path id="L" d="M3.375-2.5c0-1.234-.328-2.328-.797-3.156C1.906-6.813 1-7.484.813-7.484c-.079 0-.172.03-.172.14 0 .063 0 .078.172.235C2.063-5.83 2.406-4.062 2.406-2.5c0 1.969-.515 3.531-1.61 4.64-.155.141-.155.157-.155.204 0 .11.093.14.172.14.171 0 .593-.375.765-.546C3.141.406 3.375-1.437 3.375-2.5m0 0"/><path id="M" d="M2.36-.781a.784.784 0 0 0-.782-.781.78.78 0 0 0-.766.78.774.774 0 1 0 1.547 0m0 0"/><path id="N" d="M5.406-2.172c0-1.344-.922-2.344-2.547-2.344C1.22-4.516.313-3.5.313-2.172c0 1.235.89 2.235 2.546 2.235 1.672 0 2.547-1.016 2.547-2.235m-1.281-.11c0 .86 0 1.938-1.266 1.938-1.265 0-1.265-1.078-1.265-1.937 0-.453 0-.953.172-1.297.187-.375.609-.578 1.093-.578.422 0 .844.156 1.063.5.203.344.203.89.203 1.375m0 0"/><path id="O" d="M4.36-6.11c0-.421-.36-.874-1.141-.874-.969 0-2.047.422-2.047 1.547v1.015h-.75v.469h.75V-.47H.484V0l1.25-.031c.375 0 1.016 0 1.375.031v-.469H2.25v-3.484h1.14v-.469H2.188v-1.016c0-1.093.75-1.187 1-1.187.047 0 .11 0 .172.031a.59.59 0 0 0-.234.485c0 .422.36.609.61.609.296 0 .624-.203.624-.61m0 0"/><path id="P" d="M2.5-.312c0-.672-.344-1.25-.922-1.25-.469 0-.766.359-.766.78 0 .407.266.782.766.782a.84.84 0 0 0 .563-.203C2.047.89 1.406 1.422 1.203 1.594c-.062.047-.094.078-.094.14 0 .094.11.204.188.204.156 0 1.203-.86 1.203-2.25m0 0"/><path id="Q" d="M8.031-3.953v-.469a13 13 0 0 1-.781.031l-.953-.03v.468c.094 0 .578 0 .578.11 0 .03-.031.093-.031.124L5.797-1.172l-1.14-2.781h.562v-.469l-1.14.031c-.423 0-.845-.03-1-.03v.468h.593c.203.5.203.531.203.531 0 .031-.031.094-.031.125L3.047-1.39 2-3.953h.563v-.469l-1.235.031L.25-4.42v.468h.594L2.359-.234c.079.172.11.28.36.28s.297-.108.36-.28L4.14-2.812 5.188-.235c.078.172.109.28.359.28s.297-.108.36-.28L7.343-3.75c.047-.125.093-.203.687-.203m0 0"/><path id="R" d="M4.766-1.172c0-.14-.141-.14-.235-.14-.187 0-.187.03-.25.156-.25.625-.734.812-1.234.812-1.39 0-1.39-1.453-1.39-1.922 0-.562 0-1.843 1.28-1.843.36 0 .516.015.657.046a.62.62 0 0 0-.203.47c0 .437.343.624.609.624.313 0 .64-.219.64-.625 0-.86-1.156-.922-1.734-.922C1.11-4.516.375-3.375.375-2.219.375-.89 1.313.063 2.844.063c1.625 0 1.922-1.157 1.922-1.235m0 0"/><path id="U" d="M7.5-1.86c0-.952-.844-1.624-2.031-1.702 1.078-.204 1.718-.797 1.718-1.563 0-.922-.875-1.719-2.468-1.719H.39v.469h1.078v5.906H.39V0h4.625C6.672 0 7.5-.875 7.5-1.86M5.766-5.124c0 .766-.47 1.39-1.438 1.39H2.766v-2.64h1.812c1.016 0 1.188.797 1.188 1.25m.28 3.266c0 .109 0 1.39-1.437 1.39H2.766v-2.906h1.937c.203 0 .672 0 1.016.422.328.422.328.984.328 1.094m0 0"/><path id="V" d="M5.781-3.953v-.469A13 13 0 0 1 5-4.39l-.906-.03v.468s.468 0 .468.11L4.5-3.72 3.36-1.266 2.093-3.953h.531v-.469l-1.234.031-1.125-.03v.468H.89L2.766 0 2.53.484C2.312.954 2 1.641 1.281 1.641c-.14 0-.156-.016-.234-.047.094-.032.312-.172.312-.532C1.36.734 1.125.5.781.5a.553.553 0 0 0-.562.578c0 .5.469.922 1.062.922.766 0 1.344-.625 1.625-1.187l2.14-4.563c.063-.14.095-.203.735-.203m0 0"/><path id="W" d="M7.188-4.89c0-1.094-.985-1.954-2.641-1.954H.39v.469h1.078v5.906H.39V0C.766-.031 1.75-.031 2.17-.031c.438 0 1.407 0 1.782.031v-.469H2.875v-2.547h1.766c1.39 0 2.547-.718 2.547-1.875m-1.532 0c0 .702 0 1.468-1.5 1.468H2.828v-2.953h1.344c1.484 0 1.484.766 1.484 1.484m0 0"/><path id="X" d="M5.781-3.953v-.469c-.25.016-.531.031-.781.031l-.906-.03v.468c.187 0 .468.031.468.11 0 0 0 .015-.046.109l-1.157 2.5-1.265-2.72h.531v-.468l-1.234.031-1.125-.03v.468H.89l1.75 3.75c.125.25.25.25.375.25.172 0 .28-.031.375-.25L5.047-3.75c.062-.14.094-.203.734-.203m0 0"/><path id="Z" d="M6.125 0v-.469c-.61 0-.687 0-.687-.39v-3.625l-1.813.078v.468c.61 0 .688 0 .688.391v1.906c0 .813-.516 1.344-1.235 1.344-.781 0-.812-.25-.812-.797v-3.39l-1.813.078v.468c.61 0 .688 0 .688.391v2.328c0 1.063.797 1.282 1.797 1.282.25 0 .968 0 1.421-.782v.782Zm0 0"/><path id="aa" d="M5.984-2.219c0-1.328-.937-2.265-2.39-2.265-.719 0-1.219.28-1.453.484v-2.922l-1.766.078v.469c.61 0 .688 0 .688.39V0h.468c.157-.187.328-.375.485-.562.078.078.562.625 1.453.625 1.484 0 2.515-.907 2.515-2.282m-1.28 0c0 .469 0 1.016-.25 1.406-.298.407-.75.516-1.079.516-.687 0-1.078-.547-1.187-.687v-2.5c.28-.36.75-.641 1.296-.641 1.22 0 1.22 1.203 1.22 1.906m0 0"/><path id="A" d="M3.531-1.734c0-.844-.672-1.5-1.5-1.5s-1.5.672-1.5 1.484a1.5 1.5 0 0 0 1.5 1.5c.844 0 1.5-.672 1.5-1.484m-1.5 1.14A1.157 1.157 0 1 1 3.187-1.75c0 .656-.515 1.156-1.156 1.156m0 0"/><path id="ab" d="M4.234 11.563c.297 0 .313-.016.407-.204L10.094-.016c.078-.14.078-.156.078-.187a.197.197 0 0 0-.203-.203c-.125 0-.172.094-.219.203L4.61 10.53 2.483 5.578l-1.39 1.078.156.157.703-.547Zm0 0"/></defs><path fill="none" stroke="#7F7F7F" stroke-linecap="round" stroke-miterlimit="10" stroke-width=".199" d="M9.316 223.055h238.11M9.316 180.53h238.11m-238.11-42.52h238.11M9.316 95.493h238.11M9.316 52.972h238.11M43.332 257.07V18.957m42.52 238.113V18.957m42.52 238.113V18.957M170.89 257.07V18.957m42.52 238.113V18.957"/><path fill="none" stroke="#000" stroke-linecap="round" stroke-miterlimit="10" stroke-width=".399" d="M213.41 138.012c0-46.965-38.07-85.04-85.039-85.04s-85.039 38.075-85.039 85.04c0 46.968 38.07 85.043 85.04 85.043 46.968 0 85.038-38.075 85.038-85.043ZM.809 138.012H255.53"/><path fill="none" stroke="#000" stroke-linecap="round" stroke-linejoin="round" stroke-miterlimit="10" stroke-width=".399" d="M253.66 135.621c.38 1.434 1.223 2.113 2.07 2.39-.847.282-1.69.958-2.07 2.391"/><use xlink:href="#a" x="259.45" y="140.158"/><path fill="none" stroke="#000" stroke-linecap="round" stroke-miterlimit="10" stroke-width=".399" d="M128.371 265.574V10.852"/><path fill="none" stroke="#000" stroke-linecap="round" stroke-linejoin="round" stroke-miterlimit="10" stroke-width=".399" d="M125.98 12.723c1.434-.38 2.114-1.223 2.391-2.07.277.847.957 1.69 2.39 2.07"/><use xlink:href="#b" x="125.75" y="4.997"/><path fill="none" stroke="#000" stroke-linecap="round" stroke-miterlimit="10" stroke-width=".399" d="M43.332 135.023V141"/><path fill="#FFF" d="M33.645 155.094h19.37v-13.895h-19.37Zm0 0"/><use xlink:href="#c" x="36.967" y="150.942"/><use xlink:href="#d" x="44.716" y="150.942"/><path fill="none" stroke="#000" stroke-linecap="round" stroke-miterlimit="10" stroke-width=".399" d="M85.852 135.023V141"/><path fill="#FFF" d="M75.477 159.695h20.75V141.2h-20.75Zm0 0"/><use xlink:href="#c" x="78.796" y="152.938"/><use xlink:href="#e" x="87.74" y="149.016"/><path fill="none" stroke="#000" stroke-miterlimit="10" stroke-width=".398" d="M87.738 150.45h3.973"/><use xlink:href="#f" x="87.74" y="156.374"/><path fill="none" stroke="#000" stroke-linecap="round" stroke-miterlimit="10" stroke-width=".399" d="M213.41 135.023V141"/><path fill="#FFF" d="M207.602 154.262h11.62v-13.063h-11.62Zm0 0"/><use xlink:href="#d" x="210.92" y="150.942"/><path fill="none" stroke="#000" stroke-linecap="round" stroke-miterlimit="10" stroke-width=".399" d="M131.36 223.055h-5.977"/><path fill="#FFF" d="M105.813 230h19.37v-13.89h-19.37Zm0 0"/><use xlink:href="#c" x="109.133" y="225.847"/><use xlink:href="#d" x="116.881" y="225.847"/><path fill="none" stroke="#000" stroke-linecap="round" stroke-miterlimit="10" stroke-width=".399" d="M131.36 180.531h-5.977"/><path fill="#FFF" d="M104.43 189.781h20.754v-18.496H104.43Zm0 0"/><use xlink:href="#c" x="107.752" y="183.023"/><use xlink:href="#e" x="116.696" y="179.101"/><path fill="none" stroke="#000" stroke-miterlimit="10" stroke-width=".398" d="M116.695 180.531h3.973"/><use xlink:href="#f" x="116.696" y="186.459"/><path fill="none" stroke="#000" stroke-linecap="round" stroke-miterlimit="10" stroke-width=".399" d="M131.36 95.492h-5.977"/><path fill="#FFF" d="M112.18 104.738h13.004V86.246H112.18Zm0 0"/><use xlink:href="#e" x="116.696" y="94.061"/><path fill="none" stroke="#000" stroke-miterlimit="10" stroke-width=".398" d="M116.695 95.492h3.973"/><use xlink:href="#f" x="116.696" y="101.419"/><path fill="none" stroke="#000" stroke-linecap="round" stroke-miterlimit="10" stroke-width=".399" d="M131.36 52.973h-5.977"/><path fill="#FFF" d="M113.559 59.504h11.625V46.44h-11.625Zm0 0"/><use xlink:href="#d" x="116.881" y="56.184"/><path fill="#CFC" stroke="#007F00" stroke-linecap="round" stroke-miterlimit="10" stroke-width=".399" d="M128.371 138.012h25.512c0-4.477-1.18-8.88-3.418-12.754"/><use xlink:href="#g" x="141.595" y="135.756" fill="#007F00"/><path fill="none" stroke="red" stroke-linecap="round" stroke-miterlimit="10" stroke-width="1.196" d="M202.02 95.492v42.52"/><path fill="#FFF" d="M173.48 123.398h26.946v-13.293H173.48Zm0 0"/><g fill="red"><use xlink:href="#h" x="176.801" y="120.08"/><use xlink:href="#i" x="180.73" y="120.08"/><use xlink:href="#j" x="183.498" y="120.08"/></g><use xlink:href="#g" x="190.693" y="120.08" fill="red"/><path fill="none" stroke="#00F" stroke-linecap="round" stroke-miterlimit="10" stroke-width="1.196" d="M128.371 138.012h73.649"/><path fill="#FFF" d="M151.168 151.535h28.05v-10.933h-28.05Zm0 0"/><g fill="#00F"><use xlink:href="#k" x="154.49" y="148.213"/><use xlink:href="#l" x="158.917" y="148.213"/><use xlink:href="#h" x="163.899" y="148.213"/></g><use xlink:href="#g" x="169.489" y="148.213" fill="#00F"/><path fill="none" stroke="#C60" stroke-linecap="round" stroke-miterlimit="10" stroke-width="1.196" d="m213.41 138.012.004-49.098"/><path fill="#FFF" d="M215.008 126.898h66.183v-26.87h-66.183Zm0 0"/><g fill="#C60"><use xlink:href="#m" x="218.326" y="116.743"/><use xlink:href="#n" x="222.2" y="116.743"/><use xlink:href="#j" x="227.182" y="116.743"/></g><use xlink:href="#g" x="234.377" y="116.743" fill="#C60"/><use xlink:href="#o" x="243.555" y="116.743"/><g fill="red"><use xlink:href="#h" x="255.82" y="110.003"/><use xlink:href="#i" x="259.749" y="110.003"/><use xlink:href="#j" x="262.517" y="110.003"/></g><use xlink:href="#g" x="269.712" y="110.003" fill="red"/><path fill="none" stroke="#000" stroke-miterlimit="10" stroke-width=".398" d="M255.266 114.254h21.41"/><g fill="#00F"><use xlink:href="#k" x="255.266" y="123.577"/><use xlink:href="#l" x="259.693" y="123.577"/><use xlink:href="#h" x="264.675" y="123.577"/></g><use xlink:href="#g" x="270.266" y="123.577" fill="#00F"/><path fill="none" stroke="#000" stroke-linecap="round" stroke-miterlimit="10" stroke-width=".399" d="m128.371 138.012 85.043-49.098"/><path fill="#FFE5E5" d="M460.84 34.832H289.879a3.986 3.986 0 0 0-3.984 3.984v198.391a3.987 3.987 0 0 0 3.984 3.988h170.96c2.2 0 3.985-1.785 3.985-3.988V38.817c0-2.2-1.785-3.985-3.984-3.985m0 0"/><use xlink:href="#p" x="290.317" y="46.171"/><use xlink:href="#q" x="298.287" y="46.171"/><use xlink:href="#r" x="304.653" y="46.171"/><g fill="#007F00"><use xlink:href="#s" x="313.224" y="46.171"/><use xlink:href="#t" x="318.793" y="46.171"/><use xlink:href="#u" x="325.159" y="46.171"/><use xlink:href="#v" x="330.888" y="46.171"/><use xlink:href="#r" x="334.066" y="46.171"/></g><use xlink:href="#g" x="342.637" y="46.171" fill="#007F00"/><use xlink:href="#w" x="352.368" y="46.171"/><use xlink:href="#x" x="355.546" y="46.171"/><use xlink:href="#y" x="363.389" y="46.171"/><use xlink:href="#z" x="368.37" y="46.171"/><use xlink:href="#A" x="373.352" y="42.555"/><use xlink:href="#w" x="381.252" y="46.171"/><use xlink:href="#t" x="384.43" y="46.171"/><use xlink:href="#B" x="394.114" y="46.171"/><use xlink:href="#q" x="398.567" y="46.171"/><use xlink:href="#r" x="404.933" y="46.171"/><use xlink:href="#r" x="413.501" y="46.171"/><use xlink:href="#C" x="418.751" y="46.171"/><use xlink:href="#s" x="424.799" y="46.171"/><use xlink:href="#D" x="430.368" y="46.171"/><use xlink:href="#E" x="439.912" y="46.171"/><use xlink:href="#v" x="446.278" y="46.171"/><use xlink:href="#r" x="449.456" y="46.171"/><use xlink:href="#F" x="290.317" y="58.126"/><use xlink:href="#G" x="294.771" y="58.126"/><use xlink:href="#H" x="300.798" y="58.126"/><use xlink:href="#I" x="305.788" y="58.126"/><use xlink:href="#w" x="314.09" y="58.126"/><use xlink:href="#t" x="317.268" y="58.126"/><use xlink:href="#J" x="326.952" y="58.126"/><use xlink:href="#s" x="331.674" y="58.126"/><use xlink:href="#K" x="337.243" y="58.126"/><use xlink:href="#w" x="343.609" y="58.126"/><use xlink:href="#s" x="346.787" y="58.126"/><use xlink:href="#t" x="352.356" y="58.126"/><use xlink:href="#x" x="358.723" y="58.126"/><use xlink:href="#L" x="363.246" y="58.126"/><use xlink:href="#M" x="367.699" y="58.126"/><use xlink:href="#p" x="375.858" y="58.126"/><use xlink:href="#q" x="383.828" y="58.126"/><use xlink:href="#r" x="390.195" y="58.126"/><g fill="red"><use xlink:href="#x" x="398.769" y="58.126"/><use xlink:href="#w" x="403.292" y="58.126"/><use xlink:href="#t" x="406.47" y="58.126"/><use xlink:href="#r" x="412.836" y="58.126"/></g><g fill="red"><use xlink:href="#N" x="421.404" y="58.126"/><use xlink:href="#O" x="427.133" y="58.126"/></g><use xlink:href="#g" x="433.953" y="58.126" fill="red"/><use xlink:href="#P" x="440.363" y="58.126"/><use xlink:href="#Q" x="290.317" y="70.081"/><use xlink:href="#q" x="298.596" y="70.081"/><use xlink:href="#w" x="304.962" y="70.081"/><use xlink:href="#R" x="308.14" y="70.081"/><use xlink:href="#q" x="312.912" y="70.081"/><use xlink:href="#w" x="322.596" y="70.081"/><use xlink:href="#x" x="325.774" y="70.081"/><use xlink:href="#B" x="333.615" y="70.081"/><use xlink:href="#q" x="338.068" y="70.081"/><use xlink:href="#r" x="344.434" y="70.081"/><use xlink:href="#q" x="353.002" y="70.081"/><use xlink:href="#r" x="359.368" y="70.081"/><use xlink:href="#w" x="364.618" y="70.081"/><use xlink:href="#u" x="367.796" y="70.081"/><use xlink:href="#q" x="373.525" y="70.081"/><use xlink:href="#B" x="379.582" y="70.081"/><use xlink:href="#N" x="387.353" y="70.081"/><use xlink:href="#O" x="393.082" y="70.081"/><use xlink:href="#B" x="399.896" y="70.081"/><use xlink:href="#q" x="404.349" y="70.081"/><use xlink:href="#r" x="410.716" y="70.081"/><use xlink:href="#J" x="419.283" y="70.081"/><use xlink:href="#r" x="424.006" y="70.081"/><use xlink:href="#K" x="429.256" y="70.081"/><use xlink:href="#v" x="438.95" y="70.081"/><use xlink:href="#w" x="442.128" y="70.081"/><use xlink:href="#t" x="445.306" y="70.081"/><use xlink:href="#r" x="451.672" y="70.081"/><use xlink:href="#P" x="456.922" y="70.081"/><use xlink:href="#w" x="290.317" y="82.036"/><use xlink:href="#x" x="293.495" y="82.036"/><g fill="red"><use xlink:href="#h" x="349.708" y="93.991"/><use xlink:href="#i" x="353.637" y="93.991"/><use xlink:href="#j" x="356.405" y="93.991"/></g><use xlink:href="#g" x="363.6" y="93.991" fill="red"/><use xlink:href="#o" x="372.778" y="93.991"/><use xlink:href="#d" x="383.287" y="93.991"/><use xlink:href="#H" x="388.275" y="93.991"/><use xlink:href="#S" x="393.256" y="93.991"/><use xlink:href="#T" x="398.238" y="93.991"/><use xlink:href="#U" x="290.317" y="111.924"/><use xlink:href="#V" x="298.466" y="111.924"/><use xlink:href="#B" x="307.831" y="111.924"/><use xlink:href="#q" x="312.285" y="111.924"/><use xlink:href="#r" x="318.651" y="111.924"/><use xlink:href="#p" x="327.219" y="111.924"/><use xlink:href="#q" x="335.189" y="111.924"/><use xlink:href="#r" x="341.555" y="111.924"/><use xlink:href="#N" x="346.805" y="111.924"/><use xlink:href="#J" x="352.534" y="111.924"/><use xlink:href="#r" x="357.256" y="111.924"/><use xlink:href="#D" x="362.506" y="111.924"/><use xlink:href="#N" x="375.368" y="111.924"/><use xlink:href="#O" x="381.097" y="111.924"/><use xlink:href="#W" x="387.921" y="111.924"/><use xlink:href="#V" x="395.752" y="111.924"/><use xlink:href="#B" x="401.799" y="111.924"/><use xlink:href="#q" x="406.252" y="111.924"/><use xlink:href="#s" x="412.618" y="111.924"/><use xlink:href="#u" x="418.187" y="111.924"/><use xlink:href="#N" x="423.916" y="111.924"/><use xlink:href="#J" x="429.645" y="111.924"/><use xlink:href="#s" x="434.367" y="111.924"/><use xlink:href="#x" x="439.936" y="111.924"/><use xlink:href="#Q" x="290.317" y="123.879"/><use xlink:href="#r" x="298.277" y="123.879"/><use xlink:href="#q" x="306.845" y="123.879"/><use xlink:href="#s" x="313.211" y="123.879"/><use xlink:href="#X" x="318.471" y="123.879"/><use xlink:href="#r" x="324.2" y="123.879"/><g fill="#00F"><use xlink:href="#k" x="332.764" y="123.879"/><use xlink:href="#l" x="337.191" y="123.879"/><use xlink:href="#h" x="342.173" y="123.879"/></g><use xlink:href="#f" x="346.103" y="120.264" fill="#00F"/><use xlink:href="#g" x="352.233" y="123.879" fill="#00F"/><use xlink:href="#Y" x="361.395" y="123.879"/><g fill="red"><use xlink:href="#h" x="371.897" y="123.879"/><use xlink:href="#i" x="375.826" y="123.879"/><use xlink:href="#j" x="378.594" y="123.879"/></g><use xlink:href="#f" x="384.129" y="119.689" fill="red"/><use xlink:href="#g" x="390.259" y="123.879" fill="red"/><use xlink:href="#o" x="400.784" y="123.879"/><use xlink:href="#d" x="412.638" y="123.879"/><use xlink:href="#M" x="417.628" y="123.879"/><use xlink:href="#p" x="425.787" y="123.879"/><use xlink:href="#q" x="433.758" y="123.879"/><use xlink:href="#Z" x="439.805" y="123.879"/><use xlink:href="#x" x="446.171" y="123.879"/><use xlink:href="#B" x="290.317" y="135.834"/><use xlink:href="#q" x="294.77" y="135.834"/><use xlink:href="#r" x="301.136" y="135.834"/><use xlink:href="#v" x="309.704" y="135.834"/><use xlink:href="#r" x="312.882" y="135.834"/><use xlink:href="#t" x="318.133" y="135.834"/><use xlink:href="#u" x="324.499" y="135.834"/><use xlink:href="#B" x="330.227" y="135.834"/><use xlink:href="#q" x="334.681" y="135.834"/><use xlink:href="#N" x="344.364" y="135.834"/><use xlink:href="#O" x="350.093" y="135.834"/><use xlink:href="#B" x="356.907" y="135.834"/><use xlink:href="#q" x="361.361" y="135.834"/><use xlink:href="#r" x="367.727" y="135.834"/><use xlink:href="#aa" x="376.305" y="135.834"/><use xlink:href="#v" x="382.671" y="135.834"/><use xlink:href="#Z" x="385.849" y="135.834"/><use xlink:href="#r" x="392.215" y="135.834"/><use xlink:href="#v" x="400.783" y="135.834"/><use xlink:href="#w" x="403.961" y="135.834"/><use xlink:href="#t" x="407.139" y="135.834"/><use xlink:href="#r" x="413.505" y="135.834"/><use xlink:href="#P" x="418.755" y="135.834"/><use xlink:href="#Q" x="425.251" y="135.834"/><use xlink:href="#q" x="433.53" y="135.834"/><use xlink:href="#w" x="439.896" y="135.834"/><use xlink:href="#R" x="443.074" y="135.834"/><use xlink:href="#q" x="447.856" y="135.834"/><use xlink:href="#w" x="290.317" y="147.79"/><use xlink:href="#x" x="293.495" y="147.79"/><use xlink:href="#B" x="301.336" y="147.79"/><use xlink:href="#q" x="305.789" y="147.79"/><use xlink:href="#r" x="312.155" y="147.79"/><g fill="#00F"><use xlink:href="#R" x="320.729" y="147.79"/><use xlink:href="#N" x="325.82" y="147.79"/><use xlink:href="#x" x="331.548" y="147.79"/><use xlink:href="#w" x="336.071" y="147.79"/><use xlink:href="#t" x="339.25" y="147.79"/><use xlink:href="#r" x="345.616" y="147.79"/></g><g fill="#00F"><use xlink:href="#N" x="354.184" y="147.79"/><use xlink:href="#O" x="359.912" y="147.79"/></g><use xlink:href="#g" x="366.733" y="147.79" fill="#00F"/><use xlink:href="#P" x="373.143" y="147.79"/><use xlink:href="#D" x="379.639" y="147.79"/><use xlink:href="#Z" x="388.874" y="147.79"/><use xlink:href="#x" x="395.24" y="147.79"/><use xlink:href="#B" x="399.763" y="147.79"/><use xlink:href="#aa" x="407.524" y="147.79"/><use xlink:href="#r" x="414.209" y="147.79"/><g fill="#00F"><use xlink:href="#k" x="319.13" y="169.707"/><use xlink:href="#l" x="323.557" y="169.707"/><use xlink:href="#h" x="328.539" y="169.707"/></g><use xlink:href="#g" x="334.129" y="169.707" fill="#00F"/><use xlink:href="#o" x="343.306" y="169.707"/><use xlink:href="#ab" x="353.822" y="160.703"/><path fill="none" stroke="#000" stroke-miterlimit="10" stroke-width=".398" d="M363.785 160.504h32.102"/><use xlink:href="#d" x="363.785" y="169.707"/><use xlink:href="#c" x="370.98" y="169.707"/><use xlink:href="#d" x="380.943" y="169.707"/><use xlink:href="#H" x="385.924" y="169.707"/><use xlink:href="#ac" x="390.906" y="169.707"/><use xlink:href="#o" x="398.647" y="169.707"/><use xlink:href="#e" x="410.366" y="165.785"/><path fill="none" stroke="#000" stroke-miterlimit="10" stroke-width=".398" d="M410.367 167.219h3.969"/><use xlink:href="#f" x="410.366" y="173.143"/><use xlink:href="#ad" x="415.533" y="161.466"/><path fill="none" stroke="#000" stroke-miterlimit="10" stroke-width=".398" d="M423.836 161.266h4.98"/><use xlink:href="#y" x="423.835" y="169.707"/><use xlink:href="#T" x="428.816" y="169.707"/><use xlink:href="#p" x="290.317" y="191.625"/><use xlink:href="#q" x="298.287" y="191.625"/><use xlink:href="#w" x="304.653" y="191.625"/><use xlink:href="#x" x="307.831" y="191.625"/><use xlink:href="#x" x="315.672" y="191.625"/><use xlink:href="#q" x="320.195" y="191.625"/><use xlink:href="#N" x="326.561" y="191.625"/><use xlink:href="#Q" x="331.981" y="191.625"/><use xlink:href="#x" x="340.26" y="191.625"/><use xlink:href="#B" x="348.09" y="191.625"/><use xlink:href="#q" x="352.544" y="191.625"/><use xlink:href="#s" x="358.91" y="191.625"/><use xlink:href="#B" x="364.479" y="191.625"/><g fill="#C60"><use xlink:href="#m" x="372.259" y="191.625"/><use xlink:href="#n" x="376.133" y="191.625"/><use xlink:href="#j" x="381.115" y="191.625"/></g><use xlink:href="#g" x="388.31" y="191.625" fill="#C60"/><use xlink:href="#P" x="394.72" y="191.625"/><use xlink:href="#Q" x="401.216" y="191.625"/><use xlink:href="#q" x="409.495" y="191.625"/><use xlink:href="#w" x="415.861" y="191.625"/><use xlink:href="#R" x="419.039" y="191.625"/><use xlink:href="#q" x="423.821" y="191.625"/><use xlink:href="#w" x="433.495" y="191.625"/><use xlink:href="#x" x="436.673" y="191.625"/><use xlink:href="#B" x="290.317" y="203.58"/><use xlink:href="#q" x="294.77" y="203.58"/><use xlink:href="#r" x="301.136" y="203.58"/><use xlink:href="#q" x="309.704" y="203.58"/><use xlink:href="#r" x="316.07" y="203.58"/><use xlink:href="#w" x="321.321" y="203.58"/><use xlink:href="#u" x="324.499" y="203.58"/><use xlink:href="#q" x="330.227" y="203.58"/><use xlink:href="#B" x="336.285" y="203.58"/><use xlink:href="#N" x="344.046" y="203.58"/><use xlink:href="#O" x="349.774" y="203.58"/><use xlink:href="#B" x="356.588" y="203.58"/><use xlink:href="#q" x="361.042" y="203.58"/><use xlink:href="#r" x="367.408" y="203.58"/><use xlink:href="#N" x="375.986" y="203.58"/><use xlink:href="#J" x="381.714" y="203.58"/><use xlink:href="#s" x="386.437" y="203.58"/><use xlink:href="#t" x="392.006" y="203.58"/><use xlink:href="#u" x="398.372" y="203.58"/><use xlink:href="#r" x="404.1" y="203.58"/><use xlink:href="#v" x="412.668" y="203.58"/><use xlink:href="#w" x="415.846" y="203.58"/><use xlink:href="#t" x="419.024" y="203.58"/><use xlink:href="#r" x="425.39" y="203.58"/><use xlink:href="#P" x="430.641" y="203.58"/><use xlink:href="#w" x="437.136" y="203.58"/><use xlink:href="#x" x="440.315" y="203.58"/><g fill="#C60"><use xlink:href="#m" x="325.936" y="229.935"/><use xlink:href="#n" x="329.81" y="229.935"/><use xlink:href="#j" x="334.792" y="229.935"/></g><use xlink:href="#g" x="341.987" y="229.935" fill="#C60"/><use xlink:href="#o" x="351.164" y="229.935"/><g fill="red"><use xlink:href="#h" x="363.429" y="223.195"/><use xlink:href="#i" x="367.358" y="223.195"/><use xlink:href="#j" x="370.126" y="223.195"/></g><use xlink:href="#g" x="377.321" y="223.195" fill="red"/><path fill="none" stroke="#000" stroke-miterlimit="10" stroke-width=".398" d="M362.875 227.445h21.41"/><g fill="#00F"><use xlink:href="#k" x="362.876" y="236.769"/><use xlink:href="#l" x="367.303" y="236.769"/><use xlink:href="#h" x="372.285" y="236.769"/></g><use xlink:href="#g" x="377.875" y="236.769" fill="#00F"/><use xlink:href="#o" x="388.248" y="229.935"/><use xlink:href="#d" x="398.757" y="229.935"/><use xlink:href="#H" x="403.745" y="229.935"/><use xlink:href="#ad" x="408.726" y="221.208"/><path fill="none" stroke="#000" stroke-miterlimit="10" stroke-width=".398" d="M417.027 221.008h4.985"/><use xlink:href="#y" x="417.029" y="229.935"/><use xlink:href="#T" x="422.01" y="229.935"/></svg>