<svg xmlns="http://www.w3.org/2000/svg" width="101.612" height="129.959"><defs><clipPath id="a"><path d="M1.004 124.574H2.46v4.164H1.004Zm0 0"/></clipPath><clipPath id="b"><path d="M2.46 124.574h5.977v4.164H2.462Zm0 0"/></clipPath><clipPath id="c"><path d="M8.438 124.574h5.98v4.164h-5.98Zm0 0"/></clipPath><clipPath id="d"><path d="M14.418 124.574h5.977v4.164h-5.977Zm0 0"/></clipPath><clipPath id="e"><path d="M20.395 124.574h5.976v4.164h-5.976Zm0 0"/></clipPath><clipPath id="f"><path d="M26.371 124.574h5.98v4.164h-5.98Zm0 0"/></clipPath><clipPath id="g"><path d="M32.352 124.574h5.976v4.164h-5.976Zm0 0"/></clipPath><clipPath id="h"><path d="M38.328 124.574h5.195v4.164h-5.195Zm0 0"/></clipPath><clipPath id="i"><path d="M1.004 118.598H2.46v5.976H1.004Zm0 0"/></clipPath><clipPath id="j"><path d="M2.46 118.598h5.977v5.976H2.462Zm0 0"/></clipPath><clipPath id="k"><path d="M8.438 118.598h5.98v5.976h-5.98Zm0 0"/></clipPath><clipPath id="l"><path d="M14.418 118.598h5.977v5.976h-5.977Zm0 0"/></clipPath><clipPath id="m"><path d="M20.395 118.598h5.976v5.976h-5.976Zm0 0"/></clipPath><clipPath id="n"><path d="M26.371 118.598h5.98v5.976h-5.98Zm0 0"/></clipPath><clipPath id="o"><path d="M32.352 118.598h5.976v5.976h-5.976Zm0 0"/></clipPath><clipPath id="p"><path d="M38.328 118.598h5.195v5.976h-5.195Zm0 0"/></clipPath><clipPath id="q"><path d="M1.004 112.621H2.46v5.977H1.004Zm0 0"/></clipPath><clipPath id="r"><path d="M2.46 112.621h5.977v5.977H2.462Zm0 0"/></clipPath><clipPath id="s"><path d="M8.438 112.621h5.98v5.977h-5.98Zm0 0"/></clipPath><clipPath id="t"><path d="M14.418 112.621h5.977v5.977h-5.977Zm0 0"/></clipPath><clipPath id="u"><path d="M20.395 112.621h5.976v5.977h-5.976Zm0 0"/></clipPath><clipPath id="v"><path d="M26.371 112.621h5.98v5.977h-5.98Zm0 0"/></clipPath><clipPath id="w"><path d="M32.352 112.621h5.976v5.977h-5.976Zm0 0"/></clipPath><clipPath id="x"><path d="M38.328 112.621h5.195v5.977h-5.195Zm0 0"/></clipPath><clipPath id="y"><path d="M1.004 106.64H2.46v5.981H1.004Zm0 0"/></clipPath><clipPath id="z"><path d="M2.46 106.64h5.977v5.981H2.462Zm0 0"/></clipPath><clipPath id="A"><path d="M8.438 106.64h5.98v5.981h-5.98Zm0 0"/></clipPath><clipPath id="B"><path d="M14.418 106.64h5.977v5.981h-5.977Zm0 0"/></clipPath><clipPath id="C"><path d="M20.395 106.64h5.976v5.981h-5.976Zm0 0"/></clipPath><clipPath id="D"><path d="M26.371 106.64h5.98v5.981h-5.98Zm0 0"/></clipPath><clipPath id="E"><path d="M32.352 106.64h5.976v5.981h-5.976Zm0 0"/></clipPath><clipPath id="F"><path d="M38.328 106.64h5.195v5.981h-5.195Zm0 0"/></clipPath><clipPath id="G"><path d="M1.004 100.664H2.46v5.977H1.004Zm0 0"/></clipPath><clipPath id="H"><path d="M2.46 100.664h5.977v5.977H2.462Zm0 0"/></clipPath><clipPath id="I"><path d="M8.438 100.664h5.98v5.977h-5.98Zm0 0"/></clipPath><clipPath id="J"><path d="M14.418 100.664h5.977v5.977h-5.977Zm0 0"/></clipPath><clipPath id="K"><path d="M20.395 100.664h5.976v5.977h-5.976Zm0 0"/></clipPath><clipPath id="L"><path d="M26.371 100.664h5.98v5.977h-5.98Zm0 0"/></clipPath><clipPath id="M"><path d="M32.352 100.664h5.976v5.977h-5.976Zm0 0"/></clipPath><clipPath id="N"><path d="M38.328 100.664h5.195v5.977h-5.195Zm0 0"/></clipPath><clipPath id="O"><path d="M1.004 94.688H2.46v5.976H1.004Zm0 0"/></clipPath><clipPath id="P"><path d="M2.46 94.688h5.977v5.976H2.462Zm0 0"/></clipPath><clipPath id="Q"><path d="M8.438 94.688h5.98v5.976h-5.98Zm0 0"/></clipPath><clipPath id="R"><path d="M14.418 94.688h5.977v5.976h-5.977Zm0 0"/></clipPath><clipPath id="S"><path d="M20.395 94.688h5.976v5.976h-5.976Zm0 0"/></clipPath><clipPath id="T"><path d="M26.371 94.688h5.98v5.976h-5.98Zm0 0"/></clipPath><clipPath id="U"><path d="M32.352 94.688h5.976v5.976h-5.976Zm0 0"/></clipPath><clipPath id="V"><path d="M38.328 94.688h5.195v5.976h-5.195Zm0 0"/></clipPath><clipPath id="W"><path d="M1.004 88.71H2.46v5.978H1.004Zm0 0"/></clipPath><clipPath id="X"><path d="M2.46 88.71h5.977v5.978H2.462Zm0 0"/></clipPath><clipPath id="Y"><path d="M8.438 88.71h5.98v5.978h-5.98Zm0 0"/></clipPath><clipPath id="Z"><path d="M14.418 88.71h5.977v5.978h-5.977Zm0 0"/></clipPath><clipPath id="aa"><path d="M20.395 88.71h5.976v5.978h-5.976Zm0 0"/></clipPath><clipPath id="ab"><path d="M26.371 88.71h5.98v5.978h-5.98Zm0 0"/></clipPath><clipPath id="ac"><path d="M32.352 88.71h5.976v5.978h-5.976Zm0 0"/></clipPath><clipPath id="ad"><path d="M38.328 88.71h5.195v5.978h-5.195Zm0 0"/></clipPath><clipPath id="ae"><path d="M1.004 82.73H2.46v5.98H1.004Zm0 0"/></clipPath><clipPath id="af"><path d="M2.46 82.73h5.977v5.98H2.462Zm0 0"/></clipPath><clipPath id="ag"><path d="M8.438 82.73h5.98v5.98h-5.98Zm0 0"/></clipPath><clipPath id="ah"><path d="M14.418 82.73h5.977v5.98h-5.977Zm0 0"/></clipPath><clipPath id="ai"><path d="M20.395 82.73h5.976v5.98h-5.976Zm0 0"/></clipPath><clipPath id="aj"><path d="M26.371 82.73h5.98v5.98h-5.98Zm0 0"/></clipPath><clipPath id="ak"><path d="M32.352 82.73h5.976v5.98h-5.976Zm0 0"/></clipPath><clipPath id="al"><path d="M38.328 82.73h5.195v5.98h-5.195Zm0 0"/></clipPath><clipPath id="am"><path d="M1.004 76.754H2.46v5.976H1.004Zm0 0"/></clipPath><clipPath id="an"><path d="M2.46 76.754h5.977v5.976H2.462Zm0 0"/></clipPath><clipPath id="ao"><path d="M8.438 76.754h5.98v5.976h-5.98Zm0 0"/></clipPath><clipPath id="ap"><path d="M14.418 76.754h5.977v5.976h-5.977Zm0 0"/></clipPath><clipPath id="aq"><path d="M20.395 76.754h5.976v5.976h-5.976Zm0 0"/></clipPath><clipPath id="ar"><path d="M26.371 76.754h5.98v5.976h-5.98Zm0 0"/></clipPath><clipPath id="as"><path d="M32.352 76.754h5.976v5.976h-5.976Zm0 0"/></clipPath><clipPath id="at"><path d="M38.328 76.754h5.195v5.976h-5.195Zm0 0"/></clipPath><clipPath id="au"><path d="M1.004 72.047H2.46v4.707H1.004Zm0 0"/></clipPath><clipPath id="av"><path d="M2.46 72.047h5.977v4.707H2.462Zm0 0"/></clipPath><clipPath id="aw"><path d="M8.438 72.047h5.98v4.707h-5.98Zm0 0"/></clipPath><clipPath id="ax"><path d="M14.418 72.047h5.977v4.707h-5.977Zm0 0"/></clipPath><clipPath id="ay"><path d="M20.395 72.047h5.976v4.707h-5.976Zm0 0"/></clipPath><clipPath id="az"><path d="M26.371 72.047h5.98v4.707h-5.98Zm0 0"/></clipPath><clipPath id="aA"><path d="M32.352 72.047h5.976v4.707h-5.976Zm0 0"/></clipPath><clipPath id="aB"><path d="M38.328 72.047h5.195v4.707h-5.195Zm0 0"/></clipPath><clipPath id="aC"><path d="M57.7 125.578h1.55v3.16H57.7Zm0 0"/></clipPath><clipPath id="aD"><path d="M59.25 125.578h7.969v3.16H59.25Zm0 0"/></clipPath><clipPath id="aE"><path d="M67.219 125.578h7.972v3.16H67.22Zm0 0"/></clipPath><clipPath id="aF"><path d="M75.191 125.578h7.97v3.16h-7.97Zm0 0"/></clipPath><clipPath id="aG"><path d="M83.16 125.578h7.969v3.16H83.16Zm0 0"/></clipPath><clipPath id="aH"><path d="M91.129 125.578h7.973v3.16h-7.973Zm0 0"/></clipPath><clipPath id="aI"><path d="M99.102 125.578h1.117v3.16h-1.117Zm0 0"/></clipPath><clipPath id="aJ"><path d="M57.7 117.605h1.55v7.973H57.7Zm0 0"/></clipPath><clipPath id="aK"><path d="M59.25 117.605h7.969v7.973H59.25Zm0 0"/></clipPath><clipPath id="aL"><path d="M67.219 117.605h7.972v7.973H67.22Zm0 0"/></clipPath><clipPath id="aM"><path d="M75.191 117.605h7.97v7.973h-7.97Zm0 0"/></clipPath><clipPath id="aN"><path d="M83.16 117.605h7.969v7.973H83.16Zm0 0"/></clipPath><clipPath id="aO"><path d="M91.129 117.605h7.973v7.973h-7.973Zm0 0"/></clipPath><clipPath id="aP"><path d="M99.102 117.605h1.117v7.973h-1.117Zm0 0"/></clipPath><clipPath id="aQ"><path d="M57.7 109.637h1.55v7.968H57.7Zm0 0"/></clipPath><clipPath id="aR"><path d="M59.25 109.637h7.969v7.968H59.25Zm0 0"/></clipPath><clipPath id="aS"><path d="M67.219 109.637h7.972v7.968H67.22Zm0 0"/></clipPath><clipPath id="aT"><path d="M75.191 109.637h7.97v7.968h-7.97Zm0 0"/></clipPath><clipPath id="aU"><path d="M83.16 109.637h7.969v7.968H83.16Zm0 0"/></clipPath><clipPath id="aV"><path d="M91.129 109.637h7.973v7.968h-7.973Zm0 0"/></clipPath><clipPath id="aW"><path d="M99.102 109.637h1.117v7.968h-1.117Zm0 0"/></clipPath><clipPath id="aX"><path d="M57.7 101.668h1.55v7.969H57.7Zm0 0"/></clipPath><clipPath id="aY"><path d="M59.25 101.668h7.969v7.969H59.25Zm0 0"/></clipPath><clipPath id="aZ"><path d="M67.219 101.668h7.972v7.969H67.22Zm0 0"/></clipPath><clipPath id="ba"><path d="M75.191 101.668h7.97v7.969h-7.97Zm0 0"/></clipPath><clipPath id="bb"><path d="M83.16 101.668h7.969v7.969H83.16Zm0 0"/></clipPath><clipPath id="bc"><path d="M91.129 101.668h7.973v7.969h-7.973Zm0 0"/></clipPath><clipPath id="bd"><path d="M99.102 101.668h1.117v7.969h-1.117Zm0 0"/></clipPath><clipPath id="be"><path d="M57.7 93.695h1.55v7.973H57.7Zm0 0"/></clipPath><clipPath id="bf"><path d="M59.25 93.695h7.969v7.973H59.25Zm0 0"/></clipPath><clipPath id="bg"><path d="M67.219 93.695h7.972v7.973H67.22Zm0 0"/></clipPath><clipPath id="bh"><path d="M75.191 93.695h7.97v7.973h-7.97Zm0 0"/></clipPath><clipPath id="bi"><path d="M83.16 93.695h7.969v7.973H83.16Zm0 0"/></clipPath><clipPath id="bj"><path d="M91.129 93.695h7.973v7.973h-7.973Zm0 0"/></clipPath><clipPath id="bk"><path d="M99.102 93.695h1.117v7.973h-1.117Zm0 0"/></clipPath><clipPath id="bl"><path d="M57.7 85.727h1.55v7.968H57.7Zm0 0"/></clipPath><clipPath id="bm"><path d="M59.25 85.727h7.969v7.968H59.25Zm0 0"/></clipPath><clipPath id="bn"><path d="M67.219 85.727h7.972v7.968H67.22Zm0 0"/></clipPath><clipPath id="bo"><path d="M75.191 85.727h7.97v7.968h-7.97Zm0 0"/></clipPath><clipPath id="bp"><path d="M83.16 85.727h7.969v7.968H83.16Zm0 0"/></clipPath><clipPath id="bq"><path d="M91.129 85.727h7.973v7.968h-7.973Zm0 0"/></clipPath><clipPath id="br"><path d="M99.102 85.727h1.117v7.968h-1.117Zm0 0"/></clipPath><clipPath id="bs"><path d="M57.7 77.758h1.55v7.969H57.7Zm0 0"/></clipPath><clipPath id="bt"><path d="M59.25 77.758h7.969v7.969H59.25Zm0 0"/></clipPath><clipPath id="bu"><path d="M67.219 77.758h7.972v7.969H67.22Zm0 0"/></clipPath><clipPath id="bv"><path d="M75.191 77.758h7.97v7.969h-7.97Zm0 0"/></clipPath><clipPath id="bw"><path d="M83.16 77.758h7.969v7.969H83.16Zm0 0"/></clipPath><clipPath id="bx"><path d="M91.129 77.758h7.973v7.969h-7.973Zm0 0"/></clipPath><clipPath id="by"><path d="M99.102 77.758h1.117v7.969h-1.117Zm0 0"/></clipPath><clipPath id="bz"><path d="M57.7 72.047h1.55v5.71H57.7Zm0 0"/></clipPath><clipPath id="bA"><path d="M59.25 72.047h7.969v5.71H59.25Zm0 0"/></clipPath><clipPath id="bB"><path d="M67.219 72.047h7.972v5.71H67.22Zm0 0"/></clipPath><clipPath id="bC"><path d="M75.191 72.047h7.97v5.71h-7.97Zm0 0"/></clipPath><clipPath id="bD"><path d="M83.16 72.047h7.969v5.71H83.16Zm0 0"/></clipPath><clipPath id="bE"><path d="M91.129 72.047h7.973v5.71h-7.973Zm0 0"/></clipPath><clipPath id="bF"><path d="M99.102 72.047h1.117v5.71h-1.117Zm0 0"/></clipPath><clipPath id="bG"><path d="M1.004 47.86h4.445V57.87H1.004Zm0 0"/></clipPath><clipPath id="bH"><path d="M5.45 47.86h19.925V57.87H5.449Zm0 0"/></clipPath><clipPath id="bI"><path d="M25.375 47.86h18.148V57.87H25.375Zm0 0"/></clipPath><clipPath id="bJ"><path d="M1.004 27.934h4.445v19.925H1.004Zm0 0"/></clipPath><clipPath id="bK"><path d="M5.45 27.934h19.925v19.925H5.449Zm0 0"/></clipPath><clipPath id="bL"><path d="M25.375 27.934h18.148v19.925H25.375Zm0 0"/></clipPath><clipPath id="bM"><path d="M1.004 8.008h4.445v19.926H1.004Zm0 0"/></clipPath><clipPath id="bN"><path d="M5.45 8.008h19.925v19.926H5.449Zm0 0"/></clipPath><clipPath id="bO"><path d="M25.375 8.008h18.148v19.926H25.375Zm0 0"/></clipPath><clipPath id="bP"><path d="M1.004 1.18h4.445v6.828H1.004Zm0 0"/></clipPath><clipPath id="bQ"><path d="M5.45 1.18h19.925v6.828H5.449Zm0 0"/></clipPath><clipPath id="bR"><path d="M25.375 1.18h18.148v6.828H25.375Zm0 0"/></clipPath><clipPath id="bS"><path d="M57.7 47.86h7.527V57.87h-7.528Zm0 0"/></clipPath><clipPath id="bT"><path d="M65.227 47.86h19.925V57.87H65.227Zm0 0"/></clipPath><clipPath id="bU"><path d="M85.152 47.86h15.067V57.87H85.152Zm0 0"/></clipPath><clipPath id="bV"><path d="M57.7 27.934h7.527v19.925h-7.528Zm0 0"/></clipPath><clipPath id="bW"><path d="M65.227 27.934h19.925v19.925H65.227Zm0 0"/></clipPath><clipPath id="bX"><path d="M85.152 27.934h15.067v19.925H85.152Zm0 0"/></clipPath><clipPath id="bY"><path d="M57.7 8.008h7.527v19.926h-7.528Zm0 0"/></clipPath><clipPath id="bZ"><path d="M65.227 8.008h19.925v19.926H65.227Zm0 0"/></clipPath><clipPath id="ca"><path d="M85.152 8.008h15.067v19.926H85.152Zm0 0"/></clipPath><clipPath id="cb"><path d="M57.7 1.18h7.527v6.828h-7.528Zm0 0"/></clipPath><clipPath id="cc"><path d="M65.227 1.18h19.925v6.828H65.227Zm0 0"/></clipPath><clipPath id="cd"><path d="M85.152 1.18h15.067v6.828H85.152Zm0 0"/></clipPath></defs><g clip-path="url(#a)"><path fill="none" stroke="#000" stroke-miterlimit="10" stroke-width=".747" d="M3.457 127.563c0-2.2-1.785-3.985-3.984-3.985a3.986 3.986 0 0 0 0 7.973c2.199 0 3.984-1.785 3.984-3.988Zm0 0"/></g><g clip-path="url(#b)"><path fill="none" stroke="#000" stroke-miterlimit="10" stroke-width=".747" d="M9.438 127.563a3.987 3.987 0 1 0-7.974.004 3.987 3.987 0 0 0 7.974-.004Zm0 0"/></g><g clip-path="url(#c)"><path fill="none" stroke="#000" stroke-miterlimit="10" stroke-width=".747" d="M15.414 127.563a3.986 3.986 0 1 0-7.972.003 3.986 3.986 0 0 0 7.972-.004Zm0 0"/></g><g clip-path="url(#d)"><path fill="none" stroke="#000" stroke-miterlimit="10" stroke-width=".747" d="M21.39 127.563a3.984 3.984 0 1 0-7.969 0 3.984 3.984 0 1 0 7.97 0Zm0 0"/></g><g clip-path="url(#e)"><path fill="none" stroke="#000" stroke-miterlimit="10" stroke-width=".747" d="M27.367 127.563a3.984 3.984 0 1 0-7.969 0 3.984 3.984 0 1 0 7.969 0Zm0 0"/></g><g clip-path="url(#f)"><path fill="none" stroke="#000" stroke-miterlimit="10" stroke-width=".747" d="M33.348 127.563a3.987 3.987 0 1 0-7.974.004 3.987 3.987 0 0 0 7.974-.004Zm0 0"/></g><g clip-path="url(#g)"><path fill="none" stroke="#000" stroke-miterlimit="10" stroke-width=".747" d="M39.324 127.563a3.984 3.984 0 1 0-7.969 0 3.984 3.984 0 1 0 7.97 0Zm0 0"/></g><g clip-path="url(#h)"><path fill="none" stroke="#000" stroke-miterlimit="10" stroke-width=".747" d="M45.3 127.563c0-2.2-1.784-3.985-3.984-3.985a3.986 3.986 0 0 0 0 7.973c2.2 0 3.985-1.785 3.985-3.988Zm0 0"/></g><g clip-path="url(#i)"><path fill="none" stroke="#000" stroke-miterlimit="10" stroke-width=".747" d="M3.457 121.586c0-2.2-1.785-3.984-3.984-3.984a3.984 3.984 0 1 0 0 7.969c2.199 0 3.984-1.782 3.984-3.985Zm0 0"/></g><g clip-path="url(#j)"><path fill="none" stroke="#000" stroke-miterlimit="10" stroke-width=".747" d="M9.438 121.586a3.987 3.987 0 0 0-7.973 0 3.984 3.984 0 0 0 3.984 3.984 3.984 3.984 0 0 0 3.989-3.984Zm0 0"/></g><g clip-path="url(#k)"><path fill="none" stroke="#000" stroke-miterlimit="10" stroke-width=".747" d="M15.414 121.586a3.986 3.986 0 0 0-7.973 0 3.984 3.984 0 0 0 3.989 3.984c2.199 0 3.984-1.78 3.984-3.984Zm0 0"/></g><g clip-path="url(#l)"><path fill="none" stroke="#000" stroke-miterlimit="10" stroke-width=".747" d="M21.39 121.586a3.984 3.984 0 1 0-7.969 0 3.98 3.98 0 0 0 3.985 3.984c2.2 0 3.985-1.78 3.985-3.984Zm0 0"/></g><g clip-path="url(#m)"><path fill="none" stroke="#000" stroke-miterlimit="10" stroke-width=".747" d="M27.367 121.586a3.984 3.984 0 1 0-7.969 0 3.984 3.984 0 0 0 3.985 3.984 3.98 3.98 0 0 0 3.984-3.984Zm0 0"/></g><g clip-path="url(#n)"><path fill="none" stroke="#000" stroke-miterlimit="10" stroke-width=".747" d="M33.348 121.586a3.987 3.987 0 0 0-7.973 0 3.984 3.984 0 0 0 3.984 3.984 3.984 3.984 0 0 0 3.989-3.984Zm0 0"/></g><g clip-path="url(#o)"><path fill="none" stroke="#000" stroke-miterlimit="10" stroke-width=".747" d="M39.324 121.586a3.984 3.984 0 1 0-7.969 0 3.98 3.98 0 0 0 3.985 3.984c2.2 0 3.984-1.78 3.984-3.984Zm0 0"/></g><g clip-path="url(#p)"><path fill="none" stroke="#000" stroke-miterlimit="10" stroke-width=".747" d="M45.3 121.586c0-2.2-1.784-3.984-3.984-3.984a3.984 3.984 0 1 0 0 7.969c2.2 0 3.985-1.782 3.985-3.985Zm0 0"/></g><g clip-path="url(#q)"><path fill="none" stroke="#000" stroke-miterlimit="10" stroke-width=".747" d="M3.457 115.61a3.984 3.984 0 0 0-3.984-3.985 3.984 3.984 0 1 0 0 7.969c2.199 0 3.984-1.785 3.984-3.985Zm0 0"/></g><g clip-path="url(#r)"><path fill="none" stroke="#000" stroke-miterlimit="10" stroke-width=".747" d="M9.438 115.61a3.984 3.984 0 0 0-3.989-3.985 3.984 3.984 0 1 0 0 7.969 3.987 3.987 0 0 0 3.989-3.985Zm0 0"/></g><g clip-path="url(#s)"><path fill="none" stroke="#000" stroke-miterlimit="10" stroke-width=".747" d="M15.414 115.61a3.984 3.984 0 0 0-3.984-3.985 3.984 3.984 0 1 0 0 7.969c2.199 0 3.984-1.785 3.984-3.985Zm0 0"/></g><g clip-path="url(#t)"><path fill="none" stroke="#000" stroke-miterlimit="10" stroke-width=".747" d="M21.39 115.61a3.984 3.984 0 0 0-3.984-3.985 3.98 3.98 0 0 0-3.984 3.984 3.984 3.984 0 1 0 7.969 0Zm0 0"/></g><g clip-path="url(#u)"><path fill="none" stroke="#000" stroke-miterlimit="10" stroke-width=".747" d="M27.367 115.61a3.98 3.98 0 0 0-3.984-3.985 3.984 3.984 0 1 0 0 7.969 3.984 3.984 0 0 0 3.984-3.985Zm0 0"/></g><g clip-path="url(#v)"><path fill="none" stroke="#000" stroke-miterlimit="10" stroke-width=".747" d="M33.348 115.61a3.984 3.984 0 0 0-3.989-3.985 3.984 3.984 0 1 0 0 7.969 3.987 3.987 0 0 0 3.989-3.985Zm0 0"/></g><g clip-path="url(#w)"><path fill="none" stroke="#000" stroke-miterlimit="10" stroke-width=".747" d="M39.324 115.61a3.984 3.984 0 0 0-3.984-3.985 3.98 3.98 0 0 0-3.985 3.984 3.984 3.984 0 1 0 7.97 0Zm0 0"/></g><g clip-path="url(#x)"><path fill="none" stroke="#000" stroke-miterlimit="10" stroke-width=".747" d="M45.3 115.61a3.984 3.984 0 0 0-3.984-3.985 3.984 3.984 0 1 0 0 7.969c2.2 0 3.985-1.785 3.985-3.985Zm0 0"/></g><g clip-path="url(#y)"><path fill="none" stroke="#000" stroke-miterlimit="10" stroke-width=".747" d="M3.457 109.633a3.987 3.987 0 0 0-3.984-3.988 3.987 3.987 0 0 0 0 7.972c2.199 0 3.984-1.785 3.984-3.984Zm0 0"/></g><g clip-path="url(#z)"><path fill="none" stroke="#000" stroke-miterlimit="10" stroke-width=".747" d="M9.438 109.633a3.987 3.987 0 1 0-7.972-.003 3.987 3.987 0 0 0 7.972.003Zm0 0"/></g><g clip-path="url(#A)"><path fill="none" stroke="#000" stroke-miterlimit="10" stroke-width=".747" d="M15.414 109.633a3.987 3.987 0 1 0-7.974-.003 3.987 3.987 0 0 0 7.974.003Zm0 0"/></g><g clip-path="url(#B)"><path fill="none" stroke="#000" stroke-miterlimit="10" stroke-width=".747" d="M21.39 109.633a3.984 3.984 0 1 0-7.969 0 3.984 3.984 0 1 0 7.97 0Zm0 0"/></g><g clip-path="url(#C)"><path fill="none" stroke="#000" stroke-miterlimit="10" stroke-width=".747" d="M27.367 109.633a3.984 3.984 0 1 0-7.969 0 3.984 3.984 0 1 0 7.969 0Zm0 0"/></g><g clip-path="url(#D)"><path fill="none" stroke="#000" stroke-miterlimit="10" stroke-width=".747" d="M33.348 109.633a3.987 3.987 0 1 0-7.972-.003 3.987 3.987 0 0 0 7.972.003Zm0 0"/></g><g clip-path="url(#E)"><path fill="none" stroke="#000" stroke-miterlimit="10" stroke-width=".747" d="M39.324 109.633a3.984 3.984 0 1 0-7.969 0 3.984 3.984 0 1 0 7.97 0Zm0 0"/></g><g clip-path="url(#F)"><path fill="none" stroke="#000" stroke-miterlimit="10" stroke-width=".747" d="M45.3 109.633a3.987 3.987 0 0 0-3.984-3.988 3.987 3.987 0 0 0 0 7.972c2.2 0 3.985-1.785 3.985-3.984Zm0 0"/></g><g clip-path="url(#G)"><path fill="none" stroke="#000" stroke-miterlimit="10" stroke-width=".747" d="M3.457 103.652c0-2.199-1.785-3.984-3.984-3.984a3.984 3.984 0 1 0 0 7.969c2.199 0 3.984-1.782 3.984-3.985Zm0 0"/></g><g clip-path="url(#H)"><path fill="none" stroke="#000" stroke-miterlimit="10" stroke-width=".747" d="M9.438 103.652a3.987 3.987 0 0 0-7.973 0 3.984 3.984 0 0 0 3.984 3.985 3.984 3.984 0 0 0 3.989-3.985Zm0 0"/></g><g clip-path="url(#I)"><path fill="none" stroke="#000" stroke-miterlimit="10" stroke-width=".747" d="M15.414 103.652a3.986 3.986 0 0 0-7.973 0 3.984 3.984 0 0 0 3.989 3.985c2.199 0 3.984-1.782 3.984-3.985Zm0 0"/></g><g clip-path="url(#J)"><path fill="none" stroke="#000" stroke-miterlimit="10" stroke-width=".747" d="M21.39 103.652a3.984 3.984 0 1 0-7.969 0 3.98 3.98 0 0 0 3.985 3.985c2.2 0 3.985-1.782 3.985-3.985Zm0 0"/></g><g clip-path="url(#K)"><path fill="none" stroke="#000" stroke-miterlimit="10" stroke-width=".747" d="M27.367 103.652a3.984 3.984 0 1 0-7.969 0 3.984 3.984 0 0 0 3.985 3.985 3.98 3.98 0 0 0 3.984-3.985Zm0 0"/></g><g clip-path="url(#L)"><path fill="none" stroke="#000" stroke-miterlimit="10" stroke-width=".747" d="M33.348 103.652a3.987 3.987 0 0 0-7.973 0 3.984 3.984 0 0 0 3.984 3.985 3.984 3.984 0 0 0 3.989-3.985Zm0 0"/></g><g clip-path="url(#M)"><path fill="none" stroke="#000" stroke-miterlimit="10" stroke-width=".747" d="M39.324 103.652a3.984 3.984 0 1 0-7.969 0 3.98 3.98 0 0 0 3.985 3.985c2.2 0 3.984-1.782 3.984-3.985Zm0 0"/></g><g clip-path="url(#N)"><path fill="none" stroke="#000" stroke-miterlimit="10" stroke-width=".747" d="M45.3 103.652c0-2.199-1.784-3.984-3.984-3.984a3.984 3.984 0 1 0 0 7.969c2.2 0 3.985-1.782 3.985-3.985Zm0 0"/></g><g clip-path="url(#O)"><path fill="none" stroke="#000" stroke-miterlimit="10" stroke-width=".747" d="M3.457 97.676c0-2.2-1.785-3.985-3.984-3.985a3.986 3.986 0 0 0-3.985 3.985c0 2.199 1.785 3.984 3.985 3.984 2.199 0 3.984-1.785 3.984-3.984Zm0 0"/></g><g clip-path="url(#P)"><path fill="none" stroke="#000" stroke-miterlimit="10" stroke-width=".747" d="M9.438 97.676a3.987 3.987 0 0 0-7.973 0 3.986 3.986 0 0 0 7.973 0Zm0 0"/></g><g clip-path="url(#Q)"><path fill="none" stroke="#000" stroke-miterlimit="10" stroke-width=".747" d="M15.414 97.676a3.986 3.986 0 0 0-7.973 0 3.987 3.987 0 0 0 7.973 0Zm0 0"/></g><g clip-path="url(#R)"><path fill="none" stroke="#000" stroke-miterlimit="10" stroke-width=".747" d="M21.39 97.676a3.984 3.984 0 1 0-7.969 0 3.984 3.984 0 1 0 7.97 0Zm0 0"/></g><g clip-path="url(#S)"><path fill="none" stroke="#000" stroke-miterlimit="10" stroke-width=".747" d="M27.367 97.676a3.984 3.984 0 1 0-7.969 0 3.984 3.984 0 1 0 7.969 0Zm0 0"/></g><g clip-path="url(#T)"><path fill="none" stroke="#000" stroke-miterlimit="10" stroke-width=".747" d="M33.348 97.676a3.987 3.987 0 0 0-7.973 0 3.986 3.986 0 0 0 7.973 0Zm0 0"/></g><g clip-path="url(#U)"><path fill="none" stroke="#000" stroke-miterlimit="10" stroke-width=".747" d="M39.324 97.676a3.984 3.984 0 1 0-7.969 0 3.984 3.984 0 1 0 7.97 0Zm0 0"/></g><g clip-path="url(#V)"><path fill="none" stroke="#000" stroke-miterlimit="10" stroke-width=".747" d="M45.3 97.676c0-2.2-1.784-3.985-3.984-3.985a3.986 3.986 0 0 0-3.984 3.985c0 2.199 1.785 3.984 3.984 3.984 2.2 0 3.985-1.785 3.985-3.984Zm0 0"/></g><g clip-path="url(#W)"><path fill="none" stroke="#000" stroke-miterlimit="10" stroke-width=".747" d="M3.457 91.7a3.984 3.984 0 0 0-3.984-3.985 3.984 3.984 0 1 0 0 7.969c2.199 0 3.984-1.786 3.984-3.985Zm0 0"/></g><g clip-path="url(#X)"><path fill="none" stroke="#000" stroke-miterlimit="10" stroke-width=".747" d="M9.438 91.7a3.984 3.984 0 0 0-3.989-3.985 3.984 3.984 0 1 0 0 7.969 3.987 3.987 0 0 0 3.989-3.985Zm0 0"/></g><g clip-path="url(#Y)"><path fill="none" stroke="#000" stroke-miterlimit="10" stroke-width=".747" d="M15.414 91.7a3.984 3.984 0 0 0-3.984-3.985 3.984 3.984 0 1 0 0 7.969c2.199 0 3.984-1.786 3.984-3.985Zm0 0"/></g><g clip-path="url(#Z)"><path fill="none" stroke="#000" stroke-miterlimit="10" stroke-width=".747" d="M21.39 91.7a3.984 3.984 0 0 0-3.984-3.985 3.98 3.98 0 0 0-3.984 3.984 3.984 3.984 0 1 0 7.969 0Zm0 0"/></g><g clip-path="url(#aa)"><path fill="none" stroke="#000" stroke-miterlimit="10" stroke-width=".747" d="M27.367 91.7a3.98 3.98 0 0 0-3.984-3.985 3.984 3.984 0 1 0 0 7.969 3.984 3.984 0 0 0 3.984-3.985Zm0 0"/></g><g clip-path="url(#ab)"><path fill="none" stroke="#000" stroke-miterlimit="10" stroke-width=".747" d="M33.348 91.7a3.984 3.984 0 0 0-3.989-3.985 3.984 3.984 0 1 0 0 7.969 3.987 3.987 0 0 0 3.989-3.985Zm0 0"/></g><g clip-path="url(#ac)"><path fill="none" stroke="#000" stroke-miterlimit="10" stroke-width=".747" d="M39.324 91.7a3.984 3.984 0 0 0-3.984-3.985 3.98 3.98 0 0 0-3.985 3.984 3.984 3.984 0 1 0 7.97 0Zm0 0"/></g><g clip-path="url(#ad)"><path fill="none" stroke="#000" stroke-miterlimit="10" stroke-width=".747" d="M45.3 91.7a3.984 3.984 0 0 0-3.984-3.985 3.984 3.984 0 1 0 0 7.969c2.2 0 3.985-1.786 3.985-3.985Zm0 0"/></g><g clip-path="url(#ae)"><path fill="none" stroke="#000" stroke-miterlimit="10" stroke-width=".747" d="M3.457 85.719c0-2.2-1.785-3.985-3.984-3.985a3.986 3.986 0 0 0 0 7.973c2.199 0 3.984-1.785 3.984-3.988Zm0 0"/></g><g clip-path="url(#af)"><path fill="none" stroke="#000" stroke-miterlimit="10" stroke-width=".747" d="M9.438 85.719a3.987 3.987 0 1 0-7.974.005 3.987 3.987 0 0 0 7.974-.005Zm0 0"/></g><g clip-path="url(#ag)"><path fill="none" stroke="#000" stroke-miterlimit="10" stroke-width=".747" d="M15.414 85.719a3.986 3.986 0 1 0-7.972.003 3.986 3.986 0 0 0 7.972-.003Zm0 0"/></g><g clip-path="url(#ah)"><path fill="none" stroke="#000" stroke-miterlimit="10" stroke-width=".747" d="M21.39 85.719a3.984 3.984 0 1 0-7.969 0 3.984 3.984 0 1 0 7.97 0Zm0 0"/></g><g clip-path="url(#ai)"><path fill="none" stroke="#000" stroke-miterlimit="10" stroke-width=".747" d="M27.367 85.719a3.984 3.984 0 1 0-7.969 0 3.984 3.984 0 1 0 7.969 0Zm0 0"/></g><g clip-path="url(#aj)"><path fill="none" stroke="#000" stroke-miterlimit="10" stroke-width=".747" d="M33.348 85.719a3.987 3.987 0 1 0-7.974.005 3.987 3.987 0 0 0 7.974-.005Zm0 0"/></g><g clip-path="url(#ak)"><path fill="none" stroke="#000" stroke-miterlimit="10" stroke-width=".747" d="M39.324 85.719a3.984 3.984 0 1 0-7.969 0 3.984 3.984 0 1 0 7.97 0Zm0 0"/></g><g clip-path="url(#al)"><path fill="none" stroke="#000" stroke-miterlimit="10" stroke-width=".747" d="M45.3 85.719c0-2.2-1.784-3.985-3.984-3.985a3.986 3.986 0 0 0 0 7.973c2.2 0 3.985-1.785 3.985-3.988Zm0 0"/></g><g clip-path="url(#am)"><path fill="none" stroke="#000" stroke-miterlimit="10" stroke-width=".747" d="M3.457 79.742c0-2.199-1.785-3.984-3.984-3.984a3.984 3.984 0 1 0 0 7.969c2.199 0 3.984-1.782 3.984-3.985Zm0 0"/></g><g clip-path="url(#an)"><path fill="none" stroke="#000" stroke-miterlimit="10" stroke-width=".747" d="M9.438 79.742a3.987 3.987 0 0 0-7.973 0 3.984 3.984 0 0 0 3.984 3.985 3.984 3.984 0 0 0 3.989-3.985Zm0 0"/></g><g clip-path="url(#ao)"><path fill="none" stroke="#000" stroke-miterlimit="10" stroke-width=".747" d="M15.414 79.742a3.986 3.986 0 0 0-7.973 0 3.984 3.984 0 0 0 3.989 3.985c2.199 0 3.984-1.782 3.984-3.985Zm0 0"/></g><g clip-path="url(#ap)"><path fill="none" stroke="#000" stroke-miterlimit="10" stroke-width=".747" d="M21.39 79.742a3.984 3.984 0 1 0-7.969 0 3.98 3.98 0 0 0 3.985 3.985c2.2 0 3.985-1.782 3.985-3.985Zm0 0"/></g><g clip-path="url(#aq)"><path fill="none" stroke="#000" stroke-miterlimit="10" stroke-width=".747" d="M27.367 79.742a3.984 3.984 0 1 0-7.969 0 3.984 3.984 0 0 0 3.985 3.985 3.98 3.98 0 0 0 3.984-3.985Zm0 0"/></g><g clip-path="url(#ar)"><path fill="none" stroke="#000" stroke-miterlimit="10" stroke-width=".747" d="M33.348 79.742a3.987 3.987 0 0 0-7.973 0 3.984 3.984 0 0 0 3.984 3.985 3.984 3.984 0 0 0 3.989-3.985Zm0 0"/></g><g clip-path="url(#as)"><path fill="none" stroke="#000" stroke-miterlimit="10" stroke-width=".747" d="M39.324 79.742a3.984 3.984 0 1 0-7.969 0 3.98 3.98 0 0 0 3.985 3.985c2.2 0 3.984-1.782 3.984-3.985Zm0 0"/></g><g clip-path="url(#at)"><path fill="none" stroke="#000" stroke-miterlimit="10" stroke-width=".747" d="M45.3 79.742c0-2.199-1.784-3.984-3.984-3.984a3.984 3.984 0 1 0 0 7.969c2.2 0 3.985-1.782 3.985-3.985Zm0 0"/></g><g clip-path="url(#au)"><path fill="none" stroke="#000" stroke-miterlimit="10" stroke-width=".747" d="M3.457 73.766A3.984 3.984 0 0 0-.527 69.78a3.984 3.984 0 1 0 0 7.969c2.199 0 3.984-1.785 3.984-3.984Zm0 0"/></g><g clip-path="url(#av)"><path fill="none" stroke="#000" stroke-miterlimit="10" stroke-width=".747" d="M9.438 73.766a3.984 3.984 0 0 0-3.989-3.985 3.984 3.984 0 1 0 0 7.969 3.987 3.987 0 0 0 3.989-3.984Zm0 0"/></g><g clip-path="url(#aw)"><path fill="none" stroke="#000" stroke-miterlimit="10" stroke-width=".747" d="M15.414 73.766a3.984 3.984 0 0 0-3.984-3.985 3.984 3.984 0 1 0 0 7.969c2.199 0 3.984-1.785 3.984-3.984Zm0 0"/></g><g clip-path="url(#ax)"><path fill="none" stroke="#000" stroke-miterlimit="10" stroke-width=".747" d="M21.39 73.766a3.984 3.984 0 0 0-3.984-3.985 3.98 3.98 0 0 0-3.984 3.985 3.984 3.984 0 1 0 7.969 0Zm0 0"/></g><g clip-path="url(#ay)"><path fill="none" stroke="#000" stroke-miterlimit="10" stroke-width=".747" d="M27.367 73.766a3.98 3.98 0 0 0-3.984-3.985 3.984 3.984 0 1 0 0 7.969 3.984 3.984 0 0 0 3.984-3.984Zm0 0"/></g><g clip-path="url(#az)"><path fill="none" stroke="#000" stroke-miterlimit="10" stroke-width=".747" d="M33.348 73.766a3.984 3.984 0 0 0-3.989-3.985 3.984 3.984 0 1 0 0 7.969 3.987 3.987 0 0 0 3.989-3.984Zm0 0"/></g><g clip-path="url(#aA)"><path fill="none" stroke="#000" stroke-miterlimit="10" stroke-width=".747" d="M39.324 73.766a3.984 3.984 0 0 0-3.984-3.985 3.98 3.98 0 0 0-3.985 3.985 3.984 3.984 0 1 0 7.97 0Zm0 0"/></g><g clip-path="url(#aB)"><path fill="none" stroke="#000" stroke-miterlimit="10" stroke-width=".747" d="M45.3 73.766a3.984 3.984 0 0 0-3.984-3.985 3.984 3.984 0 1 0 0 7.969c2.2 0 3.985-1.785 3.985-3.984Zm0 0"/></g><path fill="none" stroke="#000" stroke-miterlimit="10" stroke-width=".399" d="M1.004 128.738V72.047h42.52v56.691Zm0 0"/><g clip-path="url(#aC)"><path fill="none" stroke="#000" stroke-miterlimit="10" stroke-width=".747" d="M59.25 129.563a3.986 3.986 0 0 0-7.973 0 3.987 3.987 0 0 0 7.973 0Zm0 0"/></g><g clip-path="url(#aD)"><path fill="none" stroke="#000" stroke-miterlimit="10" stroke-width=".747" d="M67.219 129.563c0-2.2-1.785-3.985-3.985-3.985a3.986 3.986 0 0 0-3.984 3.984c0 2.2 1.785 3.985 3.984 3.985 2.2 0 3.985-1.785 3.985-3.984Zm0 0"/></g><g clip-path="url(#aE)"><path fill="none" stroke="#000" stroke-miterlimit="10" stroke-width=".747" d="M75.191 129.563a3.987 3.987 0 0 0-7.972 0 3.986 3.986 0 0 0 7.972 0Zm0 0"/></g><g clip-path="url(#aF)"><path fill="none" stroke="#000" stroke-miterlimit="10" stroke-width=".747" d="M83.16 129.563a3.984 3.984 0 1 0-7.969 0 3.984 3.984 0 1 0 7.97 0Zm0 0"/></g><g clip-path="url(#aG)"><path fill="none" stroke="#000" stroke-miterlimit="10" stroke-width=".747" d="M91.129 129.563a3.984 3.984 0 1 0-7.969 0c0 2.199 1.785 3.984 3.985 3.984a3.984 3.984 0 0 0 3.984-3.984Zm0 0"/></g><g clip-path="url(#aH)"><path fill="none" stroke="#000" stroke-miterlimit="10" stroke-width=".747" d="M99.102 129.563a3.986 3.986 0 0 0-7.973 0 3.987 3.987 0 0 0 7.973 0Zm0 0"/></g><g clip-path="url(#aI)"><path fill="none" stroke="#000" stroke-miterlimit="10" stroke-width=".747" d="M107.07 129.563a3.984 3.984 0 1 0-7.969 0 3.984 3.984 0 1 0 7.97 0Zm0 0"/></g><g clip-path="url(#aJ)"><path fill="none" stroke="#000" stroke-miterlimit="10" stroke-width=".747" d="M59.25 121.594a3.987 3.987 0 1 0-7.974-.003 3.987 3.987 0 0 0 7.974.003Zm0 0"/></g><g clip-path="url(#aK)"><path fill="none" stroke="#000" stroke-miterlimit="10" stroke-width=".747" d="M67.219 121.594a3.987 3.987 0 0 0-3.985-3.989 3.987 3.987 0 0 0 0 7.973c2.2 0 3.985-1.785 3.985-3.984Zm0 0"/></g><g clip-path="url(#aL)"><path fill="none" stroke="#000" stroke-miterlimit="10" stroke-width=".747" d="M75.191 121.594a3.987 3.987 0 1 0-7.972-.003 3.987 3.987 0 0 0 7.972.003Zm0 0"/></g><g clip-path="url(#aM)"><path fill="none" stroke="#000" stroke-miterlimit="10" stroke-width=".747" d="M83.16 121.594a3.984 3.984 0 1 0-7.969 0 3.984 3.984 0 1 0 7.97 0Zm0 0"/></g><g clip-path="url(#aN)"><path fill="none" stroke="#000" stroke-miterlimit="10" stroke-width=".747" d="M91.129 121.594a3.984 3.984 0 1 0-7.969 0c0 2.199 1.785 3.984 3.985 3.984a3.984 3.984 0 0 0 3.984-3.984Zm0 0"/></g><g clip-path="url(#aO)"><path fill="none" stroke="#000" stroke-miterlimit="10" stroke-width=".747" d="M99.102 121.594a3.987 3.987 0 1 0-7.974-.003 3.987 3.987 0 0 0 7.974.003Zm0 0"/></g><g clip-path="url(#aP)"><path fill="none" stroke="#000" stroke-miterlimit="10" stroke-width=".747" d="M107.07 121.594a3.984 3.984 0 1 0-7.969 0 3.984 3.984 0 1 0 7.97 0Zm0 0"/></g><g clip-path="url(#aQ)"><path fill="none" stroke="#000" stroke-miterlimit="10" stroke-width=".747" d="M59.25 113.621a3.986 3.986 0 0 0-7.973 0 3.984 3.984 0 0 0 3.989 3.984c2.199 0 3.984-1.78 3.984-3.984Zm0 0"/></g><g clip-path="url(#aR)"><path fill="none" stroke="#000" stroke-miterlimit="10" stroke-width=".747" d="M67.219 113.621c0-2.2-1.785-3.984-3.985-3.984a3.984 3.984 0 1 0 0 7.969c2.2 0 3.985-1.782 3.985-3.985Zm0 0"/></g><g clip-path="url(#aS)"><path fill="none" stroke="#000" stroke-miterlimit="10" stroke-width=".747" d="M75.191 113.621a3.987 3.987 0 0 0-7.972 0 3.984 3.984 0 0 0 3.984 3.984 3.984 3.984 0 0 0 3.988-3.984Zm0 0"/></g><g clip-path="url(#aT)"><path fill="none" stroke="#000" stroke-miterlimit="10" stroke-width=".747" d="M83.16 113.621a3.984 3.984 0 1 0-7.969 0 3.98 3.98 0 0 0 3.985 3.984c2.199 0 3.984-1.78 3.984-3.984Zm0 0"/></g><g clip-path="url(#aU)"><path fill="none" stroke="#000" stroke-miterlimit="10" stroke-width=".747" d="M91.129 113.621a3.984 3.984 0 1 0-7.969 0 3.984 3.984 0 0 0 3.985 3.984 3.98 3.98 0 0 0 3.984-3.984Zm0 0"/></g><g clip-path="url(#aV)"><path fill="none" stroke="#000" stroke-miterlimit="10" stroke-width=".747" d="M99.102 113.621a3.986 3.986 0 0 0-7.973 0 3.984 3.984 0 0 0 3.988 3.984c2.2 0 3.985-1.78 3.985-3.984Zm0 0"/></g><g clip-path="url(#aW)"><path fill="none" stroke="#000" stroke-miterlimit="10" stroke-width=".747" d="M107.07 113.621a3.984 3.984 0 1 0-7.969 0 3.98 3.98 0 0 0 3.985 3.984c2.2 0 3.984-1.78 3.984-3.984Zm0 0"/></g><g clip-path="url(#aX)"><path fill="none" stroke="#000" stroke-miterlimit="10" stroke-width=".747" d="M59.25 105.652a3.984 3.984 0 0 0-3.984-3.984 3.984 3.984 0 1 0 0 7.969c2.199 0 3.984-1.785 3.984-3.985Zm0 0"/></g><g clip-path="url(#aY)"><path fill="none" stroke="#000" stroke-miterlimit="10" stroke-width=".747" d="M67.219 105.652a3.984 3.984 0 0 0-3.985-3.984 3.984 3.984 0 1 0 0 7.969c2.2 0 3.985-1.785 3.985-3.985Zm0 0"/></g><g clip-path="url(#aZ)"><path fill="none" stroke="#000" stroke-miterlimit="10" stroke-width=".747" d="M75.191 105.652a3.984 3.984 0 0 0-3.988-3.984 3.984 3.984 0 1 0 0 7.969 3.987 3.987 0 0 0 3.988-3.985Zm0 0"/></g><g clip-path="url(#ba)"><path fill="none" stroke="#000" stroke-miterlimit="10" stroke-width=".747" d="M83.16 105.652a3.984 3.984 0 0 0-3.984-3.984 3.98 3.98 0 0 0-3.985 3.984 3.984 3.984 0 1 0 7.97 0Zm0 0"/></g><g clip-path="url(#bb)"><path fill="none" stroke="#000" stroke-miterlimit="10" stroke-width=".747" d="M91.129 105.652a3.98 3.98 0 0 0-3.984-3.984 3.984 3.984 0 1 0 0 7.969 3.984 3.984 0 0 0 3.984-3.985Zm0 0"/></g><g clip-path="url(#bc)"><path fill="none" stroke="#000" stroke-miterlimit="10" stroke-width=".747" d="M99.102 105.652a3.984 3.984 0 0 0-3.985-3.984 3.984 3.984 0 1 0 0 7.969c2.2 0 3.985-1.785 3.985-3.985Zm0 0"/></g><g clip-path="url(#bd)"><path fill="none" stroke="#000" stroke-miterlimit="10" stroke-width=".747" d="M107.07 105.652a3.984 3.984 0 0 0-3.984-3.984 3.98 3.98 0 0 0-3.984 3.984 3.984 3.984 0 1 0 7.968 0Zm0 0"/></g><g clip-path="url(#be)"><path fill="none" stroke="#000" stroke-miterlimit="10" stroke-width=".747" d="M59.25 97.68a3.986 3.986 0 1 0-7.972.003 3.986 3.986 0 0 0 7.972-.003Zm0 0"/></g><g clip-path="url(#bf)"><path fill="none" stroke="#000" stroke-miterlimit="10" stroke-width=".747" d="M67.219 97.68c0-2.2-1.785-3.985-3.985-3.985a3.986 3.986 0 0 0 0 7.973c2.2 0 3.985-1.785 3.985-3.988Zm0 0"/></g><g clip-path="url(#bg)"><path fill="none" stroke="#000" stroke-miterlimit="10" stroke-width=".747" d="M75.191 97.68a3.987 3.987 0 1 0-7.973.005 3.987 3.987 0 0 0 7.973-.005Zm0 0"/></g><g clip-path="url(#bh)"><path fill="none" stroke="#000" stroke-miterlimit="10" stroke-width=".747" d="M83.16 97.68a3.984 3.984 0 1 0-7.969 0 3.984 3.984 0 1 0 7.97 0Zm0 0"/></g><g clip-path="url(#bi)"><path fill="none" stroke="#000" stroke-miterlimit="10" stroke-width=".747" d="M91.129 97.68a3.984 3.984 0 1 0-7.969 0 3.984 3.984 0 1 0 7.969 0Zm0 0"/></g><g clip-path="url(#bj)"><path fill="none" stroke="#000" stroke-miterlimit="10" stroke-width=".747" d="M99.102 97.68a3.986 3.986 0 1 0-7.972.003 3.986 3.986 0 0 0 7.972-.003Zm0 0"/></g><g clip-path="url(#bk)"><path fill="none" stroke="#000" stroke-miterlimit="10" stroke-width=".747" d="M107.07 97.68a3.984 3.984 0 1 0-7.969 0 3.984 3.984 0 1 0 7.97 0Zm0 0"/></g><g clip-path="url(#bl)"><path fill="none" stroke="#000" stroke-miterlimit="10" stroke-width=".747" d="M59.25 89.71a3.986 3.986 0 0 0-7.973 0 3.984 3.984 0 0 0 3.989 3.985c2.199 0 3.984-1.78 3.984-3.984Zm0 0"/></g><g clip-path="url(#bm)"><path fill="none" stroke="#000" stroke-miterlimit="10" stroke-width=".747" d="M67.219 89.71c0-2.198-1.785-3.983-3.985-3.983a3.984 3.984 0 1 0 0 7.969c2.2 0 3.985-1.782 3.985-3.985Zm0 0"/></g><g clip-path="url(#bn)"><path fill="none" stroke="#000" stroke-miterlimit="10" stroke-width=".747" d="M75.191 89.71a3.987 3.987 0 0 0-7.972 0 3.984 3.984 0 0 0 3.984 3.985 3.984 3.984 0 0 0 3.988-3.984Zm0 0"/></g><g clip-path="url(#bo)"><path fill="none" stroke="#000" stroke-miterlimit="10" stroke-width=".747" d="M83.16 89.71a3.984 3.984 0 1 0-7.969 0 3.98 3.98 0 0 0 3.985 3.985c2.199 0 3.984-1.78 3.984-3.984Zm0 0"/></g><g clip-path="url(#bp)"><path fill="none" stroke="#000" stroke-miterlimit="10" stroke-width=".747" d="M91.129 89.71a3.984 3.984 0 1 0-7.969 0 3.984 3.984 0 0 0 3.985 3.985 3.98 3.98 0 0 0 3.984-3.984Zm0 0"/></g><g clip-path="url(#bq)"><path fill="none" stroke="#000" stroke-miterlimit="10" stroke-width=".747" d="M99.102 89.71a3.986 3.986 0 0 0-7.973 0 3.984 3.984 0 0 0 3.988 3.985c2.2 0 3.985-1.78 3.985-3.984Zm0 0"/></g><g clip-path="url(#br)"><path fill="none" stroke="#000" stroke-miterlimit="10" stroke-width=".747" d="M107.07 89.71a3.984 3.984 0 1 0-7.969 0 3.98 3.98 0 0 0 3.985 3.985c2.2 0 3.984-1.78 3.984-3.984Zm0 0"/></g><g clip-path="url(#bs)"><path fill="none" stroke="#000" stroke-miterlimit="10" stroke-width=".747" d="M59.25 81.742a3.984 3.984 0 0 0-3.984-3.984 3.984 3.984 0 1 0 0 7.969c2.199 0 3.984-1.786 3.984-3.985Zm0 0"/></g><g clip-path="url(#bt)"><path fill="none" stroke="#000" stroke-miterlimit="10" stroke-width=".747" d="M67.219 81.742a3.984 3.984 0 0 0-3.985-3.984 3.984 3.984 0 1 0 0 7.969c2.2 0 3.985-1.786 3.985-3.985Zm0 0"/></g><g clip-path="url(#bu)"><path fill="none" stroke="#000" stroke-miterlimit="10" stroke-width=".747" d="M75.191 81.742a3.984 3.984 0 0 0-3.988-3.984 3.984 3.984 0 1 0 0 7.969 3.987 3.987 0 0 0 3.988-3.985Zm0 0"/></g><g clip-path="url(#bv)"><path fill="none" stroke="#000" stroke-miterlimit="10" stroke-width=".747" d="M83.16 81.742a3.984 3.984 0 0 0-3.984-3.984 3.98 3.98 0 0 0-3.985 3.984 3.984 3.984 0 1 0 7.97 0Zm0 0"/></g><g clip-path="url(#bw)"><path fill="none" stroke="#000" stroke-miterlimit="10" stroke-width=".747" d="M91.129 81.742a3.98 3.98 0 0 0-3.984-3.984 3.984 3.984 0 1 0 0 7.969 3.984 3.984 0 0 0 3.984-3.985Zm0 0"/></g><g clip-path="url(#bx)"><path fill="none" stroke="#000" stroke-miterlimit="10" stroke-width=".747" d="M99.102 81.742a3.984 3.984 0 0 0-3.985-3.984 3.984 3.984 0 1 0 0 7.969c2.2 0 3.985-1.786 3.985-3.985Zm0 0"/></g><g clip-path="url(#by)"><path fill="none" stroke="#000" stroke-miterlimit="10" stroke-width=".747" d="M107.07 81.742a3.984 3.984 0 0 0-3.984-3.984 3.98 3.98 0 0 0-3.984 3.984 3.984 3.984 0 1 0 7.968 0Zm0 0"/></g><g clip-path="url(#bz)"><path fill="none" stroke="#000" stroke-miterlimit="10" stroke-width=".747" d="M59.25 73.77a3.986 3.986 0 1 0-7.972.003 3.986 3.986 0 0 0 7.972-.003Zm0 0"/></g><g clip-path="url(#bA)"><path fill="none" stroke="#000" stroke-miterlimit="10" stroke-width=".747" d="M67.219 73.77c0-2.2-1.785-3.985-3.985-3.985a3.986 3.986 0 0 0 0 7.973c2.2 0 3.985-1.785 3.985-3.988Zm0 0"/></g><g clip-path="url(#bB)"><path fill="none" stroke="#000" stroke-miterlimit="10" stroke-width=".747" d="M75.191 73.77a3.987 3.987 0 1 0-7.973.005 3.987 3.987 0 0 0 7.973-.005Zm0 0"/></g><g clip-path="url(#bC)"><path fill="none" stroke="#000" stroke-miterlimit="10" stroke-width=".747" d="M83.16 73.77a3.984 3.984 0 1 0-7.969 0 3.984 3.984 0 1 0 7.97 0Zm0 0"/></g><g clip-path="url(#bD)"><path fill="none" stroke="#000" stroke-miterlimit="10" stroke-width=".747" d="M91.129 73.77a3.984 3.984 0 1 0-7.969 0 3.984 3.984 0 1 0 7.969 0Zm0 0"/></g><g clip-path="url(#bE)"><path fill="none" stroke="#000" stroke-miterlimit="10" stroke-width=".747" d="M99.102 73.77a3.986 3.986 0 1 0-7.972.003 3.986 3.986 0 0 0 7.972-.003Zm0 0"/></g><g clip-path="url(#bF)"><path fill="none" stroke="#000" stroke-miterlimit="10" stroke-width=".747" d="M107.07 73.77a3.984 3.984 0 1 0-7.969 0 3.984 3.984 0 1 0 7.97 0Zm0 0"/></g><path fill="none" stroke="#000" stroke-miterlimit="10" stroke-width=".399" d="M57.7 128.738V72.047h42.519v56.691Zm0 0"/><g clip-path="url(#bG)"><path fill="none" stroke="#000" stroke-miterlimit="10" stroke-width="1.993" d="M-.527 57.82c0-2.199-1.785-3.984-3.985-3.984a3.984 3.984 0 0 0-3.984 3.984 3.984 3.984 0 1 0 7.969 0Zm0 0"/></g><g clip-path="url(#bH)"><path fill="none" stroke="#000" stroke-miterlimit="10" stroke-width="1.993" d="M19.398 57.82a3.984 3.984 0 1 0-7.969 0 3.984 3.984 0 1 0 7.97 0Zm0 0"/></g><g clip-path="url(#bI)"><path fill="none" stroke="#000" stroke-miterlimit="10" stroke-width="1.993" d="M39.324 57.82a3.984 3.984 0 1 0-7.969 0 3.984 3.984 0 1 0 7.97 0Zm0 0"/></g><g clip-path="url(#bJ)"><path fill="none" stroke="#000" stroke-miterlimit="10" stroke-width="1.993" d="M-.527 37.895a3.984 3.984 0 1 0-7.969 0 3.984 3.984 0 1 0 7.969 0Zm0 0"/></g><g clip-path="url(#bK)"><path fill="none" stroke="#000" stroke-miterlimit="10" stroke-width="1.993" d="M19.398 37.895a3.984 3.984 0 1 0-7.969 0 3.984 3.984 0 1 0 7.97 0Zm0 0"/></g><g clip-path="url(#bL)"><path fill="none" stroke="#000" stroke-miterlimit="10" stroke-width="1.993" d="M39.324 37.895a3.984 3.984 0 1 0-7.969 0 3.984 3.984 0 1 0 7.97 0Zm0 0"/></g><g clip-path="url(#bM)"><path fill="none" stroke="#000" stroke-miterlimit="10" stroke-width="1.993" d="M-.527 17.969a3.984 3.984 0 1 0-7.969 0 3.98 3.98 0 0 0 3.984 3.984c2.2 0 3.985-1.781 3.985-3.984Zm0 0"/></g><g clip-path="url(#bN)"><path fill="none" stroke="#000" stroke-miterlimit="10" stroke-width="1.993" d="M19.398 17.969a3.984 3.984 0 1 0-7.969 0 3.98 3.98 0 0 0 3.985 3.984c2.2 0 3.984-1.781 3.984-3.984Zm0 0"/></g><g clip-path="url(#bO)"><path fill="none" stroke="#000" stroke-miterlimit="10" stroke-width="1.993" d="M39.324 17.969a3.984 3.984 0 1 0-7.969 0 3.98 3.98 0 0 0 3.985 3.984c2.2 0 3.984-1.781 3.984-3.984Zm0 0"/></g><g clip-path="url(#bP)"><path fill="none" stroke="#000" stroke-miterlimit="10" stroke-width="1.993" d="M-.527-1.957c0-2.2-1.785-3.984-3.985-3.984a3.984 3.984 0 0 0-3.984 3.984 3.98 3.98 0 0 0 3.984 3.984c2.2 0 3.985-1.78 3.985-3.984Zm0 0"/></g><g clip-path="url(#bQ)"><path fill="none" stroke="#000" stroke-miterlimit="10" stroke-width="1.993" d="M19.398-1.957a3.984 3.984 0 1 0-7.969 0 3.98 3.98 0 0 0 3.985 3.984c2.2 0 3.984-1.78 3.984-3.984Zm0 0"/></g><g clip-path="url(#bR)"><path fill="none" stroke="#000" stroke-miterlimit="10" stroke-width="1.993" d="M39.324-1.957a3.984 3.984 0 1 0-7.969 0 3.98 3.98 0 0 0 3.985 3.984c2.2 0 3.984-1.78 3.984-3.984Zm0 0"/></g><path fill="none" stroke="#000" stroke-miterlimit="10" stroke-width=".399" d="M1.004 57.871V1.18h42.52V57.87Zm0 0"/><g clip-path="url(#bS)"><path fill="none" stroke="#000" stroke-miterlimit="10" stroke-width="3.985" d="M59.25 57.82a3.984 3.984 0 1 0-7.969 0 3.984 3.984 0 1 0 7.969 0Zm0 0"/></g><g clip-path="url(#bT)"><path fill="none" stroke="#000" stroke-miterlimit="10" stroke-width="3.985" d="M79.176 57.82a3.986 3.986 0 0 0-7.973 0 3.987 3.987 0 0 0 7.973 0Zm0 0"/></g><g clip-path="url(#bU)"><path fill="none" stroke="#000" stroke-miterlimit="10" stroke-width="3.985" d="M99.102 57.82a3.986 3.986 0 0 0-7.973 0 3.987 3.987 0 0 0 7.973 0Zm0 0"/></g><g clip-path="url(#bV)"><path fill="none" stroke="#000" stroke-miterlimit="10" stroke-width="3.985" d="M59.25 37.895a3.984 3.984 0 1 0-7.969 0 3.984 3.984 0 1 0 7.969 0Zm0 0"/></g><g clip-path="url(#bW)"><path fill="none" stroke="#000" stroke-miterlimit="10" stroke-width="3.985" d="M79.176 37.895a3.986 3.986 0 0 0-7.973 0 3.987 3.987 0 0 0 7.973 0Zm0 0"/></g><g clip-path="url(#bX)"><path fill="none" stroke="#000" stroke-miterlimit="10" stroke-width="3.985" d="M99.102 37.895a3.986 3.986 0 0 0-7.973 0 3.987 3.987 0 0 0 7.973 0Zm0 0"/></g><g clip-path="url(#bY)"><path fill="none" stroke="#000" stroke-miterlimit="10" stroke-width="3.985" d="M59.25 17.969a3.984 3.984 0 1 0-7.969 0 3.98 3.98 0 0 0 3.985 3.984c2.199 0 3.984-1.781 3.984-3.984Zm0 0"/></g><g clip-path="url(#bZ)"><path fill="none" stroke="#000" stroke-miterlimit="10" stroke-width="3.985" d="M79.176 17.969a3.986 3.986 0 0 0-7.973 0 3.984 3.984 0 0 0 3.988 3.984c2.2 0 3.985-1.781 3.985-3.984Zm0 0"/></g><g clip-path="url(#ca)"><path fill="none" stroke="#000" stroke-miterlimit="10" stroke-width="3.985" d="M99.102 17.969a3.986 3.986 0 0 0-7.973 0 3.984 3.984 0 0 0 3.988 3.984c2.2 0 3.985-1.781 3.985-3.984Zm0 0"/></g><g clip-path="url(#cb)"><path fill="none" stroke="#000" stroke-miterlimit="10" stroke-width="3.985" d="M59.25-1.957a3.984 3.984 0 1 0-7.969 0 3.98 3.98 0 0 0 3.985 3.984c2.199 0 3.984-1.78 3.984-3.984Zm0 0"/></g><g clip-path="url(#cc)"><path fill="none" stroke="#000" stroke-miterlimit="10" stroke-width="3.985" d="M79.176-1.957a3.986 3.986 0 0 0-7.973 0 3.984 3.984 0 0 0 3.988 3.984c2.2 0 3.985-1.78 3.985-3.984Zm0 0"/></g><g clip-path="url(#cd)"><path fill="none" stroke="#000" stroke-miterlimit="10" stroke-width="3.985" d="M99.102-1.957a3.986 3.986 0 0 0-7.973 0 3.984 3.984 0 0 0 3.988 3.984c2.2 0 3.985-1.78 3.985-3.984Zm0 0"/></g><path fill="none" stroke="#000" stroke-miterlimit="10" stroke-width=".399" d="M57.7 57.871V1.18h42.519V57.87Zm0 0"/></svg>