<svg xmlns="http://www.w3.org/2000/svg" xmlns:xlink="http://www.w3.org/1999/xlink" width="112.34" height="103.79"><defs><path id="a" d="M2.5-5.078c0-.219-.016-.219-.234-.219-.328.313-.75.5-1.5.5v.266c.218 0 .64 0 1.109-.203v4.078c0 .297-.031.39-.781.39H.812V0c.329-.031 1.016-.031 1.376-.031s1.046 0 1.374.031v-.266h-.28c-.75 0-.782-.093-.782-.39Zm0 0"/><path id="c" d="M3.89-2.547c0-.844-.078-1.36-.343-1.875-.344-.703-1-.875-1.438-.875-1 0-1.375.75-1.484.969C.344-3.75.328-2.953.328-2.547c0 .531.016 1.328.406 1.969.36.594.954.75 1.375.75.391 0 1.063-.125 1.47-.906.296-.578.312-1.297.312-1.813M2.11-.062c-.266 0-.813-.125-.985-.954-.094-.453-.094-1.203-.094-1.625 0-.546 0-1.109.094-1.546.172-.813.781-.891.984-.891.266 0 .829.14.985.86.094.437.094 1.046.094 1.577 0 .47 0 1.188-.094 1.641-.172.828-.719.938-.985.938m0 0"/><path id="f" d="M2.25-1.625c.125-.125.453-.39.594-.5.484-.453.953-.89.953-1.61 0-.953-.797-1.562-1.781-1.562-.97 0-1.594.719-1.594 1.438 0 .39.312.437.422.437.172 0 .422-.11.422-.422 0-.406-.407-.406-.5-.406.234-.594.765-.781 1.156-.781.734 0 1.125.625 1.125 1.297 0 .828-.578 1.437-1.531 2.39l-1 1.047C.422-.219.422-.203.422 0h3.14l.235-1.422h-.25c-.016.156-.078.547-.172.703-.047.063-.656.063-.781.063H1.172Zm0 0"/><path id="g" d="M2.016-2.656c.625 0 1.03.453 1.03 1.297 0 1-.562 1.28-.983 1.28-.438 0-1.047-.155-1.329-.577.297 0 .5-.188.5-.438 0-.265-.187-.437-.453-.437-.203 0-.437.125-.437.453 0 .75.812 1.25 1.734 1.25 1.047 0 1.797-.734 1.797-1.531 0-.672-.531-1.266-1.344-1.453.625-.22 1.11-.75 1.11-1.391 0-.64-.72-1.094-1.547-1.094-.86 0-1.5.453-1.5 1.063 0 .297.187.422.406.422.25 0 .406-.172.406-.407 0-.297-.265-.406-.437-.406.344-.437.953-.469 1.094-.469.203 0 .812.063.812.89 0 .548-.234.891-.344 1.016-.234.25-.422.266-.906.297-.156 0-.219.016-.219.125 0 .11.078.11.219.11Zm0 0"/><path id="h" d="M3.14-5.156c0-.157 0-.219-.171-.219-.094 0-.11 0-.188.11L.234-1.564v.25h2.25v.672c0 .297-.015.375-.64.375h-.172V0c.672-.031.687-.031 1.14-.031.454 0 .47 0 1.141.031v-.266h-.172c-.625 0-.64-.078-.64-.375v-.671h.843v-.25h-.843Zm-.593.64v2.954H.516Zm0 0"/><path id="i" d="M1.11-4.484c.109.03.421.125.765.125 1 0 1.594-.703 1.594-.828 0-.094-.047-.11-.094-.11-.016 0-.031 0-.094.031a3 3 0 0 1-1.11.22c-.468 0-.858-.11-1.108-.22-.079-.03-.094-.03-.11-.03-.094 0-.094.077-.094.234v2.328c0 .14 0 .234.125.234.063 0 .079-.031.125-.094.094-.11.391-.515 1.079-.515.437 0 .656.359.734.515.125.281.14.656.14.953s0 .735-.218 1.079c-.156.25-.485.484-.906.484A1.27 1.27 0 0 1 .734-.922c.016.016.079.016.079.016.218 0 .406-.14.406-.39a.39.39 0 0 0-.39-.407c-.157 0-.407.078-.407.422 0 .718.625 1.453 1.531 1.453 1 0 1.844-.781 1.844-1.766 0-.922-.672-1.75-1.61-1.75-.39 0-.765.125-1.078.406Zm0 0"/><path id="b" d="M1.625-1.984a.453.453 0 0 0-.453-.453A.437.437 0 0 0 .734-2a.45.45 0 0 0 .438.453c.25 0 .453-.219.453-.437m0 0"/><path id="d" d="M2.14-3.797c0-.187-.015-.187-.203-.187-.39.39-1 .39-1.218.39v.235c.156 0 .562 0 .922-.172v3.015c0 .204 0 .282-.625.282h-.25V0c.328-.031.797-.031 1.125-.031s.797 0 1.125.031v-.234h-.25c-.625 0-.625-.078-.625-.282Zm0 0"/><path id="e" d="M3.297-1.906c0-.438 0-2.078-1.469-2.078S.36-2.344.36-1.906c0 .422 0 2.031 1.47 2.031 1.468 0 1.468-1.61 1.468-2.031M1.828-.062a.84.84 0 0 1-.812-.625C.922-1.031.922-1.61.922-1.984c0-.407 0-.86.094-1.188.14-.531.593-.61.812-.61.266 0 .672.126.797.579.094.312.094.75.094 1.219 0 .375 0 .984-.094 1.312a.825.825 0 0 1-.797.61m0 0"/></defs><path fill="none" stroke="#7F7F7F" stroke-linecap="round" stroke-miterlimit="10" stroke-width=".399" d="M13.52 93.195v-1.992M41.867 93.195v-1.992M70.215 93.195v-1.992M98.559 93.195v-1.992M13.52 3.613V1.621M41.867 3.613V1.621M70.215 3.613V1.621M98.559 3.613V1.621M11.527 91.203h1.993M11.527 69.305h1.993M11.527 47.406h1.993M11.527 25.508h1.993M11.527 3.613h1.993M98.559 91.203h1.992M98.559 69.305h1.992M98.559 47.406h1.992M98.559 25.508h1.992M98.559 3.613h1.992"/><path fill="none" stroke="#7F7F7F" stroke-miterlimit="10" stroke-width=".399" d="M13.52 91.203h85.039M13.52 3.613h85.039M13.52 91.203V3.613M98.559 91.203V3.613"/><path fill="none" stroke="#000" stroke-miterlimit="10" stroke-width=".598" d="m13.52 91.203 85.039-43.797L27.69 3.613l-5.668 43.793"/><use xlink:href="#a" x=".208" y="102.517"/><use xlink:href="#b" x="6.324" y="102.517"/><use xlink:href="#a" x="10.558" y="102.517"/><use xlink:href="#c" x="14.793" y="102.517"/><use xlink:href="#d" x="19.027" y="99.704"/><use xlink:href="#e" x="22.68" y="99.704"/><use xlink:href="#f" x="28.555" y="102.517"/><use xlink:href="#b" x="34.671" y="102.517"/><use xlink:href="#a" x="38.905" y="102.517"/><use xlink:href="#c" x="43.14" y="102.517"/><use xlink:href="#d" x="47.373" y="99.704"/><use xlink:href="#e" x="51.026" y="99.704"/><use xlink:href="#g" x="56.901" y="102.517"/><use xlink:href="#b" x="63.017" y="102.517"/><use xlink:href="#a" x="67.251" y="102.517"/><use xlink:href="#c" x="71.486" y="102.517"/><use xlink:href="#d" x="75.719" y="99.704"/><use xlink:href="#e" x="79.372" y="99.704"/><use xlink:href="#h" x="85.247" y="102.517"/><use xlink:href="#b" x="91.363" y="102.517"/><use xlink:href="#a" x="95.597" y="102.517"/><use xlink:href="#c" x="99.832" y="102.517"/><use xlink:href="#d" x="104.066" y="99.704"/><use xlink:href="#e" x="107.719" y="99.704"/><use xlink:href="#a" x=".403" y="93.771"/><use xlink:href="#c" x="4.638" y="93.771"/><use xlink:href="#a" x=".403" y="71.874"/><use xlink:href="#i" x="4.638" y="71.874"/><use xlink:href="#f" x=".403" y="49.977"/><use xlink:href="#c" x="4.638" y="49.977"/><use xlink:href="#f" x=".403" y="28.079"/><use xlink:href="#i" x="4.638" y="28.079"/><use xlink:href="#g" x=".403" y="6.182"/><use xlink:href="#c" x="4.638" y="6.182"/></svg>