<svg xmlns="http://www.w3.org/2000/svg" xmlns:xlink="http://www.w3.org/1999/xlink" width="446.582" height="178.94"><defs><path id="a" d="M10.063-.422 6.03-5.812 9.813-9.36c.171-.157.171-.235.171-.297 0-.297-.28-.297-.484-.297h-.875c-.25 0-.531 0-.844.281l-4.61 4.36v-3.954c0-.453-.108-.687-.687-.687H2c-.516 0-.687.156-.687.687v8.579c0 .515.156.687.687.687h.484c.547 0 .688-.187.688-.687v-2.407l1.594-1.515L7.969-.297C8.203 0 8.422 0 8.687 0h.86c.312 0 .515 0 .515-.422m0 0"/><path id="b" d="M7.438-3.234c0-2.344-1.157-3.578-3.5-3.578-2.391 0-3.5 1.28-3.5 3.578 0 2.343 1.234 3.39 3.5 3.39 2.25 0 3.5-1.031 3.5-3.39m-1.954-.172c0 1.14 0 2.437-1.546 2.437S2.39-2.25 2.39-3.406c0-1.094 0-2.375 1.547-2.375s1.546 1.265 1.546 2.375m0 0"/><path id="c" d="M7.172-.687v-3.97c0-1.484-.625-2.077-2.094-2.077-1.437 0-2.094 1-2.297 1.406h-.015v-3.938c0-.453-.094-.687-.688-.687h-.531c-.516 0-.688.156-.688.687v8.579c0 .515.157.687.688.687h.578c.547 0 .688-.187.688-.687V-3.86c0-1.25.828-1.828 1.578-1.828.687 0 .828.328.828 1.046v3.954c0 .453.11.687.687.687h.578c.547 0 .688-.187.688-.687m0 0"/><path id="d" d="M2.781-.687v-8.579c0-.453-.094-.687-.687-.687h-.531c-.516 0-.688.156-.688.687v8.579c0 .515.156.687.688.687h.53c.548 0 .688-.187.688-.687m0 0"/><path id="e" d="M6.875-3.734c0-1.844-.86-3.078-3-3.078-2.297 0-3.437 1.296-3.437 3.468 0 2.36 1.375 3.5 3.625 3.5.546 0 1.359-.062 2.312-.547.313-.156.406-.203.406-.375 0-.093-.047-.515-.047-.625-.062-.453-.078-.453-.203-.453-.062 0-.093 0-.25.14a3.24 3.24 0 0 1-2.172.829c-1.609 0-1.78-1.281-1.828-2.187h3.907c.328 0 .687-.016.687-.672m-1.594-.094H2.297c.047-.875.328-1.953 1.578-1.953 1.14 0 1.36.828 1.406 1.953m0 0"/><path id="f" d="M2.781-.687v-5.188c0-.469-.094-.687-.687-.687h-.531c-.516 0-.688.156-.688.687v5.188c0 .515.156.687.688.687h.53c.548 0 .688-.187.688-.687m.11-8v-.282c0-.453-.11-.687-.703-.687h-.72c-.546 0-.687.187-.687.687v.281c0 .407.063.688.688.688h.718c.61 0 .704-.266.704-.687m0 0"/><path id="g" d="M5.688-2.016a2.03 2.03 0 0 0-.704-1.546c-.562-.516-1.062-.594-1.671-.72-.782-.14-1.36-.25-1.36-.812 0-.593.469-.703 1.031-.703.954 0 1.47.36 1.844.672.156.14.172.14.234.14.141 0 .172-.124.188-.171.031-.125.172-.922.172-1 0-.235-.766-.422-.922-.485a5 5 0 0 0-1.406-.171c-.64 0-2.563 0-2.563 2.046 0 .704.313 1.141.703 1.485.5.453 1.063.562 1.875.719.422.062 1.157.203 1.157.828 0 .672-.563.765-1.125.765-.625 0-1.438-.172-2.11-.984-.062-.063-.11-.11-.203-.11-.14 0-.172.126-.187.22C.609-1.657.438-.829.438-.688c0 .25 1.078.593 1.078.593.797.25 1.375.25 1.625.25.734 0 2.547-.062 2.547-2.172m0 0"/><path id="h" d="M5.344-.672c0-.047-.016-.14-.11-.453-.078-.281-.093-.36-.234-.36-.062 0-.078 0-.172.094-.156.11-.547.422-1.14.422-.344 0-.563-.234-.563-1.187v-3.375h1.281c.172 0 .688 0 .688-.516s-.516-.516-.688-.516H3.125v-1.203c0-.453-.094-.687-.687-.687H2c-.516 0-.687.156-.687.687v1.204H.969c-.156 0-.688 0-.688.515 0 .516.516.516.688.516h.297v3.625c0 1.453.515 2.062 1.5 2.062.125 0 .765 0 1.515-.234.235-.063 1.063-.328 1.063-.594m0 0"/><path id="i" d="M6.797-.687v-3.844c0-2.266-2.172-2.282-2.89-2.282a5.9 5.9 0 0 0-2.36.454c-.297.14-.375.172-.375.328 0 .11.094.937.11 1.047.015.093.077.172.187.172.062 0 .11-.047.156-.094.61-.64 1.328-.953 2.219-.953.781 0 1 .468 1 1.312v.5c-.5 0-4.25.031-4.25 2.14 0 1 .797 2.063 2.062 2.063.485 0 1.563-.14 2.235-1.125v.282c0 .453.093.687.687.687h.531c.547 0 .688-.187.688-.687M4.844-2.203c0 1.328-1.36 1.328-1.407 1.328-.593 0-.984-.516-.984-1.062 0-1.407 2-1.5 2.39-1.516Zm0 0"/><path id="j" d="M11.563-.687v-3.97c0-1.484-.626-2.077-2.094-2.077-1.016 0-1.813.484-2.328 1.422-.235-1.375-1.453-1.422-2.047-1.422-.282 0-.875 0-1.516.484a2.9 2.9 0 0 0-.844 1H2.72v-.719c0-.453-.094-.687-.688-.687h-.484c-.516 0-.688.156-.688.687v5.282c0 .515.157.687.688.687h.578c.547 0 .688-.187.688-.687V-3.86c0-1.297.874-1.828 1.578-1.828.687 0 .843.296.843 1.046v3.954c0 .515.157.687.688.687H6.5c.547 0 .688-.187.688-.687V-3.86c0-1.297.875-1.828 1.578-1.828.687 0 .843.296.843 1.046v3.954c0 .515.157.687.688.687h.578c.547 0 .688-.187.688-.687m0 0"/><path id="k" d="M10.313-6.172c-.047-.39-.297-.39-.75-.39-.672 0-.844.03-1.047.78L7.359-1.624 6.141-5.922c-.094-.312-.188-.64-.844-.64-.219 0-.547 0-.75.328-.125.203-.766 2.687-1.266 4.375l-1.14-4.063c-.141-.484-.297-.64-.891-.64H.969c-.281 0-.578 0-.625.39L1.859-.656C2.047 0 2.422 0 2.781 0h.406c.672 0 .782-.219.938-.781.328-1.203.86-3 .906-3.75l.016-.016c.094.813.719 3.078.906 3.766.156.515.234.781.953.781h.969c.61 0 .766-.172.906-.656Zm0 0"/><path id="l" d="M6.563-.719c0-.156-.063-.812-.094-1 0-.047-.032-.187-.172-.187-.063 0-.094 0-.234.14-.235.22-.907.797-2.094.797-1.485 0-1.485-1.437-1.485-2.36 0-1.155.063-2.358 1.532-2.358.937 0 1.312.218 1.843.656.172.156.188.156.25.156.141 0 .172-.125.188-.187.031-.11.172-.922.172-.985 0-.14-.094-.187-.344-.312C5.438-6.672 5-6.812 4-6.812c-2.14 0-3.469 1-3.469 3.515C.531-.922 1.766.156 3.938.156c.374 0 1.234-.015 2.203-.5.406-.219.422-.234.422-.375m0 0"/><path id="m" d="M7.656-5.812c0-.047-.062-.391-.093-.547-.063-.344-.063-.375-.313-.375-.453 0-1.172.172-1.719.515-.672-.453-1.422-.515-2.031-.515S.61-6.734.61-4.36c0 .578.171 1.297.703 1.765C.938-2.063.938-1.5.938-1.438c0 .282.078.75.375 1.141C1.109-.219.359.047.359.97c0 .437.22 1.187 1.125 1.594.813.374 1.766.39 2.454.39.843 0 3.578 0 3.578-2.031 0-2.234-2.016-2.234-3.953-2.234h-.688c-.516 0-.719 0-.922-.172-.062-.063-.297-.282-.297-.657 0-.093 0-.125.016-.218.687.375 1.531.375 1.828.375.61 0 2.89 0 2.89-2.36 0-.828-.327-1.343-.452-1.5.25 0 .75 0 1.328.157a.7.7 0 0 0 .203.062c.125 0 .187-.078.187-.187M4.546-4.36c0 .78-.046 1.343-1.046 1.343s-1.047-.546-1.047-1.328c0-.797.047-1.343 1.047-1.343s1.047.53 1.047 1.328M6.032.969c0 .953-1.625.953-2.093.953-.563 0-2.094 0-2.094-1 0-.672.437-.672.765-.672h1.672c1.157 0 1.75.188 1.75.719m0 0"/><path id="n" d="M7.172-.687v-3.97c0-1.484-.625-2.077-2.094-2.077-1.5 0-2.156 1.093-2.344 1.484H2.72v-.719c0-.453-.094-.687-.688-.687h-.484c-.516 0-.688.156-.688.687v5.282c0 .515.157.687.688.687h.578c.547 0 .688-.187.688-.687V-3.86c0-1.25.828-1.828 1.578-1.828.687 0 .828.328.828 1.046v3.954c0 .453.11.687.687.687h.578c.547 0 .688-.187.688-.687m0 0"/><path id="o" d="M5.938-.484v-.141c0-.469-.235-.469-.563-.469l-1.547.016-1.453.016v-2.032H5c.297 0 .469-.078.469-.469 0-.374-.125-.468-.469-.468H2.375v-1.844h.484l2.344.016c.344 0 .578 0 .578-.47v-.077c0-.328-.062-.485-.484-.485H1.39c-.36 0-.485.11-.485.485v5.922c0 .359.11.484.485.484h4.062c.375 0 .484-.125.484-.484m0 0"/><path id="p" d="M4.984-.484v-2.75c0-1.032-.437-1.438-1.453-1.438-1.047 0-1.5.75-1.625 1.016h-.015v-.485c0-.328-.063-.484-.47-.484h-.343c-.36 0-.484.11-.484.484v3.657c0 .359.11.484.484.484h.39c.391 0 .485-.125.485-.484v-2.203c0-.86.578-1.266 1.094-1.266.484 0 .578.219.578.734v2.735c0 .328.078.484.484.484H4.5c.39 0 .484-.125.484-.484m0 0"/><path id="q" d="M4.781-2.594c0-1.281-.61-2.14-2.093-2.14-1.594 0-2.375.89-2.375 2.406 0 1.64.937 2.437 2.515 2.437.375 0 .938-.046 1.594-.375.219-.109.297-.14.297-.265 0-.063-.032-.36-.047-.438-.031-.312-.047-.312-.14-.312-.032 0-.063 0-.173.093a2.2 2.2 0 0 1-1.5.579c-1.125 0-1.25-.891-1.28-1.532h2.718c.234 0 .484 0 .484-.453m-1.11-.062H1.595c.031-.61.234-1.36 1.094-1.36.796 0 .953.579.984 1.36m0 0"/><path id="r" d="M3.547-3.937v-.47c0-.202 0-.265-.172-.265-.281 0-1.016.094-1.484 1.172v-.64c0-.329-.079-.485-.485-.485h-.312c-.36 0-.485.11-.485.484v3.657c0 .359.11.484.485.484h.36c.374 0 .484-.125.484-.484v-1.813c0-.937.78-1.328 1.406-1.375.187 0 .203 0 .203-.265m0 0"/><path id="s" d="M5.328-4.031c0-.047-.047-.282-.078-.39-.031-.235-.031-.25-.219-.25-.312 0-.797.109-1.187.343-.469-.313-.985-.344-1.406-.344-.422 0-2.016 0-2.016 1.64 0 .407.11.891.5 1.235C.64-1.437.64-1.047.64-1c0 .188.062.516.28.797C.767-.156.25.03.25.672c0 .312.156.828.781 1.11.563.265 1.235.265 1.703.265.579 0 2.485 0 2.485-1.406 0-1.563-1.407-1.563-2.75-1.563H2c-.36 0-.5 0-.64-.11-.048-.046-.22-.187-.22-.452 0-.079.016-.094.032-.157.469.266 1.047.266 1.266.266.406 0 2 0 2-1.64 0-.579-.22-.938-.313-1.047.172 0 .516 0 .922.109.047.031.11.047.14.047.094 0 .141-.063.141-.125m-2.172 1c0 .547-.031.937-.719.937-.703 0-.734-.375-.734-.922 0-.546.031-.937.734-.937.688 0 .72.375.72.922M4.203.672c0 .656-1.14.656-1.469.656-.39 0-1.453 0-1.453-.687 0-.47.297-.47.532-.47h1.156c.812 0 1.234.142 1.234.5m0 0"/><path id="t" d="M1.938-.484v-3.61c0-.312-.079-.468-.485-.468h-.36c-.359 0-.484.109-.484.468v3.61c0 .359.11.484.485.484h.36c.374 0 .484-.125.484-.484M2-6.047v-.187c0-.313-.062-.47-.469-.47h-.515c-.375 0-.485.126-.485.47v.187c0 .297.063.484.485.484h.515c.407 0 .469-.171.469-.484m0 0"/><path id="u" d="M8.031-.484v-2.75c0-1.032-.437-1.438-1.453-1.438-.703 0-1.25.328-1.61.984-.155-.953-1.015-.984-1.437-.984-.187 0-.594 0-1.047.328a2 2 0 0 0-.578.688h-.015v-.485c0-.328-.063-.484-.47-.484h-.343c-.36 0-.484.11-.484.484v3.657c0 .359.11.484.484.484h.39c.391 0 .485-.125.485-.484v-2.203c0-.891.61-1.266 1.094-1.266s.594.203.594.734v2.735c0 .359.109.484.468.484h.407C4.89 0 5-.125 5-.484v-2.203c0-.891.61-1.266 1.094-1.266.468 0 .578.203.578.734v2.735c0 .359.11.484.484.484h.407c.375 0 .468-.125.468-.484m0 0"/><path id="v" d="M4.719-.219c0-.078-.032-.125-.11-.203L3-2.359l1.453-1.782c.094-.109.094-.156.094-.203 0-.218-.203-.218-.344-.218h-.437c-.172 0-.297 0-.438.14-.047.063-.703.922-.86 1.156L1.61-4.344c-.171-.218-.28-.218-.515-.218H.656c-.125 0-.343 0-.343.218 0 .063.03.11.093.188l1.5 1.797L.344-.422c-.063.078-.11.125-.11.203 0 .219.22.219.36.219h.437c.328 0 .344-.031.563-.36l.86-1.28L3.468-.204c.14.203.265.203.469.203h.437c.14 0 .344 0 .344-.219m0 0"/><path id="w" d="M5.219-2.297c0-.484 0-2.375-1.875-2.375-.828 0-1.313.453-1.406.563v-2.328c0-.329-.079-.485-.485-.485h-.36c-.359 0-.484.11-.484.484v5.954c0 .359.11.484.485.484h.39c.172 0 .47 0 .485-.39.453.5.968.5 1.125.5 2.125 0 2.125-1.907 2.125-2.407m-1.36 0c0 .735 0 1.688-1.125 1.688A.97.97 0 0 1 1.97-1v-2.61c.125-.124.422-.343.875-.343 1.015 0 1.015.906 1.015 1.656m0 0"/><path id="x" d="M4.969-.484v-5.953c0-.329-.063-.485-.469-.485h-.375c-.375 0-.469.14-.469.484v2.266a1.76 1.76 0 0 0-1.265-.5C.375-4.672.375-2.766.375-2.266c0 .454 0 2.375 1.969 2.375.422 0 .844-.125 1.281-.578 0 .375.14.469.469.469H4.5c.375 0 .469-.125.469-.484M3.625-1.25c0 .172 0 .266-.297.469-.25.156-.484.172-.594.172-1.015 0-1.015-.922-1.015-1.657 0-.75 0-1.687 1.125-1.687.281 0 .562.094.781.297Zm0 0"/><path id="y" d="M4.984-.484v-3.61c0-.312-.062-.468-.484-.468h-.39c-.376 0-.485.125-.485.468v2.375c0 .657-.344 1.219-1.047 1.219-.562 0-.625-.14-.625-.672v-2.922c0-.312-.062-.468-.484-.468h-.39c-.36 0-.485.109-.485.468v2.844c0 1.063.578 1.36 1.625 1.36.265 0 .969 0 1.437-.844v.25c0 .328.078.484.485.484H4.5c.39 0 .484-.125.484-.484m0 0"/><path id="z" d="M3.719-.469c0-.031-.016-.094-.078-.312-.047-.203-.079-.25-.157-.25-.062 0-.062 0-.125.062-.109.078-.375.297-.796.297-.235 0-.391-.172-.391-.828v-2.344h.89c.126 0 .47 0 .47-.36 0-.359-.344-.359-.47-.359h-.89v-.828c0-.328-.063-.484-.485-.484h-.296c-.36 0-.485.11-.485.484v.829H.672c-.11 0-.469 0-.469.359 0 .36.36.36.469.36h.203v2.515c0 1.016.36 1.437 1.047 1.437.094 0 .531 0 1.047-.156.172-.047.75-.234.75-.422m0 0"/><path id="A" d="M3.953-1.406c0-.563-.297-.907-.484-1.063-.39-.36-.75-.422-1.172-.5-.547-.11-.938-.187-.938-.562 0-.422.329-.5.72-.5.655 0 1.015.25 1.28.468.094.11.125.11.157.11.109 0 .125-.094.14-.14.016-.079.11-.641.11-.688 0-.157-.532-.297-.641-.328a3.5 3.5 0 0 0-.969-.125c-.453 0-1.781 0-1.781 1.422 0 .484.219.796.484 1.03.344.313.735.391 1.297.5.297.048.797.141.797.579 0 .469-.375.531-.765.531-.438 0-1-.125-1.47-.687-.046-.047-.077-.079-.14-.079-.094 0-.125.094-.125.157-.031.14-.14.703-.14.797 0 .187.75.422.75.422.546.171.953.171 1.125.171.5 0 1.765-.046 1.765-1.515m0 0"/><path id="B" d="M4.563-.5c0-.11-.047-.562-.063-.703 0-.016-.031-.125-.125-.125-.031 0-.062 0-.156.11-.172.14-.64.546-1.453.546-1.047 0-1.047-1-1.047-1.64 0-.813.062-1.641 1.078-1.641.64 0 .906.156 1.265.453.125.11.141.11.188.11.094 0 .11-.094.125-.126.016-.078.125-.64.125-.687 0-.094-.078-.14-.25-.219-.469-.219-.766-.312-1.469-.312-1.484 0-2.406.703-2.406 2.437C.375-.64 1.219.11 2.735.11c.265 0 .859-.015 1.53-.343.282-.157.298-.172.298-.266m0 0"/><path id="C" d="M4.984-.484v-2.75c0-1.032-.437-1.438-1.453-1.438-1 0-1.453.688-1.594.969h-.015v-2.734c0-.329-.063-.485-.469-.485h-.375c-.36 0-.484.11-.484.484v5.954c0 .359.11.484.484.484h.39c.391 0 .485-.125.485-.484v-2.203c0-.86.578-1.266 1.094-1.266.484 0 .578.219.578.734v2.735c0 .328.078.484.484.484H4.5c.39 0 .484-.125.484-.484m0 0"/><path id="D" d="M5.469-2c0-1.11-.828-1.953-1.813-2.172l-.969-.219c-.218-.062-.828-.28-.828-.859 0-.844.844-.86 1.188-.86.547 0 1.047.126 1.531.61.172.14.172.156.219.156.062 0 .11-.031.14-.172l.141-.875c.031-.078.031-.093.031-.125 0-.078-.015-.093-.265-.218-.703-.36-1.297-.407-1.797-.407-.89 0-2.438.22-2.438 2.079 0 .703.375 1.171.563 1.359.5.515.969.625 1.75.797.562.14.781.187 1 .39.094.094.312.297.312.688 0 .937-.859.953-1.187.953-.844 0-1.578-.328-2.063-.781-.125-.125-.14-.125-.187-.125-.063 0-.11.031-.14.187l-.141.86c-.032.093-.032.109-.032.14 0 .203 1.047.563 1.094.578A4.7 4.7 0 0 0 3.047.22C4.53.219 5.469-.453 5.469-2m0 0"/><path id="E" d="M5.156-2.25c0-1.625-.797-2.484-2.422-2.484-1.656 0-2.421.89-2.421 2.484 0 1.625.859 2.36 2.421 2.36 1.563 0 2.422-.72 2.422-2.36m-1.343-.11c0 .782 0 1.688-1.079 1.688-1.062 0-1.062-.89-1.062-1.687 0-.766 0-1.657 1.062-1.657 1.079 0 1.079.875 1.079 1.657m0 0"/><path id="F" d="M4.39-.375c0-.375-.296-.375-.593-.375l-1.531.016h-.453L4.25-3.812a.42.42 0 0 0 .11-.329c0-.421-.298-.421-.47-.421H.939c-.125 0-.485 0-.485.375s.328.375.594.375L2.5-3.844h.36L.421-.75a.42.42 0 0 0-.11.328C.313 0 .626 0 .783 0h3.14c.125 0 .469 0 .469-.375m0 0"/><path id="G" d="M4.922-.484v-.11c0-.156 0-.36-.203-.437-.078-.047-.39-.047-.594-.047l-.672.016H1.828l1.328-1.25c.14-.126.516-.438.672-.579.547-.53 1.094-1.062 1.094-1.953 0-1.218-.875-2.297-2.344-2.297-.344 0-.906.047-1.39.438-.094.078-.547.437-.735 1.094l.5.64c.063.078.094.125.156.125.094 0 .11-.078.141-.187.203-.688.547-1.11 1.188-1.11.765 0 1.093.704 1.093 1.313 0 .64-.375 1.312-.984 1.953L.64-.844c-.094.094-.094.11-.094.282v.078c0 .359.11.484.484.484h3.422c.375 0 .469-.125.469-.484m0 0"/><path id="H" d="M5.047-3.422c0-1.36 0-3.719-2.313-3.719C.422-7.14.422-4.812.422-3.42c0 1.374 0 3.64 2.312 3.64 2.313 0 2.313-2.25 2.313-3.64m-1.36-.14c0 .578 0 1.343-.062 1.89-.031.266-.14 1.172-.89 1.172-.735 0-.844-.922-.876-1.187-.078-.532-.078-1.47-.078-1.875 0-.579 0-1.22.063-1.72.031-.265.125-1.14.89-1.14.735 0 .86.844.891 1.031.063.516.063 1.297.063 1.829m0 0"/><path id="I" d="M5.156-2c0-.36-.125-.469-.468-.469h-.422v-3.968c0-.36-.11-.485-.485-.485h-.719c-.187 0-.343 0-.453.234L.391-2.609c-.079.14-.079.172-.079.359V-2c0 .313.063.469.47.469h2.25v1.047c0 .328.062.484.484.484h.265c.39 0 .485-.125.485-.484v-1.047h.422c.312 0 .468-.063.468-.469m-2.062-.469h-1.75C2.938-5.39 3.03-5.703 3.078-5.875h.016Zm0 0"/><path id="ap" d="M5.016-3.547C5.016-4.609 5-7.14 2.734-7.14c-.609 0-1.265.11-1.78.75-.423.547-.5 1.047-.5 1.813 0 .625.03 1.203.452 1.766.407.515.86.671 1.5.671.735 0 1.078-.593 1.219-.906-.016.094 0 .281-.031.719-.063.61-.235 1.61-1.328 1.61-.313 0-.594-.079-.875-.329-.047-.062-.079-.078-.125-.078-.079 0-.094.047-.157.125-.187.328-.328.547-.328.61 0 .078.532.609 1.5.609 2.735 0 2.735-2.875 2.735-3.766m-1.407-.89c0 .14 0 1.578-.953 1.578-.797 0-.797-.72-.797-1.703 0-.97 0-1.688.907-1.688.687 0 .843.766.843 1.813m0 0"/><path id="aq" d="M2.172-.266v-.765c0-.266-.016-.282-.266-.282h-.765c-.266 0-.266.016-.266.282v.765c0 .25 0 .266.328.266-.062.156-.11.313-.172.484C.984.625.875.922.875.922c0 .14.11.14.266.14h.109c.203 0 .219-.015.313-.171l.515-.828c.094-.141.094-.157.094-.329m0 0"/><path id="ar" d="M4.203-5.469c0-.828-.219-2.015-1.781-2.015-1.172 0-1.813.672-1.813 2.015 0 .922.297 2.016 1.813 2.016 1.36 0 1.781-.922 1.781-2.016m4.078-1.593a.43.43 0 0 0-.422-.422c-.218 0-.328.156-.375.218L2.141-.172C2.062-.062 2 0 2 .141a.42.42 0 0 0 .422.422c.203 0 .312-.141.375-.22l5.36-7.093c.124-.156.124-.281.124-.312m1.36 5.609c0-.828-.235-2-1.782-2-1.187 0-1.812.656-1.812 2 0 .922.297 2.016 1.812 2.016 1.36 0 1.782-.922 1.782-2.016M3.078-5.47c0 .328 0 1.297-.672 1.297-.61 0-.61-.687-.61-1.297s0-1.297.61-1.297c.672 0 .672.97.672 1.297M8.5-1.453c0 .328 0 1.297-.656 1.297-.61 0-.61-.688-.61-1.297 0-.61 0-1.281.61-1.281.656 0 .656.953.656 1.28m0 0"/><path id="as" d="M5.016-6.422c0-.219 0-.484-.422-.5H1.14c-.485 0-.688 0-.688.469v.14c0 .157 0 .344.219.438.062.031.39.031.61.031l.687-.015h1.687C1.422-3.391 1.422-.875 1.422-.375c0 .328.078.484.484.484h.453c.157 0 .485 0 .485-.39.031-2.469.89-4.281 2.094-5.781.078-.094.078-.172.078-.36m0 0"/><path id="at" d="M5.016-2.031c0-.906-.438-1.469-1.235-1.703C4.75-4.047 4.86-4.75 4.86-5.187c0-1.47-.937-1.954-2.125-1.954C1.656-7.14.61-6.75.61-5.187c0 .515.172 1.156 1.079 1.453C.656-3.437.452-2.656.452-2.031c0 1.562.844 2.25 2.281 2.25 1.5 0 2.282-.75 2.282-2.25M3.594-5.187c0 .578-.016 1.093-.86 1.093-.828 0-.843-.484-.843-1.093 0-.688.046-1.063.843-1.063.782 0 .86.36.86 1.063m.031 3.14c0 .75-.016 1.328-.89 1.328-.876 0-.891-.562-.891-1.328 0-.64 0-1.328.89-1.328.891 0 .891.672.891 1.328m0 0"/><path id="au" d="M4.922-2.203c0-1.313-.547-2.297-2.078-2.297a2 2 0 0 0-.719.14v-1.562h1.953c.469 0 .484-.234.484-.5 0-.25 0-.5-.484-.5H1.312c-.328 0-.484.063-.484.469v3.047c0 .453.235.453.5.453.25 0 .344 0 .484-.235.235-.39.579-.593 1-.593.641 0 .641.765.641 1.531 0 .781 0 1.531-1.047 1.531-.297 0-.984-.094-1.375-.875C1-1.656.97-1.719.891-1.719s-.094.047-.157.14c-.14.22-.359.579-.359.642 0 .078.64 1.156 2.063 1.156 1.609 0 2.484-.813 2.484-2.422m0 0"/><path id="av" d="M5.016-2.36c0-.562 0-2.421-1.938-2.421-.562 0-.953.312-1.219.89.047-.89.047-1.109.204-1.515.296-.75.953-.844 1.296-.844.172 0 .438.031.672.156.078.047.11.078.157.078.125 0 .125-.125.125-.28v-.36c0-.235 0-.25-.36-.375-.25-.11-.531-.11-.625-.11C.453-7.14.453-4.266.453-3.39c0 1.032 0 3.61 2.328 3.61.766 0 1.25-.188 1.656-.64.516-.579.579-1.157.579-1.938m-1.391 0c0 .97 0 1.641-.86 1.641-.78 0-.89-.89-.89-1.75 0-.828.234-1.594.953-1.594.797 0 .797.72.797 1.704m0 0"/><path id="aw" d="M5.016-2.031c0-.89-.485-1.5-1.375-1.735.812-.437 1.078-1.078 1.078-1.64 0-1.61-1.422-1.735-2.078-1.735-1.36 0-2.032.985-2.032 1.063 0 .062.063.14.063.14l.281.407c.078.125.156.125.156.125.063 0 .094-.047.141-.11.5-.734 1.219-.734 1.344-.734.64 0 .719.328.719.813 0 .14 0 .625-.297 1-.25.28-.5.296-.797.328-.11 0-.297.015-.328.03-.063.032-.063.095-.063.25v.173c0 .265 0 .281.266.281h.437c.906 0 1.016.563 1.016 1.328 0 .672-.063 1.328-.969 1.328a2.48 2.48 0 0 1-1.734-.703C.75-1.5.75-1.516.704-1.516c-.095 0-.11.094-.126.11 0 0-.125.64-.125.687 0 .125.86.938 2.172.938 1.719 0 2.39-.922 2.39-2.25m0 0"/><path id="ax" d="M4.719-.36c0-.359-.375-.359-.485-.359h-.703v-5.937c0-.188 0-.485-.437-.485-.188 0-.235.016-.36.141-.171.156-.546.531-1.53.547-.188 0-.454.078-.454.36 0 .359.36.359.484.359.297 0 .657-.047.938-.125v5.14H1.39c-.125 0-.47 0-.47.36 0 .359.345.359.47.359h2.843c.11 0 .485 0 .485-.36m0 0"/><path id="J" d="M5.25-.39v-2.094a.107.107 0 0 0-.11-.11H3.5c-.062 0-.094.047-.094.11v.547c0 .062.031.109.094.109h.656v1.031q-.375.094-.75.094c-.5 0-.984-.14-1.312-.516-.36-.422-.438-.984-.438-1.547s.078-1.125.438-1.546c.328-.375.812-.516 1.312-.516.266 0 .531.031.781.14.266.11.47.282.672.47.016.015.032.03.063.03.047 0 .094-.03.094-.078l.156-.843c0-.063-.031-.11-.063-.125a3.5 3.5 0 0 0-.828-.297 3.3 3.3 0 0 0-.875-.094c-.797 0-1.625.172-2.187.719-.563.547-.735 1.36-.735 2.14 0 .782.172 1.594.735 2.141s1.39.719 2.187.719c.61 0 1.219-.14 1.781-.406.032-.016.063-.047.063-.079m0 0"/><path id="K" d="M3.813-2.078c0-1.016-.47-1.703-1.657-1.703C.875-3.781.25-3.062.25-1.86c0 1.312.75 1.953 2 1.953.313 0 .766-.047 1.281-.313.188-.078.235-.11.235-.203 0-.062-.016-.281-.032-.344-.03-.25-.03-.265-.109-.265-.031 0-.047 0-.14.078a1.82 1.82 0 0 1-1.204.469c-.89 0-.984-.703-1.015-1.22h2.172c.187 0 .374-.015.374-.374m-.876-.047H1.282c.016-.484.172-1.094.875-1.094.625 0 .75.469.781 1.094m0 0"/><path id="L" d="M3.156-1.125c0-.437-.234-.719-.39-.844-.313-.297-.594-.343-.922-.406-.438-.078-.766-.14-.766-.453 0-.328.266-.39.578-.39.532 0 .828.202 1.032.374.078.078.093.078.124.078.079 0 .094-.078.11-.109.015-.062.094-.5.094-.547 0-.125-.422-.234-.516-.265-.312-.094-.578-.094-.781-.094-.36 0-1.422 0-1.422 1.14 0 .391.172.625.39.813.282.266.594.312 1.047.406.22.031.625.11.625.453 0 .375-.296.438-.609.438-.36 0-.797-.11-1.172-.547-.047-.047-.062-.063-.11-.063-.093 0-.109.063-.109.11C.344-.921.25-.47.25-.375c0 .14.594.328.594.328.437.14.765.14.906.14.406 0 1.406-.03 1.406-1.218m0 0"/><path id="M" d="M3.781-.375v-2.14c0-1.266-1.219-1.266-1.61-1.266-.374 0-.78.031-1.312.25-.171.078-.203.094-.203.187 0 .047.047.516.047.578.016.047.047.094.11.094.046 0 .062-.031.093-.047.344-.36.735-.547 1.235-.547.422 0 .547.266.547.735v.281c-.266 0-2.36.016-2.36 1.188C.328-.5.766.093 1.468.093c.282 0 .876-.078 1.25-.64v.171c0 .25.048.375.376.375h.297c.312 0 .39-.11.39-.375m-1.094-.86c0 .75-.75.75-.78.75-.329 0-.548-.28-.548-.593 0-.781 1.11-.828 1.329-.844Zm0 0"/><path id="N" d="M6.422-.375v-2.219c0-.812-.344-1.14-1.156-1.14-.578 0-1.016.265-1.297.78-.125-.765-.813-.78-1.14-.78-.157 0-.485 0-.845.265-.25.172-.406.438-.468.547v-.39c0-.25-.063-.391-.391-.391H.859c-.28 0-.375.094-.375.39v2.938C.484-.094.563 0 .86 0h.313c.312 0 .39-.11.39-.375v-1.766c0-.718.485-1.015.876-1.015.39 0 .468.156.468.578v2.203c0 .281.094.375.39.375h.313C3.906 0 4-.11 4-.375v-1.766c0-.718.484-1.015.875-1.015.375 0 .469.156.469.578v2.203c0 .281.078.375.375.375h.328c.297 0 .375-.11.375-.375m0 0"/><path id="O" d="M2.969-.375c0-.016-.016-.078-.063-.25-.031-.156-.047-.203-.125-.203-.047 0-.047 0-.094.062-.093.063-.312.235-.64.235-.188 0-.313-.14-.313-.656v-1.891h.72c.093 0 .374 0 .374-.281 0-.297-.281-.297-.375-.297h-.719v-.656c0-.25-.046-.375-.375-.375h-.25c-.28 0-.39.078-.39.375v.656H.547c-.094 0-.39 0-.39.297 0 .28.296.28.39.28h.156v2.017c0 .812.281 1.156.828 1.156.078 0 .422 0 .844-.14.14-.032.594-.173.594-.329m0 0"/><path id="P" d="M5.594-.375v-4.766c0-.265-.063-.39-.375-.39H5c-.312 0-.39.11-.39.39v4.172l-2.188-4.25c-.172-.312-.406-.312-.578-.312h-.735c-.28 0-.39.093-.39.39v4.766c0 .281.094.375.39.375h.22c.296 0 .374-.11.374-.375v-4.187h.016l2.187 4.25C4.078 0 4.312 0 4.47 0h.75c.297 0 .375-.11.375-.375m0 0"/><path id="Q" d="M4.125-1.797c0-1.297-.64-1.984-1.937-1.984C.859-3.781.25-3.078.25-1.797.25-.5.938.093 2.188.093s1.937-.577 1.937-1.89M3.047-1.89c0 .625 0 1.36-.86 1.36-.859 0-.859-.719-.859-1.36 0-.609 0-1.328.86-1.328.859 0 .859.703.859 1.328m0 0"/><path id="R" d="M2.438-1.828c0-.281-.297-.281-.391-.281H.484c-.109 0-.39 0-.39.28 0 .298.281.298.39.298h1.563c.094 0 .39 0 .39-.297m0 0"/><path id="S" d="M4.375-1.594c0-.89-.656-1.562-1.453-1.75l-.766-.172c-.187-.03-.672-.218-.672-.671 0-.688.672-.704.954-.704.437 0 .843.11 1.234.485.125.125.125.14.156.14.047 0 .094-.03.11-.156l.124-.687c.016-.063.016-.079.016-.11 0-.062 0-.062-.203-.172-.562-.28-1.031-.312-1.437-.312-.72 0-1.954.172-1.954 1.656 0 .563.297.938.454 1.094.406.406.78.484 1.39.64.453.094.625.141.797.297.094.079.25.25.25.547 0 .75-.687.782-.937.782A2.48 2.48 0 0 1 .78-1.328c-.094-.094-.11-.094-.14-.094-.047 0-.094.031-.11.14l-.125.704C.391-.516.391-.5.391-.484c0 .172.828.453.875.468a3.8 3.8 0 0 0 1.172.188c1.187 0 1.937-.531 1.937-1.766m0 0"/><path id="T" d="M2.844-3.14v-.376c0-.171 0-.218-.156-.218-.22 0-.797.078-1.172.937H1.5v-.515c0-.25-.047-.391-.375-.391h-.25c-.297 0-.39.094-.39.39v2.938c0 .281.093.375.39.375h.281c.313 0 .39-.11.39-.375v-1.453c0-.766.626-1.078 1.126-1.11.156 0 .172 0 .172-.203m0 0"/><path id="U" d="M3.516-.297c0-.297-.25-.297-.485-.297l-1.219.016h-.359l1.938-2.469c.078-.094.093-.14.093-.265 0-.344-.234-.344-.375-.344H.75c-.11 0-.39 0-.39.312 0 .297.265.297.484.297l1.14-.015h.297L.344-.61C.266-.5.25-.47.25-.33.25 0 .5 0 .625 0h2.5c.11 0 .39 0 .39-.297m0 0"/><path id="V" d="M3.984-.375v-2.89c0-.25-.062-.391-.375-.391h-.328c-.297 0-.375.11-.375.39v1.891c0 .516-.281.984-.844.984-.453 0-.5-.125-.5-.546v-2.329c0-.25-.062-.39-.39-.39H.859c-.28 0-.375.094-.375.39V-1C.484-.156.938.094 1.766.094c.218 0 .78 0 1.156-.688v.219c0 .25.062.375.39.375h.297c.297 0 .375-.11.375-.375m0 0"/><path id="W" d="M4.25-3.234c0-.032-.031-.22-.047-.297-.031-.188-.031-.203-.172-.203-.25 0-.656.093-.953.28-.375-.25-.797-.28-1.14-.28-.329 0-1.594 0-1.594 1.312 0 .313.094.719.39.985-.218.296-.218.593-.218.64 0 .156.046.422.218.625-.125.047-.53.203-.53.703 0 .25.109.657.624.89.453.22.985.22 1.36.22.468 0 1.984 0 1.984-1.125 0-1.25-1.125-1.25-2.203-1.25h-.375c-.282 0-.407 0-.516-.094-.031-.031-.156-.156-.156-.36 0-.062 0-.078.015-.125.375.22.844.22 1 .22.344 0 1.61 0 1.61-1.329 0-.453-.172-.734-.25-.828.14 0 .422 0 .75.094a.3.3 0 0 0 .11.031c.062 0 .093-.047.093-.11m-1.719.812c0 .438-.031.75-.594.75-.546 0-.578-.297-.578-.75 0-.437.032-.734.579-.734.562 0 .593.297.593.734M3.36.531c0 .532-.906.532-1.171.532-.313 0-1.172 0-1.172-.547 0-.375.25-.375.437-.375h.922c.64 0 .984.109.984.39m0 0"/><path id="X" d="M3.984-.375v-2.219c0-.812-.343-1.14-1.156-1.14-.844 0-1.203.609-1.312.812v-.39c0-.25-.063-.391-.391-.391H.859c-.28 0-.375.094-.375.39v2.938C.484-.094.563 0 .86 0h.313c.312 0 .39-.11.39-.375v-1.766c0-.703.47-1.015.876-1.015.39 0 .468.172.468.578v2.203c0 .25.047.375.375.375h.328c.297 0 .375-.11.375-.375m0 0"/><path id="Y" d="M1.547-.375v-2.89c0-.25-.063-.391-.39-.391H.874c-.297 0-.39.094-.39.39v2.891c0 .281.093.375.39.375h.281c.313 0 .39-.11.39-.375m.062-4.453v-.156c0-.25-.062-.375-.39-.375H.812c-.296 0-.375.093-.375.375v.156c0 .234.032.375.376.375h.406c.328 0 .39-.14.39-.375m0 0"/><path id="Z" d="M5.11-3.812c0-1.204-.782-1.72-2.016-1.72H1.109c-.28 0-.39.095-.39.391v4.766c0 .281.094.375.39.375h.407c.297 0 .375-.11.375-.375v-1.766h1.218c1.25 0 2-.515 2-1.671m-1.11 0c0 .53-.094 1.046-1.156 1.046h-.969v-2.078h.984C3.891-4.844 4-4.359 4-3.812m0 0"/><path id="aa" d="M1.734-.219v-.61c0-.202 0-.218-.218-.218h-.61c-.203 0-.219.016-.219.219v.61C.688-.017.704 0 .97 0l-.14.375C.78.5.702.735.702.735c0 .109.078.109.203.109H1c.156 0 .172 0 .25-.14l.422-.657c.062-.11.062-.125.062-.266m0 0"/><path id="ab" d="M7.063-.375v-4.766c0-.265-.063-.39-.391-.39h-.656c-.203 0-.407.015-.547.343L4.422-2.608c-.172.406-.469 1.14-.531 1.422-.079-.282-.407-1.079-.563-1.5L2.297-5.203c-.125-.328-.39-.328-.531-.328h-.657c-.28 0-.39.093-.39.39v4.766c0 .281.094.375.39.375h.22c.296 0 .374-.11.374-.375V-4.5h.016c.078.36.437 1.234.625 1.719L3.28-.516c.14.344.328.344.594.344.281 0 .469 0 .61-.344l1.015-2.5c.094-.203.516-1.28.578-1.484v4.125c0 .25.063.375.39.375h.204c.312 0 .39-.11.39-.375m0 0"/><path id="ac" d="M1.547-.375v-4.766c0-.265-.063-.39-.39-.39H.874c-.297 0-.39.093-.39.39v4.766c0 .281.093.375.39.375h.281c.313 0 .39-.11.39-.375m0 0"/><path id="ad" d="M3.969-.375v-4.766c0-.265-.047-.39-.375-.39h-.297c-.297 0-.375.11-.375.39v1.797a1.42 1.42 0 0 0-1.016-.39c-1.61 0-1.61 1.53-1.61 1.922 0 .359 0 1.906 1.579 1.906.328 0 .672-.11 1.016-.469C2.89-.078 3 0 3.28 0h.313c.297 0 .375-.11.375-.375M2.89-1c0 .14 0 .219-.235.375a.85.85 0 0 1-.469.14c-.812 0-.812-.734-.812-1.328 0-.609 0-1.343.89-1.343.235 0 .454.078.626.234Zm0 0"/><path id="ae" d="m5.594-.234-2.235-3 2.094-1.97c.094-.077.094-.124.094-.155 0-.172-.156-.172-.266-.172h-.484c-.14 0-.297 0-.469.156L1.766-2.953v-2.188c0-.265-.063-.39-.391-.39h-.266c-.28 0-.39.093-.39.39v4.766c0 .281.094.375.39.375h.266c.313 0 .39-.11.39-.375v-1.344l.876-.843 1.797 2.39c.125.172.234.172.39.172h.484c.157 0 .282 0 .282-.234m0 0"/><path id="af" d="M5.734-3.422c-.03-.234-.171-.234-.421-.234-.375 0-.47.031-.579.437l-.64 2.313-.688-2.39c-.047-.173-.094-.36-.469-.36-.109 0-.296 0-.406.187-.078.125-.422 1.5-.703 2.438l-.64-2.266c-.079-.265-.172-.36-.5-.36H.53c-.156 0-.312 0-.343.235L1.03-.359c.11.359.313.359.516.359h.219c.375 0 .437-.125.53-.437.188-.657.47-1.672.5-2.079l.017-.015c.046.453.39 1.719.5 2.094.078.28.124.437.515.437h.547c.344 0 .422-.094.5-.36Zm0 0"/><path id="ag" d="M2.922 1.89c0-.03 0-.046-.094-.14-.515-.625-1.062-1.594-1.062-3.734 0-2.344.672-3.282 1.109-3.797.031-.047.047-.063.047-.094 0-.094-.094-.094-.219-.094h-.14c-.141 0-.157 0-.313.125-.953.797-1.562 2.157-1.562 3.86 0 .953.203 2.625 1.53 3.828.157.14.188.14.345.14h.14c.125 0 .219 0 .219-.093m0 0"/><path id="ah" d="M1.734-.219v-.61c0-.202 0-.218-.218-.218h-.61c-.203 0-.219.016-.219.219v.61c0 .202.016.218.22.218h.609c.218 0 .218-.016.218-.219m0 0"/><path id="ai" d="M3.953-.172s0-.078-.078-.172L2.5-2.172l1.219-1.14c.094-.079.125-.11.125-.172 0-.172-.156-.172-.281-.172h-.454c-.14 0-.296 0-.484.172l-1.14 1.062V-5.14c0-.265-.063-.39-.391-.39H.937c-.296 0-.39.093-.39.39v4.766c0 .281.094.375.39.375h.141c.297 0 .375-.11.375-.375v-.844l.375-.328L2.875-.203C3-.031 3.063 0 3.297 0h.375c.11 0 .281 0 .281-.172m0 0"/><path id="aj" d="M8.078-5.297c0-.234-.219-.234-.328-.234h-.156c-.172 0-.39 0-.485.36l-.843 3.124c-.11.406-.188.672-.25 1.031H6c-.047-.218-.047-.234-.234-.937l-.86-3.219c-.078-.312-.25-.36-.468-.36h-.532c-.172 0-.39 0-.484.36l-.703 2.61-.203.78c-.079.376-.157.641-.172.766-.063-.421-.25-1.125-.39-1.625l-.688-2.546c-.094-.344-.328-.344-.485-.344H.516c-.11 0-.328 0-.328.234 0 0 0 .031.03.156L1.532-.328C1.625 0 1.844 0 2.016 0h.515c.172 0 .39 0 .485-.36l.843-3.124c.11-.422.172-.657.25-1.032h.016c.094.454.14.657.281 1.172L5.22-.328C5.312 0 5.53 0 5.687 0h.579c.172 0 .39 0 .468-.328l1.313-4.813c.031-.125.031-.156.031-.156m0 0"/><path id="ak" d="M3.984-.375v-2.219c0-.812-.343-1.14-1.156-1.14-.797 0-1.172.547-1.281.765H1.53V-5.14c0-.265-.047-.39-.375-.39H.86c-.28 0-.375.093-.375.39v4.766C.484-.094.563 0 .86 0h.313c.312 0 .39-.11.39-.375v-1.766c0-.703.47-1.015.876-1.015.39 0 .468.172.468.578v2.203c0 .25.047.375.375.375h.328c.297 0 .375-.11.375-.375m0 0"/><path id="al" d="M2.719-1.984c0-.97-.203-2.641-1.531-3.844-.172-.14-.188-.14-.344-.14h-.14c-.126 0-.22 0-.22.093 0 .031 0 .047.094.14.5.626 1.063 1.594 1.063 3.75C1.64.345.969 1.266.53 1.798c-.047.062-.047.094-.047.094 0 .093.094.093.22.093h.14c.14 0 .156 0 .297-.125.968-.796 1.578-2.156 1.578-3.843m0 0"/><path id="aH" d="M3.938-1.766c0-1.046-.438-1.828-1.657-1.828-.203 0-.39.031-.578.11v-1.25h1.563c.375 0 .375-.188.375-.391 0-.219 0-.406-.375-.406h-2.22c-.265 0-.39.047-.39.375v2.437c0 .36.188.36.407.36.203 0 .28 0 .39-.188q.281-.469.797-.469c.516 0 .516.594.516 1.22 0 .624 0 1.218-.844 1.218-.234 0-.781-.063-1.094-.703-.031-.047-.062-.094-.11-.094-.062 0-.077.047-.124.11-.11.187-.297.452-.297.515s.516.922 1.656.922c1.281 0 1.985-.64 1.985-1.938m0 0"/><path id="aI" d="M4.016-1.625c0-.703-.391-1.203-1.11-1.375.64-.36.86-.875.86-1.328 0-1.281-1.141-1.375-1.657-1.375-1.093 0-1.625.781-1.625.844 0 .046.063.125.063.125l.219.312c.062.094.125.094.125.094.046 0 .062-.031.109-.094C1.406-5 1.969-5 2.078-5c.5 0 .578.266.578.656 0 .11 0 .5-.25.797-.187.219-.39.235-.625.25-.093.016-.25.016-.265.031-.063.032-.063.079-.063.204v.14c0 .219.016.219.219.219h.36c.718 0 .812.453.812 1.062 0 .547-.063 1.063-.781 1.063-.266 0-.844-.047-1.391-.547-.063-.078-.078-.094-.11-.094-.078 0-.093.078-.093.094 0 0-.11.516-.11.547 0 .11.688.75 1.735.75 1.375 0 1.922-.734 1.922-1.797m0 0"/><path id="aJ" d="M4.016-5.125c0-.187 0-.39-.344-.406H.906c-.375 0-.547 0-.547.375v.11c0 .124 0 .28.172.343.063.031.328.031.485.031h1.906C1.14-2.703 1.14-.703 1.14-.297c0 .25.046.39.375.39h.375c.125 0 .375 0 .375-.312.03-1.984.718-3.422 1.672-4.625.078-.078.078-.14.078-.281m0 0"/><path id="aK" d="M3.89-5.64a.334.334 0 0 0-.343-.329c-.219 0-.297.188-.328.266L.53 1.469c-.047.125-.047.14-.047.187 0 .172.141.328.344.328.219 0 .297-.187.328-.265l2.688-7.172c.047-.125.047-.14.047-.188m0 0"/><path id="aL" d="M3.766-3.422c0-.234-.203-.234-.313-.234h-.172c-.328 0-.422.125-.5.344L2-.906l-.781-2.406c-.063-.157-.125-.344-.5-.344H.53c-.125 0-.328 0-.328.234 0 .016 0 .031.047.14l.938 2.954C1.313 0 1.547 0 1.703 0h.578c.14 0 .39 0 .5-.328l.953-2.953c.032-.11.032-.125.032-.14m0 0"/><path id="aR" d="M3.938-.375v-.11c0-.124 0-.265-.172-.343-.047-.031-.313-.031-.47-.031H1.47l1.047-.985c.125-.11.422-.36.547-.468.437-.422.874-.844.874-1.563 0-.969-.703-1.828-1.874-1.828-.282 0-.735.031-1.11.344-.078.062-.437.343-.594.875l.407.515c.046.063.078.094.125.094.078 0 .093-.047.109-.156.156-.547.438-.875.938-.875.625 0 .89.562.89 1.047 0 .515-.312 1.047-.781 1.562L.516-.672c-.079.078-.079.094-.079.219v.078c0 .281.094.375.391.375h2.719c.312 0 .39-.11.39-.375m0 0"/><path id="aS" d="M4.031-2.734c0-1.094 0-2.97-1.843-2.97-1.844 0-1.844 1.86-1.844 2.97 0 1.093 0 2.906 1.844 2.906C4.03.172 4.03-1.625 4.03-2.734m-1.078-.11c0 .453 0 1.078-.062 1.516-.016.203-.11.937-.703.937-.594 0-.688-.734-.704-.953-.062-.422-.062-1.172-.062-1.5 0-.469 0-.984.047-1.375.031-.218.11-.906.718-.906.579 0 .688.656.704.828.062.406.062 1.031.062 1.453m0 0"/><path id="aU" d="M3.766-.281c0-.297-.297-.297-.375-.297h-.563v-4.75c0-.14 0-.375-.344-.375-.171 0-.203.016-.296.11-.141.124-.438.421-1.235.437-.14 0-.344.062-.344.281 0 .297.282.297.375.297a3 3 0 0 0 .75-.11v4.11H1.11c-.093 0-.375 0-.375.297C.734 0 1.016 0 1.11 0h2.282c.078 0 .375 0 .375-.281m0 0"/><path id="aV" d="M4.016-1.625c0-.719-.344-1.172-.985-1.36.766-.25.86-.812.86-1.171 0-1.172-.75-1.547-1.703-1.547-.86 0-1.704.312-1.704 1.547 0 .422.141.937.86 1.172-.813.234-.985.859-.985 1.359 0 1.25.672 1.797 1.829 1.797 1.203 0 1.828-.594 1.828-1.797M2.875-4.141c0 .454-.016.86-.687.86-.672 0-.688-.39-.688-.86 0-.546.047-.859.688-.859.624 0 .687.297.687.86m.031 2.5c0 .61-.015 1.063-.719 1.063-.703 0-.718-.438-.718-1.063 0-.515 0-1.062.718-1.062.72 0 .72.547.72 1.062m0 0"/><path id="aW" d="M4.125-1.594c0-.297-.094-.375-.375-.375h-.344V-5.14c0-.296-.078-.39-.375-.39h-.578c-.156 0-.281 0-.375.187L.313-2.094c-.063.125-.063.156-.063.297v.188c0 .265.047.39.375.39h1.797v.844c0 .25.062.375.39.375h.22c.296 0 .374-.11.374-.375v-.844h.344c.25 0 .375-.062.375-.375m-1.656-.375h-1.39c1.265-2.343 1.343-2.593 1.39-2.718Zm0 0"/><path id="bd" d="M4.016-1.875c0-.453 0-1.937-1.563-1.937-.437 0-.75.25-.969.703.032-.72.047-.891.172-1.203.219-.61.75-.688 1.032-.688.14 0 .343.031.546.125.047.047.079.063.11.063.094 0 .094-.094.094-.22v-.296c0-.188 0-.188-.282-.297-.203-.078-.422-.078-.5-.078-2.297 0-2.297 2.297-2.297 3 0 .812 0 2.875 1.86 2.875.625 0 1-.14 1.328-.516.406-.468.469-.922.469-1.531M2.89-1.891c0 .782 0 1.313-.672 1.313-.64 0-.719-.719-.719-1.39 0-.673.188-1.282.75-1.282.64 0 .64.578.64 1.36m0 0"/><path id="bh" d="M4.016-2.844c0-.844-.016-2.86-1.828-2.86-.485 0-1.016.079-1.438.595-.328.437-.39.843-.39 1.453 0 .5.015.953.359 1.406.328.422.687.531 1.203.531.594 0 .86-.468.969-.718 0 .078 0 .234-.016.578-.047.484-.187 1.28-1.062 1.28a.97.97 0 0 1-.704-.265c-.03-.047-.062-.062-.093-.062-.063 0-.079.047-.125.11-.157.25-.266.437-.266.484 0 .062.422.484 1.203.484 2.188 0 2.188-2.297 2.188-3.016M2.89-3.547c0 .11 0 1.266-.766 1.266-.64 0-.64-.578-.64-1.375 0-.766 0-1.344.718-1.344.547 0 .688.625.688 1.453m0 0"/><path id="ay" d="M5.86-.266 4.327-2.875C4.891-3 5.75-3.344 5.75-4.453c0-1.766-1.953-1.766-2.344-1.766H1.25c-.328 0-.437.094-.437.422v5.36C.813-.11.922 0 1.25 0h.422c.344 0 .437-.11.437-.437v-2.36h1L4.58-.219C4.702 0 4.796 0 5 0h.531c.172 0 .328 0 .328-.266M4.5-4.453c0 .531-.125 1.016-1.219 1.016H2.11v-2.016h1.172c1.031 0 1.219.406 1.219 1m0 0"/><path id="az" d="M4.297-2.328c0-1.156-.531-1.938-1.875-1.938-1.438 0-2.14.813-2.14 2.172 0 1.469.843 2.188 2.25 2.188.343 0 .859-.047 1.452-.328.188-.11.266-.141.266-.235 0-.062-.031-.328-.047-.406-.031-.266-.047-.281-.125-.281-.031 0-.047 0-.156.093a2.03 2.03 0 0 1-1.344.516c-1.015 0-1.125-.797-1.156-1.375h2.437c.22 0 .438 0 .438-.406m-1-.063h-1.86c.032-.546.204-1.218.985-1.218.719 0 .86.515.875 1.218m0 0"/><path id="aA" d="M4.797-3.625c0-.047-.047-.266-.063-.344-.046-.219-.046-.234-.203-.234-.281 0-.734.11-1.062.312-.422-.28-.89-.312-1.281-.312-.376 0-1.797 0-1.797 1.484 0 .344.093.797.437 1.094-.25.328-.25.688-.25.734 0 .172.063.454.25.704-.14.046-.61.218-.61.78 0 .282.141.75.704 1.016.516.235 1.11.235 1.531.235.531 0 2.25 0 2.25-1.266 0-1.406-1.266-1.406-2.484-1.406h-.422c-.328 0-.453 0-.578-.11-.032-.03-.188-.171-.188-.406 0-.062.016-.078.016-.125.422.235.953.235 1.14.235.376 0 1.797 0 1.797-1.485 0-.515-.187-.828-.265-.937.14 0 .453 0 .828.11a.4.4 0 0 0 .125.03c.078 0 .125-.046.125-.109m-1.953.906c0 .485-.031.828-.656.828-.626 0-.657-.328-.657-.828 0-.484.032-.844.657-.844.624 0 .656.344.656.844M3.78.594c0 .61-1.031.61-1.312.61-.36 0-1.328 0-1.328-.626 0-.422.28-.422.484-.422h1.047c.734 0 1.11.125 1.11.438m0 0"/><path id="aB" d="M4.484-.437v-2.485c0-.922-.39-1.281-1.312-1.281-.938 0-1.344.672-1.453.922h-.016v-.453c0-.282-.062-.422-.422-.422H.97c-.328 0-.438.093-.438.422v3.297C.531-.11.641 0 .97 0h.36c.343 0 .437-.11.437-.437v-1.97c0-.78.515-1.155.984-1.155.422 0 .516.203.516.671v2.454c0 .296.062.437.422.437h.359c.344 0 .437-.11.437-.437m0 0"/><path id="aC" d="M3.188-3.547v-.422c0-.172 0-.234-.157-.234-.25 0-.906.094-1.328 1.062h-.016v-.593c0-.282-.062-.422-.421-.422H.984c-.328 0-.437.093-.437.422v3.297C.547-.11.64 0 .984 0h.329c.343 0 .421-.11.421-.437v-1.625c0-.86.72-1.204 1.282-1.235.156-.015.172-.015.172-.25m0 0"/><path id="aD" d="M4.25-.437v-2.391c0-1.422-1.36-1.438-1.812-1.438-.422 0-.876.047-1.47.297-.187.078-.234.11-.234.203 0 .063.063.579.063.657a.14.14 0 0 0 .125.093c.031 0 .062-.03.094-.046.39-.407.828-.61 1.39-.61.485 0 .625.297.625.828v.313c-.312 0-2.656.015-2.656 1.344 0 .625.5 1.28 1.281 1.28.313 0 .985-.077 1.407-.702v.172c0 .296.062.437.421.437h.344c.328 0 .422-.11.422-.437m-1.219-.938c0 .828-.86.828-.875.828-.375 0-.625-.328-.625-.656 0-.89 1.25-.953 1.5-.953Zm0 0"/><path id="aE" d="M3.344-.422c0-.031-.016-.094-.063-.281-.047-.172-.078-.235-.156-.235-.047 0-.047.016-.11.063-.093.078-.328.281-.703.281-.218 0-.359-.156-.359-.75v-2.125h.797c.11 0 .438 0 .438-.312 0-.328-.329-.328-.438-.328h-.797v-.75c0-.282-.062-.422-.422-.422H1.25c-.328 0-.437.093-.437.422v.75H.609c-.093 0-.437 0-.437.328 0 .312.328.312.437.312h.188v2.282c0 .906.312 1.28.937 1.28.079 0 .47 0 .938-.14.156-.047.672-.203.672-.375m0 0"/><path id="aF" d="M1.734-.437v-3.235c0-.297-.062-.437-.421-.437H.984c-.328 0-.437.093-.437.437v3.235C.547-.11.64 0 .984 0h.329c.343 0 .421-.11.421-.437m.063-5v-.172c0-.282-.063-.422-.422-.422H.922c-.344 0-.438.11-.438.422v.172c0 .265.047.437.438.437h.453c.375 0 .422-.172.422-.437m0 0"/><path id="aG" d="M4.25-3.86c0-.25-.234-.25-.36-.25h-.203c-.374 0-.468.141-.546.391L2.25-1.016l-.89-2.703c-.063-.187-.126-.39-.548-.39H.595c-.14 0-.36 0-.36.25 0 .03 0 .046.047.172L1.344-.376C1.469 0 1.75 0 1.906 0h.657C2.719 0 3 0 3.125-.375l1.078-3.312c.047-.126.047-.141.047-.172m0 0"/><path id="aM" d="M9.094-5.969c0-.25-.235-.25-.36-.25h-.203c-.172 0-.422 0-.531.39l-.953 3.532c-.125.453-.203.75-.281 1.156H6.75c-.047-.25-.047-.265-.25-1.062l-.969-3.625c-.11-.344-.281-.39-.547-.39h-.593c-.188 0-.438 0-.547.39l-.781 2.937L2.828-2c-.094.422-.172.703-.187.86-.079-.47-.297-1.266-.438-1.829l-.781-2.875c-.11-.375-.36-.375-.531-.375H.578c-.125 0-.36 0-.36.25 0 0 0 .047.032.172L1.719-.375c.11.375.36.375.547.375h.593c.188 0 .438 0 .547-.406l.938-3.516c.125-.484.187-.734.281-1.156h.016c.109.516.156.734.312 1.312l.922 3.391C5.969 0 6.219 0 6.406 0h.64c.188 0 .438 0 .548-.375l1.468-5.422c.032-.125.032-.172.032-.172m0 0"/><path id="aN" d="M4.469-.437v-5.36c0-.281-.063-.422-.422-.422h-.328c-.344 0-.438.11-.438.422v2.031a1.62 1.62 0 0 0-1.125-.437C.328-4.203.328-2.484.328-2.047c0 .422 0 2.14 1.781 2.14.375 0 .766-.109 1.141-.515 0 .328.125.422.438.422h.359c.344 0 .422-.11.422-.437M3.25-1.125c0 .156 0 .234-.25.422-.234.14-.437.156-.547.156-.906 0-.906-.828-.906-1.5s0-1.515 1.016-1.515c.25 0 .5.093.687.28Zm0 0"/><path id="aO" d="M4.64-1.797c0-.328-.109-.422-.421-.422h-.375v-3.578c0-.312-.11-.422-.438-.422H2.75c-.172 0-.297 0-.406.203l-2 3.672C.28-2.219.28-2.188.28-2.03v.234c0 .281.063.422.422.422H2.72v.938c0 .296.078.437.437.437h.25c.344 0 .438-.11.438-.437v-.938h.375c.281 0 .422-.062.422-.422m-1.859-.422H1.203C2.641-4.859 2.72-5.125 2.766-5.28h.015Zm0 0"/><path id="aP" d="M1.953-.234v-.703c0-.235 0-.235-.234-.235h-.703c-.22 0-.235 0-.235.234v.704c0 .218.016.234.297.234-.047.14-.094.281-.14.438-.063.125-.141.39-.141.39 0 .125.078.125.219.125h.109c.188 0 .188-.015.281-.156l.469-.75c.078-.125.078-.14.078-.281m0 0"/><path id="aQ" d="M3.781-4.922c0-.75-.203-1.812-1.61-1.812-1.046 0-1.624.593-1.624 1.812 0 .828.265 1.813 1.625 1.813 1.234 0 1.61-.828 1.61-1.813m3.657-1.422a.383.383 0 0 0-.375-.39c-.188 0-.282.14-.329.203L1.922-.156c-.063.094-.125.156-.125.281A.38.38 0 0 0 2.172.5c.203 0 .297-.125.344-.187l4.828-6.391c.093-.14.093-.25.093-.266m1.234 5.047c0-.75-.203-1.812-1.61-1.812-1.046 0-1.625.593-1.625 1.797C5.438-.47 5.704.5 7.063.5c1.235 0 1.61-.828 1.61-1.797M2.766-4.922c0 .297 0 1.156-.594 1.156-.547 0-.547-.609-.547-1.156s0-1.156.547-1.156c.594 0 .594.875.594 1.156m4.89 3.61c0 .296 0 1.171-.593 1.171-.547 0-.547-.609-.547-1.171 0-.547 0-1.157.547-1.157.593 0 .593.875.593 1.156m0 0"/><path id="aT" d="m6.281-.266-2.5-3.359 2.36-2.219c.109-.11.109-.156.109-.187 0-.188-.187-.188-.312-.188H5.39c-.157 0-.328 0-.516.172l-2.89 2.734v-2.484c0-.281-.063-.422-.438-.422H1.25c-.328 0-.437.094-.437.422v5.36C.813-.11.922 0 1.25 0h.297c.344 0 .437-.11.437-.437v-1.5l1-.938 2 2.688C5.125 0 5.266 0 5.438 0h.53c.188 0 .313 0 .313-.266m0 0"/><path id="aX" d="M6.016-1.734c0-1.266-1.25-1.47-1.578-1.516.828-.187 1.296-.656 1.296-1.36 0-1.609-1.906-1.609-2.28-1.609H1.25c-.328 0-.437.094-.437.422v5.36C.813-.11.922 0 1.25 0h2.453c.672 0 2.313-.11 2.313-1.734m-1.5-2.844c0 1.016-1.172 1.016-1.391 1.016H2.078v-1.891h1.047c.36 0 1.39.031 1.39.875m.25 2.812c0 .938-.953 1-1.391 1H2.078v-2.156h1.125c.328 0 1.563 0 1.563 1.156m0 0"/><path id="aY" d="M4.484-.437v-3.235c0-.297-.062-.437-.437-.437h-.36c-.328 0-.421.125-.421.437v2.125c0 .594-.313 1.094-.953 1.094-.5 0-.547-.125-.547-.594v-2.625c0-.297-.079-.437-.438-.437h-.36c-.327 0-.437.093-.437.437v2.547c0 .953.532 1.219 1.453 1.219.25 0 .891 0 1.313-.75v.219c0 .296.062.437.422.437h.328c.344 0 .437-.11.437-.437m0 0"/><path id="aZ" d="M4.453-.203s0-.078-.078-.188L2.813-2.437 4.187-3.72c.11-.11.141-.125.141-.203 0-.187-.187-.187-.312-.187H3.5c-.156 0-.328 0-.547.187L1.672-2.719v-3.078c0-.281-.063-.422-.438-.422h-.187c-.328 0-.422.094-.422.422v5.36c0 .328.094.437.422.437h.156c.344 0 .438-.11.438-.437v-.922c.14-.125.28-.266.422-.391L3.234-.219c.141.188.204.219.47.219h.437c.125 0 .312 0 .312-.203m0 0"/><path id="ba" d="M4.64-2.016c0-1.468-.718-2.25-2.171-2.25-1.5 0-2.188.797-2.188 2.25 0 1.454.766 2.11 2.172 2.11s2.188-.64 2.188-2.11m-1.218-.109c0 .703 0 1.531-.953 1.531-.969 0-.969-.812-.969-1.531 0-.687 0-1.484.953-1.484.969 0 .969.78.969 1.484m0 0"/><path id="bb" d="M4.484-.437v-2.485c0-.922-.39-1.281-1.312-1.281-.89 0-1.313.61-1.438.86v-2.454c0-.281-.062-.422-.437-.422H.969c-.328 0-.438.094-.438.422v5.36C.531-.11.641 0 .97 0h.36c.343 0 .437-.11.437-.437v-1.97c0-.78.515-1.155.984-1.155.422 0 .516.203.516.671v2.454c0 .296.062.437.422.437h.359c.344 0 .437-.11.437-.437m0 0"/><path id="bc" d="M1.734-.437v-5.36c0-.281-.062-.422-.421-.422H.984c-.328 0-.437.094-.437.422v5.36C.547-.11.64 0 .984 0h.329c.343 0 .421-.11.421-.437m0 0"/><path id="be" d="M4.922-1.797c0-1-.75-1.75-1.64-1.969l-.86-.187c-.203-.047-.75-.25-.75-.766 0-.765.766-.781 1.062-.781.5 0 .954.125 1.391.547.14.14.156.14.188.14.062 0 .093-.015.125-.156l.14-.781c.016-.078.016-.094.016-.11 0-.077-.016-.093-.235-.202a3.5 3.5 0 0 0-1.625-.36c-.796 0-2.187.188-2.187 1.86 0 .64.328 1.062.5 1.234.453.469.875.562 1.578.719.5.109.703.156.906.343.078.094.266.282.266.61 0 .843-.766.875-1.063.875a2.8 2.8 0 0 1-1.859-.703c-.11-.11-.125-.11-.156-.11-.063 0-.094.032-.125.157l-.14.78C.436-.577.436-.561.436-.53c0 .187.938.5.985.515a4.5 4.5 0 0 0 1.312.22c1.344 0 2.188-.61 2.188-2m0 0"/><path id="bf" d="M5.344-.437v-.125c0-.422-.219-.422-.516-.422l-1.39.015-1.297.016v-1.844H4.5c.266 0 .422-.062.422-.406s-.11-.422-.422-.422H2.14v-1.672h.438l2.11.031c.312 0 .515 0 .515-.421v-.079c0-.28-.062-.437-.437-.437H1.25c-.328 0-.437.11-.437.437v5.329C.813-.11.922 0 1.25 0h3.656c.344 0 .438-.11.438-.437m0 0"/><path id="bg" d="M3.547-1.266c0-.5-.266-.812-.422-.953-.36-.328-.672-.375-1.047-.453-.5-.094-.86-.156-.86-.515 0-.36.298-.438.641-.438.61 0 .938.219 1.157.422.093.094.109.094.156.094.078 0 .11-.079.11-.125.015-.063.109-.563.109-.61 0-.14-.47-.265-.578-.312-.36-.094-.641-.11-.876-.11-.406 0-1.609 0-1.609 1.282 0 .453.203.718.438.937.312.281.672.344 1.187.438.25.046.703.125.703.53 0 .423-.344.485-.687.485-.407 0-.907-.125-1.328-.625-.047-.047-.063-.078-.125-.078-.079 0-.11.094-.11.14-.015.126-.125.641-.125.72 0 .171.672.39.672.39.485.14.86.14 1.016.14.453 0 1.578-.03 1.578-1.359m0 0"/><path id="bi" d="M7.953-.437v-5.36c0-.281-.062-.422-.437-.422h-.75c-.235 0-.453.016-.61.375L4.984-2.937c-.187.468-.53 1.28-.593 1.593h-.016c-.078-.312-.453-1.203-.64-1.672L2.593-5.859c-.156-.36-.438-.36-.61-.36H1.25c-.328 0-.437.094-.437.422v5.36C.813-.11.922 0 1.25 0h.234c.344 0 .438-.11.438-.437v-4.625c.11.406.516 1.39.719 1.921L3.688-.578c.156.375.374.375.687.375.297 0 .516 0 .672-.375l1.156-2.828c.078-.203.563-1.422.625-1.656h.016v4.625c0 .296.062.437.437.437h.235c.343 0 .437-.11.437-.437m0 0"/><path id="bj" d="M4.64-2.016c0-1.468-.718-2.25-2.171-2.25-1.5 0-2.188.797-2.188 2.25 0 1.454.766 2.11 2.172 2.11s2.188-.64 2.188-2.11m-1.218-.109c0 .703 0 1.531-.953 1.531-.969 0-.969-.812-.969-1.531 0-.687 0-1.484.953-1.484.969 0 .969.78.969 1.484M1.969-5.437v-.157c0-.265-.047-.39-.375-.39h-.422c-.297 0-.375.109-.375.39v.157c0 .234.031.375.375.375h.422c.328 0 .375-.141.375-.375m2.172 0v-.157c0-.265-.047-.39-.375-.39h-.422c-.297 0-.39.109-.39.39v.157c0 .234.046.375.39.375h.422c.328 0 .375-.141.375-.375m0 0"/><path id="bk" d="M4.688-2.078c0-.438 0-2.125-1.625-2.125-.532 0-1 .219-1.329.516 0-.329-.125-.422-.421-.422H.984c-.328 0-.437.093-.437.437v4.985c0 .312.094.421.437.421h.36c.328 0 .422-.109.422-.421V-.344c.406.438.89.438 1.03.438 1.892 0 1.892-1.719 1.892-2.172m-1.22.031c0 .36 0 1.5-1.015 1.5a.8.8 0 0 1-.469-.156c-.218-.156-.218-.188-.218-.36v-2.14c.093-.094.39-.297.78-.297.923 0 .923 1.047.923 1.453m0 0"/><clipPath id="am"><path d="M155 80h181v69H155Zm0 0"/></clipPath><clipPath id="an"><path d="M336.477 114.953c0-18.785-40.614-34.015-90.711-34.015s-90.711 15.23-90.711 34.015c0 18.79 40.613 34.016 90.71 34.016 50.098 0 90.712-15.227 90.712-34.016m0 0"/></clipPath><linearGradient id="ao" x1="25.003" x2="74.997" y1="0" y2="0" gradientTransform="matrix(3.62883 0 0 -1.36081 64.325 182.995)" gradientUnits="userSpaceOnUse"><stop offset="0"/><stop offset=".004" stop-color="#040404"/><stop offset=".008" stop-color="#080808"/><stop offset=".012" stop-color="#0D0D0D"/><stop offset=".016" stop-color="#111"/><stop offset=".02" stop-color="#151515"/><stop offset=".023" stop-color="#191919"/><stop offset=".027" stop-color="#1D1D1D"/><stop offset=".031" stop-color="#212121"/><stop offset=".035" stop-color="#252525"/><stop offset=".039" stop-color="#2A2A2A"/><stop offset=".043" stop-color="#2E2E2E"/><stop offset=".047" stop-color="#323232"/><stop offset=".051" stop-color="#363636"/><stop offset=".055" stop-color="#3A3A3A"/><stop offset=".059" stop-color="#3E3E3E"/><stop offset=".063" stop-color="#424242"/><stop offset=".066" stop-color="#474747"/><stop offset=".07" stop-color="#4B4B4B"/><stop offset=".074" stop-color="#4F4F4F"/><stop offset=".078" stop-color="#535353"/><stop offset=".082" stop-color="#575757"/><stop offset=".086" stop-color="#5B5B5B"/><stop offset=".09" stop-color="#606060"/><stop offset=".094" stop-color="#646464"/><stop offset=".098" stop-color="#686868"/><stop offset=".102" stop-color="#6C6C6C"/><stop offset=".105" stop-color="#707070"/><stop offset=".109" stop-color="#747474"/><stop offset=".113" stop-color="#787878"/><stop offset=".117" stop-color="#7D7D7D"/><stop offset=".121" stop-color="#818181"/><stop offset=".125" stop-color="#858585"/><stop offset=".129" stop-color="#898989"/><stop offset=".133" stop-color="#8D8D8D"/><stop offset=".137" stop-color="#919191"/><stop offset=".141" stop-color="#959595"/><stop offset=".145" stop-color="#9A9A9A"/><stop offset=".148" stop-color="#9E9E9E"/><stop offset=".152" stop-color="#A2A2A2"/><stop offset=".156" stop-color="#A6A6A6"/><stop offset=".16" stop-color="#AAA"/><stop offset=".164" stop-color="#AEAEAE"/><stop offset=".168" stop-color="#B2B2B2"/><stop offset=".172" stop-color="#B7B7B7"/><stop offset=".176" stop-color="#BBB"/><stop offset=".18" stop-color="#BFBFBF"/><stop offset=".184" stop-color="#C3C3C3"/><stop offset=".188" stop-color="#C7C7C7"/><stop offset=".191" stop-color="#CBCBCB"/><stop offset=".195" stop-color="#D0D0D0"/><stop offset=".199" stop-color="#D4D4D4"/><stop offset=".203" stop-color="#D8D8D8"/><stop offset=".207" stop-color="#DCDCDC"/><stop offset=".211" stop-color="#E0E0E0"/><stop offset=".215" stop-color="#E4E4E4"/><stop offset=".219" stop-color="#E8E8E8"/><stop offset=".223" stop-color="#EDEDED"/><stop offset=".227" stop-color="#F1F1F1"/><stop offset=".23" stop-color="#F5F5F5"/><stop offset=".234" stop-color="#F9F9F9"/><stop offset=".238" stop-color="#FBFBFB"/><stop offset=".242" stop-color="#FDFDFD"/><stop offset=".246" stop-color="#F9F9F9"/><stop offset=".25" stop-color="#F5F5F5"/><stop offset=".254" stop-color="#F1F1F1"/><stop offset=".258" stop-color="#EEE"/><stop offset=".262" stop-color="#EAEAEA"/><stop offset=".266" stop-color="#E6E6E6"/><stop offset=".27" stop-color="#E2E2E2"/><stop offset=".273" stop-color="#DEDEDE"/><stop offset=".277" stop-color="#DADADA"/><stop offset=".281" stop-color="#D7D7D7"/><stop offset=".285" stop-color="#D3D3D3"/><stop offset=".289" stop-color="#CFCFCF"/><stop offset=".293" stop-color="#CBCBCB"/><stop offset=".297" stop-color="#C7C7C7"/><stop offset=".301" stop-color="#C3C3C3"/><stop offset=".305" stop-color="silver"/><stop offset=".309" stop-color="#BCBCBC"/><stop offset=".313" stop-color="#B8B8B8"/><stop offset=".316" stop-color="#B4B4B4"/><stop offset=".32" stop-color="#B0B0B0"/><stop offset=".324" stop-color="#ACACAC"/><stop offset=".328" stop-color="#A9A9A9"/><stop offset=".332" stop-color="#A5A5A5"/><stop offset=".336" stop-color="#A1A1A1"/><stop offset=".34" stop-color="#9D9D9D"/><stop offset=".344" stop-color="#999"/><stop offset=".348" stop-color="#959595"/><stop offset=".352" stop-color="#929292"/><stop offset=".355" stop-color="#8E8E8E"/><stop offset=".359" stop-color="#8A8A8A"/><stop offset=".363" stop-color="#868686"/><stop offset=".367" stop-color="#828282"/><stop offset=".371" stop-color="#7E7E7E"/><stop offset=".375" stop-color="#7B7B7B"/><stop offset=".379" stop-color="#777"/><stop offset=".383" stop-color="#737373"/><stop offset=".387" stop-color="#6F6F6F"/><stop offset=".391" stop-color="#6B6B6B"/><stop offset=".395" stop-color="#676767"/><stop offset=".398" stop-color="#646464"/><stop offset=".402" stop-color="#606060"/><stop offset=".406" stop-color="#5C5C5C"/><stop offset=".41" stop-color="#585858"/><stop offset=".414" stop-color="#545454"/><stop offset=".418" stop-color="#505050"/><stop offset=".422" stop-color="#4D4D4D"/><stop offset=".426" stop-color="#494949"/><stop offset=".43" stop-color="#454545"/><stop offset=".434" stop-color="#414141"/><stop offset=".438" stop-color="#3D3D3D"/><stop offset=".441" stop-color="#393939"/><stop offset=".445" stop-color="#363636"/><stop offset=".449" stop-color="#323232"/><stop offset=".453" stop-color="#2E2E2E"/><stop offset=".457" stop-color="#2A2A2A"/><stop offset=".461" stop-color="#262626"/><stop offset=".465" stop-color="#222"/><stop offset=".469" stop-color="#1F1F1F"/><stop offset=".473" stop-color="#1B1B1B"/><stop offset=".477" stop-color="#171717"/><stop offset=".48" stop-color="#131313"/><stop offset=".484" stop-color="#0F0F0F"/><stop offset=".488" stop-color="#0C0C0C"/><stop offset=".492" stop-color="#080808"/><stop offset=".496" stop-color="#040404"/><stop offset=".5"/><stop offset=".504" stop-color="#040404"/><stop offset=".508" stop-color="#080808"/><stop offset=".512" stop-color="#0C0C0C"/><stop offset=".516" stop-color="#111"/><stop offset=".52" stop-color="#151515"/><stop offset=".523" stop-color="#191919"/><stop offset=".527" stop-color="#1D1D1D"/><stop offset=".531" stop-color="#212121"/><stop offset=".535" stop-color="#252525"/><stop offset=".539" stop-color="#292929"/><stop offset=".543" stop-color="#2E2E2E"/><stop offset=".547" stop-color="#323232"/><stop offset=".551" stop-color="#363636"/><stop offset=".555" stop-color="#3A3A3A"/><stop offset=".559" stop-color="#3E3E3E"/><stop offset=".563" stop-color="#424242"/><stop offset=".566" stop-color="#474747"/><stop offset=".57" stop-color="#4B4B4B"/><stop offset=".574" stop-color="#4F4F4F"/><stop offset=".578" stop-color="#535353"/><stop offset=".582" stop-color="#575757"/><stop offset=".586" stop-color="#5B5B5B"/><stop offset=".59" stop-color="#5F5F5F"/><stop offset=".594" stop-color="#646464"/><stop offset=".598" stop-color="#686868"/><stop offset=".602" stop-color="#6C6C6C"/><stop offset=".605" stop-color="#707070"/><stop offset=".609" stop-color="#747474"/><stop offset=".613" stop-color="#787878"/><stop offset=".617" stop-color="#7C7C7C"/><stop offset=".621" stop-color="#818181"/><stop offset=".625" stop-color="#858585"/><stop offset=".629" stop-color="#898989"/><stop offset=".633" stop-color="#8D8D8D"/><stop offset=".637" stop-color="#919191"/><stop offset=".641" stop-color="#959595"/><stop offset=".645" stop-color="#9A9A9A"/><stop offset=".648" stop-color="#9E9E9E"/><stop offset=".652" stop-color="#A2A2A2"/><stop offset=".656" stop-color="#A6A6A6"/><stop offset=".66" stop-color="#AAA"/><stop offset=".664" stop-color="#AEAEAE"/><stop offset=".668" stop-color="#B2B2B2"/><stop offset=".672" stop-color="#B7B7B7"/><stop offset=".676" stop-color="#BBB"/><stop offset=".68" stop-color="#BFBFBF"/><stop offset=".684" stop-color="#C3C3C3"/><stop offset=".688" stop-color="#C7C7C7"/><stop offset=".691" stop-color="#CBCBCB"/><stop offset=".695" stop-color="#CFCFCF"/><stop offset=".699" stop-color="#D4D4D4"/><stop offset=".703" stop-color="#D8D8D8"/><stop offset=".707" stop-color="#DCDCDC"/><stop offset=".711" stop-color="#E0E0E0"/><stop offset=".715" stop-color="#E4E4E4"/><stop offset=".719" stop-color="#E8E8E8"/><stop offset=".723" stop-color="#EDEDED"/><stop offset=".727" stop-color="#F1F1F1"/><stop offset=".73" stop-color="#F5F5F5"/><stop offset=".734" stop-color="#F9F9F9"/><stop offset=".738" stop-color="#FBFBFB"/><stop offset=".742" stop-color="#FDFDFD"/><stop offset=".746" stop-color="#F9F9F9"/><stop offset=".75" stop-color="#F5F5F5"/><stop offset=".754" stop-color="#F1F1F1"/><stop offset=".758" stop-color="#EEE"/><stop offset=".762" stop-color="#EAEAEA"/><stop offset=".766" stop-color="#E6E6E6"/><stop offset=".77" stop-color="#E2E2E2"/><stop offset=".773" stop-color="#DEDEDE"/><stop offset=".777" stop-color="#DADADA"/><stop offset=".781" stop-color="#D7D7D7"/><stop offset=".785" stop-color="#D3D3D3"/><stop offset=".789" stop-color="#CFCFCF"/><stop offset=".793" stop-color="#CBCBCB"/><stop offset=".797" stop-color="#C7C7C7"/><stop offset=".801" stop-color="#C3C3C3"/><stop offset=".805" stop-color="silver"/><stop offset=".809" stop-color="#BCBCBC"/><stop offset=".813" stop-color="#B8B8B8"/><stop offset=".816" stop-color="#B4B4B4"/><stop offset=".82" stop-color="#B0B0B0"/><stop offset=".824" stop-color="#ACACAC"/><stop offset=".828" stop-color="#A9A9A9"/><stop offset=".832" stop-color="#A5A5A5"/><stop offset=".836" stop-color="#A1A1A1"/><stop offset=".84" stop-color="#9D9D9D"/><stop offset=".844" stop-color="#999"/><stop offset=".848" stop-color="#959595"/><stop offset=".852" stop-color="#929292"/><stop offset=".855" stop-color="#8E8E8E"/><stop offset=".859" stop-color="#8A8A8A"/><stop offset=".863" stop-color="#868686"/><stop offset=".867" stop-color="#828282"/><stop offset=".871" stop-color="#7E7E7E"/><stop offset=".875" stop-color="#7B7B7B"/><stop offset=".879" stop-color="#777"/><stop offset=".883" stop-color="#737373"/><stop offset=".887" stop-color="#6F6F6F"/><stop offset=".891" stop-color="#6B6B6B"/><stop offset=".895" stop-color="#686868"/><stop offset=".898" stop-color="#646464"/><stop offset=".902" stop-color="#606060"/><stop offset=".906" stop-color="#5C5C5C"/><stop offset=".91" stop-color="#585858"/><stop offset=".914" stop-color="#545454"/><stop offset=".918" stop-color="#515151"/><stop offset=".922" stop-color="#4D4D4D"/><stop offset=".926" stop-color="#494949"/><stop offset=".93" stop-color="#454545"/><stop offset=".934" stop-color="#414141"/><stop offset=".938" stop-color="#3D3D3D"/><stop offset=".941" stop-color="#3A3A3A"/><stop offset=".945" stop-color="#363636"/><stop offset=".949" stop-color="#323232"/><stop offset=".953" stop-color="#2E2E2E"/><stop offset=".957" stop-color="#2A2A2A"/><stop offset=".961" stop-color="#262626"/><stop offset=".965" stop-color="#232323"/><stop offset=".969" stop-color="#1F1F1F"/><stop offset=".973" stop-color="#1B1B1B"/><stop offset=".977" stop-color="#171717"/><stop offset=".98" stop-color="#131313"/><stop offset=".984" stop-color="#0F0F0F"/><stop offset=".988" stop-color="#0C0C0C"/><stop offset=".992" stop-color="#080808"/><stop offset=".996" stop-color="#040404"/><stop offset="1"/></linearGradient></defs><path fill="#BFBFBF" d="M.805.988v176.907h444.558V.988Zm0 0"/><use xlink:href="#a" x="10.079" y="17.947" fill="#404040"/><g fill="#404040"><use xlink:href="#b" x="20.595" y="17.947"/><use xlink:href="#c" x="28.485" y="17.947"/><use xlink:href="#d" x="36.533" y="17.947"/><use xlink:href="#e" x="40.206" y="17.947"/></g><g fill="#404040"><use xlink:href="#f" x="50.851" y="17.947"/><use xlink:href="#g" x="54.524" y="17.947"/><use xlink:href="#h" x="60.578" y="17.947"/></g><g fill="#404040"><use xlink:href="#i" x="69.687" y="17.947"/><use xlink:href="#j" x="77.219" y="17.947"/></g><g fill="#404040"><use xlink:href="#k" x="92.986" y="17.947"/><use xlink:href="#f" x="103.659" y="17.947"/><use xlink:href="#l" x="107.332" y="17.947"/><use xlink:href="#c" x="114.347" y="17.947"/><use xlink:href="#h" x="122.395" y="17.947"/><use xlink:href="#f" x="128.191" y="17.947"/><use xlink:href="#m" x="131.864" y="17.947"/><use xlink:href="#g" x="139.754" y="17.947"/><use xlink:href="#h" x="145.808" y="17.947"/><use xlink:href="#e" x="151.604" y="17.947"/><use xlink:href="#n" x="158.935" y="17.947"/></g><use xlink:href="#o" x="10.079" y="29.902"/><use xlink:href="#p" x="16.475" y="29.902"/><use xlink:href="#q" x="22.064" y="29.902"/><use xlink:href="#r" x="27.155" y="29.902"/><use xlink:href="#s" x="30.861" y="29.902"/><use xlink:href="#t" x="36.341" y="29.902"/><use xlink:href="#q" x="38.891" y="29.902"/><use xlink:href="#u" x="43.982" y="29.902"/><use xlink:href="#t" x="52.619" y="29.902"/><use xlink:href="#v" x="55.17" y="29.902"/><use xlink:href="#w" x="63.469" y="29.902"/><use xlink:href="#q" x="69.367" y="29.902"/><use xlink:href="#t" x="74.458" y="29.902"/><use xlink:href="#x" x="80.326" y="29.902"/><use xlink:href="#q" x="85.915" y="29.902"/><use xlink:href="#r" x="91.006" y="29.902"/><use xlink:href="#x" x="98.029" y="29.902"/><use xlink:href="#q" x="103.618" y="29.902"/><use xlink:href="#y" x="108.709" y="29.902"/><use xlink:href="#z" x="114.298" y="29.902"/><use xlink:href="#A" x="118.323" y="29.902"/><use xlink:href="#B" x="122.527" y="29.902"/><use xlink:href="#C" x="127.399" y="29.902"/><use xlink:href="#q" x="132.988" y="29.902"/><use xlink:href="#p" x="138.079" y="29.902"/><use xlink:href="#D" x="146.996" y="29.902"/><use xlink:href="#z" x="153.083" y="29.902"/><use xlink:href="#r" x="157.108" y="29.902"/><use xlink:href="#E" x="160.814" y="29.902"/><use xlink:href="#u" x="166.293" y="29.902"/><use xlink:href="#q" x="174.931" y="29.902"/><use xlink:href="#r" x="180.022" y="29.902"/><use xlink:href="#F" x="183.728" y="29.902"/><use xlink:href="#q" x="188.47" y="29.902"/><use xlink:href="#y" x="193.561" y="29.902"/><use xlink:href="#s" x="199.15" y="29.902"/><use xlink:href="#y" x="204.629" y="29.902"/><use xlink:href="#p" x="210.218" y="29.902"/><use xlink:href="#s" x="215.808" y="29.902"/><use xlink:href="#G" x="224.605" y="29.902"/><use xlink:href="#H" x="230.084" y="29.902"/><use xlink:href="#H" x="235.563" y="29.902"/><use xlink:href="#I" x="241.043" y="29.902"/><path fill="#FFF" stroke="#7F7F7F" stroke-miterlimit="10" stroke-width=".399" d="M9.875 38.402v129.29h426.418V38.401Zm0 0"/><use xlink:href="#J" x="13.4" y="47.903"/><use xlink:href="#K" x="19.242" y="47.903"/><use xlink:href="#L" x="23.315" y="47.903"/><use xlink:href="#M" x="26.678" y="47.903"/><use xlink:href="#N" x="30.863" y="47.903"/><use xlink:href="#O" x="37.773" y="47.903"/><use xlink:href="#K" x="40.993" y="47.903"/><use xlink:href="#P" x="47.99" y="47.903"/><use xlink:href="#K" x="54.319" y="47.903"/><use xlink:href="#O" x="58.391" y="47.903"/><use xlink:href="#O" x="61.611" y="47.903"/><use xlink:href="#Q" x="64.831" y="47.903"/><use xlink:href="#R" x="69.215" y="47.903"/><use xlink:href="#S" x="72.14" y="47.903"/><use xlink:href="#O" x="77.009" y="47.903"/><use xlink:href="#T" x="80.229" y="47.903"/><use xlink:href="#Q" x="83.194" y="47.903"/><use xlink:href="#N" x="87.578" y="47.903"/><use xlink:href="#K" x="94.488" y="47.903"/><use xlink:href="#T" x="98.561" y="47.903"/><use xlink:href="#U" x="101.526" y="47.903"/><use xlink:href="#K" x="105.319" y="47.903"/><use xlink:href="#V" x="109.392" y="47.903"/><use xlink:href="#W" x="113.863" y="47.903"/><use xlink:href="#V" x="118.247" y="47.903"/><use xlink:href="#X" x="122.718" y="47.903"/><use xlink:href="#W" x="127.189" y="47.903"/><use xlink:href="#Y" x="134.498" y="47.903"/><use xlink:href="#X" x="136.538" y="47.903"/><use xlink:href="#Z" x="143.934" y="47.903"/><use xlink:href="#T" x="149.537" y="47.903"/><use xlink:href="#Q" x="152.502" y="47.903"/><use xlink:href="#U" x="156.886" y="47.903"/><use xlink:href="#K" x="160.68" y="47.903"/><use xlink:href="#X" x="164.752" y="47.903"/><use xlink:href="#O" x="169.224" y="47.903"/><use xlink:href="#aa" x="172.444" y="47.903"/><use xlink:href="#Y" x="177.807" y="47.903"/><use xlink:href="#X" x="179.848" y="47.903"/><use xlink:href="#ab" x="187.244" y="47.903"/><use xlink:href="#Y" x="195.039" y="47.903"/><use xlink:href="#ac" x="197.079" y="47.903"/><use xlink:href="#ac" x="199.12" y="47.903"/><use xlink:href="#Y" x="201.16" y="47.903"/><use xlink:href="#M" x="203.2" y="47.903"/><use xlink:href="#T" x="207.137" y="47.903"/><use xlink:href="#ad" x="210.102" y="47.903"/><use xlink:href="#K" x="214.574" y="47.903"/><use xlink:href="#X" x="218.646" y="47.903"/><use xlink:href="#ae" x="226.043" y="47.903"/><use xlink:href="#Y" x="232.132" y="47.903"/><use xlink:href="#ac" x="234.172" y="47.903"/><use xlink:href="#Q" x="236.212" y="47.903"/><use xlink:href="#af" x="240.349" y="47.903"/><use xlink:href="#M" x="246.032" y="47.903"/><use xlink:href="#O" x="250.216" y="47.903"/><use xlink:href="#O" x="253.436" y="47.903"/><use xlink:href="#L" x="256.656" y="47.903"/><use xlink:href="#O" x="260.019" y="47.903"/><use xlink:href="#V" x="263.239" y="47.903"/><use xlink:href="#X" x="267.71" y="47.903"/><use xlink:href="#ad" x="272.182" y="47.903"/><use xlink:href="#K" x="276.653" y="47.903"/><use xlink:href="#X" x="280.725" y="47.903"/><use xlink:href="#ag" x="288.122" y="47.903"/><use xlink:href="#ab" x="291.533" y="47.903"/><use xlink:href="#T" x="299.328" y="47.903"/><use xlink:href="#ad" x="302.293" y="47.903"/><use xlink:href="#ah" x="306.764" y="47.903"/><use xlink:href="#ai" x="312.128" y="47.903"/><use xlink:href="#aj" x="315.627" y="47.903"/><use xlink:href="#ak" x="323.908" y="47.903"/><use xlink:href="#al" x="328.379" y="47.903"/><g clip-path="url(#am)"><g clip-path="url(#an)"><path fill="url(#ao)" d="M155.055 148.969V80.938h181.422v68.03Zm0 0"/></g></g><path fill="none" stroke="#000" stroke-miterlimit="10" stroke-width=".199" d="M336.477 114.953c0-18.785-40.614-34.015-90.711-34.015s-90.711 15.23-90.711 34.015c0 18.79 40.613 34.016 90.71 34.016 50.098 0 90.712-15.227 90.712-34.016Zm0 0"/><path fill="#696" d="M245.766 109.852V75.836c32.402 0 62.355 6.484 78.558 17.008 9.305 6.043 13.426 13.02 11.805 19.972"/><path fill="#999" d="m245.766 109.852 90.363 2.964c-2.824 12.106-22.66 22.73-52.027 27.864-19.325 3.382-41.215 4.097-61.813 2.03"/><path fill="#997F66" d="m245.766 109.852-23.477 32.859c-39.652-3.984-67.234-17.465-67.234-32.86"/><path fill="#FFB266" d="M245.766 109.852h-90.711c0-5.97 4.195-11.836 12.152-17.008"/><path fill="#404040" d="m245.766 109.852-78.559-17.008a61 61 0 0 1 4.254-2.504"/><path fill="#1919FF" d="M245.766 109.852 171.46 90.34c3.027-1.621 6.434-3.14 10.164-4.54"/><path fill="#7F7FFF" d="M245.766 109.852 181.625 85.8c16.234-6.09 38.031-9.645 60.977-9.946"/><path fill="#8F8A48" d="m245.766 109.852-3.164-33.997q1.581-.018 3.164-.02"/><path fill="none" stroke="#000" stroke-miterlimit="10" stroke-width=".199" d="M245.766 109.852V75.836M245.766 109.852l90.363 2.964M245.766 109.852l-23.477 32.859M245.766 109.852h-90.711M245.766 109.852l-78.559-17.008M245.766 109.852 171.46 90.34M245.766 109.852 181.625 85.8M245.766 109.852l-3.164-33.997M336.477 109.852c0-18.786-40.614-34.016-90.711-34.016s-90.711 15.23-90.711 34.016c0 18.789 40.613 34.015 90.71 34.015 50.098 0 90.712-15.226 90.712-34.015Zm0 0"/><use xlink:href="#ap" x="204.885" y="89.939"/><use xlink:href="#aq" x="210.364" y="89.939"/><use xlink:href="#I" x="213.413" y="89.939"/><use xlink:href="#ar" x="218.892" y="89.939"/><use xlink:href="#G" x="270.175" y="104.556"/><use xlink:href="#as" x="275.654" y="104.556"/><use xlink:href="#aq" x="281.134" y="104.556"/><use xlink:href="#at" x="284.182" y="104.556"/><use xlink:href="#ar" x="289.662" y="104.556"/><use xlink:href="#G" x="269.382" y="127.492"/><use xlink:href="#au" x="274.861" y="127.492"/><use xlink:href="#aq" x="280.341" y="127.492"/><use xlink:href="#av" x="283.389" y="127.492"/><use xlink:href="#ar" x="288.869" y="127.492"/><use xlink:href="#G" x="192.412" y="127.492"/><use xlink:href="#G" x="197.891" y="127.492"/><use xlink:href="#aq" x="203.371" y="127.492"/><use xlink:href="#aw" x="206.419" y="127.492"/><use xlink:href="#ar" x="211.899" y="127.492"/><use xlink:href="#ax" x="164.352" y="107.756"/><use xlink:href="#H" x="169.831" y="107.756"/><use xlink:href="#aq" x="175.311" y="107.756"/><use xlink:href="#I" x="178.359" y="107.756"/><use xlink:href="#ar" x="183.839" y="107.756"/><path fill="none" stroke="#000" stroke-miterlimit="10" stroke-width=".399" d="M217.008 78.941v-8.504h210.21"/><path fill="none" stroke="#000" stroke-miterlimit="10" stroke-width=".399" d="M244.34 79.242V70.43h182.918"/><use xlink:href="#ay" x="205.307" y="65.249"/><use xlink:href="#az" x="211.61" y="65.249"/><use xlink:href="#aA" x="216.192" y="65.249"/><use xlink:href="#az" x="221.124" y="65.249"/><use xlink:href="#aB" x="225.706" y="65.249"/><use xlink:href="#az" x="230.736" y="65.249"/><use xlink:href="#aC" x="235.317" y="65.249"/><use xlink:href="#aD" x="238.653" y="65.249"/><use xlink:href="#aE" x="243.36" y="65.249"/><use xlink:href="#aF" x="246.983" y="65.249"/><use xlink:href="#aG" x="249.278" y="65.249"/><use xlink:href="#az" x="253.761" y="65.249"/><use xlink:href="#ag" x="261.634" y="65.249"/><use xlink:href="#aH" x="265.045" y="65.249"/><use xlink:href="#aI" x="269.429" y="65.249"/><use xlink:href="#aa" x="273.812" y="65.249"/><use xlink:href="#aJ" x="276.251" y="65.249"/><use xlink:href="#ai" x="283.56" y="65.249"/><use xlink:href="#aj" x="287.059" y="65.249"/><use xlink:href="#ak" x="295.34" y="65.249"/><use xlink:href="#al" x="299.811" y="65.249"/><use xlink:href="#aK" x="303.222" y="65.249"/><use xlink:href="#ad" x="307.606" y="65.249"/><use xlink:href="#M" x="312.077" y="65.249"/><use xlink:href="#aL" x="316.261" y="65.249"/><use xlink:href="#Q" x="320.246" y="65.249"/><use xlink:href="#X" x="324.63" y="65.249"/><use xlink:href="#aM" x="332.392" y="65.249"/><use xlink:href="#aF" x="341.708" y="65.249"/><use xlink:href="#aB" x="344.003" y="65.249"/><use xlink:href="#aN" x="349.034" y="65.249"/><use xlink:href="#aO" x="357.354" y="65.249"/><use xlink:href="#aP" x="362.286" y="65.249"/><use xlink:href="#aO" x="365.03" y="65.249"/><use xlink:href="#aQ" x="369.961" y="65.249"/><use xlink:href="#ag" x="382.478" y="65.249"/><use xlink:href="#aR" x="385.889" y="65.249"/><use xlink:href="#aH" x="390.273" y="65.249"/><use xlink:href="#aa" x="394.656" y="65.249"/><use xlink:href="#aS" x="397.095" y="65.249"/><use xlink:href="#ai" x="404.404" y="65.249"/><use xlink:href="#aj" x="407.903" y="65.249"/><use xlink:href="#ak" x="416.184" y="65.249"/><use xlink:href="#al" x="420.655" y="65.249"/><path fill="none" stroke="#000" stroke-miterlimit="10" stroke-width=".399" d="M303.445 104.555H427.22"/><use xlink:href="#aT" x="374.93" y="99.52"/><use xlink:href="#az" x="381.78" y="99.52"/><use xlink:href="#aC" x="386.362" y="99.52"/><use xlink:href="#aB" x="389.698" y="99.52"/><use xlink:href="#az" x="394.728" y="99.52"/><use xlink:href="#aB" x="399.31" y="99.52"/><use xlink:href="#az" x="404.34" y="99.52"/><use xlink:href="#aC" x="408.922" y="99.52"/><use xlink:href="#aA" x="412.257" y="99.52"/><use xlink:href="#aF" x="417.189" y="99.52"/><use xlink:href="#az" x="419.484" y="99.52"/><use xlink:href="#ag" x="378.094" y="113.72"/><use xlink:href="#aU" x="381.505" y="113.72"/><use xlink:href="#aH" x="385.889" y="113.72"/><use xlink:href="#aV" x="390.272" y="113.72"/><use xlink:href="#aa" x="394.656" y="113.72"/><use xlink:href="#aW" x="397.095" y="113.72"/><use xlink:href="#ai" x="404.403" y="113.72"/><use xlink:href="#aj" x="407.902" y="113.72"/><use xlink:href="#ak" x="416.183" y="113.72"/><use xlink:href="#al" x="420.654" y="113.72"/><path fill="none" stroke="#000" stroke-miterlimit="10" stroke-width=".399" d="M284.258 132.07v25.516h142.96"/><use xlink:href="#aX" x="325.516" y="152.413"/><use xlink:href="#aC" x="332.088" y="152.413"/><use xlink:href="#aD" x="335.424" y="152.413"/><use xlink:href="#aY" x="340.131" y="152.413"/><use xlink:href="#aB" x="345.161" y="152.413"/><use xlink:href="#aZ" x="350.191" y="152.413"/><use xlink:href="#ba" x="354.675" y="152.413"/><use xlink:href="#bb" x="359.606" y="152.413"/><use xlink:href="#bc" x="364.636" y="152.413"/><use xlink:href="#az" x="366.932" y="152.413"/><use xlink:href="#ag" x="378.094" y="152.413"/><use xlink:href="#aU" x="381.505" y="152.413"/><use xlink:href="#aW" x="385.889" y="152.413"/><use xlink:href="#bd" x="390.272" y="152.413"/><use xlink:href="#aa" x="394.656" y="152.413"/><use xlink:href="#aS" x="397.095" y="152.413"/><use xlink:href="#ai" x="404.403" y="152.413"/><use xlink:href="#aj" x="407.902" y="152.413"/><use xlink:href="#ak" x="416.183" y="152.413"/><use xlink:href="#al" x="420.654" y="152.413"/><path fill="none" stroke="#000" stroke-miterlimit="10" stroke-width=".399" d="M207.273 132.07v25.516H18.95"/><use xlink:href="#be" x="22.094" y="152.413"/><use xlink:href="#aE" x="27.572" y="152.413"/><use xlink:href="#az" x="31.195" y="152.413"/><use xlink:href="#aF" x="35.777" y="152.413"/><use xlink:href="#aB" x="38.072" y="152.413"/><use xlink:href="#aZ" x="43.102" y="152.413"/><use xlink:href="#ba" x="47.585" y="152.413"/><use xlink:href="#bb" x="52.517" y="152.413"/><use xlink:href="#bc" x="57.547" y="152.413"/><use xlink:href="#az" x="59.842" y="152.413"/><use xlink:href="#ag" x="71.006" y="152.413"/><use xlink:href="#aU" x="74.417" y="152.413"/><use xlink:href="#aR" x="78.801" y="152.413"/><use xlink:href="#aJ" x="83.184" y="152.413"/><use xlink:href="#aa" x="87.568" y="152.413"/><use xlink:href="#aU" x="90.007" y="152.413"/><use xlink:href="#ai" x="97.315" y="152.413"/><use xlink:href="#aj" x="100.814" y="152.413"/><use xlink:href="#ak" x="109.095" y="152.413"/><use xlink:href="#al" x="113.566" y="152.413"/><path fill="none" stroke="#000" stroke-miterlimit="10" stroke-width=".399" d="M160.816 107.754H18.95"/><use xlink:href="#bf" x="22.094" y="102.575"/><use xlink:href="#aC" x="27.85" y="102.575"/><use xlink:href="#aN" x="31.186" y="102.575"/><use xlink:href="#aA" x="36.216" y="102.575"/><use xlink:href="#aD" x="41.148" y="102.575"/><use xlink:href="#bg" x="45.855" y="102.575"/><use xlink:href="#ag" x="56.22" y="102.575"/><use xlink:href="#aH" x="59.631" y="102.575"/><use xlink:href="#bh" x="64.015" y="102.575"/><use xlink:href="#aa" x="68.398" y="102.575"/><use xlink:href="#aR" x="70.837" y="102.575"/><use xlink:href="#ai" x="78.146" y="102.575"/><use xlink:href="#aj" x="81.645" y="102.575"/><use xlink:href="#ak" x="89.926" y="102.575"/><use xlink:href="#al" x="94.397" y="102.575"/><path fill="none" stroke="#000" stroke-miterlimit="10" stroke-width=".399" d="M177.285 93.176H18.95"/><use xlink:href="#bi" x="22.094" y="87.992"/><use xlink:href="#aF" x="30.863" y="87.992"/><use xlink:href="#aB" x="33.159" y="87.992"/><use xlink:href="#az" x="38.189" y="87.992"/><use xlink:href="#aC" x="42.77" y="87.992"/><use xlink:href="#aD" x="46.106" y="87.992"/><use xlink:href="#bc" x="50.813" y="87.992"/><use xlink:href="#bj" x="53.109" y="87.992"/><use xlink:href="#bc" x="58.04" y="87.992"/><use xlink:href="#bk" x="60.336" y="87.992"/><use xlink:href="#aC" x="65.088" y="87.992"/><use xlink:href="#ba" x="68.423" y="87.992"/><use xlink:href="#aN" x="73.633" y="87.992"/><use xlink:href="#aY" x="78.663" y="87.992"/><use xlink:href="#aZ" x="83.693" y="87.992"/><use xlink:href="#aE" x="88.454" y="87.992"/><use xlink:href="#az" x="92.077" y="87.992"/><use xlink:href="#ag" x="103.24" y="87.992"/><use xlink:href="#bh" x="106.651" y="87.992"/><use xlink:href="#aa" x="111.035" y="87.992"/><use xlink:href="#aR" x="113.474" y="87.992"/><use xlink:href="#ai" x="120.782" y="87.992"/><use xlink:href="#aj" x="124.281" y="87.992"/><use xlink:href="#ak" x="132.562" y="87.992"/><use xlink:href="#al" x="137.033" y="87.992"/><use xlink:href="#ax" x="149.22" y="87.992"/><use xlink:href="#aq" x="154.699" y="87.992"/><use xlink:href="#av" x="157.748" y="87.992"/><use xlink:href="#ar" x="163.227" y="87.992"/><path fill="none" stroke="#000" stroke-miterlimit="10" stroke-width=".399" d="M183.215 90.168V70.43H18.949"/><use xlink:href="#be" x="22.094" y="65.242"/><use xlink:href="#ba" x="27.572" y="65.242"/><use xlink:href="#aB" x="32.504" y="65.242"/><use xlink:href="#bg" x="37.534" y="65.242"/><use xlink:href="#aE" x="41.318" y="65.242"/><use xlink:href="#aF" x="44.94" y="65.242"/><use xlink:href="#aA" x="47.236" y="65.242"/><use xlink:href="#az" x="52.167" y="65.242"/><use xlink:href="#ag" x="63.331" y="65.242"/><use xlink:href="#aU" x="66.742" y="65.242"/><use xlink:href="#bd" x="71.126" y="65.242"/><use xlink:href="#aa" x="75.509" y="65.242"/><use xlink:href="#aH" x="77.948" y="65.242"/><use xlink:href="#ai" x="85.257" y="65.242"/><use xlink:href="#aj" x="88.756" y="65.242"/><use xlink:href="#ak" x="97.037" y="65.242"/><use xlink:href="#al" x="101.508" y="65.242"/><use xlink:href="#G" x="153.288" y="65.242"/><use xlink:href="#aq" x="158.767" y="65.242"/><use xlink:href="#ap" x="161.816" y="65.242"/><use xlink:href="#ar" x="167.295" y="65.242"/></svg>