<svg xmlns="http://www.w3.org/2000/svg" width="87.465" height="58.898"><defs><clipPath id="a"><path d="M0 7h87.2v51.848H0Zm0 0"/></clipPath></defs><path fill="none" stroke="#7F7F7F" stroke-miterlimit="10" stroke-width=".199" d="M.95 57.734h85.038M.95 29.387h85.04M.948 1.05h85.04M.948 57.734V1.04m28.348 56.695V1.04m28.348 56.695V1.04M85.98 57.734V1.04"/><g clip-path="url(#a)"><path fill="none" stroke="#000" stroke-miterlimit="10" stroke-width=".399" d="m.95 57.734.015-1.351.05-1.348.083-1.347.12-1.34.153-1.344.192-1.332.23-1.332.27-1.32.308-1.313.348-1.305.386-1.293.43-1.277.473-1.266.512-1.246.558-1.23.594-1.207.64-1.192.68-1.164.719-1.14.762-1.114.8-1.086.836-1.058.875-1.027.914-.993.946-.964.976-.926 1.012-.895 1.043-.86 1.07-.82 1.098-.785 1.121-.746 1.148-.707 1.567-.89-.082-2.782 4.488 3.403.352-5.492 4.062 3.894.969-5.422 3.613 4.317 1.543-5.286 3.133 4.676 2.094-5.097 2.625 4.976 2.613-4.851 2.094 5.222 3.105-4.55 1.532 5.414 3.574-4.188.937 5.547 4.008-3.77.305 5.625 2.144-1.672.106.055 1.176.66 1.156.7 1.129.734 1.105.77 1.082.812 1.047.848 1.023.882.989.914.957.954.922.984.882 1.02.852 1.046.813 1.078.77 1.106.733 1.133.692 1.156.652 1.184.61 1.203.57 1.222.527 1.243.48 1.261.446 1.274.402 1.289.36 1.297.32 1.312.281 1.32.239 1.329.203 1.332.168 1.34.129 1.343.093 1.344.059 1.348.027 1.761"/></g></svg>