<svg xmlns="http://www.w3.org/2000/svg" xmlns:xlink="http://www.w3.org/1999/xlink" width="100.19" height="31.952"><defs><path id="a" d="M5.156-3.547c0-.234-.172-.547-.593-.547-.438 0-.813.219-.985.344-.375-.219-.781-.281-1.219-.281-1.375 0-1.843.734-1.843 1.328 0 .484.312.812.468.937a1.25 1.25 0 0 0-.296.782c0 .39.187.703.375.875C.39.078.297.453.297.656c0 .532.625 1.14 2.344 1.14C4.219 1.797 5 1.313 5 .626c0-.312-.11-.86-.734-1.156C3.75-.766 3.28-.766 2.39-.766h-.453c-.282 0-.407 0-.563-.109a.56.56 0 0 1-.203-.453c0-.172.062-.281.062-.281.329.172.735.234 1.125.234 1.375 0 1.844-.734 1.844-1.328 0-.36-.172-.656-.36-.844.235-.125.423-.14.532-.172 0 .047-.031.094-.031.188a.407.407 0 1 0 .813-.016m-1.984.844c0 .39 0 .969-.813.969s-.812-.578-.812-.97c0-.405 0-.968.812-.968s.813.563.813.969M4.203.657c0 .296-.328.78-1.547.78C1.47 1.438 1.094 1 1.094.642c0-.516.578-.516.703-.516H2.89c.28 0 1.312 0 1.312.531m0 0"/><path id="b" d="M5-1.953c0-1.172-.828-2.11-2.344-2.11-1.578 0-2.36.985-2.36 2.11 0 1.11.813 2 2.345 2C4.25.047 5-.891 5-1.953m-1.187-.094c0 .766 0 1.719-1.157 1.719-1.172 0-1.172-.953-1.172-1.719 0-.765 0-1.656 1.157-1.656 1.172 0 1.172.89 1.172 1.656m0 0"/><path id="c" d="M5.516 0v-.437c-.532 0-.61 0-.61-.36v-5.422l-1.61.063v.437c.548 0 .61 0 .61.36v1.734a2 2 0 0 0-1.25-.406c-1.453 0-2.312.89-2.312 2.047 0 1.187.844 2.03 2.219 2.03.562 0 1-.202 1.296-.437v.438ZM3.859-.984a1.43 1.43 0 0 1-1.203.672c-1.11 0-1.11-1.063-1.11-1.657 0-.531 0-.906.235-1.234.235-.36.672-.469.985-.469.437 0 .812.188 1.093.547Zm0 0"/><path id="d" d="M4.563-1.047c0-.172-.172-.172-.235-.172-.156 0-.172.047-.234.172-.203.469-.75.719-1.313.719-1.281 0-1.297-1.156-1.297-1.594h2.782c.187 0 .297 0 .297-.25 0-.203-.016-1-.594-1.484-.406-.328-.953-.406-1.39-.406-1.532 0-2.282.968-2.282 2.046 0 1.172.89 2.063 2.406 2.063 1.485 0 1.86-.938 1.86-1.094M3.688-2.25H1.483c.016-.406.063-1.453 1.094-1.453 1.047 0 1.094 1.094 1.11 1.453m0 0"/><path id="e" d="M5.375 0v-.437H4.75L3.203-2.203l1.11-1.172c.093-.11.156-.172.875-.172v-.437c-.313.03-.547.03-.844.03-.157 0-.5 0-.907-.03v.437c.188 0 .235.047.297.11l-.828.906-.89-1.016h.328v-.437l-1.078.03c-.188 0-.532 0-.985-.03v.437h.625l1.422 1.625L1.125-.609c-.172.172-.484.172-.89.172V0c.296-.031.53-.031.828-.031.171 0 .515 0 .921.031v-.437c-.14 0-.296-.032-.296-.094 0-.047.078-.11.078-.11l.875-.937.984 1.14h-.312V0L4.39-.031c.203 0 .53 0 .984.031m0 0"/><path id="f" d="M5.11-.219c0-.218-.157-.218-.235-.218-.578-.016-.578-.094-.578-.313v-1.922c0-.797-.64-1.39-2.031-1.39-.5 0-1.657.015-1.657.843 0 .406.313.594.579.594.312 0 .593-.219.593-.578 0-.266-.156-.422-.187-.453.093-.016.312-.047.64-.047.641 0 1.016.328 1.016 1.031v.281C1.766-2.39.25-2 .25-1 .25-.11 1.375.047 2.016.047c.687 0 1.156-.281 1.39-.703 0 .219 0 .656.969.656h.438c.171 0 .296 0 .296-.219M3.25-1.25c0 .938-1.047.938-1.078.938-.453 0-.828-.282-.828-.688 0-.297.156-1 1.906-1.078Zm0 0"/><path id="g" d="M8.594 0v-.437h-.61v-2.297c0-1.063-.625-1.297-1.421-1.297-.938 0-1.391.562-1.563.843C4.813-4 4.016-4.03 3.625-4.03c-1.11 0-1.547.797-1.61.937H2v-.937L.453-3.97v.438c.531 0 .61 0 .61.36v2.734h-.61V0l1.125-.031L2.718 0v-.437H2.11v-1.844c0-1 .829-1.39 1.36-1.39.344 0 .531.171.531.858v2.376h-.61V0l1.126-.031L5.656 0v-.437h-.61v-1.844c0-1 .829-1.39 1.36-1.39.344 0 .532.171.532.858v2.376h-.61V0l1.14-.031Zm0 0"/><path id="h" d="M5.531-1.984c0-1.188-.812-2.047-2.172-2.047-.718 0-1.218.297-1.39.422v-.422L.375-3.97v.438c.172 0 .313 0 .438.031.171.031.171.125.171.313v4.484H.375v.437L1.5 1.72l1.14.015v-.437h-.609v-1.64c.531.39 1.016.39 1.188.39 1.406 0 2.312-.844 2.312-2.031M4.344-2c0 1.25-.64 1.688-1.235 1.688-.453 0-.843-.25-1.078-.625v-2.157a1.55 1.55 0 0 1 1.188-.562c.625 0 1.125.562 1.125 1.656m0 0"/><path id="i" d="M2.688 0v-.437h-.61V-6.22l-1.61.063v.437c.532 0 .61 0 .61.36v4.922h-.61V0l1.095-.031Zm0 0"/><path id="j" d="M5.531-1.984c0-1.22-.875-2.047-2.187-2.047-.719 0-1.203.297-1.375.422v-2.61l-1.594.063v.437c.531 0 .61 0 .61.36V0h.453l.421-.516c.282.297.72.563 1.36.563 1.406 0 2.312-.844 2.312-2.031m-1.187-.032c0 .391 0 .844-.188 1.172-.297.5-.843.532-1.031.532-.547 0-.906-.329-1.094-.625V-3.11a1.55 1.55 0 0 1 1.203-.563c1.11 0 1.11 1.078 1.11 1.656m0 0"/><path id="k" d="M4.406-1.047c0-.14-.125-.14-.234-.14-.172 0-.172.015-.25.171-.172.438-.578.688-1.11.688-1.265 0-1.265-1.297-1.265-1.703 0-.531 0-1.64 1.172-1.64.078 0 .562 0 .562.046l-.031.047a.6.6 0 0 0-.125.375c0 .36.281.578.594.578a.57.57 0 0 0 .578-.594c0-.844-1.25-.844-1.61-.844C.97-4.062.345-2.968.345-1.983c0 1.125.812 2.03 2.297 2.03.343 0 .78-.046 1.156-.28.515-.313.61-.782.61-.813m0 0"/><clipPath id="l"><path d="M0 17h28v14.93H0Zm0 0"/></clipPath><clipPath id="m"><path d="M0 17h14v14.93H0Zm0 0"/></clipPath><clipPath id="n"><path d="M8 20h15v11.93H8Zm0 0"/></clipPath></defs><use xlink:href="#a" x="25.589" y="7.212"/><use xlink:href="#b" x="30.897" y="7.212"/><use xlink:href="#b" x="36.501" y="7.212"/><use xlink:href="#c" x="42.105" y="7.212"/><use xlink:href="#d" x="51.529" y="7.212"/><use xlink:href="#e" x="56.397" y="7.212"/><use xlink:href="#f" x="62.001" y="7.212"/><use xlink:href="#g" x="67.157" y="7.212"/><use xlink:href="#h" x="75.998" y="7.212"/><use xlink:href="#i" x="81.889" y="7.212"/><use xlink:href="#d" x="84.839" y="7.212"/><use xlink:href="#f" x="93.24" y="7.212"/><path fill="none" stroke="#000" stroke-miterlimit="10" stroke-width=".598" d="m.688 5 4.98-1.328 9.96 2.656L20.614 5"/><path fill="none" stroke="#000" stroke-miterlimit="10" stroke-width=".399" d="m4.258 5.082 2.82-2.816m-2.82 0 2.82 2.816M14.223 7.734l2.816-2.816m-2.816 0 2.816 2.816"/><use xlink:href="#a" x="25.589" y="18.17"/><use xlink:href="#b" x="30.897" y="18.17"/><use xlink:href="#b" x="36.501" y="18.17"/><use xlink:href="#c" x="42.105" y="18.17"/><use xlink:href="#d" x="51.529" y="18.17"/><use xlink:href="#e" x="56.397" y="18.17"/><use xlink:href="#f" x="62.001" y="18.17"/><use xlink:href="#g" x="67.157" y="18.17"/><use xlink:href="#h" x="75.998" y="18.17"/><use xlink:href="#i" x="81.889" y="18.17"/><use xlink:href="#d" x="84.839" y="18.17"/><use xlink:href="#j" x="93.24" y="18.17"/><path fill="none" stroke="#000" stroke-miterlimit="10" stroke-width=".598" d="m.688 15.96 4.98-1.327 9.96 2.652 4.985-1.324"/><path fill="none" stroke="#000" stroke-miterlimit="10" stroke-width=".399" d="M3.676 14.633H7.66M5.668 12.64v3.984M13.637 17.285h3.988m-1.996-1.992v3.984"/><use xlink:href="#a" x="25.589" y="29.129"/><use xlink:href="#b" x="30.897" y="29.129"/><use xlink:href="#b" x="36.501" y="29.129"/><use xlink:href="#c" x="42.105" y="29.129"/><use xlink:href="#d" x="51.529" y="29.129"/><use xlink:href="#e" x="56.397" y="29.129"/><use xlink:href="#f" x="62.001" y="29.129"/><use xlink:href="#g" x="67.157" y="29.129"/><use xlink:href="#h" x="75.998" y="29.129"/><use xlink:href="#i" x="81.889" y="29.129"/><use xlink:href="#d" x="84.839" y="29.129"/><use xlink:href="#k" x="93.24" y="29.129"/><g clip-path="url(#l)"><path fill="none" stroke="#000" stroke-miterlimit="10" stroke-width=".598" d="m2.129 26.535 2.094-.558m2.89 0 7.074 1.882m2.887 0 2.094-.558"/></g><g clip-path="url(#m)"><path fill="none" stroke="#000" stroke-miterlimit="10" stroke-width=".399" d="M5.668 23.598v1.992m1.727.996-1.727-.996m-1.727.996 1.727-.996"/></g><g clip-path="url(#n)"><path fill="none" stroke="#000" stroke-miterlimit="10" stroke-width=".399" d="M15.629 26.254v1.992m1.726.996-1.726-.996m-1.723.996 1.723-.996"/></g></svg>