<svg xmlns="http://www.w3.org/2000/svg" width="102.026" height="115.886"><defs><clipPath id="a"><path d="M57 71h44v44H57Zm0 0"/></clipPath><clipPath id="b"><path d="M100.125 93.168c0-11.742-9.516-21.258-21.258-21.258s-21.262 9.516-21.262 21.258 9.52 21.262 21.262 21.262 21.258-9.52 21.258-21.262m0 0"/></clipPath><clipPath id="c"><path d="M46 60h55.54v55.828H46Zm0 0"/></clipPath><clipPath id="d"><path d="M.91 71.91h42.524v42.52H.91Zm0 0"/></clipPath><clipPath id="e"><path d="M203.637 168.336c0-58.711-47.59-106.3-106.301-106.3-58.707 0-106.297 47.589-106.297 106.3 0 58.707 47.59 106.3 106.297 106.3 58.71 0 106.3-47.593 106.3-106.3m0 0"/></clipPath><clipPath id="f"><path d="M.91 71.91h42.524v42.52H.91Zm0 0"/></clipPath><clipPath id="g"><path d="M.91 71.91h42.524V112H.91Zm0 0"/></clipPath></defs><path fill="none" stroke="#7F7F7F" stroke-miterlimit="10" stroke-width=".199" d="M.91 57.734h85.043M.91 29.391h85.043M.91 1.05h85.043M.91 57.734V1.043m28.348 56.691V1.043m28.347 56.691V1.043m28.336 56.691V1.043"/><path fill="none" stroke="#000" stroke-miterlimit="10" stroke-width=".399" d="M.91 57.734h2.102v-2.097h2.097v2.097h2.102v-2.097H5.113v-2.102h2.098v-2.097h2.101v-2.102h2.098v2.102h2.102v2.097h2.097v2.102h-2.097v2.097h2.097v-2.097h2.102v2.097h2.098v-2.097H17.71v-2.102h2.098v-2.097H17.71v2.097h-2.102v-2.097h-2.097v-2.102H11.41v-2.098h2.102v-2.101h2.097v-2.098h2.102v2.098h2.098v-2.098H17.71v-2.102h2.098V38.84h2.101v-2.102h2.098v2.102h2.101v-2.102h-2.101v-2.097h2.101v-2.102h2.098v-2.098h2.102v2.098h2.097v2.102h2.102v2.097h-2.102v2.102h2.102v-2.102h2.097v2.102h2.102v2.097h2.102v2.102h-2.102v2.098h2.102v-2.098h2.097v2.098h2.102v2.101h2.097v2.098h-2.097v2.102h-2.102v2.097H40.81v-2.097h-2.102v2.097h2.102v2.102h-2.102v2.097h2.102v-2.097h2.097v2.097h2.102v-2.097h-2.102v-2.102h2.102v-2.097h2.097v-2.102h2.102v2.102h2.098v2.097h2.101v2.102h-2.101v2.097h2.101v-2.097h2.098v2.097h2.101"/><path fill="none" stroke="#00F" stroke-miterlimit="10" stroke-width=".199" d="M53.355 49.23a7.088 7.088 0 1 0-14.177.006 7.088 7.088 0 0 0 14.177-.006Zm0 0"/><g clip-path="url(#a)"><g fill="none" stroke-miterlimit="10" clip-path="url(#b)"><path stroke="#7F7F7F" stroke-width=".597" d="M-57.2 118.68h255.122M-57.2 33.64h255.12M-57.198-51.37h255.12m-255.12 170.05V-51.397M27.84 118.68V-51.398m85.039 170.078V-51.398M197.89 118.68V-51.398"/><path stroke="#000" stroke-width="1.197" d="M-57.2 118.68h6.298v-6.297h6.3v6.297h6.297v-6.297h-6.297v-6.301h6.297v-6.297h6.301v-6.3h6.3v6.3h6.298v6.297h6.3v6.3h-6.3v6.298h6.3v-6.297h6.297v6.297h6.301v-6.297h-6.297v-6.301h6.297v-6.297h-6.297v6.297h-6.3v-6.297h-6.301v-6.3h-6.297v-6.297h6.297v-6.301h6.3v-6.301h6.297v6.3h6.301v-6.3h-6.3v-6.297h6.3v-6.3h6.301V55.69h6.297v6.297h6.3v-6.297h-6.3v-6.3h6.3V43.09h6.297v-6.297h6.301v6.297h6.297v6.3h6.3v6.298h-6.3v6.3h6.3v-6.3h6.302v6.3h6.297v6.301h6.3v6.297h-6.3v6.3h6.3v-6.3h6.301v6.3h6.297v6.298h6.3v6.3h-6.3v6.297h-6.297v6.301h-6.3v-6.3h-6.301v6.3h6.3v6.3h-6.3v6.298h6.3v-6.297h6.301v6.297h6.297v-6.297h-6.297v-6.301h6.297v-6.297h6.3v-6.3h6.302v6.3h6.296v6.297h6.301v6.3h-6.3v6.298h6.3v-6.297h6.301v6.297h6.297"/></g></g><g clip-path="url(#c)"><path fill="none" stroke="#00F" stroke-miterlimit="10" stroke-width=".797" d="M100.125 93.168c0-11.742-9.516-21.258-21.258-21.258s-21.262 9.516-21.262 21.258 9.52 21.262 21.262 21.262 21.258-9.52 21.258-21.262Zm0 0"/></g><path fill="none" stroke="#00F" stroke-miterlimit="10" stroke-width=".399" d="M50.488 54.922 66.2 76.098"/><path fill="none" stroke="red" stroke-miterlimit="10" stroke-width=".199" d="M68.086 73.883h-8.504v8.504h8.504Zm0 0"/><g clip-path="url(#d)"><g fill="none" stroke-miterlimit="10" clip-path="url(#e)"><path stroke="#7F7F7F" stroke-width="2.9850000000000003" d="M-582.992 295.895H692.613M-582.992-129.31H692.613m-1275.605-425.05H692.613M-582.992 295.895v-850.407m425.203 850.407v-850.407m425.203 850.407v-850.407m425.05 850.407v-850.407"/><path stroke="#000" stroke-width="5.985" d="M-582.992 295.895h31.496v-31.497h31.492v31.497h31.5v-31.497H-520v-31.492h31.496v-31.5h31.492v-31.492h31.496v31.492h31.496v31.496h31.497v31.496h-31.497v31.497h31.497v-31.497h31.496v31.497h31.5v-31.497h-31.496v-31.492h31.496v-31.5h-31.496v31.496h-31.497v-31.496h-31.496v-31.492h-31.492v-31.496h31.492v-31.496h31.496V75.426h31.497v31.496h31.496V75.426h-31.496V43.93h31.496v-31.5h31.492v-31.493h31.496V12.43h31.496v-31.493h-31.492v-31.496h31.492v-31.496h31.496v-31.496h31.496v31.496h31.496v31.492h31.496v31.497h-31.496V12.43h31.496v-31.496h31.497V12.43h31.5v31.496H15.43v31.496h-31.492v31.496H15.43V75.422h31.496v31.496h31.496v31.492h31.496v31.496H78.422v31.496H46.926v31.496H15.434v-31.496h-31.496v31.496h31.496v31.5h-31.496v31.497h31.496v-31.497H46.93v31.497h31.496v-31.497H46.93v-31.496h31.496v-31.5h31.496v-31.496h31.496v31.496h31.5v31.496h31.496v31.5h-31.496v31.497h31.496v-31.497h31.5v31.497h31.5"/></g></g><g clip-path="url(#f)"><path fill="none" stroke="#00F" stroke-miterlimit="10" stroke-width="3.9850000000000003" d="M203.637 168.336c0-58.711-47.59-106.3-106.301-106.3-58.707 0-106.297 47.589-106.297 106.3 0 58.707 47.59 106.3 106.297 106.3 58.71 0 106.3-47.593 106.3-106.3Zm0 0"/></g><g clip-path="url(#g)"><path fill="none" stroke="#00F" stroke-miterlimit="10" stroke-width="1.995" d="M-44.543-22.898 34.004 82.969"/></g><path fill="none" stroke="red" stroke-miterlimit="10" stroke-width=".797" d="M.91 114.43h42.524V71.91H.91Zm0 0"/><path fill="none" stroke="red" stroke-miterlimit="10" stroke-width=".399" d="M59.582 79.672 43.434 85.5"/></svg>