<svg xmlns="http://www.w3.org/2000/svg" xmlns:xlink="http://www.w3.org/1999/xlink" width="78.219" height="78.302"><defs><path id="b" d="M5.516-.234c0-.235-.125-.235-.266-.235-.61-.015-.61-.14-.61-.375v-2.14c0-.891-.702-1.532-2.187-1.532-.562 0-1.781.047-1.781.922 0 .438.344.625.61.625.312 0 .624-.219.624-.625 0-.297-.187-.469-.218-.5a5 5 0 0 1 .718-.062c.75 0 1.11.422 1.11 1.172v.343c-.72.032-3.25.125-3.25 1.563C.266-.125 1.5.062 2.188.062c.796 0 1.265-.406 1.484-.828 0 .313 0 .766 1.047.766h.468c.204 0 .329 0 .329-.234m-2-1.157c0 .97-.922 1.094-1.172 1.094-.516 0-.906-.344-.906-.797 0-1.062 1.578-1.203 2.078-1.234Zm0 0"/><path id="c" d="M5.984-2.219c0-1.328-.937-2.265-2.39-2.265-.719 0-1.219.28-1.453.484v-2.922l-1.766.078v.469c.61 0 .688 0 .688.39V0h.468c.157-.187.328-.375.485-.562.078.078.562.625 1.453.625 1.484 0 2.515-.907 2.515-2.282m-1.28 0c0 .469 0 1.016-.25 1.406-.298.407-.75.516-1.079.516-.687 0-1.078-.547-1.187-.687v-2.5c.28-.36.75-.641 1.296-.641 1.22 0 1.22 1.203 1.22 1.906m0 0"/><path id="e" d="M4.766-1.172c0-.14-.141-.14-.235-.14-.187 0-.187.03-.25.156-.25.625-.734.812-1.234.812-1.39 0-1.39-1.453-1.39-1.922 0-.562 0-1.843 1.28-1.843.36 0 .516.015.657.046a.62.62 0 0 0-.203.47c0 .437.343.624.609.624.313 0 .64-.219.64-.625 0-.86-1.156-.922-1.734-.922C1.11-4.516.375-3.375.375-2.219.375-.89 1.313.063 2.844.063c1.625 0 1.922-1.157 1.922-1.235m0 0"/><clipPath id="a"><path d="M0 54h26v23.953H0Zm0 0"/></clipPath><clipPath id="d"><path d="M54 0h23.828v26H54Zm0 0"/></clipPath></defs><g clip-path="url(#a)"><path fill="none" stroke="#000" stroke-miterlimit="10" stroke-width=".399" d="M20.078 68.48a8.27 8.27 0 1 0-16.54.002 8.27 8.27 0 0 0 16.54-.002Zm0 0"/></g><use xlink:href="#b" x="9.024" y="70.709"/><path fill="none" stroke="#000" stroke-miterlimit="10" stroke-width=".399" d="M49.578 40.137a9.422 9.422 0 0 0-18.844 0c0 5.199 4.22 9.418 9.422 9.418s9.422-4.22 9.422-9.418Zm0 0"/><use xlink:href="#c" x="36.972" y="43.563"/><g clip-path="url(#d)"><path fill="none" stroke="#000" stroke-miterlimit="10" stroke-width=".399" d="M76.621 11.79a8.118 8.118 0 1 0-16.236 0 8.118 8.118 0 0 0 16.236 0Zm0 0"/></g><use xlink:href="#e" x="65.957" y="14.016"/><path fill="none" stroke="#000" stroke-miterlimit="10" stroke-width=".399" d="M5.82 62.492c-11.422-10.785 16.11-39.945 27.535-29.16"/><path fill="none" stroke="#000" stroke-miterlimit="10" stroke-width=".399" d="M5.82 62.492C-16.254 40.336 40.547-16.25 62.621 5.906"/></svg>