<svg xmlns="http://www.w3.org/2000/svg" xmlns:xlink="http://www.w3.org/1999/xlink" width="93.926" height="58.988"><defs><path id="c" d="m3.219-2.375-.172-.5-.438.14.172.485c.203.64-.031.969-.297 1.063-.546.171-.75-.438-.812-.641l-.875-2.61 1.39-.453-.14-.437-1.39.453-.61-1.812-.453.156c.312.953.172 2.031-.766 2.375l.11.343.796-.265.86 2.594c.344 1.015 1.219.953 1.89.718.72-.234.97-.921.735-1.609m0 0"/><path id="d" d="m2.703-.906-.14-.438-.579.203-1.28-3.812-1.626.61.14.452c.563-.187.626-.203.75.172L.954-.797l-.656.219.14.437 1.141-.421ZM.343-6.484a.77.77 0 0 0-.984-.5.786.786 0 0 0-.5 1c.125.39.579.593.985.468a.785.785 0 0 0 .5-.968m0 0"/><path id="e" d="M4.969-4C4.547-5.25 3.39-5.86 2.03-5.406a2.5 2.5 0 0 0-1.265.937l-.157-.453-1.64.61.14.453c.579-.188.657-.22.782.14l1.593 4.766-.656.219.14.453 1.188-.422 1.188-.36-.14-.453-.657.22-.594-1.766c.516.187.969.156 1.36.03C4.734-1.515 5.406-2.686 4.969-4m-1.203.406c.453 1.344-.063 2.047-.672 2.25-.14.047-.578.188-1.188-.172-.14-.093-.14-.109-.203-.28l-.656-2c-.063-.188-.063-.22.031-.376.234-.516.719-.75.938-.828.609-.203 1.343.203 1.75 1.406m0 0"/><clipPath id="a"><path d="M0 23h92v35.98H0Zm0 0"/></clipPath><clipPath id="b"><path d="M78 25h15.89v9H78Zm0 0"/></clipPath></defs><path fill="none" stroke="#7F7F7F" stroke-miterlimit="10" stroke-width=".199" d="M1.07 57.785h85.043M1.07 29.441h85.043M1.07 1.101h85.043M1.07 57.786V1.094m28.348 56.691V1.094m28.348 56.691V1.094m28.336 56.691V1.094"/><g clip-path="url(#a)"><path fill="none" stroke="#000" stroke-miterlimit="10" stroke-width=".399" d="m1.07 57.785 85.043-28.344"/></g><g clip-path="url(#b)"><use xlink:href="#c" x="80.246" y="33.973"/><use xlink:href="#d" x="84.471" y="32.565"/><use xlink:href="#e" x="87.485" y="31.56"/></g></svg>