<svg xmlns="http://www.w3.org/2000/svg" xmlns:xlink="http://www.w3.org/1999/xlink" width="322.472" height="265.052"><defs><path id="a" d="M4.922 0v-.469h-1.39v-5.734c0-.234 0-.328-.266-.328-.11 0-.125 0-.22.078-.765.562-1.796.562-2 .562H.845v.47h.203c.156 0 .703-.016 1.297-.204v5.156H.954V0c.437-.031 1.5-.031 1.984-.031s1.546 0 1.984.031m0 0"/><path id="b" d="M5.25-3.281c0-.672 0-3.25-2.375-3.25-1.406 0-2.39.812-2.39 2.14 0 1.375.984 2.125 2.203 2.125.359 0 .828-.062 1.203-.765v.219c0 .734-.094 1.312-.235 1.656-.172.39-.61.843-1.297.843-.171 0-.53-.03-.828-.218.11-.031.485-.172.485-.625 0-.344-.235-.625-.625-.625-.391 0-.625.265-.625.64 0 .688.515 1.25 1.609 1.25C3.672.11 5.25-.734 5.25-3.28m-1.375-.985c0 .625-.25 1.641-1.094 1.641-.953 0-.953-.75-.953-1.734 0-.985 0-1.782 1.078-1.782.578 0 .813.532.86.625.109.329.109.907.109 1.25m0 0"/><path id="c" d="M5.563-6.422H3.53c-.234 0-1.703-.047-1.844-.094-.203-.03-.218-.125-.234-.218H.984l-.343 2.53h.468c.094-.765.22-.89.266-.905.11-.063.922-.063 1.094-.063H4.14c-.172.219-.36.422-.547.64-.953 1.126-1.672 2.47-1.672 3.938 0 .703.562.703.625.703.156 0 .625-.046.625-.703v-.468c0-.47.031-.954.094-1.422.093-.672.297-1.25.656-1.657l1.547-1.796c.093-.11.093-.141.093-.485m0 0"/><path id="d" d="M5.156-2.219h-.468c-.032.203-.125.844-.266.906-.11.063-.86.063-1.016.063H1.937c.47-.39 1-.812 1.438-1.14 1.14-.844 1.781-1.313 1.781-2.25 0-1.157-1.047-1.891-2.437-1.891-1.219 0-2.156.625-2.156 1.515 0 .594.484.735.718.735C1.61-4.281 2-4.5 2-5c0-.516-.422-.672-.562-.719.28-.234.671-.343 1.03-.343.845 0 1.313.671 1.313 1.421 0 .688-.375 1.375-1.078 2.079l-2 2.046c-.14.11-.14.141-.14.344V0h4.28Zm0 0"/><path id="e" d="M5.25-2.047c0-1.39-1.016-2.125-2.219-2.125-.219 0-.781 0-1.203.766v-.188c0-1.14.219-1.562.281-1.719.25-.468.782-.828 1.391-.828.172 0 .516.032.75.266a.595.595 0 0 0-.547.61c0 .343.235.624.625.624s.625-.265.625-.64c0-.625-.422-1.25-1.469-1.25-1.359 0-3 .86-3 3.375 0 .781.079 1.578.5 2.265.47.766 1.22 1 1.922 1C4.281.11 5.25-.703 5.25-2.047m-1.36-.015c0 1 0 1.75-1.015 1.75-.516 0-.781-.391-.86-.563-.156-.312-.156-1.031-.156-1.219 0-1.25.532-1.719 1.079-1.719.953 0 .953.75.953 1.75m0 0"/><path id="f" d="M5.25-1.86c0-1.077-.844-1.546-1.328-1.827.687-.36 1-.797 1-1.376 0-1.015-.906-1.468-2.047-1.468-1.375 0-2.078.797-2.078 1.75 0 .437.187 1.062.953 1.5C.922-2.906.484-2.344.484-1.61.484-.406 1.563.109 2.844.109 4.438.11 5.25-.766 5.25-1.859M4.172-5.046c0 .484-.25.813-.688 1.11l-1.5-.844c-.156-.078-.437-.25-.437-.594 0-.703.89-.766 1.297-.766.828 0 1.328.407 1.328 1.094m.219 3.734c0 .829-.938 1-1.516 1-.969 0-1.547-.515-1.547-1.296 0-.766.531-1.203.89-1.407l1.36.766c.438.25.813.453.813.938m0 0"/><path id="g" d="M5.281-3.187c0-.954-.015-3.344-2.422-3.344S.453-4.156.453-3.188c0 1 0 3.297 2.406 3.297 2.391 0 2.422-2.296 2.422-3.296M4-3.297c0 .563 0 1.469-.078 1.985-.14.921-.766 1.062-1.063 1.062-.359 0-.921-.219-1.046-.953-.094-.516-.094-1.547-.094-2.094 0-.719 0-1.375.078-1.89.125-.891.828-.985 1.062-.985.375 0 .782.188.97.625C4-5.172 4-4.109 4-3.297m0 0"/><path id="h" d="M5.406 0v-.469h-.968v-1.094h.968v-.468h-.968V-6.22c0-.265-.016-.328-.297-.328-.22 0-.22.016-.344.172L.313-2.031v.469h2.875V-.47h-1.11V0c.375-.031 1.281-.031 1.703-.031.406 0 1.266 0 1.625.031m-2.11-2.031H.845L3.297-5.11Zm0 0"/><path id="i" d="M4.36-6.11c0-.421-.36-.874-1.141-.874-.969 0-2.047.422-2.047 1.547v1.015h-.75v.469h.75V-.47H.484V0l1.25-.031c.375 0 1.016 0 1.375.031v-.469H2.25v-3.484h1.14v-.469H2.188v-1.016c0-1.093.75-1.187 1-1.187.047 0 .11 0 .172.031a.59.59 0 0 0-.234.485c0 .422.36.609.61.609.296 0 .624-.203.624-.61m0 0"/><path id="j" d="M6.125 0v-.469c-.61 0-.687 0-.687-.39v-3.625l-1.813.078v.468c.61 0 .688 0 .688.391v1.906c0 .813-.516 1.344-1.235 1.344-.781 0-.812-.25-.812-.797v-3.39l-1.813.078v.468c.61 0 .688 0 .688.391v2.328c0 1.063.797 1.282 1.797 1.282.25 0 .968 0 1.421-.782v.782Zm0 0"/><path id="k" d="M3.813-1.234v-.532h-.47v.516c0 .672-.327.906-.609.906-.578 0-.578-.64-.578-.86v-2.75h1.469v-.468H2.156v-1.906h-.469c0 1-.484 1.984-1.484 2.016v.359h.828v2.734c0 1.063.86 1.282 1.578 1.282.75 0 1.204-.579 1.204-1.297m0 0"/><path id="l" d="M4.406-3.672c0-.531-.531-.812-1.062-.812-.688 0-1.094.5-1.313 1.125v-1.125l-1.656.078v.468c.61 0 .688 0 .688.391v3.078H.375V0l1.25-.031C2-.031 2.641-.031 3 0v-.469h-.86v-1.75c0-.687.235-1.906 1.235-1.906 0 0-.187.172-.187.453 0 .406.328.61.609.61.297 0 .61-.204.61-.61m0 0"/><path id="m" d="M4.922-1.172c0-.172-.188-.172-.234-.172-.172 0-.188.047-.25.203-.204.485-.782.797-1.422.797-1.407 0-1.422-1.328-1.422-1.828h3.015c.22 0 .313 0 .313-.265 0-.313-.063-1.047-.563-1.547-.359-.36-.89-.532-1.578-.532C1.187-4.516.313-3.484.313-2.25c0 1.344 1 2.313 2.609 2.313 1.578 0 2-1.063 2-1.235M3.984-2.5h-2.39c.015-.39.031-.812.234-1.14.266-.391.672-.516.953-.516 1.172 0 1.188 1.312 1.203 1.656m0 0"/><path id="n" d="m7.547-4.328-.203-2.406H.625L.422-4.328H.89c.093-1.125.187-1.938 1.625-1.938h.765v5.797H1.75V0c.547-.031 1.656-.031 2.234-.031.594 0 1.704 0 2.235.031v-.469H4.687v-5.797h.766c1.422 0 1.531.797 1.625 1.938Zm0 0"/><path id="o" d="M6.125 0v-.469h-.687v-2.578c0-1.047-.532-1.437-1.532-1.437a1.9 1.9 0 0 0-1.687.953v-3.39l-1.766.077v.469c.61 0 .688 0 .688.39v5.516H.453V0l1.25-.031L2.953 0v-.469h-.687v-2.078c0-1.094.859-1.578 1.5-1.578.328 0 .547.203.547.969V-.47h-.688V0l1.25-.031Zm0 0"/><path id="p" d="M5.406-2.172c0-1.344-.922-2.344-2.547-2.344C1.22-4.516.313-3.5.313-2.172c0 1.235.89 2.235 2.546 2.235 1.672 0 2.547-1.016 2.547-2.235m-1.281-.11c0 .86 0 1.938-1.266 1.938-1.265 0-1.265-1.078-1.265-1.937 0-.453 0-.953.172-1.297.187-.375.609-.578 1.093-.578.422 0 .844.156 1.063.5.203.344.203.89.203 1.375m0 0"/><path id="q" d="M9.328 0v-.469h-.687v-2.578c0-1.031-.516-1.437-1.547-1.437-.907 0-1.422.5-1.688.953-.187-.922-1.11-.953-1.484-.953-.875 0-1.438.453-1.766 1.078v-1.078l-1.703.078v.468c.61 0 .688 0 .688.391v3.078H.453V0l1.25-.031L2.953 0v-.469h-.687v-2.078c0-1.094.875-1.578 1.5-1.578.328 0 .547.203.547.969V-.47h-.688V0l1.266-.031L6.14 0v-.469h-.688v-2.078c0-1.094.86-1.578 1.484-1.578.344 0 .563.203.563.969V-.47h-.687V0l1.25-.031Zm0 0"/><path id="r" d="M5.984-2.219c0-1.328-.906-2.265-2.343-2.265-.75 0-1.282.312-1.5.484v-.484l-1.766.078v.468c.61 0 .688 0 .688.376v5.03H.375v.47l1.25-.032 1.25.032v-.47h-.687V-.39a2 2 0 0 0 1.28.454c1.5 0 2.516-.907 2.516-2.282m-1.28 0C4.703-.813 4-.297 3.358-.297c-.14 0-.609 0-1.062-.547-.11-.125-.11-.14-.11-.328v-2.11c0-.187.016-.202.157-.343.39-.406.922-.469 1.14-.469.657 0 1.22.61 1.22 1.875m0 0"/><path id="s" d="M4.14-1.39c0-.438-.202-.782-.546-1.063-.39-.281-.719-.344-1.485-.485-.375-.062-1.015-.171-1.015-.64 0-.625.922-.625 1.11-.625.75 0 1.124.297 1.171.844.016.156.031.203.234.203.235 0 .235-.047.235-.281v-.797c0-.188 0-.282-.172-.282-.047 0-.063 0-.453.188-.266-.125-.61-.188-1-.188-.313 0-1.844 0-1.844 1.313 0 .39.203.656.406.828.39.344.782.406 1.547.547.36.062 1.094.187 1.094.781 0 .75-.906.75-1.125.75C1.234-.297.984-1.03.859-1.453c-.046-.14-.109-.14-.234-.14-.25 0-.25.062-.25.28v1.094c0 .188 0 .282.188.282.062 0 .078 0 .296-.157l.25-.172c.47.329.985.329 1.188.329.312 0 1.844 0 1.844-1.454m0 0"/><path id="t" d="M6.125 0v-.469h-.687v-2.578c0-1.047-.532-1.437-1.532-1.437-.953 0-1.484.562-1.75 1.078v-1.078l-1.703.078v.468c.61 0 .688 0 .688.391v3.078H.453V0l1.25-.031L2.953 0v-.469h-.687v-2.078c0-1.094.859-1.578 1.5-1.578.328 0 .547.203.547.969V-.47h-.688V0l1.25-.031Zm0 0"/><path id="u" d="M10.484 0v-.469H9.406v-5.906h1.078v-.469H8.281c-.219 0-.344 0-.453.25l-2.39 5.282-2.391-5.282c-.11-.25-.219-.25-.438-.25H.406v.469H1.47V-.75c0 .219 0 .219-.282.25-.234.031-.265.031-.546.031H.406V0c.375-.031.938-.031 1.328-.031.422 0 .938 0 1.344.031v-.469h-.25c-.172 0-.344-.015-.531-.031C2.016-.531 2-.531 2-.75v-5.484h.016L4.719-.25c.093.203.218.25.328.25.203 0 .281-.156.312-.234l2.782-6.141h.015v5.906H7.078V0c.36-.031 1.281-.031 1.688-.031.422 0 1.359 0 1.718.031m0 0"/><path id="v" d="M5.516-.234c0-.235-.125-.235-.266-.235-.61-.015-.61-.14-.61-.375v-2.14c0-.891-.702-1.532-2.187-1.532-.562 0-1.781.047-1.781.922 0 .438.344.625.61.625.312 0 .624-.219.624-.625 0-.297-.187-.469-.218-.5a5 5 0 0 1 .718-.062c.75 0 1.11.422 1.11 1.172v.343c-.72.032-3.25.125-3.25 1.563C.266-.125 1.5.062 2.188.062c.796 0 1.265-.406 1.484-.828 0 .313 0 .766 1.047.766h.468c.204 0 .329 0 .329-.234m-2-1.157c0 .97-.922 1.094-1.172 1.094-.516 0-.906-.344-.906-.797 0-1.062 1.578-1.203 2.078-1.234Zm0 0"/><path id="w" d="M5.781-3.953v-.469A13 13 0 0 1 5-4.39l-.906-.03v.468s.468 0 .468.11L4.5-3.72 3.36-1.266 2.093-3.953h.531v-.469l-1.234.031-1.125-.03v.468H.89L2.766 0 2.53.484C2.312.954 2 1.641 1.281 1.641c-.14 0-.156-.016-.234-.047.094-.032.312-.172.312-.532C1.36.734 1.125.5.781.5a.553.553 0 0 0-.562.578c0 .5.469.922 1.062.922.766 0 1.344-.625 1.625-1.187l2.14-4.563c.063-.14.095-.203.735-.203m0 0"/><path id="x" d="M7.5-1.86c0-.952-.844-1.624-2.031-1.702 1.078-.204 1.718-.797 1.718-1.563 0-.922-.875-1.719-2.468-1.719H.39v.469h1.078v5.906H.39V0h4.625C6.672 0 7.5-.875 7.5-1.86M5.766-5.124c0 .766-.47 1.39-1.438 1.39H2.766v-2.64h1.812c1.016 0 1.188.797 1.188 1.25m.28 3.266c0 .109 0 1.39-1.437 1.39H2.766v-2.906h1.937c.203 0 .672 0 1.016.422.328.422.328.984.328 1.094m0 0"/><path id="y" d="m6.734-4.375-.312-2.406H.39v.468h1.078v5.844H.39V0c.375-.031 1.39-.031 1.828-.031.484 0 1.562 0 2.015.031v-.469H2.875v-2.687h.5c.969 0 1.047.422 1.047 1.156h.469v-2.797h-.47c0 .734-.077 1.172-1.046 1.172h-.5v-2.687h1.406c1.594 0 1.828.765 1.985 1.937Zm0 0"/><path id="z" d="M2.922 0v-.469h-.688v-6.453L.47-6.844v.469c.625 0 .687 0 .687.39v5.516H.47V0l1.219-.031Zm0 0"/><path id="A" d="M4.766-1.172c0-.14-.141-.14-.235-.14-.187 0-.187.03-.25.156-.25.625-.734.812-1.234.812-1.39 0-1.39-1.453-1.39-1.922 0-.562 0-1.843 1.28-1.843.36 0 .516.015.657.046a.62.62 0 0 0-.203.47c0 .437.343.624.609.624.313 0 .64-.219.64-.625 0-.86-1.156-.922-1.734-.922C1.11-4.516.375-3.375.375-2.219.375-.89 1.313.063 2.844.063c1.625 0 1.922-1.157 1.922-1.235m0 0"/><path id="B" d="M5.781-3.953v-.469c-.25.016-.531.031-.781.031l-.906-.03v.468c.187 0 .468.031.468.11 0 0 0 .015-.046.109l-1.157 2.5-1.265-2.72h.531v-.468l-1.234.031-1.125-.03v.468H.89l1.75 3.75c.125.25.25.25.375.25.172 0 .28-.031.375-.25L5.047-3.75c.062-.14.094-.203.734-.203m0 0"/><path id="C" d="M5.86 0v-.469h-.173c-.437 0-.468-.047-.593-.203L3.406-2.766 4.703-3.78c.14-.11.234-.172.906-.172v-.469c-.28.031-.53.031-.78.031l-1.157-.03v.468c.234 0 .265.031.344.11L2.14-2.36v-4.563l-1.766.078v.469c.61 0 .688 0 .688.39v5.516H.375V0l1.188-.031L2.766 0v-.469h-.688v-1.265c.297-.235.375-.297.578-.422l1 1.25c.094.125.25.312.25.344 0 .093-.172.093-.312.093V0a53 53 0 0 1 1.219-.031c.359 0 .703.015 1.046.031m0 0"/><path id="D" d="M5.719-2.031c0-1.094-.797-1.906-1.719-2.094l-1.437-.312c-.407-.094-.954-.422-.954-1.032 0-.437.282-1.047 1.266-1.047.797 0 1.813.329 2.047 1.688.031.25.031.266.234.266.25 0 .25-.047.25-.282v-1.828c0-.187 0-.281-.187-.281-.078 0-.078.016-.188.11l-.453.437C4-6.86 3.344-6.953 2.875-6.953c-1.516 0-2.234.969-2.234 2.016 0 .64.328 1.093.53 1.312.5.5.829.563 1.923.797.875.203 1.047.219 1.265.437.141.141.391.407.391.86 0 .484-.25 1.172-1.297 1.172-.75 0-2.265-.203-2.344-1.688-.015-.172-.015-.219-.234-.219-.234 0-.234.047-.234.282v1.812C.64.016.64.11.813.11.906.11.922.094 1 .016l.469-.453c.656.484 1.578.546 1.984.546C5.11.11 5.72-1.016 5.72-2.03m0 0"/><path id="E" d="M3.172-1.734v-.97H.125v.97Zm0 0"/><path id="F" d="M8.39-6.375v-.469l-1.124.032c-.391 0-.922 0-1.297-.032v.469c.078 0 .875 0 .875.125 0 .047-.032.094-.047.125L4.78-1.594 2.656-6.375h.938v-.469c-.375.032-1.328.032-1.766.032-.375 0-1.219 0-1.562-.032v.469h.906l2.75 6.203c.078.172.125.25.406.25.156 0 .281 0 .39-.234l2.657-6c.063-.125.11-.219.828-.219Zm0 0"/><path id="G" d="M2.844 0v-.469h-.61v-4.015L.5-4.406v.468c.594 0 .656 0 .656.391v3.078H.47V0l1.219-.031Zm-.469-6.047a.774.774 0 0 0-.781-.781.784.784 0 0 0-.782.781c0 .422.36.766.782.766a.77.77 0 0 0 .781-.766m0 0"/><path id="H" d="M8.5 0v-.469h-.297c-.531 0-.562-.047-.672-.203L4.828-4.203l2.406-1.984c.22-.188.625-.188.938-.188h.156v-.469c-.39.032-.969.032-1.015.032-.375 0-1.094 0-1.454-.032v.469c.125 0 .329 0 .579.063.156.03.046.015.125.046L2.875-3.187v-3.188h1.078v-.469c-.375.032-1.344.032-1.781.032-.422 0-1.406 0-1.781-.032v.469h1.078v5.906H.39V0C.766-.031 1.75-.031 2.17-.031c.438 0 1.407 0 1.782.031v-.469H2.875v-2.093l1-.829L5.938-.687c.046.062.046.078.078.14-.188.078-.391.078-.735.078V0c.407-.031 1.313-.031 1.75-.031.407 0 1.094 0 1.469.031m0 0"/><path id="I" d="M7.188-4.89c0-1.094-.985-1.954-2.641-1.954H.39v.469h1.078v5.906H.39V0C.766-.031 1.75-.031 2.17-.031c.438 0 1.407 0 1.782.031v-.469H2.875v-2.547h1.766c1.39 0 2.547-.718 2.547-1.875m-1.532 0c0 .702 0 1.468-1.5 1.468H2.828v-2.953h1.344c1.484 0 1.484.766 1.484 1.484m0 0"/><path id="J" d="M7.969-3.375c0-2.156-1.453-3.578-3.657-3.578-2.28 0-3.671 1.484-3.671 3.578C.64-1.312 2.03.109 4.297.109c2.297 0 3.672-1.437 3.672-3.484m-1.532-.156c0 .703-.03 1.594-.453 2.281a1.97 1.97 0 0 1-1.687.938 1.94 1.94 0 0 1-1.719-1.032c-.328-.625-.422-1.328-.422-2.187 0-.64.031-1.485.469-2.156a2.01 2.01 0 0 1 1.672-.86c.64 0 1.328.281 1.719.938.39.64.422 1.406.422 2.078m0 0"/><path id="K" d="M4.016 0v-.469H2.875v-5.906h1.14v-.469c-.406.032-1.39.032-1.843.032s-1.438 0-1.844-.032v.469h1.14v5.906H.329V0c.406-.031 1.39-.031 1.844-.031.453 0 1.437 0 1.844.031m0 0"/><path id="L" d="M8.328 0v-.469h-.984L4.828-3.953 6.5-6.156c.11-.14.125-.157.469-.188.234-.031.297-.031.578-.031h.281v-.469c-.406.032-.906.032-1.328.032-.39 0-1.156 0-1.516-.032v.469c.172 0 .563 0 .922.11-.015.03-.062.077-.078.109L4.5-4.406 3.078-6.375h.828v-.469c-.406.032-1.36.032-1.797.032-.406 0-1.265 0-1.625-.032v.469h.985l2.203 3.063-2 2.64c-.094.125-.11.14-.438.172-.203.016-.406.031-.609.031H.344V0c.406-.031.906-.031 1.328-.031.39 0 1.156 0 1.516.031v-.469c-.172 0-.563 0-.922-.11.015-.015.062-.077.093-.109L4-2.874 5.734-.469h-.828V0c.407-.031 1.36-.031 1.797-.031.406 0 1.266 0 1.625.031m0 0"/></defs><path fill="none" stroke="#000" stroke-miterlimit="10" stroke-width=".399" d="M15.64 11.883v14.062"/><path fill="none" stroke="#000" stroke-linecap="round" stroke-linejoin="round" stroke-miterlimit="10" stroke-width=".399" d="M18.031 24.074c-1.433.38-2.113 1.223-2.39 2.07-.282-.847-.957-1.69-2.391-2.07"/><path fill="none" stroke="#000" stroke-miterlimit="10" stroke-width=".399" d="M15.64 40.23v14.063"/><path fill="none" stroke="#000" stroke-linecap="round" stroke-linejoin="round" stroke-miterlimit="10" stroke-width=".399" d="M18.031 52.422c-1.433.375-2.113 1.219-2.39 2.07-.282-.851-.957-1.695-2.391-2.07"/><path fill="none" stroke="#000" stroke-miterlimit="10" stroke-width=".399" d="M15.64 68.574v14.172"/><path fill="none" stroke="#000" stroke-linecap="round" stroke-linejoin="round" stroke-miterlimit="10" stroke-width=".399" d="M18.031 80.871c-1.433.379-2.113 1.223-2.39 2.074-.282-.851-.957-1.695-2.391-2.074"/><path fill="none" stroke="#000" stroke-miterlimit="10" stroke-width=".399" d="M15.64 96.816v14.274"/><path fill="none" stroke="#000" stroke-linecap="round" stroke-linejoin="round" stroke-miterlimit="10" stroke-width=".399" d="M18.031 109.219c-1.433.379-2.113 1.222-2.39 2.07-.282-.848-.957-1.691-2.391-2.07"/><path fill="none" stroke="#000" stroke-miterlimit="10" stroke-width=".399" d="M15.64 125.164v14.27"/><path fill="none" stroke="#000" stroke-linecap="round" stroke-linejoin="round" stroke-miterlimit="10" stroke-width=".399" d="M18.031 137.559c-1.433.379-2.113 1.222-2.39 2.074-.282-.852-.957-1.696-2.391-2.074"/><path fill="none" stroke="#000" stroke-miterlimit="10" stroke-width=".399" d="M15.64 153.516v14.27"/><path fill="none" stroke="#000" stroke-linecap="round" stroke-linejoin="round" stroke-miterlimit="10" stroke-width=".399" d="M18.031 165.91c-1.433.38-2.113 1.223-2.39 2.074-.282-.851-.957-1.695-2.391-2.074"/><path fill="none" stroke="#000" stroke-miterlimit="10" stroke-width=".399" d="M15.64 181.86v14.273"/><path fill="none" stroke="#000" stroke-linecap="round" stroke-linejoin="round" stroke-miterlimit="10" stroke-width=".399" d="M18.031 194.258c-1.433.379-2.113 1.222-2.39 2.074-.282-.852-.957-1.695-2.391-2.074"/><path fill="none" stroke="#000" stroke-miterlimit="10" stroke-width=".399" d="M15.64 210.207v14.27"/><path fill="none" stroke="#000" stroke-linecap="round" stroke-linejoin="round" stroke-miterlimit="10" stroke-width=".399" d="M18.031 222.605c-1.433.38-2.113 1.223-2.39 2.075-.282-.852-.957-1.696-2.391-2.075"/><path fill="none" stroke="#000" stroke-miterlimit="10" stroke-width=".399" d="M15.64 238.55v14.075"/><path fill="none" stroke="#000" stroke-linecap="round" stroke-linejoin="round" stroke-miterlimit="10" stroke-width=".399" d="M18.031 250.754c-1.433.379-2.113 1.223-2.39 2.07-.282-.847-.957-1.691-2.391-2.07"/><path fill="none" stroke="#000" stroke-miterlimit="10" stroke-width=".399" d="m187.75 64.934 83.32 23.945c2.118.61 3.832 2.887 3.832 5.086v45.305"/><path fill="none" stroke="#000" stroke-linecap="round" stroke-linejoin="round" stroke-miterlimit="10" stroke-width=".399" d="M277.293 137.395c-1.434.378-2.113 1.222-2.39 2.074-.282-.852-.958-1.696-2.391-2.074"/><path fill="none" stroke="#000" stroke-miterlimit="10" stroke-width=".399" d="m143.75 12.883-28.336 12.273"/><path fill="none" stroke="#000" stroke-linecap="round" stroke-linejoin="round" stroke-miterlimit="10" stroke-width=".39897606" d="M118.082 26.605c-.918-1.168-1.96-1.453-2.852-1.37.668-.594 1.176-1.551.95-3.016"/><path fill="none" stroke="#000" stroke-miterlimit="10" stroke-width=".399" d="m158.121 12.883-6.539 13.082"/><path fill="none" stroke="#000" stroke-linecap="round" stroke-linejoin="round" stroke-miterlimit="10" stroke-width=".39896808000000006" d="M154.559 25.36c-1.454-.305-2.438.148-3.067.78.133-.882-.097-1.94-1.21-2.921"/><path fill="none" stroke="#000" stroke-miterlimit="10" stroke-width=".399" d="m166.066 12.883 8.418 16.84c.985 1.968 1.782 5.347 1.782 7.55v16.954"/><path fill="none" stroke="#000" stroke-linecap="round" stroke-linejoin="round" stroke-miterlimit="10" stroke-width=".399" d="M178.656 52.355c-1.433.38-2.11 1.223-2.39 2.07-.278-.847-.953-1.69-2.391-2.07"/><path fill="none" stroke="#000" stroke-miterlimit="10" stroke-width=".399" d="M310.125 153.707v43.457"/><path fill="none" stroke="#000" stroke-linecap="round" stroke-linejoin="round" stroke-miterlimit="10" stroke-width=".399" d="M312.516 195.29c-1.434.378-2.11 1.222-2.391 2.073-.277-.851-.957-1.695-2.39-2.074"/><path fill="none" stroke="#000" stroke-miterlimit="10" stroke-width=".399" d="M147.922 40.254v70.668"/><path fill="none" stroke="#000" stroke-linecap="round" stroke-linejoin="round" stroke-miterlimit="10" stroke-width=".399" d="M150.313 109.05c-1.438.376-2.114 1.22-2.391 2.071-.281-.851-.957-1.695-2.395-2.07"/><path fill="none" stroke="#000" stroke-miterlimit="10" stroke-width=".399" d="M127.938 39.527 60.953 60.445c-2.098.657-3.8 2.973-3.8 5.172v16.957"/><path fill="none" stroke="#000" stroke-linecap="round" stroke-linejoin="round" stroke-miterlimit="10" stroke-width=".399" d="M59.543 80.703c-1.438.379-2.113 1.223-2.39 2.07-.282-.847-.958-1.691-2.391-2.07"/><path fill="none" stroke="#000" stroke-miterlimit="10" stroke-width=".399" d="m132.578 40.254-43.453 19.73c-2.004.91-3.512 3.43-3.367 5.625l1.117 16.965"/><path fill="none" stroke="#000" stroke-linecap="round" stroke-linejoin="round" stroke-miterlimit="10" stroke-width=".39898404" d="M89.14 80.55c-1.406.473-2.027 1.36-2.25 2.223-.335-.828-1.066-1.625-2.523-1.91"/><path fill="none" stroke="#000" stroke-miterlimit="10" stroke-width=".399" d="m168.219 39.293 71.695 21.21c2.11.626 3.82 2.915 3.82 5.114v44.324"/><path fill="none" stroke="#000" stroke-linecap="round" stroke-linejoin="round" stroke-miterlimit="10" stroke-width=".399" d="M246.125 108.066c-1.434.38-2.11 1.223-2.39 2.075-.278-.852-.958-1.696-2.391-2.075"/><path fill="none" stroke="#000" stroke-miterlimit="10" stroke-width=".399" d="m169.59 37.156 133.176 23.778c2.164.386 3.921 2.484 3.921 4.683v48.727c0 2.199.215 5.754.481 7.937l2.059 16.965"/><path fill="none" stroke="#000" stroke-linecap="round" stroke-linejoin="round" stroke-miterlimit="10" stroke-width=".39898404" d="M311.375 137.098c-1.379.55-1.953 1.468-2.125 2.347-.379-.812-1.152-1.566-2.625-1.77"/><path fill="none" stroke="#000" stroke-miterlimit="10" stroke-width=".399" d="m161.855 40.254 39.196 19.598c1.969.984 3.562 3.566 3.562 5.765v20.38c0 2.198-.21 5.753-.472 7.94l-2.453 20.434a124 124 0 0 1-1.254 7.863l-4.114 20.532c-.433 2.16-.96 5.683-1.18 7.875l-2.042 20.414c-.22 2.191-.575 5.742-.797 7.93l-2.043 20.417c-.219 2.192-.399 5.75-.399 7.95v16.957"/><path fill="none" stroke="#000" stroke-linecap="round" stroke-linejoin="round" stroke-miterlimit="10" stroke-width=".399" d="M192.254 222.438c-1.438.378-2.113 1.222-2.395 2.07-.277-.848-.953-1.692-2.39-2.07"/><path fill="none" stroke="#000" stroke-miterlimit="10" stroke-width=".399" d="m171.629 181.395 42.976 20.273c1.989.937 2.34 2.96.786 4.516l-18.243 18.242"/><path fill="none" stroke="#000" stroke-linecap="round" stroke-linejoin="round" stroke-miterlimit="10" stroke-width=".39899601" d="M200.164 224.793c-1.281-.746-2.355-.629-3.156-.227.406-.796.523-1.875-.223-3.156"/><path fill="none" stroke="#000" stroke-miterlimit="10" stroke-width=".399" d="m166.008 210.414 15.71 14.027"/><path fill="none" stroke="#000" stroke-linecap="round" stroke-linejoin="round" stroke-miterlimit="10" stroke-width=".39897606" d="M181.914 221.41c-.676 1.324-.496 2.39-.047 3.164-.82-.355-1.902-.414-3.14.403"/><path fill="none" stroke="#000" stroke-miterlimit="10" stroke-width=".399" d="m68.668 93.578 66.98 20.918"/><path fill="none" stroke="#000" stroke-linecap="round" stroke-linejoin="round" stroke-miterlimit="10" stroke-width=".39898404" d="M134.57 111.652c-.066 1.485.54 2.383 1.266 2.903-.895.011-1.899.406-2.688 1.664"/><path fill="none" stroke="#000" stroke-miterlimit="10" stroke-width=".399" d="m98.578 95.23 37.77 17.68"/><path fill="none" stroke="#000" stroke-linecap="round" stroke-linejoin="round" stroke-miterlimit="10" stroke-width=".39898404" d="M135.664 109.95c-.266 1.46.211 2.429.863 3.042-.89-.105-1.941.149-2.89 1.29"/><path fill="none" stroke="#000" stroke-miterlimit="10" stroke-width=".399" d="M117.063 68.64 117.94 86c.11 2.2 1.493 5.21 3.086 6.727l19.243 18.32"/><path fill="none" stroke="#000" stroke-linecap="round" stroke-linejoin="round" stroke-miterlimit="10" stroke-width=".39898005000000003" d="M140.563 108.023c-.715 1.301-.57 2.372-.149 3.16-.809-.382-1.887-.476-3.148.301"/><path fill="none" stroke="#000" stroke-miterlimit="10" stroke-width=".399" d="M176.266 68.64v17.356c0 2.2-1.262 5.246-2.817 6.8l-18.242 18.243"/><path fill="none" stroke="#000" stroke-linecap="round" stroke-linejoin="round" stroke-miterlimit="10" stroke-width=".39899601" d="M158.223 111.406c-1.282-.746-2.356-.629-3.157-.226.407-.797.524-1.875-.222-3.157"/><path fill="none" stroke="#000" stroke-miterlimit="10" stroke-width=".399" d="m173.055 210.414 41.55 19.602c1.989.937 3.602 3.484 3.602 5.683v16.918"/><path fill="none" stroke="#000" stroke-linecap="round" stroke-linejoin="round" stroke-miterlimit="10" stroke-width=".399" d="M220.598 250.742c-1.434.38-2.11 1.223-2.391 2.074-.277-.851-.957-1.695-2.39-2.074"/><path fill="none" stroke="#000" stroke-miterlimit="10" stroke-width=".399" d="m244.531 126.316 1.63 16.391c.218 2.191.394 5.75.394 7.953v77.07c0 2.2-1.262 5.247-2.817 6.801l-18.203 18.203"/><path fill="none" stroke="#000" stroke-linecap="round" stroke-linejoin="round" stroke-miterlimit="10" stroke-width=".39899601" d="M228.55 253.098c-1.28-.746-2.355-.63-3.155-.223.406-.8.523-1.875-.223-3.156"/><path fill="none" stroke="#000" stroke-miterlimit="10" stroke-width=".399" d="m148.762 125.336 2.082 17.383c.261 2.183.89 5.691 1.406 7.832l4.094 17.074"/><path fill="none" stroke="#000" stroke-linecap="round" stroke-linejoin="round" stroke-miterlimit="10" stroke-width=".39897606" d="M158.23 165.246c-1.304.703-1.765 1.684-1.84 2.574-.468-.761-1.324-1.425-2.808-1.457"/><path fill="none" stroke="#000" stroke-miterlimit="10" stroke-width=".399" d="M158.117 182.027v13.895"/><path fill="none" stroke="#000" stroke-linecap="round" stroke-linejoin="round" stroke-miterlimit="10" stroke-width=".399" d="M160.508 194.05c-1.434.38-2.113 1.223-2.39 2.071-.278-.848-.958-1.691-2.391-2.07"/><path fill="none" stroke="#000" stroke-miterlimit="10" stroke-width=".399" d="m184.66 209.723 87.95 21.062c2.14.516 3.972 2.711 4.097 4.906l.941 16.926"/><path fill="none" stroke="#000" stroke-linecap="round" stroke-linejoin="round" stroke-miterlimit="10" stroke-width=".39898005000000003" d="M279.934 250.613c-1.41.457-2.043 1.34-2.274 2.203-.324-.832-1.047-1.636-2.5-1.937"/><path fill="none" stroke="#000" stroke-miterlimit="10" stroke-width=".399" d="m140.25 40.254-15.531 14.105"/><path fill="none" stroke="#000" stroke-linecap="round" stroke-linejoin="round" stroke-miterlimit="10" stroke-width=".39897207" d="M127.71 54.871c-1.241-.808-2.323-.742-3.14-.379.442-.777.614-1.847-.074-3.164"/><use xlink:href="#a" x="4.183" y="8.253"/><use xlink:href="#b" x="9.912" y="8.253"/><use xlink:href="#c" x="15.64" y="8.253"/><use xlink:href="#d" x="21.369" y="8.253"/><use xlink:href="#a" x="4.183" y="36.599"/><use xlink:href="#b" x="9.912" y="36.599"/><use xlink:href="#c" x="15.64" y="36.599"/><use xlink:href="#e" x="21.369" y="36.599"/><use xlink:href="#a" x="4.183" y="64.945"/><use xlink:href="#b" x="9.912" y="64.945"/><use xlink:href="#c" x="15.64" y="64.945"/><use xlink:href="#f" x="21.369" y="64.945"/><use xlink:href="#a" x="4.183" y="93.187"/><use xlink:href="#b" x="9.912" y="93.187"/><use xlink:href="#f" x="15.64" y="93.187"/><use xlink:href="#g" x="21.369" y="93.187"/><use xlink:href="#a" x="4.183" y="121.534"/><use xlink:href="#b" x="9.912" y="121.534"/><use xlink:href="#f" x="15.64" y="121.534"/><use xlink:href="#d" x="21.369" y="121.534"/><use xlink:href="#a" x="4.183" y="149.885"/><use xlink:href="#b" x="9.912" y="149.885"/><use xlink:href="#f" x="15.64" y="149.885"/><use xlink:href="#h" x="21.369" y="149.885"/><use xlink:href="#a" x="4.183" y="178.227"/><use xlink:href="#b" x="9.912" y="178.227"/><use xlink:href="#f" x="15.64" y="178.227"/><use xlink:href="#e" x="21.369" y="178.227"/><use xlink:href="#a" x="4.183" y="206.573"/><use xlink:href="#b" x="9.912" y="206.573"/><use xlink:href="#f" x="15.64" y="206.573"/><use xlink:href="#f" x="21.369" y="206.573"/><use xlink:href="#a" x="4.183" y="234.919"/><use xlink:href="#b" x="9.912" y="234.919"/><use xlink:href="#b" x="15.64" y="234.919"/><use xlink:href="#g" x="21.369" y="234.919"/><use xlink:href="#i" x=".313" y="263.515"/><use xlink:href="#j" x="3.81" y="263.515"/><use xlink:href="#k" x="10.176" y="263.515"/><use xlink:href="#j" x="14.629" y="263.515"/><use xlink:href="#l" x="20.995" y="263.515"/><use xlink:href="#m" x="25.718" y="263.515"/><use xlink:href="#n" x="135.795" y="7.431"/><use xlink:href="#o" x="143.765" y="7.431"/><use xlink:href="#p" x="150.131" y="7.431"/><use xlink:href="#q" x="155.86" y="7.431"/><use xlink:href="#r" x="165.404" y="7.431"/><use xlink:href="#s" x="171.77" y="7.431"/><use xlink:href="#p" x="176.293" y="7.431"/><use xlink:href="#t" x="182.022" y="7.431"/><use xlink:href="#u" x="77.317" y="35.747"/><use xlink:href="#v" x="88.196" y="35.747"/><use xlink:href="#s" x="93.765" y="35.747"/><use xlink:href="#o" x="98.288" y="35.747"/><use xlink:href="#m" x="104.654" y="35.747"/><use xlink:href="#w" x="109.905" y="35.747"/><use xlink:href="#x" x="129.627" y="36.674"/><use xlink:href="#p" x="137.776" y="36.674"/><use xlink:href="#j" x="143.505" y="36.674"/><use xlink:href="#l" x="149.871" y="36.674"/><use xlink:href="#t" x="154.593" y="36.674"/><use xlink:href="#m" x="160.96" y="36.674"/><use xlink:href="#y" x="92.334" y="65.06"/><use xlink:href="#p" x="98.591" y="65.06"/><use xlink:href="#l" x="104.319" y="65.06"/><use xlink:href="#q" x="109.041" y="65.06"/><use xlink:href="#s" x="118.586" y="65.06"/><use xlink:href="#o" x="123.109" y="65.06"/><use xlink:href="#m" x="129.475" y="65.06"/><use xlink:href="#z" x="134.725" y="65.06"/><use xlink:href="#z" x="137.903" y="65.06"/><use xlink:href="#A" x="168.275" y="65.06"/><use xlink:href="#s" x="173.366" y="65.06"/><use xlink:href="#o" x="177.889" y="65.06"/><use xlink:href="#m" x="49.081" y="93.406"/><use xlink:href="#s" x="54.331" y="93.406"/><use xlink:href="#o" x="58.854" y="93.406"/><use xlink:href="#B" x="78.895" y="93.406"/><use xlink:href="#s" x="84.942" y="93.406"/><use xlink:href="#o" x="89.465" y="93.406"/><use xlink:href="#C" x="139.45" y="121.753"/><use xlink:href="#s" x="145.497" y="121.753"/><use xlink:href="#o" x="150.02" y="121.753"/><use xlink:href="#D" x="219.404" y="120.801"/><use xlink:href="#w" x="225.77" y="120.801"/><use xlink:href="#s" x="231.817" y="120.801"/><use xlink:href="#k" x="236.34" y="120.801"/><use xlink:href="#m" x="240.794" y="120.801"/><use xlink:href="#q" x="246.044" y="120.801"/><use xlink:href="#E" x="255.588" y="120.801"/><use xlink:href="#F" x="259.404" y="120.801"/><use xlink:href="#B" x="298.79" y="150.074"/><use xlink:href="#b" x="304.837" y="150.074"/><use xlink:href="#s" x="310.566" y="150.074"/><use xlink:href="#o" x="315.089" y="150.074"/><use xlink:href="#k" x="264.682" y="150.099"/><use xlink:href="#A" x="269.135" y="150.099"/><use xlink:href="#s" x="274.226" y="150.099"/><use xlink:href="#o" x="278.749" y="150.099"/><use xlink:href="#C" x="146.15" y="178.446"/><use xlink:href="#s" x="152.197" y="178.446"/><use xlink:href="#o" x="156.72" y="178.446"/><use xlink:href="#E" x="163.086" y="178.446"/><use xlink:href="#G" x="166.902" y="178.446"/><use xlink:href="#H" x="133.209" y="206.782"/><use xlink:href="#p" x="141.867" y="206.782"/><use xlink:href="#l" x="147.595" y="206.782"/><use xlink:href="#t" x="152.317" y="206.782"/><use xlink:href="#D" x="158.683" y="206.782"/><use xlink:href="#o" x="165.05" y="206.782"/><use xlink:href="#m" x="171.416" y="206.782"/><use xlink:href="#z" x="176.666" y="206.782"/><use xlink:href="#z" x="179.844" y="206.782"/><use xlink:href="#I" x="264.567" y="206.792"/><use xlink:href="#m" x="272.079" y="206.792"/><use xlink:href="#l" x="277.329" y="206.792"/><use xlink:href="#z" x="282.051" y="206.792"/><use xlink:href="#l" x="305.216" y="205.592"/><use xlink:href="#A" x="309.938" y="205.592"/><use xlink:href="#k" x="151.158" y="235.139"/><use xlink:href="#A" x="155.611" y="235.139"/><use xlink:href="#z" x="160.702" y="235.139"/><use xlink:href="#x" x="177.555" y="235.139"/><use xlink:href="#v" x="185.704" y="235.139"/><use xlink:href="#s" x="191.274" y="235.139"/><use xlink:href="#o" x="195.797" y="235.139"/><use xlink:href="#I" x="200.303" y="263.475"/><use xlink:href="#J" x="208.134" y="263.475"/><use xlink:href="#D" x="216.741" y="263.475"/><use xlink:href="#K" x="223.107" y="263.475"/><use xlink:href="#L" x="227.451" y="263.475"/><use xlink:href="#C" x="249.783" y="263.475"/><use xlink:href="#s" x="255.83" y="263.475"/><use xlink:href="#o" x="260.353" y="263.475"/><use xlink:href="#E" x="266.719" y="263.475"/><use xlink:href="#I" x="270.535" y="263.475"/><use xlink:href="#J" x="278.366" y="263.475"/><use xlink:href="#D" x="286.974" y="263.475"/><use xlink:href="#K" x="293.34" y="263.475"/><use xlink:href="#L" x="297.683" y="263.475"/></svg>