<svg xmlns="http://www.w3.org/2000/svg" width="49.088" height="12.242"><defs><clipPath id="a"><path d="M0 0h48.633v11.863H0Zm0 0"/></clipPath><clipPath id="b"><path d="M0 0h11v11.863H0Zm0 0"/></clipPath><clipPath id="c"><path d="M23 0h16v11.863H23Zm0 0"/></clipPath><clipPath id="d"><path d="M37 0h11.633v11H37Zm0 0"/></clipPath></defs><g clip-path="url(#a)"><path fill="none" stroke="#BFBFBF" stroke-miterlimit="10" stroke-width=".399" d="M2.824 8.582 17 2.914l14.172 5.668 14.172-5.668"/></g><path fill="#D2C92A" d="m2.824 10.574 1.992-1.992L2.824 6.59"/><path fill="#FFF" d="M2.824 10.574.832 8.582 2.824 6.59"/><g clip-path="url(#b)"><path fill="none" stroke="#000" stroke-miterlimit="10" stroke-width=".399" d="M4.816 8.582 2.824 6.59.832 8.582l1.992 1.992Zm0 0"/></g><path fill="#D2C92A" d="m17 4.906 1.992-1.992L17 .922"/><path fill="#FFF" d="m17 4.906-1.996-1.992L17 .922"/><path fill="none" stroke="#000" stroke-miterlimit="10" stroke-width=".399" d="M18.992 2.914 17 .922l-1.996 1.992L17 4.906Zm0 0"/><path fill="#D2C92A" d="m31.172 10.574 1.992-1.992-1.992-1.992"/><path fill="#FFF" d="M31.172 10.574 29.18 8.582l1.992-1.992"/><g clip-path="url(#c)"><path fill="none" stroke="#000" stroke-miterlimit="10" stroke-width=".399" d="M33.164 8.582 31.172 6.59 29.18 8.582l1.992 1.992Zm0 0"/></g><path fill="#D2C92A" d="m45.344 4.906 1.992-1.992L45.344.922"/><path fill="#FFF" d="m45.344 4.906-1.992-1.992L45.344.922"/><g clip-path="url(#d)"><path fill="none" stroke="#000" stroke-miterlimit="10" stroke-width=".399" d="M47.336 2.914 45.344.922l-1.992 1.992 1.992 1.992Zm0 0"/></g></svg>