<svg xmlns="http://www.w3.org/2000/svg" xmlns:xlink="http://www.w3.org/1999/xlink" width="91.842" height="115.634"><defs><path id="b" d="M5.563-1.812c.14 0 .312 0 .312-.172 0-.188-.172-.188-.312-.188H1c-.125 0-.297 0-.297.188 0 .172.172.172.297.172Zm0 0"/><path id="c" d="M2.25-1.625c.125-.125.453-.39.594-.5.484-.453.953-.89.953-1.61 0-.953-.797-1.562-1.781-1.562-.97 0-1.594.719-1.594 1.438 0 .39.312.437.422.437.172 0 .422-.11.422-.422 0-.406-.407-.406-.5-.406.234-.594.765-.781 1.156-.781.734 0 1.125.625 1.125 1.297 0 .828-.578 1.437-1.531 2.39l-1 1.047C.422-.219.422-.203.422 0h3.14l.235-1.422h-.25c-.016.156-.078.547-.172.703-.047.063-.656.063-.781.063H1.172Zm0 0"/><path id="d" d="M2.5-5.078c0-.219-.016-.219-.234-.219-.328.313-.75.5-1.5.5v.266c.218 0 .64 0 1.109-.203v4.078c0 .297-.031.39-.781.39H.812V0c.329-.031 1.016-.031 1.376-.031s1.046 0 1.374.031v-.266h-.28c-.75 0-.782-.093-.782-.39Zm0 0"/><path id="e" d="M3.89-2.547c0-.844-.078-1.36-.343-1.875-.344-.703-1-.875-1.438-.875-1 0-1.375.75-1.484.969C.344-3.75.328-2.953.328-2.547c0 .531.016 1.328.406 1.969.36.594.954.75 1.375.75.391 0 1.063-.125 1.47-.906.296-.578.312-1.297.312-1.813M2.11-.062c-.266 0-.813-.125-.985-.954-.094-.453-.094-1.203-.094-1.625 0-.546 0-1.109.094-1.546.172-.813.781-.891.984-.891.266 0 .829.14.985.86.094.437.094 1.046.094 1.577 0 .47 0 1.188-.094 1.641-.172.828-.719.938-.985.938m0 0"/><path id="f" d="M2.016-2.656c.625 0 1.03.453 1.03 1.297 0 1-.562 1.28-.983 1.28-.438 0-1.047-.155-1.329-.577.297 0 .5-.188.5-.438 0-.265-.187-.437-.453-.437-.203 0-.437.125-.437.453 0 .75.812 1.25 1.734 1.25 1.047 0 1.797-.734 1.797-1.531 0-.672-.531-1.266-1.344-1.453.625-.22 1.11-.75 1.11-1.391 0-.64-.72-1.094-1.547-1.094-.86 0-1.5.453-1.5 1.063 0 .297.187.422.406.422.25 0 .406-.172.406-.407 0-.297-.265-.406-.437-.406.344-.437.953-.469 1.094-.469.203 0 .812.063.812.89 0 .548-.234.891-.344 1.016-.234.25-.422.266-.906.297-.156 0-.219.016-.219.125 0 .11.078.11.219.11Zm0 0"/><path id="g" d="M3.14-5.156c0-.157 0-.219-.171-.219-.094 0-.11 0-.188.11L.234-1.564v.25h2.25v.672c0 .297-.015.375-.64.375h-.172V0c.672-.031.687-.031 1.14-.031.454 0 .47 0 1.141.031v-.266h-.172c-.625 0-.64-.078-.64-.375v-.671h.843v-.25h-.843Zm-.593.64v2.954H.516Zm0 0"/><path id="h" d="M1.11-4.484c.109.03.421.125.765.125 1 0 1.594-.703 1.594-.828 0-.094-.047-.11-.094-.11-.016 0-.031 0-.094.031a3 3 0 0 1-1.11.22c-.468 0-.858-.11-1.108-.22-.079-.03-.094-.03-.11-.03-.094 0-.094.077-.094.234v2.328c0 .14 0 .234.125.234.063 0 .079-.031.125-.094.094-.11.391-.515 1.079-.515.437 0 .656.359.734.515.125.281.14.656.14.953s0 .735-.218 1.079c-.156.25-.485.484-.906.484A1.27 1.27 0 0 1 .734-.922c.016.016.079.016.079.016.218 0 .406-.14.406-.39a.39.39 0 0 0-.39-.407c-.157 0-.407.078-.407.422 0 .718.625 1.453 1.531 1.453 1 0 1.844-.781 1.844-1.766 0-.922-.672-1.75-1.61-1.75-.39 0-.765.125-1.078.406Zm0 0"/><clipPath id="a"><path d="M0 0h91.762v94H0Zm0 0"/></clipPath></defs><path fill="none" stroke="#000" stroke-linecap="round" stroke-miterlimit="10" stroke-width=".399" d="M6.16 106.656v-2.793M26.004 106.656v-2.793M65.688 106.656v-2.793M85.531 106.656v-2.793M44.453 85.418h2.79M44.453 65.574h2.79M44.453 45.73h2.79M44.453 25.89h2.79M44.453 6.047h2.79"/><path fill="none" stroke="#000" stroke-miterlimit="10" stroke-width=".399" d="M.93 105.262h89.43"/><path fill="none" stroke="#000" stroke-linecap="round" stroke-linejoin="round" stroke-miterlimit="10" stroke-width=".399" d="M88.484 102.867c.38 1.438 1.223 2.113 2.075 2.395-.852.277-1.696.953-2.075 2.39"/><path fill="none" stroke="#000" stroke-miterlimit="10" stroke-width=".399" d="M45.848 110.492V1.215"/><path fill="none" stroke="#000" stroke-linecap="round" stroke-linejoin="round" stroke-miterlimit="10" stroke-width=".399" d="M43.453 3.09c1.438-.38 2.113-1.223 2.395-2.074.277.851.953 1.695 2.39 2.074"/><g clip-path="url(#a)"><path fill="none" stroke="#000" stroke-miterlimit="10" stroke-width=".598" d="M6.16 6.047s2.39 9.312 3.309 12.676a570 570 0 0 0 3.304 11.574c.918 3.058 2.391 7.719 3.309 10.473.918 2.753 2.39 6.921 3.305 9.37.918 2.446 2.39 6.126 3.308 8.266s2.39 5.332 3.309 7.168c.918 1.832 2.387 4.531 3.305 6.063.918 1.527 2.39 3.734 3.308 4.96.918 1.223 2.387 2.942 3.305 3.856.918.918 2.39 2.145 3.308 2.758s2.387 1.348 3.305 1.656c.918.305 2.39.551 3.309.551.918 0 2.39-.246 3.304-.55.918-.305 2.391-1.04 3.309-1.653s2.39-1.836 3.309-2.754c.918-.918 2.386-2.633 3.304-3.86.918-1.222 2.39-3.43 3.309-4.956.918-1.532 2.387-4.227 3.305-6.063s2.39-5.023 3.308-7.164 2.39-5.82 3.305-8.266c.918-2.445 2.39-6.617 3.308-9.367.918-2.754 2.391-7.414 3.31-10.472a577 577 0 0 0 3.304-11.57c.918-3.364 3.308-12.677 3.308-12.677"/></g><use xlink:href="#b" x=".751" y="114.447"/><use xlink:href="#c" x="7.338" y="114.447"/><use xlink:href="#b" x="20.594" y="114.447"/><use xlink:href="#d" x="27.18" y="114.447"/><use xlink:href="#d" x="63.571" y="114.447"/><use xlink:href="#c" x="83.414" y="114.447"/><use xlink:href="#e" x="38.956" y="113.053"/><use xlink:href="#d" x="37.561" y="87.986"/><use xlink:href="#c" x="37.561" y="68.144"/><use xlink:href="#f" x="37.561" y="48.301"/><use xlink:href="#g" x="37.561" y="28.459"/><use xlink:href="#h" x="37.561" y="8.617"/></svg>