<svg xmlns="http://www.w3.org/2000/svg" xmlns:xlink="http://www.w3.org/1999/xlink" width="279.308" height="201.386"><defs><path id="b" d="M10.484 0v-.469H9.406v-5.906h1.078v-.469H8.281c-.219 0-.344 0-.453.25l-2.39 5.282-2.391-5.282c-.11-.25-.219-.25-.438-.25H.406v.469H1.47V-.75c0 .219 0 .219-.282.25-.234.031-.265.031-.546.031H.406V0c.375-.031.938-.031 1.328-.031.422 0 .938 0 1.344.031v-.469h-.25c-.172 0-.344-.015-.531-.031C2.016-.531 2-.531 2-.75v-5.484h.016L4.719-.25c.093.203.218.25.328.25.203 0 .281-.156.312-.234l2.782-6.141h.015v5.906H7.078V0c.36-.031 1.281-.031 1.688-.031.422 0 1.359 0 1.718.031m0 0"/><path id="c" d="M5.516-.234c0-.235-.125-.235-.266-.235-.61-.015-.61-.14-.61-.375v-2.14c0-.891-.702-1.532-2.187-1.532-.562 0-1.781.047-1.781.922 0 .438.344.625.61.625.312 0 .624-.219.624-.625 0-.297-.187-.469-.218-.5a5 5 0 0 1 .718-.062c.75 0 1.11.422 1.11 1.172v.343c-.72.032-3.25.125-3.25 1.563C.266-.125 1.5.062 2.188.062c.796 0 1.265-.406 1.484-.828 0 .313 0 .766 1.047.766h.468c.204 0 .329 0 .329-.234m-2-1.157c0 .97-.922 1.094-1.172 1.094-.516 0-.906-.344-.906-.797 0-1.062 1.578-1.203 2.078-1.234Zm0 0"/><path id="d" d="M5.563-3.953c0-.235-.172-.578-.625-.578-.157 0-.625.031-1.063.375-.172-.125-.594-.328-1.328-.328-1.438 0-1.985.78-1.985 1.468 0 .407.188.829.516 1.047-.281.36-.344.688-.344.89 0 .157.047.642.438.954-.125.031-.86.25-.86.875C.313 1.25.876 2 2.86 2 4.625 2 5.406 1.422 5.406.719c0-.297-.078-.922-.75-1.266-.562-.281-1.156-.281-2.11-.281-.265 0-.718 0-.765-.016a.625.625 0 0 1-.562-.625c0-.093.047-.25.11-.328.452.234.968.266 1.218.266 1.437 0 1.984-.782 1.984-1.485 0-.468-.25-.796-.406-.953.297-.156.516-.172.625-.187a.43.43 0 0 0-.047.203c0 .25.172.422.438.422a.41.41 0 0 0 .422-.422m-2.141.937c0 .454 0 1.125-.875 1.125s-.875-.671-.875-1.125c0-.437 0-1.109.875-1.109s.875.672.875 1.11M4.547.75c0 .36-.39.89-1.688.89-1.187 0-1.687-.452-1.687-.906 0-.609.625-.609.766-.609h1.171c.313 0 1.438 0 1.438.625m0 0"/><path id="e" d="M6.125 0v-.469h-.687v-2.578c0-1.047-.532-1.437-1.532-1.437-.953 0-1.484.562-1.75 1.078v-1.078l-1.703.078v.468c.61 0 .688 0 .688.391v3.078H.453V0l1.25-.031L2.953 0v-.469h-.687v-2.078c0-1.094.859-1.578 1.5-1.578.328 0 .547.203.547.969V-.47h-.688V0l1.25-.031Zm0 0"/><path id="f" d="M4.922-1.172c0-.172-.188-.172-.234-.172-.172 0-.188.047-.25.203-.204.485-.782.797-1.422.797-1.407 0-1.422-1.328-1.422-1.828h3.015c.22 0 .313 0 .313-.265 0-.313-.063-1.047-.563-1.547-.359-.36-.89-.532-1.578-.532C1.187-4.516.313-3.484.313-2.25c0 1.344 1 2.313 2.609 2.313 1.578 0 2-1.063 2-1.235M3.984-2.5h-2.39c.015-.39.031-.812.234-1.14.266-.391.672-.516.953-.516 1.172 0 1.188 1.312 1.203 1.656m0 0"/><path id="g" d="M3.813-1.234v-.532h-.47v.516c0 .672-.327.906-.609.906-.578 0-.578-.64-.578-.86v-2.75h1.469v-.468H2.156v-1.906h-.469c0 1-.484 1.984-1.484 2.016v.359h.828v2.734c0 1.063.86 1.282 1.578 1.282.75 0 1.204-.579 1.204-1.297m0 0"/><path id="h" d="M2.844 0v-.469h-.61v-4.015L.5-4.406v.468c.594 0 .656 0 .656.391v3.078H.47V0l1.219-.031Zm-.469-6.047a.774.774 0 0 0-.781-.781.784.784 0 0 0-.782.781c0 .422.36.766.782.766a.77.77 0 0 0 .781-.766m0 0"/><path id="i" d="M4.766-1.172c0-.14-.141-.14-.235-.14-.187 0-.187.03-.25.156-.25.625-.734.812-1.234.812-1.39 0-1.39-1.453-1.39-1.922 0-.562 0-1.843 1.28-1.843.36 0 .516.015.657.046a.62.62 0 0 0-.203.47c0 .437.343.624.609.624.313 0 .64-.219.64-.625 0-.86-1.156-.922-1.734-.922C1.11-4.516.375-3.375.375-2.219.375-.89 1.313.063 2.844.063c1.625 0 1.922-1.157 1.922-1.235m0 0"/><path id="j" d="m7.547-4.328-.203-2.406H.625L.422-4.328H.89c.093-1.125.187-1.938 1.625-1.938h.765v5.797H1.75V0c.547-.031 1.656-.031 2.234-.031.594 0 1.704 0 2.235.031v-.469H4.687v-5.797h.766c1.422 0 1.531.797 1.625 1.938Zm0 0"/><path id="k" d="M5.984-2.219c0-1.328-.906-2.265-2.343-2.265-.75 0-1.282.312-1.5.484v-.484l-1.766.078v.468c.61 0 .688 0 .688.376v5.03H.375v.47l1.25-.032 1.25.032v-.47h-.687V-.39a2 2 0 0 0 1.28.454c1.5 0 2.516-.907 2.516-2.282m-1.28 0C4.703-.813 4-.297 3.358-.297c-.14 0-.609 0-1.062-.547-.11-.125-.11-.14-.11-.328v-2.11c0-.187.016-.202.157-.343.39-.406.922-.469 1.14-.469.657 0 1.22.61 1.22 1.875m0 0"/><path id="l" d="M3.078.313c0-.125-.047-.157-.187-.25C2.063-.5 1.75-1.391 1.75-2.125c0-.672.25-1.594 1.156-2.203.125-.094.172-.125.172-.25a.254.254 0 0 0-.265-.25c-.204 0-1.641.906-1.641 2.703 0 .813.312 1.438.562 1.781.375.516.907.907 1.079.907.218 0 .265-.172.265-.25m0 0"/><path id="m" d="M3.219-.906c0-.735-.906-.906-1.14-.938l-.704-.125C1.188-2 1-2.079 1-2.25c0-.156.219-.328.813-.328.515 0 .609.172.625.328.015.14.03.281.28.281.298 0 .298-.156.298-.328v-.469c0-.14-.016-.328-.25-.328-.157 0-.22.063-.25.125-.282-.125-.563-.125-.688-.125-1.187 0-1.344.594-1.344.844 0 .656.735.797 1.391.89.297.063.828.141.828.454 0 .234-.25.422-.828.422-.297 0-.656-.063-.812-.563C1.03-1.203.984-1.28.78-1.28c-.297 0-.297.172-.297.328v.656c0 .14 0 .344.25.344.079 0 .188 0 .282-.234.328.218.672.234.859.234 1.125 0 1.344-.61 1.344-.953m0 0"/><path id="n" d="M2.313-.469a.477.477 0 0 0-.485-.484.47.47 0 0 0-.469.469c0 .28.22.484.47.484a.473.473 0 0 0 .484-.469m0 0"/><path id="o" d="M3.578-.266c0-.25-.203-.25-.328-.25H3v-1.53c0-.72-.36-1.032-.937-1.032-.391 0-.672.172-.844.297 0-.172-.047-.25-.313-.25h-.5c-.14 0-.328 0-.328.25 0 .265.203.265.313.265h.25v2H.406c-.14 0-.328 0-.328.25C.078 0 .281 0 .391 0h1.093c.11 0 .329 0 .329-.266 0-.25-.204-.25-.344-.25h-.25v-1.156c0-.64.484-.875.797-.875.328 0 .406.172.406.547v1.484h-.203c-.14 0-.344 0-.344.25 0 .266.219.266.344.266H3.25c.11 0 .328 0 .328-.266m0 0"/><path id="p" d="M3.281-1.516c0-.89-.672-1.578-1.453-1.578-.797 0-1.453.688-1.453 1.578S1.047.047 1.828.047c.766 0 1.453-.688 1.453-1.563m-.578-.046c0 .593-.406 1.078-.875 1.078S.953-.97.953-1.562s.422-1.016.875-1.016.875.422.875 1.015m0 0"/><path id="q" d="M3.406-2.594c0-.156-.078-.484-.703-.484-.328 0-.734.11-1.094.469v-.094c0-.25-.046-.328-.328-.328h-.75c-.125 0-.328 0-.328.25 0 .265.203.265.328.265h.5v2h-.5c-.125 0-.328 0-.328.25C.203 0 .406 0 .531 0h1.781c.126 0 .329 0 .329-.266 0-.25-.203-.25-.328-.25h-.704v-.796c0-.61.36-1.22 1.11-1.235 0 .156.172.281.344.281.187 0 .343-.125.343-.328m0 0"/><path id="r" d="M3.14-.906c0-.156 0-.313-.296-.313-.266 0-.266.157-.266.297-.015.375-.36.438-.515.438-.454 0-.454-.313-.454-.47v-1.562h1.047c.125 0 .328 0 .328-.265 0-.25-.187-.25-.328-.25H1.61v-.516c0-.14-.015-.328-.296-.328-.282 0-.282.172-.282.328v.516H.484c-.125 0-.328 0-.328.25 0 .265.203.265.328.265h.547v1.61c0 .687.485.953 1.016.953S3.14-.266 3.14-.906m0 0"/><path id="s" d="M3.578-.266c0-.25-.203-.25-.328-.25H3v-1.53c0-.72-.36-1.032-.937-1.032-.391 0-.672.172-.844.297v-1.14c0-.25-.047-.345-.313-.345h-.5c-.14 0-.328.016-.328.266s.203.266.313.266h.25v3.218H.406c-.14 0-.328 0-.328.25C.078 0 .281 0 .391 0h1.093c.11 0 .329 0 .329-.266 0-.25-.204-.25-.344-.25h-.25v-1.156c0-.64.484-.875.797-.875.328 0 .406.172.406.547v1.484h-.203c-.14 0-.344 0-.344.25 0 .266.219.266.344.266H3.25c.11 0 .328 0 .328-.266m0 0"/><path id="t" d="M3.547-2.781c0-.25-.188-.25-.328-.25h-.781c-.157 0-.344 0-.344.25 0 .265.172.265.344.265h.265l-.297 1.72-.14-.532c-.125-.469-.172-.547-.422-.547-.094 0-.235 0-.328.188l-.266.906-.297-1.735h.266c.156 0 .343 0 .343-.265 0-.25-.187-.25-.343-.25H.437c-.14 0-.343 0-.343.25 0 .234.14.265.36.265L.858-.28c.032.187.047.312.36.312.312 0 .343-.062.453-.515l.172-.641.265 1c.094.14.235.156.344.156.281 0 .313-.125.344-.312l.406-2.235c.219 0 .344-.03.344-.265m0 0"/><path id="u" d="M3.25-.797c0-.234-.234-.234-.281-.234-.156 0-.219.015-.281.172-.141.328-.485.375-.657.375-.469 0-.937-.297-1.062-.813h1.953c.172 0 .328 0 .328-.312 0-.797-.453-1.485-1.375-1.485-.828 0-1.516.703-1.516 1.563S1.08.047 1.984.047c.938 0 1.266-.656 1.266-.844m-.594-1.015H.97c.125-.438.484-.766.906-.766.328 0 .703.156.781.765m0 0"/><path id="v" d="M2.484-2.125c0-.828-.312-1.453-.562-1.797-.375-.515-.906-.906-1.078-.906-.203 0-.266.187-.266.25 0 .125.094.187.14.219 1.095.718 1.188 1.797 1.188 2.234 0 .656-.25 1.578-1.14 2.188C.64.14.578.188.578.313c0 .078.063.25.266.25s1.64-.907 1.64-2.688m0 0"/><path id="w" d="M3.625-.266c0-.25-.203-.25-.328-.25-.203 0-.297-.03-.344-.046V-2c0-.5-.375-1.094-1.406-1.094-.313 0-1.031.016-1.031.547 0 .235.172.36.359.36.11 0 .344-.063.344-.36 0 0 .234-.031.343-.031.454 0 .782.187.813.594-1.219.03-2.047.39-2.047 1.062 0 .485.453.969 1.188.969.234 0 .656-.047.968-.25.172.187.485.203.75.203.235 0 .391-.016.391-.266M2.359-.969c0 .14 0 .266-.234.375-.234.11-.516.11-.578.11-.39 0-.64-.203-.64-.438 0-.312.546-.515 1.452-.562Zm0 0"/><path id="x" d="M3.266-.797c0-.234-.235-.234-.297-.234-.125 0-.203 0-.266.172-.047.078-.187.375-.625.375a1.027 1.027 0 0 1-1.015-1.032c0-.312.187-1.062 1.062-1.062l.344.015c.015.282.172.376.36.376.187 0 .358-.126.358-.36 0-.531-.734-.547-1.062-.547-1.219 0-1.64.953-1.64 1.578 0 .844.671 1.563 1.546 1.563 1 0 1.235-.719 1.235-.844m0 0"/><path id="y" d="M3.64-.266c0-.218-.14-.25-.39-.25v-1.593c0-.157-.016-.97-.656-.97a.84.84 0 0 0-.656.313.61.61 0 0 0-.532-.312.88.88 0 0 0-.547.203c-.046-.156-.187-.156-.312-.156H.328c-.125 0-.328 0-.328.25 0 .234.125.265.39.265v2c-.265 0-.39.032-.39.25C0 0 .219 0 .328 0h.594c.125 0 .312 0 .312-.266 0-.218-.109-.25-.359-.25v-1.171c0-.563.234-.86.5-.86.14 0 .203.11.203.5v1.531c-.156 0-.281.032-.281.25 0 .266.187.266.312.266h.516c.125 0 .313 0 .313-.266 0-.218-.126-.25-.376-.25v-1.171c0-.563.25-.86.5-.86.141 0 .204.11.204.5v1.531c-.141 0-.282.032-.282.25 0 .266.204.266.313.266h.5c.125 0 .344 0 .344-.266m0 0"/><path id="z" d="M3.188-.266c0-.25-.204-.25-.329-.25h-.656v-2.187c0-.25-.047-.328-.328-.328H.906c-.125 0-.328 0-.328.25 0 .265.203.265.328.265h.719v2H.859c-.14 0-.343 0-.343.25C.516 0 .734 0 .859 0h2c.125 0 .329 0 .329-.266m-.954-3.562a.39.39 0 0 0-.406-.39.387.387 0 0 0-.39.39c0 .219.171.39.39.39a.39.39 0 0 0 .406-.39m0 0"/><path id="A" d="M3.578-.266c0-.25-.203-.25-.328-.25H3v-3.406c0-.25-.047-.344-.328-.344h-.485c-.14 0-.343.016-.343.266s.218.266.328.266h.25v.906a1.26 1.26 0 0 0-.735-.25c-.765 0-1.453.672-1.453 1.562C.234-.64.875.047 1.625.047c.344 0 .61-.14.797-.313.015.188.062.266.328.266h.5c.125 0 .328 0 .328-.266M2.422-1.375c0 .36-.297.89-.781.89-.453 0-.828-.452-.828-1.03 0-.61.437-1.032.89-1.032.406 0 .719.344.719.688Zm0 0"/><path id="B" d="M3.422-1.516c0-.875-.64-1.562-1.39-1.562-.298 0-.579.11-.813.265v-1.109c0-.25-.047-.344-.313-.344h-.5c-.14 0-.343.016-.343.266s.218.266.328.266h.25v3.406C.64-.172.656 0 .938 0c.218 0 .28-.094.28-.234.266.218.532.28.735.28.766 0 1.469-.671 1.469-1.562m-.578 0c0 .61-.453 1.032-.906 1.032-.485 0-.704-.563-.704-.875v-.485c0-.375.375-.703.766-.703.469 0 .844.469.844 1.031m0 0"/><path id="C" d="M3.578-.266c0-.25-.219-.25-.328-.25H3v-2.187c0-.25-.047-.328-.328-.328h-.485c-.14 0-.343 0-.343.25 0 .265.218.265.328.265h.25v1.391c0 .563-.516.64-.719.64-.469 0-.484-.187-.484-.39v-1.828c0-.25-.047-.328-.313-.328h-.5c-.14 0-.328 0-.328.25 0 .265.203.265.313.265h.25v1.688c0 .687.5.875 1.03.875.266 0 .517-.063.767-.219C2.484 0 2.625 0 2.75 0h.5c.125 0 .328 0 .328-.266m0 0"/><path id="D" d="M3.469-.266c0-.25-.203-.25-.328-.25h-.25l-.828-1.046.734-.954h.234c.125 0 .344 0 .344-.265 0-.25-.219-.25-.344-.25H2.25c-.125 0-.328 0-.328.25 0 .203.11.265.281.265l-.39.547-.422-.547c.156 0 .28-.062.28-.265 0-.25-.202-.25-.327-.25H.547c-.125 0-.328 0-.328.25 0 .265.219.265.328.265h.25l.75.954L.75-.516H.516c-.125 0-.344 0-.344.25C.172 0 .39 0 .516 0h.78c.126 0 .329 0 .329-.266 0-.203-.11-.25-.297-.25l.484-.703.5.703c-.187 0-.296.047-.296.25 0 .266.203.266.328.266h.797c.109 0 .328 0 .328-.266m0 0"/><path id="E" d="M3.094-.266c0-.25-.188-.25-.313-.25H2.22V-4c0-.125-.016-.328-.266-.328-.156 0-.219.094-.25.187-.234.547-.578.625-.687.641-.141 0-.313.031-.313.266 0 .203.156.25.281.25s.375-.032.657-.235v2.703h-.563c-.14 0-.328 0-.328.25C.75 0 .953 0 1.078 0h1.703c.125 0 .313 0 .313-.266m0 0"/><path id="F" d="M3.313-2.125c0-1.297-.72-2.203-1.485-2.203-.781 0-1.5.922-1.5 2.203 0 1.297.734 2.203 1.5 2.203.781 0 1.485-.922 1.485-2.203m-.563-.078c0 .969-.422 1.75-.922 1.75-.516 0-.922-.781-.922-1.75 0-.953.438-1.61.922-1.61.469 0 .922.657.922 1.61m0 0"/><path id="G" d="M3.36-1.234c0-.47-.297-.875-.72-1.094.344-.25.516-.64.516-1 0-.516-.515-1-1.328-1-.86 0-1.344.36-1.344.844 0 .265.204.375.36.375.172 0 .36-.141.36-.36 0-.078-.032-.14-.048-.172.203-.171.625-.171.688-.171.422 0 .734.218.734.5a.72.72 0 0 1-.25.546c-.219.172-.375.188-.61.188-.437 0-.546.062-.546.281 0 .266.203.266.328.266h.313c.64 0 .968.422.968.797 0 .39-.36.78-.937.78-.25 0-.719-.062-.907-.327A.36.36 0 0 0 1-1a.363.363 0 0 0-.36-.36c-.171 0-.343.126-.343.391C.297-.344.969.078 1.844.078c.922 0 1.515-.656 1.515-1.312m0 0"/><path id="H" d="M3.281-.266c0-.25-.203-.25-.328-.25h-.828v-3.406c0-.25-.062-.344-.328-.344H.719C.579-4.266.39-4.25.39-4s.203.266.312.266h.844v3.218H.719c-.14 0-.328 0-.328.25C.39 0 .594 0 .703 0h2.25c.125 0 .328 0 .328-.266m0 0"/><clipPath id="a"><path d="M0 0h278.96v201.078H0Zm0 0"/></clipPath></defs><path fill="#FFFBB3" d="M167.156 171.527a83.7 83.7 0 0 0 39.61-71.136c0-46.227-37.473-83.7-83.7-83.7-46.222 0-83.695 37.473-83.695 83.7 0 46.222 37.473 83.695 83.695 83.695h97.872V171.53Zm0 0"/><g clip-path="url(#a)"><path fill="none" stroke="#B2B2B2" stroke-miterlimit="10" stroke-width="14.173" d="M167.156 171.527a83.7 83.7 0 0 0 39.61-71.136c0-46.227-37.473-83.7-83.7-83.7-46.222 0-83.695 37.473-83.695 83.7 0 46.222 37.473 83.695 83.695 83.695h97.872V171.53Zm0 0"/></g><g fill="#B2B2B2"><use xlink:href="#b" x="85.145" y="127.734"/><use xlink:href="#c" x="96.024" y="127.734"/><use xlink:href="#d" x="101.593" y="127.734"/><use xlink:href="#e" x="107.322" y="127.734"/><use xlink:href="#f" x="113.688" y="127.734"/><use xlink:href="#g" x="118.938" y="127.734"/><use xlink:href="#h" x="123.392" y="127.734"/><use xlink:href="#i" x="126.57" y="127.734"/></g><use xlink:href="#j" x="135.476" y="127.734" fill="#B2B2B2"/><g fill="#B2B2B2"><use xlink:href="#c" x="142.49" y="127.734"/><use xlink:href="#k" x="148.059" y="127.734"/></g><use xlink:href="#f" x="154.744" y="127.734" fill="#B2B2B2"/><path fill="none" stroke="#B2B2B2" stroke-miterlimit="10" stroke-width=".996" d="M160.492 129.734V71.04"/><path fill="none" stroke="#000" stroke-miterlimit="10" stroke-width=".399" d="m57.465 37.602 2.816-2.817m-2.816 0 2.816 2.817"/><use xlink:href="#l" x="4.097" y="32.117"/><use xlink:href="#m" x="7.758" y="32.117"/><use xlink:href="#n" x="11.42" y="32.117"/><use xlink:href="#o" x="15.081" y="32.117"/><use xlink:href="#p" x="18.742" y="32.117"/><use xlink:href="#q" x="22.403" y="32.117"/><use xlink:href="#r" x="26.065" y="32.117"/><use xlink:href="#s" x="29.726" y="32.117"/><use xlink:href="#t" x="37.048" y="32.117"/><use xlink:href="#u" x="40.71" y="32.117"/><use xlink:href="#m" x="44.371" y="32.117"/><use xlink:href="#r" x="48.032" y="32.117"/><use xlink:href="#v" x="51.694" y="32.117"/><path fill="none" stroke="#000" stroke-miterlimit="10" stroke-width=".399" d="m121.66 11.012 2.817-2.817m-2.817 0 2.817 2.817"/><use xlink:href="#l" x="106.592" y="5.527"/><use xlink:href="#m" x="110.253" y="5.527"/><use xlink:href="#n" x="113.915" y="5.527"/><use xlink:href="#o" x="117.576" y="5.527"/><use xlink:href="#p" x="121.237" y="5.527"/><use xlink:href="#q" x="124.898" y="5.527"/><use xlink:href="#r" x="128.56" y="5.527"/><use xlink:href="#s" x="132.221" y="5.527"/><use xlink:href="#v" x="135.882" y="5.527"/><path fill="none" stroke="#000" stroke-miterlimit="10" stroke-width=".399" d="m185.855 37.602 2.817-2.817m-2.817 0 2.817 2.817"/><use xlink:href="#l" x="190.782" y="32.117"/><use xlink:href="#m" x="194.443" y="32.117"/><use xlink:href="#n" x="198.105" y="32.117"/><use xlink:href="#o" x="201.766" y="32.117"/><use xlink:href="#p" x="205.427" y="32.117"/><use xlink:href="#q" x="209.088" y="32.117"/><use xlink:href="#r" x="212.75" y="32.117"/><use xlink:href="#s" x="216.411" y="32.117"/><use xlink:href="#u" x="223.726" y="32.117"/><use xlink:href="#w" x="227.388" y="32.117"/><use xlink:href="#m" x="231.049" y="32.117"/><use xlink:href="#r" x="234.71" y="32.117"/><use xlink:href="#v" x="238.372" y="32.117"/><path fill="none" stroke="#000" stroke-miterlimit="10" stroke-width=".399" d="m30.875 101.797 2.816-2.817m-2.816 0 2.816 2.817"/><use xlink:href="#l" x="-.525" y="102.523"/><use xlink:href="#m" x="3.136" y="102.523"/><use xlink:href="#n" x="6.798" y="102.523"/><use xlink:href="#t" x="10.459" y="102.523"/><use xlink:href="#u" x="14.12" y="102.523"/><use xlink:href="#m" x="17.781" y="102.523"/><use xlink:href="#r" x="21.443" y="102.523"/><use xlink:href="#v" x="25.104" y="102.523"/><path fill="none" stroke="#000" stroke-miterlimit="10" stroke-width=".399" d="m121.66 101.797 2.817-2.817m-2.817 0 2.817 2.817"/><use xlink:href="#l" x="104.762" y="96.311"/><use xlink:href="#m" x="108.423" y="96.311"/><use xlink:href="#n" x="112.085" y="96.311"/><use xlink:href="#x" x="115.746" y="96.311"/><use xlink:href="#u" x="119.407" y="96.311"/><use xlink:href="#o" x="123.068" y="96.311"/><use xlink:href="#r" x="126.73" y="96.311"/><use xlink:href="#u" x="130.391" y="96.311"/><use xlink:href="#q" x="134.052" y="96.311"/><use xlink:href="#v" x="137.713" y="96.311"/><path fill="none" stroke="#000" stroke-miterlimit="10" stroke-width=".399" d="m212.445 101.797 2.817-2.817m-2.817 0 2.817 2.817"/><use xlink:href="#l" x="217.371" y="102.523"/><use xlink:href="#m" x="221.032" y="102.523"/><use xlink:href="#n" x="224.694" y="102.523"/><use xlink:href="#u" x="228.355" y="102.523"/><use xlink:href="#w" x="232.016" y="102.523"/><use xlink:href="#m" x="235.677" y="102.523"/><use xlink:href="#r" x="239.339" y="102.523"/><use xlink:href="#v" x="243" y="102.523"/><path fill="none" stroke="#000" stroke-miterlimit="10" stroke-width=".399" d="m30.875 126.934 2.816-2.82m-2.816 0 2.816 2.82"/><use xlink:href="#l" x="35.804" y="127.656"/><use xlink:href="#m" x="39.465" y="127.656"/><use xlink:href="#n" x="43.127" y="127.656"/><use xlink:href="#y" x="46.788" y="127.656"/><use xlink:href="#z" x="50.449" y="127.656"/><use xlink:href="#A" x="54.11" y="127.656"/><use xlink:href="#t" x="61.433" y="127.656"/><use xlink:href="#u" x="65.094" y="127.656"/><use xlink:href="#m" x="68.755" y="127.656"/><use xlink:href="#r" x="72.417" y="127.656"/><use xlink:href="#v" x="76.078" y="127.656"/><path fill="none" stroke="#000" stroke-miterlimit="10" stroke-width=".399" d="m121.66 126.934 2.817-2.82m-2.817 0 2.817 2.82"/><use xlink:href="#l" x="126.588" y="127.656"/><use xlink:href="#m" x="130.249" y="127.656"/><use xlink:href="#n" x="133.911" y="127.656"/><use xlink:href="#y" x="137.572" y="127.656"/><use xlink:href="#z" x="141.233" y="127.656"/><use xlink:href="#A" x="144.894" y="127.656"/><use xlink:href="#v" x="148.556" y="127.656"/><path fill="none" stroke="#000" stroke-miterlimit="10" stroke-width=".399" d="m212.445 126.934 2.817-2.82m-2.817 0 2.817 2.82"/><use xlink:href="#l" x="166.397" y="127.656"/><use xlink:href="#m" x="170.058" y="127.656"/><use xlink:href="#n" x="173.72" y="127.656"/><use xlink:href="#y" x="177.381" y="127.656"/><use xlink:href="#z" x="181.042" y="127.656"/><use xlink:href="#A" x="184.703" y="127.656"/><use xlink:href="#u" x="192.019" y="127.656"/><use xlink:href="#w" x="195.68" y="127.656"/><use xlink:href="#m" x="199.341" y="127.656"/><use xlink:href="#r" x="203.003" y="127.656"/><use xlink:href="#v" x="206.664" y="127.656"/><path fill="none" stroke="#000" stroke-miterlimit="10" stroke-width=".399" d="m30.875 129.145 2.816-2.82m-2.816 0 2.816 2.82"/><use xlink:href="#l" x="8.486" y="136.08"/><use xlink:href="#m" x="12.147" y="136.08"/><use xlink:href="#n" x="15.809" y="136.08"/><use xlink:href="#B" x="19.47" y="136.08"/><use xlink:href="#w" x="23.131" y="136.08"/><use xlink:href="#m" x="26.792" y="136.08"/><use xlink:href="#u" x="30.454" y="136.08"/><use xlink:href="#t" x="37.776" y="136.08"/><use xlink:href="#u" x="41.437" y="136.08"/><use xlink:href="#m" x="45.099" y="136.08"/><use xlink:href="#r" x="48.76" y="136.08"/><use xlink:href="#v" x="52.421" y="136.08"/><path fill="none" stroke="#000" stroke-miterlimit="10" stroke-width=".399" d="m121.66 129.145 2.817-2.82m-2.817 0 2.817 2.82"/><use xlink:href="#l" x="108.423" y="136.08"/><use xlink:href="#m" x="112.084" y="136.08"/><use xlink:href="#n" x="115.746" y="136.08"/><use xlink:href="#B" x="119.407" y="136.08"/><use xlink:href="#w" x="123.068" y="136.08"/><use xlink:href="#m" x="126.729" y="136.08"/><use xlink:href="#u" x="130.391" y="136.08"/><use xlink:href="#v" x="134.052" y="136.08"/><path fill="none" stroke="#000" stroke-miterlimit="10" stroke-width=".399" d="m212.445 129.145 2.817-2.82m-2.817 0 2.817 2.82"/><use xlink:href="#l" x="217.371" y="129.868"/><use xlink:href="#m" x="221.032" y="129.868"/><use xlink:href="#n" x="224.694" y="129.868"/><use xlink:href="#B" x="228.355" y="129.868"/><use xlink:href="#w" x="232.016" y="129.868"/><use xlink:href="#m" x="235.677" y="129.868"/><use xlink:href="#u" x="239.339" y="129.868"/><use xlink:href="#u" x="246.661" y="129.868"/><use xlink:href="#w" x="250.322" y="129.868"/><use xlink:href="#m" x="253.984" y="129.868"/><use xlink:href="#r" x="257.645" y="129.868"/><use xlink:href="#v" x="261.306" y="129.868"/><path fill="none" stroke="#000" stroke-miterlimit="10" stroke-width=".399" d="m57.465 165.992 2.816-2.816m-2.816 0 2.816 2.816"/><use xlink:href="#l" x="4.097" y="172.928"/><use xlink:href="#m" x="7.758" y="172.928"/><use xlink:href="#n" x="11.42" y="172.928"/><use xlink:href="#m" x="15.081" y="172.928"/><use xlink:href="#p" x="18.742" y="172.928"/><use xlink:href="#C" x="22.403" y="172.928"/><use xlink:href="#r" x="26.065" y="172.928"/><use xlink:href="#s" x="29.726" y="172.928"/><use xlink:href="#t" x="37.048" y="172.928"/><use xlink:href="#u" x="40.71" y="172.928"/><use xlink:href="#m" x="44.371" y="172.928"/><use xlink:href="#r" x="48.032" y="172.928"/><use xlink:href="#v" x="51.694" y="172.928"/><path fill="none" stroke="#000" stroke-miterlimit="10" stroke-width=".399" d="m121.66 192.582 2.817-2.816m-2.817 0 2.817 2.816"/><use xlink:href="#l" x="106.592" y="199.518"/><use xlink:href="#m" x="110.253" y="199.518"/><use xlink:href="#n" x="113.915" y="199.518"/><use xlink:href="#m" x="117.576" y="199.518"/><use xlink:href="#p" x="121.237" y="199.518"/><use xlink:href="#C" x="124.898" y="199.518"/><use xlink:href="#r" x="128.56" y="199.518"/><use xlink:href="#s" x="132.221" y="199.518"/><use xlink:href="#v" x="135.882" y="199.518"/><path fill="none" stroke="#000" stroke-miterlimit="10" stroke-width=".399" d="m212.445 192.582 2.817-2.816m-2.817 0 2.817 2.816"/><use xlink:href="#l" x="159.074" y="193.306"/><use xlink:href="#m" x="162.735" y="193.306"/><use xlink:href="#n" x="166.397" y="193.306"/><use xlink:href="#m" x="170.058" y="193.306"/><use xlink:href="#p" x="173.719" y="193.306"/><use xlink:href="#C" x="177.38" y="193.306"/><use xlink:href="#r" x="181.042" y="193.306"/><use xlink:href="#s" x="184.703" y="193.306"/><use xlink:href="#u" x="192.025" y="193.306"/><use xlink:href="#w" x="195.687" y="193.306"/><use xlink:href="#m" x="199.348" y="193.306"/><use xlink:href="#r" x="203.009" y="193.306"/><use xlink:href="#v" x="206.671" y="193.306"/><path fill="none" stroke="#000" stroke-miterlimit="10" stroke-width=".399" d="m83.734 129.145 2.82-2.82m-2.82 0 2.82 2.82"/><use xlink:href="#l" x="52.335" y="129.868"/><use xlink:href="#m" x="55.996" y="129.868"/><use xlink:href="#n" x="59.658" y="129.868"/><use xlink:href="#r" x="63.319" y="129.868"/><use xlink:href="#u" x="66.98" y="129.868"/><use xlink:href="#D" x="70.641" y="129.868"/><use xlink:href="#r" x="74.303" y="129.868"/><use xlink:href="#v" x="77.964" y="129.868"/><path fill="none" stroke="#000" stroke-miterlimit="10" stroke-width=".399" d="m211.063 86.035 2.82-2.816m-2.82 0 2.82 2.816"/><use xlink:href="#l" x="215.992" y="86.76"/><use xlink:href="#m" x="219.653" y="86.76"/><use xlink:href="#n" x="223.315" y="86.76"/><use xlink:href="#E" x="226.976" y="86.76"/><use xlink:href="#F" x="230.637" y="86.76"/><use xlink:href="#v" x="234.298" y="86.76"/><path fill="none" stroke="#000" stroke-miterlimit="10" stroke-width=".399" d="m63.305 32.258 2.816-2.82m-2.816 0 2.816 2.82"/><use xlink:href="#l" x="51.899" y="26.77"/><use xlink:href="#m" x="55.56" y="26.77"/><use xlink:href="#n" x="59.222" y="26.77"/><use xlink:href="#E" x="62.883" y="26.77"/><use xlink:href="#G" x="66.544" y="26.77"/><use xlink:href="#F" x="70.205" y="26.77"/><use xlink:href="#v" x="73.867" y="26.77"/><path fill="none" stroke="#000" stroke-miterlimit="10" stroke-width=".399" d="m226.617 179.219 2.817-2.817m-2.817 0 2.817 2.817"/><use xlink:href="#l" x="231.545" y="179.943"/><use xlink:href="#m" x="235.206" y="179.943"/><use xlink:href="#n" x="238.868" y="179.943"/><use xlink:href="#r" x="242.529" y="179.943"/><use xlink:href="#w" x="246.19" y="179.943"/><use xlink:href="#z" x="249.851" y="179.943"/><use xlink:href="#H" x="253.513" y="179.943"/><use xlink:href="#u" x="260.828" y="179.943"/><use xlink:href="#w" x="264.489" y="179.943"/><use xlink:href="#m" x="268.151" y="179.943"/><use xlink:href="#r" x="271.812" y="179.943"/><use xlink:href="#v" x="275.473" y="179.943"/><path fill="none" stroke="#000" stroke-miterlimit="10" stroke-width=".399" d="m226.617 192.582 2.817-2.816m-2.817 0 2.817 2.816"/><use xlink:href="#l" x="193.243" y="199.518"/><use xlink:href="#m" x="196.904" y="199.518"/><use xlink:href="#n" x="200.566" y="199.518"/><use xlink:href="#r" x="204.227" y="199.518"/><use xlink:href="#w" x="207.888" y="199.518"/><use xlink:href="#z" x="211.549" y="199.518"/><use xlink:href="#H" x="215.211" y="199.518"/><use xlink:href="#m" x="222.533" y="199.518"/><use xlink:href="#p" x="226.194" y="199.518"/><use xlink:href="#C" x="229.856" y="199.518"/><use xlink:href="#r" x="233.517" y="199.518"/><use xlink:href="#s" x="237.178" y="199.518"/><use xlink:href="#u" x="244.501" y="199.518"/><use xlink:href="#w" x="248.162" y="199.518"/><use xlink:href="#m" x="251.823" y="199.518"/><use xlink:href="#r" x="255.485" y="199.518"/><use xlink:href="#v" x="259.146" y="199.518"/><path fill="none" stroke="#000" stroke-miterlimit="10" stroke-width=".399" d="m226.617 165.855 2.817-2.816m-2.817 0 2.817 2.816"/><use xlink:href="#l" x="193.243" y="160.367"/><use xlink:href="#m" x="196.904" y="160.367"/><use xlink:href="#n" x="200.566" y="160.367"/><use xlink:href="#r" x="204.227" y="160.367"/><use xlink:href="#w" x="207.888" y="160.367"/><use xlink:href="#z" x="211.549" y="160.367"/><use xlink:href="#H" x="215.211" y="160.367"/><use xlink:href="#o" x="222.533" y="160.367"/><use xlink:href="#p" x="226.194" y="160.367"/><use xlink:href="#q" x="229.856" y="160.367"/><use xlink:href="#r" x="233.517" y="160.367"/><use xlink:href="#s" x="237.178" y="160.367"/><use xlink:href="#u" x="244.501" y="160.367"/><use xlink:href="#w" x="248.162" y="160.367"/><use xlink:href="#m" x="251.823" y="160.367"/><use xlink:href="#r" x="255.485" y="160.367"/><use xlink:href="#v" x="259.146" y="160.367"/></svg>