<svg xmlns="http://www.w3.org/2000/svg" xmlns:xlink="http://www.w3.org/1999/xlink" width="182.414" height="104.564"><defs><path id="b" d="M2.5-5.078c0-.219-.016-.219-.234-.219-.328.313-.75.5-1.5.5v.266c.218 0 .64 0 1.109-.203v4.078c0 .297-.031.39-.781.39H.812V0c.329-.031 1.016-.031 1.376-.031s1.046 0 1.374.031v-.266h-.28c-.75 0-.782-.093-.782-.39Zm0 0"/><path id="d" d="M3.89-2.547c0-.844-.078-1.36-.343-1.875-.344-.703-1-.875-1.438-.875-1 0-1.375.75-1.484.969C.344-3.75.328-2.953.328-2.547c0 .531.016 1.328.406 1.969.36.594.954.75 1.375.75.391 0 1.063-.125 1.47-.906.296-.578.312-1.297.312-1.813M2.11-.062c-.266 0-.813-.125-.985-.954-.094-.453-.094-1.203-.094-1.625 0-.546 0-1.109.094-1.546.172-.813.781-.891.984-.891.266 0 .829.14.985.86.094.437.094 1.046.094 1.577 0 .47 0 1.188-.094 1.641-.172.828-.719.938-.985.938m0 0"/><path id="c" d="M1.625-1.984a.453.453 0 0 0-.453-.453A.437.437 0 0 0 .734-2a.45.45 0 0 0 .438.453c.25 0 .453-.219.453-.437m0 0"/><path id="e" d="M4.766-1.344c.093 0 .25 0 .25-.156s-.157-.156-.25-.156H1c-.11 0-.25 0-.25.156s.14.156.25.156Zm0 0"/><path id="f" d="M3.219-1.125H3c-.016.094-.078.484-.156.547-.047.047-.531.047-.625.047h-1.11l.766-.625c.203-.172.734-.547.922-.735.172-.171.422-.484.422-.906 0-.75-.672-1.187-1.485-1.187-.765 0-1.296.515-1.296 1.078 0 .297.25.344.312.344a.32.32 0 0 0 .328-.329c0-.125-.078-.328-.344-.328.141-.297.5-.531.922-.531.625 0 .953.469.953.953 0 .422-.28.86-.687 1.25L.5-.25C.438-.187.438-.187.438 0H3.03Zm0 0"/><path id="h" d="M3.375-.984v-.235h-.703v-2.64c0-.141 0-.188-.14-.188-.11 0-.126.031-.173.094L.281-1.22v.235h1.86V-.5c0 .188 0 .266-.5.266h-.188V0c.125 0 .688-.031.953-.031.266 0 .828.031.938.031v-.234h-.172c-.5 0-.5-.078-.5-.266v-.484ZM2.172-3.391v2.172H.532Zm0 0"/><path id="i" d="M1.766-1.984c.5 0 .843.343.843.953 0 .656-.39.937-.828.937C1.61-.094 1-.125.734-.469c.235-.031.329-.187.329-.343a.33.33 0 0 0-.344-.344.34.34 0 0 0-.344.36c0 .593.656.921 1.422.921.89 0 1.469-.562 1.469-1.156 0-.438-.328-.907-1.047-1.078.484-.157.86-.547.86-1.032 0-.484-.563-.843-1.282-.843-.703 0-1.234.328-1.234.812 0 .266.203.328.328.328.156 0 .312-.094.312-.312 0-.188-.125-.297-.297-.313.282-.312.828-.312.89-.312.298 0 .688.14.688.64 0 .329-.187.907-.796.938-.11 0-.266.015-.313.015-.062.016-.125.016-.125.11s.063.094.156.094Zm0 0"/><path id="g" d="M1.625-.437a.463.463 0 0 0-.453-.454.447.447 0 0 0-.438.438.44.44 0 0 0 .438.453.45.45 0 0 0 .453-.437m0 0"/><path id="j" d="M1.484-.125c0 .516-.109.984-.593 1.469-.032.031-.047.047-.047.078 0 .062.062.11.11.11.093 0 .765-.626.765-1.563 0-.5-.203-.86-.547-.86a.436.436 0 0 0-.438.438c0 .234.157.453.438.453.203 0 .312-.11.312-.125m0 0"/><clipPath id="a"><path d="M24 0h158.121v101H24Zm0 0"/></clipPath></defs><path fill="none" stroke="#7F7F7F" stroke-linecap="round" stroke-miterlimit="10" stroke-width=".399" d="M33.387 93.86v-1.997M68.82 93.86v-1.997M104.254 93.86v-1.997M139.688 93.86v-1.997M175.117 93.86v-1.997M33.387 4.273V2.281M68.82 4.273V2.281M104.254 4.273V2.281M139.688 4.273V2.281M175.117 4.273V2.281M31.395 91.367h1.992M31.395 80.48h1.992M31.395 69.594h1.992M31.395 58.707h1.992M31.395 47.82h1.992M31.395 36.934h1.992M31.395 26.047h1.992M31.395 15.16h1.992M31.395 4.273h1.992M175.121 91.367h1.992M175.121 80.48h1.992M175.121 69.594h1.992M175.121 58.707h1.992M175.121 47.82h1.992M175.121 36.934h1.992M175.121 26.047h1.992M175.121 15.16h1.992M175.121 4.273h1.992"/><path fill="none" stroke="#7F7F7F" stroke-miterlimit="10" stroke-width=".399" d="M33.387 91.863H175.12M33.387 4.273H175.12M33.387 91.863V4.273M175.121 91.863V4.273"/><g clip-path="url(#a)"><path fill="none" stroke="#000" stroke-miterlimit="10" stroke-width=".598" d="m33.387 91.863 92.863-57.558 10.645-6.543 6.234-3.832 4.426-2.72 3.43-2.108 2.804-1.723 2.371-1.457 2.055-1.262 1.812-1.113 1.621-.996 1.465-.903 1.34-.82 1.23-.758 1.141-.699 1.063-.652.992-.61.934-.574.878-.543.832-.508.79-.484.75-.46.718-.442.684-.422.652-.403"/></g><use xlink:href="#b" x="19.023" y="103.179"/><use xlink:href="#c" x="25.139" y="103.179"/><use xlink:href="#b" x="29.373" y="103.179"/><use xlink:href="#d" x="33.608" y="103.179"/><use xlink:href="#e" x="37.841" y="100.366"/><use xlink:href="#f" x="43.597" y="100.366"/><use xlink:href="#d" x="63.408" y="101.65"/><use xlink:href="#g" x="67.642" y="101.65"/><use xlink:href="#b" x="69.994" y="101.65"/><use xlink:href="#b" x="102.134" y="101.65"/><use xlink:href="#b" x="135.45" y="101.65"/><use xlink:href="#d" x="139.685" y="101.65"/><use xlink:href="#b" x="168.765" y="101.65"/><use xlink:href="#d" x="173" y="101.65"/><use xlink:href="#d" x="177.234" y="101.65"/><use xlink:href="#b" x=".011" y="94.7"/><use xlink:href="#c" x="6.127" y="94.7"/><use xlink:href="#b" x="10.361" y="94.7"/><use xlink:href="#d" x="14.596" y="94.7"/><use xlink:href="#e" x="18.83" y="91.887"/><use xlink:href="#h" x="24.586" y="91.887"/><use xlink:href="#b" x=".011" y="83.813"/><use xlink:href="#c" x="6.127" y="83.813"/><use xlink:href="#b" x="10.361" y="83.813"/><use xlink:href="#d" x="14.596" y="83.813"/><use xlink:href="#e" x="18.83" y="81"/><use xlink:href="#i" x="24.586" y="81"/><use xlink:href="#b" x=".011" y="72.927"/><use xlink:href="#c" x="6.127" y="72.927"/><use xlink:href="#b" x="10.361" y="72.927"/><use xlink:href="#d" x="14.596" y="72.927"/><use xlink:href="#e" x="18.83" y="70.114"/><use xlink:href="#f" x="24.586" y="70.114"/><use xlink:href="#d" x="17.916" y="61.276"/><use xlink:href="#g" x="22.151" y="61.276"/><use xlink:href="#b" x="24.503" y="61.276"/><use xlink:href="#b" x="24.503" y="50.389"/><use xlink:href="#b" x="20.269" y="39.503"/><use xlink:href="#d" x="24.504" y="39.503"/><use xlink:href="#b" x="16.034" y="28.617"/><use xlink:href="#d" x="20.269" y="28.617"/><use xlink:href="#d" x="24.503" y="28.617"/><use xlink:href="#b" x="9.448" y="16.955"/><use xlink:href="#j" x="13.682" y="16.955"/><use xlink:href="#d" x="16.034" y="16.955"/><use xlink:href="#d" x="20.269" y="16.955"/><use xlink:href="#d" x="24.503" y="16.955"/><use xlink:href="#b" x="5.214" y="6.069"/><use xlink:href="#d" x="9.449" y="6.069"/><use xlink:href="#j" x="13.682" y="6.069"/><use xlink:href="#d" x="16.034" y="6.069"/><use xlink:href="#d" x="20.269" y="6.069"/><use xlink:href="#d" x="24.503" y="6.069"/></svg>