<svg xmlns="http://www.w3.org/2000/svg" width="87.356" height="59.114"><defs><clipPath id="a"><path d="M0 0h64v58.672H0Zm0 0"/></clipPath></defs><path fill="none" stroke="#7F7F7F" stroke-miterlimit="10" stroke-width=".199" d="M.895 57.469h85.039M.894 29.12h85.04M.894.785h85.04M.894 57.47V.773M29.243 57.47V.773M57.59 57.47V.773M85.926 57.47V.773"/><g clip-path="url(#a)"><path fill="none" stroke="#000" stroke-miterlimit="10" stroke-width=".399" d="M15.07 57.469a22 22 0 0 0-.273-2.766c-.211-.902-.48-1.793-.809-2.66a21 21 0 0 0-1.308-2.45 21 21 0 0 0-1.762-2.148 22 22 0 0 0-2.148-1.761 21 21 0 0 0-2.45-1.309 21 21 0 0 0-2.66-.809 21 21 0 0 0-2.765-.273m28.347 14.176a43 43 0 0 0-.547-5.532 41 41 0 0 0-1.613-5.316 42 42 0 0 0-2.617-4.902 43 43 0 0 0-3.527-4.297 43 43 0 0 0-4.293-3.524 43 43 0 0 0-4.903-2.617 41.5 41.5 0 0 0-5.316-1.613 42 42 0 0 0-5.531-.547m42.52 28.348a64 64 0 0 0-.817-8.297 64 64 0 0 0-2.422-7.977 63 63 0 0 0-3.93-7.347 63 63 0 0 0-5.285-6.446 64 64 0 0 0-6.445-5.289 63 63 0 0 0-7.352-3.925 63 63 0 0 0-7.977-2.422 64 64 0 0 0-8.292-.82M57.59 57.468a85 85 0 0 0-1.094-11.063 84 84 0 0 0-3.226-10.633 84.5 84.5 0 0 0-5.239-9.8 86 86 0 0 0-7.047-8.594 86 86 0 0 0-8.593-7.05 85 85 0 0 0-9.801-5.235 85 85 0 0 0-10.637-3.23A86 86 0 0 0 .895.773m0 56.695H57.59m-56.695 0 13.957-2.461q6.983-1.235 13.96-2.465l13.958-2.461 13.957-2.46M.895 57.468q6.659-2.427 13.32-4.848c4.437-1.617 8.879-3.234 13.316-4.848q6.662-2.426 13.32-4.847c4.438-1.617 8.88-3.235 13.317-4.848M.895 57.468q6.139-3.544 12.273-7.09 6.14-3.539 12.277-7.085 6.137-3.543 12.274-7.086 6.137-3.546 12.273-7.086M.895 57.47c3.62-3.04 7.238-6.074 10.859-9.114l10.855-9.109q5.43-4.554 10.86-9.11c3.617-3.038 7.238-6.073 10.855-9.113M.894 57.47q4.559-5.43 9.11-10.86 4.556-5.427 9.113-10.855c3.035-3.621 6.074-7.238 9.11-10.86l9.109-10.855M.895 57.47C3.258 53.375 5.62 49.285 7.98 45.19q3.546-6.137 7.09-12.273c2.36-4.09 4.723-8.184 7.086-12.273 2.36-4.094 4.723-8.184 7.086-12.278M.895 57.47q2.424-6.662 4.847-13.32c1.617-4.442 3.23-8.88 4.848-13.32 1.617-4.438 3.23-8.88 4.848-13.317 1.617-4.442 3.23-8.88 4.847-13.32M.895 57.468l2.46-13.961L5.816 29.55l2.461-13.957 2.461-13.961M.895 57.469q.001-7.089.003-14.176V29.121q.005-7.089.004-14.172Q.901 7.862.906.773"/></g></svg>