<svg xmlns="http://www.w3.org/2000/svg" width="87.465" height="87.464"><defs><clipPath id="a"><path d="M0 0h87.2v87.195H0Zm0 0"/></clipPath></defs><g clip-path="url(#a)"><path fill="none" stroke="#000" stroke-miterlimit="10" stroke-width=".399" d="M85.988 43.469c0-23.485-19.035-42.52-42.52-42.52C19.985.95.95 19.984.95 43.47c0 23.484 19.035 42.52 42.52 42.52 23.484 0 42.52-19.036 42.52-42.52Zm0 0"/></g><path d="M68.02 29.297c-3.915-6.781-18.079-5.93-31.637 1.898S15.008 50.863 18.922 57.641c3.914 6.78 18.074 5.93 31.633-1.899S71.934 36.074 68.02 29.297m0 0"/></svg>