<svg xmlns="http://www.w3.org/2000/svg" xmlns:xlink="http://www.w3.org/1999/xlink" width="52.346" height="14.618"><defs><clipPath id="a"><path d="M0 0h52.02v14.426H0Zm0 0"/></clipPath><path id="b" d="M8.25 0v-.469h-.969L4.72-6.703c-.11-.25-.219-.25-.39-.25-.282 0-.329.078-.391.25l-2.47 6c-.062.156-.093.234-.843.234H.406V0l1.172-.031c.39 0 .938 0 1.313.031v-.469S2-.469 2-.594l.047-.125.5-1.203h2.672l.593 1.453H4.86V0c.391-.031 1.329-.031 1.766-.031.39 0 1.266 0 1.625.031M5.016-2.39H2.734l1.141-2.766Zm0 0"/></defs><g clip-path="url(#a)"><path fill="none" stroke="#BFBFBF" stroke-miterlimit="10" stroke-width=".399" d="m4.59 9.957 14.172-5.668 14.172 5.668 14.175-5.668"/></g><use xlink:href="#b" x=".259" y="13.435" fill="#D2C92A"/><use xlink:href="#b" x="14.432" y="7.765" fill="#D2C92A"/><use xlink:href="#b" x="28.605" y="13.435" fill="#D2C92A"/><use xlink:href="#b" x="42.779" y="7.765" fill="#D2C92A"/></svg>