<svg xmlns="http://www.w3.org/2000/svg" width="87.284" height="58.97"><defs><clipPath id="a"><path d="M0 23h35v35.953H0Zm0 0"/></clipPath><clipPath id="b"><path d="M0 23h38v35.953H0Zm0 0"/></clipPath><clipPath id="c"><path d="M23 23h61v35.953H23Zm0 0"/></clipPath><clipPath id="d"><path d="M23 20h58v38.953H23Zm0 0"/></clipPath></defs><path fill="none" stroke="#7F7F7F" stroke-miterlimit="10" stroke-width=".199" d="M.785 57.777h85.043M.785 29.43h85.043M.785 1.094h85.043M.785 57.777V1.086m28.348 56.691V1.086M57.48 57.777V1.086m28.336 56.691V1.086"/><g clip-path="url(#a)"><path fill="none" stroke="#000" stroke-miterlimit="10" stroke-width=".399" d="M.785 57.777 29.133 29.43"/></g><g clip-path="url(#b)"><path fill="none" stroke="red" stroke-miterlimit="10" stroke-width=".399" d="M.785 57.777 32.121 29.43"/></g><g clip-path="url(#c)"><path fill="none" stroke="#000" stroke-miterlimit="10" stroke-width=".399" d="M29.133 57.777 78.23 29.43"/></g><g clip-path="url(#d)"><path fill="none" stroke="red" stroke-miterlimit="10" stroke-width=".399" d="M29.133 57.777 74.71 25.91"/></g></svg>