<svg xmlns="http://www.w3.org/2000/svg" xmlns:xlink="http://www.w3.org/1999/xlink" width="87.068" height="130.628"><defs><path id="b" d="M7.5-1.86c0-.952-.844-1.624-2.031-1.702 1.078-.204 1.718-.797 1.718-1.563 0-.922-.875-1.719-2.468-1.719H.39v.469h1.078v5.906H.39V0h4.625C6.672 0 7.5-.875 7.5-1.86M5.766-5.124c0 .766-.47 1.39-1.438 1.39H2.766v-2.64h1.812c1.016 0 1.188.797 1.188 1.25m.28 3.266c0 .109 0 1.39-1.437 1.39H2.766v-2.906h1.937c.203 0 .672 0 1.016.422.328.422.328.984.328 1.094m0 0"/><path id="c" d="M6.125 0v-.469c-.61 0-.687 0-.687-.39v-3.625l-1.813.078v.468c.61 0 .688 0 .688.391v1.906c0 .813-.516 1.344-1.235 1.344-.781 0-.812-.25-.812-.797v-3.39l-1.813.078v.468c.61 0 .688 0 .688.391v2.328c0 1.063.797 1.282 1.797 1.282.25 0 .968 0 1.421-.782v.782Zm0 0"/><path id="d" d="M4.406-3.672c0-.531-.531-.812-1.062-.812-.688 0-1.094.5-1.313 1.125v-1.125l-1.656.078v.468c.61 0 .688 0 .688.391v3.078H.375V0l1.25-.031C2-.031 2.641-.031 3 0v-.469h-.86v-1.75c0-.687.235-1.906 1.235-1.906 0 0-.187.172-.187.453 0 .406.328.61.609.61.297 0 .61-.204.61-.61m0 0"/><path id="e" d="M4.14-1.39c0-.438-.202-.782-.546-1.063-.39-.281-.719-.344-1.485-.485-.375-.062-1.015-.171-1.015-.64 0-.625.922-.625 1.11-.625.75 0 1.124.297 1.171.844.016.156.031.203.234.203.235 0 .235-.047.235-.281v-.797c0-.188 0-.282-.172-.282-.047 0-.063 0-.453.188-.266-.125-.61-.188-1-.188-.313 0-1.844 0-1.844 1.313 0 .39.203.656.406.828.39.344.782.406 1.547.547.36.062 1.094.187 1.094.781 0 .75-.906.75-1.125.75C1.234-.297.984-1.03.859-1.453c-.046-.14-.109-.14-.234-.14-.25 0-.25.062-.25.28v1.094c0 .188 0 .282.188.282.062 0 .078 0 .296-.157l.25-.172c.47.329.985.329 1.188.329.312 0 1.844 0 1.844-1.454m0 0"/><path id="f" d="M3.813-1.234v-.532h-.47v.516c0 .672-.327.906-.609.906-.578 0-.578-.64-.578-.86v-2.75h1.469v-.468H2.156v-1.906h-.469c0 1-.484 1.984-1.484 2.016v.359h.828v2.734c0 1.063.86 1.282 1.578 1.282.75 0 1.204-.579 1.204-1.297m0 0"/><path id="g" d="M4.922 0v-.469h-1.39v-5.734c0-.234 0-.328-.266-.328-.11 0-.125 0-.22.078-.765.562-1.796.562-2 .562H.845v.47h.203c.156 0 .703-.016 1.297-.204v5.156H.954V0c.437-.031 1.5-.031 1.984-.031s1.546 0 1.984.031m0 0"/><path id="i" d="M5.156-2.219h-.468c-.032.203-.125.844-.266.906-.11.063-.86.063-1.016.063H1.937c.47-.39 1-.812 1.438-1.14 1.14-.844 1.781-1.313 1.781-2.25 0-1.157-1.047-1.891-2.437-1.891-1.219 0-2.156.625-2.156 1.515 0 .594.484.735.718.735C1.61-4.281 2-4.5 2-5c0-.516-.422-.672-.562-.719.28-.234.671-.343 1.03-.343.845 0 1.313.671 1.313 1.421 0 .688-.375 1.375-1.078 2.079l-2 2.046c-.14.11-.14.141-.14.344V0h4.28Zm0 0"/><path id="k" d="M5.25-1.797c0-.547-.297-1.406-1.734-1.719.687-.203 1.406-.765 1.406-1.625 0-.765-.75-1.39-2.156-1.39-1.188 0-1.97.64-1.97 1.437 0 .422.313.703.688.703a.67.67 0 0 0 .704-.687c0-.578-.547-.688-.579-.703.344-.282.782-.36 1.094-.36.828 0 .86.641.86.97 0 .124-.016 1.437-1.047 1.5-.407.015-.438.015-.485.03-.094.016-.125.11-.125.172 0 .172.11.172.282.172h.437c1.094 0 1.094.985 1.094 1.5 0 .469 0 1.485-1.031 1.485-.266 0-.782-.047-1.266-.344C1.75-.75 2-1 2-1.406c0-.453-.312-.75-.75-.75-.422 0-.766.265-.766.765 0 .907.97 1.5 2.25 1.5 1.782 0 2.516-1 2.516-1.906m0 0"/><path id="m" d="M5.406 0v-.469h-.968v-1.094h.968v-.468h-.968V-6.22c0-.265-.016-.328-.297-.328-.22 0-.22.016-.344.172L.313-2.031v.469h2.875V-.47h-1.11V0c.375-.031 1.281-.031 1.703-.031.406 0 1.266 0 1.625.031m-2.11-2.031H.845L3.297-5.11Zm0 0"/><clipPath id="a"><path d="M0 80h86.602v50.441H0Zm0 0"/></clipPath><clipPath id="h"><path d="M0 52h86.602v53H0Zm0 0"/></clipPath><clipPath id="j"><path d="M0 23h86.602v54H0Zm0 0"/></clipPath><clipPath id="l"><path d="M0 0h86.602v48H0Zm0 0"/></clipPath></defs><path fill="#7F7F7F" fill-opacity=".5" d="m43.656 88.594-5.765 10.3-7.938-5.624-2.824 6.894-13.625-8.812 5.101 11.183-10.296-2.11 5.152 5.259-9.672.937 8.61 2.563-6.036 3.757 9.192-.375-6.832 8.965 13.785-6.156 2.008 5.29 7.8-3.438L35.7 129.43l7.957-11.559 7.172 7.344L55 117.227l7.84 3.503 1.969-5.355 10.882 3.965-3.93-6.774 13.837 1.696-10.68-5.078 5.246-2.25-6.309-1.25 7.383-6.368-12.527 3.22 1.937-7.716-10.464 5.344-.985-11.629-9.773 10.36Zm0 0"/><path fill="#FFF" d="m41.445 86.383-5.765 10.3-7.942-5.624-2.82 6.894-13.625-8.812 5.098 11.183-10.293-2.11 5.152 5.259-9.672.937 8.61 2.563-6.04 3.757 9.196-.375-6.832 8.965 13.785-6.156 2.008 5.29 7.8-3.438 3.383 12.203 7.957-11.559 7.172 7.344 4.168-7.988 7.844 3.504 1.969-5.356 10.882 3.965-3.933-6.774 13.836 1.696-10.676-5.078 5.246-2.25-6.312-1.25 7.386-6.368-12.527 3.22 1.938-7.716-10.465 5.344-.985-11.633-9.773 10.364Zm0 0"/><g clip-path="url(#a)"><path fill="none" stroke="#000" stroke-miterlimit="10" stroke-width=".399" d="m41.445 86.383-5.765 10.3-7.942-5.624-2.82 6.894-13.625-8.812 5.098 11.183-10.293-2.11 5.152 5.259-9.672.937 8.61 2.563-6.04 3.757 9.196-.375-6.832 8.965 13.785-6.156 2.008 5.29 7.8-3.438 3.383 12.203 7.957-11.559 7.172 7.344 4.168-7.988 7.844 3.504 1.969-5.356 10.882 3.965-3.933-6.774 13.836 1.696-10.676-5.078 5.246-2.25-6.312-1.25 7.386-6.368-12.527 3.22 1.938-7.716-10.465 5.344-.985-11.633-9.773 10.364Zm0 0"/></g><use xlink:href="#b" x="22.567" y="109.478"/><use xlink:href="#c" x="30.716" y="109.478"/><use xlink:href="#d" x="37.083" y="109.478"/><use xlink:href="#e" x="41.805" y="109.478"/><use xlink:href="#f" x="46.328" y="109.478"/><use xlink:href="#g" x="54.597" y="109.478"/><path fill="#7F7F7F" fill-opacity=".5" d="m43.656 60.246-5.765 10.3-7.938-5.624-2.824 6.894-13.625-8.808 5.101 11.18L8.31 72.082l5.152 5.254-9.672.937 8.61 2.567-6.036 3.754 9.192-.371-6.832 8.96 13.785-6.156 2.008 5.29 7.8-3.438 3.383 12.203 7.957-11.555 7.172 7.34L55 88.88l7.84 3.504 1.969-5.356 10.882 3.965-3.93-6.77 13.837 1.692-10.68-5.074 5.246-2.254-6.309-1.25 7.383-6.367-12.527 3.219 1.937-7.711-10.464 5.34-.985-11.63-9.773 10.36Zm0 0"/><path fill="#FFF" d="m41.445 58.035-5.765 10.3-7.942-5.624-2.82 6.894-13.625-8.812 5.098 11.184-10.293-2.11 5.152 5.258-9.672.938 8.61 2.562-6.04 3.758 9.196-.375-6.832 8.965 13.785-6.157 2.008 5.29 7.8-3.438 3.383 12.203 7.957-11.558 7.172 7.343 4.168-7.988 7.844 3.504 1.969-5.356 10.882 3.965-3.933-6.773 13.836 1.695-10.676-5.078 5.246-2.25-6.312-1.25 7.386-6.367L66.5 71.977l1.938-7.715-10.465 5.343-.985-11.628-9.773 10.359Zm0 0"/><g clip-path="url(#h)"><path fill="none" stroke="#000" stroke-miterlimit="10" stroke-width=".399" d="m41.445 58.035-5.765 10.3-7.942-5.624-2.82 6.894-13.625-8.812 5.098 11.184-10.293-2.11 5.152 5.258-9.672.938 8.61 2.562-6.04 3.758 9.196-.375-6.832 8.965 13.785-6.157 2.008 5.29 7.8-3.438 3.383 12.203 7.957-11.558 7.172 7.343 4.168-7.988 7.844 3.504 1.969-5.356 10.882 3.965-3.933-6.773 13.836 1.695-10.676-5.078 5.246-2.25-6.312-1.25 7.386-6.367L66.5 71.977l1.938-7.715-10.465 5.343-.985-11.628-9.773 10.359Zm0 0"/></g><use xlink:href="#b" x="22.567" y="81.132"/><use xlink:href="#c" x="30.716" y="81.132"/><use xlink:href="#d" x="37.083" y="81.132"/><use xlink:href="#e" x="41.805" y="81.132"/><use xlink:href="#f" x="46.328" y="81.132"/><use xlink:href="#i" x="54.597" y="81.132"/><path fill="#7F7F7F" fill-opacity=".5" d="m43.656 31.863-5.765 10.305-7.938-5.625-2.824 6.898-13.625-8.808 5.101 11.187L8.31 43.72l5.152 5.261-9.672.946 8.61 2.57-6.036 3.762 9.192-.367-6.832 8.968 13.785-6.152L24.516 64l7.8-3.434L35.7 72.77l7.957-11.555 7.172 7.34L55 60.566l7.84 3.5 1.969-5.359 10.882 3.961-3.93-6.777 13.837 1.687-10.68-5.082 5.246-2.262-6.309-1.254 7.383-6.375-12.527 3.215 1.937-7.718-10.464 5.34-.985-11.633-9.773 10.359Zm0 0"/><path fill="#FFF" d="M41.445 29.652 35.68 39.953l-7.942-5.621-2.82 6.898-13.625-8.808 5.098 11.187-10.293-2.101 5.152 5.262-9.672.94 8.61 2.571-6.04 3.766 9.196-.367-6.832 8.968 13.785-6.152 2.008 5.293 7.8-3.434 3.383 12.204 7.957-11.555 7.172 7.34 4.168-7.989 7.844 3.5 1.969-5.359 10.882 3.961-3.933-6.777 13.836 1.687-10.676-5.086 5.246-2.258-6.312-1.253 7.386-6.375L66.5 43.609l1.938-7.718-10.465 5.34-.985-11.637-9.773 10.36Zm0 0"/><g clip-path="url(#j)"><path fill="none" stroke="#000" stroke-miterlimit="10" stroke-width=".399" d="M41.445 29.652 35.68 39.953l-7.942-5.621-2.82 6.898-13.625-8.808 5.098 11.187-10.293-2.101 5.152 5.262-9.672.94 8.61 2.571-6.04 3.766 9.196-.367-6.832 8.968 13.785-6.152 2.008 5.293 7.8-3.434 3.383 12.204 7.957-11.555 7.172 7.34 4.168-7.989 7.844 3.5 1.969-5.359 10.882 3.961-3.933-6.777 13.836 1.687-10.676-5.086 5.246-2.258-6.312-1.253 7.386-6.375L66.5 43.609l1.938-7.718-10.465 5.34-.985-11.637-9.773 10.36Zm0 0"/></g><use xlink:href="#b" x="22.567" y="52.76"/><use xlink:href="#c" x="30.716" y="52.76"/><use xlink:href="#d" x="37.083" y="52.76"/><use xlink:href="#e" x="41.805" y="52.76"/><use xlink:href="#f" x="46.328" y="52.76"/><use xlink:href="#k" x="54.597" y="52.76"/><path fill="#7F7F7F" fill-opacity=".5" d="m43.656 3.555-5.765 10.3-7.938-5.625-2.824 6.895-13.625-8.812 5.101 11.18L8.31 15.386l5.152 5.254-9.672.941 8.61 2.563-6.036 3.757 9.192-.375-6.832 8.961 13.785-6.152 2.008 5.289 7.8-3.437L35.7 44.39l7.957-11.559 7.172 7.344L55 32.187l7.84 3.5 1.969-5.351L75.69 34.3l-3.93-6.774 13.837 1.696-10.68-5.078 5.246-2.254-6.309-1.25 7.383-6.364-12.527 3.215 1.937-7.71-10.464 5.343-.985-11.633-9.773 10.363Zm0 0"/><path fill="#FFF" d="m41.445 1.34-5.765 10.3-7.942-5.62-2.82 6.894-13.625-8.812 5.098 11.18-10.293-2.106 5.152 5.254-9.672.941 8.61 2.563-6.04 3.753 9.196-.37-6.832 8.96 13.785-6.156 2.008 5.29 7.8-3.438 3.383 12.207 7.957-11.559 7.172 7.344 4.168-7.992 7.844 3.504 1.969-5.356L73.48 32.09l-3.933-6.774 13.836 1.692-10.676-5.074 5.246-2.254-6.312-1.25 7.386-6.367L66.5 15.28l1.938-7.71-10.465 5.343-.985-11.633-9.773 10.36Zm0 0"/><g clip-path="url(#l)"><path fill="none" stroke="#000" stroke-miterlimit="10" stroke-width=".399" d="m41.445 1.34-5.765 10.3-7.942-5.62-2.82 6.894-13.625-8.812 5.098 11.18-10.293-2.106 5.152 5.254-9.672.941 8.61 2.563-6.04 3.754 9.196-.372-6.832 8.961 13.785-6.156 2.008 5.29 7.8-3.438 3.383 12.207 7.957-11.559 7.172 7.344 4.168-7.992 7.844 3.504 1.969-5.356L73.48 32.09l-3.933-6.774 13.836 1.692-10.676-5.074 5.246-2.254-6.312-1.25 7.386-6.367L66.5 15.28l1.938-7.71-10.465 5.343-.985-11.633-9.773 10.36Zm0 0"/></g><use xlink:href="#b" x="22.567" y="24.439"/><use xlink:href="#c" x="30.716" y="24.439"/><use xlink:href="#d" x="37.083" y="24.439"/><use xlink:href="#e" x="41.805" y="24.439"/><use xlink:href="#f" x="46.328" y="24.439"/><use xlink:href="#m" x="54.597" y="24.439"/></svg>