<svg xmlns="http://www.w3.org/2000/svg" width="89.811" height="61.346"><defs><clipPath id="a"><path d="M0 23h89.715v38.02H0Zm0 0"/></clipPath><clipPath id="b"><path d="M0 10h89.715v51.02H0Zm0 0"/></clipPath></defs><path fill="none" stroke="#7F7F7F" stroke-miterlimit="10" stroke-width=".199" d="M3.469 57.465h85.039M3.468 29.12h85.04M3.468.781h85.04M3.468 57.465V.773m28.345 56.692V.773M60.16 57.465V.773m28.336 56.692V.773"/><g clip-path="url(#a)"><path fill="none" stroke="#000" stroke-miterlimit="10" stroke-width=".399" d="M3.469 57.465 31.813 29.12c31.312 0 56.695 12.688 56.695 28.344"/></g><g clip-path="url(#b)"><path fill="none" stroke="red" stroke-miterlimit="10" stroke-width="1.196" d="m1.34 55.34 4.254 4.254m-4.254 0 4.254-4.254m2.793-7.043 4.25 4.25m-4.25 0 4.25-4.25m2.793-7.047 4.254 4.254m-4.254 0 4.254-4.254m2.793-7.043 4.25 4.25m-4.25 0 4.25-4.25m2.793-7.047 4.253 4.254m-4.253 0 4.253-4.254m5.657.25 4.254 4.254m-4.254 0 4.254-4.254m5.617 1.324 4.254 4.254m-4.254 0 4.254-4.254m5.425 2.332 4.254 4.25m-4.254 0 4.254-4.25m5.063 3.516 4.25 4.25m-4.25 0 4.25-4.25m4.324 5.035 4.25 4.254m-4.25 0 4.25-4.254m2.617 7.145 4.254 4.25m-4.254 0 4.254-4.25"/></g></svg>