<svg xmlns="http://www.w3.org/2000/svg" width="87.068" height="31.79"><defs><clipPath id="a"><path d="M57.242 24H60v5.254h-2.758Zm0 0"/></clipPath><clipPath id="b"><path d="M58.23 24H71v5.254H58.23Zm0 0"/></clipPath><clipPath id="c"><path d="M70 24h13v5.254H70Zm0 0"/></clipPath><clipPath id="d"><path d="M81 24h4.586v5.254H81Zm0 0"/></clipPath><clipPath id="e"><path d="M57.242 12H60v13.629h-2.758Zm0 0"/></clipPath><clipPath id="f"><path d="M58.23 12H71v13.629H58.23Zm0 0"/></clipPath><clipPath id="g"><path d="M70 12h13v13.629H70Zm0 0"/></clipPath><clipPath id="h"><path d="M81 12h4.586v13.629H81Zm0 0"/></clipPath><clipPath id="i"><path d="M57.242 1H60v13h-2.758Zm0 0"/></clipPath><clipPath id="j"><path d="M58.23 1H71v13H58.23Zm0 0"/></clipPath><clipPath id="k"><path d="M81 1h4.586v13H81Zm0 0"/></clipPath><clipPath id="l"><path d="M57.242.906H60v2.047h-2.758Zm0 0"/></clipPath><clipPath id="m"><path d="M58.23.906H71v2.047H58.23Zm0 0"/></clipPath><clipPath id="n"><path d="M70 .906h13v2.047H70Zm0 0"/></clipPath><clipPath id="o"><path d="M81 .906h4.586v2.047H81Zm0 0"/></clipPath><clipPath id="p"><path d="M0 0h86.602v31.684H0Zm0 0"/></clipPath></defs><path fill="#7F7F7F" d="M57.242 29.254V.906h28.344v28.348Zm0 0"/><g clip-path="url(#a)"><path fill="none" stroke="#000" stroke-miterlimit="10" stroke-width=".797" d="M47.887 33.137h11.34m-11.34-5.668h11.34m-8.504 8.504v-2.836m5.668 0v-5.668m-5.668 0v-2.836"/></g><g clip-path="url(#b)"><path fill="none" stroke="#000" stroke-miterlimit="10" stroke-width=".797" d="M59.227 33.137h11.34m-11.34-5.668h11.34m-8.504 8.504v-2.836m5.667 0v-5.668m-5.668 0v-2.836"/></g><g clip-path="url(#c)"><path fill="none" stroke="#000" stroke-miterlimit="10" stroke-width=".797" d="M70.566 33.137h11.336m-11.336-5.668h11.336m-8.504 8.504v-2.836m5.672 0v-5.668m-5.672 0v-2.836"/></g><g clip-path="url(#d)"><path fill="none" stroke="#000" stroke-miterlimit="10" stroke-width=".797" d="M81.902 33.137h11.34m-11.34-5.668h11.34m-8.504 8.504v-2.836m5.672 0v-5.668m-5.672 0v-2.836"/></g><g clip-path="url(#e)"><path fill="none" stroke="#000" stroke-miterlimit="10" stroke-width=".797" d="M47.887 21.8h11.34m-11.34-5.671h11.34m-8.504 8.504V21.8m5.668 0v-5.672m-5.668 0v-2.832"/></g><g clip-path="url(#f)"><path fill="none" stroke="#000" stroke-miterlimit="10" stroke-width=".797" d="M59.227 21.8h11.34m-11.34-5.671h11.34m-8.504 8.504V21.8m5.667 0v-5.672m-5.668 0v-2.832"/></g><g clip-path="url(#g)"><path fill="none" stroke="#000" stroke-miterlimit="10" stroke-width=".797" d="M70.566 21.8h11.336M70.566 16.13h11.336m-8.504 8.504V21.8m5.672 0v-5.672m-5.672 0v-2.832"/></g><g clip-path="url(#h)"><path fill="none" stroke="#000" stroke-miterlimit="10" stroke-width=".797" d="M81.902 21.8h11.34m-11.34-5.671h11.34m-8.504 8.504V21.8m5.672 0v-5.672m-5.672 0v-2.832"/></g><g clip-path="url(#i)"><path fill="none" stroke="#000" stroke-miterlimit="10" stroke-width=".797" d="M47.887 10.46h11.34m-11.34-5.667h11.34m-8.504 8.504V10.46m5.668 0V4.793m-5.668 0V1.957"/></g><g clip-path="url(#j)"><path fill="none" stroke="#000" stroke-miterlimit="10" stroke-width=".797" d="M59.227 10.46h11.34m-11.34-5.667h11.34m-8.504 8.504V10.46m5.667 0V4.793m-5.668 0V1.957"/></g><path fill="none" stroke="#000" stroke-miterlimit="10" stroke-width=".797" d="M70.566 10.46h11.336M70.566 4.794h11.336m-8.504 8.504V10.46m5.672 0V4.793m-5.672 0V1.957"/><g clip-path="url(#k)"><path fill="none" stroke="#000" stroke-miterlimit="10" stroke-width=".797" d="M81.902 10.46h11.34m-11.34-5.667h11.34m-8.504 8.504V10.46m5.672 0V4.793m-5.672 0V1.957"/></g><g clip-path="url(#l)"><path fill="none" stroke="#000" stroke-miterlimit="10" stroke-width=".797" d="M47.887-.879h11.34m-11.34-5.668h11.34m-8.504 8.504V-.879m5.668 0v-5.668m-5.668 0v-2.836"/></g><g clip-path="url(#m)"><path fill="none" stroke="#000" stroke-miterlimit="10" stroke-width=".797" d="M59.227-.879h11.34m-11.34-5.668h11.34m-8.504 8.504V-.879m5.667 0v-5.668m-5.668 0v-2.836"/></g><g clip-path="url(#n)"><path fill="none" stroke="#000" stroke-miterlimit="10" stroke-width=".797" d="M70.566-.879h11.336M70.566-6.547h11.336m-8.504 8.504V-.879m5.672 0v-5.668m-5.672 0v-2.836"/></g><g clip-path="url(#o)"><path fill="none" stroke="#000" stroke-miterlimit="10" stroke-width=".797" d="M81.902-.879h11.34m-11.34-5.668h11.34m-8.504 8.504V-.879m5.672 0v-5.668m-5.672 0v-2.836"/></g><path fill="none" stroke="#000" stroke-miterlimit="10" stroke-width=".996" d="M57.738 29.254V.906"/><path fill="none" stroke="#FFBFBF" stroke-miterlimit="10" stroke-width="2.835" d="M.547 15.078h56.695"/><g clip-path="url(#p)"><path fill="none" stroke="red" stroke-miterlimit="10" stroke-width="2.835" d="M.547 29.254c26.738 0 28.258-12.613 52.133-14.043"/></g><path fill="none" stroke="red" stroke-linecap="round" stroke-linejoin="round" stroke-miterlimit="10" stroke-width="2.83485825" d="M31.02 13.215c2.136 3.586 4.667 4.781 6.863 4.894-1.7 1.391-3.031 3.856-2.625 8.012"/><path fill="none" stroke="red" stroke-linecap="round" stroke-linejoin="round" stroke-miterlimit="10" stroke-width="2.8348299" d="M38.91 10.281c1.574 3.867 3.899 5.426 6.05 5.867-1.886 1.122-3.573 3.356-3.8 7.528"/><path fill="none" stroke="red" stroke-linecap="round" stroke-linejoin="round" stroke-miterlimit="10" stroke-width="2.8348866" d="M48.957 8.445c.996 4.055 3.07 5.934 5.137 6.684-2.032.836-4.024 2.8-4.852 6.894"/></svg>