<svg xmlns="http://www.w3.org/2000/svg" width="63.172" height="63.164"><defs><clipPath id="a"><path d="M14 0h34v62.746H14Zm0 0"/></clipPath><clipPath id="b"><path d="M0 14h62.758v34H0Zm0 0"/></clipPath><clipPath id="c"><path d="M0 0h62.758v62.746H0Zm0 0"/></clipPath></defs><g fill="none" stroke="#000" stroke-miterlimit="10" stroke-width=".399" clip-path="url(#a)"><path d="M20.266 42.082c0-15.652 4.882-33.227 10.91-39.254 6.027-6.023 10.91 1.777 10.91 17.434 0 15.652-4.883 33.226-10.91 39.254-6.028 6.023-10.91-1.778-10.91-17.434ZM42.086 20.262l-21.82 21.82m10.91 17.434V2.828"/></g><g fill="none" stroke="#000" stroke-miterlimit="10" stroke-width=".399" clip-path="url(#b)"><path d="M20.266 42.082c15.652 0 33.226-4.883 39.254-10.91 6.023-6.027-1.778-10.91-17.434-10.91-15.652 0-33.227 4.883-39.254 10.91-6.023 6.027 1.777 10.91 17.434 10.91ZM42.086 20.262l-21.82 21.82M2.832 31.172H59.52"/></g><g clip-path="url(#c)"><path fill="none" stroke="#000" stroke-miterlimit="10" stroke-width=".399" d="M59.52 31.172c0-15.652-12.692-28.344-28.344-28.344S2.832 15.52 2.832 31.172s12.691 28.344 28.344 28.344c15.652 0 28.344-12.692 28.344-28.344Zm0 0"/></g><path fill="none" stroke="#000" stroke-miterlimit="10" stroke-width=".399" d="M2.832 31.172H59.52M31.176 59.516V2.828"/></svg>