<svg xmlns="http://www.w3.org/2000/svg" width="87.446" height="59.114"><defs><clipPath id="a"><path d="M0 0h87.168v58.672H0Zm0 0"/></clipPath></defs><path fill="none" stroke="#7F7F7F" stroke-miterlimit="10" stroke-width=".199" d="M.941 57.469h85.04M.94 29.12h85.04M.94.785h85.04M.94 57.47V.773M29.285 57.47V.773M57.633 57.47V.773M85.969 57.47V.773"/><path fill="#D2C92A" d="m.941 57.469.848-.285.852-.286.851-.28.848-.286.851-.281.848-.285.852-.282.851-.285.848-.281.851-.285.852-.281.848-.286.851-.285.852-.281.847-.285.852-.281.848-.286.851-.28.852-.286.847-.281.852-.285.852-.282.847-.285.852-.281.847-.285.852-.285.852-.282.847-.285.852-.281.851-.285.848-.281.852-.286.851-.28.848-.286.851-.281.848-.285.852-.286.851-.28.848-.286.851-.281.852-.285.848-.282.851-.285.848-.281.851-.285.852-.281.848-.286.851-.285.852-.281.847-.285.852-.281.851-.286.848-.28.852-.286.847-.281.852-.285.851-.282.848-.285.852-.281.851-.285.848-.285.851-.282.852-.285.848-.281.851-.285.848-.281.851-.286.852-.28.848-.286.851-.281.852-.285.847-.285.852-.282.848-.285.851-.281.852-.285.847-.282.852-.285.852-.281.847-.285.852-.281.851-.286.848-.285.852-.28.847-.286.852-.281.851-.285.848-.282.852-.285.851-.281.848-.285.851-.282.852-.285.848-.285.851-.281.848-.285.851-.282.852-.285.848-.28.851-.286.008-.902-.035-.563-.051-.559-.066-.562-.086-.555-.098-.554-.117-.551-.13-.547-.148-.543-.16-.54-.18-.534-.19-.528-.204-.523-.219-.52-.234-.511-.246-.504-.258-.5-.27-.496-.28-.485-.298-.48-.304-.473-.317-.469-.324-.457-.336-.453-.344-.441-.355-.438-.363-.43-.371-.421-.38-.414-.39-.41-.394-.403-.403-.39-.406-.387-.418-.379-.422-.371-.43-.363-.433-.36-.442-.351-.445-.344-.45-.336-.456-.328-.461-.324-.465-.317-.469-.308-.472-.305-.48-.297-.481-.289-.489-.281-.488-.278-.492-.273-.5-.262-.5-.258-.5-.253-.508-.247-.508-.238-.515-.234-.512-.227-.52-.222-.515-.215-1.047-.414-.527-.196-.532-.195-1.062-.367-1.07-.344-.54-.164-.539-.16-.543-.152-.543-.149-.542-.14-.547-.137-.547-.133-.551-.125-.547-.121-.55-.113-.551-.11-.555-.105-.555-.102-.555-.094-.554-.09-.555-.081-.559-.079-.558-.074-.559-.07-.558-.063-.559-.058-.558-.055-.563-.047-.562-.043-.56-.039-.562-.035-.562-.027-.563-.024-.562-.02-.563-.015-.562-.008-.563-.004h-.52L42.005.79l-.563.016-.562.02-1.125.054-.563.035-.562.04L38.07 1l-.562.05-.559.055-.558.06-.559.062-.559.07-1.117.156-.554.086-.559.09-.555.098-.55.101-.555.106-.551.109-.55.117-.552.125-.546.125-.547.133-.547.137-.543.144-.543.149-.54.156-.538.16-.54.164-.534.172-.536.176-.53.183-.532.188-.527.195-.528.2-.523.203-.52.21-.52.22-.515.222-.516.23-.511.235-.508.242-.504.246-.504.254-.5.258-.496.265-.492.274-.488.277-.485.285-.48.293-.477.297-.476.305-.47.312-.46.317-.461.324-.453.332-.45.34-.445.344-.437.355-.434.355-.43.368-.417.375-.415.379-.406.39-.402.395-.395.402-.382.41-.38.418-.37.422-.36.434-.351.437-.344.445-.332.454-.324.46-.313.47-.3.472-.294.484-.277.489-.27.492-.253.504-.243.508-.23.511-.215.52-.203.527-.188.527-.171.536-.157.539-.144.547-.13.546-.108.551-.094.555-.082.558-.063.56-.047.558-.03.562-.013.563z"/><g clip-path="url(#a)"><path fill="none" stroke="#000" stroke-miterlimit="10" stroke-width=".399" d="m.941 57.469.848-.285.852-.286.851-.28.848-.286.851-.281.848-.285.852-.282.851-.285.848-.281.851-.285.852-.281.848-.286.851-.285.852-.281.847-.285.852-.281.848-.286.851-.28.852-.286.847-.281.852-.285.852-.282.847-.285.852-.281.847-.285.852-.285.852-.282.847-.285.852-.281.851-.285.848-.281.852-.286.851-.28.848-.286.851-.281.848-.285.852-.286.851-.28.848-.286.851-.281.852-.285.848-.282.851-.285.848-.281.851-.285.852-.281.848-.286.851-.285.852-.281.847-.285.852-.281.851-.286.848-.28.852-.286.847-.281.852-.285.851-.282.848-.285.852-.281.851-.285.848-.285.851-.282.852-.285.848-.281.851-.285.848-.281.851-.286.852-.28.848-.286.851-.281.852-.285.847-.285.852-.282.848-.285.851-.281.852-.285.847-.282.852-.285.852-.281.847-.285.852-.281.851-.286.848-.285.852-.28.847-.286.852-.281.851-.285.848-.282.852-.285.851-.281.848-.285.851-.282.852-.285.848-.285.851-.281.848-.285.851-.282.852-.285.848-.28.851-.286.008-.902-.035-.563-.051-.559-.066-.562-.086-.555-.098-.554-.117-.551-.13-.547-.148-.543-.16-.54-.18-.534-.19-.528-.204-.523-.219-.52-.234-.511-.246-.504-.258-.5-.27-.496-.28-.485-.298-.48-.304-.473-.317-.469-.324-.457-.336-.453-.344-.441-.355-.438-.363-.43-.371-.421-.38-.414-.39-.41-.394-.403-.403-.39-.406-.387-.418-.379-.422-.371-.43-.363-.433-.36-.442-.351-.445-.344-.45-.336-.456-.328-.461-.324-.465-.317-.469-.308-.472-.305-.48-.297-.481-.289-.489-.281-.488-.278-.492-.273-.5-.262-.5-.258-.5-.253-.508-.247-.508-.238-.515-.234-.512-.227-.52-.222-.515-.215-1.047-.414-.527-.196-.532-.195-1.062-.367-1.07-.344-.54-.164-.539-.16-.543-.152-.543-.149-.542-.14-.547-.137-.547-.133-.551-.125-.547-.121-.55-.113-.551-.11-.555-.105-.555-.102-.555-.094-.554-.09-.555-.081-.559-.079-.558-.074-.559-.07-.558-.063-.559-.058-.558-.055-.563-.047-.562-.043-.56-.039-.562-.035-.562-.027-.563-.024-.562-.02-.563-.015-.562-.008-.563-.004h-.52L42.005.79l-.563.016-.562.02-1.125.054-.563.035-.562.04L38.07 1l-.562.05-.559.055-.558.06-.559.062-.559.07-1.117.156-.554.086-.559.09-.555.098-.55.101-.555.106-.551.109-.55.117-.552.125-.546.125-.547.133-.547.137-.543.144-.543.149-.54.156-.538.16-.54.164-.534.172-.536.176-.53.183-.532.188-.527.195-.528.2-.523.203-.52.21-.52.22-.515.222-.516.23-.511.235-.508.242-.504.246-.504.254-.5.258-.496.265-.492.274-.488.277-.485.285-.48.293-.477.297-.476.305-.47.312-.46.317-.461.324-.453.332-.45.34-.445.344-.437.355-.434.355-.43.368-.417.375-.415.379-.406.39-.402.395-.395.402-.382.41-.38.418-.37.422-.36.434-.351.437-.344.445-.332.454-.324.46-.313.47-.3.472-.294.484-.277.489-.27.492-.253.504-.243.508-.23.511-.215.52-.203.527-.188.527-.171.536-.157.539-.144.547-.13.546-.108.551-.094.555-.082.558-.063.56-.047.558-.03.562-.013.563v28.539"/></g></svg>