<svg xmlns="http://www.w3.org/2000/svg" xmlns:xlink="http://www.w3.org/1999/xlink" width="87.256" height="58.898"><defs><path id="a" d="M3.969-10.75c-.531-.922-1.75-.875-2.656-.36C.109-10.405-.095-9.155.14-7.827L-.984-9.781l-2.782 1.797.47.812c1.062-.625 1.187-.687 1.577-.016L1.36-1.859l-1.187.687.469.813 2.14-1.313C3.437-2.047 4.547-2.688 5.203-3l-.469-.812-1.515.874-1.735-3.015C.781-7.156 0-9.516 1.72-10.516c0 0-.157.485.14.985.407.703 1.172.734 1.672.437.5-.281.828-.969.438-1.656m0 0"/><path id="b" d="M7.172-9.156C5.844-11.47 3.25-12.312.438-10.687c-2.829 1.64-3.375 4.312-2.047 6.609 1.234 2.14 3.734 3 6.625 1.328s3.39-4.281 2.156-6.406M4.859-8.078c.875 1.5 1.954 3.375-.234 4.64-2.187 1.266-3.266-.609-4.14-2.109-.438-.766-.954-1.656-1-2.422-.032-.812.453-1.593 1.312-2.093.719-.407 1.625-.547 2.344-.157.703.375 1.25 1.313 1.718 2.14m0 0"/><path id="c" d="m5.36-5.937-.532-.922-.812.468.515.891c.672 1.172.36 1.906-.11 2.188-1 .578-1.64-.532-1.874-.922L-.203-9l2.516-1.453-.47-.813-2.515 1.454-1.906-3.297-.813.468c.97 1.735 1.11 3.922-.562 4.97l.36.624 1.406-.812L.547-3.141c1.062 1.86 2.797 1.36 4.016.657 1.312-.766 1.53-2.188.796-3.453m0 0"/><path id="d" d="M9.313-5.922c-.235-.39-.47-.266-.688-.14-1.062.593-1.203.359-1.422-.032l-2.14-3.703c-.891-1.547-2.766-1.969-5.329-.484-.984.578-3.046 1.89-2.171 3.406.437.75 1.234.719 1.687.453.547-.312.89-.984.469-1.703-.297-.531-.797-.625-.86-.64A7.3 7.3 0 0 1 .031-9.61c1.282-.75 2.313-.36 3.078.953l.329.578c-1.204.765-5.5 3.437-4.063 5.937.969 1.672 3.297.75 4.469.063C5.234-2.875 5.64-4.063 5.594-5c.312.531.765 1.328 2.562.297l.828-.484c.36-.204.563-.313.329-.735m-4.61.031c.953 1.641-.516 2.797-.937 3.032-.875.515-1.922.297-2.36-.453-1.078-1.876 1.5-3.672 2.344-4.22Zm0 0"/><path id="e" d="M7.375-6.937c-.187-.313-.516-.125-.61-.063-.28.156-.28.266-.218.61C6.672-5.36 6-4.235 4.875-3.579 2.453-2.172 1.109-4.468.594-5.36l5.203-3c.375-.22.562-.328.297-.782-.313-.546-1.14-1.734-2.516-2.109-.984-.25-2.078-.047-3.281.64-2.75 1.594-3.219 4.266-1.969 6.407 1.328 2.328 4 3 6.797 1.39 2.719-1.562 2.422-3.828 2.25-4.124m-2.984-1.36L.266-5.922c-.36-.687-.75-1.422-.703-2.203a2.22 2.22 0 0 1 1.093-1.86c2.016-1.156 3.36 1.094 3.735 1.688m0 0"/><path id="f" d="m10.36-5.984-.47-.813c-1.062.625-1.187.688-1.578.016L2.266-17.266l-2.97 1.891.47.813c1.078-.626 1.203-.688 1.593 0l1.938 3.359c-1.266-.172-2.219.234-2.797.562-2.516 1.454-3.453 4.016-2.047 6.454 1.328 2.28 3.86 3 6.406 1.53a4.54 4.54 0 0 0 1.938-2.25l.484.86Zm-4.157.062c-.062.422-.219 1.781-1.531 2.547-2.094 1.203-3.297-.89-4-2.094-.469-.828-1.016-1.765-.969-2.687.094-1.016.797-1.656 1.328-1.953.985-.578 2-.422 2.672-.141Zm0 0"/><path id="g" d="M4.14-1.39c0-.438-.202-.782-.546-1.063-.39-.281-.719-.344-1.485-.485-.375-.062-1.015-.171-1.015-.64 0-.625.922-.625 1.11-.625.75 0 1.124.297 1.171.844.016.156.031.203.234.203.235 0 .235-.047.235-.281v-.797c0-.188 0-.282-.172-.282-.047 0-.063 0-.453.188-.266-.125-.61-.188-1-.188-.313 0-1.844 0-1.844 1.313 0 .39.203.656.406.828.39.344.782.406 1.547.547.36.062 1.094.187 1.094.781 0 .75-.906.75-1.125.75C1.234-.297.984-1.03.859-1.453c-.046-.14-.109-.14-.234-.14-.25 0-.25.062-.25.28v1.094c0 .188 0 .282.188.282.062 0 .078 0 .296-.157l.25-.172c.47.329.985.329 1.188.329.312 0 1.844 0 1.844-1.454m0 0"/><path id="h" d="M6.125 0v-.469h-.687v-2.578c0-1.047-.532-1.437-1.532-1.437a1.9 1.9 0 0 0-1.687.953v-3.39l-1.766.077v.469c.61 0 .688 0 .688.39v5.516H.453V0l1.25-.031L2.953 0v-.469h-.687v-2.078c0-1.094.859-1.578 1.5-1.578.328 0 .547.203.547.969V-.47h-.688V0l1.25-.031Zm0 0"/><path id="i" d="M2.844 0v-.469h-.61v-4.015L.5-4.406v.468c.594 0 .656 0 .656.391v3.078H.47V0l1.219-.031Zm-.469-6.047a.774.774 0 0 0-.781-.781.784.784 0 0 0-.782.781c0 .422.36.766.782.766a.77.77 0 0 0 .781-.766m0 0"/><path id="j" d="M4.36-6.11c0-.421-.36-.874-1.141-.874-.969 0-2.047.422-2.047 1.547v1.015h-.75v.469h.75V-.47H.484V0l1.25-.031c.375 0 1.016 0 1.375.031v-.469H2.25v-3.484h1.14v-.469H2.188v-1.016c0-1.093.75-1.187 1-1.187.047 0 .11 0 .172.031a.59.59 0 0 0-.234.485c0 .422.36.609.61.609.296 0 .624-.203.624-.61m0 0"/><path id="k" d="M3.813-1.234v-.532h-.47v.516c0 .672-.327.906-.609.906-.578 0-.578-.64-.578-.86v-2.75h1.469v-.468H2.156v-1.906h-.469c0 1-.484 1.984-1.484 2.016v.359h.828v2.734c0 1.063.86 1.282 1.578 1.282.75 0 1.204-.579 1.204-1.297m0 0"/><path id="l" d="M4.922-1.172c0-.172-.188-.172-.234-.172-.172 0-.188.047-.25.203-.204.485-.782.797-1.422.797-1.407 0-1.422-1.328-1.422-1.828h3.015c.22 0 .313 0 .313-.265 0-.313-.063-1.047-.563-1.547-.359-.36-.89-.532-1.578-.532C1.187-4.516.313-3.484.313-2.25c0 1.344 1 2.313 2.609 2.313 1.578 0 2-1.063 2-1.235M3.984-2.5h-2.39c.015-.39.031-.812.234-1.14.266-.391.672-.516.953-.516 1.172 0 1.188 1.312 1.203 1.656m0 0"/><path id="m" d="M5.984 0v-.469c-.609 0-.687 0-.687-.39v-6.063l-1.766.078v.469c.625 0 .703 0 .703.39v1.954a2.18 2.18 0 0 0-1.359-.453c-1.453 0-2.5.875-2.5 2.28 0 1.313.922 2.267 2.39 2.267.61 0 1.094-.235 1.407-.485v.485ZM4.172-1.031c-.14.187-.547.734-1.297.734-1.219 0-1.219-1.203-1.219-1.906 0-.485 0-1.016.25-1.406.297-.422.766-.516 1.078-.516.563 0 .97.313 1.188.61Zm0 0"/><path id="n" d="M5.406-2.172c0-1.344-.922-2.344-2.547-2.344C1.22-4.516.313-3.5.313-2.172c0 1.235.89 2.235 2.546 2.235 1.672 0 2.547-1.016 2.547-2.235m-1.281-.11c0 .86 0 1.938-1.266 1.938-1.265 0-1.265-1.078-1.265-1.937 0-.453 0-.953.172-1.297.187-.375.609-.578 1.093-.578.422 0 .844.156 1.063.5.203.344.203.89.203 1.375m0 0"/><path id="o" d="M6.125 0v-.469h-.687v-2.578c0-1.047-.532-1.437-1.532-1.437-.953 0-1.484.562-1.75 1.078v-1.078l-1.703.078v.468c.61 0 .688 0 .688.391v3.078H.453V0l1.25-.031L2.953 0v-.469h-.687v-2.078c0-1.094.859-1.578 1.5-1.578.328 0 .547.203.547.969V-.47h-.688V0l1.25-.031Zm0 0"/><path id="p" d="M2.922 0v-.469h-.688v-6.453L.47-6.844v.469c.625 0 .687 0 .687.39v5.516H.47V0l1.219-.031Zm0 0"/><path id="q" d="M5.781-3.953v-.469A13 13 0 0 1 5-4.39l-.906-.03v.468s.468 0 .468.11L4.5-3.72 3.36-1.266 2.093-3.953h.531v-.469l-1.234.031-1.125-.03v.468H.89L2.766 0 2.53.484C2.312.954 2 1.641 1.281 1.641c-.14 0-.156-.016-.234-.047.094-.032.312-.172.312-.532C1.36.734 1.125.5.781.5a.553.553 0 0 0-.562.578c0 .5.469.922 1.062.922.766 0 1.344-.625 1.625-1.187l2.14-4.563c.063-.14.095-.203.735-.203m0 0"/></defs><path fill="none" stroke="#7F7F7F" stroke-miterlimit="10" stroke-width=".199" d="M.738 57.742h85.04M.737 29.395h85.04M.737 1.059h85.04M.737 57.742V1.047m28.344 56.695V1.047M57.43 57.742V1.047m28.336 56.695V1.047"/><g fill="red"><use xlink:href="#a" x="21.614" y="53.603"/><use xlink:href="#b" x="29.793" y="48.881"/><use xlink:href="#c" x="39.715" y="43.152"/><use xlink:href="#d" x="47.429" y="38.699"/><use xlink:href="#c" x="57.075" y="33.13"/><use xlink:href="#e" x="64.788" y="28.676"/><use xlink:href="#f" x="73.882" y="23.426"/></g><use xlink:href="#g" x="20.449" y="31.886"/><use xlink:href="#h" x="24.972" y="31.886"/><use xlink:href="#i" x="31.338" y="31.886"/><use xlink:href="#j" x="34.516" y="31.886"/><use xlink:href="#k" x="38.013" y="31.886"/><use xlink:href="#l" x="42.466" y="31.886"/><use xlink:href="#m" x="47.717" y="31.886"/><use xlink:href="#n" x="57.899" y="31.886"/><use xlink:href="#o" x="63.627" y="31.886"/><use xlink:href="#p" x="69.993" y="31.886"/><use xlink:href="#q" x="73.171" y="31.886"/></svg>