<svg xmlns="http://www.w3.org/2000/svg" xmlns:xlink="http://www.w3.org/1999/xlink" width="97.994" height="59.114"><defs><path id="a" d="M8.25 0v-.469h-.969L4.72-6.703c-.11-.25-.219-.25-.39-.25-.282 0-.329.078-.391.25l-2.47 6c-.062.156-.093.234-.843.234H.406V0l1.172-.031c.39 0 .938 0 1.313.031v-.469S2-.469 2-.594l.047-.125.5-1.203h2.672l.593 1.453H4.86V0c.391-.031 1.329-.031 1.766-.031.39 0 1.266 0 1.625.031M5.016-2.39H2.734l1.141-2.766Zm0 0"/><path id="d" d="M7.5-1.86c0-.952-.844-1.624-2.031-1.702 1.078-.204 1.718-.797 1.718-1.563 0-.922-.875-1.719-2.468-1.719H.39v.469h1.078v5.906H.39V0h4.625C6.672 0 7.5-.875 7.5-1.86M5.766-5.124c0 .766-.47 1.39-1.438 1.39H2.766v-2.64h1.812c1.016 0 1.188.797 1.188 1.25m.28 3.266c0 .109 0 1.39-1.437 1.39H2.766v-2.906h1.937c.203 0 .672 0 1.016.422.328.422.328.984.328 1.094m0 0"/><path id="b" d="M6.938-1.203a1.123 1.123 0 0 1-1.11 1.11c-.547 0-1.062-.5-1.375-.891.453-.516.844-1.203 1.313-1.985.39-.656.593-1.015 1.484-1.015v-.313a53 53 0 0 1-.969.031c-.11 0-.953-.015-1.218-.03v.312c.453 0 .703.187.703.437 0 .094-.047.172-.047.203-.563.969-1 1.64-1.438 2.172-.125-.156-1.203-1.515-1.656-2.672.547-.594 1.219-1.344 1.219-2.015 0-.453-.156-1.282-.86-1.282-.625 0-1.359.547-1.359 1.61 0 .422.063 1.14.406 2.015l-.906.97c-.453.468-.703.733-.703 1.265 0 .875.812 1.5 1.797 1.5.86 0 1.437-.422 1.812-.75.688.594 1.266.75 1.75.75.766 0 1.39-.563 1.407-1.422ZM2.547-4.078c-.266-.797-.297-1.375-.297-1.688 0-.828.406-1.156.75-1.156.594 0 .594 1.047.594 1.063 0 .656-.797 1.515-1.047 1.78m-.422.797c.219.469.375.765.797 1.39.187.282.547.797.922 1.157-.64.578-1.266.64-1.547.64-.828 0-1.047-.968-1.047-1.5 0-.812.328-1.172.875-1.687m0 0"/><clipPath id="c"><path d="M65 0h32.992v58.672H65Zm0 0"/></clipPath></defs><path fill="none" stroke="#7F7F7F" stroke-miterlimit="10" stroke-width=".199" d="M1.105 57.469h85.04M1.105 29.12h85.04M1.105.785h85.04M1.105 57.47V.773M29.453 57.47V.773M57.801 57.47V.773M86.137 57.47V.773"/><path fill="none" stroke="#000" stroke-miterlimit="10" stroke-width=".399" d="M18.824 48.02h21.258V10.223H18.824Zm-.199-28.45a1.996 1.996 0 0 0-1.992-1.992 1.996 1.996 0 0 0-1.996 1.992 1.994 1.994 0 0 0 3.988 0Zm0 19.098a1.994 1.994 0 0 0-3.988 0 1.994 1.994 0 0 0 3.988 0Zm0 0"/><use xlink:href="#a" x="25.124" y="32.598"/><use xlink:href="#b" x="25.578" y="20.462"/><g clip-path="url(#c)"><path fill="none" stroke="#000" stroke-miterlimit="10" stroke-width=".399" d="M75.516 57.469h21.261V.773H75.516Zm-.2-42.621a1.99 1.99 0 0 0-1.992-1.993 1.99 1.99 0 0 0-1.992 1.993 1.99 1.99 0 0 0 1.992 1.992 1.99 1.99 0 0 0 1.992-1.992Zm0 28.547a1.99 1.99 0 0 0-1.992-1.993 1.993 1.993 0 1 0 1.992 1.992Zm0 0"/></g><use xlink:href="#d" x="82.071" y="32.538"/><use xlink:href="#b" x="82.271" y="11.013"/><path fill="none" stroke="#000" stroke-miterlimit="10" stroke-width=".399" d="M1.105 19.57h13.333M57.8 14.848h13.332M1.105 29.121h17.52m39.176 0h17.515M1.105 38.668h13.333M57.8 43.395h13.332"/></svg>