<svg xmlns="http://www.w3.org/2000/svg" xmlns:xlink="http://www.w3.org/1999/xlink" width="109.08" height="75.962"><defs><path id="b" d="M5.563-1.812c.14 0 .312 0 .312-.172 0-.188-.172-.188-.312-.188H1c-.125 0-.297 0-.297.188 0 .172.172.172.297.172Zm0 0"/><path id="c" d="M2.5-5.078c0-.219-.016-.219-.234-.219-.328.313-.75.5-1.5.5v.266c.218 0 .64 0 1.109-.203v4.078c0 .297-.031.39-.781.39H.812V0c.329-.031 1.016-.031 1.376-.031s1.046 0 1.374.031v-.266h-.28c-.75 0-.782-.093-.782-.39Zm0 0"/><path id="d" d="M2.25-1.625c.125-.125.453-.39.594-.5.484-.453.953-.89.953-1.61 0-.953-.797-1.562-1.781-1.562-.97 0-1.594.719-1.594 1.438 0 .39.312.437.422.437.172 0 .422-.11.422-.422 0-.406-.407-.406-.5-.406.234-.594.765-.781 1.156-.781.734 0 1.125.625 1.125 1.297 0 .828-.578 1.437-1.531 2.39l-1 1.047C.422-.219.422-.203.422 0h3.14l.235-1.422h-.25c-.016.156-.078.547-.172.703-.047.063-.656.063-.781.063H1.172Zm0 0"/><path id="e" d="M3.89-2.547c0-.844-.078-1.36-.343-1.875-.344-.703-1-.875-1.438-.875-1 0-1.375.75-1.484.969C.344-3.75.328-2.953.328-2.547c0 .531.016 1.328.406 1.969.36.594.954.75 1.375.75.391 0 1.063-.125 1.47-.906.296-.578.312-1.297.312-1.813M2.11-.062c-.266 0-.813-.125-.985-.954-.094-.453-.094-1.203-.094-1.625 0-.546 0-1.109.094-1.546.172-.813.781-.891.984-.891.266 0 .829.14.985.86.094.437.094 1.046.094 1.577 0 .47 0 1.188-.094 1.641-.172.828-.719.938-.985.938m0 0"/><clipPath id="a"><path d="M0 0h108.621v74H0Zm0 0"/></clipPath></defs><path fill="none" stroke="#BFBFBF" stroke-miterlimit="10" stroke-width=".199" d="M71.8 72.625V1M85.973 72.625V1M100.148 72.625V1"/><path fill="none" stroke="#000" stroke-linecap="round" stroke-miterlimit="10" stroke-width=".399" d="M15.105 67.145V63.16M71.8 67.145V63.16M100.148 67.145V63.16M41.46 36.805h3.985M41.46 8.457h3.985"/><path fill="none" stroke="#000" stroke-miterlimit="10" stroke-width=".399" d="M.547 65.152h106.668"/><path fill="none" stroke="#000" stroke-linecap="round" stroke-linejoin="round" stroke-miterlimit="10" stroke-width=".399" d="M105.34 62.762c.379 1.433 1.222 2.11 2.074 2.39-.852.278-1.695.953-2.074 2.391"/><path fill="none" stroke="#000" stroke-miterlimit="10" stroke-width=".399" d="M43.453 72.625V1.398"/><path fill="none" stroke="#000" stroke-linecap="round" stroke-linejoin="round" stroke-miterlimit="10" stroke-width=".399" d="M41.063 3.27c1.433-.38 2.113-1.223 2.39-2.07.281.847.957 1.69 2.39 2.07"/><g clip-path="url(#a)"><path fill="none" stroke="#000" stroke-miterlimit="10" stroke-width=".598" d="M8.02 43.004s2.773 3.351 3.84 4.539a106 106 0 0 0 3.835 4.02 84 84 0 0 0 3.84 3.496 67 67 0 0 0 3.84 2.98 59 59 0 0 0 3.836 2.461 48 48 0 0 0 3.84 1.938 41 41 0 0 0 3.84 1.417c1.062.325 2.77.723 3.836.903a35 35 0 0 0 3.84.379 33 33 0 0 0 3.835-.14 36 36 0 0 0 3.84-.657 40 40 0 0 0 3.84-1.18 44 44 0 0 0 3.836-1.7 52 52 0 0 0 3.84-2.218 62 62 0 0 0 3.836-2.738 77 77 0 0 0 3.84-3.258 94 94 0 0 0 3.84-3.777 118 118 0 0 0 3.835-4.297 144 144 0 0 0 3.84-4.817 171 171 0 0 0 3.84-5.34 215 215 0 0 0 3.836-5.855c1.066-1.7 2.773-4.535 3.84-6.375a296 296 0 0 0 3.836-6.898c1.066-1.985 3.84-7.414 3.84-7.414"/></g><use xlink:href="#b" x="9.697" y="74.936"/><use xlink:href="#c" x="16.284" y="74.936"/><use xlink:href="#c" x="69.683" y="74.936"/><use xlink:href="#d" x="98.03" y="74.936"/><use xlink:href="#e" x="36.564" y="72.943"/><use xlink:href="#c" x="34.571" y="39.373"/><use xlink:href="#d" x="34.571" y="11.026"/></svg>