<svg xmlns="http://www.w3.org/2000/svg" xmlns:xlink="http://www.w3.org/1999/xlink" width="43.079" height="41.024"><defs><path id="b" d="M3.89-1.469c0-.14-.124-.14-.28-.14-.188 0-.235 0-.282.125-.078.265-.344 1.203-.922 1.203-.047 0-.14 0-.14-.172 0-.14.078-.39.093-.406l.891-2.375c.063-.157.094-.235.094-.391 0-.547-.516-.875-1.047-.875C1.25-4.5.766-3.156.766-2.953c0 .14.125.14.28.14.188 0 .235 0 .282-.124.078-.266.344-1.204.922-1.204.047 0 .125 0 .125.172 0 .125-.062.375-.078.406l-.89 2.36c-.063.172-.095.25-.095.39 0 .563.516.891 1.047.891 1.047 0 1.532-1.344 1.532-1.547m.141-4.656a.6.6 0 0 0-.625-.594c-.453 0-.89.422-.89.86 0 .328.25.609.625.609.468 0 .89-.437.89-.875m0 0"/><path id="c" d="M4.172-1.469c0-.14-.125-.14-.281-.14-.22 0-.22 0-.297.156-.422 1-.906 1.172-1.172 1.172-.094 0-.203-.016-.203-.313 0-.187.015-.265.047-.422l.75-2.937h.797c.171 0 .328 0 .328-.297 0-.172-.157-.172-.297-.172h-.719l.188-.797c.078-.25.187-.687.187-.765 0-.235-.172-.422-.453-.422-.125 0-.5.062-.625.531l-.36 1.453H1.25c-.172 0-.344 0-.344.281 0 .188.172.188.313.188h.718L1.25-1.172c-.047.156-.047.219-.047.281 0 .625.578.97 1.172.97 1.14 0 1.797-1.391 1.797-1.548m0 0"/><path id="d" d="M6.125-1.469c0-.14-.125-.14-.266-.14-.25 0-.25 0-.328.25-.078.328-.25 1.078-.593 1.078-.125 0-.188-.078-.188-.313 0-.187.016-.265.063-.422l.656-2.687c.047-.156.047-.172.047-.219 0-.219-.172-.422-.453-.422-.172 0-.344.094-.47.219-.312-.328-.702-.375-.968-.375C1.953-4.5.953-2.844.953-1.516c0 1.188.844 1.594 1.594 1.594.61 0 1.078-.312 1.328-.5.188.344.625.5 1.016.5.468 0 .718-.344.843-.531.266-.422.391-.984.391-1.016M3.75-1c-.437.578-.844.719-1.156.719-.235 0-.563-.14-.563-.703 0-.547.344-1.766.453-2.047.344-.969.891-1.11 1.141-1.11.36 0 .625.22.734.61l-.578 2.36c-.015.062-.015.093-.031.171m0 0"/><path id="e" d="M3.297-1.469c0-.14-.125-.14-.281-.14-.235 0-.25 0-.313.25-.078.328-.265 1.078-.594 1.078-.125 0-.203-.078-.203-.313 0-.187.032-.265.063-.422l1.406-5.562c0-.047.031-.11.031-.156 0-.188-.187-.188-.328-.172l-1.219.062c-.109 0-.312 0-.312.297 0 .172.172.172.266.172.125 0 .296.016.421.031L.954-1.172c-.048.156-.048.219-.048.281 0 .641.594.97 1.156.97.47 0 .72-.345.844-.532.266-.422.39-.984.39-1.016m0 0"/><path id="f" d="M5.344-.86c0-.078-.203-.312-.297-.312-.031 0-.078 0-.14.063-.735.828-1.75.828-1.891.828-.547 0-.86-.313-.86-.875 0-.39.281-1.61.547-2.125.39-.719 1-.86 1.297-.86.11 0 .39 0 .578.204a.74.74 0 0 0-.516.671c0 .141.079.454.5.454.422 0 .72-.344.72-.782 0-.484-.438-.906-1.266-.906-1.891 0-2.953 1.61-2.953 2.906C1.063-.78 1.53.078 3 .078c.266 0 .875-.015 1.422-.219.531-.203.922-.593.922-.718m0 0"/><clipPath id="a"><path d="M0 5h35v35.535H0Zm0 0"/></clipPath></defs><g clip-path="url(#a)"><path fill="none" stroke="#000" stroke-miterlimit="10" stroke-width=".399" d="m.688 39.39 28.347-28.347"/></g><use xlink:href="#b" x="16.497" y="7.445"/><use xlink:href="#c" x="20.043" y="7.445"/><use xlink:href="#d" x="23.879" y="7.445"/><use xlink:href="#e" x="29.767" y="7.445"/><use xlink:href="#b" x="32.726" y="7.445"/><use xlink:href="#f" x="36.272" y="7.445"/></svg>