<svg xmlns="http://www.w3.org/2000/svg" width="43.976" height="36.236"><defs><clipPath id="a"><path d="M0 17h11v18.855H0Zm0 0"/></clipPath><clipPath id="b"><path d="M0 17h15v18.855H0Zm0 0"/></clipPath><clipPath id="c"><path d="M6 17h16v18.855H6Zm0 0"/></clipPath><clipPath id="d"><path d="M10 17h16v18.855H10Zm0 0"/></clipPath><clipPath id="e"><path d="M18 17h16v18.855H18Zm0 0"/></clipPath><clipPath id="f"><path d="M22 17h16v18.855H22Zm0 0"/></clipPath><clipPath id="g"><path d="M27 6h16.965v24H27Zm0 0"/></clipPath><clipPath id="h"><path d="M29 17h14.965v18.855H29Zm0 0"/></clipPath><clipPath id="i"><path d="M33 17h10.965v18.855H33Zm0 0"/></clipPath></defs><path fill="none" stroke="#000" stroke-miterlimit="10" stroke-width=".399" d="m21.977.762-11.34 11.34M10.637 12.102l-5.668 11.34"/><g clip-path="url(#a)"><path fill="none" stroke="#000" stroke-miterlimit="10" stroke-width=".399" d="M4.969 23.441 1.187 34.777"/></g><g clip-path="url(#b)"><path fill="none" stroke="#000" stroke-miterlimit="10" stroke-width=".399" d="m4.969 23.441 3.777 11.336"/></g><path fill="none" stroke="#000" stroke-miterlimit="10" stroke-width=".399" d="m10.637 12.102 5.668 11.34"/><g clip-path="url(#c)"><path fill="none" stroke="#000" stroke-miterlimit="10" stroke-width=".399" d="m16.305 23.441-3.778 11.336"/></g><g clip-path="url(#d)"><path fill="none" stroke="#000" stroke-miterlimit="10" stroke-width=".399" d="m16.305 23.441 3.78 11.336"/></g><path fill="none" stroke="#000" stroke-miterlimit="10" stroke-width=".399" d="m21.977.762 11.336 11.34M33.313 12.102l-5.668 11.34"/><g clip-path="url(#e)"><path fill="none" stroke="#000" stroke-miterlimit="10" stroke-width=".399" d="m27.645 23.441-3.782 11.336"/></g><g clip-path="url(#f)"><path fill="none" stroke="#000" stroke-miterlimit="10" stroke-width=".399" d="m27.645 23.441 3.78 11.336"/></g><g clip-path="url(#g)"><path fill="none" stroke="#000" stroke-miterlimit="10" stroke-width=".399" d="m33.313 12.102 5.671 11.34"/></g><g clip-path="url(#h)"><path fill="none" stroke="#000" stroke-miterlimit="10" stroke-width=".399" d="m38.984 23.441-3.78 11.336"/></g><g clip-path="url(#i)"><path fill="none" stroke="#000" stroke-miterlimit="10" stroke-width=".399" d="m38.984 23.441 3.778 11.336"/></g></svg>