<svg xmlns="http://www.w3.org/2000/svg" xmlns:xlink="http://www.w3.org/1999/xlink" width="302.6" height="241.562"><defs><path id="a" d="m7.547-4.328-.203-2.406H.625L.422-4.328H.89c.093-1.125.187-1.938 1.625-1.938h.765v5.797H1.75V0c.547-.031 1.656-.031 2.234-.031.594 0 1.704 0 2.235.031v-.469H4.687v-5.797h.766c1.422 0 1.531.797 1.625 1.938Zm0 0"/><path id="b" d="M6.125 0v-.469h-.687v-2.578c0-1.047-.532-1.437-1.532-1.437a1.9 1.9 0 0 0-1.687.953v-3.39l-1.766.077v.469c.61 0 .688 0 .688.39v5.516H.453V0l1.25-.031L2.953 0v-.469h-.687v-2.078c0-1.094.859-1.578 1.5-1.578.328 0 .547.203.547.969V-.47h-.688V0l1.25-.031Zm0 0"/><path id="c" d="M2.844 0v-.469h-.61v-4.015L.5-4.406v.468c.594 0 .656 0 .656.391v3.078H.47V0l1.219-.031Zm-.469-6.047a.774.774 0 0 0-.781-.781.784.784 0 0 0-.782.781c0 .422.36.766.782.766a.77.77 0 0 0 .781-.766m0 0"/><path id="d" d="M4.14-1.39c0-.438-.202-.782-.546-1.063-.39-.281-.719-.344-1.485-.485-.375-.062-1.015-.171-1.015-.64 0-.625.922-.625 1.11-.625.75 0 1.124.297 1.171.844.016.156.031.203.234.203.235 0 .235-.047.235-.281v-.797c0-.188 0-.282-.172-.282-.047 0-.063 0-.453.188-.266-.125-.61-.188-1-.188-.313 0-1.844 0-1.844 1.313 0 .39.203.656.406.828.39.344.782.406 1.547.547.36.062 1.094.187 1.094.781 0 .75-.906.75-1.125.75C1.234-.297.984-1.03.859-1.453c-.046-.14-.109-.14-.234-.14-.25 0-.25.062-.25.28v1.094c0 .188 0 .282.188.282.062 0 .078 0 .296-.157l.25-.172c.47.329.985.329 1.188.329.312 0 1.844 0 1.844-1.454m0 0"/><path id="e" d="M5.406-2.172c0-1.344-.922-2.344-2.547-2.344C1.22-4.516.313-3.5.313-2.172c0 1.235.89 2.235 2.546 2.235 1.672 0 2.547-1.016 2.547-2.235m-1.281-.11c0 .86 0 1.938-1.266 1.938-1.265 0-1.265-1.078-1.265-1.937 0-.453 0-.953.172-1.297.187-.375.609-.578 1.093-.578.422 0 .844.156 1.063.5.203.344.203.89.203 1.375m0 0"/><path id="f" d="M9.328 0v-.469h-.687v-2.578c0-1.031-.516-1.437-1.547-1.437-.907 0-1.422.5-1.688.953-.187-.922-1.11-.953-1.484-.953-.875 0-1.438.453-1.766 1.078v-1.078l-1.703.078v.468c.61 0 .688 0 .688.391v3.078H.453V0l1.25-.031L2.953 0v-.469h-.687v-2.078c0-1.094.875-1.578 1.5-1.578.328 0 .547.203.547.969V-.47h-.688V0l1.266-.031L6.14 0v-.469h-.688v-2.078c0-1.094.86-1.578 1.484-1.578.344 0 .563.203.563.969V-.47h-.687V0l1.25-.031Zm0 0"/><path id="g" d="M4.922-1.172c0-.172-.188-.172-.234-.172-.172 0-.188.047-.25.203-.204.485-.782.797-1.422.797-1.407 0-1.422-1.328-1.422-1.828h3.015c.22 0 .313 0 .313-.265 0-.313-.063-1.047-.563-1.547-.359-.36-.89-.532-1.578-.532C1.187-4.516.313-3.484.313-2.25c0 1.344 1 2.313 2.609 2.313 1.578 0 2-1.063 2-1.235M3.984-2.5h-2.39c.015-.39.031-.812.234-1.14.266-.391.672-.516.953-.516 1.172 0 1.188 1.312 1.203 1.656m0 0"/><path id="h" d="M3.813-1.234v-.532h-.47v.516c0 .672-.327.906-.609.906-.578 0-.578-.64-.578-.86v-2.75h1.469v-.468H2.156v-1.906h-.469c0 1-.484 1.984-1.484 2.016v.359h.828v2.734c0 1.063.86 1.282 1.578 1.282.75 0 1.204-.579 1.204-1.297m0 0"/><path id="i" d="M5.828 0v-.469h-.703L3.453-2.453 4.61-3.75c.141-.14.204-.203 1.016-.203v-.469l-.906.031-1.032-.03v.468c.141 0 .266.015.376.078-.032.063-.032.094-.079.125l-.828.938-.984-1.141h.406v-.469L1.36-4.39.266-4.42v.468h.718l1.547 1.828L1.22-.656c-.157.187-.516.187-1 .187V0l.922-.031L2.156 0v-.469c-.172 0-.36-.047-.36-.11 0 0 0-.015.063-.093l.97-1.094L3.921-.469h-.39V0l1.202-.031Zm0 0"/><path id="j" d="M5.516-.234c0-.235-.125-.235-.266-.235-.61-.015-.61-.14-.61-.375v-2.14c0-.891-.702-1.532-2.187-1.532-.562 0-1.781.047-1.781.922 0 .438.344.625.61.625.312 0 .624-.219.624-.625 0-.297-.187-.469-.218-.5a5 5 0 0 1 .718-.062c.75 0 1.11.422 1.11 1.172v.343c-.72.032-3.25.125-3.25 1.563C.266-.125 1.5.062 2.188.062c.796 0 1.265-.406 1.484-.828 0 .313 0 .766 1.047.766h.468c.204 0 .329 0 .329-.234m-2-1.157c0 .97-.922 1.094-1.172 1.094-.516 0-.906-.344-.906-.797 0-1.062 1.578-1.203 2.078-1.234Zm0 0"/><path id="k" d="M8.031-3.953v-.469a13 13 0 0 1-.781.031l-.953-.03v.468c.094 0 .578 0 .578.11 0 .03-.031.093-.031.124L5.797-1.172l-1.14-2.781h.562v-.469l-1.14.031c-.423 0-.845-.03-1-.03v.468h.593c.203.5.203.531.203.531 0 .031-.031.094-.031.125L3.047-1.39 2-3.953h.563v-.469l-1.235.031L.25-4.42v.468h.594L2.359-.234c.079.172.11.28.36.28s.297-.108.36-.28L4.14-2.812 5.188-.235c.078.172.109.28.359.28s.297-.108.36-.28L7.343-3.75c.047-.125.093-.203.687-.203m0 0"/><path id="l" d="M2.922 0v-.469h-.688v-6.453L.47-6.844v.469c.625 0 .687 0 .687.39v5.516H.47V0l1.219-.031Zm0 0"/><path id="m" d="M4.36-6.11c0-.421-.36-.874-1.141-.874-.969 0-2.047.422-2.047 1.547v1.015h-.75v.469h.75V-.47H.484V0l1.25-.031c.375 0 1.016 0 1.375.031v-.469H2.25v-3.484h1.14v-.469H2.188v-1.016c0-1.093.75-1.187 1-1.187.047 0 .11 0 .172.031a.59.59 0 0 0-.234.485c0 .422.36.609.61.609.296 0 .624-.203.624-.61m0 0"/><path id="n" d="M5.984 0v-.469c-.609 0-.687 0-.687-.39v-6.063l-1.766.078v.469c.625 0 .703 0 .703.39v1.954a2.18 2.18 0 0 0-1.359-.453c-1.453 0-2.5.875-2.5 2.28 0 1.313.922 2.267 2.39 2.267.61 0 1.094-.235 1.407-.485v.485ZM4.172-1.031c-.14.187-.547.734-1.297.734-1.219 0-1.219-1.203-1.219-1.906 0-.485 0-1.016.25-1.406.297-.422.766-.516 1.078-.516.563 0 .97.313 1.188.61Zm0 0"/><path id="o" d="M6.125 0v-.469c-.61 0-.687 0-.687-.39v-3.625l-1.813.078v.468c.61 0 .688 0 .688.391v1.906c0 .813-.516 1.344-1.235 1.344-.781 0-.812-.25-.812-.797v-3.39l-1.813.078v.468c.61 0 .688 0 .688.391v2.328c0 1.063.797 1.282 1.797 1.282.25 0 .968 0 1.421-.782v.782Zm0 0"/><path id="p" d="M5.563-3.953c0-.235-.172-.578-.625-.578-.157 0-.625.031-1.063.375-.172-.125-.594-.328-1.328-.328-1.438 0-1.985.78-1.985 1.468 0 .407.188.829.516 1.047-.281.36-.344.688-.344.89 0 .157.047.642.438.954-.125.031-.86.25-.86.875C.313 1.25.876 2 2.86 2 4.625 2 5.406 1.422 5.406.719c0-.297-.078-.922-.75-1.266-.562-.281-1.156-.281-2.11-.281-.265 0-.718 0-.765-.016a.625.625 0 0 1-.562-.625c0-.093.047-.25.11-.328.452.234.968.266 1.218.266 1.437 0 1.984-.782 1.984-1.485 0-.468-.25-.796-.406-.953.297-.156.516-.172.625-.187a.43.43 0 0 0-.047.203c0 .25.172.422.438.422a.41.41 0 0 0 .422-.422m-2.141.937c0 .454 0 1.125-.875 1.125s-.875-.671-.875-1.125c0-.437 0-1.109.875-1.109s.875.672.875 1.11M4.547.75c0 .36-.39.89-1.688.89-1.187 0-1.687-.452-1.687-.906 0-.609.625-.609.766-.609h1.171c.313 0 1.438 0 1.438.625m0 0"/><path id="q" d="M4.406-3.672c0-.531-.531-.812-1.062-.812-.688 0-1.094.5-1.313 1.125v-1.125l-1.656.078v.468c.61 0 .688 0 .688.391v3.078H.375V0l1.25-.031C2-.031 2.641-.031 3 0v-.469h-.86v-1.75c0-.687.235-1.906 1.235-1.906 0 0-.187.172-.187.453 0 .406.328.61.609.61.297 0 .61-.204.61-.61m0 0"/><path id="r" d="M6.125 0v-.469h-.687v-2.578c0-1.047-.532-1.437-1.532-1.437-.953 0-1.484.562-1.75 1.078v-1.078l-1.703.078v.468c.61 0 .688 0 .688.391v3.078H.453V0l1.25-.031L2.953 0v-.469h-.687v-2.078c0-1.094.859-1.578 1.5-1.578.328 0 .547.203.547.969V-.47h-.688V0l1.25-.031Zm0 0"/><path id="s" d="M2.36-.781a.784.784 0 0 0-.782-.781.78.78 0 0 0-.766.78.774.774 0 1 0 1.547 0m0 0"/><path id="t" d="M4.016 0v-.469H2.875v-5.906h1.14v-.469c-.406.032-1.39.032-1.843.032s-1.438 0-1.844-.032v.469h1.14v5.906H.329V0c.406-.031 1.39-.031 1.844-.031.453 0 1.437 0 1.844.031m0 0"/><path id="u" d="M5.984-2.219c0-1.328-.906-2.265-2.343-2.265-.75 0-1.282.312-1.5.484v-.484l-1.766.078v.468c.61 0 .688 0 .688.376v5.03H.375v.47l1.25-.032 1.25.032v-.47h-.687V-.39a2 2 0 0 0 1.28.454c1.5 0 2.516-.907 2.516-2.282m-1.28 0C4.703-.813 4-.297 3.358-.297c-.14 0-.609 0-1.062-.547-.11-.125-.11-.14-.11-.328v-2.11c0-.187.016-.202.157-.343.39-.406.922-.469 1.14-.469.657 0 1.22.61 1.22 1.875m0 0"/><path id="v" d="M5.781-3.953v-.469A13 13 0 0 1 5-4.39l-.906-.03v.468s.468 0 .468.11L4.5-3.72 3.36-1.266 2.093-3.953h.531v-.469l-1.234.031-1.125-.03v.468H.89L2.766 0 2.53.484C2.312.954 2 1.641 1.281 1.641c-.14 0-.156-.016-.234-.047.094-.032.312-.172.312-.532C1.36.734 1.125.5.781.5a.553.553 0 0 0-.562.578c0 .5.469.922 1.062.922.766 0 1.344-.625 1.625-1.187l2.14-4.563c.063-.14.095-.203.735-.203m0 0"/><path id="w" d="M4.766-1.172c0-.14-.141-.14-.235-.14-.187 0-.187.03-.25.156-.25.625-.734.812-1.234.812-1.39 0-1.39-1.453-1.39-1.922 0-.562 0-1.843 1.28-1.843.36 0 .516.015.657.046a.62.62 0 0 0-.203.47c0 .437.343.624.609.624.313 0 .64-.219.64-.625 0-.86-1.156-.922-1.734-.922C1.11-4.516.375-3.375.375-2.219.375-.89 1.313.063 2.844.063c1.625 0 1.922-1.157 1.922-1.235m0 0"/><path id="x" d="M5.781-3.953v-.469c-.25.016-.531.031-.781.031l-.906-.03v.468c.187 0 .468.031.468.11 0 0 0 .015-.046.109l-1.157 2.5-1.265-2.72h.531v-.468l-1.234.031-1.125-.03v.468H.89l1.75 3.75c.125.25.25.25.375.25.172 0 .28-.031.375-.25L5.047-3.75c.062-.14.094-.203.734-.203m0 0"/><path id="y" d="M7.438-6.11c0-.437-.375-.874-1.141-.874-.36 0-.938.062-1.406.359-.422-.36-.97-.36-1.188-.36-1.219 0-2.64.391-2.64 1.563v1h-.75v.469h.75V-.47H.375V0l1.219-.031L2.828 0v-.469h-.687v-3.484h2.093V-.47h-.703V0l1.266-.031c.375 0 1.016 0 1.375.031v-.469h-.875v-3.484h1.172v-.469H5.25v-1.016c0-1.14.828-1.187 1.016-1.187.078 0 .109.016.172.031a.63.63 0 0 0-.235.485c0 .422.36.609.61.609.312 0 .625-.203.625-.61M4.28-6.515a.6.6 0 0 0-.297.532c0 .172.063.375.25.5v1.062H2.078v-.984c0-.828.656-1.219 1.563-1.219.312 0 .53.063.64.11m0 0"/></defs><use xlink:href="#a" x="101.504" y="83.021"/><use xlink:href="#b" x="109.473" y="83.021"/><use xlink:href="#c" x="115.839" y="83.021"/><use xlink:href="#d" x="119.017" y="83.021"/><use xlink:href="#c" x="126.857" y="83.021"/><use xlink:href="#d" x="130.035" y="83.021"/><use xlink:href="#d" x="137.875" y="83.021"/><use xlink:href="#e" x="142.398" y="83.021"/><use xlink:href="#f" x="148.126" y="83.021"/><use xlink:href="#g" x="157.67" y="83.021"/><use xlink:href="#h" x="166.237" y="83.021"/><use xlink:href="#g" x="170.69" y="83.021"/><use xlink:href="#i" x="175.941" y="83.021"/><use xlink:href="#h" x="181.988" y="83.021"/><use xlink:href="#h" x="101.504" y="94.976"/><use xlink:href="#b" x="105.957" y="94.976"/><use xlink:href="#j" x="112.323" y="94.976"/><use xlink:href="#h" x="117.891" y="94.976"/><use xlink:href="#k" x="125.662" y="94.976"/><use xlink:href="#c" x="133.94" y="94.976"/><use xlink:href="#l" x="137.118" y="94.976"/><use xlink:href="#l" x="140.296" y="94.976"/><use xlink:href="#m" x="146.791" y="94.976"/><use xlink:href="#j" x="150.288" y="94.976"/><use xlink:href="#n" x="155.857" y="94.976"/><use xlink:href="#g" x="162.223" y="94.976"/><use xlink:href="#e" x="170.79" y="94.976"/><use xlink:href="#o" x="176.518" y="94.976"/><use xlink:href="#h" x="182.884" y="94.976"/><use xlink:href="#j" x="101.504" y="106.93"/><use xlink:href="#d" x="107.072" y="106.93"/><use xlink:href="#k" x="114.913" y="106.93"/><use xlink:href="#g" x="122.882" y="106.93"/><use xlink:href="#p" x="131.44" y="106.93"/><use xlink:href="#e" x="137.168" y="106.93"/><use xlink:href="#q" x="146.214" y="106.93"/><use xlink:href="#c" x="150.936" y="106.93"/><use xlink:href="#p" x="154.114" y="106.93"/><use xlink:href="#b" x="159.842" y="106.93"/><use xlink:href="#h" x="165.899" y="106.93"/><use xlink:href="#j" x="173.669" y="106.93"/><use xlink:href="#r" x="179.238" y="106.93"/><use xlink:href="#n" x="185.604" y="106.93"/><use xlink:href="#n" x="101.504" y="118.885"/><use xlink:href="#e" x="107.869" y="118.885"/><use xlink:href="#k" x="113.279" y="118.885"/><use xlink:href="#r" x="121.557" y="118.885"/><use xlink:href="#s" x="127.923" y="118.885"/><use xlink:href="#t" x="136.082" y="118.885"/><use xlink:href="#h" x="140.426" y="118.885"/><use xlink:href="#c" x="148.196" y="118.885"/><use xlink:href="#d" x="151.374" y="118.885"/><use xlink:href="#u" x="159.214" y="118.885"/><use xlink:href="#q" x="165.58" y="118.885"/><use xlink:href="#g" x="170.302" y="118.885"/><use xlink:href="#h" x="175.552" y="118.885"/><use xlink:href="#h" x="180.005" y="118.885"/><use xlink:href="#v" x="184.149" y="118.885"/><use xlink:href="#b" x="101.504" y="130.84"/><use xlink:href="#j" x="107.869" y="130.84"/><use xlink:href="#q" x="113.438" y="130.84"/><use xlink:href="#n" x="118.16" y="130.84"/><use xlink:href="#h" x="127.843" y="130.84"/><use xlink:href="#e" x="132.297" y="130.84"/><use xlink:href="#j" x="141.342" y="130.84"/><use xlink:href="#w" x="146.911" y="130.84"/><use xlink:href="#b" x="151.693" y="130.84"/><use xlink:href="#c" x="158.059" y="130.84"/><use xlink:href="#g" x="161.236" y="130.84"/><use xlink:href="#x" x="166.486" y="130.84"/><use xlink:href="#g" x="172.215" y="130.84"/><use xlink:href="#h" x="101.504" y="142.794"/><use xlink:href="#b" x="105.957" y="142.794"/><use xlink:href="#c" x="112.323" y="142.794"/><use xlink:href="#d" x="115.5" y="142.794"/><use xlink:href="#g" x="123.341" y="142.794"/><use xlink:href="#y" x="128.591" y="142.794"/><use xlink:href="#g" x="135.275" y="142.794"/><use xlink:href="#w" x="140.525" y="142.794"/><use xlink:href="#h" x="145.616" y="142.794"/><use xlink:href="#c" x="153.386" y="142.794"/><use xlink:href="#r" x="156.564" y="142.794"/><use xlink:href="#e" x="166.247" y="142.794"/><use xlink:href="#h" x="171.976" y="142.794"/><use xlink:href="#b" x="176.429" y="142.794"/><use xlink:href="#g" x="182.794" y="142.794"/><use xlink:href="#q" x="188.044" y="142.794"/><use xlink:href="#k" x="101.504" y="154.75"/><use xlink:href="#j" x="109.463" y="154.75"/><use xlink:href="#v" x="114.713" y="154.75"/><use xlink:href="#d" x="120.76" y="154.75"/><use xlink:href="#s" x="125.283" y="154.75"/></svg>