<svg xmlns="http://www.w3.org/2000/svg" xmlns:xlink="http://www.w3.org/1999/xlink" width="352.802" height="307.334"><defs><path id="b" d="M8.14-3.36c0-2.187-1.484-3.484-3.468-3.484H.39v.469h1.078v5.906H.39V0h4.297C6.656 0 8.14-1.219 8.14-3.36m-1.468-.015c0 1.094-.11 1.625-.438 2.063-.468.687-1.343.843-1.953.843H2.828v-5.906h1.453c.657 0 1.485.188 1.969.89.344.516.422 1.188.422 2.11m0 0"/><path id="c" d="M2.844 0v-.469h-.61v-4.015L.5-4.406v.468c.594 0 .656 0 .656.391v3.078H.47V0l1.219-.031Zm-.469-6.047a.774.774 0 0 0-.781-.781.784.784 0 0 0-.782.781c0 .422.36.766.782.766a.77.77 0 0 0 .781-.766m0 0"/><path id="d" d="M5.516-.234c0-.235-.125-.235-.266-.235-.61-.015-.61-.14-.61-.375v-2.14c0-.891-.702-1.532-2.187-1.532-.562 0-1.781.047-1.781.922 0 .438.344.625.61.625.312 0 .624-.219.624-.625 0-.297-.187-.469-.218-.5a5 5 0 0 1 .718-.062c.75 0 1.11.422 1.11 1.172v.343c-.72.032-3.25.125-3.25 1.563C.266-.125 1.5.062 2.188.062c.796 0 1.265-.406 1.484-.828 0 .313 0 .766 1.047.766h.468c.204 0 .329 0 .329-.234m-2-1.157c0 .97-.922 1.094-1.172 1.094-.516 0-.906-.344-.906-.797 0-1.062 1.578-1.203 2.078-1.234Zm0 0"/><path id="e" d="M9.328 0v-.469h-.687v-2.578c0-1.031-.516-1.437-1.547-1.437-.907 0-1.422.5-1.688.953-.187-.922-1.11-.953-1.484-.953-.875 0-1.438.453-1.766 1.078v-1.078l-1.703.078v.468c.61 0 .688 0 .688.391v3.078H.453V0l1.25-.031L2.953 0v-.469h-.687v-2.078c0-1.094.875-1.578 1.5-1.578.328 0 .547.203.547.969V-.47h-.688V0l1.266-.031L6.14 0v-.469h-.688v-2.078c0-1.094.86-1.578 1.484-1.578.344 0 .563.203.563.969V-.47h-.687V0l1.25-.031Zm0 0"/><path id="f" d="M5.406-2.172c0-1.344-.922-2.344-2.547-2.344C1.22-4.516.313-3.5.313-2.172c0 1.235.89 2.235 2.546 2.235 1.672 0 2.547-1.016 2.547-2.235m-1.281-.11c0 .86 0 1.938-1.266 1.938-1.265 0-1.265-1.078-1.265-1.937 0-.453 0-.953.172-1.297.187-.375.609-.578 1.093-.578.422 0 .844.156 1.063.5.203.344.203.89.203 1.375m0 0"/><path id="g" d="M6.125 0v-.469h-.687v-2.578c0-1.047-.532-1.437-1.532-1.437-.953 0-1.484.562-1.75 1.078v-1.078l-1.703.078v.468c.61 0 .688 0 .688.391v3.078H.453V0l1.25-.031L2.953 0v-.469h-.687v-2.078c0-1.094.859-1.578 1.5-1.578.328 0 .547.203.547.969V-.47h-.688V0l1.25-.031Zm0 0"/><path id="h" d="M5.984 0v-.469c-.609 0-.687 0-.687-.39v-6.063l-1.766.078v.469c.625 0 .703 0 .703.39v1.954a2.18 2.18 0 0 0-1.359-.453c-1.453 0-2.5.875-2.5 2.28 0 1.313.922 2.267 2.39 2.267.61 0 1.094-.235 1.407-.485v.485ZM4.172-1.031c-.14.187-.547.734-1.297.734-1.219 0-1.219-1.203-1.219-1.906 0-.485 0-1.016.25-1.406.297-.422.766-.516 1.078-.516.563 0 .97.313 1.188.61Zm0 0"/><path id="i" d="M3.078.313c0-.125-.047-.157-.187-.25C2.063-.5 1.75-1.391 1.75-2.125c0-.672.25-1.594 1.156-2.203.125-.094.172-.125.172-.25a.254.254 0 0 0-.265-.25c-.204 0-1.641.906-1.641 2.703 0 .813.312 1.438.562 1.781.375.516.907.907 1.079.907.218 0 .265-.172.265-.25m0 0"/><path id="j" d="M3.219-.906c0-.735-.906-.906-1.14-.938l-.704-.125C1.188-2 1-2.079 1-2.25c0-.156.219-.328.813-.328.515 0 .609.172.625.328.015.14.03.281.28.281.298 0 .298-.156.298-.328v-.469c0-.14-.016-.328-.25-.328-.157 0-.22.063-.25.125-.282-.125-.563-.125-.688-.125-1.187 0-1.344.594-1.344.844 0 .656.735.797 1.391.89.297.063.828.141.828.454 0 .234-.25.422-.828.422-.297 0-.656-.063-.812-.563C1.03-1.203.984-1.28.78-1.28c-.297 0-.297.172-.297.328v.656c0 .14 0 .344.25.344.079 0 .188 0 .282-.234.328.218.672.234.859.234 1.125 0 1.344-.61 1.344-.953m0 0"/><path id="k" d="M2.313-.469a.477.477 0 0 0-.485-.484.47.47 0 0 0-.469.469c0 .28.22.484.47.484a.473.473 0 0 0 .484-.469m0 0"/><path id="l" d="M3.578-.266c0-.25-.203-.25-.328-.25H3v-1.53c0-.72-.36-1.032-.937-1.032-.391 0-.672.172-.844.297 0-.172-.047-.25-.313-.25h-.5c-.14 0-.328 0-.328.25 0 .265.203.265.313.265h.25v2H.406c-.14 0-.328 0-.328.25C.078 0 .281 0 .391 0h1.093c.11 0 .329 0 .329-.266 0-.25-.204-.25-.344-.25h-.25v-1.156c0-.64.484-.875.797-.875.328 0 .406.172.406.547v1.484h-.203c-.14 0-.344 0-.344.25 0 .266.219.266.344.266H3.25c.11 0 .328 0 .328-.266m0 0"/><path id="m" d="M3.281-1.516c0-.89-.672-1.578-1.453-1.578-.797 0-1.453.688-1.453 1.578S1.047.047 1.828.047c.766 0 1.453-.688 1.453-1.563m-.578-.046c0 .593-.406 1.078-.875 1.078S.953-.97.953-1.562s.422-1.016.875-1.016.875.422.875 1.015m0 0"/><path id="n" d="M3.406-2.594c0-.156-.078-.484-.703-.484-.328 0-.734.11-1.094.469v-.094c0-.25-.046-.328-.328-.328h-.75c-.125 0-.328 0-.328.25 0 .265.203.265.328.265h.5v2h-.5c-.125 0-.328 0-.328.25C.203 0 .406 0 .531 0h1.781c.126 0 .329 0 .329-.266 0-.25-.203-.25-.328-.25h-.704v-.796c0-.61.36-1.22 1.11-1.235 0 .156.172.281.344.281.187 0 .343-.125.343-.328m0 0"/><path id="o" d="M3.14-.906c0-.156 0-.313-.296-.313-.266 0-.266.157-.266.297-.015.375-.36.438-.515.438-.454 0-.454-.313-.454-.47v-1.562h1.047c.125 0 .328 0 .328-.265 0-.25-.187-.25-.328-.25H1.61v-.516c0-.14-.015-.328-.296-.328-.282 0-.282.172-.282.328v.516H.484c-.125 0-.328 0-.328.25 0 .265.203.265.328.265h.547v1.61c0 .687.485.953 1.016.953S3.14-.266 3.14-.906m0 0"/><path id="p" d="M3.578-.266c0-.25-.203-.25-.328-.25H3v-1.53c0-.72-.36-1.032-.937-1.032-.391 0-.672.172-.844.297v-1.14c0-.25-.047-.345-.313-.345h-.5c-.14 0-.328.016-.328.266s.203.266.313.266h.25v3.218H.406c-.14 0-.328 0-.328.25C.078 0 .281 0 .391 0h1.093c.11 0 .329 0 .329-.266 0-.25-.204-.25-.344-.25h-.25v-1.156c0-.64.484-.875.797-.875.328 0 .406.172.406.547v1.484h-.203c-.14 0-.344 0-.344.25 0 .266.219.266.344.266H3.25c.11 0 .328 0 .328-.266m0 0"/><path id="q" d="M3.547-2.781c0-.25-.188-.25-.328-.25h-.781c-.157 0-.344 0-.344.25 0 .265.172.265.344.265h.265l-.297 1.72-.14-.532c-.125-.469-.172-.547-.422-.547-.094 0-.235 0-.328.188l-.266.906-.297-1.735h.266c.156 0 .343 0 .343-.265 0-.25-.187-.25-.343-.25H.437c-.14 0-.343 0-.343.25 0 .234.14.265.36.265L.858-.28c.032.187.047.312.36.312.312 0 .343-.062.453-.515l.172-.641.265 1c.094.14.235.156.344.156.281 0 .313-.125.344-.312l.406-2.235c.219 0 .344-.03.344-.265m0 0"/><path id="r" d="M3.25-.797c0-.234-.234-.234-.281-.234-.156 0-.219.015-.281.172-.141.328-.485.375-.657.375-.469 0-.937-.297-1.062-.813h1.953c.172 0 .328 0 .328-.312 0-.797-.453-1.485-1.375-1.485-.828 0-1.516.703-1.516 1.563S1.08.047 1.984.047c.938 0 1.266-.656 1.266-.844m-.594-1.015H.97c.125-.438.484-.766.906-.766.328 0 .703.156.781.765m0 0"/><path id="s" d="M2.484-2.125c0-.828-.312-1.453-.562-1.797-.375-.515-.906-.906-1.078-.906-.203 0-.266.187-.266.25 0 .125.094.187.14.219 1.095.718 1.188 1.797 1.188 2.234 0 .656-.25 1.578-1.14 2.188C.64.14.578.188.578.313c0 .078.063.25.266.25s1.64-.907 1.64-2.688m0 0"/><path id="t" d="M3.625-.266c0-.25-.203-.25-.328-.25-.203 0-.297-.03-.344-.046V-2c0-.5-.375-1.094-1.406-1.094-.313 0-1.031.016-1.031.547 0 .235.172.36.359.36.11 0 .344-.063.344-.36 0 0 .234-.031.343-.031.454 0 .782.187.813.594-1.219.03-2.047.39-2.047 1.062 0 .485.453.969 1.188.969.234 0 .656-.047.968-.25.172.187.485.203.75.203.235 0 .391-.016.391-.266M2.359-.969c0 .14 0 .266-.234.375-.234.11-.516.11-.578.11-.39 0-.64-.203-.64-.438 0-.312.546-.515 1.452-.562Zm0 0"/><path id="u" d="M3.266-.797c0-.234-.235-.234-.297-.234-.125 0-.203 0-.266.172-.047.078-.187.375-.625.375a1.027 1.027 0 0 1-1.015-1.032c0-.312.187-1.062 1.062-1.062l.344.015c.015.282.172.376.36.376.187 0 .358-.126.358-.36 0-.531-.734-.547-1.062-.547-1.219 0-1.64.953-1.64 1.578 0 .844.671 1.563 1.546 1.563 1 0 1.235-.719 1.235-.844m0 0"/><path id="v" d="M3.64-.266c0-.218-.14-.25-.39-.25v-1.593c0-.157-.016-.97-.656-.97a.84.84 0 0 0-.656.313.61.61 0 0 0-.532-.312.88.88 0 0 0-.547.203c-.046-.156-.187-.156-.312-.156H.328c-.125 0-.328 0-.328.25 0 .234.125.265.39.265v2c-.265 0-.39.032-.39.25C0 0 .219 0 .328 0h.594c.125 0 .312 0 .312-.266 0-.218-.109-.25-.359-.25v-1.171c0-.563.234-.86.5-.86.14 0 .203.11.203.5v1.531c-.156 0-.281.032-.281.25 0 .266.187.266.312.266h.516c.125 0 .313 0 .313-.266 0-.218-.126-.25-.376-.25v-1.171c0-.563.25-.86.5-.86.141 0 .204.11.204.5v1.531c-.141 0-.282.032-.282.25 0 .266.204.266.313.266h.5c.125 0 .344 0 .344-.266m0 0"/><path id="w" d="M3.188-.266c0-.25-.204-.25-.329-.25h-.656v-2.187c0-.25-.047-.328-.328-.328H.906c-.125 0-.328 0-.328.25 0 .265.203.265.328.265h.719v2H.859c-.14 0-.343 0-.343.25C.516 0 .734 0 .859 0h2c.125 0 .329 0 .329-.266m-.954-3.562a.39.39 0 0 0-.406-.39.387.387 0 0 0-.39.39c0 .219.171.39.39.39a.39.39 0 0 0 .406-.39m0 0"/><path id="x" d="M3.578-.266c0-.25-.203-.25-.328-.25H3v-3.406c0-.25-.047-.344-.328-.344h-.485c-.14 0-.343.016-.343.266s.218.266.328.266h.25v.906a1.26 1.26 0 0 0-.735-.25c-.765 0-1.453.672-1.453 1.562C.234-.64.875.047 1.625.047c.344 0 .61-.14.797-.313.015.188.062.266.328.266h.5c.125 0 .328 0 .328-.266M2.422-1.375c0 .36-.297.89-.781.89-.453 0-.828-.452-.828-1.03 0-.61.437-1.032.89-1.032.406 0 .719.344.719.688Zm0 0"/><path id="y" d="M3.422-1.516c0-.875-.64-1.562-1.39-1.562-.298 0-.579.11-.813.265v-1.109c0-.25-.047-.344-.313-.344h-.5c-.14 0-.343.016-.343.266s.218.266.328.266h.25v3.406C.64-.172.656 0 .938 0c.218 0 .28-.094.28-.234.266.218.532.28.735.28.766 0 1.469-.671 1.469-1.562m-.578 0c0 .61-.453 1.032-.906 1.032-.485 0-.704-.563-.704-.875v-.485c0-.375.375-.703.766-.703.469 0 .844.469.844 1.031m0 0"/><path id="z" d="M3.578-.266c0-.25-.219-.25-.328-.25H3v-2.187c0-.25-.047-.328-.328-.328h-.485c-.14 0-.343 0-.343.25 0 .265.218.265.328.265h.25v1.391c0 .563-.516.64-.719.64-.469 0-.484-.187-.484-.39v-1.828c0-.25-.047-.328-.313-.328h-.5c-.14 0-.328 0-.328.25 0 .265.203.265.313.265h.25v1.688c0 .687.5.875 1.03.875.266 0 .517-.063.767-.219C2.484 0 2.625 0 2.75 0h.5c.125 0 .328 0 .328-.266m0 0"/><path id="A" d="M3.469-.266c0-.25-.203-.25-.328-.25h-.25l-.828-1.046.734-.954h.234c.125 0 .344 0 .344-.265 0-.25-.219-.25-.344-.25H2.25c-.125 0-.328 0-.328.25 0 .203.11.265.281.265l-.39.547-.422-.547c.156 0 .28-.062.28-.265 0-.25-.202-.25-.327-.25H.547c-.125 0-.328 0-.328.25 0 .265.219.265.328.265h.25l.75.954L.75-.516H.516c-.125 0-.344 0-.344.25C.172 0 .39 0 .516 0h.78c.126 0 .329 0 .329-.266 0-.203-.11-.25-.297-.25l.484-.703.5.703c-.187 0-.296.047-.296.25 0 .266.203.266.328.266h.797c.109 0 .328 0 .328-.266m0 0"/><path id="B" d="M3.094-.266c0-.25-.188-.25-.313-.25H2.22V-4c0-.125-.016-.328-.266-.328-.156 0-.219.094-.25.187-.234.547-.578.625-.687.641-.141 0-.313.031-.313.266 0 .203.156.25.281.25s.375-.032.657-.235v2.703h-.563c-.14 0-.328 0-.328.25C.75 0 .953 0 1.078 0h1.703c.125 0 .313 0 .313-.266m0 0"/><path id="C" d="M3.313-2.125c0-1.297-.72-2.203-1.485-2.203-.781 0-1.5.922-1.5 2.203 0 1.297.734 2.203 1.5 2.203.781 0 1.485-.922 1.485-2.203m-.563-.078c0 .969-.422 1.75-.922 1.75-.516 0-.922-.781-.922-1.75 0-.953.438-1.61.922-1.61.469 0 .922.657.922 1.61m0 0"/><path id="D" d="M3.36-1.234c0-.47-.297-.875-.72-1.094.344-.25.516-.64.516-1 0-.516-.515-1-1.328-1-.86 0-1.344.36-1.344.844 0 .265.204.375.36.375.172 0 .36-.141.36-.36 0-.078-.032-.14-.048-.172.203-.171.625-.171.688-.171.422 0 .734.218.734.5a.72.72 0 0 1-.25.546c-.219.172-.375.188-.61.188-.437 0-.546.062-.546.281 0 .266.203.266.328.266h.313c.64 0 .968.422.968.797 0 .39-.36.78-.937.78-.25 0-.719-.062-.907-.327A.36.36 0 0 0 1-1a.363.363 0 0 0-.36-.36c-.171 0-.343.126-.343.391C.297-.344.969.078 1.844.078c.922 0 1.515-.656 1.515-1.312m0 0"/><clipPath id="a"><path d="M0 0h352.703v307H0Zm0 0"/></clipPath></defs><path fill="#FFFBB3" d="M310.05 153.332 176.3 19.582 42.55 153.332l133.75 133.75Zm0 0"/><g clip-path="url(#a)"><path fill="none" stroke="#B2B2B2" stroke-miterlimit="10" stroke-width="14.173" d="M310.05 153.332 176.3 19.582 42.55 153.332l133.75 133.75Zm0 0"/></g><g fill="#B2B2B2"><use xlink:href="#b" x="153.034" y="181.648"/><use xlink:href="#c" x="161.821" y="181.648"/><use xlink:href="#d" x="164.999" y="181.648"/><use xlink:href="#e" x="170.568" y="181.648"/><use xlink:href="#f" x="180.112" y="181.648"/><use xlink:href="#g" x="185.841" y="181.648"/><use xlink:href="#h" x="192.207" y="181.648"/></g><path fill="none" stroke="#B2B2B2" stroke-miterlimit="10" stroke-width=".996" d="M199.07 181.707v-56.754"/><path fill="none" stroke="#000" stroke-miterlimit="10" stroke-width=".399" d="m103.008 82.855 2.816-2.82m-2.816 0 2.816 2.82"/><use xlink:href="#i" x="49.639" y="77.368"/><use xlink:href="#j" x="53.3" y="77.368"/><use xlink:href="#k" x="56.962" y="77.368"/><use xlink:href="#l" x="60.623" y="77.368"/><use xlink:href="#m" x="64.284" y="77.368"/><use xlink:href="#n" x="67.945" y="77.368"/><use xlink:href="#o" x="71.607" y="77.368"/><use xlink:href="#p" x="75.268" y="77.368"/><use xlink:href="#q" x="82.59" y="77.368"/><use xlink:href="#r" x="86.252" y="77.368"/><use xlink:href="#j" x="89.913" y="77.368"/><use xlink:href="#o" x="93.574" y="77.368"/><use xlink:href="#s" x="97.236" y="77.368"/><path fill="none" stroke="#000" stroke-miterlimit="10" stroke-width=".399" d="m174.895 10.969 2.816-2.82m-2.816 0 2.816 2.82"/><use xlink:href="#i" x="159.826" y="5.483"/><use xlink:href="#j" x="163.487" y="5.483"/><use xlink:href="#k" x="167.149" y="5.483"/><use xlink:href="#l" x="170.81" y="5.483"/><use xlink:href="#m" x="174.471" y="5.483"/><use xlink:href="#n" x="178.132" y="5.483"/><use xlink:href="#o" x="181.794" y="5.483"/><use xlink:href="#p" x="185.455" y="5.483"/><use xlink:href="#s" x="189.116" y="5.483"/><path fill="none" stroke="#000" stroke-miterlimit="10" stroke-width=".399" d="m246.777 82.855 2.82-2.82m-2.82 0 2.82 2.82"/><use xlink:href="#i" x="251.706" y="77.368"/><use xlink:href="#j" x="255.367" y="77.368"/><use xlink:href="#k" x="259.029" y="77.368"/><use xlink:href="#l" x="262.69" y="77.368"/><use xlink:href="#m" x="266.351" y="77.368"/><use xlink:href="#n" x="270.012" y="77.368"/><use xlink:href="#o" x="273.674" y="77.368"/><use xlink:href="#p" x="277.335" y="77.368"/><use xlink:href="#r" x="284.657" y="77.368"/><use xlink:href="#t" x="288.319" y="77.368"/><use xlink:href="#j" x="291.98" y="77.368"/><use xlink:href="#o" x="295.641" y="77.368"/><use xlink:href="#s" x="299.303" y="77.368"/><path fill="none" stroke="#000" stroke-miterlimit="10" stroke-width=".399" d="m31.121 154.738 2.817-2.816m-2.817 0 2.817 2.816"/><use xlink:href="#i" x="-.278" y="155.465"/><use xlink:href="#j" x="3.383" y="155.465"/><use xlink:href="#k" x="7.045" y="155.465"/><use xlink:href="#q" x="10.706" y="155.465"/><use xlink:href="#r" x="14.367" y="155.465"/><use xlink:href="#j" x="18.028" y="155.465"/><use xlink:href="#o" x="21.69" y="155.465"/><use xlink:href="#s" x="25.351" y="155.465"/><path fill="none" stroke="#000" stroke-miterlimit="10" stroke-width=".399" d="m174.895 154.738 2.816-2.816m-2.816 0 2.816 2.816"/><use xlink:href="#i" x="157.995" y="149.253"/><use xlink:href="#j" x="161.656" y="149.253"/><use xlink:href="#k" x="165.318" y="149.253"/><use xlink:href="#u" x="168.979" y="149.253"/><use xlink:href="#r" x="172.64" y="149.253"/><use xlink:href="#l" x="176.301" y="149.253"/><use xlink:href="#o" x="179.963" y="149.253"/><use xlink:href="#r" x="183.624" y="149.253"/><use xlink:href="#n" x="187.285" y="149.253"/><use xlink:href="#s" x="190.946" y="149.253"/><path fill="none" stroke="#000" stroke-miterlimit="10" stroke-width=".399" d="m318.664 154.738 2.82-2.816m-2.82 0 2.82 2.816"/><use xlink:href="#i" x="323.591" y="155.465"/><use xlink:href="#j" x="327.252" y="155.465"/><use xlink:href="#k" x="330.914" y="155.465"/><use xlink:href="#r" x="334.575" y="155.465"/><use xlink:href="#t" x="338.236" y="155.465"/><use xlink:href="#j" x="341.897" y="155.465"/><use xlink:href="#o" x="345.559" y="155.465"/><use xlink:href="#s" x="349.22" y="155.465"/><path fill="none" stroke="#000" stroke-miterlimit="10" stroke-width=".399" d="m174.895 180.844 2.816-2.817m-2.816 0 2.816 2.817"/><use xlink:href="#i" x="163.487" y="175.358"/><use xlink:href="#j" x="167.148" y="175.358"/><use xlink:href="#k" x="170.81" y="175.358"/><use xlink:href="#v" x="174.471" y="175.358"/><use xlink:href="#w" x="178.132" y="175.358"/><use xlink:href="#x" x="181.793" y="175.358"/><use xlink:href="#s" x="185.455" y="175.358"/><path fill="none" stroke="#000" stroke-miterlimit="10" stroke-width=".399" d="m174.895 183.059 2.816-2.82m-2.816 0 2.816 2.82"/><use xlink:href="#i" x="161.656" y="189.993"/><use xlink:href="#j" x="165.317" y="189.993"/><use xlink:href="#k" x="168.979" y="189.993"/><use xlink:href="#y" x="172.64" y="189.993"/><use xlink:href="#t" x="176.301" y="189.993"/><use xlink:href="#j" x="179.962" y="189.993"/><use xlink:href="#r" x="183.624" y="189.993"/><use xlink:href="#s" x="187.285" y="189.993"/><path fill="none" stroke="#000" stroke-miterlimit="10" stroke-width=".399" d="m103.008 226.625 2.816-2.816m-2.816 0 2.816 2.816"/><use xlink:href="#i" x="49.639" y="233.562"/><use xlink:href="#j" x="53.3" y="233.562"/><use xlink:href="#k" x="56.962" y="233.562"/><use xlink:href="#j" x="60.623" y="233.562"/><use xlink:href="#m" x="64.284" y="233.562"/><use xlink:href="#z" x="67.945" y="233.562"/><use xlink:href="#o" x="71.607" y="233.562"/><use xlink:href="#p" x="75.268" y="233.562"/><use xlink:href="#q" x="82.59" y="233.562"/><use xlink:href="#r" x="86.252" y="233.562"/><use xlink:href="#j" x="89.913" y="233.562"/><use xlink:href="#o" x="93.574" y="233.562"/><use xlink:href="#s" x="97.236" y="233.562"/><path fill="none" stroke="#000" stroke-miterlimit="10" stroke-width=".399" d="m174.895 298.512 2.816-2.817m-2.816 0 2.816 2.817"/><use xlink:href="#i" x="159.826" y="305.447"/><use xlink:href="#j" x="163.487" y="305.447"/><use xlink:href="#k" x="167.149" y="305.447"/><use xlink:href="#j" x="170.81" y="305.447"/><use xlink:href="#m" x="174.471" y="305.447"/><use xlink:href="#z" x="178.132" y="305.447"/><use xlink:href="#o" x="181.794" y="305.447"/><use xlink:href="#p" x="185.455" y="305.447"/><use xlink:href="#s" x="189.116" y="305.447"/><path fill="none" stroke="#000" stroke-miterlimit="10" stroke-width=".399" d="m246.777 226.625 2.82-2.816m-2.82 0 2.82 2.816"/><use xlink:href="#i" x="251.706" y="233.562"/><use xlink:href="#j" x="255.367" y="233.562"/><use xlink:href="#k" x="259.029" y="233.562"/><use xlink:href="#j" x="262.69" y="233.562"/><use xlink:href="#m" x="266.351" y="233.562"/><use xlink:href="#z" x="270.012" y="233.562"/><use xlink:href="#o" x="273.674" y="233.562"/><use xlink:href="#p" x="277.335" y="233.562"/><use xlink:href="#r" x="284.657" y="233.562"/><use xlink:href="#t" x="288.319" y="233.562"/><use xlink:href="#j" x="291.98" y="233.562"/><use xlink:href="#o" x="295.641" y="233.562"/><use xlink:href="#s" x="299.303" y="233.562"/><path fill="none" stroke="#000" stroke-miterlimit="10" stroke-width=".399" d="m151.625 183.059 2.816-2.82m-2.816 0 2.816 2.82"/><use xlink:href="#i" x="120.224" y="183.782"/><use xlink:href="#j" x="123.885" y="183.782"/><use xlink:href="#k" x="127.547" y="183.782"/><use xlink:href="#o" x="131.208" y="183.782"/><use xlink:href="#r" x="134.869" y="183.782"/><use xlink:href="#A" x="138.53" y="183.782"/><use xlink:href="#o" x="142.192" y="183.782"/><use xlink:href="#s" x="145.853" y="183.782"/><path fill="none" stroke="#000" stroke-miterlimit="10" stroke-width=".399" d="m297.121 133.188 2.82-2.817m-2.82 0 2.82 2.816"/><use xlink:href="#i" x="302.049" y="133.914"/><use xlink:href="#j" x="305.71" y="133.914"/><use xlink:href="#k" x="309.372" y="133.914"/><use xlink:href="#B" x="313.033" y="133.914"/><use xlink:href="#C" x="316.694" y="133.914"/><use xlink:href="#s" x="320.355" y="133.914"/><path fill="none" stroke="#000" stroke-miterlimit="10" stroke-width=".399" d="m109.293 76.562 2.816-2.82m-2.816 0 2.816 2.82"/><use xlink:href="#i" x="97.887" y="71.076"/><use xlink:href="#j" x="101.548" y="71.076"/><use xlink:href="#k" x="105.21" y="71.076"/><use xlink:href="#B" x="108.871" y="71.076"/><use xlink:href="#D" x="112.532" y="71.076"/><use xlink:href="#C" x="116.193" y="71.076"/><use xlink:href="#s" x="119.855" y="71.076"/></svg>