<svg xmlns="http://www.w3.org/2000/svg" width="91.334" height="83.918"><defs><clipPath id="a"><path d="M0 0h91v83.879H0Zm0 0"/></clipPath></defs><g clip-path="url(#a)"><path fill="none" stroke="#000" stroke-miterlimit="10" stroke-width=".399" d="m.813 41.906.898-.898c.25-.25.648-.656.898-.91s.653-.664.899-.922a73.976 73.976 0 0 0 1.8-1.922c.25-.277.649-.73.899-1.02.25-.293.648-.765.898-1.074.25-.305.653-.812.903-1.14.25-.329.648-.868.898-1.223.25-.352.649-.942.899-1.328s.648-1.032.898-1.457.652-1.145.902-1.621c.247-.48.649-1.286.899-1.832.25-.547.648-1.47.898-2.106.25-.633.649-1.707.899-2.457s.652-2.035.898-2.945c.25-.91.653-2.477.903-3.614.25-1.136.648-3.109.898-4.585.25-1.48.898-6.075.898-6.075m9.895 78.059s.648-5.39.898-7.106c.25-1.71.649-3.945.899-5.23.25-1.29.652-3.035.902-4.047.246-1.012.649-2.422.899-3.242s.648-1.992.898-2.68c.25-.683.648-1.68.898-2.261.25-.586.653-1.45.903-1.958a39 39 0 0 1 2.695-4.64 42.109 42.109 0 0 1 1.8-2.45c.25-.316.65-.808.9-1.105a62 62 0 0 1 2.699-3c.25-.262.648-.676.898-.933a196.11 196.11 0 0 1 1.797-1.816l.902-.903c.246-.25.649-.649.899-.903.25-.25.648-.656.898-.914.25-.257.649-.671.899-.933a72 72 0 0 0 1.8-1.957c.25-.281.649-.746.899-1.043s.648-.79.898-1.106a42 42 0 0 0 1.801-2.449c.25-.367.648-.98.898-1.387a38.668 38.668 0 0 0 1.797-3.254c.25-.507.653-1.37.903-1.957.25-.582.648-1.578.898-2.261.25-.688.649-1.86.899-2.68s.652-2.23.898-3.242c.25-1.012.652-2.758.902-4.047.246-1.285.649-3.52.899-5.23.25-1.715.898-7.106.898-7.106m9.895 78.059s.648-4.594.898-6.075c.25-1.476.649-3.449.899-4.585s.652-2.704.898-3.614c.25-.91.652-2.195.902-2.945s.649-1.824.899-2.457c.25-.637.648-1.559.898-2.106s.653-1.351.899-1.832c.25-.476.652-1.195.902-1.62s.648-1.071.898-1.458c.25-.386.649-.976.899-1.328.25-.355.648-.894.898-1.222a50.205 50.205 0 0 1 2.7-3.234 74 74 0 0 1 1.8-1.923c.246-.258.649-.668.899-.922s.648-.66.898-.91l.899-.898"/></g></svg>