<svg xmlns="http://www.w3.org/2000/svg" width="21.952" height="5.672"><defs><clipPath id="a"><path d="M7 0h14.93v5.508H7Zm0 0"/></clipPath><clipPath id="b"><path d="M11 0h10.93v5.508H11Zm0 0"/></clipPath></defs><path fill="none" stroke="#000" stroke-miterlimit="10" stroke-width=".399" d="M.984 2.676h11.817"/><path d="M16.059 2.676a1.628 1.628 0 1 0-3.256-.002 1.628 1.628 0 0 0 3.256.002m0 0"/><g clip-path="url(#a)"><path fill="none" stroke="#000" stroke-miterlimit="10" stroke-width=".399" d="M16.059 2.676a1.628 1.628 0 1 0-3.256-.002 1.628 1.628 0 0 0 3.256.002Zm0 0"/></g><path d="M20.71 2.676a1.628 1.628 0 1 0-3.255-.002 1.628 1.628 0 0 0 3.256.002m0 0"/><g clip-path="url(#b)"><path fill="none" stroke="#000" stroke-miterlimit="10" stroke-width=".399" d="M20.71 2.676a1.628 1.628 0 1 0-3.255-.002 1.628 1.628 0 0 0 3.256.002Zm0 0"/></g></svg>