<svg xmlns="http://www.w3.org/2000/svg" xmlns:xlink="http://www.w3.org/1999/xlink" width="99.514" height="27.974"><defs><path id="b" d="M7.188-4.89c0-1.094-.985-1.954-2.641-1.954H.39v.469h1.078v5.906H.39V0C.766-.031 1.75-.031 2.17-.031c.438 0 1.407 0 1.782.031v-.469H2.875v-2.547h1.766c1.39 0 2.547-.718 2.547-1.875m-1.532 0c0 .702 0 1.468-1.5 1.468H2.828v-2.953h1.344c1.484 0 1.484.766 1.484 1.484m0 0"/><path id="c" d="M5.516-.234c0-.235-.125-.235-.266-.235-.61-.015-.61-.14-.61-.375v-2.14c0-.891-.702-1.532-2.187-1.532-.562 0-1.781.047-1.781.922 0 .438.344.625.61.625.312 0 .624-.219.624-.625 0-.297-.187-.469-.218-.5a5 5 0 0 1 .718-.062c.75 0 1.11.422 1.11 1.172v.343c-.72.032-3.25.125-3.25 1.563C.266-.125 1.5.062 2.188.062c.796 0 1.265-.406 1.484-.828 0 .313 0 .766 1.047.766h.468c.204 0 .329 0 .329-.234m-2-1.157c0 .97-.922 1.094-1.172 1.094-.516 0-.906-.344-.906-.797 0-1.062 1.578-1.203 2.078-1.234Zm0 0"/><path id="d" d="M4.406-3.672c0-.531-.531-.812-1.062-.812-.688 0-1.094.5-1.313 1.125v-1.125l-1.656.078v.468c.61 0 .688 0 .688.391v3.078H.375V0l1.25-.031C2-.031 2.641-.031 3 0v-.469h-.86v-1.75c0-.687.235-1.906 1.235-1.906 0 0-.187.172-.187.453 0 .406.328.61.609.61.297 0 .61-.204.61-.61m0 0"/><path id="e" d="M2.922 0v-.469h-.688v-6.453L.47-6.844v.469c.625 0 .687 0 .687.39v5.516H.47V0l1.219-.031Zm0 0"/><path id="f" d="M4.922-1.172c0-.172-.188-.172-.234-.172-.172 0-.188.047-.25.203-.204.485-.782.797-1.422.797-1.407 0-1.422-1.328-1.422-1.828h3.015c.22 0 .313 0 .313-.265 0-.313-.063-1.047-.563-1.547-.359-.36-.89-.532-1.578-.532C1.187-4.516.313-3.484.313-2.25c0 1.344 1 2.313 2.609 2.313 1.578 0 2-1.063 2-1.235M3.984-2.5h-2.39c.015-.39.031-.812.234-1.14.266-.391.672-.516.953-.516 1.172 0 1.188 1.312 1.203 1.656m0 0"/><path id="h" d="M11.61-6.375v-.469c-.282.016-.626.032-1.079.032-.375 0-.984 0-1.344-.032v.469c.25 0 .72 0 1.016.11L8.484-1.798 6.72-6.375h.953v-.469c-.375.032-1.313.032-1.734.032-.391 0-1.188 0-1.532-.032v.469h.86l.406 1.063-1.36 3.515-1.765-4.578h.969v-.469c-.391.032-1.328.032-1.75.032-.391 0-1.172 0-1.532-.032v.469h.86l2.39 6.203c.063.156.11.25.36.25s.281-.094.344-.25l1.734-4.5 1.734 4.5c.063.156.094.25.344.25s.297-.094.36-.25l2.296-5.953c.063-.172.063-.187.375-.219.203-.031.406-.031.578-.031m0 0"/><path id="i" d="M6.125 0v-.469h-.687v-2.578c0-1.047-.532-1.437-1.532-1.437a1.9 1.9 0 0 0-1.687.953v-3.39l-1.766.077v.469c.61 0 .688 0 .688.39v5.516H.453V0l1.25-.031L2.953 0v-.469h-.687v-2.078c0-1.094.859-1.578 1.5-1.578.328 0 .547.203.547.969V-.47h-.688V0l1.25-.031Zm0 0"/><path id="j" d="M5.781-3.953v-.469A13 13 0 0 1 5-4.39l-.906-.03v.468s.468 0 .468.11L4.5-3.72 3.36-1.266 2.093-3.953h.531v-.469l-1.234.031-1.125-.03v.468H.89L2.766 0 2.53.484C2.312.954 2 1.641 1.281 1.641c-.14 0-.156-.016-.234-.047.094-.032.312-.172.312-.532C1.36.734 1.125.5.781.5a.553.553 0 0 0-.562.578c0 .5.469.922 1.062.922.766 0 1.344-.625 1.625-1.187l2.14-4.563c.063-.14.095-.203.735-.203m0 0"/><path id="k" d="M4.766-5.687c0-1.297-1.782-1.297-2.141-1.297-1.39 0-1.984.64-1.984 1.265 0 .485.359.64.609.64.328 0 .64-.218.64-.624 0-.469-.437-.594-.452-.61.25-.187.671-.312 1.125-.312.921 0 .921.39.921.86 0 .437-.078.609-.28.796-.61.657-.892 1.422-.892 2.063v.39c0 .22 0 .266.235.266s.234-.062.234-.297v-.281c0-1.016.922-1.625 1.313-1.844.187-.125.672-.39.672-1.016M3.313-.782a.78.78 0 0 0-.766-.781.784.784 0 0 0-.781.78.774.774 0 1 0 1.547 0m0 0"/><clipPath id="a"><path d="M0 0h52v27.96H0Zm0 0"/></clipPath><clipPath id="g"><path d="M56 0h43.27v27.96H56Zm0 0"/></clipPath></defs><g clip-path="url(#a)"><path fill="none" stroke="#000" stroke-miterlimit="10" stroke-width=".399" d="M.973 13.973V4.676c6.187-3.32 16.215-3.32 22.398 0 6.188 3.32 16.215 3.32 22.402 0v18.597c-6.187 3.32-16.214 3.32-22.402 0-6.183-3.32-16.21-3.32-22.398 0Zm0 0"/></g><use xlink:href="#b" x="4.295" y="17.401"/><use xlink:href="#c" x="11.807" y="17.401"/><use xlink:href="#d" x="17.376" y="17.401"/><use xlink:href="#c" x="22.098" y="17.401"/><use xlink:href="#e" x="27.667" y="17.401"/><use xlink:href="#e" x="30.845" y="17.401"/><use xlink:href="#f" x="34.024" y="17.401"/><use xlink:href="#e" x="39.274" y="17.401"/><g clip-path="url(#g)"><path fill="none" stroke="#000" stroke-miterlimit="10" stroke-width=".399" d="M62.07 13.973V3.68C67.04 7 75.098 7 80.066 3.68c4.97-3.32 13.028-3.32 17.996 0v20.59c-4.968 3.32-13.027 3.32-17.996 0s-13.027-3.32-17.996 0Zm0 0"/></g><use xlink:href="#h" x="65.391" y="16.464"/><use xlink:href="#i" x="77.237" y="16.464"/><use xlink:href="#j" x="83.284" y="16.464"/><use xlink:href="#k" x="89.331" y="16.464"/></svg>