<svg xmlns="http://www.w3.org/2000/svg" width="87.363" height="58.898"><defs><clipPath id="a"><path d="M0 23h87.043v35.848H0Zm0 0"/></clipPath></defs><path fill="none" stroke="#7F7F7F" stroke-miterlimit="10" stroke-width=".199" d="M.879 57.742h85.043M.879 29.395h85.043M.879 1.059h85.043M.879 57.742V1.047m28.348 56.695V1.047m28.347 56.695V1.047M85.91 57.742V1.047"/><g clip-path="url(#a)"><path fill="none" stroke="#000" stroke-miterlimit="10" stroke-width=".399" d="M.879 57.742c.121-.828.789-1.574 1.969-1.969L40.633 43.18c1.18-.395 1.847-1.14 1.969-1.97.59.59 1.574.786 2.753.395l37.782-12.593c1.183-.395 2.168-.2 2.758.394"/></g></svg>