<svg xmlns="http://www.w3.org/2000/svg" xmlns:xlink="http://www.w3.org/1999/xlink" width="62.012" height="62.462"><defs><path id="a" d="M4.922 0v-.469h-1.39v-5.734c0-.234 0-.328-.266-.328-.11 0-.125 0-.22.078-.765.562-1.796.562-2 .562H.845v.47h.203c.156 0 .703-.016 1.297-.204v5.156H.954V0c.437-.031 1.5-.031 1.984-.031s1.546 0 1.984.031m0 0"/><path id="b" d="M5.156-2.219h-.468c-.032.203-.125.844-.266.906-.11.063-.86.063-1.016.063H1.937c.47-.39 1-.812 1.438-1.14 1.14-.844 1.781-1.313 1.781-2.25 0-1.157-1.047-1.891-2.437-1.891-1.219 0-2.156.625-2.156 1.515 0 .594.484.735.718.735C1.61-4.281 2-4.5 2-5c0-.516-.422-.672-.562-.719.28-.234.671-.343 1.03-.343.845 0 1.313.671 1.313 1.421 0 .688-.375 1.375-1.078 2.079l-2 2.046c-.14.11-.14.141-.14.344V0h4.28Zm0 0"/><path id="c" d="M5.25-1.797c0-.547-.297-1.406-1.734-1.719.687-.203 1.406-.765 1.406-1.625 0-.765-.75-1.39-2.156-1.39-1.188 0-1.97.64-1.97 1.437 0 .422.313.703.688.703a.67.67 0 0 0 .704-.687c0-.578-.547-.688-.579-.703.344-.282.782-.36 1.094-.36.828 0 .86.641.86.97 0 .124-.016 1.437-1.047 1.5-.407.015-.438.015-.485.03-.094.016-.125.11-.125.172 0 .172.11.172.282.172h.437c1.094 0 1.094.985 1.094 1.5 0 .469 0 1.485-1.031 1.485-.266 0-.782-.047-1.266-.344C1.75-.75 2-1 2-1.406c0-.453-.312-.75-.75-.75-.422 0-.766.265-.766.765 0 .907.97 1.5 2.25 1.5 1.782 0 2.516-1 2.516-1.906m0 0"/><path id="d" d="M5.406 0v-.469h-.968v-1.094h.968v-.468h-.968V-6.22c0-.265-.016-.328-.297-.328-.22 0-.22.016-.344.172L.313-2.031v.469h2.875V-.47h-1.11V0c.375-.031 1.281-.031 1.703-.031.406 0 1.266 0 1.625.031m-2.11-2.031H.845L3.297-5.11Zm0 0"/><path id="e" d="M5.156-2c0-1.156-.797-2.078-2.265-2.078-.282 0-.813.031-1.282.344v-1.313c.282.047.391.078.72.078 1.452 0 2.374-1.125 2.374-1.375 0-.078-.016-.187-.14-.187-.032 0-.032 0-.141.047a4.3 4.3 0 0 1-1.531.28c-.75 0-1.282-.202-1.547-.28-.094-.032-.094-.047-.125-.047-.14 0-.14.11-.14.265v2.922c0 .172 0 .297.218.297.125 0 .156-.031.219-.11.39-.468.922-.562 1.328-.562.89 0 .89.875.89 1.672 0 .735 0 1.735-1.187 1.735-.25 0-.875-.063-1.297-.625.36-.016.656-.266.656-.672 0-.532-.437-.672-.672-.672-.14 0-.671.094-.671.703 0 .844.78 1.687 2.015 1.687C4.172.11 5.156-.78 5.156-2m0 0"/><path id="f" d="M5.25-2.047c0-1.39-1.016-2.125-2.219-2.125-.219 0-.781 0-1.203.766v-.188c0-1.14.219-1.562.281-1.719.25-.468.782-.828 1.391-.828.172 0 .516.032.75.266a.595.595 0 0 0-.547.61c0 .343.235.624.625.624s.625-.265.625-.64c0-.625-.422-1.25-1.469-1.25-1.359 0-3 .86-3 3.375 0 .781.079 1.578.5 2.265.47.766 1.22 1 1.922 1C4.281.11 5.25-.703 5.25-2.047m-1.36-.015c0 1 0 1.75-1.015 1.75-.516 0-.781-.391-.86-.563-.156-.312-.156-1.031-.156-1.219 0-1.25.532-1.719 1.079-1.719.953 0 .953.75.953 1.75m0 0"/><path id="g" d="M5.563-6.422H3.53c-.234 0-1.703-.047-1.844-.094-.203-.03-.218-.125-.234-.218H.984l-.343 2.53h.468c.094-.765.22-.89.266-.905.11-.063.922-.063 1.094-.063H4.14c-.172.219-.36.422-.547.64-.953 1.126-1.672 2.47-1.672 3.938 0 .703.562.703.625.703.156 0 .625-.046.625-.703v-.468c0-.47.031-.954.094-1.422.093-.672.297-1.25.656-1.657l1.547-1.796c.093-.11.093-.141.093-.485m0 0"/><clipPath id="h"><path d="M48 16h13.52v22H48Zm0 0"/></clipPath></defs><use xlink:href="#a" x="27.645" y="7.265"/><use xlink:href="#b" x="49.806" y="17.939"/><use xlink:href="#c" x="55.28" y="41.863"/><use xlink:href="#d" x="39.943" y="61.154"/><use xlink:href="#e" x="15.347" y="61.095"/><use xlink:href="#f" x=".011" y="41.863"/><use xlink:href="#g" x="5.484" y="17.988"/><path fill="none" stroke="#000" stroke-miterlimit="10" stroke-width=".399" d="m37.254 7.25 8.672 4.18"/><path fill="none" stroke="#000" stroke-linecap="round" stroke-linejoin="round" stroke-miterlimit="10" stroke-width=".39897606" d="M37.902 10.215c.282-1.453-.183-2.43-.828-3.05.887.116 1.938-.13 2.903-1.255M45.277 8.46c-.28 1.458.184 2.435.828 3.056-.886-.118-1.937.125-2.902 1.254"/><path fill="none" stroke="#000" stroke-miterlimit="10" stroke-width=".399" d="m23.766 7.25-8.676 4.18"/><path fill="none" stroke="#000" stroke-linecap="round" stroke-linejoin="round" stroke-miterlimit="10" stroke-width=".39898005000000003" d="M21.04 5.91c.964 1.125 2.019 1.371 2.905 1.254-.644.621-1.11 1.598-.828 3.05"/><path fill="none" stroke="#000" stroke-linecap="round" stroke-linejoin="round" stroke-miterlimit="10" stroke-width=".39897606" d="M17.816 12.77c-.964-1.13-2.02-1.372-2.906-1.254.645-.621 1.113-1.598.832-3.055"/><g clip-path="url(#h)"><path fill="none" stroke="#000" stroke-miterlimit="10" stroke-width=".399" d="m54.309 21.848 2.187 9.582"/></g><path fill="none" stroke="#000" stroke-linecap="round" stroke-linejoin="round" stroke-miterlimit="10" stroke-width=".39898803000000005" d="M52.395 24.207c1.312-.691 1.785-1.664 1.867-2.555.46.766 1.308 1.438 2.793 1.489M58.41 29.07c-1.316.692-1.789 1.664-1.87 2.555-.462-.766-1.31-1.437-2.794-1.488"/><path fill="none" stroke="#000" stroke-miterlimit="10" stroke-width=".399" d="m51.035 21.848-6.59 28.863"/><path fill="none" stroke="#000" stroke-linecap="round" stroke-linejoin="round" stroke-miterlimit="10" stroke-width=".39898404" d="M48.285 23.14c1.485-.05 2.332-.722 2.793-1.488.082.891.555 1.864 1.871 2.555"/><path fill="none" stroke="#000" stroke-linecap="round" stroke-linejoin="round" stroke-miterlimit="10" stroke-width=".39898005000000003" d="M47.191 49.418c-1.48.047-2.328.719-2.789 1.488-.086-.89-.558-1.863-1.87-2.554"/><path fill="none" stroke="#000" stroke-miterlimit="10" stroke-width=".399" d="M47.012 21.77 23.91 50.738"/><path fill="none" stroke="#000" stroke-linecap="round" stroke-linejoin="round" stroke-miterlimit="10" stroke-width=".39897606" d="M43.977 21.742c1.355.602 2.414.363 3.16-.129-.313.84-.309 1.922.578 3.114M26.95 50.766c-1.36-.598-2.415-.364-3.16.129.308-.84.308-1.922-.58-3.11"/><path fill="none" stroke="#000" stroke-miterlimit="10" stroke-width=".399" d="M45.926 17.922 9.617 35.41"/><path fill="none" stroke="#000" stroke-linecap="round" stroke-linejoin="round" stroke-miterlimit="10" stroke-width=".39897606" d="M43.203 16.582c.965 1.129 2.016 1.371 2.902 1.254-.644.621-1.109 1.598-.828 3.055M12.344 36.75c-.965-1.129-2.02-1.371-2.906-1.254.644-.621 1.109-1.598.828-3.055"/><path fill="none" stroke="#000" stroke-miterlimit="10" stroke-width=".399" d="M45.887 14.676H15.129"/><path fill="none" stroke="#000" stroke-linecap="round" stroke-linejoin="round" stroke-miterlimit="10" stroke-width=".399" d="M44.016 12.285c.379 1.434 1.222 2.113 2.07 2.39-.848.282-1.691.958-2.07 2.391M17.004 17.066c-.379-1.433-1.223-2.113-2.074-2.39.851-.278 1.695-.957 2.074-2.39"/><path fill="none" stroke="#000" stroke-miterlimit="10" stroke-width=".399" d="M51.402 35.41 15.09 17.922"/><path fill="none" stroke="#000" stroke-linecap="round" stroke-linejoin="round" stroke-miterlimit="10" stroke-width=".39897606" d="M50.75 32.441c-.281 1.457.187 2.434.832 3.055-.887-.117-1.941.125-2.906 1.254M15.742 20.89c.281-1.456-.187-2.433-.832-3.054.887.117 1.942-.125 2.906-1.254"/><path fill="none" stroke="#000" stroke-miterlimit="10" stroke-width=".399" d="M37.148 50.79 14.133 21.93"/><path fill="none" stroke="#000" stroke-linecap="round" stroke-linejoin="round" stroke-miterlimit="10" stroke-width=".39897606" d="M37.848 47.832c-.887 1.191-.887 2.273-.578 3.113-.747-.492-1.801-.73-3.16-.133M13.43 24.883c.886-1.188.89-2.27.578-3.11.75.493 1.804.727 3.16.13"/><path fill="none" stroke="#000" stroke-miterlimit="10" stroke-width=".399" d="M16.563 50.66 10.02 22.008"/><path fill="none" stroke="#000" stroke-linecap="round" stroke-linejoin="round" stroke-miterlimit="10" stroke-width=".39898404" d="M18.477 48.305c-1.317.687-1.79 1.66-1.872 2.55-.46-.765-1.308-1.437-2.793-1.488M8.105 24.363c1.317-.687 1.79-1.66 1.872-2.55.46.765 1.308 1.437 2.793 1.488"/><path fill="none" stroke="#000" stroke-miterlimit="10" stroke-width=".399" d="m4.523 31.43 2.153-9.422"/><path fill="none" stroke="#000" stroke-linecap="round" stroke-linejoin="round" stroke-miterlimit="10" stroke-width=".39898404" d="M7.27 30.137c-1.48.05-2.329.722-2.79 1.488-.082-.89-.554-1.863-1.87-2.555"/><path fill="none" stroke="#000" stroke-linecap="round" stroke-linejoin="round" stroke-miterlimit="10" stroke-width=".39898005000000003" d="M3.926 23.3c1.484-.05 2.332-.722 2.793-1.487.082.89.554 1.863 1.87 2.55"/></svg>