<svg xmlns="http://www.w3.org/2000/svg" width="30.39" height="9.47"><defs><clipPath id="a"><path d="M0 0h17v9.203H0Zm0 0"/></clipPath></defs><path fill="none" stroke="#000" stroke-miterlimit="10" stroke-width=".399" d="M10.496 4.477H28.68"/><path d="M1.555 4.477c1.097.261 5.925 1.757 8.941 3.386V1.086C7.48 2.715 2.652 4.21 1.555 4.476m0 0"/><g clip-path="url(#a)"><path fill="none" stroke="#000" stroke-miterlimit="10" stroke-width=".399" d="M1.555 4.477c1.097.261 5.925 1.757 8.941 3.386V1.086C7.48 2.715 2.652 4.21 1.555 4.476Zm0 0"/></g><path fill="none" stroke="#000" stroke-linecap="round" stroke-linejoin="round" stroke-miterlimit="10" stroke-width=".399" d="M24.336 2.082c.379 1.438 1.223 2.113 2.074 2.395-.851.277-1.695.953-2.074 2.39M26.809 2.082c.378 1.438 1.222 2.113 2.07 2.395-.848.277-1.692.953-2.07 2.39"/></svg>