<svg xmlns="http://www.w3.org/2000/svg" xmlns:xlink="http://www.w3.org/1999/xlink" width="178.418" height="135.344"><defs><path id="a" d="M3.89-2.547c0-.844-.078-1.36-.343-1.875-.344-.703-1-.875-1.438-.875-1 0-1.375.75-1.484.969C.344-3.75.328-2.953.328-2.547c0 .531.016 1.328.406 1.969.36.594.954.75 1.375.75.391 0 1.063-.125 1.47-.906.296-.578.312-1.297.312-1.813M2.11-.062c-.266 0-.813-.125-.985-.954-.094-.453-.094-1.203-.094-1.625 0-.546 0-1.109.094-1.546.172-.813.781-.891.984-.891.266 0 .829.14.985.86.094.437.094 1.046.094 1.577 0 .47 0 1.188-.094 1.641-.172.828-.719.938-.985.938m0 0"/><path id="b" d="M2.25-1.625c.125-.125.453-.39.594-.5.484-.453.953-.89.953-1.61 0-.953-.797-1.562-1.781-1.562-.97 0-1.594.719-1.594 1.438 0 .39.312.437.422.437.172 0 .422-.11.422-.422 0-.406-.407-.406-.5-.406.234-.594.765-.781 1.156-.781.734 0 1.125.625 1.125 1.297 0 .828-.578 1.437-1.531 2.39l-1 1.047C.422-.219.422-.203.422 0h3.14l.235-1.422h-.25c-.016.156-.078.547-.172.703-.047.063-.656.063-.781.063H1.172Zm0 0"/><path id="c" d="M3.14-5.156c0-.157 0-.219-.171-.219-.094 0-.11 0-.188.11L.234-1.564v.25h2.25v.672c0 .297-.015.375-.64.375h-.172V0c.672-.031.687-.031 1.14-.031.454 0 .47 0 1.141.031v-.266h-.172c-.625 0-.64-.078-.64-.375v-.671h.843v-.25h-.843Zm-.593.64v2.954H.516Zm0 0"/><path id="d" d="M1.094-2.64c0-.657.062-1.235.343-1.72.25-.406.657-.734 1.157-.734.156 0 .515.032.703.297-.36.031-.39.297-.39.375 0 .25.187.375.374.375.14 0 .375-.078.375-.39 0-.47-.36-.86-1.078-.86C1.468-5.297.344-4.25.344-2.53.344-.36 1.359.172 2.125.172c.39 0 .797-.11 1.156-.453.328-.313.594-.64.594-1.344 0-1.031-.797-1.766-1.672-1.766-.578 0-.922.36-1.11.75M2.125-.079a.88.88 0 0 1-.797-.516c-.187-.36-.203-.89-.203-1.203 0-.781.422-1.375 1.047-1.375.39 0 .64.203.781.485.172.296.172.656.172 1.062s0 .75-.156 1.047c-.219.36-.485.5-.844.5m0 0"/><path id="e" d="M2.64-2.875c.454-.219 1-.61 1-1.234 0-.766-.78-1.188-1.515-1.188-.844 0-1.531.578-1.531 1.328 0 .297.094.563.297.797.14.172.172.188.656.5C.563-2.234.344-1.656.344-1.219c0 .89.89 1.39 1.765 1.39.97 0 1.766-.671 1.766-1.515 0-.5-.266-.828-.406-.968-.125-.126-.14-.141-.828-.563m-1.234-.75c-.234-.14-.422-.375-.422-.64 0-.5.547-.829 1.125-.829.61 0 1.125.422 1.125.985 0 .453-.359.843-.828 1.078Zm.39 1.094c.032.015.938.578 1.079.656.125.078.547.328.547.813 0 .609-.656.984-1.297.984-.719 0-1.312-.484-1.312-1.14 0-.594.437-1.063.984-1.313m0 0"/><path id="g" d="M2.5-5.078c0-.219-.016-.219-.234-.219-.328.313-.75.5-1.5.5v.266c.218 0 .64 0 1.109-.203v4.078c0 .297-.031.39-.781.39H.812V0c.329-.031 1.016-.031 1.376-.031s1.046 0 1.374.031v-.266h-.28c-.75 0-.782-.093-.782-.39Zm0 0"/><path id="i" d="M1.11-4.484c.109.03.421.125.765.125 1 0 1.594-.703 1.594-.828 0-.094-.047-.11-.094-.11-.016 0-.031 0-.094.031a3 3 0 0 1-1.11.22c-.468 0-.858-.11-1.108-.22-.079-.03-.094-.03-.11-.03-.094 0-.094.077-.094.234v2.328c0 .14 0 .234.125.234.063 0 .079-.031.125-.094.094-.11.391-.515 1.079-.515.437 0 .656.359.734.515.125.281.14.656.14.953s0 .735-.218 1.079c-.156.25-.485.484-.906.484A1.27 1.27 0 0 1 .734-.922c.016.016.079.016.079.016.218 0 .406-.14.406-.39a.39.39 0 0 0-.39-.407c-.157 0-.407.078-.407.422 0 .718.625 1.453 1.531 1.453 1 0 1.844-.781 1.844-1.766 0-.922-.672-1.75-1.61-1.75-.39 0-.765.125-1.078.406Zm0 0"/><path id="f" d="M5.563-1.812c.14 0 .312 0 .312-.172 0-.188-.172-.188-.312-.188H1c-.125 0-.297 0-.297.188 0 .172.172.172.297.172Zm0 0"/><path id="h" d="M1.625-.437a.463.463 0 0 0-.453-.454.447.447 0 0 0-.438.438.44.44 0 0 0 .438.453.45.45 0 0 0 .453-.437m0 0"/><path id="j" d="M4.406-3.625a.504.504 0 0 0-.422.484c0 .172.125.329.344.329.25 0 .5-.22.5-.532 0-.422-.453-.625-.875-.625-.531 0-.844.485-.953.672a1.04 1.04 0 0 0-1-.672c-.953 0-1.484 1.156-1.484 1.39 0 .079.062.11.125.11.078 0 .109-.047.125-.11.28-.89.875-1.155 1.218-1.155.266 0 .485.172.485.593 0 .313-.375 1.75-.5 2.188-.063.265-.344.828-.828.828-.188 0-.375-.062-.453-.11.234-.046.421-.265.421-.484 0-.234-.171-.328-.343-.328-.266 0-.5.219-.5.531 0 .438.484.61.859.61.531 0 .828-.422.969-.672.219.594.75.672.984.672.969 0 1.485-1.156 1.485-1.375 0-.047-.032-.11-.11-.11-.11 0-.11.032-.156.172-.203.64-.719 1.094-1.188 1.094-.25 0-.5-.156-.5-.594 0-.203.125-.687.204-1.031.046-.156.28-1.125.296-1.187.11-.329.375-.797.844-.797.156 0 .328.015.453.109m0 0"/><path id="k" d="M3.078-3.781c0-.156 0-.235-.094-.235-.046 0-.062 0-.187.11-.016.015-.094.094-.156.14-.266-.203-.547-.25-.86-.25-1.187 0-1.468.657-1.468 1.11 0 .281.125.515.328.719.297.28.64.343 1.093.421.47.094.61.11.813.266.094.078.312.25.312.578 0 .797-.906.797-1.03.797-.907 0-1.141-.766-1.25-1.25-.032-.094-.048-.14-.141-.14-.125 0-.125.077-.125.234v1.14c0 .157 0 .235.093.235.063 0 .063 0 .235-.172a1.2 1.2 0 0 1 .172-.219c.375.375.796.39 1.015.39 1.11 0 1.485-.64 1.485-1.234 0-.406-.172-.656-.376-.859-.296-.297-.624-.36-1.28-.484-.235-.047-.891-.157-.891-.672 0-.281.203-.672 1.015-.672.969 0 1.032.75 1.047.969.016.109.016.172.125.172.125 0 .125-.063.125-.235Zm0 0"/><path id="l" d="m1.656-3.969-1.297.11v.265c.579 0 .657.063.657.5v2.407c0 .406-.094.406-.688.406V0c.39-.016.594-.031.984-.031.141 0 .516 0 .954.031v-.281c-.578 0-.61-.047-.61-.39Zm.016-1.562a.477.477 0 0 0-.484-.485.497.497 0 0 0-.485.485c0 .265.219.484.485.484a.47.47 0 0 0 .484-.484m0 0"/><path id="m" d="M1.672-2.328c0-.953.672-1.406 1.234-1.406.531 0 .64.437.64.968v2.079c0 .406-.093.406-.687.406V0c.422-.016.594-.031 1.032-.031.422 0 .547.015 1.015.031v-.281c-.453 0-.687 0-.687-.281v-1.72c0-.734 0-1-.25-1.312-.203-.25-.547-.375-1-.375-.828 0-1.219.625-1.344.875h-.016v-.875l-1.296.11v.265c.609 0 .687.063.687.516v2.39C1-.28.906-.28.313-.28V0c.421-.016.593-.031 1.03-.031.423 0 .548.015 1.016.031v-.281c-.593 0-.687 0-.687-.406Zm0 0"/><path id="n" d="M4.14-1.594h-.25c-.015.125-.093.657-.203.797-.062.078-.671.078-.859.078H1.234l.891-.843c1.469-1.266 2.016-1.75 2.016-2.657 0-1.031-.844-1.75-1.953-1.75-1.032 0-1.735.813-1.735 1.625 0 .453.39.5.469.5.203 0 .469-.14.469-.469a.45.45 0 0 0-.47-.468c-.046 0-.062 0-.109.015.22-.64.797-.921 1.282-.921.906 0 1.219.843 1.219 1.468 0 .907-.688 1.657-1.11 2.125L.563-.328c-.11.11-.11.125-.11.328h3.438Zm0 0"/><path id="o" d="M3.266-3.531c-.188.047-.375.172-.375.422a.42.42 0 0 0 .422.422c.234 0 .421-.157.421-.438 0-.547-.625-.89-1.421-.89-1.141 0-2 .952-2 2.077C.313-.78 1.234.095 2.297.095c1.25 0 1.531-1.078 1.531-1.156 0-.11-.094-.11-.125-.11-.094 0-.094.016-.156.172-.203.61-.703.844-1.156.844-.578 0-1.313-.469-1.313-1.797 0-1.39.719-1.813 1.25-1.813.125 0 .61.016.938.235m0 0"/><path id="p" d="M4.344-1.906c0-1.172-.938-2.11-2.032-2.11-1.14 0-2.046.954-2.046 2.11 0 1.11.922 2 2.03 2 1.142 0 2.048-.906 2.048-2M2.312-.156c-.453 0-.828-.219-1.03-.563-.235-.39-.25-.86-.25-1.265 0-.344 0-.844.218-1.22a1.22 1.22 0 0 1 1.047-.593c.515 0 .875.297 1.062.594.204.375.204.828.204 1.219 0 .328 0 .843-.22 1.234a1.18 1.18 0 0 1-1.03.594m0 0"/><clipPath id="q"><path d="M31 121h38v14.016H31Zm0 0"/></clipPath><clipPath id="r"><path d="M83 121h38v14.016H83Zm0 0"/></clipPath></defs><path fill="none" stroke="#BFBFBF" stroke-miterlimit="10" stroke-width=".399" d="M27.05 47.184h141.735"/><path fill="none" stroke="#7F7F7F" stroke-linecap="round" stroke-miterlimit="10" stroke-width=".399" d="M27.05 97.953v-1.992M57.129 97.953v-1.992M87.21 97.953v-1.992M117.29 97.953v-1.992M147.367 97.953v-1.992M20.074 90.98h1.996M20.074 69.082h1.996M20.074 47.184h1.996M20.074 25.285h1.996M20.074 3.39h1.996"/><path fill="none" stroke="#7F7F7F" stroke-miterlimit="10" stroke-width=".399" d="M27.05 95.96h141.735"/><path fill="none" stroke="#BFBFBF" stroke-linecap="square" stroke-miterlimit="10" stroke-width=".399" d="M27.05 90.98h141.735M27.05 3.39h141.735"/><path fill="none" stroke="#7F7F7F" stroke-miterlimit="10" stroke-width=".399" d="M22.07 90.98V3.39"/><path fill="none" stroke="#BFBFBF" stroke-linecap="square" stroke-miterlimit="10" stroke-width=".399" d="M27.05 90.98V3.39M168.785 90.98V3.39"/><path fill="none" stroke="#090" stroke-miterlimit="10" stroke-width=".598" d="M27.05 3.39s4.266 6.75 5.907 12.825c1.637 6.078 4.266 22.375 5.906 30.969 1.637 8.593 4.266 24.89 5.907 30.964 1.636 6.079 4.265 12.832 5.902 12.832 1.64 0 4.27-6.75 5.906-12.824 1.64-6.074 4.27-22.37 5.906-30.965 1.641-8.593 4.27-24.89 5.907-30.968 1.64-6.078 4.27-12.832 5.906-12.832 1.64-.004 4.266 6.742 5.906 12.816 1.64 6.078 4.266 22.371 5.906 30.965 1.637 8.594 4.266 24.89 5.907 30.969 1.636 6.078 4.265 12.836 5.906 12.84 1.637.003 4.266-6.743 5.906-12.817 1.637-6.074 4.266-22.367 5.906-30.96 1.637-8.595 4.266-24.895 5.903-30.974 1.64-6.078 4.27-12.835 5.906-12.84 1.64-.003 4.27 6.739 5.906 12.813 1.64 6.074 4.27 22.367 5.906 30.961 1.641 8.594 4.27 24.89 5.907 30.973 1.64 6.078 4.265 12.84 5.906 12.843 1.64.004 4.266-6.738 5.906-12.808 1.637-6.074 4.266-22.367 5.906-30.961 1.637-8.594 4.266-24.895 5.907-30.973 1.636-6.082 5.906-12.847 5.906-12.847"/><path fill="none" stroke="#00C" stroke-miterlimit="10" stroke-width=".598" d="M27.05 47.184s4.266-24.891 5.907-30.965C34.594 10.14 37.223 3.39 38.863 3.39c1.637 0 4.266 6.746 5.907 12.824 1.636 6.074 4.265 22.37 5.902 30.965 1.64 8.593 4.27 24.89 5.906 30.968 1.64 6.079 4.27 12.832 5.906 12.832 1.641 0 4.27-6.746 5.907-12.82 1.64-6.078 4.27-22.37 5.906-30.965 1.64-8.593 4.266-24.89 5.906-30.968C81.843 10.148 84.47 3.39 86.11 3.39c1.637-.004 4.266 6.742 5.907 12.816 1.636 6.074 4.265 22.371 5.906 30.965 1.637 8.59 4.266 24.89 5.906 30.969 1.637 6.078 4.266 12.836 5.906 12.84 1.637.003 4.266-6.743 5.903-12.813 1.64-6.074 4.27-22.371 5.906-30.965 1.64-8.594 4.27-24.89 5.906-30.969 1.64-6.082 4.27-12.84 5.906-12.843 1.641-.004 4.27 6.738 5.907 12.808 1.64 6.074 4.265 22.367 5.906 30.961 1.64 8.594 4.266 24.895 5.906 30.973 1.637 6.082 4.266 12.844 5.906 12.847 1.637.004 4.266-6.734 5.907-12.808 1.636-6.07 5.906-30.957 5.906-30.957"/><path fill="none" stroke="#C00" stroke-miterlimit="10" stroke-width=".598" d="M27.05 3.39s4.266 1.555 5.907 3.333c1.637 1.78 4.266 6.207 5.906 9.492 1.637 3.289 4.266 9.914 5.907 14.21 1.636 4.294 4.265 12.106 5.902 16.759 1.64 4.648 4.27 12.46 5.906 16.757 1.64 4.297 4.27 10.918 5.906 14.207 1.641 3.29 4.27 7.715 5.907 9.497 1.64 1.777 4.27 3.335 5.906 3.335 1.64 0 4.266-1.554 5.906-3.332 1.64-1.78 4.266-6.203 5.906-9.492 1.637-3.289 4.266-9.91 5.907-14.207 1.636-4.297 4.265-12.105 5.906-16.758 1.637-4.648 4.266-12.46 5.906-16.757 1.637-4.297 4.266-10.922 5.906-14.211 1.637-3.29 4.266-7.715 5.903-9.496 1.64-1.778 4.27-3.336 5.906-3.336 1.64 0 4.27 1.55 5.906 3.332 1.64 1.777 4.27 6.199 5.906 9.484 1.641 3.29 4.27 9.914 5.907 14.207 1.64 4.297 4.265 12.11 5.906 16.758 1.64 4.652 4.266 12.46 5.906 16.758 1.637 4.297 4.266 10.922 5.906 14.21 1.637 3.294 4.266 7.72 5.907 9.5 1.636 1.782 5.906 3.34 5.906 3.34"/><path fill="none" stroke="#000" stroke-miterlimit="10" stroke-width=".598" d="M27.05 47.184s4.266-12.461 5.907-16.758c1.637-4.297 4.266-10.918 5.906-14.207 1.637-3.29 4.266-7.715 5.907-9.492 1.636-1.782 4.265-3.336 5.902-3.336 1.64 0 4.27 1.554 5.906 3.332 1.64 1.78 4.27 6.203 5.906 9.492 1.641 3.289 4.27 9.91 5.907 14.207 1.64 4.297 4.27 12.11 5.906 16.758 1.64 4.652 4.266 12.46 5.906 16.758 1.64 4.296 4.266 10.921 5.906 14.21 1.637 3.29 4.266 7.715 5.907 9.493 1.636 1.78 4.265 3.34 5.906 3.34 1.637 0 4.266-1.555 5.906-3.333 1.637-1.78 4.266-6.203 5.906-9.488 1.637-3.289 4.266-9.91 5.903-14.207 1.64-4.297 4.27-12.11 5.906-16.758 1.64-4.652 4.27-12.46 5.906-16.757 1.64-4.297 4.27-10.922 5.906-14.211 1.641-3.29 4.27-7.715 5.907-9.497 1.64-1.78 4.265-3.34 5.906-3.34 1.64-.003 4.266 1.551 5.906 3.329 1.637 1.781 4.266 6.203 5.906 9.488 1.637 3.29 4.266 9.91 5.907 14.207 1.636 4.297 5.906 16.758 5.906 16.758"/><use xlink:href="#a" x="24.933" y="105.747"/><use xlink:href="#b" x="55.012" y="105.747"/><use xlink:href="#c" x="85.092" y="105.747"/><use xlink:href="#d" x="115.171" y="105.747"/><use xlink:href="#e" x="145.25" y="105.747"/><use xlink:href="#f" x="6.6" y="93.133"/><use xlink:href="#g" x="13.186" y="93.133"/><use xlink:href="#f" x=".013" y="71.237"/><use xlink:href="#a" x="6.6" y="71.237"/><use xlink:href="#h" x="10.834" y="71.237"/><use xlink:href="#i" x="13.186" y="71.237"/><use xlink:href="#a" x="13.186" y="49.754"/><use xlink:href="#a" x="6.6" y="27.856"/><use xlink:href="#h" x="10.834" y="27.856"/><use xlink:href="#i" x="13.186" y="27.856"/><use xlink:href="#g" x="13.186" y="5.959"/><use xlink:href="#j" x="172.31" y="97.892"/><use xlink:href="#k" x="64.549" y="122.965"/><use xlink:href="#l" x="68.184" y="122.965"/><use xlink:href="#m" x="70.744" y="122.965"/><use xlink:href="#j" x="77.399" y="122.965"/><path fill="none" stroke="#000" stroke-miterlimit="10" stroke-width=".598" d="M39.645 120.754s2.91-1.512 4.984-1.328 7.887 2.469 9.96 2.652c2.075.188 4.981-1.324 4.981-1.324"/><use xlink:href="#k" x="116.818" y="122.965"/><use xlink:href="#l" x="120.453" y="122.965"/><use xlink:href="#m" x="123.013" y="122.965"/><use xlink:href="#n" x="129.666" y="122.965"/><use xlink:href="#j" x="134.276" y="122.965"/><path fill="none" stroke="#00C" stroke-miterlimit="10" stroke-width=".598" d="M91.914 120.754s2.91-1.512 4.984-1.328c2.07.183 7.887 2.469 9.961 2.652 2.075.188 4.98-1.324 4.98-1.324"/><use xlink:href="#o" x="64.549" y="133.924"/><use xlink:href="#p" x="68.645" y="133.924"/><use xlink:href="#k" x="73.253" y="133.924"/><use xlink:href="#j" x="78.423" y="133.924"/><g clip-path="url(#q)"><path fill="none" stroke="#C00" stroke-miterlimit="10" stroke-width=".598" d="M39.645 131.71s2.91-1.51 4.984-1.323c2.074.183 7.887 2.468 9.96 2.652 2.075.184 4.981-1.328 4.981-1.328"/></g><use xlink:href="#o" x="116.818" y="133.924"/><use xlink:href="#p" x="120.914" y="133.924"/><use xlink:href="#k" x="125.522" y="133.924"/><use xlink:href="#n" x="130.69" y="133.924"/><use xlink:href="#j" x="135.3" y="133.924"/><g clip-path="url(#r)"><path fill="none" stroke="#090" stroke-miterlimit="10" stroke-width=".598" d="M91.914 131.71s2.91-1.51 4.984-1.323c2.07.183 7.887 2.468 9.961 2.652s4.98-1.328 4.98-1.328"/></g></svg>