<svg xmlns="http://www.w3.org/2000/svg" xmlns:xlink="http://www.w3.org/1999/xlink" width="444.836" height="214.202"><defs><path id="a" d="M1.781-1.14C1.391-.485 1-.345.563-.314c-.125.016-.22.016-.22.204 0 .062.063.109.141.109.266 0 .579-.031.844-.031.344 0 .688.031 1 .031.063 0 .188 0 .188-.187 0-.11-.079-.125-.157-.125-.218-.016-.468-.094-.468-.344 0-.125.062-.235.14-.375l.766-1.266h2.5c.016.203.156 1.563.156 1.656 0 .297-.516.329-.719.329-.14 0-.234 0-.234.203C4.5 0 4.61 0 4.64 0c.407 0 .829-.031 1.235-.031.25 0 .89.031 1.14.031.048 0 .173 0 .173-.203 0-.11-.094-.11-.235-.11-.61 0-.61-.062-.64-.359l-.61-6.219c-.016-.203-.016-.25-.187-.25-.157 0-.203.079-.266.172Zm1.203-1.47 1.954-3.296.328 3.297Zm0 0"/><path id="b" d="M1.594-.781c-.094.39-.125.469-.907.469-.171 0-.265 0-.265.203C.422 0 .516 0 .688 0H4.25C5.828 0 7-1.172 7-2.156c0-.719-.578-1.297-1.547-1.406 1.031-.188 2.078-.922 2.078-1.876 0-.734-.656-1.375-1.843-1.375h-3.36c-.187 0-.281 0-.281.204 0 .109.094.109.281.109.016 0 .203 0 .375.016.172.03.266.03.266.172 0 .03-.016.062-.031.187Zm1.5-2.875.625-2.469c.094-.344.11-.375.531-.375h1.297c.875 0 1.078.594 1.078 1.031 0 .875-.86 1.813-2.062 1.813ZM2.656-.312h-.219c-.109-.016-.14-.032-.14-.11 0-.031 0-.047.062-.219l.688-2.78h1.875c.953 0 1.156.733 1.156 1.155 0 .985-.89 1.954-2.078 1.954Zm0 0"/><path id="c" d="M1.578-.781c-.094.39-.11.469-.906.469-.156 0-.266 0-.266.187C.406 0 .484 0 .672 0h3.312c2.063 0 4.032-2.11 4.032-4.281 0-1.407-.844-2.532-2.344-2.532H2.328c-.187 0-.297 0-.297.188 0 .125.078.125.281.125.126 0 .313.016.422.016.172.03.22.046.22.172 0 .03 0 .062-.032.187Zm2.156-5.344c.094-.344.11-.375.547-.375h1.063c.968 0 1.797.531 1.797 1.844 0 .484-.188 2.125-1.047 3.218A2.92 2.92 0 0 1 3.797-.312H2.453c-.094-.016-.125-.032-.125-.11 0-.031 0-.047.047-.219Zm0 0"/><path id="d" d="M7.063-2.328c.015-.047.046-.11.046-.14 0 0 0-.11-.125-.11-.093 0-.109.062-.125.125-.656 1.469-1.015 2.14-2.718 2.14H2.468c-.109-.015-.14-.03-.14-.109 0-.031 0-.047.047-.219l.688-2.734h.984c.844 0 .844.219.844.469 0 .062 0 .187-.063.484-.016.047-.031.078-.031.11 0 .046.031.109.125.109.078 0 .11-.047.156-.203l.563-2.328c0-.063-.047-.11-.125-.11-.079 0-.11.063-.125.172-.22.766-.391 1-1.313 1h-.937l.593-2.406c.094-.36.11-.39.547-.39h1.407c1.203 0 1.515.28 1.515 1.109 0 .234 0 .25-.047.53 0 .048-.015.126-.015.173s.03.125.125.125c.109 0 .125-.063.14-.25l.203-1.735c.032-.265-.015-.265-.265-.265H2.297c-.188 0-.297 0-.297.203 0 .11.094.11.281.11.375 0 .656 0 .656.171 0 .047 0 .063-.062.25L1.563-.78c-.094.39-.11.469-.907.469-.172 0-.281 0-.281.187C.375 0 .469 0 .656 0h5.172c.234 0 .25-.016.313-.172Zm0 0"/><path id="e" d="M7.578-6.922c0-.031-.016-.11-.11-.11-.03 0-.046.016-.155.126l-.688.765c-.094-.14-.547-.89-1.656-.89C2.734-7.031.5-4.828.5-2.516.5-.875 1.672.22 3.203.22c.86 0 1.625-.39 2.156-.86.922-.812 1.094-1.718 1.094-1.75 0-.109-.11-.109-.125-.109-.062 0-.11.031-.125.11-.094.28-.328 1-1.016 1.578-.687.546-1.312.718-1.828.718-.89 0-1.953-.515-1.953-2.062 0-.578.203-2.188 1.203-3.36.61-.703 1.547-1.203 2.438-1.203 1.016 0 1.61.766 1.61 1.922 0 .406-.032.406-.032.516 0 .093.11.093.14.093.126 0 .126-.015.188-.203Zm0 0"/><path id="f" d="M6.64-4.39c0-.985-.906-1.766-2.437-1.766H.375v.437h.969v5.282H.375V0c.313-.031 1.25-.031 1.61-.031.374 0 1.312 0 1.624.031v-.437h-.968v-2.25h1.656c1.281 0 2.344-.657 2.344-1.704m-1.406 0c0 .624 0 1.312-1.375 1.312H2.594v-2.64h1.265c1.375 0 1.375.687 1.375 1.327m0 0"/><path id="g" d="M4.078-3.281c0-.453-.469-.75-1-.75-.625 0-1 .453-1.203.968h-.016v-.968L.375-3.97v.438c.531 0 .61 0 .61.36v2.734h-.61V0l1.14-.031c.22 0 .75 0 1.22.031v-.437h-.766v-1.516c0-.656.25-1.703 1.11-1.719a.57.57 0 0 0-.142.39c0 .391.313.579.563.579.297 0 .578-.203.578-.578m0 0"/><path id="h" d="M5-1.953c0-1.172-.828-2.11-2.344-2.11-1.578 0-2.36.985-2.36 2.11 0 1.11.813 2 2.345 2C4.25.047 5-.891 5-1.953m-1.187-.094c0 .766 0 1.719-1.157 1.719-1.172 0-1.172-.953-1.172-1.719 0-.765 0-1.656 1.157-1.656 1.172 0 1.172.89 1.172 1.656m0 0"/><path id="i" d="M5.531-1.984c0-1.188-.812-2.047-2.172-2.047-.718 0-1.218.297-1.39.422v-.422L.375-3.97v.438c.172 0 .313 0 .438.031.171.031.171.125.171.313v4.484H.375v.437L1.5 1.72l1.14.015v-.437h-.609v-1.64c.531.39 1.016.39 1.188.39 1.406 0 2.312-.844 2.312-2.031M4.344-2c0 1.25-.64 1.688-1.235 1.688-.453 0-.843-.25-1.078-.625v-2.157a1.55 1.55 0 0 1 1.188-.562c.625 0 1.125.562 1.125 1.656m0 0"/><path id="j" d="M3.828-1.25c0-.469-.265-.75-.422-.89-.406-.329-.687-.376-1.39-.5-.438-.063-1-.157-1-.563 0-.531.828-.531 1.03-.531 1 0 1.032.53 1.063.765 0 .125.125.125.22.125.218 0 .233-.047.233-.265v-.688c0-.172 0-.265-.187-.265-.078 0-.234.078-.39.156-.282-.125-.641-.156-.938-.156-.266 0-1.703 0-1.703 1.187 0 .938 1.187 1.14 1.5 1.188.734.125 1.328.218 1.328.734 0 .64-.844.64-1.047.64-.453 0-1.047-.109-1.297-.937-.047-.156-.062-.172-.25-.172-.234 0-.234.047-.234.266v.953c0 .156 0 .25.187.25.063 0 .078 0 .282-.125l.234-.14c.422.265.906.265 1.078.265.266 0 1.703 0 1.703-1.297m0 0"/><path id="k" d="M2.625 0v-.437h-.547v-3.594L.5-3.97v.438c.516 0 .578 0 .578.36v2.734h-.61V0c.595-.016.72-.031 1.095-.031.437 0 .546.015 1.062.031m-.453-5.422a.713.713 0 0 0-.703-.719.71.71 0 0 0-.703.704.7.7 0 0 0 .703.703.697.697 0 0 0 .703-.688m0 0"/><path id="l" d="M3.531-1.11v-.468h-.469v.453c0 .625-.312.797-.546.797C2-.328 2-.875 2-1.078v-2.469h1.36v-.437H2v-1.703h-.453c-.016.828-.438 1.765-1.344 1.78v.36h.75v2.438c0 1.03.89 1.156 1.438 1.156.703 0 1.14-.5 1.14-1.156m0 0"/><path id="m" d="M5.656 0v-.437h-.61v-2.297c0-1.063-.655-1.297-1.437-1.297-1.093 0-1.53.797-1.593.937H2v-.937L.453-3.97v.438c.531 0 .61 0 .61.36v2.734h-.61V0l1.125-.031L2.718 0v-.437H2.11v-1.844c0-1 .829-1.39 1.36-1.39.344 0 .515.187.515.858v2.376h-.609V0l1.14-.031Zm0 0"/><path id="n" d="M3.656 0v-.437H2.641V-5.72h1.015v-.437c-.312.031-1.281.031-1.656.031s-1.36 0-1.672-.031v.437h1.016v5.282H.328V0C.641-.031 1.61-.031 1.984-.031c.391 0 1.36 0 1.672.031m0 0"/><path id="G" d="M5.922-2.469h-.453c-.063.61-.219 2.031-1.86 2.031h-.968v-5.28h1.218v-.438c-.375.031-1.39.031-1.812.031-.375 0-1.36 0-1.672-.031v.437h.969v5.282H.375V0h5.281Zm0 0"/><path id="H" d="M4.563-1.047c0-.172-.172-.172-.235-.172-.156 0-.172.047-.234.172-.203.469-.75.719-1.313.719-1.281 0-1.297-1.156-1.297-1.594h2.782c.187 0 .297 0 .297-.25 0-.203-.016-1-.594-1.484-.406-.328-.953-.406-1.39-.406-1.532 0-2.282.968-2.282 2.046 0 1.172.89 2.063 2.406 2.063 1.485 0 1.86-.938 1.86-1.094M3.688-2.25H1.483c.016-.406.063-1.453 1.094-1.453 1.047 0 1.094 1.094 1.11 1.453m0 0"/><path id="K" d="M5.531-1.984c0-1.22-.875-2.047-2.187-2.047-.719 0-1.203.297-1.375.422v-2.61l-1.594.063v.437c.531 0 .61 0 .61.36V0h.453l.421-.516c.282.297.72.563 1.36.563 1.406 0 2.312-.844 2.312-2.031m-1.187-.032c0 .391 0 .844-.188 1.172-.297.5-.843.532-1.031.532-.547 0-.906-.329-1.094-.625V-3.11a1.55 1.55 0 0 1 1.203-.563c1.11 0 1.11 1.078 1.11 1.656m0 0"/><path id="L" d="M5.656 0v-.437h-.61v-2.297c0-1.063-.655-1.297-1.437-1.297-.843 0-1.328.484-1.562.843v-3.03l-1.594.062v.437c.531 0 .61 0 .61.36v4.922h-.61V0l1.125-.031L2.718 0v-.437H2.11v-1.844c0-1 .829-1.39 1.36-1.39.344 0 .515.187.515.858v2.376h-.609V0l1.14-.031Zm0 0"/><path id="M" d="M5.156-3.547c0-.234-.172-.547-.593-.547-.438 0-.813.219-.985.344-.375-.219-.781-.281-1.219-.281-1.375 0-1.843.734-1.843 1.328 0 .484.312.812.468.937a1.25 1.25 0 0 0-.296.782c0 .39.187.703.375.875C.39.078.297.453.297.656c0 .532.625 1.14 2.344 1.14C4.219 1.797 5 1.313 5 .626c0-.312-.11-.86-.734-1.156C3.75-.766 3.28-.766 2.39-.766h-.453c-.282 0-.407 0-.563-.109a.56.56 0 0 1-.203-.453c0-.172.062-.281.062-.281.329.172.735.234 1.125.234 1.375 0 1.844-.734 1.844-1.328 0-.36-.172-.656-.36-.844.235-.125.423-.14.532-.172 0 .047-.031.094-.031.188a.407.407 0 1 0 .813-.016m-1.984.844c0 .39 0 .969-.813.969s-.812-.578-.812-.97c0-.405 0-.968.812-.968s.813.563.813.969M4.203.657c0 .296-.328.78-1.547.78C1.47 1.438 1.094 1 1.094.642c0-.516.578-.516.703-.516H2.89c.28 0 1.312 0 1.312.531m0 0"/><path id="N" d="M5.344-3.547v-.437c-.25.03-.469.03-.719.03-.266 0-.547 0-.812-.03v.437c.25 0 .328.047.406.078 0 .047 0 .063-.047.125L3.094-1.109 1.922-3.547h.469v-.437l-1.11.03c-.328 0-.5 0-1.031-.03v.437h.563L2.422-.203c.078.172.156.25.375.25s.297-.078.375-.25L4.687-3.36c.063-.125.094-.188.657-.188m0 0"/><path id="O" d="M5.516 0v-.437h-.61v-3.641l-1.61.047v.047H1.923v-.86c0-.781.703-1.078 1.453-1.078.11 0 .39 0 .64.14a.62.62 0 0 0-.359.579c0 .344.25.594.61.594.328 0 .593-.235.593-.61 0-.468-.39-1.062-1.406-1.062-1.172 0-2.469.36-2.469 1.422v.875H.281v.437h.703v3.11H.375V0l1.094-.031L2.579 0v-.437h-.61v-3.11h1.687c.203 0 .25 0 .25.313v2.797h-.61V0l1.11-.031Zm0 0"/><path id="P" d="M5.11-.219c0-.218-.157-.218-.235-.218-.578-.016-.578-.094-.578-.313v-1.922c0-.797-.64-1.39-2.031-1.39-.5 0-1.657.015-1.657.843 0 .406.313.594.579.594.312 0 .593-.219.593-.578 0-.266-.156-.422-.187-.453.093-.016.312-.047.64-.047.641 0 1.016.328 1.016 1.031v.281C1.766-2.39.25-2 .25-1 .25-.11 1.375.047 2.016.047c.687 0 1.156-.281 1.39-.703 0 .219 0 .656.969.656h.438c.171 0 .296 0 .296-.219M3.25-1.25c0 .938-1.047.938-1.078.938-.453 0-.828-.282-.828-.688 0-.297.156-1 1.906-1.078Zm0 0"/><path id="Q" d="M2.688 0v-.437h-.61V-6.22l-1.61.063v.437c.532 0 .61 0 .61.36v4.922h-.61V0l1.095-.031Zm0 0"/><path id="R" d="M2.172-.703a.704.704 0 0 0-1.406 0A.71.71 0 0 0 1.469 0a.69.69 0 0 0 .703-.703m0 0"/><path id="S" d="M5.531 1.734v-.437h-.61v-5.328h-.405l-.47.687c-.359-.437-.796-.687-1.39-.687-1.406 0-2.312.843-2.312 2.047 0 1.187.86 2.03 2.219 2.03.484 0 .937-.155 1.296-.483v1.734H3.25v.437l1.14-.015Zm-1.61-3.062c0 .172 0 .187-.108.344-.329.5-.766.672-1.157.672-.594 0-1.11-.532-1.11-1.672 0-.282.016-.766.282-1.157a1.16 1.16 0 0 1 .938-.515c.718 0 1.156.719 1.156 1.156Zm0 0"/><path id="T" d="M5.656 0v-.437c-.547 0-.61 0-.61-.36V-4.03l-1.671.062v.438c.547 0 .61 0 .61.36v1.702c0 .719-.454 1.157-1.157 1.157-.687 0-.719-.188-.719-.672v-3.047L.453-3.97v.438c.531 0 .61 0 .61.36v2.062c0 .984.765 1.156 1.64 1.156.281 0 .89 0 1.344-.672v.672Zm0 0"/><path id="U" d="M5.516 0v-.437c-.532 0-.61 0-.61-.36v-5.422l-1.61.063v.437c.548 0 .61 0 .61.36v1.734a2 2 0 0 0-1.25-.406c-1.453 0-2.312.89-2.312 2.047 0 1.187.844 2.03 2.219 2.03.562 0 1-.202 1.296-.437v.438ZM3.859-.984a1.43 1.43 0 0 1-1.203.672c-1.11 0-1.11-1.063-1.11-1.657 0-.531 0-.906.235-1.234.235-.36.672-.469.985-.469.437 0 .812.188 1.093.547Zm0 0"/><path id="V" d="M4.406-1.047c0-.14-.125-.14-.234-.14-.172 0-.172.015-.25.171-.172.438-.578.688-1.11.688-1.265 0-1.265-1.297-1.265-1.703 0-.531 0-1.64 1.172-1.64.078 0 .562 0 .562.046l-.031.047a.6.6 0 0 0-.125.375c0 .36.281.578.594.578a.57.57 0 0 0 .578-.594c0-.844-1.25-.844-1.61-.844C.97-4.062.345-2.968.345-1.983c0 1.125.812 2.03 2.297 2.03.343 0 .78-.046 1.156-.28.515-.313.61-.782.61-.813m0 0"/><path id="W" d="M7.531-3.031c0-1.906-1.312-3.125-3.203-3.125H.375v.437h.969v5.282H.375V0h3.969C6.125 0 7.53-1.078 7.53-3.031m-1.36 0c0 .875 0 2.594-2.202 2.594H2.594V-5.72h1.36c.702 0 1.374.235 1.765.719.39.5.453 1.14.453 1.969m0 0"/><path id="Z" d="M7.422-3.547v-.437c-.25.03-.469.03-.719.03-.281 0-.562-.015-.844-.03v.437c.11 0 .313 0 .5.078-.015.078-.015.094-.046.156l-.954 2.266-1.03-2.5h.484v-.437l-1.016.03c-.078 0-.516 0-.906-.03v.437h.515c.125.266.125.281.172.422L2.797-1.25l-.953-2.297h.484v-.437l-1.094.03c-.218 0-.546 0-1-.03v.437H.75l1.406 3.36c.094.234.235.234.344.234.25 0 .297-.094.36-.25l.968-2.328.985 2.344c.093.234.234.234.343.234s.25 0 .344-.234l1.328-3.157c.063-.14.078-.203.594-.203m0 0"/><path id="aa" d="M7.61 0v-.437h-.86L4.39-6.031c-.093-.25-.234-.25-.39-.25s-.297 0-.39.25L1.343-.641C1.28-.5 1.28-.5 1.047-.469a5 5 0 0 1-.469.031H.391V0C.89-.016 1-.031 1.484-.031c.344 0 .625 0 1.188.031v-.437c-.235 0-.547 0-.797-.094l.5-1.188h2.484l.532 1.282h-.844V0c.312-.031 1.219-.031 1.594-.031s1.14 0 1.468.031M4.655-2.156H2.563l1.046-2.516Zm0 0"/><path id="ac" d="M4.86-5.719v-.437c-.376.031-1.079.031-1.47.031-.406 0-1.421 0-1.765-.031v.437h1.25v4.375c0 .75-.36 1.094-.906 1.094-.188 0-.485-.031-.735-.14a.68.68 0 0 0 .391-.626c0-.453-.328-.718-.703-.718s-.719.25-.719.718C.203-.344.891.11 2 .11c1.281 0 2.125-.546 2.125-1.453v-4.375Zm0 0"/><path id="ad" d="M4.047-5.484c0-.407-.36-.797-1.047-.797-.953 0-1.922.406-1.922 1.406v.89H.391v.438h.687v3.11h-.61V0l1.157-.031c.219 0 .75 0 1.219.031v-.437h-.766v-3.11h1.063v-.437H2.03v-.891c0-.969.688-1.047.922-1.047.031 0 .11.016.11.016s0 .015-.016.047a.56.56 0 0 0-.14.375c0 .375.296.578.562.578a.567.567 0 0 0 .578-.578m0 0"/><path id="ae" d="M8.594 0v-.437h-.61v-2.297c0-1.063-.625-1.297-1.421-1.297-.938 0-1.391.562-1.563.843C4.813-4 4.016-4.03 3.625-4.03c-1.11 0-1.547.797-1.61.937H2v-.937L.453-3.97v.438c.531 0 .61 0 .61.36v2.734h-.61V0l1.125-.031L2.718 0v-.437H2.11v-1.844c0-1 .829-1.39 1.36-1.39.344 0 .531.171.531.858v2.376h-.61V0l1.126-.031L5.656 0v-.437h-.61v-1.844c0-1 .829-1.39 1.36-1.39.344 0 .532.171.532.858v2.376h-.61V0l1.14-.031Zm0 0"/><path id="af" d="M7.906-5.719v-.437c-.593.031-.843.031-1.218.031-.407 0-.641 0-1.235-.031v.437h.234c.235 0 .266 0 .47.032.25.03.265.03.265.234v3.61L2.75-6.032c-.094-.125-.11-.125-.297-.125H.375v.437h.969v5.016c0 .203 0 .203-.266.234C.875-.438.86-.438.61-.438H.375V0c.578-.031.828-.031 1.219-.031.39 0 .64 0 1.234.031v-.437h-.234c-.25 0-.266 0-.485-.032C1.86-.5 1.86-.5 1.86-.703v-4.61L6.406-.109c.11.109.14.109.266.109.266 0 .266-.094.266-.297v-5.156c0-.203 0-.203.25-.234.218-.032.234-.032.484-.032Zm0 0"/><path id="ag" d="M2.297-.281c0-.61-.313-1.125-.828-1.125-.453 0-.703.343-.703.703s.25.703.718.703a.7.7 0 0 0 .438-.156c-.031.719-.39 1.219-.813 1.562-.046.032-.093.063-.093.14 0 .079.109.188.187.188.14 0 1.094-.765 1.094-2.015m0 0"/><path id="ah" d="M2.938-1.547v-.89H.108v.89Zm0 0"/><path id="ai" d="M6.938-1.672c0-.781-.657-1.406-1.86-1.547 1-.172 1.563-.734 1.563-1.39 0-.828-.797-1.547-2.282-1.547H.375v.437h.969v5.282H.375V0h4.266c1.53 0 2.297-.797 2.297-1.672M5.344-4.609c0 .656-.438 1.234-1.328 1.234H2.53v-2.344H4.25c1.063 0 1.094.922 1.094 1.11m.25 2.922c0 .625-.36 1.25-1.328 1.25H2.53v-2.579h1.813c.156 0 .625 0 .937.36.25.312.313.687.313.969m0 0"/><path id="aj" d="m6.984-3.86-.187-2.187H.578L.391-3.859h.453c.094-1 .172-1.75 1.484-1.75h.719v5.172H1.672V0c.39-.031 1.562-.031 2.016-.031.468 0 1.624 0 2.03.031v-.437H4.345V-5.61h.703c1.328 0 1.39.765 1.484 1.75Zm0 0"/><path id="o" d="m7.547-4.125.25-1.625c.031-.094.031-.14.031-.14 0-.157-.156-.157-.297-.157H2.547c-.203 0-.235 0-.297.156l-.453 1.297c-.063.188-.172.485-.172.547 0 .156.172.156.266.156.172 0 .203-.015.265-.187.422-1.219.672-1.547 1.828-1.547h.375L3.08-.469c-.032.016-.298.047-.735.047h-.406c-.157 0-.313 0-.313.266 0 .156.172.156.219.156l1.719-.031L5.343 0c.126 0 .266 0 .266-.266 0-.156-.14-.156-.28-.156h-.391c-.188 0-.47-.016-.641-.031l1.25-5.031c.047-.141.047-.141.187-.141h.313c.875 0 1.078.156 1.078.719 0 .281-.062.625-.078.718-.016.094-.016.125-.016.125 0 .172.157.172.25.172.157 0 .235 0 .266-.234m0 0"/><path id="p" d="M5.344-2.547c0-.922-.64-1.5-1.719-1.5-1.766 0-2.672 1.484-2.672 2.61 0 .921.64 1.515 1.703 1.515 1.781 0 2.688-1.5 2.688-2.625M3.906-1.109c-.265.562-.765.859-1.219.859-.312 0-.75-.156-.75-.797 0-.344.235-1.344.454-1.828.265-.562.765-.86 1.218-.86.313 0 .75.157.75.797 0 .344-.234 1.344-.453 1.829m0 0"/><path id="q" d="M4.813-.766c0-.078-.188-.296-.282-.296-.015 0-.062 0-.125.062-.656.75-1.562.75-1.703.75-.484 0-.765-.281-.765-.797 0-.344.25-1.437.5-1.906.343-.64.906-.781 1.171-.781.094 0 .344.015.5.187a.69.69 0 0 0-.453.61c0 .124.078.406.453.406s.641-.313.641-.703c0-.438-.39-.813-1.14-.813-1.704 0-2.657 1.453-2.657 2.61 0 .734.422 1.515 1.75 1.515.235 0 .781-.031 1.266-.203.484-.187.844-.531.844-.64m0 0"/><path id="r" d="M6.14-1.328c0-.125-.124-.125-.25-.125-.171 0-.218 0-.265.11-.062.234-.312 1.093-.812 1.093-.047 0-.125 0-.125-.156 0-.188.078-.422.203-.735.125-.328.53-1.39.53-1.906 0-.734-.53-1-1.25-1-.187 0-.765 0-1.359.61-.187-.516-.718-.61-1.015-.61-.422 0-.64.297-.75.484-.234.376-.36.876-.36.907 0 .125.125.125.25.125.22 0 .235 0 .297-.235.063-.296.235-.968.532-.968.109 0 .172.078.172.28 0 .173-.016.25-.047.392L1.25-.517c-.047.141-.047.157-.047.204 0 .28.219.39.406.39a.59.59 0 0 0 .563-.484l.562-2.235c.063-.25.563-1.093 1.375-1.093.391 0 .391.343.391.515 0 .531-.406 1.64-.578 2.047-.078.219-.094.313-.094.453 0 .5.453.797.938.797.922 0 1.375-1.219 1.375-1.406m0 0"/><path id="s" d="M4.172-1.469c0-.203-.063-.5-.39-.765-.266-.203-.485-.25-.97-.344-.265-.047-.64-.125-.64-.453 0 0 0-.703.953-.703.094 0 .422 0 .625.218-.344.157-.344.47-.344.5 0 .22.172.375.39.375.235 0 .563-.187.563-.625 0-.5-.5-.78-1.218-.78-.688 0-1 .234-1.172.374-.297.25-.469.719-.469 1 0 .766.766.906 1.047.969.469.094.937.172.937.594 0 0 0 .859-1.234.859-.125 0-.547 0-.844-.25.063-.016.438-.187.438-.61 0-.327-.282-.406-.438-.406-.328 0-.64.266-.64.704 0 .562.578.89 1.453.89.25 0 .828-.015 1.312-.36.453-.327.64-.89.64-1.187m0 0"/><path id="t" d="M3.766-1.328c0-.125-.125-.125-.266-.125-.187 0-.203.016-.266.156C2.86-.407 2.406-.25 2.172-.25c-.078 0-.188-.016-.188-.281 0-.172.032-.235.063-.39l.656-2.641h.719c.156 0 .312 0 .312-.266 0-.156-.156-.156-.28-.156h-.642l.172-.703c.063-.235.157-.625.157-.704 0-.203-.141-.375-.391-.375a.58.58 0 0 0-.578.47l-.313 1.312h-.734c-.156 0-.312 0-.312.265 0 .156.156.156.296.156h.641l-.625 2.5c-.047.141-.047.204-.047.266 0 .563.516.875 1.063.875 1.03 0 1.625-1.25 1.625-1.406m0 0"/><path id="u" d="M5.047-3.25c0-.484-.484-.797-1.14-.797-.344 0-.766.094-1.157.484-.156-.28-.5-.484-.953-.484-.422 0-.64.297-.75.484-.234.376-.36.876-.36.907 0 .125.125.125.25.125.22 0 .235 0 .297-.235.063-.296.235-.968.532-.968.109 0 .172.078.172.28 0 .173-.016.25-.047.392L1.25-.517c-.047.141-.047.157-.047.204 0 .28.219.39.406.39a.59.59 0 0 0 .563-.484l.625-2.453c.047-.203.453-.875 1.078-.875.094 0 .313.015.5.156-.422.187-.422.562-.422.594 0 .234.156.422.438.422.343 0 .656-.297.656-.688m0 0"/><path id="v" d="M5.875-1.328c0-.125-.11-.125-.25-.125-.219 0-.219.016-.281.234-.078.297-.235.969-.547.969-.11 0-.172-.078-.172-.281 0-.172.016-.235.063-.39l.609-2.485c.047-.125.047-.14.047-.188 0-.281-.219-.39-.407-.39-.125 0-.468.062-.578.5l-.625 2.53c-.03.157-.046.188-.296.438a.9.9 0 0 1-.61.266c-.453 0-.469-.422-.469-.625 0-.531.297-1.328.516-1.89C2.953-3 3-3.11 3-3.25c0-.516-.453-.797-.937-.797-.938 0-1.376 1.203-1.376 1.39 0 .126.125.126.25.126.172 0 .22 0 .25-.11.079-.234.313-1.093.829-1.093.046 0 .125 0 .125.172 0 .187-.11.453-.157.578-.296.78-.546 1.422-.546 1.922 0 .828.593 1.14 1.328 1.14.25 0 .64-.047 1.078-.469.172.313.562.47.922.47.422 0 .64-.313.765-.485.235-.39.344-.89.344-.922m0 0"/><path id="w" d="M5.516-1.328c0-.125-.11-.125-.25-.125-.22 0-.22.016-.282.234-.078.297-.234.969-.546.969-.11 0-.172-.078-.172-.281 0-.172.015-.235.062-.39l.594-2.423c.031-.125.031-.14.031-.187 0-.203-.14-.375-.39-.375a.62.62 0 0 0-.422.187c-.297-.297-.641-.328-.875-.328-1.5 0-2.407 1.484-2.407 2.688C.86-.297 1.61.078 2.297.078c.547 0 .969-.297 1.187-.469.172.313.563.47.922.47.422 0 .64-.313.766-.485.234-.39.344-.89.344-.922m-2.141.437c-.39.5-.766.641-1.047.641-.203 0-.5-.125-.5-.64 0-.485.313-1.579.406-1.829.297-.875.797-1.015 1.032-1.015.312 0 .562.203.656.562l-.516 2.11c-.031.062-.031.093-.031.171m0 0"/><path id="x" d="M4.813-.766c0-.078-.188-.296-.282-.296-.015 0-.062 0-.125.062-.656.75-1.562.75-1.687.75-.5 0-.766-.297-.766-.828 0-.219.063-.578.14-.875h.36c.547 0 2.313 0 2.313-1.234 0-.547-.5-.86-1.157-.86C2.047-4.047.984-2.875.984-1.5c0 .969.61 1.578 1.72 1.578.28 0 .812-.031 1.265-.203.484-.187.844-.531.844-.64m-.625-2.437c0 .922-1.47.922-2.016.922.14-.438.219-.719.484-1 .25-.313.64-.453.953-.453.375 0 .579.25.579.53m0 0"/><path id="y" d="M4.484 1.484c0-.156-.156-.171-.234-.171h-.39l1.265-5.079c.016-.03.016-.093.016-.125 0-.03-.016-.156-.157-.156 0 0-.5.11-.765.328-.282-.297-.625-.328-.86-.328-1.515 0-2.406 1.484-2.406 2.688 0 1.062.75 1.437 1.438 1.437.406 0 .734-.172.875-.25l-.328 1.344c-.032.125-.047.125-.141.14h-.313c-.156 0-.328 0-.328.266 0 .047.031.156.188.156.297 0 .625-.015.937-.015s.64.015.969.015c.063 0 .234 0 .234-.25M3.47-.984c-.078.312-.594.734-1.047.734-.203 0-.516-.125-.516-.64 0-.485.313-1.579.422-1.829.297-.875.797-1.015 1.031-1.015.313 0 .563.203.657.562Zm0 0"/><path id="z" d="M3.5-1.328c0-.125-.125-.125-.25-.125-.172 0-.219 0-.25.11-.078.234-.312 1.093-.828 1.093-.047 0-.125 0-.125-.156 0-.125.062-.344.062-.36l.813-2.14A.7.7 0 0 0 3-3.25c0-.516-.453-.797-.937-.797-.938 0-1.376 1.203-1.376 1.39 0 .126.125.126.25.126.172 0 .22 0 .25-.11.079-.234.313-1.093.829-1.093.046 0 .125 0 .125.172 0 .109-.063.328-.063.359l-.812 2.125a.75.75 0 0 0-.079.36c0 .5.454.796.938.796C3.063.078 3.5-1.14 3.5-1.328M3.625-5.5a.537.537 0 0 0-.562-.547c-.407 0-.797.39-.797.781 0 .282.218.532.562.532.422 0 .797-.391.797-.766m0 0"/><path id="A" d="M2.969-1.328c0-.125-.11-.125-.25-.125-.219 0-.219.016-.281.234-.079.297-.235.969-.547.969-.11 0-.172-.078-.172-.281 0-.172.015-.235.062-.39l1.25-5c.016-.048.031-.095.031-.141 0-.172-.171-.157-.296-.157l-1.094.063c-.11 0-.281 0-.281.265 0 .157.156.157.234.157.11 0 .281.015.39.015L.86-1.062c-.046.14-.046.203-.046.265 0 .578.546.875 1.046.875.422 0 .641-.312.766-.484.234-.39.344-.89.344-.922m0 0"/><path id="B" d="m4.047.578.969-3.89c.03-.141.03-.22.03-.22 0-.202-.155-.374-.405-.374-.235 0-.328.11-.422.187-.25-.25-.547-.328-.86-.328-1.53 0-2.406 1.469-2.406 2.625C.953-.469 1.61 0 2.406 0c.297 0 .578-.078.875-.234L3.125.39c-.203.843-.719 1.093-1.203 1.093-.25 0-.453-.015-.563-.046a.72.72 0 0 0 .25-.5c0-.235-.171-.422-.437-.422a.66.66 0 0 0-.64.672c0 .546.702.625 1.374.625 1.078 0 1.938-.454 2.14-1.235m-.563-1.625c-.078.313-.609.719-1.03.719-.485 0-.532-.438-.532-.625 0-.5.328-1.578.453-1.906.281-.735.75-.875.984-.875.266 0 .547.14.657.547Zm0 0"/><path id="C" d="M4.984-3.281c0-.656-.406-.781-.578-.781-.312 0-.64.328-.64.64 0 .219.125.313.203.375.187.125.36.328.36.594 0 .031-.376 2.203-1.391 2.203-.5 0-.563-.39-.563-.672 0-.5.281-1.265.5-1.86C2.969-3 3-3.108 3-3.25c0-.516-.453-.797-.937-.797-.938 0-1.376 1.203-1.376 1.39 0 .126.125.126.25.126.172 0 .22 0 .25-.11.079-.234.313-1.093.829-1.093.046 0 .125 0 .125.172 0 .187-.11.453-.157.578-.343.906-.53 1.437-.53 1.89 0 1.016.874 1.172 1.421 1.172 1.594 0 2.11-2.89 2.11-3.36m0 0"/><path id="D" d="M6.344-1.328c0-.125-.11-.125-.25-.125-.203 0-.219.016-.282.234-.078.297-.234.969-.53.969-.11 0-.173-.078-.173-.281 0-.172.016-.266.047-.39l.703-2.813a.4.4 0 0 0 .032-.125c0-.125-.125-.125-.266-.125H3.047c.312-1.75.36-1.985 1.531-1.985.172 0 .656 0 .984.14a.67.67 0 0 0-.359.579c0 .234.172.406.453.406a.66.66 0 0 0 .625-.687c0-.75-1.14-.766-1.703-.766-.562 0-1.203.016-1.687.406-.547.438-.657 1.079-.797 1.907h-.828c-.157 0-.313 0-.313.265 0 .156.156.156.281.156h.782L1.39-.171C1.297.313 1.297.36 1.17.86c-.046.188-.14.625-.405.625 0 0-.125 0-.235-.062.266-.11.39-.36.39-.578C.922.594.735.438.47.438a.65.65 0 0 0-.64.671c0 .438.437.704.921.704.5 0 1.047-.438 1.328-1.172.172-.438.281-.907.375-1.36l.516-2.843h1.89l-.625 2.5c-.03.14-.03.203-.03.265 0 .578.53.875 1.03.875.422 0 .657-.312.766-.484.234-.39.344-.89.344-.922m0 0"/><path id="E" d="M5.61-1.328c0-.125-.126-.125-.25-.125-.173 0-.22 0-.25.11C5.03-1.11 4.796-.25 4.28-.25c-.047 0-.125 0-.125-.156 0-.188.094-.422.203-.735.125-.328.532-1.39.532-1.906 0-.734-.532-1-1.235-1-.469 0-.828.14-1.203.453l.578-2.328c.016-.047.031-.094.031-.14 0-.172-.171-.157-.296-.157l-1.094.063c-.11 0-.281 0-.281.265 0 .157.156.157.234.157.11 0 .281.015.39.015L.72-.516c-.031.141-.031.157-.031.204 0 .218.171.39.406.39.11 0 .453-.047.562-.484l.547-2.235c.063-.25.563-1.093 1.39-1.093.376 0 .376.343.376.515 0 .531-.406 1.64-.563 2.047-.094.219-.11.313-.11.453 0 .5.454.797.938.797.938 0 1.375-1.219 1.375-1.406m0 0"/><path id="F" d="M2.438-.797c0-.312-.22-.515-.547-.515-.36 0-.797.328-.797.78 0 .376.281.532.531.532.406 0 .813-.375.813-.797m0 0"/><path id="I" d="M1.625-1.047C1.188-.328.797-.313.438-.28c-.063.015-.11.078-.11.172 0 .047.047.109.125.109.172 0 .594-.031.766-.031.203 0 .687.031.875.031.062 0 .172 0 .172-.156 0-.11-.11-.125-.125-.125-.094 0-.422-.031-.422-.297 0-.125.093-.297.125-.344l.703-1.156H4.89c.03.219.046.515.078.734.031.36.093.75.093.782 0 .125-.125.28-.656.28-.078 0-.203 0-.203.173 0 .093.078.109.14.109.173 0 .391-.016.563-.016s.39-.015.532-.015c.296 0 .328 0 .53.015.141 0 .36.016.5.016.048 0 .173 0 .173-.156 0-.125-.11-.125-.203-.125-.547 0-.547-.063-.579-.313l-.625-5.578c-.03-.203-.03-.25-.187-.25-.125 0-.172.063-.25.172Zm1.094-1.297L4.53-5.312l.328 2.968Zm0 0"/><path id="J" d="M1.469-.687c-.094.328-.11.406-.782.406-.171 0-.265 0-.265.172C.422 0 .516 0 .672 0h3.266C5.39 0 6.453-1.062 6.453-1.922c0-.64-.531-1.187-1.406-1.281 1.016-.203 1.89-.875 1.89-1.672 0-.703-.656-1.25-1.718-1.25H2.156c-.172 0-.265 0-.265.156 0 .125.078.125.265.125.031 0 .188 0 .344.016.14.016.203.031.203.14 0 .032 0 .079-.031.172Zm1.39-2.61L3.406-5.5c.078-.328.094-.344.485-.344h1.203c.937 0 1.015.703 1.015.922 0 .813-.828 1.625-1.843 1.625ZM2.438-.28H2.25c-.094-.016-.11-.031-.11-.094 0-.016 0-.031.032-.203l.625-2.5h1.687c.563 0 1.125.25 1.125 1.062 0 .891-.812 1.735-1.89 1.735Zm0 0"/><path id="X" d="M6.938-6.078c.03-.11.03-.125.03-.14s-.015-.11-.109-.11c-.046 0-.078.031-.14.11l-.547.593c-.031.047-.078.078-.078.078-.016 0-.016 0-.078-.062-.125-.188-.532-.72-1.47-.72-2.046 0-4.093 2-4.093 4.048C.453-.828 1.531.203 2.97.203c.937 0 1.672-.484 2.015-.797.813-.734.97-1.515.97-1.562 0-.031-.016-.094-.126-.094-.094 0-.11.047-.125.094C5.266-.72 3.984-.078 3.078-.078c-.86 0-1.781-.531-1.781-1.89 0-.407.125-1.813 1.031-2.923.547-.64 1.422-1.156 2.281-1.156 1 0 1.532.766 1.532 1.75 0 .313-.032.375-.032.438 0 .093.11.093.141.093.11 0 .11-.015.156-.187Zm0 0"/><path id="Y" d="M1.438-.687c-.079.328-.094.406-.766.406-.172 0-.266 0-.266.172C.406 0 .5 0 .656 0h3.016c1.922 0 3.703-1.906 3.703-3.844 0-1.219-.766-2.281-2.172-2.281H2.141c-.172 0-.282 0-.282.156 0 .125.094.125.282.125.03 0 .187 0 .328.016.156.016.219.031.219.14 0 .032 0 .079-.032.172ZM3.422-5.5c.078-.328.094-.344.469-.344h1.015c.938 0 1.672.516 1.672 1.672 0 .516-.219 1.953-.922 2.844C5.25-.812 4.5-.281 3.516-.281h-1.25c-.094-.016-.125-.031-.125-.094 0-.016 0-.031.046-.203Zm0 0"/><path id="ab" d="M2.813-3.031h.921c.641 0 .766.11.766.406 0 .063-.031.25-.062.406-.016.047-.032.094-.032.125 0 0 0 .11.125.11.11 0 .11-.063.157-.188l.468-1.89c.032-.125.032-.141.032-.188 0-.062-.047-.11-.125-.11-.094 0-.11.048-.141.22-.188.718-.469.827-1.188.827h-.843c.125-.546.547-2.25.593-2.359.063-.125.125-.156.422-.156H5.22c1.125 0 1.375.281 1.375 1 0 .281-.047.547-.047.61 0 .077.047.14.125.14.11 0 .125-.063.14-.234L7-5.97c0-.125-.094-.125-.266-.125H2.11c-.156 0-.265 0-.265.157 0 .109.093.109.281.109.031 0 .203 0 .344.031.187.016.203.063.203.14 0 .032 0 .048-.047.204L1.438-.687c-.079.328-.094.406-.782.406-.156 0-.265 0-.265.172C.39 0 .484 0 .64 0h4.734c.172 0 .188 0 .219-.031.015-.016.031-.016.078-.14.11-.235.875-1.938.875-2.032 0-.063-.047-.11-.125-.11s-.078 0-.172.22C5.688-.844 5.313-.282 3.828-.282H2.281c-.094-.016-.125-.031-.125-.094 0-.016 0-.031.047-.203Zm0 0"/></defs><path fill="#F93" d="M45.176 81.504 57.344 51.46 77.285 77Zm0 0"/><use xlink:href="#a" x="33.986" y="84.908" fill="#00C"/><use xlink:href="#b" x="81.002" y="80.403" fill="#00C"/><path fill="none" stroke="#00C" stroke-miterlimit="10" stroke-width=".797" d="M45.176 81.504 77.286 77"/><path fill="none" stroke="#7F7F7F" stroke-miterlimit="10" stroke-width=".399" d="M77.598 81.504c0-17.906-14.516-32.422-32.422-32.422S12.758 63.598 12.758 81.504s14.512 32.422 32.418 32.422S77.598 99.41 77.598 81.504Zm0 0"/><use xlink:href="#c" x=".513" y="84.908"/><path fill="none" stroke="#7F7F7F" stroke-miterlimit="10" stroke-width=".399" d="M109.703 77c0-17.906-14.516-32.422-32.418-32.422-17.906 0-32.422 14.516-32.422 32.422s14.516 32.422 32.422 32.422c17.903 0 32.418-14.516 32.418-32.422Zm0 0"/><use xlink:href="#d" x="113.423" y="80.403"/><use xlink:href="#e" x="53.429" y="47.744" fill="#B20000"/><path fill="none" stroke="#B20000" stroke-miterlimit="10" stroke-width=".797" d="M45.176 81.504 57.344 51.46M77.285 77 57.344 51.46"/><path fill-opacity=".5" d="M47.168 81.504a1.993 1.993 0 1 0-3.983.002 1.993 1.993 0 0 0 3.983-.002M79.277 77a1.994 1.994 0 0 0-3.988 0 1.994 1.994 0 0 0 3.988 0M59.34 51.46a1.996 1.996 0 0 0-1.996-1.991 1.993 1.993 0 0 0 0 3.984c1.101 0 1.996-.89 1.996-1.992m0 0"/><use xlink:href="#f" x="159.491" y="6.76"/><use xlink:href="#g" x="166.736" y="6.76"/><use xlink:href="#h" x="171.111" y="6.76"/><use xlink:href="#i" x="176.42" y="6.76"/><use xlink:href="#h" x="182.606" y="6.76"/><use xlink:href="#j" x="187.914" y="6.76"/><use xlink:href="#k" x="192.102" y="6.76"/><use xlink:href="#l" x="195.052" y="6.76"/><use xlink:href="#k" x="199.176" y="6.76"/><use xlink:href="#h" x="202.126" y="6.76"/><use xlink:href="#m" x="207.434" y="6.76"/><use xlink:href="#n" x="216.858" y="6.76"/><use xlink:href="#o" x="159.491" y="17.719"/><use xlink:href="#p" x="165.839" y="17.719"/><use xlink:href="#q" x="175.801" y="17.719"/><use xlink:href="#p" x="180.051" y="17.719"/><use xlink:href="#r" x="185.35" y="17.719"/><use xlink:href="#s" x="191.178" y="17.719"/><use xlink:href="#t" x="195.545" y="17.719"/><use xlink:href="#u" x="198.997" y="17.719"/><use xlink:href="#v" x="203.498" y="17.719"/><use xlink:href="#q" x="209.066" y="17.719"/><use xlink:href="#t" x="213.836" y="17.719"/><use xlink:href="#w" x="221.942" y="17.719"/><use xlink:href="#r" x="227.241" y="17.719"/><use xlink:href="#x" x="237.744" y="17.719" fill="#FF7F00"/><g fill="#FF7F00"><use xlink:href="#y" x="241.985" y="17.719"/><use xlink:href="#v" x="246.755" y="17.719"/><use xlink:href="#z" x="252.323" y="17.719"/><use xlink:href="#A" x="255.515" y="17.719"/><use xlink:href="#w" x="258.178" y="17.719"/><use xlink:href="#t" x="263.478" y="17.719"/><use xlink:href="#x" x="266.93" y="17.719"/><use xlink:href="#u" x="271.7" y="17.719"/></g><g fill="#FF7F00"><use xlink:href="#w" x="275.672" y="17.719"/><use xlink:href="#A" x="280.971" y="17.719"/></g><g fill="#FF7F00"><use xlink:href="#t" x="288.296" y="17.719"/><use xlink:href="#u" x="291.749" y="17.719"/><use xlink:href="#z" x="296.25" y="17.719"/><use xlink:href="#w" x="299.442" y="17.719"/><use xlink:href="#r" x="304.741" y="17.719"/><use xlink:href="#B" x="310.569" y="17.719"/><use xlink:href="#A" x="315.339" y="17.719"/><use xlink:href="#x" x="318.002" y="17.719"/></g><use xlink:href="#p" x="327.443" y="17.719"/><use xlink:href="#r" x="332.742" y="17.719"/><use xlink:href="#w" x="343.233" y="17.719"/><use xlink:href="#B" x="353.194" y="17.719"/><use xlink:href="#z" x="357.965" y="17.719"/><use xlink:href="#C" x="361.157" y="17.719"/><use xlink:href="#x" x="365.927" y="17.719"/><use xlink:href="#r" x="370.697" y="17.719"/><g fill="#00C"><use xlink:href="#D" x="381.2" y="17.719"/><use xlink:href="#r" x="387.243" y="17.719"/><use xlink:href="#z" x="393.071" y="17.719"/><use xlink:href="#t" x="396.264" y="17.719"/><use xlink:href="#x" x="399.716" y="17.719"/></g><g fill="#00C"><use xlink:href="#s" x="409.148" y="17.719"/><use xlink:href="#t" x="413.515" y="17.719"/><use xlink:href="#u" x="416.967" y="17.719"/></g><g fill="#00C"><use xlink:href="#w" x="420.948" y="17.719"/><use xlink:href="#z" x="426.247" y="17.719"/><use xlink:href="#B" x="429.439" y="17.719"/><use xlink:href="#E" x="434.209" y="17.719"/><use xlink:href="#t" x="439.508" y="17.719"/></g><g fill="#00C"><use xlink:href="#A" x="159.491" y="28.678"/><use xlink:href="#z" x="162.154" y="28.678"/><use xlink:href="#r" x="165.346" y="28.678"/><use xlink:href="#x" x="171.174" y="28.678"/></g><use xlink:href="#F" x="175.944" y="28.678"/><use xlink:href="#G" x="159.491" y="48.604"/><use xlink:href="#H" x="165.866" y="48.604"/><use xlink:href="#l" x="170.735" y="48.604"/><use xlink:href="#I" x="179.991" y="48.604" fill="#00C"/><use xlink:href="#J" x="186.901" y="48.604" fill="#00C"/><use xlink:href="#K" x="199.453" y="48.604"/><use xlink:href="#H" x="205.64" y="48.604"/><use xlink:href="#l" x="215.637" y="48.604"/><use xlink:href="#L" x="219.762" y="48.604"/><use xlink:href="#H" x="225.653" y="48.604"/><use xlink:href="#M" x="235.65" y="48.604"/><use xlink:href="#k" x="240.958" y="48.604"/><use xlink:href="#N" x="243.908" y="48.604"/><use xlink:href="#H" x="249.225" y="48.604"/><use xlink:href="#m" x="254.094" y="48.604"/><g fill="#00C"><use xlink:href="#O" x="265.114" y="48.604"/><use xlink:href="#m" x="271.005" y="48.604"/><use xlink:href="#k" x="276.896" y="48.604"/><use xlink:href="#l" x="279.846" y="48.604"/><use xlink:href="#H" x="283.97" y="48.604"/></g><g fill="#00C"><use xlink:href="#j" x="293.968" y="48.604"/><use xlink:href="#l" x="298.155" y="48.604"/><use xlink:href="#g" x="302.28" y="48.604"/><use xlink:href="#P" x="306.655" y="48.604"/><use xlink:href="#k" x="311.811" y="48.604"/><use xlink:href="#M" x="314.761" y="48.604"/><use xlink:href="#L" x="320.069" y="48.604"/></g><use xlink:href="#l" x="325.673" y="48.604" fill="#00C"/><g fill="#00C"><use xlink:href="#Q" x="334.917" y="48.604"/><use xlink:href="#k" x="337.867" y="48.604"/><use xlink:href="#m" x="340.817" y="48.604"/><use xlink:href="#H" x="346.708" y="48.604"/></g><use xlink:href="#R" x="351.584" y="48.604"/><use xlink:href="#n" x="364.038" y="48.604"/><use xlink:href="#l" x="368.037" y="48.604"/><use xlink:href="#k" x="377.291" y="48.604"/><use xlink:href="#j" x="380.241" y="48.604"/><use xlink:href="#g" x="389.566" y="48.604"/><use xlink:href="#H" x="393.941" y="48.604"/><use xlink:href="#S" x="398.81" y="48.604"/><use xlink:href="#T" x="404.414" y="48.604"/><use xlink:href="#k" x="410.305" y="48.604"/><use xlink:href="#g" x="413.255" y="48.604"/><use xlink:href="#H" x="417.63" y="48.604"/><use xlink:href="#U" x="422.499" y="48.604"/><use xlink:href="#l" x="433.519" y="48.604"/><use xlink:href="#h" x="437.643" y="48.604"/><use xlink:href="#V" x="159.491" y="59.562"/><use xlink:href="#h" x="164.207" y="59.562"/><use xlink:href="#m" x="169.515" y="59.562"/><use xlink:href="#j" x="175.406" y="59.562"/><use xlink:href="#l" x="179.594" y="59.562"/><use xlink:href="#g" x="183.718" y="59.562"/><use xlink:href="#T" x="188.094" y="59.562"/><use xlink:href="#V" x="193.985" y="59.562"/><use xlink:href="#l" x="198.701" y="59.562"/><use xlink:href="#P" x="206.358" y="59.562"/><use xlink:href="#m" x="211.514" y="59.562"/><g fill="#FF7F00"><use xlink:href="#H" x="220.937" y="59.562"/><use xlink:href="#S" x="225.806" y="59.562"/><use xlink:href="#T" x="231.41" y="59.562"/><use xlink:href="#k" x="237.301" y="59.562"/><use xlink:href="#Q" x="240.251" y="59.562"/><use xlink:href="#P" x="243.201" y="59.562"/><use xlink:href="#l" x="248.356" y="59.562"/><use xlink:href="#H" x="252.481" y="59.562"/><use xlink:href="#g" x="257.349" y="59.562"/><use xlink:href="#P" x="261.725" y="59.562"/><use xlink:href="#Q" x="266.881" y="59.562"/></g><g fill="#FF7F00"><use xlink:href="#l" x="273.363" y="59.562"/><use xlink:href="#g" x="277.488" y="59.562"/><use xlink:href="#k" x="281.864" y="59.562"/><use xlink:href="#P" x="284.813" y="59.562"/><use xlink:href="#m" x="289.969" y="59.562"/><use xlink:href="#M" x="295.86" y="59.562"/><use xlink:href="#Q" x="301.168" y="59.562"/><use xlink:href="#H" x="304.118" y="59.562"/></g><use xlink:href="#h" x="312.52" y="59.562"/><use xlink:href="#m" x="317.828" y="59.562"/><use xlink:href="#l" x="327.252" y="59.562"/><use xlink:href="#L" x="331.376" y="59.562"/><use xlink:href="#H" x="337.267" y="59.562"/><g fill="#00C"><use xlink:href="#j" x="345.669" y="59.562"/><use xlink:href="#l" x="349.856" y="59.562"/><use xlink:href="#g" x="353.981" y="59.562"/><use xlink:href="#P" x="358.356" y="59.562"/><use xlink:href="#k" x="363.512" y="59.562"/><use xlink:href="#M" x="366.462" y="59.562"/><use xlink:href="#L" x="371.77" y="59.562"/></g><use xlink:href="#l" x="377.365" y="59.562" fill="#00C"/><g fill="#00C"><use xlink:href="#Q" x="385.013" y="59.562"/><use xlink:href="#k" x="387.963" y="59.562"/><use xlink:href="#m" x="390.913" y="59.562"/><use xlink:href="#H" x="396.804" y="59.562"/></g><use xlink:href="#I" x="405.214" y="59.562" fill="#00C"/><use xlink:href="#J" x="412.124" y="59.562" fill="#00C"/><use xlink:href="#R" x="419.544" y="59.562"/><use xlink:href="#W" x="159.491" y="70.521"/><use xlink:href="#H" x="167.624" y="70.521"/><use xlink:href="#j" x="172.492" y="70.521"/><use xlink:href="#V" x="176.68" y="70.521"/><use xlink:href="#g" x="181.396" y="70.521"/><use xlink:href="#k" x="185.771" y="70.521"/><use xlink:href="#K" x="188.721" y="70.521"/><use xlink:href="#H" x="194.908" y="70.521"/><use xlink:href="#l" x="203.157" y="70.521"/><use xlink:href="#L" x="207.282" y="70.521"/><use xlink:href="#H" x="213.173" y="70.521"/><use xlink:href="#V" x="221.431" y="70.521"/><use xlink:href="#k" x="226.147" y="70.521"/><use xlink:href="#g" x="229.097" y="70.521"/><use xlink:href="#V" x="233.473" y="70.521"/><use xlink:href="#Q" x="238.189" y="70.521"/><use xlink:href="#H" x="241.139" y="70.521"/><use xlink:href="#J" x="249.403" y="70.521" fill="#00C"/><use xlink:href="#X" x="256.822" y="70.521" fill="#B20000"/><use xlink:href="#Y" x="264.038" y="70.521"/><use xlink:href="#Z" x="275.282" y="70.521"/><use xlink:href="#k" x="282.948" y="70.521"/><use xlink:href="#l" x="285.898" y="70.521"/><use xlink:href="#L" x="290.023" y="70.521"/><use xlink:href="#V" x="299.294" y="70.521"/><use xlink:href="#H" x="304.01" y="70.521"/><use xlink:href="#m" x="308.879" y="70.521"/><use xlink:href="#l" x="314.483" y="70.521"/><use xlink:href="#H" x="318.608" y="70.521"/><use xlink:href="#g" x="323.476" y="70.521"/><use xlink:href="#I" x="331.239" y="70.521" fill="#00C"/><use xlink:href="#P" x="341.537" y="70.521"/><use xlink:href="#m" x="346.693" y="70.521"/><use xlink:href="#U" x="352.584" y="70.521"/><use xlink:href="#g" x="361.855" y="70.521"/><use xlink:href="#P" x="366.23" y="70.521"/><use xlink:href="#U" x="371.386" y="70.521"/><use xlink:href="#k" x="377.277" y="70.521"/><use xlink:href="#T" x="380.227" y="70.521"/><use xlink:href="#j" x="386.118" y="70.521"/><use xlink:href="#I" x="393.702" y="70.521" fill="#00C"/><use xlink:href="#J" x="400.612" y="70.521" fill="#00C"/><use xlink:href="#R" x="408.032" y="70.521"/><use xlink:href="#aa" x="415.635" y="70.521"/><use xlink:href="#M" x="423.642" y="70.521"/><use xlink:href="#P" x="428.951" y="70.521"/><use xlink:href="#k" x="434.106" y="70.521"/><use xlink:href="#m" x="437.056" y="70.521"/><use xlink:href="#U" x="159.491" y="81.48"/><use xlink:href="#H" x="165.382" y="81.48"/><use xlink:href="#j" x="170.251" y="81.48"/><use xlink:href="#V" x="174.438" y="81.48"/><use xlink:href="#g" x="179.154" y="81.48"/><use xlink:href="#k" x="183.53" y="81.48"/><use xlink:href="#K" x="186.48" y="81.48"/><use xlink:href="#H" x="192.667" y="81.48"/><use xlink:href="#l" x="201.821" y="81.48"/><use xlink:href="#L" x="205.946" y="81.48"/><use xlink:href="#H" x="211.837" y="81.48"/><use xlink:href="#V" x="221" y="81.48"/><use xlink:href="#k" x="225.717" y="81.48"/><use xlink:href="#g" x="228.667" y="81.48"/><use xlink:href="#V" x="233.042" y="81.48"/><use xlink:href="#Q" x="237.759" y="81.48"/><use xlink:href="#H" x="240.708" y="81.48"/><use xlink:href="#I" x="249.88" y="81.48" fill="#00C"/><use xlink:href="#X" x="256.79" y="81.48" fill="#B20000"/><use xlink:href="#ab" x="264.005" y="81.48"/><use xlink:href="#Z" x="275.592" y="81.48"/><use xlink:href="#k" x="283.258" y="81.48"/><use xlink:href="#l" x="286.208" y="81.48"/><use xlink:href="#L" x="290.333" y="81.48"/><use xlink:href="#V" x="300.519" y="81.48"/><use xlink:href="#H" x="305.235" y="81.48"/><use xlink:href="#m" x="310.104" y="81.48"/><use xlink:href="#l" x="315.699" y="81.48"/><use xlink:href="#H" x="319.823" y="81.48"/><use xlink:href="#g" x="324.692" y="81.48"/><use xlink:href="#J" x="333.362" y="81.48" fill="#00C"/><use xlink:href="#P" x="345.076" y="81.48"/><use xlink:href="#m" x="350.232" y="81.48"/><use xlink:href="#U" x="356.123" y="81.48"/><use xlink:href="#g" x="366.299" y="81.48"/><use xlink:href="#P" x="370.675" y="81.48"/><use xlink:href="#U" x="375.831" y="81.48"/><use xlink:href="#k" x="381.722" y="81.48"/><use xlink:href="#T" x="384.672" y="81.48"/><use xlink:href="#j" x="390.562" y="81.48"/><use xlink:href="#J" x="399.053" y="81.48" fill="#00C"/><use xlink:href="#I" x="406.472" y="81.48" fill="#00C"/><use xlink:href="#R" x="413.382" y="81.48"/><use xlink:href="#ac" x="423.326" y="81.48"/><use xlink:href="#h" x="428.804" y="81.48"/><use xlink:href="#k" x="434.112" y="81.48"/><use xlink:href="#m" x="437.062" y="81.48"/><use xlink:href="#l" x="159.491" y="92.439"/><use xlink:href="#L" x="163.616" y="92.439"/><use xlink:href="#H" x="169.506" y="92.439"/><g fill="#B20000"><use xlink:href="#j" x="178.308" y="92.439"/><use xlink:href="#l" x="182.495" y="92.439"/><use xlink:href="#g" x="186.62" y="92.439"/><use xlink:href="#P" x="190.995" y="92.439"/><use xlink:href="#k" x="196.151" y="92.439"/><use xlink:href="#M" x="199.101" y="92.439"/><use xlink:href="#L" x="204.409" y="92.439"/></g><use xlink:href="#l" x="210.004" y="92.439" fill="#B20000"/><g fill="#B20000"><use xlink:href="#Q" x="218.056" y="92.439"/><use xlink:href="#k" x="221.006" y="92.439"/><use xlink:href="#m" x="223.956" y="92.439"/><use xlink:href="#H" x="229.847" y="92.439"/><use xlink:href="#j" x="234.715" y="92.439"/></g><use xlink:href="#X" x="242.842" y="92.439" fill="#B20000"/><use xlink:href="#I" x="250.057" y="92.439" fill="#00C"/><use xlink:href="#P" x="260.901" y="92.439"/><use xlink:href="#m" x="266.057" y="92.439"/><use xlink:href="#U" x="271.948" y="92.439"/><use xlink:href="#X" x="281.771" y="92.439" fill="#B20000"/><use xlink:href="#J" x="288.987" y="92.439" fill="#00C"/><use xlink:href="#ad" x="300.34" y="92.439"/><use xlink:href="#g" x="303.586" y="92.439"/><use xlink:href="#h" x="307.961" y="92.439"/><use xlink:href="#ae" x="313.27" y="92.439"/><use xlink:href="#l" x="326.038" y="92.439"/><use xlink:href="#L" x="330.162" y="92.439"/><use xlink:href="#H" x="336.053" y="92.439"/><use xlink:href="#i" x="344.858" y="92.439"/><use xlink:href="#h" x="351.045" y="92.439"/><use xlink:href="#k" x="356.353" y="92.439"/><use xlink:href="#m" x="359.303" y="92.439"/><use xlink:href="#l" x="364.907" y="92.439"/><use xlink:href="#X" x="372.958" y="92.439" fill="#B20000"/><use xlink:href="#P" x="384.106" y="92.439"/><use xlink:href="#l" x="389.262" y="92.439"/><use xlink:href="#Z" x="397.313" y="92.439"/><use xlink:href="#L" x="404.98" y="92.439"/><use xlink:href="#k" x="410.871" y="92.439"/><use xlink:href="#V" x="413.821" y="92.439"/><use xlink:href="#L" x="418.25" y="92.439"/><use xlink:href="#l" x="428.068" y="92.439"/><use xlink:href="#L" x="432.193" y="92.439"/><use xlink:href="#H" x="438.084" y="92.439"/><use xlink:href="#V" x="159.491" y="103.398"/><use xlink:href="#k" x="164.207" y="103.398"/><use xlink:href="#g" x="167.157" y="103.398"/><use xlink:href="#V" x="171.533" y="103.398"/><use xlink:href="#Q" x="176.249" y="103.398"/><use xlink:href="#H" x="179.199" y="103.398"/><use xlink:href="#j" x="184.068" y="103.398"/><use xlink:href="#V" x="191.788" y="103.398"/><use xlink:href="#T" x="196.504" y="103.398"/><use xlink:href="#l" x="202.395" y="103.398"/><use xlink:href="#h" x="210.052" y="103.398"/><use xlink:href="#m" x="215.361" y="103.398"/><use xlink:href="#H" x="221.251" y="103.398"/><use xlink:href="#P" x="229.653" y="103.398"/><use xlink:href="#m" x="234.809" y="103.398"/><use xlink:href="#h" x="240.7" y="103.398"/><use xlink:href="#l" x="246.008" y="103.398"/><use xlink:href="#L" x="250.132" y="103.398"/><use xlink:href="#H" x="256.023" y="103.398"/><use xlink:href="#g" x="260.892" y="103.398"/><use xlink:href="#l" x="268.8" y="103.398"/><use xlink:href="#h" x="272.925" y="103.398"/><use xlink:href="#l" x="281.766" y="103.398"/><use xlink:href="#L" x="285.89" y="103.398"/><use xlink:href="#H" x="291.781" y="103.398"/><use xlink:href="#i" x="300.182" y="103.398"/><use xlink:href="#h" x="306.369" y="103.398"/><use xlink:href="#k" x="311.677" y="103.398"/><use xlink:href="#m" x="314.627" y="103.398"/><use xlink:href="#l" x="320.222" y="103.398"/><use xlink:href="#j" x="324.347" y="103.398"/><use xlink:href="#I" x="332.067" y="103.398" fill="#00C"/><use xlink:href="#P" x="342.509" y="103.398"/><use xlink:href="#m" x="347.665" y="103.398"/><use xlink:href="#U" x="353.556" y="103.398"/><use xlink:href="#J" x="362.98" y="103.398" fill="#00C"/><use xlink:href="#R" x="370.399" y="103.398"/><use xlink:href="#af" x="159.491" y="115.353"/><use xlink:href="#h" x="167.776" y="115.353"/><use xlink:href="#Z" x="172.788" y="115.353"/><use xlink:href="#ag" x="180.454" y="115.353"/><use xlink:href="#j" x="186.722" y="115.353"/><use xlink:href="#k" x="190.909" y="115.353"/><use xlink:href="#m" x="193.859" y="115.353"/><use xlink:href="#V" x="199.75" y="115.353"/><use xlink:href="#H" x="204.466" y="115.353"/><use xlink:href="#l" x="212.599" y="115.353"/><use xlink:href="#L" x="216.723" y="115.353"/><use xlink:href="#H" x="222.614" y="115.353"/><use xlink:href="#i" x="230.747" y="115.353"/><use xlink:href="#h" x="236.934" y="115.353"/><use xlink:href="#k" x="242.242" y="115.353"/><use xlink:href="#m" x="245.192" y="115.353"/><use xlink:href="#l" x="250.796" y="115.353"/><use xlink:href="#I" x="258.181" y="115.353" fill="#00C"/><use xlink:href="#k" x="268.357" y="115.353"/><use xlink:href="#j" x="271.307" y="115.353"/><use xlink:href="#l" x="278.758" y="115.353"/><use xlink:href="#L" x="282.883" y="115.353"/><use xlink:href="#H" x="288.773" y="115.353"/><use xlink:href="#V" x="296.906" y="115.353"/><use xlink:href="#H" x="301.622" y="115.353"/><use xlink:href="#m" x="306.491" y="115.353"/><use xlink:href="#l" x="312.095" y="115.353"/><use xlink:href="#H" x="316.22" y="115.353"/><use xlink:href="#g" x="321.088" y="115.353"/><use xlink:href="#h" x="328.719" y="115.353"/><use xlink:href="#ad" x="334.027" y="115.353"/><use xlink:href="#l" x="340.536" y="115.353"/><use xlink:href="#L" x="344.661" y="115.353"/><use xlink:href="#H" x="350.552" y="115.353"/><use xlink:href="#V" x="358.684" y="115.353"/><use xlink:href="#k" x="363.401" y="115.353"/><use xlink:href="#g" x="366.351" y="115.353"/><use xlink:href="#V" x="370.726" y="115.353"/><use xlink:href="#Q" x="375.442" y="115.353"/><use xlink:href="#H" x="378.392" y="115.353"/><use xlink:href="#X" x="386.535" y="115.353" fill="#B20000"/><use xlink:href="#Y" x="393.75" y="115.353"/><use xlink:href="#J" x="401.606" y="115.353" fill="#00C"/><use xlink:href="#ag" x="409.025" y="115.353"/><use xlink:href="#l" x="415.293" y="115.353"/><use xlink:href="#L" x="419.417" y="115.353"/><use xlink:href="#H" x="425.308" y="115.353"/><use xlink:href="#g" x="430.177" y="115.353"/><use xlink:href="#H" x="434.552" y="115.353"/><use xlink:href="#ah" x="439.421" y="115.353"/><use xlink:href="#ad" x="159.491" y="127.308"/><use xlink:href="#h" x="162.737" y="127.308"/><use xlink:href="#g" x="168.045" y="127.308"/><use xlink:href="#H" x="172.421" y="127.308"/><use xlink:href="#I" x="181.072" y="127.308" fill="#00C"/><use xlink:href="#X" x="187.982" y="127.308" fill="#B20000"/><use xlink:href="#H" x="198.981" y="127.308"/><use xlink:href="#S" x="203.85" y="127.308"/><use xlink:href="#T" x="209.454" y="127.308"/><use xlink:href="#P" x="215.345" y="127.308"/><use xlink:href="#Q" x="220.5" y="127.308"/><use xlink:href="#j" x="223.45" y="127.308"/><use xlink:href="#I" x="231.421" y="127.308" fill="#00C"/><use xlink:href="#J" x="238.331" y="127.308" fill="#00C"/><use xlink:href="#R" x="245.75" y="127.308"/><use xlink:href="#aa" x="254.16" y="127.308"/><use xlink:href="#M" x="262.167" y="127.308"/><use xlink:href="#P" x="267.476" y="127.308"/><use xlink:href="#k" x="272.631" y="127.308"/><use xlink:href="#m" x="275.581" y="127.308"/><use xlink:href="#ag" x="281.472" y="127.308"/><use xlink:href="#j" x="288.269" y="127.308"/><use xlink:href="#k" x="292.456" y="127.308"/><use xlink:href="#m" x="295.406" y="127.308"/><use xlink:href="#V" x="301.297" y="127.308"/><use xlink:href="#H" x="306.013" y="127.308"/><use xlink:href="#l" x="314.657" y="127.308"/><use xlink:href="#L" x="318.781" y="127.308"/><use xlink:href="#H" x="324.672" y="127.308"/><use xlink:href="#i" x="333.325" y="127.308"/><use xlink:href="#h" x="339.511" y="127.308"/><use xlink:href="#k" x="344.82" y="127.308"/><use xlink:href="#m" x="347.769" y="127.308"/><use xlink:href="#l" x="353.373" y="127.308"/><use xlink:href="#J" x="361.279" y="127.308" fill="#00C"/><use xlink:href="#k" x="372.482" y="127.308"/><use xlink:href="#j" x="375.432" y="127.308"/><use xlink:href="#l" x="383.394" y="127.308"/><use xlink:href="#L" x="387.519" y="127.308"/><use xlink:href="#H" x="393.41" y="127.308"/><use xlink:href="#V" x="402.062" y="127.308"/><use xlink:href="#H" x="406.778" y="127.308"/><use xlink:href="#m" x="411.647" y="127.308"/><use xlink:href="#l" x="417.251" y="127.308"/><use xlink:href="#H" x="421.376" y="127.308"/><use xlink:href="#g" x="426.244" y="127.308"/><use xlink:href="#h" x="434.395" y="127.308"/><use xlink:href="#ad" x="439.703" y="127.308"/><use xlink:href="#l" x="159.491" y="139.264"/><use xlink:href="#L" x="163.616" y="139.264"/><use xlink:href="#H" x="169.506" y="139.264"/><use xlink:href="#V" x="177.98" y="139.264"/><use xlink:href="#k" x="182.696" y="139.264"/><use xlink:href="#g" x="185.646" y="139.264"/><use xlink:href="#V" x="190.022" y="139.264"/><use xlink:href="#Q" x="194.738" y="139.264"/><use xlink:href="#H" x="197.688" y="139.264"/><use xlink:href="#X" x="206.163" y="139.264" fill="#B20000"/><use xlink:href="#I" x="213.378" y="139.264" fill="#00C"/><use xlink:href="#ab" x="220.289" y="139.264"/><use xlink:href="#ag" x="227.581" y="139.264"/><use xlink:href="#l" x="234.153" y="139.264"/><use xlink:href="#L" x="238.278" y="139.264"/><use xlink:href="#H" x="244.169" y="139.264"/><use xlink:href="#g" x="249.038" y="139.264"/><use xlink:href="#H" x="253.413" y="139.264"/><use xlink:href="#ad" x="258.282" y="139.264"/><use xlink:href="#h" x="261.528" y="139.264"/><use xlink:href="#g" x="266.836" y="139.264"/><use xlink:href="#H" x="271.211" y="139.264"/><use xlink:href="#J" x="279.686" y="139.264" fill="#00C"/><use xlink:href="#X" x="287.106" y="139.264" fill="#B20000"/><use xlink:href="#H" x="297.927" y="139.264"/><use xlink:href="#S" x="302.796" y="139.264"/><use xlink:href="#T" x="308.4" y="139.264"/><use xlink:href="#P" x="314.291" y="139.264"/><use xlink:href="#Q" x="319.446" y="139.264"/><use xlink:href="#j" x="322.396" y="139.264"/><use xlink:href="#J" x="330.189" y="139.264" fill="#00C"/><use xlink:href="#I" x="337.609" y="139.264" fill="#00C"/><use xlink:href="#R" x="344.519" y="139.264"/><use xlink:href="#ai" x="352.391" y="139.264"/><use xlink:href="#T" x="359.932" y="139.264"/><use xlink:href="#l" x="365.823" y="139.264"/><use xlink:href="#I" x="373.559" y="139.264" fill="#00C"/><use xlink:href="#X" x="380.469" y="139.264" fill="#B20000"/><use xlink:href="#Z" x="391.29" y="139.264"/><use xlink:href="#P" x="398.66" y="139.264"/><use xlink:href="#j" x="403.816" y="139.264"/><use xlink:href="#i" x="411.608" y="139.264"/><use xlink:href="#g" x="417.499" y="139.264"/><use xlink:href="#h" x="421.874" y="139.264"/><use xlink:href="#N" x="426.895" y="139.264"/><use xlink:href="#H" x="432.204" y="139.264"/><use xlink:href="#U" x="437.072" y="139.264"/><use xlink:href="#H" x="159.491" y="151.219"/><use xlink:href="#S" x="164.36" y="151.219"/><use xlink:href="#T" x="169.964" y="151.219"/><use xlink:href="#P" x="175.855" y="151.219"/><use xlink:href="#Q" x="181.01" y="151.219"/><use xlink:href="#l" x="187.968" y="151.219"/><use xlink:href="#h" x="192.093" y="151.219"/><use xlink:href="#I" x="201.41" y="151.219" fill="#00C"/><use xlink:href="#J" x="208.32" y="151.219" fill="#00C"/><use xlink:href="#ag" x="215.74" y="151.219"/><use xlink:href="#l" x="222.814" y="151.219"/><use xlink:href="#L" x="226.939" y="151.219"/><use xlink:href="#H" x="232.83" y="151.219"/><use xlink:href="#g" x="237.699" y="151.219"/><use xlink:href="#H" x="242.074" y="151.219"/><use xlink:href="#ad" x="246.943" y="151.219"/><use xlink:href="#h" x="250.189" y="151.219"/><use xlink:href="#g" x="255.497" y="151.219"/><use xlink:href="#H" x="259.873" y="151.219"/><use xlink:href="#H" x="268.749" y="151.219"/><use xlink:href="#P" x="273.618" y="151.219"/><use xlink:href="#V" x="278.774" y="151.219"/><use xlink:href="#L" x="283.203" y="151.219"/><use xlink:href="#h" x="293.093" y="151.219"/><use xlink:href="#ad" x="298.401" y="151.219"/><use xlink:href="#l" x="305.655" y="151.219"/><use xlink:href="#L" x="309.779" y="151.219"/><use xlink:href="#H" x="315.67" y="151.219"/><use xlink:href="#j" x="324.547" y="151.219"/><use xlink:href="#l" x="328.734" y="151.219"/><use xlink:href="#g" x="332.859" y="151.219"/><use xlink:href="#P" x="337.234" y="151.219"/><use xlink:href="#k" x="342.39" y="151.219"/><use xlink:href="#M" x="345.34" y="151.219"/><use xlink:href="#L" x="350.648" y="151.219"/><use xlink:href="#l" x="356.252" y="151.219"/><use xlink:href="#Q" x="364.376" y="151.219"/><use xlink:href="#k" x="367.326" y="151.219"/><use xlink:href="#m" x="370.276" y="151.219"/><use xlink:href="#H" x="376.166" y="151.219"/><use xlink:href="#j" x="381.035" y="151.219"/><use xlink:href="#I" x="389.239" y="151.219" fill="#00C"/><use xlink:href="#X" x="396.149" y="151.219" fill="#B20000"/><use xlink:href="#P" x="407.374" y="151.219"/><use xlink:href="#m" x="412.53" y="151.219"/><use xlink:href="#U" x="418.421" y="151.219"/><use xlink:href="#J" x="428.32" y="151.219" fill="#00C"/><use xlink:href="#X" x="435.74" y="151.219" fill="#B20000"/><use xlink:href="#H" x="159.491" y="163.174"/><use xlink:href="#S" x="164.36" y="163.174"/><use xlink:href="#T" x="169.964" y="163.174"/><use xlink:href="#P" x="175.855" y="163.174"/><use xlink:href="#Q" x="181.01" y="163.174"/><use xlink:href="#j" x="183.96" y="163.174"/><use xlink:href="#I" x="191.404" y="163.174" fill="#00C"/><use xlink:href="#J" x="198.314" y="163.174" fill="#00C"/><use xlink:href="#R" x="205.734" y="163.174"/><use xlink:href="#aa" x="213.302" y="163.174"/><use xlink:href="#m" x="221.309" y="163.174"/><use xlink:href="#U" x="227.2" y="163.174"/><use xlink:href="#l" x="236.345" y="163.174"/><use xlink:href="#L" x="240.47" y="163.174"/><use xlink:href="#k" x="246.361" y="163.174"/><use xlink:href="#m" x="249.311" y="163.174"/><use xlink:href="#M" x="255.202" y="163.174"/><use xlink:href="#j" x="260.51" y="163.174"/><use xlink:href="#Z" x="267.952" y="163.174"/><use xlink:href="#L" x="275.618" y="163.174"/><use xlink:href="#k" x="281.509" y="163.174"/><use xlink:href="#V" x="284.459" y="163.174"/><use xlink:href="#L" x="288.888" y="163.174"/><use xlink:href="#H" x="298.025" y="163.174"/><use xlink:href="#S" x="302.894" y="163.174"/><use xlink:href="#T" x="308.498" y="163.174"/><use xlink:href="#P" x="314.389" y="163.174"/><use xlink:href="#Q" x="319.544" y="163.174"/><use xlink:href="#l" x="325.749" y="163.174"/><use xlink:href="#L" x="329.874" y="163.174"/><use xlink:href="#H" x="335.764" y="163.174"/><use xlink:href="#j" x="343.897" y="163.174"/><use xlink:href="#P" x="348.084" y="163.174"/><use xlink:href="#ae" x="353.24" y="163.174"/><use xlink:href="#H" x="362.081" y="163.174"/><use xlink:href="#l" x="370.204" y="163.174"/><use xlink:href="#L" x="374.329" y="163.174"/><use xlink:href="#k" x="380.22" y="163.174"/><use xlink:href="#m" x="383.17" y="163.174"/><use xlink:href="#M" x="389.061" y="163.174"/><use xlink:href="#P" x="397.623" y="163.174"/><use xlink:href="#Q" x="402.779" y="163.174"/><use xlink:href="#j" x="405.729" y="163.174"/><use xlink:href="#h" x="409.916" y="163.174"/><use xlink:href="#H" x="418.479" y="163.174"/><use xlink:href="#S" x="423.348" y="163.174"/><use xlink:href="#T" x="428.952" y="163.174"/><use xlink:href="#P" x="434.843" y="163.174"/><use xlink:href="#Q" x="439.999" y="163.174"/><use xlink:href="#h" x="159.491" y="175.129"/><use xlink:href="#m" x="164.799" y="175.129"/><use xlink:href="#H" x="170.69" y="175.129"/><use xlink:href="#P" x="178.078" y="175.129"/><use xlink:href="#m" x="183.234" y="175.129"/><use xlink:href="#h" x="189.125" y="175.129"/><use xlink:href="#l" x="194.433" y="175.129"/><use xlink:href="#L" x="198.558" y="175.129"/><use xlink:href="#H" x="204.448" y="175.129"/><use xlink:href="#g" x="209.317" y="175.129"/><use xlink:href="#ag" x="213.693" y="175.129"/><use xlink:href="#l" x="219.36" y="175.129"/><use xlink:href="#L" x="223.484" y="175.129"/><use xlink:href="#H" x="229.375" y="175.129"/><use xlink:href="#g" x="234.244" y="175.129"/><use xlink:href="#H" x="238.619" y="175.129"/><use xlink:href="#ad" x="243.488" y="175.129"/><use xlink:href="#h" x="246.734" y="175.129"/><use xlink:href="#g" x="252.042" y="175.129"/><use xlink:href="#H" x="256.418" y="175.129"/><use xlink:href="#I" x="263.815" y="175.129" fill="#00C"/><use xlink:href="#X" x="270.725" y="175.129" fill="#B20000"/><use xlink:href="#P" x="280.462" y="175.129"/><use xlink:href="#Q" x="285.618" y="175.129"/><use xlink:href="#j" x="288.568" y="175.129"/><use xlink:href="#h" x="292.755" y="175.129"/><use xlink:href="#H" x="300.583" y="175.129"/><use xlink:href="#S" x="305.451" y="175.129"/><use xlink:href="#T" x="311.055" y="175.129"/><use xlink:href="#P" x="316.946" y="175.129"/><use xlink:href="#Q" x="322.102" y="175.129"/><use xlink:href="#j" x="325.052" y="175.129"/><use xlink:href="#J" x="331.761" y="175.129" fill="#00C"/><use xlink:href="#X" x="339.181" y="175.129" fill="#B20000"/><use xlink:href="#R" x="346.396" y="175.129"/><use xlink:href="#aj" x="353.713" y="175.129"/><use xlink:href="#L" x="361.092" y="175.129"/><use xlink:href="#H" x="366.983" y="175.129"/><use xlink:href="#g" x="371.852" y="175.129"/><use xlink:href="#H" x="376.227" y="175.129"/><use xlink:href="#ad" x="381.096" y="175.129"/><use xlink:href="#h" x="384.342" y="175.129"/><use xlink:href="#g" x="389.65" y="175.129"/><use xlink:href="#H" x="394.025" y="175.129"/><use xlink:href="#l" x="401.414" y="175.129"/><use xlink:href="#L" x="405.538" y="175.129"/><use xlink:href="#H" x="411.429" y="175.129"/><use xlink:href="#l" x="418.826" y="175.129"/><use xlink:href="#L" x="422.951" y="175.129"/><use xlink:href="#g" x="428.842" y="175.129"/><use xlink:href="#H" x="433.217" y="175.129"/><use xlink:href="#H" x="438.086" y="175.129"/><use xlink:href="#j" x="159.491" y="187.084"/><use xlink:href="#l" x="163.678" y="187.084"/><use xlink:href="#g" x="167.803" y="187.084"/><use xlink:href="#P" x="172.178" y="187.084"/><use xlink:href="#k" x="177.334" y="187.084"/><use xlink:href="#M" x="180.284" y="187.084"/><use xlink:href="#L" x="185.592" y="187.084"/><use xlink:href="#l" x="191.187" y="187.084"/><use xlink:href="#Q" x="199.158" y="187.084"/><use xlink:href="#k" x="202.108" y="187.084"/><use xlink:href="#m" x="205.058" y="187.084"/><use xlink:href="#H" x="210.949" y="187.084"/><use xlink:href="#j" x="215.818" y="187.084"/><use xlink:href="#I" x="223.852" y="187.084" fill="#00C"/><use xlink:href="#X" x="230.762" y="187.084" fill="#B20000"/><use xlink:href="#ag" x="237.978" y="187.084"/><use xlink:href="#I" x="244.854" y="187.084" fill="#00C"/><use xlink:href="#J" x="251.764" y="187.084" fill="#00C"/><use xlink:href="#ag" x="259.183" y="187.084"/><use xlink:href="#P" x="266.051" y="187.084"/><use xlink:href="#m" x="271.207" y="187.084"/><use xlink:href="#U" x="277.098" y="187.084"/><use xlink:href="#J" x="286.843" y="187.084" fill="#00C"/><use xlink:href="#X" x="294.263" y="187.084" fill="#B20000"/><use xlink:href="#H" x="305.326" y="187.084"/><use xlink:href="#S" x="310.195" y="187.084"/><use xlink:href="#T" x="315.799" y="187.084"/><use xlink:href="#P" x="321.69" y="187.084"/><use xlink:href="#Q" x="326.845" y="187.084"/><use xlink:href="#h" x="333.642" y="187.084"/><use xlink:href="#m" x="338.95" y="187.084"/><use xlink:href="#H" x="344.841" y="187.084"/><use xlink:href="#P" x="353.556" y="187.084"/><use xlink:href="#m" x="358.712" y="187.084"/><use xlink:href="#h" x="364.603" y="187.084"/><use xlink:href="#l" x="369.911" y="187.084"/><use xlink:href="#L" x="374.035" y="187.084"/><use xlink:href="#H" x="379.926" y="187.084"/><use xlink:href="#g" x="384.795" y="187.084"/><use xlink:href="#R" x="389.171" y="187.084"/><use xlink:href="#aj" x="397.769" y="187.084"/><use xlink:href="#L" x="405.149" y="187.084"/><use xlink:href="#H" x="411.04" y="187.084"/><use xlink:href="#g" x="415.908" y="187.084"/><use xlink:href="#H" x="420.284" y="187.084"/><use xlink:href="#ad" x="425.153" y="187.084"/><use xlink:href="#h" x="428.399" y="187.084"/><use xlink:href="#g" x="433.707" y="187.084"/><use xlink:href="#H" x="438.082" y="187.084"/><use xlink:href="#l" x="159.491" y="199.039"/><use xlink:href="#L" x="163.616" y="199.039"/><use xlink:href="#H" x="169.506" y="199.039"/><g fill="#FF7F00"><use xlink:href="#l" x="178.5" y="199.039"/><use xlink:href="#g" x="182.625" y="199.039"/><use xlink:href="#k" x="187" y="199.039"/><use xlink:href="#P" x="189.95" y="199.039"/><use xlink:href="#m" x="195.106" y="199.039"/><use xlink:href="#M" x="200.997" y="199.039"/><use xlink:href="#Q" x="206.305" y="199.039"/><use xlink:href="#H" x="209.255" y="199.039"/></g><use xlink:href="#I" x="218.249" y="199.039" fill="#00C"/><use xlink:href="#J" x="225.159" y="199.039" fill="#00C"/><use xlink:href="#X" x="232.579" y="199.039" fill="#B20000"/><use xlink:href="#k" x="243.92" y="199.039"/><use xlink:href="#j" x="246.87" y="199.039"/><use xlink:href="#H" x="255.182" y="199.039"/><use xlink:href="#S" x="260.051" y="199.039"/><use xlink:href="#T" x="265.655" y="199.039"/><use xlink:href="#k" x="271.545" y="199.039"/><use xlink:href="#Q" x="274.495" y="199.039"/><use xlink:href="#P" x="277.445" y="199.039"/><use xlink:href="#l" x="282.601" y="199.039"/><use xlink:href="#H" x="286.725" y="199.039"/><use xlink:href="#g" x="291.594" y="199.039"/><use xlink:href="#P" x="295.97" y="199.039"/><use xlink:href="#Q" x="301.126" y="199.039"/><use xlink:href="#ag" x="304.075" y="199.039"/><use xlink:href="#P" x="311.293" y="199.039"/><use xlink:href="#m" x="316.449" y="199.039"/><use xlink:href="#U" x="322.34" y="199.039"/><use xlink:href="#k" x="332.355" y="199.039"/><use xlink:href="#l" x="335.305" y="199.039"/><use xlink:href="#L" x="343.554" y="199.039"/><use xlink:href="#P" x="349.445" y="199.039"/><use xlink:href="#j" x="354.601" y="199.039"/><use xlink:href="#K" x="362.913" y="199.039"/><use xlink:href="#H" x="369.1" y="199.039"/><use xlink:href="#H" x="373.968" y="199.039"/><use xlink:href="#m" x="378.837" y="199.039"/><use xlink:href="#V" x="388.862" y="199.039"/><use xlink:href="#h" x="393.578" y="199.039"/><use xlink:href="#m" x="398.886" y="199.039"/><use xlink:href="#j" x="404.777" y="199.039"/><use xlink:href="#l" x="408.964" y="199.039"/><use xlink:href="#g" x="413.089" y="199.039"/><use xlink:href="#T" x="417.464" y="199.039"/><use xlink:href="#V" x="423.355" y="199.039"/><use xlink:href="#l" x="428.072" y="199.039"/><use xlink:href="#H" x="432.196" y="199.039"/><use xlink:href="#U" x="437.065" y="199.039"/><use xlink:href="#h" x="159.491" y="210.995"/><use xlink:href="#m" x="164.799" y="210.995"/><use xlink:href="#l" x="174.223" y="210.995"/><use xlink:href="#L" x="178.347" y="210.995"/><use xlink:href="#H" x="184.238" y="210.995"/><use xlink:href="#M" x="192.64" y="210.995"/><use xlink:href="#k" x="197.948" y="210.995"/><use xlink:href="#N" x="200.898" y="210.995"/><use xlink:href="#H" x="206.206" y="210.995"/><use xlink:href="#m" x="211.075" y="210.995"/><use xlink:href="#O" x="220.498" y="210.995"/><use xlink:href="#m" x="226.389" y="210.995"/><use xlink:href="#k" x="232.28" y="210.995"/><use xlink:href="#l" x="235.23" y="210.995"/><use xlink:href="#H" x="239.355" y="210.995"/><g fill="#00C"><use xlink:href="#j" x="247.756" y="210.995"/><use xlink:href="#l" x="251.943" y="210.995"/><use xlink:href="#g" x="256.068" y="210.995"/><use xlink:href="#P" x="260.443" y="210.995"/><use xlink:href="#k" x="265.599" y="210.995"/><use xlink:href="#M" x="268.549" y="210.995"/><use xlink:href="#L" x="273.857" y="210.995"/></g><use xlink:href="#l" x="279.452" y="210.995" fill="#00C"/><g fill="#00C"><use xlink:href="#Q" x="287.109" y="210.995"/><use xlink:href="#k" x="290.059" y="210.995"/><use xlink:href="#m" x="293.009" y="210.995"/><use xlink:href="#H" x="298.9" y="210.995"/></g><use xlink:href="#I" x="307.301" y="210.995" fill="#00C"/><use xlink:href="#J" x="314.212" y="210.995" fill="#00C"/><use xlink:href="#R" x="321.631" y="210.995"/></svg>