<svg xmlns="http://www.w3.org/2000/svg" width="106.724" height="80.768"><defs><clipPath id="a"><path d="M0 11h70v69.652H0Zm0 0"/></clipPath><clipPath id="b"><path d="M65 0h41.586v41H65Zm0 0"/></clipPath><clipPath id="c"><path d="M47 17h23v29H47Zm0 0"/></clipPath><clipPath id="d"><path d="M47.844 29.191a28.35 28.35 0 0 1 9.695 16.793c-1.23-6.976 3.39-11.718 9.527-15.261l-1.238-2.149c-6.137 3.543-12.555 5.172-17.984.617m24.11-4.156-6.126 3.54 1.238 2.148 6.125-3.54Zm5.073-7.094a14.17 14.17 0 0 0 4.848 8.399c-2.715-2.277-5.613-.926-8.684.844l-1.238-2.149c3.07-1.77 5.688-3.605 5.074-7.094m0 0"/></clipPath><clipPath id="e"><path d="M63 17h19v29H63Zm0 0"/></clipPath><clipPath id="f"><path d="M47.844 29.191a28.35 28.35 0 0 1 9.695 16.793c-1.23-6.976 3.39-11.718 9.527-15.261l-1.238-2.149c-6.137 3.543-12.555 5.172-17.984.617m24.11-4.156-6.126 3.54 1.238 2.148 6.125-3.54Zm5.073-7.094a14.17 14.17 0 0 0 4.848 8.399c-2.715-2.277-5.613-.926-8.684.844l-1.238-2.149c3.07-1.77 5.688-3.605 5.074-7.094m0 0"/></clipPath><clipPath id="g"><path d="M47 17h35v29H47Zm0 0"/></clipPath><clipPath id="h"><path d="M47.844 29.191a28.35 28.35 0 0 1 9.695 16.793c-1.23-6.976 3.39-11.718 9.527-15.261l-1.238-2.149c-6.137 3.543-12.555 5.172-17.984.617m24.11-4.156-6.126 3.54 1.238 2.148 6.125-3.54Zm5.073-7.094a14.17 14.17 0 0 0 4.848 8.399c-2.715-2.277-5.613-.926-8.684.844l-1.238-2.149c3.07-1.77 5.688-3.605 5.074-7.094m0 0"/></clipPath><clipPath id="i"><path d="m68.348 61.285 24.55-14.172L64.551-1.992 40 12.184Zm0 0"/></clipPath><linearGradient id="j" x1="0" x2="100.001" y1="0" y2="0" gradientTransform="matrix(.2455 -.14174 -.28348 -.49103 68.348 61.286)" gradientUnits="userSpaceOnUse"><stop offset="0" stop-color="red"/><stop offset=".004" stop-color="#FE0001"/><stop offset=".008" stop-color="#FD0002"/><stop offset=".012" stop-color="#FC0003"/><stop offset=".016" stop-color="#FB0004"/><stop offset=".02" stop-color="#FA0005"/><stop offset=".023" stop-color="#F90006"/><stop offset=".027" stop-color="#F80007"/><stop offset=".031" stop-color="#F70008"/><stop offset=".035" stop-color="#F60009"/><stop offset=".039" stop-color="#F5000A"/><stop offset=".043" stop-color="#F4000B"/><stop offset=".047" stop-color="#F3000C"/><stop offset=".051" stop-color="#F2000D"/><stop offset=".055" stop-color="#F1000E"/><stop offset=".059" stop-color="#F0000F"/><stop offset=".063" stop-color="#EF0010"/><stop offset=".066" stop-color="#E01"/><stop offset=".07" stop-color="#ED0012"/><stop offset=".074" stop-color="#EC0013"/><stop offset=".078" stop-color="#EB0014"/><stop offset=".082" stop-color="#EA0015"/><stop offset=".086" stop-color="#E90016"/><stop offset=".09" stop-color="#E80017"/><stop offset=".094" stop-color="#E70018"/><stop offset=".098" stop-color="#E60019"/><stop offset=".102" stop-color="#E5001A"/><stop offset=".105" stop-color="#E4001B"/><stop offset=".109" stop-color="#E3001C"/><stop offset=".113" stop-color="#E2001D"/><stop offset=".117" stop-color="#E1001E"/><stop offset=".121" stop-color="#E0001F"/><stop offset=".125" stop-color="#DF0020"/><stop offset=".129" stop-color="#DE0021"/><stop offset=".133" stop-color="#D02"/><stop offset=".137" stop-color="#DC0023"/><stop offset=".141" stop-color="#DB0024"/><stop offset=".145" stop-color="#DA0025"/><stop offset=".148" stop-color="#D90026"/><stop offset=".152" stop-color="#D80027"/><stop offset=".156" stop-color="#D70028"/><stop offset=".16" stop-color="#D60029"/><stop offset=".164" stop-color="#D5002A"/><stop offset=".168" stop-color="#D4002B"/><stop offset=".172" stop-color="#D3002C"/><stop offset=".176" stop-color="#D2002D"/><stop offset=".18" stop-color="#D1002E"/><stop offset=".184" stop-color="#D0002F"/><stop offset=".188" stop-color="#CF0030"/><stop offset=".191" stop-color="#CE0031"/><stop offset=".195" stop-color="#CD0032"/><stop offset=".199" stop-color="#C03"/><stop offset=".203" stop-color="#CB0034"/><stop offset=".207" stop-color="#CA0035"/><stop offset=".211" stop-color="#C90036"/><stop offset=".215" stop-color="#C80037"/><stop offset=".219" stop-color="#C70038"/><stop offset=".223" stop-color="#C60039"/><stop offset=".227" stop-color="#C5003A"/><stop offset=".23" stop-color="#C4003B"/><stop offset=".234" stop-color="#C3003C"/><stop offset=".238" stop-color="#C2003D"/><stop offset=".242" stop-color="#C1003E"/><stop offset=".246" stop-color="#C0003F"/><stop offset=".25" stop-color="#BF0040"/><stop offset=".254" stop-color="#BE0041"/><stop offset=".258" stop-color="#BD0042"/><stop offset=".262" stop-color="#BC0043"/><stop offset=".266" stop-color="#B04"/><stop offset=".27" stop-color="#BA0045"/><stop offset=".273" stop-color="#B90046"/><stop offset=".277" stop-color="#B80047"/><stop offset=".281" stop-color="#B70048"/><stop offset=".285" stop-color="#B60049"/><stop offset=".289" stop-color="#B5004A"/><stop offset=".293" stop-color="#B4004B"/><stop offset=".297" stop-color="#B3004C"/><stop offset=".301" stop-color="#B2004D"/><stop offset=".305" stop-color="#B1004E"/><stop offset=".309" stop-color="#B0004F"/><stop offset=".313" stop-color="#AF0050"/><stop offset=".316" stop-color="#AE0051"/><stop offset=".32" stop-color="#AD0052"/><stop offset=".324" stop-color="#AC0053"/><stop offset=".328" stop-color="#AB0054"/><stop offset=".332" stop-color="#A05"/><stop offset=".336" stop-color="#A90056"/><stop offset=".34" stop-color="#A80057"/><stop offset=".344" stop-color="#A70058"/><stop offset=".348" stop-color="#A60059"/><stop offset=".352" stop-color="#A5005A"/><stop offset=".355" stop-color="#A4005B"/><stop offset=".359" stop-color="#A3005C"/><stop offset=".363" stop-color="#A2005D"/><stop offset=".367" stop-color="#A1005E"/><stop offset=".371" stop-color="#A0005F"/><stop offset=".375" stop-color="#9F0060"/><stop offset=".379" stop-color="#9E0061"/><stop offset=".383" stop-color="#9D0062"/><stop offset=".387" stop-color="#9C0063"/><stop offset=".391" stop-color="#9B0064"/><stop offset=".395" stop-color="#9A0065"/><stop offset=".398" stop-color="#906"/><stop offset=".402" stop-color="#980067"/><stop offset=".406" stop-color="#970068"/><stop offset=".41" stop-color="#960069"/><stop offset=".414" stop-color="#95006A"/><stop offset=".418" stop-color="#94006B"/><stop offset=".422" stop-color="#93006C"/><stop offset=".426" stop-color="#92006D"/><stop offset=".43" stop-color="#91006E"/><stop offset=".434" stop-color="#90006F"/><stop offset=".438" stop-color="#8F0070"/><stop offset=".441" stop-color="#8E0071"/><stop offset=".445" stop-color="#8D0072"/><stop offset=".449" stop-color="#8C0073"/><stop offset=".453" stop-color="#8B0074"/><stop offset=".457" stop-color="#8A0075"/><stop offset=".461" stop-color="#890076"/><stop offset=".465" stop-color="#807"/><stop offset=".469" stop-color="#870078"/><stop offset=".473" stop-color="#860079"/><stop offset=".477" stop-color="#85007A"/><stop offset=".48" stop-color="#84007B"/><stop offset=".484" stop-color="#83007C"/><stop offset=".488" stop-color="#82007D"/><stop offset=".492" stop-color="#81007E"/><stop offset=".496" stop-color="#80007F"/><stop offset=".5" stop-color="#7F007F"/><stop offset=".504" stop-color="#7F0080"/><stop offset=".508" stop-color="#7E0081"/><stop offset=".512" stop-color="#7D0082"/><stop offset=".516" stop-color="#7C0083"/><stop offset=".52" stop-color="#7B0084"/><stop offset=".523" stop-color="#7A0085"/><stop offset=".527" stop-color="#790086"/><stop offset=".531" stop-color="#780087"/><stop offset=".535" stop-color="#708"/><stop offset=".539" stop-color="#760089"/><stop offset=".543" stop-color="#75008A"/><stop offset=".547" stop-color="#74008B"/><stop offset=".551" stop-color="#73008C"/><stop offset=".555" stop-color="#72008D"/><stop offset=".559" stop-color="#71008E"/><stop offset=".563" stop-color="#70008F"/><stop offset=".566" stop-color="#6F0090"/><stop offset=".57" stop-color="#6E0091"/><stop offset=".574" stop-color="#6D0092"/><stop offset=".578" stop-color="#6C0093"/><stop offset=".582" stop-color="#6B0094"/><stop offset=".586" stop-color="#6A0095"/><stop offset=".59" stop-color="#690096"/><stop offset=".594" stop-color="#680097"/><stop offset=".598" stop-color="#670098"/><stop offset=".602" stop-color="#609"/><stop offset=".605" stop-color="#65009A"/><stop offset=".609" stop-color="#64009B"/><stop offset=".613" stop-color="#63009C"/><stop offset=".617" stop-color="#62009D"/><stop offset=".621" stop-color="#61009E"/><stop offset=".625" stop-color="#60009F"/><stop offset=".629" stop-color="#5F00A0"/><stop offset=".633" stop-color="#5E00A1"/><stop offset=".637" stop-color="#5D00A2"/><stop offset=".641" stop-color="#5C00A3"/><stop offset=".645" stop-color="#5B00A4"/><stop offset=".648" stop-color="#5A00A5"/><stop offset=".652" stop-color="#5900A6"/><stop offset=".656" stop-color="#5800A7"/><stop offset=".66" stop-color="#5700A8"/><stop offset=".664" stop-color="#5600A9"/><stop offset=".668" stop-color="#50A"/><stop offset=".672" stop-color="#5400AB"/><stop offset=".676" stop-color="#5300AC"/><stop offset=".68" stop-color="#5200AD"/><stop offset=".684" stop-color="#5100AE"/><stop offset=".688" stop-color="#5000AF"/><stop offset=".691" stop-color="#4F00B0"/><stop offset=".695" stop-color="#4E00B1"/><stop offset=".699" stop-color="#4D00B2"/><stop offset=".703" stop-color="#4C00B3"/><stop offset=".707" stop-color="#4B00B4"/><stop offset=".711" stop-color="#4A00B5"/><stop offset=".715" stop-color="#4900B6"/><stop offset=".719" stop-color="#4800B7"/><stop offset=".723" stop-color="#4700B8"/><stop offset=".727" stop-color="#4600B9"/><stop offset=".73" stop-color="#4500BA"/><stop offset=".734" stop-color="#40B"/><stop offset=".738" stop-color="#4300BC"/><stop offset=".742" stop-color="#4200BD"/><stop offset=".746" stop-color="#4100BE"/><stop offset=".75" stop-color="#4000BF"/><stop offset=".754" stop-color="#3F00C0"/><stop offset=".758" stop-color="#3E00C1"/><stop offset=".762" stop-color="#3D00C2"/><stop offset=".766" stop-color="#3C00C3"/><stop offset=".77" stop-color="#3B00C4"/><stop offset=".773" stop-color="#3A00C5"/><stop offset=".777" stop-color="#3900C6"/><stop offset=".781" stop-color="#3800C7"/><stop offset=".785" stop-color="#3700C8"/><stop offset=".789" stop-color="#3600C9"/><stop offset=".793" stop-color="#3500CA"/><stop offset=".797" stop-color="#3400CB"/><stop offset=".801" stop-color="#30C"/><stop offset=".805" stop-color="#3200CD"/><stop offset=".809" stop-color="#3100CE"/><stop offset=".813" stop-color="#3000CF"/><stop offset=".816" stop-color="#2F00D0"/><stop offset=".82" stop-color="#2E00D1"/><stop offset=".824" stop-color="#2D00D2"/><stop offset=".828" stop-color="#2C00D3"/><stop offset=".832" stop-color="#2B00D4"/><stop offset=".836" stop-color="#2A00D5"/><stop offset=".84" stop-color="#2900D6"/><stop offset=".844" stop-color="#2800D7"/><stop offset=".848" stop-color="#2700D8"/><stop offset=".852" stop-color="#2600D9"/><stop offset=".855" stop-color="#2500DA"/><stop offset=".859" stop-color="#2400DB"/><stop offset=".863" stop-color="#2300DC"/><stop offset=".867" stop-color="#20D"/><stop offset=".871" stop-color="#2100DE"/><stop offset=".875" stop-color="#2000DF"/><stop offset=".879" stop-color="#1F00E0"/><stop offset=".883" stop-color="#1E00E1"/><stop offset=".887" stop-color="#1D00E2"/><stop offset=".891" stop-color="#1C00E3"/><stop offset=".895" stop-color="#1B00E4"/><stop offset=".898" stop-color="#1A00E5"/><stop offset=".902" stop-color="#1900E6"/><stop offset=".906" stop-color="#1800E7"/><stop offset=".91" stop-color="#1700E8"/><stop offset=".914" stop-color="#1600E9"/><stop offset=".918" stop-color="#1500EA"/><stop offset=".922" stop-color="#1400EB"/><stop offset=".926" stop-color="#1300EC"/><stop offset=".93" stop-color="#1200ED"/><stop offset=".934" stop-color="#10E"/><stop offset=".938" stop-color="#1000EF"/><stop offset=".941" stop-color="#0F00F0"/><stop offset=".945" stop-color="#0E00F1"/><stop offset=".949" stop-color="#0D00F2"/><stop offset=".953" stop-color="#0C00F3"/><stop offset=".957" stop-color="#0B00F4"/><stop offset=".961" stop-color="#0A00F5"/><stop offset=".965" stop-color="#0900F6"/><stop offset=".969" stop-color="#0800F7"/><stop offset=".973" stop-color="#0700F8"/><stop offset=".977" stop-color="#0600F9"/><stop offset=".98" stop-color="#0500FA"/><stop offset=".984" stop-color="#0400FB"/><stop offset=".988" stop-color="#0300FC"/><stop offset=".992" stop-color="#0200FD"/><stop offset=".996" stop-color="#0100FE"/><stop offset="1" stop-color="#00F"/></linearGradient></defs><path fill="red" d="M57.973 50.906c0-15.656-12.692-28.347-28.348-28.347S1.277 35.25 1.277 50.906 13.97 79.254 29.625 79.254s28.348-12.692 28.348-28.348m0 0"/><g clip-path="url(#a)"><path fill="none" stroke="red" stroke-miterlimit="10" stroke-width=".797" d="M57.973 50.906c0-15.656-12.692-28.347-28.348-28.347S1.277 35.25 1.277 50.906 13.97 79.254 29.625 79.254s28.348-12.692 28.348-28.348Zm0 0"/></g><path fill="#00F" d="M105.172 15.473c0-7.828-6.348-14.172-14.176-14.172-7.824 0-14.172 6.344-14.172 14.172s6.348 14.175 14.172 14.175c7.828 0 14.176-6.347 14.176-14.175m0 0"/><g clip-path="url(#b)"><path fill="none" stroke="#00F" stroke-miterlimit="10" stroke-width=".797" d="M105.172 15.473c0-7.828-6.348-14.172-14.176-14.172-7.824 0-14.172 6.344-14.172 14.172s6.348 14.175 14.172 14.175c7.828 0 14.176-6.347 14.176-14.175Zm0 0"/></g><g clip-path="url(#c)"><g clip-path="url(#d)"><path fill="red" d="M40.863 11.684 15.45 26.355l28.352 49.102 25.41-14.668Zm0 0"/></g></g><g clip-path="url(#e)"><g clip-path="url(#f)"><path fill="#00F" d="m63.688-1.492 13.136-7.586 28.348 49.105-13.137 7.582Zm0 0"/></g></g><g clip-path="url(#g)"><g clip-path="url(#h)"><g clip-path="url(#i)"><path fill="url(#j)" d="M56.352 60.719 35.703 24.953 73.367 3.207l20.649 35.766Zm0 0"/></g></g></g></svg>