<svg xmlns="http://www.w3.org/2000/svg" xmlns:xlink="http://www.w3.org/1999/xlink" width="110.375" height="106.328"><defs><path id="a" d="M4.922 0v-.469h-1.39v-5.734c0-.234 0-.328-.266-.328-.11 0-.125 0-.22.078-.765.562-1.796.562-2 .562H.845v.47h.203c.156 0 .703-.016 1.297-.204v5.156H.954V0c.437-.031 1.5-.031 1.984-.031s1.546 0 1.984.031m0 0"/><path id="b" d="M5.156-2.219h-.468c-.032.203-.125.844-.266.906-.11.063-.86.063-1.016.063H1.937c.47-.39 1-.812 1.438-1.14 1.14-.844 1.781-1.313 1.781-2.25 0-1.157-1.047-1.891-2.437-1.891-1.219 0-2.156.625-2.156 1.515 0 .594.484.735.718.735C1.61-4.281 2-4.5 2-5c0-.516-.422-.672-.562-.719.28-.234.671-.343 1.03-.343.845 0 1.313.671 1.313 1.421 0 .688-.375 1.375-1.078 2.079l-2 2.046c-.14.11-.14.141-.14.344V0h4.28Zm0 0"/><path id="c" d="M5.25-1.797c0-.547-.297-1.406-1.734-1.719.687-.203 1.406-.765 1.406-1.625 0-.765-.75-1.39-2.156-1.39-1.188 0-1.97.64-1.97 1.437 0 .422.313.703.688.703a.67.67 0 0 0 .704-.687c0-.578-.547-.688-.579-.703.344-.282.782-.36 1.094-.36.828 0 .86.641.86.97 0 .124-.016 1.437-1.047 1.5-.407.015-.438.015-.485.03-.094.016-.125.11-.125.172 0 .172.11.172.282.172h.437c1.094 0 1.094.985 1.094 1.5 0 .469 0 1.485-1.031 1.485-.266 0-.782-.047-1.266-.344C1.75-.75 2-1 2-1.406c0-.453-.312-.75-.75-.75-.422 0-.766.265-.766.765 0 .907.97 1.5 2.25 1.5 1.782 0 2.516-1 2.516-1.906m0 0"/><path id="d" d="M5.406 0v-.469h-.968v-1.094h.968v-.468h-.968V-6.22c0-.265-.016-.328-.297-.328-.22 0-.22.016-.344.172L.313-2.031v.469h2.875V-.47h-1.11V0c.375-.031 1.281-.031 1.703-.031.406 0 1.266 0 1.625.031m-2.11-2.031H.845L3.297-5.11Zm0 0"/><path id="e" d="M5.156-2c0-1.156-.797-2.078-2.265-2.078-.282 0-.813.031-1.282.344v-1.313c.282.047.391.078.72.078 1.452 0 2.374-1.125 2.374-1.375 0-.078-.016-.187-.14-.187-.032 0-.032 0-.141.047a4.3 4.3 0 0 1-1.531.28c-.75 0-1.282-.202-1.547-.28-.094-.032-.094-.047-.125-.047-.14 0-.14.11-.14.265v2.922c0 .172 0 .297.218.297.125 0 .156-.031.219-.11.39-.468.922-.562 1.328-.562.89 0 .89.875.89 1.672 0 .735 0 1.735-1.187 1.735-.25 0-.875-.063-1.297-.625.36-.016.656-.266.656-.672 0-.532-.437-.672-.672-.672-.14 0-.671.094-.671.703 0 .844.78 1.687 2.015 1.687C4.172.11 5.156-.78 5.156-2m0 0"/><path id="f" d="M5.25-2.047c0-1.39-1.016-2.125-2.219-2.125-.219 0-.781 0-1.203.766v-.188c0-1.14.219-1.562.281-1.719.25-.468.782-.828 1.391-.828.172 0 .516.032.75.266a.595.595 0 0 0-.547.61c0 .343.235.624.625.624s.625-.265.625-.64c0-.625-.422-1.25-1.469-1.25-1.359 0-3 .86-3 3.375 0 .781.079 1.578.5 2.265.47.766 1.22 1 1.922 1C4.281.11 5.25-.703 5.25-2.047m-1.36-.015c0 1 0 1.75-1.015 1.75-.516 0-.781-.391-.86-.563-.156-.312-.156-1.031-.156-1.219 0-1.25.532-1.719 1.079-1.719.953 0 .953.75.953 1.75m0 0"/><path id="g" d="M5.563-6.422H3.53c-.234 0-1.703-.047-1.844-.094-.203-.03-.218-.125-.234-.218H.984l-.343 2.53h.468c.094-.765.22-.89.266-.905.11-.063.922-.063 1.094-.063H4.14c-.172.219-.36.422-.547.64-.953 1.126-1.672 2.47-1.672 3.938 0 .703.562.703.625.703.156 0 .625-.046.625-.703v-.468c0-.47.031-.954.094-1.422.093-.672.297-1.25.656-1.657l1.547-1.796c.093-.11.093-.141.093-.485m0 0"/><path id="h" d="M5.516-.234c0-.235-.125-.235-.266-.235-.61-.015-.61-.14-.61-.375v-2.14c0-.891-.702-1.532-2.187-1.532-.562 0-1.781.047-1.781.922 0 .438.344.625.61.625.312 0 .624-.219.624-.625 0-.297-.187-.469-.218-.5a5 5 0 0 1 .718-.062c.75 0 1.11.422 1.11 1.172v.343c-.72.032-3.25.125-3.25 1.563C.266-.125 1.5.062 2.188.062c.796 0 1.265-.406 1.484-.828 0 .313 0 .766 1.047.766h.468c.204 0 .329 0 .329-.234m-2-1.157c0 .97-.922 1.094-1.172 1.094-.516 0-.906-.344-.906-.797 0-1.062 1.578-1.203 2.078-1.234Zm0 0"/><path id="i" d="M5.984-2.219c0-1.328-.937-2.265-2.39-2.265-.719 0-1.219.28-1.453.484v-2.922l-1.766.078v.469c.61 0 .688 0 .688.39V0h.468c.157-.187.328-.375.485-.562.078.078.562.625 1.453.625 1.484 0 2.515-.907 2.515-2.282m-1.28 0c0 .469 0 1.016-.25 1.406-.298.407-.75.516-1.079.516-.687 0-1.078-.547-1.187-.687v-2.5c.28-.36.75-.641 1.296-.641 1.22 0 1.22 1.203 1.22 1.906m0 0"/><path id="j" d="M4.766-1.172c0-.14-.141-.14-.235-.14-.187 0-.187.03-.25.156-.25.625-.734.812-1.234.812-1.39 0-1.39-1.453-1.39-1.922 0-.562 0-1.843 1.28-1.843.36 0 .516.015.657.046a.62.62 0 0 0-.203.47c0 .437.343.624.609.624.313 0 .64-.219.64-.625 0-.86-1.156-.922-1.734-.922C1.11-4.516.375-3.375.375-2.219.375-.89 1.313.063 2.844.063c1.625 0 1.922-1.157 1.922-1.235m0 0"/><path id="k" d="M5.984 0v-.469c-.609 0-.687 0-.687-.39v-6.063l-1.766.078v.469c.625 0 .703 0 .703.39v1.954a2.18 2.18 0 0 0-1.359-.453c-1.453 0-2.5.875-2.5 2.28 0 1.313.922 2.267 2.39 2.267.61 0 1.094-.235 1.407-.485v.485ZM4.172-1.031c-.14.187-.547.734-1.297.734-1.219 0-1.219-1.203-1.219-1.906 0-.485 0-1.016.25-1.406.297-.422.766-.516 1.078-.516.563 0 .97.313 1.188.61Zm0 0"/><path id="l" d="M4.922-1.172c0-.172-.188-.172-.234-.172-.172 0-.188.047-.25.203-.204.485-.782.797-1.422.797-1.407 0-1.422-1.328-1.422-1.828h3.015c.22 0 .313 0 .313-.265 0-.313-.063-1.047-.563-1.547-.359-.36-.89-.532-1.578-.532C1.187-4.516.313-3.484.313-2.25c0 1.344 1 2.313 2.609 2.313 1.578 0 2-1.063 2-1.235M3.984-2.5h-2.39c.015-.39.031-.812.234-1.14.266-.391.672-.516.953-.516 1.172 0 1.188 1.312 1.203 1.656m0 0"/><path id="m" d="M5.828 0v-.469h-.703L3.453-2.453 4.61-3.75c.141-.14.204-.203 1.016-.203v-.469l-.906.031-1.032-.03v.468c.141 0 .266.015.376.078-.032.063-.032.094-.079.125l-.828.938-.984-1.141h.406v-.469L1.36-4.39.266-4.42v.468h.718l1.547 1.828L1.22-.656c-.157.187-.516.187-1 .187V0l.922-.031L2.156 0v-.469c-.172 0-.36-.047-.36-.11 0 0 0-.015.063-.093l.97-1.094L3.921-.469h-.39V0l1.202-.031Zm0 0"/><path id="n" d="M5.781-3.953v-.469A13 13 0 0 1 5-4.39l-.906-.03v.468s.468 0 .468.11L4.5-3.72 3.36-1.266 2.093-3.953h.531v-.469l-1.234.031-1.125-.03v.468H.89L2.766 0 2.53.484C2.312.954 2 1.641 1.281 1.641c-.14 0-.156-.016-.234-.047.094-.032.312-.172.312-.532C1.36.734 1.125.5.781.5a.553.553 0 0 0-.562.578c0 .5.469.922 1.062.922.766 0 1.344-.625 1.625-1.187l2.14-4.563c.063-.14.095-.203.735-.203m0 0"/><path id="o" d="M4.61-2.016h-.47C4.048-1 3.89-.406 2.579-.406h-.86L4.469-4c.095-.11.11-.125.11-.219 0-.203-.14-.203-.328-.203H.594l-.11 1.734h.47c.046-1.015.359-1.374 1.39-1.374h.844L.406-.437C.312-.328.312-.312.312-.22.313 0 .454 0 .642 0h3.78Zm0 0"/><path id="p" d="M6.125 0v-.469c-.61 0-.687 0-.687-.39v-3.625l-1.813.078v.468c.61 0 .688 0 .688.391v1.906c0 .813-.516 1.344-1.235 1.344-.781 0-.812-.25-.812-.797v-3.39l-1.813.078v.468c.61 0 .688 0 .688.391v2.328c0 1.063.797 1.282 1.797 1.282.25 0 .968 0 1.421-.782v.782Zm0 0"/><path id="q" d="M5.781-3.953v-.469c-.25.016-.531.031-.781.031l-.906-.03v.468c.187 0 .468.031.468.11 0 0 0 .015-.046.109l-1.157 2.5-1.265-2.72h.531v-.468l-1.234.031-1.125-.03v.468H.89l1.75 3.75c.125.25.25.25.375.25.172 0 .28-.031.375-.25L5.047-3.75c.062-.14.094-.203.734-.203m0 0"/></defs><path fill="none" stroke="#000" stroke-miterlimit="10" stroke-width=".399" d="m30.45 14.23-2.184 8.727"/><path fill="none" stroke="#000" stroke-linecap="round" stroke-linejoin="round" stroke-miterlimit="10" stroke-width=".39899601" d="M31.04 21.719c-1.481.02-2.345.672-2.821 1.43-.067-.891-.52-1.876-1.817-2.59"/><path fill="none" stroke="#000" stroke-miterlimit="10" stroke-width=".399" d="m8.781 59.64 2.164 8.665"/><path fill="none" stroke="#000" stroke-linecap="round" stroke-linejoin="round" stroke-miterlimit="10" stroke-width=".39899601" d="M12.813 65.91c-1.301.715-1.754 1.695-1.817 2.59-.476-.758-1.34-1.414-2.824-1.434"/><path fill="none" stroke="#000" stroke-miterlimit="10" stroke-width=".399" d="m11.043 82.266-2.168 8.668"/><path fill="none" stroke="#000" stroke-linecap="round" stroke-linejoin="round" stroke-miterlimit="10" stroke-width=".39899601" d="M11.652 89.695c-1.484.02-2.347.672-2.824 1.43-.062-.89-.516-1.875-1.816-2.59"/><path fill="none" stroke="#000" stroke-miterlimit="10" stroke-width=".399" d="M20.672 36.906 13.18 45.66"/><path fill="none" stroke="#000" stroke-linecap="round" stroke-linejoin="round" stroke-miterlimit="10" stroke-width=".39897606" d="M16.215 45.793c-1.336-.645-2.399-.445-3.164.02.34-.829.375-1.907-.469-3.13"/><path fill="none" stroke="#000" stroke-miterlimit="10" stroke-width=".399" d="M26.473 36.906v8.66"/><path fill="none" stroke="#000" stroke-linecap="round" stroke-linejoin="round" stroke-miterlimit="10" stroke-width=".399" d="M28.863 43.691c-1.433.38-2.11 1.223-2.39 2.075-.278-.852-.953-1.696-2.391-2.075"/><path fill="none" stroke="#000" stroke-miterlimit="10" stroke-width=".399" d="m32.277 36.906 7.403 8.653"/><path fill="none" stroke="#000" stroke-linecap="round" stroke-linejoin="round" stroke-miterlimit="10" stroke-width=".39897606" d="M40.277 42.578c-.843 1.223-.808 2.305-.468 3.129-.766-.465-1.829-.664-3.164-.02"/><path fill="none" stroke="#000" stroke-miterlimit="10" stroke-width=".399" d="m64.71 13.254 2.368 9.476"/><path fill="none" stroke="#000" stroke-linecap="round" stroke-linejoin="round" stroke-miterlimit="10" stroke-width=".39899601" d="M68.945 20.336c-1.3.715-1.754 1.695-1.816 2.59-.477-.758-1.34-1.414-2.824-1.434"/><path fill="none" stroke="#000" stroke-miterlimit="10" stroke-width=".399" d="m70.68 37.133 2.367 9.476"/><path fill="none" stroke="#000" stroke-linecap="round" stroke-linejoin="round" stroke-miterlimit="10" stroke-width=".39899601" d="M74.914 44.21c-1.3.716-1.754 1.7-1.816 2.59-.477-.753-1.34-1.41-2.825-1.429"/><path fill="none" stroke="#000" stroke-miterlimit="10" stroke-width=".399" d="m73.145 58.61-2.368 9.476"/><path fill="none" stroke="#000" stroke-linecap="round" stroke-linejoin="round" stroke-miterlimit="10" stroke-width=".39899601" d="M73.55 66.848c-1.484.02-2.347.675-2.823 1.43-.063-.891-.516-1.876-1.817-2.59"/><path fill="none" stroke="#000" stroke-miterlimit="10" stroke-width=".399" d="m67.176 82.484-2.371 9.48"/><path fill="none" stroke="#000" stroke-linecap="round" stroke-linejoin="round" stroke-miterlimit="10" stroke-width=".39899601" d="M67.582 90.727c-1.484.02-2.348.671-2.824 1.43-.063-.891-.516-1.876-1.817-2.59"/><path fill="none" stroke="#000" stroke-miterlimit="10" stroke-width=".399" d="m98.121 13.18 2.461 9.832"/><path fill="none" stroke="#000" stroke-linecap="round" stroke-linejoin="round" stroke-miterlimit="10" stroke-width=".39899601" d="M102.445 20.613c-1.3.715-1.75 1.7-1.816 2.59-.477-.758-1.34-1.41-2.82-1.43"/><path fill="none" stroke="#000" stroke-miterlimit="10" stroke-width=".399" d="m100.676 36.852-2.457 9.832"/><path fill="none" stroke="#000" stroke-linecap="round" stroke-linejoin="round" stroke-miterlimit="10" stroke-width=".39899601" d="M100.992 45.445c-1.48.02-2.344.676-2.82 1.434-.067-.895-.52-1.875-1.817-2.594"/><path fill="none" stroke="#000" stroke-miterlimit="10" stroke-width=".399" d="m98.121 58.535 2.695 10.766"/><path fill="none" stroke="#000" stroke-linecap="round" stroke-linejoin="round" stroke-miterlimit="10" stroke-width=".39899601" d="M102.68 66.906c-1.301.715-1.75 1.696-1.817 2.59-.476-.758-1.34-1.414-2.82-1.434"/><path fill="none" stroke="#000" stroke-miterlimit="10" stroke-width=".399" d="m100.91 81.27-2.683 10.75"/><path fill="none" stroke="#000" stroke-linecap="round" stroke-linejoin="round" stroke-miterlimit="10" stroke-width=".39899601" d="M101 90.781c-1.484.02-2.348.672-2.824 1.43-.063-.89-.516-1.875-1.817-2.59"/><path fill="none" stroke="#000" stroke-miterlimit="10" stroke-width=".399" d="M25.957 14.031h12.371V.863H25.957Zm0 0"/><use xlink:href="#a" x="29.279" y="10.709"/><path fill="none" stroke="#000" stroke-miterlimit="10" stroke-width=".399" d="M20.29 36.707h12.37V23.539H20.29Zm0 0"/><use xlink:href="#b" x="23.61" y="33.386"/><path fill="none" stroke="#000" stroke-miterlimit="10" stroke-width=".399" d="M.887 59.438h12.37V46.164H.888Zm0 0"/><use xlink:href="#c" x="4.207" y="56.009"/><path fill="none" stroke="#000" stroke-miterlimit="10" stroke-width=".399" d="M6.555 82.066h12.37V68.891H6.556Zm0 0"/><use xlink:href="#d" x="9.877" y="78.746"/><path fill="none" stroke="#000" stroke-miterlimit="10" stroke-width=".399" d="M.887 104.793h12.37V91.516H.888Zm0 0"/><use xlink:href="#e" x="4.207" y="101.363"/><path fill="none" stroke="#000" stroke-miterlimit="10" stroke-width=".399" d="M20.29 59.438h12.37V46.164H20.29Zm0 0"/><use xlink:href="#f" x="23.61" y="56.009"/><path fill="none" stroke="#000" stroke-miterlimit="10" stroke-width=".399" d="M39.691 59.543h12.371V46.059h-12.37Zm0 0"/><use xlink:href="#g" x="43.014" y="56.113"/><path fill="none" stroke="#000" stroke-miterlimit="10" stroke-width=".399" d="M57.152 13.055h12.211V1.84h-12.21Zm0 0"/><use xlink:href="#h" x="60.474" y="9.673"/><path fill="none" stroke="#000" stroke-miterlimit="10" stroke-width=".399" d="M62.426 36.93H75.43V23.316H62.426Zm0 0"/><use xlink:href="#i" x="65.745" y="33.551"/><path fill="none" stroke="#000" stroke-miterlimit="10" stroke-width=".399" d="M68.73 58.406h11.73v-11.21H68.73Zm0 0"/><use xlink:href="#j" x="72.052" y="55.027"/><path fill="none" stroke="#000" stroke-miterlimit="10" stroke-width=".399" d="M62.426 82.285H75.43V68.672H62.426Zm0 0"/><use xlink:href="#k" x="65.745" y="78.905"/><path fill="none" stroke="#000" stroke-miterlimit="10" stroke-width=".399" d="M57.313 103.762h11.89V92.547h-11.89Zm0 0"/><use xlink:href="#l" x="60.633" y="100.382"/><path fill="none" stroke="#000" stroke-miterlimit="10" stroke-width=".399" d="M90.344 12.98h12.691V1.914H90.344Zm0 0"/><use xlink:href="#m" x="93.666" y="9.658"/><path fill="none" stroke="#000" stroke-miterlimit="10" stroke-width=".399" d="M96.016 36.652h12.687V23.594H96.016Zm0 0"/><use xlink:href="#n" x="99.335" y="31.339"/><path fill="none" stroke="#000" stroke-miterlimit="10" stroke-width=".399" d="M90.824 58.332h11.73V47.27h-11.73Zm0 0"/><use xlink:href="#o" x="94.144" y="55.013"/><path fill="none" stroke="#000" stroke-miterlimit="10" stroke-width=".399" d="M95.855 81.07h13.008V69.887H95.855Zm0 0"/><use xlink:href="#p" x="99.177" y="77.69"/><path fill="none" stroke="#000" stroke-miterlimit="10" stroke-width=".399" d="M90.344 103.707h12.691V92.602H90.344Zm0 0"/><use xlink:href="#q" x="93.666" y="100.347"/></svg>