<svg xmlns="http://www.w3.org/2000/svg" xmlns:xlink="http://www.w3.org/1999/xlink" width="101.976" height="73.01"><defs><path id="a" d="M16.734 0v-.89h-1.968L9.453-13.985c-.14-.375-.172-.47-.672-.47-.515 0-.562.095-.703.47L2.953-1.391c-.14.344-.14.375-.719.438-.515.062-.609.062-1.062.062h-.36V0c.532-.047 1.766-.047 2.375-.047.547 0 2.063 0 2.532.047v-.89c-.453 0-1.235 0-1.813-.22.063-.187.063-.234.094-.312l1.11-2.687h5.53l1.297 3.218H10V0c.656-.047 2.656-.047 3.453-.047.656 0 2.766 0 3.281.047m-6.468-5H5.453l2.422-5.953Zm0 0"/><path id="b" d="M15.219-3.828c0-1.953-1.703-3.375-4.203-3.563 2.968-.562 3.547-2.25 3.547-3.234 0-1.89-1.735-3.547-5.047-3.547H.813v.89H3V-.89H.813V0h9.328c3.406 0 5.078-1.844 5.078-3.828m-3.375-6.813c0 1.454-.813 2.938-3.235 2.938H5.531v-5.578h3.75c2.125 0 2.563 1.61 2.563 2.64m.578 6.782c0 1.297-.703 2.968-3.078 2.968H5.53v-6.125h4.11c2.422 0 2.78 2.22 2.78 3.157m0 0"/></defs><path fill="red" d="M8.953 64.277V7.582h85.043v56.695Zm0 0"/><use xlink:href="#a" x=".174" y="71.508"/><use xlink:href="#b" x="85.729" y="14.67" fill-opacity=".5"/></svg>