<svg xmlns="http://www.w3.org/2000/svg" width="47.63" height="10.784"><defs><clipPath id="a"><path d="M0 0h47.445v10.676H0Zm0 0"/></clipPath><clipPath id="b"><path d="M0 1h10v9.676H0Zm0 0"/></clipPath><clipPath id="c"><path d="M23 1h15v9.676H23Zm0 0"/></clipPath><clipPath id="d"><path d="M37 0h10.445v10H37Zm0 0"/></clipPath></defs><g clip-path="url(#a)"><path fill="none" stroke="#BFBFBF" stroke-miterlimit="10" stroke-width=".399" d="m2.367 8.113 14.176-5.668 14.172 5.668 14.172-5.668"/></g><g clip-path="url(#b)"><path fill="none" stroke="#000" stroke-miterlimit="10" stroke-width=".399" d="m.96 9.523 2.817-2.816m-2.816 0 2.816 2.816"/></g><path fill="none" stroke="#000" stroke-miterlimit="10" stroke-width=".399" d="m15.133 3.855 2.816-2.82m-2.816 0 2.816 2.82"/><g clip-path="url(#c)"><path fill="none" stroke="#000" stroke-miterlimit="10" stroke-width=".399" d="m29.305 9.523 2.82-2.816m-2.82 0 2.82 2.816"/></g><g clip-path="url(#d)"><path fill="none" stroke="#000" stroke-miterlimit="10" stroke-width=".399" d="m43.48 3.855 2.817-2.82m-2.817 0 2.817 2.82"/></g></svg>