<svg xmlns="http://www.w3.org/2000/svg" width="24.534" height="24.536"><defs><clipPath id="a"><path d="M0 0h24.3v24.305H0Zm0 0"/></clipPath></defs><g clip-path="url(#a)"><path fill="none" stroke="#000" stroke-miterlimit="10" stroke-width=".399" d="M23.094 12.043C23.094 5.938 18.14.984 12.035.984 5.925.984.977 5.938.977 12.043c0 6.11 4.949 11.059 11.058 11.059 6.106 0 11.059-4.95 11.059-11.059Zm0 0"/></g><path d="M10.93 8.727a2.212 2.212 0 0 0-4.426 0 2.212 2.212 0 0 0 4.426 0M17.563 8.727c0-1.223-.989-2.211-2.211-2.211-1.223 0-2.211.988-2.211 2.21 0 1.223.988 2.211 2.21 2.211 1.223 0 2.211-.988 2.211-2.21m0 0"/><path fill="red" d="M10.93 15.363a2.216 2.216 0 0 0-2.215-2.215 2.214 2.214 0 1 0 2.215 2.215m0 0"/><path fill="#00F" d="M17.563 15.363a2.21 2.21 0 0 0-2.211-2.215 2.212 2.212 0 0 0 0 4.426c1.222 0 2.21-.992 2.21-2.21m0 0"/></svg>