<svg xmlns="http://www.w3.org/2000/svg" xmlns:xlink="http://www.w3.org/1999/xlink" width="415.532" height="93.116"><defs><path id="a" d="M2.5-5.078c0-.219-.016-.219-.234-.219-.328.313-.75.5-1.5.5v.266c.218 0 .64 0 1.109-.203v4.078c0 .297-.031.39-.781.39H.812V0c.329-.031 1.016-.031 1.376-.031s1.046 0 1.374.031v-.266h-.28c-.75 0-.782-.093-.782-.39Zm0 0"/><path id="b" d="M3.89-2.547c0-.844-.078-1.36-.343-1.875-.344-.703-1-.875-1.438-.875-1 0-1.375.75-1.484.969C.344-3.75.328-2.953.328-2.547c0 .531.016 1.328.406 1.969.36.594.954.75 1.375.75.391 0 1.063-.125 1.47-.906.296-.578.312-1.297.312-1.813M2.11-.062c-.266 0-.813-.125-.985-.954-.094-.453-.094-1.203-.094-1.625 0-.546 0-1.109.094-1.546.172-.813.781-.891.984-.891.266 0 .829.14.985.86.094.437.094 1.046.094 1.577 0 .47 0 1.188-.094 1.641-.172.828-.719.938-.985.938m0 0"/><path id="c" d="M1.484-.125c0 .516-.109.984-.593 1.469-.032.031-.047.047-.047.078 0 .062.062.11.11.11.093 0 .765-.626.765-1.563 0-.5-.203-.86-.547-.86a.436.436 0 0 0-.438.438c0 .234.157.453.438.453.203 0 .312-.11.312-.125m0 0"/><path id="d" d="M1.625-1.984a.453.453 0 0 0-.453-.453A.437.437 0 0 0 .734-2a.45.45 0 0 0 .438.453c.25 0 .453-.219.453-.437m0 0"/><path id="e" d="M1.016-3.328c.203.062.406.078.609.078.14 0 .469 0 .844-.203.11-.063.469-.313.469-.438 0-.078-.047-.093-.079-.093-.015 0-.015 0-.093.03a2.5 2.5 0 0 1-.907.173c-.296 0-.609-.063-.89-.156q-.07-.047-.094-.047c-.094 0-.094.078-.094.172v1.796c0 .094 0 .172.11.172.062 0 .078-.031.109-.078.156-.187.422-.39.89-.39.735 0 .735.89.735 1.078 0 .234-.016.578-.219.828a.95.95 0 0 1-.719.312C1.281-.094.86-.312.72-.672c.297 0 .328-.234.328-.297a.304.304 0 0 0-.313-.312.303.303 0 0 0-.296.328C.438-.406.953.125 1.703.125c.828 0 1.516-.578 1.516-1.328A1.3 1.3 0 0 0 1.89-2.5c-.375 0-.688.125-.875.281Zm0 0"/><path id="f" d="M.969-1.984c.015-.297.031-.797.234-1.157.266-.468.656-.64 1.016-.64.14 0 .422.015.562.187-.219.047-.265.188-.265.297 0 .156.109.281.297.281.171 0 .28-.109.28-.296 0-.376-.265-.672-.874-.672-.938 0-1.844.812-1.844 2.093 0 1.454.672 2.016 1.469 2.016.234 0 .64-.031 1-.39.203-.188.422-.422.422-.954 0-.203-.016-.593-.375-.922-.22-.203-.485-.406-.985-.406-.422 0-.734.219-.937.563m.875 1.89C1-.094 1-1.125 1-1.359c0-.5.328-1 .875-1 .313 0 .484.125.625.312.172.235.172.516.172.828 0 .407-.016.61-.219.86-.14.172-.328.265-.61.265m0 0"/><path id="g" d="M2.672-1.89c0 .452-.031.906-.25 1.265-.156.234-.438.531-.906.531-.141 0-.47-.015-.625-.172.187-.046.234-.171.234-.28 0-.157-.11-.298-.281-.298S.547-.719.547-.53c0 .484.453.656.969.656.922 0 1.75-.844 1.75-2.094 0-1.453-.657-2.015-1.422-2.015-.766 0-1.469.562-1.469 1.343 0 .454.172.704.39.922.25.25.548.407.985.407.516 0 .797-.344.922-.579m-.89.39a.7.7 0 0 1-.626-.312C.984-2.047.97-2.297.97-2.641s0-.578.203-.828a.8.8 0 0 1 .672-.312c.812 0 .812 1.015.812 1.265 0 .532-.36 1.016-.875 1.016m0 0"/><path id="h" d="M2.14-3.797c0-.187-.015-.187-.203-.187-.39.39-1 .39-1.218.39v.235c.156 0 .562 0 .922-.172v3.015c0 .204 0 .282-.625.282h-.25V0c.328-.031.797-.031 1.125-.031s.797 0 1.125.031v-.234h-.25c-.625 0-.625-.078-.625-.282Zm0 0"/><path id="i" d="M3.219-1.125H3c-.016.094-.078.484-.156.547-.047.047-.531.047-.625.047h-1.11l.766-.625c.203-.172.734-.547.922-.735.172-.171.422-.484.422-.906 0-.75-.672-1.187-1.485-1.187-.765 0-1.296.515-1.296 1.078 0 .297.25.344.312.344a.32.32 0 0 0 .328-.329c0-.125-.078-.328-.344-.328.141-.297.5-.531.922-.531.625 0 .953.469.953.953 0 .422-.28.86-.687 1.25L.5-.25C.438-.187.438-.187.438 0H3.03Zm0 0"/><path id="j" d="M2.297-2.156c.453-.203.781-.5.781-.922 0-.594-.625-.906-1.25-.906-.672 0-1.265.406-1.265 1.015 0 .375.25.656.5.813.062.031.203.11.265.14-.39.157-.953.485-.953 1.094 0 .703.75 1.047 1.438 1.047.796 0 1.453-.484 1.453-1.14 0-.423-.25-.657-.328-.75-.126-.11-.422-.282-.641-.391M1.219-2.75c-.016-.016-.313-.172-.313-.453 0-.39.469-.578.907-.578.468 0 .937.25.937.703 0 .469-.5.703-.672.797Zm.343.86c.079.046.72.406.876.484.124.078.453.25.453.593 0 .485-.547.72-1.063.72-.547 0-1.062-.313-1.062-.829 0-.515.468-.844.797-.969m0 0"/><path id="k" d="M3.375-.984v-.235h-.703v-2.64c0-.141 0-.188-.14-.188-.11 0-.126.031-.173.094L.281-1.22v.235h1.86V-.5c0 .188 0 .266-.5.266h-.188V0c.125 0 .688-.031.953-.031.266 0 .828.031.938.031v-.234h-.172c-.5 0-.5-.078-.5-.266v-.484ZM2.172-3.391v2.172H.532Zm0 0"/><path id="l" d="M1.766-1.984c.5 0 .843.343.843.953 0 .656-.39.937-.828.937C1.61-.094 1-.125.734-.469c.235-.031.329-.187.329-.343a.33.33 0 0 0-.344-.344.34.34 0 0 0-.344.36c0 .593.656.921 1.422.921.89 0 1.469-.562 1.469-1.156 0-.438-.328-.907-1.047-1.078.484-.157.86-.547.86-1.032 0-.484-.563-.843-1.282-.843-.703 0-1.234.328-1.234.812 0 .266.203.328.328.328.156 0 .312-.094.312-.312 0-.188-.125-.297-.297-.313.282-.312.828-.312.89-.312.298 0 .688.14.688.64 0 .329-.187.907-.796.938-.11 0-.266.015-.313.015-.062.016-.125.016-.125.11s.063.094.156.094Zm0 0"/><path id="m" d="M3.297-1.906c0-.438 0-2.078-1.469-2.078S.36-2.344.36-1.906c0 .422 0 2.031 1.47 2.031 1.468 0 1.468-1.61 1.468-2.031M1.828-.062a.84.84 0 0 1-.812-.625C.922-1.031.922-1.61.922-1.984c0-.407 0-.86.094-1.188.14-.531.593-.61.812-.61.266 0 .672.126.797.579.094.312.094.75.094 1.219 0 .375 0 .984-.094 1.312a.825.825 0 0 1-.797.61m0 0"/></defs><path fill="none" stroke="#000" stroke-linecap="round" stroke-miterlimit="10" stroke-width=".399" d="M11.195 89.11h3.985M11.195 4.066h3.985"/><path fill="none" stroke="#000" stroke-miterlimit="10" stroke-width=".399" d="M13.187 89.11V4.468"/><path fill="none" stroke="#000" stroke-linecap="round" stroke-linejoin="round" stroke-miterlimit="10" stroke-width=".399" d="M10.797 6.34c1.433-.38 2.113-1.223 2.39-2.07.282.847.958 1.69 2.391 2.07"/><path fill="none" stroke="#000" stroke-linecap="round" stroke-miterlimit="10" stroke-width=".399" d="M51.047 89.11h3.984M51.047 46.59h3.984M51.047 4.07h3.984"/><path fill="none" stroke="#000" stroke-miterlimit="10" stroke-width=".399" d="M53.04 89.11V4.468"/><path fill="none" stroke="#000" stroke-linecap="round" stroke-linejoin="round" stroke-miterlimit="10" stroke-width=".399" d="M50.648 6.34c1.434-.38 2.114-1.223 2.391-2.07.277.847.957 1.69 2.39 2.07"/><path fill="none" stroke="#000" stroke-linecap="round" stroke-miterlimit="10" stroke-width=".399" d="M90.898 89.11h3.985M90.898 60.762h3.985M90.898 32.414h3.985M90.898 4.07h3.985"/><path fill="none" stroke="#000" stroke-miterlimit="10" stroke-width=".399" d="M92.89 89.11V4.468"/><path fill="none" stroke="#000" stroke-linecap="round" stroke-linejoin="round" stroke-miterlimit="10" stroke-width=".399" d="M90.5 6.34c1.434-.38 2.11-1.223 2.39-2.07.278.847.958 1.69 2.391 2.07"/><path fill="none" stroke="#000" stroke-linecap="round" stroke-miterlimit="10" stroke-width=".399" d="M130.75 89.11h3.984M130.75 67.848h3.984M130.75 46.59h3.984M130.75 25.328h3.984M130.75 4.066h3.984"/><path fill="none" stroke="#000" stroke-miterlimit="10" stroke-width=".399" d="M132.742 89.11V4.468"/><path fill="none" stroke="#000" stroke-linecap="round" stroke-linejoin="round" stroke-miterlimit="10" stroke-width=".399" d="M130.352 6.34c1.433-.38 2.109-1.223 2.39-2.07.278.847.957 1.69 2.39 2.07"/><path fill="none" stroke="#000" stroke-linecap="round" stroke-miterlimit="10" stroke-width=".399" d="M170.602 89.11h3.984M170.602 72.102h3.984M170.602 55.094h3.984M170.602 38.086h3.984M170.602 21.078h3.984M170.602 4.07h3.984"/><path fill="none" stroke="#000" stroke-miterlimit="10" stroke-width=".399" d="M172.594 89.11V4.468"/><path fill="none" stroke="#000" stroke-linecap="round" stroke-linejoin="round" stroke-miterlimit="10" stroke-width=".399" d="M170.203 6.34c1.434-.38 2.11-1.223 2.39-2.07.278.847.954 1.69 2.391 2.07"/><path fill="none" stroke="#000" stroke-linecap="round" stroke-miterlimit="10" stroke-width=".399" d="M210.45 89.11h3.988M210.45 63.598h3.988M210.45 38.086h3.988M210.45 12.574h3.988"/><path fill="none" stroke="#000" stroke-miterlimit="10" stroke-width=".399" d="M212.445 89.11V4.468"/><path fill="none" stroke="#000" stroke-linecap="round" stroke-linejoin="round" stroke-miterlimit="10" stroke-width=".399" d="M210.05 6.34c1.438-.38 2.114-1.223 2.395-2.07.278.847.953 1.69 2.39 2.07"/><path fill="none" stroke="#000" stroke-linecap="round" stroke-miterlimit="10" stroke-width=".399" d="M250.3 89.11h3.985M250.3 63.598h3.985M250.3 38.086h3.985M250.3 12.574h3.985"/><path fill="none" stroke="#000" stroke-miterlimit="10" stroke-width=".399" d="M252.293 89.11V4.468"/><path fill="none" stroke="#000" stroke-linecap="round" stroke-linejoin="round" stroke-miterlimit="10" stroke-width=".399" d="M249.902 6.34c1.438-.38 2.114-1.223 2.391-2.07.281.847.957 1.69 2.394 2.07"/><path fill="none" stroke="#000" stroke-linecap="round" stroke-miterlimit="10" stroke-width=".399" d="M290.152 89.11h3.985M290.152 72.102h3.985M290.152 55.094h3.985M290.152 38.086h3.985M290.152 21.078h3.985M290.152 4.07h3.985"/><path fill="none" stroke="#000" stroke-miterlimit="10" stroke-width=".399" d="M292.145 89.11V4.468"/><path fill="none" stroke="#000" stroke-linecap="round" stroke-linejoin="round" stroke-miterlimit="10" stroke-width=".399" d="M289.754 6.34c1.433-.38 2.113-1.223 2.39-2.07.282.847.958 1.69 2.391 2.07"/><path fill="none" stroke="#000" stroke-linecap="round" stroke-miterlimit="10" stroke-width=".399" d="M330.004 89.11h3.984M330.004 67.848h3.984M330.004 46.59h3.984M330.004 25.328h3.984M330.004 4.066h3.984"/><path fill="none" stroke="#000" stroke-miterlimit="10" stroke-width=".399" d="M331.996 89.11V4.468"/><path fill="none" stroke="#000" stroke-linecap="round" stroke-linejoin="round" stroke-miterlimit="10" stroke-width=".399" d="M329.605 6.34c1.434-.38 2.114-1.223 2.391-2.07.281.847.957 1.69 2.39 2.07"/><path fill="none" stroke="#000" stroke-linecap="round" stroke-miterlimit="10" stroke-width=".399" d="M369.855 89.11h3.985M369.855 72.102h3.985M369.855 55.094h3.985M369.855 38.086h3.985M369.855 21.078h3.985M369.855 4.07h3.985"/><path fill="none" stroke="#000" stroke-miterlimit="10" stroke-width=".399" d="M371.848 89.11V4.468"/><path fill="none" stroke="#000" stroke-linecap="round" stroke-linejoin="round" stroke-miterlimit="10" stroke-width=".399" d="M369.457 6.34c1.434-.38 2.113-1.223 2.39-2.07.278.847.958 1.69 2.391 2.07"/><path fill="none" stroke="#000" stroke-linecap="round" stroke-miterlimit="10" stroke-width=".399" d="M409.707 89.11h3.984M409.707 63.598h3.984M409.707 38.086h3.984M409.707 12.574h3.984"/><path fill="none" stroke="#000" stroke-miterlimit="10" stroke-width=".399" d="M411.7 89.11V4.468"/><path fill="none" stroke="#000" stroke-linecap="round" stroke-linejoin="round" stroke-miterlimit="10" stroke-width=".399" d="M409.309 6.34c1.433-.38 2.109-1.223 2.39-2.07.278.847.957 1.69 2.39 2.07"/><use xlink:href="#a" x="4.304" y="91.677"/><use xlink:href="#a" x=".07" y="6.638"/><use xlink:href="#b" x="4.305" y="6.638"/><use xlink:href="#a" x="44.155" y="91.677"/><use xlink:href="#a" x="39.921" y="49.158"/><use xlink:href="#b" x="44.156" y="49.158"/><use xlink:href="#a" x="35.687" y="6.638"/><use xlink:href="#b" x="39.922" y="6.638"/><use xlink:href="#b" x="44.156" y="6.638"/><use xlink:href="#a" x="84.006" y="91.677"/><use xlink:href="#a" x="79.771" y="63.331"/><use xlink:href="#b" x="84.006" y="63.331"/><use xlink:href="#a" x="75.537" y="34.984"/><use xlink:href="#b" x="79.772" y="34.984"/><use xlink:href="#b" x="84.006" y="34.984"/><use xlink:href="#a" x="68.951" y="5.863"/><use xlink:href="#c" x="73.185" y="5.863"/><use xlink:href="#b" x="75.537" y="5.863"/><use xlink:href="#b" x="79.772" y="5.863"/><use xlink:href="#b" x="84.006" y="5.863"/><use xlink:href="#a" x="123.856" y="91.677"/><use xlink:href="#a" x="119.622" y="70.417"/><use xlink:href="#b" x="123.857" y="70.417"/><use xlink:href="#a" x="115.388" y="49.157"/><use xlink:href="#b" x="119.623" y="49.157"/><use xlink:href="#b" x="123.857" y="49.157"/><use xlink:href="#a" x="108.801" y="27.122"/><use xlink:href="#c" x="113.035" y="27.122"/><use xlink:href="#b" x="115.388" y="27.122"/><use xlink:href="#b" x="119.623" y="27.122"/><use xlink:href="#b" x="123.857" y="27.122"/><use xlink:href="#a" x="104.567" y="5.863"/><use xlink:href="#b" x="108.802" y="5.863"/><use xlink:href="#c" x="113.035" y="5.863"/><use xlink:href="#b" x="115.388" y="5.863"/><use xlink:href="#b" x="119.623" y="5.863"/><use xlink:href="#b" x="123.857" y="5.863"/><use xlink:href="#a" x="163.707" y="91.677"/><use xlink:href="#a" x="159.472" y="74.669"/><use xlink:href="#b" x="163.707" y="74.669"/><use xlink:href="#a" x="155.238" y="57.661"/><use xlink:href="#b" x="159.473" y="57.661"/><use xlink:href="#b" x="163.707" y="57.661"/><use xlink:href="#a" x="148.652" y="39.879"/><use xlink:href="#c" x="152.886" y="39.879"/><use xlink:href="#b" x="155.238" y="39.879"/><use xlink:href="#b" x="159.473" y="39.879"/><use xlink:href="#b" x="163.707" y="39.879"/><use xlink:href="#a" x="144.418" y="22.871"/><use xlink:href="#b" x="148.653" y="22.871"/><use xlink:href="#c" x="152.886" y="22.871"/><use xlink:href="#b" x="155.238" y="22.871"/><use xlink:href="#b" x="159.473" y="22.871"/><use xlink:href="#b" x="163.707" y="22.871"/><use xlink:href="#a" x="144.971" y="7.402"/><use xlink:href="#d" x="151.087" y="7.402"/><use xlink:href="#a" x="155.321" y="7.402"/><use xlink:href="#b" x="159.556" y="7.402"/><use xlink:href="#e" x="163.79" y="4.589"/><use xlink:href="#a" x="203.557" y="91.677"/><use xlink:href="#a" x="188.502" y="65.39"/><use xlink:href="#c" x="192.737" y="65.39"/><use xlink:href="#b" x="195.089" y="65.39"/><use xlink:href="#b" x="199.324" y="65.39"/><use xlink:href="#b" x="203.558" y="65.39"/><use xlink:href="#a" x="184.822" y="41.418"/><use xlink:href="#d" x="190.938" y="41.418"/><use xlink:href="#a" x="195.172" y="41.418"/><use xlink:href="#b" x="199.407" y="41.418"/><use xlink:href="#f" x="203.64" y="38.605"/><use xlink:href="#a" x="184.822" y="15.906"/><use xlink:href="#d" x="190.938" y="15.906"/><use xlink:href="#a" x="195.172" y="15.906"/><use xlink:href="#b" x="199.407" y="15.906"/><use xlink:href="#g" x="203.64" y="13.093"/><use xlink:href="#a" x="243.408" y="91.677"/><use xlink:href="#a" x="224.672" y="66.93"/><use xlink:href="#d" x="230.788" y="66.93"/><use xlink:href="#a" x="235.023" y="66.93"/><use xlink:href="#b" x="239.258" y="66.93"/><use xlink:href="#f" x="243.491" y="64.117"/><use xlink:href="#a" x="221.019" y="41.418"/><use xlink:href="#d" x="227.135" y="41.418"/><use xlink:href="#a" x="231.37" y="41.418"/><use xlink:href="#b" x="235.605" y="41.418"/><use xlink:href="#h" x="239.838" y="38.605"/><use xlink:href="#i" x="243.491" y="38.605"/><use xlink:href="#a" x="221.019" y="15.906"/><use xlink:href="#d" x="227.135" y="15.906"/><use xlink:href="#a" x="231.37" y="15.906"/><use xlink:href="#b" x="235.605" y="15.906"/><use xlink:href="#h" x="239.838" y="13.093"/><use xlink:href="#j" x="243.491" y="13.093"/><use xlink:href="#a" x="283.258" y="91.677"/><use xlink:href="#a" x="264.523" y="75.434"/><use xlink:href="#d" x="270.639" y="75.434"/><use xlink:href="#a" x="274.873" y="75.434"/><use xlink:href="#b" x="279.108" y="75.434"/><use xlink:href="#f" x="283.342" y="72.621"/><use xlink:href="#a" x="260.87" y="58.426"/><use xlink:href="#d" x="266.986" y="58.426"/><use xlink:href="#a" x="271.22" y="58.426"/><use xlink:href="#b" x="275.455" y="58.426"/><use xlink:href="#h" x="279.689" y="55.613"/><use xlink:href="#i" x="283.342" y="55.613"/><use xlink:href="#a" x="260.87" y="41.418"/><use xlink:href="#d" x="266.986" y="41.418"/><use xlink:href="#a" x="271.22" y="41.418"/><use xlink:href="#b" x="275.455" y="41.418"/><use xlink:href="#h" x="279.689" y="38.605"/><use xlink:href="#j" x="283.342" y="38.605"/><use xlink:href="#a" x="260.87" y="24.41"/><use xlink:href="#d" x="266.986" y="24.41"/><use xlink:href="#a" x="271.22" y="24.41"/><use xlink:href="#b" x="275.455" y="24.41"/><use xlink:href="#i" x="279.689" y="21.597"/><use xlink:href="#k" x="283.342" y="21.597"/><use xlink:href="#a" x="260.87" y="7.402"/><use xlink:href="#d" x="266.986" y="7.402"/><use xlink:href="#a" x="271.22" y="7.402"/><use xlink:href="#b" x="275.455" y="7.402"/><use xlink:href="#l" x="279.689" y="4.589"/><use xlink:href="#m" x="283.342" y="4.589"/><use xlink:href="#a" x="323.109" y="91.677"/><use xlink:href="#a" x="300.721" y="71.182"/><use xlink:href="#d" x="306.837" y="71.182"/><use xlink:href="#a" x="311.071" y="71.182"/><use xlink:href="#b" x="315.306" y="71.182"/><use xlink:href="#h" x="319.539" y="68.369"/><use xlink:href="#m" x="323.192" y="68.369"/><use xlink:href="#a" x="300.721" y="49.922"/><use xlink:href="#d" x="306.837" y="49.922"/><use xlink:href="#a" x="311.071" y="49.922"/><use xlink:href="#b" x="315.306" y="49.922"/><use xlink:href="#i" x="319.539" y="47.109"/><use xlink:href="#m" x="323.192" y="47.109"/><use xlink:href="#a" x="300.721" y="28.662"/><use xlink:href="#d" x="306.837" y="28.662"/><use xlink:href="#a" x="311.071" y="28.662"/><use xlink:href="#b" x="315.306" y="28.662"/><use xlink:href="#l" x="319.539" y="25.849"/><use xlink:href="#m" x="323.192" y="25.849"/><use xlink:href="#a" x="300.721" y="7.402"/><use xlink:href="#d" x="306.837" y="7.402"/><use xlink:href="#a" x="311.071" y="7.402"/><use xlink:href="#b" x="315.306" y="7.402"/><use xlink:href="#k" x="319.539" y="4.589"/><use xlink:href="#m" x="323.192" y="4.589"/><use xlink:href="#a" x="362.959" y="91.677"/><use xlink:href="#a" x="340.571" y="75.434"/><use xlink:href="#d" x="346.687" y="75.434"/><use xlink:href="#a" x="350.921" y="75.434"/><use xlink:href="#b" x="355.156" y="75.434"/><use xlink:href="#h" x="359.39" y="72.621"/><use xlink:href="#m" x="363.043" y="72.621"/><use xlink:href="#a" x="340.571" y="58.426"/><use xlink:href="#d" x="346.687" y="58.426"/><use xlink:href="#a" x="350.921" y="58.426"/><use xlink:href="#b" x="355.156" y="58.426"/><use xlink:href="#i" x="359.39" y="55.613"/><use xlink:href="#m" x="363.043" y="55.613"/><use xlink:href="#a" x="340.571" y="41.418"/><use xlink:href="#d" x="346.687" y="41.418"/><use xlink:href="#a" x="350.921" y="41.418"/><use xlink:href="#b" x="355.156" y="41.418"/><use xlink:href="#l" x="359.39" y="38.605"/><use xlink:href="#m" x="363.043" y="38.605"/><use xlink:href="#a" x="340.571" y="24.41"/><use xlink:href="#d" x="346.687" y="24.41"/><use xlink:href="#a" x="350.921" y="24.41"/><use xlink:href="#b" x="355.156" y="24.41"/><use xlink:href="#k" x="359.39" y="21.597"/><use xlink:href="#m" x="363.043" y="21.597"/><use xlink:href="#a" x="340.571" y="7.402"/><use xlink:href="#d" x="346.687" y="7.402"/><use xlink:href="#a" x="350.921" y="7.402"/><use xlink:href="#b" x="355.156" y="7.402"/><use xlink:href="#e" x="359.39" y="4.589"/><use xlink:href="#m" x="363.043" y="4.589"/><use xlink:href="#a" x="402.81" y="91.677"/><use xlink:href="#a" x="380.422" y="66.93"/><use xlink:href="#d" x="386.538" y="66.93"/><use xlink:href="#a" x="390.772" y="66.93"/><use xlink:href="#b" x="395.007" y="66.93"/><use xlink:href="#l" x="399.24" y="64.117"/><use xlink:href="#m" x="402.893" y="64.117"/><use xlink:href="#a" x="380.422" y="41.418"/><use xlink:href="#d" x="386.538" y="41.418"/><use xlink:href="#a" x="390.772" y="41.418"/><use xlink:href="#b" x="395.007" y="41.418"/><use xlink:href="#f" x="399.24" y="38.605"/><use xlink:href="#m" x="402.893" y="38.605"/><use xlink:href="#a" x="380.422" y="15.906"/><use xlink:href="#d" x="386.538" y="15.906"/><use xlink:href="#a" x="390.772" y="15.906"/><use xlink:href="#b" x="395.007" y="15.906"/><use xlink:href="#g" x="399.24" y="13.093"/><use xlink:href="#m" x="402.893" y="13.093"/></svg>