<svg xmlns="http://www.w3.org/2000/svg" xmlns:xlink="http://www.w3.org/1999/xlink" width="73.234" height="70.526"><defs><clipPath id="b"><path d="M0 54h16v16.29H0Zm0 0"/></clipPath><clipPath id="c"><path d="M47 11h25.852v31H47Zm0 0"/></clipPath><clipPath id="e"><path d="M23 54h22v16.29H23Zm0 0"/></clipPath><path id="a" d="M5.516-.234c0-.235-.125-.235-.266-.235-.61-.015-.61-.14-.61-.375v-2.14c0-.891-.702-1.532-2.187-1.532-.562 0-1.781.047-1.781.922 0 .438.344.625.61.625.312 0 .624-.219.624-.625 0-.297-.187-.469-.218-.5a5 5 0 0 1 .718-.062c.75 0 1.11.422 1.11 1.172v.343c-.72.032-3.25.125-3.25 1.563C.266-.125 1.5.062 2.188.062c.796 0 1.265-.406 1.484-.828 0 .313 0 .766 1.047.766h.468c.204 0 .329 0 .329-.234m-2-1.157c0 .97-.922 1.094-1.172 1.094-.516 0-.906-.344-.906-.797 0-1.062 1.578-1.203 2.078-1.234Zm0 0"/><path id="d" d="M5.984-2.219c0-1.328-.937-2.265-2.39-2.265-.719 0-1.219.28-1.453.484v-2.922l-1.766.078v.469c.61 0 .688 0 .688.39V0h.468c.157-.187.328-.375.485-.562.078.078.562.625 1.453.625 1.484 0 2.515-.907 2.515-2.282m-1.28 0c0 .469 0 1.016-.25 1.406-.298.407-.75.516-1.079.516-.687 0-1.078-.547-1.187-.687v-2.5c.28-.36.75-.641 1.296-.641 1.22 0 1.22 1.203 1.22 1.906m0 0"/></defs><path fill="none" stroke="#000" stroke-miterlimit="10" stroke-width=".399" d="m29.16 33.844-6.508 9.718"/><path fill="none" stroke="#000" stroke-linecap="round" stroke-linejoin="round" stroke-miterlimit="10" stroke-width=".39898404" d="M25.68 43.336c-1.403-.484-2.434-.16-3.14.39.241-.863.148-1.937-.833-3.05"/><path fill="none" stroke="#000" stroke-miterlimit="10" stroke-width=".399" d="M16.504 51.664 8.988 60.38"/><path fill="none" stroke="#000" stroke-linecap="round" stroke-linejoin="round" stroke-miterlimit="10" stroke-width=".39898404" d="M12.023 60.52c-1.335-.649-2.398-.454-3.164.007.344-.824.383-1.906-.457-3.129"/><path fill="none" stroke="#000" stroke-miterlimit="10" stroke-width=".399" d="m56.867 34.8-5.87 8.763"/><path fill="none" stroke="#000" stroke-linecap="round" stroke-linejoin="round" stroke-miterlimit="10" stroke-width=".39898404" d="M54.027 43.336c-1.402-.484-2.437-.16-3.14.39.242-.863.148-1.937-.832-3.05"/><path fill="none" stroke="#000" stroke-miterlimit="10" stroke-width=".399" d="m44.852 51.664-7.516 8.715"/><path fill="none" stroke="#000" stroke-linecap="round" stroke-linejoin="round" stroke-miterlimit="10" stroke-width=".39898404" d="M40.367 60.52c-1.332-.649-2.394-.454-3.164.007.348-.824.383-1.906-.453-3.129"/><path fill="none" stroke="#000" stroke-miterlimit="10" stroke-width=".399" d="m45.324 9.727-6.511 9.714"/><path fill="none" stroke="#000" stroke-linecap="round" stroke-linejoin="round" stroke-miterlimit="10" stroke-width=".39898404" d="M41.844 19.219c-1.403-.485-2.438-.16-3.14.39.241-.863.148-1.941-.833-3.054"/><path fill="none" stroke="#000" stroke-miterlimit="10" stroke-width=".399" d="m50.777 9.727 5.868 8.757"/><path fill="none" stroke="#000" stroke-linecap="round" stroke-linejoin="round" stroke-miterlimit="10" stroke-width=".39898404" d="M57.59 15.598c-.98 1.113-1.074 2.191-.832 3.054-.707-.55-1.738-.875-3.14-.39"/><path fill="none" stroke="#000" stroke-miterlimit="10" stroke-width=".399" d="M52.746 5.66c0-2.594-2.101-4.7-4.695-4.7a4.698 4.698 0 0 0 0 9.395 4.695 4.695 0 0 0 4.695-4.695ZM42.145 26.809a8.268 8.268 0 1 0-16.535 0 8.268 8.268 0 1 0 16.535 0Zm0 0"/><use xlink:href="#a" x="31.092" y="29.035"/><path fill="none" stroke="#000" stroke-miterlimit="10" stroke-width=".399" d="M24.398 47.957a4.695 4.695 0 0 0-4.695-4.695 4.698 4.698 0 0 0 0 9.395 4.7 4.7 0 0 0 4.695-4.7Zm0 0"/><g clip-path="url(#b)"><path fill="none" stroke="#000" stroke-miterlimit="10" stroke-width=".399" d="M10.227 64.383a4.698 4.698 0 1 0-9.393.005 4.698 4.698 0 0 0 9.393-.005Zm0 0"/></g><g clip-path="url(#c)"><path fill="none" stroke="#000" stroke-miterlimit="10" stroke-width=".399" d="M71.645 26.809a9.42 9.42 0 0 0-9.422-9.422c-5.203 0-9.418 4.218-9.418 9.422a9.416 9.416 0 0 0 9.418 9.418c5.203 0 9.422-4.215 9.422-9.418Zm0 0"/></g><use xlink:href="#d" x="59.04" y="30.236"/><path fill="none" stroke="#000" stroke-miterlimit="10" stroke-width=".399" d="M52.746 47.957a4.695 4.695 0 0 0-4.695-4.695 4.698 4.698 0 0 0 0 9.395 4.7 4.7 0 0 0 4.695-4.7Zm0 0"/><g clip-path="url(#e)"><path fill="none" stroke="#000" stroke-miterlimit="10" stroke-width=".399" d="M38.574 64.383a4.698 4.698 0 1 0-9.393.005 4.698 4.698 0 0 0 9.393-.005Zm0 0"/></g></svg>