<svg xmlns="http://www.w3.org/2000/svg" width="104.466" height="104.474"><defs><clipPath id="a"><path d="M0 0h104.2v104.21H0Zm0 0"/></clipPath><clipPath id="b"><path d="M0 0h103v104H0Zm0 0"/></clipPath><clipPath id="c"><path d="M102.992 51.977c0-28.18-22.844-51.024-51.027-51.024C23.785.953.94 23.797.94 51.977c0 28.183 22.844 51.027 51.024 51.027 28.183 0 51.027-22.844 51.027-51.027m0 0"/></clipPath><clipPath id="d"><path d="M0 94h103v1H0Zm0 0"/></clipPath><clipPath id="e"><path d="M102.992 51.977c0-28.18-22.844-51.024-51.027-51.024C23.785.953.94 23.797.94 51.977c0 28.183 22.844 51.027 51.024 51.027 28.183 0 51.027-22.844 51.027-51.027m0 0"/></clipPath><clipPath id="f"><path d="M9 0h1v104H9Zm0 0"/></clipPath><clipPath id="g"><path d="M102.992 51.977c0-28.18-22.844-51.024-51.027-51.024C23.785.953.94 23.797.94 51.977c0 28.183 22.844 51.027 51.024 51.027 28.183 0 51.027-22.844 51.027-51.027m0 0"/></clipPath><clipPath id="h"><path d="M0 3h101v101H0Zm0 0"/></clipPath><clipPath id="i"><path d="M102.992 51.977c0-28.18-22.844-51.024-51.027-51.024C23.785.953.94 23.797.94 51.977c0 28.183 22.844 51.027 51.024 51.027 28.183 0 51.027-22.844 51.027-51.027m0 0"/></clipPath><clipPath id="j"><path d="M25 76h16v25H25Zm0 0"/></clipPath><clipPath id="k"><path d="M102.992 51.977c0-28.18-22.844-51.024-51.027-51.024C23.785.953.94 23.797.94 51.977c0 28.183 22.844 51.027 51.024 51.027 28.183 0 51.027-22.844 51.027-51.027m0 0"/></clipPath></defs><g clip-path="url(#a)"><path fill="none" stroke="#000" stroke-miterlimit="10" stroke-width=".399" d="M102.992 51.977c0-28.18-22.844-51.024-51.027-51.024C23.785.953.94 23.797.94 51.977c0 28.183 22.844 51.027 51.024 51.027 28.183 0 51.027-22.844 51.027-51.027Zm0 0"/></g><g clip-path="url(#b)"><g clip-path="url(#c)"><path fill="none" stroke="#7F7F7F" stroke-miterlimit="10" stroke-width=".199" d="M-109.61 179.54h238.114m-238.113-42.52h238.113M-109.61 94.496h238.113m-238.113-42.52h238.113M-109.61 9.458h238.113M-75.594 213.555V-24.56m42.52 238.114V-24.56m42.52 238.114V-24.56m42.519 238.114V-24.56m42.523 238.114V-24.56"/></g></g><g clip-path="url(#d)"><g clip-path="url(#e)"><path fill="none" stroke="#000" stroke-miterlimit="10" stroke-width=".399" d="M-118.113 94.496h255.12"/></g></g><g clip-path="url(#f)"><g clip-path="url(#g)"><path fill="none" stroke="#000" stroke-miterlimit="10" stroke-width=".399" d="M9.445 222.059V-33.062"/></g></g><g clip-path="url(#h)"><g clip-path="url(#i)"><path fill="none" stroke="#000" stroke-miterlimit="10" stroke-width=".399" d="M94.488 94.496c0-46.965-38.074-85.039-85.043-85.039-46.965 0-85.039 38.074-85.039 85.04 0 46.968 38.074 85.042 85.04 85.042 46.968 0 85.042-38.074 85.042-85.043Zm0 0"/></g></g><g clip-path="url(#j)"><g clip-path="url(#k)"><path fill="none" stroke="#000" stroke-miterlimit="10" stroke-width=".399" d="M34.957 94.496a25.5 25.5 0 0 0-3.418-12.754"/></g></g></svg>