<svg xmlns="http://www.w3.org/2000/svg" width="61.948" height="78.122"><defs><clipPath id="a"><path d="M32 11h29v29H32Zm0 0"/></clipPath><clipPath id="b"><path d="M60.512 25.246c0-7.828-6.348-14.176-14.172-14.176-7.828 0-14.176 6.348-14.176 14.176s6.348 14.172 14.176 14.172c7.824 0 14.172-6.344 14.172-14.172m0 0"/></clipPath><clipPath id="c"><path d="M20 0h41.922v51H20Zm0 0"/></clipPath><clipPath id="d"><path d="M15 64h29v13H15Zm0 0"/></clipPath><clipPath id="e"><path d="M43.504 62.098c0-7.828-6.348-14.176-14.176-14.176S15.156 54.27 15.156 62.098c0 7.824 6.344 14.172 14.172 14.172s14.176-6.348 14.176-14.172m0 0"/></clipPath><clipPath id="f"><path d="M3 36h52v41.684H3Zm0 0"/></clipPath></defs><path fill="none" stroke="#000" stroke-miterlimit="10" stroke-width=".399" d="M.984 33.75h2.098v-2.102h2.102v2.102H7.28v-2.102H5.184v-2.097H7.28v-2.102h2.102v-2.097h2.097v2.097h2.102v2.102h2.098v2.097h-2.098v2.102h2.098v-2.102h2.101v2.102h2.098v-2.102H17.78v-2.097h2.098v-2.102H17.78v2.102H15.68v-2.102h-2.098v-2.097H11.48V23.25h2.102v-2.098h2.098v-2.101h2.101v2.101h2.098v-2.101H17.78v-2.098h2.098v-2.101h2.101V12.75h2.098v2.102h2.102V12.75h-2.102v-2.098h2.102V8.551h2.101V6.453h2.098v2.098h2.101v2.101h2.098v2.098H32.48v2.102h2.098V12.75h2.102v2.102h2.097v2.097h2.102v2.102h-2.102v2.101h2.102v-2.101h2.098v2.101h2.101v2.098h2.098v2.102h-2.098v2.097h-2.101v2.102h-2.098v-2.102h-2.102v2.102h2.102v2.097h-2.102v2.102h2.102v-2.102h2.098v2.102h2.101v-2.102h-2.101v-2.097h2.101v-2.102h2.098v-2.097h2.101v2.097h2.098v2.102h2.102v2.097h-2.102v2.102h2.102v-2.102h2.101v2.102h2.098"/><path fill="none" stroke="red" stroke-miterlimit="10" stroke-width=".199" d="M51.063 25.246a4.727 4.727 0 0 0-4.723-4.726 4.725 4.725 0 1 0 4.723 4.727Zm0 0"/><g clip-path="url(#a)"><g clip-path="url(#b)"><path fill="none" stroke="#000" stroke-miterlimit="10" stroke-width="1.197" d="M-89.727 50.758h6.297v-6.301h6.301v6.3h6.3v-6.3h-6.3V38.16h6.3v-6.3h6.298v-6.298h6.3v6.297h6.297v6.301h6.301v6.297h-6.3v6.3h6.3v-6.3h6.297v6.3h6.3v-6.3h-6.296V38.16h6.297v-6.3h-6.297v6.3h-6.3v-6.3h-6.302v-6.298h-6.296v-6.3h6.296V12.96h6.301V6.664h6.301v6.297h6.297V6.664h-6.297v-6.3h6.297v-6.298h6.3v-6.3h6.297v6.3h6.301v-6.3h-6.3v-6.301h6.3v-6.297h6.297v-6.3h6.3v6.3h6.302v6.297h6.297v6.3H4.762v6.301h6.297v-6.3h6.3v6.3h6.301V.363h6.297v6.301H23.66v6.297h6.297V6.664h6.3v6.297h6.298v6.3h6.3v6.298h-6.3v6.3h-6.297v6.297h-6.301V31.86H23.66v6.301h6.297v6.297H23.66v6.3h6.297v-6.3h6.3v6.3h6.298v-6.3h-6.297V38.16h6.297v-6.3h6.3v-6.301h6.301v6.3h6.297v6.301h6.3v6.297h-6.3v6.3h6.3v-6.3h6.302v6.3h6.3"/></g></g><g clip-path="url(#c)"><path fill="none" stroke="red" stroke-miterlimit="10" stroke-width=".797" d="M60.512 25.246c0-7.828-6.348-14.176-14.172-14.176-7.828 0-14.176 6.348-14.176 14.176s6.348 14.172 14.176 14.172c7.824 0 14.172-6.344 14.172-14.172Zm0 0"/></g><path fill="none" stroke="#00F" stroke-miterlimit="10" stroke-width=".199" d="M34.055 5.402a4.725 4.725 0 0 0-9.45 0 4.725 4.725 0 0 0 9.45 0Zm0 0"/><g clip-path="url(#d)"><g clip-path="url(#e)"><path fill="none" stroke="#000" stroke-miterlimit="10" stroke-width="1.197" d="M-55.71 147.137h6.3v-6.301h6.297v6.3h6.3v-6.3h-6.3v-6.297h6.3v-6.3h6.297v-6.298h6.301v6.297h6.3v6.301h6.298v6.297h-6.297v6.3h6.297v-6.3h6.3v6.3H.98v-6.3h-6.296v-6.297H.98v-6.3h-6.296v6.3h-6.301v-6.3h-6.297v-6.298h-6.3v-6.3h6.3v-6.297h6.297v-6.301h6.3v6.3H.98v-6.3h-6.296v-6.3H.98v-6.298h6.301v-6.3h6.301v6.3h6.297v-6.3h-6.297v-6.301h6.297v-6.297h6.3v-6.3h6.298v6.3h6.3v6.297h6.297v6.3h-6.297v6.301h6.297v-6.3h6.301v6.3h6.3v6.297h6.298v6.301h-6.297v6.297h6.297v-6.297h6.3v6.297h6.301v6.3h6.297v6.298h-6.297v6.3h-6.3v6.301h-6.301v-6.3h-6.297v6.3h6.297v6.297h-6.297v6.3h6.297v-6.3h6.3v6.3h6.301v-6.3h-6.3v-6.297h6.3v-6.3h6.297v-6.301h6.3v6.3h6.302v6.301h6.297v6.297h-6.297v6.3h6.297v-6.3h6.3v6.3h6.301"/></g></g><g clip-path="url(#f)"><path fill="none" stroke="#00F" stroke-miterlimit="10" stroke-width=".797" d="M43.504 62.098c0-7.828-6.348-14.176-14.176-14.176S15.156 54.27 15.156 62.098c0 7.824 6.344 14.172 14.172 14.172s14.176-6.348 14.176-14.172Zm0 0"/></g></svg>