<svg xmlns="http://www.w3.org/2000/svg" width="75.926" height="3.692"><defs><clipPath id="a"><path d="M0 0h24v3.54H0Zm0 0"/></clipPath><clipPath id="b"><path d="M23 0h30v3.54H23Zm0 0"/></clipPath><clipPath id="c"><path d="M52 0h23.89v3.54H52Zm0 0"/></clipPath></defs><g clip-path="url(#a)"><path fill="none" stroke="#000" stroke-miterlimit="10" stroke-width=".399" d="M1.074 2.3C3.945.646 6.704.646 9.578 2.3c2.871-1.655 5.629-1.655 8.504 0"/></g><g clip-path="url(#b)"><path fill="none" stroke="#000" stroke-miterlimit="10" stroke-width=".399" d="M29.418 2.3c2.875-1.655 5.633-1.655 8.504 0 2.875-1.655 5.633-1.655 8.504 0"/></g><g clip-path="url(#c)"><path fill="none" stroke="#000" stroke-miterlimit="10" stroke-width=".399" d="M57.766 2.3c2.87-1.655 5.632-1.655 8.504 0 2.87-1.655 5.632-1.655 8.503 0"/></g></svg>