<svg xmlns="http://www.w3.org/2000/svg" xmlns:xlink="http://www.w3.org/1999/xlink" width="73.532" height="43.832"><defs><path id="a" d="M3.719-3.766c-.188-.375-.469-.64-.922-.64-1.156 0-2.39 1.468-2.39 2.922C.406-.547.952.109 1.718.109c.203 0 .703-.046 1.297-.75a.91.91 0 0 0 .906.75c.36 0 .578-.234.75-.546a6.5 6.5 0 0 0 .297-.985c0-.11-.094-.11-.125-.11-.094 0-.11.048-.14.188-.173.64-.345 1.235-.75 1.235-.282 0-.298-.266-.298-.453 0-.22.016-.313.125-.75.11-.407.125-.516.219-.891l.36-1.39c.062-.282.062-.298.062-.344 0-.172-.11-.266-.281-.266-.25 0-.391.219-.422.437m-.64 2.579c-.063.187-.063.203-.204.375-.437.546-.844.703-1.125.703-.5 0-.64-.547-.64-.938 0-.5.312-1.719.546-2.187.313-.578.75-.953 1.157-.953.64 0 .78.812.78.875a.6.6 0 0 1-.03.171Zm0 0"/><path id="b" d="M2.469-2.516c.547-.265.89-.593.89-1.078 0-.672-.703-1.031-1.375-1.031-.765 0-1.39.5-1.39 1.156 0 .328.156.563.281.703.125.157.172.188.578.422-.39.172-1.078.547-1.078 1.281 0 .766.797 1.204 1.594 1.204.89 0 1.61-.563 1.61-1.313 0-.469-.267-.86-.673-1.094-.094-.062-.328-.187-.437-.25m-1.125-.656c-.188-.11-.375-.297-.375-.562 0-.438.5-.688 1-.688.547 0 1.031.344 1.031.828 0 .625-.734.938-.734.938-.016 0-.032 0-.079-.031Zm.328.969.969.547c.172.11.515.312.515.718 0 .532-.578.86-1.172.86-.64 0-1.187-.422-1.187-.984 0-.516.375-.922.875-1.141m0 0"/><path id="c" d="M2.328-4.437c0-.188 0-.188-.203-.188-.453.438-1.078.438-1.36.438v.25c.157 0 .626 0 1-.188v3.547c0 .234 0 .328-.687.328H.812V0c.125 0 .985-.031 1.235-.031.219 0 1.094.031 1.25.031v-.25H3.03c-.703 0-.703-.094-.703-.328Zm0 0"/><path id="d" d="M1.047-2.281c0-.563.047-1.078.312-1.516.235-.375.61-.625 1.063-.625.203 0 .484.047.625.234-.172.016-.328.141-.328.344a.32.32 0 0 0 .328.328c.219 0 .344-.14.344-.343 0-.407-.297-.766-.985-.766-1 0-2.031.922-2.031 2.422C.375-.406 1.219.14 2 .14c.844 0 1.578-.657 1.578-1.563 0-.89-.703-1.547-1.515-1.547-.563 0-.86.375-1.016.688M2-.078c-.36 0-.625-.203-.781-.516-.094-.203-.157-.562-.157-.968 0-.688.407-1.204.97-1.204.312 0 .53.125.702.375.172.266.172.563.172.97 0 .39 0 .687-.187.968A.82.82 0 0 1 2-.078m0 0"/><path id="e" d="M1.906-2.328c.547 0 .938.375.938 1.125 0 .86-.516 1.125-.906 1.125-.282 0-.907-.078-1.188-.5.328 0 .406-.235.406-.39 0-.22-.172-.376-.39-.376a.38.38 0 0 0-.391.407C.375-.281 1.094.14 1.938.14c.968 0 1.64-.657 1.64-1.344 0-.547-.437-1.094-1.203-1.25.719-.266.984-.781.984-1.219 0-.547-.625-.953-1.406-.953-.766 0-1.36.375-1.36.938 0 .234.157.359.36.359.219 0 .36-.156.36-.344 0-.203-.141-.36-.36-.375.25-.297.719-.375.985-.375.312 0 .75.156.75.75 0 .297-.094.625-.282.828-.219.266-.422.281-.765.313-.172.015-.188.015-.22.015-.015 0-.077.016-.077.094 0 .094.062.094.187.094Zm0 0"/><path id="f" d="M1.078-3.89c.36.093.563.093.672.093.922 0 1.469-.625 1.469-.734 0-.078-.047-.094-.078-.094-.016 0-.032 0-.063.016-.172.062-.531.203-1.047.203-.203 0-.562-.016-1.015-.188-.079-.031-.094-.031-.094-.031-.094 0-.094.078-.094.188v2.046c0 .125 0 .204.11.204.062 0 .078 0 .14-.094.297-.375.734-.438.969-.438.422 0 .61.328.64.39.126.235.172.5.172.907 0 .203 0 .61-.218.922a.98.98 0 0 1-.813.422c-.453 0-.922-.25-1.094-.719.266.016.407-.156.407-.344 0-.296-.266-.343-.36-.343 0 0-.343 0-.343.375 0 .625.578 1.25 1.406 1.25.89 0 1.672-.657 1.672-1.547 0-.782-.594-1.5-1.453-1.5-.313 0-.672.062-.985.328Zm0 0"/><path id="g" d="M3.734-4.203c.063-.094.063-.11.063-.281H1.969c-.282 0-.36-.016-.61-.032C1-4.546.984-4.594.97-4.703H.734L.484-3.22H.72c.015-.11.094-.562.203-.64.047-.032.625-.032.719-.032h1.515c-.219.282-.578.72-.719.922-.906 1.188-1 2.297-1 2.703 0 .079 0 .407.329.407.343 0 .343-.313.343-.407v-.28c0-1.345.282-1.97.579-2.345Zm0 0"/><path id="h" d="M3.688-1.14v-.25h-.782V-4.5c0-.14 0-.203-.14-.203-.094 0-.125 0-.188.11L.266-1.392v.25h2.062v.563c0 .25 0 .328-.578.328h-.187V0c.359-.016.796-.031 1.046-.031.266 0 .704.015 1.063.031v-.25h-.188c-.578 0-.578-.078-.578-.328v-.563ZM2.375-3.939v2.547H.531Zm0 0"/><path id="i" d="M2.906-2.078c0 1.734-.844 2-1.265 2-.157 0-.532-.016-.72-.234a.315.315 0 0 0 .313-.329.32.32 0 0 0-.328-.328c-.203 0-.328.14-.328.344 0 .469.39.766 1.063.766 1 0 1.937-.938 1.937-2.438 0-1.719-.765-2.328-1.578-2.328a1.55 1.55 0 0 0-1.11.422c-.234.234-.515.5-.515 1.125 0 .89.703 1.547 1.516 1.547.562 0 .859-.375 1.015-.688Zm-.969.344c-.28 0-.53-.079-.734-.407-.156-.25-.156-.546-.156-.937 0-.406 0-.672.203-.953.172-.25.39-.39.75-.39s.578.218.688.405c.187.282.203.782.203 1.016 0 .906-.516 1.266-.953 1.266m0 0"/><path id="j" d="M3.516-1.266H3.28c-.015.157-.094.563-.187.625-.047.047-.578.047-.688.047H1.125c.734-.64.984-.843 1.39-1.172.516-.406 1-.843 1-1.5 0-.843-.734-1.359-1.624-1.359-.86 0-1.453.61-1.453 1.25 0 .344.296.39.375.39.156 0 .359-.124.359-.374 0-.125-.047-.375-.406-.375.218-.485.687-.641 1.015-.641.703 0 1.063.547 1.063 1.11 0 .609-.438 1.078-.656 1.328L.516-.266C.437-.203.437-.187.437 0h2.876Zm0 0"/><path id="k" d="M3.734 17.64c.22 0 .266 0 .266-.14.031-6.984.828-12.781 4.328-17.656.063-.094.063-.11.063-.14 0-.095-.063-.095-.22-.095-.171 0-.187 0-.202.016-.047.031-1.313 1.484-2.313 3.5-1.312 2.625-2.14 5.64-2.515 9.281a50 50 0 0 0-.235 4.735v.39c0 .11.063.11.281.11Zm0 0"/><path id="l" d="M4 .172c0-.266 0-.266-.266-.266h-.546c-.282 0-.282 0-.282.266v5.64c0 .266 0 .266.281.266h.547c.266 0 .266 0 .266-.266Zm0 0"/><path id="m" d="M3.188-.5c-.22 0-.282 0-.282.11V0c0 6.094 1.078 9.656 1.39 10.672.673 2.203 1.782 4.547 3.454 6.594.14.187.188.234.219.25s.031.015.203.015c.156 0 .219 0 .219-.093 0-.016 0-.047-.063-.125C5.016 12.703 4.016 7.156 4-.36 4-.5 3.953-.5 3.734-.5Zm0 0"/><path id="n" d="M3.828 8.797c0 .265.016.281.281.281h.641c.266 0 .281-.015.281-.281V4.516c0-1.47-.781-3.344-2.922-4.5h-.14c-.266 0-.282 0-.282.234 0 .172.016.188.063.219.297.234 1.016.734 1.484 1.656.282.531.594 1.313.594 2.39Zm0 0"/><path id="o" d="M5.031.172c0-.266-.015-.266-.281-.266h-.64c-.266 0-.282 0-.282.266v2.656c0 .25.016.266.281.266h.641c.266 0 .281-.016.281-.266Zm0 0"/><path id="p" d="M5.031 13.563c0-.844.172-2.922 2-4.313.11-.094.125-.094.125-.281 0-.172-.015-.188-.125-.281A4.6 4.6 0 0 1 5.61 6.953a5.8 5.8 0 0 1-.578-2.562V.17c0-.265-.015-.265-.281-.265h-.64c-.266 0-.282 0-.282.266v4.203c0 1.203.516 3.234 2.735 4.594-2.25 1.375-2.735 3.422-2.735 4.594v4.218c0 .25.016.266.281.266h.641c.266 0 .281-.016.281-.266Zm0 0"/><path id="q" d="M3.828 4.453c0 .875-.234 2.75-2 3.984-.125.094-.14.11-.14.282 0 .234.015.25.28.25h.141c2.157-1.156 2.922-3.047 2.922-4.516V.172c0-.266-.015-.266-.281-.266h-.64c-.266 0-.282 0-.282.266Zm0 0"/></defs><use xlink:href="#a" x="14.621" y="10.804"/><use xlink:href="#b" x="19.887" y="12.298"/><use xlink:href="#a" x="30.998" y="10.804"/><use xlink:href="#c" x="36.264" y="12.298"/><use xlink:href="#a" x="47.374" y="10.804"/><use xlink:href="#d" x="52.64" y="12.298"/><use xlink:href="#a" x="14.621" y="23.229"/><use xlink:href="#e" x="19.887" y="24.723"/><use xlink:href="#a" x="30.998" y="23.229"/><use xlink:href="#f" x="36.264" y="24.723"/><use xlink:href="#a" x="47.374" y="23.229"/><use xlink:href="#g" x="52.64" y="24.723"/><use xlink:href="#a" x="14.621" y="35.654"/><use xlink:href="#h" x="19.887" y="37.148"/><use xlink:href="#a" x="30.998" y="35.654"/><use xlink:href="#i" x="36.264" y="37.148"/><use xlink:href="#a" x="47.374" y="35.654"/><use xlink:href="#j" x="52.64" y="37.148"/><use xlink:href="#k" x="-2.132" y="1.308"/><use xlink:href="#l" x="-2.132" y="18.842"/><use xlink:href="#m" x="-2.132" y="25.218"/><use xlink:href="#n" x="65.146" y=".909"/><use xlink:href="#o" x="65.146" y="9.876"/><use xlink:href="#p" x="65.146" y="12.865"/><use xlink:href="#o" x="65.146" y="30.798"/><use xlink:href="#q" x="65.146" y="33.786"/></svg>