<svg xmlns="http://www.w3.org/2000/svg" xmlns:xlink="http://www.w3.org/1999/xlink" width="50.132" height="14.078"><defs><clipPath id="a"><path d="M0 0h49.7v13.617H0Zm0 0"/></clipPath><path id="b" d="M5.984-2.219c0-1.328-.906-2.265-2.343-2.265-.75 0-1.282.312-1.5.484v-.484l-1.766.078v.468c.61 0 .688 0 .688.376v5.03H.375v.47l1.25-.032 1.25.032v-.47h-.687V-.39a2 2 0 0 0 1.28.454c1.5 0 2.516-.907 2.516-2.282m-1.28 0C4.703-.813 4-.297 3.358-.297c-.14 0-.609 0-1.062-.547-.11-.125-.11-.14-.11-.328v-2.11c0-.187.016-.202.157-.343.39-.406.922-.469 1.14-.469.657 0 1.22.61 1.22 1.875m0 0"/></defs><g clip-path="url(#a)"><path fill="none" stroke="#BFBFBF" stroke-miterlimit="10" stroke-width=".399" d="m3.39 9.41 14.173-5.668L31.734 9.41 45.91 3.742"/></g><use xlink:href="#b" x=".206" y="10.685" fill="#D2C92A"/><use xlink:href="#b" x="14.379" y="5.016" fill="#D2C92A"/><use xlink:href="#b" x="28.552" y="10.685" fill="#D2C92A"/><use xlink:href="#b" x="42.726" y="5.016" fill="#D2C92A"/></svg>