<svg xmlns="http://www.w3.org/2000/svg" width="49.722" height="30.764"><defs><clipPath id="a"><path d="M0 0h49.582v30.645H0Zm0 0"/></clipPath></defs><path fill="red" fill-rule="evenodd" d="M29.219 15.273c0-7.828-6.348-14.175-14.176-14.175S.871 7.445.871 15.273s6.344 14.172 14.172 14.172 14.176-6.343 14.176-14.172m14.172 0c0-7.828-6.348-14.175-14.172-14.175-7.828 0-14.176 6.347-14.176 14.175s6.348 14.172 14.176 14.172c7.824 0 14.172-6.343 14.172-14.172m0 0"/><g clip-path="url(#a)"><path fill="none" stroke="#000" stroke-miterlimit="10" stroke-width=".399" d="M34.2 15.273c0-7.828-6.348-14.175-14.177-14.175S5.852 7.445 5.852 15.273s6.343 14.172 14.171 14.172c7.829 0 14.176-6.343 14.176-14.172Zm14.171 0c0-7.828-6.344-14.175-14.172-14.175S20.023 7.445 20.023 15.273 26.371 29.445 34.2 29.445s14.172-6.343 14.172-14.172Zm0 0"/></g></svg>