<svg xmlns="http://www.w3.org/2000/svg" width="115.418" height="115.4"><defs><clipPath id="a"><path d="M.727 23h113.386v69H.727Zm0 0"/></clipPath><clipPath id="b"><path d="M23 .7h69v113.386H23Zm0 0"/></clipPath></defs><g clip-path="url(#a)"><path fill="none" stroke="#000" stroke-miterlimit="10" stroke-width=".399" d="M.727 85.738c283.468 0-170.082-56.691 113.386-56.691"/></g><g clip-path="url(#b)"><path fill="none" stroke="#000" stroke-miterlimit="10" stroke-width=".399" d="M29.074 114.086c0-283.469 56.692 170.082 56.692-113.387"/></g><path d="M31.281 85.527a1.994 1.994 0 0 0-3.988 0c0 1.098.895 1.993 1.992 1.993a1.996 1.996 0 0 0 1.996-1.993m28.14-28.144a1.99 1.99 0 0 0-1.991-1.992 1.99 1.99 0 0 0-1.992 1.992 1.99 1.99 0 0 0 1.992 1.992 1.99 1.99 0 0 0 1.992-1.992m0 0"/></svg>