<svg xmlns="http://www.w3.org/2000/svg" xmlns:xlink="http://www.w3.org/1999/xlink" width="169.562" height="107.228"><defs><path id="g" d="M3.89-2.547c0-.844-.078-1.36-.343-1.875-.344-.703-1-.875-1.438-.875-1 0-1.375.75-1.484.969C.344-3.75.328-2.953.328-2.547c0 .531.016 1.328.406 1.969.36.594.954.75 1.375.75.391 0 1.063-.125 1.47-.906.296-.578.312-1.297.312-1.813M2.11-.062c-.266 0-.813-.125-.985-.954-.094-.453-.094-1.203-.094-1.625 0-.546 0-1.109.094-1.546.172-.813.781-.891.984-.891.266 0 .829.14.985.86.094.437.094 1.046.094 1.577 0 .47 0 1.188-.094 1.641-.172.828-.719.938-.985.938m0 0"/><path id="h" d="M2.5-5.078c0-.219-.016-.219-.234-.219-.328.313-.75.5-1.5.5v.266c.218 0 .64 0 1.109-.203v4.078c0 .297-.031.39-.781.39H.812V0c.329-.031 1.016-.031 1.376-.031s1.046 0 1.374.031v-.266h-.28c-.75 0-.782-.093-.782-.39Zm0 0"/><path id="i" d="M2.25-1.625c.125-.125.453-.39.594-.5.484-.453.953-.89.953-1.61 0-.953-.797-1.562-1.781-1.562-.97 0-1.594.719-1.594 1.438 0 .39.312.437.422.437.172 0 .422-.11.422-.422 0-.406-.407-.406-.5-.406.234-.594.765-.781 1.156-.781.734 0 1.125.625 1.125 1.297 0 .828-.578 1.437-1.531 2.39l-1 1.047C.422-.219.422-.203.422 0h3.14l.235-1.422h-.25c-.016.156-.078.547-.172.703-.047.063-.656.063-.781.063H1.172Zm0 0"/><path id="j" d="M2.016-2.656c.625 0 1.03.453 1.03 1.297 0 1-.562 1.28-.983 1.28-.438 0-1.047-.155-1.329-.577.297 0 .5-.188.5-.438 0-.265-.187-.437-.453-.437-.203 0-.437.125-.437.453 0 .75.812 1.25 1.734 1.25 1.047 0 1.797-.734 1.797-1.531 0-.672-.531-1.266-1.344-1.453.625-.22 1.11-.75 1.11-1.391 0-.64-.72-1.094-1.547-1.094-.86 0-1.5.453-1.5 1.063 0 .297.187.422.406.422.25 0 .406-.172.406-.407 0-.297-.265-.406-.437-.406.344-.437.953-.469 1.094-.469.203 0 .812.063.812.89 0 .548-.234.891-.344 1.016-.234.25-.422.266-.906.297-.156 0-.219.016-.219.125 0 .11.078.11.219.11Zm0 0"/><path id="k" d="M3.14-5.156c0-.157 0-.219-.171-.219-.094 0-.11 0-.188.11L.234-1.564v.25h2.25v.672c0 .297-.015.375-.64.375h-.172V0c.672-.031.687-.031 1.14-.031.454 0 .47 0 1.141.031v-.266h-.172c-.625 0-.64-.078-.64-.375v-.671h.843v-.25h-.843Zm-.593.64v2.954H.516Zm0 0"/><path id="l" d="M1.11-4.484c.109.03.421.125.765.125 1 0 1.594-.703 1.594-.828 0-.094-.047-.11-.094-.11-.016 0-.031 0-.094.031a3 3 0 0 1-1.11.22c-.468 0-.858-.11-1.108-.22-.079-.03-.094-.03-.11-.03-.094 0-.094.077-.094.234v2.328c0 .14 0 .234.125.234.063 0 .079-.031.125-.094.094-.11.391-.515 1.079-.515.437 0 .656.359.734.515.125.281.14.656.14.953s0 .735-.218 1.079c-.156.25-.485.484-.906.484A1.27 1.27 0 0 1 .734-.922c.016.016.079.016.079.016.218 0 .406-.14.406-.39a.39.39 0 0 0-.39-.407c-.157 0-.407.078-.407.422 0 .718.625 1.453 1.531 1.453 1 0 1.844-.781 1.844-1.766 0-.922-.672-1.75-1.61-1.75-.39 0-.765.125-1.078.406Zm0 0"/><path id="m" d="M1.094-2.64c0-.657.062-1.235.343-1.72.25-.406.657-.734 1.157-.734.156 0 .515.032.703.297-.36.031-.39.297-.39.375 0 .25.187.375.374.375.14 0 .375-.078.375-.39 0-.47-.36-.86-1.078-.86C1.468-5.297.344-4.25.344-2.53.344-.36 1.359.172 2.125.172c.39 0 .797-.11 1.156-.453.328-.313.594-.64.594-1.344 0-1.031-.797-1.766-1.672-1.766-.578 0-.922.36-1.11.75M2.125-.079a.88.88 0 0 1-.797-.516c-.187-.36-.203-.89-.203-1.203 0-.781.422-1.375 1.047-1.375.39 0 .64.203.781.485.172.296.172.656.172 1.062s0 .75-.156 1.047c-.219.36-.485.5-.844.5m0 0"/><path id="o" d="M4.031-4.86c.078-.077.078-.093.078-.265H2.08a9 9 0 0 1-.642-.031c-.421-.032-.421-.11-.453-.235h-.25L.47-3.703h.25c.015-.125.11-.672.219-.735.078-.046.687-.046.796-.046h1.688l-.813 1.109C1.703-2.172 1.5-.906 1.5-.281c0 .078 0 .453.375.453s.375-.36.375-.453v-.39c0-1.141.203-2.079.594-2.61Zm0 0"/><path id="n" d="M1.625-.437a.463.463 0 0 0-.453-.454.447.447 0 0 0-.438.438.44.44 0 0 0 .438.453.45.45 0 0 0 .453-.437m0 0"/><clipPath id="a"><path d="M159 58h10.344v15H159Zm0 0"/></clipPath><clipPath id="b"><path d="M159 45h10.344v16H159Zm0 0"/></clipPath><clipPath id="c"><path d="M159 33h10.344v15H159Zm0 0"/></clipPath><clipPath id="d"><path d="M159 20h10.344v15H159Zm0 0"/></clipPath><clipPath id="e"><path d="M159 8h10.344v15H159Zm0 0"/></clipPath><clipPath id="f"><path d="M159 0h10.344v10H159Zm0 0"/></clipPath></defs><path fill="none" stroke="#7F7F7F" stroke-linecap="round" stroke-miterlimit="10" stroke-width=".399" d="M24.77 97.895v-1.993M48.39 97.895v-1.993M72.012 97.895v-1.993M95.637 97.895v-1.993M119.258 97.895v-1.993M142.879 97.895v-1.993M166.5 97.895v-1.993M17.797 81.54h1.992M17.797 65.895h1.992M17.797 50.254h1.992M17.797 34.613h1.992M17.797 18.973h1.992M17.797 3.332h1.992"/><path fill="none" stroke="#7F7F7F" stroke-miterlimit="10" stroke-width=".399" d="M24.77 95.902h141.734"/><path fill="none" stroke="#BFBFBF" stroke-linecap="square" stroke-miterlimit="10" stroke-width=".399" d="M24.77 90.922h141.734M24.77 3.332h141.734"/><path fill="none" stroke="#7F7F7F" stroke-miterlimit="10" stroke-width=".399" d="M19.79 90.922V3.332"/><path fill="none" stroke="#BFBFBF" stroke-linecap="square" stroke-miterlimit="10" stroke-width=".399" d="M24.77 90.922V3.332M166.504 90.922V3.332"/><g clip-path="url(#a)"><path fill="none" stroke="#000" stroke-miterlimit="10" stroke-width=".399" d="M166.5 63.902v1.993m1.727.996-1.727-.996m-1.727.996 1.727-.996"/></g><g clip-path="url(#b)"><path fill="none" stroke="#000" stroke-miterlimit="10" stroke-width=".399" d="M166.5 51.39v1.993m1.727.996-1.727-.996m-1.727.996 1.727-.996"/></g><g clip-path="url(#c)"><path fill="none" stroke="#000" stroke-miterlimit="10" stroke-width=".399" d="M166.5 38.879v1.992m1.727.996-1.727-.996m-1.727.996 1.727-.996"/></g><g clip-path="url(#d)"><path fill="none" stroke="#000" stroke-miterlimit="10" stroke-width=".399" d="M166.5 26.363v1.992m1.727.997-1.727-.997m-1.727.997 1.727-.997"/></g><g clip-path="url(#e)"><path fill="none" stroke="#000" stroke-miterlimit="10" stroke-width=".399" d="M166.5 13.852v1.992m1.727.996-1.727-.996m-1.727.996 1.727-.996"/></g><g clip-path="url(#f)"><path fill="none" stroke="#000" stroke-miterlimit="10" stroke-width=".399" d="M166.5 1.34v1.992m1.727.996-1.727-.996m-1.727.996 1.727-.996"/></g><path fill="none" stroke="#000" stroke-miterlimit="10" stroke-width=".399" d="M70.02 78.41h3.988m-1.996-1.992v3.984M70.02 72.152h3.988m-1.996-1.992v3.985M70.02 65.895h3.988m-1.996-1.993v3.985M70.02 53.383h3.988m-1.996-1.992v3.984M93.645 78.41h3.984m-1.992-1.992v3.984M93.645 72.152h3.984m-1.992-1.992v3.985M93.645 65.895h3.984m-1.992-1.993v3.985M93.645 53.383h3.984m-1.992-1.992v3.984M117.266 78.41h3.984m-1.992-1.992v3.984M117.266 72.152h3.984m-1.992-1.992v3.985M117.266 65.895h3.984m-1.992-1.993v3.985M117.266 53.383h3.984m-1.992-1.992v3.984M23.36 92.332l2.82-2.82m-2.82 0 2.82 2.82M23.36 86.074l2.82-2.816m-2.82 0 2.82 2.816M23.36 79.816 26.18 77m-2.82 0 2.82 2.816"/><use xlink:href="#g" x="22.653" y="105.688"/><use xlink:href="#h" x="46.274" y="105.688"/><use xlink:href="#i" x="69.896" y="105.688"/><use xlink:href="#j" x="93.517" y="105.688"/><use xlink:href="#k" x="117.139" y="105.688"/><use xlink:href="#l" x="140.76" y="105.688"/><use xlink:href="#m" x="164.381" y="105.688"/><use xlink:href="#i" x="4.319" y="84.106"/><use xlink:href="#n" x="8.554" y="84.106"/><use xlink:href="#l" x="10.906" y="84.106"/><use xlink:href="#l" x="10.906" y="68.465"/><use xlink:href="#o" x="4.319" y="52.824"/><use xlink:href="#n" x="8.554" y="52.824"/><use xlink:href="#l" x="10.906" y="52.824"/><use xlink:href="#h" x="6.672" y="37.183"/><use xlink:href="#g" x="10.907" y="37.183"/><use xlink:href="#h" x=".085" y="21.542"/><use xlink:href="#i" x="4.32" y="21.542"/><use xlink:href="#n" x="8.554" y="21.542"/><use xlink:href="#l" x="10.906" y="21.542"/><use xlink:href="#h" x="6.672" y="5.901"/><use xlink:href="#l" x="10.907" y="5.901"/></svg>