<svg xmlns="http://www.w3.org/2000/svg" width="280.217" height="25.112"><defs><clipPath id="a"><path d="M0 0h30v24.668H0Zm0 0"/></clipPath><clipPath id="b"><path d="M23 0h35v24.668H23Zm0 0"/></clipPath><clipPath id="c"><path d="M51 0h35v24.668H51Zm0 0"/></clipPath><clipPath id="d"><path d="M80 0h35v24.668H80Zm0 0"/></clipPath><clipPath id="e"><path d="M108 0h35v24.668h-35Zm0 0"/></clipPath><clipPath id="f"><path d="M136 0h35v24.668h-35Zm0 0"/></clipPath><clipPath id="g"><path d="M165 0h35v24.668h-35Zm0 0"/></clipPath><clipPath id="h"><path d="M193 0h35v24.668h-35Zm0 0"/></clipPath><clipPath id="i"><path d="M221 0h35v24.668h-35Zm0 0"/></clipPath><clipPath id="j"><path d="M250 0h29.824v24.668H250Zm0 0"/></clipPath></defs><g clip-path="url(#a)"><path fill="none" stroke="#000" stroke-miterlimit="10" stroke-width=".399" d="M23.492 12.113c0-6.261-5.074-11.34-11.336-11.34C5.895.773.816 5.852.816 12.113S5.895 23.45 12.156 23.45s11.336-5.074 11.336-11.336Zm0 0"/></g><g clip-path="url(#b)"><path fill="none" stroke="#000" stroke-miterlimit="10" stroke-width=".399" d="M51.84 12.113c0-6.261-5.074-11.34-11.336-11.34-6.266 0-11.34 5.079-11.34 11.34s5.074 11.336 11.34 11.336c6.262 0 11.336-5.074 11.336-11.336Zm0 0"/></g><g clip-path="url(#c)"><path fill="none" stroke="#000" stroke-miterlimit="10" stroke-width=".399" d="M80.188 12.113c0-6.261-5.079-11.34-11.34-11.34s-11.336 5.079-11.336 11.34S62.586 23.45 68.848 23.45c6.261 0 11.34-5.074 11.34-11.336Zm0 0"/></g><g clip-path="url(#d)"><path fill="none" stroke="#000" stroke-miterlimit="10" stroke-width=".399" d="M108.535 12.113c0-6.261-5.078-11.34-11.34-11.34s-11.34 5.079-11.34 11.34 5.079 11.336 11.34 11.336 11.34-5.074 11.34-11.336Zm0 0"/></g><g clip-path="url(#e)"><path fill="none" stroke="#000" stroke-miterlimit="10" stroke-width=".399" d="M136.883 12.113c0-6.261-5.078-11.34-11.34-11.34s-11.34 5.079-11.34 11.34 5.078 11.336 11.34 11.336 11.34-5.074 11.34-11.336Zm0 0"/></g><g clip-path="url(#f)"><path fill="none" stroke="#000" stroke-miterlimit="10" stroke-width=".399" d="M165.227 12.113c0-6.261-5.075-11.34-11.336-11.34s-11.34 5.079-11.34 11.34 5.078 11.336 11.34 11.336 11.336-5.074 11.336-11.336Zm0 0"/></g><g clip-path="url(#g)"><path fill="none" stroke="#000" stroke-miterlimit="10" stroke-width=".399" d="M193.574 12.113c0-6.261-5.074-11.34-11.34-11.34-6.261 0-11.336 5.079-11.336 11.34s5.075 11.336 11.336 11.336c6.266 0 11.34-5.074 11.34-11.336Zm0 0"/></g><g clip-path="url(#h)"><path fill="none" stroke="#000" stroke-miterlimit="10" stroke-width=".399" d="M221.922 12.113c0-6.261-5.078-11.34-11.34-11.34s-11.336 5.079-11.336 11.34 5.074 11.336 11.336 11.336 11.34-5.074 11.34-11.336Zm0 0"/></g><g clip-path="url(#i)"><path fill="none" stroke="#000" stroke-miterlimit="10" stroke-width=".399" d="M250.27 12.113c0-6.261-5.079-11.34-11.34-11.34s-11.34 5.079-11.34 11.34 5.078 11.336 11.34 11.336 11.34-5.074 11.34-11.336Zm0 0"/></g><g clip-path="url(#j)"><path fill="none" stroke="#000" stroke-miterlimit="10" stroke-width=".399" d="M278.613 12.113c0-6.261-5.074-11.34-11.336-11.34-6.261 0-11.34 5.079-11.34 11.34s5.079 11.336 11.34 11.336 11.336-5.074 11.336-11.336Zm0 0"/></g></svg>