<svg xmlns="http://www.w3.org/2000/svg" xmlns:xlink="http://www.w3.org/1999/xlink" width="117.778" height="116.984"><defs><path id="b" d="M17.125 0v-.937h-2.14v-11.797h2.14v-.938c-.75.063-2.703.063-3.562.063-.86 0-2.813 0-3.563-.063v.938h2.156v5.172H5.75v-5.172h2.156v-.938c-.75.063-2.703.063-3.562.063-.86 0-2.813 0-3.563-.063v.938h2.14V-.937H.782V0c.75-.062 2.703-.062 3.563-.062s2.812 0 3.562.062v-.937H5.75v-5.704h6.406v5.704H10V0c.75-.062 2.703-.062 3.563-.062.859 0 2.812 0 3.562.062m0 0"/><path id="c" d="M5.703 0v-.937H4.47V-8.97L1-8.813v.938c1.172 0 1.313 0 1.313.781v6.157H.937V0L3.36-.062Zm-.969-12.094a1.54 1.54 0 0 0-1.546-1.547 1.54 1.54 0 0 0-1.547 1.547c0 .86.687 1.563 1.547 1.563s1.546-.703 1.546-1.563m0 0"/><clipPath id="a"><path d="M0 0h82v116.977H0Zm0 0"/></clipPath></defs><path fill="none" stroke="red" stroke-miterlimit="10" stroke-width="1.196" d="M30.43 86.832V30.137h56.695v56.695Zm0 0"/><path fill="none" stroke="#00F" stroke-miterlimit="10" stroke-width="2.392" d="M2.086 86.832V30.137h113.387v56.695Zm0 0"/><g clip-path="url(#a)"><path fill="none" stroke="#000" stroke-miterlimit="10" stroke-width="1.594" d="M58.777 58.484c0-31.312-12.691-56.695-28.347-56.695S2.086 27.172 2.086 58.484 14.773 115.18 30.43 115.18c15.656 0 28.347-25.383 28.347-56.696Zm0 0"/></g><use xlink:href="#b" x="18.285" y="65.318"/><use xlink:href="#c" x="36.218" y="65.318"/></svg>