<svg xmlns="http://www.w3.org/2000/svg" width="63.099" height="34.76"><defs><clipPath id="a"><path d="M0 0h62.648v34.64H0Zm0 0"/></clipPath><clipPath id="b"><path d="M0 4h62.648v30.64H0Zm0 0"/></clipPath></defs><path fill="#7F7F7F" d="M4.742 31.438a1.993 1.993 0 1 0-3.986.001 1.993 1.993 0 0 0 3.986-.002M33.086 3.09a1.993 1.993 0 1 0-3.983.002 1.993 1.993 0 0 0 3.983-.002m28.348 0a1.99 1.99 0 0 0-1.993-1.992A1.99 1.99 0 0 0 57.45 3.09a1.99 1.99 0 0 0 1.992 1.992 1.99 1.99 0 0 0 1.993-1.992m0 28.348a1.99 1.99 0 0 0-1.993-1.993 1.993 1.993 0 1 0 1.992 1.992m0 0"/><g clip-path="url(#a)"><path fill="none" stroke="#7F7F7F" stroke-miterlimit="10" stroke-width=".399" d="M4.742 31.438a1.993 1.993 0 1 0-3.986.001 1.993 1.993 0 0 0 3.986-.002ZM33.086 3.09a1.993 1.993 0 1 0-3.983.002 1.993 1.993 0 0 0 3.983-.002Zm28.348 0a1.99 1.99 0 0 0-1.993-1.992A1.99 1.99 0 0 0 57.45 3.09a1.99 1.99 0 0 0 1.992 1.992 1.99 1.99 0 0 0 1.993-1.992Zm0 28.348a1.99 1.99 0 0 0-1.993-1.993 1.993 1.993 0 1 0 1.992 1.992Zm0 0"/></g><g clip-path="url(#b)"><path fill="none" stroke="#000" stroke-miterlimit="10" stroke-width=".399" d="M2.75 31.438c28.344-28.348 56.691-28.348 56.691 0"/></g></svg>