<svg xmlns="http://www.w3.org/2000/svg" width="94.235" height="66.512"><path fill="none" stroke="#7F7F7F" stroke-miterlimit="10" stroke-width=".199" d="M7.715 58.172h85.039M7.714 29.824h85.04M7.714 1.488h85.04M7.714 58.172V1.477M36.06 58.172V1.477m28.347 56.695V1.477m28.336 56.695V1.477"/><path fill="#FF7F7F" d="M9.395 29.266a1.772 1.772 0 1 0-3.363 1.119 1.772 1.772 0 0 0 3.363-1.12M20.75 25.48a2.442 2.442 0 1 0-4.636 1.541 2.442 2.442 0 0 0 4.636-1.54m12.785-4.265a3.196 3.196 0 1 0-6.061 2.026 3.196 3.196 0 0 0 6.061-2.026m14.403-4.797a4.045 4.045 0 1 0-7.676 2.557 4.045 4.045 0 0 0 7.676-2.557m16.214-5.406a5.006 5.006 0 0 0-6.328-3.164 5.006 5.006 0 0 0-3.164 6.328 5.006 5.006 0 0 0 6.328 3.164 5.006 5.006 0 0 0 3.164-6.328m18.262-6.086A6.081 6.081 0 1 0 70.875 8.77a6.08 6.08 0 0 0 7.691 3.847 6.083 6.083 0 0 0 3.848-7.691m0 0"/><path fill="#7F7FFF" d="M14.438 55.93a7.087 7.087 0 0 0-8.965-4.48 7.087 7.087 0 1 0 8.965 4.48m17.91-5.97a5.9 5.9 0 0 0-7.461-3.73 5.897 5.897 0 1 0 7.46 3.73m15.902-5.3a4.837 4.837 0 1 0-9.18 3.059 4.837 4.837 0 1 0 9.18-3.059m14.121-4.707a3.899 3.899 0 1 0-7.398 2.465 3.9 3.9 0 0 0 4.933 2.465 3.893 3.893 0 0 0 2.465-4.93m12.543-4.183a3.066 3.066 0 1 0-5.816 1.94 3.066 3.066 0 0 0 5.816-1.94m11.14-3.711a2.326 2.326 0 1 0-4.414 1.473A2.32 2.32 0 0 0 84.583 35a2.326 2.326 0 0 0 1.473-2.941m0 0"/></svg>