<svg xmlns="http://www.w3.org/2000/svg" xmlns:xlink="http://www.w3.org/1999/xlink" width="52.155" height="167.06"><defs><path id="a" d="M8.25 0v-.469h-.969L4.72-6.703c-.11-.25-.219-.25-.39-.25-.282 0-.329.078-.391.25l-2.47 6c-.062.156-.093.234-.843.234H.406V0l1.172-.031c.39 0 .938 0 1.313.031v-.469S2-.469 2-.594l.047-.125.5-1.203h2.672l.593 1.453H4.86V0c.391-.031 1.329-.031 1.766-.031.39 0 1.266 0 1.625.031M5.016-2.39H2.734l1.141-2.766Zm0 0"/><path id="b" d="M2.922 0v-.469h-.688v-6.453L.47-6.844v.469c.625 0 .687 0 .687.39v5.516H.47V0l1.219-.031Zm0 0"/><path id="c" d="M5.516-.234c0-.235-.125-.235-.266-.235-.61-.015-.61-.14-.61-.375v-2.14c0-.891-.702-1.532-2.187-1.532-.562 0-1.781.047-1.781.922 0 .438.344.625.61.625.312 0 .624-.219.624-.625 0-.297-.187-.469-.218-.5a5 5 0 0 1 .718-.062c.75 0 1.11.422 1.11 1.172v.343c-.72.032-3.25.125-3.25 1.563C.266-.125 1.5.062 2.188.062c.796 0 1.265-.406 1.484-.828 0 .313 0 .766 1.047.766h.468c.204 0 .329 0 .329-.234m-2-1.157c0 .97-.922 1.094-1.172 1.094-.516 0-.906-.344-.906-.797 0-1.062 1.578-1.203 2.078-1.234Zm0 0"/><path id="d" d="M5.984-2.219c0-1.328-.937-2.265-2.39-2.265-.719 0-1.219.28-1.453.484v-2.922l-1.766.078v.469c.61 0 .688 0 .688.39V0h.468c.157-.187.328-.375.485-.562.078.078.562.625 1.453.625 1.484 0 2.515-.907 2.515-2.282m-1.28 0c0 .469 0 1.016-.25 1.406-.298.407-.75.516-1.079.516-.687 0-1.078-.547-1.187-.687v-2.5c.28-.36.75-.641 1.296-.641 1.22 0 1.22 1.203 1.22 1.906m0 0"/><path id="e" d="M4.922-1.172c0-.172-.188-.172-.234-.172-.172 0-.188.047-.25.203-.204.485-.782.797-1.422.797-1.407 0-1.422-1.328-1.422-1.828h3.015c.22 0 .313 0 .313-.265 0-.313-.063-1.047-.563-1.547-.359-.36-.89-.532-1.578-.532C1.187-4.516.313-3.484.313-2.25c0 1.344 1 2.313 2.609 2.313 1.578 0 2-1.063 2-1.235M3.984-2.5h-2.39c.015-.39.031-.812.234-1.14.266-.391.672-.516.953-.516 1.172 0 1.188 1.312 1.203 1.656m0 0"/><path id="f" d="M7.5-1.86c0-.952-.844-1.624-2.031-1.702 1.078-.204 1.718-.797 1.718-1.563 0-.922-.875-1.719-2.468-1.719H.39v.469h1.078v5.906H.39V0h4.625C6.672 0 7.5-.875 7.5-1.86M5.766-5.124c0 .766-.47 1.39-1.438 1.39H2.766v-2.64h1.812c1.016 0 1.188.797 1.188 1.25m.28 3.266c0 .109 0 1.39-1.437 1.39H2.766v-2.906h1.937c.203 0 .672 0 1.016.422.328.422.328.984.328 1.094m0 0"/><path id="g" d="M7.64-2.266c0-.203-.077-.203-.25-.203-.124 0-.218 0-.218.172C7.094-.969 5.89-.359 4.89-.359c-.782 0-1.625-.235-2.141-.844-.469-.578-.594-1.313-.594-2.219 0-.562.031-1.625.672-2.297.64-.656 1.516-.765 2.031-.765 1.079 0 2.016.765 2.235 2.03.031.188.047.204.265.204.266 0 .282-.016.282-.281v-2.14c0-.188 0-.282-.188-.282-.094 0-.11.031-.187.094l-.657.593a3.03 3.03 0 0 0-1.968-.687c-2.485 0-4 1.484-4 3.531S2.156.11 4.64.11c1.875 0 3-1.218 3-2.375m0 0"/><path id="h" d="M8.14-3.36c0-2.187-1.484-3.484-3.468-3.484H.39v.469h1.078v5.906H.39V0h4.297C6.656 0 8.14-1.219 8.14-3.36m-1.468-.015c0 1.094-.11 1.625-.438 2.063-.468.687-1.343.843-1.953.843H2.828v-5.906h1.453c.657 0 1.485.188 1.969.89.344.516.422 1.188.422 2.11m0 0"/><path id="i" d="M7.203-2.734h-.469C6.516-1.36 6.234-.47 4.391-.47H2.875V-3.28h.547c.969 0 1.062.437 1.062 1.172h.47v-2.813h-.47c0 .75-.093 1.172-1.062 1.172h-.547v-2.562h1.516c1.609 0 1.875.734 2.03 1.937h.47l-.313-2.406H.391v.468h1.078v5.844H.39V0H6.75Zm0 0"/></defs><path fill="none" stroke="#000" stroke-miterlimit="10" stroke-width=".399" d="M27.434 24.816h15.3V11.223h-15.3Zm0 0"/><use xlink:href="#a" x="30.755" y="21.496"/><use xlink:href="#b" x="23.154" y="7.443"/><use xlink:href="#c" x="26.332" y="7.443"/><use xlink:href="#d" x="31.901" y="7.443"/><use xlink:href="#e" x="38.586" y="7.443"/><use xlink:href="#b" x="43.836" y="7.443"/><path fill="none" stroke="#000" stroke-miterlimit="10" stroke-width=".399" d="M27.688 52.863H42.48V39.387H27.688Zm0 0"/><use xlink:href="#f" x="31.009" y="49.543"/><use xlink:href="#b" x=".108" y="49.553"/><use xlink:href="#c" x="3.287" y="49.553"/><use xlink:href="#d" x="8.856" y="49.553"/><use xlink:href="#e" x="15.541" y="49.553"/><use xlink:href="#b" x="20.791" y="49.553"/><path fill="none" stroke="#000" stroke-miterlimit="10" stroke-width=".399" d="M27.625 81.129h14.918V67.437H27.625Zm0 0"/><use xlink:href="#g" x="30.944" y="77.7"/><use xlink:href="#b" x="23.154" y="77.71"/><use xlink:href="#c" x="26.332" y="77.71"/><use xlink:href="#d" x="31.901" y="77.71"/><use xlink:href="#e" x="38.586" y="77.71"/><use xlink:href="#b" x="43.836" y="77.71"/><path fill="none" stroke="#000" stroke-miterlimit="10" stroke-width=".399" d="M27.371 122.992h15.426v-13.476H27.37Zm0 0"/><use xlink:href="#h" x="30.689" y="119.671"/><g fill="red"><use xlink:href="#b" x="23.154" y="105.737"/><use xlink:href="#c" x="26.332" y="105.737"/><use xlink:href="#d" x="31.901" y="105.737"/></g><g fill="red"><use xlink:href="#e" x="38.586" y="105.737"/><use xlink:href="#b" x="43.836" y="105.737"/></g><path fill="none" stroke="#000" stroke-miterlimit="10" stroke-width=".399" d="M27.996 165.39h14.176v-13.413H27.996Zm0 0"/><use xlink:href="#i" x="31.317" y="162.07"/><path fill="none" stroke="red" stroke-miterlimit="10" stroke-width=".797" d="M19.832 151.379h30.504v-13.617H19.832Zm0 0"/><g fill="red"><use xlink:href="#b" x="23.154" y="147.997"/><use xlink:href="#c" x="26.332" y="147.997"/><use xlink:href="#d" x="31.901" y="147.997"/></g><g fill="red"><use xlink:href="#e" x="38.586" y="147.997"/><use xlink:href="#b" x="43.836" y="147.997"/></g></svg>