<svg xmlns="http://www.w3.org/2000/svg" xmlns:xlink="http://www.w3.org/1999/xlink" width="104.437" height="101.721"><defs><path id="b" d="M5.563-1.812c.14 0 .312 0 .312-.172 0-.188-.172-.188-.312-.188H1c-.125 0-.297 0-.297.188 0 .172.172.172.297.172Zm0 0"/><path id="c" d="M2.5-5.078c0-.219-.016-.219-.234-.219-.328.313-.75.5-1.5.5v.266c.218 0 .64 0 1.109-.203v4.078c0 .297-.031.39-.781.39H.812V0c.329-.031 1.016-.031 1.376-.031s1.046 0 1.374.031v-.266h-.28c-.75 0-.782-.093-.782-.39Zm0 0"/><path id="d" d="M3.89-2.547c0-.844-.078-1.36-.343-1.875-.344-.703-1-.875-1.438-.875-1 0-1.375.75-1.484.969C.344-3.75.328-2.953.328-2.547c0 .531.016 1.328.406 1.969.36.594.954.75 1.375.75.391 0 1.063-.125 1.47-.906.296-.578.312-1.297.312-1.813M2.11-.062c-.266 0-.813-.125-.985-.954-.094-.453-.094-1.203-.094-1.625 0-.546 0-1.109.094-1.546.172-.813.781-.891.984-.891.266 0 .829.14.985.86.094.437.094 1.046.094 1.577 0 .47 0 1.188-.094 1.641-.172.828-.719.938-.985.938m0 0"/><path id="f" d="M1.11-4.484c.109.03.421.125.765.125 1 0 1.594-.703 1.594-.828 0-.094-.047-.11-.094-.11-.016 0-.031 0-.094.031a3 3 0 0 1-1.11.22c-.468 0-.858-.11-1.108-.22-.079-.03-.094-.03-.11-.03-.094 0-.094.077-.094.234v2.328c0 .14 0 .234.125.234.063 0 .079-.031.125-.094.094-.11.391-.515 1.079-.515.437 0 .656.359.734.515.125.281.14.656.14.953s0 .735-.218 1.079c-.156.25-.485.484-.906.484A1.27 1.27 0 0 1 .734-.922c.016.016.079.016.079.016.218 0 .406-.14.406-.39a.39.39 0 0 0-.39-.407c-.157 0-.407.078-.407.422 0 .718.625 1.453 1.531 1.453 1 0 1.844-.781 1.844-1.766 0-.922-.672-1.75-1.61-1.75-.39 0-.765.125-1.078.406Zm0 0"/><path id="g" d="M2.25-1.625c.125-.125.453-.39.594-.5.484-.453.953-.89.953-1.61 0-.953-.797-1.562-1.781-1.562-.97 0-1.594.719-1.594 1.438 0 .39.312.437.422.437.172 0 .422-.11.422-.422 0-.406-.407-.406-.5-.406.234-.594.765-.781 1.156-.781.734 0 1.125.625 1.125 1.297 0 .828-.578 1.437-1.531 2.39l-1 1.047C.422-.219.422-.203.422 0h3.14l.235-1.422h-.25c-.016.156-.078.547-.172.703-.047.063-.656.063-.781.063H1.172Zm0 0"/><path id="e" d="M1.625-.437a.463.463 0 0 0-.453-.454.447.447 0 0 0-.438.438.44.44 0 0 0 .438.453.45.45 0 0 0 .453-.437m0 0"/><clipPath id="a"><path d="M7 0h97.156v100H7Zm0 0"/></clipPath></defs><path fill="none" stroke="#7F7F7F" stroke-linecap="round" stroke-miterlimit="10" stroke-width=".399" d="M30.098 92.637v-1.992M58.445 92.637v-1.992M86.79 92.637v-1.992M30.098 3.05V1.06M58.445 3.05V1.06M86.79 3.05V1.06M13.93 90.645h1.992M13.93 71.18h1.992M13.93 51.715h1.992M13.93 32.25h1.992M13.93 12.785h1.992M100.965 90.645h1.992M100.965 71.18h1.992M100.965 51.715h1.992M100.965 32.25h1.992M100.965 12.785h1.992"/><path fill="none" stroke="#7F7F7F" stroke-miterlimit="10" stroke-width=".399" d="M15.922 90.645h85.043M15.922 3.05h85.043M15.922 90.645V3.05M100.965 90.645V3.05"/><g clip-path="url(#a)"><path fill="none" stroke="#000" stroke-miterlimit="10" stroke-width=".598" d="M15.922 3.05s10.242 37.86 14.176 48.665c3.933 10.8 10.238 23.797 14.172 29.195 3.933 5.403 10.242 9.735 14.175 9.735 3.93 0 10.239-4.332 14.172-9.735 3.934-5.398 10.238-18.394 14.172-29.195C90.723 40.91 100.965 3.05 100.965 3.05"/></g><use xlink:href="#b" x="24.686" y="100.428"/><use xlink:href="#c" x="31.273" y="100.428"/><use xlink:href="#d" x="56.327" y="100.428"/><use xlink:href="#c" x="84.672" y="100.428"/><use xlink:href="#d" x="7.042" y="93.212"/><use xlink:href="#d" x=".455" y="73.746"/><use xlink:href="#e" x="4.689" y="73.746"/><use xlink:href="#f" x="7.042" y="73.746"/><use xlink:href="#c" x="7.042" y="54.282"/><use xlink:href="#c" x=".455" y="34.819"/><use xlink:href="#e" x="4.689" y="34.819"/><use xlink:href="#f" x="7.042" y="34.819"/><use xlink:href="#g" x="7.042" y="15.354"/></svg>