<svg xmlns="http://www.w3.org/2000/svg" xmlns:xlink="http://www.w3.org/1999/xlink" width="306.524" height="43.004"><defs><path id="b" d="M3.89-2.547c0-.844-.078-1.36-.343-1.875-.344-.703-1-.875-1.438-.875-1 0-1.375.75-1.484.969C.344-3.75.328-2.953.328-2.547c0 .531.016 1.328.406 1.969.36.594.954.75 1.375.75.391 0 1.063-.125 1.47-.906.296-.578.312-1.297.312-1.813M2.11-.062c-.266 0-.813-.125-.985-.954-.094-.453-.094-1.203-.094-1.625 0-.546 0-1.109.094-1.546.172-.813.781-.891.984-.891.266 0 .829.14.985.86.094.437.094 1.046.094 1.577 0 .47 0 1.188-.094 1.641-.172.828-.719.938-.985.938m0 0"/><path id="c" d="M2.25-1.625c.125-.125.453-.39.594-.5.484-.453.953-.89.953-1.61 0-.953-.797-1.562-1.781-1.562-.97 0-1.594.719-1.594 1.438 0 .39.312.437.422.437.172 0 .422-.11.422-.422 0-.406-.407-.406-.5-.406.234-.594.765-.781 1.156-.781.734 0 1.125.625 1.125 1.297 0 .828-.578 1.437-1.531 2.39l-1 1.047C.422-.219.422-.203.422 0h3.14l.235-1.422h-.25c-.016.156-.078.547-.172.703-.047.063-.656.063-.781.063H1.172Zm0 0"/><path id="d" d="M1.11-4.484c.109.03.421.125.765.125 1 0 1.594-.703 1.594-.828 0-.094-.047-.11-.094-.11-.016 0-.031 0-.094.031a3 3 0 0 1-1.11.22c-.468 0-.858-.11-1.108-.22-.079-.03-.094-.03-.11-.03-.094 0-.094.077-.094.234v2.328c0 .14 0 .234.125.234.063 0 .079-.031.125-.094.094-.11.391-.515 1.079-.515.437 0 .656.359.734.515.125.281.14.656.14.953s0 .735-.218 1.079c-.156.25-.485.484-.906.484A1.27 1.27 0 0 1 .734-.922c.016.016.079.016.079.016.218 0 .406-.14.406-.39a.39.39 0 0 0-.39-.407c-.157 0-.407.078-.407.422 0 .718.625 1.453 1.531 1.453 1 0 1.844-.781 1.844-1.766 0-.922-.672-1.75-1.61-1.75-.39 0-.765.125-1.078.406Zm0 0"/><path id="e" d="M4.031-4.86c.078-.077.078-.093.078-.265H2.08a9 9 0 0 1-.642-.031c-.421-.032-.421-.11-.453-.235h-.25L.47-3.703h.25c.015-.125.11-.672.219-.735.078-.046.687-.046.796-.046h1.688l-.813 1.109C1.703-2.172 1.5-.906 1.5-.281c0 .078 0 .453.375.453s.375-.36.375-.453v-.39c0-1.141.203-2.079.594-2.61Zm0 0"/><path id="f" d="M2.5-5.078c0-.219-.016-.219-.234-.219-.328.313-.75.5-1.5.5v.266c.218 0 .64 0 1.109-.203v4.078c0 .297-.031.39-.781.39H.812V0c.329-.031 1.016-.031 1.376-.031s1.046 0 1.374.031v-.266h-.28c-.75 0-.782-.093-.782-.39Zm0 0"/><path id="g" d="M1.625-.437a.463.463 0 0 0-.453-.454.447.447 0 0 0-.438.438.44.44 0 0 0 .438.453.45.45 0 0 0 .453-.437m0 0"/><clipPath id="a"><path d="M7 0h299.285v41H7Zm0 0"/></clipPath></defs><path fill="none" stroke="#7F7F7F" stroke-linecap="round" stroke-miterlimit="10" stroke-width=".399" d="M15.824 33.559v-1.993M86.691 33.559v-1.993M157.555 33.559v-1.993M228.422 33.559v-1.993M299.29 33.559v-1.993M15.824 3.219V1.227M86.691 3.219V1.227M157.555 3.219V1.227M228.422 3.219V1.227M299.29 3.219V1.227M13.832 31.566h1.992M13.832 24.48h1.992M13.832 17.395h1.992M13.832 10.309h1.992M13.832 3.219h1.992M299.29 31.566h1.991M299.29 24.48h1.991M299.29 17.395h1.991M299.29 10.309h1.991M299.29 3.219h1.991"/><path fill="none" stroke="#7F7F7F" stroke-miterlimit="10" stroke-width=".399" d="M15.824 31.566H299.29M15.824 3.219H299.29M15.824 31.566V3.22M299.29 31.566V3.22"/><g clip-path="url(#a)"><path fill="none" stroke="#000" stroke-miterlimit="10" stroke-width=".598" d="M15.824 31.566s8.531-4.648 11.809-5.785c3.277-1.136 8.535-1.808 11.812-2.398 3.278-.586 8.535-1.367 11.813-1.836 3.277-.473 8.531-1.149 11.808-1.55 3.278-.407 8.536-1.009 11.813-1.368s8.531-.906 11.812-1.234c3.278-.329 8.532-.832 11.809-1.137s8.535-.774 11.813-1.059c3.277-.281 8.53-.722 11.808-.992 3.277-.266 8.535-.684 11.813-.937 3.277-.254 8.535-.653 11.812-.895s8.531-.621 11.809-.852a3998 3998 0 0 1 23.625-1.605c3.277-.215 8.53-.555 11.808-.762a5988 5988 0 0 1 23.625-1.445c3.278-.195 8.532-.504 11.809-.691 3.277-.192 8.535-.489 11.812-.676a11954 11954 0 0 1 23.621-1.293c3.278-.176 8.536-.453 11.813-.625 3.277-.168 8.531-.442 11.809-.61s11.812-.597 11.812-.597"/></g><use xlink:href="#b" x="13.706" y="41.352"/><use xlink:href="#c" x="82.455" y="41.352"/><use xlink:href="#d" x="86.69" y="41.352"/><use xlink:href="#d" x="153.321" y="41.352"/><use xlink:href="#b" x="157.556" y="41.352"/><use xlink:href="#e" x="224.187" y="41.352"/><use xlink:href="#d" x="228.422" y="41.352"/><use xlink:href="#f" x="292.935" y="41.352"/><use xlink:href="#b" x="297.17" y="41.352"/><use xlink:href="#b" x="301.404" y="41.352"/><use xlink:href="#b" x="6.941" y="34.135"/><use xlink:href="#c" x=".354" y="27.048"/><use xlink:href="#g" x="4.588" y="27.048"/><use xlink:href="#d" x="6.941" y="27.048"/><use xlink:href="#d" x="6.941" y="19.962"/><use xlink:href="#e" x=".354" y="12.875"/><use xlink:href="#g" x="4.588" y="12.875"/><use xlink:href="#d" x="6.941" y="12.875"/><use xlink:href="#f" x="2.707" y="5.789"/><use xlink:href="#b" x="6.942" y="5.789"/></svg>