<svg xmlns="http://www.w3.org/2000/svg" width="93.462" height="62.048"><defs><clipPath id="a"><path d="M0 0h93.191v61.57H0Zm0 0"/></clipPath></defs><path fill="none" stroke="#7F7F7F" stroke-miterlimit="10" stroke-width=".199" d="M4.477 60.46h85.039M4.476 32.114h85.04M4.476 3.777h85.04M4.476 60.461V3.766M32.825 60.46V3.766M61.168 60.46V3.766m28.34 56.695V3.766"/><path fill="#D2C92A" d="M4.477 60.46c.351-1.573 1.312-3.062 2.753-3.546 1.446-.48 3.11.133 4.333 1.184 1.226 1.047 1.84 2.011 1.968 1.968.133-.043.043-1.183.395-2.757.351-1.575 1.316-3.063 2.758-3.543s3.105.132 4.332 1.18c1.222 1.05 1.836 2.015 1.968 1.972.133-.047.043-1.184.395-2.758.351-1.574 1.312-3.062 2.754-3.543 1.445-.484 3.11.13 4.332 1.18 1.226 1.047 1.84 2.012 1.969 1.969.132-.043.043-1.184.394-2.758s1.313-3.063 2.758-3.543c1.441-.48 3.105.133 4.332 1.18 1.223 1.05 1.836 2.015 1.969 1.972.133-.047.043-1.183.394-2.758.348-1.574 1.313-3.062 2.754-3.543 1.445-.484 3.11.133 4.332 1.18 1.227 1.05 1.84 2.012 1.969 1.969.133-.043.043-1.184.394-2.758s1.313-3.062 2.758-3.543c1.442-.48 3.106.133 4.332 1.184 1.223 1.047 1.836 2.011 1.97 1.968.132-.046.042-1.183.394-2.757.347-1.575 1.312-3.063 2.754-3.543 1.445-.485 3.109.132 4.332 1.18 1.226 1.05 1.835 2.011 1.968 1.968s.043-1.184.395-2.758c.351-1.57 1.312-3.062 2.758-3.543 1.441-.48 3.105.133 4.332 1.184 1.222 1.047 1.836 2.012 1.968 1.969.13-.047.043-1.184.391-2.758.352-1.574 1.316-3.063 2.758-3.543 1.445-.48 3.11.133 4.332 1.18 1.226 1.05 1.836 2.011 1.969 1.968.132-.043.043-1.183.394-2.754-1.402-.87-2.515-2.254-2.52-3.773-.003-1.523 1.102-2.91 2.481-3.742 1.383-.832 2.488-1.114 2.488-1.25 0-.14-1.109-.414-2.492-1.242-4.082.347-5.715-.344-6.433-1.684-.723-1.34-.407-3.086.418-4.469.824-1.386 1.668-2.156 1.601-2.281-.066-.121-1.172.164-2.785.086-3.086 1.61-4.86 1.535-6.008.539s-1.469-2.742-1.187-4.328c.277-1.59.797-2.606.691-2.7-.105-.09-1.039.567-2.574 1.067-2.137 1.934-3.871 2.309-5.23 1.629-1.364-.68-2.106-2.29-2.235-3.895-.125-1.609.121-2.722 0-2.785-.125-.062-.867.805-2.227 1.672-1.554 2.04-3.183 2.742-4.652 2.344-1.465-.402-2.508-1.836-2.945-3.39-.434-1.552-.41-2.696-.543-2.731s-.692.96-1.86 2.074c-1.14 2.125-2.628 3.09-4.144 2.938-1.512-.153-2.781-1.391-3.469-2.848-.687-1.461-.851-2.59-.992-2.602-.137-.015-.523 1.059-1.484 2.352-.79 2.203-2.11 3.387-3.63 3.473-1.519.085-2.96-.946-3.867-2.278-.906-1.336-1.246-2.426-1.382-2.418-.14.008-.352 1.13-1.106 2.555-.426 2.324-1.535 3.707-3.02 4.035-1.484.332-3.077-.45-4.187-1.621-1.11-1.168-1.62-2.191-1.758-2.16-.132.031-.164 1.172-.672 2.703.024 2.46-.812 4.023-2.21 4.621-1.399.598-3.106.125-4.414-.82-1.305-.942-1.997-1.856-2.125-1.801-.126.055.054 1.184-.165 2.781.66 2.582.207 4.297-1.015 5.203-1.223.903-2.996.836-4.485.219-1.488-.617-2.37-1.348-2.48-1.262-.113.082.324 1.137.477 2.742 1.68 2.586 1.8 4.356.93 5.606-.872 1.246-2.571 1.75-4.18 1.64-1.61-.109-2.676-.519-2.754-.402-.082.114.672.973 1.328 2.446 3.207 1.988 4.105 3.52 3.883 5.023-.223 1.508-1.52 2.715-3.008 3.336-1.489.621-2.625.73-2.645.871-.02.137 1.035.57 2.285 1.594 2.625.922 3.73 2.308 3.73 3.828 0 1.523-1.105 2.906-2.487 3.738-1.383.828-2.493 1.106-2.493 1.242 0 .141 1.11.418 2.493 1.246 1.382.833 2.488 2.215 2.488 3.739 0 1.52-1.106 2.902-2.488 3.734z"/><g clip-path="url(#a)"><path fill="none" stroke="#000" stroke-miterlimit="10" stroke-width=".399" d="M4.477 60.46c.351-1.573 1.312-3.062 2.753-3.546 1.446-.48 3.11.133 4.333 1.184 1.226 1.047 1.84 2.011 1.968 1.968.133-.043.043-1.183.395-2.757.351-1.575 1.316-3.063 2.758-3.543s3.105.132 4.332 1.18c1.222 1.05 1.836 2.015 1.968 1.972.133-.047.043-1.184.395-2.758.351-1.574 1.312-3.062 2.754-3.543 1.445-.484 3.11.13 4.332 1.18 1.226 1.047 1.84 2.012 1.969 1.969.132-.043.043-1.184.394-2.758s1.313-3.063 2.758-3.543c1.441-.48 3.105.133 4.332 1.18 1.223 1.05 1.836 2.015 1.969 1.972.133-.047.043-1.183.394-2.758.348-1.574 1.313-3.062 2.754-3.543 1.445-.484 3.11.133 4.332 1.18 1.227 1.05 1.84 2.012 1.969 1.969.133-.043.043-1.184.394-2.758s1.313-3.062 2.758-3.543c1.442-.48 3.106.133 4.332 1.184 1.223 1.047 1.836 2.011 1.97 1.968.132-.046.042-1.183.394-2.757.347-1.575 1.312-3.063 2.754-3.543 1.445-.485 3.109.132 4.332 1.18 1.226 1.05 1.835 2.011 1.968 1.968s.043-1.184.395-2.758c.351-1.57 1.312-3.062 2.758-3.543 1.441-.48 3.105.133 4.332 1.184 1.222 1.047 1.836 2.012 1.968 1.969.13-.047.043-1.184.391-2.758.352-1.574 1.316-3.063 2.758-3.543 1.445-.48 3.11.133 4.332 1.18 1.226 1.05 1.836 2.011 1.969 1.968.132-.043.043-1.183.394-2.754-1.402-.87-2.515-2.254-2.52-3.773-.003-1.523 1.102-2.91 2.481-3.742 1.383-.832 2.488-1.114 2.488-1.25 0-.14-1.109-.414-2.492-1.242-4.082.347-5.715-.344-6.433-1.684-.723-1.34-.407-3.086.418-4.469.824-1.386 1.668-2.156 1.601-2.281-.066-.121-1.172.164-2.785.086-3.086 1.61-4.86 1.535-6.008.539s-1.469-2.742-1.187-4.328c.277-1.59.797-2.606.691-2.7-.105-.09-1.039.567-2.574 1.067-2.137 1.934-3.871 2.309-5.23 1.629-1.364-.68-2.106-2.29-2.235-3.895-.125-1.609.121-2.722 0-2.785-.125-.062-.867.805-2.227 1.672-1.554 2.04-3.183 2.742-4.652 2.344-1.465-.402-2.508-1.836-2.945-3.39-.434-1.552-.41-2.696-.543-2.731s-.692.96-1.86 2.074c-1.14 2.125-2.628 3.09-4.144 2.938-1.512-.153-2.781-1.391-3.469-2.848-.687-1.461-.851-2.59-.992-2.602-.137-.015-.523 1.059-1.484 2.352-.79 2.203-2.11 3.387-3.63 3.473-1.519.085-2.96-.946-3.867-2.278-.906-1.336-1.246-2.426-1.382-2.418-.14.008-.352 1.13-1.106 2.555-.426 2.324-1.535 3.707-3.02 4.035-1.484.332-3.077-.45-4.187-1.621-1.11-1.168-1.62-2.191-1.758-2.16-.132.031-.164 1.172-.672 2.703.024 2.46-.812 4.023-2.21 4.621-1.399.598-3.106.125-4.414-.82-1.305-.942-1.997-1.856-2.125-1.801-.126.055.054 1.184-.165 2.781.66 2.582.207 4.297-1.015 5.203-1.223.903-2.996.836-4.485.219-1.488-.617-2.37-1.348-2.48-1.262-.113.082.324 1.137.477 2.742 1.68 2.586 1.8 4.356.93 5.606-.872 1.246-2.571 1.75-4.18 1.64-1.61-.109-2.676-.519-2.754-.402-.082.114.672.973 1.328 2.446 3.207 1.988 4.105 3.52 3.883 5.023-.223 1.508-1.52 2.715-3.008 3.336-1.489.621-2.625.73-2.645.871-.02.137 1.035.57 2.285 1.594 2.625.922 3.73 2.308 3.73 3.828 0 1.523-1.105 2.906-2.487 3.738-1.383.828-2.493 1.106-2.493 1.242 0 .141 1.11.418 2.493 1.246 1.382.833 2.488 2.215 2.488 3.739 0 1.52-1.106 2.902-2.488 3.734v3.758"/></g></svg>