<svg xmlns="http://www.w3.org/2000/svg" xmlns:xlink="http://www.w3.org/1999/xlink" width="88.832" height="132.878"><defs><path id="a" d="M4.922 0v-.469h-1.39v-5.734c0-.234 0-.328-.266-.328-.11 0-.125 0-.22.078-.765.562-1.796.562-2 .562H.845v.47h.203c.156 0 .703-.016 1.297-.204v5.156H.954V0c.437-.031 1.5-.031 1.984-.031s1.546 0 1.984.031m0 0"/><path id="c" d="M5.25-1.797c0-.547-.297-1.406-1.734-1.719.687-.203 1.406-.765 1.406-1.625 0-.765-.75-1.39-2.156-1.39-1.188 0-1.97.64-1.97 1.437 0 .422.313.703.688.703a.67.67 0 0 0 .704-.687c0-.578-.547-.688-.579-.703.344-.282.782-.36 1.094-.36.828 0 .86.641.86.97 0 .124-.016 1.437-1.047 1.5-.407.015-.438.015-.485.03-.094.016-.125.11-.125.172 0 .172.11.172.282.172h.437c1.094 0 1.094.985 1.094 1.5 0 .469 0 1.485-1.031 1.485-.266 0-.782-.047-1.266-.344C1.75-.75 2-1 2-1.406c0-.453-.312-.75-.75-.75-.422 0-.766.265-.766.765 0 .907.97 1.5 2.25 1.5 1.782 0 2.516-1 2.516-1.906m0 0"/><path id="b" d="m5.469 1.234-.375-.28c-.14.155-.594.624-.75.577-.125-.015-.735-.453-.86-.547L2.297.125A92 92 0 0 1 4.14.047C5.563.047 6.344.03 6.906-.72c.672-.937.266-2.14-.86-2.968-.984-.72-2.124-.766-2.64-.047-.36.484-.047.875.14 1.015.267.203.72.25 1.017-.156.296-.422.046-.797-.047-.906.375-.016.75.11 1.047.328.687.5.671 1.312.234 1.922-.406.547-1.125.89-2.11 1.047L.86-.016C.688 0 .672.031.547.188l-.094.14 3.469 2.516Zm0 0"/><path id="d" d="m4.375 3.172.281-.375-.781-.563.64-.89.782.562.266-.375L4.78.97l2.469-3.39c.156-.22.172-.282-.062-.438-.172-.125-.172-.11-.36-.063l-5.39 1.469-.266.375L3.5.609l-.64.891-.891-.656-.282.375c.313.187 1.047.718 1.391.968.328.25 1.016.75 1.297.985M3.859.297 1.875-1.141l3.797-1.062Zm0 0"/><path id="e" d="M.313 5.531c1.093.344 2.218-.125 2.671-1.515.079-.266.22-.797.063-1.328l1.25.406c-.125.25-.203.344-.297.656-.453 1.375.344 2.61.578 2.672.078.031.188.047.234-.063v-.156a3.8 3.8 0 0 1 .204-1.531c.234-.719.578-1.156.734-1.39.063-.079.078-.079.094-.11.047-.125-.063-.156-.219-.203l-2.766-.906c-.171-.047-.296-.094-.375.109-.03.125-.015.156.047.234.328.531.25 1.063.125 1.453-.281.844-1.11.563-1.86.313-.702-.219-1.655-.531-1.28-1.656.078-.235.328-.813.984-1.032-.094.344.047.704.438.829.5.156.78-.22.859-.438.031-.125.11-.672-.469-.86-.797-.25-1.86.235-2.234 1.407-.5 1.515.062 2.719 1.219 3.11m0 0"/><path id="j" d="M-3.578-4.375c-1.313.438-1.703 1.64-1.328 2.781.062.219.25.75 1.11.907l-.188.062c-1.078.36-1.547.266-1.72.266a1.63 1.63 0 0 1-1.218-1.078 1.07 1.07 0 0 1 .016-.797c.156.328.468.437.75.343.328-.109.531-.421.406-.78-.11-.376-.453-.517-.797-.407-.594.203-1.078.781-.75 1.781C-6.875 0-5.547 1.297-3.157.516-2.421.28-1.671-.047-1.14-.656c.563-.688.563-1.469.36-2.14-.438-1.313-1.516-1.985-2.797-1.579m.406 1.313c.953-.313 1.672-.547 1.985.421a.94.94 0 0 1-.266.985c-.25.25-.938.484-1.11.531-1.203.39-1.796.016-1.968-.5-.297-.906.422-1.125 1.36-1.437m0 0"/><path id="k" d="M.719-8.469-.921-7.28c-.188.14-1.391.968-1.548 1.031-.172.078-.25.016-.312-.062l-.375.28 1.203 2.25.375-.28c-.375-.657-.344-.844-.313-.891.047-.11.704-.578.844-.688l1.344-.984c0 .297-.031.563-.047.844-.11 1.484.094 2.984.969 4.172.406.578.86.25.906.203.125-.094.469-.407.094-.938l-.281-.375a8 8 0 0 1-.75-1.219c-.329-.578-.5-1.171-.454-1.718l.204-2.36c.015-.14-.016-.171-.22-.453m0 0"/><path id="l" d="M-5.25 1.86c0 1.078.844 1.546 1.328 1.828-.687.359-1 .796-1 1.374 0 1.016.906 1.47 2.047 1.47 1.375 0 2.078-.798 2.078-1.75 0-.438-.187-1.063-.953-1.5.828-.376 1.266-.938 1.266-1.673 0-1.203-1.078-1.718-2.36-1.718-1.594 0-2.406.875-2.406 1.968m1.078 3.187c0-.484.25-.813.688-1.11l1.5.844c.156.078.437.25.437.594 0 .703-.89.766-1.297.766-.828 0-1.328-.407-1.328-1.094m-.219-3.734c0-.829.938-1 1.516-1 .969 0 1.547.515 1.547 1.296 0 .766-.531 1.204-.89 1.407l-1.36-.766c-.438-.25-.813-.453-.813-.937m0 0"/><path id="m" d="M-6.172-.422c-.406.547-1.922 2.625 0 4.016 1.14.828 2.422.75 3.203-.328.813-1.11.453-2.297-.531-3.016-.297-.219-.719-.422-1.422-.078L-4.797 0c.438-.594.844-1.016 1.172-1.219.36-.203.969-.328 1.531.078.14.11.406.344.547.672a.6.6 0 0 0-.75.219c-.203.281-.187.64.125.875.313.219.656.14.875-.156.406-.563.328-1.313-.562-1.953-1.047-.766-2.828-1-4.313 1.062m.531 1.594C-5.28.656-4.484 0-3.797.484c.766.563.328 1.172-.25 1.97-.578.796-1.047 1.437-1.906.812-.469-.344-.36-.922-.328-1.016.093-.328.437-.797.64-1.078m0 0"/><path id="p" d="m1.516-4.687-.453-.141L.64-3.5l-5.453-1.781c-.22-.063-.313-.094-.391.156-.047.11-.047.125 0 .234.297.907-.016 1.891-.078 2.079l-.063.203.453.14.063-.203a4.5 4.5 0 0 0 .203-1.297l4.89 1.594-.421 1.328.453.14c.11-.437.437-1.437.578-1.905.156-.454.484-1.47.64-1.876m0 0"/><path id="q" d="M-1.406-6c-.907-.297-3.188-1.031-3.922 1.266-.75 2.28 1.516 3.015 2.437 3.312C-1.937-1.109.25-.406 1-2.687 1.734-4.97-.453-5.687-1.406-6m-.5 1.188c.547.171 1.406.453 1.875.671.828.422.765 1.063.687 1.344a1.09 1.09 0 0 1-1.234.703c-.531-.078-1.5-.39-2.031-.562-.672-.219-1.297-.422-1.766-.656-.812-.391-.687-1.094-.61-1.313.11-.36.423-.687.891-.734.407-.032 1.422.297 2.188.547m0 0"/><path id="r" d="m1.516 4.688.453-.141-.422-1.328L7 1.438c.219-.063.313-.094.234-.344-.046-.11-.046-.125-.156-.203C6.312.359 6-.625 5.938-.812l-.063-.204-.453.141.062.203c.047.14.235.656.579 1.172L1.172 2.094.75.766l-.453.14c.172.407.5 1.406.64 1.875.157.453.485 1.469.579 1.906m0 0"/><path id="s" d="m-3.984 2.89.28.376 1.126-.813 3.36 4.64c.14.188.202.266.421.11.094-.062.094-.078.125-.187.297-.907 1.125-1.516 1.297-1.641l.156-.11-.281-.374L2.344 5a4.8 4.8 0 0 0-.922.922L-1.61 1.75-.484.938-.766.563c-.343.28-1.203.906-1.593 1.203-.391.28-1.25.906-1.625 1.125m0 0"/><path id="t" d="m-2.875 4.828.375-.281c-.078-.188-.375-.75-.312-.89.062-.11.671-.548.796-.641l1.188-.86c-.156.594-.328 1.25-.5 1.766-.422 1.344-.672 2.11-.11 2.86.672.937 1.954.921 3.079.093.984-.719 1.375-1.766.859-2.484-.36-.485-.828-.313-1.016-.172-.265.203-.468.593-.171 1 .296.422.734.297.89.25-.094.36-.344.672-.64.89-.688.5-1.454.22-1.891-.39-.406-.547-.5-1.328-.36-2.297L-.265.828c.047-.172.032-.203-.093-.36l-.094-.14-3.469 2.516Zm0 0"/><clipPath id="f"><path d="M70 44h18.746v16H70Zm0 0"/></clipPath><clipPath id="g"><path d="M67 41h21.746v22H67Zm0 0"/></clipPath><clipPath id="h"><path d="M78 27h10.746v23H78Zm0 0"/></clipPath><clipPath id="i"><path d="M76 25h12.746v28H76Zm0 0"/></clipPath><clipPath id="n"><path d="M3 109h18v23.816H3Zm0 0"/></clipPath><clipPath id="o"><path d="M26 109h17v23.816H26Zm0 0"/></clipPath><clipPath id="u"><path d="M34 112h12v20.816H34Zm0 0"/></clipPath><clipPath id="v"><path d="M30 109h19v23.816H30Zm0 0"/></clipPath><clipPath id="w"><path d="M53 109h18v23.816H53Zm0 0"/></clipPath></defs><use xlink:href="#a" x="34.275" y="80.812"/><use xlink:href="#b" x="46.663" y="59.567"/><path fill="none" stroke="#000" stroke-miterlimit="10" stroke-width=".399" d="m59.402 46.906 5.258 16.176"/><path fill="none" stroke="#7F7F7F" stroke-miterlimit="10" stroke-width=".199" d="m64.66 63.082-13.762 9.996"/><path fill="none" stroke="#000" stroke-miterlimit="10" stroke-width=".399" d="m64.66 63.082-4.883 7.75-8.879 2.246"/><path fill="none" stroke="#7F7F7F" stroke-miterlimit="10" stroke-width=".199" d="m50.898 73.078-13.757-9.996"/><path fill="none" stroke="#000" stroke-miterlimit="10" stroke-width=".399" d="m37.14 63.082 5.255-16.176"/><use xlink:href="#c" x="48.034" y="38.409"/><use xlink:href="#d" x="60.42" y="17.223"/><path fill="none" stroke="#7F7F7F" stroke-miterlimit="10" stroke-width=".199" d="m73.164 4.555 5.254 16.175"/><path fill="none" stroke="#000" stroke-miterlimit="10" stroke-width=".399" d="m73.164 4.555 5.863 7.039-.609 9.136"/><path fill="none" stroke="#7F7F7F" stroke-miterlimit="10" stroke-width=".199" d="m78.418 20.73-13.758 10"/><path fill="none" stroke="#000" stroke-miterlimit="10" stroke-width=".399" d="m78.418 20.73-4.879 7.754-8.879 2.246"/><path fill="none" stroke="#7F7F7F" stroke-miterlimit="10" stroke-width=".199" d="m64.66 30.73-13.762-9.996"/><path fill="none" stroke="#000" stroke-miterlimit="10" stroke-width=".399" d="M50.898 20.734 56.156 4.56"/><path fill="none" stroke="#7F7F7F" stroke-miterlimit="10" stroke-width=".199" d="M56.156 4.555h17.008"/><path fill="none" stroke="#000" stroke-miterlimit="10" stroke-width=".399" d="m56.156 4.555 8.504-3.399 8.504 3.399"/><use xlink:href="#e" x="70.996" y="38.72"/><g clip-path="url(#f)"><path fill="none" stroke="#7F7F7F" stroke-miterlimit="10" stroke-width=".199" d="m86.922 46.906-13.758 9.996"/></g><g clip-path="url(#g)"><path fill="none" stroke="#000" stroke-miterlimit="10" stroke-width=".399" d="m86.922 46.906-4.879 7.75-8.879 2.246"/></g><path fill="none" stroke="#7F7F7F" stroke-miterlimit="10" stroke-width=".199" d="m73.164 56.902-13.762-9.996"/><path fill="none" stroke="#000" stroke-miterlimit="10" stroke-width=".399" d="m73.164 56.902-8.879-2.246-4.883-7.75"/><path fill="none" stroke="#7F7F7F" stroke-miterlimit="10" stroke-width=".199" d="M59.402 46.906 64.66 30.73"/><path fill="none" stroke="#000" stroke-miterlimit="10" stroke-width=".399" d="M64.66 30.73h17.008"/><g clip-path="url(#h)"><path fill="none" stroke="#7F7F7F" stroke-miterlimit="10" stroke-width=".199" d="m81.668 30.73 5.254 16.176"/></g><g clip-path="url(#i)"><path fill="none" stroke="#000" stroke-miterlimit="10" stroke-width=".399" d="m81.668 30.73 5.863 7.036-.61 9.14"/></g><path fill="none" stroke="#7F7F7F" stroke-miterlimit="10" stroke-width=".199" d="M59.402 46.906H42.395"/><use xlink:href="#j" x="32.571" y="44.168"/><path fill="none" stroke="#7F7F7F" stroke-miterlimit="10" stroke-width=".199" d="m14.875 46.906 5.254-16.176"/><path fill="none" stroke="#000" stroke-miterlimit="10" stroke-width=".399" d="m14.875 46.906-.605-9.14 5.859-7.036"/><path fill="none" stroke="#7F7F7F" stroke-miterlimit="10" stroke-width=".199" d="M20.129 30.73H37.14"/><path fill="none" stroke="#000" stroke-miterlimit="10" stroke-width=".399" d="m20.129 30.73 8.504-3.402 8.508 3.402"/><path fill="none" stroke="#7F7F7F" stroke-miterlimit="10" stroke-width=".199" d="m37.14 30.73 5.255 16.176M42.395 46.906l-13.758 9.996"/><path fill="none" stroke="#000" stroke-miterlimit="10" stroke-width=".399" d="m42.395 46.906-4.88 7.75-8.878 2.246M28.637 56.902l-13.762-9.996"/><use xlink:href="#k" x="36.769" y="20.626"/><path fill="none" stroke="#7F7F7F" stroke-miterlimit="10" stroke-width=".199" d="M28.637 4.555h17.008"/><path fill="none" stroke="#000" stroke-miterlimit="10" stroke-width=".399" d="m28.637 4.555 8.504-3.399 8.504 3.399"/><path fill="none" stroke="#7F7F7F" stroke-miterlimit="10" stroke-width=".199" d="m45.645 4.555 5.253 16.175"/><path fill="none" stroke="#000" stroke-miterlimit="10" stroke-width=".399" d="m45.645 4.555 5.863 7.039-.61 9.136"/><path fill="none" stroke="#7F7F7F" stroke-miterlimit="10" stroke-width=".199" d="M50.898 20.734 37.141 30.73"/><path fill="none" stroke="#000" stroke-miterlimit="10" stroke-width=".399" d="m37.14 30.73-13.761-10"/><path fill="none" stroke="#7F7F7F" stroke-miterlimit="10" stroke-width=".199" d="M23.379 20.73 28.637 4.56"/><path fill="none" stroke="#000" stroke-miterlimit="10" stroke-width=".399" d="m23.379 20.73-.606-9.136 5.864-7.035"/><path fill="none" stroke="#7F7F7F" stroke-miterlimit="10" stroke-width=".199" d="m50.898 73.078-5.253 16.176"/><path fill="none" stroke="#000" stroke-miterlimit="10" stroke-width=".399" d="m50.898 73.078.61 9.14-5.863 7.036"/><use xlink:href="#l" x="40.003" y="97.751"/><use xlink:href="#m" x="27.582" y="118.986"/><g clip-path="url(#n)"><path fill="none" stroke="#000" stroke-miterlimit="10" stroke-width=".399" d="m14.875 131.602-5.254-16.176"/></g><path fill="none" stroke="#7F7F7F" stroke-miterlimit="10" stroke-width=".199" d="m9.621 115.426 13.758-9.996"/><path fill="none" stroke="#000" stroke-miterlimit="10" stroke-width=".399" d="m9.621 115.426 4.879-7.75 8.879-2.246"/><path fill="none" stroke="#7F7F7F" stroke-miterlimit="10" stroke-width=".199" d="m23.379 105.43 13.762 9.996"/><g clip-path="url(#o)"><path fill="none" stroke="#000" stroke-miterlimit="10" stroke-width=".399" d="m37.14 115.426-5.257 16.176"/></g><path fill="none" stroke="#000" stroke-miterlimit="10" stroke-width=".399" d="M31.883 131.602H14.875"/><use xlink:href="#p" x="16.156" y="100.164"/><use xlink:href="#q" x="17.926" y="94.716"/><path fill="none" stroke="#000" stroke-miterlimit="10" stroke-width=".399" d="m1.113 89.254 13.762-9.996M14.875 79.258l13.762 9.996"/><path fill="none" stroke="#7F7F7F" stroke-miterlimit="10" stroke-width=".199" d="m28.637 89.254-5.258 16.176"/><path fill="none" stroke="#000" stroke-miterlimit="10" stroke-width=".399" d="M23.379 105.43H6.37M6.371 105.43 1.113 89.254"/><path fill="none" stroke="#7F7F7F" stroke-miterlimit="10" stroke-width=".199" d="M28.637 89.254h17.008"/><use xlink:href="#r" x="54.529" y="89.285"/><use xlink:href="#r" x="56.299" y="94.733"/><path fill="none" stroke="#000" stroke-miterlimit="10" stroke-width=".399" d="m73.164 89.254-5.258 16.176"/><path fill="none" stroke="#7F7F7F" stroke-miterlimit="10" stroke-width=".199" d="M67.906 105.43H50.898"/><path fill="none" stroke="#000" stroke-miterlimit="10" stroke-width=".399" d="m67.906 105.43-8.504 3.402-8.504-3.402"/><path fill="none" stroke="#7F7F7F" stroke-miterlimit="10" stroke-width=".199" d="m50.898 105.43-5.253-16.176"/><path fill="none" stroke="#000" stroke-miterlimit="10" stroke-width=".399" d="m45.645 89.254 13.757-9.996M59.402 79.258l13.762 9.996"/><use xlink:href="#s" x="53.615" y="113.891"/><use xlink:href="#t" x="48.981" y="117.258"/><path fill="none" stroke="#000" stroke-miterlimit="10" stroke-width=".399" d="M59.402 131.602H42.395"/><g clip-path="url(#u)"><path fill="none" stroke="#7F7F7F" stroke-miterlimit="10" stroke-width=".199" d="m42.395 131.602-5.254-16.176"/></g><g clip-path="url(#v)"><path fill="none" stroke="#000" stroke-miterlimit="10" stroke-width=".399" d="m42.395 131.602-5.864-7.036.61-9.14"/></g><path fill="none" stroke="#7F7F7F" stroke-miterlimit="10" stroke-width=".199" d="m37.14 115.426 13.758-9.996"/><path fill="none" stroke="#000" stroke-miterlimit="10" stroke-width=".399" d="m50.898 105.43 13.762 9.996"/><g clip-path="url(#w)"><path fill="none" stroke="#000" stroke-miterlimit="10" stroke-width=".399" d="m64.66 115.426-5.258 16.176"/></g><path fill="none" stroke="#7F7F7F" stroke-miterlimit="10" stroke-width=".199" d="m28.637 89.254-5.258-16.176"/><path fill="none" stroke="#000" stroke-miterlimit="10" stroke-width=".399" d="m28.637 89.254-5.864-7.035.606-9.14"/><path fill="none" stroke="#7F7F7F" stroke-miterlimit="10" stroke-width=".199" d="m23.379 73.078 13.762-9.996"/><path fill="none" stroke="#000" stroke-miterlimit="10" stroke-width=".399" d="m23.379 73.078 4.879-7.75 8.883-2.246"/></svg>