<svg xmlns="http://www.w3.org/2000/svg" xmlns:xlink="http://www.w3.org/1999/xlink" width="80.84" height="34.4"><defs><path id="b" d="M8.25 0v-.469h-.969L4.72-6.703c-.11-.25-.219-.25-.39-.25-.282 0-.329.078-.391.25l-2.47 6c-.062.156-.093.234-.843.234H.406V0l1.172-.031c.39 0 .938 0 1.313.031v-.469S2-.469 2-.594l.047-.125.5-1.203h2.672l.593 1.453H4.86V0c.391-.031 1.329-.031 1.766-.031.39 0 1.266 0 1.625.031M5.016-2.39H2.734l1.141-2.766Zm0 0"/><path id="c" d="M7.5-1.86c0-.952-.844-1.624-2.031-1.702 1.078-.204 1.718-.797 1.718-1.563 0-.922-.875-1.719-2.468-1.719H.39v.469h1.078v5.906H.39V0h4.625C6.672 0 7.5-.875 7.5-1.86M5.766-5.124c0 .766-.47 1.39-1.438 1.39H2.766v-2.64h1.812c1.016 0 1.188.797 1.188 1.25m.28 3.266c0 .109 0 1.39-1.437 1.39H2.766v-2.906h1.937c.203 0 .672 0 1.016.422.328.422.328.984.328 1.094m0 0"/><path id="d" d="M7.64-2.266c0-.203-.077-.203-.25-.203-.124 0-.218 0-.218.172C7.094-.969 5.89-.359 4.89-.359c-.782 0-1.625-.235-2.141-.844-.469-.578-.594-1.313-.594-2.219 0-.562.031-1.625.672-2.297.64-.656 1.516-.765 2.031-.765 1.079 0 2.016.765 2.235 2.03.031.188.047.204.265.204.266 0 .282-.016.282-.281v-2.14c0-.188 0-.282-.188-.282-.094 0-.11.031-.187.094l-.657.593a3.03 3.03 0 0 0-1.968-.687c-2.485 0-4 1.484-4 3.531S2.156.11 4.64.11c1.875 0 3-1.218 3-2.375m0 0"/><path id="f" d="M8.14-3.36c0-2.187-1.484-3.484-3.468-3.484H.39v.469h1.078v5.906H.39V0h4.297C6.656 0 8.14-1.219 8.14-3.36m-1.468-.015c0 1.094-.11 1.625-.438 2.063-.468.687-1.343.843-1.953.843H2.828v-5.906h1.453c.657 0 1.485.188 1.969.89.344.516.422 1.188.422 2.11m0 0"/><clipPath id="a"><path d="M0 0h54v34.102H0Zm0 0"/></clipPath><clipPath id="e"><path d="M48 0h32.762v34.102H48Zm0 0"/></clipPath></defs><path fill="#E5E5E5" d="M31.488 6.238c-.785-2.937-3.89-5.32-6.93-5.32-3.042 0-6.148 2.383-6.933 5.32-1.5-2.148-4.71-3.16-7.172-2.27-2.46.895-4.273 3.735-4.047 6.345-1.64-.536-3.73.207-4.672 1.652s-.765 3.656.387 4.941C.97 18.188.797 20.398 1.734 21.844c.942 1.449 3.032 2.187 4.672 1.656-.226 2.605 1.586 5.445 4.047 6.34 2.457.894 5.672-.121 7.172-2.266.785 2.938 3.89 5.32 6.934 5.32 3.039 0 6.144-2.382 6.93-5.32 1.5 2.145 4.714 3.16 7.171 2.266 2.461-.895 4.274-3.735 4.047-6.34 1.64.531 3.734-.207 4.672-1.656.941-1.446.766-3.657-.387-4.938 1.153-1.285 1.328-3.496.387-4.941s-3.031-2.188-4.672-1.652c.227-2.61-1.586-5.45-4.047-6.34-2.457-.895-5.672.117-7.172 2.265m0 0"/><g clip-path="url(#a)"><path fill="none" stroke="#000" stroke-miterlimit="10" stroke-width=".399" d="M31.488 6.238c-.785-2.937-3.89-5.32-6.93-5.32-3.042 0-6.148 2.383-6.933 5.32-1.5-2.148-4.71-3.16-7.172-2.27-2.46.895-4.273 3.735-4.047 6.345-1.64-.536-3.73.207-4.672 1.652s-.765 3.656.387 4.941C.97 18.188.797 20.398 1.734 21.844c.942 1.449 3.032 2.187 4.672 1.656-.226 2.605 1.586 5.445 4.047 6.34 2.457.894 5.672-.121 7.172-2.266.785 2.938 3.89 5.32 6.934 5.32 3.039 0 6.144-2.382 6.93-5.32 1.5 2.145 4.714 3.16 7.171 2.266 2.461-.895 4.274-3.735 4.047-6.34 1.64.531 3.734-.207 4.672-1.656.941-1.446.766-3.657-.387-4.938 1.153-1.285 1.328-3.496.387-4.941s-3.031-2.188-4.672-1.652c.227-2.61-1.586-5.45-4.047-6.34-2.457-.895-5.672.117-7.172 2.265Zm0 0"/></g><use xlink:href="#b" x="12.014" y="20.327"/><use xlink:href="#c" x="20.672" y="20.327"/><use xlink:href="#d" x="28.821" y="20.327"/><path fill="#E5E5E5" d="M70.45 6.527c-.384-1.425-1.895-2.586-3.372-2.586-1.48 0-2.988 1.16-3.371 2.586-1.148-.93-3.05-.976-4.25-.109-1.195.871-1.734 2.695-1.207 4.074-1.477-.078-3.043 1-3.5 2.406s.176 3.204 1.418 4.008c-1.242.805-1.875 2.598-1.418 4.004s2.023 2.485 3.5 2.406c-.527 1.383.012 3.207 1.207 4.075 1.2.87 3.102.82 4.25-.11.383 1.43 1.89 2.586 3.371 2.586 1.477 0 2.988-1.156 3.371-2.586 1.149.93 3.051.98 4.246.11 1.196-.868 1.739-2.692 1.207-4.075 1.477.079 3.047-1 3.504-2.406s-.18-3.2-1.418-4.004c1.239-.804 1.875-2.601 1.418-4.008-.457-1.406-2.027-2.484-3.504-2.406.532-1.379-.007-3.203-1.207-4.074-1.195-.867-3.097-.82-4.246.11m0 0"/><g clip-path="url(#e)"><path fill="none" stroke="#000" stroke-miterlimit="10" stroke-width=".399" d="M70.45 6.527c-.384-1.425-1.895-2.586-3.372-2.586-1.48 0-2.988 1.16-3.371 2.586-1.148-.93-3.05-.976-4.25-.109-1.195.871-1.734 2.695-1.207 4.074-1.477-.078-3.043 1-3.5 2.406s.176 3.204 1.418 4.008c-1.242.805-1.875 2.598-1.418 4.004s2.023 2.485 3.5 2.406c-.527 1.383.012 3.207 1.207 4.075 1.2.87 3.102.82 4.25-.11.383 1.43 1.89 2.586 3.371 2.586 1.477 0 2.988-1.156 3.371-2.586 1.149.93 3.051.98 4.246.11 1.196-.868 1.739-2.692 1.207-4.075 1.477.079 3.047-1 3.504-2.406s-.18-3.2-1.418-4.004c1.239-.804 1.875-2.601 1.418-4.008-.457-1.406-2.027-2.484-3.504-2.406.532-1.379-.007-3.203-1.207-4.074-1.195-.867-3.097-.82-4.246.11Zm0 0"/></g><use xlink:href="#f" x="62.683" y="20.322"/></svg>