<svg xmlns="http://www.w3.org/2000/svg" xmlns:xlink="http://www.w3.org/1999/xlink" width="87.466" height="61.094"><defs><clipPath id="b"><path d="M54 0h33.2v60.64H54Zm0 0"/></clipPath><path id="a" d="M5.516-.234c0-.235-.125-.235-.266-.235-.61-.015-.61-.14-.61-.375v-2.14c0-.891-.702-1.532-2.187-1.532-.562 0-1.781.047-1.781.922 0 .438.344.625.61.625.312 0 .624-.219.624-.625 0-.297-.187-.469-.218-.5a5 5 0 0 1 .718-.062c.75 0 1.11.422 1.11 1.172v.343c-.72.032-3.25.125-3.25 1.563C.266-.125 1.5.062 2.188.062c.796 0 1.265-.406 1.484-.828 0 .313 0 .766 1.047.766h.468c.204 0 .329 0 .329-.234m-2-1.157c0 .97-.922 1.094-1.172 1.094-.516 0-.906-.344-.906-.797 0-1.062 1.578-1.203 2.078-1.234Zm0 0"/></defs><path fill="none" stroke="#7F7F7F" stroke-miterlimit="10" stroke-width=".199" d="M.95 59.535h85.042M.95 31.188h85.043M.95 2.851h85.043M.95 59.535V2.84m28.348 56.695V2.84m28.348 56.695V2.84M85.98 59.535V2.84"/><use xlink:href="#a" x="54.859" y="5.069"/><path fill="none" stroke="#000" stroke-miterlimit="10" stroke-width=".399" d="M.95 59.535V2.84"/><path fill="none" stroke="red" stroke-miterlimit="10" stroke-width=".399" d="M10.914 49.57 51.84 8.648"/><g clip-path="url(#b)"><path fill="none" stroke="#00F" stroke-miterlimit="10" stroke-width=".399" d="M85.992 59.535V2.84H63.95m-3.402 5.808 25.445 50.887Zm0 0"/></g></svg>