<svg xmlns="http://www.w3.org/2000/svg" width="87.356" height="58.988"><defs><clipPath id="a"><path d="M0 23h35v35.98H0Zm0 0"/></clipPath><clipPath id="b"><path d="M0 23h87.035v35.98H0Zm0 0"/></clipPath><clipPath id="c"><path d="M0 23h35v35.98H0Zm0 0"/></clipPath></defs><path fill="none" stroke="#7F7F7F" stroke-miterlimit="10" stroke-width=".199" d="M.895 57.785h85.039M.894 29.441h85.04M.894 1.101h85.04M.894 57.786V1.094m28.348 56.691V1.094M57.59 57.785V1.094m28.336 56.691V1.094"/><g clip-path="url(#a)"><path fill="none" stroke="#000" stroke-miterlimit="10" stroke-width=".399" d="m.895 57.785 28.347-28.344v28.344"/></g><g clip-path="url(#b)"><path fill="none" stroke="#00F" stroke-miterlimit="10" stroke-width=".399" d="m.895 57.785 85.039-28.344-56.692 28.344"/></g><g clip-path="url(#c)"><path fill="none" stroke="red" stroke-miterlimit="10" stroke-width=".399" d="M.895 57.785V29.441l28.347 28.344"/></g></svg>