<svg xmlns="http://www.w3.org/2000/svg" xmlns:xlink="http://www.w3.org/1999/xlink" width="284.33" height="67.646"><defs><path id="a" d="M7.64-2.266c0-.203-.077-.203-.25-.203-.124 0-.218 0-.218.172C7.094-.969 5.89-.359 4.89-.359c-.782 0-1.625-.235-2.141-.844-.469-.578-.594-1.313-.594-2.219 0-.562.031-1.625.672-2.297.64-.656 1.516-.765 2.031-.765 1.079 0 2.016.765 2.235 2.03.031.188.047.204.265.204.266 0 .282-.016.282-.281v-2.14c0-.188 0-.282-.188-.282-.094 0-.11.031-.187.094l-.657.593a3.03 3.03 0 0 0-1.968-.687c-2.485 0-4 1.484-4 3.531S2.156.11 4.64.11c1.875 0 3-1.218 3-2.375m0 0"/><path id="b" d="M5.406-2.172c0-1.344-.922-2.344-2.547-2.344C1.22-4.516.313-3.5.313-2.172c0 1.235.89 2.235 2.546 2.235 1.672 0 2.547-1.016 2.547-2.235m-1.281-.11c0 .86 0 1.938-1.266 1.938-1.265 0-1.265-1.078-1.265-1.937 0-.453 0-.953.172-1.297.187-.375.609-.578 1.093-.578.422 0 .844.156 1.063.5.203.344.203.89.203 1.375m0 0"/><path id="c" d="M9.328 0v-.469h-.687v-2.578c0-1.031-.516-1.437-1.547-1.437-.907 0-1.422.5-1.688.953-.187-.922-1.11-.953-1.484-.953-.875 0-1.438.453-1.766 1.078v-1.078l-1.703.078v.468c.61 0 .688 0 .688.391v3.078H.453V0l1.25-.031L2.953 0v-.469h-.687v-2.078c0-1.094.875-1.578 1.5-1.578.328 0 .547.203.547.969V-.47h-.688V0l1.266-.031L6.14 0v-.469h-.688v-2.078c0-1.094.86-1.578 1.484-1.578.344 0 .563.203.563.969V-.47h-.687V0l1.25-.031Zm0 0"/><path id="d" d="M5.984-2.219c0-1.328-.906-2.265-2.343-2.265-.75 0-1.282.312-1.5.484v-.484l-1.766.078v.468c.61 0 .688 0 .688.376v5.03H.375v.47l1.25-.032 1.25.032v-.47h-.687V-.39a2 2 0 0 0 1.28.454c1.5 0 2.516-.907 2.516-2.282m-1.28 0C4.703-.813 4-.297 3.358-.297c-.14 0-.609 0-1.062-.547-.11-.125-.11-.14-.11-.328v-2.11c0-.187.016-.202.157-.343.39-.406.922-.469 1.14-.469.657 0 1.22.61 1.22 1.875m0 0"/><path id="e" d="M6.125 0v-.469c-.61 0-.687 0-.687-.39v-3.625l-1.813.078v.468c.61 0 .688 0 .688.391v1.906c0 .813-.516 1.344-1.235 1.344-.781 0-.812-.25-.812-.797v-3.39l-1.813.078v.468c.61 0 .688 0 .688.391v2.328c0 1.063.797 1.282 1.797 1.282.25 0 .968 0 1.421-.782v.782Zm0 0"/><path id="f" d="M3.813-1.234v-.532h-.47v.516c0 .672-.327.906-.609.906-.578 0-.578-.64-.578-.86v-2.75h1.469v-.468H2.156v-1.906h-.469c0 1-.484 1.984-1.484 2.016v.359h.828v2.734c0 1.063.86 1.282 1.578 1.282.75 0 1.204-.579 1.204-1.297m0 0"/><path id="g" d="M5.516-.234c0-.235-.125-.235-.266-.235-.61-.015-.61-.14-.61-.375v-2.14c0-.891-.702-1.532-2.187-1.532-.562 0-1.781.047-1.781.922 0 .438.344.625.61.625.312 0 .624-.219.624-.625 0-.297-.187-.469-.218-.5a5 5 0 0 1 .718-.062c.75 0 1.11.422 1.11 1.172v.343c-.72.032-3.25.125-3.25 1.563C.266-.125 1.5.062 2.188.062c.796 0 1.265-.406 1.484-.828 0 .313 0 .766 1.047.766h.468c.204 0 .329 0 .329-.234m-2-1.157c0 .97-.922 1.094-1.172 1.094-.516 0-.906-.344-.906-.797 0-1.062 1.578-1.203 2.078-1.234Zm0 0"/><path id="h" d="M2.844 0v-.469h-.61v-4.015L.5-4.406v.468c.594 0 .656 0 .656.391v3.078H.47V0l1.219-.031Zm-.469-6.047a.774.774 0 0 0-.781-.781.784.784 0 0 0-.782.781c0 .422.36.766.782.766a.77.77 0 0 0 .781-.766m0 0"/><path id="i" d="M6.125 0v-.469h-.687v-2.578c0-1.047-.532-1.437-1.532-1.437-.953 0-1.484.562-1.75 1.078v-1.078l-1.703.078v.468c.61 0 .688 0 .688.391v3.078H.453V0l1.25-.031L2.953 0v-.469h-.687v-2.078c0-1.094.859-1.578 1.5-1.578.328 0 .547.203.547.969V-.47h-.688V0l1.25-.031Zm0 0"/><path id="j" d="M2.922 0v-.469h-.688v-6.453L.47-6.844v.469c.625 0 .687 0 .687.39v5.516H.47V0l1.219-.031Zm0 0"/><path id="k" d="M4.922-1.172c0-.172-.188-.172-.234-.172-.172 0-.188.047-.25.203-.204.485-.782.797-1.422.797-1.407 0-1.422-1.328-1.422-1.828h3.015c.22 0 .313 0 .313-.265 0-.313-.063-1.047-.563-1.547-.359-.36-.89-.532-1.578-.532C1.187-4.516.313-3.484.313-2.25c0 1.344 1 2.313 2.609 2.313 1.578 0 2-1.063 2-1.235M3.984-2.5h-2.39c.015-.39.031-.812.234-1.14.266-.391.672-.516.953-.516 1.172 0 1.188 1.312 1.203 1.656m0 0"/><path id="l" d="M5.828 0v-.469h-.703L3.453-2.453 4.61-3.75c.141-.14.204-.203 1.016-.203v-.469l-.906.031-1.032-.03v.468c.141 0 .266.015.376.078-.032.063-.032.094-.079.125l-.828.938-.984-1.141h.406v-.469L1.36-4.39.266-4.42v.468h.718l1.547 1.828L1.22-.656c-.157.187-.516.187-1 .187V0l.922-.031L2.156 0v-.469c-.172 0-.36-.047-.36-.11 0 0 0-.015.063-.093l.97-1.094L3.921-.469h-.39V0l1.202-.031Zm0 0"/><path id="m" d="M5.781-3.953v-.469A13 13 0 0 1 5-4.39l-.906-.03v.468s.468 0 .468.11L4.5-3.72 3.36-1.266 2.093-3.953h.531v-.469l-1.234.031-1.125-.03v.468H.89L2.766 0 2.53.484C2.312.954 2 1.641 1.281 1.641c-.14 0-.156-.016-.234-.047.094-.032.312-.172.312-.532C1.36.734 1.125.5.781.5a.553.553 0 0 0-.562.578c0 .5.469.922 1.062.922.766 0 1.344-.625 1.625-1.187l2.14-4.563c.063-.14.095-.203.735-.203m0 0"/><path id="n" d="M7.188-4.89c0-1.094-.985-1.954-2.641-1.954H.39v.469h1.078v5.906H.39V0C.766-.031 1.75-.031 2.17-.031c.438 0 1.407 0 1.782.031v-.469H2.875v-2.547h1.766c1.39 0 2.547-.718 2.547-1.875m-1.532 0c0 .702 0 1.468-1.5 1.468H2.828v-2.953h1.344c1.484 0 1.484.766 1.484 1.484m0 0"/><path id="o" d="M4.406-3.672c0-.531-.531-.812-1.062-.812-.688 0-1.094.5-1.313 1.125v-1.125l-1.656.078v.468c.61 0 .688 0 .688.391v3.078H.375V0l1.25-.031C2-.031 2.641-.031 3 0v-.469h-.86v-1.75c0-.687.235-1.906 1.235-1.906 0 0-.187.172-.187.453 0 .406.328.61.609.61.297 0 .61-.204.61-.61m0 0"/><path id="p" d="M5.984-2.219c0-1.328-.937-2.265-2.39-2.265-.719 0-1.219.28-1.453.484v-2.922l-1.766.078v.469c.61 0 .688 0 .688.39V0h.468c.157-.187.328-.375.485-.562.078.078.562.625 1.453.625 1.484 0 2.515-.907 2.515-2.282m-1.28 0c0 .469 0 1.016-.25 1.406-.298.407-.75.516-1.079.516-.687 0-1.078-.547-1.187-.687v-2.5c.28-.36.75-.641 1.296-.641 1.22 0 1.22 1.203 1.22 1.906m0 0"/><path id="q" d="M4.14-1.39c0-.438-.202-.782-.546-1.063-.39-.281-.719-.344-1.485-.485-.375-.062-1.015-.171-1.015-.64 0-.625.922-.625 1.11-.625.75 0 1.124.297 1.171.844.016.156.031.203.234.203.235 0 .235-.047.235-.281v-.797c0-.188 0-.282-.172-.282-.047 0-.063 0-.453.188-.266-.125-.61-.188-1-.188-.313 0-1.844 0-1.844 1.313 0 .39.203.656.406.828.39.344.782.406 1.547.547.36.062 1.094.187 1.094.781 0 .75-.906.75-1.125.75C1.234-.297.984-1.03.859-1.453c-.046-.14-.109-.14-.234-.14-.25 0-.25.062-.25.28v1.094c0 .188 0 .282.188.282.062 0 .078 0 .296-.157l.25-.172c.47.329.985.329 1.188.329.312 0 1.844 0 1.844-1.454m0 0"/><path id="r" d="M10.484 0v-.469H9.406v-5.906h1.078v-.469H8.281c-.219 0-.344 0-.453.25l-2.39 5.282-2.391-5.282c-.11-.25-.219-.25-.438-.25H.406v.469H1.47V-.75c0 .219 0 .219-.282.25-.234.031-.265.031-.546.031H.406V0c.375-.031.938-.031 1.328-.031.422 0 .938 0 1.344.031v-.469h-.25c-.172 0-.344-.015-.531-.031C2.016-.531 2-.531 2-.75v-5.484h.016L4.719-.25c.093.203.218.25.328.25.203 0 .281-.156.312-.234l2.782-6.141h.015v5.906H7.078V0c.36-.031 1.281-.031 1.688-.031.422 0 1.359 0 1.718.031m0 0"/><path id="s" d="M8.25 0v-.469h-.969L4.72-6.703c-.11-.25-.219-.25-.39-.25-.282 0-.329.078-.391.25l-2.47 6c-.062.156-.093.234-.843.234H.406V0l1.172-.031c.39 0 .938 0 1.313.031v-.469S2-.469 2-.594l.047-.125.5-1.203h2.672l.593 1.453H4.86V0c.391-.031 1.329-.031 1.766-.031.39 0 1.266 0 1.625.031M5.016-2.39H2.734l1.141-2.766Zm0 0"/><path id="t" d="M4.766-1.172c0-.14-.141-.14-.235-.14-.187 0-.187.03-.25.156-.25.625-.734.812-1.234.812-1.39 0-1.39-1.453-1.39-1.922 0-.562 0-1.843 1.28-1.843.36 0 .516.015.657.046a.62.62 0 0 0-.203.47c0 .437.343.624.609.624.313 0 .64-.219.64-.625 0-.86-1.156-.922-1.734-.922C1.11-4.516.375-3.375.375-2.219.375-.89 1.313.063 2.844.063c1.625 0 1.922-1.157 1.922-1.235m0 0"/><path id="u" d="M8.14-3.36c0-2.187-1.484-3.484-3.468-3.484H.39v.469h1.078v5.906H.39V0h4.297C6.656 0 8.14-1.219 8.14-3.36m-1.468-.015c0 1.094-.11 1.625-.438 2.063-.468.687-1.343.843-1.953.843H2.828v-5.906h1.453c.657 0 1.485.188 1.969.89.344.516.422 1.188.422 2.11m0 0"/><path id="v" d="M8.5 0v-.469h-.297c-.531 0-.562-.047-.672-.203L4.828-4.203l2.406-1.984c.22-.188.625-.188.938-.188h.156v-.469c-.39.032-.969.032-1.015.032-.375 0-1.094 0-1.454-.032v.469c.125 0 .329 0 .579.063.156.03.046.015.125.046L2.875-3.187v-3.188h1.078v-.469c-.375.032-1.344.032-1.781.032-.422 0-1.406 0-1.781-.032v.469h1.078v5.906H.39V0C.766-.031 1.75-.031 2.17-.031c.438 0 1.407 0 1.782.031v-.469H2.875v-2.093l1-.829L5.938-.687c.046.062.046.078.078.14-.188.078-.391.078-.735.078V0c.407-.031 1.313-.031 1.75-.031.407 0 1.094 0 1.469.031m0 0"/><path id="w" d="M5.984 0v-.469c-.609 0-.687 0-.687-.39v-6.063l-1.766.078v.469c.625 0 .703 0 .703.39v1.954a2.18 2.18 0 0 0-1.359-.453c-1.453 0-2.5.875-2.5 2.28 0 1.313.922 2.267 2.39 2.267.61 0 1.094-.235 1.407-.485v.485ZM4.172-1.031c-.14.187-.547.734-1.297.734-1.219 0-1.219-1.203-1.219-1.906 0-.485 0-1.016.25-1.406.297-.422.766-.516 1.078-.516.563 0 .97.313 1.188.61Zm0 0"/><path id="x" d="m7.547-4.328-.203-2.406H.625L.422-4.328H.89c.093-1.125.187-1.938 1.625-1.938h.765v5.797H1.75V0c.547-.031 1.656-.031 2.234-.031.594 0 1.704 0 2.235.031v-.469H4.687v-5.797h.766c1.422 0 1.531.797 1.625 1.938Zm0 0"/><path id="y" d="M5.563-3.953c0-.235-.172-.578-.625-.578-.157 0-.625.031-1.063.375-.172-.125-.594-.328-1.328-.328-1.438 0-1.985.78-1.985 1.468 0 .407.188.829.516 1.047-.281.36-.344.688-.344.89 0 .157.047.642.438.954-.125.031-.86.25-.86.875C.313 1.25.876 2 2.86 2 4.625 2 5.406 1.422 5.406.719c0-.297-.078-.922-.75-1.266-.562-.281-1.156-.281-2.11-.281-.265 0-.718 0-.765-.016a.625.625 0 0 1-.562-.625c0-.093.047-.25.11-.328.452.234.968.266 1.218.266 1.437 0 1.984-.782 1.984-1.485 0-.468-.25-.796-.406-.953.297-.156.516-.172.625-.187a.43.43 0 0 0-.047.203c0 .25.172.422.438.422a.41.41 0 0 0 .422-.422m-2.141.937c0 .454 0 1.125-.875 1.125s-.875-.671-.875-1.125c0-.437 0-1.109.875-1.109s.875.672.875 1.11M4.547.75c0 .36-.39.89-1.688.89-1.187 0-1.687-.452-1.687-.906 0-.609.625-.609.766-.609h1.171c.313 0 1.438 0 1.438.625m0 0"/><path id="z" d="M6.125 0v-.469h-.687v-2.578c0-1.047-.532-1.437-1.532-1.437a1.9 1.9 0 0 0-1.687.953v-3.39l-1.766.077v.469c.61 0 .688 0 .688.39v5.516H.453V0l1.25-.031L2.953 0v-.469h-.687v-2.078c0-1.094.859-1.578 1.5-1.578.328 0 .547.203.547.969V-.47h-.688V0l1.25-.031Zm0 0"/><path id="A" d="M8.547-.953c0-.219-.14-.219-.235-.219-.203 0-.218.11-.234.234-.047.47-.328.688-.625.688-.61 0-.687-.703-.75-1.125-.016-.11-.094-.797-.11-.844-.14-.703-.687-1.015-1.109-1.172C6.641-3.687 7.141-4.344 7.141-5c0-1-1.094-1.844-2.97-1.844H.392v.469h1.078v5.906H.39V0C.75-.031 1.719-.031 2.14-.031s1.39 0 1.75.031v-.469H2.828v-2.765h1.156c.141 0 .579 0 .891.328.313.36.313.547.313 1.265 0 .657 0 1.157.703 1.485.437.219 1.062.265 1.468.265 1.063 0 1.188-.89 1.188-1.062M5.625-4.984c0 .562 0 1.39-1.64 1.39H2.827v-2.781H4c1.61 0 1.625.781 1.625 1.39m0 0"/><path id="B" d="M3.172-1.734v-.97H.125v.97Zm0 0"/><path id="C" d="M7.5-1.86c0-.952-.844-1.624-2.031-1.702 1.078-.204 1.718-.797 1.718-1.563 0-.922-.875-1.719-2.468-1.719H.39v.469h1.078v5.906H.39V0h4.625C6.672 0 7.5-.875 7.5-1.86M5.766-5.124c0 .766-.47 1.39-1.438 1.39H2.766v-2.64h1.812c1.016 0 1.188.797 1.188 1.25m.28 3.266c0 .109 0 1.39-1.437 1.39H2.766v-2.906h1.937c.203 0 .672 0 1.016.422.328.422.328.984.328 1.094m0 0"/><path id="D" d="M7.969-3.375c0-2.156-1.453-3.578-3.657-3.578-2.28 0-3.671 1.484-3.671 3.578C.64-1.312 2.03.109 4.297.109c2.297 0 3.672-1.437 3.672-3.484m-1.532-.156c0 .703-.03 1.594-.453 2.281a1.97 1.97 0 0 1-1.687.938 1.94 1.94 0 0 1-1.719-1.032c-.328-.625-.422-1.328-.422-2.187 0-.64.031-1.485.469-2.156a2.01 2.01 0 0 1 1.672-.86c.64 0 1.328.281 1.719.938.39.64.422 1.406.422 2.078m0 0"/><path id="E" d="M6.406-2.734h-.468c-.079.687-.25 2.265-2.032 2.265H2.875v-5.906h1.36v-.469c-.454.032-1.532.032-2.016.032-.438 0-1.453 0-1.828-.032v.469h1.078v5.906H.39V0h5.703Zm0 0"/><path id="F" d="M4.36-6.11c0-.421-.36-.874-1.141-.874-.969 0-2.047.422-2.047 1.547v1.015h-.75v.469h.75V-.47H.484V0l1.25-.031c.375 0 1.016 0 1.375.031v-.469H2.25v-3.484h1.14v-.469H2.188v-1.016c0-1.093.75-1.187 1-1.187.047 0 .11 0 .172.031a.59.59 0 0 0-.234.485c0 .422.36.609.61.609.296 0 .624-.203.624-.61m0 0"/><path id="G" d="M5.719-2.031c0-1.094-.797-1.906-1.719-2.094l-1.437-.312c-.407-.094-.954-.422-.954-1.032 0-.437.282-1.047 1.266-1.047.797 0 1.813.329 2.047 1.688.031.25.031.266.234.266.25 0 .25-.047.25-.282v-1.828c0-.187 0-.281-.187-.281-.078 0-.078.016-.188.11l-.453.437C4-6.86 3.344-6.953 2.875-6.953c-1.516 0-2.234.969-2.234 2.016 0 .64.328 1.093.53 1.312.5.5.829.563 1.923.797.875.203 1.047.219 1.265.437.141.141.391.407.391.86 0 .484-.25 1.172-1.297 1.172-.75 0-2.265-.203-2.344-1.688-.015-.172-.015-.219-.234-.219-.234 0-.234.047-.234.282v1.812C.64.016.64.11.813.11.906.11.922.094 1 .016l.469-.453c.656.484 1.578.546 1.984.546C5.11.11 5.72-1.016 5.72-2.03m0 0"/><path id="H" d="M5.781-3.953v-.469c-.25.016-.531.031-.781.031l-.906-.03v.468c.187 0 .468.031.468.11 0 0 0 .015-.046.109l-1.157 2.5-1.265-2.72h.531v-.468l-1.234.031-1.125-.03v.468H.89l1.75 3.75c.125.25.25.25.375.25.172 0 .28-.031.375-.25L5.047-3.75c.062-.14.094-.203.734-.203m0 0"/><path id="I" d="M7.203-2.734h-.469C6.516-1.36 6.234-.47 4.391-.47H2.875V-3.28h.547c.969 0 1.062.437 1.062 1.172h.47v-2.813h-.47c0 .75-.093 1.172-1.062 1.172h-.547v-2.562h1.516c1.609 0 1.875.734 2.03 1.937h.47l-.313-2.406H.391v.468h1.078v5.844H.39V0H6.75Zm0 0"/><path id="J" d="M4.61-2.016h-.47C4.048-1 3.89-.406 2.579-.406h-.86L4.469-4c.095-.11.11-.125.11-.219 0-.203-.14-.203-.328-.203H.594l-.11 1.734h.47c.046-1.015.359-1.374 1.39-1.374h.844L.406-.437C.312-.328.312-.312.312-.22.313 0 .454 0 .642 0h3.78Zm0 0"/><path id="K" d="m6.734-4.375-.312-2.406H.39v.468h1.078v5.844H.39V0c.375-.031 1.39-.031 1.828-.031.484 0 1.562 0 2.015.031v-.469H2.875v-2.687h.5c.969 0 1.047.422 1.047 1.156h.469v-2.797h-.47c0 .734-.077 1.172-1.046 1.172h-.5v-2.687h1.406c1.594 0 1.828.765 1.985 1.937Zm0 0"/></defs><use xlink:href="#a" x="63.884" y="7.775"/><use xlink:href="#b" x="72.163" y="7.775"/><use xlink:href="#c" x="77.891" y="7.775"/><use xlink:href="#d" x="87.436" y="7.775"/><use xlink:href="#e" x="93.802" y="7.775"/><use xlink:href="#f" x="100.168" y="7.775"/><use xlink:href="#g" x="104.621" y="7.775"/><use xlink:href="#f" x="110.19" y="7.775"/><use xlink:href="#h" x="114.644" y="7.775"/><use xlink:href="#b" x="117.822" y="7.775"/><use xlink:href="#i" x="123.55" y="7.775"/><use xlink:href="#g" x="129.916" y="7.775"/><use xlink:href="#j" x="135.485" y="7.775"/><use xlink:href="#a" x="142.479" y="7.775"/><use xlink:href="#b" x="150.758" y="7.775"/><use xlink:href="#c" x="156.487" y="7.775"/><use xlink:href="#d" x="166.031" y="7.775"/><use xlink:href="#j" x="172.397" y="7.775"/><use xlink:href="#k" x="175.575" y="7.775"/><use xlink:href="#l" x="180.825" y="7.775"/><use xlink:href="#h" x="186.873" y="7.775"/><use xlink:href="#f" x="190.051" y="7.775"/><use xlink:href="#m" x="194.185" y="7.775"/><use xlink:href="#a" x="26.67" y="36.152"/><use xlink:href="#b" x="34.949" y="36.152"/><use xlink:href="#c" x="40.677" y="36.152"/><use xlink:href="#d" x="50.222" y="36.152"/><use xlink:href="#e" x="56.588" y="36.152"/><use xlink:href="#f" x="62.954" y="36.152"/><use xlink:href="#g" x="67.407" y="36.152"/><use xlink:href="#f" x="72.976" y="36.152"/><use xlink:href="#h" x="77.43" y="36.152"/><use xlink:href="#b" x="80.608" y="36.152"/><use xlink:href="#i" x="86.336" y="36.152"/><use xlink:href="#g" x="92.702" y="36.152"/><use xlink:href="#j" x="98.271" y="36.152"/><use xlink:href="#n" x="105.265" y="36.152"/><use xlink:href="#o" x="113.096" y="36.152"/><use xlink:href="#b" x="117.818" y="36.152"/><use xlink:href="#p" x="123.547" y="36.152"/><use xlink:href="#j" x="129.913" y="36.152"/><use xlink:href="#k" x="133.091" y="36.152"/><use xlink:href="#c" x="138.341" y="36.152"/><use xlink:href="#q" x="147.885" y="36.152"/><path fill="none" stroke="#000" stroke-miterlimit="10" stroke-width=".399" d="m120.078 13.29-18.605 12.398"/><use xlink:href="#n" x=".26" y="65.42"/><use xlink:href="#o" x="8.091" y="65.42"/><use xlink:href="#b" x="12.813" y="65.42"/><use xlink:href="#p" x="18.541" y="65.42"/><use xlink:href="#j" x="24.908" y="65.42"/><use xlink:href="#k" x="28.086" y="65.42"/><use xlink:href="#c" x="33.336" y="65.42"/><use xlink:href="#r" x="46.696" y="65.42"/><use xlink:href="#k" x="57.575" y="65.42"/><use xlink:href="#g" x="62.825" y="65.42"/><use xlink:href="#q" x="68.394" y="65.42"/><use xlink:href="#e" x="72.918" y="65.42"/><use xlink:href="#o" x="79.284" y="65.42"/><use xlink:href="#k" x="84.006" y="65.42"/><use xlink:href="#q" x="89.256" y="65.42"/><path fill="none" stroke="#000" stroke-miterlimit="10" stroke-width=".399" d="M77.602 41.605 57.527 54.988"/><use xlink:href="#n" x="32.556" y="64.503"/><use xlink:href="#o" x="40.387" y="64.503"/><use xlink:href="#b" x="45.109" y="64.503"/><use xlink:href="#p" x="50.837" y="64.503"/><use xlink:href="#j" x="57.204" y="64.503"/><use xlink:href="#k" x="60.382" y="64.503"/><use xlink:href="#c" x="65.632" y="64.503"/><use xlink:href="#s" x="78.992" y="64.503"/><use xlink:href="#q" x="87.649" y="64.503"/><use xlink:href="#d" x="92.172" y="64.503"/><use xlink:href="#k" x="98.857" y="64.503"/><use xlink:href="#t" x="104.108" y="64.503"/><use xlink:href="#f" x="109.199" y="64.503"/><use xlink:href="#q" x="113.652" y="64.503"/><path fill="none" stroke="#000" stroke-miterlimit="10" stroke-width=".399" d="m85.559 41.605-6.215 12.426"/><use xlink:href="#n" x="58.646" y="65.42"/><use xlink:href="#o" x="66.477" y="65.42"/><use xlink:href="#b" x="71.199" y="65.42"/><use xlink:href="#p" x="76.927" y="65.42"/><use xlink:href="#j" x="83.294" y="65.42"/><use xlink:href="#k" x="86.472" y="65.42"/><use xlink:href="#c" x="91.722" y="65.42"/><use xlink:href="#u" x="105.082" y="65.42"/><use xlink:href="#b" x="113.869" y="65.42"/><use xlink:href="#c" x="119.597" y="65.42"/><use xlink:href="#g" x="129.142" y="65.42"/><use xlink:href="#h" x="134.711" y="65.42"/><use xlink:href="#i" x="137.889" y="65.42"/><use xlink:href="#q" x="144.255" y="65.42"/><path fill="none" stroke="#000" stroke-miterlimit="10" stroke-width=".399" d="m93.516 41.605 6.691 13.383"/><use xlink:href="#v" x="96.442" y="64.453"/><use xlink:href="#k" x="105.418" y="64.453"/><use xlink:href="#m" x="110.669" y="64.453"/><use xlink:href="#n" x="120.532" y="64.453"/><use xlink:href="#o" x="128.362" y="64.453"/><use xlink:href="#b" x="133.085" y="64.453"/><use xlink:href="#p" x="138.813" y="64.453"/><use xlink:href="#j" x="145.179" y="64.453"/><use xlink:href="#k" x="148.357" y="64.453"/><use xlink:href="#c" x="153.608" y="64.453"/><use xlink:href="#q" x="163.152" y="64.453"/><path fill="none" stroke="#000" stroke-miterlimit="10" stroke-width=".399" d="m101.473 41.605 18.629 12.415"/><use xlink:href="#a" x="60.466" y="36.152"/><use xlink:href="#b" x="68.745" y="36.152"/><use xlink:href="#c" x="74.473" y="36.152"/><use xlink:href="#d" x="84.018" y="36.152"/><use xlink:href="#e" x="90.384" y="36.152"/><use xlink:href="#f" x="96.75" y="36.152"/><use xlink:href="#g" x="101.203" y="36.152"/><use xlink:href="#f" x="106.772" y="36.152"/><use xlink:href="#h" x="111.226" y="36.152"/><use xlink:href="#b" x="114.404" y="36.152"/><use xlink:href="#i" x="120.132" y="36.152"/><use xlink:href="#g" x="126.498" y="36.152"/><use xlink:href="#j" x="132.067" y="36.152"/><use xlink:href="#r" x="139.061" y="36.152"/><use xlink:href="#b" x="149.94" y="36.152"/><use xlink:href="#w" x="155.988" y="36.152"/><use xlink:href="#k" x="162.354" y="36.152"/><use xlink:href="#j" x="167.604" y="36.152"/><use xlink:href="#q" x="170.782" y="36.152"/><path fill="none" stroke="#000" stroke-miterlimit="10" stroke-width=".399" d="m128.063 13.29-6.2 12.398"/><use xlink:href="#x" x="4.972" y="64.448"/><use xlink:href="#e" x="11.986" y="64.448"/><use xlink:href="#o" x="18.352" y="64.448"/><use xlink:href="#h" x="23.074" y="64.448"/><use xlink:href="#i" x="26.252" y="64.448"/><use xlink:href="#y" x="32.618" y="64.448"/><use xlink:href="#r" x="42.163" y="64.448"/><use xlink:href="#g" x="53.042" y="64.448"/><use xlink:href="#t" x="58.611" y="64.448"/><use xlink:href="#z" x="63.383" y="64.448"/><use xlink:href="#h" x="69.749" y="64.448"/><use xlink:href="#i" x="72.927" y="64.448"/><use xlink:href="#k" x="79.293" y="64.448"/><use xlink:href="#q" x="84.544" y="64.448"/><path fill="none" stroke="#000" stroke-miterlimit="10" stroke-width=".399" d="m97.992 41.605-31.031 12.41"/><use xlink:href="#A" x="10.603" y="65.415"/><use xlink:href="#g" x="19.201" y="65.415"/><use xlink:href="#i" x="24.77" y="65.415"/><use xlink:href="#w" x="31.136" y="65.415"/><use xlink:href="#b" x="37.502" y="65.415"/><use xlink:href="#c" x="43.231" y="65.415"/><use xlink:href="#B" x="52.775" y="65.415"/><use xlink:href="#s" x="56.591" y="65.415"/><use xlink:href="#t" x="64.929" y="65.415"/><use xlink:href="#t" x="70.02" y="65.415"/><use xlink:href="#k" x="75.111" y="65.415"/><use xlink:href="#q" x="80.361" y="65.415"/><use xlink:href="#q" x="84.884" y="65.415"/><use xlink:href="#r" x="93.223" y="65.415"/><use xlink:href="#g" x="104.102" y="65.415"/><use xlink:href="#t" x="109.671" y="65.415"/><use xlink:href="#z" x="114.444" y="65.415"/><use xlink:href="#h" x="120.81" y="65.415"/><use xlink:href="#i" x="123.988" y="65.415"/><use xlink:href="#k" x="130.354" y="65.415"/><use xlink:href="#q" x="135.604" y="65.415"/><path fill="none" stroke="#000" stroke-miterlimit="10" stroke-width=".399" d="M105.945 41.605 85.941 54.941"/><use xlink:href="#a" x="83.817" y="65.41"/><use xlink:href="#h" x="92.096" y="65.41"/><use xlink:href="#o" x="95.274" y="65.41"/><use xlink:href="#t" x="99.996" y="65.41"/><use xlink:href="#e" x="105.087" y="65.41"/><use xlink:href="#h" x="111.453" y="65.41"/><use xlink:href="#f" x="114.631" y="65.41"/><use xlink:href="#q" x="119.085" y="65.41"/><path fill="none" stroke="#000" stroke-miterlimit="10" stroke-width=".399" d="m113.906 41.605-6.672 13.34"/><use xlink:href="#C" x="66.365" y="64.409"/><use xlink:href="#h" x="74.514" y="64.409"/><use xlink:href="#i" x="77.693" y="64.409"/><use xlink:href="#g" x="84.059" y="64.409"/><use xlink:href="#o" x="89.628" y="64.409"/><use xlink:href="#m" x="94.35" y="64.409"/><use xlink:href="#u" x="104.213" y="64.409"/><use xlink:href="#k" x="113" y="64.409"/><use xlink:href="#t" x="118.25" y="64.409"/><use xlink:href="#h" x="123.341" y="64.409"/><use xlink:href="#q" x="126.519" y="64.409"/><use xlink:href="#h" x="131.042" y="64.409"/><use xlink:href="#b" x="134.221" y="64.409"/><use xlink:href="#i" x="139.949" y="64.409"/><use xlink:href="#u" x="150.131" y="64.409"/><use xlink:href="#h" x="158.918" y="64.409"/><use xlink:href="#g" x="162.096" y="64.409"/><use xlink:href="#y" x="167.665" y="64.409"/><use xlink:href="#o" x="173.394" y="64.409"/><use xlink:href="#g" x="178.116" y="64.409"/><use xlink:href="#c" x="183.685" y="64.409"/><use xlink:href="#q" x="193.229" y="64.409"/><path fill="none" stroke="#000" stroke-miterlimit="10" stroke-width=".399" d="m121.863 41.605 6.227 12.45"/><use xlink:href="#D" x="118.836" y="65.41"/><use xlink:href="#o" x="127.444" y="65.41"/><use xlink:href="#g" x="132.166" y="65.41"/><use xlink:href="#t" x="137.735" y="65.41"/><use xlink:href="#j" x="142.826" y="65.41"/><use xlink:href="#k" x="146.004" y="65.41"/><use xlink:href="#r" x="155.07" y="65.41"/><use xlink:href="#g" x="165.949" y="65.41"/><use xlink:href="#t" x="171.518" y="65.41"/><use xlink:href="#z" x="176.291" y="65.41"/><use xlink:href="#h" x="182.657" y="65.41"/><use xlink:href="#i" x="185.835" y="65.41"/><use xlink:href="#k" x="192.201" y="65.41"/><use xlink:href="#q" x="197.451" y="65.41"/><path fill="none" stroke="#000" stroke-miterlimit="10" stroke-width=".399" d="m129.82 41.605 20.016 13.34"/><use xlink:href="#n" x="132.522" y="64.409"/><use xlink:href="#o" x="140.353" y="64.409"/><use xlink:href="#b" x="145.075" y="64.409"/><use xlink:href="#y" x="150.803" y="64.409"/><use xlink:href="#o" x="156.532" y="64.409"/><use xlink:href="#g" x="161.254" y="64.409"/><use xlink:href="#c" x="166.823" y="64.409"/><use xlink:href="#c" x="176.368" y="64.409"/><use xlink:href="#h" x="185.912" y="64.409"/><use xlink:href="#i" x="189.09" y="64.409"/><use xlink:href="#y" x="195.456" y="64.409"/><use xlink:href="#h" x="205" y="64.409"/><use xlink:href="#i" x="208.178" y="64.409"/><use xlink:href="#E" x="218.36" y="64.409"/><use xlink:href="#b" x="225.254" y="64.409"/><use xlink:href="#y" x="230.983" y="64.409"/><use xlink:href="#h" x="236.711" y="64.409"/><use xlink:href="#t" x="239.889" y="64.409"/><path fill="none" stroke="#000" stroke-miterlimit="10" stroke-width=".399" d="m137.781 41.605 31.13 12.45"/><use xlink:href="#r" x="89.156" y="36.117"/><use xlink:href="#k" x="100.035" y="36.117"/><use xlink:href="#g" x="105.286" y="36.117"/><use xlink:href="#q" x="110.855" y="36.117"/><use xlink:href="#e" x="115.378" y="36.117"/><use xlink:href="#o" x="121.744" y="36.117"/><use xlink:href="#h" x="126.466" y="36.117"/><use xlink:href="#i" x="129.644" y="36.117"/><use xlink:href="#y" x="136.01" y="36.117"/><use xlink:href="#a" x="145.555" y="36.117"/><use xlink:href="#b" x="153.833" y="36.117"/><use xlink:href="#c" x="159.562" y="36.117"/><use xlink:href="#d" x="169.106" y="36.117"/><use xlink:href="#j" x="175.472" y="36.117"/><use xlink:href="#k" x="178.65" y="36.117"/><use xlink:href="#l" x="183.901" y="36.117"/><use xlink:href="#h" x="189.948" y="36.117"/><use xlink:href="#f" x="193.126" y="36.117"/><use xlink:href="#m" x="197.261" y="36.117"/><path fill="none" stroke="#000" stroke-miterlimit="10" stroke-width=".399" d="m136.05 13.29 6.184 12.362"/><use xlink:href="#a" x="49.386" y="64.468"/><use xlink:href="#b" x="57.665" y="64.468"/><use xlink:href="#c" x="63.393" y="64.468"/><use xlink:href="#d" x="72.938" y="64.468"/><use xlink:href="#j" x="79.304" y="64.468"/><use xlink:href="#k" x="82.482" y="64.468"/><use xlink:href="#l" x="87.732" y="64.468"/><use xlink:href="#h" x="93.78" y="64.468"/><use xlink:href="#f" x="96.958" y="64.468"/><use xlink:href="#m" x="101.092" y="64.468"/><use xlink:href="#r" x="110.955" y="64.468"/><use xlink:href="#k" x="121.834" y="64.468"/><use xlink:href="#g" x="127.085" y="64.468"/><use xlink:href="#q" x="132.654" y="64.468"/><use xlink:href="#e" x="137.177" y="64.468"/><use xlink:href="#o" x="143.543" y="64.468"/><use xlink:href="#k" x="148.265" y="64.468"/><use xlink:href="#q" x="153.516" y="64.468"/><path fill="none" stroke="#000" stroke-miterlimit="10" stroke-width=".399" d="m134.242 41.64-18.55 12.364"/><use xlink:href="#a" x="74.24" y="64.478"/><use xlink:href="#j" x="82.519" y="64.478"/><use xlink:href="#g" x="85.697" y="64.478"/><use xlink:href="#q" x="91.266" y="64.478"/><use xlink:href="#q" x="95.789" y="64.478"/><use xlink:href="#h" x="100.312" y="64.478"/><use xlink:href="#F" x="103.49" y="64.478"/><use xlink:href="#m" x="106.987" y="64.478"/><use xlink:href="#h" x="113.035" y="64.478"/><use xlink:href="#i" x="116.213" y="64.478"/><use xlink:href="#y" x="122.579" y="64.478"/><use xlink:href="#a" x="132.123" y="64.478"/><use xlink:href="#b" x="140.402" y="64.478"/><use xlink:href="#c" x="146.13" y="64.478"/><use xlink:href="#d" x="155.675" y="64.478"/><use xlink:href="#j" x="162.041" y="64.478"/><use xlink:href="#k" x="165.219" y="64.478"/><use xlink:href="#l" x="170.469" y="64.478"/><use xlink:href="#h" x="176.516" y="64.478"/><use xlink:href="#f" x="179.695" y="64.478"/><use xlink:href="#m" x="183.829" y="64.478"/><path fill="none" stroke="#000" stroke-miterlimit="10" stroke-width=".399" d="m142.234 41.64-6.172 12.344"/><use xlink:href="#a" x="101.879" y="64.463"/><use xlink:href="#b" x="110.158" y="64.463"/><use xlink:href="#c" x="115.886" y="64.463"/><use xlink:href="#d" x="125.431" y="64.463"/><use xlink:href="#g" x="131.797" y="64.463"/><use xlink:href="#o" x="137.366" y="64.463"/><use xlink:href="#h" x="142.088" y="64.463"/><use xlink:href="#i" x="145.266" y="64.463"/><use xlink:href="#y" x="151.632" y="64.463"/><use xlink:href="#a" x="161.177" y="64.463"/><use xlink:href="#b" x="169.456" y="64.463"/><use xlink:href="#c" x="175.184" y="64.463"/><use xlink:href="#d" x="184.728" y="64.463"/><use xlink:href="#j" x="191.094" y="64.463"/><use xlink:href="#k" x="194.273" y="64.463"/><use xlink:href="#l" x="199.523" y="64.463"/><use xlink:href="#h" x="205.57" y="64.463"/><use xlink:href="#f" x="208.748" y="64.463"/><use xlink:href="#m" x="212.883" y="64.463"/><path fill="none" stroke="#000" stroke-miterlimit="10" stroke-width=".399" d="M150.227 41.64 156.41 54"/><use xlink:href="#u" x="131.372" y="64.463"/><use xlink:href="#k" x="140.159" y="64.463"/><use xlink:href="#q" x="145.409" y="64.463"/><use xlink:href="#t" x="149.932" y="64.463"/><use xlink:href="#o" x="155.023" y="64.463"/><use xlink:href="#h" x="159.746" y="64.463"/><use xlink:href="#p" x="162.924" y="64.463"/><use xlink:href="#h" x="169.29" y="64.463"/><use xlink:href="#i" x="172.468" y="64.463"/><use xlink:href="#y" x="178.834" y="64.463"/><use xlink:href="#a" x="188.378" y="64.463"/><use xlink:href="#b" x="196.657" y="64.463"/><use xlink:href="#c" x="202.386" y="64.463"/><use xlink:href="#d" x="211.93" y="64.463"/><use xlink:href="#j" x="218.296" y="64.463"/><use xlink:href="#k" x="221.474" y="64.463"/><use xlink:href="#l" x="226.724" y="64.463"/><use xlink:href="#h" x="232.772" y="64.463"/><use xlink:href="#f" x="235.95" y="64.463"/><use xlink:href="#m" x="240.084" y="64.463"/><path fill="none" stroke="#000" stroke-miterlimit="10" stroke-width=".399" d="M158.219 41.64 176.766 54"/><use xlink:href="#G" x="130.802" y="36.117"/><use xlink:href="#b" x="137.168" y="36.117"/><use xlink:href="#j" x="142.897" y="36.117"/><use xlink:href="#H" x="146.075" y="36.117"/><use xlink:href="#h" x="152.122" y="36.117"/><use xlink:href="#i" x="155.3" y="36.117"/><use xlink:href="#y" x="161.666" y="36.117"/><use xlink:href="#n" x="171.21" y="36.117"/><use xlink:href="#o" x="179.041" y="36.117"/><use xlink:href="#b" x="183.763" y="36.117"/><use xlink:href="#p" x="189.492" y="36.117"/><use xlink:href="#j" x="195.858" y="36.117"/><use xlink:href="#k" x="199.036" y="36.117"/><use xlink:href="#c" x="204.286" y="36.117"/><use xlink:href="#q" x="213.831" y="36.117"/><path fill="none" stroke="#000" stroke-miterlimit="10" stroke-width=".399" d="m144.04 13.29 18.55 12.362"/><use xlink:href="#I" x="59.418" y="64.468"/><use xlink:href="#l" x="66.95" y="64.468"/><use xlink:href="#g" x="72.997" y="64.468"/><use xlink:href="#t" x="78.566" y="64.468"/><use xlink:href="#f" x="83.657" y="64.468"/><use xlink:href="#s" x="91.926" y="64.468"/><use xlink:href="#j" x="100.584" y="64.468"/><use xlink:href="#y" x="103.762" y="64.468"/><use xlink:href="#b" x="109.49" y="64.468"/><use xlink:href="#o" x="115.219" y="64.468"/><use xlink:href="#h" x="119.941" y="64.468"/><use xlink:href="#f" x="123.119" y="64.468"/><use xlink:href="#z" x="127.572" y="64.468"/><use xlink:href="#c" x="133.939" y="64.468"/><use xlink:href="#q" x="143.483" y="64.468"/><path fill="none" stroke="#000" stroke-miterlimit="10" stroke-width=".399" d="m154.598 41.64-30.895 12.356"/><use xlink:href="#A" x="94.191" y="65.395"/><use xlink:href="#g" x="102.789" y="65.395"/><use xlink:href="#i" x="108.358" y="65.395"/><use xlink:href="#w" x="114.724" y="65.395"/><use xlink:href="#b" x="121.09" y="65.395"/><use xlink:href="#c" x="126.819" y="65.395"/><use xlink:href="#h" x="136.363" y="65.395"/><use xlink:href="#J" x="139.541" y="65.395"/><use xlink:href="#g" x="144.632" y="65.395"/><use xlink:href="#f" x="150.201" y="65.395"/><use xlink:href="#h" x="154.654" y="65.395"/><use xlink:href="#b" x="157.832" y="65.395"/><use xlink:href="#i" x="163.561" y="65.395"/><path fill="none" stroke="#000" stroke-miterlimit="10" stroke-width=".399" d="m162.59 41.64-19.985 13.32"/><use xlink:href="#K" x="88.226" y="64.468"/><use xlink:href="#h" x="95.439" y="64.468"/><use xlink:href="#l" x="98.617" y="64.468"/><use xlink:href="#k" x="104.664" y="64.468"/><use xlink:href="#w" x="109.915" y="64.468"/><use xlink:href="#B" x="116.281" y="64.468"/><use xlink:href="#n" x="120.096" y="64.468"/><use xlink:href="#g" x="127.608" y="64.468"/><use xlink:href="#o" x="133.177" y="64.468"/><use xlink:href="#g" x="137.9" y="64.468"/><use xlink:href="#c" x="143.469" y="64.468"/><use xlink:href="#k" x="153.013" y="64.468"/><use xlink:href="#f" x="158.263" y="64.468"/><use xlink:href="#k" x="162.717" y="64.468"/><use xlink:href="#o" x="167.967" y="64.468"/><use xlink:href="#s" x="176.505" y="64.468"/><use xlink:href="#j" x="185.162" y="64.468"/><use xlink:href="#y" x="188.341" y="64.468"/><use xlink:href="#b" x="194.069" y="64.468"/><use xlink:href="#o" x="199.798" y="64.468"/><use xlink:href="#h" x="204.52" y="64.468"/><use xlink:href="#f" x="207.698" y="64.468"/><use xlink:href="#z" x="212.151" y="64.468"/><use xlink:href="#c" x="218.517" y="64.468"/><use xlink:href="#q" x="228.062" y="64.468"/><path fill="none" stroke="#000" stroke-miterlimit="10" stroke-width=".399" d="m170.582 41.64-6.18 12.356"/><use xlink:href="#n" x="134.749" y="64.498"/><use xlink:href="#g" x="142.261" y="64.498"/><use xlink:href="#o" x="147.83" y="64.498"/><use xlink:href="#g" x="152.552" y="64.498"/><use xlink:href="#j" x="158.121" y="64.498"/><use xlink:href="#j" x="161.299" y="64.498"/><use xlink:href="#k" x="164.478" y="64.498"/><use xlink:href="#j" x="169.728" y="64.498"/><use xlink:href="#a" x="176.722" y="64.498"/><use xlink:href="#b" x="185.001" y="64.498"/><use xlink:href="#c" x="190.729" y="64.498"/><use xlink:href="#d" x="200.273" y="64.498"/><use xlink:href="#e" x="206.639" y="64.498"/><use xlink:href="#f" x="213.006" y="64.498"/><use xlink:href="#g" x="217.459" y="64.498"/><use xlink:href="#f" x="223.028" y="64.498"/><use xlink:href="#h" x="227.481" y="64.498"/><use xlink:href="#b" x="230.659" y="64.498"/><use xlink:href="#i" x="236.388" y="64.498"/><path fill="none" stroke="#000" stroke-miterlimit="10" stroke-width=".399" d="m178.574 41.64 6.2 12.395"/><use xlink:href="#n" x="175.155" y="65.41"/><use xlink:href="#g" x="182.667" y="65.41"/><use xlink:href="#o" x="188.236" y="65.41"/><use xlink:href="#f" x="192.958" y="65.41"/><use xlink:href="#h" x="197.412" y="65.41"/><use xlink:href="#g" x="200.59" y="65.41"/><use xlink:href="#j" x="206.159" y="65.41"/><use xlink:href="#G" x="213.153" y="65.41"/><use xlink:href="#b" x="219.519" y="65.41"/><use xlink:href="#j" x="225.247" y="65.41"/><use xlink:href="#e" x="228.425" y="65.41"/><use xlink:href="#f" x="234.791" y="65.41"/><use xlink:href="#h" x="239.245" y="65.41"/><use xlink:href="#b" x="242.423" y="65.41"/><use xlink:href="#i" x="248.151" y="65.41"/><use xlink:href="#q" x="254.517" y="65.41"/><path fill="none" stroke="#000" stroke-miterlimit="10" stroke-width=".399" d="m186.566 41.64 19.965 13.305"/><use xlink:href="#s" x="207.651" y="64.503"/><use xlink:href="#d" x="216.309" y="64.503"/><use xlink:href="#d" x="222.675" y="64.503"/><use xlink:href="#o" x="229.041" y="64.503"/><use xlink:href="#b" x="233.763" y="64.503"/><use xlink:href="#l" x="239.173" y="64.503"/><use xlink:href="#h" x="245.22" y="64.503"/><use xlink:href="#c" x="248.398" y="64.503"/><use xlink:href="#g" x="257.942" y="64.503"/><use xlink:href="#f" x="263.512" y="64.503"/><use xlink:href="#h" x="267.965" y="64.503"/><use xlink:href="#b" x="271.143" y="64.503"/><use xlink:href="#i" x="276.871" y="64.503"/><path fill="none" stroke="#000" stroke-miterlimit="10" stroke-width=".399" d="m194.563 41.64 30.976 12.391"/></svg>