<svg xmlns="http://www.w3.org/2000/svg" width="58.706" height="7.202"><path fill="none" stroke="#000" stroke-miterlimit="10" stroke-width=".399" d="M1.258 3.207h55.894"/><path fill="none" stroke="#000" stroke-linecap="round" stroke-linejoin="round" stroke-miterlimit="10" stroke-width=".399" d="M8.07 5.598C7.695 4.164 6.852 3.484 6 3.207c.852-.277 1.695-.957 2.07-2.39M5.602 5.598c-.38-1.434-1.223-2.114-2.075-2.391.852-.277 1.696-.957 2.075-2.39M3.129 5.598C2.75 4.164 1.91 3.484 1.059 3.207 1.91 2.93 2.75 2.25 3.129.817M47.867.816c.38 1.434 1.223 2.114 2.074 2.391-.851.277-1.695.957-2.074 2.39M50.34.816c.379 1.434 1.222 2.114 2.07 2.391-.847.277-1.691.957-2.07 2.39M52.809.816c.379 1.434 1.222 2.114 2.074 2.391-.852.277-1.696.957-2.074 2.39M55.281.816c.38 1.434 1.223 2.114 2.07 2.391-.847.277-1.69.957-2.07 2.39"/></svg>