<svg xmlns="http://www.w3.org/2000/svg" width="48.188" height="11.666"><defs><clipPath id="a"><path d="M0 0h47.781v11.5H0Zm0 0"/></clipPath><clipPath id="b"><path d="M0 0h10v11.5H0Zm0 0"/></clipPath><clipPath id="c"><path d="M23 0h16v11.5H23Zm0 0"/></clipPath><clipPath id="d"><path d="M37 0h10.781v11H37Zm0 0"/></clipPath></defs><g clip-path="url(#a)"><path fill="none" stroke="#BFBFBF" stroke-miterlimit="10" stroke-width=".399" d="m2.43 8.508 14.172-5.672 14.171 5.672L44.95 2.836"/></g><g clip-path="url(#b)"><path fill="none" stroke="#000" stroke-miterlimit="10" stroke-width=".399" d="M2.43 10.5V6.512m1.722.996L.703 9.504m3.45 0L.702 7.508"/></g><path fill="none" stroke="#000" stroke-miterlimit="10" stroke-width=".399" d="M16.602 4.828V.844m1.726.996-3.453 1.992m3.453 0L14.875 1.84"/><g clip-path="url(#c)"><path fill="none" stroke="#000" stroke-miterlimit="10" stroke-width=".399" d="M30.773 10.5V6.512m1.727.996-3.45 1.996m3.45 0-3.45-1.996"/></g><g clip-path="url(#d)"><path fill="none" stroke="#000" stroke-miterlimit="10" stroke-width=".399" d="M44.95 4.828V.844m1.722.996-3.45 1.992m3.45 0-3.45-1.992"/></g></svg>