<svg xmlns="http://www.w3.org/2000/svg" width="63.201" height="90.2"><defs><clipPath id="a"><path d="M0 0h62.8v89.8H0Zm0 0"/></clipPath></defs><g clip-path="url(#a)"><path fill="none" stroke="#000" stroke-miterlimit="10" stroke-width=".399" d="m20.309 88.59 5.09-1.348 5.265-1.672 5.281-1.984 5.14-2.273 4.837-2.528 4.394-2.738 3.813-2.906 3.117-3.016 2.324-3.078 1.465-3.074.559-3.02-.364-2.906-1.277-2.738-2.148-2.528-2.957-2.27-3.672-1.988-4.281-1.671-4.758-1.348-5.086-1.016-5.266-.687-5.285-.375-5.137-.09-4.84.16-4.39.379-3.813.543-3.117.656-2.328.715-1.465.715-.558.656.367.543 1.273.375 2.149.164 2.957-.09 3.675-.375 4.282-.687 4.754-1.016 5.09-1.347 5.265-1.676 5.281-1.985 5.14-2.27 4.837-2.526 4.394-2.739 3.813-2.906 3.117-3.02 2.324-3.074 1.465-3.078.559-3.02-.364-2.902-1.277-2.742-2.148-2.523-2.957-2.274-3.672-1.984-4.281-1.672-4.758-1.348-5.086-1.015-5.266-.688L26.5.906l-5.137-.09-4.84.164-4.39.38-3.813.542-3.117.657-2.328.71-1.465.715-.558.657.367.543 1.273.378 2.149.165 2.957-.09 3.675-.38 4.282-.687 4.754-1.015"/></g></svg>