<svg xmlns="http://www.w3.org/2000/svg" xmlns:xlink="http://www.w3.org/1999/xlink" width="126.224" height="23.366"><defs><clipPath id="a"><path d="M0 6h16v17.05H0Zm0 0"/></clipPath><clipPath id="c"><path d="M33 6h21v17.05H33Zm0 0"/></clipPath><clipPath id="d"><path d="M71 6h22v17.05H71Zm0 0"/></clipPath><clipPath id="e"><path d="M109 6h16.836v17.05H109Zm0 0"/></clipPath><path id="b" d="M3.89-3.734c-.265.015-.468.234-.468.453 0 .14.094.297.312.297.22 0 .454-.172.454-.563 0-.453-.422-.86-1.188-.86-1.312 0-1.687 1.016-1.687 1.454 0 .781.734.922 1.03.984.516.11 1.032.219 1.032.766 0 .25-.219 1.094-1.422 1.094-.14 0-.906 0-1.14-.532.39.047.64-.25.64-.53 0-.22-.172-.345-.375-.345-.266 0-.562.204-.562.657 0 .562.578.968 1.422.968 1.625 0 2.015-1.203 2.015-1.656a.97.97 0 0 0-.312-.719c-.266-.28-.563-.343-1-.421-.36-.079-.75-.157-.75-.61 0-.281.234-.89 1.109-.89.25 0 .75.078.89.453m0 0"/><path id="f" d="M2.047-3.984h.937c.204 0 .313 0 .313-.203 0-.11-.11-.11-.281-.11H2.14c.359-1.422.406-1.61.406-1.672 0-.172-.125-.265-.297-.265-.031 0-.312 0-.39.359l-.391 1.578H.53c-.203 0-.297 0-.297.188 0 .125.078.125.282.125h.875C.67-1.156.625-.984.625-.812c0 .546.375.921.922.921 1.016 0 1.578-1.453 1.578-1.53 0-.11-.078-.11-.11-.11-.093 0-.109.031-.156.14C2.438-.344 1.906-.109 1.563-.109c-.204 0-.313-.125-.313-.453 0-.25.031-.313.063-.485Zm0 0"/></defs><g clip-path="url(#a)"><path fill="none" stroke="#000" stroke-miterlimit="10" stroke-width=".399" d="M10.21 17.137a4.695 4.695 0 0 0-4.694-4.696A4.695 4.695 0 0 0 .82 17.137a4.695 4.695 0 0 0 4.696 4.695 4.695 4.695 0 0 0 4.695-4.695Zm0 0"/></g><use xlink:href="#b" x="3.181" y="6.317"/><g clip-path="url(#c)"><path fill="none" stroke="#000" stroke-miterlimit="10" stroke-width=".399" d="M48.352 17.137a4.698 4.698 0 0 0-9.395 0 4.698 4.698 0 0 0 9.395 0Zm0 0"/></g><path fill="none" stroke="#000" stroke-miterlimit="10" stroke-width=".399" d="M38.758 17.137H10.41"/><g clip-path="url(#d)"><path fill="none" stroke="#000" stroke-miterlimit="10" stroke-width=".399" d="M86.488 17.137a4.698 4.698 0 0 0-9.395 0 4.698 4.698 0 0 0 9.395 0Zm0 0"/></g><path fill="none" stroke="#000" stroke-miterlimit="10" stroke-width=".399" d="M76.895 17.137H48.55"/><g clip-path="url(#e)"><path fill="none" stroke="#000" stroke-miterlimit="10" stroke-width=".399" d="M124.625 17.137a4.695 4.695 0 0 0-4.695-4.696 4.695 4.695 0 0 0-4.696 4.696 4.695 4.695 0 0 0 4.696 4.695 4.695 4.695 0 0 0 4.695-4.695Zm0 0"/></g><use xlink:href="#f" x="118.13" y="6.933"/><path fill="none" stroke="#000" stroke-miterlimit="10" stroke-width=".399" d="M115.035 17.137H86.688"/></svg>