<svg xmlns="http://www.w3.org/2000/svg" xmlns:xlink="http://www.w3.org/1999/xlink" width="148.113" height="156.422"><defs><path id="a" d="M4.5-4.297c0-.047-.031-.094-.094-.094-.11 0-.515.391-.672.688-.218-.547-.609-.703-.937-.703-1.172 0-2.39 1.468-2.39 2.922C.406-.516.983.109 1.718.109c.422 0 .812-.234 1.172-.593-.094.343-.422 1.687-.453 1.78-.079.282-.157.313-.72.329-.124 0-.218 0-.218.203 0 0 0 .11.125.11.313 0 .672-.032 1-.032s.688.032 1.031.032c.047 0 .172 0 .172-.204 0-.109-.094-.109-.265-.109-.47 0-.47-.062-.47-.156 0-.078.016-.14.032-.219ZM1.75-.109c-.61 0-.64-.766-.64-.938 0-.484.28-1.562.452-1.984.313-.735.829-1.156 1.235-1.156.656 0 .797.812.797.875s-.547 2.25-.578 2.28c-.157.282-.72.923-1.266.923m0 0"/><path id="b" d="M3.594-2.219c0-.765-.094-1.328-.406-1.812-.22-.313-.657-.594-1.204-.594C.36-4.625.36-2.719.36-2.219s0 2.36 1.625 2.36c1.61 0 1.61-1.86 1.61-2.36M1.984-.062c-.328 0-.75-.188-.89-.75C1-1.22 1-1.797 1-2.312c0-.516 0-1.047.094-1.422.156-.547.593-.703.89-.703.375 0 .735.234.86.64.11.375.125.875.125 1.485 0 .515 0 1.03-.094 1.468-.14.64-.61.782-.89.782m0 0"/><path id="g" d="M2.328-4.437c0-.188 0-.188-.203-.188-.453.438-1.078.438-1.36.438v.25c.157 0 .626 0 1-.188v3.547c0 .234 0 .328-.687.328H.812V0c.125 0 .985-.031 1.235-.031.219 0 1.094.031 1.25.031v-.25H3.03c-.703 0-.703-.094-.703-.328Zm0 0"/><path id="h" d="M3.516-1.266H3.28c-.015.157-.094.563-.187.625-.047.047-.578.047-.688.047H1.125c.734-.64.984-.843 1.39-1.172.516-.406 1-.843 1-1.5 0-.843-.734-1.359-1.624-1.359-.86 0-1.453.61-1.453 1.25 0 .344.296.39.375.39.156 0 .359-.124.359-.374 0-.125-.047-.375-.406-.375.218-.485.687-.641 1.015-.641.703 0 1.063.547 1.063 1.11 0 .609-.438 1.078-.656 1.328L.516-.266C.437-.203.437-.187.437 0h2.876Zm0 0"/><path id="k" d="M1.906-2.328c.547 0 .938.375.938 1.125 0 .86-.516 1.125-.906 1.125-.282 0-.907-.078-1.188-.5.328 0 .406-.235.406-.39 0-.22-.172-.376-.39-.376a.38.38 0 0 0-.391.407C.375-.281 1.094.14 1.938.14c.968 0 1.64-.657 1.64-1.344 0-.547-.437-1.094-1.203-1.25.719-.266.984-.781.984-1.219 0-.547-.625-.953-1.406-.953-.766 0-1.36.375-1.36.938 0 .234.157.359.36.359.219 0 .36-.156.36-.344 0-.203-.141-.36-.36-.375.25-.297.719-.375.985-.375.312 0 .75.156.75.75 0 .297-.094.625-.282.828-.219.266-.422.281-.765.313-.172.015-.188.015-.22.015-.015 0-.077.016-.077.094 0 .094.062.094.187.094Zm0 0"/><path id="c" d="M4.14-1.39c0-.438-.202-.782-.546-1.063-.39-.281-.719-.344-1.485-.485-.375-.062-1.015-.171-1.015-.64 0-.625.922-.625 1.11-.625.75 0 1.124.297 1.171.844.016.156.031.203.234.203.235 0 .235-.047.235-.281v-.797c0-.188 0-.282-.172-.282-.047 0-.063 0-.453.188-.266-.125-.61-.188-1-.188-.313 0-1.844 0-1.844 1.313 0 .39.203.656.406.828.39.344.782.406 1.547.547.36.062 1.094.187 1.094.781 0 .75-.906.75-1.125.75C1.234-.297.984-1.03.859-1.453c-.046-.14-.109-.14-.234-.14-.25 0-.25.062-.25.28v1.094c0 .188 0 .282.188.282.062 0 .078 0 .296-.157l.25-.172c.47.329.985.329 1.188.329.312 0 1.844 0 1.844-1.454m0 0"/><path id="d" d="M3.813-1.234v-.532h-.47v.516c0 .672-.327.906-.609.906-.578 0-.578-.64-.578-.86v-2.75h1.469v-.468H2.156v-1.906h-.469c0 1-.484 1.984-1.484 2.016v.359h.828v2.734c0 1.063.86 1.282 1.578 1.282.75 0 1.204-.579 1.204-1.297m0 0"/><path id="e" d="M5.516-.234c0-.235-.125-.235-.266-.235-.61-.015-.61-.14-.61-.375v-2.14c0-.891-.702-1.532-2.187-1.532-.562 0-1.781.047-1.781.922 0 .438.344.625.61.625.312 0 .624-.219.624-.625 0-.297-.187-.469-.218-.5a5 5 0 0 1 .718-.062c.75 0 1.11.422 1.11 1.172v.343c-.72.032-3.25.125-3.25 1.563C.266-.125 1.5.062 2.188.062c.796 0 1.265-.406 1.484-.828 0 .313 0 .766 1.047.766h.468c.204 0 .329 0 .329-.234m-2-1.157c0 .97-.922 1.094-1.172 1.094-.516 0-.906-.344-.906-.797 0-1.062 1.578-1.203 2.078-1.234Zm0 0"/><path id="f" d="M4.406-3.672c0-.531-.531-.812-1.062-.812-.688 0-1.094.5-1.313 1.125v-1.125l-1.656.078v.468c.61 0 .688 0 .688.391v3.078H.375V0l1.25-.031C2-.031 2.641-.031 3 0v-.469h-.86v-1.75c0-.687.235-1.906 1.235-1.906 0 0-.187.172-.187.453 0 .406.328.61.609.61.297 0 .61-.204.61-.61m0 0"/><path id="l" d="M5.281-3.187c0-.954-.015-3.344-2.422-3.344S.453-4.156.453-3.188c0 1 0 3.297 2.406 3.297 2.391 0 2.422-2.296 2.422-3.296M4-3.297c0 .563 0 1.469-.078 1.985-.14.921-.766 1.062-1.063 1.062-.359 0-.921-.219-1.046-.953-.094-.516-.094-1.547-.094-2.094 0-.719 0-1.375.078-1.89.125-.891.828-.985 1.062-.985.375 0 .782.188.97.625C4-5.172 4-4.109 4-3.297m0 0"/><path id="m" d="M4.922 0v-.469h-1.39v-5.734c0-.234 0-.328-.266-.328-.11 0-.125 0-.22.078-.765.562-1.796.562-2 .562H.845v.47h.203c.156 0 .703-.016 1.297-.204v5.156H.954V0c.437-.031 1.5-.031 1.984-.031s1.546 0 1.984.031m0 0"/><clipPath id="i"><path d="M101 45h46.668v66H101Zm0 0"/></clipPath><clipPath id="j"><path d="M112 57h35.668v42H112Zm0 0"/></clipPath></defs><path fill="none" stroke="#7F7F7F" stroke-miterlimit="10" stroke-width=".199" d="M53.332 77.984h85.04m-85.04-28.347h85.04M53.331 21.3h85.04m-85.04 56.683V21.29M81.68 77.984V21.29m28.347 56.695V21.29m28.336 56.695V21.29"/><path fill="none" stroke="#000" stroke-miterlimit="10" stroke-width=".399" d="M65.785 77.984c0-6.879-5.574-12.453-12.453-12.453s-12.453 5.574-12.453 12.453c0 6.88 5.574 12.454 12.453 12.454s12.453-5.575 12.453-12.454Zm0 0"/><use xlink:href="#a" x="48.874" y="79.16"/><use xlink:href="#b" x="53.322" y="80.655"/><path fill="none" stroke="#000" stroke-miterlimit="10" stroke-width=".399" d="M27.41 77.984h11.875"/><path fill="none" stroke="#000" stroke-linecap="round" stroke-linejoin="round" stroke-miterlimit="10" stroke-width=".399" d="M37.41 75.594c.38 1.433 1.223 2.11 2.074 2.39-.851.278-1.695.957-2.074 2.391"/><use xlink:href="#c" x=".17" y="81.117"/><use xlink:href="#d" x="4.693" y="81.117"/><use xlink:href="#e" x="9.146" y="81.117"/><use xlink:href="#f" x="14.715" y="81.117"/><use xlink:href="#d" x="19.437" y="81.117"/><path fill="none" stroke="#000" stroke-miterlimit="10" stroke-width=".399" d="M105.875 37.895c0-6.875-5.574-12.454-12.453-12.454S80.969 31.02 80.969 37.895c0 6.878 5.574 12.453 12.453 12.453s12.453-5.575 12.453-12.453Zm0 0"/><use xlink:href="#a" x="88.963" y="39.072"/><use xlink:href="#g" x="93.409" y="40.567"/><path fill="none" stroke="#000" stroke-miterlimit="10" stroke-width=".399" d="M105.875 118.074c0-6.879-5.574-12.457-12.453-12.457s-12.453 5.578-12.453 12.457c0 6.875 5.574 12.453 12.453 12.453s12.453-5.578 12.453-12.453Zm0 0"/><use xlink:href="#a" x="88.963" y="119.248"/><use xlink:href="#h" x="93.409" y="120.743"/><g clip-path="url(#i)"><path fill="none" stroke="#000" stroke-miterlimit="10" stroke-width="1.395" d="M145.965 77.984c0-6.879-5.578-12.453-12.457-12.453-6.875 0-12.453 5.574-12.453 12.453 0 6.88 5.578 12.454 12.453 12.454 6.879 0 12.457-5.575 12.457-12.454Zm0 0"/></g><g clip-path="url(#j)"><path fill="none" stroke="#FFF" stroke-miterlimit="10" stroke-width=".598" d="M145.965 77.984c0-6.879-5.578-12.453-12.457-12.453-6.875 0-12.453 5.574-12.453 12.453 0 6.88 5.578 12.454 12.453 12.454 6.879 0 12.457-5.575 12.457-12.454Zm0 0"/></g><use xlink:href="#a" x="129.05" y="79.16"/><use xlink:href="#k" x="133.498" y="80.655"/><path fill="none" stroke="#000" stroke-miterlimit="10" stroke-width=".399" d="m62.281 69.04 21.207-21.212"/><path fill="none" stroke="#000" stroke-linecap="round" stroke-linejoin="round" stroke-miterlimit="10" stroke-width=".39899601" d="M80.473 47.46c1.28.75 2.359.63 3.156.227-.402.797-.52 1.875.226 3.157"/><use xlink:href="#l" x="64.129" y="54.311"/><path fill="none" stroke="#000" stroke-miterlimit="10" stroke-width=".399" d="m62.281 86.93 21.207 21.21"/><path fill="none" stroke="#000" stroke-linecap="round" stroke-linejoin="round" stroke-miterlimit="10" stroke-width=".39899601" d="M83.855 105.125c-.746 1.281-.628 2.355-.226 3.156-.797-.406-1.875-.523-3.156.223"/><use xlink:href="#m" x="64.129" y="108.073"/><path fill="none" stroke="#000" stroke-miterlimit="10" stroke-width=".399" d="m102.367 46.844 20.996 20.996"/><path fill="none" stroke="#000" stroke-linecap="round" stroke-linejoin="round" stroke-miterlimit="10" stroke-width=".39899601" d="M123.73 64.824c-.746 1.281-.628 2.36-.222 3.156-.801-.402-1.875-.52-3.156.227"/><use xlink:href="#m" x="116.879" y="54.315"/><path fill="none" stroke="#000" stroke-miterlimit="10" stroke-width=".399" d="M90.148 25.676c-5.164-19.274 11.043-19.727 6.883-1.36"/><path fill="none" stroke="#000" stroke-linecap="round" stroke-linejoin="round" stroke-miterlimit="10" stroke-width=".39897207" d="M99.793 23.059c-1.484.035-2.34.699-2.809 1.46-.074-.89-.535-1.867-1.843-2.57"/><use xlink:href="#l" x="90.556" y="7.245"/><path fill="none" stroke="#000" stroke-miterlimit="10" stroke-width=".399" d="m102.367 109.125 20.996-20.996"/><path fill="none" stroke="#000" stroke-linecap="round" stroke-linejoin="round" stroke-miterlimit="10" stroke-width=".39899601" d="M120.352 87.762c1.28.746 2.355.629 3.156.226-.406.797-.524 1.875.222 3.157"/><use xlink:href="#l" x="116.879" y="108.179"/><path fill="none" stroke="#000" stroke-miterlimit="10" stroke-width=".399" d="M96.695 130.293c5.164 19.27-11.043 19.723-6.886 1.36"/><path fill="none" stroke="#000" stroke-linecap="round" stroke-linejoin="round" stroke-miterlimit="10" stroke-width=".39897207" d="M87.05 132.906c1.481-.031 2.337-.695 2.805-1.457.075.89.54 1.867 1.844 2.57"/><use xlink:href="#m" x="90.556" y="155.139"/></svg>