<svg xmlns="http://www.w3.org/2000/svg" xmlns:xlink="http://www.w3.org/1999/xlink" width="38.918" height="39.35"><defs><path id="a" d="M4.922 0v-.469h-1.39v-5.734c0-.234 0-.328-.266-.328-.11 0-.125 0-.22.078-.765.562-1.796.562-2 .562H.845v.47h.203c.156 0 .703-.016 1.297-.204v5.156H.954V0c.437-.031 1.5-.031 1.984-.031s1.546 0 1.984.031m0 0"/><path id="b" d="M5.156-2.219h-.468c-.032.203-.125.844-.266.906-.11.063-.86.063-1.016.063H1.937c.47-.39 1-.812 1.438-1.14 1.14-.844 1.781-1.313 1.781-2.25 0-1.157-1.047-1.891-2.437-1.891-1.219 0-2.156.625-2.156 1.515 0 .594.484.735.718.735C1.61-4.281 2-4.5 2-5c0-.516-.422-.672-.562-.719.28-.234.671-.343 1.03-.343.845 0 1.313.671 1.313 1.421 0 .688-.375 1.375-1.078 2.079l-2 2.046c-.14.11-.14.141-.14.344V0h4.28Zm0 0"/><path id="c" d="M5.25-1.797c0-.547-.297-1.406-1.734-1.719.687-.203 1.406-.765 1.406-1.625 0-.765-.75-1.39-2.156-1.39-1.188 0-1.97.64-1.97 1.437 0 .422.313.703.688.703a.67.67 0 0 0 .704-.687c0-.578-.547-.688-.579-.703.344-.282.782-.36 1.094-.36.828 0 .86.641.86.97 0 .124-.016 1.437-1.047 1.5-.407.015-.438.015-.485.03-.094.016-.125.11-.125.172 0 .172.11.172.282.172h.437c1.094 0 1.094.985 1.094 1.5 0 .469 0 1.485-1.031 1.485-.266 0-.782-.047-1.266-.344C1.75-.75 2-1 2-1.406c0-.453-.312-.75-.75-.75-.422 0-.766.265-.766.765 0 .907.97 1.5 2.25 1.5 1.782 0 2.516-1 2.516-1.906m0 0"/><path id="d" d="M5.406 0v-.469h-.968v-1.094h.968v-.468h-.968V-6.22c0-.265-.016-.328-.297-.328-.22 0-.22.016-.344.172L.313-2.031v.469h2.875V-.47h-1.11V0c.375-.031 1.281-.031 1.703-.031.406 0 1.266 0 1.625.031m-2.11-2.031H.845L3.297-5.11Zm0 0"/><path id="e" d="M5.156-2c0-1.156-.797-2.078-2.265-2.078-.282 0-.813.031-1.282.344v-1.313c.282.047.391.078.72.078 1.452 0 2.374-1.125 2.374-1.375 0-.078-.016-.187-.14-.187-.032 0-.032 0-.141.047a4.3 4.3 0 0 1-1.531.28c-.75 0-1.282-.202-1.547-.28-.094-.032-.094-.047-.125-.047-.14 0-.14.11-.14.265v2.922c0 .172 0 .297.218.297.125 0 .156-.031.219-.11.39-.468.922-.562 1.328-.562.89 0 .89.875.89 1.672 0 .735 0 1.735-1.187 1.735-.25 0-.875-.063-1.297-.625.36-.016.656-.266.656-.672 0-.532-.437-.672-.672-.672-.14 0-.671.094-.671.703 0 .844.78 1.687 2.015 1.687C4.172.11 5.156-.78 5.156-2m0 0"/><clipPath id="f"><path d="M26 17h12.879v17H26Zm0 0"/></clipPath></defs><use xlink:href="#a" x="16.549" y="7.209"/><use xlink:href="#b" x="32.725" y="18.961"/><use xlink:href="#c" x="26.546" y="37.922"/><use xlink:href="#d" x="6.552" y="37.982"/><use xlink:href="#e" x=".374" y="18.906"/><path fill="none" stroke="#000" stroke-miterlimit="10" stroke-width=".399" d="m7.086 27.547-1.504-4.633"/><path fill="none" stroke="#000" stroke-linecap="round" stroke-linejoin="round" stroke-miterlimit="10" stroke-width=".39899601" d="M8.781 25.027c-1.246.805-1.629 1.817-1.633 2.711-.527-.722-1.433-1.316-2.914-1.234M3.887 25.434c1.246-.801 1.629-1.813 1.633-2.707.527.718 1.433 1.312 2.914 1.23"/><path fill="none" stroke="#000" stroke-miterlimit="10" stroke-width=".399" d="M22.703 29.84 9.945 20.57"/><path fill="none" stroke="#000" stroke-linecap="round" stroke-linejoin="round" stroke-miterlimit="10" stroke-width=".399" d="M22.594 26.805c-.535 1.383-.254 2.43.27 3.152-.852-.273-1.93-.219-3.083.719M10.055 23.605c.535-1.382.25-2.43-.274-3.152.852.274 1.934.223 3.082-.719"/><path fill="none" stroke="#000" stroke-miterlimit="10" stroke-width=".399" d="M28.805 15.7H10.02"/><path fill="none" stroke="#000" stroke-linecap="round" stroke-linejoin="round" stroke-miterlimit="10" stroke-width=".399" d="M26.934 13.309c.378 1.433 1.222 2.109 2.07 2.39-.848.278-1.692.957-2.07 2.39M11.895 18.09c-.38-1.434-1.223-2.113-2.075-2.39.852-.282 1.696-.958 2.075-2.391"/><path fill="none" stroke="#000" stroke-miterlimit="10" stroke-width=".399" d="m12.707 8.82-2.762 2.004"/><path fill="none" stroke="#000" stroke-linecap="round" stroke-linejoin="round" stroke-miterlimit="10" stroke-width=".39899202" d="M9.785 7.984c1.149.938 2.23.993 3.082.72-.523.722-.808 1.769-.27 3.151"/><path fill="none" stroke="#000" stroke-linecap="round" stroke-linejoin="round" stroke-miterlimit="10" stroke-width=".39898803000000005" d="M12.863 11.66c-1.148-.937-2.23-.992-3.082-.719.524-.722.809-1.765.274-3.152"/><path fill="none" stroke="#000" stroke-miterlimit="10" stroke-width=".399" d="M22.629 34.715h-6.43"/><path fill="none" stroke="#000" stroke-linecap="round" stroke-linejoin="round" stroke-miterlimit="10" stroke-width=".399" d="M20.754 32.324c.379 1.434 1.223 2.11 2.074 2.39-.851.278-1.695.958-2.074 2.391M18.07 37.105c-.379-1.433-1.222-2.113-2.07-2.39.848-.281 1.691-.957 2.07-2.39"/><path fill="none" stroke="#000" stroke-miterlimit="10" stroke-width=".399" d="M28.883 20.57 16.12 29.844"/><path fill="none" stroke="#000" stroke-linecap="round" stroke-linejoin="round" stroke-miterlimit="10" stroke-width=".399" d="M25.96 19.738c1.15.938 2.231.989 3.083.715-.523.727-.809 1.77-.27 3.152M19.043 30.676c-1.148-.938-2.23-.989-3.082-.715.523-.727.809-1.77.27-3.152"/><path fill="none" stroke="#000" stroke-miterlimit="10" stroke-width=".399" d="m17.086 11.11-5.34 16.437"/><path fill="none" stroke="#000" stroke-linecap="round" stroke-linejoin="round" stroke-miterlimit="10" stroke-width=".399" d="M14.234 12.148c1.48.086 2.387-.507 2.914-1.23.004.895.387 1.906 1.633 2.71"/><path fill="none" stroke="#000" stroke-linecap="round" stroke-linejoin="round" stroke-miterlimit="10" stroke-width=".39899202" d="M14.598 26.504c-1.48-.082-2.387.512-2.914 1.234-.004-.894-.387-1.906-1.633-2.71"/><g clip-path="url(#f)"><path fill="none" stroke="#000" stroke-miterlimit="10" stroke-width=".399" d="m33.262 22.86-1.508 4.636"/></g><path fill="none" stroke="#000" stroke-linecap="round" stroke-linejoin="round" stroke-miterlimit="10" stroke-width=".39899202" d="M30.41 23.902c1.48.082 2.387-.511 2.914-1.23 0 .894.387 1.906 1.633 2.707"/><path fill="none" stroke="#000" stroke-linecap="round" stroke-linejoin="round" stroke-miterlimit="10" stroke-width=".39899601" d="M34.605 26.457c-1.48-.086-2.382.508-2.914 1.23 0-.894-.382-1.906-1.632-2.71"/><path fill="none" stroke="#000" stroke-miterlimit="10" stroke-width=".399" d="m21.738 11.11 5.328 16.386"/><path fill="none" stroke="#000" stroke-linecap="round" stroke-linejoin="round" stroke-miterlimit="10" stroke-width=".39899601" d="M20.043 13.629c1.25-.805 1.633-1.817 1.637-2.711.527.723 1.43 1.316 2.914 1.23M28.762 24.977c-1.25.804-1.633 1.816-1.633 2.71-.531-.722-1.434-1.316-2.918-1.234"/><path fill="none" stroke="#000" stroke-miterlimit="10" stroke-width=".399" d="m26.121 8.82 2.762 2.004"/><path fill="none" stroke="#000" stroke-linecap="round" stroke-linejoin="round" stroke-miterlimit="10" stroke-width=".39899202" d="M26.23 11.855c.536-1.382.25-2.43-.273-3.152.852.274 1.934.219 3.082-.719"/><path fill="none" stroke="#000" stroke-linecap="round" stroke-linejoin="round" stroke-miterlimit="10" stroke-width=".39898803000000005" d="M28.773 7.79c-.539 1.386-.253 2.429.27 3.151-.852-.273-1.934-.218-3.082.72"/></svg>