<svg xmlns="http://www.w3.org/2000/svg" xmlns:xlink="http://www.w3.org/1999/xlink" width="87.092" height="43.778"><defs><path id="a" d="M4.406-3.672c0-.531-.531-.812-1.062-.812-.688 0-1.094.5-1.313 1.125v-1.125l-1.656.078v.468c.61 0 .688 0 .688.391v3.078H.375V0l1.25-.031C2-.031 2.641-.031 3 0v-.469h-.86v-1.75c0-.687.235-1.906 1.235-1.906 0 0-.187.172-.187.453 0 .406.328.61.609.61.297 0 .61-.204.61-.61m0 0"/><path id="b" d="M5.406-2.172c0-1.344-.922-2.344-2.547-2.344C1.22-4.516.313-3.5.313-2.172c0 1.235.89 2.235 2.546 2.235 1.672 0 2.547-1.016 2.547-2.235m-1.281-.11c0 .86 0 1.938-1.266 1.938-1.265 0-1.265-1.078-1.265-1.937 0-.453 0-.953.172-1.297.187-.375.609-.578 1.093-.578.422 0 .844.156 1.063.5.203.344.203.89.203 1.375m0 0"/><path id="c" d="M3.813-1.234v-.532h-.47v.516c0 .672-.327.906-.609.906-.578 0-.578-.64-.578-.86v-2.75h1.469v-.468H2.156v-1.906h-.469c0 1-.484 1.984-1.484 2.016v.359h.828v2.734c0 1.063.86 1.282 1.578 1.282.75 0 1.204-.579 1.204-1.297m0 0"/><clipPath id="d"><path d="M69 8h17.637v27H69Zm0 0"/></clipPath><clipPath id="e"><path d="M14 13h1v30.668h-1Zm0 0"/></clipPath></defs><path fill="none" stroke="#000" stroke-miterlimit="10" stroke-width=".399" d="M.746 14.117H28.34V1.09H.746Zm0 0"/><use xlink:href="#a" x="4.067" y="10.738"/><use xlink:href="#b" x="8.789" y="10.738"/><use xlink:href="#b" x="14.837" y="10.738"/><use xlink:href="#c" x="20.565" y="10.738"/><path fill="none" stroke="#000" stroke-miterlimit="10" stroke-width=".399" d="M14.543 14.316v28.348M57.438 14.117H85.03V1.09H57.437Zm0 0"/><use xlink:href="#a" x="60.76" y="10.738"/><use xlink:href="#b" x="65.482" y="10.738"/><use xlink:href="#b" x="71.53" y="10.738"/><use xlink:href="#c" x="77.258" y="10.738"/><g clip-path="url(#d)"><path fill="none" stroke="#000" stroke-miterlimit="10" stroke-width=".399" d="m75.578 14.316 9.652 14.922"/></g><g clip-path="url(#e)"><path fill="none" stroke="red" stroke-dasharray="2.98883 2.98883" stroke-miterlimit="10" stroke-width=".797" d="M14.543 14.316v28.348"/></g><path fill="none" stroke="red" stroke-dasharray="2.98883 2.98883" stroke-miterlimit="10" stroke-width=".797" d="M85.23.89v28.348"/></svg>