<svg xmlns="http://www.w3.org/2000/svg" width="88.562" height="32.564"><defs><clipPath id="a"><path d="M0 0h73v32.348H0Zm0 0"/></clipPath><clipPath id="b"><path d="M0 0h40v32.348H0Zm0 0"/></clipPath><clipPath id="c"><path d="M0 0h88.344v32.348H0Zm0 0"/></clipPath><clipPath id="d"><path d="M2 0h86v32.348H2Zm0 0"/></clipPath><clipPath id="e"><path d="M19 0h69.344v32.348H19Zm0 0"/></clipPath><clipPath id="f"><path d="M30 0h58.344v32.348H30Zm0 0"/></clipPath></defs><g clip-path="url(#a)"><path fill="none" stroke="#000" stroke-miterlimit="10" stroke-width="2.989" d="M2.293 31.34c0-15.656 12.691-28.348 28.348-28.348"/></g><g clip-path="url(#b)"><path fill="none" stroke="#FFF" stroke-miterlimit="10" stroke-width=".598" d="M2.293 31.34c0-15.656 12.691-28.348 28.348-28.348"/></g><g clip-path="url(#c)"><path fill="none" stroke="#000" stroke-miterlimit="10" stroke-width="4.384" d="M30.64 31.34c0-15.656 12.692-28.348 28.348-28.348"/></g><g clip-path="url(#d)"><path fill="none" stroke="#FFF" stroke-miterlimit="10" stroke-width="1.993" d="M30.64 31.34c0-15.656 12.692-28.348 28.348-28.348"/></g><g clip-path="url(#e)"><path fill="none" stroke="#000" stroke-miterlimit="10" stroke-width="2.79" d="M58.988 31.34c0-15.656 12.688-28.348 28.344-28.348"/></g><g clip-path="url(#f)"><path fill="none" stroke="#FFF" stroke-miterlimit="10" stroke-width="1.993" d="M58.988 31.34c0-15.656 12.688-28.348 28.344-28.348"/></g></svg>