<svg xmlns="http://www.w3.org/2000/svg" xmlns:xlink="http://www.w3.org/1999/xlink" width="86.564" height="67.43"><defs><path id="a" d="m2.031-.781-.015-.281-.25.015.015.281c.016.36-.156.485-.312.5-.313.016-.328-.328-.328-.453l-.094-1.484.781-.047-.016-.25-.78.047-.048-1.031-.25.015c.016.531-.218 1.094-.75 1.14v.188l.454-.03L.53-.689c.031.563.5.657.875.641.407-.015.64-.344.625-.734m0 0"/><path id="b" d="M2.703-1.172c-.015-.094-.125-.078-.156-.062-.094.015-.094.046-.11.14-.062.282-.359.516-.75.594-.796.14-.937-.61-.984-.906l1.719-.313c.125-.015.187-.031.156-.187-.031-.172-.14-.594-.469-.813-.25-.187-.578-.219-.968-.156-.922.156-1.313.844-1.188 1.547.14.781.797 1.234 1.719 1.062.906-.156 1.062-.796 1.031-.906m-.672-.672-1.36.25c-.046-.218-.062-.484 0-.687a.69.69 0 0 1 .5-.39c.673-.11.829.64.86.827m0 0"/><path id="c" d="m3.469-1.078-.094-.281-.406.125-1.36-.875.438-.985c.047-.094.078-.156.578-.312l-.094-.281-.547.187-.625.172.094.281a.34.34 0 0 1 .25 0c0 .031 0 .047-.031.078l-.313.703-.796-.5.234-.078-.094-.281-.687.25-.672.188.094.28.406-.14 1.265.813-.5 1.109c-.078.14-.28.219-.562.297l.094.281.53-.172.61-.187-.093-.281c-.11.03-.204.046-.22.015 0 0 0-.015.016-.078l.375-.828.891.562-.234.079.093.28.704-.234Zm0 0"/><path id="d" d="m2-1.766-.14-.312-.298.125.141.297c.172.422.063.656-.125.734-.344.156-.516-.25-.562-.375L.28-2.984l.875-.391-.125-.297-.875.39-.5-1.155-.297.125c.266.609.235 1.343-.375 1.609l.094.219.5-.203.719 1.671c.281.657.875.563 1.312.375.454-.187.579-.671.391-1.125m0 0"/><path id="e" d="M2.703-2.656c-.078-.125-.203-.063-.234-.047-.094.062-.078.125-.063.25.047.39-.187.812-.61 1.062C.907-.844.36-1.67.173-2l1.937-1.187c.125-.079.204-.11.094-.282-.11-.203-.453-.656-.953-.765-.375-.11-.797-.016-1.234.25C-1-3.375-1.156-2.36-.672-1.562-.14-.703.875-.47 1.906-1.094c1.016-.61.86-1.453.797-1.562m-1.125-.5L.047-2.22c-.14-.265-.281-.531-.281-.828-.016-.36.218-.578.406-.687.75-.453 1.25.359 1.406.578m0 0"/><path id="f" d="M.11-5.953C-.079-6.22-.517-6.36-1.032-6c-.625.438-1.14 1.203-.625 1.938l.437.656-.5.328.219.312.5-.328L.547-.828l-.453.297.219.312.812-.593c.234-.172.656-.454.906-.579l-.219-.312-.562.39-1.547-2.265.75-.516-.219-.312-.78.531-.438-.656c-.5-.719-.047-1.094.125-1.219.015-.016.062-.031.093-.047-.046.125 0 .281.079.39.187.282.5.266.671.157a.49.49 0 0 0 .125-.703m0 0"/><path id="g" d="M-.14-6.25c-.204-.266-.657-.406-1.172-.031-.672.5-1.157 1.328-.594 2.078l.484.672-.5.375.234.312.5-.375L.548-.89l-.469.344.235.313.828-.657c.265-.187.687-.515.937-.656l-.234-.312-.594.437L-.484-3.75l.78-.578-.233-.313-.813.61-.484-.672c-.563-.734-.094-1.188.062-1.297.047-.031.063-.047.14-.078-.046.14 0 .297.079.422.219.297.531.265.719.125a.48.48 0 0 0 .093-.719m0 0"/><path id="h" d="M2.719-3.516c-.094-.109-.235 0-.266.032-.11.093-.11.109-.062.265.125.438-.094.969-.532 1.328C.906-1.125.156-2-.125-2.359l2.063-1.657c.14-.125.218-.187.078-.359-.172-.219-.641-.672-1.235-.719-.453-.062-.906.11-1.375.485-1.094.875-1.11 2.062-.422 2.906.735.906 1.954 1 3.032.125s.797-1.828.703-1.938m-1.39-.375L-.298-2.578C-.5-2.86-.703-3.141-.75-3.5a.95.95 0 0 1 .344-.86c.797-.64 1.531.235 1.734.47m0 0"/><path id="i" d="M2.578-3.672c-.094-.11-.187-.015-.265.031-.11.11-.094.157-.063.266.219.594 0 1-.36 1.313-.952.828-1.843-.188-2.124-.5-.328-.376-1.11-1.266-.235-2.032.25-.218.407-.312.485-.36 0 .204.109.36.156.423.266.312.61.234.797.062.203-.187.328-.515.062-.812-.515-.578-1.36.078-1.765.422-1.235 1.078-1.032 2.328-.344 3.109.812.922 2.031 1 3.094.078 1.109-.984.609-1.953.562-2m0 0"/><path id="j" d="m1.86-3.344-.329-.36-.312.298.328.344c.437.484.36.859.156 1.046-.39.375-.812-.078-.953-.234l-1.797-1.937 1.016-.954-.297-.328-1.016.953-1.234-1.343-.344.297c.64.718.938 1.734.266 2.375l.234.265.563-.531 1.78 1.922c.688.75 1.454.343 1.954-.11.531-.5.469-1.187-.016-1.703m0 0"/><path id="k" d="M2.016-3.875c-.297-.312-.672-.422-1.125-.375-.47.063-.75.25-1.407.672-.312.203-.859.578-1.187.25-.422-.453.25-1.094.39-1.235.532-.515 1.016-.546 1.422-.203.125.11.157.125.313-.015.156-.157.125-.188-.031-.36l-.563-.578c-.125-.125-.187-.187-.297-.078-.047.031-.047.047-.203.438-.281.093-.578.297-.86.578-.218.218-1.327 1.265-.421 2.203.266.281.61.328.875.312.516-.015.844-.234 1.484-.656.313-.219.922-.64 1.344-.203.516.531-.14 1.172-.297 1.313-.766.734-1.469.375-1.828.171-.14-.078-.187-.03-.281.047-.188.172-.14.219.015.375l.75.797c.141.14.204.203.344.078C.5-.39.516-.39.563-.656l.046-.297c.579-.094.954-.453 1.094-.594.219-.219 1.328-1.281.313-2.328m0 0"/><path id="l" d="M4.031-4.406c-.172-.172-.265-.063-.36.031-.468.469-.577.36-.75.188l-1.64-1.657c-.672-.672-1.718-.64-2.86.5-.421.422-1.327 1.422-.655 2.094.328.328.734.203.937-.016.25-.234.344-.64.016-.953-.235-.234-.5-.234-.547-.203.172-.266.422-.516.5-.61.578-.577 1.156-.515 1.734.048l.266.265C.14-4.14-1.734-2.14-.625-1.03c.734.734 1.828-.063 2.36-.594.609-.61.656-1.297.5-1.781.218.234.578.594 1.374-.203l.375-.36c.157-.156.235-.25.047-.437m-2.406.656c.734.734.125 1.531-.062 1.734-.391.375-.954.407-1.282.079-.828-.829.266-2.141.625-2.547Zm0 0"/><path id="m" d="m2.328-2.312-.375-.376-.547.532-5.125-5.125-1.344 1.468.375.375c.485-.484.547-.546.86-.234L.547-1.297 0-.75l.375.375.953-.984Zm0 0"/><path id="n" d="M2.703-6.219C1.61-7.344.031-7.422-1.328-6.094c-1.344 1.328-1.266 2.922-.188 4.032C-.5-1.047 1.031-.923 2.422-2.297c1.39-1.375 1.281-2.922.281-3.922m-1.14.953c.703.72 1.578 1.61.53 2.641-1.046 1.031-1.921.14-2.624-.578-.375-.375-.797-.797-.922-1.219-.156-.453.016-.969.422-1.375.343-.344.843-.547 1.297-.437.453.109.89.562 1.297.968m0 0"/><path id="o" d="M5.39-5.078 5-5.484l-.61.578-2.14-2.282c-.86-.906-1.656-.828-2.531 0-.844.797-.844 1.735-.625 2.422l-.906-.968L-3.25-4.25l.39.422c.547-.5.61-.563.922-.219L.61-1.344 0-.78l.39.406 1.094-1.047L2.61-2.453l-.39-.406-.61.562-1.718-1.828c-.907-.969-.563-2.094-.016-2.61.297-.28.656-.28 1.297.391L3.39-3.969l-.594.563.39.406 1.079-1.047Zm0 0"/><path id="p" d="M2.047-8.281a.75.75 0 0 0-1.078-.047c-.14.125-.563.547-.688 1.25-.265.016-.843.156-1.531.75-1.36 1.187-1.234 2.375-.672 3.016.328.39.86.609 1.328.578.031.547.25.906.422 1.109.125.14.547.578 1.172.547C.922-.938.422-.141.922.438c.406.484 1.515.75 3.406-.891C6-1.891 6.266-3.063 5.688-3.734c-.235-.282-.813-.813-1.735-.578-.75.187-1.312.671-2.219 1.453-.234.218-.671.593-.734.609a.78.78 0 0 1-1.031-.14.63.63 0 0 1-.172-.376c.625-.156 1.125-.546 1.36-.765 1.359-1.172 1.234-2.344.671-3.016-.39-.437-.875-.531-1.156-.562.156-.407.328-.594.422-.672.031.047.078.14.14.203.204.234.5.25.75.047a.527.527 0 0 0 .063-.75M.78-5.641c.36.438.907 1.079.078 1.782-.828.718-1.375.078-1.734-.36-.375-.422-.906-1.047-.078-1.765.828-.703 1.36-.079 1.734.343M4.906-3c.282.344.36 1.172-.86 2.219-1.124.984-1.968.953-2.343.515-.484-.562.11-1.078.234-1.187l1.126-.969c.28-.234 1.343-1.156 1.843-.578m0 0"/><path id="q" d="M5.172-6.75c-.938-1.5-2.61-1.906-4.234-.89-.844.53-1.235 1.25-1.36 1.609l-.344-.547-1.953 1.344.328.53c.704-.452.782-.5 1.063-.062L2.219.906l-.781.5.343.532L3.188.984 4.625.141l-.344-.532-.781.5-1.312-2.093a2.76 2.76 0 0 0 1.78-.407C5.642-3.453 6.157-5.17 5.173-6.75m-1.438.906c1 1.594.579 2.657-.171 3.125-.141.094-.672.422-1.563.156-.219-.062-.219-.078-.36-.296L.14-5.25c-.124-.219-.124-.25-.062-.5.172-.734.719-1.187.969-1.344.75-.468 1.797-.172 2.687 1.25m0 0"/><path id="r" d="M6.922-3.078c-.11-.281-.266-.219-.438-.156-.765.28-.828.125-.953-.188L4.453-6.156c-.437-1.125-1.687-1.61-3.578-.86-.719.282-2.266.938-1.828 2.063.219.562.766.64 1.11.516.39-.157.687-.594.468-1.125-.14-.375-.469-.516-.516-.516.344-.234.735-.406.875-.469.97-.375 1.641 0 2.016.969l.172.437C2.266-4.75-.922-3.375-.203-1.516c.484 1.22 2.156.844 3.047.485 1.015-.39 1.406-1.156 1.484-1.797.156.406.39.984 1.703.453l.61-.234c.25-.094.406-.157.28-.47m-3.125-.469c.484 1.235-.64 1.875-.953 2-.656.25-1.344 0-1.563-.562C.75-3.484 2.703-4.47 3.328-4.75Zm0 0"/><path id="s" d="m5.156-2.375-.093-.75-.657.078.078.719C4.61-1.375 4.188-1 3.781-.953c-.797.11-.906-.766-.937-1.094l-.469-3.86 2.047-.25-.078-.671-2.047.25-.328-2.672-.657.078c.157 1.39-.375 2.86-1.75 3.078l.063.516 1.14-.14.47 3.827C1.405-.39 2.687-.25 3.671-.359c1.062-.125 1.594-1 1.484-2.016m0 0"/></defs><use xlink:href="#a" x=".803" y="66.167" fill="#0B05F4"/><use xlink:href="#b" x="3.218" y="66.048" fill="#150BEA"/><use xlink:href="#c" x="6.244" y="65.531" fill="#2010DF"/><use xlink:href="#d" x="9.845" y="64.38" fill="#2A15D4"/><use xlink:href="#e" x="14.981" y="61.974" fill="#4020BF"/><use xlink:href="#f" x="18.337" y="59.914" fill="#4A25B5"/><use xlink:href="#g" x="20.619" y="58.349" fill="#552AAA"/><use xlink:href="#h" x="22.966" y="56.621" fill="#60309F"/><use xlink:href="#i" x="26.535" y="53.729" fill="#6A3595"/><use xlink:href="#j" x="30.043" y="50.651" fill="#753A8A"/><use xlink:href="#k" x="33.175" y="47.754" fill="#7F407F"/><use xlink:href="#l" x="39.267" y="41.836" fill="#954A6A"/><use xlink:href="#m" x="43.535" y="37.573" fill="#9F5060"/><use xlink:href="#n" x="46.058" y="35.041" fill="#A55"/><use xlink:href="#o" x="50.806" y="30.339" fill="#B55A4A"/><use xlink:href="#p" x="56.402" y="25.059" fill="#BF6040"/><use xlink:href="#q" x="65.689" y="17.306" fill="#D46A2A"/><use xlink:href="#r" x="72.89" y="12.761" fill="#DF7020"/><use xlink:href="#s" x="80.063" y="9.98" fill="#EA7515"/></svg>