<svg xmlns="http://www.w3.org/2000/svg" xmlns:xlink="http://www.w3.org/1999/xlink" width="87.256" height="73.172"><defs><path id="b" d="M4.922 0v-.469h-1.39v-5.734c0-.234 0-.328-.266-.328-.11 0-.125 0-.22.078-.765.562-1.796.562-2 .562H.845v.47h.203c.156 0 .703-.016 1.297-.204v5.156H.954V0c.437-.031 1.5-.031 1.984-.031s1.546 0 1.984.031m0 0"/><path id="c" d="M5.156-2.219h-.468c-.032.203-.125.844-.266.906-.11.063-.86.063-1.016.063H1.937c.47-.39 1-.812 1.438-1.14 1.14-.844 1.781-1.313 1.781-2.25 0-1.157-1.047-1.891-2.437-1.891-1.219 0-2.156.625-2.156 1.515 0 .594.484.735.718.735C1.61-4.281 2-4.5 2-5c0-.516-.422-.672-.562-.719.28-.234.671-.343 1.03-.343.845 0 1.313.671 1.313 1.421 0 .688-.375 1.375-1.078 2.079l-2 2.046c-.14.11-.14.141-.14.344V0h4.28Zm0 0"/><clipPath id="a"><path d="M30 9h55v63.758H30Zm0 0"/></clipPath></defs><path fill="none" stroke="#7F7F7F" stroke-miterlimit="10" stroke-width=".199" d="M.738 57.379h85.04M.737 29.03h85.04M.737.695h85.04M.737 57.38V.684m28.344 56.695V.684M57.43 57.379V.684m28.336 56.695V.684"/><g clip-path="url(#a)"><path fill="none" stroke="#000" stroke-miterlimit="10" stroke-width=".399" d="M78.691 43.207c0-15.656-9.52-28.348-21.261-28.348-11.742 0-21.258 12.692-21.258 28.348 0 15.652 9.516 28.344 21.258 28.344S78.69 58.859 78.69 43.207Zm0 0"/></g><path fill="none" stroke="#000" stroke-miterlimit="10" stroke-width=".399" d="M12.234 40.96 7.313 13.044l55.832-9.844 4.921 27.914Zm0 0"/><path fill="red" fill-opacity=".5" d="M67.559 16.984a1.994 1.994 0 0 0-3.989 0 1.994 1.994 0 0 0 3.988 0M38.734 36.656a1.994 1.994 0 0 0-3.988 0 1.994 1.994 0 0 0 3.988 0m0 0"/><use xlink:href="#b" x="56.315" y="13.465"/><use xlink:href="#c" x="27.491" y="33.137"/></svg>