<svg xmlns="http://www.w3.org/2000/svg" width="121.97" height="42.266"><path fill="none" stroke="#7F7F7F" stroke-miterlimit="10" stroke-width=".399" d="M1.203 40.684h39.852M1.203 30.719h39.852M1.203 20.758h39.852M1.203 10.793h39.852M1.203.843h39.852M1.203 40.684V.833m9.961 39.852V.832m9.965 39.852V.832m9.96 39.852V.832m9.954 39.852V.832"/><path fill="none" stroke="#000" stroke-miterlimit="10" stroke-width=".399" d="M80.902 40.684h39.852M80.902 38.69h39.852M80.902 36.7h39.852m-39.852-1.992h39.852m-39.852-1.996h39.852m-39.852-1.992h39.852m-39.852-1.992h39.852m-39.852-1.993h39.852m-39.852-1.992h39.852M80.902 22.75h39.852m-39.852-1.992h39.852m-39.852-1.992h39.852m-39.852-1.993h39.852m-39.852-1.992h39.852M80.902 12.79h39.852m-39.852-1.996h39.852M80.902 8.801h39.852M80.902 6.809h39.852M80.902 4.816h39.852M80.902 2.824h39.852M80.902.844h39.852m-39.852 39.84V.832m1.996 39.852V.832m1.993 39.852V.832m1.992 39.852V.832m1.992 39.852V.832m1.992 39.852V.832m1.992 39.852V.832m1.993 39.852V.832m1.992 39.852V.832m1.992 39.852V.832m1.992 39.852V.832m1.992 39.852V.832m1.996 39.852V.832m1.993 39.852V.832m1.992 39.852V.832m1.992 39.852V.832m1.992 39.852V.832m1.992 39.852V.832m1.993 39.852V.832m1.992 39.852V.832m1.984 39.852V.832"/></svg>