<svg xmlns="http://www.w3.org/2000/svg" xmlns:xlink="http://www.w3.org/1999/xlink" width="58.916" height="31.881"><defs><path id="b" d="M7.89 0v-.422h-.53v-2c0-.953-.579-1.172-1.313-1.172-.828 0-1.281.485-1.438.735-.187-.625-.734-.735-1.265-.735-.969 0-1.406.64-1.5.813v-.813l-1.39.063v.422c.468 0 .515 0 .515.297v2.39H.453V0c.422-.031.703-.031 1-.031.313 0 .594 0 1.016.031v-.422h-.531v-1.594c0-.89.765-1.25 1.28-1.25.282 0 .47.141.47.766v2.078h-.532V0c.422-.031.703-.031 1.016-.031.312 0 .578 0 1 .031v-.422h-.516v-1.594c0-.89.766-1.25 1.266-1.25.281 0 .469.141.469.766v2.078h-.532V0c.438-.031.72-.031 1.016-.031.313 0 .578 0 1.016.031m0 0"/><path id="c" d="M2.39 0v-.422h-.468v-3.172L.5-3.53v.422c.438 0 .5 0 .5.297v2.39H.469V0c.469-.031.547-.031.969-.031.328 0 .562 0 .953.031M2-4.828a.64.64 0 0 0-.64-.625.63.63 0 0 0-.641.625c0 .36.297.64.64.64.36 0 .641-.28.641-.64m0 0"/><path id="d" d="M5.047 0v-.422c-.469 0-.516 0-.516-.297V-5.53l-1.453.062v.422c.469 0 .531 0 .531.313v1.484a2 2 0 0 0-1.14-.344c-1.36 0-2.14.797-2.14 1.828 0 1.047.765 1.829 2.03 1.829.594 0 .985-.235 1.188-.391v.39Zm-1.5-.89c-.375.53-.844.609-1.11.609-1.03 0-1.03-.985-1.03-1.469 0-.5 0-1.516 1.14-1.516.36 0 .734.157 1 .5Zm0 0"/><clipPath id="a"><path d="M0 0h58.875v31.82H0Zm0 0"/></clipPath></defs><g clip-path="url(#a)"><path fill="none" stroke="#000" stroke-miterlimit="10" stroke-width=".399" d="m1.156 30.621 56.34-28.168"/></g><path fill="none" stroke="#000" stroke-linecap="round" stroke-linejoin="round" stroke-miterlimit="10" stroke-width=".39896808000000006" d="M54.75 1.152c.98 1.114 2.04 1.344 2.922 1.211-.637.63-1.086 1.614-.785 3.067"/><path fill="#FFF" d="M18.047 22.563H40.96V10.332H18.047Zm0 0"/><use xlink:href="#b" x="21.366" y="19.186"/><use xlink:href="#c" x="29.503" y="19.186"/><use xlink:href="#d" x="32.213" y="19.186"/></svg>