<svg xmlns="http://www.w3.org/2000/svg" width="82.094" height="27.182"><path d="M2.95 4.879C1.487 5.527.32 6.637.593 8.184c.273 1.546 2.136 2.511 3.344 2.3 1.203-.21 1.667-.742 1.94-1.285.208-.41.274-1.12.77-1.855.5-.739 1.04-1.309 2.317-1.535 1.273-.223 2.848.414 4.047 1.582 1.199 1.172 3.047 1.351 3.843.386.797-.965.106-3.27-1.48-4.785-1.59-1.512-2.965-1.722-4.523-1.25-1.559.473-5.426 2.035-7.903 3.137m17.898 1.633c-.106-.582-.868-.938-1.707-.79-.84.15-1.438.743-1.336 1.325s.867.937 1.707.789 1.437-.742 1.336-1.324m-1.438-1.91c-.07-.403-.535-.657-1.035-.57-.5.09-.848.488-.773.89.07.402.53.656 1.03.57.5-.09.848-.488.778-.89M18.25 3.16c-.117-.355-.543-.531-.953-.398-.406.133-.645.531-.524.886.118.356.543.536.95.403.41-.137.644-.535.527-.89m-1.293-1.144c-.059-.336-.418-.559-.8-.493-.38.07-.641.399-.583.739s.418.558.801.492.64-.399.582-.738m-1.516-.938a.58.58 0 0 0-.68-.465.583.583 0 0 0-.48.672.58.58 0 0 0 .68.465.583.583 0 0 0 .48-.672m2.45 20.402c-1.457-.648-2.625-1.753-2.356-3.304.274-1.547 2.14-2.512 3.344-2.297 1.203.21 1.672.742 1.945 1.281.203.414.27 1.121.77 1.86.5.738 1.039 1.308 2.312 1.53 1.278.227 2.848-.41 4.051-1.581 1.2-1.172 3.043-1.352 3.844-.383.797.965.105 3.27-1.485 4.781-1.586 1.516-2.96 1.723-4.52 1.254-1.558-.473-5.425-2.039-7.905-3.14m17.898-1.628c-.102.582-.867.933-1.707.785-.84-.145-1.437-.739-1.332-1.32.102-.587.867-.938 1.707-.79.84.149 1.438.743 1.332 1.325m-1.437 1.906c-.07.406-.532.66-1.032.574-.5-.09-.847-.488-.777-.89.07-.403.535-.66 1.035-.57.5.085.848.483.774.886m-1.157 1.441c-.117.356-.543.535-.953.403-.406-.137-.644-.536-.527-.891.117-.356.543-.531.953-.398.41.136.645.53.527.886m-1.293 1.145c-.058.34-.418.562-.8.492-.383-.066-.641-.395-.582-.734.058-.34.418-.563.8-.493.38.067.64.395.582.735m-1.515.937a.58.58 0 0 1-.68.469.583.583 0 0 1-.48-.672.586.586 0 0 1 .68-.469c.32.059.534.36.48.672M32.836 4.88c-1.461.648-2.629 1.758-2.356 3.305.274 1.546 2.141 2.511 3.344 2.3 1.203-.21 1.672-.742 1.942-1.285.207-.41.273-1.12.773-1.855.5-.739 1.04-1.309 2.313-1.535 1.273-.223 2.847.414 4.046 1.582 1.2 1.172 3.047 1.351 3.844.386s.11-3.27-1.48-4.785c-1.59-1.512-2.965-1.722-4.52-1.25-1.558.473-5.426 2.035-7.906 3.137m17.898 1.633c-.101-.582-.867-.938-1.707-.79-.84.15-1.437.743-1.336 1.325.106.582.868.937 1.707.789s1.438-.742 1.336-1.324m-1.437-1.91c-.07-.403-.531-.657-1.031-.57-.5.09-.848.488-.778.89s.535.656 1.035.57c.497-.09.844-.488.774-.89M48.14 3.16c-.118-.355-.543-.531-.953-.398s-.645.531-.528.886c.117.356.543.536.953.403.407-.137.645-.535.528-.89m-1.293-1.144c-.063-.336-.418-.559-.801-.493-.383.07-.645.399-.582.739.058.34.418.558.797.492.383-.066.644-.399.586-.738m-1.516-.938a.587.587 0 0 0-.684-.465.583.583 0 0 0-.48.672.587.587 0 0 0 .684.465.583.583 0 0 0 .48-.672m2.45 20.402c-1.462-.648-2.63-1.753-2.356-3.304.273-1.547 2.14-2.512 3.344-2.297 1.203.21 1.667.742 1.94 1.281.208.414.274 1.121.774 1.86.496.738 1.036 1.308 2.313 1.53 1.273.227 2.848-.41 4.047-1.581s3.047-1.352 3.843-.383c.797.965.106 3.27-1.48 4.781-1.59 1.516-2.965 1.723-4.523 1.254-1.559-.473-5.426-2.039-7.903-3.14m17.898-1.628c-.106.582-.868.933-1.707.785-.84-.145-1.438-.739-1.336-1.32.101-.587.867-.938 1.707-.79.84.149 1.437.743 1.336 1.325m-1.438 1.906c-.07.406-.535.66-1.035.574-.5-.09-.848-.488-.773-.89.07-.403.53-.66 1.03-.57.5.085.849.483.778.886m-1.16 1.441c-.117.356-.543.535-.95.403-.41-.137-.644-.536-.527-.891.118-.356.543-.531.95-.398.41.136.644.53.527.886m-1.293 1.145c-.059.34-.418.562-.797.492-.383-.066-.644-.395-.586-.734.063-.34.418-.563.801-.493.383.067.645.395.582.735m-1.516.937a.58.58 0 0 1-.68.469.583.583 0 0 1-.48-.672.586.586 0 0 1 .68-.469c.324.059.539.36.48.672m2.45-20.402c-1.457.648-2.625 1.758-2.352 3.305.27 1.546 2.137 2.511 3.34 2.3 1.203-.21 1.672-.742 1.945-1.285.207-.41.274-1.12.77-1.855.5-.739 1.039-1.309 2.312-1.535 1.278-.223 2.852.414 4.051 1.582 1.2 1.172 3.047 1.351 3.844.386s.105-3.27-1.485-4.785c-1.585-1.512-2.96-1.722-4.52-1.25-1.558.473-5.425 2.035-7.905 3.137M80.62 6.512c-.101-.582-.867-.938-1.707-.79-.84.15-1.437.743-1.332 1.325.102.582.867.937 1.707.789s1.438-.742 1.332-1.324m-1.433-1.91c-.075-.403-.536-.657-1.036-.57-.5.09-.847.488-.777.89.074.402.535.656 1.035.57.5-.09.848-.488.778-.89m-1.16-1.442c-.118-.355-.544-.531-.954-.398-.406.133-.644.531-.527.886.117.356.547.536.953.403.41-.137.645-.535.527-.89m-1.294-1.144c-.058-.336-.418-.559-.8-.493-.383.07-.641.399-.582.739.058.34.418.558.8.492.38-.066.641-.399.582-.738m-1.515-.938a.58.58 0 0 0-.68-.465.583.583 0 0 0-.48.672.58.58 0 0 0 .68.465.583.583 0 0 0 .48-.672m0 0"/></svg>