<svg xmlns="http://www.w3.org/2000/svg" width="87.248" height="59.024"><defs><clipPath id="a"><path d="M0 0h64v58.535H0Zm0 0"/></clipPath></defs><path fill="none" stroke="#7F7F7F" stroke-miterlimit="10" stroke-width=".199" d="M.734 57.422h85.04M.733 29.074h85.04M.733.738h85.04M.733 57.422V.727m28.344 56.695V.727m28.348 56.695V.727m28.336 56.695V.727"/><g fill="none" stroke-miterlimit="10" stroke-width=".399" clip-path="url(#a)"><path stroke="red" d="M57.426 57.422C57.426 26.109 32.043.727.734.727"/><path stroke="#000" d="M57.426 57.422a85 85 0 0 0-.274-5.555 87 87 0 0 0-.816-5.504 86 86 0 0 0-1.352-5.398 86 86 0 0 0-1.875-5.238 84 84 0 0 0-2.379-5.028 83 83 0 0 0-2.859-4.773 88 88 0 0 0-3.316-4.469 85 85 0 0 0-3.735-4.121 81 81 0 0 0-4.125-3.734 82 82 0 0 0-4.465-3.317 83 83 0 0 0-4.773-2.86 86 86 0 0 0-5.031-2.378 83 83 0 0 0-5.238-1.875 83 83 0 0 0-5.395-1.352 84 84 0 0 0-5.504-.816A88 88 0 0 0 .734.727"/></g></svg>