<svg xmlns="http://www.w3.org/2000/svg" xmlns:xlink="http://www.w3.org/1999/xlink" width="54.693" height="54.56"><defs><path id="a" d="M8.25 0v-.469h-.969L4.72-6.703c-.11-.25-.219-.25-.39-.25-.282 0-.329.078-.391.25l-2.47 6c-.062.156-.093.234-.843.234H.406V0l1.172-.031c.39 0 .938 0 1.313.031v-.469S2-.469 2-.594l.047-.125.5-1.203h2.672l.593 1.453H4.86V0c.391-.031 1.329-.031 1.766-.031.39 0 1.266 0 1.625.031M5.016-2.39H2.734l1.141-2.766Zm0 0"/><path id="c" d="M7.5-1.86c0-.952-.844-1.624-2.031-1.702 1.078-.204 1.718-.797 1.718-1.563 0-.922-.875-1.719-2.468-1.719H.39v.469h1.078v5.906H.39V0h4.625C6.672 0 7.5-.875 7.5-1.86M5.766-5.124c0 .766-.47 1.39-1.438 1.39H2.766v-2.64h1.812c1.016 0 1.188.797 1.188 1.25m.28 3.266c0 .109 0 1.39-1.437 1.39H2.766v-2.906h1.937c.203 0 .672 0 1.016.422.328.422.328.984.328 1.094m0 0"/><clipPath id="b"><path d="M0 21h54.54v33.34H0Zm0 0"/></clipPath></defs><path fill="none" stroke="#000" stroke-miterlimit="10" stroke-width=".399" d="M22.805.996a21.26 21.26 0 0 1 18.41 10.633 21.27 21.27 0 0 1-18.41 10.629h-10.63V.996ZM45.398 11.63c0-1.102-.89-1.996-1.992-1.996a1.996 1.996 0 0 0-1.992 1.996 1.993 1.993 0 0 0 3.984 0ZM11.977 8.082A1.996 1.996 0 0 0 9.98 6.09a1.996 1.996 0 0 0-1.992 1.992c0 1.102.895 1.996 1.992 1.996a1.997 1.997 0 0 0 1.997-1.996Zm0 7.09a1.994 1.994 0 0 0-3.989 0c0 1.098.895 1.992 1.992 1.992a1.996 1.996 0 0 0 1.997-1.992Zm0 0"/><use xlink:href="#a" x="20.247" y="15.104"/><g clip-path="url(#b)"><path fill="none" stroke="#000" stroke-miterlimit="10" stroke-width=".399" d="M22.383 26.824A26.3 26.3 0 0 1 45.16 39.973a26.3 26.3 0 0 1-22.777 13.152H9.234v-26.3Zm30.949 13.149a3.986 3.986 0 0 0-7.973 0 3.984 3.984 0 0 0 3.989 3.984c2.199 0 3.984-1.781 3.984-3.984ZM9.035 35.59a3.987 3.987 0 0 0-7.972 0 3.984 3.984 0 0 0 3.984 3.984 3.984 3.984 0 0 0 3.988-3.984Zm0 8.765a3.987 3.987 0 1 0-7.974.005 3.987 3.987 0 0 0 7.974-.005Zm0 0"/></g><use xlink:href="#c" x="20.5" y="43.391"/></svg>