<svg xmlns="http://www.w3.org/2000/svg" xmlns:xlink="http://www.w3.org/1999/xlink" width="90.02" height="67.504"><defs><path id="b" d="M8.578 0v-.469H7.5v-5.906h1.078v-.469c-.39.032-1.36.032-1.797.032-.422 0-1.39 0-1.781-.032v.469h1.078v2.594H2.875v-2.594h1.078v-.469c-.375.032-1.344.032-1.781.032-.422 0-1.406 0-1.781-.032v.469h1.078v5.906H.39V0C.766-.031 1.75-.031 2.17-.031c.438 0 1.407 0 1.782.031v-.469H2.875v-2.843h3.203V-.47H5V0c.39-.031 1.36-.031 1.781-.031.438 0 1.407 0 1.797.031m0 0"/><path id="c" d="M2.844 0v-.469h-.61v-4.015L.5-4.406v.468c.594 0 .656 0 .656.391v3.078H.47V0l1.219-.031Zm-.469-6.047a.774.774 0 0 0-.781-.781.784.784 0 0 0-.782.781c0 .422.36.766.782.766a.77.77 0 0 0 .781-.766m0 0"/><path id="d" d="M2.531-6.312c0-.391-.36-.72-.781-.72-.437 0-.797.329-.797.72 0 .046 0 .078.031.171L1.5-2.516c.031.25.031.266.25.266.188 0 .219-.016.25-.219l.516-3.718Zm-.015 5.53a.78.78 0 0 0-.766-.78.784.784 0 0 0-.781.78.774.774 0 1 0 1.547 0m0 0"/><clipPath id="a"><path d="M0 0h89.531v67.258H0Zm0 0"/></clipPath><clipPath id="e"><path d="M44 8h45.531v59.258H44Zm0 0"/></clipPath></defs><path fill="none" stroke="#7F7F7F" stroke-miterlimit="10" stroke-width=".199" d="M.727 64.477h85.039M.726 36.133h85.04M.726 7.793h85.04M.726 64.477V7.785m28.348 56.692V7.785m28.348 56.692V7.785m28.336 56.692V7.785"/><g clip-path="url(#a)"><path fill="none" stroke="#000" stroke-miterlimit="10" stroke-width=".399" d="M.727 64.477v-3.52h7.046V53.91h7.043v-7.043h7.043V39.82h7.047v-7.043h7.043V25.73h7.047v-7.043h7.043v-7.046h7.047V4.598l7.035 6.43 5.945-3.141 2.282 6.98 6.664-.89-.258 7.332 6.57 1.445-2.765 6.805 5.66 3.625-2.453 2.937v.012"/></g><path fill="none" stroke="red" stroke-miterlimit="10" stroke-width=".399" d="M34.95 14.617h22.273V.953H34.949Zm0 0"/><use xlink:href="#b" x="38.269" y="11.297"/><use xlink:href="#c" x="47.235" y="11.297"/><use xlink:href="#d" x="50.413" y="11.297"/><g clip-path="url(#e)"><path fill="none" stroke="#00F" stroke-miterlimit="10" stroke-width=".399" d="m85.46 66.21.614-3.468m1.426 2.043-3.469-.613M79.75 58.05l.61-3.469m1.43 2.04-3.47-.61m-4.285-6.121.613-3.47m1.426 2.04-3.469-.613m-4.285-6.121.614-3.47m1.43 2.044-3.47-.614m-4.285-6.12.61-3.47m1.43 2.04-3.47-.61m-4.284-6.125.613-3.468m1.43 2.043-3.47-.614m-4.284-6.12.609-3.47m1.43 2.04-3.47-.61"/></g></svg>