<svg xmlns="http://www.w3.org/2000/svg" xmlns:xlink="http://www.w3.org/1999/xlink" width="113.798" height="62.624"><defs><path id="a" d="M8.578 0v-.469H7.5v-5.906h1.078v-.469c-.39.032-1.36.032-1.797.032-.422 0-1.39 0-1.781-.032v.469h1.078v2.594H2.875v-2.594h1.078v-.469c-.375.032-1.344.032-1.781.032-.422 0-1.406 0-1.781-.032v.469h1.078v5.906H.39V0C.766-.031 1.75-.031 2.17-.031c.438 0 1.407 0 1.782.031v-.469H2.875v-2.843h3.203V-.47H5V0c.39-.031 1.36-.031 1.781-.031.438 0 1.407 0 1.797.031m0 0"/><path id="b" d="M2.844 0v-.469h-.61v-4.015L.5-4.406v.468c.594 0 .656 0 .656.391v3.078H.47V0l1.219-.031Zm-.469-6.047a.774.774 0 0 0-.781-.781.784.784 0 0 0-.782.781c0 .422.36.766.782.766a.77.77 0 0 0 .781-.766m0 0"/><path id="c" d="M2.5-.312c0-.672-.344-1.25-.922-1.25-.469 0-.766.359-.766.78 0 .407.266.782.766.782a.84.84 0 0 0 .563-.203C2.047.89 1.406 1.422 1.203 1.594c-.062.047-.094.078-.094.14 0 .094.11.204.188.204.156 0 1.203-.86 1.203-2.25m0 0"/><path id="d" d="M11.61-6.375v-.469c-.282.016-.626.032-1.079.032-.375 0-.984 0-1.344-.032v.469c.25 0 .72 0 1.016.11L8.484-1.798 6.72-6.375h.953v-.469c-.375.032-1.313.032-1.734.032-.391 0-1.188 0-1.532-.032v.469h.86l.406 1.063-1.36 3.515-1.765-4.578h.969v-.469c-.391.032-1.328.032-1.75.032-.391 0-1.172 0-1.532-.032v.469h.86l2.39 6.203c.063.156.11.25.36.25s.281-.094.344-.25l1.734-4.5 1.734 4.5c.063.156.094.25.344.25s.297-.094.36-.25l2.296-5.953c.063-.172.063-.187.375-.219.203-.031.406-.031.578-.031m0 0"/><path id="e" d="M5.406-2.172c0-1.344-.922-2.344-2.547-2.344C1.22-4.516.313-3.5.313-2.172c0 1.235.89 2.235 2.546 2.235 1.672 0 2.547-1.016 2.547-2.235m-1.281-.11c0 .86 0 1.938-1.266 1.938-1.265 0-1.265-1.078-1.265-1.937 0-.453 0-.953.172-1.297.187-.375.609-.578 1.093-.578.422 0 .844.156 1.063.5.203.344.203.89.203 1.375m0 0"/><path id="f" d="M4.406-3.672c0-.531-.531-.812-1.062-.812-.688 0-1.094.5-1.313 1.125v-1.125l-1.656.078v.468c.61 0 .688 0 .688.391v3.078H.375V0l1.25-.031C2-.031 2.641-.031 3 0v-.469h-.86v-1.75c0-.687.235-1.906 1.235-1.906 0 0-.187.172-.187.453 0 .406.328.61.609.61.297 0 .61-.204.61-.61m0 0"/><path id="g" d="M2.922 0v-.469h-.688v-6.453L.47-6.844v.469c.625 0 .687 0 .687.39v5.516H.47V0l1.219-.031Zm0 0"/><path id="h" d="M5.984 0v-.469c-.609 0-.687 0-.687-.39v-6.063l-1.766.078v.469c.625 0 .703 0 .703.39v1.954a2.18 2.18 0 0 0-1.359-.453c-1.453 0-2.5.875-2.5 2.28 0 1.313.922 2.267 2.39 2.267.61 0 1.094-.235 1.407-.485v.485ZM4.172-1.031c-.14.187-.547.734-1.297.734-1.219 0-1.219-1.203-1.219-1.906 0-.485 0-1.016.25-1.406.297-.422.766-.516 1.078-.516.563 0 .97.313 1.188.61Zm0 0"/><path id="i" d="M2.531-6.312c0-.391-.36-.72-.781-.72-.437 0-.797.329-.797.72 0 .046 0 .078.031.171L1.5-2.516c.031.25.031.266.25.266.188 0 .219-.016.25-.219l.516-3.718Zm-.015 5.53a.78.78 0 0 0-.766-.78.784.784 0 0 0-.781.78.774.774 0 1 0 1.547 0m0 0"/><path id="w" d="M5.516-.234c0-.235-.125-.235-.266-.235-.61-.015-.61-.14-.61-.375v-2.14c0-.891-.702-1.532-2.187-1.532-.562 0-1.781.047-1.781.922 0 .438.344.625.61.625.312 0 .624-.219.624-.625 0-.297-.187-.469-.218-.5a5 5 0 0 1 .718-.062c.75 0 1.11.422 1.11 1.172v.343c-.72.032-3.25.125-3.25 1.563C.266-.125 1.5.062 2.188.062c.796 0 1.265-.406 1.484-.828 0 .313 0 .766 1.047.766h.468c.204 0 .329 0 .329-.234m-2-1.157c0 .97-.922 1.094-1.172 1.094-.516 0-.906-.344-.906-.797 0-1.062 1.578-1.203 2.078-1.234Zm0 0"/><path id="x" d="M4.766-1.172c0-.14-.141-.14-.235-.14-.187 0-.187.03-.25.156-.25.625-.734.812-1.234.812-1.39 0-1.39-1.453-1.39-1.922 0-.562 0-1.843 1.28-1.843.36 0 .516.015.657.046a.62.62 0 0 0-.203.47c0 .437.343.624.609.624.313 0 .64-.219.64-.625 0-.86-1.156-.922-1.734-.922C1.11-4.516.375-3.375.375-2.219.375-.89 1.313.063 2.844.063c1.625 0 1.922-1.157 1.922-1.235m0 0"/><path id="y" d="M3.813-1.234v-.532h-.47v.516c0 .672-.327.906-.609.906-.578 0-.578-.64-.578-.86v-2.75h1.469v-.468H2.156v-1.906h-.469c0 1-.484 1.984-1.484 2.016v.359h.828v2.734c0 1.063.86 1.282 1.578 1.282.75 0 1.204-.579 1.204-1.297m0 0"/><path id="z" d="M6.125 0v-.469c-.61 0-.687 0-.687-.39v-3.625l-1.813.078v.468c.61 0 .688 0 .688.391v1.906c0 .813-.516 1.344-1.235 1.344-.781 0-.812-.25-.812-.797v-3.39l-1.813.078v.468c.61 0 .688 0 .688.391v2.328c0 1.063.797 1.282 1.797 1.282.25 0 .968 0 1.421-.782v.782Zm0 0"/><path id="A" d="M4.922-1.172c0-.172-.188-.172-.234-.172-.172 0-.188.047-.25.203-.204.485-.782.797-1.422.797-1.407 0-1.422-1.328-1.422-1.828h3.015c.22 0 .313 0 .313-.265 0-.313-.063-1.047-.563-1.547-.359-.36-.89-.532-1.578-.532C1.187-4.516.313-3.484.313-2.25c0 1.344 1 2.313 2.609 2.313 1.578 0 2-1.063 2-1.235M3.984-2.5h-2.39c.015-.39.031-.812.234-1.14.266-.391.672-.516.953-.516 1.172 0 1.188 1.312 1.203 1.656m0 0"/><path id="B" d="M5.828 0v-.469h-.703L3.453-2.453 4.61-3.75c.141-.14.204-.203 1.016-.203v-.469l-.906.031-1.032-.03v.468c.141 0 .266.015.376.078-.032.063-.032.094-.079.125l-.828.938-.984-1.141h.406v-.469L1.36-4.39.266-4.42v.468h.718l1.547 1.828L1.22-.656c-.157.187-.516.187-1 .187V0l.922-.031L2.156 0v-.469c-.172 0-.36-.047-.36-.11 0 0 0-.015.063-.093l.97-1.094L3.921-.469h-.39V0l1.202-.031Zm0 0"/><path id="j" d="m2.844 2.844.328-.328-.813-.813 4.172-4.172.813.813L7.687-2c-.328-.266-1.015-.953-1.343-1.281-.313-.313-1.016-1.016-1.266-1.328l-.344.343.797.797L1.36.703.563-.094.233.234c.297.266 1 .97 1.313 1.282a51 51 0 0 1 1.297 1.328m0 0"/><path id="k" d="m3.578 1.828.375-.375-.344-.344-.359.36c-.484.484-.875.406-1.062.218-.407-.406.046-.859.187-1l1.953-1.953L5.36-.234l.329-.328-1.032-1.032L6-2.937l-.344-.344c-.703.703-1.734 1.047-2.468.375l-.25.25.593.594L1.594-.125c-.75.75-.297 1.516.203 2.016.531.53 1.266.453 1.781-.063m0 0"/><path id="l" d="M5.797-2.234C6.28-2.72 6.422-3.36 6-3.781c-.328-.328-.781-.281-1.078.015-.281.282-.36.735-.016 1.079.157.156.36.265.578.265-.843.75-1.718.656-1.984.61-.047-.016-.094-.032-.156.03-.063.063-.063.22 0 .282.094.094 1.469.25 2.453-.734m0 0"/><path id="m" d="M3.906 1.938c.313-.313.406-.688.375-1.125-.078-.485-.265-.766-.718-1.407-.22-.312-.594-.843-.266-1.172.437-.437 1.094.22 1.234.36.532.531.594 1 .235 1.422-.11.109-.125.156.015.297.172.171.203.14.375-.032L5.72-.28c.125-.125.187-.188.062-.313-.031-.031-.047-.047-.437-.187-.094-.281-.313-.563-.594-.844C4.531-1.844 3.453-2.922 2.531-2c-.281.281-.328.61-.312.875.047.516.281.844.719 1.469.218.312.64.922.218 1.344-.531.53-1.172-.11-1.328-.266-.75-.75-.39-1.453-.187-1.844.062-.125.015-.172-.079-.265-.171-.172-.218-.125-.375.03L.423.11C.282.25.219.313.344.438.39.484.406.5.672.547l.297.047c.094.562.469.937.61 1.078.218.219 1.296 1.297 2.327.266m0 0"/><path id="v" d="M6.266-2.672c.265-.265.234-.765-.063-1.062-.312-.313-.797-.328-1.062-.063-.032.031-.063.063-.094.156L2.844-.719c-.156.188-.172.203-.016.36.14.14.172.14.344.03l2.984-2.265ZM2.328 1.234c.297-.296.313-.812.016-1.109-.313-.312-.813-.281-1.11.016a.77.77 0 0 0 0 1.093.783.783 0 0 0 1.094 0m0 0"/><path id="n" d="M3.781 1.719c.11-.11.016-.203-.094-.313-.124-.125-.156-.156-.28-.093-.25.125-1.094.593-1.5.187-.032-.031-.095-.094.03-.219.094-.093.313-.218.344-.218L4.578.016a.9.9 0 0 0 .344-.22c.39-.39.266-.983-.11-1.358-.734-.735-2.03-.125-2.171.015-.11.11-.032.188.078.297.14.14.172.172.297.11.25-.126 1.093-.594 1.5-.188.03.031.078.078-.032.187a1.7 1.7 0 0 1-.343.25L1.844.156C1.687.22 1.594.25 1.5.344c-.406.406-.266 1.015.11 1.39.734.735 2.03.125 2.171-.015m3.39-3.203a.585.585 0 0 0-.015-.86c-.312-.312-.922-.328-1.234-.015-.234.234-.25.593.016.859.328.328.921.328 1.234.016m0 0"/><path id="o" d="M7.922 5.86c.11-.11.031-.188-.094-.313s-.156-.156-.281-.094c-.25.125-1.094.594-1.484.203-.047-.047-.11-.11.015-.234.14-.14.406-.25.719-.406.375-.157 1.516-.672 1.922-1.078.578-.579.375-1.22-.172-1.766-.563-.563-1.188-.594-1.656-.594C7.266.891 6.625.25 6.469.094c-.14-.14-.61-.61-1.563-.594.266-.547-.078-1.047-.297-1.266-.343-.343-.75-.28-.984-.234-.484.11-.969.438-.984.453-.11.11-.032.188.078.297.172.172.203.172.422.047.297-.172.937-.563 1.172-.328.078.078.093.187-.063.343-.14.141-.219.188-.36.266L1.376.594c-.125.062-.14.078-.172.11-.219.218-.156.468 0 .624.047.047.375.344.844.063L4.234.078c.25-.156 1.282-.406 1.922.235.297.296.032.562-.093.687-.172.172-.313.281-.688.5l-1.484.89c-.22.126-.563.344-.61.391-.219.219-.156.469 0 .625.078.078.406.313.86.047l2.156-1.312c.266-.141 1.297-.391 1.922.234.312.313.047.578-.078.703-.422.422-1.61.985-2.063 1.156-.234.11-.328.172-.422.266-.406.406-.281 1 .094 1.375.734.734 2.031.125 2.172-.016m0 0"/><path id="p" d="M6.266 2.14c.828-.828.53-1.718 0-2.25-.438-.437-.985-.546-1.297-.577.125-.375-.094-.813-.36-1.079-.343-.343-.75-.28-.984-.234-.484.11-.969.438-.984.453-.11.11-.032.188.078.297.172.172.203.172.422.047.297-.172.937-.563 1.172-.328.078.078.093.187-.063.343-.14.141-.219.188-.36.266l-4.156 2.5c-.14.078-.14.078-.375-.156-.093-.094-.218-.219-.421-.016a.197.197 0 0 0 0 .282c.203.203.453.39.656.593.25.25.469.531.703.766.047.047.187.187.406-.031.125-.125.016-.235-.062-.313l-.297-.297 1.5-.906c.031.438.25.719.406.875 1.172 1.172 3.063.719 4.016-.234m-2.157 0c-.921.454-1.406.157-1.593-.03-.25-.25-.297-.61-.094-.938L4.5-.094c.063-.031.078-.047.156-.093.703-.11 1.094.093 1.313.312.156.156.312.5-.078.89-.375.376-1.5 1-1.782 1.126m0 0"/><path id="q" d="M6.203 2.203C6.937 1.47 6.875.5 6.031-.344c-1.39-1.39-3.265-.922-4.156-.031-.734.734-.672 1.703.156 2.531 1.39 1.39 3.282.938 4.172.047m-2.25 0c-.656.219-1.281.063-1.64-.297-.25-.25-.454-.703.03-1.187.282-.281 1.235-.89 1.782-1.094.672-.234 1.281-.062 1.64.297.235.234.47.687-.03 1.187-.282.282-1.25.875-1.782 1.094m0 0"/><path id="r" d="M6.531 1.406c.36-.36.235-1.015-.265-1.515a1.75 1.75 0 0 0-1.282-.532c.094-.343-.03-.78-.375-1.125-.343-.343-.75-.28-.984-.234-.484.11-.969.438-.984.453-.11.11-.032.188.078.297.172.172.203.172.422.047.297-.172.937-.563 1.172-.328.078.078.093.187-.063.343-.14.141-.219.188-.36.266L1.376.594c-.125.062-.14.078-.172.11-.219.218-.156.468 0 .624.047.047.375.344.844.063l2.39-1.453c.204-.11 1.032-.313 1.532.187.078.078.25.25.281.5-.484-.172-.781.125-.797.14-.172.173-.203.454.016.673.265.265.75.28 1.062-.032m0 0"/><path id="s" d="M3.984 1.922c.11-.11.016-.203-.093-.313-.157-.156-.157-.156-.313-.093-1 .406-1.469.187-1.656 0-.078-.079-.156-.157.062-.375.125-.125.204-.172.344-.25L4.922-.672l.578.578c.11.11.219.219.422.016.125-.125.016-.234-.078-.328l-.516-.516.703-.422c.219-.125.61-.36.672-.422.156-.156.188-.406-.016-.609a.64.64 0 0 0-.812-.062l-1.297.765-.562-.562c-.125-.125-.25-.25-.453-.047-.126.125 0 .25.093.344l.516.515L1.719.063c-.157.062-.203.109-.25.156-.438.437-.266 1.11.14 1.515.813.813 2.266.297 2.375.188m0 0"/><path id="t" d="M5.36 3.297c.109-.11.03-.188-.079-.297-.172-.172-.172-.172-.406-.062-.281.187-.937.593-1.187.343-.079-.078-.079-.172.093-.344.125-.124.203-.171.344-.25l2.36-1.453c.156-.062.156-.062.187-.093A.45.45 0 0 0 6.656.5C6.531.375 6.344.344 6.172.328c.016-.453-.234-.766-.422-.953-1.187-1.187-3.062-.719-4 .219-.844.844-.547 1.734-.016 2.265.438.438 1 .532 1.297.579-.094.374.094.812.36 1.078.343.343.765.265 1 .218a3.2 3.2 0 0 0 .968-.437m-2-1.344c-.72.094-1.094-.094-1.329-.328-.156-.156-.297-.484.11-.89.375-.376 1.468-1 1.75-1.126.937-.437 1.422-.14 1.593.032.25.25.282.593.094.937L3.5 1.844c-.062.031-.078.047-.14.11m0 0"/><path id="u" d="M5.844 3.781c.11-.11.031-.187-.078-.297-.141-.14-.172-.171-.282-.093-.25.125-1.109.578-1.5.187-.03-.031-.109-.11.016-.234.14-.14.406-.25.734-.39.36-.173 1.5-.688 1.907-1.095.578-.578.39-1.203-.172-1.765-.14-.14-.61-.61-1.563-.594.266-.547-.078-1.047-.297-1.266-.343-.343-.75-.28-.984-.234-.484.11-.969.438-.984.453-.11.11-.032.188.078.297.172.172.203.172.422.047.297-.172.937-.563 1.172-.328.078.078.093.187-.063.343-.14.141-.219.188-.36.266L1.376.594c-.125.062-.14.078-.172.11-.219.218-.156.468 0 .624.047.047.375.344.844.063L4.234.078c.25-.156 1.282-.406 1.922.235.297.296.032.562-.093.687-.422.422-1.61.984-2.063 1.156-.219.125-.328.172-.422.266-.406.406-.281 1 .11 1.39.718.72 2.015.11 2.156-.03m0 0"/><clipPath id="C"><path d="M19 49h18v13.438H19Zm0 0"/></clipPath></defs><use xlink:href="#a" x=".988" y="32.153"/><use xlink:href="#b" x="9.954" y="32.153"/><use xlink:href="#c" x="13.132" y="32.153"/><use xlink:href="#d" x="20.126" y="32.153"/><use xlink:href="#e" x="31.015" y="32.153"/><use xlink:href="#f" x="36.744" y="32.153"/><use xlink:href="#g" x="41.466" y="32.153"/><use xlink:href="#h" x="44.644" y="32.153"/><use xlink:href="#i" x="51.01" y="32.153"/><g fill="red"><use xlink:href="#j" x="56.645" y="5.416"/><use xlink:href="#k" x="59.716" y="8.487"/><use xlink:href="#l" x="62.865" y="11.636"/><use xlink:href="#m" x="65.113" y="13.884"/></g><g fill="red"><use xlink:href="#n" x="71.008" y="19.779"/><use xlink:href="#o" x="73.516" y="22.287"/><use xlink:href="#p" x="80.166" y="28.937"/></g><g fill="red"><use xlink:href="#q" x="83.914" y="32.685"/><use xlink:href="#r" x="88.077" y="36.848"/><use xlink:href="#s" x="91.614" y="40.385"/><use xlink:href="#t" x="94.326" y="43.097"/><use xlink:href="#u" x="98.489" y="47.26"/><use xlink:href="#s" x="103.068" y="51.839"/></g><use xlink:href="#v" x="106.161" y="54.932" fill="red"/><path fill="none" stroke="#000" stroke-miterlimit="10" stroke-width=".399" d="M58.02 29.61h14.71"/><path fill="none" stroke="#000" stroke-linecap="round" stroke-linejoin="round" stroke-miterlimit="10" stroke-width=".39899202" d="M70.855 27.219c.38 1.433 1.223 2.113 2.075 2.39-.852.282-1.696.957-2.075 2.391"/><use xlink:href="#w" x=".62" y="61.381"/><use xlink:href="#x" x="6.189" y="61.381"/><use xlink:href="#y" x="11.28" y="61.381"/><use xlink:href="#z" x="15.733" y="61.381"/><use xlink:href="#w" x="22.099" y="61.381"/><use xlink:href="#g" x="27.669" y="61.381"/><use xlink:href="#y" x="34.662" y="61.381"/><use xlink:href="#A" x="39.116" y="61.381"/><use xlink:href="#B" x="44.366" y="61.381"/><use xlink:href="#y" x="50.413" y="61.381"/><path fill="none" stroke="#000" stroke-miterlimit="10" stroke-width=".399" d="m41.754 50.95 34.785-17.391"/><path fill="none" stroke="#000" stroke-linecap="round" stroke-linejoin="round" stroke-miterlimit="10" stroke-width=".39897606" d="M73.797 32.258c.98 1.113 2.039 1.34 2.922 1.21-.637.63-1.086 1.614-.785 3.067"/><g clip-path="url(#C)"><path fill="none" stroke="#000" stroke-miterlimit="10" stroke-width=".399" d="M30.73 57.953a2.988 2.988 0 1 0-5.976 0 2.99 2.99 0 1 0 5.977 0Zm0 0"/></g></svg>