<svg xmlns="http://www.w3.org/2000/svg" width="60.955" height="60.572"><defs><clipPath id="a"><path d="M2 50h15v10.36H2Zm0 0"/></clipPath><clipPath id="b"><path d="M9 49h15v11.36H9Zm0 0"/></clipPath><clipPath id="c"><path d="M16 48h15v12.36H16Zm0 0"/></clipPath><clipPath id="d"><path d="M23 47h15v13.36H23Zm0 0"/></clipPath><clipPath id="e"><path d="M51 42h9.934v15H51Zm0 0"/></clipPath></defs><g clip-path="url(#a)"><path fill="none" stroke="#000" stroke-miterlimit="10" stroke-width=".399" d="m8.105 59.21 2.817-2.82m-2.817 0 2.817 2.82"/></g><g clip-path="url(#b)"><path fill="none" stroke="#000" stroke-miterlimit="10" stroke-width=".399" d="m15.086 57.98 2.816-2.82m-2.816 0 2.816 2.82"/></g><g clip-path="url(#c)"><path fill="none" stroke="#000" stroke-miterlimit="10" stroke-width=".399" d="m22.063 56.75 2.82-2.82m-2.82 0 2.82 2.82"/></g><g clip-path="url(#d)"><path fill="none" stroke="#000" stroke-miterlimit="10" stroke-width=".399" d="m29.043 55.52 2.816-2.82m-2.816 0 2.816 2.82"/></g><path fill="none" stroke="#000" stroke-miterlimit="10" stroke-width=".399" d="m36.023 54.29 2.817-2.821m-2.817 0 2.817 2.82M43 53.059l2.82-2.82m-2.82 0 2.82 2.82M49.98 51.828l2.817-2.82m-2.817 0 2.817 2.82"/><g clip-path="url(#e)"><path fill="none" stroke="#000" stroke-miterlimit="10" stroke-width=".399" d="m56.96 50.598 2.817-2.82m-2.816 0 2.816 2.82"/></g><path fill="none" stroke="#000" stroke-miterlimit="10" stroke-width=".399" d="m1.125 53.355 2.82-2.82m-2.82 0 2.82 2.82M1.125 46.27l2.82-2.82m-2.82 0 2.82 2.82M1.125 39.18l2.82-2.817m-2.82 0 2.82 2.817M1.125 32.094l2.82-2.817m-2.82 0 2.82 2.817M1.125 25.008l2.82-2.817m-2.82 0 2.82 2.817M1.125 17.922l2.82-2.82m-2.82 0 2.82 2.82M1.125 10.836l2.82-2.82m-2.82 0 2.82 2.82M1.125 3.746 3.945.93m-2.82 0 2.82 2.816"/></svg>