<svg xmlns="http://www.w3.org/2000/svg" xmlns:xlink="http://www.w3.org/1999/xlink" width="111.818" height="649.244"><defs><path id="a" d="M4.531-3.078c0-1.235 0-3.344-2.062-3.344C.39-6.422.39-4.328.39-3.078.39-1.844.39.203 2.453.203c2.078 0 2.078-2.031 2.078-3.281m-1.218-.125c0 .515 0 1.219-.063 1.703-.016.234-.125 1.047-.797 1.047-.656 0-.765-.828-.781-1.063-.063-.468-.063-1.312-.063-1.687 0-.531 0-1.11.047-1.547.032-.234.125-1.031.797-1.031s.781.765.797.937c.063.453.063 1.172.063 1.64m0 0"/><path id="b" d="M4.25-.328c0-.313-.344-.313-.437-.313h-.626v-5.343c0-.172 0-.438-.39-.438-.188 0-.219.016-.328.125-.156.14-.5.469-1.39.5-.157 0-.391.063-.391.313 0 .328.312.328.421.328.266 0 .579-.047.844-.125v4.64H1.25c-.11 0-.422 0-.422.313C.828 0 1.141 0 1.25 0h2.563c.093 0 .437 0 .437-.328m0 0"/><path id="c" d="M4.438-.437v-.094c0-.156 0-.328-.188-.406-.078-.032-.36-.032-.531-.032l-.61.016H1.656l1.172-1.125c.14-.125.485-.39.61-.516.5-.484 1-.969 1-1.765 0-1.094-.797-2.063-2.11-2.063-.312 0-.828.047-1.265.39-.079.063-.485.391-.657.985l.453.578c.063.078.079.11.141.11.078 0 .11-.063.125-.172.188-.61.484-1 1.063-1 .703 0 .984.64.984 1.187 0 .578-.344 1.172-.875 1.75L.578-.766C.5-.672.5-.656.5-.5v.063C.5-.11.594 0 .922 0H4c.344 0 .438-.11.438-.437m0 0"/><path id="d" d="M4.516-1.828c0-.797-.438-1.344-1.235-1.547.719-.406.969-.984.969-1.5 0-1.437-1.297-1.547-1.875-1.547-1.234 0-1.828.875-1.828.953 0 .047.062.125.062.125l.25.36c.079.109.141.109.141.109.063 0 .078-.031.125-.094.453-.656 1.094-.656 1.203-.656.578 0 .656.297.656.734 0 .125 0 .563-.28.907-.204.25-.438.265-.704.28-.094.017-.266.017-.297.032-.062.031-.062.078-.062.235v.156c0 .234.015.234.25.234h.39c.813 0 .906.516.906 1.203 0 .61-.062 1.203-.874 1.203-.282 0-.954-.062-1.547-.64C.687-1.36.672-1.36.64-1.36c-.094 0-.11.078-.125.093 0 0-.11.579-.11.625 0 .11.782.844 1.953.844 1.547 0 2.157-.828 2.157-2.031m0 0"/><path id="e" d="M4.64-1.797c0-.328-.109-.422-.421-.422h-.375v-3.578c0-.312-.11-.422-.438-.422H2.75c-.172 0-.297 0-.406.203l-2 3.672C.28-2.219.28-2.188.28-2.03v.234c0 .281.063.422.422.422H2.72v.938c0 .296.078.437.437.437h.25c.344 0 .438-.11.438-.437v-.938h.375c.281 0 .422-.062.422-.422m-1.859-.422H1.203C2.641-4.859 2.72-5.125 2.766-5.28h.015Zm0 0"/><path id="f" d="M4.438-1.984c0-1.188-.5-2.063-1.875-2.063-.22 0-.438.031-.657.125v-1.406h1.766c.422 0 .422-.203.422-.453 0-.235 0-.438-.422-.438h-2.5c-.281 0-.422.047-.422.407v2.75c0 .406.203.406.438.406s.312 0 .437-.219c.219-.344.531-.531.906-.531.578 0 .578.687.578 1.39 0 .688 0 1.375-.937 1.375-.281 0-.89-.078-1.25-.796-.031-.047-.047-.11-.11-.11-.078 0-.093.047-.156.125-.125.203-.328.516-.328.578C.328-.766.922.203 2.203.203c1.438 0 2.235-.734 2.235-2.187m0 0"/><path id="g" d="M4.516-2.11c0-.515 0-2.187-1.75-2.187-.5 0-.86.281-1.094.797.047-.812.047-1 .187-1.36.25-.687.844-.765 1.157-.765.172 0 .406.031.609.14.063.048.094.063.14.063.11 0 .11-.11.11-.234v-.328c0-.22 0-.235-.312-.344-.235-.094-.485-.094-.563-.094C.406-6.422.406-3.844.406-3.047c0 .922 0 3.25 2.094 3.25.688 0 1.125-.172 1.484-.594.47-.515.532-1.03.532-1.718M3.25-2.124c0 .875 0 1.484-.75 1.484-.719 0-.812-.812-.812-1.578 0-.75.218-1.437.843-1.437.719 0 .719.64.719 1.531m0 0"/><path id="h" d="M4.516-5.781c0-.188 0-.438-.375-.438l-2.547-.015h-.578c-.422 0-.61 0-.61.437v.11c0 .14 0 .312.188.39.062.047.36.047.547.047l.64-.016h1.516C1.28-3.046 1.28-.796 1.28-.328c0 .281.063.422.438.422h.406c.14 0 .438 0 .438-.344.015-2.219.796-3.844 1.874-5.203.079-.094.079-.156.079-.328m0 0"/><path id="i" d="M4.516-1.828c0-.813-.391-1.313-1.11-1.531.86-.282.969-.907.969-1.313 0-1.312-.844-1.75-1.906-1.75-.985 0-1.922.344-1.922 1.75 0 .469.156 1.047.969 1.313-.922.265-1.11.968-1.11 1.53 0 1.407.766 2.032 2.047 2.032 1.36 0 2.063-.672 2.063-2.031M3.234-4.656c0 .515-.015.968-.765.968s-.781-.437-.781-.968c0-.625.062-.969.765-.969.719 0 .781.328.781.969m.032 2.812c0 .672-.016 1.203-.797 1.203-.797 0-.813-.5-.813-1.203 0-.578 0-1.203.797-1.203.813 0 .813.61.813 1.203m0 0"/><path id="j" d="M4.516-3.187c0-.97-.016-3.235-2.047-3.235-.563 0-1.156.094-1.61.672-.39.5-.453.938-.453 1.64 0 .563.031 1.063.407 1.579.359.469.78.61 1.343.61.672 0 .985-.532 1.094-.813 0 .078 0 .25-.016.64-.046.547-.218 1.453-1.203 1.453-.265 0-.531-.078-.781-.296-.047-.063-.062-.079-.11-.079-.077 0-.093.047-.14.125-.172.282-.297.485-.297.547s.469.547 1.344.547c2.469 0 2.469-2.594 2.469-3.39M3.25-3.984c0 .125 0 1.406-.86 1.406-.718 0-.718-.64-.718-1.531 0-.875 0-1.516.812-1.516.625 0 .766.688.766 1.64m0 0"/></defs><g fill="#007F00"><use xlink:href="#a" x=".531" y="7.042"/><use xlink:href="#b" x="5.463" y="7.042"/></g><use xlink:href="#b" x="19.836" y="7.042"/><use xlink:href="#c" x="34.209" y="7.042"/><use xlink:href="#d" x="48.582" y="7.042"/><use xlink:href="#e" x="62.955" y="7.042"/><use xlink:href="#f" x="77.328" y="7.042"/><use xlink:href="#g" x="91.701" y="7.042"/><use xlink:href="#h" x="106.074" y="7.042" fill="#7F7F7F"/><use xlink:href="#i" x="19.836" y="19.362"/><use xlink:href="#j" x="34.209" y="19.362"/><use xlink:href="#b" x="43.651" y="19.362"/><use xlink:href="#a" x="48.583" y="19.362"/><use xlink:href="#b" x="58.024" y="19.362"/><use xlink:href="#b" x="62.956" y="19.362"/><use xlink:href="#b" x="72.397" y="19.362"/><use xlink:href="#c" x="77.329" y="19.362"/><use xlink:href="#b" x="86.77" y="19.362"/><use xlink:href="#d" x="91.702" y="19.362"/><g fill="#7F7F7F"><use xlink:href="#b" x="101.143" y="19.362"/><use xlink:href="#e" x="106.075" y="19.362"/></g><use xlink:href="#b" x="14.905" y="31.682"/><use xlink:href="#f" x="19.837" y="31.682"/><use xlink:href="#b" x="29.278" y="31.682"/><use xlink:href="#g" x="34.21" y="31.682"/><use xlink:href="#b" x="43.651" y="31.682"/><use xlink:href="#h" x="48.583" y="31.682"/><use xlink:href="#b" x="58.024" y="31.682"/><use xlink:href="#i" x="62.956" y="31.682"/><use xlink:href="#b" x="72.397" y="31.682"/><use xlink:href="#j" x="77.329" y="31.682"/><use xlink:href="#c" x="86.77" y="31.682"/><use xlink:href="#a" x="91.702" y="31.682"/><g fill="#7F7F7F"><use xlink:href="#c" x="101.143" y="31.682"/><use xlink:href="#b" x="106.075" y="31.682"/></g><use xlink:href="#c" x="14.905" y="44.002"/><use xlink:href="#c" x="19.837" y="44.002"/><use xlink:href="#c" x="29.278" y="44.002"/><use xlink:href="#d" x="34.21" y="44.002"/><use xlink:href="#c" x="43.651" y="44.002"/><use xlink:href="#e" x="48.583" y="44.002"/><use xlink:href="#c" x="58.024" y="44.002"/><use xlink:href="#f" x="62.956" y="44.002"/><use xlink:href="#c" x="72.397" y="44.002"/><use xlink:href="#g" x="77.329" y="44.002"/><use xlink:href="#c" x="86.77" y="44.002"/><use xlink:href="#h" x="91.702" y="44.002"/><g fill="#7F7F7F"><use xlink:href="#c" x="101.143" y="44.002"/><use xlink:href="#i" x="106.075" y="44.002"/></g><use xlink:href="#c" x="14.905" y="56.322"/><use xlink:href="#j" x="19.837" y="56.322"/><use xlink:href="#d" x="29.278" y="56.322"/><use xlink:href="#a" x="34.21" y="56.322"/><use xlink:href="#d" x="43.651" y="56.322"/><use xlink:href="#b" x="48.583" y="56.322"/><g fill="#007F00"><use xlink:href="#a" x=".531" y="56.322"/><use xlink:href="#c" x="5.463" y="56.322"/></g><use xlink:href="#b" x="62.955" y="56.322"/><use xlink:href="#c" x="77.328" y="56.322"/><use xlink:href="#d" x="91.701" y="56.322"/><use xlink:href="#e" x="106.074" y="56.322" fill="#7F7F7F"/><use xlink:href="#f" x="19.836" y="68.641"/><use xlink:href="#g" x="34.209" y="68.641"/><use xlink:href="#h" x="48.582" y="68.641"/><use xlink:href="#i" x="62.955" y="68.641"/><use xlink:href="#j" x="77.328" y="68.641"/><use xlink:href="#b" x="86.77" y="68.641"/><use xlink:href="#a" x="91.702" y="68.641"/><g fill="#7F7F7F"><use xlink:href="#b" x="101.143" y="68.641"/><use xlink:href="#b" x="106.075" y="68.641"/></g><use xlink:href="#b" x="14.905" y="80.961"/><use xlink:href="#c" x="19.837" y="80.961"/><use xlink:href="#b" x="29.278" y="80.961"/><use xlink:href="#d" x="34.21" y="80.961"/><use xlink:href="#b" x="43.651" y="80.961"/><use xlink:href="#e" x="48.583" y="80.961"/><use xlink:href="#b" x="58.024" y="80.961"/><use xlink:href="#f" x="62.956" y="80.961"/><use xlink:href="#b" x="72.397" y="80.961"/><use xlink:href="#g" x="77.329" y="80.961"/><use xlink:href="#b" x="86.77" y="80.961"/><use xlink:href="#h" x="91.702" y="80.961"/><g fill="#7F7F7F"><use xlink:href="#b" x="101.143" y="80.961"/><use xlink:href="#i" x="106.075" y="80.961"/></g><use xlink:href="#b" x="14.905" y="93.281"/><use xlink:href="#j" x="19.837" y="93.281"/><use xlink:href="#c" x="29.278" y="93.281"/><use xlink:href="#a" x="34.21" y="93.281"/><use xlink:href="#c" x="43.651" y="93.281"/><use xlink:href="#b" x="48.583" y="93.281"/><use xlink:href="#c" x="58.024" y="93.281"/><use xlink:href="#c" x="62.956" y="93.281"/><use xlink:href="#c" x="72.397" y="93.281"/><use xlink:href="#d" x="77.329" y="93.281"/><use xlink:href="#c" x="86.77" y="93.281"/><use xlink:href="#e" x="91.702" y="93.281"/><g fill="#7F7F7F"><use xlink:href="#c" x="101.143" y="93.281"/><use xlink:href="#f" x="106.075" y="93.281"/></g><use xlink:href="#c" x="14.905" y="105.601"/><use xlink:href="#g" x="19.837" y="105.601"/><use xlink:href="#c" x="29.278" y="105.601"/><use xlink:href="#h" x="34.21" y="105.601"/><use xlink:href="#c" x="43.651" y="105.601"/><use xlink:href="#i" x="48.583" y="105.601"/><use xlink:href="#c" x="58.024" y="105.601"/><use xlink:href="#j" x="62.956" y="105.601"/><g fill="#007F00"><use xlink:href="#a" x=".531" y="105.601"/><use xlink:href="#d" x="5.463" y="105.601"/></g><use xlink:href="#b" x="77.328" y="105.601"/><use xlink:href="#c" x="91.701" y="105.601"/><use xlink:href="#d" x="106.074" y="105.601" fill="#7F7F7F"/><use xlink:href="#e" x="19.836" y="117.92"/><use xlink:href="#f" x="34.209" y="117.92"/><use xlink:href="#g" x="48.582" y="117.92"/><use xlink:href="#h" x="62.955" y="117.92"/><use xlink:href="#i" x="77.328" y="117.92"/><use xlink:href="#j" x="91.701" y="117.92"/><g fill="#7F7F7F"><use xlink:href="#b" x="101.143" y="117.92"/><use xlink:href="#a" x="106.075" y="117.92"/></g><use xlink:href="#b" x="14.905" y="130.24"/><use xlink:href="#b" x="19.837" y="130.24"/><use xlink:href="#b" x="29.278" y="130.24"/><use xlink:href="#c" x="34.21" y="130.24"/><use xlink:href="#b" x="43.651" y="130.24"/><use xlink:href="#d" x="48.583" y="130.24"/><use xlink:href="#b" x="58.024" y="130.24"/><use xlink:href="#e" x="62.956" y="130.24"/><use xlink:href="#b" x="72.397" y="130.24"/><use xlink:href="#f" x="77.329" y="130.24"/><use xlink:href="#b" x="86.77" y="130.24"/><use xlink:href="#g" x="91.702" y="130.24"/><g fill="#7F7F7F"><use xlink:href="#b" x="101.143" y="130.24"/><use xlink:href="#h" x="106.075" y="130.24"/></g><use xlink:href="#b" x="14.905" y="142.56"/><use xlink:href="#i" x="19.837" y="142.56"/><use xlink:href="#b" x="29.278" y="142.56"/><use xlink:href="#j" x="34.21" y="142.56"/><use xlink:href="#c" x="43.651" y="142.56"/><use xlink:href="#a" x="48.583" y="142.56"/><use xlink:href="#c" x="58.024" y="142.56"/><use xlink:href="#b" x="62.956" y="142.56"/><use xlink:href="#c" x="72.397" y="142.56"/><use xlink:href="#c" x="77.329" y="142.56"/><use xlink:href="#c" x="86.77" y="142.56"/><use xlink:href="#d" x="91.702" y="142.56"/><g fill="#7F7F7F"><use xlink:href="#c" x="101.143" y="142.56"/><use xlink:href="#e" x="106.075" y="142.56"/></g><use xlink:href="#c" x="14.905" y="154.88"/><use xlink:href="#f" x="19.837" y="154.88"/><use xlink:href="#c" x="29.278" y="154.88"/><use xlink:href="#g" x="34.21" y="154.88"/><use xlink:href="#c" x="43.651" y="154.88"/><use xlink:href="#h" x="48.583" y="154.88"/><use xlink:href="#c" x="58.024" y="154.88"/><use xlink:href="#i" x="62.956" y="154.88"/><use xlink:href="#c" x="72.397" y="154.88"/><use xlink:href="#j" x="77.329" y="154.88"/><use xlink:href="#d" x="86.77" y="154.88"/><use xlink:href="#a" x="91.702" y="154.88"/><g fill="#7F7F7F"><use xlink:href="#d" x="101.143" y="154.88"/><use xlink:href="#b" x="106.075" y="154.88"/></g><g fill="#007F00"><use xlink:href="#a" x=".531" y="167.2"/><use xlink:href="#e" x="5.463" y="167.2"/></g><use xlink:href="#b" x="19.836" y="167.2"/><use xlink:href="#c" x="34.209" y="167.2"/><use xlink:href="#d" x="48.582" y="167.2"/><use xlink:href="#e" x="62.955" y="167.2"/><use xlink:href="#f" x="77.328" y="167.2"/><use xlink:href="#g" x="91.701" y="167.2"/><use xlink:href="#h" x="106.074" y="167.2" fill="#7F7F7F"/><use xlink:href="#i" x="19.836" y="179.519"/><use xlink:href="#j" x="34.209" y="179.519"/><use xlink:href="#b" x="43.651" y="179.519"/><use xlink:href="#a" x="48.583" y="179.519"/><use xlink:href="#b" x="58.024" y="179.519"/><use xlink:href="#b" x="62.956" y="179.519"/><use xlink:href="#b" x="72.397" y="179.519"/><use xlink:href="#c" x="77.329" y="179.519"/><use xlink:href="#b" x="86.77" y="179.519"/><use xlink:href="#d" x="91.702" y="179.519"/><g fill="#7F7F7F"><use xlink:href="#b" x="101.143" y="179.519"/><use xlink:href="#e" x="106.075" y="179.519"/></g><use xlink:href="#b" x="14.905" y="191.839"/><use xlink:href="#f" x="19.837" y="191.839"/><use xlink:href="#b" x="29.278" y="191.839"/><use xlink:href="#g" x="34.21" y="191.839"/><use xlink:href="#b" x="43.651" y="191.839"/><use xlink:href="#h" x="48.583" y="191.839"/><use xlink:href="#b" x="58.024" y="191.839"/><use xlink:href="#i" x="62.956" y="191.839"/><use xlink:href="#b" x="72.397" y="191.839"/><use xlink:href="#j" x="77.329" y="191.839"/><use xlink:href="#c" x="86.77" y="191.839"/><use xlink:href="#a" x="91.702" y="191.839"/><g fill="#7F7F7F"><use xlink:href="#c" x="101.143" y="191.839"/><use xlink:href="#b" x="106.075" y="191.839"/></g><use xlink:href="#c" x="14.905" y="204.159"/><use xlink:href="#c" x="19.837" y="204.159"/><use xlink:href="#c" x="29.278" y="204.159"/><use xlink:href="#d" x="34.21" y="204.159"/><use xlink:href="#c" x="43.651" y="204.159"/><use xlink:href="#e" x="48.583" y="204.159"/><use xlink:href="#c" x="58.024" y="204.159"/><use xlink:href="#f" x="62.956" y="204.159"/><use xlink:href="#c" x="72.397" y="204.159"/><use xlink:href="#g" x="77.329" y="204.159"/><use xlink:href="#c" x="86.77" y="204.159"/><use xlink:href="#h" x="91.702" y="204.159"/><g fill="#7F7F7F"><use xlink:href="#c" x="101.143" y="204.159"/><use xlink:href="#i" x="106.075" y="204.159"/></g><use xlink:href="#c" x="14.905" y="216.479"/><use xlink:href="#j" x="19.837" y="216.479"/><use xlink:href="#d" x="29.278" y="216.479"/><use xlink:href="#a" x="34.21" y="216.479"/><g fill="#007F00"><use xlink:href="#a" x=".531" y="216.479"/><use xlink:href="#f" x="5.463" y="216.479"/></g><use xlink:href="#b" x="48.582" y="216.479"/><use xlink:href="#c" x="62.955" y="216.479"/><use xlink:href="#d" x="77.328" y="216.479"/><use xlink:href="#e" x="91.701" y="216.479"/><use xlink:href="#f" x="106.074" y="216.479" fill="#7F7F7F"/><use xlink:href="#g" x="19.836" y="228.798"/><use xlink:href="#h" x="34.209" y="228.798"/><use xlink:href="#i" x="48.582" y="228.798"/><use xlink:href="#j" x="62.955" y="228.798"/><use xlink:href="#b" x="72.397" y="228.798"/><use xlink:href="#a" x="77.329" y="228.798"/><use xlink:href="#b" x="86.77" y="228.798"/><use xlink:href="#b" x="91.702" y="228.798"/><g fill="#7F7F7F"><use xlink:href="#b" x="101.143" y="228.798"/><use xlink:href="#c" x="106.075" y="228.798"/></g><use xlink:href="#b" x="14.905" y="241.118"/><use xlink:href="#d" x="19.837" y="241.118"/><use xlink:href="#b" x="29.278" y="241.118"/><use xlink:href="#e" x="34.21" y="241.118"/><use xlink:href="#b" x="43.651" y="241.118"/><use xlink:href="#f" x="48.583" y="241.118"/><use xlink:href="#b" x="58.024" y="241.118"/><use xlink:href="#g" x="62.956" y="241.118"/><use xlink:href="#b" x="72.397" y="241.118"/><use xlink:href="#h" x="77.329" y="241.118"/><use xlink:href="#b" x="86.77" y="241.118"/><use xlink:href="#i" x="91.702" y="241.118"/><g fill="#7F7F7F"><use xlink:href="#b" x="101.143" y="241.118"/><use xlink:href="#j" x="106.075" y="241.118"/></g><use xlink:href="#c" x="14.905" y="253.438"/><use xlink:href="#a" x="19.837" y="253.438"/><use xlink:href="#c" x="29.278" y="253.438"/><use xlink:href="#b" x="34.21" y="253.438"/><use xlink:href="#c" x="43.651" y="253.438"/><use xlink:href="#c" x="48.583" y="253.438"/><use xlink:href="#c" x="58.024" y="253.438"/><use xlink:href="#d" x="62.956" y="253.438"/><use xlink:href="#c" x="72.397" y="253.438"/><use xlink:href="#e" x="77.329" y="253.438"/><use xlink:href="#c" x="86.77" y="253.438"/><use xlink:href="#f" x="91.702" y="253.438"/><g fill="#7F7F7F"><use xlink:href="#c" x="101.143" y="253.438"/><use xlink:href="#g" x="106.075" y="253.438"/></g><use xlink:href="#c" x="14.905" y="265.758"/><use xlink:href="#h" x="19.837" y="265.758"/><use xlink:href="#c" x="29.278" y="265.758"/><use xlink:href="#i" x="34.21" y="265.758"/><use xlink:href="#c" x="43.651" y="265.758"/><use xlink:href="#j" x="48.583" y="265.758"/><use xlink:href="#d" x="58.024" y="265.758"/><use xlink:href="#a" x="62.956" y="265.758"/><use xlink:href="#d" x="72.397" y="265.758"/><use xlink:href="#b" x="77.329" y="265.758"/><g fill="#007F00"><use xlink:href="#a" x=".531" y="265.758"/><use xlink:href="#g" x="5.463" y="265.758"/></g><use xlink:href="#b" x="91.701" y="265.758"/><use xlink:href="#c" x="106.074" y="265.758" fill="#7F7F7F"/><use xlink:href="#d" x="19.836" y="278.078"/><use xlink:href="#e" x="34.209" y="278.078"/><use xlink:href="#f" x="48.582" y="278.078"/><use xlink:href="#g" x="62.955" y="278.078"/><use xlink:href="#h" x="77.328" y="278.078"/><use xlink:href="#i" x="91.701" y="278.078"/><use xlink:href="#j" x="106.074" y="278.078" fill="#7F7F7F"/><use xlink:href="#b" x="14.905" y="290.397"/><use xlink:href="#a" x="19.837" y="290.397"/><use xlink:href="#b" x="29.278" y="290.397"/><use xlink:href="#b" x="34.21" y="290.397"/><use xlink:href="#b" x="43.651" y="290.397"/><use xlink:href="#c" x="48.583" y="290.397"/><use xlink:href="#b" x="58.024" y="290.397"/><use xlink:href="#d" x="62.956" y="290.397"/><use xlink:href="#b" x="72.397" y="290.397"/><use xlink:href="#e" x="77.329" y="290.397"/><use xlink:href="#b" x="86.77" y="290.397"/><use xlink:href="#f" x="91.702" y="290.397"/><g fill="#7F7F7F"><use xlink:href="#b" x="101.143" y="290.397"/><use xlink:href="#g" x="106.075" y="290.397"/></g><use xlink:href="#b" x="14.905" y="302.717"/><use xlink:href="#h" x="19.837" y="302.717"/><use xlink:href="#b" x="29.278" y="302.717"/><use xlink:href="#i" x="34.21" y="302.717"/><use xlink:href="#b" x="43.651" y="302.717"/><use xlink:href="#j" x="48.583" y="302.717"/><use xlink:href="#c" x="58.024" y="302.717"/><use xlink:href="#a" x="62.956" y="302.717"/><use xlink:href="#c" x="72.397" y="302.717"/><use xlink:href="#b" x="77.329" y="302.717"/><use xlink:href="#c" x="86.77" y="302.717"/><use xlink:href="#c" x="91.702" y="302.717"/><g fill="#7F7F7F"><use xlink:href="#c" x="101.143" y="302.717"/><use xlink:href="#d" x="106.075" y="302.717"/></g><use xlink:href="#c" x="14.905" y="315.037"/><use xlink:href="#e" x="19.837" y="315.037"/><use xlink:href="#c" x="29.278" y="315.037"/><use xlink:href="#f" x="34.21" y="315.037"/><use xlink:href="#c" x="43.651" y="315.037"/><use xlink:href="#g" x="48.583" y="315.037"/><use xlink:href="#c" x="58.024" y="315.037"/><use xlink:href="#h" x="62.956" y="315.037"/><use xlink:href="#c" x="72.397" y="315.037"/><use xlink:href="#i" x="77.329" y="315.037"/><use xlink:href="#c" x="86.77" y="315.037"/><use xlink:href="#j" x="91.702" y="315.037"/><g fill="#7F7F7F"><use xlink:href="#d" x="101.143" y="315.037"/><use xlink:href="#a" x="106.075" y="315.037"/></g><g fill="#007F00"><use xlink:href="#a" x=".531" y="327.357"/><use xlink:href="#h" x="5.463" y="327.357"/></g><use xlink:href="#b" x="19.836" y="327.357"/><use xlink:href="#c" x="34.209" y="327.357"/><use xlink:href="#d" x="48.582" y="327.357"/><use xlink:href="#e" x="62.955" y="327.357"/><use xlink:href="#f" x="77.328" y="327.357"/><use xlink:href="#g" x="91.701" y="327.357"/><use xlink:href="#h" x="106.074" y="327.357" fill="#7F7F7F"/><use xlink:href="#i" x="19.836" y="339.677"/><use xlink:href="#j" x="34.209" y="339.677"/><use xlink:href="#b" x="43.651" y="339.677"/><use xlink:href="#a" x="48.583" y="339.677"/><use xlink:href="#b" x="58.024" y="339.677"/><use xlink:href="#b" x="62.956" y="339.677"/><use xlink:href="#b" x="72.397" y="339.677"/><use xlink:href="#c" x="77.329" y="339.677"/><use xlink:href="#b" x="86.77" y="339.677"/><use xlink:href="#d" x="91.702" y="339.677"/><g fill="#7F7F7F"><use xlink:href="#b" x="101.143" y="339.677"/><use xlink:href="#e" x="106.075" y="339.677"/></g><use xlink:href="#b" x="14.905" y="351.996"/><use xlink:href="#f" x="19.837" y="351.996"/><use xlink:href="#b" x="29.278" y="351.996"/><use xlink:href="#g" x="34.21" y="351.996"/><use xlink:href="#b" x="43.651" y="351.996"/><use xlink:href="#h" x="48.583" y="351.996"/><use xlink:href="#b" x="58.024" y="351.996"/><use xlink:href="#i" x="62.956" y="351.996"/><use xlink:href="#b" x="72.397" y="351.996"/><use xlink:href="#j" x="77.329" y="351.996"/><use xlink:href="#c" x="86.77" y="351.996"/><use xlink:href="#a" x="91.702" y="351.996"/><g fill="#7F7F7F"><use xlink:href="#c" x="101.143" y="351.996"/><use xlink:href="#b" x="106.075" y="351.996"/></g><use xlink:href="#c" x="14.905" y="364.316"/><use xlink:href="#c" x="19.837" y="364.316"/><use xlink:href="#c" x="29.278" y="364.316"/><use xlink:href="#d" x="34.21" y="364.316"/><use xlink:href="#c" x="43.651" y="364.316"/><use xlink:href="#e" x="48.583" y="364.316"/><use xlink:href="#c" x="58.024" y="364.316"/><use xlink:href="#f" x="62.956" y="364.316"/><use xlink:href="#c" x="72.397" y="364.316"/><use xlink:href="#g" x="77.329" y="364.316"/><use xlink:href="#c" x="86.77" y="364.316"/><use xlink:href="#h" x="91.702" y="364.316"/><g fill="#7F7F7F"><use xlink:href="#c" x="101.143" y="364.316"/><use xlink:href="#i" x="106.075" y="364.316"/></g><use xlink:href="#c" x="14.905" y="376.636"/><use xlink:href="#j" x="19.837" y="376.636"/><use xlink:href="#d" x="29.278" y="376.636"/><use xlink:href="#a" x="34.21" y="376.636"/><use xlink:href="#d" x="43.651" y="376.636"/><use xlink:href="#b" x="48.583" y="376.636"/><g fill="#007F00"><use xlink:href="#a" x=".531" y="376.636"/><use xlink:href="#i" x="5.463" y="376.636"/></g><use xlink:href="#b" x="62.955" y="376.636"/><use xlink:href="#c" x="77.328" y="376.636"/><use xlink:href="#d" x="91.701" y="376.636"/><use xlink:href="#e" x="106.074" y="376.636" fill="#7F7F7F"/><use xlink:href="#f" x="19.836" y="388.956"/><use xlink:href="#g" x="34.209" y="388.956"/><use xlink:href="#h" x="48.582" y="388.956"/><use xlink:href="#i" x="62.955" y="388.956"/><use xlink:href="#j" x="77.328" y="388.956"/><use xlink:href="#b" x="86.77" y="388.956"/><use xlink:href="#a" x="91.702" y="388.956"/><g fill="#7F7F7F"><use xlink:href="#b" x="101.143" y="388.956"/><use xlink:href="#b" x="106.075" y="388.956"/></g><use xlink:href="#b" x="14.905" y="401.275"/><use xlink:href="#c" x="19.837" y="401.275"/><use xlink:href="#b" x="29.278" y="401.275"/><use xlink:href="#d" x="34.21" y="401.275"/><use xlink:href="#b" x="43.651" y="401.275"/><use xlink:href="#e" x="48.583" y="401.275"/><use xlink:href="#b" x="58.024" y="401.275"/><use xlink:href="#f" x="62.956" y="401.275"/><use xlink:href="#b" x="72.397" y="401.275"/><use xlink:href="#g" x="77.329" y="401.275"/><use xlink:href="#b" x="86.77" y="401.275"/><use xlink:href="#h" x="91.702" y="401.275"/><g fill="#7F7F7F"><use xlink:href="#b" x="101.143" y="401.275"/><use xlink:href="#i" x="106.075" y="401.275"/></g><use xlink:href="#b" x="14.905" y="413.595"/><use xlink:href="#j" x="19.837" y="413.595"/><use xlink:href="#c" x="29.278" y="413.595"/><use xlink:href="#a" x="34.21" y="413.595"/><use xlink:href="#c" x="43.651" y="413.595"/><use xlink:href="#b" x="48.583" y="413.595"/><use xlink:href="#c" x="58.024" y="413.595"/><use xlink:href="#c" x="62.956" y="413.595"/><use xlink:href="#c" x="72.397" y="413.595"/><use xlink:href="#d" x="77.329" y="413.595"/><use xlink:href="#c" x="86.77" y="413.595"/><use xlink:href="#e" x="91.702" y="413.595"/><g fill="#7F7F7F"><use xlink:href="#c" x="101.143" y="413.595"/><use xlink:href="#f" x="106.075" y="413.595"/></g><use xlink:href="#c" x="14.905" y="425.915"/><use xlink:href="#g" x="19.837" y="425.915"/><use xlink:href="#c" x="29.278" y="425.915"/><use xlink:href="#h" x="34.21" y="425.915"/><use xlink:href="#c" x="43.651" y="425.915"/><use xlink:href="#i" x="48.583" y="425.915"/><use xlink:href="#c" x="58.024" y="425.915"/><use xlink:href="#j" x="62.956" y="425.915"/><use xlink:href="#d" x="72.397" y="425.915"/><use xlink:href="#a" x="77.329" y="425.915"/><use xlink:href="#d" x="86.77" y="425.915"/><use xlink:href="#b" x="91.702" y="425.915"/><g fill="#007F00"><use xlink:href="#a" x=".531" y="425.915"/><use xlink:href="#j" x="5.463" y="425.915"/></g><use xlink:href="#b" x="106.074" y="425.915" fill="#7F7F7F"/><use xlink:href="#c" x="19.836" y="438.235"/><use xlink:href="#d" x="34.209" y="438.235"/><use xlink:href="#e" x="48.582" y="438.235"/><use xlink:href="#f" x="62.955" y="438.235"/><use xlink:href="#g" x="77.328" y="438.235"/><use xlink:href="#h" x="91.701" y="438.235"/><use xlink:href="#i" x="106.074" y="438.235" fill="#7F7F7F"/><use xlink:href="#j" x="19.836" y="450.555"/><use xlink:href="#b" x="29.278" y="450.555"/><use xlink:href="#a" x="34.21" y="450.555"/><use xlink:href="#b" x="43.651" y="450.555"/><use xlink:href="#b" x="48.583" y="450.555"/><use xlink:href="#b" x="58.024" y="450.555"/><use xlink:href="#c" x="62.956" y="450.555"/><use xlink:href="#b" x="72.397" y="450.555"/><use xlink:href="#d" x="77.329" y="450.555"/><use xlink:href="#b" x="86.77" y="450.555"/><use xlink:href="#e" x="91.702" y="450.555"/><g fill="#7F7F7F"><use xlink:href="#b" x="101.143" y="450.555"/><use xlink:href="#f" x="106.075" y="450.555"/></g><use xlink:href="#b" x="14.905" y="462.874"/><use xlink:href="#g" x="19.837" y="462.874"/><use xlink:href="#b" x="29.278" y="462.874"/><use xlink:href="#h" x="34.21" y="462.874"/><use xlink:href="#b" x="43.651" y="462.874"/><use xlink:href="#i" x="48.583" y="462.874"/><use xlink:href="#b" x="58.024" y="462.874"/><use xlink:href="#j" x="62.956" y="462.874"/><use xlink:href="#c" x="72.397" y="462.874"/><use xlink:href="#a" x="77.329" y="462.874"/><use xlink:href="#c" x="86.77" y="462.874"/><use xlink:href="#b" x="91.702" y="462.874"/><g fill="#7F7F7F"><use xlink:href="#c" x="101.143" y="462.874"/><use xlink:href="#c" x="106.075" y="462.874"/></g><use xlink:href="#c" x="14.905" y="475.194"/><use xlink:href="#d" x="19.837" y="475.194"/><use xlink:href="#c" x="29.278" y="475.194"/><use xlink:href="#e" x="34.21" y="475.194"/><use xlink:href="#c" x="43.651" y="475.194"/><use xlink:href="#f" x="48.583" y="475.194"/><use xlink:href="#c" x="58.024" y="475.194"/><use xlink:href="#g" x="62.956" y="475.194"/><use xlink:href="#c" x="72.397" y="475.194"/><use xlink:href="#h" x="77.329" y="475.194"/><use xlink:href="#c" x="86.77" y="475.194"/><use xlink:href="#i" x="91.702" y="475.194"/><g fill="#7F7F7F"><use xlink:href="#c" x="101.143" y="475.194"/><use xlink:href="#j" x="106.075" y="475.194"/></g><use xlink:href="#d" x="14.905" y="487.514"/><use xlink:href="#a" x="19.837" y="487.514"/><g fill="#007F00"><use xlink:href="#b" x=".531" y="487.514"/><use xlink:href="#a" x="5.463" y="487.514"/></g><use xlink:href="#b" x="34.209" y="487.514"/><use xlink:href="#c" x="48.582" y="487.514"/><use xlink:href="#d" x="62.955" y="487.514"/><use xlink:href="#e" x="77.328" y="487.514"/><use xlink:href="#f" x="91.701" y="487.514"/><use xlink:href="#g" x="106.074" y="487.514" fill="#7F7F7F"/><use xlink:href="#h" x="19.836" y="499.834"/><use xlink:href="#i" x="34.209" y="499.834"/><use xlink:href="#j" x="48.582" y="499.834"/><use xlink:href="#b" x="58.024" y="499.834"/><use xlink:href="#a" x="62.956" y="499.834"/><use xlink:href="#b" x="72.397" y="499.834"/><use xlink:href="#b" x="77.329" y="499.834"/><use xlink:href="#b" x="86.77" y="499.834"/><use xlink:href="#c" x="91.702" y="499.834"/><g fill="#7F7F7F"><use xlink:href="#b" x="101.143" y="499.834"/><use xlink:href="#d" x="106.075" y="499.834"/></g><use xlink:href="#b" x="14.905" y="512.153"/><use xlink:href="#e" x="19.837" y="512.153"/><use xlink:href="#b" x="29.278" y="512.153"/><use xlink:href="#f" x="34.21" y="512.153"/><use xlink:href="#b" x="43.651" y="512.153"/><use xlink:href="#g" x="48.583" y="512.153"/><use xlink:href="#b" x="58.024" y="512.153"/><use xlink:href="#h" x="62.956" y="512.153"/><use xlink:href="#b" x="72.397" y="512.153"/><use xlink:href="#i" x="77.329" y="512.153"/><use xlink:href="#b" x="86.77" y="512.153"/><use xlink:href="#j" x="91.702" y="512.153"/><g fill="#7F7F7F"><use xlink:href="#c" x="101.143" y="512.153"/><use xlink:href="#a" x="106.075" y="512.153"/></g><use xlink:href="#c" x="14.905" y="524.473"/><use xlink:href="#b" x="19.837" y="524.473"/><use xlink:href="#c" x="29.278" y="524.473"/><use xlink:href="#c" x="34.21" y="524.473"/><use xlink:href="#c" x="43.651" y="524.473"/><use xlink:href="#d" x="48.583" y="524.473"/><use xlink:href="#c" x="58.024" y="524.473"/><use xlink:href="#e" x="62.956" y="524.473"/><use xlink:href="#c" x="72.397" y="524.473"/><use xlink:href="#f" x="77.329" y="524.473"/><use xlink:href="#c" x="86.77" y="524.473"/><use xlink:href="#g" x="91.702" y="524.473"/><g fill="#7F7F7F"><use xlink:href="#c" x="101.143" y="524.473"/><use xlink:href="#h" x="106.075" y="524.473"/></g><use xlink:href="#c" x="14.905" y="536.793"/><use xlink:href="#i" x="19.837" y="536.793"/><use xlink:href="#c" x="29.278" y="536.793"/><use xlink:href="#j" x="34.21" y="536.793"/><use xlink:href="#d" x="43.651" y="536.793"/><use xlink:href="#a" x="48.583" y="536.793"/><use xlink:href="#d" x="58.024" y="536.793"/><use xlink:href="#b" x="62.956" y="536.793"/><g fill="#007F00"><use xlink:href="#b" x=".531" y="536.793"/><use xlink:href="#b" x="5.463" y="536.793"/></g><use xlink:href="#b" x="77.328" y="536.793"/><use xlink:href="#c" x="91.701" y="536.793"/><use xlink:href="#d" x="106.074" y="536.793" fill="#7F7F7F"/><use xlink:href="#e" x="19.836" y="549.113"/><use xlink:href="#f" x="34.209" y="549.113"/><use xlink:href="#g" x="48.582" y="549.113"/><use xlink:href="#h" x="62.955" y="549.113"/><use xlink:href="#i" x="77.328" y="549.113"/><use xlink:href="#j" x="91.701" y="549.113"/><g fill="#7F7F7F"><use xlink:href="#b" x="101.143" y="549.113"/><use xlink:href="#a" x="106.075" y="549.113"/></g><use xlink:href="#b" x="14.905" y="561.433"/><use xlink:href="#b" x="19.837" y="561.433"/><use xlink:href="#b" x="29.278" y="561.433"/><use xlink:href="#c" x="34.21" y="561.433"/><use xlink:href="#b" x="43.651" y="561.433"/><use xlink:href="#d" x="48.583" y="561.433"/><use xlink:href="#b" x="58.024" y="561.433"/><use xlink:href="#e" x="62.956" y="561.433"/><use xlink:href="#b" x="72.397" y="561.433"/><use xlink:href="#f" x="77.329" y="561.433"/><use xlink:href="#b" x="86.77" y="561.433"/><use xlink:href="#g" x="91.702" y="561.433"/><g fill="#7F7F7F"><use xlink:href="#b" x="101.143" y="561.433"/><use xlink:href="#h" x="106.075" y="561.433"/></g><use xlink:href="#b" x="14.905" y="573.752"/><use xlink:href="#i" x="19.837" y="573.752"/><use xlink:href="#b" x="29.278" y="573.752"/><use xlink:href="#j" x="34.21" y="573.752"/><use xlink:href="#c" x="43.651" y="573.752"/><use xlink:href="#a" x="48.583" y="573.752"/><use xlink:href="#c" x="58.024" y="573.752"/><use xlink:href="#b" x="62.956" y="573.752"/><use xlink:href="#c" x="72.397" y="573.752"/><use xlink:href="#c" x="77.329" y="573.752"/><use xlink:href="#c" x="86.77" y="573.752"/><use xlink:href="#d" x="91.702" y="573.752"/><g fill="#7F7F7F"><use xlink:href="#c" x="101.143" y="573.752"/><use xlink:href="#e" x="106.075" y="573.752"/></g><use xlink:href="#c" x="14.905" y="586.072"/><use xlink:href="#f" x="19.837" y="586.072"/><use xlink:href="#c" x="29.278" y="586.072"/><use xlink:href="#g" x="34.21" y="586.072"/><use xlink:href="#c" x="43.651" y="586.072"/><use xlink:href="#h" x="48.583" y="586.072"/><use xlink:href="#c" x="58.024" y="586.072"/><use xlink:href="#i" x="62.956" y="586.072"/><use xlink:href="#c" x="72.397" y="586.072"/><use xlink:href="#j" x="77.329" y="586.072"/><use xlink:href="#d" x="86.77" y="586.072"/><use xlink:href="#a" x="91.702" y="586.072"/><g fill="#007F00"><use xlink:href="#b" x=".531" y="586.072"/><use xlink:href="#c" x="5.463" y="586.072"/></g><use xlink:href="#b" x="106.074" y="586.072" fill="#7F7F7F"/><use xlink:href="#c" x="19.836" y="598.392"/><use xlink:href="#d" x="34.209" y="598.392"/><use xlink:href="#e" x="48.582" y="598.392"/><use xlink:href="#f" x="62.955" y="598.392"/><use xlink:href="#g" x="77.328" y="598.392"/><use xlink:href="#h" x="91.701" y="598.392"/><use xlink:href="#i" x="106.074" y="598.392" fill="#7F7F7F"/><use xlink:href="#j" x="19.836" y="610.712"/><use xlink:href="#b" x="29.278" y="610.712"/><use xlink:href="#a" x="34.21" y="610.712"/><use xlink:href="#b" x="43.651" y="610.712"/><use xlink:href="#b" x="48.583" y="610.712"/><use xlink:href="#b" x="58.024" y="610.712"/><use xlink:href="#c" x="62.956" y="610.712"/><use xlink:href="#b" x="72.397" y="610.712"/><use xlink:href="#d" x="77.329" y="610.712"/><use xlink:href="#b" x="86.77" y="610.712"/><use xlink:href="#e" x="91.702" y="610.712"/><g fill="#7F7F7F"><use xlink:href="#b" x="101.143" y="610.712"/><use xlink:href="#f" x="106.075" y="610.712"/></g><use xlink:href="#b" x="14.905" y="623.032"/><use xlink:href="#g" x="19.837" y="623.032"/><use xlink:href="#b" x="29.278" y="623.032"/><use xlink:href="#h" x="34.21" y="623.032"/><use xlink:href="#b" x="43.651" y="623.032"/><use xlink:href="#i" x="48.583" y="623.032"/><use xlink:href="#b" x="58.024" y="623.032"/><use xlink:href="#j" x="62.956" y="623.032"/><use xlink:href="#c" x="72.397" y="623.032"/><use xlink:href="#a" x="77.329" y="623.032"/><use xlink:href="#c" x="86.77" y="623.032"/><use xlink:href="#b" x="91.702" y="623.032"/><g fill="#7F7F7F"><use xlink:href="#c" x="101.143" y="623.032"/><use xlink:href="#c" x="106.075" y="623.032"/></g><use xlink:href="#c" x="14.905" y="635.351"/><use xlink:href="#d" x="19.837" y="635.351"/><use xlink:href="#c" x="29.278" y="635.351"/><use xlink:href="#e" x="34.21" y="635.351"/><use xlink:href="#c" x="43.651" y="635.351"/><use xlink:href="#f" x="48.583" y="635.351"/><use xlink:href="#c" x="58.024" y="635.351"/><use xlink:href="#g" x="62.956" y="635.351"/><use xlink:href="#c" x="72.397" y="635.351"/><use xlink:href="#h" x="77.329" y="635.351"/><use xlink:href="#c" x="86.77" y="635.351"/><use xlink:href="#i" x="91.702" y="635.351"/><g fill="#7F7F7F"><use xlink:href="#c" x="101.143" y="635.351"/><use xlink:href="#j" x="106.075" y="635.351"/></g><use xlink:href="#d" x="14.905" y="647.671"/><use xlink:href="#a" x="19.837" y="647.671"/><use xlink:href="#d" x="29.278" y="647.671"/><use xlink:href="#b" x="34.21" y="647.671"/></svg>