<svg xmlns="http://www.w3.org/2000/svg" width="90.151" height="89.318"><defs><clipPath id="a"><path d="M0 79h10v9.977H0Zm0 0"/></clipPath><clipPath id="b"><path d="M37 78h15v10.977H37Zm0 0"/></clipPath><clipPath id="c"><path d="M49 78h15v10.977H49Zm0 0"/></clipPath><clipPath id="d"><path d="M56 78h15v10.977H56Zm0 0"/></clipPath><clipPath id="e"><path d="M61 78h15v10.977H61Zm0 0"/></clipPath><clipPath id="f"><path d="M65 78h15v10.977H65Zm0 0"/></clipPath><clipPath id="g"><path d="M69 78h15v10.977H69Zm0 0"/></clipPath><clipPath id="h"><path d="M71 78h15v10.977H71Zm0 0"/></clipPath><clipPath id="i"><path d="M74 77h15v11.977H74Zm0 0"/></clipPath><clipPath id="j"><path d="M76 77h13.727v11.977H76Zm0 0"/></clipPath><clipPath id="k"><path d="M78 77h11.727v11.977H78Zm0 0"/></clipPath><clipPath id="l"><path d="M80 77h9.727v11.977H80Zm0 0"/></clipPath><clipPath id="m"><path d="M0 79h10v9.977H0Zm0 0"/></clipPath><clipPath id="n"><path d="M75 65h14.727v15H75Zm0 0"/></clipPath><clipPath id="o"><path d="M77 64h12.727v16H77Zm0 0"/></clipPath><clipPath id="p"><path d="M78 64h11.727v15H78Zm0 0"/></clipPath><clipPath id="q"><path d="M0 79h10v9.977H0Zm0 0"/></clipPath><clipPath id="r"><path d="M75 51h14.727v15H75Zm0 0"/></clipPath><clipPath id="s"><path d="M0 79h10v9.977H0Zm0 0"/></clipPath><clipPath id="t"><path d="M0 79h10v9.977H0Zm0 0"/></clipPath><clipPath id="u"><path d="M0 79h10v9.977H0Zm0 0"/></clipPath><clipPath id="v"><path d="M0 79h10v9.977H0Zm0 0"/></clipPath><clipPath id="w"><path d="M0 79h10v9.977H0Zm0 0"/></clipPath><clipPath id="x"><path d="M0 79h10v9.977H0Zm0 0"/></clipPath><clipPath id="y"><path d="M0 79h10v9.977H0Zm0 0"/></clipPath></defs><g clip-path="url(#a)"><path fill="none" stroke="#000" stroke-miterlimit="10" stroke-width=".399" d="m.723 87.832 2.82-2.816m-2.82 0 2.82 2.816"/></g><g clip-path="url(#b)"><path fill="none" stroke="#000" stroke-miterlimit="10" stroke-width=".399" d="m43.238 87.09 2.817-2.817m-2.817 0 2.817 2.817"/></g><g clip-path="url(#c)"><path fill="none" stroke="#000" stroke-miterlimit="10" stroke-width=".399" d="m55.086 86.883 2.82-2.817m-2.82 0 2.82 2.817"/></g><g clip-path="url(#d)"><path fill="none" stroke="#000" stroke-miterlimit="10" stroke-width=".399" d="m62.246 86.758 2.82-2.817m-2.82 0 2.82 2.817"/></g><g clip-path="url(#e)"><path fill="none" stroke="#000" stroke-miterlimit="10" stroke-width=".399" d="m67.395 86.668 2.816-2.816m-2.816 0 2.816 2.816"/></g><g clip-path="url(#f)"><path fill="none" stroke="#000" stroke-miterlimit="10" stroke-width=".399" d="m71.414 86.598 2.816-2.817m-2.816 0 2.816 2.817"/></g><g clip-path="url(#g)"><path fill="none" stroke="#000" stroke-miterlimit="10" stroke-width=".399" d="m74.715 86.54 2.816-2.817m-2.816 0 2.816 2.816"/></g><g clip-path="url(#h)"><path fill="none" stroke="#000" stroke-miterlimit="10" stroke-width=".399" d="m77.512 86.492 2.816-2.82m-2.816 0 2.816 2.82"/></g><g clip-path="url(#i)"><path fill="none" stroke="#000" stroke-miterlimit="10" stroke-width=".399" d="m79.938 86.45 2.82-2.817m-2.82 0 2.82 2.816"/></g><g clip-path="url(#j)"><path fill="none" stroke="#000" stroke-miterlimit="10" stroke-width=".399" d="m82.086 86.41 2.82-2.816m-2.82 0 2.82 2.816"/></g><g clip-path="url(#k)"><path fill="none" stroke="#000" stroke-miterlimit="10" stroke-width=".399" d="m84.012 86.379 2.816-2.82m-2.816 0 2.816 2.82"/></g><g clip-path="url(#l)"><path fill="none" stroke="#000" stroke-miterlimit="10" stroke-width=".399" d="m85.75 86.348 2.82-2.817m-2.82 0 2.82 2.817"/></g><g clip-path="url(#m)"><path fill="none" stroke="#000" stroke-miterlimit="10" stroke-width=".399" d="m.723 87.832 2.82-2.816m-2.82 0 2.82 2.816"/></g><path fill="none" stroke="#000" stroke-miterlimit="10" stroke-width=".399" d="m42.598 80.45 2.82-2.821m-2.82 0 2.82 2.82M54.27 78.39l2.82-2.816m-2.82 0 2.82 2.817M61.324 77.148l2.817-2.82m-2.817 0 2.817 2.82M66.39 76.254l2.82-2.817m-2.82 0 2.82 2.817M70.352 75.555l2.816-2.817m-2.816 0 2.816 2.817M73.602 74.98l2.816-2.816m-2.816 0 2.816 2.816M76.355 74.496l2.82-2.816m-2.82 0 2.82 2.816M78.746 74.074l2.82-2.816m-2.82 0 2.82 2.816"/><g clip-path="url(#n)"><path fill="none" stroke="#000" stroke-miterlimit="10" stroke-width=".399" d="m80.863 73.703 2.82-2.82m-2.82 0 2.82 2.82"/></g><g clip-path="url(#o)"><path fill="none" stroke="#000" stroke-miterlimit="10" stroke-width=".399" d="m82.758 73.367 2.816-2.816m-2.816 0 2.816 2.816"/></g><g clip-path="url(#p)"><path fill="none" stroke="#000" stroke-miterlimit="10" stroke-width=".399" d="m84.473 73.066 2.82-2.82m-2.82 0 2.82 2.82"/></g><g clip-path="url(#q)"><path fill="none" stroke="#000" stroke-miterlimit="10" stroke-width=".399" d="m.723 87.832 2.82-2.816m-2.82 0 2.82 2.816"/></g><path fill="none" stroke="#000" stroke-miterlimit="10" stroke-width=".399" d="m40.93 73.988 2.816-2.816m-2.816 0 2.816 2.816M52.133 70.129l2.82-2.817m-2.82 0 2.82 2.817M58.906 67.797l2.817-2.817m-2.817 0 2.817 2.817M63.77 66.121l2.82-2.816m-2.82 0 2.82 2.816M67.574 64.813l2.817-2.817m-2.817 0 2.817 2.816M70.695 63.738l2.817-2.816m-2.817 0 2.817 2.816M73.34 62.828l2.816-2.816m-2.816 0 2.816 2.816M75.633 62.04l2.82-2.821m-2.82 0 2.82 2.82M77.668 61.34l2.816-2.82m-2.816 0 2.816 2.82M79.484 60.71l2.82-2.815m-2.82 0 2.82 2.816"/><g clip-path="url(#r)"><path fill="none" stroke="#000" stroke-miterlimit="10" stroke-width=".399" d="m81.133 60.145 2.816-2.817m-2.816 0 2.816 2.817"/></g><g clip-path="url(#s)"><path fill="none" stroke="#000" stroke-miterlimit="10" stroke-width=".399" d="m.723 87.832 2.82-2.816m-2.82 0 2.82 2.816"/></g><path fill="none" stroke="#000" stroke-miterlimit="10" stroke-width=".399" d="m38.27 67.871 2.816-2.82m-2.816 0 2.816 2.82M48.73 62.305l2.82-2.817m-2.82 0 2.82 2.817M55.055 58.945l2.816-2.82m-2.816 0 2.816 2.82M59.598 56.527l2.82-2.816m-2.82 0 2.82 2.816M63.148 54.64l2.82-2.816m-2.82 0 2.82 2.817M66.063 53.09l2.816-2.817m-2.817 0 2.817 2.817M68.531 51.777l2.82-2.816m-2.82 0 2.82 2.816M70.676 50.637l2.82-2.817m-2.82 0 2.82 2.817M72.574 49.629l2.82-2.816m-2.82 0 2.82 2.816M74.273 48.727l2.817-2.817m-2.817 0 2.817 2.817M75.813 47.91l2.816-2.82m-2.817 0 2.817 2.82"/><g clip-path="url(#t)"><path fill="none" stroke="#000" stroke-miterlimit="10" stroke-width=".399" d="m.723 87.832 2.82-2.816m-2.82 0 2.82 2.816"/></g><path fill="none" stroke="#000" stroke-miterlimit="10" stroke-width=".399" d="m34.684 62.242 2.816-2.816m-2.816 0 2.816 2.816M44.148 55.11l2.817-2.817m-2.817 0 2.817 2.816M49.867 50.8l2.817-2.82m-2.817 0 2.817 2.82M53.977 47.703l2.82-2.816m-2.82 0 2.82 2.816M57.188 45.281l2.82-2.816m-2.82 0 2.82 2.816M59.824 43.297l2.817-2.817m-2.817 0 2.817 2.817M62.059 41.613l2.816-2.816m-2.816 0 2.816 2.816M63.996 40.152l2.82-2.816m-2.82 0 2.82 2.816M65.715 38.86l2.816-2.82m-2.816 0 2.816 2.82M67.25 37.703l2.816-2.82m-2.816 0 2.816 2.82M68.64 36.652l2.82-2.816m-2.82 0 2.82 2.816"/><g clip-path="url(#u)"><path fill="none" stroke="#000" stroke-miterlimit="10" stroke-width=".399" d="m.723 87.832 2.82-2.816m-2.82 0 2.82 2.816"/></g><path fill="none" stroke="#000" stroke-miterlimit="10" stroke-width=".399" d="m30.262 57.246 2.816-2.82m-2.816 0 2.816 2.82M38.492 48.719l2.82-2.817m-2.82 0 2.82 2.817M43.469 43.57l2.816-2.82m-2.816 0 2.816 2.82M47.043 39.867l2.82-2.82m-2.82 0 2.82 2.82M49.836 36.973l2.82-2.817m-2.82 0 2.82 2.817M52.129 34.602l2.816-2.82m-2.816 0 2.816 2.82M54.074 32.59l2.817-2.82m-2.817 0 2.817 2.82M55.758 30.84l2.82-2.817m-2.82 0 2.82 2.817M57.254 29.297l2.816-2.82m-2.816 0 2.816 2.82M58.59 27.91l2.816-2.816m-2.816 0 2.816 2.816M59.797 26.66l2.82-2.82m-2.82 0 2.82 2.82"/><g clip-path="url(#v)"><path fill="none" stroke="#000" stroke-miterlimit="10" stroke-width=".399" d="m.723 87.832 2.82-2.816m-2.82 0 2.82 2.816"/></g><path fill="none" stroke="#000" stroke-miterlimit="10" stroke-width=".399" d="m25.113 53 2.817-2.816m-2.817 0L27.93 53M31.91 43.293l2.82-2.816m-2.82 0 2.82 2.816M36.02 37.426l2.816-2.817m-2.816 0 2.816 2.817M38.969 33.21l2.82-2.815m-2.82 0 2.82 2.816M41.277 29.918l2.817-2.816m-2.817 0 2.817 2.816M43.168 27.215l2.82-2.817m-2.82 0 2.82 2.817M44.773 24.922l2.82-2.817m-2.82 0 2.82 2.817M46.168 22.934l2.816-2.817m-2.816 0 2.816 2.817M47.398 21.172l2.82-2.817m-2.82 0 2.82 2.817M48.504 19.598l2.816-2.817m-2.816 0 2.816 2.817M49.5 18.172l2.82-2.82m-2.82 0 2.82 2.82"/><g clip-path="url(#w)"><path fill="none" stroke="#000" stroke-miterlimit="10" stroke-width=".399" d="m.723 87.832 2.82-2.816m-2.82 0 2.82 2.816"/></g><path fill="none" stroke="#000" stroke-miterlimit="10" stroke-width=".399" d="m19.363 49.617 2.82-2.82m-2.82 0 2.82 2.82M24.559 38.965l2.82-2.82m-2.82 0 2.82 2.82M27.7 32.527l2.816-2.816m-2.817 0 2.817 2.816M29.953 27.902l2.82-2.82m-2.82 0 2.82 2.82M31.719 24.29l2.816-2.821m-2.816 0 2.816 2.82M33.164 21.32l2.816-2.816m-2.816 0 2.816 2.816M34.39 18.809l2.817-2.82m-2.816 0 2.816 2.82M35.453 16.625l2.82-2.816m-2.82 0 2.82 2.816M36.398 14.691l2.817-2.816m-2.817 0 2.817 2.816M37.238 12.965l2.82-2.817m-2.82 0 2.82 2.817M38.004 11.398l2.816-2.816m-2.816 0 2.816 2.816"/><g clip-path="url(#x)"><path fill="none" stroke="#000" stroke-miterlimit="10" stroke-width=".399" d="m.723 87.832 2.82-2.816m-2.82 0 2.82 2.816"/></g><path fill="none" stroke="#000" stroke-miterlimit="10" stroke-width=".399" d="m13.156 47.172 2.817-2.82m-2.817 0 2.817 2.82M16.621 35.836l2.817-2.816m-2.817 0 2.817 2.816M18.715 28.988l2.816-2.816m-2.816 0 2.816 2.816M20.219 24.066l2.82-2.816m-2.82 0 2.82 2.816M21.395 20.223l2.82-2.82m-2.82 0 2.82 2.82M22.36 17.066l2.82-2.82m-2.82 0 2.82 2.82M23.18 14.39l2.816-2.816m-2.816 0 2.816 2.817M23.887 12.066l2.82-2.816m-2.82 0 2.82 2.816M24.516 10.012l2.82-2.817m-2.82 0 2.82 2.817M25.078 8.176l2.82-2.82m-2.82 0 2.82 2.82M25.59 6.508l2.816-2.817m-2.816 0 2.816 2.817"/><g clip-path="url(#y)"><path fill="none" stroke="#000" stroke-miterlimit="10" stroke-width=".399" d="m.723 87.832 2.82-2.816m-2.82 0 2.82 2.816"/></g><path fill="none" stroke="#000" stroke-miterlimit="10" stroke-width=".399" d="m6.64 45.727 2.82-2.82m-2.82 0 2.82 2.82M8.293 33.988l2.816-2.816m-2.816 0 2.816 2.816M9.29 26.898l2.815-2.816m-2.816 0 2.816 2.816M10.004 21.8l2.82-2.816m-2.82 0 2.82 2.817M10.563 17.82l2.82-2.816m-2.82 0 2.82 2.816M11.023 14.55l2.817-2.816m-2.817 0 2.817 2.817M11.414 11.781l2.816-2.816m-2.816 0 2.816 2.816M11.75 9.379l2.82-2.82m-2.82 0 2.82 2.82M12.05 7.25l2.817-2.82m-2.816 0 2.816 2.82M12.316 5.344l2.82-2.817m-2.82 0 2.82 2.817M12.559 3.621l2.82-2.82m-2.82 0 2.82 2.82"/></svg>