<svg xmlns="http://www.w3.org/2000/svg" width="63.092" height="39.35"><defs><clipPath id="a"><path d="M0 0h62.637v39.023H0Zm0 0"/></clipPath></defs><g clip-path="url(#a)"><path fill="none" stroke="#000" stroke-miterlimit="10" stroke-width=".399" d="M20.176 37.82s5.543-1.023 7.71-1.55c2.169-.532 5.77-1.555 7.927-2.274s5.613-2.035 7.605-2.914c1.996-.883 5.07-2.437 6.766-3.441 1.695-1.008 4.18-2.73 5.464-3.817 1.282-1.082 3.004-2.89 3.79-4.004.785-1.113 1.628-2.922 1.859-4.004.23-1.086.14-2.808-.2-3.816-.34-1.004-1.359-2.559-2.245-3.441-.887-.88-2.766-2.196-4.137-2.914-1.371-.72-3.98-1.743-5.746-2.27-1.762-.531-4.93-1.227-6.965-1.555s-5.54-.683-7.707-.808c-2.172-.125-5.774-.157-7.93-.09-2.152.062-5.61.324-7.601.55-1.996.227-5.07.731-6.766 1.083-1.7.347-4.18 1.02-5.465 1.449S3.527 5.19 2.746 5.648C1.961 6.102 1.117 6.86.886 7.29c-.23.43-.14 1.102.2 1.453.34.352 1.36.852 2.242 1.078.887.227 2.766.489 4.137.555 1.37.063 3.984.031 5.746-.094 1.766-.125 6.965-.808 6.965-.808"/></g></svg>