<svg xmlns="http://www.w3.org/2000/svg" width="31.468" height="10.28"><defs><clipPath id="a"><path d="M0 0h31.203v9.922H0Zm0 0"/></clipPath></defs><g clip-path="url(#a)"><path fill="none" stroke="#000" stroke-miterlimit="10" stroke-width="4.423" d="M1.848 7c4.129-2.383 8.191-3.742 12.242-4.066"/></g><path d="M12.82.84a39 39 0 0 1 3.278-.195 35 35 0 0 1 1.996 2.3 33 33 0 0 0-2.008 2.121q-1.36.024-2.727.164zm0 0"/><path d="M18.285.742q1.092.106 2.184.278.874 1.287 1.636 2.605a32 32 0 0 0-2.378 1.758 29 29 0 0 0-1.825-.235 32 32 0 0 1 2.196-1.945 38 38 0 0 0-1.813-2.46m0 0"/><path d="M22.645 1.48c.726.196 1.468.415 2.214.657q.738 1.43 1.375 2.883-1.446.604-2.789 1.308a37 37 0 0 0-1.883-.558 29 29 0 0 1 2.59-1.54 61 61 0 0 0-1.507-2.75m0 0"/><path d="M27.09 2.98c.734.32 1.441.645 2.148.993A53 53 0 0 1 30.195 7q-1.5.422-2.941.926a46 46 0 0 0-1.879-.867 48 48 0 0 1 2.871-1.11A44 44 0 0 0 27.09 2.98m0 0"/></svg>