<svg xmlns="http://www.w3.org/2000/svg" xmlns:xlink="http://www.w3.org/1999/xlink" width="98.858" height="68.492"><defs><path id="a" d="M5.875 0v-.328h-.36v-1.14c0-.735-.577-.782-.952-.782-.329 0-.766.063-1.094.469-.14-.36-.422-.469-.922-.469-.688 0-1.016.36-1.125.531v-.531l-.938.031v.344c.313 0 .36 0 .36.188v1.359h-.36V0l.688-.016c.187 0 .469 0 .687.016v-.328H1.5v-.875c0-.61.625-.766.922-.766.328 0 .422.11.422.485v1.156H2.5V0l.688-.016c.187 0 .468 0 .687.016v-.328h-.36v-.875c0-.61.626-.766.922-.766.313 0 .422.11.422.485v1.156H4.5V0l.688-.016c.187 0 .468 0 .687.016m0 0"/><path id="b" d="M3.5-1.078c0-.563-.437-1.188-1.61-1.188-1.187 0-1.609.641-1.609 1.188C.281-.547.72.047 1.891.047S3.5-.547 3.5-1.078m-.75-.063c0 .407 0 .875-.86.875-.859 0-.859-.468-.859-.875 0-.39 0-.859.86-.859.859 0 .859.469.859.86m0 0"/><path id="c" d="M3.719-1.875v-.344c-.172.016-.328.031-.5.031s-.39-.015-.563-.03v.343h.235L2.109-.391l-.78-1.484h.234v-.344l-.672.031c-.25 0-.375 0-.625-.03v.343h.359l.938 1.766c.046.109.093.156.265.156h.328c.11 0 .188 0 .266-.156l.937-1.766Zm0 0"/><path id="d" d="M3.172-.547c0-.125-.125-.125-.203-.125h-.031c-.094 0-.126 0-.172.063-.047.093-.188.343-.72.343-.64 0-.968-.25-1.015-.718H2.97c.11 0 .203 0 .203-.157 0-.296-.11-.625-.328-.812-.235-.203-.531-.313-1.016-.313-1.125 0-1.547.61-1.547 1.141S.703.047 1.921.047c.126 0 .47 0 .782-.125.328-.14.469-.406.469-.469m-.516-.687H1.031c.016-.188.016-.766.797-.766.672 0 .813.438.828.766m0 0"/><path id="e" d="M2.484-.594v-.234h-.406v.219c0 .14-.047.343-.344.343-.312 0-.312-.203-.312-.343v-1.266h.953v-.344h-.953v-.953H1c0 .516-.266 1-.781 1.016v.281H.75v1.281c0 .563.547.64.875.64.36 0 .86-.14.86-.64m0 0"/><path id="g" d="m1.75-.578-.11-.313-.343.11L.313-3.75l-.922.344.109.328c.313-.11.344-.11.39.062L.704-.578l-.344.11.11.312c.234-.094.437-.156.64-.235.016 0 .391-.125.641-.187m0 0"/><path id="h" d="m1.719-.578-.11-.313-.312.11-.61-1.828-.906.343.11.329c.297-.11.328-.11.39.078L.703-.58l-.344.11.11.313c.219-.094.437-.156.64-.235.188-.062.407-.125.61-.187M.484-3.328a.41.41 0 0 0-.53-.266.435.435 0 0 0-.282.531.424.424 0 0 0 .547.266.413.413 0 0 0 .265-.531m0 0"/><path id="i" d="m3.672-1.219-.11-.312-.343.11-.36-1.079c-.234-.703-.828-.562-1.156-.453-.64.219-.844.656-.906.875l-.172-.516-.875.328.11.329c.296-.094.343-.11.406.078L.688-.58l-.344.11.11.313.655-.235c.188-.062.454-.14.657-.203l-.11-.312-.343.125-.266-.828c-.203-.578.344-.938.625-1.032.312-.109.453-.015.562.329l.36 1.093-.344.125.11.313.671-.25c.156-.047.438-.14.64-.188m0 0"/><path id="j" d="M2.844-1.516c-.047-.125-.172-.093-.25-.062l-.031.016c-.079.015-.11.03-.126.109-.015.11-.062.39-.578.562-.609.204-1 .063-1.187-.375L2.5-1.875c.11-.031.203-.062.156-.203-.094-.281-.312-.563-.578-.688-.297-.109-.61-.125-1.062.032-1.063.359-1.282 1.062-1.11 1.578.172.5.782.984 1.938.593.11-.03.437-.14.687-.375.281-.218.328-.515.313-.578m-.719-.5L.594-1.5c-.047-.172-.219-.719.515-.969.641-.219.891.156 1.016.453m0 0"/><path id="k" d="m2.172-1.344-.078-.218-.39.125.077.203c.047.14.063.343-.218.437-.297.094-.36-.094-.407-.234L.75-2.234l.906-.297-.11-.328-.905.297-.297-.907-.39.14c.155.5.062 1.032-.438 1.22l.093.265.516-.172.406 1.22c.172.53.719.437 1.031.327.329-.11.766-.406.61-.875m0 0"/><path id="l" d="M2.984-2.125c-.171-.547-.796-1-1.906-.625C-.047-2.375-.25-1.64-.078-1.11c.172.5.781.923 1.89.563 1.11-.375 1.344-1.078 1.172-1.578m-.734.172c.125.375.281.828-.531 1.11C.906-.579.75-1.032.625-1.407s-.266-.813.547-1.078c.812-.282.953.156 1.078.53m0 0"/><path id="n" d="M2.875 1.266c.063-.094-.016-.141-.11-.203C2.642.969 2.626.969 2.563 1c-.14.094-.374.156-.718-.078-.203-.14-.39-.328-.453-.563-.094-.203-.047-.437.125-.703.343-.515.734-.531 1.187-.219.188.125.266.188.313.25a.22.22 0 0 0-.157.126.366.366 0 0 0 .094.53c.156.11.39.079.531-.109.282-.453-.343-.875-.625-1.046-1.14-.766-1.765-.235-1.984.078-.281.422-.312 1.172.672 1.812.11.078.39.266.703.328.344.047.61-.11.625-.14m0 0"/><path id="o" d="m3.219 2.156.187-.265c-.265-.188-.297-.203-.187-.375L4.172.078l-.875-.547-.188.282c.282.187.297.203.188.359l-.5.75c-.25.39-.703.203-.985.015-.437-.296-.375-.39-.25-.578L2.5-1.047l-.86-.531-.187.281c.25.172.297.203.188.36l-.61.906c-.312.484.14.875.532 1.125.14.093.53.36 1 .281l-.188.266Zm0 0"/><path id="p" d="M3.328.078c.156-.234.031-.547-.265-.734-.36-.25-.782-.14-1.032.015h-.015l.328-.5-.766-.468-.187.28c.265.173.312.204.203.36L.844.171.53-.03.344.234c.203.11.406.235.594.36.234.156.468.312.593.422L1.72.75l-.36-.234.36-.547c.297-.453.797-.625 1.156-.422-.062.031-.094.031-.156.125-.125.187-.063.39.11.5.155.11.374.094.5-.094m0 0"/><path id="q" d="m4.14.5.188-.281c-.156-.078-.281-.156-.437-.25-.141-.094-.313-.235-.453-.344l-.188.281.203.14L1.97.845l.187-1.672.188.125.187-.281-.578-.328a4 4 0 0 1-.5-.391l-.187.281.297.203L1.359.766c-.015.125-.015.187.125.28l.282.188c.093.047.156.094.312.016L3.844.297Zm0 0"/><path id="s" d="M2.938 1.313c.078-.11-.032-.188-.094-.235l-.031-.016c-.079-.046-.094-.062-.172-.03-.094.062-.36.187-.797-.11-.532-.36-.672-.75-.438-1.156L3.016.828c.093.063.172.125.25-.015.172-.25.265-.579.172-.86-.063-.297-.266-.562-.672-.828-.938-.625-1.61-.344-1.907.094S.547.422 1.563 1.094c.109.078.39.265.734.343.344.063.61-.078.64-.125M2.89.438 1.547-.453c.11-.156.437-.64 1.078-.203.563.375.438.828.266 1.094m0 0"/><path id="t" d="m2.39.875.126-.187-.328-.22-.11.188c-.078.11-.25.25-.5.094-.25-.187-.125-.36-.047-.469L2.234-.78l.782.531.187-.281-.781-.531.531-.797-.36-.22c-.296.438-.78.673-1.202.407l-.157.234.438.297L.953-.078C.641.39 1.047.75 1.328.938c.297.187.781.359 1.063-.063m0 0"/><path id="u" d="M3.5 1.047c.313-.469.297-1.234-.672-1.89-1-.657-1.687-.36-2 .109-.297.437-.265 1.172.719 1.812.969.656 1.656.406 1.953-.031M2.906.578c-.219.344-.484.735-1.187.25C1 .36 1.266-.032 1.484-.375c.22-.328.485-.719 1.204-.25.703.484.437.875.218 1.203m0 0"/><path id="v" d="M2.281-2.172c-.062-.094-.14-.047-.234.016-.125.094-.14.094-.14.187.015.157 0 .375-.344.61-.204.14-.454.234-.704.218-.218-.015-.421-.125-.593-.39-.344-.516-.203-.875.25-1.188.187-.125.297-.156.343-.187-.015.078.032.156.063.219a.377.377 0 0 0 .531.093c.156-.11.234-.328.094-.515-.281-.453-.906-.032-1.188.14-1.14.766-.921 1.547-.703 1.86.282.422.969.734 1.953.093.11-.078.391-.265.547-.515.188-.297.14-.61.125-.64m0 0"/><path id="w" d="m3.219-2.156-.188-.266c-.265.188-.297.203-.406.031l-.953-1.437-.844.61.188.28c.28-.187.297-.203.406-.046l.5.75c.25.39-.078.734-.36.922-.437.296-.5.203-.624.015L0-2.703l-.828.594.187.28c.25-.171.297-.202.407-.046l.609.906c.313.485.86.188 1.25-.062.14-.094.531-.36.625-.813l.188.266Zm0 0"/><path id="x" d="M1.36-3.047c-.157-.234-.5-.234-.798-.047-.359.25-.437.672-.375.985H.173l-.328-.5-.735.53.188.282c.265-.172.312-.203.422-.047l.75 1.14L.156-.5l.188.266C.516-.375.719-.5.906-.625c.235-.156.469-.312.625-.39l-.187-.266-.36.234-.359-.547c-.297-.453-.266-.968.063-1.234 0 .062 0 .094.062.187.125.188.344.204.516.094a.35.35 0 0 0 .093-.5m0 0"/><path id="y" d="m2.047-3.625-.188-.281c-.125.11-.25.219-.406.312-.14.094-.312.203-.484.281l.187.282.203-.14.172 1.671-1.468-.797.187-.125-.187-.281-.547.39c-.203.141-.313.22-.532.329l.188.28.297-.202 1.765.953c.11.062.172.062.313-.031l.281-.188c.094-.047.156-.094.125-.266L1.75-3.421Zm0 0"/><path id="z" d="M2.344-2.219c-.078-.11-.188-.031-.25.016l-.031.015c-.079.047-.094.063-.11.157.031.094.047.375-.39.672-.532.359-.954.343-1.25-.032l1.609-1.062c.094-.063.172-.125.094-.266-.172-.25-.453-.453-.735-.484-.312-.047-.61.031-1.015.297-.938.625-.953 1.375-.657 1.812.297.438 1 .735 2.016.063.11-.078.39-.266.578-.532.188-.312.172-.609.14-.656M1.516-2.5l-1.344.89c-.078-.156-.406-.64.234-1.077.563-.376.938-.079 1.11.187m0 0"/><path id="A" d="m1.734-1.875-.125-.187-.328.218.11.188c.078.11.156.312-.094.468-.25.188-.375.016-.453-.093L.14-2.344l.78-.531-.187-.281-.78.531-.532-.797-.36.219c.297.437.344.984-.078 1.281l.157.234.437-.296.719 1.062c.312.469.812.235 1.094.047.297-.187.625-.578.343-1m0 0"/><path id="B" d="M2.313-2.828C2-3.297 1.297-3.594.327-2.938c-1 .657-1 1.422-.687 1.891.297.438.984.672 1.968.031.97-.656 1-1.375.704-1.812m-.657.344c.219.343.485.734-.218 1.218-.72.47-.985.079-1.204-.265C.016-1.86-.25-2.25.47-2.72c.703-.484.969-.094 1.187.235m0 0"/><path id="C" d="M-.547-3.094c-.11 0-.11.094-.11.203 0 .157 0 .172.079.204.14.078.312.218.312.64 0 .25-.046.5-.203.703-.125.172-.343.266-.656.266-.625 0-.844-.313-.844-.86 0-.218.016-.328.032-.39.062.047.14.062.203.062a.36.36 0 0 0 .375-.375.36.36 0 0 0-.375-.375c-.532 0-.532.75-.532 1.079 0 1.375.782 1.609 1.157 1.609.515 0 1.156-.39 1.156-1.563 0-.14 0-.468-.125-.75-.14-.328-.422-.453-.469-.453m0 0"/><path id="D" d="M0-1.844h-.328v.36h-3.125l.031.984h.344c0-.328 0-.36.187-.36h2.563v.36H0c-.016-.234-.016-.453-.016-.672 0-.016 0-.406.016-.672m0 0"/><path id="E" d="M-1.078-3.5c-.563 0-1.188.438-1.188 1.61 0 1.187.641 1.609 1.188 1.609.531 0 1.125-.438 1.125-1.61C.047-3.062-.547-3.5-1.078-3.5m-.063.75c.407 0 .875 0 .875.86 0 .859-.468.859-.875.859-.39 0-.859 0-.859-.86 0-.859.469-.859.86-.859m0 0"/><path id="F" d="M-.703-2.687a.6.6 0 0 0-.531.343c-.141.25-.157.375-.235.985-.062.343-.093.625-.281.625-.125 0-.281-.141-.281-.735 0-.515.14-.61.328-.625.11-.015.125-.047.125-.172v-.062c0-.156-.031-.172-.172-.172h-.344c-.11 0-.172 0-.172.14a.8.8 0 0 0 .063.235c-.063.219-.063.469-.063.625 0 .188 0 .516.125.797.141.312.375.375.532.375.515 0 .609-.672.672-1.047.078-.594.109-.906.359-.906.344 0 .344.61.344.734 0 .453-.141.672-.47.797-.093.047-.093.063-.093.188V-.5c0 .156.016.172.172.172h.484c.11 0 .188 0 .188-.14 0-.063 0-.063-.063-.173a.7.7 0 0 0-.093-.14c.156-.281.156-.61.156-.75 0-.203 0-1.156-.75-1.156m0 0"/><path id="G" d="M-.547-3.172c-.125 0-.125.125-.125.203v.031c0 .094 0 .126.063.172.093.047.343.188.343.72 0 .64-.25.968-.718 1.015V-2.97c0-.11 0-.203-.157-.203-.296 0-.625.11-.812.328-.203.235-.313.531-.313 1.016 0 1.125.61 1.547 1.141 1.547S.047-.703.047-1.921c0-.126 0-.47-.125-.782-.14-.328-.406-.469-.469-.469m-.687.516v1.625C-1.422-1.047-2-1.047-2-1.828c0-.672.438-.813.766-.828m0 0"/><path id="H" d="M-1.11-3.86c-.546 0-1.14.407-1.14 1.454 0 .187.016.61.219 1h-.219l.031.984h.344V-.5c0-.281.031-.281.172-.281H.64v.36h.328L.953-1.11l.016-.688H.64v.36h-.828c.093-.141.234-.438.234-.86 0-1.031-.547-1.562-1.156-1.562m0 .75c.548 0 .876.376.876.891 0 .235-.078.531-.407.781h-.984c-.266-.25-.312-.64-.312-.843 0-.547.359-.828.828-.828m0 0"/><path id="I" d="M-.172-3.562c-.156 0-.156.078-.156.187v.031c0 .063 0 .25-.063.344h-1.062c-.39 0-.813.313-.813 1.375 0 .36 0 1.094.532 1.094a.36.36 0 0 0 .375-.375.36.36 0 0 0-.375-.375.37.37 0 0 0-.22.078C-2-1.391-2-1.547-2-1.625c0-.453.172-.703.563-.703h.109c0 .062-.016.578.078 1.062.11.594.281.97.656.97.64 0 .64-.954.64-1.157 0-.484-.124-.844-.343-1C0-2.5 0-2.843 0-3.22c0-.312 0-.344-.172-.344m-.484 1.234c.11 0 .25 0 .344.25.078.203.078.469.078.5 0 .36-.141.625-.375.625-.438 0-.485-1.14-.485-1.375Zm0 0"/><path id="J" d="M-.594-2.484h-.234v.406h.219c.14 0 .343.047.343.344 0 .312-.203.312-.343.312h-1.266v-.953h-.344v.953h-.953V-1c.516 0 1 .266 1.016.781h.281V-.75h1.281c.563 0 .64-.547.64-.875 0-.36-.14-.86-.64-.86m0 0"/><path id="K" d="M0-3.875h-.328v.36h-1.14c-.735 0-.782.609-.782.968 0 .5.172.844.469 1.078h-1.672l.031.985h.344c0-.313 0-.36.187-.36h2.563v.36H0l-.016-.688c0-.187 0-.469.016-.687h-.328v.359h-.875c-.61 0-.766-.625-.766-.922 0-.328.125-.422.485-.422h1.156v.36H0l-.016-.703c0-.172 0-.47.016-.688m0 0"/><clipPath id="f"><path d="M6 27h92.785v40H6Zm0 0"/></clipPath><clipPath id="m"><path d="M51 0h47.785v38H51Zm0 0"/></clipPath><clipPath id="r"><path d="M88 8h10.785v8H88Zm0 0"/></clipPath></defs><path fill="none" stroke="#7F7F7F" stroke-miterlimit="10" stroke-width=".199" d="M12.305 60.516h85.039m-85.04-28.348h85.04M12.304 3.832h85.04m-85.04 56.684V3.82m28.348 56.696V3.82m28.344 56.696V3.82m28.34 56.696V3.82"/><path fill="red" d="M14.297 60.516c0-1.102-.89-1.996-1.992-1.996a1.994 1.994 0 0 0 0 3.988 1.993 1.993 0 0 0 1.992-1.992m0 0"/><g fill="red"><use xlink:href="#a" x=".434" y="67.197"/><use xlink:href="#b" x="6.621" y="67.197"/></g><use xlink:href="#c" x="10.197" y="67.197" fill="red"/><g fill="red"><use xlink:href="#d" x="13.978" y="67.197"/><use xlink:href="#e" x="17.425" y="67.197"/><use xlink:href="#b" x="20.399" y="67.197"/></g><g clip-path="url(#f)"><path fill="none" stroke="#00F" stroke-miterlimit="10" stroke-width=".399" d="m12.305 60.516 83.148-27.72"/></g><path fill="#00F" d="m97.344 32.168-3.528-.504 1.637 1.133-.629 1.89"/><g fill="#00F"><use xlink:href="#g" x="44.819" y="45.924"/><use xlink:href="#h" x="46.879" y="45.237"/><use xlink:href="#i" x="48.94" y="44.55"/><use xlink:href="#j" x="52.904" y="43.229"/><use xlink:href="#k" x="56.174" y="42.139"/><use xlink:href="#l" x="58.995" y="41.199"/></g><g clip-path="url(#m)"><path fill="none" stroke="#00BF00" stroke-miterlimit="10" stroke-width=".399" d="M97.344 32.168c0-15.211-17.969-27.621-40.528-28.316"/></g><path fill="#00BF00" d="m54.824 3.82 3.149 1.672-1.157-1.62 1.235-1.567"/><g fill="#00BF00"><use xlink:href="#n" x="76.617" y="2.33"/><use xlink:href="#o" x="79.427" y="4.203"/><use xlink:href="#p" x="82.904" y="6.521"/><use xlink:href="#q" x="85.482" y="8.24"/></g><g fill="#00BF00" clip-path="url(#r)"><use xlink:href="#s" x="88.628" y="10.337"/><use xlink:href="#t" x="91.496" y="12.249"/><use xlink:href="#u" x="93.97" y="13.899"/></g><path fill="none" stroke="#00BF00" stroke-miterlimit="10" stroke-width=".399" d="M54.824 3.82c-22.48 0-40.886 11.63-42.418 26.356"/><path fill="#00BF00" d="m12.305 32.168 1.851-3.047-1.687 1.059-1.489-1.32"/><g fill="#00BF00"><use xlink:href="#v" x="12.536" y="15.993"/><use xlink:href="#w" x="15.346" y="14.12"/><use xlink:href="#x" x="18.823" y="11.802"/><use xlink:href="#y" x="21.401" y="10.083"/></g><g fill="#00BF00"><use xlink:href="#z" x="24.547" y="7.986"/><use xlink:href="#A" x="27.415" y="6.074"/><use xlink:href="#B" x="29.889" y="4.424"/></g><path fill="none" stroke="#FF7F00" stroke-miterlimit="10" stroke-width=".399" d="M12.305 32.168V58.52"/><path fill="#FF7F00" d="m12.305 60.516 1.593-3.192-1.593 1.196-1.594-1.196"/><g fill="#FF7F00"><use xlink:href="#C" x="7.818" y="61.738"/><use xlink:href="#D" x="7.818" y="58.361"/><use xlink:href="#E" x="7.818" y="56.189"/><use xlink:href="#F" x="7.818" y="52.413"/><use xlink:href="#G" x="7.818" y="49.399"/><use xlink:href="#H" x="7.818" y="45.952"/><use xlink:href="#I" x="7.818" y="41.773"/><use xlink:href="#J" x="7.818" y="38.097"/><use xlink:href="#K" x="7.818" y="35.123"/></g></svg>