<svg xmlns="http://www.w3.org/2000/svg" xmlns:xlink="http://www.w3.org/1999/xlink" width="100.496" height="72.776"><defs><path id="a" d="M5.828 0v-.469h-.703L3.453-2.453 4.61-3.75c.141-.14.204-.203 1.016-.203v-.469l-.906.031-1.032-.03v.468c.141 0 .266.015.376.078-.032.063-.032.094-.079.125l-.828.938-.984-1.141h.406v-.469L1.36-4.39.266-4.42v.468h.718l1.547 1.828L1.22-.656c-.157.187-.516.187-1 .187V0l.922-.031L2.156 0v-.469c-.172 0-.36-.047-.36-.11 0 0 0-.015.063-.093l.97-1.094L3.921-.469h-.39V0l1.202-.031Zm0 0"/></defs><use xlink:href="#a" x="77.932" y="5.32"/><use xlink:href="#a" x="93.414" y="5.32"/><use xlink:href="#a" x=".523" y="18.59"/><use xlink:href="#a" x="16.004" y="18.59"/><use xlink:href="#a" x="31.486" y="18.59"/><use xlink:href="#a" x="46.968" y="18.59"/><use xlink:href="#a" x="62.45" y="18.59"/><use xlink:href="#a" x="77.932" y="18.59"/><use xlink:href="#a" x="93.414" y="18.59"/><use xlink:href="#a" x=".523" y="31.86"/><use xlink:href="#a" x="16.004" y="31.86"/><use xlink:href="#a" x="31.486" y="31.86"/><use xlink:href="#a" x="46.968" y="31.86"/><use xlink:href="#a" x="62.45" y="31.86"/><use xlink:href="#a" x="77.932" y="31.86"/><use xlink:href="#a" x="93.414" y="31.86"/><use xlink:href="#a" x=".523" y="45.131"/><use xlink:href="#a" x="16.004" y="45.131"/><use xlink:href="#a" x="31.486" y="45.131"/><use xlink:href="#a" x="46.968" y="45.131"/><use xlink:href="#a" x="62.45" y="45.131"/><use xlink:href="#a" x="77.932" y="45.131"/><use xlink:href="#a" x="93.414" y="45.131"/><use xlink:href="#a" x=".523" y="58.401"/><use xlink:href="#a" x="16.004" y="58.401"/><use xlink:href="#a" x="31.486" y="58.401"/><use xlink:href="#a" x="46.968" y="58.401"/><use xlink:href="#a" x="62.45" y="58.401"/><use xlink:href="#a" x="77.932" y="58.401"/><use xlink:href="#a" x="93.414" y="58.401"/><use xlink:href="#a" x=".523" y="71.671"/></svg>