<svg xmlns="http://www.w3.org/2000/svg" width="119.633" height="121.286"><defs><clipPath id="a"><path d="M41 77h51v43.93H41Zm0 0"/></clipPath><clipPath id="b"><path d="M38 80h57v40.93H38Zm0 0"/></clipPath><clipPath id="c"><path d="M48 79h52v41.93H48Zm0 0"/></clipPath><clipPath id="d"><path d="M45 78h55v42.93H45Zm0 0"/></clipPath><clipPath id="e"><path d="M53 79h48v41.93H53Zm0 0"/></clipPath><clipPath id="f"><path d="M54 84h53v36.93H54Zm0 0"/></clipPath><clipPath id="g"><path d="M58 87h53v33.93H58Zm0 0"/></clipPath><clipPath id="h"><path d="M54 87h52v33.93H54Zm0 0"/></clipPath><clipPath id="i"><path d="M57 87h50v33.93H57Zm0 0"/></clipPath><clipPath id="j"><path d="M56 90h56v30.93H56Zm0 0"/></clipPath><clipPath id="k"><path d="M60 86h53v34.93H60Zm0 0"/></clipPath><clipPath id="l"><path d="M62 83h56v37.93H62Zm0 0"/></clipPath><clipPath id="m"><path d="M71 78h48.45v42.93H71Zm0 0"/></clipPath><clipPath id="n"><path d="M78 79h41.45v41.93H78Zm0 0"/></clipPath><clipPath id="o"><path d="M74 76h45.45v44.93H74Zm0 0"/></clipPath><clipPath id="p"><path d="M80 87h39.45v33.93H80Zm0 0"/></clipPath><clipPath id="q"><path d="M89 90h30.45v30.93H89Zm0 0"/></clipPath><clipPath id="r"><path d="M85 87h34.45v33.93H85Zm0 0"/></clipPath><clipPath id="s"><path d="M77 78h42.45v42.93H77Zm0 0"/></clipPath><clipPath id="t"><path d="M64 74h55.45v46.93H64Zm0 0"/></clipPath><clipPath id="u"><path d="M67 68h52.45v52H67Zm0 0"/></clipPath><clipPath id="v"><path d="M65 69h54.45v51.93H65Zm0 0"/></clipPath><clipPath id="w"><path d="M64 69h55.45v51.93H64Zm0 0"/></clipPath><clipPath id="x"><path d="M62 75h54v45.93H62Zm0 0"/></clipPath><clipPath id="y"><path d="M67 71h50v49.93H67Zm0 0"/></clipPath><clipPath id="z"><path d="M61 71h56v49.93H61Zm0 0"/></clipPath><clipPath id="A"><path d="M59 72h53v48.93H59Zm0 0"/></clipPath><clipPath id="B"><path d="M65 73h54.45v47.93H65Zm0 0"/></clipPath><clipPath id="C"><path d="M68 76h51.45v44.93H68Zm0 0"/></clipPath><clipPath id="D"><path d="M76 75h43.45v45.93H76Zm0 0"/></clipPath><clipPath id="E"><path d="M71 75h48.45v45.93H71Zm0 0"/></clipPath><clipPath id="F"><path d="M71 73h48v47.93H71Zm0 0"/></clipPath><clipPath id="G"><path d="M70 65h49v55.93H70Zm0 0"/></clipPath><clipPath id="H"><path d="M73 65h46.45v51H73Zm0 0"/></clipPath><clipPath id="I"><path d="M73 63h46.45v51H73Zm0 0"/></clipPath><clipPath id="J"><path d="M65 57h54.45v52H65Zm0 0"/></clipPath></defs><g clip-path="url(#a)"><path fill="none" stroke="#FFF" stroke-linecap="round" stroke-miterlimit="10" stroke-width="1.594" d="M66.547 100.05s6.523 4.684-2.582 6.88"/></g><g clip-path="url(#b)"><path fill="none" stroke="#FCFCFC" stroke-linecap="round" stroke-miterlimit="10" stroke-width="1.594" d="M63.965 106.93c-9.11 2.195 3.781-.73 8.379-3.618"/></g><g clip-path="url(#c)"><path fill="none" stroke="#FAFAFA" stroke-linecap="round" stroke-miterlimit="10" stroke-width="1.594" d="M72.344 103.313c4.594-2.891 8.539-.97-.996-.918"/></g><g clip-path="url(#d)"><path fill="none" stroke="#F7F7F7" stroke-linecap="round" stroke-miterlimit="10" stroke-width="1.594" d="M71.348 102.395c-9.536.046 7.394-3.23 5.02-.762"/></g><g clip-path="url(#e)"><path fill="none" stroke="#F5F5F5" stroke-linecap="round" stroke-miterlimit="10" stroke-width="1.594" d="M76.367 101.633c-2.379 2.472 2.348 11.61 1.149 6.027"/></g><g clip-path="url(#f)"><path fill="none" stroke="#F2F2F2" stroke-linecap="round" stroke-miterlimit="10" stroke-width="1.594" d="M77.516 107.66c-1.2-5.582 1.246 13.375 6.418 4.79"/></g><g clip-path="url(#g)"><path fill="none" stroke="#F0F0F0" stroke-linecap="round" stroke-miterlimit="10" stroke-width="1.594" d="M83.934 112.45c5.171-8.587 6.55 10.09-2.688 6.109"/></g><g clip-path="url(#h)"><path fill="none" stroke="#EDEDED" stroke-linecap="round" stroke-miterlimit="10" stroke-width="1.594" d="M81.246 118.559c-9.234-3.98 1.352-4.059 2.211-8.094"/></g><g clip-path="url(#i)"><path fill="none" stroke="#EBEBEB" stroke-linecap="round" stroke-miterlimit="10" stroke-width="1.594" d="M83.457 110.465c.856-4.035.754 15.738-3.445 5.785"/></g><g clip-path="url(#j)"><path fill="none" stroke="#E8E8E8" stroke-linecap="round" stroke-miterlimit="10" stroke-width="1.594" d="M80.012 116.25c-4.203-9.953 4.832 7.375 9.265-2.336"/></g><g clip-path="url(#k)"><path fill="none" stroke="#E5E5E5" stroke-linecap="round" stroke-miterlimit="10" stroke-width="1.594" d="M89.277 113.914c4.43-9.71-12.086-.785-4.265.633"/></g><g clip-path="url(#l)"><path fill="none" stroke="#E3E3E3" stroke-linecap="round" stroke-miterlimit="10" stroke-width="1.594" d="M85.012 114.547c7.82 1.422 6.058-7.067 9.515-8.035"/></g><g clip-path="url(#m)"><path fill="none" stroke="#E0E0E0" stroke-linecap="round" stroke-miterlimit="10" stroke-width="1.594" d="M94.527 106.512c3.453-.973 3.59-8.989 8.922-2.766"/></g><g clip-path="url(#n)"><path fill="none" stroke="#DEDEDE" stroke-linecap="round" stroke-miterlimit="10" stroke-width="1.594" d="M103.45 103.746c5.331 6.223 4.468 6.543-2.079-1.637"/></g><g clip-path="url(#o)"><path fill="none" stroke="#DBDBDB" stroke-linecap="round" stroke-miterlimit="10" stroke-width="1.594" d="M101.371 102.11c-6.547-8.176-5.508 1.808 1.754 8.421"/></g><g clip-path="url(#p)"><path fill="none" stroke="#D9D9D9" stroke-linecap="round" stroke-miterlimit="10" stroke-width="1.594" d="M103.125 110.531c7.258 6.614-.957 9.551 8.457 7.168"/></g><g clip-path="url(#q)"><path fill="none" stroke="#D6D6D6" stroke-linecap="round" stroke-miterlimit="10" stroke-width="1.594" d="M111.582 117.7c9.414-2.384 5.781-.243 2.887-4.829"/></g><g clip-path="url(#r)"><path fill="none" stroke="#D4D4D4" stroke-linecap="round" stroke-miterlimit="10" stroke-width="1.594" d="M114.469 112.871c-2.899-4.582.906-1.445-6.832-2.555"/></g><g clip-path="url(#s)"><path fill="none" stroke="#D1D1D1" stroke-linecap="round" stroke-miterlimit="10" stroke-width="1.594" d="M107.637 110.316c-7.735-1.105-6.961-10.636-8.063-8.902"/></g><g clip-path="url(#t)"><path fill="none" stroke="#CFCFCF" stroke-linecap="round" stroke-miterlimit="10" stroke-width="1.594" d="M99.574 101.414c-1.097 1.734-18.433-4.512-9.808-4.418"/></g><g clip-path="url(#u)"><path fill="none" stroke="#CCC" stroke-linecap="round" stroke-miterlimit="10" stroke-width="1.594" d="M89.766 96.996c8.629.09 6.882-9.887 8.593-5.043"/></g><g clip-path="url(#v)"><path fill="none" stroke="#C9C9C9" stroke-linecap="round" stroke-miterlimit="10" stroke-width="1.594" d="M98.36 91.953c1.71 4.84-16.7 11.098-7.747 2.098"/></g><path fill="none" stroke="#C7C7C7" stroke-linecap="round" stroke-miterlimit="10" stroke-width="1.594" d="M90.613 94.05c8.95-9.003-.086-4.671.325-8.69"/><path fill="none" stroke="#C4C4C4" stroke-linecap="round" stroke-miterlimit="10" stroke-width="1.594" d="M90.938 85.36c.406-4.02-8.688 12.894-4.176 8.421"/><g clip-path="url(#w)"><path fill="none" stroke="#C2C2C2" stroke-linecap="round" stroke-miterlimit="10" stroke-width="1.594" d="M86.762 93.781c4.511-4.472 15.355 1.45 6.195 9.13"/></g><g clip-path="url(#x)"><path fill="none" stroke="#BFBFBF" stroke-linecap="round" stroke-miterlimit="10" stroke-width="1.594" d="M92.957 102.91c-9.156 7.684-10.285 3.016-2.727-5.023"/></g><g clip-path="url(#y)"><path fill="none" stroke="#BDBDBD" stroke-linecap="round" stroke-miterlimit="10" stroke-width="1.594" d="M90.23 97.887c7.56-8.043.48-1.883 2.915-3.864"/></g><g clip-path="url(#z)"><path fill="none" stroke="#BABABA" stroke-linecap="round" stroke-miterlimit="10" stroke-width="1.594" d="M93.145 94.023c2.437-1.976-1.145 4.54-8.977 5.793"/></g><g clip-path="url(#A)"><path fill="none" stroke="#B8B8B8" stroke-linecap="round" stroke-miterlimit="10" stroke-width="1.594" d="M84.168 99.816c-7.832 1.254 5.676-8.64 4.402-3.296"/></g><g clip-path="url(#B)"><path fill="none" stroke="#B5B5B5" stroke-linecap="round" stroke-miterlimit="10" stroke-width="1.594" d="M88.57 96.52c-1.273 5.343 15.008-1.145 6.996 2.835"/></g><g clip-path="url(#C)"><path fill="none" stroke="#B2B2B2" stroke-linecap="round" stroke-miterlimit="10" stroke-width="1.594" d="M95.566 99.355c-8.011 3.985-3.59.528 3.215.98"/></g><g clip-path="url(#D)"><path fill="none" stroke="#B0B0B0" stroke-linecap="round" stroke-miterlimit="10" stroke-width="1.594" d="M98.781 100.336c6.809.453-.004-6.793 2.055 1.445"/></g><g clip-path="url(#E)"><path fill="none" stroke="#ADADAD" stroke-linecap="round" stroke-miterlimit="10" stroke-width="1.594" d="M100.836 101.781c2.059 8.239-7.844 1.93-6.977-4.101"/></g><g clip-path="url(#F)"><path fill="none" stroke="#ABABAB" stroke-linecap="round" stroke-miterlimit="10" stroke-width="1.594" d="M93.86 97.68c.867-6.032 2.925 9.98 2.222.289"/></g><g clip-path="url(#G)"><path fill="none" stroke="#A8A8A8" stroke-linecap="round" stroke-miterlimit="10" stroke-width="1.594" d="M96.082 97.969c-.7-9.692-7.074-11.926-.352-9.492"/></g><g clip-path="url(#H)"><path fill="none" stroke="#A6A6A6" stroke-linecap="round" stroke-miterlimit="10" stroke-width="1.594" d="M95.73 88.477c6.723 2.43-.488 8.101 1.204 2.003"/></g><g clip-path="url(#I)"><path fill="none" stroke="#A3A3A3" stroke-linecap="round" stroke-miterlimit="10" stroke-width="1.594" d="M96.934 90.48c1.687-6.093-3.48 2.344.78-4.52"/></g><g clip-path="url(#J)"><path fill="none" stroke="#A1A1A1" stroke-linecap="round" stroke-miterlimit="10" stroke-width="1.594" d="M97.715 85.96c4.258-6.858-12.324-8.03-9.8-2.1"/></g><path fill="none" stroke="#9E9E9E" stroke-linecap="round" stroke-miterlimit="10" stroke-width="1.594" d="M87.914 83.86c2.523 5.93-13.516 6.523-9.672 1.226"/><path fill="none" stroke="#9C9C9C" stroke-linecap="round" stroke-miterlimit="10" stroke-width="1.594" d="M78.242 85.086c3.844-5.293 18.59 4.617 9.238-4.406"/><path fill="none" stroke="#999" stroke-linecap="round" stroke-miterlimit="10" stroke-width="1.594" d="M87.48 80.68c-9.355-9.02-1.574 7.64-.8 5.058"/><path fill="none" stroke="#969696" stroke-linecap="round" stroke-miterlimit="10" stroke-width="1.594" d="M86.68 85.738c.773-2.582-2.903-6.46.011-2.27"/><path fill="none" stroke="#949494" stroke-linecap="round" stroke-miterlimit="10" stroke-width="1.594" d="M86.691 83.469c2.914 4.191-8.96-7.899-4.195-5.477"/><path fill="none" stroke="#919191" stroke-linecap="round" stroke-miterlimit="10" stroke-width="1.594" d="M82.496 77.992c4.762 2.422-3.98-13.879-7.46-7.242"/><path fill="none" stroke="#8F8F8F" stroke-linecap="round" stroke-miterlimit="10" stroke-width="1.594" d="M75.035 70.75c-3.48 6.637 3.957-8.352-1.601-2.457"/><path fill="none" stroke="#8C8C8C" stroke-linecap="round" stroke-miterlimit="10" stroke-width="1.594" d="M73.434 68.293c-5.559 5.89 4.668-9.043.066-9.441"/><path fill="none" stroke="#8A8A8A" stroke-linecap="round" stroke-miterlimit="10" stroke-width="1.594" d="M73.5 58.852c-4.598-.403-8.633 11.945-5.96 6.21"/><path fill="none" stroke="#878787" stroke-linecap="round" stroke-miterlimit="10" stroke-width="1.594" d="M67.54 65.063c2.675-5.731-4.59 13.039-9.669 6.812"/><path fill="none" stroke="#858585" stroke-linecap="round" stroke-miterlimit="10" stroke-width="1.594" d="M57.871 71.875c-5.078-6.23-9.535-11.05-2.008-4.434"/><path fill="none" stroke="#828282" stroke-linecap="round" stroke-miterlimit="10" stroke-width="1.594" d="M55.863 67.441c7.528 6.618 4.297-3.93-1.453 4.93"/><path fill="none" stroke="#7F7F7F" stroke-linecap="round" stroke-miterlimit="10" stroke-width="1.594" d="M54.41 72.371c-5.754 8.863 9.824 9.856.274 3.309"/><path fill="none" stroke="#7D7D7D" stroke-linecap="round" stroke-miterlimit="10" stroke-width="1.594" d="M54.684 75.68c-9.551-6.547-7.247 7.64-6.516 7.925"/><path fill="none" stroke="#7A7A7A" stroke-linecap="round" stroke-miterlimit="10" stroke-width="1.594" d="M48.168 83.605c.727.286-5.035 2.735.234.836"/><path fill="none" stroke="#787878" stroke-linecap="round" stroke-miterlimit="10" stroke-width="1.594" d="M48.402 84.441c5.27-1.894 3.692 9.727-5.175.524"/><path fill="none" stroke="#757575" stroke-linecap="round" stroke-miterlimit="10" stroke-width="1.594" d="M43.227 84.965c-8.864-9.203 3.054-9.492 7.253-5.227"/><path fill="none" stroke="#737373" stroke-linecap="round" stroke-miterlimit="10" stroke-width="1.594" d="M50.48 79.738c4.204 4.262 5.524-16.64-4.02-7.84"/><path fill="none" stroke="#707070" stroke-linecap="round" stroke-miterlimit="10" stroke-width="1.594" d="M46.46 71.898c-9.542 8.801-9.968-9.898-6.55-9.8"/><path fill="none" stroke="#6E6E6E" stroke-linecap="round" stroke-miterlimit="10" stroke-width="1.594" d="M39.91 62.098c3.418.093-3.5 8.12-.137-1.082"/><path fill="none" stroke="#6B6B6B" stroke-linecap="round" stroke-miterlimit="10" stroke-width="1.594" d="M39.773 61.016c3.364-9.203-.457 1.898 1.684 1.043"/><path fill="none" stroke="#696969" stroke-linecap="round" stroke-miterlimit="10" stroke-width="1.594" d="M41.457 62.059c2.14-.856-1.156-.73 8.281-9.383"/><path fill="none" stroke="#666" stroke-linecap="round" stroke-miterlimit="10" stroke-width="1.594" d="M49.738 52.676c9.438-8.653-4.742-9.578-9.273-9.227"/><path fill="none" stroke="#636363" stroke-linecap="round" stroke-miterlimit="10" stroke-width="1.594" d="M40.465 43.45c-4.531.35.488 3.718-5.2 9.616"/><path fill="none" stroke="#616161" stroke-linecap="round" stroke-miterlimit="10" stroke-width="1.594" d="M35.266 53.066c-5.692 5.899 12.882-.18 3.992.754"/><path fill="none" stroke="#5E5E5E" stroke-linecap="round" stroke-miterlimit="10" stroke-width="1.594" d="M39.258 53.82c-8.887.934-15.332-5.39-7.621-6.023"/><path fill="none" stroke="#5C5C5C" stroke-linecap="round" stroke-miterlimit="10" stroke-width="1.594" d="M31.637 47.797c7.715-.633-.422 1.062-2.348 7.96"/><path fill="none" stroke="#595959" stroke-linecap="round" stroke-miterlimit="10" stroke-width="1.594" d="M29.29 55.758c-1.923 6.894 11.444 1.008 5.331-4.574"/><path fill="none" stroke="#575757" stroke-linecap="round" stroke-miterlimit="10" stroke-width="1.594" d="M34.621 51.184c-6.117-5.579 8.484-10.407 5.652-2.793"/><path fill="none" stroke="#545454" stroke-linecap="round" stroke-miterlimit="10" stroke-width="1.594" d="M40.273 48.39c-2.832 7.614 6.098 16.348 2.528 9.258"/><path fill="none" stroke="#525252" stroke-linecap="round" stroke-miterlimit="10" stroke-width="1.594" d="M42.8 57.648c-3.57-7.09 1.97-7.035-2.988 2.743"/><path fill="none" stroke="#4F4F4F" stroke-linecap="round" stroke-miterlimit="10" stroke-width="1.594" d="M39.812 60.39c-4.953 9.782-4.453-11.96.63-9.39"/><path fill="none" stroke="#4C4C4C" stroke-linecap="round" stroke-miterlimit="10" stroke-width="1.594" d="M40.441 51c5.082 2.566-11.484 14.77-9.156 6.059"/><path fill="none" stroke="#4A4A4A" stroke-linecap="round" stroke-miterlimit="10" stroke-width="1.594" d="M31.285 57.059c2.328-8.711-1.953 2.613 4.258-2.668"/><path fill="none" stroke="#474747" stroke-linecap="round" stroke-miterlimit="10" stroke-width="1.594" d="M35.543 54.39c6.215-5.277-.508-5.87 6.7 1.61"/><path fill="none" stroke="#454545" stroke-linecap="round" stroke-miterlimit="10" stroke-width="1.594" d="M42.242 56c7.211 7.48-1.691-8.883 2.535-7.684"/><path fill="none" stroke="#424242" stroke-linecap="round" stroke-miterlimit="10" stroke-width="1.594" d="M44.777 48.316c4.223 1.2 6.477-2.707 2.356-7.828"/><path fill="none" stroke="#404040" stroke-linecap="round" stroke-miterlimit="10" stroke-width="1.594" d="M47.133 40.488c-4.125-5.12 7.078 5.11.512 3.453"/><path fill="none" stroke="#3D3D3D" stroke-linecap="round" stroke-miterlimit="10" stroke-width="1.594" d="M47.645 43.941c-6.563-1.656-13.434-5.296-8.36 1.825"/><path fill="none" stroke="#3B3B3B" stroke-linecap="round" stroke-miterlimit="10" stroke-width="1.594" d="M39.285 45.766c5.074 7.12 2.496.355 4.485-9.348"/><path fill="none" stroke="#383838" stroke-linecap="round" stroke-miterlimit="10" stroke-width="1.594" d="M43.77 36.418c1.988-9.703 6.07 2.539 6.144-.113"/><path fill="none" stroke="#363636" stroke-linecap="round" stroke-miterlimit="10" stroke-width="1.594" d="M49.914 36.305c.074-2.649 10.574-3.442 9.25-1"/><path fill="none" stroke="#333" stroke-linecap="round" stroke-miterlimit="10" stroke-width="1.594" d="M59.164 35.305c-1.324 2.441-9.355-13.196-4.469-7.852"/><path fill="none" stroke="#303030" stroke-linecap="round" stroke-miterlimit="10" stroke-width="1.594" d="M54.695 27.453c4.887 5.34-5.312 5.102-7.129-1.433"/><path fill="none" stroke="#2E2E2E" stroke-linecap="round" stroke-miterlimit="10" stroke-width="1.594" d="M47.566 26.02c-1.82-6.532-2.015-2.836-8.82 1.652"/><path fill="none" stroke="#2B2B2B" stroke-linecap="round" stroke-miterlimit="10" stroke-width="1.594" d="M38.746 27.672c-6.8 4.488 1.856-9.438-4.09-2.985"/><path fill="none" stroke="#292929" stroke-linecap="round" stroke-miterlimit="10" stroke-width="1.594" d="M34.656 24.688c-5.945 6.453-.136-7.95 3.602-7.813"/><path fill="none" stroke="#262626" stroke-linecap="round" stroke-miterlimit="10" stroke-width="1.594" d="M38.258 16.875c3.738.137-3.988 7.914-8.336 6.309"/><path fill="none" stroke="#242424" stroke-linecap="round" stroke-miterlimit="10" stroke-width="1.594" d="M29.922 23.184c-4.352-1.61-10.547-6.84-7.973-.18"/><path fill="none" stroke="#212121" stroke-linecap="round" stroke-miterlimit="10" stroke-width="1.594" d="M21.95 23.004c2.573 6.656-13.954-12.164-5.774-3.899"/><path fill="none" stroke="#1F1F1F" stroke-linecap="round" stroke-miterlimit="10" stroke-width="1.594" d="M16.176 19.105c8.18 8.27-7.98-15.546-.602-6.128"/><path fill="none" stroke="#1C1C1C" stroke-linecap="round" stroke-miterlimit="10" stroke-width="1.594" d="M15.574 12.977c7.38 9.418-6.086 6.812 3.293-2.477"/><path fill="none" stroke="#191919" stroke-linecap="round" stroke-miterlimit="10" stroke-width="1.594" d="M18.867 10.5c9.383-9.29-1.945.496 5.707-6.605"/><path fill="none" stroke="#171717" stroke-linecap="round" stroke-miterlimit="10" stroke-width="1.594" d="M24.574 3.895c7.653-7.098-5.152 2.832-1.449 9.335"/><path fill="none" stroke="#141414" stroke-linecap="round" stroke-miterlimit="10" stroke-width="1.594" d="M23.125 13.23c3.703 6.504-11.77.852-3.398-.043"/><path fill="none" stroke="#121212" stroke-linecap="round" stroke-miterlimit="10" stroke-width="1.594" d="M19.727 13.188c8.367-.891-2.23-1.458-.477 7.816"/><path fill="none" stroke="#0F0F0F" stroke-linecap="round" stroke-miterlimit="10" stroke-width="1.594" d="M19.25 21.004c1.758 9.27.2.23-8.758 8.594"/><path fill="none" stroke="#0D0D0D" stroke-linecap="round" stroke-miterlimit="10" stroke-width="1.594" d="M10.492 29.598c-8.957 8.363-7.93-7.696-7.062-4.118"/><path fill="none" stroke="#0A0A0A" stroke-linecap="round" stroke-miterlimit="10" stroke-width="1.594" d="M3.43 25.48c.867 3.582 16.656 9.461 7.16 1.891"/><path fill="none" stroke="#080808" stroke-linecap="round" stroke-miterlimit="10" stroke-width="1.594" d="M10.59 27.371c-9.492-7.566-3.89-5.203-4.235-3.066"/><path fill="none" stroke="#050505" stroke-linecap="round" stroke-miterlimit="10" stroke-width="1.594" d="M6.355 24.305c-.343 2.14-3.921 3.492 6.02 5.597"/><path fill="none" stroke="#030303" stroke-linecap="round" stroke-miterlimit="10" stroke-width="1.594" d="M12.375 29.902c9.945 2.102-4.664 3.106-4.102 3.618"/><path fill="none" stroke="#000" stroke-linecap="round" stroke-miterlimit="10" stroke-width="1.594" d="M8.273 33.52c.563.515-9.214-2.954-6.003 6.511"/></svg>