<svg xmlns="http://www.w3.org/2000/svg" width="77.924" height="33.896"><defs><clipPath id="a"><path d="M0 0h77.887v33.844H0Zm0 0"/></clipPath></defs><path fill="#CCF" d="M2.656 32.438 59.352 4.09l2.488-2.492 3.87 6.55 6.313-.988-1.28 7.5 5.452 3.324-5.824 4.895 2.012 6.062-7.61-.035-.828 2.77-4.593.762Zm0 0"/><g clip-path="url(#a)"><path fill="none" stroke="#00F" stroke-miterlimit="10" stroke-width=".797" d="M2.656 32.438 59.352 4.09l2.488-2.492 3.87 6.55 6.313-.988-1.28 7.5 5.452 3.324-5.824 4.895 2.012 6.062-7.61-.035-.828 2.77-4.593.762Zm0 0"/></g></svg>