<svg xmlns="http://www.w3.org/2000/svg" width="87.256" height="73.874"><defs><clipPath id="a"><path d="M0 0h86.883v73.813H0Zm0 0"/></clipPath></defs><path fill="none" stroke="#7F7F7F" stroke-miterlimit="10" stroke-width=".199" d="M.738 72.703h85.04M.737 44.355h85.04M.737 16.02h85.04M.737 72.703V16.012m28.344 56.691V16.012M57.43 72.703V16.012m28.336 56.691V16.012"/><path fill="#00F" d="M30.578 44.355c0-.824-.668-1.492-1.496-1.492-.824 0-1.492.668-1.492 1.492a1.494 1.494 0 1 0 2.988 0M58.926 16.012a1.494 1.494 0 1 0-2.988-.005 1.494 1.494 0 0 0 2.988.005M30.578 16.012a1.494 1.494 0 1 0-2.987-.005 1.494 1.494 0 0 0 2.987.005M37.664 65.617a1.495 1.495 0 1 0-2.99-.001 1.495 1.495 0 0 0 2.99.001M51.84 30.184c0-.825-.672-1.497-1.496-1.497s-1.496.672-1.496 1.497c0 .824.672 1.496 1.496 1.496s1.496-.672 1.496-1.496m0 0"/><path fill="none" stroke="#000" stroke-miterlimit="10" stroke-width=".797" d="M27.191 67.512h32.133V14.117H27.191Zm0 0"/><g clip-path="url(#a)"><path fill="none" stroke="red" stroke-miterlimit="10" stroke-width=".797" d="M50.945 1.496 10.68 24.742l24.89 43.113L75.836 44.61Zm0 0"/></g></svg>