<?xml version="1.0" encoding="UTF-8"?>
<svg xmlns="http://www.w3.org/2000/svg" xmlns:xlink="http://www.w3.org/1999/xlink" width="30.08pt" height="11.27pt" viewBox="0 0 30.08 11.27" version="1.2">
<defs>
<clipPath id="clip1">
  <path d="M 0 0 L 29.621094 0 L 29.621094 10.90625 L 0 10.90625 Z M 0 0 "/>
</clipPath>
</defs>
<g id="surface1">
<g clip-path="url(#clip1)" clip-rule="nonzero">
<path style="fill:none;stroke-width:0.3985;stroke-linecap:butt;stroke-linejoin:miter;stroke:rgb(0%,0%,0%);stroke-opacity:1;stroke-miterlimit:10;" d="M -0.00140625 0.0015625 C 2.264219 2.263281 4.432188 4.423437 6.943906 4.423437 C 9.459531 4.423437 11.6275 2.263281 13.889219 0.0015625 C 16.154844 -2.264063 18.318906 -4.424219 20.834531 -4.424219 C 23.350156 -4.424219 25.514219 -2.264063 27.779844 0.0015625 M -0.00140625 4.423437 C 2.514219 4.423437 4.682188 2.263281 6.943906 0.0015625 C 9.209531 -2.264063 11.3775 -4.424219 13.889219 -4.424219 C 16.404844 -4.424219 18.568906 -2.264063 20.834531 0.0015625 C 23.100156 2.263281 25.264219 4.423437 27.779844 4.423437 " transform="matrix(1,0,0,-1,0.685,5.275)"/>
</g>
</g>
</svg>
