<svg xmlns="http://www.w3.org/2000/svg" width="95.69" height="64.01"><defs><clipPath id="a"><path d="M0 0h95.535v63.516H0Zm0 0"/></clipPath></defs><path fill="none" stroke="#7F7F7F" stroke-miterlimit="10" stroke-width=".199" d="M5.555 61.754h85.039M5.554 33.406h85.04M5.554 5.07h85.04M5.554 61.754V5.063m28.348 56.69V5.064m28.348 56.69V5.064m28.336 56.69V5.064"/><g clip-path="url(#a)"><path fill="none" stroke="#000" stroke-miterlimit="10" stroke-width=".399" d="M13.133 55.14a11.34 11.34 0 0 1 2.449 7.36m7-10.508a11.33 11.33 0 0 1 2.453 7.356m7-10.508a11.34 11.34 0 0 1 2.45 7.36m7-10.509a11.35 11.35 0 0 1 2.453 7.36m6.996-10.512a11.32 11.32 0 0 1 2.453 7.36m7-10.508a11.35 11.35 0 0 1 2.453 7.359m6.996-10.512a11.32 11.32 0 0 1 2.453 7.36m7-10.508a11.36 11.36 0 0 1 2.453 7.36m6.996-10.509a11.3 11.3 0 0 1 2.453 7.356M86.695 24.09c2.5-.918 5.246-.922 7.754-.02m-14.164-6.578a11.32 11.32 0 0 1 6.824-3.68m-14.84-.808a11.36 11.36 0 0 1 5.083-5.86m-13.868 2.88a11.34 11.34 0 0 1 3.461-6.942M54.238 8.465a11.34 11.34 0 0 1 2.047-7.48m-11.48 7.328a11.36 11.36 0 0 1 .773-7.72M35.426 9.552a11.34 11.34 0 0 1-.43-7.742m-8.598 10.5a11.33 11.33 0 0 1-1.683-7.57M18.133 16.75a11.34 11.34 0 0 1-3.055-7.129m-3.746 13.445a11.34 11.34 0 0 1-4.613-6.234m.652 14.469a11.34 11.34 0 0 1-6.363-4.434"/></g></svg>