<svg xmlns="http://www.w3.org/2000/svg" xmlns:xlink="http://www.w3.org/1999/xlink" width="80.048" height="69.716"><defs><clipPath id="a"><path d="M0 46h25v23.574H0Zm0 0"/></clipPath><clipPath id="c"><path d="M52 29h27.57v31H52Zm0 0"/></clipPath><clipPath id="f"><path d="M52 0h27.57v26H52Zm0 0"/></clipPath><clipPath id="h"><path d="M23 11h56.57v40H23Zm0 0"/></clipPath><path id="b" d="M5.516-.234c0-.235-.125-.235-.266-.235-.61-.015-.61-.14-.61-.375v-2.14c0-.891-.702-1.532-2.187-1.532-.562 0-1.781.047-1.781.922 0 .438.344.625.61.625.312 0 .624-.219.624-.625 0-.297-.187-.469-.218-.5a5 5 0 0 1 .718-.062c.75 0 1.11.422 1.11 1.172v.343c-.72.032-3.25.125-3.25 1.563C.266-.125 1.5.062 2.188.062c.796 0 1.265-.406 1.484-.828 0 .313 0 .766 1.047.766h.468c.204 0 .329 0 .329-.234m-2-1.157c0 .97-.922 1.094-1.172 1.094-.516 0-.906-.344-.906-.797 0-1.062 1.578-1.203 2.078-1.234Zm0 0"/><path id="d" d="M5.984-2.219c0-1.328-.937-2.265-2.39-2.265-.719 0-1.219.28-1.453.484v-2.922l-1.766.078v.469c.61 0 .688 0 .688.39V0h.468c.157-.187.328-.375.485-.562.078.078.562.625 1.453.625 1.484 0 2.515-.907 2.515-2.282m-1.28 0c0 .469 0 1.016-.25 1.406-.298.407-.75.516-1.079.516-.687 0-1.078-.547-1.187-.687v-2.5c.28-.36.75-.641 1.296-.641 1.22 0 1.22 1.203 1.22 1.906m0 0"/><path id="e" d="M4.766-1.172c0-.14-.141-.14-.235-.14-.187 0-.187.03-.25.156-.25.625-.734.812-1.234.812-1.39 0-1.39-1.453-1.39-1.922 0-.562 0-1.843 1.28-1.843.36 0 .516.015.657.046a.62.62 0 0 0-.203.47c0 .437.343.624.609.624.313 0 .64-.219.64-.625 0-.86-1.156-.922-1.734-.922C1.11-4.516.375-3.375.375-2.219.375-.89 1.313.063 2.844.063c1.625 0 1.922-1.157 1.922-1.235m0 0"/><path id="g" d="M5.984 0v-.469c-.609 0-.687 0-.687-.39v-6.063l-1.766.078v.469c.625 0 .703 0 .703.39v1.954a2.18 2.18 0 0 0-1.359-.453c-1.453 0-2.5.875-2.5 2.28 0 1.313.922 2.267 2.39 2.267.61 0 1.094-.235 1.407-.485v.485ZM4.172-1.031c-.14.187-.547.734-1.297.734-1.219 0-1.219-1.203-1.219-1.906 0-.485 0-1.016.25-1.406.297-.422.766-.516 1.078-.516.563 0 .97.313 1.188.61Zm0 0"/></defs><path fill="#D2C92A" d="M19.02 60.102a8.27 8.27 0 0 0-16.54 0 8.27 8.27 0 0 0 16.54 0m0 0"/><g clip-path="url(#a)"><path fill="none" stroke="#000" stroke-miterlimit="10" stroke-width=".399" d="M19.02 60.102a8.27 8.27 0 0 0-16.54 0 8.27 8.27 0 0 0 16.54 0Zm0 0"/></g><use xlink:href="#b" x="7.967" y="62.328"/><path fill="#D2C92A" d="M76.863 44.512c0-5.203-4.215-9.422-9.418-9.422a9.42 9.42 0 0 0-9.422 9.422c0 5.203 4.22 9.418 9.422 9.418a9.416 9.416 0 0 0 9.418-9.418m0 0"/><g clip-path="url(#c)"><path fill="none" stroke="#000" stroke-miterlimit="10" stroke-width=".399" d="M76.863 44.512c0-5.203-4.215-9.422-9.418-9.422a9.42 9.42 0 0 0-9.422 9.422c0 5.203 4.22 9.418 9.422 9.418a9.416 9.416 0 0 0 9.418-9.418Zm0 0"/></g><use xlink:href="#d" x="64.261" y="47.938"/><path fill="#D2C92A" stroke="#000" stroke-miterlimit="10" stroke-width=".399" d="M47.215 17.582a8.115 8.115 0 0 0-8.117-8.117 8.115 8.115 0 0 0-8.118 8.117 8.115 8.115 0 0 0 8.118 8.117 8.115 8.115 0 0 0 8.117-8.117Zm0 0"/><use xlink:href="#e" x="36.552" y="19.809"/><path fill="#D2C92A" d="M76.863 10.496c0-5.203-4.215-9.422-9.418-9.422a9.42 9.42 0 0 0-9.422 9.422c0 5.203 4.22 9.418 9.422 9.418a9.416 9.416 0 0 0 9.418-9.418m0 0"/><g clip-path="url(#f)"><path fill="none" stroke="#000" stroke-miterlimit="10" stroke-width=".399" d="M76.863 10.496c0-5.203-4.215-9.422-9.418-9.422a9.42 9.42 0 0 0-9.422 9.422c0 5.203 4.22 9.418 9.422 9.418a9.416 9.416 0 0 0 9.418-9.418Zm0 0"/></g><use xlink:href="#g" x="64.261" y="13.922"/><path fill="none" stroke="#000" stroke-miterlimit="10" stroke-width=".399" d="M19.219 60.102c12.793 0 26.965-15.59 38.605-15.59"/><g clip-path="url(#h)"><path fill="none" stroke="#000" stroke-miterlimit="10" stroke-width=".399" d="M77.063 44.512c11.64 0-59.227-26.93-46.282-26.93"/></g><path fill="none" stroke="#000" stroke-miterlimit="10" stroke-width=".399" d="M47.414 17.582c12.945 0-57.922 42.52-45.133 42.52M47.414 17.582c12.945 0-1.23-7.086 10.41-7.086"/></svg>