<svg xmlns="http://www.w3.org/2000/svg" xmlns:xlink="http://www.w3.org/1999/xlink" width="221.564" height="10.676"><defs><path id="a" d="M2.938-6.375c0-.25 0-.266-.235-.266C2.078-6 1.203-6 .891-6v.313c.203 0 .78 0 1.297-.266v5.172c0 .36-.032.469-.922.469H.953V0c.344-.031 1.203-.031 1.61-.031.39 0 1.265 0 1.609.031v-.312h-.313c-.906 0-.921-.11-.921-.47Zm0 0"/><path id="c" d="M4.578-3.187c0-.797-.047-1.594-.39-2.329C3.734-6.484 2.906-6.64 2.5-6.64c-.61 0-1.328.266-1.75 1.188-.312.687-.36 1.469-.36 2.266 0 .75.032 1.64.454 2.406a1.83 1.83 0 0 0 1.64 1c.532 0 1.297-.203 1.735-1.156.312-.688.36-1.47.36-2.25M2.484 0c-.39 0-.984-.25-1.156-1.203-.11-.594-.11-1.516-.11-2.11 0-.64 0-1.296.079-1.828.187-1.187.937-1.28 1.187-1.28.329 0 .985.187 1.172 1.171.11.563.11 1.313.11 1.938 0 .75 0 1.421-.11 2.062C3.5-.297 2.937 0 2.484 0m0 0"/><path id="e" d="m1.266-.766 1.062-1.03c1.547-1.376 2.14-1.907 2.14-2.907 0-1.14-.89-1.938-2.109-1.938C1.234-6.64.5-5.719.5-4.828c0 .547.5.547.531.547.172 0 .516-.11.516-.532a.513.513 0 0 0-.531-.515c-.079 0-.094 0-.125.016.218-.657.765-1.016 1.343-1.016.907 0 1.329.812 1.329 1.625 0 .797-.485 1.578-1.047 2.203L.609-.375C.5-.265.5-.235.5 0h3.703l.266-1.734h-.235C4.172-1.437 4.11-1 4-.844c-.062.078-.719.078-.937.078Zm0 0"/><path id="f" d="M2.938-1.64v.859c0 .36-.032.469-.766.469h-.203V0c.406-.031.922-.031 1.344-.031.421 0 .937 0 1.359.031v-.312h-.219c-.734 0-.75-.11-.75-.47v-.859h.985v-.312h-.985v-4.531c0-.203 0-.266-.172-.266-.078 0-.11 0-.187.125L.28-1.953v.312Zm.046-.313H.563l2.421-3.719Zm0 0"/><path id="b" d="M2.031-.016c0-.656-.25-1.046-.64-1.046a.517.517 0 0 0-.532.53c0 .266.204.532.532.532a.58.58 0 0 0 .343-.125c.032-.031.047-.031.047-.031.016 0 .016 0 .016.14 0 .75-.344 1.344-.672 1.672-.11.11-.11.125-.11.157 0 .078.048.109.094.109.11 0 .922-.766.922-1.938m0 0"/><path id="d" d="M1.906-.531a.534.534 0 0 0-.515-.531.537.537 0 0 0-.532.53.524.524 0 1 0 1.047 0m0 0"/></defs><use xlink:href="#a" x="-.1" y="7.594"/><use xlink:href="#b" x="4.881" y="7.594"/><use xlink:href="#c" x="7.649" y="7.594"/><use xlink:href="#c" x="12.63" y="7.594"/><use xlink:href="#c" x="17.612" y="7.594"/><use xlink:href="#a" x="32.556" y="7.594"/><use xlink:href="#c" x="37.537" y="7.594"/><use xlink:href="#c" x="42.518" y="7.594"/><use xlink:href="#c" x="57.462" y="7.594"/><use xlink:href="#d" x="62.443" y="7.594"/><use xlink:href="#c" x="65.211" y="7.594"/><use xlink:href="#c" x="70.192" y="7.594"/><use xlink:href="#c" x="75.174" y="7.594"/><use xlink:href="#c" x="80.155" y="7.594"/><use xlink:href="#a" x="85.136" y="7.594"/><use xlink:href="#c" x="100.08" y="7.594"/><use xlink:href="#d" x="105.061" y="7.594"/><use xlink:href="#c" x="107.829" y="7.594"/><use xlink:href="#a" x="112.81" y="7.594"/><use xlink:href="#c" x="117.792" y="7.594"/><use xlink:href="#a" x="122.773" y="7.594"/><use xlink:href="#a" x="137.717" y="7.594"/><use xlink:href="#d" x="142.698" y="7.594"/><use xlink:href="#e" x="145.466" y="7.594"/><use xlink:href="#f" x="150.447" y="7.594"/><use xlink:href="#a" x="165.391" y="7.594"/><use xlink:href="#b" x="170.372" y="7.594"/><use xlink:href="#c" x="173.14" y="7.594"/><use xlink:href="#c" x="178.121" y="7.594"/><use xlink:href="#c" x="183.103" y="7.594"/><use xlink:href="#a" x="198.047" y="7.594"/><use xlink:href="#b" x="203.028" y="7.594"/><use xlink:href="#c" x="205.795" y="7.594"/><use xlink:href="#a" x="210.776" y="7.594"/><use xlink:href="#c" x="215.758" y="7.594"/></svg>