<svg xmlns="http://www.w3.org/2000/svg" width="68.51" height="23.888"><path d="M.887 7.387c-.223.765-.172 1.57.508 1.965.68.39 1.648-.012 1.957-.543.304-.528.25-.88.132-1.157-.093-.21-.343-.465-.464-.894-.122-.426-.168-.817.156-1.375C3.5 4.82 4.25 4.422 5.082 4.34c.836-.082 1.496-.735 1.383-1.348-.113-.617-1.219-1.094-2.309-.972-1.09.12-1.613.582-1.933 1.332-.317.746-.961 2.73-1.336 4.035m6.375-6.332c-.254-.149-.637.03-.848.402-.215.367-.18.79.078.938.254.144.637-.036.848-.403.215-.37.18-.789-.078-.937M6.07.992c-.175-.101-.425-.008-.55.211-.125.223-.086.48.09.586.18.102.425.004.55-.215.13-.219.086-.48-.09-.582m-.925-.02c-.172-.07-.38.036-.457.235-.083.203-.004.422.171.488.172.07.38-.035.457-.234.079-.2.004-.418-.171-.488m-.852.13c-.148-.086-.348-.02-.445.148s-.055.371.093.457c.149.086.348.02.446-.148.097-.164.054-.371-.094-.457m-.848.277a.295.295 0 0 0-.293.512.296.296 0 0 0 .399-.114.293.293 0 0 0-.106-.398m12.387 15.008c-.223-.77-.172-1.575.508-1.965.68-.395 1.648.012 1.953.539.305.531.254.879.133 1.16-.09.211-.34.465-.461.89-.125.43-.168.817.156 1.38.324.558 1.07.957 1.906 1.043.832.082 1.496.73 1.383 1.347s-1.219 1.09-2.308.969c-1.09-.121-1.614-.582-1.934-1.328-.32-.75-.961-2.735-1.336-4.035m6.375 6.332c-.258.144-.637-.035-.852-.403-.21-.37-.175-.789.079-.937.257-.149.636.031.851.402.215.367.18.79-.078.938m-1.191.062c-.18.102-.426.008-.551-.215-.13-.218-.086-.48.09-.582.175-.101.425-.007.55.211.13.223.086.48-.09.586m-.926.02c-.172.066-.38-.04-.457-.238-.082-.2-.004-.418.168-.489.176-.066.379.04.46.238.079.2.005.418-.171.489m-.852-.13c-.152.087-.351.02-.449-.148-.094-.168-.055-.375.098-.46.148-.086.347-.02.445.148s.055.375-.094.46m-.847-.276a.295.295 0 0 1-.399-.114.29.29 0 0 1 .102-.398.29.29 0 0 1 .398.11c.082.14.035.32-.101.402M30.773 7.387c-.218.765-.171 1.57.512 1.965.68.39 1.649-.012 1.953-.543.305-.528.254-.88.133-1.157-.09-.21-.344-.465-.465-.894-.12-.426-.164-.817.157-1.375.324-.563 1.074-.961 1.91-1.043.832-.082 1.496-.735 1.382-1.348-.117-.617-1.218-1.094-2.308-.972-1.094.12-1.613.582-1.934 1.332-.32.746-.965 2.73-1.34 4.035m6.38-6.332c-.258-.149-.637.03-.852.402-.211.367-.18.79.078.938.258.144.637-.036.851-.403.211-.37.176-.789-.078-.937M35.956.992c-.176-.101-.422-.008-.55.211-.126.223-.087.48.093.586.176.102.422.004.55-.215.126-.219.087-.48-.093-.582m-.922-.02c-.176-.07-.379.036-.46.235-.079.203-.005.422.171.488.172.07.379-.035.457-.234.082-.2.004-.418-.168-.488m-.855.13c-.149-.086-.348-.02-.446.148-.097.168-.054.371.094.457.152.086.352.02.445-.148.098-.164.055-.371-.093-.457m-.844.277a.293.293 0 0 0-.398.11.296.296 0 0 0 .101.402.296.296 0 0 0 .398-.114.29.29 0 0 0-.101-.398m12.383 15.008c-.223-.77-.172-1.575.508-1.965.68-.395 1.652.012 1.957.539.304.531.25.879.132 1.16-.093.211-.343.465-.464.89-.122.43-.168.817.156 1.38.324.558 1.074.957 1.906 1.043.836.082 1.496.73 1.383 1.347s-1.219 1.09-2.309.969-1.61-.582-1.93-1.328c-.32-.75-.964-2.735-1.34-4.035m6.375 6.332c-.254.144-.637-.035-.848-.403-.215-.37-.18-.789.078-.937.254-.149.637.031.848.402.215.367.18.79-.078.938m-1.192.062c-.175.102-.422.008-.55-.215-.125-.218-.086-.48.093-.582.176-.101.422-.007.547.211.13.223.086.48-.09.586m-.925.02c-.172.066-.38-.04-.457-.238-.079-.2-.004-.418.171-.489.172-.066.38.04.457.238.082.2.004.418-.171.489m-.852-.13c-.148.087-.348.02-.445-.148s-.055-.375.093-.46c.149-.086.348-.02.446.148.097.168.054.375-.094.46m-.848-.276a.296.296 0 0 1-.398-.114.29.29 0 0 1 .105-.398.29.29 0 0 1 .399.11c.078.14.035.32-.106.402M60.664 7.387c-.223.765-.172 1.57.508 1.965.68.39 1.648-.012 1.953-.543.309-.528.254-.88.133-1.157-.09-.21-.34-.465-.461-.894-.125-.426-.168-.817.156-1.375.324-.563 1.07-.961 1.906-1.043.832-.082 1.496-.735 1.383-1.348-.113-.617-1.219-1.094-2.308-.972-1.09.12-1.614.582-1.934 1.332-.32.746-.96 2.73-1.336 4.035m6.375-6.332c-.254-.149-.637.03-.848.402-.214.367-.18.79.075.938.257.144.64-.036.851-.403.215-.37.18-.789-.078-.937M65.848.992c-.18-.101-.426-.008-.551.211-.129.223-.086.48.09.586.18.102.425.004.55-.215.13-.219.086-.48-.09-.582m-.926-.02c-.172-.07-.379.036-.457.235-.082.203-.004.422.168.488.176.07.379-.035.46-.234.079-.2.005-.418-.171-.488m-.852.13c-.152-.086-.351-.02-.445.148-.098.168-.055.371.094.457.148.086.347.02.445-.148.098-.164.055-.371-.094-.457m-.847.277a.296.296 0 0 0-.297.512c.14.078.316.027.398-.114a.29.29 0 0 0-.101-.398m0 0"/></svg>