<svg xmlns="http://www.w3.org/2000/svg" xmlns:xlink="http://www.w3.org/1999/xlink" width="149.456" height="31.268"><defs><path id="b" d="M4.563 0v-.437H3.266v-5.157c0-.187 0-.297-.266-.297-.11 0-.125 0-.203.063-.688.516-1.656.516-1.828.516H.797v.437h.172a4.2 4.2 0 0 0 1.203-.172v4.61H.89V0c.343-.031 1.422-.031 1.828-.031.422 0 1.484 0 1.844.031m0 0"/><path id="c" d="M5 0v-.437h-.89v-.954H5v-.437h-.89v-3.766c0-.265-.032-.312-.298-.312-.218 0-.234.015-.328.14L.297-1.828v.437h2.656v.954H1.922V0C2.25-.031 3.14-.031 3.5-.031c.375 0 1.172 0 1.5.031M3.063-1.828H.813l2.25-2.797Zm0 0"/><path id="d" d="M5.156-5.516v-.265H3.11c-.187 0-1.437-.047-1.546-.078-.172-.047-.188-.11-.204-.203H.906L.594-3.766h.453c.094-.75.25-.812.25-.812.125-.047.812-.047.984-.047h1.5c-.922 1.047-.922 1.063-1.11 1.344-.733 1.11-.89 2.14-.89 2.75 0 .625.485.64.578.64.235 0 .407-.14.454-.187.124-.188.124-.234.124-.75 0-1.156.11-2.234.688-2.89l1.438-1.626c.078-.093.093-.14.093-.172m0 0"/><path id="e" d="M4.766-2.016h-.453c-.016.125-.094.766-.235.829-.11.046-.781.046-.937.046H1.859c.485-.39 1.016-.812 1.47-1.125.75-.53 1.437-1.015 1.437-1.89 0-1.047-.953-1.735-2.25-1.735-1.11 0-1.985.532-1.985 1.36 0 .468.36.687.672.687a.65.65 0 0 0 .656-.672c0-.203-.078-.53-.468-.64.312-.25.718-.282.89-.282.735 0 1.203.547 1.203 1.282 0 .656-.375 1.234-.859 1.718l-2 1.985c-.094.094-.094.11-.094.281V0H4.5Zm0 0"/><path id="f" d="M4.766-1.797c0-1.031-.72-1.875-2.078-1.875-.422 0-.797.063-1.188.297v-1.14c.313.062.453.062.64.062.25 0 .829 0 1.5-.453.204-.125.72-.563.72-.797 0-.031 0-.188-.141-.188 0 0-.047 0-.14.047a4.07 4.07 0 0 1-2.813 0c-.125-.047-.157-.047-.157-.047-.125 0-.125.125-.125.266v2.64c0 .157 0 .282.204.282.125 0 .14 0 .234-.125.375-.422.86-.485 1.219-.485.828 0 .828.782.828 1.485 0 .64 0 1.531-1.125 1.531-.485 0-.922-.234-1.14-.516.374-.046.577-.296.577-.624 0-.438-.343-.625-.625-.625s-.625.171-.625.64C.531-.64 1.25.11 2.391.11c1.53 0 2.375-.859 2.375-1.906m0 0"/><path id="g" d="M4.86-1.672c0-.953-.735-1.375-1.204-1.64.64-.313.906-.75.906-1.25 0-.86-.75-1.329-1.89-1.329-1.297 0-1.938.72-1.938 1.594 0 .484.266 1 .86 1.344-.485.25-1.156.61-1.156 1.515 0 1.11 1 1.547 2.203 1.547 1.453 0 2.218-.765 2.218-1.78m-1-2.89c0 .468-.282.796-.657 1l-1.375-.75c-.047-.016-.39-.204-.39-.516 0-.594.703-.703 1.187-.703.797 0 1.234.39 1.234.968m.187 3.375c0 .843-1.047.89-1.39.89-.798 0-1.407-.36-1.407-1.156 0-.406.172-.875.797-1.25l1.203.656c.484.266.797.438.797.86m0 0"/><path id="h" d="M4.86-1.61c0-.718-.532-1.327-1.548-1.546.907-.313 1.25-.938 1.25-1.485 0-.671-.671-1.25-2-1.25-1.109 0-1.828.594-1.828 1.329 0 .406.282.656.641.656.39 0 .656-.281.656-.656 0-.297-.172-.547-.531-.625.063-.063.438-.344 1.016-.344.78 0 .78.593.78.875 0 .5-.187 1.281-.968 1.328l-.422.031c-.14.016-.14.11-.14.172 0 .188.093.188.265.188h.422c1 0 1 .874 1 1.328 0 .406 0 1.312-.953 1.312-.11 0-.734-.016-1.14-.312.406-.11.5-.47.5-.672 0-.422-.298-.703-.72-.703-.374 0-.702.25-.702.703 0 .843.906 1.39 2.093 1.39 1.64 0 2.328-.906 2.328-1.718m0 0"/><path id="j" d="M4.86-1.844c0-.484-.094-.968-.61-1.437-.469-.39-.937-.485-1.484-.485-.578 0-.922.407-1.063.688v-.156c0-1.125.219-1.485.313-1.641a1.47 1.47 0 0 1 1.218-.656c.172 0 .454.031.672.234-.36.078-.484.344-.484.563 0 .39.297.593.594.593a.57.57 0 0 0 .578-.609c0-.547-.375-1.14-1.375-1.14-1.297 0-2.781.827-2.781 3.046 0 .438.03 1.313.421 1.953.391.688 1.016 1 1.829 1 1.28 0 2.171-.734 2.171-1.953m-1.266-.015c0 .906 0 1.562-.922 1.562-.531 0-.766-.406-.828-.562-.125-.282-.125-1-.125-1.032 0-.921.39-1.515 1.015-1.515.86 0 .86.656.86 1.547m0 0"/><clipPath id="a"><path d="M0 0h38v30.902H0Zm0 0"/></clipPath><clipPath id="i"><path d="M32 16h38v14.902H32Zm0 0"/></clipPath><clipPath id="k"><path d="M71 16h38v14.902H71Zm0 0"/></clipPath></defs><path fill="none" stroke="#7F7F7F" stroke-miterlimit="10" stroke-width=".399" d="M1.027 29.57h28.348M1.027 1.223h28.348M1.027 29.57V1.223M29.375 29.57V1.223"/><g fill="none" stroke-miterlimit="10" stroke-width=".598" clip-path="url(#a)"><path stroke="#CC8714" d="M1.027 15.422s.852-3.113 1.18-3.988c.328-.88.856-2.059 1.184-2.344.328-.29.851-.149 1.18.273.327.426.85 1.82 1.179 2.782.328.957.855 3.035 1.184 4.132.328 1.098.851 2.996 1.18 3.778.327.785.855 1.722 1.179 1.867.328.144.855-.27 1.184-.824.328-.555.851-2.145 1.18-3.168.327-1.024.855-3.137 1.183-4.203.324-1.07.851-2.832 1.18-3.504.328-.676.851-1.356 1.18-1.356.327 0 .855.68 1.183 1.356.328.672.851 2.433 1.18 3.504.328 1.066.855 3.18 1.18 4.203.327 1.023.855 2.613 1.183 3.168.328.554.851.968 1.18.824s.855-1.082 1.183-1.867c.324-.782.852-2.68 1.18-3.778s.851-3.175 1.18-4.132c.328-.961.855-2.356 1.183-2.782.328-.422.852-.562 1.18-.273.328.285.851 1.465 1.18 2.344.328.875 1.183 3.988 1.183 3.988"/><path stroke="#CC148C" d="M1.027 15.422s.852-3.184 1.18-4.117c.328-.93.856-2.215 1.184-2.59s.851-.43 1.18-.11c.327.317.85 1.516 1.179 2.41.328.9.855 2.907 1.184 4.048.328 1.14.851 3.21 1.18 4.175.327.961.855 2.336 1.179 2.762.328.43.855.594 1.184.332.328-.266.851-1.371 1.18-2.23.327-.856.855-2.825 1.183-3.957.324-1.137.851-3.235 1.18-4.227.328-.996.851-2.45 1.18-2.934.327-.48.855-.754 1.183-.546s.851 1.214 1.18 2.035c.328.82.855 2.742 1.18 3.87.327 1.13.855 3.243 1.183 4.262.328 1.024.851 2.555 1.18 3.09s.855.914 1.183.766c.324-.148.852-1.063 1.18-1.84s.851-2.644 1.18-3.762c.328-1.12.855-3.254 1.183-4.297.328-1.046.852-2.652 1.18-3.238s.851-1.074 1.18-.98c.328.09 1.183 1.636 1.183 1.636"/><path stroke="#2114CC" d="M1.027 15.422s.852-3.27 1.18-4.258c.328-.984.856-2.39 1.184-2.855.328-.47.851-.723 1.18-.516.327.203.85 1.184 1.179 1.992.328.813.855 2.703 1.184 3.852.328 1.148.851 3.324 1.18 4.433.327 1.11.855 2.86 1.179 3.563.328.707.855 1.453 1.184 1.523.328.067.851-.433 1.18-1.027.327-.59.855-2.176 1.183-3.23.324-1.055.851-3.204 1.18-4.376.328-1.171.851-3.175 1.18-4.082.327-.906.855-2.101 1.183-2.441a.81.81 0 0 1 1.18 0c.328.34.855 1.535 1.18 2.441.327.907.855 2.91 1.183 4.082s.851 3.32 1.18 4.375.855 2.641 1.183 3.23c.324.595.852 1.095 1.18 1.028.328-.07.851-.816 1.18-1.523.328-.703.855-2.453 1.183-3.563s.852-3.285 1.18-4.433c.328-1.149.851-3.04 1.18-3.852.328-.808 1.183-1.992 1.183-1.992"/><path stroke="#14CCA5" d="M1.027 15.422S1.88 12.05 2.207 11c.328-1.047.856-2.57 1.184-3.137.328-.566.851-1.027 1.18-.945.327.078.85.82 1.179 1.523.328.704.855 2.426 1.184 3.547.328 1.125.851 3.328 1.18 4.547.327 1.215.855 3.262 1.179 4.219.328.957.855 2.258 1.184 2.676s.851.59 1.18.351c.327-.242.855-1.246 1.183-2.078.324-.828.851-2.719 1.18-3.898.328-1.176.851-3.403 1.18-4.59.327-1.184.855-3.102 1.183-3.95.328-.847.851-1.898 1.18-2.163.328-.266.855-.145 1.18.25.327.394.855 1.652 1.183 2.593.328.938.851 2.97 1.18 4.18s.855 3.422 1.183 4.555c.324 1.136.852 2.886 1.18 3.613s.851 1.512 1.18 1.617c.328.11.855-.305 1.183-.844.328-.543.852-2.03 1.18-3.066.328-1.035.851-3.168 1.18-4.395s1.183-4.445 1.183-4.445"/><path stroke="#6ECC14" d="M1.027 15.422s.852-3.496 1.18-4.613c.328-1.121.856-2.774 1.184-3.446s.851-1.347 1.18-1.402c.327-.055.85.422 1.179 1 .328.574.855 2.082 1.184 3.14.328 1.063.851 3.22 1.18 4.497.327 1.273.855 3.53 1.179 4.699.328 1.168.855 2.953 1.184 3.719.328.765.851 1.625 1.18 1.793.327.168.855-.114 1.183-.586.324-.473.851-1.828 1.18-2.82.328-.997.851-3.075 1.18-4.337.327-1.261.855-3.543 1.183-4.753.328-1.211.851-3.114 1.18-3.965.328-.852.855-1.895 1.18-2.172.327-.274.855-.192 1.183.176.328.367.851 1.554 1.18 2.472s.855 2.91 1.183 4.149c.324 1.234.852 3.523 1.18 4.765s.851 3.25 1.18 4.18c.328.934.855 2.148 1.183 2.535.328.383.852.5 1.18.242s.851-1.273 1.18-2.11c.328-.835 1.183-3.925 1.183-3.925"/><path stroke="#CC3F14" d="M1.027 15.422s.852-3.652 1.18-4.852c.328-1.195.856-2.996 1.184-3.785s.851-1.687 1.18-1.894c.327-.203.85-.004 1.179.418.328.425.855 1.675 1.184 2.636.328.957.851 2.989 1.18 4.274.327 1.285.855 3.648 1.179 4.976.328 1.325.855 3.508 1.184 4.586.328 1.082.851 2.598 1.18 3.196.327.593.855 1.117 1.183 1.097.324-.02.851-.61 1.18-1.238.328-.633.851-2.203 1.18-3.305.327-1.101.855-3.308 1.183-4.644.328-1.332.851-3.692 1.18-4.961.328-1.274.855-3.27 1.18-4.2.327-.93.855-2.124 1.183-2.511.328-.383.851-.512 1.18-.27s.855 1.203 1.183 2.024c.324.82.852 2.668 1.18 3.883s.851 3.535 1.18 4.878c.328 1.344.855 3.633 1.183 4.813s.852 2.937 1.18 3.691c.328.758.851 1.594 1.18 1.758.328.168 1.183-.558 1.183-.558"/><path stroke="#C414CC" d="M1.027 15.422s.852-3.852 1.18-5.145.856-3.265 1.184-4.183.851-2.063 1.18-2.434c.327-.37.85-.476 1.179-.23.328.25.855 1.199 1.184 2.02.328.816.851 2.648 1.18 3.882.327 1.238.855 3.605 1.179 5.027.328 1.426.855 3.883 1.184 5.227.328 1.34.851 3.434 1.18 4.445.327 1.008.855 2.344 1.183 2.832.324.489.851.813 1.18.688s.851-.871 1.18-1.586c.327-.715.855-2.39 1.183-3.559.328-1.172.851-3.465 1.18-4.87.328-1.407.855-3.888 1.18-5.266.327-1.38.855-3.579 1.183-4.672.328-1.094.851-2.606 1.18-3.211.328-.602.855-1.14 1.183-1.14.324 0 .852.538 1.18 1.14s.851 2.113 1.18 3.207.855 3.297 1.183 4.676c.328 1.378.852 3.859 1.18 5.265s.851 3.7 1.18 4.867c.328 1.172 1.183 3.563 1.183 3.563"/><path stroke="#1450CC" d="M1.027 15.422s.852-4.117 1.18-5.531.856-3.59 1.184-4.657c.328-1.07.851-2.496 1.18-3.05.327-.555.85-1.004 1.179-.961.328.047.855.644 1.184 1.28.328.642.851 2.188 1.18 3.321.327 1.133.855 3.39 1.179 4.836.328 1.445.855 4.055 1.184 5.586s.851 4.078 1.18 5.457c.327 1.375.855 3.461 1.183 4.465.324 1.004.851 2.297 1.18 2.77.328.468.851.765 1.18.632.327-.133.855-.879 1.183-1.597.328-.72.851-2.391 1.18-3.582.328-1.188.855-3.524 1.18-4.996.327-1.473.855-4.098 1.183-5.622.328-1.523.851-4.027 1.18-5.363s.855-3.324 1.183-4.258c.324-.933.852-2.09 1.18-2.476s.851-.531 1.18-.309.855 1.117 1.183 1.91c.328.797.852 2.586 1.18 3.828.328 1.247.851 3.645 1.18 5.141s1.183 5.64 1.183 5.64"/></g><use xlink:href="#b" x="66.065" y="6.708"/><path fill="none" stroke="#1450CC" stroke-miterlimit="10" stroke-width=".598" d="M41.164 4.496s2.906-1.512 4.98-1.328 7.887 2.473 9.961 2.656 4.985-1.328 4.985-1.328"/><use xlink:href="#c" x="104.544" y="6.708"/><path fill="none" stroke="#6ECC14" stroke-miterlimit="10" stroke-width=".598" d="M79.64 4.496s2.91-1.512 4.981-1.328c2.074.184 7.89 2.473 9.965 2.656 2.074.184 4.98-1.328 4.98-1.328"/><use xlink:href="#d" x="143.024" y="6.708"/><path fill="none" stroke="#CC148C" stroke-miterlimit="10" stroke-width=".598" d="M118.121 4.496s2.91-1.512 4.98-1.328c2.075.184 7.891 2.473 9.965 2.656 2.075.184 4.98-1.328 4.98-1.328"/><use xlink:href="#e" x="66.065" y="17.666"/><path fill="none" stroke="#C414CC" stroke-miterlimit="10" stroke-width=".598" d="M41.164 15.453s2.906-1.508 4.98-1.324 7.887 2.469 9.961 2.652 4.985-1.328 4.985-1.328"/><use xlink:href="#f" x="104.544" y="17.666"/><path fill="none" stroke="#14CCA5" stroke-miterlimit="10" stroke-width=".598" d="M79.64 15.453s2.91-1.508 4.981-1.324c2.074.184 7.89 2.469 9.965 2.652 2.074.184 4.98-1.328 4.98-1.328"/><use xlink:href="#g" x="143.024" y="17.666"/><path fill="none" stroke="#CC8714" stroke-miterlimit="10" stroke-width=".598" d="M118.121 15.453s2.91-1.508 4.98-1.324c2.075.184 7.891 2.469 9.965 2.652 2.075.184 4.98-1.328 4.98-1.328"/><use xlink:href="#h" x="66.065" y="28.625"/><g clip-path="url(#i)"><path fill="none" stroke="#CC3F14" stroke-miterlimit="10" stroke-width=".598" d="M41.164 26.414s2.906-1.512 4.98-1.328 7.887 2.473 9.961 2.656 4.985-1.328 4.985-1.328"/></g><use xlink:href="#j" x="104.544" y="28.625"/><g clip-path="url(#k)"><path fill="none" stroke="#2114CC" stroke-miterlimit="10" stroke-width=".598" d="M79.64 26.414s2.91-1.512 4.981-1.328c2.074.184 7.89 2.473 9.965 2.656 2.074.184 4.98-1.328 4.98-1.328"/></g></svg>