<svg xmlns="http://www.w3.org/2000/svg" xmlns:xlink="http://www.w3.org/1999/xlink" width="112.214" height="60.77"><defs><clipPath id="b"><path d="M0 35h43v25.656H0Zm0 0"/></clipPath><path id="a" d="M5.984-2.219c0-1.328-.906-2.265-2.343-2.265-.75 0-1.282.312-1.5.484v-.484l-1.766.078v.468c.61 0 .688 0 .688.376v5.03H.375v.47l1.25-.032 1.25.032v-.47h-.687V-.39a2 2 0 0 0 1.28.454c1.5 0 2.516-.907 2.516-2.282m-1.28 0C4.703-.813 4-.297 3.358-.297c-.14 0-.609 0-1.062-.547-.11-.125-.11-.14-.11-.328v-2.11c0-.187.016-.202.157-.343.39-.406.922-.469 1.14-.469.657 0 1.22.61 1.22 1.875m0 0"/></defs><path fill="red" d="M110.145 13.125a2.112 2.112 0 1 0-4.227 0c0 1.164.945 2.113 2.113 2.113s2.114-.949 2.114-2.113m0 0"/><use xlink:href="#a" x="104.848" y="5.359"/><path fill="#7F7F7F" d="m27.855 59.41 8.907-5.14-27.41-12.66-8.223 2.37Zm0 0"/><g clip-path="url(#b)"><path fill="none" stroke="#000" stroke-miterlimit="10" stroke-width=".399" d="m27.855 59.41 8.907-5.14-27.41-12.66-8.223 2.37Zm0 0"/></g><path fill="#7F7F7F" stroke="#000" stroke-miterlimit="10" stroke-width=".399" d="m43.89 50.152 5.833-3.367-27.211-8.976-6.11 1.765ZM54.578 43.98l4.113-2.37-26.12-6.704-4.716 1.36ZM62.215 39.574l3.055-1.765-24.754-5.196-3.75 1.082ZM67.945 36.266l2.356-1.36-23.356-4.148-3.054.879ZM72.398 33.695l1.875-1.082-22.015-3.39-2.535.73ZM75.96 31.637l1.528-.88-20.77-2.823-2.136.617ZM78.879 29.953l1.266-.73-19.625-2.387-1.829.527ZM81.305 28.55l1.07-.616-18.578-2.04-1.582.454ZM83.363 27.363l.914-.527-17.629-1.77-1.378.399ZM85.125 26.348l.79-.457-16.755-1.547-1.215.351ZM86.652 25.465l.688-.399-15.961-1.363-1.078.313ZM87.988 24.695l.606-.351-15.235-1.211-.96.277ZM89.168 24.016l.539-.313-14.566-1.086-.868.25ZM90.215 23.41l.48-.277-13.953-.977-.781.223ZM91.152 22.867l.434-.25-13.387-.883-.71.207ZM91.996 22.379l.39-.223-12.863-.804-.648.187ZM92.762 21.941l.355-.207L80.738 21l-.593.172ZM93.453 21.54l.324-.188-11.925-.672-.547.156ZM94.09 21.172l.297-.172-11.508-.617-.504.144ZM94.668 20.836l.273-.156-11.113-.57-.465.136ZM95.203 20.527l.254-.144-10.75-.528-.43.125ZM95.695 20.246l.235-.137-10.403-.488-.402.113ZM96.152 19.98l.22-.125-10.083-.457-.375.11ZM96.578 19.734l.2-.113-9.774-.426-.352.102ZM96.973 19.508l.187-.11L87.668 19l-.328.098ZM97.34 19.293l.176-.098-9.22-.375-.308.09ZM97.688 19.098l.164-.098-8.965-.352-.293.086ZM98.012 18.91l.152-.09-8.723-.332-.273.082ZM98.313 18.734l.144-.086-8.492-.308-.258.074ZM98.598 18.57l.136-.082-8.277-.293-.242.07ZM98.867 18.414l.13-.074-8.071-.281-.23.07ZM99.125 18.266l.121-.07-7.875-.262-.219.062ZM99.363 18.129l.117-.07-7.687-.25-.207.062ZM99.594 17.996l.11-.062-7.509-.239-.199.059ZM99.809 17.871l.105-.058-7.34-.227-.187.055ZM100.016 17.754l.097-.059-7.172-.215-.18.051ZM100.21 17.64l.095-.054-7.02-.207-.168.05ZM100.395 17.531l.09-.05-6.868-.196-.164.047ZM100.574 17.43l.086-.051-6.726-.188-.157.047ZM100.742 17.332l.082-.047-6.586-.18-.148.043ZM100.906 17.238l.078-.047-6.457-.171-.14.043ZM101.059 17.148l.074-.043-6.324-.164-.141.04ZM101.207 17.063l.074-.043-6.207-.157-.133.04ZM101.352 16.98l.066-.039-6.086-.152-.129.035ZM101.488 16.902l.067-.039-5.977-.144-.121.035ZM101.617 16.828l.063-.039-5.864-.14-.12.035ZM101.742 16.754l.063-.035-5.762-.137-.113.035ZM101.863 16.684l.059-.036-5.66-.128-.11.03ZM101.98 16.617l.06-.031-5.563-.125-.106.027ZM102.094 16.55l.054-.03-5.468-.118-.102.028ZM102.2 16.488l.054-.027-5.379-.117-.098.027ZM102.305 16.43l.05-.028-5.289-.113-.093.027ZM102.406 16.371l.047-.027-5.2-.11-.093.028ZM102.504 16.316l.047-.027-5.121-.105-.09.027ZM102.598 16.262l.043-.028-5.04-.101-.085.027ZM102.688 16.21l.042-.026-4.96-.098-.082.023ZM102.773 16.16l.043-.027-4.886-.094-.078.023ZM102.86 16.11l.042-.024-4.816-.094-.074.024ZM102.941 16.063l.04-.024-4.743-.09-.074.024ZM103.02 16.016l.039-.024-4.672-.086-.075.024ZM103.098 15.973l.039-.024-4.606-.082-.074.02ZM103.172 15.93l.039-.024-4.543-.082-.07.024ZM103.246 15.887l.035-.02-4.476-.078-.07.016ZM103.316 15.848l.036-.02-4.418-.078-.067.02ZM103.383 15.805l.035-.016-4.356-.074-.062.015ZM103.45 15.77l.034-.02-4.3-.074-.059.02ZM103.516 15.73l.03-.02-4.241-.07-.059.02ZM103.578 15.695l.031-.02-4.187-.066-.059.016ZM103.64 15.66l.028-.02-4.133-.066-.055.02ZM103.7 15.625l.027-.016-4.079-.066-.054.016ZM103.758 15.594l.027-.02-4.031-.062-.05.015ZM103.813 15.559l.027-.016-3.977-.063-.054.016ZM103.867 15.527l.028-.015-3.93-.059-.05.016ZM103.922 15.496l.023-.016-3.882-.058-.047.015ZM103.973 15.469l.023-.016-3.836-.058-.047.015ZM104.023 15.438l.024-.016-3.79-.055-.046.016ZM104.074 15.41l.024-.015-3.746-.055-.047.015ZM104.121 15.383l.024-.016-3.704-.055-.046.016ZM104.168 15.355l.023-.015-3.66-.05-.047.01ZM104.215 15.328l.023-.015-3.62-.047-.044.011ZM104.258 15.3l.023-.01-3.578-.052-.043.012ZM104.305 15.277l.02-.011-3.54-.051-.043.012ZM104.344 15.25l.023-.012-3.5-.047-.043.012ZM104.387 15.227l.023-.012-3.465-.047-.039.012ZM104.43 15.203l.02-.012-3.427-.043-.039.008ZM104.469 15.18l.02-.012-3.391-.043-.04.012ZM104.508 15.156l.02-.008-3.356-.043-.035.008ZM104.547 15.137l.02-.012-3.32-.043-.04.012ZM104.582 15.113l.02-.011-3.286-.04-.035.008ZM104.621 15.094l.016-.012-3.25-.039-.035.008ZM104.656 15.07l.016-.008-3.219-.039-.035.008ZM104.691 15.05l.016-.007-3.187-.04-.032.009ZM104.727 15.031l.015-.008-3.156-.039-.031.008ZM104.758 15.012l.02-.008-3.13-.04-.03.013ZM104.793 14.992l.016-.008-3.098-.035-.031.008ZM104.824 14.977l.016-.012-3.067-.035-.03.008ZM104.855 14.957l.016-.008-3.035-.035-.031.008ZM104.887 14.938l.015-.008-3.007-.035-.032.007ZM104.918 14.922l.016-.012-2.98-.031-.032.008ZM104.95 14.902l.015-.007-2.957-.032-.028.008Zm0 0"/></svg>