<svg xmlns="http://www.w3.org/2000/svg" xmlns:xlink="http://www.w3.org/1999/xlink" width="205.778" height="120.98"><defs><path id="b" d="M5.563-1.812c.14 0 .312 0 .312-.172 0-.188-.172-.188-.312-.188H1c-.125 0-.297 0-.297.188 0 .172.172.172.297.172Zm0 0"/><path id="c" d="M2.5-5.078c0-.219-.016-.219-.234-.219-.328.313-.75.5-1.5.5v.266c.218 0 .64 0 1.109-.203v4.078c0 .297-.031.39-.781.39H.812V0c.329-.031 1.016-.031 1.376-.031s1.046 0 1.374.031v-.266h-.28c-.75 0-.782-.093-.782-.39Zm0 0"/><path id="d" d="M3.89-2.547c0-.844-.078-1.36-.343-1.875-.344-.703-1-.875-1.438-.875-1 0-1.375.75-1.484.969C.344-3.75.328-2.953.328-2.547c0 .531.016 1.328.406 1.969.36.594.954.75 1.375.75.391 0 1.063-.125 1.47-.906.296-.578.312-1.297.312-1.813M2.11-.062c-.266 0-.813-.125-.985-.954-.094-.453-.094-1.203-.094-1.625 0-.546 0-1.109.094-1.546.172-.813.781-.891.984-.891.266 0 .829.14.985.86.094.437.094 1.046.094 1.577 0 .47 0 1.188-.094 1.641-.172.828-.719.938-.985.938m0 0"/><path id="f" d="M1.11-4.484c.109.03.421.125.765.125 1 0 1.594-.703 1.594-.828 0-.094-.047-.11-.094-.11-.016 0-.031 0-.094.031a3 3 0 0 1-1.11.22c-.468 0-.858-.11-1.108-.22-.079-.03-.094-.03-.11-.03-.094 0-.094.077-.094.234v2.328c0 .14 0 .234.125.234.063 0 .079-.031.125-.094.094-.11.391-.515 1.079-.515.437 0 .656.359.734.515.125.281.14.656.14.953s0 .735-.218 1.079c-.156.25-.485.484-.906.484A1.27 1.27 0 0 1 .734-.922c.016.016.079.016.079.016.218 0 .406-.14.406-.39a.39.39 0 0 0-.39-.407c-.157 0-.407.078-.407.422 0 .718.625 1.453 1.531 1.453 1 0 1.844-.781 1.844-1.766 0-.922-.672-1.75-1.61-1.75-.39 0-.765.125-1.078.406Zm0 0"/><path id="h" d="M3.125-2.344c0 1.938-.922 2.266-1.39 2.266-.173 0-.579-.016-.798-.266.36-.031.375-.297.375-.375a.37.37 0 0 0-.375-.375.37.37 0 0 0-.375.39c0 .548.454.876 1.188.876 1.094 0 2.125-1.094 2.125-2.797 0-2.062-.922-2.672-1.734-2.672-.953 0-1.797.734-1.797 1.781 0 1.016.781 1.766 1.687 1.766.563 0 .906-.36 1.094-.766Zm-1.062.375c-.376 0-.61-.172-.782-.468-.187-.282-.187-.672-.187-1.079 0-.468 0-.796.218-1.125.204-.296.454-.453.829-.453.53 0 .765.532.797.563.156.39.171 1.015.171 1.172 0 .64-.343 1.39-1.046 1.39m0 0"/><path id="i" d="M2.64-2.875c.454-.219 1-.61 1-1.234 0-.766-.78-1.188-1.515-1.188-.844 0-1.531.578-1.531 1.328 0 .297.094.563.297.797.14.172.172.188.656.5C.563-2.234.344-1.656.344-1.219c0 .89.89 1.39 1.765 1.39.97 0 1.766-.671 1.766-1.515 0-.5-.266-.828-.406-.968-.125-.126-.14-.141-.828-.563m-1.234-.75c-.234-.14-.422-.375-.422-.64 0-.5.547-.829 1.125-.829.61 0 1.125.422 1.125.985 0 .453-.359.843-.828 1.078Zm.39 1.094c.032.015.938.578 1.079.656.125.078.547.328.547.813 0 .609-.656.984-1.297.984-.719 0-1.312-.484-1.312-1.14 0-.594.437-1.063.984-1.313m0 0"/><path id="j" d="M4.031-4.86c.078-.077.078-.093.078-.265H2.08a9 9 0 0 1-.642-.031c-.421-.032-.421-.11-.453-.235h-.25L.47-3.703h.25c.015-.125.11-.672.219-.735.078-.046.687-.046.796-.046h1.688l-.813 1.109C1.703-2.172 1.5-.906 1.5-.281c0 .078 0 .453.375.453s.375-.36.375-.453v-.39c0-1.141.203-2.079.594-2.61Zm0 0"/><path id="k" d="M2.25-1.625c.125-.125.453-.39.594-.5.484-.453.953-.89.953-1.61 0-.953-.797-1.562-1.781-1.562-.97 0-1.594.719-1.594 1.438 0 .39.312.437.422.437.172 0 .422-.11.422-.422 0-.406-.407-.406-.5-.406.234-.594.765-.781 1.156-.781.734 0 1.125.625 1.125 1.297 0 .828-.578 1.437-1.531 2.39l-1 1.047C.422-.219.422-.203.422 0h3.14l.235-1.422h-.25c-.016.156-.078.547-.172.703-.047.063-.656.063-.781.063H1.172Zm0 0"/><path id="e" d="M3.266-1.5c0-.75-.61-1.36-1.36-1.36-.734 0-1.343.61-1.343 1.36 0 .766.609 1.36 1.343 1.36.75 0 1.36-.594 1.36-1.36M1.906-.453A1.024 1.024 0 0 1 .875-1.5c0-.578.453-1.047 1.031-1.047s1.047.469 1.047 1.047c0 .594-.469 1.047-1.047 1.047m0 0"/><path id="g" d="M1.625-.437a.463.463 0 0 0-.453-.454.447.447 0 0 0-.438.438.44.44 0 0 0 .438.453.45.45 0 0 0 .453-.437m0 0"/><path id="l" d="M5.516 0v-.437c-.532 0-.61 0-.61-.36v-5.422l-1.61.063v.437c.548 0 .61 0 .61.36v1.734a2 2 0 0 0-1.25-.406c-1.453 0-2.312.89-2.312 2.047 0 1.187.844 2.03 2.219 2.03.562 0 1-.202 1.296-.437v.438ZM3.859-.984a1.43 1.43 0 0 1-1.203.672c-1.11 0-1.11-1.063-1.11-1.657 0-.531 0-.906.235-1.234.235-.36.672-.469.985-.469.437 0 .812.188 1.093.547Zm0 0"/><path id="m" d="M4.563-1.047c0-.172-.172-.172-.235-.172-.156 0-.172.047-.234.172-.203.469-.75.719-1.313.719-1.281 0-1.297-1.156-1.297-1.594h2.782c.187 0 .297 0 .297-.25 0-.203-.016-1-.594-1.484-.406-.328-.953-.406-1.39-.406-1.532 0-2.282.968-2.282 2.046 0 1.172.89 2.063 2.406 2.063 1.485 0 1.86-.938 1.86-1.094M3.688-2.25H1.483c.016-.406.063-1.453 1.094-1.453 1.047 0 1.094 1.094 1.11 1.453m0 0"/><path id="n" d="M5.156-3.547c0-.234-.172-.547-.593-.547-.438 0-.813.219-.985.344-.375-.219-.781-.281-1.219-.281-1.375 0-1.843.734-1.843 1.328 0 .484.312.812.468.937a1.25 1.25 0 0 0-.296.782c0 .39.187.703.375.875C.39.078.297.453.297.656c0 .532.625 1.14 2.344 1.14C4.219 1.797 5 1.313 5 .626c0-.312-.11-.86-.734-1.156C3.75-.766 3.28-.766 2.39-.766h-.453c-.282 0-.407 0-.563-.109a.56.56 0 0 1-.203-.453c0-.172.062-.281.062-.281.329.172.735.234 1.125.234 1.375 0 1.844-.734 1.844-1.328 0-.36-.172-.656-.36-.844.235-.125.423-.14.532-.172 0 .047-.031.094-.031.188a.407.407 0 1 0 .813-.016m-1.984.844c0 .39 0 .969-.813.969s-.812-.578-.812-.97c0-.405 0-.968.812-.968s.813.563.813.969M4.203.657c0 .296-.328.78-1.547.78C1.47 1.438 1.094 1 1.094.642c0-.516.578-.516.703-.516H2.89c.28 0 1.312 0 1.312.531m0 0"/><path id="o" d="M4.078-3.281c0-.453-.469-.75-1-.75-.625 0-1 .453-1.203.968h-.016v-.968L.375-3.97v.438c.531 0 .61 0 .61.36v2.734h-.61V0l1.14-.031c.22 0 .75 0 1.22.031v-.437h-.766v-1.516c0-.656.25-1.703 1.11-1.719a.57.57 0 0 0-.142.39c0 .391.313.579.563.579.297 0 .578-.203.578-.578m0 0"/><path id="p" d="M4.703-5.922c.031-.125.031-.14.031-.172 0-.078-.046-.125-.14-.125-.125 0-.907.063-1.094.078-.078.016-.187.032-.187.172 0 .125.109.125.25.125.421 0 .421.063.421.14 0 .063-.078.376-.125.563l-.171.688c-.094.344-.188.687-.266 1.047-.172-.328-.438-.563-.844-.563-1.047 0-2.203 1.25-2.203 2.61C.375-.375 1 .094 1.609.094c.579 0 1.047-.485 1.204-.656.093.5.546.656.828.656.265 0 .484-.11.687-.485.156-.296.281-.859.281-.89 0-.047-.03-.11-.109-.11-.11 0-.125.047-.156.22-.203.78-.39 1.046-.672 1.046-.235 0-.281-.219-.281-.406 0-.125.046-.375.046-.406Zm-1.86 4.844c-.03.14-.046.156-.187.328-.328.39-.687.625-1.031.625-.437 0-.578-.453-.578-.844 0-.437.25-1.469.469-1.906.28-.531.703-.86 1.062-.86.594 0 .735.72.735.766s-.016.094-.032.14Zm0 0"/><path id="q" d="M3.266-3.531c-.188.047-.375.172-.375.422a.42.42 0 0 0 .422.422c.234 0 .421-.157.421-.438 0-.547-.625-.89-1.421-.89-1.141 0-2 .952-2 2.077C.313-.78 1.234.095 2.297.095c1.25 0 1.531-1.078 1.531-1.156 0-.11-.094-.11-.125-.11-.094 0-.094.016-.156.172-.203.61-.703.844-1.156.844-.578 0-1.313-.469-1.313-1.797 0-1.39.719-1.813 1.25-1.813.125 0 .61.016.938.235m0 0"/><path id="r" d="M4.344-1.906c0-1.172-.938-2.11-2.032-2.11-1.14 0-2.046.954-2.046 2.11 0 1.11.922 2 2.03 2 1.142 0 2.048-.906 2.048-2M2.312-.156c-.453 0-.828-.219-1.03-.563-.235-.39-.25-.86-.25-1.265 0-.344 0-.844.218-1.22a1.22 1.22 0 0 1 1.047-.593c.515 0 .875.297 1.062.594.204.375.204.828.204 1.219 0 .328 0 .843-.22 1.234a1.18 1.18 0 0 1-1.03.594m0 0"/><path id="s" d="M3.078-3.781c0-.156 0-.235-.094-.235-.046 0-.062 0-.187.11-.016.015-.094.094-.156.14-.266-.203-.547-.25-.86-.25-1.187 0-1.468.657-1.468 1.11 0 .281.125.515.328.719.297.28.64.343 1.093.421.47.094.61.11.813.266.094.078.312.25.312.578 0 .797-.906.797-1.03.797-.907 0-1.141-.766-1.25-1.25-.032-.094-.048-.14-.141-.14-.125 0-.125.077-.125.234v1.14c0 .157 0 .235.093.235.063 0 .063 0 .235-.172a1.2 1.2 0 0 1 .172-.219c.375.375.796.39 1.015.39 1.11 0 1.485-.64 1.485-1.234 0-.406-.172-.656-.376-.859-.296-.297-.624-.36-1.28-.484-.235-.047-.891-.157-.891-.672 0-.281.203-.672 1.015-.672.969 0 1.032.75 1.047.969.016.109.016.172.125.172.125 0 .125-.063.125-.235Zm0 0"/><clipPath id="a"><path d="M48 0h157.668v100H48Zm0 0"/></clipPath></defs><path fill="none" stroke="#7F7F7F" stroke-linecap="round" stroke-miterlimit="10" stroke-width=".399" d="M56.89 98.273v-1.992M92.324 98.273v-1.992M127.758 98.273v-1.992M163.191 98.273v-1.992M198.625 98.273v-1.992M49.918 90.145h1.992M49.918 75.738h1.992M49.918 61.332h1.992M49.918 46.926h1.992M49.918 32.52h1.992M49.918 18.113h1.992M49.918 3.707h1.992"/><path fill="none" stroke="#7F7F7F" stroke-miterlimit="10" stroke-width=".399" d="M56.89 96.281h141.735"/><path fill="none" stroke="#BFBFBF" stroke-linecap="square" stroke-miterlimit="10" stroke-width=".399" d="M56.89 91.3h141.735M56.89 3.707h141.735"/><path fill="none" stroke="#7F7F7F" stroke-miterlimit="10" stroke-width=".399" d="M51.91 91.3V3.708"/><path fill="none" stroke="#BFBFBF" stroke-linecap="square" stroke-miterlimit="10" stroke-width=".399" d="M56.89 91.3V3.708M198.625 91.3V3.708"/><g clip-path="url(#a)"><path fill="none" stroke="#000" stroke-miterlimit="10" stroke-width=".598" d="M56.89 91.184s11.38-25.84 15.75-34.172c4.372-8.332 11.38-19.871 15.747-25.875 4.37-6.004 11.379-13.766 15.75-17.403 4.37-3.636 11.379-7.593 15.746-8.816 4.37-1.223 11.379-1.23 15.75 0 4.37 1.23 11.379 5.238 15.75 8.875 4.367 3.637 11.375 11.348 15.746 17.344s11.379 17.527 15.75 25.875c4.367 8.347 15.746 34.289 15.746 34.289"/></g><use xlink:href="#b" x="46.5" y="106.592"/><use xlink:href="#c" x="53.086" y="106.592"/><use xlink:href="#d" x="57.321" y="106.592"/><use xlink:href="#e" x="62.966" y="103.78"/><use xlink:href="#b" x="84.05" y="106.592"/><use xlink:href="#f" x="90.637" y="106.592"/><use xlink:href="#e" x="96.282" y="103.78"/><use xlink:href="#d" x="122.777" y="106.592"/><use xlink:href="#e" x="128.422" y="103.78"/><use xlink:href="#f" x="158.21" y="106.592"/><use xlink:href="#e" x="163.855" y="103.78"/><use xlink:href="#c" x="191.526" y="106.592"/><use xlink:href="#d" x="195.761" y="106.592"/><use xlink:href="#e" x="201.405" y="103.78"/><use xlink:href="#d" x="23.739" y="92.715"/><use xlink:href="#g" x="27.973" y="92.715"/><use xlink:href="#h" x="30.325" y="92.715"/><use xlink:href="#i" x="34.56" y="92.715"/><use xlink:href="#f" x="38.794" y="92.715"/><use xlink:href="#d" x="43.029" y="92.715"/><use xlink:href="#d" x="23.739" y="78.308"/><use xlink:href="#g" x="27.973" y="78.308"/><use xlink:href="#h" x="30.325" y="78.308"/><use xlink:href="#i" x="34.56" y="78.308"/><use xlink:href="#j" x="38.794" y="78.308"/><use xlink:href="#f" x="43.029" y="78.308"/><use xlink:href="#d" x="23.739" y="63.902"/><use xlink:href="#g" x="27.973" y="63.902"/><use xlink:href="#h" x="30.325" y="63.902"/><use xlink:href="#h" x="34.56" y="63.902"/><use xlink:href="#d" x="38.794" y="63.902"/><use xlink:href="#d" x="43.029" y="63.902"/><use xlink:href="#d" x="23.739" y="49.496"/><use xlink:href="#g" x="27.973" y="49.496"/><use xlink:href="#h" x="30.325" y="49.496"/><use xlink:href="#h" x="34.56" y="49.496"/><use xlink:href="#k" x="38.794" y="49.496"/><use xlink:href="#f" x="43.029" y="49.496"/><use xlink:href="#d" x="23.739" y="35.09"/><use xlink:href="#g" x="27.973" y="35.09"/><use xlink:href="#h" x="30.325" y="35.09"/><use xlink:href="#h" x="34.56" y="35.09"/><use xlink:href="#f" x="38.794" y="35.09"/><use xlink:href="#d" x="43.029" y="35.09"/><use xlink:href="#d" x="23.739" y="20.683"/><use xlink:href="#g" x="27.973" y="20.683"/><use xlink:href="#h" x="30.325" y="20.683"/><use xlink:href="#h" x="34.56" y="20.683"/><use xlink:href="#j" x="38.794" y="20.683"/><use xlink:href="#f" x="43.029" y="20.683"/><use xlink:href="#c" x="23.739" y="6.277"/><use xlink:href="#g" x="27.973" y="6.277"/><use xlink:href="#d" x="30.325" y="6.277"/><use xlink:href="#d" x="34.56" y="6.277"/><use xlink:href="#d" x="38.794" y="6.277"/><use xlink:href="#d" x="43.029" y="6.277"/><use xlink:href="#l" x="108.514" y="118.165"/><use xlink:href="#m" x="114.405" y="118.165"/><use xlink:href="#n" x="119.274" y="118.165"/><use xlink:href="#o" x="124.582" y="118.165"/><use xlink:href="#m" x="128.957" y="118.165"/><use xlink:href="#m" x="133.826" y="118.165"/><use xlink:href="#p" x="142.227" y="118.165"/><use xlink:href="#q" x=".574" y="50.618"/><use xlink:href="#r" x="4.67" y="50.618"/><use xlink:href="#s" x="9.278" y="50.618"/><use xlink:href="#p" x="14.448" y="50.618"/></svg>