<svg xmlns="http://www.w3.org/2000/svg" xmlns:xlink="http://www.w3.org/1999/xlink" width="63.416" height="78.626"><defs><path id="a" d="M5.516-.234c0-.235-.125-.235-.266-.235-.61-.015-.61-.14-.61-.375v-2.14c0-.891-.702-1.532-2.187-1.532-.562 0-1.781.047-1.781.922 0 .438.344.625.61.625.312 0 .624-.219.624-.625 0-.297-.187-.469-.218-.5a5 5 0 0 1 .718-.062c.75 0 1.11.422 1.11 1.172v.343c-.72.032-3.25.125-3.25 1.563C.266-.125 1.5.062 2.188.062c.796 0 1.265-.406 1.484-.828 0 .313 0 .766 1.047.766h.468c.204 0 .329 0 .329-.234m-2-1.157c0 .97-.922 1.094-1.172 1.094-.516 0-.906-.344-.906-.797 0-1.062 1.578-1.203 2.078-1.234Zm0 0"/><path id="b" d="M5.984-2.219c0-1.328-.937-2.265-2.39-2.265-.719 0-1.219.28-1.453.484v-2.922l-1.766.078v.469c.61 0 .688 0 .688.39V0h.468c.157-.187.328-.375.485-.562.078.078.562.625 1.453.625 1.484 0 2.515-.907 2.515-2.282m-1.28 0c0 .469 0 1.016-.25 1.406-.298.407-.75.516-1.079.516-.687 0-1.078-.547-1.187-.687v-2.5c.28-.36.75-.641 1.296-.641 1.22 0 1.22 1.203 1.22 1.906m0 0"/><path id="c" d="M4.766-1.172c0-.14-.141-.14-.235-.14-.187 0-.187.03-.25.156-.25.625-.734.812-1.234.812-1.39 0-1.39-1.453-1.39-1.922 0-.562 0-1.843 1.28-1.843.36 0 .516.015.657.046a.62.62 0 0 0-.203.47c0 .437.343.624.609.624.313 0 .64-.219.64-.625 0-.86-1.156-.922-1.734-.922C1.11-4.516.375-3.375.375-2.219.375-.89 1.313.063 2.844.063c1.625 0 1.922-1.157 1.922-1.235m0 0"/></defs><use xlink:href="#a" x=".429" y="6.517"/><use xlink:href="#b" x="28.376" y="7.718"/><use xlink:href="#c" x="57.361" y="6.517"/><use xlink:href="#c" x="57.361" y="20.69"/><path fill="none" stroke="#000" stroke-miterlimit="10" stroke-width=".399" d="M38.262 4.29h15.18"/><path fill="none" stroke="#000" stroke-linecap="round" stroke-linejoin="round" stroke-miterlimit="10" stroke-width=".399" d="M51.57 1.898c.38 1.434 1.223 2.114 2.07 2.391-.847.281-1.69.957-2.07 2.39"/><path fill="none" stroke="#000" stroke-miterlimit="10" stroke-width=".399" d="m38.262 7.64 15.222 7.614"/><path fill="none" stroke="#000" stroke-linecap="round" stroke-linejoin="round" stroke-miterlimit="10" stroke-width=".39897207" d="M52.879 12.277c-.305 1.453.148 2.434.785 3.067-.887-.133-1.945.097-2.922 1.21"/><use xlink:href="#b" x="28.376" y="36.064"/><use xlink:href="#c" x="57.361" y="34.864"/><use xlink:href="#c" x="57.361" y="49.037"/><path fill="none" stroke="#000" stroke-miterlimit="10" stroke-width=".399" d="M38.262 32.637h15.18"/><path fill="none" stroke="#000" stroke-linecap="round" stroke-linejoin="round" stroke-miterlimit="10" stroke-width=".399" d="M51.57 30.246c.38 1.434 1.223 2.113 2.07 2.39-.847.278-1.69.958-2.07 2.391"/><path fill="none" stroke="#000" stroke-miterlimit="10" stroke-width=".399" d="m38.262 35.988 15.222 7.614"/><path fill="none" stroke="#000" stroke-linecap="round" stroke-linejoin="round" stroke-miterlimit="10" stroke-width=".39897207" d="M52.879 40.625c-.305 1.45.148 2.434.785 3.062-.887-.128-1.945.098-2.922 1.215"/><use xlink:href="#b" x="28.376" y="64.41"/><use xlink:href="#c" x="57.361" y="63.21"/><use xlink:href="#c" x="57.361" y="77.383"/><path fill="none" stroke="#000" stroke-miterlimit="10" stroke-width=".399" d="M38.262 60.984h15.18"/><path fill="none" stroke="#000" stroke-linecap="round" stroke-linejoin="round" stroke-miterlimit="10" stroke-width=".399" d="M51.57 58.594c.38 1.433 1.223 2.11 2.07 2.39-.847.278-1.69.957-2.07 2.391"/><path fill="none" stroke="#000" stroke-miterlimit="10" stroke-width=".399" d="m38.262 64.336 15.222 7.61"/><path fill="none" stroke="#000" stroke-linecap="round" stroke-linejoin="round" stroke-miterlimit="10" stroke-width=".39897207" d="M52.879 68.969c-.305 1.453.148 2.437.785 3.066-.887-.129-1.945.098-2.922 1.211"/><path fill="none" stroke="#000" stroke-miterlimit="10" stroke-width=".399" d="M9.516 4.29h14.941"/><path fill="none" stroke="#000" stroke-linecap="round" stroke-linejoin="round" stroke-miterlimit="10" stroke-width=".399" d="M22.586 1.898c.379 1.434 1.223 2.114 2.07 2.391-.847.281-1.691.957-2.07 2.39"/><path fill="none" stroke="#000" stroke-miterlimit="10" stroke-width=".399" d="m9.02 10.098 15.554 15.554"/><path fill="none" stroke="#000" stroke-linecap="round" stroke-linejoin="round" stroke-miterlimit="10" stroke-width=".39899202" d="M24.941 22.637c-.746 1.285-.629 2.36-.226 3.156-.797-.402-1.871-.52-3.156.227"/><path fill="none" stroke="#000" stroke-miterlimit="10" stroke-width=".399" d="M6.117 10.098 27.88 53.62"/><path fill="none" stroke="#000" stroke-linecap="round" stroke-linejoin="round" stroke-miterlimit="10" stroke-width=".39897207" d="M29.18 50.875c-1.114.98-1.34 2.04-1.211 2.922-.63-.633-1.614-1.086-3.067-.781"/><path fill="none" stroke="#000" stroke-miterlimit="10" stroke-width=".399" d="M31.559 11.297v14.332"/></svg>