<svg xmlns="http://www.w3.org/2000/svg" xmlns:xlink="http://www.w3.org/1999/xlink" width="87.256" height="59.51"><defs><path id="c" d="m7.547-4.328-.203-2.406H.625L.422-4.328H.89c.093-1.125.187-1.938 1.625-1.938h.765v5.797H1.75V0c.547-.031 1.656-.031 2.234-.031.594 0 1.704 0 2.235.031v-.469H4.687v-5.797h.766c1.422 0 1.531.797 1.625 1.938Zm0 0"/><path id="d" d="M6.125 0v-.469h-.687v-2.578c0-1.047-.532-1.437-1.532-1.437a1.9 1.9 0 0 0-1.687.953v-3.39l-1.766.077v.469c.61 0 .688 0 .688.39v5.516H.453V0l1.25-.031L2.953 0v-.469h-.687v-2.078c0-1.094.859-1.578 1.5-1.578.328 0 .547.203.547.969V-.47h-.688V0l1.25-.031Zm0 0"/><path id="e" d="M2.844 0v-.469h-.61v-4.015L.5-4.406v.468c.594 0 .656 0 .656.391v3.078H.47V0l1.219-.031Zm-.469-6.047a.774.774 0 0 0-.781-.781.784.784 0 0 0-.782.781c0 .422.36.766.782.766a.77.77 0 0 0 .781-.766m0 0"/><path id="f" d="M4.14-1.39c0-.438-.202-.782-.546-1.063-.39-.281-.719-.344-1.485-.485-.375-.062-1.015-.171-1.015-.64 0-.625.922-.625 1.11-.625.75 0 1.124.297 1.171.844.016.156.031.203.234.203.235 0 .235-.047.235-.281v-.797c0-.188 0-.282-.172-.282-.047 0-.063 0-.453.188-.266-.125-.61-.188-1-.188-.313 0-1.844 0-1.844 1.313 0 .39.203.656.406.828.39.344.782.406 1.547.547.36.062 1.094.187 1.094.781 0 .75-.906.75-1.125.75C1.234-.297.984-1.03.859-1.453c-.046-.14-.109-.14-.234-.14-.25 0-.25.062-.25.28v1.094c0 .188 0 .282.188.282.062 0 .078 0 .296-.157l.25-.172c.47.329.985.329 1.188.329.312 0 1.844 0 1.844-1.454m0 0"/><path id="k" d="M5.516-.234c0-.235-.125-.235-.266-.235-.61-.015-.61-.14-.61-.375v-2.14c0-.891-.702-1.532-2.187-1.532-.562 0-1.781.047-1.781.922 0 .438.344.625.61.625.312 0 .624-.219.624-.625 0-.297-.187-.469-.218-.5a5 5 0 0 1 .718-.062c.75 0 1.11.422 1.11 1.172v.343c-.72.032-3.25.125-3.25 1.563C.266-.125 1.5.062 2.188.062c.796 0 1.265-.406 1.484-.828 0 .313 0 .766 1.047.766h.468c.204 0 .329 0 .329-.234m-2-1.157c0 .97-.922 1.094-1.172 1.094-.516 0-.906-.344-.906-.797 0-1.062 1.578-1.203 2.078-1.234Zm0 0"/><path id="n" d="M2.922 0v-.469h-.688v-6.453L.47-6.844v.469c.625 0 .687 0 .687.39v5.516H.47V0l1.219-.031Zm0 0"/><path id="o" d="M5.406-2.172c0-1.344-.922-2.344-2.547-2.344C1.22-4.516.313-3.5.313-2.172c0 1.235.89 2.235 2.546 2.235 1.672 0 2.547-1.016 2.547-2.235m-1.281-.11c0 .86 0 1.938-1.266 1.938-1.265 0-1.265-1.078-1.265-1.937 0-.453 0-.953.172-1.297.187-.375.609-.578 1.093-.578.422 0 .844.156 1.063.5.203.344.203.89.203 1.375m0 0"/><path id="p" d="M6.125 0v-.469h-.687v-2.578c0-1.047-.532-1.437-1.532-1.437-.953 0-1.484.562-1.75 1.078v-1.078l-1.703.078v.468c.61 0 .688 0 .688.391v3.078H.453V0l1.25-.031L2.953 0v-.469h-.687v-2.078c0-1.094.859-1.578 1.5-1.578.328 0 .547.203.547.969V-.47h-.688V0l1.25-.031Zm0 0"/><path id="q" d="M5.563-3.953c0-.235-.172-.578-.625-.578-.157 0-.625.031-1.063.375-.172-.125-.594-.328-1.328-.328-1.438 0-1.985.78-1.985 1.468 0 .407.188.829.516 1.047-.281.36-.344.688-.344.89 0 .157.047.642.438.954-.125.031-.86.25-.86.875C.313 1.25.876 2 2.86 2 4.625 2 5.406 1.422 5.406.719c0-.297-.078-.922-.75-1.266-.562-.281-1.156-.281-2.11-.281-.265 0-.718 0-.765-.016a.625.625 0 0 1-.562-.625c0-.093.047-.25.11-.328.452.234.968.266 1.218.266 1.437 0 1.984-.782 1.984-1.485 0-.468-.25-.796-.406-.953.297-.156.516-.172.625-.187a.43.43 0 0 0-.047.203c0 .25.172.422.438.422a.41.41 0 0 0 .422-.422m-2.141.937c0 .454 0 1.125-.875 1.125s-.875-.671-.875-1.125c0-.437 0-1.109.875-1.109s.875.672.875 1.11M4.547.75c0 .36-.39.89-1.688.89-1.187 0-1.687-.452-1.687-.906 0-.609.625-.609.766-.609h1.171c.313 0 1.438 0 1.438.625m0 0"/><path id="t" d="M3.813-1.234v-.532h-.47v.516c0 .672-.327.906-.609.906-.578 0-.578-.64-.578-.86v-2.75h1.469v-.468H2.156v-1.906h-.469c0 1-.484 1.984-1.484 2.016v.359h.828v2.734c0 1.063.86 1.282 1.578 1.282.75 0 1.204-.579 1.204-1.297m0 0"/><path id="u" d="M4.922-1.172c0-.172-.188-.172-.234-.172-.172 0-.188.047-.25.203-.204.485-.782.797-1.422.797-1.407 0-1.422-1.328-1.422-1.828h3.015c.22 0 .313 0 .313-.265 0-.313-.063-1.047-.563-1.547-.359-.36-.89-.532-1.578-.532C1.187-4.516.313-3.484.313-2.25c0 1.344 1 2.313 2.609 2.313 1.578 0 2-1.063 2-1.235M3.984-2.5h-2.39c.015-.39.031-.812.234-1.14.266-.391.672-.516.953-.516 1.172 0 1.188 1.312 1.203 1.656m0 0"/><path id="v" d="M5.828 0v-.469h-.703L3.453-2.453 4.61-3.75c.141-.14.204-.203 1.016-.203v-.469l-.906.031-1.032-.03v.468c.141 0 .266.015.376.078-.032.063-.032.094-.079.125l-.828.938-.984-1.141h.406v-.469L1.36-4.39.266-4.42v.468h.718l1.547 1.828L1.22-.656c-.157.187-.516.187-1 .187V0l.922-.031L2.156 0v-.469c-.172 0-.36-.047-.36-.11 0 0 0-.015.063-.093l.97-1.094L3.921-.469h-.39V0l1.202-.031Zm0 0"/><path id="w" d="M2.36-.781a.784.784 0 0 0-.782-.781.78.78 0 0 0-.766.78.774.774 0 1 0 1.547 0m0 0"/><clipPath id="a"><path d="M14 25h4v8h-4Zm0 0"/></clipPath><clipPath id="b"><path d="M71.605 29.516c0-15.653-12.69-28.344-28.347-28.344-15.656 0-28.348 12.691-28.348 28.344 0 15.656 12.692 28.347 28.348 28.347s28.347-12.691 28.347-28.347m0 0"/></clipPath><clipPath id="g"><path d="M22 25h7v8h-7Zm0 0"/></clipPath><clipPath id="h"><path d="M71.605 29.516c0-15.653-12.69-28.344-28.347-28.344-15.656 0-28.348 12.691-28.348 28.344 0 15.656 12.692 28.347 28.348 28.347s28.347-12.691 28.347-28.347m0 0"/></clipPath><clipPath id="i"><path d="M33 27h6v6h-6Zm0 0"/></clipPath><clipPath id="j"><path d="M71.605 29.516c0-15.653-12.69-28.344-28.347-28.344-15.656 0-28.348 12.691-28.348 28.344 0 15.656 12.692 28.347 28.348 28.347s28.347-12.691 28.347-28.347m0 0"/></clipPath><clipPath id="l"><path d="M43 25h21v9H43Zm0 0"/></clipPath><clipPath id="m"><path d="M71.605 29.516c0-15.653-12.69-28.344-28.347-28.344-15.656 0-28.348 12.691-28.348 28.344 0 15.656 12.692 28.347 28.348 28.347s28.347-12.691 28.347-28.347m0 0"/></clipPath><clipPath id="r"><path d="M67 25h5v8h-5Zm0 0"/></clipPath><clipPath id="s"><path d="M71.605 29.516c0-15.653-12.69-28.344-28.347-28.344-15.656 0-28.348 12.691-28.348 28.344 0 15.656 12.692 28.347 28.348 28.347s28.347-12.691 28.347-28.347m0 0"/></clipPath><clipPath id="x"><path d="M3 0h80v59.266H3Zm0 0"/></clipPath></defs><path fill="none" stroke="#7F7F7F" stroke-miterlimit="10" stroke-width=".199" d="M.738 57.863h85.04M.737 29.516h85.04M.737 1.18h85.04M.737 57.863V1.172m28.344 56.691V1.172M57.43 57.863V1.172m28.336 56.691V1.172"/><path fill="#E5E5FF" d="M71.605 29.516c0-15.653-12.69-28.344-28.347-28.344-15.656 0-28.348 12.691-28.348 28.344 0 15.656 12.692 28.347 28.348 28.347s28.347-12.691 28.347-28.347m0 0"/><g clip-path="url(#a)"><g clip-path="url(#b)"><use xlink:href="#c" x="-4.221" y="31.974"/><use xlink:href="#d" x="3.749" y="31.974"/><use xlink:href="#e" x="10.115" y="31.974"/><use xlink:href="#f" x="13.293" y="31.974"/></g></g><g clip-path="url(#g)"><g clip-path="url(#h)"><use xlink:href="#e" x="21.632" y="31.974"/><use xlink:href="#f" x="24.81" y="31.974"/></g></g><g clip-path="url(#i)"><g clip-path="url(#j)"><use xlink:href="#k" x="33.149" y="31.974"/></g></g><g clip-path="url(#l)"><g clip-path="url(#m)"><use xlink:href="#n" x="42.534" y="31.974"/><use xlink:href="#o" x="45.712" y="31.974"/><use xlink:href="#p" x="51.44" y="31.974"/><use xlink:href="#q" x="57.806" y="31.974"/></g></g><g clip-path="url(#r)"><g clip-path="url(#s)"><use xlink:href="#t" x="67.351" y="31.974"/><use xlink:href="#u" x="71.804" y="31.974"/><use xlink:href="#v" x="77.054" y="31.974"/><use xlink:href="#t" x="83.102" y="31.974"/><use xlink:href="#w" x="87.555" y="31.974"/></g></g><g clip-path="url(#x)"><path fill="none" stroke="#00F" stroke-miterlimit="10" stroke-width=".797" d="M71.605 29.516c0-15.653-12.69-28.344-28.347-28.344-15.656 0-28.348 12.691-28.348 28.344 0 15.656 12.692 28.347 28.348 28.347s28.347-12.691 28.347-28.347Zm0 0"/></g></svg>