<svg xmlns="http://www.w3.org/2000/svg" width="87.068" height="30.368"><defs><clipPath id="a"><path d="M57.242 24H60v5.043h-2.758Zm0 0"/></clipPath><clipPath id="b"><path d="M58.23 24H71v5.043H58.23Zm0 0"/></clipPath><clipPath id="c"><path d="M70 24h13v5.043H70Zm0 0"/></clipPath><clipPath id="d"><path d="M81 24h4.586v5.043H81Zm0 0"/></clipPath><clipPath id="e"><path d="M57.242 12H60v13h-2.758Zm0 0"/></clipPath><clipPath id="f"><path d="M58.23 12H71v13H58.23Zm0 0"/></clipPath><clipPath id="g"><path d="M81 12h4.586v13H81Zm0 0"/></clipPath><clipPath id="h"><path d="M57.242 1H60v13h-2.758Zm0 0"/></clipPath><clipPath id="i"><path d="M58.23 1H71v13H58.23Zm0 0"/></clipPath><clipPath id="j"><path d="M81 1h4.586v13H81Zm0 0"/></clipPath><clipPath id="k"><path d="M57.242.695H60v2.047h-2.758Zm0 0"/></clipPath><clipPath id="l"><path d="M58.23.695H71v2.047H58.23Zm0 0"/></clipPath><clipPath id="m"><path d="M70 .695h13v2.047H70Zm0 0"/></clipPath><clipPath id="n"><path d="M81 .695h4.586v2.047H81Zm0 0"/></clipPath></defs><path fill="#7F7F7F" d="M57.242 29.043V.695h28.344v28.348Zm0 0"/><g clip-path="url(#a)"><path fill="none" stroke="#000" stroke-miterlimit="10" stroke-width=".797" d="M47.887 32.926h11.34m-11.34-5.668h11.34m-8.504 8.504v-2.836m5.668 0v-5.668m-5.668 0v-2.836"/></g><g clip-path="url(#b)"><path fill="none" stroke="#000" stroke-miterlimit="10" stroke-width=".797" d="M59.227 32.926h11.34m-11.34-5.668h11.34m-8.504 8.504v-2.836m5.667 0v-5.668m-5.668 0v-2.836"/></g><g clip-path="url(#c)"><path fill="none" stroke="#000" stroke-miterlimit="10" stroke-width=".797" d="M70.566 32.926h11.336m-11.336-5.668h11.336m-8.504 8.504v-2.836m5.672 0v-5.668m-5.672 0v-2.836"/></g><g clip-path="url(#d)"><path fill="none" stroke="#000" stroke-miterlimit="10" stroke-width=".797" d="M81.902 32.926h11.34m-11.34-5.668h11.34m-8.504 8.504v-2.836m5.672 0v-5.668m-5.672 0v-2.836"/></g><g clip-path="url(#e)"><path fill="none" stroke="#000" stroke-miterlimit="10" stroke-width=".797" d="M47.887 21.59h11.34m-11.34-5.672h11.34m-8.504 8.504V21.59m5.668 0v-5.672m-5.668 0v-2.832"/></g><g clip-path="url(#f)"><path fill="none" stroke="#000" stroke-miterlimit="10" stroke-width=".797" d="M59.227 21.59h11.34m-11.34-5.672h11.34m-8.504 8.504V21.59m5.667 0v-5.672m-5.668 0v-2.832"/></g><path fill="none" stroke="#000" stroke-miterlimit="10" stroke-width=".797" d="M70.566 21.59h11.336m-11.336-5.672h11.336m-8.504 8.504V21.59m5.672 0v-5.672m-5.672 0v-2.832"/><g clip-path="url(#g)"><path fill="none" stroke="#000" stroke-miterlimit="10" stroke-width=".797" d="M81.902 21.59h11.34m-11.34-5.672h11.34m-8.504 8.504V21.59m5.672 0v-5.672m-5.672 0v-2.832"/></g><g clip-path="url(#h)"><path fill="none" stroke="#000" stroke-miterlimit="10" stroke-width=".797" d="M47.887 10.25h11.34m-11.34-5.668h11.34m-8.504 8.504V10.25m5.668 0V4.582m-5.668 0V1.746"/></g><g clip-path="url(#i)"><path fill="none" stroke="#000" stroke-miterlimit="10" stroke-width=".797" d="M59.227 10.25h11.34m-11.34-5.668h11.34m-8.504 8.504V10.25m5.667 0V4.582m-5.668 0V1.746"/></g><path fill="none" stroke="#000" stroke-miterlimit="10" stroke-width=".797" d="M70.566 10.25h11.336M70.566 4.582h11.336m-8.504 8.504V10.25m5.672 0V4.582m-5.672 0V1.746"/><g clip-path="url(#j)"><path fill="none" stroke="#000" stroke-miterlimit="10" stroke-width=".797" d="M81.902 10.25h11.34m-11.34-5.668h11.34m-8.504 8.504V10.25m5.672 0V4.582m-5.672 0V1.746"/></g><g clip-path="url(#k)"><path fill="none" stroke="#000" stroke-miterlimit="10" stroke-width=".797" d="M47.887-1.09h11.34m-11.34-5.668h11.34m-8.504 8.504V-1.09m5.668 0v-5.668m-5.668 0v-2.836"/></g><g clip-path="url(#l)"><path fill="none" stroke="#000" stroke-miterlimit="10" stroke-width=".797" d="M59.227-1.09h11.34m-11.34-5.668h11.34m-8.504 8.504V-1.09m5.667 0v-5.668m-5.668 0v-2.836"/></g><g clip-path="url(#m)"><path fill="none" stroke="#000" stroke-miterlimit="10" stroke-width=".797" d="M70.566-1.09h11.336M70.566-6.758h11.336m-8.504 8.504V-1.09m5.672 0v-5.668m-5.672 0v-2.836"/></g><g clip-path="url(#n)"><path fill="none" stroke="#000" stroke-miterlimit="10" stroke-width=".797" d="M81.902-1.09h11.34m-11.34-5.668h11.34m-8.504 8.504V-1.09m5.672 0v-5.668m-5.672 0v-2.836"/></g><path fill="none" stroke="#000" stroke-miterlimit="10" stroke-width=".996" d="M57.738 29.043V.695"/><path fill="none" stroke="red" stroke-miterlimit="10" stroke-width="2.835" d="M.547 14.867h56.695"/></svg>