<svg xmlns="http://www.w3.org/2000/svg" xmlns:xlink="http://www.w3.org/1999/xlink" width="83.846" height="108.92"><defs><path id="d" d="M8.547-.953c0-.219-.14-.219-.235-.219-.203 0-.218.11-.234.234-.047.47-.328.688-.625.688-.61 0-.687-.703-.75-1.125-.016-.11-.094-.797-.11-.844-.14-.703-.687-1.015-1.109-1.172C6.641-3.687 7.141-4.344 7.141-5c0-1-1.094-1.844-2.97-1.844H.392v.469h1.078v5.906H.39V0C.75-.031 1.719-.031 2.14-.031s1.39 0 1.75.031v-.469H2.828v-2.765h1.156c.141 0 .579 0 .891.328.313.36.313.547.313 1.265 0 .657 0 1.157.703 1.485.437.219 1.062.265 1.468.265 1.063 0 1.188-.89 1.188-1.062M5.625-4.984c0 .562 0 1.39-1.64 1.39H2.827v-2.781H4c1.61 0 1.625.781 1.625 1.39m0 0"/><path id="e" d="M4.922-1.172c0-.172-.188-.172-.234-.172-.172 0-.188.047-.25.203-.204.485-.782.797-1.422.797-1.407 0-1.422-1.328-1.422-1.828h3.015c.22 0 .313 0 .313-.265 0-.313-.063-1.047-.563-1.547-.359-.36-.89-.532-1.578-.532C1.187-4.516.313-3.484.313-2.25c0 1.344 1 2.313 2.609 2.313 1.578 0 2-1.063 2-1.235M3.984-2.5h-2.39c.015-.39.031-.812.234-1.14.266-.391.672-.516.953-.516 1.172 0 1.188 1.312 1.203 1.656m0 0"/><path id="f" d="M9.328 0v-.469h-.687v-2.578c0-1.031-.516-1.437-1.547-1.437-.907 0-1.422.5-1.688.953-.187-.922-1.11-.953-1.484-.953-.875 0-1.438.453-1.766 1.078v-1.078l-1.703.078v.468c.61 0 .688 0 .688.391v3.078H.453V0l1.25-.031L2.953 0v-.469h-.687v-2.078c0-1.094.875-1.578 1.5-1.578.328 0 .547.203.547.969V-.47h-.688V0l1.266-.031L6.14 0v-.469h-.688v-2.078c0-1.094.86-1.578 1.484-1.578.344 0 .563.203.563.969V-.47h-.687V0l1.25-.031Zm0 0"/><path id="g" d="M5.516-.234c0-.235-.125-.235-.266-.235-.61-.015-.61-.14-.61-.375v-2.14c0-.891-.702-1.532-2.187-1.532-.562 0-1.781.047-1.781.922 0 .438.344.625.61.625.312 0 .624-.219.624-.625 0-.297-.187-.469-.218-.5a5 5 0 0 1 .718-.062c.75 0 1.11.422 1.11 1.172v.343c-.72.032-3.25.125-3.25 1.563C.266-.125 1.5.062 2.188.062c.796 0 1.265-.406 1.484-.828 0 .313 0 .766 1.047.766h.468c.204 0 .329 0 .329-.234m-2-1.157c0 .97-.922 1.094-1.172 1.094-.516 0-.906-.344-.906-.797 0-1.062 1.578-1.203 2.078-1.234Zm0 0"/><path id="h" d="M4.406-3.672c0-.531-.531-.812-1.062-.812-.688 0-1.094.5-1.313 1.125v-1.125l-1.656.078v.468c.61 0 .688 0 .688.391v3.078H.375V0l1.25-.031C2-.031 2.641-.031 3 0v-.469h-.86v-1.75c0-.687.235-1.906 1.235-1.906 0 0-.187.172-.187.453 0 .406.328.61.609.61.297 0 .61-.204.61-.61m0 0"/><path id="i" d="M5.86 0v-.469h-.173c-.437 0-.468-.047-.593-.203L3.406-2.766 4.703-3.78c.14-.11.234-.172.906-.172v-.469c-.28.031-.53.031-.78.031l-1.157-.03v.468c.234 0 .265.031.344.11L2.14-2.36v-4.563l-1.766.078v.469c.61 0 .688 0 .688.39v5.516H.375V0l1.188-.031L2.766 0v-.469h-.688v-1.265c.297-.235.375-.297.578-.422l1 1.25c.094.125.25.312.25.344 0 .093-.172.093-.312.093V0a53 53 0 0 1 1.219-.031c.359 0 .703.015 1.046.031m0 0"/><path id="l" d="M8.422-6.375v-.469c-.375.032-.938.032-1.328.032-.422 0-.938 0-1.36-.032v.469h.25c.188 0 .36.016.532.031.297.032.297.047.297.266v3.75C6.813-.844 5.734-.36 4.64-.36c-1.735 0-1.766-1.313-1.766-1.86v-4.156h1.078v-.469c-.375.032-1.344.032-1.781.032-.422 0-1.406 0-1.781-.032v.469h1.078v4.078C1.469-.984 2.547.11 4.609.11 6.5.11 7.344-1.062 7.344-2.28v-3.797c0-.219.015-.234.297-.266.234-.031.25-.031.53-.031Zm0 0"/><path id="m" d="M4.14-1.39c0-.438-.202-.782-.546-1.063-.39-.281-.719-.344-1.485-.485-.375-.062-1.015-.171-1.015-.64 0-.625.922-.625 1.11-.625.75 0 1.124.297 1.171.844.016.156.031.203.234.203.235 0 .235-.047.235-.281v-.797c0-.188 0-.282-.172-.282-.047 0-.063 0-.453.188-.266-.125-.61-.188-1-.188-.313 0-1.844 0-1.844 1.313 0 .39.203.656.406.828.39.344.782.406 1.547.547.36.062 1.094.187 1.094.781 0 .75-.906.75-1.125.75C1.234-.297.984-1.03.859-1.453c-.046-.14-.109-.14-.234-.14-.25 0-.25.062-.25.28v1.094c0 .188 0 .282.188.282.062 0 .078 0 .296-.157l.25-.172c.47.329.985.329 1.188.329.312 0 1.844 0 1.844-1.454m0 0"/><path id="n" d="M7.64-2.266c0-.203-.077-.203-.25-.203-.124 0-.218 0-.218.172C7.094-.969 5.89-.359 4.89-.359c-.782 0-1.625-.235-2.141-.844-.469-.578-.594-1.313-.594-2.219 0-.562.031-1.625.672-2.297.64-.656 1.516-.765 2.031-.765 1.079 0 2.016.765 2.235 2.03.031.188.047.204.265.204.266 0 .282-.016.282-.281v-2.14c0-.188 0-.282-.188-.282-.094 0-.11.031-.187.094l-.657.593a3.03 3.03 0 0 0-1.968-.687c-2.485 0-4 1.484-4 3.531S2.156.11 4.64.11c1.875 0 3-1.218 3-2.375m0 0"/><clipPath id="a"><path d="M1 1h58v25H1Zm0 0"/></clipPath><clipPath id="b"><path d="M1.14 26.293V1.176h52.844l4.98 4.984v20.133ZM53.985 1.176V6.16h4.98-4.98"/></clipPath><clipPath id="j"><path d="M0 68h83.77v40.879H0Zm0 0"/></clipPath><clipPath id="k"><path d="M0 79h83.77v29.879H0Zm0 0"/></clipPath><linearGradient id="c" x1="0" x2="0" y1="25.003" y2="74.997" gradientTransform="matrix(1.15662 0 0 -.50238 -27.779 38.854)" gradientUnits="userSpaceOnUse"><stop offset="0" stop-color="#FFF"/><stop offset=".008" stop-color="#FEFEFE"/><stop offset=".016" stop-color="#FDFDFD"/><stop offset=".023" stop-color="#FDFDFD"/><stop offset=".031" stop-color="#FCFCFC"/><stop offset=".039" stop-color="#FBFBFB"/><stop offset=".047" stop-color="#FAFAFA"/><stop offset=".055" stop-color="#F9F9F9"/><stop offset=".063" stop-color="#F8F8F8"/><stop offset=".07" stop-color="#F7F7F7"/><stop offset=".078" stop-color="#F6F6F6"/><stop offset=".086" stop-color="#F5F5F5"/><stop offset=".094" stop-color="#F4F4F4"/><stop offset=".102" stop-color="#F3F3F3"/><stop offset=".109" stop-color="#F2F2F2"/><stop offset=".117" stop-color="#F1F1F1"/><stop offset=".125" stop-color="#F0F0F0"/><stop offset=".133" stop-color="#EFEFEF"/><stop offset=".141" stop-color="#EEE"/><stop offset=".148" stop-color="#EDEDED"/><stop offset=".156" stop-color="#ECECEC"/><stop offset=".164" stop-color="#EBEBEB"/><stop offset=".172" stop-color="#EAEAEA"/><stop offset=".18" stop-color="#E9E9E9"/><stop offset=".188" stop-color="#E8E8E8"/><stop offset=".195" stop-color="#E7E7E7"/><stop offset=".203" stop-color="#E6E6E6"/><stop offset=".211" stop-color="#E5E5E5"/><stop offset=".219" stop-color="#E4E4E4"/><stop offset=".227" stop-color="#E3E3E3"/><stop offset=".234" stop-color="#E2E2E2"/><stop offset=".242" stop-color="#E1E1E1"/><stop offset=".25" stop-color="#E0E0E0"/><stop offset=".258" stop-color="#DFDFDF"/><stop offset=".266" stop-color="#DEDEDE"/><stop offset=".273" stop-color="#DDD"/><stop offset=".281" stop-color="#DCDCDC"/><stop offset=".289" stop-color="#DBDBDB"/><stop offset=".297" stop-color="#DADADA"/><stop offset=".305" stop-color="#D9D9D9"/><stop offset=".313" stop-color="#D8D8D8"/><stop offset=".32" stop-color="#D7D7D7"/><stop offset=".328" stop-color="#D6D6D6"/><stop offset=".336" stop-color="#D5D5D5"/><stop offset=".344" stop-color="#D4D4D4"/><stop offset=".352" stop-color="#D3D3D3"/><stop offset=".359" stop-color="#D2D2D2"/><stop offset=".367" stop-color="#D1D1D1"/><stop offset=".375" stop-color="#D0D0D0"/><stop offset=".383" stop-color="#CFCFCF"/><stop offset=".391" stop-color="#CECECE"/><stop offset=".398" stop-color="#CDCDCD"/><stop offset=".406" stop-color="#CCC"/><stop offset=".414" stop-color="#CBCBCB"/><stop offset=".422" stop-color="#CACACA"/><stop offset=".43" stop-color="#C9C9C9"/><stop offset=".438" stop-color="#C8C8C8"/><stop offset=".445" stop-color="#C7C7C7"/><stop offset=".453" stop-color="#C6C6C6"/><stop offset=".461" stop-color="#C5C5C5"/><stop offset=".469" stop-color="#C4C4C4"/><stop offset=".477" stop-color="#C3C3C3"/><stop offset=".484" stop-color="#C2C2C2"/><stop offset=".492" stop-color="#C1C1C1"/><stop offset=".5" stop-color="silver"/><stop offset=".508" stop-color="#BFBFBF"/><stop offset=".516" stop-color="#BEBEBE"/><stop offset=".523" stop-color="#BDBDBD"/><stop offset=".531" stop-color="#BCBCBC"/><stop offset=".539" stop-color="#BBB"/><stop offset=".547" stop-color="#BABABA"/><stop offset=".555" stop-color="#B9B9B9"/><stop offset=".563" stop-color="#B8B8B8"/><stop offset=".57" stop-color="#B7B7B7"/><stop offset=".578" stop-color="#B6B6B6"/><stop offset=".586" stop-color="#B5B5B5"/><stop offset=".594" stop-color="#B4B4B4"/><stop offset=".602" stop-color="#B3B3B3"/><stop offset=".609" stop-color="#B2B2B2"/><stop offset=".617" stop-color="#B1B1B1"/><stop offset=".625" stop-color="#B0B0B0"/><stop offset=".633" stop-color="#AFAFAF"/><stop offset=".641" stop-color="#AEAEAE"/><stop offset=".648" stop-color="#ADADAD"/><stop offset=".656" stop-color="#ACACAC"/><stop offset=".664" stop-color="#ABABAB"/><stop offset=".672" stop-color="#AAA"/><stop offset=".68" stop-color="#A9A9A9"/><stop offset=".688" stop-color="#A8A8A8"/><stop offset=".695" stop-color="#A7A7A7"/><stop offset=".703" stop-color="#A6A6A6"/><stop offset=".711" stop-color="#A5A5A5"/><stop offset=".719" stop-color="#A4A4A4"/><stop offset=".727" stop-color="#A3A3A3"/><stop offset=".734" stop-color="#A2A2A2"/><stop offset=".742" stop-color="#A1A1A1"/><stop offset=".75" stop-color="#A0A0A0"/><stop offset=".758" stop-color="#9F9F9F"/><stop offset=".766" stop-color="#9E9E9E"/><stop offset=".773" stop-color="#9D9D9D"/><stop offset=".781" stop-color="#9C9C9C"/><stop offset=".789" stop-color="#9B9B9B"/><stop offset=".797" stop-color="#9A9A9A"/><stop offset=".805" stop-color="#999"/><stop offset=".813" stop-color="#989898"/><stop offset=".82" stop-color="#979797"/><stop offset=".828" stop-color="#969696"/><stop offset=".836" stop-color="#959595"/><stop offset=".844" stop-color="#949494"/><stop offset=".852" stop-color="#939393"/><stop offset=".859" stop-color="#929292"/><stop offset=".867" stop-color="#919191"/><stop offset=".875" stop-color="#909090"/><stop offset=".883" stop-color="#8F8F8F"/><stop offset=".891" stop-color="#8E8E8E"/><stop offset=".898" stop-color="#8D8D8D"/><stop offset=".906" stop-color="#8C8C8C"/><stop offset=".914" stop-color="#8B8B8B"/><stop offset=".922" stop-color="#8A8A8A"/><stop offset=".93" stop-color="#898989"/><stop offset=".938" stop-color="#888"/><stop offset=".945" stop-color="#878787"/><stop offset=".953" stop-color="#868686"/><stop offset=".961" stop-color="#858585"/><stop offset=".969" stop-color="#848484"/><stop offset=".977" stop-color="#838383"/><stop offset=".984" stop-color="#828282"/><stop offset=".992" stop-color="#818181"/><stop offset="1" stop-color="gray"/></linearGradient></defs><g clip-path="url(#a)"><g clip-path="url(#b)"><path fill="url(#c)" d="M1.14 26.293V1.176h57.825v25.117Zm0 0"/></g></g><path fill="none" stroke="#000" stroke-miterlimit="10" stroke-width=".399" d="M1.14 26.293V1.176h52.844l4.98 4.984v20.133ZM53.985 1.176V6.16h4.98-4.98"/><use xlink:href="#d" x="10.186" y="17.137"/><use xlink:href="#e" x="18.784" y="17.137"/><use xlink:href="#f" x="24.034" y="17.137"/><use xlink:href="#g" x="33.578" y="17.137"/><use xlink:href="#h" x="39.147" y="17.137"/><use xlink:href="#i" x="43.87" y="17.137"/><path fill="#D2C92A" d="M82.063 97.484c0-5.347-16.676-9.683-37.243-9.683-20.57 0-37.246 4.336-37.246 9.683 0 5.348 16.676 9.684 37.246 9.684 20.567 0 37.243-4.336 37.243-9.684m0 0"/><g clip-path="url(#j)"><path fill="none" stroke="#000" stroke-miterlimit="10" stroke-width="1.395" d="M82.063 97.484c0-5.347-16.676-9.683-37.243-9.683-20.57 0-37.246 4.336-37.246 9.683 0 5.348 16.676 9.684 37.246 9.684 20.567 0 37.243-4.336 37.243-9.684Zm0 0"/></g><g clip-path="url(#k)"><path fill="none" stroke="#FFF" stroke-miterlimit="10" stroke-width=".598" d="M82.063 97.484c0-5.347-16.676-9.683-37.243-9.683-20.57 0-37.246 4.336-37.246 9.683 0 5.348 16.676 9.684 37.246 9.684 20.567 0 37.243-4.336 37.243-9.684Zm0 0"/></g><use xlink:href="#l" x="21.805" y="100.901"/><use xlink:href="#m" x="30.622" y="100.901"/><use xlink:href="#e" x="35.145" y="100.901"/><use xlink:href="#n" x="44.211" y="100.901"/><use xlink:href="#g" x="52.49" y="100.901"/><use xlink:href="#m" x="58.059" y="100.901"/><use xlink:href="#e" x="62.582" y="100.901"/><path fill="none" stroke="#000" stroke-dasharray="2.98883 2.98883" stroke-miterlimit="10" stroke-width=".399" d="m32.266 26.293 10.812 61.32"/></svg>