<svg xmlns="http://www.w3.org/2000/svg" width="76.363" height="50.924"><defs><clipPath id="a"><path d="M0 0h76.043v50.887H0Zm0 0"/></clipPath><clipPath id="b"><path d="M29 40h14v10.887H29Zm0 0"/></clipPath><clipPath id="c"><path d="M63 18h13.043v15H63Zm0 0"/></clipPath><clipPath id="d"><path d="M0 39h10v11.887H0Zm0 0"/></clipPath><clipPath id="e"><path d="M28 40h16v10.887H28Zm0 0"/></clipPath><clipPath id="f"><path d="M62 17h14.043v17H62Zm0 0"/></clipPath><clipPath id="g"><path d="M62 0h14.043v11H62Zm0 0"/></clipPath><clipPath id="h"><path d="M62 40h14.043v10.887H62Zm0 0"/></clipPath><clipPath id="i"><path d="M0 40h11v10.887H0Zm0 0"/></clipPath></defs><g clip-path="url(#a)"><path fill="none" stroke="#BFBFBF" stroke-miterlimit="10" stroke-width="1.993" d="M32.234 4.168A42.52 42.52 0 0 1 69.06 25.43a42.53 42.53 0 0 1-36.825 21.258H10.973c3.18-6.747 4.816-13.961 4.816-21.239 0-7.273-1.637-14.488-4.816-21.234ZM74.04 25.43c0-1.102-.89-1.996-1.992-1.996a1.994 1.994 0 0 0 0 3.988 1.993 1.993 0 0 0 1.992-1.992ZM3.887 46.688l.367-.645m0 0 .351-.652m0 0 .344-.66m0 0 .332-.665m0 0 .32-.668m0 0 .305-.675m0 0 .297-.68m0 0 .285-.688m0 0 .27-.69m0 0 .262-.692m0 0 .25-.7m0 0 .234-.707m0 0 .223-.707m0 0 .21-.71m0 0 .2-.715m0 0 .183-.72m0 0 .172-.722m0 0 .164-.722m0 0 .145-.727m0 0 .137-.73m0 0 .12-.735m0 0 .114-.73m0 0 .094-.739m0 0 .086-.738m0 0 .07-.738m0 0 .058-.738m0 0 .047-.743m0 0 .032-.742m0 0 .02-.738m0 0 .003-.742m0 0-.004-.742m0 0-.02-.743m0 0-.03-.742m0 0-.048-.742m0 0-.058-.738m0 0-.07-.739m0 0-.086-.738m0 0-.094-.734m0 0-.113-.735m0 0-.121-.734m0 0-.137-.727m0 0-.145-.73m0 0-.164-.723m0 0-.172-.722m0 0-.183-.72m0 0-.2-.714m0 0-.21-.71m0 0-.223-.708m0 0-.234-.703m0 0-.25-.7m0 0-.262-.695m0 0-.27-.691m0 0-.285-.687m0 0-.297-.68m0 0-.304-.676m0 0-.32-.668m0 0-.333-.664m0 0-.344-.66m0 0-.351-.652m0 0-.367-.645"/></g><path fill="none" stroke="#00F" stroke-miterlimit="10" stroke-width=".399" d="M36.773 3.328a.995.995 0 1 0-1.99-.002.995.995 0 0 0 1.99.002Zm0 0"/><g clip-path="url(#b)"><path fill="none" stroke="#00F" stroke-miterlimit="10" stroke-width=".399" d="M36.773 47.531a.995.995 0 1 0-1.99-.001.995.995 0 0 0 1.99.001Zm0 0"/></g><g clip-path="url(#c)"><path fill="none" stroke="#00F" stroke-miterlimit="10" stroke-width=".399" d="M71.203 25.43a.995.995 0 1 0-1.99-.002.995.995 0 0 0 1.99.002Zm0 0"/></g><path fill="none" stroke="#00F" stroke-miterlimit="10" stroke-width=".399" d="M9.582 25.43a.995.995 0 1 0-1.99-.002.995.995 0 0 0 1.99.002ZM54.988 9a1 1 0 0 0-.996-.996.995.995 0 1 0 .996.996ZM54.988 41.855a.995.995 0 1 0-1.99-.001.995.995 0 0 0 1.99.001ZM4.02 4.668c0-.55-.446-1-.997-1a.999.999 0 0 0 0 1.996c.551 0 .997-.45.997-.996Zm0 0"/><g clip-path="url(#d)"><path fill="none" stroke="#00F" stroke-miterlimit="10" stroke-width=".399" d="M4.02 46.191a.995.995 0 1 0-1.991-.001.995.995 0 0 0 1.99.001Zm0 0"/></g><path fill="none" stroke="red" stroke-miterlimit="10" stroke-width=".399" d="M37.77 3.172a1.99 1.99 0 0 0-1.993-1.992 1.99 1.99 0 0 0-1.992 1.992 1.99 1.99 0 0 0 1.992 1.992 1.99 1.99 0 0 0 1.993-1.992Zm0 0"/><g clip-path="url(#e)"><path fill="none" stroke="red" stroke-miterlimit="10" stroke-width=".399" d="M37.77 47.684a1.99 1.99 0 0 0-1.993-1.993 1.99 1.99 0 0 0-1.992 1.993 1.99 1.99 0 0 0 1.992 1.992 1.99 1.99 0 0 0 1.993-1.992Zm0 0"/></g><g clip-path="url(#f)"><path fill="none" stroke="red" stroke-miterlimit="10" stroke-width=".399" d="M72.2 25.43c0-1.102-.891-1.996-1.993-1.996a1.996 1.996 0 0 0-1.992 1.996 1.993 1.993 0 0 0 3.984 0Zm0 0"/></g><path fill="none" stroke="red" stroke-miterlimit="10" stroke-width=".399" d="M4.883 25.43c0-1.102-.89-1.996-1.992-1.996a1.994 1.994 0 0 0 0 3.988 1.993 1.993 0 0 0 1.992-1.992Zm0 0"/><g clip-path="url(#g)"><path fill="none" stroke="red" stroke-miterlimit="10" stroke-width=".399" d="M72.2 3.172a1.993 1.993 0 1 0-3.983.002 1.993 1.993 0 0 0 3.982-.002Zm0 0"/></g><g clip-path="url(#h)"><path fill="none" stroke="red" stroke-miterlimit="10" stroke-width=".399" d="M72.2 47.684a1.993 1.993 0 1 0-3.983.002 1.993 1.993 0 0 0 3.982-.002Zm0 0"/></g><path fill="none" stroke="red" stroke-miterlimit="10" stroke-width=".399" d="M5.016 3.172a1.993 1.993 0 1 0-3.983.002 1.993 1.993 0 0 0 3.983-.002Zm0 0"/><g clip-path="url(#i)"><path fill="none" stroke="red" stroke-miterlimit="10" stroke-width=".399" d="M5.016 47.684a1.993 1.993 0 1 0-3.983.002 1.993 1.993 0 0 0 3.983-.002Zm0 0"/></g></svg>