<svg xmlns="http://www.w3.org/2000/svg" width="303.914" height="50.546"><defs><clipPath id="a"><path d="M0 0h130v50.32H0Zm0 0"/></clipPath><clipPath id="b"><path d="M31 0h184v50.32H31Zm0 0"/></clipPath><clipPath id="c"><path d="M88 0h184v50.32H88Zm0 0"/></clipPath><clipPath id="d"><path d="M159 0h144.871v50.32H159Zm0 0"/></clipPath></defs><path fill="#D2C92A" d="M2.727 32.652 31.074 4.31h28.348"/><g clip-path="url(#a)"><path fill="none" stroke="#000" stroke-miterlimit="10" stroke-width="4.981" d="M2.727 32.652 31.074 4.31h28.348"/></g><path fill="#D2C92A" d="M130.29 32.652c0-7.828-6.349-14.172-14.173-14.172-7.828 0-14.176 6.344-14.176 14.172s6.348 14.176 14.176 14.176c7.824 0 14.172-6.348 14.172-14.176m14.17 0c0-7.828-6.343-14.172-14.17-14.172-7.83 0-14.173 6.344-14.173 14.172s6.344 14.176 14.172 14.176 14.172-6.348 14.172-14.176m0 0"/><g clip-path="url(#b)"><path fill="none" stroke="#000" stroke-miterlimit="10" stroke-width="4.981" d="M130.29 32.652c0-7.828-6.349-14.172-14.173-14.172-7.828 0-14.176 6.344-14.176 14.172s6.348 14.176 14.176 14.176c7.824 0 14.172-6.348 14.172-14.176Zm14.17 0c0-7.828-6.343-14.172-14.17-14.172-7.83 0-14.173 6.344-14.173 14.172s6.344 14.176 14.172 14.176 14.172-6.348 14.172-14.176Zm0 0"/></g><path fill="#D2C92A" fill-rule="evenodd" d="M186.98 32.652c0-7.828-6.343-14.172-14.171-14.172-7.829 0-14.172 6.344-14.172 14.172s6.343 14.176 14.172 14.176c7.828 0 14.171-6.348 14.171-14.176m14.176 0c0-7.828-6.347-14.172-14.176-14.172-7.824 0-14.171 6.344-14.171 14.172s6.347 14.176 14.171 14.176c7.829 0 14.176-6.348 14.176-14.176m0 0"/><g clip-path="url(#c)"><path fill="none" stroke="#000" stroke-miterlimit="10" stroke-width="4.981" d="M186.98 32.652c0-7.828-6.343-14.172-14.171-14.172-7.829 0-14.172 6.344-14.172 14.172s6.343 14.176 14.172 14.176c7.828 0 14.171-6.348 14.171-14.176Zm14.176 0c0-7.828-6.347-14.172-14.176-14.172-7.824 0-14.171 6.344-14.171 14.172s6.347 14.176 14.171 14.176c7.829 0 14.176-6.348 14.176-14.176Zm0 0"/></g><path fill="#D2C92A" d="M229.504 32.652 257.848 4.31l28.347 28.343m14.176 0c0-7.828-6.348-14.172-14.176-14.172s-14.172 6.344-14.172 14.172 6.344 14.176 14.172 14.176 14.176-6.348 14.176-14.176m0 0"/><g clip-path="url(#d)"><path fill="none" stroke="#000" stroke-miterlimit="10" stroke-width="4.981" d="M229.504 32.652 257.848 4.31l28.347 28.343m14.176 0c0-7.828-6.348-14.172-14.176-14.172s-14.172 6.344-14.172 14.172 6.344 14.176 14.172 14.176 14.176-6.348 14.176-14.176Zm0 0"/></g></svg>