<svg xmlns="http://www.w3.org/2000/svg" width="89.145" height="60.788"><path fill="none" stroke="#7F7F7F" stroke-miterlimit="10" stroke-width=".199" d="M2.574 57.688h85.04M2.573 29.34h85.04M2.573 1.004h85.04M2.573 57.688V.992m28.344 56.696V.992m28.348 56.696V.992m28.336 56.696V.992"/><path d="M32.91 57.688a1.993 1.993 0 1 0-3.983.002 1.993 1.993 0 0 0 3.983-.002m-.43-4.922a1.99 1.99 0 0 0-1.992-1.993 1.993 1.993 0 1 0 1.992 1.992m-1.277-4.774a1.993 1.993 0 1 0-3.986.002 1.993 1.993 0 0 0 3.986-.002m-2.09-4.48a1.993 1.993 0 1 0-1.992 1.996 1.994 1.994 0 0 0 1.992-1.996m-2.832-4.047a1.996 1.996 0 0 0-1.992-1.992 1.996 1.996 0 0 0-1.996 1.992 1.994 1.994 0 0 0 3.988 0m-3.496-3.492a1.99 1.99 0 0 0-1.992-1.993 1.99 1.99 0 0 0-1.992 1.993 1.99 1.99 0 0 0 1.992 1.992 1.99 1.99 0 0 0 1.992-1.992m-4.047-2.836a1.993 1.993 0 1 0-3.986.001 1.993 1.993 0 0 0 3.986-.001m-4.476-2.086a1.994 1.994 0 0 0-3.988 0c0 1.097.894 1.992 1.996 1.992a1.996 1.996 0 0 0 1.992-1.992M9.488 29.77a1.993 1.993 0 1 0-3.983.002 1.993 1.993 0 0 0 3.983-.002m-4.922-.43a1.994 1.994 0 0 0-3.988 0 1.994 1.994 0 0 0 3.988 0m0 0"/></svg>