<svg xmlns="http://www.w3.org/2000/svg" xmlns:xlink="http://www.w3.org/1999/xlink" width="87.256" height="58.898"><defs><path id="a" d="m4.047 7.563.406-.22-.5-.952 5.219-2.797.5.953.406-.219a47 47 0 0 1-.875-1.562C9 2.39 8.547 1.53 8.391 1.172l-.407.219.516.953-2.297 1.234L4.687.75 6.985-.484 7.5.469 7.906.25c-.218-.312-.672-1.172-.875-1.547S6.36-2.547 6.22-2.89l-.407.22.5.952-5.218 2.797-.5-.953-.406.219c.203.312.671 1.187.875 1.562s.656 1.235.812 1.578l.406-.218-.515-.953L4.28.968l1.516 2.828L3.28 5.14l-.515-.953-.407.218c.22.328.672 1.188.875 1.563.204.375.672 1.234.813 1.593m0 0"/><path id="b" d="m1.344 2.5.406-.219-.281-.531L5.016-.156l-.891-1.485-.422.22c.281.53.313.577-.031.765L.953.797.625.187l-.406.22.61 1.062Zm5.11-3.266c.39-.203.515-.656.312-1.046a.774.774 0 0 0-1.047-.329.773.773 0 0 0-.313 1.047.765.765 0 0 0 1.047.328m0 0"/><path id="c" d="M6.766-.75c.343-.187.468-.656.265-1.031-.203-.39-.672-.547-1.015-.36-.047.032-.063.047-.141.11L2.922.14c-.203.14-.219.14-.11.343.094.157.126.188.297.11L6.641-.703ZM1.875 1.844A.756.756 0 0 0 2.203.813C2 .422 1.516.297 1.141.484a.777.777 0 0 0-.313 1.063.75.75 0 0 0 1.047.297m0 0"/></defs><path fill="none" stroke="#7F7F7F" stroke-miterlimit="10" stroke-width=".199" d="M.738 57.742h85.04M.737 29.395h85.04M.737 1.059h85.04M.737 57.742V1.047m28.344 56.695V1.047M57.43 57.742V1.047m28.336 56.695V1.047"/><path fill="none" stroke="#000" stroke-miterlimit="10" stroke-width=".399" d="M57.43 29.395C57.43 19.27 46.62 9.91 29.082 4.848"/><use xlink:href="#a" x="48.711" y="16.829"/><use xlink:href="#b" x="52.946" y="24.732"/><use xlink:href="#c" x="54.447" y="27.533"/></svg>