<svg xmlns="http://www.w3.org/2000/svg" width="87.256" height="58.898"><path fill="none" stroke="#7F7F7F" stroke-miterlimit="10" stroke-width=".199" d="M.738 57.742h85.04M.737 29.395h85.04M.737 1.059h85.04M.737 57.742V1.047m28.344 56.695V1.047M57.43 57.742V1.047m28.336 56.695V1.047"/><path d="M72.602 29.395c0-.551-.45-.997-.997-.997a.995.995 0 1 0 .997.997M72.168 26.934a.995.995 0 1 0-1.99-.002.995.995 0 0 0 1.99.002M70.89 24.547a.995.995 0 1 0-1.99-.002.995.995 0 0 0 1.99.002M68.8 22.309a.995.995 0 1 0-1.99-.002.995.995 0 0 0 1.99.002M65.969 20.285a.995.995 0 1 0-1.99-.002.995.995 0 0 0 1.99.002M62.473 18.54a.995.995 0 1 0-1.99-.003.995.995 0 0 0 1.99.002M58.426 17.121a.995.995 0 1 0-1.99-.002.995.995 0 0 0 1.99.002M53.95 16.078a.995.995 0 1 0-1.991-.002.995.995 0 0 0 1.99.002M49.176 15.438a.995.995 0 1 0-1.99-.002.995.995 0 0 0 1.99.002M44.254 15.223a.995.995 0 1 0-1.99-.002.995.995 0 0 0 1.99.002M39.332 15.438a.995.995 0 1 0-1.99-.002.995.995 0 0 0 1.99.002M34.559 16.078a.995.995 0 1 0-1.99-.002.995.995 0 0 0 1.99.002M30.082 17.121a.999.999 0 0 0-1.996 0 .998.998 0 0 0 1.996 0M26.031 18.54a.995.995 0 1 0-1.99-.003.995.995 0 0 0 1.99.002M22.54 20.285a.995.995 0 1 0-1.991-.002.995.995 0 0 0 1.99.002M19.703 22.309a.995.995 0 1 0-1.99-.002.995.995 0 0 0 1.99.002M17.617 24.547a.995.995 0 1 0-1.99-.002.995.995 0 0 0 1.99.002M16.336 26.934a.995.995 0 1 0-1.99-.002.995.995 0 0 0 1.99.002M15.906 29.395a.995.995 0 1 0-1.99-.002.995.995 0 0 0 1.99.002M16.336 31.855a.995.995 0 1 0-1.99-.001.995.995 0 0 0 1.99.001M17.617 34.242a.995.995 0 1 0-1.99-.001.995.995 0 0 0 1.99.001M19.703 36.48a1 1 0 0 0-.996-.996.995.995 0 1 0 .996.996M22.54 38.504a1 1 0 0 0-.997-.996.998.998 0 0 0 0 1.996c.55 0 .996-.45.996-1M26.031 40.254a.995.995 0 1 0-1.99-.002.995.995 0 0 0 1.99.002M30.082 41.668c0-.547-.45-.996-1-.996a1 1 0 0 0-.996.996c0 .55.45 1 .996 1 .55 0 1-.45 1-1M34.559 42.715a.995.995 0 1 0-1.99-.002.995.995 0 0 0 1.99.002M39.332 43.352a1 1 0 0 0-.996-.997.998.998 0 0 0 0 1.997c.55 0 .996-.45.996-1M44.254 43.57a.995.995 0 1 0-1.99-.001.995.995 0 0 0 1.99.001M49.176 43.352a1 1 0 0 0-.996-.997.998.998 0 0 0 0 1.997c.55 0 .996-.45.996-1M53.95 42.715a.995.995 0 1 0-1.991-.002.995.995 0 0 0 1.99.002M58.426 41.668a1 1 0 0 0-.996-.996.998.998 0 0 0 0 1.996c.55 0 .996-.45.996-1M62.473 40.254a.995.995 0 1 0-1.99-.002.995.995 0 0 0 1.99.002M65.969 38.504a1 1 0 0 0-.996-.996.998.998 0 0 0 0 1.996c.55 0 .996-.45.996-1M68.8 36.48a1 1 0 0 0-.995-.996 1 1 0 0 0-.996.996.995.995 0 1 0 1.992 0M70.89 34.242a.995.995 0 1 0-1.99-.001.995.995 0 0 0 1.99.001M72.168 31.855a.995.995 0 1 0-1.99-.001.995.995 0 0 0 1.99.001m0 0"/><path d="M72.602 29.395c0-.551-.45-.997-.997-.997a.995.995 0 1 0 .997.997m0 0"/></svg>