<svg xmlns="http://www.w3.org/2000/svg" width="88.94" height="60.824"><defs><clipPath id="a"><path d="M0 0h88.91v60.734H0Zm0 0"/></clipPath></defs><g fill="none" stroke-miterlimit="10" stroke-width=".399" clip-path="url(#a)"><path stroke="#000" d="m2.754 59.387.687-3.453 6.91 1.382 1.38-6.91 6.91 1.383 1.379-6.906 6.91 1.379 1.379-6.907 6.91 1.383 1.379-6.91 6.91 1.383 1.383-6.906 6.906 1.379 1.383-6.907 6.906 1.383 1.383-6.91 6.906 1.383 1.383-6.906 6.906 1.378L78.047 6.2l6.906 1.383.692-3.457 2.148-1.43"/><path stroke="red" d="m2.406.965.692 3.457M1.023 3.039l3.457-.691m6.215 4.144.692 3.453M9.312 8.566l3.458-.691m6.214 4.145.692 3.453m-2.074-1.383 3.457-.692m6.214 4.145L27.965 21m-2.07-1.383 3.453-.691m6.215 4.144.69 3.453m-2.07-1.378 3.454-.692m6.215 4.145.691 3.453m-2.07-1.383 3.453-.691m6.215 4.144.691 3.457m-2.07-1.383 3.453-.691m6.215 4.144.691 3.454m-2.07-1.38 3.453-.69m6.215 4.144.691 3.453m-2.07-1.383 3.453-.691m6.215 4.144.691 3.457m-2.07-1.383 3.453-.691m6.215 4.145.691 3.453m-2.07-1.38 3.453-.69"/></g></svg>