<svg xmlns="http://www.w3.org/2000/svg" width="94.413" height="67.063"><defs><clipPath id="a"><path d="M78 51h16.121v15.594H78Zm0 0"/></clipPath></defs><path fill="none" stroke="red" stroke-miterlimit="10" stroke-width=".399" d="M5.488 32.664a1.99 1.99 0 0 0-1.992-1.992 1.99 1.99 0 0 0-1.992 1.992 1.99 1.99 0 0 0 1.992 1.992 1.99 1.99 0 0 0 1.992-1.992ZM63.18 4.316a2.988 2.988 0 1 0-5.977 0 2.988 2.988 0 0 0 5.977 0Zm0 0"/><path fill="none" stroke="#000" stroke-miterlimit="10" stroke-width=".399" d="M1.305 34.855V1.13h62.074v33.726Zm0 0"/><g clip-path="url(#a)"><path fill="none" stroke="red" stroke-miterlimit="10" stroke-width=".399" d="M92.523 61.012a3.984 3.984 0 0 0-3.988-3.985 3.984 3.984 0 1 0 0 7.97 3.987 3.987 0 0 0 3.988-3.985Zm0 0"/></g><path fill="none" stroke="#000" stroke-miterlimit="10" stroke-width=".797" d="M1.105 65.195V.93h91.618v64.265Zm0 0"/></svg>