<svg xmlns="http://www.w3.org/2000/svg" width="89.156" height="80.161"><path fill="none" stroke="#7F7F7F" stroke-miterlimit="10" stroke-width=".199" d="M30.934 43.11h56.695M30.934 14.761h56.695M30.934 43.109V.59M59.28 43.11V.59m28.336 42.52V.59"/><path fill="none" stroke="#000" stroke-miterlimit="10" stroke-width=".399" d="M2.59 78.543H59.28V7.676H2.59Zm0 0"/><path d="M37.91 38.129a1.993 1.993 0 1 0-3.986.002 1.993 1.993 0 0 0 3.986-.002m-14.945 0a1.99 1.99 0 0 0-1.992-1.992 1.99 1.99 0 0 0-1.993 1.992 1.99 1.99 0 0 0 1.993 1.992 1.99 1.99 0 0 0 1.992-1.992m0 0"/><path fill="red" d="M61.273 14.762a1.993 1.993 0 1 0-3.986.001 1.993 1.993 0 0 0 3.986-.001M4.582 28.938a1.994 1.994 0 0 0-3.988 0 1.994 1.994 0 0 0 3.988 0m0 0"/></svg>