<svg xmlns="http://www.w3.org/2000/svg" width="295.829" height="59.082"><path fill="#009" stroke="#00F" stroke-miterlimit="10" stroke-width=".399" d="M1.113 29.086h9.965Zm14.922 0h9.961V14.848h-9.96Zm14.918 0h9.961V4.46h-9.96Zm14.918 0h9.965V.738H45.87Zm14.922 0h9.96V4.69h-9.96Zm14.918 0h9.96v-13.84h-9.96Zm14.918 0h9.965v.46h-9.965Zm14.922 0h9.96v14.637h-9.96Zm14.918 0h9.965v24.852h-9.965Zm14.918 0h9.965v28.34h-9.965Zm14.922 0h9.96v24.156h-9.96Zm14.918 0h9.964V42.52h-9.964Zm14.921 0h9.961v-.922h-9.96Zm14.918 0h9.961V14.055h-9.96Zm14.918 0h9.965V4.016h-9.965Zm14.922 0h9.961V.762h-9.96Zm14.918 0h9.961V5.176h-9.96Zm14.918 0h9.965V16.063h-9.965Zm14.922 0h9.961v1.387h-9.96Zm14.918 0h9.965v15.422h-9.965Zm0 0"/></svg>