<svg xmlns="http://www.w3.org/2000/svg" xmlns:xlink="http://www.w3.org/1999/xlink" width="230.6" height="117.131"><defs><path id="a" d="M3.89-2.547c0-.844-.078-1.36-.343-1.875-.344-.703-1-.875-1.438-.875-1 0-1.375.75-1.484.969C.344-3.75.328-2.953.328-2.547c0 .531.016 1.328.406 1.969.36.594.954.75 1.375.75.391 0 1.063-.125 1.47-.906.296-.578.312-1.297.312-1.813M2.11-.062c-.266 0-.813-.125-.985-.954-.094-.453-.094-1.203-.094-1.625 0-.546 0-1.109.094-1.546.172-.813.781-.891.984-.891.266 0 .829.14.985.86.094.437.094 1.046.094 1.577 0 .47 0 1.188-.094 1.641-.172.828-.719.938-.985.938m0 0"/><path id="d" d="M2.5-5.078c0-.219-.016-.219-.234-.219-.328.313-.75.5-1.5.5v.266c.218 0 .64 0 1.109-.203v4.078c0 .297-.031.39-.781.39H.812V0c.329-.031 1.016-.031 1.376-.031s1.046 0 1.374.031v-.266h-.28c-.75 0-.782-.093-.782-.39Zm0 0"/><path id="e" d="M2.25-1.625c.125-.125.453-.39.594-.5.484-.453.953-.89.953-1.61 0-.953-.797-1.562-1.781-1.562-.97 0-1.594.719-1.594 1.438 0 .39.312.437.422.437.172 0 .422-.11.422-.422 0-.406-.407-.406-.5-.406.234-.594.765-.781 1.156-.781.734 0 1.125.625 1.125 1.297 0 .828-.578 1.437-1.531 2.39l-1 1.047C.422-.219.422-.203.422 0h3.14l.235-1.422h-.25c-.016.156-.078.547-.172.703-.047.063-.656.063-.781.063H1.172Zm0 0"/><path id="f" d="M2.016-2.656c.625 0 1.03.453 1.03 1.297 0 1-.562 1.28-.983 1.28-.438 0-1.047-.155-1.329-.577.297 0 .5-.188.5-.438 0-.265-.187-.437-.453-.437-.203 0-.437.125-.437.453 0 .75.812 1.25 1.734 1.25 1.047 0 1.797-.734 1.797-1.531 0-.672-.531-1.266-1.344-1.453.625-.22 1.11-.75 1.11-1.391 0-.64-.72-1.094-1.547-1.094-.86 0-1.5.453-1.5 1.063 0 .297.187.422.406.422.25 0 .406-.172.406-.407 0-.297-.265-.406-.437-.406.344-.437.953-.469 1.094-.469.203 0 .812.063.812.89 0 .548-.234.891-.344 1.016-.234.25-.422.266-.906.297-.156 0-.219.016-.219.125 0 .11.078.11.219.11Zm0 0"/><path id="g" d="M3.14-5.156c0-.157 0-.219-.171-.219-.094 0-.11 0-.188.11L.234-1.564v.25h2.25v.672c0 .297-.015.375-.64.375h-.172V0c.672-.031.687-.031 1.14-.031.454 0 .47 0 1.141.031v-.266h-.172c-.625 0-.64-.078-.64-.375v-.671h.843v-.25h-.843Zm-.593.64v2.954H.516Zm0 0"/><path id="h" d="M1.11-4.484c.109.03.421.125.765.125 1 0 1.594-.703 1.594-.828 0-.094-.047-.11-.094-.11-.016 0-.031 0-.094.031a3 3 0 0 1-1.11.22c-.468 0-.858-.11-1.108-.22-.079-.03-.094-.03-.11-.03-.094 0-.094.077-.094.234v2.328c0 .14 0 .234.125.234.063 0 .079-.031.125-.094.094-.11.391-.515 1.079-.515.437 0 .656.359.734.515.125.281.14.656.14.953s0 .735-.218 1.079c-.156.25-.485.484-.906.484A1.27 1.27 0 0 1 .734-.922c.016.016.079.016.079.016.218 0 .406-.14.406-.39a.39.39 0 0 0-.39-.407c-.157 0-.407.078-.407.422 0 .718.625 1.453 1.531 1.453 1 0 1.844-.781 1.844-1.766 0-.922-.672-1.75-1.61-1.75-.39 0-.765.125-1.078.406Zm0 0"/><path id="i" d="M1.094-2.64c0-.657.062-1.235.343-1.72.25-.406.657-.734 1.157-.734.156 0 .515.032.703.297-.36.031-.39.297-.39.375 0 .25.187.375.374.375.14 0 .375-.078.375-.39 0-.47-.36-.86-1.078-.86C1.468-5.297.344-4.25.344-2.53.344-.36 1.359.172 2.125.172c.39 0 .797-.11 1.156-.453.328-.313.594-.64.594-1.344 0-1.031-.797-1.766-1.672-1.766-.578 0-.922.36-1.11.75M2.125-.079a.88.88 0 0 1-.797-.516c-.187-.36-.203-.89-.203-1.203 0-.781.422-1.375 1.047-1.375.39 0 .64.203.781.485.172.296.172.656.172 1.062s0 .75-.156 1.047c-.219.36-.485.5-.844.5m0 0"/><path id="o" d="M4.031-4.86c.078-.077.078-.093.078-.265H2.08a9 9 0 0 1-.642-.031c-.421-.032-.421-.11-.453-.235h-.25L.47-3.703h.25c.015-.125.11-.672.219-.735.078-.046.687-.046.796-.046h1.688l-.813 1.109C1.703-2.172 1.5-.906 1.5-.281c0 .078 0 .453.375.453s.375-.36.375-.453v-.39c0-1.141.203-2.079.594-2.61Zm0 0"/><path id="b" d="M1.594-1.312c.031-.11.11-.422.125-.532.031-.078.078-.281.093-.36.016-.03.282-.546.626-.812.265-.218.53-.28.765-.28.281 0 .453.187.453.546 0 .188-.047.375-.14.734a17 17 0 0 0-.235.954l-.125.484a2.3 2.3 0 0 0-.094.406c0 .188.157.25.25.25.141 0 .266-.094.329-.187.015-.047.078-.328.125-.485l.172-.718c.03-.11.109-.422.14-.532.11-.437.11-.437.281-.703.266-.39.641-.75 1.172-.75.297 0 .469.172.469.547 0 .438-.344 1.36-.5 1.734-.078.204-.094.266-.094.422 0 .453.375.672.719.672.781 0 1.11-1.11 1.11-1.219 0-.078-.079-.109-.126-.109-.093 0-.109.063-.14.14-.188.657-.516.97-.828.97-.125 0-.188-.079-.188-.266 0-.188.063-.36.14-.563.126-.297.47-1.219.47-1.656 0-.61-.407-.89-.985-.89-.547 0-1 .28-1.36.78-.062-.64-.577-.78-.984-.78-.375 0-.859.124-1.296.703-.063-.485-.438-.704-.813-.704-.281 0-.484.172-.61.438a2.9 2.9 0 0 0-.28.781c0 .078.062.11.124.11.11 0 .11-.032.172-.25.094-.391.235-.86.563-.86.218 0 .265.203.265.375 0 .156-.046.297-.109.563-.016.062-.14.53-.172.64L.781-.516C.75-.39.703-.203.703-.172c0 .188.156.25.266.25.14 0 .265-.094.312-.187.032-.047.094-.328.125-.485Zm0 0"/><path id="c" d="M3.219-3c-.188.031-.36.172-.36.375 0 .14.094.25.266.25.125 0 .375-.094.375-.453 0-.485-.516-.688-1.016-.688-1.062 0-1.406.766-1.406 1.172 0 .078 0 .36.297.578.188.141.328.172.734.25.282.063.735.141.735.547 0 .219-.156.469-.375.625-.297.188-.688.203-.813.203C1.47-.14.922-.17.72-.5a.45.45 0 0 0 .469-.437c0-.235-.22-.297-.313-.297-.125 0-.453.109-.453.547 0 .468.5.765 1.234.765 1.39 0 1.688-.984 1.688-1.312 0-.72-.781-.875-1.078-.922-.391-.078-.703-.125-.703-.469 0-.14.14-.672.921-.672.297 0 .61.094.735.297m0 0"/><path id="j" d="M3.703-5.64c.047-.11.047-.126.047-.157 0-.094-.078-.172-.187-.172-.126 0-.157.094-.188.172L.515 1.656c-.046.11-.046.125-.046.157 0 .093.078.171.187.171.125 0 .156-.093.188-.171Zm0 0"/><path id="k" d="M1.625-.437a.463.463 0 0 0-.453-.454.447.447 0 0 0-.438.438.44.44 0 0 0 .438.453.45.45 0 0 0 .453-.437m0 0"/><path id="l" d="M1.625-1.984a.453.453 0 0 0-.453-.453A.437.437 0 0 0 .734-2a.45.45 0 0 0 .438.453c.25 0 .453-.219.453-.437m0 0"/><path id="m" d="M4.766-1.344c.093 0 .25 0 .25-.156s-.157-.156-.25-.156H1c-.11 0-.25 0-.25.156s.14.156.25.156Zm0 0"/><path id="n" d="M1.766-1.984c.5 0 .843.343.843.953 0 .656-.39.937-.828.937C1.61-.094 1-.125.734-.469c.235-.031.329-.187.329-.343a.33.33 0 0 0-.344-.344.34.34 0 0 0-.344.36c0 .593.656.921 1.422.921.89 0 1.469-.562 1.469-1.156 0-.438-.328-.907-1.047-1.078.484-.157.86-.547.86-1.032 0-.484-.563-.843-1.282-.843-.703 0-1.234.328-1.234.812 0 .266.203.328.328.328.156 0 .312-.094.312-.312 0-.188-.125-.297-.297-.313.282-.312.828-.312.89-.312.298 0 .688.14.688.64 0 .329-.187.907-.796.938-.11 0-.266.015-.313.015-.062.016-.125.016-.125.11s.063.094.156.094Zm0 0"/><path id="p" d="M3.219-1.125H3c-.016.094-.078.484-.156.547-.047.047-.531.047-.625.047h-1.11l.766-.625c.203-.172.734-.547.922-.735.172-.171.422-.484.422-.906 0-.75-.672-1.187-1.485-1.187-.765 0-1.296.515-1.296 1.078 0 .297.25.344.312.344a.32.32 0 0 0 .328-.329c0-.125-.078-.328-.344-.328.141-.297.5-.531.922-.531.625 0 .953.469.953.953 0 .422-.28.86-.687 1.25L.5-.25C.438-.187.438-.187.438 0H3.03Zm0 0"/><path id="q" d="M4.563-1.047c0-.172-.172-.172-.235-.172-.156 0-.172.047-.234.172-.203.469-.75.719-1.313.719-1.281 0-1.297-1.156-1.297-1.594h2.782c.187 0 .297 0 .297-.25 0-.203-.016-1-.594-1.484-.406-.328-.953-.406-1.39-.406-1.532 0-2.282.968-2.282 2.046 0 1.172.89 2.063 2.406 2.063 1.485 0 1.86-.938 1.86-1.094M3.688-2.25H1.483c.016-.406.063-1.453 1.094-1.453 1.047 0 1.094 1.094 1.11 1.453m0 0"/><path id="r" d="M2.688 0v-.437h-.61V-6.22l-1.61.063v.437c.532 0 .61 0 .61.36v4.922h-.61V0l1.095-.031Zm0 0"/><path id="s" d="M5.11-.219c0-.218-.157-.218-.235-.218-.578-.016-.578-.094-.578-.313v-1.922c0-.797-.64-1.39-2.031-1.39-.5 0-1.657.015-1.657.843 0 .406.313.594.579.594.312 0 .593-.219.593-.578 0-.266-.156-.422-.187-.453.093-.016.312-.047.64-.047.641 0 1.016.328 1.016 1.031v.281C1.766-2.39.25-2 .25-1 .25-.11 1.375.047 2.016.047c.687 0 1.156-.281 1.39-.703 0 .219 0 .656.969.656h.438c.171 0 .296 0 .296-.219M3.25-1.25c0 .938-1.047.938-1.078.938-.453 0-.828-.282-.828-.688 0-.297.156-1 1.906-1.078Zm0 0"/><path id="t" d="M5.531-1.984c0-1.188-.812-2.047-2.172-2.047-.718 0-1.218.297-1.39.422v-.422L.375-3.97v.438c.172 0 .313 0 .438.031.171.031.171.125.171.313v4.484H.375v.437L1.5 1.72l1.14.015v-.437h-.609v-1.64c.531.39 1.016.39 1.188.39 1.406 0 2.312-.844 2.312-2.031M4.344-2c0 1.25-.64 1.688-1.235 1.688-.453 0-.843-.25-1.078-.625v-2.157a1.55 1.55 0 0 1 1.188-.562c.625 0 1.125.562 1.125 1.656m0 0"/><path id="u" d="M3.828-1.25c0-.469-.265-.75-.422-.89-.406-.329-.687-.376-1.39-.5-.438-.063-1-.157-1-.563 0-.531.828-.531 1.03-.531 1 0 1.032.53 1.063.765 0 .125.125.125.22.125.218 0 .233-.047.233-.265v-.688c0-.172 0-.265-.187-.265-.078 0-.234.078-.39.156-.282-.125-.641-.156-.938-.156-.266 0-1.703 0-1.703 1.187 0 .938 1.187 1.14 1.5 1.188.734.125 1.328.218 1.328.734 0 .64-.844.64-1.047.64-.453 0-1.047-.109-1.297-.937-.047-.156-.062-.172-.25-.172-.234 0-.234.047-.234.266v.953c0 .156 0 .25.187.25.063 0 .078 0 .282-.125l.234-.14c.422.265.906.265 1.078.265.266 0 1.703 0 1.703-1.297m0 0"/><path id="v" d="M5.516 0v-.437c-.532 0-.61 0-.61-.36v-5.422l-1.61.063v.437c.548 0 .61 0 .61.36v1.734a2 2 0 0 0-1.25-.406c-1.453 0-2.312.89-2.312 2.047 0 1.187.844 2.03 2.219 2.03.562 0 1-.202 1.296-.437v.438ZM3.859-.984a1.43 1.43 0 0 1-1.203.672c-1.11 0-1.11-1.063-1.11-1.657 0-.531 0-.906.235-1.234.235-.36.672-.469.985-.469.437 0 .812.188 1.093.547Zm0 0"/><path id="w" d="M3.531-1.11v-.468h-.469v.453c0 .625-.312.797-.546.797C2-.328 2-.875 2-1.078v-2.469h1.36v-.437H2v-1.703h-.453c-.016.828-.438 1.765-1.344 1.78v.36h.75v2.438c0 1.03.89 1.156 1.438 1.156.703 0 1.14-.5 1.14-1.156m0 0"/><path id="x" d="M2.625 0v-.437h-.547v-3.594L.5-3.97v.438c.516 0 .578 0 .578.36v2.734h-.61V0c.595-.016.72-.031 1.095-.031.437 0 .546.015 1.062.031m-.453-5.422a.713.713 0 0 0-.703-.719.71.71 0 0 0-.703.704.7.7 0 0 0 .703.703.697.697 0 0 0 .703-.688m0 0"/><path id="y" d="M8.594 0v-.437h-.61v-2.297c0-1.063-.625-1.297-1.421-1.297-.938 0-1.391.562-1.563.843C4.813-4 4.016-4.03 3.625-4.03c-1.11 0-1.547.797-1.61.937H2v-.937L.453-3.97v.438c.531 0 .61 0 .61.36v2.734h-.61V0l1.125-.031L2.718 0v-.437H2.11v-1.844c0-1 .829-1.39 1.36-1.39.344 0 .531.171.531.858v2.376h-.61V0l1.126-.031L5.656 0v-.437h-.61v-1.844c0-1 .829-1.39 1.36-1.39.344 0 .532.171.532.858v2.376h-.61V0l1.14-.031Zm0 0"/><path id="z" d="M-1.25-3.828c-.469 0-.75.265-.89.422-.329.406-.376.687-.5 1.39-.063.438-.157 1-.563 1-.531 0-.531-.828-.531-1.03 0-1 .53-1.032.765-1.063.125 0 .125-.125.125-.22 0-.218-.047-.233-.265-.233h-.688c-.172 0-.265 0-.265.187 0 .078.078.234.156.39-.125.282-.156.641-.156.938 0 .266 0 1.703 1.187 1.703.938 0 1.14-1.187 1.188-1.5.125-.734.218-1.328.734-1.328.64 0 .64.844.64 1.047 0 .453-.109 1.047-.937 1.297-.156.047-.172.062-.172.25 0 .234.047.234.266.234h.953c.156 0 .25 0 .25-.187 0-.063 0-.078-.125-.281l-.14-.235c.265-.422.265-.906.265-1.078 0-.266 0-1.703-1.297-1.703m0 0"/><path id="A" d="M-1.984-5.531c-1.188 0-2.047.812-2.047 2.172 0 .718.297 1.218.422 1.39h-.422l.062 1.594h.438c0-.172 0-.312.031-.437.031-.172.125-.172.313-.172h4.484v.609h.437L1.72-1.5l.015-1.14h-.437v.609h-1.64c.39-.531.39-1.016.39-1.188 0-1.406-.844-2.312-2.031-2.312M-2-4.344c1.25 0 1.688.64 1.688 1.235 0 .453-.25.843-.625 1.078h-2.157a1.55 1.55 0 0 1-.562-1.188c0-.625.562-1.125 1.656-1.125m0 0"/><path id="B" d="M-1.047-4.562c-.172 0-.172.171-.172.234 0 .156.047.172.172.234.469.203.719.75.719 1.313 0 1.281-1.156 1.297-1.594 1.297v-2.782c0-.187 0-.296-.25-.296-.203 0-1 .015-1.484.593-.328.406-.406.953-.406 1.39 0 1.532.968 2.282 2.046 2.282 1.172 0 2.063-.89 2.063-2.406 0-1.485-.938-1.86-1.094-1.86m-1.203.875v2.203c-.406-.016-1.453-.063-1.453-1.094 0-1.047 1.094-1.094 1.453-1.11m0 0"/><path id="C" d="M0-5.516h-.437c0 .532 0 .61-.36.61h-5.422l.063 1.61h.437c0-.548 0-.61.36-.61h1.734c-.297.39-.406.812-.406 1.25 0 1.453.89 2.312 2.047 2.312 1.187 0 2.03-.843 2.03-2.218 0-.563-.202-1-.437-1.297h.438Zm-.984 1.657c.328.203.672.625.672 1.203 0 1.11-1.063 1.11-1.657 1.11-.531 0-.906 0-1.234-.235-.36-.235-.469-.672-.469-.985 0-.437.188-.812.547-1.093Zm0 0"/><path id="D" d="M-1.953-5c-1.172 0-2.11.828-2.11 2.344 0 1.578.985 2.36 2.11 2.36 1.11 0 2-.813 2-2.345C.047-4.25-.891-5-1.953-5m-.094 1.188c.766 0 1.719 0 1.719 1.156 0 1.172-.953 1.172-1.719 1.172-.765 0-1.656 0-1.656-1.157 0-1.171.89-1.171 1.656-1.171m0 0"/><path id="E" d="M-5.484-4.047c-.407 0-.797.36-.797 1.047 0 .953.406 1.922 1.406 1.922h.89v.687h.438v-.687h3.11v.61H0l-.031-1.157c0-.219 0-.75.031-1.219h-.437v.766h-3.11v-1.063h-.437v1.11h-.891c-.969 0-1.047-.688-1.047-.922 0-.031.016-.11.016-.11s.015 0 .047.016a.56.56 0 0 0 .375.14.563.563 0 0 0 .578-.562.567.567 0 0 0-.578-.578m0 0"/><path id="F" d="M0-2.625h-.437v.547h-3.594L-3.97-.5h.438c0-.516 0-.578.36-.578h2.734v.61H0c-.016-.594-.031-.72-.031-1.094 0-.438.015-.547.031-1.063m-5.422.453a.713.713 0 0 0-.719.703.71.71 0 0 0 .704.703.7.7 0 0 0 .703-.703.697.697 0 0 0-.688-.703m0 0"/><path id="G" d="M-1.047-4.406c-.14 0-.14.125-.14.234 0 .172.015.172.171.25.438.172.688.578.688 1.11 0 1.265-1.297 1.265-1.703 1.265-.531 0-1.64 0-1.64-1.172 0-.078 0-.562.046-.562l.047.031a.6.6 0 0 0 .375.125c.36 0 .578-.281.578-.594a.57.57 0 0 0-.594-.578c-.844 0-.844 1.25-.844 1.61 0 1.718 1.094 2.343 2.079 2.343 1.125 0 2.03-.812 2.03-2.297 0-.343-.046-.78-.28-1.156-.313-.515-.782-.61-.813-.61m0 0"/></defs><path fill="none" stroke="#BFBFBF" stroke-miterlimit="10" stroke-width=".399" d="M79.57 88.441V.848M103.191 88.441V.848M126.813 88.441V.848M150.434 88.441V.848M174.055 88.441V.848M197.676 88.441V.848M221.3 88.441V.848M79.57 88.441h141.735M79.57 72.219h141.735M79.57 56h141.735M79.57 39.777h141.735M79.57 23.559h141.735M79.57 7.336h141.735"/><path fill="none" stroke="#7F7F7F" stroke-linecap="round" stroke-miterlimit="10" stroke-width=".399" d="M79.57 95.414v-1.992M103.191 95.414v-1.992M126.813 95.414v-1.992M150.434 95.414v-1.992M174.055 95.414v-1.992M197.676 95.414v-1.992M221.3 95.414v-1.992M72.594 88.441h1.992M72.594 72.219h1.992M72.594 56h1.992M72.594 39.777h1.992M72.594 23.559h1.992M72.594 7.336h1.992"/><path fill="none" stroke="#7F7F7F" stroke-miterlimit="10" stroke-width=".399" d="M79.57 93.422h141.735"/><path fill="none" stroke="#BFBFBF" stroke-linecap="square" stroke-miterlimit="10" stroke-width=".399" d="M79.57 88.441h141.735M79.57.848h141.735"/><path fill="none" stroke="#7F7F7F" stroke-miterlimit="10" stroke-width=".399" d="M74.586 88.441V.848"/><path fill="none" stroke="#BFBFBF" stroke-linecap="square" stroke-miterlimit="10" stroke-width=".399" d="M79.57 88.441V.848M221.305 88.441V.848"/><path fill="none" stroke="#000" stroke-miterlimit="10" stroke-width=".598" d="m79.57 88.441 47.243-12.976 23.62-12.977 23.622 3.242 23.62-32.44L221.302.847"/><use xlink:href="#a" x="71.043" y="103.206"/><use xlink:href="#b" x="76.688" y="103.206"/><use xlink:href="#c" x="84.178" y="103.206"/><use xlink:href="#d" x="94.664" y="103.206"/><use xlink:href="#b" x="100.31" y="103.206"/><use xlink:href="#c" x="107.8" y="103.206"/><use xlink:href="#e" x="118.286" y="103.206"/><use xlink:href="#b" x="123.931" y="103.206"/><use xlink:href="#c" x="131.421" y="103.206"/><use xlink:href="#f" x="141.907" y="103.206"/><use xlink:href="#b" x="147.553" y="103.206"/><use xlink:href="#c" x="155.043" y="103.206"/><use xlink:href="#g" x="165.529" y="103.206"/><use xlink:href="#b" x="171.174" y="103.206"/><use xlink:href="#c" x="178.664" y="103.206"/><use xlink:href="#h" x="189.15" y="103.206"/><use xlink:href="#b" x="194.796" y="103.206"/><use xlink:href="#c" x="202.286" y="103.206"/><use xlink:href="#i" x="212.771" y="103.206"/><use xlink:href="#b" x="218.417" y="103.206"/><use xlink:href="#c" x="225.907" y="103.206"/><use xlink:href="#a" x="48.653" y="90.431"/><use xlink:href="#b" x="54.298" y="90.431"/><use xlink:href="#j" x="61.788" y="90.431"/><use xlink:href="#c" x="66.023" y="90.431"/><use xlink:href="#e" x="17.575" y="74.555"/><use xlink:href="#k" x="21.809" y="74.555"/><use xlink:href="#h" x="24.161" y="74.555"/><use xlink:href="#l" x="30.277" y="74.555"/><use xlink:href="#d" x="34.511" y="74.555"/><use xlink:href="#a" x="38.746" y="74.555"/><use xlink:href="#m" x="42.98" y="71.743"/><use xlink:href="#n" x="48.736" y="71.743"/><use xlink:href="#b" x="54.298" y="74.555"/><use xlink:href="#j" x="61.788" y="74.555"/><use xlink:href="#c" x="66.023" y="74.555"/><use xlink:href="#h" x="24.161" y="58.334"/><use xlink:href="#l" x="30.277" y="58.334"/><use xlink:href="#d" x="34.511" y="58.334"/><use xlink:href="#a" x="38.746" y="58.334"/><use xlink:href="#m" x="42.98" y="55.523"/><use xlink:href="#n" x="48.736" y="55.523"/><use xlink:href="#b" x="54.298" y="58.334"/><use xlink:href="#j" x="61.788" y="58.334"/><use xlink:href="#c" x="66.023" y="58.334"/><use xlink:href="#o" x="17.575" y="42.114"/><use xlink:href="#k" x="21.809" y="42.114"/><use xlink:href="#h" x="24.161" y="42.114"/><use xlink:href="#l" x="30.277" y="42.114"/><use xlink:href="#d" x="34.511" y="42.114"/><use xlink:href="#a" x="38.746" y="42.114"/><use xlink:href="#m" x="42.98" y="39.301"/><use xlink:href="#n" x="48.736" y="39.301"/><use xlink:href="#b" x="54.298" y="42.114"/><use xlink:href="#j" x="61.788" y="42.114"/><use xlink:href="#c" x="66.023" y="42.114"/><use xlink:href="#d" x="24.161" y="25.895"/><use xlink:href="#l" x="30.277" y="25.895"/><use xlink:href="#d" x="34.511" y="25.895"/><use xlink:href="#a" x="38.746" y="25.895"/><use xlink:href="#m" x="42.98" y="23.081"/><use xlink:href="#p" x="48.736" y="23.081"/><use xlink:href="#b" x="54.298" y="25.895"/><use xlink:href="#j" x="61.788" y="25.895"/><use xlink:href="#c" x="66.023" y="25.895"/><use xlink:href="#d" x="13.34" y="9.674"/><use xlink:href="#k" x="17.575" y="9.674"/><use xlink:href="#e" x="19.927" y="9.674"/><use xlink:href="#h" x="24.162" y="9.674"/><use xlink:href="#l" x="30.277" y="9.674"/><use xlink:href="#d" x="34.511" y="9.674"/><use xlink:href="#a" x="38.746" y="9.674"/><use xlink:href="#m" x="42.98" y="6.861"/><use xlink:href="#p" x="48.736" y="6.861"/><use xlink:href="#b" x="54.298" y="9.674"/><use xlink:href="#j" x="61.788" y="9.674"/><use xlink:href="#c" x="66.023" y="9.674"/><use xlink:href="#q" x="121.37" y="113.945"/><use xlink:href="#r" x="126.239" y="113.945"/><use xlink:href="#s" x="129.189" y="113.945"/><use xlink:href="#t" x="134.344" y="113.945"/><use xlink:href="#u" x="140.235" y="113.945"/><use xlink:href="#q" x="144.423" y="113.945"/><use xlink:href="#v" x="149.291" y="113.945"/><use xlink:href="#w" x="158.715" y="113.945"/><use xlink:href="#x" x="162.84" y="113.945"/><use xlink:href="#y" x="165.789" y="113.945"/><use xlink:href="#q" x="174.63" y="113.945"/><use xlink:href="#z" x="7.085" y="74.328"/><use xlink:href="#A" x="7.085" y="70.14"/><use xlink:href="#B" x="7.085" y="63.953"/><use xlink:href="#B" x="7.085" y="59.085"/><use xlink:href="#C" x="7.085" y="54.216"/><use xlink:href="#D" x="7.085" y="44.792"/><use xlink:href="#E" x="7.085" y="39.484"/><use xlink:href="#C" x="7.085" y="32.706"/><use xlink:href="#F" x="7.085" y="26.815"/><use xlink:href="#z" x="7.085" y="23.865"/><use xlink:href="#G" x="7.085" y="19.677"/></svg>