<svg xmlns="http://www.w3.org/2000/svg" xmlns:xlink="http://www.w3.org/1999/xlink" width="107.444" height="118.784"><defs><clipPath id="a"><path d="M33 85h41v33.676H33Zm0 0"/></clipPath><path id="b" d="M5.156-2.219h-.468c-.032.203-.125.844-.266.906-.11.063-.86.063-1.016.063H1.937c.47-.39 1-.812 1.438-1.14 1.14-.844 1.781-1.313 1.781-2.25 0-1.157-1.047-1.891-2.437-1.891-1.219 0-2.156.625-2.156 1.515 0 .594.484.735.718.735C1.61-4.281 2-4.5 2-5c0-.516-.422-.672-.562-.719.28-.234.671-.343 1.03-.343.845 0 1.313.671 1.313 1.421 0 .688-.375 1.375-1.078 2.079l-2 2.046c-.14.11-.14.141-.14.344V0h4.28Zm0 0"/></defs><path fill="#B2B2B2" d="M.738 117.66h105.414V.91H.738Zm0 0"/><path fill="#CCF" stroke="#7F7FFF" stroke-miterlimit="10" stroke-width=".797" d="M61.95 13.133a8.506 8.506 0 0 0-8.505-8.504 8.506 8.506 0 0 0-8.504 8.504 8.506 8.506 0 0 0 8.504 8.504 8.506 8.506 0 0 0 8.504-8.504ZM61.95 59.285a8.506 8.506 0 0 0-8.505-8.504 8.506 8.506 0 0 0-8.504 8.504 8.506 8.506 0 0 0 8.504 8.504 8.506 8.506 0 0 0 8.504-8.504Zm0 0"/><path fill="#CCF" d="M61.95 105.438c0-4.7-3.81-8.504-8.505-8.504a8.503 8.503 0 0 0-8.504 8.504 8.506 8.506 0 0 0 8.504 8.503 8.506 8.506 0 0 0 8.504-8.504m0 0"/><g clip-path="url(#a)"><path fill="none" stroke="#7F7FFF" stroke-miterlimit="10" stroke-width=".797" d="M61.95 105.438c0-4.7-3.81-8.504-8.505-8.504a8.503 8.503 0 0 0-8.504 8.504 8.506 8.506 0 0 0 8.504 8.503 8.506 8.506 0 0 0 8.504-8.504Zm0 0"/></g><path fill="#CCC" stroke="#7F7F7F" stroke-miterlimit="10" stroke-width=".797" d="M91.094 64.953h11.336V53.617H91.094Zm0 0"/><path fill="none" stroke="#000" stroke-miterlimit="10" stroke-width=".598" d="M86.664 59.285H62.348"/><path stroke="#000" stroke-linejoin="round" stroke-miterlimit="10" stroke-width=".598" d="m89.398 59.285-3.863-1.457 1.278 1.457-1.278 1.457Zm0 0"/><path fill="none" stroke="#000" stroke-miterlimit="10" stroke-width=".598" d="M96.953 53.219c1.344-19.262-12.031-36.016-30.61-39.313"/><path stroke="#000" stroke-linejoin="round" stroke-miterlimit="10" stroke-width=".59798206" d="m63.633 13.54 3.62 1.976-1.058-1.621 1.465-1.266Zm0 0"/><use xlink:href="#b" x="91.539" y="22.504"/><path fill="none" stroke="#000" stroke-miterlimit="10" stroke-width=".598" d="M97.023 69.383c-.683 18.855-15.418 34.43-34.68 35.773"/><path stroke="#000" stroke-linejoin="round" stroke-miterlimit="10" stroke-width=".5979880399999999" d="m97.012 66.648-1.457 3.864 1.457-1.278 1.46 1.274Zm0 0"/><path fill="#CCC" stroke="#7F7F7F" stroke-miterlimit="10" stroke-width=".797" d="M4.457 64.953h11.34V53.617H4.457Zm0 0"/><path fill="none" stroke="#000" stroke-miterlimit="10" stroke-width=".598" d="M16.195 59.285h24.317"/><path stroke="#000" stroke-linejoin="round" stroke-miterlimit="10" stroke-width=".598" d="m43.246 59.285-3.86-1.457 1.274 1.457-1.273 1.457Zm0 0"/><path fill="none" stroke="#000" stroke-miterlimit="10" stroke-width=".598" d="M9.867 49.184c.684-18.852 15.418-34.426 34.68-35.77"/><path stroke="#000" stroke-linejoin="round" stroke-miterlimit="10" stroke-width=".5979880399999999" d="m9.879 51.922 1.457-3.863-1.457 1.277-1.461-1.273Zm0 0"/><path fill="none" stroke="#000" stroke-miterlimit="10" stroke-width=".598" d="M9.938 65.352c-1.344 19.261 12.03 36.015 30.609 39.312"/><path stroke="#000" stroke-linejoin="round" stroke-miterlimit="10" stroke-width=".59798206" d="m43.258 105.031-3.625-1.976 1.062 1.617-1.465 1.27Zm0 0"/></svg>