<svg xmlns="http://www.w3.org/2000/svg" width="87.068" height="32.186"><defs><clipPath id="a"><path d="M57.242 23H60v5.953h-2.758Zm0 0"/></clipPath><clipPath id="b"><path d="M58.23 23H71v5.953H58.23Zm0 0"/></clipPath><clipPath id="c"><path d="M70 23h13v5.953H70Zm0 0"/></clipPath><clipPath id="d"><path d="M81 23h4.586v5.953H81Zm0 0"/></clipPath><clipPath id="e"><path d="M57.242 12H60v13h-2.758Zm0 0"/></clipPath><clipPath id="f"><path d="M58.23 12H71v13H58.23Zm0 0"/></clipPath><clipPath id="g"><path d="M81 12h4.586v13H81Zm0 0"/></clipPath><clipPath id="h"><path d="M57.242 1H60v12.988h-2.758Zm0 0"/></clipPath><clipPath id="i"><path d="M58.23 1H71v12.988H58.23Zm0 0"/></clipPath><clipPath id="j"><path d="M70 1h13v12.988H70Zm0 0"/></clipPath><clipPath id="k"><path d="M81 1h4.586v12.988H81Zm0 0"/></clipPath><clipPath id="l"><path d="M57.242.605H60v2.047h-2.758Zm0 0"/></clipPath><clipPath id="m"><path d="M58.23.605H71v2.047H58.23Zm0 0"/></clipPath><clipPath id="n"><path d="M70 .605h13v2.047H70Zm0 0"/></clipPath><clipPath id="o"><path d="M81 .605h4.586v2.047H81Zm0 0"/></clipPath><clipPath id="p"><path d="M0 0h82v31.777H0Zm0 0"/></clipPath><clipPath id="q"><path d="M0 0h86.602v31.777H0Zm0 0"/></clipPath></defs><path fill="#7F7F7F" d="M57.242 28.953V.605h28.344v28.348Zm0 0"/><g clip-path="url(#a)"><path fill="none" stroke="#000" stroke-miterlimit="10" stroke-width=".797" d="M47.887 32.836h11.34m-11.34-5.668h11.34m-8.504 8.504v-2.836m5.668 0v-5.668m-5.668 0v-2.836"/></g><g clip-path="url(#b)"><path fill="none" stroke="#000" stroke-miterlimit="10" stroke-width=".797" d="M59.227 32.836h11.34m-11.34-5.668h11.34m-8.504 8.504v-2.836m5.667 0v-5.668m-5.668 0v-2.836"/></g><g clip-path="url(#c)"><path fill="none" stroke="#000" stroke-miterlimit="10" stroke-width=".797" d="M70.566 32.836h11.336m-11.336-5.668h11.336m-8.504 8.504v-2.836m5.672 0v-5.668m-5.672 0v-2.836"/></g><g clip-path="url(#d)"><path fill="none" stroke="#000" stroke-miterlimit="10" stroke-width=".797" d="M81.902 32.836h11.34m-11.34-5.668h11.34m-8.504 8.504v-2.836m5.672 0v-5.668m-5.672 0v-2.836"/></g><g clip-path="url(#e)"><path fill="none" stroke="#000" stroke-miterlimit="10" stroke-width=".797" d="M47.887 21.496h11.34m-11.34-5.668h11.34m-8.504 8.504v-2.836m5.668 0v-5.668m-5.668 0v-2.836"/></g><g clip-path="url(#f)"><path fill="none" stroke="#000" stroke-miterlimit="10" stroke-width=".797" d="M59.227 21.496h11.34m-11.34-5.668h11.34m-8.504 8.504v-2.836m5.667 0v-5.668m-5.668 0v-2.836"/></g><path fill="none" stroke="#000" stroke-miterlimit="10" stroke-width=".797" d="M70.566 21.496h11.336m-11.336-5.668h11.336m-8.504 8.504v-2.836m5.672 0v-5.668m-5.672 0v-2.836"/><g clip-path="url(#g)"><path fill="none" stroke="#000" stroke-miterlimit="10" stroke-width=".797" d="M81.902 21.496h11.34m-11.34-5.668h11.34m-8.504 8.504v-2.836m5.672 0v-5.668m-5.672 0v-2.836"/></g><g clip-path="url(#h)"><path fill="none" stroke="#000" stroke-miterlimit="10" stroke-width=".797" d="M47.887 10.16h11.34m-11.34-5.672h11.34m-8.504 8.504V10.16m5.668 0V4.488m-5.668 0V1.656"/></g><g clip-path="url(#i)"><path fill="none" stroke="#000" stroke-miterlimit="10" stroke-width=".797" d="M59.227 10.16h11.34m-11.34-5.672h11.34m-8.504 8.504V10.16m5.667 0V4.488m-5.668 0V1.656"/></g><g clip-path="url(#j)"><path fill="none" stroke="#000" stroke-miterlimit="10" stroke-width=".797" d="M70.566 10.16h11.336M70.566 4.488h11.336m-8.504 8.504V10.16m5.672 0V4.488m-5.672 0V1.656"/></g><g clip-path="url(#k)"><path fill="none" stroke="#000" stroke-miterlimit="10" stroke-width=".797" d="M81.902 10.16h11.34m-11.34-5.672h11.34m-8.504 8.504V10.16m5.672 0V4.488m-5.672 0V1.656"/></g><g clip-path="url(#l)"><path fill="none" stroke="#000" stroke-miterlimit="10" stroke-width=".797" d="M47.887-1.18h11.34m-11.34-5.668h11.34m-8.504 8.504V-1.18m5.668 0v-5.668m-5.668 0v-2.836"/></g><g clip-path="url(#m)"><path fill="none" stroke="#000" stroke-miterlimit="10" stroke-width=".797" d="M59.227-1.18h11.34m-11.34-5.668h11.34m-8.504 8.504V-1.18m5.667 0v-5.668m-5.668 0v-2.836"/></g><g clip-path="url(#n)"><path fill="none" stroke="#000" stroke-miterlimit="10" stroke-width=".797" d="M70.566-1.18h11.336M70.566-6.848h11.336m-8.504 8.504V-1.18m5.672 0v-5.668m-5.672 0v-2.836"/></g><g clip-path="url(#o)"><path fill="none" stroke="#000" stroke-miterlimit="10" stroke-width=".797" d="M81.902-1.18h11.34m-11.34-5.668h11.34m-8.504 8.504V-1.18m5.672 0v-5.668m-5.672 0v-2.836"/></g><path fill="none" stroke="#000" stroke-miterlimit="10" stroke-width=".996" d="M57.738 28.953V.605"/><path fill="none" stroke="#FFBFBF" stroke-miterlimit="10" stroke-width="2.835" d="M.547 14.777h56.695"/><g clip-path="url(#p)"><path fill="none" stroke="red" stroke-miterlimit="10" stroke-width="2.835" d="M.547 28.953c21.687 0 26.781-8.297 40.672-12.195"/></g><g clip-path="url(#q)"><path fill="none" stroke="#00F" stroke-miterlimit="10" stroke-width="2.8349433" d="m53.277 15.547-20.789-3.563 7.809 6.075-4.977 8.546Zm0 0"/></g></svg>