<svg xmlns="http://www.w3.org/2000/svg" width="58.709" height="7.4"><defs><clipPath id="a"><path d="M0 0h58.563v7.102H0Zm0 0"/></clipPath></defs><g clip-path="url(#a)"><path fill="none" stroke="#000" stroke-miterlimit="10" stroke-width=".399" d="M.863 3.395C2.11 3.395 2.73.906 3.977.906c.902 0 1.68 1.215 2.492 2.489.812 1.277 1.586 2.492 2.488 2.492s1.68-1.215 2.492-2.492C12.262 2.12 13.04.906 13.941.906c.899 0 1.676 1.215 2.489 2.489.812 1.277 1.59 2.492 2.492 2.492s1.68-1.215 2.488-2.492C22.223 2.12 23 .906 23.902.906c.903 0 1.68 1.215 2.493 2.489.808 1.277 1.585 2.492 2.488 2.492.902 0 1.68-1.215 2.492-2.492.813-1.274 1.59-2.489 2.488-2.489.903 0 1.68 1.215 2.492 2.489.813 1.277 1.59 2.492 2.493 2.492s1.675-1.215 2.488-2.492c.812-1.274 1.59-2.489 2.492-2.489s1.68 1.215 2.492 2.489c.809 1.277 1.586 2.492 2.489 2.492s1.68-1.215 2.492-2.492C52.113 2.12 52.89.906 53.789.906c1.246 0 1.871 2.489 3.113 2.489h.258"/></g><path fill="none" stroke="#000" stroke-linecap="round" stroke-linejoin="round" stroke-miterlimit="10" stroke-width=".399" d="M55.285 1.004c.38 1.437 1.223 2.113 2.074 2.39-.851.282-1.695.958-2.074 2.391"/></svg>