<svg xmlns="http://www.w3.org/2000/svg" width="89.143" height="62.696"><path fill="none" stroke="#7F7F7F" stroke-miterlimit="10" stroke-width=".199" d="M2.57 59.55h85.04M2.57 31.204h85.04M2.57 2.867h85.04M2.57 59.551V2.855m28.348 56.696V2.855m28.344 56.696V2.855m28.34 56.696V2.855"/><path d="M32.91 59.55a1.994 1.994 0 0 0-3.988 0 1.994 1.994 0 0 0 3.988 0m-.433-9.843a1.993 1.993 0 1 0-3.983.002 1.993 1.993 0 0 0 3.983-.002m-1.278-9.547a1.99 1.99 0 0 0-1.992-1.992 1.99 1.99 0 0 0-1.992 1.992 1.99 1.99 0 0 0 1.992 1.992 1.99 1.99 0 0 0 1.992-1.992m-2.09-8.957a1.993 1.993 0 1 0-3.986.002 1.993 1.993 0 0 0 3.986-.002m-2.832-8.094a1.993 1.993 0 1 0-3.986.002 1.993 1.993 0 0 0 3.986-.002m-3.496-6.988a1.993 1.993 0 1 0-3.983.002 1.993 1.993 0 0 0 3.983-.002m-4.047-5.668a1.99 1.99 0 0 0-1.992-1.992 1.99 1.99 0 0 0-1.992 1.992 1.99 1.99 0 0 0 1.992 1.992 1.99 1.99 0 0 0 1.992-1.992m-4.476-4.176a1.99 1.99 0 0 0-1.992-1.992 1.993 1.993 0 1 0 1.992 1.992M9.484 3.72a1.99 1.99 0 0 0-1.992-1.992A1.99 1.99 0 0 0 5.5 3.719 1.99 1.99 0 0 0 7.492 5.71a1.99 1.99 0 0 0 1.992-1.992m-4.921-.864A1.993 1.993 0 1 0 2.57 4.852a1.994 1.994 0 0 0 1.993-1.997m0 0"/></svg>