<svg xmlns="http://www.w3.org/2000/svg" xmlns:xlink="http://www.w3.org/1999/xlink" width="444.486" height="301.898"><defs><path id="a" d="M4.39-1.61c0-.89-.64-1.671-1.921-1.671-.375 0-.75.062-1.063.265V-4c.25.047.516.047.563.047.218 0 .75 0 1.36-.375.202-.14.687-.547.687-.75 0-.125-.079-.172-.157-.172 0 0-.03 0-.109.047a3.96 3.96 0 0 1-2.64-.016c-.063-.031-.079-.031-.094-.031-.141 0-.141.14-.141.25v2.344c0 .156 0 .281.219.281.125 0 .14-.031.218-.125.329-.375.813-.453 1.126-.453.765 0 .765.734.765 1.328 0 .563 0 1.36-1.031 1.36-.422 0-.813-.172-1.031-.438a.57.57 0 0 0 .5-.578c0-.36-.297-.563-.578-.563-.25 0-.579.157-.579.578 0 .72.672 1.375 1.72 1.375C3.624.11 4.39-.656 4.39-1.609m0 0"/><path id="b" d="M3.25-.984v-.407h-.453V-1c0 .547-.297.688-.485.688-.468 0-.468-.422-.468-.641v-2.172h1.234v-.406H1.844v-1.531H1.39c0 .796-.407 1.593-1.203 1.609v.328h.687v2.14c0 .829.64 1.047 1.313 1.047.609 0 1.062-.406 1.062-1.046m0 0"/><path id="c" d="M5.172 0v-.422h-.516v-2c0-.969-.61-1.172-1.312-1.172-.844 0-1.281.485-1.453.735v-2.672L.453-5.47v.422c.469 0 .516 0 .516.313v4.312H.453V0c.422-.031.703-.031 1-.031.313 0 .594 0 1.016.031v-.422h-.531v-1.594c0-.89.765-1.25 1.28-1.25.282 0 .47.141.47.766v2.078h-.532V0c.422-.031.703-.031 1.016-.031.312 0 .578 0 1 .031m0 0"/><path id="d" d="M6.125-2.187h-.453C5.484-1.047 5.203-.423 3.75-.423H2.422v-2.187h.484c.75 0 .875.28.875.922h.453v-2.25h-.453c0 .64-.125.921-.875.921h-.484V-5h1.297c1.156 0 1.547.39 1.687 1.516h.438l-.25-1.938H.375V-5h.86v4.578h-.86V0h5.36Zm0 0"/><path id="e" d="M5.047 0v-.422c-.469 0-.516 0-.516-.297V-5.53l-1.453.062v.422c.469 0 .531 0 .531.313v1.484a2 2 0 0 0-1.14-.344c-1.36 0-2.14.797-2.14 1.828 0 1.047.765 1.829 2.03 1.829.594 0 .985-.235 1.188-.391v.39Zm-1.5-.89c-.375.53-.844.609-1.11.609-1.03 0-1.03-.985-1.03-1.469 0-.5 0-1.516 1.14-1.516.36 0 .734.157 1 .5Zm0 0"/><path id="f" d="M2.39 0v-.422h-.468v-3.172L.5-3.53v.422c.438 0 .5 0 .5.297v2.39H.469V0c.469-.031.547-.031.969-.031.328 0 .562 0 .953.031M2-4.828a.64.64 0 0 0-.64-.625.63.63 0 0 0-.641.625c0 .36.297.64.64.64.36 0 .641-.28.641-.64m0 0"/><path id="g" d="M4.61-1.734c0-1-.72-1.891-2.173-1.891-1.468 0-2.171.89-2.171 1.89C.266-.78.969.064 2.438.064c1.484 0 2.171-.86 2.171-1.797M3.53-1.828c0 .687 0 1.516-1.094 1.516-1.093 0-1.093-.829-1.093-1.516 0-.656 0-1.469 1.094-1.469 1.093 0 1.093.813 1.093 1.469m0 0"/><path id="h" d="M5.172 0v-.422h-.516v-2c0-.969-.61-1.172-1.312-1.172-.969 0-1.406.64-1.5.813v-.813l-1.39.063v.422c.468 0 .515 0 .515.297v2.39H.453V0c.422-.031.703-.031 1-.031.313 0 .594 0 1.016.031v-.422h-.531v-1.594c0-.89.765-1.25 1.28-1.25.282 0 .47.141.47.766v2.078h-.532V0c.422-.031.703-.031 1.016-.031.312 0 .578 0 1 .031m0 0"/><path id="i" d="M4.469-1.64c0-.454-.094-.86-.563-1.266-.437-.375-.875-.453-1.375-.453-.484 0-.812.312-.984.593 0-.453.016-1.046.25-1.453a1.35 1.35 0 0 1 1.172-.687c.234 0 .422.047.578.187a.534.534 0 0 0-.406.532.53.53 0 0 0 .547.53c.312 0 .53-.218.53-.546 0-.484-.327-1.047-1.25-1.047-1.25 0-2.562.766-2.562 2.719C.406-1.5.656.109 2.47.109c1.187 0 2-.671 2-1.75m-1.14 0c0 .75 0 1.374-.86 1.374-.39 0-.656-.218-.766-.468-.14-.282-.14-.922-.14-.953 0-.72.312-1.329.953-1.329.812 0 .812.61.812 1.375m0 0"/><path id="j" d="M6.11-3.89c0-.86-.813-1.579-2.25-1.579H.374v.422h.86v4.625h-.86V0c.297-.031 1.11-.031 1.453-.031.344 0 1.156 0 1.453.031v-.422h-.86v-1.937H3.86c1.438 0 2.25-.688 2.25-1.532m-1.282 0c0 .546 0 1.156-1.266 1.156H2.375v-2.313h1.188c1.265 0 1.265.594 1.265 1.156m0 0"/><path id="k" d="M9.844-5.047v-.422c-.281.032-.703.032-.922.032L7.844-5.47v.422c.187 0 .562 0 .797.063-.016.03-.032.093-.047.109l-1.39 3.438-1.485-3.61h.75v-.422c-.297.032-1.047.032-1.39.032L3.812-5.47v.422H4.5l.297.719-1.188 2.89-1.468-3.609h.734v-.422c-.297.032-1.047.032-1.39.032L.218-5.47v.422h.687l2 4.89c.047.141.094.235.328.235.11 0 .235 0 .329-.203L5.03-3.75 6.5-.14c.078.203.172.218.328.218.234 0 .266-.094.328-.234l1.922-4.719c.063-.125.078-.172.61-.172Zm0 0"/><path id="l" d="M6.375-1.484c0-.672-.578-1.25-1.687-1.375C5.53-3 6.109-3.47 6.109-4.094c0-.75-.765-1.375-2.109-1.375H.375v.422h.86v4.625h-.86V0h3.89c1.36 0 2.11-.672 2.11-1.484m-1.453-2.61c0 .64-.453 1.078-1.234 1.078H2.312v-2.03h1.579c.828 0 1.03.546 1.03.952M5.14-1.5c0 .64-.438 1.078-1.22 1.078H2.314v-2.25H4c.953 0 1.14.703 1.14 1.172m0 0"/><path id="m" d="M4.203 0v-.422H3.016v-4.547c0-.281-.047-.281-.36-.281-.484.39-1.125.516-1.75.516H.734v.422h.172c.203 0 .64-.032 1.11-.172v4.062H.813V0c.28-.031 1.343-.031 1.703-.031.359 0 1.39 0 1.687.031m0 0"/><path id="n" d="M1.984-.64a.64.64 0 0 0-.625-.641c-.359 0-.64.297-.64.64a.634.634 0 1 0 1.265 0m0 0"/><path id="o" d="M4.5-2.547c0-.922-.078-2.703-2.062-2.703C.452-5.25.374-3.453.374-2.547.375-1.657.438.11 2.438.11 4.453.11 4.5-1.656 4.5-2.547M3.422-2.64c0 1.829-.11 1.938-.36 2.172-.062.078-.296.25-.624.25a.97.97 0 0 1-.61-.218c-.25-.22-.375-.329-.375-2.204 0-.578 0-1.156.078-1.546.11-.563.61-.72.907-.72.187 0 .796.048.921.798.063.39.063 1.015.063 1.468m0 0"/><path id="p" d="M5.438-2.187H5c-.062.546-.219 1.765-1.703 1.765h-.875v-4.625H3.5v-.422c-.297.032-1.266.032-1.61.032-.359 0-1.218 0-1.515-.032v.422h.86v4.625h-.86V0h4.797Zm0 0"/><path id="q" d="M4.875-1.61c0-.874-.672-1.53-1.469-1.702l-1.219-.235c-.562-.125-.843-.484-.843-.828s.25-.828 1.11-.828c.171 0 .702.016 1.124.328.453.344.547.844.578 1.031.016.156.032.188.219.188.219 0 .234-.047.234-.235v-1.437c0-.156 0-.25-.171-.25-.11 0-.11.016-.297.187l-.25.25c-.36-.265-.813-.437-1.438-.437-1.36 0-1.906.844-1.906 1.61 0 .343.11.671.375.984.422.468.922.562 1.265.64l.985.203c.687.141.906.579.906.922 0 .25-.125.922-1.14.922-.376 0-.97-.062-1.407-.344-.5-.312-.531-.796-.547-1.046 0-.125-.125-.125-.218-.125-.22 0-.22.062-.22.25v1.421c0 .157 0 .25.173.25.094 0 .11 0 .281-.187l.25-.234c.547.375 1.281.421 1.703.421 1.422 0 1.922-.937 1.922-1.718m0 0"/><path id="r" d="M7.031 0v-.422h-.797L4.125-3.125l1.422-1.781C5.64-5 5.64-5 5.907-5.031c.202-.016.218-.016.452-.016h.25v-.422l-1.125.032c-.187 0-.734 0-1.234-.032v.422c.031 0 .297 0 .547.031a.5.5 0 0 1 .14.047L3.782-3.547l-1.172-1.5h.625v-.422c-.296.032-1.093.032-1.437.032-.313 0-.844 0-1.344-.032v.422h.781l1.844 2.36L1.375-.562c-.078.093-.078.093-.344.125-.203.015-.218.015-.453.015H.313V0l1.14-.031L2.672 0v-.422c-.063 0-.39 0-.672-.062V-.5l1.422-1.75L4.859-.422h-.625V0c.297-.031 1.11-.031 1.454-.031.296 0 .843 0 1.343.031m0 0"/><path id="s" d="M6.922-2.687c0-1.735-1.25-2.782-2.938-2.782H.375v.422h.86v4.625h-.86V0H4c1.688 0 2.922-1.016 2.922-2.687m-1.219-.016c0 .781 0 2.281-2.047 2.281H2.375v-4.625h1.281c2.047 0 2.047 1.578 2.047 2.344m0 0"/><path id="t" d="M8.828 0v-.422h-.86v-4.625h.86v-.422H7.016c-.188 0-.282.016-.391.235L4.609-1.031l-2-4.203c-.109-.235-.218-.235-.39-.235H.39v.422h.875v4.422c0 .156-.016.172-.235.188-.11.015-.343.015-.406.015H.391V0L1.5-.031 2.61 0v-.422h-.22c-.203 0-.234 0-.421-.016-.203-.03-.219-.03-.219-.187v-4.312h.016L4-.234c.078.14.156.234.313.234.203 0 .265-.14.312-.234l2.297-4.797h.016v4.61h-.86V0c.328-.031 1.016-.031 1.375-.031.36 0 1.047 0 1.375.031m0 0"/><path id="u" d="M7.094-5.047v-.422l-1.125.032-1.11-.032v.422h.22c.202 0 .234 0 .421.016.203.031.219.031.219.187v3c0 1.11-.828 1.547-1.813 1.547-1.469 0-1.484-1.062-1.484-1.5v-3.25h.86v-.422c-.298.032-1.11.032-1.454.032s-1.156 0-1.453-.032v.422h.86v3.203c0 1.063.89 1.953 2.64 1.953 1.672 0 2.36-.968 2.36-1.937v-3.016c0-.156.015-.172.234-.187.11-.016.343-.016.406-.016Zm0 0"/><path id="v" d="M4.938 0v-.422h-.563L2.969-1.937l1-1.047c.14-.141.375-.141.781-.141v-.406c-.234.015-.594.015-.75.015-.078 0-.531 0-.812-.015v.406c.078 0 .218.031.218.078 0 .016-.062.078-.062.078l-.672.703-.797-.859h.25v-.406c-.469.015-.578.015-.969.015-.14 0-.61 0-.89-.015v.406h.562l1.297 1.406-1.11 1.157C.939-.47.86-.422.36-.422H.22V0c.25-.031.625-.031.765-.031.047 0 .532 0 .813.031v-.422c-.14 0-.188-.031-.234-.062l.875-.907.89.97h-.25V0c.469-.031.578-.031.969-.031.11 0 .61 0 .89.031m0 0"/><path id="w" d="M2.453 0v-.422h-.531v-5.11l-1.453.063v.422c.469 0 .531 0 .531.313v4.312H.469V0c.469-.031.547-.031.984-.031.453 0 .531 0 1 .031m0 0"/><path id="x" d="M4.734-3.125a.52.52 0 0 0-.546-.531c-.313 0-.672.14-.907.312-.281-.156-.61-.25-1.11-.25-1.296 0-1.687.703-1.687 1.188 0 .469.266.703.422.828a1.06 1.06 0 0 0-.265.703c0 .297.109.578.328.766C.625-.016.266.203.266.594c0 .422.468 1.015 2.172 1.015 1.5 0 2.171-.484 2.171-1.046 0-.766-.593-1.016-.765-1.079-.438-.171-.922-.171-1.64-.171H1.78c-.234 0-.39 0-.5-.11a.5.5 0 0 1-.187-.39c0-.079.015-.172.062-.22.328.157.719.188 1.016.188 1.281 0 1.672-.687 1.672-1.187 0-.422-.266-.703-.313-.735.219-.125.375-.14.485-.156a.7.7 0 0 0-.032.172c0 .219.157.375.375.375a.36.36 0 0 0 .375-.375m-1.812.719c0 .328 0 .86-.75.86-.766 0-.766-.532-.766-.86s0-.844.766-.844c.75 0 .75.531.75.844m.937 3c0 .265-.328.672-1.421.672-1.047 0-1.422-.375-1.422-.688 0-.437.515-.437.64-.437h1c.25 0 1.203 0 1.203.453m0 0"/><path id="y" d="M3.328 0v-.422h-.906v-4.625h.906v-.422c-.297.032-1.156.032-1.5.032s-1.203 0-1.5-.032v.422h.906v4.625H.328V0c.297-.031 1.156-.031 1.5-.031s1.203 0 1.5.031m0 0"/><path id="z" d="M4.188-.922c0-.156-.157-.156-.22-.156-.14 0-.171.016-.234.14-.25.563-.921.626-1.156.626-1.172 0-1.219-.938-1.234-1.375h2.578c.172 0 .265 0 .265-.235 0-.344-.078-.86-.468-1.25-.453-.453-1.172-.453-1.36-.453-1.406 0-2.093.89-2.093 1.828 0 1.031.797 1.86 2.218 1.86 1.407 0 1.704-.875 1.704-.985M3.406-2H1.344c.015-.312.047-1.297 1.031-1.297S3.406-2.312 3.406-2m0 0"/><path id="A" d="M3.75-2.906c0-.438-.437-.688-.906-.688-.672 0-1 .563-1.125.86v-.86l-1.36.063v.422c.485 0 .532 0 .532.297v2.39H.359V0c.47-.031.547-.031 1.032-.031L2.469 0v-.422h-.656v-1.281c0-.625.25-1.531 1.015-1.563 0 0-.125.141-.125.36 0 .328.235.531.531.531a.514.514 0 0 0 .516-.531m0 0"/><path id="B" d="M4.688-.203c0-.219-.125-.219-.235-.219-.5 0-.5-.078-.5-.25v-1.687c0-.72-.562-1.266-1.86-1.266-.39 0-1.53 0-1.53.781 0 .36.265.547.53.547a.53.53 0 0 0 .548-.531c0-.25-.172-.406-.172-.406.062-.016.297-.063.61-.063.624 0 .905.36.905.938v.218c-1.187.016-2.75.282-2.75 1.25 0 .672.766.954 1.641.954.813 0 1.156-.438 1.266-.61 0 .25.093.547.859.547h.422c.156 0 .266 0 .266-.203m-1.704-.89c0 .812-.953.812-.984.812-.422 0-.781-.25-.781-.625 0-.563.734-.906 1.765-.922Zm0 0"/><path id="C" d="M4.328-5.703a.254.254 0 0 0-.266-.266c-.14 0-.218.094-.28.219L.593 1.547a.36.36 0 0 0-.047.172c0 .156.11.265.265.265.157 0 .235-.109.282-.218L4.28-5.531a.36.36 0 0 0 .047-.172m0 0"/><path id="D" d="M6.438-3.422 6.25-5.359H.531L.344-3.422h.453C.875-4.359 1-4.953 2.14-4.953h.656v4.531H1.578V0c.313-.031 1.438-.031 1.813-.031s1.5 0 1.812.031v-.422H3.984v-4.531h.657c1.14 0 1.265.594 1.343 1.531Zm0 0"/><path id="E" d="M4.469-1.422c0-.656-.5-1.203-1.36-1.39.22-.094 1.094-.438 1.094-1.297 0-.641-.656-1.141-1.844-1.141-1.03 0-1.687.563-1.687 1.203 0 .453.36.61.594.61.312 0 .593-.22.593-.594 0-.172-.062-.469-.453-.563.36-.312.828-.312.907-.312.734 0 .734.531.734.765 0 .579-.266.875-.297.907-.219.25-.375.25-.797.28-.25.017-.328.017-.328.188 0 .157.11.157.25.157h.39c.922 0 .938.78.938 1.172 0 .359 0 1.171-.906 1.171-.172 0-.625-.015-1.016-.28a.65.65 0 0 0 .422-.61c0-.375-.281-.64-.656-.64-.344 0-.64.234-.64.655 0 .766.827 1.25 1.921 1.25 1.563 0 2.14-.843 2.14-1.53m0 0"/><path id="G" d="M4.39-1.812h-.452c-.063.515-.157.687-.204.703-.093.046-.703.046-.843.046H1.797c1.062-.828 1.5-1.078 1.844-1.343.547-.438.75-.828.75-1.281 0-.938-.875-1.563-2.078-1.563-1.016 0-1.829.453-1.829 1.203 0 .484.391.625.61.625.281 0 .61-.203.61-.61a.57.57 0 0 0-.376-.562c.219-.172.547-.234.797-.234.719 0 1.11.531 1.11 1.14 0 .657-.422 1.188-.891 1.626L.578-.423C.5-.328.484-.328.484-.172V0h3.641Zm0 0"/><path id="H" d="M4.734-4.984v-.141H2.891c-.25 0-.72-.031-.985-.047h-.265c-.328-.031-.344-.11-.344-.219H.844L.547-3.312h.437c.079-.547.188-.704.235-.72.093-.046.75-.046.89-.046h1.297c-.875 1-.875 1.016-1.125 1.406-.562.938-.64 1.797-.64 2.188 0 .593.484.593.53.593.25 0 .376-.14.407-.187.125-.125.125-.25.125-.61 0-.203 0-.562.047-1.015.11-1.047.516-1.5.531-1.516l1.36-1.5c.093-.093.093-.11.093-.265m0 0"/><path id="I" d="M4.469-1.484c0-.891-.766-1.297-1.078-1.47.328-.171.812-.468.812-1.093 0-1.11-1.266-1.203-1.75-1.203-1.187 0-1.781.64-1.781 1.422 0 .531.344.953.766 1.203-.829.36-1.032.86-1.032 1.344 0 1 .907 1.39 2.016 1.39 1.375 0 2.047-.703 2.047-1.593M3.53-4.047c0 .297-.125.61-.562.875l-1.25-.656c-.157-.078-.375-.219-.375-.469 0-.5.593-.61 1.078-.61.719 0 1.11.329 1.11.86m.188 3c0 .672-.781.781-1.266.781-.765 0-1.297-.343-1.297-1.015 0-.797.735-1.094.735-1.094l.422.203.906.485c.125.062.5.265.5.64m0 0"/><path id="J" d="M7.11-5.047v-.422c-.313.032-.75.032-.97.032L5.064-5.47v.422c.203 0 .468 0 .687.063l-.047.109-1.687 3.61-1.782-3.782h.72v-.422c-.298.032-1.079.032-1.407.032L.234-5.47v.422H.97L3.28-.14c.094.22.219.22.39.22.173 0 .282 0 .392-.204L6.28-4.891c.047-.109.078-.156.657-.156Zm0 0"/><path id="K" d="M2.703-1.36v-.827H.11v.828Zm0 0"/><path id="L" d="M5.172 0v-.422c-.469 0-.516 0-.516-.297v-2.875l-1.5.063v.422c.469 0 .531 0 .531.297v1.515c0 .61-.421 1.016-1.078 1.016-.64 0-.671-.188-.671-.594v-2.719L.452-3.53v.422c.469 0 .516 0 .516.297v1.828c0 .89.75 1.047 1.531 1.047.266 0 .797 0 1.234-.563v.563Zm0 0"/><path id="M" d="M3.516-1.125a.95.95 0 0 0-.344-.75c-.344-.328-.766-.39-1.063-.437C1.375-2.438.938-2.516.938-2.86c0-.47.78-.47.937-.47.89 0 .938.423.953.657.016.125.125.125.219.125.219 0 .234-.062.234-.25v-.578c0-.156 0-.25-.187-.25-.063 0-.078 0-.36.14-.328-.14-.703-.14-.843-.14-.266 0-1.563 0-1.563 1.063 0 .359.203.593.406.75.313.218.657.28 1.172.359.407.062 1 .156 1 .594 0 .562-.703.578-.953.578-.812 0-1.047-.453-1.172-.828C.734-1.25.72-1.266.547-1.266c-.219 0-.219.079-.219.25v.829c0 .14 0 .25.172.25.078 0 .094 0 .25-.11l.219-.14c.39.25.812.25.984.25.25 0 1.563 0 1.563-1.188m0 0"/><path id="N" d="M7.047-1.984c0-.282-.281-.282-.375-.282h-2.61v-2.609c0-.11 0-.375-.265-.375-.281 0-.281.281-.281.375v2.61H.906c-.094 0-.36 0-.36.28 0 .266.266.266.36.266h2.61v2.61c0 .109 0 .375.28.375.267 0 .267-.282.267-.375v-2.61h2.609c.11 0 .375 0 .375-.265m0 0"/><path id="O" d="M4.469-2.61c0-.562-.047-1.265-.407-1.828-.343-.53-.89-.812-1.609-.812C1.25-5.25.406-4.594.406-3.5c0 .328.047.828.547 1.266.344.28.688.453 1.39.453.548 0 .86-.39.985-.594 0 .594-.031 1.078-.203 1.438a1.2 1.2 0 0 1-1.11.671c-.078 0-.406 0-.656-.156.094-.031.375-.172.375-.516 0-.312-.234-.53-.546-.53-.297 0-.532.202-.532.546C.656-.359 1.078.11 2.031.11 3.25.11 4.47-.67 4.47-2.609m-1.157-.874c0 .812-.359 1.359-.953 1.359-.812 0-.812-.625-.812-1.375 0-.719 0-1.406.922-1.406.844 0 .844.968.844 1.422m0 0"/><path id="P" d="M4.61 0v-.422H3.78v-.812h.828v-.407h-.828v-3.343c0-.25-.047-.266-.281-.266-.172 0-.219 0-.328.125L.266-1.641v.407h2.453v.812h-.953V0c.297-.031 1.109-.031 1.453-.031.375 0 1.031 0 1.39.031M2.827-1.64H.766l2.062-2.47Zm0 0"/><path id="Q" d="M7.188-1.781v-.422l-1.422.031c-.36 0-1.36 0-1.672-.031v.422h1.218V-1c0 .156 0 .39-.375.547-.296.14-.625.156-.765.156-.875 0-1.469-.312-1.766-.61-.344-.343-.594-.812-.594-1.827 0-.375.032-1.235.5-1.766.579-.61 1.407-.656 1.782-.656.812 0 1.687.5 1.875 1.625.031.156.093.156.265.156.235 0 .266 0 .266-.25v-1.703c0-.156 0-.25-.172-.25-.078 0-.094 0-.187.078l-.516.469a2.8 2.8 0 0 0-1.703-.547C1.75-5.578.547-4.312.547-2.734.547-1.25 1.64.109 3.953.109c.844 0 1.406-.171 1.672-.468.219.172.672.359.734.359C6.5 0 6.5-.14 6.5-.25v-1.531Zm0 0"/><path id="R" d="M6.5-1.812C6.5-2 6.422-2 6.281-2c-.203 0-.218.031-.218.234C6-.937 5.156-.296 4.109-.296c-.875 0-1.468-.329-1.78-.673-.36-.39-.517-.937-.517-1.765 0-.344.016-1.22.5-1.766.579-.61 1.407-.656 1.782-.656.812 0 1.687.5 1.875 1.625.031.156.093.156.265.156.235 0 .266 0 .266-.25v-1.703c0-.156 0-.25-.172-.25-.078 0-.094 0-.187.078l-.516.469a2.8 2.8 0 0 0-1.703-.547C1.75-5.578.547-4.312.547-2.734c0 1.562 1.187 2.843 3.39 2.843C5.5.11 6.5-.844 6.5-1.812m0 0"/><path id="S" d="M4.906-3.125v-.406c-.297.015-.312.015-.656.015-.062 0-.484 0-.719-.015v.406s.328 0 .328.078c0 .031-.03.078-.046.11l-.97 1.921-1.062-2.109h.375v-.406c-.469.015-.64.015-.984.015-.188 0-.61 0-.938-.015v.406h.5L2.313 0c-.329.672-.391.75-.438.844-.312.39-.64.422-.781.422-.063 0-.094 0-.14-.016a.52.52 0 0 0 .234-.437c0-.313-.235-.5-.5-.5-.25 0-.5.187-.5.515 0 .422.39.781.906.781.765 0 1.25-.671 1.36-.89l1.874-3.672c.078-.14.094-.172.578-.172m0 0"/><path id="T" d="M7.89 0v-.422h-.53v-2c0-.953-.579-1.172-1.313-1.172-.828 0-1.281.485-1.438.735-.187-.625-.734-.735-1.265-.735-.969 0-1.406.64-1.5.813v-.813l-1.39.063v.422c.468 0 .515 0 .515.297v2.39H.453V0c.422-.031.703-.031 1-.031.313 0 .594 0 1.016.031v-.422h-.531v-1.594c0-.89.765-1.25 1.28-1.25.282 0 .47.141.47.766v2.078h-.532V0c.422-.031.703-.031 1.016-.031.312 0 .578 0 1 .031v-.422h-.516v-1.594c0-.89.766-1.25 1.266-1.25.281 0 .469.141.469.766v2.078h-.532V0c.438-.031.72-.031 1.016-.031.313 0 .578 0 1.016.031m0 0"/><clipPath id="F"><path d="M385 75h59.23v39H385Zm0 0"/></clipPath><clipPath id="U"><path d="M322 273h80v28.848h-80Zm0 0"/></clipPath></defs><path fill="none" stroke="#000" stroke-miterlimit="10" stroke-width=".598" d="m234.184 17.371-27.395 10.48"/><path stroke="#000" stroke-linejoin="round" stroke-miterlimit="10" stroke-width=".59798206" d="m204.234 28.828 4.13-.015-1.716-.907.672-1.82Zm0 0"/><path fill="none" stroke="#000" stroke-miterlimit="10" stroke-width=".598" d="m268.773 17.371 15.672 9.777"/><path stroke="#000" stroke-linejoin="round" stroke-miterlimit="10" stroke-width=".59798206" d="m286.766 28.598-2.504-3.282.312 1.91-1.855.563Zm0 0"/><path fill="none" stroke="#000" stroke-miterlimit="10" stroke-width=".598" d="M153.516 42.078 61.859 57.004"/><path stroke="#000" stroke-linejoin="round" stroke-miterlimit="10" stroke-width=".5979701" d="m59.16 57.441 4.043.82-1.492-1.234 1.023-1.644Zm0 0"/><path fill="none" stroke="#000" stroke-miterlimit="10" stroke-width=".598" d="M203.223 45.719 235.8 58.035"/><path stroke="#000" stroke-linejoin="round" stroke-miterlimit="10" stroke-width=".5979760799999999" d="m238.363 59.004-3.097-2.73.675 1.816-1.707.91Zm0 0"/><path fill="none" stroke="#000" stroke-miterlimit="10" stroke-width=".598" d="m156.59 45.54-35.668 11.472"/><path stroke="#000" stroke-linejoin="round" stroke-miterlimit="10" stroke-width=".5979760799999999" d="m118.32 57.852 4.121.203-1.66-.996.77-1.778Zm0 0"/><path fill="none" stroke="#000" stroke-miterlimit="10" stroke-width=".598" d="m173.234 45.719-9.164 9.066"/><path stroke="#000" stroke-linejoin="round" stroke-miterlimit="10" stroke-width=".5979701" d="m162.125 56.707 3.77-1.68-1.93-.136-.121-1.938Zm0 0"/><path fill="none" stroke="#000" stroke-miterlimit="10" stroke-width=".598" d="m189.82 45.719 9.164 9.066"/><path stroke="#000" stroke-linejoin="round" stroke-miterlimit="10" stroke-width=".5979701" d="m200.93 56.707-1.723-3.754-.117 1.938-1.934.136Zm0 0"/><path fill="none" stroke="#000" stroke-miterlimit="10" stroke-width=".598" d="m233.82 69.559 153.707 24.035c2.176.34 3.938 2.398 3.938 4.601v40.414"/><path stroke="#000" stroke-linejoin="round" stroke-miterlimit="10" stroke-width=".598" d="m391.465 141.348 1.46-3.864-1.46 1.274-1.457-1.274Zm0 0"/><path fill="none" stroke="#000" stroke-miterlimit="10" stroke-width=".598" d="m233.82 69.059 158.532 21.437"/><path stroke="#000" stroke-linejoin="round" stroke-miterlimit="10" stroke-width=".5979760799999999" d="m395.063 90.863-3.633-1.965 1.066 1.618-1.457 1.273Zm0 0"/><path fill="none" stroke="#000" stroke-miterlimit="10" stroke-width=".598" d="M186.836 71.242 118.48 86.996"/><path stroke="#000" stroke-linejoin="round" stroke-miterlimit="10" stroke-width=".59798206" d="m115.816 87.61 4.09.554-1.57-1.133.918-1.707Zm0 0"/><path fill="none" stroke="#000" stroke-miterlimit="10" stroke-width=".598" d="m114.707 100.168 99.531 21.547c2.149.465 3.895 2.625 3.895 4.828v77.071c0 2.198-1.547 4.87-3.457 5.968l-28.09 16.121"/><path stroke="#000" stroke-linejoin="round" stroke-miterlimit="10" stroke-width=".5979760799999999" d="m184.215 227.066 4.074-.656-1.832-.633.379-1.898Zm0 0"/><path fill="none" stroke="#000" stroke-miterlimit="10" stroke-width=".598" d="m69.04 102.41-28.86 13.047"/><path stroke="#000" stroke-linejoin="round" stroke-miterlimit="10" stroke-width=".5979581399999999" d="m37.684 116.582 4.12-.262-1.761-.8.562-1.856Zm0 0"/><path fill="none" stroke="#000" stroke-miterlimit="10" stroke-width=".598" d="m95.387 102.41 17.328 17.328c1.555 1.555 2.816 4.602 2.816 6.805v68.761"/><path stroke="#000" stroke-linejoin="round" stroke-miterlimit="10" stroke-width=".598" d="m115.531 198.04 1.461-3.864-1.46 1.277-1.458-1.277Zm0 0"/><path fill="none" stroke="#000" stroke-miterlimit="10" stroke-width=".598" d="M87.184 102.41v149.586"/><path stroke="#000" stroke-linejoin="round" stroke-miterlimit="10" stroke-width=".598" d="m87.184 254.734 1.46-3.863-1.46 1.277-1.457-1.277Zm0 0"/><path fill="none" stroke="#000" stroke-miterlimit="10" stroke-width=".598" d="m103.59 102.41 22.055 11.031"/><path stroke="#000" stroke-linejoin="round" stroke-miterlimit="10" stroke-width=".59795216" d="m128.094 114.664-2.805-3.031.492 1.875-1.793.734Zm0 0"/><path fill="none" stroke="#000" stroke-miterlimit="10" stroke-width=".598" d="m113.559 101.496 48.586 13.422"/><path stroke="#000" stroke-linejoin="round" stroke-miterlimit="10" stroke-width=".5979701" d="m164.781 115.648-3.332-2.433.84 1.746-1.617 1.062Zm0 0"/><path fill="none" stroke="#000" stroke-miterlimit="10" stroke-width=".598" d="M115.531 215.8v16.157c0 2.203-1.261 5.246-2.816 6.805L98.28 253.195"/><path stroke="#000" stroke-linejoin="round" stroke-miterlimit="10" stroke-width=".59799402" d="m96.348 255.129 3.761-1.7-1.933-.128-.13-1.934Zm0 0"/><path fill="none" stroke="#000" stroke-miterlimit="10" stroke-width=".598" d="m161.418 244.145-7.945 8.894"/><path stroke="#000" stroke-linejoin="round" stroke-miterlimit="10" stroke-width=".5979701" d="m151.648 255.078 3.664-1.91-1.937-.02-.238-1.921Zm0 0"/><path fill="none" stroke="#000" stroke-miterlimit="10" stroke-width=".598" d="M238.805 69.48 121.656 93.41c-2.156.442-5.511 1.574-7.496 2.528l-51.73 24.89c-1.985.953-3.59 3.512-3.59 5.715v12.066"/><path stroke="#000" stroke-linejoin="round" stroke-miterlimit="10" stroke-width=".598" d="m58.84 141.348 1.457-3.864-1.457 1.274-1.461-1.274Zm0 0"/><path fill="none" stroke="#000" stroke-miterlimit="10" stroke-width=".598" d="M58.84 159.105v64.543"/><path stroke="#000" stroke-linejoin="round" stroke-miterlimit="10" stroke-width=".598" d="m58.84 226.387 1.457-3.864-1.457 1.278-1.461-1.278Zm0 0"/><path fill="none" stroke="#000" stroke-miterlimit="10" stroke-width=".598" d="m67.04 244.145 9.05 9.05"/><path stroke="#000" stroke-linejoin="round" stroke-miterlimit="10" stroke-width=".5979880399999999" d="m78.023 255.129-1.699-3.762-.129 1.934-1.933.129Zm0 0"/><path fill="none" stroke="#000" stroke-miterlimit="10" stroke-width=".598" d="m80.305 240.316 92.195 18.786"/><path stroke="#000" stroke-linejoin="round" stroke-miterlimit="10" stroke-width=".5979760799999999" d="m175.184 259.648-3.497-2.203.961 1.684-1.543 1.176Zm0 0"/><path fill="none" stroke="#000" stroke-miterlimit="10" stroke-width=".598" d="m22.73 130.758-1.687 7.941"/><path stroke="#000" stroke-linejoin="round" stroke-miterlimit="10" stroke-width=".59799402" d="m20.477 141.375 2.226-3.477-1.691.946-1.16-1.551Zm0 0"/><path fill="none" stroke="#000" stroke-miterlimit="10" stroke-width=".598" d="m20.195 159.105 1.684 7.942"/><path stroke="#000" stroke-linejoin="round" stroke-miterlimit="10" stroke-width=".59799402" d="m22.45 169.723.624-4.082-1.164 1.55-1.691-.945Zm0 0"/><path fill="none" stroke="#000" stroke-miterlimit="10" stroke-width=".598" d="m26.215 187.453 1.683 7.942"/><path stroke="#000" stroke-linejoin="round" stroke-miterlimit="10" stroke-width=".59799402" d="m28.469 198.07.625-4.082-1.164 1.551-1.692-.945Zm0 0"/><path fill="none" stroke="#000" stroke-miterlimit="10" stroke-width=".598" d="m51.992 210.426 168.41 22.156"/><path stroke="#000" stroke-linejoin="round" stroke-miterlimit="10" stroke-width=".5979701" d="m223.113 232.938-3.636-1.95 1.074 1.614-1.457 1.277Zm0 0"/><path fill="none" stroke="#000" stroke-miterlimit="10" stroke-width=".598" d="m38.695 215.8 9.047 9.048"/><path stroke="#000" stroke-linejoin="round" stroke-miterlimit="10" stroke-width=".59799402" d="m49.68 226.781-1.703-3.761-.13 1.933-1.933.129Zm0 0"/><path fill="none" stroke="#000" stroke-miterlimit="10" stroke-width=".598" d="m51.953 211.996 85.121 17.453"/><path stroke="#000" stroke-linejoin="round" stroke-miterlimit="10" stroke-width=".5979701" d="m139.758 230-3.492-2.207.957 1.687-1.543 1.172Zm0 0"/><path fill="none" stroke="#000" stroke-miterlimit="10" stroke-width=".598" d="M245.957 244.145v7.851"/><path stroke="#000" stroke-linejoin="round" stroke-miterlimit="10" stroke-width=".598" d="m245.957 254.734 1.461-3.863-1.461 1.277-1.457-1.277Zm0 0"/><path fill="none" stroke="#000" stroke-miterlimit="10" stroke-width=".598" d="m260.328 244.145 17.363 9.914"/><path stroke="#000" stroke-linejoin="round" stroke-miterlimit="10" stroke-width=".5979760799999999" d="m280.07 255.418-2.633-3.184.387 1.899-1.832.637Zm0 0"/><path fill="none" stroke="#000" stroke-miterlimit="10" stroke-width=".598" d="m395.48 74.066 11.274 9.332"/><path stroke="#000" stroke-linejoin="round" stroke-miterlimit="10" stroke-width=".5979581399999999" d="m408.863 85.145-2.047-3.586.055 1.933-1.914.313Zm0 0"/><path fill="none" stroke="#000" stroke-miterlimit="10" stroke-width=".598" d="m285.543 74.066-18.988 10.032"/><path stroke="#000" stroke-linejoin="round" stroke-miterlimit="10" stroke-width=".59796412" d="m264.137 85.375 4.097-.516-1.808-.695.445-1.883Zm0 0"/><path fill="none" stroke="#000" stroke-miterlimit="10" stroke-width=".598" d="M301.066 74.066v7.852"/><path stroke="#000" stroke-linejoin="round" stroke-miterlimit="10" stroke-width=".598" d="m301.066 84.652 1.457-3.863-1.457 1.277-1.46-1.277Zm0 0"/><path fill="none" stroke="#000" stroke-miterlimit="10" stroke-width=".598" d="m322.777 44.8 37.203 12.477"/><path stroke="#000" stroke-linejoin="round" stroke-miterlimit="10" stroke-width=".5979701" d="m362.574 58.148-3.195-2.609.746 1.79-1.676.976Zm0 0"/><path fill="none" stroke="#000" stroke-miterlimit="10" stroke-width=".598" d="M301.066 45.719v7.851"/><path stroke="#000" stroke-linejoin="round" stroke-miterlimit="10" stroke-width=".598" d="m301.066 56.305 1.457-3.864-1.457 1.278-1.46-1.278Zm0 0"/><path fill="none" stroke="#000" stroke-miterlimit="10" stroke-width=".598" d="M247.414 102.41v7.852"/><path stroke="#000" stroke-linejoin="round" stroke-miterlimit="10" stroke-width=".598" d="m247.414 113 1.461-3.863-1.46 1.277-1.458-1.277Zm0 0"/><path fill="none" stroke="#000" stroke-miterlimit="10" stroke-width=".598" d="m270.773 130.656 31.168 10.809"/><path stroke="#000" stroke-linejoin="round" stroke-miterlimit="10" stroke-width=".5979880399999999" d="m304.527 142.36-3.172-2.641.727 1.793-1.68.96Zm0 0"/><path fill="none" stroke="#000" stroke-miterlimit="10" stroke-width=".598" d="M329.164 159.105v7.852"/><path stroke="#000" stroke-linejoin="round" stroke-miterlimit="10" stroke-width=".598" d="m329.164 169.691 1.461-3.859-1.46 1.273-1.458-1.273Zm0 0"/><path fill="none" stroke="#000" stroke-miterlimit="10" stroke-width=".598" d="m308.91 159.105-25.703 10.407"/><path stroke="#000" stroke-linejoin="round" stroke-miterlimit="10" stroke-width=".5979760799999999" d="m280.672 170.54 4.129-.099-1.73-.875.636-1.828Zm0 0"/><path fill="none" stroke="#000" stroke-miterlimit="10" stroke-width=".598" d="M301.066 102.41v7.852"/><path stroke="#000" stroke-linejoin="round" stroke-miterlimit="10" stroke-width=".598" d="m301.066 113 1.457-3.863-1.457 1.277-1.46-1.277Zm0 0"/><path fill="none" stroke="#000" stroke-miterlimit="10" stroke-width=".598" d="m321.98 129.113 39.426 12.364"/><path stroke="#000" stroke-linejoin="round" stroke-miterlimit="10" stroke-width=".59796412" d="m364.016 142.297-3.25-2.547.78 1.773-1.651 1.008Zm0 0"/><path fill="none" stroke="#000" stroke-miterlimit="10" stroke-width=".598" d="M419.813 102.41v16.16c0 2.203-1.262 5.246-2.817 6.805l-14.433 14.434"/><path stroke="#000" stroke-linejoin="round" stroke-miterlimit="10" stroke-width=".59799402" d="m400.625 141.742 3.766-1.699-1.934-.129-.129-1.934Zm0 0"/><path fill="none" stroke="#000" stroke-miterlimit="10" stroke-width=".598" d="m368.004 130.758 10.805 9.277"/><path stroke="#000" stroke-linejoin="round" stroke-miterlimit="10" stroke-width=".5979701" d="m380.883 141.816-1.98-3.62.019 1.937-1.918.277Zm0 0"/><path fill="none" stroke="#000" stroke-miterlimit="10" stroke-width=".598" d="m338.64 187.453 10.704 9.266"/><path stroke="#000" stroke-linejoin="round" stroke-miterlimit="10" stroke-width=".59798206" d="m351.41 198.508-1.965-3.63.012 1.938-1.918.266Zm0 0"/><path fill="none" stroke="#000" stroke-miterlimit="10" stroke-width=".598" d="m338.64 159.105 20.258 17.536c1.664 1.441 3.012 4.394 3.012 6.593v12.07"/><path stroke="#000" stroke-linejoin="round" stroke-miterlimit="10" stroke-width=".598" d="m361.91 198.04 1.461-3.864-1.46 1.277-1.458-1.277Zm0 0"/><path fill="none" stroke="#000" stroke-miterlimit="10" stroke-width=".598" d="m391.293 159.105-.348 16.16c-.047 2.2-1.36 5.231-2.93 6.774l-14.804 14.492"/><path stroke="#000" stroke-linejoin="round" stroke-miterlimit="10" stroke-width=".5979701" d="m371.258 198.445 3.777-1.66-1.93-.148-.109-1.934Zm0 0"/><path fill="none" stroke="#000" stroke-miterlimit="10" stroke-width=".598" d="M361.91 215.8v7.848"/><path stroke="#000" stroke-linejoin="round" stroke-miterlimit="10" stroke-width=".598" d="m361.91 226.387 1.461-3.864-1.46 1.278-1.458-1.278Zm0 0"/><path fill="none" stroke="#000" stroke-miterlimit="10" stroke-width=".598" d="M361.91 244.145v7.851"/><path stroke="#000" stroke-linejoin="round" stroke-miterlimit="10" stroke-width=".598" d="m361.91 254.734 1.461-3.863-1.46 1.277-1.458-1.277Zm0 0"/><path fill="none" stroke="#000" stroke-miterlimit="10" stroke-width=".598" d="M361.91 272.492v7.852"/><path stroke="#000" stroke-linejoin="round" stroke-miterlimit="10" stroke-width=".598" d="m361.91 283.078 1.461-3.86-1.46 1.274-1.458-1.273Zm0 0"/><path fill="#FFF" stroke="#CCC" stroke-miterlimit="10" stroke-width=".797" d="M279.316 1.363h-47.382a3.984 3.984 0 0 0-3.985 3.989v7.636c0 2.2 1.781 3.985 3.985 3.985h47.382a3.984 3.984 0 0 0 3.985-3.985V5.352a3.984 3.984 0 0 0-3.985-3.989Zm0 0"/><use xlink:href="#a" x="231.268" y="11.66"/><use xlink:href="#b" x="236.154" y="11.66"/><use xlink:href="#c" x="239.947" y="11.66"/><use xlink:href="#d" x="248.627" y="11.66"/><use xlink:href="#e" x="255.027" y="11.66"/><use xlink:href="#f" x="260.455" y="11.66"/><use xlink:href="#b" x="263.164" y="11.66"/><use xlink:href="#f" x="266.958" y="11.66"/><use xlink:href="#g" x="269.668" y="11.66"/><use xlink:href="#h" x="274.554" y="11.66"/><path fill="#FFF" stroke="#CCC" stroke-miterlimit="10" stroke-width=".797" d="M205.219 29.71h-47.383a3.984 3.984 0 0 0-3.984 3.99v7.636c0 2.2 1.78 3.984 3.984 3.984h47.383a3.987 3.987 0 0 0 3.988-3.984v-7.637a3.99 3.99 0 0 0-3.988-3.988Zm0 0"/><use xlink:href="#i" x="157.171" y="40.006"/><use xlink:href="#b" x="162.057" y="40.006"/><use xlink:href="#c" x="165.85" y="40.006"/><use xlink:href="#d" x="174.53" y="40.006"/><use xlink:href="#e" x="180.93" y="40.006"/><use xlink:href="#f" x="186.358" y="40.006"/><use xlink:href="#b" x="189.067" y="40.006"/><use xlink:href="#f" x="192.861" y="40.006"/><use xlink:href="#g" x="195.571" y="40.006"/><use xlink:href="#h" x="200.457" y="40.006"/><path fill="#FFF" stroke="#CCC" stroke-miterlimit="10" stroke-width=".797" d="M320.09 29.71h-38.05a3.987 3.987 0 0 0-3.985 3.99v7.636c0 2.2 1.785 3.984 3.984 3.984h38.05a3.984 3.984 0 0 0 3.985-3.984v-7.637a3.984 3.984 0 0 0-3.984-3.988Zm0 0"/><use xlink:href="#j" x="281.374" y="40.006"/><use xlink:href="#k" x="288.029" y="40.006"/><use xlink:href="#l" x="298.095" y="40.006"/><use xlink:href="#m" x="308.273" y="40.006"/><use xlink:href="#n" x="313.159" y="40.006"/><use xlink:href="#o" x="315.869" y="40.006"/><path fill="#FFF" stroke="#CCC" stroke-miterlimit="10" stroke-width=".797" d="M58.273 58.059H40.97a3.986 3.986 0 0 0-3.985 3.984v7.637a3.984 3.984 0 0 0 3.985 3.984h17.304a3.98 3.98 0 0 0 3.985-3.984v-7.637c0-2.2-1.781-3.984-3.985-3.984Zm0 0"/><use xlink:href="#p" x="40.305" y="68.353"/><use xlink:href="#q" x="46.163" y="68.353"/><use xlink:href="#r" x="51.591" y="68.353"/><path fill="#FFF" stroke="#CCC" stroke-miterlimit="10" stroke-width=".797" d="M269.824 58.059h-26.637a3.984 3.984 0 0 0-3.984 3.984v7.637a3.98 3.98 0 0 0 3.984 3.984h26.637a3.98 3.98 0 0 0 3.985-3.984v-7.637c0-2.2-1.782-3.984-3.985-3.984Zm0 0"/><use xlink:href="#m" x="242.522" y="68.353"/><use xlink:href="#l" x="250.659" y="68.353"/><use xlink:href="#q" x="257.586" y="68.353"/><use xlink:href="#s" x="263.013" y="68.353"/><path fill="#FFF" stroke="#CCC" stroke-miterlimit="10" stroke-width=".797" d="M114.809 58.059H72.023a3.987 3.987 0 0 0-3.988 3.984v7.637a3.984 3.984 0 0 0 3.988 3.984h42.786c2.199 0 3.984-1.781 3.984-3.984v-7.637c0-2.2-1.785-3.984-3.984-3.984Zm0 0"/><use xlink:href="#t" x="71.358" y="68.353"/><use xlink:href="#f" x="80.595" y="68.353"/><use xlink:href="#h" x="83.305" y="68.353"/><use xlink:href="#f" x="88.733" y="68.353"/><use xlink:href="#u" x="94.694" y="68.353"/><use xlink:href="#h" x="102.178" y="68.353"/><use xlink:href="#f" x="107.606" y="68.353"/><use xlink:href="#v" x="110.316" y="68.353"/><path fill="#FFF" stroke="#CCC" stroke-miterlimit="10" stroke-width=".797" d="M177.184 58.059h-48.63a3.986 3.986 0 0 0-3.984 3.984v7.637a3.984 3.984 0 0 0 3.985 3.984h48.629a3.98 3.98 0 0 0 3.984-3.984v-7.637c0-2.2-1.781-3.984-3.984-3.984Zm0 0"/><use xlink:href="#k" x="127.892" y="68.353"/><use xlink:href="#g" x="137.145" y="68.353"/><use xlink:href="#w" x="142.031" y="68.353"/><use xlink:href="#w" x="144.741" y="68.353"/><use xlink:href="#g" x="147.451" y="68.353"/><use xlink:href="#h" x="152.336" y="68.353"/><use xlink:href="#x" x="157.764" y="68.353"/><use xlink:href="#g" x="162.65" y="68.353"/><use xlink:href="#h" x="167.535" y="68.353"/><use xlink:href="#x" x="172.963" y="68.353"/><path fill="#FFF" stroke="#CCC" stroke-miterlimit="10" stroke-width=".797" d="M229.438 58.059h-38.504a3.987 3.987 0 0 0-3.989 3.984v7.637a3.984 3.984 0 0 0 3.989 3.984h38.504a3.98 3.98 0 0 0 3.984-3.984v-7.637c0-2.2-1.781-3.984-3.984-3.984Zm0 0"/><use xlink:href="#y" x="190.268" y="68.353"/><use xlink:href="#h" x="193.926" y="68.353"/><use xlink:href="#b" x="199.083" y="68.353"/><use xlink:href="#z" x="202.877" y="68.353"/><use xlink:href="#A" x="207.348" y="68.353"/><use xlink:href="#e" x="211.381" y="68.353"/><use xlink:href="#B" x="216.808" y="68.353"/><use xlink:href="#b" x="221.559" y="68.353"/><use xlink:href="#B" x="225.352" y="68.353"/><path fill="#FFF" stroke="#CCC" stroke-miterlimit="10" stroke-width=".797" d="M417.61 143.098h-52.29a3.986 3.986 0 0 0-3.984 3.984v7.637a3.984 3.984 0 0 0 3.984 3.984h52.29c2.199 0 3.984-1.781 3.984-3.984v-7.637c0-2.2-1.785-3.984-3.985-3.984Zm0 0"/><use xlink:href="#u" x="364.657" y="153.392"/><use xlink:href="#h" x="372.141" y="153.392"/><use xlink:href="#f" x="377.569" y="153.392"/><use xlink:href="#v" x="380.278" y="153.392"/><use xlink:href="#C" x="385.435" y="153.392"/><use xlink:href="#D" x="390.321" y="153.392"/><use xlink:href="#q" x="397.111" y="153.392"/><use xlink:href="#E" x="405.791" y="153.392"/><use xlink:href="#n" x="410.676" y="153.392"/><use xlink:href="#o" x="413.386" y="153.392"/><path fill="#FFF" d="M438.836 86.406h-38.05a3.984 3.984 0 0 0-3.985 3.985v7.636a3.984 3.984 0 0 0 3.984 3.985h38.05a3.98 3.98 0 0 0 3.985-3.985v-7.636a3.98 3.98 0 0 0-3.984-3.985m0 0"/><g clip-path="url(#F)"><path fill="none" stroke="#CCC" stroke-miterlimit="10" stroke-width=".797" d="M438.836 86.406h-38.05a3.984 3.984 0 0 0-3.985 3.985v7.636a3.984 3.984 0 0 0 3.984 3.985h38.05a3.98 3.98 0 0 0 3.985-3.985v-7.636a3.98 3.98 0 0 0-3.984-3.985Zm0 0"/></g><use xlink:href="#j" x="400.121" y="96.699"/><use xlink:href="#k" x="406.776" y="96.699"/><use xlink:href="#l" x="416.842" y="96.699"/><use xlink:href="#G" x="427.02" y="96.699"/><use xlink:href="#n" x="431.906" y="96.699"/><use xlink:href="#o" x="434.616" y="96.699"/><path fill="#FFF" stroke="#CCC" stroke-miterlimit="10" stroke-width=".797" d="M110.879 86.406H63.496a3.98 3.98 0 0 0-3.984 3.985v7.636a3.98 3.98 0 0 0 3.984 3.985h47.383a3.984 3.984 0 0 0 3.988-3.985v-7.636a3.984 3.984 0 0 0-3.988-3.985Zm0 0"/><use xlink:href="#H" x="62.831" y="96.699"/><use xlink:href="#b" x="67.717" y="96.699"/><use xlink:href="#c" x="71.51" y="96.699"/><use xlink:href="#d" x="80.19" y="96.699"/><use xlink:href="#e" x="86.59" y="96.699"/><use xlink:href="#f" x="92.018" y="96.699"/><use xlink:href="#b" x="94.727" y="96.699"/><use xlink:href="#f" x="98.521" y="96.699"/><use xlink:href="#g" x="101.231" y="96.699"/><use xlink:href="#h" x="106.117" y="96.699"/><path fill="#FFF" stroke="#CCC" stroke-miterlimit="10" stroke-width=".797" d="M192.441 228.137H145.06a3.984 3.984 0 0 0-3.985 3.984v7.637a3.984 3.984 0 0 0 3.985 3.988h47.382a3.984 3.984 0 0 0 3.985-3.988v-7.637c0-2.2-1.781-3.984-3.985-3.984Zm0 0"/><use xlink:href="#I" x="144.394" y="238.431"/><use xlink:href="#b" x="149.28" y="238.431"/><use xlink:href="#c" x="153.073" y="238.431"/><use xlink:href="#d" x="161.753" y="238.431"/><use xlink:href="#e" x="168.153" y="238.431"/><use xlink:href="#f" x="173.581" y="238.431"/><use xlink:href="#b" x="176.29" y="238.431"/><use xlink:href="#f" x="180.084" y="238.431"/><use xlink:href="#g" x="182.794" y="238.431"/><use xlink:href="#h" x="187.68" y="238.431"/><path fill="#FFF" stroke="#CCC" stroke-miterlimit="10" stroke-width=".797" d="M32.371 114.75H16.578a3.987 3.987 0 0 0-3.984 3.988v7.637c0 2.2 1.785 3.984 3.984 3.984h15.793c2.2 0 3.984-1.785 3.984-3.984v-7.637a3.987 3.987 0 0 0-3.984-3.988Zm0 0"/><use xlink:href="#E" x="15.915" y="125.046"/><use xlink:href="#G" x="20.801" y="125.046"/><use xlink:href="#J" x="25.686" y="125.046"/><path fill="#FFF" stroke="#CCC" stroke-miterlimit="10" stroke-width=".797" d="M125.605 199.79h-20.144a3.986 3.986 0 0 0-3.984 3.983v7.641c0 2.2 1.785 3.984 3.984 3.984h20.144c2.2 0 3.985-1.785 3.985-3.984v-7.64c0-2.2-1.785-3.985-3.985-3.985Zm0 0"/><use xlink:href="#J" x="104.798" y="210.085"/><use xlink:href="#H" x="112.146" y="210.085"/><use xlink:href="#t" x="117.032" y="210.085"/><path fill="#FFF" stroke="#CCC" stroke-miterlimit="10" stroke-width=".797" d="M105.98 256.484H68.398a3.98 3.98 0 0 0-3.984 3.985v7.636c0 2.2 1.781 3.985 3.984 3.985h37.582c2.2 0 3.985-1.785 3.985-3.985v-7.636a3.984 3.984 0 0 0-3.985-3.985Zm0 0"/><use xlink:href="#u" x="67.732" y="266.778"/><use xlink:href="#w" x="75.216" y="266.778"/><use xlink:href="#b" x="77.926" y="266.778"/><use xlink:href="#A" x="81.72" y="266.778"/><use xlink:href="#f" x="85.752" y="266.778"/><use xlink:href="#v" x="88.462" y="266.778"/><use xlink:href="#K" x="93.619" y="266.778"/><use xlink:href="#m" x="96.871" y="266.778"/><use xlink:href="#m" x="101.756" y="266.778"/><path fill="#FFF" stroke="#CCC" stroke-miterlimit="10" stroke-width=".797" d="M155.773 114.75h-23.785a3.984 3.984 0 0 0-3.984 3.988v7.637c0 2.2 1.781 3.984 3.984 3.984h23.785c2.2 0 3.985-1.785 3.985-3.984v-7.637a3.987 3.987 0 0 0-3.985-3.988Zm0 0"/><use xlink:href="#r" x="131.323" y="125.046"/><use xlink:href="#z" x="138.671" y="125.046"/><use xlink:href="#h" x="143.143" y="125.046"/><use xlink:href="#f" x="148.57" y="125.046"/><use xlink:href="#v" x="151.28" y="125.046"/><path fill="#FFF" stroke="#CCC" stroke-miterlimit="10" stroke-width=".797" d="M210.05 114.75h-40.53a3.987 3.987 0 0 0-3.985 3.988v7.637c0 2.2 1.785 3.984 3.985 3.984h40.53a3.984 3.984 0 0 0 3.985-3.984v-7.637a3.984 3.984 0 0 0-3.984-3.988Zm0 0"/><use xlink:href="#u" x="168.857" y="125.046"/><use xlink:href="#h" x="176.341" y="125.046"/><use xlink:href="#f" x="181.769" y="125.046"/><use xlink:href="#j" x="184.478" y="125.046"/><use xlink:href="#w" x="191.133" y="125.046"/><use xlink:href="#L" x="193.843" y="125.046"/><use xlink:href="#M" x="199.271" y="125.046"/><use xlink:href="#N" x="203.121" y="125.046"/><path fill="#FFF" stroke="#CCC" stroke-miterlimit="10" stroke-width=".797" d="M167.113 256.484h-47.386a3.984 3.984 0 0 0-3.985 3.985v7.636c0 2.2 1.785 3.985 3.985 3.985h47.386c2.2 0 3.985-1.785 3.985-3.985v-7.636a3.984 3.984 0 0 0-3.985-3.985Zm0 0"/><use xlink:href="#O" x="119.062" y="266.778"/><use xlink:href="#b" x="123.948" y="266.778"/><use xlink:href="#c" x="127.741" y="266.778"/><use xlink:href="#d" x="136.421" y="266.778"/><use xlink:href="#e" x="142.821" y="266.778"/><use xlink:href="#f" x="148.249" y="266.778"/><use xlink:href="#b" x="150.958" y="266.778"/><use xlink:href="#f" x="154.752" y="266.778"/><use xlink:href="#g" x="157.462" y="266.778"/><use xlink:href="#h" x="162.348" y="266.778"/><path fill="#FFF" stroke="#CCC" stroke-miterlimit="10" stroke-width=".797" d="M72.16 143.098H45.523a3.987 3.987 0 0 0-3.988 3.984v7.637a3.984 3.984 0 0 0 3.988 3.984H72.16c2.2 0 3.985-1.781 3.985-3.984v-7.637c0-2.2-1.786-3.984-3.985-3.984Zm0 0"/><use xlink:href="#G" x="44.858" y="153.392"/><use xlink:href="#l" x="52.988" y="153.392"/><use xlink:href="#q" x="59.914" y="153.392"/><use xlink:href="#s" x="65.341" y="153.392"/><path fill="#FFF" stroke="#CCC" stroke-miterlimit="10" stroke-width=".797" d="M75.957 228.137H41.723a3.986 3.986 0 0 0-3.985 3.984v7.637a3.987 3.987 0 0 0 3.985 3.988h34.234a3.984 3.984 0 0 0 3.984-3.988v-7.637c0-2.2-1.78-3.984-3.984-3.984Zm0 0"/><use xlink:href="#G" x="41.06" y="238.431"/><use xlink:href="#n" x="45.946" y="238.431"/><use xlink:href="#I" x="48.656" y="238.431"/><use xlink:href="#l" x="56.793" y="238.431"/><use xlink:href="#q" x="63.719" y="238.431"/><use xlink:href="#s" x="69.147" y="238.431"/><path fill="#FFF" stroke="#CCC" stroke-miterlimit="10" stroke-width=".797" d="M215.094 256.484h-34.235a3.98 3.98 0 0 0-3.984 3.985v7.636c0 2.2 1.781 3.985 3.984 3.985h34.235c2.199 0 3.984-1.785 3.984-3.985v-7.636a3.984 3.984 0 0 0-3.984-3.985Zm0 0"/><use xlink:href="#G" x="180.195" y="266.778"/><use xlink:href="#n" x="185.081" y="266.778"/><use xlink:href="#O" x="187.791" y="266.778"/><use xlink:href="#l" x="195.928" y="266.778"/><use xlink:href="#q" x="202.854" y="266.778"/><use xlink:href="#s" x="208.282" y="266.778"/><path fill="#FFF" stroke="#CCC" stroke-miterlimit="10" stroke-width=".797" d="M31.773 143.098H5.137a3.984 3.984 0 0 0-3.985 3.984v7.637a3.98 3.98 0 0 0 3.985 3.984h26.636a3.98 3.98 0 0 0 3.985-3.984v-7.637c0-2.2-1.781-3.984-3.985-3.984Zm0 0"/><use xlink:href="#E" x="4.471" y="153.392"/><use xlink:href="#l" x="12.608" y="153.392"/><use xlink:href="#q" x="19.535" y="153.392"/><use xlink:href="#s" x="24.962" y="153.392"/><path fill="#FFF" stroke="#CCC" stroke-miterlimit="10" stroke-width=".797" d="M37.793 171.445H11.156a3.98 3.98 0 0 0-3.984 3.985v7.636a3.98 3.98 0 0 0 3.984 3.985h26.637a3.98 3.98 0 0 0 3.984-3.985v-7.636a3.98 3.98 0 0 0-3.984-3.985Zm0 0"/><use xlink:href="#P" x="10.491" y="181.738"/><use xlink:href="#l" x="18.628" y="181.738"/><use xlink:href="#q" x="25.555" y="181.738"/><use xlink:href="#s" x="30.982" y="181.738"/><path fill="#FFF" stroke="#CCC" stroke-miterlimit="10" stroke-width=".797" d="M47.613 199.79H13.38a3.984 3.984 0 0 0-3.984 3.983v7.641c0 2.2 1.78 3.984 3.984 3.984h34.234c2.2 0 3.985-1.785 3.985-3.984v-7.64c0-2.2-1.785-3.985-3.985-3.985Zm0 0"/><use xlink:href="#P" x="12.713" y="210.085"/><use xlink:href="#n" x="17.599" y="210.085"/><use xlink:href="#m" x="20.309" y="210.085"/><use xlink:href="#l" x="28.446" y="210.085"/><use xlink:href="#q" x="35.372" y="210.085"/><use xlink:href="#s" x="40.8" y="210.085"/><path fill="#FFF" stroke="#CCC" stroke-miterlimit="10" stroke-width=".797" d="M263.074 228.137H228.84a3.986 3.986 0 0 0-3.985 3.984v7.637a3.987 3.987 0 0 0 3.985 3.988h34.234a3.984 3.984 0 0 0 3.985-3.988v-7.637c0-2.2-1.782-3.984-3.985-3.984Zm0 0"/><use xlink:href="#P" x="228.177" y="238.431"/><use xlink:href="#n" x="233.063" y="238.431"/><use xlink:href="#G" x="235.773" y="238.431"/><use xlink:href="#l" x="243.91" y="238.431"/><use xlink:href="#q" x="250.836" y="238.431"/><use xlink:href="#s" x="256.264" y="238.431"/><path fill="#FFF" stroke="#CCC" stroke-miterlimit="10" stroke-width=".797" d="M263.074 256.484H228.84a3.984 3.984 0 0 0-3.985 3.985v7.636c0 2.2 1.786 3.985 3.985 3.985h34.234a3.984 3.984 0 0 0 3.985-3.985v-7.636a3.98 3.98 0 0 0-3.985-3.985Zm0 0"/><use xlink:href="#P" x="228.177" y="266.778"/><use xlink:href="#n" x="233.063" y="266.778"/><use xlink:href="#E" x="235.773" y="266.778"/><use xlink:href="#l" x="243.91" y="266.778"/><use xlink:href="#q" x="250.836" y="266.778"/><use xlink:href="#s" x="256.264" y="266.778"/><path fill="#FFF" stroke="#CCC" stroke-miterlimit="10" stroke-width=".797" d="M314.406 256.484h-37.582a3.98 3.98 0 0 0-3.984 3.985v7.636c0 2.2 1.781 3.985 3.984 3.985h37.582c2.2 0 3.985-1.785 3.985-3.985v-7.636a3.984 3.984 0 0 0-3.985-3.985Zm0 0"/><use xlink:href="#u" x="276.159" y="266.778"/><use xlink:href="#w" x="283.643" y="266.778"/><use xlink:href="#b" x="286.353" y="266.778"/><use xlink:href="#A" x="290.147" y="266.778"/><use xlink:href="#f" x="294.179" y="266.778"/><use xlink:href="#v" x="296.889" y="266.778"/><use xlink:href="#K" x="302.046" y="266.778"/><use xlink:href="#E" x="305.298" y="266.778"/><use xlink:href="#G" x="310.183" y="266.778"/><path fill="#FFF" stroke="#CCC" stroke-miterlimit="10" stroke-width=".797" d="M404.598 58.059h-38.055a3.986 3.986 0 0 0-3.984 3.984v7.637a3.984 3.984 0 0 0 3.984 3.984h38.055c2.199 0 3.984-1.781 3.984-3.984v-7.637c0-2.2-1.785-3.984-3.984-3.984Zm0 0"/><use xlink:href="#j" x="365.88" y="68.353"/><use xlink:href="#k" x="372.535" y="68.353"/><use xlink:href="#l" x="382.601" y="68.353"/><use xlink:href="#m" x="392.779" y="68.353"/><use xlink:href="#n" x="397.665" y="68.353"/><use xlink:href="#G" x="400.375" y="68.353"/><path fill="#FFF" stroke="#CCC" stroke-miterlimit="10" stroke-width=".797" d="M318.555 58.059h-34.98a3.984 3.984 0 0 0-3.985 3.984v7.637a3.98 3.98 0 0 0 3.984 3.984h34.98a3.984 3.984 0 0 0 3.989-3.984v-7.637c0-2.2-1.785-3.984-3.988-3.984Zm0 0"/><use xlink:href="#u" x="282.909" y="68.353"/><use xlink:href="#q" x="290.393" y="68.353"/><use xlink:href="#Q" x="295.821" y="68.353"/><use xlink:href="#m" x="306.74" y="68.353"/><use xlink:href="#n" x="311.625" y="68.353"/><use xlink:href="#o" x="314.335" y="68.353"/><path fill="#FFF" stroke="#CCC" stroke-miterlimit="10" stroke-width=".797" d="M269.824 86.406h-44.816a3.98 3.98 0 0 0-3.985 3.985v7.636a3.98 3.98 0 0 0 3.985 3.985h44.816a3.98 3.98 0 0 0 3.985-3.985v-7.636a3.98 3.98 0 0 0-3.985-3.985Zm0 0"/><use xlink:href="#R" x="224.342" y="96.699"/><use xlink:href="#l" x="231.396" y="96.699"/><use xlink:href="#u" x="241.573" y="96.699"/><use xlink:href="#h" x="249.057" y="96.699"/><use xlink:href="#f" x="254.485" y="96.699"/><use xlink:href="#v" x="257.195" y="96.699"/><use xlink:href="#m" x="265.603" y="96.699"/><path fill="#FFF" stroke="#CCC" stroke-miterlimit="10" stroke-width=".797" d="M318.555 86.406h-34.98a3.98 3.98 0 0 0-3.985 3.985v7.636a3.98 3.98 0 0 0 3.984 3.985h34.98a3.984 3.984 0 0 0 3.989-3.985v-7.636a3.984 3.984 0 0 0-3.988-3.985Zm0 0"/><use xlink:href="#u" x="282.909" y="96.699"/><use xlink:href="#q" x="290.393" y="96.699"/><use xlink:href="#Q" x="295.821" y="96.699"/><use xlink:href="#G" x="306.74" y="96.699"/><use xlink:href="#n" x="311.625" y="96.699"/><use xlink:href="#o" x="314.335" y="96.699"/><path fill="#FFF" stroke="#CCC" stroke-miterlimit="10" stroke-width=".797" d="M269.824 114.75h-44.816a3.984 3.984 0 0 0-3.985 3.988v7.637c0 2.2 1.782 3.984 3.985 3.984h44.816a3.984 3.984 0 0 0 3.985-3.984v-7.637a3.984 3.984 0 0 0-3.985-3.988Zm0 0"/><use xlink:href="#R" x="224.342" y="125.046"/><use xlink:href="#l" x="231.396" y="125.046"/><use xlink:href="#u" x="241.573" y="125.046"/><use xlink:href="#h" x="249.057" y="125.046"/><use xlink:href="#f" x="254.485" y="125.046"/><use xlink:href="#v" x="257.195" y="125.046"/><use xlink:href="#G" x="265.603" y="125.046"/><path fill="#FFF" stroke="#CCC" stroke-miterlimit="10" stroke-width=".797" d="M351.574 143.098h-44.82a3.986 3.986 0 0 0-3.984 3.984v7.637a3.984 3.984 0 0 0 3.984 3.984h44.82c2.2 0 3.985-1.781 3.985-3.984v-7.637c0-2.2-1.786-3.984-3.985-3.984Zm0 0"/><use xlink:href="#R" x="306.091" y="153.392"/><use xlink:href="#l" x="313.145" y="153.392"/><use xlink:href="#u" x="323.322" y="153.392"/><use xlink:href="#h" x="330.806" y="153.392"/><use xlink:href="#f" x="336.234" y="153.392"/><use xlink:href="#v" x="338.944" y="153.392"/><use xlink:href="#E" x="347.352" y="153.392"/><path fill="#FFF" stroke="#CCC" stroke-miterlimit="10" stroke-width=".797" d="M355.035 171.445h-51.742a3.984 3.984 0 0 0-3.988 3.985v7.636a3.984 3.984 0 0 0 3.988 3.985h51.742a3.98 3.98 0 0 0 3.985-3.985v-7.636a3.98 3.98 0 0 0-3.985-3.985Zm0 0"/><use xlink:href="#u" x="302.628" y="181.738"/><use xlink:href="#h" x="310.112" y="181.738"/><use xlink:href="#f" x="315.54" y="181.738"/><use xlink:href="#v" x="318.249" y="181.738"/><use xlink:href="#C" x="323.406" y="181.738"/><use xlink:href="#D" x="328.292" y="181.738"/><use xlink:href="#q" x="335.082" y="181.738"/><use xlink:href="#N" x="340.51" y="181.738"/><use xlink:href="#N" x="348.105" y="181.738"/><path fill="#FFF" stroke="#CCC" stroke-miterlimit="10" stroke-width=".797" d="M289.543 171.445h-60.766a3.984 3.984 0 0 0-3.984 3.985v7.636a3.984 3.984 0 0 0 3.984 3.985h60.766a3.984 3.984 0 0 0 3.988-3.985v-7.636a3.984 3.984 0 0 0-3.988-3.985Zm0 0"/><use xlink:href="#j" x="228.113" y="181.738"/><use xlink:href="#s" x="234.768" y="181.738"/><use xlink:href="#j" x="242.244" y="181.738"/><use xlink:href="#K" x="248.899" y="181.738"/><use xlink:href="#m" x="252.151" y="181.738"/><use xlink:href="#m" x="257.037" y="181.738"/><use xlink:href="#q" x="265.174" y="181.738"/><use xlink:href="#S" x="270.602" y="181.738"/><use xlink:href="#M" x="275.758" y="181.738"/><use xlink:href="#J" x="282.86" y="181.738"/><path fill="#FFF" stroke="#CCC" stroke-miterlimit="10" stroke-width=".797" d="M318.555 114.75h-34.98a3.984 3.984 0 0 0-3.985 3.988v7.637c0 2.2 1.781 3.984 3.984 3.984h34.98a3.987 3.987 0 0 0 3.989-3.984v-7.637a3.99 3.99 0 0 0-3.988-3.988Zm0 0"/><use xlink:href="#u" x="282.909" y="125.046"/><use xlink:href="#q" x="290.393" y="125.046"/><use xlink:href="#Q" x="295.821" y="125.046"/><use xlink:href="#E" x="306.74" y="125.046"/><use xlink:href="#n" x="311.625" y="125.046"/><use xlink:href="#o" x="314.335" y="125.046"/><path fill="#FFF" stroke="#CCC" stroke-miterlimit="10" stroke-width=".797" d="M384.59 114.75h-52.285a3.984 3.984 0 0 0-3.985 3.988v7.637c0 2.2 1.782 3.984 3.985 3.984h52.285a3.984 3.984 0 0 0 3.984-3.984v-7.637a3.984 3.984 0 0 0-3.984-3.988Zm0 0"/><use xlink:href="#u" x="331.64" y="125.046"/><use xlink:href="#h" x="339.124" y="125.046"/><use xlink:href="#f" x="344.552" y="125.046"/><use xlink:href="#v" x="347.261" y="125.046"/><use xlink:href="#C" x="352.418" y="125.046"/><use xlink:href="#D" x="357.304" y="125.046"/><use xlink:href="#q" x="364.094" y="125.046"/><use xlink:href="#m" x="372.774" y="125.046"/><use xlink:href="#n" x="377.659" y="125.046"/><use xlink:href="#o" x="380.369" y="125.046"/><path fill="#FFF" stroke="#CCC" stroke-miterlimit="10" stroke-width=".797" d="M375.223 199.79h-26.625a3.986 3.986 0 0 0-3.985 3.983v7.641c0 2.2 1.785 3.984 3.985 3.984h26.625c2.199 0 3.984-1.785 3.984-3.984v-7.64c0-2.2-1.785-3.985-3.984-3.985Zm0 0"/><use xlink:href="#D" x="347.935" y="210.085"/><use xlink:href="#q" x="354.726" y="210.085"/><use xlink:href="#P" x="363.405" y="210.085"/><use xlink:href="#n" x="368.291" y="210.085"/><use xlink:href="#o" x="371" y="210.085"/><path fill="#FFF" stroke="#CCC" stroke-miterlimit="10" stroke-width=".797" d="M385.762 228.137h-47.703a3.984 3.984 0 0 0-3.985 3.984v7.637a3.984 3.984 0 0 0 3.985 3.988h47.703c2.199 0 3.984-1.785 3.984-3.988v-7.637c0-2.2-1.785-3.984-3.984-3.984Zm0 0"/><use xlink:href="#q" x="337.394" y="238.431"/><use xlink:href="#S" x="342.822" y="238.431"/><use xlink:href="#M" x="347.978" y="238.431"/><use xlink:href="#b" x="351.828" y="238.431"/><use xlink:href="#z" x="355.622" y="238.431"/><use xlink:href="#T" x="360.093" y="238.431"/><use xlink:href="#J" x="371.482" y="238.431"/><use xlink:href="#n" x="378.831" y="238.431"/><use xlink:href="#o" x="381.54" y="238.431"/><path fill="#FFF" stroke="#CCC" stroke-miterlimit="10" stroke-width=".797" d="M385.762 256.484h-47.703a3.98 3.98 0 0 0-3.985 3.985v7.636c0 2.2 1.781 3.985 3.985 3.985h47.703c2.199 0 3.984-1.785 3.984-3.985v-7.636a3.984 3.984 0 0 0-3.984-3.985Zm0 0"/><use xlink:href="#q" x="337.394" y="266.778"/><use xlink:href="#S" x="342.822" y="266.778"/><use xlink:href="#M" x="347.978" y="266.778"/><use xlink:href="#b" x="351.828" y="266.778"/><use xlink:href="#z" x="355.622" y="266.778"/><use xlink:href="#T" x="360.093" y="266.778"/><use xlink:href="#J" x="371.482" y="266.778"/><use xlink:href="#n" x="378.831" y="266.778"/><use xlink:href="#G" x="381.54" y="266.778"/><path fill="#FFF" d="M385.762 284.832h-47.703a3.98 3.98 0 0 0-3.985 3.984v7.637c0 2.2 1.781 3.985 3.985 3.985h47.703c2.199 0 3.984-1.786 3.984-3.985v-7.637a3.984 3.984 0 0 0-3.984-3.984m0 0"/><g clip-path="url(#U)"><path fill="none" stroke="#CCC" stroke-miterlimit="10" stroke-width=".797" d="M385.762 284.832h-47.703a3.98 3.98 0 0 0-3.985 3.984v7.637c0 2.2 1.781 3.985 3.985 3.985h47.703c2.199 0 3.984-1.786 3.984-3.985v-7.637a3.984 3.984 0 0 0-3.984-3.984Zm0 0"/></g><use xlink:href="#q" x="337.394" y="295.124"/><use xlink:href="#S" x="342.822" y="295.124"/><use xlink:href="#M" x="347.978" y="295.124"/><use xlink:href="#b" x="351.828" y="295.124"/><use xlink:href="#z" x="355.622" y="295.124"/><use xlink:href="#T" x="360.093" y="295.124"/><use xlink:href="#J" x="371.482" y="295.124"/><use xlink:href="#n" x="378.831" y="295.124"/><use xlink:href="#E" x="381.54" y="295.124"/></svg>