<svg xmlns="http://www.w3.org/2000/svg" xmlns:xlink="http://www.w3.org/1999/xlink" width="93.026" height="73.28"><defs><path id="a" d="M5.719-2.031c0-1.094-.797-1.906-1.719-2.094l-1.437-.312c-.407-.094-.954-.422-.954-1.032 0-.437.282-1.047 1.266-1.047.797 0 1.813.329 2.047 1.688.031.25.031.266.234.266.25 0 .25-.047.25-.282v-1.828c0-.187 0-.281-.187-.281-.078 0-.078.016-.188.11l-.453.437C4-6.86 3.344-6.953 2.875-6.953c-1.516 0-2.234.969-2.234 2.016 0 .64.328 1.093.53 1.312.5.5.829.563 1.923.797.875.203 1.047.219 1.265.437.141.141.391.407.391.86 0 .484-.25 1.172-1.297 1.172-.75 0-2.265-.203-2.344-1.688-.015-.172-.015-.219-.234-.219-.234 0-.234.047-.234.282v1.812C.64.016.64.11.813.11.906.11.922.094 1 .016l.469-.453c.656.484 1.578.546 1.984.546C5.11.11 5.72-1.016 5.72-2.03m0 0"/><path id="b" d="M3.813-1.234v-.532h-.47v.516c0 .672-.327.906-.609.906-.578 0-.578-.64-.578-.86v-2.75h1.469v-.468H2.156v-1.906h-.469c0 1-.484 1.984-1.484 2.016v.359h.828v2.734c0 1.063.86 1.282 1.578 1.282.75 0 1.204-.579 1.204-1.297m0 0"/><path id="c" d="M6.125 0v-.469c-.61 0-.687 0-.687-.39v-3.625l-1.813.078v.468c.61 0 .688 0 .688.391v1.906c0 .813-.516 1.344-1.235 1.344-.781 0-.812-.25-.812-.797v-3.39l-1.813.078v.468c.61 0 .688 0 .688.391v2.328c0 1.063.797 1.282 1.797 1.282.25 0 .968 0 1.421-.782v.782Zm0 0"/><path id="d" d="M5.984 0v-.469c-.609 0-.687 0-.687-.39v-6.063l-1.766.078v.469c.625 0 .703 0 .703.39v1.954a2.18 2.18 0 0 0-1.359-.453c-1.453 0-2.5.875-2.5 2.28 0 1.313.922 2.267 2.39 2.267.61 0 1.094-.235 1.407-.485v.485ZM4.172-1.031c-.14.187-.547.734-1.297.734-1.219 0-1.219-1.203-1.219-1.906 0-.485 0-1.016.25-1.406.297-.422.766-.516 1.078-.516.563 0 .97.313 1.188.61Zm0 0"/><path id="e" d="M4.922-1.172c0-.172-.188-.172-.234-.172-.172 0-.188.047-.25.203-.204.485-.782.797-1.422.797-1.407 0-1.422-1.328-1.422-1.828h3.015c.22 0 .313 0 .313-.265 0-.313-.063-1.047-.563-1.547-.359-.36-.89-.532-1.578-.532C1.187-4.516.313-3.484.313-2.25c0 1.344 1 2.313 2.609 2.313 1.578 0 2-1.063 2-1.235M3.984-2.5h-2.39c.015-.39.031-.812.234-1.14.266-.391.672-.516.953-.516 1.172 0 1.188 1.312 1.203 1.656m0 0"/><path id="f" d="M6.125 0v-.469h-.687v-2.578c0-1.047-.532-1.437-1.532-1.437-.953 0-1.484.562-1.75 1.078v-1.078l-1.703.078v.468c.61 0 .688 0 .688.391v3.078H.453V0l1.25-.031L2.953 0v-.469h-.687v-2.078c0-1.094.859-1.578 1.5-1.578.328 0 .547.203.547.969V-.47h-.688V0l1.25-.031Zm0 0"/><path id="g" d="M5.516-.234c0-.235-.125-.235-.266-.235-.61-.015-.61-.14-.61-.375v-2.14c0-.891-.702-1.532-2.187-1.532-.562 0-1.781.047-1.781.922 0 .438.344.625.61.625.312 0 .624-.219.624-.625 0-.297-.187-.469-.218-.5a5 5 0 0 1 .718-.062c.75 0 1.11.422 1.11 1.172v.343c-.72.032-3.25.125-3.25 1.563C.266-.125 1.5.062 2.188.062c.796 0 1.265-.406 1.484-.828 0 .313 0 .766 1.047.766h.468c.204 0 .329 0 .329-.234m-2-1.157c0 .97-.922 1.094-1.172 1.094-.516 0-.906-.344-.906-.797 0-1.062 1.578-1.203 2.078-1.234Zm0 0"/><path id="h" d="M5.563-3.953c0-.235-.172-.578-.625-.578-.157 0-.625.031-1.063.375-.172-.125-.594-.328-1.328-.328-1.438 0-1.985.78-1.985 1.468 0 .407.188.829.516 1.047-.281.36-.344.688-.344.89 0 .157.047.642.438.954-.125.031-.86.25-.86.875C.313 1.25.876 2 2.86 2 4.625 2 5.406 1.422 5.406.719c0-.297-.078-.922-.75-1.266-.562-.281-1.156-.281-2.11-.281-.265 0-.718 0-.765-.016a.625.625 0 0 1-.562-.625c0-.093.047-.25.11-.328.452.234.968.266 1.218.266 1.437 0 1.984-.782 1.984-1.485 0-.468-.25-.796-.406-.953.297-.156.516-.172.625-.187a.43.43 0 0 0-.047.203c0 .25.172.422.438.422a.41.41 0 0 0 .422-.422m-2.141.937c0 .454 0 1.125-.875 1.125s-.875-.671-.875-1.125c0-.437 0-1.109.875-1.109s.875.672.875 1.11M4.547.75c0 .36-.39.89-1.688.89-1.187 0-1.687-.452-1.687-.906 0-.609.625-.609.766-.609h1.171c.313 0 1.438 0 1.438.625m0 0"/><path id="i" d="M2.36-3.656a.77.77 0 0 0-.782-.766.767.767 0 0 0-.766.766.774.774 0 1 0 1.547 0m0 2.875a.784.784 0 0 0-.782-.781.78.78 0 0 0-.766.78.774.774 0 1 0 1.547 0m0 0"/><path id="j" d="M2.844 0v-.469h-.61v-4.015L.5-4.406v.468c.594 0 .656 0 .656.391v3.078H.47V0l1.219-.031Zm-.469-6.047a.774.774 0 0 0-.781-.781.784.784 0 0 0-.782.781c0 .422.36.766.782.766a.77.77 0 0 0 .781-.766m0 0"/><path id="k" d="M9.328 0v-.469h-.687v-2.578c0-1.031-.516-1.437-1.547-1.437-.907 0-1.422.5-1.688.953-.187-.922-1.11-.953-1.484-.953-.875 0-1.438.453-1.766 1.078v-1.078l-1.703.078v.468c.61 0 .688 0 .688.391v3.078H.453V0l1.25-.031L2.953 0v-.469h-.687v-2.078c0-1.094.875-1.578 1.5-1.578.328 0 .547.203.547.969V-.47h-.688V0l1.266-.031L6.14 0v-.469h-.688v-2.078c0-1.094.86-1.578 1.484-1.578.344 0 .563.203.563.969V-.47h-.687V0l1.25-.031Zm0 0"/><path id="l" d="M4.406-3.672c0-.531-.531-.812-1.062-.812-.688 0-1.094.5-1.313 1.125v-1.125l-1.656.078v.468c.61 0 .688 0 .688.391v3.078H.375V0l1.25-.031C2-.031 2.641-.031 3 0v-.469h-.86v-1.75c0-.687.235-1.906 1.235-1.906 0 0-.187.172-.187.453 0 .406.328.61.609.61.297 0 .61-.204.61-.61m0 0"/><path id="m" d="M8.25 0v-.469h-.969L4.72-6.703c-.11-.25-.219-.25-.39-.25-.282 0-.329.078-.391.25l-2.47 6c-.062.156-.093.234-.843.234H.406V0l1.172-.031c.39 0 .938 0 1.313.031v-.469S2-.469 2-.594l.047-.125.5-1.203h2.672l.593 1.453H4.86V0c.391-.031 1.329-.031 1.766-.031.39 0 1.266 0 1.625.031M5.016-2.39H2.734l1.141-2.766Zm0 0"/><path id="n" d="M3.813 2.344c0-.047-.032-.094-.032-.094-.297-.281-.937-.89-1.36-2.156-.265-.797-.374-1.703-.374-2.594 0-1.953.5-3.516 1.61-4.625.14-.156.155-.156.155-.219 0-.11-.109-.14-.187-.14-.172 0-.578.375-.766.547C1.313-5.391 1.08-3.562 1.08-2.5c0 1.25.327 2.344.796 3.172.656 1.14 1.563 1.812 1.75 1.812.078 0 .188-.03.188-.14m0 0"/><path id="o" d="M3.375-2.5c0-1.234-.328-2.328-.797-3.156C1.906-6.813 1-7.484.813-7.484c-.079 0-.172.03-.172.14 0 .063 0 .078.172.235C2.063-5.83 2.406-4.062 2.406-2.5c0 1.969-.515 3.531-1.61 4.64-.155.141-.155.157-.155.204 0 .11.093.14.172.14.171 0 .593-.375.765-.546C3.141.406 3.375-1.437 3.375-2.5m0 0"/><path id="p" d="M8.578-6.375v-.469c-.39.032-.953.032-1.344.032-.421 0-.937 0-1.343-.032v.469h.25c.172 0 .343.016.53.031.282.032.298.047.298.266v4.031L3-6.703c-.11-.125-.125-.14-.328-.14H.39v.468h1.078V-.75c0 .219-.016.219-.297.25-.234.031-.25.031-.531.031H.39V0c.375-.031.937-.031 1.328-.031.422 0 .937 0 1.36.031v-.469h-.25c-.188 0-.36-.015-.532-.031C2-.531 2-.531 2-.75v-5.219L6.953-.125c.11.11.11.125.281.125C7.5 0 7.5-.094 7.5-.312v-5.766c0-.219 0-.234.281-.266.25-.031.266-.031.547-.031Zm0 0"/></defs><path fill="none" stroke="#000" stroke-miterlimit="10" stroke-width=".399" d="M.73 71.719h84.594V.855H.73Zm84.594-56.77H.73m84.594 27.824H.73"/><use xlink:href="#a" x="23.376" y="11.321"/><use xlink:href="#b" x="29.742" y="11.321"/><use xlink:href="#c" x="34.195" y="11.321"/><use xlink:href="#d" x="40.562" y="11.321"/><use xlink:href="#e" x="46.928" y="11.321"/><use xlink:href="#f" x="52.178" y="11.321"/><use xlink:href="#b" x="58.225" y="11.321"/><use xlink:href="#g" x="4.051" y="25.295"/><use xlink:href="#h" x="9.62" y="25.295"/><use xlink:href="#e" x="15.349" y="25.295"/><use xlink:href="#i" x="20.599" y="25.295"/><use xlink:href="#j" x="23.777" y="25.295"/><use xlink:href="#f" x="26.955" y="25.295"/><use xlink:href="#b" x="33.002" y="25.295"/><use xlink:href="#f" x="4.051" y="37.25"/><use xlink:href="#g" x="10.417" y="37.25"/><use xlink:href="#k" x="15.986" y="37.25"/><use xlink:href="#e" x="25.53" y="37.25"/><use xlink:href="#i" x="30.781" y="37.25"/><use xlink:href="#a" x="33.959" y="37.25"/><use xlink:href="#b" x="40.325" y="37.25"/><use xlink:href="#l" x="44.778" y="37.25"/><use xlink:href="#j" x="49.501" y="37.25"/><use xlink:href="#f" x="52.679" y="37.25"/><use xlink:href="#h" x="59.045" y="37.25"/><use xlink:href="#h" x="4.051" y="53.764"/><use xlink:href="#e" x="9.78" y="53.764"/><use xlink:href="#b" x="15.03" y="53.764"/><use xlink:href="#m" x="19.483" y="53.764"/><use xlink:href="#h" x="28.141" y="53.764"/><use xlink:href="#e" x="33.869" y="53.764"/><use xlink:href="#n" x="39.119" y="53.764"/><use xlink:href="#o" x="43.573" y="53.764"/><use xlink:href="#i" x="48.026" y="53.764"/><use xlink:href="#j" x="51.204" y="53.764"/><use xlink:href="#f" x="54.382" y="53.764"/><use xlink:href="#b" x="60.43" y="53.764"/><use xlink:href="#h" x="4.051" y="65.719"/><use xlink:href="#e" x="9.78" y="65.719"/><use xlink:href="#b" x="15.03" y="65.719"/><use xlink:href="#p" x="19.483" y="65.719"/><use xlink:href="#g" x="28.45" y="65.719"/><use xlink:href="#k" x="34.019" y="65.719"/><use xlink:href="#e" x="43.563" y="65.719"/><use xlink:href="#n" x="48.813" y="65.719"/><use xlink:href="#o" x="53.266" y="65.719"/><use xlink:href="#i" x="57.72" y="65.719"/><use xlink:href="#a" x="60.898" y="65.719"/><use xlink:href="#b" x="67.264" y="65.719"/><use xlink:href="#l" x="71.717" y="65.719"/><use xlink:href="#j" x="76.44" y="65.719"/><use xlink:href="#f" x="79.618" y="65.719"/><use xlink:href="#h" x="85.984" y="65.719"/></svg>