<?xml version="1.0" encoding="UTF-8"?>
<svg xmlns="http://www.w3.org/2000/svg" xmlns:xlink="http://www.w3.org/1999/xlink" width="104.078pt" height="82.82pt" viewBox="0 0 104.078 82.82" version="1.2">
<defs>
<clipPath id="clip1">
  <path d="M 0.554688 0.925781 L 102.605469 0.925781 L 102.605469 81.714844 L 0.554688 81.714844 Z M 0.554688 0.925781 "/>
</clipPath>
<clipPath id="clip2">
  <path d="M 0.554688 64 L 102.605469 64 L 102.605469 65 L 0.554688 65 Z M 0.554688 64 "/>
</clipPath>
<clipPath id="clip3">
  <path d="M 8 0.925781 L 10 0.925781 L 10 81.714844 L 8 81.714844 Z M 8 0.925781 "/>
</clipPath>
<clipPath id="clip4">
  <path d="M 0.554688 0.925781 L 100 0.925781 L 100 81.714844 L 0.554688 81.714844 Z M 0.554688 0.925781 "/>
</clipPath>
</defs>
<g id="surface1">
<g clip-path="url(#clip1)" clip-rule="nonzero">
<path style="fill:none;stroke-width:0.19925;stroke-linecap:butt;stroke-linejoin:miter;stroke:rgb(50%,50%,50%);stroke-opacity:1;stroke-miterlimit:10;" d="M -119.057094 -85.039094 L 119.056188 -85.039094 M -119.057094 -42.519563 L 119.056188 -42.519563 M -119.057094 -0.00003125 L 119.056188 -0.00003125 M -119.057094 42.5195 L 119.056188 42.5195 M -119.057094 85.039031 L 119.056188 85.039031 M -85.041469 -119.054719 L -85.041469 119.054656 M -42.521937 -119.054719 L -42.521937 119.054656 M 0.0015 -119.054719 L 0.0015 119.054656 M 42.521031 -119.054719 L 42.521031 119.054656 M 85.040563 -119.054719 L 85.040563 119.054656 " transform="matrix(1,0,0,-1,9.061,64.707)"/>
</g>
<g clip-path="url(#clip2)" clip-rule="nonzero">
<path style="fill:none;stroke-width:0.3985;stroke-linecap:butt;stroke-linejoin:miter;stroke:rgb(0%,0%,0%);stroke-opacity:1;stroke-miterlimit:10;" d="M -127.561 -0.00003125 L 127.560094 -0.00003125 " transform="matrix(1,0,0,-1,9.061,64.707)"/>
</g>
<g clip-path="url(#clip3)" clip-rule="nonzero">
<path style="fill:none;stroke-width:0.3985;stroke-linecap:butt;stroke-linejoin:miter;stroke:rgb(0%,0%,0%);stroke-opacity:1;stroke-miterlimit:10;" d="M 0.0015 -127.562531 L 0.0015 127.562469 " transform="matrix(1,0,0,-1,9.061,64.707)"/>
</g>
<g clip-path="url(#clip4)" clip-rule="nonzero">
<path style="fill:none;stroke-width:0.3985;stroke-linecap:butt;stroke-linejoin:miter;stroke:rgb(0%,0%,0%);stroke-opacity:1;stroke-miterlimit:10;" d="M 85.040563 -0.00003125 C 85.040563 46.968719 46.966344 85.039031 0.0015 85.039031 C -46.96725 85.039031 -85.041469 46.968719 -85.041469 -0.00003125 C -85.041469 -46.968781 -46.96725 -85.039094 0.0015 -85.039094 C 46.966344 -85.039094 85.040563 -46.968781 85.040563 -0.00003125 Z M 85.040563 -0.00003125 " transform="matrix(1,0,0,-1,9.061,64.707)"/>
</g>
<path style="fill-rule:nonzero;fill:rgb(79.998779%,100%,79.998779%);fill-opacity:1;stroke-width:0.3985;stroke-linecap:butt;stroke-linejoin:miter;stroke:rgb(0%,50%,0%);stroke-opacity:1;stroke-miterlimit:10;" d="M 0.0015 -0.00003125 L 25.513219 -0.00003125 C 25.513219 4.476531 24.333531 8.878875 22.09525 12.757781 Z M 0.0015 -0.00003125 " transform="matrix(1,0,0,-1,9.061,64.707)"/>
<path style="fill:none;stroke-width:1.19553;stroke-linecap:butt;stroke-linejoin:miter;stroke:rgb(100%,0%,0%);stroke-opacity:1;stroke-miterlimit:10;" d="M 73.646031 42.5195 L 73.646031 -0.00003125 " transform="matrix(1,0,0,-1,9.061,64.707)"/>
<path style="fill:none;stroke-width:1.19553;stroke-linecap:butt;stroke-linejoin:miter;stroke:rgb(0%,0%,100%);stroke-opacity:1;stroke-miterlimit:10;" d="M 73.646031 -0.00003125 L 0.0015 -0.00003125 " transform="matrix(1,0,0,-1,9.061,64.707)"/>
</g>
</svg>
