<svg xmlns="http://www.w3.org/2000/svg" xmlns:xlink="http://www.w3.org/1999/xlink" width="45.922" height="94.394"><defs><path id="a" d="M2.578-6.25c-1.062-.984-2.5-.844-3.594.328l-2.218 2.39.28.266.517-.546L.5-1.094l-.516.547.282.266L2.5-2.687c1.047-1.126 1.156-2.563.078-3.563m-.734.797c.468.422 1.453 1.344.172 2.719l-.844.906-2.938-2.719.829-.906c1.296-1.375 2.328-.422 2.78 0m0 0"/><path id="b" d="M2.797-3.281c-.14-.14-.219-.063-.313.047-.28.297-.328.25-.453.14L.97-4.078c-.406-.375-1.11-.39-1.969.516-.266.296-.937 1.015-.437 1.468a.475.475 0 0 0 .687 0c.219-.234.172-.5-.016-.687a.42.42 0 0 0-.25-.125c-.046-.016-.046-.031-.046-.031-.047-.032.25-.36.28-.391.329-.36.72-.5 1.157-.094l.14.125c-.234.25-1.687 1.86-.921 2.563.469.437 1.125.015 1.61-.5.5-.532.468-1 .437-1.203.218.203.468.171.843-.235l.282-.297c.093-.11.172-.187.03-.312m-1.625.594c.11.109.25.234.187.578-.046.297-.28.53-.296.562-.266.281-.657.375-.891.172-.406-.39.094-1.203.531-1.734Zm0 0"/><path id="c" d="M1.484-3.047a.88.88 0 0 0-.718-.219c-.438.063-.672.25-1.125.594-.328.266-.641.516-.844.328-.297-.265.172-.781.281-.875.531-.578.797-.375.922-.297.11.094.14.079.25-.03.14-.157.156-.188 0-.329l-.36-.328c-.093-.094-.156-.14-.265-.016-.031.032-.047.047-.078.157-.016.015-.031.109-.063.125 0 0 0 .015-.046.046-.266.141-.454.36-.563.47-.14.14-.422.452-.516.827a.84.84 0 0 0 .235.844c.547.516 1.281-.078 1.672-.36.328-.28.734-.593 1-.359.343.328-.125.828-.235.953-.453.485-.843.47-1.203.282-.125-.032-.14-.047-.25.078-.14.156-.14.203.016.343l.484.454c.11.093.172.156.281.03.047-.046.063-.046.094-.218C.47-.594.484-.703.5-.766c.39-.125.64-.406.766-.53.14-.157.968-1.048.218-1.75m0 0"/><path id="d" d="m.828 2.016.36-.157-.157-.39L3.578.422l-.547-1.14-.36.155c.157.375.173.407-.077.5L.719.704.53.281l-.36.156s.25.5.376.797c.11.25.187.532.281.782M4.578.109a.587.587 0 0 0 .313-.75.554.554 0 0 0-.735-.296.54.54 0 0 0-.312.734.57.57 0 0 0 .734.312m0 0"/><path id="e" d="M2.14 2.61a.85.85 0 0 0 .516-.563c.125-.39.047-.688-.094-1.266-.078-.39-.187-.797.079-.906.359-.14.625.5.672.64.296.72.015.876-.126.97-.124.046-.124.093-.062.25.078.187.094.187.281.109l.453-.188c.125-.047.204-.078.141-.234-.016-.031-.016-.047-.125-.14-.016-.016-.094-.063-.094-.095 0 0-.015-.015 0-.062-.031-.312-.14-.562-.187-.703-.078-.188-.25-.578-.547-.828a.87.87 0 0 0-.875-.14c-.688.28-.469 1.202-.36 1.687.11.406.235.906-.109 1.047-.422.171-.687-.47-.75-.626C.703.954.875.626 1.172.36c.11-.093.125-.109.047-.28-.078-.188-.11-.188-.297-.11l-.625.25C.172.28.078.313.14.469.156.516.17.53.313.64c.03.015.125.109.171.14-.046.407.094.75.157.907.078.203.547 1.312 1.5.921m0 0"/><path id="f" d="m1.922 2.438.328-.126-.172-.406-.297.125c-.453.172-.64-.062-.687-.187-.157-.375.156-.516.328-.594L3.14.547l.437 1.047.36-.14L3.5.405l1.234-.515-.156-.407c-.594.25-1.406.22-1.703-.468l-.297.125.235.593-1.72.704C.454.703.485 1.297.72 1.859c.203.516.687.797 1.203.579m0 0"/><path id="g" d="m1.766-4.25-.36-.156c-.156.375-.172.422-.422.328l-3.859-1.61-.453 1.235.375.14c.156-.375.172-.437.406-.328l1.188.485a2.03 2.03 0 0 0-.672.86c-.485 1.155-.078 2.077.734 2.405C-.5-.562.422-.875.875-1.984a1.83 1.83 0 0 0 .094-1.141L1.297-3ZM.5-3.328c.156.25.297.672.094 1.14-.36.876-1.125.563-1.5.391-.39-.156-1.188-.484-.781-1.453.218-.531.687-.656.734-.687Zm0 0"/><path id="h" d="M1.484-4.062c-.187-.079-.234.03-.28.156-.173.39-.235.375-.376.312l-1.344-.562c-.515-.203-1.187 0-1.656 1.14-.156.391-.547 1.297.094 1.563.297.125.547-.031.64-.266.125-.281 0-.531-.25-.625-.14-.062-.265-.047-.296-.031h-.032c-.046-.016.11-.437.125-.484.188-.438.516-.703 1.063-.47l.172.063c-.14.313-.938 2.329.015 2.72.594.25 1.079-.376 1.344-1.032.281-.672.078-1.094-.031-1.297.281.125.516.016.734-.5l.157-.375c.046-.125.093-.234-.079-.312M.188-2.907c.125.047.312.125.359.437.031.313-.094.61-.094.64-.156.36-.484.61-.766.485C-.827-1.562-.64-2.5-.405-3.156Zm0 0"/><path id="i" d="M.328-3.36a.91.91 0 0 0-.766.032c-.374.203-.515.453-.828.953-.218.344-.421.703-.687.594-.36-.157-.094-.797-.031-.938.297-.719.609-.625.765-.578.125.063.157.016.219-.125.078-.187.078-.219-.11-.297l-.452-.187c-.125-.063-.204-.094-.266.062-.016.047-.031.063-.016.203 0 .016.016.11 0 .125 0 0 0 .016-.031.047a2.2 2.2 0 0 0-.375.64c-.078.188-.234.579-.187.97.046.437.359.64.515.718.688.282 1.188-.53 1.438-.953.218-.344.484-.797.828-.656.422.172.156.813.094.969-.266.61-.625.718-1.016.703-.14 0-.156 0-.235.156-.078.188-.046.219.141.297l.625.25c.125.063.219.094.281-.062C.25-.484.266-.5.22-.672c0-.047 0-.172-.016-.234.328-.25.469-.594.547-.75.078-.203.531-1.313-.422-1.703m0 0"/><path id="j" d="M6.578-.031v-.39l-.75.015-.016-4 .75-.016v-.39c-.156.015-1.156.046-1.265.046-.156 0-1.125-.015-1.281-.03v.39h.75v1.703H2.172v-1.703h.75v-.39c-.156.015-1.156.046-1.266.046-.156 0-1.125-.016-1.281-.031v.39h.75l.016 4H.39V0a34.607 34.607 0 0 1 2.547-.016v-.39h-.75l-.016-1.906h2.594L4.78-.407h-.75v.39a35.032 35.032 0 0 1 2.547-.016m0 0"/><path id="k" d="M4.313-.203c0-.203-.11-.203-.25-.203-.422 0-.422-.063-.422-.219v-1.453c-.016-.563-.47-1.094-1.72-1.078-.405 0-1.39 0-1.39.687 0 .313.25.485.5.485.313 0 .469-.203.469-.47a.5.5 0 0 0-.078-.28c-.016-.032-.016-.047-.016-.047 0-.047.438-.063.485-.063.484-.015.859.188.875.781v.188C2.422-1.875.25-1.828.25-.797c0 .64.766.844 1.469.844.734-.016 1.062-.36 1.187-.531 0 .297.188.468.75.468h.406c.141 0 .25 0 .25-.187M2.766-.97c0 .14 0 .344-.282.516a1.45 1.45 0 0 1-.625.172c-.39 0-.734-.219-.734-.531 0-.563.938-.75 1.64-.797Zm0 0"/><path id="l" d="M4.734-.016v-.39c-.406 0-.468 0-.468-.266L4.25-3.156l-1.36.062v.39c.422 0 .47 0 .47.267l.015 1.296c0 .579-.437.844-.969.844-.594.016-.61-.14-.61-.469L1.782-3.14l-1.343.063v.39c.406 0 .453 0 .453.266L.906-.844c0 .813.782.89 1.375.875.235 0 .75 0 1.14-.5v.5Zm0 0"/><path id="m" d="M3.234-1c0-.328-.171-.547-.328-.687-.328-.266-.625-.313-1.203-.391-.422-.063-.828-.125-.828-.406 0-.391.703-.391.844-.391.781-.016.812.313.843.469 0 .14.047.156.204.156.203 0 .234-.016.234-.219v-.484c0-.14 0-.219-.172-.219-.047 0-.062 0-.187.063-.016 0-.094.046-.125.046 0 0-.016 0-.047-.015-.297-.094-.578-.078-.735-.078-.203 0-.625 0-.968.187a.85.85 0 0 0-.453.75c.015.75.937.89 1.421.969.422.047.938.125.938.484 0 .47-.688.485-.86.485-.656 0-.906-.297-1.03-.672-.048-.125-.063-.14-.235-.14-.203 0-.219.03-.219.234v.672c0 .14 0 .234.156.234.063 0 .079 0 .22-.094.046-.015.155-.078.202-.11.36.204.735.204.907.204C2.03.047 3.234.03 3.234-1m0 0"/><path id="o" d="M2.828 4.422h.39a3.6 3.6 0 0 1-.046-.578c-.016-.219 0-.485.015-.703h-.39c0 .187-.016.234-.047.312L.89 2.578l1.86-1.015v.328h.39L3.095.984c-.016-.265 0-.546 0-.812h-.39l.015.453L.203 2c-.172.094-.187.172-.187.375s.03.266.218.375l2.454 1.188c.093.03.109.03.124.171 0 .094.016.266.016.313m0 0"/><path id="p" d="M1.625 4.172c.828-.016 1.625-.64 1.594-2C3.188.797 2.344.219 1.516.234.703.266-.016.906.016 2.25c.03 1.36.797 1.953 1.609 1.922m.078-.969c-.61.016-1.297.031-1.328-.969s.656-1.015 1.266-1.03c.547-.016 1.234-.032 1.265.968S2.25 3.187 1.703 3.203m0 0"/><path id="q" d="m.188 7.219.39-.016v-.469l1.703-.046c.875-.016 1.031-.594 1.016-1.22-.031-.655-.344-1.093-.703-1.296.61-.188.64-.797.625-1.172-.016-.828-.531-1.234-.766-1.36l.735-.015-.094-1.25h-.39c0 .406.015.453-.25.469L.421.89.406.438l-.39.015s.047.563.047.906c.015.329 0 .907 0 .907l.39-.016-.016-.469 1.344-.031c.828-.016 1.094.719 1.11 1.11.015.312-.141.453-.657.468l-1.75.047-.015-.469-.39.016s.046.562.062.906c0 .344-.016.906-.016.906l.39-.015L.5 4.25l1.344-.031c.828-.016 1.11.718 1.11 1.125.015.312-.142.437-.657.453l-1.75.047-.016-.469-.39.016s.047.578.062.906c0 .344-.016.922-.016.922m0 0"/><path id="r" d="m7.688 1.813.296-.266-.703-.703-.64-.75-.297.265.156.172a2 2 0 0 1 .234.266c.094.14.094.14-.015.234L4.672 2.938l.312-4.47c.016-.14.016-.14-.093-.25L3.766-2.983l-.297.265.515.547L1.188.438c-.079.078-.079.078-.11.093C1 .516.766.25.703.188L.547.016.266.28.969 1l.656.734.281-.265-.156-.172a.9.9 0 0 1-.219-.266c-.093-.11-.11-.125-.015-.234l2.547-2.375-.344 5.453c-.016.094 0 .11.094.219.14.14.187.156.359 0l2.89-2.703c.079-.079.079-.079.11-.079.078.016.312.266.36.329Zm0 0"/><path id="s" d="m1.5 1.594.281-.266-.297-.297L3.5-.844l-.922-.89-.281.265c.281.297.312.328.11.5L.921.421.594.079.313.344s.406.39.625.625c.187.203.375.406.562.625m2.828-3.11a.57.57 0 0 0 .016-.812c-.203-.219-.578-.235-.782-.031a.573.573 0 0 0-.046.812c.234.25.593.234.812.031m0 0"/><path id="t" d="m.11-4.578-.391-.016c0 .219 0 .36-.016.422-.016.047-.031.063-.125.156L-1.828-2.78l-.688-1.016c-.062-.094-.093-.14-.078-.64l-.39-.016c.015.187.015.375.015.562 0 .313-.047.875-.047.907l.391.015c0-.094.016-.11.047-.14.015.015.047.062.062.078l.875 1.297-3.156-.079.031 1.297.391.016c0-.422 0-.453.281-.453l3.719.094v.453l.39.015C.016-.42 0-.953 0-1.25c.016-.328.047-.86.047-.86l-.39-.015v.469l-.735-.016-.344-.484.984-.86c.063-.062.079-.062.079-.062.046 0 .046.094.046.14l.391.016-.015-.906c0-.25.03-.5.046-.75m0 0"/><path id="u" d="M-1.406-4.25c-.828-.031-1.656.563-1.688 1.922-.047 1.375.75 1.984 1.578 2.015C-.703-.296.063-.905.11-2.25c.032-1.36-.703-1.984-1.515-2m-.125.953c.61.016 1.297.047 1.281 1.047-.031 1-.719.969-1.328.953-.547 0-1.234-.031-1.203-1.031.015-1 .703-.969 1.25-.969m0 0"/><path id="v" d="M2.234 0v-.39h-.468v-4.454L.469-4.78v.39c.406 0 .469 0 .469.266v3.734h-.47V0c.016 0 .563-.031.891-.031S2.22 0 2.234 0m0 0"/><path id="w" d="M4.313-.187c0-.204-.11-.204-.25-.204-.422 0-.422-.062-.422-.218v-1.453c0-.563-.453-1.094-1.703-1.094-.407 0-1.391 0-1.391.687 0 .313.234.485.484.485.313 0 .485-.203.485-.47a.5.5 0 0 0-.079-.28c-.015-.032-.015-.047-.015-.047 0-.047.437-.063.484-.063.485 0 .86.203.86.797v.188C2.422-1.86.25-1.83.25-.797c0 .64.766.844 1.469.844.734 0 1.062-.344 1.187-.516 0 .297.188.469.75.469h.406c.141 0 .25 0 .25-.187M2.766-.953c0 .14 0 .344-.282.516-.265.156-.593.156-.625.156-.39 0-.734-.219-.734-.531 0-.563.938-.75 1.64-.782Zm0 0"/><path id="x" d="M4.734 0v-.39c-.406 0-.468 0-.468-.266v-2.485l-1.36.063v.39c.422 0 .469 0 .469.266v1.297c0 .578-.437.844-.969.844-.594 0-.61-.156-.61-.485V-3.14l-1.343.063v.39c.406 0 .453 0 .453.266v1.578c0 .813.782.89 1.375.89.235 0 .75 0 1.14-.5v.5Zm0 0"/><path id="y" d="M3.234-.984c0-.328-.171-.547-.328-.688-.328-.266-.625-.312-1.203-.406-.406-.063-.812-.125-.812-.406 0-.391.703-.391.843-.391.782 0 .813.328.844.484 0 .141.047.157.203.157.203 0 .235-.016.235-.22v-.483c0-.141 0-.22-.172-.22-.047 0-.063 0-.188.063-.015 0-.094.047-.125.047 0 0-.015 0-.047-.015-.296-.094-.578-.094-.734-.094-.203 0-.625 0-.969.187a.85.85 0 0 0-.453.75c0 .75.922.89 1.406.969.422.063.938.14.938.5 0 .469-.688.469-.86.469-.656 0-.906-.297-1.03-.672-.048-.125-.063-.14-.235-.14-.203 0-.219.03-.219.234v.672c0 .14 0 .234.156.234.063 0 .079 0 .22-.094.046-.015.155-.078.202-.11.36.204.735.204.907.204.218 0 1.421 0 1.421-1.031m0 0"/><path id="z" d="M4.922 0v-.469h-1.39v-5.734c0-.234 0-.328-.266-.328-.11 0-.125 0-.22.078-.765.562-1.796.562-2 .562H.845v.47h.203c.156 0 .703-.016 1.297-.204v5.156H.954V0c.437-.031 1.5-.031 1.984-.031s1.546 0 1.984.031m0 0"/><path id="A" d="M5.156-2.219h-.468c-.032.203-.125.844-.266.906-.11.063-.86.063-1.016.063H1.937c.47-.39 1-.812 1.438-1.14 1.14-.844 1.781-1.313 1.781-2.25 0-1.157-1.047-1.891-2.437-1.891-1.219 0-2.156.625-2.156 1.515 0 .594.484.735.718.735C1.61-4.281 2-4.5 2-5c0-.516-.422-.672-.562-.719.28-.234.671-.343 1.03-.343.845 0 1.313.671 1.313 1.421 0 .688-.375 1.375-1.078 2.079l-2 2.046c-.14.11-.14.141-.14.344V0h4.28Zm0 0"/><path id="B" d="M5.25-1.797c0-.547-.297-1.406-1.734-1.719.687-.203 1.406-.765 1.406-1.625 0-.765-.75-1.39-2.156-1.39-1.188 0-1.97.64-1.97 1.437 0 .422.313.703.688.703a.67.67 0 0 0 .704-.687c0-.578-.547-.688-.579-.703.344-.282.782-.36 1.094-.36.828 0 .86.641.86.97 0 .124-.016 1.437-1.047 1.5-.407.015-.438.015-.485.03-.094.016-.125.11-.125.172 0 .172.11.172.282.172h.437c1.094 0 1.094.985 1.094 1.5 0 .469 0 1.485-1.031 1.485-.266 0-.782-.047-1.266-.344C1.75-.75 2-1 2-1.406c0-.453-.312-.75-.75-.75-.422 0-.766.265-.766.765 0 .907.97 1.5 2.25 1.5 1.782 0 2.516-1 2.516-1.906m0 0"/><path id="C" d="M5.406 0v-.469h-.968v-1.094h.968v-.468h-.968V-6.22c0-.265-.016-.328-.297-.328-.22 0-.22.016-.344.172L.313-2.031v.469h2.875V-.47h-1.11V0c.375-.031 1.281-.031 1.703-.031.406 0 1.266 0 1.625.031m-2.11-2.031H.845L3.297-5.11Zm0 0"/><path id="D" d="M5.156-2c0-1.156-.797-2.078-2.265-2.078-.282 0-.813.031-1.282.344v-1.313c.282.047.391.078.72.078 1.452 0 2.374-1.125 2.374-1.375 0-.078-.016-.187-.14-.187-.032 0-.032 0-.141.047a4.3 4.3 0 0 1-1.531.28c-.75 0-1.282-.202-1.547-.28-.094-.032-.094-.047-.125-.047-.14 0-.14.11-.14.265v2.922c0 .172 0 .297.218.297.125 0 .156-.031.219-.11.39-.468.922-.562 1.328-.562.89 0 .89.875.89 1.672 0 .735 0 1.735-1.187 1.735-.25 0-.875-.063-1.297-.625.36-.016.656-.266.656-.672 0-.532-.437-.672-.672-.672-.14 0-.671.094-.671.703 0 .844.78 1.687 2.015 1.687C4.172.11 5.156-.78 5.156-2m0 0"/><clipPath id="n"><path d="M35 49h10.883v40H35Zm0 0"/></clipPath></defs><path fill="none" stroke="#000" stroke-miterlimit="10" stroke-width=".399" d="m9.633 82.996 25.222-27.148"/><path fill="none" stroke="#000" stroke-linecap="round" stroke-linejoin="round" stroke-miterlimit="10" stroke-width=".39898803000000005" d="M31.828 55.594c1.309.699 2.379.543 3.16.11-.37.812-.449 1.89.344 3.144"/><path fill="#FFF" d="m25.488 60.688-11.445 12.32 4.992 4.64 11.45-12.32Zm0 0"/><use xlink:href="#a" x="18.954" y="76.213"/><use xlink:href="#b" x="23.629" y="71.181"/><use xlink:href="#c" x="26.615" y="67.967"/><path fill="none" stroke="#000" stroke-miterlimit="10" stroke-width=".399" d="M38.637 41.992 25.973 11.227"/><path fill="none" stroke="#000" stroke-linecap="round" stroke-linejoin="round" stroke-miterlimit="10" stroke-width=".39897606" d="M24.473 13.871c1.183-.898 1.488-1.933 1.422-2.828.582.68 1.53 1.203 3 1.008"/><path fill="#FFF" d="m37.727 30.445-4.422-10.742-6.293 2.59 4.422 10.742Zm0 0"/><use xlink:href="#d" x="28.35" y="22.819"/><use xlink:href="#e" x="29.314" y="25.16"/><use xlink:href="#f" x="30.673" y="28.461"/><path fill="none" stroke="#000" stroke-miterlimit="10" stroke-width=".399" d="M20.164 10.86 7.324 41.757"/><path fill="none" stroke="#000" stroke-linecap="round" stroke-linejoin="round" stroke-miterlimit="10" stroke-width=".39898005000000003" d="M10.25 40.945c-1.469-.199-2.418.32-3.004.996.07-.89-.23-1.93-1.41-2.828"/><path fill="#FFF" d="M13.191 18.195 7.45 32.008l6.348 2.637 5.742-13.81Zm0 0"/><use xlink:href="#g" x="13.222" y="33.328"/><use xlink:href="#h" x="15.143" y="28.704"/><use xlink:href="#i" x="16.826" y="24.654"/><path fill="none" stroke="#000" stroke-miterlimit="10" stroke-width=".399" d="m10.734 48.89 23.91-.09"/><path fill="none" stroke="#000" stroke-linecap="round" stroke-linejoin="round" stroke-miterlimit="10" stroke-width=".39898404" d="M32.762 46.418c.386 1.43 1.23 2.105 2.082 2.383-.848.281-1.692.96-2.063 2.398"/><path fill="#FFF" d="m33.848 45.234-21.946.082.028 6.82 21.941-.081Zm0 0"/><use xlink:href="#j" x="12.921" y="51.094"/><use xlink:href="#k" x="19.908" y="51.068"/><use xlink:href="#l" x="24.295" y="51.051"/><use xlink:href="#m" x="29.302" y="51.033"/><g clip-path="url(#n)"><path fill="none" stroke="#000" stroke-miterlimit="10" stroke-width=".399" d="m41.61 55.559.722 26.984"/></g><path fill="none" stroke="#000" stroke-linecap="round" stroke-linejoin="round" stroke-miterlimit="10" stroke-width=".39898005000000003" d="M44.672 80.605c-1.422.418-2.078 1.282-2.332 2.137-.305-.844-1.004-1.668-2.45-2.008"/><path fill="#FFF" d="m43.984 71.598-.496-18.493-5.191.141.496 18.492Zm0 0"/><use xlink:href="#o" x="39.36" y="54.213"/><use xlink:href="#p" x="39.481" y="58.723"/><use xlink:href="#q" x="39.602" y="63.233"/><path fill="none" stroke="#000" stroke-miterlimit="10" stroke-width=".399" d="M36.14 82.945 10.966 55.992"/><path fill="none" stroke="#000" stroke-linecap="round" stroke-linejoin="round" stroke-miterlimit="10" stroke-width=".39898803000000005" d="M10.496 58.992c.79-1.254.707-2.332.332-3.144.781.43 1.856.586 3.16-.118"/><path fill="#FFF" d="m29.953 71.094-7.86-8.414-4.948 4.629L25 75.719Zm0 0"/><use xlink:href="#r" x="18.551" y="67.355"/><use xlink:href="#s" x="23.321" y="72.461"/><path fill="none" stroke="#000" stroke-miterlimit="10" stroke-width=".399" d="m4.18 55.703-.668 26.895"/><path fill="none" stroke="#000" stroke-linecap="round" stroke-linejoin="round" stroke-miterlimit="10" stroke-width=".39897606" d="M5.95 80.785c-1.446.344-2.145 1.168-2.442 2.012-.258-.856-.914-1.715-2.34-2.129"/><path fill="#FFF" d="M.523 56.93.25 67.94l6.871.172.277-11.011Zm0 0"/><use xlink:href="#t" x="6.109" y="67.091"/><use xlink:href="#u" x="6.221" y="62.581"/><path fill="none" stroke="#000" stroke-miterlimit="10" stroke-width=".399" d="M9.715 89.777h26.027"/><path fill="none" stroke="#000" stroke-linecap="round" stroke-linejoin="round" stroke-miterlimit="10" stroke-width=".399" d="M33.871 87.387c.379 1.437 1.223 2.113 2.07 2.39-.847.282-1.691.957-2.07 2.395"/><path fill="#FFF" d="M14.184 93.027h17.488v-6.87H14.184Zm0 0"/><use xlink:href="#v" x="15.181" y="91.99"/><use xlink:href="#w" x="17.713" y="91.99"/><use xlink:href="#x" x="22.099" y="91.99"/><use xlink:href="#y" x="27.106" y="91.99"/><use xlink:href="#z" x=".468" y="93.041"/><use xlink:href="#A" x="38.562" y="52.038"/><use xlink:href="#B" x="20.14" y="7.231"/><use xlink:href="#C" x="1.485" y="52.182"/><use xlink:href="#D" x="39.662" y="92.987"/></svg>