<svg xmlns="http://www.w3.org/2000/svg" xmlns:xlink="http://www.w3.org/1999/xlink" width="84.764" height="66.458"><defs><path id="a" d="M4.922 0v-.469h-1.39v-5.734c0-.234 0-.328-.266-.328-.11 0-.125 0-.22.078-.765.562-1.796.562-2 .562H.845v.47h.203c.156 0 .703-.016 1.297-.204v5.156H.954V0c.437-.031 1.5-.031 1.984-.031s1.546 0 1.984.031m0 0"/><path id="b" d="M5.156-2.219h-.468c-.032.203-.125.844-.266.906-.11.063-.86.063-1.016.063H1.937c.47-.39 1-.812 1.438-1.14 1.14-.844 1.781-1.313 1.781-2.25 0-1.157-1.047-1.891-2.437-1.891-1.219 0-2.156.625-2.156 1.515 0 .594.484.735.718.735C1.61-4.281 2-4.5 2-5c0-.516-.422-.672-.562-.719.28-.234.671-.343 1.03-.343.845 0 1.313.671 1.313 1.421 0 .688-.375 1.375-1.078 2.079l-2 2.046c-.14.11-.14.141-.14.344V0h4.28Zm0 0"/><path id="c" d="M5.25-1.797c0-.547-.297-1.406-1.734-1.719.687-.203 1.406-.765 1.406-1.625 0-.765-.75-1.39-2.156-1.39-1.188 0-1.97.64-1.97 1.437 0 .422.313.703.688.703a.67.67 0 0 0 .704-.687c0-.578-.547-.688-.579-.703.344-.282.782-.36 1.094-.36.828 0 .86.641.86.97 0 .124-.016 1.437-1.047 1.5-.407.015-.438.015-.485.03-.094.016-.125.11-.125.172 0 .172.11.172.282.172h.437c1.094 0 1.094.985 1.094 1.5 0 .469 0 1.485-1.031 1.485-.266 0-.782-.047-1.266-.344C1.75-.75 2-1 2-1.406c0-.453-.312-.75-.75-.75-.422 0-.766.265-.766.765 0 .907.97 1.5 2.25 1.5 1.782 0 2.516-1 2.516-1.906m0 0"/><path id="d" d="M5.406 0v-.469h-.968v-1.094h.968v-.468h-.968V-6.22c0-.265-.016-.328-.297-.328-.22 0-.22.016-.344.172L.313-2.031v.469h2.875V-.47h-1.11V0c.375-.031 1.281-.031 1.703-.031.406 0 1.266 0 1.625.031m-2.11-2.031H.845L3.297-5.11Zm0 0"/><path id="e" d="M5.156-2c0-1.156-.797-2.078-2.265-2.078-.282 0-.813.031-1.282.344v-1.313c.282.047.391.078.72.078 1.452 0 2.374-1.125 2.374-1.375 0-.078-.016-.187-.14-.187-.032 0-.032 0-.141.047a4.3 4.3 0 0 1-1.531.28c-.75 0-1.282-.202-1.547-.28-.094-.032-.094-.047-.125-.047-.14 0-.14.11-.14.265v2.922c0 .172 0 .297.218.297.125 0 .156-.031.219-.11.39-.468.922-.562 1.328-.562.89 0 .89.875.89 1.672 0 .735 0 1.735-1.187 1.735-.25 0-.875-.063-1.297-.625.36-.016.656-.266.656-.672 0-.532-.437-.672-.672-.672-.14 0-.671.094-.671.703 0 .844.78 1.687 2.015 1.687C4.172.11 5.156-.78 5.156-2m0 0"/><path id="f" d="M5.406-2.172c0-1.344-.922-2.344-2.547-2.344C1.22-4.516.313-3.5.313-2.172c0 1.235.89 2.235 2.546 2.235 1.672 0 2.547-1.016 2.547-2.235m-1.281-.11c0 .86 0 1.938-1.266 1.938-1.265 0-1.265-1.078-1.265-1.937 0-.453 0-.953.172-1.297.187-.375.609-.578 1.093-.578.422 0 .844.156 1.063.5.203.344.203.89.203 1.375m0 0"/><path id="g" d="M6.125 0v-.469c-.61 0-.687 0-.687-.39v-3.625l-1.813.078v.468c.61 0 .688 0 .688.391v1.906c0 .813-.516 1.344-1.235 1.344-.781 0-.812-.25-.812-.797v-3.39l-1.813.078v.468c.61 0 .688 0 .688.391v2.328c0 1.063.797 1.282 1.797 1.282.25 0 .968 0 1.421-.782v.782Zm0 0"/><path id="h" d="M3.813-1.234v-.532h-.47v.516c0 .672-.327.906-.609.906-.578 0-.578-.64-.578-.86v-2.75h1.469v-.468H2.156v-1.906h-.469c0 1-.484 1.984-1.484 2.016v.359h.828v2.734c0 1.063.86 1.282 1.578 1.282.75 0 1.204-.579 1.204-1.297m0 0"/><path id="i" d="M2.844 0v-.469h-.61v-4.015L.5-4.406v.468c.594 0 .656 0 .656.391v3.078H.47V0l1.219-.031Zm-.469-6.047a.774.774 0 0 0-.781-.781.784.784 0 0 0-.782.781c0 .422.36.766.782.766a.77.77 0 0 0 .781-.766m0 0"/><path id="j" d="M6.125 0v-.469h-.687v-2.578c0-1.047-.532-1.437-1.532-1.437-.953 0-1.484.562-1.75 1.078v-1.078l-1.703.078v.468c.61 0 .688 0 .688.391v3.078H.453V0l1.25-.031L2.953 0v-.469h-.687v-2.078c0-1.094.859-1.578 1.5-1.578.328 0 .547.203.547.969V-.47h-.688V0l1.25-.031Zm0 0"/></defs><use xlink:href="#a" x="39.554" y="7.263"/><use xlink:href="#b" x="66.513" y="26.85"/><use xlink:href="#c" x="56.216" y="58.488"/><use xlink:href="#d" x="22.893" y="58.547"/><use xlink:href="#e" x="12.595" y="26.795"/><path fill="none" stroke="#000" stroke-miterlimit="10" stroke-width=".399" d="m48.8 8.637 14.192 10.312"/><use xlink:href="#f" x="59.418" y="10.215"/><use xlink:href="#g" x="65.147" y="10.215"/><use xlink:href="#h" x="71.513" y="10.215"/><use xlink:href="#i" x="42.834" y="24.139"/><use xlink:href="#j" x="46.012" y="24.139"/><path fill="none" stroke="#000" stroke-miterlimit="10" stroke-width=".399" d="M67.176 30.371 61.3 48.441"/><use xlink:href="#f" x="67.758" y="49.252"/><use xlink:href="#g" x="73.487" y="49.252"/><use xlink:href="#h" x="79.853" y="49.252"/><use xlink:href="#i" x="51.174" y="35.886"/><use xlink:href="#j" x="54.352" y="35.886"/><path fill="none" stroke="#000" stroke-miterlimit="10" stroke-width=".399" d="M52.695 55.281H32.141"/><use xlink:href="#f" x="34.144" y="65.126"/><use xlink:href="#g" x="39.873" y="65.126"/><use xlink:href="#h" x="46.239" y="65.126"/><use xlink:href="#i" x="37.646" y="51.76"/><use xlink:href="#j" x="40.824" y="51.76"/><path fill="none" stroke="#000" stroke-miterlimit="10" stroke-width=".399" d="m23.55 48.492-5.87-18.066"/><use xlink:href="#f" x=".549" y="49.304"/><use xlink:href="#g" x="6.278" y="49.304"/><use xlink:href="#h" x="12.644" y="49.304"/><use xlink:href="#i" x="24.136" y="35.938"/><use xlink:href="#j" x="27.314" y="35.938"/><path fill="none" stroke="#000" stroke-miterlimit="10" stroke-width=".399" d="M21.844 18.95 36.035 8.636"/><use xlink:href="#f" x="8.871" y="10.213"/><use xlink:href="#g" x="14.6" y="10.213"/><use xlink:href="#h" x="20.966" y="10.213"/><use xlink:href="#i" x="32.458" y="24.137"/><use xlink:href="#j" x="35.636" y="24.137"/></svg>