<svg xmlns="http://www.w3.org/2000/svg" xmlns:xlink="http://www.w3.org/1999/xlink" width="233.54" height="116.606"><defs><path id="b" d="M9.984-1.094c0-.203-.093-.25-.25-.25-.234 0-.25.094-.25.25-.062.594-.437.844-.765.844-.766 0-.86-.797-.953-1.906-.063-.625-.157-1.516-1.438-1.906 1.61-.438 2-1.297 2-1.938 0-1.203-1.25-2.203-3.469-2.203H.453v.515H1.72v7.172H.453V0C.797-.031 2.047-.031 2.47-.031c.437 0 1.687 0 2.031.031v-.516H3.234v-3.39h1.422c.485 0 .86.14 1.125.453.36.406.36.672.36 1.469s0 1.297.609 1.703C7.375.125 8.36.14 8.625.14c1.219 0 1.36-1.078 1.36-1.235M6.641-6c0 .656 0 1.703-2 1.703H3.234v-3.39h1.422c1.953 0 1.985.984 1.985 1.687m0 0"/><path id="c" d="M6.328-2.625c0-1.61-1.094-2.797-2.969-2.797-1.953 0-2.984 1.25-2.984 2.797C.375-1.047 1.469.078 3.344.078c1.953 0 2.984-1.187 2.984-2.703m-1.422-.11c0 .985 0 2.376-1.547 2.376S1.813-1.75 1.813-2.734c0-.563 0-1.157.218-1.594.266-.484.797-.688 1.313-.688.687 0 1.11.313 1.312.657.25.422.25 1.047.25 1.625m0 0"/><path id="d" d="M4.469-1.484v-.625h-.5v.609c0 .797-.36 1.14-.735 1.14-.718 0-.718-.796-.718-1.078v-3.359H4.25v-.516H2.516v-2.28h-.5c0 1.187-.578 2.374-1.766 2.406v.39h.969v3.328c0 1.266.984 1.547 1.844 1.547.874 0 1.406-.672 1.406-1.562m0 0"/><path id="e" d="M5.594-1.406c0-.14-.125-.14-.25-.14-.188 0-.203.015-.266.155-.078.235-.406 1.032-1.5 1.032-1.687 0-1.687-1.813-1.687-2.36 0-.703.015-2.265 1.578-2.265.078 0 .781.03.781.078 0 0 0 .031-.031.047a.73.73 0 0 0-.188.515c0 .5.407.703.703.703.25 0 .704-.156.704-.718 0-.985-1.375-1.063-2.016-1.063-2.125 0-2.969 1.39-2.969 2.766 0 1.625 1.14 2.734 2.89 2.734 1.876 0 2.25-1.39 2.25-1.484m0 0"/><path id="f" d="M7.172 0v-.516h-.828v-3.14c0-1.14-.485-1.719-1.797-1.719-.86 0-1.61.422-2.016 1.313h-.015v-1.313L.5-5.281v.515c.75 0 .828 0 .828.47v3.78H.5V0c.281-.031 1.14-.031 1.469-.031.343 0 1.203 0 1.484.031v-.516h-.828v-2.546c0-1.282.953-1.922 1.719-1.922.453 0 .703.28.703 1.187v3.281h-.828V0c.281-.031 1.14-.031 1.468-.031.344 0 1.204 0 1.485.031m0 0"/><path id="g" d="M5.75-1.406c0-.172-.187-.172-.25-.172-.187 0-.203.031-.281.187-.313.782-1.094 1.032-1.672 1.032-1.735 0-1.735-1.61-1.735-2.282h3.594c.266 0 .344 0 .344-.296 0-.36-.078-1.266-.64-1.813-.5-.516-1.173-.672-1.86-.672-1.86 0-2.875 1.219-2.875 2.734C.375-1.016 1.609.079 3.406.079 5.22.078 5.75-1.187 5.75-1.406M4.656-2.984H1.813c.015-.5.03-.953.28-1.391a1.32 1.32 0 0 1 1.157-.64c1.281 0 1.39 1.437 1.406 2.03m0 0"/><path id="h" d="M7-2.672c0-1.64-1.11-2.703-2.719-2.703-.703 0-1.312.234-1.797.625v-.625l-2.062.094v.515c.734 0 .828 0 .828.47v6.109H.422v.5c.266-.016 1.125-.016 1.469-.016.328 0 1.203 0 1.484.015v-.5h-.828V-.483c.297.25.828.562 1.547.562C5.719.078 7-.922 7-2.672m-1.437 0c0 1.735-.86 2.344-1.625 2.344-.5 0-1.016-.25-1.391-.813v-3.046a2 2 0 0 1 1.547-.766c.765 0 1.468.703 1.468 2.281m0 0"/><path id="j" d="M7.063-2.047c0-.203-.079-.203-.235-.203-.094 0-.203 0-.219.156C6.531-.797 5.344-.328 4.5-.328c-.484 0-1.36-.11-1.969-.766C2.062-1.625 2-2.469 2-3.078c0-1.078.219-1.61.578-2.031.422-.47 1.156-.72 1.89-.72.798 0 1.845.485 2.063 1.907.032.125.125.125.266.125.25 0 .266-.031.266-.265V-6c0-.156 0-.266-.172-.266-.094 0-.11.016-.188.094l-.594.516a2.96 2.96 0 0 0-1.828-.61C1.97-6.266.594-4.89.594-3.078.594-1.297 1.922.109 4.297.109c1.687 0 2.766-1.078 2.766-2.156m0 0"/><path id="k" d="M5.656 0v-.437h-.61v-2.297c0-1.063-.655-1.297-1.437-1.297-.843 0-1.328.484-1.562.843v-3.03l-1.594.062v.437c.531 0 .61 0 .61.36v4.922h-.61V0l1.125-.031L2.718 0v-.437H2.11v-1.844c0-1 .829-1.39 1.36-1.39.344 0 .515.187.515.858v2.376h-.609V0l1.14-.031Zm0 0"/><path id="l" d="M2.625 0v-.437h-.547v-3.594L.5-3.97v.438c.516 0 .578 0 .578.36v2.734h-.61V0c.595-.016.72-.031 1.095-.031.437 0 .546.015 1.062.031m-.453-5.422a.713.713 0 0 0-.703-.719.71.71 0 0 0-.703.704.7.7 0 0 0 .703.703.697.697 0 0 0 .703-.688m0 0"/><path id="m" d="M2.688 0v-.437h-.61V-6.22l-1.61.063v.437c.532 0 .61 0 .61.36v4.922h-.61V0l1.095-.031Zm0 0"/><path id="n" d="M5.516 0v-.437c-.532 0-.61 0-.61-.36v-5.422l-1.61.063v.437c.548 0 .61 0 .61.36v1.734a2 2 0 0 0-1.25-.406c-1.453 0-2.312.89-2.312 2.047 0 1.187.844 2.03 2.219 2.03.562 0 1-.202 1.296-.437v.438ZM3.859-.984a1.43 1.43 0 0 1-1.203.672c-1.11 0-1.11-1.063-1.11-1.657 0-.531 0-.906.235-1.234.235-.36.672-.469.985-.469.437 0 .812.188 1.093.547Zm0 0"/><path id="o" d="M4.406-1.047c0-.14-.125-.14-.234-.14-.172 0-.172.015-.25.171-.172.438-.578.688-1.11.688-1.265 0-1.265-1.297-1.265-1.703 0-.531 0-1.64 1.172-1.64.078 0 .562 0 .562.046l-.031.047a.6.6 0 0 0-.125.375c0 .36.281.578.594.578a.57.57 0 0 0 .578-.594c0-.844-1.25-.844-1.61-.844C.97-4.062.345-2.968.345-1.983c0 1.125.812 2.03 2.297 2.03.343 0 .78-.046 1.156-.28.515-.313.61-.782.61-.813m0 0"/><path id="p" d="M5-1.953c0-1.172-.828-2.11-2.344-2.11-1.578 0-2.36.985-2.36 2.11 0 1.11.813 2 2.345 2C4.25.047 5-.891 5-1.953m-1.187-.094c0 .766 0 1.719-1.157 1.719-1.172 0-1.172-.953-1.172-1.719 0-.765 0-1.656 1.157-1.656 1.172 0 1.172.89 1.172 1.656m0 0"/><path id="q" d="M5.656 0v-.437h-.61v-2.297c0-1.063-.655-1.297-1.437-1.297-1.093 0-1.53.797-1.593.937H2v-.937L.453-3.97v.438c.531 0 .61 0 .61.36v2.734h-.61V0l1.125-.031L2.718 0v-.437H2.11v-1.844c0-1 .829-1.39 1.36-1.39.344 0 .515.187.515.858v2.376h-.609V0l1.14-.031Zm0 0"/><path id="r" d="M4.563-1.047c0-.172-.172-.172-.235-.172-.156 0-.172.047-.234.172-.203.469-.75.719-1.313.719-1.281 0-1.297-1.156-1.297-1.594h2.782c.187 0 .297 0 .297-.25 0-.203-.016-1-.594-1.484-.406-.328-.953-.406-1.39-.406-1.532 0-2.282.968-2.282 2.046 0 1.172.89 2.063 2.406 2.063 1.485 0 1.86-.938 1.86-1.094M3.688-2.25H1.483c.016-.406.063-1.453 1.094-1.453 1.047 0 1.094 1.094 1.11 1.453m0 0"/><path id="s" d="M5.531-1.984c0-1.188-.812-2.047-2.172-2.047-.718 0-1.218.297-1.39.422v-.422L.375-3.97v.438c.172 0 .313 0 .438.031.171.031.171.125.171.313v4.484H.375v.437L1.5 1.72l1.14.015v-.437h-.609v-1.64c.531.39 1.016.39 1.188.39 1.406 0 2.312-.844 2.312-2.031M4.344-2c0 1.25-.64 1.688-1.235 1.688-.453 0-.843-.25-1.078-.625v-2.157a1.55 1.55 0 0 1 1.188-.562c.625 0 1.125.562 1.125 1.656m0 0"/><path id="t" d="M3.531-1.11v-.468h-.469v.453c0 .625-.312.797-.546.797C2-.328 2-.875 2-1.078v-2.469h1.36v-.437H2v-1.703h-.453c-.016.828-.438 1.765-1.344 1.78v.36h.75v2.438c0 1.03.89 1.156 1.438 1.156.703 0 1.14-.5 1.14-1.156m0 0"/><clipPath id="a"><path d="M0 0h132v116.41H0Zm0 0"/></clipPath><clipPath id="i"><path d="M151 9h82.309v98H151Zm0 0"/></clipPath></defs><path fill="#FF7F7F" d="M114.773 58.113c0-31.312-25.382-56.695-56.695-56.695-31.308 0-56.691 25.383-56.691 56.695 0 31.309 25.383 56.692 56.691 56.692 31.313 0 56.695-25.383 56.695-56.692m0 0"/><g clip-path="url(#a)"><path fill="none" stroke="#FF7F7F" stroke-miterlimit="10" stroke-width="1.196" d="M114.773 58.113c0-31.312-25.382-56.695-56.695-56.695-31.308 0-56.691 25.383-56.691 56.695 0 31.309 25.383 56.692 56.691 56.692 31.313 0 56.695-25.383 56.695-56.692Zm0 0"/></g><use xlink:href="#b" x="19.037" y="61.053"/><use xlink:href="#c" x="29.067" y="61.053"/><use xlink:href="#c" x="36.169" y="61.053"/><use xlink:href="#d" x="42.9" y="61.053"/><use xlink:href="#e" x="52.117" y="61.053"/><use xlink:href="#c" x="58.095" y="61.053"/><use xlink:href="#f" x="64.825" y="61.053"/><use xlink:href="#e" x="72.297" y="61.053"/><use xlink:href="#g" x="78.275" y="61.053"/><use xlink:href="#h" x="84.408" y="61.053"/><use xlink:href="#d" x="91.88" y="61.053"/><path fill="#FF7F7F" d="M231.703 58.113c0-17.613-14.277-31.89-31.89-31.89-17.614 0-31.891 14.277-31.891 31.89 0 17.614 14.277 31.89 31.89 31.89 17.614 0 31.891-14.276 31.891-31.89m0 0"/><g clip-path="url(#i)"><path fill="none" stroke="#FF7F7F" stroke-miterlimit="10" stroke-width="1.196" d="M231.703 58.113c0-17.613-14.277-31.89-31.89-31.89-17.614 0-31.891 14.277-31.891 31.89 0 17.614 14.277 31.89 31.89 31.89 17.614 0 31.891-14.276 31.891-31.89Zm0 0"/></g><use xlink:href="#j" x="187.137" y="54.892"/><use xlink:href="#k" x="194.803" y="54.892"/><use xlink:href="#l" x="200.694" y="54.892"/><use xlink:href="#m" x="203.644" y="54.892"/><use xlink:href="#n" x="206.594" y="54.892"/><use xlink:href="#o" x="182.053" y="65.851"/><use xlink:href="#p" x="186.769" y="65.851"/><use xlink:href="#q" x="192.077" y="65.851"/><use xlink:href="#o" x="197.968" y="65.851"/><use xlink:href="#r" x="202.685" y="65.851"/><use xlink:href="#s" x="207.553" y="65.851"/><use xlink:href="#t" x="213.444" y="65.851"/><path fill="#FF7F7F" d="M111.355 38.723a56.7 56.7 0 0 1 0 38.78c4.848-13.32 17.59-16.6 31.766-16.6V55.32c-14.176 0-26.918-3.28-31.766-16.597m31.766 22.18h8.856V55.32h-8.856Zm26.727-13.7a31.87 31.87 0 0 0 0 21.817c-2.727-7.493-9.899-8.118-17.871-8.118V55.32c7.972 0 15.144-.625 17.87-8.117m0 0"/></svg>