<svg xmlns="http://www.w3.org/2000/svg" width="109.748" height="64.946"><defs><clipPath id="a"><path d="M.89 29.887h34.016v34.015H.891Zm0 0"/></clipPath><clipPath id="b"><path d="M37.742 29.887h34.016v34.015H37.742Zm0 0"/></clipPath><clipPath id="c"><path d="M74.594 29.887h34.015v34.015H74.594Zm0 0"/></clipPath></defs><path fill="none" stroke="#000" stroke-miterlimit="10" stroke-width=".399" d="M26.402 18.547h.703l.348-.606.352.606h.699l.348-.606-.348-.605h.7l.35-.606.348.606h.7l-.348.605.348.606h.699l.351-.606.348.606h.703l.348-.606-.348-.605h.7l.347-.606-.348-.605h-.699l.348-.605-.348-.61h.7l.347-.605.352.605h.699l.351-.605-.351-.606h.699l.352-.605.351.605h.7l-.352.606.351.605h.7l.347-.605.352.605H39l-.348.606.348.609h-.7l-.35.605.35.606h.7l-.352.605.352.606h.7l.35-.606.348.606h.704l.347-.606-.347-.605h.699l.347-.606.352.606h.7l-.352.605.351.606h.7l.351-.606.348.606h.703l.347-.606-.347-.605H46l.348-.606-.348-.605h-.7l.348-.605-.347-.606H46l.348-.605.351.605h.7l.351-.605-.352-.61h.7l.351-.605-.351-.606h-.7l.352-.605-.352-.606H46.7l-.347.606-.352-.606h-.7l.348-.605-.347-.61H46l.352-.605L46 8.852h-.7l.352-.606-.351-.605H46l.352-.606.347.606h.7l.351-.606-.352-.605h.7l.351-.606.352.606h.699l-.352.605.352.606h.7l.347-.606.351.606h.7l.351-.606-.351-.605h.699l.351-.606-.351-.605h-.7l.352-.61-.351-.605h.699l.351-.606.348.606h.703l.348-.606-.348-.605h.7l.347-.606.352.606h.699l-.348.605.348.606.7-.004.35-.605.348.605h.7l-.348.605.348.606h-.7l-.347.605.351.606h.7l-.352.605.351.606h.7l.347-.606.352.606h.7l.35-.602-.35-.61h.698l.352-.605.348.606.703.004-.352.605.348.606h.703l.348-.606.351.606h.7l-.352.605.351.606h-.699l-.351.605.351.606h.7l-.352.605.351.61-.699-.004-.351.605-.352-.605h-.7l-.347.605.348.605h-.7l-.347.61.348.605h.699l-.348.606.348.605h.699l.352-.605.347.605h.703l-.351.606.347.605h-.699l-.347.606.347.609h.7l-.348.605.347.606h.704l.347-.605.352.605h.699l.352-.605-.352-.606h.703l.348-.605.351.605h.7l-.352.61.352.605h.699l.351-.606.352.606h.7l.347-.606-.348-.605h.7l.35-.606-.35-.605-.7-.004.352-.605-.352-.606h.7l.35-.605.349.605h.703l.347-.605-.347-.606h.699l.348-.61.351.61h.7l-.348.606.347.605h.7l.351-.605.352.605h.699l-.352.606.352.605h-.7l-.35.61.347.605h.703l-.352.605.352.606h.7l.35-.606.348.606h.7l.351-.606-.351-.605h.703l.347-.606.352.606h.7l-.352.605.351.606h.7l.35-.606.352.606h.7"/><path fill="#0F0" fill-opacity=".2" d="M49.082 10.043h-11.34v11.34h11.34ZM.89 63.902h34.016V29.887H.891Zm0 0"/><g clip-path="url(#a)"><path fill="none" stroke="#000" stroke-miterlimit="10" stroke-width="1.197" d="M-33.125 55.398h2.098l1.05-1.816 1.051 1.816h2.098l1.05-1.816-1.05-1.82h2.101l1.047-1.817 1.051 1.817h2.098l-1.047 1.82 1.047 1.816h2.101l1.051-1.82 1.047 1.82h2.102l1.05-1.816-1.05-1.82h2.097l1.051-1.817-1.05-1.82h-2.098l1.05-1.816-1.05-1.82h2.097l1.051-1.817 1.05 1.816h2.098l1.051-1.816-1.05-1.82h2.101l1.05-1.817 1.052 1.817h2.097l-1.05 1.816 1.05 1.82H.465l1.05-1.82 1.051 1.82h2.098l-1.05 1.82 1.05 1.817H2.566l-1.05 1.816 1.046 1.82h2.102l-1.05 1.817 1.05 1.82h2.098l1.05-1.82 1.051 1.82h2.098l1.05-1.82-1.05-1.816h2.101l1.051-1.82 1.051 1.82h2.098l-1.051 1.816 1.05 1.82h2.102l1.051-1.82 1.047 1.82h2.101l1.051-1.816-1.05-1.82 2.097.004 1.05-1.82-1.05-1.817h-2.098l1.051-1.82-1.05-1.817h2.097l1.05-1.816 1.052 1.816h2.097l1.051-1.816-1.05-1.817h2.097l1.05-1.82-1.046-1.816-2.102-.004 1.051-1.817-1.047-1.816h-2.101l-1.051 1.816-1.047-1.816h-2.102l1.051-1.82-1.05-1.82 2.101.003 1.05-1.82-1.05-1.817h-2.098l1.051-1.82-1.05-1.82h2.097l1.05-1.817 1.048 1.817h2.101l1.047-1.813-1.047-1.82h2.098l1.05-1.816 1.051 1.816 2.098.004-1.05 1.816 1.046 1.817h2.102l1.05-1.817 1.047 1.817h2.102l1.05-1.817-1.05-1.816h2.098l1.05-1.82-1.046-1.817h-2.102l1.05-1.82-1.05-1.816h2.102l1.046-1.82 1.051 1.82h2.102l1.047-1.817-1.047-1.82h2.097l1.051-1.82 1.051 1.816h2.098l-1.047 1.816 1.047 1.817h2.097l1.051-1.82 1.047 1.816h2.102L60.3 13.574l1.05 1.817h-2.097l-1.047 1.816 1.05 1.816h2.098l-1.05 1.817 1.05 1.816h2.102l1.047-1.816 1.05 1.816h2.098l1.051-1.812-1.05-1.82 2.1.003 1.052-1.82 1.047 1.82h2.101l-1.05 1.817 1.046 1.82h2.102l1.047-1.82 1.05 1.82h2.102L79.2 24.48l1.046 1.817h-2.098l-1.05 1.816 1.05 1.82h2.098l-1.05 1.817 1.046 1.82h-2.097l-1.047 1.817-1.051-1.82h-2.098l-1.05 1.816 1.05 1.82-2.101-.004-1.051 1.82 1.05 1.817h2.098l-1.05 1.82 1.05 1.817h2.098l1.05-1.817 1.052 1.817h2.097l-1.047 1.82 1.047 1.816h-2.097l-1.051 1.817 1.047 1.82h2.101l-1.05 1.816 1.05 1.82 2.102.005 1.05-1.82 1.047 1.82h2.102l1.05-1.817-1.046-1.82h2.101l1.051-1.816 1.051 1.82h2.098l-1.051 1.82 1.05 1.82h2.098L96 53.575l1.047 1.824h2.101l1.051-1.816-1.05-1.82h2.101l1.05-1.82-1.05-1.817h-2.098l1.047-1.82-1.047-1.82h2.098l1.05-1.817 1.052 1.816h2.097l1.051-1.816-1.05-1.82h2.1l1.052-1.82 1.05 1.82h2.098l-1.047 1.816 1.047 1.82h2.102l1.05-1.82 1.051 1.82h2.098L117 46.304l1.05 1.817h-2.1l-1.052 1.82 1.051 1.817 2.102.004L117 53.578l1.05 1.82h2.098l1.051-1.82 1.051 1.82h2.102l1.05-1.82-1.05-1.82 2.101.004 1.05-1.82 1.052 1.82h2.097l-1.05 1.816 1.05 1.82h2.102l1.05-1.82 1.051 1.82h2.102"/></g><path fill="#00F" fill-opacity=".2" d="M58.152.973h-6.804v6.804h6.804ZM37.742 63.902h34.016V29.887H37.742Zm0 0"/><g clip-path="url(#b)"><path fill="none" stroke="#000" stroke-miterlimit="10" stroke-width="1.995" d="M-86.984 117.762h3.5l1.746-3.032 1.75 3.032h3.5l1.75-3.032-1.75-3.03 3.5.003 1.75-3.031 1.746 3.027 3.5.004-1.75 3.027 1.75 3.032h3.5l1.75-3.032 1.746 3.032h3.5l1.75-3.032-1.75-3.03 3.5.003 1.75-3.031-1.75-3.031h-3.5l1.754-3.032-1.75-3.03h3.496l1.75-3.032 1.75 3.031h3.5l1.75-3.027-1.75-3.031h3.5l1.75-3.032 1.75 3.028 3.496.004-1.75 3.027 1.75 3.031h3.5l1.75-3.031 1.75 3.031h3.5l-1.75 3.031 1.746 3.032-3.496-.004-1.754 3.031 1.75 3.031h3.5l-1.75 3.031 1.746 3.032h3.5l1.754-3.032 1.746 3.032h3.504l1.746-3.032-1.746-3.03h3.5l1.75-3.032 1.75 3.031h3.5l-1.754 3.031 1.75 3.032h3.5l1.75-3.032 1.75 3.032h3.504l1.746-3.032-1.746-3.027h3.496l1.75-3.031-1.75-3.027H7.496l1.75-3.032-1.75-3.031 3.496.004 1.75-3.031 1.75 3.03h3.496l1.75-3.03-1.75-3.028h3.5l1.75-3.03-1.746-3.032h-3.5l1.75-3.031-1.746-3.032h-3.5l-1.75 3.032-1.75-3.032h-3.5l1.75-3.03-1.75-3.032 3.5.004 1.75-3.031L11 69.28H7.5l1.75-3.031-1.75-3.031h3.496l1.75-3.028 1.75 3.028h3.496l1.75-3.028-1.746-3.03 3.496.003 1.75-3.031 1.75 3.031h3.496l-1.75 3.031 1.75 3.032h3.5l1.75-3.032 1.746 3.032h3.5l1.75-3.028-1.75-3.031h3.5l1.75-3.031-1.75-3.032h-3.5l1.75-3.03-1.746-3.032h3.496l1.75-3.031 1.75 3.031h3.5l1.75-3.027-1.75-3.032h3.5l1.75-3.03 1.75 3.026 3.496-.003-1.746 3.027 1.75 3.027h3.496L65.227 42l1.75 3.027h3.496l-1.746 3.028 1.75 3.027H66.98l-1.746 3.027 1.75 3.028h3.496l-1.746 3.027 1.75 3.031h3.5l1.746-3.03 1.75 3.03h3.5l1.75-3.027-1.75-3.031 3.5.004 1.75-3.032 1.747 3.032h3.5l-1.75 3.027 1.746 3.031h3.5l1.75-3.027 1.75 3.027h3.5l-1.75 3.031 1.746 3.032-3.496-.004-1.75 3.031 1.746 3.031h3.496l-1.75 3.028 1.75 3.03h-3.496l-1.75 3.028-1.75-3.031h-3.496l-1.75 3.027 1.746 3.032-3.496-.004-1.75 3.03 1.746 3.032h3.5l-1.75 3.028 1.746 3.03h3.5l1.75-3.03 1.75 3.03h3.5l-1.75 3.032 1.746 3.031h-3.496l-1.754 3.032 1.75 3.027 3.5.004-1.75 3.027 1.746 3.031 3.504.004 1.754-3.031 1.746 3.035h3.504l1.75-3.027-1.746-3.035 3.5.004 1.754-3.032 1.75 3.032 3.5.004-1.754 3.03 1.75 3.036h3.5l1.754-3.031 1.75 3.035 3.5.004 1.75-3.032-1.75-3.03h3.5l1.75-3.032-1.746-3.031h-3.504l1.754-3.032-1.75-3.03h3.5l1.75-3.032 1.75 3.031h3.5l1.75-3.031-1.75-3.031h3.5l1.75-3.032 1.75 3.028 3.5.004-1.75 3.027 1.75 3.031h3.5l1.75-3.03 1.75 3.03h3.5l-1.75 3.032 1.75 3.03h-3.5l-1.754 3.032 1.75 3.031h3.5l-1.75 3.032 1.75 3.03h3.5l1.754-3.03 1.746 3.03h3.504l1.75-3.027-1.75-3.035h3.5l1.753-3.03 1.747 3.03 3.503.004-1.753 3.031 1.75 3.032h3.503l1.75-3.035 1.75 3.035h3.504"/></g><path fill="red" fill-opacity=".2" d="M73.46 14.012H70.06v3.402h3.402ZM74.594 63.902h34.015V29.887H74.594Zm0 0"/><g clip-path="url(#c)"><path fill="none" stroke="#000" stroke-miterlimit="10" stroke-width="3.99" d="M-361.95 75.242h6.997l3.5-6.058 3.496 6.058h6.996l3.5-6.058-3.496-6.063 6.996.004 3.5-6.062 3.496 6.058 7 .004-3.504 6.055 3.5 6.062h7l3.5-6.062 3.496 6.062h7.004l3.496-6.058-3.496-6.063 6.996.004 3.5-6.062-3.496-6.063h-7l3.5-6.062-3.5-6.063h7l3.5-6.059 3.496 6.059h7l3.5-6.055-3.5-6.062h7l3.5-6.063 3.496 6.059 7 .004-3.5 6.055 3.497 6.062h7l3.5-6.062 3.496 6.062h7l-3.5 6.063 3.496 6.062-6.996-.004-3.5 6.059 3.496 6.062h6.996l-3.5 6.063 3.5 6.062h7l3.5-6.062 3.496 6.062h7.004l3.5-6.062-3.5-6.063h7l3.5-6.062 3.5 6.062 7 .004-3.504 6.059 3.5 6.062h7l3.504-6.062 3.496 6.062h7.004l3.496-6.058-3.496-6.059 6.996.004 3.496-6.063-3.496-6.058h-6.996l3.5-6.059-3.496-6.062h6.992l3.5-6.059 3.496 6.059h6.996l3.5-6.055-3.5-6.059h6.996l3.5-6.062-3.492-6.059-7-.004 3.504-6.058-3.496-6.063h-7l-3.5 6.063-3.496-6.063h-7l3.5-6.062-3.496-6.063 6.996.004 3.5-6.058-3.496-6.063-7-.004 3.5-6.058-3.5-6.063h6.996l3.5-6.058 3.496 6.058h6.996l3.5-6.055-3.496-6.062 6.996.004 3.5-6.059 3.496 6.059 7 .004-3.504 6.058 3.496 6.063h7l3.5-6.063 3.496 6.063h7l3.5-6.055-3.5-6.062h7l3.5-6.059-3.5-6.062-7-.004 3.504-6.059-3.5-6.062h6.996l3.5-6.063 3.5 6.063h7l3.496-6.059-3.496-6.062 6.996.003 3.504-6.066 3.5 6.05 6.992-.003-3.492 6.058 3.5 6.055 6.992-.004 3.497-6.058 3.496 6.054h6.992l-3.492 6.051 3.5 6.055-6.993.004-3.492 6.054 3.496 6.055 6.996-.004-3.496 6.059 3.504 6.054h6.996l3.496-6.058 3.5 6.058h6.997l3.5-6.046-3.497-6.063 6.997.004 3.5-6.062L-12.027-46l6.996.004-3.5 6.055 3.496 6.062h7l3.496-6.058 3.5 6.058h7l-3.5 6.063 3.496 6.058-6.996-.004-3.5 6.059 3.496 6.062 6.996.004-3.504 6.055 3.496 6.062-6.992-.003-3.5 6.054-3.492-6.058-7-.004-3.496 6.054 3.496 6.063-6.996-.004-3.504 6.063 3.496 6.058 6.996.004-3.5 6.055 3.496 6.062h7l3.5-6.062 3.496 6.062h7l-3.5 6.063 3.496 6.062-6.996-.004-3.5 6.063 3.496 6.058 6.997.004-3.5 6.059 3.5 6.062 7 .008 3.507-6.062 3.496 6.066 7.004.004 3.508-6.059-3.5-6.07 7.004.008 3.508-6.063 3.496 6.067 7.004.008-3.508 6.058 3.496 6.07 7.004.004 3.508-6.062 3.496 6.066 7.004.008 3.5-6.062-3.496-6.063 6.996.004 3.504-6.066-3.5-6.063h-7l3.5-6.062-3.5-6.067 7 .004 3.5-6.062 3.5 6.062h7l3.5-6.058-3.5-6.067h7l3.504-6.062 3.5 6.058 7 .004-3.5 6.059 3.5 6.062h7l3.5-6.062 3.496 6.062h7.004l-3.5 6.063 3.496 6.062h-7l-3.5 6.059 3.496 6.062 7 .004-3.5 6.063 3.5 6.062h7l3.504-6.062 3.5 6.062h7.004l3.5-6.058-3.5-6.067h7l3.504-6.066 3.5 6.066 7 .004-3.504 6.059 3.5 6.066h7.004l3.503-6.066 3.5 6.066h7.008"/></g></svg>