<svg xmlns="http://www.w3.org/2000/svg" xmlns:xlink="http://www.w3.org/1999/xlink" width="271.55" height="187.579"><defs><path id="a" d="M.453 1.219c-.078.343-.11.406-.547.406-.11 0-.218 0-.218.188 0 .078.046.125.125.125.265 0 .562-.032.828-.032.343 0 .672.032 1 .032.046 0 .172 0 .172-.204 0-.109-.094-.109-.235-.109-.5 0-.5-.062-.5-.156 0-.125.422-1.75.484-2 .125.297.407.64.922.64 1.157 0 2.407-1.453 2.407-2.921 0-.938-.578-1.594-1.328-1.594-.5 0-.985.36-1.313.75-.094-.547-.531-.75-.89-.75-.47 0-.657.39-.735.562-.187.344-.312.938-.312.969 0 .11.093.11.109.11.11 0 .11-.016.172-.235.172-.703.375-1.187.734-1.187.172 0 .313.078.313.453 0 .234-.032.343-.079.515Zm1.75-4.328c.063-.266.344-.547.516-.703.36-.297.64-.376.812-.376.39 0 .64.344.64.938s-.327 1.734-.515 2.11C3.312-.439 2.844-.11 2.47-.11c-.656 0-.781-.827-.781-.89 0-.016 0-.031.03-.156Zm0 0"/><path id="c" d="M4.5-4.297c0-.047-.031-.094-.094-.094-.11 0-.515.391-.672.688-.218-.547-.609-.703-.937-.703-1.172 0-2.39 1.468-2.39 2.922C.406-.516.983.109 1.718.109c.422 0 .812-.234 1.172-.593-.094.343-.422 1.687-.453 1.78-.079.282-.157.313-.72.329-.124 0-.218 0-.218.203 0 0 0 .11.125.11.313 0 .672-.032 1-.032s.688.032 1.031.032c.047 0 .172 0 .172-.204 0-.109-.094-.109-.265-.109-.47 0-.47-.062-.47-.156 0-.078.016-.14.032-.219ZM1.75-.109c-.61 0-.64-.766-.64-.938 0-.484.28-1.562.452-1.984.313-.735.829-1.156 1.235-1.156.656 0 .797.812.797.875s-.547 2.25-.578 2.28c-.157.282-.72.923-1.266.923m0 0"/><path id="i" d="M.875-.594c-.031.156-.094.39-.094.438 0 .172.14.265.297.265a.41.41 0 0 0 .375-.28c0-.016.125-.485.188-.735l.218-.89c.047-.235.11-.454.172-.673.031-.172.11-.469.125-.5.14-.312.672-1.219 1.625-1.219.453 0 .531.375.531.704 0 .25-.062.53-.14.828L3.89-1.5l-.203.75c-.032.203-.126.547-.126.594 0 .172.141.265.282.265.312 0 .375-.25.453-.562.14-.563.516-2.016.594-2.406.03-.125.562-1.328 1.656-1.328.422 0 .531.343.531.703 0 .562-.422 1.703-.625 2.234-.078.234-.125.344-.125.547 0 .469.344.812.813.812.937 0 1.312-1.453 1.312-1.53 0-.11-.094-.11-.125-.11-.094 0-.094.031-.14.187-.157.532-.47 1.235-1.016 1.235-.172 0-.25-.094-.25-.328 0-.25.094-.485.187-.704.188-.53.61-1.625.61-2.203 0-.64-.407-1.062-1.157-1.062-.734 0-1.25.437-1.625.968 0-.124-.03-.468-.312-.703-.25-.218-.562-.265-.812-.265-.907 0-1.391.64-1.563.875-.047-.578-.469-.875-.922-.875s-.64.39-.734.562c-.172.36-.297.938-.297.969 0 .11.094.11.11.11.109 0 .109-.016.171-.235.172-.703.375-1.187.735-1.187.156 0 .296.078.296.453 0 .218-.03.328-.156.843Zm0 0"/><path id="k" d="M3.656-3.984h.86c.203 0 .297 0 .297-.203 0-.11-.094-.11-.266-.11h-.828l.203-1.14c.047-.204.187-.907.25-1.032.078-.187.25-.343.469-.343.03 0 .297 0 .484.187a.557.557 0 0 0-.547.531c0 .235.188.36.375.36.266 0 .547-.235.547-.61 0-.453-.453-.687-.86-.687-.343 0-.968.187-1.265 1.172-.062.203-.094.312-.328 1.562h-.688c-.203 0-.312 0-.312.188 0 .125.094.125.281.125h.656L2.25-.047c-.187.969-.36 1.875-.875 1.875-.047 0-.281 0-.484-.187.468-.032.562-.391.562-.532 0-.234-.187-.359-.375-.359-.266 0-.547.234-.547.61 0 .437.438.687.844.687.547 0 .953-.594 1.125-.969.328-.625.547-1.828.563-1.906Zm0 0"/><path id="l" d="M2.047-3.984h.937c.204 0 .313 0 .313-.203 0-.11-.11-.11-.281-.11H2.14c.359-1.422.406-1.61.406-1.672 0-.172-.125-.265-.297-.265-.031 0-.312 0-.39.359l-.391 1.578H.53c-.203 0-.297 0-.297.188 0 .125.078.125.282.125h.875C.67-1.156.625-.984.625-.812c0 .546.375.921.922.921 1.016 0 1.578-1.453 1.578-1.53 0-.11-.078-.11-.11-.11-.093 0-.109.031-.156.14C2.438-.344 1.906-.109 1.563-.109c-.204 0-.313-.125-.313-.453 0-.25.031-.313.063-.485Zm0 0"/><path id="b" d="M2.328-4.437c0-.188 0-.188-.203-.188-.453.438-1.078.438-1.36.438v.25c.157 0 .626 0 1-.188v3.547c0 .234 0 .328-.687.328H.812V0c.125 0 .985-.031 1.235-.031.219 0 1.094.031 1.25.031v-.25H3.03c-.703 0-.703-.094-.703-.328Zm0 0"/><path id="d" d="M3.516-1.266H3.28c-.015.157-.094.563-.187.625-.047.047-.578.047-.688.047H1.125c.734-.64.984-.843 1.39-1.172.516-.406 1-.843 1-1.5 0-.843-.734-1.359-1.624-1.359-.86 0-1.453.61-1.453 1.25 0 .344.296.39.375.39.156 0 .359-.124.359-.374 0-.125-.047-.375-.406-.375.218-.485.687-.641 1.015-.641.703 0 1.063.547 1.063 1.11 0 .609-.438 1.078-.656 1.328L.516-.266C.437-.203.437-.187.437 0h2.876Zm0 0"/><path id="e" d="M1.906-2.328c.547 0 .938.375.938 1.125 0 .86-.516 1.125-.906 1.125-.282 0-.907-.078-1.188-.5.328 0 .406-.235.406-.39 0-.22-.172-.376-.39-.376a.38.38 0 0 0-.391.407C.375-.281 1.094.14 1.938.14c.968 0 1.64-.657 1.64-1.344 0-.547-.437-1.094-1.203-1.25.719-.266.984-.781.984-1.219 0-.547-.625-.953-1.406-.953-.766 0-1.36.375-1.36.938 0 .234.157.359.36.359.219 0 .36-.156.36-.344 0-.203-.141-.36-.36-.375.25-.297.719-.375.985-.375.312 0 .75.156.75.75 0 .297-.094.625-.282.828-.219.266-.422.281-.765.313-.172.015-.188.015-.22.015-.015 0-.077.016-.077.094 0 .094.062.094.187.094Zm0 0"/><path id="f" d="M3.688-1.14v-.25h-.782V-4.5c0-.14 0-.203-.14-.203-.094 0-.125 0-.188.11L.266-1.392v.25h2.062v.563c0 .25 0 .328-.578.328h-.187V0c.359-.016.796-.031 1.046-.031.266 0 .704.015 1.063.031v-.25h-.188c-.578 0-.578-.078-.578-.328v-.563ZM2.375-3.939v2.547H.531Zm0 0"/><path id="g" d="M1.078-3.89c.36.093.563.093.672.093.922 0 1.469-.625 1.469-.734 0-.078-.047-.094-.078-.094-.016 0-.032 0-.063.016-.172.062-.531.203-1.047.203-.203 0-.562-.016-1.015-.188-.079-.031-.094-.031-.094-.031-.094 0-.094.078-.094.188v2.046c0 .125 0 .204.11.204.062 0 .078 0 .14-.094.297-.375.734-.438.969-.438.422 0 .61.328.64.39.126.235.172.5.172.907 0 .203 0 .61-.218.922a.98.98 0 0 1-.813.422c-.453 0-.922-.25-1.094-.719.266.016.407-.156.407-.344 0-.296-.266-.343-.36-.343 0 0-.343 0-.343.375 0 .625.578 1.25 1.406 1.25.89 0 1.672-.657 1.672-1.547 0-.782-.594-1.5-1.453-1.5-.313 0-.672.062-.985.328Zm0 0"/><path id="h" d="M1.047-2.281c0-.563.047-1.078.312-1.516.235-.375.61-.625 1.063-.625.203 0 .484.047.625.234-.172.016-.328.141-.328.344a.32.32 0 0 0 .328.328c.219 0 .344-.14.344-.343 0-.407-.297-.766-.985-.766-1 0-2.031.922-2.031 2.422C.375-.406 1.219.14 2 .14c.844 0 1.578-.657 1.578-1.563 0-.89-.703-1.547-1.515-1.547-.563 0-.86.375-1.016.688M2-.078c-.36 0-.625-.203-.781-.516-.094-.203-.157-.562-.157-.968 0-.688.407-1.204.97-1.204.312 0 .53.125.702.375.172.266.172.563.172.97 0 .39 0 .687-.187.968A.82.82 0 0 1 2-.078m0 0"/><path id="j" d="M6.844-3.266c.156 0 .343 0 .343-.187 0-.203-.187-.203-.328-.203H.891c-.141 0-.328 0-.328.203 0 .187.187.187.328.187Zm.015 1.938c.141 0 .329 0 .329-.203 0-.188-.188-.188-.344-.188H.89c-.141 0-.328 0-.328.188 0 .203.187.203.328.203Zm0 0"/><path id="q" d="M2.938-6.375c0-.25 0-.266-.235-.266C2.078-6 1.203-6 .891-6v.313c.203 0 .78 0 1.297-.266v5.172c0 .36-.032.469-.922.469H.953V0c.344-.031 1.203-.031 1.61-.031.39 0 1.265 0 1.609.031v-.312h-.313c-.906 0-.921-.11-.921-.47Zm0 0"/><path id="r" d="m1.266-.766 1.062-1.03c1.547-1.376 2.14-1.907 2.14-2.907 0-1.14-.89-1.938-2.109-1.938C1.234-6.64.5-5.719.5-4.828c0 .547.5.547.531.547.172 0 .516-.11.516-.532a.513.513 0 0 0-.531-.515c-.079 0-.094 0-.125.016.218-.657.765-1.016 1.343-1.016.907 0 1.329.812 1.329 1.625 0 .797-.485 1.578-1.047 2.203L.609-.375C.5-.265.5-.235.5 0h3.703l.266-1.734h-.235C4.172-1.437 4.11-1 4-.844c-.062.078-.719.078-.937.078Zm0 0"/><path id="m" d="M3.016-6.672a.5.5 0 0 0 .03-.125c0-.094-.062-.125-.14-.125a.6.6 0 0 0-.156.031l-.984.079c-.125 0-.235.015-.235.203 0 .109.11.109.25.109.469 0 .485.063.485.172 0 .031-.016.156-.016.172L.766-.281C.75-.266.75-.171.75-.156c0 .11.094.265.281.265.203 0 .328-.171.36-.28.046-.141.359-1.438.437-1.72.047-.218.11-.437.156-.656.094-.36.094-.375.282-.687.203-.328.625-.953 1.328-.953.437 0 .453.453.453.656 0 .625-.438 1.812-.578 2.203-.125.344-.156.437-.156.64 0 .438.28.797.75.797.937 0 1.265-1.484 1.265-1.53 0-.11-.078-.11-.14-.11-.141 0-.141.031-.172.172-.079.265-.344 1.25-.922 1.25-.219 0-.219-.157-.219-.297 0-.235.094-.5.172-.735.203-.53.61-1.656.61-2.234 0-.812-.548-1.031-1.032-1.031-.672 0-1.016.343-1.328.64Zm0 0"/><path id="n" d="M5.078-2.766c0-.953-.594-1.64-1.453-1.64-1.25 0-2.531 1.422-2.531 2.875 0 1.015.625 1.64 1.453 1.64 1.234 0 2.531-1.421 2.531-2.875M2.547-.109c-.39 0-.75-.313-.75-1.032 0-.5.25-1.593.578-2.14.36-.61.844-.906 1.234-.906.485 0 .766.437.766 1.03 0 .423-.219 1.454-.531 2.048-.297.547-.797 1-1.297 1m0 0"/><path id="o" d="M3.016-6.672a.5.5 0 0 0 .03-.125c0-.094-.062-.125-.14-.125a.6.6 0 0 0-.156.031l-.984.079c-.125 0-.235.015-.235.203 0 .109.11.109.25.109.469 0 .485.063.485.172 0 .031-.016.156-.016.172L1-1.172a1.4 1.4 0 0 0-.062.39c0 .516.359.891.843.891.375 0 .578-.265.703-.515.172-.344.313-.985.313-1.016 0-.11-.078-.11-.156-.11-.047 0-.11 0-.141.063l-.062.25c-.172.688-.36 1.11-.641 1.11-.266 0-.266-.266-.266-.407 0-.078 0-.218.063-.468Zm0 0"/><path id="p" d="M5.547-6.672a.5.5 0 0 0 .031-.125c0-.094-.062-.125-.14-.125a.6.6 0 0 0-.157.031l-.984.079c-.125 0-.234.015-.234.203 0 .109.109.109.25.109.468 0 .5.063.5.172 0 .031-.032.156-.032.172l-.578 2.328c-.156-.313-.422-.578-.844-.578-1.109 0-2.28 1.515-2.28 2.968C1.078-.593 1.53.11 2.28.11c.36 0 .797-.203 1.203-.703.11.5.47.703.829.703s.578-.25.718-.562c.188-.375.297-.953.297-.969 0-.11-.078-.11-.14-.11-.125 0-.141.016-.188.235-.14.563-.328 1.188-.672 1.188-.266 0-.266-.266-.266-.407 0-.078 0-.218.063-.468ZM3.53-1.219c-.078.313-.687 1.11-1.234 1.11-.469 0-.547-.594-.547-.891 0-.5.313-1.656.5-2.078.25-.61.703-1.11 1.11-1.11.078 0 .312.016.484.297.11.157.203.438.203.625 0 .032-.016.079-.031.141Zm0 0"/></defs><path fill="none" stroke="#000" stroke-miterlimit="10" stroke-width=".797" d="M31.496 9.71a8.5 8.5 0 0 0-8.504-8.503 8.503 8.503 0 0 0-8.504 8.504 8.506 8.506 0 0 0 8.504 8.504c4.7 0 8.504-3.809 8.504-8.504Zm0 0"/><use xlink:href="#a" x="1.09" y="10.89"/><use xlink:href="#b" x="6.102" y="12.384"/><path fill="none" stroke="#000" stroke-miterlimit="10" stroke-width=".797" d="M258.273 9.71c0-4.698-3.808-8.503-8.503-8.503a8.5 8.5 0 0 0-8.504 8.504 8.503 8.503 0 0 0 8.504 8.504 8.506 8.506 0 0 0 8.503-8.504Zm0 0"/><use xlink:href="#c" x="262.187" y="10.89"/><use xlink:href="#b" x="266.635" y="12.384"/><path fill="none" stroke="#000" stroke-miterlimit="10" stroke-width=".797" d="M31.496 40.89a8.503 8.503 0 0 0-8.504-8.503 8.506 8.506 0 0 0-8.504 8.504c0 4.699 3.809 8.504 8.504 8.504a8.5 8.5 0 0 0 8.504-8.504Zm0 0"/><use xlink:href="#a" x="1.09" y="42.075"/><use xlink:href="#d" x="6.102" y="43.571"/><path fill="none" stroke="#000" stroke-miterlimit="10" stroke-width=".797" d="M258.273 40.89a8.506 8.506 0 0 0-8.503-8.503 8.503 8.503 0 0 0-8.504 8.504 8.5 8.5 0 0 0 8.504 8.504 8.503 8.503 0 0 0 8.503-8.504Zm0 0"/><use xlink:href="#c" x="262.187" y="42.075"/><use xlink:href="#d" x="266.635" y="43.571"/><path fill="none" stroke="#000" stroke-miterlimit="10" stroke-width=".797" d="M31.496 72.074a8.5 8.5 0 0 0-8.504-8.504 8.503 8.503 0 0 0-8.504 8.504 8.506 8.506 0 0 0 8.504 8.504c4.7 0 8.504-3.808 8.504-8.504Zm0 0"/><use xlink:href="#a" x="1.09" y="73.261"/><use xlink:href="#e" x="6.102" y="74.755"/><path fill="none" stroke="#000" stroke-miterlimit="10" stroke-width=".797" d="M258.273 72.074c0-4.699-3.808-8.504-8.503-8.504a8.5 8.5 0 0 0-8.504 8.504 8.503 8.503 0 0 0 8.504 8.504 8.506 8.506 0 0 0 8.503-8.504Zm0 0"/><use xlink:href="#c" x="262.187" y="73.261"/><use xlink:href="#e" x="266.635" y="74.755"/><path fill="none" stroke="#000" stroke-miterlimit="10" stroke-width=".797" d="M31.496 103.254a8.503 8.503 0 0 0-8.504-8.504 8.506 8.506 0 0 0-8.504 8.504c0 4.7 3.809 8.504 8.504 8.504a8.5 8.5 0 0 0 8.504-8.504Zm0 0"/><use xlink:href="#a" x="1.09" y="104.447"/><use xlink:href="#f" x="6.102" y="105.942"/><path fill="none" stroke="#000" stroke-miterlimit="10" stroke-width=".797" d="M258.273 103.254a8.506 8.506 0 0 0-8.503-8.504 8.503 8.503 0 0 0-8.504 8.504 8.5 8.5 0 0 0 8.504 8.504 8.503 8.503 0 0 0 8.503-8.504Zm0 0"/><use xlink:href="#c" x="262.187" y="104.447"/><use xlink:href="#f" x="266.635" y="105.942"/><path fill="none" stroke="#000" stroke-miterlimit="10" stroke-width=".797" d="M31.496 134.438a8.5 8.5 0 0 0-8.504-8.504 8.503 8.503 0 0 0-8.504 8.504 8.506 8.506 0 0 0 8.504 8.503c4.7 0 8.504-3.808 8.504-8.504Zm0 0"/><use xlink:href="#a" x="1.09" y="135.632"/><use xlink:href="#g" x="6.102" y="137.126"/><path fill="none" stroke="#000" stroke-miterlimit="10" stroke-width=".797" d="M258.273 134.438c0-4.7-3.808-8.504-8.503-8.504a8.5 8.5 0 0 0-8.504 8.504 8.503 8.503 0 0 0 8.504 8.503 8.506 8.506 0 0 0 8.503-8.504Zm0 0"/><use xlink:href="#c" x="262.187" y="135.632"/><use xlink:href="#g" x="266.635" y="137.126"/><path fill="none" stroke="#000" stroke-miterlimit="10" stroke-width=".797" d="M31.496 165.617a8.503 8.503 0 0 0-8.504-8.504 8.506 8.506 0 0 0-8.504 8.504c0 4.7 3.809 8.504 8.504 8.504a8.5 8.5 0 0 0 8.504-8.504Zm0 0"/><use xlink:href="#a" x="1.09" y="166.817"/><use xlink:href="#h" x="6.102" y="168.313"/><path fill="none" stroke="#000" stroke-miterlimit="10" stroke-width=".797" d="M258.273 165.617a8.506 8.506 0 0 0-8.503-8.504 8.503 8.503 0 0 0-8.504 8.504 8.5 8.5 0 0 0 8.504 8.504 8.503 8.503 0 0 0 8.503-8.504Zm0 0"/><use xlink:href="#c" x="262.187" y="166.817"/><use xlink:href="#h" x="266.635" y="168.313"/><path fill="none" stroke="#000" stroke-miterlimit="10" stroke-width=".797" d="M116.54 48.688a8.506 8.506 0 0 0-8.505-8.504 8.503 8.503 0 0 0-8.504 8.504 8.503 8.503 0 0 0 8.504 8.503 8.506 8.506 0 0 0 8.504-8.503Zm0 0"/><use xlink:href="#i" x="91.808" y="34.336"/><use xlink:href="#b" x="100.555" y="35.83"/><use xlink:href="#j" x="107.792" y="34.336"/><use xlink:href="#k" x="118.308" y="34.336"/><path fill="none" stroke="#000" stroke-miterlimit="10" stroke-width=".797" d="M116.54 71.363a8.506 8.506 0 0 0-8.505-8.504 8.503 8.503 0 0 0-8.504 8.504 8.5 8.5 0 0 0 8.504 8.504 8.503 8.503 0 0 0 8.504-8.504Zm0 0"/><use xlink:href="#i" x="92.984" y="89.927"/><use xlink:href="#b" x="101.731" y="91.421"/><use xlink:href="#j" x="108.968" y="89.927"/><use xlink:href="#l" x="119.484" y="89.927"/><path fill="none" stroke="#000" stroke-miterlimit="10" stroke-width=".797" d="M173.23 48.688a8.503 8.503 0 0 0-8.503-8.504 8.506 8.506 0 0 0-8.504 8.504 8.506 8.506 0 0 0 8.504 8.503c4.699 0 8.503-3.808 8.503-8.503Zm0 0"/><use xlink:href="#i" x="148.501" y="34.336"/><use xlink:href="#d" x="157.248" y="35.83"/><use xlink:href="#j" x="164.485" y="34.336"/><use xlink:href="#k" x="175.001" y="34.336"/><path fill="none" stroke="#000" stroke-miterlimit="10" stroke-width=".797" d="M173.23 71.363a8.503 8.503 0 0 0-8.503-8.504 8.506 8.506 0 0 0-8.504 8.504c0 4.7 3.808 8.504 8.504 8.504a8.5 8.5 0 0 0 8.503-8.504Zm0 0"/><use xlink:href="#i" x="149.677" y="89.927"/><use xlink:href="#d" x="158.424" y="91.421"/><use xlink:href="#j" x="165.661" y="89.927"/><use xlink:href="#l" x="176.177" y="89.927"/><path fill="none" stroke="#000" stroke-miterlimit="10" stroke-width=".797" d="M144.887 118.848c0-4.7-3.809-8.504-8.504-8.504a8.5 8.5 0 0 0-8.504 8.504 8.503 8.503 0 0 0 8.504 8.504 8.506 8.506 0 0 0 8.504-8.504Zm0 0"/><use xlink:href="#m" x="117.821" y="106.441"/><use xlink:href="#n" x="122.913" y="106.441"/><use xlink:href="#o" x="128.005" y="106.441"/><use xlink:href="#p" x="130.551" y="106.441"/><use xlink:href="#j" x="139.44" y="106.441"/><use xlink:href="#q" x="149.949" y="106.441"/><path fill="none" stroke="#000" stroke-miterlimit="10" stroke-width=".797" d="M144.887 141.523a8.506 8.506 0 0 0-8.504-8.503 8.503 8.503 0 0 0-8.504 8.503 8.503 8.503 0 0 0 8.504 8.504 8.506 8.506 0 0 0 8.504-8.504Zm0 0"/><use xlink:href="#m" x="117.821" y="160.886"/><use xlink:href="#n" x="122.913" y="160.886"/><use xlink:href="#o" x="128.005" y="160.886"/><use xlink:href="#p" x="130.551" y="160.886"/><use xlink:href="#j" x="139.44" y="160.886"/><use xlink:href="#r" x="149.949" y="160.886"/><path d="M25.207 9.715a2.212 2.212 0 0 0-4.426 0c0 1.223.992 2.21 2.211 2.21a2.21 2.21 0 0 0 2.215-2.21M251.98 9.715a2.211 2.211 0 1 0-4.422 0 2.211 2.211 0 0 0 4.422 0M110.246 48.695a2.211 2.211 0 0 0-4.422 0c0 1.223.989 2.215 2.211 2.215 1.223 0 2.211-.992 2.211-2.215M166.941 48.695c0-1.218-.992-2.21-2.214-2.21a2.214 2.214 0 0 0 0 4.425 2.216 2.216 0 0 0 2.214-2.215M138.594 118.863a2.214 2.214 0 0 0-4.426 0c0 1.223.992 2.215 2.215 2.215 1.219 0 2.21-.992 2.21-2.215m0 0"/><path stroke="#000" stroke-miterlimit="10" stroke-width=".399" d="M64.098 30.262h2.832V20.34h-2.832Zm0 0"/><path fill="none" stroke="#000" stroke-miterlimit="10" stroke-width=".399" d="M61.09 23.688 31.352 12.78"/><path d="m62.96 24.371-2.44-2.594.57 1.91-1.668 1.083"/><path fill="none" stroke="#000" stroke-miterlimit="10" stroke-width=".399" d="M63.898 25.902 34.16 36.81"/><path d="m32.29 37.492 3.538.399-1.668-1.082.57-1.91"/><path stroke="#000" stroke-miterlimit="10" stroke-width=".399" d="M64.098 61.441h2.832v-9.918h-2.832Zm0 0"/><path fill="none" stroke="#000" stroke-miterlimit="10" stroke-width=".399" d="M61.09 54.871 31.352 43.97"/><path d="m62.96 55.559-2.44-2.594.57 1.906-1.668 1.086"/><path fill="none" stroke="#000" stroke-miterlimit="10" stroke-width=".399" d="m70.07 55.66 29.207-5.355"/><path d="m68.11 56.02 3.425.992-1.465-1.352.887-1.785"/><path fill="none" stroke="#000" stroke-miterlimit="10" stroke-width=".399" d="M63.898 57.086 34.16 67.992"/><path d="m32.29 68.68 3.538.398-1.668-1.086.57-1.906"/><path fill="none" stroke="#000" stroke-miterlimit="10" stroke-width=".399" d="m67.129 57.059 29.683 10.39"/><path d="m98.691 68.11-2.484-2.56.606 1.9-1.657 1.109"/><path stroke="#000" stroke-miterlimit="10" stroke-width=".399" d="M64.098 86.39h2.832V76.47h-2.832Zm0 0"/><path fill="none" stroke="#000" stroke-miterlimit="10" stroke-width=".399" d="M60.98 80.445 31.688 74"/><path d="m62.926 80.875-2.774-2.242.828 1.812-1.511 1.301"/><path fill="none" stroke="#000" stroke-miterlimit="10" stroke-width=".399" d="m63.898 82.273-30.324 15.57"/><path d="m31.8 98.754 3.563-.04-1.789-.87.336-1.965"/><path fill="none" stroke="#000" stroke-miterlimit="10" stroke-width=".399" d="m69.773 83.691 56.094 29.621"/><path d="m68.012 82.762 2.074 2.898-.313-1.969 1.801-.851M127.629 114.242l-2.078-2.894.316 1.965-1.805.851"/><path stroke="#000" stroke-miterlimit="10" stroke-width=".399" d="M64.098 98.86h2.832V88.94h-2.832Zm0 0"/><path fill="none" stroke="#000" stroke-miterlimit="10" stroke-width=".399" d="M61.238 91.723 30.914 76.156"/><path d="m63.012 92.633-2.11-2.875.336 1.965-1.789.87"/><path fill="none" stroke="#000" stroke-miterlimit="10" stroke-width=".399" d="m69.61 96.668 59.382 39.914"/><path d="m67.957 95.559 1.758 3.101-.106-1.992 1.883-.652"/><path fill="none" stroke="#000" stroke-miterlimit="10" stroke-width=".399" d="M63.898 94.273 34.61 100.72"/><path d="m32.66 101.148 3.457.872-1.508-1.301.825-1.813"/><path fill="none" stroke="#000" stroke-miterlimit="10" stroke-width=".399" d="m67.129 94.566 57.578 23.184"/><path d="m126.555 118.492-2.364-2.668.516 1.926-1.703 1.031"/><path stroke="#000" stroke-miterlimit="10" stroke-width=".399" d="M64.098 117.57h2.832v-9.922h-2.832Zm0 0"/><path fill="none" stroke="#000" stroke-miterlimit="10" stroke-width=".399" d="m60.98 111.633-29.292-6.445"/><path d="m62.926 112.059-2.774-2.243.828 1.817-1.511 1.297"/><path fill="none" stroke="#000" stroke-miterlimit="10" stroke-width=".399" d="m63.898 113.46-30.324 15.571"/><path d="m31.8 129.941 3.567-.039-1.793-.87.336-1.966"/><path fill="none" stroke="#000" stroke-miterlimit="10" stroke-width=".399" d="m69.645 109.969 85.09-54.828"/><path d="m67.969 111.047 3.543-.387-1.867-.691.14-1.989M156.406 54.059l-3.543.386 1.871.696-.144 1.984"/><path stroke="#000" stroke-miterlimit="10" stroke-width=".399" d="M64.098 130.043h2.832v-9.922h-2.832Zm0 0"/><path fill="none" stroke="#000" stroke-miterlimit="10" stroke-width=".399" d="M61.238 122.91 30.91 107.34"/><path d="m63.012 123.82-2.11-2.875.336 1.965-1.789.871"/><path fill="none" stroke="#000" stroke-miterlimit="10" stroke-width=".399" d="m63.898 125.46-29.289 6.446"/><path d="m32.66 132.336 3.457.871-1.508-1.3.825-1.813"/><path fill="none" stroke="#000" stroke-miterlimit="10" stroke-width=".399" d="m70.043 126.152 54.754 12.707"/><path d="m68.102 125.703 2.746 2.274-.805-1.825 1.523-1.28M126.738 139.313l-2.746-2.274.805 1.82-1.524 1.286"/><path stroke="#000" stroke-miterlimit="10" stroke-width=".399" d="M64.098 154.988h2.832v-9.922h-2.832Zm0 0"/><path fill="none" stroke="#000" stroke-miterlimit="10" stroke-width=".399" d="m61.09 148.43-29.738-10.903"/><path d="m62.96 149.117-2.44-2.594.57 1.907-1.668 1.086"/><path fill="none" stroke="#000" stroke-miterlimit="10" stroke-width=".399" d="M68.55 144.434 103.8 79.21"/><path d="m67.605 146.184 2.918-2.047-1.972.297-.832-1.813"/><path fill="none" stroke="#000" stroke-miterlimit="10" stroke-width=".399" d="m63.898 150.645-29.738 10.91"/><path d="m32.29 162.238 3.542.399-1.672-1.082.574-1.91"/><path fill="none" stroke="#000" stroke-miterlimit="10" stroke-width=".399" d="m67.129 146.2 36.305-86.536"/><path d="m104.207 57.824-2.703 2.324 1.93-.484 1.007 1.719"/><path stroke="#000" stroke-miterlimit="10" stroke-width=".399" d="M64.098 186.172h2.832v-9.922h-2.832Zm0 0"/><path fill="none" stroke="#000" stroke-miterlimit="10" stroke-width=".399" d="m61.09 179.617-29.738-10.902"/><path d="m62.96 180.305-2.44-2.598.57 1.91-1.668 1.086"/><path fill="none" stroke="#000" stroke-miterlimit="10" stroke-width=".399" d="M64.383 176.078 29.93 18.93"/><path d="m29.504 16.984-.875 3.453 1.3-1.507 1.813.828"/><path stroke="#000" stroke-miterlimit="10" stroke-width=".399" d="M205.832 30.262h2.832V20.34h-2.832Zm0 0"/><path fill="none" stroke="#000" stroke-miterlimit="10" stroke-width=".399" d="M211.672 23.688 241.41 12.78"/><path d="m209.8 24.371 3.544.399-1.672-1.082.574-1.91"/><path fill="none" stroke="#000" stroke-miterlimit="10" stroke-width=".399" d="m208.863 25.902 29.742 10.907"/><path d="m240.473 37.492-2.442-2.594.574 1.91-1.671 1.083"/><path stroke="#000" stroke-miterlimit="10" stroke-width=".399" d="M205.832 61.441h2.832v-9.918h-2.832Zm0 0"/><path fill="none" stroke="#000" stroke-miterlimit="10" stroke-width=".399" d="M211.672 54.871 241.41 43.97"/><path d="m209.8 55.559 3.544.398-1.672-1.086.574-1.906"/><path fill="none" stroke="#000" stroke-miterlimit="10" stroke-width=".399" d="m202.691 55.66-29.207-5.355"/><path d="m204.652 56.02-2.847-2.145.886 1.785-1.46 1.352"/><path fill="none" stroke="#000" stroke-miterlimit="10" stroke-width=".399" d="m208.863 57.086 29.742 10.906"/><path d="m240.473 68.68-2.442-2.594.574 1.906-1.671 1.086"/><path fill="none" stroke="#000" stroke-miterlimit="10" stroke-width=".399" d="m205.633 57.059-29.68 10.39"/><path d="m174.07 68.11 3.535.449-1.652-1.11.602-1.898"/><path stroke="#000" stroke-miterlimit="10" stroke-width=".399" d="M205.832 86.39h2.832V76.47h-2.832Zm0 0"/><path fill="none" stroke="#000" stroke-miterlimit="10" stroke-width=".399" d="M211.785 80.445 241.075 74"/><path d="m209.836 80.875 3.457.871-1.508-1.3.824-1.813"/><path fill="none" stroke="#000" stroke-miterlimit="10" stroke-width=".399" d="m208.863 82.273 30.325 15.57"/><path d="m240.96 98.754-2.105-2.875.333 1.965-1.79.87"/><path fill="none" stroke="#000" stroke-miterlimit="10" stroke-width=".399" d="m203.352 84.746-57.903 49.11"/><path d="m204.871 83.457-3.46.848 1.94.441.122 1.988M143.93 135.145l3.465-.848-1.946-.442-.117-1.988"/><path stroke="#000" stroke-miterlimit="10" stroke-width=".399" d="M205.832 98.86h2.832V88.94h-2.832Zm0 0"/><path fill="none" stroke="#000" stroke-miterlimit="10" stroke-width=".399" d="m211.523 91.723 30.329-15.567"/><path d="m209.75 92.633 3.566-.04-1.793-.87.336-1.965"/><path fill="none" stroke="#000" stroke-miterlimit="10" stroke-width=".399" d="m202.813 95.477-58.036 20.433"/><path d="m204.691 94.816-3.535-.445 1.656 1.106-.597 1.902"/><path fill="none" stroke="#000" stroke-miterlimit="10" stroke-width=".399" d="m208.863 94.273 29.293 6.446"/><path d="m240.102 101.148-2.774-2.242.828 1.813-1.511 1.3"/><path fill="none" stroke="#000" stroke-miterlimit="10" stroke-width=".399" d="m205.633 95.16-57.98 44.563"/><path d="m146.074 140.938 3.5-.68-1.922-.535-.023-1.993"/><path stroke="#000" stroke-miterlimit="10" stroke-width=".399" d="M205.832 117.57h2.832v-9.922h-2.832Zm0 0"/><path fill="none" stroke="#000" stroke-miterlimit="10" stroke-width=".399" d="m211.785 111.633 29.29-6.445"/><path d="m209.836 112.059 3.457.87-1.508-1.296.824-1.817"/><path fill="none" stroke="#000" stroke-miterlimit="10" stroke-width=".399" d="m208.863 113.46 30.325 15.571"/><path d="m240.96 129.941-2.108-2.875.335 1.965-1.789.871"/><path fill="none" stroke="#000" stroke-miterlimit="10" stroke-width=".399" d="m203.121 109.969-85.09-54.828"/><path d="m204.793 111.047-1.816-3.067.144 1.989-1.871.691M116.355 54.059l1.817 3.066-.14-1.984 1.866-.696"/><path stroke="#000" stroke-miterlimit="10" stroke-width=".399" d="M205.832 130.043h2.832v-9.922h-2.832Zm0 0"/><path fill="none" stroke="#000" stroke-miterlimit="10" stroke-width=".399" d="m211.523 122.91 30.329-15.57"/><path d="m209.75 123.82 3.566-.039-1.793-.87.336-1.966"/><path fill="none" stroke="#000" stroke-miterlimit="10" stroke-width=".399" d="m208.863 125.46 29.293 6.446"/><path d="m240.102 132.336-2.774-2.242.828 1.812-1.511 1.301"/><path fill="none" stroke="#000" stroke-miterlimit="10" stroke-width=".399" d="m202.656 124.7-54.43-4.79"/><path d="m204.64 124.875-3.038-1.867 1.054 1.691-1.332 1.485M146.242 119.734l3.035 1.868-1.05-1.692 1.332-1.484"/><path stroke="#000" stroke-miterlimit="10" stroke-width=".399" d="M205.832 154.988h2.832v-9.922h-2.832Zm0 0"/><path fill="none" stroke="#000" stroke-miterlimit="10" stroke-width=".399" d="m211.672 148.43 29.738-10.903"/><path d="m209.8 149.117 3.544.399-1.672-1.086.574-1.907"/><path fill="none" stroke="#000" stroke-miterlimit="10" stroke-width=".399" d="M204.21 144.434 168.96 79.21"/><path d="m205.156 146.184-.113-3.563-.832 1.813-1.973-.297"/><path fill="none" stroke="#000" stroke-miterlimit="10" stroke-width=".399" d="m208.863 150.645 29.739 10.91"/><path d="m240.473 162.238-2.442-2.593.57 1.91-1.667 1.082"/><path fill="none" stroke="#000" stroke-miterlimit="10" stroke-width=".399" d="m205.633 146.2-36.305-86.536"/><path d="m168.559 57.824-.239 3.559 1.008-1.719 1.934.484"/><path stroke="#000" stroke-miterlimit="10" stroke-width=".399" d="M205.832 186.172h2.832v-9.922h-2.832Zm0 0"/><path fill="none" stroke="#000" stroke-miterlimit="10" stroke-width=".399" d="m211.672 179.617 29.742-10.902"/><path d="m209.8 180.305 3.544.398-1.672-1.086.574-1.91"/><path fill="none" stroke="#000" stroke-miterlimit="10" stroke-width=".399" d="M208.379 176.078 242.832 18.93"/><path d="m243.262 16.984-2.242 2.774 1.812-.828 1.3 1.508"/></svg>