<svg xmlns="http://www.w3.org/2000/svg" xmlns:xlink="http://www.w3.org/1999/xlink" width="84.638" height="84.638"><defs><path id="a" d="M3.188 0v-.328H2.28V-3.11c0-.157-.015-.188-.187-.188H2c-.437.328-1.078.328-1.187.328H.672v.328h.14c.063 0 .438 0 .813-.125v2.438H.719V0c.25-.016.953-.016 1.234-.016s1 0 1.235.016m0 0"/><path id="b" d="M3.328-1.047h-.406c-.031.188-.11.313-.156.328-.11.016-.328.016-.5.016H1.53c.313-.203.61-.39.828-.516.563-.312.97-.531.97-1.047 0-.625-.563-1.03-1.548-1.03-.234 0-1.343 0-1.343.733 0 .297.25.422.421.422.188 0 .407-.14.407-.406 0-.187-.11-.297-.125-.312.172-.094.359-.094.468-.094.5 0 .938.234.938.687 0 .391-.313.688-.625.907L.532-.344C.436-.28.436-.266.436-.156V0h2.704Zm0 0"/><path id="d" d="M3.39-.906c0-.438-.406-.735-.89-.844.297-.094.688-.344.688-.812 0-.407-.454-.735-1.344-.735-.797 0-1.25.344-1.25.797 0 .281.219.422.39.422a.394.394 0 0 0 .407-.406c0-.25-.188-.36-.188-.36.203-.14.453-.172.625-.172.484 0 .594.204.594.454 0 .203-.125.656-.735.671-.046 0-.265.016-.312.016-.078.016-.078.11-.078.14 0 .141.078.141.172.141h.343c.672 0 .72.407.72.688 0 .25-.032.687-.72.687-.109 0-.484-.015-.75-.172A.44.44 0 0 0 1.25-.75a.427.427 0 0 0-.437-.437c-.25 0-.422.171-.422.437 0 .5.484.828 1.437.828 1.235 0 1.563-.594 1.563-.984m0 0"/><path id="e" d="M3.5 0v-.328h-.656v-.438H3.5v-.343h-.656v-2.032c0-.156-.031-.187-.188-.187h-.36c-.124 0-.155 0-.202.078L.28-1.11v.344h1.86v.438h-.703V0c.234-.016.765-.016 1.046-.016.266 0 .75 0 1.016.016M2.219-1.11h-1.5l1.5-1.78Zm0 0"/><path id="f" d="M3.328-1c0-.5-.39-1.062-1.39-1.062a1.8 1.8 0 0 0-.782.156v-.547c.188.031.407.031.407.031A1.94 1.94 0 0 0 2.968-3c.078-.078.078-.078.078-.156 0-.031 0-.14-.11-.14 0 0-.015 0-.046.015-.203.047-.547.14-1.016.14-.344 0-.672-.046-1-.14-.047-.016-.062-.016-.078-.016-.11 0-.11.11-.11.188v1.5c0 .156.032.187.188.187.11 0 .11 0 .203-.094.078-.062.281-.28.828-.28.657 0 .657.468.657.765s0 .812-.844.812c-.078 0-.453 0-.688-.203a.39.39 0 0 0 .203-.344.4.4 0 0 0-.39-.406c-.188 0-.406.125-.406.406 0 .485.5.844 1.296.844C2.844.078 3.328-.453 3.328-1m0 0"/><path id="h" d="M3.39-1.031c0-.657-.546-1.094-1.374-1.094-.328 0-.641.14-.844.406.016-.453.031-.718.281-.984.14-.156.438-.313.828-.313.047 0 .219 0 .36.094-.047.016-.172.125-.172.313a.36.36 0 0 0 .375.375c.156 0 .36-.11.36-.375 0-.25-.126-.688-.923-.688-1.11 0-1.89.64-1.89 1.703S.875.078 1.906.078c.313 0 .657-.015 1-.25.266-.172.485-.406.485-.86m-.78 0c0 .406 0 .812-.704.812-.656 0-.718-.484-.718-.875 0-.375.265-.75.765-.75.656 0 .656.39.656.813m0 0"/><path id="j" d="M3.594-3.203H2.359L1.266-3.22c-.125 0-.141-.062-.157-.11H.703L.484-2.155h.422a.7.7 0 0 1 .11-.297c.03-.031.03-.031.078-.031.125-.016.343-.016.515-.016h.907c-.36.328-.485.438-.641.656-.5.657-.562 1.25-.562 1.516 0 .39.328.406.375.406.156 0 .234-.062.265-.094.11-.109.11-.234.11-.328.015-1.203.343-1.515.671-1.812l.313-.281.5-.47c.015-.015.031-.03.047-.062zm0 0"/><path id="l" d="M3.39-.922c0-.39-.265-.703-.765-.906.453-.203.563-.469.563-.703 0-.719-.876-.766-1.282-.766-.547 0-1.312.156-1.312.906 0 .407.328.641.5.735-.375.14-.703.375-.703.843 0 .844.968.891 1.484.891.25 0 1.516 0 1.516-1m-.703-1.594c0 .235-.156.407-.437.516l-.703-.312c-.344-.157-.453-.204-.453-.36 0-.219.172-.344.765-.344.313 0 .829.047.829.5m.126 1.844c0 .281-.22.453-.907.453-.39 0-.937-.078-.937-.593 0-.313.187-.516.547-.657l.984.438c.031 0 .313.125.313.36m0 0"/><path id="n" d="M3.39-1.64c0-1-.437-1.657-1.484-1.657-.39 0-.687.047-1.015.235-.391.25-.5.546-.5.874 0 .657.53 1.094 1.375 1.094.406 0 .672-.187.843-.406 0 .297 0 .656-.203.922-.25.328-.64.36-.828.36-.047 0-.25 0-.406-.079 0 0 .14-.11.14-.312a.36.36 0 0 0-.375-.375.364.364 0 0 0-.375.39c0 .672.86.672 1.032.672 1.031 0 1.797-.61 1.797-1.719m-.796-.516c0 .5-.36.781-.766.781-.656 0-.656-.406-.656-.812 0-.391 0-.829.734-.829.625 0 .688.485.688.86m0 0"/><clipPath id="c"><path d="M52 0h32.457v33H52Zm0 0"/></clipPath><clipPath id="g"><path d="M52 23h32.457v38H52Zm0 0"/></clipPath><clipPath id="i"><path d="M0 52h33v32.457H0Zm0 0"/></clipPath><clipPath id="k"><path d="M23 52h38v32.457H23Zm0 0"/></clipPath><clipPath id="m"><path d="M52 52h32.457v32.457H52Zm0 0"/></clipPath></defs><path fill="none" stroke="#000" stroke-miterlimit="10" stroke-width=".399" d="M26.547 13.793c0-7.047-5.711-12.758-12.754-12.758-7.047 0-12.758 5.711-12.758 12.758 0 7.043 5.711 12.754 12.758 12.754 7.043 0 12.754-5.711 12.754-12.754Zm0 0"/><path d="M16.988 13.793a3.198 3.198 0 1 0-6.392-.002 3.198 3.198 0 0 0 6.392.002m0 0"/><use xlink:href="#a" x="11.904" y="15.438" fill="#FFF"/><path fill="none" stroke="#000" stroke-miterlimit="10" stroke-width=".399" d="M54.895 13.793c0-7.047-5.711-12.758-12.754-12.758-7.047 0-12.758 5.711-12.758 12.758 0 7.043 5.71 12.754 12.758 12.754 7.043 0 12.754-5.711 12.754-12.754Zm0 0"/><path d="M42.02 13.793a3.198 3.198 0 1 0-6.397-.002 3.198 3.198 0 0 0 6.397.002m0 0"/><use xlink:href="#a" x="36.933" y="15.438" fill="#FFF"/><path d="M48.656 13.793a3.198 3.198 0 1 0-6.396-.002 3.198 3.198 0 0 0 6.396.002m0 0"/><use xlink:href="#b" x="43.568" y="15.438" fill="#FFF"/><g clip-path="url(#c)"><path fill="none" stroke="#000" stroke-miterlimit="10" stroke-width=".399" d="M83.242 13.793c0-7.047-5.71-12.758-12.758-12.758-7.043 0-12.754 5.711-12.754 12.758 0 7.043 5.711 12.754 12.754 12.754 7.047 0 12.758-5.711 12.758-12.754Zm0 0"/></g><path d="M73.684 10.008a3.197 3.197 0 1 0-6.395.004 3.197 3.197 0 0 0 6.395-.004m0 0"/><use xlink:href="#a" x="68.597" y="11.656" fill="#FFF"/><path d="M70.367 15.82a3.197 3.197 0 0 0-3.199-3.195 3.197 3.197 0 1 0 0 6.395c1.766 0 3.2-1.43 3.2-3.2m0 0"/><use xlink:href="#b" x="65.28" y="17.469" fill="#FFF"/><path d="M77.035 15.82a3.233 3.233 0 1 0-6.465.004 3.233 3.233 0 0 0 6.465-.004m0 0"/><use xlink:href="#d" x="71.915" y="17.427" fill="#FFF"/><path fill="none" stroke="#000" stroke-miterlimit="10" stroke-width=".399" d="M26.547 42.137c0-7.043-5.711-12.754-12.754-12.754-7.047 0-12.758 5.71-12.758 12.754 0 7.047 5.711 12.758 12.758 12.758 7.043 0 12.754-5.711 12.754-12.758Zm0 0"/><path d="M13.672 38.82a3.198 3.198 0 1 0-6.397-.001 3.198 3.198 0 0 0 6.397.001m0 0"/><use xlink:href="#a" x="8.587" y="40.467" fill="#FFF"/><path d="M20.309 38.82a3.2 3.2 0 0 0-3.2-3.199 3.2 3.2 0 0 0-3.199 3.2 3.2 3.2 0 0 0 3.2 3.199 3.2 3.2 0 0 0 3.199-3.2m0 0"/><use xlink:href="#b" x="15.222" y="40.467" fill="#FFF"/><path d="M13.707 45.457a3.236 3.236 0 0 0-3.234-3.234 3.232 3.232 0 1 0 3.234 3.234m0 0"/><use xlink:href="#d" x="8.587" y="47.06" fill="#FFF"/><path d="M20.324 45.457a3.215 3.215 0 1 0-6.43 0 3.215 3.215 0 0 0 6.43 0m0 0"/><use xlink:href="#e" x="15.222" y="47.122" fill="#FFF"/><path fill="none" stroke="#000" stroke-miterlimit="10" stroke-width=".399" d="M54.895 42.137c0-7.043-5.711-12.754-12.754-12.754-7.047 0-12.758 5.71-12.758 12.754 0 7.047 5.71 12.758 12.758 12.758 7.043 0 12.754-5.711 12.754-12.758Zm0 0"/><path d="M45.336 36.5c0-1.77-1.43-3.2-3.195-3.2-1.77 0-3.2 1.43-3.2 3.2a3.195 3.195 0 0 0 3.2 3.195 3.194 3.194 0 0 0 3.195-3.195m0 0"/><use xlink:href="#a" x="40.251" y="38.145" fill="#FFF"/><path d="M39.973 40.395a3.195 3.195 0 0 0-3.2-3.196 3.197 3.197 0 1 0 3.2 3.195m0 0"/><use xlink:href="#b" x="34.887" y="42.042" fill="#FFF"/><path d="M50.734 40.395a3.233 3.233 0 1 0-6.465.004 3.233 3.233 0 0 0 6.465-.004m0 0"/><use xlink:href="#d" x="45.614" y="42" fill="#FFF"/><path d="M42.04 46.7a3.215 3.215 0 1 0-6.43 0 3.215 3.215 0 0 0 6.43 0m0 0"/><use xlink:href="#e" x="36.936" y="48.368" fill="#FFF"/><path d="M48.688 46.7a3.232 3.232 0 1 0-6.466.002 3.232 3.232 0 0 0 6.465-.003m0 0"/><use xlink:href="#f" x="43.566" y="48.305" fill="#FFF"/><g clip-path="url(#g)"><path fill="none" stroke="#000" stroke-miterlimit="10" stroke-width=".399" d="M83.242 42.137c0-7.043-5.71-12.754-12.758-12.754-7.043 0-12.754 5.71-12.754 12.754 0 7.047 5.711 12.758 12.754 12.758 7.047 0 12.758-5.711 12.758-12.758Zm0 0"/></g><path d="M67.047 38.82a3.197 3.197 0 1 0-6.395 0 3.197 3.197 0 1 0 6.395 0m0 0"/><use xlink:href="#a" x="61.962" y="40.467" fill="#FFF"/><path d="M73.684 38.82a3.197 3.197 0 1 0-6.395 0 3.197 3.197 0 1 0 6.395 0m0 0"/><use xlink:href="#b" x="68.597" y="40.467" fill="#FFF"/><path d="M80.352 38.82a3.23 3.23 0 0 0-3.23-3.23 3.23 3.23 0 0 0-3.231 3.23 3.23 3.23 0 0 0 3.23 3.23 3.23 3.23 0 0 0 3.23-3.23m0 0"/><use xlink:href="#d" x="75.232" y="40.425" fill="#FFF"/><path d="M67.066 45.457a3.215 3.215 0 1 0-6.43 0 3.215 3.215 0 0 0 6.43 0m0 0"/><use xlink:href="#e" x="61.962" y="47.122" fill="#FFF"/><path d="M73.719 45.457a3.233 3.233 0 1 0-6.465-.004 3.233 3.233 0 0 0 6.465.004m0 0"/><use xlink:href="#f" x="68.597" y="47.06" fill="#FFF"/><path d="M80.352 45.457a3.233 3.233 0 0 0-3.23-3.234 3.233 3.233 0 0 0 0 6.465 3.23 3.23 0 0 0 3.23-3.231m0 0"/><use xlink:href="#h" x="75.232" y="47.06" fill="#FFF"/><g clip-path="url(#i)"><path fill="none" stroke="#000" stroke-miterlimit="10" stroke-width=".399" d="M26.547 70.484c0-7.043-5.711-12.754-12.754-12.754-7.047 0-12.758 5.711-12.758 12.754 0 7.047 5.711 12.758 12.758 12.758 7.043 0 12.754-5.71 12.754-12.758Zm0 0"/></g><path d="M16.988 63.852a3.198 3.198 0 1 0-6.392-.002 3.198 3.198 0 0 0 6.392.002m0 0"/><use xlink:href="#a" x="11.904" y="65.496" fill="#FFF"/><path d="M10.355 67.168a3.2 3.2 0 0 0-3.199-3.2 3.2 3.2 0 0 0-3.199 3.2 3.2 3.2 0 0 0 3.2 3.2 3.2 3.2 0 0 0 3.198-3.2m0 0"/><use xlink:href="#b" x="5.269" y="68.814" fill="#FFF"/><path d="M17.023 70.484a3.233 3.233 0 1 0-6.465.004 3.233 3.233 0 0 0 6.465-.004m0 0"/><use xlink:href="#d" x="11.904" y="72.089" fill="#FFF"/><path d="M23.64 67.168a3.215 3.215 0 1 0-6.43 0 3.215 3.215 0 0 0 6.43 0m0 0"/><use xlink:href="#e" x="18.539" y="68.834" fill="#FFF"/><path d="M10.387 73.8a3.232 3.232 0 1 0-6.464.003 3.232 3.232 0 0 0 6.464-.002m0 0"/><use xlink:href="#f" x="5.269" y="75.407" fill="#FFF"/><path d="M17.023 77.121a3.233 3.233 0 1 0-6.465-.004 3.233 3.233 0 0 0 6.465.004m0 0"/><use xlink:href="#h" x="11.904" y="78.724" fill="#FFF"/><path d="M23.676 73.8a3.247 3.247 0 0 0-3.25-3.245A3.246 3.246 0 0 0 17.18 73.8a3.248 3.248 0 1 0 6.496 0m0 0"/><use xlink:href="#j" x="18.539" y="75.422" fill="#FFF"/><g clip-path="url(#k)"><path fill="none" stroke="#000" stroke-miterlimit="10" stroke-width=".399" d="M54.895 70.484c0-7.043-5.711-12.754-12.754-12.754-7.047 0-12.758 5.711-12.758 12.754 0 7.047 5.71 12.758 12.758 12.758 7.043 0 12.754-5.71 12.754-12.758Zm0 0"/></g><path d="M42.02 63.852a3.198 3.198 0 1 0-6.397-.002 3.198 3.198 0 0 0 6.397.002m0 0"/><use xlink:href="#a" x="36.933" y="65.496" fill="#FFF"/><path d="M48.656 63.852a3.198 3.198 0 1 0-6.396-.002 3.198 3.198 0 0 0 6.396.002m0 0"/><use xlink:href="#b" x="43.568" y="65.496" fill="#FFF"/><path d="M38.734 70.484a3.23 3.23 0 0 0-3.23-3.23 3.233 3.233 0 0 0 0 6.465c1.785 0 3.23-1.45 3.23-3.235m0 0"/><use xlink:href="#d" x="33.616" y="72.089" fill="#FFF"/><path d="M45.355 70.484a3.215 3.215 0 1 0-6.43 0 3.215 3.215 0 0 0 6.43 0m0 0"/><use xlink:href="#e" x="40.251" y="72.151" fill="#FFF"/><path d="M52.004 70.484a3.23 3.23 0 0 0-3.23-3.23 3.233 3.233 0 0 0 0 6.465c1.785 0 3.23-1.45 3.23-3.235m0 0"/><use xlink:href="#f" x="46.886" y="72.089" fill="#FFF"/><path d="M38.734 77.121a3.233 3.233 0 0 0-3.23-3.234 3.233 3.233 0 0 0 0 6.465 3.23 3.23 0 0 0 3.23-3.23m0 0"/><use xlink:href="#h" x="33.616" y="78.724" fill="#FFF"/><path d="M45.387 77.121a3.248 3.248 0 1 0-6.496 0 3.25 3.25 0 1 0 6.496 0m0 0"/><use xlink:href="#j" x="40.251" y="78.739" fill="#FFF"/><path d="M52.004 77.121a3.233 3.233 0 0 0-3.23-3.234 3.233 3.233 0 0 0 0 6.465 3.23 3.23 0 0 0 3.23-3.23m0 0"/><use xlink:href="#l" x="46.886" y="78.724" fill="#FFF"/><g clip-path="url(#m)"><path fill="none" stroke="#000" stroke-miterlimit="10" stroke-width=".399" d="M83.242 70.484c0-7.043-5.71-12.754-12.758-12.754-7.043 0-12.754 5.711-12.754 12.754 0 7.047 5.711 12.758 12.754 12.758 7.047 0 12.758-5.71 12.758-12.758Zm0 0"/></g><path d="M67.047 63.852a3.198 3.198 0 1 0-6.392-.002 3.198 3.198 0 0 0 6.392.002m0 0"/><use xlink:href="#a" x="61.962" y="65.496" fill="#FFF"/><path d="M73.684 63.852a3.198 3.198 0 1 0-6.397-.002 3.198 3.198 0 0 0 6.397.002m0 0"/><use xlink:href="#b" x="68.597" y="65.496" fill="#FFF"/><path d="M80.352 63.852a3.233 3.233 0 0 0-3.23-3.235 3.233 3.233 0 0 0 0 6.465c1.784 0 3.23-1.45 3.23-3.23m0 0"/><use xlink:href="#d" x="75.232" y="65.454" fill="#FFF"/><path d="M67.066 70.484a3.215 3.215 0 1 0-6.43 0 3.215 3.215 0 0 0 6.43 0m0 0"/><use xlink:href="#e" x="61.962" y="72.151" fill="#FFF"/><path d="M73.719 70.484a3.233 3.233 0 1 0-6.465.004 3.233 3.233 0 0 0 6.465-.004m0 0"/><use xlink:href="#f" x="68.597" y="72.089" fill="#FFF"/><path d="M80.352 70.484a3.23 3.23 0 0 0-3.23-3.23 3.233 3.233 0 0 0 0 6.465c1.784 0 3.23-1.45 3.23-3.235m0 0"/><use xlink:href="#h" x="75.232" y="72.089" fill="#FFF"/><path d="M67.098 77.121a3.248 3.248 0 1 0-6.496 0 3.25 3.25 0 1 0 6.496 0m0 0"/><use xlink:href="#j" x="61.962" y="78.739" fill="#FFF"/><path d="M73.719 77.121a3.233 3.233 0 1 0-6.465-.004 3.233 3.233 0 0 0 6.465.004m0 0"/><use xlink:href="#l" x="68.597" y="78.724" fill="#FFF"/><path d="M80.352 77.121a3.233 3.233 0 0 0-3.23-3.234 3.233 3.233 0 0 0 0 6.465 3.23 3.23 0 0 0 3.23-3.23m0 0"/><use xlink:href="#n" x="75.232" y="78.724" fill="#FFF"/></svg>