<svg xmlns="http://www.w3.org/2000/svg" width="135.113" height="75.638"><defs><clipPath id="a"><path d="M0 20h51v55.457H0Zm0 0"/></clipPath><clipPath id="b"><path d="M0 27h52v48.457H0Zm0 0"/></clipPath><clipPath id="c"><path d="M0 30h42v45.457H0Zm0 0"/></clipPath><clipPath id="d"><path d="M0 40h42v35.457H0Zm0 0"/></clipPath><clipPath id="e"><path d="M0 34h46v41.457H0Zm0 0"/></clipPath><clipPath id="f"><path d="M0 32h54v43.457H0Zm0 0"/></clipPath><clipPath id="g"><path d="M0 39h53v36.457H0Zm0 0"/></clipPath><clipPath id="h"><path d="M0 37h52v38.457H0Zm0 0"/></clipPath><clipPath id="i"><path d="M0 29h45v46.457H0Zm0 0"/></clipPath><clipPath id="j"><path d="M0 29h43v46.457H0Zm0 0"/></clipPath><clipPath id="k"><path d="M0 24h40v51.457H0Zm0 0"/></clipPath><clipPath id="l"><path d="M0 28h41v47.457H0Zm0 0"/></clipPath><clipPath id="m"><path d="M0 32h34v43.457H0Zm0 0"/></clipPath><clipPath id="n"><path d="M0 37h38v38.457H0Zm0 0"/></clipPath><clipPath id="o"><path d="M0 34h37v41.457H0Zm0 0"/></clipPath><clipPath id="p"><path d="M0 34h34v41.457H0Zm0 0"/></clipPath><clipPath id="q"><path d="M0 26h35v49.457H0Zm0 0"/></clipPath><clipPath id="r"><path d="M0 35h39v40.457H0Zm0 0"/></clipPath><clipPath id="s"><path d="M0 39h41v36.457H0Zm0 0"/></clipPath><clipPath id="t"><path d="M0 38h41v37.457H0Zm0 0"/></clipPath><clipPath id="u"><path d="M0 36h42v39.457H0Zm0 0"/></clipPath><clipPath id="v"><path d="M0 36h44v39.457H0Zm0 0"/></clipPath><clipPath id="w"><path d="M0 40h42v35.457H0Zm0 0"/></clipPath><clipPath id="x"><path d="M0 37h43v38.457H0Zm0 0"/></clipPath><clipPath id="y"><path d="M0 42h45v33.457H0Zm0 0"/></clipPath><clipPath id="z"><path d="M0 36h44v39.457H0Zm0 0"/></clipPath><clipPath id="A"><path d="M0 40h44v35.457H0Zm0 0"/></clipPath><clipPath id="B"><path d="M0 40h45v35.457H0Zm0 0"/></clipPath><clipPath id="C"><path d="M0 35h37v40.457H0Zm0 0"/></clipPath><clipPath id="D"><path d="M0 42h38v33.457H0Zm0 0"/></clipPath><clipPath id="E"><path d="M0 35h47v40.457H0Zm0 0"/></clipPath><clipPath id="F"><path d="M0 32h44v43.457H0Zm0 0"/></clipPath><clipPath id="G"><path d="M0 34h44v41.457H0Zm0 0"/></clipPath><clipPath id="H"><path d="M0 27h38v48.457H0Zm0 0"/></clipPath><clipPath id="I"><path d="M0 26h48v49.457H0Zm0 0"/></clipPath><clipPath id="J"><path d="M0 20h55v55.457H0Zm0 0"/></clipPath><clipPath id="K"><path d="M80 0h54.668v34H80Zm0 0"/></clipPath><clipPath id="L"><path d="M87 0h47.668v29H87Zm0 0"/></clipPath><clipPath id="M"><path d="M86 0h48.668v29H86Zm0 0"/></clipPath><clipPath id="N"><path d="M87 0h47.668v37H87Zm0 0"/></clipPath><clipPath id="O"><path d="M94 0h40.668v36H94Zm0 0"/></clipPath><clipPath id="P"><path d="M99 0h35.668v34H99Zm0 0"/></clipPath><clipPath id="Q"><path d="M103 0h31.668v37H103Zm0 0"/></clipPath><clipPath id="R"><path d="M96 0h38.668v34H96Zm0 0"/></clipPath><clipPath id="S"><path d="M92 0h42.668v42H92Zm0 0"/></clipPath><clipPath id="T"><path d="M86 0h48.668v44H86Zm0 0"/></clipPath><clipPath id="U"><path d="M86 0h48.668v41H86Zm0 0"/></clipPath><clipPath id="V"><path d="M79 0h55.668v41H79Zm0 0"/></clipPath><clipPath id="W"><path d="M83 0h51.668v51H83Zm0 0"/></clipPath><clipPath id="X"><path d="M84 2h50.668v51H84Zm0 0"/></clipPath><clipPath id="Y"><path d="M82 5h52.668v51H82Zm0 0"/></clipPath><clipPath id="Z"><path d="M86 5h48.668v49H86Zm0 0"/></clipPath><clipPath id="aa"><path d="M93 5h41.668v49H93Zm0 0"/></clipPath><clipPath id="ab"><path d="M90 0h44.668v51H90Zm0 0"/></clipPath><clipPath id="ac"><path d="M80 0h54.668v46H80Zm0 0"/></clipPath><clipPath id="ad"><path d="M84 0h50.668v41H84Zm0 0"/></clipPath><clipPath id="ae"><path d="M85 0h49.668v41H85Zm0 0"/></clipPath><clipPath id="af"><path d="M91 0h43.668v46H91Zm0 0"/></clipPath><clipPath id="ag"><path d="M93 0h41.668v51H93Zm0 0"/></clipPath><clipPath id="ah"><path d="M93 5h41.668v57H93Zm0 0"/></clipPath><clipPath id="ai"><path d="M93 0h41.668v59H93Zm0 0"/></clipPath><clipPath id="aj"><path d="M99 3h35.668v54H99Zm0 0"/></clipPath><clipPath id="ak"><path d="M98 11h36.668v53H98Zm0 0"/></clipPath></defs><path fill="none" stroke="#FFF" stroke-linecap="round" stroke-miterlimit="10" stroke-width="1.594" d="M35.656 22.07s.739-4.828-5.812 1.7"/><path fill="none" stroke="#FCFFFC" stroke-linecap="round" stroke-miterlimit="10" stroke-width="1.594" d="M29.844 23.77c-6.555 6.53 12.18-.75 6.105-.891"/><path fill="none" stroke="#FAFFFA" stroke-linecap="round" stroke-miterlimit="10" stroke-width="1.594" d="M35.95 22.879c-6.071-.14-10.032 14.476-6.99 9.566"/><path fill="none" stroke="#F7FFF7" stroke-linecap="round" stroke-miterlimit="10" stroke-width="1.594" d="M28.96 32.445c3.04-4.91-9.015 6.27-2.034 5.746"/><path fill="none" stroke="#F5FFF5" stroke-linecap="round" stroke-miterlimit="10" stroke-width="1.594" d="M26.926 38.191c6.98-.523 3.914-2.21-4.125 5.23"/><g clip-path="url(#a)"><path fill="none" stroke="#F2FFF2" stroke-linecap="round" stroke-miterlimit="10" stroke-width="1.594" d="M22.8 43.422c-8.042 7.441.481 2.703 4.782 9.215"/></g><g clip-path="url(#b)"><path fill="none" stroke="#F0FFF0" stroke-linecap="round" stroke-miterlimit="10" stroke-width="1.594" d="M27.582 52.637c4.3 6.511-7.656-8.418-8.691.476"/></g><g clip-path="url(#c)"><path fill="none" stroke="#EDFFED" stroke-linecap="round" stroke-miterlimit="10" stroke-width="1.594" d="M18.89 53.113c-1.03 8.895-7.55 5.867-1.44 9.703"/></g><g clip-path="url(#d)"><path fill="none" stroke="#EBFFEB" stroke-linecap="round" stroke-miterlimit="10" stroke-width="1.594" d="M17.45 62.816c6.109 3.832-7.493 8.125-5.2 3.192"/></g><g clip-path="url(#e)"><path fill="none" stroke="#E8FFE8" stroke-linecap="round" stroke-miterlimit="10" stroke-width="1.594" d="M12.25 66.008c2.293-4.938 13.117-4.496 9.762-9.324"/></g><g clip-path="url(#f)"><path fill="none" stroke="#E5FFE5" stroke-linecap="round" stroke-miterlimit="10" stroke-width="1.594" d="M22.012 56.684c-3.356-4.829 10.015.902 8.433 4.879"/></g><g clip-path="url(#g)"><path fill="none" stroke="#E3FFE3" stroke-linecap="round" stroke-miterlimit="10" stroke-width="1.594" d="M30.445 61.563c-1.582 3.972-11.832 13.46-4.168 5.75"/></g><g clip-path="url(#h)"><path fill="none" stroke="#E0FFE0" stroke-linecap="round" stroke-miterlimit="10" stroke-width="1.594" d="M26.277 67.313c7.664-7.715-5.964-4.622-4.515-6.961"/></g><g clip-path="url(#i)"><path fill="none" stroke="#DEFFDE" stroke-linecap="round" stroke-miterlimit="10" stroke-width="1.594" d="M21.762 60.352c1.445-2.336-12.082-8.145-6.27-8.645"/></g><g clip-path="url(#j)"><path fill="none" stroke="#DBFFDB" stroke-linecap="round" stroke-miterlimit="10" stroke-width="1.594" d="M15.492 51.707c5.817-.5 6.508 9.441 1.793 2.305"/></g><g clip-path="url(#k)"><path fill="none" stroke="#D9FFD9" stroke-linecap="round" stroke-miterlimit="10" stroke-width="1.594" d="M17.285 54.012c-4.715-7.14-14.75-9.485-5.289-3.121"/></g><g clip-path="url(#l)"><path fill="none" stroke="#D6FFD6" stroke-linecap="round" stroke-miterlimit="10" stroke-width="1.594" d="M11.996 50.89c9.465 6.364 6.73 14.52-1.8 6.825"/></g><g clip-path="url(#m)"><path fill="none" stroke="#D4FFD4" stroke-linecap="round" stroke-miterlimit="10" stroke-width="1.594" d="M10.195 57.715c-8.53-7.692-1.496 6.058 1.254 7.105"/></g><g clip-path="url(#n)"><path fill="none" stroke="#D1FFD1" stroke-linecap="round" stroke-miterlimit="10" stroke-width="1.594" d="M11.45 64.82c2.75 1.043 5.206 2.5.07-4.644"/></g><g clip-path="url(#o)"><path fill="none" stroke="#CFFFCF" stroke-linecap="round" stroke-miterlimit="10" stroke-width="1.594" d="M11.52 60.176c-5.137-7.145 7.988-1.207-.836 6.66"/></g><g clip-path="url(#p)"><path fill="none" stroke="#CFC" stroke-linecap="round" stroke-miterlimit="10" stroke-width="1.594" d="M10.684 66.836c-8.829 7.863 2.191-13.04-6.782-9.77"/></g><g fill="none" stroke-linecap="round" stroke-miterlimit="10" stroke-width="1.594" clip-path="url(#q)"><path stroke="#C9FFC9" d="M3.902 57.066c-8.972 3.266 8.762-7 7.797-8.347"/><path stroke="#C7FFC7" d="M11.7 48.719c-.97-1.352-10.766 9.082-4.16 9.11"/></g><g clip-path="url(#r)"><path fill="none" stroke="#C4FFC4" stroke-linecap="round" stroke-miterlimit="10" stroke-width="1.594" d="M7.54 57.828c6.605.027 10.78 10.777 7.054 8.504"/></g><g clip-path="url(#s)"><path fill="none" stroke="#C2FFC2" stroke-linecap="round" stroke-miterlimit="10" stroke-width="1.594" d="M14.594 66.332c-3.723-2.277 4.668-7.777 3-2.352"/></g><g clip-path="url(#t)"><path fill="none" stroke="#BFFFBF" stroke-linecap="round" stroke-miterlimit="10" stroke-width="1.594" d="M17.594 63.98c-1.664 5.426-5.453 4.383.035-2.472"/></g><g clip-path="url(#u)"><path fill="none" stroke="#BDFFBD" stroke-linecap="round" stroke-miterlimit="10" stroke-width="1.594" d="M17.629 61.508c5.492-6.852-10.781 1.332-1.024-.684"/></g><g clip-path="url(#v)"><path fill="none" stroke="#BAFFBA" stroke-linecap="round" stroke-miterlimit="10" stroke-width="1.594" d="M16.605 60.824c9.758-2.011 1.454-2.722 1.918 1.77"/></g><g clip-path="url(#w)"><path fill="none" stroke="#B8FFB8" stroke-linecap="round" stroke-miterlimit="10" stroke-width="1.594" d="M18.523 62.594c.465 4.492-3.367 5.953-2.293 1.418"/></g><g clip-path="url(#x)"><path fill="none" stroke="#B5FFB5" stroke-linecap="round" stroke-miterlimit="10" stroke-width="1.594" d="M16.23 64.012c1.075-4.54-2.226-6.61 4.211.691"/></g><g clip-path="url(#y)"><path fill="none" stroke="#B2FFB2" stroke-linecap="round" stroke-miterlimit="10" stroke-width="1.594" d="M20.441 64.703c6.438 7.297-7.98.563-5.105-.133"/></g><g clip-path="url(#z)"><path fill="none" stroke="#B0FFB0" stroke-linecap="round" stroke-miterlimit="10" stroke-width="1.594" d="M15.336 64.57c2.875-.699 9.914-11.11.934-1.851"/></g><g clip-path="url(#A)"><path fill="none" stroke="#ADFFAD" stroke-linecap="round" stroke-miterlimit="10" stroke-width="1.594" d="M16.27 62.719c-8.98 9.258 1.304 2.789 5.003 8.351"/></g><g clip-path="url(#B)"><path fill="none" stroke="#ABFFAB" stroke-linecap="round" stroke-miterlimit="10" stroke-width="1.594" d="M21.273 71.07c3.696 5.559-11.316 1.735-7.894-7.84"/></g><g clip-path="url(#C)"><path fill="none" stroke="#A8FFA8" stroke-linecap="round" stroke-miterlimit="10" stroke-width="1.594" d="M13.379 63.23c3.418-9.578-12.785-3.023-7.715 1.926"/></g><g clip-path="url(#D)"><path fill="none" stroke="#A6FFA6" stroke-linecap="round" stroke-miterlimit="10" stroke-width="1.594" d="M5.664 65.156c5.074 4.953 7.285 2.035 9.371 3.203"/></g><g clip-path="url(#E)"><path fill="none" stroke="#A3FFA3" stroke-linecap="round" stroke-miterlimit="10" stroke-width="1.594" d="M15.035 68.36c2.086 1.167 13.996-2.551 6.184-9.852"/></g><g clip-path="url(#F)"><path fill="none" stroke="#A1FFA1" stroke-linecap="round" stroke-miterlimit="10" stroke-width="1.594" d="M21.219 58.508c-7.813-7.297-3.856-2.66-1.133 5.613"/></g><g clip-path="url(#G)"><path fill="none" stroke="#9EFF9E" stroke-linecap="round" stroke-miterlimit="10" stroke-width="1.594" d="M20.086 64.121c2.723 8.274-8.598-5.207-7.27-6.914"/></g><g clip-path="url(#H)"><path fill="none" stroke="#9CFF9C" stroke-linecap="round" stroke-miterlimit="10" stroke-width="1.594" d="M12.816 57.207c1.329-1.707 2.493-1.387 1.168-6.746"/></g><g clip-path="url(#I)"><path fill="none" stroke="#9F9" stroke-linecap="round" stroke-miterlimit="10" stroke-width="1.594" d="M13.984 50.46c-1.32-5.362 14.618 4.087 9.586 3.704"/></g><g clip-path="url(#J)"><path fill="none" stroke="#96FF96" stroke-linecap="round" stroke-miterlimit="10" stroke-width="1.594" d="M23.57 54.164c-5.027-.383 4.66-16.371 8.868-8.879"/></g><path fill="none" stroke="#94FF94" stroke-linecap="round" stroke-miterlimit="10" stroke-width="1.594" d="M32.438 45.285c4.207 7.488 9.652-5.183.015 1.649"/><path fill="none" stroke="#91FF91" stroke-linecap="round" stroke-miterlimit="10" stroke-width="1.594" d="M32.453 46.934c-9.64 6.828-3.723-5.305-1.898.164"/><path fill="none" stroke="#8FFF8F" stroke-linecap="round" stroke-miterlimit="10" stroke-width="1.594" d="M30.555 47.098c1.824 5.472-4.457-3.996 3.832-9.004"/><path fill="none" stroke="#8CFF8C" stroke-linecap="round" stroke-miterlimit="10" stroke-width="1.594" d="M34.387 38.094c8.285-5.008-5.88 14.332.172 6.574"/><path fill="none" stroke="#8AFF8A" stroke-linecap="round" stroke-miterlimit="10" stroke-width="1.594" d="M34.559 44.668c6.046-7.758-1.75 12.258 2.707 3.504"/><path fill="none" stroke="#87FF87" stroke-linecap="round" stroke-miterlimit="10" stroke-width="1.594" d="M37.266 48.172c4.457-8.754-5.953-4.836-9.297 1.555"/><path fill="none" stroke="#85FF85" stroke-linecap="round" stroke-miterlimit="10" stroke-width="1.594" d="M27.969 49.727c-3.34 6.39 4.203-16.836 9.043-6.918"/><path fill="none" stroke="#82FF82" stroke-linecap="round" stroke-miterlimit="10" stroke-width="1.594" d="M37.012 42.809c4.843 9.921-3.867-1.329 3.164 1.687"/><path fill="none" stroke="#7FFF7F" stroke-linecap="round" stroke-miterlimit="10" stroke-width="1.594" d="M40.176 44.496c7.031 3.016 16.41-4.691 9.094-8.59"/><path fill="none" stroke="#7DFF7D" stroke-linecap="round" stroke-miterlimit="10" stroke-width="1.594" d="M49.27 35.906c-7.317-3.898 14.105 5.512 8.277-3.07"/><path fill="none" stroke="#7AFF7A" stroke-linecap="round" stroke-miterlimit="10" stroke-width="1.594" d="M57.547 32.836c-5.832-8.578-3.68 6.848-4.793-1.305"/><path fill="none" stroke="#78FF78" stroke-linecap="round" stroke-miterlimit="10" stroke-width="1.594" d="M52.754 31.531c-1.113-8.152 8.562 4.086 2.453 1.532"/><path fill="none" stroke="#75FF75" stroke-linecap="round" stroke-miterlimit="10" stroke-width="1.594" d="M55.207 33.063c-6.113-2.555-4.656 5.976 3.023 9.136"/><path fill="none" stroke="#73FF73" stroke-linecap="round" stroke-miterlimit="10" stroke-width="1.594" d="M58.23 42.2c7.68 3.155 18.27 5.35 8.38 1.378"/><path fill="none" stroke="#70FF70" stroke-linecap="round" stroke-miterlimit="10" stroke-width="1.594" d="M66.61 43.578c-9.895-3.976-3.008-5.812 5.093-4.258"/><path fill="none" stroke="#6EFF6E" stroke-linecap="round" stroke-miterlimit="10" stroke-width="1.594" d="M71.703 39.32c8.102 1.555 15.145-11 9.953-7.28"/><path fill="none" stroke="#6BFF6B" stroke-linecap="round" stroke-miterlimit="10" stroke-width="1.594" d="M81.656 32.04c-5.187 3.722-10.035 6.023-7.629 1.714"/><path fill="none" stroke="#69FF69" stroke-linecap="round" stroke-miterlimit="10" stroke-width="1.594" d="M74.027 33.754c2.407-4.305 17.059 15.941 8.543 7.203"/><path fill="none" stroke="#6F6" stroke-linecap="round" stroke-miterlimit="10" stroke-width="1.594" d="M82.57 40.957c-8.515-8.738-3.453 3.125 4.618-.055"/><path fill="none" stroke="#63FF63" stroke-linecap="round" stroke-miterlimit="10" stroke-width="1.594" d="M87.188 40.902c8.066-3.183 1.214-14.007 2.28-9.226"/><path fill="none" stroke="#61FF61" stroke-linecap="round" stroke-miterlimit="10" stroke-width="1.594" d="M89.469 31.676c1.066 4.777-.39-7.574 3.574-9.735"/><path fill="none" stroke="#5EFF5E" stroke-linecap="round" stroke-miterlimit="10" stroke-width="1.594" d="M93.043 21.941c3.96-2.16-4.758 5.7-9.125 5.692"/><path fill="none" stroke="#5CFF5C" stroke-linecap="round" stroke-miterlimit="10" stroke-width="1.594" d="M83.918 27.633c-4.363-.004-16.965-.203-8.578-3.031"/><path fill="none" stroke="#59FF59" stroke-linecap="round" stroke-miterlimit="10" stroke-width="1.594" d="M75.34 24.602c8.383-2.829-6.899 5.668 2.707 6.824"/><path fill="none" stroke="#57FF57" stroke-linecap="round" stroke-miterlimit="10" stroke-width="1.594" d="M78.047 31.426c9.605 1.16 10.05-1.453 8.34-1.672"/><path fill="none" stroke="#54FF54" stroke-linecap="round" stroke-miterlimit="10" stroke-width="1.594" d="M86.387 29.754c-1.711-.219 11.601-8.98 8.636-1.457"/><path fill="none" stroke="#52FF52" stroke-linecap="round" stroke-miterlimit="10" stroke-width="1.594" d="M95.023 28.297c-2.968 7.523 7.352-.89 5.395-9.32"/><path fill="none" stroke="#4FFF4F" stroke-linecap="round" stroke-miterlimit="10" stroke-width="1.594" d="M100.418 18.977c-1.957-8.434 6.055-11.747-3.078-9.516"/><path fill="none" stroke="#4CFF4C" stroke-linecap="round" stroke-miterlimit="10" stroke-width="1.594" d="M97.34 9.46c-9.133 2.231 11.11 7.063 6.2 1.536"/><g clip-path="url(#K)"><path fill="none" stroke="#4AFF4A" stroke-linecap="round" stroke-miterlimit="10" stroke-width="1.594" d="M103.54 10.996c-4.907-5.523 13.413-10.144 9.937-9.148"/></g><g clip-path="url(#L)"><path fill="none" stroke="#47FF47" stroke-linecap="round" stroke-miterlimit="10" stroke-width="1.594" d="M113.477 1.848c-3.473.996-6.946 6.816 2.875 2.023"/></g><g clip-path="url(#M)"><path fill="none" stroke="#45FF45" stroke-linecap="round" stroke-miterlimit="10" stroke-width="1.594" d="M116.352 3.871c9.816-4.793-12.508-.867-5.93 2.23"/></g><g clip-path="url(#N)"><path fill="none" stroke="#42FF42" stroke-linecap="round" stroke-miterlimit="10" stroke-width="1.594" d="M110.422 6.102c6.582 3.093 1.187 9.785 6.16 6.863"/></g><g clip-path="url(#O)"><path fill="none" stroke="#40FF40" stroke-linecap="round" stroke-miterlimit="10" stroke-width="1.594" d="M116.582 12.965c4.969-2.922 4.82-3.586 5.914-8.836"/></g><g clip-path="url(#P)"><path fill="none" stroke="#3DFF3D" stroke-linecap="round" stroke-miterlimit="10" stroke-width="1.594" d="M122.496 4.129c1.094-5.25 1.68.426 8.606 6.883"/></g><g clip-path="url(#Q)"><path fill="none" stroke="#3BFF3B" stroke-linecap="round" stroke-miterlimit="10" stroke-width="1.594" d="M131.102 11.012c6.925 6.457-9.13-1.785-3.665-.278"/></g><g clip-path="url(#R)"><path fill="none" stroke="#38FF38" stroke-linecap="round" stroke-miterlimit="10" stroke-width="1.594" d="M127.438 10.734c5.468 1.508-.102-5.07-8.747-3.093"/></g><g clip-path="url(#S)"><path fill="none" stroke="#36FF36" stroke-linecap="round" stroke-miterlimit="10" stroke-width="1.594" d="M118.691 7.64c-8.644 1.981-.058 18.36-1.296 8.872"/></g><g clip-path="url(#T)"><path fill="none" stroke="#3F3" stroke-linecap="round" stroke-miterlimit="10" stroke-width="1.594" d="M117.395 16.512c-1.239-9.489-8.684 10.847-8.07 1.472"/></g><g clip-path="url(#U)"><path fill="none" stroke="#30FF30" stroke-linecap="round" stroke-miterlimit="10" stroke-width="1.594" d="M109.324 17.984c.614-9.37 12.41.754 4.766-4.16"/></g><g clip-path="url(#V)"><path fill="none" stroke="#2EFF2E" stroke-linecap="round" stroke-miterlimit="10" stroke-width="1.594" d="M114.09 13.824c-7.645-4.914-17.637 5.117-7.852 4.133"/></g><path fill="none" stroke="#2BFF2B" stroke-linecap="round" stroke-miterlimit="10" stroke-width="1.594" d="M106.238 17.957c9.785-.984-1.754 1.996-6.328 8.652"/><path fill="none" stroke="#29FF29" stroke-linecap="round" stroke-miterlimit="10" stroke-width="1.594" d="M99.91 26.61c-4.574 6.656 6.41-3.243-3.539.546"/><path fill="none" stroke="#26FF26" stroke-linecap="round" stroke-miterlimit="10" stroke-width="1.594" d="M96.371 27.156c-9.95 3.785 2.578-6.355 9.777-4.484"/><g clip-path="url(#W)"><path fill="none" stroke="#24FF24" stroke-linecap="round" stroke-miterlimit="10" stroke-width="1.594" d="M106.148 22.672c7.2 1.871 10.114 6.848 2.301 3.871"/></g><g clip-path="url(#X)"><path fill="none" stroke="#21FF21" stroke-linecap="round" stroke-miterlimit="10" stroke-width="1.594" d="M108.45 26.543c-7.813-2.977 12.109-2.715 6.577 3.68"/></g><g clip-path="url(#Y)"><path fill="none" stroke="#1FFF1F" stroke-linecap="round" stroke-miterlimit="10" stroke-width="1.594" d="M115.027 30.223c-5.53 6.398-15.738-.883-6.23-1.746"/></g><g clip-path="url(#Z)"><path fill="none" stroke="#1CFF1C" stroke-linecap="round" stroke-miterlimit="10" stroke-width="1.594" d="M108.797 28.477c9.504-.86 3.418 3.964 7.504 2.246"/></g><g clip-path="url(#aa)"><path fill="none" stroke="#19FF19" stroke-linecap="round" stroke-miterlimit="10" stroke-width="1.594" d="M116.3 30.723c4.087-1.715 9.876-3.266 6.72-3.02"/></g><g clip-path="url(#ab)"><path fill="none" stroke="#17FF17" stroke-linecap="round" stroke-miterlimit="10" stroke-width="1.594" d="M123.02 27.703c-3.153.25-2.16-13.086-9.739-5.984"/></g><g clip-path="url(#ac)"><path fill="none" stroke="#14FF14" stroke-linecap="round" stroke-miterlimit="10" stroke-width="1.594" d="M113.281 21.719c-7.578 7.105-14.867-19.102-5.847-9.89"/></g><g clip-path="url(#ad)"><path fill="none" stroke="#12FF12" stroke-linecap="round" stroke-miterlimit="10" stroke-width="1.594" d="M107.434 11.828c9.02 9.207 8.898 2.39 2.937 5.938"/></g><g clip-path="url(#ae)"><path fill="none" stroke="#0FFF0F" stroke-linecap="round" stroke-miterlimit="10" stroke-width="1.594" d="M110.371 17.766c-5.96 3.543 3.813-13.848 4.871-4.2"/></g><g clip-path="url(#af)"><path fill="none" stroke="#0DFF0D" stroke-linecap="round" stroke-miterlimit="10" stroke-width="1.594" d="M115.242 13.566c1.063 9.649-3.101 12.497.805 5.16"/></g><g clip-path="url(#ag)"><path fill="none" stroke="#0AFF0A" stroke-linecap="round" stroke-miterlimit="10" stroke-width="1.594" d="M116.047 18.727c3.906-7.332 8.273 6.746 9.504 9.257"/></g><g clip-path="url(#ah)"><path fill="none" stroke="#08FF08" stroke-linecap="round" stroke-miterlimit="10" stroke-width="1.594" d="M125.55 27.984c1.231 2.516-11.632 17.004-9.577 7.602"/></g><g clip-path="url(#ai)"><path fill="none" stroke="#05FF05" stroke-linecap="round" stroke-miterlimit="10" stroke-width="1.594" d="M115.973 35.586c2.054-9.406 5.988-16.133 5.644-9.219"/></g><g clip-path="url(#aj)"><path fill="none" stroke="#03FF03" stroke-linecap="round" stroke-miterlimit="10" stroke-width="1.594" d="M121.617 26.367c-.347 6.91 11.156 3.758 2.871 7.531"/></g><g clip-path="url(#ak)"><path fill="none" stroke="#0F0" stroke-linecap="round" stroke-miterlimit="10" stroke-width="1.594" d="M124.488 33.898c-8.281 3.774 1.57 1.028 5.989 6.641"/></g></svg>