<svg xmlns="http://www.w3.org/2000/svg" width="115.786" height="115.786"><defs><clipPath id="a"><path d="M53 106h4.785v6H53Zm0 0"/></clipPath><clipPath id="b"><path d="M53 96h4.785v6H53Zm0 0"/></clipPath><clipPath id="c"><path d="M53 86h4.785v6H53Zm0 0"/></clipPath><clipPath id="d"><path d="M53 76h4.785v6H53Zm0 0"/></clipPath><clipPath id="e"><path d="M53 66h4.785v6H53Zm0 0"/></clipPath><clipPath id="f"><path d="M3 57.785h7V62H3Zm0 0"/></clipPath><clipPath id="g"><path d="M13 57.785h7V62h-7Zm0 0"/></clipPath><clipPath id="h"><path d="M23 57.785h7V62h-7Zm0 0"/></clipPath><clipPath id="i"><path d="M33 57.785h7V62h-7Zm0 0"/></clipPath><clipPath id="j"><path d="M43 57.785h7V62h-7Zm0 0"/></clipPath><clipPath id="k"><path d="M53 57.785h4.785V62H53Zm0 0"/></clipPath><clipPath id="l"><path d="M63 111h7v3.48h-7Zm0 0"/></clipPath><clipPath id="m"><path d="M78 111h6v3.48h-6Zm0 0"/></clipPath><clipPath id="n"><path d="M93 111h6v3.48h-6Zm0 0"/></clipPath><clipPath id="o"><path d="M108 111h6v3.48h-6Zm0 0"/></clipPath><clipPath id="p"><path d="M63 57.785h7V58h-7Zm0 0"/></clipPath><clipPath id="q"><path d="M78 57.785h6V58h-6Zm0 0"/></clipPath><clipPath id="r"><path d="M93 57.785h6V58h-6Zm0 0"/></clipPath><clipPath id="s"><path d="M108 57.785h6V58h-6Zm0 0"/></clipPath><clipPath id="t"><path d="M51 52h6.785v5.785H51Zm0 0"/></clipPath><clipPath id="u"><path d="m54.145 61.984 7.042-7.043-7.042-7.046-7.047 7.046Zm0 0"/></clipPath><clipPath id="v"><path d="M37 52h7v5.785h-7Zm0 0"/></clipPath><clipPath id="w"><path d="m40.055 61.984 7.043-7.043-7.043-7.046-7.043 7.046Zm0 0"/></clipPath><clipPath id="x"><path d="M44 45h7v6h-7Zm0 0"/></clipPath><clipPath id="y"><path d="m47.098 54.941 7.047-7.046-7.047-7.043-7.043 7.043Zm0 0"/></clipPath><clipPath id="z"><path d="M51 38h6.785v6H51Zm0 0"/></clipPath><clipPath id="A"><path d="m54.145 47.895 7.042-7.043-7.042-7.043-7.047 7.043Zm0 0"/></clipPath><clipPath id="B"><path d="M23 52h6v5.785h-6Zm0 0"/></clipPath><clipPath id="C"><path d="m25.965 61.984 7.047-7.043-7.047-7.046-7.043 7.046Zm0 0"/></clipPath><clipPath id="D"><path d="M30 45h6v6h-6Zm0 0"/></clipPath><clipPath id="E"><path d="m33.012 54.941 7.043-7.046-7.043-7.043-7.047 7.043Zm0 0"/></clipPath><clipPath id="F"><path d="M37 38h7v6h-7Zm0 0"/></clipPath><clipPath id="G"><path d="m40.055 47.895 7.043-7.043-7.043-7.043-7.043 7.043Zm0 0"/></clipPath><clipPath id="H"><path d="M44 31h7v6h-7Zm0 0"/></clipPath><clipPath id="I"><path d="m47.098 40.852 7.047-7.043-7.047-7.047-7.043 7.047Zm0 0"/></clipPath><clipPath id="J"><path d="M51 24h6.785v6H51Zm0 0"/></clipPath><clipPath id="K"><path d="m54.145 33.809 7.042-7.047-7.042-7.043-7.047 7.043Zm0 0"/></clipPath><clipPath id="L"><path d="M9 52h6v5.785H9Zm0 0"/></clipPath><clipPath id="M"><path d="m11.875 61.984 7.047-7.043-7.047-7.046-7.043 7.046Zm0 0"/></clipPath><clipPath id="N"><path d="M16 45h6v6h-6Zm0 0"/></clipPath><clipPath id="O"><path d="m18.922 54.941 7.043-7.046-7.043-7.043-7.047 7.043Zm0 0"/></clipPath><clipPath id="P"><path d="M23 38h6v6h-6Zm0 0"/></clipPath><clipPath id="Q"><path d="m25.965 47.895 7.047-7.043-7.047-7.043-7.043 7.043Zm0 0"/></clipPath><clipPath id="R"><path d="M30 31h6v6h-6Zm0 0"/></clipPath><clipPath id="S"><path d="m33.012 40.852 7.043-7.043-7.043-7.047-7.047 7.047Zm0 0"/></clipPath><clipPath id="T"><path d="M37 24h7v6h-7Zm0 0"/></clipPath><clipPath id="U"><path d="m40.055 33.809 7.043-7.047-7.043-7.043-7.043 7.043Zm0 0"/></clipPath><clipPath id="V"><path d="M44 17h7v6h-7Zm0 0"/></clipPath><clipPath id="W"><path d="m47.098 26.762 7.047-7.043-7.047-7.047-7.043 7.047Zm0 0"/></clipPath><clipPath id="X"><path d="M51 10h6.785v6H51Zm0 0"/></clipPath><clipPath id="Y"><path d="m54.145 19.719 7.042-7.047-7.042-7.043-7.047 7.043Zm0 0"/></clipPath><clipPath id="Z"><path d="M2 45h6v6H2Zm0 0"/></clipPath><clipPath id="aa"><path d="m4.832 54.941 7.043-7.046-7.043-7.043-7.047 7.043Zm0 0"/></clipPath><clipPath id="ab"><path d="M9 38h6v6H9Zm0 0"/></clipPath><clipPath id="ac"><path d="m11.875 47.895 7.047-7.043-7.047-7.043-7.043 7.043Zm0 0"/></clipPath><clipPath id="ad"><path d="M16 31h6v6h-6Zm0 0"/></clipPath><clipPath id="ae"><path d="m18.922 40.852 7.043-7.043-7.043-7.047-7.047 7.047Zm0 0"/></clipPath><clipPath id="af"><path d="M23 24h6v6h-6Zm0 0"/></clipPath><clipPath id="ag"><path d="m25.965 33.809 7.047-7.047-7.047-7.043-7.043 7.043Zm0 0"/></clipPath><clipPath id="ah"><path d="M30 17h6v6h-6Zm0 0"/></clipPath><clipPath id="ai"><path d="m33.012 26.762 7.043-7.043-7.043-7.047-7.047 7.047Zm0 0"/></clipPath><clipPath id="aj"><path d="M37 10h7v6h-7Zm0 0"/></clipPath><clipPath id="ak"><path d="m40.055 19.719 7.043-7.047-7.043-7.043-7.043 7.043Zm0 0"/></clipPath><clipPath id="al"><path d="M44 2h7v7h-7Zm0 0"/></clipPath><clipPath id="am"><path d="m47.098 12.672 7.047-7.043-7.047-7.047-7.043 7.047Zm0 0"/></clipPath><clipPath id="an"><path d="M51 1.094h6.785V2H51Zm0 0"/></clipPath><clipPath id="ao"><path d="m54.145 5.629 7.042-7.047-7.042-7.043-7.047 7.043Zm0 0"/></clipPath><clipPath id="ap"><path d="M2 31h6v6H2Zm0 0"/></clipPath><clipPath id="aq"><path d="m4.832 40.852 7.043-7.043-7.043-7.047-7.047 7.047Zm0 0"/></clipPath><clipPath id="ar"><path d="M9 24h6v6H9Zm0 0"/></clipPath><clipPath id="as"><path d="m11.875 33.809 7.047-7.047-7.047-7.043-7.043 7.043Zm0 0"/></clipPath><clipPath id="at"><path d="M16 17h6v6h-6Zm0 0"/></clipPath><clipPath id="au"><path d="m18.922 26.762 7.043-7.043-7.043-7.047-7.047 7.047Zm0 0"/></clipPath><clipPath id="av"><path d="M23 10h6v6h-6Zm0 0"/></clipPath><clipPath id="aw"><path d="m25.965 19.719 7.047-7.047-7.047-7.043-7.043 7.043Zm0 0"/></clipPath><clipPath id="ax"><path d="M30 2h6v7h-6Zm0 0"/></clipPath><clipPath id="ay"><path d="m33.012 12.672 7.043-7.043-7.043-7.047-7.047 7.047Zm0 0"/></clipPath><clipPath id="az"><path d="M37 1.094h7V2h-7Zm0 0"/></clipPath><clipPath id="aA"><path d="m40.055 5.629 7.043-7.047-7.043-7.043-7.043 7.043Zm0 0"/></clipPath><clipPath id="aB"><path d="M2 17h6v6H2Zm0 0"/></clipPath><clipPath id="aC"><path d="m4.832 26.762 7.043-7.043-7.043-7.047-7.047 7.047Zm0 0"/></clipPath><clipPath id="aD"><path d="M9 10h6v6H9Zm0 0"/></clipPath><clipPath id="aE"><path d="m11.875 19.719 7.047-7.047-7.047-7.043-7.043 7.043Zm0 0"/></clipPath><clipPath id="aF"><path d="M16 2h6v7h-6Zm0 0"/></clipPath><clipPath id="aG"><path d="m18.922 12.672 7.043-7.043-7.043-7.047-7.047 7.047Zm0 0"/></clipPath><clipPath id="aH"><path d="M23 1.094h6V2h-6Zm0 0"/></clipPath><clipPath id="aI"><path d="m25.965 5.629 7.047-7.047-7.047-7.043-7.043 7.043Zm0 0"/></clipPath><clipPath id="aJ"><path d="M2 2h6v7H2Zm0 0"/></clipPath><clipPath id="aK"><path d="m4.832 12.672 7.043-7.043-7.043-7.047-7.047 7.047Zm0 0"/></clipPath><clipPath id="aL"><path d="M9 1.094h6V2H9Zm0 0"/></clipPath><clipPath id="aM"><path d="m11.875 5.629 7.047-7.047-7.047-7.043-7.043 7.043Zm0 0"/></clipPath><clipPath id="aN"><path d="M106 55h8.48v2.785H106Zm0 0"/></clipPath><clipPath id="aO"><path d="m108.652 67.082 8.63-4.984-4.981-8.625-8.63 4.98Zm0 0"/></clipPath><clipPath id="aP"><path d="M114 50h.48v7.785H114Zm0 0"/></clipPath><clipPath id="aQ"><path d="m117.281 62.098 8.63-4.98-4.985-8.63-8.625 4.985Zm0 0"/></clipPath><clipPath id="aR"><path d="M83 57h10v.785H83Zm0 0"/></clipPath><clipPath id="aS"><path d="m86.414 68.414 8.629-4.98-4.98-8.63-8.63 4.981Zm0 0"/></clipPath><clipPath id="aT"><path d="M92 52h10v5.785H92Zm0 0"/></clipPath><clipPath id="aU"><path d="m95.043 63.434 8.629-4.98-4.98-8.63-8.63 4.98Zm0 0"/></clipPath><clipPath id="aV"><path d="M101 47h9v9h-9Zm0 0"/></clipPath><clipPath id="aW"><path d="m103.672 58.453 8.629-4.98-4.985-8.63-8.625 4.981Zm0 0"/></clipPath><clipPath id="aX"><path d="M109 42h5.48v9H109Zm0 0"/></clipPath><clipPath id="aY"><path d="m112.3 53.473 8.626-4.985-4.98-8.625-8.63 4.98Zm0 0"/></clipPath><clipPath id="aZ"><path d="M70 53h9v4.785h-9Zm0 0"/></clipPath><clipPath id="ba"><path d="m72.805 64.77 8.629-4.985-4.98-8.625-8.63 4.98Zm0 0"/></clipPath><clipPath id="bb"><path d="M78 48h10v9.785H78Zm0 0"/></clipPath><clipPath id="bc"><path d="m81.434 59.785 8.629-4.98-4.981-8.63-8.629 4.985Zm0 0"/></clipPath><clipPath id="bd"><path d="M87 43h10v10H87Zm0 0"/></clipPath><clipPath id="be"><path d="m90.063 54.805 8.628-4.98-4.984-8.63-8.625 4.98Zm0 0"/></clipPath><clipPath id="bf"><path d="M96 38h9v10h-9Zm0 0"/></clipPath><clipPath id="bg"><path d="m98.691 49.824 8.625-4.98-4.98-8.63-8.629 4.981Zm0 0"/></clipPath><clipPath id="bh"><path d="M104 33h10v10h-10Zm0 0"/></clipPath><clipPath id="bi"><path d="m107.316 44.844 8.63-4.98-4.981-8.63-8.63 4.98Zm0 0"/></clipPath><clipPath id="bj"><path d="M113 28h1.48v10H113Zm0 0"/></clipPath><clipPath id="bk"><path d="m115.945 39.863 8.63-4.984-4.981-8.629-8.63 4.984Zm0 0"/></clipPath><clipPath id="bl"><path d="M57.785 50H66v7.785h-8.215Zm0 0"/></clipPath><clipPath id="bm"><path d="m59.195 61.121 8.63-4.98-4.981-8.63-8.63 4.981Zm0 0"/></clipPath><clipPath id="bn"><path d="M65 45h9v9h-9Zm0 0"/></clipPath><clipPath id="bo"><path d="m67.824 56.14 8.63-4.98-4.981-8.629-8.63 4.98Zm0 0"/></clipPath><clipPath id="bp"><path d="M73 40h10v9H73Zm0 0"/></clipPath><clipPath id="bq"><path d="m76.453 51.16 8.629-4.984-4.984-8.625-8.625 4.98Zm0 0"/></clipPath><clipPath id="br"><path d="M82 35h10v9H82Zm0 0"/></clipPath><clipPath id="bs"><path d="m85.082 46.176 8.625-4.98-4.98-8.63-8.63 4.985Zm0 0"/></clipPath><clipPath id="bt"><path d="M91 30h9v9h-9Zm0 0"/></clipPath><clipPath id="bu"><path d="m93.707 41.195 8.629-4.98-4.98-8.63-8.63 4.981Zm0 0"/></clipPath><clipPath id="bv"><path d="M99 25h10v9H99Zm0 0"/></clipPath><clipPath id="bw"><path d="m102.336 36.215 8.629-4.98-4.98-8.63-8.63 4.98Zm0 0"/></clipPath><clipPath id="bx"><path d="M108 20h6.48v9H108Zm0 0"/></clipPath><clipPath id="by"><path d="m110.965 31.234 8.629-4.984-4.985-8.625-8.625 4.98Zm0 0"/></clipPath><clipPath id="bz"><path d="M57.785 41H61v10h-3.215Zm0 0"/></clipPath><clipPath id="bA"><path d="m54.215 52.492 8.629-4.98-4.98-8.63-8.63 4.985Zm0 0"/></clipPath><clipPath id="bB"><path d="M60 36h9v10h-9Zm0 0"/></clipPath><clipPath id="bC"><path d="m62.844 47.512 8.629-4.98-4.985-8.63-8.625 4.98Zm0 0"/></clipPath><clipPath id="bD"><path d="M68 31h10v10H68Zm0 0"/></clipPath><clipPath id="bE"><path d="m71.473 42.531 8.625-4.98-4.98-8.63-8.63 4.981Zm0 0"/></clipPath><clipPath id="bF"><path d="M77 26h10v10H77Zm0 0"/></clipPath><clipPath id="bG"><path d="m80.098 37.55 8.629-4.984-4.98-8.625-8.63 4.98Zm0 0"/></clipPath><clipPath id="bH"><path d="M86 21h9v10h-9Zm0 0"/></clipPath><clipPath id="bI"><path d="m88.727 32.566 8.628-4.98-4.98-8.629-8.629 4.984Zm0 0"/></clipPath><clipPath id="bJ"><path d="M94 16h10v10H94Zm0 0"/></clipPath><clipPath id="bK"><path d="m97.355 27.586 8.63-4.98-4.985-8.63-8.625 4.981Zm0 0"/></clipPath><clipPath id="bL"><path d="M103 11h10v10h-10Zm0 0"/></clipPath><clipPath id="bM"><path d="m105.984 22.605 8.625-4.98-4.98-8.629-8.629 4.98Zm0 0"/></clipPath><clipPath id="bN"><path d="M112 6h2.48v10H112Zm0 0"/></clipPath><clipPath id="bO"><path d="m114.61 17.625 8.628-4.984-4.98-8.625-8.63 4.98Zm0 0"/></clipPath><clipPath id="bP"><path d="M57.785 27H64v10h-6.215Zm0 0"/></clipPath><clipPath id="bQ"><path d="m57.863 38.883 8.625-4.98-4.98-8.63-8.63 4.985Zm0 0"/></clipPath><clipPath id="bR"><path d="M64 22h9v10h-9Zm0 0"/></clipPath><clipPath id="bS"><path d="m66.488 33.902 8.63-4.98-4.981-8.629-8.63 4.98Zm0 0"/></clipPath><clipPath id="bT"><path d="M72 17h10v10H72Zm0 0"/></clipPath><clipPath id="bU"><path d="m75.117 28.922 8.63-4.98-4.981-8.63-8.63 4.981Zm0 0"/></clipPath><clipPath id="bV"><path d="M81 12h9v10h-9Zm0 0"/></clipPath><clipPath id="bW"><path d="m83.746 23.941 8.629-4.984-4.984-8.625-8.625 4.98Zm0 0"/></clipPath><clipPath id="bX"><path d="M89 7h10v10H89Zm0 0"/></clipPath><clipPath id="bY"><path d="m92.375 18.957 8.625-4.98-4.98-8.63-8.63 4.985Zm0 0"/></clipPath><clipPath id="bZ"><path d="M98 2h10v10H98Zm0 0"/></clipPath><clipPath id="ca"><path d="m101 13.977 8.629-4.98-4.98-8.63-8.63 4.98Zm0 0"/></clipPath><clipPath id="cb"><path d="M107 1.094h7.48V7H107Zm0 0"/></clipPath><clipPath id="cc"><path d="m109.629 8.996 8.629-4.98-4.98-8.63-8.63 4.981Zm0 0"/></clipPath><clipPath id="cd"><path d="M57.785 19H60v9h-2.215Zm0 0"/></clipPath><clipPath id="ce"><path d="m52.879 30.258 8.629-4.985-4.98-8.625-8.63 4.98Zm0 0"/></clipPath><clipPath id="cf"><path d="M59 14h9v9h-9Zm0 0"/></clipPath><clipPath id="cg"><path d="m61.508 25.273 8.629-4.98-4.98-8.629-8.63 4.984Zm0 0"/></clipPath><clipPath id="ch"><path d="M67 9h10v9H67Zm0 0"/></clipPath><clipPath id="ci"><path d="m70.137 20.293 8.629-4.98-4.985-8.63-8.625 4.981Zm0 0"/></clipPath><clipPath id="cj"><path d="M76 4h9v9h-9Zm0 0"/></clipPath><clipPath id="ck"><path d="m78.766 15.313 8.625-4.981-4.98-8.629-8.63 4.98Zm0 0"/></clipPath><clipPath id="cl"><path d="M84 1.094h10V8H84Zm0 0"/></clipPath><clipPath id="cm"><path d="m87.39 10.332 8.63-4.984-4.98-8.625-8.63 4.98Zm0 0"/></clipPath><clipPath id="cn"><path d="M93 1.094h10V3H93Zm0 0"/></clipPath><clipPath id="co"><path d="m96.02 5.348 8.628-4.98-4.98-8.63-8.629 4.985Zm0 0"/></clipPath><clipPath id="cp"><path d="M57.785 5H63v10h-5.215Zm0 0"/></clipPath><clipPath id="cq"><path d="m56.527 16.648 8.63-4.984-4.985-8.625-8.625 4.98Zm0 0"/></clipPath><clipPath id="cr"><path d="M62 1.094h10V10H62Zm0 0"/></clipPath><clipPath id="cs"><path d="m65.156 11.664 8.625-4.98-4.98-8.63-8.63 4.985Zm0 0"/></clipPath><clipPath id="ct"><path d="M71 1.094h9V5h-9Zm0 0"/></clipPath><clipPath id="cu"><path d="m73.781 6.684 8.63-4.98-4.981-8.63-8.63 4.98Zm0 0"/></clipPath><clipPath id="cv"><path d="M57.785 1.094H58V6h-.215Zm0 0"/></clipPath><clipPath id="cw"><path d="m51.547 8.02 8.625-4.98-4.98-8.63-8.63 4.98Zm0 0"/></clipPath></defs><path fill="#00F" d="m6.336 106.352-.879 1.78-1.965.286 1.422 1.387-.336 1.953 1.758-.922 1.754.922-.336-1.953 1.422-1.387-1.961-.285ZM16.297 106.352l-.879 1.78-1.965.286 1.422 1.387-.336 1.953 1.758-.922 1.758.922-.336-1.953 1.422-1.387-1.965-.285ZM26.262 106.352l-.88 1.78-1.964.286 1.422 1.387-.336 1.953 1.758-.922 1.754.922-.336-1.953 1.422-1.387-1.965-.285ZM36.223 106.352l-.88 1.78-1.964.286 1.422 1.387-.336 1.953 1.758-.922 1.757.922-.335-1.953 1.421-1.387-1.964-.285ZM46.188 106.352l-.88 1.78-1.964.286 1.422 1.387-.336 1.953 1.758-.922 1.753.922-.336-1.953 1.422-1.387-1.965-.285Zm0 0"/><g clip-path="url(#a)"><path fill="#00F" d="m56.148 106.352-.878 1.78-1.965.286 1.422 1.387-.336 1.953 1.757-.922 1.758.922-.336-1.953 1.422-1.387-1.965-.285Zm0 0"/></g><path fill="#00F" d="m6.336 96.39-.879 1.778-1.965.289 1.422 1.383-.336 1.957 1.758-.922 1.754.922-.336-1.957 1.422-1.383-1.961-.289ZM16.297 96.39l-.879 1.778-1.965.289 1.422 1.383-.336 1.957 1.758-.922 1.758.922-.336-1.957 1.422-1.383-1.965-.289ZM26.262 96.39l-.88 1.778-1.964.289 1.422 1.383-.336 1.957 1.758-.922 1.754.922-.336-1.957 1.422-1.383-1.965-.289ZM36.223 96.39l-.88 1.778-1.964.289L34.8 99.84l-.336 1.957 1.758-.922 1.757.922-.335-1.957 1.421-1.383-1.964-.289ZM46.188 96.39l-.88 1.778-1.964.289 1.422 1.383-.336 1.957 1.758-.922 1.753.922-.336-1.957 1.422-1.383-1.965-.289Zm0 0"/><g clip-path="url(#b)"><path fill="#00F" d="m56.148 96.39-.878 1.778-1.965.289 1.422 1.383-.336 1.957 1.757-.922 1.758.922-.336-1.957 1.422-1.383-1.965-.289Zm0 0"/></g><path fill="#00F" d="m6.336 86.426-.879 1.781-1.965.285 1.422 1.387-.336 1.957 1.758-.926 1.754.926-.336-1.957 1.422-1.387-1.961-.285ZM16.297 86.426l-.879 1.781-1.965.285 1.422 1.387-.336 1.957 1.758-.926 1.758.926-.336-1.957 1.422-1.387-1.965-.285ZM26.262 86.426l-.88 1.781-1.964.285 1.422 1.387-.336 1.957 1.758-.926 1.754.926-.336-1.957 1.422-1.387-1.965-.285ZM36.223 86.426l-.88 1.781-1.964.285L34.8 89.88l-.336 1.957 1.758-.926 1.757.926-.335-1.957 1.421-1.387-1.964-.285ZM46.188 86.426l-.88 1.781-1.964.285 1.422 1.387-.336 1.957 1.758-.926 1.753.926-.336-1.957 1.422-1.387-1.965-.285Zm0 0"/><g clip-path="url(#c)"><path fill="#00F" d="m56.148 86.426-.878 1.781-1.965.285 1.422 1.387-.336 1.957 1.757-.926 1.758.926-.336-1.957 1.422-1.387-1.965-.285Zm0 0"/></g><path fill="#00F" d="m6.336 76.465-.879 1.781-1.965.285 1.422 1.383-.336 1.957 1.758-.922 1.754.922-.336-1.957 1.422-1.383-1.961-.285ZM16.297 76.465l-.879 1.781-1.965.285 1.422 1.383-.336 1.957 1.758-.922 1.758.922-.336-1.957 1.422-1.383-1.965-.285ZM26.262 76.465l-.88 1.781-1.964.285 1.422 1.383-.336 1.957 1.758-.922 1.754.922-.336-1.957 1.422-1.383-1.965-.285ZM36.223 76.465l-.88 1.781-1.964.285 1.422 1.383-.336 1.957 1.758-.922 1.757.922-.335-1.957 1.421-1.383-1.964-.285ZM46.188 76.465l-.88 1.781-1.964.285 1.422 1.383-.336 1.957 1.758-.922 1.753.922-.336-1.957 1.422-1.383-1.965-.285Zm0 0"/><g clip-path="url(#d)"><path fill="#00F" d="m56.148 76.465-.878 1.781-1.965.285 1.422 1.383-.336 1.957 1.757-.922 1.758.922-.336-1.957 1.422-1.383-1.965-.285Zm0 0"/></g><path fill="#00F" d="m6.336 66.5-.879 1.781-1.965.285 1.422 1.387-.336 1.957 1.758-.926 1.754.926-.336-1.957 1.422-1.387-1.961-.285ZM16.297 66.5l-.879 1.781-1.965.285 1.422 1.387-.336 1.957 1.758-.926 1.758.926-.336-1.957 1.422-1.387-1.965-.285ZM26.262 66.5l-.88 1.781-1.964.285 1.422 1.387-.336 1.957 1.758-.926 1.754.926-.336-1.957 1.422-1.387-1.965-.285ZM36.223 66.5l-.88 1.781-1.964.285 1.422 1.387-.336 1.957 1.758-.926 1.757.926-.335-1.957 1.421-1.387-1.964-.285ZM46.188 66.5l-.88 1.781-1.964.285 1.422 1.387-.336 1.957 1.758-.926 1.753.926-.336-1.957 1.422-1.387-1.965-.285Zm0 0"/><g clip-path="url(#e)"><path fill="#00F" d="m56.148 66.5-.878 1.781-1.965.285 1.422 1.387-.336 1.957 1.757-.926 1.758.926-.336-1.957 1.422-1.387-1.965-.285Zm0 0"/></g><g clip-path="url(#f)"><path fill="#00F" d="m6.336 56.54-.879 1.78-1.965.285 1.422 1.383-.336 1.957 1.758-.922 1.754.922-.336-1.957 1.422-1.383-1.961-.285Zm0 0"/></g><g clip-path="url(#g)"><path fill="#00F" d="m16.297 56.54-.879 1.78-1.965.285 1.422 1.383-.336 1.957 1.758-.922 1.758.922-.336-1.957 1.422-1.383-1.965-.285Zm0 0"/></g><g clip-path="url(#h)"><path fill="#00F" d="m26.262 56.54-.88 1.78-1.964.285 1.422 1.383-.336 1.957 1.758-.922 1.754.922-.336-1.957 1.422-1.383-1.965-.285Zm0 0"/></g><g clip-path="url(#i)"><path fill="#00F" d="m36.223 56.54-.88 1.78-1.964.285 1.422 1.383-.336 1.957 1.758-.922 1.757.922-.335-1.957 1.421-1.383-1.964-.285Zm0 0"/></g><g clip-path="url(#j)"><path fill="#00F" d="m46.188 56.54-.88 1.78-1.964.285 1.422 1.383-.336 1.957 1.758-.922 1.753.922-.336-1.957 1.422-1.383-1.965-.285Zm0 0"/></g><g clip-path="url(#k)"><path fill="#00F" d="m56.148 56.54-.878 1.78-1.965.285 1.422 1.383-.336 1.957 1.757-.922 1.758.922-.336-1.957 1.422-1.383-1.965-.285Zm0 0"/></g><path fill="none" stroke="#000" stroke-miterlimit="10" stroke-width=".399" d="M1.094 114.48V57.785h56.691v56.695Zm0 0"/><g clip-path="url(#l)"><path d="m66.11 111.34-.65 1.64-1.687-.515.88 1.531-1.454.996 1.742.266-.129 1.762 1.297-1.2 1.297 1.2-.125-1.762 1.742-.266-1.457-.996.883-1.531-1.691.515Zm0 0"/></g><g clip-path="url(#m)"><path d="m81.055 111.34-.649 1.64-1.687-.515.879 1.531-1.457.996 1.746.266-.13 1.762 1.298-1.2 1.297 1.2-.13-1.762 1.747-.266-1.457-.996.879-1.531-1.688.515Zm0 0"/></g><g clip-path="url(#n)"><path d="m96 111.34-.648 1.64-1.688-.515.879 1.531-1.457.996 1.746.266-.129 1.762 1.297-1.2 1.297 1.2-.129-1.762 1.746-.266-1.457-.996.879-1.531-1.688.515Zm0 0"/></g><g clip-path="url(#o)"><path d="m110.945 111.34-.648 1.64-1.692-.515.883 1.531-1.457.996 1.742.266-.125 1.762 1.297-1.2 1.297 1.2-.129-1.762 1.742-.266-1.453-.996.88-1.531-1.688.515Zm0 0"/></g><path d="m66.11 96.395-.65 1.64-1.687-.515.88 1.53-1.454.997 1.742.27-.129 1.757 1.297-1.195 1.297 1.195-.125-1.758 1.742-.27-1.457-.995.883-1.531-1.691.515ZM81.055 96.395l-.649 1.64-1.687-.515.879 1.53-1.457.997 1.746.27-.13 1.757 1.298-1.195 1.297 1.195-.13-1.758 1.747-.27-1.457-.995.879-1.531-1.688.515ZM96 96.395l-.648 1.64-1.688-.515.879 1.53-1.457.997 1.746.27-.129 1.757L96 100.88l1.297 1.195-.129-1.758 1.746-.27-1.457-.995.879-1.531-1.688.515ZM110.945 96.395l-.648 1.64-1.692-.515.883 1.53-1.457.997 1.742.27-.125 1.757 1.297-1.195 1.297 1.195-.129-1.758 1.742-.27-1.453-.995.88-1.531-1.688.515ZM66.11 81.45l-.65 1.644-1.687-.52.88 1.531-1.454 1 1.742.266-.129 1.762 1.297-1.2 1.297 1.2-.125-1.762 1.742-.266-1.457-1 .883-1.53-1.691.519ZM81.055 81.45l-.649 1.644-1.687-.52.879 1.531-1.457 1 1.746.266-.13 1.762 1.298-1.2 1.297 1.2-.13-1.762 1.747-.266-1.457-1 .879-1.53-1.688.519ZM96 81.45l-.648 1.644-1.688-.52.879 1.531-1.457 1 1.746.266-.129 1.762 1.297-1.2 1.297 1.2-.129-1.762 1.746-.266-1.457-1 .879-1.53-1.688.519ZM110.945 81.45l-.648 1.644-1.692-.52.883 1.531-1.457 1 1.742.266-.125 1.762 1.297-1.2 1.297 1.2-.129-1.762 1.742-.266-1.453-1 .88-1.53-1.688.519ZM66.11 66.508l-.65 1.64-1.687-.515.88 1.531-1.454.996 1.742.266-.129 1.761 1.297-1.199 1.297 1.2-.125-1.762 1.742-.266-1.457-.996.883-1.531-1.691.515ZM81.055 66.508l-.649 1.64-1.687-.515.879 1.531-1.457.996 1.746.266-.13 1.761 1.298-1.199 1.297 1.2-.13-1.762 1.747-.266-1.457-.996.879-1.531-1.688.515ZM96 66.508l-.648 1.64-1.688-.515.879 1.531-1.457.996 1.746.266-.129 1.761L96 70.989l1.297 1.2-.129-1.762 1.746-.266-1.457-.996.879-1.531-1.688.515ZM110.945 66.508l-.648 1.64-1.692-.515.883 1.531-1.457.996 1.742.266-.125 1.761 1.297-1.199 1.297 1.2-.129-1.762 1.742-.266-1.453-.996.88-1.531-1.688.515Zm0 0"/><g clip-path="url(#p)"><path d="m66.11 51.563-.65 1.64-1.687-.516.88 1.532-1.454.996 1.742.27-.129 1.757 1.297-1.195 1.297 1.195-.125-1.758 1.742-.27-1.457-.995.883-1.532-1.691.516Zm0 0"/></g><g clip-path="url(#q)"><path d="m81.055 51.563-.649 1.64-1.687-.516.879 1.532-1.457.996 1.746.27-.13 1.757 1.298-1.195 1.297 1.195-.13-1.758 1.747-.27-1.457-.995.879-1.532-1.688.516Zm0 0"/></g><g clip-path="url(#r)"><path d="m96 51.563-.648 1.64-1.688-.516.879 1.532-1.457.996 1.746.27-.129 1.757L96 56.047l1.297 1.195-.129-1.758 1.746-.27-1.457-.995.879-1.532-1.688.516Zm0 0"/></g><g clip-path="url(#s)"><path d="m110.945 51.563-.648 1.64-1.692-.516.883 1.532-1.457.996 1.742.27-.125 1.757 1.297-1.195 1.297 1.195-.129-1.758 1.742-.27-1.453-.995.88-1.532-1.688.516Zm0 0"/></g><path fill="none" stroke="#000" stroke-miterlimit="10" stroke-width=".399" d="M57.785 114.48V57.785h56.695v56.695Zm0 0"/><g clip-path="url(#t)"><g clip-path="url(#u)"><path fill="red" d="m52.031 52.828.637 1.879-1.188 1.59 1.985-.024 1.148 1.622.586-1.899 1.899-.586-1.621-1.148.023-1.985-1.59 1.188Zm0 0"/></g></g><g clip-path="url(#v)"><g clip-path="url(#w)"><path fill="red" d="m37.941 52.828.637 1.879-1.187 1.59 1.984-.024 1.148 1.622.586-1.899 1.899-.586-1.621-1.148.023-1.985-1.59 1.188Zm0 0"/></g></g><g clip-path="url(#x)"><g clip-path="url(#y)"><path fill="red" d="m44.984 45.781.641 1.883-1.187 1.59 1.984-.027 1.144 1.62.59-1.894 1.895-.59-1.621-1.144.027-1.985-1.59 1.188Zm0 0"/></g></g><g clip-path="url(#z)"><g clip-path="url(#A)"><path fill="red" d="m52.031 38.738.637 1.88-1.188 1.589 1.985-.023 1.148 1.62.586-1.894 1.899-.59-1.621-1.148.023-1.984-1.59 1.187Zm0 0"/></g></g><g clip-path="url(#B)"><g clip-path="url(#C)"><path fill="red" d="m23.852 52.828.636 1.879-1.187 1.59 1.984-.024 1.149 1.622.59-1.899 1.894-.586-1.621-1.148.023-1.985-1.59 1.188Zm0 0"/></g></g><g clip-path="url(#D)"><g clip-path="url(#E)"><path fill="red" d="m30.895 45.781.64 1.883-1.187 1.59 1.984-.027 1.145 1.62.59-1.894 1.894-.59-1.621-1.144.027-1.985-1.59 1.188Zm0 0"/></g></g><g clip-path="url(#F)"><g clip-path="url(#G)"><path fill="red" d="m37.941 38.738.637 1.88-1.187 1.589 1.984-.023 1.148 1.62.586-1.894 1.899-.59-1.621-1.148.023-1.984-1.59 1.187Zm0 0"/></g></g><g clip-path="url(#H)"><g clip-path="url(#I)"><path fill="red" d="m44.984 31.695.641 1.88-1.187 1.59 1.984-.028 1.144 1.62.59-1.894 1.895-.59-1.621-1.144.027-1.984-1.59 1.187Zm0 0"/></g></g><g clip-path="url(#J)"><g clip-path="url(#K)"><path fill="red" d="m52.031 24.648.637 1.88-1.188 1.59 1.985-.024 1.148 1.62.586-1.894 1.899-.59-1.621-1.148.023-1.984-1.59 1.187Zm0 0"/></g></g><g clip-path="url(#L)"><g clip-path="url(#M)"><path fill="red" d="m9.762 52.828.636 1.879-1.187 1.59 1.988-.024 1.145 1.622.59-1.899 1.894-.586-1.621-1.148.027-1.985-1.593 1.188Zm0 0"/></g></g><g clip-path="url(#N)"><g clip-path="url(#O)"><path fill="red" d="m16.809 45.781.636 1.883-1.187 1.59 1.984-.027 1.145 1.62.59-1.894 1.894-.59-1.617-1.144.023-1.985-1.59 1.188Zm0 0"/></g></g><g clip-path="url(#P)"><g clip-path="url(#Q)"><path fill="red" d="m23.852 38.738.636 1.88-1.187 1.589 1.984-.023 1.149 1.62.59-1.894 1.894-.59-1.621-1.148.023-1.984-1.59 1.187Zm0 0"/></g></g><g clip-path="url(#R)"><g clip-path="url(#S)"><path fill="red" d="m30.895 31.695.64 1.88-1.187 1.59 1.984-.028 1.145 1.62.59-1.894 1.894-.59-1.621-1.144.027-1.984-1.59 1.187Zm0 0"/></g></g><g clip-path="url(#T)"><g clip-path="url(#U)"><path fill="red" d="m37.941 24.648.637 1.88-1.187 1.59 1.984-.024 1.148 1.62.586-1.894 1.899-.59-1.621-1.148.023-1.984-1.59 1.187Zm0 0"/></g></g><g clip-path="url(#V)"><g clip-path="url(#W)"><path fill="red" d="m44.984 17.605.641 1.88-1.187 1.59 1.984-.024 1.144 1.617.59-1.895 1.895-.59-1.621-1.144.027-1.984-1.59 1.187Zm0 0"/></g></g><g clip-path="url(#X)"><g clip-path="url(#Y)"><path fill="red" d="m52.031 10.559.637 1.879-1.188 1.593 1.985-.027 1.148 1.621.586-1.895 1.899-.59-1.621-1.144.023-1.984-1.59 1.183Zm0 0"/></g></g><g clip-path="url(#Z)"><g clip-path="url(#aa)"><path fill="red" d="m2.719 45.781.636 1.883-1.187 1.59 1.984-.027 1.145 1.62.59-1.894 1.894-.59-1.617-1.144.024-1.985-1.59 1.188Zm0 0"/></g></g><g clip-path="url(#ab)"><g clip-path="url(#ac)"><path fill="red" d="m9.762 38.738.636 1.88-1.187 1.589 1.988-.023 1.145 1.62.59-1.894 1.894-.59-1.621-1.148.027-1.984-1.593 1.187Zm0 0"/></g></g><g clip-path="url(#ad)"><g clip-path="url(#ae)"><path fill="red" d="m16.809 31.695.636 1.88-1.187 1.59 1.984-.028 1.145 1.62.59-1.894 1.894-.59-1.617-1.144.023-1.984-1.59 1.187Zm0 0"/></g></g><g clip-path="url(#af)"><g clip-path="url(#ag)"><path fill="red" d="m23.852 24.648.636 1.88-1.187 1.59 1.984-.024 1.149 1.62.59-1.894 1.894-.59-1.621-1.148.023-1.984-1.59 1.187Zm0 0"/></g></g><g clip-path="url(#ah)"><g clip-path="url(#ai)"><path fill="red" d="m30.895 17.605.64 1.88-1.187 1.59 1.984-.024 1.145 1.617.59-1.895 1.894-.59-1.621-1.144.027-1.984-1.59 1.187Zm0 0"/></g></g><g clip-path="url(#aj)"><g clip-path="url(#ak)"><path fill="red" d="m37.941 10.559.637 1.879-1.187 1.593 1.984-.027 1.148 1.621.586-1.895 1.899-.59-1.621-1.144.023-1.984-1.59 1.183Zm0 0"/></g></g><g clip-path="url(#al)"><g clip-path="url(#am)"><path fill="red" d="m44.984 3.516.641 1.879-1.187 1.59 1.984-.024 1.144 1.621.59-1.898 1.895-.586-1.621-1.149.027-1.984-1.59 1.187Zm0 0"/></g></g><g clip-path="url(#an)"><g clip-path="url(#ao)"><path fill="red" d="m52.031-3.531.637 1.883-1.188 1.59 1.985-.028 1.148 1.621.586-1.894 1.899-.59-1.621-1.145.023-1.984-1.59 1.187Zm0 0"/></g></g><g clip-path="url(#ap)"><g clip-path="url(#aq)"><path fill="red" d="m2.719 31.695.636 1.88-1.187 1.59 1.984-.028 1.145 1.62.59-1.894 1.894-.59-1.617-1.144.024-1.984-1.59 1.187Zm0 0"/></g></g><g clip-path="url(#ar)"><g clip-path="url(#as)"><path fill="red" d="m9.762 24.648.636 1.88-1.187 1.59 1.988-.024 1.145 1.62.59-1.894 1.894-.59-1.621-1.148.027-1.984-1.593 1.187Zm0 0"/></g></g><g clip-path="url(#at)"><g clip-path="url(#au)"><path fill="red" d="m16.809 17.605.636 1.88-1.187 1.59 1.984-.024 1.145 1.617.59-1.895 1.894-.59-1.617-1.144.023-1.984-1.59 1.187Zm0 0"/></g></g><g clip-path="url(#av)"><g clip-path="url(#aw)"><path fill="red" d="m23.852 10.559.636 1.879-1.187 1.593 1.984-.027 1.149 1.621.59-1.895 1.894-.59-1.621-1.144.023-1.984-1.59 1.183Zm0 0"/></g></g><g clip-path="url(#ax)"><g clip-path="url(#ay)"><path fill="red" d="m30.895 3.516.64 1.879-1.187 1.59 1.984-.024 1.145 1.621.59-1.898 1.894-.586-1.621-1.149.027-1.984-1.59 1.187Zm0 0"/></g></g><g clip-path="url(#az)"><g clip-path="url(#aA)"><path fill="red" d="m37.941-3.531.637 1.883-1.187 1.59 1.984-.028 1.148 1.621.586-1.894 1.899-.59-1.621-1.145.023-1.984-1.59 1.187Zm0 0"/></g></g><g clip-path="url(#aB)"><g clip-path="url(#aC)"><path fill="red" d="m2.719 17.605.636 1.88-1.187 1.59 1.984-.024 1.145 1.617.59-1.895 1.894-.59-1.617-1.144.024-1.984-1.59 1.187Zm0 0"/></g></g><g clip-path="url(#aD)"><g clip-path="url(#aE)"><path fill="red" d="m9.762 10.559.636 1.879-1.187 1.593 1.988-.027 1.145 1.621.59-1.895 1.894-.59-1.621-1.144.027-1.984-1.593 1.183Zm0 0"/></g></g><g clip-path="url(#aF)"><g clip-path="url(#aG)"><path fill="red" d="m16.809 3.516.636 1.879-1.187 1.59 1.984-.024 1.145 1.621.59-1.898 1.894-.586-1.617-1.149.023-1.984-1.59 1.187Zm0 0"/></g></g><g clip-path="url(#aH)"><g clip-path="url(#aI)"><path fill="red" d="m23.852-3.531.636 1.883-1.187 1.59 1.984-.028 1.149 1.621.59-1.894 1.894-.59-1.621-1.145.023-1.984-1.59 1.187Zm0 0"/></g></g><g clip-path="url(#aJ)"><g clip-path="url(#aK)"><path fill="red" d="m2.719 3.516.636 1.879-1.187 1.59 1.984-.024 1.145 1.621.59-1.898 1.894-.586-1.617-1.149.024-1.984-1.59 1.187Zm0 0"/></g></g><g clip-path="url(#aL)"><g clip-path="url(#aM)"><path fill="red" d="m9.762-3.531.636 1.883-1.187 1.59 1.988-.028 1.145 1.621.59-1.894 1.894-.59-1.621-1.145.027-1.984-1.593 1.187Zm0 0"/></g></g><path fill="none" stroke="#000" stroke-miterlimit="10" stroke-width=".399" d="M1.094 57.785V1.094h56.691v56.691Zm0 0"/><g clip-path="url(#aN)"><g clip-path="url(#aO)"><path d="m107.984 55.96.086 3.673-1.91 3.133 3.672-.086 3.133 1.91-.082-3.668 1.906-3.137-3.668.086Zm0 0"/></g></g><g clip-path="url(#aP)"><g clip-path="url(#aQ)"><path d="m116.613 50.98.086 3.668-1.91 3.137 3.672-.086 3.133 1.91-.082-3.672 1.906-3.132-3.668.082Zm0 0"/></g></g><g clip-path="url(#aR)"><g clip-path="url(#aS)"><path d="m85.746 57.297.086 3.668-1.906 3.137 3.668-.086 3.136 1.91-.085-3.672 1.906-3.133-3.668.082Zm0 0"/></g></g><g clip-path="url(#aT)"><g clip-path="url(#aU)"><path d="m94.375 52.316.086 3.668-1.91 3.137 3.672-.086 3.132 1.906-.082-3.668 1.907-3.136-3.668.086Zm0 0"/></g></g><g clip-path="url(#aV)"><g clip-path="url(#aW)"><path d="m103.004 47.332.086 3.672-1.91 3.133 3.672-.082 3.132 1.906-.082-3.668 1.907-3.137-3.668.086Zm0 0"/></g></g><g clip-path="url(#aX)"><g clip-path="url(#aY)"><path d="m111.633 42.352.086 3.668-1.91 3.136 3.668-.086 3.136 1.91-.086-3.667 1.91-3.137-3.671.086Zm0 0"/></g></g><g clip-path="url(#aZ)"><g clip-path="url(#ba)"><path d="m72.137 53.648.086 3.672-1.907 3.133 3.668-.082 3.137 1.906-.086-3.668 1.906-3.136-3.668.086Zm0 0"/></g></g><g clip-path="url(#bb)"><g clip-path="url(#bc)"><path d="m80.766 48.668.086 3.668-1.91 3.137 3.671-.086 3.133 1.91-.082-3.672 1.906-3.133-3.668.086Zm0 0"/></g></g><g clip-path="url(#bd)"><g clip-path="url(#be)"><path d="m89.395 43.688.085 3.667-1.91 3.137 3.672-.086 3.133 1.91-.086-3.671 1.91-3.133-3.668.082Zm0 0"/></g></g><g clip-path="url(#bf)"><g clip-path="url(#bg)"><path d="m98.023 38.707.082 3.668-1.906 3.137 3.668-.086 3.137 1.906-.086-3.668 1.91-3.137-3.672.086Zm0 0"/></g></g><g clip-path="url(#bh)"><g clip-path="url(#bi)"><path d="m106.652 33.723.082 3.672-1.906 3.132 3.668-.082 3.137 1.907-.086-3.668 1.91-3.137-3.672.086Zm0 0"/></g></g><g clip-path="url(#bj)"><g clip-path="url(#bk)"><path d="m115.277 28.742.086 3.668-1.906 3.137 3.668-.086 3.137 1.91-.086-3.668 1.906-3.137-3.668.086Zm0 0"/></g></g><g clip-path="url(#bl)"><g clip-path="url(#bm)"><path d="m58.527 50.004.086 3.668-1.906 3.137 3.668-.086 3.137 1.91-.086-3.672 1.906-3.133-3.668.082Zm0 0"/></g></g><g clip-path="url(#bn)"><g clip-path="url(#bo)"><path d="m67.156 45.02.086 3.671-1.91 3.137 3.672-.086 3.133 1.906-.082-3.668 1.906-3.136-3.668.086Zm0 0"/></g></g><g clip-path="url(#bp)"><g clip-path="url(#bq)"><path d="m75.785 40.04.086 3.67-1.91 3.134 3.672-.082 3.133 1.906L80.68 45l1.91-3.137-3.668.086Zm0 0"/></g></g><g clip-path="url(#br)"><g clip-path="url(#bs)"><path d="m84.414 35.059.082 3.668-1.906 3.136 3.668-.086 3.137 1.91-.086-3.671 1.91-3.133-3.672.086Zm0 0"/></g></g><g clip-path="url(#bt)"><g clip-path="url(#bu)"><path d="m93.043 30.078.082 3.668-1.906 3.137 3.668-.086 3.136 1.91-.085-3.672 1.91-3.133-3.672.082Zm0 0"/></g></g><g clip-path="url(#bv)"><g clip-path="url(#bw)"><path d="m101.668 25.098.086 3.668-1.906 3.136 3.668-.086 3.136 1.907-.086-3.668 1.907-3.137-3.668.086Zm0 0"/></g></g><g clip-path="url(#bx)"><g clip-path="url(#by)"><path d="m110.297 20.113.086 3.672-1.91 3.133 3.672-.082 3.132 1.906-.082-3.668 1.907-3.137-3.668.086Zm0 0"/></g></g><g clip-path="url(#bz)"><g clip-path="url(#bA)"><path d="m53.547 41.375.086 3.668-1.91 3.137 3.672-.086 3.132 1.91-.082-3.672 1.907-3.133-3.668.082Zm0 0"/></g></g><g clip-path="url(#bB)"><g clip-path="url(#bC)"><path d="m62.176 36.395.086 3.667-1.91 3.137 3.671-.086 3.133 1.907-.086-3.668 1.91-3.137-3.668.086Zm0 0"/></g></g><g clip-path="url(#bD)"><g clip-path="url(#bE)"><path d="m70.805 31.41.082 3.672-1.907 3.133 3.668-.082 3.137 1.906-.086-3.668 1.91-3.137-3.671.086Zm0 0"/></g></g><g clip-path="url(#bF)"><g clip-path="url(#bG)"><path d="m79.434 26.43.082 3.672-1.907 3.132 3.668-.082 3.137 1.907-.086-3.668 1.91-3.137-3.672.086Zm0 0"/></g></g><g clip-path="url(#bH)"><g clip-path="url(#bI)"><path d="m88.059 21.45.086 3.667-1.907 3.137 3.668-.086 3.137 1.91-.086-3.672 1.906-3.133-3.668.086Zm0 0"/></g></g><g clip-path="url(#bJ)"><g clip-path="url(#bK)"><path d="m96.688 16.469.085 3.668-1.91 3.136 3.672-.085 3.133 1.91-.082-3.672 1.906-3.133-3.668.082Zm0 0"/></g></g><g clip-path="url(#bL)"><g clip-path="url(#bM)"><path d="m105.316 11.488.086 3.668-1.91 3.137 3.668-.086 3.137 1.906-.086-3.668 1.91-3.136-3.668.086Zm0 0"/></g></g><g clip-path="url(#bN)"><g clip-path="url(#bO)"><path d="m113.945 6.504.082 3.672-1.906 3.133 3.668-.082 3.137 1.906-.086-3.668 1.91-3.137-3.672.086Zm0 0"/></g></g><g clip-path="url(#bP)"><g clip-path="url(#bQ)"><path d="m57.195 27.766.082 3.668-1.906 3.136 3.668-.086 3.137 1.91-.086-3.671L64 29.59l-3.672.082Zm0 0"/></g></g><g clip-path="url(#bR)"><g clip-path="url(#bS)"><path d="m65.82 22.785.086 3.668L64 29.59l3.668-.086 3.137 1.906-.086-3.668 1.91-3.137-3.672.086Zm0 0"/></g></g><g clip-path="url(#bT)"><g clip-path="url(#bU)"><path d="m74.45 17.8.085 3.673-1.906 3.132 3.668-.082 3.137 1.907-.086-3.668 1.906-3.137-3.668.086Zm0 0"/></g></g><g clip-path="url(#bV)"><g clip-path="url(#bW)"><path d="m83.078 12.82.086 3.672-1.91 3.133 3.672-.082 3.133 1.906-.082-3.668 1.906-3.136-3.668.085Zm0 0"/></g></g><g clip-path="url(#bX)"><g clip-path="url(#bY)"><path d="m91.707 7.84.086 3.668-1.91 3.137 3.668-.086 3.136 1.91-.085-3.672 1.91-3.133-3.672.082Zm0 0"/></g></g><g clip-path="url(#bZ)"><g clip-path="url(#ca)"><path d="m100.336 2.86.082 3.667-1.906 3.137 3.668-.086 3.136 1.91-.086-3.672 1.91-3.132-3.671.082Zm0 0"/></g></g><g clip-path="url(#cb)"><g clip-path="url(#cc)"><path d="m108.96-2.121.087 3.668-1.906 3.137 3.668-.086 3.136 1.906-.086-3.668 1.907-3.137-3.668.086Zm0 0"/></g></g><g clip-path="url(#cd)"><g clip-path="url(#ce)"><path d="m52.21 19.137.087 3.672-1.906 3.132 3.668-.086 3.136 1.91-.086-3.667 1.907-3.137-3.668.086Zm0 0"/></g></g><g clip-path="url(#cf)"><g clip-path="url(#cg)"><path d="m60.84 14.156.086 3.668-1.91 3.137 3.672-.086 3.132 1.91-.082-3.672 1.907-3.133-3.668.082Zm0 0"/></g></g><g clip-path="url(#ch)"><g clip-path="url(#ci)"><path d="m69.469 9.176.086 3.668-1.91 3.136 3.671-.085L74.45 17.8l-.082-3.668 1.906-3.137-3.668.086Zm0 0"/></g></g><g clip-path="url(#cj)"><g clip-path="url(#ck)"><path d="m78.098 4.191.086 3.672-1.91 3.133 3.667-.082 3.137 1.906-.086-3.668 1.91-3.136-3.672.086Zm0 0"/></g></g><g clip-path="url(#cl)"><g clip-path="url(#cm)"><path d="m86.727-.79.082 3.673-1.907 3.133 3.668-.086 3.137 1.91-.086-3.668 1.91-3.137-3.672.086Zm0 0"/></g></g><g clip-path="url(#cn)"><g clip-path="url(#co)"><path d="m95.352-5.77.085 3.668-1.906 3.137L97.2.95l3.137 1.91-.086-3.671 1.906-3.133-3.668.082Zm0 0"/></g></g><g clip-path="url(#cp)"><g clip-path="url(#cq)"><path d="m55.86 5.527.085 3.668-1.91 3.137 3.672-.086 3.133 1.91-.082-3.668 1.906-3.136-3.668.085Zm0 0"/></g></g><g clip-path="url(#cr)"><g clip-path="url(#cs)"><path d="m64.488.547.086 3.668-1.91 3.137 3.668-.086 3.137 1.91-.086-3.672 1.91-3.133-3.672.082Zm0 0"/></g></g><g clip-path="url(#ct)"><g clip-path="url(#cu)"><path d="M73.117-4.434 73.2-.766l-1.906 3.137 3.668-.086 3.137 1.906-.086-3.668 1.91-3.136-3.672.086Zm0 0"/></g></g><g clip-path="url(#cv)"><g clip-path="url(#cw)"><path d="M50.879-3.102 50.965.57l-1.91 3.133 3.668-.082 3.136 1.906-.086-3.668 1.91-3.136-3.671.086Zm0 0"/></g></g><path fill="none" stroke="#000" stroke-miterlimit="10" stroke-width=".399" d="M57.785 57.785V1.094h56.695v56.691Zm0 0"/></svg>