<svg xmlns="http://www.w3.org/2000/svg" width="87.058" height="7.202"><defs><clipPath id="a"><path d="M0 0h86.586v6.805H0Zm0 0"/></clipPath></defs><g clip-path="url(#a)"><path fill="none" stroke="#000" stroke-miterlimit="10" stroke-width=".399" d="M.54 3.207c.706 0 1.062-1.133 1.769-1.133.515 0 .957.551 1.418 1.133S4.633 4.34 5.145 4.34s.953-.55 1.418-1.133c.46-.582.902-1.133 1.417-1.133.512 0 .954.551 1.415 1.133.464.582.906 1.133 1.418 1.133.515 0 .957-.55 1.417-1.133.461-.582.907-1.133 1.418-1.133.512 0 .957.551 1.418 1.133s.903 1.133 1.418 1.133c.512 0 .953-.55 1.414-1.133.465-.582.907-1.133 1.418-1.133.516 0 .957.551 1.418 1.133s.907 1.133 1.418 1.133c.512 0 .957-.55 1.418-1.133.461-.582.903-1.133 1.418-1.133.512 0 .953.551 1.414 1.133.465.582.907 1.133 1.418 1.133.516 0 .957-.55 1.418-1.133.461-.582.907-1.133 1.418-1.133.512 0 .957.551 1.418 1.133s.903 1.133 1.418 1.133c.512 0 .953-.55 1.414-1.133.465-.582.907-1.133 1.418-1.133.516 0 .957.551 1.418 1.133s.906 1.133 1.418 1.133.957-.55 1.418-1.133c.461-.582.902-1.133 1.418-1.133.512 0 .953.551 1.418 1.133.461.582.902 1.133 1.414 1.133.516 0 .957-.55 1.418-1.133.461-.582.906-1.133 1.418-1.133s.957.551 1.418 1.133.902 1.133 1.418 1.133c.512 0 .953-.55 1.418-1.133.46-.582.902-1.133 1.414-1.133.516 0 .957.551 1.418 1.133s.906 1.133 1.418 1.133.957-.55 1.418-1.133c.46-.582.902-1.133 1.418-1.133.512 0 .953.551 1.418 1.133.46.582.902 1.133 1.414 1.133.516 0 .957-.55 1.418-1.133.46-.582.906-1.133 1.418-1.133s.957.551 1.418 1.133.902 1.133 1.418 1.133c.512 0 .953-.55 1.418-1.133.46-.582.902-1.133 1.414-1.133.515 0 .957.551 1.418 1.133s.906 1.133 1.418 1.133.957-.55 1.418-1.133c.46-.582.902-1.133 1.418-1.133.511 0 .953.551 1.418 1.133.46.582.902 1.133 1.414 1.133.71 0 1.066-1.133 1.773-1.133h4.563"/></g><path fill="none" stroke="#000" stroke-linecap="round" stroke-linejoin="round" stroke-miterlimit="10" stroke-width=".399" d="M83.309.816c.375 1.434 1.218 2.114 2.07 2.391-.852.277-1.695.957-2.07 2.39"/></svg>