<svg xmlns="http://www.w3.org/2000/svg" xmlns:xlink="http://www.w3.org/1999/xlink" width="57.872" height="33.32"><defs><path id="a" d="M1.031 21.703c.328-.015.5-.234.5-.484a.48.48 0 0 0-.484-.5.47.47 0 0 0-.484.5c0 .515.5.937 1.109.937 1.516 0 2.078-2.343 2.781-5.234A130 130 0 0 0 6.406 7.39C6.781 5.28 7.141 3.28 7.484 2c.125-.5.454-1.781.844-1.781a.98.98 0 0 1 .61.234c-.329.016-.5.235-.5.485 0 .328.25.484.468.484.25 0 .5-.14.5-.5C9.406.39 8.86 0 8.312 0 7.563 0 7 1.094 6.454 3.125c-.031.11-1.39 5.11-2.484 11.625-.266 1.531-.547 3.188-.875 4.578-.188.735-.64 2.61-1.453 2.61-.36 0-.594-.235-.61-.235m0 0"/><path id="f" d="M7.547 29.39c0-.015 0-.046-.063-.109a15.7 15.7 0 0 1-2.343-3.828c-1.297-3.047-1.828-6.61-1.828-10.906 0-4.235.5-7.969 1.968-11.234C5.86 2.047 6.625.874 7.5-.203q.047-.047.047-.094c0-.11-.063-.11-.219-.11s-.172 0-.187.032c-.016 0-.625.61-1.407 1.703C4 3.781 3.125 6.703 2.672 9.672c-.235 1.61-.313 3.25-.313 4.875 0 3.719.47 7.531 2.063 10.937.703 1.516 1.656 2.891 2.64 3.922.079.078.094.094.266.094.156 0 .219 0 .219-.11m0 0"/><path id="g" d="M3.531 25.125c0 .813 0 1-.078 1.375-.187.797-.656 1.766-1.922 2.531-.078.047-.093.063-.093.235 0 .234.015.234.234.234.172 0 .187 0 .469-.156C4.359 28.078 4.5 26.219 4.5 25.875v-7.094c0-.718 0-1.531.516-2.437a4.2 4.2 0 0 1 1.422-1.516c.14-.094.156-.11.156-.281 0-.125 0-.188-.047-.219-.469-.297-1.766-1.125-2.016-3.078-.031-.219-.031-.25-.031-.36V3.235c0-.812-.5-2.484-2.422-3.5-.234-.14-.25-.14-.406-.14-.219 0-.234 0-.234.234 0 .156 0 .188.062.235 1.906 1.125 2.031 2.78 2.031 3.171v7.657c0 1.093.75 2.78 2.485 3.656-1.078.578-2.36 1.734-2.485 3.61Zm0 0"/><path id="b" d="M2.328-4.437c0-.188 0-.188-.203-.188-.453.438-1.078.438-1.36.438v.25c.157 0 .626 0 1-.188v3.547c0 .234 0 .328-.687.328H.812V0c.125 0 .985-.031 1.235-.031.219 0 1.094.031 1.25.031v-.25H3.03c-.703 0-.703-.094-.703-.328Zm0 0"/><path id="c" d="M3.594-2.219c0-.765-.094-1.328-.406-1.812-.22-.313-.657-.594-1.204-.594C.36-4.625.36-2.719.36-2.219s0 2.36 1.625 2.36c1.61 0 1.61-1.86 1.61-2.36M1.984-.062c-.328 0-.75-.188-.89-.75C1-1.22 1-1.797 1-2.312c0-.516 0-1.047.094-1.422.156-.547.593-.703.89-.703.375 0 .735.234.86.64.11.375.125.875.125 1.485 0 .515 0 1.03-.094 1.468-.14.64-.61.782-.89.782m0 0"/><path id="d" d="M3.328-3.016c.063-.25.297-1.171.985-1.171.046 0 .296 0 .5.125a.58.58 0 0 0-.47.546c0 .157.11.344.376.344a.546.546 0 0 0 .531-.578c0-.516-.578-.656-.922-.656-.578 0-.922.531-1.047.75-.25-.656-.781-.75-1.078-.75-1.031 0-1.61 1.281-1.61 1.531 0 .11.11.11.126.11.078 0 .11-.032.125-.11.344-1.062 1-1.312 1.344-1.312.187 0 .53.093.53.671 0 .313-.171.97-.53 2.375-.157.61-.516 1.032-.954 1.032-.062 0-.28 0-.5-.125.25-.063.47-.266.47-.547 0-.266-.22-.344-.36-.344-.313 0-.547.25-.547.578 0 .453.484.656.922.656.672 0 1.031-.703 1.047-.75.125.36.484.75 1.078.75 1.031 0 1.594-1.28 1.594-1.53 0-.11-.079-.11-.11-.11-.094 0-.11.047-.14.11-.329 1.077-1 1.312-1.313 1.312-.39 0-.547-.313-.547-.657 0-.218.047-.437.156-.875Zm0 0"/><path id="e" d="M5.14-6.812s0-.11-.124-.11c-.157 0-1.094.094-1.266.11-.078.015-.14.062-.14.187s.093.125.234.125c.484 0 .5.063.5.172l-.032.203-.593 2.36c-.188-.376-.469-.641-.922-.641-1.156 0-2.39 1.468-2.39 2.922C.406-.547.952.109 1.718.109c.203 0 .703-.046 1.297-.75a.91.91 0 0 0 .906.75c.36 0 .578-.234.75-.546a6.5 6.5 0 0 0 .297-.985c0-.11-.094-.11-.125-.11-.094 0-.11.048-.14.188-.173.64-.345 1.235-.75 1.235-.282 0-.298-.266-.298-.453 0-.25.016-.313.047-.485ZM3.079-1.187c-.062.187-.062.203-.203.375-.437.546-.844.703-1.125.703-.5 0-.64-.547-.64-.938 0-.5.312-1.719.546-2.187.313-.578.75-.953 1.157-.953.64 0 .78.812.78.875a.6.6 0 0 1-.03.171Zm0 0"/></defs><path fill="#FCC" d="M7.86 31.973h40.968V.66H7.86Zm0 0"/><use xlink:href="#a" x="11.18" y="6.013"/><use xlink:href="#b" x="21.143" y="8.476"/><use xlink:href="#c" x="16.715" y="28.651"/><use xlink:href="#d" x="27.273" y="19.573"/><use xlink:href="#e" x="34.62" y="19.573"/><use xlink:href="#d" x="39.806" y="19.573"/><use xlink:href="#f" x="-1.422" y="1.771"/><use xlink:href="#g" x="50.222" y="1.771"/></svg>