<svg xmlns="http://www.w3.org/2000/svg" xmlns:xlink="http://www.w3.org/1999/xlink" width="94.945" height="69.716"><defs><path id="a" d="M4.14-1.39c0-.438-.202-.782-.546-1.063-.39-.281-.719-.344-1.485-.485-.375-.062-1.015-.171-1.015-.64 0-.625.922-.625 1.11-.625.75 0 1.124.297 1.171.844.016.156.031.203.234.203.235 0 .235-.047.235-.281v-.797c0-.188 0-.282-.172-.282-.047 0-.063 0-.453.188-.266-.125-.61-.188-1-.188-.313 0-1.844 0-1.844 1.313 0 .39.203.656.406.828.39.344.782.406 1.547.547.36.062 1.094.187 1.094.781 0 .75-.906.75-1.125.75C1.234-.297.984-1.03.859-1.453c-.046-.14-.109-.14-.234-.14-.25 0-.25.062-.25.28v1.094c0 .188 0 .282.188.282.062 0 .078 0 .296-.157l.25-.172c.47.329.985.329 1.188.329.312 0 1.844 0 1.844-1.454m0 0"/><path id="b" d="M4.922-1.172c0-.172-.188-.172-.234-.172-.172 0-.188.047-.25.203-.204.485-.782.797-1.422.797-1.407 0-1.422-1.328-1.422-1.828h3.015c.22 0 .313 0 .313-.265 0-.313-.063-1.047-.563-1.547-.359-.36-.89-.532-1.578-.532C1.187-4.516.313-3.484.313-2.25c0 1.344 1 2.313 2.609 2.313 1.578 0 2-1.063 2-1.235M3.984-2.5h-2.39c.015-.39.031-.812.234-1.14.266-.391.672-.516.953-.516 1.172 0 1.188 1.312 1.203 1.656m0 0"/><path id="c" d="M4.766-1.172c0-.14-.141-.14-.235-.14-.187 0-.187.03-.25.156-.25.625-.734.812-1.234.812-1.39 0-1.39-1.453-1.39-1.922 0-.562 0-1.843 1.28-1.843.36 0 .516.015.657.046a.62.62 0 0 0-.203.47c0 .437.343.624.609.624.313 0 .64-.219.64-.625 0-.86-1.156-.922-1.734-.922C1.11-4.516.375-3.375.375-2.219.375-.89 1.313.063 2.844.063c1.625 0 1.922-1.157 1.922-1.235m0 0"/><path id="d" d="M5.406-2.172c0-1.344-.922-2.344-2.547-2.344C1.22-4.516.313-3.5.313-2.172c0 1.235.89 2.235 2.546 2.235 1.672 0 2.547-1.016 2.547-2.235m-1.281-.11c0 .86 0 1.938-1.266 1.938-1.265 0-1.265-1.078-1.265-1.937 0-.453 0-.953.172-1.297.187-.375.609-.578 1.093-.578.422 0 .844.156 1.063.5.203.344.203.89.203 1.375m0 0"/><path id="e" d="M6.125 0v-.469h-.687v-2.578c0-1.047-.532-1.437-1.532-1.437-.953 0-1.484.562-1.75 1.078v-1.078l-1.703.078v.468c.61 0 .688 0 .688.391v3.078H.453V0l1.25-.031L2.953 0v-.469h-.687v-2.078c0-1.094.859-1.578 1.5-1.578.328 0 .547.203.547.969V-.47h-.688V0l1.25-.031Zm0 0"/><path id="f" d="M5.984 0v-.469c-.609 0-.687 0-.687-.39v-6.063l-1.766.078v.469c.625 0 .703 0 .703.39v1.954a2.18 2.18 0 0 0-1.359-.453c-1.453 0-2.5.875-2.5 2.28 0 1.313.922 2.267 2.39 2.267.61 0 1.094-.235 1.407-.485v.485ZM4.172-1.031c-.14.187-.547.734-1.297.734-1.219 0-1.219-1.203-1.219-1.906 0-.485 0-1.016.25-1.406.297-.422.766-.516 1.078-.516.563 0 .97.313 1.188.61Zm0 0"/><path id="g" d="M5.984 0v-.469h-.687V-4.53l-1.75.062-.016.047H2.078v-.984c0-.828.672-1.219 1.594-1.219.281 0 .5.063.719.188-.157.062-.438.234-.438.625 0 .39.297.656.656.656s.657-.25.657-.672c0-.516-.438-1.156-1.532-1.156-1.234 0-2.671.39-2.671 1.562v1h-.75v.469h.75V-.47H.375V0l1.219-.031L2.828 0v-.469h-.687v-3.484h1.78c.25 0 .313 0 .313.344v3.14h-.703V0l1.235-.031Zm0 0"/><path id="h" d="M4.406-3.672c0-.531-.531-.812-1.062-.812-.688 0-1.094.5-1.313 1.125v-1.125l-1.656.078v.468c.61 0 .688 0 .688.391v3.078H.375V0l1.25-.031C2-.031 2.641-.031 3 0v-.469h-.86v-1.75c0-.687.235-1.906 1.235-1.906 0 0-.187.172-.187.453 0 .406.328.61.609.61.297 0 .61-.204.61-.61m0 0"/><path id="i" d="M3.813-1.234v-.532h-.47v.516c0 .672-.327.906-.609.906-.578 0-.578-.64-.578-.86v-2.75h1.469v-.468H2.156v-1.906h-.469c0 1-.484 1.984-1.484 2.016v.359h.828v2.734c0 1.063.86 1.282 1.578 1.282.75 0 1.204-.579 1.204-1.297m0 0"/><path id="j" d="M6.125 0v-.469h-.687v-2.578c0-1.047-.532-1.437-1.532-1.437a1.9 1.9 0 0 0-1.687.953v-3.39l-1.766.077v.469c.61 0 .688 0 .688.39v5.516H.453V0l1.25-.031L2.953 0v-.469h-.687v-2.078c0-1.094.859-1.578 1.5-1.578.328 0 .547.203.547.969V-.47h-.688V0l1.25-.031Zm0 0"/><path id="k" d="M2.844 0v-.469h-.61v-4.015L.5-4.406v.468c.594 0 .656 0 .656.391v3.078H.47V0l1.219-.031Zm-.469-6.047a.774.774 0 0 0-.781-.781.784.784 0 0 0-.782.781c0 .422.36.766.782.766a.77.77 0 0 0 .781-.766m0 0"/></defs><path fill="none" stroke="#000" stroke-miterlimit="10" stroke-width=".399" d="M25.906 43.516H93.72V29.902H25.906Zm0 0"/><use xlink:href="#a" x="29.227" y="40.136"/><use xlink:href="#b" x="33.75" y="40.136"/><use xlink:href="#c" x="39" y="40.136"/><use xlink:href="#d" x="44.091" y="40.136"/><use xlink:href="#e" x="49.819" y="40.136"/><use xlink:href="#f" x="56.185" y="40.136"/><use xlink:href="#e" x="66.367" y="40.136"/><use xlink:href="#d" x="72.733" y="40.136"/><use xlink:href="#f" x="78.781" y="40.136"/><use xlink:href="#b" x="85.147" y="40.136"/><path fill="#D2C92A" d="M31.465 65.055 59.813 36.71 31.465 8.363"/><use xlink:href="#g" x="7.51" y="68.513"/><use xlink:href="#h" x="13.876" y="68.513"/><use xlink:href="#a" x="18.598" y="68.513"/><use xlink:href="#i" x="23.121" y="68.513"/><use xlink:href="#e" x="31.39" y="68.513"/><use xlink:href="#d" x="37.756" y="68.513"/><use xlink:href="#f" x="43.803" y="68.513"/><use xlink:href="#b" x="50.17" y="68.513"/><path fill="#FCC" stroke="#000" stroke-miterlimit="10" stroke-width="1.395" d="M57.266 1.555H5.664A3.986 3.986 0 0 0 1.68 5.539v5.645a3.984 3.984 0 0 0 3.984 3.984h51.602a3.984 3.984 0 0 0 3.988-3.984V5.539c0-2.2-1.785-3.984-3.988-3.984Zm0 0"/><path fill="none" stroke="#FFF" stroke-miterlimit="10" stroke-width=".598" d="M57.266 1.555H5.664A3.986 3.986 0 0 0 1.68 5.539v5.645a3.984 3.984 0 0 0 3.984 3.984h51.602a3.984 3.984 0 0 0 3.988-3.984V5.539c0-2.2-1.785-3.984-3.988-3.984Zm0 0"/><use xlink:href="#i" x="5" y="11.79"/><use xlink:href="#j" x="9.453" y="11.79"/><use xlink:href="#k" x="15.819" y="11.79"/><use xlink:href="#h" x="18.997" y="11.79"/><use xlink:href="#f" x="23.719" y="11.79"/><use xlink:href="#e" x="33.901" y="11.79"/><use xlink:href="#d" x="40.267" y="11.79"/><use xlink:href="#f" x="46.315" y="11.79"/><use xlink:href="#b" x="52.681" y="11.79"/></svg>