<svg xmlns="http://www.w3.org/2000/svg" width="57.404" height="52.976"><defs><clipPath id="a"><path d="M0 43h13v9.965H0Zm0 0"/></clipPath><clipPath id="b"><path d="M5 42h15v10.965H5Zm0 0"/></clipPath><clipPath id="c"><path d="M12 40h15v12.965H12Zm0 0"/></clipPath><clipPath id="d"><path d="M19 39h15v13.965H19Zm0 0"/></clipPath><clipPath id="e"><path d="M26 38h15v14.965H26Zm0 0"/></clipPath><clipPath id="f"><path d="M47 34h10.105v15H47Zm0 0"/></clipPath><clipPath id="g"><path d="M0 38h10v14.965H0Zm0 0"/></clipPath></defs><g clip-path="url(#a)"><path fill="none" stroke="#000" stroke-miterlimit="10" stroke-width=".399" d="M4.281 51.816 7.101 49m-2.82 0 2.82 2.816"/></g><g clip-path="url(#b)"><path fill="none" stroke="#000" stroke-miterlimit="10" stroke-width=".399" d="m11.262 50.586 2.816-2.816m-2.816 0 2.816 2.816"/></g><g clip-path="url(#c)"><path fill="none" stroke="#000" stroke-miterlimit="10" stroke-width=".399" d="m18.242 49.355 2.817-2.816m-2.817 0 2.817 2.816"/></g><g clip-path="url(#d)"><path fill="none" stroke="#000" stroke-miterlimit="10" stroke-width=".399" d="m25.219 48.125 2.82-2.816m-2.82 0 2.82 2.816"/></g><g clip-path="url(#e)"><path fill="none" stroke="#000" stroke-miterlimit="10" stroke-width=".399" d="m32.2 46.895 2.816-2.817m-2.817 0 2.817 2.817"/></g><path fill="none" stroke="#000" stroke-miterlimit="10" stroke-width=".399" d="m39.176 45.664 2.82-2.82m-2.82 0 2.82 2.82M46.156 44.434l2.817-2.82m-2.817 0 2.817 2.82"/><g clip-path="url(#f)"><path fill="none" stroke="#000" stroke-miterlimit="10" stroke-width=".399" d="m53.137 43.203 2.816-2.82m-2.816 0 2.816 2.82"/></g><g clip-path="url(#g)"><path fill="none" stroke="#000" stroke-miterlimit="10" stroke-width=".399" d="m.848 46.91 2.816-2.816m-2.816 0 2.816 2.816"/></g><path fill="none" stroke="#000" stroke-miterlimit="10" stroke-width=".399" d="m4.39 40.773 2.817-2.82m-2.816 0 2.816 2.82M7.934 34.637l2.816-2.82m-2.816 0 2.816 2.82M11.477 28.496l2.816-2.816m-2.816 0 2.816 2.816M15.02 22.36l2.816-2.817m-2.816 0 2.816 2.816M18.563 16.223l2.82-2.817m-2.82 0 2.82 2.817M22.105 10.086l2.82-2.816m-2.82 0 2.82 2.816M25.648 3.95l2.82-2.817m-2.82 0 2.82 2.816"/></svg>