<svg xmlns="http://www.w3.org/2000/svg" xmlns:xlink="http://www.w3.org/1999/xlink" width="213.23" height="143.174"><defs><path id="a" d="M5.14-6.812s0-.11-.124-.11c-.157 0-1.094.094-1.266.11-.078.015-.14.062-.14.187s.093.125.234.125c.484 0 .5.063.5.172l-.032.203-.593 2.36c-.188-.376-.469-.641-.922-.641-1.156 0-2.39 1.468-2.39 2.922C.406-.547.952.109 1.718.109c.203 0 .703-.046 1.297-.75a.91.91 0 0 0 .906.75c.36 0 .578-.234.75-.546a6.5 6.5 0 0 0 .297-.985c0-.11-.094-.11-.125-.11-.094 0-.11.048-.14.188-.173.64-.345 1.235-.75 1.235-.282 0-.298-.266-.298-.453 0-.25.016-.313.047-.485ZM3.079-1.187c-.062.187-.062.203-.203.375-.437.546-.844.703-1.125.703-.5 0-.64-.547-.64-.938 0-.5.312-1.719.546-2.187.313-.578.75-.953 1.157-.953.64 0 .78.812.78.875a.6.6 0 0 1-.03.171Zm0 0"/><path id="b" d="M1.86-2.297c.296 0 1.03-.031 1.53-.234.704-.297.75-.89.75-1.031 0-.438-.374-.844-1.062-.844-1.11 0-2.625.968-2.625 2.718C.453-.671 1.047.11 2.031.11c1.422 0 2.25-1.062 2.25-1.171 0-.063-.047-.141-.11-.141-.062 0-.077.031-.14.11-.781.984-1.875.984-1.984.984-.781 0-.875-.844-.875-1.157 0-.125.016-.421.156-1.03Zm-.47-.219c.391-1.515 1.423-1.671 1.688-1.671.453 0 .735.296.735.625 0 1.046-1.594 1.046-2.016 1.046Zm0 0"/><path id="c" d="M2.375-6.812s0-.11-.125-.11c-.219 0-.953.078-1.219.11-.078 0-.187.015-.187.187 0 .125.094.125.25.125.468 0 .484.063.484.172 0 .062-.078.406-.125.61l-.828 3.25c-.11.5-.156.671-.156 1.015C.469-.516 1 .109 1.734.109c1.172 0 2.407-1.484 2.407-2.921 0-.907-.532-1.594-1.328-1.594-.454 0-.876.297-1.172.593Zm-.922 3.765c.047-.219.047-.234.14-.344.485-.64.938-.796 1.204-.796.36 0 .625.296.625.937 0 .594-.328 1.734-.516 2.11-.328.671-.781 1.03-1.172 1.03-.343 0-.671-.265-.671-1 0-.202 0-.39.156-1.015Zm0 0"/><path id="d" d="M3.719-3.766c-.188-.375-.469-.64-.922-.64-1.156 0-2.39 1.468-2.39 2.922C.406-.547.952.109 1.718.109c.203 0 .703-.046 1.297-.75a.91.91 0 0 0 .906.75c.36 0 .578-.234.75-.546a6.5 6.5 0 0 0 .297-.985c0-.11-.094-.11-.125-.11-.094 0-.11.048-.14.188-.173.64-.345 1.235-.75 1.235-.282 0-.298-.266-.298-.453 0-.22.016-.313.125-.75.11-.407.125-.516.219-.891l.36-1.39c.062-.282.062-.298.062-.344 0-.172-.11-.266-.281-.266-.25 0-.391.219-.422.437m-.64 2.579c-.063.187-.063.203-.204.375-.437.546-.844.703-1.125.703-.5 0-.64-.547-.64-.938 0-.5.312-1.719.546-2.187.313-.578.75-.953 1.157-.953.64 0 .78.812.78.875a.6.6 0 0 1-.03.171Zm0 0"/><path id="e" d="M3.953-3.781c-.172 0-.297 0-.437.125a.53.53 0 0 0-.188.39c0 .25.188.36.375.36.281 0 .547-.25.547-.64 0-.485-.469-.86-1.172-.86-1.344 0-2.672 1.422-2.672 2.828C.406-.672.984.109 2.031.109c1.422 0 2.25-1.062 2.25-1.171 0-.063-.047-.141-.11-.141-.062 0-.077.031-.14.11-.781.984-1.875.984-1.984.984-.625 0-.906-.485-.906-1.094 0-.406.203-1.375.547-1.984.312-.579.859-1 1.406-1 .328 0 .719.125.86.406m0 0"/><path id="f" d="M3.656-3.984h.86c.203 0 .297 0 .297-.203 0-.11-.094-.11-.266-.11h-.828l.203-1.14c.047-.204.187-.907.25-1.032.078-.187.25-.343.469-.343.03 0 .297 0 .484.187a.557.557 0 0 0-.547.531c0 .235.188.36.375.36.266 0 .547-.235.547-.61 0-.453-.453-.687-.86-.687-.343 0-.968.187-1.265 1.172-.062.203-.094.312-.328 1.562h-.688c-.203 0-.312 0-.312.188 0 .125.094.125.281.125h.656L2.25-.047c-.187.969-.36 1.875-.875 1.875-.047 0-.281 0-.484-.187.468-.032.562-.391.562-.532 0-.234-.187-.359-.375-.359-.266 0-.547.234-.547.61 0 .437.438.687.844.687.547 0 .953-.594 1.125-.969.328-.625.547-1.828.563-1.906Zm0 0"/><path id="g" d="M.328 1.719c-.031.125-.031.14-.031.172 0 .14.11.265.281.265.203 0 .328-.187.344-.219.062-.078.375-1.421.64-2.5.204.407.516.672.985.672C3.719.11 5-1.297 5-2.78c0-1.063-.656-1.625-1.375-1.625-.969 0-2.016 1-2.312 2.218ZM2.547-.11c-.703 0-.86-.797-.86-.891 0-.031.047-.234.079-.36.28-1.124.375-1.484.593-1.874.438-.735.938-.953 1.235-.953.375 0 .687.296.687.984 0 .547-.281 1.656-.547 2.14-.328.641-.812.954-1.187.954m0 0"/><path id="i" d="M3.016-3.234h.968c.75 0 .829.156.829.437 0 .078 0 .188-.063.5-.031.047-.031.078-.031.11 0 .078.062.109.11.109.109 0 .109-.031.155-.203l.547-2.172c.032-.11.032-.125.032-.156a.117.117 0 0 0-.125-.11c-.094 0-.11.047-.141.219-.219.766-.438.953-1.297.953h-.906l.64-2.531c.094-.36.11-.39.547-.39h1.313c1.218 0 1.453.327 1.453 1.093 0 .234 0 .266-.031.547C7-4.703 7-4.688 7-4.656c0 .047.031.125.125.125.11 0 .11-.063.125-.25l.203-1.735c.031-.265-.016-.265-.266-.265h-4.89c-.188 0-.297 0-.297.203 0 .11.094.11.281.11.375 0 .656 0 .656.171 0 .047 0 .063-.062.25L1.563-.78c-.094.39-.11.469-.907.469-.172 0-.281 0-.281.187C.375 0 .5 0 .531 0c.282 0 1.031-.031 1.313-.031C2.172-.031 3 0 3.328 0c.094 0 .203 0 .203-.187 0-.079-.047-.11-.047-.11-.03-.016-.062-.016-.28-.016-.22 0-.267 0-.517-.015-.296-.031-.328-.078-.328-.203 0-.016 0-.078.047-.219Zm0 0"/><path id="j" d="M2.469-5.219C1.156-4.297.797-2.812.797-1.75c0 .984.297 2.516 1.672 3.484.062 0 .14 0 .14-.078 0-.047-.015-.062-.062-.11C1.609.704 1.28-.468 1.28-1.733c0-1.891.719-2.813 1.282-3.328.03-.032.046-.047.046-.079 0-.078-.078-.078-.14-.078m0 0"/><path id="n" d="M.625-5.219c-.047 0-.125 0-.125.078 0 .032.016.047.063.11.593.547 1.265 1.484 1.265 3.281 0 1.453-.453 2.563-1.203 3.234C.5 1.61.5 1.61.5 1.656c0 .032.016.078.078.078.094 0 .75-.453 1.219-1.328.297-.578.5-1.328.5-2.14C2.297-2.72 2-4.25.625-5.22m0 0"/><path id="k" d="M1.844-4.625c0-.016.031-.11.031-.11 0-.046-.031-.109-.125-.109-.14 0-.719.063-.89.078-.047 0-.157.016-.157.157 0 .093.11.093.188.093.328 0 .328.063.328.11s-.063.328-.11.484l-.156.64C.891-3.031.516-1.515.5-1.421c-.047.172-.047.266-.047.344 0 .703.453 1.14 1.031 1.14.875 0 1.797-.937 1.797-1.968 0-.813-.562-1.172-1.047-1.172-.359 0-.671.203-.875.39Zm-.36 4.5c-.328 0-.53-.297-.53-.719 0-.25.062-.484.265-1.281.031-.125.031-.14.172-.297.265-.297.578-.453.828-.453.265 0 .5.203.5.672 0 .281-.14 1-.36 1.406-.171.344-.515.672-.875.672m0 0"/><path id="l" d="M1.469-.11c0 .376-.063.829-.547 1.266-.016.032-.047.063-.047.094 0 .047.063.094.094.094.11 0 .703-.563.703-1.39 0-.423-.172-.75-.5-.75a.387.387 0 0 0-.39.39c0 .219.155.406.406.406.171 0 .28-.11.28-.11m0 0"/><path id="m" d="M2.875-4.266c.047-.203.063-.218.219-.25h.453c.64 0 1.437 0 1.437.72 0 .296-.125.733-.453.983-.281.22-.718.329-1.203.329h-.89Zm1.266 1.891c.828-.187 1.562-.687 1.562-1.312 0-.594-.703-1.079-1.719-1.079h-2.14c-.125 0-.219 0-.219.157 0 .093.078.093.219.093.015 0 .14 0 .265.016.157.016.157.031.157.11 0 0 0 .046-.016.14L1.313-.547c-.047.235-.063.297-.61.297C.578-.25.5-.25.5-.11.5-.03.547 0 .61 0c.124 0 .296-.016.421-.016.14 0 .344-.015.469-.015.14 0 .297.015.438.015.156 0 .328.016.468.016.047 0 .156 0 .156-.14 0-.11-.078-.11-.234-.11-.11 0-.14 0-.265-.016-.157-.015-.157-.03-.157-.109 0 0 0-.047.032-.14l.437-1.766h.953c.594 0 .86.297.86.625 0 .093-.063.328-.11.484-.078.328-.11.422-.11.547 0 .547.516.766 1.032.766.64 0 .922-.688.922-.813 0-.015-.016-.094-.125-.094-.094 0-.11.047-.125.125-.094.297-.36.579-.64.579-.188 0-.329-.063-.329-.454 0-.171.047-.53.078-.718.032-.188.032-.25.032-.328s0-.313-.204-.516c-.125-.14-.312-.235-.468-.297m0 0"/><path id="o" d="M3.047-2.672c-.25.047-.344.235-.344.39 0 .188.14.266.266.266.156 0 .39-.109.39-.453 0-.469-.53-.61-.906-.61-1.047 0-2.015.97-2.015 1.938 0 .594.406 1.204 1.28 1.204 1.188 0 1.735-.688 1.735-.782 0-.047-.062-.125-.125-.125-.031 0-.047.016-.11.078-.546.641-1.359.641-1.484.641-.5 0-.718-.344-.718-.781 0-.188.093-.953.453-1.438.265-.344.625-.531.984-.531.094 0 .422.016.594.203m0 0"/><clipPath id="h"><path d="M7 47h113v95.762H7Zm0 0"/></clipPath></defs><path stroke="#000" stroke-miterlimit="10" stroke-width=".399" d="M121.605 5.484c0-2.593-2.101-4.699-4.695-4.699a4.698 4.698 0 0 0 0 9.395 4.695 4.695 0 0 0 4.695-4.696Zm0 0"/><path fill="none" stroke="#000" stroke-miterlimit="10" stroke-width=".399" d="M121.605 26.742a4.695 4.695 0 0 0-4.695-4.695 4.695 4.695 0 0 0-4.695 4.695 4.695 4.695 0 0 0 4.695 4.695 4.695 4.695 0 0 0 4.695-4.695ZM116.91 10.379v11.469M100.348 48.004a4.698 4.698 0 0 0-9.395 0 4.698 4.698 0 0 0 9.395 0ZM113.45 30.203l-14.337 14.34"/><path stroke="#000" stroke-miterlimit="10" stroke-width=".399" d="M79.086 69.262a4.695 4.695 0 0 0-4.695-4.696 4.698 4.698 0 0 0 0 9.395 4.7 4.7 0 0 0 4.695-4.7Zm0 0"/><path fill="none" stroke="#000" stroke-miterlimit="10" stroke-width=".399" d="M92.188 51.465 77.852 65.8"/><path stroke="#000" stroke-miterlimit="10" stroke-width=".399" d="M57.828 90.523a4.698 4.698 0 0 0-9.394 0 4.698 4.698 0 0 0 9.395 0Zm0 0"/><path fill="none" stroke="#000" stroke-miterlimit="10" stroke-width=".399" d="M70.93 72.727 56.594 87.062"/><path stroke="#000" stroke-miterlimit="10" stroke-width=".399" d="M36.566 111.785c0-2.594-2.101-4.7-4.695-4.7a4.698 4.698 0 0 0 0 9.395 4.695 4.695 0 0 0 4.695-4.695Zm0 0"/><use xlink:href="#a" x="29.279" y="127.115"/><path fill="none" stroke="#000" stroke-miterlimit="10" stroke-width=".399" d="M49.668 93.984 35.332 108.32"/><path stroke="#000" stroke-miterlimit="10" stroke-width=".399" d="M79.086 111.785c0-2.594-2.102-4.7-4.695-4.7a4.698 4.698 0 0 0 0 9.395 4.695 4.695 0 0 0 4.695-4.695Zm0 0"/><use xlink:href="#b" x="72.072" y="124.486"/><path fill="none" stroke="#000" stroke-miterlimit="10" stroke-width=".399" d="M56.594 93.984 70.93 108.32"/><path stroke="#000" stroke-miterlimit="10" stroke-width=".399" d="M100.348 90.523a4.698 4.698 0 0 0-9.395 0 4.698 4.698 0 0 0 9.395 0Zm0 0"/><use xlink:href="#c" x="93.513" y="105.856"/><path fill="none" stroke="#000" stroke-miterlimit="10" stroke-width=".399" d="m77.852 72.727 14.335 14.335"/><path stroke="#000" stroke-miterlimit="10" stroke-width=".399" d="M121.605 69.262a4.695 4.695 0 0 0-4.695-4.696 4.698 4.698 0 0 0 0 9.395 4.7 4.7 0 0 0 4.695-4.7Zm0 0"/><use xlink:href="#d" x="114.278" y="81.967"/><path fill="none" stroke="#000" stroke-miterlimit="10" stroke-width=".399" d="M99.113 51.465 113.45 65.8M120.371 30.203l17.8 17.8"/><path stroke="#000" stroke-miterlimit="10" stroke-width=".399" d="M164.129 69.262a4.698 4.698 0 1 0-9.396.005 4.698 4.698 0 0 0 9.396-.005Zm0 0"/><path fill="none" stroke="#000" stroke-miterlimit="10" stroke-width=".399" d="M138.172 48.004 155.969 65.8"/><path stroke="#000" stroke-miterlimit="10" stroke-width=".399" d="M142.867 90.523a4.695 4.695 0 0 0-4.695-4.695 4.695 4.695 0 0 0-4.695 4.695 4.695 4.695 0 0 0 4.695 4.696 4.695 4.695 0 0 0 4.695-4.696Zm0 0"/><use xlink:href="#e" x="136.015" y="103.227"/><path fill="none" stroke="#000" stroke-miterlimit="10" stroke-width=".399" d="m155.969 72.727-14.336 14.335"/><path stroke="#000" stroke-miterlimit="10" stroke-width=".399" d="M185.387 90.523a4.695 4.695 0 0 0-4.696-4.695 4.695 4.695 0 0 0-4.695 4.695 4.695 4.695 0 0 0 4.695 4.696 4.695 4.695 0 0 0 4.696-4.696Zm0 0"/><use xlink:href="#f" x="177.715" y="105.856"/><path fill="none" stroke="#000" stroke-miterlimit="10" stroke-width=".399" d="m162.895 72.727 14.335 14.335"/><use xlink:href="#g" x="120.43" y="17.289"/><g clip-path="url(#h)"><path fill="none" stroke="#000" stroke-miterlimit="10" stroke-width=".399" d="M114.137 97.504c0-24.324-22.657-44.043-50.602-44.043-27.95 0-50.605 19.719-50.605 44.043s22.656 44.039 50.605 44.039c27.945 0 50.602-19.715 50.602-44.04Zm0 0"/></g><use xlink:href="#i" x=".228" y="60.62"/><use xlink:href="#j" x="8.018" y="57.004"/><use xlink:href="#k" x="11.131" y="57.004"/><use xlink:href="#l" x="14.635" y="57.004"/><use xlink:href="#m" x="17.001" y="57.004"/><use xlink:href="#n" x="23.038" y="57.004"/><path fill="none" stroke="#000" stroke-miterlimit="10" stroke-width=".399" d="M195.695 87.84c0-16.778-16.05-30.38-35.855-30.38-19.8 0-35.852 13.603-35.852 30.38s16.051 30.379 35.852 30.379c19.805 0 35.855-13.602 35.855-30.38Zm0 0"/><use xlink:href="#i" x="186.68" y="61.003"/><use xlink:href="#j" x="194.47" y="57.387"/><use xlink:href="#o" x="197.584" y="57.387"/><use xlink:href="#l" x="201.144" y="57.387"/><use xlink:href="#m" x="203.51" y="57.387"/><use xlink:href="#n" x="209.548" y="57.387"/></svg>