<svg xmlns="http://www.w3.org/2000/svg" width="115.976" height="108.722"><defs><clipPath id="a"><path d="M80 0h35.965v57H80Zm0 0"/></clipPath><clipPath id="b"><path d="M0 59h36v49.582H0Zm0 0"/></clipPath></defs><path fill="none" stroke="#000" stroke-miterlimit="10" stroke-width=".399" d="M1.367 50.684V8.164h28.348v42.52Zm0 0c14.172 0 25.156-32.954 28.348-42.52M43.887 50.684V8.164h28.347v42.52Zm0 0c3.191-9.567 14.176-42.52 28.347-42.52"/><g clip-path="url(#a)"><path fill="none" stroke="#000" stroke-miterlimit="10" stroke-width=".399" d="M86.406 50.684V8.164h28.348v42.52Zm0 0c2.395-11.16 10.633-49.606 21.262-49.606 3.543 0 6.289 5.492 7.086 7.086"/></g><g clip-path="url(#b)"><path fill="none" stroke="#000" stroke-miterlimit="10" stroke-width=".399" d="M29.715 64.86 1.367 107.378c14.172 0 25.156-32.953 28.348-42.52Zm0 0"/></g></svg>