<svg xmlns="http://www.w3.org/2000/svg" xmlns:xlink="http://www.w3.org/1999/xlink" width="452.306" height="66.062"><defs><path id="a" d="M5.11-.375c0-.36-.298-.375-.454-.375h-.36v-3.125c0-.36-.077-.469-.468-.469h-.703c-.187 0-.484.016-.484.375 0 .36.297.375.468.375h.36v1.985c0 .812-.735.922-1.031.922-.672 0-.688-.282-.688-.563v-2.625c0-.36-.062-.469-.469-.469H.578c-.187 0-.469.016-.469.375 0 .36.297.375.454.375h.359v2.407c0 .984.719 1.25 1.469 1.25.375 0 .75-.094 1.093-.313.063.234.266.25.454.25h.703c.187 0 .468-.016.468-.375m0 0"/><path id="b" d="M5.11-.375c0-.36-.282-.375-.47-.375h-.343v-2.172c0-1.031-.531-1.469-1.344-1.469-.562 0-.953.22-1.203.407 0-.25-.078-.36-.469-.36H.578c-.187 0-.469.016-.469.375 0 .36.297.375.454.375h.359V-.75H.578C.391-.75.11-.734.11-.375c0 .36.297.375.454.375h1.546c.172 0 .47-.016.47-.375 0-.36-.282-.375-.47-.375H1.75v-1.64c0-.907.688-1.266 1.14-1.266.47 0 .579.25.579.781V-.75h-.297c-.188 0-.485.016-.485.375 0 .36.313.375.485.375h1.484c.157 0 .453-.016.453-.375m0 0"/><path id="c" d="M4.61-1.297c0-1.062-1.313-1.281-1.641-1.328l-1-.187c-.266-.063-.532-.172-.532-.391 0-.235.313-.469 1.157-.469.719 0 .86.235.89.469.016.187.047.39.407.39.422 0 .422-.234.422-.468v-.672c0-.188-.016-.469-.36-.469-.219 0-.297.078-.344.172-.421-.172-.812-.172-1-.172-1.703 0-1.921.86-1.921 1.219 0 .937 1.046 1.125 1.984 1.265.437.079 1.187.188 1.187.641 0 .344-.343.61-1.171.61-.422 0-.938-.094-1.157-.813-.062-.219-.11-.328-.422-.328-.406 0-.421.234-.421.469v.937c0 .188.015.485.375.485.093 0 .265 0 .39-.329.469.313.953.329 1.235.329 1.593 0 1.921-.875 1.921-1.36m0 0"/><path id="d" d="M4.563-.375c0-.36-.297-.375-.47-.375h-.937v-3.125c0-.36-.078-.469-.469-.469H1.314c-.188 0-.485.016-.485.36 0 .375.297.39.485.39h1.015V-.75h-1.11c-.187 0-.468.016-.468.375 0 .36.297.375.469.375h2.875c.172 0 .468-.016.468-.375m-1.375-5.11a.56.56 0 0 0-.563-.562.564.564 0 0 0-.578.563c0 .328.25.562.578.562a.55.55 0 0 0 .563-.562m0 0"/><path id="e" d="M5.094-3.844c0-.25-.203-.61-.782-.61-.109 0-.578.016-1.046.329-.172-.11-.5-.266-.938-.266-.953 0-1.687.75-1.687 1.625 0 .407.156.72.312.922-.11.157-.187.375-.187.657 0 .312.109.546.187.671C.266-.046.266.61.266.72c0 .86 1.047 1.5 2.343 1.5s2.344-.64 2.344-1.5c0-.375-.187-.89-.703-1.172-.14-.078-.547-.297-1.453-.297h-.688c-.171 0-.39.047-.53-.125-.095-.11-.11-.297-.11-.297 0-.031.015-.094.031-.156.14.078.469.203.828.203.938 0 1.688-.734 1.688-1.64 0-.282-.079-.547-.235-.813.156-.078.297-.094.406-.125a.48.48 0 0 0 .438.328c.203 0 .469-.14.469-.469M3.187-2.766c0 .5-.39.907-.859.907-.484 0-.86-.422-.86-.907 0-.5.391-.89.86-.89s.86.422.86.89M4.235.72c0 .406-.703.765-1.625.765-.921 0-1.625-.359-1.625-.765 0-.156.079-.438.375-.625.22-.14.313-.14 1-.14.813 0 1.875 0 1.875.765m0 0"/><path id="f" d="M4.656-1.14c0-.329-.343-.344-.422-.344-.218 0-.312.03-.39.265-.203.453-.688.532-.938.532-.672 0-1.344-.422-1.515-1.172h2.797c.25 0 .468 0 .468-.438 0-1.14-.656-2.125-1.968-2.125-1.188 0-2.172 1-2.172 2.234C.516-.952 1.53.063 2.828.063c1.36 0 1.828-.937 1.828-1.203m-.86-1.454H1.392c.172-.625.687-1.078 1.297-1.078.468 0 1 .219 1.109 1.078m0 0"/><path id="g" d="M5.125-.375c0-.36-.297-.375-.469-.375h-.36v-4.86c0-.359-.062-.484-.468-.484h-.703c-.187 0-.484.016-.484.375 0 .36.297.375.468.375h.36v1.297a1.73 1.73 0 0 0-1.063-.344c-1.094 0-2.062.938-2.062 2.235C.344-.922 1.25.063 2.328.063c.485 0 .86-.204 1.14-.454.016.282.079.391.47.391h.703c.187 0 .484-.016.484-.375M3.453-1.969c0 .516-.406 1.282-1.094 1.282-.671 0-1.203-.657-1.203-1.47 0-.89.64-1.5 1.282-1.5.578 0 1.015.5 1.015 1Zm0 0"/><path id="h" d="M4.5-1.312c0-.204 0-.438-.422-.438-.39 0-.406.234-.406.438 0 .53-.5.625-.719.625-.656 0-.656-.454-.656-.672v-2.235h1.515c.172 0 .47-.015.47-.375 0-.375-.282-.375-.47-.375H2.298v-.718c0-.22-.016-.47-.406-.47-.422 0-.422.235-.422.47v.718H.703c-.187 0-.469.016-.469.375 0 .36.282.375.454.375h.78v2.282c0 1 .688 1.375 1.454 1.375.75 0 1.578-.454 1.578-1.375m0 0"/><path id="i" d="M4.875-3.719c0-.219-.125-.672-1-.672-.469 0-1.047.141-1.578.657v-.141c0-.36-.063-.469-.469-.469H.766c-.172 0-.47.016-.47.36 0 .375.282.39.47.39h.703V-.75H.766c-.172 0-.47.016-.47.375 0 .36.282.375.47.375h2.53c.188 0 .485-.016.485-.375 0-.36-.297-.375-.484-.375h-1v-1.14c0-.844.531-1.735 1.594-1.766 0 .25.234.422.5.422.25 0 .484-.172.484-.485m0 0"/><path id="j" d="M3.297-.672a.67.67 0 0 0-.672-.687.67.67 0 0 0-.687.672c0 .39.328.687.671.687a.68.68 0 0 0 .688-.672m0 0"/><path id="k" d="M5.031-.484v-.844c0-.234-.015-.484-.422-.484s-.406.234-.406.484v.578H1.75v-2.031h1.125c0 .406.047.562.422.562.39 0 .406-.25.406-.484v-.906c0-.22-.015-.47-.406-.47-.375 0-.422.157-.422.548H1.75v-1.813h2.234v.438c0 .218 0 .484.407.484.422 0 .422-.25.422-.484v-.703c0-.36-.079-.485-.47-.485H.72c-.188 0-.485.016-.485.375 0 .36.297.375.485.375h.203V-.75H.719c-.188 0-.485.016-.485.375 0 .36.297.375.485.375h3.844c.375 0 .468-.094.468-.484m0 0"/><path id="l" d="M4.86-3.047c0-.406-.391-.422-.532-.422H3.031V-4.78c0-.14-.015-.532-.422-.532s-.421.391-.421.532v1.312H.89c-.141 0-.532.016-.532.422s.391.422.532.422h1.297v1.297c0 .14.015.547.421.547.407 0 .422-.406.422-.547v-1.297h1.297c.14 0 .531-.016.531-.422m0 0"/><path id="m" d="M4.688-3.047c0-.406-.391-.422-.532-.422H1.063c-.141 0-.532.016-.532.422s.39.422.532.422h3.093c.14 0 .532-.016.532-.422m0 0"/></defs><path fill="#FFF" stroke="#000" stroke-linecap="round" stroke-linejoin="round" stroke-miterlimit="10" stroke-width=".797" d="m12.805 38.387 1.375-.024 1.597-.011 1.235.117 1.425.02 1.528-.071 1.277.012 1.41-.035 1.618-.063 1.394-.047 1.457.098 1.309.078 1.37-.09 1.329-.012 1.555-.011 1.43.078 1.445-.051 1.27-.113 1.507.207 1.277-.215 1.559.223 1.308.027 1.43.012 1.492-.008 1.516-.051 1.289-.016 1.59.004 1.375-.011 1.277.043 1.344.043 1.52-.075 1.554-.172 1.328-.011 1.426.043 1.438.23 1.34-.043 1.378-.02 1.364-.124 1.457.183 1.41-.066 1.629-.113 1.168.14 1.41-.129 1.61.157 1.28-.125 1.426-.036 1.422.04 1.34.09 1.687-.223 1.391.261 1.223-.234 1.418.215 1.629-.164 1.421.125 1.38.039 1.351-.098 1.352-.05 1.421.171 1.336-.246 1.407.086 1.562.14 1.402-.183 1.266.094 1.438-.168 1.156.133.11-1.547-.134-1.168.094-1.582-.023-1.442-.118-1.394.04-1.3.05-1.606.02-1.207-.074-1.41.168-1.485-.157-1.469.024-1.398-1.293-.106-1.418.239-1.5-.14-1.328.007-1.512-.008-1.305.07-1.457.02-1.5-.012-1.37-.031-1.618.035-1.32-.039-1.25-.172-1.496.004-1.356.098-1.488-.102-1.457.074-1.442.11-1.406.082-1.351-.156-1.41-.043-1.532.09-1.308-.149-1.332.094-1.704.148-1.418-.164-1.37-.09-1.32.153-1.31-.133-1.648.05-1.258.145-1.418.067-1.422-.172-1.59.062-1.324.024-1.484-.082-1.426.043-1.238-.036-1.344-.07-1.422-.027-1.566.195-1.484.035-1.399-.066-1.469.101-1.418-.09-1.175-.148-1.645.047-1.34.043-1.289.004-1.375.047-1.61-.067-1.347.02-1.406.117-1.578-.117-1.32-.028-1.454-.02-1.336-.05-1.375-.039-1.367.192-1.574-.196-1.375-.012-1.273.227-1.586-.086-1.239-.027-1.183.035.039 1.316.066 1.5.04 1.43-.11 1.328-.125 1.485.133 1.464-.07 1.414-.071 1.422-.004 1.332.246 1.61-.074 1.3Zm0 0"/><use xlink:href="#a" x="16.127" y="31.814"/><use xlink:href="#b" x="21.357" y="31.814"/><use xlink:href="#c" x="26.588" y="31.814"/><use xlink:href="#d" x="31.818" y="31.814"/><use xlink:href="#e" x="37.049" y="31.814"/><use xlink:href="#b" x="42.279" y="31.814"/><use xlink:href="#f" x="47.509" y="31.814"/><use xlink:href="#g" x="52.74" y="31.814"/><use xlink:href="#d" x="63.2" y="31.814"/><use xlink:href="#b" x="68.431" y="31.814"/><use xlink:href="#h" x="73.661" y="31.814"/><use xlink:href="#f" x="78.892" y="31.814"/><use xlink:href="#e" x="84.122" y="31.814"/><use xlink:href="#f" x="89.352" y="31.814"/><use xlink:href="#i" x="94.583" y="31.814"/><path fill="none" stroke="#000" stroke-linecap="round" stroke-linejoin="round" stroke-miterlimit="10" stroke-width=".797" d="m1.07 29.883 1.297-.047 1.5-.043 1.48.133 1.243-.078 1.832.035h.32"/><path d="M13.402 29.883c-1.379-.262-3.625-1.04-5.18-1.945v3.886c1.555-.906 3.801-1.683 5.18-1.941"/><path fill="none" stroke="#000" stroke-linecap="round" stroke-linejoin="round" stroke-miterlimit="10" stroke-width=".797" d="m103.531 29.883 1.348-.016 1.43.094 1.468-.211 1.282.148 1.578.122 1.539-.004 1.207-.27 1.488.137"/><path fill="#FFF" stroke="#000" stroke-linecap="round" stroke-linejoin="round" stroke-miterlimit="10" stroke-width=".797" d="M135.113 21.379v-.05l-1.554.112-1.293.235-1.278.59-1.207.976-1.078.766-.926 1.234-.511 1.23-.543 1.38-.348 1.988.234-.008.036 1.465.378 1.492.528 1.137.77 1.41 1.011.816 1.043 1.016 1.434.582 1.234.492 2.027.38.043-.286 1.305-.059 1.602-.207 1.265-.726 1.094-.492 1.062-1.18.942-1.266.695-1.176.457-1.316.317-1.992-.235-.09-.14-1.371-.352-1.461-.344-1.23-.836-1.168-.898-1.079-1.242-1.027-1.301-.656-1.422-.395-1.734-.258"/><use xlink:href="#j" x="132.497" y="30.564"/><path fill="none" stroke="#000" stroke-linecap="round" stroke-linejoin="round" stroke-miterlimit="10" stroke-width=".797" d="m114.871 29.883 1.274.101 1.523-.132 1.344-.07 1.652.09 1.563.01h.316"/><path d="M127.207 29.883c-1.383-.262-3.625-1.04-5.18-1.945v3.886c1.555-.906 3.797-1.683 5.18-1.941"/><path fill="none" stroke="#000" stroke-linecap="round" stroke-linejoin="round" stroke-miterlimit="10" stroke-width=".797" d="m144.016 29.883 1.386-.067 1.38-.007 1.573-.059 1.336.227 1.391-.024 1.461-.156 1.539.183 1.273-.097"/><path fill="#FFF" stroke="#000" stroke-linecap="round" stroke-linejoin="round" stroke-miterlimit="10" stroke-width=".797" d="m191.383 21.379-1.344-.14-1.496.09-1.422.023-1.398.03-1.305.071-1.441-.195-1.52.058-1.336.032-1.469.164-1.449-.149-1.61.016-1.425-.031-1.535.265-1.117.727-1.176.715-1.063.949-.84 1.203-.726 1.25-.465 1.512-.39 1.87.234-.007.055 1.602.449 1.375.363 1.37.93.915.894 1.066 1.106.934 1.265.59 1.368.402 2.035.535 1.422-.297 1.402.2 1.57-.036 1.313-.12 1.484-.032 1.32.062 1.54-.03 1.355.034 1.426-.136 1.242.25 1.754-.13 1.375-.011 1.531-.5 1.336-.523 1.133-.723 1.062-.832.614-1.234.742-1.325.535-1.43.41-1.886-.234-.09.12-1.395-.316-1.312-.77-1.453-.831-1.223-.82-.855-1.254-1.008-1.274-.512-1.207-.535-2.015-.375"/><use xlink:href="#g" x="170.41" y="31.814"/><use xlink:href="#d" x="175.64" y="31.814"/><use xlink:href="#e" x="180.871" y="31.814"/><use xlink:href="#d" x="186.101" y="31.814"/><use xlink:href="#h" x="191.332" y="31.814"/><path fill="none" stroke="#000" stroke-linecap="round" stroke-linejoin="round" stroke-miterlimit="10" stroke-width=".797" d="m155.355 29.883 1.547.035 1.172-.129 1.555.242 1.422-.254 1.656.106h.32"/><path d="M167.688 29.883c-1.38-.262-3.625-1.04-5.18-1.945v3.886c1.554-.906 3.8-1.683 5.18-1.941"/><path fill="none" stroke="#000" stroke-linecap="round" stroke-linejoin="round" stroke-miterlimit="10" stroke-width=".797" d="m200.285 29.883 1.414-.14 1.383.257 1.414-.195 1.547.16 1.227-.2 1.597.047 1.278.192 1.476-.121M211.621 29.883l1.461-.117 1.398.007 1.477.067 1.336.004 1.469.144 1.332.016 1.488.016 1.379-.137"/><path fill="none" stroke="#000" stroke-linecap="round" stroke-linejoin="round" stroke-miterlimit="10" stroke-width=".797" d="m222.96 29.883 1.54.097 1.371-.246 1.387.13 1.328.058 1.422.086 1.379-.164 1.547.113 1.367-.074"/><path fill="#FFF" stroke="#000" stroke-linecap="round" stroke-linejoin="round" stroke-miterlimit="10" stroke-width=".797" d="M254.54 21.379v-.05l-1.427.19-1.449.13-1.254.523-1.23.898-.957.848-.883 1.2-.738 1.237-.336 1.5-.465 1.985.234-.008.043 1.531.442 1.453.515 1.047.793 1.461.95 1.024 1.124.941 1.192.465 1.246.5 2.16.367.04-.285 1.456-.066 1.293-.27 1.457-.492 1.29-.828.831-1.106.856-.941.816-1.418.383-1.219.36-2.074-.239-.09.055-1.375-.29-1.445-.769-1.145-.684-1.273-.91-1.004-1.37-.977-1.028-.761-1.356-.446-1.914-.218"/><use xlink:href="#k" x="251.923" y="32.925"/><path fill="none" stroke="#000" stroke-linecap="round" stroke-linejoin="round" stroke-miterlimit="10" stroke-width=".797" d="m234.3 29.883 1.485-.14 1.23.163 1.536.016h1.558l1.543-.04h.32"/><path d="M246.633 29.883c-1.38-.262-3.625-1.04-5.18-1.945v3.886c1.555-.906 3.8-1.683 5.18-1.941"/><path fill="none" stroke="#000" stroke-linecap="round" stroke-linejoin="round" stroke-miterlimit="10" stroke-width=".797" d="m263.445 29.883 1.508-.004 1.387-.102 1.375.067 1.441.14 1.512-.117 1.2-.12 1.425.054 1.488.082M274.781 29.883l1.34-.055 1.43-.066 1.336.12 1.593.098 1.278.04 1.422-.16 1.511.093 1.532-.14 1.293.109 1.308-.016 1.672-.168 1.383.047 1.34.117 1.344-.066 1.46.098 1.38-.055 1.456.14 1.434-.136M300.293 29.883l1.473-.117 1.214.101 1.633.04 1.344.109 1.297-.04 1.543-.101 1.379-.094 1.562.23 1.192-.132 1.675-.016 1.157-.105 1.402.144 1.469-.078 1.387-.082 1.425-.004 1.657.11 1.277-.059 1.426.094"/><path fill="#FFF" stroke="#000" stroke-linecap="round" stroke-linejoin="round" stroke-miterlimit="10" stroke-width=".797" d="m337.543 38.387 1.406.058 1.29.078 1.554-.168 1.469-.007 1.281.086 1.39.058 1.657.04 1.379-.247 1.199.203 1.492-.199 1.344.207 1.527.027 1.367-.277 1.364.152 1.633.043 1.273-.058 1.352.097 1.507-.234 1.387.027 1.469.23 1.527-.241 1.45-.004 1.206.094 1.364.164 1.484-.082 1.469-.102 1.531.012 1.207-.02 1.629.012 1.457.164 1.172-.258 1.625.172 1.168.086 1.566-.148h1.477l1.289-.012 1.52-.05 1.23.062 1.687.097 1.387.02 1.336-.004 1.399-.086 1.574-.016 1.207.075 1.5.093 1.347-.289 1.563.25 1.23-.008 1.618-.23 1.316.187 1.422.07 1.414-.273 1.523.168 1.32.11 1.536-.243 1.355.215 1.364-.133 1.359-.109 1.41.078 1.527.047 1.485-.133 1.254.102 1.34-.102 1.144.149-.098-1.508.211-1.246-.097-1.453-.125-1.496-.035-1.473.28-1.328-.136-1.551.102-1.348-.067-1.382-.008-1.387.067-1.422-.094-1.414-1.422.058-1.457-.085-1.293-.122-1.543.11-1.375.144-1.554-.226-1.293.125-1.493-.078-1.27.164-1.48-.203-1.316.007-1.45.25-1.464-.113-1.5-.082-1.356.09-1.41-.18-1.28.29-1.638-.239-1.433.191-1.285-.238-1.38.098-1.359.035-1.465.121-1.351-.156-1.645.187-1.3-.05-1.582.015-1.153-.203-1.586.008-1.363.168-1.562-.05-1.278-.13-1.316.156-1.57-.156-1.254.184-1.567-.16-1.383.074-1.578-.063-1.262-.008-1.316.016-1.621.035-1.184-.093-1.586.02-1.48.054-1.398.16-1.442-.027-1.207-.059-1.637-.012-1.37-.078-1.212-.02-1.437.067-1.422-.086-1.445.098-1.48-.121-1.552.234-1.378.02-1.383-.082-1.383.09-1.457-.188-1.281.125-1.383-.094-1.54.145-1.366-.137h-1.102l.059 1.539v1.371l-.16 1.34.062 1.316-.055 1.48.031 1.337.043 1.453-.039 1.512.125 1.265v1.477l-.14 1.527Zm0 0"/><use xlink:href="#a" x="340.86" y="31.814"/><use xlink:href="#b" x="346.09" y="31.814"/><use xlink:href="#c" x="351.321" y="31.814"/><use xlink:href="#d" x="356.551" y="31.814"/><use xlink:href="#e" x="361.782" y="31.814"/><use xlink:href="#b" x="367.012" y="31.814"/><use xlink:href="#f" x="372.242" y="31.814"/><use xlink:href="#g" x="377.473" y="31.814"/><use xlink:href="#d" x="387.933" y="31.814"/><use xlink:href="#b" x="393.164" y="31.814"/><use xlink:href="#h" x="398.394" y="31.814"/><use xlink:href="#f" x="403.625" y="31.814"/><use xlink:href="#e" x="408.855" y="31.814"/><use xlink:href="#f" x="414.085" y="31.814"/><use xlink:href="#i" x="419.316" y="31.814"/><path fill="none" stroke="#000" stroke-linecap="round" stroke-linejoin="round" stroke-miterlimit="10" stroke-width=".797" d="m325.805 29.883 1.312.086 1.445-.07 1.56.066 1.355-.012 1.683-.07h.32"/><path d="M338.14 29.883c-1.378-.262-3.624-1.04-5.18-1.945v3.886c1.556-.906 3.802-1.683 5.18-1.941"/><path fill="none" stroke="#000" stroke-linecap="round" stroke-linejoin="round" stroke-miterlimit="10" stroke-width=".797" d="m428.27 29.883 1.28-.082 1.68-.047 1.196.105 1.617-.043 1.355-.003 1.399.054 1.281.102 1.531-.086M439.61 29.883h6.675"/><path d="M450.95 29.883c-1.384-.262-3.63-1.04-5.184-1.945v3.886c1.554-.906 3.8-1.683 5.183-1.941"/><path fill="#FFF" stroke="#000" stroke-linecap="round" stroke-linejoin="round" stroke-miterlimit="10" stroke-width=".797" d="M300.293 1.137v-.051l-1.547-.04-1.351.528-1.278.375-1.226 1.016-.84.86L293.035 5l-.765 1.266-.297 1.379-.418 1.953.234-.008-.012 1.586.223 1.293.695 1.347.938 1.196.918.879.953.918 1.36.91 1.245.308 2.141.352.043-.285 1.277-.07 1.555-.184 1.152-.656 1.235-.727 1-1.05 1.074-1.036.527-1.426.563-1.152.36-2.11-.24-.093-.144-1.434-.297-1.402-.39-1.18-.707-1.222-1.149-1.176-1.148-.594-1.29-.855-1.362-.489-1.778-.293"/><use xlink:href="#l" x="297.676" y="12.295"/><path fill="#FFF" stroke="#000" stroke-linecap="round" stroke-linejoin="round" stroke-miterlimit="10" stroke-width=".797" d="M300.293 41.617v-.047l-1.45-.086-1.386.57-1.3.516-1.122.742-1.144 1.149-.88 1.031-.636 1.164-.441 1.356-.38 2.066.235-.004-.055 1.45.446 1.468.36 1.164.905 1.313.926 1.105 1.113.852 1.516.707 1.332.351 1.922.38.039-.286 1.562.008 1.297-.356 1.239-.507 1.304-.703.985-1.157.968-1.168.59-1.21.45-1.25.347-2.07-.238-.09-.094-1.259-.383-1.421-.511-1.426-.868-1.203-.789-1.09-1.324-.781-1.125-.766-1.32-.469-1.852-.23"/><use xlink:href="#m" x="297.676" y="51.856"/><path fill="none" stroke="#000" stroke-linecap="round" stroke-linejoin="round" stroke-miterlimit="10" stroke-width=".797" d="m114.871 29.883-.012-1.344-.02-1.414.079-1.484-.195-1.422.293-1.375-.243-1.461.13-1.465-.173-1.445.165-1.27-.024-1.496.043-1.387.531-1.277.805-1.375 1.223-.816 1.12-.797 1.88-.301 1.504.324 1.476.004 1.352.094 1.457-.016 1.425-.219 1.247.227 1.527-.23 1.512.023 1.34.082 1.285.074 1.398-.164 1.61.02 1.48.054 1.254.09 1.344-.047 1.535.106 1.277-.059 1.48-.187 1.348.246 1.5-.008 1.43-.055 1.523-.047 1.266-.101 1.492.14 1.445-.113 1.325.113 1.382-.035 1.422-.082 1.422.137 1.676-.027 1.215.027 1.426-.223 1.582.043 1.3.102 1.356.031 1.59.027 1.3-.054 1.504-.086 1.325-.059 1.468-.008 1.512.23 1.188-.015 1.613-.113 1.246-.023 1.59.113 1.379-.04h1.25l1.418.106 1.62-.062 1.24-.067 1.362-.011 1.594.125 1.426-.082 1.457-.11 1.437-.058 1.22.27 1.566.015 1.386-.242 1.375-.036 1.48.024 1.4-.031 1.46.144 1.266-.012 1.625-.09 1.398.215 1.414-.222 1.22.09 1.878.023 1.492.043 1.442.43 1.058.957.887 1.023.715 1.442.355 1.703-.219 1.355.055 1.61-.219 1.406.102 1.222.055 1.625-.145 1.286.09 1.754v-.676"/><path d="M222.96 29.883c.259-1.383 1.036-3.63 1.942-5.184h-3.882c.906 1.555 1.683 3.801 1.94 5.184"/><path fill="none" stroke="#000" stroke-linecap="round" stroke-linejoin="round" stroke-miterlimit="10" stroke-width=".797" d="m211.621 29.883.008 1.406.094 1.473-.207 1.43.015 1.449.02 1.234.137 1.64.054 1.196-.09 1.512-.156 1.316.125 1.516.004 1.437-.59 1.38-.844 1.112-.968.856-1.348.676-1.852.492-1.441-.324-1.457-.09-1.285.004-1.422.148-1.629-.027-1.371-.09-1.402-.008-1.309-.023-1.582.246-1.293-.164-1.574.074-1.215-.016-1.5-.047-1.34-.113-1.52.102-1.355.09-1.457-.188-1.543.125-1.336-.004-1.387-.027-1.52.078-1.339.016-1.32.015-1.406-.129-1.543.13-1.38-.056-1.433.051-1.527.016-1.184-.074-1.535.125-1.356.004-1.039-.13-1.535-.085-1.289-.344-1.226-.984-.786-1.016-.765-1.395-.352-1.773.274-1.367-.04-1.403.024-1.687.031-1.367.043-1.457-.082-1.215.035-1.762v.676"/><path d="M155.355 29.883c-.261 1.379-1.039 3.625-1.945 5.18h3.887c-.906-1.555-1.684-3.801-1.942-5.18"/><path fill="none" stroke="#000" stroke-linecap="round" stroke-linejoin="round" stroke-miterlimit="10" stroke-width=".797" d="m234.3 29.883.098 1.355-.164 1.364.082 1.484-.078 1.52.047 1.28.04 1.606-.169 1.238.239 1.563-.075 1.285-.07 1.496.172 1.426-.184 1.281.106 1.434-.168 1.617.265 1.355-.265 1.497.117 1.382.05 1.434-.187 1.305.145 1.422-.063 1.523.711 1.145.735 1.238 1.07.86 1.398.91 1.746.277 1.508-.227 1.516-.156 1.426-.008 1.14.242 1.586-.27 1.336.02 1.598.07 1.324.047 1.281.137 1.461-.055 1.387-.19 1.465.097 1.613-.086 1.3.074 1.368-.02 1.453-.062 1.274.074 1.597.031 1.418-.03 1.356.14 1.558-.078 1.34-.043 1.477-.09h1.257l1.438.117 1.379-.156 1.441-.004 1.453.05 1.442.227 1.348-.14 1.59.047 1.284-.145 1.465.02 1.512-.055 1.238.199 1.348.043 1.637-.035 1.297-.07 1.343.113 1.524-.09 1.347.004 1.344.117 1.426-.152 1.41.027 1.59-.117 1.328.195 1.606-.05 1.355-.11 1.273.125 1.493-.039 1.273-.047 1.68.129 1.234-.195 1.574.12 1.293-.007 1.524.05 1.207-.054 1.676-.027 1.308.023 1.27.074 1.508-.156 1.433.031 1.531-.058 1.243.066 1.406.055 1.558-.008 1.454-.016 1.378-.043 1.457.028h1.23l1.47.09 1.34-.098 1.433.164 1.399-.27 1.437.137 1.473-.078 1.437.156 1.543-.172 1.442-.027 1.253-.008 1.399.2 1.46-.13 1.372-.046 1.367-.02 1.602.254 1.293-.004 1.488-.265 1.477.004 1.21.132 1.418.102 1.457-.164 1.383.039 1.52.164 1.515-.074 1.309.004 1.305-.035 1.484.007 1.504-.172 1.46.196 1.372-.207 1.559-.004 1.398.27 1.313-.192 1.492.043 1.445.09 1.348-.117 1.246.16 1.586-.223 1.3.195 1.543-.207 1.333.157 1.312-.172 1.477.031 1.539.105 1.277.008 1.586.121 1.242-.261 1.504.027 1.496.21 1.266-.23 1.523.157 1.52.015 1.144-.144 1.668.074 1.23-.023 1.645.164 1.399-.004 1.293-.258 1.386.246 1.313-.035 1.508-.082 1.375-.028 1.52.149 1.284-.188 1.61.188 1.484-.176 1.07.07 1.418-.07 1.496-.496 1.106-.977.926-.785.668-1.406.336-1.867-.317-1.52-.015-1.52.195-1.421-.293-1.176.02-1.387.148-1.562-.07-1.375-.075-1.563.094-1.18.031-1.44.059-1.524.078-1.348-.098-1.343-.003-1.61-.11-1.39.203-1.493-.129-1.578v.676"/><path d="M439.61 29.883c-.258 1.379-1.036 3.625-1.942 5.18h3.883c-.906-1.555-1.684-3.801-1.942-5.18"/><path fill="none" stroke="#000" stroke-linecap="round" stroke-linejoin="round" stroke-miterlimit="10" stroke-width=".797" d="m274.781 29.883.078-1.34-.16-1.523.086-1.504-.039-1.348.082-1.309.059-1.398-.024-1.516-.117-1.402.106-1.395-.07-1.84.03-1.269.442-1.484.887-1.2 1.195-.996 1.203-.64 1.844-.364 1.562.391 1.371-.078 1.352-.027 1.437.066 1.301-.066h-.676"/><path d="M291.39 9.64c-1.378-.261-3.624-1.035-5.18-1.945v3.887c1.556-.906 3.802-1.684 5.18-1.941"/><path fill="none" stroke="#000" stroke-linecap="round" stroke-linejoin="round" stroke-miterlimit="10" stroke-width=".797" d="m309.195 9.64 1.414-.015 1.387.035 1.473-.082 1.3-.047 1.415.176 1.582-.059 1.246.024 1.125-.031 1.375.007 1.25.504 1.27.825 1.05 1.312.781 1.188.227 1.761-.188 1.516-.066 1.402.09 1.364-.035 1.402.03 1.578-.241 1.387.125 2.008v-.676"/><path d="M325.805 29.883c.261-1.383 1.039-3.63 1.945-5.184h-3.887c.907 1.555 1.684 3.801 1.942 5.184"/><path fill="none" stroke="#000" stroke-linecap="round" stroke-linejoin="round" stroke-miterlimit="10" stroke-width=".797" d="m274.781 29.883.106 1.32-.25 1.461.226 1.61.035 1.16-.226 1.406.183 1.469-.101 1.379v1.417l.164 1.645-.137 1.703.02 1.387.668 1.484.71 1.239 1.204.87 1.234.712 1.766.261 1.5-.347 1.496-.086 1.23.164 1.47-.137 1.327.121h-.676"/><path d="M291.39 50.121c-1.378-.258-3.624-1.035-5.18-1.941v3.886c1.556-.906 3.802-1.683 5.18-1.945"/><path fill="none" stroke="#000" stroke-linecap="round" stroke-linejoin="round" stroke-miterlimit="10" stroke-width=".797" d="m309.195 50.121 1.293-.137 1.528.223 1.504-.027 1.328-.032 1.437.04 1.305-.168h1.492l1.055.101 1.437.082 1.25-.527 1.242-1.024 1.051-1.078.602-1.308.37-1.743-.316-1.402.09-1.648-.05-1.235-.118-1.39.246-1.594-.27-1.438.134-1.949v.676"/><path d="M325.805 29.883c-.258 1.379-1.035 3.625-1.942 5.18h3.887c-.906-1.555-1.684-3.801-1.945-5.18"/></svg>