<svg xmlns="http://www.w3.org/2000/svg" xmlns:xlink="http://www.w3.org/1999/xlink" width="12.188" height="8.768"><defs><path id="a" d="M2.938-6.375c0-.25 0-.266-.235-.266C2.078-6 1.203-6 .891-6v.313c.203 0 .78 0 1.297-.266v5.172c0 .36-.032.469-.922.469H.953V0c.344-.031 1.203-.031 1.61-.031.39 0 1.265 0 1.609.031v-.312h-.313c-.906 0-.921-.11-.921-.47Zm0 0"/><path id="b" d="M5.797-6.781H.328v.312h.235c.765 0 .796.11.796.469v5.219c0 .36-.03.469-.796.469H.328V0c.344-.031 1.125-.031 1.516-.031.406 0 1.312 0 1.672.031v-.312h-.328c-.938 0-.938-.125-.938-.47v-2.452h.844c.969 0 1.062.312 1.062 1.156h.25v-2.64h-.25c0 .843-.093 1.171-1.062 1.171H2.25v-2.531c0-.328.016-.39.484-.39h1.188c1.5 0 1.75.562 1.906 1.937h.25Zm0 0"/></defs><use xlink:href="#a" x="-.288" y="7.655"/><use xlink:href="#b" x="4.693" y="7.655"/></svg>