<svg xmlns="http://www.w3.org/2000/svg" xmlns:xlink="http://www.w3.org/1999/xlink" width="107.588" height="99.704"><defs><path id="b" d="M1.11-4.484c.109.03.421.125.765.125 1 0 1.594-.703 1.594-.828 0-.094-.047-.11-.094-.11-.016 0-.031 0-.094.031a3 3 0 0 1-1.11.22c-.468 0-.858-.11-1.108-.22-.079-.03-.094-.03-.11-.03-.094 0-.094.077-.094.234v2.328c0 .14 0 .234.125.234.063 0 .079-.031.125-.094.094-.11.391-.515 1.079-.515.437 0 .656.359.734.515.125.281.14.656.14.953s0 .735-.218 1.079c-.156.25-.485.484-.906.484A1.27 1.27 0 0 1 .734-.922c.016.016.079.016.079.016.218 0 .406-.14.406-.39a.39.39 0 0 0-.39-.407c-.157 0-.407.078-.407.422 0 .718.625 1.453 1.531 1.453 1 0 1.844-.781 1.844-1.766 0-.922-.672-1.75-1.61-1.75-.39 0-.765.125-1.078.406Zm0 0"/><path id="c" d="M1.094-2.64c0-.657.062-1.235.343-1.72.25-.406.657-.734 1.157-.734.156 0 .515.032.703.297-.36.031-.39.297-.39.375 0 .25.187.375.374.375.14 0 .375-.078.375-.39 0-.47-.36-.86-1.078-.86C1.468-5.297.344-4.25.344-2.53.344-.36 1.359.172 2.125.172c.39 0 .797-.11 1.156-.453.328-.313.594-.64.594-1.344 0-1.031-.797-1.766-1.672-1.766-.578 0-.922.36-1.11.75M2.125-.079a.88.88 0 0 1-.797-.516c-.187-.36-.203-.89-.203-1.203 0-.781.422-1.375 1.047-1.375.39 0 .64.203.781.485.172.296.172.656.172 1.062s0 .75-.156 1.047c-.219.36-.485.5-.844.5m0 0"/><path id="d" d="M4.031-4.86c.078-.077.078-.093.078-.265H2.08a9 9 0 0 1-.642-.031c-.421-.032-.421-.11-.453-.235h-.25L.47-3.703h.25c.015-.125.11-.672.219-.735.078-.046.687-.046.796-.046h1.688l-.813 1.109C1.703-2.172 1.5-.906 1.5-.281c0 .078 0 .453.375.453s.375-.36.375-.453v-.39c0-1.141.203-2.079.594-2.61Zm0 0"/><path id="e" d="M2.64-2.875c.454-.219 1-.61 1-1.234 0-.766-.78-1.188-1.515-1.188-.844 0-1.531.578-1.531 1.328 0 .297.094.563.297.797.14.172.172.188.656.5C.563-2.234.344-1.656.344-1.219c0 .89.89 1.39 1.765 1.39.97 0 1.766-.671 1.766-1.515 0-.5-.266-.828-.406-.968-.125-.126-.14-.141-.828-.563m-1.234-.75c-.234-.14-.422-.375-.422-.64 0-.5.547-.829 1.125-.829.61 0 1.125.422 1.125.985 0 .453-.359.843-.828 1.078Zm.39 1.094c.032.015.938.578 1.079.656.125.078.547.328.547.813 0 .609-.656.984-1.297.984-.719 0-1.312-.484-1.312-1.14 0-.594.437-1.063.984-1.313m0 0"/><path id="f" d="M3.125-2.344c0 1.938-.922 2.266-1.39 2.266-.173 0-.579-.016-.798-.266.36-.031.375-.297.375-.375a.37.37 0 0 0-.375-.375.37.37 0 0 0-.375.39c0 .548.454.876 1.188.876 1.094 0 2.125-1.094 2.125-2.797 0-2.062-.922-2.672-1.734-2.672-.953 0-1.797.734-1.797 1.781 0 1.016.781 1.766 1.687 1.766.563 0 .906-.36 1.094-.766Zm-1.062.375c-.376 0-.61-.172-.782-.468-.187-.282-.187-.672-.187-1.079 0-.468 0-.796.218-1.125.204-.296.454-.453.829-.453.53 0 .765.532.797.563.156.39.171 1.015.171 1.172 0 .64-.343 1.39-1.046 1.39m0 0"/><path id="g" d="M2.5-5.078c0-.219-.016-.219-.234-.219-.328.313-.75.5-1.5.5v.266c.218 0 .64 0 1.109-.203v4.078c0 .297-.031.39-.781.39H.812V0c.329-.031 1.016-.031 1.376-.031s1.046 0 1.374.031v-.266h-.28c-.75 0-.782-.093-.782-.39Zm0 0"/><path id="h" d="M3.89-2.547c0-.844-.078-1.36-.343-1.875-.344-.703-1-.875-1.438-.875-1 0-1.375.75-1.484.969C.344-3.75.328-2.953.328-2.547c0 .531.016 1.328.406 1.969.36.594.954.75 1.375.75.391 0 1.063-.125 1.47-.906.296-.578.312-1.297.312-1.813M2.11-.062c-.266 0-.813-.125-.985-.954-.094-.453-.094-1.203-.094-1.625 0-.546 0-1.109.094-1.546.172-.813.781-.891.984-.891.266 0 .829.14.985.86.094.437.094 1.046.094 1.577 0 .47 0 1.188-.094 1.641-.172.828-.719.938-.985.938m0 0"/><path id="i" d="M2.016-2.656c.625 0 1.03.453 1.03 1.297 0 1-.562 1.28-.983 1.28-.438 0-1.047-.155-1.329-.577.297 0 .5-.188.5-.438 0-.265-.187-.437-.453-.437-.203 0-.437.125-.437.453 0 .75.812 1.25 1.734 1.25 1.047 0 1.797-.734 1.797-1.531 0-.672-.531-1.266-1.344-1.453.625-.22 1.11-.75 1.11-1.391 0-.64-.72-1.094-1.547-1.094-.86 0-1.5.453-1.5 1.063 0 .297.187.422.406.422.25 0 .406-.172.406-.407 0-.297-.265-.406-.437-.406.344-.437.953-.469 1.094-.469.203 0 .812.063.812.89 0 .548-.234.891-.344 1.016-.234.25-.422.266-.906.297-.156 0-.219.016-.219.125 0 .11.078.11.219.11Zm0 0"/><path id="j" d="M3.14-5.156c0-.157 0-.219-.171-.219-.094 0-.11 0-.188.11L.234-1.564v.25h2.25v.672c0 .297-.015.375-.64.375h-.172V0c.672-.031.687-.031 1.14-.031.454 0 .47 0 1.141.031v-.266h-.172c-.625 0-.64-.078-.64-.375v-.671h.843v-.25h-.843Zm-.593.64v2.954H.516Zm0 0"/><clipPath id="a"><path d="M8 0h99.383v98H8Zm0 0"/></clipPath></defs><path fill="none" stroke="#7F7F7F" stroke-linecap="round" stroke-miterlimit="10" stroke-width=".399" d="M17.45 90.605v-1.992M34.457 90.605v-1.992M51.465 90.605v-1.992M68.473 90.605v-1.992M85.484 90.605v-1.992M102.492 90.605v-1.992M17.45 3.574V1.578M34.457 3.574V1.578M51.465 3.574V1.578M68.473 3.574V1.578M85.484 3.574V1.578M102.492 3.574V1.578M15.457 82.945h1.992M15.457 71.605h1.992M15.457 60.266h1.992M15.457 48.926h1.992M15.457 37.586h1.992M15.457 26.246h1.992M15.457 14.91h1.992M15.457 3.57h1.992M102.488 82.945h1.992M102.488 71.605h1.992M102.488 60.266h1.992M102.488 48.926h1.992M102.488 37.586h1.992M102.488 26.246h1.992M102.488 14.91h1.992M102.488 3.57h1.992"/><path fill="none" stroke="#7F7F7F" stroke-miterlimit="10" stroke-width=".399" d="M17.45 88.613h85.038M17.45 3.574h85.038M17.45 88.613V3.574M102.488 88.613V3.574"/><g clip-path="url(#a)"><path fill="none" stroke="#000" stroke-miterlimit="10" stroke-width=".598" d="m17.45 88.613 3.542-2.41 3.543-2.512 3.543-2.609 3.543-2.707 3.543-2.805 3.547-2.902 3.543-3.004 3.543-3.098 3.543-3.199 3.543-3.297 3.543-3.398 3.543-3.492 3.543-3.594 3.543-3.691 3.543-3.79 3.543-3.886 3.546-3.989 3.543-4.082 3.543-4.183 3.543-4.281 3.543-4.38 3.543-4.48 3.543-4.578 3.543-4.672"/></g><use xlink:href="#b" x="15.332" y="98.398" fill="red"/><use xlink:href="#c" x="32.34" y="98.398" fill="red"/><use xlink:href="#d" x="49.349" y="98.398" fill="red"/><use xlink:href="#e" x="66.357" y="98.398" fill="red"/><use xlink:href="#f" x="83.365" y="98.398" fill="red"/><g fill="red"><use xlink:href="#g" x="98.256" y="98.398"/><use xlink:href="#h" x="102.491" y="98.398"/></g><g fill="red"><use xlink:href="#i" x="4.332" y="85.511"/><use xlink:href="#h" x="8.567" y="85.511"/></g><g fill="red"><use xlink:href="#j" x="4.332" y="74.172"/><use xlink:href="#h" x="8.567" y="74.172"/></g><g fill="red"><use xlink:href="#b" x="4.332" y="62.833"/><use xlink:href="#h" x="8.567" y="62.833"/></g><g fill="red"><use xlink:href="#c" x="4.332" y="51.494"/><use xlink:href="#h" x="8.567" y="51.494"/></g><g fill="red"><use xlink:href="#d" x="4.332" y="40.155"/><use xlink:href="#h" x="8.567" y="40.155"/></g><g fill="red"><use xlink:href="#e" x="4.332" y="28.817"/><use xlink:href="#h" x="8.567" y="28.817"/></g><g fill="red"><use xlink:href="#f" x="4.332" y="17.478"/><use xlink:href="#h" x="8.567" y="17.478"/></g><g fill="red"><use xlink:href="#g" x=".098" y="6.139"/><use xlink:href="#h" x="4.333" y="6.139"/><use xlink:href="#h" x="8.567" y="6.139"/></g></svg>