<svg xmlns="http://www.w3.org/2000/svg" width="63.787" height="33.914"><defs><clipPath id="a"><path d="M0 0h63.68v33.871H0Zm0 0"/></clipPath></defs><g fill="none" stroke-miterlimit="10" stroke-width="1.993" clip-path="url(#a)"><path stroke="red" d="M21.824 21.898c0-5.503 8.922-9.964 19.926-9.964"/><path stroke="#00F" d="M21.824 21.898c11.004 0 19.926-4.46 19.926-9.964"/><path stroke="#FF7F00" d="M21.824 21.898c-11.004 0-19.926-4.46-19.926-9.964 0-5.5 8.922-9.961 19.926-9.961s19.926 4.46 19.926 9.96"/><path stroke="#000" d="M21.824 21.898c0 5.5 8.922 9.961 19.926 9.961s19.926-4.46 19.926-9.96c0-5.504-8.922-9.965-19.926-9.965"/></g></svg>