<svg xmlns="http://www.w3.org/2000/svg" width="21.973" height="4.646"><defs><clipPath id="a"><path d="M9 0h12.96v4.469H9Zm0 0"/></clipPath></defs><path fill="none" stroke="#000" stroke-miterlimit="10" stroke-width=".399" d="M.996 2.152H15.86"/><path d="M20.723 2.152c.183-.617-.754-1.117-2.098-1.117s-2.582.5-2.766 1.117c-.183.618.754 1.118 2.098 1.118 1.34 0 2.578-.5 2.766-1.118m0 0"/><g clip-path="url(#a)"><path fill="none" stroke="#000" stroke-miterlimit="10" stroke-width=".399" d="M5.062 0c-.002.617-1.09 1.117-2.433 1.117C1.285 1.117.197.617.2 0S1.288-1.117 2.63-1.117c1.34 0 2.429.5 2.431 1.117Zm0 0" transform="matrix(1 0 .3 -1 15.66 2.152)"/></g></svg>