<svg xmlns="http://www.w3.org/2000/svg" width="102.401" height="62.38"><defs><clipPath id="a"><path d="M88 19h14.102v20H88Zm0 0"/></clipPath></defs><path fill="none" stroke="#000" stroke-miterlimit="10" stroke-width=".399" d="M29.281 60.871h27.895v-6.973H29.28ZM43.23 45.727a3.49 3.49 0 0 0 0 6.976 3.486 3.486 0 0 0 3.485-3.488 3.48 3.48 0 0 0-1.535-2.89"/><path stroke="#000" stroke-linejoin="round" stroke-miterlimit="10" stroke-width=".39898803000000005" d="m45.625 48.332-1.79-2.55 3.036.702Zm0 0"/><path fill="none" stroke="#000" stroke-miterlimit="10" stroke-width=".399" d="M92.723 30.781H78.777m13.946-3.488H78.777"/><g clip-path="url(#a)"><path fill="none" stroke="#000" stroke-miterlimit="10" stroke-width=".399" d="M100.895 29.035a3.49 3.49 0 0 1-6.977 0 3.49 3.49 0 0 1 6.379-1.95"/></g><path stroke="#000" stroke-linejoin="round" stroke-miterlimit="10" stroke-width=".39898803000000005" d="m100.137 25.398.703 3.032-2.55-1.785Zm0 0"/><path fill="none" stroke="#000" stroke-miterlimit="10" stroke-width=".399" d="M.71 57.383h28.372m28.293 0H85.75V30.98m0-3.886V.69"/></svg>