<svg xmlns="http://www.w3.org/2000/svg" xmlns:xlink="http://www.w3.org/1999/xlink" width="87.256" height="76.977"><defs><path id="a" d="M8.25 0v-.469h-.969L4.72-6.703c-.11-.25-.219-.25-.39-.25-.282 0-.329.078-.391.25l-2.47 6c-.062.156-.093.234-.843.234H.406V0l1.172-.031c.39 0 .938 0 1.313.031v-.469S2-.469 2-.594l.047-.125.5-1.203h2.672l.593 1.453H4.86V0c.391-.031 1.329-.031 1.766-.031.39 0 1.266 0 1.625.031M5.016-2.39H2.734l1.141-2.766Zm0 0"/><path id="b" d="M-2.781-11.25c-1.438 0-2.438 1.281-2.563 3.063-.281-1.61-1.187-2.579-2.328-2.579-1.375 0-2.578 1.297-2.578 3.704v6.484h.703v-1.625h8.844v1.625H0v-6.938C0-10-1.312-11.25-2.781-11.25m-4.89 2.594c1.14 0 2.077.719 2.077 2.172v2.328h-3.953v-2.719c0-1.5 1.188-1.781 1.875-1.781m4.874-.39c.188 0 2.094 0 2.094 2.14v2.75h-4.36v-2.89c0-.298 0-1 .641-1.516.625-.485 1.469-.485 1.625-.485m0 0"/><path id="c" d="m4.125-7.14-.406-.235-.485.828-6.687-.89c-.266-.016-.313.078-.406.218-.141.25-.094.313.015.469L.125-1.61c.11.126.156.188-.219.829l-.11.187.407.235.547-1.016c.203-.344.469-.812.688-1.125l-.407-.234s-.437.765-.547.703l-.093-.094-.797-1.031L.938-5.47l1.562.203-.484.829.406.234c.172-.36.64-1.172.86-1.547.187-.344.624-1.094.843-1.39M.438-5.532-.703-3.563l-1.828-2.374Zm0 0"/><path id="d" d="M-11.14-3.219c-.72 1.25-.11 2.75 1.374 3.75-1.53-.547-2.828-.25-3.39.735-.688 1.187-.172 2.875 1.922 4.078l5.609 3.25.36-.61-1.407-.812L-2.25-.484l1.406.812.344-.61-6.016-3.468c-2.14-1.25-3.89-.734-4.625.531m-.188 5.531c.562-.984 1.656-1.437 2.922-.703l2.015 1.157-1.968 3.422-2.36-1.36c-1.297-.75-.953-1.922-.61-2.516m2.11-4.406c.093-.156 1.046-1.812 2.89-.75l2.39 1.375-2.187 3.782L-8.641.875c-.25-.156-.859-.5-.984-1.328-.094-.781.328-1.5.406-1.64m0 0"/></defs><path fill="none" stroke="#7F7F7F" stroke-miterlimit="10" stroke-width=".199" d="M.738 64.676h85.04M.737 36.328h85.04M.737 7.992h85.04M.737 64.676V7.98m28.344 56.696V7.98M57.43 64.676V7.98m28.336 56.696V7.98"/><path fill="none" stroke="#000" stroke-miterlimit="10" stroke-width=".399" d="M21.434 71.473h15.3V57.875h-15.3Zm0 0"/><use xlink:href="#a" x="24.754" y="68.151"/><path fill="none" stroke="#000" stroke-miterlimit="10" stroke-width=".399" d="M47.324 53.582v22.184H67.54V53.582Zm0 0"/><use xlink:href="#b" x="62.555" y="70.787"/><path fill="none" stroke="#000" stroke-miterlimit="10" stroke-width=".399" d="M17.637 57.297h15.297V43.703H17.637Zm0 0"/><use xlink:href="#a" x="20.957" y="53.978"/><path fill="none" stroke="#000" stroke-miterlimit="10" stroke-width=".399" d="M39.73 25.234v22.188h20.211V25.234Zm0 0"/><use xlink:href="#b" x="54.96" y="42.44"/><path fill="none" stroke="#000" stroke-miterlimit="10" stroke-width=".399" d="m12.848 30.102-7.649 13.25 11.774 6.796 7.648-13.25Zm0 0"/><use xlink:href="#c" x="15.757" y="45.612"/><path fill="none" stroke="#000" stroke-miterlimit="10" stroke-width=".399" d="m14.422 18.781 19.215 11.094 10.105-17.504-19.21-11.094Zm0 0"/><use xlink:href="#d" x="36.939" y="14.194"/></svg>