<svg xmlns="http://www.w3.org/2000/svg" xmlns:xlink="http://www.w3.org/1999/xlink" width="81.982" height="88.436"><defs><path id="b" d="M5.563-1.812c.14 0 .312 0 .312-.172 0-.188-.172-.188-.312-.188H1c-.125 0-.297 0-.297.188 0 .172.172.172.297.172Zm0 0"/><path id="c" d="M2.5-5.078c0-.219-.016-.219-.234-.219-.328.313-.75.5-1.5.5v.266c.218 0 .64 0 1.109-.203v4.078c0 .297-.031.39-.781.39H.812V0c.329-.031 1.016-.031 1.376-.031s1.046 0 1.374.031v-.266h-.28c-.75 0-.782-.093-.782-.39Zm0 0"/><path id="e" d="M3.89-2.547c0-.844-.078-1.36-.343-1.875-.344-.703-1-.875-1.438-.875-1 0-1.375.75-1.484.969C.344-3.75.328-2.953.328-2.547c0 .531.016 1.328.406 1.969.36.594.954.75 1.375.75.391 0 1.063-.125 1.47-.906.296-.578.312-1.297.312-1.813M2.11-.062c-.266 0-.813-.125-.985-.954-.094-.453-.094-1.203-.094-1.625 0-.546 0-1.109.094-1.546.172-.813.781-.891.984-.891.266 0 .829.14.985.86.094.437.094 1.046.094 1.577 0 .47 0 1.188-.094 1.641-.172.828-.719.938-.985.938m0 0"/><path id="f" d="M2.25-1.625c.125-.125.453-.39.594-.5.484-.453.953-.89.953-1.61 0-.953-.797-1.562-1.781-1.562-.97 0-1.594.719-1.594 1.438 0 .39.312.437.422.437.172 0 .422-.11.422-.422 0-.406-.407-.406-.5-.406.234-.594.765-.781 1.156-.781.734 0 1.125.625 1.125 1.297 0 .828-.578 1.437-1.531 2.39l-1 1.047C.422-.219.422-.203.422 0h3.14l.235-1.422h-.25c-.016.156-.078.547-.172.703-.047.063-.656.063-.781.063H1.172Zm0 0"/><path id="h" d="M4.406-3.625a.504.504 0 0 0-.422.484c0 .172.125.329.344.329.25 0 .5-.22.5-.532 0-.422-.453-.625-.875-.625-.531 0-.844.485-.953.672a1.04 1.04 0 0 0-1-.672c-.953 0-1.484 1.156-1.484 1.39 0 .079.062.11.125.11.078 0 .109-.047.125-.11.28-.89.875-1.155 1.218-1.155.266 0 .485.172.485.593 0 .313-.375 1.75-.5 2.188-.063.265-.344.828-.828.828-.188 0-.375-.062-.453-.11.234-.046.421-.265.421-.484 0-.234-.171-.328-.343-.328-.266 0-.5.219-.5.531 0 .438.484.61.859.61.531 0 .828-.422.969-.672.219.594.75.672.984.672.969 0 1.485-1.156 1.485-1.375 0-.047-.032-.11-.11-.11-.11 0-.11.032-.156.172-.203.64-.719 1.094-1.188 1.094-.25 0-.5-.156-.5-.594 0-.203.125-.687.204-1.031.046-.156.28-1.125.296-1.187.11-.329.375-.797.844-.797.156 0 .328.015.453.109m0 0"/><path id="i" d="M3.36-3.594h.796c.188 0 .282 0 .282-.156 0-.11-.094-.11-.266-.11h-.766c.094-.546.219-1.28.344-1.765.078-.344.297-.469.469-.469.062 0 .265.016.422.125-.188.032-.438.188-.438.485 0 .234.172.328.328.328.25 0 .5-.203.5-.532 0-.406-.39-.64-.812-.64-.407 0-.813.297-1 .656-.203.39-.266.734-.453 1.813h-.641c-.172 0-.281 0-.281.156 0 .11.11.11.265.11h.61C2.469-2.282 2.156-.5 1.953.436c-.11.5-.25 1.172-.672 1.172-.14 0-.328-.046-.406-.125.219-.03.438-.218.438-.484 0-.234-.172-.328-.329-.328a.51.51 0 0 0-.5.531c0 .422.407.64.797.64.907 0 1.328-1.5 1.469-2.265Zm0 0"/><path id="j" d="M3.063 2.14c0-.046-.032-.078-.079-.14C1.828.938 1.47-.672 1.47-2.25c0-1.375.265-3.062 1.531-4.266.047-.046.063-.062.063-.109a.107.107 0 0 0-.11-.11c-.11 0-.922.657-1.406 1.626-.422.859-.64 1.797-.64 2.859 0 .64.077 1.672.577 2.719.532 1.11 1.36 1.765 1.47 1.765.062 0 .108-.03.108-.093m0 0"/><path id="k" d="M2.672-2.25c0-.734-.11-1.719-.578-2.719C1.563-6.079.734-6.734.625-6.734c-.094 0-.11.078-.11.109 0 .047.016.063.079.125.531.469 1.515 1.688 1.515 4.25C2.11-.969 1.875.813.58 2.031c-.016.016-.063.063-.063.11 0 .015.015.093.109.093.11 0 .922-.64 1.406-1.625.422-.859.64-1.78.64-2.859m0 0"/><clipPath id="a"><path d="M2 81h13v7.152H2Zm0 0"/></clipPath><clipPath id="d"><path d="M62 81h7v7.152h-7Zm0 0"/></clipPath><clipPath id="g"><path d="M72 72h9.973v11H72Zm0 0"/></clipPath></defs><path fill="none" stroke="#000" stroke-linecap="round" stroke-miterlimit="10" stroke-width=".399" d="M8.473 79.371v-3.988M65.164 79.371v-3.988M34.828 49.031h3.984M34.828 20.684h3.984"/><path fill="none" stroke="#000" stroke-miterlimit="10" stroke-width=".399" d="M1 77.379h71.234"/><path fill="none" stroke="#000" stroke-linecap="round" stroke-linejoin="round" stroke-miterlimit="10" stroke-width=".399" d="M70.363 74.984c.38 1.438 1.223 2.114 2.07 2.395-.847.277-1.69.953-2.07 2.39"/><path fill="none" stroke="#000" stroke-miterlimit="10" stroke-width=".399" d="M36.82 84.848V13.609"/><path fill="none" stroke="#000" stroke-linecap="round" stroke-linejoin="round" stroke-miterlimit="10" stroke-width=".399" d="M34.43 15.484c1.433-.379 2.11-1.222 2.39-2.074.278.852.953 1.695 2.39 2.074"/><path fill="none" stroke="#000" stroke-miterlimit="10" stroke-width=".598" d="M8.473 20.684s1.707 3.324 2.363 4.527a134 134 0 0 0 2.36 4.133 112 112 0 0 0 2.363 3.742c.656.98 1.707 2.473 2.363 3.344a67 67 0 0 0 2.36 2.953 53 53 0 0 0 2.363 2.558 43 43 0 0 0 2.363 2.168 34 34 0 0 0 2.36 1.77c.655.437 1.706 1.05 2.362 1.379s1.708.765 2.364.984 1.707.48 2.363.59c.652.11 1.703.2 2.36.2s1.706-.09 2.363-.2a18 18 0 0 0 2.363-.59 22 22 0 0 0 2.36-.98 26 26 0 0 0 2.363-1.38 33 33 0 0 0 2.363-1.773 41 41 0 0 0 2.36-2.164 55 55 0 0 0 2.363-2.558 70 70 0 0 0 2.363-2.95 85 85 0 0 0 2.36-3.347c.655-.985 1.706-2.649 2.362-3.738a144 144 0 0 0 2.364-4.133c.656-1.203 2.363-4.528 2.363-4.528"/><g clip-path="url(#a)"><path fill="#FFF" d="M13.383 81.031H3.559c-.825 0-1.493.668-1.493 1.492v4.97c0 .827.668 1.495 1.493 1.495h9.824c.828 0 1.496-.668 1.496-1.496v-4.969c0-.824-.668-1.492-1.496-1.492m0 0"/></g><use xlink:href="#b" x="3.062" y="87.162"/><use xlink:href="#c" x="9.648" y="87.162"/><g clip-path="url(#d)"><path fill="#FFF" d="M66.785 81.031h-3.238c-.824 0-1.496.668-1.496 1.492v4.141c0 .824.672 1.492 1.496 1.492h3.238c.824 0 1.492-.668 1.492-1.492v-4.14c0-.825-.668-1.493-1.492-1.493m0 0"/></g><use xlink:href="#c" x="63.048" y="87.162"/><path fill="#FFF" d="M33.664 79.035h-3.238c-.824 0-1.492.672-1.492 1.496v4.14c0 .825.668 1.493 1.492 1.493h3.238c.824 0 1.496-.668 1.496-1.492v-4.14c0-.825-.672-1.497-1.496-1.497m0 0"/><use xlink:href="#e" x="29.928" y="85.17"/><path fill="#FFF" d="M31.672 45.465h-3.238c-.825 0-1.493.672-1.493 1.496v4.14c0 .825.668 1.493 1.493 1.493h3.238c.824 0 1.496-.668 1.496-1.492V46.96c0-.824-.672-1.496-1.496-1.496m0 0"/><use xlink:href="#c" x="27.936" y="51.599"/><path fill="#FFF" d="M31.672 17.121h-3.238c-.825 0-1.493.668-1.493 1.492v4.14c0 .825.668 1.497 1.493 1.497h3.238c.824 0 1.496-.672 1.496-1.496v-4.14c0-.825-.672-1.493-1.496-1.493m0 0"/><use xlink:href="#f" x="27.936" y="23.253"/><g clip-path="url(#g)"><path fill="#FFF" d="M72.832 82.629h11.867V72.125H72.832Zm0 0"/></g><use xlink:href="#h" x="76.153" y="79.308"/><path fill="#FFF" d="M24.578 13.012h24.48V-2.594h-24.48Zm0 0"/><use xlink:href="#i" x="27.899" y="7.451"/><use xlink:href="#j" x="33.347" y="7.451"/><use xlink:href="#h" x="36.931" y="7.451"/><use xlink:href="#k" x="42.154" y="7.451"/></svg>