<svg xmlns="http://www.w3.org/2000/svg" xmlns:xlink="http://www.w3.org/1999/xlink" width="72.47" height="10.568"><defs><path id="a" d="M2.938-6.375c0-.25 0-.266-.235-.266C2.078-6 1.203-6 .891-6v.313c.203 0 .78 0 1.297-.266v5.172c0 .36-.032.469-.922.469H.953V0c.344-.031 1.203-.031 1.61-.031.39 0 1.265 0 1.609.031v-.312h-.313c-.906 0-.921-.11-.921-.47Zm0 0"/><path id="b" d="M4.578-3.187c0-.797-.047-1.594-.39-2.329C3.734-6.484 2.906-6.64 2.5-6.64c-.61 0-1.328.266-1.75 1.188-.312.687-.36 1.469-.36 2.266 0 .75.032 1.64.454 2.406a1.83 1.83 0 0 0 1.64 1c.532 0 1.297-.203 1.735-1.156.312-.688.36-1.47.36-2.25M2.484 0c-.39 0-.984-.25-1.156-1.203-.11-.594-.11-1.516-.11-2.11 0-.64 0-1.296.079-1.828.187-1.187.937-1.28 1.187-1.28.329 0 .985.187 1.172 1.171.11.563.11 1.313.11 1.938 0 .75 0 1.421-.11 2.062C3.5-.297 2.937 0 2.484 0m0 0"/><path id="c" d="M2.36-3.656a.77.77 0 0 0-.782-.766.767.767 0 0 0-.766.766.774.774 0 1 0 1.547 0m.03 3.344c0-.657-.25-1.25-.812-1.25-.469 0-.766.359-.766.78 0 .407.266.782.766.782.234 0 .39-.094.453-.125a2.67 2.67 0 0 1-.828 1.703c-.078.078-.094.094-.094.156 0 .094.11.204.188.204.14 0 1.094-.907 1.094-2.25m0 0"/></defs><use xlink:href="#a" x="-.147" y="7.434"/><use xlink:href="#b" x="4.834" y="7.434"/><use xlink:href="#b" x="11.469" y="7.434"/><use xlink:href="#b" x="16.451" y="7.434"/><use xlink:href="#b" x="21.432" y="7.434"/><use xlink:href="#c" x="26.42" y="7.434"/><use xlink:href="#a" x="33.414" y="7.434"/><use xlink:href="#b" x="40.049" y="7.434"/><use xlink:href="#b" x="45.03" y="7.434"/><use xlink:href="#b" x="50.012" y="7.434"/><use xlink:href="#b" x="56.657" y="7.434"/><use xlink:href="#b" x="61.638" y="7.434"/><use xlink:href="#b" x="66.619" y="7.434"/></svg>