<svg xmlns="http://www.w3.org/2000/svg" xmlns:xlink="http://www.w3.org/1999/xlink" width="209.126" height="114.806"><defs><path id="a" d="M5.563-1.812c.14 0 .312 0 .312-.172 0-.188-.172-.188-.312-.188H1c-.125 0-.297 0-.297.188 0 .172.172.172.297.172Zm0 0"/><path id="b" d="M4.031-4.86c.078-.077.078-.093.078-.265H2.08a9 9 0 0 1-.642-.031c-.421-.032-.421-.11-.453-.235h-.25L.47-3.703h.25c.015-.125.11-.672.219-.735.078-.046.687-.046.796-.046h1.688l-.813 1.109C1.703-2.172 1.5-.906 1.5-.281c0 .078 0 .453.375.453s.375-.36.375-.453v-.39c0-1.141.203-2.079.594-2.61Zm0 0"/><path id="c" d="M1.11-4.484c.109.03.421.125.765.125 1 0 1.594-.703 1.594-.828 0-.094-.047-.11-.094-.11-.016 0-.031 0-.094.031a3 3 0 0 1-1.11.22c-.468 0-.858-.11-1.108-.22-.079-.03-.094-.03-.11-.03-.094 0-.094.077-.094.234v2.328c0 .14 0 .234.125.234.063 0 .079-.031.125-.094.094-.11.391-.515 1.079-.515.437 0 .656.359.734.515.125.281.14.656.14.953s0 .735-.218 1.079c-.156.25-.485.484-.906.484A1.27 1.27 0 0 1 .734-.922c.016.016.079.016.079.016.218 0 .406-.14.406-.39a.39.39 0 0 0-.39-.407c-.157 0-.407.078-.407.422 0 .718.625 1.453 1.531 1.453 1 0 1.844-.781 1.844-1.766 0-.922-.672-1.75-1.61-1.75-.39 0-.765.125-1.078.406Zm0 0"/><path id="e" d="M3.89-2.547c0-.844-.078-1.36-.343-1.875-.344-.703-1-.875-1.438-.875-1 0-1.375.75-1.484.969C.344-3.75.328-2.953.328-2.547c0 .531.016 1.328.406 1.969.36.594.954.75 1.375.75.391 0 1.063-.125 1.47-.906.296-.578.312-1.297.312-1.813M2.11-.062c-.266 0-.813-.125-.985-.954-.094-.453-.094-1.203-.094-1.625 0-.546 0-1.109.094-1.546.172-.813.781-.891.984-.891.266 0 .829.14.985.86.094.437.094 1.046.094 1.577 0 .47 0 1.188-.094 1.641-.172.828-.719.938-.985.938m0 0"/><path id="f" d="M2.25-1.625c.125-.125.453-.39.594-.5.484-.453.953-.89.953-1.61 0-.953-.797-1.562-1.781-1.562-.97 0-1.594.719-1.594 1.438 0 .39.312.437.422.437.172 0 .422-.11.422-.422 0-.406-.407-.406-.5-.406.234-.594.765-.781 1.156-.781.734 0 1.125.625 1.125 1.297 0 .828-.578 1.437-1.531 2.39l-1 1.047C.422-.219.422-.203.422 0h3.14l.235-1.422h-.25c-.016.156-.078.547-.172.703-.047.063-.656.063-.781.063H1.172Zm0 0"/><path id="g" d="M3.14-5.156c0-.157 0-.219-.171-.219-.094 0-.11 0-.188.11L.234-1.564v.25h2.25v.672c0 .297-.015.375-.64.375h-.172V0c.672-.031.687-.031 1.14-.031.454 0 .47 0 1.141.031v-.266h-.172c-.625 0-.64-.078-.64-.375v-.671h.843v-.25h-.843Zm-.593.64v2.954H.516Zm0 0"/><path id="d" d="M3.266-1.5c0-.75-.61-1.36-1.36-1.36-.734 0-1.343.61-1.343 1.36 0 .766.609 1.36 1.343 1.36.75 0 1.36-.594 1.36-1.36M1.906-.453A1.024 1.024 0 0 1 .875-1.5c0-.578.453-1.047 1.031-1.047s1.047.469 1.047 1.047c0 .594-.469 1.047-1.047 1.047m0 0"/><path id="h" d="M5.516 0v-.437c-.532 0-.61 0-.61-.36v-5.422l-1.61.063v.437c.548 0 .61 0 .61.36v1.734a2 2 0 0 0-1.25-.406c-1.453 0-2.312.89-2.312 2.047 0 1.187.844 2.03 2.219 2.03.562 0 1-.202 1.296-.437v.438ZM3.859-.984a1.43 1.43 0 0 1-1.203.672c-1.11 0-1.11-1.063-1.11-1.657 0-.531 0-.906.235-1.234.235-.36.672-.469.985-.469.437 0 .812.188 1.093.547Zm0 0"/><path id="i" d="M4.563-1.047c0-.172-.172-.172-.235-.172-.156 0-.172.047-.234.172-.203.469-.75.719-1.313.719-1.281 0-1.297-1.156-1.297-1.594h2.782c.187 0 .297 0 .297-.25 0-.203-.016-1-.594-1.484-.406-.328-.953-.406-1.39-.406-1.532 0-2.282.968-2.282 2.046 0 1.172.89 2.063 2.406 2.063 1.485 0 1.86-.938 1.86-1.094M3.688-2.25H1.483c.016-.406.063-1.453 1.094-1.453 1.047 0 1.094 1.094 1.11 1.453m0 0"/><path id="j" d="M5.156-3.547c0-.234-.172-.547-.593-.547-.438 0-.813.219-.985.344-.375-.219-.781-.281-1.219-.281-1.375 0-1.843.734-1.843 1.328 0 .484.312.812.468.937a1.25 1.25 0 0 0-.296.782c0 .39.187.703.375.875C.39.078.297.453.297.656c0 .532.625 1.14 2.344 1.14C4.219 1.797 5 1.313 5 .626c0-.312-.11-.86-.734-1.156C3.75-.766 3.28-.766 2.39-.766h-.453c-.282 0-.407 0-.563-.109a.56.56 0 0 1-.203-.453c0-.172.062-.281.062-.281.329.172.735.234 1.125.234 1.375 0 1.844-.734 1.844-1.328 0-.36-.172-.656-.36-.844.235-.125.423-.14.532-.172 0 .047-.031.094-.031.188a.407.407 0 1 0 .813-.016m-1.984.844c0 .39 0 .969-.813.969s-.812-.578-.812-.97c0-.405 0-.968.812-.968s.813.563.813.969M4.203.657c0 .296-.328.78-1.547.78C1.47 1.438 1.094 1 1.094.642c0-.516.578-.516.703-.516H2.89c.28 0 1.312 0 1.312.531m0 0"/><path id="k" d="M4.078-3.281c0-.453-.469-.75-1-.75-.625 0-1 .453-1.203.968h-.016v-.968L.375-3.97v.438c.531 0 .61 0 .61.36v2.734h-.61V0l1.14-.031c.22 0 .75 0 1.22.031v-.437h-.766v-1.516c0-.656.25-1.703 1.11-1.719a.57.57 0 0 0-.142.39c0 .391.313.579.563.579.297 0 .578-.203.578-.578m0 0"/><path id="l" d="M4.703-5.922c.031-.125.031-.14.031-.172 0-.078-.046-.125-.14-.125-.125 0-.907.063-1.094.078-.078.016-.187.032-.187.172 0 .125.109.125.25.125.421 0 .421.063.421.14 0 .063-.078.376-.125.563l-.171.688c-.094.344-.188.687-.266 1.047-.172-.328-.438-.563-.844-.563-1.047 0-2.203 1.25-2.203 2.61C.375-.375 1 .094 1.609.094c.579 0 1.047-.485 1.204-.656.093.5.546.656.828.656.265 0 .484-.11.687-.485.156-.296.281-.859.281-.89 0-.047-.03-.11-.109-.11-.11 0-.125.047-.156.22-.203.78-.39 1.046-.672 1.046-.235 0-.281-.219-.281-.406 0-.125.046-.375.046-.406Zm-1.86 4.844c-.03.14-.046.156-.187.328-.328.39-.687.625-1.031.625-.437 0-.578-.453-.578-.844 0-.437.25-1.469.469-1.906.28-.531.703-.86 1.062-.86.594 0 .735.72.735.766s-.016.094-.032.14Zm0 0"/><path id="m" d="M2.922-3.594v-.265H1.609v-1.657h-.25c0 .75-.312 1.672-1.187 1.704v.218h.781v2.485c0 1 .719 1.203 1.203 1.203.594 0 .906-.563.906-1.203v-.516h-.25v.484c0 .672-.28.985-.593.985-.61 0-.61-.781-.61-.953v-2.485Zm0 0"/><path id="n" d="M3.063-.64c.046.374.312.687.703.687.218 0 .78-.125.78-.844v-.5h-.25v.484c0 .11 0 .547-.327.547-.313 0-.313-.421-.313-.562v-1.578c0-.516 0-.813-.406-1.188-.328-.297-.766-.422-1.219-.422-.75 0-1.375.375-1.375.954 0 .265.188.421.422.421a.394.394 0 0 0 .406-.406c0-.39-.39-.437-.406-.437.25-.235.688-.313.938-.313.453 0 .968.344.968 1.14v.282c-.484.031-1.156.063-1.75.36-.656.312-.843.78-.843 1.14 0 .734.859.969 1.468.969.735 0 1.079-.485 1.204-.735m-.079-.626c0 .875-.671 1.141-1.062 1.141-.422 0-.813-.312-.813-.75 0-.594.5-1.219 1.875-1.281Zm0 0"/><path id="o" d="M1.672-2.328c0-.953.672-1.406 1.234-1.406.531 0 .64.437.64.968v2.079c0 .406-.093.406-.687.406V0c.422-.016.594-.031 1.032-.031.422 0 .547.015 1.015.031v-.281c-.453 0-.687 0-.687-.281v-1.72c0-.734 0-1-.25-1.312-.203-.25-.547-.375-1-.375-.828 0-1.219.625-1.344.875h-.016v-.875l-1.296.11v.265c.609 0 .687.063.687.516v2.39C1-.28.906-.28.313-.28V0c.421-.016.593-.031 1.03-.031.423 0 .548.015 1.016.031v-.281c-.593 0-.687 0-.687-.406Zm0 0"/></defs><path fill="none" stroke="#7F7F7F" stroke-linecap="round" stroke-miterlimit="10" stroke-width=".399" d="M24.746 105.223v-1.993M46.895 105.223v-1.993M69.04 105.223v-1.993M91.184 105.223v-1.993M113.332 105.223v-1.993M135.477 105.223v-1.993M157.621 105.223v-1.993M13.344 85.34h1.992M13.344 69.898h1.992M13.344 54.453h1.992M13.344 39.008h1.992M13.344 23.563h1.992"/><path fill="none" stroke="#7F7F7F" stroke-miterlimit="10" stroke-width=".399" d="M20.316 103.23h141.735"/><path fill="none" stroke="#BFBFBF" stroke-linecap="square" stroke-miterlimit="10" stroke-width=".399" d="M20.316 98.246h141.735M20.316 10.656h141.735"/><path fill="none" stroke="#7F7F7F" stroke-miterlimit="10" stroke-width=".399" d="M15.336 98.246v-87.59"/><path fill="none" stroke="#BFBFBF" stroke-linecap="square" stroke-miterlimit="10" stroke-width=".399" d="M20.316 98.246v-87.59M162.05 98.246v-87.59"/><path fill="none" stroke="#000" stroke-miterlimit="10" stroke-width=".598" d="M20.316 98.246s4.27-14.406 5.907-17.996c1.64-3.594 4.27-6.172 5.906-7.895 1.64-1.722 4.266-3.484 5.906-4.527 1.637-1.047 4.266-2.281 5.906-3.004 1.637-.719 4.266-1.644 5.903-2.187 1.64-.54 4.27-1.274 5.906-1.703 1.64-.434 4.27-1.043 5.906-1.403 1.64-.36 4.266-.886 5.907-1.203 1.636-.312 4.265-.781 5.906-1.066 1.636-.285 4.265-.715 5.906-.98 1.637-.266 4.266-.673 5.902-.927 1.641-.253 4.27-.652 5.907-.902 1.64-.25 4.265-.648 5.906-.902 1.64-.254 4.265-.664 5.906-.93 1.637-.262 4.266-.695 5.906-.98 1.637-.282 4.266-.75 5.903-1.067 1.64-.316 4.27-.84 5.906-1.199 1.64-.363 4.27-.973 5.906-1.402 1.64-.43 4.266-1.164 5.906-1.707 1.637-.54 4.266-1.465 5.907-2.188 1.636-.719 4.265-1.957 5.906-3 1.637-1.047 4.266-2.805 5.902-4.527 1.64-1.723 4.27-4.301 5.907-7.89 1.64-3.595 5.906-18.005 5.906-18.005"/><use xlink:href="#a" x="14.355" y="113.541"/><use xlink:href="#b" x="20.942" y="113.541"/><use xlink:href="#c" x="25.177" y="113.541"/><use xlink:href="#d" x="30.821" y="110.728"/><use xlink:href="#a" x="36.501" y="113.541"/><use xlink:href="#c" x="43.087" y="113.541"/><use xlink:href="#e" x="47.322" y="113.541"/><use xlink:href="#d" x="52.967" y="110.728"/><use xlink:href="#a" x="58.646" y="113.541"/><use xlink:href="#f" x="65.233" y="113.541"/><use xlink:href="#c" x="69.468" y="113.541"/><use xlink:href="#d" x="75.112" y="110.728"/><use xlink:href="#e" x="86.202" y="113.541"/><use xlink:href="#d" x="91.847" y="110.728"/><use xlink:href="#f" x="106.23" y="113.541"/><use xlink:href="#c" x="110.465" y="113.541"/><use xlink:href="#d" x="116.11" y="110.728"/><use xlink:href="#c" x="128.376" y="113.541"/><use xlink:href="#e" x="132.611" y="113.541"/><use xlink:href="#d" x="138.255" y="110.728"/><use xlink:href="#b" x="150.521" y="113.541"/><use xlink:href="#c" x="154.756" y="113.541"/><use xlink:href="#d" x="160.401" y="110.728"/><use xlink:href="#a" x="-.133" y="87.494"/><use xlink:href="#g" x="6.454" y="87.494"/><use xlink:href="#a" x="-.133" y="72.05"/><use xlink:href="#f" x="6.454" y="72.05"/><use xlink:href="#e" x="6.454" y="57.021"/><use xlink:href="#f" x="6.454" y="41.577"/><use xlink:href="#g" x="6.454" y="26.133"/><use xlink:href="#h" x="169.234" y="105.441"/><use xlink:href="#i" x="175.125" y="105.441"/><use xlink:href="#j" x="179.994" y="105.441"/><use xlink:href="#k" x="185.302" y="105.441"/><use xlink:href="#i" x="189.677" y="105.441"/><use xlink:href="#i" x="194.546" y="105.441"/><use xlink:href="#l" x="202.948" y="105.441"/><use xlink:href="#m" x="5.526" y="7.138"/><use xlink:href="#n" x="9.11" y="7.138"/><use xlink:href="#o" x="13.718" y="7.138"/><use xlink:href="#l" x="20.373" y="7.138"/></svg>