<svg xmlns="http://www.w3.org/2000/svg" xmlns:xlink="http://www.w3.org/1999/xlink" width="84.728" height="26.084"><defs><path id="b" d="M8.25 0v-.469h-.969L4.72-6.703c-.11-.25-.219-.25-.39-.25-.282 0-.329.078-.391.25l-2.47 6c-.062.156-.093.234-.843.234H.406V0l1.172-.031c.39 0 .938 0 1.313.031v-.469S2-.469 2-.594l.047-.125.5-1.203h2.672l.593 1.453H4.86V0c.391-.031 1.329-.031 1.766-.031.39 0 1.266 0 1.625.031M5.016-2.39H2.734l1.141-2.766Zm0 0"/><path id="c" d="M7.5-1.86c0-.952-.844-1.624-2.031-1.702 1.078-.204 1.718-.797 1.718-1.563 0-.922-.875-1.719-2.468-1.719H.39v.469h1.078v5.906H.39V0h4.625C6.672 0 7.5-.875 7.5-1.86M5.766-5.124c0 .766-.47 1.39-1.438 1.39H2.766v-2.64h1.812c1.016 0 1.188.797 1.188 1.25m.28 3.266c0 .109 0 1.39-1.437 1.39H2.766v-2.906h1.937c.203 0 .672 0 1.016.422.328.422.328.984.328 1.094m0 0"/><path id="d" d="M7.64-2.266c0-.203-.077-.203-.25-.203-.124 0-.218 0-.218.172C7.094-.969 5.89-.359 4.89-.359c-.782 0-1.625-.235-2.141-.844-.469-.578-.594-1.313-.594-2.219 0-.562.031-1.625.672-2.297.64-.656 1.516-.765 2.031-.765 1.079 0 2.016.765 2.235 2.03.031.188.047.204.265.204.266 0 .282-.016.282-.281v-2.14c0-.188 0-.282-.188-.282-.094 0-.11.031-.187.094l-.657.593a3.03 3.03 0 0 0-1.968-.687c-2.485 0-4 1.484-4 3.531S2.156.11 4.64.11c1.875 0 3-1.218 3-2.375m0 0"/><path id="e" d="M8.14-3.36c0-2.187-1.484-3.484-3.468-3.484H.39v.469h1.078v5.906H.39V0h4.297C6.656 0 8.14-1.219 8.14-3.36m-1.468-.015c0 1.094-.11 1.625-.438 2.063-.468.687-1.343.843-1.953.843H2.828v-5.906h1.453c.657 0 1.485.188 1.969.89.344.516.422 1.188.422 2.11m0 0"/><path id="g" d="M7.203-2.734h-.469C6.516-1.36 6.234-.47 4.391-.47H2.875V-3.28h.547c.969 0 1.062.437 1.062 1.172h.47v-2.813h-.47c0 .75-.093 1.172-1.062 1.172h-.547v-2.562h1.516c1.609 0 1.875.734 2.03 1.937h.47l-.313-2.406H.391v.468h1.078v5.844H.39V0H6.75Zm0 0"/><path id="h" d="m6.734-4.375-.312-2.406H.39v.468h1.078v5.844H.39V0c.375-.031 1.39-.031 1.828-.031.484 0 1.562 0 2.015.031v-.469H2.875v-2.687h.5c.969 0 1.047.422 1.047 1.156h.469v-2.797h-.47c0 .734-.077 1.172-1.046 1.172h-.5v-2.687h1.406c1.594 0 1.828.765 1.985 1.937Zm0 0"/><path id="i" d="M8.422-2.281v-.469c-.344.031-1.219.031-1.61.031-.578 0-1.5 0-2.03-.031v.469h1.421v1c0 .187 0 .484-.375.718-.266.141-.578.204-.906.204-.86 0-1.719-.282-2.203-.907-.422-.546-.563-1.25-.563-2.156 0-1.125.203-1.703.578-2.187.391-.5 1.157-.875 2.125-.875 1.063 0 2.016.765 2.235 2.03.031.188.031.204.265.204.25 0 .266-.016.266-.281v-2.14c0-.188 0-.282-.172-.282-.094 0-.11.031-.203.094l-.656.593a3.03 3.03 0 0 0-1.953-.687c-2.453 0-4 1.469-4 3.531C.64-1.437 2.078.11 4.656.11c.328 0 1.36-.015 1.86-.64.297.265.906.531.968.531.141 0 .141-.125.141-.281v-2Zm0 0"/><path id="j" d="M8.578 0v-.469H7.5v-5.906h1.078v-.469c-.39.032-1.36.032-1.797.032-.422 0-1.39 0-1.781-.032v.469h1.078v2.594H2.875v-2.594h1.078v-.469c-.375.032-1.344.032-1.781.032-.422 0-1.406 0-1.781-.032v.469h1.078v5.906H.39V0C.766-.031 1.75-.031 2.17-.031c.438 0 1.407 0 1.782.031v-.469H2.875v-2.843h3.203V-.47H5V0c.39-.031 1.36-.031 1.781-.031.438 0 1.407 0 1.797.031m0 0"/><clipPath id="a"><path d="M0 0h48v25.625H0Zm0 0"/></clipPath><clipPath id="f"><path d="M38 0h46.594v25.625H38Zm0 0"/></clipPath></defs><g clip-path="url(#a)"><path fill="none" stroke="#000" stroke-miterlimit="10" stroke-width=".399" d="M1.082 12.578V3.234c5.594 3.32 14.66 3.32 20.258 0 5.594-3.32 14.66-3.32 20.254 0v18.688c-5.594-3.324-14.66-3.324-20.254 0-5.598 3.32-14.664 3.32-20.258 0Zm0 0"/></g><use xlink:href="#b" x="4.402" y="15.999"/><use xlink:href="#c" x="13.06" y="15.999"/><use xlink:href="#d" x="21.209" y="15.999"/><use xlink:href="#e" x="29.488" y="15.999"/><g clip-path="url(#f)"><path fill="none" stroke="#000" stroke-miterlimit="10" stroke-width=".399" d="M44.34 12.578V5.73h39.039v16.184c-5.39-3.32-14.129-3.32-19.52 0-5.39 3.32-14.129 3.32-19.52 0Zm0 0"/></g><use xlink:href="#g" x="47.659" y="15.994"/><use xlink:href="#h" x="55.191" y="15.994"/><use xlink:href="#i" x="62.085" y="15.994"/><use xlink:href="#j" x="71.091" y="15.994"/></svg>