<svg xmlns="http://www.w3.org/2000/svg" width="87.347" height="90.47"><defs><clipPath id="a"><path d="M0 0h67v90.203H0Zm0 0"/></clipPath></defs><path fill="none" stroke="#7F7F7F" stroke-miterlimit="10" stroke-width=".199" d="M.883 87.516h85.039M.882 59.168h85.04M.882 30.832h85.04M.882 87.516V30.82m28.345 56.696V30.82m28.347 56.696V30.82M85.91 87.516V30.82"/><g clip-path="url(#a)"><path fill="none" stroke="#000" stroke-miterlimit="10" stroke-width=".399" d="M.883 60.71c.8.028 1.23.083 1.355.11-.011-.004-.011-.004.125.075.352.238.961.707 1.844 1.464 1.164 1.078 2.602 2.489 4.332 4.215a195 195 0 0 0 7.227 6.805c3.23 2.633 6.957 5.308 11.195 7.914 4.746 2.39 9.953 4.45 15.539 6.055 5.86 1.09 11.898 1.636 18.055 1.648M.883 50.746c1.64.066 3.031.25 4.097.496.891.301 1.723.676 2.59 1.16.957.641 2.047 1.477 3.285 2.54 1.399 1.296 2.97 2.831 4.727 4.585 1.969 1.95 4.18 4.063 6.672 6.293a88.5 88.5 0 0 0 9.578 6.782c3.965 2 8.3 3.71 12.961 5.05 4.922.918 10.055 1.38 15.363 1.387M.883 40.785c2.48.102 4.828.41 6.836.88a30.5 30.5 0 0 1 5.058 2.241A49 49 0 0 1 17.5 47.52a194 194 0 0 1 5.121 4.957 171 171 0 0 0 6.125 5.789 73.5 73.5 0 0 0 7.957 5.644 59.7 59.7 0 0 0 10.383 4.047c3.984.742 8.21 1.121 12.668 1.129M.883 30.82c3.324.137 6.625.578 9.578 1.266a45.4 45.4 0 0 1 7.523 3.328 65 65 0 0 1 6.164 4.684 215 215 0 0 1 5.516 5.332c1.816 1.8 3.664 3.566 5.574 5.277a58 58 0 0 0 6.332 4.512 44.4 44.4 0 0 0 7.805 3.043c3.05.566 6.367.867 9.98.87M.883 20.86c4.164.172 8.422.739 12.32 1.649a60.3 60.3 0 0 1 9.988 4.414 79 79 0 0 1 7.602 5.754 225 225 0 0 1 5.914 5.707 135 135 0 0 0 5.02 4.765 43 43 0 0 0 4.714 3.38c1.621.82 3.344 1.5 5.227 2.038 2.113.395 4.523.61 7.289.61M.883 10.895c5.004.21 10.219.906 15.062 2.039a75 75 0 0 1 12.453 5.496 94 94 0 0 1 9.043 6.824 242 242 0 0 1 6.305 6.082c1.664 1.648 3.152 3.07 4.473 4.254 1.164.953 2.187 1.687 3.093 2.25.84.422 1.692.758 2.649 1.031 1.176.219 2.676.352 4.594.352M.883.94a97.7 97.7 0 0 1 17.8 2.422c5.415 1.836 10.41 4.07 14.915 6.582a109 109 0 0 1 10.484 7.899 252 252 0 0 1 6.7 6.453c1.59 1.574 2.894 2.82 3.921 3.746.75.613 1.234.96 1.477 1.113.058.032.035.024.07.032.238.042.836.093 1.906.09M.883 60.71V.934M2.238 60.82l2.055-7.183q1.029-3.593 2.059-7.184 1.026-3.591 2.054-7.183c.688-2.395 1.371-4.79 2.059-7.184q1.026-3.593 2.055-7.184c.687-2.39 1.37-4.785 2.058-7.18q1.027-3.59 2.055-7.183c.687-2.394 1.37-4.789 2.058-7.184M2.363 60.895q1.95-3.184 3.907-6.372l3.902-6.367q1.956-3.186 3.906-6.37c1.3-2.126 2.606-4.247 3.906-6.372q1.95-3.183 3.907-6.367 1.95-3.188 3.902-6.371 1.956-3.186 3.906-6.371c1.301-2.121 2.606-4.246 3.906-6.367M4.207 62.359l4.988-5.562q2.489-2.783 4.985-5.567 2.492-2.782 4.984-5.566c1.66-1.855 3.324-3.71 4.984-5.566s3.325-3.711 4.985-5.567q2.495-2.783 4.984-5.562l4.988-5.567q2.489-2.782 4.985-5.566M8.54 66.574l5.28-5.285 5.282-5.285q2.64-2.647 5.28-5.29c1.763-1.76 3.52-3.523 5.282-5.284l5.281-5.285 5.282-5.286q2.64-2.642 5.28-5.285c1.763-1.762 3.52-3.523 5.282-5.285M15.766 73.38c1.62-1.89 3.246-3.777 4.867-5.668 1.62-1.89 3.246-3.777 4.867-5.668q2.436-2.833 4.867-5.668l4.871-5.668q2.43-2.836 4.867-5.668l4.868-5.668c1.62-1.89 3.246-3.781 4.867-5.668q2.437-2.836 4.867-5.668M26.961 81.293q1.827-3.263 3.652-6.52c1.219-2.171 2.434-4.343 3.653-6.52q1.828-3.257 3.652-6.515a5461 5461 0 0 0 3.652-6.52q1.83-3.257 3.657-6.515 1.822-3.263 3.652-6.52 1.824-3.256 3.652-6.519 1.824-3.258 3.653-6.516M42.5 87.348c.574-2.422 1.148-4.848 1.719-7.27q.862-3.637 1.718-7.273c.575-2.422 1.149-4.848 1.72-7.27.573-2.426 1.148-4.847 1.718-7.273.574-2.422 1.148-4.848 1.719-7.27.574-2.426 1.148-4.847 1.718-7.273.575-2.422 1.149-4.848 1.72-7.27q.861-3.634 1.718-7.27m4.285 59.817c-.097-2.488-.2-4.976-.297-7.465q-.15-3.734-.3-7.469-.146-3.732-.297-7.464c-.098-2.489-.2-4.977-.297-7.465q-.152-3.733-.297-7.465-.151-3.734-.3-7.469-.15-3.732-.298-7.465c-.097-2.488-.199-4.976-.297-7.464"/></g><path fill="none" stroke="red" stroke-miterlimit="10" stroke-width="1.196" d="M.883 30.82c28.344 0 28.344 28.348 56.691 28.348"/></svg>