<svg xmlns="http://www.w3.org/2000/svg" xmlns:xlink="http://www.w3.org/1999/xlink" width="93.044" height="58.898"><defs><path id="b" d="M-.516-5.5c-.234.016-.218.14-.218.281.015.61-.11.61-.344.625l-2.14.11c-.891.046-1.5.78-1.423 2.265.032.563.141 1.781 1.016 1.735a.605.605 0 0 0 .594-.641c-.016-.312-.25-.625-.656-.594a.66.66 0 0 0-.485.235c-.062-.282-.094-.61-.11-.72-.03-.75.376-1.124 1.126-1.155l.344-.016c.062.703.28 3.234 1.718 3.156C-.14-.266-.016-1.5-.047-2.187c-.047-.797-.469-1.25-.906-1.454.312-.015.766-.03.719-1.078l-.032-.468c0-.204-.015-.329-.25-.313m-1.046 2.063c.968-.063 1.14.859 1.14 1.109.031.515-.297.922-.75.953-1.062.047-1.281-1.531-1.328-2.016Zm0 0"/><path id="c" d="M-3.656-5.234c-1.297.328-1.969 1.468-1.594 2.875.188.703.594 1.125.828 1.297l-2.828.734.531 1.703.453-.125c-.156-.594-.171-.672.204-.766L-.266-1.03l-.125-.453c-.218-.094-.437-.22-.671-.328.062-.094.468-.704.25-1.563-.375-1.437-1.516-2.203-2.844-1.86m.328 1.25c.453-.125.969-.266 1.422-.125.468.203.687.609.765.922C-.953-2.516-1.39-2-1.5-1.86l-2.422.625a1.66 1.66 0 0 1-.937-1.094c-.313-1.172.843-1.485 1.53-1.656m0 0"/><path id="d" d="m-1.031-2.656-.438.172.219.578L-5-.453l.703 1.578.438-.172c-.203-.547-.235-.61.125-.75L-.86-.907l.25.641.437-.171-.469-1.125ZM-6.5-.031A.785.785 0 0 0-6.953.984a.79.79 0 0 0 1.016.438.78.78 0 0 0 .437-1 .774.774 0 0 0-1-.453m0 0"/><path id="e" d="M-6.078-3.11c-.219.11-.438.422-.219.829.063.14.313.531.813.765-.032.22 0 .688.343 1.344.657 1.266 1.594 1.39 2.204 1.063.359-.188.656-.547.687-.938a1.4 1.4 0 0 0 .953-.11c.14-.077.547-.327.64-.812.095.094.626.625 1.188.344.438-.234.828-1.078-.094-2.828-.812-1.563-1.671-2-2.296-1.672-.266.125-.797.5-.782 1.25.016.64.282 1.156.735 2.016.11.234.328.625.328.672.172.437-.125.703-.281.796-.094.032-.266.063-.344.047-.016-.515-.219-.984-.328-1.203-.672-1.281-1.61-1.39-2.235-1.078a1.32 1.32 0 0 0-.656.813 1.8 1.8 0 0 1-.469-.47.6.6 0 0 0 .22-.062c.218-.11.296-.344.171-.578-.125-.219-.375-.297-.578-.187m1.828 1.47c.406-.204 1-.516 1.406.265.39.766-.203 1.078-.61 1.281-.39.203-.983.516-1.374-.25-.406-.781.187-1.094.578-1.297m2.813-2.735c.312-.172.968-.078 1.562 1.078C.672-2.25.5-1.578.109-1.375c-.546.281-.828-.281-.89-.406l-.547-1.031c-.14-.282-.672-1.282-.11-1.563m0 0"/><path id="f" d="M-1.39-2.297-5.14.86l1.25 1.36.359-.297c-.11-.14-.25-.313-.344-.422-.094-.203 0-.281.172-.422l3.016-2.547c.375-.328 1.015-.687 1.39-.234.11.125.14.203.203.344a.66.66 0 0 0-.515.125.64.64 0 0 0-.094.89c.25.282.625.297.89.063.438-.375.313-1.047-.218-1.672-.547-.656-1.563-1.031-2.36-.344m-4.938 4.172a.76.76 0 0 0-.094 1.094.77.77 0 0 0 1.094.094.783.783 0 0 0 .078-1.094.77.77 0 0 0-1.078-.094m0 0"/><path id="g" d="m-4.531-4.125-.313.344c.453.406.516.469.25.765L-7.03-.344-5.656.812l.312-.343c-.437-.406-.5-.469-.234-.75l1.281-1.406c.547-.61 1.281-.657 1.813-.172.578.53.437.734.078 1.14l-2.281 2.5 1.39 1.157.313-.344c-.453-.406-.516-.453-.25-.735L-1.672.141c.719-.797.281-1.485-.453-2.172-.187-.156-.719-.64-1.578-.375l.531-.578Zm0 0"/><path id="h" d="m-2.312-1.64-.266.374.484.344-2.328 3.281 1.469.938.265-.375c-.484-.328-.53-.375-.296-.703l1.78-2.516.563.406.266-.375-1.016-.671Zm-3.125 5.203A.76.76 0 0 0-5.25 4.64a.78.78 0 0 0 1.094-.172c.25-.344.14-.828-.203-1.078a.77.77 0 0 0-1.078.172m0 0"/><path id="i" d="M-4.719-1.328c-.062.125.047.187.14.234.157.094.173.063.298-.015.5-.407 1.015-.344 1.453-.094 1.219.687.5 1.953.281 2.36-.281.5-.922 1.609-2.047.968-.312-.172-.422-.266-.531-.36.234-.046.36-.234.406-.312.219-.375 0-.719-.234-.844a.605.605 0 0 0-.844.235c-.422.75.547 1.375 1.047 1.656 1.563.89 2.766.25 3.328-.75.656-1.156.313-2.437-1.016-3.203-1.421-.797-2.234.062-2.28.125m0 0"/><path id="j" d="m-6.844 1.5-.172.422c.22.078.5.187.735.281l.828.36.172-.422s-.438-.172-.39-.282l.109-.093 1.984-1.86.156 2.985-.5-.203-.172.421 1.157.454 1.03.437.173-.422-.578-.234-.25-4.375.406-.375c.375-.344.906-.86 1.578-.594.125.063.14.078.203.125-.11 0-.36.047-.5.375-.11.297.016.61.344.734.234.11.578.047.734-.312.188-.469-.094-1.031-.64-1.266-.704-.281-1.485.078-1.954.5l-3.687 3.438c-.11.11-.172.156-.766-.094m0 0"/><path id="k" d="M-5.484-.703c-.032.234.093.25.234.281.594.11.563.219.531.453l-.375 2.11c-.14.875.453 1.64 1.907 1.89.562.094 1.765.266 1.921-.593a.61.61 0 0 0-.5-.735c-.312-.047-.656.11-.718.516-.063.281.109.484.125.531-.282-.016-.61-.047-.72-.062-.733-.126-1.03-.61-.905-1.344l.062-.328c.719.078 3.235.422 3.469-1C-.281.078-1.47-.312-2.141-.437c-.78-.141-1.328.187-1.609.562.047-.297.125-.75-.906-.937l-.453-.079c-.203-.03-.328-.046-.375.188M-3.704.78c.157-.953 1.095-.922 1.345-.89.515.093.828.484.75.937-.188 1.047-1.75.922-2.25.875Zm0 0"/><path id="l" d="M-6.078 1.953c-.063 1.328.797 2.297 2.234 2.36.75.046 1.297-.25 1.516-.407l-.016.485h1.766l.031-.47c-.61-.03-.687-.03-.672-.405L-1-1.516l.688.032.03-.47-1.25-.03-1.25-.079-.03.47.687.03-.078 1.86c-.422-.375-.86-.5-1.266-.516-1.5-.062-2.547.797-2.61 2.172M-4.797 2C-4.734.594-4.016.11-3.375.14c.14.016.61.032 1.047.594.094.141.094.157.094.344l-.11 2.11c0 .187-.015.203-.172.328-.406.39-.937.422-1.156.422-.656-.032-1.187-.672-1.125-1.938m0 0"/><path id="m" d="M-5.781 2.734c.125 1.329 1.11 2.172 2.547 2.047a2.48 2.48 0 0 0 1.453-.61l.047.485 1.75-.234-.047-.469c-.61.063-.688.063-.719-.312l-.437-5.016.687-.062-.047-.47-1.25.141-1.234.079.047.468.687-.062.156 1.86C-2.609.28-3.047.202-3.453.233c-1.5.141-2.438 1.141-2.328 2.5M-4.5 2.61C-4.61 1.22-3.953.641-3.312.594c.14-.016.609-.063 1.109.453.11.11.125.125.14.312l.172 2.094c.016.188.016.203-.125.36-.343.437-.875.546-1.093.578-.657.046-1.266-.516-1.391-1.782m0 0"/><path id="n" d="m-2.875.547.094.453.687-.125L-.89 7.219l1.72-.407L.75 6.36c-.625.11-.687.125-.766-.265L-1.046.672-.36.547-.453.094l-1.203.25Zm0 0"/><path id="o" d="M-4.406 2.484c.047.172.234.125.281.11.156-.047.156-.094.172-.266.078-.531.531-.984 1.156-1.172 1.344-.375 1.735.89 1.86 1.375l-2.891.844c-.219.063-.313.078-.235.328.094.297.36.985.985 1.328.437.25 1 .266 1.656.078C.11 4.672.672 3.438.328 2.25-.047.969-1.282.297-2.828.75c-1.516.438-1.625 1.563-1.578 1.734m1.265 1.032 2.297-.672c.094.39.203.797.11 1.156-.172.453-.516.688-.782.766-1.125.328-1.515-.938-1.625-1.25m0 0"/><path id="p" d="M.047-5.531c-.234-.016-.25.11-.25.25-.047.61-.172.61-.406.593l-2.141-.109c-.89-.047-1.562.625-1.64 2.11-.032.562-.048 1.78.827 1.828.438.03.641-.313.657-.578a.613.613 0 0 0-.594-.657c-.297-.015-.469.172-.516.203a4 4 0 0 1-.015-.718c.031-.75.468-1.094 1.218-1.063l.344.016c0 .734-.031 3.265 1.406 3.344C-.109-.266.141-1.5.173-2.187c.047-.797-.344-1.282-.75-1.516.312.015.766.031.812-1.016l.032-.468c0-.204.015-.329-.22-.344M-1.22-3.594c.969.063 1.047.985 1.047 1.235-.031.515-.39.89-.844.859-1.062-.047-1.125-1.625-1.14-2.14Zm0 0"/><path id="q" d="M-.625-6.36c-1.297-.327-2.437.344-2.812 1.75-.188.704-.032 1.25.109 1.516l-2.828-.734-.375 1.734.453.125c.156-.593.172-.672.547-.578L.266-1.03l.125-.453c-.157-.188-.282-.407-.422-.61.094-.062.75-.39.969-1.25C1.313-4.78.703-6.016-.625-6.359m-.328 1.25c.453.126.969.266 1.297.594.312.391.312.86.234 1.172-.187.672-.812.906-.984.985l-2.422-.625c-.266-.375-.422-.907-.281-1.438.312-1.172 1.468-.86 2.156-.687m0 0"/><path id="r" d="m1.031-2.656-.437-.172-.219.578-3.75-1.453-.547 1.64.438.172c.203-.546.234-.609.593-.468L-.016-1.25l-.25.64.438.173.406-1.157Zm-5.812-1.75a.785.785 0 0 0-1.016.453.774.774 0 0 0 .453 1 .78.78 0 0 0 1-.438.79.79 0 0 0-.437-1.015m0 0"/><path id="s" d="M-.922-6.766c-.219-.109-.594-.109-.812.297-.063.14-.25.563-.157 1.11-.187.093-.562.375-.906 1.03-.656 1.266-.219 2.11.39 2.438.36.188.813.204 1.157.032.203.406.453.609.64.703.141.078.579.265 1.047.062C.408-.969.25-.219.814.063 1.25.297 2.172.14 3.093-1.61c.813-1.563.673-2.532.048-2.86-.266-.125-.86-.343-1.47.094-.515.36-.78.875-1.233 1.734-.11.235-.329.625-.36.672a.61.61 0 0 1-.812.203c-.094-.03-.203-.156-.25-.234.422-.297.687-.734.797-.953.671-1.281.234-2.14-.391-2.453A1.38 1.38 0 0 0-1.61-5.5c0-.328.093-.531.125-.625A.7.7 0 0 0-1.328-6c.219.11.453.031.578-.203.125-.219.031-.453-.172-.563m-.172 2.344c.407.203 1 .516.594 1.297-.39.766-.984.453-1.39.25-.391-.203-.985-.516-.594-1.281.406-.782 1-.469 1.39-.266m3.875.734c.313.172.594.766 0 1.922C2.234-.719 1.594-.484 1.203-.687.656-.97.937-1.531 1-1.657l.547-1.03c.14-.282.672-1.282 1.234-1m0 0"/><path id="t" d="m2.047-1.766-3.75-3.156-1.125 1.453.36.297c.109-.14.25-.312.343-.39.188-.141.281-.063.453.078L1.344-.937c.375.328.828.906.453 1.359a1.1 1.1 0 0 1-.297.25.64.64 0 0 0-.234-.5A.594.594 0 0 0 .39.25c-.25.281-.188.64.078.875.437.375 1.094.14 1.625-.484.547-.657.75-1.72-.047-2.407m-4.938-4.171a.77.77 0 0 0-1.093.093.76.76 0 0 0 .093 1.094.77.77 0 0 0 1.079-.094.783.783 0 0 0-.079-1.093m0 0"/><path id="u" d="m4.531-4.125-.312-.344c-.453.407-.516.469-.782.172L1-6.969-.281-5.687l.312.343c.438-.406.5-.468.766-.187l1.281 1.406c.547.61.531 1.344 0 1.828-.578.531-.781.36-1.14-.047l-2.282-2.5-1.297 1.282.313.343c.453-.406.515-.453.781-.172L.016-1.67c.718.796 1.468.421 2.203-.266.187-.157.719-.641.515-1.532l.532.578Zm0 0"/><path id="v" d="m2.313-1.64-.266-.376-.485.344-2.328-3.281-1.375 1.062.266.375c.484-.328.531-.375.766-.046L.67-1.047.11-.64l.266.375L1.359-1Zm-3.875-4.672c-.25-.36-.735-.422-1.094-.172a.774.774 0 0 0-.188 1.078.774.774 0 0 0 1.078.172c.36-.25.454-.735.204-1.078m0 0"/><path id="w" d="M3.563-3.36c-.063-.124-.172-.062-.266-.015-.156.094-.14.125-.14.266.093.656-.235 1.062-.673 1.312C1.266-1.109.547-2.375.328-2.78c-.281-.5-.922-1.61.203-2.25.313-.172.453-.235.594-.266a.6.6 0 0 0 .063.5.6.6 0 0 0 .828.25c.265-.156.453-.516.25-.86-.422-.75-1.453-.25-1.953.032-1.563.89-1.641 2.25-1.079 3.25.657 1.156 1.938 1.531 3.266.766 1.422-.797 1.11-1.938 1.063-2m0 0"/><path id="x" d="m3.875-5.844-.172-.422c-.219.11-.469.22-.703.313l-.86.328.172.422s.438-.172.485-.063l-.016.125-.14 2.704L.453-4.453l.5-.203-.172-.422-1.125.484-1.062.407.172.421L-.656-4l3.219 2.969L2.53-.5C2.5.031 2.47.766 1.797 1.031c-.125.063-.14.047-.234.063.078-.063.234-.297.093-.625-.11-.297-.422-.422-.75-.297-.234.11-.453.39-.297.75.188.469.782.687 1.329.453C2.64 1.094 2.952.297 2.984-.344l.282-5.031c.015-.14.015-.219.609-.469m0 0"/><path id="y" d="M5.39-1.172c-.03-.234-.156-.219-.296-.187-.594.078-.625-.032-.657-.266l-.375-2.11c-.14-.874-.953-1.39-2.406-1.14-.562.094-1.765.36-1.61 1.219a.61.61 0 0 0 .72.515c.312-.046.562-.328.5-.734-.063-.281-.266-.422-.313-.437.281-.11.61-.172.719-.188.734-.125 1.156.234 1.281.969l.063.328c-.72.14-3.172.672-2.938 2.094.172.937 1.422.922 2.094.797.781-.141 1.172-.625 1.328-1.063.047.297.125.75 1.156.563l.453-.079c.204-.03.329-.046.282-.28m-2.156-.797c.157.953-.718 1.235-.968 1.266-.516.094-.953-.172-1.032-.625-.187-1.047 1.344-1.453 1.844-1.563Zm0 0"/><path id="z" d="M5.89-2.484C5.829-3.812 4.876-4.72 3.439-4.656c-.75.047-1.266.375-1.485.562l-.016-.484-1.765.156.031.469c.61-.031.688-.031.703.344l.219 5.03-.687.032.03.469 1.25-.094 1.25-.016-.03-.468-.688.031-.078-1.86c.453.313.89.407 1.297.391 1.5-.062 2.484-1.015 2.422-2.39m-1.28.046C4.671-1.03 3.983-.484 3.343-.452c-.14.016-.61.031-1.078-.5-.125-.11-.125-.125-.125-.313l-.11-2.109c0-.187.016-.203.14-.36a1.6 1.6 0 0 1 1.126-.515c.656-.031 1.25.547 1.312 1.813m0 0"/><path id="A" d="M6.156-1.672c.125-1.328-.703-2.36-2.14-2.484-.75-.063-1.313.203-1.547.36l.047-.485-1.75-.078-.047.468c.61.063.687.063.656.438L.938 1.562.25 1.5l-.047.469 1.25.078 1.235.14.046-.468-.687-.063.156-1.86c.406.391.844.532 1.25.563 1.5.141 2.594-.671 2.703-2.03m-1.281-.125C4.765-.407 4.015.047 3.375 0c-.14-.016-.61-.062-1.016-.64-.109-.141-.093-.157-.078-.344l.172-2.094c.016-.188.047-.203.188-.328a1.58 1.58 0 0 1 1.187-.36c.656.047 1.172.704 1.047 1.97m0 0"/><path id="B" d="m2.875.547.094-.453-.688-.125 1.203-6.344-1.75-.25-.078.453c.625.11.688.125.61.516L1.234-.234.547-.36.453.094 1.656.28Zm0 0"/><path id="C" d="M5.063.234C5.109.063 4.922.016 4.875 0c-.156-.047-.187 0-.297.14C4.25.548 3.61.689 2.984.5 1.641.125 2-1.172 2.125-1.656l2.89.843c.22.063.313.079.391-.171.094-.297.235-1.016-.11-1.641-.25-.437-.718-.766-1.374-.953-1.531-.438-2.656.328-3 1.515C.547-.78 1.25.422 2.797.876c1.515.438 2.219-.469 2.266-.64m-.547-1.53L2.219-1.97c.125-.36.265-.765.547-1.031.359-.297.797-.312 1.062-.234 1.125.328.766 1.593.688 1.937m0 0"/><clipPath id="a"><path d="M0 9h92.566v49.848H0Zm0 0"/></clipPath></defs><path fill="none" stroke="#7F7F7F" stroke-miterlimit="10" stroke-width=".199" d="M6.316 57.734h85.04M6.315 29.387h85.04M6.315 1.05h85.04M6.315 57.734V1.04m28.348 56.695V1.04m28.344 56.695V1.04m28.34 56.695V1.04"/><g clip-path="url(#a)"><path fill="none" stroke="#7F7F7F" stroke-miterlimit="10" stroke-width=".399" d="M91.355 57.734c0-56.562-84.644-56.695-85.039-.398"/></g><path fill="none" stroke="#7F7F7F" stroke-linecap="round" stroke-linejoin="round" stroke-miterlimit="10" stroke-width=".399" d="M8.707 55.46c-1.434.38-2.113 1.224-2.39 2.075-.282-.851-.958-1.695-2.391-2.074"/><use xlink:href="#b" x="91.427" y="57.73" fill="red"/><use xlink:href="#c" x="90.633" y="48.367" fill="red"/><use xlink:href="#d" x="88.939" y="42.228" fill="red"/><use xlink:href="#e" x="87.857" y="39.226" fill="red"/><use xlink:href="#f" x="82.968" y="31.036" fill="red"/><use xlink:href="#g" x="80.767" y="28.298" fill="red"/><use xlink:href="#h" x="75.992" y="24.083" fill="red"/><use xlink:href="#i" x="73.421" y="22.202" fill="red"/><use xlink:href="#j" x="68.995" y="19.665" fill="red"/><use xlink:href="#k" x="59.689" y="16.384" fill="red"/><use xlink:href="#l" x="54.193" y="15.408" fill="red"/><use xlink:href="#m" x="47.822" y="15.118" fill="red"/><use xlink:href="#n" x="41.487" y="15.756" fill="red"/><use xlink:href="#o" x="38.348" y="16.307" fill="red"/><use xlink:href="#p" x="6.245" y="57.73" fill="#00F"/><use xlink:href="#q" x="7.039" y="48.367" fill="#00F"/><use xlink:href="#r" x="8.732" y="42.228" fill="#00F"/><use xlink:href="#s" x="9.815" y="39.226" fill="#00F"/><use xlink:href="#t" x="14.704" y="31.036" fill="#00F"/><use xlink:href="#u" x="16.905" y="28.298" fill="#00F"/><use xlink:href="#v" x="21.68" y="24.083" fill="#00F"/><use xlink:href="#w" x="24.251" y="22.202" fill="#00F"/><use xlink:href="#x" x="28.677" y="19.665" fill="#00F"/><use xlink:href="#y" x="37.983" y="16.384" fill="#00F"/><use xlink:href="#z" x="43.479" y="15.408" fill="#00F"/><use xlink:href="#A" x="49.85" y="15.118" fill="#00F"/><use xlink:href="#B" x="56.185" y="15.756" fill="#00F"/><use xlink:href="#C" x="59.324" y="16.307" fill="#00F"/></svg>