<svg xmlns="http://www.w3.org/2000/svg" xmlns:xlink="http://www.w3.org/1999/xlink" width="83" height="50.042"><defs><path id="a" d="M.453 1.219c-.078.343-.11.406-.547.406-.11 0-.218 0-.218.188 0 .078.046.125.125.125.265 0 .562-.032.828-.032.343 0 .672.032 1 .032.046 0 .172 0 .172-.204 0-.109-.094-.109-.235-.109-.5 0-.5-.062-.5-.156 0-.125.422-1.75.484-2 .125.297.407.64.922.64 1.157 0 2.407-1.453 2.407-2.921 0-.938-.578-1.594-1.328-1.594-.5 0-.985.36-1.313.75-.094-.547-.531-.75-.89-.75-.47 0-.657.39-.735.562-.187.344-.312.938-.312.969 0 .11.093.11.109.11.11 0 .11-.016.172-.235.172-.703.375-1.187.734-1.187.172 0 .313.078.313.453 0 .234-.032.343-.079.515Zm1.75-4.328c.063-.266.344-.547.516-.703.36-.297.64-.376.812-.376.39 0 .64.344.64.938s-.327 1.734-.515 2.11C3.312-.439 2.844-.11 2.47-.11c-.656 0-.781-.827-.781-.89 0-.016 0-.031.03-.156Zm0 0"/><path id="b" d="M2.328-4.437c0-.188 0-.188-.203-.188-.453.438-1.078.438-1.36.438v.25c.157 0 .626 0 1-.188v3.547c0 .234 0 .328-.687.328H.812V0c.125 0 .985-.031 1.235-.031.219 0 1.094.031 1.25.031v-.25H3.03c-.703 0-.703-.094-.703-.328Zm0 0"/><path id="f" d="M3.516-1.266H3.28c-.015.157-.094.563-.187.625-.047.047-.578.047-.688.047H1.125c.734-.64.984-.843 1.39-1.172.516-.406 1-.843 1-1.5 0-.843-.734-1.359-1.624-1.359-.86 0-1.453.61-1.453 1.25 0 .344.296.39.375.39.156 0 .359-.124.359-.374 0-.125-.047-.375-.406-.375.218-.485.687-.641 1.015-.641.703 0 1.063.547 1.063 1.11 0 .609-.438 1.078-.656 1.328L.516-.266C.437-.203.437-.187.437 0h2.876Zm0 0"/><path id="c" d="M3.39-.906c0-.438-.406-.735-.89-.844.297-.094.688-.344.688-.812 0-.407-.454-.735-1.344-.735-.797 0-1.25.344-1.25.797 0 .281.219.422.39.422a.394.394 0 0 0 .407-.406c0-.25-.188-.36-.188-.36.203-.14.453-.172.625-.172.484 0 .594.204.594.454 0 .203-.125.656-.735.671-.046 0-.265.016-.312.016-.078.016-.078.11-.078.14 0 .141.078.141.172.141h.343c.672 0 .72.407.72.688 0 .25-.032.687-.72.687-.109 0-.484-.015-.75-.172A.44.44 0 0 0 1.25-.75a.427.427 0 0 0-.437-.437c-.25 0-.422.171-.422.437 0 .5.484.828 1.437.828 1.235 0 1.563-.594 1.563-.984m0 0"/><path id="d" d="M3.328-1.047h-.406c-.031.188-.11.313-.156.328-.11.016-.328.016-.5.016H1.53c.313-.203.61-.39.828-.516.563-.312.97-.531.97-1.047 0-.625-.563-1.03-1.548-1.03-.234 0-1.343 0-1.343.733 0 .297.25.422.421.422.188 0 .407-.14.407-.406 0-.187-.11-.297-.125-.312.172-.094.359-.094.468-.094.5 0 .938.234.938.687 0 .391-.313.688-.625.907L.532-.344C.436-.28.436-.266.436-.156V0h2.704Zm0 0"/><path id="e" d="M3.39-1.64c0-1-.437-1.657-1.484-1.657-.39 0-.687.047-1.015.235-.391.25-.5.546-.5.874 0 .657.53 1.094 1.375 1.094.406 0 .672-.187.843-.406 0 .297 0 .656-.203.922-.25.328-.64.36-.828.36-.047 0-.25 0-.406-.079 0 0 .14-.11.14-.312a.36.36 0 0 0-.375-.375.364.364 0 0 0-.375.39c0 .672.86.672 1.032.672 1.031 0 1.797-.61 1.797-1.719m-.796-.516c0 .5-.36.781-.766.781-.656 0-.656-.406-.656-.812 0-.391 0-.829.734-.829.625 0 .688.485.688.86m0 0"/><path id="g" d="M6.719-3.234c.14-.063.203-.125.203-.22 0-.093-.047-.155-.203-.218l-5.5-2.594c-.125-.078-.172-.078-.188-.078a.197.197 0 0 0-.203.203c0 .125.078.172.188.22L6.25-3.454 1.031-1c-.187.094-.203.172-.203.234 0 .11.094.204.203.204.032 0 .047 0 .172-.079Zm-.157 4.593c.172 0 .36 0 .36-.187 0-.203-.219-.203-.36-.203H1.189c-.157 0-.36 0-.36.203 0 .187.172.187.344.187Zm0 0"/><path id="h" d="M2.938-6.375c0-.25 0-.266-.235-.266C2.078-6 1.203-6 .891-6v.313c.203 0 .78 0 1.297-.266v5.172c0 .36-.032.469-.922.469H.953V0c.344-.031 1.203-.031 1.61-.031.39 0 1.265 0 1.609.031v-.312h-.313c-.906 0-.921-.11-.921-.47Zm0 0"/></defs><path fill="#CCF" stroke="#00F" stroke-miterlimit="10" stroke-width=".797" d="M26.93 23.54c0-7.048-5.711-12.759-12.758-12.759-7.043 0-12.758 5.711-12.758 12.758 0 7.043 5.715 12.754 12.758 12.754 7.047 0 12.758-5.711 12.758-12.754Zm0 0"/><path d="M16.383 16.902c0-1.222-.988-2.21-2.211-2.21s-2.211.988-2.211 2.21c0 1.223.988 2.211 2.21 2.211 1.224 0 2.212-.988 2.212-2.21M9.75 20.219a2.214 2.214 0 1 0-2.215 2.215 2.216 2.216 0 0 0 2.215-2.215M16.383 23.54c0-1.224-.988-2.212-2.211-2.212s-2.211.988-2.211 2.211a2.211 2.211 0 0 0 4.422 0M23.02 20.219a2.214 2.214 0 0 0-4.426 0c0 1.222.992 2.215 2.215 2.215 1.218 0 2.21-.993 2.21-2.215M9.75 26.855a2.212 2.212 0 0 0-4.426 0 2.212 2.212 0 0 0 4.426 0M16.383 30.172a2.211 2.211 0 0 0-4.422 0c0 1.223.988 2.215 2.21 2.215 1.224 0 2.212-.992 2.212-2.215M23.02 26.855a2.212 2.212 0 0 0-4.426 0 2.212 2.212 0 0 0 4.426 0m0 0"/><use xlink:href="#a" x="9.431" y="4.927"/><use xlink:href="#b" x="14.444" y="6.421"/><path fill="#CCF" stroke="#00F" stroke-miterlimit="10" stroke-width=".797" d="M81.586 23.54c0-7.048-5.715-12.759-12.758-12.759-7.047 0-12.758 5.711-12.758 12.758 0 7.043 5.711 12.754 12.758 12.754 7.043 0 12.758-5.711 12.758-12.754Zm0 0"/><path d="M72.059 19.758a3.233 3.233 0 0 0-3.23-3.235 3.233 3.233 0 0 0 0 6.465c1.784 0 3.23-1.449 3.23-3.23m0 0"/><use xlink:href="#c" x="66.94" y="21.36" fill="#FFF"/><path d="M68.707 25.57c0-1.77-1.43-3.199-3.195-3.199-1.77 0-3.2 1.43-3.2 3.2a3.195 3.195 0 0 0 3.2 3.195 3.194 3.194 0 0 0 3.195-3.196m0 0"/><use xlink:href="#d" x="63.622" y="27.215" fill="#FFF"/><path d="M75.379 25.57a3.233 3.233 0 1 0-6.465-.004 3.233 3.233 0 0 0 6.465.004m0 0"/><use xlink:href="#e" x="70.257" y="27.173" fill="#FFF"/><use xlink:href="#a" x="54.954" y="46.633"/><use xlink:href="#f" x="59.967" y="48.127"/><use xlink:href="#g" x="67.203" y="46.633"/><use xlink:href="#h" x="77.72" y="46.633"/></svg>