<svg xmlns="http://www.w3.org/2000/svg" width="91.59" height="91.604"><defs><clipPath id="a"><path d="M0 0h91.387v91.406H0Zm0 0"/></clipPath></defs><g clip-path="url(#a)"><path fill="none" stroke="#007F00" stroke-miterlimit="10" stroke-width=".399" d="M32.352 90.406v-2.219l2.718-1.585.52-.915m-3.238 2.5-1.079-1.882.004-.864m1.075 2.746v-3.37l1.351-.782.469-.805m-1.82 1.586-1.5-2.593v-.82m1.5 3.413 1.168-.668.835-.48 2.704 1.586 2.812.031m-5.516-1.617.915-1.55 1.91-1.083m-2.825 2.633.403-.68.554-.933 2.094.023.817-.465m-2.91.442.007-.817.496-.832m-3.464 4.41-.555-.945-.496-.848.703-1.234-.012-1.613m-.691 2.847-1.215-.683-1.5-2.55m2.715 3.233-.012-1.195-.012-1.683 1.47-.868 1.05-1.851m-2.52 2.719-.57-.965-.039-3.106m1.684 8.742-.004-1.668-.008-1.949 1.48-.867.38-.668M32.34 81.2l-1.352-2.308-.02-2.594m1.372 4.902-.016-1.414-.02-2.34 1.942-1.132.434-.758m-2.375 1.89-.453-.785-.008-1.73m.46 2.515 1.673-.984 1.285-.754 1.765 1.008 1.489-.016m-3.254-.992.71-1.242 1.864-1.082m-2.574 2.324.465-.816.382-.664 2.95-.004 1.359-.793m-4.309.797-.007-1.95.52-.91m-4.317 6.078-.715-1.23-.832-1.426 1.582-2.754v-1.742m-1.582 4.496-2.047-1.164-1.473-2.527m3.52 3.691-.016-2.969-.012-2.148.75-.442.45-.789m-1.2 1.23-1.34-2.296-.007-2.96m2.922 13.03 2.59-1.484 2.804-1.606.848.497 2.867.035m-3.715-.532 1.02-1.734 1.777-1.016m-2.797 2.75.696-.394 2.113-1.2 1.578.934 1.734.016m-3.312-.95 1.023-1.757 1.57-.899m-2.593 2.657 1.625.953 1.066.625v1.12l1.203 2.087M43.2 74.34l.781.008 2.301 1.343M43.2 74.34l1.953.015.79.008 1.14 1.992 2.457 1.434m-3.598-3.426 1.055-.601 1.781.004m-8.27-1.004L41.7 70.75l1.086-1.844 1.172.012.988-.555m-2.16.543.004-2.086.496-.851m-.5 2.937 1.457-.828 2.375-1.348.66.387 1.407.008m-2.067-.395.676-1.144 2.672-1.512m-9.457 8.688.941-1.575 1.098-1.84.867.012 2.727-1.511m-3.594 1.5.012-2.235.953-1.636m-.965 3.87.844-1.437 1.351-2.305 1.36.016 1.406-.797m-2.766.781.024-2.128 1.011-1.715m-1.035 3.843 2.375.04 1.395.023.675 1.223 2.286 1.386m-2.961-2.609 2.125-1.172 1.718.04m-3.843 1.132.925-.516 2.532-1.402 2.3 1.387.852.011M51.97 63.75l1.199-1.957 2.344-1.27m-10.77 5.082.024-2.19.02-1.7 2.417-1.348.844-1.426m-3.262 2.774-.883-1.586.016-1.215m.867 2.8.535-.89 1.348-2.25 1.781.028 1-.551m-2.781.523.012-1.05 1.554-2.594m-15.93 22.515-1.269-2.21-.703-1.227 1.566-2.672.008-1.195m-1.574 3.867-1.89-1.113-1.563-2.774m3.453 3.887-.582-1.02-.684-1.199.793-1.363v-1.77m-.793 3.133-.82-.477-.586-1.019m1.406 1.496.739-1.281.664-1.156 3.101-.008 1.63-.95m-4.731.958-.008-3.098.855-1.5m-.847 4.598-.008-1.344-.008-1.926 1.266-.742.828-1.465m-2.094 2.207-1.344-2.273-.015-2.438m-.028 10.418-2.793-1.578-.867-.488-.011-1.344-.793-1.348m.804 2.692-2.676.023-2.8-1.574m5.476 1.55-1.281-2.152-.8-1.351.542-.973-.027-2.125m-.516 3.098-1.508-.828-1.406-2.328m8.656 8.726-.011-2.2-.008-1.862.703-.407.836-1.441m-1.54 1.848-1.605-2.723-.011-2.48m1.617 5.203-.016-2.555-.008-2.035.72-.422.843-1.512m-1.563 1.934-1.39-2.344-.012-.953m1.402 3.297 2.356-1.41 1.726-1.032.88.496 2.488-.027m-3.368-.469 1.473-2.617 1.645-.976m-3.118 3.593.817-1.46.504-.907.754-.008 2.449-1.457m-3.203 1.465-.028-1.695.801-1.457m-6.176 7.96-.664-1.109-.597-.996 1.258-2.23-.008-.977m-1.25 3.207-1.903-1.054-1.382-2.313m3.285 3.367-.028-1.988-.027-2.29 1.477-.878 1.128-2.008m-2.605 2.887-.586-.988-.027-3.207m5.21 24.886.005-2.351.004-2.125 1.445-.836.683-1.176m-2.129 2.012-.687-1.188-.008-3.164m.695 4.352-.003-2.426v-1.242l1.894-1.11.422-.734m-2.316 1.844-.864-1.516v-1.328m.864 2.844 2.187-1.254 2.02-1.156.937.554 3.172.024m-4.11-.578.9-1.547 1.019-.574m-1.918 2.12 1.086-1.843.382-.649 2.95.028 2.058-1.164m-5.008 1.136.024-3.195 1.152-1.973M32.31 69.3l-.957-1.66-1.407-2.433.86-1.496-.004-1.563m-.856 3.059-1.172-.68-.804-1.406m1.976 2.086v-.945l-.008-1.766 1.512-.863.758-1.29m-2.27 2.153-1.57-2.738v-1.793M32.31 69.3l-.004-1.98-.008-1.66 2.39-1.384 1.247-2.164m-3.637 3.547-1.152-1.984v-1.14m1.152 3.124-.004-3.148-.004-2.114 1.191-.691.665-1.152m-1.856 1.843-1.496-2.566-.02-1.984m1.516 4.55.926-.546.734-.43 1.649.926 2.84-.024m-4.489-.902.813-1.45 1.527-.917m-2.34 2.367 1.547-2.793 1.328-2.387 1.813-.023 2.031-1.207m-3.844 1.23-.02-1.523.903-1.602m-5.418 9.281-1.492-2.566-.375-.648.89-1.551v-.883m-.89 2.434-1.723-1.004-.832-1.45m2.555 2.454.012-2.86.003-.91 2.723-1.57.485-.836m-3.208 2.406-.898-1.559-.004-2.472m2.754 11.015.922-.535 2.742-1.586 1.652.965 1.887.004m-3.539-.969.422-.714 1.941-1.098m-2.363 1.812 2.086-1.187 1.996-1.14.895.519 3.035.011m-3.93-.53 1.418-2.43.969-.56m-2.387 2.99.793.464.906.535-.007 1.418.476.817m-.469-2.235 1.528.008 1.722 1m-3.25-1.008 1.207.012 1.77.02 1.426 2.546.87.52m-2.296-3.067 2.703-1.527 1.375.016m-8.754.48.465-.789.738-1.258 2.434.016 2.023-1.156m-4.457 1.14.024-2.859 1.613-2.734m-1.637 5.593.985-.558 2.77-1.574.69.406 2.032.023m-2.723-.43 1.14-1.949 2.063-1.175m-8.16 7.304 1.403-2.41.374-.648 1.465.011 1.121-.64m-2.586.629.012-1.918 1.633-2.785m-1.645 4.703 1.094-1.875.742-1.278.758.004 2.75-1.574m-3.508 1.57.004-1.238 1.446-2.512m-1.45 3.75 1.516.008 2.09.008 1.61 2.785 1.574.902m-3.184-3.687 2.719-1.563 2.597.016m-5.316 1.547 1.86-1.07 1.929-1.11 1.406.824 2.524.008m-3.93-.832 1.594-2.781 2.031-1.184m-11.02 6.13.008-2.743.004-2.793 1.39-.812 1.13-1.965m-2.52 2.777-1.617-2.765-.008-.875m1.625 3.64.996-1.726 1.25-2.164h1.707l1.528-.887m-3.235.887v-2.028l1.196-2.055M32.289 60.398l-.39-.671-1.188-2.047 1.441-2.512-.004-.984m-1.437 3.496-2.398-1.375L27.547 55m3.164 2.68-1.379-2.375-1.023-1.758.558-.988-.023-3.204m-.535 4.192-2.227-1.266-1.039-1.765m3.266 3.03.41-.722.426-.746 1.265.004 2.461-1.426m-3.726 1.422.007-1.379.465-.8m-.472 2.18v-1.294l.003-2.972 2.274-1.329.832-1.472m-3.106 2.8-1.5-2.535-.02-1.257m.68 9.527-1.562-.895-2.367-1.355v-1.852l-.496-.863m.496 2.715H23.14l-2.395-1.36m3.633 1.36-.719-1.242-.941-1.621.765-1.317.008-1.437m-.773 2.754-2.38-1.387-.417-.727m8.387 7.227-.02-2.223-.012-1.258 2.25-1.32 1.38-2.45m-3.63 3.77L27.11 48.07l-.007-2.218m1.175 4.214-.023-2.48-.016-1.574.793-.473.465-.84m-1.258 1.313-1.047-1.778-.007-1.078m1.054 2.856 2.184-1.274 2.738-1.593 1.684.964 2.293-.011m-3.977-.953 1.36-2.352 1.667-.973m-3.027 3.325 1.567-2.727.726-1.262 2.465.004 2.145-1.242m-4.61 1.238v-1.164l.844-1.457m-8.059 9.477-1.375-2.375.742-1.293.004-2.52m-.746 3.813-1.93-1.11-.55-.941m2.48 2.05-.004-1.335-.004-1.848 1.715-1 .422-.73m-2.137 1.73-1.546-2.64-.024-2.18m7.004 24.765 2.027-1.171 2.215-1.274.899.52 3.09.011m-3.989-.53 1.301-2.25.816-.47m-2.117 2.72 2.621-1.5 2.125-1.216 1.95 1.133 2.671.008m-4.62-1.14 1.296-2.231 1.645-.938m-2.942 3.168 2.02 1.164 1.426.817-.008 1.535.402.695m-.394-2.23.77.004 1.257.718m-2.027-.722 2.992.023 2.117.012 1.305 2.273 1.867 1.09m-3.172-3.363 1.61-.918 2.195.004m-12.36-1.102.805-1.386 1.277-2.204 2.653.024 1.218-.684m-3.87.66.035-2.554.488-.824m-.524 3.378 1.864-1.043 1.89-1.054 1.938 1.156 2.324.04m-4.262-1.196 1.09-1.84 1.774-1.004m-8.7 8.531 2.547-1.472 2.406-1.395 1.344.774 1.418.003m-2.762-.777.77-1.324 1.922-1.102m-2.692 2.426.7-.402.707-.406 1.672.96 1.457.004m-3.13-.964.938-1.625 2.047-1.176m-2.984 2.8 2.105 1.243 1.992 1.175-.015 2.133 1.187 2.117m-1.172-4.25 1.864.004 1.75 1.024m-3.614-1.028 1.668.016 1.063.008 1.55 2.746 2.063 1.215m-3.613-3.961 1.922-1.094 2.707.012m-11.457-1.36.758-1.296.957-1.645h2.105l1.961-1.129m-4.066 1.13.007-1.923.801-1.36m-.808 3.282 1.671-.969 2.418-1.406 2.227 1.281 1.324-.007m-3.55-1.274.82-1.414 1.168-.68m-7.793 7.41 2.031 1.196.883.52-.028 2.148 1.278 2.285m-1.25-4.434.847.008.84.496m-1.687-.504 2.125 1.254 2.398 1.414-.004 1.989 1.375 2.382m-1.37-4.37 1.956.007 1.153.668m-3.11-.676-.008 2.45-.007 2.546-1.418.809-.508.863m1.926-1.672.418.735-.004 1.328m-.414-2.063 1.421 2.512.372.66-.465.801-.008 1.367m.473-2.168 1.011.59.895 1.574m-3.684-10.332 2.38.008h1.257l.86 1.48 2.093 1.208m-2.953-2.688 2.77-1.574 1.503.004m-4.273 1.57 1.387.805 2.71 1.566-.015 2 .73 1.29m-.714-3.29 1.425.004 1.625.942m-10.785-3.325h4.477l1.566 2.746 1.082.63m-2.648-3.376 2.46-1.39 1.384.011m-3.844 1.38 2.496.019 2.824.015.922 1.63 1.613.953m-2.535-2.583 2.457-1.378 1.328.011m-3.785 1.367 1.07 1.88 1.168 2.046-.91 1.567v2.738m.91-4.305 1.086.617 1.266 2.145m-2.352-2.762 1.934 1.121 2.48 1.438-.015 2.406 1.133 1.973m-1.118-4.38 2.02-.007 1.844 1.05M64.87 55.98l2.54-1.46.921-.532 1.078.637 2.625.02m-3.703-.657 1.367-2.351 1.465-.84m-2.832 3.191 2.082.012 2.938.016 1.25 2.168 2.574 1.484m-3.824-3.652.675-.387 2.496.016m-28.886-2.082.636-1.086.965-1.641 2.828.027.957-.543m-3.785.516.012-1.207 1.55-2.649m-1.562 3.856 1.285-2.195.614-1.051 2.23.02.832-.465m-3.062.445.023-2.434 1.012-1.726m-1.035 4.16 1.886.004 1.278.004.828 1.437.781.453m-1.61-1.89.759-.43 2.636.027m-3.394.403 1.949-1.114 1.043-.593 1.062.617 2.579.02m-3.641-.637.82-1.403 1.934-1.097m-8.91 4.199.02-1.852.015-1.73 1.781-1.024.781-1.347m-2.562 2.37-.399-.698.016-1.848m.383 2.547.914-1.567 1.008-1.722 2.226.02 2.055-1.169m-4.281 1.149.004-1.313 1.187-2.039M51.137 45.59l1.77-.992 1.784-1.004 2.633 1.566 1.14.016m-3.773-1.582 1.532-2.59 2.656-1.496m-4.188 4.086 2.579-1.45 1.101-.62 2.426 1.453 1.266.02m-3.692-1.474 1.18-1.988 1.804-1.023m-2.984 3.011 2.684 1.59 1.91 1.13-.04 3.019.645 1.152m-.605-4.172 2.793.035 1.254.743m-4.047-.778 2.113.028 2.45.03.91 1.614 1.878 1.098M67.527 44.3l2.27-1.258 1.492.031m-12.918-1.55.797-1.352 1.125-1.918 1.469.012 2.035-1.149m-3.504 1.137.027-2.36 1.559-2.601m-1.586 4.96 2.383-1.362 1.672-.953 1.687.992 2.856.039m-4.543-1.031 1.64-2.766 1.985-1.117M47.637 51.563l1.304-2.215 1.52-2.575 1.535.012 2.441-1.394m-3.976 1.382v-.753l1.062-1.852m-1.062 2.605 1.562-2.68.73-1.257 2.36.023 1.723-.976m-4.082.953.02-1.406.597-1.004m-.617 2.41 2.074.023 3.184.036 1.054 1.894 1.993 1.191m-3.047-3.085.804-.45 2.41.028m-3.214.422 2.12-1.184 1.946-1.086 2.656 1.57 2.434.028m-5.09-1.598 1.434-2.426 2.445-1.383m-13.203 6.02.02-1.457.046-3.137 1.707-.945 1.09-1.828m-2.797 2.773-.984-1.785.035-1.637m.95 3.422 1.46-2.437 1.18-1.965 3.156.074 1.293-.707m-4.45.633.075-2.82.95-1.555m-3.731 13.37 1.656-2.78 1.813.02 1.547-.868m-3.36.848.02-.973.476-.789m-.496 1.762.945-1.582 1.211-2.032 1.204.02 1.406-.79m-2.61.77.02-1.468 1.07-1.805m-1.09 3.273 2.192.024 3.086.031 1.37 2.406 1.513.88m-2.883-3.286 2.351-1.332.953.008m-3.304 1.324 2.703-1.531 1.797-1.016.847.5 1.715.02m-2.562-.52 1.168-1.988 2.441-1.371M56.566 36.44l.02-1.261.027-1.774 2.399-1.332L60.258 30m-3.645 3.406-1.023-1.832.023-2.094m1 3.926.707-1.183.492-.825.797.008 2.672-1.484m-3.468 1.476.03-1.578.895-1.48m-2.172 8.101 2.696.047 2.988.051 1.438 2.606 1.144.69M62.25 36.54l1.27-.703 1.035.023m-2.305.68 2.953.059 2.582.054.43.774 2.66 1.586m-3.09-2.36.785-.445.895.012m-1.68.433L69 38.797l.465.828-.39.668-.013 1.383m.403-2.051.676.398.656 1.168m-1.332-1.566 1.781 1.055 2.598 1.539-.024 2.043 1.582 2.785m-1.558-4.828.894.004 2.145 1.254m-9.098-6.825 2.64-1.5 1.2-.68.887.528 2.425.035m-3.312-.562.645-1.094 2.59-1.461m-3.235 2.555 1.695.011.914.004 1.407 2.485 1.707.996m-3.114-3.48 2.332-1.305 1.204.007m-9.985 3.461 1.68-.96 2.476-1.415 1.145.664h2.207m-3.352-.664.797-1.37 2.407-1.391m-3.204 2.761 2.5-1.418 1.883-1.066 2.754 1.613 3.05.032m-5.804-1.645 1.617-2.75.989-.563m-2.606 3.313 1.418.824 1.832 1.063-.004 2.144.516.903m-.512-3.047 1.094-.004 2.219 1.281m-3.313-1.277 2.563-.004 3.183-.008 1.477 2.57.648.38m-2.125-2.95 1.953-1.125 3.102.008m-14.05-.758.394-.688.57-.988h3.059l1.574-.91m-4.633.91.008-2.957.488-.832m-.496 3.79 1.008-.575 1.73-.984 1.266.738.867.004m-2.133-.742.856-1.473 2.265-1.29M56.566 36.442l.02-1.32.02-1.328 2.578-1.426 1.214-2.023m-3.793 3.449-.773-1.39.016-1.133m.757 2.523.032-2.113.02-1.313 1.566-.875.394-.66m-1.96 1.535L55.5 28.285l.031-2.07m1.125 4.152 1.684-.937 2.226-1.235 1.91 1.145 1.68.027m-3.59-1.172.735-1.215 1.836-1.015m-2.57 2.23.937-1.547 1.121-1.851 2.895.055 1.261-.692m-4.156.637.02-1.098.843-1.394m-6.832 8.062-.855-1.558-.649-1.184.653-1.062.07-3.141m-.723 4.203-1.8-1.086-.793-1.437m2.593 2.523.04-1.523.066-2.68 2.297-1.235.64-1.019m-2.937 2.254-.38-.695.083-2.649m1.695 10.29 1.516-2.548.469-.78 2.601.023 1.531-.86m-4.132.836.047-2.922.89-1.48m-.937 4.402 1.093-1.832 1.578-2.645 1.586.04 1.942-1.075m-3.528 1.035.036-2.093 1.425-2.36m-1.46 4.453 1.855.032 1.645.027 1.515 2.727 1.102.66m-2.618-3.387 1.594-.879 2.008.04m-3.602.84.946-.52 2.496-1.375 1.836 1.117 1.11.027m-2.946-1.144 1.46-2.418 1.665-.91m-10.067 5.163.02-1.273.04-2.273 1.476-.817.757-1.25m-2.234 2.067-.418-.758.059-3.09m.36 3.848 1.206-2 1.645-2.73 1.457.027 1.558-.86m-3.015.832.039-1.758 1.46-2.394M32.29 60.398l-.988-1.703-.735-1.27.676-1.183-.015-3.144m-.66 4.328-1.919-1.094-.62-1.066m2.538 2.16-.511-.883-1.344-2.32.578-1.012v-1.48m-.578 2.492-2.691-1.559-1.149-2.02m3.84 3.579.523-.918 1.192-2.09.804-.004 1.555-.898m-2.36.902-.01-1.387.44-.77m-.43 2.157-.027-3.117-.023-2.852.957-.566.95-1.684m-1.907 2.25-.906-1.531-.02-1.434m-.738 11.942-2.781-1.586-2.41-1.375.003-2.36-1.347-2.359m1.344 4.719-3.047-.02-2.043-1.203m5.09 1.223-.946-1.63-1.066-1.839.883-1.54v-2.151m-.883 3.691-2.383-1.371-.922-1.582m10.508 9.383-.867-1.477-1.16-1.976 1.117-1.965-.008-2.383m-1.11 4.348-2.062-1.165-1.266-2.128m3.329 3.293-1.305-2.204-1.645-2.773.774-1.375-.024-1.816m-.75 3.191-.855-.477-.48-.808m1.335 1.285 1.227-2.203.648-1.168 2.453-.024.68-.402m-3.133.426-.058-2.766.816-1.476m-.758 4.242-.043-2.762-.027-1.617 1.348-.813 1.46-2.675m-2.808 3.488-.766-1.285-.011-1.09m-1.028 10.125-.863-.473-1.394-.765-.051-2.563-1.653-2.738m1.704 5.3-2.582.055-.946-.515m3.528.46-1.625-2.687-.415-.683.82-1.508-.046-1.98m-.773 3.488-1.403-.75-1.324-2.157m7.023 7.516.817-1.48.41-.747 2.82-.058 1.403-.844m-4.223.902-.016-.918.453-.812m-.437 1.73.45-.808.382-.692 1.027-.02.973-.585m-2 .605-.031-2.203 1.031-1.843m-1 4.046 2.195-.02 2.168-.015 1.485 2.52 2.351 1.328m-3.836-3.848 2.54-1.515 2.23-.036m-4.77 1.551 2.43-1.437 2.156-1.274 2.352 1.348 3.125-.008m-5.477-1.34 1.504-2.652 2.734-1.61m-13.187 7.008-.043-2.601-.02-1.297 2.375-1.406.73-1.297m-3.105 2.703-1.085-1.813-.06-2.886m1.145 4.699 1.536-2.727 1.062-1.89 1.39-.016 2.723-1.633m-4.113 1.649-.015-2.074.574-1.016m-3.094 11.605-.027-1.699-.047-2.812 1.535-.926.66-1.195m-2.195 2.12-.88-1.476-.01-1.133m.89 2.61-.055-3.09-.031-1.848 2.172-1.312 1.304-2.39m-3.476 3.702-1.301-2.133-.078-2.789m1.379 4.922 2.617-1.59.965-.586 1.148.622 2.422-.07m-3.57-.552.965-1.777 2.047-1.258m-3.012 3.035 1.055-1.968.796-1.489 2.372-.078.75-.465m-3.122.543-.05-1.914.87-1.605m-6.253 9.152-.414-.687-.989-1.637.543-.996-.043-1.8m-.5 2.796-2.57-1.422-1.031-1.707m3.601 3.129-.05-2.578-.047-2.508.656-.39 1.441-2.579m-2.097 2.969-.758-1.258-.059-2.855m.418 24.699-2.172-1.188-1.921-1.046-.094-3.012-1.695-2.746m1.789 5.758-.903.027-1.695-.902m2.598.875-2.758-1.493-2.649-1.43-.066-2.206-1.68-2.73m1.746 4.937-2.941.09-1.422-.77m4.363.68-.07-2.274-.05-1.504 2.273-1.414.925-1.742m-3.199 3.156-.808-1.296-.094-2.68m.902 3.976-.984-1.601-.578-.938 1.047-1.941-.086-2.742m-.961 4.683-2.664-1.453-1.512-2.5m5.86 10.27-2.977.093-2.38.079-.507-.82L6.29 38.87m2.59 1.938-2.5 1.539-.832.02m3.332-1.56-.68-.367-2.406-1.304-.02-.86-.984-1.59m1.004 2.45-3.219.074-.953-.52m12.613 1.946-1.28-2.067-.864-1.39.59-1.098-.094-2.75m-.496 3.848-1.297-.688-1.379-2.199m2.676 2.887-1.324-2.133-1.563-2.516.5-.949-.062-1.672m-.438 2.621-1.36-.722-.972-1.555m2.332 2.277.793-1.504 1.477-2.804 1.496-.067.687-.437m-2.183.504-.032-.793 1.137-2.18m-1.105 2.973-.078-2.028-.11-2.847 2.274-1.442.714-1.386m-2.988 2.828-1.324-2.07-.074-1.633M9.203 32.53 7.68 31.72l-.832-.446-.086-2.511-1.442-2.32m1.528 4.831-2.043.067-1.375-.738m3.418.671L5.594 29.25l-1.688-2.723.594-1.09-.066-2.722m-.528 3.812-2.402-1.312-.527-.863m22.757 21.441-.062-2.676-.02-.832 2.54-1.547.585-1.074m-3.125 2.621-1.101-1.84-.04-2.71m1.141 4.55-.054-2.91-.043-2.316 1.36-.832.8-1.47m-2.16 2.302-.742-1.227-.055-2.863m.797 4.09 1.136-.676 1.16-.692 2.188 1.22 1.059-.016m-3.246-1.204 1.07-1.933 1.762-1.059m-2.832 2.992 1.324-2.386 1.031-1.86 2.52-.043 1.816-1.097m-4.336 1.14-.023-1.89.8-1.414m-5.43 8.918-.702-1.176-1.489-2.492.407-.735-.043-3m-.364 3.735-1.789-.985-1.402-2.312m3.191 3.297-.027-1.953-.016-1.25.871-.524 1.336-2.41m-2.207 2.934L19.72 27.48l-.032-2.203m3.868 11.782-.016-.809-.016-.86.899-.542.625-1.149m-1.524 1.692-.793-1.301-.046-2.395m.84 3.696-.04-2.004-.05-2.453 1.277-.762 1.074-1.938m-2.351 2.7-.848-1.399-.027-1.144m.875 2.543 1.78-1.055 1.224-.73 2.187 1.246 2.55-.016m-4.738-1.23L28 26.41l2.277-1.34m-3.84 4.078.489-.859 1.363-2.406 2.621-.031 1.719-1.016m-4.34 1.047-.027-2.406 1.586-2.809m-6.414 10.266-1.125-1.887-.52-.875.813-1.457-.02-1.535m-.793 2.992-1.05-.59-.52-.875m1.57 1.465-.012-.77-.027-1.8 1.012-.598 1.168-2.09m-2.18 2.688-.77-1.301-.011-.95m2.465 7.583 2.496-1.5 1.953-1.172 2.492 1.39 2.602-.027m-5.094-1.363 1.476-2.657 1.938-1.164m-3.414 3.82 1.902-1.14 2.625-1.574 1.578.894 2.758-.03m-4.336-.864.512-.91 1.996-1.18m-2.508 2.09 1.969 1.11.95.538.042 2.672.82 1.38m-.863-4.052 1.777-.03 1.633.901m-3.41-.87 1.621-.02 2.156-.024.395.657.672.37m-1.067-1.027 2.004-1.222 1.075-.028m-9.774-.355.746-1.324.914-1.618 2.649-.011.765-.446m-3.414.457-.008-1.59.813-1.413m-.805 3.003 1.313-.765 1.168-.684.96.547 2.895-.008m-3.855-.539 1.12-1.953 2.384-1.371m-7.645 7.715 1.059-1.863 1.234-2.172 3.137-.008 1.555-.899m-4.692.907-.004-2.625 1.41-2.473m-1.406 5.098.516-.903.793-1.39.777-.008 1.434-.856m-2.211.864-.008-2.34 1.148-2.004m-1.14 4.344h2.21l1.66-.004.61 1.066 1.547.903m-2.156-1.97 2.605-1.495 1.989-.008m-4.594 1.504 2.308-1.324 2.016-1.157 1.344.778 1.32.004m-2.664-.782.906-1.543 2.668-1.52m-11.77 5.548-.007-1.375-.008-1.43 2.371-1.387L39.7 12.68m-3.703 3.734-.52-.894-.007-2.73m.527 3.624.457-.805 1.352-2.394 2.695-.02 2.266-1.32m-4.961 1.34v-1.16l1.023-1.793M23.434 30.934l-1.43-2.399-1.469-2.465.805-1.437-.016-1.613m-.789 3.05L18.63 25l-.445-.742m2.351 1.812-.926-1.539-1.093-1.828 1.332-2.363-.024-1.934m-1.308 4.297-2.809-1.574-1.617-2.727m4.426 4.301.675-1.183 1.426-2.504L22 19.008l1.39-.805m-2.773.813-.004-3.067 1.41-2.449m-1.406 5.516.012-2.543.016-3.22 2.523-1.417 1.309-2.207m-3.832 3.625-.747-1.32.02-3.082m-1.402 13.851-1.457-.824-2.016-1.14-.027-1.887-1.653-2.754m1.68 4.64-1.566.012-.778-.437m2.344.425-1.11-1.898-.511-.871.633-1.114-.016-2.234m-.617 3.348-1.172-.68-.437-.758m6.703 6.172-.02-2.457-.023-2.687.77-.454.886-1.578m-1.656 2.032-1.086-1.797-.035-1.887m1.12 3.684-.038-2.418-.043-2.766 1.058-.625.926-1.633m-1.984 2.258L18 11.727l-.027-2.38m.418 3.028 2.648-1.578 1.953-1.164.774.433.75-.011m-1.524-.422.41-.735 2.473-1.46m-2.883 2.195 1.297-2.309 1.422-2.531 3.105-.02 1.262-.746m-4.367.766-.02-1.684L26.938.91M18.39 12.375l-1.032-1.734-1.148-1.938.57-1.015-.02-2.938m-.55 3.953-2.742-1.531-.614-1.031m3.356 2.562-.027-2.406-.012-1.024 1.781-1.054.774-1.371m-2.555 2.425-1-1.675-.016-.871"/></g></svg>