<svg xmlns="http://www.w3.org/2000/svg" width="116.156" height="58.898"><defs><clipPath id="a"><path d="M0 9h50v49.848H0Zm0 0"/></clipPath><clipPath id="b"><path d="M59 9h55v49.848H59Zm0 0"/></clipPath><clipPath id="c"><path d="M0 23h50v35.848H0Zm0 0"/></clipPath><clipPath id="d"><path d="M66 9h41v49.848H66Zm0 0"/></clipPath><clipPath id="e"><path d="M0 37h50v21.848H0Zm0 0"/></clipPath><clipPath id="f"><path d="M73 9h27v49.848H73Zm0 0"/></clipPath></defs><path fill="none" stroke="#7F7F7F" stroke-miterlimit="10" stroke-width=".199" d="M1.246 57.742h113.387M1.246 29.395h113.387M1.246 1.059h113.387M1.246 57.742V1.047m28.348 56.695V1.047m28.344 56.695V1.047m28.347 56.695V1.047m28.336 56.695V1.047"/><path fill="#CCF" d="M22.504 15.02 1.246 57.54h42.52Zm0 0"/><g clip-path="url(#a)"><path fill="none" stroke="#4040FF" stroke-miterlimit="10" stroke-width=".399" d="M22.504 15.02 1.246 57.54h42.52Zm0 0"/></g><path fill="#CCF" d="M86.285 15.02 65.023 57.54h42.524Zm0 0"/><g clip-path="url(#b)"><path fill="none" stroke="#4040FF" stroke-miterlimit="10" stroke-width=".399" d="M86.285 15.02 65.023 57.54h42.524Zm0 0"/></g><path fill="#CFC" d="M22.504 29.195 1.246 57.543h42.52Zm0 0"/><g clip-path="url(#c)"><path fill="none" stroke="#40FF40" stroke-miterlimit="10" stroke-width=".399" d="M22.504 29.195 1.246 57.543h42.52Zm0 0"/></g><path fill="#CFC" d="M86.285 15.02 72.113 57.54h28.344Zm0 0"/><g clip-path="url(#d)"><path fill="none" stroke="#40FF40" stroke-miterlimit="10" stroke-width=".399" d="M86.285 15.02 72.113 57.54h28.344Zm0 0"/></g><path fill="#FCC" d="M22.504 43.371 1.246 57.543h42.52Zm0 0"/><g clip-path="url(#e)"><path fill="none" stroke="#FF4040" stroke-miterlimit="10" stroke-width=".399" d="M22.504 43.371 1.246 57.543h42.52Zm0 0"/></g><path fill="#FCC" d="M86.285 15.023 79.2 57.543h14.172Zm0 0"/><g clip-path="url(#f)"><path fill="none" stroke="#FF4040" stroke-miterlimit="10" stroke-width=".399" d="M86.285 15.023 79.2 57.543h14.172Zm0 0"/></g></svg>