<svg xmlns="http://www.w3.org/2000/svg" xmlns:xlink="http://www.w3.org/1999/xlink" width="318.026" height="346.412"><defs><path id="b" d="M8.14-3.36c0-2.187-1.484-3.484-3.468-3.484H.39v.469h1.078v5.906H.39V0h4.297C6.656 0 8.14-1.219 8.14-3.36m-1.468-.015c0 1.094-.11 1.625-.438 2.063-.468.687-1.343.843-1.953.843H2.828v-5.906h1.453c.657 0 1.485.188 1.969.89.344.516.422 1.188.422 2.11m0 0"/><path id="c" d="M5.516-.234c0-.235-.125-.235-.266-.235-.61-.015-.61-.14-.61-.375v-2.14c0-.891-.702-1.532-2.187-1.532-.562 0-1.781.047-1.781.922 0 .438.344.625.61.625.312 0 .624-.219.624-.625 0-.297-.187-.469-.218-.5a5 5 0 0 1 .718-.062c.75 0 1.11.422 1.11 1.172v.343c-.72.032-3.25.125-3.25 1.563C.266-.125 1.5.062 2.188.062c.796 0 1.265-.406 1.484-.828 0 .313 0 .766 1.047.766h.468c.204 0 .329 0 .329-.234m-2-1.157c0 .97-.922 1.094-1.172 1.094-.516 0-.906-.344-.906-.797 0-1.062 1.578-1.203 2.078-1.234Zm0 0"/><path id="d" d="M4.406-3.672c0-.531-.531-.812-1.062-.812-.688 0-1.094.5-1.313 1.125v-1.125l-1.656.078v.468c.61 0 .688 0 .688.391v3.078H.375V0l1.25-.031C2-.031 2.641-.031 3 0v-.469h-.86v-1.75c0-.687.235-1.906 1.235-1.906 0 0-.187.172-.187.453 0 .406.328.61.609.61.297 0 .61-.204.61-.61m0 0"/><path id="e" d="M3.813-1.234v-.532h-.47v.516c0 .672-.327.906-.609.906-.578 0-.578-.64-.578-.86v-2.75h1.469v-.468H2.156v-1.906h-.469c0 1-.484 1.984-1.484 2.016v.359h.828v2.734c0 1.063.86 1.282 1.578 1.282.75 0 1.204-.579 1.204-1.297m0 0"/><path id="f" d="M3.078.313c0-.125-.047-.157-.187-.25C2.063-.5 1.75-1.391 1.75-2.125c0-.672.25-1.594 1.156-2.203.125-.094.172-.125.172-.25a.254.254 0 0 0-.265-.25c-.204 0-1.641.906-1.641 2.703 0 .813.312 1.438.562 1.781.375.516.907.907 1.079.907.218 0 .265-.172.265-.25m0 0"/><path id="g" d="M3.219-.906c0-.735-.906-.906-1.14-.938l-.704-.125C1.188-2 1-2.079 1-2.25c0-.156.219-.328.813-.328.515 0 .609.172.625.328.015.14.03.281.28.281.298 0 .298-.156.298-.328v-.469c0-.14-.016-.328-.25-.328-.157 0-.22.063-.25.125-.282-.125-.563-.125-.688-.125-1.187 0-1.344.594-1.344.844 0 .656.735.797 1.391.89.297.063.828.141.828.454 0 .234-.25.422-.828.422-.297 0-.656-.063-.812-.563C1.03-1.203.984-1.28.78-1.28c-.297 0-.297.172-.297.328v.656c0 .14 0 .344.25.344.079 0 .188 0 .282-.234.328.218.672.234.859.234 1.125 0 1.344-.61 1.344-.953m0 0"/><path id="h" d="M2.313-.469a.477.477 0 0 0-.485-.484.47.47 0 0 0-.469.469c0 .28.22.484.47.484a.473.473 0 0 0 .484-.469m0 0"/><path id="i" d="M3.14-.906c0-.156 0-.313-.296-.313-.266 0-.266.157-.266.297-.015.375-.36.438-.515.438-.454 0-.454-.313-.454-.47v-1.562h1.047c.125 0 .328 0 .328-.265 0-.25-.187-.25-.328-.25H1.61v-.516c0-.14-.015-.328-.296-.328-.282 0-.282.172-.282.328v.516H.484c-.125 0-.328 0-.328.25 0 .265.203.265.328.265h.547v1.61c0 .687.485.953 1.016.953S3.14-.266 3.14-.906m0 0"/><path id="j" d="M3.188-.266c0-.25-.204-.25-.329-.25h-.656v-2.187c0-.25-.047-.328-.328-.328H.906c-.125 0-.328 0-.328.25 0 .265.203.265.328.265h.719v2H.859c-.14 0-.343 0-.343.25C.516 0 .734 0 .859 0h2c.125 0 .329 0 .329-.266m-.954-3.562a.39.39 0 0 0-.406-.39.387.387 0 0 0-.39.39c0 .219.171.39.39.39a.39.39 0 0 0 .406-.39m0 0"/><path id="k" d="M3.422-1.516c0-.875-.64-1.562-1.39-1.562-.298 0-.579.11-.813.281 0-.172-.063-.234-.313-.234h-.5c-.14 0-.343 0-.343.25 0 .265.218.265.328.265h.25v3.5H.406c-.14 0-.343 0-.343.266 0 .25.218.25.328.25h1.093c.11 0 .329 0 .329-.25 0-.266-.204-.266-.344-.266h-.25V-.234c.265.234.531.28.734.28.766 0 1.469-.671 1.469-1.562m-.578 0c0 .61-.453 1.032-.906 1.032-.485 0-.704-.563-.704-.875v-.485c0-.375.375-.703.766-.703.469 0 .844.469.844 1.031m0 0"/><path id="l" d="M2.484-2.125c0-.828-.312-1.453-.562-1.797-.375-.515-.906-.906-1.078-.906-.203 0-.266.187-.266.25 0 .125.094.187.14.219 1.095.718 1.188 1.797 1.188 2.234 0 .656-.25 1.578-1.14 2.188C.64.14.578.188.578.313c0 .078.063.25.266.25s1.64-.907 1.64-2.688m0 0"/><path id="m" d="M3.625-.266c0-.25-.203-.25-.328-.25-.203 0-.297-.03-.344-.046V-2c0-.5-.375-1.094-1.406-1.094-.313 0-1.031.016-1.031.547 0 .235.172.36.359.36.11 0 .344-.063.344-.36 0 0 .234-.031.343-.031.454 0 .782.187.813.594-1.219.03-2.047.39-2.047 1.062 0 .485.453.969 1.188.969.234 0 .656-.047.968-.25.172.187.485.203.75.203.235 0 .391-.016.391-.266M2.359-.969c0 .14 0 .266-.234.375-.234.11-.516.11-.578.11-.39 0-.64-.203-.64-.438 0-.312.546-.515 1.452-.562Zm0 0"/><path id="n" d="M3.281-.266c0-.25-.203-.25-.328-.25h-.828v-3.406c0-.25-.062-.344-.328-.344H.719C.579-4.266.39-4.25.39-4s.203.266.312.266h.844v3.218H.719c-.14 0-.328 0-.328.25C.39 0 .594 0 .703 0h2.25c.125 0 .328 0 .328-.266m0 0"/><path id="o" d="M3.266-.797c0-.234-.235-.234-.297-.234-.125 0-.203 0-.266.172-.047.078-.187.375-.625.375a1.027 1.027 0 0 1-1.015-1.032c0-.312.187-1.062 1.062-1.062l.344.015c.015.282.172.376.36.376.187 0 .358-.126.358-.36 0-.531-.734-.547-1.062-.547-1.219 0-1.64.953-1.64 1.578 0 .844.671 1.563 1.546 1.563 1 0 1.235-.719 1.235-.844m0 0"/><path id="p" d="M3.25-.797c0-.234-.234-.234-.281-.234-.156 0-.219.015-.281.172-.141.328-.485.375-.657.375-.469 0-.937-.297-1.062-.813h1.953c.172 0 .328 0 .328-.312 0-.797-.453-1.485-1.375-1.485-.828 0-1.516.703-1.516 1.563S1.08.047 1.984.047c.938 0 1.266-.656 1.266-.844m-.594-1.015H.97c.125-.438.484-.766.906-.766.328 0 .703.156.781.765m0 0"/><path id="q" d="M3.578-.266c0-.25-.203-.25-.328-.25H3v-1.53c0-.72-.36-1.032-.937-1.032-.391 0-.672.172-.844.297 0-.172-.047-.25-.313-.25h-.5c-.14 0-.328 0-.328.25 0 .265.203.265.313.265h.25v2H.406c-.14 0-.328 0-.328.25C.078 0 .281 0 .391 0h1.093c.11 0 .329 0 .329-.266 0-.25-.204-.25-.344-.25h-.25v-1.156c0-.64.484-.875.797-.875.328 0 .406.172.406.547v1.484h-.203c-.14 0-.344 0-.344.25 0 .266.219.266.344.266H3.25c.11 0 .328 0 .328-.266m0 0"/><path id="r" d="M3.406-2.594c0-.156-.078-.484-.703-.484-.328 0-.734.11-1.094.469v-.094c0-.25-.046-.328-.328-.328h-.75c-.125 0-.328 0-.328.25 0 .265.203.265.328.265h.5v2h-.5c-.125 0-.328 0-.328.25C.203 0 .406 0 .531 0h1.781c.126 0 .329 0 .329-.266 0-.25-.203-.25-.328-.25h-.704v-.796c0-.61.36-1.22 1.11-1.235 0 .156.172.281.344.281.187 0 .343-.125.343-.328m0 0"/><path id="s" d="M3.563-2.687c0-.172-.141-.422-.547-.422a1.5 1.5 0 0 0-.735.218 1.2 1.2 0 0 0-.656-.187c-.656 0-1.172.531-1.172 1.14 0 .282.11.516.203.641a1 1 0 0 0-.125.469c0 .219.078.375.14.469C.188-.031.188.42.188.5c0 .61.735 1.047 1.641 1.047S3.468 1.094 3.468.5a.97.97 0 0 0-.5-.828c-.093-.047-.39-.188-1.015-.188h-.469c-.125 0-.28.032-.39-.093-.063-.079-.063-.22-.063-.22 0-.015 0-.062.016-.109.11.063.328.157.578.157.656 0 1.188-.516 1.188-1.156 0-.188-.063-.391-.172-.563a.8.8 0 0 1 .28-.078.34.34 0 0 0 .313.219c.141 0 .329-.094.329-.328m-1.344.75c0 .359-.266.64-.594.64s-.594-.297-.594-.64.266-.625.594-.625.594.296.594.624M2.969.5c0 .281-.5.531-1.14.531C1.187 1.031.687.781.687.5.688.39.75.188.953.063c.14-.094.203-.094.688-.094.578 0 1.328 0 1.328.531m0 0"/><path id="t" d="M3.578-.266c0-.25-.203-.25-.328-.25H3v-1.53c0-.72-.36-1.032-.937-1.032-.391 0-.672.172-.844.297v-1.14c0-.25-.047-.345-.313-.345h-.5c-.14 0-.328.016-.328.266s.203.266.313.266h.25v3.218H.406c-.14 0-.328 0-.328.25C.078 0 .281 0 .391 0h1.093c.11 0 .329 0 .329-.266 0-.25-.204-.25-.344-.25h-.25v-1.156c0-.64.484-.875.797-.875.328 0 .406.172.406.547v1.484h-.203c-.14 0-.344 0-.344.25 0 .266.219.266.344.266H3.25c.11 0 .328 0 .328-.266m0 0"/><path id="u" d="M3.063-3.844c0-.437-.579-.453-.704-.453-.578 0-1.125.328-1.125.953v.313H.61c-.125 0-.328 0-.328.25 0 .265.203.265.328.265h.625v2H.61c-.125 0-.343 0-.343.25C.266 0 .484 0 .609 0h1.844c.125 0 .328 0 .328-.266 0-.25-.203-.25-.328-.25h-.64v-2h.78c.11 0 .313 0 .313-.265 0-.25-.187-.25-.312-.25h-.781v-.266c0-.453.359-.484.562-.484.031.11.125.297.344.297a.35.35 0 0 0 .344-.36m0 0"/><path id="v" d="M3.578-.266c0-.25-.203-.25-.328-.25H3v-3.406c0-.25-.047-.344-.328-.344h-.485c-.14 0-.343.016-.343.266s.218.266.328.266h.25v.906a1.26 1.26 0 0 0-.735-.25c-.765 0-1.453.672-1.453 1.562C.234-.64.875.047 1.625.047c.344 0 .61-.14.797-.313.015.188.062.266.328.266h.5c.125 0 .328 0 .328-.266M2.422-1.375c0 .36-.297.89-.781.89-.453 0-.828-.452-.828-1.03 0-.61.437-1.032.89-1.032.406 0 .719.344.719.688Zm0 0"/><path id="w" d="M3.469-.266c0-.25-.203-.25-.328-.25h-.25l-.828-1.046.734-.954h.234c.125 0 .344 0 .344-.265 0-.25-.219-.25-.344-.25H2.25c-.125 0-.328 0-.328.25 0 .203.11.265.281.265l-.39.547-.422-.547c.156 0 .28-.062.28-.265 0-.25-.202-.25-.327-.25H.547c-.125 0-.328 0-.328.25 0 .265.219.265.328.265h.25l.75.954L.75-.516H.516c-.125 0-.344 0-.344.25C.172 0 .39 0 .516 0h.78c.126 0 .329 0 .329-.266 0-.203-.11-.25-.297-.25l.484-.703.5.703c-.187 0-.296.047-.296.25 0 .266.203.266.328.266h.797c.109 0 .328 0 .328-.266m0 0"/><path id="x" d="M3.64-.266c0-.218-.14-.25-.39-.25v-1.593c0-.157-.016-.97-.656-.97a.84.84 0 0 0-.656.313.61.61 0 0 0-.532-.312.88.88 0 0 0-.547.203c-.046-.156-.187-.156-.312-.156H.328c-.125 0-.328 0-.328.25 0 .234.125.265.39.265v2c-.265 0-.39.032-.39.25C0 0 .219 0 .328 0h.594c.125 0 .312 0 .312-.266 0-.218-.109-.25-.359-.25v-1.171c0-.563.234-.86.5-.86.14 0 .203.11.203.5v1.531c-.156 0-.281.032-.281.25 0 .266.187.266.312.266h.516c.125 0 .313 0 .313-.266 0-.218-.126-.25-.376-.25v-1.171c0-.563.25-.86.5-.86.141 0 .204.11.204.5v1.531c-.141 0-.282.032-.282.25 0 .266.204.266.313.266h.5c.125 0 .344 0 .344-.266m0 0"/><path id="y" d="M3.422-1.516c0-.875-.64-1.562-1.39-1.562-.298 0-.579.11-.813.265v-1.109c0-.25-.047-.344-.313-.344h-.5c-.14 0-.343.016-.343.266s.218.266.328.266h.25v3.406C.64-.172.656 0 .938 0c.218 0 .28-.094.28-.234.266.218.532.28.735.28.766 0 1.469-.671 1.469-1.562m-.578 0c0 .61-.453 1.032-.906 1.032-.485 0-.704-.563-.704-.875v-.485c0-.375.375-.703.766-.703.469 0 .844.469.844 1.031m0 0"/><path id="z" d="M3.547-2.781c0-.25-.188-.25-.328-.25h-.781c-.157 0-.344 0-.344.25 0 .265.172.265.344.265h.265l-.297 1.72-.14-.532c-.125-.469-.172-.547-.422-.547-.094 0-.235 0-.328.188l-.266.906-.297-1.735h.266c.156 0 .343 0 .343-.265 0-.25-.187-.25-.343-.25H.437c-.14 0-.343 0-.343.25 0 .234.14.265.36.265L.858-.28c.032.187.047.312.36.312.312 0 .343-.062.453-.515l.172-.641.265 1c.094.14.235.156.344.156.281 0 .313-.125.344-.312l.406-2.235c.219 0 .344-.03.344-.265m0 0"/><path id="A" d="M3.281-1.516c0-.89-.672-1.578-1.453-1.578-.797 0-1.453.688-1.453 1.578S1.047.047 1.828.047c.766 0 1.453-.688 1.453-1.563m-.578-.046c0 .593-.406 1.078-.875 1.078S.953-.97.953-1.562s.422-1.016.875-1.016.875.422.875 1.015m0 0"/><path id="B" d="M3.578-.266c0-.25-.219-.25-.328-.25H3v-2.187c0-.25-.047-.328-.328-.328h-.485c-.14 0-.343 0-.343.25 0 .265.218.265.328.265h.25v1.391c0 .563-.516.64-.719.64-.469 0-.484-.187-.484-.39v-1.828c0-.25-.047-.328-.313-.328h-.5c-.14 0-.328 0-.328.25 0 .265.203.265.313.265h.25v1.688c0 .687.5.875 1.03.875.266 0 .517-.063.767-.219C2.484 0 2.625 0 2.75 0h.5c.125 0 .328 0 .328-.266m0 0"/><path id="C" d="M3.094-.266c0-.25-.188-.25-.313-.25H2.22V-4c0-.125-.016-.328-.266-.328-.156 0-.219.094-.25.187-.234.547-.578.625-.687.641-.141 0-.313.031-.313.266 0 .203.156.25.281.25s.375-.032.657-.235v2.703h-.563c-.14 0-.328 0-.328.25C.75 0 .953 0 1.078 0h1.703c.125 0 .313 0 .313-.266m0 0"/><path id="D" d="M3.313-2.125c0-1.297-.72-2.203-1.485-2.203-.781 0-1.5.922-1.5 2.203 0 1.297.734 2.203 1.5 2.203.781 0 1.485-.922 1.485-2.203m-.563-.078c0 .969-.422 1.75-.922 1.75-.516 0-.922-.781-.922-1.75 0-.953.438-1.61.922-1.61.469 0 .922.657.922 1.61m0 0"/><clipPath id="a"><path d="M0 0h317.54v346.117H0Zm0 0"/></clipPath></defs><path fill="#FFFBB3" d="M157.61 29.066 36.226 322.121l121.382-50.277 121.383 50.277Zm0 0"/><g clip-path="url(#a)"><path fill="none" stroke="#B2B2B2" stroke-miterlimit="10" stroke-width="14.173" d="M157.61 29.066 36.226 322.121l121.382-50.277 121.383 50.277Zm0 0"/></g><g fill="#B2B2B2"><use xlink:href="#b" x="145.345" y="236.35"/><use xlink:href="#c" x="154.132" y="236.35"/><use xlink:href="#d" x="159.701" y="236.35"/><use xlink:href="#e" x="164.423" y="236.35"/></g><path fill="none" stroke="#B2B2B2" stroke-miterlimit="10" stroke-width=".996" d="M169.375 236.41v-56.754"/><path fill="none" stroke="#000" stroke-miterlimit="10" stroke-width=".399" d="m156.2 11.953 2.82-2.816m-2.82 0 2.82 2.816"/><use xlink:href="#f" x="144.794" y="5.522"/><use xlink:href="#g" x="148.455" y="5.522"/><use xlink:href="#h" x="152.117" y="5.522"/><use xlink:href="#i" x="155.778" y="5.522"/><use xlink:href="#j" x="159.439" y="5.522"/><use xlink:href="#k" x="163.1" y="5.522"/><use xlink:href="#l" x="166.762" y="5.522"/><path fill="none" stroke="#000" stroke-miterlimit="10" stroke-width=".399" d="m156.2 280.922 2.82-2.817m-2.82 0 2.82 2.817"/><use xlink:href="#f" x="130.149" y="287.859"/><use xlink:href="#g" x="133.81" y="287.859"/><use xlink:href="#h" x="137.472" y="287.859"/><use xlink:href="#i" x="141.133" y="287.859"/><use xlink:href="#m" x="144.794" y="287.859"/><use xlink:href="#j" x="148.455" y="287.859"/><use xlink:href="#n" x="152.117" y="287.859"/><use xlink:href="#o" x="159.439" y="287.859"/><use xlink:href="#p" x="163.1" y="287.859"/><use xlink:href="#q" x="166.762" y="287.859"/><use xlink:href="#i" x="170.423" y="287.859"/><use xlink:href="#p" x="174.084" y="287.859"/><use xlink:href="#r" x="177.746" y="287.859"/><use xlink:href="#l" x="181.407" y="287.859"/><path fill="none" stroke="#000" stroke-miterlimit="10" stroke-width=".399" d="m290.68 336.625 2.816-2.816m-2.816 0 2.816 2.816"/><use xlink:href="#f" x="266.457" y="343.562"/><use xlink:href="#g" x="270.118" y="343.562"/><use xlink:href="#h" x="273.78" y="343.562"/><use xlink:href="#r" x="277.441" y="343.562"/><use xlink:href="#j" x="281.102" y="343.562"/><use xlink:href="#s" x="284.763" y="343.562"/><use xlink:href="#t" x="288.425" y="343.562"/><use xlink:href="#i" x="292.086" y="343.562"/><use xlink:href="#i" x="299.408" y="343.562"/><use xlink:href="#m" x="303.07" y="343.562"/><use xlink:href="#j" x="306.731" y="343.562"/><use xlink:href="#n" x="310.392" y="343.562"/><use xlink:href="#l" x="314.054" y="343.562"/><path fill="none" stroke="#000" stroke-miterlimit="10" stroke-width=".399" d="m21.723 336.625 2.816-2.816m-2.816 0 2.816 2.816"/><use xlink:href="#f" x="-.666" y="343.562"/><use xlink:href="#g" x="2.995" y="343.562"/><use xlink:href="#h" x="6.657" y="343.562"/><use xlink:href="#n" x="10.318" y="343.562"/><use xlink:href="#p" x="13.979" y="343.562"/><use xlink:href="#u" x="17.64" y="343.562"/><use xlink:href="#i" x="21.302" y="343.562"/><use xlink:href="#i" x="28.617" y="343.562"/><use xlink:href="#m" x="32.278" y="343.562"/><use xlink:href="#j" x="35.94" y="343.562"/><use xlink:href="#n" x="39.601" y="343.562"/><use xlink:href="#l" x="43.262" y="343.562"/><path fill="none" stroke="#000" stroke-miterlimit="10" stroke-width=".399" d="m290.68 336.625 2.816-2.816m-2.816 0 2.816 2.816"/><use xlink:href="#f" x="266.457" y="343.562"/><use xlink:href="#g" x="270.118" y="343.562"/><use xlink:href="#h" x="273.78" y="343.562"/><use xlink:href="#r" x="277.441" y="343.562"/><use xlink:href="#j" x="281.102" y="343.562"/><use xlink:href="#s" x="284.763" y="343.562"/><use xlink:href="#t" x="288.425" y="343.562"/><use xlink:href="#i" x="292.086" y="343.562"/><use xlink:href="#i" x="299.408" y="343.562"/><use xlink:href="#m" x="303.07" y="343.562"/><use xlink:href="#j" x="306.731" y="343.562"/><use xlink:href="#n" x="310.392" y="343.562"/><use xlink:href="#l" x="314.054" y="343.562"/><path fill="none" stroke="#000" stroke-miterlimit="10" stroke-width=".399" d="m88.96 174.29 2.817-2.817m-2.816 0 2.816 2.816"/><use xlink:href="#f" x="39.254" y="175.016"/><use xlink:href="#g" x="42.915" y="175.016"/><use xlink:href="#h" x="46.577" y="175.016"/><use xlink:href="#n" x="50.238" y="175.016"/><use xlink:href="#p" x="53.899" y="175.016"/><use xlink:href="#u" x="57.56" y="175.016"/><use xlink:href="#i" x="61.222" y="175.016"/><use xlink:href="#g" x="68.544" y="175.016"/><use xlink:href="#j" x="72.205" y="175.016"/><use xlink:href="#v" x="75.867" y="175.016"/><use xlink:href="#p" x="79.528" y="175.016"/><use xlink:href="#l" x="83.189" y="175.016"/><path fill="none" stroke="#000" stroke-miterlimit="10" stroke-width=".399" d="m223.438 174.29 2.82-2.817m-2.82 0 2.82 2.816"/><use xlink:href="#f" x="228.367" y="174.518"/><use xlink:href="#g" x="232.028" y="174.518"/><use xlink:href="#h" x="235.69" y="174.518"/><use xlink:href="#r" x="239.351" y="174.518"/><use xlink:href="#j" x="243.012" y="174.518"/><use xlink:href="#s" x="246.673" y="174.518"/><use xlink:href="#t" x="250.335" y="174.518"/><use xlink:href="#i" x="253.996" y="174.518"/><use xlink:href="#g" x="261.318" y="174.518"/><use xlink:href="#j" x="264.98" y="174.518"/><use xlink:href="#v" x="268.641" y="174.518"/><use xlink:href="#p" x="272.302" y="174.518"/><use xlink:href="#l" x="275.964" y="174.518"/><path fill="none" stroke="#000" stroke-miterlimit="10" stroke-width=".399" d="m156.2 209.441 2.82-2.816m-2.82 0 2.82 2.816"/><use xlink:href="#f" x="139.302" y="203.955"/><use xlink:href="#g" x="142.963" y="203.955"/><use xlink:href="#h" x="146.625" y="203.955"/><use xlink:href="#o" x="150.286" y="203.955"/><use xlink:href="#p" x="153.947" y="203.955"/><use xlink:href="#q" x="157.608" y="203.955"/><use xlink:href="#i" x="161.27" y="203.955"/><use xlink:href="#p" x="164.931" y="203.955"/><use xlink:href="#r" x="168.592" y="203.955"/><use xlink:href="#l" x="172.253" y="203.955"/><path fill="none" stroke="#000" stroke-miterlimit="10" stroke-width=".399" d="m143.938 237.758 2.816-2.817m-2.816 0 2.816 2.817"/><use xlink:href="#f" x="112.535" y="238.484"/><use xlink:href="#g" x="116.196" y="238.484"/><use xlink:href="#h" x="119.858" y="238.484"/><use xlink:href="#i" x="123.519" y="238.484"/><use xlink:href="#p" x="127.18" y="238.484"/><use xlink:href="#w" x="130.841" y="238.484"/><use xlink:href="#i" x="134.503" y="238.484"/><use xlink:href="#l" x="138.164" y="238.484"/><path fill="none" stroke="#000" stroke-miterlimit="10" stroke-width=".399" d="m156.2 235.547 2.82-2.817m-2.82 0 2.82 2.817"/><use xlink:href="#f" x="161.128" y="236.272"/><use xlink:href="#g" x="164.789" y="236.272"/><use xlink:href="#h" x="168.451" y="236.272"/><use xlink:href="#x" x="172.112" y="236.272"/><use xlink:href="#j" x="175.773" y="236.272"/><use xlink:href="#v" x="179.434" y="236.272"/><use xlink:href="#l" x="183.096" y="236.272"/><path fill="none" stroke="#000" stroke-miterlimit="10" stroke-width=".399" d="m156.2 237.758 2.82-2.817m-2.82 0 2.82 2.817"/><use xlink:href="#f" x="142.964" y="244.695"/><use xlink:href="#g" x="146.625" y="244.695"/><use xlink:href="#h" x="150.287" y="244.695"/><use xlink:href="#y" x="153.948" y="244.695"/><use xlink:href="#m" x="157.609" y="244.695"/><use xlink:href="#g" x="161.27" y="244.695"/><use xlink:href="#p" x="164.932" y="244.695"/><use xlink:href="#l" x="168.593" y="244.695"/><path fill="none" stroke="#000" stroke-miterlimit="10" stroke-width=".399" d="m63.586 235.547 2.816-2.817m-2.816 0 2.816 2.817"/><use xlink:href="#f" x="17.54" y="236.272"/><use xlink:href="#g" x="21.201" y="236.272"/><use xlink:href="#h" x="24.863" y="236.272"/><use xlink:href="#x" x="28.524" y="236.272"/><use xlink:href="#j" x="32.185" y="236.272"/><use xlink:href="#v" x="35.846" y="236.272"/><use xlink:href="#z" x="43.169" y="236.272"/><use xlink:href="#p" x="46.83" y="236.272"/><use xlink:href="#g" x="50.491" y="236.272"/><use xlink:href="#i" x="54.153" y="236.272"/><use xlink:href="#l" x="57.814" y="236.272"/><path fill="none" stroke="#000" stroke-miterlimit="10" stroke-width=".399" d="m62.668 237.758 2.82-2.817m-2.82 0 2.82 2.817"/><use xlink:href="#f" x="40.28" y="244.695"/><use xlink:href="#g" x="43.941" y="244.695"/><use xlink:href="#h" x="47.603" y="244.695"/><use xlink:href="#y" x="51.264" y="244.695"/><use xlink:href="#m" x="54.925" y="244.695"/><use xlink:href="#g" x="58.586" y="244.695"/><use xlink:href="#p" x="62.248" y="244.695"/><use xlink:href="#z" x="69.57" y="244.695"/><use xlink:href="#p" x="73.231" y="244.695"/><use xlink:href="#g" x="76.893" y="244.695"/><use xlink:href="#i" x="80.554" y="244.695"/><use xlink:href="#l" x="84.215" y="244.695"/><path fill="none" stroke="#000" stroke-miterlimit="10" stroke-width=".399" d="m248.813 235.547 2.816-2.817m-2.816 0 2.816 2.817"/><use xlink:href="#f" x="253.74" y="236.272"/><use xlink:href="#g" x="257.401" y="236.272"/><use xlink:href="#h" x="261.063" y="236.272"/><use xlink:href="#x" x="264.724" y="236.272"/><use xlink:href="#j" x="268.385" y="236.272"/><use xlink:href="#v" x="272.046" y="236.272"/><use xlink:href="#p" x="279.369" y="236.272"/><use xlink:href="#m" x="283.03" y="236.272"/><use xlink:href="#g" x="286.691" y="236.272"/><use xlink:href="#i" x="290.353" y="236.272"/><use xlink:href="#l" x="294.014" y="236.272"/><path fill="none" stroke="#000" stroke-miterlimit="10" stroke-width=".399" d="m249.73 237.758 2.817-2.817m-2.817 0 2.817 2.817"/><use xlink:href="#f" x="227.338" y="244.695"/><use xlink:href="#g" x="230.999" y="244.695"/><use xlink:href="#h" x="234.661" y="244.695"/><use xlink:href="#y" x="238.322" y="244.695"/><use xlink:href="#m" x="241.983" y="244.695"/><use xlink:href="#g" x="245.644" y="244.695"/><use xlink:href="#p" x="249.306" y="244.695"/><use xlink:href="#p" x="256.628" y="244.695"/><use xlink:href="#m" x="260.289" y="244.695"/><use xlink:href="#g" x="263.951" y="244.695"/><use xlink:href="#i" x="267.612" y="244.695"/><use xlink:href="#l" x="271.273" y="244.695"/><path fill="none" stroke="#000" stroke-miterlimit="10" stroke-width=".399" d="m74.398 209.441 2.817-2.816m-2.817 0 2.817 2.816"/><use xlink:href="#f" x="61.162" y="203.955"/><use xlink:href="#g" x="64.823" y="203.955"/><use xlink:href="#h" x="68.485" y="203.955"/><use xlink:href="#z" x="72.146" y="203.955"/><use xlink:href="#p" x="75.807" y="203.955"/><use xlink:href="#g" x="79.468" y="203.955"/><use xlink:href="#i" x="83.13" y="203.955"/><use xlink:href="#l" x="86.791" y="203.955"/><path fill="none" stroke="#000" stroke-miterlimit="10" stroke-width=".399" d="m238 209.441 2.816-2.816m-2.816 0 2.816 2.816"/><use xlink:href="#f" x="224.763" y="203.955"/><use xlink:href="#g" x="228.424" y="203.955"/><use xlink:href="#h" x="232.086" y="203.955"/><use xlink:href="#p" x="235.747" y="203.955"/><use xlink:href="#m" x="239.408" y="203.955"/><use xlink:href="#g" x="243.069" y="203.955"/><use xlink:href="#i" x="246.731" y="203.955"/><use xlink:href="#l" x="250.392" y="203.955"/><path fill="none" stroke="#000" stroke-miterlimit="10" stroke-width=".399" d="m156.2 11.941 2.82-2.82m-2.82 0 2.82 2.82"/><use xlink:href="#f" x="141.133" y="18.879"/><use xlink:href="#g" x="144.794" y="18.879"/><use xlink:href="#h" x="148.456" y="18.879"/><use xlink:href="#q" x="152.117" y="18.879"/><use xlink:href="#A" x="155.778" y="18.879"/><use xlink:href="#r" x="159.439" y="18.879"/><use xlink:href="#i" x="163.101" y="18.879"/><use xlink:href="#t" x="166.762" y="18.879"/><use xlink:href="#l" x="170.423" y="18.879"/><path fill="none" stroke="#000" stroke-miterlimit="10" stroke-width=".399" d="m156.2 280.926 2.82-2.82m-2.82 0 2.82 2.82"/><use xlink:href="#f" x="141.134" y="275.438"/><use xlink:href="#g" x="144.795" y="275.438"/><use xlink:href="#h" x="148.457" y="275.438"/><use xlink:href="#g" x="152.118" y="275.438"/><use xlink:href="#A" x="155.779" y="275.438"/><use xlink:href="#B" x="159.44" y="275.438"/><use xlink:href="#i" x="163.102" y="275.438"/><use xlink:href="#t" x="166.763" y="275.438"/><use xlink:href="#l" x="170.424" y="275.438"/><path fill="none" stroke="#000" stroke-miterlimit="10" stroke-width=".399" d="m98.352 151.59 2.82-2.82m-2.82 0 2.82 2.82"/><use xlink:href="#f" x="44.984" y="152.315"/><use xlink:href="#g" x="48.645" y="152.315"/><use xlink:href="#h" x="52.307" y="152.315"/><use xlink:href="#q" x="55.968" y="152.315"/><use xlink:href="#A" x="59.629" y="152.315"/><use xlink:href="#r" x="63.29" y="152.315"/><use xlink:href="#i" x="66.952" y="152.315"/><use xlink:href="#t" x="70.613" y="152.315"/><use xlink:href="#z" x="77.935" y="152.315"/><use xlink:href="#p" x="81.597" y="152.315"/><use xlink:href="#g" x="85.258" y="152.315"/><use xlink:href="#i" x="88.919" y="152.315"/><use xlink:href="#l" x="92.581" y="152.315"/><path fill="none" stroke="#000" stroke-miterlimit="10" stroke-width=".399" d="m214.047 151.59 2.82-2.817m-2.82 0 2.82 2.817"/><use xlink:href="#f" x="218.976" y="152.317"/><use xlink:href="#g" x="222.637" y="152.317"/><use xlink:href="#h" x="226.299" y="152.317"/><use xlink:href="#q" x="229.96" y="152.317"/><use xlink:href="#A" x="233.621" y="152.317"/><use xlink:href="#r" x="237.282" y="152.317"/><use xlink:href="#i" x="240.944" y="152.317"/><use xlink:href="#t" x="244.605" y="152.317"/><use xlink:href="#p" x="251.927" y="152.317"/><use xlink:href="#m" x="255.589" y="152.317"/><use xlink:href="#g" x="259.25" y="152.317"/><use xlink:href="#i" x="262.911" y="152.317"/><use xlink:href="#l" x="266.573" y="152.317"/><path fill="none" stroke="#000" stroke-miterlimit="10" stroke-width=".399" d="m34.168 331.477 2.816-2.82m-2.816 0 2.816 2.82"/><use xlink:href="#f" x="9.947" y="325.987"/><use xlink:href="#g" x="13.608" y="325.987"/><use xlink:href="#h" x="17.27" y="325.987"/><use xlink:href="#g" x="20.931" y="325.987"/><use xlink:href="#A" x="24.592" y="325.987"/><use xlink:href="#B" x="28.253" y="325.987"/><use xlink:href="#i" x="31.915" y="325.987"/><use xlink:href="#t" x="35.576" y="325.987"/><use xlink:href="#z" x="42.898" y="325.987"/><use xlink:href="#p" x="46.56" y="325.987"/><use xlink:href="#g" x="50.221" y="325.987"/><use xlink:href="#i" x="53.882" y="325.987"/><use xlink:href="#l" x="57.544" y="325.987"/><path fill="none" stroke="#000" stroke-miterlimit="10" stroke-width=".399" d="m278.234 331.477 2.82-2.82m-2.82 0 2.82 2.82"/><use xlink:href="#f" x="254.014" y="325.987"/><use xlink:href="#g" x="257.675" y="325.987"/><use xlink:href="#h" x="261.337" y="325.987"/><use xlink:href="#g" x="264.998" y="325.987"/><use xlink:href="#A" x="268.659" y="325.987"/><use xlink:href="#B" x="272.32" y="325.987"/><use xlink:href="#i" x="275.982" y="325.987"/><use xlink:href="#t" x="279.643" y="325.987"/><use xlink:href="#p" x="286.965" y="325.987"/><use xlink:href="#m" x="290.627" y="325.987"/><use xlink:href="#g" x="294.288" y="325.987"/><use xlink:href="#i" x="297.949" y="325.987"/><use xlink:href="#l" x="301.611" y="325.987"/><path fill="none" stroke="#000" stroke-miterlimit="10" stroke-width=".399" d="m117.938 104.305 2.816-2.817m-2.817 0 2.817 2.817"/><use xlink:href="#f" x="106.531" y="98.821"/><use xlink:href="#g" x="110.192" y="98.821"/><use xlink:href="#h" x="113.854" y="98.821"/><use xlink:href="#C" x="117.515" y="98.821"/><use xlink:href="#C" x="121.176" y="98.821"/><use xlink:href="#D" x="124.837" y="98.821"/><use xlink:href="#l" x="128.499" y="98.821"/></svg>