<svg xmlns="http://www.w3.org/2000/svg" xmlns:xlink="http://www.w3.org/1999/xlink" width="87.256" height="58.898"><defs><path id="a" d="M8.25 0v-.469h-.969L4.72-6.703c-.11-.25-.219-.25-.39-.25-.282 0-.329.078-.391.25l-2.47 6c-.062.156-.093.234-.843.234H.406V0l1.172-.031c.39 0 .938 0 1.313.031v-.469S2-.469 2-.594l.047-.125.5-1.203h2.672l.593 1.453H4.86V0c.391-.031 1.329-.031 1.766-.031.39 0 1.266 0 1.625.031M5.016-2.39H2.734l1.141-2.766Zm0 0"/></defs><path fill="none" stroke="#7F7F7F" stroke-miterlimit="10" stroke-width=".199" d="M.738 57.742h85.04M.737 29.395h85.04M.737 1.059h85.04M.737 57.742V1.047m28.344 56.695V1.047M57.43 57.742V1.047m28.336 56.695V1.047"/><use xlink:href="#a" x="24.754" y="32.872"/><path fill="red" d="M40.523 29.395a1.993 1.993 0 1 0-3.983.002 1.993 1.993 0 0 0 3.983-.002m0 0"/></svg>