<svg xmlns="http://www.w3.org/2000/svg" xmlns:xlink="http://www.w3.org/1999/xlink" width="107.516" height="101.846"><defs><path id="a" d="M3.89-2.547c0-.844-.078-1.36-.343-1.875-.344-.703-1-.875-1.438-.875-1 0-1.375.75-1.484.969C.344-3.75.328-2.953.328-2.547c0 .531.016 1.328.406 1.969.36.594.954.75 1.375.75.391 0 1.063-.125 1.47-.906.296-.578.312-1.297.312-1.813M2.11-.062c-.266 0-.813-.125-.985-.954-.094-.453-.094-1.203-.094-1.625 0-.546 0-1.109.094-1.546.172-.813.781-.891.984-.891.266 0 .829.14.985.86.094.437.094 1.046.094 1.577 0 .47 0 1.188-.094 1.641-.172.828-.719.938-.985.938m0 0"/><path id="b" d="M2.25-1.625c.125-.125.453-.39.594-.5.484-.453.953-.89.953-1.61 0-.953-.797-1.562-1.781-1.562-.97 0-1.594.719-1.594 1.438 0 .39.312.437.422.437.172 0 .422-.11.422-.422 0-.406-.407-.406-.5-.406.234-.594.765-.781 1.156-.781.734 0 1.125.625 1.125 1.297 0 .828-.578 1.437-1.531 2.39l-1 1.047C.422-.219.422-.203.422 0h3.14l.235-1.422h-.25c-.016.156-.078.547-.172.703-.047.063-.656.063-.781.063H1.172Zm0 0"/><path id="d" d="M3.14-5.156c0-.157 0-.219-.171-.219-.094 0-.11 0-.188.11L.234-1.564v.25h2.25v.672c0 .297-.015.375-.64.375h-.172V0c.672-.031.687-.031 1.14-.031.454 0 .47 0 1.141.031v-.266h-.172c-.625 0-.64-.078-.64-.375v-.671h.843v-.25h-.843Zm-.593.64v2.954H.516Zm0 0"/><path id="e" d="M1.094-2.64c0-.657.062-1.235.343-1.72.25-.406.657-.734 1.157-.734.156 0 .515.032.703.297-.36.031-.39.297-.39.375 0 .25.187.375.374.375.14 0 .375-.078.375-.39 0-.47-.36-.86-1.078-.86C1.468-5.297.344-4.25.344-2.53.344-.36 1.359.172 2.125.172c.39 0 .797-.11 1.156-.453.328-.313.594-.64.594-1.344 0-1.031-.797-1.766-1.672-1.766-.578 0-.922.36-1.11.75M2.125-.079a.88.88 0 0 1-.797-.516c-.187-.36-.203-.89-.203-1.203 0-.781.422-1.375 1.047-1.375.39 0 .64.203.781.485.172.296.172.656.172 1.062s0 .75-.156 1.047c-.219.36-.485.5-.844.5m0 0"/><path id="f" d="M2.64-2.875c.454-.219 1-.61 1-1.234 0-.766-.78-1.188-1.515-1.188-.844 0-1.531.578-1.531 1.328 0 .297.094.563.297.797.14.172.172.188.656.5C.563-2.234.344-1.656.344-1.219c0 .89.89 1.39 1.765 1.39.97 0 1.766-.671 1.766-1.515 0-.5-.266-.828-.406-.968-.125-.126-.14-.141-.828-.563m-1.234-.75c-.234-.14-.422-.375-.422-.64 0-.5.547-.829 1.125-.829.61 0 1.125.422 1.125.985 0 .453-.359.843-.828 1.078Zm.39 1.094c.032.015.938.578 1.079.656.125.078.547.328.547.813 0 .609-.656.984-1.297.984-.719 0-1.312-.484-1.312-1.14 0-.594.437-1.063.984-1.313m0 0"/><path id="g" d="M2.5-5.078c0-.219-.016-.219-.234-.219-.328.313-.75.5-1.5.5v.266c.218 0 .64 0 1.109-.203v4.078c0 .297-.031.39-.781.39H.812V0c.329-.031 1.016-.031 1.376-.031s1.046 0 1.374.031v-.266h-.28c-.75 0-.782-.093-.782-.39Zm0 0"/><path id="i" d="M1.11-4.484c.109.03.421.125.765.125 1 0 1.594-.703 1.594-.828 0-.094-.047-.11-.094-.11-.016 0-.031 0-.094.031a3 3 0 0 1-1.11.22c-.468 0-.858-.11-1.108-.22-.079-.03-.094-.03-.11-.03-.094 0-.094.077-.094.234v2.328c0 .14 0 .234.125.234.063 0 .079-.031.125-.094.094-.11.391-.515 1.079-.515.437 0 .656.359.734.515.125.281.14.656.14.953s0 .735-.218 1.079c-.156.25-.485.484-.906.484A1.27 1.27 0 0 1 .734-.922c.016.016.079.016.079.016.218 0 .406-.14.406-.39a.39.39 0 0 0-.39-.407c-.157 0-.407.078-.407.422 0 .718.625 1.453 1.531 1.453 1 0 1.844-.781 1.844-1.766 0-.922-.672-1.75-1.61-1.75-.39 0-.765.125-1.078.406Zm0 0"/><path id="c" d="M1.484-.125c0 .516-.109.984-.593 1.469-.032.031-.047.047-.047.078 0 .062.062.11.11.11.093 0 .765-.626.765-1.563 0-.5-.203-.86-.547-.86a.436.436 0 0 0-.438.438c0 .234.157.453.438.453.203 0 .312-.11.312-.125m0 0"/><path id="h" d="M5.563-1.812c.14 0 .312 0 .312-.172 0-.188-.172-.188-.312-.188H1c-.125 0-.297 0-.297.188 0 .172.172.172.297.172Zm0 0"/></defs><path fill="none" stroke="#7F7F7F" stroke-linecap="round" stroke-miterlimit="10" stroke-width=".399" d="M24 76.5v-1.992M38.172 91.445V74.508M52.348 76.5v-1.992M66.52 91.445V74.508M80.695 76.5v-1.992M94.867 91.445V74.508M24 3.64V1.649M38.172 3.64V1.649M52.348 3.64V1.649M66.52 3.64V1.649M80.695 3.64V1.649M94.867 3.64V1.649M22.008 74.508H24M22.008 56.793H24M22.008 39.074H24M22.008 21.36H24M22.008 3.64H24M94.867 74.508h1.992M94.867 56.793h1.992M94.867 39.074h1.992M94.867 21.36h1.992M94.867 3.64h1.992"/><path fill="none" stroke="#7F7F7F" stroke-miterlimit="10" stroke-width=".399" d="M24 74.508h70.867M24 3.64h70.867M24 74.508V3.64M94.867 74.508V3.64"/><path fill="none" stroke="#000" stroke-miterlimit="10" stroke-width=".598" d="M94.867 74.508s-8.316-2.133-11.32-2.953a512 512 0 0 1-10.332-2.953 384 384 0 0 1-9.352-2.954 277 277 0 0 1-8.367-2.953 203 203 0 0 1-7.383-2.953 147 147 0 0 1-6.398-2.949c-1.637-.82-4.047-2.137-5.41-2.953-1.367-.82-3.34-2.137-4.43-2.953-1.094-.82-2.625-2.133-3.445-2.953s-1.914-2.133-2.461-2.954c-.547-.82-1.203-2.132-1.477-2.953-.273-.82-.492-2.132-.492-2.953s.219-2.133.492-2.953c.274-.82.93-2.133 1.477-2.953s1.64-2.133 2.46-2.953c.821-.817 2.352-2.133 3.446-2.953 1.09-.817 3.063-2.133 4.43-2.953a97 97 0 0 1 5.41-2.95c1.64-.82 4.488-2.136 6.398-2.953 1.914-.82 5.2-2.136 7.383-2.953 2.184-.82 5.91-2.133 8.367-2.953s6.617-2.133 9.352-2.953c2.73-.82 7.328-2.133 10.332-2.953s11.32-2.953 11.32-2.953"/><use xlink:href="#a" x="21.883" y="84.292"/><use xlink:href="#b" x="28.528" y="99.236"/><use xlink:href="#c" x="32.763" y="99.236"/><use xlink:href="#a" x="35.115" y="99.236"/><use xlink:href="#a" x="39.35" y="99.236"/><use xlink:href="#a" x="43.584" y="99.236"/><use xlink:href="#d" x="42.702" y="84.292"/><use xlink:href="#c" x="46.936" y="84.292"/><use xlink:href="#a" x="49.288" y="84.292"/><use xlink:href="#a" x="53.523" y="84.292"/><use xlink:href="#a" x="57.757" y="84.292"/><use xlink:href="#e" x="56.875" y="99.236"/><use xlink:href="#c" x="61.109" y="99.236"/><use xlink:href="#a" x="63.461" y="99.236"/><use xlink:href="#a" x="67.696" y="99.236"/><use xlink:href="#a" x="71.93" y="99.236"/><use xlink:href="#f" x="71.048" y="84.292"/><use xlink:href="#c" x="75.282" y="84.292"/><use xlink:href="#a" x="77.635" y="84.292"/><use xlink:href="#a" x="81.87" y="84.292"/><use xlink:href="#a" x="86.104" y="84.292"/><use xlink:href="#g" x="83.104" y="99.236"/><use xlink:href="#a" x="87.339" y="99.236"/><use xlink:href="#c" x="91.573" y="99.236"/><use xlink:href="#a" x="93.925" y="99.236"/><use xlink:href="#a" x="98.16" y="99.236"/><use xlink:href="#a" x="102.394" y="99.236"/><use xlink:href="#h" x=".062" y="76.661"/><use xlink:href="#g" x="6.649" y="76.661"/><use xlink:href="#a" x="10.884" y="76.661"/><use xlink:href="#a" x="15.118" y="76.661"/><use xlink:href="#h" x="4.296" y="58.944"/><use xlink:href="#i" x="10.883" y="58.944"/><use xlink:href="#a" x="15.118" y="58.944"/><use xlink:href="#a" x="15.117" y="41.643"/><use xlink:href="#i" x="10.883" y="23.926"/><use xlink:href="#a" x="15.118" y="23.926"/><use xlink:href="#g" x="6.649" y="6.21"/><use xlink:href="#a" x="10.884" y="6.21"/><use xlink:href="#a" x="15.118" y="6.21"/></svg>