<svg xmlns="http://www.w3.org/2000/svg" xmlns:xlink="http://www.w3.org/1999/xlink" width="168.896" height="104.801"><defs><path id="d" d="M4.14-1.594h-.25c-.015.125-.093.657-.203.797-.062.078-.671.078-.859.078H1.234l.891-.843c1.469-1.266 2.016-1.75 2.016-2.657 0-1.031-.844-1.75-1.953-1.75-1.032 0-1.735.813-1.735 1.625 0 .453.39.5.469.5.203 0 .469-.14.469-.469a.45.45 0 0 0-.47-.468c-.046 0-.062 0-.109.015.22-.64.797-.921 1.282-.921.906 0 1.219.843 1.219 1.468 0 .907-.688 1.657-1.11 2.125L.563-.328c-.11.11-.11.125-.11.328h3.438Zm0 0"/><path id="e" d="M4.406-3.625a.504.504 0 0 0-.422.484c0 .172.125.329.344.329.25 0 .5-.22.5-.532 0-.422-.453-.625-.875-.625-.531 0-.844.485-.953.672a1.04 1.04 0 0 0-1-.672c-.953 0-1.484 1.156-1.484 1.39 0 .079.062.11.125.11.078 0 .109-.047.125-.11.28-.89.875-1.155 1.218-1.155.266 0 .485.172.485.593 0 .313-.375 1.75-.5 2.188-.063.265-.344.828-.828.828-.188 0-.375-.062-.453-.11.234-.046.421-.265.421-.484 0-.234-.171-.328-.343-.328-.266 0-.5.219-.5.531 0 .438.484.61.859.61.531 0 .828-.422.969-.672.219.594.75.672.984.672.969 0 1.485-1.156 1.485-1.375 0-.047-.032-.11-.11-.11-.11 0-.11.032-.156.172-.203.64-.719 1.094-1.188 1.094-.25 0-.5-.156-.5-.594 0-.203.125-.687.204-1.031.046-.156.28-1.125.296-1.187.11-.329.375-.797.844-.797.156 0 .328.015.453.109m0 0"/><path id="f" d="M3.219-1.125H3c-.016.094-.078.484-.156.547-.047.047-.531.047-.625.047h-1.11l.766-.625c.203-.172.734-.547.922-.735.172-.171.422-.484.422-.906 0-.75-.672-1.187-1.485-1.187-.765 0-1.296.515-1.296 1.078 0 .297.25.344.312.344a.32.32 0 0 0 .328-.329c0-.125-.078-.328-.344-.328.141-.297.5-.531.922-.531.625 0 .953.469.953.953 0 .422-.28.86-.687 1.25L.5-.25C.438-.187.438-.187.438 0H3.03Zm0 0"/><path id="g" d="M1.766-1.984c.5 0 .843.343.843.953 0 .656-.39.937-.828.937C1.61-.094 1-.125.734-.469c.235-.031.329-.187.329-.343a.33.33 0 0 0-.344-.344.34.34 0 0 0-.344.36c0 .593.656.921 1.422.921.89 0 1.469-.562 1.469-1.156 0-.438-.328-.907-1.047-1.078.484-.157.86-.547.86-1.032 0-.484-.563-.843-1.282-.843-.703 0-1.234.328-1.234.812 0 .266.203.328.328.328.156 0 .312-.094.312-.312 0-.188-.125-.297-.297-.313.282-.312.828-.312.89-.312.298 0 .688.14.688.64 0 .329-.187.907-.796.938-.11 0-.266.015-.313.015-.062.016-.125.016-.125.11s.063.094.156.094Zm0 0"/><path id="h" d="M3.89-2.547c0-.844-.078-1.36-.343-1.875-.344-.703-1-.875-1.438-.875-1 0-1.375.75-1.484.969C.344-3.75.328-2.953.328-2.547c0 .531.016 1.328.406 1.969.36.594.954.75 1.375.75.391 0 1.063-.125 1.47-.906.296-.578.312-1.297.312-1.813M2.11-.062c-.266 0-.813-.125-.985-.954-.094-.453-.094-1.203-.094-1.625 0-.546 0-1.109.094-1.546.172-.813.781-.891.984-.891.266 0 .829.14.985.86.094.437.094 1.046.094 1.577 0 .47 0 1.188-.094 1.641-.172.828-.719.938-.985.938m0 0"/><path id="j" d="M2.25-1.625c.125-.125.453-.39.594-.5.484-.453.953-.89.953-1.61 0-.953-.797-1.562-1.781-1.562-.97 0-1.594.719-1.594 1.438 0 .39.312.437.422.437.172 0 .422-.11.422-.422 0-.406-.407-.406-.5-.406.234-.594.765-.781 1.156-.781.734 0 1.125.625 1.125 1.297 0 .828-.578 1.437-1.531 2.39l-1 1.047C.422-.219.422-.203.422 0h3.14l.235-1.422h-.25c-.016.156-.078.547-.172.703-.047.063-.656.063-.781.063H1.172Zm0 0"/><path id="k" d="M1.11-4.484c.109.03.421.125.765.125 1 0 1.594-.703 1.594-.828 0-.094-.047-.11-.094-.11-.016 0-.031 0-.094.031a3 3 0 0 1-1.11.22c-.468 0-.858-.11-1.108-.22-.079-.03-.094-.03-.11-.03-.094 0-.094.077-.094.234v2.328c0 .14 0 .234.125.234.063 0 .079-.031.125-.094.094-.11.391-.515 1.079-.515.437 0 .656.359.734.515.125.281.14.656.14.953s0 .735-.218 1.079c-.156.25-.485.484-.906.484A1.27 1.27 0 0 1 .734-.922c.016.016.079.016.079.016.218 0 .406-.14.406-.39a.39.39 0 0 0-.39-.407c-.157 0-.407.078-.407.422 0 .718.625 1.453 1.531 1.453 1 0 1.844-.781 1.844-1.766 0-.922-.672-1.75-1.61-1.75-.39 0-.765.125-1.078.406Zm0 0"/><path id="l" d="M4.031-4.86c.078-.077.078-.093.078-.265H2.08a9 9 0 0 1-.642-.031c-.421-.032-.421-.11-.453-.235h-.25L.47-3.703h.25c.015-.125.11-.672.219-.735.078-.046.687-.046.796-.046h1.688l-.813 1.109C1.703-2.172 1.5-.906 1.5-.281c0 .078 0 .453.375.453s.375-.36.375-.453v-.39c0-1.141.203-2.079.594-2.61Zm0 0"/><path id="m" d="M2.5-5.078c0-.219-.016-.219-.234-.219-.328.313-.75.5-1.5.5v.266c.218 0 .64 0 1.109-.203v4.078c0 .297-.031.39-.781.39H.812V0c.329-.031 1.016-.031 1.376-.031s1.046 0 1.374.031v-.266h-.28c-.75 0-.782-.093-.782-.39Zm0 0"/><path id="n" d="M2.016-2.656c.625 0 1.03.453 1.03 1.297 0 1-.562 1.28-.983 1.28-.438 0-1.047-.155-1.329-.577.297 0 .5-.188.5-.438 0-.265-.187-.437-.453-.437-.203 0-.437.125-.437.453 0 .75.812 1.25 1.734 1.25 1.047 0 1.797-.734 1.797-1.531 0-.672-.531-1.266-1.344-1.453.625-.22 1.11-.75 1.11-1.391 0-.64-.72-1.094-1.547-1.094-.86 0-1.5.453-1.5 1.063 0 .297.187.422.406.422.25 0 .406-.172.406-.407 0-.297-.265-.406-.437-.406.344-.437.953-.469 1.094-.469.203 0 .812.063.812.89 0 .548-.234.891-.344 1.016-.234.25-.422.266-.906.297-.156 0-.219.016-.219.125 0 .11.078.11.219.11Zm0 0"/><path id="i" d="M1.625-.437a.463.463 0 0 0-.453-.454.447.447 0 0 0-.438.438.44.44 0 0 0 .438.453.45.45 0 0 0 .453-.437m0 0"/><clipPath id="a"><path d="M12 0h156.844v98H12Zm0 0"/></clipPath><clipPath id="b"><path d="M12 21h156.844v77H12Zm0 0"/></clipPath><clipPath id="c"><path d="M12 2h156.844v96H12Zm0 0"/></clipPath></defs><path fill="none" stroke="#7F7F7F" stroke-linecap="round" stroke-miterlimit="10" stroke-width=".399" d="M21.137 95.75v-1.992M44.758 95.75v-1.992M68.379 95.75v-1.992M92.004 95.75v-1.992M115.625 95.75v-1.992M139.246 95.75v-1.992M162.871 95.75v-1.992M14.16 88.773h1.992M14.16 75.797h1.992M14.16 62.82h1.992M14.16 49.844h1.992M14.16 36.867h1.992M14.16 23.89h1.992M14.16 10.914h1.992"/><path fill="none" stroke="#7F7F7F" stroke-miterlimit="10" stroke-width=".399" d="M21.137 93.758h141.73"/><path fill="none" stroke="#BFBFBF" stroke-linecap="square" stroke-miterlimit="10" stroke-width=".399" d="M21.137 88.773h141.73M21.137 1.184h141.73"/><path fill="none" stroke="#7F7F7F" stroke-miterlimit="10" stroke-width=".399" d="M16.152 88.773V1.183"/><path fill="none" stroke="#BFBFBF" stroke-linecap="square" stroke-miterlimit="10" stroke-width=".399" d="M21.137 88.773V1.183M162.867 88.773V1.183"/><g clip-path="url(#a)"><path fill="none" stroke="#000" stroke-miterlimit="10" stroke-width=".598" d="M21.137 88.773s4.265 0 5.902-.003c1.64-.008 4.27-.024 5.906-.047 1.64-.024 4.27-.07 5.907-.121a298 298 0 0 0 5.906-.235c1.637-.086 4.265-.25 5.906-.387 1.637-.132 4.266-.382 5.906-.574 1.637-.191 4.266-.543 5.903-.804 1.64-.262 4.27-.73 5.906-1.07 1.64-.34 4.27-.946 5.906-1.376 1.64-.43 4.266-1.187 5.906-1.719a124 124 0 0 0 5.907-2.097 125 125 0 0 0 5.906-2.516 126 126 0 0 0 5.902-2.969c1.64-.894 4.27-2.433 5.906-3.468 1.641-1.035 4.27-2.809 5.907-3.996a143 143 0 0 0 5.906-4.57 159 159 0 0 0 5.906-5.176 179 179 0 0 0 5.906-5.825 200 200 0 0 0 5.903-6.504c1.64-1.906 4.27-5.12 5.906-7.23 1.64-2.113 4.27-5.664 5.906-7.992 1.641-2.328 4.266-6.23 5.907-8.785a347 347 0 0 0 5.906-9.625c1.637-2.793 5.906-10.5 5.906-10.5"/></g><g clip-path="url(#b)"><path fill="none" stroke="#000" stroke-miterlimit="10" stroke-width=".598" d="M21.137 88.773s4.265-.043 5.902-.101c1.64-.055 4.27-.192 5.906-.305 1.64-.11 4.27-.336 5.907-.504 1.64-.172 4.265-.484 5.906-.71 1.637-.227 4.265-.633 5.906-.915 1.637-.281 4.266-.777 5.906-1.113a228 228 0 0 0 5.903-1.316c1.64-.395 4.27-1.07 5.906-1.524 1.64-.45 4.27-1.215 5.906-1.722 1.64-.508 4.266-1.364 5.906-1.926a262 262 0 0 0 5.907-2.13 272 272 0 0 0 5.906-2.331 274 274 0 0 0 5.902-2.535c1.64-.73 4.27-1.95 5.906-2.739a268 268 0 0 0 5.907-2.937c1.64-.844 4.265-2.242 5.906-3.145a313 313 0 0 0 5.906-3.343 328 328 0 0 0 5.906-3.551 330 330 0 0 0 5.903-3.75c1.64-1.067 4.27-2.828 5.906-3.953 1.64-1.125 4.27-2.977 5.906-4.157a408 408 0 0 0 5.907-4.359c1.64-1.238 4.265-3.27 5.906-4.562a854 854 0 0 0 5.906-4.766"/></g><g clip-path="url(#c)"><path fill="none" stroke="#000" stroke-miterlimit="10" stroke-width=".598" d="m21.137 88.773 5.902-3.242c1.64-.902 4.27-2.344 5.906-3.246 1.64-.898 4.27-2.344 5.907-3.242l5.906-3.246c1.637-.899 4.265-2.344 5.906-3.242 1.637-.903 4.266-2.344 5.906-3.246l5.903-3.243c1.64-.902 4.27-2.343 5.906-3.246 1.64-.898 4.27-2.343 5.906-3.242l5.906-3.246c1.637-.898 4.266-2.344 5.907-3.242 1.636-.903 4.265-2.344 5.906-3.246l5.902-3.242c1.64-.903 4.27-2.344 5.906-3.247 1.641-.898 4.27-2.343 5.907-3.242l5.906-3.246c1.637-.898 4.266-2.344 5.906-3.242 1.637-.902 4.266-2.344 5.906-3.246l5.903-3.242c1.64-.903 4.27-2.344 5.906-3.246 1.64-.899 4.27-2.344 5.906-3.243 1.641-.902 4.266-2.343 5.907-3.246 1.64-.898 4.265-2.343 5.906-3.242l5.906-3.246"/></g><use xlink:href="#d" x="32.27" y="73.142"/><use xlink:href="#e" x="36.878" y="73.142"/><use xlink:href="#e" x="79.971" y="71.52"/><use xlink:href="#f" x="85.194" y="67.712"/><use xlink:href="#e" x="127.215" y="35.429"/><use xlink:href="#g" x="132.439" y="31.62"/><use xlink:href="#h" x="19.018" y="103.54"/><use xlink:href="#h" x="37.23" y="103.54"/><use xlink:href="#i" x="41.464" y="103.54"/><use xlink:href="#j" x="43.816" y="103.54"/><use xlink:href="#k" x="48.051" y="103.54"/><use xlink:href="#h" x="62.969" y="103.54"/><use xlink:href="#i" x="67.203" y="103.54"/><use xlink:href="#k" x="69.555" y="103.54"/><use xlink:href="#h" x="84.474" y="103.54"/><use xlink:href="#i" x="88.708" y="103.54"/><use xlink:href="#l" x="91.06" y="103.54"/><use xlink:href="#k" x="95.295" y="103.54"/><use xlink:href="#m" x="113.506" y="103.54"/><use xlink:href="#m" x="131.718" y="103.54"/><use xlink:href="#i" x="135.952" y="103.54"/><use xlink:href="#j" x="138.305" y="103.54"/><use xlink:href="#k" x="142.54" y="103.54"/><use xlink:href="#m" x="157.457" y="103.54"/><use xlink:href="#i" x="161.692" y="103.54"/><use xlink:href="#k" x="164.044" y="103.54"/><use xlink:href="#h" x="7.271" y="91.343"/><use xlink:href="#h" x=".684" y="78.367"/><use xlink:href="#i" x="4.918" y="78.367"/><use xlink:href="#k" x="7.271" y="78.367"/><use xlink:href="#m" x="7.271" y="65.391"/><use xlink:href="#m" x=".684" y="52.413"/><use xlink:href="#i" x="4.918" y="52.413"/><use xlink:href="#k" x="7.271" y="52.413"/><use xlink:href="#j" x="7.271" y="39.438"/><use xlink:href="#j" x=".684" y="26.462"/><use xlink:href="#i" x="4.918" y="26.462"/><use xlink:href="#k" x="7.271" y="26.462"/><use xlink:href="#n" x="7.271" y="13.485"/></svg>