<svg xmlns="http://www.w3.org/2000/svg" xmlns:xlink="http://www.w3.org/1999/xlink" width="13.25" height="9.128"><defs><path id="a" d="M2.938-6.375c0-.25 0-.266-.235-.266C2.078-6 1.203-6 .891-6v.313c.203 0 .78 0 1.297-.266v5.172c0 .36-.032.469-.922.469H.953V0c.344-.031 1.203-.031 1.61-.031.39 0 1.265 0 1.609.031v-.312h-.313c-.906 0-.921-.11-.921-.47Zm0 0"/><path id="b" d="M3.969-6.937c-.047-.125-.078-.204-.235-.204s-.187.063-.234.204L1.438-.984C1.25-.47.859-.312.313-.312V0c.234-.016.671-.031 1.015-.031.313 0 .828.015 1.156.031v-.312c-.5 0-.75-.25-.75-.5 0-.032.016-.141.016-.157l.469-1.297h2.453L5.203-.75a.6.6 0 0 1 .031.14c0 .298-.562.298-.828.298V0c.36-.031 1.063-.031 1.438-.031.422 0 .89.015 1.297.031v-.312h-.172c-.594 0-.735-.063-.844-.391Zm-.531 1.109 1.124 3.25H2.329Zm0 0"/></defs><use xlink:href="#a" x="-.257" y="7.695"/><use xlink:href="#b" x="4.724" y="7.695"/></svg>