<svg xmlns="http://www.w3.org/2000/svg" xmlns:xlink="http://www.w3.org/1999/xlink" width="101.13" height="100.715"><defs><path id="a" d="M5.156-2c0-1.156-.797-2.078-2.265-2.078-.282 0-.813.031-1.282.344v-1.313c.282.047.391.078.72.078 1.452 0 2.374-1.125 2.374-1.375 0-.078-.016-.187-.14-.187-.032 0-.032 0-.141.047a4.3 4.3 0 0 1-1.531.28c-.75 0-1.282-.202-1.547-.28-.094-.032-.094-.047-.125-.047-.14 0-.14.11-.14.265v2.922c0 .172 0 .297.218.297.125 0 .156-.031.219-.11.39-.468.922-.562 1.328-.562.89 0 .89.875.89 1.672 0 .735 0 1.735-1.187 1.735-.25 0-.875-.063-1.297-.625.36-.016.656-.266.656-.672 0-.532-.437-.672-.672-.672-.14 0-.671.094-.671.703 0 .844.78 1.687 2.015 1.687C4.172.11 5.156-.78 5.156-2m0 0"/><path id="b" d="M4.922 0v-.469h-1.39v-5.734c0-.234 0-.328-.266-.328-.11 0-.125 0-.22.078-.765.562-1.796.562-2 .562H.845v.47h.203c.156 0 .703-.016 1.297-.204v5.156H.954V0c.437-.031 1.5-.031 1.984-.031s1.546 0 1.984.031m0 0"/><path id="c" d="M2.5-.312c0-.672-.344-1.25-.922-1.25-.469 0-.766.359-.766.78 0 .407.266.782.766.782a.84.84 0 0 0 .563-.203C2.047.89 1.406 1.422 1.203 1.594c-.062.047-.094.078-.094.14 0 .094.11.204.188.204.156 0 1.203-.86 1.203-2.25m0 0"/><path id="d" d="M5.25-1.797c0-.547-.297-1.406-1.734-1.719.687-.203 1.406-.765 1.406-1.625 0-.765-.75-1.39-2.156-1.39-1.188 0-1.97.64-1.97 1.437 0 .422.313.703.688.703a.67.67 0 0 0 .704-.687c0-.578-.547-.688-.579-.703.344-.282.782-.36 1.094-.36.828 0 .86.641.86.97 0 .124-.016 1.437-1.047 1.5-.407.015-.438.015-.485.03-.094.016-.125.11-.125.172 0 .172.11.172.282.172h.437c1.094 0 1.094.985 1.094 1.5 0 .469 0 1.485-1.031 1.485-.266 0-.782-.047-1.266-.344C1.75-.75 2-1 2-1.406c0-.453-.312-.75-.75-.75-.422 0-.766.265-.766.765 0 .907.97 1.5 2.25 1.5 1.782 0 2.516-1 2.516-1.906m0 0"/><path id="e" d="M5.281-3.187c0-.954-.015-3.344-2.422-3.344S.453-4.156.453-3.188c0 1 0 3.297 2.406 3.297 2.391 0 2.422-2.296 2.422-3.296M4-3.297c0 .563 0 1.469-.078 1.985-.14.921-.766 1.062-1.063 1.062-.359 0-.921-.219-1.046-.953-.094-.516-.094-1.547-.094-2.094 0-.719 0-1.375.078-1.89.125-.891.828-.985 1.062-.985.375 0 .782.188.97.625C4-5.172 4-4.109 4-3.297m0 0"/><path id="f" d="M5.156-2.219h-.468c-.032.203-.125.844-.266.906-.11.063-.86.063-1.016.063H1.937c.47-.39 1-.812 1.438-1.14 1.14-.844 1.781-1.313 1.781-2.25 0-1.157-1.047-1.891-2.437-1.891-1.219 0-2.156.625-2.156 1.515 0 .594.484.735.718.735C1.61-4.281 2-4.5 2-5c0-.516-.422-.672-.562-.719.28-.234.671-.343 1.03-.343.845 0 1.313.671 1.313 1.421 0 .688-.375 1.375-1.078 2.079l-2 2.046c-.14.11-.14.141-.14.344V0h4.28Zm0 0"/><path id="g" d="M5.406 0v-.469h-.968v-1.094h.968v-.468h-.968V-6.22c0-.265-.016-.328-.297-.328-.22 0-.22.016-.344.172L.313-2.031v.469h2.875V-.47h-1.11V0c.375-.031 1.281-.031 1.703-.031.406 0 1.266 0 1.625.031m-2.11-2.031H.845L3.297-5.11Zm0 0"/><path id="h" d="M5.563-6.422H3.53c-.234 0-1.703-.047-1.844-.094-.203-.03-.218-.125-.234-.218H.984l-.343 2.53h.468c.094-.765.22-.89.266-.905.11-.063.922-.063 1.094-.063H4.14c-.172.219-.36.422-.547.64-.953 1.126-1.672 2.47-1.672 3.938 0 .703.562.703.625.703.156 0 .625-.046.625-.703v-.468c0-.47.031-.954.094-1.422.093-.672.297-1.25.656-1.657l1.547-1.796c.093-.11.093-.141.093-.485m0 0"/><path id="i" d="M5.25-3.281c0-.672 0-3.25-2.375-3.25-1.406 0-2.39.812-2.39 2.14 0 1.375.984 2.125 2.203 2.125.359 0 .828-.062 1.203-.765v.219c0 .734-.094 1.312-.235 1.656-.172.39-.61.843-1.297.843-.171 0-.53-.03-.828-.218.11-.031.485-.172.485-.625 0-.344-.235-.625-.625-.625-.391 0-.625.265-.625.64 0 .688.515 1.25 1.609 1.25C3.672.11 5.25-.734 5.25-3.28m-1.375-.985c0 .625-.25 1.641-1.094 1.641-.953 0-.953-.75-.953-1.734 0-.985 0-1.782 1.078-1.782.578 0 .813.532.86.625.109.329.109.907.109 1.25m0 0"/><path id="j" d="M5.25-2.047c0-1.39-1.016-2.125-2.219-2.125-.219 0-.781 0-1.203.766v-.188c0-1.14.219-1.562.281-1.719.25-.468.782-.828 1.391-.828.172 0 .516.032.75.266a.595.595 0 0 0-.547.61c0 .343.235.624.625.624s.625-.265.625-.64c0-.625-.422-1.25-1.469-1.25-1.359 0-3 .86-3 3.375 0 .781.079 1.578.5 2.265.47.766 1.22 1 1.922 1C4.281.11 5.25-.703 5.25-2.047m-1.36-.015c0 1 0 1.75-1.015 1.75-.516 0-.781-.391-.86-.563-.156-.312-.156-1.031-.156-1.219 0-1.25.532-1.719 1.079-1.719.953 0 .953.75.953 1.75m0 0"/><path id="k" d="M5.25-1.86c0-1.077-.844-1.546-1.328-1.827.687-.36 1-.797 1-1.376 0-1.015-.906-1.468-2.047-1.468-1.375 0-2.078.797-2.078 1.75 0 .437.187 1.062.953 1.5C.922-2.906.484-2.344.484-1.61.484-.406 1.563.109 2.844.109 4.438.11 5.25-.766 5.25-1.859M4.172-5.046c0 .484-.25.813-.688 1.11l-1.5-.844c-.156-.078-.437-.25-.437-.594 0-.703.89-.766 1.297-.766.828 0 1.328.407 1.328 1.094m.219 3.734c0 .829-.938 1-1.516 1-.969 0-1.547-.515-1.547-1.296 0-.766.531-1.203.89-1.407l1.36.766c.438.25.813.453.813.938m0 0"/></defs><path fill="none" stroke="#000" stroke-miterlimit="10" stroke-width=".399" d="M13.332 64.387h6.238"/><path fill="none" stroke="#000" stroke-linecap="round" stroke-linejoin="round" stroke-miterlimit="10" stroke-width=".399" d="M17.695 61.996c.38 1.438 1.223 2.113 2.075 2.39-.852.282-1.696.958-2.075 2.391"/><path fill="none" stroke="#000" stroke-miterlimit="10" stroke-width=".399" d="M32.734 64.387h6.239"/><path fill="none" stroke="#000" stroke-linecap="round" stroke-linejoin="round" stroke-miterlimit="10" stroke-width=".399" d="M37.102 61.996c.375 1.438 1.218 2.113 2.07 2.39-.852.282-1.695.958-2.07 2.391"/><path fill="none" stroke="#000" stroke-miterlimit="10" stroke-width=".399" d="m21.047 43.79-9.192 13.433"/><path fill="none" stroke="#000" stroke-linecap="round" stroke-linejoin="round" stroke-miterlimit="10" stroke-width=".39897606" d="M14.883 57.027c-1.395-.5-2.43-.183-3.14.36.25-.86.167-1.938-.805-3.063"/><path fill="none" stroke="#000" stroke-miterlimit="10" stroke-width=".399" d="M26.352 43.79v13.417"/><path fill="none" stroke="#000" stroke-linecap="round" stroke-linejoin="round" stroke-miterlimit="10" stroke-width=".399" d="M28.742 55.336c-1.433.375-2.113 1.219-2.39 2.07-.278-.851-.957-1.695-2.391-2.07"/><path fill="none" stroke="#000" stroke-miterlimit="10" stroke-width=".399" d="m31.656 43.79 9.227 13.483"/><path fill="none" stroke="#000" stroke-linecap="round" stroke-linejoin="round" stroke-miterlimit="10" stroke-width=".39897606" d="M41.8 54.375c-.972 1.125-1.054 2.203-.804 3.062-.71-.546-1.746-.859-3.144-.359"/><path fill="none" stroke="#000" stroke-miterlimit="10" stroke-width=".399" d="M55.16 92.734h6.238"/><path fill="none" stroke="#000" stroke-linecap="round" stroke-linejoin="round" stroke-miterlimit="10" stroke-width=".399" d="M59.523 90.344c.38 1.433 1.223 2.113 2.075 2.39-.852.282-1.696.957-2.075 2.391"/><path fill="none" stroke="#000" stroke-miterlimit="10" stroke-width=".399" d="M74.563 92.734H80.8"/><path fill="none" stroke="#000" stroke-linecap="round" stroke-linejoin="round" stroke-miterlimit="10" stroke-width=".399" d="M78.93 90.344c.375 1.433 1.218 2.113 2.07 2.39-.852.282-1.695.957-2.07 2.391"/><path fill="none" stroke="#000" stroke-miterlimit="10" stroke-width=".399" d="m63.84 72.242-9.8 13.336"/><path fill="none" stroke="#000" stroke-linecap="round" stroke-linejoin="round" stroke-miterlimit="10" stroke-width=".39897606" d="M57.074 85.484c-1.379-.546-2.426-.265-3.152.254.277-.851.23-1.933-.7-3.086"/><path fill="none" stroke="#000" stroke-miterlimit="10" stroke-width=".399" d="M69.215 72.242 68.547 85.5"/><path fill="none" stroke="#000" stroke-linecap="round" stroke-linejoin="round" stroke-miterlimit="10" stroke-width=".39898404" d="M71.027 83.75c-1.453.305-2.172 1.113-2.492 1.95-.234-.864-.87-1.743-2.281-2.192"/><path fill="none" stroke="#000" stroke-miterlimit="10" stroke-width=".399" d="m75.383 72.242 9.805 13.336"/><path fill="none" stroke="#000" stroke-linecap="round" stroke-linejoin="round" stroke-miterlimit="10" stroke-width=".39897606" d="M86.004 82.652c-.934 1.153-.977 2.235-.7 3.086-.73-.52-1.773-.8-3.156-.254"/><path fill="none" stroke="#000" stroke-miterlimit="10" stroke-width=".399" d="M69.613 42.824v13.313"/><path fill="none" stroke="#000" stroke-linecap="round" stroke-linejoin="round" stroke-miterlimit="10" stroke-width=".399" d="M72.004 54.262c-1.434.379-2.113 1.222-2.39 2.074-.282-.852-.958-1.695-2.391-2.074"/><path fill="none" stroke="#000" stroke-miterlimit="10" stroke-width=".399" d="M37.188 36.043h22.777"/><path fill="none" stroke="#000" stroke-linecap="round" stroke-linejoin="round" stroke-miterlimit="10" stroke-width=".399" d="M58.094 33.648c.379 1.438 1.218 2.114 2.07 2.395-.852.277-1.691.953-2.07 2.39"/><path fill="none" stroke="#000" stroke-miterlimit="10" stroke-width=".399" d="M42.766 14.531 32.508 27.977"/><path fill="none" stroke="#000" stroke-linecap="round" stroke-linejoin="round" stroke-miterlimit="10" stroke-width=".39897606" d="M35.543 27.938c-1.371-.57-2.422-.31-3.156.195.293-.844.265-1.926-.645-3.098"/><path fill="none" stroke="#000" stroke-miterlimit="10" stroke-width=".399" d="m53.2 14.531 10.995 14.41"/><path fill="none" stroke="#000" stroke-linecap="round" stroke-linejoin="round" stroke-miterlimit="10" stroke-width=".39897606" d="M64.96 26.004c-.913 1.168-.937 2.25-.644 3.098-.738-.508-1.789-.766-3.16-.2"/><path fill="none" stroke="#000" stroke-miterlimit="10" stroke-width=".399" d="M41.797 14.332h12.371V1.055H41.797Zm0 0"/><use xlink:href="#a" x="45.118" y="10.902"/><path fill="none" stroke="#000" stroke-miterlimit="10" stroke-width=".399" d="M15.715 43.59h21.273V28.492H15.715Zm0 0"/><use xlink:href="#b" x="19.035" y="38.337"/><use xlink:href="#c" x="24.764" y="38.337"/><use xlink:href="#d" x="27.942" y="38.337"/><path fill="none" stroke="#000" stroke-miterlimit="10" stroke-width=".399" d="M.766 71.027h12.367V57.75H.766Zm0 0"/><use xlink:href="#e" x="4.085" y="67.596"/><path fill="none" stroke="#000" stroke-miterlimit="10" stroke-width=".399" d="M20.168 70.973h12.367V57.805H20.168Zm0 0"/><use xlink:href="#f" x="23.488" y="67.65"/><path fill="none" stroke="#000" stroke-miterlimit="10" stroke-width=".399" d="M39.57 70.977h12.371V57.8h-12.37Zm0 0"/><use xlink:href="#g" x="42.891" y="67.656"/><path fill="none" stroke="#000" stroke-miterlimit="10" stroke-width=".399" d="M60.562 42.625H78.66V29.457H60.562Zm0 0"/><use xlink:href="#b" x="63.883" y="39.304"/><use xlink:href="#b" x="69.612" y="39.304"/><path fill="none" stroke="#000" stroke-miterlimit="10" stroke-width=".399" d="M58.973 72.043H80.25V56.734H58.973Zm0 0"/><use xlink:href="#h" x="62.294" y="66.788"/><use xlink:href="#c" x="68.023" y="66.788"/><use xlink:href="#i" x="71.201" y="66.788"/><path fill="none" stroke="#000" stroke-miterlimit="10" stroke-width=".399" d="M42.594 99.371H54.96V86.098H42.594Zm0 0"/><use xlink:href="#j" x="45.912" y="95.942"/><path fill="none" stroke="#000" stroke-miterlimit="10" stroke-width=".399" d="M61.996 99.371h12.367V86.098H61.996Zm0 0"/><use xlink:href="#k" x="65.316" y="95.942"/><path fill="none" stroke="#000" stroke-miterlimit="10" stroke-width=".399" d="M81.398 99.371h18.098V86.098H81.398Zm0 0"/><use xlink:href="#b" x="84.719" y="95.942"/><use xlink:href="#e" x="90.448" y="95.942"/></svg>