<svg xmlns="http://www.w3.org/2000/svg" xmlns:xlink="http://www.w3.org/1999/xlink" width="159.626" height="246.62"><defs><path id="a" d="M4.922 0v-.469h-1.39v-5.734c0-.234 0-.328-.266-.328-.11 0-.125 0-.22.078-.765.562-1.796.562-2 .562H.845v.47h.203c.156 0 .703-.016 1.297-.204v5.156H.954V0c.437-.031 1.5-.031 1.984-.031s1.546 0 1.984.031m0 0"/><path id="b" d="M5.156-2.219h-.468c-.032.203-.125.844-.266.906-.11.063-.86.063-1.016.063H1.937c.47-.39 1-.812 1.438-1.14 1.14-.844 1.781-1.313 1.781-2.25 0-1.157-1.047-1.891-2.437-1.891-1.219 0-2.156.625-2.156 1.515 0 .594.484.735.718.735C1.61-4.281 2-4.5 2-5c0-.516-.422-.672-.562-.719.28-.234.671-.343 1.03-.343.845 0 1.313.671 1.313 1.421 0 .688-.375 1.375-1.078 2.079l-2 2.046c-.14.11-.14.141-.14.344V0h4.28Zm0 0"/><path id="c" d="M5.25-1.797c0-.547-.297-1.406-1.734-1.719.687-.203 1.406-.765 1.406-1.625 0-.765-.75-1.39-2.156-1.39-1.188 0-1.97.64-1.97 1.437 0 .422.313.703.688.703a.67.67 0 0 0 .704-.687c0-.578-.547-.688-.579-.703.344-.282.782-.36 1.094-.36.828 0 .86.641.86.97 0 .124-.016 1.437-1.047 1.5-.407.015-.438.015-.485.03-.094.016-.125.11-.125.172 0 .172.11.172.282.172h.437c1.094 0 1.094.985 1.094 1.5 0 .469 0 1.485-1.031 1.485-.266 0-.782-.047-1.266-.344C1.75-.75 2-1 2-1.406c0-.453-.312-.75-.75-.75-.422 0-.766.265-.766.765 0 .907.97 1.5 2.25 1.5 1.782 0 2.516-1 2.516-1.906m0 0"/><path id="d" d="M5.406 0v-.469h-.968v-1.094h.968v-.468h-.968V-6.22c0-.265-.016-.328-.297-.328-.22 0-.22.016-.344.172L.313-2.031v.469h2.875V-.47h-1.11V0c.375-.031 1.281-.031 1.703-.031.406 0 1.266 0 1.625.031m-2.11-2.031H.845L3.297-5.11Zm0 0"/><path id="e" d="M5.156-2c0-1.156-.797-2.078-2.265-2.078-.282 0-.813.031-1.282.344v-1.313c.282.047.391.078.72.078 1.452 0 2.374-1.125 2.374-1.375 0-.078-.016-.187-.14-.187-.032 0-.032 0-.141.047a4.3 4.3 0 0 1-1.531.28c-.75 0-1.282-.202-1.547-.28-.094-.032-.094-.047-.125-.047-.14 0-.14.11-.14.265v2.922c0 .172 0 .297.218.297.125 0 .156-.031.219-.11.39-.468.922-.562 1.328-.562.89 0 .89.875.89 1.672 0 .735 0 1.735-1.187 1.735-.25 0-.875-.063-1.297-.625.36-.016.656-.266.656-.672 0-.532-.437-.672-.672-.672-.14 0-.671.094-.671.703 0 .844.78 1.687 2.015 1.687C4.172.11 5.156-.78 5.156-2m0 0"/><path id="f" d="M2.047 5.25c1.39 0 2.125-1.016 2.125-2.219 0-.219 0-.781-.766-1.203h.188c1.14 0 1.562.219 1.719.281.468.25.828.782.828 1.391 0 .172-.032.516-.266.75a.595.595 0 0 0-.61-.547c-.343 0-.624.235-.624.625s.265.625.64.625c.625 0 1.25-.422 1.25-1.469 0-1.359-.86-3-3.375-3-.781 0-1.578.079-2.265.5-.766.47-1 1.22-1 1.922 0 1.375.812 2.344 2.156 2.344m.015-1.36c-1 0-1.75 0-1.75-1.015 0-.516.391-.781.563-.86.313-.156 1.031-.156 1.219-.156 1.25 0 1.719.532 1.719 1.079 0 .953-.75.953-1.75.953m0 0"/><path id="h" d="M1.86 5.25c1.078 0 1.546-.844 1.828-1.328.359.687.796 1 1.374 1 1.016 0 1.47-.906 1.47-2.047 0-1.375-.798-2.078-1.75-2.078-.438 0-1.063.187-1.5.953C2.905.922 2.343.484 1.608.484.406.484-.109 1.563-.109 2.844c0 1.594.875 2.406 1.968 2.406m3.187-1.078c-.484 0-.813-.25-1.11-.688l.844-1.5c.078-.156.25-.437.594-.437.703 0 .766.89.766 1.297 0 .828-.407 1.328-1.094 1.328m-3.734.219c-.829 0-1-.938-1-1.516 0-.969.515-1.547 1.296-1.547.766 0 1.204.531 1.407.89l-.766 1.36c-.25.438-.453.813-.937.813m0 0"/><path id="j" d="M0 4.922h.469v-1.39h5.734c.234 0 .328 0 .328-.266 0-.11 0-.125-.078-.22-.562-.765-.562-1.796-.562-2V.845h-.47v.203c0 .156.016.703.204 1.297H.469V.954H0c.031.437.031 1.5.031 1.984s0 1.546-.031 1.984m0 0"/><path id="k" d="M3.188 5.281c.953 0 3.343-.015 3.343-2.422S4.156.453 3.188.453c-1 0-3.297 0-3.297 2.406 0 2.391 2.297 2.422 3.297 2.422M3.297 4c-.563 0-1.469 0-1.985-.078C.391 3.782.25 3.156.25 2.859c0-.359.219-.921.953-1.046.516-.094 1.547-.094 2.094-.094.719 0 1.375 0 1.89.078.891.125.985.828.985 1.062 0 .375-.188.782-.625.97C5.172 4 4.109 4 3.297 4m0 0"/><path id="m" d="M2.219 5.156v-.468c-.203-.032-.844-.125-.906-.266-.063-.11-.063-.86-.063-1.016V1.937c.39.47.813 1 1.14 1.438.844 1.14 1.313 1.781 2.25 1.781 1.157 0 1.891-1.047 1.891-2.437C6.531 1.5 5.906.563 5.016.563c-.594 0-.735.484-.735.718C4.281 1.61 4.5 2 5 2c.516 0 .672-.422.719-.562.234.28.343.671.343 1.03 0 .845-.671 1.313-1.421 1.313-.688 0-1.375-.375-2.078-1.078l-2.047-2C.406.563.375.563.172.563H0v4.28Zm0 0"/><path id="o" d="M0 5.406h.469v-.968h1.094v.968h.468v-.968H6.22c.265 0 .328-.016.328-.297 0-.22-.016-.22-.172-.344L2.031.313h-.469v2.875H.47v-1.11H0c.031.375.031 1.281.031 1.703 0 .406 0 1.266-.031 1.625m2.031-2.11V.845L5.11 3.297Zm0 0"/><path id="w" d="M3.281 5.25c.672 0 3.25 0 3.25-2.375 0-1.406-.812-2.39-2.14-2.39-1.375 0-2.125.984-2.125 2.203 0 .359.062.828.765 1.203h-.219c-.734 0-1.312-.094-1.656-.235A1.41 1.41 0 0 1 .313 2.36c0-.171.03-.53.218-.828.031.11.172.485.625.485.344 0 .625-.235.625-.625 0-.391-.265-.625-.64-.625-.688 0-1.25.515-1.25 1.609 0 1.297.843 2.875 3.39 2.875m.985-1.375c-.625 0-1.641-.25-1.641-1.094 0-.953.75-.953 1.734-.953.985 0 1.782 0 1.782 1.078 0 .578-.532.813-.625.86-.328.109-.907.109-1.25.109m0 0"/><path id="A" d="M2 5.156c1.156 0 2.078-.797 2.078-2.265 0-.282-.031-.813-.344-1.282h1.313c-.047.282-.078.391-.078.72 0 1.452 1.125 2.374 1.375 2.374.078 0 .187-.016.187-.14 0-.032 0-.032-.047-.141a4.3 4.3 0 0 1-.28-1.531c0-.75.202-1.282.28-1.547.032-.094.047-.094.047-.125 0-.14-.11-.14-.265-.14H3.344c-.172 0-.297 0-.297.218 0 .125.031.156.11.219.468.39.562.922.562 1.328 0 .89-.875.89-1.672.89-.735 0-1.735 0-1.735-1.187 0-.25.063-.875.626-1.297.015.36.265.656.671.656.532 0 .672-.437.672-.672 0-.14-.094-.671-.703-.671-.844 0-1.687.78-1.687 2.015C-.11 4.172.78 5.156 2 5.156m0 0"/><path id="g" d="M-6.422-5.562v2.03c0 .235-.047 1.704-.094 1.845-.03.203-.125.218-.218.234v.469l2.53.343v-.468c-.765-.094-.89-.22-.905-.266-.063-.11-.063-.922-.063-1.094V-4.14c.219.172.422.36.64.547 1.126.953 2.47 1.672 3.938 1.672.703 0 .703-.562.703-.625 0-.156-.046-.625-.703-.625h-.468c-.47 0-.954-.031-1.422-.094-.672-.093-1.25-.296-1.657-.656l-1.796-1.547c-.11-.093-.141-.093-.485-.093m0 0"/><path id="i" d="M-3.281-5.25c-.672 0-3.25 0-3.25 2.375 0 1.406.812 2.39 2.14 2.39 1.375 0 2.125-.984 2.125-2.202 0-.36-.062-.829-.765-1.204h.219c.734 0 1.312.094 1.656.235.39.172.843.61.843 1.297 0 .172-.03.53-.218.828-.031-.11-.172-.485-.625-.485-.344 0-.625.235-.625.625 0 .391.265.625.64.625.688 0 1.25-.515 1.25-1.609 0-1.297-.843-2.875-3.39-2.875m-.985 1.375c.625 0 1.641.25 1.641 1.094 0 .953-.75.953-1.734.953-.985 0-1.782 0-1.782-1.078 0-.578.532-.813.625-.86.329-.109.907-.109 1.25-.109m0 0"/><path id="l" d="M0-4.922h-.469v1.39h-5.734c-.234 0-.328 0-.328.266 0 .11 0 .125.078.22.562.765.562 1.796.562 2v.202h.47v-.203c0-.156-.016-.703-.204-1.297h5.156v1.39H0c-.031-.437-.031-1.5-.031-1.983 0-.485 0-1.547.031-1.985m0 0"/><path id="n" d="M-1.797-5.25c-.547 0-1.406.297-1.719 1.734-.203-.687-.765-1.406-1.625-1.406-.765 0-1.39.75-1.39 2.156 0 1.188.64 1.97 1.437 1.97a.68.68 0 0 0 .703-.688.67.67 0 0 0-.687-.703c-.578 0-.688.546-.703.578-.282-.344-.36-.782-.36-1.094 0-.828.641-.86.97-.86.124 0 1.437.016 1.5 1.047.015.407.015.438.03.485.016.094.11.125.172.125.172 0 .172-.11.172-.282v-.437c0-1.094.985-1.094 1.5-1.094.469 0 1.485 0 1.485 1.031 0 .266-.047.782-.344 1.266C-.75-1.75-1-2-1.406-2c-.453 0-.75.313-.75.75 0 .422.265.766.765.766.907 0 1.5-.97 1.5-2.25 0-1.782-1-2.516-1.906-2.516m0 0"/><path id="v" d="M-1.86-5.25c-1.077 0-1.546.844-1.827 1.328-.36-.687-.797-1-1.376-1-1.015 0-1.468.906-1.468 2.047 0 1.375.797 2.078 1.75 2.078.437 0 1.062-.187 1.5-.953.375.828.937 1.266 1.672 1.266 1.203 0 1.718-1.078 1.718-2.36 0-1.594-.875-2.406-1.968-2.406m-3.187 1.078c.484 0 .813.25 1.11.688l-.844 1.5c-.078.156-.25.437-.594.437-.703 0-.766-.89-.766-1.297 0-.828.407-1.328 1.094-1.328m3.734-.219c.829 0 1 .938 1 1.516 0 .969-.515 1.547-1.296 1.547-.766 0-1.203-.531-1.407-.89l.766-1.36c.25-.438.453-.813.938-.813m0 0"/><path id="y" d="M-2.219-5.156v.468c.203.032.844.125.906.266.063.11.063.86.063 1.016v1.469c-.39-.47-.812-1-1.14-1.438-.844-1.14-1.313-1.781-2.25-1.781-1.157 0-1.891 1.047-1.891 2.437 0 1.219.625 2.157 1.515 2.157.594 0 .735-.485.735-.72C-4.281-1.608-4.5-2-5-2c-.516 0-.672.422-.719.563-.234-.282-.343-.672-.343-1.032 0-.844.671-1.312 1.421-1.312.688 0 1.375.375 2.079 1.078l2.046 2c.11.14.141.14.344.14H0v-4.28Zm0 0"/><path id="z" d="M-3.187-5.281c-.954 0-3.344.015-3.344 2.422S-4.156-.453-3.188-.453c1 0 3.297 0 3.297-2.406 0-2.391-2.296-2.422-3.296-2.422M-3.297-4c.563 0 1.469 0 1.985.078.921.14 1.062.766 1.062 1.063 0 .359-.219.922-.953 1.047-.516.093-1.547.093-2.094.093-.719 0-1.375 0-1.89-.078-.891-.125-.985-.828-.985-1.062 0-.375.188-.782.625-.97C-5.172-4-4.109-4-3.297-4m0 0"/><path id="D" d="M-2.047-5.25c-1.39 0-2.125 1.016-2.125 2.219 0 .219 0 .781.766 1.203h-.188c-1.14 0-1.562-.219-1.719-.281A1.6 1.6 0 0 1-6.14-3.5c0-.172.032-.516.266-.75.047.36.313.547.61.547.343 0 .624-.235.624-.625s-.265-.625-.64-.625c-.625 0-1.25.422-1.25 1.469 0 1.359.86 3 3.375 3 .781 0 1.578-.079 2.265-.5.766-.47 1-1.22 1-1.922 0-1.375-.812-2.344-2.156-2.344m-.015 1.36c1 0 1.75 0 1.75 1.015 0 .516-.391.781-.563.86-.312.156-1.031.156-1.219.156-1.25 0-1.719-.532-1.719-1.078 0-.954.75-.954 1.75-.954m0 0"/><path id="p" d="M-4.922 0v.469h1.39v5.734c0 .234 0 .328.266.328.11 0 .125 0 .22-.078.765-.562 1.796-.562 2-.562h.202v-.47h-.203c-.156 0-.703.016-1.297.204V.469h1.39V0c-.437.031-1.5.031-1.983.031-.485 0-1.547 0-1.985-.031m0 0"/><path id="q" d="M-5.156 2c0 1.156.797 2.078 2.265 2.078.282 0 .813-.031 1.282-.344v1.313C-1.891 5-2 4.969-2.33 4.969c-1.452 0-2.374 1.125-2.374 1.375 0 .078.016.187.14.187.032 0 .032 0 .141-.047a4.3 4.3 0 0 1 1.531-.28c.75 0 1.282.202 1.547.28.094.032.094.047.125.047.14 0 .14-.11.14-.265V3.344c0-.172 0-.297-.218-.297-.125 0-.156.031-.219.11-.39.468-.921.562-1.328.562-.89 0-.89-.875-.89-1.672 0-.735 0-1.735 1.187-1.735.25 0 .875.063 1.297.626-.36.015-.656.265-.656.671 0 .532.437.672.672.672.14 0 .672-.094.672-.703 0-.844-.782-1.687-2.016-1.687C-4.172-.11-5.156.78-5.156 2m0 0"/><path id="r" d="M-5.25 2.047c0 1.39 1.016 2.125 2.219 2.125.219 0 .781 0 1.203-.766v.188c0 1.14-.219 1.562-.281 1.719-.25.468-.782.828-1.391.828-.172 0-.516-.032-.75-.266a.595.595 0 0 0 .547-.61c0-.343-.235-.624-.625-.624s-.625.265-.625.64c0 .625.422 1.25 1.469 1.25 1.359 0 3-.86 3-3.375 0-.781-.079-1.578-.5-2.265-.47-.766-1.22-1-1.922-1-1.375 0-2.344.812-2.344 2.156m1.36.015c0-1 0-1.75 1.015-1.75.516 0 .781.391.86.563.156.313.156 1.031.156 1.219 0 1.25-.532 1.719-1.078 1.719-.954 0-.954-.75-.954-1.75m0 0"/><path id="s" d="M-5.562 6.422h2.03c.235 0 1.704.047 1.845.094.203.03.218.125.234.218h.469l.343-2.53h-.468c-.094.765-.22.89-.266.905-.11.063-.922.063-1.094.063H-4.14c.172-.219.36-.422.547-.64.953-1.126 1.672-2.47 1.672-3.938 0-.703-.562-.703-.625-.703-.156 0-.625.047-.625.703v.469c0 .468-.031.953-.094 1.421-.093.672-.296 1.25-.656 1.657l-1.547 1.797c-.093.109-.093.14-.093.484m0 0"/><clipPath id="t"><path d="M65 236h29v10.43H65Zm0 0"/></clipPath><clipPath id="u"><path d="M53 224h24v22.43H53Zm0 0"/></clipPath><clipPath id="x"><path d="M82 224h24v22.43H82Zm0 0"/></clipPath><clipPath id="B"><path d="M140 166h19.438v24H140Zm0 0"/></clipPath><clipPath id="C"><path d="M140 137h19.438v24H140Zm0 0"/></clipPath></defs><use xlink:href="#a" x="76.765" y="137.435"/><use xlink:href="#b" x="76.765" y="108.401"/><use xlink:href="#c" x="76.765" y="79.312"/><use xlink:href="#d" x="76.765" y="50.337"/><use xlink:href="#e" x="76.765" y="21.243"/><path fill="none" stroke="#000" stroke-miterlimit="10" stroke-width=".399" d="M71.125 9.531h17.008"/><use xlink:href="#f" x="99.654" y="15.171"/><path fill="none" stroke="#7F7F7F" stroke-miterlimit="10" stroke-width=".199" d="M117.594 9.531V26.54"/><path fill="none" stroke="#000" stroke-miterlimit="10" stroke-width=".399" d="m117.594 9.531 3.398 8.504-3.398 8.504"/><path fill="none" stroke="#7F7F7F" stroke-miterlimit="10" stroke-width=".199" d="m117.594 26.54-14.73 8.503"/><path fill="none" stroke="#000" stroke-miterlimit="10" stroke-width=".399" d="m117.594 26.54-5.664 7.194-9.067 1.309"/><path fill="none" stroke="#7F7F7F" stroke-miterlimit="10" stroke-width=".199" d="m102.863 35.043-14.73-8.504"/><path fill="none" stroke="#000" stroke-miterlimit="10" stroke-width=".399" d="m88.133 26.54 7.937 7.937 6.793.566"/><path fill="none" stroke="#7F7F7F" stroke-miterlimit="10" stroke-width=".199" d="M88.133 26.54V9.53M88.133 9.531l14.73-8.504"/><path fill="none" stroke="#000" stroke-miterlimit="10" stroke-width=".399" d="m88.133 9.531 5.664-7.199 9.066-1.305"/><path fill="none" stroke="#7F7F7F" stroke-miterlimit="10" stroke-width=".199" d="m102.863 1.027 14.73 8.504"/><path fill="none" stroke="#000" stroke-miterlimit="10" stroke-width=".399" d="m102.863 1.027 9.067 1.305 5.664 7.2"/><path fill="none" stroke="#7F7F7F" stroke-miterlimit="10" stroke-width=".199" d="M88.133 26.54H71.125"/><use xlink:href="#g" x="59.708" y="20.899"/><path fill="none" stroke="#7F7F7F" stroke-miterlimit="10" stroke-width=".199" d="M41.668 26.54V9.53"/><path fill="none" stroke="#000" stroke-miterlimit="10" stroke-width=".399" d="m41.668 26.54-3.402-8.505 3.402-8.504"/><path fill="none" stroke="#7F7F7F" stroke-miterlimit="10" stroke-width=".199" d="m41.668 9.531 14.727-8.504"/><path fill="none" stroke="#000" stroke-miterlimit="10" stroke-width=".399" d="m41.668 9.531 5.66-7.199 9.067-1.305"/><path fill="none" stroke="#7F7F7F" stroke-miterlimit="10" stroke-width=".199" d="m56.395 1.027 14.73 8.504"/><path fill="none" stroke="#000" stroke-miterlimit="10" stroke-width=".399" d="m56.395 1.027 9.066 1.305 5.664 7.2"/><path fill="none" stroke="#7F7F7F" stroke-miterlimit="10" stroke-width=".199" d="M71.125 9.531V26.54M71.125 26.54l-14.73 8.503"/><path fill="none" stroke="#000" stroke-miterlimit="10" stroke-width=".399" d="m71.125 26.54-7.937 7.937-6.793.566"/><path fill="none" stroke="#7F7F7F" stroke-miterlimit="10" stroke-width=".199" d="m56.395 35.043-14.727-8.504"/><path fill="none" stroke="#000" stroke-miterlimit="10" stroke-width=".399" d="m56.395 35.043-9.067-1.309-5.66-7.195M88.133 26.54l12.027 12.022"/><use xlink:href="#h" x="105.455" y="44.205"/><path fill="none" stroke="#7F7F7F" stroke-miterlimit="10" stroke-width=".199" d="M117.168 38.562V55.57"/><path fill="none" stroke="#000" stroke-miterlimit="10" stroke-width=".399" d="m117.168 38.562 3.402 8.504-3.402 8.504M117.168 55.57H100.16"/><path fill="none" stroke="#7F7F7F" stroke-miterlimit="10" stroke-width=".199" d="M100.16 55.57V38.562"/><path fill="none" stroke="#000" stroke-miterlimit="10" stroke-width=".399" d="M100.16 38.562h17.008M100.16 55.57 88.133 67.598"/><path fill="none" stroke="#7F7F7F" stroke-miterlimit="10" stroke-width=".199" d="M88.133 67.598H71.125"/><path fill="none" stroke="#000" stroke-miterlimit="10" stroke-width=".399" d="M71.125 67.598 59.098 55.57"/><use xlink:href="#i" x="53.803" y="49.934"/><path fill="none" stroke="#7F7F7F" stroke-miterlimit="10" stroke-width=".199" d="M42.09 55.57V38.562"/><path fill="none" stroke="#000" stroke-miterlimit="10" stroke-width=".399" d="m42.09 55.57-3.403-8.504 3.403-8.504M42.09 38.562h17.008"/><path fill="none" stroke="#7F7F7F" stroke-miterlimit="10" stroke-width=".199" d="M59.098 38.562V55.57"/><path fill="none" stroke="#000" stroke-miterlimit="10" stroke-width=".399" d="M59.098 55.57H42.09M59.098 38.562 71.125 26.54"/><use xlink:href="#j" x="99.654" y="70.375"/><use xlink:href="#k" x="99.654" y="76.104"/><path fill="none" stroke="#7F7F7F" stroke-miterlimit="10" stroke-width=".199" d="M117.594 67.598v17.007"/><path fill="none" stroke="#000" stroke-miterlimit="10" stroke-width=".399" d="m117.594 67.598 3.398 8.504-3.398 8.503"/><path fill="none" stroke="#7F7F7F" stroke-miterlimit="10" stroke-width=".199" d="m117.594 84.605-14.73 8.504"/><path fill="none" stroke="#000" stroke-miterlimit="10" stroke-width=".399" d="m117.594 84.605-5.664 7.2-9.067 1.304"/><path fill="none" stroke="#7F7F7F" stroke-miterlimit="10" stroke-width=".199" d="m102.863 93.11-14.73-8.505"/><path fill="none" stroke="#000" stroke-miterlimit="10" stroke-width=".399" d="m88.133 84.605 7.937 7.938 6.793.566"/><path fill="none" stroke="#7F7F7F" stroke-miterlimit="10" stroke-width=".199" d="M88.133 84.605V67.598M88.133 67.598l14.73-8.504"/><path fill="none" stroke="#000" stroke-miterlimit="10" stroke-width=".399" d="m88.133 67.598 7.937-7.938 6.793-.566"/><path fill="none" stroke="#7F7F7F" stroke-miterlimit="10" stroke-width=".199" d="m102.863 59.094 14.73 8.504"/><path fill="none" stroke="#000" stroke-miterlimit="10" stroke-width=".399" d="m102.863 59.094 9.067 1.308 5.664 7.196"/><path fill="none" stroke="#7F7F7F" stroke-miterlimit="10" stroke-width=".199" d="M88.133 84.605H71.125"/><use xlink:href="#l" x="59.659" y="81.832"/><use xlink:href="#l" x="59.659" y="76.103"/><path fill="none" stroke="#7F7F7F" stroke-miterlimit="10" stroke-width=".199" d="M41.668 84.605V67.598"/><path fill="none" stroke="#000" stroke-miterlimit="10" stroke-width=".399" d="m41.668 84.605-3.402-8.503 3.402-8.504"/><path fill="none" stroke="#7F7F7F" stroke-miterlimit="10" stroke-width=".199" d="m41.668 67.598 14.727-8.504"/><path fill="none" stroke="#000" stroke-miterlimit="10" stroke-width=".399" d="m41.668 67.598 5.66-7.196 9.067-1.308"/><path fill="none" stroke="#7F7F7F" stroke-miterlimit="10" stroke-width=".199" d="m56.395 59.094 14.73 8.504"/><path fill="none" stroke="#000" stroke-miterlimit="10" stroke-width=".399" d="m71.125 67.598-7.937-7.938-6.793-.566"/><path fill="none" stroke="#7F7F7F" stroke-miterlimit="10" stroke-width=".199" d="M71.125 67.598v17.007M71.125 84.605l-14.73 8.504"/><path fill="none" stroke="#000" stroke-miterlimit="10" stroke-width=".399" d="m71.125 84.605-7.937 7.938-6.793.566"/><path fill="none" stroke="#7F7F7F" stroke-miterlimit="10" stroke-width=".199" d="m56.395 93.11-14.727-8.505"/><path fill="none" stroke="#000" stroke-miterlimit="10" stroke-width=".399" d="m56.395 93.11-9.067-1.305-5.66-7.2M88.133 84.605l12.027 12.028"/><use xlink:href="#j" x="105.4" y="99.409"/><use xlink:href="#m" x="105.4" y="105.138"/><path fill="none" stroke="#7F7F7F" stroke-miterlimit="10" stroke-width=".199" d="M117.168 96.633v17.008"/><path fill="none" stroke="#000" stroke-miterlimit="10" stroke-width=".399" d="m117.168 96.633 3.402 8.504-3.402 8.504M117.168 113.64H100.16"/><path fill="none" stroke="#7F7F7F" stroke-miterlimit="10" stroke-width=".199" d="M100.16 113.64V96.634"/><path fill="none" stroke="#000" stroke-miterlimit="10" stroke-width=".399" d="M100.16 96.633h17.008M100.16 113.64l-12.027 12.028"/><path fill="none" stroke="#7F7F7F" stroke-miterlimit="10" stroke-width=".199" d="M88.133 125.668H71.125"/><path fill="none" stroke="#000" stroke-miterlimit="10" stroke-width=".399" d="m71.125 125.668-12.027-12.027"/><use xlink:href="#l" x="53.803" y="110.866"/><use xlink:href="#n" x="53.803" y="105.137"/><path fill="none" stroke="#7F7F7F" stroke-miterlimit="10" stroke-width=".199" d="M42.09 113.64V96.634"/><path fill="none" stroke="#000" stroke-miterlimit="10" stroke-width=".399" d="m42.09 113.64-3.403-8.503 3.403-8.504M42.09 96.633h17.008"/><path fill="none" stroke="#7F7F7F" stroke-miterlimit="10" stroke-width=".199" d="M59.098 96.633v17.008"/><path fill="none" stroke="#000" stroke-miterlimit="10" stroke-width=".399" d="M59.098 113.64H42.09M59.098 96.633l12.027-12.028"/><use xlink:href="#j" x="99.594" y="128.444"/><use xlink:href="#o" x="99.594" y="134.173"/><path fill="none" stroke="#7F7F7F" stroke-miterlimit="10" stroke-width=".199" d="M117.594 125.668v17.008"/><path fill="none" stroke="#000" stroke-miterlimit="10" stroke-width=".399" d="m117.594 125.668 3.398 8.504-3.398 8.504"/><path fill="none" stroke="#7F7F7F" stroke-miterlimit="10" stroke-width=".199" d="m117.594 142.676-14.73 8.504"/><path fill="none" stroke="#000" stroke-miterlimit="10" stroke-width=".399" d="m117.594 142.676-5.664 7.199-9.067 1.305"/><path fill="none" stroke="#7F7F7F" stroke-miterlimit="10" stroke-width=".199" d="m102.863 151.18-14.73-8.504"/><path fill="none" stroke="#000" stroke-miterlimit="10" stroke-width=".399" d="m88.133 142.676 7.937 7.937 6.793.567"/><path fill="none" stroke="#7F7F7F" stroke-miterlimit="10" stroke-width=".199" d="M88.133 142.676v-17.008M88.133 125.668l14.73-8.504"/><path fill="none" stroke="#000" stroke-miterlimit="10" stroke-width=".399" d="m88.133 125.668 7.937-7.938 6.793-.566"/><path fill="none" stroke="#7F7F7F" stroke-miterlimit="10" stroke-width=".199" d="m102.863 117.164 14.73 8.504"/><path fill="none" stroke="#000" stroke-miterlimit="10" stroke-width=".399" d="m102.863 117.164 9.067 1.305 5.664 7.199"/><use xlink:href="#p" x="85.358" y="159.998"/><use xlink:href="#q" x="79.629" y="159.998"/><use xlink:href="#p" x="85.358" y="189.033"/><use xlink:href="#r" x="79.629" y="189.033"/><use xlink:href="#p" x="85.358" y="217.962"/><use xlink:href="#s" x="79.629" y="217.962"/><path fill="none" stroke="#7F7F7F" stroke-miterlimit="10" stroke-width=".199" d="M88.133 241.805H71.125"/><g clip-path="url(#t)"><path fill="none" stroke="#000" stroke-miterlimit="10" stroke-width=".399" d="m88.133 241.805-8.504 3.402-8.504-3.402"/></g><g clip-path="url(#u)"><path fill="none" stroke="#000" stroke-miterlimit="10" stroke-width=".399" d="M71.125 241.805 59.098 229.78"/></g><use xlink:href="#l" x="53.803" y="227.003"/><use xlink:href="#v" x="53.803" y="221.274"/><path fill="none" stroke="#7F7F7F" stroke-miterlimit="10" stroke-width=".199" d="M42.09 229.781v-17.008"/><path fill="none" stroke="#000" stroke-miterlimit="10" stroke-width=".399" d="m42.09 229.781-3.403-8.504 3.403-8.504M42.09 212.773h17.008"/><path fill="none" stroke="#7F7F7F" stroke-miterlimit="10" stroke-width=".199" d="M59.098 212.773v17.008"/><path fill="none" stroke="#000" stroke-miterlimit="10" stroke-width=".399" d="M59.098 229.781H42.09M59.098 212.773l12.027-12.027"/><path fill="none" stroke="#7F7F7F" stroke-miterlimit="10" stroke-width=".199" d="M71.125 200.746h17.008"/><path fill="none" stroke="#000" stroke-miterlimit="10" stroke-width=".399" d="m88.133 200.746 12.027 12.027"/><use xlink:href="#j" x="105.455" y="215.546"/><use xlink:href="#w" x="105.455" y="221.275"/><path fill="none" stroke="#7F7F7F" stroke-miterlimit="10" stroke-width=".199" d="M117.168 212.773v17.008"/><path fill="none" stroke="#000" stroke-miterlimit="10" stroke-width=".399" d="m117.168 212.773 3.402 8.504-3.402 8.504M117.168 229.781H100.16"/><path fill="none" stroke="#7F7F7F" stroke-miterlimit="10" stroke-width=".199" d="M100.16 229.781v-17.008"/><path fill="none" stroke="#000" stroke-miterlimit="10" stroke-width=".399" d="M100.16 212.773h17.008"/><g clip-path="url(#x)"><path fill="none" stroke="#000" stroke-miterlimit="10" stroke-width=".399" d="m100.16 229.781-12.027 12.024"/></g><use xlink:href="#y" x="59.604" y="197.969"/><use xlink:href="#z" x="59.604" y="192.24"/><path fill="none" stroke="#7F7F7F" stroke-miterlimit="10" stroke-width=".199" d="M41.668 200.746v-17.008"/><path fill="none" stroke="#000" stroke-miterlimit="10" stroke-width=".399" d="m41.668 200.746-3.402-8.504 3.402-8.504"/><path fill="none" stroke="#7F7F7F" stroke-miterlimit="10" stroke-width=".199" d="m41.668 183.738 14.727-8.504"/><path fill="none" stroke="#000" stroke-miterlimit="10" stroke-width=".399" d="m41.668 183.738 5.66-7.199 9.067-1.305"/><path fill="none" stroke="#7F7F7F" stroke-miterlimit="10" stroke-width=".199" d="m56.395 175.234 14.73 8.504"/><path fill="none" stroke="#000" stroke-miterlimit="10" stroke-width=".399" d="m71.125 183.738-7.937-7.937-6.793-.567"/><path fill="none" stroke="#7F7F7F" stroke-miterlimit="10" stroke-width=".199" d="M71.125 183.738v17.008M71.125 200.746l-14.73 8.504"/><path fill="none" stroke="#000" stroke-miterlimit="10" stroke-width=".399" d="m71.125 200.746-7.937 7.938-6.793.566"/><path fill="none" stroke="#7F7F7F" stroke-miterlimit="10" stroke-width=".199" d="m56.395 209.25-14.727-8.504"/><path fill="none" stroke="#000" stroke-miterlimit="10" stroke-width=".399" d="m56.395 209.25-9.067-1.309-5.66-7.195"/><path fill="none" stroke="#7F7F7F" stroke-miterlimit="10" stroke-width=".199" d="M71.125 183.738h17.008"/><use xlink:href="#m" x="99.599" y="186.512"/><use xlink:href="#j" x="99.599" y="192.241"/><path fill="none" stroke="#7F7F7F" stroke-miterlimit="10" stroke-width=".199" d="M117.594 183.738v17.008"/><path fill="none" stroke="#000" stroke-miterlimit="10" stroke-width=".399" d="m117.594 183.738 3.398 8.504-3.398 8.504"/><path fill="none" stroke="#7F7F7F" stroke-miterlimit="10" stroke-width=".199" d="m117.594 200.746-14.73 8.504"/><path fill="none" stroke="#000" stroke-miterlimit="10" stroke-width=".399" d="m117.594 200.746-5.664 7.195-9.067 1.309"/><path fill="none" stroke="#7F7F7F" stroke-miterlimit="10" stroke-width=".199" d="m102.863 209.25-14.73-8.504"/><path fill="none" stroke="#000" stroke-miterlimit="10" stroke-width=".399" d="m88.133 200.746 7.937 7.938 6.793.566"/><path fill="none" stroke="#7F7F7F" stroke-miterlimit="10" stroke-width=".199" d="M88.133 200.746v-17.008M88.133 183.738l14.73-8.504"/><path fill="none" stroke="#000" stroke-miterlimit="10" stroke-width=".399" d="m88.133 183.738 7.937-7.937 6.793-.567"/><path fill="none" stroke="#7F7F7F" stroke-miterlimit="10" stroke-width=".199" d="m102.863 175.234 14.73 8.504"/><path fill="none" stroke="#000" stroke-miterlimit="10" stroke-width=".399" d="m102.863 175.234 9.067 1.305 5.664 7.2M71.125 183.738l-12.027-12.027"/><use xlink:href="#y" x="53.858" y="168.935"/><use xlink:href="#y" x="53.858" y="163.206"/><use xlink:href="#y" x="24.769" y="168.935"/><use xlink:href="#n" x="24.769" y="163.206"/><path fill="none" stroke="#000" stroke-miterlimit="10" stroke-width=".399" d="M1.027 171.71v-17.007M1.027 154.703l12.028-12.027M13.055 142.676h17.008M30.063 142.676l12.027 12.027"/><path fill="none" stroke="#7F7F7F" stroke-miterlimit="10" stroke-width=".199" d="M42.09 154.703v17.008"/><path fill="none" stroke="#000" stroke-miterlimit="10" stroke-width=".399" d="m42.09 171.71-12.028 12.028M30.063 183.738H13.055M13.055 183.738 1.027 171.711M42.09 154.703h17.008"/><path fill="none" stroke="#7F7F7F" stroke-miterlimit="10" stroke-width=".199" d="M59.098 154.703v17.008"/><path fill="none" stroke="#000" stroke-miterlimit="10" stroke-width=".399" d="M59.098 171.71H42.09M59.098 154.703l12.027-12.027"/><path fill="none" stroke="#7F7F7F" stroke-miterlimit="10" stroke-width=".199" d="M71.125 142.676h17.008"/><path fill="none" stroke="#000" stroke-miterlimit="10" stroke-width=".399" d="m88.133 142.676 12.027 12.027"/><use xlink:href="#m" x="105.396" y="157.478"/><use xlink:href="#o" x="105.396" y="163.207"/><use xlink:href="#m" x="134.49" y="157.478"/><use xlink:href="#A" x="134.49" y="163.207"/><path fill="none" stroke="#000" stroke-miterlimit="10" stroke-width=".399" d="M158.23 154.703v17.008"/><g clip-path="url(#B)"><path fill="none" stroke="#000" stroke-miterlimit="10" stroke-width=".399" d="m158.23 171.71-12.027 12.028"/></g><path fill="none" stroke="#000" stroke-miterlimit="10" stroke-width=".399" d="M146.203 183.738h-17.008M129.195 183.738l-12.027-12.027"/><path fill="none" stroke="#7F7F7F" stroke-miterlimit="10" stroke-width=".199" d="M117.168 171.71v-17.007"/><path fill="none" stroke="#000" stroke-miterlimit="10" stroke-width=".399" d="m117.168 154.703 12.027-12.027M129.195 142.676h17.008"/><g clip-path="url(#C)"><path fill="none" stroke="#000" stroke-miterlimit="10" stroke-width=".399" d="m146.203 142.676 12.027 12.027"/></g><path fill="none" stroke="#000" stroke-miterlimit="10" stroke-width=".399" d="M117.168 171.71H100.16"/><path fill="none" stroke="#7F7F7F" stroke-miterlimit="10" stroke-width=".199" d="M100.16 171.71v-17.007"/><path fill="none" stroke="#000" stroke-miterlimit="10" stroke-width=".399" d="M100.16 154.703h17.008M100.16 171.71l-12.027 12.028"/><use xlink:href="#y" x="59.604" y="139.901"/><use xlink:href="#D" x="59.604" y="134.172"/><path fill="none" stroke="#7F7F7F" stroke-miterlimit="10" stroke-width=".199" d="M41.668 142.676v-17.008"/><path fill="none" stroke="#000" stroke-miterlimit="10" stroke-width=".399" d="m41.668 142.676-3.402-8.504 3.402-8.504"/><path fill="none" stroke="#7F7F7F" stroke-miterlimit="10" stroke-width=".199" d="m41.668 125.668 14.727-8.504"/><path fill="none" stroke="#000" stroke-miterlimit="10" stroke-width=".399" d="m41.668 125.668 5.66-7.2 9.067-1.304"/><path fill="none" stroke="#7F7F7F" stroke-miterlimit="10" stroke-width=".199" d="m56.395 117.164 14.73 8.504"/><path fill="none" stroke="#000" stroke-miterlimit="10" stroke-width=".399" d="m71.125 125.668-7.937-7.938-6.793-.566"/><path fill="none" stroke="#7F7F7F" stroke-miterlimit="10" stroke-width=".199" d="M71.125 125.668v17.008M71.125 142.676l-14.73 8.504"/><path fill="none" stroke="#000" stroke-miterlimit="10" stroke-width=".399" d="m71.125 142.676-7.937 7.937-6.793.567"/><path fill="none" stroke="#7F7F7F" stroke-miterlimit="10" stroke-width=".199" d="m56.395 151.18-14.727-8.504"/><path fill="none" stroke="#000" stroke-miterlimit="10" stroke-width=".399" d="m56.395 151.18-9.067-1.305-5.66-7.2"/></svg>