<svg xmlns="http://www.w3.org/2000/svg" xmlns:xlink="http://www.w3.org/1999/xlink" width="106.382" height="31.898"><defs><path id="a" d="M5.531-1.984c0-1.22-.875-2.047-2.187-2.047-.719 0-1.203.297-1.375.422v-2.61l-1.594.063v.437c.531 0 .61 0 .61.36V0h.453l.421-.516c.282.297.72.563 1.36.563 1.406 0 2.312-.844 2.312-2.031m-1.187-.032c0 .391 0 .844-.188 1.172-.297.5-.843.532-1.031.532-.547 0-.906-.329-1.094-.625V-3.11a1.55 1.55 0 0 1 1.203-.563c1.11 0 1.11 1.078 1.11 1.656m0 0"/><path id="b" d="M4.563-1.047c0-.172-.172-.172-.235-.172-.156 0-.172.047-.234.172-.203.469-.75.719-1.313.719-1.281 0-1.297-1.156-1.297-1.594h2.782c.187 0 .297 0 .297-.25 0-.203-.016-1-.594-1.484-.406-.328-.953-.406-1.39-.406-1.532 0-2.282.968-2.282 2.046 0 1.172.89 2.063 2.406 2.063 1.485 0 1.86-.938 1.86-1.094M3.688-2.25H1.483c.016-.406.063-1.453 1.094-1.453 1.047 0 1.094 1.094 1.11 1.453m0 0"/><path id="c" d="M3.531-1.11v-.468h-.469v.453c0 .625-.312.797-.546.797C2-.328 2-.875 2-1.078v-2.469h1.36v-.437H2v-1.703h-.453c-.016.828-.438 1.765-1.344 1.78v.36h.75v2.438c0 1.03.89 1.156 1.438 1.156.703 0 1.14-.5 1.14-1.156m0 0"/><path id="d" d="M4.078-3.281c0-.453-.469-.75-1-.75-.625 0-1 .453-1.203.968h-.016v-.968L.375-3.97v.438c.531 0 .61 0 .61.36v2.734h-.61V0l1.14-.031c.22 0 .75 0 1.22.031v-.437h-.766v-1.516c0-.656.25-1.703 1.11-1.719a.57.57 0 0 0-.142.39c0 .391.313.579.563.579.297 0 .578-.203.578-.578m0 0"/><path id="e" d="M5.375 0v-.437H4.75L3.203-2.203l1.11-1.172c.093-.11.156-.172.875-.172v-.437c-.313.03-.547.03-.844.03-.157 0-.5 0-.907-.03v.437c.188 0 .235.047.297.11l-.828.906-.89-1.016h.328v-.437l-1.078.03c-.188 0-.532 0-.985-.03v.437h.625l1.422 1.625L1.125-.609c-.172.172-.484.172-.89.172V0c.296-.031.53-.031.828-.031.171 0 .515 0 .921.031v-.437c-.14 0-.296-.032-.296-.094 0-.047.078-.11.078-.11l.875-.937.984 1.14h-.312V0L4.39-.031c.203 0 .53 0 .984.031m0 0"/><path id="f" d="M5.11-.219c0-.218-.157-.218-.235-.218-.578-.016-.578-.094-.578-.313v-1.922c0-.797-.64-1.39-2.031-1.39-.5 0-1.657.015-1.657.843 0 .406.313.594.579.594.312 0 .593-.219.593-.578 0-.266-.156-.422-.187-.453.093-.016.312-.047.64-.047.641 0 1.016.328 1.016 1.031v.281C1.766-2.39.25-2 .25-1 .25-.11 1.375.047 2.016.047c.687 0 1.156-.281 1.39-.703 0 .219 0 .656.969.656h.438c.171 0 .296 0 .296-.219M3.25-1.25c0 .938-1.047.938-1.078.938-.453 0-.828-.282-.828-.688 0-.297.156-1 1.906-1.078Zm0 0"/><path id="g" d="M8.594 0v-.437h-.61v-2.297c0-1.063-.625-1.297-1.421-1.297-.938 0-1.391.562-1.563.843C4.813-4 4.016-4.03 3.625-4.03c-1.11 0-1.547.797-1.61.937H2v-.937L.453-3.97v.438c.531 0 .61 0 .61.36v2.734h-.61V0l1.125-.031L2.718 0v-.437H2.11v-1.844c0-1 .829-1.39 1.36-1.39.344 0 .531.171.531.858v2.376h-.61V0l1.126-.031L5.656 0v-.437h-.61v-1.844c0-1 .829-1.39 1.36-1.39.344 0 .532.171.532.858v2.376h-.61V0l1.14-.031Zm0 0"/><path id="h" d="M5.531-1.984c0-1.188-.812-2.047-2.172-2.047-.718 0-1.218.297-1.39.422v-.422L.375-3.97v.438c.172 0 .313 0 .438.031.171.031.171.125.171.313v4.484H.375v.437L1.5 1.72l1.14.015v-.437h-.609v-1.64c.531.39 1.016.39 1.188.39 1.406 0 2.312-.844 2.312-2.031M4.344-2c0 1.25-.64 1.688-1.235 1.688-.453 0-.843-.25-1.078-.625v-2.157a1.55 1.55 0 0 1 1.188-.562c.625 0 1.125.562 1.125 1.656m0 0"/><path id="i" d="M2.688 0v-.437h-.61V-6.22l-1.61.063v.437c.532 0 .61 0 .61.36v4.922h-.61V0l1.095-.031Zm0 0"/><path id="j" d="M4.406-1.047c0-.14-.125-.14-.234-.14-.172 0-.172.015-.25.171-.172.438-.578.688-1.11.688-1.265 0-1.265-1.297-1.265-1.703 0-.531 0-1.64 1.172-1.64.078 0 .562 0 .562.046l-.031.047a.6.6 0 0 0-.125.375c0 .36.281.578.594.578a.57.57 0 0 0 .578-.594c0-.844-1.25-.844-1.61-.844C.97-4.062.345-2.968.345-1.983c0 1.125.812 2.03 2.297 2.03.343 0 .78-.046 1.156-.28.515-.313.61-.782.61-.813m0 0"/><clipPath id="k"><path d="M0 17h30v14.848H0Zm0 0"/></clipPath></defs><use xlink:href="#a" x="25.739" y="7.185"/><use xlink:href="#b" x="31.926" y="7.185"/><use xlink:href="#c" x="36.795" y="7.185"/><use xlink:href="#c" x="40.919" y="7.185"/><use xlink:href="#b" x="45.044" y="7.185"/><use xlink:href="#d" x="49.912" y="7.185"/><use xlink:href="#b" x="57.821" y="7.185"/><use xlink:href="#e" x="62.689" y="7.185"/><use xlink:href="#f" x="68.293" y="7.185"/><use xlink:href="#g" x="73.449" y="7.185"/><use xlink:href="#h" x="82.29" y="7.185"/><use xlink:href="#i" x="88.181" y="7.185"/><use xlink:href="#b" x="91.131" y="7.185"/><use xlink:href="#f" x="99.532" y="7.185"/><path fill="none" stroke="#000" stroke-miterlimit="10" stroke-width=".598" d="m.836 4.973 4.98-1.328L15.781 6.3l4.98-1.328M3.824 3.645H7.81M5.816 1.652v3.985M13.79 6.3h3.983M15.781 4.31v3.984"/><use xlink:href="#a" x="25.739" y="18.143"/><use xlink:href="#b" x="31.926" y="18.143"/><use xlink:href="#c" x="36.795" y="18.143"/><use xlink:href="#c" x="40.919" y="18.143"/><use xlink:href="#b" x="45.044" y="18.143"/><use xlink:href="#d" x="49.912" y="18.143"/><use xlink:href="#b" x="57.821" y="18.143"/><use xlink:href="#e" x="62.689" y="18.143"/><use xlink:href="#f" x="68.293" y="18.143"/><use xlink:href="#g" x="73.449" y="18.143"/><use xlink:href="#h" x="82.29" y="18.143"/><use xlink:href="#i" x="88.181" y="18.143"/><use xlink:href="#b" x="91.131" y="18.143"/><use xlink:href="#a" x="99.532" y="18.143"/><path fill="none" stroke="#000" stroke-miterlimit="10" stroke-width=".598" d="M.836 15.934s2.91-1.512 4.98-1.329c2.075.184 7.891 2.47 9.965 2.653s4.98-1.324 4.98-1.324M7.809 14.605H3.824M17.773 17.258H13.79"/><use xlink:href="#a" x="25.739" y="29.102"/><use xlink:href="#b" x="31.926" y="29.102"/><use xlink:href="#c" x="36.795" y="29.102"/><use xlink:href="#c" x="40.919" y="29.102"/><use xlink:href="#b" x="45.044" y="29.102"/><use xlink:href="#d" x="49.912" y="29.102"/><use xlink:href="#b" x="57.821" y="29.102"/><use xlink:href="#e" x="62.689" y="29.102"/><use xlink:href="#f" x="68.293" y="29.102"/><use xlink:href="#g" x="73.449" y="29.102"/><use xlink:href="#h" x="82.29" y="29.102"/><use xlink:href="#i" x="88.181" y="29.102"/><use xlink:href="#b" x="91.131" y="29.102"/><use xlink:href="#j" x="99.532" y="29.102"/><g clip-path="url(#k)"><path fill="none" stroke="#000" stroke-miterlimit="10" stroke-width=".598" d="M.836 26.89s2.91-1.511 4.98-1.328c2.075.188 7.891 2.473 9.965 2.657 2.074.183 4.98-1.328 4.98-1.328"/></g><path fill="none" stroke="#000" stroke-miterlimit="10" stroke-width=".598" d="M5.816 23.57v3.985M15.781 26.227v3.984"/></svg>