<svg xmlns="http://www.w3.org/2000/svg" xmlns:xlink="http://www.w3.org/1999/xlink" width="98.39" height="12.242"><defs><path id="a" d="M2.938-6.375c0-.25 0-.266-.235-.266C2.078-6 1.203-6 .891-6v.313c.203 0 .78 0 1.297-.266v5.172c0 .36-.032.469-.922.469H.953V0c.344-.031 1.203-.031 1.61-.031.39 0 1.265 0 1.609.031v-.312h-.313c-.906 0-.921-.11-.921-.47Zm0 0"/><path id="c" d="m1.266-.766 1.062-1.03c1.547-1.376 2.14-1.907 2.14-2.907 0-1.14-.89-1.938-2.109-1.938C1.234-6.64.5-5.719.5-4.828c0 .547.5.547.531.547.172 0 .516-.11.516-.532a.513.513 0 0 0-.531-.515c-.079 0-.094 0-.125.016.218-.657.765-1.016 1.343-1.016.907 0 1.329.812 1.329 1.625 0 .797-.485 1.578-1.047 2.203L.609-.375C.5-.265.5-.235.5 0h3.703l.266-1.734h-.235C4.172-1.437 4.11-1 4-.844c-.062.078-.719.078-.937.078Zm0 0"/><path id="d" d="M2.89-3.516c.813-.265 1.391-.953 1.391-1.75 0-.812-.875-1.375-1.828-1.375-1 0-1.765.594-1.765 1.36 0 .328.218.515.515.515s.5-.218.5-.515c0-.485-.469-.485-.61-.485.298-.5.954-.625 1.313-.625.422 0 .969.22.969 1.11 0 .125-.031.703-.281 1.14-.297.485-.64.516-.89.516a3 3 0 0 1-.392.031c-.078.016-.14.031-.14.125 0 .11.062.11.234.11h.438c.812 0 1.187.672 1.187 1.656 0 1.36-.687 1.64-1.125 1.64S1.22-.233.875-.812c.344.047.656-.171.656-.546a.537.537 0 0 0-.547-.563c-.25 0-.562.14-.562.578C.422-.437 1.344.22 2.437.22c1.22 0 2.126-.906 2.126-1.922 0-.813-.641-1.594-1.672-1.813m0 0"/><path id="f" d="M4.578-3.187c0-.797-.047-1.594-.39-2.329C3.734-6.484 2.906-6.64 2.5-6.64c-.61 0-1.328.266-1.75 1.188-.312.687-.36 1.469-.36 2.266 0 .75.032 1.64.454 2.406a1.83 1.83 0 0 0 1.64 1c.532 0 1.297-.203 1.735-1.156.312-.688.36-1.47.36-2.25M2.484 0c-.39 0-.984-.25-1.156-1.203-.11-.594-.11-1.516-.11-2.11 0-.64 0-1.296.079-1.828.187-1.187.937-1.28 1.187-1.28.329 0 .985.187 1.172 1.171.11.563.11 1.313.11 1.938 0 .75 0 1.421-.11 2.062C3.5-.297 2.937 0 2.484 0m0 0"/><path id="b" d="M1.906-.531a.534.534 0 0 0-.515-.531.537.537 0 0 0-.532.53.524.524 0 1 0 1.047 0m0 0"/><path id="e" d="M3.875-2.766 1.891-4.75c-.125-.125-.141-.14-.22-.14a.197.197 0 0 0-.202.202c0 .063.015.079.125.188l2 2-2 2.016c-.11.109-.125.125-.125.187 0 .125.093.203.203.203.078 0 .094-.015.219-.14L3.875-2.22 5.938-.156a.24.24 0 0 0 .14.062c.125 0 .203-.078.203-.203 0-.016 0-.047-.031-.11C6.234-.421 4.656-1.983 4.156-2.5l1.828-1.812c.047-.063.204-.188.25-.25 0-.016.047-.063.047-.125 0-.125-.078-.204-.203-.204-.078 0-.11.032-.219.141Zm0 0"/><path id="g" d="M2.328-4.437c0-.188 0-.188-.203-.188-.453.438-1.078.438-1.36.438v.25c.157 0 .626 0 1-.188v3.547c0 .234 0 .328-.687.328H.812V0c.125 0 .985-.031 1.235-.031.219 0 1.094.031 1.25.031v-.25H3.03c-.703 0-.703-.094-.703-.328Zm0 0"/><path id="j" d="M3.688-1.14v-.25h-.782V-4.5c0-.14 0-.203-.14-.203-.094 0-.125 0-.188.11L.266-1.392v.25h2.062v.563c0 .25 0 .328-.578.328h-.187V0c.359-.016.796-.031 1.046-.031.266 0 .704.015 1.063.031v-.25h-.188c-.578 0-.578-.078-.578-.328v-.563ZM2.375-3.939v2.547H.531Zm0 0"/><path id="h" d="M2.36-3.656a.77.77 0 0 0-.782-.766.767.767 0 0 0-.766.766.774.774 0 1 0 1.547 0m.03 3.344c0-.657-.25-1.25-.812-1.25-.469 0-.766.359-.766.78 0 .407.266.782.766.782.234 0 .39-.094.453-.125a2.67 2.67 0 0 1-.828 1.703c-.078.078-.094.094-.094.156 0 .094.11.204.188.204.14 0 1.094-.907 1.094-2.25m0 0"/><path id="i" d="M5.188-1.578c.109 0 .28 0 .28-.156 0-.188-.171-.188-.28-.188H1.03c-.11 0-.281 0-.281.172s.156.172.281.172Zm0 0"/></defs><use xlink:href="#a" x="-.187" y="8.944"/><use xlink:href="#b" x="4.794" y="8.944"/><use xlink:href="#c" x="7.562" y="8.944"/><use xlink:href="#d" x="12.543" y="8.944"/><use xlink:href="#e" x="19.738" y="8.944"/><use xlink:href="#a" x="29.701" y="8.944"/><use xlink:href="#f" x="34.682" y="8.944"/><use xlink:href="#g" x="39.664" y="5.328"/><use xlink:href="#h" x="44.133" y="8.944"/><use xlink:href="#a" x="47.311" y="8.944"/><use xlink:href="#b" x="52.292" y="8.944"/><use xlink:href="#c" x="55.06" y="8.944"/><use xlink:href="#d" x="60.041" y="8.944"/><use xlink:href="#e" x="67.236" y="8.944"/><use xlink:href="#a" x="77.199" y="8.944"/><use xlink:href="#f" x="82.18" y="8.944"/><use xlink:href="#i" x="87.162" y="5.328"/><use xlink:href="#j" x="93.388" y="5.328"/></svg>