<svg xmlns="http://www.w3.org/2000/svg" width="30.362" height="35.786"><defs><clipPath id="a"><path d="M19 0h11.043v10H19Zm0 0"/></clipPath><clipPath id="b"><path d="M19 9h11.043v16H19Zm0 0"/></clipPath><clipPath id="c"><path d="M19 22h11.043v13.68H19Zm0 0"/></clipPath></defs><path fill="none" stroke="#000" stroke-miterlimit="10" stroke-width=".399" d="M.691 2.723h25.282"/><path d="m28.469 2.723-3.57-1.348 1.175 1.348-1.176 1.343Zm0 0"/><g clip-path="url(#a)"><path fill="none" stroke="#000" stroke-miterlimit="10" stroke-width=".399" d="m28.469 2.723-3.57-1.348 1.175 1.348-1.176 1.343Zm0 0"/></g><path fill="none" stroke="#000" stroke-miterlimit="10" stroke-width=".399" d="M.691 16.895h25.247"/><path d="m28.629 16.895-3.856-2.176 1.266 2.176-1.266 2.18Zm0 0"/><g clip-path="url(#b)"><path fill="none" stroke="#000" stroke-miterlimit="10" stroke-width=".399" d="m28.629 16.895-3.856-2.176 1.266 2.176-1.266 2.18Zm0 0"/></g><path fill="none" stroke="#000" stroke-miterlimit="10" stroke-width=".399" d="M.691 31.07h25.235"/><path d="m28.703 31.07-3.984-2.996 1.308 2.996-1.308 2.996Zm0 0"/><g clip-path="url(#c)"><path fill="none" stroke="#000" stroke-miterlimit="10" stroke-width=".399" d="m28.703 31.07-3.984-2.996 1.308 2.996-1.308 2.996Zm0 0"/></g></svg>