<svg xmlns="http://www.w3.org/2000/svg" xmlns:xlink="http://www.w3.org/1999/xlink" width="138.676" height="145.298"><defs><path id="b" d="M5.563-1.812c.14 0 .312 0 .312-.172 0-.188-.172-.188-.312-.188H1c-.125 0-.297 0-.297.188 0 .172.172.172.297.172Zm0 0"/><path id="c" d="M2.25-1.625c.125-.125.453-.39.594-.5.484-.453.953-.89.953-1.61 0-.953-.797-1.562-1.781-1.562-.97 0-1.594.719-1.594 1.438 0 .39.312.437.422.437.172 0 .422-.11.422-.422 0-.406-.407-.406-.5-.406.234-.594.765-.781 1.156-.781.734 0 1.125.625 1.125 1.297 0 .828-.578 1.437-1.531 2.39l-1 1.047C.422-.219.422-.203.422 0h3.14l.235-1.422h-.25c-.016.156-.078.547-.172.703-.047.063-.656.063-.781.063H1.172Zm0 0"/><path id="d" d="M3.89-2.547c0-.844-.078-1.36-.343-1.875-.344-.703-1-.875-1.438-.875-1 0-1.375.75-1.484.969C.344-3.75.328-2.953.328-2.547c0 .531.016 1.328.406 1.969.36.594.954.75 1.375.75.391 0 1.063-.125 1.47-.906.296-.578.312-1.297.312-1.813M2.11-.062c-.266 0-.813-.125-.985-.954-.094-.453-.094-1.203-.094-1.625 0-.546 0-1.109.094-1.546.172-.813.781-.891.984-.891.266 0 .829.14.985.86.094.437.094 1.046.094 1.577 0 .47 0 1.188-.094 1.641-.172.828-.719.938-.985.938m0 0"/><path id="f" d="M2.5-5.078c0-.219-.016-.219-.234-.219-.328.313-.75.5-1.5.5v.266c.218 0 .64 0 1.109-.203v4.078c0 .297-.031.39-.781.39H.812V0c.329-.031 1.016-.031 1.376-.031s1.046 0 1.374.031v-.266h-.28c-.75 0-.782-.093-.782-.39Zm0 0"/><path id="i" d="M2.016-2.656c.625 0 1.03.453 1.03 1.297 0 1-.562 1.28-.983 1.28-.438 0-1.047-.155-1.329-.577.297 0 .5-.188.5-.438 0-.265-.187-.437-.453-.437-.203 0-.437.125-.437.453 0 .75.812 1.25 1.734 1.25 1.047 0 1.797-.734 1.797-1.531 0-.672-.531-1.266-1.344-1.453.625-.22 1.11-.75 1.11-1.391 0-.64-.72-1.094-1.547-1.094-.86 0-1.5.453-1.5 1.063 0 .297.187.422.406.422.25 0 .406-.172.406-.407 0-.297-.265-.406-.437-.406.344-.437.953-.469 1.094-.469.203 0 .812.063.812.89 0 .548-.234.891-.344 1.016-.234.25-.422.266-.906.297-.156 0-.219.016-.219.125 0 .11.078.11.219.11Zm0 0"/><path id="j" d="M3.14-5.156c0-.157 0-.219-.171-.219-.094 0-.11 0-.188.11L.234-1.564v.25h2.25v.672c0 .297-.015.375-.64.375h-.172V0c.672-.031.687-.031 1.14-.031.454 0 .47 0 1.141.031v-.266h-.172c-.625 0-.64-.078-.64-.375v-.671h.843v-.25h-.843Zm-.593.64v2.954H.516Zm0 0"/><path id="l" d="M4.406-3.625a.504.504 0 0 0-.422.484c0 .172.125.329.344.329.25 0 .5-.22.5-.532 0-.422-.453-.625-.875-.625-.531 0-.844.485-.953.672a1.04 1.04 0 0 0-1-.672c-.953 0-1.484 1.156-1.484 1.39 0 .079.062.11.125.11.078 0 .109-.047.125-.11.28-.89.875-1.155 1.218-1.155.266 0 .485.172.485.593 0 .313-.375 1.75-.5 2.188-.063.265-.344.828-.828.828-.188 0-.375-.062-.453-.11.234-.046.421-.265.421-.484 0-.234-.171-.328-.343-.328-.266 0-.5.219-.5.531 0 .438.484.61.859.61.531 0 .828-.422.969-.672.219.594.75.672.984.672.969 0 1.485-1.156 1.485-1.375 0-.047-.032-.11-.11-.11-.11 0-.11.032-.156.172-.203.64-.719 1.094-1.188 1.094-.25 0-.5-.156-.5-.594 0-.203.125-.687.204-1.031.046-.156.28-1.125.296-1.187.11-.329.375-.797.844-.797.156 0 .328.015.453.109m0 0"/><path id="m" d="M3.36-3.594h.796c.188 0 .282 0 .282-.156 0-.11-.094-.11-.266-.11h-.766c.094-.546.219-1.28.344-1.765.078-.344.297-.469.469-.469.062 0 .265.016.422.125-.188.032-.438.188-.438.485 0 .234.172.328.328.328.25 0 .5-.203.5-.532 0-.406-.39-.64-.812-.64-.407 0-.813.297-1 .656-.203.39-.266.734-.453 1.813h-.641c-.172 0-.281 0-.281.156 0 .11.11.11.265.11h.61C2.469-2.282 2.156-.5 1.953.436c-.11.5-.25 1.172-.672 1.172-.14 0-.328-.046-.406-.125.219-.03.438-.218.438-.484 0-.234-.172-.328-.329-.328a.51.51 0 0 0-.5.531c0 .422.407.64.797.64.907 0 1.328-1.5 1.469-2.265Zm0 0"/><path id="n" d="M3.063 2.14c0-.046-.032-.078-.079-.14C1.828.938 1.47-.672 1.47-2.25c0-1.375.265-3.062 1.531-4.266.047-.046.063-.062.063-.109a.107.107 0 0 0-.11-.11c-.11 0-.922.657-1.406 1.626-.422.859-.64 1.797-.64 2.859 0 .64.077 1.672.577 2.719.532 1.11 1.36 1.765 1.47 1.765.062 0 .108-.03.108-.093m0 0"/><path id="o" d="M2.672-2.25c0-.734-.11-1.719-.578-2.719C1.563-6.079.734-6.734.625-6.734c-.094 0-.11.078-.11.109 0 .047.016.063.079.125.531.469 1.515 1.688 1.515 4.25C2.11-.969 1.875.813.58 2.031c-.016.016-.063.063-.063.11 0 .015.015.093.109.093.11 0 .922-.64 1.406-1.625.422-.859.64-1.78.64-2.859m0 0"/><clipPath id="a"><path d="M0 137h17v7.945H0Zm0 0"/></clipPath><clipPath id="e"><path d="M28 137h18v7.945H28Zm0 0"/></clipPath><clipPath id="g"><path d="M88 137h11v7.945H88Zm0 0"/></clipPath><clipPath id="h"><path d="M116 137h11v7.945h-11Zm0 0"/></clipPath><clipPath id="k"><path d="M129 128h9.516v12H129Zm0 0"/></clipPath></defs><path fill="none" stroke="#000" stroke-linecap="round" stroke-miterlimit="10" stroke-width=".399" d="M8.32 135.992v-3.984M36.664 135.992v-3.984M93.36 135.992v-3.984M121.707 135.992v-3.984M63.02 105.656h3.984M63.02 77.309h3.984M63.02 48.96h3.984M63.02 20.613h3.984"/><path fill="none" stroke="#000" stroke-miterlimit="10" stroke-width=".399" d="M.848 134h127.93"/><path fill="none" stroke="#000" stroke-linecap="round" stroke-linejoin="round" stroke-miterlimit="10" stroke-width=".399" d="M126.906 131.61c.38 1.433 1.223 2.113 2.07 2.39-.847.281-1.69.957-2.07 2.39"/><path fill="none" stroke="#000" stroke-miterlimit="10" stroke-width=".399" d="M65.012 141.473V13.539"/><path fill="none" stroke="#000" stroke-linecap="round" stroke-linejoin="round" stroke-miterlimit="10" stroke-width=".399" d="M62.621 15.414c1.434-.379 2.113-1.223 2.39-2.074.278.851.958 1.695 2.391 2.074"/><path fill="none" stroke="#000" stroke-miterlimit="10" stroke-width=".598" d="M8.32 20.613s3.41 13.305 4.723 18.114a855 855 0 0 0 4.723 16.535c1.312 4.367 3.414 11.027 4.726 14.96 1.313 3.93 3.414 9.887 4.723 13.383 1.312 3.497 3.414 8.754 4.726 11.813 1.309 3.059 3.414 7.613 4.723 10.234 1.313 2.625 3.414 6.477 4.727 8.664 1.308 2.184 3.414 5.336 4.722 7.086 1.313 1.746 3.414 4.2 4.727 5.512 1.308 1.313 3.41 3.063 4.722 3.938s3.415 1.925 4.727 2.363c1.309.437 3.41.785 4.723.785s3.414-.348 4.722-.785c1.313-.438 3.414-1.488 4.727-2.363 1.309-.875 3.414-2.625 4.723-3.938 1.312-1.309 3.414-3.762 4.726-5.512 1.309-1.746 3.414-4.902 4.723-7.086 1.312-2.183 3.414-6.039 4.726-8.66 1.309-2.62 3.414-7.18 4.723-10.238 1.313-3.059 3.414-8.313 4.727-11.809 1.308-3.496 3.41-9.453 4.722-13.386a606 606 0 0 0 4.723-14.961 820 820 0 0 0 4.726-16.535c1.313-4.805 4.723-18.11 4.723-18.11"/><g clip-path="url(#a)"><path fill="#FFF" d="M15.348 137.652H1.289c-.824 0-1.496.672-1.496 1.496v4.97c0 .827.672 1.495 1.496 1.495h14.059c.824 0 1.496-.668 1.496-1.496v-4.969c0-.824-.672-1.496-1.496-1.496m0 0"/></g><use xlink:href="#b" x=".792" y="143.786"/><use xlink:href="#c" x="7.379" y="143.786"/><use xlink:href="#d" x="11.614" y="143.786"/><g clip-path="url(#e)"><path fill="#FFF" d="M43.695 137.652H29.637c-.825 0-1.496.672-1.496 1.496v4.97c0 .827.672 1.495 1.496 1.495h14.058c.825 0 1.492-.668 1.492-1.496v-4.969c0-.824-.667-1.496-1.492-1.496m0 0"/></g><use xlink:href="#b" x="29.139" y="143.786"/><use xlink:href="#f" x="35.725" y="143.786"/><use xlink:href="#d" x="39.96" y="143.786"/><g clip-path="url(#g)"><path fill="#FFF" d="M97.094 137.652H89.62c-.824 0-1.492.672-1.492 1.496v4.141c0 .824.668 1.492 1.492 1.492h7.473c.828 0 1.496-.668 1.496-1.492v-4.14c0-.825-.668-1.497-1.496-1.497m0 0"/></g><use xlink:href="#f" x="89.124" y="143.786"/><use xlink:href="#d" x="93.359" y="143.786"/><g clip-path="url(#h)"><path fill="#FFF" d="M125.441 137.652h-7.472c-.824 0-1.492.672-1.492 1.496v4.141c0 .824.668 1.492 1.492 1.492h7.472c.825 0 1.496-.668 1.496-1.492v-4.14c0-.825-.671-1.497-1.496-1.497m0 0"/></g><use xlink:href="#c" x="117.471" y="143.786"/><use xlink:href="#d" x="121.706" y="143.786"/><path fill="#FFF" d="M61.86 135.66H58.62c-.828 0-1.496.668-1.496 1.496v4.14c0 .825.668 1.493 1.496 1.493h3.238c.825 0 1.493-.668 1.493-1.492v-4.14c0-.829-.668-1.497-1.493-1.497m0 0"/><use xlink:href="#d" x="58.122" y="141.793"/><path fill="#FFF" d="M59.867 102.09h-7.472c-.829 0-1.497.668-1.497 1.496v4.137c0 .828.668 1.496 1.497 1.496h7.472c.824 0 1.492-.668 1.492-1.496v-4.137c0-.828-.668-1.496-1.492-1.496m0 0"/><use xlink:href="#f" x="51.895" y="108.223"/><use xlink:href="#d" x="56.13" y="108.223"/><path fill="#FFF" d="M59.867 73.742h-7.472c-.829 0-1.497.672-1.497 1.496v4.14c0 .825.668 1.493 1.497 1.493h7.472c.824 0 1.492-.668 1.492-1.492v-4.14c0-.825-.668-1.497-1.492-1.497m0 0"/><use xlink:href="#c" x="51.895" y="79.876"/><use xlink:href="#d" x="56.13" y="79.876"/><path fill="#FFF" d="M59.867 45.398h-7.472c-.829 0-1.497.668-1.497 1.493v4.14c0 .824.668 1.496 1.497 1.496h7.472c.824 0 1.492-.672 1.492-1.496v-4.14c0-.825-.668-1.493-1.492-1.493m0 0"/><use xlink:href="#i" x="51.895" y="51.53"/><use xlink:href="#d" x="56.13" y="51.53"/><path fill="#FFF" d="M59.867 17.05h-7.472c-.829 0-1.497.669-1.497 1.493v4.14c0 .825.668 1.497 1.497 1.497h7.472c.824 0 1.492-.672 1.492-1.496v-4.141c0-.824-.668-1.492-1.492-1.492m0 0"/><use xlink:href="#j" x="51.895" y="23.184"/><use xlink:href="#d" x="56.13" y="23.184"/><g clip-path="url(#k)"><path fill="#FFF" d="M129.375 139.25h11.867v-10.5h-11.867Zm0 0"/></g><use xlink:href="#l" x="132.696" y="135.931"/><path fill="#FFF" d="M52.773 12.941h24.48V-2.664h-24.48Zm0 0"/><use xlink:href="#m" x="56.093" y="7.382"/><use xlink:href="#n" x="61.541" y="7.382"/><use xlink:href="#l" x="65.125" y="7.382"/><use xlink:href="#o" x="70.348" y="7.382"/></svg>