<svg xmlns="http://www.w3.org/2000/svg" width="91.762" height="64.154"><defs><clipPath id="a"><path d="M0 0h91.645v63.73H0Zm0 0"/></clipPath></defs><path fill="#CCF" d="M4.172 3.336 14.137.848v2.488l9.96-2.488v2.488L34.06.848v2.488L44.023.848v2.488L53.984.848v2.488L63.95.848v2.488L73.91.848v2.488L83.875.848v2.488h5.336c.867 1.363 1.488 2.602 1.117 3.344s-1.734.988-3.344 1.113c-1.605.125-2.968.371-3.34 1.113-.37.742.25 1.98 1.114 3.34.863 1.363 1.484 2.602 1.113 3.344s-1.734.988-3.34 1.113c-1.61.125-2.972.371-3.344 1.113-.37.743.25 1.98 1.114 3.34.867 1.364 1.488 2.602 1.117 3.344s-1.734.988-3.344 1.113c-1.605.125-2.969.371-3.34 1.114-.37.742.25 1.98 1.114 3.34.863 1.363 1.484 2.601 1.113 3.343s-1.734.988-3.34 1.113c-1.61.125-2.973.372-3.344 1.114-.37.742.25 1.98 1.114 3.34.867 1.363 1.488 2.601 1.117 3.343s-1.735.989-3.344 1.114c-1.605.125-2.969.37-3.34 1.113-.37.742.25 1.98 1.114 3.344.863 1.359 1.484 2.597 1.113 3.34s-1.735.988-3.34 1.113l-3.844 7.687a2.48 2.48 0 0 1-2.492 2.489c-1.383 0-2.492-1.243-2.492-2.489a2.477 2.477 0 0 1-2.488 2.489c-1.383 0-2.493-1.243-2.493-2.489a2.48 2.48 0 0 1-2.488 2.489c-1.383 0-2.492-1.243-2.492-2.489a2.48 2.48 0 0 1-2.492 2.489c-1.383 0-2.489-1.243-2.489-2.489a2.48 2.48 0 0 1-2.492 2.489c-1.383 0-2.488-1.243-2.488-2.489a2.48 2.48 0 0 1-2.492 2.489c-1.383 0-2.492-1.243-2.492-2.489a2.477 2.477 0 0 1-2.489 2.489c-1.383 0-2.492-1.243-2.492-2.489a2.48 2.48 0 0 1-2.492 2.489c-1.379 0-2.488-1.243-2.488-2.489a2.48 2.48 0 0 1-2.493 2.489c-1.382 0-2.488-1.243-2.488-2.489a2.48 2.48 0 0 1-2.492 2.489c-1.383 0-2.492-1.243-2.492-2.489a2.477 2.477 0 0 1-2.488 2.489c-1.383 0-2.493-1.243-2.493-2.489a2.48 2.48 0 0 1-2.492 2.489c-1.379 0-2.488-1.243-2.488-2.489 1.7-3.082.59-4.191.59-5.574 0-1.379 1.246-2.488 2.492-2.488a2.484 2.484 0 0 1-2.492-2.492c0-1.383 1.246-2.489 2.492-2.489a2.484 2.484 0 0 1-2.492-2.492c0-1.383 1.246-2.492 2.492-2.492a2.48 2.48 0 0 1-2.492-2.488c0-1.383 1.246-2.493 2.492-2.493a2.484 2.484 0 0 1-2.492-2.492c0-1.379 1.246-2.488 2.492-2.488a2.484 2.484 0 0 1-2.492-2.492c0-1.383 1.246-2.488 2.492-2.488A2.484 2.484 0 0 1 1.68 24.57c0-1.383 1.246-2.492 2.492-2.492A2.48 2.48 0 0 1 1.68 19.59c0-1.383 1.246-2.492 2.492-2.492a2.483 2.483 0 0 1-2.492-2.489c0-1.382 1.246-2.492 2.492-2.492A2.484 2.484 0 0 1 1.68 9.625c0-1.383 1.246-2.488 2.492-2.488z"/><g clip-path="url(#a)"><path fill="none" stroke="#000" stroke-miterlimit="10" stroke-width=".399" d="M4.172 3.336 14.137.848v2.488l9.96-2.488v2.488L34.06.848v2.488L44.023.848v2.488L53.984.848v2.488L63.95.848v2.488L73.91.848v2.488L83.875.848v2.488h5.336c.867 1.363 1.488 2.602 1.117 3.344s-1.734.988-3.344 1.113c-1.605.125-2.968.371-3.34 1.113-.37.742.25 1.98 1.114 3.34.863 1.363 1.484 2.602 1.113 3.344s-1.734.988-3.34 1.113c-1.61.125-2.972.371-3.344 1.113-.37.743.25 1.98 1.114 3.34.867 1.364 1.488 2.602 1.117 3.344s-1.734.988-3.344 1.113c-1.605.125-2.969.371-3.34 1.114-.37.742.25 1.98 1.114 3.34.863 1.363 1.484 2.601 1.113 3.343s-1.734.988-3.34 1.113c-1.61.125-2.973.372-3.344 1.114-.37.742.25 1.98 1.114 3.34.867 1.363 1.488 2.601 1.117 3.343s-1.735.989-3.344 1.114c-1.605.125-2.969.37-3.34 1.113-.37.742.25 1.98 1.114 3.344.863 1.359 1.484 2.597 1.113 3.34s-1.735.988-3.34 1.113l-3.844 7.687a2.48 2.48 0 0 1-2.492 2.489c-1.383 0-2.492-1.243-2.492-2.489a2.477 2.477 0 0 1-2.488 2.489c-1.383 0-2.493-1.243-2.493-2.489a2.48 2.48 0 0 1-2.488 2.489c-1.383 0-2.492-1.243-2.492-2.489a2.48 2.48 0 0 1-2.492 2.489c-1.383 0-2.489-1.243-2.489-2.489a2.48 2.48 0 0 1-2.492 2.489c-1.383 0-2.488-1.243-2.488-2.489a2.48 2.48 0 0 1-2.492 2.489c-1.383 0-2.492-1.243-2.492-2.489a2.477 2.477 0 0 1-2.489 2.489c-1.383 0-2.492-1.243-2.492-2.489a2.48 2.48 0 0 1-2.492 2.489c-1.379 0-2.488-1.243-2.488-2.489a2.48 2.48 0 0 1-2.493 2.489c-1.382 0-2.488-1.243-2.488-2.489a2.48 2.48 0 0 1-2.492 2.489c-1.383 0-2.492-1.243-2.492-2.489a2.477 2.477 0 0 1-2.488 2.489c-1.383 0-2.493-1.243-2.493-2.489a2.48 2.48 0 0 1-2.492 2.489c-1.379 0-2.488-1.243-2.488-2.489 1.7-3.082.59-4.191.59-5.574 0-1.379 1.246-2.488 2.492-2.488a2.484 2.484 0 0 1-2.492-2.492c0-1.383 1.246-2.489 2.492-2.489a2.484 2.484 0 0 1-2.492-2.492c0-1.383 1.246-2.492 2.492-2.492a2.48 2.48 0 0 1-2.492-2.488c0-1.383 1.246-2.493 2.492-2.493a2.484 2.484 0 0 1-2.492-2.492c0-1.379 1.246-2.488 2.492-2.488a2.484 2.484 0 0 1-2.492-2.492c0-1.383 1.246-2.488 2.492-2.488A2.484 2.484 0 0 1 1.68 24.57c0-1.383 1.246-2.492 2.492-2.492A2.48 2.48 0 0 1 1.68 19.59c0-1.383 1.246-2.492 2.492-2.492a2.483 2.483 0 0 1-2.492-2.489c0-1.382 1.246-2.492 2.492-2.492A2.484 2.484 0 0 1 1.68 9.625c0-1.383 1.246-2.488 2.492-2.488V3.336"/></g></svg>