<svg xmlns="http://www.w3.org/2000/svg" xmlns:xlink="http://www.w3.org/1999/xlink" width="99.434" height="64.46"><defs><path id="a" d="M5.516-.234c0-.235-.125-.235-.266-.235-.61-.015-.61-.14-.61-.375v-2.14c0-.891-.702-1.532-2.187-1.532-.562 0-1.781.047-1.781.922 0 .438.344.625.61.625.312 0 .624-.219.624-.625 0-.297-.187-.469-.218-.5a5 5 0 0 1 .718-.062c.75 0 1.11.422 1.11 1.172v.343c-.72.032-3.25.125-3.25 1.563C.266-.125 1.5.062 2.188.062c.796 0 1.265-.406 1.484-.828 0 .313 0 .766 1.047.766h.468c.204 0 .329 0 .329-.234m-2-1.157c0 .97-.922 1.094-1.172 1.094-.516 0-.906-.344-.906-.797 0-1.062 1.578-1.203 2.078-1.234Zm0 0"/><path id="b" d="M5.984-2.219c0-1.328-.937-2.265-2.39-2.265-.719 0-1.219.28-1.453.484v-2.922l-1.766.078v.469c.61 0 .688 0 .688.39V0h.468c.157-.187.328-.375.485-.562.078.078.562.625 1.453.625 1.484 0 2.515-.907 2.515-2.282m-1.28 0c0 .469 0 1.016-.25 1.406-.298.407-.75.516-1.079.516-.687 0-1.078-.547-1.187-.687v-2.5c.28-.36.75-.641 1.296-.641 1.22 0 1.22 1.203 1.22 1.906m0 0"/><path id="c" d="M4.766-1.172c0-.14-.141-.14-.235-.14-.187 0-.187.03-.25.156-.25.625-.734.812-1.234.812-1.39 0-1.39-1.453-1.39-1.922 0-.562 0-1.843 1.28-1.843.36 0 .516.015.657.046a.62.62 0 0 0-.203.47c0 .437.343.624.609.624.313 0 .64-.219.64-.625 0-.86-1.156-.922-1.734-.922C1.11-4.516.375-3.375.375-2.219.375-.89 1.313.063 2.844.063c1.625 0 1.922-1.157 1.922-1.235m0 0"/><path id="d" d="M5.984 0v-.469c-.609 0-.687 0-.687-.39v-6.063l-1.766.078v.469c.625 0 .703 0 .703.39v1.954a2.18 2.18 0 0 0-1.359-.453c-1.453 0-2.5.875-2.5 2.28 0 1.313.922 2.267 2.39 2.267.61 0 1.094-.235 1.407-.485v.485ZM4.172-1.031c-.14.187-.547.734-1.297.734-1.219 0-1.219-1.203-1.219-1.906 0-.485 0-1.016.25-1.406.297-.422.766-.516 1.078-.516.563 0 .97.313 1.188.61Zm0 0"/></defs><path fill="none" stroke="#000" stroke-miterlimit="10" stroke-width=".399" d="M55.691 8.832 39.851 24.09"/><path fill="none" stroke="#000" stroke-linecap="round" stroke-linejoin="round" stroke-miterlimit="10" stroke-width=".39898803000000005" d="M42.86 24.512c-1.27-.77-2.344-.672-3.153-.285.418-.79.559-1.864-.164-3.16"/><path fill="none" stroke="#000" stroke-miterlimit="10" stroke-width=".399" d="M61.719 8.832v15.133"/><path fill="none" stroke="#000" stroke-linecap="round" stroke-linejoin="round" stroke-miterlimit="10" stroke-width=".399" d="M64.11 22.094c-1.438.379-2.114 1.222-2.391 2.07-.282-.848-.957-1.691-2.395-2.07"/><path fill="none" stroke="#000" stroke-miterlimit="10" stroke-width=".399" d="m67.664 8.832 16.852 16.457"/><path fill="none" stroke="#000" stroke-linecap="round" stroke-linejoin="round" stroke-miterlimit="10" stroke-width=".39897606" d="M84.844 22.27c-.73 1.289-.602 2.363-.188 3.156-.804-.395-1.879-.5-3.152.261"/><path fill="none" stroke="#000" stroke-miterlimit="10" stroke-width=".399" d="m27.523 38.379-9.527 14.004"/><path fill="none" stroke="#000" stroke-linecap="round" stroke-linejoin="round" stroke-miterlimit="10" stroke-width=".39898005000000003" d="M21.027 52.18c-1.398-.496-2.433-.18-3.144.367.25-.86.164-1.938-.809-3.059"/><path fill="none" stroke="#000" stroke-miterlimit="10" stroke-width=".399" d="m37.059 38.379 9.527 14.004"/><path fill="none" stroke="#000" stroke-linecap="round" stroke-linejoin="round" stroke-miterlimit="10" stroke-width=".39898005000000003" d="M47.508 49.488c-.973 1.121-1.059 2.2-.809 3.059-.71-.547-1.746-.863-3.144-.367"/><use xlink:href="#a" x="58.932" y="5.252"/><use xlink:href="#a" x="24.416" y="34.799"/><use xlink:href="#b" x="33.801" y="34.799"/><use xlink:href="#a" x=".438" y="63.145"/><use xlink:href="#b" x="9.823" y="63.145"/><use xlink:href="#a" x="20.005" y="63.145"/><use xlink:href="#a" x="39.248" y="63.145"/><use xlink:href="#b" x="48.633" y="63.145"/><use xlink:href="#c" x="58.815" y="63.145"/><use xlink:href="#a" x="53.841" y="34.799"/><use xlink:href="#d" x="63.226" y="34.799"/><use xlink:href="#a" x="83.267" y="33.598"/><use xlink:href="#a" x="92.652" y="33.598"/></svg>