<svg xmlns="http://www.w3.org/2000/svg" xmlns:xlink="http://www.w3.org/1999/xlink" width="138.519" height="143.768"><defs><path id="a" d="M4.922 0v-.469h-1.39v-5.734c0-.234 0-.328-.266-.328-.11 0-.125 0-.22.078-.765.562-1.796.562-2 .562H.845v.47h.203c.156 0 .703-.016 1.297-.204v5.156H.954V0c.437-.031 1.5-.031 1.984-.031s1.546 0 1.984.031m0 0"/><path id="b" d="m5.469 1.234-.375-.28c-.14.155-.594.624-.75.577-.125-.015-.735-.453-.86-.547L2.297.125A92 92 0 0 1 4.14.047C5.563.047 6.344.03 6.906-.72c.672-.937.266-2.14-.86-2.968-.984-.72-2.124-.766-2.64-.047-.36.484-.047.875.14 1.015.267.203.72.25 1.017-.156.296-.422.046-.797-.047-.906.375-.016.75.11 1.047.328.687.5.671 1.312.234 1.922-.406.547-1.125.89-2.11 1.047L.86-.016C.688 0 .672.031.547.188l-.094.14 3.469 2.516Zm0 0"/><path id="c" d="M1.234 5.406c.547.063 1.438-.156 1.891-1.531.14.703.61 1.469 1.469 1.547.765.094 1.468-.578 1.625-1.984.11-1.188-.438-2.032-1.235-2.11a.686.686 0 0 0-.78.594c-.048.453.25.75.609.781.578.063.75-.469.765-.5.25.375.281.813.25 1.125-.094.828-.734.797-1.062.766-.125-.016-1.422-.172-1.375-1.203.03-.422.03-.453.015-.5 0-.094-.094-.125-.156-.141-.172-.016-.172.094-.203.266L3 2.953c-.11 1.094-1.094.985-1.61.938C.939 3.844-.077 3.734.032 2.703c.032-.265.125-.781.469-1.219.063.329.297.61.703.641.438.047.766-.234.813-.656.03-.422-.188-.782-.672-.844-.907-.094-1.61.797-1.735 2.078-.187 1.766.735 2.61 1.625 2.703m0 0"/><path id="d" d="m-3.625 4.016.344.312.656-.719.813.735-.657.718.36.313.656-.719 3.11 2.797c.187.188.25.203.437 0 .14-.156.14-.156.094-.36l-.876-5.5-.359-.312-1.922 2.14-.812-.733.734-.829-.344-.312c-.234.297-.843.969-1.125 1.281-.265.297-.843.938-1.109 1.188m2.938-.203 1.64-1.829.64 3.891Zm0 0"/><path id="e" d="M4.313 3.469c1-.578 1.406-1.735.671-3.016-.14-.234-.437-.687-.937-.937l1.14-.657c.094.282.11.391.282.672.718 1.266 2.172 1.5 2.39 1.375.063-.047.141-.11.079-.219-.016-.03-.016-.03-.11-.109a3.9 3.9 0 0 1-1-1.187c-.375-.641-.469-1.203-.547-1.485-.015-.094 0-.094-.015-.11-.063-.124-.157-.077-.297 0L3.437-.733c-.14.078-.25.14-.14.328.062.11.11.125.203.14.594.11.938.516 1.14.875.454.766-.296 1.204-1 1.594-.624.375-1.5.875-2.093-.156-.125-.219-.375-.781-.11-1.438.204.297.563.438.907.235.469-.266.36-.719.25-.922-.078-.11-.422-.531-.953-.234-.72.421-1.063 1.53-.438 2.609C2 3.672 3.25 4.078 4.313 3.469m0 0"/><path id="f" d="M.328 5.625c1.313.438 2.328-.297 2.703-1.437.063-.22.25-.75-.36-1.407l.188.063c1.079.36 1.422.703 1.532.797.375.39.562 1 .375 1.578-.063.156-.188.484-.485.64.063-.359-.125-.625-.406-.718a.635.635 0 0 0-.812.406c-.11.375.078.672.421.781.594.203 1.329 0 1.657-1 .422-1.297.093-3.125-2.297-3.906-.735-.234-1.516-.406-2.297-.203-.875.187-1.344.843-1.547 1.515-.437 1.313.047 2.485 1.328 2.891m.438-1.281c-.953-.313-1.672-.547-1.36-1.516.156-.484.625-.625.797-.64.344-.063 1.031.171 1.203.218 1.203.39 1.485 1.047 1.313 1.563-.297.906-1.016.687-1.953.375m0 0"/><path id="g" d="m-4.11 7.438 1.985-.422c.234-.047 1.688-.313 1.828-.297.203 0 .235.093.281.172l.454-.094L.25 4.25l-.453.094c.062.765-.031.922-.078.937-.094.094-.89.266-1.063.297l-1.625.344c.125-.25.25-.5.39-.734.704-1.313 1.126-2.766.829-4.204-.14-.687-.703-.578-.75-.562-.156.031-.625.172-.484.812l.093.47c.094.452.172.937.22 1.405.046.688-.032 1.282-.313 1.75L-4.11 6.953c-.079.125-.063.14 0 .484m0 0"/><path id="h" d="M-2.14 5.156c.812.719 1.718.407 2.25.235-.188.734-.079 1.265.359 1.656.75.672 1.703.312 2.469-.531.921-1.032.796-2.078.078-2.72-.313-.296-.907-.577-1.75-.296.28-.875.14-1.578-.391-2.062-.906-.813-2-.36-2.86.593-1.062 1.188-.968 2.39-.156 3.125M.952 6.47C.593 6.14.516 5.75.593 5.234l1.626-.562c.172-.063.484-.156.75.078.515.469-.031 1.172-.313 1.469-.547.625-1.187.718-1.703.25M-1.969 4.14c-.61-.547-.11-1.375.282-1.797.64-.719 1.406-.813 2-.281.562.515.53 1.187.437 1.609l-1.469.484c-.484.172-.89.313-1.25-.015m0 0"/><path id="i" d="M4.75 3.984c.64-.203 3.094-1 2.36-3.265C6.671-.625 5.593-1.312 4.327-.906 3.031-.484 2.61.688 2.984 1.859c.11.329.329.766 1.11.907l-.219.062c-.703.235-1.281.313-1.656.297-.406-.047-.985-.328-1.188-.969a1.7 1.7 0 0 1-.062-.875c.062.11.328.422.75.282.328-.11.515-.422.406-.782C2 .406 1.672.266 1.313.375.672.594.28 1.25.625 2.297c.406 1.219 1.703 2.469 4.125 1.687m.516-1.609c-.594.188-1.641.266-1.907-.547C3.063.922 3.766.688 4.703.391c.938-.313 1.703-.547 2.031.484.188.547-.25.922-.328 1-.265.203-.812.39-1.14.5m0 0"/><path id="l" d="M-4.922 0v.469h1.39v5.734c0 .234 0 .328.266.328.11 0 .125 0 .22-.078.765-.562 1.796-.562 2-.562h.202v-.47h-.203c-.156 0-.703.016-1.297.204V.469h1.39V0c-.437.031-1.5.031-1.983.031-.485 0-1.547 0-1.985-.031m0 0"/><path id="m" d="M-5.281 3.188c0 .953.015 3.343 2.422 3.343S-.453 4.156-.453 3.188c0-1 0-3.297-2.406-3.297-2.391 0-2.422 2.297-2.422 3.297M-4 3.297c0-.563 0-1.469.078-1.985C-3.782.391-3.156.25-2.859.25c.359 0 .922.219 1.047.953.093.516.093 1.547.093 2.094 0 .719 0 1.375-.078 1.89-.125.891-.828.985-1.062.985-.375 0-.782-.188-.97-.625C-4 5.172-4 4.109-4 3.297m0 0"/><path id="H" d="M-5.156 2.219h.468c.032-.203.125-.844.266-.906.11-.063.86-.063 1.016-.063h1.469c-.47.39-1 .813-1.438 1.14-1.14.844-1.781 1.313-1.781 2.25 0 1.157 1.047 1.891 2.437 1.891 1.219 0 2.157-.625 2.157-1.515 0-.594-.485-.735-.72-.735C-1.608 4.281-2 4.5-2 5c0 .516.422.672.563.719-.282.234-.672.343-1.032.343-.844 0-1.312-.671-1.312-1.421 0-.688.375-1.375 1.078-2.078l2-2.047c.14-.11.14-.141.14-.344V0h-4.28Zm0 0"/><path id="o" d="M-4.922 0v.469h1.39v5.734c0 .234 0 .328.266.328.11 0 .125 0 .22-.078.765-.562 1.796-.562 2-.562h.202v-.47h-.203c-.156 0-.703.016-1.297.204V.469h1.39V0c-.437.031-1.5.031-1.983.031-.485 0-1.547 0-1.985-.031m0 0"/><path id="p" d="m-1.516-4.687-.453.14.422 1.328L-7-1.438c-.219.063-.312.094-.234.344.046.11.046.125.156.203C-6.312-.359-6 .625-5.938.813l.063.203.453-.141-.062-.203A5.3 5.3 0 0 0-6.062-.5l4.89-1.594.422 1.328.453-.14c-.172-.406-.5-1.406-.64-1.875-.157-.453-.485-1.469-.579-1.906m0 0"/><path id="q" d="m-3.703-4.219.14.453c.204-.03.844-.156.954-.03.093.093.328.796.375.952l.453 1.39a38 38 0 0 1-1.547-1.015c-1.14-.828-1.781-1.297-2.672-1-1.11.36-1.484 1.578-1.062 2.907.375 1.156 1.28 1.859 2.125 1.578.562-.188.53-.688.468-.907-.11-.312-.437-.625-.906-.468-.5.156-.5.609-.5.765a1.66 1.66 0 0 1-.656-.875c-.266-.812.234-1.453.953-1.687.64-.219 1.422-.063 2.312.375L-.703-.516c.14.11.172.094.375.032l.156-.047L-1.5-4.61Zm0 0"/><path id="r" d="m3.297-3.656-.344-.313-.937 1.031L-2.25-6.78c-.172-.157-.25-.219-.422-.016-.078.078-.094.094-.094.219-.078.953-.765 1.719-.906 1.86l-.14.155.343.313.14-.156c.11-.11.454-.532.704-1.094l3.844 3.453-.922 1.031.344.313c.28-.344.984-1.14 1.312-1.5s1.031-1.14 1.344-1.453m0 0"/><path id="s" d="M2.188-5.11c-.407-.359-1.25-.718-2.438.141.297-.64.36-1.547-.266-2.125-.578-.515-1.546-.375-2.5.657-.78.89-.828 1.906-.234 2.437a.68.68 0 0 0 .984-.047c.297-.328.235-.734-.046-.969-.422-.39-.876-.062-.907-.062.031-.438.25-.813.469-1.047.547-.61 1.047-.203 1.297.031.094.078 1.047.953.406 1.766-.266.312-.281.328-.297.375a.155.155 0 0 0 .047.203c.125.125.188.047.313-.078l.28-.328c.735-.813 1.47-.157 1.86.187.344.313 1.094 1 .407 1.766A2.3 2.3 0 0 1 .468-1.5c.14-.297.125-.656-.172-.922-.328-.312-.781-.265-1.063.063-.296.312-.312.734.063 1.062.672.61 1.75.297 2.61-.656 1.187-1.328.952-2.547.28-3.156m0 0"/><path id="t" d="m4.813-1.016-.094-.453-1.36.282-1.203-5.61c-.047-.234-.062-.328-.328-.266-.094.016-.11.016-.187.11-.625.719-1.641.922-1.828.969l-.204.046.094.47.203-.048c.14-.03.688-.156 1.219-.468L2.203-.937l-1.36.28.095.454c.421-.125 1.468-.344 1.937-.438.469-.109 1.516-.328 1.938-.375m0 0"/><path id="u" d="m5.281-1.125-.093-.453-.938.203-.234-1.078.937-.203-.094-.453-.937.203L3.047-7c-.047-.266-.078-.328-.36-.266-.203.047-.203.063-.296.235l-2.5 4.984.093.453 2.813-.593.234 1.078-1.094.218.094.454c.375-.11 1.25-.297 1.672-.375.39-.094 1.235-.266 1.578-.313M2.797-2.672l-2.39.516 1.75-3.531Zm0 0"/><path id="ag" d="M4.766-2.844c-.11-.547-.594-1.328-2.063-1.328.64-.344 1.219-1.031 1.047-1.875-.172-.75-1.031-1.219-2.406-.922-1.156.25-1.781 1.032-1.625 1.813.094.422.453.625.828.547.437-.094.61-.453.531-.813-.11-.562-.672-.562-.703-.562.266-.36.688-.516.984-.578.813-.172.985.453 1.047.765.031.125.281 1.406-.719 1.688-.39.093-.421.093-.453.125-.093.03-.109.14-.093.203.03.172.14.14.312.11l.422-.095c1.078-.218 1.281.735 1.39 1.25.094.454.313 1.438-.703 1.641-.25.063-.78.14-1.312-.062.313-.157.5-.47.406-.86-.093-.437-.453-.656-.89-.578-.407.094-.688.438-.594.922.203.89 1.266 1.266 2.516 1 1.75-.375 2.265-1.516 2.078-2.39m0 0"/><path id="ah" d="m4.578-3.25-.469.11c.016.203.079.843-.046.937-.11.094-.844.25-1 .281l-1.438.297c.39-.484.828-1 1.172-1.422.953-1.047 1.484-1.656 1.281-2.578C3.844-6.75 2.656-7.25 1.297-6.953.109-6.703-.687-5.891-.5-5.016c.125.579.64.61.86.563a.69.69 0 0 0 .546-.86c-.094-.5-.531-.562-.687-.578.234-.296.578-.484.937-.562.813-.172 1.422.406 1.578 1.125.141.687-.078 1.437-.625 2.266L.58-.642c-.11.141-.11.172-.063.36l.03.172L4.735-1Zm0 0"/><path id="v" d="m1.516-4.687-.453-.141L.64-3.5l-5.453-1.781c-.22-.063-.313-.094-.391.156-.047.11-.047.125 0 .234.297.891-.016 1.875-.078 2.063l-.063.203.453.156.063-.203a4.5 4.5 0 0 0 .203-1.297l4.89 1.594-.421 1.328.453.14c.11-.437.437-1.437.578-1.905.156-.454.484-1.47.64-1.876m0 0"/><path id="w" d="M-.312-5.531c-1.094-.344-2.22.125-2.672 1.515-.079.266-.22.797-.063 1.329l-1.25-.407c.125-.25.203-.344.297-.656.453-1.375-.344-2.61-.578-2.672-.078-.031-.188-.047-.234.063v.156a3.8 3.8 0 0 1-.204 1.531c-.234.719-.578 1.156-.734 1.39-.062.079-.078.079-.094.11-.047.125.063.156.219.203l2.766.906c.172.047.297.094.375-.109.03-.125.015-.156-.047-.234-.328-.531-.25-1.063-.125-1.453.281-.844 1.11-.563 1.86-.313.702.219 1.655.531 1.28 1.656-.078.235-.328.813-.984 1.032.094-.344-.047-.703-.437-.828-.5-.157-.782.218-.86.437-.031.125-.11.672.469.86.797.25 1.86-.235 2.234-1.407.5-1.515-.062-2.719-1.219-3.11m0 0"/><path id="x" d="m3.984-2.89-.28-.376-1.126.813-3.36-4.64c-.14-.188-.202-.266-.421-.11-.094.062-.094.078-.125.187-.297.907-1.125 1.516-1.297 1.641l-.156.11.281.374.156-.109a4.8 4.8 0 0 0 .922-.922L1.61-1.75.484-.937l.282.375c.343-.282 1.203-.907 1.593-1.204.391-.28 1.25-.906 1.625-1.125m0 0"/><path id="y" d="M3.047-4.734C2.234-5.86.969-5.86 0-5.156c-.172.125-.64.453-.516 1.328l-.109-.156c-.672-.922-.75-1.391-.797-1.547a1.66 1.66 0 0 1 .64-1.5c.141-.094.438-.266.766-.219a.59.59 0 0 0-.078.813c.203.28.547.375.86.14s.343-.578.125-.875c-.36-.516-1.063-.766-1.922-.156-1.094.797-1.906 2.453-.438 4.5.469.625 1 1.219 1.735 1.531.828.344 1.578.094 2.14-.312 1.125-.813 1.438-2.032.64-3.125m-1.125.78c.594.813 1.031 1.423.219 2.017-.422.296-.86.14-1.032.046-.312-.156-.734-.75-.843-.89C-.47-3.797-.297-4.484.14-4.812c.765-.547 1.203.046 1.78.859m0 0"/><path id="z" d="m.516-4.89-.47-.048-.14 1.375-5.703-.609c-.234-.016-.328-.031-.36.234-.015.11-.015.126.048.235.484.828.375 1.844.359 2.047l-.016.203.47.047.015-.203a4.5 4.5 0 0 0-.063-1.313l5.125.547L-.375-1l.469.047c.015-.438.125-1.485.187-1.969.047-.484.156-1.531.235-1.969m0 0"/><path id="A" d="m-5.812-6.203-.204 2.016c-.03.234-.234 1.703-.296 1.828-.047.203-.141.218-.235.218l-.047.454 2.469.609.047-.469c-.734-.172-.844-.312-.86-.36-.046-.109.032-.921.063-1.093l.172-1.672c.203.203.375.406.578.625 1.016 1.063 2.281 1.922 3.734 2.078.704.078.766-.484.766-.547.016-.156.016-.64-.64-.703l-.47-.047a8.7 8.7 0 0 1-1.39-.25c-.672-.156-1.219-.421-1.594-.828l-1.61-1.718c-.109-.094-.14-.11-.484-.141m0 0"/><path id="B" d="m-4.812-1.016-.094.454 1.36.28-1.204 5.61c-.047.234-.062.328.203.39.094.016.11.016.219-.046.875-.375 1.89-.172 2.078-.125l.203.047.094-.469-.203-.047a4.6 4.6 0 0 0-1.313-.062L-2.39-.031l1.36.281.093-.453c-.421-.063-1.468-.281-1.937-.375-.469-.11-1.516-.328-1.937-.438m0 0"/><path id="C" d="M-5.531.719c-.219 1.062.515 1.687.922 2.078-.75.203-1.141.578-1.25 1.14-.22.985.578 1.626 1.687 1.86 1.344.281 2.203-.36 2.39-1.297.095-.422.048-1.062-.624-1.656.89-.188 1.453-.64 1.61-1.36.25-1.187-.72-1.921-1.97-2.187-1.562-.328-2.53.36-2.765 1.422m.406 3.344c.094-.47.406-.735.906-.938l1.282 1.14c.14.11.374.329.296.657-.14.687-1.03.578-1.421.484-.813-.172-1.204-.672-1.063-1.343m.563-3.688c.171-.812 1.125-.781 1.687-.656.953.203 1.406.812 1.25 1.578-.172.75-.766 1.062-1.172 1.187l-1.172-1.03c-.375-.329-.703-.61-.594-1.079m0 0"/><path id="D" d="m-3.297-3.656-.344.312.938 1.031-4.266 3.844c-.172.157-.25.219-.078.422.078.078.094.094.219.094.922.203 1.61.969 1.75 1.11l.14.155.344-.312-.14-.156c-.11-.11-.485-.5-1.016-.813l3.844-3.453.922 1.031.343-.312c-.312-.313-1.015-1.11-1.343-1.469a53 53 0 0 1-1.313-1.484m0 0"/><path id="E" d="M-5.953-1.703c-.5.437-2.422 2.172-.828 3.937.937 1.047 2.203 1.235 3.187.344 1.031-.922.922-2.156.11-3.062-.235-.266-.61-.563-1.375-.375l.156-.157c.547-.484 1.047-.812 1.39-.921.422-.141 1.047-.125 1.5.39.11.125.344.422.391.766a.61.61 0 0 0-.781.062.603.603 0 0 0-.063.875c.266.282.625.297.907.047.5-.469.578-1.234-.157-2.047-.859-.968-2.546-1.578-4.437.14m.187 1.687c.47-.421 1.391-.921 1.954-.296.64.703.078 1.218-.641 1.875-.734.656-1.328 1.187-2.047.39-.39-.437-.156-.969-.11-1.062.157-.297.594-.688.844-.907m0 0"/><path id="F" d="m-.516-5.594-.14.453c.172.094.75.375.765.532.032.125-.203.828-.25.984l-.453 1.39a40 40 0 0 1-.64-1.703c-.453-1.359-.688-2.109-1.578-2.406-1.11-.36-2.141.422-2.563 1.75-.375 1.157-.062 2.235.781 2.516.563.187.844-.25.907-.469.109-.312.03-.75-.438-.906-.5-.156-.781.203-.875.328-.125-.36-.11-.75 0-1.094.266-.812 1.047-1.047 1.766-.812.64.218 1.172.781 1.625 1.656L-.266-.828c.047.172.079.187.282.25l.156.047L1.5-4.61Zm0 0"/><path id="G" d="M-1.406-6c-.907-.297-3.188-1.031-3.922 1.266-.75 2.28 1.516 3.015 2.437 3.312C-1.937-1.109.25-.406 1-2.687 1.734-4.97-.453-5.687-1.406-6m-.5 1.188c.547.171 1.406.453 1.875.671.828.422.765 1.063.687 1.344a1.09 1.09 0 0 1-1.234.703c-.531-.078-1.5-.39-2.031-.562-.672-.219-1.297-.422-1.766-.656-.812-.391-.687-1.094-.61-1.313.11-.36.423-.687.891-.734.407-.032 1.422.297 2.188.547m0 0"/><path id="I" d="m-4.5-3.36.234.407c.188-.078.797-.313.922-.219.11.063.485.719.563.844l.734 1.281a38 38 0 0 1-1.703-.687c-1.297-.563-2.031-.891-2.844-.422-1 .578-1.11 1.86-.422 3.062.61 1.063 1.625 1.563 2.391 1.11.516-.297.406-.782.281-.985C-4.5.75-4.89.516-5.328.766c-.453.25-.36.703-.344.843-.344-.125-.625-.406-.812-.718-.422-.735-.079-1.485.578-1.86.593-.343 1.375-.36 2.343-.094l2.766.704c.156.078.188.062.36-.047l.156-.078-2.14-3.703Zm0 0"/><path id="M" d="m-3.703-4.219.14.453c.204-.03.844-.156.954-.03.093.093.328.796.375.952l.453 1.39a38 38 0 0 1-1.547-1.015c-1.14-.828-1.781-1.297-2.672-1-1.11.36-1.484 1.578-1.062 2.907.375 1.156 1.28 1.859 2.125 1.578.562-.188.53-.688.468-.907-.11-.312-.437-.625-.906-.468-.5.156-.5.609-.5.765a1.66 1.66 0 0 1-.656-.875c-.266-.812.234-1.453.953-1.687.64-.219 1.422-.063 2.312.375L-.703-.516c.14.11.172.094.375.032l.156-.047L-1.5-4.61Zm0 0"/><path id="N" d="M-3.328-4.437c-.531.156-1.25.718-1.11 2.187-.39-.594-1.156-1.11-1.968-.844-.719.235-1.11 1.14-.672 2.485C-6.703.516-5.86 1.063-5.094.813c.407-.141.578-.516.469-.86-.14-.437-.531-.578-.875-.469-.547.188-.484.735-.5.766-.375-.234-.578-.64-.672-.937-.266-.782.344-1 .656-1.11.125-.031 1.375-.422 1.75.547.125.375.141.406.172.438.047.093.14.093.203.078.157-.063.125-.172.079-.328l-.141-.422c-.344-1.032.594-1.328 1.094-1.485.437-.156 1.406-.469 1.734.5.078.266.188.766.063 1.313-.204-.282-.516-.438-.907-.313-.422.14-.593.532-.468.953.14.407.484.641.953.5.875-.28 1.14-1.39.75-2.609-.547-1.703-1.735-2.094-2.594-1.812m0 0"/><path id="O" d="m.656-5.578-.234.406c.156.14.672.531.64.688.016.125-.359.78-.437.906l-.734 1.281c-.11-.594-.203-1.281-.282-1.812-.156-1.407-.234-2.203-1.046-2.672-1-.578-2.172-.047-2.86 1.156-.61 1.063-.531 2.188.234 2.64.516.297.875-.062 1-.265.157-.281.172-.734-.265-.984-.453-.25-.797.046-.906.125-.063-.344.03-.75.218-1.063.422-.734 1.235-.797 1.891-.422.594.344 1 1.016 1.25 1.969l.766 2.766c.03.172.062.187.234.297l.156.078 2.14-3.703Zm0 0"/><path id="P" d="m2.703-4.687-.406-.235-.485.844-.953-.547.485-.844-.407-.234-.484.844-3.625-2.094c-.219-.125-.297-.14-.437.11-.11.187-.094.187-.016.374l2.016 5.188.406.234 1.437-2.5.954.547-.563.969.406.234c.157-.344.61-1.125.828-1.5.204-.344.625-1.094.844-1.39m-2.828.812L-1.344-1.75-2.78-5.406Zm0 0"/><path id="Q" d="m-3.797 4.125.422-.187c-.062-.204-.234-.829-.14-.938.093-.11.78-.406.921-.469l1.344-.61a51 51 0 0 1-.86 1.642c-.703 1.234-1.093 1.921-.703 2.765.47 1.063 1.72 1.313 2.985.75 1.11-.5 1.719-1.453 1.36-2.266-.25-.53-.75-.484-.97-.39-.296.14-.562.5-.359.953a.73.73 0 0 0 .813.422c-.157.344-.47.594-.797.734-.781.344-1.485-.078-1.781-.765-.282-.625-.22-1.391.14-2.328L-.438.75C-.343.61-.358.578-.452.39L-.516.235-4.422 1.97Zm0 0"/><path id="R" d="M-3.89 3.922c.468 1.062 1.562 1.562 2.906.969.25-.11.734-.344 1.03-.828l.532 1.203a2.6 2.6 0 0 0-.687.234c-1.328.578-1.703 1.969-1.61 2.203.032.063.094.172.203.125.032-.016.032-.016.11-.11.437-.437.89-.702 1.281-.874.688-.297 1.266-.328 1.531-.375.11 0 .11.015.14 0 .126-.063.079-.172.016-.313L.375 3.484C.313 3.328.25 3.22.047 3.313c-.11.046-.125.093-.156.187-.157.594-.61.875-.97 1.047-.812.36-1.171-.438-1.5-1.156-.296-.672-.702-1.594.376-2.078.234-.094.828-.282 1.437.062-.312.156-.484.5-.312.875.219.484.656.422.875.328.125-.062.578-.344.328-.906C-.219.906-1.281.453-2.406.953c-1.453.656-1.985 1.86-1.485 2.969m0 0"/><path id="S" d="m-5.469-1.234.375.28c.14-.155.594-.624.75-.577.125.015.735.453.86.547l1.187.859c-.625.031-1.297.063-1.844.078-1.421 0-2.203.016-2.765.766-.672.937-.266 2.14.86 2.969.984.718 2.124.765 2.64.046.36-.484.047-.875-.14-1.015-.267-.203-.72-.25-1.017.156-.296.422-.046.797.047.906a1.67 1.67 0 0 1-1.046-.328c-.688-.5-.672-1.312-.235-1.922.406-.547 1.125-.89 2.11-1.047L-.86.016c.172-.016.187-.047.312-.203l.094-.141-3.469-2.516Zm0 0"/><path id="T" d="M-5.453-1.422c-.813 1.125-.422 2.313.547 3.016.172.125.64.453 1.422.078l-.11.156c-.672.922-1.094 1.14-1.234 1.235-.469.218-1.125.203-1.61-.157-.14-.094-.406-.328-.453-.656.329.188.625.078.797-.156a.62.62 0 0 0-.14-.89c-.313-.235-.657-.141-.875.155-.36.516-.407 1.266.453 1.875 1.093.797 2.937 1.079 4.406-.968.469-.625.875-1.313.922-2.125.078-.907-.39-1.532-.953-1.938-1.125-.812-2.375-.719-3.172.375m1.094.813c.593-.813 1.03-1.422 1.843-.828a.93.93 0 0 1 .375.953c-.062.343-.484.937-.593 1.078-.735 1.015-1.438 1.078-1.875.75-.766-.547-.328-1.14.25-1.953m0 0"/><path id="W" d="m2.875-4.828-.375.281c.078.188.375.75.313.89-.063.11-.672.548-.797.641l-1.188.86c.156-.594.328-1.25.5-1.766.422-1.344.672-2.11.11-2.86-.672-.937-1.954-.921-3.079-.093-.984.719-1.375 1.766-.859 2.484.36.485.828.313 1.016.172.265-.203.468-.593.172-1-.297-.422-.735-.297-.891-.25.094-.36.344-.672.64-.89.688-.5 1.454-.22 1.891.39.406.547.5 1.328.36 2.297L.266-.828c-.047.172-.032.203.093.36l.094.14 3.469-2.516Zm0 0"/><path id="X" d="M.719-8.469-.921-7.28c-.188.14-1.391.968-1.548 1.031-.172.078-.25.016-.312-.062l-.375.28 1.203 2.25.375-.28c-.375-.657-.344-.844-.313-.891.047-.11.704-.578.844-.688l1.344-.984c0 .297-.031.563-.047.844-.11 1.484.094 2.984.969 4.172.406.578.86.25.906.203.125-.094.469-.407.094-.938l-.281-.375a8 8 0 0 1-.75-1.219c-.329-.578-.5-1.171-.454-1.718l.204-2.36c.015-.14-.016-.171-.22-.453m0 0"/><path id="Y" d="m5.61.063-.423-.188c-.125.172-.453.734-.609.719-.125.015-.812-.281-.953-.344L2.281-.36c.594-.156 1.25-.343 1.766-.452 1.39-.297 2.156-.485 2.547-1.329.468-1.062-.188-2.156-1.453-2.718-1.11-.5-2.22-.297-2.578.515-.25.532.124.86.343.953.297.141.75.094.953-.359.22-.469-.109-.797-.218-.89.343-.094.75-.032 1.078.109.781.343.922 1.14.625 1.828-.282.625-.907 1.11-1.828 1.453L.844-.187C.688-.142.672-.11.578.078L.516.234 4.422 1.97Zm0 0"/><path id="Z" d="M5.547.438c.437-.985-.125-1.75-.469-2.22.766-.046 1.25-.312 1.484-.843.407-.922-.234-1.703-1.28-2.172-1.25-.562-2.22-.11-2.61.75-.172.406-.25 1.063.25 1.766-.89 0-1.531.344-1.828 1.015-.485 1.094.281 2 1.453 2.516 1.453.656 2.562.188 3-.812m.312-3.344c-.187.437-.562.625-1.078.734L3.75-3.562c-.11-.126-.297-.407-.156-.72.281-.64 1.14-.343 1.5-.171.765.344 1.047.922.765 1.547M4.547.578c-.328.766-1.266.547-1.797.313C1.86.5 1.563-.203 1.875-.922c.313-.703.969-.89 1.39-.922l.922 1.235c.297.422.563.75.36 1.187m0 0"/><path id="aa" d="m4.5 3.36-.234-.407c-.188.063-.797.313-.907.219-.125-.063-.5-.719-.578-.844l-.734-1.281c.578.203 1.203.469 1.703.672 1.313.562 2.031.89 2.844.422 1-.578 1.125-1.844.422-3.047C6.406-1.97 5.39-2.47 4.625-2.031c-.516.297-.39.797-.281 1 .172.281.547.515.984.265.453-.265.375-.718.344-.843.344.109.64.406.812.718.422.735.079 1.47-.578 1.844-.593.344-1.375.36-2.328.11L.813.343C.64.282.609.298.438.392L.28.484l2.14 3.704Zm0 0"/><path id="ab" d="M5.469 2.906C6.047 2.562 8.28 1.281 7.094-.78c-.703-1.219-1.89-1.656-3.047-1-1.188.687-1.344 1.906-.734 2.968.187.313.468.688 1.265.672l-.187.11c-.641.36-1.188.562-1.563.625-.422.031-1.031-.11-1.375-.703a1.74 1.74 0 0 1-.234-.828c.093.078.406.328.797.109a.61.61 0 0 0 .234-.86c-.203-.343-.547-.421-.875-.234-.594.344-.828 1.094-.281 2.047.656 1.125 2.172 2.047 4.375.781m.156-1.687c-.531.312-1.547.61-1.969-.125C3.187.266 3.844-.11 4.703-.61c.844-.485 1.531-.891 2.063.046.297.5-.047.97-.094 1.063-.234.266-.75.547-1.047.719m0 0"/><path id="ac" d="M5.25-1.797c0-.547-.297-1.406-1.734-1.719.687-.203 1.406-.765 1.406-1.625 0-.765-.75-1.39-2.156-1.39-1.188 0-1.97.64-1.97 1.437 0 .422.313.703.688.703a.67.67 0 0 0 .704-.687c0-.578-.547-.688-.579-.703.344-.282.782-.36 1.094-.36.828 0 .86.641.86.97 0 .124-.016 1.437-1.047 1.5-.407.015-.438.015-.485.03-.094.016-.125.11-.125.172 0 .172.11.172.282.172h.437c1.094 0 1.094.985 1.094 1.5 0 .469 0 1.485-1.031 1.485-.266 0-.782-.047-1.266-.344C1.75-.75 2-1 2-1.406c0-.453-.312-.75-.75-.75-.422 0-.766.265-.766.765 0 .907.97 1.5 2.25 1.5 1.782 0 2.516-1 2.516-1.906m0 0"/><path id="ad" d="M5.281-3.187c0-.954-.015-3.344-2.422-3.344S.453-4.156.453-3.188c0 1 0 3.297 2.406 3.297 2.391 0 2.422-2.296 2.422-3.296M4-3.297c0 .563 0 1.469-.078 1.985-.14.921-.766 1.062-1.063 1.062-.359 0-.921-.219-1.046-.953-.094-.516-.094-1.547-.094-2.094 0-.719 0-1.375.078-1.89.125-.891.828-.985 1.062-.985.375 0 .782.188.97.625C4-5.172 4-4.109 4-3.297m0 0"/><path id="ae" d="M5.313 1.625c.312-.437.562-1.312-.407-2.406C5.594-.547 6.5-.578 7-1.266c.453-.625.219-1.562-.922-2.39-.953-.703-1.969-.64-2.437 0-.25.344-.172.765.14.984.36.266.766.14.969-.156a.667.667 0 0 0-.062-.89c.453-.048.859.155 1.109.343.672.484.312 1.016.125 1.281-.078.11-.86 1.156-1.734.61-.329-.235-.344-.25-.407-.266-.094-.047-.156.016-.203.063-.094.14-.015.203.125.296l.36.266c.89.64.312 1.438.015 1.86-.281.374-.875 1.203-1.719.593A2.45 2.45 0 0 1 1.547.297.736.736 0 0 0 2.453.03c.266-.36.172-.797-.172-1.047S1.5-1.25 1.203-.844c-.531.735-.094 1.797.953 2.547 1.438 1.047 2.625.656 3.157-.078m0 0"/><path id="af" d="m3.984 2.89.282-.374-1.125-.813L6.5-2.937c.14-.188.203-.266-.016-.422-.093-.063-.093-.079-.218-.063-.953 0-1.782-.61-1.953-.734l-.157-.11-.281.375.156.11c.125.094.594.406 1.172.61L2.172 1 1.047.188.766.563C1.14.78 2 1.406 2.39 1.703c.39.281 1.25.906 1.593 1.188m0 0"/><clipPath id="j"><path d="M128 96h10.277v22H128Zm0 0"/></clipPath><clipPath id="k"><path d="M125 93h13.277v28H125Zm0 0"/></clipPath><clipPath id="n"><path d="M117 83h21.277v22H117Zm0 0"/></clipPath><clipPath id="J"><path d="M10 124h24v19.652H10Zm0 0"/></clipPath><clipPath id="K"><path d="M0 132h20v11.652H0Zm0 0"/></clipPath><clipPath id="L"><path d="M0 129h23v14.652H0Zm0 0"/></clipPath><clipPath id="U"><path d="M33 115h18v28.652H33Zm0 0"/></clipPath><clipPath id="V"><path d="M55 115h18v28.652H55Zm0 0"/></clipPath></defs><use xlink:href="#a" x="72.422" y="79.262"/><use xlink:href="#b" x="80.817" y="63.514"/><use xlink:href="#c" x="98.684" y="61.111"/><use xlink:href="#d" x="113.41" y="71.096"/><path fill="none" stroke="#7F7F7F" stroke-miterlimit="10" stroke-width=".199" d="m121.219 81.98-16.633-3.535"/><path fill="none" stroke="#000" stroke-miterlimit="10" stroke-width=".399" d="m121.219 81.98-9.024 1.56-7.61-5.095"/><path fill="none" stroke="#7F7F7F" stroke-miterlimit="10" stroke-width=".199" d="m104.586 78.445 11.379-12.64M115.965 65.805l5.254 16.175"/><path fill="none" stroke="#000" stroke-miterlimit="10" stroke-width=".399" d="m115.965 65.805 5.863 7.039-.61 9.136"/><path fill="none" stroke="#7F7F7F" stroke-miterlimit="10" stroke-width=".199" d="m104.586 78.445-15.54-6.918"/><path fill="none" stroke="#000" stroke-miterlimit="10" stroke-width=".399" d="m89.047 71.527 7.512 8.344 8.027-1.426"/><path fill="none" stroke="#7F7F7F" stroke-miterlimit="10" stroke-width=".199" d="m89.047 71.527 1.777-16.914"/><path fill="none" stroke="#000" stroke-miterlimit="10" stroke-width=".399" d="m90.824 54.613 16.637-3.535"/><use xlink:href="#e" x="111.754" y="55.111"/><path fill="none" stroke="#7F7F7F" stroke-miterlimit="10" stroke-width=".199" d="m124.469 51.078-8.504 14.727"/><path fill="none" stroke="#000" stroke-miterlimit="10" stroke-width=".399" d="m124.469 51.078-1.305 9.063-7.2 5.664"/><path fill="none" stroke="#7F7F7F" stroke-miterlimit="10" stroke-width=".199" d="m115.965 65.805-8.504-14.727"/><path fill="none" stroke="#000" stroke-miterlimit="10" stroke-width=".399" d="M107.46 51.078h17.009"/><path fill="none" stroke="#7F7F7F" stroke-miterlimit="10" stroke-width=".199" d="m89.047 71.527-13.762-9.996"/><path fill="none" stroke="#000" stroke-miterlimit="10" stroke-width=".399" d="m75.285 61.531 15.54-6.918"/><use xlink:href="#f" x="88.921" y="77.418"/><use xlink:href="#g" x="96.656" y="93.549"/><path fill="none" stroke="#7F7F7F" stroke-miterlimit="10" stroke-width=".199" d="m97.55 111.535-15.538-6.918"/><path fill="none" stroke="#000" stroke-miterlimit="10" stroke-width=".399" d="m97.55 111.535-9.152-.351-6.386-6.567"/><path fill="none" stroke="#7F7F7F" stroke-miterlimit="10" stroke-width=".199" d="m82.012 104.621 1.777-16.918"/><path fill="none" stroke="#000" stroke-miterlimit="10" stroke-width=".399" d="m83.79 87.703-5.61 9.723 3.832 7.195"/><path fill="none" stroke="#7F7F7F" stroke-miterlimit="10" stroke-width=".199" d="m83.79 87.703 16.636-3.535"/><path fill="none" stroke="#000" stroke-miterlimit="10" stroke-width=".399" d="m100.426 84.168 8.504 14.73"/><use xlink:href="#h" x="106.421" y="104.227"/><path fill="none" stroke="#7F7F7F" stroke-miterlimit="10" stroke-width=".199" d="m114.188 115.074-16.637-3.539"/><path fill="none" stroke="#000" stroke-miterlimit="10" stroke-width=".399" d="m114.188 115.074-9.028 1.559-7.61-5.098"/><path fill="none" stroke="#7F7F7F" stroke-miterlimit="10" stroke-width=".199" d="m97.55 111.535 11.38-12.637"/><use xlink:href="#i" x="118.754" y="101.635"/><g clip-path="url(#j)"><path fill="none" stroke="#7F7F7F" stroke-miterlimit="10" stroke-width=".199" d="m136.45 98.898-5.255 16.176"/></g><g clip-path="url(#k)"><path fill="none" stroke="#000" stroke-miterlimit="10" stroke-width=".399" d="m136.45 98.898.609 9.137-5.864 7.04"/></g><use xlink:href="#l" x="128.418" y="116.775"/><use xlink:href="#m" x="122.69" y="116.775"/><path fill="none" stroke="#7F7F7F" stroke-miterlimit="10" stroke-width=".199" d="m122.691 129.8-8.504-14.726"/><path fill="none" stroke="#000" stroke-miterlimit="10" stroke-width=".399" d="m122.691 129.8-7.199-5.663-1.305-9.063"/><path fill="none" stroke="#7F7F7F" stroke-miterlimit="10" stroke-width=".199" d="M114.188 115.074h17.007M131.195 115.074l-8.504 14.727"/><path fill="none" stroke="#000" stroke-miterlimit="10" stroke-width=".399" d="m131.195 115.074-1.304 9.063-7.2 5.664"/><path fill="none" stroke="#7F7F7F" stroke-miterlimit="10" stroke-width=".199" d="m114.188 115.074-5.258-16.176"/><path fill="none" stroke="#000" stroke-miterlimit="10" stroke-width=".399" d="m108.93 98.898 13.761-9.996"/><g clip-path="url(#n)"><path fill="none" stroke="#000" stroke-miterlimit="10" stroke-width=".399" d="m122.691 88.898 13.758 10"/></g><path fill="none" stroke="#7F7F7F" stroke-miterlimit="10" stroke-width=".199" d="m83.79 87.703 5.257-16.176"/><path fill="none" stroke="#000" stroke-miterlimit="10" stroke-width=".399" d="m89.047 71.527 11.379 12.641"/><use xlink:href="#o" x="81.014" y="89.351"/><use xlink:href="#o" x="75.286" y="89.351"/><path fill="none" stroke="#7F7F7F" stroke-miterlimit="10" stroke-width=".199" d="m75.285 102.434-8.504-14.73"/><path fill="none" stroke="#000" stroke-miterlimit="10" stroke-width=".399" d="m66.781 87.703 1.176 11.164 7.328 3.567"/><path fill="none" stroke="#7F7F7F" stroke-miterlimit="10" stroke-width=".199" d="M66.781 87.703H83.79"/><path fill="none" stroke="#000" stroke-miterlimit="10" stroke-width=".399" d="m83.79 87.703-8.505 14.73"/><use xlink:href="#p" x="64.359" y="85.574"/><use xlink:href="#q" x="62.588" y="80.126"/><use xlink:href="#r" x="45.688" y="76.42"/><use xlink:href="#s" x="49.522" y="72.163"/><use xlink:href="#t" x="38.76" y="58.152"/><use xlink:href="#u" x="44.363" y="56.961"/><path fill="none" stroke="#7F7F7F" stroke-miterlimit="10" stroke-width=".199" d="M41.64 44.16 53.024 56.8"/><path fill="none" stroke="#000" stroke-miterlimit="10" stroke-width=".399" d="m41.64 44.16 8.22 4.043 3.163 8.598"/><path fill="none" stroke="#7F7F7F" stroke-miterlimit="10" stroke-width=".199" d="m53.023 56.8-16.636 3.536"/><use xlink:href="#v" x="29.163" y="55.071"/><use xlink:href="#w" x="30.934" y="49.623"/><use xlink:href="#x" x="15.368" y="41.152"/><use xlink:href="#y" x="20.003" y="37.785"/><path fill="none" stroke="#7F7F7F" stroke-miterlimit="10" stroke-width=".199" d="m12.344 27.246 15.539 6.918"/><path fill="none" stroke="#000" stroke-miterlimit="10" stroke-width=".399" d="m12.344 27.246 9.152.352 6.387 6.566"/><path fill="none" stroke="#7F7F7F" stroke-miterlimit="10" stroke-width=".199" d="M27.883 34.164 14.125 44.16M14.125 44.16l-1.781-16.914"/><path fill="none" stroke="#000" stroke-miterlimit="10" stroke-width=".399" d="M14.125 44.16 9.852 36.06l2.492-8.813"/><path fill="none" stroke="#7F7F7F" stroke-miterlimit="10" stroke-width=".199" d="M27.883 34.164 41.64 44.16"/><path fill="none" stroke="#000" stroke-miterlimit="10" stroke-width=".399" d="m27.883 34.164 8.879 2.246 4.879 7.75"/><path fill="none" stroke="#7F7F7F" stroke-miterlimit="10" stroke-width=".199" d="m41.64 44.16-5.253 16.176"/><path fill="none" stroke="#000" stroke-miterlimit="10" stroke-width=".399" d="M36.387 60.336H19.379M19.379 60.336 14.125 44.16"/><path fill="none" stroke="#7F7F7F" stroke-miterlimit="10" stroke-width=".199" d="m53.023 56.8 8.504 14.727"/><path fill="none" stroke="#000" stroke-miterlimit="10" stroke-width=".399" d="m61.527 71.527-1.175-11.164-7.329-3.562"/><path fill="none" stroke="#7F7F7F" stroke-miterlimit="10" stroke-width=".199" d="M61.527 71.527 50.145 84.168"/><path fill="none" stroke="#000" stroke-miterlimit="10" stroke-width=".399" d="M50.145 84.168 34.609 77.25"/><use xlink:href="#z" x="33.31" y="74.323"/><use xlink:href="#A" x="33.909" y="68.626"/><path fill="none" stroke="#7F7F7F" stroke-miterlimit="10" stroke-width=".199" d="m20.848 67.254 15.539-6.918"/><path fill="none" stroke="#000" stroke-miterlimit="10" stroke-width=".399" d="M36.387 60.336H25.16l-4.312 6.918"/><path fill="none" stroke="#7F7F7F" stroke-miterlimit="10" stroke-width=".199" d="M36.387 60.336 34.609 77.25"/><path fill="none" stroke="#000" stroke-miterlimit="10" stroke-width=".399" d="m34.61 77.25-13.762-9.996"/><path fill="none" stroke="#7F7F7F" stroke-miterlimit="10" stroke-width=".199" d="m61.527 71.527 5.254 16.176"/><use xlink:href="#B" x="62.301" y="95.438"/><use xlink:href="#C" x="56.698" y="94.247"/><use xlink:href="#D" x="49.901" y="110.613"/><use xlink:href="#E" x="46.067" y="106.356"/><use xlink:href="#F" x="29.163" y="109.808"/><use xlink:href="#G" x="30.934" y="104.36"/><path fill="none" stroke="#7F7F7F" stroke-miterlimit="10" stroke-width=".199" d="m14.121 98.898 13.762-9.996"/><path fill="none" stroke="#000" stroke-miterlimit="10" stroke-width=".399" d="m14.121 98.898 4.883-7.75 8.879-2.246"/><path fill="none" stroke="#7F7F7F" stroke-miterlimit="10" stroke-width=".199" d="m27.883 88.902 13.758 9.996"/><path fill="none" stroke="#000" stroke-miterlimit="10" stroke-width=".399" d="m41.64 98.898-5.613-9.722-8.144-.274"/><path fill="none" stroke="#7F7F7F" stroke-miterlimit="10" stroke-width=".199" d="m41.64 98.898-5.253 16.176"/><use xlink:href="#H" x="33.611" y="116.72"/><use xlink:href="#l" x="27.883" y="116.72"/><use xlink:href="#I" x="19.184" y="131.619"/><use xlink:href="#I" x="16.32" y="126.658"/><path fill="none" stroke="#000" stroke-miterlimit="10" stroke-width=".399" d="m.965 135.523 1.777-16.914"/><path fill="none" stroke="#7F7F7F" stroke-miterlimit="10" stroke-width=".199" d="m2.742 118.61 16.637-3.536"/><path fill="none" stroke="#000" stroke-miterlimit="10" stroke-width=".399" d="m19.379 115.074-10.98-2.336-5.657 5.871"/><path fill="none" stroke="#7F7F7F" stroke-miterlimit="10" stroke-width=".199" d="m19.379 115.074 8.504 14.727"/><g clip-path="url(#J)"><path fill="none" stroke="#000" stroke-miterlimit="10" stroke-width=".399" d="m27.883 129.8-11.38 12.641"/></g><g clip-path="url(#K)"><path fill="none" stroke="#7F7F7F" stroke-miterlimit="10" stroke-width=".199" d="m16.504 142.441-15.54-6.918"/></g><g clip-path="url(#L)"><path fill="none" stroke="#000" stroke-miterlimit="10" stroke-width=".399" d="m16.504 142.441-9.152-.351-6.387-6.567"/></g><path fill="none" stroke="#7F7F7F" stroke-miterlimit="10" stroke-width=".199" d="M19.379 115.074h17.008"/><path fill="none" stroke="#000" stroke-miterlimit="10" stroke-width=".399" d="m36.387 115.074-8.504 14.727"/><use xlink:href="#M" x="16.902" y="112.959"/><use xlink:href="#N" x="15.132" y="107.511"/><path fill="none" stroke="#7F7F7F" stroke-miterlimit="10" stroke-width=".199" d="m2.742 111.54 11.38-12.642"/><path fill="none" stroke="#000" stroke-miterlimit="10" stroke-width=".399" d="m2.742 111.54 3.164-8.599 8.215-4.043"/><path fill="none" stroke="#7F7F7F" stroke-miterlimit="10" stroke-width=".199" d="m14.121 98.898 5.258 16.176"/><path fill="none" stroke="#000" stroke-miterlimit="10" stroke-width=".399" d="M19.379 115.074 2.742 111.54"/><path fill="none" stroke="#7F7F7F" stroke-miterlimit="10" stroke-width=".199" d="m41.64 98.898 11.383 12.637"/><path fill="none" stroke="#000" stroke-miterlimit="10" stroke-width=".399" d="m53.023 111.535-16.636 3.54"/><use xlink:href="#O" x="41.608" y="95.673"/><use xlink:href="#P" x="44.472" y="90.712"/><path fill="none" stroke="#7F7F7F" stroke-miterlimit="10" stroke-width=".199" d="M33.137 84.168h17.008"/><path fill="none" stroke="#000" stroke-miterlimit="10" stroke-width=".399" d="M50.145 84.168 39.89 79.602l-6.754 4.566"/><path fill="none" stroke="#7F7F7F" stroke-miterlimit="10" stroke-width=".199" d="m50.145 84.168-8.504 14.73"/><path fill="none" stroke="#000" stroke-miterlimit="10" stroke-width=".399" d="m41.64 98.898-8.503-14.73"/><path fill="none" stroke="#7F7F7F" stroke-miterlimit="10" stroke-width=".199" d="m50.145 84.168 16.636 3.535"/><path fill="none" stroke="#000" stroke-miterlimit="10" stroke-width=".399" d="m66.781 87.703 1.778 16.914"/><use xlink:href="#Q" x="66.716" y="107.303"/><use xlink:href="#R" x="61.483" y="109.633"/><use xlink:href="#S" x="59.542" y="126.776"/><use xlink:href="#T" x="54.908" y="123.409"/><path fill="none" stroke="#7F7F7F" stroke-miterlimit="10" stroke-width=".199" d="m44.52 137.71-5.258-16.175"/><g clip-path="url(#U)"><path fill="none" stroke="#000" stroke-miterlimit="10" stroke-width=".399" d="m44.52 137.71-5.864-7.038.606-9.137"/></g><path fill="none" stroke="#7F7F7F" stroke-miterlimit="10" stroke-width=".199" d="m39.262 121.535 13.761-10"/><path fill="none" stroke="#000" stroke-miterlimit="10" stroke-width=".399" d="m53.023 111.535-10.98 2.336-2.781 7.664"/><path fill="none" stroke="#7F7F7F" stroke-miterlimit="10" stroke-width=".199" d="m53.023 111.535 13.758 10"/><g clip-path="url(#V)"><path fill="none" stroke="#000" stroke-miterlimit="10" stroke-width=".399" d="m66.781 121.535-5.254 16.176"/></g><path fill="none" stroke="#000" stroke-miterlimit="10" stroke-width=".399" d="M61.527 137.71H44.52"/><path fill="none" stroke="#7F7F7F" stroke-miterlimit="10" stroke-width=".199" d="m53.023 111.535 15.536-6.918"/><path fill="none" stroke="#000" stroke-miterlimit="10" stroke-width=".399" d="m68.559 104.617-1.778 16.918"/><use xlink:href="#W" x="62.834" y="68.605"/><use xlink:href="#X" x="67.468" y="65.238"/><use xlink:href="#Y" x="65.74" y="47.981"/><use xlink:href="#Z" x="70.974" y="50.311"/><use xlink:href="#aa" x="81.025" y="35.716"/><use xlink:href="#ab" x="83.889" y="40.677"/><path fill="none" stroke="#7F7F7F" stroke-miterlimit="10" stroke-width=".199" d="m95.172 34.16-8.504 14.73"/><path fill="none" stroke="#000" stroke-miterlimit="10" stroke-width=".399" d="m95.172 34.16-1.309 9.067-7.195 5.664"/><path fill="none" stroke="#7F7F7F" stroke-miterlimit="10" stroke-width=".199" d="m86.668 48.89-8.504-14.726"/><use xlink:href="#ac" x="80.939" y="25.666"/><use xlink:href="#ad" x="86.667" y="25.666"/><use xlink:href="#ae" x="89.912" y="8.245"/><use xlink:href="#af" x="94.546" y="11.612"/><path fill="none" stroke="#000" stroke-miterlimit="10" stroke-width=".399" d="m102.203 1.07-1.777 16.914"/><path fill="none" stroke="#7F7F7F" stroke-miterlimit="10" stroke-width=".199" d="m100.426 17.988-13.758-10"/><path fill="none" stroke="#000" stroke-miterlimit="10" stroke-width=".399" d="m86.668 7.988 15.535-6.918"/><path fill="none" stroke="#7F7F7F" stroke-miterlimit="10" stroke-width=".199" d="M100.426 17.984 95.172 34.16"/><path fill="none" stroke="#000" stroke-miterlimit="10" stroke-width=".399" d="m100.426 17.984.61 9.141-5.864 7.035"/><path fill="none" stroke="#7F7F7F" stroke-miterlimit="10" stroke-width=".199" d="m95.172 34.16-17.008.004"/><path fill="none" stroke="#000" stroke-miterlimit="10" stroke-width=".399" d="m78.164 34.164-5.258-16.176M72.906 17.988l13.762-10"/><path fill="none" stroke="#7F7F7F" stroke-miterlimit="10" stroke-width=".199" d="M86.668 48.89 75.285 61.532"/><path fill="none" stroke="#000" stroke-miterlimit="10" stroke-width=".399" d="m75.285 61.531 10.258-4.566 1.125-8.074"/><path fill="none" stroke="#7F7F7F" stroke-miterlimit="10" stroke-width=".199" d="M75.285 61.531 59.75 54.613"/><path fill="none" stroke="#000" stroke-miterlimit="10" stroke-width=".399" d="M59.75 54.613 61.527 37.7"/><use xlink:href="#ag" x="63.888" y="35.457"/><use xlink:href="#ah" x="69.491" y="34.266"/><path fill="none" stroke="#7F7F7F" stroke-miterlimit="10" stroke-width=".199" d="m66.781 21.523 11.383 12.641"/><path fill="none" stroke="#000" stroke-miterlimit="10" stroke-width=".399" d="m78.164 34.164-3.469-10.676-7.914-1.965"/><path fill="none" stroke="#7F7F7F" stroke-miterlimit="10" stroke-width=".199" d="M78.164 34.164 61.527 37.7"/><path fill="none" stroke="#000" stroke-miterlimit="10" stroke-width=".399" d="m61.527 37.7 5.254-16.177"/><path fill="none" stroke="#7F7F7F" stroke-miterlimit="10" stroke-width=".199" d="m75.285 61.531-13.758 9.996"/><path fill="none" stroke="#000" stroke-miterlimit="10" stroke-width=".399" d="M61.527 71.527 59.75 54.613"/></svg>