<svg xmlns="http://www.w3.org/2000/svg" xmlns:xlink="http://www.w3.org/1999/xlink" width="156.334" height="84.98"><defs><path id="d" d="M5.031-.484v-.844c0-.234-.015-.484-.422-.484s-.406.234-.406.484v.578H1.75v-2.031h1.125c0 .406.047.562.422.562.39 0 .406-.25.406-.484v-.906c0-.22-.015-.47-.406-.47-.375 0-.422.157-.422.548H1.75v-1.813h2.234v.438c0 .218 0 .484.407.484.422 0 .422-.25.422-.484v-.703c0-.36-.079-.485-.47-.485H.72c-.188 0-.485.016-.485.375 0 .36.297.375.485.375h.203V-.75H.719c-.188 0-.485.016-.485.375 0 .36.297.375.485.375h3.844c.375 0 .468-.094.468-.484m0 0"/><path id="h" d="M4.86-3.047c0-.406-.391-.422-.532-.422H3.031V-4.78c0-.14-.015-.532-.422-.532s-.421.391-.421.532v1.312H.89c-.141 0-.532.016-.532.422s.391.422.532.422h1.297v1.297c0 .14.015.547.421.547.407 0 .422-.406.422-.547v-1.297h1.297c.14 0 .531-.016.531-.422m0 0"/><path id="m" d="M4.688-3.047c0-.406-.391-.422-.532-.422H1.063c-.141 0-.532.016-.532.422s.39.422.532.422h3.093c.14 0 .532-.016.532-.422m0 0"/><path id="p" d="M6.531-1.469c0-.14-.125-.14-.281-.14-.234 0-.25 0-.312.25-.079.328-.266 1.078-.61 1.078-.11 0-.187-.078-.187-.313 0-.187.015-.265.062-.422l.688-2.765c.046-.14.046-.172.046-.219 0-.312-.25-.422-.453-.422-.125 0-.515.063-.64.547l-.688 2.813c-.047.171-.047.218-.328.5-.14.125-.39.28-.687.28-.5 0-.516-.468-.516-.687 0-.593.328-1.484.578-2.11.094-.25.14-.374.14-.546 0-.547-.515-.875-1.046-.875C1.25-4.5.766-3.156.766-2.953c0 .14.125.14.28.14.188 0 .235 0 .282-.124.078-.266.344-1.204.922-1.204.047 0 .125 0 .125.172 0 .203-.11.516-.172.656-.312.86-.594 1.579-.594 2.141 0 .906.641 1.25 1.47 1.25.28 0 .702-.047 1.187-.5.187.344.64.5 1.03.5.47 0 .72-.344.845-.531.265-.422.39-.984.39-1.016m0 0"/><path id="q" d="M6.813-1.469c0-.14-.125-.14-.266-.14-.203 0-.25 0-.281.125-.079.265-.36 1.203-.922 1.203-.047 0-.14 0-.14-.172 0-.219.093-.469.234-.813.14-.375.578-1.546.578-2.109 0-.828-.578-1.125-1.375-1.125-.203 0-.86 0-1.516.688C2.922-4.391 2.328-4.5 2-4.5c-.469 0-.719.328-.844.531-.265.422-.39.985-.39 1.016 0 .14.125.14.28.14.235 0 .25-.015.313-.265.094-.328.266-1.063.61-1.063.11 0 .187.079.187.297 0 .188-.015.281-.062.438L1.39-.562c-.047.14-.047.156-.047.218 0 .297.234.422.453.422.062 0 .5-.015.625-.531l.625-2.484c.062-.282.625-1.204 1.531-1.204.422 0 .422.375.422.563 0 .594-.453 1.828-.64 2.266-.079.25-.11.359-.11.5 0 .562.5.89 1.047.89 1.031 0 1.516-1.344 1.516-1.547m0 0"/><path id="r" d="M4.64-1.64c0-.22-.077-.548-.437-.844-.297-.235-.547-.282-1.078-.375-.297-.063-.703-.141-.703-.516 0 0 0-.766 1.062-.766.094 0 .454 0 .688.235-.39.172-.39.531-.39.562 0 .25.202.406.452.406.235 0 .61-.203.61-.687 0-.547-.563-.875-1.344-.875s-1.125.266-1.312.406c-.329.282-.516.813-.516 1.125 0 .844.844 1.016 1.156 1.078.516.094 1.047.204 1.047.657 0 0 0 .953-1.375.953-.14 0-.61 0-.937-.266.078-.031.484-.219.484-.672 0-.39-.313-.468-.485-.468-.359 0-.718.296-.718.78 0 .626.656.985 1.625.985.265 0 .906-.015 1.453-.39.515-.36.719-1 .719-1.329m0 0"/><path id="s" d="M3.89-1.469c0-.14-.124-.14-.28-.14-.188 0-.235 0-.282.125-.078.265-.344 1.203-.922 1.203-.047 0-.14 0-.14-.172 0-.14.078-.39.093-.406l.891-2.375c.063-.157.094-.235.094-.391 0-.547-.516-.875-1.047-.875C1.25-4.5.766-3.156.766-2.953c0 .14.125.14.28.14.188 0 .235 0 .282-.124.078-.266.344-1.204.922-1.204.047 0 .125 0 .125.172 0 .125-.062.375-.078.406l-.89 2.36c-.063.172-.095.25-.095.39 0 .563.516.891 1.047.891 1.047 0 1.532-1.344 1.532-1.547m.141-4.656a.6.6 0 0 0-.625-.594c-.453 0-.89.422-.89.86 0 .328.25.609.625.609.468 0 .89-.437.89-.875m0 0"/><path id="t" d="m4.5.64 1.078-4.312c.031-.172.031-.25.031-.25 0-.219-.171-.422-.453-.422-.265 0-.375.11-.468.203-.282-.265-.594-.359-.954-.359-1.703 0-2.671 1.64-2.671 2.922C1.063-.516 1.78 0 2.688 0c.312 0 .624-.078.968-.266l-.172.704c-.25.921-.812 1.218-1.343 1.218-.282 0-.5-.031-.625-.062a.8.8 0 0 0 .28-.563c0-.25-.187-.453-.5-.453a.727.727 0 0 0-.702.735c0 .625.781.703 1.515.703C3.313 2.016 4.281 1.5 4.5.64m-.625-1.812c-.094.36-.672.813-1.156.813-.531 0-.578-.485-.578-.703 0-.547.359-1.766.484-2.11.328-.828.844-.969 1.11-.969.296 0 .609.157.734.594Zm0 0"/><path id="u" d="M5.344-.86c0-.078-.203-.312-.297-.312-.031 0-.078 0-.14.063-.735.828-1.75.828-1.891.828-.547 0-.844-.328-.844-.922 0-.25.078-.625.156-.969h.406c.594 0 2.563 0 2.563-1.375C5.297-4.14 4.75-4.5 4-4.5c-1.719 0-2.906 1.297-2.906 2.828 0 1.078.672 1.75 1.922 1.75.297 0 .89-.031 1.406-.219.531-.203.922-.593.922-.718m-.688-2.702c0 1.03-1.625 1.03-2.234 1.03.14-.5.234-.796.531-1.124A1.45 1.45 0 0 1 4-4.141c.422 0 .656.266.656.579m0 0"/><path id="v" d="M6.234-1.469c0-.14-.14-.14-.28-.14-.235 0-.25 0-.329.25-.078.328-.25 1.078-.594 1.078-.11 0-.187-.078-.187-.313 0-.187.015-.265.062-.422l1.39-5.562a.6.6 0 0 0 .032-.156c0-.188-.172-.188-.312-.172l-1.235.062c-.11 0-.312 0-.312.297 0 .172.187.172.281.172.11 0 .297.016.406.031l-.515 2.157a1.35 1.35 0 0 0-.907-.313c-1.687 0-2.671 1.656-2.671 2.984 0 1.188.828 1.594 1.593 1.594.61 0 1.078-.312 1.313-.5.187.344.64.5 1.031.5.469 0 .719-.344.844-.531.25-.422.39-.984.39-1.016M3.844-1c-.422.578-.844.719-1.156.719-.22 0-.563-.14-.563-.703 0-.547.344-1.766.453-2.047.344-.969.89-1.11 1.156-1.11.344 0 .625.22.735.61l-.594 2.36c-.016.062-.016.093-.031.171m0 0"/><path id="w" d="M4.172-1.469c0-.14-.125-.14-.281-.14-.22 0-.22 0-.297.156-.422 1-.906 1.172-1.172 1.172-.094 0-.203-.016-.203-.313 0-.187.015-.265.047-.422l.75-2.937h.797c.171 0 .328 0 .328-.297 0-.172-.157-.172-.297-.172h-.719l.188-.797c.078-.25.187-.687.187-.765 0-.235-.172-.422-.453-.422-.125 0-.5.062-.625.531l-.36 1.453H1.25c-.172 0-.344 0-.344.281 0 .188.172.188.313.188h.718L1.25-1.172c-.047.156-.047.219-.047.281 0 .625.578.97 1.172.97 1.14 0 1.797-1.391 1.797-1.548m0 0"/><path id="x" d="M5.61-3.625c0-.516-.548-.875-1.266-.875-.39 0-.86.11-1.282.531C2.892-4.28 2.5-4.5 2-4.5c-.469 0-.719.328-.844.531-.265.422-.39.985-.39 1.016 0 .14.125.14.28.14.235 0 .25-.015.313-.265.094-.328.266-1.063.61-1.063.11 0 .187.079.187.297 0 .188-.015.281-.062.438L1.39-.562c-.047.14-.047.156-.047.218 0 .297.234.422.453.422.062 0 .5-.015.625-.531l.672-2.719c.062-.234.515-.969 1.219-.969.109 0 .343 0 .546.157-.468.218-.468.64-.468.672 0 .25.187.468.5.468.375 0 .718-.328.718-.781m0 0"/><clipPath id="a"><path d="M1 34h18v17H1Zm0 0"/></clipPath><clipPath id="b"><path d="M9.777 33.98a8.506 8.506 0 0 0-8.504 8.504c0 4.7 3.809 8.504 8.504 8.504a8.5 8.5 0 0 0 8.504-8.504 8.503 8.503 0 0 0-8.504-8.504m0 0"/></clipPath><clipPath id="e"><path d="M33 2h18v17H33Zm0 0"/></clipPath><clipPath id="f"><path d="M42.156 1.605a8.503 8.503 0 0 0-8.504 8.504 8.503 8.503 0 0 0 8.504 8.504 8.506 8.506 0 0 0 8.504-8.504 8.506 8.506 0 0 0-8.504-8.504m0 0"/></clipPath><clipPath id="i"><path d="M33 66h18v17H33Zm0 0"/></clipPath><clipPath id="j"><path d="M42.156 66.36a8.503 8.503 0 0 0-8.504 8.503 8.503 8.503 0 0 0 8.504 8.504 8.506 8.506 0 0 0 8.504-8.504 8.506 8.506 0 0 0-8.504-8.504m0 0"/></clipPath><clipPath id="l"><path d="M16 49h52v35.969H16Zm0 0"/></clipPath><clipPath id="n"><path d="M66.027 34h88.375v16.988H66.027Zm0 0"/></clipPath><linearGradient id="c" x1="0" x2="0" y1="25.003" y2="74.997" gradientTransform="matrix(.3402 0 0 -.3402 -7.232 59.496)" gradientUnits="userSpaceOnUse"><stop offset="0" stop-color="#CCC"/><stop offset=".016" stop-color="#CCC"/><stop offset=".031" stop-color="#CDCDCD"/><stop offset=".047" stop-color="#CECECE"/><stop offset=".063" stop-color="#CFCFCF"/><stop offset=".078" stop-color="#D0D0D0"/><stop offset=".094" stop-color="#D0D0D0"/><stop offset=".109" stop-color="#D1D1D1"/><stop offset=".125" stop-color="#D2D2D2"/><stop offset=".141" stop-color="#D3D3D3"/><stop offset=".156" stop-color="#D4D4D4"/><stop offset=".172" stop-color="#D4D4D4"/><stop offset=".188" stop-color="#D5D5D5"/><stop offset=".203" stop-color="#D6D6D6"/><stop offset=".219" stop-color="#D7D7D7"/><stop offset=".234" stop-color="#D8D8D8"/><stop offset=".25" stop-color="#D8D8D8"/><stop offset=".266" stop-color="#D9D9D9"/><stop offset=".281" stop-color="#DADADA"/><stop offset=".297" stop-color="#DBDBDB"/><stop offset=".313" stop-color="#DCDCDC"/><stop offset=".328" stop-color="#DCDCDC"/><stop offset=".344" stop-color="#DDD"/><stop offset=".359" stop-color="#DEDEDE"/><stop offset=".375" stop-color="#DFDFDF"/><stop offset=".391" stop-color="#E0E0E0"/><stop offset=".406" stop-color="#E0E0E0"/><stop offset=".422" stop-color="#E1E1E1"/><stop offset=".438" stop-color="#E2E2E2"/><stop offset=".453" stop-color="#E3E3E3"/><stop offset=".469" stop-color="#E4E4E4"/><stop offset=".484" stop-color="#E4E4E4"/><stop offset=".5" stop-color="#E5E5E5"/><stop offset=".516" stop-color="#E6E6E6"/><stop offset=".531" stop-color="#E7E7E7"/><stop offset=".547" stop-color="#E7E7E7"/><stop offset=".563" stop-color="#E8E8E8"/><stop offset=".578" stop-color="#E9E9E9"/><stop offset=".594" stop-color="#EAEAEA"/><stop offset=".609" stop-color="#EBEBEB"/><stop offset=".625" stop-color="#EBEBEB"/><stop offset=".641" stop-color="#ECECEC"/><stop offset=".656" stop-color="#EDEDED"/><stop offset=".672" stop-color="#EEE"/><stop offset=".688" stop-color="#EFEFEF"/><stop offset=".703" stop-color="#EFEFEF"/><stop offset=".719" stop-color="#F0F0F0"/><stop offset=".734" stop-color="#F1F1F1"/><stop offset=".75" stop-color="#F2F2F2"/><stop offset=".766" stop-color="#F3F3F3"/><stop offset=".781" stop-color="#F3F3F3"/><stop offset=".797" stop-color="#F4F4F4"/><stop offset=".813" stop-color="#F5F5F5"/><stop offset=".828" stop-color="#F6F6F6"/><stop offset=".844" stop-color="#F7F7F7"/><stop offset=".859" stop-color="#F7F7F7"/><stop offset=".875" stop-color="#F8F8F8"/><stop offset=".891" stop-color="#F9F9F9"/><stop offset=".906" stop-color="#FAFAFA"/><stop offset=".922" stop-color="#FBFBFB"/><stop offset=".938" stop-color="#FBFBFB"/><stop offset=".953" stop-color="#FCFCFC"/><stop offset=".969" stop-color="#FDFDFD"/><stop offset=".984" stop-color="#FEFEFE"/><stop offset="1" stop-color="#FFF"/></linearGradient><linearGradient id="g" x1="0" x2="0" y1="25.003" y2="74.997" gradientTransform="matrix(.3402 0 0 -.3402 25.145 27.119)" gradientUnits="userSpaceOnUse"><stop offset="0" stop-color="#CCC"/><stop offset=".016" stop-color="#CCC"/><stop offset=".031" stop-color="#CDCDCD"/><stop offset=".047" stop-color="#CECECE"/><stop offset=".063" stop-color="#CFCFCF"/><stop offset=".078" stop-color="#D0D0D0"/><stop offset=".094" stop-color="#D0D0D0"/><stop offset=".109" stop-color="#D1D1D1"/><stop offset=".125" stop-color="#D2D2D2"/><stop offset=".141" stop-color="#D3D3D3"/><stop offset=".156" stop-color="#D4D4D4"/><stop offset=".172" stop-color="#D4D4D4"/><stop offset=".188" stop-color="#D5D5D5"/><stop offset=".203" stop-color="#D6D6D6"/><stop offset=".219" stop-color="#D7D7D7"/><stop offset=".234" stop-color="#D8D8D8"/><stop offset=".25" stop-color="#D8D8D8"/><stop offset=".266" stop-color="#D9D9D9"/><stop offset=".281" stop-color="#DADADA"/><stop offset=".297" stop-color="#DBDBDB"/><stop offset=".313" stop-color="#DCDCDC"/><stop offset=".328" stop-color="#DCDCDC"/><stop offset=".344" stop-color="#DDD"/><stop offset=".359" stop-color="#DEDEDE"/><stop offset=".375" stop-color="#DFDFDF"/><stop offset=".391" stop-color="#E0E0E0"/><stop offset=".406" stop-color="#E0E0E0"/><stop offset=".422" stop-color="#E1E1E1"/><stop offset=".438" stop-color="#E2E2E2"/><stop offset=".453" stop-color="#E3E3E3"/><stop offset=".469" stop-color="#E4E4E4"/><stop offset=".484" stop-color="#E4E4E4"/><stop offset=".5" stop-color="#E5E5E5"/><stop offset=".516" stop-color="#E6E6E6"/><stop offset=".531" stop-color="#E7E7E7"/><stop offset=".547" stop-color="#E7E7E7"/><stop offset=".563" stop-color="#E8E8E8"/><stop offset=".578" stop-color="#E9E9E9"/><stop offset=".594" stop-color="#EAEAEA"/><stop offset=".609" stop-color="#EBEBEB"/><stop offset=".625" stop-color="#EBEBEB"/><stop offset=".641" stop-color="#ECECEC"/><stop offset=".656" stop-color="#EDEDED"/><stop offset=".672" stop-color="#EEE"/><stop offset=".688" stop-color="#EFEFEF"/><stop offset=".703" stop-color="#EFEFEF"/><stop offset=".719" stop-color="#F0F0F0"/><stop offset=".734" stop-color="#F1F1F1"/><stop offset=".75" stop-color="#F2F2F2"/><stop offset=".766" stop-color="#F3F3F3"/><stop offset=".781" stop-color="#F3F3F3"/><stop offset=".797" stop-color="#F4F4F4"/><stop offset=".813" stop-color="#F5F5F5"/><stop offset=".828" stop-color="#F6F6F6"/><stop offset=".844" stop-color="#F7F7F7"/><stop offset=".859" stop-color="#F7F7F7"/><stop offset=".875" stop-color="#F8F8F8"/><stop offset=".891" stop-color="#F9F9F9"/><stop offset=".906" stop-color="#FAFAFA"/><stop offset=".922" stop-color="#FBFBFB"/><stop offset=".938" stop-color="#FBFBFB"/><stop offset=".953" stop-color="#FCFCFC"/><stop offset=".969" stop-color="#FDFDFD"/><stop offset=".984" stop-color="#FEFEFE"/><stop offset="1" stop-color="#FFF"/></linearGradient><linearGradient id="k" x1="0" x2="0" y1="25.003" y2="74.997" gradientTransform="matrix(.3402 0 0 -.3402 25.145 91.873)" gradientUnits="userSpaceOnUse"><stop offset="0" stop-color="#CCC"/><stop offset=".016" stop-color="#CCC"/><stop offset=".031" stop-color="#CDCDCD"/><stop offset=".047" stop-color="#CECECE"/><stop offset=".063" stop-color="#CFCFCF"/><stop offset=".078" stop-color="#D0D0D0"/><stop offset=".094" stop-color="#D0D0D0"/><stop offset=".109" stop-color="#D1D1D1"/><stop offset=".125" stop-color="#D2D2D2"/><stop offset=".141" stop-color="#D3D3D3"/><stop offset=".156" stop-color="#D4D4D4"/><stop offset=".172" stop-color="#D4D4D4"/><stop offset=".188" stop-color="#D5D5D5"/><stop offset=".203" stop-color="#D6D6D6"/><stop offset=".219" stop-color="#D7D7D7"/><stop offset=".234" stop-color="#D8D8D8"/><stop offset=".25" stop-color="#D8D8D8"/><stop offset=".266" stop-color="#D9D9D9"/><stop offset=".281" stop-color="#DADADA"/><stop offset=".297" stop-color="#DBDBDB"/><stop offset=".313" stop-color="#DCDCDC"/><stop offset=".328" stop-color="#DCDCDC"/><stop offset=".344" stop-color="#DDD"/><stop offset=".359" stop-color="#DEDEDE"/><stop offset=".375" stop-color="#DFDFDF"/><stop offset=".391" stop-color="#E0E0E0"/><stop offset=".406" stop-color="#E0E0E0"/><stop offset=".422" stop-color="#E1E1E1"/><stop offset=".438" stop-color="#E2E2E2"/><stop offset=".453" stop-color="#E3E3E3"/><stop offset=".469" stop-color="#E4E4E4"/><stop offset=".484" stop-color="#E4E4E4"/><stop offset=".5" stop-color="#E5E5E5"/><stop offset=".516" stop-color="#E6E6E6"/><stop offset=".531" stop-color="#E7E7E7"/><stop offset=".547" stop-color="#E7E7E7"/><stop offset=".563" stop-color="#E8E8E8"/><stop offset=".578" stop-color="#E9E9E9"/><stop offset=".594" stop-color="#EAEAEA"/><stop offset=".609" stop-color="#EBEBEB"/><stop offset=".625" stop-color="#EBEBEB"/><stop offset=".641" stop-color="#ECECEC"/><stop offset=".656" stop-color="#EDEDED"/><stop offset=".672" stop-color="#EEE"/><stop offset=".688" stop-color="#EFEFEF"/><stop offset=".703" stop-color="#EFEFEF"/><stop offset=".719" stop-color="#F0F0F0"/><stop offset=".734" stop-color="#F1F1F1"/><stop offset=".75" stop-color="#F2F2F2"/><stop offset=".766" stop-color="#F3F3F3"/><stop offset=".781" stop-color="#F3F3F3"/><stop offset=".797" stop-color="#F4F4F4"/><stop offset=".813" stop-color="#F5F5F5"/><stop offset=".828" stop-color="#F6F6F6"/><stop offset=".844" stop-color="#F7F7F7"/><stop offset=".859" stop-color="#F7F7F7"/><stop offset=".875" stop-color="#F8F8F8"/><stop offset=".891" stop-color="#F9F9F9"/><stop offset=".906" stop-color="#FAFAFA"/><stop offset=".922" stop-color="#FBFBFB"/><stop offset=".938" stop-color="#FBFBFB"/><stop offset=".953" stop-color="#FCFCFC"/><stop offset=".969" stop-color="#FDFDFD"/><stop offset=".984" stop-color="#FEFEFE"/><stop offset="1" stop-color="#FFF"/></linearGradient><linearGradient id="o" x1="0" x2="0" y1="25.003" y2="74.997" gradientTransform="matrix(1.76773 0 0 -.3402 21.83 59.496)" gradientUnits="userSpaceOnUse"><stop offset="0" stop-color="#E5CCCC"/><stop offset=".016" stop-color="#E6CCCC"/><stop offset=".031" stop-color="#E6CDCD"/><stop offset=".047" stop-color="#E6CECE"/><stop offset=".063" stop-color="#E7CFCF"/><stop offset=".078" stop-color="#E7D0D0"/><stop offset=".094" stop-color="#E8D0D0"/><stop offset=".109" stop-color="#E8D1D1"/><stop offset=".125" stop-color="#E8D2D2"/><stop offset=".141" stop-color="#E9D3D3"/><stop offset=".156" stop-color="#E9D4D4"/><stop offset=".172" stop-color="#EAD4D4"/><stop offset=".188" stop-color="#EAD5D5"/><stop offset=".203" stop-color="#EAD6D6"/><stop offset=".219" stop-color="#EBD7D7"/><stop offset=".234" stop-color="#EBD8D8"/><stop offset=".25" stop-color="#ECD8D8"/><stop offset=".266" stop-color="#ECD9D9"/><stop offset=".281" stop-color="#ECDADA"/><stop offset=".297" stop-color="#EDDBDB"/><stop offset=".313" stop-color="#EDDCDC"/><stop offset=".328" stop-color="#EEDCDC"/><stop offset=".344" stop-color="#EDD"/><stop offset=".359" stop-color="#EEDEDE"/><stop offset=".375" stop-color="#EFDFDF"/><stop offset=".391" stop-color="#EFE0E0"/><stop offset=".406" stop-color="#F0E0E0"/><stop offset=".422" stop-color="#F0E1E1"/><stop offset=".438" stop-color="#F0E2E2"/><stop offset=".453" stop-color="#F1E3E3"/><stop offset=".469" stop-color="#F1E4E4"/><stop offset=".484" stop-color="#F2E4E4"/><stop offset=".5" stop-color="#F2E5E5"/><stop offset=".516" stop-color="#F2E6E6"/><stop offset=".531" stop-color="#F3E7E7"/><stop offset=".547" stop-color="#F3E7E7"/><stop offset=".563" stop-color="#F4E8E8"/><stop offset=".578" stop-color="#F4E9E9"/><stop offset=".594" stop-color="#F4EAEA"/><stop offset=".609" stop-color="#F5EBEB"/><stop offset=".625" stop-color="#F5EBEB"/><stop offset=".641" stop-color="#F6ECEC"/><stop offset=".656" stop-color="#F6EDED"/><stop offset=".672" stop-color="#F6EEEE"/><stop offset=".688" stop-color="#F7EFEF"/><stop offset=".703" stop-color="#F7EFEF"/><stop offset=".719" stop-color="#F8F0F0"/><stop offset=".734" stop-color="#F8F1F1"/><stop offset=".75" stop-color="#F8F2F2"/><stop offset=".766" stop-color="#F9F3F3"/><stop offset=".781" stop-color="#F9F3F3"/><stop offset=".797" stop-color="#FAF4F4"/><stop offset=".813" stop-color="#FAF5F5"/><stop offset=".828" stop-color="#FAF6F6"/><stop offset=".844" stop-color="#FBF7F7"/><stop offset=".859" stop-color="#FBF7F7"/><stop offset=".875" stop-color="#FCF8F8"/><stop offset=".891" stop-color="#FCF9F9"/><stop offset=".906" stop-color="#FCFAFA"/><stop offset=".922" stop-color="#FDFBFB"/><stop offset=".938" stop-color="#FDFBFB"/><stop offset=".953" stop-color="#FEFCFC"/><stop offset=".969" stop-color="#FEFDFD"/><stop offset=".984" stop-color="#FEFEFE"/><stop offset="1" stop-color="#FFF"/></linearGradient></defs><g clip-path="url(#a)"><g clip-path="url(#b)"><path fill="url(#c)" d="M1.273 50.988V33.98h17.008v17.008Zm0 0"/></g></g><path fill="none" stroke="#7F7F7F" stroke-miterlimit="10" stroke-width="1.196" d="M9.777 33.98a8.506 8.506 0 0 0-8.504 8.504c0 4.7 3.809 8.504 8.504 8.504a8.5 8.5 0 0 0 8.504-8.504 8.503 8.503 0 0 0-8.504-8.504Zm0 0"/><use xlink:href="#d" x="7.162" y="45.251"/><g clip-path="url(#e)"><g clip-path="url(#f)"><path fill="url(#g)" d="M33.652 18.613V1.605H50.66v17.008Zm0 0"/></g></g><path fill="none" stroke="#7F7F7F" stroke-miterlimit="10" stroke-width="1.196" d="M42.156 1.605a8.503 8.503 0 0 0-8.504 8.504 8.503 8.503 0 0 0 8.504 8.504 8.506 8.506 0 0 0 8.504-8.504 8.506 8.506 0 0 0-8.504-8.504Zm0 0"/><use xlink:href="#h" x="39.539" y="12.874"/><g clip-path="url(#i)"><g clip-path="url(#j)"><path fill="url(#k)" d="M33.652 83.367V66.36H50.66v17.008Zm0 0"/></g></g><g clip-path="url(#l)"><path fill="none" stroke="#7F7F7F" stroke-miterlimit="10" stroke-width="1.196" d="M42.156 66.36a8.503 8.503 0 0 0-8.504 8.503 8.503 8.503 0 0 0 8.504 8.504 8.506 8.506 0 0 0 8.504-8.504 8.506 8.506 0 0 0-8.504-8.504Zm0 0"/></g><use xlink:href="#m" x="39.539" y="77.627"/><g clip-path="url(#n)"><path fill="url(#o)" d="M66.027 50.988V33.98h88.375v17.008Zm0 0"/></g><path fill="none" stroke="#BF7F7F" stroke-miterlimit="10" stroke-width="1.196" d="M66.027 50.988h88.375V33.98H66.027Zm0 0"/><use xlink:href="#p" x="69.347" y="45.251"/><use xlink:href="#q" x="75.534" y="45.251"/><use xlink:href="#r" x="82.01" y="45.251"/><use xlink:href="#s" x="86.861" y="45.251"/><use xlink:href="#t" x="90.408" y="45.251"/><use xlink:href="#q" x="95.708" y="45.251"/><use xlink:href="#u" x="102.184" y="45.251"/><use xlink:href="#v" x="106.896" y="45.251"/><use xlink:href="#s" x="116.909" y="45.251"/><use xlink:href="#q" x="120.455" y="45.251"/><use xlink:href="#w" x="126.931" y="45.251"/><use xlink:href="#u" x="130.767" y="45.251"/><use xlink:href="#t" x="135.479" y="45.251"/><use xlink:href="#u" x="140.779" y="45.251"/><use xlink:href="#x" x="146.079" y="45.251"/></svg>