<svg xmlns="http://www.w3.org/2000/svg" width="73.158" height="45.776"><defs><clipPath id="a"><path d="M0 5h66v40.664H0Zm0 0"/></clipPath><clipPath id="b"><path d="M51 14h21.738v31.664H51Zm0 0"/></clipPath></defs><g clip-path="url(#a)"><path fill="none" stroke="#000" stroke-miterlimit="10" stroke-width=".399" d="M.688 16.215c24.55-14.176 70.867 3.797 56.695 28.348"/></g><path fill="none" stroke="#7F7F7F" stroke-miterlimit="10" stroke-width=".399" d="M.688 16.215 24.895 2.238"/><path fill="none" stroke="#7F7F7F" stroke-linecap="round" stroke-linejoin="round" stroke-miterlimit="10" stroke-width=".39899202" d="M22.074 1.105c1.047 1.055 2.117 1.22 2.992 1.036-.597.668-.988 1.675-.601 3.105"/><g clip-path="url(#b)"><path fill="none" stroke="#7F7F7F" stroke-miterlimit="10" stroke-width=".399" d="m57.582 44.215 13.973-24.203"/></g><path fill="none" stroke="#7F7F7F" stroke-linecap="round" stroke-linejoin="round" stroke-miterlimit="10" stroke-width=".39899202" d="M60.59 43.79c-1.434-.392-2.442.003-3.11.597.184-.875.02-1.946-1.03-2.989"/></svg>