<svg xmlns="http://www.w3.org/2000/svg" xmlns:xlink="http://www.w3.org/1999/xlink" width="190.271" height="108.92"><defs><path id="c" d="M5.563-1.812c.14 0 .312 0 .312-.172 0-.188-.172-.188-.312-.188H1c-.125 0-.297 0-.297.188 0 .172.172.172.297.172Zm0 0"/><path id="d" d="M2.25-1.625c.125-.125.453-.39.594-.5.484-.453.953-.89.953-1.61 0-.953-.797-1.562-1.781-1.562-.97 0-1.594.719-1.594 1.438 0 .39.312.437.422.437.172 0 .422-.11.422-.422 0-.406-.407-.406-.5-.406.234-.594.765-.781 1.156-.781.734 0 1.125.625 1.125 1.297 0 .828-.578 1.437-1.531 2.39l-1 1.047C.422-.219.422-.203.422 0h3.14l.235-1.422h-.25c-.016.156-.078.547-.172.703-.047.063-.656.063-.781.063H1.172Zm0 0"/><path id="e" d="M2.5-5.078c0-.219-.016-.219-.234-.219-.328.313-.75.5-1.5.5v.266c.218 0 .64 0 1.109-.203v4.078c0 .297-.031.39-.781.39H.812V0c.329-.031 1.016-.031 1.376-.031s1.046 0 1.374.031v-.266h-.28c-.75 0-.782-.093-.782-.39Zm0 0"/><path id="f" d="M3.89-2.547c0-.844-.078-1.36-.343-1.875-.344-.703-1-.875-1.438-.875-1 0-1.375.75-1.484.969C.344-3.75.328-2.953.328-2.547c0 .531.016 1.328.406 1.969.36.594.954.75 1.375.75.391 0 1.063-.125 1.47-.906.296-.578.312-1.297.312-1.813M2.11-.062c-.266 0-.813-.125-.985-.954-.094-.453-.094-1.203-.094-1.625 0-.546 0-1.109.094-1.546.172-.813.781-.891.984-.891.266 0 .829.14.985.86.094.437.094 1.046.094 1.577 0 .47 0 1.188-.094 1.641-.172.828-.719.938-.985.938m0 0"/><path id="g" d="M4.406-3.625a.504.504 0 0 0-.422.484c0 .172.125.329.344.329.25 0 .5-.22.5-.532 0-.422-.453-.625-.875-.625-.531 0-.844.485-.953.672a1.04 1.04 0 0 0-1-.672c-.953 0-1.484 1.156-1.484 1.39 0 .079.062.11.125.11.078 0 .109-.047.125-.11.28-.89.875-1.155 1.218-1.155.266 0 .485.172.485.593 0 .313-.375 1.75-.5 2.188-.063.265-.344.828-.828.828-.188 0-.375-.062-.453-.11.234-.046.421-.265.421-.484 0-.234-.171-.328-.343-.328-.266 0-.5.219-.5.531 0 .438.484.61.859.61.531 0 .828-.422.969-.672.219.594.75.672.984.672.969 0 1.485-1.156 1.485-1.375 0-.047-.032-.11-.11-.11-.11 0-.11.032-.156.172-.203.64-.719 1.094-1.188 1.094-.25 0-.5-.156-.5-.594 0-.203.125-.687.204-1.031.046-.156.28-1.125.296-1.187.11-.329.375-.797.844-.797.156 0 .328.015.453.109m0 0"/><path id="k" d="M4.031-6.375c.063-.125.063-.14.063-.156 0-.11-.094-.203-.188-.203-.125 0-.172.078-.172.093L.563 1.891c-.047.125-.047.14-.047.156 0 .11.078.203.187.203.094 0 .156-.047.219-.219Zm0 0"/><path id="n" d="M1.234-2.047c.547 0 1.125 0 1.594-.125.844-.203 1-.703 1-1.015 0-.5-.469-.782-1-.782-1.047 0-2.406.89-2.406 2.422 0 .86.5 1.64 1.469 1.64 1.343 0 2.093-.921 2.093-1.046 0-.047-.062-.125-.125-.125-.03 0-.046.016-.125.11-.546.656-1.359.843-1.828.843-.625 0-.797-.594-.797-1.047 0-.016 0-.328.125-.875m.063-.234c.39-1.406 1.39-1.453 1.531-1.453.297 0 .672.14.672.547 0 .906-1.36.906-2.203.906m0 0"/><path id="h" d="m1.656-6.219-1.328.094v.281c.61 0 .688.063.688.5v4.657c0 .406-.094.406-.688.406V0c.422-.016.594-.031 1-.031.422 0 .578.015 1.016.031v-.281c-.594 0-.688 0-.688-.406Zm0 0"/><path id="i" d="M4.344-1.906c0-1.172-.938-2.11-2.032-2.11-1.14 0-2.046.954-2.046 2.11 0 1.11.922 2 2.03 2 1.142 0 2.048-.906 2.048-2M2.312-.156c-.453 0-.828-.219-1.03-.563-.235-.39-.25-.86-.25-1.265 0-.344 0-.844.218-1.22a1.22 1.22 0 0 1 1.047-.593c.515 0 .875.297 1.062.594.204.375.204.828.204 1.219 0 .328 0 .843-.22 1.234a1.18 1.18 0 0 1-1.03.594m0 0"/><path id="j" d="M1.125-1.61c.219.141.5.282.906.282.86 0 1.5-.61 1.5-1.313 0-.437-.25-.75-.36-.875.36-.328.782-.328.876-.328-.031.031-.11.078-.11.235 0 .109.063.265.266.265.125 0 .266-.078.266-.265a.457.457 0 0 0-.485-.453c-.25 0-.656.093-.968.421a1.54 1.54 0 0 0-.97-.328c-.858 0-1.5.61-1.5 1.328 0 .454.266.782.407.907a1.26 1.26 0 0 0-.265.75c0 .297.14.625.39.78C.625-.046.266.282.266.704c0 .64.875 1.14 2.03 1.14 1.11 0 2.048-.468 2.048-1.155 0-.375-.172-.766-.5-.985-.5-.312-1.031-.312-1.875-.312-.188 0-.469 0-.547-.016C1.172-.687 1-.922 1-1.203c0-.156.047-.281.125-.406m.906.048c-.797 0-.797-.891-.797-1.079 0-.25.016-.546.172-.765a.8.8 0 0 1 .625-.313c.813 0 .813.86.813 1.078 0 .204 0 1.079-.813 1.079m.422 1.515c.281 0 1.39.016 1.39.735 0 .515-.702.921-1.53.921-.891 0-1.547-.421-1.547-.921 0-.141.093-.735.859-.735Zm0 0"/><path id="l" d="M4.14-1.594h-.25c-.015.125-.093.657-.203.797-.062.078-.671.078-.859.078H1.234l.891-.843c1.469-1.266 2.016-1.75 2.016-2.657 0-1.031-.844-1.75-1.953-1.75-1.032 0-1.735.813-1.735 1.625 0 .453.39.5.469.5.203 0 .469-.14.469-.469a.45.45 0 0 0-.47-.468c-.046 0-.062 0-.109.015.22-.64.797-.921 1.282-.921.906 0 1.219.843 1.219 1.468 0 .907-.688 1.657-1.11 2.125L.563-.328c-.11.11-.11.125-.11.328h3.438Zm0 0"/><path id="m" d="M3.219-1.125H3c-.016.094-.078.484-.156.547-.047.047-.531.047-.625.047h-1.11l.766-.625c.203-.172.734-.547.922-.735.172-.171.422-.484.422-.906 0-.75-.672-1.187-1.485-1.187-.765 0-1.296.515-1.296 1.078 0 .297.25.344.312.344a.32.32 0 0 0 .328-.329c0-.125-.078-.328-.344-.328.141-.297.5-.531.922-.531.625 0 .953.469.953.953 0 .422-.28.86-.687 1.25L.5-.25C.438-.187.438-.187.438 0H3.03Zm0 0"/><path id="o" d="M3.375-2.36a.34.34 0 0 0-.266.329c0 .187.157.234.235.234.187 0 .36-.14.36-.375 0-.328-.36-.469-.657-.469-.406 0-.64.313-.703.422-.078-.156-.313-.422-.766-.422-.687 0-1.094.72-1.094.922 0 .032.032.078.11.078.094 0 .11-.03.125-.078.156-.484.562-.718.844-.718.296 0 .39.187.39.39 0 .063 0 .125-.047.313-.14.547-.265 1.093-.297 1.172-.093.218-.312.421-.562.421-.031 0-.203 0-.344-.093C.938-.312.97-.5.97-.547c0-.156-.125-.234-.25-.234-.156 0-.344.125-.344.375 0 .344.375.469.656.469.344 0 .594-.235.703-.422.125.25.407.422.75.422.704 0 1.094-.735 1.094-.922 0-.016 0-.094-.11-.094-.077 0-.093.047-.109.11-.171.515-.593.702-.859.702-.219 0-.375-.125-.375-.375 0-.125.016-.25.078-.453l.188-.781c.062-.234.093-.344.218-.484a.57.57 0 0 1 .422-.203c.031 0 .203 0 .344.078m0 0"/><clipPath id="a"><path d="M61 1h1v107.879h-1Zm0 0"/></clipPath><clipPath id="b"><path d="M57 38h66v70.879H57Zm0 0"/></clipPath></defs><path fill="none" stroke="#000" stroke-linecap="round" stroke-miterlimit="10" stroke-width=".399" d="M18.746 68.207v-3.988M40.008 68.207v-3.988M82.527 68.207v-3.988M103.785 68.207v-3.988M59.273 87.473h3.985M59.273 44.953h3.985M59.273 23.691h3.985"/><path fill="none" stroke="#000" stroke-miterlimit="10" stroke-width=".399" d="M.645 66.215h120.843"/><path fill="none" stroke="#000" stroke-linecap="round" stroke-linejoin="round" stroke-miterlimit="10" stroke-width=".399" d="M119.617 63.82c.38 1.438 1.223 2.114 2.07 2.395-.847.277-1.69.953-2.07 2.39"/><g clip-path="url(#a)"><path fill="none" stroke="#000" stroke-miterlimit="10" stroke-width=".399" d="M61.266 107.875V1.359"/></g><path fill="none" stroke="#000" stroke-linecap="round" stroke-linejoin="round" stroke-miterlimit="10" stroke-width=".399" d="M58.875 3.23c1.434-.375 2.113-1.218 2.39-2.07.282.852.958 1.695 2.391 2.07"/><path fill="none" stroke="#000" stroke-dasharray="2.98885 0.89665 0.89665 0.89665" stroke-miterlimit="10" stroke-width=".598" d="M8.117 64.469s2.238-.192 3.102-.274c.86-.082 2.238-.222 3.097-.316a173.61 173.61 0 0 0 6.203-.793c.86-.125 2.239-.344 3.098-.488.86-.149 2.242-.403 3.102-.57.86-.173 2.238-.462 3.101-.657.86-.2 2.239-.535 3.098-.762a99 99 0 0 0 3.102-.879c.859-.265 2.238-.714 3.101-1.02.86-.304 2.238-.823 3.098-1.179a69 69 0 0 0 3.101-1.363 70 70 0 0 0 3.102-1.578 64 64 0 0 0 3.098-1.824 61 61 0 0 0 3.101-2.11c.86-.629 2.238-1.71 3.102-2.441.859-.73 2.238-1.98 3.097-2.828a72 72 0 0 0 3.102-3.262 80 80 0 0 0 3.101-3.781 94 94 0 0 0 3.098-4.375 105 105 0 0 0 3.102-5.063c.859-1.515 2.242-4.105 3.101-5.855.86-1.754 2.239-4.75 3.098-6.778.863-2.027 3.101-7.84 3.101-7.84"/><path fill="none" stroke="#000" stroke-dasharray="0.89665 0.89665" stroke-miterlimit="10" stroke-width=".598" d="M29.375 18.379s1.922 5.613 2.66 7.64a284 284 0 0 0 2.656 6.977 226 226 0 0 0 2.657 6.309 166 166 0 0 0 2.66 5.648 118 118 0 0 0 2.656 4.984 92 92 0 0 0 2.656 4.317 63 63 0 0 0 2.66 3.656c.735.918 1.918 2.25 2.657 2.988.738.739 1.918 1.774 2.656 2.325.738.554 1.922 1.293 2.66 1.66.734.37 1.918.812 2.656.996a13 13 0 0 0 2.657.336c.738 0 1.922-.149 2.66-.336.734-.184 1.918-.625 2.656-.996.738-.367 1.918-1.106 2.656-1.66.739-.551 1.922-1.586 2.657-2.325.738-.738 1.921-2.07 2.66-2.988.738-.922 1.918-2.55 2.656-3.656a86 86 0 0 0 2.656-4.317 123 123 0 0 0 2.66-4.984 166 166 0 0 0 2.657-5.648 205 205 0 0 0 2.656-6.309c.738-1.844 1.922-4.95 2.66-6.976.738-2.028 2.656-7.641 2.656-7.641"/><path fill="none" stroke="#000" stroke-dasharray="2.98885 1.19554" stroke-miterlimit="10" stroke-width=".598" d="M18.746 87.473s2.879-1.442 3.988-1.993c1.106-.554 2.88-1.44 3.985-1.992l3.988-1.996c1.105-.55 2.879-1.437 3.984-1.992 1.106-.55 2.88-1.441 3.989-1.992 1.105-.555 2.879-1.442 3.984-1.992l3.984-1.996c1.11-.551 2.883-1.438 3.989-1.993 1.105-.55 2.879-1.437 3.984-1.992l3.988-1.992c1.106-.555 2.88-1.441 3.985-1.996 1.11-.55 2.883-1.438 3.988-1.992 1.106-.551 2.879-1.438 3.984-1.993l3.989-1.992c1.105-.554 2.879-1.441 3.984-1.996 1.106-.55 2.883-1.437 3.988-1.992 1.106-.55 2.88-1.437 3.985-1.992s2.883-1.442 3.988-1.992c1.105-.555 2.879-1.442 3.984-1.993 1.106-.554 2.883-1.44 3.989-1.996 1.105-.55 2.879-1.437 3.984-1.992 1.106-.555 2.879-1.441 3.988-1.992 1.106-.555 2.88-1.441 3.985-1.992 1.105-.555 3.988-1.996 3.988-1.996"/><g clip-path="url(#b)"><path fill="none" stroke="#000" stroke-miterlimit="10" stroke-width=".598" d="M65.52 100.402s1.472-6.316 2.035-8.297c.566-1.976 1.472-4.488 2.039-5.96.566-1.473 1.472-3.477 2.035-4.653a68 68 0 0 1 2.039-3.82 68 68 0 0 1 2.035-3.23 65 65 0 0 1 2.04-2.81 74 74 0 0 1 2.034-2.476 67 67 0 0 1 2.04-2.219 82 82 0 0 1 2.035-2.011 72 72 0 0 1 2.039-1.836 87 87 0 0 1 2.039-1.692 81 81 0 0 1 2.035-1.562 94 94 0 0 1 2.039-1.461c.562-.39 1.469-.996 2.035-1.363s1.473-.934 2.04-1.282c.562-.343 1.472-.882 2.034-1.207.567-.328 1.473-.836 2.04-1.144.566-.309 1.472-.79 2.034-1.086.567-.293 1.473-.754 2.04-1.035a138 138 0 0 1 2.035-.985c.566-.265 1.472-.683 2.039-.941.566-.254 1.472-.656 2.035-.902.566-.246 1.473-.63 2.039-.864s2.04-.832 2.04-.832"/></g><use xlink:href="#c" x="13.338" y="75.998"/><use xlink:href="#d" x="19.924" y="75.998"/><use xlink:href="#c" x="34.596" y="75.998"/><use xlink:href="#e" x="41.184" y="75.998"/><use xlink:href="#e" x="80.409" y="75.998"/><use xlink:href="#d" x="101.669" y="75.998"/><use xlink:href="#c" x="45.797" y="89.625"/><use xlink:href="#e" x="52.385" y="89.625"/><use xlink:href="#f" x="54.377" y="74.005"/><use xlink:href="#e" x="52.385" y="47.521"/><use xlink:href="#d" x="52.385" y="26.262"/><use xlink:href="#g" x="125.407" y="68.143"/><use xlink:href="#h" x="170.643" y="39.753"/><use xlink:href="#i" x="173.203" y="39.753"/><use xlink:href="#j" x="177.811" y="39.753"/><use xlink:href="#g" x="184.083" y="39.753"/><path fill="none" stroke="#000" stroke-miterlimit="10" stroke-width=".598" d="M145.738 37.54s2.91-1.509 4.985-1.325c2.07.183 7.886 2.469 9.96 2.652s4.981-1.328 4.981-1.328"/><use xlink:href="#g" x="170.643" y="50.712"/><use xlink:href="#k" x="175.867" y="50.712"/><use xlink:href="#l" x="180.475" y="50.712"/><path fill="none" stroke="#000" stroke-dasharray="2.98885 1.19554" stroke-miterlimit="10" stroke-width=".598" d="M145.738 48.5s2.91-1.512 4.985-1.328c2.07.183 7.886 2.473 9.96 2.656s4.981-1.328 4.981-1.328"/><use xlink:href="#g" x="170.643" y="62.607"/><use xlink:href="#m" x="175.867" y="58.798"/><path fill="none" stroke="#000" stroke-dasharray="0.89665 0.89665" stroke-miterlimit="10" stroke-width=".598" d="M145.738 60.395s2.91-1.512 4.985-1.329c2.07.188 7.886 2.473 9.96 2.657 2.075.183 4.981-1.328 4.981-1.328"/><use xlink:href="#n" x="170.643" y="73.566"/><use xlink:href="#o" x="174.928" y="69.757"/><path fill="none" stroke="#000" stroke-dasharray="2.98885 0.89665 0.89665 0.89665" stroke-miterlimit="10" stroke-width=".598" d="M145.738 71.355s2.91-1.511 4.985-1.328c2.07.184 7.886 2.47 9.96 2.653s4.981-1.325 4.981-1.325"/></svg>