<svg xmlns="http://www.w3.org/2000/svg" width="115.598" height="88.652"><defs><clipPath id="a"><path d="M0 0h106v88.477H0Zm0 0"/></clipPath></defs><path fill="none" stroke="#7F7F7F" stroke-miterlimit="10" stroke-width=".199" d="M.906 80.965h113.39M.907 52.617h113.39M.907 24.281h113.39M.907 80.965V24.27m28.348 56.695V24.27m28.348 56.695V24.27m28.347 56.695V24.27m28.336 56.695V24.27"/><g clip-path="url(#a)"><path fill="none" stroke="#000" stroke-miterlimit="10" stroke-width=".399" d="m.906 52.617 1.004-.035 1.004-.105 1-.176 1.004-.246 1-.317 1.004-.386 1-.454 1.004-.52 1-.581 1.004-.649 1.004-.71 1-.77 1.004-.828 1-.887 1.003-.937 1-.993 1.004-1.039 1-1.086 1.004-1.128 1.004-1.172 1-1.207 1.004-1.243 1-1.273 1.004-1.3 1-1.329 1.004-1.348 1-1.363 1.004-1.375 1-1.387 1.004-1.39 1.004-1.395 1-1.39 1.003-1.387 1-1.375 1.004-1.363 1-1.34 1.004-1.324 1-1.293 1.004-1.266 1.004-1.227 1-1.191L43 10.684l1-1.106 1.004-1.05 1-.997 1.004-.941 1-.88 1.004-.812 1-.746 1.004-.675 1.004-.598 1-.52 1.003-.437 1-.352 1.004-.27 1-.175 1.004-.082 1.004.012 1 .105 1.004.211 1 .305 1.004.414 1 .515 1.004.622 1 .726 1.004.84 1 .945 1.004 1.051 1.004 1.164 1 1.277 1.004 1.383 1 1.492 1.003 1.606 1 1.71 1.004 1.817 1.004 1.926 1 2.031 1.004 2.137 1 2.238 1.004 2.336 1 2.438 1.004 2.531 1 2.629 1.004 2.715 1 2.804 1.004 2.887 1.004 2.973 1 3.047 1.004 3.12 1 3.196 1.003 3.258 1 3.32 1.004 3.38 1 3.433 1.004 3.476 1.004 3.528 1 3.558 1.004 3.598 1 3.625"/></g></svg>