<svg xmlns="http://www.w3.org/2000/svg" xmlns:xlink="http://www.w3.org/1999/xlink" width="193.736" height="103.52"><defs><path id="a" d="M5.563-1.812c.14 0 .312 0 .312-.172 0-.188-.172-.188-.312-.188H1c-.125 0-.297 0-.297.188 0 .172.172.172.297.172Zm0 0"/><path id="b" d="M2.5-5.078c0-.219-.016-.219-.234-.219-.328.313-.75.5-1.5.5v.266c.218 0 .64 0 1.109-.203v4.078c0 .297-.031.39-.781.39H.812V0c.329-.031 1.016-.031 1.376-.031s1.046 0 1.374.031v-.266h-.28c-.75 0-.782-.093-.782-.39Zm0 0"/><path id="c" d="M3.89-2.547c0-.844-.078-1.36-.343-1.875-.344-.703-1-.875-1.438-.875-1 0-1.375.75-1.484.969C.344-3.75.328-2.953.328-2.547c0 .531.016 1.328.406 1.969.36.594.954.75 1.375.75.391 0 1.063-.125 1.47-.906.296-.578.312-1.297.312-1.813M2.11-.062c-.266 0-.813-.125-.985-.954-.094-.453-.094-1.203-.094-1.625 0-.546 0-1.109.094-1.546.172-.813.781-.891.984-.891.266 0 .829.14.985.86.094.437.094 1.046.094 1.577 0 .47 0 1.188-.094 1.641-.172.828-.719.938-.985.938m0 0"/><path id="e" d="M1.11-4.484c.109.03.421.125.765.125 1 0 1.594-.703 1.594-.828 0-.094-.047-.11-.094-.11-.016 0-.031 0-.094.031a3 3 0 0 1-1.11.22c-.468 0-.858-.11-1.108-.22-.079-.03-.094-.03-.11-.03-.094 0-.094.077-.094.234v2.328c0 .14 0 .234.125.234.063 0 .079-.031.125-.094.094-.11.391-.515 1.079-.515.437 0 .656.359.734.515.125.281.14.656.14.953s0 .735-.218 1.079c-.156.25-.485.484-.906.484A1.27 1.27 0 0 1 .734-.922c.016.016.079.016.079.016.218 0 .406-.14.406-.39a.39.39 0 0 0-.39-.407c-.157 0-.407.078-.407.422 0 .718.625 1.453 1.531 1.453 1 0 1.844-.781 1.844-1.766 0-.922-.672-1.75-1.61-1.75-.39 0-.765.125-1.078.406Zm0 0"/><path id="f" d="M4.031-4.86c.078-.077.078-.093.078-.265H2.08a9 9 0 0 1-.642-.031c-.421-.032-.421-.11-.453-.235h-.25L.47-3.703h.25c.015-.125.11-.672.219-.735.078-.046.687-.046.796-.046h1.688l-.813 1.109C1.703-2.172 1.5-.906 1.5-.281c0 .078 0 .453.375.453s.375-.36.375-.453v-.39c0-1.141.203-2.079.594-2.61Zm0 0"/><path id="g" d="M2.25-1.625c.125-.125.453-.39.594-.5.484-.453.953-.89.953-1.61 0-.953-.797-1.562-1.781-1.562-.97 0-1.594.719-1.594 1.438 0 .39.312.437.422.437.172 0 .422-.11.422-.422 0-.406-.407-.406-.5-.406.234-.594.765-.781 1.156-.781.734 0 1.125.625 1.125 1.297 0 .828-.578 1.437-1.531 2.39l-1 1.047C.422-.219.422-.203.422 0h3.14l.235-1.422h-.25c-.016.156-.078.547-.172.703-.047.063-.656.063-.781.063H1.172Zm0 0"/><path id="d" d="M1.625-.437a.463.463 0 0 0-.453-.454.447.447 0 0 0-.438.438.44.44 0 0 0 .438.453.45.45 0 0 0 .453-.437m0 0"/><path id="h" d="M5.531-1.984c0-1.188-.812-2.047-2.172-2.047-.718 0-1.218.297-1.39.422v-.422L.375-3.97v.438c.172 0 .313 0 .438.031.171.031.171.125.171.313v4.484H.375v.437L1.5 1.72l1.14.015v-.437h-.609v-1.64c.531.39 1.016.39 1.188.39 1.406 0 2.312-.844 2.312-2.031M4.344-2c0 1.25-.64 1.688-1.235 1.688-.453 0-.843-.25-1.078-.625v-2.157a1.55 1.55 0 0 1 1.188-.562c.625 0 1.125.562 1.125 1.656m0 0"/><path id="i" d="M5-1.953c0-1.172-.828-2.11-2.344-2.11-1.578 0-2.36.985-2.36 2.11 0 1.11.813 2 2.345 2C4.25.047 5-.891 5-1.953m-1.187-.094c0 .766 0 1.719-1.157 1.719-1.172 0-1.172-.953-1.172-1.719 0-.765 0-1.656 1.157-1.656 1.172 0 1.172.89 1.172 1.656m0 0"/><path id="j" d="M2.688 0v-.437h-.61V-6.22l-1.61.063v.437c.532 0 .61 0 .61.36v4.922h-.61V0l1.095-.031Zm0 0"/><path id="k" d="M5.344-3.547v-.437c-.25.03-.469.03-.719.03-.281 0-.547-.015-.812-.03v.437s.39 0 .39.11c0 0 0 .015-.047.109L3.094-1.141 1.922-3.547h.469v-.437l-1.11.03c-.328 0-.5 0-1.031-.03v.437h.563L2.53 0c-.312.734-.64 1.438-1.344 1.438-.046 0-.109 0-.171-.032.156-.078.265-.234.265-.468 0-.344-.25-.532-.531-.532-.297 0-.547.188-.547.532 0 .484.453.859.984.859.704 0 1.25-.516 1.532-1.11l1.969-4.03c.062-.141.093-.204.656-.204m0 0"/><path id="l" d="M5.156-3.547c0-.234-.172-.547-.593-.547-.438 0-.813.219-.985.344-.375-.219-.781-.281-1.219-.281-1.375 0-1.843.734-1.843 1.328 0 .484.312.812.468.937a1.25 1.25 0 0 0-.296.782c0 .39.187.703.375.875C.39.078.297.453.297.656c0 .532.625 1.14 2.344 1.14C4.219 1.797 5 1.313 5 .626c0-.312-.11-.86-.734-1.156C3.75-.766 3.28-.766 2.39-.766h-.453c-.282 0-.407 0-.563-.109a.56.56 0 0 1-.203-.453c0-.172.062-.281.062-.281.329.172.735.234 1.125.234 1.375 0 1.844-.734 1.844-1.328 0-.36-.172-.656-.36-.844.235-.125.423-.14.532-.172 0 .047-.031.094-.031.188a.407.407 0 1 0 .813-.016m-1.984.844c0 .39 0 .969-.813.969s-.812-.578-.812-.97c0-.405 0-.968.812-.968s.813.563.813.969M4.203.657c0 .296-.328.78-1.547.78C1.47 1.438 1.094 1 1.094.642c0-.516.578-.516.703-.516H2.89c.28 0 1.312 0 1.312.531m0 0"/><path id="m" d="M5.656 0v-.437h-.61v-2.297c0-1.063-.655-1.297-1.437-1.297-1.093 0-1.53.797-1.593.937H2v-.937L.453-3.97v.438c.531 0 .61 0 .61.36v2.734h-.61V0l1.125-.031L2.718 0v-.437H2.11v-1.844c0-1 .829-1.39 1.36-1.39.344 0 .515.187.515.858v2.376h-.609V0l1.14-.031Zm0 0"/><path id="n" d="M4.406-1.047c0-.14-.125-.14-.234-.14-.172 0-.172.015-.25.171-.172.438-.578.688-1.11.688-1.265 0-1.265-1.297-1.265-1.703 0-.531 0-1.64 1.172-1.64.078 0 .562 0 .562.046l-.031.047a.6.6 0 0 0-.125.375c0 .36.281.578.594.578a.57.57 0 0 0 .578-.594c0-.844-1.25-.844-1.61-.844C.97-4.062.345-2.968.345-1.983c0 1.125.812 2.03 2.297 2.03.343 0 .78-.046 1.156-.28.515-.313.61-.782.61-.813m0 0"/><path id="o" d="M2.625 0v-.437h-.547v-3.594L.5-3.97v.438c.516 0 .578 0 .578.36v2.734h-.61V0c.595-.016.72-.031 1.095-.031.437 0 .546.015 1.062.031m-.453-5.422a.713.713 0 0 0-.703-.719.71.71 0 0 0-.703.704.7.7 0 0 0 .703.703.697.697 0 0 0 .703-.688m0 0"/><path id="p" d="M4.078-3.281c0-.453-.469-.75-1-.75-.625 0-1 .453-1.203.968h-.016v-.968L.375-3.97v.438c.531 0 .61 0 .61.36v2.734h-.61V0l1.14-.031c.22 0 .75 0 1.22.031v-.437h-.766v-1.516c0-.656.25-1.703 1.11-1.719a.57.57 0 0 0-.142.39c0 .391.313.579.563.579.297 0 .578-.203.578-.578m0 0"/><path id="q" d="M4.563-1.047c0-.172-.172-.172-.235-.172-.156 0-.172.047-.234.172-.203.469-.75.719-1.313.719-1.281 0-1.297-1.156-1.297-1.594h2.782c.187 0 .297 0 .297-.25 0-.203-.016-1-.594-1.484-.406-.328-.953-.406-1.39-.406-1.532 0-2.282.968-2.282 2.046 0 1.172.89 2.063 2.406 2.063 1.485 0 1.86-.938 1.86-1.094M3.688-2.25H1.483c.016-.406.063-1.453 1.094-1.453 1.047 0 1.094 1.094 1.11 1.453m0 0"/></defs><path fill="none" stroke="#7F7F7F" stroke-linecap="round" stroke-miterlimit="10" stroke-width=".399" d="M31.441 94.324v-1.992M52.703 94.324v-1.992M73.965 94.324v-1.992M95.223 94.324v-1.992M116.484 94.324v-1.992M24.469 78.363h1.992M24.469 67.188h1.992M24.469 56.008h1.992M24.469 44.832h1.992M24.469 33.656h1.992M24.469 22.477h1.992M24.469 11.3h1.992"/><path fill="none" stroke="#7F7F7F" stroke-miterlimit="10" stroke-width=".399" d="M31.441 92.332h85.043"/><path fill="none" stroke="#BFBFBF" stroke-linecap="square" stroke-miterlimit="10" stroke-width=".399" d="M31.441 87.352h85.043M31.441 2.313h85.043"/><path fill="none" stroke="#7F7F7F" stroke-miterlimit="10" stroke-width=".399" d="M26.46 87.352V2.312"/><path fill="none" stroke="#BFBFBF" stroke-linecap="square" stroke-miterlimit="10" stroke-width=".399" d="M31.441 87.352V2.312M116.484 87.352V2.312"/><path fill="none" stroke="#000" stroke-miterlimit="10" stroke-width=".598" d="m31.441 22.477 85.043 11.18"/><path fill="none" stroke="#000" stroke-miterlimit="10" stroke-width=".399" d="M31.441 20.484v1.993m1.727.996-1.727-.996m-1.722.996 1.722-.996M116.484 31.664v1.992m1.723.996-1.723-.996m-1.726.996 1.726-.996"/><path fill="none" stroke="#000" stroke-miterlimit="10" stroke-width=".598" d="M106.82 35.574c-.632-2.48-2.175-6.398-3.398-8.625-1.223-2.222-3.68-5.59-5.406-7.406-1.727-1.816-4.93-4.398-7.043-5.684-2.118-1.285-5.848-2.906-8.207-3.574-2.36-.664-6.36-1.219-8.801-1.219-2.445 0-6.445.555-8.805 1.22-2.36.663-6.086 2.288-8.203 3.573-2.117 1.282-5.316 3.868-7.047 5.684-1.726 1.816-4.183 5.18-5.402 7.406-1.223 2.223-2.766 6.145-3.399 8.625-.632 2.48-1.16 6.688-1.16 9.258-.004 2.566.524 6.773 1.156 9.254.633 2.48 2.176 6.402 3.399 8.625 1.223 2.227 3.68 5.594 5.406 7.41 1.727 1.817 4.93 4.399 7.043 5.684 2.117 1.285 5.844 2.906 8.203 3.574 2.36.664 6.364 1.219 8.805 1.219s6.441-.555 8.8-1.22c2.364-.663 6.09-2.288 8.208-3.57 2.113-1.285 5.316-3.867 7.043-5.683 1.73-1.816 4.187-5.184 5.406-7.41 1.223-2.223 2.77-6.145 3.402-8.625.63-2.48.996-7.969 1.16-9.254.16-1.285.16 1.281 0-.004-.164-1.285-.527-6.773-1.16-9.258Zm0 0"/><path fill="none" stroke="#000" stroke-miterlimit="10" stroke-width=".399" d="M105.988 44.832h3.985m-1.993-1.992v3.984M104.828 35.574h3.984m-1.992-1.992v3.988M101.43 26.95h3.984m-1.992-1.993v3.984M96.023 19.543h3.985m-1.992-1.992v3.984M88.98 13.86h3.985m-1.992-1.993v3.985M80.773 10.285h3.985m-1.992-1.992v3.984M71.969 9.066h3.988m-1.992-1.992v3.985M63.168 10.285h3.984M65.16 8.293v3.984M54.965 13.86h3.984m-1.992-1.993v3.985M47.918 19.543h3.988m-1.996-1.996v3.988M42.512 26.95H46.5m-1.992-1.993v3.984M39.117 35.574h3.985m-1.993-1.992v3.984M37.953 44.832h3.988M39.95 42.84v3.984M39.113 54.086h3.985m-1.993-1.992v3.984M42.512 62.71h3.984m-1.992-1.991v3.988M47.918 70.121h3.984M49.91 68.13v3.984M54.96 75.805h3.985m-1.992-1.993v3.985M63.164 79.379h3.984m-1.992-1.992v3.984M71.969 80.598h3.984m-1.992-1.993v3.985M80.77 79.379h3.988m-1.996-1.992v3.984M88.977 75.809h3.984m-1.992-1.996V77.8M96.02 70.125h3.984m-1.992-1.992v3.984M101.426 62.715h3.984m-1.992-1.992v3.988M104.824 54.09h3.989m-1.993-1.992v3.984M105.984 44.836h3.989m-1.993-1.992v3.984"/><path fill="none" stroke="#000" stroke-miterlimit="10" stroke-width=".598" d="M116.484 44.832 87.102 2.312l-47.54 16.243v52.554l47.54 16.243Zm0 0"/><path fill="none" stroke="#000" stroke-miterlimit="10" stroke-width=".399" d="m115.074 46.242 2.817-2.82m-2.817 0 2.817 2.82M85.695 3.723l2.817-2.82m-2.817 0 2.817 2.82M38.156 19.96l2.817-2.815m-2.817 0 2.817 2.816M38.156 72.52l2.817-2.817m-2.817 0 2.817 2.817M85.695 88.762l2.817-2.82m-2.817 0 2.817 2.82"/><use xlink:href="#a" x="26.033" y="102.118"/><use xlink:href="#b" x="32.62" y="102.118"/><use xlink:href="#a" x="44" y="102.118"/><use xlink:href="#c" x="50.586" y="102.118"/><use xlink:href="#d" x="54.82" y="102.118"/><use xlink:href="#e" x="57.173" y="102.118"/><use xlink:href="#c" x="71.846" y="102.118"/><use xlink:href="#c" x="89.812" y="102.118"/><use xlink:href="#d" x="94.047" y="102.118"/><use xlink:href="#e" x="96.399" y="102.118"/><use xlink:href="#b" x="114.365" y="102.118"/><use xlink:href="#a" x=".172" y="80.516"/><use xlink:href="#c" x="6.759" y="80.516"/><use xlink:href="#d" x="10.993" y="80.516"/><use xlink:href="#f" x="13.345" y="80.516"/><use xlink:href="#e" x="17.58" y="80.516"/><use xlink:href="#a" x="4.406" y="69.339"/><use xlink:href="#c" x="10.993" y="69.339"/><use xlink:href="#d" x="15.227" y="69.339"/><use xlink:href="#e" x="17.579" y="69.339"/><use xlink:href="#a" x=".172" y="58.162"/><use xlink:href="#c" x="6.759" y="58.162"/><use xlink:href="#d" x="10.993" y="58.162"/><use xlink:href="#g" x="13.345" y="58.162"/><use xlink:href="#e" x="17.58" y="58.162"/><use xlink:href="#c" x="17.579" y="47.401"/><use xlink:href="#c" x="6.759" y="36.224"/><use xlink:href="#d" x="10.993" y="36.224"/><use xlink:href="#g" x="13.345" y="36.224"/><use xlink:href="#e" x="17.58" y="36.224"/><use xlink:href="#c" x="10.993" y="25.047"/><use xlink:href="#d" x="15.227" y="25.047"/><use xlink:href="#e" x="17.579" y="25.047"/><use xlink:href="#c" x="6.759" y="13.87"/><use xlink:href="#d" x="10.993" y="13.87"/><use xlink:href="#f" x="13.345" y="13.87"/><use xlink:href="#e" x="17.58" y="13.87"/><use xlink:href="#h" x="156.287" y="43.707"/><use xlink:href="#i" x="162.474" y="43.707"/><use xlink:href="#j" x="167.782" y="43.707"/><use xlink:href="#k" x="170.732" y="43.707"/><use xlink:href="#l" x="176.336" y="43.707"/><use xlink:href="#i" x="181.644" y="43.707"/><use xlink:href="#m" x="186.952" y="43.707"/><path fill="none" stroke="#000" stroke-miterlimit="10" stroke-width=".598" d="m150.313 41.496-2.625-1.098-6.34-.453-6.34.453-2.63 1.098 2.63 1.094 6.34.453 6.34-.453Zm0 0"/><path fill="none" stroke="#000" stroke-miterlimit="10" stroke-width=".399" d="m135.457 41.563 2.816-2.817m-2.816 0 2.816 2.816M144.422 44.246l2.816-2.82m-2.816 0 2.816 2.82"/><use xlink:href="#n" x="156.287" y="54.666"/><use xlink:href="#o" x="161.003" y="54.666"/><use xlink:href="#p" x="163.953" y="54.666"/><use xlink:href="#n" x="168.329" y="54.666"/><use xlink:href="#j" x="173.045" y="54.666"/><use xlink:href="#q" x="175.995" y="54.666"/><path fill="none" stroke="#000" stroke-miterlimit="10" stroke-width=".598" d="M147.688 51.36c-1.243-.215-4.583-.454-6.34-.454-1.762 0-5.098.239-6.34.453-1.246.215-2.63.79-2.63 1.094s1.384.879 2.63 1.094c1.242.215 4.578.457 6.34.457 1.757 0 5.097-.242 6.34-.457s2.625-.79 2.625-1.094-1.383-.879-2.625-1.094Zm0 0"/><path fill="none" stroke="#000" stroke-miterlimit="10" stroke-width=".399" d="M134.871 51.113h3.984m-1.992-1.992v3.984M143.84 53.793h3.984m-1.992-1.992v3.988"/><use xlink:href="#j" x="156.287" y="65.625"/><use xlink:href="#o" x="159.237" y="65.625"/><use xlink:href="#m" x="162.187" y="65.625"/><use xlink:href="#q" x="168.078" y="65.625"/><path fill="none" stroke="#000" stroke-miterlimit="10" stroke-width=".598" d="m131.383 63.414 4.984-1.328 9.961 2.652 4.98-1.324"/><path fill="none" stroke="#000" stroke-miterlimit="10" stroke-width=".399" d="M136.367 60.094v1.992m1.723.996-1.723-.996m-1.726.996 1.726-.996M146.328 62.746v1.992m1.727.996-1.727-.996m-1.726.996 1.726-.996"/></svg>