<svg xmlns="http://www.w3.org/2000/svg" xmlns:xlink="http://www.w3.org/1999/xlink" width="87.248" height="58.988"><defs><path id="b" d="m11.484-5.75-.312-.625-1.438.719-3.953-7.906 1.438-.72-.313-.64c-.484.297-1.797.969-2.375 1.25-.562.281-1.875.938-2.406 1.14l.313.641 1.437-.718 1.734 3.453L1.33-7l-1.735-3.453 1.453-.735-.313-.64c-.5.312-1.796.953-2.39 1.25-.578.281-1.875.937-2.407 1.14l.313.641 1.453-.719 3.953 7.907-1.453.718.313.625c.5-.296 1.797-.953 2.375-1.234.593-.297 1.89-.937 2.422-1.156L5-3.281l-1.453.734L1.64-6.359l4.28-2.157 1.907 3.813-1.437.719.312.625c.5-.297 1.813-.953 2.375-1.235.578-.281 1.89-.953 2.406-1.156m0 0"/><path id="c" d="M3.813-1.906 3.5-2.531l-.828.406-2.688-5.39-2.265 1.28.312.626c.782-.407.875-.453 1.14.078l2.063 4.125-.921.468.312.626 1.625-.86ZM-.86-9.703c-.297-.563-1-.813-1.578-.516-.579.281-.813 1-.516 1.563.281.578.984.797 1.562.515.579-.296.813-.984.532-1.562m0 0"/><path id="d" d="M-.844-10.172c-.265-.515-.953-.703-1.531-.422-.562.297-.844.969-.578 1.485.047.078.062.109.156.218l3.11 4.516c.218.313.218.328.5.188.25-.125.296-.172.203-.454L-.781-9.984Zm3.688 7.438c-.281-.578-.985-.797-1.563-.516a1.163 1.163 0 0 0-.515 1.547c.297.578 1 .828 1.562.531a1.15 1.15 0 0 0 .516-1.562m0 0"/><clipPath id="a"><path d="M0 9h86.871v49.98H0Zm0 0"/></clipPath></defs><path fill="none" stroke="#7F7F7F" stroke-miterlimit="10" stroke-width=".199" d="M.734 57.785h85.04M.733 29.441h85.04M.733 1.101h85.04M.733 57.786V1.094m28.344 56.691V1.094m28.348 56.691V1.094m28.336 56.691V1.094"/><g clip-path="url(#a)"><path fill="none" stroke="#000" stroke-miterlimit="10" stroke-width=".399" d="m.734 57.785 85.04-42.52"/></g><use xlink:href="#b" x="13.864" y="57.11"/><use xlink:href="#c" x="25.893" y="51.096"/><use xlink:href="#d" x="30.156" y="48.964"/></svg>