<svg xmlns="http://www.w3.org/2000/svg" xmlns:xlink="http://www.w3.org/1999/xlink" width="240.068" height="222.752"><defs><path id="a" d="M3.89-2.547c0-.844-.078-1.36-.343-1.875-.344-.703-1-.875-1.438-.875-1 0-1.375.75-1.484.969C.344-3.75.328-2.953.328-2.547c0 .531.016 1.328.406 1.969.36.594.954.75 1.375.75.391 0 1.063-.125 1.47-.906.296-.578.312-1.297.312-1.813M2.11-.062c-.266 0-.813-.125-.985-.954-.094-.453-.094-1.203-.094-1.625 0-.546 0-1.109.094-1.546.172-.813.781-.891.984-.891.266 0 .829.14.985.86.094.437.094 1.046.094 1.577 0 .47 0 1.188-.094 1.641-.172.828-.719.938-.985.938m0 0"/><path id="c" d="M2.5-5.078c0-.219-.016-.219-.234-.219-.328.313-.75.5-1.5.5v.266c.218 0 .64 0 1.109-.203v4.078c0 .297-.031.39-.781.39H.812V0c.329-.031 1.016-.031 1.376-.031s1.046 0 1.374.031v-.266h-.28c-.75 0-.782-.093-.782-.39Zm0 0"/><path id="d" d="M1.11-4.484c.109.03.421.125.765.125 1 0 1.594-.703 1.594-.828 0-.094-.047-.11-.094-.11-.016 0-.031 0-.094.031a3 3 0 0 1-1.11.22c-.468 0-.858-.11-1.108-.22-.079-.03-.094-.03-.11-.03-.094 0-.094.077-.094.234v2.328c0 .14 0 .234.125.234.063 0 .079-.031.125-.094.094-.11.391-.515 1.079-.515.437 0 .656.359.734.515.125.281.14.656.14.953s0 .735-.218 1.079c-.156.25-.485.484-.906.484A1.27 1.27 0 0 1 .734-.922c.016.016.079.016.079.016.218 0 .406-.14.406-.39a.39.39 0 0 0-.39-.407c-.157 0-.407.078-.407.422 0 .718.625 1.453 1.531 1.453 1 0 1.844-.781 1.844-1.766 0-.922-.672-1.75-1.61-1.75-.39 0-.765.125-1.078.406Zm0 0"/><path id="e" d="M2.016-2.656c.625 0 1.03.453 1.03 1.297 0 1-.562 1.28-.983 1.28-.438 0-1.047-.155-1.329-.577.297 0 .5-.188.5-.438 0-.265-.187-.437-.453-.437-.203 0-.437.125-.437.453 0 .75.812 1.25 1.734 1.25 1.047 0 1.797-.734 1.797-1.531 0-.672-.531-1.266-1.344-1.453.625-.22 1.11-.75 1.11-1.391 0-.64-.72-1.094-1.547-1.094-.86 0-1.5.453-1.5 1.063 0 .297.187.422.406.422.25 0 .406-.172.406-.407 0-.297-.265-.406-.437-.406.344-.437.953-.469 1.094-.469.203 0 .812.063.812.89 0 .548-.234.891-.344 1.016-.234.25-.422.266-.906.297-.156 0-.219.016-.219.125 0 .11.078.11.219.11Zm0 0"/><path id="f" d="M3.14-5.156c0-.157 0-.219-.171-.219-.094 0-.11 0-.188.11L.234-1.564v.25h2.25v.672c0 .297-.015.375-.64.375h-.172V0c.672-.031.687-.031 1.14-.031.454 0 .47 0 1.141.031v-.266h-.172c-.625 0-.64-.078-.64-.375v-.671h.843v-.25h-.843Zm-.593.64v2.954H.516Zm0 0"/><path id="g" d="M1.094-2.64c0-.657.062-1.235.343-1.72.25-.406.657-.734 1.157-.734.156 0 .515.032.703.297-.36.031-.39.297-.39.375 0 .25.187.375.374.375.14 0 .375-.078.375-.39 0-.47-.36-.86-1.078-.86C1.468-5.297.344-4.25.344-2.53.344-.36 1.359.172 2.125.172c.39 0 .797-.11 1.156-.453.328-.313.594-.64.594-1.344 0-1.031-.797-1.766-1.672-1.766-.578 0-.922.36-1.11.75M2.125-.079a.88.88 0 0 1-.797-.516c-.187-.36-.203-.89-.203-1.203 0-.781.422-1.375 1.047-1.375.39 0 .64.203.781.485.172.296.172.656.172 1.062s0 .75-.156 1.047c-.219.36-.485.5-.844.5m0 0"/><path id="h" d="M4.031-4.86c.078-.077.078-.093.078-.265H2.08a9 9 0 0 1-.642-.031c-.421-.032-.421-.11-.453-.235h-.25L.47-3.703h.25c.015-.125.11-.672.219-.735.078-.046.687-.046.796-.046h1.688l-.813 1.109C1.703-2.172 1.5-.906 1.5-.281c0 .078 0 .453.375.453s.375-.36.375-.453v-.39c0-1.141.203-2.079.594-2.61Zm0 0"/><path id="i" d="M3.125-2.344c0 1.938-.922 2.266-1.39 2.266-.173 0-.579-.016-.798-.266.36-.031.375-.297.375-.375a.37.37 0 0 0-.375-.375.37.37 0 0 0-.375.39c0 .548.454.876 1.188.876 1.094 0 2.125-1.094 2.125-2.797 0-2.062-.922-2.672-1.734-2.672-.953 0-1.797.734-1.797 1.781 0 1.016.781 1.766 1.687 1.766.563 0 .906-.36 1.094-.766Zm-1.062.375c-.376 0-.61-.172-.782-.468-.187-.282-.187-.672-.187-1.079 0-.468 0-.796.218-1.125.204-.296.454-.453.829-.453.53 0 .765.532.797.563.156.39.171 1.015.171 1.172 0 .64-.343 1.39-1.046 1.39m0 0"/><path id="j" d="M2.25-1.625c.125-.125.453-.39.594-.5.484-.453.953-.89.953-1.61 0-.953-.797-1.562-1.781-1.562-.97 0-1.594.719-1.594 1.438 0 .39.312.437.422.437.172 0 .422-.11.422-.422 0-.406-.407-.406-.5-.406.234-.594.765-.781 1.156-.781.734 0 1.125.625 1.125 1.297 0 .828-.578 1.437-1.531 2.39l-1 1.047C.422-.219.422-.203.422 0h3.14l.235-1.422h-.25c-.016.156-.078.547-.172.703-.047.063-.656.063-.781.063H1.172Zm0 0"/><path id="k" d="M2.64-2.875c.454-.219 1-.61 1-1.234 0-.766-.78-1.188-1.515-1.188-.844 0-1.531.578-1.531 1.328 0 .297.094.563.297.797.14.172.172.188.656.5C.563-2.234.344-1.656.344-1.219c0 .89.89 1.39 1.765 1.39.97 0 1.766-.671 1.766-1.515 0-.5-.266-.828-.406-.968-.125-.126-.14-.141-.828-.563m-1.234-.75c-.234-.14-.422-.375-.422-.64 0-.5.547-.829 1.125-.829.61 0 1.125.422 1.125.985 0 .453-.359.843-.828 1.078Zm.39 1.094c.032.015.938.578 1.079.656.125.078.547.328.547.813 0 .609-.656.984-1.297.984-.719 0-1.312-.484-1.312-1.14 0-.594.437-1.063.984-1.313m0 0"/><path id="b" d="M3.266-1.5c0-.75-.61-1.36-1.36-1.36-.734 0-1.343.61-1.343 1.36 0 .766.609 1.36 1.343 1.36.75 0 1.36-.594 1.36-1.36M1.906-.453A1.024 1.024 0 0 1 .875-1.5c0-.578.453-1.047 1.031-1.047s1.047.469 1.047 1.047c0 .594-.469 1.047-1.047 1.047m0 0"/><path id="l" d="M1.484-.125c0 .516-.109.984-.593 1.469-.032.031-.047.047-.047.078 0 .062.062.11.11.11.093 0 .765-.626.765-1.563 0-.5-.203-.86-.547-.86a.436.436 0 0 0-.438.438c0 .234.157.453.438.453.203 0 .312-.11.312-.125m0 0"/></defs><path fill="none" stroke="#BFBFBF" stroke-miterlimit="10" stroke-width=".399" d="M164.012 111.176c0-23.485-19.04-42.52-42.524-42.52-23.48 0-42.52 19.035-42.52 42.52 0 23.484 19.04 42.523 42.52 42.523 23.485 0 42.524-19.039 42.524-42.523"/><path fill="none" stroke="#BFBFBF" stroke-miterlimit="10" stroke-width=".399" d="M206.531 111.176c0-46.965-38.074-85.04-85.043-85.04-46.965 0-85.039 38.075-85.039 85.04 0 46.969 38.074 85.043 85.04 85.043 46.968 0 85.042-38.074 85.042-85.043"/><path fill="none" stroke="#7F7F7F" stroke-linecap="round" stroke-miterlimit="10" stroke-width=".399" d="M221.473 111.176h1.996M218.066 85.3l1.926-.515M208.078 61.184l1.727-.996M192.191 40.477l1.407-1.41M171.48 24.586l1-1.723M147.367 14.598l.516-1.922M121.488 11.191V9.2M95.613 14.598l-.515-1.922M71.496 24.586l-.996-1.723M50.79 40.477l-1.407-1.41M34.902 61.184l-1.726-.996M24.914 85.3l-1.926-.515M21.504 111.176h-1.992M24.914 137.055l-1.926.515M34.902 161.168l-1.726.996M50.79 181.875l-1.407 1.41M71.496 197.766l-.996 1.726M95.613 207.754l-.515 1.926M121.488 211.16v1.992M147.367 207.754l.516 1.926M171.48 197.766l1 1.726M192.191 181.875l1.407 1.41M208.078 161.168l1.727.996M218.066 137.055l1.926.515M121.488 111.176h0M164.012 111.176h0M206.531 111.176h0M164.012 113.168v-3.984M206.531 113.168v-3.984M123.484 68.656h-3.988M123.484 26.137h-3.988M78.969 109.184v3.984M36.45 109.184v3.984M119.496 153.7h3.988M119.496 196.219h3.988"/><path fill="none" stroke="#7F7F7F" stroke-miterlimit="10" stroke-width=".399" d="M221.473 111.176c0-55.219-44.762-99.985-99.985-99.985-55.218 0-99.984 44.766-99.984 99.985 0 55.222 44.766 99.984 99.984 99.984 55.223 0 99.985-44.762 99.985-99.984M121.488 111.176h99.985M121.488 111.176V11.19M121.488 111.176H21.504M121.488 111.176v99.984"/><path fill="none" stroke="#000" stroke-miterlimit="10" stroke-width=".598" d="M121.488 111.176s.067.004.149-.008.277-.04.437-.078c.16-.035.48-.117.715-.2.23-.081.664-.25.965-.39.297-.145.832-.418 1.187-.637.352-.215.97-.625 1.368-.933.394-.305 1.07-.871 1.5-1.278a25 25 0 0 0 1.574-1.668c.441-.52 1.16-1.445 1.594-2.086.433-.64 1.132-1.77 1.543-2.535.41-.77 1.05-2.101 1.417-3 .364-.898.918-2.445 1.22-3.472.3-1.028.73-2.786.94-3.942.212-1.156.481-3.117.583-4.398s.18-3.442.148-4.836c-.031-1.399-.183-3.738-.367-5.242-.188-1.504-.602-4-.961-5.598a76 76 0 0 0-1.629-5.902c-.555-1.672-1.598-4.414-2.363-6.141-.766-1.73-2.168-4.547-3.164-6.309-.996-1.761-2.774-4.617-4.016-6.39-1.238-1.77-3.422-4.625-4.914-6.38-1.496-1.757-4.098-4.562-5.86-6.269-1.761-1.71-6.831-6.054-6.831-6.054"/><use xlink:href="#a" x="226.122" y="114.009"/><use xlink:href="#b" x="230.356" y="111.196"/><use xlink:href="#c" x="222.647" y="82.128"/><use xlink:href="#d" x="226.882" y="82.128"/><use xlink:href="#b" x="231.115" y="79.315"/><use xlink:href="#e" x="212.46" y="57.533"/><use xlink:href="#a" x="216.695" y="57.533"/><use xlink:href="#b" x="220.928" y="54.721"/><use xlink:href="#f" x="196.254" y="36.413"/><use xlink:href="#d" x="200.489" y="36.413"/><use xlink:href="#b" x="204.722" y="33.601"/><use xlink:href="#g" x="175.134" y="20.207"/><use xlink:href="#a" x="179.369" y="20.207"/><use xlink:href="#b" x="183.602" y="17.395"/><use xlink:href="#h" x="150.539" y="10.02"/><use xlink:href="#d" x="154.774" y="10.02"/><use xlink:href="#b" x="159.007" y="7.207"/><use xlink:href="#i" x="115.097" y="6.545"/><use xlink:href="#a" x="119.332" y="6.545"/><use xlink:href="#b" x="123.565" y="3.733"/><use xlink:href="#c" x="75.421" y="10.02"/><use xlink:href="#a" x="79.656" y="10.02"/><use xlink:href="#d" x="83.89" y="10.02"/><use xlink:href="#b" x="88.123" y="7.207"/><use xlink:href="#c" x="50.826" y="20.207"/><use xlink:href="#j" x="55.061" y="20.207"/><use xlink:href="#a" x="59.295" y="20.207"/><use xlink:href="#b" x="63.529" y="17.395"/><use xlink:href="#c" x="29.706" y="36.413"/><use xlink:href="#e" x="33.941" y="36.413"/><use xlink:href="#d" x="38.175" y="36.413"/><use xlink:href="#b" x="42.409" y="33.601"/><use xlink:href="#c" x="13.5" y="57.533"/><use xlink:href="#d" x="17.735" y="57.533"/><use xlink:href="#a" x="21.969" y="57.533"/><use xlink:href="#b" x="26.203" y="54.721"/><use xlink:href="#c" x="3.313" y="82.128"/><use xlink:href="#g" x="7.548" y="82.128"/><use xlink:href="#d" x="11.782" y="82.128"/><use xlink:href="#b" x="16.015" y="79.315"/><use xlink:href="#c" x="-.162" y="114.009"/><use xlink:href="#k" x="4.073" y="114.009"/><use xlink:href="#a" x="8.307" y="114.009"/><use xlink:href="#b" x="12.541" y="111.196"/><use xlink:href="#c" x="3.313" y="145.89"/><use xlink:href="#i" x="7.548" y="145.89"/><use xlink:href="#d" x="11.782" y="145.89"/><use xlink:href="#b" x="16.015" y="143.077"/><use xlink:href="#j" x="13.5" y="170.484"/><use xlink:href="#c" x="17.735" y="170.484"/><use xlink:href="#a" x="21.969" y="170.484"/><use xlink:href="#b" x="26.203" y="167.672"/><use xlink:href="#j" x="29.706" y="191.604"/><use xlink:href="#j" x="33.941" y="191.604"/><use xlink:href="#d" x="38.175" y="191.604"/><use xlink:href="#b" x="42.409" y="188.792"/><use xlink:href="#j" x="50.826" y="207.81"/><use xlink:href="#f" x="55.061" y="207.81"/><use xlink:href="#a" x="59.295" y="207.81"/><use xlink:href="#b" x="63.529" y="204.998"/><use xlink:href="#j" x="75.421" y="217.998"/><use xlink:href="#d" x="79.656" y="217.998"/><use xlink:href="#d" x="83.89" y="217.998"/><use xlink:href="#b" x="88.123" y="215.185"/><use xlink:href="#j" x="112.98" y="221.472"/><use xlink:href="#h" x="117.215" y="221.472"/><use xlink:href="#a" x="121.449" y="221.472"/><use xlink:href="#b" x="125.682" y="218.66"/><use xlink:href="#j" x="150.539" y="217.998"/><use xlink:href="#k" x="154.774" y="217.998"/><use xlink:href="#d" x="159.008" y="217.998"/><use xlink:href="#b" x="163.242" y="215.185"/><use xlink:href="#e" x="175.134" y="207.81"/><use xlink:href="#a" x="179.369" y="207.81"/><use xlink:href="#a" x="183.603" y="207.81"/><use xlink:href="#b" x="187.836" y="204.998"/><use xlink:href="#e" x="196.254" y="191.604"/><use xlink:href="#c" x="200.489" y="191.604"/><use xlink:href="#d" x="204.723" y="191.604"/><use xlink:href="#b" x="208.956" y="188.792"/><use xlink:href="#e" x="212.46" y="170.484"/><use xlink:href="#e" x="216.695" y="170.484"/><use xlink:href="#a" x="220.929" y="170.484"/><use xlink:href="#b" x="225.162" y="167.672"/><use xlink:href="#e" x="222.647" y="145.89"/><use xlink:href="#f" x="226.882" y="145.89"/><use xlink:href="#d" x="231.116" y="145.89"/><use xlink:href="#b" x="235.35" y="143.077"/><use xlink:href="#a" x="119.373" y="118.97"/><use xlink:href="#d" x="154.365" y="118.97"/><use xlink:href="#l" x="158.599" y="118.97"/><use xlink:href="#a" x="160.952" y="118.97"/><use xlink:href="#a" x="165.187" y="118.97"/><use xlink:href="#a" x="169.421" y="118.97"/><use xlink:href="#c" x="194.768" y="118.97"/><use xlink:href="#a" x="199.003" y="118.97"/><use xlink:href="#l" x="203.237" y="118.97"/><use xlink:href="#a" x="205.589" y="118.97"/><use xlink:href="#a" x="209.824" y="118.97"/><use xlink:href="#a" x="214.058" y="118.97"/><use xlink:href="#d" x="154.365" y="120.962"/><use xlink:href="#l" x="158.599" y="120.962"/><use xlink:href="#a" x="160.952" y="120.962"/><use xlink:href="#a" x="165.187" y="120.962"/><use xlink:href="#a" x="169.421" y="120.962"/><use xlink:href="#c" x="194.768" y="120.962"/><use xlink:href="#a" x="199.003" y="120.962"/><use xlink:href="#l" x="203.237" y="120.962"/><use xlink:href="#a" x="205.589" y="120.962"/><use xlink:href="#a" x="209.824" y="120.962"/><use xlink:href="#a" x="214.058" y="120.962"/><use xlink:href="#d" x="97.552" y="70.451"/><use xlink:href="#l" x="101.786" y="70.451"/><use xlink:href="#a" x="104.139" y="70.451"/><use xlink:href="#a" x="108.374" y="70.451"/><use xlink:href="#a" x="112.608" y="70.451"/><use xlink:href="#c" x="93.318" y="27.93"/><use xlink:href="#a" x="97.553" y="27.93"/><use xlink:href="#l" x="101.786" y="27.93"/><use xlink:href="#a" x="104.139" y="27.93"/><use xlink:href="#a" x="108.374" y="27.93"/><use xlink:href="#a" x="112.608" y="27.93"/><use xlink:href="#d" x="69.325" y="120.962"/><use xlink:href="#l" x="73.559" y="120.962"/><use xlink:href="#a" x="75.912" y="120.962"/><use xlink:href="#a" x="80.147" y="120.962"/><use xlink:href="#a" x="84.381" y="120.962"/><use xlink:href="#c" x="24.688" y="120.962"/><use xlink:href="#a" x="28.923" y="120.962"/><use xlink:href="#l" x="33.156" y="120.962"/><use xlink:href="#a" x="35.509" y="120.962"/><use xlink:href="#a" x="39.744" y="120.962"/><use xlink:href="#a" x="43.978" y="120.962"/><use xlink:href="#d" x="97.552" y="155.491"/><use xlink:href="#l" x="101.786" y="155.491"/><use xlink:href="#a" x="104.139" y="155.491"/><use xlink:href="#a" x="108.374" y="155.491"/><use xlink:href="#a" x="112.608" y="155.491"/><use xlink:href="#c" x="93.318" y="198.011"/><use xlink:href="#a" x="97.553" y="198.011"/><use xlink:href="#l" x="101.786" y="198.011"/><use xlink:href="#a" x="104.139" y="198.011"/><use xlink:href="#a" x="108.374" y="198.011"/><use xlink:href="#a" x="112.608" y="198.011"/></svg>