<svg xmlns="http://www.w3.org/2000/svg" xmlns:xlink="http://www.w3.org/1999/xlink" width="82.791" height="106.005"><defs><path id="a" d="M8.578 0v-.469H7.5v-5.906h1.078v-.469c-.39.032-1.36.032-1.797.032-.422 0-1.39 0-1.781-.032v.469h1.078v2.594H2.875v-2.594h1.078v-.469c-.375.032-1.344.032-1.781.032-.422 0-1.406 0-1.781-.032v.469h1.078v5.906H.39V0C.766-.031 1.75-.031 2.17-.031c.438 0 1.407 0 1.782.031v-.469H2.875v-2.843h3.203V-.47H5V0c.39-.031 1.36-.031 1.781-.031.438 0 1.407 0 1.797.031m0 0"/><path id="b" d="M4.922-1.172c0-.172-.188-.172-.234-.172-.172 0-.188.047-.25.203-.204.485-.782.797-1.422.797-1.407 0-1.422-1.328-1.422-1.828h3.015c.22 0 .313 0 .313-.265 0-.313-.063-1.047-.563-1.547-.359-.36-.89-.532-1.578-.532C1.187-4.516.313-3.484.313-2.25c0 1.344 1 2.313 2.609 2.313 1.578 0 2-1.063 2-1.235M3.984-2.5h-2.39c.015-.39.031-.812.234-1.14.266-.391.672-.516.953-.516 1.172 0 1.188 1.312 1.203 1.656m0 0"/><path id="c" d="M2.922 0v-.469h-.688v-6.453L.47-6.844v.469c.625 0 .687 0 .687.39v5.516H.47V0l1.219-.031Zm0 0"/><path id="d" d="M5.406-2.172c0-1.344-.922-2.344-2.547-2.344C1.22-4.516.313-3.5.313-2.172c0 1.235.89 2.235 2.546 2.235 1.672 0 2.547-1.016 2.547-2.235m-1.281-.11c0 .86 0 1.938-1.266 1.938-1.265 0-1.265-1.078-1.265-1.937 0-.453 0-.953.172-1.297.187-.375.609-.578 1.093-.578.422 0 .844.156 1.063.5.203.344.203.89.203 1.375m0 0"/><path id="e" d="M11.61-6.375v-.469c-.282.016-.626.032-1.079.032-.375 0-.984 0-1.344-.032v.469c.25 0 .72 0 1.016.11L8.484-1.798 6.72-6.375h.953v-.469c-.375.032-1.313.032-1.734.032-.391 0-1.188 0-1.532-.032v.469h.86l.406 1.063-1.36 3.515-1.765-4.578h.969v-.469c-.391.032-1.328.032-1.75.032-.391 0-1.172 0-1.532-.032v.469h.86l2.39 6.203c.063.156.11.25.36.25s.281-.094.344-.25l1.734-4.5 1.734 4.5c.063.156.094.25.344.25s.297-.094.36-.25l2.296-5.953c.063-.172.063-.187.375-.219.203-.031.406-.031.578-.031m0 0"/><path id="f" d="M4.406-3.672c0-.531-.531-.812-1.062-.812-.688 0-1.094.5-1.313 1.125v-1.125l-1.656.078v.468c.61 0 .688 0 .688.391v3.078H.375V0l1.25-.031C2-.031 2.641-.031 3 0v-.469h-.86v-1.75c0-.687.235-1.906 1.235-1.906 0 0-.187.172-.187.453 0 .406.328.61.609.61.297 0 .61-.204.61-.61m0 0"/><path id="g" d="M5.984 0v-.469c-.609 0-.687 0-.687-.39v-6.063l-1.766.078v.469c.625 0 .703 0 .703.39v1.954a2.18 2.18 0 0 0-1.359-.453c-1.453 0-2.5.875-2.5 2.28 0 1.313.922 2.267 2.39 2.267.61 0 1.094-.235 1.407-.485v.485ZM4.172-1.031c-.14.187-.547.734-1.297.734-1.219 0-1.219-1.203-1.219-1.906 0-.485 0-1.016.25-1.406.297-.422.766-.516 1.078-.516.563 0 .97.313 1.188.61Zm0 0"/><path id="h" d="M2.531-6.312c0-.391-.36-.72-.781-.72-.437 0-.797.329-.797.72 0 .046 0 .078.031.171L1.5-2.516c.031.25.031.266.25.266.188 0 .219-.016.25-.219l.516-3.718Zm-.015 5.53a.78.78 0 0 0-.766-.78.784.784 0 0 0-.781.78.774.774 0 1 0 1.547 0m0 0"/><clipPath id="i"><path d="M0 41h82.688v47H0Zm0 0"/></clipPath><clipPath id="j"><path d="M0 43h82.688v47H0Zm0 0"/></clipPath><clipPath id="k"><path d="M0 45h82.688v48H0Zm0 0"/></clipPath><clipPath id="l"><path d="M5.734 85.941h71.13v13.746H5.733Zm0 0"/></clipPath><clipPath id="n"><path d="M3.523 88.152h71.13v13.746H3.522Zm0 0"/></clipPath><clipPath id="p"><path d="M1.313 90.363H72.44v13.746H1.313Zm0 0"/></clipPath><linearGradient id="m" x1="0" x2="0" y1="25.003" y2="74.997" gradientTransform="matrix(0 -.27492 -1.42278 0 112.439 106.56)" gradientUnits="userSpaceOnUse"><stop offset="0" stop-color="#FFF"/><stop offset=".008" stop-color="#FEFEFF"/><stop offset=".016" stop-color="#FDFDFF"/><stop offset=".023" stop-color="#FDFDFF"/><stop offset=".031" stop-color="#FCFCFF"/><stop offset=".039" stop-color="#FBFBFF"/><stop offset=".047" stop-color="#FAFAFF"/><stop offset=".055" stop-color="#F9F9FF"/><stop offset=".063" stop-color="#F8F8FF"/><stop offset=".07" stop-color="#F7F7FF"/><stop offset=".078" stop-color="#F6F6FF"/><stop offset=".086" stop-color="#F5F5FF"/><stop offset=".094" stop-color="#F4F4FF"/><stop offset=".102" stop-color="#F3F3FF"/><stop offset=".109" stop-color="#F2F2FF"/><stop offset=".117" stop-color="#F1F1FF"/><stop offset=".125" stop-color="#F0F0FF"/><stop offset=".133" stop-color="#EFEFFF"/><stop offset=".141" stop-color="#EEF"/><stop offset=".148" stop-color="#EDEDFF"/><stop offset=".156" stop-color="#ECECFF"/><stop offset=".164" stop-color="#EBEBFF"/><stop offset=".172" stop-color="#EAEAFF"/><stop offset=".18" stop-color="#E9E9FF"/><stop offset=".188" stop-color="#E8E8FF"/><stop offset=".195" stop-color="#E7E7FF"/><stop offset=".203" stop-color="#E6E6FF"/><stop offset=".211" stop-color="#E5E5FF"/><stop offset=".219" stop-color="#E4E4FF"/><stop offset=".227" stop-color="#E3E3FF"/><stop offset=".234" stop-color="#E2E2FF"/><stop offset=".242" stop-color="#E1E1FF"/><stop offset=".25" stop-color="#E0E0FF"/><stop offset=".258" stop-color="#DFDFFF"/><stop offset=".266" stop-color="#DEDEFF"/><stop offset=".273" stop-color="#DDF"/><stop offset=".281" stop-color="#DCDCFF"/><stop offset=".289" stop-color="#DBDBFF"/><stop offset=".297" stop-color="#DADAFF"/><stop offset=".305" stop-color="#D9D9FF"/><stop offset=".313" stop-color="#D8D8FF"/><stop offset=".32" stop-color="#D7D7FF"/><stop offset=".328" stop-color="#D6D6FF"/><stop offset=".336" stop-color="#D5D5FF"/><stop offset=".344" stop-color="#D4D4FF"/><stop offset=".352" stop-color="#D3D3FF"/><stop offset=".359" stop-color="#D2D2FF"/><stop offset=".367" stop-color="#D1D1FF"/><stop offset=".375" stop-color="#D0D0FF"/><stop offset=".383" stop-color="#CFCFFF"/><stop offset=".391" stop-color="#CECEFF"/><stop offset=".398" stop-color="#CDCDFF"/><stop offset=".406" stop-color="#CCF"/><stop offset=".414" stop-color="#CBCBFF"/><stop offset=".422" stop-color="#CACAFF"/><stop offset=".43" stop-color="#C9C9FF"/><stop offset=".438" stop-color="#C8C8FF"/><stop offset=".445" stop-color="#C7C7FF"/><stop offset=".453" stop-color="#C6C6FF"/><stop offset=".461" stop-color="#C5C5FF"/><stop offset=".469" stop-color="#C4C4FF"/><stop offset=".477" stop-color="#C3C3FF"/><stop offset=".484" stop-color="#C2C2FF"/><stop offset=".492" stop-color="#C1C1FF"/><stop offset=".5" stop-color="#C0C0FF"/><stop offset=".508" stop-color="#BFBFFF"/><stop offset=".516" stop-color="#BEBEFF"/><stop offset=".523" stop-color="#BDBDFF"/><stop offset=".531" stop-color="#BCBCFF"/><stop offset=".539" stop-color="#BBF"/><stop offset=".547" stop-color="#BABAFF"/><stop offset=".555" stop-color="#B9B9FF"/><stop offset=".563" stop-color="#B8B8FF"/><stop offset=".57" stop-color="#B7B7FF"/><stop offset=".578" stop-color="#B6B6FF"/><stop offset=".586" stop-color="#B5B5FF"/><stop offset=".594" stop-color="#B4B4FF"/><stop offset=".602" stop-color="#B3B3FF"/><stop offset=".609" stop-color="#B2B2FF"/><stop offset=".617" stop-color="#B1B1FF"/><stop offset=".625" stop-color="#B0B0FF"/><stop offset=".633" stop-color="#AFAFFF"/><stop offset=".641" stop-color="#AEAEFF"/><stop offset=".648" stop-color="#ADADFF"/><stop offset=".656" stop-color="#ACACFF"/><stop offset=".664" stop-color="#ABABFF"/><stop offset=".672" stop-color="#AAF"/><stop offset=".68" stop-color="#A9A9FF"/><stop offset=".688" stop-color="#A8A8FF"/><stop offset=".695" stop-color="#A7A7FF"/><stop offset=".703" stop-color="#A6A6FF"/><stop offset=".711" stop-color="#A5A5FF"/><stop offset=".719" stop-color="#A4A4FF"/><stop offset=".727" stop-color="#A3A3FF"/><stop offset=".734" stop-color="#A2A2FF"/><stop offset=".742" stop-color="#A1A1FF"/><stop offset=".75" stop-color="#A0A0FF"/><stop offset=".758" stop-color="#9F9FFF"/><stop offset=".766" stop-color="#9E9EFF"/><stop offset=".773" stop-color="#9D9DFF"/><stop offset=".781" stop-color="#9C9CFF"/><stop offset=".789" stop-color="#9B9BFF"/><stop offset=".797" stop-color="#9A9AFF"/><stop offset=".805" stop-color="#99F"/><stop offset=".813" stop-color="#9898FF"/><stop offset=".82" stop-color="#9797FF"/><stop offset=".828" stop-color="#9696FF"/><stop offset=".836" stop-color="#9595FF"/><stop offset=".844" stop-color="#9494FF"/><stop offset=".852" stop-color="#9393FF"/><stop offset=".859" stop-color="#9292FF"/><stop offset=".867" stop-color="#9191FF"/><stop offset=".875" stop-color="#9090FF"/><stop offset=".883" stop-color="#8F8FFF"/><stop offset=".891" stop-color="#8E8EFF"/><stop offset=".898" stop-color="#8D8DFF"/><stop offset=".906" stop-color="#8C8CFF"/><stop offset=".914" stop-color="#8B8BFF"/><stop offset=".922" stop-color="#8A8AFF"/><stop offset=".93" stop-color="#8989FF"/><stop offset=".938" stop-color="#88F"/><stop offset=".945" stop-color="#8787FF"/><stop offset=".953" stop-color="#8686FF"/><stop offset=".961" stop-color="#8585FF"/><stop offset=".969" stop-color="#8484FF"/><stop offset=".977" stop-color="#8383FF"/><stop offset=".984" stop-color="#8282FF"/><stop offset=".992" stop-color="#8181FF"/><stop offset="1" stop-color="#8080FF"/></linearGradient><linearGradient id="o" x1="0" x2="0" y1="25.003" y2="74.997" gradientTransform="matrix(0 -.27492 -1.42278 0 110.227 108.771)" gradientUnits="userSpaceOnUse"><stop offset="0" stop-color="#FFF"/><stop offset=".008" stop-color="#FEFEFF"/><stop offset=".016" stop-color="#FDFDFF"/><stop offset=".023" stop-color="#FDFDFF"/><stop offset=".031" stop-color="#FCFCFF"/><stop offset=".039" stop-color="#FBFBFF"/><stop offset=".047" stop-color="#FAFAFF"/><stop offset=".055" stop-color="#F9F9FF"/><stop offset=".063" stop-color="#F8F8FF"/><stop offset=".07" stop-color="#F7F7FF"/><stop offset=".078" stop-color="#F6F6FF"/><stop offset=".086" stop-color="#F5F5FF"/><stop offset=".094" stop-color="#F4F4FF"/><stop offset=".102" stop-color="#F3F3FF"/><stop offset=".109" stop-color="#F2F2FF"/><stop offset=".117" stop-color="#F1F1FF"/><stop offset=".125" stop-color="#F0F0FF"/><stop offset=".133" stop-color="#EFEFFF"/><stop offset=".141" stop-color="#EEF"/><stop offset=".148" stop-color="#EDEDFF"/><stop offset=".156" stop-color="#ECECFF"/><stop offset=".164" stop-color="#EBEBFF"/><stop offset=".172" stop-color="#EAEAFF"/><stop offset=".18" stop-color="#E9E9FF"/><stop offset=".188" stop-color="#E8E8FF"/><stop offset=".195" stop-color="#E7E7FF"/><stop offset=".203" stop-color="#E6E6FF"/><stop offset=".211" stop-color="#E5E5FF"/><stop offset=".219" stop-color="#E4E4FF"/><stop offset=".227" stop-color="#E3E3FF"/><stop offset=".234" stop-color="#E2E2FF"/><stop offset=".242" stop-color="#E1E1FF"/><stop offset=".25" stop-color="#E0E0FF"/><stop offset=".258" stop-color="#DFDFFF"/><stop offset=".266" stop-color="#DEDEFF"/><stop offset=".273" stop-color="#DDF"/><stop offset=".281" stop-color="#DCDCFF"/><stop offset=".289" stop-color="#DBDBFF"/><stop offset=".297" stop-color="#DADAFF"/><stop offset=".305" stop-color="#D9D9FF"/><stop offset=".313" stop-color="#D8D8FF"/><stop offset=".32" stop-color="#D7D7FF"/><stop offset=".328" stop-color="#D6D6FF"/><stop offset=".336" stop-color="#D5D5FF"/><stop offset=".344" stop-color="#D4D4FF"/><stop offset=".352" stop-color="#D3D3FF"/><stop offset=".359" stop-color="#D2D2FF"/><stop offset=".367" stop-color="#D1D1FF"/><stop offset=".375" stop-color="#D0D0FF"/><stop offset=".383" stop-color="#CFCFFF"/><stop offset=".391" stop-color="#CECEFF"/><stop offset=".398" stop-color="#CDCDFF"/><stop offset=".406" stop-color="#CCF"/><stop offset=".414" stop-color="#CBCBFF"/><stop offset=".422" stop-color="#CACAFF"/><stop offset=".43" stop-color="#C9C9FF"/><stop offset=".438" stop-color="#C8C8FF"/><stop offset=".445" stop-color="#C7C7FF"/><stop offset=".453" stop-color="#C6C6FF"/><stop offset=".461" stop-color="#C5C5FF"/><stop offset=".469" stop-color="#C4C4FF"/><stop offset=".477" stop-color="#C3C3FF"/><stop offset=".484" stop-color="#C2C2FF"/><stop offset=".492" stop-color="#C1C1FF"/><stop offset=".5" stop-color="#C0C0FF"/><stop offset=".508" stop-color="#BFBFFF"/><stop offset=".516" stop-color="#BEBEFF"/><stop offset=".523" stop-color="#BDBDFF"/><stop offset=".531" stop-color="#BCBCFF"/><stop offset=".539" stop-color="#BBF"/><stop offset=".547" stop-color="#BABAFF"/><stop offset=".555" stop-color="#B9B9FF"/><stop offset=".563" stop-color="#B8B8FF"/><stop offset=".57" stop-color="#B7B7FF"/><stop offset=".578" stop-color="#B6B6FF"/><stop offset=".586" stop-color="#B5B5FF"/><stop offset=".594" stop-color="#B4B4FF"/><stop offset=".602" stop-color="#B3B3FF"/><stop offset=".609" stop-color="#B2B2FF"/><stop offset=".617" stop-color="#B1B1FF"/><stop offset=".625" stop-color="#B0B0FF"/><stop offset=".633" stop-color="#AFAFFF"/><stop offset=".641" stop-color="#AEAEFF"/><stop offset=".648" stop-color="#ADADFF"/><stop offset=".656" stop-color="#ACACFF"/><stop offset=".664" stop-color="#ABABFF"/><stop offset=".672" stop-color="#AAF"/><stop offset=".68" stop-color="#A9A9FF"/><stop offset=".688" stop-color="#A8A8FF"/><stop offset=".695" stop-color="#A7A7FF"/><stop offset=".703" stop-color="#A6A6FF"/><stop offset=".711" stop-color="#A5A5FF"/><stop offset=".719" stop-color="#A4A4FF"/><stop offset=".727" stop-color="#A3A3FF"/><stop offset=".734" stop-color="#A2A2FF"/><stop offset=".742" stop-color="#A1A1FF"/><stop offset=".75" stop-color="#A0A0FF"/><stop offset=".758" stop-color="#9F9FFF"/><stop offset=".766" stop-color="#9E9EFF"/><stop offset=".773" stop-color="#9D9DFF"/><stop offset=".781" stop-color="#9C9CFF"/><stop offset=".789" stop-color="#9B9BFF"/><stop offset=".797" stop-color="#9A9AFF"/><stop offset=".805" stop-color="#99F"/><stop offset=".813" stop-color="#9898FF"/><stop offset=".82" stop-color="#9797FF"/><stop offset=".828" stop-color="#9696FF"/><stop offset=".836" stop-color="#9595FF"/><stop offset=".844" stop-color="#9494FF"/><stop offset=".852" stop-color="#9393FF"/><stop offset=".859" stop-color="#9292FF"/><stop offset=".867" stop-color="#9191FF"/><stop offset=".875" stop-color="#9090FF"/><stop offset=".883" stop-color="#8F8FFF"/><stop offset=".891" stop-color="#8E8EFF"/><stop offset=".898" stop-color="#8D8DFF"/><stop offset=".906" stop-color="#8C8CFF"/><stop offset=".914" stop-color="#8B8BFF"/><stop offset=".922" stop-color="#8A8AFF"/><stop offset=".93" stop-color="#8989FF"/><stop offset=".938" stop-color="#88F"/><stop offset=".945" stop-color="#8787FF"/><stop offset=".953" stop-color="#8686FF"/><stop offset=".961" stop-color="#8585FF"/><stop offset=".969" stop-color="#8484FF"/><stop offset=".977" stop-color="#8383FF"/><stop offset=".984" stop-color="#8282FF"/><stop offset=".992" stop-color="#8181FF"/><stop offset="1" stop-color="#8080FF"/></linearGradient><linearGradient id="q" x1="0" x2="0" y1="25.003" y2="74.997" gradientTransform="matrix(0 -.27492 -1.42278 0 108.016 110.983)" gradientUnits="userSpaceOnUse"><stop offset="0" stop-color="#FFF"/><stop offset=".008" stop-color="#FEFEFF"/><stop offset=".016" stop-color="#FDFDFF"/><stop offset=".023" stop-color="#FDFDFF"/><stop offset=".031" stop-color="#FCFCFF"/><stop offset=".039" stop-color="#FBFBFF"/><stop offset=".047" stop-color="#FAFAFF"/><stop offset=".055" stop-color="#F9F9FF"/><stop offset=".063" stop-color="#F8F8FF"/><stop offset=".07" stop-color="#F7F7FF"/><stop offset=".078" stop-color="#F6F6FF"/><stop offset=".086" stop-color="#F5F5FF"/><stop offset=".094" stop-color="#F4F4FF"/><stop offset=".102" stop-color="#F3F3FF"/><stop offset=".109" stop-color="#F2F2FF"/><stop offset=".117" stop-color="#F1F1FF"/><stop offset=".125" stop-color="#F0F0FF"/><stop offset=".133" stop-color="#EFEFFF"/><stop offset=".141" stop-color="#EEF"/><stop offset=".148" stop-color="#EDEDFF"/><stop offset=".156" stop-color="#ECECFF"/><stop offset=".164" stop-color="#EBEBFF"/><stop offset=".172" stop-color="#EAEAFF"/><stop offset=".18" stop-color="#E9E9FF"/><stop offset=".188" stop-color="#E8E8FF"/><stop offset=".195" stop-color="#E7E7FF"/><stop offset=".203" stop-color="#E6E6FF"/><stop offset=".211" stop-color="#E5E5FF"/><stop offset=".219" stop-color="#E4E4FF"/><stop offset=".227" stop-color="#E3E3FF"/><stop offset=".234" stop-color="#E2E2FF"/><stop offset=".242" stop-color="#E1E1FF"/><stop offset=".25" stop-color="#E0E0FF"/><stop offset=".258" stop-color="#DFDFFF"/><stop offset=".266" stop-color="#DEDEFF"/><stop offset=".273" stop-color="#DDF"/><stop offset=".281" stop-color="#DCDCFF"/><stop offset=".289" stop-color="#DBDBFF"/><stop offset=".297" stop-color="#DADAFF"/><stop offset=".305" stop-color="#D9D9FF"/><stop offset=".313" stop-color="#D8D8FF"/><stop offset=".32" stop-color="#D7D7FF"/><stop offset=".328" stop-color="#D6D6FF"/><stop offset=".336" stop-color="#D5D5FF"/><stop offset=".344" stop-color="#D4D4FF"/><stop offset=".352" stop-color="#D3D3FF"/><stop offset=".359" stop-color="#D2D2FF"/><stop offset=".367" stop-color="#D1D1FF"/><stop offset=".375" stop-color="#D0D0FF"/><stop offset=".383" stop-color="#CFCFFF"/><stop offset=".391" stop-color="#CECEFF"/><stop offset=".398" stop-color="#CDCDFF"/><stop offset=".406" stop-color="#CCF"/><stop offset=".414" stop-color="#CBCBFF"/><stop offset=".422" stop-color="#CACAFF"/><stop offset=".43" stop-color="#C9C9FF"/><stop offset=".438" stop-color="#C8C8FF"/><stop offset=".445" stop-color="#C7C7FF"/><stop offset=".453" stop-color="#C6C6FF"/><stop offset=".461" stop-color="#C5C5FF"/><stop offset=".469" stop-color="#C4C4FF"/><stop offset=".477" stop-color="#C3C3FF"/><stop offset=".484" stop-color="#C2C2FF"/><stop offset=".492" stop-color="#C1C1FF"/><stop offset=".5" stop-color="#C0C0FF"/><stop offset=".508" stop-color="#BFBFFF"/><stop offset=".516" stop-color="#BEBEFF"/><stop offset=".523" stop-color="#BDBDFF"/><stop offset=".531" stop-color="#BCBCFF"/><stop offset=".539" stop-color="#BBF"/><stop offset=".547" stop-color="#BABAFF"/><stop offset=".555" stop-color="#B9B9FF"/><stop offset=".563" stop-color="#B8B8FF"/><stop offset=".57" stop-color="#B7B7FF"/><stop offset=".578" stop-color="#B6B6FF"/><stop offset=".586" stop-color="#B5B5FF"/><stop offset=".594" stop-color="#B4B4FF"/><stop offset=".602" stop-color="#B3B3FF"/><stop offset=".609" stop-color="#B2B2FF"/><stop offset=".617" stop-color="#B1B1FF"/><stop offset=".625" stop-color="#B0B0FF"/><stop offset=".633" stop-color="#AFAFFF"/><stop offset=".641" stop-color="#AEAEFF"/><stop offset=".648" stop-color="#ADADFF"/><stop offset=".656" stop-color="#ACACFF"/><stop offset=".664" stop-color="#ABABFF"/><stop offset=".672" stop-color="#AAF"/><stop offset=".68" stop-color="#A9A9FF"/><stop offset=".688" stop-color="#A8A8FF"/><stop offset=".695" stop-color="#A7A7FF"/><stop offset=".703" stop-color="#A6A6FF"/><stop offset=".711" stop-color="#A5A5FF"/><stop offset=".719" stop-color="#A4A4FF"/><stop offset=".727" stop-color="#A3A3FF"/><stop offset=".734" stop-color="#A2A2FF"/><stop offset=".742" stop-color="#A1A1FF"/><stop offset=".75" stop-color="#A0A0FF"/><stop offset=".758" stop-color="#9F9FFF"/><stop offset=".766" stop-color="#9E9EFF"/><stop offset=".773" stop-color="#9D9DFF"/><stop offset=".781" stop-color="#9C9CFF"/><stop offset=".789" stop-color="#9B9BFF"/><stop offset=".797" stop-color="#9A9AFF"/><stop offset=".805" stop-color="#99F"/><stop offset=".813" stop-color="#9898FF"/><stop offset=".82" stop-color="#9797FF"/><stop offset=".828" stop-color="#9696FF"/><stop offset=".836" stop-color="#9595FF"/><stop offset=".844" stop-color="#9494FF"/><stop offset=".852" stop-color="#9393FF"/><stop offset=".859" stop-color="#9292FF"/><stop offset=".867" stop-color="#9191FF"/><stop offset=".875" stop-color="#9090FF"/><stop offset=".883" stop-color="#8F8FFF"/><stop offset=".891" stop-color="#8E8EFF"/><stop offset=".898" stop-color="#8D8DFF"/><stop offset=".906" stop-color="#8C8CFF"/><stop offset=".914" stop-color="#8B8BFF"/><stop offset=".922" stop-color="#8A8AFF"/><stop offset=".93" stop-color="#8989FF"/><stop offset=".938" stop-color="#88F"/><stop offset=".945" stop-color="#8787FF"/><stop offset=".953" stop-color="#8686FF"/><stop offset=".961" stop-color="#8585FF"/><stop offset=".969" stop-color="#8484FF"/><stop offset=".977" stop-color="#8383FF"/><stop offset=".984" stop-color="#8282FF"/><stop offset=".992" stop-color="#8181FF"/><stop offset="1" stop-color="#8080FF"/></linearGradient></defs><path fill="#CCF" stroke="#00F" stroke-miterlimit="10" stroke-width=".797" d="M5.734 14.645h71.13V.902H5.733Zm0 0"/><path fill="#CCF" stroke="#00F" stroke-miterlimit="10" stroke-width=".797" d="M3.523 16.855h71.13V3.113H3.522Zm0 0"/><path fill="#CCF" stroke="#00F" stroke-miterlimit="10" stroke-width=".797" d="M1.313 19.07H72.44V5.324H1.313Zm0 0"/><use xlink:href="#a" x="4.633" y="15.668"/><use xlink:href="#b" x="13.599" y="15.668"/><use xlink:href="#c" x="18.849" y="15.668"/><use xlink:href="#c" x="22.027" y="15.668"/><use xlink:href="#d" x="25.205" y="15.668"/><use xlink:href="#e" x="34.75" y="15.668"/><use xlink:href="#d" x="45.639" y="15.668"/><use xlink:href="#f" x="51.367" y="15.668"/><use xlink:href="#c" x="56.09" y="15.668"/><use xlink:href="#g" x="59.268" y="15.668"/><use xlink:href="#h" x="65.634" y="15.668"/><path fill="#CCF" stroke="#00F" stroke-miterlimit="10" stroke-width=".797" d="M10.16 38.57h71.13V24.824H10.16Zm0 0"/><path fill="#CCF" stroke="#00F" stroke-miterlimit="10" stroke-width=".797" d="M5.734 42.992h71.13V29.246H5.733Zm0 0"/><path fill="#CCF" stroke="#00F" stroke-miterlimit="10" stroke-width=".797" d="M1.313 47.414H72.44V33.672H1.313Zm0 0"/><use xlink:href="#a" x="4.633" y="44.014"/><use xlink:href="#b" x="13.599" y="44.014"/><use xlink:href="#c" x="18.849" y="44.014"/><use xlink:href="#c" x="22.027" y="44.014"/><use xlink:href="#d" x="25.205" y="44.014"/><use xlink:href="#e" x="34.75" y="44.014"/><use xlink:href="#d" x="45.639" y="44.014"/><use xlink:href="#f" x="51.367" y="44.014"/><use xlink:href="#c" x="56.09" y="44.014"/><use xlink:href="#g" x="59.268" y="44.014"/><use xlink:href="#h" x="65.634" y="44.014"/><path fill="#CCF" fill-opacity=".5" d="M5.734 64.465v-9.36c9.82 3.32 25.746 3.32 35.567 0 9.82-3.324 25.742-3.324 35.562 0v18.723c-9.82-3.32-25.742-3.32-35.562 0-9.82 3.324-25.746 3.324-35.567 0Zm0 0"/><g clip-path="url(#i)"><path fill="none" stroke="#00F" stroke-miterlimit="10" stroke-opacity=".5" stroke-width=".797" d="M5.734 64.465v-9.36c9.82 3.32 25.746 3.32 35.567 0 9.82-3.324 25.742-3.324 35.562 0v18.723c-9.82-3.32-25.742-3.32-35.562 0-9.82 3.324-25.746 3.324-35.567 0Zm0 0"/></g><path fill="#CCF" fill-opacity=".5" d="M3.523 66.68v-9.364c9.82 3.32 25.743 3.32 35.567 0 9.82-3.32 25.742-3.32 35.562 0v18.727c-9.82-3.324-25.742-3.324-35.562 0-9.824 3.32-25.746 3.32-35.567 0Zm0 0"/><g clip-path="url(#j)"><path fill="none" stroke="#00F" stroke-miterlimit="10" stroke-opacity=".5" stroke-width=".797" d="M3.523 66.68v-9.364c9.82 3.32 25.743 3.32 35.567 0 9.82-3.32 25.742-3.32 35.562 0v18.727c-9.82-3.324-25.742-3.324-35.562 0-9.824 3.32-25.746 3.32-35.567 0Zm0 0"/></g><path fill="#CCF" d="M1.313 68.89v-9.363c9.82 3.32 25.742 3.32 35.562 0 9.824-3.32 25.746-3.32 35.566 0v18.727c-9.82-3.32-25.742-3.32-35.566 0-9.82 3.32-25.742 3.32-35.562 0Zm0 0"/><g clip-path="url(#k)"><path fill="none" stroke="#00F" stroke-miterlimit="10" stroke-width=".797" d="M1.313 68.89v-9.363c9.82 3.32 25.742 3.32 35.562 0 9.824-3.32 25.746-3.32 35.566 0v18.727c-9.82-3.32-25.742-3.32-35.566 0-9.82 3.32-25.742 3.32-35.562 0Zm0 0"/></g><use xlink:href="#a" x="4.633" y="72.362"/><use xlink:href="#b" x="13.599" y="72.362"/><use xlink:href="#c" x="18.849" y="72.362"/><use xlink:href="#c" x="22.027" y="72.362"/><use xlink:href="#d" x="25.205" y="72.362"/><use xlink:href="#e" x="34.75" y="72.362"/><use xlink:href="#d" x="45.639" y="72.362"/><use xlink:href="#f" x="51.367" y="72.362"/><use xlink:href="#c" x="56.09" y="72.362"/><use xlink:href="#g" x="59.268" y="72.362"/><use xlink:href="#h" x="65.634" y="72.362"/><path d="M5.734 99.688h71.13V85.94H5.733Zm0 0"/><g clip-path="url(#l)"><path fill="url(#m)" d="M76.863 99.688H5.734V85.94h71.13Zm0 0"/></g><path fill="none" stroke="#00F" stroke-miterlimit="10" stroke-width=".797" d="M5.734 99.688h71.13V85.94H5.733Zm0 0"/><path d="M3.523 101.898h71.13V88.152H3.522Zm0 0"/><g clip-path="url(#n)"><path fill="url(#o)" d="M74.652 101.898H3.523V88.152h71.13Zm0 0"/></g><path fill="none" stroke="#00F" stroke-miterlimit="10" stroke-width=".797" d="M3.523 101.898h71.13V88.152H3.522Zm0 0"/><g clip-path="url(#p)"><path fill="url(#q)" d="M72.441 104.11H1.313V90.362H72.44Zm0 0"/></g><path fill="none" stroke="#00F" stroke-miterlimit="10" stroke-width=".797" d="M1.313 104.11H72.44V90.362H1.313Zm0 0"/><use xlink:href="#a" x="4.633" y="100.707"/><use xlink:href="#b" x="13.599" y="100.707"/><use xlink:href="#c" x="18.849" y="100.707"/><use xlink:href="#c" x="22.027" y="100.707"/><use xlink:href="#d" x="25.205" y="100.707"/><use xlink:href="#e" x="34.75" y="100.707"/><use xlink:href="#d" x="45.639" y="100.707"/><use xlink:href="#f" x="51.367" y="100.707"/><use xlink:href="#c" x="56.09" y="100.707"/><use xlink:href="#g" x="59.268" y="100.707"/><use xlink:href="#h" x="65.634" y="100.707"/></svg>