<svg xmlns="http://www.w3.org/2000/svg" width="70.829" height="76.52"><defs><clipPath id="a"><path d="M15 46h41v30.281H15Zm0 0"/></clipPath></defs><path fill="#CCF" stroke="#7F7FFF" stroke-miterlimit="10" stroke-width=".797" d="M43.832 9.68a8.503 8.503 0 0 0-8.504-8.504 8.506 8.506 0 0 0-8.504 8.504 8.506 8.506 0 0 0 8.504 8.504c4.7 0 8.504-3.809 8.504-8.504ZM43.832 38.027a8.5 8.5 0 0 0-8.504-8.504 8.503 8.503 0 0 0-8.504 8.504 8.506 8.506 0 0 0 8.504 8.504c4.7 0 8.504-3.808 8.504-8.504Zm0 0"/><path fill="#CCF" d="M43.832 66.371a8.503 8.503 0 0 0-8.504-8.504 8.506 8.506 0 0 0-8.504 8.504 8.504 8.504 0 1 0 17.008 0m0 0"/><g clip-path="url(#a)"><path fill="none" stroke="#7F7FFF" stroke-miterlimit="10" stroke-width=".797" d="M43.832 66.371a8.503 8.503 0 0 0-8.504-8.504 8.506 8.506 0 0 0-8.504 8.504 8.504 8.504 0 1 0 17.008 0Zm0 0"/></g><path fill="#CCC" stroke="#7F7F7F" stroke-miterlimit="10" stroke-width=".797" d="M58.008 43.695h11.336v-11.34H58.008ZM1.313 43.695h11.34v-11.34H1.312Zm0 0"/></svg>