<svg xmlns="http://www.w3.org/2000/svg" xmlns:xlink="http://www.w3.org/1999/xlink" width="56.414" height="51.194"><defs><clipPath id="d"><path d="M0 0h56.121v50.79H0Zm0 0"/></clipPath><clipPath id="e"><path d="M8 0h48.121v50.79H8Zm0 0"/></clipPath><clipPath id="f"><path d="M0 0h56.121v50.79H0Zm0 0"/></clipPath><clipPath id="g"><path d="M0 0h47v50.79H0Zm0 0"/></clipPath><path id="a" d="M4.75-2.36c0-1.562-.922-2.046-1.656-2.046-1.375 0-2.688 1.422-2.688 2.828C.406-.641 1 .109 2.031.109c.625 0 1.344-.234 2.094-.843.125.53.453.843.906.843.532 0 .844-.546.844-.703 0-.078-.062-.11-.125-.11-.062 0-.094.032-.125.11-.187.485-.547.485-.562.485-.313 0-.313-.782-.313-1.016 0-.203 0-.234.11-.344C5.796-2.656 6-3.812 6-3.812c0-.032-.016-.11-.125-.11-.094 0-.094.031-.14.219-.188.625-.516 1.375-.985 1.969ZM4.094-.983c-.89.765-1.657.875-2.047.875-.594 0-.906-.453-.906-1.094 0-.484.265-1.563.578-2.063.468-.734 1.015-.921 1.36-.921.983 0 .983 1.312.983 2.078 0 .375 0 .953.032 1.125m0 0"/><path id="b" d="M5.734-5.672c0-.75-.546-1.36-1.359-1.36-.578 0-.86.157-1.203.407C2.625-6.219 2.078-5.25 1.89-4.5L.297 1.828c0 .047.047.11.125.11s.11-.032.11-.047l.702-2.766c.188.61.625.969 1.36.969.719 0 1.469-.344 1.922-.781a2.49 2.49 0 0 0 .797-1.829c0-.718-.375-1.25-.735-1.484.578-.344 1.156-.953 1.156-1.672M3.938-4.016c-.126.047-.235.063-.485.063-.14 0-.328.015-.437-.031.03-.11.39-.079.5-.079.203 0 .297 0 .422.047m1.234-1.89c0 .703-.375 1.422-.89 1.734-.282-.11-.47-.125-.766-.125-.22 0-.782-.016-.782.313 0 .28.516.25.688.25.375 0 .531 0 .828-.125.375.359.422.672.438 1.125.015.578-.22 1.328-.5 1.718-.391.532-1.063.891-1.625.891-.766 0-1.141-.578-1.141-1.281 0-.094 0-.25.047-.438l.64-2.515c.22-.86.938-2.453 2.141-2.453.578 0 .922.312.922.906m0 0"/><path id="c" d="M.406-2.531C.796-3.671 1.891-3.687 2-3.687c1.5 0 1.61 1.75 1.61 2.53 0 .61-.047.782-.126.985-.218.719-.515 1.875-.515 2.14 0 .11.047.173.125.173.14 0 .219-.22.328-.594.234-.844.328-1.406.36-1.719.03-.125.046-.25.093-.39.313-.985.953-2.47 1.344-3.25.078-.126.187-.344.187-.391 0-.094-.093-.094-.11-.094-.03 0-.093 0-.124.063-.516.953-.922 1.953-1.313 2.953-.015-.297-.015-1.063-.406-2.032-.25-.609-.64-1.093-1.328-1.093-1.25 0-1.953 1.515-1.953 1.828 0 .094.094.094.203.094Zm0 0"/></defs><use xlink:href="#a" x="24.717" y="5.003"/><use xlink:href="#b" x="49.39" y="47.869"/><use xlink:href="#c" x=".518" y="46.554"/><g clip-path="url(#d)"><path fill="none" stroke="#000" stroke-miterlimit="10" stroke-width="2.389" d="m31.191 8.523 15.567 26.961"/></g><g clip-path="url(#e)"><path fill="none" stroke="#FFF" stroke-miterlimit="10" stroke-width="1.592" d="m31.191 8.523 15.567 26.961"/></g><path fill="none" stroke="#000" stroke-linecap="round" stroke-linejoin="round" stroke-miterlimit="10" stroke-width=".39899601" d="M48.375 33.008c-.883 1.258-1.047 3.363-.59 4.25-.543-.836-2.445-1.746-3.976-1.61"/><path fill="none" stroke="#000" stroke-miterlimit="10" stroke-width="2.389" d="M45.871 45.379H11.996"/><path fill="none" stroke="#FFF" stroke-miterlimit="10" stroke-width="1.592" d="M45.871 45.379H11.996"/><path fill="none" stroke="#000" stroke-linecap="round" stroke-linejoin="round" stroke-miterlimit="10" stroke-width=".399" d="M13.332 48.016c-.648-1.395-2.39-2.586-3.383-2.637.992-.05 2.735-1.246 3.383-2.637"/><g clip-path="url(#f)"><path fill="none" stroke="#000" stroke-miterlimit="10" stroke-width="2.389" d="m7.203 38.746 16.324-28.273"/></g><g clip-path="url(#g)"><path fill="none" stroke="#FFF" stroke-miterlimit="10" stroke-width="1.592" d="m7.203 38.746 16.324-28.273"/></g><path fill="none" stroke="#000" stroke-linecap="round" stroke-linejoin="round" stroke-miterlimit="10" stroke-width=".39899601" d="M20.578 10.309c1.527.136 3.434-.778 3.977-1.614-.457.887-.293 2.993.59 4.25"/></svg>