<svg xmlns="http://www.w3.org/2000/svg" width="87.23" height="62.48"><defs><clipPath id="a"><path d="M37 51h41v11.219H37Zm0 0"/></clipPath><clipPath id="b"><path d="M0 0h86.844v62.219H0Zm0 0"/></clipPath></defs><g clip-path="url(#a)"><path fill="none" stroke="#000" stroke-linecap="round" stroke-miterlimit="10" stroke-width=".399" d="M71.438 57.523a3.486 3.486 0 1 1-6.973 0 3.49 3.49 0 0 1-6.977 0 3.486 3.486 0 1 1-6.972 0 3.486 3.486 0 1 1-6.973 0"/></g><path fill="none" stroke="#000" stroke-linecap="round" stroke-miterlimit="10" stroke-width=".399" d="M21.219 41.676a3.48 3.48 0 0 1-4.676-1.559 3.487 3.487 0 0 1 1.559-4.68 3.487 3.487 0 0 1-3.122-6.234 3.486 3.486 0 0 1-4.675-1.558 3.486 3.486 0 0 1 1.558-4.68 3.487 3.487 0 0 1-3.117-6.238"/><g clip-path="url(#b)"><path fill="none" stroke="#000" stroke-miterlimit="10" stroke-width=".399" d="M85.836 57.523H71.438m-27.895 0H29.145l-7.926-15.847M8.746 16.73.796.836V.832"/></g></svg>