<svg xmlns="http://www.w3.org/2000/svg" xmlns:xlink="http://www.w3.org/1999/xlink" width="89.343" height="65.27"><defs><path id="a" d="M3.89-2.547c0-.844-.078-1.36-.343-1.875-.344-.703-1-.875-1.438-.875-1 0-1.375.75-1.484.969C.344-3.75.328-2.953.328-2.547c0 .531.016 1.328.406 1.969.36.594.954.75 1.375.75.391 0 1.063-.125 1.47-.906.296-.578.312-1.297.312-1.813M2.11-.062c-.266 0-.813-.125-.985-.954-.094-.453-.094-1.203-.094-1.625 0-.546 0-1.109.094-1.546.172-.813.781-.891.984-.891.266 0 .829.14.985.86.094.437.094 1.046.094 1.577 0 .47 0 1.188-.094 1.641-.172.828-.719.938-.985.938m0 0"/><path id="h" d="M2.5-5.078c0-.219-.016-.219-.234-.219-.328.313-.75.5-1.5.5v.266c.218 0 .64 0 1.109-.203v4.078c0 .297-.031.39-.781.39H.812V0c.329-.031 1.016-.031 1.376-.031s1.046 0 1.374.031v-.266h-.28c-.75 0-.782-.093-.782-.39Zm0 0"/><path id="b" d="M2.14-3.797c0-.187-.015-.187-.203-.187-.39.39-1 .39-1.218.39v.235c.156 0 .562 0 .922-.172v3.015c0 .204 0 .282-.625.282h-.25V0c.328-.031.797-.031 1.125-.031s.797 0 1.125.031v-.234h-.25c-.625 0-.625-.078-.625-.282Zm0 0"/><path id="c" d="M.969-1.984c.015-.297.031-.797.234-1.157.266-.468.656-.64 1.016-.64.14 0 .422.015.562.187-.219.047-.265.188-.265.297 0 .156.109.281.297.281.171 0 .28-.109.28-.296 0-.376-.265-.672-.874-.672-.938 0-1.844.812-1.844 2.093 0 1.454.672 2.016 1.469 2.016.234 0 .64-.031 1-.39.203-.188.422-.422.422-.954 0-.203-.016-.593-.375-.922-.22-.203-.485-.406-.985-.406-.422 0-.734.219-.937.563m.875 1.89C1-.094 1-1.125 1-1.359c0-.5.328-1 .875-1 .313 0 .484.125.625.312.172.235.172.516.172.828 0 .407-.016.61-.219.86-.14.172-.328.265-.61.265m0 0"/><path id="e" d="M1.766-1.984c.5 0 .843.343.843.953 0 .656-.39.937-.828.937C1.61-.094 1-.125.734-.469c.235-.031.329-.187.329-.343a.33.33 0 0 0-.344-.344.34.34 0 0 0-.344.36c0 .593.656.921 1.422.921.89 0 1.469-.562 1.469-1.156 0-.438-.328-.907-1.047-1.078.484-.157.86-.547.86-1.032 0-.484-.563-.843-1.282-.843-.703 0-1.234.328-1.234.812 0 .266.203.328.328.328.156 0 .312-.094.312-.312 0-.188-.125-.297-.297-.313.282-.312.828-.312.89-.312.298 0 .688.14.688.64 0 .329-.187.907-.796.938-.11 0-.266.015-.313.015-.062.016-.125.016-.125.11s.063.094.156.094Zm0 0"/><path id="f" d="M3.219-1.125H3c-.016.094-.078.484-.156.547-.047.047-.531.047-.625.047h-1.11l.766-.625c.203-.172.734-.547.922-.735.172-.171.422-.484.422-.906 0-.75-.672-1.187-1.485-1.187-.765 0-1.296.515-1.296 1.078 0 .297.25.344.312.344a.32.32 0 0 0 .328-.329c0-.125-.078-.328-.344-.328.141-.297.5-.531.922-.531.625 0 .953.469.953.953 0 .422-.28.86-.687 1.25L.5-.25C.438-.187.438-.187.438 0H3.03Zm0 0"/><path id="g" d="M1.016-3.328c.203.062.406.078.609.078.14 0 .469 0 .844-.203.11-.063.469-.313.469-.438 0-.078-.047-.093-.079-.093-.015 0-.015 0-.093.03a2.5 2.5 0 0 1-.907.173c-.296 0-.609-.063-.89-.156q-.07-.047-.094-.047c-.094 0-.094.078-.094.172v1.796c0 .094 0 .172.11.172.062 0 .078-.031.109-.078.156-.187.422-.39.89-.39.735 0 .735.89.735 1.078 0 .234-.016.578-.219.828a.95.95 0 0 1-.719.312C1.281-.094.86-.312.72-.672c.297 0 .328-.234.328-.297a.304.304 0 0 0-.313-.312.303.303 0 0 0-.296.328C.438-.406.953.125 1.703.125c.828 0 1.516-.578 1.516-1.328A1.3 1.3 0 0 0 1.89-2.5c-.375 0-.688.125-.875.281Zm0 0"/><path id="d" d="M2.266-2.906h.906c-.156.719-.297 1.312-.297 1.906 0 .047 0 .39.078.688.11.328.188.39.328.39.172 0 .36-.156.36-.344 0-.046 0-.062-.032-.14-.171-.36-.296-.75-.296-1.406 0-.172 0-.516.124-1.094h.97c.124 0 .202 0 .28-.063a.31.31 0 0 0 .125-.25c0-.219-.203-.219-.328-.219H1.61c-.171 0-.484 0-.875.391-.28.281-.5.64-.5.703 0 .078.047.094.11.094.094 0 .11-.016.156-.078.39-.578.86-.578 1.031-.578H2c-.234.844-.656 1.812-.953 2.39C1-.39.922-.234.922-.172c0 .172.125.25.25.25.312 0 .39-.297.562-.953Zm0 0"/></defs><path fill="none" stroke="#7F7F7F" stroke-linecap="round" stroke-miterlimit="10" stroke-width=".399" d="M77.25 48.98h1.992M72.785 32.316l1.723-.996M60.586 20.117l.996-1.726M43.922 15.652V13.66M27.258 20.117l-.996-1.726M15.059 32.313l-1.727-.997M10.594 48.977H8.602M43.922 55.953v-1.992M62.816 55.953v-1.992M25.023 53.96v1.993"/><path fill="none" stroke="#BFBFBF" stroke-linecap="square" stroke-miterlimit="10" stroke-width=".399" d="M72.266 48.98c0-15.656-12.688-28.347-28.344-28.347S15.574 33.324 15.574 48.977"/><path fill="none" stroke="#7F7F7F" stroke-linecap="square" stroke-miterlimit="10" stroke-width=".399" d="M77.25 48.98c0-18.41-14.922-33.328-33.328-33.328S10.594 30.574 10.594 48.977"/><path fill="none" stroke="#BFBFBF" stroke-linecap="square" stroke-miterlimit="10" stroke-width=".399" d="M43.922 48.98h28.344"/><path fill="none" stroke="#7F7F7F" stroke-linecap="square" stroke-miterlimit="10" stroke-width=".399" d="M43.922 53.96h28.344"/><path fill="none" stroke="#BFBFBF" stroke-linecap="square" stroke-miterlimit="10" stroke-width=".399" d="m43.922 48.98-28.348-.003"/><path fill="none" stroke="#7F7F7F" stroke-linecap="square" stroke-miterlimit="10" stroke-width=".399" d="M43.922 53.96H15.574"/><path fill="none" stroke="#000" stroke-miterlimit="10" stroke-width=".399" d="m51.773 48.512 2.817-2.82m-2.817 0 2.817 2.82M60.563 44.805l2.82-2.82m-2.82 0 2.82 2.82M68.621 39.352l2.817-2.82m-2.817 0 2.817 2.82"/><use xlink:href="#a" x="81.897" y="51.547"/><use xlink:href="#b" x="78.359" y="22.28"/><path fill="none" stroke="#000" stroke-miterlimit="10" stroke-width=".359" d="M78.36 23.547h3.652"/><use xlink:href="#c" x="78.359" y="28.664"/><use xlink:href="#d" x="83.209" y="25.538"/><use xlink:href="#b" x="65.433" y="9.352"/><path fill="none" stroke="#000" stroke-miterlimit="10" stroke-width=".359" d="M65.434 10.617h3.652"/><use xlink:href="#e" x="65.433" y="15.736"/><use xlink:href="#d" x="70.281" y="12.61"/><use xlink:href="#b" x="39.52" y="4.619"/><path fill="none" stroke="#000" stroke-miterlimit="10" stroke-width=".359" d="M39.52 5.887h3.652"/><use xlink:href="#f" x="39.52" y="11.003"/><use xlink:href="#d" x="44.37" y="7.878"/><use xlink:href="#f" x="13.608" y="9.35"/><path fill="none" stroke="#000" stroke-miterlimit="10" stroke-width=".359" d="M13.61 10.617h3.652"/><use xlink:href="#e" x="13.608" y="15.734"/><use xlink:href="#d" x="18.457" y="12.609"/><use xlink:href="#g" x=".68" y="22.277"/><path fill="none" stroke="#000" stroke-miterlimit="10" stroke-width=".359" d="M.68 23.543h3.652"/><use xlink:href="#c" x=".68" y="28.661"/><use xlink:href="#d" x="5.529" y="25.535"/><use xlink:href="#d" x=".795" y="50.692"/><use xlink:href="#a" x="41.803" y="63.745"/><use xlink:href="#h" x="60.7" y="63.745"/><use xlink:href="#h" x="22.905" y="63.745"/></svg>