<svg xmlns="http://www.w3.org/2000/svg" xmlns:xlink="http://www.w3.org/1999/xlink" width="93.98" height="58.898"><defs><path id="a" d="M.063-5.516c-.235-.015-.25.094-.25.235-.047.61-.172.61-.407.593l-2.14-.109c-.891-.047-1.578.625-1.657 2.11-.03.562-.046 1.78.829 1.828a.61.61 0 0 0 .656-.578c.015-.313-.172-.641-.578-.657A.7.7 0 0 0-4-1.906c-.031-.282-.031-.61-.031-.719.047-.75.484-1.094 1.234-1.047l.344.016c0 .719-.047 3.25 1.39 3.328C-.109-.266.141-1.5.173-2.188c.047-.796-.328-1.28-.734-1.53.312.015.765.046.812-1l.031-.47c0-.203.016-.312-.219-.328m-1.266 1.922c.969.063 1.047.985 1.031 1.235-.031.515-.39.89-.844.859-1.062-.047-1.125-1.64-1.125-2.14Zm0 0"/><path id="b" d="M-.047-7.5c-1.531-.562-2.922.11-3.5 1.625A2.77 2.77 0 0 0-3.594-4L-6.89-5.234l-.656 1.968.484.188c.266-.688.297-.781.735-.625L.438-1.172l.171-.469c-.14-.265-.28-.53-.421-.78.78-.36 1.156-.923 1.328-1.376.578-1.547.062-3.094-1.563-3.703m-.5 1.36c.5.187 1.14.421 1.438.827.422.563.312 1.141.187 1.485-.281.765-.953.969-1.265 1.031l-2.86-1.062a1.91 1.91 0 0 1-.187-1.72c.515-1.374 1.937-.843 2.687-.562m0 0"/><path id="c" d="M1.922-2.719 1.5-3.016l-.422.594-3.969-2.797L-3.984-3.5l.422.297c.406-.578.453-.64.828-.375L.359-1.391l-.468.657.422.297c.109-.235.593-.907.78-1.172.188-.266.626-.891.829-1.11M-4.36-6.422a.87.87 0 0 0-1.203.203A.887.887 0 0 0-5.36-5c.39.281.937.156 1.203-.203.281-.406.187-.953-.203-1.219m0 0"/><path id="d" d="M2.016-7.828c-.172-.219-.594-.375-.985-.063-.406.329-.61.813-.672 1.157-.578.093-1 .312-1.468.703C-2.375-5-2.312-3.86-1.781-3.22c.234.281.64.578 1.281.563 0 .328.094.797.36 1.125.328.39.812.562 1.156.547C.813-.75.438-.062.859.453c.454.563 1.547.688 3.266-.719C5.656-1.516 6-2.656 5.438-3.344c-.672-.812-1.422-.64-1.735-.578-.625.156-1.219.64-2.031 1.297-.219.188-.64.531-.703.547-.438.265-.828.015-.985-.172a.56.56 0 0 1-.156-.422c.64-.11 1.156-.531 1.297-.64 1.281-1.063 1.188-2.188.656-2.829A1.68 1.68 0 0 0 .688-6.75c.156-.344.328-.562.468-.719.016.063.016.125.11.235.156.203.437.28.687.078.234-.188.219-.469.063-.672M.813-5.344c.343.422.875 1.063.062 1.735-.797.64-1.328 0-1.672-.422-.344-.438-.875-1.078-.078-1.719.813-.672 1.344-.031 1.688.406m3.906 2.657c.265.328.375 1.124-.844 2.125s-1.984.765-2.266.406c-.484-.594.094-1.094.235-1.203l1.047-.86c.687-.547 1.422-.953 1.828-.469m0 0"/><path id="e" d="M3.734-5.64c-.156-.579-.843-.735-1.406-.594-.906.25-1.062 1.156-1.11 1.687v.016L.86-5.813-1-5.202l.14.5c.704-.203.798-.219.923.234l1 3.64-.797.22.14.5c.235-.11 1.11-.344 1.438-.438s1.265-.344 1.562-.39l-.14-.5-1.016.28-.578-2.093c-.094-.375-.531-2.234.828-2.61-.14.157-.156.391-.11.594a.69.69 0 0 0 .86.5c.281-.078.625-.39.484-.875m0 0"/><path id="f" d="M5.484-2.203c-.015-.172-.203-.14-.265-.14-.172.03-.188.062-.25.234-.203.812-.938 1.172-1.5 1.25-1.719.25-1.953-1.344-2.047-2l3.562-.516c.25-.031.329-.047.282-.344-.047-.36-.25-1.234-.875-1.703-.578-.453-1.266-.516-1.938-.406C.61-5.578-.219-4.203 0-2.703.234-1.047 1.61-.156 3.39-.406c1.797-.25 2.126-1.578 2.094-1.797M4.188-3.61l-2.813.406c-.062-.516-.11-.953.078-1.422a1.31 1.31 0 0 1 1.063-.797c1.265-.187 1.578 1.219 1.672 1.813m0 0"/><path id="g" d="M7.031-.375 7-.891c-.75.032-.828.032-.844-.437L5.75-8.625l-2.047.219.016.515c.75-.046.828-.046.86.422l.124 2.39c-.266-.202-.812-.5-1.64-.468-1.704.094-2.844 1.188-2.75 2.86C.406-.97 1.64-.017 3.234-.095a2.48 2.48 0 0 0 1.641-.718l.031.625ZM4.844-1.469c-.469.75-1.063.938-1.485.953-1.484.079-1.562-1.437-1.609-2.218-.031-.563-.062-1.172.172-1.625.328-.688 1.047-.797 1.312-.813.5-.031 1.032.156 1.438.656Zm0 0"/><path id="h" d="M2.656.406 2.641-4.5l-1.828.094v.468c.171 0 .39 0 .53.016.22.047.22.172.22.39L1.578.423c0 .5-.14 1.219-.734 1.219-.172 0-.25-.032-.39-.063a.62.62 0 0 0 .233-.5.617.617 0 0 0-.624-.625c-.375 0-.625.281-.625.64 0 .563.609.907 1.421.907.86 0 1.797-.547 1.797-1.594m-.015-6.468a.757.757 0 0 0-.766-.766.774.774 0 1 0 0 1.547.78.78 0 0 0 .766-.782m0 0"/><path id="i" d="M6.125 0v-.469c-.61 0-.687 0-.687-.39v-3.625l-1.813.078v.468c.61 0 .688 0 .688.391v1.906c0 .813-.516 1.344-1.235 1.344-.781 0-.812-.25-.812-.797v-3.39l-1.813.078v.468c.61 0 .688 0 .688.391v2.328c0 1.063.797 1.282 1.797 1.282.25 0 .968 0 1.421-.782v.782Zm0 0"/><path id="j" d="M2.844-.047v-.469l-.61.016-.062-4.016-1.735.11v.468c.594-.015.657-.015.672.376l.047 3.078L.47-.47V0l1.219-.062ZM2.28-6.078a.75.75 0 0 0-.781-.766.784.784 0 0 0-.781.782.805.805 0 0 0 .797.765c.437-.016.78-.36.765-.781m0 0"/><path id="k" d="M4.719-1.36c0-.14-.14-.14-.235-.124-.187 0-.187.03-.25.156-.218.64-.703.844-1.203.86-1.39.062-1.453-1.391-1.469-1.86-.015-.563-.062-1.844 1.22-1.89.359-.016.515-.016.656.015-.188.172-.188.375-.188.469a.61.61 0 0 0 .64.609c.313-.016.626-.25.61-.656-.031-.86-1.187-.875-1.766-.844C.938-4.562.25-3.391.281-2.235.344-.905 1.312.016 2.844-.046 4.469-.109 4.719-1.28 4.719-1.359m0 0"/><path id="l" d="m5.375-4.5-.047-.469a7 7 0 0 1-.766.11l-.906.062.047.469s.469-.047.469.062l-.047.125-.906 2.547L1.703-4.14l.531-.046-.046-.47-1.22.141-1.124.079.047.468.625-.062L2.75-.266l-.187.5c-.172.5-.422 1.22-1.126 1.282-.14.015-.156 0-.234-.016.094-.047.297-.203.266-.562C1.437.609 1.172.39.829.422c-.266.031-.548.25-.5.64.046.5.546.86 1.14.797.75-.078 1.265-.734 1.5-1.328l1.687-4.75c.047-.156.078-.218.719-.281m0 0"/><path id="m" d="M5.219-1.812C5.14-2.047 5.016-2 4.89-1.97c-.594.157-.625.047-.703-.187l-.61-2.047c-.25-.844-1.11-1.266-2.531-.828-.531.156-1.688.562-1.438 1.406.125.422.5.484.766.406a.596.596 0 0 0 .422-.765.71.71 0 0 0-.375-.422 9 9 0 0 1 .672-.266c.718-.219 1.187.078 1.406.797l.094.328C1.922-3.312-.47-2.484-.062-1.109c.28.906 1.515.734 2.171.547.766-.235 1.11-.766 1.188-1.235.094.297.219.734 1.219.438l.453-.141c.187-.047.312-.094.25-.312m-2.266-.532c.281.922-.547 1.313-.781 1.39-.5.141-.985-.077-1.11-.515C.75-2.484 2.234-3.079 2.689-3.25Zm0 0"/><path id="n" d="M4.156-4.844C3.516-6 2.266-6.39 1.016-5.687c-.657.359-.985.906-1.078 1.14l-.235-.422-1.515.922.234.422c.531-.297.594-.328.766 0L1.64.765l-.594.329.219.406L2.344.89l1.11-.593-.22-.406-.609.328-.906-1.625c.562.078.984-.032 1.344-.235 1.312-.718 1.765-2 1.093-3.203m-1.125.625c.688 1.235.328 2.016-.234 2.328-.125.063-.531.297-1.188.047-.171-.062-.187-.078-.265-.25L.313-3.938C.219-4.093.233-4.108.28-4.311c.156-.547.594-.844.782-.954.578-.328 1.359-.062 1.968 1.047m0 0"/><path id="o" d="M2.469-5.875c-.969-.906-2.266-.89-3.25.156-.5.547-.656 1.14-.672 1.422l-.344-.328-1.172 1.328.344.328c.422-.437.484-.5.766-.25L1.813.22l-.485.5.328.328L2.5.109l.875-.875-.328-.328-.469.5-1.36-1.265c.548-.094.923-.328 1.204-.625 1.031-1.094 1.062-2.453.047-3.391m-.875.922c1.031.953.922 1.828.484 2.297-.094.11-.422.453-1.11.406-.171 0-.187-.016-.327-.14L-.891-3.845c-.14-.125-.156-.156-.14-.344-.032-.578.281-.984.437-1.156.438-.468 1.266-.484 2.188.39m0 0"/><path id="p" d="M1.438-2.547 1.03-2.78l-.343.594-5.625-3.157-.797 1.578.406.235c.297-.547.328-.594.672-.406L.156-1.235l-.328.593.406.235.563-1.078Zm0 0"/><path id="q" d="M.484-5.031c-.156-.063-.203.11-.218.156-.063.172-.016.203.093.297.391.36.5 1.016.297 1.61-.468 1.343-1.719.921-2.187.765l.984-2.86c.063-.203.094-.296-.172-.39-.281-.094-1-.281-1.625.031-.469.234-.797.672-1.015 1.328-.516 1.5.172 2.657 1.343 3.063C-.75-.594.484-1.22 1.016-2.75 1.53-4.234.64-4.984.484-5.031m-1.546.453-.782 2.266c-.375-.141-.75-.297-1-.61a1.16 1.16 0 0 1-.187-1.062c.375-1.11 1.64-.688 1.969-.594m0 0"/><path id="r" d="M-.328-2.453c-.422-.078-.828.172-.906.61a.79.79 0 0 0 .625.906.78.78 0 0 0 .906-.61.77.77 0 0 0-.625-.906m0 0"/></defs><path fill="none" stroke="#7F7F7F" stroke-miterlimit="10" stroke-width=".199" d="M7.82 57.742h85.043M7.82 29.395h85.043M7.82 1.059h85.043M7.82 57.742V1.047m28.348 56.695V1.047m28.348 56.695V1.047m28.336 56.695V1.047"/><use xlink:href="#a" x="7.745" y="57.738"/><use xlink:href="#b" x="8.523" y="48.338"/><use xlink:href="#c" x="11.347" y="41.403"/><use xlink:href="#d" x="13.385" y="38.181"/><use xlink:href="#e" x="22.787" y="32.14" fill="red"/><use xlink:href="#f" x="28.097" y="30.684" fill="red"/><use xlink:href="#g" x="34.172" y="29.816" fill="red"/><use xlink:href="#h" x="45.444" y="29.404"/><use xlink:href="#i" x="48.939" y="29.398"/><use xlink:href="#j" x="55.304" y="29.387"/><use xlink:href="#k" x="58.48" y="29.358"/><use xlink:href="#l" x="63.571" y="29.186"/><use xlink:href="#m" x="73.365" y="27.957"/><use xlink:href="#n" x="78.753" y="26.421"/><use xlink:href="#o" x="84.381" y="23.321"/><use xlink:href="#p" x="88.59" y="18.537"/><use xlink:href="#q" x="90.228" y="15.786"/><use xlink:href="#r" x="91.855" y="10.788"/></svg>