<svg xmlns="http://www.w3.org/2000/svg" xmlns:xlink="http://www.w3.org/1999/xlink" width="94.412" height="60.194"><defs><path id="a" d="M2.25-1.625c.125-.125.453-.39.594-.5.484-.453.953-.89.953-1.61 0-.953-.797-1.562-1.781-1.562-.97 0-1.594.719-1.594 1.438 0 .39.312.437.422.437.172 0 .422-.11.422-.422 0-.406-.407-.406-.5-.406.234-.594.765-.781 1.156-.781.734 0 1.125.625 1.125 1.297 0 .828-.578 1.437-1.531 2.39l-1 1.047C.422-.219.422-.203.422 0h3.14l.235-1.422h-.25c-.016.156-.078.547-.172.703-.047.063-.656.063-.781.063H1.172Zm0 0"/><path id="b" d="M3.89-2.547c0-.844-.078-1.36-.343-1.875-.344-.703-1-.875-1.438-.875-1 0-1.375.75-1.484.969C.344-3.75.328-2.953.328-2.547c0 .531.016 1.328.406 1.969.36.594.954.75 1.375.75.391 0 1.063-.125 1.47-.906.296-.578.312-1.297.312-1.813M2.11-.062c-.266 0-.813-.125-.985-.954-.094-.453-.094-1.203-.094-1.625 0-.546 0-1.109.094-1.546.172-.813.781-.891.984-.891.266 0 .829.14.985.86.094.437.094 1.046.094 1.577 0 .47 0 1.188-.094 1.641-.172.828-.719.938-.985.938m0 0"/><path id="c" d="M1.11-4.484c.109.03.421.125.765.125 1 0 1.594-.703 1.594-.828 0-.094-.047-.11-.094-.11-.016 0-.031 0-.094.031a3 3 0 0 1-1.11.22c-.468 0-.858-.11-1.108-.22-.079-.03-.094-.03-.11-.03-.094 0-.094.077-.094.234v2.328c0 .14 0 .234.125.234.063 0 .079-.031.125-.094.094-.11.391-.515 1.079-.515.437 0 .656.359.734.515.125.281.14.656.14.953s0 .735-.218 1.079c-.156.25-.485.484-.906.484A1.27 1.27 0 0 1 .734-.922c.016.016.079.016.079.016.218 0 .406-.14.406-.39a.39.39 0 0 0-.39-.407c-.157 0-.407.078-.407.422 0 .718.625 1.453 1.531 1.453 1 0 1.844-.781 1.844-1.766 0-.922-.672-1.75-1.61-1.75-.39 0-.765.125-1.078.406Zm0 0"/><path id="d" d="M2.016-2.656c.625 0 1.03.453 1.03 1.297 0 1-.562 1.28-.983 1.28-.438 0-1.047-.155-1.329-.577.297 0 .5-.188.5-.438 0-.265-.187-.437-.453-.437-.203 0-.437.125-.437.453 0 .75.812 1.25 1.734 1.25 1.047 0 1.797-.734 1.797-1.531 0-.672-.531-1.266-1.344-1.453.625-.22 1.11-.75 1.11-1.391 0-.64-.72-1.094-1.547-1.094-.86 0-1.5.453-1.5 1.063 0 .297.187.422.406.422.25 0 .406-.172.406-.407 0-.297-.265-.406-.437-.406.344-.437.953-.469 1.094-.469.203 0 .812.063.812.89 0 .548-.234.891-.344 1.016-.234.25-.422.266-.906.297-.156 0-.219.016-.219.125 0 .11.078.11.219.11Zm0 0"/><path id="e" d="M3.14-5.156c0-.157 0-.219-.171-.219-.094 0-.11 0-.188.11L.234-1.564v.25h2.25v.672c0 .297-.015.375-.64.375h-.172V0c.672-.031.687-.031 1.14-.031.454 0 .47 0 1.141.031v-.266h-.172c-.625 0-.64-.078-.64-.375v-.671h.843v-.25h-.843Zm-.593.64v2.954H.516Zm0 0"/><path id="f" d="M2.5-5.078c0-.219-.016-.219-.234-.219-.328.313-.75.5-1.5.5v.266c.218 0 .64 0 1.109-.203v4.078c0 .297-.031.39-.781.39H.812V0c.329-.031 1.016-.031 1.376-.031s1.046 0 1.374.031v-.266h-.28c-.75 0-.782-.093-.782-.39Zm0 0"/></defs><path fill="none" stroke="#7F7F7F" stroke-linecap="round" stroke-miterlimit="10" stroke-width=".399" d="M80.355 43.86h1.993M70.594 20.293 72 18.883M47.027 10.531V8.54M23.46 20.293l-1.41-1.41M13.7 43.86h-1.993M47.027 50.832V48.84M65.922 50.832V48.84M28.129 48.84v1.992"/><path fill="none" stroke="#BFBFBF" stroke-linecap="square" stroke-miterlimit="10" stroke-width=".399" d="M75.371 43.86c0-15.657-12.687-28.348-28.344-28.348-15.656 0-28.347 12.691-28.347 28.347"/><path fill="none" stroke="#7F7F7F" stroke-linecap="square" stroke-miterlimit="10" stroke-width=".399" d="M80.355 43.86c0-18.407-14.921-33.329-33.328-33.329-18.41 0-33.328 14.922-33.328 33.328"/><path fill="none" stroke="#BFBFBF" stroke-linecap="square" stroke-miterlimit="10" stroke-width=".399" d="M47.027 43.86h28.344"/><path fill="none" stroke="#7F7F7F" stroke-linecap="square" stroke-miterlimit="10" stroke-width=".399" d="M47.027 48.84h28.344"/><path fill="none" stroke="#BFBFBF" stroke-linecap="square" stroke-miterlimit="10" stroke-width=".399" d="M47.027 43.86H18.68"/><path fill="none" stroke="#7F7F7F" stroke-linecap="square" stroke-miterlimit="10" stroke-width=".399" d="M47.027 48.84H18.68"/><path fill="none" stroke="#000" stroke-miterlimit="10" stroke-width=".399" d="m55.066 45.27 2.817-2.82m-2.817 0 2.817 2.82M45.617 26.371l2.817-2.816m-2.817 0 2.817 2.816M17.27 45.27l2.82-2.82m-2.82 0 2.82 2.82"/><use xlink:href="#a" x="85.002" y="46.428"/><use xlink:href="#b" x="89.237" y="46.428"/><use xlink:href="#a" x="74.657" y="16.229"/><use xlink:href="#c" x="78.892" y="16.229"/><use xlink:href="#d" x="42.791" y="5.884"/><use xlink:href="#b" x="47.026" y="5.884"/><use xlink:href="#d" x="10.926" y="16.229"/><use xlink:href="#c" x="15.161" y="16.229"/><use xlink:href="#e" x=".581" y="46.428"/><use xlink:href="#b" x="4.816" y="46.428"/><use xlink:href="#b" x="44.908" y="58.626"/><use xlink:href="#f" x="63.806" y="58.626"/><use xlink:href="#f" x="26.011" y="58.626"/></svg>