<svg xmlns="http://www.w3.org/2000/svg" xmlns:xlink="http://www.w3.org/1999/xlink" width="74.019" height="43.85"><defs><path id="a" d="M8.328 0v-.469h-.984L4.828-3.953 6.5-6.156c.11-.14.125-.157.469-.188.234-.031.297-.031.578-.031h.281v-.469c-.406.032-.906.032-1.328.032-.39 0-1.156 0-1.516-.032v.469c.172 0 .563 0 .922.11-.015.03-.062.077-.078.109L4.5-4.406 3.078-6.375h.828v-.469c-.406.032-1.36.032-1.797.032-.406 0-1.265 0-1.625-.032v.469h.985l2.203 3.063-2 2.64c-.094.125-.11.14-.438.172-.203.016-.406.031-.609.031H.344V0c.406-.031.906-.031 1.328-.031.39 0 1.156 0 1.516.031v-.469c-.172 0-.563 0-.922-.11.015-.015.062-.077.093-.109L4-2.874 5.734-.469h-.828V0c.407-.031 1.36-.031 1.797-.031.406 0 1.266 0 1.625.031m0 0"/><path id="b" d="M8.469-6.375v-.469l-1.14.032c-.391 0-.954 0-1.313-.032v.469c.218 0 .5 0 .75.11-.016.03-.016.062-.063.109l-1.875 2.75-2.016-2.969h.844v-.469c-.406.032-1.375.032-1.828.032-.39 0-1.297 0-1.64-.032v.469h.984l2.484 3.64v2.266H2.578V0c.36-.031 1.328-.031 1.75-.031s1.39 0 1.766.031v-.469H5v-2.265l2.344-3.438c.093-.14.172-.14.39-.172.172-.015.344-.031.516-.031Zm0 0"/></defs><path fill="#FFF200" d="M.527 38.781V4.926C.527 2.726 2.312.94 4.512.94h64.023c2.2 0 3.985 1.786 3.985 3.985V38.78c0 2.2-1.786 3.985-3.985 3.985H4.512A3.986 3.986 0 0 1 .527 38.78m0 0"/><use xlink:href="#a" x="3.849" y="39.444"/><use xlink:href="#b" x="60.541" y="11.098"/></svg>