<svg xmlns="http://www.w3.org/2000/svg" xmlns:xlink="http://www.w3.org/1999/xlink" width="439.598" height="263.018"><defs><path id="a" d="M1.781-1.14C1.391-.485 1-.345.563-.314c-.125.016-.22.016-.22.204 0 .062.063.109.141.109.266 0 .579-.031.844-.031.344 0 .688.031 1 .031.063 0 .188 0 .188-.187 0-.11-.079-.125-.157-.125-.218-.016-.468-.094-.468-.344 0-.125.062-.235.14-.375l.766-1.266h2.5c.016.203.156 1.563.156 1.656 0 .297-.516.329-.719.329-.14 0-.234 0-.234.203C4.5 0 4.61 0 4.64 0c.407 0 .829-.031 1.235-.031.25 0 .89.031 1.14.031.048 0 .173 0 .173-.203 0-.11-.094-.11-.235-.11-.61 0-.61-.062-.64-.359l-.61-6.219c-.016-.203-.016-.25-.187-.25-.157 0-.203.079-.266.172Zm1.203-1.47 1.954-3.296.328 3.297Zm0 0"/><path id="b" d="M1.594-.781c-.094.39-.125.469-.907.469-.171 0-.265 0-.265.203C.422 0 .516 0 .688 0H4.25C5.828 0 7-1.172 7-2.156c0-.719-.578-1.297-1.547-1.406 1.031-.188 2.078-.922 2.078-1.876 0-.734-.656-1.375-1.843-1.375h-3.36c-.187 0-.281 0-.281.204 0 .109.094.109.281.109.016 0 .203 0 .375.016.172.03.266.03.266.172 0 .03-.016.062-.031.187Zm1.5-2.875.625-2.469c.094-.344.11-.375.531-.375h1.297c.875 0 1.078.594 1.078 1.031 0 .875-.86 1.813-2.062 1.813ZM2.656-.312h-.219c-.109-.016-.14-.032-.14-.11 0-.031 0-.047.062-.219l.688-2.78h1.875c.953 0 1.156.733 1.156 1.155 0 .985-.89 1.954-2.078 1.954Zm0 0"/><path id="c" d="M7.578-6.922c0-.031-.016-.11-.11-.11-.03 0-.046.016-.155.126l-.688.765c-.094-.14-.547-.89-1.656-.89C2.734-7.031.5-4.828.5-2.516.5-.875 1.672.22 3.203.22c.86 0 1.625-.39 2.156-.86.922-.812 1.094-1.718 1.094-1.75 0-.109-.11-.109-.125-.109-.062 0-.11.031-.125.11-.094.28-.328 1-1.016 1.578-.687.546-1.312.718-1.828.718-.89 0-1.953-.515-1.953-2.062 0-.578.203-2.188 1.203-3.36.61-.703 1.547-1.203 2.438-1.203 1.016 0 1.61.766 1.61 1.922 0 .406-.032.406-.032.516 0 .093.11.093.14.093.126 0 .126-.015.188-.203Zm0 0"/><path id="d" d="M1.578-.781c-.094.39-.11.469-.906.469-.156 0-.266 0-.266.187C.406 0 .484 0 .672 0h3.312c2.063 0 4.032-2.11 4.032-4.281 0-1.407-.844-2.532-2.344-2.532H2.328c-.187 0-.297 0-.297.188 0 .125.078.125.281.125.126 0 .313.016.422.016.172.03.22.046.22.172 0 .03 0 .062-.032.187Zm2.156-5.344c.094-.344.11-.375.547-.375h1.063c.968 0 1.797.531 1.797 1.844 0 .484-.188 2.125-1.047 3.218A2.92 2.92 0 0 1 3.797-.312H2.453c-.094-.016-.125-.032-.125-.11 0-.031 0-.047.047-.219Zm0 0"/><path id="e" d="M7.063-2.328c.015-.047.046-.11.046-.14 0 0 0-.11-.125-.11-.093 0-.109.062-.125.125-.656 1.469-1.015 2.14-2.718 2.14H2.468c-.109-.015-.14-.03-.14-.109 0-.031 0-.047.047-.219l.688-2.734h.984c.844 0 .844.219.844.469 0 .062 0 .187-.063.484-.016.047-.031.078-.031.11 0 .046.031.109.125.109.078 0 .11-.047.156-.203l.563-2.328c0-.063-.047-.11-.125-.11-.079 0-.11.063-.125.172-.22.766-.391 1-1.313 1h-.937l.593-2.406c.094-.36.11-.39.547-.39h1.407c1.203 0 1.515.28 1.515 1.109 0 .234 0 .25-.047.53 0 .048-.015.126-.015.173s.03.125.125.125c.109 0 .125-.063.14-.25l.203-1.735c.032-.265-.015-.265-.265-.265H2.297c-.188 0-.297 0-.297.203 0 .11.094.11.281.11.375 0 .656 0 .656.171 0 .047 0 .063-.062.25L1.563-.78c-.094.39-.11.469-.907.469-.172 0-.281 0-.281.187C.375 0 .469 0 .656 0h5.172c.234 0 .25-.016.313-.172Zm0 0"/><path id="f" d="M3.016-3.234h.968c.75 0 .829.156.829.437 0 .078 0 .188-.063.5-.031.047-.031.078-.031.11 0 .078.062.109.11.109.109 0 .109-.031.155-.203l.547-2.172c.032-.11.032-.125.032-.156a.117.117 0 0 0-.125-.11c-.094 0-.11.047-.141.219-.219.766-.438.953-1.297.953h-.906l.64-2.531c.094-.36.11-.39.547-.39h1.313c1.218 0 1.453.327 1.453 1.093 0 .234 0 .266-.031.547C7-4.703 7-4.688 7-4.656c0 .047.031.125.125.125.11 0 .11-.063.125-.25l.203-1.735c.031-.265-.016-.265-.266-.265h-4.89c-.188 0-.297 0-.297.203 0 .11.094.11.281.11.375 0 .656 0 .656.171 0 .047 0 .063-.062.25L1.563-.78c-.094.39-.11.469-.907.469-.172 0-.281 0-.281.187C.375 0 .5 0 .531 0c.282 0 1.031-.031 1.313-.031C2.172-.031 3 0 3.328 0c.094 0 .203 0 .203-.187 0-.079-.047-.11-.047-.11-.03-.016-.062-.016-.28-.016-.22 0-.267 0-.517-.015-.296-.031-.328-.078-.328-.203 0-.016 0-.078.047-.219Zm0 0"/><path id="g" d="M7.61-6.047c.093-.36.109-.453.827-.453.266 0 .344 0 .344-.203 0-.11-.11-.11-.14-.11-.282 0-1 .032-1.282.032-.28 0-.984-.032-1.28-.032-.079 0-.188 0-.188.204 0 .109.093.109.28.109.016 0 .204 0 .376.016.187.03.266.03.266.172 0 .03 0 .046-.032.187l-.593 2.422H3.14l.593-2.344c.079-.36.11-.453.829-.453.265 0 .343 0 .343-.203 0-.11-.11-.11-.14-.11-.282 0-1 .032-1.282.032-.28 0-.984-.032-1.28-.032-.079 0-.188 0-.188.204 0 .109.093.109.28.109.017 0 .204 0 .376.016.172.03.265.03.265.172 0 .03 0 .062-.03.187L1.562-.781c-.094.39-.11.469-.907.469-.172 0-.265 0-.265.203C.39 0 .516 0 .53 0c.282 0 .985-.031 1.266-.031.203 0 .422.015.64.015.22 0 .438.016.641.016.078 0 .203 0 .203-.203 0-.11-.094-.11-.281-.11-.375 0-.64 0-.64-.171 0-.063.015-.11.015-.172l.688-2.735h3.03c-.405 1.657-.64 2.61-.687 2.75-.093.329-.281.329-.906.329-.14 0-.234 0-.234.203 0 .109.125.109.14.109.282 0 .985-.031 1.266-.031.203 0 .422.015.64.015.22 0 .438.016.641.016.078 0 .203 0 .203-.203 0-.11-.093-.11-.281-.11-.36 0-.64 0-.64-.171 0-.063.015-.11.03-.172Zm0 0"/><path id="h" d="M7.578-6.922c0-.031-.016-.11-.11-.11-.03 0-.046.016-.155.126l-.688.765c-.094-.14-.547-.89-1.656-.89C2.734-7.031.5-4.828.5-2.516.5-.922 1.61.22 3.219.22c.437 0 .89-.094 1.25-.235.5-.203.687-.406.86-.609.093.25.359.61.452.61.047 0 .078-.032.078-.032.016-.015.11-.406.157-.61l.187-.765.14-.516c.11-.437.11-.468.688-.468.047 0 .157-.016.157-.203 0-.079-.047-.11-.125-.11-.235 0-.829.031-1.047.031-.313 0-1.094-.03-1.407-.03-.078 0-.203 0-.203.202 0 .11.078.11.297.11.016 0 .297 0 .531.015.266.032.313.063.313.188 0 .094-.11.531-.219.906C5.047-.203 3.766-.094 3.406-.094c-.953 0-2-.562-2-2.093 0-.313.094-1.954 1.14-3.25.548-.672 1.517-1.282 2.5-1.282 1.016 0 1.61.766 1.61 1.922 0 .406-.031.406-.031.516 0 .093.11.093.14.093.126 0 .126-.015.188-.203Zm0 0"/><path id="i" d="M5.078-4.031a.5.5 0 0 1-.047-.14s.172-.141.282-.22l1.75-1.343C8-6.437 8.39-6.47 8.688-6.5c.078-.016.171-.016.171-.203 0-.031-.03-.11-.109-.11-.219 0-.469.032-.703.032-.36 0-.75-.032-1.11-.032-.062 0-.187 0-.187.204 0 .062.047.093.125.109.219.016.297.063.297.203 0 .188-.297.422-.36.469L2.938-2.844l.797-3.203c.079-.36.11-.453.829-.453.25 0 .343 0 .343-.203 0-.078-.078-.11-.14-.11-.282 0-1 .032-1.282.032-.28 0-.984-.032-1.28-.032-.063 0-.204 0-.204.188 0 .125.094.125.297.125.125 0 .312.016.422.016.156.03.219.046.219.172 0 .03 0 .062-.032.187L1.562-.781c-.093.39-.109.469-.906.469-.172 0-.281 0-.281.187C.375 0 .5 0 .531 0c.282 0 .985-.031 1.266-.031.203 0 .422.015.64.015.22 0 .438.016.641.016.078 0 .203 0 .203-.203 0-.11-.094-.11-.281-.11-.375 0-.64 0-.64-.171 0-.079.046-.297.078-.438.14-.531.28-1.047.406-1.578l1.484-1.156L5.484-.97c.125.266.125.297.125.344 0 .313-.437.313-.53.313-.11 0-.22 0-.22.203C4.86 0 4.984 0 5 0c.406 0 .828-.031 1.219-.031.218 0 .765.031.984.031.047 0 .172 0 .172-.203 0-.11-.11-.11-.203-.11-.406 0-.531-.093-.688-.437Zm0 0"/><path id="j" d="M3.734-6.031c.079-.36.11-.469 1.047-.469.297 0 .375 0 .375-.187 0-.125-.11-.125-.156-.125-.328 0-1.14.03-1.469.03-.297 0-1.031-.03-1.328-.03-.062 0-.187 0-.187.203 0 .109.093.109.28.109.017 0 .204 0 .376.016.172.03.265.03.265.172 0 .03 0 .062-.03.187L1.562-.781c-.094.39-.11.469-.907.469-.172 0-.265 0-.265.203C.39 0 .484 0 .656 0h4.625c.235 0 .235 0 .297-.172l.797-2.156c.031-.11.031-.125.031-.14 0-.032-.031-.11-.11-.11-.093 0-.109.062-.171.219-.344.906-.781 2.047-2.5 2.047H2.468c-.109-.016-.14-.032-.14-.11 0-.031 0-.047.047-.219Zm0 0"/><path id="k" d="M6.64-4.39c0-.985-.906-1.766-2.437-1.766H.375v.437h.969v5.282H.375V0c.313-.031 1.25-.031 1.61-.031.374 0 1.312 0 1.624.031v-.437h-.968v-2.25h1.656c1.281 0 2.344-.657 2.344-1.704m-1.406 0c0 .624 0 1.312-1.375 1.312H2.594v-2.64h1.265c1.375 0 1.375.687 1.375 1.327m0 0"/><path id="l" d="M4.078-3.281c0-.453-.469-.75-1-.75-.625 0-1 .453-1.203.968h-.016v-.968L.375-3.97v.438c.531 0 .61 0 .61.36v2.734h-.61V0l1.14-.031c.22 0 .75 0 1.22.031v-.437h-.766v-1.516c0-.656.25-1.703 1.11-1.719a.57.57 0 0 0-.142.39c0 .391.313.579.563.579.297 0 .578-.203.578-.578m0 0"/><path id="m" d="M5-1.953c0-1.172-.828-2.11-2.344-2.11-1.578 0-2.36.985-2.36 2.11 0 1.11.813 2 2.345 2C4.25.047 5-.891 5-1.953m-1.187-.094c0 .766 0 1.719-1.157 1.719-1.172 0-1.172-.953-1.172-1.719 0-.765 0-1.656 1.157-1.656 1.172 0 1.172.89 1.172 1.656m0 0"/><path id="n" d="M5.531-1.984c0-1.188-.812-2.047-2.172-2.047-.718 0-1.218.297-1.39.422v-.422L.375-3.97v.438c.172 0 .313 0 .438.031.171.031.171.125.171.313v4.484H.375v.437L1.5 1.72l1.14.015v-.437h-.609v-1.64c.531.39 1.016.39 1.188.39 1.406 0 2.312-.844 2.312-2.031M4.344-2c0 1.25-.64 1.688-1.235 1.688-.453 0-.843-.25-1.078-.625v-2.157a1.55 1.55 0 0 1 1.188-.562c.625 0 1.125.562 1.125 1.656m0 0"/><path id="o" d="M3.828-1.25c0-.469-.265-.75-.422-.89-.406-.329-.687-.376-1.39-.5-.438-.063-1-.157-1-.563 0-.531.828-.531 1.03-.531 1 0 1.032.53 1.063.765 0 .125.125.125.22.125.218 0 .233-.047.233-.265v-.688c0-.172 0-.265-.187-.265-.078 0-.234.078-.39.156-.282-.125-.641-.156-.938-.156-.266 0-1.703 0-1.703 1.187 0 .938 1.187 1.14 1.5 1.188.734.125 1.328.218 1.328.734 0 .64-.844.64-1.047.64-.453 0-1.047-.109-1.297-.937-.047-.156-.062-.172-.25-.172-.234 0-.234.047-.234.266v.953c0 .156 0 .25.187.25.063 0 .078 0 .282-.125l.234-.14c.422.265.906.265 1.078.265.266 0 1.703 0 1.703-1.297m0 0"/><path id="p" d="M2.625 0v-.437h-.547v-3.594L.5-3.97v.438c.516 0 .578 0 .578.36v2.734h-.61V0c.595-.016.72-.031 1.095-.031.437 0 .546.015 1.062.031m-.453-5.422a.713.713 0 0 0-.703-.719.71.71 0 0 0-.703.704.7.7 0 0 0 .703.703.697.697 0 0 0 .703-.688m0 0"/><path id="q" d="M3.531-1.11v-.468h-.469v.453c0 .625-.312.797-.546.797C2-.328 2-.875 2-1.078v-2.469h1.36v-.437H2v-1.703h-.453c-.016.828-.438 1.765-1.344 1.78v.36h.75v2.438c0 1.03.89 1.156 1.438 1.156.703 0 1.14-.5 1.14-1.156m0 0"/><path id="r" d="M5.656 0v-.437h-.61v-2.297c0-1.063-.655-1.297-1.437-1.297-1.093 0-1.53.797-1.593.937H2v-.937L.453-3.97v.438c.531 0 .61 0 .61.36v2.734h-.61V0l1.125-.031L2.718 0v-.437H2.11v-1.844c0-1 .829-1.39 1.36-1.39.344 0 .515.187.515.858v2.376h-.609V0l1.14-.031Zm0 0"/><path id="s" d="M3.656 0v-.437H2.641V-5.72h1.015v-.437c-.312.031-1.281.031-1.656.031s-1.36 0-1.672-.031v.437h1.016v5.282H.328V0C.641-.031 1.61-.031 1.984-.031c.391 0 1.36 0 1.672.031m0 0"/><path id="N" d="M5.922-2.469h-.453c-.063.61-.219 2.031-1.86 2.031h-.968v-5.28h1.218v-.438c-.375.031-1.39.031-1.812.031-.375 0-1.36 0-1.672-.031v.437h.969v5.282H.375V0h5.281Zm0 0"/><path id="O" d="M4.563-1.047c0-.172-.172-.172-.235-.172-.156 0-.172.047-.234.172-.203.469-.75.719-1.313.719-1.281 0-1.297-1.156-1.297-1.594h2.782c.187 0 .297 0 .297-.25 0-.203-.016-1-.594-1.484-.406-.328-.953-.406-1.39-.406-1.532 0-2.282.968-2.282 2.046 0 1.172.89 2.063 2.406 2.063 1.485 0 1.86-.938 1.86-1.094M3.688-2.25H1.483c.016-.406.063-1.453 1.094-1.453 1.047 0 1.094 1.094 1.11 1.453m0 0"/><path id="Q" d="M5.531-1.984c0-1.22-.875-2.047-2.187-2.047-.719 0-1.203.297-1.375.422v-2.61l-1.594.063v.437c.531 0 .61 0 .61.36V0h.453l.421-.516c.282.297.72.563 1.36.563 1.406 0 2.312-.844 2.312-2.031m-1.187-.032c0 .391 0 .844-.188 1.172-.297.5-.843.532-1.031.532-.547 0-.906-.329-1.094-.625V-3.11a1.55 1.55 0 0 1 1.203-.563c1.11 0 1.11 1.078 1.11 1.656m0 0"/><path id="R" d="M5.656 0v-.437h-.61v-2.297c0-1.063-.655-1.297-1.437-1.297-.843 0-1.328.484-1.562.843v-3.03l-1.594.062v.437c.531 0 .61 0 .61.36v4.922h-.61V0l1.125-.031L2.718 0v-.437H2.11v-1.844c0-1 .829-1.39 1.36-1.39.344 0 .515.187.515.858v2.376h-.609V0l1.14-.031Zm0 0"/><path id="S" d="M5.156-3.547c0-.234-.172-.547-.593-.547-.438 0-.813.219-.985.344-.375-.219-.781-.281-1.219-.281-1.375 0-1.843.734-1.843 1.328 0 .484.312.812.468.937a1.25 1.25 0 0 0-.296.782c0 .39.187.703.375.875C.39.078.297.453.297.656c0 .532.625 1.14 2.344 1.14C4.219 1.797 5 1.313 5 .626c0-.312-.11-.86-.734-1.156C3.75-.766 3.28-.766 2.39-.766h-.453c-.282 0-.407 0-.563-.109a.56.56 0 0 1-.203-.453c0-.172.062-.281.062-.281.329.172.735.234 1.125.234 1.375 0 1.844-.734 1.844-1.328 0-.36-.172-.656-.36-.844.235-.125.423-.14.532-.172 0 .047-.031.094-.031.188a.407.407 0 1 0 .813-.016m-1.984.844c0 .39 0 .969-.813.969s-.812-.578-.812-.97c0-.405 0-.968.812-.968s.813.563.813.969M4.203.657c0 .296-.328.78-1.547.78C1.47 1.438 1.094 1 1.094.642c0-.516.578-.516.703-.516H2.89c.28 0 1.312 0 1.312.531m0 0"/><path id="T" d="M5.344-3.547v-.437c-.25.03-.469.03-.719.03-.266 0-.547 0-.812-.03v.437c.25 0 .328.047.406.078 0 .047 0 .063-.047.125L3.094-1.109 1.922-3.547h.469v-.437l-1.11.03c-.328 0-.5 0-1.031-.03v.437h.563L2.422-.203c.078.172.156.25.375.25s.297-.078.375-.25L4.687-3.36c.063-.125.094-.188.657-.188m0 0"/><path id="U" d="M2.297-.281c0-.61-.313-1.125-.828-1.125-.453 0-.703.343-.703.703s.25.703.718.703a.7.7 0 0 0 .438-.156c-.031.719-.39 1.219-.813 1.562-.046.032-.093.063-.093.14 0 .079.109.188.187.188.14 0 1.094-.765 1.094-2.015m0 0"/><path id="V" d="M5.11-.219c0-.218-.157-.218-.235-.218-.578-.016-.578-.094-.578-.313v-1.922c0-.797-.64-1.39-2.031-1.39-.5 0-1.657.015-1.657.843 0 .406.313.594.579.594.312 0 .593-.219.593-.578 0-.266-.156-.422-.187-.453.093-.016.312-.047.64-.047.641 0 1.016.328 1.016 1.031v.281C1.766-2.39.25-2 .25-1 .25-.11 1.375.047 2.016.047c.687 0 1.156-.281 1.39-.703 0 .219 0 .656.969.656h.438c.171 0 .296 0 .296-.219M3.25-1.25c0 .938-1.047.938-1.078.938-.453 0-.828-.282-.828-.688 0-.297.156-1 1.906-1.078Zm0 0"/><path id="W" d="M5.516 0v-.437c-.532 0-.61 0-.61-.36v-5.422l-1.61.063v.437c.548 0 .61 0 .61.36v1.734a2 2 0 0 0-1.25-.406c-1.453 0-2.312.89-2.312 2.047 0 1.187.844 2.03 2.219 2.03.562 0 1-.202 1.296-.437v.438ZM3.859-.984a1.43 1.43 0 0 1-1.203.672c-1.11 0-1.11-1.063-1.11-1.657 0-.531 0-.906.235-1.234.235-.36.672-.469.985-.469.437 0 .812.188 1.093.547Zm0 0"/><path id="Z" d="M2.688 0v-.437h-.61V-6.22l-1.61.063v.437c.532 0 .61 0 .61.36v4.922h-.61V0l1.095-.031Zm0 0"/><path id="aa" d="M2.172-.703a.704.704 0 0 0-1.406 0A.71.71 0 0 0 1.469 0a.69.69 0 0 0 .703-.703m0 0"/><path id="ab" d="M5.531 1.734v-.437h-.61v-5.328h-.405l-.47.687c-.359-.437-.796-.687-1.39-.687-1.406 0-2.312.843-2.312 2.047 0 1.187.86 2.03 2.219 2.03.484 0 .937-.155 1.296-.483v1.734H3.25v.437l1.14-.015Zm-1.61-3.062c0 .172 0 .187-.108.344-.329.5-.766.672-1.157.672-.594 0-1.11-.532-1.11-1.672 0-.282.016-.766.282-1.157a1.16 1.16 0 0 1 .938-.515c.718 0 1.156.719 1.156 1.156Zm0 0"/><path id="ac" d="M5.656 0v-.437c-.547 0-.61 0-.61-.36V-4.03l-1.671.062v.438c.547 0 .61 0 .61.36v1.702c0 .719-.454 1.157-1.157 1.157-.687 0-.719-.188-.719-.672v-3.047L.453-3.97v.438c.531 0 .61 0 .61.36v2.062c0 .984.765 1.156 1.64 1.156.281 0 .89 0 1.344-.672v.672Zm0 0"/><path id="ad" d="M4.406-1.047c0-.14-.125-.14-.234-.14-.172 0-.172.015-.25.171-.172.438-.578.688-1.11.688-1.265 0-1.265-1.297-1.265-1.703 0-.531 0-1.64 1.172-1.64.078 0 .562 0 .562.046l-.031.047a.6.6 0 0 0-.125.375c0 .36.281.578.594.578a.57.57 0 0 0 .578-.594c0-.844-1.25-.844-1.61-.844C.97-4.062.345-2.968.345-1.983c0 1.125.812 2.03 2.297 2.03.343 0 .78-.046 1.156-.28.515-.313.61-.782.61-.813m0 0"/><path id="ae" d="M7.422-3.547v-.437c-.25.03-.469.03-.719.03-.281 0-.562-.015-.844-.03v.437c.11 0 .313 0 .5.078-.015.078-.015.094-.046.156l-.954 2.266-1.03-2.5h.484v-.437l-1.016.03c-.078 0-.516 0-.906-.03v.437h.515c.125.266.125.281.172.422L2.797-1.25l-.953-2.297h.484v-.437l-1.094.03c-.218 0-.546 0-1-.03v.437H.75l1.406 3.36c.094.234.235.234.344.234.25 0 .297-.094.36-.25l.968-2.328.985 2.344c.093.234.234.234.343.234s.25 0 .344-.234l1.328-3.157c.063-.14.078-.203.594-.203m0 0"/><path id="af" d="M4.86-5.719v-.437c-.376.031-1.079.031-1.47.031-.406 0-1.421 0-1.765-.031v.437h1.25v4.375c0 .75-.36 1.094-.906 1.094-.188 0-.485-.031-.735-.14a.68.68 0 0 0 .391-.626c0-.453-.328-.718-.703-.718s-.719.25-.719.718C.203-.344.891.11 2 .11c1.281 0 2.125-.546 2.125-1.453v-4.375Zm0 0"/><path id="ag" d="M4.047-5.484c0-.407-.36-.797-1.047-.797-.953 0-1.922.406-1.922 1.406v.89H.391v.438h.687v3.11h-.61V0l1.157-.031c.219 0 .75 0 1.219.031v-.437h-.766v-3.11h1.063v-.437H2.03v-.891c0-.969.688-1.047.922-1.047.031 0 .11.016.11.016s0 .015-.016.047a.56.56 0 0 0-.14.375c0 .375.296.578.562.578a.567.567 0 0 0 .578-.578m0 0"/><path id="ah" d="M8.594 0v-.437h-.61v-2.297c0-1.063-.625-1.297-1.421-1.297-.938 0-1.391.562-1.563.843C4.813-4 4.016-4.03 3.625-4.03c-1.11 0-1.547.797-1.61.937H2v-.937L.453-3.97v.438c.531 0 .61 0 .61.36v2.734h-.61V0l1.125-.031L2.718 0v-.437H2.11v-1.844c0-1 .829-1.39 1.36-1.39.344 0 .531.171.531.858v2.376h-.61V0l1.126-.031L5.656 0v-.437h-.61v-1.844c0-1 .829-1.39 1.36-1.39.344 0 .532.171.532.858v2.376h-.61V0l1.14-.031Zm0 0"/><path id="al" d="M7.531-3.031c0-1.906-1.312-3.125-3.203-3.125H.375v.437h.969v5.282H.375V0h3.969C6.125 0 7.53-1.078 7.53-3.031m-1.36 0c0 .875 0 2.594-2.202 2.594H2.594V-5.72h1.36c.702 0 1.374.235 1.765.719.39.5.453 1.14.453 1.969m0 0"/><path id="aq" d="M5.297-1.828c0-.969-.734-1.703-1.578-1.89l-1.313-.266c-.906-.203-.922-.813-.922-.938 0-.422.282-.937 1.172-.937 1.422 0 1.781.968 1.875 1.562.032.14.032.188.235.188.218 0 .234-.047.234-.266V-6c0-.156 0-.266-.187-.266-.079 0-.079.016-.188.11l-.406.39c-.5-.39-1.078-.5-1.563-.5-1.437 0-2.062.907-2.062 1.813 0 .64.36 1.047.453 1.14.484.5.781.563 1.719.75l.422.094c.53.11.671.14.968.438.016.015.25.265.25.656 0 .188-.062 1.047-1.218 1.047-.532 0-2.063-.11-2.141-1.5 0-.156 0-.219-.219-.219-.234 0-.234.063-.234.266v1.625c0 .172 0 .265.172.265.078 0 .093 0 .172-.078.062-.047.25-.265.421-.406.547.39 1.344.484 1.844.484 1.516 0 2.094-1 2.094-1.937m0 0"/><path id="ar" d="M2.938-1.547v-.89H.108v.89Zm0 0"/><path id="as" d="M7.61 0v-.437h-.86L4.39-6.031c-.093-.25-.234-.25-.39-.25s-.297 0-.39.25L1.343-.641C1.28-.5 1.28-.5 1.047-.469a5 5 0 0 1-.469.031H.391V0C.89-.016 1-.031 1.484-.031c.344 0 .625 0 1.188.031v-.437c-.235 0-.547 0-.797-.094l.5-1.188h2.484l.532 1.282h-.844V0c.312-.031 1.219-.031 1.594-.031s1.14 0 1.468.031M4.655-2.156H2.563l1.046-2.516Zm0 0"/><path id="at" d="M6.938-1.672c0-.781-.657-1.406-1.86-1.547 1-.172 1.563-.734 1.563-1.39 0-.828-.797-1.547-2.282-1.547H.375v.437h.969v5.282H.375V0h4.266c1.53 0 2.297-.797 2.297-1.672M5.344-4.609c0 .656-.438 1.234-1.328 1.234H2.53v-2.344H4.25c1.063 0 1.094.922 1.094 1.11m.25 2.922c0 .625-.36 1.25-1.328 1.25H2.53v-2.579h1.813c.156 0 .625 0 .937.36.25.312.313.687.313.969m0 0"/><path id="au" d="m6.984-3.86-.187-2.187H.578L.391-3.859h.453c.094-1 .172-1.75 1.484-1.75h.719v5.172H1.672V0c.39-.031 1.562-.031 2.016-.031.468 0 1.624 0 2.03.031v-.437H4.345V-5.61h.703c1.328 0 1.39.765 1.484 1.75Zm0 0"/><path id="t" d="m7.547-4.125.25-1.625c.031-.094.031-.14.031-.14 0-.157-.156-.157-.297-.157H2.547c-.203 0-.235 0-.297.156l-.453 1.297c-.063.188-.172.485-.172.547 0 .156.172.156.266.156.172 0 .203-.015.265-.187.422-1.219.672-1.547 1.828-1.547h.375L3.08-.469c-.032.016-.298.047-.735.047h-.406c-.157 0-.313 0-.313.266 0 .156.172.156.219.156l1.719-.031L5.343 0c.126 0 .266 0 .266-.266 0-.156-.14-.156-.28-.156h-.391c-.188 0-.47-.016-.641-.031l1.25-5.031c.047-.141.047-.141.187-.141h.313c.875 0 1.078.156 1.078.719 0 .281-.062.625-.078.718-.016.094-.016.125-.016.125 0 .172.157.172.25.172.157 0 .235 0 .266-.234m0 0"/><path id="u" d="M5.344-2.547c0-.922-.64-1.5-1.719-1.5-1.766 0-2.672 1.484-2.672 2.61 0 .921.64 1.515 1.703 1.515 1.781 0 2.688-1.5 2.688-2.625M3.906-1.109c-.265.562-.765.859-1.219.859-.312 0-.75-.156-.75-.797 0-.344.235-1.344.454-1.828.265-.562.765-.86 1.218-.86.313 0 .75.157.75.797 0 .344-.234 1.344-.453 1.829m0 0"/><path id="v" d="M5.344-2.625c0-1.062-.75-1.422-1.438-1.422-.547 0-.969.281-1.187.453-.156-.312-.563-.453-.922-.453-.422 0-.64.297-.75.484-.234.376-.36.876-.36.907 0 .125.125.125.25.125.22 0 .235 0 .297-.235.063-.296.235-.968.532-.968.109 0 .172.078.172.28 0 .173-.016.25-.047.392L.828 1.172c-.031.14-.047.14-.312.14-.141 0-.297 0-.297.266 0 .11.094.156.172.156.25 0 .547-.015.797-.015.312 0 .64.015.953.015.062 0 .234 0 .234-.25 0-.156-.156-.171-.234-.171H1.75L2.125-.22c.281.25.61.297.813.297 1.515 0 2.406-1.5 2.406-2.703M3.969-1.25c-.297.86-.797 1-1.031 1-.313 0-.563-.203-.657-.562l.531-2.11c.016-.062.016-.094.016-.156.39-.516.766-.656 1.047-.656.203 0 .516.125.516.64 0 .485-.313 1.594-.422 1.844m0 0"/><path id="w" d="M2.969-1.328c0-.125-.11-.125-.25-.125-.219 0-.219.016-.281.234-.079.297-.235.969-.547.969-.11 0-.172-.078-.172-.281 0-.172.015-.235.062-.39l1.25-5c.016-.048.031-.095.031-.141 0-.172-.171-.157-.296-.157l-1.094.063c-.11 0-.281 0-.281.265 0 .157.156.157.234.157.11 0 .281.015.39.015L.86-1.062c-.046.14-.046.203-.046.265 0 .578.546.875 1.046.875.422 0 .641-.312.766-.484.234-.39.344-.89.344-.922m0 0"/><path id="x" d="M5.516-1.328c0-.125-.11-.125-.25-.125-.22 0-.22.016-.282.234-.078.297-.234.969-.546.969-.11 0-.172-.078-.172-.281 0-.172.015-.235.062-.39l.594-2.423c.031-.125.031-.14.031-.187 0-.203-.14-.375-.39-.375a.62.62 0 0 0-.422.187c-.297-.297-.641-.328-.875-.328-1.5 0-2.407 1.484-2.407 2.688C.86-.297 1.61.078 2.297.078c.547 0 .969-.297 1.187-.469.172.313.563.47.922.47.422 0 .64-.313.766-.485.234-.39.344-.89.344-.922m-2.141.437c-.39.5-.766.641-1.047.641-.203 0-.5-.125-.5-.64 0-.485.313-1.579.406-1.829.297-.875.797-1.015 1.032-1.015.312 0 .562.203.656.562l-.516 2.11c-.031.062-.031.093-.031.171m0 0"/><path id="y" d="M4.813-.766c0-.078-.188-.296-.282-.296-.015 0-.062 0-.125.062-.656.75-1.562.75-1.703.75-.484 0-.765-.281-.765-.797 0-.344.25-1.437.5-1.906.343-.64.906-.781 1.171-.781.094 0 .344.015.5.187a.69.69 0 0 0-.453.61c0 .124.078.406.453.406s.641-.313.641-.703c0-.438-.39-.813-1.14-.813-1.704 0-2.657 1.453-2.657 2.61 0 .734.422 1.515 1.75 1.515.235 0 .781-.031 1.266-.203.484-.187.844-.531.844-.64m0 0"/><path id="z" d="M4.813-.766c0-.078-.188-.296-.282-.296-.015 0-.062 0-.125.062-.656.75-1.562.75-1.687.75-.5 0-.766-.297-.766-.828 0-.219.063-.578.14-.875h.36c.547 0 2.313 0 2.313-1.234 0-.547-.5-.86-1.157-.86C2.047-4.047.984-2.875.984-1.5c0 .969.61 1.578 1.72 1.578.28 0 .812-.031 1.265-.203.484-.187.844-.531.844-.64m-.625-2.437c0 .922-1.47.922-2.016.922.14-.438.219-.719.484-1 .25-.313.64-.453.953-.453.375 0 .579.25.579.53m0 0"/><path id="A" d="M4.172-1.469c0-.203-.063-.5-.39-.765-.266-.203-.485-.25-.97-.344-.265-.047-.64-.125-.64-.453 0 0 0-.703.953-.703.094 0 .422 0 .625.218-.344.157-.344.47-.344.5 0 .22.172.375.39.375.235 0 .563-.187.563-.625 0-.5-.5-.78-1.218-.78-.688 0-1 .234-1.172.374-.297.25-.469.719-.469 1 0 .766.766.906 1.047.969.469.094.937.172.937.594 0 0 0 .859-1.234.859-.125 0-.547 0-.844-.25.063-.016.438-.187.438-.61 0-.327-.282-.406-.438-.406-.328 0-.64.266-.64.704 0 .562.578.89 1.453.89.25 0 .828-.015 1.312-.36.453-.327.64-.89.64-1.187m0 0"/><path id="B" d="M3.766-1.328c0-.125-.125-.125-.266-.125-.187 0-.203.016-.266.156C2.86-.407 2.406-.25 2.172-.25c-.078 0-.188-.016-.188-.281 0-.172.032-.235.063-.39l.656-2.641h.719c.156 0 .312 0 .312-.266 0-.156-.156-.156-.28-.156h-.642l.172-.703c.063-.235.157-.625.157-.704 0-.203-.141-.375-.391-.375a.58.58 0 0 0-.578.47l-.313 1.312h-.734c-.156 0-.312 0-.312.265 0 .156.156.156.296.156h.641l-.625 2.5c-.047.141-.047.204-.047.266 0 .563.516.875 1.063.875 1.03 0 1.625-1.25 1.625-1.406m0 0"/><path id="C" d="M5.047-3.25c0-.484-.484-.797-1.14-.797-.344 0-.766.094-1.157.484-.156-.28-.5-.484-.953-.484-.422 0-.64.297-.75.484-.234.376-.36.876-.36.907 0 .125.125.125.25.125.22 0 .235 0 .297-.235.063-.296.235-.968.532-.968.109 0 .172.078.172.28 0 .173-.016.25-.047.392L1.25-.517c-.047.141-.047.157-.047.204 0 .28.219.39.406.39a.59.59 0 0 0 .563-.484l.625-2.453c.047-.203.453-.875 1.078-.875.094 0 .313.015.5.156-.422.187-.422.562-.422.594 0 .234.156.422.438.422.343 0 .656-.297.656-.688m0 0"/><path id="D" d="M3.5-1.328c0-.125-.125-.125-.25-.125-.172 0-.219 0-.25.11-.078.234-.312 1.093-.828 1.093-.047 0-.125 0-.125-.156 0-.125.062-.344.062-.36l.813-2.14A.7.7 0 0 0 3-3.25c0-.516-.453-.797-.937-.797-.938 0-1.376 1.203-1.376 1.39 0 .126.125.126.25.126.172 0 .22 0 .25-.11.079-.234.313-1.093.829-1.093.046 0 .125 0 .125.172 0 .109-.063.328-.063.359l-.812 2.125a.75.75 0 0 0-.079.36c0 .5.454.796.938.796C3.063.078 3.5-1.14 3.5-1.328M3.625-5.5a.537.537 0 0 0-.562-.547c-.407 0-.797.39-.797.781 0 .282.218.532.562.532.422 0 .797-.391.797-.766m0 0"/><path id="E" d="m4.047.578.969-3.89c.03-.141.03-.22.03-.22 0-.202-.155-.374-.405-.374-.235 0-.328.11-.422.187-.25-.25-.547-.328-.86-.328-1.53 0-2.406 1.469-2.406 2.625C.953-.469 1.61 0 2.406 0c.297 0 .578-.078.875-.234L3.125.39c-.203.843-.719 1.093-1.203 1.093-.25 0-.453-.015-.563-.046a.72.72 0 0 0 .25-.5c0-.235-.171-.422-.437-.422a.66.66 0 0 0-.64.672c0 .546.702.625 1.374.625 1.078 0 1.938-.454 2.14-1.235m-.563-1.625c-.078.313-.609.719-1.03.719-.485 0-.532-.438-.532-.625 0-.5.328-1.578.453-1.906.281-.735.75-.875.984-.875.266 0 .547.14.657.547Zm0 0"/><path id="F" d="M5.61-1.328c0-.125-.126-.125-.25-.125-.173 0-.22 0-.25.11C5.03-1.11 4.796-.25 4.28-.25c-.047 0-.125 0-.125-.156 0-.188.094-.422.203-.735.125-.328.532-1.39.532-1.906 0-.734-.532-1-1.235-1-.469 0-.828.14-1.203.453l.578-2.328c.016-.047.031-.094.031-.14 0-.172-.171-.157-.296-.157l-1.094.063c-.11 0-.281 0-.281.265 0 .157.156.157.234.157.11 0 .281.015.39.015L.72-.516c-.031.141-.031.157-.031.204 0 .218.171.39.406.39.11 0 .453-.047.562-.484l.547-2.235c.063-.25.563-1.093 1.39-1.093.376 0 .376.343.376.515 0 .531-.406 1.64-.563 2.047-.094.219-.11.313-.11.453 0 .5.454.797.938.797.938 0 1.375-1.219 1.375-1.406m0 0"/><path id="G" d="M6.14-1.328c0-.125-.124-.125-.25-.125-.171 0-.218 0-.265.11-.062.234-.312 1.093-.812 1.093-.047 0-.125 0-.125-.156 0-.188.078-.422.203-.735.125-.328.53-1.39.53-1.906 0-.734-.53-1-1.25-1-.187 0-.765 0-1.359.61-.187-.516-.718-.61-1.015-.61-.422 0-.64.297-.75.484-.234.376-.36.876-.36.907 0 .125.125.125.25.125.22 0 .235 0 .297-.235.063-.296.235-.968.532-.968.109 0 .172.078.172.28 0 .173-.016.25-.047.392L1.25-.517c-.047.141-.047.157-.047.204 0 .28.219.39.406.39a.59.59 0 0 0 .563-.484l.562-2.235c.063-.25.563-1.093 1.375-1.093.391 0 .391.343.391.515 0 .531-.406 1.64-.578 2.047-.078.219-.094.313-.094.453 0 .5.453.797.938.797.922 0 1.375-1.219 1.375-1.406m0 0"/><path id="H" d="M4.484 1.484c0-.156-.156-.171-.234-.171h-.39l1.265-5.079c.016-.03.016-.093.016-.125 0-.03-.016-.156-.157-.156 0 0-.5.11-.765.328-.282-.297-.625-.328-.86-.328-1.515 0-2.406 1.484-2.406 2.688 0 1.062.75 1.437 1.438 1.437.406 0 .734-.172.875-.25l-.328 1.344c-.032.125-.047.125-.141.14h-.313c-.156 0-.328 0-.328.266 0 .047.031.156.188.156.297 0 .625-.015.937-.015s.64.015.969.015c.063 0 .234 0 .234-.25M3.47-.984c-.078.312-.594.734-1.047.734-.203 0-.516-.125-.516-.64 0-.485.313-1.579.422-1.829.297-.875.797-1.015 1.031-1.015.313 0 .563.203.657.562Zm0 0"/><path id="I" d="M5.875-1.328c0-.125-.11-.125-.25-.125-.219 0-.219.016-.281.234-.078.297-.235.969-.547.969-.11 0-.172-.078-.172-.281 0-.172.016-.235.063-.39l.609-2.485c.047-.125.047-.14.047-.188 0-.281-.219-.39-.407-.39-.125 0-.468.062-.578.5l-.625 2.53c-.03.157-.046.188-.296.438a.9.9 0 0 1-.61.266c-.453 0-.469-.422-.469-.625 0-.531.297-1.328.516-1.89C2.953-3 3-3.11 3-3.25c0-.516-.453-.797-.937-.797-.938 0-1.376 1.203-1.376 1.39 0 .126.125.126.25.126.172 0 .22 0 .25-.11.079-.234.313-1.093.829-1.093.046 0 .125 0 .125.172 0 .187-.11.453-.157.578-.296.78-.546 1.422-.546 1.922 0 .828.593 1.14 1.328 1.14.25 0 .64-.047 1.078-.469.172.313.562.47.922.47.422 0 .64-.313.765-.485.235-.39.344-.89.344-.922m0 0"/><path id="J" d="M4.984-3.281c0-.656-.406-.781-.578-.781-.312 0-.64.328-.64.64 0 .219.125.313.203.375.187.125.36.328.36.594 0 .031-.376 2.203-1.391 2.203-.5 0-.563-.39-.563-.672 0-.5.281-1.265.5-1.86C2.969-3 3-3.108 3-3.25c0-.516-.453-.797-.937-.797-.938 0-1.376 1.203-1.376 1.39 0 .126.125.126.25.126.172 0 .22 0 .25-.11.079-.234.313-1.093.829-1.093.046 0 .125 0 .125.172 0 .187-.11.453-.157.578-.343.906-.53 1.437-.53 1.89 0 1.016.874 1.172 1.421 1.172 1.594 0 2.11-2.89 2.11-3.36m0 0"/><path id="K" d="M7.094-3.281c0-.656-.407-.781-.578-.781-.313 0-.641.328-.641.64 0 .219.125.313.219.375.172.125.343.328.343.594 0 .125-.218.984-.421 1.453-.188.438-.453.75-.828.75-.5 0-.579-.39-.579-.672 0-.312.22-1.14.454-2.078.078-.297.14-.5.14-.594 0-.281-.219-.39-.406-.39-.438 0-.547.406-.578.578l-.313 1.219c-.078.359-.219.843-.219 1.093 0 .094 0 .14.032.219-.172.375-.406.625-.703.625-.641 0-.641-.547-.641-.703 0-.5.25-1.125.516-1.875C2.953-2.984 3-3.11 3-3.25c0-.516-.453-.797-.937-.797-.938 0-1.376 1.203-1.376 1.39 0 .126.125.126.25.126.172 0 .22 0 .25-.11.079-.234.313-1.093.829-1.093.046 0 .125 0 .125.172 0 .187-.11.453-.157.578-.328.875-.53 1.422-.53 1.875 0 1 .874 1.187 1.5 1.187.452 0 .765-.219.952-.469.313.391.844.47 1.219.47.656 0 1.094-.454 1.406-1.173.282-.625.563-1.734.563-2.187m0 0"/><path id="L" d="M5.61-1.328c0-.125-.126-.125-.25-.125-.22 0-.235.016-.298.234-.062.297-.234.969-.53.969-.11 0-.173-.078-.173-.281 0-.172.016-.235.047-.39l1.266-5c0-.048.016-.095.016-.141 0-.172-.157-.157-.282-.157l-1.093.063c-.11 0-.282 0-.282.265 0 .157.157.157.235.157.109 0 .265.015.375.015l-.47 1.953c-.28-.25-.609-.28-.812-.28C1.844-4.047.953-2.563.953-1.36c0 1.062.75 1.437 1.438 1.437.547 0 .968-.297 1.172-.469.171.313.578.47.937.47.422 0 .64-.313.75-.485.234-.39.36-.89.36-.922m-2.141.437c-.39.5-.766.641-1.047.641-.203 0-.516-.125-.516-.64 0-.485.313-1.579.422-1.829.297-.875.797-1.015 1.031-1.015.313 0 .563.203.657.562l-.532 2.11C3.47-1 3.47-.97 3.47-.891m0 0"/><path id="M" d="M2.438-.797c0-.312-.22-.515-.547-.515-.36 0-.797.328-.797.78 0 .376.281.532.531.532.406 0 .813-.375.813-.797m0 0"/><path id="P" d="M1.625-1.047C1.188-.328.797-.313.438-.28c-.063.015-.11.078-.11.172 0 .047.047.109.125.109.172 0 .594-.031.766-.031.203 0 .687.031.875.031.062 0 .172 0 .172-.156 0-.11-.11-.125-.125-.125-.094 0-.422-.031-.422-.297 0-.125.093-.297.125-.344l.703-1.156H4.89c.03.219.046.515.078.734.031.36.093.75.093.782 0 .125-.125.28-.656.28-.078 0-.203 0-.203.173 0 .093.078.109.14.109.173 0 .391-.016.563-.016s.39-.015.532-.015c.296 0 .328 0 .53.015.141 0 .36.016.5.016.048 0 .173 0 .173-.156 0-.125-.11-.125-.203-.125-.547 0-.547-.063-.579-.313l-.625-5.578c-.03-.203-.03-.25-.187-.25-.125 0-.172.063-.25.172Zm1.094-1.297L4.53-5.312l.328 2.968Zm0 0"/><path id="X" d="M1.469-.687c-.094.328-.11.406-.782.406-.171 0-.265 0-.265.172C.422 0 .516 0 .672 0h3.266C5.39 0 6.453-1.062 6.453-1.922c0-.64-.531-1.187-1.406-1.281 1.016-.203 1.89-.875 1.89-1.672 0-.703-.656-1.25-1.718-1.25H2.156c-.172 0-.265 0-.265.156 0 .125.078.125.265.125.031 0 .188 0 .344.016.14.016.203.031.203.14 0 .032 0 .079-.031.172Zm1.39-2.61L3.406-5.5c.078-.328.094-.344.485-.344h1.203c.937 0 1.015.703 1.015.922 0 .813-.828 1.625-1.843 1.625ZM2.438-.28H2.25c-.094-.016-.11-.031-.11-.094 0-.016 0-.031.032-.203l.625-2.5h1.687c.563 0 1.125.25 1.125 1.062 0 .891-.812 1.735-1.89 1.735Zm0 0"/><path id="Y" d="M6.938-6.078c.03-.11.03-.125.03-.14s-.015-.11-.109-.11c-.046 0-.078.031-.14.11l-.547.593c-.031.047-.078.078-.078.078-.016 0-.016 0-.078-.062-.125-.188-.532-.72-1.47-.72-2.046 0-4.093 2-4.093 4.048C.453-.828 1.531.203 2.97.203c.937 0 1.672-.484 2.015-.797.813-.734.97-1.515.97-1.562 0-.031-.016-.094-.126-.094-.094 0-.11.047-.125.094C5.266-.72 3.984-.078 3.078-.078c-.86 0-1.781-.531-1.781-1.89 0-.407.125-1.813 1.031-2.923.547-.64 1.422-1.156 2.281-1.156 1 0 1.532.766 1.532 1.75 0 .313-.032.375-.032.438 0 .093.11.093.141.093.11 0 .11-.015.156-.187Zm0 0"/><path id="ai" d="M1.438-.687c-.079.328-.094.406-.766.406-.172 0-.266 0-.266.172C.406 0 .5 0 .656 0h3.016c1.922 0 3.703-1.906 3.703-3.844 0-1.219-.766-2.281-2.172-2.281H2.141c-.172 0-.282 0-.282.156 0 .125.094.125.282.125.03 0 .187 0 .328.016.156.016.219.031.219.14 0 .032 0 .079-.032.172ZM3.422-5.5c.078-.328.094-.344.469-.344h1.015c.938 0 1.672.516 1.672 1.672 0 .516-.219 1.953-.922 2.844C5.25-.812 4.5-.281 3.516-.281h-1.25c-.094-.016-.125-.031-.125-.094 0-.016 0-.031.046-.203Zm0 0"/><path id="aj" d="M2.813-3.031h.921c.641 0 .766.11.766.406 0 .063-.031.25-.062.406-.016.047-.032.094-.032.125 0 0 0 .11.125.11.11 0 .11-.063.157-.188l.468-1.89c.032-.125.032-.141.032-.188 0-.062-.047-.11-.125-.11-.094 0-.11.048-.141.22-.188.718-.469.827-1.188.827h-.843c.125-.546.547-2.25.593-2.359.063-.125.125-.156.422-.156H5.22c1.125 0 1.375.281 1.375 1 0 .281-.047.547-.047.61 0 .077.047.14.125.14.11 0 .125-.063.14-.234L7-5.97c0-.125-.094-.125-.266-.125H2.11c-.156 0-.265 0-.265.157 0 .109.093.109.281.109.031 0 .203 0 .344.031.187.016.203.063.203.14 0 .032 0 .048-.047.204L1.438-.687c-.079.328-.094.406-.782.406-.156 0-.265 0-.265.172C.39 0 .484 0 .64 0h4.734c.172 0 .188 0 .219-.031.015-.016.031-.016.078-.14.11-.235.875-1.938.875-2.032 0-.063-.047-.11-.125-.11s-.078 0-.172.22C5.688-.844 5.313-.282 3.828-.282H2.281c-.094-.016-.125-.031-.125-.094 0-.016 0-.031.047-.203Zm0 0"/><path id="ak" d="M2.797-2.922h.875c.64 0 .765.11.765.406 0 .016-.015.188-.062.407-.047.093-.047.109-.047.125 0 .03.031.125.125.125.11 0 .11-.047.14-.188l.5-1.937c.016-.047.032-.094.032-.141S5.078-4.25 5-4.25c-.11 0-.125.078-.156.219-.188.703-.438.843-1.157.843H2.86c.125-.5.579-2.343.61-2.453.062-.187.156-.187.437-.187h1.235c1.125 0 1.328.297 1.328 1 0 .297-.047.547-.047.61 0 .077.047.14.125.14.11 0 .11-.063.14-.234l.188-1.657c0-.125-.094-.125-.266-.125h-4.5c-.171 0-.265 0-.265.157 0 .109.093.109.281.109.031 0 .203 0 .344.031.187.016.203.063.203.14 0 .032 0 .048-.047.204L1.438-.687c-.079.328-.094.406-.782.406-.156 0-.265 0-.265.172C.39-.062.42 0 .53 0c.094 0 .516-.016.61-.016.062-.015.39-.015.578-.015.172 0 .422.015.64.015.22 0 .47.016.688.016.062 0 .187 0 .187-.156 0-.125-.093-.125-.28-.125-.017 0-.25 0-.47-.016-.28-.031-.296-.062-.296-.172 0-.015 0-.062.03-.203Zm0 0"/><path id="am" d="M6.938-6.078c.03-.11.03-.125.03-.14s-.015-.11-.109-.11c-.046 0-.078.031-.14.11l-.547.593c-.031.047-.078.078-.078.078-.016 0-.016 0-.078-.062-.125-.188-.532-.72-1.47-.72-2.046 0-4.093 2-4.093 4.048C.453-.875 1.47.203 2.984.203c1.032 0 1.704-.437 1.954-.766.062.22.296.547.406.547.078 0 .093-.03.14-.218l.172-.688c.063-.25.14-.61.188-.812.125-.422.125-.438.64-.438.032 0 .157-.015.157-.172 0 0 0-.11-.125-.11-.079 0-.422.017-.485.017H4.906c-.218 0-.453-.016-.656-.016-.078 0-.187 0-.187.156 0 .125.078.125.312.125.188 0 .234 0 .453.016.25.015.297.047.297.172 0 .03 0 .046-.062.265-.063.266-.172.703-.204.766-.296.656-1.171.875-1.734.875-.781 0-1.828-.438-1.828-1.906 0-.547.187-1.875 1.031-2.907.531-.64 1.422-1.156 2.281-1.156 1 0 1.532.766 1.532 1.75 0 .313-.032.375-.032.438 0 .093.11.093.141.093.11 0 .11-.015.156-.187Zm0 0"/><path id="an" d="M7-5.437c.078-.329.11-.407.797-.407.156 0 .25 0 .25-.172 0-.078-.063-.109-.14-.109l-.563.016c-.266.015-.282.015-.578.015-.282 0-.297 0-.563-.015-.187 0-.422-.016-.594-.016-.046 0-.171 0-.171.156 0 .125.093.125.265.125.031 0 .203 0 .344.016.172.016.219.047.219.14 0 .032-.016.063-.047.172l-.547 2.188H2.89l.53-2.11c.079-.343.11-.406.798-.406.156 0 .25 0 .25-.172 0-.078-.063-.109-.14-.109l-.563.016c-.266.015-.282.015-.578.015-.282 0-.297 0-.563-.015-.187 0-.422-.016-.594-.016-.047 0-.172 0-.172.156 0 .125.094.125.266.125.031 0 .203 0 .344.016.172.016.219.047.219.14 0 .032-.016.079-.047.172L1.438-.687c-.079.328-.094.406-.782.406-.156 0-.265 0-.265.172C.39-.031.453 0 .53 0c.172 0 .39-.016.563-.016.265-.015.281-.015.578-.015.281 0 .297 0 .578.015.172 0 .406.016.578.016C2.891 0 3 0 3-.156c0-.125-.078-.125-.281-.125-.031 0-.188 0-.328-.016-.203-.031-.22-.062-.22-.14 0-.032 0-.047.048-.204l.594-2.406h2.796C5.531-2.734 5-.594 4.953-.5c-.062.156-.078.219-.766.219-.109 0-.218 0-.218.172 0 .078.062.109.14.109.172 0 .391-.016.563-.016.266-.015.281-.015.578-.015.281 0 .297 0 .578.015.172 0 .406.016.578.016.063 0 .172 0 .172-.156 0-.125-.078-.125-.266-.125-.046 0-.203 0-.343-.016-.203-.031-.203-.062-.203-.14s.015-.157.03-.22Zm0 0"/><path id="ao" d="M4.625-3.734 6.453-5.11l.11-.063c.546-.39.89-.625 1.421-.672.063-.015.157-.015.157-.172 0-.03-.032-.109-.11-.109-.062 0-.125.031-.656.031-.328 0-.656-.031-.969-.031-.062 0-.172 0-.172.156 0 .11.094.125.125.125.079 0 .25.016.25.157 0 .078-.046.187-.171.296-.047.032-.047.047-.079.063-.03.031-.046.047-.093.078L2.703-2.578l.719-2.86c.078-.343.11-.406.797-.406.156 0 .25 0 .25-.172 0-.078-.063-.109-.14-.109-.173 0-.376.016-.563.016-.188.015-.391.015-.578.015-.282 0-.297 0-.563-.015-.187 0-.422-.016-.594-.016-.047 0-.172 0-.172.156 0 .125.079.125.266.125.031 0 .203 0 .344.016.156.016.219.031.219.14 0 .032-.016.079-.047.172L1.438-.687c-.079.328-.094.406-.782.406-.156 0-.265 0-.265.172C.39-.016.469 0 .53 0c.172 0 .39-.016.563-.016.265-.015.281-.015.578-.015.281 0 .297 0 .578.015.172 0 .406.016.578.016C2.891 0 3 0 3-.156c0-.125-.078-.125-.281-.125-.031 0-.188 0-.328-.016-.203-.031-.22-.062-.22-.14s.095-.375.454-1.797l1.36-1.032L5.14-.75c.046.11.062.14.062.203 0 .266-.375.266-.453.266-.11 0-.219 0-.219.172 0 .078.094.109.157.109.171 0 .343-.016.515-.016s.36-.015.547-.015c.156 0 .39 0 .453.015L6.641 0c.046 0 .172 0 .172-.156 0-.125-.11-.125-.172-.125-.313 0-.47-.047-.61-.375Zm0 0"/><path id="ap" d="M3.422-5.422c.078-.344.11-.422.937-.422.25 0 .329 0 .329-.172 0-.109-.11-.109-.141-.109-.203 0-.438.016-.656.016-.22 0-.422.015-.641.015-.203 0-.422 0-.625-.015-.156 0-.437-.016-.594-.016-.047 0-.172 0-.172.156 0 .125.079.125.266.125.031 0 .203 0 .344.016.156.016.219.031.219.14 0 .032-.016.079-.047.172L1.438-.687c-.079.328-.094.406-.782.406-.156 0-.265 0-.265.172C.39 0 .484 0 .64 0h4.234c.219 0 .234-.016.297-.203.094-.219.734-1.922.734-2 0-.063-.062-.11-.125-.11-.093 0-.093.032-.172.22-.296.796-.687 1.812-2.265 1.812H2.28c-.094-.016-.125-.031-.125-.094 0-.016 0-.031.047-.203Zm0 0"/></defs><use xlink:href="#a" x="57.258" y="112.964" fill="#FF7F00"/><use xlink:href="#b" x="97.188" y="109.876" fill="#00C"/><use xlink:href="#c" x="88.98" y="50.595" fill="#00C"/><path fill="none" stroke="#00C" stroke-miterlimit="10" stroke-width=".797" d="m93.469 106.473-.57-52.16"/><path fill="none" stroke="#7F7F7F" stroke-miterlimit="10" stroke-width=".399" d="m68.45 109.559 25.019-3.086"/><use xlink:href="#d" x="74.022" y="82.629"/><path fill="none" stroke="#7F7F7F" stroke-miterlimit="10" stroke-width=".399" d="M78.285 86.348 41.402 173.39"/><use xlink:href="#e" x="29.953" y="183.719"/><path fill="none" stroke="#7F7F7F" stroke-miterlimit="10" stroke-width=".399" d="m78.285 86.348 56.942 75.465"/><use xlink:href="#f" x="138.745" y="172.14"/><path fill="none" stroke="#7F7F7F" stroke-miterlimit="10" stroke-width=".399" d="M145.633 106.473c0-28.809-23.356-52.164-52.164-52.164-28.809 0-52.16 23.355-52.16 52.164 0 28.808 23.351 52.16 52.16 52.16s52.164-23.352 52.164-52.16Zm0 0"/><use xlink:href="#g" x="43.775" y="65.869"/><use xlink:href="#h" x="128.591" y="151.486"/><path fill="none" stroke="#7F7F7F" stroke-miterlimit="10" stroke-width=".399" d="M155.555 86.348c0-42.676-34.594-77.27-77.27-77.27s-77.27 34.594-77.27 77.27 34.594 77.27 77.27 77.27 77.27-34.595 77.27-77.27Zm0 0"/><use xlink:href="#i" x="10.755" y="27.992"/><use xlink:href="#j" x="44.738" y="168.038" fill="#B20000"/><path fill="none" stroke="#B20000" stroke-miterlimit="10" stroke-width=".797" d="m68.45 109.559-20.321 47.953"/><path fill-opacity=".5" d="M70.441 109.559a1.993 1.993 0 1 0-3.986.001 1.993 1.993 0 0 0 3.986-.001M95.46 106.473a1.993 1.993 0 1 0-3.983.002 1.993 1.993 0 0 0 3.984-.002M94.89 54.313a1.993 1.993 0 1 0-3.985.001 1.993 1.993 0 0 0 3.986-.002M80.277 86.348a1.99 1.99 0 0 0-1.992-1.993 1.99 1.99 0 0 0-1.992 1.993 1.99 1.99 0 0 0 1.992 1.992 1.99 1.99 0 0 0 1.992-1.992M126.867 148.082a1.993 1.993 0 1 0-3.986.002 1.993 1.993 0 0 0 3.986-.002M50.121 157.512a1.99 1.99 0 0 0-1.992-1.992 1.99 1.99 0 0 0-1.992 1.992 1.99 1.99 0 0 0 1.992 1.992 1.99 1.99 0 0 0 1.992-1.992m0 0"/><use xlink:href="#k" x="182.962" y="6.668"/><use xlink:href="#l" x="190.207" y="6.668"/><use xlink:href="#m" x="194.582" y="6.668"/><use xlink:href="#n" x="199.891" y="6.668"/><use xlink:href="#m" x="206.077" y="6.668"/><use xlink:href="#o" x="211.385" y="6.668"/><use xlink:href="#p" x="215.573" y="6.668"/><use xlink:href="#q" x="218.523" y="6.668"/><use xlink:href="#p" x="222.647" y="6.668"/><use xlink:href="#m" x="225.597" y="6.668"/><use xlink:href="#r" x="230.905" y="6.668"/><use xlink:href="#s" x="240.329" y="6.668"/><use xlink:href="#s" x="244.624" y="6.668"/><use xlink:href="#t" x="182.962" y="17.627"/><use xlink:href="#u" x="189.31" y="17.627"/><use xlink:href="#v" x="197.936" y="17.627"/><use xlink:href="#w" x="203.235" y="17.627"/><use xlink:href="#x" x="205.898" y="17.627"/><use xlink:href="#y" x="211.197" y="17.627"/><use xlink:href="#z" x="215.447" y="17.627"/><use xlink:href="#x" x="223.535" y="17.627"/><g fill="#B20000"><use xlink:href="#A" x="232.172" y="17.627"/><use xlink:href="#B" x="236.539" y="17.627"/><use xlink:href="#C" x="239.991" y="17.627"/></g><g fill="#B20000"><use xlink:href="#x" x="243.972" y="17.627"/><use xlink:href="#D" x="249.271" y="17.627"/><use xlink:href="#E" x="252.463" y="17.627"/><use xlink:href="#F" x="257.233" y="17.627"/><use xlink:href="#B" x="262.532" y="17.627"/></g><g fill="#B20000"><use xlink:href="#w" x="269.302" y="17.627"/><use xlink:href="#D" x="271.965" y="17.627"/><use xlink:href="#G" x="275.157" y="17.627"/><use xlink:href="#z" x="280.985" y="17.627"/></g><use xlink:href="#z" x="289.09" y="17.627"/><use xlink:href="#H" x="293.331" y="17.627"/><use xlink:href="#I" x="298.101" y="17.627"/><use xlink:href="#x" x="303.669" y="17.627"/><use xlink:href="#w" x="308.968" y="17.627"/><use xlink:href="#B" x="314.958" y="17.627"/><use xlink:href="#u" x="318.41" y="17.627"/><use xlink:href="#x" x="327.036" y="17.627"/><use xlink:href="#E" x="335.67" y="17.627"/><use xlink:href="#D" x="340.44" y="17.627"/><use xlink:href="#J" x="343.632" y="17.627"/><use xlink:href="#z" x="348.403" y="17.627"/><use xlink:href="#G" x="353.173" y="17.627"/><g fill="#00C"><use xlink:href="#A" x="362.334" y="17.627"/><use xlink:href="#B" x="366.701" y="17.627"/><use xlink:href="#C" x="370.153" y="17.627"/></g><g fill="#00C"><use xlink:href="#x" x="374.125" y="17.627"/><use xlink:href="#D" x="379.424" y="17.627"/><use xlink:href="#E" x="382.616" y="17.627"/><use xlink:href="#F" x="387.386" y="17.627"/><use xlink:href="#B" x="392.685" y="17.627"/></g><g fill="#00C"><use xlink:href="#w" x="399.464" y="17.627"/><use xlink:href="#D" x="402.127" y="17.627"/><use xlink:href="#G" x="405.319" y="17.627"/><use xlink:href="#z" x="411.147" y="17.627"/></g><use xlink:href="#K" x="419.251" y="17.627"/><use xlink:href="#D" x="426.137" y="17.627"/><use xlink:href="#B" x="429.329" y="17.627"/><use xlink:href="#F" x="432.781" y="17.627"/><use xlink:href="#u" x="182.962" y="28.586"/><use xlink:href="#G" x="188.261" y="28.586"/><use xlink:href="#z" x="194.089" y="28.586"/><use xlink:href="#z" x="202.571" y="28.586"/><use xlink:href="#G" x="207.342" y="28.586"/><use xlink:href="#L" x="213.17" y="28.586"/><use xlink:href="#x" x="222.181" y="28.586"/><use xlink:href="#B" x="227.48" y="28.586"/><use xlink:href="#x" x="234.644" y="28.586"/><g fill="#FF7F00"><use xlink:href="#E" x="243.656" y="28.586"/><use xlink:href="#D" x="248.426" y="28.586"/><use xlink:href="#J" x="251.618" y="28.586"/><use xlink:href="#z" x="256.388" y="28.586"/><use xlink:href="#G" x="261.158" y="28.586"/></g><use xlink:href="#v" x="270.699" y="28.586" fill="#FF7F00"/><g fill="#FF7F00"><use xlink:href="#u" x="275.469" y="28.586"/><use xlink:href="#D" x="280.768" y="28.586"/><use xlink:href="#G" x="283.96" y="28.586"/><use xlink:href="#B" x="289.788" y="28.586"/></g><use xlink:href="#M" x="293.24" y="28.586"/><use xlink:href="#N" x="182.962" y="48.512"/><use xlink:href="#O" x="189.337" y="48.512"/><use xlink:href="#q" x="194.206" y="48.512"/><use xlink:href="#P" x="203.183" y="48.512" fill="#FF7F00"/><use xlink:href="#Q" x="214.946" y="48.512"/><use xlink:href="#O" x="221.133" y="48.512"/><use xlink:href="#q" x="230.852" y="48.512"/><use xlink:href="#R" x="234.977" y="48.512"/><use xlink:href="#O" x="240.868" y="48.512"/><use xlink:href="#S" x="250.587" y="48.512"/><use xlink:href="#p" x="255.895" y="48.512"/><use xlink:href="#T" x="258.845" y="48.512"/><use xlink:href="#O" x="264.162" y="48.512"/><use xlink:href="#r" x="269.031" y="48.512"/><use xlink:href="#n" x="279.764" y="48.512"/><use xlink:href="#m" x="285.951" y="48.512"/><use xlink:href="#p" x="291.259" y="48.512"/><use xlink:href="#r" x="294.209" y="48.512"/><use xlink:href="#q" x="299.813" y="48.512"/><use xlink:href="#U" x="303.937" y="48.512"/><use xlink:href="#V" x="312.061" y="48.512"/><use xlink:href="#r" x="317.217" y="48.512"/><use xlink:href="#W" x="323.107" y="48.512"/><use xlink:href="#X" x="333.856" y="48.512" fill="#00C"/><use xlink:href="#Y" x="341.276" y="48.512" fill="#00C"/><use xlink:href="#q" x="353.345" y="48.512"/><use xlink:href="#R" x="357.47" y="48.512"/><use xlink:href="#O" x="363.36" y="48.512"/><use xlink:href="#S" x="373.08" y="48.512"/><use xlink:href="#p" x="378.388" y="48.512"/><use xlink:href="#T" x="381.338" y="48.512"/><use xlink:href="#O" x="386.655" y="48.512"/><use xlink:href="#r" x="391.524" y="48.512"/><g fill="#00C"><use xlink:href="#o" x="402.26" y="48.512"/><use xlink:href="#q" x="406.447" y="48.512"/><use xlink:href="#l" x="410.572" y="48.512"/><use xlink:href="#V" x="414.947" y="48.512"/><use xlink:href="#p" x="420.103" y="48.512"/><use xlink:href="#S" x="423.053" y="48.512"/><use xlink:href="#R" x="428.361" y="48.512"/></g><use xlink:href="#q" x="433.956" y="48.512" fill="#00C"/><g fill="#00C"><use xlink:href="#Z" x="182.962" y="59.47"/><use xlink:href="#p" x="185.912" y="59.47"/><use xlink:href="#r" x="188.862" y="59.47"/><use xlink:href="#O" x="194.753" y="59.47"/></g><use xlink:href="#aa" x="199.622" y="59.47"/><use xlink:href="#s" x="207.728" y="59.47"/><use xlink:href="#q" x="211.727" y="59.47"/><use xlink:href="#p" x="219.536" y="59.47"/><use xlink:href="#o" x="222.486" y="59.47"/><use xlink:href="#l" x="230.35" y="59.47"/><use xlink:href="#O" x="234.725" y="59.47"/><use xlink:href="#ab" x="239.594" y="59.47"/><use xlink:href="#ac" x="245.198" y="59.47"/><use xlink:href="#p" x="251.089" y="59.47"/><use xlink:href="#l" x="254.039" y="59.47"/><use xlink:href="#O" x="258.415" y="59.47"/><use xlink:href="#W" x="263.283" y="59.47"/><use xlink:href="#q" x="272.859" y="59.47"/><use xlink:href="#m" x="276.984" y="59.47"/><use xlink:href="#n" x="285.977" y="59.47"/><use xlink:href="#Z" x="291.868" y="59.47"/><use xlink:href="#V" x="294.818" y="59.47"/><use xlink:href="#ad" x="299.974" y="59.47"/><use xlink:href="#O" x="304.69" y="59.47"/><use xlink:href="#V" x="313.244" y="59.47"/><g fill="#B20000"><use xlink:href="#o" x="322.083" y="59.47"/><use xlink:href="#q" x="326.27" y="59.47"/><use xlink:href="#l" x="330.395" y="59.47"/><use xlink:href="#V" x="334.77" y="59.47"/><use xlink:href="#p" x="339.926" y="59.47"/><use xlink:href="#S" x="342.876" y="59.47"/><use xlink:href="#R" x="348.184" y="59.47"/></g><use xlink:href="#q" x="353.779" y="59.47" fill="#B20000"/><g fill="#B20000"><use xlink:href="#Z" x="361.58" y="59.47"/><use xlink:href="#p" x="364.53" y="59.47"/><use xlink:href="#r" x="367.48" y="59.47"/><use xlink:href="#O" x="373.371" y="59.47"/></g><use xlink:href="#O" x="381.929" y="59.47"/><use xlink:href="#ab" x="386.798" y="59.47"/><use xlink:href="#ac" x="392.402" y="59.47"/><use xlink:href="#V" x="398.293" y="59.47"/><use xlink:href="#Z" x="403.448" y="59.47"/><use xlink:href="#q" x="410.074" y="59.47"/><use xlink:href="#m" x="414.199" y="59.47"/><use xlink:href="#q" x="423.192" y="59.47"/><use xlink:href="#R" x="427.317" y="59.47"/><use xlink:href="#O" x="433.208" y="59.47"/><use xlink:href="#S" x="182.962" y="70.429"/><use xlink:href="#p" x="188.27" y="70.429"/><use xlink:href="#T" x="191.22" y="70.429"/><use xlink:href="#O" x="196.528" y="70.429"/><use xlink:href="#r" x="201.397" y="70.429"/><g fill="#00C"><use xlink:href="#o" x="210.821" y="70.429"/><use xlink:href="#q" x="215.008" y="70.429"/><use xlink:href="#l" x="219.133" y="70.429"/><use xlink:href="#V" x="223.508" y="70.429"/><use xlink:href="#p" x="228.664" y="70.429"/><use xlink:href="#S" x="231.614" y="70.429"/><use xlink:href="#R" x="236.922" y="70.429"/></g><use xlink:href="#q" x="242.517" y="70.429" fill="#00C"/><g fill="#00C"><use xlink:href="#Z" x="250.174" y="70.429"/><use xlink:href="#p" x="253.124" y="70.429"/><use xlink:href="#r" x="256.074" y="70.429"/><use xlink:href="#O" x="261.965" y="70.429"/></g><use xlink:href="#X" x="270.367" y="70.429" fill="#00C"/><use xlink:href="#Y" x="277.786" y="70.429" fill="#00C"/><use xlink:href="#ae" x="288.535" y="70.429"/><use xlink:href="#p" x="296.201" y="70.429"/><use xlink:href="#q" x="299.151" y="70.429"/><use xlink:href="#R" x="303.276" y="70.429"/><use xlink:href="#m" x="312.699" y="70.429"/><use xlink:href="#r" x="318.007" y="70.429"/><use xlink:href="#O" x="323.898" y="70.429"/><use xlink:href="#O" x="332.3" y="70.429"/><use xlink:href="#r" x="337.169" y="70.429"/><use xlink:href="#W" x="343.06" y="70.429"/><use xlink:href="#V" x="352.483" y="70.429"/><use xlink:href="#q" x="357.639" y="70.429"/><use xlink:href="#q" x="365.296" y="70.429"/><use xlink:href="#R" x="369.421" y="70.429"/><use xlink:href="#O" x="375.312" y="70.429"/><use xlink:href="#n" x="383.713" y="70.429"/><use xlink:href="#m" x="389.9" y="70.429"/><use xlink:href="#p" x="395.208" y="70.429"/><use xlink:href="#r" x="398.158" y="70.429"/><use xlink:href="#q" x="403.753" y="70.429"/><use xlink:href="#P" x="411.41" y="70.429" fill="#FF7F00"/><use xlink:href="#aa" x="418.32" y="70.429"/><use xlink:href="#af" x="182.962" y="81.388"/><use xlink:href="#m" x="188.44" y="81.388"/><use xlink:href="#p" x="193.749" y="81.388"/><use xlink:href="#r" x="196.698" y="81.388"/><use xlink:href="#q" x="206.006" y="81.388"/><use xlink:href="#R" x="210.13" y="81.388"/><use xlink:href="#O" x="216.021" y="81.388"/><use xlink:href="#o" x="224.306" y="81.388"/><use xlink:href="#q" x="228.493" y="81.388"/><use xlink:href="#l" x="232.618" y="81.388"/><use xlink:href="#V" x="236.993" y="81.388"/><use xlink:href="#p" x="242.149" y="81.388"/><use xlink:href="#S" x="245.099" y="81.388"/><use xlink:href="#R" x="250.407" y="81.388"/><use xlink:href="#q" x="256.011" y="81.388"/><use xlink:href="#Z" x="263.543" y="81.388"/><use xlink:href="#p" x="266.493" y="81.388"/><use xlink:href="#r" x="269.443" y="81.388"/><use xlink:href="#O" x="275.334" y="81.388"/><use xlink:href="#P" x="283.622" y="81.388" fill="#FF7F00"/><use xlink:href="#X" x="290.532" y="81.388" fill="#00C"/><use xlink:href="#ag" x="301.369" y="81.388"/><use xlink:href="#l" x="304.615" y="81.388"/><use xlink:href="#m" x="308.99" y="81.388"/><use xlink:href="#ah" x="314.299" y="81.388"/><use xlink:href="#q" x="326.556" y="81.388"/><use xlink:href="#R" x="330.68" y="81.388"/><use xlink:href="#O" x="336.571" y="81.388"/><use xlink:href="#n" x="344.856" y="81.388"/><use xlink:href="#m" x="351.043" y="81.388"/><use xlink:href="#p" x="356.351" y="81.388"/><use xlink:href="#r" x="359.301" y="81.388"/><use xlink:href="#q" x="364.905" y="81.388"/><use xlink:href="#P" x="372.438" y="81.388" fill="#FF7F00"/><use xlink:href="#q" x="382.765" y="81.388"/><use xlink:href="#m" x="386.89" y="81.388"/><use xlink:href="#q" x="395.614" y="81.388"/><use xlink:href="#R" x="399.738" y="81.388"/><use xlink:href="#O" x="405.629" y="81.388"/><use xlink:href="#n" x="413.914" y="81.388"/><use xlink:href="#m" x="420.101" y="81.388"/><use xlink:href="#p" x="425.409" y="81.388"/><use xlink:href="#r" x="428.359" y="81.388"/><use xlink:href="#q" x="433.963" y="81.388"/><use xlink:href="#X" x="182.962" y="92.347" fill="#00C"/><use xlink:href="#U" x="190.382" y="92.347"/><use xlink:href="#V" x="196.865" y="92.347"/><use xlink:href="#r" x="202.02" y="92.347"/><use xlink:href="#W" x="207.911" y="92.347"/><use xlink:href="#ad" x="217.335" y="92.347"/><use xlink:href="#m" x="222.051" y="92.347"/><use xlink:href="#r" x="227.359" y="92.347"/><use xlink:href="#o" x="233.25" y="92.347"/><use xlink:href="#q" x="237.438" y="92.347"/><use xlink:href="#l" x="241.562" y="92.347"/><use xlink:href="#ac" x="245.938" y="92.347"/><use xlink:href="#ad" x="251.829" y="92.347"/><use xlink:href="#q" x="256.545" y="92.347"/><use xlink:href="#q" x="264.202" y="92.347"/><use xlink:href="#R" x="268.327" y="92.347"/><use xlink:href="#O" x="274.218" y="92.347"/><use xlink:href="#O" x="282.619" y="92.347"/><use xlink:href="#ab" x="287.488" y="92.347"/><use xlink:href="#ac" x="293.092" y="92.347"/><use xlink:href="#p" x="298.983" y="92.347"/><use xlink:href="#Z" x="301.933" y="92.347"/><use xlink:href="#V" x="304.883" y="92.347"/><use xlink:href="#q" x="310.038" y="92.347"/><use xlink:href="#O" x="314.163" y="92.347"/><use xlink:href="#l" x="319.032" y="92.347"/><use xlink:href="#V" x="323.407" y="92.347"/><use xlink:href="#Z" x="328.563" y="92.347"/><use xlink:href="#q" x="335.046" y="92.347"/><use xlink:href="#l" x="339.17" y="92.347"/><use xlink:href="#p" x="343.546" y="92.347"/><use xlink:href="#V" x="346.496" y="92.347"/><use xlink:href="#r" x="351.651" y="92.347"/><use xlink:href="#S" x="357.542" y="92.347"/><use xlink:href="#Z" x="362.85" y="92.347"/><use xlink:href="#O" x="365.8" y="92.347"/><use xlink:href="#ai" x="374.202" y="92.347"/><use xlink:href="#P" x="382.057" y="92.347" fill="#FF7F00"/><use xlink:href="#X" x="388.967" y="92.347" fill="#00C"/><use xlink:href="#m" x="399.919" y="92.347"/><use xlink:href="#r" x="405.227" y="92.347"/><use xlink:href="#p" x="414.651" y="92.347"/><use xlink:href="#q" x="417.601" y="92.347"/><use xlink:href="#aa" x="421.725" y="92.347"/><use xlink:href="#k" x="182.962" y="103.306"/><use xlink:href="#l" x="190.207" y="103.306"/><use xlink:href="#m" x="194.582" y="103.306"/><use xlink:href="#W" x="200.186" y="103.306"/><use xlink:href="#ac" x="206.077" y="103.306"/><use xlink:href="#ad" x="211.968" y="103.306"/><use xlink:href="#O" x="216.685" y="103.306"/><use xlink:href="#q" x="224.826" y="103.306"/><use xlink:href="#R" x="228.951" y="103.306"/><use xlink:href="#O" x="234.841" y="103.306"/><use xlink:href="#o" x="242.992" y="103.306"/><use xlink:href="#q" x="247.179" y="103.306"/><use xlink:href="#l" x="251.304" y="103.306"/><use xlink:href="#V" x="255.679" y="103.306"/><use xlink:href="#p" x="260.835" y="103.306"/><use xlink:href="#S" x="263.785" y="103.306"/><use xlink:href="#R" x="269.093" y="103.306"/><use xlink:href="#q" x="274.697" y="103.306"/><use xlink:href="#Z" x="282.085" y="103.306"/><use xlink:href="#p" x="285.035" y="103.306"/><use xlink:href="#r" x="287.985" y="103.306"/><use xlink:href="#O" x="293.876" y="103.306"/><use xlink:href="#o" x="298.745" y="103.306"/><use xlink:href="#P" x="306.215" y="103.306" fill="#FF7F00"/><use xlink:href="#aj" x="313.125" y="103.306"/><use xlink:href="#V" x="323.695" y="103.306"/><use xlink:href="#r" x="328.851" y="103.306"/><use xlink:href="#W" x="334.742" y="103.306"/><use xlink:href="#X" x="343.91" y="103.306" fill="#00C"/><use xlink:href="#ak" x="351.33" y="103.306"/><use xlink:href="#p" x="361.771" y="103.306"/><use xlink:href="#r" x="364.721" y="103.306"/><use xlink:href="#V" x="373.885" y="103.306"/><use xlink:href="#o" x="382.322" y="103.306"/><use xlink:href="#q" x="386.509" y="103.306"/><use xlink:href="#l" x="390.634" y="103.306"/><use xlink:href="#V" x="395.009" y="103.306"/><use xlink:href="#p" x="400.165" y="103.306"/><use xlink:href="#S" x="403.115" y="103.306"/><use xlink:href="#R" x="408.423" y="103.306"/><use xlink:href="#q" x="414.027" y="103.306"/><use xlink:href="#Z" x="421.415" y="103.306"/><use xlink:href="#p" x="424.365" y="103.306"/><use xlink:href="#r" x="427.315" y="103.306"/><use xlink:href="#O" x="433.206" y="103.306"/><use xlink:href="#ae" x="182.962" y="114.265"/><use xlink:href="#p" x="190.628" y="114.265"/><use xlink:href="#q" x="193.578" y="114.265"/><use xlink:href="#R" x="197.703" y="114.265"/><use xlink:href="#ai" x="207.114" y="114.265"/><use xlink:href="#P" x="214.969" y="114.265" fill="#FF7F00"/><use xlink:href="#V" x="225.399" y="114.265"/><use xlink:href="#r" x="230.555" y="114.265"/><use xlink:href="#W" x="236.446" y="114.265"/><use xlink:href="#ai" x="245.856" y="114.265"/><use xlink:href="#X" x="253.711" y="114.265" fill="#00C"/><use xlink:href="#aa" x="261.131" y="114.265"/><use xlink:href="#al" x="268.779" y="114.265"/><use xlink:href="#O" x="276.912" y="114.265"/><use xlink:href="#o" x="281.781" y="114.265"/><use xlink:href="#ad" x="285.968" y="114.265"/><use xlink:href="#l" x="290.684" y="114.265"/><use xlink:href="#p" x="295.06" y="114.265"/><use xlink:href="#Q" x="298.01" y="114.265"/><use xlink:href="#O" x="304.197" y="114.265"/><use xlink:href="#q" x="312.589" y="114.265"/><use xlink:href="#R" x="316.714" y="114.265"/><use xlink:href="#O" x="322.605" y="114.265"/><use xlink:href="#ad" x="330.997" y="114.265"/><use xlink:href="#p" x="335.713" y="114.265"/><use xlink:href="#l" x="338.663" y="114.265"/><use xlink:href="#ad" x="343.039" y="114.265"/><use xlink:href="#Z" x="347.755" y="114.265"/><use xlink:href="#O" x="350.705" y="114.265"/><use xlink:href="#Y" x="359.093" y="114.265" fill="#00C"/><use xlink:href="#am" x="366.309" y="114.265"/><use xlink:href="#an" x="373.525" y="114.265"/><use xlink:href="#ae" x="385.38" y="114.265"/><use xlink:href="#p" x="393.046" y="114.265"/><use xlink:href="#q" x="395.996" y="114.265"/><use xlink:href="#R" x="400.121" y="114.265"/><use xlink:href="#ad" x="409.526" y="114.265"/><use xlink:href="#O" x="414.243" y="114.265"/><use xlink:href="#r" x="419.112" y="114.265"/><use xlink:href="#q" x="424.716" y="114.265"/><use xlink:href="#O" x="428.84" y="114.265"/><use xlink:href="#l" x="433.709" y="114.265"/><use xlink:href="#X" x="182.962" y="125.224" fill="#00C"/><use xlink:href="#V" x="194.878" y="125.224"/><use xlink:href="#r" x="200.034" y="125.224"/><use xlink:href="#W" x="205.925" y="125.224"/><use xlink:href="#l" x="216.308" y="125.224"/><use xlink:href="#V" x="220.683" y="125.224"/><use xlink:href="#W" x="225.839" y="125.224"/><use xlink:href="#p" x="231.73" y="125.224"/><use xlink:href="#ac" x="234.68" y="125.224"/><use xlink:href="#o" x="240.571" y="125.224"/><use xlink:href="#X" x="249.257" y="125.224" fill="#00C"/><use xlink:href="#Y" x="256.677" y="125.224" fill="#00C"/><use xlink:href="#U" x="263.893" y="125.224"/><use xlink:href="#V" x="271.577" y="125.224"/><use xlink:href="#r" x="276.733" y="125.224"/><use xlink:href="#W" x="282.624" y="125.224"/><use xlink:href="#V" x="293.007" y="125.224"/><use xlink:href="#S" x="298.163" y="125.224"/><use xlink:href="#V" x="303.471" y="125.224"/><use xlink:href="#p" x="308.626" y="125.224"/><use xlink:href="#r" x="311.576" y="125.224"/><use xlink:href="#U" x="317.467" y="125.224"/><use xlink:href="#W" x="325.151" y="125.224"/><use xlink:href="#O" x="331.042" y="125.224"/><use xlink:href="#o" x="335.911" y="125.224"/><use xlink:href="#ad" x="340.098" y="125.224"/><use xlink:href="#l" x="344.815" y="125.224"/><use xlink:href="#p" x="349.19" y="125.224"/><use xlink:href="#Q" x="352.14" y="125.224"/><use xlink:href="#O" x="358.327" y="125.224"/><use xlink:href="#q" x="367.697" y="125.224"/><use xlink:href="#R" x="371.821" y="125.224"/><use xlink:href="#O" x="377.712" y="125.224"/><use xlink:href="#ad" x="387.073" y="125.224"/><use xlink:href="#p" x="391.789" y="125.224"/><use xlink:href="#l" x="394.739" y="125.224"/><use xlink:href="#ad" x="399.115" y="125.224"/><use xlink:href="#Z" x="403.831" y="125.224"/><use xlink:href="#O" x="406.781" y="125.224"/><use xlink:href="#am" x="416.152" y="125.224"/><use xlink:href="#ao" x="423.368" y="125.224"/><use xlink:href="#ap" x="431.81" y="125.224" fill="#B20000"/><use xlink:href="#ae" x="182.962" y="136.183"/><use xlink:href="#p" x="190.628" y="136.183"/><use xlink:href="#q" x="193.578" y="136.183"/><use xlink:href="#R" x="197.703" y="136.183"/><use xlink:href="#ad" x="207.126" y="136.183"/><use xlink:href="#O" x="211.843" y="136.183"/><use xlink:href="#r" x="216.711" y="136.183"/><use xlink:href="#q" x="222.306" y="136.183"/><use xlink:href="#O" x="226.431" y="136.183"/><use xlink:href="#l" x="231.3" y="136.183"/><use xlink:href="#ai" x="239.208" y="136.183"/><use xlink:href="#V" x="250.596" y="136.183"/><use xlink:href="#r" x="255.752" y="136.183"/><use xlink:href="#W" x="261.643" y="136.183"/><use xlink:href="#l" x="271.066" y="136.183"/><use xlink:href="#V" x="275.442" y="136.183"/><use xlink:href="#W" x="280.598" y="136.183"/><use xlink:href="#p" x="286.488" y="136.183"/><use xlink:href="#ac" x="289.438" y="136.183"/><use xlink:href="#o" x="295.329" y="136.183"/><use xlink:href="#ai" x="303.05" y="136.183"/><use xlink:href="#am" x="310.9" y="136.183"/><use xlink:href="#aa" x="318.12" y="136.183"/><use xlink:href="#aq" x="182.962" y="147.142"/><use xlink:href="#p" x="188.853" y="147.142"/><use xlink:href="#r" x="191.803" y="147.142"/><use xlink:href="#ad" x="197.694" y="147.142"/><use xlink:href="#O" x="202.41" y="147.142"/><use xlink:href="#q" x="210.211" y="147.142"/><use xlink:href="#R" x="214.335" y="147.142"/><use xlink:href="#O" x="220.226" y="147.142"/><use xlink:href="#n" x="228.027" y="147.142"/><use xlink:href="#m" x="234.214" y="147.142"/><use xlink:href="#p" x="239.522" y="147.142"/><use xlink:href="#r" x="242.472" y="147.142"/><use xlink:href="#q" x="248.067" y="147.142"/><use xlink:href="#X" x="255.123" y="147.142" fill="#00C"/><use xlink:href="#p" x="265.474" y="147.142"/><use xlink:href="#o" x="268.424" y="147.142"/><use xlink:href="#q" x="275.543" y="147.142"/><use xlink:href="#R" x="279.668" y="147.142"/><use xlink:href="#O" x="285.559" y="147.142"/><use xlink:href="#ad" x="293.359" y="147.142"/><use xlink:href="#O" x="298.076" y="147.142"/><use xlink:href="#r" x="302.945" y="147.142"/><use xlink:href="#q" x="308.54" y="147.142"/><use xlink:href="#O" x="312.664" y="147.142"/><use xlink:href="#l" x="317.533" y="147.142"/><use xlink:href="#m" x="324.84" y="147.142"/><use xlink:href="#ag" x="330.148" y="147.142"/><use xlink:href="#q" x="336.317" y="147.142"/><use xlink:href="#R" x="340.442" y="147.142"/><use xlink:href="#O" x="346.333" y="147.142"/><use xlink:href="#ad" x="354.134" y="147.142"/><use xlink:href="#p" x="358.85" y="147.142"/><use xlink:href="#l" x="361.8" y="147.142"/><use xlink:href="#ad" x="366.175" y="147.142"/><use xlink:href="#Z" x="370.892" y="147.142"/><use xlink:href="#O" x="373.842" y="147.142"/><use xlink:href="#Y" x="381.65" y="147.142" fill="#00C"/><use xlink:href="#am" x="388.866" y="147.142"/><use xlink:href="#an" x="396.082" y="147.142"/><use xlink:href="#U" x="404.417" y="147.142"/><use xlink:href="#q" x="410.416" y="147.142"/><use xlink:href="#R" x="414.54" y="147.142"/><use xlink:href="#O" x="420.431" y="147.142"/><use xlink:href="#l" x="425.3" y="147.142"/><use xlink:href="#O" x="429.675" y="147.142"/><use xlink:href="#ar" x="434.544" y="147.142"/><use xlink:href="#ag" x="182.962" y="158.101"/><use xlink:href="#m" x="186.208" y="158.101"/><use xlink:href="#l" x="191.516" y="158.101"/><use xlink:href="#O" x="195.892" y="158.101"/><use xlink:href="#X" x="203.859" y="158.101" fill="#00C"/><use xlink:href="#Y" x="211.278" y="158.101" fill="#00C"/><use xlink:href="#O" x="221.592" y="158.101"/><use xlink:href="#ab" x="226.461" y="158.101"/><use xlink:href="#ac" x="232.065" y="158.101"/><use xlink:href="#V" x="237.956" y="158.101"/><use xlink:href="#Z" x="243.111" y="158.101"/><use xlink:href="#o" x="246.061" y="158.101"/><use xlink:href="#X" x="253.347" y="158.101" fill="#00C"/><use xlink:href="#am" x="260.767" y="158.101"/><use xlink:href="#aa" x="267.983" y="158.101"/><use xlink:href="#as" x="275.497" y="158.101"/><use xlink:href="#S" x="283.504" y="158.101"/><use xlink:href="#V" x="288.812" y="158.101"/><use xlink:href="#p" x="293.968" y="158.101"/><use xlink:href="#r" x="296.918" y="158.101"/><use xlink:href="#U" x="302.808" y="158.101"/><use xlink:href="#o" x="308.941" y="158.101"/><use xlink:href="#p" x="313.129" y="158.101"/><use xlink:href="#r" x="316.079" y="158.101"/><use xlink:href="#ad" x="321.97" y="158.101"/><use xlink:href="#O" x="326.686" y="158.101"/><use xlink:href="#q" x="334.648" y="158.101"/><use xlink:href="#R" x="338.773" y="158.101"/><use xlink:href="#O" x="344.663" y="158.101"/><use xlink:href="#n" x="352.635" y="158.101"/><use xlink:href="#m" x="358.821" y="158.101"/><use xlink:href="#p" x="364.129" y="158.101"/><use xlink:href="#r" x="367.079" y="158.101"/><use xlink:href="#q" x="372.683" y="158.101"/><use xlink:href="#ai" x="379.901" y="158.101"/><use xlink:href="#p" x="390.854" y="158.101"/><use xlink:href="#o" x="393.804" y="158.101"/><use xlink:href="#q" x="401.085" y="158.101"/><use xlink:href="#R" x="405.209" y="158.101"/><use xlink:href="#O" x="411.1" y="158.101"/><use xlink:href="#ad" x="419.071" y="158.101"/><use xlink:href="#O" x="423.788" y="158.101"/><use xlink:href="#r" x="428.656" y="158.101"/><use xlink:href="#ar" x="434.547" y="158.101"/><use xlink:href="#q" x="182.962" y="169.059"/><use xlink:href="#O" x="187.087" y="169.059"/><use xlink:href="#l" x="191.955" y="169.059"/><use xlink:href="#m" x="199.944" y="169.059"/><use xlink:href="#ag" x="205.252" y="169.059"/><use xlink:href="#q" x="212.112" y="169.059"/><use xlink:href="#R" x="216.236" y="169.059"/><use xlink:href="#O" x="222.127" y="169.059"/><use xlink:href="#ad" x="230.609" y="169.059"/><use xlink:href="#p" x="235.326" y="169.059"/><use xlink:href="#l" x="238.276" y="169.059"/><use xlink:href="#ad" x="242.651" y="169.059"/><use xlink:href="#Z" x="247.368" y="169.059"/><use xlink:href="#O" x="250.317" y="169.059"/><use xlink:href="#am" x="258.801" y="169.059"/><use xlink:href="#ao" x="266.017" y="169.059"/><use xlink:href="#ap" x="274.458" y="169.059" fill="#B20000"/><use xlink:href="#U" x="280.729" y="169.059"/><use xlink:href="#q" x="287.31" y="169.059"/><use xlink:href="#R" x="291.435" y="169.059"/><use xlink:href="#O" x="297.326" y="169.059"/><use xlink:href="#l" x="302.195" y="169.059"/><use xlink:href="#O" x="306.57" y="169.059"/><use xlink:href="#ag" x="311.439" y="169.059"/><use xlink:href="#m" x="314.685" y="169.059"/><use xlink:href="#l" x="319.993" y="169.059"/><use xlink:href="#O" x="324.368" y="169.059"/><use xlink:href="#ai" x="332.854" y="169.059"/><use xlink:href="#ap" x="340.709" y="169.059" fill="#B20000"/><use xlink:href="#O" x="350.593" y="169.059"/><use xlink:href="#ab" x="355.462" y="169.059"/><use xlink:href="#ac" x="361.066" y="169.059"/><use xlink:href="#V" x="366.957" y="169.059"/><use xlink:href="#Z" x="372.112" y="169.059"/><use xlink:href="#o" x="375.062" y="169.059"/><use xlink:href="#ai" x="382.863" y="169.059"/><use xlink:href="#am" x="390.713" y="169.059"/><use xlink:href="#aa" x="397.934" y="169.059"/><use xlink:href="#as" x="405.833" y="169.059"/><use xlink:href="#r" x="413.84" y="169.059"/><use xlink:href="#W" x="419.731" y="169.059"/><use xlink:href="#p" x="429.236" y="169.059"/><use xlink:href="#r" x="432.186" y="169.059"/><use xlink:href="#q" x="182.962" y="180.018"/><use xlink:href="#R" x="187.087" y="180.018"/><use xlink:href="#O" x="192.977" y="180.018"/><use xlink:href="#o" x="197.846" y="180.018"/><use xlink:href="#O" x="202.033" y="180.018"/><use xlink:href="#ai" x="209.846" y="180.018"/><use xlink:href="#P" x="217.701" y="180.018" fill="#FF7F00"/><use xlink:href="#O" x="227.555" y="180.018"/><use xlink:href="#ab" x="232.424" y="180.018"/><use xlink:href="#ac" x="238.028" y="180.018"/><use xlink:href="#V" x="243.919" y="180.018"/><use xlink:href="#Z" x="249.074" y="180.018"/><use xlink:href="#o" x="252.024" y="180.018"/><use xlink:href="#ai" x="259.155" y="180.018"/><use xlink:href="#X" x="267.01" y="180.018" fill="#00C"/><use xlink:href="#U" x="274.43" y="180.018"/><use xlink:href="#q" x="280.437" y="180.018"/><use xlink:href="#R" x="284.562" y="180.018"/><use xlink:href="#O" x="290.453" y="180.018"/><use xlink:href="#l" x="295.322" y="180.018"/><use xlink:href="#O" x="299.697" y="180.018"/><use xlink:href="#ag" x="304.566" y="180.018"/><use xlink:href="#m" x="307.812" y="180.018"/><use xlink:href="#l" x="313.12" y="180.018"/><use xlink:href="#O" x="317.496" y="180.018"/><use xlink:href="#q" x="325.305" y="180.018"/><use xlink:href="#R" x="329.43" y="180.018"/><use xlink:href="#O" x="335.321" y="180.018"/><use xlink:href="#l" x="343.139" y="180.018"/><use xlink:href="#O" x="347.515" y="180.018"/><use xlink:href="#ah" x="352.384" y="180.018"/><use xlink:href="#V" x="361.225" y="180.018"/><use xlink:href="#p" x="366.38" y="180.018"/><use xlink:href="#r" x="369.33" y="180.018"/><use xlink:href="#W" x="375.221" y="180.018"/><use xlink:href="#O" x="381.112" y="180.018"/><use xlink:href="#l" x="385.981" y="180.018"/><use xlink:href="#P" x="393.299" y="180.018" fill="#FF7F00"/><use xlink:href="#ap" x="400.21" y="180.018" fill="#B20000"/><use xlink:href="#O" x="409.424" y="180.018"/><use xlink:href="#ab" x="414.293" y="180.018"/><use xlink:href="#ac" x="419.897" y="180.018"/><use xlink:href="#V" x="425.788" y="180.018"/><use xlink:href="#Z" x="430.943" y="180.018"/><use xlink:href="#o" x="433.893" y="180.018"/><use xlink:href="#q" x="182.962" y="190.977"/><use xlink:href="#R" x="187.087" y="190.977"/><use xlink:href="#O" x="192.977" y="190.977"/><use xlink:href="#l" x="200.258" y="190.977"/><use xlink:href="#O" x="204.634" y="190.977"/><use xlink:href="#ah" x="209.502" y="190.977"/><use xlink:href="#V" x="218.343" y="190.977"/><use xlink:href="#p" x="223.499" y="190.977"/><use xlink:href="#r" x="226.449" y="190.977"/><use xlink:href="#W" x="232.34" y="190.977"/><use xlink:href="#O" x="238.231" y="190.977"/><use xlink:href="#l" x="243.1" y="190.977"/><use xlink:href="#X" x="249.898" y="190.977" fill="#00C"/><use xlink:href="#am" x="257.317" y="190.977"/><use xlink:href="#aa" x="264.533" y="190.977"/><use xlink:href="#at" x="271.814" y="190.977"/><use xlink:href="#ac" x="279.354" y="190.977"/><use xlink:href="#q" x="285.245" y="190.977"/><use xlink:href="#X" x="291.795" y="190.977" fill="#00C"/><use xlink:href="#Y" x="299.214" y="190.977" fill="#00C"/><use xlink:href="#ae" x="308.847" y="190.977"/><use xlink:href="#V" x="316.217" y="190.977"/><use xlink:href="#o" x="321.373" y="190.977"/><use xlink:href="#V" x="327.972" y="190.977"/><use xlink:href="#Z" x="333.128" y="190.977"/><use xlink:href="#o" x="336.078" y="190.977"/><use xlink:href="#m" x="340.265" y="190.977"/><use xlink:href="#n" x="347.994" y="190.977"/><use xlink:href="#l" x="353.885" y="190.977"/><use xlink:href="#m" x="358.261" y="190.977"/><use xlink:href="#T" x="363.282" y="190.977"/><use xlink:href="#O" x="368.59" y="190.977"/><use xlink:href="#W" x="373.459" y="190.977"/><use xlink:href="#O" x="381.753" y="190.977"/><use xlink:href="#ab" x="386.621" y="190.977"/><use xlink:href="#ac" x="392.225" y="190.977"/><use xlink:href="#V" x="398.116" y="190.977"/><use xlink:href="#Z" x="403.272" y="190.977"/><use xlink:href="#q" x="408.643" y="190.977"/><use xlink:href="#m" x="412.767" y="190.977"/><use xlink:href="#X" x="420.495" y="190.977" fill="#00C"/><use xlink:href="#am" x="427.915" y="190.977"/><use xlink:href="#U" x="435.131" y="190.977"/><use xlink:href="#q" x="182.962" y="201.936"/><use xlink:href="#R" x="187.087" y="201.936"/><use xlink:href="#O" x="192.977" y="201.936"/><use xlink:href="#l" x="197.846" y="201.936"/><use xlink:href="#O" x="202.222" y="201.936"/><use xlink:href="#ag" x="207.091" y="201.936"/><use xlink:href="#m" x="210.336" y="201.936"/><use xlink:href="#l" x="215.644" y="201.936"/><use xlink:href="#O" x="220.02" y="201.936"/><use xlink:href="#O" x="229.255" y="201.936"/><use xlink:href="#V" x="234.124" y="201.936"/><use xlink:href="#ad" x="239.28" y="201.936"/><use xlink:href="#R" x="243.709" y="201.936"/><use xlink:href="#m" x="253.967" y="201.936"/><use xlink:href="#ag" x="259.275" y="201.936"/><use xlink:href="#q" x="266.887" y="201.936"/><use xlink:href="#R" x="271.012" y="201.936"/><use xlink:href="#O" x="276.903" y="201.936"/><use xlink:href="#o" x="286.147" y="201.936"/><use xlink:href="#q" x="290.334" y="201.936"/><use xlink:href="#l" x="294.459" y="201.936"/><use xlink:href="#V" x="298.835" y="201.936"/><use xlink:href="#p" x="303.99" y="201.936"/><use xlink:href="#S" x="306.94" y="201.936"/><use xlink:href="#R" x="312.248" y="201.936"/><use xlink:href="#q" x="317.843" y="201.936"/><use xlink:href="#Z" x="326.334" y="201.936"/><use xlink:href="#p" x="329.284" y="201.936"/><use xlink:href="#r" x="332.234" y="201.936"/><use xlink:href="#O" x="338.125" y="201.936"/><use xlink:href="#o" x="342.994" y="201.936"/><use xlink:href="#P" x="351.557" y="201.936" fill="#FF7F00"/><use xlink:href="#ap" x="358.467" y="201.936" fill="#B20000"/><use xlink:href="#V" x="369.109" y="201.936"/><use xlink:href="#r" x="374.265" y="201.936"/><use xlink:href="#W" x="380.156" y="201.936"/><use xlink:href="#X" x="390.417" y="201.936" fill="#00C"/><use xlink:href="#Y" x="397.837" y="201.936" fill="#00C"/><use xlink:href="#O" x="409.424" y="201.936"/><use xlink:href="#ab" x="414.293" y="201.936"/><use xlink:href="#ac" x="419.897" y="201.936"/><use xlink:href="#V" x="425.788" y="201.936"/><use xlink:href="#Z" x="430.943" y="201.936"/><use xlink:href="#o" x="433.893" y="201.936"/><use xlink:href="#X" x="182.962" y="212.895" fill="#00C"/><use xlink:href="#am" x="190.382" y="212.895"/><use xlink:href="#aa" x="197.598" y="212.895"/><use xlink:href="#as" x="205.515" y="212.895"/><use xlink:href="#r" x="213.522" y="212.895"/><use xlink:href="#W" x="219.413" y="212.895"/><use xlink:href="#q" x="228.927" y="212.895"/><use xlink:href="#R" x="233.051" y="212.895"/><use xlink:href="#p" x="238.942" y="212.895"/><use xlink:href="#r" x="241.892" y="212.895"/><use xlink:href="#S" x="247.783" y="212.895"/><use xlink:href="#o" x="253.091" y="212.895"/><use xlink:href="#ae" x="260.901" y="212.895"/><use xlink:href="#R" x="268.567" y="212.895"/><use xlink:href="#p" x="274.458" y="212.895"/><use xlink:href="#ad" x="277.408" y="212.895"/><use xlink:href="#R" x="281.828" y="212.895"/><use xlink:href="#O" x="291.333" y="212.895"/><use xlink:href="#ab" x="296.201" y="212.895"/><use xlink:href="#ac" x="301.805" y="212.895"/><use xlink:href="#V" x="307.696" y="212.895"/><use xlink:href="#Z" x="312.852" y="212.895"/><use xlink:href="#q" x="319.424" y="212.895"/><use xlink:href="#R" x="323.549" y="212.895"/><use xlink:href="#O" x="329.44" y="212.895"/><use xlink:href="#o" x="337.931" y="212.895"/><use xlink:href="#V" x="342.118" y="212.895"/><use xlink:href="#ah" x="347.274" y="212.895"/><use xlink:href="#O" x="356.115" y="212.895"/><use xlink:href="#q" x="364.606" y="212.895"/><use xlink:href="#R" x="368.73" y="212.895"/><use xlink:href="#p" x="374.621" y="212.895"/><use xlink:href="#r" x="377.571" y="212.895"/><use xlink:href="#S" x="383.462" y="212.895"/><use xlink:href="#V" x="392.384" y="212.895"/><use xlink:href="#Z" x="397.539" y="212.895"/><use xlink:href="#o" x="400.489" y="212.895"/><use xlink:href="#m" x="404.677" y="212.895"/><use xlink:href="#O" x="413.607" y="212.895"/><use xlink:href="#ab" x="418.476" y="212.895"/><use xlink:href="#ac" x="424.08" y="212.895"/><use xlink:href="#V" x="429.971" y="212.895"/><use xlink:href="#Z" x="435.126" y="212.895"/><use xlink:href="#m" x="182.962" y="223.854"/><use xlink:href="#r" x="188.27" y="223.854"/><use xlink:href="#O" x="194.161" y="223.854"/><use xlink:href="#V" x="202.563" y="223.854"/><use xlink:href="#r" x="207.718" y="223.854"/><use xlink:href="#m" x="213.609" y="223.854"/><use xlink:href="#q" x="218.917" y="223.854"/><use xlink:href="#R" x="223.042" y="223.854"/><use xlink:href="#O" x="228.933" y="223.854"/><use xlink:href="#l" x="233.801" y="223.854"/><use xlink:href="#U" x="238.177" y="223.854"/><use xlink:href="#q" x="244.66" y="223.854"/><use xlink:href="#R" x="248.784" y="223.854"/><use xlink:href="#O" x="254.675" y="223.854"/><use xlink:href="#l" x="259.544" y="223.854"/><use xlink:href="#O" x="263.919" y="223.854"/><use xlink:href="#ag" x="268.788" y="223.854"/><use xlink:href="#m" x="272.034" y="223.854"/><use xlink:href="#l" x="277.342" y="223.854"/><use xlink:href="#O" x="281.718" y="223.854"/><use xlink:href="#P" x="290.119" y="223.854" fill="#FF7F00"/><use xlink:href="#ap" x="297.03" y="223.854" fill="#B20000"/><use xlink:href="#V" x="306.833" y="223.854"/><use xlink:href="#Z" x="311.989" y="223.854"/><use xlink:href="#o" x="314.939" y="223.854"/><use xlink:href="#m" x="319.126" y="223.854"/><use xlink:href="#O" x="327.967" y="223.854"/><use xlink:href="#ab" x="332.836" y="223.854"/><use xlink:href="#ac" x="338.439" y="223.854"/><use xlink:href="#V" x="344.33" y="223.854"/><use xlink:href="#Z" x="349.486" y="223.854"/><use xlink:href="#o" x="352.436" y="223.854"/><use xlink:href="#X" x="360.156" y="223.854" fill="#00C"/><use xlink:href="#Y" x="367.576" y="223.854" fill="#00C"/><use xlink:href="#aa" x="374.792" y="223.854"/><use xlink:href="#au" x="182.962" y="235.809"/><use xlink:href="#R" x="190.341" y="235.809"/><use xlink:href="#O" x="196.232" y="235.809"/><use xlink:href="#l" x="201.101" y="235.809"/><use xlink:href="#O" x="205.477" y="235.809"/><use xlink:href="#ag" x="210.345" y="235.809"/><use xlink:href="#m" x="213.591" y="235.809"/><use xlink:href="#l" x="218.899" y="235.809"/><use xlink:href="#O" x="223.275" y="235.809"/><use xlink:href="#q" x="235.173" y="235.809"/><use xlink:href="#R" x="239.298" y="235.809"/><use xlink:href="#O" x="245.189" y="235.809"/><g fill="#B20000"><use xlink:href="#o" x="257.098" y="235.809"/><use xlink:href="#q" x="261.285" y="235.809"/><use xlink:href="#l" x="265.41" y="235.809"/><use xlink:href="#V" x="269.785" y="235.809"/><use xlink:href="#p" x="274.941" y="235.809"/><use xlink:href="#S" x="277.891" y="235.809"/><use xlink:href="#R" x="283.199" y="235.809"/></g><use xlink:href="#q" x="288.794" y="235.809" fill="#B20000"/><g fill="#B20000"><use xlink:href="#Z" x="299.948" y="235.809"/><use xlink:href="#p" x="302.898" y="235.809"/><use xlink:href="#r" x="305.848" y="235.809"/><use xlink:href="#O" x="311.739" y="235.809"/></g><use xlink:href="#P" x="323.648" y="235.809" fill="#FF7F00"/><use xlink:href="#ap" x="330.558" y="235.809" fill="#B20000"/><use xlink:href="#O" x="343.864" y="235.809"/><use xlink:href="#ab" x="348.733" y="235.809"/><use xlink:href="#ac" x="354.337" y="235.809"/><use xlink:href="#V" x="360.228" y="235.809"/><use xlink:href="#Z" x="365.383" y="235.809"/><use xlink:href="#q" x="375.363" y="235.809"/><use xlink:href="#m" x="379.487" y="235.809"/><use xlink:href="#q" x="391.834" y="235.809"/><use xlink:href="#R" x="395.959" y="235.809"/><use xlink:href="#O" x="401.85" y="235.809"/><use xlink:href="#S" x="413.748" y="235.809"/><use xlink:href="#p" x="419.056" y="235.809"/><use xlink:href="#T" x="422.006" y="235.809"/><use xlink:href="#O" x="427.323" y="235.809"/><use xlink:href="#r" x="432.192" y="235.809"/><g fill="#00C"><use xlink:href="#o" x="182.962" y="247.764"/><use xlink:href="#q" x="187.149" y="247.764"/><use xlink:href="#l" x="191.274" y="247.764"/><use xlink:href="#V" x="195.649" y="247.764"/><use xlink:href="#p" x="200.805" y="247.764"/><use xlink:href="#S" x="203.755" y="247.764"/><use xlink:href="#R" x="209.063" y="247.764"/></g><use xlink:href="#q" x="214.658" y="247.764" fill="#00C"/><g fill="#00C"><use xlink:href="#Z" x="223.176" y="247.764"/><use xlink:href="#p" x="226.126" y="247.764"/><use xlink:href="#r" x="229.076" y="247.764"/><use xlink:href="#O" x="234.967" y="247.764"/></g><use xlink:href="#X" x="244.236" y="247.764" fill="#00C"/><use xlink:href="#Y" x="251.656" y="247.764" fill="#00C"/><use xlink:href="#R" x="263.268" y="247.764"/><use xlink:href="#V" x="269.159" y="247.764"/><use xlink:href="#o" x="274.315" y="247.764"/><use xlink:href="#Q" x="282.895" y="247.764"/><use xlink:href="#O" x="289.082" y="247.764"/><use xlink:href="#O" x="293.951" y="247.764"/><use xlink:href="#r" x="298.82" y="247.764"/><use xlink:href="#n" x="309.104" y="247.764"/><use xlink:href="#Z" x="314.995" y="247.764"/><use xlink:href="#V" x="317.945" y="247.764"/><use xlink:href="#ad" x="323.101" y="247.764"/><use xlink:href="#O" x="327.817" y="247.764"/><use xlink:href="#W" x="332.686" y="247.764"/><use xlink:href="#ae" x="342.979" y="247.764"/><use xlink:href="#p" x="350.645" y="247.764"/><use xlink:href="#q" x="353.595" y="247.764"/><use xlink:href="#R" x="357.72" y="247.764"/><use xlink:href="#m" x="368.004" y="247.764"/><use xlink:href="#r" x="373.312" y="247.764"/><use xlink:href="#O" x="379.203" y="247.764"/><use xlink:href="#O" x="388.466" y="247.764"/><use xlink:href="#r" x="393.334" y="247.764"/><use xlink:href="#W" x="399.225" y="247.764"/><use xlink:href="#V" x="409.519" y="247.764"/><use xlink:href="#q" x="414.674" y="247.764"/><use xlink:href="#q" x="423.192" y="247.764"/><use xlink:href="#R" x="427.317" y="247.764"/><use xlink:href="#O" x="433.208" y="247.764"/><g fill="#FF7F00"><use xlink:href="#S" x="182.962" y="259.72"/><use xlink:href="#p" x="188.27" y="259.72"/><use xlink:href="#T" x="191.22" y="259.72"/></g><g fill="#FF7F00"><use xlink:href="#O" x="196.528" y="259.72"/><use xlink:href="#r" x="201.397" y="259.72"/></g><use xlink:href="#n" x="210.821" y="259.72" fill="#FF7F00"/><g fill="#FF7F00"><use xlink:href="#m" x="217.007" y="259.72"/><use xlink:href="#p" x="222.315" y="259.72"/><use xlink:href="#r" x="225.265" y="259.72"/></g><use xlink:href="#q" x="230.86" y="259.72" fill="#FF7F00"/><use xlink:href="#P" x="238.518" y="259.72" fill="#FF7F00"/><use xlink:href="#aa" x="245.428" y="259.72"/></svg>