<svg xmlns="http://www.w3.org/2000/svg" xmlns:xlink="http://www.w3.org/1999/xlink" width="87.058" height="16.364"><defs><clipPath id="a"><path d="M30 0h26v16.047H30Zm0 0"/></clipPath><path id="b" d="M6.75-1.61H6.5a3.7 3.7 0 0 1-.187.72c-.047.156-.079.25-.657.25H4.86c.141-.563.438-1.047.891-1.704.469-.703.875-1.39.875-2.187 0-1.375-1.344-2.5-3.031-2.5-1.703 0-3.031 1.14-3.031 2.5 0 .797.406 1.484.875 2.187.437.656.75 1.14.89 1.703h-.797c-.578 0-.61-.093-.656-.234-.094-.234-.14-.484-.187-.734h-.25L.766 0h1.593c.22 0 .25 0 .25-.203 0-.703-.312-1.578-.53-2.219-.22-.578-.5-1.36-.5-2.11 0-1.593 1.109-2.28 2.015-2.28.953 0 2.015.718 2.015 2.28 0 .75-.28 1.5-.562 2.313-.156.422-.469 1.328-.469 2.016 0 .203.031.203.25.203h1.594Zm0 0"/></defs><g clip-path="url(#a)"><path fill="none" stroke="#000" stroke-miterlimit="10" stroke-width=".399" d="M50.031 7.86A6.97 6.97 0 0 0 43.06.886a6.97 6.97 0 0 0-6.973 6.972 6.97 6.97 0 0 0 6.973 6.973 6.97 6.97 0 0 0 6.972-6.973Zm0 0"/></g><use xlink:href="#b" x="39.46" y="11.264"/><path fill="none" stroke="#000" stroke-miterlimit="10" stroke-width=".399" d="M.54 7.86h35.347m14.343 0h35.348"/></svg>