<svg xmlns="http://www.w3.org/2000/svg" xmlns:xlink="http://www.w3.org/1999/xlink" width="286.616" height="42.014"><defs><clipPath id="d"><path d="M72.25 10.55h141.73v19.927H72.25Zm0 0"/></clipPath><clipPath id="b"><path d="M0 0h12v12H0Zm0 0"/></clipPath><clipPath id="a"><path d="M0 0h12v12H0z"/></clipPath><clipPath id="f"><path d="M72.25 28h.46v2.477h-.46Zm0 0"/></clipPath><clipPath id="g"><path d="M72.25 28H75v2.477h-2.75Zm0 0"/></clipPath><clipPath id="h"><path d="M74 28h4v2.477h-4Zm0 0"/></clipPath><clipPath id="i"><path d="M77 28h4v2.477h-4Zm0 0"/></clipPath><clipPath id="j"><path d="M80 28h4v2.477h-4Zm0 0"/></clipPath><clipPath id="k"><path d="M83 28h4v2.477h-4Zm0 0"/></clipPath><clipPath id="l"><path d="M86 28h4v2.477h-4Zm0 0"/></clipPath><clipPath id="m"><path d="M89 28h4v2.477h-4Zm0 0"/></clipPath><clipPath id="n"><path d="M92 28h4v2.477h-4Zm0 0"/></clipPath><clipPath id="o"><path d="M95 28h4v2.477h-4Zm0 0"/></clipPath><clipPath id="p"><path d="M98 28h4v2.477h-4Zm0 0"/></clipPath><clipPath id="q"><path d="M101 28h4v2.477h-4Zm0 0"/></clipPath><clipPath id="r"><path d="M104 28h4v2.477h-4Zm0 0"/></clipPath><clipPath id="s"><path d="M107 28h4v2.477h-4Zm0 0"/></clipPath><clipPath id="t"><path d="M110 28h4v2.477h-4Zm0 0"/></clipPath><clipPath id="u"><path d="M113 28h1.77v2.477H113Zm0 0"/></clipPath><clipPath id="v"><path d="M72.25 25h.46v4h-.46Zm0 0"/></clipPath><clipPath id="w"><path d="M72.25 25H75v4h-2.75Zm0 0"/></clipPath><clipPath id="x"><path d="M113 25h1.77v4H113Zm0 0"/></clipPath><clipPath id="y"><path d="M72.25 22h.46v4h-.46Zm0 0"/></clipPath><clipPath id="z"><path d="M72.25 22H75v4h-2.75Zm0 0"/></clipPath><clipPath id="A"><path d="M113 22h1.77v4H113Zm0 0"/></clipPath><clipPath id="B"><path d="M72.25 19h.46v4h-.46Zm0 0"/></clipPath><clipPath id="C"><path d="M72.25 19H75v4h-2.75Zm0 0"/></clipPath><clipPath id="D"><path d="M113 19h1.77v4H113Zm0 0"/></clipPath><clipPath id="E"><path d="M72.25 16h.46v4h-.46Zm0 0"/></clipPath><clipPath id="F"><path d="M72.25 16H75v4h-2.75Zm0 0"/></clipPath><clipPath id="G"><path d="M113 16h1.77v4H113Zm0 0"/></clipPath><clipPath id="H"><path d="M72.25 13h.46v4h-.46Zm0 0"/></clipPath><clipPath id="I"><path d="M72.25 13H75v4h-2.75Zm0 0"/></clipPath><clipPath id="J"><path d="M113 13h1.77v4H113Zm0 0"/></clipPath><clipPath id="K"><path d="M72.25 10.55h.46V14h-.46Zm0 0"/></clipPath><clipPath id="L"><path d="M72.25 10.55H75V14h-2.75Zm0 0"/></clipPath><clipPath id="M"><path d="M74 10.55h4V14h-4Zm0 0"/></clipPath><clipPath id="N"><path d="M77 10.55h4V14h-4Zm0 0"/></clipPath><clipPath id="O"><path d="M80 10.55h4V14h-4Zm0 0"/></clipPath><clipPath id="P"><path d="M83 10.55h4V14h-4Zm0 0"/></clipPath><clipPath id="Q"><path d="M86 10.55h4V14h-4Zm0 0"/></clipPath><clipPath id="R"><path d="M89 10.55h4V14h-4Zm0 0"/></clipPath><clipPath id="S"><path d="M92 10.55h4V14h-4Zm0 0"/></clipPath><clipPath id="T"><path d="M95 10.55h4V14h-4Zm0 0"/></clipPath><clipPath id="U"><path d="M98 10.55h4V14h-4Zm0 0"/></clipPath><clipPath id="V"><path d="M101 10.55h4V14h-4Zm0 0"/></clipPath><clipPath id="W"><path d="M104 10.55h4V14h-4Zm0 0"/></clipPath><clipPath id="X"><path d="M107 10.55h4V14h-4Zm0 0"/></clipPath><clipPath id="Y"><path d="M110 10.55h4V14h-4Zm0 0"/></clipPath><clipPath id="Z"><path d="M113 10.55h1.77V14H113Zm0 0"/></clipPath><clipPath id="aa"><path d="M72.25 10.55h.46V11h-.46Zm0 0"/></clipPath><clipPath id="ab"><path d="M72.25 10.55H75V11h-2.75Zm0 0"/></clipPath><clipPath id="ac"><path d="M74 10.55h4V11h-4Zm0 0"/></clipPath><clipPath id="ad"><path d="M77 10.55h4V11h-4Zm0 0"/></clipPath><clipPath id="ae"><path d="M80 10.55h4V11h-4Zm0 0"/></clipPath><clipPath id="af"><path d="M83 10.55h4V11h-4Zm0 0"/></clipPath><clipPath id="ag"><path d="M86 10.55h4V11h-4Zm0 0"/></clipPath><clipPath id="ah"><path d="M89 10.55h4V11h-4Zm0 0"/></clipPath><clipPath id="ai"><path d="M92 10.55h4V11h-4Zm0 0"/></clipPath><clipPath id="aj"><path d="M95 10.55h4V11h-4Zm0 0"/></clipPath><clipPath id="ak"><path d="M98 10.55h4V11h-4Zm0 0"/></clipPath><clipPath id="al"><path d="M101 10.55h4V11h-4Zm0 0"/></clipPath><clipPath id="am"><path d="M104 10.55h4V11h-4Zm0 0"/></clipPath><clipPath id="an"><path d="M107 10.55h4V11h-4Zm0 0"/></clipPath><clipPath id="ao"><path d="M110 10.55h4V11h-4Zm0 0"/></clipPath><clipPath id="ap"><path d="M113 10.55h1.77V11H113Zm0 0"/></clipPath><clipPath id="aq"><path d="M121.855 28H123v2.477h-1.145Zm0 0"/></clipPath><clipPath id="ar"><path d="M122 28h4v2.477h-4Zm0 0"/></clipPath><clipPath id="as"><path d="M125 28h4v2.477h-4Zm0 0"/></clipPath><clipPath id="at"><path d="M128 28h4v2.477h-4Zm0 0"/></clipPath><clipPath id="au"><path d="M131 28h4v2.477h-4Zm0 0"/></clipPath><clipPath id="av"><path d="M134 28h4v2.477h-4Zm0 0"/></clipPath><clipPath id="aw"><path d="M137 28h4v2.477h-4Zm0 0"/></clipPath><clipPath id="ax"><path d="M140 28h4v2.477h-4Zm0 0"/></clipPath><clipPath id="ay"><path d="M143 28h4v2.477h-4Zm0 0"/></clipPath><clipPath id="az"><path d="M146 28h4v2.477h-4Zm0 0"/></clipPath><clipPath id="aA"><path d="M149 28h4v2.477h-4Zm0 0"/></clipPath><clipPath id="aB"><path d="M152 28h4v2.477h-4Zm0 0"/></clipPath><clipPath id="aC"><path d="M155 28h4v2.477h-4Zm0 0"/></clipPath><clipPath id="aD"><path d="M158 28h4v2.477h-4Zm0 0"/></clipPath><clipPath id="aE"><path d="M161 28h3.379v2.477H161Zm0 0"/></clipPath><clipPath id="aF"><path d="M164 28h.379v2.477H164Zm0 0"/></clipPath><clipPath id="aG"><path d="M121.855 25H123v4h-1.145Zm0 0"/></clipPath><clipPath id="aH"><path d="M161 25h3.379v4H161Zm0 0"/></clipPath><clipPath id="aI"><path d="M164 25h.379v4H164Zm0 0"/></clipPath><clipPath id="aJ"><path d="M121.855 22H123v4h-1.145Zm0 0"/></clipPath><clipPath id="aK"><path d="M161 22h3.379v4H161Zm0 0"/></clipPath><clipPath id="aL"><path d="M164 22h.379v4H164Zm0 0"/></clipPath><clipPath id="aM"><path d="M121.855 19H123v4h-1.145Zm0 0"/></clipPath><clipPath id="aN"><path d="M161 19h3.379v4H161Zm0 0"/></clipPath><clipPath id="aO"><path d="M164 19h.379v4H164Zm0 0"/></clipPath><clipPath id="aP"><path d="M121.855 16H123v4h-1.145Zm0 0"/></clipPath><clipPath id="aQ"><path d="M161 16h3.379v4H161Zm0 0"/></clipPath><clipPath id="aR"><path d="M164 16h.379v4H164Zm0 0"/></clipPath><clipPath id="aS"><path d="M121.855 13H123v4h-1.145Zm0 0"/></clipPath><clipPath id="aT"><path d="M161 13h3.379v4H161Zm0 0"/></clipPath><clipPath id="aU"><path d="M164 13h.379v4H164Zm0 0"/></clipPath><clipPath id="aV"><path d="M121.855 10.55H123V14h-1.145Zm0 0"/></clipPath><clipPath id="aW"><path d="M122 10.55h4V14h-4Zm0 0"/></clipPath><clipPath id="aX"><path d="M125 10.55h4V14h-4Zm0 0"/></clipPath><clipPath id="aY"><path d="M128 10.55h4V14h-4Zm0 0"/></clipPath><clipPath id="aZ"><path d="M131 10.55h4V14h-4Zm0 0"/></clipPath><clipPath id="ba"><path d="M134 10.55h4V14h-4Zm0 0"/></clipPath><clipPath id="bb"><path d="M137 10.55h4V14h-4Zm0 0"/></clipPath><clipPath id="bc"><path d="M140 10.55h4V14h-4Zm0 0"/></clipPath><clipPath id="bd"><path d="M143 10.55h4V14h-4Zm0 0"/></clipPath><clipPath id="be"><path d="M146 10.55h4V14h-4Zm0 0"/></clipPath><clipPath id="bf"><path d="M149 10.55h4V14h-4Zm0 0"/></clipPath><clipPath id="bg"><path d="M152 10.55h4V14h-4Zm0 0"/></clipPath><clipPath id="bh"><path d="M155 10.55h4V14h-4Zm0 0"/></clipPath><clipPath id="bi"><path d="M158 10.55h4V14h-4Zm0 0"/></clipPath><clipPath id="bj"><path d="M161 10.55h3.379V14H161Zm0 0"/></clipPath><clipPath id="bk"><path d="M164 10.55h.379V14H164Zm0 0"/></clipPath><clipPath id="bl"><path d="M121.855 10.55H123V11h-1.145Zm0 0"/></clipPath><clipPath id="bm"><path d="M122 10.55h4V11h-4Zm0 0"/></clipPath><clipPath id="bn"><path d="M125 10.55h4V11h-4Zm0 0"/></clipPath><clipPath id="bo"><path d="M128 10.55h4V11h-4Zm0 0"/></clipPath><clipPath id="bp"><path d="M131 10.55h4V11h-4Zm0 0"/></clipPath><clipPath id="bq"><path d="M134 10.55h4V11h-4Zm0 0"/></clipPath><clipPath id="br"><path d="M137 10.55h4V11h-4Zm0 0"/></clipPath><clipPath id="bs"><path d="M140 10.55h4V11h-4Zm0 0"/></clipPath><clipPath id="bt"><path d="M143 10.55h4V11h-4Zm0 0"/></clipPath><clipPath id="bu"><path d="M146 10.55h4V11h-4Zm0 0"/></clipPath><clipPath id="bv"><path d="M149 10.55h4V11h-4Zm0 0"/></clipPath><clipPath id="bw"><path d="M152 10.55h4V11h-4Zm0 0"/></clipPath><clipPath id="bx"><path d="M155 10.55h4V11h-4Zm0 0"/></clipPath><clipPath id="by"><path d="M158 10.55h4V11h-4Zm0 0"/></clipPath><clipPath id="bz"><path d="M161 10.55h3.379V11H161Zm0 0"/></clipPath><clipPath id="bA"><path d="M164 10.55h.379V11H164Zm0 0"/></clipPath><clipPath id="bB"><path d="M171.465 28H174v2.477h-2.535Zm0 0"/></clipPath><clipPath id="bC"><path d="M173 28h4v2.477h-4Zm0 0"/></clipPath><clipPath id="bD"><path d="M176 28h4v2.477h-4Zm0 0"/></clipPath><clipPath id="bE"><path d="M179 28h4v2.477h-4Zm0 0"/></clipPath><clipPath id="bF"><path d="M182 28h4v2.477h-4Zm0 0"/></clipPath><clipPath id="bG"><path d="M185 28h4v2.477h-4Zm0 0"/></clipPath><clipPath id="bH"><path d="M188 28h4v2.477h-4Zm0 0"/></clipPath><clipPath id="bI"><path d="M191 28h4v2.477h-4Zm0 0"/></clipPath><clipPath id="bJ"><path d="M194 28h4v2.477h-4Zm0 0"/></clipPath><clipPath id="bK"><path d="M197 28h4v2.477h-4Zm0 0"/></clipPath><clipPath id="bL"><path d="M200 28h4v2.477h-4Zm0 0"/></clipPath><clipPath id="bM"><path d="M203 28h4v2.477h-4Zm0 0"/></clipPath><clipPath id="bN"><path d="M206 28h4v2.477h-4Zm0 0"/></clipPath><clipPath id="bO"><path d="M209 28h4v2.477h-4Zm0 0"/></clipPath><clipPath id="bP"><path d="M211.191 28h2.793v2.477h-2.793Zm0 0"/></clipPath><clipPath id="bQ"><path d="M171.465 25H174v4h-2.535Zm0 0"/></clipPath><clipPath id="bR"><path d="M211.191 25h2.793v4h-2.793Zm0 0"/></clipPath><clipPath id="bS"><path d="M171.465 22H174v4h-2.535Zm0 0"/></clipPath><clipPath id="bT"><path d="M211.191 22h2.793v4h-2.793Zm0 0"/></clipPath><clipPath id="bU"><path d="M171.465 19H174v4h-2.535Zm0 0"/></clipPath><clipPath id="bV"><path d="M211.191 19h2.793v4h-2.793Zm0 0"/></clipPath><clipPath id="bW"><path d="M171.465 16H174v4h-2.535Zm0 0"/></clipPath><clipPath id="bX"><path d="M211.191 16h2.793v4h-2.793Zm0 0"/></clipPath><clipPath id="bY"><path d="M171.465 13H174v4h-2.535Zm0 0"/></clipPath><clipPath id="bZ"><path d="M211.191 13h2.793v4h-2.793Zm0 0"/></clipPath><clipPath id="ca"><path d="M171.465 10.55H174V14h-2.535Zm0 0"/></clipPath><clipPath id="cb"><path d="M173 10.55h4V14h-4Zm0 0"/></clipPath><clipPath id="cc"><path d="M176 10.55h4V14h-4Zm0 0"/></clipPath><clipPath id="cd"><path d="M179 10.55h4V14h-4Zm0 0"/></clipPath><clipPath id="ce"><path d="M182 10.55h4V14h-4Zm0 0"/></clipPath><clipPath id="cf"><path d="M185 10.55h4V14h-4Zm0 0"/></clipPath><clipPath id="cg"><path d="M188 10.55h4V14h-4Zm0 0"/></clipPath><clipPath id="ch"><path d="M191 10.55h4V14h-4Zm0 0"/></clipPath><clipPath id="ci"><path d="M194 10.55h4V14h-4Zm0 0"/></clipPath><clipPath id="cj"><path d="M197 10.55h4V14h-4Zm0 0"/></clipPath><clipPath id="ck"><path d="M200 10.55h4V14h-4Zm0 0"/></clipPath><clipPath id="cl"><path d="M203 10.55h4V14h-4Zm0 0"/></clipPath><clipPath id="cm"><path d="M206 10.55h4V14h-4Zm0 0"/></clipPath><clipPath id="cn"><path d="M209 10.55h4V14h-4Zm0 0"/></clipPath><clipPath id="co"><path d="M211.191 10.55h2.793V14h-2.793Zm0 0"/></clipPath><clipPath id="cp"><path d="M171.465 10.55H174V11h-2.535Zm0 0"/></clipPath><clipPath id="cq"><path d="M173 10.55h4V11h-4Zm0 0"/></clipPath><clipPath id="cr"><path d="M176 10.55h4V11h-4Zm0 0"/></clipPath><clipPath id="cs"><path d="M179 10.55h4V11h-4Zm0 0"/></clipPath><clipPath id="ct"><path d="M182 10.55h4V11h-4Zm0 0"/></clipPath><clipPath id="cu"><path d="M185 10.55h4V11h-4Zm0 0"/></clipPath><clipPath id="cv"><path d="M188 10.55h4V11h-4Zm0 0"/></clipPath><clipPath id="cw"><path d="M191 10.55h4V11h-4Zm0 0"/></clipPath><clipPath id="cx"><path d="M194 10.55h4V11h-4Zm0 0"/></clipPath><clipPath id="cy"><path d="M197 10.55h4V11h-4Zm0 0"/></clipPath><clipPath id="cz"><path d="M200 10.55h4V11h-4Zm0 0"/></clipPath><clipPath id="cA"><path d="M203 10.55h4V11h-4Zm0 0"/></clipPath><clipPath id="cB"><path d="M206 10.55h4V11h-4Zm0 0"/></clipPath><clipPath id="cC"><path d="M209 10.55h4V11h-4Zm0 0"/></clipPath><clipPath id="cD"><path d="M211.191 10.55h2.793V11h-2.793Zm0 0"/></clipPath><pattern id="e" width="12" height="12" x="0" y="0" patternTransform="matrix(.9449 0 0 -.9449 -71.75 13618.551)" patternUnits="userSpaceOnUse"><use xlink:href="#c"/></pattern><g id="c" clip-path="url(#a)"><g clip-path="url(#b)"><path d="M9.202 14358.558H446v64.029H9.202z"/></g><path fill="#CCC" d="M0 0h6v6H0Zm6 6h6v6H6Zm0 0"/></g></defs><g clip-path="url(#d)"><path fill="url(#e)" d="M72.25 30.477h141.73V10.55H72.25Zm0 0"/></g><g clip-path="url(#f)"><path fill="none" stroke="#000" stroke-miterlimit="10" stroke-width=".399" d="M68.727 31.328v-3.086m0 3.086h3.085"/></g><g clip-path="url(#g)"><path fill="none" stroke="#000" stroke-miterlimit="10" stroke-width=".399" d="M71.715 31.328v-3.086m0 3.086H74.8"/></g><g clip-path="url(#h)"><path fill="none" stroke="#000" stroke-miterlimit="10" stroke-width=".399" d="M74.703 31.328v-3.086m0 3.086h3.09"/></g><g clip-path="url(#i)"><path fill="none" stroke="#000" stroke-miterlimit="10" stroke-width=".399" d="M77.691 31.328v-3.086m0 3.086h3.09"/></g><g clip-path="url(#j)"><path fill="none" stroke="#000" stroke-miterlimit="10" stroke-width=".399" d="M80.68 31.328v-3.086m0 3.086h3.09"/></g><g clip-path="url(#k)"><path fill="none" stroke="#000" stroke-miterlimit="10" stroke-width=".399" d="M83.668 31.328v-3.086m0 3.086h3.09"/></g><g clip-path="url(#l)"><path fill="none" stroke="#000" stroke-miterlimit="10" stroke-width=".399" d="M86.656 31.328v-3.086m0 3.086h3.09"/></g><g clip-path="url(#m)"><path fill="none" stroke="#000" stroke-miterlimit="10" stroke-width=".399" d="M89.648 31.328v-3.086m0 3.086h3.086"/></g><g clip-path="url(#n)"><path fill="none" stroke="#000" stroke-miterlimit="10" stroke-width=".399" d="M92.637 31.328v-3.086m0 3.086h3.086"/></g><g clip-path="url(#o)"><path fill="none" stroke="#000" stroke-miterlimit="10" stroke-width=".399" d="M95.625 31.328v-3.086m0 3.086h3.09"/></g><g clip-path="url(#p)"><path fill="none" stroke="#000" stroke-miterlimit="10" stroke-width=".399" d="M98.613 31.328v-3.086m0 3.086h3.09"/></g><g clip-path="url(#q)"><path fill="none" stroke="#000" stroke-miterlimit="10" stroke-width=".399" d="M101.602 31.328v-3.086m0 3.086h3.09"/></g><g clip-path="url(#r)"><path fill="none" stroke="#000" stroke-miterlimit="10" stroke-width=".399" d="M104.59 31.328v-3.086m0 3.086h3.09"/></g><g clip-path="url(#s)"><path fill="none" stroke="#000" stroke-miterlimit="10" stroke-width=".399" d="M107.578 31.328v-3.086m0 3.086h3.09"/></g><g clip-path="url(#t)"><path fill="none" stroke="#000" stroke-miterlimit="10" stroke-width=".399" d="M110.57 31.328v-3.086m0 3.086h3.086"/></g><g clip-path="url(#u)"><path fill="none" stroke="#000" stroke-miterlimit="10" stroke-width=".399" d="M113.559 31.328v-3.086m0 3.086h3.086"/></g><g clip-path="url(#v)"><path fill="none" stroke="#000" stroke-miterlimit="10" stroke-width=".399" d="M68.727 28.34v-3.086m0 3.086h3.085"/></g><g clip-path="url(#w)"><path fill="none" stroke="#000" stroke-miterlimit="10" stroke-width=".399" d="M71.715 28.34v-3.086m0 3.086H74.8"/></g><path fill="none" stroke="#000" stroke-miterlimit="10" stroke-width=".399" d="M74.703 28.34v-3.086m0 3.086h3.09M77.691 28.34v-3.086m0 3.086h3.09M80.68 28.34v-3.086m0 3.086h3.09M83.668 28.34v-3.086m0 3.086h3.09M86.656 28.34v-3.086m0 3.086h3.09M89.648 28.34v-3.086m0 3.086h3.086M92.637 28.34v-3.086m0 3.086h3.086M95.625 28.34v-3.086m0 3.086h3.09M98.613 28.34v-3.086m0 3.086h3.09M101.602 28.34v-3.086m0 3.086h3.09M104.59 28.34v-3.086m0 3.086h3.09M107.578 28.34v-3.086m0 3.086h3.09M110.57 28.34v-3.086m0 3.086h3.086"/><g clip-path="url(#x)"><path fill="none" stroke="#000" stroke-miterlimit="10" stroke-width=".399" d="M113.559 28.34v-3.086m0 3.086h3.086"/></g><g clip-path="url(#y)"><path fill="none" stroke="#000" stroke-miterlimit="10" stroke-width=".399" d="M68.727 25.352v-3.086m0 3.086h3.085"/></g><g clip-path="url(#z)"><path fill="none" stroke="#000" stroke-miterlimit="10" stroke-width=".399" d="M71.715 25.352v-3.086m0 3.086H74.8"/></g><path fill="none" stroke="#000" stroke-miterlimit="10" stroke-width=".399" d="M74.703 25.352v-3.086m0 3.086h3.09M77.691 25.352v-3.086m0 3.086h3.09M80.68 25.352v-3.086m0 3.086h3.09M83.668 25.352v-3.086m0 3.086h3.09M86.656 25.352v-3.086m0 3.086h3.09M89.648 25.352v-3.086m0 3.086h3.086M92.637 25.352v-3.086m0 3.086h3.086M95.625 25.352v-3.086m0 3.086h3.09M98.613 25.352v-3.086m0 3.086h3.09M101.602 25.352v-3.086m0 3.086h3.09M104.59 25.352v-3.086m0 3.086h3.09M107.578 25.352v-3.086m0 3.086h3.09M110.57 25.352v-3.086m0 3.086h3.086"/><g clip-path="url(#A)"><path fill="none" stroke="#000" stroke-miterlimit="10" stroke-width=".399" d="M113.559 25.352v-3.086m0 3.086h3.086"/></g><g clip-path="url(#B)"><path fill="none" stroke="#000" stroke-miterlimit="10" stroke-width=".399" d="M68.727 22.363v-3.09m0 3.09h3.085"/></g><g clip-path="url(#C)"><path fill="none" stroke="#000" stroke-miterlimit="10" stroke-width=".399" d="M71.715 22.363v-3.09m0 3.09H74.8"/></g><path fill="none" stroke="#000" stroke-miterlimit="10" stroke-width=".399" d="M74.703 22.363v-3.09m0 3.09h3.09M77.691 22.363v-3.09m0 3.09h3.09M80.68 22.363v-3.09m0 3.09h3.09M83.668 22.363v-3.09m0 3.09h3.09M86.656 22.363v-3.09m0 3.09h3.09M89.648 22.363v-3.09m0 3.09h3.086M92.637 22.363v-3.09m0 3.09h3.086M95.625 22.363v-3.09m0 3.09h3.09M98.613 22.363v-3.09m0 3.09h3.09M101.602 22.363v-3.09m0 3.09h3.09M104.59 22.363v-3.09m0 3.09h3.09M107.578 22.363v-3.09m0 3.09h3.09M110.57 22.363v-3.09m0 3.09h3.086"/><g clip-path="url(#D)"><path fill="none" stroke="#000" stroke-miterlimit="10" stroke-width=".399" d="M113.559 22.363v-3.09m0 3.09h3.086"/></g><g clip-path="url(#E)"><path fill="none" stroke="#000" stroke-miterlimit="10" stroke-width=".399" d="M68.727 19.375v-3.09m0 3.09h3.085"/></g><g clip-path="url(#F)"><path fill="none" stroke="#000" stroke-miterlimit="10" stroke-width=".399" d="M71.715 19.375v-3.09m0 3.09H74.8"/></g><path fill="none" stroke="#000" stroke-miterlimit="10" stroke-width=".399" d="M74.703 19.375v-3.09m0 3.09h3.09M77.691 19.375v-3.09m0 3.09h3.09M80.68 19.375v-3.09m0 3.09h3.09M83.668 19.375v-3.09m0 3.09h3.09M86.656 19.375v-3.09m0 3.09h3.09M89.648 19.375v-3.09m0 3.09h3.086M92.637 19.375v-3.09m0 3.09h3.086M95.625 19.375v-3.09m0 3.09h3.09M98.613 19.375v-3.09m0 3.09h3.09M101.602 19.375v-3.09m0 3.09h3.09M104.59 19.375v-3.09m0 3.09h3.09M107.578 19.375v-3.09m0 3.09h3.09M110.57 19.375v-3.09m0 3.09h3.086"/><g clip-path="url(#G)"><path fill="none" stroke="#000" stroke-miterlimit="10" stroke-width=".399" d="M113.559 19.375v-3.09m0 3.09h3.086"/></g><g clip-path="url(#H)"><path fill="none" stroke="#000" stroke-miterlimit="10" stroke-width=".399" d="M68.727 16.387v-3.09m0 3.09h3.085"/></g><g clip-path="url(#I)"><path fill="none" stroke="#000" stroke-miterlimit="10" stroke-width=".399" d="M71.715 16.387v-3.09m0 3.09H74.8"/></g><path fill="none" stroke="#000" stroke-miterlimit="10" stroke-width=".399" d="M74.703 16.387v-3.09m0 3.09h3.09M77.691 16.387v-3.09m0 3.09h3.09M80.68 16.387v-3.09m0 3.09h3.09M83.668 16.387v-3.09m0 3.09h3.09M86.656 16.387v-3.09m0 3.09h3.09M89.648 16.387v-3.09m0 3.09h3.086M92.637 16.387v-3.09m0 3.09h3.086M95.625 16.387v-3.09m0 3.09h3.09M98.613 16.387v-3.09m0 3.09h3.09M101.602 16.387v-3.09m0 3.09h3.09M104.59 16.387v-3.09m0 3.09h3.09M107.578 16.387v-3.09m0 3.09h3.09M110.57 16.387v-3.09m0 3.09h3.086"/><g clip-path="url(#J)"><path fill="none" stroke="#000" stroke-miterlimit="10" stroke-width=".399" d="M113.559 16.387v-3.09m0 3.09h3.086"/></g><g clip-path="url(#K)"><path fill="none" stroke="#000" stroke-miterlimit="10" stroke-width=".399" d="M68.727 13.398v-3.09m0 3.09h3.085"/></g><g clip-path="url(#L)"><path fill="none" stroke="#000" stroke-miterlimit="10" stroke-width=".399" d="M71.715 13.398v-3.09m0 3.09H74.8"/></g><g clip-path="url(#M)"><path fill="none" stroke="#000" stroke-miterlimit="10" stroke-width=".399" d="M74.703 13.398v-3.09m0 3.09h3.09"/></g><g clip-path="url(#N)"><path fill="none" stroke="#000" stroke-miterlimit="10" stroke-width=".399" d="M77.691 13.398v-3.09m0 3.09h3.09"/></g><g clip-path="url(#O)"><path fill="none" stroke="#000" stroke-miterlimit="10" stroke-width=".399" d="M80.68 13.398v-3.09m0 3.09h3.09"/></g><g clip-path="url(#P)"><path fill="none" stroke="#000" stroke-miterlimit="10" stroke-width=".399" d="M83.668 13.398v-3.09m0 3.09h3.09"/></g><g clip-path="url(#Q)"><path fill="none" stroke="#000" stroke-miterlimit="10" stroke-width=".399" d="M86.656 13.398v-3.09m0 3.09h3.09"/></g><g clip-path="url(#R)"><path fill="none" stroke="#000" stroke-miterlimit="10" stroke-width=".399" d="M89.648 13.398v-3.09m0 3.09h3.086"/></g><g clip-path="url(#S)"><path fill="none" stroke="#000" stroke-miterlimit="10" stroke-width=".399" d="M92.637 13.398v-3.09m0 3.09h3.086"/></g><g clip-path="url(#T)"><path fill="none" stroke="#000" stroke-miterlimit="10" stroke-width=".399" d="M95.625 13.398v-3.09m0 3.09h3.09"/></g><g clip-path="url(#U)"><path fill="none" stroke="#000" stroke-miterlimit="10" stroke-width=".399" d="M98.613 13.398v-3.09m0 3.09h3.09"/></g><g clip-path="url(#V)"><path fill="none" stroke="#000" stroke-miterlimit="10" stroke-width=".399" d="M101.602 13.398v-3.09m0 3.09h3.09"/></g><g clip-path="url(#W)"><path fill="none" stroke="#000" stroke-miterlimit="10" stroke-width=".399" d="M104.59 13.398v-3.09m0 3.09h3.09"/></g><g clip-path="url(#X)"><path fill="none" stroke="#000" stroke-miterlimit="10" stroke-width=".399" d="M107.578 13.398v-3.09m0 3.09h3.09"/></g><g clip-path="url(#Y)"><path fill="none" stroke="#000" stroke-miterlimit="10" stroke-width=".399" d="M110.57 13.398v-3.09m0 3.09h3.086"/></g><g clip-path="url(#Z)"><path fill="none" stroke="#000" stroke-miterlimit="10" stroke-width=".399" d="M113.559 13.398v-3.09m0 3.09h3.086"/></g><g clip-path="url(#aa)"><path fill="none" stroke="#000" stroke-miterlimit="10" stroke-width=".399" d="M68.727 10.406V7.32m0 3.086h3.085"/></g><g clip-path="url(#ab)"><path fill="none" stroke="#000" stroke-miterlimit="10" stroke-width=".399" d="M71.715 10.406V7.32m0 3.086H74.8"/></g><g clip-path="url(#ac)"><path fill="none" stroke="#000" stroke-miterlimit="10" stroke-width=".399" d="M74.703 10.406V7.32m0 3.086h3.09"/></g><g clip-path="url(#ad)"><path fill="none" stroke="#000" stroke-miterlimit="10" stroke-width=".399" d="M77.691 10.406V7.32m0 3.086h3.09"/></g><g clip-path="url(#ae)"><path fill="none" stroke="#000" stroke-miterlimit="10" stroke-width=".399" d="M80.68 10.406V7.32m0 3.086h3.09"/></g><g clip-path="url(#af)"><path fill="none" stroke="#000" stroke-miterlimit="10" stroke-width=".399" d="M83.668 10.406V7.32m0 3.086h3.09"/></g><g clip-path="url(#ag)"><path fill="none" stroke="#000" stroke-miterlimit="10" stroke-width=".399" d="M86.656 10.406V7.32m0 3.086h3.09"/></g><g clip-path="url(#ah)"><path fill="none" stroke="#000" stroke-miterlimit="10" stroke-width=".399" d="M89.648 10.406V7.32m0 3.086h3.086"/></g><g clip-path="url(#ai)"><path fill="none" stroke="#000" stroke-miterlimit="10" stroke-width=".399" d="M92.637 10.406V7.32m0 3.086h3.086"/></g><g clip-path="url(#aj)"><path fill="none" stroke="#000" stroke-miterlimit="10" stroke-width=".399" d="M95.625 10.406V7.32m0 3.086h3.09"/></g><g clip-path="url(#ak)"><path fill="none" stroke="#000" stroke-miterlimit="10" stroke-width=".399" d="M98.613 10.406V7.32m0 3.086h3.09"/></g><g clip-path="url(#al)"><path fill="none" stroke="#000" stroke-miterlimit="10" stroke-width=".399" d="M101.602 10.406V7.32m0 3.086h3.09"/></g><g clip-path="url(#am)"><path fill="none" stroke="#000" stroke-miterlimit="10" stroke-width=".399" d="M104.59 10.406V7.32m0 3.086h3.09"/></g><g clip-path="url(#an)"><path fill="none" stroke="#000" stroke-miterlimit="10" stroke-width=".399" d="M107.578 10.406V7.32m0 3.086h3.09"/></g><g clip-path="url(#ao)"><path fill="none" stroke="#000" stroke-miterlimit="10" stroke-width=".399" d="M110.57 10.406V7.32m0 3.086h3.086"/></g><g clip-path="url(#ap)"><path fill="none" stroke="#000" stroke-miterlimit="10" stroke-width=".399" d="M113.559 10.406V7.32m0 3.086h3.086"/></g><g clip-path="url(#aq)"><path fill="none" stroke="#00F" stroke-miterlimit="10" stroke-width=".399" d="M119.535 31.328v-3.086m0 3.086h3.09"/></g><g clip-path="url(#ar)"><path fill="none" stroke="#00F" stroke-miterlimit="10" stroke-width=".399" d="M122.523 31.328v-3.086m0 3.086h3.09"/></g><g clip-path="url(#as)"><path fill="none" stroke="#00F" stroke-miterlimit="10" stroke-width=".399" d="M125.512 31.328v-3.086m0 3.086h3.09"/></g><g clip-path="url(#at)"><path fill="none" stroke="#00F" stroke-miterlimit="10" stroke-width=".399" d="M128.5 31.328v-3.086m0 3.086h3.09"/></g><g clip-path="url(#au)"><path fill="none" stroke="#00F" stroke-miterlimit="10" stroke-width=".399" d="M131.492 31.328v-3.086m0 3.086h3.086"/></g><g clip-path="url(#av)"><path fill="none" stroke="#00F" stroke-miterlimit="10" stroke-width=".399" d="M134.48 31.328v-3.086m0 3.086h3.086"/></g><g clip-path="url(#aw)"><path fill="none" stroke="#00F" stroke-miterlimit="10" stroke-width=".399" d="M137.469 31.328v-3.086m0 3.086h3.086"/></g><g clip-path="url(#ax)"><path fill="none" stroke="#00F" stroke-miterlimit="10" stroke-width=".399" d="M140.457 31.328v-3.086m0 3.086h3.09"/></g><g clip-path="url(#ay)"><path fill="none" stroke="#00F" stroke-miterlimit="10" stroke-width=".399" d="M143.445 31.328v-3.086m0 3.086h3.09"/></g><g clip-path="url(#az)"><path fill="none" stroke="#00F" stroke-miterlimit="10" stroke-width=".399" d="M146.434 31.328v-3.086m0 3.086h3.09"/></g><g clip-path="url(#aA)"><path fill="none" stroke="#00F" stroke-miterlimit="10" stroke-width=".399" d="M149.422 31.328v-3.086m0 3.086h3.09"/></g><g clip-path="url(#aB)"><path fill="none" stroke="#00F" stroke-miterlimit="10" stroke-width=".399" d="M152.414 31.328v-3.086m0 3.086h3.086"/></g><g clip-path="url(#aC)"><path fill="none" stroke="#00F" stroke-miterlimit="10" stroke-width=".399" d="M155.402 31.328v-3.086m0 3.086h3.086"/></g><g clip-path="url(#aD)"><path fill="none" stroke="#00F" stroke-miterlimit="10" stroke-width=".399" d="M158.39 31.328v-3.086m0 3.086h3.087"/></g><g clip-path="url(#aE)"><path fill="none" stroke="#00F" stroke-miterlimit="10" stroke-width=".399" d="M161.379 31.328v-3.086m0 3.086h3.09"/></g><g clip-path="url(#aF)"><path fill="none" stroke="#00F" stroke-miterlimit="10" stroke-width=".399" d="M164.367 31.328v-3.086m0 3.086h3.09"/></g><g clip-path="url(#aG)"><path fill="none" stroke="#00F" stroke-miterlimit="10" stroke-width=".399" d="M119.535 28.34v-3.086m0 3.086h3.09"/></g><path fill="none" stroke="#00F" stroke-miterlimit="10" stroke-width=".399" d="M122.523 28.34v-3.086m0 3.086h3.09M125.512 28.34v-3.086m0 3.086h3.09M128.5 28.34v-3.086m0 3.086h3.09M131.492 28.34v-3.086m0 3.086h3.086M134.48 28.34v-3.086m0 3.086h3.086M137.469 28.34v-3.086m0 3.086h3.086M140.457 28.34v-3.086m0 3.086h3.09M143.445 28.34v-3.086m0 3.086h3.09M146.434 28.34v-3.086m0 3.086h3.09M149.422 28.34v-3.086m0 3.086h3.09M152.414 28.34v-3.086m0 3.086h3.086M155.402 28.34v-3.086m0 3.086h3.086M158.39 28.34v-3.086m0 3.086h3.087"/><g clip-path="url(#aH)"><path fill="none" stroke="#00F" stroke-miterlimit="10" stroke-width=".399" d="M161.379 28.34v-3.086m0 3.086h3.09"/></g><g clip-path="url(#aI)"><path fill="none" stroke="#00F" stroke-miterlimit="10" stroke-width=".399" d="M164.367 28.34v-3.086m0 3.086h3.09"/></g><g clip-path="url(#aJ)"><path fill="none" stroke="#00F" stroke-miterlimit="10" stroke-width=".399" d="M119.535 25.352v-3.086m0 3.086h3.09"/></g><path fill="none" stroke="#00F" stroke-miterlimit="10" stroke-width=".399" d="M122.523 25.352v-3.086m0 3.086h3.09M125.512 25.352v-3.086m0 3.086h3.09M128.5 25.352v-3.086m0 3.086h3.09M131.492 25.352v-3.086m0 3.086h3.086M134.48 25.352v-3.086m0 3.086h3.086M137.469 25.352v-3.086m0 3.086h3.086M140.457 25.352v-3.086m0 3.086h3.09M143.445 25.352v-3.086m0 3.086h3.09M146.434 25.352v-3.086m0 3.086h3.09M149.422 25.352v-3.086m0 3.086h3.09M152.414 25.352v-3.086m0 3.086h3.086M155.402 25.352v-3.086m0 3.086h3.086M158.39 25.352v-3.086m0 3.086h3.087"/><g clip-path="url(#aK)"><path fill="none" stroke="#00F" stroke-miterlimit="10" stroke-width=".399" d="M161.379 25.352v-3.086m0 3.086h3.09"/></g><g clip-path="url(#aL)"><path fill="none" stroke="#00F" stroke-miterlimit="10" stroke-width=".399" d="M164.367 25.352v-3.086m0 3.086h3.09"/></g><g clip-path="url(#aM)"><path fill="none" stroke="#00F" stroke-miterlimit="10" stroke-width=".399" d="M119.535 22.363v-3.09m0 3.09h3.09"/></g><path fill="none" stroke="#00F" stroke-miterlimit="10" stroke-width=".399" d="M122.523 22.363v-3.09m0 3.09h3.09M125.512 22.363v-3.09m0 3.09h3.09M128.5 22.363v-3.09m0 3.09h3.09M131.492 22.363v-3.09m0 3.09h3.086M134.48 22.363v-3.09m0 3.09h3.086M137.469 22.363v-3.09m0 3.09h3.086M140.457 22.363v-3.09m0 3.09h3.09M143.445 22.363v-3.09m0 3.09h3.09M146.434 22.363v-3.09m0 3.09h3.09M149.422 22.363v-3.09m0 3.09h3.09M152.414 22.363v-3.09m0 3.09h3.086M155.402 22.363v-3.09m0 3.09h3.086M158.39 22.363v-3.09m0 3.09h3.087"/><g clip-path="url(#aN)"><path fill="none" stroke="#00F" stroke-miterlimit="10" stroke-width=".399" d="M161.379 22.363v-3.09m0 3.09h3.09"/></g><g clip-path="url(#aO)"><path fill="none" stroke="#00F" stroke-miterlimit="10" stroke-width=".399" d="M164.367 22.363v-3.09m0 3.09h3.09"/></g><g clip-path="url(#aP)"><path fill="none" stroke="#00F" stroke-miterlimit="10" stroke-width=".399" d="M119.535 19.375v-3.09m0 3.09h3.09"/></g><path fill="none" stroke="#00F" stroke-miterlimit="10" stroke-width=".399" d="M122.523 19.375v-3.09m0 3.09h3.09M125.512 19.375v-3.09m0 3.09h3.09M128.5 19.375v-3.09m0 3.09h3.09M131.492 19.375v-3.09m0 3.09h3.086M134.48 19.375v-3.09m0 3.09h3.086M137.469 19.375v-3.09m0 3.09h3.086M140.457 19.375v-3.09m0 3.09h3.09M143.445 19.375v-3.09m0 3.09h3.09M146.434 19.375v-3.09m0 3.09h3.09M149.422 19.375v-3.09m0 3.09h3.09M152.414 19.375v-3.09m0 3.09h3.086M155.402 19.375v-3.09m0 3.09h3.086M158.39 19.375v-3.09m0 3.09h3.087"/><g clip-path="url(#aQ)"><path fill="none" stroke="#00F" stroke-miterlimit="10" stroke-width=".399" d="M161.379 19.375v-3.09m0 3.09h3.09"/></g><g clip-path="url(#aR)"><path fill="none" stroke="#00F" stroke-miterlimit="10" stroke-width=".399" d="M164.367 19.375v-3.09m0 3.09h3.09"/></g><g clip-path="url(#aS)"><path fill="none" stroke="#00F" stroke-miterlimit="10" stroke-width=".399" d="M119.535 16.387v-3.09m0 3.09h3.09"/></g><path fill="none" stroke="#00F" stroke-miterlimit="10" stroke-width=".399" d="M122.523 16.387v-3.09m0 3.09h3.09M125.512 16.387v-3.09m0 3.09h3.09M128.5 16.387v-3.09m0 3.09h3.09M131.492 16.387v-3.09m0 3.09h3.086M134.48 16.387v-3.09m0 3.09h3.086M137.469 16.387v-3.09m0 3.09h3.086M140.457 16.387v-3.09m0 3.09h3.09M143.445 16.387v-3.09m0 3.09h3.09M146.434 16.387v-3.09m0 3.09h3.09M149.422 16.387v-3.09m0 3.09h3.09M152.414 16.387v-3.09m0 3.09h3.086M155.402 16.387v-3.09m0 3.09h3.086M158.39 16.387v-3.09m0 3.09h3.087"/><g clip-path="url(#aT)"><path fill="none" stroke="#00F" stroke-miterlimit="10" stroke-width=".399" d="M161.379 16.387v-3.09m0 3.09h3.09"/></g><g clip-path="url(#aU)"><path fill="none" stroke="#00F" stroke-miterlimit="10" stroke-width=".399" d="M164.367 16.387v-3.09m0 3.09h3.09"/></g><g clip-path="url(#aV)"><path fill="none" stroke="#00F" stroke-miterlimit="10" stroke-width=".399" d="M119.535 13.398v-3.09m0 3.09h3.09"/></g><g clip-path="url(#aW)"><path fill="none" stroke="#00F" stroke-miterlimit="10" stroke-width=".399" d="M122.523 13.398v-3.09m0 3.09h3.09"/></g><g clip-path="url(#aX)"><path fill="none" stroke="#00F" stroke-miterlimit="10" stroke-width=".399" d="M125.512 13.398v-3.09m0 3.09h3.09"/></g><g clip-path="url(#aY)"><path fill="none" stroke="#00F" stroke-miterlimit="10" stroke-width=".399" d="M128.5 13.398v-3.09m0 3.09h3.09"/></g><g clip-path="url(#aZ)"><path fill="none" stroke="#00F" stroke-miterlimit="10" stroke-width=".399" d="M131.492 13.398v-3.09m0 3.09h3.086"/></g><g clip-path="url(#ba)"><path fill="none" stroke="#00F" stroke-miterlimit="10" stroke-width=".399" d="M134.48 13.398v-3.09m0 3.09h3.086"/></g><g clip-path="url(#bb)"><path fill="none" stroke="#00F" stroke-miterlimit="10" stroke-width=".399" d="M137.469 13.398v-3.09m0 3.09h3.086"/></g><g clip-path="url(#bc)"><path fill="none" stroke="#00F" stroke-miterlimit="10" stroke-width=".399" d="M140.457 13.398v-3.09m0 3.09h3.09"/></g><g clip-path="url(#bd)"><path fill="none" stroke="#00F" stroke-miterlimit="10" stroke-width=".399" d="M143.445 13.398v-3.09m0 3.09h3.09"/></g><g clip-path="url(#be)"><path fill="none" stroke="#00F" stroke-miterlimit="10" stroke-width=".399" d="M146.434 13.398v-3.09m0 3.09h3.09"/></g><g clip-path="url(#bf)"><path fill="none" stroke="#00F" stroke-miterlimit="10" stroke-width=".399" d="M149.422 13.398v-3.09m0 3.09h3.09"/></g><g clip-path="url(#bg)"><path fill="none" stroke="#00F" stroke-miterlimit="10" stroke-width=".399" d="M152.414 13.398v-3.09m0 3.09h3.086"/></g><g clip-path="url(#bh)"><path fill="none" stroke="#00F" stroke-miterlimit="10" stroke-width=".399" d="M155.402 13.398v-3.09m0 3.09h3.086"/></g><g clip-path="url(#bi)"><path fill="none" stroke="#00F" stroke-miterlimit="10" stroke-width=".399" d="M158.39 13.398v-3.09m0 3.09h3.087"/></g><g clip-path="url(#bj)"><path fill="none" stroke="#00F" stroke-miterlimit="10" stroke-width=".399" d="M161.379 13.398v-3.09m0 3.09h3.09"/></g><g clip-path="url(#bk)"><path fill="none" stroke="#00F" stroke-miterlimit="10" stroke-width=".399" d="M164.367 13.398v-3.09m0 3.09h3.09"/></g><g clip-path="url(#bl)"><path fill="none" stroke="#00F" stroke-miterlimit="10" stroke-width=".399" d="M119.535 10.406V7.32m0 3.086h3.09"/></g><g clip-path="url(#bm)"><path fill="none" stroke="#00F" stroke-miterlimit="10" stroke-width=".399" d="M122.523 10.406V7.32m0 3.086h3.09"/></g><g clip-path="url(#bn)"><path fill="none" stroke="#00F" stroke-miterlimit="10" stroke-width=".399" d="M125.512 10.406V7.32m0 3.086h3.09"/></g><g clip-path="url(#bo)"><path fill="none" stroke="#00F" stroke-miterlimit="10" stroke-width=".399" d="M128.5 10.406V7.32m0 3.086h3.09"/></g><g clip-path="url(#bp)"><path fill="none" stroke="#00F" stroke-miterlimit="10" stroke-width=".399" d="M131.492 10.406V7.32m0 3.086h3.086"/></g><g clip-path="url(#bq)"><path fill="none" stroke="#00F" stroke-miterlimit="10" stroke-width=".399" d="M134.48 10.406V7.32m0 3.086h3.086"/></g><g clip-path="url(#br)"><path fill="none" stroke="#00F" stroke-miterlimit="10" stroke-width=".399" d="M137.469 10.406V7.32m0 3.086h3.086"/></g><g clip-path="url(#bs)"><path fill="none" stroke="#00F" stroke-miterlimit="10" stroke-width=".399" d="M140.457 10.406V7.32m0 3.086h3.09"/></g><g clip-path="url(#bt)"><path fill="none" stroke="#00F" stroke-miterlimit="10" stroke-width=".399" d="M143.445 10.406V7.32m0 3.086h3.09"/></g><g clip-path="url(#bu)"><path fill="none" stroke="#00F" stroke-miterlimit="10" stroke-width=".399" d="M146.434 10.406V7.32m0 3.086h3.09"/></g><g clip-path="url(#bv)"><path fill="none" stroke="#00F" stroke-miterlimit="10" stroke-width=".399" d="M149.422 10.406V7.32m0 3.086h3.09"/></g><g clip-path="url(#bw)"><path fill="none" stroke="#00F" stroke-miterlimit="10" stroke-width=".399" d="M152.414 10.406V7.32m0 3.086h3.086"/></g><g clip-path="url(#bx)"><path fill="none" stroke="#00F" stroke-miterlimit="10" stroke-width=".399" d="M155.402 10.406V7.32m0 3.086h3.086"/></g><g clip-path="url(#by)"><path fill="none" stroke="#00F" stroke-miterlimit="10" stroke-width=".399" d="M158.39 10.406V7.32m0 3.086h3.087"/></g><g clip-path="url(#bz)"><path fill="none" stroke="#00F" stroke-miterlimit="10" stroke-width=".399" d="M161.379 10.406V7.32m0 3.086h3.09"/></g><g clip-path="url(#bA)"><path fill="none" stroke="#00F" stroke-miterlimit="10" stroke-width=".399" d="M164.367 10.406V7.32m0 3.086h3.09"/></g><g clip-path="url(#bB)"><path fill="none" stroke="red" stroke-miterlimit="10" stroke-width=".399" d="M170.344 31.328v-3.086m0 3.086h3.09"/></g><g clip-path="url(#bC)"><path fill="none" stroke="red" stroke-miterlimit="10" stroke-width=".399" d="M173.336 31.328v-3.086m0 3.086h3.086"/></g><g clip-path="url(#bD)"><path fill="none" stroke="red" stroke-miterlimit="10" stroke-width=".399" d="M176.324 31.328v-3.086m0 3.086h3.086"/></g><g clip-path="url(#bE)"><path fill="none" stroke="red" stroke-miterlimit="10" stroke-width=".399" d="M179.313 31.328v-3.086m0 3.086h3.085"/></g><g clip-path="url(#bF)"><path fill="none" stroke="red" stroke-miterlimit="10" stroke-width=".399" d="M182.3 31.328v-3.086m0 3.086h3.09"/></g><g clip-path="url(#bG)"><path fill="none" stroke="red" stroke-miterlimit="10" stroke-width=".399" d="M185.29 31.328v-3.086m0 3.086h3.089"/></g><g clip-path="url(#bH)"><path fill="none" stroke="red" stroke-miterlimit="10" stroke-width=".399" d="M188.277 31.328v-3.086m0 3.086h3.09"/></g><g clip-path="url(#bI)"><path fill="none" stroke="red" stroke-miterlimit="10" stroke-width=".399" d="M191.266 31.328v-3.086m0 3.086h3.09"/></g><g clip-path="url(#bJ)"><path fill="none" stroke="red" stroke-miterlimit="10" stroke-width=".399" d="M194.258 31.328v-3.086m0 3.086h3.086"/></g><g clip-path="url(#bK)"><path fill="none" stroke="red" stroke-miterlimit="10" stroke-width=".399" d="M197.246 31.328v-3.086m0 3.086h3.086"/></g><g clip-path="url(#bL)"><path fill="none" stroke="red" stroke-miterlimit="10" stroke-width=".399" d="M200.234 31.328v-3.086m0 3.086h3.086"/></g><g clip-path="url(#bM)"><path fill="none" stroke="red" stroke-miterlimit="10" stroke-width=".399" d="M203.223 31.328v-3.086m0 3.086h3.09"/></g><g clip-path="url(#bN)"><path fill="none" stroke="red" stroke-miterlimit="10" stroke-width=".399" d="M206.21 31.328v-3.086m0 3.086h3.09"/></g><g clip-path="url(#bO)"><path fill="none" stroke="red" stroke-miterlimit="10" stroke-width=".399" d="M209.2 31.328v-3.086m0 3.086h3.09"/></g><g clip-path="url(#bP)"><path fill="none" stroke="red" stroke-miterlimit="10" stroke-width=".399" d="M212.188 31.328v-3.086m0 3.086h3.09"/></g><g clip-path="url(#bQ)"><path fill="none" stroke="red" stroke-miterlimit="10" stroke-width=".399" d="M170.344 28.34v-3.086m0 3.086h3.09"/></g><path fill="none" stroke="red" stroke-miterlimit="10" stroke-width=".399" d="M173.336 28.34v-3.086m0 3.086h3.086M176.324 28.34v-3.086m0 3.086h3.086M179.313 28.34v-3.086m0 3.086h3.085M182.3 28.34v-3.086m0 3.086h3.09M185.29 28.34v-3.086m0 3.086h3.089M188.277 28.34v-3.086m0 3.086h3.09M191.266 28.34v-3.086m0 3.086h3.09M194.258 28.34v-3.086m0 3.086h3.086M197.246 28.34v-3.086m0 3.086h3.086M200.234 28.34v-3.086m0 3.086h3.086M203.223 28.34v-3.086m0 3.086h3.09M206.21 28.34v-3.086m0 3.086h3.09M209.2 28.34v-3.086m0 3.086h3.09"/><g clip-path="url(#bR)"><path fill="none" stroke="red" stroke-miterlimit="10" stroke-width=".399" d="M212.188 28.34v-3.086m0 3.086h3.09"/></g><g clip-path="url(#bS)"><path fill="none" stroke="red" stroke-miterlimit="10" stroke-width=".399" d="M170.344 25.352v-3.086m0 3.086h3.09"/></g><path fill="none" stroke="red" stroke-miterlimit="10" stroke-width=".399" d="M173.336 25.352v-3.086m0 3.086h3.086M176.324 25.352v-3.086m0 3.086h3.086M179.313 25.352v-3.086m0 3.086h3.085M182.3 25.352v-3.086m0 3.086h3.09M185.29 25.352v-3.086m0 3.086h3.089M188.277 25.352v-3.086m0 3.086h3.09M191.266 25.352v-3.086m0 3.086h3.09M194.258 25.352v-3.086m0 3.086h3.086M197.246 25.352v-3.086m0 3.086h3.086M200.234 25.352v-3.086m0 3.086h3.086M203.223 25.352v-3.086m0 3.086h3.09M206.21 25.352v-3.086m0 3.086h3.09M209.2 25.352v-3.086m0 3.086h3.09"/><g clip-path="url(#bT)"><path fill="none" stroke="red" stroke-miterlimit="10" stroke-width=".399" d="M212.188 25.352v-3.086m0 3.086h3.09"/></g><g clip-path="url(#bU)"><path fill="none" stroke="red" stroke-miterlimit="10" stroke-width=".399" d="M170.344 22.363v-3.09m0 3.09h3.09"/></g><path fill="none" stroke="red" stroke-miterlimit="10" stroke-width=".399" d="M173.336 22.363v-3.09m0 3.09h3.086M176.324 22.363v-3.09m0 3.09h3.086M179.313 22.363v-3.09m0 3.09h3.085M182.3 22.363v-3.09m0 3.09h3.09M185.29 22.363v-3.09m0 3.09h3.089M188.277 22.363v-3.09m0 3.09h3.09M191.266 22.363v-3.09m0 3.09h3.09M194.258 22.363v-3.09m0 3.09h3.086M197.246 22.363v-3.09m0 3.09h3.086M200.234 22.363v-3.09m0 3.09h3.086M203.223 22.363v-3.09m0 3.09h3.09M206.21 22.363v-3.09m0 3.09h3.09M209.2 22.363v-3.09m0 3.09h3.09"/><g clip-path="url(#bV)"><path fill="none" stroke="red" stroke-miterlimit="10" stroke-width=".399" d="M212.188 22.363v-3.09m0 3.09h3.09"/></g><g clip-path="url(#bW)"><path fill="none" stroke="red" stroke-miterlimit="10" stroke-width=".399" d="M170.344 19.375v-3.09m0 3.09h3.09"/></g><path fill="none" stroke="red" stroke-miterlimit="10" stroke-width=".399" d="M173.336 19.375v-3.09m0 3.09h3.086M176.324 19.375v-3.09m0 3.09h3.086M179.313 19.375v-3.09m0 3.09h3.085M182.3 19.375v-3.09m0 3.09h3.09M185.29 19.375v-3.09m0 3.09h3.089M188.277 19.375v-3.09m0 3.09h3.09M191.266 19.375v-3.09m0 3.09h3.09M194.258 19.375v-3.09m0 3.09h3.086M197.246 19.375v-3.09m0 3.09h3.086M200.234 19.375v-3.09m0 3.09h3.086M203.223 19.375v-3.09m0 3.09h3.09M206.21 19.375v-3.09m0 3.09h3.09M209.2 19.375v-3.09m0 3.09h3.09"/><g clip-path="url(#bX)"><path fill="none" stroke="red" stroke-miterlimit="10" stroke-width=".399" d="M212.188 19.375v-3.09m0 3.09h3.09"/></g><g clip-path="url(#bY)"><path fill="none" stroke="red" stroke-miterlimit="10" stroke-width=".399" d="M170.344 16.387v-3.09m0 3.09h3.09"/></g><path fill="none" stroke="red" stroke-miterlimit="10" stroke-width=".399" d="M173.336 16.387v-3.09m0 3.09h3.086M176.324 16.387v-3.09m0 3.09h3.086M179.313 16.387v-3.09m0 3.09h3.085M182.3 16.387v-3.09m0 3.09h3.09M185.29 16.387v-3.09m0 3.09h3.089M188.277 16.387v-3.09m0 3.09h3.09M191.266 16.387v-3.09m0 3.09h3.09M194.258 16.387v-3.09m0 3.09h3.086M197.246 16.387v-3.09m0 3.09h3.086M200.234 16.387v-3.09m0 3.09h3.086M203.223 16.387v-3.09m0 3.09h3.09M206.21 16.387v-3.09m0 3.09h3.09M209.2 16.387v-3.09m0 3.09h3.09"/><g clip-path="url(#bZ)"><path fill="none" stroke="red" stroke-miterlimit="10" stroke-width=".399" d="M212.188 16.387v-3.09m0 3.09h3.09"/></g><g clip-path="url(#ca)"><path fill="none" stroke="red" stroke-miterlimit="10" stroke-width=".399" d="M170.344 13.398v-3.09m0 3.09h3.09"/></g><g clip-path="url(#cb)"><path fill="none" stroke="red" stroke-miterlimit="10" stroke-width=".399" d="M173.336 13.398v-3.09m0 3.09h3.086"/></g><g clip-path="url(#cc)"><path fill="none" stroke="red" stroke-miterlimit="10" stroke-width=".399" d="M176.324 13.398v-3.09m0 3.09h3.086"/></g><g clip-path="url(#cd)"><path fill="none" stroke="red" stroke-miterlimit="10" stroke-width=".399" d="M179.313 13.398v-3.09m0 3.09h3.085"/></g><g clip-path="url(#ce)"><path fill="none" stroke="red" stroke-miterlimit="10" stroke-width=".399" d="M182.3 13.398v-3.09m0 3.09h3.09"/></g><g clip-path="url(#cf)"><path fill="none" stroke="red" stroke-miterlimit="10" stroke-width=".399" d="M185.29 13.398v-3.09m0 3.09h3.089"/></g><g clip-path="url(#cg)"><path fill="none" stroke="red" stroke-miterlimit="10" stroke-width=".399" d="M188.277 13.398v-3.09m0 3.09h3.09"/></g><g clip-path="url(#ch)"><path fill="none" stroke="red" stroke-miterlimit="10" stroke-width=".399" d="M191.266 13.398v-3.09m0 3.09h3.09"/></g><g clip-path="url(#ci)"><path fill="none" stroke="red" stroke-miterlimit="10" stroke-width=".399" d="M194.258 13.398v-3.09m0 3.09h3.086"/></g><g clip-path="url(#cj)"><path fill="none" stroke="red" stroke-miterlimit="10" stroke-width=".399" d="M197.246 13.398v-3.09m0 3.09h3.086"/></g><g clip-path="url(#ck)"><path fill="none" stroke="red" stroke-miterlimit="10" stroke-width=".399" d="M200.234 13.398v-3.09m0 3.09h3.086"/></g><g clip-path="url(#cl)"><path fill="none" stroke="red" stroke-miterlimit="10" stroke-width=".399" d="M203.223 13.398v-3.09m0 3.09h3.09"/></g><g clip-path="url(#cm)"><path fill="none" stroke="red" stroke-miterlimit="10" stroke-width=".399" d="M206.21 13.398v-3.09m0 3.09h3.09"/></g><g clip-path="url(#cn)"><path fill="none" stroke="red" stroke-miterlimit="10" stroke-width=".399" d="M209.2 13.398v-3.09m0 3.09h3.09"/></g><g clip-path="url(#co)"><path fill="none" stroke="red" stroke-miterlimit="10" stroke-width=".399" d="M212.188 13.398v-3.09m0 3.09h3.09"/></g><g clip-path="url(#cp)"><path fill="none" stroke="red" stroke-miterlimit="10" stroke-width=".399" d="M170.344 10.406V7.32m0 3.086h3.09"/></g><g clip-path="url(#cq)"><path fill="none" stroke="red" stroke-miterlimit="10" stroke-width=".399" d="M173.336 10.406V7.32m0 3.086h3.086"/></g><g clip-path="url(#cr)"><path fill="none" stroke="red" stroke-miterlimit="10" stroke-width=".399" d="M176.324 10.406V7.32m0 3.086h3.086"/></g><g clip-path="url(#cs)"><path fill="none" stroke="red" stroke-miterlimit="10" stroke-width=".399" d="M179.313 10.406V7.32m0 3.086h3.085"/></g><g clip-path="url(#ct)"><path fill="none" stroke="red" stroke-miterlimit="10" stroke-width=".399" d="M182.3 10.406V7.32m0 3.086h3.09"/></g><g clip-path="url(#cu)"><path fill="none" stroke="red" stroke-miterlimit="10" stroke-width=".399" d="M185.29 10.406V7.32m0 3.086h3.089"/></g><g clip-path="url(#cv)"><path fill="none" stroke="red" stroke-miterlimit="10" stroke-width=".399" d="M188.277 10.406V7.32m0 3.086h3.09"/></g><g clip-path="url(#cw)"><path fill="none" stroke="red" stroke-miterlimit="10" stroke-width=".399" d="M191.266 10.406V7.32m0 3.086h3.09"/></g><g clip-path="url(#cx)"><path fill="none" stroke="red" stroke-miterlimit="10" stroke-width=".399" d="M194.258 10.406V7.32m0 3.086h3.086"/></g><g clip-path="url(#cy)"><path fill="none" stroke="red" stroke-miterlimit="10" stroke-width=".399" d="M197.246 10.406V7.32m0 3.086h3.086"/></g><g clip-path="url(#cz)"><path fill="none" stroke="red" stroke-miterlimit="10" stroke-width=".399" d="M200.234 10.406V7.32m0 3.086h3.086"/></g><g clip-path="url(#cA)"><path fill="none" stroke="red" stroke-miterlimit="10" stroke-width=".399" d="M203.223 10.406V7.32m0 3.086h3.09"/></g><g clip-path="url(#cB)"><path fill="none" stroke="red" stroke-miterlimit="10" stroke-width=".399" d="M206.21 10.406V7.32m0 3.086h3.09"/></g><g clip-path="url(#cC)"><path fill="none" stroke="red" stroke-miterlimit="10" stroke-width=".399" d="M209.2 10.406V7.32m0 3.086h3.09"/></g><g clip-path="url(#cD)"><path fill="none" stroke="red" stroke-miterlimit="10" stroke-width=".399" d="M212.188 10.406V7.32m0 3.086h3.09"/></g></svg>