<svg xmlns="http://www.w3.org/2000/svg" xmlns:xlink="http://www.w3.org/1999/xlink" width="116.607" height="14.204"><defs><path id="a" d="M2.328-4.437c0-.188 0-.188-.203-.188-.453.438-1.078.438-1.36.438v.25c.157 0 .626 0 1-.188v3.547c0 .234 0 .328-.687.328H.812V0c.125 0 .985-.031 1.235-.031.219 0 1.094.031 1.25.031v-.25H3.03c-.703 0-.703-.094-.703-.328Zm0 0"/><path id="b" d="M3.594-2.219c0-.765-.094-1.328-.406-1.812-.22-.313-.657-.594-1.204-.594C.36-4.625.36-2.719.36-2.219s0 2.36 1.625 2.36c1.61 0 1.61-1.86 1.61-2.36M1.984-.062c-.328 0-.75-.188-.89-.75C1-1.22 1-1.797 1-2.312c0-.516 0-1.047.094-1.422.156-.547.593-.703.89-.703.375 0 .735.234.86.64.11.375.125.875.125 1.485 0 .515 0 1.03-.094 1.468-.14.64-.61.782-.89.782m0 0"/><path id="c" d="M1.078-3.89c.36.093.563.093.672.093.922 0 1.469-.625 1.469-.734 0-.078-.047-.094-.078-.094-.016 0-.032 0-.063.016-.172.062-.531.203-1.047.203-.203 0-.562-.016-1.015-.188-.079-.031-.094-.031-.094-.031-.094 0-.094.078-.094.188v2.046c0 .125 0 .204.11.204.062 0 .078 0 .14-.094.297-.375.734-.438.969-.438.422 0 .61.328.64.39.126.235.172.5.172.907 0 .203 0 .61-.218.922a.98.98 0 0 1-.813.422c-.453 0-.922-.25-1.094-.719.266.016.407-.156.407-.344 0-.296-.266-.343-.36-.343 0 0-.343 0-.343.375 0 .625.578 1.25 1.406 1.25.89 0 1.672-.657 1.672-1.547 0-.782-.594-1.5-1.453-1.5-.313 0-.672.062-.985.328Zm0 0"/><path id="e" d="M3.516-1.266H3.28c-.015.157-.094.563-.187.625-.047.047-.578.047-.688.047H1.125c.734-.64.984-.843 1.39-1.172.516-.406 1-.843 1-1.5 0-.843-.734-1.359-1.624-1.359-.86 0-1.453.61-1.453 1.25 0 .344.296.39.375.39.156 0 .359-.124.359-.374 0-.125-.047-.375-.406-.375.218-.485.687-.641 1.015-.641.703 0 1.063.547 1.063 1.11 0 .609-.438 1.078-.656 1.328L.516-.266C.437-.203.437-.187.437 0h2.876Zm0 0"/><path id="g" d="M1.047-2.281c0-.563.047-1.078.312-1.516.235-.375.61-.625 1.063-.625.203 0 .484.047.625.234-.172.016-.328.141-.328.344a.32.32 0 0 0 .328.328c.219 0 .344-.14.344-.343 0-.407-.297-.766-.985-.766-1 0-2.031.922-2.031 2.422C.375-.406 1.219.14 2 .14c.844 0 1.578-.657 1.578-1.563 0-.89-.703-1.547-1.515-1.547-.563 0-.86.375-1.016.688M2-.078c-.36 0-.625-.203-.781-.516-.094-.203-.157-.562-.157-.968 0-.688.407-1.204.97-1.204.312 0 .53.125.702.375.172.266.172.563.172.97 0 .39 0 .687-.187.968A.82.82 0 0 1 2-.078m0 0"/><path id="h" d="M3.688-1.14v-.25h-.782V-4.5c0-.14 0-.203-.14-.203-.094 0-.125 0-.188.11L.266-1.392v.25h2.062v.563c0 .25 0 .328-.578.328h-.187V0c.359-.016.796-.031 1.046-.031.266 0 .704.015 1.063.031v-.25h-.188c-.578 0-.578-.078-.578-.328v-.563ZM2.375-3.939v2.547H.531Zm0 0"/><path id="d" d="M2.938-6.375c0-.25 0-.266-.235-.266C2.078-6 1.203-6 .891-6v.313c.203 0 .78 0 1.297-.266v5.172c0 .36-.032.469-.922.469H.953V0c.344-.031 1.203-.031 1.61-.031.39 0 1.265 0 1.609.031v-.312h-.313c-.906 0-.921-.11-.921-.47Zm0 0"/><path id="f" d="M6.563-2.297c.171 0 .359 0 .359-.203 0-.187-.188-.187-.36-.187h-5.39c-.172 0-.344 0-.344.187 0 .203.172.203.344.203Zm0 0"/></defs><use xlink:href="#a" x="2.797" y="5.304"/><path fill="none" stroke="#000" stroke-miterlimit="10" stroke-width=".398" d="M.813 6.734h7.94"/><use xlink:href="#a" x=".813" y="12.662"/><use xlink:href="#b" x="4.783" y="12.662"/><use xlink:href="#c" x="23.093" y="5.304"/><path fill="none" stroke="#000" stroke-miterlimit="10" stroke-width=".398" d="M21.11 6.734h7.94"/><use xlink:href="#a" x="21.108" y="12.662"/><use xlink:href="#b" x="25.079" y="12.662"/><use xlink:href="#d" x="40.209" y="9.227"/><use xlink:href="#e" x="48.371" y="5.304"/><path fill="none" stroke="#000" stroke-miterlimit="10" stroke-width=".398" d="M46.387 6.734h7.941"/><use xlink:href="#a" x="46.386" y="12.662"/><use xlink:href="#b" x="50.356" y="12.662"/><use xlink:href="#f" x="65.487" y="9.227"/><use xlink:href="#g" x="76.416" y="5.304"/><path fill="none" stroke="#000" stroke-miterlimit="10" stroke-width=".398" d="M74.43 6.734h7.941"/><use xlink:href="#a" x="74.43" y="12.662"/><use xlink:href="#b" x="78.401" y="12.662"/><use xlink:href="#f" x="93.531" y="9.227"/><use xlink:href="#d" x="101.279" y="9.227"/><use xlink:href="#h" x="109.442" y="5.304"/><path fill="none" stroke="#000" stroke-miterlimit="10" stroke-width=".398" d="M107.457 6.734h7.941"/><use xlink:href="#a" x="107.457" y="12.662"/><use xlink:href="#b" x="111.427" y="12.662"/></svg>