<svg xmlns="http://www.w3.org/2000/svg" width="48.458" height="11.666"><defs><clipPath id="a"><path d="M0 0h48.188v11.5H0Zm0 0"/></clipPath><clipPath id="b"><path d="M0 0h11v11.5H0Zm0 0"/></clipPath><clipPath id="c"><path d="M23 0h16v11.5H23Zm0 0"/></clipPath><clipPath id="d"><path d="M37 0h11.188v11H37Zm0 0"/></clipPath></defs><g clip-path="url(#a)"><path fill="none" stroke="#BFBFBF" stroke-miterlimit="10" stroke-width=".399" d="m2.695 8.508 14.176-5.672 14.172 5.672 14.172-5.672"/></g><g clip-path="url(#b)"><path fill="none" stroke="#000" stroke-miterlimit="10" stroke-width=".399" d="M2.695 10.5V6.512M.801 9.122 4.59 7.89m-3.067-.996 2.344 3.222m0-3.222-2.344 3.222m3.067-.996L.8 7.891"/></g><path fill="none" stroke="#000" stroke-miterlimit="10" stroke-width=".399" d="M16.871 4.828V.844m-1.898 2.61 3.793-1.231m-3.067-.996 2.34 3.222m0-3.222L15.7 4.449m3.067-.996-3.793-1.23"/><g clip-path="url(#c)"><path fill="none" stroke="#000" stroke-miterlimit="10" stroke-width=".399" d="M31.043 10.5V6.512m-1.895 2.61 3.79-1.231m-3.067-.996 2.344 3.222m0-3.222-2.344 3.222m3.067-.996-3.79-1.23"/></g><g clip-path="url(#d)"><path fill="none" stroke="#000" stroke-miterlimit="10" stroke-width=".399" d="M45.215 4.828V.844m-1.895 2.61 3.79-1.231m-3.063-.996 2.34 3.222m0-3.222-2.34 3.222m3.062-.996-3.789-1.23"/></g></svg>