<svg xmlns="http://www.w3.org/2000/svg" xmlns:xlink="http://www.w3.org/1999/xlink" width="79.868" height="58.016"><defs><path id="b" d="M5.484-5.781c-.109-.172-.171-.14-.312-.047-.11.062-.203.11-.11.266.594 1.171-.14 2.312-1 2.812-.671.39-1.53.61-2.28.328C1.077-2.687.624-3.25.171-4.047-.11-4.53-.625-5.469-.406-6.359-.187-7.25.53-7.781.969-8.031c.937-.547 2.125-.36 2.953.625.125.156.14.156.328.047.234-.141.234-.141.094-.375L3.28-9.594c-.094-.156-.14-.234-.297-.14-.078.046-.078.062-.109.172l-.281.843a3 3 0 0 0-2.047.39c-2.14 1.235-2.719 3.282-1.688 5.048C-.125-1.5 1.922-.984 4.063-2.22c1.625-.937 2-2.547 1.421-3.562m0 0"/><path id="c" d="m3.031-6.312-.234-.407a9 9 0 0 1-.656.422l-.797.422.234.406s.406-.234.453-.14v.14l.25 2.703-2.437-1.703.453-.265-.234-.407-1.047.657-.985.53.235.407.53-.312 3.595 2.484.03.531c.048.516.126 1.266-.5 1.625-.124.078-.14.063-.218.078.063-.062.172-.296 0-.609C1.531-.031 1.22-.125.922.047.703.187.532.484.719.828c.25.422.875.563 1.39.266.657-.375.844-1.219.813-1.844L2.5-5.766c-.016-.156-.016-.218.531-.546m0 0"/><path id="d" d="m2.531-1.453-.234-.406-.594.343-3.219-5.593-1.5.953.235.406c.547-.312.594-.344.797-.016L.766-.984l-.594.343.234.407 1.047-.641Zm0 0"/><path id="e" d="m2.469-1.422-.235-.406-.53.312-2-3.484-1.47.938.235.406c.515-.297.562-.328.765 0L.766-.984l-.594.343.234.407 1.047-.641Zm-3.422-5a.786.786 0 0 0-1.078-.281.785.785 0 0 0-.281 1.062.76.76 0 0 0 1.046.266.767.767 0 0 0 .313-1.047m0 0"/><path id="f" d="m5.297-3.062-.234-.407-.594.344-1.282-2.234c-.53-.907-1.171-.985-2.03-.485C.327-5.359.14-4.594.171-4.03L-.36-4.97l-1.453.938.234.406c.531-.312.594-.344.797-.016L.75-.969l-.594.344.235.406 1.062-.656 1.11-.594-.235-.406-.594.344-1.03-1.797c-.548-.953-.063-1.813.5-2.125.28-.172.577-.094.952.562L3.5-2.562l-.594.343.235.406 1.062-.656Zm0 0"/><path id="g" d="m5.188-2.984-.235-.407c-.531.297-.594.344-.781 0L1.14-8.64l-1.5.954.234.406c.531-.313.61-.344.813-.016l.968 1.703c-.625-.093-1.11.11-1.406.266C-1-4.594-1.469-3.312-.766-2.094c.657 1.14 1.922 1.5 3.188.766.531-.313.844-.75.984-1.11l.235.407Zm-2.094.015c-.031.219-.094.906-.75 1.281-1.047.61-1.656-.437-2-1.046-.25-.422-.516-.875-.485-1.344.032-.5.391-.828.657-.984.5-.282 1-.204 1.343-.063Zm0 0"/><path id="h" d="M3.688-3.469c-.094-.14-.266-.047-.297-.031-.157.094-.141.125-.11.297.063.531-.281 1.078-.844 1.406-1.218.703-1.89-.453-2.14-.875l2.61-1.5c.202-.11.28-.156.14-.39-.156-.266-.578-.875-1.25-1.063-.5-.14-1.047-.016-1.64.328C-1.22-4.5-1.47-3.172-.86-2.109c.672 1.172 2.03 1.5 3.422.703 1.359-.797 1.203-1.906 1.124-2.063m-1.485-.687L.125-2.97c-.172-.328-.375-.719-.36-1.094.032-.468.329-.78.563-.921 1.016-.578 1.688.53 1.875.828m0 0"/><path id="i" d="M1.984-5.39c-.265-.454-.859-.438-1.328-.173-.593.344-.687.985-.562 1.641l-.563-.984L-1.875-4l.234.406c.532-.297.594-.344.797-.015L.687-.937l-.593.343.234.407 1.063-.657c.328-.187.875-.5 1.203-.656l-.235-.406-.734.437L.75-2.984C.406-3.578 0-4.766.86-5.266c0 0-.063.25.078.485.203.36.578.375.812.234.266-.156.438-.484.234-.844m0 0"/><path id="k" d="M6.125 0v-.469h-.687v-2.578c0-1.047-.532-1.437-1.532-1.437a1.9 1.9 0 0 0-1.687.953v-3.39l-1.766.077v.469c.61 0 .688 0 .688.39v5.516H.453V0l1.25-.031L2.953 0v-.469h-.687v-2.078c0-1.094.859-1.578 1.5-1.578.328 0 .547.203.547.969V-.47h-.688V0l1.25-.031Zm0 0"/><path id="l" d="M4.922-1.172c0-.172-.188-.172-.234-.172-.172 0-.188.047-.25.203-.204.485-.782.797-1.422.797-1.407 0-1.422-1.328-1.422-1.828h3.015c.22 0 .313 0 .313-.265 0-.313-.063-1.047-.563-1.547-.359-.36-.89-.532-1.578-.532C1.187-4.516.313-3.484.313-2.25c0 1.344 1 2.313 2.609 2.313 1.578 0 2-1.063 2-1.235M3.984-2.5h-2.39c.015-.39.031-.812.234-1.14.266-.391.672-.516.953-.516 1.172 0 1.188 1.312 1.203 1.656m0 0"/><path id="m" d="M2.844 0v-.469h-.61v-4.015L.5-4.406v.468c.594 0 .656 0 .656.391v3.078H.47V0l1.219-.031Zm-.469-6.047a.774.774 0 0 0-.781-.781.784.784 0 0 0-.782.781c0 .422.36.766.782.766a.77.77 0 0 0 .781-.766m0 0"/><path id="n" d="M5.563-3.953c0-.235-.172-.578-.625-.578-.157 0-.625.031-1.063.375-.172-.125-.594-.328-1.328-.328-1.438 0-1.985.78-1.985 1.468 0 .407.188.829.516 1.047-.281.36-.344.688-.344.89 0 .157.047.642.438.954-.125.031-.86.25-.86.875C.313 1.25.876 2 2.86 2 4.625 2 5.406 1.422 5.406.719c0-.297-.078-.922-.75-1.266-.562-.281-1.156-.281-2.11-.281-.265 0-.718 0-.765-.016a.625.625 0 0 1-.562-.625c0-.093.047-.25.11-.328.452.234.968.266 1.218.266 1.437 0 1.984-.782 1.984-1.485 0-.468-.25-.796-.406-.953.297-.156.516-.172.625-.187a.43.43 0 0 0-.047.203c0 .25.172.422.438.422a.41.41 0 0 0 .422-.422m-2.141.937c0 .454 0 1.125-.875 1.125s-.875-.671-.875-1.125c0-.437 0-1.109.875-1.109s.875.672.875 1.11M4.547.75c0 .36-.39.89-1.688.89-1.187 0-1.687-.452-1.687-.906 0-.609.625-.609.766-.609h1.171c.313 0 1.438 0 1.438.625m0 0"/><path id="o" d="M3.813-1.234v-.532h-.47v.516c0 .672-.327.906-.609.906-.578 0-.578-.64-.578-.86v-2.75h1.469v-.468H2.156v-1.906h-.469c0 1-.484 1.984-1.484 2.016v.359h.828v2.734c0 1.063.86 1.282 1.578 1.282.75 0 1.204-.579 1.204-1.297m0 0"/><path id="p" d="M8.031-3.953v-.469a13 13 0 0 1-.781.031l-.953-.03v.468c.094 0 .578 0 .578.11 0 .03-.031.093-.031.124L5.797-1.172l-1.14-2.781h.562v-.469l-1.14.031c-.423 0-.845-.03-1-.03v.468h.593c.203.5.203.531.203.531 0 .031-.031.094-.031.125L3.047-1.39 2-3.953h.563v-.469l-1.235.031L.25-4.42v.468h.594L2.359-.234c.079.172.11.28.36.28s.297-.108.36-.28L4.14-2.812 5.188-.235c.078.172.109.28.359.28s.297-.108.36-.28L7.343-3.75c.047-.125.093-.203.687-.203m0 0"/><path id="q" d="M5.984 0v-.469c-.609 0-.687 0-.687-.39v-6.063l-1.766.078v.469c.625 0 .703 0 .703.39v1.954a2.18 2.18 0 0 0-1.359-.453c-1.453 0-2.5.875-2.5 2.28 0 1.313.922 2.267 2.39 2.267.61 0 1.094-.235 1.407-.485v.485ZM4.172-1.031c-.14.187-.547.734-1.297.734-1.219 0-1.219-1.203-1.219-1.906 0-.485 0-1.016.25-1.406.297-.422.766-.516 1.078-.516.563 0 .97.313 1.188.61Zm0 0"/><clipPath id="a"><path d="M7 0h72.8v57.523H7Zm0 0"/></clipPath><clipPath id="j"><path d="M12 4h67.8v45H12Zm0 0"/></clipPath></defs><g clip-path="url(#a)"><path fill="none" stroke="#BFBFBF" stroke-miterlimit="10" stroke-width=".399" d="M15.816 27.832c-3.722 2.152-3.57 9.39.344 16.168 3.914 6.781 10.106 10.531 13.832 8.383l45.906-26.504c3.723-2.152 3.57-9.39-.343-16.172C71.64 2.93 65.449-.824 61.723 1.328ZM61.723 1.328c-3.723 2.152-3.57 9.39.343 16.168 3.914 6.781 10.106 10.531 13.832 8.383"/></g><g fill="#BFBFBF"><use xlink:href="#b" x="22.679" y="43.094"/><use xlink:href="#c" x="29.849" y="38.955"/><use xlink:href="#d" x="35.086" y="35.931"/><use xlink:href="#e" x="37.838" y="34.342"/><use xlink:href="#f" x="40.591" y="32.753"/><use xlink:href="#g" x="46.104" y="29.57"/><use xlink:href="#h" x="51.617" y="26.387"/><use xlink:href="#i" x="56.164" y="23.761"/></g><g clip-path="url(#j)"><path fill="none" stroke="red" stroke-miterlimit="10" stroke-width=".399" d="m74.004 10.605-56.293 32.5"/></g><path fill="red" d="m75.727 9.61-3.555.21 1.832.785-.238 1.977M15.984 44.102l3.559-.215-1.832-.782.238-1.98"/><use xlink:href="#k" x=".475" y="54.534"/><use xlink:href="#l" x="6.841" y="54.534"/><use xlink:href="#m" x="12.091" y="54.534"/><use xlink:href="#n" x="15.27" y="54.534"/><use xlink:href="#k" x="20.998" y="54.534"/><use xlink:href="#o" x="27.045" y="54.534"/><path fill="none" stroke="red" stroke-miterlimit="10" stroke-width=".399" d="m34.04 19.379 12.382 21.445"/><path fill="red" d="m33.043 17.652.215 3.559.781-1.832 1.98.238M47.418 42.55l-.211-3.558-.785 1.832-1.977-.238"/><use xlink:href="#p" x="18.723" y="14.073"/><use xlink:href="#m" x="27.002" y="14.073"/><use xlink:href="#q" x="30.18" y="14.073"/><use xlink:href="#o" x="36.546" y="14.073"/><use xlink:href="#k" x="40.999" y="14.073"/></svg>