<svg xmlns="http://www.w3.org/2000/svg" width="161.409" height="28.298"><path d="M3.168 3.742c.707.746 2.098.227 2.309 1.426.18 1.016.261 1.633-.665 2.383-.753.61-.378.828-.636 1.773-.278 1.024-1.098 1.688-1.836 1.489-1.645-.446-.223-2.489-.774-2.844-.722-.465-.851-1.54-.382-2.301.285-.465-1.02-1.316-.2-2.168.575-.594 1.864-.094 2.184.242m2.043-2.715c.226.418-.074 1.024-.672 1.352-.598.332-1.27.262-1.5-.156s.07-1.024.672-1.352c.598-.332 1.27-.258 1.5.156m3.332 1.371c.207.504-.176 1.192-.855 1.536-.68.343-1.399.214-1.606-.29-.21-.503.172-1.19.852-1.535.68-.343 1.398-.21 1.609.29m2.11 3.415c.1.582-.536 1.183-1.426 1.34-.891.156-1.696-.188-1.797-.774-.102-.582.535-1.184 1.425-1.34.887-.156 1.692.188 1.797.774M8.097 9.8c.02.52-.63.984-1.45 1.039-.82.058-1.5-.317-1.52-.836-.015-.52.634-.984 1.45-1.04.82-.054 1.5.321 1.52.837m10.011 14.07c.711-.746 2.102-.23 2.313-1.426.18-1.015.262-1.633-.664-2.383-.758-.613-.383-.828-.637-1.777-.277-1.02-1.101-1.687-1.836-1.484-1.644.445-.226 2.484-.777 2.84-.723.468-.848 1.543-.38 2.304.282.461-1.019 1.317-.198 2.168.574.594 1.863.094 2.18-.242m2.043 2.711c.23-.414-.07-1.02-.668-1.352-.601-.328-1.273-.257-1.5.16-.23.415.07 1.02.668 1.352.602.328 1.274.258 1.5-.16m3.332-1.371c.211-.504-.172-1.188-.851-1.531-.68-.344-1.399-.215-1.61.289-.207.5.176 1.187.856 1.531s1.398.215 1.605-.29m2.114-3.41c.101-.582-.535-1.184-1.426-1.34s-1.695.187-1.797.773c-.105.582.535 1.184 1.422 1.34.89.156 1.695-.187 1.8-.773m-2.559-3.992c.02-.516-.629-.985-1.445-1.04-.82-.054-1.5.32-1.52.84s.63.985 1.45 1.04c.82.054 1.5-.32 1.515-.84M33.055 3.742c.707.746 2.101.227 2.312 1.426.176 1.016.262 1.633-.668 2.383-.754.61-.379.828-.636 1.773-.278 1.024-1.098 1.688-1.833 1.489-1.644-.446-.226-2.489-.777-2.844-.723-.465-.848-1.54-.383-2.301.285-.465-1.015-1.316-.195-2.168.57-.594 1.86-.094 2.18.242m2.043-2.715c.23.418-.07 1.024-.668 1.352-.602.332-1.274.262-1.504-.156-.227-.418.07-1.024.672-1.352.597-.332 1.27-.258 1.5.156m3.332 1.371c.207.504-.172 1.192-.852 1.536-.68.343-1.398.214-1.61-.29-.206-.503.173-1.19.852-1.535.68-.343 1.403-.21 1.61.29m2.11 3.415c.105.582-.536 1.183-1.423 1.34-.89.156-1.695-.188-1.8-.774-.102-.582.535-1.184 1.425-1.34s1.696.188 1.797.774M37.983 9.8c.02.52-.629.984-1.449 1.039-.816.058-1.496-.317-1.515-.836-.02-.52.628-.984 1.449-1.04.816-.054 1.496.321 1.515.837M48 23.87c.707-.746 2.098-.23 2.309-1.426.18-1.015.261-1.633-.664-2.383-.754-.613-.38-.828-.637-1.777-.278-1.02-1.098-1.687-1.836-1.484-1.645.445-.223 2.484-.774 2.84-.722.468-.847 1.543-.382 2.304.285.461-1.02 1.317-.2 2.168.575.594 1.864.094 2.184-.242m2.043 2.711c.227-.414-.07-1.02-.672-1.352-.598-.328-1.27-.257-1.5.16-.23.415.07 1.02.672 1.352.598.328 1.27.258 1.5-.16m3.332-1.371c.207-.504-.176-1.188-.855-1.531-.676-.344-1.399-.215-1.606.289-.21.5.172 1.187.852 1.531s1.398.215 1.609-.29m2.11-3.41c.1-.582-.536-1.184-1.426-1.34-.887-.156-1.696.187-1.797.773-.102.582.535 1.184 1.425 1.34.891.156 1.696-.187 1.797-.773m-2.555-3.992c.02-.516-.63-.985-1.45-1.04-.82-.054-1.5.32-1.515.84-.02.52.629.985 1.445 1.04.82.054 1.5-.32 1.52-.84M62.945 3.742c.707.746 2.098.227 2.309 1.426.18 1.016.262 1.633-.664 2.383-.758.61-.38.828-.637 1.773-.277 1.024-1.098 1.688-1.836 1.489-1.644-.446-.226-2.489-.773-2.844-.727-.465-.852-1.54-.383-2.301.281-.465-1.02-1.316-.2-2.168.575-.594 1.864-.094 2.184.242m2.04-2.715c.23.418-.07 1.024-.669 1.352-.597.332-1.27.262-1.5-.156s.07-1.024.668-1.352c.602-.332 1.274-.258 1.5.156m3.331 1.371c.211.504-.171 1.192-.851 1.536-.68.343-1.399.214-1.606-.29-.21-.503.172-1.19.852-1.535.68-.343 1.398-.21 1.605.29m2.114 3.415c.101.582-.535 1.183-1.426 1.34-.89.156-1.695-.188-1.797-.774-.105-.582.535-1.184 1.426-1.34.887-.156 1.691.188 1.797.774M67.875 9.8c.02.52-.633.984-1.45 1.039-.82.058-1.5-.317-1.519-.836-.02-.52.63-.984 1.45-1.04.82-.054 1.5.321 1.519.837m10.012 14.07c.707-.746 2.101-.23 2.312-1.426.18-1.015.262-1.633-.664-2.383-.758-.613-.383-.828-.637-1.777-.277-1.02-1.101-1.687-1.835-1.484-1.645.445-.227 2.484-.778 2.84-.722.468-.847 1.543-.379 2.304.281.461-1.02 1.317-.199 2.168.574.594 1.863.094 2.18-.242m2.043 2.711c.23-.414-.07-1.02-.668-1.352-.602-.328-1.274-.257-1.5.16-.23.415.07 1.02.668 1.352.597.328 1.27.258 1.5-.16m3.332-1.371c.207-.504-.172-1.188-.852-1.531-.68-.344-1.398-.215-1.61.289-.206.5.177 1.187.852 1.531.68.344 1.403.215 1.61-.29m2.11-3.41c.105-.582-.536-1.184-1.423-1.34-.89-.156-1.695.187-1.8.773-.102.582.535 1.184 1.425 1.34s1.696-.187 1.797-.773m-2.556-3.992c.02-.516-.629-.985-1.445-1.04-.82-.054-1.5.32-1.52.84-.019.52.63.985 1.45 1.04.816.054 1.496-.32 1.515-.84M92.832 3.742c.707.746 2.098.227 2.309 1.426.18 1.016.261 1.633-.664 2.383-.754.61-.38.828-.637 1.773-.278 1.024-1.098 1.688-1.836 1.489-1.64-.446-.223-2.489-.774-2.844-.722-.465-.847-1.54-.382-2.301.285-.465-1.016-1.316-.2-2.168.575-.594 1.864-.094 2.184.242m2.043-2.715c.227.418-.07 1.024-.672 1.352-.598.332-1.27.262-1.5-.156-.226-.418.07-1.024.672-1.352.598-.332 1.27-.258 1.5.156m3.332 1.371c.207.504-.176 1.192-.852 1.536-.68.343-1.402.214-1.609-.29-.207-.503.172-1.19.852-1.535.68-.343 1.398-.21 1.609.29m2.11 3.415c.101.582-.536 1.183-1.426 1.34-.887.156-1.692-.188-1.797-.774-.102-.582.535-1.184 1.426-1.34s1.695.188 1.796.774M97.761 9.8c.02.52-.63.984-1.45 1.039-.816.058-1.496-.317-1.515-.836-.02-.52.629-.984 1.445-1.04.82-.054 1.5.321 1.52.837m10.015 14.07c.707-.746 2.098-.23 2.309-1.426.18-1.015.262-1.633-.664-2.383-.754-.613-.379-.828-.637-1.777-.277-1.02-1.097-1.687-1.836-1.484-1.644.445-.226 2.484-.773 2.84-.727.468-.852 1.543-.383 2.304.281.461-1.02 1.317-.2 2.168.575.594 1.864.094 2.184-.242m2.04 2.711c.23-.414-.07-1.02-.669-1.352-.597-.328-1.27-.257-1.5.16-.23.415.07 1.02.668 1.352.602.328 1.274.258 1.5-.16m3.335-1.371c.207-.504-.175-1.188-.855-1.531-.68-.344-1.399-.215-1.606.289-.21.5.172 1.187.852 1.531s1.398.215 1.61-.29m2.11-3.41c.101-.582-.535-1.184-1.426-1.34s-1.695.187-1.797.773c-.102.582.535 1.184 1.426 1.34.887.156 1.691-.187 1.797-.773m-2.555-3.992c.02-.516-.629-.985-1.45-1.04-.82-.054-1.5.32-1.519.84-.02.52.63.985 1.45 1.04.82.054 1.5-.32 1.519-.84m10.012-14.067c.707.746 2.101.227 2.312 1.426.18 1.016.262 1.633-.664 2.383-.758.61-.383.828-.637 1.773-.277 1.024-1.101 1.688-1.835 1.489-1.645-.446-.227-2.489-.778-2.844-.722-.465-.847-1.54-.379-2.301.282-.465-1.02-1.316-.199-2.168.574-.594 1.863-.094 2.18.242m2.043-2.715c.23.418-.07 1.024-.668 1.352-.602.332-1.274.262-1.5-.156-.23-.418.07-1.024.668-1.352.597-.332 1.27-.258 1.5.156m3.332 1.371c.21.504-.172 1.192-.852 1.536-.68.343-1.398.214-1.61-.29-.206-.503.177-1.19.856-1.535.68-.343 1.399-.21 1.606.29m2.11 3.415c.105.582-.536 1.183-1.423 1.34-.89.156-1.695-.188-1.797-.774-.105-.582.536-1.184 1.422-1.34.89-.156 1.696.188 1.797.774M127.647 9.8c.02.52-.628.984-1.445 1.039-.82.058-1.5-.317-1.52-.836-.019-.52.63-.984 1.45-1.04.82-.054 1.496.321 1.515.837m10.016 14.07c.707-.746 2.102-.23 2.313-1.426.175-1.015.261-1.633-.668-2.383-.754-.613-.38-.828-.637-1.777-.277-1.02-1.098-1.687-1.832-1.484-1.645.445-.227 2.484-.778 2.84-.722.468-.847 1.543-.382 2.304.285.461-1.016 1.317-.2 2.168.575.594 1.864.094 2.184-.242m2.043 2.711c.23-.414-.07-1.02-.672-1.352-.597-.328-1.27-.257-1.5.16-.226.415.07 1.02.672 1.352.598.328 1.27.258 1.5-.16m3.332-1.371c.207-.504-.172-1.188-.851-1.531-.68-.344-1.403-.215-1.61.289-.207.5.172 1.187.852 1.531s1.402.215 1.61-.29m2.11-3.41c.101-.582-.536-1.184-1.426-1.34-.887-.156-1.692.187-1.797.773-.102.582.535 1.184 1.426 1.34s1.695-.187 1.796-.773m-2.555-3.992c.02-.516-.63-.985-1.45-1.04-.816-.054-1.496.32-1.515.84-.02.52.629.985 1.45 1.04.816.054 1.495-.32 1.515-.84m10.015-14.067c.707.746 2.098.227 2.309 1.426.18 1.016.262 1.633-.664 2.383-.754.61-.379.828-.637 1.773-.277 1.024-1.097 1.688-1.836 1.489-1.644-.446-.222-2.489-.773-2.844-.723-.465-.852-1.54-.383-2.301.285-.465-1.02-1.316-.2-2.168.575-.594 1.864-.094 2.184.242m2.043-2.715c.227.418-.074 1.024-.672 1.352-.597.332-1.27.262-1.5-.156s.07-1.024.672-1.352c.598-.332 1.27-.258 1.5.156m3.332 1.371c.207.504-.175 1.192-.855 1.536-.68.343-1.399.214-1.606-.29-.21-.503.172-1.19.852-1.535.68-.343 1.398-.21 1.61.29m2.11 3.415c.101.582-.535 1.183-1.426 1.34-.89.156-1.695-.188-1.797-.774-.101-.582.535-1.184 1.426-1.34.887-.156 1.691.188 1.797.774M157.539 9.8c.02.52-.629.984-1.45 1.039-.82.058-1.5-.317-1.519-.836-.015-.52.633-.984 1.45-1.04.82-.054 1.5.321 1.52.837m0 0"/></svg>