<svg xmlns="http://www.w3.org/2000/svg" xmlns:xlink="http://www.w3.org/1999/xlink" width="87.338" height="59.042"><defs><path id="a" d="M.453-4.531c.531-.657.625-1.563.188-2.219-.453-.687-1.5-.672-2.282-.14-.843.546-1.14 1.484-.703 2.124.172.266.453.297.703.125.25-.156.297-.437.141-.687-.281-.406-.672-.156-.797-.078-.015-.578.453-1.047.75-1.235.36-.234.938-.375 1.438.375.062.094.343.594.39 1.11.016.562-.25.781-.468.922-.047.062-.235.203-.297.25-.063.03-.094.093-.047.172.062.093.11.046.265-.047l.36-.235c.672-.453 1.36-.093 1.906.719.75 1.14.328 1.75-.031 2-.36.234-1.078.516-1.688.219.313-.157.453-.5.25-.813A.545.545 0 0 0-.25-2.14c-.203.141-.39.422-.156.782.5.765 1.656.797 2.562.187 1.016-.672 1.266-1.937.703-2.781-.453-.672-1.421-.969-2.406-.578m0 0"/><path id="b" d="M4.11-6.797C2.983-8.484.827-9-.688-8c-1.485 1-1.86 3.156-.72 4.875C-.265-1.422 1.86-.969 3.344-1.969c1.516-1 1.891-3.14.766-4.828m-.923 4.61c-.78.53-2.39.546-3.828-1.61-1.421-2.14-.593-3.531.094-4 .719-.469 2.297-.687 3.719 1.453 1.469 2.188.781 3.657.015 4.157m0 0"/><clipPath id="c"><path d="M0 0h87.008v58.563H0Zm0 0"/></clipPath></defs><path fill="none" stroke="#000" stroke-miterlimit="10" stroke-width=".399" d="M52.953 18.434 29.746 33.906l3.867 5.801 23.211-15.473Zm0 0"/><use xlink:href="#a" x="53.985" y="38.778"/><use xlink:href="#b" x="58.13" y="36.015"/><g clip-path="url(#c)"><path fill="none" stroke="#000" stroke-miterlimit="10" stroke-width=".399" d="m.797 57.395 30.715-20.477m23.543-15.695L85.835.703"/></g></svg>