<svg xmlns="http://www.w3.org/2000/svg" width="31.977" height="7.616"><defs><clipPath id="a"><path d="M0 0h31.965v7.426H0Zm0 0"/></clipPath></defs><path fill="none" stroke="#000" stroke-miterlimit="10" stroke-width="1.594" d="M.996 3.613h19.508"/><path d="M30.09 3.613c.328-1.105-1.547-2-4.195-2-2.645 0-5.06.895-5.391 2-.332 1.102 1.547 1.996 4.195 1.996 2.645 0 5.059-.894 5.39-1.996m0 0"/><g clip-path="url(#a)"><path fill="none" stroke="#000" stroke-miterlimit="10" stroke-width="1.594" d="M10.383-.001c-.004 1.105-2.147 2-4.796 2-2.644 0-4.79-.895-4.79-2C.795-1.103 2.942-1.997 5.59-1.997c2.644 0 4.79.894 4.792 1.996Zm0 0" transform="matrix(1 0 .3 -1 19.708 3.612)"/></g></svg>