<svg xmlns="http://www.w3.org/2000/svg" xmlns:xlink="http://www.w3.org/1999/xlink" width="116.093" height="58.898"><defs><path id="a" d="m8.453-1.484-.078-.47-1.062.188L6.28-7.578l1.063-.188-.078-.453c-.391.094-1.344.266-1.782.344-.406.063-1.359.234-1.75.266l.079.453 1.062-.188.453 2.563-3.156.562-.453-2.562L2.78-6.97l-.078-.453c-.36.094-1.328.266-1.75.344s-1.39.234-1.75.281l.078.453L.344-6.53 1.375-.72.313-.53l.078.469c.359-.11 1.328-.266 1.75-.344s1.39-.25 1.75-.281l-.079-.47-1.062.188-.5-2.797 3.156-.562.5 2.797-1.062.187.078.469c.39-.094 1.344-.266 1.75-.328.437-.078 1.39-.25 1.781-.281m0 0"/><path id="b" d="M4.64-2.016c-.03-.171-.218-.14-.265-.125-.156.032-.156.079-.203.25-.11.516-.64.907-1.266 1.016-1.39.25-1.64-1.047-1.719-1.547l2.985-.515c.203-.047.297-.063.25-.329-.063-.296-.25-1.015-.813-1.406-.421-.297-.968-.39-1.656-.266-1.562.282-2.25 1.454-2.031 2.672C.156-.937 1.312-.172 2.89-.437 4.453-.72 4.67-1.844 4.64-2.016m-1.156-1.14-2.359.406c-.047-.375-.11-.797.047-1.14a1.17 1.17 0 0 1 .844-.688c1.156-.203 1.39 1.094 1.468 1.422m0 0"/><path id="c" d="m2.875-.5-.078-.469-.672.11L1-7.203l-1.719.39.078.454c.61-.11.672-.125.735.265l.969 5.422-.672.125.078.469 1.187-.25Zm0 0"/><path id="d" d="M4.953-3.078C4.72-4.406 3.641-5.234 2.031-4.953S-.297-3.5-.062-2.187C.156-.97 1.203-.142 2.828-.437 4.484-.72 5.156-1.875 4.953-3.078m-1.281.11c.14.843.328 1.906-.922 2.124S1.313-1.687 1.172-2.53C1.094-2.97 1-3.47 1.109-3.844c.125-.39.516-.656.985-.75.422-.062.86.016 1.125.313s.36.843.453 1.312m0 0"/><clipPath id="e"><path d="M23 18h46v40.848H23Zm0 0"/></clipPath><clipPath id="f"><path d="M0 28h24v30.848H0Zm0 0"/></clipPath></defs><path fill="none" stroke="#7F7F7F" stroke-miterlimit="10" stroke-width=".199" d="M1.152 57.742H114.54M1.152 29.395H114.54M1.152 1.059H114.54M1.152 57.742V1.047M29.5 57.742V1.047m28.348 56.695V1.047m28.347 56.695V1.047m28.336 56.695V1.047"/><path fill="#FCC" stroke="#00F" stroke-miterlimit="10" stroke-width="1.196" d="M25.188 53.156h65.32V5.633h-65.32Zm0 0"/><path fill="none" stroke="#00F" stroke-miterlimit="10" stroke-width="1.196" d="M51.781 20.89c0-6.261-5.078-11.34-11.34-11.34S29.105 14.63 29.105 20.89s5.075 11.34 11.336 11.34 11.34-5.078 11.34-11.34Zm0 0"/><use xlink:href="#a" x="57.426" y="26.55"/><use xlink:href="#b" x="66.257" y="24.993"/><use xlink:href="#c" x="71.427" y="24.081"/><use xlink:href="#c" x="74.557" y="23.529"/><use xlink:href="#d" x="77.687" y="22.978"/><g clip-path="url(#e)"><path fill="none" stroke="#00F" stroke-miterlimit="10" stroke-width="1.196" d="M51.781 41.332a5.67 5.67 0 1 0-11.341-.002 5.67 5.67 0 0 0 11.341.002Zm0 0"/></g><path fill="red" d="M78.285 41.332a8.5 8.5 0 0 0-8.504-8.504 8.503 8.503 0 0 0-8.504 8.504 8.506 8.506 0 0 0 8.504 8.504c4.7 0 8.504-3.809 8.504-8.504m0 0"/><g clip-path="url(#f)"><path fill="none" stroke="#000" stroke-miterlimit="10" stroke-width="1.196" d="M1.152 57.742V29.395h22.243"/></g><path fill="none" stroke="#000" stroke-linecap="round" stroke-linejoin="round" stroke-miterlimit="10" stroke-width="1.196" d="M20.96 25.563c.556 2.3 1.79 3.386 3.032 3.832-1.242.449-2.476 1.53-3.031 3.832"/></svg>